<?xml version='1.0' encoding='utf-8'?>
<svg xmlns="http://www.w3.org/2000/svg" id="chart-834e9589-dc51-4173-a076-235b2fedb86b" class="pygal-chart pygal-sparkline" viewBox="0 0 200 50" width="200" height="50"><!--Generated with pygal 3.0.5 (etree) ©Kozea 2012-2016 on 2024-10-02--><!--http://pygal.org--><!--http://github.com/Kozea/pygal--><defs><style type="text/css">#chart-834e9589-dc51-4173-a076-235b2fedb86b{-webkit-user-select:none;-webkit-font-smoothing:antialiased;font-family:Consolas,"Liberation Mono",Menlo,Courier,monospace}#chart-834e9589-dc51-4173-a076-235b2fedb86b .title{font-family:Consolas,"Liberation Mono",Menlo,Courier,monospace;font-size:16px}#chart-834e9589-dc51-4173-a076-235b2fedb86b .legends .legend text{font-family:Consolas,"Liberation Mono",Menlo,Courier,monospace;font-size:14px}#chart-834e9589-dc51-4173-a076-235b2fedb86b .axis text{font-family:Consolas,"Liberation Mono",Menlo,Courier,monospace;font-size:10px}#chart-834e9589-dc51-4173-a076-235b2fedb86b .axis text.major{font-family:Consolas,"Liberation Mono",Menlo,Courier,monospace;font-size:10px}#chart-834e9589-dc51-4173-a076-235b2fedb86b .text-overlay text.value{font-family:Consolas,"Liberation Mono",Menlo,Courier,monospace;font-size:16px}#chart-834e9589-dc51-4173-a076-235b2fedb86b .text-overlay text.label{font-family:Consolas,"Liberation Mono",Menlo,Courier,monospace;font-size:10px}#chart-834e9589-dc51-4173-a076-235b2fedb86b .tooltip{font-family:Consolas,"Liberation Mono",Menlo,Courier,monospace;font-size:14px}#chart-834e9589-dc51-4173-a076-235b2fedb86b text.no_data{font-family:Consolas,"Liberation Mono",Menlo,Courier,monospace;font-size:64px}
#chart-834e9589-dc51-4173-a076-235b2fedb86b{background-color:rgba(249,249,249,1)}#chart-834e9589-dc51-4173-a076-235b2fedb86b path,#chart-834e9589-dc51-4173-a076-235b2fedb86b line,#chart-834e9589-dc51-4173-a076-235b2fedb86b rect,#chart-834e9589-dc51-4173-a076-235b2fedb86b circle{-webkit-transition:150ms;-moz-transition:150ms;transition:150ms}#chart-834e9589-dc51-4173-a076-235b2fedb86b .graph &gt; .background{fill:rgba(249,249,249,1)}#chart-834e9589-dc51-4173-a076-235b2fedb86b .plot &gt; .background{fill:rgba(255,255,255,1)}#chart-834e9589-dc51-4173-a076-235b2fedb86b .graph{fill:rgba(0,0,0,.87)}#chart-834e9589-dc51-4173-a076-235b2fedb86b text.no_data{fill:rgba(0,0,0,1)}#chart-834e9589-dc51-4173-a076-235b2fedb86b .title{fill:rgba(0,0,0,1)}#chart-834e9589-dc51-4173-a076-235b2fedb86b .legends .legend text{fill:rgba(0,0,0,.87)}#chart-834e9589-dc51-4173-a076-235b2fedb86b .legends .legend:hover text{fill:rgba(0,0,0,1)}#chart-834e9589-dc51-4173-a076-235b2fedb86b .axis .line{stroke:rgba(0,0,0,1)}#chart-834e9589-dc51-4173-a076-235b2fedb86b .axis .guide.line{stroke:rgba(0,0,0,.54)}#chart-834e9589-dc51-4173-a076-235b2fedb86b .axis .major.line{stroke:rgba(0,0,0,.87)}#chart-834e9589-dc51-4173-a076-235b2fedb86b .axis text.major{fill:rgba(0,0,0,1)}#chart-834e9589-dc51-4173-a076-235b2fedb86b .axis.y .guides:hover .guide.line,#chart-834e9589-dc51-4173-a076-235b2fedb86b .line-graph .axis.x .guides:hover .guide.line,#chart-834e9589-dc51-4173-a076-235b2fedb86b .stackedline-graph .axis.x .guides:hover .guide.line,#chart-834e9589-dc51-4173-a076-235b2fedb86b .xy-graph .axis.x .guides:hover .guide.line{stroke:rgba(0,0,0,1)}#chart-834e9589-dc51-4173-a076-235b2fedb86b .axis .guides:hover text{fill:rgba(0,0,0,1)}#chart-834e9589-dc51-4173-a076-235b2fedb86b .reactive{fill-opacity:.7;stroke-opacity:.8;stroke-width:1}#chart-834e9589-dc51-4173-a076-235b2fedb86b .ci{stroke:rgba(0,0,0,.87)}#chart-834e9589-dc51-4173-a076-235b2fedb86b .reactive.active,#chart-834e9589-dc51-4173-a076-235b2fedb86b .active .reactive{fill-opacity:.8;stroke-opacity:.9;stroke-width:4}#chart-834e9589-dc51-4173-a076-235b2fedb86b .ci .reactive.active{stroke-width:1.5}#chart-834e9589-dc51-4173-a076-235b2fedb86b .series text{fill:rgba(0,0,0,1)}#chart-834e9589-dc51-4173-a076-235b2fedb86b .tooltip rect{fill:rgba(255,255,255,1);stroke:rgba(0,0,0,1);-webkit-transition:opacity 150ms;-moz-transition:opacity 150ms;transition:opacity 150ms}#chart-834e9589-dc51-4173-a076-235b2fedb86b .tooltip .label{fill:rgba(0,0,0,.87)}#chart-834e9589-dc51-4173-a076-235b2fedb86b .tooltip .label{fill:rgba(0,0,0,.87)}#chart-834e9589-dc51-4173-a076-235b2fedb86b .tooltip .legend{font-size:.8em;fill:rgba(0,0,0,.54)}#chart-834e9589-dc51-4173-a076-235b2fedb86b .tooltip .x_label{font-size:.6em;fill:rgba(0,0,0,1)}#chart-834e9589-dc51-4173-a076-235b2fedb86b .tooltip .xlink{font-size:.5em;text-decoration:underline}#chart-834e9589-dc51-4173-a076-235b2fedb86b .tooltip .value{font-size:1.5em}#chart-834e9589-dc51-4173-a076-235b2fedb86b .bound{font-size:.5em}#chart-834e9589-dc51-4173-a076-235b2fedb86b .max-value{font-size:.75em;fill:rgba(0,0,0,.54)}#chart-834e9589-dc51-4173-a076-235b2fedb86b .map-element{fill:rgba(255,255,255,1);stroke:rgba(0,0,0,.54) !important}#chart-834e9589-dc51-4173-a076-235b2fedb86b .map-element .reactive{fill-opacity:inherit;stroke-opacity:inherit}#chart-834e9589-dc51-4173-a076-235b2fedb86b .color-0,#chart-834e9589-dc51-4173-a076-235b2fedb86b .color-0 a:visited{stroke:#F44336;fill:#F44336}#chart-834e9589-dc51-4173-a076-235b2fedb86b .text-overlay .color-0 text{fill:black}
#chart-834e9589-dc51-4173-a076-235b2fedb86b text.no_data{text-anchor:middle}#chart-834e9589-dc51-4173-a076-235b2fedb86b .guide.line{fill:none}#chart-834e9589-dc51-4173-a076-235b2fedb86b .centered{text-anchor:middle}#chart-834e9589-dc51-4173-a076-235b2fedb86b .title{text-anchor:middle}#chart-834e9589-dc51-4173-a076-235b2fedb86b .legends .legend text{fill-opacity:1}#chart-834e9589-dc51-4173-a076-235b2fedb86b .axis.x text{text-anchor:middle}#chart-834e9589-dc51-4173-a076-235b2fedb86b .axis.x:not(.web) text[transform]{text-anchor:start}#chart-834e9589-dc51-4173-a076-235b2fedb86b .axis.x:not(.web) text[transform].backwards{text-anchor:end}#chart-834e9589-dc51-4173-a076-235b2fedb86b .axis.y text{text-anchor:end}#chart-834e9589-dc51-4173-a076-235b2fedb86b .axis.y text[transform].backwards{text-anchor:start}#chart-834e9589-dc51-4173-a076-235b2fedb86b .axis.y2 text{text-anchor:start}#chart-834e9589-dc51-4173-a076-235b2fedb86b .axis.y2 text[transform].backwards{text-anchor:end}#chart-834e9589-dc51-4173-a076-235b2fedb86b .axis .guide.line{stroke-dasharray:4,4;stroke:black}#chart-834e9589-dc51-4173-a076-235b2fedb86b .axis .major.guide.line{stroke-dasharray:6,6;stroke:black}#chart-834e9589-dc51-4173-a076-235b2fedb86b .horizontal .axis.y .guide.line,#chart-834e9589-dc51-4173-a076-235b2fedb86b .horizontal .axis.y2 .guide.line,#chart-834e9589-dc51-4173-a076-235b2fedb86b .vertical .axis.x .guide.line{opacity:0}#chart-834e9589-dc51-4173-a076-235b2fedb86b .horizontal .axis.always_show .guide.line,#chart-834e9589-dc51-4173-a076-235b2fedb86b .vertical .axis.always_show .guide.line{opacity:1 !important}#chart-834e9589-dc51-4173-a076-235b2fedb86b .axis.y .guides:hover .guide.line,#chart-834e9589-dc51-4173-a076-235b2fedb86b .axis.y2 .guides:hover .guide.line,#chart-834e9589-dc51-4173-a076-235b2fedb86b .axis.x .guides:hover .guide.line{opacity:1}#chart-834e9589-dc51-4173-a076-235b2fedb86b .axis .guides:hover text{opacity:1}#chart-834e9589-dc51-4173-a076-235b2fedb86b .nofill{fill:none}#chart-834e9589-dc51-4173-a076-235b2fedb86b .subtle-fill{fill-opacity:.2}#chart-834e9589-dc51-4173-a076-235b2fedb86b .dot{stroke-width:1px;fill-opacity:1;stroke-opacity:1}#chart-834e9589-dc51-4173-a076-235b2fedb86b .dot.active{stroke-width:5px}#chart-834e9589-dc51-4173-a076-235b2fedb86b .dot.negative{fill:transparent}#chart-834e9589-dc51-4173-a076-235b2fedb86b text,#chart-834e9589-dc51-4173-a076-235b2fedb86b tspan{stroke:none !important}#chart-834e9589-dc51-4173-a076-235b2fedb86b .series text.active{opacity:1}#chart-834e9589-dc51-4173-a076-235b2fedb86b .tooltip rect{fill-opacity:.95;stroke-width:.5}#chart-834e9589-dc51-4173-a076-235b2fedb86b .tooltip text{fill-opacity:1}#chart-834e9589-dc51-4173-a076-235b2fedb86b .showable{visibility:hidden}#chart-834e9589-dc51-4173-a076-235b2fedb86b .showable.shown{visibility:visible}#chart-834e9589-dc51-4173-a076-235b2fedb86b .gauge-background{fill:rgba(229,229,229,1);stroke:none}#chart-834e9589-dc51-4173-a076-235b2fedb86b .bg-lines{stroke:rgba(249,249,249,1);stroke-width:2px}</style><script type="text/javascript">window.pygal = window.pygal || {};window.pygal.config = window.pygal.config || {};window.pygal.config['834e9589-dc51-4173-a076-235b2fedb86b'] = {"allow_interruptions": false, "box_mode": "extremes", "classes": ["pygal-chart", "pygal-sparkline"], "css": ["file://style.css", "file://graph.css"], "defs": [], "disable_xml_declaration": false, "dots_size": 2.5, "dynamic_print_values": false, "explicit_size": true, "fill": false, "force_uri_protocol": "https", "formatter": null, "half_pie": false, "height": 50, "include_x_axis": false, "inner_radius": 0, "interpolate": "cubic", "interpolation_parameters": {}, "interpolation_precision": 250, "inverse_y_axis": false, "js": [], "legend_at_bottom": false, "legend_at_bottom_columns": null, "legend_box_size": 12, "logarithmic": false, "margin": 10, "margin_bottom": null, "margin_left": null, "margin_right": null, "margin_top": null, "max_scale": 2, "min_scale": 1, "missing_value_fill_truncation": "x", "no_data_text": "", "no_prefix": false, "order_min": null, "pretty_print": false, "print_labels": false, "print_values": false, "print_values_position": "center", "print_zeroes": true, "range": null, "rounded_bars": null, "secondary_range": null, "show_dots": false, "show_legend": false, "show_minor_x_labels": true, "show_minor_y_labels": true, "show_only_major_dots": false, "show_x_guides": false, "show_x_labels": false, "show_y_guides": true, "show_y_labels": true, "spacing": 0, "stack_from_top": false, "strict": false, "stroke": true, "stroke_style": null, "style": {"background": "rgba(249, 249, 249, 1)", "ci_colors": [], "colors": ["#F44336", "#3F51B5", "#009688", "#FFC107", "#FF5722", "#9C27B0", "#03A9F4", "#8BC34A", "#FF9800", "#E91E63", "#2196F3", "#4CAF50", "#FFEB3B", "#673AB7", "#00BCD4", "#CDDC39", "#9E9E9E", "#607D8B"], "dot_opacity": "1", "font_family": "Consolas, \"Liberation Mono\", Menlo, Courier, monospace", "foreground": "rgba(0, 0, 0, .87)", "foreground_strong": "rgba(0, 0, 0, 1)", "foreground_subtle": "rgba(0, 0, 0, .54)", "guide_stroke_color": "black", "guide_stroke_dasharray": "4,4", "label_font_family": "Consolas, \"Liberation Mono\", Menlo, Courier, monospace", "label_font_size": 10, "legend_font_family": "Consolas, \"Liberation Mono\", Menlo, Courier, monospace", "legend_font_size": 14, "major_guide_stroke_color": "black", "major_guide_stroke_dasharray": "6,6", "major_label_font_family": "Consolas, \"Liberation Mono\", Menlo, Courier, monospace", "major_label_font_size": 10, "no_data_font_family": "Consolas, \"Liberation Mono\", Menlo, Courier, monospace", "no_data_font_size": 64, "opacity": ".7", "opacity_hover": ".8", "plot_background": "rgba(255, 255, 255, 1)", "stroke_opacity": ".8", "stroke_opacity_hover": ".9", "stroke_width": "1", "stroke_width_hover": "4", "title_font_family": "Consolas, \"Liberation Mono\", Menlo, Courier, monospace", "title_font_size": 16, "tooltip_font_family": "Consolas, \"Liberation Mono\", Menlo, Courier, monospace", "tooltip_font_size": 14, "transition": "150ms", "value_background": "rgba(229, 229, 229, 1)", "value_colors": [], "value_font_family": "Consolas, \"Liberation Mono\", Menlo, Courier, monospace", "value_font_size": 16, "value_label_font_family": "Consolas, \"Liberation Mono\", Menlo, Courier, monospace", "value_label_font_size": 10}, "title": null, "tooltip_border_radius": 0, "tooltip_fancy_mode": true, "truncate_label": null, "truncate_legend": null, "width": 200, "x_label_rotation": 0, "x_labels": ["2024/10", "2024/9", "2024/8", "2024/7", "2024/6", "2024/5"], "x_labels_major": null, "x_labels_major_count": null, "x_labels_major_every": null, "x_title": null, "xrange": null, "y_label_rotation": 0, "y_labels": null, "y_labels_major": null, "y_labels_major_count": null, "y_labels_major_every": null, "y_title": null, "zero": 0, "legends": [""]}</script></defs><title>Pygal</title><g class="graph line-graph vertical"><rect x="0" y="0" width="200" height="50" class="background" /><g transform="translate(20, 10)" class="plot"><rect x="0" y="0" width="170" height="30" class="background" /><g class="axis y always_show"><path d="M0.000000 30.000000 h170.000000" class="line" /><g class="guides"><path d="M0.000000 17.345375 h170.000000" class="guide line" /><text x="-5" y="20.84537504673566" class="">4</text><title>4</title></g><g class="guides"><path d="M0.000000 1.241773 h170.000000" class="guide line" /><text x="-5" y="4.741772544947306" class="">8</text><title>8</title></g></g><g class="series serie-0 color-0"><path d="M3.269231 29.423077 L3.400000 29.391332 3.530769 29.359585 3.661538 29.327835 3.792308 29.296080 3.923077 29.264319 4.053846 29.232550 4.184615 29.200772 4.315385 29.168982 4.446154 29.137180 4.576923 29.105363 4.707692 29.073530 4.838462 29.041680 4.969231 29.009811 5.100000 28.977921 5.230769 28.946009 5.361538 28.914073 5.492308 28.882111 5.623077 28.850123 5.753846 28.818106 5.884615 28.786058 6.015385 28.753979 6.146154 28.721867 6.276923 28.689719 6.407692 28.657535 6.538462 28.625313 6.669231 28.593051 6.800000 28.560748 6.930769 28.528401 7.061538 28.496010 7.192308 28.463573 7.323077 28.431089 7.453846 28.398555 7.584615 28.365970 7.715385 28.333333 7.846154 28.300641 7.976923 28.267894 8.107692 28.235090 8.238462 28.202227 8.369231 28.169303 8.500000 28.136317 8.630769 28.103268 8.761538 28.070154 8.892308 28.036973 9.023077 28.003723 9.153846 27.970403 9.284615 27.937012 9.415385 27.903548 9.546154 27.870009 9.676923 27.836393 9.807692 27.802700 9.938462 27.768927 10.069231 27.735073 10.200000 27.701137 10.330769 27.667116 10.461538 27.633009 10.592308 27.598815 10.723077 27.564531 10.853846 27.530157 10.984615 27.495691 11.115385 27.461131 11.246154 27.426476 11.376923 27.391723 11.507692 27.356872 11.638462 27.321921 11.769231 27.286868 11.900000 27.251711 12.030769 27.216450 12.161538 27.181082 12.292308 27.145606 12.423077 27.110020 12.553846 27.074323 12.684615 27.038513 12.815385 27.002588 12.946154 26.966548 13.076923 26.930390 13.207692 26.894112 13.338462 26.857713 13.469231 26.821193 13.600000 26.784548 13.730769 26.747777 13.861538 26.710879 13.992308 26.673852 14.123077 26.636695 14.253846 26.599406 14.384615 26.561984 14.515385 26.524426 14.646154 26.486731 14.776923 26.448898 14.907692 26.410926 15.038462 26.372811 15.169231 26.334554 15.300000 26.296151 15.430769 26.257603 15.561538 26.218906 15.692308 26.180060 15.823077 26.141063 15.953846 26.101913 16.084615 26.062609 16.215385 26.023150 16.346154 25.983532 16.476923 25.943756 16.607692 25.903819 16.738462 25.863720 16.869231 25.823457 17.000000 25.783029 17.130769 25.742433 17.261538 25.701669 17.392308 25.660735 17.523077 25.619629 17.653846 25.578350 17.784615 25.536896 17.915385 25.495266 18.046154 25.453457 18.176923 25.411468 18.307692 25.369299 18.438462 25.326946 18.569231 25.284409 18.700000 25.241686 18.830769 25.198775 18.961538 25.155675 19.092308 25.112384 19.223077 25.068900 19.353846 25.025223 19.484615 24.981350 19.615385 24.937280 19.746154 24.893011 19.876923 24.848541 20.007692 24.803870 20.138462 24.758995 20.269231 24.713915 20.400000 24.668628 20.530769 24.623133 20.661538 24.577428 20.792308 24.531512 20.923077 24.485382 21.053846 24.439037 21.184615 24.392477 21.315385 24.345698 21.446154 24.298700 21.576923 24.251481 21.707692 24.204040 21.838462 24.156374 21.969231 24.108482 22.100000 24.060363 22.230769 24.012015 22.361538 23.963436 22.492308 23.914625 22.623077 23.865580 22.753846 23.816300 22.884615 23.766783 23.015385 23.717027 23.146154 23.667031 23.276923 23.616794 23.407692 23.566313 23.538462 23.515587 23.669231 23.464615 23.800000 23.413395 23.930769 23.361925 24.061538 23.310204 24.192308 23.258230 24.323077 23.206001 24.453846 23.153516 24.584615 23.100774 24.715385 23.047773 24.846154 22.994510 24.976923 22.940986 25.107692 22.887197 25.238462 22.833143 25.369231 22.778821 25.500000 22.724231 25.630769 22.669370 25.761538 22.614238 25.892308 22.558832 26.023077 22.503151 26.153846 22.447193 26.284615 22.390957 26.415385 22.334440 26.546154 22.277643 26.676923 22.220562 26.807692 22.163197 26.938462 22.105545 27.069231 22.047606 27.200000 21.989377 27.330769 21.930857 27.461538 21.872045 27.592308 21.812938 27.723077 21.753535 27.853846 21.693835 27.984615 21.633836 28.115385 21.573537 28.246154 21.512935 28.376923 21.452030 28.507692 21.390819 28.638462 21.329301 28.769231 21.267475 28.900000 21.205339 29.030769 21.142891 29.161538 21.080130 29.292308 21.017053 29.423077 20.953661 29.553846 20.889950 29.684615 20.825920 29.815385 20.761568 29.946154 20.696893 30.076923 20.631895 30.207692 20.566570 30.338462 20.500917 30.469231 20.434935 30.600000 20.368623 30.730769 20.301978 30.861538 20.234999 30.992308 20.167685 31.123077 20.100033 31.253846 20.032043 31.384615 19.963712 31.515385 19.895040 31.646154 19.826024 31.776923 19.756662 31.907692 19.686955 32.038462 19.616898 32.169231 19.546492 32.300000 19.475735 32.430769 19.404624 32.561538 19.333159 32.692308 19.261338 32.823077 19.189159 32.953846 19.116620 33.084615 19.043720 33.215385 18.970458 33.346154 18.896832 33.476923 18.822839 33.607692 18.748480 33.738462 18.673751 33.869231 18.598652 34.000000 18.523181 34.130769 18.447336 34.261538 18.371116 34.392308 18.294519 34.523077 18.217543 34.653846 18.140187 34.784615 18.062450 34.915385 17.984329 35.046154 17.905824 35.176923 17.826932 35.307692 17.747652 35.438462 17.667982 35.569231 17.587921 35.700000 17.507467 35.830769 17.426619 35.961538 17.345375 36.092308 17.263735 36.223077 17.181703 36.353846 17.099287 36.484615 17.016492 36.615385 16.933326 36.746154 16.849793 36.876923 16.765902 37.007692 16.681658 37.138462 16.597068 37.269231 16.512137 37.400000 16.426874 37.530769 16.341283 37.661538 16.255371 37.792308 16.169145 37.923077 16.082611 38.053846 15.995776 38.184615 15.908645 38.315385 15.821226 38.446154 15.733525 38.576923 15.645547 38.707692 15.557300 38.838462 15.468791 38.969231 15.380024 39.100000 15.291007 39.230769 15.201747 39.361538 15.112249 39.492308 15.022520 39.623077 14.932566 39.753846 14.842394 39.884615 14.752010 40.015385 14.661421 40.146154 14.570633 40.276923 14.479652 40.407692 14.388485 40.538462 14.297138 40.669231 14.205618 40.800000 14.113931 40.930769 14.022084 41.061538 13.930082 41.192308 13.837932 41.323077 13.745641 41.453846 13.653215 41.584615 13.560661 41.715385 13.467984 41.846154 13.375192 41.976923 13.282290 42.107692 13.189286 42.238462 13.096185 42.369231 13.002994 42.500000 12.909719 42.630769 12.816366 42.761538 12.722943 42.892308 12.629456 43.023077 12.535910 43.153846 12.442313 43.284615 12.348670 43.415385 12.254989 43.546154 12.161275 43.676923 12.067535 43.807692 11.973775 43.938462 11.880003 44.069231 11.786223 44.200000 11.692443 44.330769 11.598669 44.461538 11.504907 44.592308 11.411164 44.723077 11.317446 44.853846 11.223760 44.984615 11.130112 45.115385 11.036508 45.246154 10.942955 45.376923 10.849460 45.507692 10.756027 45.638462 10.662665 45.769231 10.569380 45.900000 10.476177 46.030769 10.383064 46.161538 10.290046 46.292308 10.197130 46.423077 10.104323 46.553846 10.011630 46.684615 9.919059 46.815385 9.826615 46.946154 9.734306 47.076923 9.642137 47.207692 9.550115 47.338462 9.458246 47.469231 9.366537 47.600000 9.274995 47.730769 9.183624 47.861538 9.092433 47.992308 9.001427 48.123077 8.910612 48.253846 8.819996 48.384615 8.729585 48.515385 8.639384 48.646154 8.549401 48.776923 8.459641 48.907692 8.370112 49.038462 8.280819 49.169231 8.191769 49.300000 8.102969 49.430769 8.014424 49.561538 7.926142 49.692308 7.838128 49.823077 7.750389 49.953846 7.662932 50.084615 7.575762 50.215385 7.488887 50.346154 7.402312 50.476923 7.316045 50.607692 7.230091 50.738462 7.144456 50.869231 7.059148 51.000000 6.974173 51.130769 6.889537 51.261538 6.805246 51.392308 6.721307 51.523077 6.637726 51.653846 6.554510 51.784615 6.471666 51.915385 6.389198 52.046154 6.307115 52.176923 6.225422 52.307692 6.144125 52.438462 6.063232 52.569231 5.982748 52.700000 5.902680 52.830769 5.823035 52.961538 5.743818 53.092308 5.665037 53.223077 5.586697 53.353846 5.508805 53.484615 5.431367 53.615385 5.354390 53.746154 5.277881 53.876923 5.201845 54.007692 5.126289 54.138462 5.051219 54.269231 4.976642 54.400000 4.902564 54.530769 4.828992 54.661538 4.755932 54.792308 4.683391 54.923077 4.611374 55.053846 4.539889 55.184615 4.468941 55.315385 4.398537 55.446154 4.328684 55.576923 4.259387 55.707692 4.190654 55.838462 4.122491 55.969231 4.054903 56.100000 3.987898 56.230769 3.921482 56.361538 3.855662 56.492308 3.790443 56.623077 3.725832 56.753846 3.661835 56.884615 3.598460 57.015385 3.535712 57.146154 3.473597 57.276923 3.412123 57.407692 3.351295 57.538462 3.291120 57.669231 3.231605 57.800000 3.172755 57.930769 3.114578 58.061538 3.057079 58.192308 3.000265 58.323077 2.944142 58.453846 2.888718 58.584615 2.833997 58.715385 2.779987 58.846154 2.726694 58.976923 2.674125 59.107692 2.622285 59.238462 2.571181 59.369231 2.520821 59.500000 2.471209 59.630769 2.422352 59.761538 2.374258 59.892308 2.326932 60.023077 2.280380 60.153846 2.234609 60.284615 2.189626 60.415385 2.145437 60.546154 2.102048 60.676923 2.059466 60.807692 2.017697 60.938462 1.976747 61.069231 1.936623 61.200000 1.897332 61.330769 1.858879 61.461538 1.821272 61.592308 1.784516 61.723077 1.748618 61.853846 1.713584 61.984615 1.679421 62.115385 1.646135 62.246154 1.613732 62.376923 1.582220 62.507692 1.551604 62.638462 1.521891 62.769231 1.493087 62.900000 1.465198 63.030769 1.438232 63.161538 1.412194 63.292308 1.387090 63.423077 1.362928 63.553846 1.339714 63.684615 1.317453 63.815385 1.296153 63.946154 1.275820 64.076923 1.256460 64.207692 1.238080 64.338462 1.220686 64.469231 1.204284 64.600000 1.188881 64.730769 1.174483 64.861538 1.161097 64.992308 1.148729 65.123077 1.137386 65.253846 1.127073 65.384615 1.117798 65.515385 1.109566 65.646154 1.102385 65.776923 1.096260 65.907692 1.091198 66.038462 1.087205 66.169231 1.084288 66.300000 1.082453 66.430769 1.081707 66.561538 1.082055 66.692308 1.083505 66.823077 1.086063 66.953846 1.089735 67.084615 1.094527 67.215385 1.100447 67.346154 1.107500 67.476923 1.115692 67.607692 1.125031 67.738462 1.135522 67.869231 1.147173 68.000000 1.159988 68.130769 1.173976 68.261538 1.189142 68.392308 1.205492 68.523077 1.223034 68.653846 1.241773 68.784615 1.261713 68.915385 1.282846 69.046154 1.305163 69.176923 1.328654 69.307692 1.353308 69.438462 1.379116 69.569231 1.406066 69.700000 1.434150 69.830769 1.463356 69.961538 1.493675 70.092308 1.525097 70.223077 1.557612 70.353846 1.591208 70.484615 1.625877 70.615385 1.661609 70.746154 1.698392 70.876923 1.736217 71.007692 1.775074 71.138462 1.814953 71.269231 1.855843 71.400000 1.897735 71.530769 1.940618 71.661538 1.984483 71.792308 2.029318 71.923077 2.075115 72.053846 2.121862 72.184615 2.169550 72.315385 2.218169 72.446154 2.267708 72.576923 2.318158 72.707692 2.369508 72.838462 2.421748 72.969231 2.474868 73.100000 2.528858 73.230769 2.583707 73.361538 2.639407 73.492308 2.695946 73.623077 2.753314 73.753846 2.811502 73.884615 2.870499 74.015385 2.930295 74.146154 2.990880 74.276923 3.052244 74.407692 3.114377 74.538462 3.177268 74.669231 3.240908 74.800000 3.305286 74.930769 3.370392 75.061538 3.436217 75.192308 3.502749 75.323077 3.569980 75.453846 3.637898 75.584615 3.706493 75.715385 3.775757 75.846154 3.845678 75.976923 3.916246 76.107692 3.987451 76.238462 4.059283 76.369231 4.131732 76.500000 4.204789 76.630769 4.278441 76.761538 4.352681 76.892308 4.427497 77.023077 4.502879 77.153846 4.578817 77.284615 4.655302 77.415385 4.732322 77.546154 4.809869 77.676923 4.887931 77.807692 4.966499 77.938462 5.045562 78.069231 5.125111 78.200000 5.205134 78.330769 5.285624 78.461538 5.366568 78.592308 5.447957 78.723077 5.529781 78.853846 5.612029 78.984615 5.694693 79.115385 5.777760 79.246154 5.861222 79.376923 5.945068 79.507692 6.029288 79.638462 6.113873 79.769231 6.198811 79.900000 6.284092 80.030769 6.369708 80.161538 6.455647 80.292308 6.541899 80.423077 6.628454 80.553846 6.715303 80.684615 6.802435 80.815385 6.889839 80.946154 6.977507 81.076923 7.065427 81.207692 7.153589 81.338462 7.241984 81.469231 7.330601 81.600000 7.419431 81.730769 7.508462 81.861538 7.597686 81.992308 7.687091 82.123077 7.776668 82.253846 7.866407 82.384615 7.956297 82.515385 8.046329 82.646154 8.136491 82.776923 8.226775 82.907692 8.317170 83.038462 8.407665 83.169231 8.498252 83.300000 8.588919 83.430769 8.679657 83.561538 8.770455 83.692308 8.861303 83.823077 8.952191 83.953846 9.043110 84.084615 9.134048 84.215385 9.224996 84.346154 9.315944 84.476923 9.406882 84.607692 9.497799 84.738462 9.588685 84.869231 9.679531 85.000000 9.770325 85.130769 9.861059 85.261538 9.951721 85.392308 10.042302 85.523077 10.132792 85.653846 10.223180 85.784615 10.313457 85.915385 10.403612 86.046154 10.493635 86.176923 10.583516 86.307692 10.673245 86.438462 10.762812 86.569231 10.852206 86.700000 10.941418 86.830769 11.030438 86.961538 11.119254 87.092308 11.207858 87.223077 11.296239 87.353846 11.384387 87.484615 11.472292 87.615385 11.559944 87.746154 11.647332 87.876923 11.734446 88.007692 11.821277 88.138462 11.907814 88.269231 11.994048 88.400000 12.079967 88.530769 12.165562 88.661538 12.250823 88.792308 12.335740 88.923077 12.420302 89.053846 12.504499 89.184615 12.588322 89.315385 12.671760 89.446154 12.754803 89.576923 12.837441 89.707692 12.919664 89.838462 13.001462 89.969231 13.082824 90.100000 13.163740 90.230769 13.244201 90.361538 13.324196 90.492308 13.403715 90.623077 13.482749 90.753846 13.561286 90.884615 13.639316 91.015385 13.716831 91.146154 13.793819 91.276923 13.870270 91.407692 13.946174 91.538462 14.021522 91.669231 14.096303 91.800000 14.170507 91.930769 14.244123 92.061538 14.317142 92.192308 14.389554 92.323077 14.461348 92.453846 14.532514 92.584615 14.603043 92.715385 14.672924 92.846154 14.742146 92.976923 14.810701 93.107692 14.878577 93.238462 14.945765 93.369231 15.012254 93.500000 15.078035 93.630769 15.143097 93.761538 15.207430 93.892308 15.271024 94.023077 15.333869 94.153846 15.395954 94.284615 15.457271 94.415385 15.517808 94.546154 15.577555 94.676923 15.636502 94.807692 15.694640 94.938462 15.751958 95.069231 15.808446 95.200000 15.864093 95.330769 15.918891 95.461538 15.972828 95.592308 16.025894 95.723077 16.078080 95.853846 16.129374 95.984615 16.179768 96.115385 16.229251 96.246154 16.277813 96.376923 16.325444 96.507692 16.372133 96.638462 16.417871 96.769231 16.462647 96.900000 16.506451 97.030769 16.549274 97.161538 16.591105 97.292308 16.631933 97.423077 16.671749 97.553846 16.710543 97.684615 16.748305 97.815385 16.785024 97.946154 16.820690 98.076923 16.855294 98.207692 16.888824 98.338462 16.921272 98.469231 16.952626 98.600000 16.982878 98.730769 17.012015 98.861538 17.040030 98.992308 17.066910 99.123077 17.092647 99.253846 17.117230 99.384615 17.140649 99.515385 17.162894 99.646154 17.183955 99.776923 17.203821 99.907692 17.222483 100.038462 17.239930 100.169231 17.256153 100.300000 17.271141 100.430769 17.284883 100.561538 17.297371 100.692308 17.308594 100.823077 17.318541 100.953846 17.327203 101.084615 17.334569 101.215385 17.340630 101.346154 17.345375 101.476923 17.348797 101.607692 17.350903 101.738462 17.351702 101.869231 17.351202 102.000000 17.349414 102.130769 17.346347 102.261538 17.342010 102.392308 17.336413 102.523077 17.329564 102.653846 17.321473 102.784615 17.312150 102.915385 17.301604 103.046154 17.289843 103.176923 17.276879 103.307692 17.262719 103.438462 17.247373 103.569231 17.230850 103.700000 17.213161 103.830769 17.194313 103.961538 17.174317 104.092308 17.153182 104.223077 17.130917 104.353846 17.107532 104.484615 17.083035 104.615385 17.057436 104.746154 17.030745 104.876923 17.002971 105.007692 16.974123 105.138462 16.944210 105.269231 16.913243 105.400000 16.881229 105.530769 16.848179 105.661538 16.814101 105.792308 16.779006 105.923077 16.742902 106.053846 16.705800 106.184615 16.667707 106.315385 16.628634 106.446154 16.588589 106.576923 16.547583 106.707692 16.505624 106.838462 16.462723 106.969231 16.418887 107.100000 16.374127 107.230769 16.328452 107.361538 16.281870 107.492308 16.234393 107.623077 16.186028 107.753846 16.136785 107.884615 16.086674 108.015385 16.035704 108.146154 15.983884 108.276923 15.931224 108.407692 15.877732 108.538462 15.823418 108.669231 15.768293 108.800000 15.712364 108.930769 15.655641 109.061538 15.598133 109.192308 15.539851 109.323077 15.480803 109.453846 15.420998 109.584615 15.360446 109.715385 15.299156 109.846154 15.237138 109.976923 15.174401 110.107692 15.110954 110.238462 15.046807 110.369231 14.981968 110.500000 14.916448 110.630769 14.850255 110.761538 14.783399 110.892308 14.715889 111.023077 14.647735 111.153846 14.578946 111.284615 14.509531 111.415385 14.439499 111.546154 14.368861 111.676923 14.297624 111.807692 14.225799 111.938462 14.153395 112.069231 14.080422 112.200000 14.006888 112.330769 13.932802 112.461538 13.858176 112.592308 13.783016 112.723077 13.707334 112.853846 13.631137 112.984615 13.554437 113.115385 13.477241 113.246154 13.399560 113.376923 13.321402 113.507692 13.242777 113.638462 13.163694 113.769231 13.084163 113.900000 13.004192 114.030769 12.923793 114.161538 12.842972 114.292308 12.761741 114.423077 12.680107 114.553846 12.598082 114.684615 12.515673 114.815385 12.432891 114.946154 12.349744 115.076923 12.266242 115.207692 12.182395 115.338462 12.098211 115.469231 12.013699 115.600000 11.928871 115.730769 11.843734 115.861538 11.758297 115.992308 11.672571 116.123077 11.586565 116.253846 11.500288 116.384615 11.413749 116.515385 11.326957 116.646154 11.239923 116.776923 11.152654 116.907692 11.065162 117.038462 10.977454 117.169231 10.889541 117.300000 10.801431 117.430769 10.713134 117.561538 10.624660 117.692308 10.536017 117.823077 10.447215 117.953846 10.358263 118.084615 10.269171 118.215385 10.179948 118.346154 10.090604 118.476923 10.001147 118.607692 9.911587 118.738462 9.821933 118.869231 9.732195 119.000000 9.642382 119.130769 9.552503 119.261538 9.462568 119.392308 9.372586 119.523077 9.282566 119.653846 9.192518 119.784615 9.102451 119.915385 9.012374 120.046154 8.922297 120.176923 8.832228 120.307692 8.742178 120.438462 8.652156 120.569231 8.562171 120.700000 8.472232 120.830769 8.382349 120.961538 8.292531 121.092308 8.202787 121.223077 8.113127 121.353846 8.023559 121.484615 7.934095 121.615385 7.844741 121.746154 7.755509 121.876923 7.666408 122.007692 7.577445 122.138462 7.488632 122.269231 7.399978 122.400000 7.311490 122.530769 7.223180 122.661538 7.135057 122.792308 7.047129 122.923077 6.959406 123.053846 6.871897 123.184615 6.784612 123.315385 6.697560 123.446154 6.610751 123.576923 6.524193 123.707692 6.437896 123.838462 6.351870 123.969231 6.266123 124.100000 6.180665 124.230769 6.095506 124.361538 6.010655 124.492308 5.926120 124.623077 5.841912 124.753846 5.758040 124.884615 5.674512 125.015385 5.591339 125.146154 5.508530 125.276923 5.426094 125.407692 5.344040 125.538462 5.262378 125.669231 5.181117 125.800000 5.100266 125.930769 5.019835 126.061538 4.939833 126.192308 4.860270 126.323077 4.781154 126.453846 4.702495 126.584615 4.624303 126.715385 4.546586 126.846154 4.469355 126.976923 4.392618 127.107692 4.316384 127.238462 4.240664 127.369231 4.165466 127.500000 4.090800 127.630769 4.016675 127.761538 3.943101 127.892308 3.870086 128.023077 3.797640 128.153846 3.725773 128.284615 3.654493 128.415385 3.583811 128.546154 3.513735 128.676923 3.444274 128.807692 3.375439 128.938462 3.307238 129.069231 3.239681 129.200000 3.172777 129.330769 3.106536 129.461538 3.040966 129.592308 2.976078 129.723077 2.911879 129.853846 2.848381 129.984615 2.785592 130.115385 2.723521 130.246154 2.662178 130.376923 2.601572 130.507692 2.541712 130.638462 2.482609 130.769231 2.424270 130.900000 2.366706 131.030769 2.309926 131.161538 2.253938 131.292308 2.198754 131.423077 2.144381 131.553846 2.090829 131.684615 2.038107 131.815385 1.986226 131.946154 1.935193 132.076923 1.885019 132.207692 1.835713 132.338462 1.787284 132.469231 1.739741 132.600000 1.693094 132.730769 1.647353 132.861538 1.602526 132.992308 1.558622 133.123077 1.515652 133.253846 1.473624 133.384615 1.432548 133.515385 1.392434 133.646154 1.353289 133.776923 1.315125 133.907692 1.277949 134.038462 1.241773 134.169231 1.206601 134.300000 1.172434 134.430769 1.139266 134.561538 1.107094 134.692308 1.075914 134.823077 1.045721 134.953846 1.016512 135.084615 0.988283 135.215385 0.961029 135.346154 0.934747 135.476923 0.909432 135.607692 0.885081 135.738462 0.861689 135.869231 0.839253 136.000000 0.817768 136.130769 0.797230 136.261538 0.777636 136.392308 0.758981 136.523077 0.741261 136.653846 0.724472 136.784615 0.708611 136.915385 0.693673 137.046154 0.679654 137.176923 0.666550 137.307692 0.654357 137.438462 0.643071 137.569231 0.632688 137.700000 0.623205 137.830769 0.614616 137.961538 0.606918 138.092308 0.600107 138.223077 0.594178 138.353846 0.589129 138.484615 0.584954 138.615385 0.581650 138.746154 0.579213 138.876923 0.577639 139.007692 0.576923 139.138462 0.577062 139.269231 0.578051 139.400000 0.579887 139.530769 0.582566 139.661538 0.586083 139.792308 0.590435 139.923077 0.595617 140.053846 0.601625 140.184615 0.608456 140.315385 0.616105 140.446154 0.624569 140.576923 0.633842 140.707692 0.643922 140.838462 0.654805 140.969231 0.666485 141.100000 0.678960 141.230769 0.692224 141.361538 0.706275 141.492308 0.721108 141.623077 0.736719 141.753846 0.753104 141.884615 0.770259 142.015385 0.788180 142.146154 0.806863 142.276923 0.826303 142.407692 0.846498 142.538462 0.867442 142.669231 0.889133 142.800000 0.911564 142.930769 0.934734 143.061538 0.958637 143.192308 0.983270 143.323077 1.008629 143.453846 1.034709 143.584615 1.061507 143.715385 1.089018 143.846154 1.117239 143.976923 1.146166 144.107692 1.175793 144.238462 1.206119 144.369231 1.237137 144.500000 1.268845 144.630769 1.301238 144.761538 1.334313 144.892308 1.368065 145.023077 1.402490 145.153846 1.437584 145.284615 1.473343 145.415385 1.509764 145.546154 1.546841 145.676923 1.584572 145.807692 1.622952 145.938462 1.661976 146.069231 1.701642 146.200000 1.741945 146.330769 1.782880 146.461538 1.824445 146.592308 1.866634 146.723077 1.909444 146.853846 1.952871 146.984615 1.996911 147.115385 2.041559 147.246154 2.086812 147.376923 2.132666 147.507692 2.179116 147.638462 2.226159 147.769231 2.273791 147.900000 2.322007 148.030769 2.370803 148.161538 2.420176 148.292308 2.470122 148.423077 2.520636 148.553846 2.571714 148.684615 2.623353 148.815385 2.675548 148.946154 2.728295 149.076923 2.781591 149.207692 2.835430 149.338462 2.889810 149.469231 2.944726 149.600000 3.000174 149.730769 3.056151 149.861538 3.112651 149.992308 3.169672 150.123077 3.227208 150.253846 3.285256 150.384615 3.343813 150.515385 3.402873 150.646154 3.462433 150.776923 3.522489 150.907692 3.583037 151.038462 3.644073 151.169231 3.705592 151.300000 3.767591 151.430769 3.830066 151.561538 3.893012 151.692308 3.956426 151.823077 4.020304 151.953846 4.084641 152.084615 4.149434 152.215385 4.214678 152.346154 4.280370 152.476923 4.346505 152.607692 4.413080 152.738462 4.480090 152.869231 4.547531 153.000000 4.615399 153.130769 4.683691 153.261538 4.752403 153.392308 4.821529 153.523077 4.891067 153.653846 4.961011 153.784615 5.031359 153.915385 5.102106 154.046154 5.173248 154.176923 5.244781 154.307692 5.316701 154.438462 5.389004 154.569231 5.461686 154.700000 5.534743 154.830769 5.608171 154.961538 5.681966 155.092308 5.756123 155.223077 5.830639 155.353846 5.905510 155.484615 5.980732 155.615385 6.056300 155.746154 6.132212 155.876923 6.208461 156.007692 6.285046 156.138462 6.361960 156.269231 6.439202 156.400000 6.516766 156.530769 6.594648 156.661538 6.672845 156.792308 6.751352 156.923077 6.830166 157.053846 6.909282 157.184615 6.988696 157.315385 7.068404 157.446154 7.148403 157.576923 7.228688 157.707692 7.309255 157.838462 7.390101 157.969231 7.471220 158.100000 7.552610 158.230769 7.634266 158.361538 7.716183 158.492308 7.798359 158.623077 7.880789 158.753846 7.963468 158.884615 8.046394 159.015385 8.129561 159.146154 8.212966 159.276923 8.296605 159.407692 8.380474 159.538462 8.464569 159.669231 8.548885 159.800000 8.633419 159.930769 8.718167 160.061538 8.803124 160.192308 8.888287 160.323077 8.973651 160.453846 9.059213 160.584615 9.144969 160.715385 9.230914 160.846154 9.317044 160.976923 9.403356 161.107692 9.489845 161.238462 9.576508 161.369231 9.663340 161.500000 9.750337 161.630769 9.837495 161.761538 9.924811 161.892308 10.012279 162.023077 10.099897 162.153846 10.187660 162.284615 10.275565 162.415385 10.363606 162.546154 10.451780 162.676923 10.540083 162.807692 10.628512 162.938462 10.717061 163.069231 10.805727 163.200000 10.894506 163.330769 10.983394 163.461538 11.072386 163.592308 11.161480 163.723077 11.250670 163.853846 11.339953 163.984615 11.429324 164.115385 11.518780 164.246154 11.608317 164.376923 11.697931 164.507692 11.787617 164.638462 11.877371 164.769231 11.967190 164.900000 12.057070 165.030769 12.147006 165.161538 12.236994 165.292308 12.327031 165.423077 12.417112 165.553846 12.507233 165.684615 12.597391 165.815385 12.687581 165.946154 12.777799 166.076923 12.868041 166.207692 12.958304 166.338462 13.048582 166.469231 13.138873 166.600000 13.229172 166.730769 13.319474" class="line reactive nofill" /></g></g><g class="titles" /><g transform="translate(20, 10)" class="plot overlay"><g class="series serie-0 color-0" /></g><g transform="translate(20, 10)" class="plot text-overlay"><g class="series serie-0 color-0" /></g><g transform="translate(20, 10)" class="plot tooltip-overlay"><g transform="translate(0 0)" style="opacity: 0" class="tooltip"><rect rx="0" ry="0" width="0" height="0" class="tooltip-box" /><g class="text" /></g></g></g></svg>