<?xml version='1.0' encoding='utf-8'?>
<svg xmlns="http://www.w3.org/2000/svg" id="chart-ac8ac743-21c6-4307-ab77-e50f44b7b70e" class="pygal-chart pygal-sparkline" viewBox="0 0 200 50" width="200" height="50"><!--Generated with pygal 3.0.5 (etree) ©Kozea 2012-2016 on 2024-09-08--><!--http://pygal.org--><!--http://github.com/Kozea/pygal--><defs><style type="text/css">#chart-ac8ac743-21c6-4307-ab77-e50f44b7b70e{-webkit-user-select:none;-webkit-font-smoothing:antialiased;font-family:Consolas,"Liberation Mono",Menlo,Courier,monospace}#chart-ac8ac743-21c6-4307-ab77-e50f44b7b70e .title{font-family:Consolas,"Liberation Mono",Menlo,Courier,monospace;font-size:16px}#chart-ac8ac743-21c6-4307-ab77-e50f44b7b70e .legends .legend text{font-family:Consolas,"Liberation Mono",Menlo,Courier,monospace;font-size:14px}#chart-ac8ac743-21c6-4307-ab77-e50f44b7b70e .axis text{font-family:Consolas,"Liberation Mono",Menlo,Courier,monospace;font-size:10px}#chart-ac8ac743-21c6-4307-ab77-e50f44b7b70e .axis text.major{font-family:Consolas,"Liberation Mono",Menlo,Courier,monospace;font-size:10px}#chart-ac8ac743-21c6-4307-ab77-e50f44b7b70e .text-overlay text.value{font-family:Consolas,"Liberation Mono",Menlo,Courier,monospace;font-size:16px}#chart-ac8ac743-21c6-4307-ab77-e50f44b7b70e .text-overlay text.label{font-family:Consolas,"Liberation Mono",Menlo,Courier,monospace;font-size:10px}#chart-ac8ac743-21c6-4307-ab77-e50f44b7b70e .tooltip{font-family:Consolas,"Liberation Mono",Menlo,Courier,monospace;font-size:14px}#chart-ac8ac743-21c6-4307-ab77-e50f44b7b70e text.no_data{font-family:Consolas,"Liberation Mono",Menlo,Courier,monospace;font-size:64px}
#chart-ac8ac743-21c6-4307-ab77-e50f44b7b70e{background-color:rgba(249,249,249,1)}#chart-ac8ac743-21c6-4307-ab77-e50f44b7b70e path,#chart-ac8ac743-21c6-4307-ab77-e50f44b7b70e line,#chart-ac8ac743-21c6-4307-ab77-e50f44b7b70e rect,#chart-ac8ac743-21c6-4307-ab77-e50f44b7b70e circle{-webkit-transition:150ms;-moz-transition:150ms;transition:150ms}#chart-ac8ac743-21c6-4307-ab77-e50f44b7b70e .graph &gt; .background{fill:rgba(249,249,249,1)}#chart-ac8ac743-21c6-4307-ab77-e50f44b7b70e .plot &gt; .background{fill:rgba(255,255,255,1)}#chart-ac8ac743-21c6-4307-ab77-e50f44b7b70e .graph{fill:rgba(0,0,0,.87)}#chart-ac8ac743-21c6-4307-ab77-e50f44b7b70e text.no_data{fill:rgba(0,0,0,1)}#chart-ac8ac743-21c6-4307-ab77-e50f44b7b70e .title{fill:rgba(0,0,0,1)}#chart-ac8ac743-21c6-4307-ab77-e50f44b7b70e .legends .legend text{fill:rgba(0,0,0,.87)}#chart-ac8ac743-21c6-4307-ab77-e50f44b7b70e .legends .legend:hover text{fill:rgba(0,0,0,1)}#chart-ac8ac743-21c6-4307-ab77-e50f44b7b70e .axis .line{stroke:rgba(0,0,0,1)}#chart-ac8ac743-21c6-4307-ab77-e50f44b7b70e .axis .guide.line{stroke:rgba(0,0,0,.54)}#chart-ac8ac743-21c6-4307-ab77-e50f44b7b70e .axis .major.line{stroke:rgba(0,0,0,.87)}#chart-ac8ac743-21c6-4307-ab77-e50f44b7b70e .axis text.major{fill:rgba(0,0,0,1)}#chart-ac8ac743-21c6-4307-ab77-e50f44b7b70e .axis.y .guides:hover .guide.line,#chart-ac8ac743-21c6-4307-ab77-e50f44b7b70e .line-graph .axis.x .guides:hover .guide.line,#chart-ac8ac743-21c6-4307-ab77-e50f44b7b70e .stackedline-graph .axis.x .guides:hover .guide.line,#chart-ac8ac743-21c6-4307-ab77-e50f44b7b70e .xy-graph .axis.x .guides:hover .guide.line{stroke:rgba(0,0,0,1)}#chart-ac8ac743-21c6-4307-ab77-e50f44b7b70e .axis .guides:hover text{fill:rgba(0,0,0,1)}#chart-ac8ac743-21c6-4307-ab77-e50f44b7b70e .reactive{fill-opacity:.7;stroke-opacity:.8;stroke-width:1}#chart-ac8ac743-21c6-4307-ab77-e50f44b7b70e .ci{stroke:rgba(0,0,0,.87)}#chart-ac8ac743-21c6-4307-ab77-e50f44b7b70e .reactive.active,#chart-ac8ac743-21c6-4307-ab77-e50f44b7b70e .active .reactive{fill-opacity:.8;stroke-opacity:.9;stroke-width:4}#chart-ac8ac743-21c6-4307-ab77-e50f44b7b70e .ci .reactive.active{stroke-width:1.5}#chart-ac8ac743-21c6-4307-ab77-e50f44b7b70e .series text{fill:rgba(0,0,0,1)}#chart-ac8ac743-21c6-4307-ab77-e50f44b7b70e .tooltip rect{fill:rgba(255,255,255,1);stroke:rgba(0,0,0,1);-webkit-transition:opacity 150ms;-moz-transition:opacity 150ms;transition:opacity 150ms}#chart-ac8ac743-21c6-4307-ab77-e50f44b7b70e .tooltip .label{fill:rgba(0,0,0,.87)}#chart-ac8ac743-21c6-4307-ab77-e50f44b7b70e .tooltip .label{fill:rgba(0,0,0,.87)}#chart-ac8ac743-21c6-4307-ab77-e50f44b7b70e .tooltip .legend{font-size:.8em;fill:rgba(0,0,0,.54)}#chart-ac8ac743-21c6-4307-ab77-e50f44b7b70e .tooltip .x_label{font-size:.6em;fill:rgba(0,0,0,1)}#chart-ac8ac743-21c6-4307-ab77-e50f44b7b70e .tooltip .xlink{font-size:.5em;text-decoration:underline}#chart-ac8ac743-21c6-4307-ab77-e50f44b7b70e .tooltip .value{font-size:1.5em}#chart-ac8ac743-21c6-4307-ab77-e50f44b7b70e .bound{font-size:.5em}#chart-ac8ac743-21c6-4307-ab77-e50f44b7b70e .max-value{font-size:.75em;fill:rgba(0,0,0,.54)}#chart-ac8ac743-21c6-4307-ab77-e50f44b7b70e .map-element{fill:rgba(255,255,255,1);stroke:rgba(0,0,0,.54) !important}#chart-ac8ac743-21c6-4307-ab77-e50f44b7b70e .map-element .reactive{fill-opacity:inherit;stroke-opacity:inherit}#chart-ac8ac743-21c6-4307-ab77-e50f44b7b70e .color-0,#chart-ac8ac743-21c6-4307-ab77-e50f44b7b70e .color-0 a:visited{stroke:#F44336;fill:#F44336}#chart-ac8ac743-21c6-4307-ab77-e50f44b7b70e .text-overlay .color-0 text{fill:black}
#chart-ac8ac743-21c6-4307-ab77-e50f44b7b70e text.no_data{text-anchor:middle}#chart-ac8ac743-21c6-4307-ab77-e50f44b7b70e .guide.line{fill:none}#chart-ac8ac743-21c6-4307-ab77-e50f44b7b70e .centered{text-anchor:middle}#chart-ac8ac743-21c6-4307-ab77-e50f44b7b70e .title{text-anchor:middle}#chart-ac8ac743-21c6-4307-ab77-e50f44b7b70e .legends .legend text{fill-opacity:1}#chart-ac8ac743-21c6-4307-ab77-e50f44b7b70e .axis.x text{text-anchor:middle}#chart-ac8ac743-21c6-4307-ab77-e50f44b7b70e .axis.x:not(.web) text[transform]{text-anchor:start}#chart-ac8ac743-21c6-4307-ab77-e50f44b7b70e .axis.x:not(.web) text[transform].backwards{text-anchor:end}#chart-ac8ac743-21c6-4307-ab77-e50f44b7b70e .axis.y text{text-anchor:end}#chart-ac8ac743-21c6-4307-ab77-e50f44b7b70e .axis.y text[transform].backwards{text-anchor:start}#chart-ac8ac743-21c6-4307-ab77-e50f44b7b70e .axis.y2 text{text-anchor:start}#chart-ac8ac743-21c6-4307-ab77-e50f44b7b70e .axis.y2 text[transform].backwards{text-anchor:end}#chart-ac8ac743-21c6-4307-ab77-e50f44b7b70e .axis .guide.line{stroke-dasharray:4,4;stroke:black}#chart-ac8ac743-21c6-4307-ab77-e50f44b7b70e .axis .major.guide.line{stroke-dasharray:6,6;stroke:black}#chart-ac8ac743-21c6-4307-ab77-e50f44b7b70e .horizontal .axis.y .guide.line,#chart-ac8ac743-21c6-4307-ab77-e50f44b7b70e .horizontal .axis.y2 .guide.line,#chart-ac8ac743-21c6-4307-ab77-e50f44b7b70e .vertical .axis.x .guide.line{opacity:0}#chart-ac8ac743-21c6-4307-ab77-e50f44b7b70e .horizontal .axis.always_show .guide.line,#chart-ac8ac743-21c6-4307-ab77-e50f44b7b70e .vertical .axis.always_show .guide.line{opacity:1 !important}#chart-ac8ac743-21c6-4307-ab77-e50f44b7b70e .axis.y .guides:hover .guide.line,#chart-ac8ac743-21c6-4307-ab77-e50f44b7b70e .axis.y2 .guides:hover .guide.line,#chart-ac8ac743-21c6-4307-ab77-e50f44b7b70e .axis.x .guides:hover .guide.line{opacity:1}#chart-ac8ac743-21c6-4307-ab77-e50f44b7b70e .axis .guides:hover text{opacity:1}#chart-ac8ac743-21c6-4307-ab77-e50f44b7b70e .nofill{fill:none}#chart-ac8ac743-21c6-4307-ab77-e50f44b7b70e .subtle-fill{fill-opacity:.2}#chart-ac8ac743-21c6-4307-ab77-e50f44b7b70e .dot{stroke-width:1px;fill-opacity:1;stroke-opacity:1}#chart-ac8ac743-21c6-4307-ab77-e50f44b7b70e .dot.active{stroke-width:5px}#chart-ac8ac743-21c6-4307-ab77-e50f44b7b70e .dot.negative{fill:transparent}#chart-ac8ac743-21c6-4307-ab77-e50f44b7b70e text,#chart-ac8ac743-21c6-4307-ab77-e50f44b7b70e tspan{stroke:none !important}#chart-ac8ac743-21c6-4307-ab77-e50f44b7b70e .series text.active{opacity:1}#chart-ac8ac743-21c6-4307-ab77-e50f44b7b70e .tooltip rect{fill-opacity:.95;stroke-width:.5}#chart-ac8ac743-21c6-4307-ab77-e50f44b7b70e .tooltip text{fill-opacity:1}#chart-ac8ac743-21c6-4307-ab77-e50f44b7b70e .showable{visibility:hidden}#chart-ac8ac743-21c6-4307-ab77-e50f44b7b70e .showable.shown{visibility:visible}#chart-ac8ac743-21c6-4307-ab77-e50f44b7b70e .gauge-background{fill:rgba(229,229,229,1);stroke:none}#chart-ac8ac743-21c6-4307-ab77-e50f44b7b70e .bg-lines{stroke:rgba(249,249,249,1);stroke-width:2px}</style><script type="text/javascript">window.pygal = window.pygal || {};window.pygal.config = window.pygal.config || {};window.pygal.config['ac8ac743-21c6-4307-ab77-e50f44b7b70e'] = {"allow_interruptions": false, "box_mode": "extremes", "classes": ["pygal-chart", "pygal-sparkline"], "css": ["file://style.css", "file://graph.css"], "defs": [], "disable_xml_declaration": false, "dots_size": 2.5, "dynamic_print_values": false, "explicit_size": true, "fill": false, "force_uri_protocol": "https", "formatter": null, "half_pie": false, "height": 50, "include_x_axis": false, "inner_radius": 0, "interpolate": "cubic", "interpolation_parameters": {}, "interpolation_precision": 250, "inverse_y_axis": false, "js": [], "legend_at_bottom": false, "legend_at_bottom_columns": null, "legend_box_size": 12, "logarithmic": false, "margin": 10, "margin_bottom": null, "margin_left": null, "margin_right": null, "margin_top": null, "max_scale": 2, "min_scale": 1, "missing_value_fill_truncation": "x", "no_data_text": "", "no_prefix": false, "order_min": null, "pretty_print": false, "print_labels": false, "print_values": false, "print_values_position": "center", "print_zeroes": true, "range": null, "rounded_bars": null, "secondary_range": null, "show_dots": false, "show_legend": false, "show_minor_x_labels": true, "show_minor_y_labels": true, "show_only_major_dots": false, "show_x_guides": false, "show_x_labels": false, "show_y_guides": true, "show_y_labels": true, "spacing": 0, "stack_from_top": false, "strict": false, "stroke": true, "stroke_style": null, "style": {"background": "rgba(249, 249, 249, 1)", "ci_colors": [], "colors": ["#F44336", "#3F51B5", "#009688", "#FFC107", "#FF5722", "#9C27B0", "#03A9F4", "#8BC34A", "#FF9800", "#E91E63", "#2196F3", "#4CAF50", "#FFEB3B", "#673AB7", "#00BCD4", "#CDDC39", "#9E9E9E", "#607D8B"], "dot_opacity": "1", "font_family": "Consolas, \"Liberation Mono\", Menlo, Courier, monospace", "foreground": "rgba(0, 0, 0, .87)", "foreground_strong": "rgba(0, 0, 0, 1)", "foreground_subtle": "rgba(0, 0, 0, .54)", "guide_stroke_color": "black", "guide_stroke_dasharray": "4,4", "label_font_family": "Consolas, \"Liberation Mono\", Menlo, Courier, monospace", "label_font_size": 10, "legend_font_family": "Consolas, \"Liberation Mono\", Menlo, Courier, monospace", "legend_font_size": 14, "major_guide_stroke_color": "black", "major_guide_stroke_dasharray": "6,6", "major_label_font_family": "Consolas, \"Liberation Mono\", Menlo, Courier, monospace", "major_label_font_size": 10, "no_data_font_family": "Consolas, \"Liberation Mono\", Menlo, Courier, monospace", "no_data_font_size": 64, "opacity": ".7", "opacity_hover": ".8", "plot_background": "rgba(255, 255, 255, 1)", "stroke_opacity": ".8", "stroke_opacity_hover": ".9", "stroke_width": "1", "stroke_width_hover": "4", "title_font_family": "Consolas, \"Liberation Mono\", Menlo, Courier, monospace", "title_font_size": 16, "tooltip_font_family": "Consolas, \"Liberation Mono\", Menlo, Courier, monospace", "tooltip_font_size": 14, "transition": "150ms", "value_background": "rgba(229, 229, 229, 1)", "value_colors": [], "value_font_family": "Consolas, \"Liberation Mono\", Menlo, Courier, monospace", "value_font_size": 16, "value_label_font_family": "Consolas, \"Liberation Mono\", Menlo, Courier, monospace", "value_label_font_size": 10}, "title": null, "tooltip_border_radius": 0, "tooltip_fancy_mode": true, "truncate_label": null, "truncate_legend": null, "width": 200, "x_label_rotation": 0, "x_labels": ["2024/8", "2024/7", "2024/6", "2024/5", "2024/3", "2024/1", "2023/12"], "x_labels_major": null, "x_labels_major_count": null, "x_labels_major_every": null, "x_title": null, "xrange": null, "y_label_rotation": 0, "y_labels": null, "y_labels_major": null, "y_labels_major_count": null, "y_labels_major_every": null, "y_title": null, "zero": 0, "legends": [""]}</script></defs><title>Pygal</title><g class="graph line-graph vertical"><rect x="0" y="0" width="200" height="50" class="background" /><g transform="translate(82, 10)" class="plot"><rect x="0" y="0" width="108.0" height="30" class="background" /><g class="axis y always_show"><path d="M0.000000 30.000000 h108.000000" class="line" /><g class="guides"><path d="M0.000000 29.423077 h108.000000" class="guide line" /><text x="-5" y="32.92307692307692" class="">0.9629388406</text><title>0.9629388406</title></g><g class="guides"><path d="M0.000000 0.576923 h108.000000" class="guide line" /><text x="-5" y="4.076923076923077" class="">7.268277894</text><title>7.268277894</title></g></g><g class="series serie-0 color-0"><path d="M2.076923 1.804262 L2.146154 1.923278 2.215385 2.042290 2.284615 2.161293 2.353846 2.280283 2.423077 2.399256 2.492308 2.518206 2.561538 2.637131 2.630769 2.756024 2.700000 2.874882 2.769231 2.993700 2.838462 3.112475 2.907692 3.231201 2.976923 3.349875 3.046154 3.468491 3.115385 3.587045 3.184615 3.705534 3.253846 3.823952 3.323077 3.942296 3.392308 4.060560 3.461538 4.178741 3.530769 4.296833 3.600000 4.414834 3.669231 4.532737 3.738462 4.650540 3.807692 4.768237 3.876923 4.885824 3.946154 5.003296 4.015385 5.120650 4.084615 5.237881 4.153846 5.354984 4.223077 5.471955 4.292308 5.588789 4.361538 5.705483 4.430769 5.822032 4.500000 5.938432 4.569231 6.054677 4.638462 6.170764 4.707692 6.286688 4.776923 6.402445 4.846154 6.518031 4.915385 6.633440 4.984615 6.748670 5.053846 6.863714 5.123077 6.978569 5.192308 7.093231 5.261538 7.207695 5.330769 7.321957 5.400000 7.436011 5.469231 7.549855 5.538462 7.663483 5.607692 7.776891 5.676923 7.890075 5.746154 8.003030 5.815385 8.115752 5.884615 8.228237 5.953846 8.340479 6.023077 8.452476 6.092308 8.564221 6.161538 8.675712 6.230769 8.786942 6.300000 8.897909 6.369231 9.008608 6.438462 9.119034 6.507692 9.229183 6.576923 9.339050 6.646154 9.448631 6.715385 9.557923 6.784615 9.666919 6.853846 9.775616 6.923077 9.884010 6.992308 9.992096 7.061538 10.099869 7.130769 10.207326 7.200000 10.314462 7.269231 10.421272 7.338462 10.527752 7.407692 10.633899 7.476923 10.739706 7.546154 10.845170 7.615385 10.950287 7.684615 11.055052 7.753846 11.159460 7.823077 11.263508 7.892308 11.367191 7.961538 11.470504 8.030769 11.573444 8.100000 11.676005 8.169231 11.778183 8.238462 11.879975 8.307692 11.981375 8.376923 12.082379 8.446154 12.182983 8.515385 12.283182 8.584615 12.382972 8.653846 12.482348 8.723077 12.581307 8.792308 12.679843 8.861538 12.777953 8.930769 12.875632 9.000000 12.972875 9.069231 13.069678 9.138462 13.166037 9.207692 13.261948 9.276923 13.357405 9.346154 13.452405 9.415385 13.546943 9.484615 13.641015 9.553846 13.734616 9.623077 13.827742 9.692308 13.920389 9.761538 14.012551 9.830769 14.104226 9.900000 14.195408 9.969231 14.286093 10.038462 14.376276 10.107692 14.465954 10.176923 14.555121 10.246154 14.643773 10.315385 14.731907 10.384615 14.819517 10.453846 14.906600 10.523077 14.993150 10.592308 15.079163 10.661538 15.164636 10.730769 15.249563 10.800000 15.333940 10.869231 15.417763 10.938462 15.501027 11.007692 15.583728 11.076923 15.665862 11.146154 15.747424 11.215385 15.828410 11.284615 15.908815 11.353846 15.988636 11.423077 16.067866 11.492308 16.146503 11.561538 16.224542 11.630769 16.301978 11.700000 16.378807 11.769231 16.455025 11.838462 16.530627 11.907692 16.605609 11.976923 16.679966 12.046154 16.753694 12.115385 16.826788 12.184615 16.899245 12.253846 16.971060 12.323077 17.042228 12.392308 17.112745 12.461538 17.182607 12.530769 17.251809 12.600000 17.320346 12.669231 17.388215 12.738462 17.455412 12.807692 17.521930 12.876923 17.587767 12.946154 17.652918 13.015385 17.717378 13.084615 17.781143 13.153846 17.844209 13.223077 17.906571 13.292308 17.968225 13.361538 18.029166 13.430769 18.089390 13.500000 18.148893 13.569231 18.207670 13.638462 18.265717 13.707692 18.323029 13.776923 18.379603 13.846154 18.435433 13.915385 18.490515 13.984615 18.544845 14.053846 18.598419 14.123077 18.651231 14.192308 18.703278 14.261538 18.754556 14.330769 18.805059 14.400000 18.854784 14.469231 18.903726 14.538462 18.951880 14.607692 18.999243 14.676923 19.045809 14.746154 19.091575 14.815385 19.136536 14.884615 19.180688 14.953846 19.224025 15.023077 19.266545 15.092308 19.308242 15.161538 19.349113 15.230769 19.389152 15.300000 19.428355 15.369231 19.466718 15.438462 19.504236 15.507692 19.540906 15.576923 19.576722 15.646154 19.611680 15.715385 19.645777 15.784615 19.679007 15.853846 19.711365 15.923077 19.742849 15.992308 19.773453 16.061538 19.803172 16.130769 19.832004 16.200000 19.859942 16.269231 19.886983 16.338462 19.913122 16.407692 19.938355 16.476923 19.962678 16.546154 19.986085 16.615385 20.008574 16.684615 20.030138 16.753846 20.050775 16.823077 20.070479 16.892308 20.089246 16.961538 20.107072 17.030769 20.123952 17.100000 20.139882 17.169231 20.154857 17.238462 20.168874 17.307692 20.181927 17.376923 20.194012 17.446154 20.205126 17.515385 20.215263 17.584615 20.224419 17.653846 20.232590 17.723077 20.239771 17.792308 20.245958 17.861538 20.251146 17.930769 20.255332 18.000000 20.258510 18.069231 20.260677 18.138462 20.261827 18.207692 20.261957 18.276923 20.261062 18.346154 20.259138 18.415385 20.256180 18.484615 20.252185 18.553846 20.247146 18.623077 20.241061 18.692308 20.233925 18.761538 20.225732 18.830769 20.216480 18.900000 20.206163 18.969231 20.194778 19.038462 20.182319 19.107692 20.168782 19.176923 20.154164 19.246154 20.138459 19.315385 20.121663 19.384615 20.103772 19.453846 20.084783 19.523077 20.064702 19.592308 20.043538 19.661538 20.021298 19.730769 19.997990 19.800000 19.973622 19.869231 19.948202 19.938462 19.921738 20.007692 19.894238 20.076923 19.865709 20.146154 19.836160 20.215385 19.805599 20.284615 19.774034 20.353846 19.741472 20.423077 19.707922 20.492308 19.673391 20.561538 19.637887 20.630769 19.601419 20.700000 19.563994 20.769231 19.525620 20.838462 19.486305 20.907692 19.446057 20.976923 19.404885 21.046154 19.362795 21.115385 19.319796 21.184615 19.275896 21.253846 19.231103 21.323077 19.185424 21.392308 19.138868 21.461538 19.091443 21.530769 19.043156 21.600000 18.994015 21.669231 18.944029 21.738462 18.893206 21.807692 18.841552 21.876923 18.789077 21.946154 18.735788 22.015385 18.681693 22.084615 18.626800 22.153846 18.571117 22.223077 18.514652 22.292308 18.457413 22.361538 18.399408 22.430769 18.340644 22.500000 18.281130 22.569231 18.220873 22.638462 18.159883 22.707692 18.098165 22.776923 18.035729 22.846154 17.972583 22.915385 17.908733 22.984615 17.844189 23.053846 17.778958 23.123077 17.713048 23.192308 17.646468 23.261538 17.579224 23.330769 17.511325 23.400000 17.442779 23.469231 17.373594 23.538462 17.303778 23.607692 17.233338 23.676923 17.162283 23.746154 17.090620 23.815385 17.018358 23.884615 16.945505 23.953846 16.872068 24.023077 16.798055 24.092308 16.723474 24.161538 16.648334 24.230769 16.572642 24.300000 16.496406 24.369231 16.419634 24.438462 16.342333 24.507692 16.264513 24.576923 16.186181 24.646154 16.107344 24.715385 16.028011 24.784615 15.948190 24.853846 15.867888 24.923077 15.787114 24.992308 15.705876 25.061538 15.624180 25.130769 15.542037 25.200000 15.459452 25.269231 15.376435 25.338462 15.292992 25.407692 15.209133 25.476923 15.124865 25.546154 15.040196 25.615385 14.955134 25.684615 14.869687 25.753846 14.783862 25.823077 14.697669 25.892308 14.611114 25.961538 14.524205 26.030769 14.436951 26.100000 14.349360 26.169231 14.261439 26.238462 14.173197 26.307692 14.084640 26.376923 13.995779 26.446154 13.906619 26.515385 13.817169 26.584615 13.727438 26.653846 13.637432 26.723077 13.547161 26.792308 13.456631 26.861538 13.365851 26.930769 13.274829 27.000000 13.183573 27.069231 13.092090 27.138462 13.000389 27.207692 12.908477 27.276923 12.816363 27.346154 12.724054 27.415385 12.631559 27.484615 12.538885 27.553846 12.446040 27.623077 12.353032 27.692308 12.259870 27.761538 12.166560 27.830769 12.073111 27.900000 11.979532 27.969231 11.885829 28.038462 11.792011 28.107692 11.698086 28.176923 11.604061 28.246154 11.509945 28.315385 11.415746 28.384615 11.321471 28.453846 11.227128 28.523077 11.132726 28.592308 11.038272 28.661538 10.943775 28.730769 10.849241 28.800000 10.754680 28.869231 10.660099 28.938462 10.565506 29.007692 10.470908 29.076923 10.376315 29.146154 10.281734 29.215385 10.187172 29.284615 10.092638 29.353846 9.998139 29.423077 9.903685 29.492308 9.809281 29.561538 9.714937 29.630769 9.620661 29.700000 9.526460 29.769231 9.432342 29.838462 9.338315 29.907692 9.244388 29.976923 9.150567 30.046154 9.056862 30.115385 8.963280 30.184615 8.869828 30.253846 8.776516 30.323077 8.683350 30.392308 8.590339 30.461538 8.497490 30.530769 8.404813 30.600000 8.312313 30.669231 8.220001 30.738462 8.127882 30.807692 8.035966 30.876923 7.944260 30.946154 7.852773 31.015385 7.761512 31.084615 7.670485 31.153846 7.579700 31.223077 7.489164 31.292308 7.398887 31.361538 7.308876 31.430769 7.219139 31.500000 7.129683 31.569231 7.040517 31.638462 6.951649 31.707692 6.863086 31.776923 6.774837 31.846154 6.686909 31.915385 6.599310 31.984615 6.512049 32.053846 6.425133 32.123077 6.338571 32.192308 6.252369 32.261538 6.166537 32.330769 6.081081 32.400000 5.996011 32.469231 5.911334 32.538462 5.827057 32.607692 5.743189 32.676923 5.659738 32.746154 5.576711 32.815385 5.494118 32.884615 5.411964 32.953846 5.330259 33.023077 5.249011 33.092308 5.168227 33.161538 5.087915 33.230769 5.008083 33.300000 4.928740 33.369231 4.849893 33.438462 4.771550 33.507692 4.693718 33.576923 4.616407 33.646154 4.539624 33.715385 4.463376 33.784615 4.387672 33.853846 4.312520 33.923077 4.237927 33.992308 4.163903 34.061538 4.090453 34.130769 4.017587 34.200000 3.945312 34.269231 3.873637 34.338462 3.802569 34.407692 3.732116 34.476923 3.662286 34.546154 3.593088 34.615385 3.524528 34.684615 3.456615 34.753846 3.389358 34.823077 3.322763 34.892308 3.256839 34.961538 3.191593 35.030769 3.127034 35.100000 3.063170 35.169231 3.000009 35.238462 2.937557 35.307692 2.875825 35.376923 2.814818 35.446154 2.754546 35.515385 2.695016 35.584615 2.636236 35.653846 2.578215 35.723077 2.520959 35.792308 2.464478 35.861538 2.408778 35.930769 2.353868 36.000000 2.299756 36.069231 2.246450 36.138462 2.193957 36.207692 2.142286 36.276923 2.091445 36.346154 2.041441 36.415385 1.992282 36.484615 1.943977 36.553846 1.896533 36.623077 1.849959 36.692308 1.804262 36.761538 1.759448 36.830769 1.715516 36.900000 1.672464 36.969231 1.630289 37.038462 1.588988 37.107692 1.548558 37.176923 1.508997 37.246154 1.470301 37.315385 1.432469 37.384615 1.395497 37.453846 1.359382 37.523077 1.324122 37.592308 1.289714 37.661538 1.256155 37.730769 1.223443 37.800000 1.191575 37.869231 1.160547 37.938462 1.130357 38.007692 1.101003 38.076923 1.072482 38.146154 1.044790 38.215385 1.017925 38.284615 0.991885 38.353846 0.966667 38.423077 0.942267 38.492308 0.918683 38.561538 0.895912 38.630769 0.873952 38.700000 0.852800 38.769231 0.832453 38.838462 0.812908 38.907692 0.794162 38.976923 0.776213 39.046154 0.759059 39.115385 0.742695 39.184615 0.727119 39.253846 0.712330 39.323077 0.698323 39.392308 0.685096 39.461538 0.672647 39.530769 0.660972 39.600000 0.650069 39.669231 0.639935 39.738462 0.630568 39.807692 0.621964 39.876923 0.614121 39.946154 0.607035 40.015385 0.600705 40.084615 0.595128 40.153846 0.590300 40.223077 0.586219 40.292308 0.582883 40.361538 0.580288 40.430769 0.578431 40.500000 0.577311 40.569231 0.576923 40.638462 0.577266 40.707692 0.578337 40.776923 0.580132 40.846154 0.582649 40.915385 0.585886 40.984615 0.589839 41.053846 0.594507 41.123077 0.599885 41.192308 0.605971 41.261538 0.612763 41.330769 0.620258 41.400000 0.628453 41.469231 0.637344 41.538462 0.646931 41.607692 0.657209 41.676923 0.668176 41.746154 0.679829 41.815385 0.692165 41.884615 0.705182 41.953846 0.718877 42.023077 0.733248 42.092308 0.748290 42.161538 0.764002 42.230769 0.780381 42.300000 0.797424 42.369231 0.815128 42.438462 0.833491 42.507692 0.852509 42.576923 0.872181 42.646154 0.892502 42.715385 0.913472 42.784615 0.935085 42.853846 0.957341 42.923077 0.980236 42.992308 1.003768 43.061538 1.027933 43.130769 1.052729 43.200000 1.078153 43.269231 1.104202 43.338462 1.130874 43.407692 1.158166 43.476923 1.186075 43.546154 1.214599 43.615385 1.243734 43.684615 1.273477 43.753846 1.303827 43.823077 1.334780 43.892308 1.366333 43.961538 1.398484 44.030769 1.431230 44.100000 1.464569 44.169231 1.498496 44.238462 1.533011 44.307692 1.568109 44.376923 1.603788 44.446154 1.640046 44.515385 1.676880 44.584615 1.714286 44.653846 1.752262 44.723077 1.790806 44.792308 1.829914 44.861538 1.869585 44.930769 1.909814 45.000000 1.950599 45.069231 1.991938 45.138462 2.033828 45.207692 2.076265 45.276923 2.119248 45.346154 2.162774 45.415385 2.206839 45.484615 2.251441 45.553846 2.296577 45.623077 2.342244 45.692308 2.388441 45.761538 2.435163 45.830769 2.482408 45.900000 2.530173 45.969231 2.578456 46.038462 2.627254 46.107692 2.676564 46.176923 2.726384 46.246154 2.776709 46.315385 2.827539 46.384615 2.878870 46.453846 2.930698 46.523077 2.983023 46.592308 3.035840 46.661538 3.089147 46.730769 3.142941 46.800000 3.197220 46.869231 3.251980 46.938462 3.307219 47.007692 3.362934 47.076923 3.419123 47.146154 3.475782 47.215385 3.532909 47.284615 3.590502 47.353846 3.648556 47.423077 3.707070 47.492308 3.766041 47.561538 3.825466 47.630769 3.885342 47.700000 3.945667 47.769231 4.006437 47.838462 4.067650 47.907692 4.129304 47.976923 4.191395 48.046154 4.253921 48.115385 4.316878 48.184615 4.380265 48.253846 4.444078 48.323077 4.508315 48.392308 4.572973 48.461538 4.638048 48.530769 4.703539 48.600000 4.769443 48.669231 4.835756 48.738462 4.902477 48.807692 4.969602 48.876923 5.037128 48.946154 5.105053 49.015385 5.173374 49.084615 5.242088 49.153846 5.311193 49.223077 5.380686 49.292308 5.450563 49.361538 5.520823 49.430769 5.591462 49.500000 5.662477 49.569231 5.733867 49.638462 5.805627 49.707692 5.877756 49.776923 5.950251 49.846154 6.023108 49.915385 6.096326 49.984615 6.169901 50.053846 6.243830 50.123077 6.318111 50.192308 6.392741 50.261538 6.467717 50.330769 6.543037 50.400000 6.618698 50.469231 6.694696 50.538462 6.771030 50.607692 6.847696 50.676923 6.924692 50.746154 7.002015 50.815385 7.079662 50.884615 7.157630 50.953846 7.235917 51.023077 7.314520 51.092308 7.393435 51.161538 7.472661 51.230769 7.552195 51.300000 7.632034 51.369231 7.712174 51.438462 7.792614 51.507692 7.873350 51.576923 7.954380 51.646154 8.035701 51.715385 8.117310 51.784615 8.199205 51.853846 8.281382 51.923077 8.363840 51.992308 8.446574 52.061538 8.529583 52.130769 8.612864 52.200000 8.696413 52.269231 8.780228 52.338462 8.864307 52.407692 8.948647 52.476923 9.033244 52.546154 9.118096 52.615385 9.203201 52.684615 9.288555 52.753846 9.374155 52.823077 9.460000 52.892308 9.546086 52.961538 9.632411 53.030769 9.718971 53.100000 9.805764 53.169231 9.892788 53.238462 9.980039 53.307692 10.067514 53.376923 10.155211 53.446154 10.243128 53.515385 10.331261 53.584615 10.419607 53.653846 10.508164 53.723077 10.596930 53.792308 10.685900 53.861538 10.775074 53.930769 10.864447 54.000000 10.954017 54.069231 11.043781 54.138462 11.133735 54.207692 11.223876 54.276923 11.314199 54.346154 11.404701 54.415385 11.495378 54.484615 11.586225 54.553846 11.677240 54.623077 11.768417 54.692308 11.859753 54.761538 11.951245 54.830769 12.042888 54.900000 12.134678 54.969231 12.226611 55.038462 12.318684 55.107692 12.410892 55.176923 12.503232 55.246154 12.595700 55.315385 12.688292 55.384615 12.781004 55.453846 12.873831 55.523077 12.966771 55.592308 13.059819 55.661538 13.152971 55.730769 13.246224 55.800000 13.339573 55.869231 13.433014 55.938462 13.526545 56.007692 13.620160 56.076923 13.713855 56.146154 13.807628 56.215385 13.901473 56.284615 13.995388 56.353846 14.089368 56.423077 14.183409 56.492308 14.277507 56.561538 14.371659 56.630769 14.465861 56.700000 14.560107 56.769231 14.654396 56.838462 14.748722 56.907692 14.843083 56.976923 14.937473 57.046154 15.031889 57.115385 15.126327 57.184615 15.220784 57.253846 15.315255 57.323077 15.409736 57.392308 15.504224 57.461538 15.598714 57.530769 15.693203 57.600000 15.787686 57.669231 15.882161 57.738462 15.976622 57.807692 16.071067 57.876923 16.165490 57.946154 16.259889 58.015385 16.354259 58.084615 16.448596 58.153846 16.542896 58.223077 16.637157 58.292308 16.731372 58.361538 16.825540 58.430769 16.919655 58.500000 17.013715 58.569231 17.107714 58.638462 17.201649 58.707692 17.295516 58.776923 17.389312 58.846154 17.483032 58.915385 17.576672 58.984615 17.670229 59.053846 17.763698 59.123077 17.857076 59.192308 17.950359 59.261538 18.043543 59.330769 18.136623 59.400000 18.229597 59.469231 18.322460 59.538462 18.415208 59.607692 18.507837 59.676923 18.600343 59.746154 18.692724 59.815385 18.784973 59.884615 18.877088 59.953846 18.969065 60.023077 19.060900 60.092308 19.152589 60.161538 19.244127 60.230769 19.335512 60.300000 19.426739 60.369231 19.517804 60.438462 19.608703 60.507692 19.699433 60.576923 19.789990 60.646154 19.880369 60.715385 19.970566 60.784615 20.060579 60.853846 20.150402 60.923077 20.240033 60.992308 20.329466 61.061538 20.418698 61.130769 20.507726 61.200000 20.596545 61.269231 20.685151 61.338462 20.773541 61.407692 20.861711 61.476923 20.949656 61.546154 21.037373 61.615385 21.124857 61.684615 21.212106 61.753846 21.299114 61.823077 21.385879 61.892308 21.472396 61.961538 21.558661 62.030769 21.644671 62.100000 21.730421 62.169231 21.815907 62.238462 21.901126 62.307692 21.986074 62.376923 22.070746 62.446154 22.155140 62.515385 22.239250 62.584615 22.323074 62.653846 22.406607 62.723077 22.489845 62.792308 22.572784 62.861538 22.655420 62.930769 22.737751 63.000000 22.819770 63.069231 22.901476 63.138462 22.982863 63.207692 23.063928 63.276923 23.144667 63.346154 23.225076 63.415385 23.305151 63.484615 23.384888 63.553846 23.464284 63.623077 23.543334 63.692308 23.622034 63.761538 23.700381 63.830769 23.778371 63.900000 23.855999 63.969231 23.933263 64.038462 24.010157 64.107692 24.086678 64.176923 24.162822 64.246154 24.238585 64.315385 24.313964 64.384615 24.388954 64.453846 24.463551 64.523077 24.537752 64.592308 24.611553 64.661538 24.684949 64.730769 24.757937 64.800000 24.830513 64.869231 24.902673 64.938462 24.974412 65.007692 25.045728 65.076923 25.116617 65.146154 25.187073 65.215385 25.257094 65.284615 25.326676 65.353846 25.395814 65.423077 25.464504 65.492308 25.532744 65.561538 25.600528 65.630769 25.667853 65.700000 25.734715 65.769231 25.801111 65.838462 25.867035 65.907692 25.932485 65.976923 25.997456 66.046154 26.061945 66.115385 26.125947 66.184615 26.189459 66.253846 26.252476 66.323077 26.314995 66.392308 26.377013 66.461538 26.438524 66.530769 26.499525 66.600000 26.560012 66.669231 26.619982 66.738462 26.679430 66.807692 26.738352 66.876923 26.796745 66.946154 26.854605 67.015385 26.911927 67.084615 26.968708 67.153846 27.024944 67.223077 27.080630 67.292308 27.135764 67.361538 27.190341 67.430769 27.244357 67.500000 27.297809 67.569231 27.350691 67.638462 27.403002 67.707692 27.454736 67.776923 27.505889 67.846154 27.556458 67.915385 27.606439 67.984615 27.655828 68.053846 27.704621 68.123077 27.752814 68.192308 27.800404 68.261538 27.847385 68.330769 27.893755 68.400000 27.939509 68.469231 27.984644 68.538462 28.029155 68.607692 28.073040 68.676923 28.116293 68.746154 28.158910 68.815385 28.200889 68.884615 28.242225 68.953846 28.282914 69.023077 28.322952 69.092308 28.362336 69.161538 28.401061 69.230769 28.439123 69.300000 28.476519 69.369231 28.513245 69.438462 28.549296 69.507692 28.584669 69.576923 28.619361 69.646154 28.653366 69.715385 28.686681 69.784615 28.719303 69.853846 28.751227 69.923077 28.782449 69.992308 28.812966 70.061538 28.842773 70.130769 28.871867 70.200000 28.900243 70.269231 28.927899 70.338462 28.954829 70.407692 28.981030 70.476923 29.006498 70.546154 29.031230 70.615385 29.055221 70.684615 29.078467 70.753846 29.100964 70.823077 29.122709 70.892308 29.143698 70.961538 29.163926 71.030769 29.183391 71.100000 29.202087 71.169231 29.220011 71.238462 29.237159 71.307692 29.253527 71.376923 29.269112 71.446154 29.283919 71.515385 29.297950 71.584615 29.311210 71.653846 29.323705 71.723077 29.335437 71.792308 29.346411 71.861538 29.356633 71.930769 29.366105 72.000000 29.374833 72.069231 29.382820 72.138462 29.390072 72.207692 29.396592 72.276923 29.402385 72.346154 29.407456 72.415385 29.411808 72.484615 29.415446 72.553846 29.418374 72.623077 29.420597 72.692308 29.422119 72.761538 29.422944 72.830769 29.423077 72.900000 29.422522 72.969231 29.421284 73.038462 29.419366 73.107692 29.416774 73.176923 29.413511 73.246154 29.409582 73.315385 29.404991 73.384615 29.399743 73.453846 29.393841 73.523077 29.387291 73.592308 29.380097 73.661538 29.372263 73.730769 29.363793 73.800000 29.354692 73.869231 29.344964 73.938462 29.334614 74.007692 29.323645 74.076923 29.312063 74.146154 29.299871 74.215385 29.287074 74.284615 29.273676 74.353846 29.259682 74.423077 29.245096 74.492308 29.229922 74.561538 29.214165 74.630769 29.197828 74.700000 29.180918 74.769231 29.163437 74.838462 29.145390 74.907692 29.126782 74.976923 29.107616 75.046154 29.087898 75.115385 29.067631 75.184615 29.046820 75.253846 29.025470 75.323077 29.003584 75.392308 28.981167 75.461538 28.958223 75.530769 28.934757 75.600000 28.910774 75.669231 28.886276 75.738462 28.861269 75.807692 28.835758 75.876923 28.809746 75.946154 28.783238 76.015385 28.756238 76.084615 28.728751 76.153846 28.700780 76.223077 28.672331 76.292308 28.643407 76.361538 28.614014 76.430769 28.584155 76.500000 28.553834 76.569231 28.523057 76.638462 28.491827 76.707692 28.460149 76.776923 28.428027 76.846154 28.395465 76.915385 28.362469 76.984615 28.329041 77.053846 28.295188 77.123077 28.260912 77.192308 28.226218 77.261538 28.191111 77.330769 28.155595 77.400000 28.119675 77.469231 28.083354 77.538462 28.046637 77.607692 28.009529 77.676923 27.972034 77.746154 27.934155 77.815385 27.895899 77.884615 27.857268 77.953846 27.818267 78.023077 27.778901 78.092308 27.739174 78.161538 27.699090 78.230769 27.658654 78.300000 27.617870 78.369231 27.576742 78.438462 27.535275 78.507692 27.493473 78.576923 27.451341 78.646154 27.408882 78.715385 27.366102 78.784615 27.323004 78.853846 27.279593 78.923077 27.235873 78.992308 27.191849 79.061538 27.147525 79.130769 27.102905 79.200000 27.057994 79.269231 27.012796 79.338462 26.967315 79.407692 26.921556 79.476923 26.875524 79.546154 26.829221 79.615385 26.782654 79.684615 26.735825 79.753846 26.688740 79.823077 26.641404 79.892308 26.593819 79.961538 26.545991 80.030769 26.497924 80.100000 26.449622 80.169231 26.401090 80.238462 26.352332 80.307692 26.303353 80.376923 26.254156 80.446154 26.204746 80.515385 26.155128 80.584615 26.105306 80.653846 26.055284 80.723077 26.005066 80.792308 25.954658 80.861538 25.904063 80.930769 25.853285 81.000000 25.802329 81.069231 25.751200 81.138462 25.699901 81.207692 25.648438 81.276923 25.596813 81.346154 25.545033 81.415385 25.493101 81.484615 25.441021 81.553846 25.388798 81.623077 25.336437 81.692308 25.283941 81.761538 25.231315 81.830769 25.178563 81.900000 25.125689 81.969231 25.072699 82.038462 25.019596 82.107692 24.966385 82.176923 24.913070 82.246154 24.859656 82.315385 24.806146 82.384615 24.752545 82.453846 24.698858 82.523077 24.645089 82.592308 24.591242 82.661538 24.537322 82.730769 24.483332 82.800000 24.429278 82.869231 24.375163 82.938462 24.320993 83.007692 24.266771 83.076923 24.212502 83.146154 24.158189 83.215385 24.103838 83.284615 24.049453 83.353846 23.995039 83.423077 23.940598 83.492308 23.886137 83.561538 23.831659 83.630769 23.777168 83.700000 23.722669 83.769231 23.668167 83.838462 23.613665 83.907692 23.559169 83.976923 23.504682 84.046154 23.450208 84.115385 23.395753 84.184615 23.341320 84.253846 23.286914 84.323077 23.232539 84.392308 23.178200 84.461538 23.123900 84.530769 23.069645 84.600000 23.015439 84.669231 22.961285 84.738462 22.907189 84.807692 22.853154 84.876923 22.799186 84.946154 22.745287 85.015385 22.691464 85.084615 22.637720 85.153846 22.584059 85.223077 22.530486 85.292308 22.477005 85.361538 22.423621 85.430769 22.370338 85.500000 22.317160 85.569231 22.264092 85.638462 22.211137 85.707692 22.158301 85.776923 22.105588 85.846154 22.053002 85.915385 22.000547 85.984615 21.948228 86.053846 21.896049 86.123077 21.844014 86.192308 21.792129 86.261538 21.740396 86.330769 21.688822 86.400000 21.637409 86.469231 21.586162 86.538462 21.535086 86.607692 21.484185 86.676923 21.433464 86.746154 21.382926 86.815385 21.332576 86.884615 21.282418 86.953846 21.232458 87.023077 21.182698 87.092308 21.133144 87.161538 21.083800 87.230769 21.034671 87.300000 20.985759 87.369231 20.937071 87.438462 20.888610 87.507692 20.840380 87.576923 20.792387 87.646154 20.744634 87.715385 20.697126 87.784615 20.649867 87.853846 20.602861 87.923077 20.556113 87.992308 20.509627 88.061538 20.463408 88.130769 20.417460 88.200000 20.371786 88.269231 20.326393 88.338462 20.281283 88.407692 20.236462 88.476923 20.191933 88.546154 20.147702 88.615385 20.103772 88.684615 20.060146 88.753846 20.016825 88.823077 19.973808 88.892308 19.931092 88.961538 19.888678 89.030769 19.846563 89.100000 19.804746 89.169231 19.763227 89.238462 19.722003 89.307692 19.681074 89.376923 19.640439 89.446154 19.600096 89.515385 19.560044 89.584615 19.520282 89.653846 19.480809 89.723077 19.441623 89.792308 19.402723 89.861538 19.364108 89.930769 19.325777 90.000000 19.287728 90.069231 19.249961 90.138462 19.212474 90.207692 19.175265 90.276923 19.138334 90.346154 19.101680 90.415385 19.065301 90.484615 19.029195 90.553846 18.993363 90.623077 18.957802 90.692308 18.922511 90.761538 18.887489 90.830769 18.852735 90.900000 18.818248 90.969231 18.784026 91.038462 18.750068 91.107692 18.716373 91.176923 18.682940 91.246154 18.649767 91.315385 18.616854 91.384615 18.584198 91.453846 18.551800 91.523077 18.519657 91.592308 18.487768 91.661538 18.456133 91.730769 18.424749 91.800000 18.393617 91.869231 18.362733 91.938462 18.332098 92.007692 18.301711 92.076923 18.271568 92.146154 18.241671 92.215385 18.212017 92.284615 18.182605 92.353846 18.153434 92.423077 18.124502 92.492308 18.095809 92.561538 18.067354 92.630769 18.039134 92.700000 18.011149 92.769231 17.983398 92.838462 17.955879 92.907692 17.928591 92.976923 17.901533 93.046154 17.874704 93.115385 17.848103 93.184615 17.821727 93.253846 17.795577 93.323077 17.769650 93.392308 17.743946 93.461538 17.718464 93.530769 17.693201 93.600000 17.668158 93.669231 17.643332 93.738462 17.618722 93.807692 17.594328 93.876923 17.570148 93.946154 17.546181 94.015385 17.522425 94.084615 17.498879 94.153846 17.475543 94.223077 17.452415 94.292308 17.429493 94.361538 17.406777 94.430769 17.384265 94.500000 17.361956 94.569231 17.339848 94.638462 17.317942 94.707692 17.296234 94.776923 17.274725 94.846154 17.253413 94.915385 17.232296 94.984615 17.211374 95.053846 17.190645 95.123077 17.170108 95.192308 17.149762 95.261538 17.129606 95.330769 17.109637 95.400000 17.089856 95.469231 17.070261 95.538462 17.050850 95.607692 17.031623 95.676923 17.012578 95.746154 16.993714 95.815385 16.975030 95.884615 16.956525 95.953846 16.938196 96.023077 16.920044 96.092308 16.902067 96.161538 16.884263 96.230769 16.866632 96.300000 16.849172 96.369231 16.831882 96.438462 16.814761 96.507692 16.797808 96.576923 16.781020 96.646154 16.764398 96.715385 16.747940 96.784615 16.731644 96.853846 16.715510 96.923077 16.699536 96.992308 16.683721 97.061538 16.668063 97.130769 16.652563 97.200000 16.637217 97.269231 16.622026 97.338462 16.606987 97.407692 16.592101 97.476923 16.577364 97.546154 16.562777 97.615385 16.548338 97.684615 16.534045 97.753846 16.519899 97.823077 16.505896 97.892308 16.492036 97.961538 16.478319 98.030769 16.464742 98.100000 16.451304 98.169231 16.438005 98.238462 16.424842 98.307692 16.411816 98.376923 16.398923 98.446154 16.386165 98.515385 16.373538 98.584615 16.361042 98.653846 16.348676 98.723077 16.336438 98.792308 16.324327 98.861538 16.312342 98.930769 16.300483 99.000000 16.288746 99.069231 16.277132 99.138462 16.265639 99.207692 16.254266 99.276923 16.243011 99.346154 16.231874 99.415385 16.220853 99.484615 16.209947 99.553846 16.199155 99.623077 16.188475 99.692308 16.177906 99.761538 16.167448 99.830769 16.157098 99.900000 16.146856 99.969231 16.136721 100.038462 16.126690 100.107692 16.116764 100.176923 16.106940 100.246154 16.097218 100.315385 16.087596 100.384615 16.078073 100.453846 16.068648 100.523077 16.059320 100.592308 16.050087 100.661538 16.040948 100.730769 16.031902 100.800000 16.022948 100.869231 16.014084 100.938462 16.005310 101.007692 15.996623 101.076923 15.988024 101.146154 15.979510 101.215385 15.971080 101.284615 15.962734 101.353846 15.954470 101.423077 15.946286 101.492308 15.938182 101.561538 15.930156 101.630769 15.922207 101.700000 15.914334 101.769231 15.906535 101.838462 15.898810 101.907692 15.891157 101.976923 15.883575 102.046154 15.876063 102.115385 15.868619 102.184615 15.861242 102.253846 15.853932 102.323077 15.846686 102.392308 15.839504 102.461538 15.832384 102.530769 15.825326 102.600000 15.818327 102.669231 15.811387 102.738462 15.804505 102.807692 15.797679 102.876923 15.790907 102.946154 15.784190 103.015385 15.777525 103.084615 15.770912 103.153846 15.764349 103.223077 15.757834 103.292308 15.751368 103.361538 15.744947 103.430769 15.738572 103.500000 15.732242 103.569231 15.725953 103.638462 15.719707 103.707692 15.713501 103.776923 15.707334 103.846154 15.701205 103.915385 15.695112 103.984615 15.689055 104.053846 15.683032 104.123077 15.677043 104.192308 15.671085 104.261538 15.665158 104.330769 15.659260 104.400000 15.653390 104.469231 15.647547 104.538462 15.641729 104.607692 15.635937 104.676923 15.630167 104.746154 15.624420 104.815385 15.618693 104.884615 15.612986 104.953846 15.607297 105.023077 15.601625 105.092308 15.595969 105.161538 15.590328 105.230769 15.584700 105.300000 15.579085 105.369231 15.573480 105.438462 15.567886 105.507692 15.562300 105.576923 15.556721 105.646154 15.551148 105.715385 15.545580 105.784615 15.540016 105.853846 15.534455 105.923077 15.528894" class="line reactive nofill" /></g></g><g class="titles" /><g transform="translate(82, 10)" class="plot overlay"><g class="series serie-0 color-0" /></g><g transform="translate(82, 10)" class="plot text-overlay"><g class="series serie-0 color-0" /></g><g transform="translate(82, 10)" class="plot tooltip-overlay"><g transform="translate(0 0)" style="opacity: 0" class="tooltip"><rect rx="0" ry="0" width="0" height="0" class="tooltip-box" /><g class="text" /></g></g></g></svg>