<?xml version='1.0' encoding='utf-8'?>
<svg xmlns="http://www.w3.org/2000/svg" id="chart-9e6358b2-fa50-4196-94ee-2dcb2e5cf0a2" class="pygal-chart pygal-sparkline" viewBox="0 0 200 50" width="200" height="50"><!--Generated with pygal 3.0.5 (etree) ©Kozea 2012-2016 on 2025-04-20--><!--http://pygal.org--><!--http://github.com/Kozea/pygal--><defs><style type="text/css">#chart-9e6358b2-fa50-4196-94ee-2dcb2e5cf0a2{-webkit-user-select:none;-webkit-font-smoothing:antialiased;font-family:Consolas,"Liberation Mono",Menlo,Courier,monospace}#chart-9e6358b2-fa50-4196-94ee-2dcb2e5cf0a2 .title{font-family:Consolas,"Liberation Mono",Menlo,Courier,monospace;font-size:16px}#chart-9e6358b2-fa50-4196-94ee-2dcb2e5cf0a2 .legends .legend text{font-family:Consolas,"Liberation Mono",Menlo,Courier,monospace;font-size:14px}#chart-9e6358b2-fa50-4196-94ee-2dcb2e5cf0a2 .axis text{font-family:Consolas,"Liberation Mono",Menlo,Courier,monospace;font-size:10px}#chart-9e6358b2-fa50-4196-94ee-2dcb2e5cf0a2 .axis text.major{font-family:Consolas,"Liberation Mono",Menlo,Courier,monospace;font-size:10px}#chart-9e6358b2-fa50-4196-94ee-2dcb2e5cf0a2 .text-overlay text.value{font-family:Consolas,"Liberation Mono",Menlo,Courier,monospace;font-size:16px}#chart-9e6358b2-fa50-4196-94ee-2dcb2e5cf0a2 .text-overlay text.label{font-family:Consolas,"Liberation Mono",Menlo,Courier,monospace;font-size:10px}#chart-9e6358b2-fa50-4196-94ee-2dcb2e5cf0a2 .tooltip{font-family:Consolas,"Liberation Mono",Menlo,Courier,monospace;font-size:14px}#chart-9e6358b2-fa50-4196-94ee-2dcb2e5cf0a2 text.no_data{font-family:Consolas,"Liberation Mono",Menlo,Courier,monospace;font-size:64px}
#chart-9e6358b2-fa50-4196-94ee-2dcb2e5cf0a2{background-color:rgba(249,249,249,1)}#chart-9e6358b2-fa50-4196-94ee-2dcb2e5cf0a2 path,#chart-9e6358b2-fa50-4196-94ee-2dcb2e5cf0a2 line,#chart-9e6358b2-fa50-4196-94ee-2dcb2e5cf0a2 rect,#chart-9e6358b2-fa50-4196-94ee-2dcb2e5cf0a2 circle{-webkit-transition:150ms;-moz-transition:150ms;transition:150ms}#chart-9e6358b2-fa50-4196-94ee-2dcb2e5cf0a2 .graph &gt; .background{fill:rgba(249,249,249,1)}#chart-9e6358b2-fa50-4196-94ee-2dcb2e5cf0a2 .plot &gt; .background{fill:rgba(255,255,255,1)}#chart-9e6358b2-fa50-4196-94ee-2dcb2e5cf0a2 .graph{fill:rgba(0,0,0,.87)}#chart-9e6358b2-fa50-4196-94ee-2dcb2e5cf0a2 text.no_data{fill:rgba(0,0,0,1)}#chart-9e6358b2-fa50-4196-94ee-2dcb2e5cf0a2 .title{fill:rgba(0,0,0,1)}#chart-9e6358b2-fa50-4196-94ee-2dcb2e5cf0a2 .legends .legend text{fill:rgba(0,0,0,.87)}#chart-9e6358b2-fa50-4196-94ee-2dcb2e5cf0a2 .legends .legend:hover text{fill:rgba(0,0,0,1)}#chart-9e6358b2-fa50-4196-94ee-2dcb2e5cf0a2 .axis .line{stroke:rgba(0,0,0,1)}#chart-9e6358b2-fa50-4196-94ee-2dcb2e5cf0a2 .axis .guide.line{stroke:rgba(0,0,0,.54)}#chart-9e6358b2-fa50-4196-94ee-2dcb2e5cf0a2 .axis .major.line{stroke:rgba(0,0,0,.87)}#chart-9e6358b2-fa50-4196-94ee-2dcb2e5cf0a2 .axis text.major{fill:rgba(0,0,0,1)}#chart-9e6358b2-fa50-4196-94ee-2dcb2e5cf0a2 .axis.y .guides:hover .guide.line,#chart-9e6358b2-fa50-4196-94ee-2dcb2e5cf0a2 .line-graph .axis.x .guides:hover .guide.line,#chart-9e6358b2-fa50-4196-94ee-2dcb2e5cf0a2 .stackedline-graph .axis.x .guides:hover .guide.line,#chart-9e6358b2-fa50-4196-94ee-2dcb2e5cf0a2 .xy-graph .axis.x .guides:hover .guide.line{stroke:rgba(0,0,0,1)}#chart-9e6358b2-fa50-4196-94ee-2dcb2e5cf0a2 .axis .guides:hover text{fill:rgba(0,0,0,1)}#chart-9e6358b2-fa50-4196-94ee-2dcb2e5cf0a2 .reactive{fill-opacity:.7;stroke-opacity:.8;stroke-width:1}#chart-9e6358b2-fa50-4196-94ee-2dcb2e5cf0a2 .ci{stroke:rgba(0,0,0,.87)}#chart-9e6358b2-fa50-4196-94ee-2dcb2e5cf0a2 .reactive.active,#chart-9e6358b2-fa50-4196-94ee-2dcb2e5cf0a2 .active .reactive{fill-opacity:.8;stroke-opacity:.9;stroke-width:4}#chart-9e6358b2-fa50-4196-94ee-2dcb2e5cf0a2 .ci .reactive.active{stroke-width:1.5}#chart-9e6358b2-fa50-4196-94ee-2dcb2e5cf0a2 .series text{fill:rgba(0,0,0,1)}#chart-9e6358b2-fa50-4196-94ee-2dcb2e5cf0a2 .tooltip rect{fill:rgba(255,255,255,1);stroke:rgba(0,0,0,1);-webkit-transition:opacity 150ms;-moz-transition:opacity 150ms;transition:opacity 150ms}#chart-9e6358b2-fa50-4196-94ee-2dcb2e5cf0a2 .tooltip .label{fill:rgba(0,0,0,.87)}#chart-9e6358b2-fa50-4196-94ee-2dcb2e5cf0a2 .tooltip .label{fill:rgba(0,0,0,.87)}#chart-9e6358b2-fa50-4196-94ee-2dcb2e5cf0a2 .tooltip .legend{font-size:.8em;fill:rgba(0,0,0,.54)}#chart-9e6358b2-fa50-4196-94ee-2dcb2e5cf0a2 .tooltip .x_label{font-size:.6em;fill:rgba(0,0,0,1)}#chart-9e6358b2-fa50-4196-94ee-2dcb2e5cf0a2 .tooltip .xlink{font-size:.5em;text-decoration:underline}#chart-9e6358b2-fa50-4196-94ee-2dcb2e5cf0a2 .tooltip .value{font-size:1.5em}#chart-9e6358b2-fa50-4196-94ee-2dcb2e5cf0a2 .bound{font-size:.5em}#chart-9e6358b2-fa50-4196-94ee-2dcb2e5cf0a2 .max-value{font-size:.75em;fill:rgba(0,0,0,.54)}#chart-9e6358b2-fa50-4196-94ee-2dcb2e5cf0a2 .map-element{fill:rgba(255,255,255,1);stroke:rgba(0,0,0,.54) !important}#chart-9e6358b2-fa50-4196-94ee-2dcb2e5cf0a2 .map-element .reactive{fill-opacity:inherit;stroke-opacity:inherit}#chart-9e6358b2-fa50-4196-94ee-2dcb2e5cf0a2 .color-0,#chart-9e6358b2-fa50-4196-94ee-2dcb2e5cf0a2 .color-0 a:visited{stroke:#F44336;fill:#F44336}#chart-9e6358b2-fa50-4196-94ee-2dcb2e5cf0a2 .text-overlay .color-0 text{fill:black}
#chart-9e6358b2-fa50-4196-94ee-2dcb2e5cf0a2 text.no_data{text-anchor:middle}#chart-9e6358b2-fa50-4196-94ee-2dcb2e5cf0a2 .guide.line{fill:none}#chart-9e6358b2-fa50-4196-94ee-2dcb2e5cf0a2 .centered{text-anchor:middle}#chart-9e6358b2-fa50-4196-94ee-2dcb2e5cf0a2 .title{text-anchor:middle}#chart-9e6358b2-fa50-4196-94ee-2dcb2e5cf0a2 .legends .legend text{fill-opacity:1}#chart-9e6358b2-fa50-4196-94ee-2dcb2e5cf0a2 .axis.x text{text-anchor:middle}#chart-9e6358b2-fa50-4196-94ee-2dcb2e5cf0a2 .axis.x:not(.web) text[transform]{text-anchor:start}#chart-9e6358b2-fa50-4196-94ee-2dcb2e5cf0a2 .axis.x:not(.web) text[transform].backwards{text-anchor:end}#chart-9e6358b2-fa50-4196-94ee-2dcb2e5cf0a2 .axis.y text{text-anchor:end}#chart-9e6358b2-fa50-4196-94ee-2dcb2e5cf0a2 .axis.y text[transform].backwards{text-anchor:start}#chart-9e6358b2-fa50-4196-94ee-2dcb2e5cf0a2 .axis.y2 text{text-anchor:start}#chart-9e6358b2-fa50-4196-94ee-2dcb2e5cf0a2 .axis.y2 text[transform].backwards{text-anchor:end}#chart-9e6358b2-fa50-4196-94ee-2dcb2e5cf0a2 .axis .guide.line{stroke-dasharray:4,4;stroke:black}#chart-9e6358b2-fa50-4196-94ee-2dcb2e5cf0a2 .axis .major.guide.line{stroke-dasharray:6,6;stroke:black}#chart-9e6358b2-fa50-4196-94ee-2dcb2e5cf0a2 .horizontal .axis.y .guide.line,#chart-9e6358b2-fa50-4196-94ee-2dcb2e5cf0a2 .horizontal .axis.y2 .guide.line,#chart-9e6358b2-fa50-4196-94ee-2dcb2e5cf0a2 .vertical .axis.x .guide.line{opacity:0}#chart-9e6358b2-fa50-4196-94ee-2dcb2e5cf0a2 .horizontal .axis.always_show .guide.line,#chart-9e6358b2-fa50-4196-94ee-2dcb2e5cf0a2 .vertical .axis.always_show .guide.line{opacity:1 !important}#chart-9e6358b2-fa50-4196-94ee-2dcb2e5cf0a2 .axis.y .guides:hover .guide.line,#chart-9e6358b2-fa50-4196-94ee-2dcb2e5cf0a2 .axis.y2 .guides:hover .guide.line,#chart-9e6358b2-fa50-4196-94ee-2dcb2e5cf0a2 .axis.x .guides:hover .guide.line{opacity:1}#chart-9e6358b2-fa50-4196-94ee-2dcb2e5cf0a2 .axis .guides:hover text{opacity:1}#chart-9e6358b2-fa50-4196-94ee-2dcb2e5cf0a2 .nofill{fill:none}#chart-9e6358b2-fa50-4196-94ee-2dcb2e5cf0a2 .subtle-fill{fill-opacity:.2}#chart-9e6358b2-fa50-4196-94ee-2dcb2e5cf0a2 .dot{stroke-width:1px;fill-opacity:1;stroke-opacity:1}#chart-9e6358b2-fa50-4196-94ee-2dcb2e5cf0a2 .dot.active{stroke-width:5px}#chart-9e6358b2-fa50-4196-94ee-2dcb2e5cf0a2 .dot.negative{fill:transparent}#chart-9e6358b2-fa50-4196-94ee-2dcb2e5cf0a2 text,#chart-9e6358b2-fa50-4196-94ee-2dcb2e5cf0a2 tspan{stroke:none !important}#chart-9e6358b2-fa50-4196-94ee-2dcb2e5cf0a2 .series text.active{opacity:1}#chart-9e6358b2-fa50-4196-94ee-2dcb2e5cf0a2 .tooltip rect{fill-opacity:.95;stroke-width:.5}#chart-9e6358b2-fa50-4196-94ee-2dcb2e5cf0a2 .tooltip text{fill-opacity:1}#chart-9e6358b2-fa50-4196-94ee-2dcb2e5cf0a2 .showable{visibility:hidden}#chart-9e6358b2-fa50-4196-94ee-2dcb2e5cf0a2 .showable.shown{visibility:visible}#chart-9e6358b2-fa50-4196-94ee-2dcb2e5cf0a2 .gauge-background{fill:rgba(229,229,229,1);stroke:none}#chart-9e6358b2-fa50-4196-94ee-2dcb2e5cf0a2 .bg-lines{stroke:rgba(249,249,249,1);stroke-width:2px}</style><script type="text/javascript">window.pygal = window.pygal || {};window.pygal.config = window.pygal.config || {};window.pygal.config['9e6358b2-fa50-4196-94ee-2dcb2e5cf0a2'] = {"allow_interruptions": false, "box_mode": "extremes", "classes": ["pygal-chart", "pygal-sparkline"], "css": ["file://style.css", "file://graph.css"], "defs": [], "disable_xml_declaration": false, "dots_size": 2.5, "dynamic_print_values": false, "explicit_size": true, "fill": false, "force_uri_protocol": "https", "formatter": null, "half_pie": false, "height": 50, "include_x_axis": false, "inner_radius": 0, "interpolate": "cubic", "interpolation_parameters": {}, "interpolation_precision": 250, "inverse_y_axis": false, "js": [], "legend_at_bottom": false, "legend_at_bottom_columns": null, "legend_box_size": 12, "logarithmic": false, "margin": 10, "margin_bottom": null, "margin_left": null, "margin_right": null, "margin_top": null, "max_scale": 2, "min_scale": 1, "missing_value_fill_truncation": "x", "no_data_text": "", "no_prefix": false, "order_min": null, "pretty_print": false, "print_labels": false, "print_values": false, "print_values_position": "center", "print_zeroes": true, "range": null, "rounded_bars": null, "secondary_range": null, "show_dots": false, "show_legend": false, "show_minor_x_labels": true, "show_minor_y_labels": true, "show_only_major_dots": false, "show_x_guides": false, "show_x_labels": false, "show_y_guides": true, "show_y_labels": true, "spacing": 0, "stack_from_top": false, "strict": false, "stroke": true, "stroke_style": null, "style": {"background": "rgba(249, 249, 249, 1)", "ci_colors": [], "colors": ["#F44336", "#3F51B5", "#009688", "#FFC107", "#FF5722", "#9C27B0", "#03A9F4", "#8BC34A", "#FF9800", "#E91E63", "#2196F3", "#4CAF50", "#FFEB3B", "#673AB7", "#00BCD4", "#CDDC39", "#9E9E9E", "#607D8B"], "dot_opacity": "1", "font_family": "Consolas, \"Liberation Mono\", Menlo, Courier, monospace", "foreground": "rgba(0, 0, 0, .87)", "foreground_strong": "rgba(0, 0, 0, 1)", "foreground_subtle": "rgba(0, 0, 0, .54)", "guide_stroke_color": "black", "guide_stroke_dasharray": "4,4", "label_font_family": "Consolas, \"Liberation Mono\", Menlo, Courier, monospace", "label_font_size": 10, "legend_font_family": "Consolas, \"Liberation Mono\", Menlo, Courier, monospace", "legend_font_size": 14, "major_guide_stroke_color": "black", "major_guide_stroke_dasharray": "6,6", "major_label_font_family": "Consolas, \"Liberation Mono\", Menlo, Courier, monospace", "major_label_font_size": 10, "no_data_font_family": "Consolas, \"Liberation Mono\", Menlo, Courier, monospace", "no_data_font_size": 64, "opacity": ".7", "opacity_hover": ".8", "plot_background": "rgba(255, 255, 255, 1)", "stroke_opacity": ".8", "stroke_opacity_hover": ".9", "stroke_width": "1", "stroke_width_hover": "4", "title_font_family": "Consolas, \"Liberation Mono\", Menlo, Courier, monospace", "title_font_size": 16, "tooltip_font_family": "Consolas, \"Liberation Mono\", Menlo, Courier, monospace", "tooltip_font_size": 14, "transition": "150ms", "value_background": "rgba(229, 229, 229, 1)", "value_colors": [], "value_font_family": "Consolas, \"Liberation Mono\", Menlo, Courier, monospace", "value_font_size": 16, "value_label_font_family": "Consolas, \"Liberation Mono\", Menlo, Courier, monospace", "value_label_font_size": 10}, "title": null, "tooltip_border_radius": 0, "tooltip_fancy_mode": true, "truncate_label": null, "truncate_legend": null, "width": 200, "x_label_rotation": 0, "x_labels": ["2025/4", "2025/3", "2025/2"], "x_labels_major": null, "x_labels_major_count": null, "x_labels_major_every": null, "x_title": null, "xrange": null, "y_label_rotation": 0, "y_labels": null, "y_labels_major": null, "y_labels_major_count": null, "y_labels_major_every": null, "y_title": null, "zero": 0, "legends": [""]}</script></defs><title>Pygal</title><g class="graph line-graph vertical"><rect x="0" y="0" width="200" height="50" class="background" /><g transform="translate(22, 10)" class="plot"><rect x="0" y="0" width="168.0" height="30" class="background" /><g class="axis y always_show"><path d="M0.000000 30.000000 h168.000000" class="line" /><g class="guides"><path d="M0.000000 21.181319 h168.000000" class="guide line" /><text x="-5" y="24.681318681318682" class="">8</text><title>8</title></g><g class="guides"><path d="M0.000000 4.697802 h168.000000" class="guide line" /><text x="-5" y="8.1978021978022" class="">12</text><title>12</title></g></g><g class="series serie-0 color-0"><path d="M3.230769 29.423077 L3.553846 29.328297 3.876923 29.233518 4.200000 29.138742 4.523077 29.043969 4.846154 28.949201 5.169231 28.854438 5.492308 28.759683 5.815385 28.664936 6.138462 28.570199 6.461538 28.475473 6.784615 28.380758 7.107692 28.286056 7.430769 28.191369 7.753846 28.096697 8.076923 28.002041 8.400000 27.907404 8.723077 27.812785 9.046154 27.718187 9.369231 27.623609 9.692308 27.529055 10.015385 27.434524 10.338462 27.340018 10.661538 27.245539 10.984615 27.151086 11.307692 27.056662 11.630769 26.962268 11.953846 26.867904 12.276923 26.773573 12.600000 26.679275 12.923077 26.585011 13.246154 26.490783 13.569231 26.396591 13.892308 26.302438 14.215385 26.208324 14.538462 26.114250 14.861538 26.020218 15.184615 25.926228 15.507692 25.832282 15.830769 25.738382 16.153846 25.644527 16.476923 25.550721 16.800000 25.456962 17.123077 25.363254 17.446154 25.269597 17.769231 25.175992 18.092308 25.082440 18.415385 24.988943 18.738462 24.895502 19.061538 24.802117 19.384615 24.708791 19.707692 24.615524 20.030769 24.522318 20.353846 24.429173 20.676923 24.336092 21.000000 24.243074 21.323077 24.150122 21.646154 24.057236 21.969231 23.964418 22.292308 23.871668 22.615385 23.778989 22.938462 23.686381 23.261538 23.593845 23.584615 23.501383 23.907692 23.408996 24.230769 23.316684 24.553846 23.224450 24.876923 23.132294 25.200000 23.040217 25.523077 22.948222 25.846154 22.856308 26.169231 22.764477 26.492308 22.672730 26.815385 22.581069 27.138462 22.489495 27.461538 22.398008 27.784615 22.306611 28.107692 22.215303 28.430769 22.124087 28.753846 22.032964 29.076923 21.941934 29.400000 21.850999 29.723077 21.760161 30.046154 21.669419 30.369231 21.578777 30.692308 21.488234 31.015385 21.397791 31.338462 21.307451 31.661538 21.217214 31.984615 21.127082 32.307692 21.037055 32.630769 20.947135 32.953846 20.857323 33.276923 20.767620 33.600000 20.678028 33.923077 20.588547 34.246154 20.499179 34.569231 20.409924 34.892308 20.320785 35.215385 20.231762 35.538462 20.142857 35.861538 20.054071 36.184615 19.965404 36.507692 19.876858 36.830769 19.788435 37.153846 19.700135 37.476923 19.611959 37.800000 19.523910 38.123077 19.435987 38.446154 19.348193 38.769231 19.260527 39.092308 19.172993 39.415385 19.085590 39.738462 18.998320 40.061538 18.911185 40.384615 18.824184 40.707692 18.737320 41.030769 18.650594 41.353846 18.564006 41.676923 18.477559 42.000000 18.391253 42.323077 18.305089 42.646154 18.219069 42.969231 18.133193 43.292308 18.047464 43.615385 17.961882 43.938462 17.876448 44.261538 17.791164 44.584615 17.706030 44.907692 17.621048 45.230769 17.536220 45.553846 17.451545 45.876923 17.367027 46.200000 17.282664 46.523077 17.198460 46.846154 17.114415 47.169231 17.030530 47.492308 16.946806 47.815385 16.863245 48.138462 16.779848 48.461538 16.696615 48.784615 16.613549 49.107692 16.530650 49.430769 16.447920 49.753846 16.365359 50.076923 16.282970 50.400000 16.200752 50.723077 16.118708 51.046154 16.036838 51.369231 15.955144 51.692308 15.873626 52.015385 15.792287 52.338462 15.711127 52.661538 15.630147 52.984615 15.549349 53.307692 15.468734 53.630769 15.388302 53.953846 15.308056 54.276923 15.227996 54.600000 15.148123 54.923077 15.068440 55.246154 14.988946 55.569231 14.909643 55.892308 14.830532 56.215385 14.751615 56.538462 14.672893 56.861538 14.594366 57.184615 14.516037 57.507692 14.437905 57.830769 14.359973 58.153846 14.282242 58.476923 14.204712 58.800000 14.127385 59.123077 14.050263 59.446154 13.973345 59.769231 13.896635 60.092308 13.820132 60.415385 13.743837 60.738462 13.667753 61.061538 13.591880 61.384615 13.516220 61.707692 13.440773 62.030769 13.365541 62.353846 13.290525 62.676923 13.215726 63.000000 13.141146 63.323077 13.066785 63.646154 12.992645 63.969231 12.918726 64.292308 12.845031 64.615385 12.771560 64.938462 12.698315 65.261538 12.625297 65.584615 12.552506 65.907692 12.479944 66.230769 12.407613 66.553846 12.335513 66.876923 12.263645 67.200000 12.192012 67.523077 12.120613 67.846154 12.049451 68.169231 11.978525 68.492308 11.907839 68.815385 11.837392 69.138462 11.767186 69.461538 11.697223 69.784615 11.627502 70.107692 11.558026 70.430769 11.488796 70.753846 11.419812 71.076923 11.351077 71.400000 11.282591 71.723077 11.214355 72.046154 11.146371 72.369231 11.078639 72.692308 11.011162 73.015385 10.943940 73.338462 10.876974 73.661538 10.810266 73.984615 10.743816 74.307692 10.677626 74.630769 10.611698 74.953846 10.546031 75.276923 10.480629 75.600000 10.415490 75.923077 10.350618 76.246154 10.286013 76.569231 10.221676 76.892308 10.157608 77.215385 10.093811 77.538462 10.030286 77.861538 9.967033 78.184615 9.904055 78.507692 9.841352 78.830769 9.778926 79.153846 9.716777 79.476923 9.654908 79.800000 9.593318 80.123077 9.532010 80.446154 9.470984 80.769231 9.410242 81.092308 9.349784 81.415385 9.289613 81.738462 9.229729 82.061538 9.170133 82.384615 9.110827 82.707692 9.051812 83.030769 8.993088 83.353846 8.934658 83.676923 8.876522 84.000000 8.818681 84.323077 8.761137 84.646154 8.703889 84.969231 8.646934 85.292308 8.590273 85.615385 8.533904 85.938462 8.477825 86.261538 8.422037 86.584615 8.366536 86.907692 8.311323 87.230769 8.256396 87.553846 8.201753 87.876923 8.147394 88.200000 8.093318 88.523077 8.039523 88.846154 7.986008 89.169231 7.932772 89.492308 7.879814 89.815385 7.827132 90.138462 7.774726 90.461538 7.722593 90.784615 7.670734 91.107692 7.619147 91.430769 7.567830 91.753846 7.516782 92.076923 7.466003 92.400000 7.415490 92.723077 7.365244 93.046154 7.315262 93.369231 7.265544 93.692308 7.216088 94.015385 7.166893 94.338462 7.117958 94.661538 7.069282 94.984615 7.020863 95.307692 6.972701 95.630769 6.924793 95.953846 6.877140 96.276923 6.829740 96.600000 6.782591 96.923077 6.735692 97.246154 6.689043 97.569231 6.642642 97.892308 6.596488 98.215385 6.550579 98.538462 6.504915 98.861538 6.459494 99.184615 6.414315 99.507692 6.369377 99.830769 6.324679 100.153846 6.280220 100.476923 6.235998 100.800000 6.192012 101.123077 6.148261 101.446154 6.104743 101.769231 6.061459 102.092308 6.018406 102.415385 5.975583 102.738462 5.932989 103.061538 5.890623 103.384615 5.848484 103.707692 5.806570 104.030769 5.764880 104.353846 5.723414 104.676923 5.682169 105.000000 5.641146 105.323077 5.600341 105.646154 5.559756 105.969231 5.519387 106.292308 5.479234 106.615385 5.439297 106.938462 5.399573 107.261538 5.360061 107.584615 5.320760 107.907692 5.281670 108.230769 5.242788 108.553846 5.204115 108.876923 5.165647 109.200000 5.127385 109.523077 5.089327 109.846154 5.051473 110.169231 5.013819 110.492308 4.976367 110.815385 4.939114 111.138462 4.902059 111.461538 4.865201 111.784615 4.828538 112.107692 4.792071 112.430769 4.755797 112.753846 4.719715 113.076923 4.683824 113.400000 4.648123 113.723077 4.612611 114.046154 4.577287 114.369231 4.542148 114.692308 4.507195 115.015385 4.472426 115.338462 4.437839 115.661538 4.403435 115.984615 4.369210 116.307692 4.335165 116.630769 4.301298 116.953846 4.267607 117.276923 4.234092 117.600000 4.200752 117.923077 4.167585 118.246154 4.134590 118.569231 4.101766 118.892308 4.069112 119.215385 4.036626 119.538462 4.004308 119.861538 3.972155 120.184615 3.940168 120.507692 3.908345 120.830769 3.876684 121.153846 3.845184 121.476923 3.813845 121.800000 3.782664 122.123077 3.751642 122.446154 3.720776 122.769231 3.690066 123.092308 3.659510 123.415385 3.629107 123.738462 3.598856 124.061538 3.568756 124.384615 3.538805 124.707692 3.509003 125.030769 3.479347 125.353846 3.449838 125.676923 3.420474 126.000000 3.391253 126.323077 3.362174 126.646154 3.333237 126.969231 3.304440 127.292308 3.275782 127.615385 3.247261 127.938462 3.218877 128.261538 3.190628 128.584615 3.162513 128.907692 3.134531 129.230769 3.106681 129.553846 3.078962 129.876923 3.051372 130.200000 3.023910 130.523077 2.996575 130.846154 2.969365 131.169231 2.942281 131.492308 2.915320 131.815385 2.888481 132.138462 2.861763 132.461538 2.835165 132.784615 2.808686 133.107692 2.782324 133.430769 2.756078 133.753846 2.729948 134.076923 2.703931 134.400000 2.678028 134.723077 2.652235 135.046154 2.626554 135.369231 2.600981 135.692308 2.575516 136.015385 2.550159 136.338462 2.524907 136.661538 2.499759 136.984615 2.474714 137.307692 2.449772 137.630769 2.424930 137.953846 2.400189 138.276923 2.375545 138.600000 2.350999 138.923077 2.326549 139.246154 2.302195 139.569231 2.277933 139.892308 2.253765 140.215385 2.229688 140.538462 2.205701 140.861538 2.181803 141.184615 2.157992 141.507692 2.134269 141.830769 2.110631 142.153846 2.087077 142.476923 2.063606 142.800000 2.040217 143.123077 2.016909 143.446154 1.993681 143.769231 1.970530 144.092308 1.947457 144.415385 1.924460 144.738462 1.901537 145.061538 1.878689 145.384615 1.855912 145.707692 1.833207 146.030769 1.810572 146.353846 1.788005 146.676923 1.765506 147.000000 1.743074 147.323077 1.720707 147.646154 1.698404 147.969231 1.676164 148.292308 1.653986 148.615385 1.631868 148.938462 1.609810 149.261538 1.587809 149.584615 1.565866 149.907692 1.543979 150.230769 1.522146 150.553846 1.500366 150.876923 1.478639 151.200000 1.456962 151.523077 1.435336 151.846154 1.413758 152.169231 1.392228 152.492308 1.370744 152.815385 1.349305 153.138462 1.327910 153.461538 1.306558 153.784615 1.285247 154.107692 1.263977 154.430769 1.242745 154.753846 1.221552 155.076923 1.200396 155.400000 1.179275 155.723077 1.158188 156.046154 1.137135 156.369231 1.116114 156.692308 1.095124 157.015385 1.074163 157.338462 1.053231 157.661538 1.032326 157.984615 1.011447 158.307692 0.990593 158.630769 0.969763 158.953846 0.948956 159.276923 0.928170 159.600000 0.907404 159.923077 0.886657 160.246154 0.865927 160.569231 0.845215 160.892308 0.824518 161.215385 0.803835 161.538462 0.783165 161.861538 0.762507 162.184615 0.741860 162.507692 0.721222 162.830769 0.700592 163.153846 0.679970 163.476923 0.659353 163.800000 0.638742 164.123077 0.618133 164.446154 0.597528 164.769231 0.576923" class="line reactive nofill" /></g></g><g class="titles" /><g transform="translate(22, 10)" class="plot overlay"><g class="series serie-0 color-0" /></g><g transform="translate(22, 10)" class="plot text-overlay"><g class="series serie-0 color-0" /></g><g transform="translate(22, 10)" class="plot tooltip-overlay"><g transform="translate(0 0)" style="opacity: 0" class="tooltip"><rect rx="0" ry="0" width="0" height="0" class="tooltip-box" /><g class="text" /></g></g></g></svg>