<?xml version='1.0' encoding='utf-8'?>
<svg xmlns="http://www.w3.org/2000/svg" id="chart-e520e62e-de65-464b-ac13-eedd4065558b" class="pygal-chart pygal-sparkline" viewBox="0 0 200 50" width="200" height="50"><!--Generated with pygal 3.0.5 (etree) ©Kozea 2012-2016 on 2025-02-09--><!--http://pygal.org--><!--http://github.com/Kozea/pygal--><defs><style type="text/css">#chart-e520e62e-de65-464b-ac13-eedd4065558b{-webkit-user-select:none;-webkit-font-smoothing:antialiased;font-family:Consolas,"Liberation Mono",Menlo,Courier,monospace}#chart-e520e62e-de65-464b-ac13-eedd4065558b .title{font-family:Consolas,"Liberation Mono",Menlo,Courier,monospace;font-size:16px}#chart-e520e62e-de65-464b-ac13-eedd4065558b .legends .legend text{font-family:Consolas,"Liberation Mono",Menlo,Courier,monospace;font-size:14px}#chart-e520e62e-de65-464b-ac13-eedd4065558b .axis text{font-family:Consolas,"Liberation Mono",Menlo,Courier,monospace;font-size:10px}#chart-e520e62e-de65-464b-ac13-eedd4065558b .axis text.major{font-family:Consolas,"Liberation Mono",Menlo,Courier,monospace;font-size:10px}#chart-e520e62e-de65-464b-ac13-eedd4065558b .text-overlay text.value{font-family:Consolas,"Liberation Mono",Menlo,Courier,monospace;font-size:16px}#chart-e520e62e-de65-464b-ac13-eedd4065558b .text-overlay text.label{font-family:Consolas,"Liberation Mono",Menlo,Courier,monospace;font-size:10px}#chart-e520e62e-de65-464b-ac13-eedd4065558b .tooltip{font-family:Consolas,"Liberation Mono",Menlo,Courier,monospace;font-size:14px}#chart-e520e62e-de65-464b-ac13-eedd4065558b text.no_data{font-family:Consolas,"Liberation Mono",Menlo,Courier,monospace;font-size:64px}
#chart-e520e62e-de65-464b-ac13-eedd4065558b{background-color:rgba(249,249,249,1)}#chart-e520e62e-de65-464b-ac13-eedd4065558b path,#chart-e520e62e-de65-464b-ac13-eedd4065558b line,#chart-e520e62e-de65-464b-ac13-eedd4065558b rect,#chart-e520e62e-de65-464b-ac13-eedd4065558b circle{-webkit-transition:150ms;-moz-transition:150ms;transition:150ms}#chart-e520e62e-de65-464b-ac13-eedd4065558b .graph &gt; .background{fill:rgba(249,249,249,1)}#chart-e520e62e-de65-464b-ac13-eedd4065558b .plot &gt; .background{fill:rgba(255,255,255,1)}#chart-e520e62e-de65-464b-ac13-eedd4065558b .graph{fill:rgba(0,0,0,.87)}#chart-e520e62e-de65-464b-ac13-eedd4065558b text.no_data{fill:rgba(0,0,0,1)}#chart-e520e62e-de65-464b-ac13-eedd4065558b .title{fill:rgba(0,0,0,1)}#chart-e520e62e-de65-464b-ac13-eedd4065558b .legends .legend text{fill:rgba(0,0,0,.87)}#chart-e520e62e-de65-464b-ac13-eedd4065558b .legends .legend:hover text{fill:rgba(0,0,0,1)}#chart-e520e62e-de65-464b-ac13-eedd4065558b .axis .line{stroke:rgba(0,0,0,1)}#chart-e520e62e-de65-464b-ac13-eedd4065558b .axis .guide.line{stroke:rgba(0,0,0,.54)}#chart-e520e62e-de65-464b-ac13-eedd4065558b .axis .major.line{stroke:rgba(0,0,0,.87)}#chart-e520e62e-de65-464b-ac13-eedd4065558b .axis text.major{fill:rgba(0,0,0,1)}#chart-e520e62e-de65-464b-ac13-eedd4065558b .axis.y .guides:hover .guide.line,#chart-e520e62e-de65-464b-ac13-eedd4065558b .line-graph .axis.x .guides:hover .guide.line,#chart-e520e62e-de65-464b-ac13-eedd4065558b .stackedline-graph .axis.x .guides:hover .guide.line,#chart-e520e62e-de65-464b-ac13-eedd4065558b .xy-graph .axis.x .guides:hover .guide.line{stroke:rgba(0,0,0,1)}#chart-e520e62e-de65-464b-ac13-eedd4065558b .axis .guides:hover text{fill:rgba(0,0,0,1)}#chart-e520e62e-de65-464b-ac13-eedd4065558b .reactive{fill-opacity:.7;stroke-opacity:.8;stroke-width:1}#chart-e520e62e-de65-464b-ac13-eedd4065558b .ci{stroke:rgba(0,0,0,.87)}#chart-e520e62e-de65-464b-ac13-eedd4065558b .reactive.active,#chart-e520e62e-de65-464b-ac13-eedd4065558b .active .reactive{fill-opacity:.8;stroke-opacity:.9;stroke-width:4}#chart-e520e62e-de65-464b-ac13-eedd4065558b .ci .reactive.active{stroke-width:1.5}#chart-e520e62e-de65-464b-ac13-eedd4065558b .series text{fill:rgba(0,0,0,1)}#chart-e520e62e-de65-464b-ac13-eedd4065558b .tooltip rect{fill:rgba(255,255,255,1);stroke:rgba(0,0,0,1);-webkit-transition:opacity 150ms;-moz-transition:opacity 150ms;transition:opacity 150ms}#chart-e520e62e-de65-464b-ac13-eedd4065558b .tooltip .label{fill:rgba(0,0,0,.87)}#chart-e520e62e-de65-464b-ac13-eedd4065558b .tooltip .label{fill:rgba(0,0,0,.87)}#chart-e520e62e-de65-464b-ac13-eedd4065558b .tooltip .legend{font-size:.8em;fill:rgba(0,0,0,.54)}#chart-e520e62e-de65-464b-ac13-eedd4065558b .tooltip .x_label{font-size:.6em;fill:rgba(0,0,0,1)}#chart-e520e62e-de65-464b-ac13-eedd4065558b .tooltip .xlink{font-size:.5em;text-decoration:underline}#chart-e520e62e-de65-464b-ac13-eedd4065558b .tooltip .value{font-size:1.5em}#chart-e520e62e-de65-464b-ac13-eedd4065558b .bound{font-size:.5em}#chart-e520e62e-de65-464b-ac13-eedd4065558b .max-value{font-size:.75em;fill:rgba(0,0,0,.54)}#chart-e520e62e-de65-464b-ac13-eedd4065558b .map-element{fill:rgba(255,255,255,1);stroke:rgba(0,0,0,.54) !important}#chart-e520e62e-de65-464b-ac13-eedd4065558b .map-element .reactive{fill-opacity:inherit;stroke-opacity:inherit}#chart-e520e62e-de65-464b-ac13-eedd4065558b .color-0,#chart-e520e62e-de65-464b-ac13-eedd4065558b .color-0 a:visited{stroke:#F44336;fill:#F44336}#chart-e520e62e-de65-464b-ac13-eedd4065558b .text-overlay .color-0 text{fill:black}
#chart-e520e62e-de65-464b-ac13-eedd4065558b text.no_data{text-anchor:middle}#chart-e520e62e-de65-464b-ac13-eedd4065558b .guide.line{fill:none}#chart-e520e62e-de65-464b-ac13-eedd4065558b .centered{text-anchor:middle}#chart-e520e62e-de65-464b-ac13-eedd4065558b .title{text-anchor:middle}#chart-e520e62e-de65-464b-ac13-eedd4065558b .legends .legend text{fill-opacity:1}#chart-e520e62e-de65-464b-ac13-eedd4065558b .axis.x text{text-anchor:middle}#chart-e520e62e-de65-464b-ac13-eedd4065558b .axis.x:not(.web) text[transform]{text-anchor:start}#chart-e520e62e-de65-464b-ac13-eedd4065558b .axis.x:not(.web) text[transform].backwards{text-anchor:end}#chart-e520e62e-de65-464b-ac13-eedd4065558b .axis.y text{text-anchor:end}#chart-e520e62e-de65-464b-ac13-eedd4065558b .axis.y text[transform].backwards{text-anchor:start}#chart-e520e62e-de65-464b-ac13-eedd4065558b .axis.y2 text{text-anchor:start}#chart-e520e62e-de65-464b-ac13-eedd4065558b .axis.y2 text[transform].backwards{text-anchor:end}#chart-e520e62e-de65-464b-ac13-eedd4065558b .axis .guide.line{stroke-dasharray:4,4;stroke:black}#chart-e520e62e-de65-464b-ac13-eedd4065558b .axis .major.guide.line{stroke-dasharray:6,6;stroke:black}#chart-e520e62e-de65-464b-ac13-eedd4065558b .horizontal .axis.y .guide.line,#chart-e520e62e-de65-464b-ac13-eedd4065558b .horizontal .axis.y2 .guide.line,#chart-e520e62e-de65-464b-ac13-eedd4065558b .vertical .axis.x .guide.line{opacity:0}#chart-e520e62e-de65-464b-ac13-eedd4065558b .horizontal .axis.always_show .guide.line,#chart-e520e62e-de65-464b-ac13-eedd4065558b .vertical .axis.always_show .guide.line{opacity:1 !important}#chart-e520e62e-de65-464b-ac13-eedd4065558b .axis.y .guides:hover .guide.line,#chart-e520e62e-de65-464b-ac13-eedd4065558b .axis.y2 .guides:hover .guide.line,#chart-e520e62e-de65-464b-ac13-eedd4065558b .axis.x .guides:hover .guide.line{opacity:1}#chart-e520e62e-de65-464b-ac13-eedd4065558b .axis .guides:hover text{opacity:1}#chart-e520e62e-de65-464b-ac13-eedd4065558b .nofill{fill:none}#chart-e520e62e-de65-464b-ac13-eedd4065558b .subtle-fill{fill-opacity:.2}#chart-e520e62e-de65-464b-ac13-eedd4065558b .dot{stroke-width:1px;fill-opacity:1;stroke-opacity:1}#chart-e520e62e-de65-464b-ac13-eedd4065558b .dot.active{stroke-width:5px}#chart-e520e62e-de65-464b-ac13-eedd4065558b .dot.negative{fill:transparent}#chart-e520e62e-de65-464b-ac13-eedd4065558b text,#chart-e520e62e-de65-464b-ac13-eedd4065558b tspan{stroke:none !important}#chart-e520e62e-de65-464b-ac13-eedd4065558b .series text.active{opacity:1}#chart-e520e62e-de65-464b-ac13-eedd4065558b .tooltip rect{fill-opacity:.95;stroke-width:.5}#chart-e520e62e-de65-464b-ac13-eedd4065558b .tooltip text{fill-opacity:1}#chart-e520e62e-de65-464b-ac13-eedd4065558b .showable{visibility:hidden}#chart-e520e62e-de65-464b-ac13-eedd4065558b .showable.shown{visibility:visible}#chart-e520e62e-de65-464b-ac13-eedd4065558b .gauge-background{fill:rgba(229,229,229,1);stroke:none}#chart-e520e62e-de65-464b-ac13-eedd4065558b .bg-lines{stroke:rgba(249,249,249,1);stroke-width:2px}</style><script type="text/javascript">window.pygal = window.pygal || {};window.pygal.config = window.pygal.config || {};window.pygal.config['e520e62e-de65-464b-ac13-eedd4065558b'] = {"allow_interruptions": false, "box_mode": "extremes", "classes": ["pygal-chart", "pygal-sparkline"], "css": ["file://style.css", "file://graph.css"], "defs": [], "disable_xml_declaration": false, "dots_size": 2.5, "dynamic_print_values": false, "explicit_size": true, "fill": false, "force_uri_protocol": "https", "formatter": null, "half_pie": false, "height": 50, "include_x_axis": false, "inner_radius": 0, "interpolate": "cubic", "interpolation_parameters": {}, "interpolation_precision": 250, "inverse_y_axis": false, "js": [], "legend_at_bottom": false, "legend_at_bottom_columns": null, "legend_box_size": 12, "logarithmic": false, "margin": 10, "margin_bottom": null, "margin_left": null, "margin_right": null, "margin_top": null, "max_scale": 2, "min_scale": 1, "missing_value_fill_truncation": "x", "no_data_text": "", "no_prefix": false, "order_min": null, "pretty_print": false, "print_labels": false, "print_values": false, "print_values_position": "center", "print_zeroes": true, "range": null, "rounded_bars": null, "secondary_range": null, "show_dots": false, "show_legend": false, "show_minor_x_labels": true, "show_minor_y_labels": true, "show_only_major_dots": false, "show_x_guides": false, "show_x_labels": false, "show_y_guides": true, "show_y_labels": true, "spacing": 0, "stack_from_top": false, "strict": false, "stroke": true, "stroke_style": null, "style": {"background": "rgba(249, 249, 249, 1)", "ci_colors": [], "colors": ["#F44336", "#3F51B5", "#009688", "#FFC107", "#FF5722", "#9C27B0", "#03A9F4", "#8BC34A", "#FF9800", "#E91E63", "#2196F3", "#4CAF50", "#FFEB3B", "#673AB7", "#00BCD4", "#CDDC39", "#9E9E9E", "#607D8B"], "dot_opacity": "1", "font_family": "Consolas, \"Liberation Mono\", Menlo, Courier, monospace", "foreground": "rgba(0, 0, 0, .87)", "foreground_strong": "rgba(0, 0, 0, 1)", "foreground_subtle": "rgba(0, 0, 0, .54)", "guide_stroke_color": "black", "guide_stroke_dasharray": "4,4", "label_font_family": "Consolas, \"Liberation Mono\", Menlo, Courier, monospace", "label_font_size": 10, "legend_font_family": "Consolas, \"Liberation Mono\", Menlo, Courier, monospace", "legend_font_size": 14, "major_guide_stroke_color": "black", "major_guide_stroke_dasharray": "6,6", "major_label_font_family": "Consolas, \"Liberation Mono\", Menlo, Courier, monospace", "major_label_font_size": 10, "no_data_font_family": "Consolas, \"Liberation Mono\", Menlo, Courier, monospace", "no_data_font_size": 64, "opacity": ".7", "opacity_hover": ".8", "plot_background": "rgba(255, 255, 255, 1)", "stroke_opacity": ".8", "stroke_opacity_hover": ".9", "stroke_width": "1", "stroke_width_hover": "4", "title_font_family": "Consolas, \"Liberation Mono\", Menlo, Courier, monospace", "title_font_size": 16, "tooltip_font_family": "Consolas, \"Liberation Mono\", Menlo, Courier, monospace", "tooltip_font_size": 14, "transition": "150ms", "value_background": "rgba(229, 229, 229, 1)", "value_colors": [], "value_font_family": "Consolas, \"Liberation Mono\", Menlo, Courier, monospace", "value_font_size": 16, "value_label_font_family": "Consolas, \"Liberation Mono\", Menlo, Courier, monospace", "value_label_font_size": 10}, "title": null, "tooltip_border_radius": 0, "tooltip_fancy_mode": true, "truncate_label": null, "truncate_legend": null, "width": 200, "x_label_rotation": 0, "x_labels": ["2024/5", "2024/4", "2024/3", "2024/2"], "x_labels_major": null, "x_labels_major_count": null, "x_labels_major_every": null, "x_title": null, "xrange": null, "y_label_rotation": 0, "y_labels": null, "y_labels_major": null, "y_labels_major_count": null, "y_labels_major_every": null, "y_title": null, "zero": 0, "legends": [""]}</script></defs><title>Pygal</title><g class="graph line-graph vertical"><rect x="0" y="0" width="200" height="50" class="background" /><g transform="translate(22, 10)" class="plot"><rect x="0" y="0" width="168.0" height="30" class="background" /><g class="axis y always_show"><path d="M0.000000 30.000000 h168.000000" class="line" /><g class="guides"><path d="M0.000000 16.093498 h168.000000" class="guide line" /><text x="-5" y="19.59349839595891" class="">8</text><title>8</title></g><g class="guides"><path d="M0.000000 0.576923 h168.000000" class="guide line" /><text x="-5" y="4.07692307692308" class="">16</text><title>16</title></g></g><g class="series serie-0 color-0"><path d="M3.230769 27.730930 L3.446154 27.748515 3.661538 27.766099 3.876923 27.783679 4.092308 27.801254 4.307692 27.818822 4.523077 27.836382 4.738462 27.853932 4.953846 27.871469 5.169231 27.888994 5.384615 27.906503 5.600000 27.923995 5.815385 27.941469 6.030769 27.958923 6.246154 27.976354 6.461538 27.993762 6.676923 28.011145 6.892308 28.028500 7.107692 28.045827 7.323077 28.063124 7.538462 28.080388 7.753846 28.097619 7.969231 28.114814 8.184615 28.131972 8.400000 28.149091 8.615385 28.166170 8.830769 28.183206 9.046154 28.200199 9.261538 28.217146 9.476923 28.234046 9.692308 28.250897 9.907692 28.267697 10.123077 28.284445 10.338462 28.301138 10.553846 28.317776 10.769231 28.334357 10.984615 28.350879 11.200000 28.367340 11.415385 28.383738 11.630769 28.400072 11.846154 28.416340 12.061538 28.432541 12.276923 28.448673 12.492308 28.464734 12.707692 28.480722 12.923077 28.496636 13.138462 28.512474 13.353846 28.528234 13.569231 28.543915 13.784615 28.559514 14.000000 28.575032 14.215385 28.590464 14.430769 28.605811 14.646154 28.621070 14.861538 28.636239 15.076923 28.651317 15.292308 28.666303 15.507692 28.681193 15.723077 28.695988 15.938462 28.710685 16.153846 28.725282 16.369231 28.739777 16.584615 28.754170 16.800000 28.768458 17.015385 28.782640 17.230769 28.796714 17.446154 28.810678 17.661538 28.824530 17.876923 28.838270 18.092308 28.851894 18.307692 28.865403 18.523077 28.878793 18.738462 28.892063 18.953846 28.905211 19.169231 28.918237 19.384615 28.931137 19.600000 28.943911 19.815385 28.956556 20.030769 28.969072 20.246154 28.981456 20.461538 28.993706 20.676923 29.005821 20.892308 29.017800 21.107692 29.029640 21.323077 29.041340 21.538462 29.052899 21.753846 29.064313 21.969231 29.075583 22.184615 29.086706 22.400000 29.097680 22.615385 29.108504 22.830769 29.119176 23.046154 29.129694 23.261538 29.140057 23.476923 29.150263 23.692308 29.160311 23.907692 29.170198 24.123077 29.179922 24.338462 29.189484 24.553846 29.198879 24.769231 29.208108 24.984615 29.217168 25.200000 29.226057 25.415385 29.234774 25.630769 29.243317 25.846154 29.251685 26.061538 29.259875 26.276923 29.267886 26.492308 29.275717 26.707692 29.283365 26.923077 29.290830 27.138462 29.298109 27.353846 29.305200 27.569231 29.312102 27.784615 29.318813 28.000000 29.325332 28.215385 29.331657 28.430769 29.337786 28.646154 29.343718 28.861538 29.349450 29.076923 29.354982 29.292308 29.360310 29.507692 29.365435 29.723077 29.370353 29.938462 29.375064 30.153846 29.379566 30.369231 29.383857 30.584615 29.387934 30.800000 29.391798 31.015385 29.395445 31.230769 29.398875 31.446154 29.402085 31.661538 29.405074 31.876923 29.407840 32.092308 29.410382 32.307692 29.412697 32.523077 29.414784 32.738462 29.416642 32.953846 29.418269 33.169231 29.419663 33.384615 29.420821 33.600000 29.421744 33.815385 29.422429 34.030769 29.422873 34.246154 29.423077 34.461538 29.423037 34.676923 29.422753 34.892308 29.422222 35.107692 29.421443 35.323077 29.420414 35.538462 29.419133 35.753846 29.417600 35.969231 29.415811 36.184615 29.413766 36.400000 29.411462 36.615385 29.408899 36.830769 29.406073 37.046154 29.402985 37.261538 29.399631 37.476923 29.396011 37.692308 29.392122 37.907692 29.387963 38.123077 29.383532 38.338462 29.378828 38.553846 29.373849 38.769231 29.368593 38.984615 29.363058 39.200000 29.357243 39.415385 29.351146 39.630769 29.344765 39.846154 29.338100 40.061538 29.331147 40.276923 29.323905 40.492308 29.316373 40.707692 29.308549 40.923077 29.300431 41.138462 29.292018 41.353846 29.283308 41.569231 29.274299 41.784615 29.264989 42.000000 29.255378 42.215385 29.245462 42.430769 29.235241 42.646154 29.224712 42.861538 29.213875 43.076923 29.202727 43.292308 29.191266 43.507692 29.179492 43.723077 29.167402 43.938462 29.154994 44.153846 29.142268 44.369231 29.129221 44.584615 29.115851 44.800000 29.102157 45.015385 29.088137 45.230769 29.073790 45.446154 29.059114 45.661538 29.044106 45.876923 29.028767 46.092308 29.013093 46.307692 28.997082 46.523077 28.980735 46.738462 28.964048 46.953846 28.947020 47.169231 28.929649 47.384615 28.911934 47.600000 28.893872 47.815385 28.875463 48.030769 28.856705 48.246154 28.837595 48.461538 28.818133 48.676923 28.798316 48.892308 28.778143 49.107692 28.757612 49.323077 28.736721 49.538462 28.715469 49.753846 28.693854 49.969231 28.671875 50.184615 28.649529 50.400000 28.626815 50.615385 28.603731 50.830769 28.580276 51.046154 28.556448 51.261538 28.532245 51.476923 28.507666 51.692308 28.482708 51.907692 28.457371 52.123077 28.431652 52.338462 28.405549 52.553846 28.379062 52.769231 28.352189 52.984615 28.324927 53.200000 28.297275 53.415385 28.269231 53.630769 28.240794 53.846154 28.211962 54.061538 28.182734 54.276923 28.153107 54.492308 28.123079 54.707692 28.092650 54.923077 28.061818 55.138462 28.030580 55.353846 27.998936 55.569231 27.966882 55.784615 27.934419 56.000000 27.901544 56.215385 27.868255 56.430769 27.834551 56.646154 27.800430 56.861538 27.765890 57.076923 27.730930 57.292308 27.695548 57.507692 27.659747 57.723077 27.623529 57.938462 27.586896 58.153846 27.549851 58.369231 27.512397 58.584615 27.474535 58.800000 27.436269 59.015385 27.397600 59.230769 27.358532 59.446154 27.319067 59.661538 27.279206 59.876923 27.238954 60.092308 27.198312 60.307692 27.157282 60.523077 27.115868 60.738462 27.074071 60.953846 27.031895 61.169231 26.989341 61.384615 26.946412 61.600000 26.903111 61.815385 26.859440 62.030769 26.815401 62.246154 26.770998 62.461538 26.726232 62.676923 26.681106 62.892308 26.635622 63.107692 26.589784 63.323077 26.543593 63.538462 26.497052 63.753846 26.450163 63.969231 26.402930 64.184615 26.355353 64.400000 26.307437 64.615385 26.259183 64.830769 26.210593 65.046154 26.161672 65.261538 26.112419 65.476923 26.062840 65.692308 26.012935 65.907692 25.962707 66.123077 25.912159 66.338462 25.861293 66.553846 25.810112 66.769231 25.758618 66.984615 25.706814 67.200000 25.654702 67.415385 25.602284 67.630769 25.549564 67.846154 25.496543 68.061538 25.443224 68.276923 25.389610 68.492308 25.335703 68.707692 25.281506 68.923077 25.227020 69.138462 25.172249 69.353846 25.117195 69.569231 25.061860 69.784615 25.006248 70.000000 24.950360 70.215385 24.894198 70.430769 24.837766 70.646154 24.781066 70.861538 24.724101 71.076923 24.666872 71.292308 24.609382 71.507692 24.551634 71.723077 24.493631 71.938462 24.435374 72.153846 24.376867 72.369231 24.318111 72.584615 24.259110 72.800000 24.199865 73.015385 24.140379 73.230769 24.080656 73.446154 24.020696 73.661538 23.960503 73.876923 23.900079 74.092308 23.839426 74.307692 23.778548 74.523077 23.717446 74.738462 23.656123 74.953846 23.594582 75.169231 23.532825 75.384615 23.470854 75.600000 23.408672 75.815385 23.346282 76.030769 23.283686 76.246154 23.220886 76.461538 23.157885 76.676923 23.094685 76.892308 23.031289 77.107692 22.967700 77.323077 22.903919 77.538462 22.839950 77.753846 22.775795 77.969231 22.711456 78.184615 22.646935 78.400000 22.582236 78.615385 22.517361 78.830769 22.452311 79.046154 22.387091 79.261538 22.321702 79.476923 22.256146 79.692308 22.190426 79.907692 22.124545 80.123077 22.058506 80.338462 21.992309 80.553846 21.925959 80.769231 21.859458 80.984615 21.792807 81.200000 21.726010 81.415385 21.659069 81.630769 21.591987 81.846154 21.524765 82.061538 21.457407 82.276923 21.389915 82.492308 21.322291 82.707692 21.254539 82.923077 21.186659 83.138462 21.118656 83.353846 21.050530 83.569231 20.982286 83.784615 20.913925 84.000000 20.845450 84.215385 20.776863 84.430769 20.708166 84.646154 20.639363 84.861538 20.570456 85.076923 20.501447 85.292308 20.432339 85.507692 20.363134 85.723077 20.293834 85.938462 20.224443 86.153846 20.154962 86.369231 20.085394 86.584615 20.015742 86.800000 19.946008 87.015385 19.876195 87.230769 19.806305 87.446154 19.736340 87.661538 19.666303 87.876923 19.596196 88.092308 19.526023 88.307692 19.455785 88.523077 19.385485 88.738462 19.315125 88.953846 19.244709 89.169231 19.174237 89.384615 19.103714 89.600000 19.033141 89.815385 18.962521 90.030769 18.891856 90.246154 18.821148 90.461538 18.750402 90.676923 18.679617 90.892308 18.608799 91.107692 18.537947 91.323077 18.467066 91.538462 18.396158 91.753846 18.325225 91.969231 18.254270 92.184615 18.183294 92.400000 18.112302 92.615385 18.041294 92.830769 17.970274 93.046154 17.899244 93.261538 17.828207 93.476923 17.757164 93.692308 17.686120 93.907692 17.615075 94.123077 17.544033 94.338462 17.472995 94.553846 17.401965 94.769231 17.330945 94.984615 17.259938 95.200000 17.188945 95.415385 17.117970 95.630769 17.047014 95.846154 16.976081 96.061538 16.905173 96.276923 16.834292 96.492308 16.763441 96.707692 16.692622 96.923077 16.621838 97.138462 16.551091 97.353846 16.480384 97.569231 16.409719 97.784615 16.339098 98.000000 16.268525 98.215385 16.198002 98.430769 16.127531 98.646154 16.057114 98.861538 15.986754 99.076923 15.916454 99.292308 15.846216 99.507692 15.776043 99.723077 15.705937 99.938462 15.635900 100.153846 15.565935 100.369231 15.496044 100.584615 15.426231 100.800000 15.356497 101.015385 15.286845 101.230769 15.217277 101.446154 15.147797 101.661538 15.078405 101.876923 15.009106 102.092308 14.939901 102.307692 14.870792 102.523077 14.801783 102.738462 14.732876 102.953846 14.664073 103.169231 14.595377 103.384615 14.526790 103.600000 14.458315 103.815385 14.389953 104.030769 14.321709 104.246154 14.253584 104.461538 14.185580 104.676923 14.117701 104.892308 14.049948 105.107692 13.982324 105.323077 13.914832 105.538462 13.847474 105.753846 13.780253 105.969231 13.713170 106.184615 13.646229 106.400000 13.579432 106.615385 13.512782 106.830769 13.446280 107.046154 13.379930 107.261538 13.313734 107.476923 13.247694 107.692308 13.181813 107.907692 13.116094 108.123077 13.050538 108.338462 12.985149 108.553846 12.919928 108.769231 12.854879 108.984615 12.790003 109.200000 12.725304 109.415385 12.660784 109.630769 12.596445 109.846154 12.532289 110.061538 12.468320 110.276923 12.404539 110.492308 12.340950 110.707692 12.277554 110.923077 12.214355 111.138462 12.151353 111.353846 12.088549 111.569231 12.025943 111.784615 11.963532 112.000000 11.901317 112.215385 11.839297 112.430769 11.777470 112.646154 11.715836 112.861538 11.654395 113.076923 11.593145 113.292308 11.532086 113.507692 11.471217 113.723077 11.410537 113.938462 11.350045 114.153846 11.289740 114.369231 11.229623 114.584615 11.169691 114.800000 11.109944 115.015385 11.050382 115.230769 10.991003 115.446154 10.931807 115.661538 10.872793 115.876923 10.813959 116.092308 10.755307 116.307692 10.696833 116.523077 10.638539 116.738462 10.580423 116.953846 10.522483 117.169231 10.464720 117.384615 10.407133 117.600000 10.349720 117.815385 10.292482 118.030769 10.235416 118.246154 10.178523 118.461538 10.121802 118.676923 10.065251 118.892308 10.008870 119.107692 9.952659 119.323077 9.896616 119.538462 9.840741 119.753846 9.785032 119.969231 9.729490 120.184615 9.674112 120.400000 9.618900 120.615385 9.563850 120.830769 9.508964 121.046154 9.454240 121.261538 9.399677 121.476923 9.345275 121.692308 9.291032 121.907692 9.236948 122.123077 9.183022 122.338462 9.129254 122.553846 9.075642 122.769231 9.022185 122.984615 8.968884 123.200000 8.915737 123.415385 8.862743 123.630769 8.809902 123.846154 8.757212 124.061538 8.704673 124.276923 8.652285 124.492308 8.600046 124.707692 8.547955 124.923077 8.496012 125.138462 8.444216 125.353846 8.392567 125.569231 8.341062 125.784615 8.289703 126.000000 8.238487 126.215385 8.187414 126.430769 8.136483 126.646154 8.085694 126.861538 8.035045 127.076923 7.984536 127.292308 7.934166 127.507692 7.883935 127.723077 7.833841 127.938462 7.783883 128.153846 7.734061 128.369231 7.684375 128.584615 7.634822 128.800000 7.585404 129.015385 7.536117 129.230769 7.486963 129.446154 7.437940 129.661538 7.389047 129.876923 7.340283 130.092308 7.291649 130.307692 7.243142 130.523077 7.194762 130.738462 7.146509 130.953846 7.098381 131.169231 7.050378 131.384615 7.002498 131.600000 6.954742 131.815385 6.907108 132.030769 6.859596 132.246154 6.812205 132.461538 6.764933 132.676923 6.717781 132.892308 6.670747 133.107692 6.623831 133.323077 6.577031 133.538462 6.530348 133.753846 6.483779 133.969231 6.437325 134.184615 6.390985 134.400000 6.344757 134.615385 6.298642 134.830769 6.252637 135.046154 6.206743 135.261538 6.160959 135.476923 6.115284 135.692308 6.069716 135.907692 6.024256 136.123077 5.978902 136.338462 5.933654 136.553846 5.888511 136.769231 5.843472 136.984615 5.798536 137.200000 5.753703 137.415385 5.708971 137.630769 5.664341 137.846154 5.619810 138.061538 5.575379 138.276923 5.531046 138.492308 5.486811 138.707692 5.442673 138.923077 5.398631 139.138462 5.354684 139.353846 5.310832 139.569231 5.267073 139.784615 5.223408 140.000000 5.179834 140.215385 5.136352 140.430769 5.092961 140.646154 5.049659 140.861538 5.006447 141.076923 4.963322 141.292308 4.920285 141.507692 4.877335 141.723077 4.834470 141.938462 4.791690 142.153846 4.748995 142.369231 4.706383 142.584615 4.663854 142.800000 4.621406 143.015385 4.579039 143.230769 4.536753 143.446154 4.494546 143.661538 4.452418 143.876923 4.410368 144.092308 4.368394 144.307692 4.326497 144.523077 4.284676 144.738462 4.242929 144.953846 4.201256 145.169231 4.159656 145.384615 4.118128 145.600000 4.076672 145.815385 4.035287 146.030769 3.993971 146.246154 3.952725 146.461538 3.911547 146.676923 3.870436 146.892308 3.829392 147.107692 3.788415 147.323077 3.747502 147.538462 3.706654 147.753846 3.665869 147.969231 3.625147 148.184615 3.584487 148.400000 3.543888 148.615385 3.503349 148.830769 3.462870 149.046154 3.422450 149.261538 3.382088 149.476923 3.341783 149.692308 3.301534 149.907692 3.261341 150.123077 3.221203 150.338462 3.181119 150.553846 3.141088 150.769231 3.101110 150.984615 3.061183 151.200000 3.021307 151.415385 2.981481 151.630769 2.941705 151.846154 2.901976 152.061538 2.862296 152.276923 2.822662 152.492308 2.783075 152.707692 2.743532 152.923077 2.704035 153.138462 2.664580 153.353846 2.625169 153.569231 2.585800 153.784615 2.546472 154.000000 2.507185 154.215385 2.467937 154.430769 2.428729 154.646154 2.389558 154.861538 2.350425 155.076923 2.311329 155.292308 2.272268 155.507692 2.233242 155.723077 2.194250 155.938462 2.155292 156.153846 2.116366 156.369231 2.077472 156.584615 2.038609 156.800000 1.999776 157.015385 1.960973 157.230769 1.922198 157.446154 1.883451 157.661538 1.844731 157.876923 1.806037 158.092308 1.767368 158.307692 1.728725 158.523077 1.690105 158.738462 1.651508 158.953846 1.612933 159.169231 1.574380 159.384615 1.535847 159.600000 1.497335 159.815385 1.458841 160.030769 1.420366 160.246154 1.381908 160.461538 1.343467 160.676923 1.305041 160.892308 1.266631 161.107692 1.228235 161.323077 1.189853 161.538462 1.151483 161.753846 1.113125 161.969231 1.074779 162.184615 1.036443 162.400000 0.998116 162.615385 0.959798 162.830769 0.921488 163.046154 0.883185 163.261538 0.844888 163.476923 0.806597 163.692308 0.768311 163.907692 0.730028 164.123077 0.691749 164.338462 0.653473 164.553846 0.615197 164.769231 0.576923" class="line reactive nofill" /></g></g><g class="titles" /><g transform="translate(22, 10)" class="plot overlay"><g class="series serie-0 color-0" /></g><g transform="translate(22, 10)" class="plot text-overlay"><g class="series serie-0 color-0" /></g><g transform="translate(22, 10)" class="plot tooltip-overlay"><g transform="translate(0 0)" style="opacity: 0" class="tooltip"><rect rx="0" ry="0" width="0" height="0" class="tooltip-box" /><g class="text" /></g></g></g></svg>