<?xml version='1.0' encoding='utf-8'?>
<svg xmlns="http://www.w3.org/2000/svg" id="chart-808fe626-dba5-4d3d-b360-3360d7760e86" class="pygal-chart pygal-sparkline" viewBox="0 0 200 50" width="200" height="50"><!--Generated with pygal 3.0.5 (etree) ©Kozea 2012-2016 on 2024-12-08--><!--http://pygal.org--><!--http://github.com/Kozea/pygal--><defs><style type="text/css">#chart-808fe626-dba5-4d3d-b360-3360d7760e86{-webkit-user-select:none;-webkit-font-smoothing:antialiased;font-family:Consolas,"Liberation Mono",Menlo,Courier,monospace}#chart-808fe626-dba5-4d3d-b360-3360d7760e86 .title{font-family:Consolas,"Liberation Mono",Menlo,Courier,monospace;font-size:16px}#chart-808fe626-dba5-4d3d-b360-3360d7760e86 .legends .legend text{font-family:Consolas,"Liberation Mono",Menlo,Courier,monospace;font-size:14px}#chart-808fe626-dba5-4d3d-b360-3360d7760e86 .axis text{font-family:Consolas,"Liberation Mono",Menlo,Courier,monospace;font-size:10px}#chart-808fe626-dba5-4d3d-b360-3360d7760e86 .axis text.major{font-family:Consolas,"Liberation Mono",Menlo,Courier,monospace;font-size:10px}#chart-808fe626-dba5-4d3d-b360-3360d7760e86 .text-overlay text.value{font-family:Consolas,"Liberation Mono",Menlo,Courier,monospace;font-size:16px}#chart-808fe626-dba5-4d3d-b360-3360d7760e86 .text-overlay text.label{font-family:Consolas,"Liberation Mono",Menlo,Courier,monospace;font-size:10px}#chart-808fe626-dba5-4d3d-b360-3360d7760e86 .tooltip{font-family:Consolas,"Liberation Mono",Menlo,Courier,monospace;font-size:14px}#chart-808fe626-dba5-4d3d-b360-3360d7760e86 text.no_data{font-family:Consolas,"Liberation Mono",Menlo,Courier,monospace;font-size:64px}
#chart-808fe626-dba5-4d3d-b360-3360d7760e86{background-color:rgba(249,249,249,1)}#chart-808fe626-dba5-4d3d-b360-3360d7760e86 path,#chart-808fe626-dba5-4d3d-b360-3360d7760e86 line,#chart-808fe626-dba5-4d3d-b360-3360d7760e86 rect,#chart-808fe626-dba5-4d3d-b360-3360d7760e86 circle{-webkit-transition:150ms;-moz-transition:150ms;transition:150ms}#chart-808fe626-dba5-4d3d-b360-3360d7760e86 .graph &gt; .background{fill:rgba(249,249,249,1)}#chart-808fe626-dba5-4d3d-b360-3360d7760e86 .plot &gt; .background{fill:rgba(255,255,255,1)}#chart-808fe626-dba5-4d3d-b360-3360d7760e86 .graph{fill:rgba(0,0,0,.87)}#chart-808fe626-dba5-4d3d-b360-3360d7760e86 text.no_data{fill:rgba(0,0,0,1)}#chart-808fe626-dba5-4d3d-b360-3360d7760e86 .title{fill:rgba(0,0,0,1)}#chart-808fe626-dba5-4d3d-b360-3360d7760e86 .legends .legend text{fill:rgba(0,0,0,.87)}#chart-808fe626-dba5-4d3d-b360-3360d7760e86 .legends .legend:hover text{fill:rgba(0,0,0,1)}#chart-808fe626-dba5-4d3d-b360-3360d7760e86 .axis .line{stroke:rgba(0,0,0,1)}#chart-808fe626-dba5-4d3d-b360-3360d7760e86 .axis .guide.line{stroke:rgba(0,0,0,.54)}#chart-808fe626-dba5-4d3d-b360-3360d7760e86 .axis .major.line{stroke:rgba(0,0,0,.87)}#chart-808fe626-dba5-4d3d-b360-3360d7760e86 .axis text.major{fill:rgba(0,0,0,1)}#chart-808fe626-dba5-4d3d-b360-3360d7760e86 .axis.y .guides:hover .guide.line,#chart-808fe626-dba5-4d3d-b360-3360d7760e86 .line-graph .axis.x .guides:hover .guide.line,#chart-808fe626-dba5-4d3d-b360-3360d7760e86 .stackedline-graph .axis.x .guides:hover .guide.line,#chart-808fe626-dba5-4d3d-b360-3360d7760e86 .xy-graph .axis.x .guides:hover .guide.line{stroke:rgba(0,0,0,1)}#chart-808fe626-dba5-4d3d-b360-3360d7760e86 .axis .guides:hover text{fill:rgba(0,0,0,1)}#chart-808fe626-dba5-4d3d-b360-3360d7760e86 .reactive{fill-opacity:.7;stroke-opacity:.8;stroke-width:1}#chart-808fe626-dba5-4d3d-b360-3360d7760e86 .ci{stroke:rgba(0,0,0,.87)}#chart-808fe626-dba5-4d3d-b360-3360d7760e86 .reactive.active,#chart-808fe626-dba5-4d3d-b360-3360d7760e86 .active .reactive{fill-opacity:.8;stroke-opacity:.9;stroke-width:4}#chart-808fe626-dba5-4d3d-b360-3360d7760e86 .ci .reactive.active{stroke-width:1.5}#chart-808fe626-dba5-4d3d-b360-3360d7760e86 .series text{fill:rgba(0,0,0,1)}#chart-808fe626-dba5-4d3d-b360-3360d7760e86 .tooltip rect{fill:rgba(255,255,255,1);stroke:rgba(0,0,0,1);-webkit-transition:opacity 150ms;-moz-transition:opacity 150ms;transition:opacity 150ms}#chart-808fe626-dba5-4d3d-b360-3360d7760e86 .tooltip .label{fill:rgba(0,0,0,.87)}#chart-808fe626-dba5-4d3d-b360-3360d7760e86 .tooltip .label{fill:rgba(0,0,0,.87)}#chart-808fe626-dba5-4d3d-b360-3360d7760e86 .tooltip .legend{font-size:.8em;fill:rgba(0,0,0,.54)}#chart-808fe626-dba5-4d3d-b360-3360d7760e86 .tooltip .x_label{font-size:.6em;fill:rgba(0,0,0,1)}#chart-808fe626-dba5-4d3d-b360-3360d7760e86 .tooltip .xlink{font-size:.5em;text-decoration:underline}#chart-808fe626-dba5-4d3d-b360-3360d7760e86 .tooltip .value{font-size:1.5em}#chart-808fe626-dba5-4d3d-b360-3360d7760e86 .bound{font-size:.5em}#chart-808fe626-dba5-4d3d-b360-3360d7760e86 .max-value{font-size:.75em;fill:rgba(0,0,0,.54)}#chart-808fe626-dba5-4d3d-b360-3360d7760e86 .map-element{fill:rgba(255,255,255,1);stroke:rgba(0,0,0,.54) !important}#chart-808fe626-dba5-4d3d-b360-3360d7760e86 .map-element .reactive{fill-opacity:inherit;stroke-opacity:inherit}#chart-808fe626-dba5-4d3d-b360-3360d7760e86 .color-0,#chart-808fe626-dba5-4d3d-b360-3360d7760e86 .color-0 a:visited{stroke:#F44336;fill:#F44336}#chart-808fe626-dba5-4d3d-b360-3360d7760e86 .text-overlay .color-0 text{fill:black}
#chart-808fe626-dba5-4d3d-b360-3360d7760e86 text.no_data{text-anchor:middle}#chart-808fe626-dba5-4d3d-b360-3360d7760e86 .guide.line{fill:none}#chart-808fe626-dba5-4d3d-b360-3360d7760e86 .centered{text-anchor:middle}#chart-808fe626-dba5-4d3d-b360-3360d7760e86 .title{text-anchor:middle}#chart-808fe626-dba5-4d3d-b360-3360d7760e86 .legends .legend text{fill-opacity:1}#chart-808fe626-dba5-4d3d-b360-3360d7760e86 .axis.x text{text-anchor:middle}#chart-808fe626-dba5-4d3d-b360-3360d7760e86 .axis.x:not(.web) text[transform]{text-anchor:start}#chart-808fe626-dba5-4d3d-b360-3360d7760e86 .axis.x:not(.web) text[transform].backwards{text-anchor:end}#chart-808fe626-dba5-4d3d-b360-3360d7760e86 .axis.y text{text-anchor:end}#chart-808fe626-dba5-4d3d-b360-3360d7760e86 .axis.y text[transform].backwards{text-anchor:start}#chart-808fe626-dba5-4d3d-b360-3360d7760e86 .axis.y2 text{text-anchor:start}#chart-808fe626-dba5-4d3d-b360-3360d7760e86 .axis.y2 text[transform].backwards{text-anchor:end}#chart-808fe626-dba5-4d3d-b360-3360d7760e86 .axis .guide.line{stroke-dasharray:4,4;stroke:black}#chart-808fe626-dba5-4d3d-b360-3360d7760e86 .axis .major.guide.line{stroke-dasharray:6,6;stroke:black}#chart-808fe626-dba5-4d3d-b360-3360d7760e86 .horizontal .axis.y .guide.line,#chart-808fe626-dba5-4d3d-b360-3360d7760e86 .horizontal .axis.y2 .guide.line,#chart-808fe626-dba5-4d3d-b360-3360d7760e86 .vertical .axis.x .guide.line{opacity:0}#chart-808fe626-dba5-4d3d-b360-3360d7760e86 .horizontal .axis.always_show .guide.line,#chart-808fe626-dba5-4d3d-b360-3360d7760e86 .vertical .axis.always_show .guide.line{opacity:1 !important}#chart-808fe626-dba5-4d3d-b360-3360d7760e86 .axis.y .guides:hover .guide.line,#chart-808fe626-dba5-4d3d-b360-3360d7760e86 .axis.y2 .guides:hover .guide.line,#chart-808fe626-dba5-4d3d-b360-3360d7760e86 .axis.x .guides:hover .guide.line{opacity:1}#chart-808fe626-dba5-4d3d-b360-3360d7760e86 .axis .guides:hover text{opacity:1}#chart-808fe626-dba5-4d3d-b360-3360d7760e86 .nofill{fill:none}#chart-808fe626-dba5-4d3d-b360-3360d7760e86 .subtle-fill{fill-opacity:.2}#chart-808fe626-dba5-4d3d-b360-3360d7760e86 .dot{stroke-width:1px;fill-opacity:1;stroke-opacity:1}#chart-808fe626-dba5-4d3d-b360-3360d7760e86 .dot.active{stroke-width:5px}#chart-808fe626-dba5-4d3d-b360-3360d7760e86 .dot.negative{fill:transparent}#chart-808fe626-dba5-4d3d-b360-3360d7760e86 text,#chart-808fe626-dba5-4d3d-b360-3360d7760e86 tspan{stroke:none !important}#chart-808fe626-dba5-4d3d-b360-3360d7760e86 .series text.active{opacity:1}#chart-808fe626-dba5-4d3d-b360-3360d7760e86 .tooltip rect{fill-opacity:.95;stroke-width:.5}#chart-808fe626-dba5-4d3d-b360-3360d7760e86 .tooltip text{fill-opacity:1}#chart-808fe626-dba5-4d3d-b360-3360d7760e86 .showable{visibility:hidden}#chart-808fe626-dba5-4d3d-b360-3360d7760e86 .showable.shown{visibility:visible}#chart-808fe626-dba5-4d3d-b360-3360d7760e86 .gauge-background{fill:rgba(229,229,229,1);stroke:none}#chart-808fe626-dba5-4d3d-b360-3360d7760e86 .bg-lines{stroke:rgba(249,249,249,1);stroke-width:2px}</style><script type="text/javascript">window.pygal = window.pygal || {};window.pygal.config = window.pygal.config || {};window.pygal.config['808fe626-dba5-4d3d-b360-3360d7760e86'] = {"allow_interruptions": false, "box_mode": "extremes", "classes": ["pygal-chart", "pygal-sparkline"], "css": ["file://style.css", "file://graph.css"], "defs": [], "disable_xml_declaration": false, "dots_size": 2.5, "dynamic_print_values": false, "explicit_size": true, "fill": false, "force_uri_protocol": "https", "formatter": null, "half_pie": false, "height": 50, "include_x_axis": false, "inner_radius": 0, "interpolate": "cubic", "interpolation_parameters": {}, "interpolation_precision": 250, "inverse_y_axis": false, "js": [], "legend_at_bottom": false, "legend_at_bottom_columns": null, "legend_box_size": 12, "logarithmic": false, "margin": 10, "margin_bottom": null, "margin_left": null, "margin_right": null, "margin_top": null, "max_scale": 2, "min_scale": 1, "missing_value_fill_truncation": "x", "no_data_text": "", "no_prefix": false, "order_min": null, "pretty_print": false, "print_labels": false, "print_values": false, "print_values_position": "center", "print_zeroes": true, "range": null, "rounded_bars": null, "secondary_range": null, "show_dots": false, "show_legend": false, "show_minor_x_labels": true, "show_minor_y_labels": true, "show_only_major_dots": false, "show_x_guides": false, "show_x_labels": false, "show_y_guides": true, "show_y_labels": true, "spacing": 0, "stack_from_top": false, "strict": false, "stroke": true, "stroke_style": null, "style": {"background": "rgba(249, 249, 249, 1)", "ci_colors": [], "colors": ["#F44336", "#3F51B5", "#009688", "#FFC107", "#FF5722", "#9C27B0", "#03A9F4", "#8BC34A", "#FF9800", "#E91E63", "#2196F3", "#4CAF50", "#FFEB3B", "#673AB7", "#00BCD4", "#CDDC39", "#9E9E9E", "#607D8B"], "dot_opacity": "1", "font_family": "Consolas, \"Liberation Mono\", Menlo, Courier, monospace", "foreground": "rgba(0, 0, 0, .87)", "foreground_strong": "rgba(0, 0, 0, 1)", "foreground_subtle": "rgba(0, 0, 0, .54)", "guide_stroke_color": "black", "guide_stroke_dasharray": "4,4", "label_font_family": "Consolas, \"Liberation Mono\", Menlo, Courier, monospace", "label_font_size": 10, "legend_font_family": "Consolas, \"Liberation Mono\", Menlo, Courier, monospace", "legend_font_size": 14, "major_guide_stroke_color": "black", "major_guide_stroke_dasharray": "6,6", "major_label_font_family": "Consolas, \"Liberation Mono\", Menlo, Courier, monospace", "major_label_font_size": 10, "no_data_font_family": "Consolas, \"Liberation Mono\", Menlo, Courier, monospace", "no_data_font_size": 64, "opacity": ".7", "opacity_hover": ".8", "plot_background": "rgba(255, 255, 255, 1)", "stroke_opacity": ".8", "stroke_opacity_hover": ".9", "stroke_width": "1", "stroke_width_hover": "4", "title_font_family": "Consolas, \"Liberation Mono\", Menlo, Courier, monospace", "title_font_size": 16, "tooltip_font_family": "Consolas, \"Liberation Mono\", Menlo, Courier, monospace", "tooltip_font_size": 14, "transition": "150ms", "value_background": "rgba(229, 229, 229, 1)", "value_colors": [], "value_font_family": "Consolas, \"Liberation Mono\", Menlo, Courier, monospace", "value_font_size": 16, "value_label_font_family": "Consolas, \"Liberation Mono\", Menlo, Courier, monospace", "value_label_font_size": 10}, "title": null, "tooltip_border_radius": 0, "tooltip_fancy_mode": true, "truncate_label": null, "truncate_legend": null, "width": 200, "x_label_rotation": 0, "x_labels": ["2024/12", "2024/11", "2024/10"], "x_labels_major": null, "x_labels_major_count": null, "x_labels_major_every": null, "x_title": null, "xrange": null, "y_label_rotation": 0, "y_labels": null, "y_labels_major": null, "y_labels_major_count": null, "y_labels_major_every": null, "y_title": null, "zero": 0, "legends": [""]}</script></defs><title>Pygal</title><g class="graph line-graph vertical"><rect x="0" y="0" width="200" height="50" class="background" /><g transform="translate(76, 10)" class="plot"><rect x="0" y="0" width="114.0" height="30" class="background" /><g class="axis y always_show"><path d="M0.000000 30.000000 h114.000000" class="line" /><g class="guides"><path d="M0.000000 29.423077 h114.000000" class="guide line" /><text x="-5" y="32.92307692307692" class="">2</text><title>2</title></g><g class="guides"><path d="M0.000000 0.576923 h114.000000" class="guide line" /><text x="-5" y="4.076923076923077" class="">15.03207475</text><title>15.03207475</title></g></g><g class="series serie-0 color-0"><path d="M2.192308 29.423077 L2.411538 29.305763 2.630769 29.188451 2.850000 29.071143 3.069231 28.953841 3.288462 28.836546 3.507692 28.719261 3.726923 28.601988 3.946154 28.484727 4.165385 28.367482 4.384615 28.250255 4.603846 28.133046 4.823077 28.015858 5.042308 27.898694 5.261538 27.781554 5.480769 27.664441 5.700000 27.547357 5.919231 27.430303 6.138462 27.313282 6.357692 27.196295 6.576923 27.079345 6.796154 26.962433 7.015385 26.845561 7.234615 26.728731 7.453846 26.611945 7.673077 26.495205 7.892308 26.378512 8.111538 26.261870 8.330769 26.145279 8.550000 26.028742 8.769231 25.912260 8.988462 25.795835 9.207692 25.679470 9.426923 25.563166 9.646154 25.446925 9.865385 25.330749 10.084615 25.214640 10.303846 25.098600 10.523077 24.982631 10.742308 24.866734 10.961538 24.750912 11.180769 24.635167 11.400000 24.519499 11.619231 24.403913 11.838462 24.288408 12.057692 24.172988 12.276923 24.057653 12.496154 23.942407 12.715385 23.827250 12.934615 23.712185 13.153846 23.597214 13.373077 23.482339 13.592308 23.367561 13.811538 23.252883 14.030769 23.138305 14.250000 23.023832 14.469231 22.909463 14.688462 22.795202 14.907692 22.681049 15.126923 22.567007 15.346154 22.453079 15.565385 22.339265 15.784615 22.225567 16.003846 22.111988 16.223077 21.998530 16.442308 21.885194 16.661538 21.771983 16.880769 21.658897 17.100000 21.545940 17.319231 21.433113 17.538462 21.320418 17.757692 21.207856 17.976923 21.095431 18.196154 20.983143 18.415385 20.870995 18.634615 20.758988 18.853846 20.647124 19.073077 20.535406 19.292308 20.423836 19.511538 20.312414 19.730769 20.201144 19.950000 20.090026 20.169231 19.979064 20.388462 19.868258 20.607692 19.757611 20.826923 19.647125 21.046154 19.536801 21.265385 19.426641 21.484615 19.316648 21.703846 19.206824 21.923077 19.097169 22.142308 18.987687 22.361538 18.878379 22.580769 18.769246 22.800000 18.660292 23.019231 18.551517 23.238462 18.442924 23.457692 18.334515 23.676923 18.226291 23.896154 18.118254 24.115385 18.010407 24.334615 17.902751 24.553846 17.795288 24.773077 17.688020 24.992308 17.580950 25.211538 17.474078 25.430769 17.367407 25.650000 17.260938 25.869231 17.154675 26.088462 17.048618 26.307692 16.942769 26.526923 16.837131 26.746154 16.731704 26.965385 16.626493 27.184615 16.521497 27.403846 16.416719 27.623077 16.312161 27.842308 16.207825 28.061538 16.103713 28.280769 15.999827 28.500000 15.896168 28.719231 15.792738 28.938462 15.689540 29.157692 15.586575 29.376923 15.483846 29.596154 15.381354 29.815385 15.279100 30.034615 15.177088 30.253846 15.075318 30.473077 14.973794 30.692308 14.872516 30.911538 14.771486 31.130769 14.670708 31.350000 14.570181 31.569231 14.469909 31.788462 14.369894 32.007692 14.270136 32.226923 14.170638 32.446154 14.071403 32.665385 13.972431 32.884615 13.873726 33.103846 13.775288 33.323077 13.677119 33.542308 13.579223 33.761538 13.481599 33.980769 13.384251 34.200000 13.287181 34.419231 13.190389 34.638462 13.093879 34.857692 12.997652 35.076923 12.901710 35.296154 12.806054 35.515385 12.710688 35.734615 12.615612 35.953846 12.520829 36.173077 12.426340 36.392308 12.332147 36.611538 12.238253 36.830769 12.144660 37.050000 12.051368 37.269231 11.958380 37.488462 11.865699 37.707692 11.773325 37.926923 11.681261 38.146154 11.589509 38.365385 11.498071 38.584615 11.406948 38.803846 11.316143 39.023077 11.225656 39.242308 11.135492 39.461538 11.045650 39.680769 10.956134 39.900000 10.866944 40.119231 10.778084 40.338462 10.689554 40.557692 10.601357 40.776923 10.513495 40.996154 10.425969 41.215385 10.338782 41.434615 10.251936 41.653846 10.165431 41.873077 10.079271 42.092308 9.993457 42.311538 9.907991 42.530769 9.822875 42.750000 9.738111 42.969231 9.653701 43.188462 9.569647 43.407692 9.485950 43.626923 9.402612 43.846154 9.319636 44.065385 9.237024 44.284615 9.154777 44.503846 9.072897 44.723077 8.991386 44.942308 8.910246 45.161538 8.829479 45.380769 8.749086 45.600000 8.669071 45.819231 8.589434 46.038462 8.510178 46.257692 8.431304 46.476923 8.352815 46.696154 8.274712 46.915385 8.196997 47.134615 8.119673 47.353846 8.042740 47.573077 7.966201 47.792308 7.890059 48.011538 7.814314 48.230769 7.738968 48.450000 7.664025 48.669231 7.589485 48.888462 7.515350 49.107692 7.441623 49.326923 7.368305 49.546154 7.295398 49.765385 7.222904 49.984615 7.150825 50.203846 7.079163 50.423077 7.007920 50.642308 6.937098 50.861538 6.866698 51.080769 6.796723 51.300000 6.727174 51.519231 6.658054 51.738462 6.589364 51.957692 6.521106 52.176923 6.453283 52.396154 6.385895 52.615385 6.318945 52.834615 6.252436 53.053846 6.186368 53.273077 6.120743 53.492308 6.055565 53.711538 5.990833 53.930769 5.926552 54.150000 5.862721 54.369231 5.799344 54.588462 5.736422 54.807692 5.673957 55.026923 5.611951 55.246154 5.550406 55.465385 5.489324 55.684615 5.428706 55.903846 5.368555 56.123077 5.308873 56.342308 5.249661 56.561538 5.190921 56.780769 5.132656 57.000000 5.074867 57.219231 5.017555 57.438462 4.960720 57.657692 4.904359 57.876923 4.848470 58.096154 4.793052 58.315385 4.738102 58.534615 4.683619 58.753846 4.629601 58.973077 4.576045 59.192308 4.522951 59.411538 4.470315 59.630769 4.418136 59.850000 4.366413 60.069231 4.315143 60.288462 4.264324 60.507692 4.213954 60.726923 4.164033 60.946154 4.114556 61.165385 4.065524 61.384615 4.016933 61.603846 3.968782 61.823077 3.921069 62.042308 3.873792 62.261538 3.826949 62.480769 3.780538 62.700000 3.734558 62.919231 3.689006 63.138462 3.643880 63.357692 3.599179 63.576923 3.554901 63.796154 3.511044 64.015385 3.467605 64.234615 3.424583 64.453846 3.381976 64.673077 3.339783 64.892308 3.298000 65.111538 3.256627 65.330769 3.215661 65.550000 3.175100 65.769231 3.134943 65.988462 3.095188 66.207692 3.055832 66.426923 3.016874 66.646154 2.978312 66.865385 2.940144 67.084615 2.902368 67.303846 2.864982 67.523077 2.827985 67.742308 2.791374 67.961538 2.755147 68.180769 2.719302 68.400000 2.683838 68.619231 2.648753 68.838462 2.614045 69.057692 2.579711 69.276923 2.545750 69.496154 2.512161 69.715385 2.478940 69.934615 2.446087 70.153846 2.413599 70.373077 2.381474 70.592308 2.349711 70.811538 2.318307 71.030769 2.287261 71.250000 2.256571 71.469231 2.226234 71.688462 2.196249 71.907692 2.166614 72.126923 2.137328 72.346154 2.108387 72.565385 2.079791 72.784615 2.051537 73.003846 2.023624 73.223077 1.996049 73.442308 1.968810 73.661538 1.941906 73.880769 1.915335 74.100000 1.889095 74.319231 1.863184 74.538462 1.837600 74.757692 1.812341 74.976923 1.787405 75.196154 1.762790 75.415385 1.738495 75.634615 1.714517 75.853846 1.690855 76.073077 1.667507 76.292308 1.644470 76.511538 1.621743 76.730769 1.599324 76.950000 1.577211 77.169231 1.555402 77.388462 1.533895 77.607692 1.512688 77.826923 1.491780 78.046154 1.471168 78.265385 1.450851 78.484615 1.430826 78.703846 1.411092 78.923077 1.391647 79.142308 1.372488 79.361538 1.353615 79.580769 1.335025 79.800000 1.316715 80.019231 1.298685 80.238462 1.280933 80.457692 1.263455 80.676923 1.246251 80.896154 1.229319 81.115385 1.212657 81.334615 1.196262 81.553846 1.180133 81.773077 1.164267 81.992308 1.148664 82.211538 1.133321 82.430769 1.118236 82.650000 1.103408 82.869231 1.088833 83.088462 1.074512 83.307692 1.060440 83.526923 1.046618 83.746154 1.033042 83.965385 1.019711 84.184615 1.006622 84.403846 0.993775 84.623077 0.981167 84.842308 0.968796 85.061538 0.956660 85.280769 0.944757 85.500000 0.933086 85.719231 0.921644 85.938462 0.910430 86.157692 0.899442 86.376923 0.888677 86.596154 0.878134 86.815385 0.867811 87.034615 0.857706 87.253846 0.847818 87.473077 0.838143 87.692308 0.828681 87.911538 0.819429 88.130769 0.810385 88.350000 0.801548 88.569231 0.792916 88.788462 0.784487 89.007692 0.776258 89.226923 0.768228 89.446154 0.760395 89.665385 0.752757 89.884615 0.745313 90.103846 0.738059 90.323077 0.730995 90.542308 0.724118 90.761538 0.717427 90.980769 0.710920 91.200000 0.704594 91.419231 0.698448 91.638462 0.692479 91.857692 0.686687 92.076923 0.681069 92.296154 0.675623 92.515385 0.670347 92.734615 0.665239 92.953846 0.660298 93.173077 0.655521 93.392308 0.650907 93.611538 0.646453 93.830769 0.642158 94.050000 0.638020 94.269231 0.634037 94.488462 0.630207 94.707692 0.626528 94.926923 0.622998 95.146154 0.619615 95.365385 0.616378 95.584615 0.613284 95.803846 0.610331 96.023077 0.607519 96.242308 0.604844 96.461538 0.602304 96.680769 0.599899 96.900000 0.597626 97.119231 0.595482 97.338462 0.593467 97.557692 0.591578 97.776923 0.589813 97.996154 0.588171 98.215385 0.586649 98.434615 0.585246 98.653846 0.583959 98.873077 0.582787 99.092308 0.581728 99.311538 0.580780 99.530769 0.579941 99.750000 0.579209 99.969231 0.578582 100.188462 0.578059 100.407692 0.577636 100.626923 0.577314 100.846154 0.577089 101.065385 0.576959 101.284615 0.576923 101.503846 0.576979 101.723077 0.577125 101.942308 0.577359 102.161538 0.577678 102.380769 0.578082 102.600000 0.578569 102.819231 0.579135 103.038462 0.579780 103.257692 0.580502 103.476923 0.581298 103.696154 0.582166 103.915385 0.583106 104.134615 0.584114 104.353846 0.585189 104.573077 0.586330 104.792308 0.587533 105.011538 0.588798 105.230769 0.590121 105.450000 0.591503 105.669231 0.592939 105.888462 0.594430 106.107692 0.595972 106.326923 0.597563 106.546154 0.599203 106.765385 0.600888 106.984615 0.602617 107.203846 0.604389 107.423077 0.606200 107.642308 0.608050 107.861538 0.609936 108.080769 0.611857 108.300000 0.613810 108.519231 0.615793 108.738462 0.617806 108.957692 0.619845 109.176923 0.621909 109.396154 0.623996 109.615385 0.626104 109.834615 0.628231 110.053846 0.630375 110.273077 0.632535 110.492308 0.634708 110.711538 0.636892 110.930769 0.639086 111.150000 0.641288 111.369231 0.643495 111.588462 0.645707 111.807692 0.647920" class="line reactive nofill" /></g></g><g class="titles" /><g transform="translate(76, 10)" class="plot overlay"><g class="series serie-0 color-0" /></g><g transform="translate(76, 10)" class="plot text-overlay"><g class="series serie-0 color-0" /></g><g transform="translate(76, 10)" class="plot tooltip-overlay"><g transform="translate(0 0)" style="opacity: 0" class="tooltip"><rect rx="0" ry="0" width="0" height="0" class="tooltip-box" /><g class="text" /></g></g></g></svg>