<?xml version='1.0' encoding='utf-8'?>
<svg xmlns="http://www.w3.org/2000/svg" id="chart-744241cf-f8ce-4576-a61f-9fd36b57431c" class="pygal-chart pygal-sparkline" viewBox="0 0 200 50" width="200" height="50"><!--Generated with pygal 3.0.4 (etree) ©Kozea 2012-2016 on 2024-05-10--><!--http://pygal.org--><!--http://github.com/Kozea/pygal--><defs><style type="text/css">#chart-744241cf-f8ce-4576-a61f-9fd36b57431c{-webkit-user-select:none;-webkit-font-smoothing:antialiased;font-family:Consolas,"Liberation Mono",Menlo,Courier,monospace}#chart-744241cf-f8ce-4576-a61f-9fd36b57431c .title{font-family:Consolas,"Liberation Mono",Menlo,Courier,monospace;font-size:16px}#chart-744241cf-f8ce-4576-a61f-9fd36b57431c .legends .legend text{font-family:Consolas,"Liberation Mono",Menlo,Courier,monospace;font-size:14px}#chart-744241cf-f8ce-4576-a61f-9fd36b57431c .axis text{font-family:Consolas,"Liberation Mono",Menlo,Courier,monospace;font-size:10px}#chart-744241cf-f8ce-4576-a61f-9fd36b57431c .axis text.major{font-family:Consolas,"Liberation Mono",Menlo,Courier,monospace;font-size:10px}#chart-744241cf-f8ce-4576-a61f-9fd36b57431c .text-overlay text.value{font-family:Consolas,"Liberation Mono",Menlo,Courier,monospace;font-size:16px}#chart-744241cf-f8ce-4576-a61f-9fd36b57431c .text-overlay text.label{font-family:Consolas,"Liberation Mono",Menlo,Courier,monospace;font-size:10px}#chart-744241cf-f8ce-4576-a61f-9fd36b57431c .tooltip{font-family:Consolas,"Liberation Mono",Menlo,Courier,monospace;font-size:14px}#chart-744241cf-f8ce-4576-a61f-9fd36b57431c text.no_data{font-family:Consolas,"Liberation Mono",Menlo,Courier,monospace;font-size:64px}
#chart-744241cf-f8ce-4576-a61f-9fd36b57431c{background-color:rgba(249,249,249,1)}#chart-744241cf-f8ce-4576-a61f-9fd36b57431c path,#chart-744241cf-f8ce-4576-a61f-9fd36b57431c line,#chart-744241cf-f8ce-4576-a61f-9fd36b57431c rect,#chart-744241cf-f8ce-4576-a61f-9fd36b57431c circle{-webkit-transition:150ms;-moz-transition:150ms;transition:150ms}#chart-744241cf-f8ce-4576-a61f-9fd36b57431c .graph &gt; .background{fill:rgba(249,249,249,1)}#chart-744241cf-f8ce-4576-a61f-9fd36b57431c .plot &gt; .background{fill:rgba(255,255,255,1)}#chart-744241cf-f8ce-4576-a61f-9fd36b57431c .graph{fill:rgba(0,0,0,.87)}#chart-744241cf-f8ce-4576-a61f-9fd36b57431c text.no_data{fill:rgba(0,0,0,1)}#chart-744241cf-f8ce-4576-a61f-9fd36b57431c .title{fill:rgba(0,0,0,1)}#chart-744241cf-f8ce-4576-a61f-9fd36b57431c .legends .legend text{fill:rgba(0,0,0,.87)}#chart-744241cf-f8ce-4576-a61f-9fd36b57431c .legends .legend:hover text{fill:rgba(0,0,0,1)}#chart-744241cf-f8ce-4576-a61f-9fd36b57431c .axis .line{stroke:rgba(0,0,0,1)}#chart-744241cf-f8ce-4576-a61f-9fd36b57431c .axis .guide.line{stroke:rgba(0,0,0,.54)}#chart-744241cf-f8ce-4576-a61f-9fd36b57431c .axis .major.line{stroke:rgba(0,0,0,.87)}#chart-744241cf-f8ce-4576-a61f-9fd36b57431c .axis text.major{fill:rgba(0,0,0,1)}#chart-744241cf-f8ce-4576-a61f-9fd36b57431c .axis.y .guides:hover .guide.line,#chart-744241cf-f8ce-4576-a61f-9fd36b57431c .line-graph .axis.x .guides:hover .guide.line,#chart-744241cf-f8ce-4576-a61f-9fd36b57431c .stackedline-graph .axis.x .guides:hover .guide.line,#chart-744241cf-f8ce-4576-a61f-9fd36b57431c .xy-graph .axis.x .guides:hover .guide.line{stroke:rgba(0,0,0,1)}#chart-744241cf-f8ce-4576-a61f-9fd36b57431c .axis .guides:hover text{fill:rgba(0,0,0,1)}#chart-744241cf-f8ce-4576-a61f-9fd36b57431c .reactive{fill-opacity:.7;stroke-opacity:.8;stroke-width:1}#chart-744241cf-f8ce-4576-a61f-9fd36b57431c .ci{stroke:rgba(0,0,0,.87)}#chart-744241cf-f8ce-4576-a61f-9fd36b57431c .reactive.active,#chart-744241cf-f8ce-4576-a61f-9fd36b57431c .active .reactive{fill-opacity:.8;stroke-opacity:.9;stroke-width:4}#chart-744241cf-f8ce-4576-a61f-9fd36b57431c .ci .reactive.active{stroke-width:1.5}#chart-744241cf-f8ce-4576-a61f-9fd36b57431c .series text{fill:rgba(0,0,0,1)}#chart-744241cf-f8ce-4576-a61f-9fd36b57431c .tooltip rect{fill:rgba(255,255,255,1);stroke:rgba(0,0,0,1);-webkit-transition:opacity 150ms;-moz-transition:opacity 150ms;transition:opacity 150ms}#chart-744241cf-f8ce-4576-a61f-9fd36b57431c .tooltip .label{fill:rgba(0,0,0,.87)}#chart-744241cf-f8ce-4576-a61f-9fd36b57431c .tooltip .label{fill:rgba(0,0,0,.87)}#chart-744241cf-f8ce-4576-a61f-9fd36b57431c .tooltip .legend{font-size:.8em;fill:rgba(0,0,0,.54)}#chart-744241cf-f8ce-4576-a61f-9fd36b57431c .tooltip .x_label{font-size:.6em;fill:rgba(0,0,0,1)}#chart-744241cf-f8ce-4576-a61f-9fd36b57431c .tooltip .xlink{font-size:.5em;text-decoration:underline}#chart-744241cf-f8ce-4576-a61f-9fd36b57431c .tooltip .value{font-size:1.5em}#chart-744241cf-f8ce-4576-a61f-9fd36b57431c .bound{font-size:.5em}#chart-744241cf-f8ce-4576-a61f-9fd36b57431c .max-value{font-size:.75em;fill:rgba(0,0,0,.54)}#chart-744241cf-f8ce-4576-a61f-9fd36b57431c .map-element{fill:rgba(255,255,255,1);stroke:rgba(0,0,0,.54) !important}#chart-744241cf-f8ce-4576-a61f-9fd36b57431c .map-element .reactive{fill-opacity:inherit;stroke-opacity:inherit}#chart-744241cf-f8ce-4576-a61f-9fd36b57431c .color-0,#chart-744241cf-f8ce-4576-a61f-9fd36b57431c .color-0 a:visited{stroke:#F44336;fill:#F44336}#chart-744241cf-f8ce-4576-a61f-9fd36b57431c .text-overlay .color-0 text{fill:black}
#chart-744241cf-f8ce-4576-a61f-9fd36b57431c text.no_data{text-anchor:middle}#chart-744241cf-f8ce-4576-a61f-9fd36b57431c .guide.line{fill:none}#chart-744241cf-f8ce-4576-a61f-9fd36b57431c .centered{text-anchor:middle}#chart-744241cf-f8ce-4576-a61f-9fd36b57431c .title{text-anchor:middle}#chart-744241cf-f8ce-4576-a61f-9fd36b57431c .legends .legend text{fill-opacity:1}#chart-744241cf-f8ce-4576-a61f-9fd36b57431c .axis.x text{text-anchor:middle}#chart-744241cf-f8ce-4576-a61f-9fd36b57431c .axis.x:not(.web) text[transform]{text-anchor:start}#chart-744241cf-f8ce-4576-a61f-9fd36b57431c .axis.x:not(.web) text[transform].backwards{text-anchor:end}#chart-744241cf-f8ce-4576-a61f-9fd36b57431c .axis.y text{text-anchor:end}#chart-744241cf-f8ce-4576-a61f-9fd36b57431c .axis.y text[transform].backwards{text-anchor:start}#chart-744241cf-f8ce-4576-a61f-9fd36b57431c .axis.y2 text{text-anchor:start}#chart-744241cf-f8ce-4576-a61f-9fd36b57431c .axis.y2 text[transform].backwards{text-anchor:end}#chart-744241cf-f8ce-4576-a61f-9fd36b57431c .axis .guide.line{stroke-dasharray:4,4;stroke:black}#chart-744241cf-f8ce-4576-a61f-9fd36b57431c .axis .major.guide.line{stroke-dasharray:6,6;stroke:black}#chart-744241cf-f8ce-4576-a61f-9fd36b57431c .horizontal .axis.y .guide.line,#chart-744241cf-f8ce-4576-a61f-9fd36b57431c .horizontal .axis.y2 .guide.line,#chart-744241cf-f8ce-4576-a61f-9fd36b57431c .vertical .axis.x .guide.line{opacity:0}#chart-744241cf-f8ce-4576-a61f-9fd36b57431c .horizontal .axis.always_show .guide.line,#chart-744241cf-f8ce-4576-a61f-9fd36b57431c .vertical .axis.always_show .guide.line{opacity:1 !important}#chart-744241cf-f8ce-4576-a61f-9fd36b57431c .axis.y .guides:hover .guide.line,#chart-744241cf-f8ce-4576-a61f-9fd36b57431c .axis.y2 .guides:hover .guide.line,#chart-744241cf-f8ce-4576-a61f-9fd36b57431c .axis.x .guides:hover .guide.line{opacity:1}#chart-744241cf-f8ce-4576-a61f-9fd36b57431c .axis .guides:hover text{opacity:1}#chart-744241cf-f8ce-4576-a61f-9fd36b57431c .nofill{fill:none}#chart-744241cf-f8ce-4576-a61f-9fd36b57431c .subtle-fill{fill-opacity:.2}#chart-744241cf-f8ce-4576-a61f-9fd36b57431c .dot{stroke-width:1px;fill-opacity:1;stroke-opacity:1}#chart-744241cf-f8ce-4576-a61f-9fd36b57431c .dot.active{stroke-width:5px}#chart-744241cf-f8ce-4576-a61f-9fd36b57431c .dot.negative{fill:transparent}#chart-744241cf-f8ce-4576-a61f-9fd36b57431c text,#chart-744241cf-f8ce-4576-a61f-9fd36b57431c tspan{stroke:none !important}#chart-744241cf-f8ce-4576-a61f-9fd36b57431c .series text.active{opacity:1}#chart-744241cf-f8ce-4576-a61f-9fd36b57431c .tooltip rect{fill-opacity:.95;stroke-width:.5}#chart-744241cf-f8ce-4576-a61f-9fd36b57431c .tooltip text{fill-opacity:1}#chart-744241cf-f8ce-4576-a61f-9fd36b57431c .showable{visibility:hidden}#chart-744241cf-f8ce-4576-a61f-9fd36b57431c .showable.shown{visibility:visible}#chart-744241cf-f8ce-4576-a61f-9fd36b57431c .gauge-background{fill:rgba(229,229,229,1);stroke:none}#chart-744241cf-f8ce-4576-a61f-9fd36b57431c .bg-lines{stroke:rgba(249,249,249,1);stroke-width:2px}</style><script type="text/javascript">window.pygal = window.pygal || {};window.pygal.config = window.pygal.config || {};window.pygal.config['744241cf-f8ce-4576-a61f-9fd36b57431c'] = {"allow_interruptions": false, "box_mode": "extremes", "classes": ["pygal-chart", "pygal-sparkline"], "css": ["file://style.css", "file://graph.css"], "defs": [], "disable_xml_declaration": false, "dots_size": 2.5, "dynamic_print_values": false, "explicit_size": true, "fill": false, "force_uri_protocol": "https", "formatter": null, "half_pie": false, "height": 50, "include_x_axis": false, "inner_radius": 0, "interpolate": "cubic", "interpolation_parameters": {}, "interpolation_precision": 250, "inverse_y_axis": false, "js": [], "legend_at_bottom": false, "legend_at_bottom_columns": null, "legend_box_size": 12, "logarithmic": false, "margin": 10, "margin_bottom": null, "margin_left": null, "margin_right": null, "margin_top": null, "max_scale": 2, "min_scale": 1, "missing_value_fill_truncation": "x", "no_data_text": "", "no_prefix": false, "order_min": null, "pretty_print": false, "print_labels": false, "print_values": false, "print_values_position": "center", "print_zeroes": true, "range": null, "rounded_bars": null, "secondary_range": null, "show_dots": false, "show_legend": false, "show_minor_x_labels": true, "show_minor_y_labels": true, "show_only_major_dots": false, "show_x_guides": false, "show_x_labels": false, "show_y_guides": true, "show_y_labels": true, "spacing": 0, "stack_from_top": false, "strict": false, "stroke": true, "stroke_style": null, "style": {"background": "rgba(249, 249, 249, 1)", "ci_colors": [], "colors": ["#F44336", "#3F51B5", "#009688", "#FFC107", "#FF5722", "#9C27B0", "#03A9F4", "#8BC34A", "#FF9800", "#E91E63", "#2196F3", "#4CAF50", "#FFEB3B", "#673AB7", "#00BCD4", "#CDDC39", "#9E9E9E", "#607D8B"], "dot_opacity": "1", "font_family": "Consolas, \"Liberation Mono\", Menlo, Courier, monospace", "foreground": "rgba(0, 0, 0, .87)", "foreground_strong": "rgba(0, 0, 0, 1)", "foreground_subtle": "rgba(0, 0, 0, .54)", "guide_stroke_color": "black", "guide_stroke_dasharray": "4,4", "label_font_family": "Consolas, \"Liberation Mono\", Menlo, Courier, monospace", "label_font_size": 10, "legend_font_family": "Consolas, \"Liberation Mono\", Menlo, Courier, monospace", "legend_font_size": 14, "major_guide_stroke_color": "black", "major_guide_stroke_dasharray": "6,6", "major_label_font_family": "Consolas, \"Liberation Mono\", Menlo, Courier, monospace", "major_label_font_size": 10, "no_data_font_family": "Consolas, \"Liberation Mono\", Menlo, Courier, monospace", "no_data_font_size": 64, "opacity": ".7", "opacity_hover": ".8", "plot_background": "rgba(255, 255, 255, 1)", "stroke_opacity": ".8", "stroke_opacity_hover": ".9", "stroke_width": "1", "stroke_width_hover": "4", "title_font_family": "Consolas, \"Liberation Mono\", Menlo, Courier, monospace", "title_font_size": 16, "tooltip_font_family": "Consolas, \"Liberation Mono\", Menlo, Courier, monospace", "tooltip_font_size": 14, "transition": "150ms", "value_background": "rgba(229, 229, 229, 1)", "value_colors": [], "value_font_family": "Consolas, \"Liberation Mono\", Menlo, Courier, monospace", "value_font_size": 16, "value_label_font_family": "Consolas, \"Liberation Mono\", Menlo, Courier, monospace", "value_label_font_size": 10}, "title": null, "tooltip_border_radius": 0, "tooltip_fancy_mode": true, "truncate_label": null, "truncate_legend": null, "width": 200, "x_label_rotation": 0, "x_labels": ["2024/5", "2024/4", "2024/3"], "x_labels_major": null, "x_labels_major_count": null, "x_labels_major_every": null, "x_title": null, "xrange": null, "y_label_rotation": 0, "y_labels": null, "y_labels_major": null, "y_labels_major_count": null, "y_labels_major_every": null, "y_title": null, "zero": 0, "legends": [""]}</script></defs><title>Pygal</title><g class="graph line-graph vertical"><rect x="0" y="0" width="200" height="50" class="background" /><g transform="translate(76, 10)" class="plot"><rect x="0" y="0" width="114.0" height="30" class="background" /><g class="axis y always_show"><path d="M0.000000 30.000000 h114.000000" class="line" /><g class="guides"><path d="M0.000000 29.423077 h114.000000" class="guide line" /><text x="-5" y="32.92307692307692" class="">2</text><title>2</title></g><g class="guides"><path d="M0.000000 0.576923 h114.000000" class="guide line" /><text x="-5" y="4.076923076923073" class="">19.15586014</text><title>19.15586014</title></g></g><g class="series serie-0 color-0"><path d="M2.192308 29.423077 L2.411538 29.263343 2.630769 29.103614 2.850000 28.943893 3.069231 28.784185 3.288462 28.624495 3.507692 28.464826 3.726923 28.305184 3.946154 28.145572 4.165385 27.985995 4.384615 27.826457 4.603846 27.666963 4.823077 27.507517 5.042308 27.348123 5.261538 27.188786 5.480769 27.029509 5.700000 26.870298 5.919231 26.711157 6.138462 26.552090 6.357692 26.393102 6.576923 26.234196 6.796154 26.075377 7.015385 25.916650 7.234615 25.758019 7.453846 25.599488 7.673077 25.441061 7.892308 25.282744 8.111538 25.124540 8.330769 24.966453 8.550000 24.808489 8.769231 24.650651 8.988462 24.492943 9.207692 24.335371 9.426923 24.177938 9.646154 24.020650 9.865385 23.863509 10.084615 23.706521 10.303846 23.549689 10.523077 23.393019 10.742308 23.236515 10.961538 23.080180 11.180769 22.924020 11.400000 22.768039 11.619231 22.612240 11.838462 22.456629 12.057692 22.301210 12.276923 22.145987 12.496154 21.990964 12.715385 21.836147 12.934615 21.681538 13.153846 21.527143 13.373077 21.372966 13.592308 21.219011 13.811538 21.065283 14.030769 20.911785 14.250000 20.758524 14.469231 20.605501 14.688462 20.452723 14.907692 20.300194 15.126923 20.147917 15.346154 19.995897 15.565385 19.844138 15.784615 19.692646 16.003846 19.541424 16.223077 19.390476 16.442308 19.239807 16.661538 19.089422 16.880769 18.939324 17.100000 18.789518 17.319231 18.640009 17.538462 18.490800 17.757692 18.341896 17.976923 18.193302 18.196154 18.045022 18.415385 17.897059 18.634615 17.749419 18.853846 17.602107 19.073077 17.455125 19.292308 17.308479 19.511538 17.162173 19.730769 17.016211 19.950000 16.870598 20.169231 16.725337 20.388462 16.580434 20.607692 16.435893 20.826923 16.291718 21.046154 16.147914 21.265385 16.004484 21.484615 15.861434 21.703846 15.718767 21.923077 15.576487 22.142308 15.434600 22.361538 15.293110 22.580769 15.152021 22.800000 15.011337 23.019231 14.871062 23.238462 14.731202 23.457692 14.591760 23.676923 14.452741 23.896154 14.314149 24.115385 14.175988 24.334615 14.038263 24.553846 13.900979 24.773077 13.764139 24.992308 13.627747 25.211538 13.491809 25.430769 13.356329 25.650000 13.221311 25.869231 13.086759 26.088462 12.952677 26.307692 12.819071 26.526923 12.685944 26.746154 12.553301 26.965385 12.421146 27.184615 12.289484 27.403846 12.158318 27.623077 12.027654 27.842308 11.897495 28.061538 11.767846 28.280769 11.638711 28.500000 11.510095 28.719231 11.382002 28.938462 11.254436 29.157692 11.127402 29.376923 11.000904 29.596154 10.874946 29.815385 10.749534 30.034615 10.624670 30.253846 10.500360 30.473077 10.376607 30.692308 10.253417 30.911538 10.130794 31.130769 10.008741 31.350000 9.887264 31.569231 9.766366 31.788462 9.646052 32.007692 9.526327 32.226923 9.407195 32.446154 9.288659 32.665385 9.170725 32.884615 9.053397 33.103846 8.936679 33.323077 8.820575 33.542308 8.705090 33.761538 8.590229 33.980769 8.475995 34.200000 8.362393 34.419231 8.249427 34.638462 8.137102 34.857692 8.025422 35.076923 7.914391 35.296154 7.804015 35.515385 7.694296 35.734615 7.585239 35.953846 7.476850 36.173077 7.369131 36.392308 7.262089 36.611538 7.155726 36.830769 7.050047 37.050000 6.945057 37.269231 6.840760 37.488462 6.737160 37.707692 6.634262 37.926923 6.532069 38.146154 6.430588 38.365385 6.329821 38.584615 6.229773 38.803846 6.130448 39.023077 6.031852 39.242308 5.933987 39.461538 5.836860 39.680769 5.740473 39.900000 5.644831 40.119231 5.549939 40.338462 5.455801 40.557692 5.362421 40.776923 5.269804 40.996154 5.177954 41.215385 5.086875 41.434615 4.996572 41.653846 4.907049 41.873077 4.818311 42.092308 4.730362 42.311538 4.643206 42.530769 4.556847 42.750000 4.471290 42.969231 4.386540 43.188462 4.302600 43.407692 4.219475 43.626923 4.137169 43.846154 4.055688 44.065385 3.975034 44.284615 3.895212 44.503846 3.816228 44.723077 3.738084 44.942308 3.660787 45.161538 3.584339 45.380769 3.508745 45.600000 3.434009 45.819231 3.360137 46.038462 3.287132 46.257692 3.214999 46.476923 3.143741 46.696154 3.073364 46.915385 3.003872 47.134615 2.935269 47.353846 2.867559 47.573077 2.800747 47.792308 2.734837 48.011538 2.669834 48.230769 2.605741 48.450000 2.542564 48.669231 2.480306 48.888462 2.418973 49.107692 2.358567 49.326923 2.299094 49.546154 2.240559 49.765385 2.182964 49.984615 2.126316 50.203846 2.070617 50.423077 2.015873 50.642308 1.962088 50.861538 1.909266 51.080769 1.857411 51.300000 1.806529 51.519231 1.756622 51.738462 1.707696 51.957692 1.659756 52.176923 1.612804 52.396154 1.566846 52.615385 1.521886 52.834615 1.477929 53.053846 1.434978 53.273077 1.393039 53.492308 1.352115 53.711538 1.312210 53.930769 1.273330 54.150000 1.235479 54.369231 1.198660 54.588462 1.162879 54.807692 1.128139 55.026923 1.094445 55.246154 1.061802 55.465385 1.030213 55.684615 0.999683 55.903846 0.970217 56.123077 0.941818 56.342308 0.914492 56.561538 0.888242 56.780769 0.863073 57.000000 0.838989 57.219231 0.815993 57.438462 0.794083 57.657692 0.773253 57.876923 0.753500 58.096154 0.734818 58.315385 0.717205 58.534615 0.700655 58.753846 0.685164 58.973077 0.670728 59.192308 0.657342 59.411538 0.645002 59.630769 0.633704 59.850000 0.623443 60.069231 0.614215 60.288462 0.606015 60.507692 0.598840 60.726923 0.592684 60.946154 0.587544 61.165385 0.583415 61.384615 0.580293 61.603846 0.578173 61.823077 0.577051 62.042308 0.576923 62.261538 0.577784 62.480769 0.579630 62.700000 0.582457 62.919231 0.586260 63.138462 0.591035 63.357692 0.596777 63.576923 0.603483 63.796154 0.611147 64.015385 0.619766 64.234615 0.629335 64.453846 0.639850 64.673077 0.651306 64.892308 0.663699 65.111538 0.677025 65.330769 0.691279 65.550000 0.706457 65.769231 0.722554 65.988462 0.739567 66.207692 0.757491 66.426923 0.776321 66.646154 0.796053 66.865385 0.816683 67.084615 0.838207 67.303846 0.860619 67.523077 0.883917 67.742308 0.908095 67.961538 0.933148 68.180769 0.959074 68.400000 0.985866 68.619231 1.013522 68.838462 1.042036 69.057692 1.071405 69.276923 1.101623 69.496154 1.132686 69.715385 1.164591 69.934615 1.197333 70.153846 1.230907 70.373077 1.265309 70.592308 1.300535 70.811538 1.336580 71.030769 1.373440 71.250000 1.411111 71.469231 1.449588 71.688462 1.488867 71.907692 1.528944 72.126923 1.569814 72.346154 1.611472 72.565385 1.653915 72.784615 1.697139 73.003846 1.741138 73.223077 1.785908 73.442308 1.831445 73.661538 1.877745 73.880769 1.924804 74.100000 1.972616 74.319231 2.021178 74.538462 2.070486 74.757692 2.120534 74.976923 2.171319 75.196154 2.222835 75.415385 2.275080 75.634615 2.328048 75.853846 2.381736 76.073077 2.436138 76.292308 2.491250 76.511538 2.547069 76.730769 2.603589 76.950000 2.660806 77.169231 2.718717 77.388462 2.777316 77.607692 2.836599 77.826923 2.896562 78.046154 2.957201 78.265385 3.018511 78.484615 3.080488 78.703846 3.143127 78.923077 3.206424 79.142308 3.270375 79.361538 3.334975 79.580769 3.400221 79.800000 3.466107 80.019231 3.532629 80.238462 3.599783 80.457692 3.667565 80.676923 3.735970 80.896154 3.804994 81.115385 3.874633 81.334615 3.944881 81.553846 4.015736 81.773077 4.087191 81.992308 4.159244 82.211538 4.231890 82.430769 4.305124 82.650000 4.378942 82.869231 4.453340 83.088462 4.528312 83.307692 4.603856 83.526923 4.679967 83.746154 4.756639 83.965385 4.833870 84.184615 4.911654 84.403846 4.989987 84.623077 5.068865 84.842308 5.148283 85.061538 5.228238 85.280769 5.308724 85.500000 5.389737 85.719231 5.471274 85.938462 5.553329 86.157692 5.635898 86.376923 5.718977 86.596154 5.802562 86.815385 5.886648 87.034615 5.971231 87.253846 6.056306 87.473077 6.141870 87.692308 6.227917 87.911538 6.314443 88.130769 6.401445 88.350000 6.488917 88.569231 6.576856 88.788462 6.665257 89.007692 6.754115 89.226923 6.843426 89.446154 6.933187 89.665385 7.023392 89.884615 7.114037 90.103846 7.205118 90.323077 7.296630 90.542308 7.388570 90.761538 7.480932 90.980769 7.573713 91.200000 7.666908 91.419231 7.760512 91.638462 7.854522 91.857692 7.948932 92.076923 8.043739 92.296154 8.138939 92.515385 8.234526 92.734615 8.330497 92.953846 8.426847 93.173077 8.523572 93.392308 8.620667 93.611538 8.718129 93.830769 8.815952 94.050000 8.914133 94.269231 9.012666 94.488462 9.111548 94.707692 9.210775 94.926923 9.310341 95.146154 9.410243 95.365385 9.510476 95.584615 9.611037 95.803846 9.711919 96.023077 9.813120 96.242308 9.914635 96.461538 10.016459 96.680769 10.118588 96.900000 10.221017 97.119231 10.323744 97.338462 10.426762 97.557692 10.530068 97.776923 10.633657 97.996154 10.737525 98.215385 10.841667 98.434615 10.946080 98.653846 11.050759 98.873077 11.155699 99.092308 11.260896 99.311538 11.366346 99.530769 11.472045 99.750000 11.577987 99.969231 11.684169 100.188462 11.790587 100.407692 11.897235 100.626923 12.004111 100.846154 12.111208 101.065385 12.218523 101.284615 12.326052 101.503846 12.433791 101.723077 12.541734 101.942308 12.649877 102.161538 12.758216 102.380769 12.866748 102.600000 12.975467 102.819231 13.084368 103.038462 13.193449 103.257692 13.302704 103.476923 13.412128 103.696154 13.521719 103.915385 13.631470 104.134615 13.741379 104.353846 13.851440 104.573077 13.961649 104.792308 14.072002 105.011538 14.182495 105.230769 14.293122 105.450000 14.403881 105.669231 14.514765 105.888462 14.625772 106.107692 14.736897 106.326923 14.848135 106.546154 14.959481 106.765385 15.070933 106.984615 15.182484 107.203846 15.294132 107.423077 15.405871 107.642308 15.517697 107.861538 15.629606 108.080769 15.741593 108.300000 15.853655 108.519231 15.965786 108.738462 16.077982 108.957692 16.190240 109.176923 16.302554 109.396154 16.414921 109.615385 16.527335 109.834615 16.639793 110.053846 16.752291 110.273077 16.864823 110.492308 16.977386 110.711538 17.089974 110.930769 17.202585 111.150000 17.315213 111.369231 17.427854 111.588462 17.540504 111.807692 17.653158" class="line reactive nofill" /></g></g><g class="titles" /><g transform="translate(76, 10)" class="plot overlay"><g class="series serie-0 color-0" /></g><g transform="translate(76, 10)" class="plot text-overlay"><g class="series serie-0 color-0" /></g><g transform="translate(76, 10)" class="plot tooltip-overlay"><g transform="translate(0 0)" style="opacity: 0" class="tooltip"><rect rx="0" ry="0" width="0" height="0" class="tooltip-box" /><g class="text" /></g></g></g></svg>