<?xml version='1.0' encoding='utf-8'?>
<svg xmlns="http://www.w3.org/2000/svg" id="chart-a50ab1bf-134b-4785-ad12-ea0aabf09484" class="pygal-chart pygal-sparkline" viewBox="0 0 200 50" width="200" height="50"><!--Generated with pygal 3.0.5 (etree) ©Kozea 2012-2016 on 2024-10-27--><!--http://pygal.org--><!--http://github.com/Kozea/pygal--><defs><style type="text/css">#chart-a50ab1bf-134b-4785-ad12-ea0aabf09484{-webkit-user-select:none;-webkit-font-smoothing:antialiased;font-family:Consolas,"Liberation Mono",Menlo,Courier,monospace}#chart-a50ab1bf-134b-4785-ad12-ea0aabf09484 .title{font-family:Consolas,"Liberation Mono",Menlo,Courier,monospace;font-size:16px}#chart-a50ab1bf-134b-4785-ad12-ea0aabf09484 .legends .legend text{font-family:Consolas,"Liberation Mono",Menlo,Courier,monospace;font-size:14px}#chart-a50ab1bf-134b-4785-ad12-ea0aabf09484 .axis text{font-family:Consolas,"Liberation Mono",Menlo,Courier,monospace;font-size:10px}#chart-a50ab1bf-134b-4785-ad12-ea0aabf09484 .axis text.major{font-family:Consolas,"Liberation Mono",Menlo,Courier,monospace;font-size:10px}#chart-a50ab1bf-134b-4785-ad12-ea0aabf09484 .text-overlay text.value{font-family:Consolas,"Liberation Mono",Menlo,Courier,monospace;font-size:16px}#chart-a50ab1bf-134b-4785-ad12-ea0aabf09484 .text-overlay text.label{font-family:Consolas,"Liberation Mono",Menlo,Courier,monospace;font-size:10px}#chart-a50ab1bf-134b-4785-ad12-ea0aabf09484 .tooltip{font-family:Consolas,"Liberation Mono",Menlo,Courier,monospace;font-size:14px}#chart-a50ab1bf-134b-4785-ad12-ea0aabf09484 text.no_data{font-family:Consolas,"Liberation Mono",Menlo,Courier,monospace;font-size:64px}
#chart-a50ab1bf-134b-4785-ad12-ea0aabf09484{background-color:rgba(249,249,249,1)}#chart-a50ab1bf-134b-4785-ad12-ea0aabf09484 path,#chart-a50ab1bf-134b-4785-ad12-ea0aabf09484 line,#chart-a50ab1bf-134b-4785-ad12-ea0aabf09484 rect,#chart-a50ab1bf-134b-4785-ad12-ea0aabf09484 circle{-webkit-transition:150ms;-moz-transition:150ms;transition:150ms}#chart-a50ab1bf-134b-4785-ad12-ea0aabf09484 .graph &gt; .background{fill:rgba(249,249,249,1)}#chart-a50ab1bf-134b-4785-ad12-ea0aabf09484 .plot &gt; .background{fill:rgba(255,255,255,1)}#chart-a50ab1bf-134b-4785-ad12-ea0aabf09484 .graph{fill:rgba(0,0,0,.87)}#chart-a50ab1bf-134b-4785-ad12-ea0aabf09484 text.no_data{fill:rgba(0,0,0,1)}#chart-a50ab1bf-134b-4785-ad12-ea0aabf09484 .title{fill:rgba(0,0,0,1)}#chart-a50ab1bf-134b-4785-ad12-ea0aabf09484 .legends .legend text{fill:rgba(0,0,0,.87)}#chart-a50ab1bf-134b-4785-ad12-ea0aabf09484 .legends .legend:hover text{fill:rgba(0,0,0,1)}#chart-a50ab1bf-134b-4785-ad12-ea0aabf09484 .axis .line{stroke:rgba(0,0,0,1)}#chart-a50ab1bf-134b-4785-ad12-ea0aabf09484 .axis .guide.line{stroke:rgba(0,0,0,.54)}#chart-a50ab1bf-134b-4785-ad12-ea0aabf09484 .axis .major.line{stroke:rgba(0,0,0,.87)}#chart-a50ab1bf-134b-4785-ad12-ea0aabf09484 .axis text.major{fill:rgba(0,0,0,1)}#chart-a50ab1bf-134b-4785-ad12-ea0aabf09484 .axis.y .guides:hover .guide.line,#chart-a50ab1bf-134b-4785-ad12-ea0aabf09484 .line-graph .axis.x .guides:hover .guide.line,#chart-a50ab1bf-134b-4785-ad12-ea0aabf09484 .stackedline-graph .axis.x .guides:hover .guide.line,#chart-a50ab1bf-134b-4785-ad12-ea0aabf09484 .xy-graph .axis.x .guides:hover .guide.line{stroke:rgba(0,0,0,1)}#chart-a50ab1bf-134b-4785-ad12-ea0aabf09484 .axis .guides:hover text{fill:rgba(0,0,0,1)}#chart-a50ab1bf-134b-4785-ad12-ea0aabf09484 .reactive{fill-opacity:.7;stroke-opacity:.8;stroke-width:1}#chart-a50ab1bf-134b-4785-ad12-ea0aabf09484 .ci{stroke:rgba(0,0,0,.87)}#chart-a50ab1bf-134b-4785-ad12-ea0aabf09484 .reactive.active,#chart-a50ab1bf-134b-4785-ad12-ea0aabf09484 .active .reactive{fill-opacity:.8;stroke-opacity:.9;stroke-width:4}#chart-a50ab1bf-134b-4785-ad12-ea0aabf09484 .ci .reactive.active{stroke-width:1.5}#chart-a50ab1bf-134b-4785-ad12-ea0aabf09484 .series text{fill:rgba(0,0,0,1)}#chart-a50ab1bf-134b-4785-ad12-ea0aabf09484 .tooltip rect{fill:rgba(255,255,255,1);stroke:rgba(0,0,0,1);-webkit-transition:opacity 150ms;-moz-transition:opacity 150ms;transition:opacity 150ms}#chart-a50ab1bf-134b-4785-ad12-ea0aabf09484 .tooltip .label{fill:rgba(0,0,0,.87)}#chart-a50ab1bf-134b-4785-ad12-ea0aabf09484 .tooltip .label{fill:rgba(0,0,0,.87)}#chart-a50ab1bf-134b-4785-ad12-ea0aabf09484 .tooltip .legend{font-size:.8em;fill:rgba(0,0,0,.54)}#chart-a50ab1bf-134b-4785-ad12-ea0aabf09484 .tooltip .x_label{font-size:.6em;fill:rgba(0,0,0,1)}#chart-a50ab1bf-134b-4785-ad12-ea0aabf09484 .tooltip .xlink{font-size:.5em;text-decoration:underline}#chart-a50ab1bf-134b-4785-ad12-ea0aabf09484 .tooltip .value{font-size:1.5em}#chart-a50ab1bf-134b-4785-ad12-ea0aabf09484 .bound{font-size:.5em}#chart-a50ab1bf-134b-4785-ad12-ea0aabf09484 .max-value{font-size:.75em;fill:rgba(0,0,0,.54)}#chart-a50ab1bf-134b-4785-ad12-ea0aabf09484 .map-element{fill:rgba(255,255,255,1);stroke:rgba(0,0,0,.54) !important}#chart-a50ab1bf-134b-4785-ad12-ea0aabf09484 .map-element .reactive{fill-opacity:inherit;stroke-opacity:inherit}#chart-a50ab1bf-134b-4785-ad12-ea0aabf09484 .color-0,#chart-a50ab1bf-134b-4785-ad12-ea0aabf09484 .color-0 a:visited{stroke:#F44336;fill:#F44336}#chart-a50ab1bf-134b-4785-ad12-ea0aabf09484 .text-overlay .color-0 text{fill:black}
#chart-a50ab1bf-134b-4785-ad12-ea0aabf09484 text.no_data{text-anchor:middle}#chart-a50ab1bf-134b-4785-ad12-ea0aabf09484 .guide.line{fill:none}#chart-a50ab1bf-134b-4785-ad12-ea0aabf09484 .centered{text-anchor:middle}#chart-a50ab1bf-134b-4785-ad12-ea0aabf09484 .title{text-anchor:middle}#chart-a50ab1bf-134b-4785-ad12-ea0aabf09484 .legends .legend text{fill-opacity:1}#chart-a50ab1bf-134b-4785-ad12-ea0aabf09484 .axis.x text{text-anchor:middle}#chart-a50ab1bf-134b-4785-ad12-ea0aabf09484 .axis.x:not(.web) text[transform]{text-anchor:start}#chart-a50ab1bf-134b-4785-ad12-ea0aabf09484 .axis.x:not(.web) text[transform].backwards{text-anchor:end}#chart-a50ab1bf-134b-4785-ad12-ea0aabf09484 .axis.y text{text-anchor:end}#chart-a50ab1bf-134b-4785-ad12-ea0aabf09484 .axis.y text[transform].backwards{text-anchor:start}#chart-a50ab1bf-134b-4785-ad12-ea0aabf09484 .axis.y2 text{text-anchor:start}#chart-a50ab1bf-134b-4785-ad12-ea0aabf09484 .axis.y2 text[transform].backwards{text-anchor:end}#chart-a50ab1bf-134b-4785-ad12-ea0aabf09484 .axis .guide.line{stroke-dasharray:4,4;stroke:black}#chart-a50ab1bf-134b-4785-ad12-ea0aabf09484 .axis .major.guide.line{stroke-dasharray:6,6;stroke:black}#chart-a50ab1bf-134b-4785-ad12-ea0aabf09484 .horizontal .axis.y .guide.line,#chart-a50ab1bf-134b-4785-ad12-ea0aabf09484 .horizontal .axis.y2 .guide.line,#chart-a50ab1bf-134b-4785-ad12-ea0aabf09484 .vertical .axis.x .guide.line{opacity:0}#chart-a50ab1bf-134b-4785-ad12-ea0aabf09484 .horizontal .axis.always_show .guide.line,#chart-a50ab1bf-134b-4785-ad12-ea0aabf09484 .vertical .axis.always_show .guide.line{opacity:1 !important}#chart-a50ab1bf-134b-4785-ad12-ea0aabf09484 .axis.y .guides:hover .guide.line,#chart-a50ab1bf-134b-4785-ad12-ea0aabf09484 .axis.y2 .guides:hover .guide.line,#chart-a50ab1bf-134b-4785-ad12-ea0aabf09484 .axis.x .guides:hover .guide.line{opacity:1}#chart-a50ab1bf-134b-4785-ad12-ea0aabf09484 .axis .guides:hover text{opacity:1}#chart-a50ab1bf-134b-4785-ad12-ea0aabf09484 .nofill{fill:none}#chart-a50ab1bf-134b-4785-ad12-ea0aabf09484 .subtle-fill{fill-opacity:.2}#chart-a50ab1bf-134b-4785-ad12-ea0aabf09484 .dot{stroke-width:1px;fill-opacity:1;stroke-opacity:1}#chart-a50ab1bf-134b-4785-ad12-ea0aabf09484 .dot.active{stroke-width:5px}#chart-a50ab1bf-134b-4785-ad12-ea0aabf09484 .dot.negative{fill:transparent}#chart-a50ab1bf-134b-4785-ad12-ea0aabf09484 text,#chart-a50ab1bf-134b-4785-ad12-ea0aabf09484 tspan{stroke:none !important}#chart-a50ab1bf-134b-4785-ad12-ea0aabf09484 .series text.active{opacity:1}#chart-a50ab1bf-134b-4785-ad12-ea0aabf09484 .tooltip rect{fill-opacity:.95;stroke-width:.5}#chart-a50ab1bf-134b-4785-ad12-ea0aabf09484 .tooltip text{fill-opacity:1}#chart-a50ab1bf-134b-4785-ad12-ea0aabf09484 .showable{visibility:hidden}#chart-a50ab1bf-134b-4785-ad12-ea0aabf09484 .showable.shown{visibility:visible}#chart-a50ab1bf-134b-4785-ad12-ea0aabf09484 .gauge-background{fill:rgba(229,229,229,1);stroke:none}#chart-a50ab1bf-134b-4785-ad12-ea0aabf09484 .bg-lines{stroke:rgba(249,249,249,1);stroke-width:2px}</style><script type="text/javascript">window.pygal = window.pygal || {};window.pygal.config = window.pygal.config || {};window.pygal.config['a50ab1bf-134b-4785-ad12-ea0aabf09484'] = {"allow_interruptions": false, "box_mode": "extremes", "classes": ["pygal-chart", "pygal-sparkline"], "css": ["file://style.css", "file://graph.css"], "defs": [], "disable_xml_declaration": false, "dots_size": 2.5, "dynamic_print_values": false, "explicit_size": true, "fill": false, "force_uri_protocol": "https", "formatter": null, "half_pie": false, "height": 50, "include_x_axis": false, "inner_radius": 0, "interpolate": "cubic", "interpolation_parameters": {}, "interpolation_precision": 250, "inverse_y_axis": false, "js": [], "legend_at_bottom": false, "legend_at_bottom_columns": null, "legend_box_size": 12, "logarithmic": false, "margin": 10, "margin_bottom": null, "margin_left": null, "margin_right": null, "margin_top": null, "max_scale": 2, "min_scale": 1, "missing_value_fill_truncation": "x", "no_data_text": "", "no_prefix": false, "order_min": null, "pretty_print": false, "print_labels": false, "print_values": false, "print_values_position": "center", "print_zeroes": true, "range": null, "rounded_bars": null, "secondary_range": null, "show_dots": false, "show_legend": false, "show_minor_x_labels": true, "show_minor_y_labels": true, "show_only_major_dots": false, "show_x_guides": false, "show_x_labels": false, "show_y_guides": true, "show_y_labels": true, "spacing": 0, "stack_from_top": false, "strict": false, "stroke": true, "stroke_style": null, "style": {"background": "rgba(249, 249, 249, 1)", "ci_colors": [], "colors": ["#F44336", "#3F51B5", "#009688", "#FFC107", "#FF5722", "#9C27B0", "#03A9F4", "#8BC34A", "#FF9800", "#E91E63", "#2196F3", "#4CAF50", "#FFEB3B", "#673AB7", "#00BCD4", "#CDDC39", "#9E9E9E", "#607D8B"], "dot_opacity": "1", "font_family": "Consolas, \"Liberation Mono\", Menlo, Courier, monospace", "foreground": "rgba(0, 0, 0, .87)", "foreground_strong": "rgba(0, 0, 0, 1)", "foreground_subtle": "rgba(0, 0, 0, .54)", "guide_stroke_color": "black", "guide_stroke_dasharray": "4,4", "label_font_family": "Consolas, \"Liberation Mono\", Menlo, Courier, monospace", "label_font_size": 10, "legend_font_family": "Consolas, \"Liberation Mono\", Menlo, Courier, monospace", "legend_font_size": 14, "major_guide_stroke_color": "black", "major_guide_stroke_dasharray": "6,6", "major_label_font_family": "Consolas, \"Liberation Mono\", Menlo, Courier, monospace", "major_label_font_size": 10, "no_data_font_family": "Consolas, \"Liberation Mono\", Menlo, Courier, monospace", "no_data_font_size": 64, "opacity": ".7", "opacity_hover": ".8", "plot_background": "rgba(255, 255, 255, 1)", "stroke_opacity": ".8", "stroke_opacity_hover": ".9", "stroke_width": "1", "stroke_width_hover": "4", "title_font_family": "Consolas, \"Liberation Mono\", Menlo, Courier, monospace", "title_font_size": 16, "tooltip_font_family": "Consolas, \"Liberation Mono\", Menlo, Courier, monospace", "tooltip_font_size": 14, "transition": "150ms", "value_background": "rgba(229, 229, 229, 1)", "value_colors": [], "value_font_family": "Consolas, \"Liberation Mono\", Menlo, Courier, monospace", "value_font_size": 16, "value_label_font_family": "Consolas, \"Liberation Mono\", Menlo, Courier, monospace", "value_label_font_size": 10}, "title": null, "tooltip_border_radius": 0, "tooltip_fancy_mode": true, "truncate_label": null, "truncate_legend": null, "width": 200, "x_label_rotation": 0, "x_labels": ["2024/10", "2024/9", "2024/8", "2024/7"], "x_labels_major": null, "x_labels_major_count": null, "x_labels_major_every": null, "x_title": null, "xrange": null, "y_label_rotation": 0, "y_labels": null, "y_labels_major": null, "y_labels_major_count": null, "y_labels_major_every": null, "y_title": null, "zero": 0, "legends": [""]}</script></defs><title>Pygal</title><g class="graph line-graph vertical"><rect x="0" y="0" width="200" height="50" class="background" /><g transform="translate(63, 10)" class="plot"><rect x="0" y="0" width="126.0" height="30" class="background" /><g class="axis y always_show"><path d="M0.000000 30.000000 h126.000000" class="line" /><g class="guides"><path d="M0.000000 29.423077 h126.000000" class="guide line" /><text x="-5" y="32.92307692307692" class="">2</text><title>2</title></g><g class="guides"><path d="M0.000000 0.576923 h126.000000" class="guide line" /><text x="-5" y="4.076923076923077" class="">15.224672</text><title>15.224672</title></g></g><g class="series serie-0 color-0"><path d="M2.423077 27.241839 L2.584615 27.099332 2.746154 26.956829 2.907692 26.814333 3.069231 26.671848 3.230769 26.529377 3.392308 26.386925 3.553846 26.244494 3.715385 26.102089 3.876923 25.959712 4.038462 25.817369 4.200000 25.675061 4.361538 25.532794 4.523077 25.390570 4.684615 25.248394 4.846154 25.106268 5.007692 24.964196 5.169231 24.822183 5.330769 24.680232 5.492308 24.538345 5.653846 24.396528 5.815385 24.254783 5.976923 24.113115 6.138462 23.971526 6.300000 23.830021 6.461538 23.688603 6.623077 23.547276 6.784615 23.406043 6.946154 23.264908 7.107692 23.123874 7.269231 22.982946 7.430769 22.842127 7.592308 22.701420 7.753846 22.560830 7.915385 22.420359 8.076923 22.280012 8.238462 22.139792 8.400000 21.999702 8.561538 21.859747 8.723077 21.719929 8.884615 21.580253 9.046154 21.440723 9.207692 21.301341 9.369231 21.162111 9.530769 21.023038 9.692308 20.884124 9.853846 20.745374 10.015385 20.606791 10.176923 20.468378 10.338462 20.330139 10.500000 20.192079 10.661538 20.054200 10.823077 19.916505 10.984615 19.779000 11.146154 19.641687 11.307692 19.504570 11.469231 19.367653 11.630769 19.230939 11.792308 19.094431 11.953846 18.958135 12.115385 18.822052 12.276923 18.686187 12.438462 18.550544 12.600000 18.415125 12.761538 18.279936 12.923077 18.144978 13.084615 18.010257 13.246154 17.875775 13.407692 17.741536 13.569231 17.607544 13.730769 17.473803 13.892308 17.340315 14.053846 17.207086 14.215385 17.074117 14.376923 16.941414 14.538462 16.808979 14.700000 16.676816 14.861538 16.544930 15.023077 16.413322 15.184615 16.281998 15.346154 16.150961 15.507692 16.020214 15.669231 15.889760 15.830769 15.759605 15.992308 15.629751 16.153846 15.500201 16.315385 15.370961 16.476923 15.242032 16.638462 15.113419 16.800000 14.985126 16.961538 14.857155 17.123077 14.729511 17.284615 14.602198 17.446154 14.475218 17.607692 14.348576 17.769231 14.222275 17.930769 14.096319 18.092308 13.970712 18.253846 13.845456 18.415385 13.720556 18.576923 13.596016 18.738462 13.471838 18.900000 13.348027 19.061538 13.224587 19.223077 13.101520 19.384615 12.978830 19.546154 12.856522 19.707692 12.734598 19.869231 12.613063 20.030769 12.491920 20.192308 12.371172 20.353846 12.250824 20.515385 12.130878 20.676923 12.011340 20.838462 11.892211 21.000000 11.773496 21.161538 11.655198 21.323077 11.537321 21.484615 11.419869 21.646154 11.302846 21.807692 11.186254 21.969231 11.070098 22.130769 10.954381 22.292308 10.839107 22.453846 10.724279 22.615385 10.609901 22.776923 10.495977 22.938462 10.382511 23.100000 10.269505 23.261538 10.156964 23.423077 10.044891 23.584615 9.933290 23.746154 9.822164 23.907692 9.711518 24.069231 9.601354 24.230769 9.491677 24.392308 9.382489 24.553846 9.273796 24.715385 9.165599 24.876923 9.057903 25.038462 8.950712 25.200000 8.844029 25.361538 8.737858 25.523077 8.632202 25.684615 8.527065 25.846154 8.422451 26.007692 8.318364 26.169231 8.214806 26.330769 8.111781 26.492308 8.009294 26.653846 7.907348 26.815385 7.805946 26.976923 7.705092 27.138462 7.604790 27.300000 7.505043 27.461538 7.405855 27.623077 7.307230 27.784615 7.209171 27.946154 7.111681 28.107692 7.014766 28.269231 6.918427 28.430769 6.822669 28.592308 6.727495 28.753846 6.632910 28.915385 6.538916 29.076923 6.445517 29.238462 6.352717 29.400000 6.260520 29.561538 6.168929 29.723077 6.077947 29.884615 5.987579 30.046154 5.897828 30.207692 5.808698 30.369231 5.720192 30.530769 5.632314 30.692308 5.545067 30.853846 5.458456 31.015385 5.372483 31.176923 5.287153 31.338462 5.202469 31.500000 5.118435 31.661538 5.035054 31.823077 4.952329 31.984615 4.870266 32.146154 4.788867 32.307692 4.708135 32.469231 4.628075 32.630769 4.548690 32.792308 4.469984 32.953846 4.391960 33.115385 4.314622 33.276923 4.237974 33.438462 4.162019 33.600000 4.086761 33.761538 4.012203 33.923077 3.938350 34.084615 3.865204 34.246154 3.792770 34.407692 3.721051 34.569231 3.650050 34.730769 3.579772 34.892308 3.510220 35.053846 3.441397 35.215385 3.373307 35.376923 3.305954 35.538462 3.239342 35.700000 3.173474 35.861538 3.108353 36.023077 3.043984 36.184615 2.980369 36.346154 2.917513 36.507692 2.855420 36.669231 2.794092 36.830769 2.733534 36.992308 2.673749 37.153846 2.614740 37.315385 2.556512 37.476923 2.499068 37.638462 2.442411 37.800000 2.386546 37.961538 2.331476 38.123077 2.277204 38.284615 2.223734 38.446154 2.171070 38.607692 2.119216 38.769231 2.068174 38.930769 2.017949 39.092308 1.968545 39.253846 1.919964 39.415385 1.872211 39.576923 1.825289 39.738462 1.779202 39.900000 1.733953 40.061538 1.689547 40.223077 1.645986 40.384615 1.603274 40.546154 1.561415 40.707692 1.520413 40.869231 1.480271 41.030769 1.440993 41.192308 1.402583 41.353846 1.365043 41.515385 1.328378 41.676923 1.292592 41.838462 1.257688 42.000000 1.223669 42.161538 1.190539 42.323077 1.158303 42.484615 1.126962 42.646154 1.096522 42.807692 1.066986 42.969231 1.038356 43.130769 1.010629 43.292308 0.983802 43.453846 0.957871 43.615385 0.932831 43.776923 0.908679 43.938462 0.885412 44.100000 0.863024 44.261538 0.841512 44.423077 0.820873 44.584615 0.801102 44.746154 0.782195 44.907692 0.764149 45.069231 0.746959 45.230769 0.730622 45.392308 0.715134 45.553846 0.700490 45.715385 0.686688 45.876923 0.673722 46.038462 0.661590 46.200000 0.650287 46.361538 0.639809 46.523077 0.630153 46.684615 0.621314 46.846154 0.613289 47.007692 0.606073 47.169231 0.599663 47.330769 0.594055 47.492308 0.589245 47.653846 0.585229 47.815385 0.582003 47.976923 0.579564 48.138462 0.577906 48.300000 0.577027 48.461538 0.576923 48.623077 0.577589 48.784615 0.579022 48.946154 0.581218 49.107692 0.584172 49.269231 0.587882 49.430769 0.592342 49.592308 0.597550 49.753846 0.603501 49.915385 0.610191 50.076923 0.617616 50.238462 0.625773 50.400000 0.634658 50.561538 0.644266 50.723077 0.654594 50.884615 0.665638 51.046154 0.677394 51.207692 0.689858 51.369231 0.703026 51.530769 0.716895 51.692308 0.731459 51.853846 0.746716 52.015385 0.762662 52.176923 0.779292 52.338462 0.796603 52.500000 0.814591 52.661538 0.833251 52.823077 0.852581 52.984615 0.872575 53.146154 0.893231 53.307692 0.914544 53.469231 0.936510 53.630769 0.959126 53.792308 0.982387 53.953846 1.006290 54.115385 1.030830 54.276923 1.056004 54.438462 1.081808 54.600000 1.108238 54.761538 1.135290 54.923077 1.162961 55.084615 1.191245 55.246154 1.220140 55.407692 1.249641 55.569231 1.279745 55.730769 1.310447 55.892308 1.341744 56.053846 1.373632 56.215385 1.406107 56.376923 1.439164 56.538462 1.472801 56.700000 1.507013 56.861538 1.541796 57.023077 1.577146 57.184615 1.613060 57.346154 1.649534 57.507692 1.686563 57.669231 1.724143 57.830769 1.762272 57.992308 1.800944 58.153846 1.840156 58.315385 1.879905 58.476923 1.920185 58.638462 1.960994 58.800000 2.002327 58.961538 2.044181 59.123077 2.086551 59.284615 2.129433 59.446154 2.172825 59.607692 2.216721 59.769231 2.261118 59.930769 2.306012 60.092308 2.351399 60.253846 2.397275 60.415385 2.443637 60.576923 2.490479 60.738462 2.537800 60.900000 2.585593 61.061538 2.633857 61.223077 2.682586 61.384615 2.731777 61.546154 2.781425 61.707692 2.831528 61.869231 2.882081 62.030769 2.933080 62.192308 2.984521 62.353846 3.036400 62.515385 3.088714 62.676923 3.141459 62.838462 3.194630 63.000000 3.248224 63.161538 3.302236 63.323077 3.356664 63.484615 3.411502 63.646154 3.466748 63.807692 3.522397 63.969231 3.578445 64.130769 3.634888 64.292308 3.691723 64.453846 3.748945 64.615385 3.806551 64.776923 3.864537 64.938462 3.922898 65.100000 3.981631 65.261538 4.040733 65.423077 4.100198 65.584615 4.160023 65.746154 4.220205 65.907692 4.280739 66.069231 4.341622 66.230769 4.402849 66.392308 4.464417 66.553846 4.526321 66.715385 4.588558 66.876923 4.651125 67.038462 4.714016 67.200000 4.777228 67.361538 4.840757 67.523077 4.904600 67.684615 4.968752 67.846154 5.033209 68.007692 5.097968 68.169231 5.163025 68.330769 5.228375 68.492308 5.294015 68.653846 5.359941 68.815385 5.426149 68.976923 5.492635 69.138462 5.559396 69.300000 5.626426 69.461538 5.693723 69.623077 5.761282 69.784615 5.829100 69.946154 5.897173 70.107692 5.965496 70.269231 6.034066 70.430769 6.102879 70.592308 6.171931 70.753846 6.241218 70.915385 6.310736 71.076923 6.380481 71.238462 6.450450 71.400000 6.520638 71.561538 6.591042 71.723077 6.661658 71.884615 6.732481 72.046154 6.803508 72.207692 6.874735 72.369231 6.946157 72.530769 7.017772 72.692308 7.089576 72.853846 7.161563 73.015385 7.233731 73.176923 7.306075 73.338462 7.378592 73.500000 7.451277 73.661538 7.524127 73.823077 7.597138 73.984615 7.670306 74.146154 7.743627 74.307692 7.817097 74.469231 7.890712 74.630769 7.964468 74.792308 8.038362 74.953846 8.112389 75.115385 8.186546 75.276923 8.260829 75.438462 8.335233 75.600000 8.409755 75.761538 8.484391 75.923077 8.559136 76.084615 8.633988 76.246154 8.708943 76.407692 8.783995 76.569231 8.859142 76.730769 8.934379 76.892308 9.009703 77.053846 9.085109 77.215385 9.160595 77.376923 9.236155 77.538462 9.311786 77.700000 9.387484 77.861538 9.463245 78.023077 9.539065 78.184615 9.614940 78.346154 9.690867 78.507692 9.766842 78.669231 9.842860 78.830769 9.918917 78.992308 9.995010 79.153846 10.071136 79.315385 10.147289 79.476923 10.223466 79.638462 10.299663 79.800000 10.375876 79.961538 10.452102 80.123077 10.528336 80.284615 10.604574 80.446154 10.680813 80.607692 10.757049 80.769231 10.833277 80.930769 10.909495 81.092308 10.985697 81.253846 11.061880 81.415385 11.138040 81.576923 11.214174 81.738462 11.290277 81.900000 11.366345 82.061538 11.442375 82.223077 11.518362 82.384615 11.594303 82.546154 11.670193 82.707692 11.746030 82.869231 11.821808 83.030769 11.897524 83.192308 11.973175 83.353846 12.048756 83.515385 12.124268 83.676923 12.199711 83.838462 12.275084 84.000000 12.350389 84.161538 12.425626 84.323077 12.500794 84.484615 12.575895 84.646154 12.650928 84.807692 12.725894 84.969231 12.800793 85.130769 12.875625 85.292308 12.950390 85.453846 13.025090 85.615385 13.099723 85.776923 13.174291 85.938462 13.248794 86.100000 13.323231 86.261538 13.397604 86.423077 13.471912 86.584615 13.546156 86.746154 13.620336 86.907692 13.694453 87.069231 13.768506 87.230769 13.842496 87.392308 13.916423 87.553846 13.990287 87.715385 14.064090 87.876923 14.137830 88.038462 14.211509 88.200000 14.285126 88.361538 14.358682 88.523077 14.432177 88.684615 14.505612 88.846154 14.578986 89.007692 14.652301 89.169231 14.725555 89.330769 14.798750 89.492308 14.871886 89.653846 14.944963 89.815385 15.017981 89.976923 15.090941 90.138462 15.163843 90.300000 15.236687 90.461538 15.309474 90.623077 15.382203 90.784615 15.454876 90.946154 15.527492 91.107692 15.600051 91.269231 15.672554 91.430769 15.745002 91.592308 15.817393 91.753846 15.889730 91.915385 15.962011 92.076923 16.034238 92.238462 16.106411 92.400000 16.178529 92.561538 16.250593 92.723077 16.322604 92.884615 16.394561 93.046154 16.466466 93.207692 16.538317 93.369231 16.610116 93.530769 16.681863 93.692308 16.753558 93.853846 16.825201 94.015385 16.896793 94.176923 16.968334 94.338462 17.039824 94.500000 17.111264 94.661538 17.182653 94.823077 17.253992 94.984615 17.325282 95.146154 17.396522 95.307692 17.467713 95.469231 17.538855 95.630769 17.609948 95.792308 17.680994 95.953846 17.751991 96.115385 17.822940 96.276923 17.893842 96.438462 17.964697 96.600000 18.035505 96.761538 18.106267 96.923077 18.176982 97.084615 18.247650 97.246154 18.318274 97.407692 18.388851 97.569231 18.459383 97.730769 18.529871 97.892308 18.600314 98.053846 18.670712 98.215385 18.741066 98.376923 18.811377 98.538462 18.881643 98.700000 18.951867 98.861538 19.022048 99.023077 19.092185 99.184615 19.162281 99.346154 19.232334 99.507692 19.302346 99.669231 19.372315 99.830769 19.442244 99.992308 19.512131 100.153846 19.581978 100.315385 19.651784 100.476923 19.721550 100.638462 19.791276 100.800000 19.860962 100.961538 19.930609 101.123077 20.000217 101.284615 20.069786 101.446154 20.139317 101.607692 20.208809 101.769231 20.278264 101.930769 20.347681 102.092308 20.417060 102.253846 20.486402 102.415385 20.555707 102.576923 20.624976 102.738462 20.694208 102.900000 20.763405 103.061538 20.832565 103.223077 20.901691 103.384615 20.970781 103.546154 21.039836 103.707692 21.108856 103.869231 21.177842 104.030769 21.246795 104.192308 21.315713 104.353846 21.384598 104.515385 21.453449 104.676923 21.522268 104.838462 21.591054 105.000000 21.659807 105.161538 21.728529 105.323077 21.797219 105.484615 21.865877 105.646154 21.934504 105.807692 22.003099 105.969231 22.071665 106.130769 22.140199 106.292308 22.208704 106.453846 22.277178 106.615385 22.345624 106.776923 22.414039 106.938462 22.482426 107.100000 22.550784 107.261538 22.619113 107.423077 22.687415 107.584615 22.755688 107.746154 22.823934 107.907692 22.892152 108.069231 22.960343 108.230769 23.028508 108.392308 23.096646 108.553846 23.164758 108.715385 23.232843 108.876923 23.300903 109.038462 23.368938 109.200000 23.436948 109.361538 23.504932 109.523077 23.572892 109.684615 23.640828 109.846154 23.708740 110.007692 23.776628 110.169231 23.844493 110.330769 23.912334 110.492308 23.980153 110.653846 24.047949 110.815385 24.115722 110.976923 24.183474 111.138462 24.251204 111.300000 24.318912 111.461538 24.386599 111.623077 24.454265 111.784615 24.521911 111.946154 24.589536 112.107692 24.657141 112.269231 24.724726 112.430769 24.792291 112.592308 24.859838 112.753846 24.927365 112.915385 24.994874 113.076923 25.062364 113.238462 25.129836 113.400000 25.197290 113.561538 25.264727 113.723077 25.332146 113.884615 25.399548 114.046154 25.466934 114.207692 25.534303 114.369231 25.601656 114.530769 25.668993 114.692308 25.736314 114.853846 25.803620 115.015385 25.870911 115.176923 25.938187 115.338462 26.005448 115.500000 26.072696 115.661538 26.139929 115.823077 26.207149 115.984615 26.274355 116.146154 26.341548 116.307692 26.408728 116.469231 26.475896 116.630769 26.543052 116.792308 26.610195 116.953846 26.677327 117.115385 26.744447 117.276923 26.811556 117.438462 26.878654 117.600000 26.945742 117.761538 27.012819 117.923077 27.079887 118.084615 27.146944 118.246154 27.213992 118.407692 27.281031 118.569231 27.348061 118.730769 27.415082 118.892308 27.482095 119.053846 27.549099 119.215385 27.616096 119.376923 27.683085 119.538462 27.750068 119.700000 27.817043 119.861538 27.884011 120.023077 27.950973 120.184615 28.017929 120.346154 28.084879 120.507692 28.151823 120.669231 28.218762 120.830769 28.285696 120.992308 28.352626 121.153846 28.419551 121.315385 28.486471 121.476923 28.553388 121.638462 28.620301 121.800000 28.687211 121.961538 28.754117 122.123077 28.821021 122.284615 28.887923 122.446154 28.954822 122.607692 29.021719 122.769231 29.088615 122.930769 29.155509 123.092308 29.222402 123.253846 29.289294 123.415385 29.356186 123.576923 29.423077" class="line reactive nofill" /></g></g><g class="titles" /><g transform="translate(63, 10)" class="plot overlay"><g class="series serie-0 color-0" /></g><g transform="translate(63, 10)" class="plot text-overlay"><g class="series serie-0 color-0" /></g><g transform="translate(63, 10)" class="plot tooltip-overlay"><g transform="translate(0 0)" style="opacity: 0" class="tooltip"><rect rx="0" ry="0" width="0" height="0" class="tooltip-box" /><g class="text" /></g></g></g></svg>