<?xml version='1.0' encoding='utf-8'?>
<svg xmlns="http://www.w3.org/2000/svg" id="chart-3fabc7ed-7b69-4f00-a402-6f9a18609221" class="pygal-chart pygal-sparkline" viewBox="0 0 200 50" width="200" height="50"><!--Generated with pygal 3.0.4 (etree) ©Kozea 2012-2016 on 2024-06-10--><!--http://pygal.org--><!--http://github.com/Kozea/pygal--><defs><style type="text/css">#chart-3fabc7ed-7b69-4f00-a402-6f9a18609221{-webkit-user-select:none;-webkit-font-smoothing:antialiased;font-family:Consolas,"Liberation Mono",Menlo,Courier,monospace}#chart-3fabc7ed-7b69-4f00-a402-6f9a18609221 .title{font-family:Consolas,"Liberation Mono",Menlo,Courier,monospace;font-size:16px}#chart-3fabc7ed-7b69-4f00-a402-6f9a18609221 .legends .legend text{font-family:Consolas,"Liberation Mono",Menlo,Courier,monospace;font-size:14px}#chart-3fabc7ed-7b69-4f00-a402-6f9a18609221 .axis text{font-family:Consolas,"Liberation Mono",Menlo,Courier,monospace;font-size:10px}#chart-3fabc7ed-7b69-4f00-a402-6f9a18609221 .axis text.major{font-family:Consolas,"Liberation Mono",Menlo,Courier,monospace;font-size:10px}#chart-3fabc7ed-7b69-4f00-a402-6f9a18609221 .text-overlay text.value{font-family:Consolas,"Liberation Mono",Menlo,Courier,monospace;font-size:16px}#chart-3fabc7ed-7b69-4f00-a402-6f9a18609221 .text-overlay text.label{font-family:Consolas,"Liberation Mono",Menlo,Courier,monospace;font-size:10px}#chart-3fabc7ed-7b69-4f00-a402-6f9a18609221 .tooltip{font-family:Consolas,"Liberation Mono",Menlo,Courier,monospace;font-size:14px}#chart-3fabc7ed-7b69-4f00-a402-6f9a18609221 text.no_data{font-family:Consolas,"Liberation Mono",Menlo,Courier,monospace;font-size:64px}
#chart-3fabc7ed-7b69-4f00-a402-6f9a18609221{background-color:rgba(249,249,249,1)}#chart-3fabc7ed-7b69-4f00-a402-6f9a18609221 path,#chart-3fabc7ed-7b69-4f00-a402-6f9a18609221 line,#chart-3fabc7ed-7b69-4f00-a402-6f9a18609221 rect,#chart-3fabc7ed-7b69-4f00-a402-6f9a18609221 circle{-webkit-transition:150ms;-moz-transition:150ms;transition:150ms}#chart-3fabc7ed-7b69-4f00-a402-6f9a18609221 .graph &gt; .background{fill:rgba(249,249,249,1)}#chart-3fabc7ed-7b69-4f00-a402-6f9a18609221 .plot &gt; .background{fill:rgba(255,255,255,1)}#chart-3fabc7ed-7b69-4f00-a402-6f9a18609221 .graph{fill:rgba(0,0,0,.87)}#chart-3fabc7ed-7b69-4f00-a402-6f9a18609221 text.no_data{fill:rgba(0,0,0,1)}#chart-3fabc7ed-7b69-4f00-a402-6f9a18609221 .title{fill:rgba(0,0,0,1)}#chart-3fabc7ed-7b69-4f00-a402-6f9a18609221 .legends .legend text{fill:rgba(0,0,0,.87)}#chart-3fabc7ed-7b69-4f00-a402-6f9a18609221 .legends .legend:hover text{fill:rgba(0,0,0,1)}#chart-3fabc7ed-7b69-4f00-a402-6f9a18609221 .axis .line{stroke:rgba(0,0,0,1)}#chart-3fabc7ed-7b69-4f00-a402-6f9a18609221 .axis .guide.line{stroke:rgba(0,0,0,.54)}#chart-3fabc7ed-7b69-4f00-a402-6f9a18609221 .axis .major.line{stroke:rgba(0,0,0,.87)}#chart-3fabc7ed-7b69-4f00-a402-6f9a18609221 .axis text.major{fill:rgba(0,0,0,1)}#chart-3fabc7ed-7b69-4f00-a402-6f9a18609221 .axis.y .guides:hover .guide.line,#chart-3fabc7ed-7b69-4f00-a402-6f9a18609221 .line-graph .axis.x .guides:hover .guide.line,#chart-3fabc7ed-7b69-4f00-a402-6f9a18609221 .stackedline-graph .axis.x .guides:hover .guide.line,#chart-3fabc7ed-7b69-4f00-a402-6f9a18609221 .xy-graph .axis.x .guides:hover .guide.line{stroke:rgba(0,0,0,1)}#chart-3fabc7ed-7b69-4f00-a402-6f9a18609221 .axis .guides:hover text{fill:rgba(0,0,0,1)}#chart-3fabc7ed-7b69-4f00-a402-6f9a18609221 .reactive{fill-opacity:.7;stroke-opacity:.8;stroke-width:1}#chart-3fabc7ed-7b69-4f00-a402-6f9a18609221 .ci{stroke:rgba(0,0,0,.87)}#chart-3fabc7ed-7b69-4f00-a402-6f9a18609221 .reactive.active,#chart-3fabc7ed-7b69-4f00-a402-6f9a18609221 .active .reactive{fill-opacity:.8;stroke-opacity:.9;stroke-width:4}#chart-3fabc7ed-7b69-4f00-a402-6f9a18609221 .ci .reactive.active{stroke-width:1.5}#chart-3fabc7ed-7b69-4f00-a402-6f9a18609221 .series text{fill:rgba(0,0,0,1)}#chart-3fabc7ed-7b69-4f00-a402-6f9a18609221 .tooltip rect{fill:rgba(255,255,255,1);stroke:rgba(0,0,0,1);-webkit-transition:opacity 150ms;-moz-transition:opacity 150ms;transition:opacity 150ms}#chart-3fabc7ed-7b69-4f00-a402-6f9a18609221 .tooltip .label{fill:rgba(0,0,0,.87)}#chart-3fabc7ed-7b69-4f00-a402-6f9a18609221 .tooltip .label{fill:rgba(0,0,0,.87)}#chart-3fabc7ed-7b69-4f00-a402-6f9a18609221 .tooltip .legend{font-size:.8em;fill:rgba(0,0,0,.54)}#chart-3fabc7ed-7b69-4f00-a402-6f9a18609221 .tooltip .x_label{font-size:.6em;fill:rgba(0,0,0,1)}#chart-3fabc7ed-7b69-4f00-a402-6f9a18609221 .tooltip .xlink{font-size:.5em;text-decoration:underline}#chart-3fabc7ed-7b69-4f00-a402-6f9a18609221 .tooltip .value{font-size:1.5em}#chart-3fabc7ed-7b69-4f00-a402-6f9a18609221 .bound{font-size:.5em}#chart-3fabc7ed-7b69-4f00-a402-6f9a18609221 .max-value{font-size:.75em;fill:rgba(0,0,0,.54)}#chart-3fabc7ed-7b69-4f00-a402-6f9a18609221 .map-element{fill:rgba(255,255,255,1);stroke:rgba(0,0,0,.54) !important}#chart-3fabc7ed-7b69-4f00-a402-6f9a18609221 .map-element .reactive{fill-opacity:inherit;stroke-opacity:inherit}#chart-3fabc7ed-7b69-4f00-a402-6f9a18609221 .color-0,#chart-3fabc7ed-7b69-4f00-a402-6f9a18609221 .color-0 a:visited{stroke:#F44336;fill:#F44336}#chart-3fabc7ed-7b69-4f00-a402-6f9a18609221 .text-overlay .color-0 text{fill:black}
#chart-3fabc7ed-7b69-4f00-a402-6f9a18609221 text.no_data{text-anchor:middle}#chart-3fabc7ed-7b69-4f00-a402-6f9a18609221 .guide.line{fill:none}#chart-3fabc7ed-7b69-4f00-a402-6f9a18609221 .centered{text-anchor:middle}#chart-3fabc7ed-7b69-4f00-a402-6f9a18609221 .title{text-anchor:middle}#chart-3fabc7ed-7b69-4f00-a402-6f9a18609221 .legends .legend text{fill-opacity:1}#chart-3fabc7ed-7b69-4f00-a402-6f9a18609221 .axis.x text{text-anchor:middle}#chart-3fabc7ed-7b69-4f00-a402-6f9a18609221 .axis.x:not(.web) text[transform]{text-anchor:start}#chart-3fabc7ed-7b69-4f00-a402-6f9a18609221 .axis.x:not(.web) text[transform].backwards{text-anchor:end}#chart-3fabc7ed-7b69-4f00-a402-6f9a18609221 .axis.y text{text-anchor:end}#chart-3fabc7ed-7b69-4f00-a402-6f9a18609221 .axis.y text[transform].backwards{text-anchor:start}#chart-3fabc7ed-7b69-4f00-a402-6f9a18609221 .axis.y2 text{text-anchor:start}#chart-3fabc7ed-7b69-4f00-a402-6f9a18609221 .axis.y2 text[transform].backwards{text-anchor:end}#chart-3fabc7ed-7b69-4f00-a402-6f9a18609221 .axis .guide.line{stroke-dasharray:4,4;stroke:black}#chart-3fabc7ed-7b69-4f00-a402-6f9a18609221 .axis .major.guide.line{stroke-dasharray:6,6;stroke:black}#chart-3fabc7ed-7b69-4f00-a402-6f9a18609221 .horizontal .axis.y .guide.line,#chart-3fabc7ed-7b69-4f00-a402-6f9a18609221 .horizontal .axis.y2 .guide.line,#chart-3fabc7ed-7b69-4f00-a402-6f9a18609221 .vertical .axis.x .guide.line{opacity:0}#chart-3fabc7ed-7b69-4f00-a402-6f9a18609221 .horizontal .axis.always_show .guide.line,#chart-3fabc7ed-7b69-4f00-a402-6f9a18609221 .vertical .axis.always_show .guide.line{opacity:1 !important}#chart-3fabc7ed-7b69-4f00-a402-6f9a18609221 .axis.y .guides:hover .guide.line,#chart-3fabc7ed-7b69-4f00-a402-6f9a18609221 .axis.y2 .guides:hover .guide.line,#chart-3fabc7ed-7b69-4f00-a402-6f9a18609221 .axis.x .guides:hover .guide.line{opacity:1}#chart-3fabc7ed-7b69-4f00-a402-6f9a18609221 .axis .guides:hover text{opacity:1}#chart-3fabc7ed-7b69-4f00-a402-6f9a18609221 .nofill{fill:none}#chart-3fabc7ed-7b69-4f00-a402-6f9a18609221 .subtle-fill{fill-opacity:.2}#chart-3fabc7ed-7b69-4f00-a402-6f9a18609221 .dot{stroke-width:1px;fill-opacity:1;stroke-opacity:1}#chart-3fabc7ed-7b69-4f00-a402-6f9a18609221 .dot.active{stroke-width:5px}#chart-3fabc7ed-7b69-4f00-a402-6f9a18609221 .dot.negative{fill:transparent}#chart-3fabc7ed-7b69-4f00-a402-6f9a18609221 text,#chart-3fabc7ed-7b69-4f00-a402-6f9a18609221 tspan{stroke:none !important}#chart-3fabc7ed-7b69-4f00-a402-6f9a18609221 .series text.active{opacity:1}#chart-3fabc7ed-7b69-4f00-a402-6f9a18609221 .tooltip rect{fill-opacity:.95;stroke-width:.5}#chart-3fabc7ed-7b69-4f00-a402-6f9a18609221 .tooltip text{fill-opacity:1}#chart-3fabc7ed-7b69-4f00-a402-6f9a18609221 .showable{visibility:hidden}#chart-3fabc7ed-7b69-4f00-a402-6f9a18609221 .showable.shown{visibility:visible}#chart-3fabc7ed-7b69-4f00-a402-6f9a18609221 .gauge-background{fill:rgba(229,229,229,1);stroke:none}#chart-3fabc7ed-7b69-4f00-a402-6f9a18609221 .bg-lines{stroke:rgba(249,249,249,1);stroke-width:2px}</style><script type="text/javascript">window.pygal = window.pygal || {};window.pygal.config = window.pygal.config || {};window.pygal.config['3fabc7ed-7b69-4f00-a402-6f9a18609221'] = {"allow_interruptions": false, "box_mode": "extremes", "classes": ["pygal-chart", "pygal-sparkline"], "css": ["file://style.css", "file://graph.css"], "defs": [], "disable_xml_declaration": false, "dots_size": 2.5, "dynamic_print_values": false, "explicit_size": true, "fill": false, "force_uri_protocol": "https", "formatter": null, "half_pie": false, "height": 50, "include_x_axis": false, "inner_radius": 0, "interpolate": "cubic", "interpolation_parameters": {}, "interpolation_precision": 250, "inverse_y_axis": false, "js": [], "legend_at_bottom": false, "legend_at_bottom_columns": null, "legend_box_size": 12, "logarithmic": false, "margin": 10, "margin_bottom": null, "margin_left": null, "margin_right": null, "margin_top": null, "max_scale": 2, "min_scale": 1, "missing_value_fill_truncation": "x", "no_data_text": "", "no_prefix": false, "order_min": null, "pretty_print": false, "print_labels": false, "print_values": false, "print_values_position": "center", "print_zeroes": true, "range": null, "rounded_bars": null, "secondary_range": null, "show_dots": false, "show_legend": false, "show_minor_x_labels": true, "show_minor_y_labels": true, "show_only_major_dots": false, "show_x_guides": false, "show_x_labels": false, "show_y_guides": true, "show_y_labels": true, "spacing": 0, "stack_from_top": false, "strict": false, "stroke": true, "stroke_style": null, "style": {"background": "rgba(249, 249, 249, 1)", "ci_colors": [], "colors": ["#F44336", "#3F51B5", "#009688", "#FFC107", "#FF5722", "#9C27B0", "#03A9F4", "#8BC34A", "#FF9800", "#E91E63", "#2196F3", "#4CAF50", "#FFEB3B", "#673AB7", "#00BCD4", "#CDDC39", "#9E9E9E", "#607D8B"], "dot_opacity": "1", "font_family": "Consolas, \"Liberation Mono\", Menlo, Courier, monospace", "foreground": "rgba(0, 0, 0, .87)", "foreground_strong": "rgba(0, 0, 0, 1)", "foreground_subtle": "rgba(0, 0, 0, .54)", "guide_stroke_color": "black", "guide_stroke_dasharray": "4,4", "label_font_family": "Consolas, \"Liberation Mono\", Menlo, Courier, monospace", "label_font_size": 10, "legend_font_family": "Consolas, \"Liberation Mono\", Menlo, Courier, monospace", "legend_font_size": 14, "major_guide_stroke_color": "black", "major_guide_stroke_dasharray": "6,6", "major_label_font_family": "Consolas, \"Liberation Mono\", Menlo, Courier, monospace", "major_label_font_size": 10, "no_data_font_family": "Consolas, \"Liberation Mono\", Menlo, Courier, monospace", "no_data_font_size": 64, "opacity": ".7", "opacity_hover": ".8", "plot_background": "rgba(255, 255, 255, 1)", "stroke_opacity": ".8", "stroke_opacity_hover": ".9", "stroke_width": "1", "stroke_width_hover": "4", "title_font_family": "Consolas, \"Liberation Mono\", Menlo, Courier, monospace", "title_font_size": 16, "tooltip_font_family": "Consolas, \"Liberation Mono\", Menlo, Courier, monospace", "tooltip_font_size": 14, "transition": "150ms", "value_background": "rgba(229, 229, 229, 1)", "value_colors": [], "value_font_family": "Consolas, \"Liberation Mono\", Menlo, Courier, monospace", "value_font_size": 16, "value_label_font_family": "Consolas, \"Liberation Mono\", Menlo, Courier, monospace", "value_label_font_size": 10}, "title": null, "tooltip_border_radius": 0, "tooltip_fancy_mode": true, "truncate_label": null, "truncate_legend": null, "width": 200, "x_label_rotation": 0, "x_labels": ["2024/6", "2024/5", "2024/4"], "x_labels_major": null, "x_labels_major_count": null, "x_labels_major_every": null, "x_title": null, "xrange": null, "y_label_rotation": 0, "y_labels": null, "y_labels_major": null, "y_labels_major_count": null, "y_labels_major_every": null, "y_title": null, "zero": 0, "legends": [""]}</script></defs><title>Pygal</title><g class="graph line-graph vertical"><rect x="0" y="0" width="200" height="50" class="background" /><g transform="translate(22, 10)" class="plot"><rect x="0" y="0" width="168.0" height="30" class="background" /><g class="axis y always_show"><path d="M0.000000 30.000000 h168.000000" class="line" /><g class="guides"><path d="M0.000000 23.920453 h168.000000" class="guide line" /><text x="-5" y="27.420452514832732" class="">8</text><title>8</title></g><g class="guides"><path d="M0.000000 1.909955 h168.000000" class="guide line" /><text x="-5" y="5.409954881855963" class="">12</text><title>12</title></g></g><g class="series serie-0 color-0"><path d="M3.230769 7.412579 L3.553846 7.357554 3.876923 7.302531 4.200000 7.247515 4.523077 7.192508 4.846154 7.137514 5.169231 7.082536 5.492308 7.027577 5.815385 6.972640 6.138462 6.917728 6.461538 6.862845 6.784615 6.807994 7.107692 6.753177 7.430769 6.698399 7.753846 6.643661 8.076923 6.588968 8.400000 6.534323 8.723077 6.479728 9.046154 6.425188 9.369231 6.370704 9.692308 6.316280 10.015385 6.261920 10.338462 6.207627 10.661538 6.153403 10.984615 6.099252 11.307692 6.045177 11.630769 5.991182 11.953846 5.937268 12.276923 5.883441 12.600000 5.829702 12.923077 5.776055 13.246154 5.722503 13.569231 5.669049 13.892308 5.615697 14.215385 5.562449 14.538462 5.509310 14.861538 5.456281 15.184615 5.403366 15.507692 5.350568 15.830769 5.297891 16.153846 5.245338 16.476923 5.192911 16.800000 5.140614 17.123077 5.088451 17.446154 5.036423 17.769231 4.984535 18.092308 4.932790 18.415385 4.881191 18.738462 4.829740 19.061538 4.778442 19.384615 4.727299 19.707692 4.676314 20.030769 4.625491 20.353846 4.574833 20.676923 4.524343 21.000000 4.474024 21.323077 4.423879 21.646154 4.373912 21.969231 4.324125 22.292308 4.274523 22.615385 4.225107 22.938462 4.175882 23.261538 4.126849 23.584615 4.078014 23.907692 4.029378 24.230769 3.980945 24.553846 3.932718 24.876923 3.884700 25.200000 3.836894 25.523077 3.789304 25.846154 3.741933 26.169231 3.694783 26.492308 3.647859 26.815385 3.601162 27.138462 3.554698 27.461538 3.508467 27.784615 3.462475 28.107692 3.416723 28.430769 3.371215 28.753846 3.325955 29.076923 3.280945 29.400000 3.236188 29.723077 3.191688 30.046154 3.147449 30.369231 3.103472 30.692308 3.059761 31.015385 3.016320 31.338462 2.973152 31.661538 2.930259 31.984615 2.887645 32.307692 2.845313 32.630769 2.803266 32.953846 2.761508 33.276923 2.720042 33.600000 2.678870 33.923077 2.637996 34.246154 2.597423 34.569231 2.557155 34.892308 2.517194 35.215385 2.477543 35.538462 2.438207 35.861538 2.399187 36.184615 2.360488 36.507692 2.322111 36.830769 2.284061 37.153846 2.246341 37.476923 2.208954 37.800000 2.171903 38.123077 2.135190 38.446154 2.098820 38.769231 2.062796 39.092308 2.027120 39.415385 1.991796 39.738462 1.956827 40.061538 1.922216 40.384615 1.887966 40.707692 1.854081 41.030769 1.820564 41.353846 1.787417 41.676923 1.754645 42.000000 1.722249 42.323077 1.690234 42.646154 1.658603 42.969231 1.627358 43.292308 1.596503 43.615385 1.566041 43.938462 1.535975 44.261538 1.506309 44.584615 1.477045 44.907692 1.448186 45.230769 1.419737 45.553846 1.391700 45.876923 1.364078 46.200000 1.336874 46.523077 1.310092 46.846154 1.283734 47.169231 1.257805 47.492308 1.232306 47.815385 1.207242 48.138462 1.182615 48.461538 1.158428 48.784615 1.134686 49.107692 1.111390 49.430769 1.088544 49.753846 1.066152 50.076923 1.044216 50.400000 1.022740 50.723077 1.001726 51.046154 0.981178 51.369231 0.961099 51.692308 0.941493 52.015385 0.922362 52.338462 0.903710 52.661538 0.885539 52.984615 0.867853 53.307692 0.850656 53.630769 0.833949 53.953846 0.817737 54.276923 0.802023 54.600000 0.786810 54.923077 0.772100 55.246154 0.757898 55.569231 0.744206 55.892308 0.731027 56.215385 0.718365 56.538462 0.706223 56.861538 0.694604 57.184615 0.683510 57.507692 0.672947 57.830769 0.662915 58.153846 0.653420 58.476923 0.644463 58.800000 0.636048 59.123077 0.628178 59.446154 0.620857 59.769231 0.614087 60.092308 0.607872 60.415385 0.602214 60.738462 0.597118 61.061538 0.592586 61.384615 0.588621 61.707692 0.585226 62.030769 0.582406 62.353846 0.580162 62.676923 0.578498 63.000000 0.577417 63.323077 0.576923 63.646154 0.577018 63.969231 0.577706 64.292308 0.578990 64.615385 0.580873 64.938462 0.583358 65.261538 0.586449 65.584615 0.590148 65.907692 0.594458 66.230769 0.599384 66.553846 0.604927 66.876923 0.611092 67.200000 0.617882 67.523077 0.625298 67.846154 0.633346 68.169231 0.642027 68.492308 0.651346 68.815385 0.661305 69.138462 0.671907 69.461538 0.683156 69.784615 0.695054 70.107692 0.707606 70.430769 0.720813 70.753846 0.734680 71.076923 0.749209 71.400000 0.764404 71.723077 0.780268 72.046154 0.796803 72.369231 0.814014 72.692308 0.831903 73.015385 0.850473 73.338462 0.869728 73.661538 0.889671 73.984615 0.910304 74.307692 0.931632 74.630769 0.953657 74.953846 0.976383 75.276923 0.999812 75.600000 1.023948 75.923077 1.048794 76.246154 1.074353 76.569231 1.100629 76.892308 1.127624 77.215385 1.155341 77.538462 1.183785 77.861538 1.212957 78.184615 1.242861 78.507692 1.273501 78.830769 1.304880 79.153846 1.337000 79.476923 1.369864 79.800000 1.403477 80.123077 1.437841 80.446154 1.472960 80.769231 1.508836 81.092308 1.545472 81.415385 1.582873 81.738462 1.621040 82.061538 1.659978 82.384615 1.699689 82.707692 1.740176 83.030769 1.781443 83.353846 1.823493 83.676923 1.866330 84.000000 1.909955 84.323077 1.954372 84.646154 1.999577 84.969231 2.045569 85.292308 2.092344 85.615385 2.139899 85.938462 2.188230 86.261538 2.237334 86.584615 2.287208 86.907692 2.337850 87.230769 2.389255 87.553846 2.441422 87.876923 2.494345 88.200000 2.548023 88.523077 2.602452 88.846154 2.657629 89.169231 2.713551 89.492308 2.770215 89.815385 2.827617 90.138462 2.885755 90.461538 2.944624 90.784615 3.004223 91.107692 3.064547 91.430769 3.125594 91.753846 3.187361 92.076923 3.249844 92.400000 3.313040 92.723077 3.376946 93.046154 3.441559 93.369231 3.506875 93.692308 3.572892 94.015385 3.639606 94.338462 3.707014 94.661538 3.775114 94.984615 3.843901 95.307692 3.913372 95.630769 3.983525 95.953846 4.054357 96.276923 4.125863 96.600000 4.198042 96.923077 4.270889 97.246154 4.344402 97.569231 4.418577 97.892308 4.493411 98.215385 4.568902 98.538462 4.645045 98.861538 4.721839 99.184615 4.799278 99.507692 4.877362 99.830769 4.956085 100.153846 5.035446 100.476923 5.115440 100.800000 5.196065 101.123077 5.277318 101.446154 5.359195 101.769231 5.441693 102.092308 5.524810 102.415385 5.608541 102.738462 5.692884 103.061538 5.777836 103.384615 5.863392 103.707692 5.949552 104.030769 6.036310 104.353846 6.123664 104.676923 6.211610 105.000000 6.300147 105.323077 6.389269 105.646154 6.478975 105.969231 6.569261 106.292308 6.660124 106.615385 6.751560 106.938462 6.843567 107.261538 6.936141 107.584615 7.029280 107.907692 7.122979 108.230769 7.217236 108.553846 7.312048 108.876923 7.407411 109.200000 7.503323 109.523077 7.599780 109.846154 7.696779 110.169231 7.794317 110.492308 7.892390 110.815385 7.990996 111.138462 8.090131 111.461538 8.189792 111.784615 8.289976 112.107692 8.390680 112.430769 8.491901 112.753846 8.593635 113.076923 8.695879 113.400000 8.798631 113.723077 8.901886 114.046154 9.005643 114.369231 9.109896 114.692308 9.214645 115.015385 9.319884 115.338462 9.425612 115.661538 9.531825 115.984615 9.638519 116.307692 9.745692 116.630769 9.853340 116.953846 9.961461 117.276923 10.070051 117.600000 10.179107 117.923077 10.288625 118.246154 10.398603 118.569231 10.509037 118.892308 10.619925 119.215385 10.731263 119.538462 10.843047 119.861538 10.955276 120.184615 11.067945 120.507692 11.181051 120.830769 11.294592 121.153846 11.408563 121.476923 11.522963 121.800000 11.637787 122.123077 11.753033 122.446154 11.868697 122.769231 11.984776 123.092308 12.101267 123.415385 12.218168 123.738462 12.335473 124.061538 12.453182 124.384615 12.571290 124.707692 12.689794 125.030769 12.808691 125.353846 12.927978 125.676923 13.047651 126.000000 13.167708 126.323077 13.288146 126.646154 13.408960 126.969231 13.530149 127.292308 13.651708 127.615385 13.773635 127.938462 13.895927 128.261538 14.018580 128.584615 14.141591 128.907692 14.264957 129.230769 14.388674 129.553846 14.512741 129.876923 14.637153 130.200000 14.761907 130.523077 14.887001 130.846154 15.012430 131.169231 15.138192 131.492308 15.264284 131.815385 15.390702 132.138462 15.517444 132.461538 15.644505 132.784615 15.771884 133.107692 15.899576 133.430769 16.027579 133.753846 16.155890 134.076923 16.284505 134.400000 16.413420 134.723077 16.542634 135.046154 16.672143 135.369231 16.801943 135.692308 16.932031 136.015385 17.062405 136.338462 17.193061 136.661538 17.323996 136.984615 17.455207 137.307692 17.586690 137.630769 17.718442 137.953846 17.850461 138.276923 17.982743 138.600000 18.115285 138.923077 18.248083 139.246154 18.381135 139.569231 18.514438 139.892308 18.647987 140.215385 18.781781 140.538462 18.915816 140.861538 19.050088 141.184615 19.184595 141.507692 19.319333 141.830769 19.454299 142.153846 19.589491 142.476923 19.724904 142.800000 19.860536 143.123077 19.996384 143.446154 20.132444 143.769231 20.268713 144.092308 20.405188 144.415385 20.541866 144.738462 20.678744 145.061538 20.815818 145.384615 20.953085 145.707692 21.090543 146.030769 21.228188 146.353846 21.366016 146.676923 21.504025 147.000000 21.642212 147.323077 21.780573 147.646154 21.919105 147.969231 22.057805 148.292308 22.196670 148.615385 22.335697 148.938462 22.474882 149.261538 22.614222 149.584615 22.753715 149.907692 22.893356 150.230769 23.033143 150.553846 23.173073 150.876923 23.313143 151.200000 23.453348 151.523077 23.593687 151.846154 23.734156 152.169231 23.874751 152.492308 24.015470 152.815385 24.156310 153.138462 24.297267 153.461538 24.438338 153.784615 24.579519 154.107692 24.720809 154.430769 24.862203 154.753846 25.003699 155.076923 25.145293 155.400000 25.286982 155.723077 25.428763 156.046154 25.570632 156.369231 25.712587 156.692308 25.854625 157.015385 25.996742 157.338462 26.138935 157.661538 26.281201 157.984615 26.423536 158.307692 26.565938 158.630769 26.708404 158.953846 26.850929 159.276923 26.993512 159.600000 27.136149 159.923077 27.278836 160.246154 27.421571 160.569231 27.564350 160.892308 27.707171 161.215385 27.850029 161.538462 27.992923 161.861538 28.135848 162.184615 28.278802 162.507692 28.421780 162.830769 28.564782 163.153846 28.707802 163.476923 28.850838 163.800000 28.993886 164.123077 29.136945 164.446154 29.280009 164.769231 29.423077" class="line reactive nofill" /></g></g><g class="titles" /><g transform="translate(22, 10)" class="plot overlay"><g class="series serie-0 color-0" /></g><g transform="translate(22, 10)" class="plot text-overlay"><g class="series serie-0 color-0" /></g><g transform="translate(22, 10)" class="plot tooltip-overlay"><g transform="translate(0 0)" style="opacity: 0" class="tooltip"><rect rx="0" ry="0" width="0" height="0" class="tooltip-box" /><g class="text" /></g></g></g></svg>