<?xml version='1.0' encoding='utf-8'?>
<svg xmlns="http://www.w3.org/2000/svg" id="chart-755004c7-b724-453f-b0d0-9aa2a9ee2b9c" class="pygal-chart pygal-sparkline" viewBox="0 0 200 50" width="200" height="50"><!--Generated with pygal 3.0.5 (etree) ©Kozea 2012-2016 on 2025-01-19--><!--http://pygal.org--><!--http://github.com/Kozea/pygal--><defs><style type="text/css">#chart-755004c7-b724-453f-b0d0-9aa2a9ee2b9c{-webkit-user-select:none;-webkit-font-smoothing:antialiased;font-family:Consolas,"Liberation Mono",Menlo,Courier,monospace}#chart-755004c7-b724-453f-b0d0-9aa2a9ee2b9c .title{font-family:Consolas,"Liberation Mono",Menlo,Courier,monospace;font-size:16px}#chart-755004c7-b724-453f-b0d0-9aa2a9ee2b9c .legends .legend text{font-family:Consolas,"Liberation Mono",Menlo,Courier,monospace;font-size:14px}#chart-755004c7-b724-453f-b0d0-9aa2a9ee2b9c .axis text{font-family:Consolas,"Liberation Mono",Menlo,Courier,monospace;font-size:10px}#chart-755004c7-b724-453f-b0d0-9aa2a9ee2b9c .axis text.major{font-family:Consolas,"Liberation Mono",Menlo,Courier,monospace;font-size:10px}#chart-755004c7-b724-453f-b0d0-9aa2a9ee2b9c .text-overlay text.value{font-family:Consolas,"Liberation Mono",Menlo,Courier,monospace;font-size:16px}#chart-755004c7-b724-453f-b0d0-9aa2a9ee2b9c .text-overlay text.label{font-family:Consolas,"Liberation Mono",Menlo,Courier,monospace;font-size:10px}#chart-755004c7-b724-453f-b0d0-9aa2a9ee2b9c .tooltip{font-family:Consolas,"Liberation Mono",Menlo,Courier,monospace;font-size:14px}#chart-755004c7-b724-453f-b0d0-9aa2a9ee2b9c text.no_data{font-family:Consolas,"Liberation Mono",Menlo,Courier,monospace;font-size:64px}
#chart-755004c7-b724-453f-b0d0-9aa2a9ee2b9c{background-color:rgba(249,249,249,1)}#chart-755004c7-b724-453f-b0d0-9aa2a9ee2b9c path,#chart-755004c7-b724-453f-b0d0-9aa2a9ee2b9c line,#chart-755004c7-b724-453f-b0d0-9aa2a9ee2b9c rect,#chart-755004c7-b724-453f-b0d0-9aa2a9ee2b9c circle{-webkit-transition:150ms;-moz-transition:150ms;transition:150ms}#chart-755004c7-b724-453f-b0d0-9aa2a9ee2b9c .graph &gt; .background{fill:rgba(249,249,249,1)}#chart-755004c7-b724-453f-b0d0-9aa2a9ee2b9c .plot &gt; .background{fill:rgba(255,255,255,1)}#chart-755004c7-b724-453f-b0d0-9aa2a9ee2b9c .graph{fill:rgba(0,0,0,.87)}#chart-755004c7-b724-453f-b0d0-9aa2a9ee2b9c text.no_data{fill:rgba(0,0,0,1)}#chart-755004c7-b724-453f-b0d0-9aa2a9ee2b9c .title{fill:rgba(0,0,0,1)}#chart-755004c7-b724-453f-b0d0-9aa2a9ee2b9c .legends .legend text{fill:rgba(0,0,0,.87)}#chart-755004c7-b724-453f-b0d0-9aa2a9ee2b9c .legends .legend:hover text{fill:rgba(0,0,0,1)}#chart-755004c7-b724-453f-b0d0-9aa2a9ee2b9c .axis .line{stroke:rgba(0,0,0,1)}#chart-755004c7-b724-453f-b0d0-9aa2a9ee2b9c .axis .guide.line{stroke:rgba(0,0,0,.54)}#chart-755004c7-b724-453f-b0d0-9aa2a9ee2b9c .axis .major.line{stroke:rgba(0,0,0,.87)}#chart-755004c7-b724-453f-b0d0-9aa2a9ee2b9c .axis text.major{fill:rgba(0,0,0,1)}#chart-755004c7-b724-453f-b0d0-9aa2a9ee2b9c .axis.y .guides:hover .guide.line,#chart-755004c7-b724-453f-b0d0-9aa2a9ee2b9c .line-graph .axis.x .guides:hover .guide.line,#chart-755004c7-b724-453f-b0d0-9aa2a9ee2b9c .stackedline-graph .axis.x .guides:hover .guide.line,#chart-755004c7-b724-453f-b0d0-9aa2a9ee2b9c .xy-graph .axis.x .guides:hover .guide.line{stroke:rgba(0,0,0,1)}#chart-755004c7-b724-453f-b0d0-9aa2a9ee2b9c .axis .guides:hover text{fill:rgba(0,0,0,1)}#chart-755004c7-b724-453f-b0d0-9aa2a9ee2b9c .reactive{fill-opacity:.7;stroke-opacity:.8;stroke-width:1}#chart-755004c7-b724-453f-b0d0-9aa2a9ee2b9c .ci{stroke:rgba(0,0,0,.87)}#chart-755004c7-b724-453f-b0d0-9aa2a9ee2b9c .reactive.active,#chart-755004c7-b724-453f-b0d0-9aa2a9ee2b9c .active .reactive{fill-opacity:.8;stroke-opacity:.9;stroke-width:4}#chart-755004c7-b724-453f-b0d0-9aa2a9ee2b9c .ci .reactive.active{stroke-width:1.5}#chart-755004c7-b724-453f-b0d0-9aa2a9ee2b9c .series text{fill:rgba(0,0,0,1)}#chart-755004c7-b724-453f-b0d0-9aa2a9ee2b9c .tooltip rect{fill:rgba(255,255,255,1);stroke:rgba(0,0,0,1);-webkit-transition:opacity 150ms;-moz-transition:opacity 150ms;transition:opacity 150ms}#chart-755004c7-b724-453f-b0d0-9aa2a9ee2b9c .tooltip .label{fill:rgba(0,0,0,.87)}#chart-755004c7-b724-453f-b0d0-9aa2a9ee2b9c .tooltip .label{fill:rgba(0,0,0,.87)}#chart-755004c7-b724-453f-b0d0-9aa2a9ee2b9c .tooltip .legend{font-size:.8em;fill:rgba(0,0,0,.54)}#chart-755004c7-b724-453f-b0d0-9aa2a9ee2b9c .tooltip .x_label{font-size:.6em;fill:rgba(0,0,0,1)}#chart-755004c7-b724-453f-b0d0-9aa2a9ee2b9c .tooltip .xlink{font-size:.5em;text-decoration:underline}#chart-755004c7-b724-453f-b0d0-9aa2a9ee2b9c .tooltip .value{font-size:1.5em}#chart-755004c7-b724-453f-b0d0-9aa2a9ee2b9c .bound{font-size:.5em}#chart-755004c7-b724-453f-b0d0-9aa2a9ee2b9c .max-value{font-size:.75em;fill:rgba(0,0,0,.54)}#chart-755004c7-b724-453f-b0d0-9aa2a9ee2b9c .map-element{fill:rgba(255,255,255,1);stroke:rgba(0,0,0,.54) !important}#chart-755004c7-b724-453f-b0d0-9aa2a9ee2b9c .map-element .reactive{fill-opacity:inherit;stroke-opacity:inherit}#chart-755004c7-b724-453f-b0d0-9aa2a9ee2b9c .color-0,#chart-755004c7-b724-453f-b0d0-9aa2a9ee2b9c .color-0 a:visited{stroke:#F44336;fill:#F44336}#chart-755004c7-b724-453f-b0d0-9aa2a9ee2b9c .text-overlay .color-0 text{fill:black}
#chart-755004c7-b724-453f-b0d0-9aa2a9ee2b9c text.no_data{text-anchor:middle}#chart-755004c7-b724-453f-b0d0-9aa2a9ee2b9c .guide.line{fill:none}#chart-755004c7-b724-453f-b0d0-9aa2a9ee2b9c .centered{text-anchor:middle}#chart-755004c7-b724-453f-b0d0-9aa2a9ee2b9c .title{text-anchor:middle}#chart-755004c7-b724-453f-b0d0-9aa2a9ee2b9c .legends .legend text{fill-opacity:1}#chart-755004c7-b724-453f-b0d0-9aa2a9ee2b9c .axis.x text{text-anchor:middle}#chart-755004c7-b724-453f-b0d0-9aa2a9ee2b9c .axis.x:not(.web) text[transform]{text-anchor:start}#chart-755004c7-b724-453f-b0d0-9aa2a9ee2b9c .axis.x:not(.web) text[transform].backwards{text-anchor:end}#chart-755004c7-b724-453f-b0d0-9aa2a9ee2b9c .axis.y text{text-anchor:end}#chart-755004c7-b724-453f-b0d0-9aa2a9ee2b9c .axis.y text[transform].backwards{text-anchor:start}#chart-755004c7-b724-453f-b0d0-9aa2a9ee2b9c .axis.y2 text{text-anchor:start}#chart-755004c7-b724-453f-b0d0-9aa2a9ee2b9c .axis.y2 text[transform].backwards{text-anchor:end}#chart-755004c7-b724-453f-b0d0-9aa2a9ee2b9c .axis .guide.line{stroke-dasharray:4,4;stroke:black}#chart-755004c7-b724-453f-b0d0-9aa2a9ee2b9c .axis .major.guide.line{stroke-dasharray:6,6;stroke:black}#chart-755004c7-b724-453f-b0d0-9aa2a9ee2b9c .horizontal .axis.y .guide.line,#chart-755004c7-b724-453f-b0d0-9aa2a9ee2b9c .horizontal .axis.y2 .guide.line,#chart-755004c7-b724-453f-b0d0-9aa2a9ee2b9c .vertical .axis.x .guide.line{opacity:0}#chart-755004c7-b724-453f-b0d0-9aa2a9ee2b9c .horizontal .axis.always_show .guide.line,#chart-755004c7-b724-453f-b0d0-9aa2a9ee2b9c .vertical .axis.always_show .guide.line{opacity:1 !important}#chart-755004c7-b724-453f-b0d0-9aa2a9ee2b9c .axis.y .guides:hover .guide.line,#chart-755004c7-b724-453f-b0d0-9aa2a9ee2b9c .axis.y2 .guides:hover .guide.line,#chart-755004c7-b724-453f-b0d0-9aa2a9ee2b9c .axis.x .guides:hover .guide.line{opacity:1}#chart-755004c7-b724-453f-b0d0-9aa2a9ee2b9c .axis .guides:hover text{opacity:1}#chart-755004c7-b724-453f-b0d0-9aa2a9ee2b9c .nofill{fill:none}#chart-755004c7-b724-453f-b0d0-9aa2a9ee2b9c .subtle-fill{fill-opacity:.2}#chart-755004c7-b724-453f-b0d0-9aa2a9ee2b9c .dot{stroke-width:1px;fill-opacity:1;stroke-opacity:1}#chart-755004c7-b724-453f-b0d0-9aa2a9ee2b9c .dot.active{stroke-width:5px}#chart-755004c7-b724-453f-b0d0-9aa2a9ee2b9c .dot.negative{fill:transparent}#chart-755004c7-b724-453f-b0d0-9aa2a9ee2b9c text,#chart-755004c7-b724-453f-b0d0-9aa2a9ee2b9c tspan{stroke:none !important}#chart-755004c7-b724-453f-b0d0-9aa2a9ee2b9c .series text.active{opacity:1}#chart-755004c7-b724-453f-b0d0-9aa2a9ee2b9c .tooltip rect{fill-opacity:.95;stroke-width:.5}#chart-755004c7-b724-453f-b0d0-9aa2a9ee2b9c .tooltip text{fill-opacity:1}#chart-755004c7-b724-453f-b0d0-9aa2a9ee2b9c .showable{visibility:hidden}#chart-755004c7-b724-453f-b0d0-9aa2a9ee2b9c .showable.shown{visibility:visible}#chart-755004c7-b724-453f-b0d0-9aa2a9ee2b9c .gauge-background{fill:rgba(229,229,229,1);stroke:none}#chart-755004c7-b724-453f-b0d0-9aa2a9ee2b9c .bg-lines{stroke:rgba(249,249,249,1);stroke-width:2px}</style><script type="text/javascript">window.pygal = window.pygal || {};window.pygal.config = window.pygal.config || {};window.pygal.config['755004c7-b724-453f-b0d0-9aa2a9ee2b9c'] = {"allow_interruptions": false, "box_mode": "extremes", "classes": ["pygal-chart", "pygal-sparkline"], "css": ["file://style.css", "file://graph.css"], "defs": [], "disable_xml_declaration": false, "dots_size": 2.5, "dynamic_print_values": false, "explicit_size": true, "fill": false, "force_uri_protocol": "https", "formatter": null, "half_pie": false, "height": 50, "include_x_axis": false, "inner_radius": 0, "interpolate": "cubic", "interpolation_parameters": {}, "interpolation_precision": 250, "inverse_y_axis": false, "js": [], "legend_at_bottom": false, "legend_at_bottom_columns": null, "legend_box_size": 12, "logarithmic": false, "margin": 10, "margin_bottom": null, "margin_left": null, "margin_right": null, "margin_top": null, "max_scale": 2, "min_scale": 1, "missing_value_fill_truncation": "x", "no_data_text": "", "no_prefix": false, "order_min": null, "pretty_print": false, "print_labels": false, "print_values": false, "print_values_position": "center", "print_zeroes": true, "range": null, "rounded_bars": null, "secondary_range": null, "show_dots": false, "show_legend": false, "show_minor_x_labels": true, "show_minor_y_labels": true, "show_only_major_dots": false, "show_x_guides": false, "show_x_labels": false, "show_y_guides": true, "show_y_labels": true, "spacing": 0, "stack_from_top": false, "strict": false, "stroke": true, "stroke_style": null, "style": {"background": "rgba(249, 249, 249, 1)", "ci_colors": [], "colors": ["#F44336", "#3F51B5", "#009688", "#FFC107", "#FF5722", "#9C27B0", "#03A9F4", "#8BC34A", "#FF9800", "#E91E63", "#2196F3", "#4CAF50", "#FFEB3B", "#673AB7", "#00BCD4", "#CDDC39", "#9E9E9E", "#607D8B"], "dot_opacity": "1", "font_family": "Consolas, \"Liberation Mono\", Menlo, Courier, monospace", "foreground": "rgba(0, 0, 0, .87)", "foreground_strong": "rgba(0, 0, 0, 1)", "foreground_subtle": "rgba(0, 0, 0, .54)", "guide_stroke_color": "black", "guide_stroke_dasharray": "4,4", "label_font_family": "Consolas, \"Liberation Mono\", Menlo, Courier, monospace", "label_font_size": 10, "legend_font_family": "Consolas, \"Liberation Mono\", Menlo, Courier, monospace", "legend_font_size": 14, "major_guide_stroke_color": "black", "major_guide_stroke_dasharray": "6,6", "major_label_font_family": "Consolas, \"Liberation Mono\", Menlo, Courier, monospace", "major_label_font_size": 10, "no_data_font_family": "Consolas, \"Liberation Mono\", Menlo, Courier, monospace", "no_data_font_size": 64, "opacity": ".7", "opacity_hover": ".8", "plot_background": "rgba(255, 255, 255, 1)", "stroke_opacity": ".8", "stroke_opacity_hover": ".9", "stroke_width": "1", "stroke_width_hover": "4", "title_font_family": "Consolas, \"Liberation Mono\", Menlo, Courier, monospace", "title_font_size": 16, "tooltip_font_family": "Consolas, \"Liberation Mono\", Menlo, Courier, monospace", "tooltip_font_size": 14, "transition": "150ms", "value_background": "rgba(229, 229, 229, 1)", "value_colors": [], "value_font_family": "Consolas, \"Liberation Mono\", Menlo, Courier, monospace", "value_font_size": 16, "value_label_font_family": "Consolas, \"Liberation Mono\", Menlo, Courier, monospace", "value_label_font_size": 10}, "title": null, "tooltip_border_radius": 0, "tooltip_fancy_mode": true, "truncate_label": null, "truncate_legend": null, "width": 200, "x_label_rotation": 0, "x_labels": ["2025/1", "2024/12", "2024/10", "2024/9", "2024/8"], "x_labels_major": null, "x_labels_major_count": null, "x_labels_major_every": null, "x_title": null, "xrange": null, "y_label_rotation": 0, "y_labels": null, "y_labels_major": null, "y_labels_major_count": null, "y_labels_major_every": null, "y_title": null, "zero": 0, "legends": [""]}</script></defs><title>Pygal</title><g class="graph line-graph vertical"><rect x="0" y="0" width="200" height="50" class="background" /><g transform="translate(76, 10)" class="plot"><rect x="0" y="0" width="114.0" height="30" class="background" /><g class="axis y always_show"><path d="M0.000000 30.000000 h114.000000" class="line" /><g class="guides"><path d="M0.000000 29.423077 h114.000000" class="guide line" /><text x="-5" y="32.92307692307692" class="">1</text><title>1</title></g><g class="guides"><path d="M0.000000 0.576923 h114.000000" class="guide line" /><text x="-5" y="4.076923076923077" class="">15.04809441</text><title>15.04809441</title></g></g><g class="series serie-0 color-0"><path d="M2.192308 29.423077 L2.301923 29.315715 2.411538 29.208357 2.521154 29.101007 2.630769 28.993669 2.740385 28.886347 2.850000 28.779045 2.959615 28.671766 3.069231 28.564516 3.178846 28.457298 3.288462 28.350116 3.398077 28.242974 3.507692 28.135876 3.617308 28.028826 3.726923 27.921828 3.836538 27.814885 3.946154 27.708003 4.055769 27.601185 4.165385 27.494435 4.275000 27.387756 4.384615 27.281154 4.494231 27.174632 4.603846 27.068193 4.713462 26.961843 4.823077 26.855585 4.932692 26.749422 5.042308 26.643360 5.151923 26.537401 5.261538 26.431551 5.371154 26.325812 5.480769 26.220190 5.590385 26.114687 5.700000 26.009308 5.809615 25.904058 5.919231 25.798939 6.028846 25.693956 6.138462 25.589114 6.248077 25.484415 6.357692 25.379864 6.467308 25.275465 6.576923 25.171222 6.686538 25.067139 6.796154 24.963220 6.905769 24.859469 7.015385 24.755889 7.125000 24.652486 7.234615 24.549263 7.344231 24.446224 7.453846 24.343372 7.563462 24.240713 7.673077 24.138249 7.782692 24.035986 7.892308 23.933926 8.001923 23.832074 8.111538 23.730435 8.221154 23.629011 8.330769 23.527807 8.440385 23.426827 8.550000 23.326075 8.659615 23.225555 8.769231 23.125271 8.878846 23.025227 8.988462 22.925426 9.098077 22.825874 9.207692 22.726573 9.317308 22.627529 9.426923 22.528744 9.536538 22.430224 9.646154 22.331971 9.755769 22.233990 9.865385 22.136285 9.975000 22.038860 10.084615 21.941719 10.194231 21.844866 10.303846 21.748305 10.413462 21.652039 10.523077 21.556074 10.632692 21.460412 10.742308 21.365059 10.851923 21.270017 10.961538 21.175291 11.071154 21.080885 11.180769 20.986804 11.290385 20.893049 11.400000 20.799627 11.509615 20.706541 11.619231 20.613795 11.728846 20.521392 11.838462 20.429338 11.948077 20.337635 12.057692 20.246288 12.167308 20.155301 12.276923 20.064678 12.386538 19.974423 12.496154 19.884540 12.605769 19.795033 12.715385 19.705905 12.825000 19.617162 12.934615 19.528806 13.044231 19.440842 13.153846 19.353274 13.263462 19.266106 13.373077 19.179342 13.482692 19.092986 13.592308 19.007041 13.701923 18.921513 13.811538 18.836404 13.921154 18.751720 14.030769 18.667463 14.140385 18.583638 14.250000 18.500249 14.359615 18.417299 14.469231 18.334794 14.578846 18.252736 14.688462 18.171131 14.798077 18.089981 14.907692 18.009291 15.017308 17.929065 15.126923 17.849307 15.236538 17.770021 15.346154 17.691210 15.455769 17.612879 15.565385 17.535033 15.675000 17.457674 15.784615 17.380807 15.894231 17.304436 16.003846 17.228564 16.113462 17.153197 16.223077 17.078337 16.332692 17.003989 16.442308 16.930157 16.551923 16.856845 16.661538 16.784057 16.771154 16.711797 16.880769 16.640068 16.990385 16.568875 17.100000 16.498222 17.209615 16.428113 17.319231 16.358552 17.428846 16.289543 17.538462 16.221089 17.648077 16.153196 17.757692 16.085866 17.867308 16.019104 17.976923 15.952913 18.086538 15.887299 18.196154 15.822265 18.305769 15.757814 18.415385 15.693951 18.525000 15.630680 18.634615 15.568005 18.744231 15.505929 18.853846 15.444458 18.963462 15.383594 19.073077 15.323342 19.182692 15.263706 19.292308 15.204690 19.401923 15.146297 19.511538 15.088532 19.621154 15.031400 19.730769 14.974902 19.840385 14.919045 19.950000 14.863832 20.059615 14.809266 20.169231 14.755352 20.278846 14.702094 20.388462 14.649496 20.498077 14.597562 20.607692 14.546295 20.717308 14.495700 20.826923 14.445781 20.936538 14.396542 21.046154 14.347987 21.155769 14.300119 21.265385 14.252943 21.375000 14.206463 21.484615 14.160683 21.594231 14.115607 21.703846 14.071238 21.813462 14.027581 21.923077 13.984640 22.032692 13.942419 22.142308 13.900922 22.251923 13.860152 22.361538 13.820114 22.471154 13.780812 22.580769 13.742250 22.690385 13.704431 22.800000 13.667360 22.909615 13.631041 23.019231 13.595478 23.128846 13.560675 23.238462 13.526635 23.348077 13.493363 23.457692 13.460863 23.567308 13.429138 23.676923 13.398194 23.786538 13.368033 23.896154 13.338660 24.005769 13.310079 24.115385 13.282293 24.225000 13.255308 24.334615 13.229126 24.444231 13.203751 24.553846 13.179189 24.663462 13.155442 24.773077 13.132515 24.882692 13.110412 24.992308 13.089137 25.101923 13.068693 25.211538 13.049085 25.321154 13.030317 25.430769 13.012392 25.540385 12.995316 25.650000 12.979091 25.759615 12.963722 25.869231 12.949212 25.978846 12.935567 26.088462 12.922789 26.198077 12.910882 26.307692 12.899852 26.417308 12.889701 26.526923 12.880434 26.636538 12.872055 26.746154 12.864568 26.855769 12.857976 26.965385 12.852284 27.075000 12.847496 27.184615 12.843615 27.294231 12.840646 27.403846 12.838593 27.513462 12.837460 27.623077 12.837250 27.732692 12.837968 27.842308 12.839618 27.951923 12.842203 28.061538 12.845729 28.171154 12.850198 28.280769 12.855614 28.390385 12.861983 28.500000 12.869307 28.609615 12.877591 28.719231 12.886838 28.828846 12.897054 28.938462 12.908241 29.048077 12.920403 29.157692 12.933546 29.267308 12.947672 29.376923 12.962786 29.486538 12.978891 29.596154 12.995993 29.705769 13.014091 29.815385 13.033180 29.925000 13.053249 30.034615 13.074288 30.144231 13.096288 30.253846 13.119239 30.363462 13.143132 30.473077 13.167955 30.582692 13.193701 30.692308 13.220358 30.801923 13.247918 30.911538 13.276371 31.021154 13.305706 31.130769 13.335914 31.240385 13.366985 31.350000 13.398910 31.459615 13.431679 31.569231 13.465282 31.678846 13.499709 31.788462 13.534951 31.898077 13.570998 32.007692 13.607840 32.117308 13.645467 32.226923 13.683869 32.336538 13.723038 32.446154 13.762962 32.555769 13.803633 32.665385 13.845041 32.775000 13.887176 32.884615 13.930027 32.994231 13.973586 33.103846 14.017843 33.213462 14.062788 33.323077 14.108410 33.432692 14.154702 33.542308 14.201652 33.651923 14.249250 33.761538 14.297488 33.871154 14.346356 33.980769 14.395843 34.090385 14.445940 34.200000 14.496638 34.309615 14.547925 34.419231 14.599794 34.528846 14.652233 34.638462 14.705234 34.748077 14.758787 34.857692 14.812881 34.967308 14.867507 35.076923 14.922655 35.186538 14.978316 35.296154 15.034479 35.405769 15.091136 35.515385 15.148276 35.625000 15.205890 35.734615 15.263967 35.844231 15.322498 35.953846 15.381474 36.063462 15.440884 36.173077 15.500719 36.282692 15.560970 36.392308 15.621625 36.501923 15.682676 36.611538 15.744113 36.721154 15.805926 36.830769 15.868106 36.940385 15.930642 37.050000 15.993525 37.159615 16.056745 37.269231 16.120293 37.378846 16.184158 37.488462 16.248331 37.598077 16.312802 37.707692 16.377562 37.817308 16.442600 37.926923 16.507908 38.036538 16.573474 38.146154 16.639290 38.255769 16.705346 38.365385 16.771631 38.475000 16.838137 38.584615 16.904853 38.694231 16.971770 38.803846 17.038878 38.913462 17.106168 39.023077 17.173628 39.132692 17.241251 39.242308 17.309025 39.351923 17.376942 39.461538 17.444992 39.571154 17.513164 39.680769 17.581449 39.790385 17.649837 39.900000 17.718319 40.009615 17.786885 40.119231 17.855525 40.228846 17.924229 40.338462 17.992988 40.448077 18.061791 40.557692 18.130630 40.667308 18.199494 40.776923 18.268373 40.886538 18.337259 40.996154 18.406140 41.105769 18.475008 41.215385 18.543853 41.325000 18.612664 41.434615 18.681433 41.544231 18.750149 41.653846 18.818803 41.763462 18.887384 41.873077 18.955884 41.982692 19.024292 42.092308 19.092599 42.201923 19.160795 42.311538 19.228870 42.421154 19.296814 42.530769 19.364618 42.640385 19.432272 42.750000 19.499766 42.859615 19.567091 42.969231 19.634237 43.078846 19.701193 43.188462 19.767951 43.298077 19.834500 43.407692 19.900831 43.517308 19.966934 43.626923 20.032799 43.736538 20.098417 43.846154 20.163777 43.955769 20.228871 44.065385 20.293688 44.175000 20.358218 44.284615 20.422452 44.394231 20.486381 44.503846 20.549993 44.613462 20.613280 44.723077 20.676232 44.832692 20.738839 44.942308 20.801092 45.051923 20.862980 45.161538 20.924494 45.271154 20.985624 45.380769 21.046360 45.490385 21.106693 45.600000 21.166613 45.709615 21.226110 45.819231 21.285174 45.928846 21.343796 46.038462 21.401966 46.148077 21.459674 46.257692 21.516911 46.367308 21.573666 46.476923 21.629930 46.586538 21.685694 46.696154 21.740947 46.805769 21.795679 46.915385 21.849882 47.025000 21.903544 47.134615 21.956657 47.244231 22.009211 47.353846 22.061196 47.463462 22.112602 47.573077 22.163420 47.682692 22.213639 47.792308 22.263251 47.901923 22.312244 48.011538 22.360610 48.121154 22.408339 48.230769 22.455421 48.340385 22.501846 48.450000 22.547605 48.559615 22.592688 48.669231 22.637085 48.778846 22.680786 48.888462 22.723781 48.998077 22.766061 49.107692 22.807617 49.217308 22.848438 49.326923 22.888514 49.436538 22.927836 49.546154 22.966395 49.655769 23.004180 49.765385 23.041181 49.875000 23.077389 49.984615 23.112795 50.094231 23.147388 50.203846 23.181158 50.313462 23.214096 50.423077 23.246193 50.532692 23.277438 50.642308 23.307821 50.751923 23.337334 50.861538 23.365966 50.971154 23.393707 51.080769 23.420548 51.190385 23.446479 51.300000 23.471490 51.409615 23.495571 51.519231 23.518713 51.628846 23.540907 51.738462 23.562141 51.848077 23.582407 51.957692 23.601695 52.067308 23.619995 52.176923 23.637297 52.286538 23.653591 52.396154 23.668869 52.505769 23.683119 52.615385 23.696333 52.725000 23.708500 52.834615 23.719611 52.944231 23.729656 53.053846 23.738625 53.163462 23.746509 53.273077 23.753298 53.382692 23.758982 53.492308 23.763551 53.601923 23.766996 53.711538 23.769306 53.821154 23.770473 53.930769 23.770486 54.040385 23.769336 54.150000 23.767013 54.259615 23.763506 54.369231 23.758808 54.478846 23.752906 54.588462 23.745793 54.698077 23.737458 54.807692 23.727891 54.917308 23.717083 55.026923 23.705024 55.136538 23.691704 55.246154 23.677114 55.355769 23.661243 55.465385 23.644082 55.575000 23.625622 55.684615 23.605852 55.794231 23.584762 55.903846 23.562344 56.013462 23.538587 56.123077 23.513481 56.232692 23.487017 56.342308 23.459185 56.451923 23.429976 56.561538 23.399378 56.671154 23.367384 56.780769 23.333983 56.890385 23.299165 57.000000 23.262920 57.109615 23.225243 57.219231 23.186142 57.328846 23.145629 57.438462 23.103716 57.548077 23.060415 57.657692 23.015739 57.767308 22.969699 57.876923 22.922308 57.986538 22.873577 58.096154 22.823519 58.205769 22.772146 58.315385 22.719470 58.425000 22.665503 58.534615 22.610258 58.644231 22.553745 58.753846 22.495979 58.863462 22.436969 58.973077 22.376730 59.082692 22.315272 59.192308 22.252608 59.301923 22.188750 59.411538 22.123710 59.521154 22.057500 59.630769 21.990133 59.740385 21.921620 59.850000 21.851973 59.959615 21.781205 60.069231 21.709328 60.178846 21.636354 60.288462 21.562295 60.398077 21.487163 60.507692 21.410970 60.617308 21.333728 60.726923 21.255450 60.836538 21.176147 60.946154 21.095832 61.055769 21.014516 61.165385 20.932213 61.275000 20.848933 61.384615 20.764689 61.494231 20.679494 61.603846 20.593359 61.713462 20.506296 61.823077 20.418318 61.932692 20.329436 62.042308 20.239663 62.151923 20.149011 62.261538 20.057492 62.371154 19.965118 62.480769 19.871901 62.590385 19.777853 62.700000 19.682987 62.809615 19.587314 62.919231 19.490846 63.028846 19.393597 63.138462 19.295577 63.248077 19.196799 63.357692 19.097275 63.467308 18.997018 63.576923 18.896038 63.686538 18.794349 63.796154 18.691962 63.905769 18.588890 64.015385 18.485145 64.125000 18.380738 64.234615 18.275682 64.344231 18.169990 64.453846 18.063672 64.563462 17.956742 64.673077 17.849210 64.782692 17.741091 64.892308 17.632395 65.001923 17.523134 65.111538 17.413322 65.221154 17.302969 65.330769 17.192088 65.440385 17.080691 65.550000 16.968791 65.659615 16.856399 65.769231 16.743527 65.878846 16.630188 65.988462 16.516393 66.098077 16.402155 66.207692 16.287486 66.317308 16.172398 66.426923 16.056903 66.536538 15.941014 66.646154 15.824741 66.755769 15.708098 66.865385 15.591096 66.975000 15.473749 67.084615 15.356066 67.194231 15.238062 67.303846 15.119748 67.413462 15.001135 67.523077 14.882237 67.632692 14.763065 67.742308 14.643632 67.851923 14.523949 67.961538 14.404028 68.071154 14.283883 68.180769 14.163524 68.290385 14.042964 68.400000 13.922215 68.509615 13.801289 68.619231 13.680199 68.728846 13.558956 68.838462 13.437572 68.948077 13.316060 69.057692 13.194432 69.167308 13.072699 69.276923 12.950875 69.386538 12.828970 69.496154 12.706998 69.605769 12.584969 69.715385 12.462898 69.825000 12.340794 69.934615 12.218671 70.044231 12.096541 70.153846 11.974416 70.263462 11.852307 70.373077 11.730228 70.482692 11.608189 70.592308 11.486204 70.701923 11.364285 70.811538 11.242442 70.921154 11.120689 71.030769 10.999038 71.140385 10.877501 71.250000 10.756089 71.359615 10.634816 71.469231 10.513692 71.578846 10.392731 71.688462 10.271944 71.798077 10.151344 71.907692 10.030942 72.017308 9.910751 72.126923 9.790782 72.236538 9.671048 72.346154 9.551562 72.455769 9.432334 72.565385 9.313378 72.675000 9.194704 72.784615 9.076327 72.894231 8.958256 73.003846 8.840506 73.113462 8.723087 73.223077 8.606012 73.332692 8.489293 73.442308 8.372942 73.551923 8.256971 73.661538 8.141392 73.771154 8.026218 73.880769 7.911461 73.990385 7.797131 74.100000 7.683243 74.209615 7.569808 74.319231 7.456837 74.428846 7.344343 74.538462 7.232339 74.648077 7.120836 74.757692 7.009846 74.867308 6.899382 74.976923 6.789455 75.086538 6.680078 75.196154 6.571263 75.305769 6.463021 75.415385 6.355366 75.525000 6.248309 75.634615 6.141862 75.744231 6.036038 75.853846 5.930848 75.963462 5.826304 76.073077 5.722419 76.182692 5.619205 76.292308 5.516674 76.401923 5.414838 76.511538 5.313709 76.621154 5.213299 76.730769 5.113621 76.840385 5.014686 76.950000 4.916506 77.059615 4.819094 77.169231 4.722462 77.278846 4.626622 77.388462 4.531586 77.498077 4.437366 77.607692 4.343974 77.717308 4.251422 77.826923 4.159723 77.936538 4.068889 78.046154 3.978931 78.155769 3.889861 78.265385 3.801693 78.375000 3.714438 78.484615 3.628107 78.594231 3.542714 78.703846 3.458271 78.813462 3.374788 78.923077 3.292279 79.032692 3.210756 79.142308 3.130231 79.251923 3.050715 79.361538 2.972221 79.471154 2.894761 79.580769 2.818348 79.690385 2.742993 79.800000 2.668708 79.909615 2.595506 80.019231 2.523398 80.128846 2.452397 80.238462 2.382515 80.348077 2.313763 80.457692 2.246155 80.567308 2.179702 80.676923 2.114416 80.786538 2.050310 80.896154 1.987395 81.005769 1.925684 81.115385 1.865188 81.225000 1.805920 81.334615 1.747892 81.444231 1.691116 81.553846 1.635605 81.663462 1.581369 81.773077 1.528422 81.882692 1.476775 81.992308 1.426441 82.101923 1.377432 82.211538 1.329759 82.321154 1.283435 82.430769 1.238472 82.540385 1.194883 82.650000 1.152678 82.759615 1.111871 82.869231 1.072474 82.978846 1.034498 83.088462 0.997955 83.198077 0.962859 83.307692 0.929220 83.417308 0.897051 83.526923 0.866364 83.636538 0.837172 83.746154 0.809486 83.855769 0.783318 83.965385 0.758681 84.075000 0.735586 84.184615 0.714046 84.294231 0.694073 84.403846 0.675679 84.513462 0.658873 84.623077 0.643652 84.732692 0.630009 84.842308 0.617938 84.951923 0.607433 85.061538 0.598487 85.171154 0.591094 85.280769 0.585247 85.390385 0.580941 85.500000 0.578168 85.609615 0.576923 85.719231 0.577199 85.828846 0.578990 85.938462 0.582288 86.048077 0.587089 86.157692 0.593386 86.267308 0.601172 86.376923 0.610440 86.486538 0.621185 86.596154 0.633401 86.705769 0.647080 86.815385 0.662217 86.925000 0.678804 87.034615 0.696836 87.144231 0.716307 87.253846 0.737210 87.363462 0.759538 87.473077 0.783286 87.582692 0.808446 87.692308 0.835013 87.801923 0.862980 87.911538 0.892341 88.021154 0.923089 88.130769 0.955218 88.240385 0.988722 88.350000 1.023595 88.459615 1.059829 88.569231 1.097419 88.678846 1.136358 88.788462 1.176640 88.898077 1.218258 89.007692 1.261207 89.117308 1.305479 89.226923 1.351069 89.336538 1.397970 89.446154 1.446176 89.555769 1.495680 89.665385 1.546475 89.775000 1.598557 89.884615 1.651918 89.994231 1.706551 90.103846 1.762451 90.213462 1.819611 90.323077 1.878025 90.432692 1.937687 90.542308 1.998589 90.651923 2.060726 90.761538 2.124092 90.871154 2.188679 90.980769 2.254482 91.090385 2.321494 91.200000 2.389709 91.309615 2.459120 91.419231 2.529722 91.528846 2.601508 91.638462 2.674470 91.748077 2.748604 91.857692 2.823903 91.967308 2.900359 92.076923 2.977968 92.186538 3.056722 92.296154 3.136616 92.405769 3.217642 92.515385 3.299795 92.625000 3.383068 92.734615 3.467455 92.844231 3.552949 92.953846 3.639544 93.063462 3.727234 93.173077 3.816012 93.282692 3.905872 93.392308 3.996808 93.501923 4.088813 93.611538 4.181881 93.721154 4.276005 93.830769 4.371179 93.940385 4.467397 94.050000 4.564652 94.159615 4.662939 94.269231 4.762250 94.378846 4.862579 94.488462 4.963921 94.598077 5.066267 94.707692 5.169614 94.817308 5.273952 94.926923 5.379278 95.036538 5.485583 95.146154 5.592862 95.255769 5.701109 95.365385 5.810317 95.475000 5.920479 95.584615 6.031589 95.694231 6.143642 95.803846 6.256630 95.913462 6.370547 96.023077 6.485387 96.132692 6.601144 96.242308 6.717810 96.351923 6.835381 96.461538 6.953848 96.571154 7.073207 96.680769 7.193450 96.790385 7.314572 96.900000 7.436565 97.009615 7.559424 97.119231 7.683143 97.228846 7.807714 97.338462 7.933131 97.448077 8.059389 97.557692 8.186480 97.667308 8.314399 97.776923 8.443139 97.886538 8.572693 97.996154 8.703056 98.105769 8.834220 98.215385 8.966180 98.325000 9.098929 98.434615 9.232462 98.544231 9.366770 98.653846 9.501849 98.763462 9.637691 98.873077 9.774291 98.982692 9.911641 99.092308 10.049736 99.201923 10.188570 99.311538 10.328135 99.421154 10.468426 99.530769 10.609436 99.640385 10.751159 99.750000 10.893589 99.859615 11.036718 99.969231 11.180541 100.078846 11.325052 100.188462 11.470243 100.298077 11.616109 100.407692 11.762644 100.517308 11.909840 100.626923 12.057692 100.736538 12.206193 100.846154 12.355336 100.955769 12.505117 101.065385 12.655527 101.175000 12.806561 101.284615 12.958212 101.394231 13.110474 101.503846 13.263341 101.613462 13.416806 101.723077 13.570863 101.832692 13.725506 101.942308 13.880727 102.051923 14.036522 102.161538 14.192883 102.271154 14.349803 102.380769 14.507278 102.490385 14.665300 102.600000 14.823863 102.709615 14.982960 102.819231 15.142586 102.928846 15.302734 103.038462 15.463397 103.148077 15.624569 103.257692 15.786244 103.367308 15.948416 103.476923 16.111077 103.586538 16.274223 103.696154 16.437845 103.805769 16.601939 103.915385 16.766497 104.025000 16.931513 104.134615 17.096981 104.244231 17.262895 104.353846 17.429248 104.463462 17.596034 104.573077 17.763246 104.682692 17.930878 104.792308 18.098923 104.901923 18.267377 105.011538 18.436231 105.121154 18.605479 105.230769 18.775116 105.340385 18.945135 105.450000 19.115529 105.559615 19.286292 105.669231 19.457418 105.778846 19.628901 105.888462 19.800733 105.998077 19.972910 106.107692 20.145423 106.217308 20.318267 106.326923 20.491437 106.436538 20.664924 106.546154 20.838723 106.655769 21.012827 106.765385 21.187231 106.875000 21.361928 106.984615 21.536911 107.094231 21.712173 107.203846 21.887710 107.313462 22.063514 107.423077 22.239579 107.532692 22.415898 107.642308 22.592466 107.751923 22.769275 107.861538 22.946320 107.971154 23.123594 108.080769 23.301091 108.190385 23.478804 108.300000 23.656727 108.409615 23.834854 108.519231 24.013178 108.628846 24.191693 108.738462 24.370393 108.848077 24.549271 108.957692 24.728320 109.067308 24.907535 109.176923 25.086910 109.286538 25.266437 109.396154 25.446110 109.505769 25.625923 109.615385 25.805871 109.725000 25.985945 109.834615 26.166140 109.944231 26.346450 110.053846 26.526868 110.163462 26.707388 110.273077 26.888003 110.382692 27.068707 110.492308 27.249495 110.601923 27.430358 110.711538 27.611292 110.821154 27.792289 110.930769 27.973343 111.040385 28.154448 111.150000 28.335598 111.259615 28.516786 111.369231 28.698006 111.478846 28.879252 111.588462 29.060516 111.698077 29.241793 111.807692 29.423077" class="line reactive nofill" /></g></g><g class="titles" /><g transform="translate(76, 10)" class="plot overlay"><g class="series serie-0 color-0" /></g><g transform="translate(76, 10)" class="plot text-overlay"><g class="series serie-0 color-0" /></g><g transform="translate(76, 10)" class="plot tooltip-overlay"><g transform="translate(0 0)" style="opacity: 0" class="tooltip"><rect rx="0" ry="0" width="0" height="0" class="tooltip-box" /><g class="text" /></g></g></g></svg>