<?xml version='1.0' encoding='utf-8'?>
<svg xmlns="http://www.w3.org/2000/svg" id="chart-19ab275a-45d6-4921-9181-a832aa2b47cf" class="pygal-chart pygal-sparkline" viewBox="0 0 200 50" width="200" height="50"><!--Generated with pygal 3.0.5 (etree) ©Kozea 2012-2016 on 2025-02-09--><!--http://pygal.org--><!--http://github.com/Kozea/pygal--><defs><style type="text/css">#chart-19ab275a-45d6-4921-9181-a832aa2b47cf{-webkit-user-select:none;-webkit-font-smoothing:antialiased;font-family:Consolas,"Liberation Mono",Menlo,Courier,monospace}#chart-19ab275a-45d6-4921-9181-a832aa2b47cf .title{font-family:Consolas,"Liberation Mono",Menlo,Courier,monospace;font-size:16px}#chart-19ab275a-45d6-4921-9181-a832aa2b47cf .legends .legend text{font-family:Consolas,"Liberation Mono",Menlo,Courier,monospace;font-size:14px}#chart-19ab275a-45d6-4921-9181-a832aa2b47cf .axis text{font-family:Consolas,"Liberation Mono",Menlo,Courier,monospace;font-size:10px}#chart-19ab275a-45d6-4921-9181-a832aa2b47cf .axis text.major{font-family:Consolas,"Liberation Mono",Menlo,Courier,monospace;font-size:10px}#chart-19ab275a-45d6-4921-9181-a832aa2b47cf .text-overlay text.value{font-family:Consolas,"Liberation Mono",Menlo,Courier,monospace;font-size:16px}#chart-19ab275a-45d6-4921-9181-a832aa2b47cf .text-overlay text.label{font-family:Consolas,"Liberation Mono",Menlo,Courier,monospace;font-size:10px}#chart-19ab275a-45d6-4921-9181-a832aa2b47cf .tooltip{font-family:Consolas,"Liberation Mono",Menlo,Courier,monospace;font-size:14px}#chart-19ab275a-45d6-4921-9181-a832aa2b47cf text.no_data{font-family:Consolas,"Liberation Mono",Menlo,Courier,monospace;font-size:64px}
#chart-19ab275a-45d6-4921-9181-a832aa2b47cf{background-color:rgba(249,249,249,1)}#chart-19ab275a-45d6-4921-9181-a832aa2b47cf path,#chart-19ab275a-45d6-4921-9181-a832aa2b47cf line,#chart-19ab275a-45d6-4921-9181-a832aa2b47cf rect,#chart-19ab275a-45d6-4921-9181-a832aa2b47cf circle{-webkit-transition:150ms;-moz-transition:150ms;transition:150ms}#chart-19ab275a-45d6-4921-9181-a832aa2b47cf .graph &gt; .background{fill:rgba(249,249,249,1)}#chart-19ab275a-45d6-4921-9181-a832aa2b47cf .plot &gt; .background{fill:rgba(255,255,255,1)}#chart-19ab275a-45d6-4921-9181-a832aa2b47cf .graph{fill:rgba(0,0,0,.87)}#chart-19ab275a-45d6-4921-9181-a832aa2b47cf text.no_data{fill:rgba(0,0,0,1)}#chart-19ab275a-45d6-4921-9181-a832aa2b47cf .title{fill:rgba(0,0,0,1)}#chart-19ab275a-45d6-4921-9181-a832aa2b47cf .legends .legend text{fill:rgba(0,0,0,.87)}#chart-19ab275a-45d6-4921-9181-a832aa2b47cf .legends .legend:hover text{fill:rgba(0,0,0,1)}#chart-19ab275a-45d6-4921-9181-a832aa2b47cf .axis .line{stroke:rgba(0,0,0,1)}#chart-19ab275a-45d6-4921-9181-a832aa2b47cf .axis .guide.line{stroke:rgba(0,0,0,.54)}#chart-19ab275a-45d6-4921-9181-a832aa2b47cf .axis .major.line{stroke:rgba(0,0,0,.87)}#chart-19ab275a-45d6-4921-9181-a832aa2b47cf .axis text.major{fill:rgba(0,0,0,1)}#chart-19ab275a-45d6-4921-9181-a832aa2b47cf .axis.y .guides:hover .guide.line,#chart-19ab275a-45d6-4921-9181-a832aa2b47cf .line-graph .axis.x .guides:hover .guide.line,#chart-19ab275a-45d6-4921-9181-a832aa2b47cf .stackedline-graph .axis.x .guides:hover .guide.line,#chart-19ab275a-45d6-4921-9181-a832aa2b47cf .xy-graph .axis.x .guides:hover .guide.line{stroke:rgba(0,0,0,1)}#chart-19ab275a-45d6-4921-9181-a832aa2b47cf .axis .guides:hover text{fill:rgba(0,0,0,1)}#chart-19ab275a-45d6-4921-9181-a832aa2b47cf .reactive{fill-opacity:.7;stroke-opacity:.8;stroke-width:1}#chart-19ab275a-45d6-4921-9181-a832aa2b47cf .ci{stroke:rgba(0,0,0,.87)}#chart-19ab275a-45d6-4921-9181-a832aa2b47cf .reactive.active,#chart-19ab275a-45d6-4921-9181-a832aa2b47cf .active .reactive{fill-opacity:.8;stroke-opacity:.9;stroke-width:4}#chart-19ab275a-45d6-4921-9181-a832aa2b47cf .ci .reactive.active{stroke-width:1.5}#chart-19ab275a-45d6-4921-9181-a832aa2b47cf .series text{fill:rgba(0,0,0,1)}#chart-19ab275a-45d6-4921-9181-a832aa2b47cf .tooltip rect{fill:rgba(255,255,255,1);stroke:rgba(0,0,0,1);-webkit-transition:opacity 150ms;-moz-transition:opacity 150ms;transition:opacity 150ms}#chart-19ab275a-45d6-4921-9181-a832aa2b47cf .tooltip .label{fill:rgba(0,0,0,.87)}#chart-19ab275a-45d6-4921-9181-a832aa2b47cf .tooltip .label{fill:rgba(0,0,0,.87)}#chart-19ab275a-45d6-4921-9181-a832aa2b47cf .tooltip .legend{font-size:.8em;fill:rgba(0,0,0,.54)}#chart-19ab275a-45d6-4921-9181-a832aa2b47cf .tooltip .x_label{font-size:.6em;fill:rgba(0,0,0,1)}#chart-19ab275a-45d6-4921-9181-a832aa2b47cf .tooltip .xlink{font-size:.5em;text-decoration:underline}#chart-19ab275a-45d6-4921-9181-a832aa2b47cf .tooltip .value{font-size:1.5em}#chart-19ab275a-45d6-4921-9181-a832aa2b47cf .bound{font-size:.5em}#chart-19ab275a-45d6-4921-9181-a832aa2b47cf .max-value{font-size:.75em;fill:rgba(0,0,0,.54)}#chart-19ab275a-45d6-4921-9181-a832aa2b47cf .map-element{fill:rgba(255,255,255,1);stroke:rgba(0,0,0,.54) !important}#chart-19ab275a-45d6-4921-9181-a832aa2b47cf .map-element .reactive{fill-opacity:inherit;stroke-opacity:inherit}#chart-19ab275a-45d6-4921-9181-a832aa2b47cf .color-0,#chart-19ab275a-45d6-4921-9181-a832aa2b47cf .color-0 a:visited{stroke:#F44336;fill:#F44336}#chart-19ab275a-45d6-4921-9181-a832aa2b47cf .text-overlay .color-0 text{fill:black}
#chart-19ab275a-45d6-4921-9181-a832aa2b47cf text.no_data{text-anchor:middle}#chart-19ab275a-45d6-4921-9181-a832aa2b47cf .guide.line{fill:none}#chart-19ab275a-45d6-4921-9181-a832aa2b47cf .centered{text-anchor:middle}#chart-19ab275a-45d6-4921-9181-a832aa2b47cf .title{text-anchor:middle}#chart-19ab275a-45d6-4921-9181-a832aa2b47cf .legends .legend text{fill-opacity:1}#chart-19ab275a-45d6-4921-9181-a832aa2b47cf .axis.x text{text-anchor:middle}#chart-19ab275a-45d6-4921-9181-a832aa2b47cf .axis.x:not(.web) text[transform]{text-anchor:start}#chart-19ab275a-45d6-4921-9181-a832aa2b47cf .axis.x:not(.web) text[transform].backwards{text-anchor:end}#chart-19ab275a-45d6-4921-9181-a832aa2b47cf .axis.y text{text-anchor:end}#chart-19ab275a-45d6-4921-9181-a832aa2b47cf .axis.y text[transform].backwards{text-anchor:start}#chart-19ab275a-45d6-4921-9181-a832aa2b47cf .axis.y2 text{text-anchor:start}#chart-19ab275a-45d6-4921-9181-a832aa2b47cf .axis.y2 text[transform].backwards{text-anchor:end}#chart-19ab275a-45d6-4921-9181-a832aa2b47cf .axis .guide.line{stroke-dasharray:4,4;stroke:black}#chart-19ab275a-45d6-4921-9181-a832aa2b47cf .axis .major.guide.line{stroke-dasharray:6,6;stroke:black}#chart-19ab275a-45d6-4921-9181-a832aa2b47cf .horizontal .axis.y .guide.line,#chart-19ab275a-45d6-4921-9181-a832aa2b47cf .horizontal .axis.y2 .guide.line,#chart-19ab275a-45d6-4921-9181-a832aa2b47cf .vertical .axis.x .guide.line{opacity:0}#chart-19ab275a-45d6-4921-9181-a832aa2b47cf .horizontal .axis.always_show .guide.line,#chart-19ab275a-45d6-4921-9181-a832aa2b47cf .vertical .axis.always_show .guide.line{opacity:1 !important}#chart-19ab275a-45d6-4921-9181-a832aa2b47cf .axis.y .guides:hover .guide.line,#chart-19ab275a-45d6-4921-9181-a832aa2b47cf .axis.y2 .guides:hover .guide.line,#chart-19ab275a-45d6-4921-9181-a832aa2b47cf .axis.x .guides:hover .guide.line{opacity:1}#chart-19ab275a-45d6-4921-9181-a832aa2b47cf .axis .guides:hover text{opacity:1}#chart-19ab275a-45d6-4921-9181-a832aa2b47cf .nofill{fill:none}#chart-19ab275a-45d6-4921-9181-a832aa2b47cf .subtle-fill{fill-opacity:.2}#chart-19ab275a-45d6-4921-9181-a832aa2b47cf .dot{stroke-width:1px;fill-opacity:1;stroke-opacity:1}#chart-19ab275a-45d6-4921-9181-a832aa2b47cf .dot.active{stroke-width:5px}#chart-19ab275a-45d6-4921-9181-a832aa2b47cf .dot.negative{fill:transparent}#chart-19ab275a-45d6-4921-9181-a832aa2b47cf text,#chart-19ab275a-45d6-4921-9181-a832aa2b47cf tspan{stroke:none !important}#chart-19ab275a-45d6-4921-9181-a832aa2b47cf .series text.active{opacity:1}#chart-19ab275a-45d6-4921-9181-a832aa2b47cf .tooltip rect{fill-opacity:.95;stroke-width:.5}#chart-19ab275a-45d6-4921-9181-a832aa2b47cf .tooltip text{fill-opacity:1}#chart-19ab275a-45d6-4921-9181-a832aa2b47cf .showable{visibility:hidden}#chart-19ab275a-45d6-4921-9181-a832aa2b47cf .showable.shown{visibility:visible}#chart-19ab275a-45d6-4921-9181-a832aa2b47cf .gauge-background{fill:rgba(229,229,229,1);stroke:none}#chart-19ab275a-45d6-4921-9181-a832aa2b47cf .bg-lines{stroke:rgba(249,249,249,1);stroke-width:2px}</style><script type="text/javascript">window.pygal = window.pygal || {};window.pygal.config = window.pygal.config || {};window.pygal.config['19ab275a-45d6-4921-9181-a832aa2b47cf'] = {"allow_interruptions": false, "box_mode": "extremes", "classes": ["pygal-chart", "pygal-sparkline"], "css": ["file://style.css", "file://graph.css"], "defs": [], "disable_xml_declaration": false, "dots_size": 2.5, "dynamic_print_values": false, "explicit_size": true, "fill": false, "force_uri_protocol": "https", "formatter": null, "half_pie": false, "height": 50, "include_x_axis": false, "inner_radius": 0, "interpolate": "cubic", "interpolation_parameters": {}, "interpolation_precision": 250, "inverse_y_axis": false, "js": [], "legend_at_bottom": false, "legend_at_bottom_columns": null, "legend_box_size": 12, "logarithmic": false, "margin": 10, "margin_bottom": null, "margin_left": null, "margin_right": null, "margin_top": null, "max_scale": 2, "min_scale": 1, "missing_value_fill_truncation": "x", "no_data_text": "", "no_prefix": false, "order_min": null, "pretty_print": false, "print_labels": false, "print_values": false, "print_values_position": "center", "print_zeroes": true, "range": null, "rounded_bars": null, "secondary_range": null, "show_dots": false, "show_legend": false, "show_minor_x_labels": true, "show_minor_y_labels": true, "show_only_major_dots": false, "show_x_guides": false, "show_x_labels": false, "show_y_guides": true, "show_y_labels": true, "spacing": 0, "stack_from_top": false, "strict": false, "stroke": true, "stroke_style": null, "style": {"background": "rgba(249, 249, 249, 1)", "ci_colors": [], "colors": ["#F44336", "#3F51B5", "#009688", "#FFC107", "#FF5722", "#9C27B0", "#03A9F4", "#8BC34A", "#FF9800", "#E91E63", "#2196F3", "#4CAF50", "#FFEB3B", "#673AB7", "#00BCD4", "#CDDC39", "#9E9E9E", "#607D8B"], "dot_opacity": "1", "font_family": "Consolas, \"Liberation Mono\", Menlo, Courier, monospace", "foreground": "rgba(0, 0, 0, .87)", "foreground_strong": "rgba(0, 0, 0, 1)", "foreground_subtle": "rgba(0, 0, 0, .54)", "guide_stroke_color": "black", "guide_stroke_dasharray": "4,4", "label_font_family": "Consolas, \"Liberation Mono\", Menlo, Courier, monospace", "label_font_size": 10, "legend_font_family": "Consolas, \"Liberation Mono\", Menlo, Courier, monospace", "legend_font_size": 14, "major_guide_stroke_color": "black", "major_guide_stroke_dasharray": "6,6", "major_label_font_family": "Consolas, \"Liberation Mono\", Menlo, Courier, monospace", "major_label_font_size": 10, "no_data_font_family": "Consolas, \"Liberation Mono\", Menlo, Courier, monospace", "no_data_font_size": 64, "opacity": ".7", "opacity_hover": ".8", "plot_background": "rgba(255, 255, 255, 1)", "stroke_opacity": ".8", "stroke_opacity_hover": ".9", "stroke_width": "1", "stroke_width_hover": "4", "title_font_family": "Consolas, \"Liberation Mono\", Menlo, Courier, monospace", "title_font_size": 16, "tooltip_font_family": "Consolas, \"Liberation Mono\", Menlo, Courier, monospace", "tooltip_font_size": 14, "transition": "150ms", "value_background": "rgba(229, 229, 229, 1)", "value_colors": [], "value_font_family": "Consolas, \"Liberation Mono\", Menlo, Courier, monospace", "value_font_size": 16, "value_label_font_family": "Consolas, \"Liberation Mono\", Menlo, Courier, monospace", "value_label_font_size": 10}, "title": null, "tooltip_border_radius": 0, "tooltip_fancy_mode": true, "truncate_label": null, "truncate_legend": null, "width": 200, "x_label_rotation": 0, "x_labels": ["2025/2", "2025/1", "2024/12", "2024/10", "2024/9"], "x_labels_major": null, "x_labels_major_count": null, "x_labels_major_every": null, "x_title": null, "xrange": null, "y_label_rotation": 0, "y_labels": null, "y_labels_major": null, "y_labels_major_count": null, "y_labels_major_every": null, "y_title": null, "zero": 0, "legends": [""]}</script></defs><title>Pygal</title><g class="graph line-graph vertical"><rect x="0" y="0" width="200" height="50" class="background" /><g transform="translate(58, 10)" class="plot"><rect x="0" y="0" width="132.0" height="30" class="background" /><g class="axis y always_show"><path d="M0.000000 30.000000 h132.000000" class="line" /><g class="guides"><path d="M0.000000 29.423077 h132.000000" class="guide line" /><text x="-5" y="32.92307692307692" class="">1.603648</text><title>1.603648</title></g><g class="guides"><path d="M0.000000 0.576923 h132.000000" class="guide line" /><text x="-5" y="4.076923076923073" class="">12</text><title>12</title></g></g><g class="series serie-0 color-0"><path d="M2.538462 28.323342 L2.665385 28.338404 2.792308 28.353463 2.919231 28.368518 3.046154 28.383565 3.173077 28.398601 3.300000 28.413626 3.426923 28.428635 3.553846 28.443626 3.680769 28.458598 3.807692 28.473547 3.934615 28.488471 4.061538 28.503367 4.188462 28.518233 4.315385 28.533066 4.442308 28.547864 4.569231 28.562625 4.696154 28.577345 4.823077 28.592023 4.950000 28.606656 5.076923 28.621240 5.203846 28.635775 5.330769 28.650257 5.457692 28.664683 5.584615 28.679052 5.711538 28.693360 5.838462 28.707606 5.965385 28.721786 6.092308 28.735899 6.219231 28.749941 6.346154 28.763911 6.473077 28.777805 6.600000 28.791621 6.726923 28.805357 6.853846 28.819010 6.980769 28.832578 7.107692 28.846057 7.234615 28.859447 7.361538 28.872743 7.488462 28.885944 7.615385 28.899047 7.742308 28.912049 7.869231 28.924949 7.996154 28.937743 8.123077 28.950429 8.250000 28.963005 8.376923 28.975467 8.503846 28.987814 8.630769 29.000043 8.757692 29.012152 8.884615 29.024137 9.011538 29.035997 9.138462 29.047729 9.265385 29.059330 9.392308 29.070798 9.519231 29.082131 9.646154 29.093325 9.773077 29.104378 9.900000 29.115289 10.026923 29.126054 10.153846 29.136670 10.280769 29.147136 10.407692 29.157449 10.534615 29.167606 10.661538 29.177605 10.788462 29.187443 10.915385 29.197118 11.042308 29.206627 11.169231 29.215968 11.296154 29.225138 11.423077 29.234135 11.550000 29.242956 11.676923 29.251599 11.803846 29.260060 11.930769 29.268339 12.057692 29.276432 12.184615 29.284336 12.311538 29.292049 12.438462 29.299569 12.565385 29.306893 12.692308 29.314019 12.819231 29.320944 12.946154 29.327665 13.073077 29.334181 13.200000 29.340488 13.326923 29.346584 13.453846 29.352467 13.580769 29.358133 13.707692 29.363581 13.834615 29.368808 13.961538 29.373812 14.088462 29.378590 14.215385 29.383139 14.342308 29.387456 14.469231 29.391541 14.596154 29.395389 14.723077 29.398999 14.850000 29.402368 14.976923 29.405493 15.103846 29.408371 15.230769 29.411002 15.357692 29.413381 15.484615 29.415506 15.611538 29.417376 15.738462 29.418986 15.865385 29.420336 15.992308 29.421421 16.119231 29.422241 16.246154 29.422792 16.373077 29.423071 16.500000 29.423077 16.626923 29.422806 16.753846 29.422257 16.880769 29.421427 17.007692 29.420312 17.134615 29.418912 17.261538 29.417222 17.388462 29.415242 17.515385 29.412967 17.642308 29.410396 17.769231 29.407526 17.896154 29.404355 18.023077 29.400880 18.150000 29.397099 18.276923 29.393008 18.403846 29.388606 18.530769 29.383891 18.657692 29.378858 18.784615 29.373507 18.911538 29.367835 19.038462 29.361838 19.165385 29.355515 19.292308 29.348863 19.419231 29.341880 19.546154 29.334562 19.673077 29.326908 19.800000 29.318915 19.926923 29.310580 20.053846 29.301901 20.180769 29.292876 20.307692 29.283501 20.434615 29.273775 20.561538 29.263695 20.688462 29.253258 20.815385 29.242462 20.942308 29.231305 21.069231 29.219783 21.196154 29.207895 21.323077 29.195637 21.450000 29.183008 21.576923 29.170004 21.703846 29.156624 21.830769 29.142865 21.957692 29.128723 22.084615 29.114198 22.211538 29.099286 22.338462 29.083984 22.465385 29.068291 22.592308 29.052203 22.719231 29.035719 22.846154 29.018835 22.973077 29.001550 23.100000 28.983860 23.226923 28.965763 23.353846 28.947257 23.480769 28.928339 23.607692 28.909007 23.734615 28.889258 23.861538 28.869089 23.988462 28.848498 24.115385 28.827483 24.242308 28.806041 24.369231 28.784170 24.496154 28.761867 24.623077 28.739129 24.750000 28.715954 24.876923 28.692340 25.003846 28.668283 25.130769 28.643782 25.257692 28.618834 25.384615 28.593437 25.511538 28.567587 25.638462 28.541283 25.765385 28.514522 25.892308 28.487301 26.019231 28.459618 26.146154 28.431471 26.273077 28.402856 26.400000 28.373772 26.526923 28.344215 26.653846 28.314184 26.780769 28.283676 26.907692 28.252688 27.034615 28.221218 27.161538 28.189263 27.288462 28.156821 27.415385 28.123889 27.542308 28.090465 27.669231 28.056546 27.796154 28.022130 27.923077 27.987214 28.050000 27.951796 28.176923 27.915873 28.303846 27.879443 28.430769 27.842502 28.557692 27.805050 28.684615 27.767083 28.811538 27.728598 28.938462 27.689594 29.065385 27.650067 29.192308 27.610015 29.319231 27.569436 29.446154 27.528327 29.573077 27.486685 29.700000 27.444509 29.826923 27.401795 29.953846 27.358541 30.080769 27.314744 30.207692 27.270403 30.334615 27.225514 30.461538 27.180075 30.588462 27.134084 30.715385 27.087538 30.842308 27.040434 30.969231 26.992770 31.096154 26.944543 31.223077 26.895752 31.350000 26.846392 31.476923 26.796463 31.603846 26.745961 31.730769 26.694884 31.857692 26.643229 31.984615 26.590995 32.111538 26.538177 32.238462 26.484775 32.365385 26.430784 32.492308 26.376204 32.619231 26.321030 32.746154 26.265262 32.873077 26.208896 33.000000 26.151930 33.126923 26.094360 33.253846 26.036186 33.380769 25.977404 33.507692 25.918011 33.634615 25.858006 33.761538 25.797386 33.888462 25.736147 34.015385 25.674289 34.142308 25.611807 34.269231 25.548700 34.396154 25.484967 34.523077 25.420613 34.650000 25.355646 34.776923 25.290073 34.903846 25.223901 35.030769 25.157137 35.157692 25.089788 35.284615 25.021862 35.411538 24.953367 35.538462 24.884308 35.665385 24.814694 35.792308 24.744532 35.919231 24.673828 36.046154 24.602591 36.173077 24.530827 36.300000 24.458543 36.426923 24.385748 36.553846 24.312447 36.680769 24.238649 36.807692 24.164360 36.934615 24.089588 37.061538 24.014340 37.188462 23.938623 37.315385 23.862444 37.442308 23.785812 37.569231 23.708732 37.696154 23.631212 37.823077 23.553259 37.950000 23.474881 38.076923 23.396085 38.203846 23.316878 38.330769 23.237268 38.457692 23.157260 38.584615 23.076864 38.711538 22.996085 38.838462 22.914932 38.965385 22.833411 39.092308 22.751529 39.219231 22.669295 39.346154 22.586714 39.473077 22.503795 39.600000 22.420545 39.726923 22.336970 39.853846 22.253079 39.980769 22.168877 40.107692 22.084373 40.234615 21.999574 40.361538 21.914487 40.488462 21.829119 40.615385 21.743477 40.742308 21.657569 40.869231 21.571402 40.996154 21.484983 41.123077 21.398319 41.250000 21.311418 41.376923 21.224286 41.503846 21.136932 41.630769 21.049362 41.757692 20.961583 41.884615 20.873603 42.011538 20.785429 42.138462 20.697068 42.265385 20.608528 42.392308 20.519815 42.519231 20.430937 42.646154 20.341901 42.773077 20.252714 42.900000 20.163384 43.026923 20.073918 43.153846 19.984322 43.280769 19.894605 43.407692 19.804774 43.534615 19.714835 43.661538 19.624796 43.788462 19.534664 43.915385 19.444446 44.042308 19.354151 44.169231 19.263784 44.296154 19.173353 44.423077 19.082865 44.550000 18.992328 44.676923 18.901748 44.803846 18.811134 44.930769 18.720492 45.057692 18.629829 45.184615 18.539153 45.311538 18.448471 45.438462 18.357790 45.565385 18.267118 45.692308 18.176461 45.819231 18.085827 45.946154 17.995223 46.073077 17.904656 46.200000 17.814134 46.326923 17.723663 46.453846 17.633251 46.580769 17.542906 46.707692 17.452634 46.834615 17.362443 46.961538 17.272340 47.088462 17.182332 47.215385 17.092426 47.342308 17.002630 47.469231 16.912950 47.596154 16.823395 47.723077 16.733971 47.850000 16.644685 47.976923 16.555545 48.103846 16.466558 48.230769 16.377732 48.357692 16.289073 48.484615 16.200588 48.611538 16.112285 48.738462 16.024172 48.865385 15.936255 48.992308 15.848541 49.119231 15.761038 49.246154 15.673753 49.373077 15.586694 49.500000 15.499867 49.626923 15.413280 49.753846 15.326939 49.880769 15.240853 50.007692 15.155028 50.134615 15.069472 50.261538 14.984192 50.388462 14.899195 50.515385 14.814488 50.642308 14.730079 50.769231 14.645975 50.896154 14.562182 51.023077 14.478709 51.150000 14.395563 51.276923 14.312750 51.403846 14.230278 51.530769 14.148154 51.657692 14.066386 51.784615 13.984980 51.911538 13.903944 52.038462 13.823285 52.165385 13.743011 52.292308 13.663128 52.419231 13.583644 52.546154 13.504566 52.673077 13.425901 52.800000 13.347657 52.926923 13.269840 53.053846 13.192459 53.180769 13.115519 53.307692 13.039029 53.434615 12.962995 53.561538 12.887426 53.688462 12.812327 53.815385 12.737707 53.942308 12.663572 54.069231 12.589930 54.196154 12.516789 54.323077 12.444154 54.450000 12.372034 54.576923 12.300435 54.703846 12.229366 54.830769 12.158832 54.957692 12.088842 55.084615 12.019403 55.211538 11.950521 55.338462 11.882205 55.465385 11.814460 55.592308 11.747296 55.719231 11.680718 55.846154 11.614734 55.973077 11.549351 56.100000 11.484577 56.226923 11.420419 56.353846 11.356883 56.480769 11.293977 56.607692 11.231709 56.734615 11.170086 56.861538 11.109114 56.988462 11.048802 57.115385 10.989155 57.242308 10.930182 57.369231 10.871890 57.496154 10.814286 57.623077 10.757378 57.750000 10.701171 57.876923 10.645674 58.003846 10.590895 58.130769 10.536839 58.257692 10.483515 58.384615 10.430929 58.511538 10.379089 58.638462 10.328002 58.765385 10.277676 58.892308 10.228117 59.019231 10.179332 59.146154 10.131330 59.273077 10.084117 59.400000 10.037700 59.526923 9.992087 59.653846 9.947285 59.780769 9.903301 59.907692 9.860142 60.034615 9.817816 60.161538 9.776330 60.288462 9.735691 60.415385 9.695906 60.542308 9.656983 60.669231 9.618928 60.796154 9.581749 60.923077 9.545454 61.050000 9.510048 61.176923 9.475541 61.303846 9.441938 61.430769 9.409248 61.557692 9.377477 61.684615 9.346632 61.811538 9.316721 61.938462 9.287752 62.065385 9.259730 62.192308 9.232664 62.319231 9.206561 62.446154 9.181428 62.573077 9.157272 62.700000 9.134100 62.826923 9.111920 62.953846 9.090739 63.080769 9.070563 63.207692 9.051402 63.334615 9.033260 63.461538 9.016147 63.588462 9.000069 63.715385 8.985032 63.842308 8.971046 63.969231 8.958116 64.096154 8.946250 64.223077 8.935455 64.350000 8.925739 64.476923 8.917108 64.603846 8.909570 64.730769 8.903132 64.857692 8.897801 64.984615 8.893585 65.111538 8.890491 65.238462 8.888526 65.365385 8.887697 65.492308 8.888011 65.619231 8.889477 65.746154 8.892100 65.873077 8.895888 66.000000 8.900849 66.126923 8.906986 66.253846 8.914294 66.380769 8.922763 66.507692 8.932383 66.634615 8.943145 66.761538 8.955041 66.888462 8.968059 67.015385 8.982192 67.142308 8.997430 67.269231 9.013762 67.396154 9.031181 67.523077 9.049677 67.650000 9.069240 67.776923 9.089860 67.903846 9.111530 68.030769 9.134238 68.157692 9.157977 68.284615 9.182735 68.411538 9.208505 68.538462 9.235277 68.665385 9.263041 68.792308 9.291788 68.919231 9.321509 69.046154 9.352195 69.173077 9.383835 69.300000 9.416420 69.426923 9.449942 69.553846 9.484391 69.680769 9.519758 69.807692 9.556032 69.934615 9.593205 70.061538 9.631268 70.188462 9.670211 70.315385 9.710025 70.442308 9.750699 70.569231 9.792226 70.696154 9.834596 70.823077 9.877799 70.950000 9.921825 71.076923 9.966666 71.203846 10.012313 71.330769 10.058755 71.457692 10.105984 71.584615 10.153990 71.711538 10.202763 71.838462 10.252295 71.965385 10.302576 72.092308 10.353597 72.219231 10.405347 72.346154 10.457819 72.473077 10.511003 72.600000 10.564888 72.726923 10.619467 72.853846 10.674729 72.980769 10.730665 73.107692 10.787266 73.234615 10.844522 73.361538 10.902424 73.488462 10.960963 73.615385 11.020130 73.742308 11.079914 73.869231 11.140307 73.996154 11.201299 74.123077 11.262881 74.250000 11.325044 74.376923 11.387778 74.503846 11.451073 74.630769 11.514921 74.757692 11.579312 74.884615 11.644237 75.011538 11.709686 75.138462 11.775650 75.265385 11.842120 75.392308 11.909086 75.519231 11.976539 75.646154 12.044470 75.773077 12.112869 75.900000 12.181726 76.026923 12.251033 76.153846 12.320780 76.280769 12.390958 76.407692 12.461558 76.534615 12.532569 76.661538 12.603983 76.788462 12.675790 76.915385 12.747982 77.042308 12.820547 77.169231 12.893478 77.296154 12.966765 77.423077 13.040399 77.550000 13.114369 77.676923 13.188668 77.803846 13.263285 77.930769 13.338210 78.057692 13.413436 78.184615 13.488952 78.311538 13.564749 78.438462 13.640817 78.565385 13.717148 78.692308 13.793732 78.819231 13.870559 78.946154 13.947620 79.073077 14.024906 79.200000 14.102408 79.326923 14.180116 79.453846 14.258020 79.580769 14.336112 79.707692 14.414382 79.834615 14.492820 79.961538 14.571418 80.088462 14.650165 80.215385 14.729054 80.342308 14.808073 80.469231 14.887214 80.596154 14.966468 80.723077 15.045825 80.850000 15.125276 80.976923 15.204811 81.103846 15.284421 81.230769 15.364096 81.357692 15.443829 81.484615 15.523608 81.611538 15.603424 81.738462 15.683269 81.865385 15.763133 81.992308 15.843006 82.119231 15.922879 82.246154 16.002744 82.373077 16.082589 82.500000 16.162407 82.626923 16.242187 82.753846 16.321921 82.880769 16.401599 83.007692 16.481211 83.134615 16.560749 83.261538 16.640202 83.388462 16.719562 83.515385 16.798820 83.642308 16.877965 83.769231 16.956988 83.896154 17.035881 84.023077 17.114633 84.150000 17.193236 84.276923 17.271680 84.403846 17.349955 84.530769 17.428053 84.657692 17.505964 84.784615 17.583678 84.911538 17.661186 85.038462 17.738480 85.165385 17.815548 85.292308 17.892383 85.419231 17.968975 85.546154 18.045314 85.673077 18.121391 85.800000 18.197197 85.926923 18.272722 86.053846 18.347957 86.180769 18.422893 86.307692 18.497520 86.434615 18.571829 86.561538 18.645810 86.688462 18.719455 86.815385 18.792753 86.942308 18.865696 87.069231 18.938274 87.196154 19.010478 87.323077 19.082298 87.450000 19.153724 87.576923 19.224749 87.703846 19.295362 87.830769 19.365554 87.957692 19.435315 88.084615 19.504636 88.211538 19.573509 88.338462 19.641923 88.465385 19.709869 88.592308 19.777337 88.719231 19.844319 88.846154 19.910805 88.973077 19.976786 89.100000 20.042252 89.226923 20.107194 89.353846 20.171603 89.480769 20.235469 89.607692 20.298782 89.734615 20.361534 89.861538 20.423716 89.988462 20.485317 90.115385 20.546328 90.242308 20.606741 90.369231 20.666545 90.496154 20.725732 90.623077 20.784291 90.750000 20.842215 90.876923 20.899492 91.003846 20.956114 91.130769 21.012072 91.257692 21.067356 91.384615 21.121957 91.511538 21.175866 91.638462 21.229072 91.765385 21.281567 91.892308 21.333342 92.019231 21.384386 92.146154 21.434691 92.273077 21.484248 92.400000 21.533046 92.526923 21.581077 92.653846 21.628331 92.780769 21.674799 92.907692 21.720471 93.034615 21.765339 93.161538 21.809392 93.288462 21.852622 93.415385 21.895019 93.542308 21.936573 93.669231 21.977276 93.796154 22.017117 93.923077 22.056089 94.050000 22.094180 94.176923 22.131383 94.303846 22.167687 94.430769 22.203083 94.557692 22.237561 94.684615 22.271114 94.811538 22.303730 94.938462 22.335401 95.065385 22.366117 95.192308 22.395870 95.319231 22.424649 95.446154 22.452445 95.573077 22.479249 95.700000 22.505052 95.826923 22.529844 95.953846 22.553615 96.080769 22.576358 96.207692 22.598061 96.334615 22.618716 96.461538 22.638313 96.588462 22.656844 96.715385 22.674298 96.842308 22.690666 96.969231 22.705939 97.096154 22.720108 97.223077 22.733163 97.350000 22.745095 97.476923 22.755894 97.603846 22.765552 97.730769 22.774058 97.857692 22.781406 97.984615 22.787598 98.111538 22.792639 98.238462 22.796533 98.365385 22.799285 98.492308 22.800900 98.619231 22.801382 98.746154 22.800736 98.873077 22.798966 99.000000 22.796078 99.126923 22.792075 99.253846 22.786963 99.380769 22.780746 99.507692 22.773429 99.634615 22.765016 99.761538 22.755512 99.888462 22.744922 100.015385 22.733250 100.142308 22.720502 100.269231 22.706680 100.396154 22.691792 100.523077 22.675839 100.650000 22.658829 100.776923 22.640765 100.903846 22.621651 101.030769 22.601493 101.157692 22.580295 101.284615 22.558062 101.411538 22.534798 101.538462 22.510509 101.665385 22.485197 101.792308 22.458870 101.919231 22.431530 102.046154 22.403183 102.173077 22.373833 102.300000 22.343485 102.426923 22.312143 102.553846 22.279813 102.680769 22.246498 102.807692 22.212204 102.934615 22.176935 103.061538 22.140696 103.188462 22.103491 103.315385 22.065326 103.442308 22.026203 103.569231 21.986130 103.696154 21.945109 103.823077 21.903146 103.950000 21.860245 104.076923 21.816410 104.203846 21.771648 104.330769 21.725961 104.457692 21.679356 104.584615 21.631836 104.711538 21.583406 104.838462 21.534070 104.965385 21.483834 105.092308 21.432702 105.219231 21.380679 105.346154 21.327769 105.473077 21.273977 105.600000 21.219308 105.726923 21.163765 105.853846 21.107355 105.980769 21.050081 106.107692 20.991949 106.234615 20.932962 106.361538 20.873125 106.488462 20.812444 106.615385 20.750923 106.742308 20.688565 106.869231 20.625377 106.996154 20.561363 107.123077 20.496526 107.250000 20.430873 107.376923 20.364407 107.503846 20.297134 107.630769 20.229057 107.757692 20.160182 107.884615 20.090513 108.011538 20.020055 108.138462 19.948813 108.265385 19.876790 108.392308 19.803992 108.519231 19.730424 108.646154 19.656089 108.773077 19.580993 108.900000 19.505141 109.026923 19.428536 109.153846 19.351184 109.280769 19.273089 109.407692 19.194256 109.534615 19.114690 109.661538 19.034394 109.788462 18.953375 109.915385 18.871636 110.042308 18.789182 110.169231 18.706017 110.296154 18.622147 110.423077 18.537576 110.550000 18.452309 110.676923 18.366350 110.803846 18.279704 110.930769 18.192376 111.057692 18.104369 111.184615 18.015690 111.311538 17.926342 111.438462 17.836330 111.565385 17.745659 111.692308 17.654333 111.819231 17.562358 111.946154 17.469737 112.073077 17.376476 112.200000 17.282578 112.326923 17.188049 112.453846 17.092894 112.580769 16.997116 112.707692 16.900721 112.834615 16.803713 112.961538 16.706097 113.088462 16.607878 113.215385 16.509059 113.342308 16.409647 113.469231 16.309644 113.596154 16.209057 113.723077 16.107890 113.850000 16.006147 113.976923 15.903833 114.103846 15.800952 114.230769 15.697510 114.357692 15.593511 114.484615 15.488959 114.611538 15.383860 114.738462 15.278217 114.865385 15.172036 114.992308 15.065321 115.119231 14.958076 115.246154 14.850307 115.373077 14.742019 115.500000 14.633215 115.626923 14.523900 115.753846 14.414079 115.880769 14.303757 116.007692 14.192938 116.134615 14.081627 116.261538 13.969828 116.388462 13.857547 116.515385 13.744788 116.642308 13.631555 116.769231 13.517853 116.896154 13.403687 117.023077 13.289061 117.150000 13.173981 117.276923 13.058450 117.403846 12.942473 117.530769 12.826055 117.657692 12.709201 117.784615 12.591916 117.911538 12.474203 118.038462 12.356068 118.165385 12.237514 118.292308 12.118548 118.419231 11.999173 118.546154 11.879395 118.673077 11.759217 118.800000 11.638644 118.926923 11.517682 119.053846 11.396334 119.180769 11.274605 119.307692 11.152501 119.434615 11.030025 119.561538 10.907182 119.688462 10.783977 119.815385 10.660415 119.942308 10.536500 120.069231 10.412237 120.196154 10.287630 120.323077 10.162685 120.450000 10.037405 120.576923 9.911795 120.703846 9.785861 120.830769 9.659606 120.957692 9.533035 121.084615 9.406154 121.211538 9.278966 121.338462 9.151476 121.465385 9.023689 121.592308 8.895610 121.719231 8.767243 121.846154 8.638593 121.973077 8.509664 122.100000 8.380461 122.226923 8.250989 122.353846 8.121253 122.480769 7.991256 122.607692 7.861004 122.734615 7.730502 122.861538 7.599753 122.988462 7.468763 123.115385 7.337536 123.242308 7.206077 123.369231 7.074391 123.496154 6.942482 123.623077 6.810354 123.750000 6.678013 123.876923 6.545464 124.003846 6.412709 124.130769 6.279756 124.257692 6.146607 124.384615 6.013268 124.511538 5.879743 124.638462 5.746037 124.765385 5.612155 124.892308 5.478101 125.019231 5.343880 125.146154 5.209496 125.273077 5.074955 125.400000 4.940260 125.526923 4.805417 125.653846 4.670430 125.780769 4.535304 125.907692 4.400043 126.034615 4.264652 126.161538 4.129135 126.288462 3.993498 126.415385 3.857745 126.542308 3.721881 126.669231 3.585909 126.796154 3.449836 126.923077 3.313665 127.050000 3.177401 127.176923 3.041049 127.303846 2.904614 127.430769 2.768099 127.557692 2.631511 127.684615 2.494852 127.811538 2.358129 127.938462 2.221345 128.065385 2.084506 128.192308 1.947615 128.319231 1.810678 128.446154 1.673700 128.573077 1.536684 128.700000 1.399635 128.826923 1.262559 128.953846 1.125460 129.080769 0.988342 129.207692 0.851210 129.334615 0.714069 129.461538 0.576923" class="line reactive nofill" /></g></g><g class="titles" /><g transform="translate(58, 10)" class="plot overlay"><g class="series serie-0 color-0" /></g><g transform="translate(58, 10)" class="plot text-overlay"><g class="series serie-0 color-0" /></g><g transform="translate(58, 10)" class="plot tooltip-overlay"><g transform="translate(0 0)" style="opacity: 0" class="tooltip"><rect rx="0" ry="0" width="0" height="0" class="tooltip-box" /><g class="text" /></g></g></g></svg>