<?xml version='1.0' encoding='utf-8'?>
<svg xmlns="http://www.w3.org/2000/svg" id="chart-322b00f8-7594-41e0-96ab-a208f6346515" class="pygal-chart pygal-sparkline" viewBox="0 0 200 50" width="200" height="50"><!--Generated with pygal 3.0.5 (etree) ©Kozea 2012-2016 on 2025-03-02--><!--http://pygal.org--><!--http://github.com/Kozea/pygal--><defs><style type="text/css">#chart-322b00f8-7594-41e0-96ab-a208f6346515{-webkit-user-select:none;-webkit-font-smoothing:antialiased;font-family:Consolas,"Liberation Mono",Menlo,Courier,monospace}#chart-322b00f8-7594-41e0-96ab-a208f6346515 .title{font-family:Consolas,"Liberation Mono",Menlo,Courier,monospace;font-size:16px}#chart-322b00f8-7594-41e0-96ab-a208f6346515 .legends .legend text{font-family:Consolas,"Liberation Mono",Menlo,Courier,monospace;font-size:14px}#chart-322b00f8-7594-41e0-96ab-a208f6346515 .axis text{font-family:Consolas,"Liberation Mono",Menlo,Courier,monospace;font-size:10px}#chart-322b00f8-7594-41e0-96ab-a208f6346515 .axis text.major{font-family:Consolas,"Liberation Mono",Menlo,Courier,monospace;font-size:10px}#chart-322b00f8-7594-41e0-96ab-a208f6346515 .text-overlay text.value{font-family:Consolas,"Liberation Mono",Menlo,Courier,monospace;font-size:16px}#chart-322b00f8-7594-41e0-96ab-a208f6346515 .text-overlay text.label{font-family:Consolas,"Liberation Mono",Menlo,Courier,monospace;font-size:10px}#chart-322b00f8-7594-41e0-96ab-a208f6346515 .tooltip{font-family:Consolas,"Liberation Mono",Menlo,Courier,monospace;font-size:14px}#chart-322b00f8-7594-41e0-96ab-a208f6346515 text.no_data{font-family:Consolas,"Liberation Mono",Menlo,Courier,monospace;font-size:64px}
#chart-322b00f8-7594-41e0-96ab-a208f6346515{background-color:rgba(249,249,249,1)}#chart-322b00f8-7594-41e0-96ab-a208f6346515 path,#chart-322b00f8-7594-41e0-96ab-a208f6346515 line,#chart-322b00f8-7594-41e0-96ab-a208f6346515 rect,#chart-322b00f8-7594-41e0-96ab-a208f6346515 circle{-webkit-transition:150ms;-moz-transition:150ms;transition:150ms}#chart-322b00f8-7594-41e0-96ab-a208f6346515 .graph &gt; .background{fill:rgba(249,249,249,1)}#chart-322b00f8-7594-41e0-96ab-a208f6346515 .plot &gt; .background{fill:rgba(255,255,255,1)}#chart-322b00f8-7594-41e0-96ab-a208f6346515 .graph{fill:rgba(0,0,0,.87)}#chart-322b00f8-7594-41e0-96ab-a208f6346515 text.no_data{fill:rgba(0,0,0,1)}#chart-322b00f8-7594-41e0-96ab-a208f6346515 .title{fill:rgba(0,0,0,1)}#chart-322b00f8-7594-41e0-96ab-a208f6346515 .legends .legend text{fill:rgba(0,0,0,.87)}#chart-322b00f8-7594-41e0-96ab-a208f6346515 .legends .legend:hover text{fill:rgba(0,0,0,1)}#chart-322b00f8-7594-41e0-96ab-a208f6346515 .axis .line{stroke:rgba(0,0,0,1)}#chart-322b00f8-7594-41e0-96ab-a208f6346515 .axis .guide.line{stroke:rgba(0,0,0,.54)}#chart-322b00f8-7594-41e0-96ab-a208f6346515 .axis .major.line{stroke:rgba(0,0,0,.87)}#chart-322b00f8-7594-41e0-96ab-a208f6346515 .axis text.major{fill:rgba(0,0,0,1)}#chart-322b00f8-7594-41e0-96ab-a208f6346515 .axis.y .guides:hover .guide.line,#chart-322b00f8-7594-41e0-96ab-a208f6346515 .line-graph .axis.x .guides:hover .guide.line,#chart-322b00f8-7594-41e0-96ab-a208f6346515 .stackedline-graph .axis.x .guides:hover .guide.line,#chart-322b00f8-7594-41e0-96ab-a208f6346515 .xy-graph .axis.x .guides:hover .guide.line{stroke:rgba(0,0,0,1)}#chart-322b00f8-7594-41e0-96ab-a208f6346515 .axis .guides:hover text{fill:rgba(0,0,0,1)}#chart-322b00f8-7594-41e0-96ab-a208f6346515 .reactive{fill-opacity:.7;stroke-opacity:.8;stroke-width:1}#chart-322b00f8-7594-41e0-96ab-a208f6346515 .ci{stroke:rgba(0,0,0,.87)}#chart-322b00f8-7594-41e0-96ab-a208f6346515 .reactive.active,#chart-322b00f8-7594-41e0-96ab-a208f6346515 .active .reactive{fill-opacity:.8;stroke-opacity:.9;stroke-width:4}#chart-322b00f8-7594-41e0-96ab-a208f6346515 .ci .reactive.active{stroke-width:1.5}#chart-322b00f8-7594-41e0-96ab-a208f6346515 .series text{fill:rgba(0,0,0,1)}#chart-322b00f8-7594-41e0-96ab-a208f6346515 .tooltip rect{fill:rgba(255,255,255,1);stroke:rgba(0,0,0,1);-webkit-transition:opacity 150ms;-moz-transition:opacity 150ms;transition:opacity 150ms}#chart-322b00f8-7594-41e0-96ab-a208f6346515 .tooltip .label{fill:rgba(0,0,0,.87)}#chart-322b00f8-7594-41e0-96ab-a208f6346515 .tooltip .label{fill:rgba(0,0,0,.87)}#chart-322b00f8-7594-41e0-96ab-a208f6346515 .tooltip .legend{font-size:.8em;fill:rgba(0,0,0,.54)}#chart-322b00f8-7594-41e0-96ab-a208f6346515 .tooltip .x_label{font-size:.6em;fill:rgba(0,0,0,1)}#chart-322b00f8-7594-41e0-96ab-a208f6346515 .tooltip .xlink{font-size:.5em;text-decoration:underline}#chart-322b00f8-7594-41e0-96ab-a208f6346515 .tooltip .value{font-size:1.5em}#chart-322b00f8-7594-41e0-96ab-a208f6346515 .bound{font-size:.5em}#chart-322b00f8-7594-41e0-96ab-a208f6346515 .max-value{font-size:.75em;fill:rgba(0,0,0,.54)}#chart-322b00f8-7594-41e0-96ab-a208f6346515 .map-element{fill:rgba(255,255,255,1);stroke:rgba(0,0,0,.54) !important}#chart-322b00f8-7594-41e0-96ab-a208f6346515 .map-element .reactive{fill-opacity:inherit;stroke-opacity:inherit}#chart-322b00f8-7594-41e0-96ab-a208f6346515 .color-0,#chart-322b00f8-7594-41e0-96ab-a208f6346515 .color-0 a:visited{stroke:#F44336;fill:#F44336}#chart-322b00f8-7594-41e0-96ab-a208f6346515 .text-overlay .color-0 text{fill:black}
#chart-322b00f8-7594-41e0-96ab-a208f6346515 text.no_data{text-anchor:middle}#chart-322b00f8-7594-41e0-96ab-a208f6346515 .guide.line{fill:none}#chart-322b00f8-7594-41e0-96ab-a208f6346515 .centered{text-anchor:middle}#chart-322b00f8-7594-41e0-96ab-a208f6346515 .title{text-anchor:middle}#chart-322b00f8-7594-41e0-96ab-a208f6346515 .legends .legend text{fill-opacity:1}#chart-322b00f8-7594-41e0-96ab-a208f6346515 .axis.x text{text-anchor:middle}#chart-322b00f8-7594-41e0-96ab-a208f6346515 .axis.x:not(.web) text[transform]{text-anchor:start}#chart-322b00f8-7594-41e0-96ab-a208f6346515 .axis.x:not(.web) text[transform].backwards{text-anchor:end}#chart-322b00f8-7594-41e0-96ab-a208f6346515 .axis.y text{text-anchor:end}#chart-322b00f8-7594-41e0-96ab-a208f6346515 .axis.y text[transform].backwards{text-anchor:start}#chart-322b00f8-7594-41e0-96ab-a208f6346515 .axis.y2 text{text-anchor:start}#chart-322b00f8-7594-41e0-96ab-a208f6346515 .axis.y2 text[transform].backwards{text-anchor:end}#chart-322b00f8-7594-41e0-96ab-a208f6346515 .axis .guide.line{stroke-dasharray:4,4;stroke:black}#chart-322b00f8-7594-41e0-96ab-a208f6346515 .axis .major.guide.line{stroke-dasharray:6,6;stroke:black}#chart-322b00f8-7594-41e0-96ab-a208f6346515 .horizontal .axis.y .guide.line,#chart-322b00f8-7594-41e0-96ab-a208f6346515 .horizontal .axis.y2 .guide.line,#chart-322b00f8-7594-41e0-96ab-a208f6346515 .vertical .axis.x .guide.line{opacity:0}#chart-322b00f8-7594-41e0-96ab-a208f6346515 .horizontal .axis.always_show .guide.line,#chart-322b00f8-7594-41e0-96ab-a208f6346515 .vertical .axis.always_show .guide.line{opacity:1 !important}#chart-322b00f8-7594-41e0-96ab-a208f6346515 .axis.y .guides:hover .guide.line,#chart-322b00f8-7594-41e0-96ab-a208f6346515 .axis.y2 .guides:hover .guide.line,#chart-322b00f8-7594-41e0-96ab-a208f6346515 .axis.x .guides:hover .guide.line{opacity:1}#chart-322b00f8-7594-41e0-96ab-a208f6346515 .axis .guides:hover text{opacity:1}#chart-322b00f8-7594-41e0-96ab-a208f6346515 .nofill{fill:none}#chart-322b00f8-7594-41e0-96ab-a208f6346515 .subtle-fill{fill-opacity:.2}#chart-322b00f8-7594-41e0-96ab-a208f6346515 .dot{stroke-width:1px;fill-opacity:1;stroke-opacity:1}#chart-322b00f8-7594-41e0-96ab-a208f6346515 .dot.active{stroke-width:5px}#chart-322b00f8-7594-41e0-96ab-a208f6346515 .dot.negative{fill:transparent}#chart-322b00f8-7594-41e0-96ab-a208f6346515 text,#chart-322b00f8-7594-41e0-96ab-a208f6346515 tspan{stroke:none !important}#chart-322b00f8-7594-41e0-96ab-a208f6346515 .series text.active{opacity:1}#chart-322b00f8-7594-41e0-96ab-a208f6346515 .tooltip rect{fill-opacity:.95;stroke-width:.5}#chart-322b00f8-7594-41e0-96ab-a208f6346515 .tooltip text{fill-opacity:1}#chart-322b00f8-7594-41e0-96ab-a208f6346515 .showable{visibility:hidden}#chart-322b00f8-7594-41e0-96ab-a208f6346515 .showable.shown{visibility:visible}#chart-322b00f8-7594-41e0-96ab-a208f6346515 .gauge-background{fill:rgba(229,229,229,1);stroke:none}#chart-322b00f8-7594-41e0-96ab-a208f6346515 .bg-lines{stroke:rgba(249,249,249,1);stroke-width:2px}</style><script type="text/javascript">window.pygal = window.pygal || {};window.pygal.config = window.pygal.config || {};window.pygal.config['322b00f8-7594-41e0-96ab-a208f6346515'] = {"allow_interruptions": false, "box_mode": "extremes", "classes": ["pygal-chart", "pygal-sparkline"], "css": ["file://style.css", "file://graph.css"], "defs": [], "disable_xml_declaration": false, "dots_size": 2.5, "dynamic_print_values": false, "explicit_size": true, "fill": false, "force_uri_protocol": "https", "formatter": null, "half_pie": false, "height": 50, "include_x_axis": false, "inner_radius": 0, "interpolate": "cubic", "interpolation_parameters": {}, "interpolation_precision": 250, "inverse_y_axis": false, "js": [], "legend_at_bottom": false, "legend_at_bottom_columns": null, "legend_box_size": 12, "logarithmic": false, "margin": 10, "margin_bottom": null, "margin_left": null, "margin_right": null, "margin_top": null, "max_scale": 2, "min_scale": 1, "missing_value_fill_truncation": "x", "no_data_text": "", "no_prefix": false, "order_min": null, "pretty_print": false, "print_labels": false, "print_values": false, "print_values_position": "center", "print_zeroes": true, "range": null, "rounded_bars": null, "secondary_range": null, "show_dots": false, "show_legend": false, "show_minor_x_labels": true, "show_minor_y_labels": true, "show_only_major_dots": false, "show_x_guides": false, "show_x_labels": false, "show_y_guides": true, "show_y_labels": true, "spacing": 0, "stack_from_top": false, "strict": false, "stroke": true, "stroke_style": null, "style": {"background": "rgba(249, 249, 249, 1)", "ci_colors": [], "colors": ["#F44336", "#3F51B5", "#009688", "#FFC107", "#FF5722", "#9C27B0", "#03A9F4", "#8BC34A", "#FF9800", "#E91E63", "#2196F3", "#4CAF50", "#FFEB3B", "#673AB7", "#00BCD4", "#CDDC39", "#9E9E9E", "#607D8B"], "dot_opacity": "1", "font_family": "Consolas, \"Liberation Mono\", Menlo, Courier, monospace", "foreground": "rgba(0, 0, 0, .87)", "foreground_strong": "rgba(0, 0, 0, 1)", "foreground_subtle": "rgba(0, 0, 0, .54)", "guide_stroke_color": "black", "guide_stroke_dasharray": "4,4", "label_font_family": "Consolas, \"Liberation Mono\", Menlo, Courier, monospace", "label_font_size": 10, "legend_font_family": "Consolas, \"Liberation Mono\", Menlo, Courier, monospace", "legend_font_size": 14, "major_guide_stroke_color": "black", "major_guide_stroke_dasharray": "6,6", "major_label_font_family": "Consolas, \"Liberation Mono\", Menlo, Courier, monospace", "major_label_font_size": 10, "no_data_font_family": "Consolas, \"Liberation Mono\", Menlo, Courier, monospace", "no_data_font_size": 64, "opacity": ".7", "opacity_hover": ".8", "plot_background": "rgba(255, 255, 255, 1)", "stroke_opacity": ".8", "stroke_opacity_hover": ".9", "stroke_width": "1", "stroke_width_hover": "4", "title_font_family": "Consolas, \"Liberation Mono\", Menlo, Courier, monospace", "title_font_size": 16, "tooltip_font_family": "Consolas, \"Liberation Mono\", Menlo, Courier, monospace", "tooltip_font_size": 14, "transition": "150ms", "value_background": "rgba(229, 229, 229, 1)", "value_colors": [], "value_font_family": "Consolas, \"Liberation Mono\", Menlo, Courier, monospace", "value_font_size": 16, "value_label_font_family": "Consolas, \"Liberation Mono\", Menlo, Courier, monospace", "value_label_font_size": 10}, "title": null, "tooltip_border_radius": 0, "tooltip_fancy_mode": true, "truncate_label": null, "truncate_legend": null, "width": 200, "x_label_rotation": 0, "x_labels": ["2025/2", "2025/1", "2024/12", "2024/10"], "x_labels_major": null, "x_labels_major_count": null, "x_labels_major_every": null, "x_title": null, "xrange": null, "y_label_rotation": 0, "y_labels": null, "y_labels_major": null, "y_labels_major_count": null, "y_labels_major_every": null, "y_title": null, "zero": 0, "legends": [""]}</script></defs><title>Pygal</title><g class="graph line-graph vertical"><rect x="0" y="0" width="200" height="50" class="background" /><g transform="translate(22, 10)" class="plot"><rect x="0" y="0" width="168.0" height="30" class="background" /><g class="axis y always_show"><path d="M0.000000 30.000000 h168.000000" class="line" /><g class="guides"><path d="M0.000000 17.060440 h168.000000" class="guide line" /><text x="-5" y="20.560439560439562" class="">8</text><title>8</title></g><g class="guides"><path d="M0.000000 0.576923 h168.000000" class="guide line" /><text x="-5" y="4.07692307692308" class="">16</text><title>16</title></g></g><g class="series serie-0 color-0"><path d="M3.230769 0.576923 L3.446154 0.732966 3.661538 0.889005 3.876923 1.045034 4.092308 1.201049 4.307692 1.357045 4.523077 1.513018 4.738462 1.668962 4.953846 1.824874 5.169231 1.980748 5.384615 2.136580 5.600000 2.292365 5.815385 2.448099 6.030769 2.603776 6.246154 2.759392 6.461538 2.914942 6.676923 3.070422 6.892308 3.225826 7.107692 3.381151 7.323077 3.536392 7.538462 3.691543 7.753846 3.846600 7.969231 4.001559 8.184615 4.156414 8.400000 4.311162 8.615385 4.465797 8.830769 4.620314 9.046154 4.774710 9.261538 4.928978 9.476923 5.083115 9.692308 5.237116 9.907692 5.390977 10.123077 5.544691 10.338462 5.698256 10.553846 5.851665 10.769231 6.004915 10.984615 6.158001 11.200000 6.310918 11.415385 6.463661 11.630769 6.616225 11.846154 6.768607 12.061538 6.920800 12.276923 7.072801 12.492308 7.224606 12.707692 7.376208 12.923077 7.527603 13.138462 7.678788 13.353846 7.829756 13.569231 7.980504 13.784615 8.131026 14.000000 8.281319 14.215385 8.431376 14.430769 8.581195 14.646154 8.730769 14.861538 8.880094 15.076923 9.029166 15.292308 9.177980 15.507692 9.326530 15.723077 9.474813 15.938462 9.622824 16.153846 9.770558 16.369231 9.918010 16.584615 10.065176 16.800000 10.212051 17.015385 10.358630 17.230769 10.504909 17.446154 10.650882 17.661538 10.796546 17.876923 10.941895 18.092308 11.086925 18.307692 11.231631 18.523077 11.376008 18.738462 11.520052 18.953846 11.663758 19.169231 11.807121 19.384615 11.950137 19.600000 12.092801 19.815385 12.235108 20.030769 12.377054 20.246154 12.518633 20.461538 12.659842 20.676923 12.800675 20.892308 12.941127 21.107692 13.081195 21.323077 13.220873 21.538462 13.360157 21.753846 13.499042 21.969231 13.637523 22.184615 13.775596 22.400000 13.913255 22.615385 14.050497 22.830769 14.187316 23.046154 14.323708 23.261538 14.459668 23.476923 14.595191 23.692308 14.730274 23.907692 14.864910 24.123077 14.999095 24.338462 15.132826 24.553846 15.266096 24.769231 15.398901 24.984615 15.531237 25.200000 15.663099 25.415385 15.794482 25.630769 15.925381 25.846154 16.055792 26.061538 16.185711 26.276923 16.315131 26.492308 16.444050 26.707692 16.572461 26.923077 16.700360 27.138462 16.827744 27.353846 16.954606 27.569231 17.080942 27.784615 17.206748 28.000000 17.332019 28.215385 17.456750 28.430769 17.580936 28.646154 17.704573 28.861538 17.827656 29.076923 17.950180 29.292308 18.072141 29.507692 18.193534 29.723077 18.314355 29.938462 18.434597 30.153846 18.554258 30.369231 18.673332 30.584615 18.791815 30.800000 18.909701 31.015385 19.026986 31.230769 19.143666 31.446154 19.259735 31.661538 19.375190 31.876923 19.490025 32.092308 19.604235 32.307692 19.717816 32.523077 19.830764 32.738462 19.943073 32.953846 20.054739 33.169231 20.165757 33.384615 20.276123 33.600000 20.385831 33.815385 20.494878 34.030769 20.603258 34.246154 20.710966 34.461538 20.817999 34.676923 20.924351 34.892308 21.030017 35.107692 21.134994 35.323077 21.239275 35.538462 21.342857 35.753846 21.445735 35.969231 21.547904 36.184615 21.649360 36.400000 21.750097 36.615385 21.850111 36.830769 21.949398 37.046154 22.047952 37.261538 22.145769 37.476923 22.242845 37.692308 22.339174 37.907692 22.434752 38.123077 22.529574 38.338462 22.623635 38.553846 22.716932 38.769231 22.809458 38.984615 22.901210 39.200000 22.992183 39.415385 23.082371 39.630769 23.171771 39.846154 23.260378 40.061538 23.348187 40.276923 23.435192 40.492308 23.521391 40.707692 23.606777 40.923077 23.691346 41.138462 23.775094 41.353846 23.858015 41.569231 23.940106 41.784615 24.021361 42.000000 24.101776 42.215385 24.181346 42.430769 24.260065 42.646154 24.337931 42.861538 24.414938 43.076923 24.491080 43.292308 24.566354 43.507692 24.640755 43.723077 24.714279 43.938462 24.786919 44.153846 24.858673 44.369231 24.929534 44.584615 24.999499 44.800000 25.068562 45.015385 25.136719 45.230769 25.203966 45.446154 25.270297 45.661538 25.335708 45.876923 25.400194 46.092308 25.463751 46.307692 25.526374 46.523077 25.588057 46.738462 25.648797 46.953846 25.708589 47.169231 25.767428 47.384615 25.825309 47.600000 25.882227 47.815385 25.938179 48.030769 25.993159 48.246154 26.047162 48.461538 26.100185 48.676923 26.152221 48.892308 26.203267 49.107692 26.253318 49.323077 26.302368 49.538462 26.350414 49.753846 26.397451 49.969231 26.443474 50.184615 26.488478 50.400000 26.532458 50.615385 26.575411 50.830769 26.617331 51.046154 26.658213 51.261538 26.698053 51.476923 26.736846 51.692308 26.774588 51.907692 26.811273 52.123077 26.846898 52.338462 26.881456 52.553846 26.914945 52.769231 26.947358 52.984615 26.978692 53.200000 27.008941 53.415385 27.038101 53.630769 27.066167 53.846154 27.093135 54.061538 27.119000 54.276923 27.143756 54.492308 27.167400 54.707692 27.189927 54.923077 27.211332 55.138462 27.231610 55.353846 27.250757 55.569231 27.268767 55.784615 27.285637 56.000000 27.301362 56.215385 27.315936 56.430769 27.329355 56.646154 27.341615 56.861538 27.352711 57.076923 27.362637 57.292308 27.371393 57.507692 27.378983 57.723077 27.385416 57.938462 27.390701 58.153846 27.394846 58.369231 27.397860 58.584615 27.399751 58.800000 27.400527 59.015385 27.400197 59.230769 27.398769 59.446154 27.396252 59.661538 27.392655 59.876923 27.387985 60.092308 27.382251 60.307692 27.375462 60.523077 27.367625 60.738462 27.358750 60.953846 27.348845 61.169231 27.337918 61.384615 27.325978 61.600000 27.313033 61.815385 27.299092 62.030769 27.284162 62.246154 27.268254 62.461538 27.251374 62.676923 27.233531 62.892308 27.214734 63.107692 27.194992 63.323077 27.174312 63.538462 27.152703 63.753846 27.130174 63.969231 27.106733 64.184615 27.082388 64.400000 27.057148 64.615385 27.031022 64.830769 27.004017 65.046154 26.976143 65.261538 26.947407 65.476923 26.917818 65.692308 26.887385 65.907692 26.856115 66.123077 26.824018 66.338462 26.791102 66.553846 26.757375 66.769231 26.722846 66.984615 26.687523 67.200000 26.651415 67.415385 26.614529 67.630769 26.576876 67.846154 26.538462 68.061538 26.499296 68.276923 26.459387 68.492308 26.418743 68.707692 26.377374 68.923077 26.335286 69.138462 26.292488 69.353846 26.248990 69.569231 26.204799 69.784615 26.159924 70.000000 26.114374 70.215385 26.068156 70.430769 26.021279 70.646154 25.973752 70.861538 25.925583 71.076923 25.876780 71.292308 25.827353 71.507692 25.777308 71.723077 25.726656 71.938462 25.675404 72.153846 25.623560 72.369231 25.571134 72.584615 25.518133 72.800000 25.464567 73.015385 25.410443 73.230769 25.355769 73.446154 25.300555 73.661538 25.244809 73.876923 25.188539 74.092308 25.131754 74.307692 25.074462 74.523077 25.016671 74.738462 24.958390 74.953846 24.899628 75.169231 24.840392 75.384615 24.780692 75.600000 24.720536 75.815385 24.659932 76.030769 24.598888 76.246154 24.537414 76.461538 24.475516 76.676923 24.413205 76.892308 24.350489 77.107692 24.287375 77.323077 24.223872 77.538462 24.159989 77.753846 24.095734 77.969231 24.031116 78.184615 23.966143 78.400000 23.900823 78.615385 23.835165 78.830769 23.769177 79.046154 23.702868 79.261538 23.636247 79.476923 23.569321 79.692308 23.502099 79.907692 23.434590 80.123077 23.366801 80.338462 23.298742 80.553846 23.230421 80.769231 23.161846 80.984615 23.093026 81.200000 23.023969 81.415385 22.954684 81.630769 22.885178 81.846154 22.815462 82.061538 22.745542 82.276923 22.675427 82.492308 22.605126 82.707692 22.534648 82.923077 22.464000 83.138462 22.393191 83.353846 22.322230 83.569231 22.251125 83.784615 22.179884 84.000000 22.108516 84.215385 22.037030 84.430769 21.965433 84.646154 21.893735 84.861538 21.821943 85.076923 21.750066 85.292308 21.678113 85.507692 21.606091 85.723077 21.534010 85.938462 21.461878 86.153846 21.389703 86.369231 21.317494 86.584615 21.245259 86.800000 21.173007 87.015385 21.100745 87.230769 21.028484 87.446154 20.956230 87.661538 20.883992 87.876923 20.811779 88.092308 20.739599 88.307692 20.667462 88.523077 20.595374 88.738462 20.523344 88.953846 20.451382 89.169231 20.379495 89.384615 20.307692 89.600000 20.235982 89.815385 20.164372 90.030769 20.092871 90.246154 20.021488 90.461538 19.950231 90.676923 19.879108 90.892308 19.808129 91.107692 19.737300 91.323077 19.666632 91.538462 19.596132 91.753846 19.525808 91.969231 19.455670 92.184615 19.385725 92.400000 19.315983 92.615385 19.246451 92.830769 19.177137 93.046154 19.108051 93.261538 19.039201 93.476923 18.970595 93.692308 18.902242 93.907692 18.834150 94.123077 18.766327 94.338462 18.698782 94.553846 18.631524 94.769231 18.564560 94.984615 18.497900 95.200000 18.431552 95.415385 18.365524 95.630769 18.299824 95.846154 18.234462 96.061538 18.169444 96.276923 18.104781 96.492308 18.040481 96.707692 17.976551 96.923077 17.913000 97.138462 17.849837 97.353846 17.787070 97.569231 17.724708 97.784615 17.662759 98.000000 17.601231 98.215385 17.540133 98.430769 17.479473 98.646154 17.419260 98.861538 17.359503 99.076923 17.300209 99.292308 17.241387 99.507692 17.183046 99.723077 17.125193 99.938462 17.067838 100.153846 17.010989 100.369231 16.954654 100.584615 16.898842 100.800000 16.843561 101.015385 16.788820 101.230769 16.734626 101.446154 16.680990 101.661538 16.627918 101.876923 16.575419 102.092308 16.523502 102.307692 16.472176 102.523077 16.421448 102.738462 16.371327 102.953846 16.321822 103.169231 16.272941 103.384615 16.224692 103.600000 16.177084 103.815385 16.130126 104.030769 16.083825 104.246154 16.038191 104.461538 15.993231 104.676923 15.948954 104.892308 15.905369 105.107692 15.862483 105.323077 15.820306 105.538462 15.778846 105.753846 15.738111 105.969231 15.698110 106.184615 15.658851 106.400000 15.620343 106.615385 15.582593 106.830769 15.545612 107.046154 15.509406 107.261538 15.473984 107.476923 15.439355 107.692308 15.405527 107.907692 15.372510 108.123077 15.340310 108.338462 15.308936 108.553846 15.278398 108.769231 15.248703 108.984615 15.219860 109.200000 15.191878 109.415385 15.164764 109.630769 15.138527 109.846154 15.113176 110.061538 15.088719 110.276923 15.065164 110.492308 15.042521 110.707692 15.020796 110.923077 15.000000 111.138462 14.980138 111.353846 14.961208 111.569231 14.943207 111.784615 14.926131 112.000000 14.909977 112.215385 14.894740 112.430769 14.880417 112.646154 14.867003 112.861538 14.854497 113.076923 14.842892 113.292308 14.832187 113.507692 14.822376 113.723077 14.813457 113.938462 14.805426 114.153846 14.798278 114.369231 14.792010 114.584615 14.786619 114.800000 14.782100 115.015385 14.778451 115.230769 14.775666 115.446154 14.773743 115.661538 14.772677 115.876923 14.772465 116.092308 14.773103 116.307692 14.774588 116.523077 14.776915 116.738462 14.780081 116.953846 14.784083 117.169231 14.788915 117.384615 14.794576 117.600000 14.801060 117.815385 14.808365 118.030769 14.816485 118.246154 14.825419 118.461538 14.835162 118.676923 14.845709 118.892308 14.857058 119.107692 14.869205 119.323077 14.882146 119.538462 14.895877 119.753846 14.910394 119.969231 14.925695 120.184615 14.941774 120.400000 14.958628 120.615385 14.976254 120.830769 14.994647 121.046154 15.013805 121.261538 15.033723 121.476923 15.054397 121.692308 15.075824 121.907692 15.098000 122.123077 15.120922 122.338462 15.144584 122.553846 15.168985 122.769231 15.194120 122.984615 15.219985 123.200000 15.246576 123.415385 15.273891 123.630769 15.301924 123.846154 15.330673 124.061538 15.360133 124.276923 15.390301 124.492308 15.421173 124.707692 15.452745 124.923077 15.485014 125.138462 15.517976 125.353846 15.551627 125.569231 15.585963 125.784615 15.620981 126.000000 15.656677 126.215385 15.693047 126.430769 15.730087 126.646154 15.767794 126.861538 15.806163 127.076923 15.845192 127.292308 15.884877 127.507692 15.925212 127.723077 15.966196 127.938462 16.007824 128.153846 16.050092 128.369231 16.092997 128.584615 16.136535 128.800000 16.180702 129.015385 16.225495 129.230769 16.270909 129.446154 16.316941 129.661538 16.363587 129.876923 16.410844 130.092308 16.458707 130.307692 16.507174 130.523077 16.556239 130.738462 16.605900 130.953846 16.656153 131.169231 16.706994 131.384615 16.758419 131.600000 16.810424 131.815385 16.863006 132.030769 16.916161 132.246154 16.969886 132.461538 17.024176 132.676923 17.079028 132.892308 17.134437 133.107692 17.190401 133.323077 17.246916 133.538462 17.303977 133.753846 17.361581 133.969231 17.419725 134.184615 17.478404 134.400000 17.537615 134.615385 17.597354 134.830769 17.657617 135.046154 17.718401 135.261538 17.779702 135.476923 17.841515 135.692308 17.903838 135.907692 17.966667 136.123077 18.029998 136.338462 18.093826 136.553846 18.158149 136.769231 18.222963 136.984615 18.288263 137.200000 18.354047 137.415385 18.420309 137.630769 18.487048 137.846154 18.554258 138.061538 18.621937 138.276923 18.690080 138.492308 18.758683 138.707692 18.827744 138.923077 18.897257 139.138462 18.967220 139.353846 19.037629 139.569231 19.108479 139.784615 19.179768 140.000000 19.251491 140.215385 19.323645 140.430769 19.396226 140.646154 19.469230 140.861538 19.542653 141.076923 19.616492 141.292308 19.690743 141.507692 19.765403 141.723077 19.840466 141.938462 19.915931 142.153846 19.991792 142.369231 20.068047 142.584615 20.144691 142.800000 20.221721 143.015385 20.299133 143.230769 20.376923 143.446154 20.455088 143.661538 20.533623 143.876923 20.612526 144.092308 20.691791 144.307692 20.771416 144.523077 20.851397 144.738462 20.931731 144.953846 21.012412 145.169231 21.093438 145.384615 21.174804 145.600000 21.256508 145.815385 21.338545 146.030769 21.420912 146.246154 21.503604 146.461538 21.586619 146.676923 21.669952 146.892308 21.753599 147.107692 21.837557 147.323077 21.921823 147.538462 22.006391 147.753846 22.091260 147.969231 22.176424 148.184615 22.261880 148.400000 22.347625 148.615385 22.433654 148.830769 22.519964 149.046154 22.606551 149.261538 22.693412 149.476923 22.780542 149.692308 22.867938 149.907692 22.955597 150.123077 23.043514 150.338462 23.131685 150.553846 23.220107 150.769231 23.308777 150.984615 23.397690 151.200000 23.486843 151.415385 23.576231 151.630769 23.665852 151.846154 23.755701 152.061538 23.845775 152.276923 23.936070 152.492308 24.026582 152.707692 24.117308 152.923077 24.208243 153.138462 24.299384 153.353846 24.390728 153.569231 24.482270 153.784615 24.574006 154.000000 24.665934 154.215385 24.758049 154.430769 24.850348 154.646154 24.942826 154.861538 25.035480 155.076923 25.128307 155.292308 25.221302 155.507692 25.314462 155.723077 25.407782 155.938462 25.501261 156.153846 25.594892 156.369231 25.688674 156.584615 25.782601 156.800000 25.876671 157.015385 25.970880 157.230769 26.065223 157.446154 26.159697 157.661538 26.254299 157.876923 26.349024 158.092308 26.443870 158.307692 26.538831 158.523077 26.633904 158.738462 26.729087 158.953846 26.824374 159.169231 26.919762 159.384615 27.015247 159.600000 27.110826 159.815385 27.206495 160.030769 27.302251 160.246154 27.398088 160.461538 27.494004 160.676923 27.589996 160.892308 27.686058 161.107692 27.782187 161.323077 27.878381 161.538462 27.974634 161.753846 28.070944 161.969231 28.167305 162.184615 28.263716 162.400000 28.360171 162.615385 28.456668 162.830769 28.553202 163.046154 28.649770 163.261538 28.746368 163.476923 28.842992 163.692308 28.939638 163.907692 29.036304 164.123077 29.132984 164.338462 29.229675 164.553846 29.326374 164.769231 29.423077" class="line reactive nofill" /></g></g><g class="titles" /><g transform="translate(22, 10)" class="plot overlay"><g class="series serie-0 color-0" /></g><g transform="translate(22, 10)" class="plot text-overlay"><g class="series serie-0 color-0" /></g><g transform="translate(22, 10)" class="plot tooltip-overlay"><g transform="translate(0 0)" style="opacity: 0" class="tooltip"><rect rx="0" ry="0" width="0" height="0" class="tooltip-box" /><g class="text" /></g></g></g></svg>