<?xml version='1.0' encoding='utf-8'?>
<svg xmlns="http://www.w3.org/2000/svg" id="chart-257eb48a-3c01-4174-b185-62b19ae7bce2" class="pygal-chart pygal-sparkline" viewBox="0 0 200 50" width="200" height="50"><!--Generated with pygal 3.0.5 (etree) ©Kozea 2012-2016 on 2025-06-15--><!--http://pygal.org--><!--http://github.com/Kozea/pygal--><defs><style type="text/css">#chart-257eb48a-3c01-4174-b185-62b19ae7bce2{-webkit-user-select:none;-webkit-font-smoothing:antialiased;font-family:Consolas,"Liberation Mono",Menlo,Courier,monospace}#chart-257eb48a-3c01-4174-b185-62b19ae7bce2 .title{font-family:Consolas,"Liberation Mono",Menlo,Courier,monospace;font-size:16px}#chart-257eb48a-3c01-4174-b185-62b19ae7bce2 .legends .legend text{font-family:Consolas,"Liberation Mono",Menlo,Courier,monospace;font-size:14px}#chart-257eb48a-3c01-4174-b185-62b19ae7bce2 .axis text{font-family:Consolas,"Liberation Mono",Menlo,Courier,monospace;font-size:10px}#chart-257eb48a-3c01-4174-b185-62b19ae7bce2 .axis text.major{font-family:Consolas,"Liberation Mono",Menlo,Courier,monospace;font-size:10px}#chart-257eb48a-3c01-4174-b185-62b19ae7bce2 .text-overlay text.value{font-family:Consolas,"Liberation Mono",Menlo,Courier,monospace;font-size:16px}#chart-257eb48a-3c01-4174-b185-62b19ae7bce2 .text-overlay text.label{font-family:Consolas,"Liberation Mono",Menlo,Courier,monospace;font-size:10px}#chart-257eb48a-3c01-4174-b185-62b19ae7bce2 .tooltip{font-family:Consolas,"Liberation Mono",Menlo,Courier,monospace;font-size:14px}#chart-257eb48a-3c01-4174-b185-62b19ae7bce2 text.no_data{font-family:Consolas,"Liberation Mono",Menlo,Courier,monospace;font-size:64px}
#chart-257eb48a-3c01-4174-b185-62b19ae7bce2{background-color:rgba(249,249,249,1)}#chart-257eb48a-3c01-4174-b185-62b19ae7bce2 path,#chart-257eb48a-3c01-4174-b185-62b19ae7bce2 line,#chart-257eb48a-3c01-4174-b185-62b19ae7bce2 rect,#chart-257eb48a-3c01-4174-b185-62b19ae7bce2 circle{-webkit-transition:150ms;-moz-transition:150ms;transition:150ms}#chart-257eb48a-3c01-4174-b185-62b19ae7bce2 .graph &gt; .background{fill:rgba(249,249,249,1)}#chart-257eb48a-3c01-4174-b185-62b19ae7bce2 .plot &gt; .background{fill:rgba(255,255,255,1)}#chart-257eb48a-3c01-4174-b185-62b19ae7bce2 .graph{fill:rgba(0,0,0,.87)}#chart-257eb48a-3c01-4174-b185-62b19ae7bce2 text.no_data{fill:rgba(0,0,0,1)}#chart-257eb48a-3c01-4174-b185-62b19ae7bce2 .title{fill:rgba(0,0,0,1)}#chart-257eb48a-3c01-4174-b185-62b19ae7bce2 .legends .legend text{fill:rgba(0,0,0,.87)}#chart-257eb48a-3c01-4174-b185-62b19ae7bce2 .legends .legend:hover text{fill:rgba(0,0,0,1)}#chart-257eb48a-3c01-4174-b185-62b19ae7bce2 .axis .line{stroke:rgba(0,0,0,1)}#chart-257eb48a-3c01-4174-b185-62b19ae7bce2 .axis .guide.line{stroke:rgba(0,0,0,.54)}#chart-257eb48a-3c01-4174-b185-62b19ae7bce2 .axis .major.line{stroke:rgba(0,0,0,.87)}#chart-257eb48a-3c01-4174-b185-62b19ae7bce2 .axis text.major{fill:rgba(0,0,0,1)}#chart-257eb48a-3c01-4174-b185-62b19ae7bce2 .axis.y .guides:hover .guide.line,#chart-257eb48a-3c01-4174-b185-62b19ae7bce2 .line-graph .axis.x .guides:hover .guide.line,#chart-257eb48a-3c01-4174-b185-62b19ae7bce2 .stackedline-graph .axis.x .guides:hover .guide.line,#chart-257eb48a-3c01-4174-b185-62b19ae7bce2 .xy-graph .axis.x .guides:hover .guide.line{stroke:rgba(0,0,0,1)}#chart-257eb48a-3c01-4174-b185-62b19ae7bce2 .axis .guides:hover text{fill:rgba(0,0,0,1)}#chart-257eb48a-3c01-4174-b185-62b19ae7bce2 .reactive{fill-opacity:.7;stroke-opacity:.8;stroke-width:1}#chart-257eb48a-3c01-4174-b185-62b19ae7bce2 .ci{stroke:rgba(0,0,0,.87)}#chart-257eb48a-3c01-4174-b185-62b19ae7bce2 .reactive.active,#chart-257eb48a-3c01-4174-b185-62b19ae7bce2 .active .reactive{fill-opacity:.8;stroke-opacity:.9;stroke-width:4}#chart-257eb48a-3c01-4174-b185-62b19ae7bce2 .ci .reactive.active{stroke-width:1.5}#chart-257eb48a-3c01-4174-b185-62b19ae7bce2 .series text{fill:rgba(0,0,0,1)}#chart-257eb48a-3c01-4174-b185-62b19ae7bce2 .tooltip rect{fill:rgba(255,255,255,1);stroke:rgba(0,0,0,1);-webkit-transition:opacity 150ms;-moz-transition:opacity 150ms;transition:opacity 150ms}#chart-257eb48a-3c01-4174-b185-62b19ae7bce2 .tooltip .label{fill:rgba(0,0,0,.87)}#chart-257eb48a-3c01-4174-b185-62b19ae7bce2 .tooltip .label{fill:rgba(0,0,0,.87)}#chart-257eb48a-3c01-4174-b185-62b19ae7bce2 .tooltip .legend{font-size:.8em;fill:rgba(0,0,0,.54)}#chart-257eb48a-3c01-4174-b185-62b19ae7bce2 .tooltip .x_label{font-size:.6em;fill:rgba(0,0,0,1)}#chart-257eb48a-3c01-4174-b185-62b19ae7bce2 .tooltip .xlink{font-size:.5em;text-decoration:underline}#chart-257eb48a-3c01-4174-b185-62b19ae7bce2 .tooltip .value{font-size:1.5em}#chart-257eb48a-3c01-4174-b185-62b19ae7bce2 .bound{font-size:.5em}#chart-257eb48a-3c01-4174-b185-62b19ae7bce2 .max-value{font-size:.75em;fill:rgba(0,0,0,.54)}#chart-257eb48a-3c01-4174-b185-62b19ae7bce2 .map-element{fill:rgba(255,255,255,1);stroke:rgba(0,0,0,.54) !important}#chart-257eb48a-3c01-4174-b185-62b19ae7bce2 .map-element .reactive{fill-opacity:inherit;stroke-opacity:inherit}#chart-257eb48a-3c01-4174-b185-62b19ae7bce2 .color-0,#chart-257eb48a-3c01-4174-b185-62b19ae7bce2 .color-0 a:visited{stroke:#F44336;fill:#F44336}#chart-257eb48a-3c01-4174-b185-62b19ae7bce2 .text-overlay .color-0 text{fill:black}
#chart-257eb48a-3c01-4174-b185-62b19ae7bce2 text.no_data{text-anchor:middle}#chart-257eb48a-3c01-4174-b185-62b19ae7bce2 .guide.line{fill:none}#chart-257eb48a-3c01-4174-b185-62b19ae7bce2 .centered{text-anchor:middle}#chart-257eb48a-3c01-4174-b185-62b19ae7bce2 .title{text-anchor:middle}#chart-257eb48a-3c01-4174-b185-62b19ae7bce2 .legends .legend text{fill-opacity:1}#chart-257eb48a-3c01-4174-b185-62b19ae7bce2 .axis.x text{text-anchor:middle}#chart-257eb48a-3c01-4174-b185-62b19ae7bce2 .axis.x:not(.web) text[transform]{text-anchor:start}#chart-257eb48a-3c01-4174-b185-62b19ae7bce2 .axis.x:not(.web) text[transform].backwards{text-anchor:end}#chart-257eb48a-3c01-4174-b185-62b19ae7bce2 .axis.y text{text-anchor:end}#chart-257eb48a-3c01-4174-b185-62b19ae7bce2 .axis.y text[transform].backwards{text-anchor:start}#chart-257eb48a-3c01-4174-b185-62b19ae7bce2 .axis.y2 text{text-anchor:start}#chart-257eb48a-3c01-4174-b185-62b19ae7bce2 .axis.y2 text[transform].backwards{text-anchor:end}#chart-257eb48a-3c01-4174-b185-62b19ae7bce2 .axis .guide.line{stroke-dasharray:4,4;stroke:black}#chart-257eb48a-3c01-4174-b185-62b19ae7bce2 .axis .major.guide.line{stroke-dasharray:6,6;stroke:black}#chart-257eb48a-3c01-4174-b185-62b19ae7bce2 .horizontal .axis.y .guide.line,#chart-257eb48a-3c01-4174-b185-62b19ae7bce2 .horizontal .axis.y2 .guide.line,#chart-257eb48a-3c01-4174-b185-62b19ae7bce2 .vertical .axis.x .guide.line{opacity:0}#chart-257eb48a-3c01-4174-b185-62b19ae7bce2 .horizontal .axis.always_show .guide.line,#chart-257eb48a-3c01-4174-b185-62b19ae7bce2 .vertical .axis.always_show .guide.line{opacity:1 !important}#chart-257eb48a-3c01-4174-b185-62b19ae7bce2 .axis.y .guides:hover .guide.line,#chart-257eb48a-3c01-4174-b185-62b19ae7bce2 .axis.y2 .guides:hover .guide.line,#chart-257eb48a-3c01-4174-b185-62b19ae7bce2 .axis.x .guides:hover .guide.line{opacity:1}#chart-257eb48a-3c01-4174-b185-62b19ae7bce2 .axis .guides:hover text{opacity:1}#chart-257eb48a-3c01-4174-b185-62b19ae7bce2 .nofill{fill:none}#chart-257eb48a-3c01-4174-b185-62b19ae7bce2 .subtle-fill{fill-opacity:.2}#chart-257eb48a-3c01-4174-b185-62b19ae7bce2 .dot{stroke-width:1px;fill-opacity:1;stroke-opacity:1}#chart-257eb48a-3c01-4174-b185-62b19ae7bce2 .dot.active{stroke-width:5px}#chart-257eb48a-3c01-4174-b185-62b19ae7bce2 .dot.negative{fill:transparent}#chart-257eb48a-3c01-4174-b185-62b19ae7bce2 text,#chart-257eb48a-3c01-4174-b185-62b19ae7bce2 tspan{stroke:none !important}#chart-257eb48a-3c01-4174-b185-62b19ae7bce2 .series text.active{opacity:1}#chart-257eb48a-3c01-4174-b185-62b19ae7bce2 .tooltip rect{fill-opacity:.95;stroke-width:.5}#chart-257eb48a-3c01-4174-b185-62b19ae7bce2 .tooltip text{fill-opacity:1}#chart-257eb48a-3c01-4174-b185-62b19ae7bce2 .showable{visibility:hidden}#chart-257eb48a-3c01-4174-b185-62b19ae7bce2 .showable.shown{visibility:visible}#chart-257eb48a-3c01-4174-b185-62b19ae7bce2 .gauge-background{fill:rgba(229,229,229,1);stroke:none}#chart-257eb48a-3c01-4174-b185-62b19ae7bce2 .bg-lines{stroke:rgba(249,249,249,1);stroke-width:2px}</style><script type="text/javascript">window.pygal = window.pygal || {};window.pygal.config = window.pygal.config || {};window.pygal.config['257eb48a-3c01-4174-b185-62b19ae7bce2'] = {"allow_interruptions": false, "box_mode": "extremes", "classes": ["pygal-chart", "pygal-sparkline"], "css": ["file://style.css", "file://graph.css"], "defs": [], "disable_xml_declaration": false, "dots_size": 2.5, "dynamic_print_values": false, "explicit_size": true, "fill": false, "force_uri_protocol": "https", "formatter": null, "half_pie": false, "height": 50, "include_x_axis": false, "inner_radius": 0, "interpolate": "cubic", "interpolation_parameters": {}, "interpolation_precision": 250, "inverse_y_axis": false, "js": [], "legend_at_bottom": false, "legend_at_bottom_columns": null, "legend_box_size": 12, "logarithmic": false, "margin": 10, "margin_bottom": null, "margin_left": null, "margin_right": null, "margin_top": null, "max_scale": 2, "min_scale": 1, "missing_value_fill_truncation": "x", "no_data_text": "", "no_prefix": false, "order_min": null, "pretty_print": false, "print_labels": false, "print_values": false, "print_values_position": "center", "print_zeroes": true, "range": null, "rounded_bars": null, "secondary_range": null, "show_dots": false, "show_legend": false, "show_minor_x_labels": true, "show_minor_y_labels": true, "show_only_major_dots": false, "show_x_guides": false, "show_x_labels": false, "show_y_guides": true, "show_y_labels": true, "spacing": 0, "stack_from_top": false, "strict": false, "stroke": true, "stroke_style": null, "style": {"background": "rgba(249, 249, 249, 1)", "ci_colors": [], "colors": ["#F44336", "#3F51B5", "#009688", "#FFC107", "#FF5722", "#9C27B0", "#03A9F4", "#8BC34A", "#FF9800", "#E91E63", "#2196F3", "#4CAF50", "#FFEB3B", "#673AB7", "#00BCD4", "#CDDC39", "#9E9E9E", "#607D8B"], "dot_opacity": "1", "font_family": "Consolas, \"Liberation Mono\", Menlo, Courier, monospace", "foreground": "rgba(0, 0, 0, .87)", "foreground_strong": "rgba(0, 0, 0, 1)", "foreground_subtle": "rgba(0, 0, 0, .54)", "guide_stroke_color": "black", "guide_stroke_dasharray": "4,4", "label_font_family": "Consolas, \"Liberation Mono\", Menlo, Courier, monospace", "label_font_size": 10, "legend_font_family": "Consolas, \"Liberation Mono\", Menlo, Courier, monospace", "legend_font_size": 14, "major_guide_stroke_color": "black", "major_guide_stroke_dasharray": "6,6", "major_label_font_family": "Consolas, \"Liberation Mono\", Menlo, Courier, monospace", "major_label_font_size": 10, "no_data_font_family": "Consolas, \"Liberation Mono\", Menlo, Courier, monospace", "no_data_font_size": 64, "opacity": ".7", "opacity_hover": ".8", "plot_background": "rgba(255, 255, 255, 1)", "stroke_opacity": ".8", "stroke_opacity_hover": ".9", "stroke_width": "1", "stroke_width_hover": "4", "title_font_family": "Consolas, \"Liberation Mono\", Menlo, Courier, monospace", "title_font_size": 16, "tooltip_font_family": "Consolas, \"Liberation Mono\", Menlo, Courier, monospace", "tooltip_font_size": 14, "transition": "150ms", "value_background": "rgba(229, 229, 229, 1)", "value_colors": [], "value_font_family": "Consolas, \"Liberation Mono\", Menlo, Courier, monospace", "value_font_size": 16, "value_label_font_family": "Consolas, \"Liberation Mono\", Menlo, Courier, monospace", "value_label_font_size": 10}, "title": null, "tooltip_border_radius": 0, "tooltip_fancy_mode": true, "truncate_label": null, "truncate_legend": null, "width": 200, "x_label_rotation": 0, "x_labels": ["2025/4", "2025/3", "2025/2"], "x_labels_major": null, "x_labels_major_count": null, "x_labels_major_every": null, "x_title": null, "xrange": null, "y_label_rotation": 0, "y_labels": null, "y_labels_major": null, "y_labels_major_count": null, "y_labels_major_every": null, "y_title": null, "zero": 0, "legends": [""]}</script></defs><title>Pygal</title><g class="graph line-graph vertical"><rect x="0" y="0" width="200" height="50" class="background" /><g transform="translate(22, 10)" class="plot"><rect x="0" y="0" width="168.0" height="30" class="background" /><g class="axis y always_show"><path d="M0.000000 30.000000 h168.000000" class="line" /><g class="guides"><path d="M0.000000 16.013063 h168.000000" class="guide line" /><text x="-5" y="19.513062668627175" class="">8</text><title>8</title></g><g class="guides"><path d="M0.000000 0.687332 h168.000000" class="guide line" /><text x="-5" y="4.187332092113177" class="">16</text><title>16</title></g></g><g class="series serie-0 color-0"><path d="M3.230769 4.518765 L3.553846 4.482367 3.876923 4.445971 4.200000 4.409581 4.523077 4.373200 4.846154 4.336829 5.169231 4.300472 5.492308 4.264132 5.815385 4.227811 6.138462 4.191512 6.461538 4.155238 6.784615 4.118992 7.107692 4.082776 7.430769 4.046593 7.753846 4.010446 8.076923 3.974337 8.400000 3.938270 8.723077 3.902247 9.046154 3.866271 9.369231 3.830345 9.692308 3.794471 10.015385 3.758652 10.338462 3.722891 10.661538 3.687191 10.984615 3.651554 11.307692 3.615983 11.630769 3.580482 11.953846 3.545052 12.276923 3.509697 12.600000 3.474418 12.923077 3.439220 13.246154 3.404105 13.569231 3.369075 13.892308 3.334133 14.215385 3.299283 14.538462 3.264526 14.861538 3.229866 15.184615 3.195305 15.507692 3.160846 15.830769 3.126492 16.153846 3.092246 16.476923 3.058110 16.800000 3.024087 17.123077 2.990180 17.446154 2.956391 17.769231 2.922724 18.092308 2.889181 18.415385 2.855765 18.738462 2.822479 19.061538 2.789325 19.384615 2.756306 19.707692 2.723425 20.030769 2.690685 20.353846 2.658088 20.676923 2.625637 21.000000 2.593336 21.323077 2.561186 21.646154 2.529191 21.969231 2.497352 22.292308 2.465674 22.615385 2.434159 22.938462 2.402809 23.261538 2.371627 23.584615 2.340617 23.907692 2.309780 24.230769 2.279120 24.553846 2.248639 24.876923 2.218340 25.200000 2.188226 25.523077 2.158300 25.846154 2.128564 26.169231 2.099021 26.492308 2.069674 26.815385 2.040525 27.138462 2.011578 27.461538 1.982835 27.784615 1.954299 28.107692 1.925973 28.430769 1.897859 28.753846 1.869960 29.076923 1.842279 29.400000 1.814819 29.723077 1.787582 30.046154 1.760572 30.369231 1.733790 30.692308 1.707240 31.015385 1.680925 31.338462 1.654847 31.661538 1.629009 31.984615 1.603413 32.307692 1.578064 32.630769 1.552962 32.953846 1.528111 33.276923 1.503515 33.600000 1.479175 33.923077 1.455094 34.246154 1.431275 34.569231 1.407721 34.892308 1.384435 35.215385 1.361419 35.538462 1.338676 35.861538 1.316209 36.184615 1.294020 36.507692 1.272113 36.830769 1.250490 37.153846 1.229154 37.476923 1.208108 37.800000 1.187354 38.123077 1.166895 38.446154 1.146734 38.769231 1.126874 39.092308 1.107317 39.415385 1.088067 39.738462 1.069125 40.061538 1.050496 40.384615 1.032180 40.707692 1.014182 41.030769 0.996504 41.353846 0.979149 41.676923 0.962119 42.000000 0.945417 42.323077 0.929047 42.646154 0.913010 42.969231 0.897310 43.292308 0.881949 43.615385 0.866930 43.938462 0.852257 44.261538 0.837930 44.584615 0.823954 44.907692 0.810331 45.230769 0.797064 45.553846 0.784156 45.876923 0.771609 46.200000 0.759426 46.523077 0.747610 46.846154 0.736164 47.169231 0.725090 47.492308 0.714391 47.815385 0.704070 48.138462 0.694130 48.461538 0.684573 48.784615 0.675403 49.107692 0.666622 49.430769 0.658232 49.753846 0.650236 50.076923 0.642638 50.400000 0.635440 50.723077 0.628645 51.046154 0.622255 51.369231 0.616274 51.692308 0.610703 52.015385 0.605547 52.338462 0.600807 52.661538 0.596486 52.984615 0.592587 53.307692 0.589113 53.630769 0.586067 53.953846 0.583451 54.276923 0.581268 54.600000 0.579521 54.923077 0.578213 55.246154 0.577346 55.569231 0.576923 55.892308 0.576947 56.215385 0.577421 56.538462 0.578347 56.861538 0.579728 57.184615 0.581568 57.507692 0.583867 57.830769 0.586631 58.153846 0.589860 58.476923 0.593559 58.800000 0.597729 59.123077 0.602374 59.446154 0.607496 59.769231 0.613098 60.092308 0.619183 60.415385 0.625753 60.738462 0.632812 61.061538 0.640361 61.384615 0.648405 61.707692 0.656945 62.030769 0.665984 62.353846 0.675525 62.676923 0.685571 63.000000 0.696125 63.323077 0.707189 63.646154 0.718767 63.969231 0.730860 64.292308 0.743471 64.615385 0.756604 64.938462 0.770262 65.261538 0.784446 65.584615 0.799160 65.907692 0.814406 66.230769 0.830187 66.553846 0.846506 66.876923 0.863366 67.200000 0.880770 67.523077 0.898719 67.846154 0.917218 68.169231 0.936268 68.492308 0.955873 68.815385 0.976035 69.138462 0.996757 69.461538 1.018042 69.784615 1.039893 70.107692 1.062311 70.430769 1.085301 70.753846 1.108864 71.076923 1.133004 71.400000 1.157724 71.723077 1.183025 72.046154 1.208911 72.369231 1.235385 72.692308 1.262449 73.015385 1.290107 73.338462 1.318360 73.661538 1.347211 73.984615 1.376665 74.307692 1.406722 74.630769 1.437386 74.953846 1.468660 75.276923 1.500546 75.600000 1.533048 75.923077 1.566167 76.246154 1.599907 76.569231 1.634271 76.892308 1.669260 77.215385 1.704879 77.538462 1.741129 77.861538 1.778014 78.184615 1.815536 78.507692 1.853699 78.830769 1.892503 79.153846 1.931954 79.476923 1.972053 79.800000 2.012802 80.123077 2.054206 80.446154 2.096266 80.769231 2.138985 81.092308 2.182367 81.415385 2.226413 81.738462 2.271127 82.061538 2.316511 82.384615 2.362569 82.707692 2.409302 83.030769 2.456714 83.353846 2.504807 83.676923 2.553584 84.000000 2.603048 84.323077 2.653201 84.646154 2.704041 84.969231 2.755565 85.292308 2.807771 85.615385 2.860655 85.938462 2.914215 86.261538 2.968448 86.584615 3.023351 86.907692 3.078922 87.230769 3.135158 87.553846 3.192056 87.876923 3.249613 88.200000 3.307827 88.523077 3.366694 88.846154 3.426213 89.169231 3.486379 89.492308 3.547192 89.815385 3.608647 90.138462 3.670742 90.461538 3.733474 90.784615 3.796841 91.107692 3.860840 91.430769 3.925467 91.753846 3.990721 92.076923 4.056598 92.400000 4.123096 92.723077 4.190212 93.046154 4.257943 93.369231 4.326286 93.692308 4.395239 94.015385 4.464799 94.338462 4.534963 94.661538 4.605729 94.984615 4.677093 95.307692 4.749053 95.630769 4.821606 95.953846 4.894750 96.276923 4.968481 96.600000 5.042796 96.923077 5.117694 97.246154 5.193172 97.569231 5.269225 97.892308 5.345853 98.215385 5.423051 98.538462 5.500818 98.861538 5.579151 99.184615 5.658046 99.507692 5.737501 99.830769 5.817514 100.153846 5.898080 100.476923 5.979199 100.800000 6.060867 101.123077 6.143081 101.446154 6.225838 101.769231 6.309136 102.092308 6.392972 102.415385 6.477343 102.738462 6.562246 103.061538 6.647679 103.384615 6.733639 103.707692 6.820123 104.030769 6.907129 104.353846 6.994653 104.676923 7.082693 105.000000 7.171246 105.323077 7.260310 105.646154 7.349881 105.969231 7.439957 106.292308 7.530535 106.615385 7.621612 106.938462 7.713186 107.261538 7.805254 107.584615 7.897812 107.907692 7.990859 108.230769 8.084392 108.553846 8.178407 108.876923 8.272902 109.200000 8.367875 109.523077 8.463322 109.846154 8.559240 110.169231 8.655628 110.492308 8.752482 110.815385 8.849799 111.138462 8.947577 111.461538 9.045813 111.784615 9.144504 112.107692 9.243648 112.430769 9.343241 112.753846 9.443281 113.076923 9.543765 113.400000 9.644691 113.723077 9.746055 114.046154 9.847855 114.369231 9.950088 114.692308 10.052752 115.015385 10.155843 115.338462 10.259359 115.661538 10.363297 115.984615 10.467654 116.307692 10.572428 116.630769 10.677616 116.953846 10.783215 117.276923 10.889222 117.600000 10.995634 117.923077 11.102450 118.246154 11.209665 118.569231 11.317277 118.892308 11.425284 119.215385 11.533683 119.538462 11.642471 119.861538 11.751645 120.184615 11.861202 120.507692 11.971140 120.830769 12.081456 121.153846 12.192147 121.476923 12.303211 121.800000 12.414644 122.123077 12.526444 122.446154 12.638609 122.769231 12.751134 123.092308 12.864018 123.415385 12.977259 123.738462 13.090852 124.061538 13.204795 124.384615 13.319087 124.707692 13.433723 125.030769 13.548701 125.353846 13.664018 125.676923 13.779672 126.000000 13.895660 126.323077 14.011979 126.646154 14.128626 126.969231 14.245598 127.292308 14.362893 127.615385 14.480509 127.938462 14.598441 128.261538 14.716688 128.584615 14.835247 128.907692 14.954115 129.230769 15.073289 129.553846 15.192766 129.876923 15.312544 130.200000 15.432620 130.523077 15.552992 130.846154 15.673655 131.169231 15.794608 131.492308 15.915849 131.815385 16.037373 132.138462 16.159179 132.461538 16.281263 132.784615 16.403623 133.107692 16.526256 133.430769 16.649160 133.753846 16.772331 134.076923 16.895767 134.400000 17.019465 134.723077 17.143423 135.046154 17.267637 135.369231 17.392105 135.692308 17.516823 136.015385 17.641790 136.338462 17.767003 136.661538 17.892458 136.984615 18.018154 137.307692 18.144086 137.630769 18.270253 137.953846 18.396652 138.276923 18.523280 138.600000 18.650134 138.923077 18.777211 139.246154 18.904510 139.569231 19.032026 139.892308 19.159757 140.215385 19.287700 140.538462 19.415854 140.861538 19.544214 141.184615 19.672778 141.507692 19.801544 141.830769 19.930508 142.153846 20.059669 142.476923 20.189022 142.800000 20.318566 143.123077 20.448297 143.446154 20.578213 143.769231 20.708311 144.092308 20.838588 144.415385 20.969042 144.738462 21.099670 145.061538 21.230469 145.384615 21.361436 145.707692 21.492569 146.030769 21.623864 146.353846 21.755320 146.676923 21.886932 147.000000 22.018699 147.323077 22.150618 147.646154 22.282686 147.969231 22.414900 148.292308 22.547257 148.615385 22.679755 148.938462 22.812392 149.261538 22.945163 149.584615 23.078066 149.907692 23.211100 150.230769 23.344260 150.553846 23.477544 150.876923 23.610950 151.200000 23.744474 151.523077 23.878115 151.846154 24.011868 152.169231 24.145732 152.492308 24.279703 152.815385 24.413779 153.138462 24.547957 153.461538 24.682235 153.784615 24.816609 154.107692 24.951076 154.430769 25.085635 154.753846 25.220282 155.076923 25.355015 155.400000 25.489830 155.723077 25.624726 156.046154 25.759698 156.369231 25.894746 156.692308 26.029864 157.015385 26.165052 157.338462 26.300306 157.661538 26.435624 157.984615 26.571002 158.307692 26.706438 158.630769 26.841929 158.953846 26.977473 159.276923 27.113066 159.600000 27.248706 159.923077 27.384391 160.246154 27.520117 160.569231 27.655881 160.892308 27.791681 161.215385 27.927514 161.538462 28.063378 161.861538 28.199269 162.184615 28.335185 162.507692 28.471124 162.830769 28.607081 163.153846 28.743055 163.476923 28.879043 163.800000 29.015042 164.123077 29.151049 164.446154 29.287062 164.769231 29.423077" class="line reactive nofill" /></g></g><g class="titles" /><g transform="translate(22, 10)" class="plot overlay"><g class="series serie-0 color-0" /></g><g transform="translate(22, 10)" class="plot text-overlay"><g class="series serie-0 color-0" /></g><g transform="translate(22, 10)" class="plot tooltip-overlay"><g transform="translate(0 0)" style="opacity: 0" class="tooltip"><rect rx="0" ry="0" width="0" height="0" class="tooltip-box" /><g class="text" /></g></g></g></svg>