<?xml version='1.0' encoding='utf-8'?>
<svg xmlns="http://www.w3.org/2000/svg" id="chart-d1cfddb5-9e31-4129-80b4-8062c444dcda" class="pygal-chart pygal-sparkline" viewBox="0 0 200 50" width="200" height="50"><!--Generated with pygal 3.0.5 (etree) ©Kozea 2012-2016 on 2024-11-10--><!--http://pygal.org--><!--http://github.com/Kozea/pygal--><defs><style type="text/css">#chart-d1cfddb5-9e31-4129-80b4-8062c444dcda{-webkit-user-select:none;-webkit-font-smoothing:antialiased;font-family:Consolas,"Liberation Mono",Menlo,Courier,monospace}#chart-d1cfddb5-9e31-4129-80b4-8062c444dcda .title{font-family:Consolas,"Liberation Mono",Menlo,Courier,monospace;font-size:16px}#chart-d1cfddb5-9e31-4129-80b4-8062c444dcda .legends .legend text{font-family:Consolas,"Liberation Mono",Menlo,Courier,monospace;font-size:14px}#chart-d1cfddb5-9e31-4129-80b4-8062c444dcda .axis text{font-family:Consolas,"Liberation Mono",Menlo,Courier,monospace;font-size:10px}#chart-d1cfddb5-9e31-4129-80b4-8062c444dcda .axis text.major{font-family:Consolas,"Liberation Mono",Menlo,Courier,monospace;font-size:10px}#chart-d1cfddb5-9e31-4129-80b4-8062c444dcda .text-overlay text.value{font-family:Consolas,"Liberation Mono",Menlo,Courier,monospace;font-size:16px}#chart-d1cfddb5-9e31-4129-80b4-8062c444dcda .text-overlay text.label{font-family:Consolas,"Liberation Mono",Menlo,Courier,monospace;font-size:10px}#chart-d1cfddb5-9e31-4129-80b4-8062c444dcda .tooltip{font-family:Consolas,"Liberation Mono",Menlo,Courier,monospace;font-size:14px}#chart-d1cfddb5-9e31-4129-80b4-8062c444dcda text.no_data{font-family:Consolas,"Liberation Mono",Menlo,Courier,monospace;font-size:64px}
#chart-d1cfddb5-9e31-4129-80b4-8062c444dcda{background-color:rgba(249,249,249,1)}#chart-d1cfddb5-9e31-4129-80b4-8062c444dcda path,#chart-d1cfddb5-9e31-4129-80b4-8062c444dcda line,#chart-d1cfddb5-9e31-4129-80b4-8062c444dcda rect,#chart-d1cfddb5-9e31-4129-80b4-8062c444dcda circle{-webkit-transition:150ms;-moz-transition:150ms;transition:150ms}#chart-d1cfddb5-9e31-4129-80b4-8062c444dcda .graph &gt; .background{fill:rgba(249,249,249,1)}#chart-d1cfddb5-9e31-4129-80b4-8062c444dcda .plot &gt; .background{fill:rgba(255,255,255,1)}#chart-d1cfddb5-9e31-4129-80b4-8062c444dcda .graph{fill:rgba(0,0,0,.87)}#chart-d1cfddb5-9e31-4129-80b4-8062c444dcda text.no_data{fill:rgba(0,0,0,1)}#chart-d1cfddb5-9e31-4129-80b4-8062c444dcda .title{fill:rgba(0,0,0,1)}#chart-d1cfddb5-9e31-4129-80b4-8062c444dcda .legends .legend text{fill:rgba(0,0,0,.87)}#chart-d1cfddb5-9e31-4129-80b4-8062c444dcda .legends .legend:hover text{fill:rgba(0,0,0,1)}#chart-d1cfddb5-9e31-4129-80b4-8062c444dcda .axis .line{stroke:rgba(0,0,0,1)}#chart-d1cfddb5-9e31-4129-80b4-8062c444dcda .axis .guide.line{stroke:rgba(0,0,0,.54)}#chart-d1cfddb5-9e31-4129-80b4-8062c444dcda .axis .major.line{stroke:rgba(0,0,0,.87)}#chart-d1cfddb5-9e31-4129-80b4-8062c444dcda .axis text.major{fill:rgba(0,0,0,1)}#chart-d1cfddb5-9e31-4129-80b4-8062c444dcda .axis.y .guides:hover .guide.line,#chart-d1cfddb5-9e31-4129-80b4-8062c444dcda .line-graph .axis.x .guides:hover .guide.line,#chart-d1cfddb5-9e31-4129-80b4-8062c444dcda .stackedline-graph .axis.x .guides:hover .guide.line,#chart-d1cfddb5-9e31-4129-80b4-8062c444dcda .xy-graph .axis.x .guides:hover .guide.line{stroke:rgba(0,0,0,1)}#chart-d1cfddb5-9e31-4129-80b4-8062c444dcda .axis .guides:hover text{fill:rgba(0,0,0,1)}#chart-d1cfddb5-9e31-4129-80b4-8062c444dcda .reactive{fill-opacity:.7;stroke-opacity:.8;stroke-width:1}#chart-d1cfddb5-9e31-4129-80b4-8062c444dcda .ci{stroke:rgba(0,0,0,.87)}#chart-d1cfddb5-9e31-4129-80b4-8062c444dcda .reactive.active,#chart-d1cfddb5-9e31-4129-80b4-8062c444dcda .active .reactive{fill-opacity:.8;stroke-opacity:.9;stroke-width:4}#chart-d1cfddb5-9e31-4129-80b4-8062c444dcda .ci .reactive.active{stroke-width:1.5}#chart-d1cfddb5-9e31-4129-80b4-8062c444dcda .series text{fill:rgba(0,0,0,1)}#chart-d1cfddb5-9e31-4129-80b4-8062c444dcda .tooltip rect{fill:rgba(255,255,255,1);stroke:rgba(0,0,0,1);-webkit-transition:opacity 150ms;-moz-transition:opacity 150ms;transition:opacity 150ms}#chart-d1cfddb5-9e31-4129-80b4-8062c444dcda .tooltip .label{fill:rgba(0,0,0,.87)}#chart-d1cfddb5-9e31-4129-80b4-8062c444dcda .tooltip .label{fill:rgba(0,0,0,.87)}#chart-d1cfddb5-9e31-4129-80b4-8062c444dcda .tooltip .legend{font-size:.8em;fill:rgba(0,0,0,.54)}#chart-d1cfddb5-9e31-4129-80b4-8062c444dcda .tooltip .x_label{font-size:.6em;fill:rgba(0,0,0,1)}#chart-d1cfddb5-9e31-4129-80b4-8062c444dcda .tooltip .xlink{font-size:.5em;text-decoration:underline}#chart-d1cfddb5-9e31-4129-80b4-8062c444dcda .tooltip .value{font-size:1.5em}#chart-d1cfddb5-9e31-4129-80b4-8062c444dcda .bound{font-size:.5em}#chart-d1cfddb5-9e31-4129-80b4-8062c444dcda .max-value{font-size:.75em;fill:rgba(0,0,0,.54)}#chart-d1cfddb5-9e31-4129-80b4-8062c444dcda .map-element{fill:rgba(255,255,255,1);stroke:rgba(0,0,0,.54) !important}#chart-d1cfddb5-9e31-4129-80b4-8062c444dcda .map-element .reactive{fill-opacity:inherit;stroke-opacity:inherit}#chart-d1cfddb5-9e31-4129-80b4-8062c444dcda .color-0,#chart-d1cfddb5-9e31-4129-80b4-8062c444dcda .color-0 a:visited{stroke:#F44336;fill:#F44336}#chart-d1cfddb5-9e31-4129-80b4-8062c444dcda .text-overlay .color-0 text{fill:black}
#chart-d1cfddb5-9e31-4129-80b4-8062c444dcda text.no_data{text-anchor:middle}#chart-d1cfddb5-9e31-4129-80b4-8062c444dcda .guide.line{fill:none}#chart-d1cfddb5-9e31-4129-80b4-8062c444dcda .centered{text-anchor:middle}#chart-d1cfddb5-9e31-4129-80b4-8062c444dcda .title{text-anchor:middle}#chart-d1cfddb5-9e31-4129-80b4-8062c444dcda .legends .legend text{fill-opacity:1}#chart-d1cfddb5-9e31-4129-80b4-8062c444dcda .axis.x text{text-anchor:middle}#chart-d1cfddb5-9e31-4129-80b4-8062c444dcda .axis.x:not(.web) text[transform]{text-anchor:start}#chart-d1cfddb5-9e31-4129-80b4-8062c444dcda .axis.x:not(.web) text[transform].backwards{text-anchor:end}#chart-d1cfddb5-9e31-4129-80b4-8062c444dcda .axis.y text{text-anchor:end}#chart-d1cfddb5-9e31-4129-80b4-8062c444dcda .axis.y text[transform].backwards{text-anchor:start}#chart-d1cfddb5-9e31-4129-80b4-8062c444dcda .axis.y2 text{text-anchor:start}#chart-d1cfddb5-9e31-4129-80b4-8062c444dcda .axis.y2 text[transform].backwards{text-anchor:end}#chart-d1cfddb5-9e31-4129-80b4-8062c444dcda .axis .guide.line{stroke-dasharray:4,4;stroke:black}#chart-d1cfddb5-9e31-4129-80b4-8062c444dcda .axis .major.guide.line{stroke-dasharray:6,6;stroke:black}#chart-d1cfddb5-9e31-4129-80b4-8062c444dcda .horizontal .axis.y .guide.line,#chart-d1cfddb5-9e31-4129-80b4-8062c444dcda .horizontal .axis.y2 .guide.line,#chart-d1cfddb5-9e31-4129-80b4-8062c444dcda .vertical .axis.x .guide.line{opacity:0}#chart-d1cfddb5-9e31-4129-80b4-8062c444dcda .horizontal .axis.always_show .guide.line,#chart-d1cfddb5-9e31-4129-80b4-8062c444dcda .vertical .axis.always_show .guide.line{opacity:1 !important}#chart-d1cfddb5-9e31-4129-80b4-8062c444dcda .axis.y .guides:hover .guide.line,#chart-d1cfddb5-9e31-4129-80b4-8062c444dcda .axis.y2 .guides:hover .guide.line,#chart-d1cfddb5-9e31-4129-80b4-8062c444dcda .axis.x .guides:hover .guide.line{opacity:1}#chart-d1cfddb5-9e31-4129-80b4-8062c444dcda .axis .guides:hover text{opacity:1}#chart-d1cfddb5-9e31-4129-80b4-8062c444dcda .nofill{fill:none}#chart-d1cfddb5-9e31-4129-80b4-8062c444dcda .subtle-fill{fill-opacity:.2}#chart-d1cfddb5-9e31-4129-80b4-8062c444dcda .dot{stroke-width:1px;fill-opacity:1;stroke-opacity:1}#chart-d1cfddb5-9e31-4129-80b4-8062c444dcda .dot.active{stroke-width:5px}#chart-d1cfddb5-9e31-4129-80b4-8062c444dcda .dot.negative{fill:transparent}#chart-d1cfddb5-9e31-4129-80b4-8062c444dcda text,#chart-d1cfddb5-9e31-4129-80b4-8062c444dcda tspan{stroke:none !important}#chart-d1cfddb5-9e31-4129-80b4-8062c444dcda .series text.active{opacity:1}#chart-d1cfddb5-9e31-4129-80b4-8062c444dcda .tooltip rect{fill-opacity:.95;stroke-width:.5}#chart-d1cfddb5-9e31-4129-80b4-8062c444dcda .tooltip text{fill-opacity:1}#chart-d1cfddb5-9e31-4129-80b4-8062c444dcda .showable{visibility:hidden}#chart-d1cfddb5-9e31-4129-80b4-8062c444dcda .showable.shown{visibility:visible}#chart-d1cfddb5-9e31-4129-80b4-8062c444dcda .gauge-background{fill:rgba(229,229,229,1);stroke:none}#chart-d1cfddb5-9e31-4129-80b4-8062c444dcda .bg-lines{stroke:rgba(249,249,249,1);stroke-width:2px}</style><script type="text/javascript">window.pygal = window.pygal || {};window.pygal.config = window.pygal.config || {};window.pygal.config['d1cfddb5-9e31-4129-80b4-8062c444dcda'] = {"allow_interruptions": false, "box_mode": "extremes", "classes": ["pygal-chart", "pygal-sparkline"], "css": ["file://style.css", "file://graph.css"], "defs": [], "disable_xml_declaration": false, "dots_size": 2.5, "dynamic_print_values": false, "explicit_size": true, "fill": false, "force_uri_protocol": "https", "formatter": null, "half_pie": false, "height": 50, "include_x_axis": false, "inner_radius": 0, "interpolate": "cubic", "interpolation_parameters": {}, "interpolation_precision": 250, "inverse_y_axis": false, "js": [], "legend_at_bottom": false, "legend_at_bottom_columns": null, "legend_box_size": 12, "logarithmic": false, "margin": 10, "margin_bottom": null, "margin_left": null, "margin_right": null, "margin_top": null, "max_scale": 2, "min_scale": 1, "missing_value_fill_truncation": "x", "no_data_text": "", "no_prefix": false, "order_min": null, "pretty_print": false, "print_labels": false, "print_values": false, "print_values_position": "center", "print_zeroes": true, "range": null, "rounded_bars": null, "secondary_range": null, "show_dots": false, "show_legend": false, "show_minor_x_labels": true, "show_minor_y_labels": true, "show_only_major_dots": false, "show_x_guides": false, "show_x_labels": false, "show_y_guides": true, "show_y_labels": true, "spacing": 0, "stack_from_top": false, "strict": false, "stroke": true, "stroke_style": null, "style": {"background": "rgba(249, 249, 249, 1)", "ci_colors": [], "colors": ["#F44336", "#3F51B5", "#009688", "#FFC107", "#FF5722", "#9C27B0", "#03A9F4", "#8BC34A", "#FF9800", "#E91E63", "#2196F3", "#4CAF50", "#FFEB3B", "#673AB7", "#00BCD4", "#CDDC39", "#9E9E9E", "#607D8B"], "dot_opacity": "1", "font_family": "Consolas, \"Liberation Mono\", Menlo, Courier, monospace", "foreground": "rgba(0, 0, 0, .87)", "foreground_strong": "rgba(0, 0, 0, 1)", "foreground_subtle": "rgba(0, 0, 0, .54)", "guide_stroke_color": "black", "guide_stroke_dasharray": "4,4", "label_font_family": "Consolas, \"Liberation Mono\", Menlo, Courier, monospace", "label_font_size": 10, "legend_font_family": "Consolas, \"Liberation Mono\", Menlo, Courier, monospace", "legend_font_size": 14, "major_guide_stroke_color": "black", "major_guide_stroke_dasharray": "6,6", "major_label_font_family": "Consolas, \"Liberation Mono\", Menlo, Courier, monospace", "major_label_font_size": 10, "no_data_font_family": "Consolas, \"Liberation Mono\", Menlo, Courier, monospace", "no_data_font_size": 64, "opacity": ".7", "opacity_hover": ".8", "plot_background": "rgba(255, 255, 255, 1)", "stroke_opacity": ".8", "stroke_opacity_hover": ".9", "stroke_width": "1", "stroke_width_hover": "4", "title_font_family": "Consolas, \"Liberation Mono\", Menlo, Courier, monospace", "title_font_size": 16, "tooltip_font_family": "Consolas, \"Liberation Mono\", Menlo, Courier, monospace", "tooltip_font_size": 14, "transition": "150ms", "value_background": "rgba(229, 229, 229, 1)", "value_colors": [], "value_font_family": "Consolas, \"Liberation Mono\", Menlo, Courier, monospace", "value_font_size": 16, "value_label_font_family": "Consolas, \"Liberation Mono\", Menlo, Courier, monospace", "value_label_font_size": 10}, "title": null, "tooltip_border_radius": 0, "tooltip_fancy_mode": true, "truncate_label": null, "truncate_legend": null, "width": 200, "x_label_rotation": 0, "x_labels": ["2024/3", "2024/1", "2023/4", "2021/8", "2021/7", "2021/6", "2021/5", "2021/2"], "x_labels_major": null, "x_labels_major_count": null, "x_labels_major_every": null, "x_title": null, "xrange": null, "y_label_rotation": 0, "y_labels": null, "y_labels_major": null, "y_labels_major_count": null, "y_labels_major_every": null, "y_title": null, "zero": 0, "legends": [""]}</script></defs><title>Pygal</title><g class="graph line-graph vertical"><rect x="0" y="0" width="200" height="50" class="background" /><g transform="translate(76, 10)" class="plot"><rect x="0" y="0" width="114.0" height="30" class="background" /><g class="axis y always_show"><path d="M0.000000 30.000000 h114.000000" class="line" /><g class="guides"><path d="M0.000000 29.423077 h114.000000" class="guide line" /><text x="-5" y="32.92307692307692" class="">0.636541207</text><title>0.636541207</title></g><g class="guides"><path d="M0.000000 0.576923 h114.000000" class="guide line" /><text x="-5" y="4.076923076923077" class="">12.00297294</text><title>12.00297294</title></g></g><g class="series serie-0 color-0"><path d="M2.192308 25.962840 L2.254945 25.951322 2.317582 25.939805 2.380220 25.928290 2.442857 25.916779 2.505495 25.905272 2.568132 25.893770 2.630769 25.882275 2.693407 25.870788 2.756044 25.859310 2.818681 25.847841 2.881319 25.836384 2.943956 25.824939 3.006593 25.813507 3.069231 25.802089 3.131868 25.790687 3.194505 25.779302 3.257143 25.767934 3.319780 25.756585 3.382418 25.745256 3.445055 25.733948 3.507692 25.722662 3.570330 25.711399 3.632967 25.700161 3.695604 25.688948 3.758242 25.677761 3.820879 25.666603 3.883516 25.655473 3.946154 25.644372 4.008791 25.633303 4.071429 25.622266 4.134066 25.611262 4.196703 25.600292 4.259341 25.589358 4.321978 25.578460 4.384615 25.567600 4.447253 25.556778 4.509890 25.545997 4.572527 25.535256 4.635165 25.524557 4.697802 25.513901 4.760440 25.503290 4.823077 25.492724 4.885714 25.482204 4.948352 25.471732 5.010989 25.461309 5.073626 25.450935 5.136264 25.440612 5.198901 25.430341 5.261538 25.420123 5.324176 25.409960 5.386813 25.399851 5.449451 25.389800 5.512088 25.379805 5.574725 25.369869 5.637363 25.359993 5.700000 25.350178 5.762637 25.340425 5.825275 25.330734 5.887912 25.321108 5.950549 25.311547 6.013187 25.302052 6.075824 25.292625 6.138462 25.283267 6.201099 25.273978 6.263736 25.264760 6.326374 25.255613 6.389011 25.246540 6.451648 25.237541 6.514286 25.228617 6.576923 25.219769 6.639560 25.210999 6.702198 25.202307 6.764835 25.193694 6.827473 25.185163 6.890110 25.176713 6.952747 25.168347 7.015385 25.160064 7.078022 25.151866 7.140659 25.143755 7.203297 25.135731 7.265934 25.127796 7.328571 25.119950 7.391209 25.112194 7.453846 25.104531 7.516484 25.096960 7.579121 25.089484 7.641758 25.082102 7.704396 25.074817 7.767033 25.067629 7.829670 25.060539 7.892308 25.053549 7.954945 25.046660 8.017582 25.039872 8.080220 25.033187 8.142857 25.026606 8.205495 25.020130 8.268132 25.013761 8.330769 25.007498 8.393407 25.001344 8.456044 24.995299 8.518681 24.989365 8.581319 24.983543 8.643956 24.977833 8.706593 24.972238 8.769231 24.966757 8.831868 24.961392 8.894505 24.956145 8.957143 24.951016 9.019780 24.946006 9.082418 24.941117 9.145055 24.936350 9.207692 24.931705 9.270330 24.927184 9.332967 24.922788 9.395604 24.918518 9.458242 24.914375 9.520879 24.910361 9.583516 24.906476 9.646154 24.902721 9.708791 24.899098 9.771429 24.895608 9.834066 24.892251 9.896703 24.889030 9.959341 24.885944 10.021978 24.882995 10.084615 24.880185 10.147253 24.877514 10.209890 24.874984 10.272527 24.872595 10.335165 24.870348 10.397802 24.868246 10.460440 24.866288 10.523077 24.864476 10.585714 24.862811 10.648352 24.861295 10.710989 24.859928 10.773626 24.858711 10.836264 24.857645 10.898901 24.856733 10.961538 24.855973 11.024176 24.855369 11.086813 24.854921 11.149451 24.854629 11.212088 24.854496 11.274725 24.854522 11.337363 24.854708 11.400000 24.855056 11.462637 24.855566 11.525275 24.856240 11.587912 24.857079 11.650549 24.858084 11.713187 24.859255 11.775824 24.860595 11.838462 24.862104 11.901099 24.863783 11.963736 24.865633 12.026374 24.867656 12.089011 24.869853 12.151648 24.872224 12.214286 24.874771 12.276923 24.877495 12.339560 24.880397 12.402198 24.883479 12.464835 24.886740 12.527473 24.890183 12.590110 24.893808 12.652747 24.897617 12.715385 24.901610 12.778022 24.905790 12.840659 24.910156 12.903297 24.914710 12.965934 24.919453 13.028571 24.924386 13.091209 24.929511 13.153846 24.934828 13.216484 24.940339 13.279121 24.946044 13.341758 24.951945 13.404396 24.958042 13.467033 24.964338 13.529670 24.970833 13.592308 24.977528 13.654945 24.984424 13.717582 24.991522 13.780220 24.998824 13.842857 25.006330 13.905495 25.014043 13.968132 25.021961 14.030769 25.030088 14.093407 25.038424 14.156044 25.046970 14.218681 25.055727 14.281319 25.064696 14.343956 25.073879 14.406593 25.083276 14.469231 25.092889 14.531868 25.102719 14.594505 25.112767 14.657143 25.123033 14.719780 25.133519 14.782418 25.144227 14.845055 25.155157 14.907692 25.166310 14.970330 25.177688 15.032967 25.189291 15.095604 25.201121 15.158242 25.213179 15.220879 25.225466 15.283516 25.237982 15.346154 25.250730 15.408791 25.263710 15.471429 25.276923 15.534066 25.290371 15.596703 25.304054 15.659341 25.317974 15.721978 25.332132 15.784615 25.346528 15.847253 25.361165 15.909890 25.376042 15.972527 25.391162 16.035165 25.406525 16.097802 25.422132 16.160440 25.437985 16.223077 25.454084 16.285714 25.470431 16.348352 25.487027 16.410989 25.503873 16.473626 25.520969 16.536264 25.538318 16.598901 25.555920 16.661538 25.573777 16.724176 25.591888 16.786813 25.610257 16.849451 25.628883 16.912088 25.647768 16.974725 25.666912 17.037363 25.686318 17.100000 25.705985 17.162637 25.725916 17.225275 25.746111 17.287912 25.766572 17.350549 25.787299 17.413187 25.808293 17.475824 25.829556 17.538462 25.851089 17.601099 25.872893 17.663736 25.894969 17.726374 25.917318 17.789011 25.939942 17.851648 25.962840 17.914286 25.986014 17.976923 26.009459 18.039560 26.033170 18.102198 26.057140 18.164835 26.081364 18.227473 26.105837 18.290110 26.130554 18.352747 26.155508 18.415385 26.180695 18.478022 26.206108 18.540659 26.231742 18.603297 26.257592 18.665934 26.283652 18.728571 26.309917 18.791209 26.336380 18.853846 26.363038 18.916484 26.389883 18.979121 26.416910 19.041758 26.444115 19.104396 26.471491 19.167033 26.499032 19.229670 26.526734 19.292308 26.554591 19.354945 26.582597 19.417582 26.610747 19.480220 26.639036 19.542857 26.667456 19.605495 26.696004 19.668132 26.724674 19.730769 26.753460 19.793407 26.782356 19.856044 26.811357 19.918681 26.840458 19.981319 26.869653 20.043956 26.898936 20.106593 26.928303 20.169231 26.957746 20.231868 26.987262 20.294505 27.016844 20.357143 27.046486 20.419780 27.076184 20.482418 27.105932 20.545055 27.135724 20.607692 27.165555 20.670330 27.195419 20.732967 27.225310 20.795604 27.255224 20.858242 27.285154 20.920879 27.315095 20.983516 27.345042 21.046154 27.374989 21.108791 27.404930 21.171429 27.434860 21.234066 27.464774 21.296703 27.494665 21.359341 27.524529 21.421978 27.554360 21.484615 27.584152 21.547253 27.613900 21.609890 27.643597 21.672527 27.673240 21.735165 27.702822 21.797802 27.732338 21.860440 27.761781 21.923077 27.791147 21.985714 27.820431 22.048352 27.849626 22.110989 27.878727 22.173626 27.907728 22.236264 27.936624 22.298901 27.965410 22.361538 27.994080 22.424176 28.022628 22.486813 28.051048 22.549451 28.079337 22.612088 28.107486 22.674725 28.135493 22.737363 28.163349 22.800000 28.191052 22.862637 28.218593 22.925275 28.245969 22.987912 28.273174 23.050549 28.300201 23.113187 28.327046 23.175824 28.353704 23.238462 28.380167 23.301099 28.406432 23.363736 28.432492 23.426374 28.458342 23.489011 28.483976 23.551648 28.509389 23.614286 28.534576 23.676923 28.559530 23.739560 28.584246 23.802198 28.608720 23.864835 28.632944 23.927473 28.656914 23.990110 28.680625 24.052747 28.704070 24.115385 28.727243 24.178022 28.750141 24.240659 28.772757 24.303297 28.795085 24.365934 28.817120 24.428571 28.838856 24.491209 28.860289 24.553846 28.881411 24.616484 28.902219 24.679121 28.922706 24.741758 28.942867 24.804396 28.962696 24.867033 28.982188 24.929670 29.001337 24.992308 29.020138 25.054945 29.038584 25.117582 29.056672 25.180220 29.074394 25.242857 29.091747 25.305495 29.108723 25.368132 29.125318 25.430769 29.141525 25.493407 29.157340 25.556044 29.172757 25.618681 29.187771 25.681319 29.202375 25.743956 29.216565 25.806593 29.230334 25.869231 29.243678 25.931868 29.256591 25.994505 29.269066 26.057143 29.281100 26.119780 29.292686 26.182418 29.303818 26.245055 29.314491 26.307692 29.324700 26.370330 29.334439 26.432967 29.343703 26.495604 29.352485 26.558242 29.360781 26.620879 29.368585 26.683516 29.375891 26.746154 29.382695 26.808791 29.388989 26.871429 29.394769 26.934066 29.400030 26.996703 29.404766 27.059341 29.408970 27.121978 29.412639 27.184615 29.415765 27.247253 29.418344 27.309890 29.420371 27.372527 29.421838 27.435165 29.422742 27.497802 29.423077 27.560440 29.422836 27.623077 29.422015 27.685714 29.420608 27.748352 29.418610 27.810989 29.416014 27.873626 29.412815 27.936264 29.409009 27.998901 29.404589 28.061538 29.399549 28.124176 29.393885 28.186813 29.387590 28.249451 29.380660 28.312088 29.373088 28.374725 29.364870 28.437363 29.355999 28.500000 29.346470 28.562637 29.336277 28.625275 29.325416 28.687912 29.313880 28.750549 29.301664 28.813187 29.288763 28.875824 29.275170 28.938462 29.260881 29.001099 29.245890 29.063736 29.230191 29.126374 29.213778 29.189011 29.196647 29.251648 29.178792 29.314286 29.160207 29.376923 29.140887 29.439560 29.120825 29.502198 29.100018 29.564835 29.078458 29.627473 29.056141 29.690110 29.033061 29.752747 29.009213 29.815385 28.984590 29.878022 28.959188 29.940659 28.933001 30.003297 28.906023 30.065934 28.878249 30.128571 28.849673 30.191209 28.820291 30.253846 28.790095 30.316484 28.759081 30.379121 28.727243 30.441758 28.694577 30.504396 28.661075 30.567033 28.626733 30.629670 28.591544 30.692308 28.555505 30.754945 28.518608 30.817582 28.480849 30.880220 28.442222 30.942857 28.402722 31.005495 28.362342 31.068132 28.321078 31.130769 28.278924 31.193407 28.235874 31.256044 28.191922 31.318681 28.147064 31.381319 28.101294 31.443956 28.054606 31.506593 28.006995 31.569231 27.958455 31.631868 27.908980 31.694505 27.858566 31.757143 27.807206 31.819780 27.754895 31.882418 27.701628 31.945055 27.647399 32.007692 27.592202 32.070330 27.536032 32.132967 27.478883 32.195604 27.420751 32.258242 27.361628 32.320879 27.301511 32.383516 27.240393 32.446154 27.178268 32.508791 27.115132 32.571429 27.050979 32.634066 26.985802 32.696703 26.919598 32.759341 26.852359 32.821978 26.784081 32.884615 26.714758 32.947253 26.644385 33.009890 26.572955 33.072527 26.500464 33.135165 26.426906 33.197802 26.352276 33.260440 26.276567 33.323077 26.199775 33.385714 26.121893 33.448352 26.042917 33.510989 25.962840 33.573626 25.881661 33.636264 25.799387 33.698901 25.716030 33.761538 25.631601 33.824176 25.546111 33.886813 25.459572 33.949451 25.371994 34.012088 25.283390 34.074725 25.193770 34.137363 25.103145 34.200000 25.011528 34.262637 24.918929 34.325275 24.825359 34.387912 24.730829 34.450549 24.635352 34.513187 24.538938 34.575824 24.441598 34.638462 24.343344 34.701099 24.244187 34.763736 24.144139 34.826374 24.043209 34.889011 23.941411 34.951648 23.838755 35.014286 23.735252 35.076923 23.630913 35.139560 23.525751 35.202198 23.419775 35.264835 23.312998 35.327473 23.205431 35.390110 23.097084 35.452747 22.987969 35.515385 22.878098 35.578022 22.767482 35.640659 22.656132 35.703297 22.544059 35.765934 22.431274 35.828571 22.317789 35.891209 22.203615 35.953846 22.088764 36.016484 21.973246 36.079121 21.857072 36.141758 21.740255 36.204396 21.622805 36.267033 21.504734 36.329670 21.386053 36.392308 21.266772 36.454945 21.146905 36.517582 21.026460 36.580220 20.905451 36.642857 20.783888 36.705495 20.661782 36.768132 20.539145 36.830769 20.415988 36.893407 20.292323 36.956044 20.168159 37.018681 20.043510 37.081319 19.918385 37.143956 19.792797 37.206593 19.666757 37.269231 19.540275 37.331868 19.413363 37.394505 19.286033 37.457143 19.158295 37.519780 19.030161 37.582418 18.901643 37.645055 18.772750 37.707692 18.643496 37.770330 18.513890 37.832967 18.383945 37.895604 18.253671 37.958242 18.123079 38.020879 17.992182 38.083516 17.860990 38.146154 17.729515 38.208791 17.597767 38.271429 17.465758 38.334066 17.333500 38.396703 17.201003 38.459341 17.068279 38.521978 16.935340 38.584615 16.802195 38.647253 16.668857 38.709890 16.535338 38.772527 16.401647 38.835165 16.267797 38.897802 16.133798 38.960440 15.999662 39.023077 15.865401 39.085714 15.731025 39.148352 15.596546 39.210989 15.461975 39.273626 15.327323 39.336264 15.192601 39.398901 15.057822 39.461538 14.922995 39.524176 14.788133 39.586813 14.653247 39.649451 14.518347 39.712088 14.383445 39.774725 14.248553 39.837363 14.113682 39.900000 13.978842 39.962637 13.844046 40.025275 13.709304 40.087912 13.574628 40.150549 13.440028 40.213187 13.305517 40.275824 13.171106 40.338462 13.036805 40.401099 12.902626 40.463736 12.768581 40.526374 12.634680 40.589011 12.500935 40.651648 12.367357 40.714286 12.233958 40.776923 12.100748 40.839560 11.967739 40.902198 11.834942 40.964835 11.702368 41.027473 11.570029 41.090110 11.437936 41.152747 11.306101 41.215385 11.174533 41.278022 11.043246 41.340659 10.912249 41.403297 10.781555 41.465934 10.651174 41.528571 10.521118 41.591209 10.391399 41.653846 10.262026 41.716484 10.133012 41.779121 10.004368 41.841758 9.876105 41.904396 9.748234 41.967033 9.620767 42.029670 9.493715 42.092308 9.367089 42.154945 9.240900 42.217582 9.115161 42.280220 8.989881 42.342857 8.865072 42.405495 8.740746 42.468132 8.616913 42.530769 8.493586 42.593407 8.370775 42.656044 8.248491 42.718681 8.126747 42.781319 8.005552 42.843956 7.884919 42.906593 7.764858 42.969231 7.645381 43.031868 7.526499 43.094505 7.408224 43.157143 7.290566 43.219780 7.173537 43.282418 7.057149 43.345055 6.941411 43.407692 6.826337 43.470330 6.711936 43.532967 6.598221 43.595604 6.485202 43.658242 6.372891 43.720879 6.261300 43.783516 6.150438 43.846154 6.040318 43.908791 5.930951 43.971429 5.822347 44.034066 5.714520 44.096703 5.607478 44.159341 5.501235 44.221978 5.395801 44.284615 5.291187 44.347253 5.187405 44.409890 5.084466 44.472527 4.982381 44.535165 4.881162 44.597802 4.780819 44.660440 4.681364 44.723077 4.582809 44.785714 4.485164 44.848352 4.388441 44.910989 4.292651 44.973626 4.197805 45.036264 4.103915 45.098901 4.010991 45.161538 3.919046 45.224176 3.828090 45.286813 3.738135 45.349451 3.649192 45.412088 3.561272 45.474725 3.474386 45.537363 3.388546 45.600000 3.303763 45.662637 3.220048 45.725275 3.137413 45.787912 3.055868 45.850549 2.975425 45.913187 2.896096 45.975824 2.817891 46.038462 2.740822 46.101099 2.664900 46.163736 2.590137 46.226374 2.516543 46.289011 2.444130 46.351648 2.372909 46.414286 2.302891 46.476923 2.234088 46.539560 2.166511 46.602198 2.100172 46.664835 2.035080 46.727473 1.971249 46.790110 1.908688 46.852747 1.847410 46.915385 1.787425 46.978022 1.728745 47.040659 1.671380 47.103297 1.615344 47.165934 1.560645 47.228571 1.507297 47.291209 1.455310 47.353846 1.404695 47.416484 1.355463 47.479121 1.307627 47.541758 1.261197 47.604396 1.216184 47.667033 1.172599 47.729670 1.130455 47.792308 1.089762 47.854945 1.050531 47.917582 1.012775 47.980220 0.976503 48.042857 0.941727 48.105495 0.908459 48.168132 0.876710 48.230769 0.846490 48.293407 0.817813 48.356044 0.790687 48.418681 0.765126 48.481319 0.741139 48.543956 0.718739 48.606593 0.697937 48.669231 0.678743 48.731868 0.661170 48.794505 0.645228 48.857143 0.630929 48.919780 0.618284 48.982418 0.607304 49.045055 0.598000 49.107692 0.590385 49.170330 0.584468 49.232967 0.580258 49.295604 0.577747 49.358242 0.576923 49.420879 0.577776 49.483516 0.580294 49.546154 0.584467 49.608791 0.590281 49.671429 0.597728 49.734066 0.606794 49.796703 0.617470 49.859341 0.629742 49.921978 0.643602 49.984615 0.659036 50.047253 0.676034 50.109890 0.694585 50.172527 0.714677 50.235165 0.736299 50.297802 0.759440 50.360440 0.784088 50.423077 0.810233 50.485714 0.837862 50.548352 0.866965 50.610989 0.897531 50.673626 0.929548 50.736264 0.963004 50.798901 0.997889 50.861538 1.034192 50.924176 1.071900 50.986813 1.111004 51.049451 1.151491 51.112088 1.193350 51.174725 1.236571 51.237363 1.281141 51.300000 1.327049 51.362637 1.374285 51.425275 1.422837 51.487912 1.472693 51.550549 1.523843 51.613187 1.576275 51.675824 1.629978 51.738462 1.684940 51.801099 1.741151 51.863736 1.798599 51.926374 1.857273 51.989011 1.917161 52.051648 1.978253 52.114286 2.040536 52.176923 2.104001 52.239560 2.168634 52.302198 2.234427 52.364835 2.301366 52.427473 2.369440 52.490110 2.438639 52.552747 2.508952 52.615385 2.580366 52.678022 2.652871 52.740659 2.726455 52.803297 2.801107 52.865934 2.876816 52.928571 2.953571 52.991209 3.031360 53.053846 3.110172 53.116484 3.189995 53.179121 3.270820 53.241758 3.352633 53.304396 3.435425 53.367033 3.519183 53.429670 3.603896 53.492308 3.689554 53.554945 3.776144 53.617582 3.863656 53.680220 3.952079 53.742857 4.041401 53.805495 4.131610 53.868132 4.222696 53.930769 4.314647 53.993407 4.407453 54.056044 4.501101 54.118681 4.595580 54.181319 4.690880 54.243956 4.786989 54.306593 4.883895 54.369231 4.981588 54.431868 5.080056 54.494505 5.179288 54.557143 5.279273 54.619780 5.379999 54.682418 5.481455 54.745055 5.583630 54.807692 5.686512 54.870330 5.790091 54.932967 5.894354 54.995604 5.999292 55.058242 6.104892 55.120879 6.211143 55.183516 6.318034 55.246154 6.425554 55.308791 6.533692 55.371429 6.642435 55.434066 6.751773 55.496703 6.861695 55.559341 6.972190 55.621978 7.083245 55.684615 7.194850 55.747253 7.306994 55.809890 7.419665 55.872527 7.532853 55.935165 7.646545 55.997802 7.760730 56.060440 7.875398 56.123077 7.990536 56.185714 8.106135 56.248352 8.222181 56.310989 8.338665 56.373626 8.455575 56.436264 8.572900 56.498901 8.690627 56.561538 8.808747 56.624176 8.927248 56.686813 9.046118 56.749451 9.165347 56.812088 9.284923 56.874725 9.404834 56.937363 9.525070 57.000000 9.645619 57.062637 9.766470 57.125275 9.887612 57.187912 10.009033 57.250549 10.130723 57.313187 10.252669 57.375824 10.374861 57.438462 10.497287 57.501099 10.619937 57.563736 10.742798 57.626374 10.865860 57.689011 10.989111 57.751648 11.112540 57.814286 11.236136 57.876923 11.359888 57.939560 11.483783 58.002198 11.607812 58.064835 11.731962 58.127473 11.856223 58.190110 11.980583 58.252747 12.105031 58.315385 12.229555 58.378022 12.354145 58.440659 12.478789 58.503297 12.603476 58.565934 12.728194 58.628571 12.852933 58.691209 12.977681 58.753846 13.102426 58.816484 13.227158 58.879121 13.351865 58.941758 13.476537 59.004396 13.601161 59.067033 13.725726 59.129670 13.850221 59.192308 13.974636 59.254945 14.098958 59.317582 14.223176 59.380220 14.347280 59.442857 14.471257 59.505495 14.595097 59.568132 14.718788 59.630769 14.842320 59.693407 14.965680 59.756044 15.088857 59.818681 15.211841 59.881319 15.334620 59.943956 15.457183 60.006593 15.579517 60.069231 15.701614 60.131868 15.823460 60.194505 15.945044 60.257143 16.066356 60.319780 16.187384 60.382418 16.308117 60.445055 16.428544 60.507692 16.548653 60.570330 16.668433 60.632967 16.787872 60.695604 16.906961 60.758242 17.025686 60.820879 17.144038 60.883516 17.262004 60.946154 17.379573 61.008791 17.496735 61.071429 17.613478 61.134066 17.729790 61.196703 17.845661 61.259341 17.961078 61.321978 18.076032 61.384615 18.190510 61.447253 18.304502 61.509890 18.417995 61.572527 18.530980 61.635165 18.643444 61.697802 18.755376 61.760440 18.866765 61.823077 18.977600 61.885714 19.087869 61.948352 19.197561 62.010989 19.306665 62.073626 19.415170 62.136264 19.523065 62.198901 19.630337 62.261538 19.736977 62.324176 19.842971 62.386813 19.948311 62.449451 20.052983 62.512088 20.156977 62.574725 20.260282 62.637363 20.362885 62.700000 20.464777 62.762637 20.565946 62.825275 20.666380 62.887912 20.766068 62.950549 20.864999 63.013187 20.963161 63.075824 21.060544 63.138462 21.157137 63.201099 21.252927 63.263736 21.347903 63.326374 21.442055 63.389011 21.535371 63.451648 21.627840 63.514286 21.719450 63.576923 21.810191 63.639560 21.900050 63.702198 21.989017 63.764835 22.077081 63.827473 22.164230 63.890110 22.250453 63.952747 22.335738 64.015385 22.420075 64.078022 22.503452 64.140659 22.585858 64.203297 22.667281 64.265934 22.747711 64.328571 22.827135 64.391209 22.905544 64.453846 22.982925 64.516484 23.059267 64.579121 23.134560 64.641758 23.208791 64.704396 23.281949 64.767033 23.354024 64.829670 23.425003 64.892308 23.494879 64.954945 23.563656 65.017582 23.631339 65.080220 23.697935 65.142857 23.763451 65.205495 23.827893 65.268132 23.891268 65.330769 23.953582 65.393407 24.014842 65.456044 24.075054 65.518681 24.134225 65.581319 24.192362 65.643956 24.249470 65.706593 24.305556 65.769231 24.360628 65.831868 24.414690 65.894505 24.467751 65.957143 24.519816 66.019780 24.570892 66.082418 24.620986 66.145055 24.670103 66.207692 24.718251 66.270330 24.765436 66.332967 24.811664 66.395604 24.856942 66.458242 24.901277 66.520879 24.944675 66.583516 24.987143 66.646154 25.028686 66.708791 25.069312 66.771429 25.109028 66.834066 25.147838 66.896703 25.185751 66.959341 25.222773 67.021978 25.258910 67.084615 25.294168 67.147253 25.328555 67.209890 25.362077 67.272527 25.394739 67.335165 25.426550 67.397802 25.457514 67.460440 25.487640 67.523077 25.516932 67.585714 25.545399 67.648352 25.573045 67.710989 25.599879 67.773626 25.625906 67.836264 25.651133 67.898901 25.675566 67.961538 25.699212 68.024176 25.722078 68.086813 25.744169 68.149451 25.765493 68.212088 25.786056 68.274725 25.805864 68.337363 25.824924 68.400000 25.843243 68.462637 25.860827 68.525275 25.877682 68.587912 25.893815 68.650549 25.909233 68.713187 25.923942 68.775824 25.937949 68.838462 25.951260 68.901099 25.963881 68.963736 25.975819 69.026374 25.987081 69.089011 25.997673 69.151648 26.007602 69.214286 26.016874 69.276923 26.025496 69.339560 26.033474 69.402198 26.040815 69.464835 26.047525 69.527473 26.053611 69.590110 26.059079 69.652747 26.063935 69.715385 26.068188 69.778022 26.071842 69.840659 26.074904 69.903297 26.077381 69.965934 26.079280 70.028571 26.080606 70.091209 26.081367 70.153846 26.081569 70.216484 26.081218 70.279121 26.080321 70.341758 26.078884 70.404396 26.076915 70.467033 26.074419 70.529670 26.071403 70.592308 26.067874 70.654945 26.063837 70.717582 26.059301 70.780220 26.054270 70.842857 26.048752 70.905495 26.042753 70.968132 26.036279 71.030769 26.029338 71.093407 26.021935 71.156044 26.014078 71.218681 26.005772 71.281319 25.997024 71.343956 25.987841 71.406593 25.978229 71.469231 25.968195 71.531868 25.957746 71.594505 25.946887 71.657143 25.935625 71.719780 25.923967 71.782418 25.911919 71.845055 25.899489 71.907692 25.886681 71.970330 25.873504 72.032967 25.859962 72.095604 25.846064 72.158242 25.831815 72.220879 25.817222 72.283516 25.802291 72.346154 25.787030 72.408791 25.771443 72.471429 25.755539 72.534066 25.739324 72.596703 25.722803 72.659341 25.705984 72.721978 25.688872 72.784615 25.671476 72.847253 25.653800 72.909890 25.635852 72.972527 25.617638 73.035165 25.599165 73.097802 25.580439 73.160440 25.561466 73.223077 25.542254 73.285714 25.522808 73.348352 25.503136 73.410989 25.483243 73.473626 25.463136 73.536264 25.442823 73.598901 25.422308 73.661538 25.401599 73.724176 25.380702 73.786813 25.359625 73.849451 25.338372 73.912088 25.316952 73.974725 25.295369 74.037363 25.273632 74.100000 25.251746 74.162637 25.229717 74.225275 25.207554 74.287912 25.185261 74.350549 25.162845 74.413187 25.140314 74.475824 25.117672 74.538462 25.094928 74.601099 25.072088 74.663736 25.049157 74.726374 25.026143 74.789011 25.003052 74.851648 24.979890 74.914286 24.956665 74.976923 24.933382 75.039560 24.910048 75.102198 24.886670 75.164835 24.863254 75.227473 24.839806 75.290110 24.816334 75.352747 24.792843 75.415385 24.769341 75.478022 24.745833 75.540659 24.722327 75.603297 24.698828 75.665934 24.675343 75.728571 24.651879 75.791209 24.628443 75.853846 24.605040 75.916484 24.581678 75.979121 24.558362 76.041758 24.535100 76.104396 24.511897 76.167033 24.488761 76.229670 24.465698 76.292308 24.442714 76.354945 24.419816 76.417582 24.397011 76.480220 24.374304 76.542857 24.351703 76.605495 24.329214 76.668132 24.306843 76.730769 24.284597 76.793407 24.262483 76.856044 24.240507 76.918681 24.218676 76.981319 24.196995 77.043956 24.175472 77.106593 24.154113 77.169231 24.132925 77.231868 24.111914 77.294505 24.091086 77.357143 24.070449 77.419780 24.050008 77.482418 24.029771 77.545055 24.009743 77.607692 23.989931 77.670330 23.970342 77.732967 23.950983 77.795604 23.931859 77.858242 23.912977 77.920879 23.894344 77.983516 23.875967 78.046154 23.857851 78.108791 23.840004 78.171429 23.822431 78.234066 23.805140 78.296703 23.788137 78.359341 23.771428 78.421978 23.755020 78.484615 23.738919 78.547253 23.723132 78.609890 23.707666 78.672527 23.692527 78.735165 23.677721 78.797802 23.663255 78.860440 23.649136 78.923077 23.635370 78.985714 23.621963 79.048352 23.608923 79.110989 23.596254 79.173626 23.583965 79.236264 23.572062 79.298901 23.560551 79.361538 23.549438 79.424176 23.538731 79.486813 23.528435 79.549451 23.518557 79.612088 23.509104 79.674725 23.500082 79.737363 23.491498 79.800000 23.483358 79.862637 23.475669 79.925275 23.468438 79.987912 23.461669 80.050549 23.455372 80.113187 23.449551 80.175824 23.444213 80.238462 23.439365 80.301099 23.435014 80.363736 23.431166 80.426374 23.427826 80.489011 23.425003 80.551648 23.422701 80.614286 23.420916 80.676923 23.419646 80.739560 23.418887 80.802198 23.418633 80.864835 23.418881 80.927473 23.419628 80.990110 23.420868 81.052747 23.422598 81.115385 23.424814 81.178022 23.427511 81.240659 23.430686 81.303297 23.434335 81.365934 23.438453 81.428571 23.443037 81.491209 23.448081 81.553846 23.453583 81.616484 23.459539 81.679121 23.465943 81.741758 23.472792 81.804396 23.480082 81.867033 23.487809 81.929670 23.495969 81.992308 23.504558 82.054945 23.513571 82.117582 23.523005 82.180220 23.532855 82.242857 23.543118 82.305495 23.553789 82.368132 23.564864 82.430769 23.576340 82.493407 23.588212 82.556044 23.600475 82.618681 23.613127 82.681319 23.626163 82.743956 23.639578 82.806593 23.653369 82.869231 23.667532 82.931868 23.682063 82.994505 23.696957 83.057143 23.712210 83.119780 23.727819 83.182418 23.743779 83.245055 23.760087 83.307692 23.776737 83.370330 23.793727 83.432967 23.811051 83.495604 23.828707 83.558242 23.846690 83.620879 23.864995 83.683516 23.883619 83.746154 23.902558 83.808791 23.921807 83.871429 23.941363 83.934066 23.961221 83.996703 23.981377 84.059341 24.001828 84.121978 24.022569 84.184615 24.043596 84.247253 24.064905 84.309890 24.086493 84.372527 24.108354 84.435165 24.130485 84.497802 24.152881 84.560440 24.175540 84.623077 24.198456 84.685714 24.221625 84.748352 24.245044 84.810989 24.268709 84.873626 24.292614 84.936264 24.316757 84.998901 24.341133 85.061538 24.365739 85.124176 24.390569 85.186813 24.415620 85.249451 24.440888 85.312088 24.466369 85.374725 24.492059 85.437363 24.517953 85.500000 24.544048 85.562637 24.570339 85.625275 24.596823 85.687912 24.623495 85.750549 24.650351 85.813187 24.677388 85.875824 24.704601 85.938462 24.731986 86.001099 24.759539 86.063736 24.787255 86.126374 24.815132 86.189011 24.843164 86.251648 24.871348 86.314286 24.899680 86.376923 24.928155 86.439560 24.956770 86.502198 24.985520 86.564835 25.014401 86.627473 25.043410 86.690110 25.072542 86.752747 25.101793 86.815385 25.131159 86.878022 25.160635 86.940659 25.190219 87.003297 25.219906 87.065934 25.249691 87.128571 25.279571 87.191209 25.309542 87.253846 25.339599 87.316484 25.369738 87.379121 25.399956 87.441758 25.430248 87.504396 25.460611 87.567033 25.491039 87.629670 25.521530 87.692308 25.552079 87.754945 25.582681 87.817582 25.613333 87.880220 25.644032 87.942857 25.674771 88.005495 25.705549 88.068132 25.736360 88.130769 25.767200 88.193407 25.798066 88.256044 25.828953 88.318681 25.859858 88.381319 25.890776 88.443956 25.921702 88.506593 25.952634 88.569231 25.983567 88.631868 26.014497 88.694505 26.045419 88.757143 26.076330 88.819780 26.107226 88.882418 26.138103 88.945055 26.168955 89.007692 26.199781 89.070330 26.230575 89.132967 26.261333 89.195604 26.292051 89.258242 26.322726 89.320879 26.353352 89.383516 26.383927 89.446154 26.414445 89.508791 26.444903 89.571429 26.475297 89.634066 26.505623 89.696703 26.535877 89.759341 26.566054 89.821978 26.596150 89.884615 26.626162 89.947253 26.656085 90.009890 26.685915 90.072527 26.715649 90.135165 26.745282 90.197802 26.774810 90.260440 26.804228 90.323077 26.833534 90.385714 26.862723 90.448352 26.891790 90.510989 26.920732 90.573626 26.949544 90.636264 26.978223 90.698901 27.006765 90.761538 27.035164 90.824176 27.063419 90.886813 27.091523 90.949451 27.119473 91.012088 27.147266 91.074725 27.174897 91.137363 27.202361 91.200000 27.229655 91.262637 27.256776 91.325275 27.283718 91.387912 27.310477 91.450549 27.337050 91.513187 27.363433 91.575824 27.389621 91.638462 27.415610 91.701099 27.441396 91.763736 27.466976 91.826374 27.492345 91.889011 27.517499 91.951648 27.542434 92.014286 27.567146 92.076923 27.591630 92.139560 27.615884 92.202198 27.639902 92.264835 27.663680 92.327473 27.687216 92.390110 27.710503 92.452747 27.733539 92.515385 27.756320 92.578022 27.778840 92.640659 27.801097 92.703297 27.823086 92.765934 27.844802 92.828571 27.866243 92.891209 27.887404 92.953846 27.908280 93.016484 27.928868 93.079121 27.949164 93.141758 27.969163 93.204396 27.988862 93.267033 28.008256 93.329670 28.027342 93.392308 28.046115 93.454945 28.064571 93.517582 28.082706 93.580220 28.100516 93.642857 28.117997 93.705495 28.135146 93.768132 28.151956 93.830769 28.168426 93.893407 28.184551 93.956044 28.200325 94.018681 28.215747 94.081319 28.230811 94.143956 28.245513 94.206593 28.259850 94.269231 28.273817 94.331868 28.287410 94.394505 28.300625 94.457143 28.313458 94.519780 28.325905 94.582418 28.337962 94.645055 28.349625 94.707692 28.360890 94.770330 28.371752 94.832967 28.382207 94.895604 28.392253 94.958242 28.401883 95.020879 28.411095 95.083516 28.419884 95.146154 28.428247 95.208791 28.436178 95.271429 28.443675 95.334066 28.450733 95.396703 28.457347 95.459341 28.463515 95.521978 28.469231 95.584615 28.474492 95.647253 28.479293 95.709890 28.483631 95.772527 28.487501 95.835165 28.490900 95.897802 28.493823 95.960440 28.496267 96.023077 28.498226 96.085714 28.499698 96.148352 28.500678 96.210989 28.501162 96.273626 28.501153 96.336264 28.500651 96.398901 28.499660 96.461538 28.498180 96.524176 28.496214 96.586813 28.493764 96.649451 28.490832 96.712088 28.487419 96.774725 28.483529 96.837363 28.479162 96.900000 28.474321 96.962637 28.469008 97.025275 28.463224 97.087912 28.456973 97.150549 28.450255 97.213187 28.443072 97.275824 28.435428 97.338462 28.427323 97.401099 28.418759 97.463736 28.409739 97.526374 28.400265 97.589011 28.390339 97.651648 28.379962 97.714286 28.369136 97.776923 28.357865 97.839560 28.346148 97.902198 28.333990 97.964835 28.321390 98.027473 28.308353 98.090110 28.294878 98.152747 28.280969 98.215385 28.266628 98.278022 28.251856 98.340659 28.236655 98.403297 28.221028 98.465934 28.204977 98.528571 28.188502 98.591209 28.171607 98.653846 28.154293 98.716484 28.136563 98.779121 28.118418 98.841758 28.099860 98.904396 28.080891 98.967033 28.061514 99.029670 28.041730 99.092308 28.021541 99.154945 28.000949 99.217582 27.979957 99.280220 27.958566 99.342857 27.936777 99.405495 27.914595 99.468132 27.892019 99.530769 27.869052 99.593407 27.845696 99.656044 27.821954 99.718681 27.797826 99.781319 27.773316 99.843956 27.748424 99.906593 27.723154 99.969231 27.697506 100.031868 27.671484 100.094505 27.645088 100.157143 27.618322 100.219780 27.591186 100.282418 27.563684 100.345055 27.535816 100.407692 27.507585 100.470330 27.478993 100.532967 27.450042 100.595604 27.420734 100.658242 27.391070 100.720879 27.361053 100.783516 27.330686 100.846154 27.299969 100.908791 27.268904 100.971429 27.237495 101.034066 27.205742 101.096703 27.173648 101.159341 27.141214 101.221978 27.108444 101.284615 27.075337 101.347253 27.041898 101.409890 27.008127 101.472527 26.974027 101.535165 26.939600 101.597802 26.904847 101.660440 26.869770 101.723077 26.834372 101.785714 26.798655 101.848352 26.762620 101.910989 26.726270 101.973626 26.689606 102.036264 26.652631 102.098901 26.615346 102.161538 26.577754 102.224176 26.539856 102.286813 26.501654 102.349451 26.463151 102.412088 26.424348 102.474725 26.385248 102.537363 26.345852 102.600000 26.306162 102.662637 26.266181 102.725275 26.225910 102.787912 26.185351 102.850549 26.144507 102.913187 26.103378 102.975824 26.061968 103.038462 26.020279 103.101099 25.978311 103.163736 25.936068 103.226374 25.893551 103.289011 25.850762 103.351648 25.807703 103.414286 25.764376 103.476923 25.720783 103.539560 25.676927 103.602198 25.632808 103.664835 25.588430 103.727473 25.543794 103.790110 25.498901 103.852747 25.453755 103.915385 25.408357 103.978022 25.362709 104.040659 25.316812 104.103297 25.270670 104.165934 25.224284 104.228571 25.177655 104.291209 25.130787 104.353846 25.083680 104.416484 25.036337 104.479121 24.988760 104.541758 24.940951 104.604396 24.892912 104.667033 24.844644 104.729670 24.796151 104.792308 24.747433 104.854945 24.698493 104.917582 24.649333 104.980220 24.599954 105.042857 24.550359 105.105495 24.500550 105.168132 24.450529 105.230769 24.400297 105.293407 24.349857 105.356044 24.299210 105.418681 24.248359 105.481319 24.197306 105.543956 24.146052 105.606593 24.094600 105.669231 24.042952 105.731868 23.991109 105.794505 23.939073 105.857143 23.886847 105.919780 23.834433 105.982418 23.781832 106.045055 23.729047 106.107692 23.676079 106.170330 23.622930 106.232967 23.569603 106.295604 23.516099 106.358242 23.462421 106.420879 23.408570 106.483516 23.354548 106.546154 23.300358 106.608791 23.246001 106.671429 23.191479 106.734066 23.136795 106.796703 23.081950 106.859341 23.026946 106.921978 22.971785 106.984615 22.916470 107.047253 22.861002 107.109890 22.805383 107.172527 22.749615 107.235165 22.693701 107.297802 22.637641 107.360440 22.581439 107.423077 22.525096 107.485714 22.468614 107.548352 22.411995 107.610989 22.355241 107.673626 22.298354 107.736264 22.241336 107.798901 22.184189 107.861538 22.126916 107.924176 22.069517 107.986813 22.011995 108.049451 21.954352 108.112088 21.896590 108.174725 21.838712 108.237363 21.780717 108.300000 21.722610 108.362637 21.664392 108.425275 21.606065 108.487912 21.547630 108.550549 21.489091 108.613187 21.430448 108.675824 21.371704 108.738462 21.312860 108.801099 21.253920 108.863736 21.194884 108.926374 21.135755 108.989011 21.076535 109.051648 21.017225 109.114286 20.957828 109.176923 20.898346 109.239560 20.838781 109.302198 20.779134 109.364835 20.719408 109.427473 20.659604 109.490110 20.599725 109.552747 20.539773 109.615385 20.479749 109.678022 20.419655 109.740659 20.359495 109.803297 20.299268 109.865934 20.238979 109.928571 20.178627 109.991209 20.118217 110.053846 20.057748 110.116484 19.997224 110.179121 19.936647 110.241758 19.876018 110.304396 19.815339 110.367033 19.754613 110.429670 19.693841 110.492308 19.633025 110.554945 19.572168 110.617582 19.511271 110.680220 19.450337 110.742857 19.389366 110.805495 19.328362 110.868132 19.267326 110.930769 19.206261 110.993407 19.145167 111.056044 19.084048 111.118681 19.022905 111.181319 18.961741 111.243956 18.900556 111.306593 18.839353 111.369231 18.778135 111.431868 18.716903 111.494505 18.655659 111.557143 18.594405 111.619780 18.533142 111.682418 18.471875 111.745055 18.410603 111.807692 18.349329" class="line reactive nofill" /></g></g><g class="titles" /><g transform="translate(76, 10)" class="plot overlay"><g class="series serie-0 color-0" /></g><g transform="translate(76, 10)" class="plot text-overlay"><g class="series serie-0 color-0" /></g><g transform="translate(76, 10)" class="plot tooltip-overlay"><g transform="translate(0 0)" style="opacity: 0" class="tooltip"><rect rx="0" ry="0" width="0" height="0" class="tooltip-box" /><g class="text" /></g></g></g></svg>