<?xml version='1.0' encoding='utf-8'?>
<svg xmlns="http://www.w3.org/2000/svg" id="chart-6b7f306b-979f-47db-8373-ff36a87ea998" class="pygal-chart pygal-sparkline" viewBox="0 0 200 50" width="200" height="50"><!--Generated with pygal 3.0.4 (etree) ©Kozea 2012-2016 on 2024-06-16--><!--http://pygal.org--><!--http://github.com/Kozea/pygal--><defs><style type="text/css">#chart-6b7f306b-979f-47db-8373-ff36a87ea998{-webkit-user-select:none;-webkit-font-smoothing:antialiased;font-family:Consolas,"Liberation Mono",Menlo,Courier,monospace}#chart-6b7f306b-979f-47db-8373-ff36a87ea998 .title{font-family:Consolas,"Liberation Mono",Menlo,Courier,monospace;font-size:16px}#chart-6b7f306b-979f-47db-8373-ff36a87ea998 .legends .legend text{font-family:Consolas,"Liberation Mono",Menlo,Courier,monospace;font-size:14px}#chart-6b7f306b-979f-47db-8373-ff36a87ea998 .axis text{font-family:Consolas,"Liberation Mono",Menlo,Courier,monospace;font-size:10px}#chart-6b7f306b-979f-47db-8373-ff36a87ea998 .axis text.major{font-family:Consolas,"Liberation Mono",Menlo,Courier,monospace;font-size:10px}#chart-6b7f306b-979f-47db-8373-ff36a87ea998 .text-overlay text.value{font-family:Consolas,"Liberation Mono",Menlo,Courier,monospace;font-size:16px}#chart-6b7f306b-979f-47db-8373-ff36a87ea998 .text-overlay text.label{font-family:Consolas,"Liberation Mono",Menlo,Courier,monospace;font-size:10px}#chart-6b7f306b-979f-47db-8373-ff36a87ea998 .tooltip{font-family:Consolas,"Liberation Mono",Menlo,Courier,monospace;font-size:14px}#chart-6b7f306b-979f-47db-8373-ff36a87ea998 text.no_data{font-family:Consolas,"Liberation Mono",Menlo,Courier,monospace;font-size:64px}
#chart-6b7f306b-979f-47db-8373-ff36a87ea998{background-color:rgba(249,249,249,1)}#chart-6b7f306b-979f-47db-8373-ff36a87ea998 path,#chart-6b7f306b-979f-47db-8373-ff36a87ea998 line,#chart-6b7f306b-979f-47db-8373-ff36a87ea998 rect,#chart-6b7f306b-979f-47db-8373-ff36a87ea998 circle{-webkit-transition:150ms;-moz-transition:150ms;transition:150ms}#chart-6b7f306b-979f-47db-8373-ff36a87ea998 .graph &gt; .background{fill:rgba(249,249,249,1)}#chart-6b7f306b-979f-47db-8373-ff36a87ea998 .plot &gt; .background{fill:rgba(255,255,255,1)}#chart-6b7f306b-979f-47db-8373-ff36a87ea998 .graph{fill:rgba(0,0,0,.87)}#chart-6b7f306b-979f-47db-8373-ff36a87ea998 text.no_data{fill:rgba(0,0,0,1)}#chart-6b7f306b-979f-47db-8373-ff36a87ea998 .title{fill:rgba(0,0,0,1)}#chart-6b7f306b-979f-47db-8373-ff36a87ea998 .legends .legend text{fill:rgba(0,0,0,.87)}#chart-6b7f306b-979f-47db-8373-ff36a87ea998 .legends .legend:hover text{fill:rgba(0,0,0,1)}#chart-6b7f306b-979f-47db-8373-ff36a87ea998 .axis .line{stroke:rgba(0,0,0,1)}#chart-6b7f306b-979f-47db-8373-ff36a87ea998 .axis .guide.line{stroke:rgba(0,0,0,.54)}#chart-6b7f306b-979f-47db-8373-ff36a87ea998 .axis .major.line{stroke:rgba(0,0,0,.87)}#chart-6b7f306b-979f-47db-8373-ff36a87ea998 .axis text.major{fill:rgba(0,0,0,1)}#chart-6b7f306b-979f-47db-8373-ff36a87ea998 .axis.y .guides:hover .guide.line,#chart-6b7f306b-979f-47db-8373-ff36a87ea998 .line-graph .axis.x .guides:hover .guide.line,#chart-6b7f306b-979f-47db-8373-ff36a87ea998 .stackedline-graph .axis.x .guides:hover .guide.line,#chart-6b7f306b-979f-47db-8373-ff36a87ea998 .xy-graph .axis.x .guides:hover .guide.line{stroke:rgba(0,0,0,1)}#chart-6b7f306b-979f-47db-8373-ff36a87ea998 .axis .guides:hover text{fill:rgba(0,0,0,1)}#chart-6b7f306b-979f-47db-8373-ff36a87ea998 .reactive{fill-opacity:.7;stroke-opacity:.8;stroke-width:1}#chart-6b7f306b-979f-47db-8373-ff36a87ea998 .ci{stroke:rgba(0,0,0,.87)}#chart-6b7f306b-979f-47db-8373-ff36a87ea998 .reactive.active,#chart-6b7f306b-979f-47db-8373-ff36a87ea998 .active .reactive{fill-opacity:.8;stroke-opacity:.9;stroke-width:4}#chart-6b7f306b-979f-47db-8373-ff36a87ea998 .ci .reactive.active{stroke-width:1.5}#chart-6b7f306b-979f-47db-8373-ff36a87ea998 .series text{fill:rgba(0,0,0,1)}#chart-6b7f306b-979f-47db-8373-ff36a87ea998 .tooltip rect{fill:rgba(255,255,255,1);stroke:rgba(0,0,0,1);-webkit-transition:opacity 150ms;-moz-transition:opacity 150ms;transition:opacity 150ms}#chart-6b7f306b-979f-47db-8373-ff36a87ea998 .tooltip .label{fill:rgba(0,0,0,.87)}#chart-6b7f306b-979f-47db-8373-ff36a87ea998 .tooltip .label{fill:rgba(0,0,0,.87)}#chart-6b7f306b-979f-47db-8373-ff36a87ea998 .tooltip .legend{font-size:.8em;fill:rgba(0,0,0,.54)}#chart-6b7f306b-979f-47db-8373-ff36a87ea998 .tooltip .x_label{font-size:.6em;fill:rgba(0,0,0,1)}#chart-6b7f306b-979f-47db-8373-ff36a87ea998 .tooltip .xlink{font-size:.5em;text-decoration:underline}#chart-6b7f306b-979f-47db-8373-ff36a87ea998 .tooltip .value{font-size:1.5em}#chart-6b7f306b-979f-47db-8373-ff36a87ea998 .bound{font-size:.5em}#chart-6b7f306b-979f-47db-8373-ff36a87ea998 .max-value{font-size:.75em;fill:rgba(0,0,0,.54)}#chart-6b7f306b-979f-47db-8373-ff36a87ea998 .map-element{fill:rgba(255,255,255,1);stroke:rgba(0,0,0,.54) !important}#chart-6b7f306b-979f-47db-8373-ff36a87ea998 .map-element .reactive{fill-opacity:inherit;stroke-opacity:inherit}#chart-6b7f306b-979f-47db-8373-ff36a87ea998 .color-0,#chart-6b7f306b-979f-47db-8373-ff36a87ea998 .color-0 a:visited{stroke:#F44336;fill:#F44336}#chart-6b7f306b-979f-47db-8373-ff36a87ea998 .text-overlay .color-0 text{fill:black}
#chart-6b7f306b-979f-47db-8373-ff36a87ea998 text.no_data{text-anchor:middle}#chart-6b7f306b-979f-47db-8373-ff36a87ea998 .guide.line{fill:none}#chart-6b7f306b-979f-47db-8373-ff36a87ea998 .centered{text-anchor:middle}#chart-6b7f306b-979f-47db-8373-ff36a87ea998 .title{text-anchor:middle}#chart-6b7f306b-979f-47db-8373-ff36a87ea998 .legends .legend text{fill-opacity:1}#chart-6b7f306b-979f-47db-8373-ff36a87ea998 .axis.x text{text-anchor:middle}#chart-6b7f306b-979f-47db-8373-ff36a87ea998 .axis.x:not(.web) text[transform]{text-anchor:start}#chart-6b7f306b-979f-47db-8373-ff36a87ea998 .axis.x:not(.web) text[transform].backwards{text-anchor:end}#chart-6b7f306b-979f-47db-8373-ff36a87ea998 .axis.y text{text-anchor:end}#chart-6b7f306b-979f-47db-8373-ff36a87ea998 .axis.y text[transform].backwards{text-anchor:start}#chart-6b7f306b-979f-47db-8373-ff36a87ea998 .axis.y2 text{text-anchor:start}#chart-6b7f306b-979f-47db-8373-ff36a87ea998 .axis.y2 text[transform].backwards{text-anchor:end}#chart-6b7f306b-979f-47db-8373-ff36a87ea998 .axis .guide.line{stroke-dasharray:4,4;stroke:black}#chart-6b7f306b-979f-47db-8373-ff36a87ea998 .axis .major.guide.line{stroke-dasharray:6,6;stroke:black}#chart-6b7f306b-979f-47db-8373-ff36a87ea998 .horizontal .axis.y .guide.line,#chart-6b7f306b-979f-47db-8373-ff36a87ea998 .horizontal .axis.y2 .guide.line,#chart-6b7f306b-979f-47db-8373-ff36a87ea998 .vertical .axis.x .guide.line{opacity:0}#chart-6b7f306b-979f-47db-8373-ff36a87ea998 .horizontal .axis.always_show .guide.line,#chart-6b7f306b-979f-47db-8373-ff36a87ea998 .vertical .axis.always_show .guide.line{opacity:1 !important}#chart-6b7f306b-979f-47db-8373-ff36a87ea998 .axis.y .guides:hover .guide.line,#chart-6b7f306b-979f-47db-8373-ff36a87ea998 .axis.y2 .guides:hover .guide.line,#chart-6b7f306b-979f-47db-8373-ff36a87ea998 .axis.x .guides:hover .guide.line{opacity:1}#chart-6b7f306b-979f-47db-8373-ff36a87ea998 .axis .guides:hover text{opacity:1}#chart-6b7f306b-979f-47db-8373-ff36a87ea998 .nofill{fill:none}#chart-6b7f306b-979f-47db-8373-ff36a87ea998 .subtle-fill{fill-opacity:.2}#chart-6b7f306b-979f-47db-8373-ff36a87ea998 .dot{stroke-width:1px;fill-opacity:1;stroke-opacity:1}#chart-6b7f306b-979f-47db-8373-ff36a87ea998 .dot.active{stroke-width:5px}#chart-6b7f306b-979f-47db-8373-ff36a87ea998 .dot.negative{fill:transparent}#chart-6b7f306b-979f-47db-8373-ff36a87ea998 text,#chart-6b7f306b-979f-47db-8373-ff36a87ea998 tspan{stroke:none !important}#chart-6b7f306b-979f-47db-8373-ff36a87ea998 .series text.active{opacity:1}#chart-6b7f306b-979f-47db-8373-ff36a87ea998 .tooltip rect{fill-opacity:.95;stroke-width:.5}#chart-6b7f306b-979f-47db-8373-ff36a87ea998 .tooltip text{fill-opacity:1}#chart-6b7f306b-979f-47db-8373-ff36a87ea998 .showable{visibility:hidden}#chart-6b7f306b-979f-47db-8373-ff36a87ea998 .showable.shown{visibility:visible}#chart-6b7f306b-979f-47db-8373-ff36a87ea998 .gauge-background{fill:rgba(229,229,229,1);stroke:none}#chart-6b7f306b-979f-47db-8373-ff36a87ea998 .bg-lines{stroke:rgba(249,249,249,1);stroke-width:2px}</style><script type="text/javascript">window.pygal = window.pygal || {};window.pygal.config = window.pygal.config || {};window.pygal.config['6b7f306b-979f-47db-8373-ff36a87ea998'] = {"allow_interruptions": false, "box_mode": "extremes", "classes": ["pygal-chart", "pygal-sparkline"], "css": ["file://style.css", "file://graph.css"], "defs": [], "disable_xml_declaration": false, "dots_size": 2.5, "dynamic_print_values": false, "explicit_size": true, "fill": false, "force_uri_protocol": "https", "formatter": null, "half_pie": false, "height": 50, "include_x_axis": false, "inner_radius": 0, "interpolate": "cubic", "interpolation_parameters": {}, "interpolation_precision": 250, "inverse_y_axis": false, "js": [], "legend_at_bottom": false, "legend_at_bottom_columns": null, "legend_box_size": 12, "logarithmic": false, "margin": 10, "margin_bottom": null, "margin_left": null, "margin_right": null, "margin_top": null, "max_scale": 2, "min_scale": 1, "missing_value_fill_truncation": "x", "no_data_text": "", "no_prefix": false, "order_min": null, "pretty_print": false, "print_labels": false, "print_values": false, "print_values_position": "center", "print_zeroes": true, "range": null, "rounded_bars": null, "secondary_range": null, "show_dots": false, "show_legend": false, "show_minor_x_labels": true, "show_minor_y_labels": true, "show_only_major_dots": false, "show_x_guides": false, "show_x_labels": false, "show_y_guides": true, "show_y_labels": true, "spacing": 0, "stack_from_top": false, "strict": false, "stroke": true, "stroke_style": null, "style": {"background": "rgba(249, 249, 249, 1)", "ci_colors": [], "colors": ["#F44336", "#3F51B5", "#009688", "#FFC107", "#FF5722", "#9C27B0", "#03A9F4", "#8BC34A", "#FF9800", "#E91E63", "#2196F3", "#4CAF50", "#FFEB3B", "#673AB7", "#00BCD4", "#CDDC39", "#9E9E9E", "#607D8B"], "dot_opacity": "1", "font_family": "Consolas, \"Liberation Mono\", Menlo, Courier, monospace", "foreground": "rgba(0, 0, 0, .87)", "foreground_strong": "rgba(0, 0, 0, 1)", "foreground_subtle": "rgba(0, 0, 0, .54)", "guide_stroke_color": "black", "guide_stroke_dasharray": "4,4", "label_font_family": "Consolas, \"Liberation Mono\", Menlo, Courier, monospace", "label_font_size": 10, "legend_font_family": "Consolas, \"Liberation Mono\", Menlo, Courier, monospace", "legend_font_size": 14, "major_guide_stroke_color": "black", "major_guide_stroke_dasharray": "6,6", "major_label_font_family": "Consolas, \"Liberation Mono\", Menlo, Courier, monospace", "major_label_font_size": 10, "no_data_font_family": "Consolas, \"Liberation Mono\", Menlo, Courier, monospace", "no_data_font_size": 64, "opacity": ".7", "opacity_hover": ".8", "plot_background": "rgba(255, 255, 255, 1)", "stroke_opacity": ".8", "stroke_opacity_hover": ".9", "stroke_width": "1", "stroke_width_hover": "4", "title_font_family": "Consolas, \"Liberation Mono\", Menlo, Courier, monospace", "title_font_size": 16, "tooltip_font_family": "Consolas, \"Liberation Mono\", Menlo, Courier, monospace", "tooltip_font_size": 14, "transition": "150ms", "value_background": "rgba(229, 229, 229, 1)", "value_colors": [], "value_font_family": "Consolas, \"Liberation Mono\", Menlo, Courier, monospace", "value_font_size": 16, "value_label_font_family": "Consolas, \"Liberation Mono\", Menlo, Courier, monospace", "value_label_font_size": 10}, "title": null, "tooltip_border_radius": 0, "tooltip_fancy_mode": true, "truncate_label": null, "truncate_legend": null, "width": 200, "x_label_rotation": 0, "x_labels": ["2024/6", "2024/5", "2024/4", "2024/3"], "x_labels_major": null, "x_labels_major_count": null, "x_labels_major_every": null, "x_title": null, "xrange": null, "y_label_rotation": 0, "y_labels": null, "y_labels_major": null, "y_labels_major_count": null, "y_labels_major_every": null, "y_title": null, "zero": 0, "legends": [""]}</script></defs><title>Pygal</title><g class="graph line-graph vertical"><rect x="0" y="0" width="200" height="50" class="background" /><g transform="translate(76, 10)" class="plot"><rect x="0" y="0" width="114.0" height="30" class="background" /><g class="axis y always_show"><path d="M0.000000 30.000000 h114.000000" class="line" /><g class="guides"><path d="M0.000000 29.423077 h114.000000" class="guide line" /><text x="-5" y="32.92307692307692" class="">2.899140096</text><title>2.899140096</title></g><g class="guides"><path d="M0.000000 0.576923 h114.000000" class="guide line" /><text x="-5" y="4.076923076923077" class="">12</text><title>12</title></g></g><g class="series serie-0 color-0"><path d="M2.192308 10.085746 L2.338462 10.189708 2.484615 10.293668 2.630769 10.397623 2.776923 10.501570 2.923077 10.605505 3.069231 10.709428 3.215385 10.813334 3.361538 10.917222 3.507692 11.021088 3.653846 11.124931 3.800000 11.228746 3.946154 11.332532 4.092308 11.436286 4.238462 11.540005 4.384615 11.643686 4.530769 11.747328 4.676923 11.850926 4.823077 11.954479 4.969231 12.057984 5.115385 12.161438 5.261538 12.264838 5.407692 12.368182 5.553846 12.471468 5.700000 12.574691 5.846154 12.677851 5.992308 12.780943 6.138462 12.883966 6.284615 12.986916 6.430769 13.089792 6.576923 13.192590 6.723077 13.295307 6.869231 13.397942 7.015385 13.500491 7.161538 13.602951 7.307692 13.705321 7.453846 13.807596 7.600000 13.909776 7.746154 14.011856 7.892308 14.113835 8.038462 14.215709 8.184615 14.317476 8.330769 14.419133 8.476923 14.520678 8.623077 14.622107 8.769231 14.723419 8.915385 14.824610 9.061538 14.925678 9.207692 15.026621 9.353846 15.127434 9.500000 15.228117 9.646154 15.328665 9.792308 15.429078 9.938462 15.529350 10.084615 15.629481 10.230769 15.729468 10.376923 15.829307 10.523077 15.928996 10.669231 16.028532 10.815385 16.127913 10.961538 16.227137 11.107692 16.326199 11.253846 16.425098 11.400000 16.523831 11.546154 16.622396 11.692308 16.720789 11.838462 16.819008 11.984615 16.917050 12.130769 17.014913 12.276923 17.112594 12.423077 17.210090 12.569231 17.307399 12.715385 17.404517 12.861538 17.501443 13.007692 17.598173 13.153846 17.694705 13.300000 17.791037 13.446154 17.887164 13.592308 17.983086 13.738462 18.078799 13.884615 18.174300 14.030769 18.269587 14.176923 18.364657 14.323077 18.459508 14.469231 18.554136 14.615385 18.648539 14.761538 18.742715 14.907692 18.836660 15.053846 18.930373 15.200000 19.023850 15.346154 19.117088 15.492308 19.210086 15.638462 19.302840 15.784615 19.395347 15.930769 19.487606 16.076923 19.579613 16.223077 19.671365 16.369231 19.762860 16.515385 19.854096 16.661538 19.945069 16.807692 20.035777 16.953846 20.126218 17.100000 20.216388 17.246154 20.306285 17.392308 20.395906 17.538462 20.485248 17.684615 20.574309 17.830769 20.663087 17.976923 20.751578 18.123077 20.839780 18.269231 20.927690 18.415385 21.015305 18.561538 21.102623 18.707692 21.189642 18.853846 21.276357 19.000000 21.362768 19.146154 21.448870 19.292308 21.534662 19.438462 21.620141 19.584615 21.705304 19.730769 21.790148 19.876923 21.874670 20.023077 21.958869 20.169231 22.042741 20.315385 22.126284 20.461538 22.209494 20.607692 22.292370 20.753846 22.374909 20.900000 22.457107 21.046154 22.538963 21.192308 22.620473 21.338462 22.701635 21.484615 22.782447 21.630769 22.862905 21.776923 22.943007 21.923077 23.022750 22.069231 23.102131 22.215385 23.181149 22.361538 23.259799 22.507692 23.338080 22.653846 23.415989 22.800000 23.493523 22.946154 23.570679 23.092308 23.647455 23.238462 23.723849 23.384615 23.799856 23.530769 23.875476 23.676923 23.950704 23.823077 24.025539 23.969231 24.099977 24.115385 24.174017 24.261538 24.247655 24.407692 24.320889 24.553846 24.393715 24.700000 24.466132 24.846154 24.538136 24.992308 24.609726 25.138462 24.680898 25.284615 24.751649 25.430769 24.821977 25.576923 24.891880 25.723077 24.961354 25.869231 25.030397 26.015385 25.099006 26.161538 25.167179 26.307692 25.234913 26.453846 25.302204 26.600000 25.369052 26.746154 25.435452 26.892308 25.501402 27.038462 25.566900 27.184615 25.631942 27.330769 25.696527 27.476923 25.760651 27.623077 25.824312 27.769231 25.887507 27.915385 25.950233 28.061538 26.012488 28.207692 26.074269 28.353846 26.135574 28.500000 26.196399 28.646154 26.256742 28.792308 26.316601 28.938462 26.375972 29.084615 26.434853 29.230769 26.493242 29.376923 26.551135 29.523077 26.608530 29.669231 26.665424 29.815385 26.721815 29.961538 26.777700 30.107692 26.833076 30.253846 26.887941 30.400000 26.942291 30.546154 26.996125 30.692308 27.049439 30.838462 27.102231 30.984615 27.154499 31.130769 27.206239 31.276923 27.257448 31.423077 27.308125 31.569231 27.358266 31.715385 27.407869 31.861538 27.456931 32.007692 27.505450 32.153846 27.553422 32.300000 27.600845 32.446154 27.647717 32.592308 27.694035 32.738462 27.739795 32.884615 27.784996 33.030769 27.829635 33.176923 27.873708 33.323077 27.917214 33.469231 27.960150 33.615385 28.002512 33.761538 28.044299 33.907692 28.085508 34.053846 28.126135 34.200000 28.166179 34.346154 28.205636 34.492308 28.244504 34.638462 28.282781 34.784615 28.320463 34.930769 28.357547 35.076923 28.394032 35.223077 28.429915 35.369231 28.465192 35.515385 28.499862 35.661538 28.533921 35.807692 28.567367 35.953846 28.600197 36.100000 28.632408 36.246154 28.663999 36.392308 28.694965 36.538462 28.725305 36.684615 28.755015 36.830769 28.784094 36.976923 28.812538 37.123077 28.840344 37.269231 28.867511 37.415385 28.894035 37.561538 28.919914 37.707692 28.945144 37.853846 28.969725 38.000000 28.993651 38.146154 29.016922 38.292308 29.039534 38.438462 29.061484 38.584615 29.082771 38.730769 29.103391 38.876923 29.123342 39.023077 29.142626 39.169231 29.161246 39.315385 29.179203 39.461538 29.196501 39.607692 29.213142 39.753846 29.229127 39.900000 29.244461 40.046154 29.259144 40.192308 29.273180 40.338462 29.286571 40.484615 29.299319 40.630769 29.311427 40.776923 29.322897 40.923077 29.333732 41.069231 29.343934 41.215385 29.353506 41.361538 29.362449 41.507692 29.370767 41.653846 29.378462 41.800000 29.385536 41.946154 29.391991 42.092308 29.397831 42.238462 29.403058 42.384615 29.407673 42.530769 29.411680 42.676923 29.415080 42.823077 29.417877 42.969231 29.420073 43.115385 29.421670 43.261538 29.422670 43.407692 29.423077 43.553846 29.422892 43.700000 29.422118 43.846154 29.420757 43.992308 29.418812 44.138462 29.416285 44.284615 29.413179 44.430769 29.409496 44.576923 29.405239 44.723077 29.400409 44.869231 29.395010 45.015385 29.389044 45.161538 29.382512 45.307692 29.375419 45.453846 29.367766 45.600000 29.359555 45.746154 29.350789 45.892308 29.341471 46.038462 29.331602 46.184615 29.321186 46.330769 29.310225 46.476923 29.298720 46.623077 29.286676 46.769231 29.274093 46.915385 29.260975 47.061538 29.247323 47.207692 29.233141 47.353846 29.218431 47.500000 29.203195 47.646154 29.187436 47.792308 29.171156 47.938462 29.154357 48.084615 29.137042 48.230769 29.119213 48.376923 29.100874 48.523077 29.082025 48.669231 29.062670 48.815385 29.042812 48.961538 29.022452 49.107692 29.001592 49.253846 28.980237 49.400000 28.958387 49.546154 28.936045 49.692308 28.913214 49.838462 28.889896 49.984615 28.866094 50.130769 28.841810 50.276923 28.817046 50.423077 28.791806 50.569231 28.766090 50.715385 28.739902 50.861538 28.713245 51.007692 28.686120 51.153846 28.658530 51.300000 28.630477 51.446154 28.601965 51.592308 28.572995 51.738462 28.543570 51.884615 28.513691 52.030769 28.483363 52.176923 28.452587 52.323077 28.421365 52.469231 28.389700 52.615385 28.357595 52.761538 28.325051 52.907692 28.292072 53.053846 28.258659 53.200000 28.224816 53.346154 28.190544 53.492308 28.155846 53.638462 28.120724 53.784615 28.085182 53.930769 28.049220 54.076923 28.012843 54.223077 27.976051 54.369231 27.938849 54.515385 27.901237 54.661538 27.863219 54.807692 27.824796 54.953846 27.785972 55.100000 27.746749 55.246154 27.707129 55.392308 27.667115 55.538462 27.626709 55.684615 27.585913 55.830769 27.544730 55.976923 27.503163 56.123077 27.461213 56.269231 27.418884 56.415385 27.376177 56.561538 27.333096 56.707692 27.289642 56.853846 27.245818 57.000000 27.201626 57.146154 27.157069 57.292308 27.112150 57.438462 27.066870 57.584615 27.021233 57.730769 26.975240 57.876923 26.928894 58.023077 26.882198 58.169231 26.835153 58.315385 26.787763 58.461538 26.740030 58.607692 26.691956 58.753846 26.643543 58.900000 26.594795 59.046154 26.545713 59.192308 26.496300 59.338462 26.446558 59.484615 26.396490 59.630769 26.346099 59.776923 26.295386 59.923077 26.244354 60.069231 26.193006 60.215385 26.141343 60.361538 26.089370 60.507692 26.037087 60.653846 25.984497 60.800000 25.931603 60.946154 25.878407 61.092308 25.824912 61.238462 25.771119 61.384615 25.717033 61.530769 25.662654 61.676923 25.607985 61.823077 25.553029 61.969231 25.497789 62.115385 25.442266 62.261538 25.386463 62.407692 25.330382 62.553846 25.274027 62.700000 25.217399 62.846154 25.160500 62.992308 25.103334 63.138462 25.045903 63.284615 24.988208 63.430769 24.930254 63.576923 24.872041 63.723077 24.813572 63.869231 24.754851 64.015385 24.695878 64.161538 24.636658 64.307692 24.577191 64.453846 24.517481 64.600000 24.457530 64.746154 24.397341 64.892308 24.336915 65.038462 24.276256 65.184615 24.215365 65.330769 24.154246 65.476923 24.092900 65.623077 24.031331 65.769231 23.969539 65.915385 23.907529 66.061538 23.845302 66.207692 23.782861 66.353846 23.720208 66.500000 23.657346 66.646154 23.594276 66.792308 23.531003 66.938462 23.467527 67.084615 23.403852 67.230769 23.339979 67.376923 23.275912 67.523077 23.211652 67.669231 23.147203 67.815385 23.082566 67.961538 23.017744 68.107692 22.952740 68.253846 22.887555 68.400000 22.822193 68.546154 22.756655 68.692308 22.690945 68.838462 22.625064 68.984615 22.559015 69.130769 22.492801 69.276923 22.426424 69.423077 22.359886 69.569231 22.293190 69.715385 22.226338 69.861538 22.159332 70.007692 22.092176 70.153846 22.024871 70.300000 21.957420 70.446154 21.889826 70.592308 21.822090 70.738462 21.754216 70.884615 21.686205 71.030769 21.618060 71.176923 21.549784 71.323077 21.481379 71.469231 21.412847 71.615385 21.344191 71.761538 21.275414 71.907692 21.206517 72.053846 21.137503 72.200000 21.068375 72.346154 20.999135 72.492308 20.929786 72.638462 20.860329 72.784615 20.790768 72.930769 20.721104 73.076923 20.651341 73.223077 20.581480 73.369231 20.511524 73.515385 20.441476 73.661538 20.371338 73.807692 20.301112 73.953846 20.230801 74.100000 20.160407 74.246154 20.089932 74.392308 20.019380 74.538462 19.948753 74.684615 19.878052 74.830769 19.807281 74.976923 19.736442 75.123077 19.665536 75.269231 19.594568 75.415385 19.523539 75.561538 19.452448 75.707692 19.381298 75.853846 19.310087 76.000000 19.238816 76.146154 19.167486 76.292308 19.096097 76.438462 19.024648 76.584615 18.953140 76.730769 18.881574 76.876923 18.809949 77.023077 18.738266 77.169231 18.666525 77.315385 18.594727 77.461538 18.522871 77.607692 18.450957 77.753846 18.378987 77.900000 18.306960 78.046154 18.234877 78.192308 18.162737 78.338462 18.090542 78.484615 18.018290 78.630769 17.945983 78.776923 17.873621 78.923077 17.801204 79.069231 17.728732 79.215385 17.656206 79.361538 17.583625 79.507692 17.510990 79.653846 17.438302 79.800000 17.365560 79.946154 17.292764 80.092308 17.219916 80.238462 17.147015 80.384615 17.074061 80.530769 17.001055 80.676923 16.927996 80.823077 16.854886 80.969231 16.781724 81.115385 16.708511 81.261538 16.635247 81.407692 16.561932 81.553846 16.488566 81.700000 16.415150 81.846154 16.341684 81.992308 16.268167 82.138462 16.194602 82.284615 16.120986 82.430769 16.047322 82.576923 15.973608 82.723077 15.899846 82.869231 15.826036 83.015385 15.752177 83.161538 15.678271 83.307692 15.604316 83.453846 15.530314 83.600000 15.456265 83.746154 15.382169 83.892308 15.308027 84.038462 15.233837 84.184615 15.159602 84.330769 15.085320 84.476923 15.010993 84.623077 14.936620 84.769231 14.862202 84.915385 14.787739 85.061538 14.713231 85.207692 14.638679 85.353846 14.564082 85.500000 14.489441 85.646154 14.414756 85.792308 14.340028 85.938462 14.265257 86.084615 14.190442 86.230769 14.115585 86.376923 14.040685 86.523077 13.965742 86.669231 13.890758 86.815385 13.815731 86.961538 13.740663 87.107692 13.665554 87.253846 13.590403 87.400000 13.515212 87.546154 13.439980 87.692308 13.364707 87.838462 13.289394 87.984615 13.214042 88.130769 13.138650 88.276923 13.063218 88.423077 12.987747 88.569231 12.912237 88.715385 12.836689 88.861538 12.761102 89.007692 12.685476 89.153846 12.609813 89.300000 12.534112 89.446154 12.458374 89.592308 12.382598 89.738462 12.306785 89.884615 12.230936 90.030769 12.155050 90.176923 12.079128 90.323077 12.003170 90.469231 11.927176 90.615385 11.851146 90.761538 11.775081 90.907692 11.698981 91.053846 11.622846 91.200000 11.546677 91.346154 11.470474 91.492308 11.394236 91.638462 11.317964 91.784615 11.241659 91.930769 11.165321 92.076923 11.088949 92.223077 11.012545 92.369231 10.936108 92.515385 10.859638 92.661538 10.783137 92.807692 10.706603 92.953846 10.630038 93.100000 10.553442 93.246154 10.476814 93.392308 10.400155 93.538462 10.323466 93.684615 10.246746 93.830769 10.169997 93.976923 10.093217 94.123077 10.016407 94.269231 9.939568 94.415385 9.862700 94.561538 9.785803 94.707692 9.708877 94.853846 9.631923 95.000000 9.554940 95.146154 9.477930 95.292308 9.400891 95.438462 9.323826 95.584615 9.246732 95.730769 9.169612 95.876923 9.092465 96.023077 9.015292 96.169231 8.938092 96.315385 8.860867 96.461538 8.783615 96.607692 8.706338 96.753846 8.629035 96.900000 8.551708 97.046154 8.474356 97.192308 8.396979 97.338462 8.319577 97.484615 8.242152 97.630769 8.164703 97.776923 8.087230 97.923077 8.009734 98.069231 7.932214 98.215385 7.854672 98.361538 7.777107 98.507692 7.699520 98.653846 7.621911 98.800000 7.544279 98.946154 7.466627 99.092308 7.388952 99.238462 7.311257 99.384615 7.233540 99.530769 7.155803 99.676923 7.078045 99.823077 7.000267 99.969231 6.922470 100.115385 6.844652 100.261538 6.766815 100.407692 6.688959 100.553846 6.611084 100.700000 6.533190 100.846154 6.455277 100.992308 6.377346 101.138462 6.299398 101.284615 6.221431 101.430769 6.143447 101.576923 6.065446 101.723077 5.987428 101.869231 5.909392 102.015385 5.831341 102.161538 5.753273 102.307692 5.675189 102.453846 5.597089 102.600000 5.518973 102.746154 5.440842 102.892308 5.362696 103.038462 5.284536 103.184615 5.206360 103.330769 5.128171 103.476923 5.049967 103.623077 4.971749 103.769231 4.893518 103.915385 4.815273 104.061538 4.737015 104.207692 4.658744 104.353846 4.580461 104.500000 4.502165 104.646154 4.423857 104.792308 4.345537 104.938462 4.267205 105.084615 4.188862 105.230769 4.110508 105.376923 4.032143 105.523077 3.953767 105.669231 3.875380 105.815385 3.796984 105.961538 3.718577 106.107692 3.640161 106.253846 3.561735 106.400000 3.483300 106.546154 3.404856 106.692308 3.326403 106.838462 3.247942 106.984615 3.169472 107.130769 3.090994 107.276923 3.012509 107.423077 2.934016 107.569231 2.855515 107.715385 2.777008 107.861538 2.698494 108.007692 2.619973 108.153846 2.541446 108.300000 2.462913 108.446154 2.384374 108.592308 2.305829 108.738462 2.227279 108.884615 2.148724 109.030769 2.070164 109.176923 1.991599 109.323077 1.913030 109.469231 1.834457 109.615385 1.755880 109.761538 1.677299 109.907692 1.598715 110.053846 1.520128 110.200000 1.441538 110.346154 1.362945 110.492308 1.284350 110.638462 1.205752 110.784615 1.127153 110.930769 1.048552 111.076923 0.969949 111.223077 0.891346 111.369231 0.812741 111.515385 0.734135 111.661538 0.655529 111.807692 0.576923" class="line reactive nofill" /></g></g><g class="titles" /><g transform="translate(76, 10)" class="plot overlay"><g class="series serie-0 color-0" /></g><g transform="translate(76, 10)" class="plot text-overlay"><g class="series serie-0 color-0" /></g><g transform="translate(76, 10)" class="plot tooltip-overlay"><g transform="translate(0 0)" style="opacity: 0" class="tooltip"><rect rx="0" ry="0" width="0" height="0" class="tooltip-box" /><g class="text" /></g></g></g></svg>