<?xml version='1.0' encoding='utf-8'?>
<svg xmlns="http://www.w3.org/2000/svg" id="chart-73b748d5-e4ce-4a16-9556-7622c4e1dce5" class="pygal-chart pygal-sparkline" viewBox="0 0 200 50" width="200" height="50"><!--Generated with pygal 3.0.5 (etree) ©Kozea 2012-2016 on 2024-10-14--><!--http://pygal.org--><!--http://github.com/Kozea/pygal--><defs><style type="text/css">#chart-73b748d5-e4ce-4a16-9556-7622c4e1dce5{-webkit-user-select:none;-webkit-font-smoothing:antialiased;font-family:Consolas,"Liberation Mono",Menlo,Courier,monospace}#chart-73b748d5-e4ce-4a16-9556-7622c4e1dce5 .title{font-family:Consolas,"Liberation Mono",Menlo,Courier,monospace;font-size:16px}#chart-73b748d5-e4ce-4a16-9556-7622c4e1dce5 .legends .legend text{font-family:Consolas,"Liberation Mono",Menlo,Courier,monospace;font-size:14px}#chart-73b748d5-e4ce-4a16-9556-7622c4e1dce5 .axis text{font-family:Consolas,"Liberation Mono",Menlo,Courier,monospace;font-size:10px}#chart-73b748d5-e4ce-4a16-9556-7622c4e1dce5 .axis text.major{font-family:Consolas,"Liberation Mono",Menlo,Courier,monospace;font-size:10px}#chart-73b748d5-e4ce-4a16-9556-7622c4e1dce5 .text-overlay text.value{font-family:Consolas,"Liberation Mono",Menlo,Courier,monospace;font-size:16px}#chart-73b748d5-e4ce-4a16-9556-7622c4e1dce5 .text-overlay text.label{font-family:Consolas,"Liberation Mono",Menlo,Courier,monospace;font-size:10px}#chart-73b748d5-e4ce-4a16-9556-7622c4e1dce5 .tooltip{font-family:Consolas,"Liberation Mono",Menlo,Courier,monospace;font-size:14px}#chart-73b748d5-e4ce-4a16-9556-7622c4e1dce5 text.no_data{font-family:Consolas,"Liberation Mono",Menlo,Courier,monospace;font-size:64px}
#chart-73b748d5-e4ce-4a16-9556-7622c4e1dce5{background-color:rgba(249,249,249,1)}#chart-73b748d5-e4ce-4a16-9556-7622c4e1dce5 path,#chart-73b748d5-e4ce-4a16-9556-7622c4e1dce5 line,#chart-73b748d5-e4ce-4a16-9556-7622c4e1dce5 rect,#chart-73b748d5-e4ce-4a16-9556-7622c4e1dce5 circle{-webkit-transition:150ms;-moz-transition:150ms;transition:150ms}#chart-73b748d5-e4ce-4a16-9556-7622c4e1dce5 .graph &gt; .background{fill:rgba(249,249,249,1)}#chart-73b748d5-e4ce-4a16-9556-7622c4e1dce5 .plot &gt; .background{fill:rgba(255,255,255,1)}#chart-73b748d5-e4ce-4a16-9556-7622c4e1dce5 .graph{fill:rgba(0,0,0,.87)}#chart-73b748d5-e4ce-4a16-9556-7622c4e1dce5 text.no_data{fill:rgba(0,0,0,1)}#chart-73b748d5-e4ce-4a16-9556-7622c4e1dce5 .title{fill:rgba(0,0,0,1)}#chart-73b748d5-e4ce-4a16-9556-7622c4e1dce5 .legends .legend text{fill:rgba(0,0,0,.87)}#chart-73b748d5-e4ce-4a16-9556-7622c4e1dce5 .legends .legend:hover text{fill:rgba(0,0,0,1)}#chart-73b748d5-e4ce-4a16-9556-7622c4e1dce5 .axis .line{stroke:rgba(0,0,0,1)}#chart-73b748d5-e4ce-4a16-9556-7622c4e1dce5 .axis .guide.line{stroke:rgba(0,0,0,.54)}#chart-73b748d5-e4ce-4a16-9556-7622c4e1dce5 .axis .major.line{stroke:rgba(0,0,0,.87)}#chart-73b748d5-e4ce-4a16-9556-7622c4e1dce5 .axis text.major{fill:rgba(0,0,0,1)}#chart-73b748d5-e4ce-4a16-9556-7622c4e1dce5 .axis.y .guides:hover .guide.line,#chart-73b748d5-e4ce-4a16-9556-7622c4e1dce5 .line-graph .axis.x .guides:hover .guide.line,#chart-73b748d5-e4ce-4a16-9556-7622c4e1dce5 .stackedline-graph .axis.x .guides:hover .guide.line,#chart-73b748d5-e4ce-4a16-9556-7622c4e1dce5 .xy-graph .axis.x .guides:hover .guide.line{stroke:rgba(0,0,0,1)}#chart-73b748d5-e4ce-4a16-9556-7622c4e1dce5 .axis .guides:hover text{fill:rgba(0,0,0,1)}#chart-73b748d5-e4ce-4a16-9556-7622c4e1dce5 .reactive{fill-opacity:.7;stroke-opacity:.8;stroke-width:1}#chart-73b748d5-e4ce-4a16-9556-7622c4e1dce5 .ci{stroke:rgba(0,0,0,.87)}#chart-73b748d5-e4ce-4a16-9556-7622c4e1dce5 .reactive.active,#chart-73b748d5-e4ce-4a16-9556-7622c4e1dce5 .active .reactive{fill-opacity:.8;stroke-opacity:.9;stroke-width:4}#chart-73b748d5-e4ce-4a16-9556-7622c4e1dce5 .ci .reactive.active{stroke-width:1.5}#chart-73b748d5-e4ce-4a16-9556-7622c4e1dce5 .series text{fill:rgba(0,0,0,1)}#chart-73b748d5-e4ce-4a16-9556-7622c4e1dce5 .tooltip rect{fill:rgba(255,255,255,1);stroke:rgba(0,0,0,1);-webkit-transition:opacity 150ms;-moz-transition:opacity 150ms;transition:opacity 150ms}#chart-73b748d5-e4ce-4a16-9556-7622c4e1dce5 .tooltip .label{fill:rgba(0,0,0,.87)}#chart-73b748d5-e4ce-4a16-9556-7622c4e1dce5 .tooltip .label{fill:rgba(0,0,0,.87)}#chart-73b748d5-e4ce-4a16-9556-7622c4e1dce5 .tooltip .legend{font-size:.8em;fill:rgba(0,0,0,.54)}#chart-73b748d5-e4ce-4a16-9556-7622c4e1dce5 .tooltip .x_label{font-size:.6em;fill:rgba(0,0,0,1)}#chart-73b748d5-e4ce-4a16-9556-7622c4e1dce5 .tooltip .xlink{font-size:.5em;text-decoration:underline}#chart-73b748d5-e4ce-4a16-9556-7622c4e1dce5 .tooltip .value{font-size:1.5em}#chart-73b748d5-e4ce-4a16-9556-7622c4e1dce5 .bound{font-size:.5em}#chart-73b748d5-e4ce-4a16-9556-7622c4e1dce5 .max-value{font-size:.75em;fill:rgba(0,0,0,.54)}#chart-73b748d5-e4ce-4a16-9556-7622c4e1dce5 .map-element{fill:rgba(255,255,255,1);stroke:rgba(0,0,0,.54) !important}#chart-73b748d5-e4ce-4a16-9556-7622c4e1dce5 .map-element .reactive{fill-opacity:inherit;stroke-opacity:inherit}#chart-73b748d5-e4ce-4a16-9556-7622c4e1dce5 .color-0,#chart-73b748d5-e4ce-4a16-9556-7622c4e1dce5 .color-0 a:visited{stroke:#F44336;fill:#F44336}#chart-73b748d5-e4ce-4a16-9556-7622c4e1dce5 .text-overlay .color-0 text{fill:black}
#chart-73b748d5-e4ce-4a16-9556-7622c4e1dce5 text.no_data{text-anchor:middle}#chart-73b748d5-e4ce-4a16-9556-7622c4e1dce5 .guide.line{fill:none}#chart-73b748d5-e4ce-4a16-9556-7622c4e1dce5 .centered{text-anchor:middle}#chart-73b748d5-e4ce-4a16-9556-7622c4e1dce5 .title{text-anchor:middle}#chart-73b748d5-e4ce-4a16-9556-7622c4e1dce5 .legends .legend text{fill-opacity:1}#chart-73b748d5-e4ce-4a16-9556-7622c4e1dce5 .axis.x text{text-anchor:middle}#chart-73b748d5-e4ce-4a16-9556-7622c4e1dce5 .axis.x:not(.web) text[transform]{text-anchor:start}#chart-73b748d5-e4ce-4a16-9556-7622c4e1dce5 .axis.x:not(.web) text[transform].backwards{text-anchor:end}#chart-73b748d5-e4ce-4a16-9556-7622c4e1dce5 .axis.y text{text-anchor:end}#chart-73b748d5-e4ce-4a16-9556-7622c4e1dce5 .axis.y text[transform].backwards{text-anchor:start}#chart-73b748d5-e4ce-4a16-9556-7622c4e1dce5 .axis.y2 text{text-anchor:start}#chart-73b748d5-e4ce-4a16-9556-7622c4e1dce5 .axis.y2 text[transform].backwards{text-anchor:end}#chart-73b748d5-e4ce-4a16-9556-7622c4e1dce5 .axis .guide.line{stroke-dasharray:4,4;stroke:black}#chart-73b748d5-e4ce-4a16-9556-7622c4e1dce5 .axis .major.guide.line{stroke-dasharray:6,6;stroke:black}#chart-73b748d5-e4ce-4a16-9556-7622c4e1dce5 .horizontal .axis.y .guide.line,#chart-73b748d5-e4ce-4a16-9556-7622c4e1dce5 .horizontal .axis.y2 .guide.line,#chart-73b748d5-e4ce-4a16-9556-7622c4e1dce5 .vertical .axis.x .guide.line{opacity:0}#chart-73b748d5-e4ce-4a16-9556-7622c4e1dce5 .horizontal .axis.always_show .guide.line,#chart-73b748d5-e4ce-4a16-9556-7622c4e1dce5 .vertical .axis.always_show .guide.line{opacity:1 !important}#chart-73b748d5-e4ce-4a16-9556-7622c4e1dce5 .axis.y .guides:hover .guide.line,#chart-73b748d5-e4ce-4a16-9556-7622c4e1dce5 .axis.y2 .guides:hover .guide.line,#chart-73b748d5-e4ce-4a16-9556-7622c4e1dce5 .axis.x .guides:hover .guide.line{opacity:1}#chart-73b748d5-e4ce-4a16-9556-7622c4e1dce5 .axis .guides:hover text{opacity:1}#chart-73b748d5-e4ce-4a16-9556-7622c4e1dce5 .nofill{fill:none}#chart-73b748d5-e4ce-4a16-9556-7622c4e1dce5 .subtle-fill{fill-opacity:.2}#chart-73b748d5-e4ce-4a16-9556-7622c4e1dce5 .dot{stroke-width:1px;fill-opacity:1;stroke-opacity:1}#chart-73b748d5-e4ce-4a16-9556-7622c4e1dce5 .dot.active{stroke-width:5px}#chart-73b748d5-e4ce-4a16-9556-7622c4e1dce5 .dot.negative{fill:transparent}#chart-73b748d5-e4ce-4a16-9556-7622c4e1dce5 text,#chart-73b748d5-e4ce-4a16-9556-7622c4e1dce5 tspan{stroke:none !important}#chart-73b748d5-e4ce-4a16-9556-7622c4e1dce5 .series text.active{opacity:1}#chart-73b748d5-e4ce-4a16-9556-7622c4e1dce5 .tooltip rect{fill-opacity:.95;stroke-width:.5}#chart-73b748d5-e4ce-4a16-9556-7622c4e1dce5 .tooltip text{fill-opacity:1}#chart-73b748d5-e4ce-4a16-9556-7622c4e1dce5 .showable{visibility:hidden}#chart-73b748d5-e4ce-4a16-9556-7622c4e1dce5 .showable.shown{visibility:visible}#chart-73b748d5-e4ce-4a16-9556-7622c4e1dce5 .gauge-background{fill:rgba(229,229,229,1);stroke:none}#chart-73b748d5-e4ce-4a16-9556-7622c4e1dce5 .bg-lines{stroke:rgba(249,249,249,1);stroke-width:2px}</style><script type="text/javascript">window.pygal = window.pygal || {};window.pygal.config = window.pygal.config || {};window.pygal.config['73b748d5-e4ce-4a16-9556-7622c4e1dce5'] = {"allow_interruptions": false, "box_mode": "extremes", "classes": ["pygal-chart", "pygal-sparkline"], "css": ["file://style.css", "file://graph.css"], "defs": [], "disable_xml_declaration": false, "dots_size": 2.5, "dynamic_print_values": false, "explicit_size": true, "fill": false, "force_uri_protocol": "https", "formatter": null, "half_pie": false, "height": 50, "include_x_axis": false, "inner_radius": 0, "interpolate": "cubic", "interpolation_parameters": {}, "interpolation_precision": 250, "inverse_y_axis": false, "js": [], "legend_at_bottom": false, "legend_at_bottom_columns": null, "legend_box_size": 12, "logarithmic": false, "margin": 10, "margin_bottom": null, "margin_left": null, "margin_right": null, "margin_top": null, "max_scale": 2, "min_scale": 1, "missing_value_fill_truncation": "x", "no_data_text": "", "no_prefix": false, "order_min": null, "pretty_print": false, "print_labels": false, "print_values": false, "print_values_position": "center", "print_zeroes": true, "range": null, "rounded_bars": null, "secondary_range": null, "show_dots": false, "show_legend": false, "show_minor_x_labels": true, "show_minor_y_labels": true, "show_only_major_dots": false, "show_x_guides": false, "show_x_labels": false, "show_y_guides": true, "show_y_labels": true, "spacing": 0, "stack_from_top": false, "strict": false, "stroke": true, "stroke_style": null, "style": {"background": "rgba(249, 249, 249, 1)", "ci_colors": [], "colors": ["#F44336", "#3F51B5", "#009688", "#FFC107", "#FF5722", "#9C27B0", "#03A9F4", "#8BC34A", "#FF9800", "#E91E63", "#2196F3", "#4CAF50", "#FFEB3B", "#673AB7", "#00BCD4", "#CDDC39", "#9E9E9E", "#607D8B"], "dot_opacity": "1", "font_family": "Consolas, \"Liberation Mono\", Menlo, Courier, monospace", "foreground": "rgba(0, 0, 0, .87)", "foreground_strong": "rgba(0, 0, 0, 1)", "foreground_subtle": "rgba(0, 0, 0, .54)", "guide_stroke_color": "black", "guide_stroke_dasharray": "4,4", "label_font_family": "Consolas, \"Liberation Mono\", Menlo, Courier, monospace", "label_font_size": 10, "legend_font_family": "Consolas, \"Liberation Mono\", Menlo, Courier, monospace", "legend_font_size": 14, "major_guide_stroke_color": "black", "major_guide_stroke_dasharray": "6,6", "major_label_font_family": "Consolas, \"Liberation Mono\", Menlo, Courier, monospace", "major_label_font_size": 10, "no_data_font_family": "Consolas, \"Liberation Mono\", Menlo, Courier, monospace", "no_data_font_size": 64, "opacity": ".7", "opacity_hover": ".8", "plot_background": "rgba(255, 255, 255, 1)", "stroke_opacity": ".8", "stroke_opacity_hover": ".9", "stroke_width": "1", "stroke_width_hover": "4", "title_font_family": "Consolas, \"Liberation Mono\", Menlo, Courier, monospace", "title_font_size": 16, "tooltip_font_family": "Consolas, \"Liberation Mono\", Menlo, Courier, monospace", "tooltip_font_size": 14, "transition": "150ms", "value_background": "rgba(229, 229, 229, 1)", "value_colors": [], "value_font_family": "Consolas, \"Liberation Mono\", Menlo, Courier, monospace", "value_font_size": 16, "value_label_font_family": "Consolas, \"Liberation Mono\", Menlo, Courier, monospace", "value_label_font_size": 10}, "title": null, "tooltip_border_radius": 0, "tooltip_fancy_mode": true, "truncate_label": null, "truncate_legend": null, "width": 200, "x_label_rotation": 0, "x_labels": ["2024/10", "2024/9", "2024/8", "2024/7", "2024/6"], "x_labels_major": null, "x_labels_major_count": null, "x_labels_major_every": null, "x_title": null, "xrange": null, "y_label_rotation": 0, "y_labels": null, "y_labels_major": null, "y_labels_major_count": null, "y_labels_major_every": null, "y_title": null, "zero": 0, "legends": [""]}</script></defs><title>Pygal</title><g class="graph line-graph vertical"><rect x="0" y="0" width="200" height="50" class="background" /><g transform="translate(20, 10)" class="plot"><rect x="0" y="0" width="170" height="30" class="background" /><g class="axis y always_show"><path d="M0.000000 30.000000 h170.000000" class="line" /><g class="guides"><path d="M0.000000 24.906613 h170.000000" class="guide line" /><text x="-5" y="28.406613085840245" class="">4</text><title>4</title></g><g class="guides"><path d="M0.000000 6.840758 h170.000000" class="guide line" /><text x="-5" y="10.340757736893533" class="">8</text><title>8</title></g></g><g class="series serie-0 color-0"><path d="M3.269231 29.423077 L3.432692 29.321134 3.596154 29.219192 3.759615 29.117253 3.923077 29.015317 4.086538 28.913385 4.250000 28.811459 4.413462 28.709539 4.576923 28.607628 4.740385 28.505725 4.903846 28.403832 5.067308 28.301951 5.230769 28.200082 5.394231 28.098226 5.557692 27.996384 5.721154 27.894558 5.884615 27.792749 6.048077 27.690958 6.211538 27.589186 6.375000 27.487434 6.538462 27.385703 6.701923 27.283994 6.865385 27.182309 7.028846 27.080648 7.192308 26.979013 7.355769 26.877404 7.519231 26.775824 7.682692 26.674272 7.846154 26.572751 8.009615 26.471261 8.173077 26.369803 8.336538 26.268378 8.500000 26.166989 8.663462 26.065634 8.826923 25.964317 8.990385 25.863038 9.153846 25.761797 9.317308 25.660597 9.480769 25.559438 9.644231 25.458321 9.807692 25.357248 9.971154 25.256219 10.134615 25.155236 10.298077 25.054300 10.461538 24.953412 10.625000 24.852573 10.788462 24.751784 10.951923 24.651046 11.115385 24.550361 11.278846 24.449729 11.442308 24.349152 11.605769 24.248631 11.769231 24.148167 11.932692 24.047760 12.096154 23.947413 12.259615 23.847126 12.423077 23.746900 12.586538 23.646736 12.750000 23.546636 12.913462 23.446601 13.076923 23.346632 13.240385 23.246729 13.403846 23.146895 13.567308 23.047129 13.730769 22.947434 13.894231 22.847810 14.057692 22.748259 14.221154 22.648781 14.384615 22.549378 14.548077 22.450051 14.711538 22.350800 14.875000 22.251628 15.038462 22.152535 15.201923 22.053522 15.365385 21.954591 15.528846 21.855742 15.692308 21.756976 15.855769 21.658296 16.019231 21.559701 16.182692 21.461193 16.346154 21.362774 16.509615 21.264443 16.673077 21.166203 16.836538 21.068054 17.000000 20.969998 17.163462 20.872035 17.326923 20.774167 17.490385 20.676396 17.653846 20.578721 17.817308 20.481144 17.980769 20.383666 18.144231 20.286289 18.307692 20.189013 18.471154 20.091840 18.634615 19.994770 18.798077 19.897806 18.961538 19.800947 19.125000 19.704195 19.288462 19.607551 19.451923 19.511017 19.615385 19.414593 19.778846 19.318281 19.942308 19.222081 20.105769 19.125994 20.269231 19.030023 20.432692 18.934168 20.596154 18.838429 20.759615 18.742809 20.923077 18.647308 21.086538 18.551928 21.250000 18.456669 21.413462 18.361533 21.576923 18.266520 21.740385 18.171633 21.903846 18.076871 22.067308 17.982237 22.230769 17.887730 22.394231 17.793353 22.557692 17.699107 22.721154 17.604992 22.884615 17.511009 23.048077 17.417161 23.211538 17.323447 23.375000 17.229870 23.538462 17.136429 23.701923 17.043127 23.865385 16.949964 24.028846 16.856942 24.192308 16.764061 24.355769 16.671323 24.519231 16.578729 24.682692 16.486279 24.846154 16.393976 25.009615 16.301820 25.173077 16.209812 25.336538 16.117954 25.500000 16.026246 25.663462 15.934690 25.826923 15.843286 25.990385 15.752037 26.153846 15.660942 26.317308 15.570003 26.480769 15.479222 26.644231 15.388599 26.807692 15.298135 26.971154 15.207832 27.134615 15.117691 27.298077 15.027712 27.461538 14.937897 27.625000 14.848248 27.788462 14.758764 27.951923 14.669448 28.115385 14.580300 28.278846 14.491321 28.442308 14.402513 28.605769 14.313877 28.769231 14.225413 28.932692 14.137124 29.096154 14.049009 29.259615 13.961071 29.423077 13.873310 29.586538 13.785727 29.750000 13.698324 29.913462 13.611102 30.076923 13.524061 30.240385 13.437203 30.403846 13.350529 30.567308 13.264040 30.730769 13.177737 30.894231 13.091622 31.057692 13.005695 31.221154 12.919957 31.384615 12.834410 31.548077 12.749055 31.711538 12.663893 31.875000 12.578925 32.038462 12.494152 32.201923 12.409575 32.365385 12.325196 32.528846 12.241015 32.692308 12.157033 32.855769 12.073252 33.019231 11.989673 33.182692 11.906297 33.346154 11.823125 33.509615 11.740158 33.673077 11.657398 33.836538 11.574844 34.000000 11.492500 34.163462 11.410365 34.326923 11.328440 34.490385 11.246727 34.653846 11.165228 34.817308 11.083942 34.980769 11.002872 35.144231 10.922018 35.307692 10.841381 35.471154 10.760963 35.634615 10.680764 35.798077 10.600786 35.961538 10.521031 36.125000 10.441498 36.288462 10.362189 36.451923 10.283105 36.615385 10.204248 36.778846 10.125618 36.942308 10.047217 37.105769 9.969045 37.269231 9.891104 37.432692 9.813395 37.596154 9.735919 37.759615 9.658678 37.923077 9.581671 38.086538 9.504901 38.250000 9.428368 38.413462 9.352074 38.576923 9.276020 38.740385 9.200206 38.903846 9.124635 39.067308 9.049306 39.230769 8.974222 39.394231 8.899383 39.557692 8.824790 39.721154 8.750445 39.884615 8.676348 40.048077 8.602501 40.211538 8.528905 40.375000 8.455561 40.538462 8.382470 40.701923 8.309634 40.865385 8.237052 41.028846 8.164727 41.192308 8.092660 41.355769 8.020851 41.519231 7.949302 41.682692 7.878014 41.846154 7.806988 42.009615 7.736225 42.173077 7.665726 42.336538 7.595493 42.500000 7.525526 42.663462 7.455827 42.826923 7.386396 42.990385 7.317235 43.153846 7.248345 43.317308 7.179727 43.480769 7.111383 43.644231 7.043312 43.807692 6.975517 43.971154 6.907999 44.134615 6.840758 44.298077 6.773796 44.461538 6.707114 44.625000 6.640713 44.788462 6.574595 44.951923 6.508762 45.115385 6.443213 45.278846 6.377952 45.442308 6.312979 45.605769 6.248296 45.769231 6.183904 45.932692 6.119804 46.096154 6.055998 46.259615 5.992487 46.423077 5.929272 46.586538 5.866355 46.750000 5.803738 46.913462 5.741420 47.076923 5.679405 47.240385 5.617693 47.403846 5.556286 47.567308 5.495184 47.730769 5.434390 47.894231 5.373905 48.057692 5.313730 48.221154 5.253866 48.384615 5.194315 48.548077 5.135078 48.711538 5.076157 48.875000 5.017552 49.038462 4.959266 49.201923 4.901299 49.365385 4.843654 49.528846 4.786330 49.692308 4.729331 49.855769 4.672656 50.019231 4.616308 50.182692 4.560288 50.346154 4.504597 50.509615 4.449236 50.673077 4.394207 50.836538 4.339512 51.000000 4.285151 51.163462 4.231126 51.326923 4.177438 51.490385 4.124089 51.653846 4.071080 51.817308 4.018413 51.980769 3.966088 52.144231 3.914108 52.307692 3.862472 52.471154 3.811184 52.634615 3.760244 52.798077 3.709654 52.961538 3.659414 53.125000 3.609527 53.288462 3.559994 53.451923 3.510815 53.615385 3.461993 53.778846 3.413529 53.942308 3.365424 54.105769 3.317679 54.269231 3.270297 54.432692 3.223277 54.596154 3.176622 54.759615 3.130333 54.923077 3.084411 55.086538 3.038858 55.250000 2.993675 55.413462 2.948864 55.576923 2.904425 55.740385 2.860360 55.903846 2.816671 56.067308 2.773358 56.230769 2.730424 56.394231 2.687869 56.557692 2.645696 56.721154 2.603904 56.884615 2.562496 57.048077 2.521474 57.211538 2.480837 57.375000 2.440588 57.538462 2.400729 57.701923 2.361260 57.865385 2.322183 58.028846 2.283499 58.192308 2.245209 58.355769 2.207316 58.519231 2.169819 58.682692 2.132722 58.846154 2.096024 59.009615 2.059728 59.173077 2.023834 59.336538 1.988345 59.500000 1.953261 59.663462 1.918584 59.826923 1.884315 59.990385 1.850455 60.153846 1.817007 60.317308 1.783971 60.480769 1.751348 60.644231 1.719141 60.807692 1.687349 60.971154 1.655976 61.134615 1.625022 61.298077 1.594488 61.461538 1.564375 61.625000 1.534686 61.788462 1.505422 61.951923 1.476583 62.115385 1.448172 62.278846 1.420190 62.442308 1.392637 62.605769 1.365516 62.769231 1.338827 62.932692 1.312572 63.096154 1.286753 63.259615 1.261371 63.423077 1.236427 63.586538 1.211922 63.750000 1.187859 63.913462 1.164237 64.076923 1.141059 64.240385 1.118327 64.403846 1.096040 64.567308 1.074201 64.730769 1.052811 64.894231 1.031872 65.057692 1.011385 65.221154 0.991350 65.384615 0.971770 65.548077 0.952646 65.711538 0.933980 65.875000 0.915772 66.038462 0.898023 66.201923 0.880737 66.365385 0.863912 66.528846 0.847552 66.692308 0.831658 66.855769 0.816230 67.019231 0.801270 67.182692 0.786780 67.346154 0.772760 67.509615 0.759213 67.673077 0.746140 67.836538 0.733541 68.000000 0.721419 68.163462 0.709774 68.326923 0.698609 68.490385 0.687924 68.653846 0.677720 68.817308 0.668000 68.980769 0.658764 69.144231 0.650014 69.307692 0.641752 69.471154 0.633978 69.634615 0.626693 69.798077 0.619901 69.961538 0.613601 70.125000 0.607794 70.288462 0.602484 70.451923 0.597670 70.615385 0.593354 70.778846 0.589538 70.942308 0.586222 71.105769 0.583409 71.269231 0.581099 71.432692 0.579294 71.596154 0.577996 71.759615 0.577205 71.923077 0.576923 72.086538 0.577152 72.250000 0.577892 72.413462 0.579145 72.576923 0.580913 72.740385 0.583197 72.903846 0.585998 73.067308 0.589318 73.230769 0.593157 73.394231 0.597518 73.557692 0.602401 73.721154 0.607808 73.884615 0.613741 74.048077 0.620201 74.211538 0.627188 74.375000 0.634705 74.538462 0.642753 74.701923 0.651333 74.865385 0.660447 75.028846 0.670096 75.192308 0.680280 75.355769 0.691003 75.519231 0.702264 75.682692 0.714066 75.846154 0.726410 76.009615 0.739296 76.173077 0.752728 76.336538 0.766704 76.500000 0.781229 76.663462 0.796301 76.826923 0.811924 76.990385 0.828098 77.153846 0.844824 77.317308 0.862104 77.480769 0.879940 77.644231 0.898333 77.807692 0.917283 77.971154 0.936793 78.134615 0.956864 78.298077 0.977497 78.461538 0.998694 78.625000 1.020455 78.788462 1.042783 78.951923 1.065678 79.115385 1.089142 79.278846 1.113177 79.442308 1.137783 79.605769 1.162963 79.769231 1.188717 79.932692 1.215046 80.096154 1.241953 80.259615 1.269438 80.423077 1.297504 80.586538 1.326150 80.750000 1.355379 80.913462 1.385192 81.076923 1.415590 81.240385 1.446575 81.403846 1.478149 81.567308 1.510311 81.730769 1.543064 81.894231 1.576410 82.057692 1.610349 82.221154 1.644883 82.384615 1.680013 82.548077 1.715740 82.711538 1.752067 82.875000 1.788994 83.038462 1.826523 83.201923 1.864654 83.365385 1.903390 83.528846 1.942732 83.692308 1.982681 83.855769 2.023239 84.019231 2.064406 84.182692 2.106185 84.346154 2.148576 84.509615 2.191581 84.673077 2.235202 84.836538 2.279439 85.000000 2.324294 85.163462 2.369767 85.326923 2.415856 85.490385 2.462553 85.653846 2.509856 85.817308 2.557759 85.980769 2.606257 86.144231 2.655345 86.307692 2.705020 86.471154 2.755274 86.634615 2.806105 86.798077 2.857507 86.961538 2.909475 87.125000 2.962004 87.288462 3.015091 87.451923 3.068728 87.615385 3.122913 87.778846 3.177640 87.942308 3.232904 88.105769 3.288701 88.269231 3.345025 88.432692 3.401872 88.596154 3.459237 88.759615 3.517115 88.923077 3.575501 89.086538 3.634391 89.250000 3.693779 89.413462 3.753662 89.576923 3.814033 89.740385 3.874888 89.903846 3.936222 90.067308 3.998031 90.230769 4.060310 90.394231 4.123053 90.557692 4.186257 90.721154 4.249915 90.884615 4.314024 91.048077 4.378578 91.211538 4.443573 91.375000 4.509004 91.538462 4.574866 91.701923 4.641154 91.865385 4.707863 92.028846 4.774989 92.192308 4.842526 92.355769 4.910470 92.519231 4.978816 92.682692 5.047560 92.846154 5.116695 93.009615 5.186218 93.173077 5.256124 93.336538 5.326408 93.500000 5.397064 93.663462 5.468089 93.826923 5.539477 93.990385 5.611224 94.153846 5.683324 94.317308 5.755774 94.480769 5.828567 94.644231 5.901699 94.807692 5.975166 94.971154 6.048962 95.134615 6.123083 95.298077 6.197524 95.461538 6.272280 95.625000 6.347346 95.788462 6.422717 95.951923 6.498389 96.115385 6.574357 96.278846 6.650615 96.442308 6.727160 96.605769 6.803985 96.769231 6.881087 96.932692 6.958461 97.096154 7.036102 97.259615 7.114004 97.423077 7.192163 97.586538 7.270575 97.750000 7.349234 97.913462 7.428135 98.076923 7.507274 98.240385 7.586646 98.403846 7.666247 98.567308 7.746070 98.730769 7.826112 98.894231 7.906367 99.057692 7.986831 99.221154 8.067499 99.384615 8.148366 99.548077 8.229428 99.711538 8.310678 99.875000 8.392114 100.038462 8.473729 100.201923 8.555519 100.365385 8.637479 100.528846 8.719604 100.692308 8.801890 100.855769 8.884331 101.019231 8.966923 101.182692 9.049661 101.346154 9.132541 101.509615 9.215556 101.673077 9.298703 101.836538 9.381976 102.000000 9.465371 102.163462 9.548884 102.326923 9.632508 102.490385 9.716239 102.653846 9.800074 102.817308 9.884005 102.980769 9.968030 103.144231 10.052142 103.307692 10.136337 103.471154 10.220611 103.634615 10.304958 103.798077 10.389374 103.961538 10.473854 104.125000 10.558393 104.288462 10.642985 104.451923 10.727628 104.615385 10.812314 104.778846 10.897040 104.942308 10.981801 105.105769 11.066592 105.269231 11.151408 105.432692 11.236245 105.596154 11.321097 105.759615 11.405959 105.923077 11.490828 106.086538 11.575697 106.250000 11.660563 106.413462 11.745420 106.576923 11.830263 106.740385 11.915088 106.903846 11.999890 107.067308 12.084664 107.230769 12.169405 107.394231 12.254108 107.557692 12.338769 107.721154 12.423383 107.884615 12.507944 108.048077 12.592449 108.211538 12.676891 108.375000 12.761267 108.538462 12.845572 108.701923 12.929800 108.865385 13.013947 109.028846 13.098008 109.192308 13.181979 109.355769 13.265853 109.519231 13.349627 109.682692 13.433296 109.846154 13.516855 110.009615 13.600299 110.173077 13.683623 110.336538 13.766822 110.500000 13.849892 110.663462 13.932828 110.826923 14.015624 110.990385 14.098277 111.153846 14.180781 111.317308 14.263131 111.480769 14.345322 111.644231 14.427351 111.807692 14.509211 111.971154 14.590899 112.134615 14.672408 112.298077 14.753735 112.461538 14.834875 112.625000 14.915822 112.788462 14.996573 112.951923 15.077121 113.115385 15.157463 113.278846 15.237593 113.442308 15.317506 113.605769 15.397198 113.769231 15.476665 113.932692 15.555900 114.096154 15.634900 114.259615 15.713659 114.423077 15.792172 114.586538 15.870436 114.750000 15.948444 114.913462 16.026192 115.076923 16.103676 115.240385 16.180890 115.403846 16.257830 115.567308 16.334490 115.730769 16.410867 115.894231 16.486954 116.057692 16.562748 116.221154 16.638243 116.384615 16.713435 116.548077 16.788319 116.711538 16.862890 116.875000 16.937142 117.038462 17.011072 117.201923 17.084675 117.365385 17.157945 117.528846 17.230878 117.692308 17.303469 117.855769 17.375713 118.019231 17.447605 118.182692 17.519141 118.346154 17.590315 118.509615 17.661124 118.673077 17.731561 118.836538 17.801622 119.000000 17.871303 119.163462 17.940598 119.326923 18.009503 119.490385 18.078013 119.653846 18.146122 119.817308 18.213827 119.980769 18.281122 120.144231 18.348003 120.307692 18.414464 120.471154 18.480501 120.634615 18.546110 120.798077 18.611284 120.961538 18.676020 121.125000 18.740312 121.288462 18.804156 121.451923 18.867546 121.615385 18.930479 121.778846 18.992949 121.942308 19.054951 122.105769 19.116481 122.269231 19.177533 122.432692 19.238104 122.596154 19.298187 122.759615 19.357779 122.923077 19.416873 123.086538 19.475467 123.250000 19.533554 123.413462 19.591130 123.576923 19.648190 123.740385 19.704729 123.903846 19.760743 124.067308 19.816226 124.230769 19.871174 124.394231 19.925582 124.557692 19.979445 124.721154 20.032758 124.884615 20.085516 125.048077 20.137715 125.211538 20.189350 125.375000 20.240415 125.538462 20.290907 125.701923 20.340820 125.865385 20.390149 126.028846 20.438891 126.192308 20.487047 126.355769 20.534620 126.519231 20.581610 126.682692 20.628022 126.846154 20.673858 127.009615 20.719119 127.173077 20.763807 127.336538 20.807927 127.500000 20.851479 127.663462 20.894466 127.826923 20.936891 127.990385 20.978755 128.153846 21.020062 128.317308 21.060813 128.480769 21.101011 128.644231 21.140658 128.807692 21.179757 128.971154 21.218310 129.134615 21.256319 129.298077 21.293787 129.461538 21.330716 129.625000 21.367108 129.788462 21.402966 129.951923 21.438291 130.115385 21.473088 130.278846 21.507357 130.442308 21.541101 130.605769 21.574323 130.769231 21.607024 130.932692 21.639208 131.096154 21.670876 131.259615 21.702031 131.423077 21.732675 131.586538 21.762811 131.750000 21.792441 131.913462 21.821567 132.076923 21.850192 132.240385 21.878318 132.403846 21.905947 132.567308 21.933082 132.730769 21.959725 132.894231 21.985878 133.057692 22.011544 133.221154 22.036726 133.384615 22.061424 133.548077 22.085643 133.711538 22.109384 133.875000 22.132649 134.038462 22.155441 134.201923 22.177763 134.365385 22.199616 134.528846 22.221003 134.692308 22.241927 134.855769 22.262389 135.019231 22.282392 135.182692 22.301938 135.346154 22.321031 135.509615 22.339671 135.673077 22.357862 135.836538 22.375605 136.000000 22.392904 136.163462 22.409760 136.326923 22.426176 136.490385 22.442154 136.653846 22.457697 136.817308 22.472807 136.980769 22.487486 137.144231 22.501736 137.307692 22.515561 137.471154 22.528962 137.634615 22.541942 137.798077 22.554502 137.961538 22.566646 138.125000 22.578376 138.288462 22.589694 138.451923 22.600602 138.615385 22.611103 138.778846 22.621200 138.942308 22.630893 139.105769 22.640187 139.269231 22.649083 139.432692 22.657583 139.596154 22.665691 139.759615 22.673408 139.923077 22.680736 140.086538 22.687678 140.250000 22.694237 140.413462 22.700414 140.576923 22.706213 140.740385 22.711634 140.903846 22.716682 141.067308 22.721358 141.230769 22.725664 141.394231 22.729603 141.557692 22.733177 141.721154 22.736388 141.884615 22.739240 142.048077 22.741734 142.211538 22.743872 142.375000 22.745657 142.538462 22.747092 142.701923 22.748178 142.865385 22.748918 143.028846 22.749315 143.192308 22.749370 143.355769 22.749087 143.519231 22.748467 143.682692 22.747512 143.846154 22.746226 144.009615 22.744610 144.173077 22.742667 144.336538 22.740399 144.500000 22.737809 144.663462 22.734899 144.826923 22.731670 144.990385 22.728127 145.153846 22.724270 145.317308 22.720103 145.480769 22.715627 145.644231 22.710846 145.807692 22.705761 145.971154 22.700374 146.134615 22.694689 146.298077 22.688707 146.461538 22.682431 146.625000 22.675862 146.788462 22.669005 146.951923 22.661860 147.115385 22.654431 147.278846 22.646719 147.442308 22.638727 147.605769 22.630457 147.769231 22.621912 147.932692 22.613093 148.096154 22.604004 148.259615 22.594647 148.423077 22.585024 148.586538 22.575137 148.750000 22.564989 148.913462 22.554582 149.076923 22.543919 149.240385 22.533001 149.403846 22.521831 149.567308 22.510412 149.730769 22.498746 149.894231 22.486835 150.057692 22.474682 150.221154 22.462288 150.384615 22.449657 150.548077 22.436790 150.711538 22.423690 150.875000 22.410360 151.038462 22.396802 151.201923 22.383017 151.365385 22.369009 151.528846 22.354779 151.692308 22.340331 151.855769 22.325666 152.019231 22.310787 152.182692 22.295696 152.346154 22.280396 152.509615 22.264888 152.673077 22.249176 152.836538 22.233261 153.000000 22.217147 153.163462 22.200834 153.326923 22.184326 153.490385 22.167625 153.653846 22.150734 153.817308 22.133654 153.980769 22.116388 154.144231 22.098939 154.307692 22.081309 154.471154 22.063499 154.634615 22.045513 154.798077 22.027353 154.961538 22.009021 155.125000 21.990520 155.288462 21.971851 155.451923 21.953018 155.615385 21.934022 155.778846 21.914866 155.942308 21.895553 156.105769 21.876084 156.269231 21.856462 156.432692 21.836690 156.596154 21.816769 156.759615 21.796702 156.923077 21.776492 157.086538 21.756141 157.250000 21.735650 157.413462 21.715023 157.576923 21.694262 157.740385 21.673370 157.903846 21.652347 158.067308 21.631198 158.230769 21.609924 158.394231 21.588527 158.557692 21.567011 158.721154 21.545376 158.884615 21.523627 159.048077 21.501764 159.211538 21.479791 159.375000 21.457710 159.538462 21.435522 159.701923 21.413231 159.865385 21.390839 160.028846 21.368348 160.192308 21.345761 160.355769 21.323079 160.519231 21.300306 160.682692 21.277443 160.846154 21.254493 161.009615 21.231458 161.173077 21.208341 161.336538 21.185144 161.500000 21.161869 161.663462 21.138519 161.826923 21.115096 161.990385 21.091602 162.153846 21.068040 162.317308 21.044412 162.480769 21.020721 162.644231 20.996968 162.807692 20.973157 162.971154 20.949289 163.134615 20.925367 163.298077 20.901393 163.461538 20.877370 163.625000 20.853300 163.788462 20.829184 163.951923 20.805027 164.115385 20.780830 164.278846 20.756594 164.442308 20.732324 164.605769 20.708021 164.769231 20.683687 164.932692 20.659325 165.096154 20.634936 165.259615 20.610525 165.423077 20.586092 165.586538 20.561640 165.750000 20.537172 165.913462 20.512690 166.076923 20.488196 166.240385 20.463692 166.403846 20.439182 166.567308 20.414667 166.730769 20.390149" class="line reactive nofill" /></g></g><g class="titles" /><g transform="translate(20, 10)" class="plot overlay"><g class="series serie-0 color-0" /></g><g transform="translate(20, 10)" class="plot text-overlay"><g class="series serie-0 color-0" /></g><g transform="translate(20, 10)" class="plot tooltip-overlay"><g transform="translate(0 0)" style="opacity: 0" class="tooltip"><rect rx="0" ry="0" width="0" height="0" class="tooltip-box" /><g class="text" /></g></g></g></svg>