<?xml version='1.0' encoding='utf-8'?>
<svg xmlns="http://www.w3.org/2000/svg" id="chart-b78356fa-9b23-4b5f-9d29-53fdc8d6c0ca" class="pygal-chart pygal-sparkline" viewBox="0 0 200 50" width="200" height="50"><!--Generated with pygal 3.0.5 (etree) ©Kozea 2012-2016 on 2024-09-17--><!--http://pygal.org--><!--http://github.com/Kozea/pygal--><defs><style type="text/css">#chart-b78356fa-9b23-4b5f-9d29-53fdc8d6c0ca{-webkit-user-select:none;-webkit-font-smoothing:antialiased;font-family:Consolas,"Liberation Mono",Menlo,Courier,monospace}#chart-b78356fa-9b23-4b5f-9d29-53fdc8d6c0ca .title{font-family:Consolas,"Liberation Mono",Menlo,Courier,monospace;font-size:16px}#chart-b78356fa-9b23-4b5f-9d29-53fdc8d6c0ca .legends .legend text{font-family:Consolas,"Liberation Mono",Menlo,Courier,monospace;font-size:14px}#chart-b78356fa-9b23-4b5f-9d29-53fdc8d6c0ca .axis text{font-family:Consolas,"Liberation Mono",Menlo,Courier,monospace;font-size:10px}#chart-b78356fa-9b23-4b5f-9d29-53fdc8d6c0ca .axis text.major{font-family:Consolas,"Liberation Mono",Menlo,Courier,monospace;font-size:10px}#chart-b78356fa-9b23-4b5f-9d29-53fdc8d6c0ca .text-overlay text.value{font-family:Consolas,"Liberation Mono",Menlo,Courier,monospace;font-size:16px}#chart-b78356fa-9b23-4b5f-9d29-53fdc8d6c0ca .text-overlay text.label{font-family:Consolas,"Liberation Mono",Menlo,Courier,monospace;font-size:10px}#chart-b78356fa-9b23-4b5f-9d29-53fdc8d6c0ca .tooltip{font-family:Consolas,"Liberation Mono",Menlo,Courier,monospace;font-size:14px}#chart-b78356fa-9b23-4b5f-9d29-53fdc8d6c0ca text.no_data{font-family:Consolas,"Liberation Mono",Menlo,Courier,monospace;font-size:64px}
#chart-b78356fa-9b23-4b5f-9d29-53fdc8d6c0ca{background-color:rgba(249,249,249,1)}#chart-b78356fa-9b23-4b5f-9d29-53fdc8d6c0ca path,#chart-b78356fa-9b23-4b5f-9d29-53fdc8d6c0ca line,#chart-b78356fa-9b23-4b5f-9d29-53fdc8d6c0ca rect,#chart-b78356fa-9b23-4b5f-9d29-53fdc8d6c0ca circle{-webkit-transition:150ms;-moz-transition:150ms;transition:150ms}#chart-b78356fa-9b23-4b5f-9d29-53fdc8d6c0ca .graph &gt; .background{fill:rgba(249,249,249,1)}#chart-b78356fa-9b23-4b5f-9d29-53fdc8d6c0ca .plot &gt; .background{fill:rgba(255,255,255,1)}#chart-b78356fa-9b23-4b5f-9d29-53fdc8d6c0ca .graph{fill:rgba(0,0,0,.87)}#chart-b78356fa-9b23-4b5f-9d29-53fdc8d6c0ca text.no_data{fill:rgba(0,0,0,1)}#chart-b78356fa-9b23-4b5f-9d29-53fdc8d6c0ca .title{fill:rgba(0,0,0,1)}#chart-b78356fa-9b23-4b5f-9d29-53fdc8d6c0ca .legends .legend text{fill:rgba(0,0,0,.87)}#chart-b78356fa-9b23-4b5f-9d29-53fdc8d6c0ca .legends .legend:hover text{fill:rgba(0,0,0,1)}#chart-b78356fa-9b23-4b5f-9d29-53fdc8d6c0ca .axis .line{stroke:rgba(0,0,0,1)}#chart-b78356fa-9b23-4b5f-9d29-53fdc8d6c0ca .axis .guide.line{stroke:rgba(0,0,0,.54)}#chart-b78356fa-9b23-4b5f-9d29-53fdc8d6c0ca .axis .major.line{stroke:rgba(0,0,0,.87)}#chart-b78356fa-9b23-4b5f-9d29-53fdc8d6c0ca .axis text.major{fill:rgba(0,0,0,1)}#chart-b78356fa-9b23-4b5f-9d29-53fdc8d6c0ca .axis.y .guides:hover .guide.line,#chart-b78356fa-9b23-4b5f-9d29-53fdc8d6c0ca .line-graph .axis.x .guides:hover .guide.line,#chart-b78356fa-9b23-4b5f-9d29-53fdc8d6c0ca .stackedline-graph .axis.x .guides:hover .guide.line,#chart-b78356fa-9b23-4b5f-9d29-53fdc8d6c0ca .xy-graph .axis.x .guides:hover .guide.line{stroke:rgba(0,0,0,1)}#chart-b78356fa-9b23-4b5f-9d29-53fdc8d6c0ca .axis .guides:hover text{fill:rgba(0,0,0,1)}#chart-b78356fa-9b23-4b5f-9d29-53fdc8d6c0ca .reactive{fill-opacity:.7;stroke-opacity:.8;stroke-width:1}#chart-b78356fa-9b23-4b5f-9d29-53fdc8d6c0ca .ci{stroke:rgba(0,0,0,.87)}#chart-b78356fa-9b23-4b5f-9d29-53fdc8d6c0ca .reactive.active,#chart-b78356fa-9b23-4b5f-9d29-53fdc8d6c0ca .active .reactive{fill-opacity:.8;stroke-opacity:.9;stroke-width:4}#chart-b78356fa-9b23-4b5f-9d29-53fdc8d6c0ca .ci .reactive.active{stroke-width:1.5}#chart-b78356fa-9b23-4b5f-9d29-53fdc8d6c0ca .series text{fill:rgba(0,0,0,1)}#chart-b78356fa-9b23-4b5f-9d29-53fdc8d6c0ca .tooltip rect{fill:rgba(255,255,255,1);stroke:rgba(0,0,0,1);-webkit-transition:opacity 150ms;-moz-transition:opacity 150ms;transition:opacity 150ms}#chart-b78356fa-9b23-4b5f-9d29-53fdc8d6c0ca .tooltip .label{fill:rgba(0,0,0,.87)}#chart-b78356fa-9b23-4b5f-9d29-53fdc8d6c0ca .tooltip .label{fill:rgba(0,0,0,.87)}#chart-b78356fa-9b23-4b5f-9d29-53fdc8d6c0ca .tooltip .legend{font-size:.8em;fill:rgba(0,0,0,.54)}#chart-b78356fa-9b23-4b5f-9d29-53fdc8d6c0ca .tooltip .x_label{font-size:.6em;fill:rgba(0,0,0,1)}#chart-b78356fa-9b23-4b5f-9d29-53fdc8d6c0ca .tooltip .xlink{font-size:.5em;text-decoration:underline}#chart-b78356fa-9b23-4b5f-9d29-53fdc8d6c0ca .tooltip .value{font-size:1.5em}#chart-b78356fa-9b23-4b5f-9d29-53fdc8d6c0ca .bound{font-size:.5em}#chart-b78356fa-9b23-4b5f-9d29-53fdc8d6c0ca .max-value{font-size:.75em;fill:rgba(0,0,0,.54)}#chart-b78356fa-9b23-4b5f-9d29-53fdc8d6c0ca .map-element{fill:rgba(255,255,255,1);stroke:rgba(0,0,0,.54) !important}#chart-b78356fa-9b23-4b5f-9d29-53fdc8d6c0ca .map-element .reactive{fill-opacity:inherit;stroke-opacity:inherit}#chart-b78356fa-9b23-4b5f-9d29-53fdc8d6c0ca .color-0,#chart-b78356fa-9b23-4b5f-9d29-53fdc8d6c0ca .color-0 a:visited{stroke:#F44336;fill:#F44336}#chart-b78356fa-9b23-4b5f-9d29-53fdc8d6c0ca .text-overlay .color-0 text{fill:black}
#chart-b78356fa-9b23-4b5f-9d29-53fdc8d6c0ca text.no_data{text-anchor:middle}#chart-b78356fa-9b23-4b5f-9d29-53fdc8d6c0ca .guide.line{fill:none}#chart-b78356fa-9b23-4b5f-9d29-53fdc8d6c0ca .centered{text-anchor:middle}#chart-b78356fa-9b23-4b5f-9d29-53fdc8d6c0ca .title{text-anchor:middle}#chart-b78356fa-9b23-4b5f-9d29-53fdc8d6c0ca .legends .legend text{fill-opacity:1}#chart-b78356fa-9b23-4b5f-9d29-53fdc8d6c0ca .axis.x text{text-anchor:middle}#chart-b78356fa-9b23-4b5f-9d29-53fdc8d6c0ca .axis.x:not(.web) text[transform]{text-anchor:start}#chart-b78356fa-9b23-4b5f-9d29-53fdc8d6c0ca .axis.x:not(.web) text[transform].backwards{text-anchor:end}#chart-b78356fa-9b23-4b5f-9d29-53fdc8d6c0ca .axis.y text{text-anchor:end}#chart-b78356fa-9b23-4b5f-9d29-53fdc8d6c0ca .axis.y text[transform].backwards{text-anchor:start}#chart-b78356fa-9b23-4b5f-9d29-53fdc8d6c0ca .axis.y2 text{text-anchor:start}#chart-b78356fa-9b23-4b5f-9d29-53fdc8d6c0ca .axis.y2 text[transform].backwards{text-anchor:end}#chart-b78356fa-9b23-4b5f-9d29-53fdc8d6c0ca .axis .guide.line{stroke-dasharray:4,4;stroke:black}#chart-b78356fa-9b23-4b5f-9d29-53fdc8d6c0ca .axis .major.guide.line{stroke-dasharray:6,6;stroke:black}#chart-b78356fa-9b23-4b5f-9d29-53fdc8d6c0ca .horizontal .axis.y .guide.line,#chart-b78356fa-9b23-4b5f-9d29-53fdc8d6c0ca .horizontal .axis.y2 .guide.line,#chart-b78356fa-9b23-4b5f-9d29-53fdc8d6c0ca .vertical .axis.x .guide.line{opacity:0}#chart-b78356fa-9b23-4b5f-9d29-53fdc8d6c0ca .horizontal .axis.always_show .guide.line,#chart-b78356fa-9b23-4b5f-9d29-53fdc8d6c0ca .vertical .axis.always_show .guide.line{opacity:1 !important}#chart-b78356fa-9b23-4b5f-9d29-53fdc8d6c0ca .axis.y .guides:hover .guide.line,#chart-b78356fa-9b23-4b5f-9d29-53fdc8d6c0ca .axis.y2 .guides:hover .guide.line,#chart-b78356fa-9b23-4b5f-9d29-53fdc8d6c0ca .axis.x .guides:hover .guide.line{opacity:1}#chart-b78356fa-9b23-4b5f-9d29-53fdc8d6c0ca .axis .guides:hover text{opacity:1}#chart-b78356fa-9b23-4b5f-9d29-53fdc8d6c0ca .nofill{fill:none}#chart-b78356fa-9b23-4b5f-9d29-53fdc8d6c0ca .subtle-fill{fill-opacity:.2}#chart-b78356fa-9b23-4b5f-9d29-53fdc8d6c0ca .dot{stroke-width:1px;fill-opacity:1;stroke-opacity:1}#chart-b78356fa-9b23-4b5f-9d29-53fdc8d6c0ca .dot.active{stroke-width:5px}#chart-b78356fa-9b23-4b5f-9d29-53fdc8d6c0ca .dot.negative{fill:transparent}#chart-b78356fa-9b23-4b5f-9d29-53fdc8d6c0ca text,#chart-b78356fa-9b23-4b5f-9d29-53fdc8d6c0ca tspan{stroke:none !important}#chart-b78356fa-9b23-4b5f-9d29-53fdc8d6c0ca .series text.active{opacity:1}#chart-b78356fa-9b23-4b5f-9d29-53fdc8d6c0ca .tooltip rect{fill-opacity:.95;stroke-width:.5}#chart-b78356fa-9b23-4b5f-9d29-53fdc8d6c0ca .tooltip text{fill-opacity:1}#chart-b78356fa-9b23-4b5f-9d29-53fdc8d6c0ca .showable{visibility:hidden}#chart-b78356fa-9b23-4b5f-9d29-53fdc8d6c0ca .showable.shown{visibility:visible}#chart-b78356fa-9b23-4b5f-9d29-53fdc8d6c0ca .gauge-background{fill:rgba(229,229,229,1);stroke:none}#chart-b78356fa-9b23-4b5f-9d29-53fdc8d6c0ca .bg-lines{stroke:rgba(249,249,249,1);stroke-width:2px}</style><script type="text/javascript">window.pygal = window.pygal || {};window.pygal.config = window.pygal.config || {};window.pygal.config['b78356fa-9b23-4b5f-9d29-53fdc8d6c0ca'] = {"allow_interruptions": false, "box_mode": "extremes", "classes": ["pygal-chart", "pygal-sparkline"], "css": ["file://style.css", "file://graph.css"], "defs": [], "disable_xml_declaration": false, "dots_size": 2.5, "dynamic_print_values": false, "explicit_size": true, "fill": false, "force_uri_protocol": "https", "formatter": null, "half_pie": false, "height": 50, "include_x_axis": false, "inner_radius": 0, "interpolate": "cubic", "interpolation_parameters": {}, "interpolation_precision": 250, "inverse_y_axis": false, "js": [], "legend_at_bottom": false, "legend_at_bottom_columns": null, "legend_box_size": 12, "logarithmic": false, "margin": 10, "margin_bottom": null, "margin_left": null, "margin_right": null, "margin_top": null, "max_scale": 2, "min_scale": 1, "missing_value_fill_truncation": "x", "no_data_text": "", "no_prefix": false, "order_min": null, "pretty_print": false, "print_labels": false, "print_values": false, "print_values_position": "center", "print_zeroes": true, "range": null, "rounded_bars": null, "secondary_range": null, "show_dots": false, "show_legend": false, "show_minor_x_labels": true, "show_minor_y_labels": true, "show_only_major_dots": false, "show_x_guides": false, "show_x_labels": false, "show_y_guides": true, "show_y_labels": true, "spacing": 0, "stack_from_top": false, "strict": false, "stroke": true, "stroke_style": null, "style": {"background": "rgba(249, 249, 249, 1)", "ci_colors": [], "colors": ["#F44336", "#3F51B5", "#009688", "#FFC107", "#FF5722", "#9C27B0", "#03A9F4", "#8BC34A", "#FF9800", "#E91E63", "#2196F3", "#4CAF50", "#FFEB3B", "#673AB7", "#00BCD4", "#CDDC39", "#9E9E9E", "#607D8B"], "dot_opacity": "1", "font_family": "Consolas, \"Liberation Mono\", Menlo, Courier, monospace", "foreground": "rgba(0, 0, 0, .87)", "foreground_strong": "rgba(0, 0, 0, 1)", "foreground_subtle": "rgba(0, 0, 0, .54)", "guide_stroke_color": "black", "guide_stroke_dasharray": "4,4", "label_font_family": "Consolas, \"Liberation Mono\", Menlo, Courier, monospace", "label_font_size": 10, "legend_font_family": "Consolas, \"Liberation Mono\", Menlo, Courier, monospace", "legend_font_size": 14, "major_guide_stroke_color": "black", "major_guide_stroke_dasharray": "6,6", "major_label_font_family": "Consolas, \"Liberation Mono\", Menlo, Courier, monospace", "major_label_font_size": 10, "no_data_font_family": "Consolas, \"Liberation Mono\", Menlo, Courier, monospace", "no_data_font_size": 64, "opacity": ".7", "opacity_hover": ".8", "plot_background": "rgba(255, 255, 255, 1)", "stroke_opacity": ".8", "stroke_opacity_hover": ".9", "stroke_width": "1", "stroke_width_hover": "4", "title_font_family": "Consolas, \"Liberation Mono\", Menlo, Courier, monospace", "title_font_size": 16, "tooltip_font_family": "Consolas, \"Liberation Mono\", Menlo, Courier, monospace", "tooltip_font_size": 14, "transition": "150ms", "value_background": "rgba(229, 229, 229, 1)", "value_colors": [], "value_font_family": "Consolas, \"Liberation Mono\", Menlo, Courier, monospace", "value_font_size": 16, "value_label_font_family": "Consolas, \"Liberation Mono\", Menlo, Courier, monospace", "value_label_font_size": 10}, "title": null, "tooltip_border_radius": 0, "tooltip_fancy_mode": true, "truncate_label": null, "truncate_legend": null, "width": 200, "x_label_rotation": 0, "x_labels": ["2024/9", "2024/8", "2024/7", "2024/6"], "x_labels_major": null, "x_labels_major_count": null, "x_labels_major_every": null, "x_title": null, "xrange": null, "y_label_rotation": 0, "y_labels": null, "y_labels_major": null, "y_labels_major_count": null, "y_labels_major_every": null, "y_title": null, "zero": 0, "legends": [""]}</script></defs><title>Pygal</title><g class="graph line-graph vertical"><rect x="0" y="0" width="200" height="50" class="background" /><g transform="translate(76, 10)" class="plot"><rect x="0" y="0" width="114.0" height="30" class="background" /><g class="axis y always_show"><path d="M0.000000 30.000000 h114.000000" class="line" /><g class="guides"><path d="M0.000000 29.423077 h114.000000" class="guide line" /><text x="-5" y="32.92307692307692" class="">4.984138739</text><title>4.984138739</title></g><g class="guides"><path d="M0.000000 0.576923 h114.000000" class="guide line" /><text x="-5" y="4.0769230769230695" class="">10</text><title>10</title></g></g><g class="series serie-0 color-0"><path d="M2.192308 23.580872 L2.338462 23.455118 2.484615 23.329369 2.630769 23.203632 2.776923 23.077910 2.923077 22.952211 3.069231 22.826538 3.215385 22.700899 3.361538 22.575297 3.507692 22.449739 3.653846 22.324231 3.800000 22.198776 3.946154 22.073382 4.092308 21.948053 4.238462 21.822794 4.384615 21.697612 4.530769 21.572512 4.676923 21.447499 4.823077 21.322578 4.969231 21.197756 5.115385 21.073037 5.261538 20.948426 5.407692 20.823931 5.553846 20.699555 5.700000 20.575304 5.846154 20.451185 5.992308 20.327201 6.138462 20.203359 6.284615 20.079664 6.430769 19.956122 6.576923 19.832737 6.723077 19.709516 6.869231 19.586464 7.015385 19.463586 7.161538 19.340888 7.307692 19.218375 7.453846 19.096053 7.600000 18.973927 7.746154 18.852003 7.892308 18.730285 8.038462 18.608780 8.184615 18.487493 8.330769 18.366429 8.476923 18.245594 8.623077 18.124993 8.769231 18.004632 8.915385 17.884516 9.061538 17.764650 9.207692 17.645041 9.353846 17.525693 9.500000 17.406612 9.646154 17.287803 9.792308 17.169272 9.938462 17.051025 10.084615 16.933066 10.230769 16.815401 10.376923 16.698036 10.523077 16.580976 10.669231 16.464227 10.815385 16.347793 10.961538 16.231681 11.107692 16.115895 11.253846 16.000442 11.400000 15.885327 11.546154 15.770555 11.692308 15.656131 11.838462 15.542062 11.984615 15.428352 12.130769 15.315007 12.276923 15.202032 12.423077 15.089433 12.569231 14.977216 12.715385 14.865385 12.861538 14.753947 13.007692 14.642906 13.153846 14.532269 13.300000 14.422039 13.446154 14.312224 13.592308 14.202829 13.738462 14.093858 13.884615 13.985317 14.030769 13.877213 14.176923 13.769549 14.323077 13.662333 14.469231 13.555568 14.615385 13.449261 14.761538 13.343417 14.907692 13.238042 15.053846 13.133140 15.200000 13.028718 15.346154 12.924780 15.492308 12.821333 15.638462 12.718382 15.784615 12.615931 15.930769 12.513988 16.076923 12.412556 16.223077 12.311642 16.369231 12.211251 16.515385 12.111388 16.661538 12.012059 16.807692 11.913269 16.953846 11.815024 17.100000 11.717329 17.246154 11.620190 17.392308 11.523612 17.538462 11.427600 17.684615 11.332161 17.830769 11.237299 17.976923 11.143019 18.123077 11.049328 18.269231 10.956231 18.415385 10.863733 18.561538 10.771840 18.707692 10.680556 18.853846 10.589889 19.000000 10.499842 19.146154 10.410422 19.292308 10.321633 19.438462 10.233482 19.584615 10.145974 19.730769 10.059114 19.876923 9.972908 20.023077 9.887360 20.169231 9.802478 20.315385 9.718265 20.461538 9.634728 20.607692 9.551872 20.753846 9.469702 20.900000 9.388224 21.046154 9.307443 21.192308 9.227365 21.338462 9.147995 21.484615 9.069338 21.630769 8.991401 21.776923 8.914188 21.923077 8.837705 22.069231 8.761958 22.215385 8.686951 22.361538 8.612691 22.507692 8.539182 22.653846 8.466431 22.800000 8.394442 22.946154 8.323221 23.092308 8.252774 23.238462 8.183106 23.384615 8.114222 23.530769 8.046128 23.676923 7.978829 23.823077 7.912332 23.969231 7.846640 24.115385 7.781760 24.261538 7.717697 24.407692 7.654456 24.553846 7.592044 24.700000 7.530465 24.846154 7.469725 24.992308 7.409829 25.138462 7.350783 25.284615 7.292593 25.430769 7.235263 25.576923 7.178799 25.723077 7.123206 25.869231 7.068491 26.015385 7.014658 26.161538 6.961713 26.307692 6.909662 26.453846 6.858509 26.600000 6.808260 26.746154 6.758922 26.892308 6.710498 27.038462 6.662995 27.184615 6.616418 27.330769 6.570772 27.476923 6.526064 27.623077 6.482298 27.769231 6.439479 27.915385 6.397614 28.061538 6.356708 28.207692 6.316766 28.353846 6.277793 28.500000 6.239796 28.646154 6.202779 28.792308 6.166748 28.938462 6.131709 29.084615 6.097666 29.230769 6.064625 29.376923 6.032593 29.523077 6.001573 29.669231 5.971573 29.815385 5.942596 29.961538 5.914649 30.107692 5.887737 30.253846 5.861865 30.400000 5.837039 30.546154 5.813265 30.692308 5.790547 30.838462 5.768892 30.984615 5.748304 31.130769 5.728789 31.276923 5.710353 31.423077 5.693001 31.569231 5.676739 31.715385 5.661571 31.861538 5.647504 32.007692 5.634542 32.153846 5.622692 32.300000 5.611958 32.446154 5.602347 32.592308 5.593863 32.738462 5.586513 32.884615 5.580300 33.030769 5.575232 33.176923 5.571313 33.323077 5.568549 33.469231 5.566945 33.615385 5.566507 33.761538 5.567240 33.907692 5.569150 34.053846 5.572242 34.200000 5.576521 34.346154 5.581993 34.492308 5.588664 34.638462 5.596539 34.784615 5.605623 34.930769 5.615921 35.076923 5.627440 35.223077 5.640185 35.369231 5.654160 35.515385 5.669372 35.661538 5.685826 35.807692 5.703528 35.953846 5.722482 36.100000 5.742695 36.246154 5.764172 36.392308 5.786917 36.538462 5.810938 36.684615 5.836239 36.830769 5.862825 36.976923 5.890702 37.123077 5.919875 37.269231 5.950351 37.415385 5.982134 37.561538 6.015230 37.707692 6.049644 37.853846 6.085381 38.000000 6.122448 38.146154 6.160850 38.292308 6.200591 38.438462 6.241678 38.584615 6.284116 38.730769 6.327910 38.876923 6.373064 39.023077 6.419567 39.169231 6.467408 39.315385 6.516577 39.461538 6.567059 39.607692 6.618845 39.753846 6.671922 39.900000 6.726278 40.046154 6.781902 40.192308 6.838782 40.338462 6.896906 40.484615 6.956262 40.630769 7.016838 40.776923 7.078624 40.923077 7.141606 41.069231 7.205773 41.215385 7.271114 41.361538 7.337617 41.507692 7.405269 41.653846 7.474059 41.800000 7.543976 41.946154 7.615007 42.092308 7.687140 42.238462 7.760365 42.384615 7.834669 42.530769 7.910040 42.676923 7.986467 42.823077 8.063938 42.969231 8.142440 43.115385 8.221963 43.261538 8.302495 43.407692 8.384023 43.553846 8.466536 43.700000 8.550023 43.846154 8.634470 43.992308 8.719867 44.138462 8.806203 44.284615 8.893464 44.430769 8.981639 44.576923 9.070717 44.723077 9.160686 44.869231 9.251533 45.015385 9.343248 45.161538 9.435818 45.307692 9.529232 45.453846 9.623477 45.600000 9.718543 45.746154 9.814417 45.892308 9.911087 46.038462 10.008542 46.184615 10.106770 46.330769 10.205759 46.476923 10.305498 46.623077 10.405974 46.769231 10.507176 46.915385 10.609092 47.061538 10.711710 47.207692 10.815019 47.353846 10.919006 47.500000 11.023660 47.646154 11.128970 47.792308 11.234923 47.938462 11.341507 48.084615 11.448711 48.230769 11.556524 48.376923 11.664932 48.523077 11.773925 48.669231 11.883491 48.815385 11.993618 48.961538 12.104294 49.107692 12.215507 49.253846 12.327246 49.400000 12.439499 49.546154 12.552253 49.692308 12.665498 49.838462 12.779222 49.984615 12.893412 50.130769 13.008057 50.276923 13.123145 50.423077 13.238665 50.569231 13.354604 50.715385 13.470951 50.861538 13.587694 51.007692 13.704821 51.153846 13.822321 51.300000 13.940181 51.446154 14.058391 51.592308 14.176937 51.738462 14.295809 51.884615 14.414994 52.030769 14.534482 52.176923 14.654259 52.323077 14.774315 52.469231 14.894637 52.615385 15.015213 52.761538 15.136033 52.907692 15.257084 53.053846 15.378354 53.200000 15.499832 53.346154 15.621506 53.492308 15.743363 53.638462 15.865393 53.784615 15.987583 53.930769 16.109922 54.076923 16.232398 54.223077 16.355000 54.369231 16.477714 54.515385 16.600530 54.661538 16.723436 54.807692 16.846420 54.953846 16.969470 55.100000 17.092575 55.246154 17.215722 55.392308 17.338900 55.538462 17.462098 55.684615 17.585302 55.830769 17.708503 55.976923 17.831687 56.123077 17.954843 56.269231 18.077959 56.415385 18.201024 56.561538 18.324026 56.707692 18.446952 56.853846 18.569792 57.000000 18.692533 57.146154 18.815163 57.292308 18.937672 57.438462 19.060046 57.584615 19.182275 57.730769 19.304346 57.876923 19.426248 58.023077 19.547968 58.169231 19.669496 58.315385 19.790819 58.461538 19.911926 58.607692 20.032805 58.753846 20.153443 58.900000 20.273830 59.046154 20.393953 59.192308 20.513801 59.338462 20.633362 59.484615 20.752624 59.630769 20.871576 59.776923 20.990205 59.923077 21.108499 60.069231 21.226448 60.215385 21.344039 60.361538 21.461261 60.507692 21.578101 60.653846 21.694548 60.800000 21.810590 60.946154 21.926216 61.092308 22.041413 61.238462 22.156170 61.384615 22.270475 61.530769 22.384316 61.676923 22.497682 61.823077 22.610560 61.969231 22.722939 62.115385 22.834808 62.261538 22.946153 62.407692 23.056965 62.553846 23.167230 62.700000 23.276937 62.846154 23.386074 62.992308 23.494630 63.138462 23.602593 63.284615 23.709950 63.430769 23.816691 63.576923 23.922803 63.723077 24.028274 63.869231 24.133093 64.015385 24.237248 64.161538 24.340728 64.307692 24.443520 64.453846 24.545613 64.600000 24.646994 64.746154 24.747653 64.892308 24.847577 65.038462 24.946754 65.184615 25.045174 65.330769 25.142823 65.476923 25.239691 65.623077 25.335765 65.769231 25.431033 65.915385 25.525485 66.061538 25.619108 66.207692 25.711890 66.353846 25.803820 66.500000 25.894885 66.646154 25.985075 66.792308 26.074376 66.938462 26.162778 67.084615 26.250269 67.230769 26.336837 67.376923 26.422470 67.523077 26.507156 67.669231 26.590884 67.815385 26.673641 67.961538 26.755417 68.107692 26.836199 68.253846 26.915975 68.400000 26.994734 68.546154 27.072463 68.692308 27.149152 68.838462 27.224789 68.984615 27.299360 69.130769 27.372856 69.276923 27.445264 69.423077 27.516571 69.569231 27.586768 69.715385 27.655841 69.861538 27.723778 70.007692 27.790569 70.153846 27.856202 70.300000 27.920664 70.446154 27.983943 70.592308 28.046029 70.738462 28.106909 70.884615 28.166571 71.030769 28.225004 71.176923 28.282196 71.323077 28.338135 71.469231 28.392809 71.615385 28.446207 71.761538 28.498317 71.907692 28.549126 72.053846 28.598624 72.200000 28.646798 72.346154 28.693637 72.492308 28.739129 72.638462 28.783262 72.784615 28.826025 72.930769 28.867405 73.076923 28.907390 73.223077 28.945970 73.369231 28.983132 73.515385 29.018864 73.661538 29.053155 73.807692 29.085993 73.953846 29.117366 74.100000 29.147262 74.246154 29.175670 74.392308 29.202578 74.538462 29.227973 74.684615 29.251845 74.830769 29.274181 74.976923 29.294970 75.123077 29.314200 75.269231 29.331859 75.415385 29.347938 75.561538 29.362441 75.707692 29.375374 75.853846 29.386743 76.000000 29.396555 76.146154 29.404816 76.292308 29.411532 76.438462 29.416710 76.584615 29.420356 76.730769 29.422476 76.876923 29.423077 77.023077 29.422165 77.169231 29.419746 77.315385 29.415826 77.461538 29.410413 77.607692 29.403512 77.753846 29.395129 77.900000 29.385272 78.046154 29.373945 78.192308 29.361157 78.338462 29.346912 78.484615 29.331218 78.630769 29.314080 78.776923 29.295505 78.923077 29.275499 79.069231 29.254069 79.215385 29.231221 79.361538 29.206961 79.507692 29.181296 79.653846 29.154232 79.800000 29.125775 79.946154 29.095931 80.092308 29.064707 80.238462 29.032110 80.384615 28.998145 80.530769 28.962819 80.676923 28.926139 80.823077 28.888110 80.969231 28.848738 81.115385 28.808031 81.261538 28.765995 81.407692 28.722636 81.553846 28.677959 81.700000 28.631972 81.846154 28.584682 81.992308 28.536093 82.138462 28.486213 82.284615 28.435047 82.430769 28.382603 82.576923 28.328887 82.723077 28.273904 82.869231 28.217662 83.015385 28.160166 83.161538 28.101423 83.307692 28.041439 83.453846 27.980220 83.600000 27.917774 83.746154 27.854105 83.892308 27.789221 84.038462 27.723128 84.184615 27.655833 84.330769 27.587340 84.476923 27.517658 84.623077 27.446791 84.769231 27.374747 84.915385 27.301532 85.061538 27.227153 85.207692 27.151614 85.353846 27.074923 85.500000 26.997087 85.646154 26.918111 85.792308 26.838002 85.938462 26.756766 86.084615 26.674409 86.230769 26.590939 86.376923 26.506360 86.523077 26.420680 86.669231 26.333904 86.815385 26.246040 86.961538 26.157093 87.107692 26.067070 87.253846 25.975977 87.400000 25.883821 87.546154 25.790607 87.692308 25.696343 87.838462 25.601033 87.984615 25.504686 88.130769 25.407307 88.276923 25.308902 88.423077 25.209478 88.569231 25.109041 88.715385 25.007597 88.861538 24.905153 89.007692 24.801716 89.153846 24.697290 89.300000 24.591884 89.446154 24.485502 89.592308 24.378152 89.738462 24.269840 89.884615 24.160571 90.030769 24.050353 90.176923 23.939192 90.323077 23.827094 90.469231 23.714065 90.615385 23.600112 90.761538 23.485241 90.907692 23.369459 91.053846 23.252771 91.200000 23.135184 91.346154 23.016705 91.492308 22.897339 91.638462 22.777093 91.784615 22.655974 91.930769 22.533987 92.076923 22.411139 92.223077 22.287437 92.369231 22.162887 92.515385 22.037494 92.661538 21.911266 92.807692 21.784208 92.953846 21.656328 93.100000 21.527630 93.246154 21.398123 93.392308 21.267811 93.538462 21.136702 93.684615 21.004802 93.830769 20.872116 93.976923 20.738652 94.123077 20.604415 94.269231 20.469413 94.415385 20.333651 94.561538 20.197135 94.707692 20.059872 94.853846 19.921869 95.000000 19.783132 95.146154 19.643666 95.292308 19.503478 95.438462 19.362576 95.584615 19.220964 95.730769 19.078649 95.876923 18.935639 96.023077 18.791938 96.169231 18.647553 96.315385 18.502491 96.461538 18.356758 96.607692 18.210360 96.753846 18.063304 96.900000 17.915596 97.046154 17.767242 97.192308 17.618248 97.338462 17.468622 97.484615 17.318369 97.630769 17.167495 97.776923 17.016007 97.923077 16.863912 98.069231 16.711215 98.215385 16.557923 98.361538 16.404043 98.507692 16.249580 98.653846 16.094540 98.800000 15.938931 98.946154 15.782759 99.092308 15.626030 99.238462 15.468749 99.384615 15.310925 99.530769 15.152562 99.676923 14.993667 99.823077 14.834247 99.969231 14.674308 100.115385 14.513856 100.261538 14.352898 100.407692 14.191439 100.553846 14.029487 100.700000 13.867047 100.846154 13.704126 100.992308 13.540731 101.138462 13.376867 101.284615 13.212540 101.430769 13.047758 101.576923 12.882527 101.723077 12.716852 101.869231 12.550740 102.015385 12.384198 102.161538 12.217232 102.307692 12.049848 102.453846 11.882053 102.600000 11.713852 102.746154 11.545252 102.892308 11.376260 103.038462 11.206882 103.184615 11.037124 103.330769 10.866993 103.476923 10.696494 103.623077 10.525634 103.769231 10.354420 103.915385 10.182858 104.061538 10.010954 104.207692 9.838714 104.353846 9.666145 104.500000 9.493254 104.646154 9.320045 104.792308 9.146527 104.938462 8.972705 105.084615 8.798585 105.230769 8.624174 105.376923 8.449478 105.523077 8.274503 105.669231 8.099256 105.815385 7.923744 105.961538 7.747972 106.107692 7.571946 106.253846 7.395674 106.400000 7.219161 106.546154 7.042414 106.692308 6.865439 106.838462 6.688242 106.984615 6.510831 107.130769 6.333210 107.276923 6.155386 107.423077 5.977367 107.569231 5.799157 107.715385 5.620764 107.861538 5.442194 108.007692 5.263453 108.153846 5.084547 108.300000 4.905483 108.446154 4.726267 108.592308 4.546905 108.738462 4.367404 108.884615 4.187770 109.030769 4.008010 109.176923 3.828129 109.323077 3.648134 109.469231 3.468032 109.615385 3.287828 109.761538 3.107529 109.907692 2.927142 110.053846 2.746673 110.200000 2.566127 110.346154 2.385512 110.492308 2.204833 110.638462 2.024098 110.784615 1.843312 110.930769 1.662482 111.076923 1.481613 111.223077 1.300713 111.369231 1.119788 111.515385 0.938843 111.661538 0.757886 111.807692 0.576923" class="line reactive nofill" /></g></g><g class="titles" /><g transform="translate(76, 10)" class="plot overlay"><g class="series serie-0 color-0" /></g><g transform="translate(76, 10)" class="plot text-overlay"><g class="series serie-0 color-0" /></g><g transform="translate(76, 10)" class="plot tooltip-overlay"><g transform="translate(0 0)" style="opacity: 0" class="tooltip"><rect rx="0" ry="0" width="0" height="0" class="tooltip-box" /><g class="text" /></g></g></g></svg>