<?xml version='1.0' encoding='utf-8'?>
<svg xmlns="http://www.w3.org/2000/svg" id="chart-fec8baf5-8f34-4a9e-bd51-637ac155791a" class="pygal-chart pygal-sparkline" viewBox="0 0 200 50" width="200" height="50"><!--Generated with pygal 3.0.5 (etree) ©Kozea 2012-2016 on 2024-12-15--><!--http://pygal.org--><!--http://github.com/Kozea/pygal--><defs><style type="text/css">#chart-fec8baf5-8f34-4a9e-bd51-637ac155791a{-webkit-user-select:none;-webkit-font-smoothing:antialiased;font-family:Consolas,"Liberation Mono",Menlo,Courier,monospace}#chart-fec8baf5-8f34-4a9e-bd51-637ac155791a .title{font-family:Consolas,"Liberation Mono",Menlo,Courier,monospace;font-size:16px}#chart-fec8baf5-8f34-4a9e-bd51-637ac155791a .legends .legend text{font-family:Consolas,"Liberation Mono",Menlo,Courier,monospace;font-size:14px}#chart-fec8baf5-8f34-4a9e-bd51-637ac155791a .axis text{font-family:Consolas,"Liberation Mono",Menlo,Courier,monospace;font-size:10px}#chart-fec8baf5-8f34-4a9e-bd51-637ac155791a .axis text.major{font-family:Consolas,"Liberation Mono",Menlo,Courier,monospace;font-size:10px}#chart-fec8baf5-8f34-4a9e-bd51-637ac155791a .text-overlay text.value{font-family:Consolas,"Liberation Mono",Menlo,Courier,monospace;font-size:16px}#chart-fec8baf5-8f34-4a9e-bd51-637ac155791a .text-overlay text.label{font-family:Consolas,"Liberation Mono",Menlo,Courier,monospace;font-size:10px}#chart-fec8baf5-8f34-4a9e-bd51-637ac155791a .tooltip{font-family:Consolas,"Liberation Mono",Menlo,Courier,monospace;font-size:14px}#chart-fec8baf5-8f34-4a9e-bd51-637ac155791a text.no_data{font-family:Consolas,"Liberation Mono",Menlo,Courier,monospace;font-size:64px}
#chart-fec8baf5-8f34-4a9e-bd51-637ac155791a{background-color:rgba(249,249,249,1)}#chart-fec8baf5-8f34-4a9e-bd51-637ac155791a path,#chart-fec8baf5-8f34-4a9e-bd51-637ac155791a line,#chart-fec8baf5-8f34-4a9e-bd51-637ac155791a rect,#chart-fec8baf5-8f34-4a9e-bd51-637ac155791a circle{-webkit-transition:150ms;-moz-transition:150ms;transition:150ms}#chart-fec8baf5-8f34-4a9e-bd51-637ac155791a .graph &gt; .background{fill:rgba(249,249,249,1)}#chart-fec8baf5-8f34-4a9e-bd51-637ac155791a .plot &gt; .background{fill:rgba(255,255,255,1)}#chart-fec8baf5-8f34-4a9e-bd51-637ac155791a .graph{fill:rgba(0,0,0,.87)}#chart-fec8baf5-8f34-4a9e-bd51-637ac155791a text.no_data{fill:rgba(0,0,0,1)}#chart-fec8baf5-8f34-4a9e-bd51-637ac155791a .title{fill:rgba(0,0,0,1)}#chart-fec8baf5-8f34-4a9e-bd51-637ac155791a .legends .legend text{fill:rgba(0,0,0,.87)}#chart-fec8baf5-8f34-4a9e-bd51-637ac155791a .legends .legend:hover text{fill:rgba(0,0,0,1)}#chart-fec8baf5-8f34-4a9e-bd51-637ac155791a .axis .line{stroke:rgba(0,0,0,1)}#chart-fec8baf5-8f34-4a9e-bd51-637ac155791a .axis .guide.line{stroke:rgba(0,0,0,.54)}#chart-fec8baf5-8f34-4a9e-bd51-637ac155791a .axis .major.line{stroke:rgba(0,0,0,.87)}#chart-fec8baf5-8f34-4a9e-bd51-637ac155791a .axis text.major{fill:rgba(0,0,0,1)}#chart-fec8baf5-8f34-4a9e-bd51-637ac155791a .axis.y .guides:hover .guide.line,#chart-fec8baf5-8f34-4a9e-bd51-637ac155791a .line-graph .axis.x .guides:hover .guide.line,#chart-fec8baf5-8f34-4a9e-bd51-637ac155791a .stackedline-graph .axis.x .guides:hover .guide.line,#chart-fec8baf5-8f34-4a9e-bd51-637ac155791a .xy-graph .axis.x .guides:hover .guide.line{stroke:rgba(0,0,0,1)}#chart-fec8baf5-8f34-4a9e-bd51-637ac155791a .axis .guides:hover text{fill:rgba(0,0,0,1)}#chart-fec8baf5-8f34-4a9e-bd51-637ac155791a .reactive{fill-opacity:.7;stroke-opacity:.8;stroke-width:1}#chart-fec8baf5-8f34-4a9e-bd51-637ac155791a .ci{stroke:rgba(0,0,0,.87)}#chart-fec8baf5-8f34-4a9e-bd51-637ac155791a .reactive.active,#chart-fec8baf5-8f34-4a9e-bd51-637ac155791a .active .reactive{fill-opacity:.8;stroke-opacity:.9;stroke-width:4}#chart-fec8baf5-8f34-4a9e-bd51-637ac155791a .ci .reactive.active{stroke-width:1.5}#chart-fec8baf5-8f34-4a9e-bd51-637ac155791a .series text{fill:rgba(0,0,0,1)}#chart-fec8baf5-8f34-4a9e-bd51-637ac155791a .tooltip rect{fill:rgba(255,255,255,1);stroke:rgba(0,0,0,1);-webkit-transition:opacity 150ms;-moz-transition:opacity 150ms;transition:opacity 150ms}#chart-fec8baf5-8f34-4a9e-bd51-637ac155791a .tooltip .label{fill:rgba(0,0,0,.87)}#chart-fec8baf5-8f34-4a9e-bd51-637ac155791a .tooltip .label{fill:rgba(0,0,0,.87)}#chart-fec8baf5-8f34-4a9e-bd51-637ac155791a .tooltip .legend{font-size:.8em;fill:rgba(0,0,0,.54)}#chart-fec8baf5-8f34-4a9e-bd51-637ac155791a .tooltip .x_label{font-size:.6em;fill:rgba(0,0,0,1)}#chart-fec8baf5-8f34-4a9e-bd51-637ac155791a .tooltip .xlink{font-size:.5em;text-decoration:underline}#chart-fec8baf5-8f34-4a9e-bd51-637ac155791a .tooltip .value{font-size:1.5em}#chart-fec8baf5-8f34-4a9e-bd51-637ac155791a .bound{font-size:.5em}#chart-fec8baf5-8f34-4a9e-bd51-637ac155791a .max-value{font-size:.75em;fill:rgba(0,0,0,.54)}#chart-fec8baf5-8f34-4a9e-bd51-637ac155791a .map-element{fill:rgba(255,255,255,1);stroke:rgba(0,0,0,.54) !important}#chart-fec8baf5-8f34-4a9e-bd51-637ac155791a .map-element .reactive{fill-opacity:inherit;stroke-opacity:inherit}#chart-fec8baf5-8f34-4a9e-bd51-637ac155791a .color-0,#chart-fec8baf5-8f34-4a9e-bd51-637ac155791a .color-0 a:visited{stroke:#F44336;fill:#F44336}#chart-fec8baf5-8f34-4a9e-bd51-637ac155791a .text-overlay .color-0 text{fill:black}
#chart-fec8baf5-8f34-4a9e-bd51-637ac155791a text.no_data{text-anchor:middle}#chart-fec8baf5-8f34-4a9e-bd51-637ac155791a .guide.line{fill:none}#chart-fec8baf5-8f34-4a9e-bd51-637ac155791a .centered{text-anchor:middle}#chart-fec8baf5-8f34-4a9e-bd51-637ac155791a .title{text-anchor:middle}#chart-fec8baf5-8f34-4a9e-bd51-637ac155791a .legends .legend text{fill-opacity:1}#chart-fec8baf5-8f34-4a9e-bd51-637ac155791a .axis.x text{text-anchor:middle}#chart-fec8baf5-8f34-4a9e-bd51-637ac155791a .axis.x:not(.web) text[transform]{text-anchor:start}#chart-fec8baf5-8f34-4a9e-bd51-637ac155791a .axis.x:not(.web) text[transform].backwards{text-anchor:end}#chart-fec8baf5-8f34-4a9e-bd51-637ac155791a .axis.y text{text-anchor:end}#chart-fec8baf5-8f34-4a9e-bd51-637ac155791a .axis.y text[transform].backwards{text-anchor:start}#chart-fec8baf5-8f34-4a9e-bd51-637ac155791a .axis.y2 text{text-anchor:start}#chart-fec8baf5-8f34-4a9e-bd51-637ac155791a .axis.y2 text[transform].backwards{text-anchor:end}#chart-fec8baf5-8f34-4a9e-bd51-637ac155791a .axis .guide.line{stroke-dasharray:4,4;stroke:black}#chart-fec8baf5-8f34-4a9e-bd51-637ac155791a .axis .major.guide.line{stroke-dasharray:6,6;stroke:black}#chart-fec8baf5-8f34-4a9e-bd51-637ac155791a .horizontal .axis.y .guide.line,#chart-fec8baf5-8f34-4a9e-bd51-637ac155791a .horizontal .axis.y2 .guide.line,#chart-fec8baf5-8f34-4a9e-bd51-637ac155791a .vertical .axis.x .guide.line{opacity:0}#chart-fec8baf5-8f34-4a9e-bd51-637ac155791a .horizontal .axis.always_show .guide.line,#chart-fec8baf5-8f34-4a9e-bd51-637ac155791a .vertical .axis.always_show .guide.line{opacity:1 !important}#chart-fec8baf5-8f34-4a9e-bd51-637ac155791a .axis.y .guides:hover .guide.line,#chart-fec8baf5-8f34-4a9e-bd51-637ac155791a .axis.y2 .guides:hover .guide.line,#chart-fec8baf5-8f34-4a9e-bd51-637ac155791a .axis.x .guides:hover .guide.line{opacity:1}#chart-fec8baf5-8f34-4a9e-bd51-637ac155791a .axis .guides:hover text{opacity:1}#chart-fec8baf5-8f34-4a9e-bd51-637ac155791a .nofill{fill:none}#chart-fec8baf5-8f34-4a9e-bd51-637ac155791a .subtle-fill{fill-opacity:.2}#chart-fec8baf5-8f34-4a9e-bd51-637ac155791a .dot{stroke-width:1px;fill-opacity:1;stroke-opacity:1}#chart-fec8baf5-8f34-4a9e-bd51-637ac155791a .dot.active{stroke-width:5px}#chart-fec8baf5-8f34-4a9e-bd51-637ac155791a .dot.negative{fill:transparent}#chart-fec8baf5-8f34-4a9e-bd51-637ac155791a text,#chart-fec8baf5-8f34-4a9e-bd51-637ac155791a tspan{stroke:none !important}#chart-fec8baf5-8f34-4a9e-bd51-637ac155791a .series text.active{opacity:1}#chart-fec8baf5-8f34-4a9e-bd51-637ac155791a .tooltip rect{fill-opacity:.95;stroke-width:.5}#chart-fec8baf5-8f34-4a9e-bd51-637ac155791a .tooltip text{fill-opacity:1}#chart-fec8baf5-8f34-4a9e-bd51-637ac155791a .showable{visibility:hidden}#chart-fec8baf5-8f34-4a9e-bd51-637ac155791a .showable.shown{visibility:visible}#chart-fec8baf5-8f34-4a9e-bd51-637ac155791a .gauge-background{fill:rgba(229,229,229,1);stroke:none}#chart-fec8baf5-8f34-4a9e-bd51-637ac155791a .bg-lines{stroke:rgba(249,249,249,1);stroke-width:2px}</style><script type="text/javascript">window.pygal = window.pygal || {};window.pygal.config = window.pygal.config || {};window.pygal.config['fec8baf5-8f34-4a9e-bd51-637ac155791a'] = {"allow_interruptions": false, "box_mode": "extremes", "classes": ["pygal-chart", "pygal-sparkline"], "css": ["file://style.css", "file://graph.css"], "defs": [], "disable_xml_declaration": false, "dots_size": 2.5, "dynamic_print_values": false, "explicit_size": true, "fill": false, "force_uri_protocol": "https", "formatter": null, "half_pie": false, "height": 50, "include_x_axis": false, "inner_radius": 0, "interpolate": "cubic", "interpolation_parameters": {}, "interpolation_precision": 250, "inverse_y_axis": false, "js": [], "legend_at_bottom": false, "legend_at_bottom_columns": null, "legend_box_size": 12, "logarithmic": false, "margin": 10, "margin_bottom": null, "margin_left": null, "margin_right": null, "margin_top": null, "max_scale": 2, "min_scale": 1, "missing_value_fill_truncation": "x", "no_data_text": "", "no_prefix": false, "order_min": null, "pretty_print": false, "print_labels": false, "print_values": false, "print_values_position": "center", "print_zeroes": true, "range": null, "rounded_bars": null, "secondary_range": null, "show_dots": false, "show_legend": false, "show_minor_x_labels": true, "show_minor_y_labels": true, "show_only_major_dots": false, "show_x_guides": false, "show_x_labels": false, "show_y_guides": true, "show_y_labels": true, "spacing": 0, "stack_from_top": false, "strict": false, "stroke": true, "stroke_style": null, "style": {"background": "rgba(249, 249, 249, 1)", "ci_colors": [], "colors": ["#F44336", "#3F51B5", "#009688", "#FFC107", "#FF5722", "#9C27B0", "#03A9F4", "#8BC34A", "#FF9800", "#E91E63", "#2196F3", "#4CAF50", "#FFEB3B", "#673AB7", "#00BCD4", "#CDDC39", "#9E9E9E", "#607D8B"], "dot_opacity": "1", "font_family": "Consolas, \"Liberation Mono\", Menlo, Courier, monospace", "foreground": "rgba(0, 0, 0, .87)", "foreground_strong": "rgba(0, 0, 0, 1)", "foreground_subtle": "rgba(0, 0, 0, .54)", "guide_stroke_color": "black", "guide_stroke_dasharray": "4,4", "label_font_family": "Consolas, \"Liberation Mono\", Menlo, Courier, monospace", "label_font_size": 10, "legend_font_family": "Consolas, \"Liberation Mono\", Menlo, Courier, monospace", "legend_font_size": 14, "major_guide_stroke_color": "black", "major_guide_stroke_dasharray": "6,6", "major_label_font_family": "Consolas, \"Liberation Mono\", Menlo, Courier, monospace", "major_label_font_size": 10, "no_data_font_family": "Consolas, \"Liberation Mono\", Menlo, Courier, monospace", "no_data_font_size": 64, "opacity": ".7", "opacity_hover": ".8", "plot_background": "rgba(255, 255, 255, 1)", "stroke_opacity": ".8", "stroke_opacity_hover": ".9", "stroke_width": "1", "stroke_width_hover": "4", "title_font_family": "Consolas, \"Liberation Mono\", Menlo, Courier, monospace", "title_font_size": 16, "tooltip_font_family": "Consolas, \"Liberation Mono\", Menlo, Courier, monospace", "tooltip_font_size": 14, "transition": "150ms", "value_background": "rgba(229, 229, 229, 1)", "value_colors": [], "value_font_family": "Consolas, \"Liberation Mono\", Menlo, Courier, monospace", "value_font_size": 16, "value_label_font_family": "Consolas, \"Liberation Mono\", Menlo, Courier, monospace", "value_label_font_size": 10}, "title": null, "tooltip_border_radius": 0, "tooltip_fancy_mode": true, "truncate_label": null, "truncate_legend": null, "width": 200, "x_label_rotation": 0, "x_labels": ["2024/12", "2024/11", "2024/10", "2024/9", "2024/8"], "x_labels_major": null, "x_labels_major_count": null, "x_labels_major_every": null, "x_title": null, "xrange": null, "y_label_rotation": 0, "y_labels": null, "y_labels_major": null, "y_labels_major_count": null, "y_labels_major_every": null, "y_title": null, "zero": 0, "legends": [""]}</script></defs><title>Pygal</title><g class="graph line-graph vertical"><rect x="0" y="0" width="200" height="50" class="background" /><g transform="translate(70, 10)" class="plot"><rect x="0" y="0" width="120.0" height="30" class="background" /><g class="axis y always_show"><path d="M0.000000 30.000000 h120.000000" class="line" /><g class="guides"><path d="M0.000000 29.423077 h120.000000" class="guide line" /><text x="-5" y="32.92307692307692" class="">1</text><title>1</title></g><g class="guides"><path d="M0.000000 0.576923 h120.000000" class="guide line" /><text x="-5" y="4.076923076923077" class="">10.3260462</text><title>10.3260462</title></g></g><g class="series serie-0 color-0"><path d="M2.307692 26.330003 L2.423077 26.199873 2.538462 26.069747 2.653846 25.939626 2.769231 25.809514 2.884615 25.679415 3.000000 25.549330 3.115385 25.419263 3.230769 25.289217 3.346154 25.159195 3.461538 25.029201 3.576923 24.899235 3.692308 24.769303 3.807692 24.639407 3.923077 24.509550 4.038462 24.379734 4.153846 24.249963 4.269231 24.120240 4.384615 23.990568 4.500000 23.860950 4.615385 23.731389 4.730769 23.601887 4.846154 23.472449 4.961538 23.343076 5.076923 23.213772 5.192308 23.084539 5.307692 22.955382 5.423077 22.826302 5.538462 22.697303 5.653846 22.568387 5.769231 22.439559 5.884615 22.310820 6.000000 22.182173 6.115385 22.053623 6.230769 21.925171 6.346154 21.796821 6.461538 21.668575 6.576923 21.540437 6.692308 21.412410 6.807692 21.284497 6.923077 21.156700 7.038462 21.029022 7.153846 20.901468 7.269231 20.774039 7.384615 20.646738 7.500000 20.519569 7.615385 20.392535 7.730769 20.265638 7.846154 20.138882 7.961538 20.012269 8.076923 19.885803 8.192308 19.759487 8.307692 19.633323 8.423077 19.507314 8.538462 19.381464 8.653846 19.255775 8.769231 19.130251 8.884615 19.004895 9.000000 18.879709 9.115385 18.754696 9.230769 18.629860 9.346154 18.505203 9.461538 18.380728 9.576923 18.256439 9.692308 18.132339 9.807692 18.008430 9.923077 17.884715 10.038462 17.761197 10.153846 17.637880 10.269231 17.514767 10.384615 17.391859 10.500000 17.269161 10.615385 17.146676 10.730769 17.024405 10.846154 16.902353 10.961538 16.780522 11.076923 16.658916 11.192308 16.537537 11.307692 16.416388 11.423077 16.295472 11.538462 16.174793 11.653846 16.054353 11.769231 15.934155 11.884615 15.814202 12.000000 15.694498 12.115385 15.575044 12.230769 15.455845 12.346154 15.336903 12.461538 15.218222 12.576923 15.099803 12.692308 14.981651 12.807692 14.863768 12.923077 14.746157 13.038462 14.628821 13.153846 14.511763 13.269231 14.394986 13.384615 14.278494 13.500000 14.162288 13.615385 14.046373 13.730769 13.930750 13.846154 13.815424 13.961538 13.700397 14.076923 13.585672 14.192308 13.471251 14.307692 13.357139 14.423077 13.243338 14.538462 13.129851 14.653846 13.016681 14.769231 12.903831 14.884615 12.791304 15.000000 12.679103 15.115385 12.567231 15.230769 12.455690 15.346154 12.344485 15.461538 12.233618 15.576923 12.123091 15.692308 12.012909 15.807692 11.903073 15.923077 11.793587 16.038462 11.684455 16.153846 11.575678 16.269231 11.467260 16.384615 11.359203 16.500000 11.251512 16.615385 11.144188 16.730769 11.037236 16.846154 10.930657 16.961538 10.824455 17.076923 10.718632 17.192308 10.613193 17.307692 10.508139 17.423077 10.403474 17.538462 10.299201 17.653846 10.195323 17.769231 10.091842 17.884615 9.988762 18.000000 9.886086 18.115385 9.783816 18.230769 9.681957 18.346154 9.580510 18.461538 9.479478 18.576923 9.378865 18.692308 9.278674 18.807692 9.178908 18.923077 9.079569 19.038462 8.980661 19.153846 8.882187 19.269231 8.784149 19.384615 8.686551 19.500000 8.589395 19.615385 8.492685 19.730769 8.396424 19.846154 8.300614 19.961538 8.205258 20.076923 8.110361 20.192308 8.015923 20.307692 7.921950 20.423077 7.828443 20.538462 7.735405 20.653846 7.642840 20.769231 7.550750 20.884615 7.459139 21.000000 7.368009 21.115385 7.277364 21.230769 7.187207 21.346154 7.097539 21.461538 7.008365 21.576923 6.919688 21.692308 6.831510 21.807692 6.743835 21.923077 6.656664 22.038462 6.570003 22.153846 6.483852 22.269231 6.398216 22.384615 6.313098 22.500000 6.228499 22.615385 6.144424 22.730769 6.060876 22.846154 5.977857 22.961538 5.895370 23.076923 5.813418 23.192308 5.732005 23.307692 5.651133 23.423077 5.570805 23.538462 5.491025 23.653846 5.411794 23.769231 5.333117 23.884615 5.254997 24.000000 5.177435 24.115385 5.100436 24.230769 5.024002 24.346154 4.948136 24.461538 4.872841 24.576923 4.798121 24.692308 4.723978 24.807692 4.650415 24.923077 4.577435 25.038462 4.505041 25.153846 4.433236 25.269231 4.362024 25.384615 4.291406 25.500000 4.221387 25.615385 4.151969 25.730769 4.083155 25.846154 4.014948 25.961538 3.947351 26.076923 3.880367 26.192308 3.813999 26.307692 3.748250 26.423077 3.683124 26.538462 3.618622 26.653846 3.554748 26.769231 3.491506 26.884615 3.428897 27.000000 3.366925 27.115385 3.305594 27.230769 3.244905 27.346154 3.184862 27.461538 3.125468 27.576923 3.066726 27.692308 3.008640 27.807692 2.951210 27.923077 2.894442 28.038462 2.838338 28.153846 2.782901 28.269231 2.728133 28.384615 2.674039 28.500000 2.620620 28.615385 2.567880 28.730769 2.515822 28.846154 2.464449 28.961538 2.413764 29.076923 2.363770 29.192308 2.314469 29.307692 2.265865 29.423077 2.217961 29.538462 2.170760 29.653846 2.124264 29.769231 2.078477 29.884615 2.033402 30.000000 1.989042 30.115385 1.945400 30.230769 1.902478 30.346154 1.860280 30.461538 1.818808 30.576923 1.778067 30.692308 1.738058 30.807692 1.698784 30.923077 1.660250 31.038462 1.622457 31.153846 1.585408 31.269231 1.549106 31.384615 1.513548 31.500000 1.478728 31.615385 1.444644 31.730769 1.411290 31.846154 1.378662 31.961538 1.346757 32.076923 1.315569 32.192308 1.285094 32.307692 1.255329 32.423077 1.226269 32.538462 1.197910 32.653846 1.170247 32.769231 1.143277 32.884615 1.116994 33.000000 1.091395 33.115385 1.066476 33.230769 1.042232 33.346154 1.018658 33.461538 0.995752 33.576923 0.973507 33.692308 0.951921 33.807692 0.930989 33.923077 0.910706 34.038462 0.891068 34.153846 0.872072 34.269231 0.853712 34.384615 0.835985 34.500000 0.818886 34.615385 0.802411 34.730769 0.786556 34.846154 0.771317 34.961538 0.756688 35.076923 0.742667 35.192308 0.729248 35.307692 0.716428 35.423077 0.704202 35.538462 0.692566 35.653846 0.681515 35.769231 0.671046 35.884615 0.661154 36.000000 0.651835 36.115385 0.643084 36.230769 0.634898 36.346154 0.627271 36.461538 0.620201 36.576923 0.613682 36.692308 0.607710 36.807692 0.602282 36.923077 0.597392 37.038462 0.593037 37.153846 0.589211 37.269231 0.585912 37.384615 0.583135 37.500000 0.580874 37.615385 0.579128 37.730769 0.577889 37.846154 0.577156 37.961538 0.576923 38.076923 0.577186 38.192308 0.577941 38.307692 0.579184 38.423077 0.580910 38.538462 0.583114 38.653846 0.585794 38.769231 0.588944 38.884615 0.592561 39.000000 0.596640 39.115385 0.601176 39.230769 0.606166 39.346154 0.611605 39.461538 0.617489 39.576923 0.623813 39.692308 0.630574 39.807692 0.637768 39.923077 0.645389 40.038462 0.653434 40.153846 0.661898 40.269231 0.670777 40.384615 0.680067 40.500000 0.689764 40.615385 0.699863 40.730769 0.710360 40.846154 0.721251 40.961538 0.732531 41.076923 0.744197 41.192308 0.756244 41.307692 0.768667 41.423077 0.781463 41.538462 0.794628 41.653846 0.808156 41.769231 0.822044 41.884615 0.836287 42.000000 0.850881 42.115385 0.865823 42.230769 0.881107 42.346154 0.896729 42.461538 0.912685 42.576923 0.928972 42.692308 0.945584 42.807692 0.962517 42.923077 0.979767 43.038462 0.997330 43.153846 1.015202 43.269231 1.033378 43.384615 1.051854 43.500000 1.070626 43.615385 1.089689 43.730769 1.109039 43.846154 1.128672 43.961538 1.148585 44.076923 1.168771 44.192308 1.189228 44.307692 1.209950 44.423077 1.230934 44.538462 1.252176 44.653846 1.273671 44.769231 1.295414 44.884615 1.317402 45.000000 1.339631 45.115385 1.362095 45.230769 1.384792 45.346154 1.407715 45.461538 1.430863 45.576923 1.454229 45.692308 1.477810 45.807692 1.501601 45.923077 1.525599 46.038462 1.549798 46.153846 1.574195 46.269231 1.598786 46.384615 1.623566 46.500000 1.648531 46.615385 1.673676 46.730769 1.698998 46.846154 1.724492 46.961538 1.750153 47.076923 1.775979 47.192308 1.801963 47.307692 1.828103 47.423077 1.854394 47.538462 1.880831 47.653846 1.907410 47.769231 1.934127 47.884615 1.960979 48.000000 1.987959 48.115385 2.015065 48.230769 2.042292 48.346154 2.069635 48.461538 2.097091 48.576923 2.124655 48.692308 2.152323 48.807692 2.180091 48.923077 2.207954 49.038462 2.235908 49.153846 2.263949 49.269231 2.292072 49.384615 2.320274 49.500000 2.348550 49.615385 2.376896 49.730769 2.405307 49.846154 2.433780 49.961538 2.462309 50.076923 2.490892 50.192308 2.519522 50.307692 2.548197 50.423077 2.576912 50.538462 2.605663 50.653846 2.634445 50.769231 2.663254 50.884615 2.692087 51.000000 2.720937 51.115385 2.749803 51.230769 2.778678 51.346154 2.807559 51.461538 2.836442 51.576923 2.865322 51.692308 2.894195 51.807692 2.923057 51.923077 2.951904 52.038462 2.980730 52.153846 3.009533 52.269231 3.038308 52.384615 3.067050 52.500000 3.095755 52.615385 3.124419 52.730769 3.153038 52.846154 3.181608 52.961538 3.210123 53.076923 3.238580 53.192308 3.266975 53.307692 3.295304 53.423077 3.323561 53.538462 3.351744 53.653846 3.379847 53.769231 3.407866 53.884615 3.435798 54.000000 3.463637 54.115385 3.491380 54.230769 3.519022 54.346154 3.546559 54.461538 3.573986 54.576923 3.601301 54.692308 3.628497 54.807692 3.655571 54.923077 3.682520 55.038462 3.709337 55.153846 3.736020 55.269231 3.762564 55.384615 3.788964 55.500000 3.815217 55.615385 3.841317 55.730769 3.867262 55.846154 3.893046 55.961538 3.918666 56.076923 3.944116 56.192308 3.969394 56.307692 3.994494 56.423077 4.019412 56.538462 4.044144 56.653846 4.068686 56.769231 4.093034 56.884615 4.117182 57.000000 4.141128 57.115385 4.164866 57.230769 4.188393 57.346154 4.211704 57.461538 4.234795 57.576923 4.257662 57.692308 4.280300 57.807692 4.302705 57.923077 4.324872 58.038462 4.346799 58.153846 4.368480 58.269231 4.389911 58.384615 4.411087 58.500000 4.432005 58.615385 4.452661 58.730769 4.473049 58.846154 4.493167 58.961538 4.513008 59.076923 4.532570 59.192308 4.551848 59.307692 4.570838 59.423077 4.589535 59.538462 4.607935 59.653846 4.626034 59.769231 4.643828 59.884615 4.661312 60.000000 4.678483 60.115385 4.695336 60.230769 4.711875 60.346154 4.728102 60.461538 4.744021 60.576923 4.759636 60.692308 4.774949 60.807692 4.789964 60.923077 4.804685 61.038462 4.819115 61.153846 4.833256 61.269231 4.847114 61.384615 4.860690 61.500000 4.873989 61.615385 4.887013 61.730769 4.899767 61.846154 4.912253 61.961538 4.924474 62.076923 4.936435 62.192308 4.948139 62.307692 4.959588 62.423077 4.970787 62.538462 4.981738 62.653846 4.992446 62.769231 5.002912 62.884615 5.013142 63.000000 5.023138 63.115385 5.032903 63.230769 5.042441 63.346154 5.051756 63.461538 5.060850 63.576923 5.069727 63.692308 5.078391 63.807692 5.086844 63.923077 5.095091 64.038462 5.103134 64.153846 5.110977 64.269231 5.118623 64.384615 5.126076 64.500000 5.133338 64.615385 5.140415 64.730769 5.147308 64.846154 5.154021 64.961538 5.160557 65.076923 5.166921 65.192308 5.173114 65.307692 5.179141 65.423077 5.185006 65.538462 5.190710 65.653846 5.196259 65.769231 5.201654 65.884615 5.206900 66.000000 5.212000 66.115385 5.216957 66.230769 5.221774 66.346154 5.226456 66.461538 5.231004 66.576923 5.235424 66.692308 5.239718 66.807692 5.243889 66.923077 5.247940 67.038462 5.251877 67.153846 5.255700 67.269231 5.259415 67.384615 5.263024 67.500000 5.266530 67.615385 5.269938 67.730769 5.273250 67.846154 5.276470 67.961538 5.279601 68.076923 5.282647 68.192308 5.285610 68.307692 5.288495 68.423077 5.291304 68.538462 5.294042 68.653846 5.296711 68.769231 5.299314 68.884615 5.301856 69.000000 5.304340 69.115385 5.306768 69.230769 5.309144 69.346154 5.311473 69.461538 5.313756 69.576923 5.315997 69.692308 5.318201 69.807692 5.320369 69.923077 5.322506 70.038462 5.324615 70.153846 5.326699 70.269231 5.328762 70.384615 5.330807 70.500000 5.332837 70.615385 5.334855 70.730769 5.336866 70.846154 5.338873 70.961538 5.340878 71.076923 5.342886 71.192308 5.344899 71.307692 5.346921 71.423077 5.348955 71.538462 5.351005 71.653846 5.353074 71.769231 5.355166 71.884615 5.357284 72.000000 5.359430 72.115385 5.361610 72.230769 5.363825 72.346154 5.366079 72.461538 5.368377 72.576923 5.370720 72.692308 5.373113 72.807692 5.375558 72.923077 5.378060 73.038462 5.380621 73.153846 5.383246 73.269231 5.385936 73.384615 5.388696 73.500000 5.391530 73.615385 5.394439 73.730769 5.397429 73.846154 5.400501 73.961538 5.403661 74.076923 5.406910 74.192308 5.410252 74.307692 5.413691 74.423077 5.417230 74.538462 5.420873 74.653846 5.424622 74.769231 5.428481 74.884615 5.432454 75.000000 5.436544 75.115385 5.440754 75.230769 5.445087 75.346154 5.449548 75.461538 5.454139 75.576923 5.458864 75.692308 5.463726 75.807692 5.468728 75.923077 5.473874 76.038462 5.479168 76.153846 5.484612 76.269231 5.490210 76.384615 5.495965 76.500000 5.501882 76.615385 5.507962 76.730769 5.514210 76.846154 5.520628 76.961538 5.527221 77.076923 5.533991 77.192308 5.540943 77.307692 5.548078 77.423077 5.555402 77.538462 5.562916 77.653846 5.570625 77.769231 5.578532 77.884615 5.586640 78.000000 5.594952 78.115385 5.603473 78.230769 5.612204 78.346154 5.621151 78.461538 5.630315 78.576923 5.639701 78.692308 5.649312 78.807692 5.659151 78.923077 5.669221 79.038462 5.679526 79.153846 5.690070 79.269231 5.700855 79.384615 5.711886 79.500000 5.723164 79.615385 5.734695 79.730769 5.746481 79.846154 5.758525 79.961538 5.770831 80.076923 5.783402 80.192308 5.796242 80.307692 5.809354 80.423077 5.822742 80.538462 5.836408 80.653846 5.850356 80.769231 5.864590 80.884615 5.879113 81.000000 5.893927 81.115385 5.909038 81.230769 5.924448 81.346154 5.940159 81.461538 5.956177 81.576923 5.972504 81.692308 5.989143 81.807692 6.006098 81.923077 6.023372 82.038462 6.040969 82.153846 6.058892 82.269231 6.077144 82.384615 6.095729 82.500000 6.114650 82.615385 6.133911 82.730769 6.153514 82.846154 6.173464 82.961538 6.193763 83.076923 6.214415 83.192308 6.235423 83.307692 6.256791 83.423077 6.278522 83.538462 6.300620 83.653846 6.323087 83.769231 6.345928 83.884615 6.369145 84.000000 6.392742 84.115385 6.416722 84.230769 6.441089 84.346154 6.465847 84.461538 6.490997 84.576923 6.516544 84.692308 6.542492 84.807692 6.568843 84.923077 6.595601 85.038462 6.622769 85.153846 6.650351 85.269231 6.678349 85.384615 6.706769 85.500000 6.735612 85.615385 6.764882 85.730769 6.794582 85.846154 6.824717 85.961538 6.855289 86.076923 6.886301 86.192308 6.917758 86.307692 6.949661 86.423077 6.982016 86.538462 7.014825 86.653846 7.048091 86.769231 7.081818 86.884615 7.116009 87.000000 7.150668 87.115385 7.185798 87.230769 7.221402 87.346154 7.257484 87.461538 7.294047 87.576923 7.331095 87.692308 7.368630 87.807692 7.406657 87.923077 7.445178 88.038462 7.484197 88.153846 7.523717 88.269231 7.563742 88.384615 7.604276 88.500000 7.645320 88.615385 7.686880 88.730769 7.728958 88.846154 7.771557 88.961538 7.814680 89.076923 7.858326 89.192308 7.902493 89.307692 7.947179 89.423077 7.992381 89.538462 8.038097 89.653846 8.084326 89.769231 8.131065 89.884615 8.178312 90.000000 8.226066 90.115385 8.274323 90.230769 8.323082 90.346154 8.372341 90.461538 8.422097 90.576923 8.472349 90.692308 8.523094 90.807692 8.574331 90.923077 8.626057 91.038462 8.678270 91.153846 8.730968 91.269231 8.784149 91.384615 8.837811 91.500000 8.891952 91.615385 8.946570 91.730769 9.001661 91.846154 9.057226 91.961538 9.113260 92.076923 9.169763 92.192308 9.226732 92.307692 9.284166 92.423077 9.342061 92.538462 9.400416 92.653846 9.459228 92.769231 9.518497 92.884615 9.578218 93.000000 9.638392 93.115385 9.699014 93.230769 9.760084 93.346154 9.821599 93.461538 9.883557 93.576923 9.945956 93.692308 10.008794 93.807692 10.072069 93.923077 10.135778 94.038462 10.199920 94.153846 10.264492 94.269231 10.329493 94.384615 10.394920 94.500000 10.460771 94.615385 10.527044 94.730769 10.593737 94.846154 10.660848 94.961538 10.728375 95.076923 10.796315 95.192308 10.864667 95.307692 10.933428 95.423077 11.002597 95.538462 11.072171 95.653846 11.142148 95.769231 11.212526 95.884615 11.283303 96.000000 11.354477 96.115385 11.426046 96.230769 11.498007 96.346154 11.570359 96.461538 11.643099 96.576923 11.716226 96.692308 11.789737 96.807692 11.863630 96.923077 11.937903 97.038462 12.012554 97.153846 12.087581 97.269231 12.162982 97.384615 12.238754 97.500000 12.314896 97.615385 12.391406 97.730769 12.468280 97.846154 12.545519 97.961538 12.623118 98.076923 12.701076 98.192308 12.779391 98.307692 12.858061 98.423077 12.937084 98.538462 13.016457 98.653846 13.096180 98.769231 13.176248 98.884615 13.256661 99.000000 13.337416 99.115385 13.418511 99.230769 13.499945 99.346154 13.581714 99.461538 13.663817 99.576923 13.746252 99.692308 13.829017 99.807692 13.912109 99.923077 13.995526 100.038462 14.079267 100.153846 14.163329 100.269231 14.247711 100.384615 14.332409 100.500000 14.417423 100.615385 14.502749 100.730769 14.588386 100.846154 14.674332 100.961538 14.760584 101.076923 14.847141 101.192308 14.934000 101.307692 15.021159 101.423077 15.108617 101.538462 15.196370 101.653846 15.284418 101.769231 15.372757 101.884615 15.461387 102.000000 15.550303 102.115385 15.639506 102.230769 15.728992 102.346154 15.818759 102.461538 15.908805 102.576923 15.999129 102.692308 16.089728 102.807692 16.180600 102.923077 16.271742 103.038462 16.363154 103.153846 16.454832 103.269231 16.546774 103.384615 16.638979 103.500000 16.731445 103.615385 16.824169 103.730769 16.917148 103.846154 17.010382 103.961538 17.103868 104.076923 17.197604 104.192308 17.291588 104.307692 17.385817 104.423077 17.480290 104.538462 17.575004 104.653846 17.669958 104.769231 17.765149 104.884615 17.860575 105.000000 17.956234 105.115385 18.052124 105.230769 18.148243 105.346154 18.244589 105.461538 18.341159 105.576923 18.437952 105.692308 18.534966 105.807692 18.632198 105.923077 18.729646 106.038462 18.827308 106.153846 18.925183 106.269231 19.023267 106.384615 19.121559 106.500000 19.220057 106.615385 19.318759 106.730769 19.417662 106.846154 19.516765 106.961538 19.616065 107.076923 19.715561 107.192308 19.815249 107.307692 19.915129 107.423077 20.015198 107.538462 20.115453 107.653846 20.215894 107.769231 20.316517 107.884615 20.417320 108.000000 20.518302 108.115385 20.619461 108.230769 20.720793 108.346154 20.822298 108.461538 20.923973 108.576923 21.025816 108.692308 21.127825 108.807692 21.229998 108.923077 21.332332 109.038462 21.434826 109.153846 21.537477 109.269231 21.640284 109.384615 21.743244 109.500000 21.846355 109.615385 21.949616 109.730769 22.053023 109.846154 22.156575 109.961538 22.260270 110.076923 22.364106 110.192308 22.468080 110.307692 22.572190 110.423077 22.676436 110.538462 22.780813 110.653846 22.885320 110.769231 22.989956 110.884615 23.094718 111.000000 23.199603 111.115385 23.304610 111.230769 23.409737 111.346154 23.514982 111.461538 23.620342 111.576923 23.725815 111.692308 23.831400 111.807692 23.937094 111.923077 24.042895 112.038462 24.148801 112.153846 24.254810 112.269231 24.360920 112.384615 24.467128 112.500000 24.573433 112.615385 24.679832 112.730769 24.786324 112.846154 24.892906 112.961538 24.999577 113.076923 25.106333 113.192308 25.213173 113.307692 25.320096 113.423077 25.427098 113.538462 25.534177 113.653846 25.641333 113.769231 25.748562 113.884615 25.855862 114.000000 25.963231 114.115385 26.070668 114.230769 26.178170 114.346154 26.285735 114.461538 26.393360 114.576923 26.501045 114.692308 26.608786 114.807692 26.716582 114.923077 26.824430 115.038462 26.932329 115.153846 27.040276 115.269231 27.148269 115.384615 27.256306 115.500000 27.364385 115.615385 27.472504 115.730769 27.580661 115.846154 27.688854 115.961538 27.797080 116.076923 27.905338 116.192308 28.013625 116.307692 28.121939 116.423077 28.230279 116.538462 28.338642 116.653846 28.447025 116.769231 28.555428 116.884615 28.663847 117.000000 28.772281 117.115385 28.880728 117.230769 28.989185 117.346154 29.097651 117.461538 29.206123 117.576923 29.314599 117.692308 29.423077" class="line reactive nofill" /></g></g><g class="titles" /><g transform="translate(70, 10)" class="plot overlay"><g class="series serie-0 color-0" /></g><g transform="translate(70, 10)" class="plot text-overlay"><g class="series serie-0 color-0" /></g><g transform="translate(70, 10)" class="plot tooltip-overlay"><g transform="translate(0 0)" style="opacity: 0" class="tooltip"><rect rx="0" ry="0" width="0" height="0" class="tooltip-box" /><g class="text" /></g></g></g></svg>