<?xml version='1.0' encoding='utf-8'?>
<svg xmlns="http://www.w3.org/2000/svg" id="chart-53a3ec63-0cc0-40fd-880f-b83756dcce3f" class="pygal-chart pygal-sparkline" viewBox="0 0 200 50" width="200" height="50"><!--Generated with pygal 3.0.4 (etree) ©Kozea 2012-2016 on 2024-07-21--><!--http://pygal.org--><!--http://github.com/Kozea/pygal--><defs><style type="text/css">#chart-53a3ec63-0cc0-40fd-880f-b83756dcce3f{-webkit-user-select:none;-webkit-font-smoothing:antialiased;font-family:Consolas,"Liberation Mono",Menlo,Courier,monospace}#chart-53a3ec63-0cc0-40fd-880f-b83756dcce3f .title{font-family:Consolas,"Liberation Mono",Menlo,Courier,monospace;font-size:16px}#chart-53a3ec63-0cc0-40fd-880f-b83756dcce3f .legends .legend text{font-family:Consolas,"Liberation Mono",Menlo,Courier,monospace;font-size:14px}#chart-53a3ec63-0cc0-40fd-880f-b83756dcce3f .axis text{font-family:Consolas,"Liberation Mono",Menlo,Courier,monospace;font-size:10px}#chart-53a3ec63-0cc0-40fd-880f-b83756dcce3f .axis text.major{font-family:Consolas,"Liberation Mono",Menlo,Courier,monospace;font-size:10px}#chart-53a3ec63-0cc0-40fd-880f-b83756dcce3f .text-overlay text.value{font-family:Consolas,"Liberation Mono",Menlo,Courier,monospace;font-size:16px}#chart-53a3ec63-0cc0-40fd-880f-b83756dcce3f .text-overlay text.label{font-family:Consolas,"Liberation Mono",Menlo,Courier,monospace;font-size:10px}#chart-53a3ec63-0cc0-40fd-880f-b83756dcce3f .tooltip{font-family:Consolas,"Liberation Mono",Menlo,Courier,monospace;font-size:14px}#chart-53a3ec63-0cc0-40fd-880f-b83756dcce3f text.no_data{font-family:Consolas,"Liberation Mono",Menlo,Courier,monospace;font-size:64px}
#chart-53a3ec63-0cc0-40fd-880f-b83756dcce3f{background-color:rgba(249,249,249,1)}#chart-53a3ec63-0cc0-40fd-880f-b83756dcce3f path,#chart-53a3ec63-0cc0-40fd-880f-b83756dcce3f line,#chart-53a3ec63-0cc0-40fd-880f-b83756dcce3f rect,#chart-53a3ec63-0cc0-40fd-880f-b83756dcce3f circle{-webkit-transition:150ms;-moz-transition:150ms;transition:150ms}#chart-53a3ec63-0cc0-40fd-880f-b83756dcce3f .graph &gt; .background{fill:rgba(249,249,249,1)}#chart-53a3ec63-0cc0-40fd-880f-b83756dcce3f .plot &gt; .background{fill:rgba(255,255,255,1)}#chart-53a3ec63-0cc0-40fd-880f-b83756dcce3f .graph{fill:rgba(0,0,0,.87)}#chart-53a3ec63-0cc0-40fd-880f-b83756dcce3f text.no_data{fill:rgba(0,0,0,1)}#chart-53a3ec63-0cc0-40fd-880f-b83756dcce3f .title{fill:rgba(0,0,0,1)}#chart-53a3ec63-0cc0-40fd-880f-b83756dcce3f .legends .legend text{fill:rgba(0,0,0,.87)}#chart-53a3ec63-0cc0-40fd-880f-b83756dcce3f .legends .legend:hover text{fill:rgba(0,0,0,1)}#chart-53a3ec63-0cc0-40fd-880f-b83756dcce3f .axis .line{stroke:rgba(0,0,0,1)}#chart-53a3ec63-0cc0-40fd-880f-b83756dcce3f .axis .guide.line{stroke:rgba(0,0,0,.54)}#chart-53a3ec63-0cc0-40fd-880f-b83756dcce3f .axis .major.line{stroke:rgba(0,0,0,.87)}#chart-53a3ec63-0cc0-40fd-880f-b83756dcce3f .axis text.major{fill:rgba(0,0,0,1)}#chart-53a3ec63-0cc0-40fd-880f-b83756dcce3f .axis.y .guides:hover .guide.line,#chart-53a3ec63-0cc0-40fd-880f-b83756dcce3f .line-graph .axis.x .guides:hover .guide.line,#chart-53a3ec63-0cc0-40fd-880f-b83756dcce3f .stackedline-graph .axis.x .guides:hover .guide.line,#chart-53a3ec63-0cc0-40fd-880f-b83756dcce3f .xy-graph .axis.x .guides:hover .guide.line{stroke:rgba(0,0,0,1)}#chart-53a3ec63-0cc0-40fd-880f-b83756dcce3f .axis .guides:hover text{fill:rgba(0,0,0,1)}#chart-53a3ec63-0cc0-40fd-880f-b83756dcce3f .reactive{fill-opacity:.7;stroke-opacity:.8;stroke-width:1}#chart-53a3ec63-0cc0-40fd-880f-b83756dcce3f .ci{stroke:rgba(0,0,0,.87)}#chart-53a3ec63-0cc0-40fd-880f-b83756dcce3f .reactive.active,#chart-53a3ec63-0cc0-40fd-880f-b83756dcce3f .active .reactive{fill-opacity:.8;stroke-opacity:.9;stroke-width:4}#chart-53a3ec63-0cc0-40fd-880f-b83756dcce3f .ci .reactive.active{stroke-width:1.5}#chart-53a3ec63-0cc0-40fd-880f-b83756dcce3f .series text{fill:rgba(0,0,0,1)}#chart-53a3ec63-0cc0-40fd-880f-b83756dcce3f .tooltip rect{fill:rgba(255,255,255,1);stroke:rgba(0,0,0,1);-webkit-transition:opacity 150ms;-moz-transition:opacity 150ms;transition:opacity 150ms}#chart-53a3ec63-0cc0-40fd-880f-b83756dcce3f .tooltip .label{fill:rgba(0,0,0,.87)}#chart-53a3ec63-0cc0-40fd-880f-b83756dcce3f .tooltip .label{fill:rgba(0,0,0,.87)}#chart-53a3ec63-0cc0-40fd-880f-b83756dcce3f .tooltip .legend{font-size:.8em;fill:rgba(0,0,0,.54)}#chart-53a3ec63-0cc0-40fd-880f-b83756dcce3f .tooltip .x_label{font-size:.6em;fill:rgba(0,0,0,1)}#chart-53a3ec63-0cc0-40fd-880f-b83756dcce3f .tooltip .xlink{font-size:.5em;text-decoration:underline}#chart-53a3ec63-0cc0-40fd-880f-b83756dcce3f .tooltip .value{font-size:1.5em}#chart-53a3ec63-0cc0-40fd-880f-b83756dcce3f .bound{font-size:.5em}#chart-53a3ec63-0cc0-40fd-880f-b83756dcce3f .max-value{font-size:.75em;fill:rgba(0,0,0,.54)}#chart-53a3ec63-0cc0-40fd-880f-b83756dcce3f .map-element{fill:rgba(255,255,255,1);stroke:rgba(0,0,0,.54) !important}#chart-53a3ec63-0cc0-40fd-880f-b83756dcce3f .map-element .reactive{fill-opacity:inherit;stroke-opacity:inherit}#chart-53a3ec63-0cc0-40fd-880f-b83756dcce3f .color-0,#chart-53a3ec63-0cc0-40fd-880f-b83756dcce3f .color-0 a:visited{stroke:#F44336;fill:#F44336}#chart-53a3ec63-0cc0-40fd-880f-b83756dcce3f .text-overlay .color-0 text{fill:black}
#chart-53a3ec63-0cc0-40fd-880f-b83756dcce3f text.no_data{text-anchor:middle}#chart-53a3ec63-0cc0-40fd-880f-b83756dcce3f .guide.line{fill:none}#chart-53a3ec63-0cc0-40fd-880f-b83756dcce3f .centered{text-anchor:middle}#chart-53a3ec63-0cc0-40fd-880f-b83756dcce3f .title{text-anchor:middle}#chart-53a3ec63-0cc0-40fd-880f-b83756dcce3f .legends .legend text{fill-opacity:1}#chart-53a3ec63-0cc0-40fd-880f-b83756dcce3f .axis.x text{text-anchor:middle}#chart-53a3ec63-0cc0-40fd-880f-b83756dcce3f .axis.x:not(.web) text[transform]{text-anchor:start}#chart-53a3ec63-0cc0-40fd-880f-b83756dcce3f .axis.x:not(.web) text[transform].backwards{text-anchor:end}#chart-53a3ec63-0cc0-40fd-880f-b83756dcce3f .axis.y text{text-anchor:end}#chart-53a3ec63-0cc0-40fd-880f-b83756dcce3f .axis.y text[transform].backwards{text-anchor:start}#chart-53a3ec63-0cc0-40fd-880f-b83756dcce3f .axis.y2 text{text-anchor:start}#chart-53a3ec63-0cc0-40fd-880f-b83756dcce3f .axis.y2 text[transform].backwards{text-anchor:end}#chart-53a3ec63-0cc0-40fd-880f-b83756dcce3f .axis .guide.line{stroke-dasharray:4,4;stroke:black}#chart-53a3ec63-0cc0-40fd-880f-b83756dcce3f .axis .major.guide.line{stroke-dasharray:6,6;stroke:black}#chart-53a3ec63-0cc0-40fd-880f-b83756dcce3f .horizontal .axis.y .guide.line,#chart-53a3ec63-0cc0-40fd-880f-b83756dcce3f .horizontal .axis.y2 .guide.line,#chart-53a3ec63-0cc0-40fd-880f-b83756dcce3f .vertical .axis.x .guide.line{opacity:0}#chart-53a3ec63-0cc0-40fd-880f-b83756dcce3f .horizontal .axis.always_show .guide.line,#chart-53a3ec63-0cc0-40fd-880f-b83756dcce3f .vertical .axis.always_show .guide.line{opacity:1 !important}#chart-53a3ec63-0cc0-40fd-880f-b83756dcce3f .axis.y .guides:hover .guide.line,#chart-53a3ec63-0cc0-40fd-880f-b83756dcce3f .axis.y2 .guides:hover .guide.line,#chart-53a3ec63-0cc0-40fd-880f-b83756dcce3f .axis.x .guides:hover .guide.line{opacity:1}#chart-53a3ec63-0cc0-40fd-880f-b83756dcce3f .axis .guides:hover text{opacity:1}#chart-53a3ec63-0cc0-40fd-880f-b83756dcce3f .nofill{fill:none}#chart-53a3ec63-0cc0-40fd-880f-b83756dcce3f .subtle-fill{fill-opacity:.2}#chart-53a3ec63-0cc0-40fd-880f-b83756dcce3f .dot{stroke-width:1px;fill-opacity:1;stroke-opacity:1}#chart-53a3ec63-0cc0-40fd-880f-b83756dcce3f .dot.active{stroke-width:5px}#chart-53a3ec63-0cc0-40fd-880f-b83756dcce3f .dot.negative{fill:transparent}#chart-53a3ec63-0cc0-40fd-880f-b83756dcce3f text,#chart-53a3ec63-0cc0-40fd-880f-b83756dcce3f tspan{stroke:none !important}#chart-53a3ec63-0cc0-40fd-880f-b83756dcce3f .series text.active{opacity:1}#chart-53a3ec63-0cc0-40fd-880f-b83756dcce3f .tooltip rect{fill-opacity:.95;stroke-width:.5}#chart-53a3ec63-0cc0-40fd-880f-b83756dcce3f .tooltip text{fill-opacity:1}#chart-53a3ec63-0cc0-40fd-880f-b83756dcce3f .showable{visibility:hidden}#chart-53a3ec63-0cc0-40fd-880f-b83756dcce3f .showable.shown{visibility:visible}#chart-53a3ec63-0cc0-40fd-880f-b83756dcce3f .gauge-background{fill:rgba(229,229,229,1);stroke:none}#chart-53a3ec63-0cc0-40fd-880f-b83756dcce3f .bg-lines{stroke:rgba(249,249,249,1);stroke-width:2px}</style><script type="text/javascript">window.pygal = window.pygal || {};window.pygal.config = window.pygal.config || {};window.pygal.config['53a3ec63-0cc0-40fd-880f-b83756dcce3f'] = {"allow_interruptions": false, "box_mode": "extremes", "classes": ["pygal-chart", "pygal-sparkline"], "css": ["file://style.css", "file://graph.css"], "defs": [], "disable_xml_declaration": false, "dots_size": 2.5, "dynamic_print_values": false, "explicit_size": true, "fill": false, "force_uri_protocol": "https", "formatter": null, "half_pie": false, "height": 50, "include_x_axis": false, "inner_radius": 0, "interpolate": "cubic", "interpolation_parameters": {}, "interpolation_precision": 250, "inverse_y_axis": false, "js": [], "legend_at_bottom": false, "legend_at_bottom_columns": null, "legend_box_size": 12, "logarithmic": false, "margin": 10, "margin_bottom": null, "margin_left": null, "margin_right": null, "margin_top": null, "max_scale": 2, "min_scale": 1, "missing_value_fill_truncation": "x", "no_data_text": "", "no_prefix": false, "order_min": null, "pretty_print": false, "print_labels": false, "print_values": false, "print_values_position": "center", "print_zeroes": true, "range": null, "rounded_bars": null, "secondary_range": null, "show_dots": false, "show_legend": false, "show_minor_x_labels": true, "show_minor_y_labels": true, "show_only_major_dots": false, "show_x_guides": false, "show_x_labels": false, "show_y_guides": true, "show_y_labels": true, "spacing": 0, "stack_from_top": false, "strict": false, "stroke": true, "stroke_style": null, "style": {"background": "rgba(249, 249, 249, 1)", "ci_colors": [], "colors": ["#F44336", "#3F51B5", "#009688", "#FFC107", "#FF5722", "#9C27B0", "#03A9F4", "#8BC34A", "#FF9800", "#E91E63", "#2196F3", "#4CAF50", "#FFEB3B", "#673AB7", "#00BCD4", "#CDDC39", "#9E9E9E", "#607D8B"], "dot_opacity": "1", "font_family": "Consolas, \"Liberation Mono\", Menlo, Courier, monospace", "foreground": "rgba(0, 0, 0, .87)", "foreground_strong": "rgba(0, 0, 0, 1)", "foreground_subtle": "rgba(0, 0, 0, .54)", "guide_stroke_color": "black", "guide_stroke_dasharray": "4,4", "label_font_family": "Consolas, \"Liberation Mono\", Menlo, Courier, monospace", "label_font_size": 10, "legend_font_family": "Consolas, \"Liberation Mono\", Menlo, Courier, monospace", "legend_font_size": 14, "major_guide_stroke_color": "black", "major_guide_stroke_dasharray": "6,6", "major_label_font_family": "Consolas, \"Liberation Mono\", Menlo, Courier, monospace", "major_label_font_size": 10, "no_data_font_family": "Consolas, \"Liberation Mono\", Menlo, Courier, monospace", "no_data_font_size": 64, "opacity": ".7", "opacity_hover": ".8", "plot_background": "rgba(255, 255, 255, 1)", "stroke_opacity": ".8", "stroke_opacity_hover": ".9", "stroke_width": "1", "stroke_width_hover": "4", "title_font_family": "Consolas, \"Liberation Mono\", Menlo, Courier, monospace", "title_font_size": 16, "tooltip_font_family": "Consolas, \"Liberation Mono\", Menlo, Courier, monospace", "tooltip_font_size": 14, "transition": "150ms", "value_background": "rgba(229, 229, 229, 1)", "value_colors": [], "value_font_family": "Consolas, \"Liberation Mono\", Menlo, Courier, monospace", "value_font_size": 16, "value_label_font_family": "Consolas, \"Liberation Mono\", Menlo, Courier, monospace", "value_label_font_size": 10}, "title": null, "tooltip_border_radius": 0, "tooltip_fancy_mode": true, "truncate_label": null, "truncate_legend": null, "width": 200, "x_label_rotation": 0, "x_labels": ["2024/7", "2024/6", "2024/5", "2024/3", "2023/11", "2023/9"], "x_labels_major": null, "x_labels_major_count": null, "x_labels_major_every": null, "x_title": null, "xrange": null, "y_label_rotation": 0, "y_labels": null, "y_labels_major": null, "y_labels_major_count": null, "y_labels_major_every": null, "y_title": null, "zero": 0, "legends": [""]}</script></defs><title>Pygal</title><g class="graph line-graph vertical"><rect x="0" y="0" width="200" height="50" class="background" /><g transform="translate(76, 10)" class="plot"><rect x="0" y="0" width="114.0" height="30" class="background" /><g class="axis y always_show"><path d="M0.000000 30.000000 h114.000000" class="line" /><g class="guides"><path d="M0.000000 29.423077 h114.000000" class="guide line" /><text x="-5" y="32.92307692307692" class="">1.413523897</text><title>1.413523897</title></g><g class="guides"><path d="M0.000000 0.576923 h114.000000" class="guide line" /><text x="-5" y="4.07692307692308" class="">10.44633558</text><title>10.44633558</title></g></g><g class="series serie-0 color-0"><path d="M2.192308 11.582746 L2.280000 11.498158 2.367692 11.413574 2.455385 11.328999 2.543077 11.244437 2.630769 11.159893 2.718462 11.075371 2.806154 10.990876 2.893846 10.906412 2.981538 10.821983 3.069231 10.737595 3.156923 10.653251 3.244615 10.568955 3.332308 10.484713 3.420000 10.400529 3.507692 10.316407 3.595385 10.232352 3.683077 10.148367 3.770769 10.064458 3.858462 9.980629 3.946154 9.896885 4.033846 9.813229 4.121538 9.729667 4.209231 9.646202 4.296923 9.562840 4.384615 9.479584 4.472308 9.396439 4.560000 9.313409 4.647692 9.230500 4.735385 9.147715 4.823077 9.065058 4.910769 8.982535 4.998462 8.900150 5.086154 8.817907 5.173846 8.735810 5.261538 8.653865 5.349231 8.572074 5.436923 8.490444 5.524615 8.408978 5.612308 8.327681 5.700000 8.246557 5.787692 8.165611 5.875385 8.084847 5.963077 8.004269 6.050769 7.923882 6.138462 7.843691 6.226154 7.763700 6.313846 7.683913 6.401538 7.604335 6.489231 7.524970 6.576923 7.445822 6.664615 7.366897 6.752308 7.288198 6.840000 7.209730 6.927692 7.131498 7.015385 7.053505 7.103077 6.975757 7.190769 6.898258 7.278462 6.821011 7.366154 6.744023 7.453846 6.667296 7.541538 6.590836 7.629231 6.514646 7.716923 6.438733 7.804615 6.363099 7.892308 6.287749 7.980000 6.212688 8.067692 6.137920 8.155385 6.063450 8.243077 5.989281 8.330769 5.915419 8.418462 5.841869 8.506154 5.768633 8.593846 5.695717 8.681538 5.623126 8.769231 5.550863 8.856923 5.478933 8.944615 5.407341 9.032308 5.336091 9.120000 5.265187 9.207692 5.194635 9.295385 5.124437 9.383077 5.054600 9.470769 4.985126 9.558462 4.916021 9.646154 4.847290 9.733846 4.778935 9.821538 4.710963 9.909231 4.643378 9.996923 4.576183 10.084615 4.509383 10.172308 4.442983 10.260000 4.376988 10.347692 4.311401 10.435385 4.246227 10.523077 4.181470 10.610769 4.117136 10.698462 4.053228 10.786154 3.989751 10.873846 3.926709 10.961538 3.864107 11.049231 3.801949 11.136923 3.740239 11.224615 3.678983 11.312308 3.618184 11.400000 3.557847 11.487692 3.497977 11.575385 3.438577 11.663077 3.379652 11.750769 3.321207 11.838462 3.263247 11.926154 3.205775 12.013846 3.148796 12.101538 3.092314 12.189231 3.036334 12.276923 2.980861 12.364615 2.925899 12.452308 2.871451 12.540000 2.817524 12.627692 2.764120 12.715385 2.711245 12.803077 2.658903 12.890769 2.607099 12.978462 2.555836 13.066154 2.505120 13.153846 2.454954 13.241538 2.405344 13.329231 2.356293 13.416923 2.307807 13.504615 2.259889 13.592308 2.212544 13.680000 2.165776 13.767692 2.119590 13.855385 2.073991 13.943077 2.028982 14.030769 1.984568 14.118462 1.940755 14.206154 1.897545 14.293846 1.854943 14.381538 1.812955 14.469231 1.771584 14.556923 1.730835 14.644615 1.690712 14.732308 1.651220 14.820000 1.612362 14.907692 1.574145 14.995385 1.536572 15.083077 1.499647 15.170769 1.463375 15.258462 1.427760 15.346154 1.392807 15.433846 1.358521 15.521538 1.324905 15.609231 1.291964 15.696923 1.259703 15.784615 1.228126 15.872308 1.197237 15.960000 1.167041 16.047692 1.137543 16.135385 1.108746 16.223077 1.080656 16.310769 1.053276 16.398462 1.026611 16.486154 1.000666 16.573846 0.975445 16.661538 0.950952 16.749231 0.927192 16.836923 0.904170 16.924615 0.881889 17.012308 0.860355 17.100000 0.839571 17.187692 0.819542 17.275385 0.800272 17.363077 0.781767 17.450769 0.764030 17.538462 0.747066 17.626154 0.730879 17.713846 0.715474 17.801538 0.700855 17.889231 0.687027 17.976923 0.673994 18.064615 0.661760 18.152308 0.650330 18.240000 0.639709 18.327692 0.629900 18.415385 0.620909 18.503077 0.612740 18.590769 0.605396 18.678462 0.598883 18.766154 0.593206 18.853846 0.588367 18.941538 0.584373 19.029231 0.581227 19.116923 0.578933 19.204615 0.577497 19.292308 0.576923 19.380000 0.577215 19.467692 0.578377 19.555385 0.580415 19.643077 0.583331 19.730769 0.587132 19.818462 0.591821 19.906154 0.597403 19.993846 0.603882 20.081538 0.611263 20.169231 0.619549 20.256923 0.628747 20.344615 0.638859 20.432308 0.649891 20.520000 0.661846 20.607692 0.674730 20.695385 0.688547 20.783077 0.703301 20.870769 0.718996 20.958462 0.735638 21.046154 0.753230 21.133846 0.771777 21.221538 0.791283 21.309231 0.811754 21.396923 0.833192 21.484615 0.855603 21.572308 0.878992 21.660000 0.903362 21.747692 0.928718 21.835385 0.955065 21.923077 0.982406 22.010769 1.010747 22.098462 1.040092 22.186154 1.070445 22.273846 1.101810 22.361538 1.134193 22.449231 1.167598 22.536923 1.202028 22.624615 1.237489 22.712308 1.273985 22.800000 1.311520 22.887692 1.350099 22.975385 1.389726 23.063077 1.430406 23.150769 1.472143 23.238462 1.514941 23.326154 1.558806 23.413846 1.603741 23.501538 1.649751 23.589231 1.696840 23.676923 1.745013 23.764615 1.794274 23.852308 1.844628 23.940000 1.896079 24.027692 1.948631 24.115385 2.002289 24.203077 2.057056 24.290769 2.112924 24.378462 2.169886 24.466154 2.227931 24.553846 2.287052 24.641538 2.347240 24.729231 2.408486 24.816923 2.470781 24.904615 2.534118 24.992308 2.598486 25.080000 2.663877 25.167692 2.730282 25.255385 2.797694 25.343077 2.866103 25.430769 2.935500 25.518462 3.005876 25.606154 3.077224 25.693846 3.149533 25.781538 3.222796 25.869231 3.297004 25.956923 3.372148 26.044615 3.448219 26.132308 3.525209 26.220000 3.603109 26.307692 3.681910 26.395385 3.761603 26.483077 3.842180 26.570769 3.923632 26.658462 4.005951 26.746154 4.089127 26.833846 4.173151 26.921538 4.258016 27.009231 4.343712 27.096923 4.430231 27.184615 4.517564 27.272308 4.605703 27.360000 4.694637 27.447692 4.784360 27.535385 4.874861 27.623077 4.966133 27.710769 5.058167 27.798462 5.150954 27.886154 5.244484 27.973846 5.338751 28.061538 5.433744 28.149231 5.529455 28.236923 5.625875 28.324615 5.722996 28.412308 5.820809 28.500000 5.919306 28.587692 6.018476 28.675385 6.118313 28.763077 6.218806 28.850769 6.319948 28.938462 6.421729 29.026154 6.524141 29.113846 6.627176 29.201538 6.730823 29.289231 6.835076 29.376923 6.939924 29.464615 7.045360 29.552308 7.151374 29.640000 7.257958 29.727692 7.365104 29.815385 7.472801 29.903077 7.581043 29.990769 7.689819 30.078462 7.799121 30.166154 7.908942 30.253846 8.019270 30.341538 8.130099 30.429231 8.241420 30.516923 8.353223 30.604615 8.465499 30.692308 8.578241 30.780000 8.691440 30.867692 8.805086 30.955385 8.919172 31.043077 9.033687 31.130769 9.148625 31.218462 9.263975 31.306154 9.379729 31.393846 9.495879 31.481538 9.612416 31.569231 9.729330 31.656923 9.846614 31.744615 9.964259 31.832308 10.082255 31.920000 10.200595 32.007692 10.319268 32.095385 10.438268 32.183077 10.557585 32.270769 10.677209 32.358462 10.797134 32.446154 10.917349 32.533846 11.037846 32.621538 11.158617 32.709231 11.279652 32.796923 11.400944 32.884615 11.522482 32.972308 11.644259 33.060000 11.766266 33.147692 11.888494 33.235385 12.010935 33.323077 12.133578 33.410769 12.256417 33.498462 12.379442 33.586154 12.502645 33.673846 12.626016 33.761538 12.749548 33.849231 12.873230 33.936923 12.997055 34.024615 13.121015 34.112308 13.245099 34.200000 13.369300 34.287692 13.493608 34.375385 13.618016 34.463077 13.742513 34.550769 13.867093 34.638462 13.991745 34.726154 14.116461 34.813846 14.241233 34.901538 14.366051 34.989231 14.490908 35.076923 14.615793 35.164615 14.740700 35.252308 14.865618 35.340000 14.990539 35.427692 15.115454 35.515385 15.240355 35.603077 15.365233 35.690769 15.490080 35.778462 15.614885 35.866154 15.739642 35.953846 15.864341 36.041538 15.988973 36.129231 16.113529 36.216923 16.238002 36.304615 16.362382 36.392308 16.486660 36.480000 16.610828 36.567692 16.734877 36.655385 16.858798 36.743077 16.982583 36.830769 17.106223 36.918462 17.229709 37.006154 17.353032 37.093846 17.476184 37.181538 17.599156 37.269231 17.721939 37.356923 17.844525 37.444615 17.966905 37.532308 18.089070 37.620000 18.211011 37.707692 18.332720 37.795385 18.454188 37.883077 18.575406 37.970769 18.696366 38.058462 18.817058 38.146154 18.937475 38.233846 19.057607 38.321538 19.177446 38.409231 19.296982 38.496923 19.416208 38.584615 19.535114 38.672308 19.653692 38.760000 19.771933 38.847692 19.889829 38.935385 20.007370 39.023077 20.124548 39.110769 20.241354 39.198462 20.357779 39.286154 20.473816 39.373846 20.589454 39.461538 20.704685 39.549231 20.819502 39.636923 20.933894 39.724615 21.047853 39.812308 21.161371 39.900000 21.274438 39.987692 21.387046 40.075385 21.499187 40.163077 21.610851 40.250769 21.722030 40.338462 21.832715 40.426154 21.942898 40.513846 22.052569 40.601538 22.161720 40.689231 22.270343 40.776923 22.378427 40.864615 22.485966 40.952308 22.592950 41.040000 22.699370 41.127692 22.805218 41.215385 22.910484 41.303077 23.015161 41.390769 23.119240 41.478462 23.222711 41.566154 23.325566 41.653846 23.427797 41.741538 23.529394 41.829231 23.630349 41.916923 23.730653 42.004615 23.830298 42.092308 23.929274 42.180000 24.027573 42.267692 24.125187 42.355385 24.222106 42.443077 24.318322 42.530769 24.413827 42.618462 24.508610 42.706154 24.602665 42.793846 24.695981 42.881538 24.788551 42.969231 24.880365 43.056923 24.971415 43.144615 25.061692 43.232308 25.151187 43.320000 25.239892 43.407692 25.327798 43.495385 25.414897 43.583077 25.501179 43.670769 25.586635 43.758462 25.671258 43.846154 25.755038 43.933846 25.837966 44.021538 25.920035 44.109231 26.001235 44.196923 26.081557 44.284615 26.160993 44.372308 26.239534 44.460000 26.317171 44.547692 26.393896 44.635385 26.469700 44.723077 26.544574 44.810769 26.618509 44.898462 26.691498 44.986154 26.763530 45.073846 26.834597 45.161538 26.904691 45.249231 26.973803 45.336923 27.041924 45.424615 27.109045 45.512308 27.175158 45.600000 27.240254 45.687692 27.304325 45.775385 27.367360 45.863077 27.429353 45.950769 27.490294 46.038462 27.550174 46.126154 27.608987 46.213846 27.666737 46.301538 27.723429 46.389231 27.779070 46.476923 27.833665 46.564615 27.887220 46.652308 27.939741 46.740000 27.991234 46.827692 28.041705 46.915385 28.091160 47.003077 28.139605 47.090769 28.187045 47.178462 28.233487 47.266154 28.278937 47.353846 28.323399 47.441538 28.366882 47.529231 28.409389 47.616923 28.450927 47.704615 28.491503 47.792308 28.531121 47.880000 28.569788 47.967692 28.607510 48.055385 28.644292 48.143077 28.680141 48.230769 28.715063 48.318462 28.749063 48.406154 28.782147 48.493846 28.814321 48.581538 28.845592 48.669231 28.875964 48.756923 28.905444 48.844615 28.934038 48.932308 28.961752 49.020000 28.988592 49.107692 29.014563 49.195385 29.039671 49.283077 29.063923 49.370769 29.087325 49.458462 29.109881 49.546154 29.131598 49.633846 29.152483 49.721538 29.172540 49.809231 29.191776 49.896923 29.210197 49.984615 29.227809 50.072308 29.244617 50.160000 29.260627 50.247692 29.275846 50.335385 29.290279 50.423077 29.303932 50.510769 29.316812 50.598462 29.328923 50.686154 29.340272 50.773846 29.350865 50.861538 29.360708 50.949231 29.369807 51.036923 29.378167 51.124615 29.385794 51.212308 29.392695 51.300000 29.398875 51.387692 29.404340 51.475385 29.409096 51.563077 29.413149 51.650769 29.416505 51.738462 29.419170 51.826154 29.421150 51.913846 29.422450 52.001538 29.423077 52.089231 29.423036 52.176923 29.422334 52.264615 29.420975 52.352308 29.418967 52.440000 29.416316 52.527692 29.413026 52.615385 29.409103 52.703077 29.404555 52.790769 29.399387 52.878462 29.393604 52.966154 29.387212 53.053846 29.380218 53.141538 29.372627 53.229231 29.364446 53.316923 29.355680 53.404615 29.346334 53.492308 29.336416 53.580000 29.325931 53.667692 29.314884 53.755385 29.303282 53.843077 29.291131 53.930769 29.278436 54.018462 29.265204 54.106154 29.251440 54.193846 29.237150 54.281538 29.222341 54.369231 29.207017 54.456923 29.191185 54.544615 29.174852 54.632308 29.158022 54.720000 29.140701 54.807692 29.122897 54.895385 29.104614 54.983077 29.085858 55.070769 29.066636 55.158462 29.046952 55.246154 29.026814 55.333846 29.006227 55.421538 28.985197 55.509231 28.963730 55.596923 28.941832 55.684615 28.919508 55.772308 28.896765 55.860000 28.873609 55.947692 28.850044 56.035385 28.826079 56.123077 28.801717 56.210769 28.776966 56.298462 28.751830 56.386154 28.726317 56.473846 28.700431 56.561538 28.674179 56.649231 28.647567 56.736923 28.620600 56.824615 28.593285 56.912308 28.565628 57.000000 28.537633 57.087692 28.509308 57.175385 28.480658 57.263077 28.451689 57.350769 28.422407 57.438462 28.392818 57.526154 28.362928 57.613846 28.332742 57.701538 28.302267 57.789231 28.271508 57.876923 28.240472 57.964615 28.209164 58.052308 28.177590 58.140000 28.145757 58.227692 28.113669 58.315385 28.081333 58.403077 28.048756 58.490769 28.015941 58.578462 27.982897 58.666154 27.949628 58.753846 27.916141 58.841538 27.882441 58.929231 27.848535 59.016923 27.814427 59.104615 27.780125 59.192308 27.745634 59.280000 27.710959 59.367692 27.676108 59.455385 27.641085 59.543077 27.605897 59.630769 27.570550 59.718462 27.535049 59.806154 27.499400 59.893846 27.463610 59.981538 27.427683 60.069231 27.391627 60.156923 27.355447 60.244615 27.319149 60.332308 27.282739 60.420000 27.246223 60.507692 27.209606 60.595385 27.172895 60.683077 27.136095 60.770769 27.099212 60.858462 27.062253 60.946154 27.025223 61.033846 26.988129 61.121538 26.950975 61.209231 26.913768 61.296923 26.876514 61.384615 26.839218 61.472308 26.801888 61.560000 26.764528 61.647692 26.727144 61.735385 26.689743 61.823077 26.652330 61.910769 26.614911 61.998462 26.577492 62.086154 26.540080 62.173846 26.502679 62.261538 26.465296 62.349231 26.427937 62.436923 26.390607 62.524615 26.353313 62.612308 26.316061 62.700000 26.278855 62.787692 26.241704 62.875385 26.204611 62.963077 26.167583 63.050769 26.130627 63.138462 26.093747 63.226154 26.056950 63.313846 26.020242 63.401538 25.983628 63.489231 25.947115 63.576923 25.910709 63.664615 25.874415 63.752308 25.838239 63.840000 25.802187 63.927692 25.766265 64.015385 25.730480 64.103077 25.694836 64.190769 25.659340 64.278462 25.623998 64.366154 25.588815 64.453846 25.553798 64.541538 25.518953 64.629231 25.484284 64.716923 25.449799 64.804615 25.415504 64.892308 25.381403 64.980000 25.347503 65.067692 25.313810 65.155385 25.280330 65.243077 25.247069 65.330769 25.214032 65.418462 25.181226 65.506154 25.148656 65.593846 25.116329 65.681538 25.084250 65.769231 25.052425 65.856923 25.020860 65.944615 24.989561 66.032308 24.958534 66.120000 24.927785 66.207692 24.897320 66.295385 24.867144 66.383077 24.837264 66.470769 24.807685 66.558462 24.778413 66.646154 24.749455 66.733846 24.720816 66.821538 24.692502 66.909231 24.664519 66.996923 24.636872 67.084615 24.609569 67.172308 24.582614 67.260000 24.556014 67.347692 24.529775 67.435385 24.503901 67.523077 24.478401 67.610769 24.453278 67.698462 24.428540 67.786154 24.404191 67.873846 24.380239 67.961538 24.356688 68.049231 24.333544 68.136923 24.310805 68.224615 24.288469 68.312308 24.266532 68.400000 24.244993 68.487692 24.223848 68.575385 24.203094 68.663077 24.182731 68.750769 24.162753 68.838462 24.143160 68.926154 24.123948 69.013846 24.105114 69.101538 24.086657 69.189231 24.068572 69.276923 24.050859 69.364615 24.033513 69.452308 24.016533 69.540000 23.999916 69.627692 23.983658 69.715385 23.967758 69.803077 23.952213 69.890769 23.937020 69.978462 23.922176 70.066154 23.907679 70.153846 23.893526 70.241538 23.879715 70.329231 23.866242 70.416923 23.853106 70.504615 23.840303 70.592308 23.827831 70.680000 23.815687 70.767692 23.803869 70.855385 23.792374 70.943077 23.781199 71.030769 23.770342 71.118462 23.759799 71.206154 23.749569 71.293846 23.739649 71.381538 23.730035 71.469231 23.720726 71.556923 23.711719 71.644615 23.703011 71.732308 23.694599 71.820000 23.686481 71.907692 23.678654 71.995385 23.671115 72.083077 23.663862 72.170769 23.656893 72.258462 23.650204 72.346154 23.643792 72.433846 23.637656 72.521538 23.631793 72.609231 23.626199 72.696923 23.620872 72.784615 23.615810 72.872308 23.611010 72.960000 23.606470 73.047692 23.602186 73.135385 23.598155 73.223077 23.594377 73.310769 23.590846 73.398462 23.587562 73.486154 23.584522 73.573846 23.581721 73.661538 23.579159 73.749231 23.576833 73.836923 23.574739 73.924615 23.572875 74.012308 23.571239 74.100000 23.569827 74.187692 23.568638 74.275385 23.567668 74.363077 23.566915 74.450769 23.566376 74.538462 23.566049 74.626154 23.565930 74.713846 23.566018 74.801538 23.566309 74.889231 23.566801 74.976923 23.567492 75.064615 23.568378 75.152308 23.569457 75.240000 23.570727 75.327692 23.572184 75.415385 23.573826 75.503077 23.575650 75.590769 23.577655 75.678462 23.579836 75.766154 23.582191 75.853846 23.584719 75.941538 23.587415 76.029231 23.590278 76.116923 23.593305 76.204615 23.596493 76.292308 23.599839 76.380000 23.603341 76.467692 23.606997 76.555385 23.610803 76.643077 23.614757 76.730769 23.618856 76.818462 23.623097 76.906154 23.627479 76.993846 23.631998 77.081538 23.636651 77.169231 23.641437 77.256923 23.646351 77.344615 23.651393 77.432308 23.656558 77.520000 23.661845 77.607692 23.667250 77.695385 23.672772 77.783077 23.678407 77.870769 23.684153 77.958462 23.690007 78.046154 23.695966 78.133846 23.702028 78.221538 23.708190 78.309231 23.714450 78.396923 23.720804 78.484615 23.727251 78.572308 23.733787 78.660000 23.740411 78.747692 23.747118 78.835385 23.753907 78.923077 23.760775 79.010769 23.767719 79.098462 23.774737 79.186154 23.781826 79.273846 23.788983 79.361538 23.796205 79.449231 23.803491 79.536923 23.810837 79.624615 23.818241 79.712308 23.825700 79.800000 23.833211 79.887692 23.840773 79.975385 23.848381 80.063077 23.856033 80.150769 23.863728 80.238462 23.871461 80.326154 23.879232 80.413846 23.887035 80.501538 23.894871 80.589231 23.902734 80.676923 23.910624 80.764615 23.918537 80.852308 23.926470 80.940000 23.934421 81.027692 23.942388 81.115385 23.950367 81.203077 23.958356 81.290769 23.966353 81.378462 23.974354 81.466154 23.982357 81.553846 23.990360 81.641538 23.998359 81.729231 24.006352 81.816923 24.014337 81.904615 24.022310 81.992308 24.030270 82.080000 24.038213 82.167692 24.046137 82.255385 24.054039 82.343077 24.061916 82.430769 24.069767 82.518462 24.077587 82.606154 24.085375 82.693846 24.093128 82.781538 24.100844 82.869231 24.108518 82.956923 24.116150 83.044615 24.123736 83.132308 24.131274 83.220000 24.138760 83.307692 24.146193 83.395385 24.153570 83.483077 24.160888 83.570769 24.168144 83.658462 24.175335 83.746154 24.182460 83.833846 24.189515 83.921538 24.196498 84.009231 24.203406 84.096923 24.210237 84.184615 24.216987 84.272308 24.223655 84.360000 24.230237 84.447692 24.236730 84.535385 24.243133 84.623077 24.249443 84.710769 24.255656 84.798462 24.261771 84.886154 24.267784 84.973846 24.273694 85.061538 24.279496 85.149231 24.285189 85.236923 24.290770 85.324615 24.296237 85.412308 24.301586 85.500000 24.306815 85.587692 24.311921 85.675385 24.316903 85.763077 24.321756 85.850769 24.326479 85.938462 24.331068 86.026154 24.335522 86.113846 24.339837 86.201538 24.344011 86.289231 24.348041 86.376923 24.351924 86.464615 24.355658 86.552308 24.359241 86.640000 24.362669 86.727692 24.365940 86.815385 24.369051 86.903077 24.372000 86.990769 24.374784 87.078462 24.377400 87.166154 24.379845 87.253846 24.382118 87.341538 24.384215 87.429231 24.386134 87.516923 24.387871 87.604615 24.389425 87.692308 24.390793 87.780000 24.391972 87.867692 24.392959 87.955385 24.393752 88.043077 24.394348 88.130769 24.394745 88.218462 24.394939 88.306154 24.394929 88.393846 24.394711 88.481538 24.394283 88.569231 24.393642 88.656923 24.392785 88.744615 24.391711 88.832308 24.390416 88.920000 24.388897 89.007692 24.387152 89.095385 24.385179 89.183077 24.382974 89.270769 24.380535 89.358462 24.377860 89.446154 24.374945 89.533846 24.371788 89.621538 24.368387 89.709231 24.364738 89.796923 24.360840 89.884615 24.356688 89.972308 24.352283 90.060000 24.347623 90.147692 24.342709 90.235385 24.337544 90.323077 24.332127 90.410769 24.326461 90.498462 24.320545 90.586154 24.314381 90.673846 24.307970 90.761538 24.301313 90.849231 24.294411 90.936923 24.287265 91.024615 24.279876 91.112308 24.272245 91.200000 24.264373 91.287692 24.256262 91.375385 24.247911 91.463077 24.239322 91.550769 24.230497 91.638462 24.221436 91.726154 24.212140 91.813846 24.202610 91.901538 24.192847 91.989231 24.182853 92.076923 24.172627 92.164615 24.162173 92.252308 24.151489 92.340000 24.140578 92.427692 24.129440 92.515385 24.118077 92.603077 24.106488 92.690769 24.094677 92.778462 24.082642 92.866154 24.070387 92.953846 24.057910 93.041538 24.045215 93.129231 24.032300 93.216923 24.019169 93.304615 24.005820 93.392308 23.992257 93.480000 23.978479 93.567692 23.964487 93.655385 23.950284 93.743077 23.935869 93.830769 23.921243 93.918462 23.906408 94.006154 23.891366 94.093846 23.876115 94.181538 23.860659 94.269231 23.844997 94.356923 23.829131 94.444615 23.813062 94.532308 23.796791 94.620000 23.780319 94.707692 23.763647 94.795385 23.746775 94.883077 23.729706 94.970769 23.712439 95.058462 23.694977 95.146154 23.677319 95.233846 23.659467 95.321538 23.641423 95.409231 23.623187 95.496923 23.604759 95.584615 23.586142 95.672308 23.567336 95.760000 23.548342 95.847692 23.529161 95.935385 23.509794 96.023077 23.490243 96.110769 23.470508 96.198462 23.450590 96.286154 23.430490 96.373846 23.410210 96.461538 23.389750 96.549231 23.369111 96.636923 23.348295 96.724615 23.327302 96.812308 23.306133 96.900000 23.284790 96.987692 23.263273 97.075385 23.241584 97.163077 23.219723 97.250769 23.197692 97.338462 23.175491 97.426154 23.153122 97.513846 23.130586 97.601538 23.107882 97.689231 23.085014 97.776923 23.061981 97.864615 23.038785 97.952308 23.015427 98.040000 22.991907 98.127692 22.968227 98.215385 22.944387 98.303077 22.920390 98.390769 22.896235 98.478462 22.871924 98.566154 22.847458 98.653846 22.822837 98.741538 22.798064 98.829231 22.773138 98.916923 22.748062 99.004615 22.722835 99.092308 22.697459 99.180000 22.671935 99.267692 22.646264 99.355385 22.620447 99.443077 22.594485 99.530769 22.568379 99.618462 22.542131 99.706154 22.515740 99.793846 22.489208 99.881538 22.462537 99.969231 22.435727 100.056923 22.408779 100.144615 22.381694 100.232308 22.354473 100.320000 22.327118 100.407692 22.299628 100.495385 22.272007 100.583077 22.244253 100.670769 22.216369 100.758462 22.188355 100.846154 22.160212 100.933846 22.131942 101.021538 22.103545 101.109231 22.075023 101.196923 22.046376 101.284615 22.017605 101.372308 21.988712 101.460000 21.959698 101.547692 21.930563 101.635385 21.901308 101.723077 21.871936 101.810769 21.842445 101.898462 21.812839 101.986154 21.783117 102.073846 21.753280 102.161538 21.723331 102.249231 21.693269 102.336923 21.663096 102.424615 21.632812 102.512308 21.602419 102.600000 21.571918 102.687692 21.541310 102.775385 21.510596 102.863077 21.479776 102.950769 21.448853 103.038462 21.417826 103.126154 21.386697 103.213846 21.355467 103.301538 21.324137 103.389231 21.292708 103.476923 21.261181 103.564615 21.229557 103.652308 21.197837 103.740000 21.166022 103.827692 21.134114 103.915385 21.102112 104.003077 21.070018 104.090769 21.037834 104.178462 21.005559 104.266154 20.973196 104.353846 20.940745 104.441538 20.908208 104.529231 20.875584 104.616923 20.842876 104.704615 20.810084 104.792308 20.777209 104.880000 20.744253 104.967692 20.711216 105.055385 20.678099 105.143077 20.644904 105.230769 20.611631 105.318462 20.578282 105.406154 20.544857 105.493846 20.511358 105.581538 20.477785 105.669231 20.444139 105.756923 20.410422 105.844615 20.376635 105.932308 20.342778 106.020000 20.308853 106.107692 20.274860 106.195385 20.240801 106.283077 20.206677 106.370769 20.172489 106.458462 20.138237 106.546154 20.103922 106.633846 20.069547 106.721538 20.035111 106.809231 20.000617 106.896923 19.966063 106.984615 19.931453 107.072308 19.896787 107.160000 19.862065 107.247692 19.827290 107.335385 19.792461 107.423077 19.757580 107.510769 19.722648 107.598462 19.687666 107.686154 19.652636 107.773846 19.617557 107.861538 19.582431 107.949231 19.547259 108.036923 19.512043 108.124615 19.476782 108.212308 19.441479 108.300000 19.406133 108.387692 19.370747 108.475385 19.335321 108.563077 19.299856 108.650769 19.264354 108.738462 19.228815 108.826154 19.193239 108.913846 19.157630 109.001538 19.121986 109.089231 19.086310 109.176923 19.050602 109.264615 19.014864 109.352308 18.979096 109.440000 18.943300 109.527692 18.907475 109.615385 18.871625 109.703077 18.835749 109.790769 18.799848 109.878462 18.763924 109.966154 18.727977 110.053846 18.692009 110.141538 18.656020 110.229231 18.620013 110.316923 18.583986 110.404615 18.547943 110.492308 18.511883 110.580000 18.475807 110.667692 18.439718 110.755385 18.403615 110.843077 18.367500 110.930769 18.331374 111.018462 18.295237 111.106154 18.259091 111.193846 18.222937 111.281538 18.186776 111.369231 18.150609 111.456923 18.114437 111.544615 18.078261 111.632308 18.042081 111.720000 18.005900 111.807692 17.969717" class="line reactive nofill" /></g></g><g class="titles" /><g transform="translate(76, 10)" class="plot overlay"><g class="series serie-0 color-0" /></g><g transform="translate(76, 10)" class="plot text-overlay"><g class="series serie-0 color-0" /></g><g transform="translate(76, 10)" class="plot tooltip-overlay"><g transform="translate(0 0)" style="opacity: 0" class="tooltip"><rect rx="0" ry="0" width="0" height="0" class="tooltip-box" /><g class="text" /></g></g></g></svg>