<?xml version='1.0' encoding='utf-8'?>
<svg xmlns="http://www.w3.org/2000/svg" id="chart-0e08e651-3900-479d-b93b-6006beb32ed0" class="pygal-chart pygal-sparkline" viewBox="0 0 200 50" width="200" height="50"><!--Generated with pygal 3.0.4 (etree) ©Kozea 2012-2016 on 2024-06-16--><!--http://pygal.org--><!--http://github.com/Kozea/pygal--><defs><style type="text/css">#chart-0e08e651-3900-479d-b93b-6006beb32ed0{-webkit-user-select:none;-webkit-font-smoothing:antialiased;font-family:Consolas,"Liberation Mono",Menlo,Courier,monospace}#chart-0e08e651-3900-479d-b93b-6006beb32ed0 .title{font-family:Consolas,"Liberation Mono",Menlo,Courier,monospace;font-size:16px}#chart-0e08e651-3900-479d-b93b-6006beb32ed0 .legends .legend text{font-family:Consolas,"Liberation Mono",Menlo,Courier,monospace;font-size:14px}#chart-0e08e651-3900-479d-b93b-6006beb32ed0 .axis text{font-family:Consolas,"Liberation Mono",Menlo,Courier,monospace;font-size:10px}#chart-0e08e651-3900-479d-b93b-6006beb32ed0 .axis text.major{font-family:Consolas,"Liberation Mono",Menlo,Courier,monospace;font-size:10px}#chart-0e08e651-3900-479d-b93b-6006beb32ed0 .text-overlay text.value{font-family:Consolas,"Liberation Mono",Menlo,Courier,monospace;font-size:16px}#chart-0e08e651-3900-479d-b93b-6006beb32ed0 .text-overlay text.label{font-family:Consolas,"Liberation Mono",Menlo,Courier,monospace;font-size:10px}#chart-0e08e651-3900-479d-b93b-6006beb32ed0 .tooltip{font-family:Consolas,"Liberation Mono",Menlo,Courier,monospace;font-size:14px}#chart-0e08e651-3900-479d-b93b-6006beb32ed0 text.no_data{font-family:Consolas,"Liberation Mono",Menlo,Courier,monospace;font-size:64px}
#chart-0e08e651-3900-479d-b93b-6006beb32ed0{background-color:rgba(249,249,249,1)}#chart-0e08e651-3900-479d-b93b-6006beb32ed0 path,#chart-0e08e651-3900-479d-b93b-6006beb32ed0 line,#chart-0e08e651-3900-479d-b93b-6006beb32ed0 rect,#chart-0e08e651-3900-479d-b93b-6006beb32ed0 circle{-webkit-transition:150ms;-moz-transition:150ms;transition:150ms}#chart-0e08e651-3900-479d-b93b-6006beb32ed0 .graph &gt; .background{fill:rgba(249,249,249,1)}#chart-0e08e651-3900-479d-b93b-6006beb32ed0 .plot &gt; .background{fill:rgba(255,255,255,1)}#chart-0e08e651-3900-479d-b93b-6006beb32ed0 .graph{fill:rgba(0,0,0,.87)}#chart-0e08e651-3900-479d-b93b-6006beb32ed0 text.no_data{fill:rgba(0,0,0,1)}#chart-0e08e651-3900-479d-b93b-6006beb32ed0 .title{fill:rgba(0,0,0,1)}#chart-0e08e651-3900-479d-b93b-6006beb32ed0 .legends .legend text{fill:rgba(0,0,0,.87)}#chart-0e08e651-3900-479d-b93b-6006beb32ed0 .legends .legend:hover text{fill:rgba(0,0,0,1)}#chart-0e08e651-3900-479d-b93b-6006beb32ed0 .axis .line{stroke:rgba(0,0,0,1)}#chart-0e08e651-3900-479d-b93b-6006beb32ed0 .axis .guide.line{stroke:rgba(0,0,0,.54)}#chart-0e08e651-3900-479d-b93b-6006beb32ed0 .axis .major.line{stroke:rgba(0,0,0,.87)}#chart-0e08e651-3900-479d-b93b-6006beb32ed0 .axis text.major{fill:rgba(0,0,0,1)}#chart-0e08e651-3900-479d-b93b-6006beb32ed0 .axis.y .guides:hover .guide.line,#chart-0e08e651-3900-479d-b93b-6006beb32ed0 .line-graph .axis.x .guides:hover .guide.line,#chart-0e08e651-3900-479d-b93b-6006beb32ed0 .stackedline-graph .axis.x .guides:hover .guide.line,#chart-0e08e651-3900-479d-b93b-6006beb32ed0 .xy-graph .axis.x .guides:hover .guide.line{stroke:rgba(0,0,0,1)}#chart-0e08e651-3900-479d-b93b-6006beb32ed0 .axis .guides:hover text{fill:rgba(0,0,0,1)}#chart-0e08e651-3900-479d-b93b-6006beb32ed0 .reactive{fill-opacity:.7;stroke-opacity:.8;stroke-width:1}#chart-0e08e651-3900-479d-b93b-6006beb32ed0 .ci{stroke:rgba(0,0,0,.87)}#chart-0e08e651-3900-479d-b93b-6006beb32ed0 .reactive.active,#chart-0e08e651-3900-479d-b93b-6006beb32ed0 .active .reactive{fill-opacity:.8;stroke-opacity:.9;stroke-width:4}#chart-0e08e651-3900-479d-b93b-6006beb32ed0 .ci .reactive.active{stroke-width:1.5}#chart-0e08e651-3900-479d-b93b-6006beb32ed0 .series text{fill:rgba(0,0,0,1)}#chart-0e08e651-3900-479d-b93b-6006beb32ed0 .tooltip rect{fill:rgba(255,255,255,1);stroke:rgba(0,0,0,1);-webkit-transition:opacity 150ms;-moz-transition:opacity 150ms;transition:opacity 150ms}#chart-0e08e651-3900-479d-b93b-6006beb32ed0 .tooltip .label{fill:rgba(0,0,0,.87)}#chart-0e08e651-3900-479d-b93b-6006beb32ed0 .tooltip .label{fill:rgba(0,0,0,.87)}#chart-0e08e651-3900-479d-b93b-6006beb32ed0 .tooltip .legend{font-size:.8em;fill:rgba(0,0,0,.54)}#chart-0e08e651-3900-479d-b93b-6006beb32ed0 .tooltip .x_label{font-size:.6em;fill:rgba(0,0,0,1)}#chart-0e08e651-3900-479d-b93b-6006beb32ed0 .tooltip .xlink{font-size:.5em;text-decoration:underline}#chart-0e08e651-3900-479d-b93b-6006beb32ed0 .tooltip .value{font-size:1.5em}#chart-0e08e651-3900-479d-b93b-6006beb32ed0 .bound{font-size:.5em}#chart-0e08e651-3900-479d-b93b-6006beb32ed0 .max-value{font-size:.75em;fill:rgba(0,0,0,.54)}#chart-0e08e651-3900-479d-b93b-6006beb32ed0 .map-element{fill:rgba(255,255,255,1);stroke:rgba(0,0,0,.54) !important}#chart-0e08e651-3900-479d-b93b-6006beb32ed0 .map-element .reactive{fill-opacity:inherit;stroke-opacity:inherit}#chart-0e08e651-3900-479d-b93b-6006beb32ed0 .color-0,#chart-0e08e651-3900-479d-b93b-6006beb32ed0 .color-0 a:visited{stroke:#F44336;fill:#F44336}#chart-0e08e651-3900-479d-b93b-6006beb32ed0 .text-overlay .color-0 text{fill:black}
#chart-0e08e651-3900-479d-b93b-6006beb32ed0 text.no_data{text-anchor:middle}#chart-0e08e651-3900-479d-b93b-6006beb32ed0 .guide.line{fill:none}#chart-0e08e651-3900-479d-b93b-6006beb32ed0 .centered{text-anchor:middle}#chart-0e08e651-3900-479d-b93b-6006beb32ed0 .title{text-anchor:middle}#chart-0e08e651-3900-479d-b93b-6006beb32ed0 .legends .legend text{fill-opacity:1}#chart-0e08e651-3900-479d-b93b-6006beb32ed0 .axis.x text{text-anchor:middle}#chart-0e08e651-3900-479d-b93b-6006beb32ed0 .axis.x:not(.web) text[transform]{text-anchor:start}#chart-0e08e651-3900-479d-b93b-6006beb32ed0 .axis.x:not(.web) text[transform].backwards{text-anchor:end}#chart-0e08e651-3900-479d-b93b-6006beb32ed0 .axis.y text{text-anchor:end}#chart-0e08e651-3900-479d-b93b-6006beb32ed0 .axis.y text[transform].backwards{text-anchor:start}#chart-0e08e651-3900-479d-b93b-6006beb32ed0 .axis.y2 text{text-anchor:start}#chart-0e08e651-3900-479d-b93b-6006beb32ed0 .axis.y2 text[transform].backwards{text-anchor:end}#chart-0e08e651-3900-479d-b93b-6006beb32ed0 .axis .guide.line{stroke-dasharray:4,4;stroke:black}#chart-0e08e651-3900-479d-b93b-6006beb32ed0 .axis .major.guide.line{stroke-dasharray:6,6;stroke:black}#chart-0e08e651-3900-479d-b93b-6006beb32ed0 .horizontal .axis.y .guide.line,#chart-0e08e651-3900-479d-b93b-6006beb32ed0 .horizontal .axis.y2 .guide.line,#chart-0e08e651-3900-479d-b93b-6006beb32ed0 .vertical .axis.x .guide.line{opacity:0}#chart-0e08e651-3900-479d-b93b-6006beb32ed0 .horizontal .axis.always_show .guide.line,#chart-0e08e651-3900-479d-b93b-6006beb32ed0 .vertical .axis.always_show .guide.line{opacity:1 !important}#chart-0e08e651-3900-479d-b93b-6006beb32ed0 .axis.y .guides:hover .guide.line,#chart-0e08e651-3900-479d-b93b-6006beb32ed0 .axis.y2 .guides:hover .guide.line,#chart-0e08e651-3900-479d-b93b-6006beb32ed0 .axis.x .guides:hover .guide.line{opacity:1}#chart-0e08e651-3900-479d-b93b-6006beb32ed0 .axis .guides:hover text{opacity:1}#chart-0e08e651-3900-479d-b93b-6006beb32ed0 .nofill{fill:none}#chart-0e08e651-3900-479d-b93b-6006beb32ed0 .subtle-fill{fill-opacity:.2}#chart-0e08e651-3900-479d-b93b-6006beb32ed0 .dot{stroke-width:1px;fill-opacity:1;stroke-opacity:1}#chart-0e08e651-3900-479d-b93b-6006beb32ed0 .dot.active{stroke-width:5px}#chart-0e08e651-3900-479d-b93b-6006beb32ed0 .dot.negative{fill:transparent}#chart-0e08e651-3900-479d-b93b-6006beb32ed0 text,#chart-0e08e651-3900-479d-b93b-6006beb32ed0 tspan{stroke:none !important}#chart-0e08e651-3900-479d-b93b-6006beb32ed0 .series text.active{opacity:1}#chart-0e08e651-3900-479d-b93b-6006beb32ed0 .tooltip rect{fill-opacity:.95;stroke-width:.5}#chart-0e08e651-3900-479d-b93b-6006beb32ed0 .tooltip text{fill-opacity:1}#chart-0e08e651-3900-479d-b93b-6006beb32ed0 .showable{visibility:hidden}#chart-0e08e651-3900-479d-b93b-6006beb32ed0 .showable.shown{visibility:visible}#chart-0e08e651-3900-479d-b93b-6006beb32ed0 .gauge-background{fill:rgba(229,229,229,1);stroke:none}#chart-0e08e651-3900-479d-b93b-6006beb32ed0 .bg-lines{stroke:rgba(249,249,249,1);stroke-width:2px}</style><script type="text/javascript">window.pygal = window.pygal || {};window.pygal.config = window.pygal.config || {};window.pygal.config['0e08e651-3900-479d-b93b-6006beb32ed0'] = {"allow_interruptions": false, "box_mode": "extremes", "classes": ["pygal-chart", "pygal-sparkline"], "css": ["file://style.css", "file://graph.css"], "defs": [], "disable_xml_declaration": false, "dots_size": 2.5, "dynamic_print_values": false, "explicit_size": true, "fill": false, "force_uri_protocol": "https", "formatter": null, "half_pie": false, "height": 50, "include_x_axis": false, "inner_radius": 0, "interpolate": "cubic", "interpolation_parameters": {}, "interpolation_precision": 250, "inverse_y_axis": false, "js": [], "legend_at_bottom": false, "legend_at_bottom_columns": null, "legend_box_size": 12, "logarithmic": false, "margin": 10, "margin_bottom": null, "margin_left": null, "margin_right": null, "margin_top": null, "max_scale": 2, "min_scale": 1, "missing_value_fill_truncation": "x", "no_data_text": "", "no_prefix": false, "order_min": null, "pretty_print": false, "print_labels": false, "print_values": false, "print_values_position": "center", "print_zeroes": true, "range": null, "rounded_bars": null, "secondary_range": null, "show_dots": false, "show_legend": false, "show_minor_x_labels": true, "show_minor_y_labels": true, "show_only_major_dots": false, "show_x_guides": false, "show_x_labels": false, "show_y_guides": true, "show_y_labels": true, "spacing": 0, "stack_from_top": false, "strict": false, "stroke": true, "stroke_style": null, "style": {"background": "rgba(249, 249, 249, 1)", "ci_colors": [], "colors": ["#F44336", "#3F51B5", "#009688", "#FFC107", "#FF5722", "#9C27B0", "#03A9F4", "#8BC34A", "#FF9800", "#E91E63", "#2196F3", "#4CAF50", "#FFEB3B", "#673AB7", "#00BCD4", "#CDDC39", "#9E9E9E", "#607D8B"], "dot_opacity": "1", "font_family": "Consolas, \"Liberation Mono\", Menlo, Courier, monospace", "foreground": "rgba(0, 0, 0, .87)", "foreground_strong": "rgba(0, 0, 0, 1)", "foreground_subtle": "rgba(0, 0, 0, .54)", "guide_stroke_color": "black", "guide_stroke_dasharray": "4,4", "label_font_family": "Consolas, \"Liberation Mono\", Menlo, Courier, monospace", "label_font_size": 10, "legend_font_family": "Consolas, \"Liberation Mono\", Menlo, Courier, monospace", "legend_font_size": 14, "major_guide_stroke_color": "black", "major_guide_stroke_dasharray": "6,6", "major_label_font_family": "Consolas, \"Liberation Mono\", Menlo, Courier, monospace", "major_label_font_size": 10, "no_data_font_family": "Consolas, \"Liberation Mono\", Menlo, Courier, monospace", "no_data_font_size": 64, "opacity": ".7", "opacity_hover": ".8", "plot_background": "rgba(255, 255, 255, 1)", "stroke_opacity": ".8", "stroke_opacity_hover": ".9", "stroke_width": "1", "stroke_width_hover": "4", "title_font_family": "Consolas, \"Liberation Mono\", Menlo, Courier, monospace", "title_font_size": 16, "tooltip_font_family": "Consolas, \"Liberation Mono\", Menlo, Courier, monospace", "tooltip_font_size": 14, "transition": "150ms", "value_background": "rgba(229, 229, 229, 1)", "value_colors": [], "value_font_family": "Consolas, \"Liberation Mono\", Menlo, Courier, monospace", "value_font_size": 16, "value_label_font_family": "Consolas, \"Liberation Mono\", Menlo, Courier, monospace", "value_label_font_size": 10}, "title": null, "tooltip_border_radius": 0, "tooltip_fancy_mode": true, "truncate_label": null, "truncate_legend": null, "width": 200, "x_label_rotation": 0, "x_labels": ["2024/6", "2024/5", "2024/3", "2023/11", "2023/9", "2023/5", "2023/4"], "x_labels_major": null, "x_labels_major_count": null, "x_labels_major_every": null, "x_title": null, "xrange": null, "y_label_rotation": 0, "y_labels": null, "y_labels_major": null, "y_labels_major_count": null, "y_labels_major_every": null, "y_title": null, "zero": 0, "legends": [""]}</script></defs><title>Pygal</title><g class="graph line-graph vertical"><rect x="0" y="0" width="200" height="50" class="background" /><g transform="translate(76, 10)" class="plot"><rect x="0" y="0" width="114.0" height="30" class="background" /><g class="axis y always_show"><path d="M0.000000 30.000000 h114.000000" class="line" /><g class="guides"><path d="M0.000000 29.423077 h114.000000" class="guide line" /><text x="-5" y="32.92307692307692" class="">1.943648</text><title>1.943648</title></g><g class="guides"><path d="M0.000000 0.576923 h114.000000" class="guide line" /><text x="-5" y="4.076923076923077" class="">7.313649882</text><title>7.313649882</title></g></g><g class="series serie-0 color-0"><path d="M2.192308 7.633484 L2.265385 7.751909 2.338462 7.870332 2.411538 7.988748 2.484615 8.107154 2.557692 8.225548 2.630769 8.343927 2.703846 8.462287 2.776923 8.580625 2.850000 8.698938 2.923077 8.817223 2.996154 8.935476 3.069231 9.053696 3.142308 9.171878 3.215385 9.290019 3.288462 9.408117 3.361538 9.526168 3.434615 9.644170 3.507692 9.762118 3.580769 9.880010 3.653846 9.997843 3.726923 10.115613 3.800000 10.233318 3.873077 10.350955 3.946154 10.468520 4.019231 10.586010 4.092308 10.703421 4.165385 10.820752 4.238462 10.937999 4.311538 11.055158 4.384615 11.172227 4.457692 11.289203 4.530769 11.406082 4.603846 11.522861 4.676923 11.639537 4.750000 11.756107 4.823077 11.872568 4.896154 11.988917 4.969231 12.105150 5.042308 12.221265 5.115385 12.337258 5.188462 12.453127 5.261538 12.568868 5.334615 12.684477 5.407692 12.799953 5.480769 12.915292 5.553846 13.030490 5.626923 13.145545 5.700000 13.260453 5.773077 13.375212 5.846154 13.489817 5.919231 13.604267 5.992308 13.718558 6.065385 13.832687 6.138462 13.946651 6.211538 14.060446 6.284615 14.174070 6.357692 14.287519 6.430769 14.400790 6.503846 14.513881 6.576923 14.626787 6.650000 14.739507 6.723077 14.852036 6.796154 14.964372 6.869231 15.076511 6.942308 15.188451 7.015385 15.300189 7.088462 15.411720 7.161538 15.523043 7.234615 15.634154 7.307692 15.745049 7.380769 15.855727 7.453846 15.966182 7.526923 16.076414 7.600000 16.186418 7.673077 16.296191 7.746154 16.405730 7.819231 16.515032 7.892308 16.624094 7.965385 16.732913 8.038462 16.841486 8.111538 16.949809 8.184615 17.057880 8.257692 17.165695 8.330769 17.273251 8.403846 17.380546 8.476923 17.487575 8.550000 17.594336 8.623077 17.700826 8.696154 17.807041 8.769231 17.912979 8.842308 18.018637 8.915385 18.124011 8.988462 18.229097 9.061538 18.333894 9.134615 18.438398 9.207692 18.542606 9.280769 18.646514 9.353846 18.750120 9.426923 18.853420 9.500000 18.956412 9.573077 19.059092 9.646154 19.161456 9.719231 19.263503 9.792308 19.365229 9.865385 19.466631 9.938462 19.567705 10.011538 19.668448 10.084615 19.768858 10.157692 19.868931 10.230769 19.968665 10.303846 20.068055 10.376923 20.167100 10.450000 20.265795 10.523077 20.364138 10.596154 20.462125 10.669231 20.559754 10.742308 20.657021 10.815385 20.753923 10.888462 20.850458 10.961538 20.946621 11.034615 21.042410 11.107692 21.137822 11.180769 21.232854 11.253846 21.327502 11.326923 21.421763 11.400000 21.515635 11.473077 21.609114 11.546154 21.702197 11.619231 21.794880 11.692308 21.887162 11.765385 21.979038 11.838462 22.070506 11.911538 22.161562 11.984615 22.252204 12.057692 22.342428 12.130769 22.432231 12.203846 22.521609 12.276923 22.610561 12.350000 22.699082 12.423077 22.787170 12.496154 22.874822 12.569231 22.962034 12.642308 23.048803 12.715385 23.135126 12.788462 23.221000 12.861538 23.306422 12.934615 23.391389 13.007692 23.475898 13.080769 23.559945 13.153846 23.643528 13.226923 23.726643 13.300000 23.809287 13.373077 23.891457 13.446154 23.973150 13.519231 24.054363 13.592308 24.135093 13.665385 24.215336 13.738462 24.295090 13.811538 24.374351 13.884615 24.453117 13.957692 24.531383 14.030769 24.609148 14.103846 24.686407 14.176923 24.763159 14.250000 24.839398 14.323077 24.915124 14.396154 24.990332 14.469231 25.065019 14.542308 25.139182 14.615385 25.212819 14.688462 25.285925 14.761538 25.358499 14.834615 25.430536 14.907692 25.502033 14.980769 25.572988 15.053846 25.643398 15.126923 25.713258 15.200000 25.782567 15.273077 25.851321 15.346154 25.919517 15.419231 25.987151 15.492308 26.054221 15.565385 26.120724 15.638462 26.186656 15.711538 26.252014 15.784615 26.316796 15.857692 26.380998 15.930769 26.444616 16.003846 26.507649 16.076923 26.570092 16.150000 26.631943 16.223077 26.693198 16.296154 26.753854 16.369231 26.813909 16.442308 26.873359 16.515385 26.932201 16.588462 26.990432 16.661538 27.048049 16.734615 27.105048 16.807692 27.161427 16.880769 27.217182 16.953846 27.272311 17.026923 27.326809 17.100000 27.380675 17.173077 27.433905 17.246154 27.486495 17.319231 27.538444 17.392308 27.589747 17.465385 27.640401 17.538462 27.690404 17.611538 27.739751 17.684615 27.788442 17.757692 27.836471 17.830769 27.883836 17.903846 27.930533 17.976923 27.976561 18.050000 28.021914 18.123077 28.066592 18.196154 28.110589 18.269231 28.153904 18.342308 28.196533 18.415385 28.238473 18.488462 28.279720 18.561538 28.320273 18.634615 28.360126 18.707692 28.399279 18.780769 28.437727 18.853846 28.475466 18.926923 28.512496 19.000000 28.548811 19.073077 28.584409 19.146154 28.619286 19.219231 28.653441 19.292308 28.686868 19.365385 28.719567 19.438462 28.751532 19.511538 28.782762 19.584615 28.813253 19.657692 28.843002 19.730769 28.872005 19.803846 28.900260 19.876923 28.927764 19.950000 28.954513 20.023077 28.980505 20.096154 29.005736 20.169231 29.030203 20.242308 29.053903 20.315385 29.076833 20.388462 29.098989 20.461538 29.120370 20.534615 29.140972 20.607692 29.160800 20.680769 29.179859 20.753846 29.198154 20.826923 29.215691 20.900000 29.232475 20.973077 29.248511 21.046154 29.263805 21.119231 29.278361 21.192308 29.292185 21.265385 29.305283 21.338462 29.317659 21.411538 29.329319 21.484615 29.340268 21.557692 29.350512 21.630769 29.360055 21.703846 29.368903 21.776923 29.377061 21.850000 29.384535 21.923077 29.391329 21.996154 29.397450 22.069231 29.402902 22.142308 29.407690 22.215385 29.411820 22.288462 29.415298 22.361538 29.418128 22.434615 29.420315 22.507692 29.421866 22.580769 29.422785 22.653846 29.423077 22.726923 29.422748 22.800000 29.421803 22.873077 29.420248 22.946154 29.418087 23.019231 29.415326 23.092308 29.411970 23.165385 29.408025 23.238462 29.403495 23.311538 29.398387 23.384615 29.392704 23.457692 29.386454 23.530769 29.379640 23.603846 29.372268 23.676923 29.364343 23.750000 29.355872 23.823077 29.346858 23.896154 29.337307 23.969231 29.327225 24.042308 29.316617 24.115385 29.305487 24.188462 29.293842 24.261538 29.281687 24.334615 29.269026 24.407692 29.255866 24.480769 29.242211 24.553846 29.228067 24.626923 29.213438 24.700000 29.198331 24.773077 29.182751 24.846154 29.166702 24.919231 29.150190 24.992308 29.133221 25.065385 29.115799 25.138462 29.097930 25.211538 29.079620 25.284615 29.060873 25.357692 29.041694 25.430769 29.022090 25.503846 29.002065 25.576923 28.981624 25.650000 28.960773 25.723077 28.939517 25.796154 28.917862 25.869231 28.895813 25.942308 28.873374 26.015385 28.850551 26.088462 28.827350 26.161538 28.803776 26.234615 28.779834 26.307692 28.755529 26.380769 28.730867 26.453846 28.705852 26.526923 28.680491 26.600000 28.654788 26.673077 28.628749 26.746154 28.602379 26.819231 28.575683 26.892308 28.548666 26.965385 28.521335 27.038462 28.493693 27.111538 28.465747 27.184615 28.437501 27.257692 28.408962 27.330769 28.380133 27.403846 28.351021 27.476923 28.321631 27.550000 28.291967 27.623077 28.262036 27.696154 28.231843 27.769231 28.201392 27.842308 28.170690 27.915385 28.139740 27.988462 28.108550 28.061538 28.077123 28.134615 28.045466 28.207692 28.013583 28.280769 27.981480 28.353846 27.949162 28.426923 27.916634 28.500000 27.883902 28.573077 27.850971 28.646154 27.817845 28.719231 27.784532 28.792308 27.751035 28.865385 27.717360 28.938462 27.683512 29.011538 27.649496 29.084615 27.615319 29.157692 27.580984 29.230769 27.546498 29.303846 27.511866 29.376923 27.477092 29.450000 27.442183 29.523077 27.407143 29.596154 27.371978 29.669231 27.336692 29.742308 27.301293 29.815385 27.265783 29.888462 27.230170 29.961538 27.194457 30.034615 27.158651 30.107692 27.122757 30.180769 27.086779 30.253846 27.050724 30.326923 27.014596 30.400000 26.978401 30.473077 26.942144 30.546154 26.905831 30.619231 26.869466 30.692308 26.833054 30.765385 26.796602 30.838462 26.760115 30.911538 26.723597 30.984615 26.687054 31.057692 26.650491 31.130769 26.613914 31.203846 26.577327 31.276923 26.540737 31.350000 26.504148 31.423077 26.467566 31.496154 26.430995 31.569231 26.394442 31.642308 26.357911 31.715385 26.321408 31.788462 26.284938 31.861538 26.248506 31.934615 26.212118 32.007692 26.175778 32.080769 26.139493 32.153846 26.103267 32.226923 26.067106 32.300000 26.031015 32.373077 25.994998 32.446154 25.959063 32.519231 25.923213 32.592308 25.887454 32.665385 25.851791 32.738462 25.816231 32.811538 25.780776 32.884615 25.745434 32.957692 25.710210 33.030769 25.675108 33.103846 25.640134 33.176923 25.605294 33.250000 25.570592 33.323077 25.536033 33.396154 25.501624 33.469231 25.467369 33.542308 25.433274 33.615385 25.399344 33.688462 25.365583 33.761538 25.331999 33.834615 25.298595 33.907692 25.265377 33.980769 25.232350 34.053846 25.199520 34.126923 25.166892 34.200000 25.134470 34.273077 25.102261 34.346154 25.070270 34.419231 25.038502 34.492308 25.006962 34.565385 24.975655 34.638462 24.944588 34.711538 24.913764 34.784615 24.883190 34.857692 24.852870 34.930769 24.822810 35.003846 24.793015 35.076923 24.763490 35.150000 24.734242 35.223077 24.705274 35.296154 24.676592 35.369231 24.648202 35.442308 24.620109 35.515385 24.592318 35.588462 24.564834 35.661538 24.537663 35.734615 24.510810 35.807692 24.484280 35.880769 24.458078 35.953846 24.432210 36.026923 24.406682 36.100000 24.381497 36.173077 24.356662 36.246154 24.332182 36.319231 24.308062 36.392308 24.284307 36.465385 24.260923 36.538462 24.237915 36.611538 24.215288 36.684615 24.193047 36.757692 24.171199 36.830769 24.149747 36.903846 24.128698 36.976923 24.108056 37.050000 24.087827 37.123077 24.068016 37.196154 24.048629 37.269231 24.029670 37.342308 24.011146 37.415385 23.993060 37.488462 23.975419 37.561538 23.958228 37.634615 23.941492 37.707692 23.925217 37.780769 23.909407 37.853846 23.894067 37.926923 23.879204 38.000000 23.864823 38.073077 23.850928 38.146154 23.837525 38.219231 23.824620 38.292308 23.812217 38.365385 23.800322 38.438462 23.788940 38.511538 23.778076 38.584615 23.767736 38.657692 23.757925 38.730769 23.748648 38.803846 23.739909 38.876923 23.731704 38.950000 23.724027 39.023077 23.716873 39.096154 23.710235 39.169231 23.704109 39.242308 23.698489 39.315385 23.693370 39.388462 23.688744 39.461538 23.684608 39.534615 23.680955 39.607692 23.677780 39.680769 23.675078 39.753846 23.672841 39.826923 23.671066 39.900000 23.669746 39.973077 23.668876 40.046154 23.668450 40.119231 23.668462 40.192308 23.668908 40.265385 23.669780 40.338462 23.671075 40.411538 23.672785 40.484615 23.674906 40.557692 23.677432 40.630769 23.680357 40.703846 23.683675 40.776923 23.687382 40.850000 23.691471 40.923077 23.695937 40.996154 23.700775 41.069231 23.705977 41.142308 23.711540 41.215385 23.717457 41.288462 23.723723 41.361538 23.730333 41.434615 23.737279 41.507692 23.744558 41.580769 23.752163 41.653846 23.760089 41.726923 23.768329 41.800000 23.776880 41.873077 23.785734 41.946154 23.794887 42.019231 23.804332 42.092308 23.814064 42.165385 23.824078 42.238462 23.834368 42.311538 23.844928 42.384615 23.855752 42.457692 23.866836 42.530769 23.878173 42.603846 23.889758 42.676923 23.901585 42.750000 23.913648 42.823077 23.925943 42.896154 23.938463 42.969231 23.951203 43.042308 23.964157 43.115385 23.977319 43.188462 23.990684 43.261538 24.004247 43.334615 24.018002 43.407692 24.031942 43.480769 24.046063 43.553846 24.060359 43.626923 24.074825 43.700000 24.089454 43.773077 24.104241 43.846154 24.119180 43.919231 24.134266 43.992308 24.149494 44.065385 24.164857 44.138462 24.180350 44.211538 24.195968 44.284615 24.211705 44.357692 24.227554 44.430769 24.243511 44.503846 24.259571 44.576923 24.275726 44.650000 24.291973 44.723077 24.308304 44.796154 24.324715 44.869231 24.341200 44.942308 24.357753 45.015385 24.374369 45.088462 24.391043 45.161538 24.407767 45.234615 24.424538 45.307692 24.441348 45.380769 24.458194 45.453846 24.475068 45.526923 24.491966 45.600000 24.508882 45.673077 24.525810 45.746154 24.542745 45.819231 24.559681 45.892308 24.576612 45.965385 24.593533 46.038462 24.610438 46.111538 24.627321 46.184615 24.644178 46.257692 24.661002 46.330769 24.677788 46.403846 24.694530 46.476923 24.711222 46.550000 24.727859 46.623077 24.744436 46.696154 24.760946 46.769231 24.777385 46.842308 24.793746 46.915385 24.810024 46.988462 24.826213 47.061538 24.842308 47.134615 24.858302 47.207692 24.874192 47.280769 24.889970 47.353846 24.905631 47.426923 24.921170 47.500000 24.936581 47.573077 24.951858 47.646154 24.966996 47.719231 24.981990 47.792308 24.996833 47.865385 25.011519 47.938462 25.026045 48.011538 25.040402 48.084615 25.054588 48.157692 25.068594 48.230769 25.082417 48.303846 25.096049 48.376923 25.109487 48.450000 25.122724 48.523077 25.135754 48.596154 25.148572 48.669231 25.161172 48.742308 25.173549 48.815385 25.185697 48.888462 25.197610 48.961538 25.209283 49.034615 25.220711 49.107692 25.231887 49.180769 25.242806 49.253846 25.253462 49.326923 25.263850 49.400000 25.273964 49.473077 25.283799 49.546154 25.293349 49.619231 25.302608 49.692308 25.311571 49.765385 25.320232 49.838462 25.328586 49.911538 25.336626 49.984615 25.344348 50.057692 25.351746 50.130769 25.358813 50.203846 25.365545 50.276923 25.371936 50.350000 25.377980 50.423077 25.383672 50.496154 25.389006 50.569231 25.393976 50.642308 25.398577 50.715385 25.402803 50.788462 25.406649 50.861538 25.410109 50.934615 25.413177 51.007692 25.415848 51.080769 25.418117 51.153846 25.419976 51.226923 25.421422 51.300000 25.422448 51.373077 25.423049 51.446154 25.423219 51.519231 25.422952 51.592308 25.422243 51.665385 25.421087 51.738462 25.419477 51.811538 25.417408 51.884615 25.414875 51.957692 25.411872 52.030769 25.408392 52.103846 25.404432 52.176923 25.399984 52.250000 25.395044 52.323077 25.389606 52.396154 25.383664 52.469231 25.377213 52.542308 25.370246 52.615385 25.362759 52.688462 25.354746 52.761538 25.346200 52.834615 25.337118 52.907692 25.327492 52.980769 25.317318 53.053846 25.306589 53.126923 25.295300 53.200000 25.283446 53.273077 25.271021 53.346154 25.258019 53.419231 25.244435 53.492308 25.230263 53.565385 25.215497 53.638462 25.200132 53.711538 25.184163 53.784615 25.167583 53.857692 25.150387 53.930769 25.132569 54.003846 25.114125 54.076923 25.095047 54.150000 25.075331 54.223077 25.054971 54.296154 25.033961 54.369231 25.012296 54.442308 24.989971 54.515385 24.966978 54.588462 24.943314 54.661538 24.918972 54.734615 24.893947 54.807692 24.868233 54.880769 24.841824 54.953846 24.814715 55.026923 24.786901 55.100000 24.758375 55.173077 24.729132 55.246154 24.699167 55.319231 24.668473 55.392308 24.637046 55.465385 24.604879 55.538462 24.571968 55.611538 24.538305 55.684615 24.503887 55.757692 24.468707 55.830769 24.432759 55.903846 24.396038 55.976923 24.358539 56.050000 24.320255 56.123077 24.281182 56.196154 24.241313 56.269231 24.200642 56.342308 24.159166 56.415385 24.116877 56.488462 24.073770 56.561538 24.029839 56.634615 23.985080 56.707692 23.939485 56.780769 23.893051 56.853846 23.845770 56.926923 23.797638 57.000000 23.748648 57.073077 23.698798 57.146154 23.648092 57.219231 23.596537 57.292308 23.544140 57.365385 23.490907 57.438462 23.436846 57.511538 23.381963 57.584615 23.326265 57.657692 23.269759 57.730769 23.212452 57.803846 23.154351 57.876923 23.095462 57.950000 23.035792 58.023077 22.975349 58.096154 22.914139 58.169231 22.852169 58.242308 22.789446 58.315385 22.725976 58.388462 22.661766 58.461538 22.596824 58.534615 22.531156 58.607692 22.464770 58.680769 22.397670 58.753846 22.329866 58.826923 22.261363 58.900000 22.192169 58.973077 22.122290 59.046154 22.051733 59.119231 21.980504 59.192308 21.908612 59.265385 21.836062 59.338462 21.762862 59.411538 21.689018 59.484615 21.614537 59.557692 21.539426 59.630769 21.463692 59.703846 21.387342 59.776923 21.310382 59.850000 21.232820 59.923077 21.154662 59.996154 21.075915 60.069231 20.996585 60.142308 20.916681 60.215385 20.836208 60.288462 20.755174 60.361538 20.673585 60.434615 20.591449 60.507692 20.508771 60.580769 20.425559 60.653846 20.341820 60.726923 20.257560 60.800000 20.172787 60.873077 20.087507 60.946154 20.001727 61.019231 19.915455 61.092308 19.828695 61.165385 19.741457 61.238462 19.653746 61.311538 19.565569 61.384615 19.476934 61.457692 19.387846 61.530769 19.298314 61.603846 19.208343 61.676923 19.117941 61.750000 19.027114 61.823077 18.935869 61.896154 18.844213 61.969231 18.752154 62.042308 18.659697 62.115385 18.566850 62.188462 18.473619 62.261538 18.380012 62.334615 18.286035 62.407692 18.191695 62.480769 18.096998 62.553846 18.001953 62.626923 17.906565 62.700000 17.810841 62.773077 17.714789 62.846154 17.618415 62.919231 17.521726 62.992308 17.424728 63.065385 17.327429 63.138462 17.229836 63.211538 17.131955 63.284615 17.033793 63.357692 16.935358 63.430769 16.836655 63.503846 16.737692 63.576923 16.638475 63.650000 16.539012 63.723077 16.439309 63.796154 16.339374 63.869231 16.239212 63.942308 16.138831 64.015385 16.038238 64.088462 15.937439 64.161538 15.836442 64.234615 15.735252 64.307692 15.633878 64.380769 15.532326 64.453846 15.430602 64.526923 15.328714 64.600000 15.226669 64.673077 15.124472 64.746154 15.022132 64.819231 14.919655 64.892308 14.817048 64.965385 14.714317 65.038462 14.611470 65.111538 14.508513 65.184615 14.405453 65.257692 14.302298 65.330769 14.199053 65.403846 14.095726 65.476923 13.992324 65.550000 13.888853 65.623077 13.785320 65.696154 13.681733 65.769231 13.578098 65.842308 13.474421 65.915385 13.370710 65.988462 13.266971 66.061538 13.163212 66.134615 13.059439 66.207692 12.955659 66.280769 12.851880 66.353846 12.748106 66.426923 12.644347 66.500000 12.540608 66.573077 12.436896 66.646154 12.333218 66.719231 12.229581 66.792308 12.125992 66.865385 12.022458 66.938462 11.918985 67.011538 11.815581 67.084615 11.712252 67.157692 11.609005 67.230769 11.505847 67.303846 11.402784 67.376923 11.299825 67.450000 11.196974 67.523077 11.094240 67.596154 10.991629 67.669231 10.889148 67.742308 10.786804 67.815385 10.684604 67.888462 10.582554 67.961538 10.480662 68.034615 10.378934 68.107692 10.277376 68.180769 10.175997 68.253846 10.074803 68.326923 9.973800 68.400000 9.872996 68.473077 9.772396 68.546154 9.672010 68.619231 9.571842 68.692308 9.471899 68.765385 9.372190 68.838462 9.272720 68.911538 9.173497 68.984615 9.074527 69.057692 8.975816 69.130769 8.877373 69.203846 8.779204 69.276923 8.681315 69.350000 8.583714 69.423077 8.486406 69.496154 8.389401 69.569231 8.292703 69.642308 8.196320 69.715385 8.100258 69.788462 8.004526 69.861538 7.909128 69.934615 7.814073 70.007692 7.719367 70.080769 7.625017 70.153846 7.531029 70.226923 7.437412 70.300000 7.344170 70.373077 7.251313 70.446154 7.158845 70.519231 7.066774 70.592308 6.975107 70.665385 6.883851 70.738462 6.793012 70.811538 6.702598 70.884615 6.612615 70.957692 6.523070 71.030769 6.433970 71.103846 6.345322 71.176923 6.257133 71.250000 6.169409 71.323077 6.082157 71.396154 5.995384 71.469231 5.909098 71.542308 5.823304 71.615385 5.738010 71.688462 5.653223 71.761538 5.568949 71.834615 5.485195 71.907692 5.401969 71.980769 5.319276 72.053846 5.237124 72.126923 5.155520 72.200000 5.074470 72.273077 4.993982 72.346154 4.914062 72.419231 4.834716 72.492308 4.755953 72.565385 4.677779 72.638462 4.600200 72.711538 4.523223 72.784615 4.446856 72.857692 4.371104 72.930769 4.295976 73.003846 4.221478 73.076923 4.147616 73.150000 4.074398 73.223077 4.001830 73.296154 3.929919 73.369231 3.858672 73.442308 3.788096 73.515385 3.718198 73.588462 3.648984 73.661538 3.580462 73.734615 3.512638 73.807692 3.445520 73.880769 3.379113 73.953846 3.313425 74.026923 3.248463 74.100000 3.184233 74.173077 3.120742 74.246154 3.057998 74.319231 2.996007 74.392308 2.934775 74.465385 2.874311 74.538462 2.814620 74.611538 2.755709 74.684615 2.697586 74.757692 2.640257 74.830769 2.583728 74.903846 2.528008 74.976923 2.473102 75.050000 2.419018 75.123077 2.365762 75.196154 2.313341 75.269231 2.261763 75.342308 2.211031 75.415385 2.161146 75.488462 2.112102 75.561538 2.063898 75.634615 2.016531 75.707692 1.969995 75.780769 1.924290 75.853846 1.879411 75.926923 1.835355 76.000000 1.792119 76.073077 1.749700 76.146154 1.708094 76.219231 1.667299 76.292308 1.627311 76.365385 1.588127 76.438462 1.549743 76.511538 1.512157 76.584615 1.475365 76.657692 1.439365 76.730769 1.404152 76.803846 1.369724 76.876923 1.336077 76.950000 1.303208 77.023077 1.271115 77.096154 1.239793 77.169231 1.209240 77.242308 1.179452 77.315385 1.150426 77.388462 1.122159 77.461538 1.094648 77.534615 1.067890 77.607692 1.041880 77.680769 1.016617 77.753846 0.992097 77.826923 0.968316 77.900000 0.945272 77.973077 0.922961 78.046154 0.901380 78.119231 0.880525 78.192308 0.860395 78.265385 0.840985 78.338462 0.822291 78.411538 0.804312 78.484615 0.787044 78.557692 0.770483 78.630769 0.754626 78.703846 0.739471 78.776923 0.725013 78.850000 0.711250 78.923077 0.698179 78.996154 0.685795 79.069231 0.674097 79.142308 0.663081 79.215385 0.652743 79.288462 0.643081 79.361538 0.634090 79.434615 0.625769 79.507692 0.618113 79.580769 0.611120 79.653846 0.604787 79.726923 0.599109 79.800000 0.594085 79.873077 0.589710 79.946154 0.585981 80.019231 0.582896 80.092308 0.580451 80.165385 0.578642 80.238462 0.577467 80.311538 0.576923 80.384615 0.577006 80.457692 0.577713 80.530769 0.579040 80.603846 0.580985 80.676923 0.583545 80.750000 0.586716 80.823077 0.590494 80.896154 0.594877 80.969231 0.599862 81.042308 0.605445 81.115385 0.611623 81.188462 0.618393 81.261538 0.625751 81.334615 0.633695 81.407692 0.642221 81.480769 0.651327 81.553846 0.661007 81.626923 0.671261 81.700000 0.682084 81.773077 0.693473 81.846154 0.705425 81.919231 0.717936 81.992308 0.731005 82.065385 0.744626 82.138462 0.758797 82.211538 0.773516 82.284615 0.788778 82.357692 0.804580 82.430769 0.820920 82.503846 0.837794 82.576923 0.855198 82.650000 0.873130 82.723077 0.891587 82.796154 0.910564 82.869231 0.930060 82.942308 0.950070 83.015385 0.970592 83.088462 0.991622 83.161538 1.013157 83.234615 1.035195 83.307692 1.057730 83.380769 1.080762 83.453846 1.104285 83.526923 1.128298 83.600000 1.152796 83.673077 1.177777 83.746154 1.203237 83.819231 1.229174 83.892308 1.255583 83.965385 1.282462 84.038462 1.309808 84.111538 1.337617 84.184615 1.365886 84.257692 1.394612 84.330769 1.423792 84.403846 1.453422 84.476923 1.483500 84.550000 1.514021 84.623077 1.544983 84.696154 1.576383 84.769231 1.608218 84.842308 1.640483 84.915385 1.673177 84.988462 1.706295 85.061538 1.739835 85.134615 1.773793 85.207692 1.808167 85.280769 1.842952 85.353846 1.878146 85.426923 1.913745 85.500000 1.949747 85.573077 1.986148 85.646154 2.022944 85.719231 2.060133 85.792308 2.097712 85.865385 2.135677 85.938462 2.174025 86.011538 2.212752 86.084615 2.251857 86.157692 2.291334 86.230769 2.331182 86.303846 2.371397 86.376923 2.411975 86.450000 2.452914 86.523077 2.494210 86.596154 2.535860 86.669231 2.577861 86.742308 2.620210 86.815385 2.662903 86.888462 2.705938 86.961538 2.749310 87.034615 2.793017 87.107692 2.837056 87.180769 2.881423 87.253846 2.926116 87.326923 2.971130 87.400000 3.016463 87.473077 3.062112 87.546154 3.108072 87.619231 3.154342 87.692308 3.200918 87.765385 3.247797 87.838462 3.294975 87.911538 3.342449 87.984615 3.390216 88.057692 3.438273 88.130769 3.486617 88.203846 3.535244 88.276923 3.584151 88.350000 3.633335 88.423077 3.682793 88.496154 3.732522 88.569231 3.782517 88.642308 3.832777 88.715385 3.883298 88.788462 3.934076 88.861538 3.985109 88.934615 4.036394 89.007692 4.087926 89.080769 4.139703 89.153846 4.191722 89.226923 4.243979 89.300000 4.296471 89.373077 4.349195 89.446154 4.402148 89.519231 4.455327 89.592308 4.508728 89.665385 4.562348 89.738462 4.616184 89.811538 4.670232 89.884615 4.724490 89.957692 4.778955 90.030769 4.833622 90.103846 4.888490 90.176923 4.943554 90.250000 4.998811 90.323077 5.054259 90.396154 5.109893 90.469231 5.165712 90.542308 5.221711 90.615385 5.277887 90.688462 5.334237 90.761538 5.390759 90.834615 5.447448 90.907692 5.504301 90.980769 5.561316 91.053846 5.618489 91.126923 5.675817 91.200000 5.733297 91.273077 5.790924 91.346154 5.848698 91.419231 5.906613 91.492308 5.964667 91.565385 6.022856 91.638462 6.081178 91.711538 6.139629 91.784615 6.198206 91.857692 6.256906 91.930769 6.315725 92.003846 6.374661 92.076923 6.433709 92.150000 6.492868 92.223077 6.552133 92.296154 6.611502 92.369231 6.670971 92.442308 6.730537 92.515385 6.790196 92.588462 6.849947 92.661538 6.909785 92.734615 6.969706 92.807692 7.029709 92.880769 7.089790 92.953846 7.149945 93.026923 7.210172 93.100000 7.270466 93.173077 7.330826 93.246154 7.391247 93.319231 7.451727 93.392308 7.512261 93.465385 7.572848 93.538462 7.633484 93.611538 7.694166 93.684615 7.754893 93.757692 7.815666 93.830769 7.876484 93.903846 7.937346 93.976923 7.998254 94.050000 8.059205 94.123077 8.120201 94.196154 8.181242 94.269231 8.242326 94.342308 8.303454 94.415385 8.364626 94.488462 8.425841 94.561538 8.487099 94.634615 8.548401 94.707692 8.609745 94.780769 8.671132 94.853846 8.732561 94.926923 8.794033 95.000000 8.855547 95.073077 8.917103 95.146154 8.978701 95.219231 9.040340 95.292308 9.102021 95.365385 9.163743 95.438462 9.225506 95.511538 9.287310 95.584615 9.349155 95.657692 9.411040 95.730769 9.472965 95.803846 9.534931 95.876923 9.596936 95.950000 9.658982 96.023077 9.721067 96.096154 9.783191 96.169231 9.845355 96.242308 9.907557 96.315385 9.969799 96.388462 10.032079 96.461538 10.094398 96.534615 10.156755 96.607692 10.219150 96.680769 10.281583 96.753846 10.344054 96.826923 10.406562 96.900000 10.469108 96.973077 10.531691 97.046154 10.594311 97.119231 10.656968 97.192308 10.719662 97.265385 10.782392 97.338462 10.845159 97.411538 10.907961 97.484615 10.970800 97.557692 11.033674 97.630769 11.096584 97.703846 11.159529 97.776923 11.222510 97.850000 11.285526 97.923077 11.348576 97.996154 11.411661 98.069231 11.474781 98.142308 11.537934 98.215385 11.601122 98.288462 11.664344 98.361538 11.727600 98.434615 11.790889 98.507692 11.854212 98.580769 11.917568 98.653846 11.980957 98.726923 12.044379 98.800000 12.107833 98.873077 12.171320 98.946154 12.234839 99.019231 12.298390 99.092308 12.361974 99.165385 12.425589 99.238462 12.489235 99.311538 12.552913 99.384615 12.616622 99.457692 12.680362 99.530769 12.744133 99.603846 12.807935 99.676923 12.871767 99.750000 12.935630 99.823077 12.999522 99.896154 13.063445 99.969231 13.127397 100.042308 13.191378 100.115385 13.255390 100.188462 13.319430 100.261538 13.383499 100.334615 13.447597 100.407692 13.511724 100.480769 13.575880 100.553846 13.640063 100.626923 13.704275 100.700000 13.768514 100.773077 13.832782 100.846154 13.897077 100.919231 13.961399 100.992308 14.025748 101.065385 14.090125 101.138462 14.154528 101.211538 14.218958 101.284615 14.283414 101.357692 14.347897 101.430769 14.412406 101.503846 14.476940 101.576923 14.541501 101.650000 14.606087 101.723077 14.670698 101.796154 14.735334 101.869231 14.799996 101.942308 14.864682 102.015385 14.929393 102.088462 14.994128 102.161538 15.058888 102.234615 15.123672 102.307692 15.188479 102.380769 15.253311 102.453846 15.318166 102.526923 15.383044 102.600000 15.447945 102.673077 15.512870 102.746154 15.577817 102.819231 15.642787 102.892308 15.707779 102.965385 15.772794 103.038462 15.837830 103.111538 15.902889 103.184615 15.967969 103.257692 16.033071 103.330769 16.098194 103.403846 16.163338 103.476923 16.228504 103.550000 16.293690 103.623077 16.358896 103.696154 16.424123 103.769231 16.489371 103.842308 16.554638 103.915385 16.619926 103.988462 16.685233 104.061538 16.750559 104.134615 16.815905 104.207692 16.881270 104.280769 16.946654 104.353846 17.012057 104.426923 17.077479 104.500000 17.142919 104.573077 17.208377 104.646154 17.273853 104.719231 17.339347 104.792308 17.404859 104.865385 17.470388 104.938462 17.535935 105.011538 17.601499 105.084615 17.667079 105.157692 17.732677 105.230769 17.798291 105.303846 17.863922 105.376923 17.929568 105.450000 17.995231 105.523077 18.060910 105.596154 18.126605 105.669231 18.192315 105.742308 18.258040 105.815385 18.323780 105.888462 18.389536 105.961538 18.455306 106.034615 18.521091 106.107692 18.586890 106.180769 18.652703 106.253846 18.718531 106.326923 18.784372 106.400000 18.850227 106.473077 18.916096 106.546154 18.981977 106.619231 19.047872 106.692308 19.113780 106.765385 19.179701 106.838462 19.245634 106.911538 19.311580 106.984615 19.377538 107.057692 19.443508 107.130769 19.509490 107.203846 19.575483 107.276923 19.641488 107.350000 19.707505 107.423077 19.773532 107.496154 19.839571 107.569231 19.905620 107.642308 19.971680 107.715385 20.037750 107.788462 20.103830 107.861538 20.169920 107.934615 20.236021 108.007692 20.302131 108.080769 20.368250 108.153846 20.434379 108.226923 20.500517 108.300000 20.566664 108.373077 20.632819 108.446154 20.698983 108.519231 20.765156 108.592308 20.831336 108.665385 20.897525 108.738462 20.963722 108.811538 21.029926 108.884615 21.096138 108.957692 21.162357 109.030769 21.228583 109.103846 21.294816 109.176923 21.361056 109.250000 21.427303 109.323077 21.493555 109.396154 21.559814 109.469231 21.626079 109.542308 21.692350 109.615385 21.758627 109.688462 21.824909 109.761538 21.891196 109.834615 21.957489 109.907692 22.023786 109.980769 22.090088 110.053846 22.156395 110.126923 22.222706 110.200000 22.289021 110.273077 22.355340 110.346154 22.421663 110.419231 22.487990 110.492308 22.554320 110.565385 22.620654 110.638462 22.686990 110.711538 22.753330 110.784615 22.819672 110.857692 22.886017 110.930769 22.952364 111.003846 23.018713 111.076923 23.085065 111.150000 23.151418 111.223077 23.217773 111.296154 23.284129 111.369231 23.350486 111.442308 23.416845 111.515385 23.483205 111.588462 23.549565 111.661538 23.615926 111.734615 23.682287 111.807692 23.748648" class="line reactive nofill" /></g></g><g class="titles" /><g transform="translate(76, 10)" class="plot overlay"><g class="series serie-0 color-0" /></g><g transform="translate(76, 10)" class="plot text-overlay"><g class="series serie-0 color-0" /></g><g transform="translate(76, 10)" class="plot tooltip-overlay"><g transform="translate(0 0)" style="opacity: 0" class="tooltip"><rect rx="0" ry="0" width="0" height="0" class="tooltip-box" /><g class="text" /></g></g></g></svg>