<?xml version='1.0' encoding='utf-8'?>
<svg xmlns="http://www.w3.org/2000/svg" id="chart-3a725669-5eb1-469a-b732-7344c3cbc918" class="pygal-chart pygal-sparkline" viewBox="0 0 200 50" width="200" height="50"><!--Generated with pygal 3.0.4 (etree) ©Kozea 2012-2016 on 2024-04-09--><!--http://pygal.org--><!--http://github.com/Kozea/pygal--><defs><style type="text/css">#chart-3a725669-5eb1-469a-b732-7344c3cbc918{-webkit-user-select:none;-webkit-font-smoothing:antialiased;font-family:Consolas,"Liberation Mono",Menlo,Courier,monospace}#chart-3a725669-5eb1-469a-b732-7344c3cbc918 .title{font-family:Consolas,"Liberation Mono",Menlo,Courier,monospace;font-size:16px}#chart-3a725669-5eb1-469a-b732-7344c3cbc918 .legends .legend text{font-family:Consolas,"Liberation Mono",Menlo,Courier,monospace;font-size:14px}#chart-3a725669-5eb1-469a-b732-7344c3cbc918 .axis text{font-family:Consolas,"Liberation Mono",Menlo,Courier,monospace;font-size:10px}#chart-3a725669-5eb1-469a-b732-7344c3cbc918 .axis text.major{font-family:Consolas,"Liberation Mono",Menlo,Courier,monospace;font-size:10px}#chart-3a725669-5eb1-469a-b732-7344c3cbc918 .text-overlay text.value{font-family:Consolas,"Liberation Mono",Menlo,Courier,monospace;font-size:16px}#chart-3a725669-5eb1-469a-b732-7344c3cbc918 .text-overlay text.label{font-family:Consolas,"Liberation Mono",Menlo,Courier,monospace;font-size:10px}#chart-3a725669-5eb1-469a-b732-7344c3cbc918 .tooltip{font-family:Consolas,"Liberation Mono",Menlo,Courier,monospace;font-size:14px}#chart-3a725669-5eb1-469a-b732-7344c3cbc918 text.no_data{font-family:Consolas,"Liberation Mono",Menlo,Courier,monospace;font-size:64px}
#chart-3a725669-5eb1-469a-b732-7344c3cbc918{background-color:rgba(249,249,249,1)}#chart-3a725669-5eb1-469a-b732-7344c3cbc918 path,#chart-3a725669-5eb1-469a-b732-7344c3cbc918 line,#chart-3a725669-5eb1-469a-b732-7344c3cbc918 rect,#chart-3a725669-5eb1-469a-b732-7344c3cbc918 circle{-webkit-transition:150ms;-moz-transition:150ms;transition:150ms}#chart-3a725669-5eb1-469a-b732-7344c3cbc918 .graph &gt; .background{fill:rgba(249,249,249,1)}#chart-3a725669-5eb1-469a-b732-7344c3cbc918 .plot &gt; .background{fill:rgba(255,255,255,1)}#chart-3a725669-5eb1-469a-b732-7344c3cbc918 .graph{fill:rgba(0,0,0,.87)}#chart-3a725669-5eb1-469a-b732-7344c3cbc918 text.no_data{fill:rgba(0,0,0,1)}#chart-3a725669-5eb1-469a-b732-7344c3cbc918 .title{fill:rgba(0,0,0,1)}#chart-3a725669-5eb1-469a-b732-7344c3cbc918 .legends .legend text{fill:rgba(0,0,0,.87)}#chart-3a725669-5eb1-469a-b732-7344c3cbc918 .legends .legend:hover text{fill:rgba(0,0,0,1)}#chart-3a725669-5eb1-469a-b732-7344c3cbc918 .axis .line{stroke:rgba(0,0,0,1)}#chart-3a725669-5eb1-469a-b732-7344c3cbc918 .axis .guide.line{stroke:rgba(0,0,0,.54)}#chart-3a725669-5eb1-469a-b732-7344c3cbc918 .axis .major.line{stroke:rgba(0,0,0,.87)}#chart-3a725669-5eb1-469a-b732-7344c3cbc918 .axis text.major{fill:rgba(0,0,0,1)}#chart-3a725669-5eb1-469a-b732-7344c3cbc918 .axis.y .guides:hover .guide.line,#chart-3a725669-5eb1-469a-b732-7344c3cbc918 .line-graph .axis.x .guides:hover .guide.line,#chart-3a725669-5eb1-469a-b732-7344c3cbc918 .stackedline-graph .axis.x .guides:hover .guide.line,#chart-3a725669-5eb1-469a-b732-7344c3cbc918 .xy-graph .axis.x .guides:hover .guide.line{stroke:rgba(0,0,0,1)}#chart-3a725669-5eb1-469a-b732-7344c3cbc918 .axis .guides:hover text{fill:rgba(0,0,0,1)}#chart-3a725669-5eb1-469a-b732-7344c3cbc918 .reactive{fill-opacity:.7;stroke-opacity:.8;stroke-width:1}#chart-3a725669-5eb1-469a-b732-7344c3cbc918 .ci{stroke:rgba(0,0,0,.87)}#chart-3a725669-5eb1-469a-b732-7344c3cbc918 .reactive.active,#chart-3a725669-5eb1-469a-b732-7344c3cbc918 .active .reactive{fill-opacity:.8;stroke-opacity:.9;stroke-width:4}#chart-3a725669-5eb1-469a-b732-7344c3cbc918 .ci .reactive.active{stroke-width:1.5}#chart-3a725669-5eb1-469a-b732-7344c3cbc918 .series text{fill:rgba(0,0,0,1)}#chart-3a725669-5eb1-469a-b732-7344c3cbc918 .tooltip rect{fill:rgba(255,255,255,1);stroke:rgba(0,0,0,1);-webkit-transition:opacity 150ms;-moz-transition:opacity 150ms;transition:opacity 150ms}#chart-3a725669-5eb1-469a-b732-7344c3cbc918 .tooltip .label{fill:rgba(0,0,0,.87)}#chart-3a725669-5eb1-469a-b732-7344c3cbc918 .tooltip .label{fill:rgba(0,0,0,.87)}#chart-3a725669-5eb1-469a-b732-7344c3cbc918 .tooltip .legend{font-size:.8em;fill:rgba(0,0,0,.54)}#chart-3a725669-5eb1-469a-b732-7344c3cbc918 .tooltip .x_label{font-size:.6em;fill:rgba(0,0,0,1)}#chart-3a725669-5eb1-469a-b732-7344c3cbc918 .tooltip .xlink{font-size:.5em;text-decoration:underline}#chart-3a725669-5eb1-469a-b732-7344c3cbc918 .tooltip .value{font-size:1.5em}#chart-3a725669-5eb1-469a-b732-7344c3cbc918 .bound{font-size:.5em}#chart-3a725669-5eb1-469a-b732-7344c3cbc918 .max-value{font-size:.75em;fill:rgba(0,0,0,.54)}#chart-3a725669-5eb1-469a-b732-7344c3cbc918 .map-element{fill:rgba(255,255,255,1);stroke:rgba(0,0,0,.54) !important}#chart-3a725669-5eb1-469a-b732-7344c3cbc918 .map-element .reactive{fill-opacity:inherit;stroke-opacity:inherit}#chart-3a725669-5eb1-469a-b732-7344c3cbc918 .color-0,#chart-3a725669-5eb1-469a-b732-7344c3cbc918 .color-0 a:visited{stroke:#F44336;fill:#F44336}#chart-3a725669-5eb1-469a-b732-7344c3cbc918 .text-overlay .color-0 text{fill:black}
#chart-3a725669-5eb1-469a-b732-7344c3cbc918 text.no_data{text-anchor:middle}#chart-3a725669-5eb1-469a-b732-7344c3cbc918 .guide.line{fill:none}#chart-3a725669-5eb1-469a-b732-7344c3cbc918 .centered{text-anchor:middle}#chart-3a725669-5eb1-469a-b732-7344c3cbc918 .title{text-anchor:middle}#chart-3a725669-5eb1-469a-b732-7344c3cbc918 .legends .legend text{fill-opacity:1}#chart-3a725669-5eb1-469a-b732-7344c3cbc918 .axis.x text{text-anchor:middle}#chart-3a725669-5eb1-469a-b732-7344c3cbc918 .axis.x:not(.web) text[transform]{text-anchor:start}#chart-3a725669-5eb1-469a-b732-7344c3cbc918 .axis.x:not(.web) text[transform].backwards{text-anchor:end}#chart-3a725669-5eb1-469a-b732-7344c3cbc918 .axis.y text{text-anchor:end}#chart-3a725669-5eb1-469a-b732-7344c3cbc918 .axis.y text[transform].backwards{text-anchor:start}#chart-3a725669-5eb1-469a-b732-7344c3cbc918 .axis.y2 text{text-anchor:start}#chart-3a725669-5eb1-469a-b732-7344c3cbc918 .axis.y2 text[transform].backwards{text-anchor:end}#chart-3a725669-5eb1-469a-b732-7344c3cbc918 .axis .guide.line{stroke-dasharray:4,4;stroke:black}#chart-3a725669-5eb1-469a-b732-7344c3cbc918 .axis .major.guide.line{stroke-dasharray:6,6;stroke:black}#chart-3a725669-5eb1-469a-b732-7344c3cbc918 .horizontal .axis.y .guide.line,#chart-3a725669-5eb1-469a-b732-7344c3cbc918 .horizontal .axis.y2 .guide.line,#chart-3a725669-5eb1-469a-b732-7344c3cbc918 .vertical .axis.x .guide.line{opacity:0}#chart-3a725669-5eb1-469a-b732-7344c3cbc918 .horizontal .axis.always_show .guide.line,#chart-3a725669-5eb1-469a-b732-7344c3cbc918 .vertical .axis.always_show .guide.line{opacity:1 !important}#chart-3a725669-5eb1-469a-b732-7344c3cbc918 .axis.y .guides:hover .guide.line,#chart-3a725669-5eb1-469a-b732-7344c3cbc918 .axis.y2 .guides:hover .guide.line,#chart-3a725669-5eb1-469a-b732-7344c3cbc918 .axis.x .guides:hover .guide.line{opacity:1}#chart-3a725669-5eb1-469a-b732-7344c3cbc918 .axis .guides:hover text{opacity:1}#chart-3a725669-5eb1-469a-b732-7344c3cbc918 .nofill{fill:none}#chart-3a725669-5eb1-469a-b732-7344c3cbc918 .subtle-fill{fill-opacity:.2}#chart-3a725669-5eb1-469a-b732-7344c3cbc918 .dot{stroke-width:1px;fill-opacity:1;stroke-opacity:1}#chart-3a725669-5eb1-469a-b732-7344c3cbc918 .dot.active{stroke-width:5px}#chart-3a725669-5eb1-469a-b732-7344c3cbc918 .dot.negative{fill:transparent}#chart-3a725669-5eb1-469a-b732-7344c3cbc918 text,#chart-3a725669-5eb1-469a-b732-7344c3cbc918 tspan{stroke:none !important}#chart-3a725669-5eb1-469a-b732-7344c3cbc918 .series text.active{opacity:1}#chart-3a725669-5eb1-469a-b732-7344c3cbc918 .tooltip rect{fill-opacity:.95;stroke-width:.5}#chart-3a725669-5eb1-469a-b732-7344c3cbc918 .tooltip text{fill-opacity:1}#chart-3a725669-5eb1-469a-b732-7344c3cbc918 .showable{visibility:hidden}#chart-3a725669-5eb1-469a-b732-7344c3cbc918 .showable.shown{visibility:visible}#chart-3a725669-5eb1-469a-b732-7344c3cbc918 .gauge-background{fill:rgba(229,229,229,1);stroke:none}#chart-3a725669-5eb1-469a-b732-7344c3cbc918 .bg-lines{stroke:rgba(249,249,249,1);stroke-width:2px}</style><script type="text/javascript">window.pygal = window.pygal || {};window.pygal.config = window.pygal.config || {};window.pygal.config['3a725669-5eb1-469a-b732-7344c3cbc918'] = {"allow_interruptions": false, "box_mode": "extremes", "classes": ["pygal-chart", "pygal-sparkline"], "css": ["file://style.css", "file://graph.css"], "defs": [], "disable_xml_declaration": false, "dots_size": 2.5, "dynamic_print_values": false, "explicit_size": true, "fill": false, "force_uri_protocol": "https", "formatter": null, "half_pie": false, "height": 50, "include_x_axis": false, "inner_radius": 0, "interpolate": "cubic", "interpolation_parameters": {}, "interpolation_precision": 250, "inverse_y_axis": false, "js": [], "legend_at_bottom": false, "legend_at_bottom_columns": null, "legend_box_size": 12, "logarithmic": false, "margin": 10, "margin_bottom": null, "margin_left": null, "margin_right": null, "margin_top": null, "max_scale": 2, "min_scale": 1, "missing_value_fill_truncation": "x", "no_data_text": "", "no_prefix": false, "order_min": null, "pretty_print": false, "print_labels": false, "print_values": false, "print_values_position": "center", "print_zeroes": true, "range": null, "rounded_bars": null, "secondary_range": null, "show_dots": false, "show_legend": false, "show_minor_x_labels": true, "show_minor_y_labels": true, "show_only_major_dots": false, "show_x_guides": false, "show_x_labels": true, "show_y_guides": true, "show_y_labels": true, "spacing": 0, "stack_from_top": false, "strict": false, "stroke": true, "stroke_style": null, "style": {"background": "rgba(249, 249, 249, 1)", "ci_colors": [], "colors": ["#F44336", "#3F51B5", "#009688", "#FFC107", "#FF5722", "#9C27B0", "#03A9F4", "#8BC34A", "#FF9800", "#E91E63", "#2196F3", "#4CAF50", "#FFEB3B", "#673AB7", "#00BCD4", "#CDDC39", "#9E9E9E", "#607D8B"], "dot_opacity": "1", "font_family": "Consolas, \"Liberation Mono\", Menlo, Courier, monospace", "foreground": "rgba(0, 0, 0, .87)", "foreground_strong": "rgba(0, 0, 0, 1)", "foreground_subtle": "rgba(0, 0, 0, .54)", "guide_stroke_color": "black", "guide_stroke_dasharray": "4,4", "label_font_family": "Consolas, \"Liberation Mono\", Menlo, Courier, monospace", "label_font_size": 10, "legend_font_family": "Consolas, \"Liberation Mono\", Menlo, Courier, monospace", "legend_font_size": 14, "major_guide_stroke_color": "black", "major_guide_stroke_dasharray": "6,6", "major_label_font_family": "Consolas, \"Liberation Mono\", Menlo, Courier, monospace", "major_label_font_size": 10, "no_data_font_family": "Consolas, \"Liberation Mono\", Menlo, Courier, monospace", "no_data_font_size": 64, "opacity": ".7", "opacity_hover": ".8", "plot_background": "rgba(255, 255, 255, 1)", "stroke_opacity": ".8", "stroke_opacity_hover": ".9", "stroke_width": "1", "stroke_width_hover": "4", "title_font_family": "Consolas, \"Liberation Mono\", Menlo, Courier, monospace", "title_font_size": 16, "tooltip_font_family": "Consolas, \"Liberation Mono\", Menlo, Courier, monospace", "tooltip_font_size": 14, "transition": "150ms", "value_background": "rgba(229, 229, 229, 1)", "value_colors": [], "value_font_family": "Consolas, \"Liberation Mono\", Menlo, Courier, monospace", "value_font_size": 16, "value_label_font_family": "Consolas, \"Liberation Mono\", Menlo, Courier, monospace", "value_label_font_size": 10}, "title": null, "tooltip_border_radius": 0, "tooltip_fancy_mode": true, "truncate_label": null, "truncate_legend": null, "width": 200, "x_label_rotation": 0, "x_labels": ["2024/4", "2023/12", "2023/10", "2023/9", "2023/8", "2023/7", "2023/5", "2023/4", "2022/10", "2022/8"], "x_labels_major": null, "x_labels_major_count": null, "x_labels_major_every": null, "x_title": null, "xrange": null, "y_label_rotation": 0, "y_labels": null, "y_labels_major": null, "y_labels_major_count": null, "y_labels_major_every": null, "y_title": null, "zero": 0, "legends": [""]}</script></defs><title>Pygal</title><g class="graph line-graph vertical"><rect x="0" y="0" width="200" height="50" class="background" /><g transform="translate(20, 10)" class="plot"><rect x="0" y="0" width="170" height="20" class="background" /><g class="axis y always_show"><path d="M0.000000 20.000000 h170.000000" class="line" /><g class="guides"><path d="M0.000000 18.792178 h170.000000" class="guide line" /><text x="-5" y="22.29217795497013" class="">1</text><title>1</title></g><g class="guides"><path d="M0.000000 0.416150 h170.000000" class="guide line" /><text x="-5" y="3.9161497063744406" class="">3</text><title>3</title></g></g><g class="axis x"><g class="guides"><path d="M3.269231 0.000000 v20.000000" class="line" /><text x="3.269230769230769" y="35.0" class="">2…</text><title>2024/4</title></g><g class="guides"><path d="M21.431624 0.000000 v20.000000" class="guide line" /><text x="21.43162393162393" y="35.0" class="">2…</text><title>2023/12</title></g><g class="guides"><path d="M39.594017 0.000000 v20.000000" class="guide line" /><text x="39.59401709401709" y="35.0" class="">2…</text><title>2023/10</title></g><g class="guides"><path d="M57.756410 0.000000 v20.000000" class="guide line" /><text x="57.756410256410255" y="35.0" class="">2…</text><title>2023/9</title></g><g class="guides"><path d="M75.918803 0.000000 v20.000000" class="guide line" /><text x="75.9188034188034" y="35.0" class="">2…</text><title>2023/8</title></g><g class="guides"><path d="M94.081197 0.000000 v20.000000" class="guide line" /><text x="94.08119658119658" y="35.0" class="">2…</text><title>2023/7</title></g><g class="guides"><path d="M112.243590 0.000000 v20.000000" class="guide line" /><text x="112.24358974358974" y="35.0" class="">2…</text><title>2023/5</title></g><g class="guides"><path d="M130.405983 0.000000 v20.000000" class="guide line" /><text x="130.4059829059829" y="35.0" class="">2…</text><title>2023/4</title></g><g class="guides"><path d="M148.568376 0.000000 v20.000000" class="guide line" /><text x="148.56837606837607" y="35.0" class="">2…</text><title>2022/10</title></g><g class="guides"><path d="M166.730769 0.000000 v20.000000" class="guide line" /><text x="166.73076923076923" y="35.0" class="">2…</text><title>2022/8</title></g></g><g class="series serie-0 color-0"><path d="M3.269231 18.792178 L3.341880 18.800733 3.414530 18.809287 3.487179 18.817840 3.559829 18.826390 3.632479 18.834936 3.705128 18.843479 3.777778 18.852017 3.850427 18.860549 3.923077 18.869074 3.995726 18.877592 4.068376 18.886102 4.141026 18.894602 4.213675 18.903093 4.286325 18.911574 4.358974 18.920042 4.431624 18.928499 4.504274 18.936942 4.576923 18.945371 4.649573 18.953786 4.722222 18.962185 4.794872 18.970567 4.867521 18.978932 4.940171 18.987279 5.012821 18.995608 5.085470 19.003916 5.158120 19.012204 5.230769 19.020471 5.303419 19.028716 5.376068 19.036937 5.448718 19.045135 5.521368 19.053308 5.594017 19.061455 5.666667 19.069577 5.739316 19.077671 5.811966 19.085737 5.884615 19.093775 5.957265 19.101783 6.029915 19.109760 6.102564 19.117707 6.175214 19.125621 6.247863 19.133502 6.320513 19.141350 6.393162 19.149164 6.465812 19.156942 6.538462 19.164683 6.611111 19.172388 6.683761 19.180056 6.756410 19.187684 6.829060 19.195273 6.901709 19.202822 6.974359 19.210330 7.047009 19.217796 7.119658 19.225219 7.192308 19.232599 7.264957 19.239934 7.337607 19.247224 7.410256 19.254468 7.482906 19.261666 7.555556 19.268815 7.628205 19.275917 7.700855 19.282969 7.773504 19.289971 7.846154 19.296922 7.918803 19.303821 7.991453 19.310667 8.064103 19.317461 8.136752 19.324200 8.209402 19.330884 8.282051 19.337512 8.354701 19.344084 8.427350 19.350598 8.500000 19.357053 8.572650 19.363450 8.645299 19.369787 8.717949 19.376062 8.790598 19.382277 8.863248 19.388429 8.935897 19.394517 9.008547 19.400542 9.081197 19.406501 9.153846 19.412395 9.226496 19.418223 9.299145 19.423983 9.371795 19.429675 9.444444 19.435298 9.517094 19.440851 9.589744 19.446334 9.662393 19.451745 9.735043 19.457083 9.807692 19.462349 9.880342 19.467541 9.952991 19.472658 10.025641 19.477699 10.098291 19.482664 10.170940 19.487552 10.243590 19.492362 10.316239 19.497093 10.388889 19.501745 10.461538 19.506315 10.534188 19.510805 10.606838 19.515213 10.679487 19.519537 10.752137 19.523778 10.824786 19.527934 10.897436 19.532005 10.970085 19.535989 11.042735 19.539886 11.115385 19.543696 11.188034 19.547417 11.260684 19.551048 11.333333 19.554589 11.405983 19.558039 11.478632 19.561397 11.551282 19.564662 11.623932 19.567833 11.696581 19.570910 11.769231 19.573892 11.841880 19.576778 11.914530 19.579566 11.987179 19.582257 12.059829 19.584850 12.132479 19.587343 12.205128 19.589735 12.277778 19.592027 12.350427 19.594217 12.423077 19.596304 12.495726 19.598288 12.568376 19.600168 12.641026 19.601942 12.713675 19.603611 12.786325 19.605172 12.858974 19.606626 12.931624 19.607972 13.004274 19.609209 13.076923 19.610335 13.149573 19.611350 13.222222 19.612254 13.294872 19.613046 13.367521 19.613724 13.440171 19.614287 13.512821 19.614736 13.585470 19.615069 13.658120 19.615286 13.730769 19.615385 13.803419 19.615365 13.876068 19.615227 13.948718 19.614969 14.021368 19.614590 14.094017 19.614089 14.166667 19.613466 14.239316 19.612720 14.311966 19.611850 14.384615 19.610855 14.457265 19.609734 14.529915 19.608487 14.602564 19.607113 14.675214 19.605610 14.747863 19.603979 14.820513 19.602217 14.893162 19.600325 14.965812 19.598302 15.038462 19.596147 15.111111 19.593858 15.183761 19.591436 15.256410 19.588879 15.329060 19.586186 15.401709 19.583357 15.474359 19.580391 15.547009 19.577287 15.619658 19.574044 15.692308 19.570662 15.764957 19.567139 15.837607 19.563475 15.910256 19.559668 15.982906 19.555719 16.055556 19.551626 16.128205 19.547389 16.200855 19.543006 16.273504 19.538477 16.346154 19.533801 16.418803 19.528977 16.491453 19.524005 16.564103 19.518883 16.636752 19.513611 16.709402 19.508187 16.782051 19.502612 16.854701 19.496884 16.927350 19.491002 17.000000 19.484966 17.072650 19.478775 17.145299 19.472428 17.217949 19.465923 17.290598 19.459261 17.363248 19.452441 17.435897 19.445461 17.508547 19.438321 17.581197 19.431021 17.653846 19.423558 17.726496 19.415933 17.799145 19.408144 17.871795 19.400191 17.944444 19.392073 18.017094 19.383789 18.089744 19.375339 18.162393 19.366720 18.235043 19.357934 18.307692 19.348978 18.380342 19.339852 18.452991 19.330556 18.525641 19.321088 18.598291 19.311447 18.670940 19.301633 18.743590 19.291645 18.816239 19.281482 18.888889 19.271143 18.961538 19.260628 19.034188 19.249935 19.106838 19.239064 19.179487 19.228014 19.252137 19.216784 19.324786 19.205373 19.397436 19.193781 19.470085 19.182007 19.542735 19.170049 19.615385 19.157908 19.688034 19.145582 19.760684 19.133070 19.833333 19.120371 19.905983 19.107486 19.978632 19.094412 20.051282 19.081149 20.123932 19.067697 20.196581 19.054054 20.269231 19.040220 20.341880 19.026194 20.414530 19.011974 20.487179 18.997561 20.559829 18.982953 20.632479 18.968150 20.705128 18.953150 20.777778 18.937954 20.850427 18.922559 20.923077 18.906966 20.995726 18.891173 21.068376 18.875179 21.141026 18.858985 21.213675 18.842588 21.286325 18.825989 21.358974 18.809186 21.431624 18.792178 21.504274 18.774965 21.576923 18.757548 21.649573 18.739926 21.722222 18.722101 21.794872 18.704073 21.867521 18.685842 21.940171 18.667409 22.012821 18.648776 22.085470 18.629941 22.158120 18.610907 22.230769 18.591672 22.303419 18.572239 22.376068 18.552608 22.448718 18.532778 22.521368 18.512752 22.594017 18.492529 22.666667 18.472110 22.739316 18.451495 22.811966 18.430685 22.884615 18.409681 22.957265 18.388483 23.029915 18.367092 23.102564 18.345509 23.175214 18.323733 23.247863 18.301766 23.320513 18.279609 23.393162 18.257260 23.465812 18.234723 23.538462 18.211996 23.611111 18.189080 23.683761 18.165977 23.756410 18.142686 23.829060 18.119208 23.901709 18.095544 23.974359 18.071694 24.047009 18.047660 24.119658 18.023440 24.192308 17.999037 24.264957 17.974451 24.337607 17.949681 24.410256 17.924730 24.482906 17.899597 24.555556 17.874283 24.628205 17.848788 24.700855 17.823114 24.773504 17.797260 24.846154 17.771228 24.918803 17.745017 24.991453 17.718629 25.064103 17.692064 25.136752 17.665322 25.209402 17.638405 25.282051 17.611312 25.354701 17.584045 25.427350 17.556603 25.500000 17.528988 25.572650 17.501200 25.645299 17.473240 25.717949 17.445108 25.790598 17.416805 25.863248 17.388331 25.935897 17.359687 26.008547 17.330874 26.081197 17.301891 26.153846 17.272741 26.226496 17.243422 26.299145 17.213937 26.371795 17.184285 26.444444 17.154467 26.517094 17.124483 26.589744 17.094335 26.662393 17.064022 26.735043 17.033546 26.807692 17.002907 26.880342 16.972105 26.952991 16.941141 27.025641 16.910016 27.098291 16.878730 27.170940 16.847283 27.243590 16.815677 27.316239 16.783912 27.388889 16.751989 27.461538 16.719907 27.534188 16.687669 27.606838 16.655273 27.679487 16.622722 27.752137 16.590014 27.824786 16.557152 27.897436 16.524136 27.970085 16.490965 28.042735 16.457641 28.115385 16.424165 28.188034 16.390536 28.260684 16.356756 28.333333 16.322825 28.405983 16.288743 28.478632 16.254512 28.551282 16.220131 28.623932 16.185602 28.696581 16.150925 28.769231 16.116100 28.841880 16.081128 28.914530 16.046010 28.987179 16.010746 29.059829 15.975337 29.132479 15.939784 29.205128 15.904086 29.277778 15.868245 29.350427 15.832261 29.423077 15.796135 29.495726 15.759867 29.568376 15.723458 29.641026 15.686908 29.713675 15.650218 29.786325 15.613389 29.858974 15.576421 29.931624 15.539315 30.004274 15.502071 30.076923 15.464690 30.149573 15.427173 30.222222 15.389520 30.294872 15.351731 30.367521 15.313808 30.440171 15.275750 30.512821 15.237559 30.585470 15.199234 30.658120 15.160778 30.730769 15.122189 30.803419 15.083469 30.876068 15.044618 30.948718 15.005637 31.021368 14.966527 31.094017 14.927287 31.166667 14.887920 31.239316 14.848424 31.311966 14.808801 31.384615 14.769051 31.457265 14.729176 31.529915 14.689174 31.602564 14.649048 31.675214 14.608798 31.747863 14.568423 31.820513 14.527926 31.893162 14.487306 31.965812 14.446563 32.038462 14.405700 32.111111 14.364715 32.183761 14.323610 32.256410 14.282385 32.329060 14.241041 32.401709 14.199579 32.474359 14.157999 32.547009 14.116301 32.619658 14.074486 32.692308 14.032555 32.764957 13.990508 32.837607 13.948347 32.910256 13.906070 32.982906 13.863680 33.055556 13.821176 33.128205 13.778560 33.200855 13.735831 33.273504 13.692991 33.346154 13.650039 33.418803 13.606977 33.491453 13.563805 33.564103 13.520524 33.636752 13.477134 33.709402 13.433636 33.782051 13.390031 33.854701 13.346318 33.927350 13.302499 34.000000 13.258574 34.072650 13.214543 34.145299 13.170408 34.217949 13.126169 34.290598 13.081827 34.363248 13.037381 34.435897 12.992833 34.508547 12.948183 34.581197 12.903432 34.653846 12.858580 34.726496 12.813628 34.799145 12.768577 34.871795 12.723427 34.944444 12.678178 35.017094 12.632832 35.089744 12.587388 35.162393 12.541848 35.235043 12.496211 35.307692 12.450480 35.380342 12.404653 35.452991 12.358732 35.525641 12.312718 35.598291 12.266610 35.670940 12.220410 35.743590 12.174117 35.816239 12.127734 35.888889 12.081259 35.961538 12.034694 36.034188 11.988040 36.106838 11.941296 36.179487 11.894464 36.252137 11.847544 36.324786 11.800537 36.397436 11.753443 36.470085 11.706262 36.542735 11.658996 36.615385 11.611645 36.688034 11.564210 36.760684 11.516691 36.833333 11.469088 36.905983 11.421402 36.978632 11.373635 37.051282 11.325786 37.123932 11.277856 37.196581 11.229845 37.269231 11.181755 37.341880 11.133585 37.414530 11.085336 37.487179 11.037010 37.559829 10.988606 37.632479 10.940125 37.705128 10.891568 37.777778 10.842935 37.850427 10.794226 37.923077 10.745443 37.995726 10.696586 38.068376 10.647656 38.141026 10.598652 38.213675 10.549576 38.286325 10.500429 38.358974 10.451210 38.431624 10.401921 38.504274 10.352562 38.576923 10.303133 38.649573 10.253635 38.722222 10.204069 38.794872 10.154436 38.867521 10.104735 38.940171 10.054968 39.012821 10.005135 39.085470 9.955236 39.158120 9.905273 39.230769 9.855245 39.303419 9.805154 39.376068 9.755000 39.448718 9.704783 39.521368 9.654504 39.594017 9.604164 39.666667 9.553763 39.739316 9.503304 39.811966 9.452788 39.884615 9.402217 39.957265 9.351594 40.029915 9.300920 40.102564 9.250198 40.175214 9.199429 40.247863 9.148615 40.320513 9.097759 40.393162 9.046863 40.465812 8.995929 40.538462 8.944958 40.611111 8.893953 40.683761 8.842915 40.756410 8.791847 40.829060 8.740752 40.901709 8.689630 40.974359 8.638484 41.047009 8.587315 41.119658 8.536127 41.192308 8.484921 41.264957 8.433699 41.337607 8.382463 41.410256 8.331215 41.482906 8.279957 41.555556 8.228692 41.628205 8.177420 41.700855 8.126145 41.773504 8.074868 41.846154 8.023592 41.918803 7.972318 41.991453 7.921048 42.064103 7.869785 42.136752 7.818530 42.209402 7.767286 42.282051 7.716054 42.354701 7.664837 42.427350 7.613636 42.500000 7.562455 42.572650 7.511293 42.645299 7.460155 42.717949 7.409041 42.790598 7.357955 42.863248 7.306897 42.935897 7.255870 43.008547 7.204875 43.081197 7.153916 43.153846 7.102994 43.226496 7.052111 43.299145 7.001269 43.371795 6.950470 43.444444 6.899716 43.517094 6.849009 43.589744 6.798352 43.662393 6.747745 43.735043 6.697192 43.807692 6.646695 43.880342 6.596254 43.952991 6.545873 44.025641 6.495554 44.098291 6.445298 44.170940 6.395108 44.243590 6.344985 44.316239 6.294931 44.388889 6.244949 44.461538 6.195041 44.534188 6.145209 44.606838 6.095454 44.679487 6.045779 44.752137 5.996186 44.824786 5.946677 44.897436 5.897253 44.970085 5.847918 45.042735 5.798672 45.115385 5.749518 45.188034 5.700459 45.260684 5.651495 45.333333 5.602630 45.405983 5.553864 45.478632 5.505201 45.551282 5.456642 45.623932 5.408189 45.696581 5.359845 45.769231 5.311610 45.841880 5.263489 45.914530 5.215481 45.987179 5.167590 46.059829 5.119817 46.132479 5.072165 46.205128 5.024636 46.277778 4.977231 46.350427 4.929952 46.423077 4.882802 46.495726 4.835783 46.568376 4.788897 46.641026 4.742145 46.713675 4.695530 46.786325 4.649054 46.858974 4.602719 46.931624 4.556526 47.004274 4.510479 47.076923 4.464579 47.149573 4.418827 47.222222 4.373227 47.294872 4.327779 47.367521 4.282487 47.440171 4.237352 47.512821 4.192376 47.585470 4.147561 47.658120 4.102910 47.730769 4.058424 47.803419 4.014105 47.876068 3.969956 47.948718 3.925977 48.021368 3.882173 48.094017 3.838544 48.166667 3.795092 48.239316 3.751820 48.311966 3.708729 48.384615 3.665823 48.457265 3.623101 48.529915 3.580568 48.602564 3.538224 48.675214 3.496072 48.747863 3.454114 48.820513 3.412351 48.893162 3.370787 48.965812 3.329422 49.038462 3.288260 49.111111 3.247301 49.183761 3.206548 49.256410 3.166004 49.329060 3.125669 49.401709 3.085547 49.474359 3.045639 49.547009 3.005947 49.619658 2.966473 49.692308 2.927219 49.764957 2.888188 49.837607 2.849381 49.910256 2.810801 49.982906 2.772449 50.055556 2.734327 50.128205 2.696438 50.200855 2.658784 50.273504 2.621366 50.346154 2.584187 50.418803 2.547248 50.491453 2.510552 50.564103 2.474101 50.636752 2.437896 50.709402 2.401940 50.782051 2.366235 50.854701 2.330783 50.927350 2.295586 51.000000 2.260646 51.072650 2.225965 51.145299 2.191544 51.217949 2.157387 51.290598 2.123495 51.363248 2.089870 51.435897 2.056514 51.508547 2.023430 51.581197 1.990618 51.653846 1.958082 51.726496 1.925823 51.799145 1.893843 51.871795 1.862145 51.944444 1.830731 52.017094 1.799601 52.089744 1.768759 52.162393 1.738207 52.235043 1.707946 52.307692 1.677979 52.380342 1.648308 52.452991 1.618934 52.525641 1.589860 52.598291 1.561087 52.670940 1.532618 52.743590 1.504456 52.816239 1.476601 52.888889 1.449056 52.961538 1.421822 53.034188 1.394903 53.106838 1.368300 53.179487 1.342015 53.252137 1.316049 53.324786 1.290406 53.397436 1.265088 53.470085 1.240095 53.542735 1.215430 53.615385 1.191096 53.688034 1.167094 53.760684 1.143426 53.833333 1.120095 53.905983 1.097102 53.978632 1.074450 54.051282 1.052140 54.123932 1.030174 54.196581 1.008555 54.269231 0.987285 54.341880 0.966365 54.414530 0.945798 54.487179 0.925586 54.559829 0.905730 54.632479 0.886233 54.705128 0.867097 54.777778 0.848323 54.850427 0.829915 54.923077 0.811873 54.995726 0.794201 55.068376 0.776899 55.141026 0.759971 55.213675 0.743417 55.286325 0.727241 55.358974 0.711443 55.431624 0.696027 55.504274 0.680994 55.576923 0.666346 55.649573 0.652086 55.722222 0.638215 55.794872 0.624735 55.867521 0.611649 55.940171 0.598958 56.012821 0.586664 56.085470 0.574770 56.158120 0.563277 56.230769 0.552188 56.303419 0.541505 56.376068 0.531229 56.448718 0.521363 56.521368 0.511909 56.594017 0.502868 56.666667 0.494243 56.739316 0.486036 56.811966 0.478249 56.884615 0.470884 56.957265 0.463943 57.029915 0.457427 57.102564 0.451340 57.175214 0.445683 57.247863 0.440457 57.320513 0.435666 57.393162 0.431311 57.465812 0.427394 57.538462 0.423918 57.611111 0.420883 57.683761 0.418293 57.756410 0.416150 57.829060 0.414454 57.901709 0.413204 57.974359 0.412400 58.047009 0.412039 58.119658 0.412120 58.192308 0.412641 58.264957 0.413600 58.337607 0.414996 58.410256 0.416827 58.482906 0.419091 58.555556 0.421787 58.628205 0.424913 58.700855 0.428468 58.773504 0.432449 58.846154 0.436855 58.918803 0.441684 58.991453 0.446935 59.064103 0.452606 59.136752 0.458696 59.209402 0.465202 59.282051 0.472123 59.354701 0.479458 59.427350 0.487204 59.500000 0.495360 59.572650 0.503924 59.645299 0.512895 59.717949 0.522272 59.790598 0.532051 59.863248 0.542232 59.935897 0.552813 60.008547 0.563793 60.081197 0.575169 60.153846 0.586940 60.226496 0.599105 60.299145 0.611661 60.371795 0.624607 60.444444 0.637941 60.517094 0.651662 60.589744 0.665768 60.662393 0.680258 60.735043 0.695129 60.807692 0.710380 60.880342 0.726009 60.952991 0.742015 61.025641 0.758396 61.098291 0.775150 61.170940 0.792276 61.243590 0.809772 61.316239 0.827636 61.388889 0.845867 61.461538 0.864463 61.534188 0.883422 61.606838 0.902743 61.679487 0.922424 61.752137 0.942463 61.824786 0.962858 61.897436 0.983609 61.970085 1.004713 62.042735 1.026169 62.115385 1.047974 62.188034 1.070128 62.260684 1.092628 62.333333 1.115474 62.405983 1.138662 62.478632 1.162193 62.551282 1.186063 62.623932 1.210271 62.696581 1.234817 62.769231 1.259697 62.841880 1.284910 62.914530 1.310455 62.987179 1.336330 63.059829 1.362533 63.132479 1.389063 63.205128 1.415918 63.277778 1.443096 63.350427 1.470596 63.423077 1.498415 63.495726 1.526553 63.568376 1.555007 63.641026 1.583777 63.713675 1.612860 63.786325 1.642254 63.858974 1.671958 63.931624 1.701970 64.004274 1.732290 64.076923 1.762914 64.149573 1.793841 64.222222 1.825070 64.294872 1.856598 64.367521 1.888425 64.440171 1.920549 64.512821 1.952968 64.585470 1.985679 64.658120 2.018683 64.730769 2.051976 64.803419 2.085557 64.876068 2.119426 64.948718 2.153579 65.021368 2.188015 65.094017 2.222733 65.166667 2.257730 65.239316 2.293006 65.311966 2.328559 65.384615 2.364387 65.457265 2.400487 65.529915 2.436860 65.602564 2.473502 65.675214 2.510412 65.747863 2.547589 65.820513 2.585031 65.893162 2.622736 65.965812 2.660703 66.038462 2.698929 66.111111 2.737414 66.183761 2.776156 66.256410 2.815152 66.329060 2.854401 66.401709 2.893902 66.474359 2.933653 66.547009 2.973652 66.619658 3.013898 66.692308 3.054389 66.764957 3.095122 66.837607 3.136098 66.910256 3.177313 66.982906 3.218766 67.055556 3.260456 67.128205 3.302381 67.200855 3.344539 67.273504 3.386929 67.346154 3.429548 67.418803 3.472396 67.491453 3.515470 67.564103 3.558769 67.636752 3.602291 67.709402 3.646035 67.782051 3.689999 67.854701 3.734181 67.927350 3.778579 68.000000 3.823192 68.072650 3.868019 68.145299 3.913057 68.217949 3.958305 68.290598 4.003761 68.363248 4.049423 68.435897 4.095290 68.508547 4.141361 68.581197 4.187633 68.653846 4.234105 68.726496 4.280775 68.799145 4.327642 68.871795 4.374703 68.944444 4.421958 69.017094 4.469404 69.089744 4.517040 69.162393 4.564864 69.235043 4.612875 69.307692 4.661071 69.380342 4.709449 69.452991 4.758010 69.525641 4.806750 69.598291 4.855668 69.670940 4.904763 69.743590 4.954032 69.816239 5.003475 69.888889 5.053089 69.961538 5.102873 70.034188 5.152825 70.106838 5.202944 70.179487 5.253227 70.252137 5.303674 70.324786 5.354282 70.397436 5.405050 70.470085 5.455976 70.542735 5.507059 70.615385 5.558296 70.688034 5.609687 70.760684 5.661229 70.833333 5.712921 70.905983 5.764761 70.978632 5.816747 71.051282 5.868879 71.123932 5.921153 71.196581 5.973569 71.269231 6.026125 71.341880 6.078819 71.414530 6.131649 71.487179 6.184614 71.559829 6.237712 71.632479 6.290942 71.705128 6.344302 71.777778 6.397789 71.850427 6.451403 71.923077 6.505142 71.995726 6.559004 72.068376 6.612988 72.141026 6.667091 72.213675 6.721313 72.286325 6.775651 72.358974 6.830103 72.431624 6.884669 72.504274 6.939346 72.576923 6.994133 72.649573 7.049028 72.722222 7.104030 72.794872 7.159136 72.867521 7.214346 72.940171 7.269657 73.012821 7.325067 73.085470 7.380576 73.158120 7.436181 73.230769 7.491881 73.303419 7.547674 73.376068 7.603559 73.448718 7.659533 73.521368 7.715596 73.594017 7.771745 73.666667 7.827978 73.739316 7.884295 73.811966 7.940693 73.884615 7.997171 73.957265 8.053727 74.029915 8.110359 74.102564 8.167067 74.175214 8.223847 74.247863 8.280699 74.320513 8.337620 74.393162 8.394610 74.465812 8.451666 74.538462 8.508786 74.611111 8.565970 74.683761 8.623215 74.756410 8.680520 74.829060 8.737883 74.901709 8.795303 74.974359 8.852777 75.047009 8.910304 75.119658 8.967883 75.192308 9.025511 75.264957 9.083188 75.337607 9.140910 75.410256 9.198678 75.482906 9.256489 75.555556 9.314341 75.628205 9.372233 75.700855 9.430163 75.773504 9.488129 75.846154 9.546130 75.918803 9.604164 75.991453 9.662229 76.064103 9.720323 76.136752 9.778444 76.209402 9.836589 76.282051 9.894756 76.354701 9.952942 76.427350 10.011145 76.500000 10.069362 76.572650 10.127591 76.645299 10.185830 76.717949 10.244076 76.790598 10.302327 76.863248 10.360580 76.935897 10.418833 77.008547 10.477084 77.081197 10.535330 77.153846 10.593568 77.226496 10.651796 77.299145 10.710013 77.371795 10.768214 77.444444 10.826399 77.517094 10.884564 77.589744 10.942708 77.662393 11.000827 77.735043 11.058919 77.807692 11.116982 77.880342 11.175014 77.952991 11.233012 78.025641 11.290973 78.098291 11.348895 78.170940 11.406776 78.243590 11.464614 78.316239 11.522405 78.388889 11.580148 78.461538 11.637840 78.534188 11.695479 78.606838 11.753062 78.679487 11.810586 78.752137 11.868050 78.824786 11.925451 78.897436 11.982787 78.970085 12.040055 79.042735 12.097252 79.115385 12.154377 79.188034 12.211426 79.260684 12.268398 79.333333 12.325290 79.405983 12.382099 79.478632 12.438824 79.551282 12.495462 79.623932 12.552009 79.696581 12.608465 79.769231 12.664826 79.841880 12.721090 79.914530 12.777255 79.987179 12.833318 80.059829 12.889277 80.132479 12.945129 80.205128 13.000873 80.277778 13.056504 80.350427 13.112022 80.423077 13.167424 80.495726 13.222707 80.568376 13.277868 80.641026 13.332906 80.713675 13.387818 80.786325 13.442602 80.858974 13.497255 80.931624 13.551775 81.004274 13.606158 81.076923 13.660404 81.149573 13.714510 81.222222 13.768472 81.294872 13.822289 81.367521 13.875958 81.440171 13.929477 81.512821 13.982844 81.585470 14.036055 81.658120 14.089109 81.730769 14.142003 81.803419 14.194734 81.876068 14.247301 81.948718 14.299701 82.021368 14.351931 82.094017 14.403989 82.166667 14.455873 82.239316 14.507580 82.311966 14.559108 82.384615 14.610454 82.457265 14.661616 82.529915 14.712591 82.602564 14.763377 82.675214 14.813972 82.747863 14.864374 82.820513 14.914579 82.893162 14.964585 82.965812 15.014390 83.038462 15.063992 83.111111 15.113388 83.183761 15.162576 83.256410 15.211553 83.329060 15.260317 83.401709 15.308865 83.474359 15.357195 83.547009 15.405305 83.619658 15.453192 83.692308 15.500853 83.764957 15.548287 83.837607 15.595491 83.910256 15.642462 83.982906 15.689199 84.055556 15.735698 84.128205 15.781957 84.200855 15.827974 84.273504 15.873746 84.346154 15.919271 84.418803 15.964547 84.491453 16.009571 84.564103 16.054341 84.636752 16.098853 84.709402 16.143107 84.782051 16.187099 84.854701 16.230827 84.927350 16.274289 85.000000 16.317482 85.072650 16.360403 85.145299 16.403051 85.217949 16.445423 85.290598 16.487516 85.363248 16.529328 85.435897 16.570857 85.508547 16.612100 85.581197 16.653055 85.653846 16.693719 85.726496 16.734090 85.799145 16.774166 85.871795 16.813943 85.944444 16.853421 86.017094 16.892596 86.089744 16.931465 86.162393 16.970027 86.235043 17.008279 86.307692 17.046218 86.380342 17.083843 86.452991 17.121150 86.525641 17.158138 86.598291 17.194803 86.670940 17.231144 86.743590 17.267158 86.816239 17.302843 86.888889 17.338195 86.961538 17.373214 87.034188 17.407896 87.106838 17.442239 87.179487 17.476240 87.252137 17.509898 87.324786 17.543209 87.397436 17.576171 87.470085 17.608782 87.542735 17.641040 87.615385 17.672941 87.688034 17.704485 87.760684 17.735667 87.833333 17.766486 87.905983 17.796939 87.978632 17.827024 88.051282 17.856739 88.123932 17.886081 88.196581 17.915047 88.269231 17.943635 88.341880 17.971844 88.414530 17.999669 88.487179 18.027110 88.559829 18.054163 88.632479 18.080826 88.705128 18.107097 88.777778 18.132973 88.850427 18.158451 88.923077 18.183531 88.995726 18.208208 89.068376 18.232481 89.141026 18.256346 89.213675 18.279803 89.286325 18.302848 89.358974 18.325479 89.431624 18.347693 89.504274 18.369488 89.576923 18.390862 89.649573 18.411812 89.722222 18.432336 89.794872 18.452431 89.867521 18.472095 89.940171 18.491326 90.012821 18.510120 90.085470 18.528476 90.158120 18.546392 90.230769 18.563864 90.303419 18.580891 90.376068 18.597470 90.448718 18.613598 90.521368 18.629273 90.594017 18.644494 90.666667 18.659256 90.739316 18.673558 90.811966 18.687398 90.884615 18.700773 90.957265 18.713680 91.029915 18.726117 91.102564 18.738083 91.175214 18.749573 91.247863 18.760587 91.320513 18.771121 91.393162 18.781173 91.465812 18.790741 91.538462 18.799822 91.611111 18.808413 91.683761 18.816514 91.756410 18.824120 91.829060 18.831229 91.901709 18.837840 91.974359 18.843950 92.047009 18.849556 92.119658 18.854655 92.192308 18.859246 92.264957 18.863326 92.337607 18.866893 92.410256 18.869944 92.482906 18.872477 92.555556 18.874489 92.628205 18.875978 92.700855 18.876941 92.773504 18.877376 92.846154 18.877281 92.918803 18.876654 92.991453 18.875491 93.064103 18.873790 93.136752 18.871550 93.209402 18.868767 93.282051 18.865439 93.354701 18.861564 93.427350 18.857139 93.500000 18.852162 93.572650 18.846630 93.645299 18.840542 93.717949 18.833894 93.790598 18.826684 93.863248 18.818910 93.935897 18.810569 94.008547 18.801659 94.081197 18.792178 94.153846 18.782124 94.226496 18.771500 94.299145 18.760311 94.371795 18.748561 94.444444 18.736254 94.517094 18.723394 94.589744 18.709987 94.662393 18.696035 94.735043 18.681544 94.807692 18.666518 94.880342 18.650961 94.952991 18.634877 95.025641 18.618271 95.098291 18.601146 95.170940 18.583508 95.243590 18.565361 95.316239 18.546708 95.388889 18.527554 95.461538 18.507904 95.534188 18.487761 95.606838 18.467131 95.679487 18.446017 95.752137 18.424423 95.824786 18.402354 95.897436 18.379815 95.970085 18.356808 96.042735 18.333340 96.115385 18.309414 96.188034 18.285034 96.260684 18.260205 96.333333 18.234931 96.405983 18.209216 96.478632 18.183064 96.551282 18.156481 96.623932 18.129469 96.696581 18.102034 96.769231 18.074180 96.841880 18.045911 96.914530 18.017231 96.987179 17.988145 97.059829 17.958656 97.132479 17.928770 97.205128 17.898491 97.277778 17.867822 97.350427 17.836769 97.423077 17.805335 97.495726 17.773524 97.568376 17.741342 97.641026 17.708792 97.713675 17.675878 97.786325 17.642605 97.858974 17.608978 97.931624 17.575000 98.004274 17.540676 98.076923 17.506010 98.149573 17.471006 98.222222 17.435669 98.294872 17.400003 98.367521 17.364013 98.440171 17.327702 98.512821 17.291074 98.585470 17.254135 98.658120 17.216889 98.730769 17.179339 98.803419 17.141490 98.876068 17.103347 98.948718 17.064913 99.021368 17.026193 99.094017 16.987191 99.166667 16.947912 99.239316 16.908360 99.311966 16.868539 99.384615 16.828453 99.457265 16.788107 99.529915 16.747505 99.602564 16.706652 99.675214 16.665551 99.747863 16.624207 99.820513 16.582624 99.893162 16.540806 99.965812 16.498759 100.038462 16.456485 100.111111 16.413990 100.183761 16.371278 100.256410 16.328353 100.329060 16.285218 100.401709 16.241880 100.474359 16.198341 100.547009 16.154607 100.619658 16.110681 100.692308 16.066568 100.764957 16.022272 100.837607 15.977797 100.910256 15.933148 100.982906 15.888329 101.055556 15.843344 101.128205 15.798197 101.200855 15.752894 101.273504 15.707438 101.346154 15.661833 101.418803 15.616084 101.491453 15.570194 101.564103 15.524170 101.636752 15.478014 101.709402 15.431730 101.782051 15.385324 101.854701 15.338800 101.927350 15.292161 102.000000 15.245413 102.072650 15.198559 102.145299 15.151603 102.217949 15.104551 102.290598 15.057406 102.363248 15.010172 102.435897 14.962854 102.508547 14.915457 102.581197 14.867984 102.653846 14.820440 102.726496 14.772829 102.799145 14.725155 102.871795 14.677423 102.944444 14.629637 103.017094 14.581801 103.089744 14.533920 103.162393 14.485997 103.235043 14.438038 103.307692 14.390046 103.380342 14.342026 103.452991 14.293982 103.525641 14.245919 103.598291 14.197840 103.670940 14.149750 103.743590 14.101653 103.816239 14.053554 103.888889 14.005456 103.961538 13.957365 104.034188 13.909284 104.106838 13.861218 104.179487 13.813171 104.252137 13.765147 104.324786 13.717151 104.397436 13.669186 104.470085 13.621258 104.542735 13.573371 104.615385 13.525528 104.688034 13.477734 104.760684 13.429994 104.833333 13.382311 104.905983 13.334690 104.978632 13.287136 105.051282 13.239652 105.123932 13.192243 105.196581 13.144913 105.269231 13.097667 105.341880 13.050509 105.414530 13.003442 105.487179 12.956472 105.559829 12.909602 105.632479 12.862838 105.705128 12.816183 105.777778 12.769641 105.850427 12.723217 105.923077 12.676915 105.995726 12.630740 106.068376 12.584695 106.141026 12.538786 106.213675 12.493016 106.286325 12.447389 106.358974 12.401910 106.431624 12.356584 106.504274 12.311414 106.576923 12.266405 106.649573 12.221561 106.722222 12.176886 106.794872 12.132385 106.867521 12.088062 106.940171 12.043922 107.012821 11.999967 107.085470 11.956204 107.158120 11.912636 107.230769 11.869268 107.303419 11.826103 107.376068 11.783146 107.448718 11.740402 107.521368 11.697874 107.594017 11.655568 107.666667 11.613486 107.739316 11.571634 107.811966 11.530016 107.884615 11.488637 107.957265 11.447499 108.029915 11.406609 108.102564 11.365969 108.175214 11.325585 108.247863 11.285460 108.320513 11.245599 108.393162 11.206007 108.465812 11.166687 108.538462 11.127644 108.611111 11.088882 108.683761 11.050405 108.756410 11.012218 108.829060 10.974325 108.901709 10.936731 108.974359 10.899439 109.047009 10.862454 109.119658 10.825780 109.192308 10.789421 109.264957 10.753383 109.337607 10.717668 109.410256 10.682282 109.482906 10.647229 109.555556 10.612512 109.628205 10.578137 109.700855 10.544107 109.773504 10.510427 109.846154 10.477102 109.918803 10.444135 109.991453 10.411530 110.064103 10.379293 110.136752 10.347427 110.209402 10.315937 110.282051 10.284826 110.354701 10.254100 110.427350 10.223762 110.500000 10.193818 110.572650 10.164270 110.645299 10.135124 110.717949 10.106383 110.790598 10.078053 110.863248 10.050136 110.935897 10.022639 111.008547 9.995564 111.081197 9.968917 111.153846 9.942701 111.226496 9.916921 111.299145 9.891581 111.371795 9.866685 111.444444 9.842238 111.517094 9.818244 111.589744 9.794707 111.662393 9.771632 111.735043 9.749023 111.807692 9.726884 111.880342 9.705219 111.952991 9.684033 112.025641 9.663331 112.098291 9.643115 112.170940 9.623392 112.243590 9.604164 112.316239 9.585435 112.388889 9.567202 112.461538 9.549461 112.534188 9.532208 112.606838 9.515438 112.679487 9.499148 112.752137 9.483332 112.824786 9.467988 112.897436 9.453111 112.970085 9.438696 113.042735 9.424740 113.115385 9.411237 113.188034 9.398185 113.260684 9.385579 113.333333 9.373415 113.405983 9.361688 113.478632 9.350394 113.551282 9.339530 113.623932 9.329091 113.696581 9.319072 113.769231 9.309470 113.841880 9.300281 113.914530 9.291500 113.987179 9.283122 114.059829 9.275145 114.132479 9.267564 114.205128 9.260374 114.277778 9.253571 114.350427 9.247152 114.423077 9.241111 114.495726 9.235446 114.568376 9.230151 114.641026 9.225222 114.713675 9.220656 114.786325 9.216448 114.858974 9.212594 114.931624 9.209089 115.004274 9.205930 115.076923 9.203113 115.149573 9.200633 115.222222 9.198485 115.294872 9.196667 115.367521 9.195173 115.440171 9.193999 115.512821 9.193142 115.585470 9.192597 115.658120 9.192360 115.730769 9.192427 115.803419 9.192793 115.876068 9.193455 115.948718 9.194407 116.021368 9.195647 116.094017 9.197170 116.166667 9.198971 116.239316 9.201047 116.311966 9.203393 116.384615 9.206005 116.457265 9.208879 116.529915 9.212011 116.602564 9.215396 116.675214 9.219031 116.747863 9.222911 116.820513 9.227032 116.893162 9.231390 116.965812 9.235980 117.038462 9.240799 117.111111 9.245843 117.183761 9.251106 117.256410 9.256585 117.329060 9.262276 117.401709 9.268175 117.474359 9.274277 117.547009 9.280578 117.619658 9.287075 117.692308 9.293762 117.764957 9.300636 117.837607 9.307692 117.910256 9.314927 117.982906 9.322335 118.055556 9.329914 118.128205 9.337659 118.200855 9.345565 118.273504 9.353628 118.346154 9.361845 118.418803 9.370211 118.491453 9.378721 118.564103 9.387372 118.636752 9.396160 118.709402 9.405080 118.782051 9.414128 118.854701 9.423300 118.927350 9.432592 119.000000 9.442000 119.072650 9.451519 119.145299 9.461145 119.217949 9.470874 119.290598 9.480702 119.363248 9.490625 119.435897 9.500638 119.508547 9.510738 119.581197 9.520919 119.653846 9.531179 119.726496 9.541513 119.799145 9.551916 119.871795 9.562384 119.944444 9.572914 120.017094 9.583501 120.089744 9.594140 120.162393 9.604829 120.235043 9.615561 120.307692 9.626335 120.380342 9.637144 120.452991 9.647985 120.525641 9.658854 120.598291 9.669747 120.670940 9.680659 120.743590 9.691586 120.816239 9.702525 120.888889 9.713470 120.961538 9.724418 121.034188 9.735365 121.106838 9.746305 121.179487 9.757236 121.252137 9.768153 121.324786 9.779052 121.397436 9.789929 121.470085 9.800778 121.542735 9.811598 121.615385 9.822382 121.688034 9.833127 121.760684 9.843828 121.833333 9.854483 121.905983 9.865085 121.978632 9.875632 122.051282 9.886119 122.123932 9.896542 122.196581 9.906896 122.269231 9.917177 122.341880 9.927382 122.414530 9.937506 122.487179 9.947545 122.559829 9.957495 122.632479 9.967351 122.705128 9.977109 122.777778 9.986766 122.850427 9.996317 122.923077 10.005757 122.995726 10.015083 123.068376 10.024291 123.141026 10.033376 123.213675 10.042334 123.286325 10.051160 123.358974 10.059852 123.431624 10.068404 123.504274 10.076812 123.576923 10.085073 123.649573 10.093182 123.722222 10.101134 123.794872 10.108926 123.867521 10.116554 123.940171 10.124012 124.012821 10.131298 124.085470 10.138407 124.158120 10.145335 124.230769 10.152077 124.303419 10.158629 124.376068 10.164988 124.448718 10.171149 124.521368 10.177107 124.594017 10.182859 124.666667 10.188401 124.739316 10.193728 124.811966 10.198836 124.884615 10.203721 124.957265 10.208378 125.029915 10.212804 125.102564 10.216995 125.175214 10.220946 125.247863 10.224653 125.320513 10.228111 125.393162 10.231318 125.465812 10.234267 125.538462 10.236956 125.611111 10.239381 125.683761 10.241536 125.756410 10.243417 125.829060 10.245022 125.901709 10.246345 125.974359 10.247382 126.047009 10.248129 126.119658 10.248582 126.192308 10.248736 126.264957 10.248588 126.337607 10.248133 126.410256 10.247368 126.482906 10.246287 126.555556 10.244887 126.628205 10.243164 126.700855 10.241113 126.773504 10.238730 126.846154 10.236012 126.918803 10.232953 126.991453 10.229550 127.064103 10.225798 127.136752 10.221694 127.209402 10.217232 127.282051 10.212410 127.354701 10.207223 127.427350 10.201666 127.500000 10.195735 127.572650 10.189427 127.645299 10.182737 127.717949 10.175660 127.790598 10.168193 127.863248 10.160332 127.935897 10.152072 128.008547 10.143409 128.081197 10.134340 128.153846 10.124858 128.226496 10.114962 128.299145 10.104646 128.371795 10.093906 128.444444 10.082738 128.517094 10.071138 128.589744 10.059102 128.662393 10.046625 128.735043 10.033704 128.807692 10.020334 128.880342 10.006510 128.952991 9.992230 129.025641 9.977488 129.098291 9.962280 129.170940 9.946603 129.243590 9.930452 129.316239 9.913822 129.388889 9.896711 129.461538 9.879113 129.534188 9.861024 129.606838 9.842440 129.679487 9.823357 129.752137 9.803772 129.824786 9.783678 129.897436 9.763073 129.970085 9.741953 130.042735 9.720312 130.115385 9.698147 130.188034 9.675454 130.260684 9.652229 130.333333 9.628467 130.405983 9.604164 130.478632 9.579317 130.551282 9.553931 130.623932 9.528011 130.696581 9.501562 130.769231 9.474589 130.841880 9.447098 130.914530 9.419094 130.987179 9.390583 131.059829 9.361570 131.132479 9.332060 131.205128 9.302059 131.277778 9.271572 131.350427 9.240604 131.423077 9.209161 131.495726 9.177248 131.568376 9.144871 131.641026 9.112035 131.713675 9.078745 131.786325 9.045006 131.858974 9.010825 131.931624 8.976206 132.004274 8.941155 132.076923 8.905677 132.149573 8.869777 132.222222 8.833462 132.294872 8.796735 132.367521 8.759604 132.440171 8.722072 132.512821 8.684146 132.585470 8.645830 132.658120 8.607131 132.730769 8.568053 132.803419 8.528601 132.876068 8.488783 132.948718 8.448601 133.021368 8.408063 133.094017 8.367173 133.166667 8.325937 133.239316 8.284359 133.311966 8.242447 133.384615 8.200204 133.457265 8.157636 133.529915 8.114749 133.602564 8.071548 133.675214 8.028038 133.747863 7.984225 133.820513 7.940113 133.893162 7.895710 133.965812 7.851019 134.038462 7.806046 134.111111 7.760797 134.183761 7.715276 134.256410 7.669490 134.329060 7.623444 134.401709 7.577143 134.474359 7.530592 134.547009 7.483797 134.619658 7.436762 134.692308 7.389495 134.764957 7.341999 134.837607 7.294281 134.910256 7.246345 134.982906 7.198197 135.055556 7.149843 135.128205 7.101287 135.200855 7.052536 135.273504 7.003594 135.346154 6.954466 135.418803 6.905159 135.491453 6.855678 135.564103 6.806027 135.636752 6.756213 135.709402 6.706241 135.782051 6.656115 135.854701 6.605843 135.927350 6.555427 136.000000 6.504876 136.072650 6.454192 136.145299 6.403383 136.217949 6.352453 136.290598 6.301407 136.363248 6.250252 136.435897 6.198992 136.508547 6.147633 136.581197 6.096180 136.653846 6.044639 136.726496 5.993014 136.799145 5.941312 136.871795 5.889537 136.944444 5.837696 137.017094 5.785792 137.089744 5.733833 137.162393 5.681823 137.235043 5.629767 137.307692 5.577671 137.380342 5.525540 137.452991 5.473380 137.525641 5.421196 137.598291 5.368993 137.670940 5.316777 137.743590 5.264554 137.816239 5.212327 137.888889 5.160104 137.961538 5.107888 138.034188 5.055686 138.106838 5.003504 138.179487 4.951345 138.252137 4.899216 138.324786 4.847123 138.397436 4.795070 138.470085 4.743062 138.542735 4.691106 138.615385 4.639206 138.688034 4.587368 138.760684 4.535598 138.833333 4.483900 138.905983 4.432280 138.978632 4.380744 139.051282 4.329297 139.123932 4.277943 139.196581 4.226689 139.269231 4.175540 139.341880 4.124502 139.414530 4.073579 139.487179 4.022777 139.559829 3.972101 139.632479 3.921557 139.705128 3.871150 139.777778 3.820886 139.850427 3.770770 139.923077 3.720807 139.995726 3.671002 140.068376 3.621361 140.141026 3.571890 140.213675 3.522594 140.286325 3.473477 140.358974 3.424547 140.431624 3.375806 140.504274 3.327263 140.576923 3.278920 140.649573 3.230785 140.722222 3.182862 140.794872 3.135157 140.867521 3.087675 140.940171 3.040421 141.012821 2.993401 141.085470 2.946620 141.158120 2.900084 141.230769 2.853797 141.303419 2.807766 141.376068 2.761996 141.448718 2.716492 141.521368 2.671259 141.594017 2.626303 141.666667 2.581629 141.739316 2.537242 141.811966 2.493149 141.884615 2.449353 141.957265 2.405862 142.029915 2.362679 142.102564 2.319811 142.175214 2.277262 142.247863 2.235039 142.320513 2.193146 142.393162 2.151589 142.465812 2.110373 142.538462 2.069504 142.611111 2.028986 142.683761 1.988827 142.756410 1.949029 142.829060 1.909600 142.901709 1.870545 142.974359 1.831868 143.047009 1.793575 143.119658 1.755672 143.192308 1.718164 143.264957 1.681057 143.337607 1.644355 143.410256 1.608064 143.482906 1.572189 143.555556 1.536736 143.628205 1.501711 143.700855 1.467118 143.773504 1.432963 143.846154 1.399251 143.918803 1.365988 143.991453 1.333179 144.064103 1.300829 144.136752 1.268944 144.209402 1.237529 144.282051 1.206590 144.354701 1.176132 144.427350 1.146159 144.500000 1.116679 144.572650 1.087695 144.645299 1.059214 144.717949 1.031241 144.790598 1.003781 144.863248 0.976839 144.935897 0.950421 145.008547 0.924532 145.081197 0.899178 145.153846 0.874364 145.226496 0.850095 145.299145 0.826377 145.371795 0.803215 145.444444 0.780615 145.517094 0.758581 145.589744 0.737120 145.662393 0.716236 145.735043 0.695935 145.807692 0.676222 145.880342 0.657103 145.952991 0.638583 146.025641 0.620668 146.098291 0.603362 146.170940 0.586672 146.243590 0.570602 146.316239 0.555158 146.388889 0.540345 146.461538 0.526169 146.534188 0.512635 146.606838 0.499748 146.679487 0.487514 146.752137 0.475938 146.824786 0.465026 146.897436 0.454782 146.970085 0.445213 147.042735 0.436324 147.115385 0.428119 147.188034 0.420605 147.260684 0.413787 147.333333 0.407669 147.405983 0.402259 147.478632 0.397560 147.551282 0.393578 147.623932 0.390319 147.696581 0.387787 147.769231 0.385990 147.841880 0.384930 147.914530 0.384615 147.987179 0.385050 148.059829 0.386239 148.132479 0.388188 148.205128 0.390903 148.277778 0.394389 148.350427 0.398651 148.423077 0.403695 148.495726 0.409526 148.568376 0.416150 148.641026 0.423569 148.713675 0.431784 148.786325 0.440790 148.858974 0.450583 148.931624 0.461162 149.004274 0.472523 149.076923 0.484663 149.149573 0.497578 149.222222 0.511265 149.294872 0.525721 149.367521 0.540943 149.440171 0.556928 149.512821 0.573673 149.585470 0.591173 149.658120 0.609427 149.730769 0.628431 149.803419 0.648181 149.876068 0.668675 149.948718 0.689909 150.021368 0.711881 150.094017 0.734586 150.166667 0.758022 150.239316 0.782186 150.311966 0.807074 150.384615 0.832684 150.457265 0.859011 150.529915 0.886054 150.602564 0.913807 150.675214 0.942270 150.747863 0.971437 150.820513 1.001307 150.893162 1.031875 150.965812 1.063140 151.038462 1.095096 151.111111 1.127742 151.183761 1.161074 151.256410 1.195089 151.329060 1.229784 151.401709 1.265155 151.474359 1.301200 151.547009 1.337914 151.619658 1.375296 151.692308 1.413341 151.764957 1.452047 151.837607 1.491411 151.910256 1.531428 151.982906 1.572097 152.055556 1.613413 152.128205 1.655374 152.200855 1.697977 152.273504 1.741217 152.346154 1.785093 152.418803 1.829600 152.491453 1.874737 152.564103 1.920498 152.636752 1.966882 152.709402 2.013885 152.782051 2.061504 152.854701 2.109736 152.927350 2.158577 153.000000 2.208024 153.072650 2.258075 153.145299 2.308726 153.217949 2.359973 153.290598 2.411814 153.363248 2.464245 153.435897 2.517263 153.508547 2.570866 153.581197 2.625049 153.653846 2.679810 153.726496 2.735145 153.799145 2.791051 153.871795 2.847526 153.944444 2.904565 154.017094 2.962166 154.089744 3.020325 154.162393 3.079040 154.235043 3.138306 154.307692 3.198122 154.380342 3.258483 154.452991 3.319387 154.525641 3.380830 154.598291 3.442809 154.670940 3.505321 154.743590 3.568363 154.816239 3.631932 154.888889 3.696023 154.961538 3.760635 155.034188 3.825764 155.106838 3.891407 155.179487 3.957560 155.252137 4.024221 155.324786 4.091386 155.397436 4.159052 155.470085 4.227215 155.542735 4.295874 155.615385 4.365023 155.688034 4.434661 155.760684 4.504784 155.833333 4.575389 155.905983 4.646473 155.978632 4.718032 156.051282 4.790063 156.123932 4.862564 156.196581 4.935530 156.269231 5.008959 156.341880 5.082848 156.414530 5.157193 156.487179 5.231991 156.559829 5.307239 156.632479 5.382934 156.705128 5.459073 156.777778 5.535651 156.850427 5.612667 156.923077 5.690117 156.995726 5.767998 157.068376 5.846307 157.141026 5.925039 157.213675 6.004194 157.286325 6.083766 157.358974 6.163753 157.431624 6.244151 157.504274 6.324958 157.576923 6.406171 157.649573 6.487785 157.722222 6.569799 157.794872 6.652208 157.867521 6.735009 157.940171 6.818200 158.012821 6.901777 158.085470 6.985737 158.158120 7.070077 158.230769 7.154793 158.303419 7.239883 158.376068 7.325343 158.448718 7.411170 158.521368 7.497360 158.594017 7.583911 158.666667 7.670820 158.739316 7.758083 158.811966 7.845697 158.884615 7.933658 158.957265 8.021965 159.029915 8.110613 159.102564 8.199599 159.175214 8.288920 159.247863 8.378573 159.320513 8.468555 159.393162 8.558862 159.465812 8.649491 159.538462 8.740440 159.611111 8.831705 159.683761 8.923282 159.756410 9.015169 159.829060 9.107362 159.901709 9.199858 159.974359 9.292655 160.047009 9.385748 160.119658 9.479135 160.192308 9.572812 160.264957 9.666776 160.337607 9.761024 160.410256 9.855553 160.482906 9.950360 160.555556 10.045441 160.628205 10.140794 160.700855 10.236414 160.773504 10.332300 160.846154 10.428447 160.918803 10.524852 160.991453 10.621513 161.064103 10.718426 161.136752 10.815588 161.209402 10.912996 161.282051 11.010646 161.354701 11.108535 161.427350 11.206661 161.500000 11.305019 161.572650 11.403608 161.645299 11.502423 161.717949 11.601461 161.790598 11.700719 161.863248 11.800195 161.935897 11.899884 162.008547 11.999784 162.081197 12.099891 162.153846 12.200203 162.226496 12.300715 162.299145 12.401426 162.371795 12.502331 162.444444 12.603428 162.517094 12.704712 162.589744 12.806182 162.662393 12.907834 162.735043 13.009665 162.807692 13.111671 162.880342 13.213849 162.952991 13.316197 163.025641 13.418710 163.098291 13.521386 163.170940 13.624222 163.243590 13.727214 163.316239 13.830360 163.388889 13.933655 163.461538 14.037097 163.534188 14.140683 163.606838 14.244409 163.679487 14.348272 163.752137 14.452270 163.824786 14.556398 163.897436 14.660654 163.970085 14.765034 164.042735 14.869535 164.115385 14.974155 164.188034 15.078890 164.260684 15.183736 164.333333 15.288690 164.405983 15.393750 164.478632 15.498913 164.551282 15.604174 164.623932 15.709530 164.696581 15.814980 164.769231 15.920519 164.841880 16.026143 164.914530 16.131851 164.987179 16.237639 165.059829 16.343503 165.132479 16.449441 165.205128 16.555448 165.277778 16.661523 165.350427 16.767662 165.423077 16.873861 165.495726 16.980118 165.568376 17.086429 165.641026 17.192791 165.713675 17.299201 165.786325 17.405655 165.858974 17.512151 165.931624 17.618686 166.004274 17.725255 166.076923 17.831856 166.149573 17.938486 166.222222 18.045142 166.294872 18.151820 166.367521 18.258517 166.440171 18.365230 166.512821 18.471956 166.585470 18.578691 166.658120 18.685433 166.730769 18.792178" class="line reactive nofill" /></g></g><g class="titles" /><g transform="translate(20, 10)" class="plot overlay"><g class="series serie-0 color-0" /></g><g transform="translate(20, 10)" class="plot text-overlay"><g class="series serie-0 color-0" /></g><g transform="translate(20, 10)" class="plot tooltip-overlay"><g transform="translate(0 0)" style="opacity: 0" class="tooltip"><rect rx="0" ry="0" width="0" height="0" class="tooltip-box" /><g class="text" /></g></g></g></svg>