<?xml version='1.0' encoding='utf-8'?>
<svg xmlns="http://www.w3.org/2000/svg" id="chart-c2768d77-6ec9-42f9-9545-ec421589ea7e" class="pygal-chart pygal-sparkline" viewBox="0 0 200 50" width="200" height="50"><!--Generated with pygal 3.0.5 (etree) ©Kozea 2012-2016 on 2025-06-15--><!--http://pygal.org--><!--http://github.com/Kozea/pygal--><defs><style type="text/css">#chart-c2768d77-6ec9-42f9-9545-ec421589ea7e{-webkit-user-select:none;-webkit-font-smoothing:antialiased;font-family:Consolas,"Liberation Mono",Menlo,Courier,monospace}#chart-c2768d77-6ec9-42f9-9545-ec421589ea7e .title{font-family:Consolas,"Liberation Mono",Menlo,Courier,monospace;font-size:16px}#chart-c2768d77-6ec9-42f9-9545-ec421589ea7e .legends .legend text{font-family:Consolas,"Liberation Mono",Menlo,Courier,monospace;font-size:14px}#chart-c2768d77-6ec9-42f9-9545-ec421589ea7e .axis text{font-family:Consolas,"Liberation Mono",Menlo,Courier,monospace;font-size:10px}#chart-c2768d77-6ec9-42f9-9545-ec421589ea7e .axis text.major{font-family:Consolas,"Liberation Mono",Menlo,Courier,monospace;font-size:10px}#chart-c2768d77-6ec9-42f9-9545-ec421589ea7e .text-overlay text.value{font-family:Consolas,"Liberation Mono",Menlo,Courier,monospace;font-size:16px}#chart-c2768d77-6ec9-42f9-9545-ec421589ea7e .text-overlay text.label{font-family:Consolas,"Liberation Mono",Menlo,Courier,monospace;font-size:10px}#chart-c2768d77-6ec9-42f9-9545-ec421589ea7e .tooltip{font-family:Consolas,"Liberation Mono",Menlo,Courier,monospace;font-size:14px}#chart-c2768d77-6ec9-42f9-9545-ec421589ea7e text.no_data{font-family:Consolas,"Liberation Mono",Menlo,Courier,monospace;font-size:64px}
#chart-c2768d77-6ec9-42f9-9545-ec421589ea7e{background-color:rgba(249,249,249,1)}#chart-c2768d77-6ec9-42f9-9545-ec421589ea7e path,#chart-c2768d77-6ec9-42f9-9545-ec421589ea7e line,#chart-c2768d77-6ec9-42f9-9545-ec421589ea7e rect,#chart-c2768d77-6ec9-42f9-9545-ec421589ea7e circle{-webkit-transition:150ms;-moz-transition:150ms;transition:150ms}#chart-c2768d77-6ec9-42f9-9545-ec421589ea7e .graph &gt; .background{fill:rgba(249,249,249,1)}#chart-c2768d77-6ec9-42f9-9545-ec421589ea7e .plot &gt; .background{fill:rgba(255,255,255,1)}#chart-c2768d77-6ec9-42f9-9545-ec421589ea7e .graph{fill:rgba(0,0,0,.87)}#chart-c2768d77-6ec9-42f9-9545-ec421589ea7e text.no_data{fill:rgba(0,0,0,1)}#chart-c2768d77-6ec9-42f9-9545-ec421589ea7e .title{fill:rgba(0,0,0,1)}#chart-c2768d77-6ec9-42f9-9545-ec421589ea7e .legends .legend text{fill:rgba(0,0,0,.87)}#chart-c2768d77-6ec9-42f9-9545-ec421589ea7e .legends .legend:hover text{fill:rgba(0,0,0,1)}#chart-c2768d77-6ec9-42f9-9545-ec421589ea7e .axis .line{stroke:rgba(0,0,0,1)}#chart-c2768d77-6ec9-42f9-9545-ec421589ea7e .axis .guide.line{stroke:rgba(0,0,0,.54)}#chart-c2768d77-6ec9-42f9-9545-ec421589ea7e .axis .major.line{stroke:rgba(0,0,0,.87)}#chart-c2768d77-6ec9-42f9-9545-ec421589ea7e .axis text.major{fill:rgba(0,0,0,1)}#chart-c2768d77-6ec9-42f9-9545-ec421589ea7e .axis.y .guides:hover .guide.line,#chart-c2768d77-6ec9-42f9-9545-ec421589ea7e .line-graph .axis.x .guides:hover .guide.line,#chart-c2768d77-6ec9-42f9-9545-ec421589ea7e .stackedline-graph .axis.x .guides:hover .guide.line,#chart-c2768d77-6ec9-42f9-9545-ec421589ea7e .xy-graph .axis.x .guides:hover .guide.line{stroke:rgba(0,0,0,1)}#chart-c2768d77-6ec9-42f9-9545-ec421589ea7e .axis .guides:hover text{fill:rgba(0,0,0,1)}#chart-c2768d77-6ec9-42f9-9545-ec421589ea7e .reactive{fill-opacity:.7;stroke-opacity:.8;stroke-width:1}#chart-c2768d77-6ec9-42f9-9545-ec421589ea7e .ci{stroke:rgba(0,0,0,.87)}#chart-c2768d77-6ec9-42f9-9545-ec421589ea7e .reactive.active,#chart-c2768d77-6ec9-42f9-9545-ec421589ea7e .active .reactive{fill-opacity:.8;stroke-opacity:.9;stroke-width:4}#chart-c2768d77-6ec9-42f9-9545-ec421589ea7e .ci .reactive.active{stroke-width:1.5}#chart-c2768d77-6ec9-42f9-9545-ec421589ea7e .series text{fill:rgba(0,0,0,1)}#chart-c2768d77-6ec9-42f9-9545-ec421589ea7e .tooltip rect{fill:rgba(255,255,255,1);stroke:rgba(0,0,0,1);-webkit-transition:opacity 150ms;-moz-transition:opacity 150ms;transition:opacity 150ms}#chart-c2768d77-6ec9-42f9-9545-ec421589ea7e .tooltip .label{fill:rgba(0,0,0,.87)}#chart-c2768d77-6ec9-42f9-9545-ec421589ea7e .tooltip .label{fill:rgba(0,0,0,.87)}#chart-c2768d77-6ec9-42f9-9545-ec421589ea7e .tooltip .legend{font-size:.8em;fill:rgba(0,0,0,.54)}#chart-c2768d77-6ec9-42f9-9545-ec421589ea7e .tooltip .x_label{font-size:.6em;fill:rgba(0,0,0,1)}#chart-c2768d77-6ec9-42f9-9545-ec421589ea7e .tooltip .xlink{font-size:.5em;text-decoration:underline}#chart-c2768d77-6ec9-42f9-9545-ec421589ea7e .tooltip .value{font-size:1.5em}#chart-c2768d77-6ec9-42f9-9545-ec421589ea7e .bound{font-size:.5em}#chart-c2768d77-6ec9-42f9-9545-ec421589ea7e .max-value{font-size:.75em;fill:rgba(0,0,0,.54)}#chart-c2768d77-6ec9-42f9-9545-ec421589ea7e .map-element{fill:rgba(255,255,255,1);stroke:rgba(0,0,0,.54) !important}#chart-c2768d77-6ec9-42f9-9545-ec421589ea7e .map-element .reactive{fill-opacity:inherit;stroke-opacity:inherit}#chart-c2768d77-6ec9-42f9-9545-ec421589ea7e .color-0,#chart-c2768d77-6ec9-42f9-9545-ec421589ea7e .color-0 a:visited{stroke:#F44336;fill:#F44336}#chart-c2768d77-6ec9-42f9-9545-ec421589ea7e .text-overlay .color-0 text{fill:black}
#chart-c2768d77-6ec9-42f9-9545-ec421589ea7e text.no_data{text-anchor:middle}#chart-c2768d77-6ec9-42f9-9545-ec421589ea7e .guide.line{fill:none}#chart-c2768d77-6ec9-42f9-9545-ec421589ea7e .centered{text-anchor:middle}#chart-c2768d77-6ec9-42f9-9545-ec421589ea7e .title{text-anchor:middle}#chart-c2768d77-6ec9-42f9-9545-ec421589ea7e .legends .legend text{fill-opacity:1}#chart-c2768d77-6ec9-42f9-9545-ec421589ea7e .axis.x text{text-anchor:middle}#chart-c2768d77-6ec9-42f9-9545-ec421589ea7e .axis.x:not(.web) text[transform]{text-anchor:start}#chart-c2768d77-6ec9-42f9-9545-ec421589ea7e .axis.x:not(.web) text[transform].backwards{text-anchor:end}#chart-c2768d77-6ec9-42f9-9545-ec421589ea7e .axis.y text{text-anchor:end}#chart-c2768d77-6ec9-42f9-9545-ec421589ea7e .axis.y text[transform].backwards{text-anchor:start}#chart-c2768d77-6ec9-42f9-9545-ec421589ea7e .axis.y2 text{text-anchor:start}#chart-c2768d77-6ec9-42f9-9545-ec421589ea7e .axis.y2 text[transform].backwards{text-anchor:end}#chart-c2768d77-6ec9-42f9-9545-ec421589ea7e .axis .guide.line{stroke-dasharray:4,4;stroke:black}#chart-c2768d77-6ec9-42f9-9545-ec421589ea7e .axis .major.guide.line{stroke-dasharray:6,6;stroke:black}#chart-c2768d77-6ec9-42f9-9545-ec421589ea7e .horizontal .axis.y .guide.line,#chart-c2768d77-6ec9-42f9-9545-ec421589ea7e .horizontal .axis.y2 .guide.line,#chart-c2768d77-6ec9-42f9-9545-ec421589ea7e .vertical .axis.x .guide.line{opacity:0}#chart-c2768d77-6ec9-42f9-9545-ec421589ea7e .horizontal .axis.always_show .guide.line,#chart-c2768d77-6ec9-42f9-9545-ec421589ea7e .vertical .axis.always_show .guide.line{opacity:1 !important}#chart-c2768d77-6ec9-42f9-9545-ec421589ea7e .axis.y .guides:hover .guide.line,#chart-c2768d77-6ec9-42f9-9545-ec421589ea7e .axis.y2 .guides:hover .guide.line,#chart-c2768d77-6ec9-42f9-9545-ec421589ea7e .axis.x .guides:hover .guide.line{opacity:1}#chart-c2768d77-6ec9-42f9-9545-ec421589ea7e .axis .guides:hover text{opacity:1}#chart-c2768d77-6ec9-42f9-9545-ec421589ea7e .nofill{fill:none}#chart-c2768d77-6ec9-42f9-9545-ec421589ea7e .subtle-fill{fill-opacity:.2}#chart-c2768d77-6ec9-42f9-9545-ec421589ea7e .dot{stroke-width:1px;fill-opacity:1;stroke-opacity:1}#chart-c2768d77-6ec9-42f9-9545-ec421589ea7e .dot.active{stroke-width:5px}#chart-c2768d77-6ec9-42f9-9545-ec421589ea7e .dot.negative{fill:transparent}#chart-c2768d77-6ec9-42f9-9545-ec421589ea7e text,#chart-c2768d77-6ec9-42f9-9545-ec421589ea7e tspan{stroke:none !important}#chart-c2768d77-6ec9-42f9-9545-ec421589ea7e .series text.active{opacity:1}#chart-c2768d77-6ec9-42f9-9545-ec421589ea7e .tooltip rect{fill-opacity:.95;stroke-width:.5}#chart-c2768d77-6ec9-42f9-9545-ec421589ea7e .tooltip text{fill-opacity:1}#chart-c2768d77-6ec9-42f9-9545-ec421589ea7e .showable{visibility:hidden}#chart-c2768d77-6ec9-42f9-9545-ec421589ea7e .showable.shown{visibility:visible}#chart-c2768d77-6ec9-42f9-9545-ec421589ea7e .gauge-background{fill:rgba(229,229,229,1);stroke:none}#chart-c2768d77-6ec9-42f9-9545-ec421589ea7e .bg-lines{stroke:rgba(249,249,249,1);stroke-width:2px}</style><script type="text/javascript">window.pygal = window.pygal || {};window.pygal.config = window.pygal.config || {};window.pygal.config['c2768d77-6ec9-42f9-9545-ec421589ea7e'] = {"allow_interruptions": false, "box_mode": "extremes", "classes": ["pygal-chart", "pygal-sparkline"], "css": ["file://style.css", "file://graph.css"], "defs": [], "disable_xml_declaration": false, "dots_size": 2.5, "dynamic_print_values": false, "explicit_size": true, "fill": false, "force_uri_protocol": "https", "formatter": null, "half_pie": false, "height": 50, "include_x_axis": false, "inner_radius": 0, "interpolate": "cubic", "interpolation_parameters": {}, "interpolation_precision": 250, "inverse_y_axis": false, "js": [], "legend_at_bottom": false, "legend_at_bottom_columns": null, "legend_box_size": 12, "logarithmic": false, "margin": 10, "margin_bottom": null, "margin_left": null, "margin_right": null, "margin_top": null, "max_scale": 2, "min_scale": 1, "missing_value_fill_truncation": "x", "no_data_text": "", "no_prefix": false, "order_min": null, "pretty_print": false, "print_labels": false, "print_values": false, "print_values_position": "center", "print_zeroes": true, "range": null, "rounded_bars": null, "secondary_range": null, "show_dots": false, "show_legend": false, "show_minor_x_labels": true, "show_minor_y_labels": true, "show_only_major_dots": false, "show_x_guides": false, "show_x_labels": false, "show_y_guides": true, "show_y_labels": true, "spacing": 0, "stack_from_top": false, "strict": false, "stroke": true, "stroke_style": null, "style": {"background": "rgba(249, 249, 249, 1)", "ci_colors": [], "colors": ["#F44336", "#3F51B5", "#009688", "#FFC107", "#FF5722", "#9C27B0", "#03A9F4", "#8BC34A", "#FF9800", "#E91E63", "#2196F3", "#4CAF50", "#FFEB3B", "#673AB7", "#00BCD4", "#CDDC39", "#9E9E9E", "#607D8B"], "dot_opacity": "1", "font_family": "Consolas, \"Liberation Mono\", Menlo, Courier, monospace", "foreground": "rgba(0, 0, 0, .87)", "foreground_strong": "rgba(0, 0, 0, 1)", "foreground_subtle": "rgba(0, 0, 0, .54)", "guide_stroke_color": "black", "guide_stroke_dasharray": "4,4", "label_font_family": "Consolas, \"Liberation Mono\", Menlo, Courier, monospace", "label_font_size": 10, "legend_font_family": "Consolas, \"Liberation Mono\", Menlo, Courier, monospace", "legend_font_size": 14, "major_guide_stroke_color": "black", "major_guide_stroke_dasharray": "6,6", "major_label_font_family": "Consolas, \"Liberation Mono\", Menlo, Courier, monospace", "major_label_font_size": 10, "no_data_font_family": "Consolas, \"Liberation Mono\", Menlo, Courier, monospace", "no_data_font_size": 64, "opacity": ".7", "opacity_hover": ".8", "plot_background": "rgba(255, 255, 255, 1)", "stroke_opacity": ".8", "stroke_opacity_hover": ".9", "stroke_width": "1", "stroke_width_hover": "4", "title_font_family": "Consolas, \"Liberation Mono\", Menlo, Courier, monospace", "title_font_size": 16, "tooltip_font_family": "Consolas, \"Liberation Mono\", Menlo, Courier, monospace", "tooltip_font_size": 14, "transition": "150ms", "value_background": "rgba(229, 229, 229, 1)", "value_colors": [], "value_font_family": "Consolas, \"Liberation Mono\", Menlo, Courier, monospace", "value_font_size": 16, "value_label_font_family": "Consolas, \"Liberation Mono\", Menlo, Courier, monospace", "value_label_font_size": 10}, "title": null, "tooltip_border_radius": 0, "tooltip_fancy_mode": true, "truncate_label": null, "truncate_legend": null, "width": 200, "x_label_rotation": 0, "x_labels": ["2025/5", "2025/4", "2025/2", "2025/1", "2024/12"], "x_labels_major": null, "x_labels_major_count": null, "x_labels_major_every": null, "x_title": null, "xrange": null, "y_label_rotation": 0, "y_labels": null, "y_labels_major": null, "y_labels_major_count": null, "y_labels_major_every": null, "y_title": null, "zero": 0, "legends": [""]}</script></defs><title>Pygal</title><g class="graph line-graph vertical"><rect x="0" y="0" width="200" height="50" class="background" /><g transform="translate(20, 10)" class="plot"><rect x="0" y="0" width="170" height="30" class="background" /><g class="axis y always_show"><path d="M0.000000 30.000000 h170.000000" class="line" /><g class="guides"><path d="M0.000000 24.741171 h170.000000" class="guide line" /><text x="-5" y="28.241170660281064" class="">4</text><title>4</title></g><g class="guides"><path d="M0.000000 6.013546 h170.000000" class="guide line" /><text x="-5" y="9.513545609097612" class="">8</text><title>8</title></g></g><g class="series serie-0 color-0"><path d="M3.269231 15.377358 L3.432692 15.428524 3.596154 15.479687 3.759615 15.530844 3.923077 15.581991 4.086538 15.633126 4.250000 15.684245 4.413462 15.735346 4.576923 15.786425 4.740385 15.837479 4.903846 15.888505 5.067308 15.939499 5.230769 15.990460 5.394231 16.041383 5.557692 16.092266 5.721154 16.143105 5.884615 16.193897 6.048077 16.244639 6.211538 16.295329 6.375000 16.345963 6.538462 16.396537 6.701923 16.447049 6.865385 16.497496 7.028846 16.547874 7.192308 16.598180 7.355769 16.648412 7.519231 16.698566 7.682692 16.748639 7.846154 16.798628 8.009615 16.848530 8.173077 16.898341 8.336538 16.948059 8.500000 16.997680 8.663462 17.047202 8.826923 17.096621 8.990385 17.145934 9.153846 17.195138 9.317308 17.244230 9.480769 17.293207 9.644231 17.342066 9.807692 17.390803 9.971154 17.439415 10.134615 17.487900 10.298077 17.536254 10.461538 17.584474 10.625000 17.632557 10.788462 17.680500 10.951923 17.728299 11.115385 17.775953 11.278846 17.823456 11.442308 17.870808 11.605769 17.918003 11.769231 17.965040 11.932692 18.011915 12.096154 18.058624 12.259615 18.105166 12.423077 18.151536 12.586538 18.197732 12.750000 18.243750 12.913462 18.289588 13.076923 18.335242 13.240385 18.380709 13.403846 18.425986 13.567308 18.471071 13.730769 18.515958 13.894231 18.560647 14.057692 18.605133 14.221154 18.649414 14.384615 18.693486 14.548077 18.737346 14.711538 18.780992 14.875000 18.824419 15.038462 18.867625 15.201923 18.910607 15.365385 18.953362 15.528846 18.995886 15.692308 19.038177 15.855769 19.080231 16.019231 19.122046 16.182692 19.163617 16.346154 19.204942 16.509615 19.246018 16.673077 19.286842 16.836538 19.327411 17.000000 19.367721 17.163462 19.407770 17.326923 19.447554 17.490385 19.487070 17.653846 19.526315 17.817308 19.565286 17.980769 19.603980 18.144231 19.642393 18.307692 19.680524 18.471154 19.718367 18.634615 19.755922 18.798077 19.793183 18.961538 19.830149 19.125000 19.866815 19.288462 19.903180 19.451923 19.939239 19.615385 19.974990 19.778846 20.010430 19.942308 20.045555 20.105769 20.080362 20.269231 20.114849 20.432692 20.149012 20.596154 20.182848 20.759615 20.216353 20.923077 20.249526 21.086538 20.282362 21.250000 20.314859 21.413462 20.347013 21.576923 20.378822 21.740385 20.410282 21.903846 20.441389 22.067308 20.472142 22.230769 20.502537 22.394231 20.532571 22.557692 20.562240 22.721154 20.591541 22.884615 20.620472 23.048077 20.649030 23.211538 20.677210 23.375000 20.705011 23.538462 20.732429 23.701923 20.759460 23.865385 20.786102 24.028846 20.812352 24.192308 20.838207 24.355769 20.863662 24.519231 20.888716 24.682692 20.913365 24.846154 20.937607 25.009615 20.961437 25.173077 20.984853 25.336538 21.007851 25.500000 21.030430 25.663462 21.052584 25.826923 21.074312 25.990385 21.095611 26.153846 21.116476 26.317308 21.136906 26.480769 21.156896 26.644231 21.176444 26.807692 21.195547 26.971154 21.214202 27.134615 21.232405 27.298077 21.250153 27.461538 21.267443 27.625000 21.284273 27.788462 21.300638 27.951923 21.316537 28.115385 21.331965 28.278846 21.346920 28.442308 21.361398 28.605769 21.375397 28.769231 21.388913 28.932692 21.401944 29.096154 21.414485 29.259615 21.426534 29.423077 21.438088 29.586538 21.449144 29.750000 21.459699 29.913462 21.469749 30.076923 21.479292 30.240385 21.488323 30.403846 21.496841 30.567308 21.504842 30.730769 21.512323 30.894231 21.519281 31.057692 21.525712 31.221154 21.531614 31.384615 21.536984 31.548077 21.541818 31.711538 21.546113 31.875000 21.549866 32.038462 21.553075 32.201923 21.555735 32.365385 21.557844 32.528846 21.559399 32.692308 21.560396 32.855769 21.560833 33.019231 21.560706 33.182692 21.560012 33.346154 21.558748 33.509615 21.556912 33.673077 21.554499 33.836538 21.551507 34.000000 21.547933 34.163462 21.543773 34.326923 21.539025 34.490385 21.533685 34.653846 21.527750 34.817308 21.521218 34.980769 21.514084 35.144231 21.506346 35.307692 21.498001 35.471154 21.489045 35.634615 21.479476 35.798077 21.469291 35.961538 21.458486 36.125000 21.447057 36.288462 21.435003 36.451923 21.422320 36.615385 21.409005 36.778846 21.395054 36.942308 21.380465 37.105769 21.365235 37.269231 21.349360 37.432692 21.332837 37.596154 21.315663 37.759615 21.297836 37.923077 21.279351 38.086538 21.260206 38.250000 21.240398 38.413462 21.219923 38.576923 21.198779 38.740385 21.176962 38.903846 21.154469 39.067308 21.131298 39.230769 21.107444 39.394231 21.082906 39.557692 21.057679 39.721154 21.031761 39.884615 21.005148 40.048077 20.977838 40.211538 20.949827 40.375000 20.921112 40.538462 20.891691 40.701923 20.861559 40.865385 20.830714 41.028846 20.799153 41.192308 20.766873 41.355769 20.733870 41.519231 20.700141 41.682692 20.665684 41.846154 20.630495 42.009615 20.594571 42.173077 20.557909 42.336538 20.520506 42.500000 20.482359 42.663462 20.443464 42.826923 20.403819 42.990385 20.363420 43.153846 20.322264 43.317308 20.280349 43.480769 20.237670 43.644231 20.194226 43.807692 20.150012 43.971154 20.105026 44.134615 20.059264 44.298077 20.012726 44.461538 19.965416 44.625000 19.917340 44.788462 19.868505 44.951923 19.818919 45.115385 19.768586 45.278846 19.717515 45.442308 19.665711 45.605769 19.613181 45.769231 19.559932 45.932692 19.505971 46.096154 19.451303 46.259615 19.395935 46.423077 19.339875 46.586538 19.283128 46.750000 19.225701 46.913462 19.167602 47.076923 19.108835 47.240385 19.049408 47.403846 18.989328 47.567308 18.928601 47.730769 18.867234 47.894231 18.805233 48.057692 18.742605 48.221154 18.679356 48.384615 18.615493 48.548077 18.551023 48.711538 18.485952 48.875000 18.420287 49.038462 18.354034 49.201923 18.287200 49.365385 18.219791 49.528846 18.151815 49.692308 18.083277 49.855769 18.014184 50.019231 17.944544 50.182692 17.874361 50.346154 17.803644 50.509615 17.732398 50.673077 17.660630 50.836538 17.588347 51.000000 17.515556 51.163462 17.442262 51.326923 17.368472 51.490385 17.294194 51.653846 17.219433 51.817308 17.144197 51.980769 17.068491 52.144231 16.992323 52.307692 16.915699 52.471154 16.838625 52.634615 16.761108 52.798077 16.683155 52.961538 16.604773 53.125000 16.525967 53.288462 16.446744 53.451923 16.367112 53.615385 16.287076 53.778846 16.206644 53.942308 16.125821 54.105769 16.044615 54.269231 15.963031 54.432692 15.881077 54.596154 15.798759 54.759615 15.716084 54.923077 15.633058 55.086538 15.549688 55.250000 15.465980 55.413462 15.381942 55.576923 15.297578 55.740385 15.212898 55.903846 15.127905 56.067308 15.042608 56.230769 14.957013 56.394231 14.871127 56.557692 14.784956 56.721154 14.698506 56.884615 14.611784 57.048077 14.524798 57.211538 14.437552 57.375000 14.350055 57.538462 14.262312 57.701923 14.174331 57.865385 14.086117 58.028846 13.997677 58.192308 13.909019 58.355769 13.820147 58.519231 13.731070 58.682692 13.641794 58.846154 13.552324 59.009615 13.462669 59.173077 13.372834 59.336538 13.282825 59.500000 13.192651 59.663462 13.102316 59.826923 13.011828 59.990385 12.921194 60.153846 12.830419 60.317308 12.739511 60.480769 12.648476 60.644231 12.557320 60.807692 12.466051 60.971154 12.374674 61.134615 12.283197 61.298077 12.191625 61.461538 12.099966 61.625000 12.008227 61.788462 11.916413 61.951923 11.824531 62.115385 11.732588 62.278846 11.640590 62.442308 11.548545 62.605769 11.456458 62.769231 11.364336 62.932692 11.272186 63.096154 11.180014 63.259615 11.087827 63.423077 10.995632 63.586538 10.903435 63.750000 10.811242 63.913462 10.719061 64.076923 10.626897 64.240385 10.534758 64.403846 10.442650 64.567308 10.350579 64.730769 10.258553 64.894231 10.166577 65.057692 10.074659 65.221154 9.982804 65.384615 9.891020 65.548077 9.799313 65.711538 9.707690 65.875000 9.616157 66.038462 9.524720 66.201923 9.433387 66.365385 9.342164 66.528846 9.251058 66.692308 9.160074 66.855769 9.069221 67.019231 8.978503 67.182692 8.887929 67.346154 8.797504 67.509615 8.707235 67.673077 8.617128 67.836538 8.527191 68.000000 8.437429 68.163462 8.347850 68.326923 8.258460 68.490385 8.169265 68.653846 8.080273 68.817308 7.991489 68.980769 7.902920 69.144231 7.814573 69.307692 7.726455 69.471154 7.638572 69.634615 7.550930 69.798077 7.463536 69.961538 7.376397 70.125000 7.289520 70.288462 7.202910 70.451923 7.116575 70.615385 7.030521 70.778846 6.944755 70.942308 6.859283 71.105769 6.774111 71.269231 6.689247 71.432692 6.604697 71.596154 6.520468 71.759615 6.436566 71.923077 6.352997 72.086538 6.269769 72.250000 6.186888 72.413462 6.104360 72.576923 6.022192 72.740385 5.940391 72.903846 5.858963 73.067308 5.777915 73.230769 5.697253 73.394231 5.616984 73.557692 5.537115 73.721154 5.457652 73.884615 5.378601 74.048077 5.299970 74.211538 5.221765 74.375000 5.143992 74.538462 5.066658 74.701923 4.989770 74.865385 4.913334 75.028846 4.837357 75.192308 4.761845 75.355769 4.686805 75.519231 4.612243 75.682692 4.538167 75.846154 4.464582 76.009615 4.391496 76.173077 4.318914 76.336538 4.246844 76.500000 4.175292 76.663462 4.104264 76.826923 4.033768 76.990385 3.963809 77.153846 3.894395 77.317308 3.825532 77.480769 3.757226 77.644231 3.689484 77.807692 3.622313 77.971154 3.555719 78.134615 3.489709 78.298077 3.424289 78.461538 3.359467 78.625000 3.295247 78.788462 3.231638 78.951923 3.168646 79.115385 3.106277 79.278846 3.044538 79.442308 2.983436 79.605769 2.922976 79.769231 2.863166 79.932692 2.804012 80.096154 2.745522 80.259615 2.687700 80.423077 2.630554 80.586538 2.574091 80.750000 2.518318 80.913462 2.463239 81.076923 2.408863 81.240385 2.355196 81.403846 2.302245 81.567308 2.250015 81.730769 2.198514 81.894231 2.147749 82.057692 2.097725 82.221154 2.048449 82.384615 1.999928 82.548077 1.952169 82.711538 1.905178 82.875000 1.858962 83.038462 1.813527 83.201923 1.768879 83.365385 1.725026 83.528846 1.681975 83.692308 1.639730 83.855769 1.598300 84.019231 1.557691 84.182692 1.517909 84.346154 1.478961 84.509615 1.440853 84.673077 1.403593 84.836538 1.367186 85.000000 1.331639 85.163462 1.296958 85.326923 1.263140 85.490385 1.230182 85.653846 1.198080 85.817308 1.166832 85.980769 1.136433 86.144231 1.106880 86.307692 1.078170 86.471154 1.050300 86.634615 1.023265 86.798077 0.997063 86.961538 0.971690 87.125000 0.947142 87.288462 0.923417 87.451923 0.900510 87.615385 0.878419 87.778846 0.857139 87.942308 0.836668 88.105769 0.817002 88.269231 0.798137 88.432692 0.780071 88.596154 0.762799 88.759615 0.746319 88.923077 0.730626 89.086538 0.715718 89.250000 0.701591 89.413462 0.688241 89.576923 0.675665 89.740385 0.663860 89.903846 0.652822 90.067308 0.642548 90.230769 0.633034 90.394231 0.624277 90.557692 0.616273 90.721154 0.609020 90.884615 0.602513 91.048077 0.596749 91.211538 0.591725 91.375000 0.587438 91.538462 0.583883 91.701923 0.581057 91.865385 0.578958 92.028846 0.577581 92.192308 0.576923 92.355769 0.576981 92.519231 0.577751 92.682692 0.579230 92.846154 0.581414 93.009615 0.584300 93.173077 0.587885 93.336538 0.592165 93.500000 0.597136 93.663462 0.602796 93.826923 0.609140 93.990385 0.616166 94.153846 0.623869 94.317308 0.632247 94.480769 0.641296 94.644231 0.651013 94.807692 0.661394 94.971154 0.672435 95.134615 0.684134 95.298077 0.696486 95.461538 0.709489 95.625000 0.723139 95.788462 0.737433 95.951923 0.752366 96.115385 0.767937 96.278846 0.784140 96.442308 0.800973 96.605769 0.818433 96.769231 0.836516 96.932692 0.855218 97.096154 0.874536 97.259615 0.894466 97.423077 0.915006 97.586538 0.936152 97.750000 0.957900 97.913462 0.980247 98.076923 1.003189 98.240385 1.026723 98.403846 1.050846 98.567308 1.075554 98.730769 1.100844 98.894231 1.126712 99.057692 1.153154 99.221154 1.180169 99.384615 1.207751 99.548077 1.235897 99.711538 1.264605 99.875000 1.293871 100.038462 1.323690 100.201923 1.354061 100.365385 1.384978 100.528846 1.416440 100.692308 1.448442 100.855769 1.480981 101.019231 1.514054 101.182692 1.547657 101.346154 1.581787 101.509615 1.616440 101.673077 1.651613 101.836538 1.687302 102.000000 1.723504 102.163462 1.760216 102.326923 1.797434 102.490385 1.835155 102.653846 1.873375 102.817308 1.912091 102.980769 1.951299 103.144231 1.990996 103.307692 2.031179 103.471154 2.071843 103.634615 2.112987 103.798077 2.154605 103.961538 2.196696 104.125000 2.239254 104.288462 2.282278 104.451923 2.325763 104.615385 2.369706 104.778846 2.414104 104.942308 2.458953 105.105769 2.504249 105.269231 2.549990 105.432692 2.596172 105.596154 2.642791 105.759615 2.689844 105.923077 2.737328 106.086538 2.785239 106.250000 2.833573 106.413462 2.882328 106.576923 2.931500 106.740385 2.981085 106.903846 3.031080 107.067308 3.081481 107.230769 3.132286 107.394231 3.183490 107.557692 3.235090 107.721154 3.287083 107.884615 3.339465 108.048077 3.392234 108.211538 3.445385 108.375000 3.498914 108.538462 3.552820 108.701923 3.607097 108.865385 3.661744 109.028846 3.716755 109.192308 3.772128 109.355769 3.827860 109.519231 3.883947 109.682692 3.940385 109.846154 3.997172 110.009615 4.054303 110.173077 4.111775 110.336538 4.169586 110.500000 4.227730 110.663462 4.286206 110.826923 4.345008 110.990385 4.404135 111.153846 4.463583 111.317308 4.523348 111.480769 4.583427 111.644231 4.643816 111.807692 4.704511 111.971154 4.765511 112.134615 4.826810 112.298077 4.888406 112.461538 4.950295 112.625000 5.012473 112.788462 5.074938 112.951923 5.137686 113.115385 5.200714 113.278846 5.264017 113.442308 5.327592 113.605769 5.391437 113.769231 5.455548 113.932692 5.519921 114.096154 5.584552 114.259615 5.649439 114.423077 5.714578 114.586538 5.779965 114.750000 5.845597 114.913462 5.911471 115.076923 5.977584 115.240385 6.043931 115.403846 6.110509 115.567308 6.177315 115.730769 6.244345 115.894231 6.311597 116.057692 6.379066 116.221154 6.446749 116.384615 6.514643 116.548077 6.582744 116.711538 6.651050 116.875000 6.719555 117.038462 6.788257 117.201923 6.857153 117.365385 6.926239 117.528846 6.995512 117.692308 7.064968 117.855769 7.134604 118.019231 7.204416 118.182692 7.274401 118.346154 7.344555 118.509615 7.414876 118.673077 7.485359 118.836538 7.556001 119.000000 7.626799 119.163462 7.697749 119.326923 7.768848 119.490385 7.840093 119.653846 7.911480 119.817308 7.983005 119.980769 8.054665 120.144231 8.126457 120.307692 8.198377 120.471154 8.270422 120.634615 8.342589 120.798077 8.414873 120.961538 8.487272 121.125000 8.559782 121.288462 8.632400 121.451923 8.705122 121.615385 8.777944 121.778846 8.850864 121.942308 8.923878 122.105769 8.996983 122.269231 9.070174 122.432692 9.143449 122.596154 9.216804 122.759615 9.290236 122.923077 9.363741 123.086538 9.437316 123.250000 9.510958 123.413462 9.584662 123.576923 9.658426 123.740385 9.732246 123.903846 9.806119 124.067308 9.880041 124.230769 9.954009 124.394231 10.028019 124.557692 10.102069 124.721154 10.176153 124.884615 10.250270 125.048077 10.324415 125.211538 10.398586 125.375000 10.472778 125.538462 10.546989 125.701923 10.621215 125.865385 10.695452 126.028846 10.769698 126.192308 10.843951 126.355769 10.918213 126.519231 10.992482 126.682692 11.066760 126.846154 11.141045 127.009615 11.215338 127.173077 11.289639 127.336538 11.363948 127.500000 11.438264 127.663462 11.512589 127.826923 11.586920 127.990385 11.661260 128.153846 11.735607 128.317308 11.809962 128.480769 11.884324 128.644231 11.958694 128.807692 12.033071 128.971154 12.107455 129.134615 12.181847 129.298077 12.256247 129.461538 12.330654 129.625000 12.405068 129.788462 12.479489 129.951923 12.553918 130.115385 12.628354 130.278846 12.702797 130.442308 12.777247 130.605769 12.851704 130.769231 12.926169 130.932692 13.000640 131.096154 13.075119 131.259615 13.149604 131.423077 13.224097 131.586538 13.298596 131.750000 13.373103 131.913462 13.447616 132.076923 13.522136 132.240385 13.596663 132.403846 13.671197 132.567308 13.745737 132.730769 13.820284 132.894231 13.894838 133.057692 13.969398 133.221154 14.043965 133.384615 14.118539 133.548077 14.193119 133.711538 14.267706 133.875000 14.342299 134.038462 14.416899 134.201923 14.491505 134.365385 14.566117 134.528846 14.640736 134.692308 14.715361 134.855769 14.789992 135.019231 14.864630 135.182692 14.939274 135.346154 15.013924 135.509615 15.088580 135.673077 15.163243 135.836538 15.237911 136.000000 15.312586 136.163462 15.387266 136.326923 15.461953 136.490385 15.536645 136.653846 15.611344 136.817308 15.686048 136.980769 15.760758 137.144231 15.835475 137.307692 15.910197 137.471154 15.984924 137.634615 16.059658 137.798077 16.134397 137.961538 16.209142 138.125000 16.283892 138.288462 16.358648 138.451923 16.433410 138.615385 16.508177 138.778846 16.582950 138.942308 16.657728 139.105769 16.732512 139.269231 16.807301 139.432692 16.882096 139.596154 16.956896 139.759615 17.031701 139.923077 17.106512 140.086538 17.181327 140.250000 17.256148 140.413462 17.330975 140.576923 17.405806 140.740385 17.480643 140.903846 17.555484 141.067308 17.630331 141.230769 17.705183 141.394231 17.780040 141.557692 17.854901 141.721154 17.929768 141.884615 18.004640 142.048077 18.079516 142.211538 18.154397 142.375000 18.229284 142.538462 18.304174 142.701923 18.379070 142.865385 18.453971 143.028846 18.528876 143.192308 18.603785 143.355769 18.678700 143.519231 18.753619 143.682692 18.828542 143.846154 18.903470 144.009615 18.978403 144.173077 19.053340 144.336538 19.128281 144.500000 19.203227 144.663462 19.278177 144.826923 19.353132 144.990385 19.428091 145.153846 19.503054 145.317308 19.578021 145.480769 19.652993 145.644231 19.727968 145.807692 19.802948 145.971154 19.877932 146.134615 19.952920 146.298077 20.027912 146.461538 20.102908 146.625000 20.177909 146.788462 20.252913 146.951923 20.327921 147.115385 20.402932 147.278846 20.477948 147.442308 20.552968 147.605769 20.627991 147.769231 20.703018 147.932692 20.778049 148.096154 20.853083 148.259615 20.928121 148.423077 21.003163 148.586538 21.078208 148.750000 21.153257 148.913462 21.228310 149.076923 21.303366 149.240385 21.378425 149.403846 21.453488 149.567308 21.528554 149.730769 21.603624 149.894231 21.678697 150.057692 21.753773 150.221154 21.828853 150.384615 21.903935 150.548077 21.979021 150.711538 22.054111 150.875000 22.129203 151.038462 22.204298 151.201923 22.279397 151.365385 22.354498 151.528846 22.429603 151.692308 22.504711 151.855769 22.579821 152.019231 22.654935 152.182692 22.730051 152.346154 22.805170 152.509615 22.880292 152.673077 22.955417 152.836538 23.030545 153.000000 23.105675 153.163462 23.180808 153.326923 23.255944 153.490385 23.331082 153.653846 23.406223 153.817308 23.481366 153.980769 23.556512 154.144231 23.631661 154.307692 23.706812 154.471154 23.781965 154.634615 23.857121 154.798077 23.932279 154.961538 24.007440 155.125000 24.082603 155.288462 24.157768 155.451923 24.232935 155.615385 24.308105 155.778846 24.383276 155.942308 24.458450 156.105769 24.533626 156.269231 24.608805 156.432692 24.683985 156.596154 24.759167 156.759615 24.834351 156.923077 24.909537 157.086538 24.984725 157.250000 25.059915 157.413462 25.135107 157.576923 25.210301 157.740385 25.285496 157.903846 25.360694 158.067308 25.435893 158.230769 25.511093 158.394231 25.586296 158.557692 25.661500 158.721154 25.736705 158.884615 25.811912 159.048077 25.887121 159.211538 25.962331 159.375000 26.037543 159.538462 26.112756 159.701923 26.187971 159.865385 26.263187 160.028846 26.338404 160.192308 26.413622 160.355769 26.488842 160.519231 26.564063 160.682692 26.639286 160.846154 26.714509 161.009615 26.789734 161.173077 26.864960 161.336538 26.940187 161.500000 27.015415 161.663462 27.090644 161.826923 27.165874 161.990385 27.241105 162.153846 27.316337 162.317308 27.391569 162.480769 27.466803 162.644231 27.542037 162.807692 27.617273 162.971154 27.692509 163.134615 27.767746 163.298077 27.842983 163.461538 27.918221 163.625000 27.993460 163.788462 28.068700 163.951923 28.143940 164.115385 28.219180 164.278846 28.294421 164.442308 28.369663 164.605769 28.444905 164.769231 28.520147 164.932692 28.595390 165.096154 28.670633 165.259615 28.745877 165.423077 28.821120 165.586538 28.896364 165.750000 28.971609 165.913462 29.046853 166.076923 29.122098 166.240385 29.197342 166.403846 29.272587 166.567308 29.347832 166.730769 29.423077" class="line reactive nofill" /></g></g><g class="titles" /><g transform="translate(20, 10)" class="plot overlay"><g class="series serie-0 color-0" /></g><g transform="translate(20, 10)" class="plot text-overlay"><g class="series serie-0 color-0" /></g><g transform="translate(20, 10)" class="plot tooltip-overlay"><g transform="translate(0 0)" style="opacity: 0" class="tooltip"><rect rx="0" ry="0" width="0" height="0" class="tooltip-box" /><g class="text" /></g></g></g></svg>