<?xml version='1.0' encoding='utf-8'?>
<svg xmlns="http://www.w3.org/2000/svg" id="chart-66a20f69-f1f6-4d32-8197-87c30750b664" class="pygal-chart pygal-sparkline" viewBox="0 0 200 50" width="200" height="50"><!--Generated with pygal 3.0.5 (etree) ©Kozea 2012-2016 on 2024-09-15--><!--http://pygal.org--><!--http://github.com/Kozea/pygal--><defs><style type="text/css">#chart-66a20f69-f1f6-4d32-8197-87c30750b664{-webkit-user-select:none;-webkit-font-smoothing:antialiased;font-family:Consolas,"Liberation Mono",Menlo,Courier,monospace}#chart-66a20f69-f1f6-4d32-8197-87c30750b664 .title{font-family:Consolas,"Liberation Mono",Menlo,Courier,monospace;font-size:16px}#chart-66a20f69-f1f6-4d32-8197-87c30750b664 .legends .legend text{font-family:Consolas,"Liberation Mono",Menlo,Courier,monospace;font-size:14px}#chart-66a20f69-f1f6-4d32-8197-87c30750b664 .axis text{font-family:Consolas,"Liberation Mono",Menlo,Courier,monospace;font-size:10px}#chart-66a20f69-f1f6-4d32-8197-87c30750b664 .axis text.major{font-family:Consolas,"Liberation Mono",Menlo,Courier,monospace;font-size:10px}#chart-66a20f69-f1f6-4d32-8197-87c30750b664 .text-overlay text.value{font-family:Consolas,"Liberation Mono",Menlo,Courier,monospace;font-size:16px}#chart-66a20f69-f1f6-4d32-8197-87c30750b664 .text-overlay text.label{font-family:Consolas,"Liberation Mono",Menlo,Courier,monospace;font-size:10px}#chart-66a20f69-f1f6-4d32-8197-87c30750b664 .tooltip{font-family:Consolas,"Liberation Mono",Menlo,Courier,monospace;font-size:14px}#chart-66a20f69-f1f6-4d32-8197-87c30750b664 text.no_data{font-family:Consolas,"Liberation Mono",Menlo,Courier,monospace;font-size:64px}
#chart-66a20f69-f1f6-4d32-8197-87c30750b664{background-color:rgba(249,249,249,1)}#chart-66a20f69-f1f6-4d32-8197-87c30750b664 path,#chart-66a20f69-f1f6-4d32-8197-87c30750b664 line,#chart-66a20f69-f1f6-4d32-8197-87c30750b664 rect,#chart-66a20f69-f1f6-4d32-8197-87c30750b664 circle{-webkit-transition:150ms;-moz-transition:150ms;transition:150ms}#chart-66a20f69-f1f6-4d32-8197-87c30750b664 .graph &gt; .background{fill:rgba(249,249,249,1)}#chart-66a20f69-f1f6-4d32-8197-87c30750b664 .plot &gt; .background{fill:rgba(255,255,255,1)}#chart-66a20f69-f1f6-4d32-8197-87c30750b664 .graph{fill:rgba(0,0,0,.87)}#chart-66a20f69-f1f6-4d32-8197-87c30750b664 text.no_data{fill:rgba(0,0,0,1)}#chart-66a20f69-f1f6-4d32-8197-87c30750b664 .title{fill:rgba(0,0,0,1)}#chart-66a20f69-f1f6-4d32-8197-87c30750b664 .legends .legend text{fill:rgba(0,0,0,.87)}#chart-66a20f69-f1f6-4d32-8197-87c30750b664 .legends .legend:hover text{fill:rgba(0,0,0,1)}#chart-66a20f69-f1f6-4d32-8197-87c30750b664 .axis .line{stroke:rgba(0,0,0,1)}#chart-66a20f69-f1f6-4d32-8197-87c30750b664 .axis .guide.line{stroke:rgba(0,0,0,.54)}#chart-66a20f69-f1f6-4d32-8197-87c30750b664 .axis .major.line{stroke:rgba(0,0,0,.87)}#chart-66a20f69-f1f6-4d32-8197-87c30750b664 .axis text.major{fill:rgba(0,0,0,1)}#chart-66a20f69-f1f6-4d32-8197-87c30750b664 .axis.y .guides:hover .guide.line,#chart-66a20f69-f1f6-4d32-8197-87c30750b664 .line-graph .axis.x .guides:hover .guide.line,#chart-66a20f69-f1f6-4d32-8197-87c30750b664 .stackedline-graph .axis.x .guides:hover .guide.line,#chart-66a20f69-f1f6-4d32-8197-87c30750b664 .xy-graph .axis.x .guides:hover .guide.line{stroke:rgba(0,0,0,1)}#chart-66a20f69-f1f6-4d32-8197-87c30750b664 .axis .guides:hover text{fill:rgba(0,0,0,1)}#chart-66a20f69-f1f6-4d32-8197-87c30750b664 .reactive{fill-opacity:.7;stroke-opacity:.8;stroke-width:1}#chart-66a20f69-f1f6-4d32-8197-87c30750b664 .ci{stroke:rgba(0,0,0,.87)}#chart-66a20f69-f1f6-4d32-8197-87c30750b664 .reactive.active,#chart-66a20f69-f1f6-4d32-8197-87c30750b664 .active .reactive{fill-opacity:.8;stroke-opacity:.9;stroke-width:4}#chart-66a20f69-f1f6-4d32-8197-87c30750b664 .ci .reactive.active{stroke-width:1.5}#chart-66a20f69-f1f6-4d32-8197-87c30750b664 .series text{fill:rgba(0,0,0,1)}#chart-66a20f69-f1f6-4d32-8197-87c30750b664 .tooltip rect{fill:rgba(255,255,255,1);stroke:rgba(0,0,0,1);-webkit-transition:opacity 150ms;-moz-transition:opacity 150ms;transition:opacity 150ms}#chart-66a20f69-f1f6-4d32-8197-87c30750b664 .tooltip .label{fill:rgba(0,0,0,.87)}#chart-66a20f69-f1f6-4d32-8197-87c30750b664 .tooltip .label{fill:rgba(0,0,0,.87)}#chart-66a20f69-f1f6-4d32-8197-87c30750b664 .tooltip .legend{font-size:.8em;fill:rgba(0,0,0,.54)}#chart-66a20f69-f1f6-4d32-8197-87c30750b664 .tooltip .x_label{font-size:.6em;fill:rgba(0,0,0,1)}#chart-66a20f69-f1f6-4d32-8197-87c30750b664 .tooltip .xlink{font-size:.5em;text-decoration:underline}#chart-66a20f69-f1f6-4d32-8197-87c30750b664 .tooltip .value{font-size:1.5em}#chart-66a20f69-f1f6-4d32-8197-87c30750b664 .bound{font-size:.5em}#chart-66a20f69-f1f6-4d32-8197-87c30750b664 .max-value{font-size:.75em;fill:rgba(0,0,0,.54)}#chart-66a20f69-f1f6-4d32-8197-87c30750b664 .map-element{fill:rgba(255,255,255,1);stroke:rgba(0,0,0,.54) !important}#chart-66a20f69-f1f6-4d32-8197-87c30750b664 .map-element .reactive{fill-opacity:inherit;stroke-opacity:inherit}#chart-66a20f69-f1f6-4d32-8197-87c30750b664 .color-0,#chart-66a20f69-f1f6-4d32-8197-87c30750b664 .color-0 a:visited{stroke:#F44336;fill:#F44336}#chart-66a20f69-f1f6-4d32-8197-87c30750b664 .text-overlay .color-0 text{fill:black}
#chart-66a20f69-f1f6-4d32-8197-87c30750b664 text.no_data{text-anchor:middle}#chart-66a20f69-f1f6-4d32-8197-87c30750b664 .guide.line{fill:none}#chart-66a20f69-f1f6-4d32-8197-87c30750b664 .centered{text-anchor:middle}#chart-66a20f69-f1f6-4d32-8197-87c30750b664 .title{text-anchor:middle}#chart-66a20f69-f1f6-4d32-8197-87c30750b664 .legends .legend text{fill-opacity:1}#chart-66a20f69-f1f6-4d32-8197-87c30750b664 .axis.x text{text-anchor:middle}#chart-66a20f69-f1f6-4d32-8197-87c30750b664 .axis.x:not(.web) text[transform]{text-anchor:start}#chart-66a20f69-f1f6-4d32-8197-87c30750b664 .axis.x:not(.web) text[transform].backwards{text-anchor:end}#chart-66a20f69-f1f6-4d32-8197-87c30750b664 .axis.y text{text-anchor:end}#chart-66a20f69-f1f6-4d32-8197-87c30750b664 .axis.y text[transform].backwards{text-anchor:start}#chart-66a20f69-f1f6-4d32-8197-87c30750b664 .axis.y2 text{text-anchor:start}#chart-66a20f69-f1f6-4d32-8197-87c30750b664 .axis.y2 text[transform].backwards{text-anchor:end}#chart-66a20f69-f1f6-4d32-8197-87c30750b664 .axis .guide.line{stroke-dasharray:4,4;stroke:black}#chart-66a20f69-f1f6-4d32-8197-87c30750b664 .axis .major.guide.line{stroke-dasharray:6,6;stroke:black}#chart-66a20f69-f1f6-4d32-8197-87c30750b664 .horizontal .axis.y .guide.line,#chart-66a20f69-f1f6-4d32-8197-87c30750b664 .horizontal .axis.y2 .guide.line,#chart-66a20f69-f1f6-4d32-8197-87c30750b664 .vertical .axis.x .guide.line{opacity:0}#chart-66a20f69-f1f6-4d32-8197-87c30750b664 .horizontal .axis.always_show .guide.line,#chart-66a20f69-f1f6-4d32-8197-87c30750b664 .vertical .axis.always_show .guide.line{opacity:1 !important}#chart-66a20f69-f1f6-4d32-8197-87c30750b664 .axis.y .guides:hover .guide.line,#chart-66a20f69-f1f6-4d32-8197-87c30750b664 .axis.y2 .guides:hover .guide.line,#chart-66a20f69-f1f6-4d32-8197-87c30750b664 .axis.x .guides:hover .guide.line{opacity:1}#chart-66a20f69-f1f6-4d32-8197-87c30750b664 .axis .guides:hover text{opacity:1}#chart-66a20f69-f1f6-4d32-8197-87c30750b664 .nofill{fill:none}#chart-66a20f69-f1f6-4d32-8197-87c30750b664 .subtle-fill{fill-opacity:.2}#chart-66a20f69-f1f6-4d32-8197-87c30750b664 .dot{stroke-width:1px;fill-opacity:1;stroke-opacity:1}#chart-66a20f69-f1f6-4d32-8197-87c30750b664 .dot.active{stroke-width:5px}#chart-66a20f69-f1f6-4d32-8197-87c30750b664 .dot.negative{fill:transparent}#chart-66a20f69-f1f6-4d32-8197-87c30750b664 text,#chart-66a20f69-f1f6-4d32-8197-87c30750b664 tspan{stroke:none !important}#chart-66a20f69-f1f6-4d32-8197-87c30750b664 .series text.active{opacity:1}#chart-66a20f69-f1f6-4d32-8197-87c30750b664 .tooltip rect{fill-opacity:.95;stroke-width:.5}#chart-66a20f69-f1f6-4d32-8197-87c30750b664 .tooltip text{fill-opacity:1}#chart-66a20f69-f1f6-4d32-8197-87c30750b664 .showable{visibility:hidden}#chart-66a20f69-f1f6-4d32-8197-87c30750b664 .showable.shown{visibility:visible}#chart-66a20f69-f1f6-4d32-8197-87c30750b664 .gauge-background{fill:rgba(229,229,229,1);stroke:none}#chart-66a20f69-f1f6-4d32-8197-87c30750b664 .bg-lines{stroke:rgba(249,249,249,1);stroke-width:2px}</style><script type="text/javascript">window.pygal = window.pygal || {};window.pygal.config = window.pygal.config || {};window.pygal.config['66a20f69-f1f6-4d32-8197-87c30750b664'] = {"allow_interruptions": false, "box_mode": "extremes", "classes": ["pygal-chart", "pygal-sparkline"], "css": ["file://style.css", "file://graph.css"], "defs": [], "disable_xml_declaration": false, "dots_size": 2.5, "dynamic_print_values": false, "explicit_size": true, "fill": false, "force_uri_protocol": "https", "formatter": null, "half_pie": false, "height": 50, "include_x_axis": false, "inner_radius": 0, "interpolate": "cubic", "interpolation_parameters": {}, "interpolation_precision": 250, "inverse_y_axis": false, "js": [], "legend_at_bottom": false, "legend_at_bottom_columns": null, "legend_box_size": 12, "logarithmic": false, "margin": 10, "margin_bottom": null, "margin_left": null, "margin_right": null, "margin_top": null, "max_scale": 2, "min_scale": 1, "missing_value_fill_truncation": "x", "no_data_text": "", "no_prefix": false, "order_min": null, "pretty_print": false, "print_labels": false, "print_values": false, "print_values_position": "center", "print_zeroes": true, "range": null, "rounded_bars": null, "secondary_range": null, "show_dots": false, "show_legend": false, "show_minor_x_labels": true, "show_minor_y_labels": true, "show_only_major_dots": false, "show_x_guides": false, "show_x_labels": false, "show_y_guides": true, "show_y_labels": true, "spacing": 0, "stack_from_top": false, "strict": false, "stroke": true, "stroke_style": null, "style": {"background": "rgba(249, 249, 249, 1)", "ci_colors": [], "colors": ["#F44336", "#3F51B5", "#009688", "#FFC107", "#FF5722", "#9C27B0", "#03A9F4", "#8BC34A", "#FF9800", "#E91E63", "#2196F3", "#4CAF50", "#FFEB3B", "#673AB7", "#00BCD4", "#CDDC39", "#9E9E9E", "#607D8B"], "dot_opacity": "1", "font_family": "Consolas, \"Liberation Mono\", Menlo, Courier, monospace", "foreground": "rgba(0, 0, 0, .87)", "foreground_strong": "rgba(0, 0, 0, 1)", "foreground_subtle": "rgba(0, 0, 0, .54)", "guide_stroke_color": "black", "guide_stroke_dasharray": "4,4", "label_font_family": "Consolas, \"Liberation Mono\", Menlo, Courier, monospace", "label_font_size": 10, "legend_font_family": "Consolas, \"Liberation Mono\", Menlo, Courier, monospace", "legend_font_size": 14, "major_guide_stroke_color": "black", "major_guide_stroke_dasharray": "6,6", "major_label_font_family": "Consolas, \"Liberation Mono\", Menlo, Courier, monospace", "major_label_font_size": 10, "no_data_font_family": "Consolas, \"Liberation Mono\", Menlo, Courier, monospace", "no_data_font_size": 64, "opacity": ".7", "opacity_hover": ".8", "plot_background": "rgba(255, 255, 255, 1)", "stroke_opacity": ".8", "stroke_opacity_hover": ".9", "stroke_width": "1", "stroke_width_hover": "4", "title_font_family": "Consolas, \"Liberation Mono\", Menlo, Courier, monospace", "title_font_size": 16, "tooltip_font_family": "Consolas, \"Liberation Mono\", Menlo, Courier, monospace", "tooltip_font_size": 14, "transition": "150ms", "value_background": "rgba(229, 229, 229, 1)", "value_colors": [], "value_font_family": "Consolas, \"Liberation Mono\", Menlo, Courier, monospace", "value_font_size": 16, "value_label_font_family": "Consolas, \"Liberation Mono\", Menlo, Courier, monospace", "value_label_font_size": 10}, "title": null, "tooltip_border_radius": 0, "tooltip_fancy_mode": true, "truncate_label": null, "truncate_legend": null, "width": 200, "x_label_rotation": 0, "x_labels": ["2024/8", "2024/7", "2024/6", "2024/5"], "x_labels_major": null, "x_labels_major_count": null, "x_labels_major_every": null, "x_title": null, "xrange": null, "y_label_rotation": 0, "y_labels": null, "y_labels_major": null, "y_labels_major_count": null, "y_labels_major_every": null, "y_title": null, "zero": 0, "legends": [""]}</script></defs><title>Pygal</title><g class="graph line-graph vertical"><rect x="0" y="0" width="200" height="50" class="background" /><g transform="translate(63, 10)" class="plot"><rect x="0" y="0" width="126.0" height="30" class="background" /><g class="axis y always_show"><path d="M0.000000 30.000000 h126.000000" class="line" /><g class="guides"><path d="M0.000000 29.423077 h126.000000" class="guide line" /><text x="-5" y="32.92307692307692" class="">2</text><title>2</title></g><g class="guides"><path d="M0.000000 0.576923 h126.000000" class="guide line" /><text x="-5" y="4.07692307692308" class="">11.449312</text><title>11.449312</title></g></g><g class="series serie-0 color-0"><path d="M2.423077 29.423077 L2.584615 29.306667 2.746154 29.190258 2.907692 29.073853 3.069231 28.957454 3.230769 28.841061 3.392308 28.724678 3.553846 28.608306 3.715385 28.491946 3.876923 28.375600 4.038462 28.259271 4.200000 28.142959 4.361538 28.026667 4.523077 27.910397 4.684615 27.794151 4.846154 27.677929 5.007692 27.561735 5.169231 27.445569 5.330769 27.329433 5.492308 27.213330 5.653846 27.097262 5.815385 26.981229 5.976923 26.865234 6.138462 26.749278 6.300000 26.633364 6.461538 26.517493 6.623077 26.401667 6.784615 26.285887 6.946154 26.170157 7.107692 26.054476 7.269231 25.938848 7.430769 25.823273 7.592308 25.707754 7.753846 25.592293 7.915385 25.476891 8.076923 25.361550 8.238462 25.246273 8.400000 25.131059 8.561538 25.015913 8.723077 24.900834 8.884615 24.785826 9.046154 24.670890 9.207692 24.556027 9.369231 24.441240 9.530769 24.326530 9.692308 24.211899 9.853846 24.097349 10.015385 23.982882 10.176923 23.868499 10.338462 23.754203 10.500000 23.639994 10.661538 23.525876 10.823077 23.411849 10.984615 23.297915 11.146154 23.184077 11.307692 23.070336 11.469231 22.956694 11.630769 22.843152 11.792308 22.729713 11.953846 22.616378 12.115385 22.503149 12.276923 22.390028 12.438462 22.277017 12.600000 22.164117 12.761538 22.051331 12.923077 21.938659 13.084615 21.826104 13.246154 21.713668 13.407692 21.601352 13.569231 21.489159 13.730769 21.377089 13.892308 21.265146 14.053846 21.153330 14.215385 21.041643 14.376923 20.930088 14.538462 20.818665 14.700000 20.707378 14.861538 20.596227 15.023077 20.485214 15.184615 20.374342 15.346154 20.263612 15.507692 20.153025 15.669231 20.042584 15.830769 19.932290 15.992308 19.822146 16.153846 19.712153 16.315385 19.602312 16.476923 19.492626 16.638462 19.383096 16.800000 19.273725 16.961538 19.164513 17.123077 19.055463 17.284615 18.946577 17.446154 18.837856 17.607692 18.729303 17.769231 18.620918 17.930769 18.512704 18.092308 18.404663 18.253846 18.296796 18.415385 18.189105 18.576923 18.081592 18.738462 17.974259 18.900000 17.867107 19.061538 17.760139 19.223077 17.653356 19.384615 17.546759 19.546154 17.440352 19.707692 17.334135 19.869231 17.228110 20.030769 17.122280 20.192308 17.016645 20.353846 16.911208 20.515385 16.805971 20.676923 16.700935 20.838462 16.596102 21.000000 16.491474 21.161538 16.387052 21.323077 16.282839 21.484615 16.178837 21.646154 16.075047 21.807692 15.971470 21.969231 15.868109 22.130769 15.764966 22.292308 15.662042 22.453846 15.559339 22.615385 15.456859 22.776923 15.354603 22.938462 15.252574 23.100000 15.150774 23.261538 15.049203 23.423077 14.947864 23.584615 14.846759 23.746154 14.745890 23.907692 14.645257 24.069231 14.544864 24.230769 14.444712 24.392308 14.344802 24.553846 14.245137 24.715385 14.145718 24.876923 14.046547 25.038462 13.947625 25.200000 13.848956 25.361538 13.750540 25.523077 13.652379 25.684615 13.554475 25.846154 13.456830 26.007692 13.359446 26.169231 13.262324 26.330769 13.165466 26.492308 13.068875 26.653846 12.972551 26.815385 12.876497 26.976923 12.780714 27.138462 12.685204 27.300000 12.589970 27.461538 12.495012 27.623077 12.400333 27.784615 12.305934 27.946154 12.211817 28.107692 12.117985 28.269231 12.024438 28.430769 11.931179 28.592308 11.838209 28.753846 11.745530 28.915385 11.653145 29.076923 11.561054 29.238462 11.469259 29.400000 11.377763 29.561538 11.286568 29.723077 11.195674 29.884615 11.105084 30.046154 11.014800 30.207692 10.924822 30.369231 10.835155 30.530769 10.745798 30.692308 10.656753 30.853846 10.568024 31.015385 10.479610 31.176923 10.391515 31.338462 10.303740 31.500000 10.216287 31.661538 10.129157 31.823077 10.042352 31.984615 9.955875 32.146154 9.869726 32.307692 9.783908 32.469231 9.698423 32.630769 9.613272 32.792308 9.528457 32.953846 9.443981 33.115385 9.359843 33.276923 9.276048 33.438462 9.192595 33.600000 9.109488 33.761538 9.026728 33.923077 8.944316 34.084615 8.862255 34.246154 8.780546 34.407692 8.699191 34.569231 8.618193 34.730769 8.537551 34.892308 8.457270 35.053846 8.377349 35.215385 8.297792 35.376923 8.218600 35.538462 8.139774 35.700000 8.061317 35.861538 7.983230 36.023077 7.905515 36.184615 7.828174 36.346154 7.751209 36.507692 7.674621 36.669231 7.598412 36.830769 7.522584 36.992308 7.447140 37.153846 7.372080 37.315385 7.297406 37.476923 7.223121 37.638462 7.149225 37.800000 7.075722 37.961538 7.002612 38.123077 6.929897 38.284615 6.857580 38.446154 6.785662 38.607692 6.714145 38.769231 6.643030 38.930769 6.572320 39.092308 6.502016 39.253846 6.432120 39.415385 6.362634 39.576923 6.293559 39.738462 6.224898 39.900000 6.156652 40.061538 6.088823 40.223077 6.021413 40.384615 5.954423 40.546154 5.887856 40.707692 5.821713 40.869231 5.755996 41.030769 5.690707 41.192308 5.625847 41.353846 5.561419 41.515385 5.497424 41.676923 5.433864 41.838462 5.370741 42.000000 5.308056 42.161538 5.245812 42.323077 5.184010 42.484615 5.122652 42.646154 5.061739 42.807692 5.001274 42.969231 4.941259 43.130769 4.881691 43.292308 4.822572 43.453846 4.763899 43.615385 4.705673 43.776923 4.647892 43.938462 4.590556 44.100000 4.533664 44.261538 4.477215 44.423077 4.421208 44.584615 4.365643 44.746154 4.310518 44.907692 4.255834 45.069231 4.201588 45.230769 4.147781 45.392308 4.094412 45.553846 4.041480 45.715385 3.988983 45.876923 3.936922 46.038462 3.885296 46.200000 3.834103 46.361538 3.783343 46.523077 3.733016 46.684615 3.683119 46.846154 3.633654 47.007692 3.584618 47.169231 3.536011 47.330769 3.487832 47.492308 3.440081 47.653846 3.392757 47.815385 3.345858 47.976923 3.299385 48.138462 3.253336 48.300000 3.207711 48.461538 3.162508 48.623077 3.117728 48.784615 3.073368 48.946154 3.029429 49.107692 2.985910 49.269231 2.942810 49.430769 2.900127 49.592308 2.857862 49.753846 2.816014 49.915385 2.774581 50.076923 2.733564 50.238462 2.692960 50.400000 2.652770 50.561538 2.612993 50.723077 2.573627 50.884615 2.534672 51.046154 2.496128 51.207692 2.457993 51.369231 2.420267 51.530769 2.382949 51.692308 2.346038 51.853846 2.309534 52.015385 2.273435 52.176923 2.237741 52.338462 2.202451 52.500000 2.167564 52.661538 2.133080 52.823077 2.098997 52.984615 2.065315 53.146154 2.032033 53.307692 1.999151 53.469231 1.966667 53.630769 1.934581 53.792308 1.902893 53.953846 1.871600 54.115385 1.840703 54.276923 1.810200 54.438462 1.780091 54.600000 1.750375 54.761538 1.721052 54.923077 1.692120 55.084615 1.663579 55.246154 1.635428 55.407692 1.607666 55.569231 1.580293 55.730769 1.553307 55.892308 1.526708 56.053846 1.500495 56.215385 1.474667 56.376923 1.449224 56.538462 1.424164 56.700000 1.399488 56.861538 1.375193 57.023077 1.351280 57.184615 1.327748 57.346154 1.304595 57.507692 1.281821 57.669231 1.259426 57.830769 1.237408 57.992308 1.215767 58.153846 1.194502 58.315385 1.173611 58.476923 1.153096 58.638462 1.132953 58.800000 1.113184 58.961538 1.093786 59.123077 1.074760 59.284615 1.056104 59.446154 1.037818 59.607692 1.019900 59.769231 1.002351 59.930769 0.985169 60.092308 0.968353 60.253846 0.951904 60.415385 0.935819 60.576923 0.920098 60.738462 0.904741 60.900000 0.889746 61.061538 0.875114 61.223077 0.860842 61.384615 0.846931 61.546154 0.833379 61.707692 0.820185 61.869231 0.807350 62.030769 0.794872 62.192308 0.782750 62.353846 0.770984 62.515385 0.759572 62.676923 0.748515 62.838462 0.737811 63.000000 0.727459 63.161538 0.717459 63.323077 0.707810 63.484615 0.698511 63.646154 0.689561 63.807692 0.680960 63.969231 0.672707 64.130769 0.664800 64.292308 0.657240 64.453846 0.650025 64.615385 0.643155 64.776923 0.636629 64.938462 0.630446 65.100000 0.624605 65.261538 0.619105 65.423077 0.613947 65.584615 0.609128 65.746154 0.604648 65.907692 0.600507 66.069231 0.596704 66.230769 0.593237 66.392308 0.590106 66.553846 0.587311 66.715385 0.584850 66.876923 0.582723 67.038462 0.580928 67.200000 0.579466 67.361538 0.578335 67.523077 0.577535 67.684615 0.577065 67.846154 0.576923 68.007692 0.577110 68.169231 0.577624 68.330769 0.578465 68.492308 0.579632 68.653846 0.581124 68.815385 0.582940 68.976923 0.585080 69.138462 0.587542 69.300000 0.590327 69.461538 0.593432 69.623077 0.596858 69.784615 0.600604 69.946154 0.604669 70.107692 0.609051 70.269231 0.613751 70.430769 0.618768 70.592308 0.624100 70.753846 0.629747 70.915385 0.635708 71.076923 0.641983 71.238462 0.648570 71.400000 0.655469 71.561538 0.662679 71.723077 0.670200 71.884615 0.678029 72.046154 0.686168 72.207692 0.694614 72.369231 0.703368 72.530769 0.712428 72.692308 0.721793 72.853846 0.731463 73.015385 0.741438 73.176923 0.751715 73.338462 0.762295 73.500000 0.773177 73.661538 0.784359 73.823077 0.795842 73.984615 0.807624 74.146154 0.819704 74.307692 0.832082 74.469231 0.844757 74.630769 0.857728 74.792308 0.870995 74.953846 0.884557 75.115385 0.898412 75.276923 0.912560 75.438462 0.927000 75.600000 0.941732 75.761538 0.956755 75.923077 0.972068 76.084615 0.987670 76.246154 1.003560 76.407692 1.019738 76.569231 1.036202 76.730769 1.052953 76.892308 1.069989 77.053846 1.087309 77.215385 1.104913 77.376923 1.122800 77.538462 1.140969 77.700000 1.159419 77.861538 1.178150 78.023077 1.197161 78.184615 1.216451 78.346154 1.236019 78.507692 1.255864 78.669231 1.275986 78.830769 1.296384 78.992308 1.317057 79.153846 1.338004 79.315385 1.359225 79.476923 1.380718 79.638462 1.402484 79.800000 1.424521 79.961538 1.446828 80.123077 1.469404 80.284615 1.492250 80.446154 1.515363 80.607692 1.538744 80.769231 1.562392 80.930769 1.586305 81.092308 1.610483 81.253846 1.634925 81.415385 1.659630 81.576923 1.684598 81.738462 1.709828 81.900000 1.735319 82.061538 1.761070 82.223077 1.787081 82.384615 1.813350 82.546154 1.839877 82.707692 1.866662 82.869231 1.893702 83.030769 1.920998 83.192308 1.948549 83.353846 1.976354 83.515385 2.004412 83.676923 2.032722 83.838462 2.061282 84.000000 2.090093 84.161538 2.119153 84.323077 2.148460 84.484615 2.178014 84.646154 2.207815 84.807692 2.237860 84.969231 2.268148 85.130769 2.298680 85.292308 2.329454 85.453846 2.360468 85.615385 2.391722 85.776923 2.423215 85.938462 2.454945 86.100000 2.486912 86.261538 2.519115 86.423077 2.551553 86.584615 2.584224 86.746154 2.617128 86.907692 2.650263 87.069231 2.683630 87.230769 2.717225 87.392308 2.751050 87.553846 2.785102 87.715385 2.819380 87.876923 2.853884 88.038462 2.888613 88.200000 2.923565 88.361538 2.958739 88.523077 2.994135 88.684615 3.029752 88.846154 3.065588 89.007692 3.101642 89.169231 3.137914 89.330769 3.174402 89.492308 3.211106 89.653846 3.248024 89.815385 3.285155 89.976923 3.322498 90.138462 3.360053 90.300000 3.397819 90.461538 3.435793 90.623077 3.473976 90.784615 3.512366 90.946154 3.550962 91.107692 3.589764 91.269231 3.628769 91.430769 3.667978 91.592308 3.707389 91.753846 3.747001 91.915385 3.786814 92.076923 3.826825 92.238462 3.867035 92.400000 3.907441 92.561538 3.948044 92.723077 3.988842 92.884615 4.029834 93.046154 4.071019 93.207692 4.112396 93.369231 4.153963 93.530769 4.195721 93.692308 4.237668 93.853846 4.279803 94.015385 4.322125 94.176923 4.364632 94.338462 4.407325 94.500000 4.450201 94.661538 4.493261 94.823077 4.536502 94.984615 4.579924 95.146154 4.623526 95.307692 4.667306 95.469231 4.711265 95.630769 4.755400 95.792308 4.799711 95.953846 4.844197 96.115385 4.888856 96.276923 4.933688 96.438462 4.978692 96.600000 5.023867 96.761538 5.069211 96.923077 5.114724 97.084615 5.160404 97.246154 5.206251 97.407692 5.252264 97.569231 5.298441 97.730769 5.344782 97.892308 5.391285 98.053846 5.437950 98.215385 5.484776 98.376923 5.531760 98.538462 5.578904 98.700000 5.626205 98.861538 5.673662 99.023077 5.721275 99.184615 5.769042 99.346154 5.816963 99.507692 5.865036 99.669231 5.913260 99.830769 5.961635 99.992308 6.010159 100.153846 6.058831 100.315385 6.107651 100.476923 6.156617 100.638462 6.205728 100.800000 6.254984 100.961538 6.304383 101.123077 6.353924 101.284615 6.403606 101.446154 6.453429 101.607692 6.503390 101.769231 6.553490 101.930769 6.603727 102.092308 6.654100 102.253846 6.704608 102.415385 6.755251 102.576923 6.806026 102.738462 6.856934 102.900000 6.907972 103.061538 6.959141 103.223077 7.010438 103.384615 7.061864 103.546154 7.113417 103.707692 7.165095 103.869231 7.216899 104.030769 7.268826 104.192308 7.320877 104.353846 7.373049 104.515385 7.425342 104.676923 7.477756 104.838462 7.530288 105.000000 7.582937 105.161538 7.635704 105.323077 7.688587 105.484615 7.741584 105.646154 7.794695 105.807692 7.847919 105.969231 7.901254 106.130769 7.954701 106.292308 8.008257 106.453846 8.061922 106.615385 8.115694 106.776923 8.169573 106.938462 8.223558 107.100000 8.277648 107.261538 8.331841 107.423077 8.386136 107.584615 8.440534 107.746154 8.495031 107.907692 8.549629 108.069231 8.604325 108.230769 8.659118 108.392308 8.714008 108.553846 8.768994 108.715385 8.824074 108.876923 8.879247 109.038462 8.934513 109.200000 8.989871 109.361538 9.045318 109.523077 9.100856 109.684615 9.156481 109.846154 9.212194 110.007692 9.267993 110.169231 9.323878 110.330769 9.379847 110.492308 9.435899 110.653846 9.492034 110.815385 9.548249 110.976923 9.604546 111.138462 9.660921 111.300000 9.717374 111.461538 9.773905 111.623077 9.830512 111.784615 9.887194 111.946154 9.943951 112.107692 10.000780 112.269231 10.057682 112.430769 10.114654 112.592308 10.171697 112.753846 10.228809 112.915385 10.285989 113.076923 10.343236 113.238462 10.400549 113.400000 10.457927 113.561538 10.515369 113.723077 10.572874 113.884615 10.630441 114.046154 10.688069 114.207692 10.745757 114.369231 10.803504 114.530769 10.861309 114.692308 10.919171 114.853846 10.977088 115.015385 11.035060 115.176923 11.093087 115.338462 11.151166 115.500000 11.209297 115.661538 11.267478 115.823077 11.325710 115.984615 11.383990 116.146154 11.442318 116.307692 11.500693 116.469231 11.559113 116.630769 11.617578 116.792308 11.676087 116.953846 11.734639 117.115385 11.793232 117.276923 11.851866 117.438462 11.910539 117.600000 11.969251 117.761538 12.028001 117.923077 12.086787 118.084615 12.145608 118.246154 12.204465 118.407692 12.263354 118.569231 12.322277 118.730769 12.381231 118.892308 12.440215 119.053846 12.499229 119.215385 12.558271 119.376923 12.617340 119.538462 12.676436 119.700000 12.735558 119.861538 12.794704 120.023077 12.853873 120.184615 12.913064 120.346154 12.972277 120.507692 13.031510 120.669231 13.090763 120.830769 13.150034 120.992308 13.209322 121.153846 13.268626 121.315385 13.327946 121.476923 13.387279 121.638462 13.446626 121.800000 13.505986 121.961538 13.565356 122.123077 13.624736 122.284615 13.684126 122.446154 13.743524 122.607692 13.802929 122.769231 13.862340 122.930769 13.921756 123.092308 13.981176 123.253846 14.040599 123.415385 14.100024 123.576923 14.159450" class="line reactive nofill" /></g></g><g class="titles" /><g transform="translate(63, 10)" class="plot overlay"><g class="series serie-0 color-0" /></g><g transform="translate(63, 10)" class="plot text-overlay"><g class="series serie-0 color-0" /></g><g transform="translate(63, 10)" class="plot tooltip-overlay"><g transform="translate(0 0)" style="opacity: 0" class="tooltip"><rect rx="0" ry="0" width="0" height="0" class="tooltip-box" /><g class="text" /></g></g></g></svg>