<?xml version='1.0' encoding='utf-8'?>
<svg xmlns="http://www.w3.org/2000/svg" id="chart-ea36f1f9-ac75-4693-81af-c0ff336d003d" class="pygal-chart pygal-sparkline" viewBox="0 0 200 50" width="200" height="50"><!--Generated with pygal 3.0.4 (etree) ©Kozea 2012-2016 on 2024-07-28--><!--http://pygal.org--><!--http://github.com/Kozea/pygal--><defs><style type="text/css">#chart-ea36f1f9-ac75-4693-81af-c0ff336d003d{-webkit-user-select:none;-webkit-font-smoothing:antialiased;font-family:Consolas,"Liberation Mono",Menlo,Courier,monospace}#chart-ea36f1f9-ac75-4693-81af-c0ff336d003d .title{font-family:Consolas,"Liberation Mono",Menlo,Courier,monospace;font-size:16px}#chart-ea36f1f9-ac75-4693-81af-c0ff336d003d .legends .legend text{font-family:Consolas,"Liberation Mono",Menlo,Courier,monospace;font-size:14px}#chart-ea36f1f9-ac75-4693-81af-c0ff336d003d .axis text{font-family:Consolas,"Liberation Mono",Menlo,Courier,monospace;font-size:10px}#chart-ea36f1f9-ac75-4693-81af-c0ff336d003d .axis text.major{font-family:Consolas,"Liberation Mono",Menlo,Courier,monospace;font-size:10px}#chart-ea36f1f9-ac75-4693-81af-c0ff336d003d .text-overlay text.value{font-family:Consolas,"Liberation Mono",Menlo,Courier,monospace;font-size:16px}#chart-ea36f1f9-ac75-4693-81af-c0ff336d003d .text-overlay text.label{font-family:Consolas,"Liberation Mono",Menlo,Courier,monospace;font-size:10px}#chart-ea36f1f9-ac75-4693-81af-c0ff336d003d .tooltip{font-family:Consolas,"Liberation Mono",Menlo,Courier,monospace;font-size:14px}#chart-ea36f1f9-ac75-4693-81af-c0ff336d003d text.no_data{font-family:Consolas,"Liberation Mono",Menlo,Courier,monospace;font-size:64px}
#chart-ea36f1f9-ac75-4693-81af-c0ff336d003d{background-color:rgba(249,249,249,1)}#chart-ea36f1f9-ac75-4693-81af-c0ff336d003d path,#chart-ea36f1f9-ac75-4693-81af-c0ff336d003d line,#chart-ea36f1f9-ac75-4693-81af-c0ff336d003d rect,#chart-ea36f1f9-ac75-4693-81af-c0ff336d003d circle{-webkit-transition:150ms;-moz-transition:150ms;transition:150ms}#chart-ea36f1f9-ac75-4693-81af-c0ff336d003d .graph &gt; .background{fill:rgba(249,249,249,1)}#chart-ea36f1f9-ac75-4693-81af-c0ff336d003d .plot &gt; .background{fill:rgba(255,255,255,1)}#chart-ea36f1f9-ac75-4693-81af-c0ff336d003d .graph{fill:rgba(0,0,0,.87)}#chart-ea36f1f9-ac75-4693-81af-c0ff336d003d text.no_data{fill:rgba(0,0,0,1)}#chart-ea36f1f9-ac75-4693-81af-c0ff336d003d .title{fill:rgba(0,0,0,1)}#chart-ea36f1f9-ac75-4693-81af-c0ff336d003d .legends .legend text{fill:rgba(0,0,0,.87)}#chart-ea36f1f9-ac75-4693-81af-c0ff336d003d .legends .legend:hover text{fill:rgba(0,0,0,1)}#chart-ea36f1f9-ac75-4693-81af-c0ff336d003d .axis .line{stroke:rgba(0,0,0,1)}#chart-ea36f1f9-ac75-4693-81af-c0ff336d003d .axis .guide.line{stroke:rgba(0,0,0,.54)}#chart-ea36f1f9-ac75-4693-81af-c0ff336d003d .axis .major.line{stroke:rgba(0,0,0,.87)}#chart-ea36f1f9-ac75-4693-81af-c0ff336d003d .axis text.major{fill:rgba(0,0,0,1)}#chart-ea36f1f9-ac75-4693-81af-c0ff336d003d .axis.y .guides:hover .guide.line,#chart-ea36f1f9-ac75-4693-81af-c0ff336d003d .line-graph .axis.x .guides:hover .guide.line,#chart-ea36f1f9-ac75-4693-81af-c0ff336d003d .stackedline-graph .axis.x .guides:hover .guide.line,#chart-ea36f1f9-ac75-4693-81af-c0ff336d003d .xy-graph .axis.x .guides:hover .guide.line{stroke:rgba(0,0,0,1)}#chart-ea36f1f9-ac75-4693-81af-c0ff336d003d .axis .guides:hover text{fill:rgba(0,0,0,1)}#chart-ea36f1f9-ac75-4693-81af-c0ff336d003d .reactive{fill-opacity:.7;stroke-opacity:.8;stroke-width:1}#chart-ea36f1f9-ac75-4693-81af-c0ff336d003d .ci{stroke:rgba(0,0,0,.87)}#chart-ea36f1f9-ac75-4693-81af-c0ff336d003d .reactive.active,#chart-ea36f1f9-ac75-4693-81af-c0ff336d003d .active .reactive{fill-opacity:.8;stroke-opacity:.9;stroke-width:4}#chart-ea36f1f9-ac75-4693-81af-c0ff336d003d .ci .reactive.active{stroke-width:1.5}#chart-ea36f1f9-ac75-4693-81af-c0ff336d003d .series text{fill:rgba(0,0,0,1)}#chart-ea36f1f9-ac75-4693-81af-c0ff336d003d .tooltip rect{fill:rgba(255,255,255,1);stroke:rgba(0,0,0,1);-webkit-transition:opacity 150ms;-moz-transition:opacity 150ms;transition:opacity 150ms}#chart-ea36f1f9-ac75-4693-81af-c0ff336d003d .tooltip .label{fill:rgba(0,0,0,.87)}#chart-ea36f1f9-ac75-4693-81af-c0ff336d003d .tooltip .label{fill:rgba(0,0,0,.87)}#chart-ea36f1f9-ac75-4693-81af-c0ff336d003d .tooltip .legend{font-size:.8em;fill:rgba(0,0,0,.54)}#chart-ea36f1f9-ac75-4693-81af-c0ff336d003d .tooltip .x_label{font-size:.6em;fill:rgba(0,0,0,1)}#chart-ea36f1f9-ac75-4693-81af-c0ff336d003d .tooltip .xlink{font-size:.5em;text-decoration:underline}#chart-ea36f1f9-ac75-4693-81af-c0ff336d003d .tooltip .value{font-size:1.5em}#chart-ea36f1f9-ac75-4693-81af-c0ff336d003d .bound{font-size:.5em}#chart-ea36f1f9-ac75-4693-81af-c0ff336d003d .max-value{font-size:.75em;fill:rgba(0,0,0,.54)}#chart-ea36f1f9-ac75-4693-81af-c0ff336d003d .map-element{fill:rgba(255,255,255,1);stroke:rgba(0,0,0,.54) !important}#chart-ea36f1f9-ac75-4693-81af-c0ff336d003d .map-element .reactive{fill-opacity:inherit;stroke-opacity:inherit}#chart-ea36f1f9-ac75-4693-81af-c0ff336d003d .color-0,#chart-ea36f1f9-ac75-4693-81af-c0ff336d003d .color-0 a:visited{stroke:#F44336;fill:#F44336}#chart-ea36f1f9-ac75-4693-81af-c0ff336d003d .text-overlay .color-0 text{fill:black}
#chart-ea36f1f9-ac75-4693-81af-c0ff336d003d text.no_data{text-anchor:middle}#chart-ea36f1f9-ac75-4693-81af-c0ff336d003d .guide.line{fill:none}#chart-ea36f1f9-ac75-4693-81af-c0ff336d003d .centered{text-anchor:middle}#chart-ea36f1f9-ac75-4693-81af-c0ff336d003d .title{text-anchor:middle}#chart-ea36f1f9-ac75-4693-81af-c0ff336d003d .legends .legend text{fill-opacity:1}#chart-ea36f1f9-ac75-4693-81af-c0ff336d003d .axis.x text{text-anchor:middle}#chart-ea36f1f9-ac75-4693-81af-c0ff336d003d .axis.x:not(.web) text[transform]{text-anchor:start}#chart-ea36f1f9-ac75-4693-81af-c0ff336d003d .axis.x:not(.web) text[transform].backwards{text-anchor:end}#chart-ea36f1f9-ac75-4693-81af-c0ff336d003d .axis.y text{text-anchor:end}#chart-ea36f1f9-ac75-4693-81af-c0ff336d003d .axis.y text[transform].backwards{text-anchor:start}#chart-ea36f1f9-ac75-4693-81af-c0ff336d003d .axis.y2 text{text-anchor:start}#chart-ea36f1f9-ac75-4693-81af-c0ff336d003d .axis.y2 text[transform].backwards{text-anchor:end}#chart-ea36f1f9-ac75-4693-81af-c0ff336d003d .axis .guide.line{stroke-dasharray:4,4;stroke:black}#chart-ea36f1f9-ac75-4693-81af-c0ff336d003d .axis .major.guide.line{stroke-dasharray:6,6;stroke:black}#chart-ea36f1f9-ac75-4693-81af-c0ff336d003d .horizontal .axis.y .guide.line,#chart-ea36f1f9-ac75-4693-81af-c0ff336d003d .horizontal .axis.y2 .guide.line,#chart-ea36f1f9-ac75-4693-81af-c0ff336d003d .vertical .axis.x .guide.line{opacity:0}#chart-ea36f1f9-ac75-4693-81af-c0ff336d003d .horizontal .axis.always_show .guide.line,#chart-ea36f1f9-ac75-4693-81af-c0ff336d003d .vertical .axis.always_show .guide.line{opacity:1 !important}#chart-ea36f1f9-ac75-4693-81af-c0ff336d003d .axis.y .guides:hover .guide.line,#chart-ea36f1f9-ac75-4693-81af-c0ff336d003d .axis.y2 .guides:hover .guide.line,#chart-ea36f1f9-ac75-4693-81af-c0ff336d003d .axis.x .guides:hover .guide.line{opacity:1}#chart-ea36f1f9-ac75-4693-81af-c0ff336d003d .axis .guides:hover text{opacity:1}#chart-ea36f1f9-ac75-4693-81af-c0ff336d003d .nofill{fill:none}#chart-ea36f1f9-ac75-4693-81af-c0ff336d003d .subtle-fill{fill-opacity:.2}#chart-ea36f1f9-ac75-4693-81af-c0ff336d003d .dot{stroke-width:1px;fill-opacity:1;stroke-opacity:1}#chart-ea36f1f9-ac75-4693-81af-c0ff336d003d .dot.active{stroke-width:5px}#chart-ea36f1f9-ac75-4693-81af-c0ff336d003d .dot.negative{fill:transparent}#chart-ea36f1f9-ac75-4693-81af-c0ff336d003d text,#chart-ea36f1f9-ac75-4693-81af-c0ff336d003d tspan{stroke:none !important}#chart-ea36f1f9-ac75-4693-81af-c0ff336d003d .series text.active{opacity:1}#chart-ea36f1f9-ac75-4693-81af-c0ff336d003d .tooltip rect{fill-opacity:.95;stroke-width:.5}#chart-ea36f1f9-ac75-4693-81af-c0ff336d003d .tooltip text{fill-opacity:1}#chart-ea36f1f9-ac75-4693-81af-c0ff336d003d .showable{visibility:hidden}#chart-ea36f1f9-ac75-4693-81af-c0ff336d003d .showable.shown{visibility:visible}#chart-ea36f1f9-ac75-4693-81af-c0ff336d003d .gauge-background{fill:rgba(229,229,229,1);stroke:none}#chart-ea36f1f9-ac75-4693-81af-c0ff336d003d .bg-lines{stroke:rgba(249,249,249,1);stroke-width:2px}</style><script type="text/javascript">window.pygal = window.pygal || {};window.pygal.config = window.pygal.config || {};window.pygal.config['ea36f1f9-ac75-4693-81af-c0ff336d003d'] = {"allow_interruptions": false, "box_mode": "extremes", "classes": ["pygal-chart", "pygal-sparkline"], "css": ["file://style.css", "file://graph.css"], "defs": [], "disable_xml_declaration": false, "dots_size": 2.5, "dynamic_print_values": false, "explicit_size": true, "fill": false, "force_uri_protocol": "https", "formatter": null, "half_pie": false, "height": 50, "include_x_axis": false, "inner_radius": 0, "interpolate": "cubic", "interpolation_parameters": {}, "interpolation_precision": 250, "inverse_y_axis": false, "js": [], "legend_at_bottom": false, "legend_at_bottom_columns": null, "legend_box_size": 12, "logarithmic": false, "margin": 10, "margin_bottom": null, "margin_left": null, "margin_right": null, "margin_top": null, "max_scale": 2, "min_scale": 1, "missing_value_fill_truncation": "x", "no_data_text": "", "no_prefix": false, "order_min": null, "pretty_print": false, "print_labels": false, "print_values": false, "print_values_position": "center", "print_zeroes": true, "range": null, "rounded_bars": null, "secondary_range": null, "show_dots": false, "show_legend": false, "show_minor_x_labels": true, "show_minor_y_labels": true, "show_only_major_dots": false, "show_x_guides": false, "show_x_labels": false, "show_y_guides": true, "show_y_labels": true, "spacing": 0, "stack_from_top": false, "strict": false, "stroke": true, "stroke_style": null, "style": {"background": "rgba(249, 249, 249, 1)", "ci_colors": [], "colors": ["#F44336", "#3F51B5", "#009688", "#FFC107", "#FF5722", "#9C27B0", "#03A9F4", "#8BC34A", "#FF9800", "#E91E63", "#2196F3", "#4CAF50", "#FFEB3B", "#673AB7", "#00BCD4", "#CDDC39", "#9E9E9E", "#607D8B"], "dot_opacity": "1", "font_family": "Consolas, \"Liberation Mono\", Menlo, Courier, monospace", "foreground": "rgba(0, 0, 0, .87)", "foreground_strong": "rgba(0, 0, 0, 1)", "foreground_subtle": "rgba(0, 0, 0, .54)", "guide_stroke_color": "black", "guide_stroke_dasharray": "4,4", "label_font_family": "Consolas, \"Liberation Mono\", Menlo, Courier, monospace", "label_font_size": 10, "legend_font_family": "Consolas, \"Liberation Mono\", Menlo, Courier, monospace", "legend_font_size": 14, "major_guide_stroke_color": "black", "major_guide_stroke_dasharray": "6,6", "major_label_font_family": "Consolas, \"Liberation Mono\", Menlo, Courier, monospace", "major_label_font_size": 10, "no_data_font_family": "Consolas, \"Liberation Mono\", Menlo, Courier, monospace", "no_data_font_size": 64, "opacity": ".7", "opacity_hover": ".8", "plot_background": "rgba(255, 255, 255, 1)", "stroke_opacity": ".8", "stroke_opacity_hover": ".9", "stroke_width": "1", "stroke_width_hover": "4", "title_font_family": "Consolas, \"Liberation Mono\", Menlo, Courier, monospace", "title_font_size": 16, "tooltip_font_family": "Consolas, \"Liberation Mono\", Menlo, Courier, monospace", "tooltip_font_size": 14, "transition": "150ms", "value_background": "rgba(229, 229, 229, 1)", "value_colors": [], "value_font_family": "Consolas, \"Liberation Mono\", Menlo, Courier, monospace", "value_font_size": 16, "value_label_font_family": "Consolas, \"Liberation Mono\", Menlo, Courier, monospace", "value_label_font_size": 10}, "title": null, "tooltip_border_radius": 0, "tooltip_fancy_mode": true, "truncate_label": null, "truncate_legend": null, "width": 200, "x_label_rotation": 0, "x_labels": ["2024/6", "2024/5", "2024/4", "2024/3", "2023/9", "2023/8", "2023/7", "2023/6", "2023/5", "2023/4"], "x_labels_major": null, "x_labels_major_count": null, "x_labels_major_every": null, "x_title": null, "xrange": null, "y_label_rotation": 0, "y_labels": null, "y_labels_major": null, "y_labels_major_count": null, "y_labels_major_every": null, "y_title": null, "zero": 0, "legends": [""]}</script></defs><title>Pygal</title><g class="graph line-graph vertical"><rect x="0" y="0" width="200" height="50" class="background" /><g transform="translate(82, 10)" class="plot"><rect x="0" y="0" width="108.0" height="30" class="background" /><g class="axis y always_show"><path d="M0.000000 30.000000 h108.000000" class="line" /><g class="guides"><path d="M0.000000 29.423077 h108.000000" class="guide line" /><text x="-5" y="32.92307692307692" class="">0.8949208311</text><title>0.8949208311</title></g><g class="guides"><path d="M0.000000 0.576923 h108.000000" class="guide line" /><text x="-5" y="4.076923076923073" class="">9.714477857</text><title>9.714477857</title></g></g><g class="series serie-0 color-0"><path d="M2.076923 25.808691 L2.123077 25.804244 2.169231 25.799797 2.215385 25.795351 2.261538 25.790906 2.307692 25.786463 2.353846 25.782022 2.400000 25.777583 2.446154 25.773148 2.492308 25.768716 2.538462 25.764288 2.584615 25.759864 2.630769 25.755445 2.676923 25.751031 2.723077 25.746622 2.769231 25.742220 2.815385 25.737824 2.861538 25.733434 2.907692 25.729052 2.953846 25.724678 3.000000 25.720312 3.046154 25.715954 3.092308 25.711605 3.138462 25.707266 3.184615 25.702937 3.230769 25.698617 3.276923 25.694309 3.323077 25.690011 3.369231 25.685725 3.415385 25.681451 3.461538 25.677190 3.507692 25.672941 3.553846 25.668705 3.600000 25.664483 3.646154 25.660276 3.692308 25.656082 3.738462 25.651904 3.784615 25.647741 3.830769 25.643594 3.876923 25.639463 3.923077 25.635348 3.969231 25.631251 4.015385 25.627171 4.061538 25.623110 4.107692 25.619066 4.153846 25.615042 4.200000 25.611036 4.246154 25.607050 4.292308 25.603085 4.338462 25.599139 4.384615 25.595215 4.430769 25.591312 4.476923 25.587431 4.523077 25.583572 4.569231 25.579735 4.615385 25.575922 4.661538 25.572132 4.707692 25.568366 4.753846 25.564625 4.800000 25.560908 4.846154 25.557216 4.892308 25.553550 4.938462 25.549910 4.984615 25.546297 5.030769 25.542710 5.076923 25.539151 5.123077 25.535619 5.169231 25.532116 5.215385 25.528641 5.261538 25.525196 5.307692 25.521779 5.353846 25.518393 5.400000 25.515037 5.446154 25.511712 5.492308 25.508417 5.538462 25.505155 5.584615 25.501924 5.630769 25.498726 5.676923 25.495561 5.723077 25.492429 5.769231 25.489331 5.815385 25.486267 5.861538 25.483238 5.907692 25.480243 5.953846 25.477284 6.000000 25.474361 6.046154 25.471474 6.092308 25.468624 6.138462 25.465811 6.184615 25.463036 6.230769 25.460298 6.276923 25.457599 6.323077 25.454939 6.369231 25.452318 6.415385 25.449737 6.461538 25.447196 6.507692 25.444696 6.553846 25.442236 6.600000 25.439818 6.646154 25.437442 6.692308 25.435108 6.738462 25.432817 6.784615 25.430569 6.830769 25.428364 6.876923 25.426204 6.923077 25.424087 6.969231 25.422016 7.015385 25.419990 7.061538 25.418010 7.107692 25.416075 7.153846 25.414187 7.200000 25.412347 7.246154 25.410553 7.292308 25.408808 7.338462 25.407110 7.384615 25.405462 7.430769 25.403862 7.476923 25.402312 7.523077 25.400812 7.569231 25.399362 7.615385 25.397963 7.661538 25.396616 7.707692 25.395320 7.753846 25.394076 7.800000 25.392884 7.846154 25.391746 7.892308 25.390661 7.938462 25.389629 7.984615 25.388652 8.030769 25.387730 8.076923 25.386863 8.123077 25.386051 8.169231 25.385295 8.215385 25.384595 8.261538 25.383952 8.307692 25.383367 8.353846 25.382839 8.400000 25.382369 8.446154 25.381958 8.492308 25.381605 8.538462 25.381312 8.584615 25.381079 8.630769 25.380906 8.676923 25.380793 8.723077 25.380742 8.769231 25.380752 8.815385 25.380824 8.861538 25.380958 8.907692 25.381155 8.953846 25.381415 9.000000 25.381739 9.046154 25.382127 9.092308 25.382579 9.138462 25.383097 9.184615 25.383679 9.230769 25.384328 9.276923 25.385042 9.323077 25.385823 9.369231 25.386671 9.415385 25.387587 9.461538 25.388570 9.507692 25.389622 9.553846 25.390743 9.600000 25.391932 9.646154 25.393192 9.692308 25.394521 9.738462 25.395921 9.784615 25.397391 9.830769 25.398933 9.876923 25.400547 9.923077 25.402233 9.969231 25.403991 10.015385 25.405823 10.061538 25.407727 10.107692 25.409706 10.153846 25.411759 10.200000 25.413887 10.246154 25.416090 10.292308 25.418368 10.338462 25.420723 10.384615 25.423153 10.430769 25.425661 10.476923 25.428246 10.523077 25.430909 10.569231 25.433650 10.615385 25.436469 10.661538 25.439367 10.707692 25.442345 10.753846 25.445403 10.800000 25.448541 10.846154 25.451759 10.892308 25.455059 10.938462 25.458440 10.984615 25.461903 11.030769 25.465449 11.076923 25.469077 11.123077 25.472789 11.169231 25.476585 11.215385 25.480464 11.261538 25.484428 11.307692 25.488477 11.353846 25.492611 11.400000 25.496832 11.446154 25.501138 11.492308 25.505531 11.538462 25.510011 11.584615 25.514579 11.630769 25.519235 11.676923 25.523979 11.723077 25.528812 11.769231 25.533734 11.815385 25.538746 11.861538 25.543848 11.907692 25.549040 11.953846 25.554323 12.000000 25.559698 12.046154 25.565164 12.092308 25.570723 12.138462 25.576374 12.184615 25.582119 12.230769 25.587957 12.276923 25.593889 12.323077 25.599915 12.369231 25.606036 12.415385 25.612252 12.461538 25.618564 12.507692 25.624972 12.553846 25.631476 12.600000 25.638078 12.646154 25.644776 12.692308 25.651573 12.738462 25.658467 12.784615 25.665461 12.830769 25.672553 12.876923 25.679745 12.923077 25.687036 12.969231 25.694428 13.015385 25.701921 13.061538 25.709515 13.107692 25.717211 13.153846 25.725008 13.200000 25.732908 13.246154 25.740911 13.292308 25.749018 13.338462 25.757228 13.384615 25.765542 13.430769 25.773961 13.476923 25.782485 13.523077 25.791114 13.569231 25.799849 13.615385 25.808691 13.661538 25.817639 13.707692 25.826693 13.753846 25.835852 13.800000 25.845115 13.846154 25.854481 13.892308 25.863950 13.938462 25.873520 13.984615 25.883190 14.030769 25.892960 14.076923 25.902830 14.123077 25.912797 14.169231 25.922861 14.215385 25.933021 14.261538 25.943277 14.307692 25.953627 14.353846 25.964071 14.400000 25.974607 14.446154 25.985235 14.492308 25.995954 14.538462 26.006763 14.584615 26.017662 14.630769 26.028648 14.676923 26.039722 14.723077 26.050883 14.769231 26.062129 14.815385 26.073460 14.861538 26.084874 14.907692 26.096372 14.953846 26.107952 15.000000 26.119613 15.046154 26.131355 15.092308 26.143176 15.138462 26.155075 15.184615 26.167053 15.230769 26.179107 15.276923 26.191237 15.323077 26.203443 15.369231 26.215722 15.415385 26.228075 15.461538 26.240500 15.507692 26.252997 15.553846 26.265565 15.600000 26.278203 15.646154 26.290909 15.692308 26.303683 15.738462 26.316525 15.784615 26.329433 15.830769 26.342407 15.876923 26.355445 15.923077 26.368546 15.969231 26.381711 16.015385 26.394937 16.061538 26.408225 16.107692 26.421572 16.153846 26.434979 16.200000 26.448444 16.246154 26.461967 16.292308 26.475546 16.338462 26.489182 16.384615 26.502872 16.430769 26.516616 16.476923 26.530413 16.523077 26.544263 16.569231 26.558163 16.615385 26.572115 16.661538 26.586116 16.707692 26.600166 16.753846 26.614263 16.800000 26.628408 16.846154 26.642598 16.892308 26.656834 16.938462 26.671114 16.984615 26.685438 17.030769 26.699804 17.076923 26.714212 17.123077 26.728661 17.169231 26.743150 17.215385 26.757678 17.261538 26.772244 17.307692 26.786847 17.353846 26.801487 17.400000 26.816162 17.446154 26.830872 17.492308 26.845616 17.538462 26.860392 17.584615 26.875201 17.630769 26.890041 17.676923 26.904911 17.723077 26.919811 17.769231 26.934739 17.815385 26.949695 17.861538 26.964677 17.907692 26.979686 17.953846 26.994719 18.000000 27.009776 18.046154 27.024857 18.092308 27.039960 18.138462 27.055085 18.184615 27.070230 18.230769 27.085395 18.276923 27.100579 18.323077 27.115781 18.369231 27.131000 18.415385 27.146235 18.461538 27.161486 18.507692 27.176751 18.553846 27.192029 18.600000 27.207320 18.646154 27.222623 18.692308 27.237937 18.738462 27.253262 18.784615 27.268595 18.830769 27.283936 18.876923 27.299286 18.923077 27.314641 18.969231 27.330002 19.015385 27.345368 19.061538 27.360738 19.107692 27.376111 19.153846 27.391487 19.200000 27.406863 19.246154 27.422240 19.292308 27.437616 19.338462 27.452991 19.384615 27.468364 19.430769 27.483734 19.476923 27.499099 19.523077 27.514460 19.569231 27.529815 19.615385 27.545164 19.661538 27.560505 19.707692 27.575837 19.753846 27.591160 19.800000 27.606474 19.846154 27.621776 19.892308 27.637066 19.938462 27.652343 19.984615 27.667607 20.030769 27.682856 20.076923 27.698090 20.123077 27.713308 20.169231 27.728508 20.215385 27.743690 20.261538 27.758854 20.307692 27.773997 20.353846 27.789120 20.400000 27.804221 20.446154 27.819300 20.492308 27.834356 20.538462 27.849387 20.584615 27.864393 20.630769 27.879374 20.676923 27.894327 20.723077 27.909253 20.769231 27.924150 20.815385 27.939017 20.861538 27.953855 20.907692 27.968661 20.953846 27.983435 21.000000 27.998176 21.046154 28.012883 21.092308 28.027555 21.138462 28.042192 21.184615 28.056792 21.230769 28.071355 21.276923 28.085879 21.323077 28.100365 21.369231 28.114810 21.415385 28.129214 21.461538 28.143577 21.507692 28.157897 21.553846 28.172174 21.600000 28.186406 21.646154 28.200592 21.692308 28.214733 21.738462 28.228827 21.784615 28.242872 21.830769 28.256869 21.876923 28.270816 21.923077 28.284713 21.969231 28.298558 22.015385 28.312350 22.061538 28.326090 22.107692 28.339775 22.153846 28.353406 22.200000 28.366981 22.246154 28.380499 22.292308 28.393959 22.338462 28.407361 22.384615 28.420703 22.430769 28.433986 22.476923 28.447207 22.523077 28.460366 22.569231 28.473462 22.615385 28.486495 22.661538 28.499463 22.707692 28.512365 22.753846 28.525201 22.800000 28.537970 22.846154 28.550670 22.892308 28.563302 22.938462 28.575864 22.984615 28.588355 23.030769 28.600774 23.076923 28.613120 23.123077 28.625394 23.169231 28.637593 23.215385 28.649717 23.261538 28.661764 23.307692 28.673735 23.353846 28.685628 23.400000 28.697442 23.446154 28.709177 23.492308 28.720832 23.538462 28.732404 23.584615 28.743895 23.630769 28.755303 23.676923 28.766627 23.723077 28.777866 23.769231 28.789019 23.815385 28.800085 23.861538 28.811064 23.907692 28.821955 23.953846 28.832757 24.000000 28.843468 24.046154 28.854088 24.092308 28.864617 24.138462 28.875053 24.184615 28.885395 24.230769 28.895642 24.276923 28.905794 24.323077 28.915850 24.369231 28.925809 24.415385 28.935670 24.461538 28.945432 24.507692 28.955094 24.553846 28.964655 24.600000 28.974115 24.646154 28.983473 24.692308 28.992727 24.738462 29.001877 24.784615 29.010922 24.830769 29.019861 24.876923 29.028693 24.923077 29.037418 24.969231 29.046034 25.015385 29.054540 25.061538 29.062936 25.107692 29.071221 25.153846 29.079394 25.200000 29.087454 25.246154 29.095402 25.292308 29.103238 25.338462 29.110963 25.384615 29.118577 25.430769 29.126081 25.476923 29.133475 25.523077 29.140761 25.569231 29.147938 25.615385 29.155007 25.661538 29.161970 25.707692 29.168825 25.753846 29.175575 25.800000 29.182219 25.846154 29.188758 25.892308 29.195193 25.938462 29.201524 25.984615 29.207752 26.030769 29.213877 26.076923 29.219901 26.123077 29.225822 26.169231 29.231644 26.215385 29.237364 26.261538 29.242985 26.307692 29.248507 26.353846 29.253931 26.400000 29.259256 26.446154 29.264484 26.492308 29.269615 26.538462 29.274650 26.584615 29.279589 26.630769 29.284434 26.676923 29.289183 26.723077 29.293839 26.769231 29.298401 26.815385 29.302871 26.861538 29.307248 26.907692 29.311534 26.953846 29.315728 27.000000 29.319832 27.046154 29.323847 27.092308 29.327771 27.138462 29.331608 27.184615 29.335356 27.230769 29.339016 27.276923 29.342589 27.323077 29.346076 27.369231 29.349477 27.415385 29.352793 27.461538 29.356024 27.507692 29.359171 27.553846 29.362234 27.600000 29.365214 27.646154 29.368112 27.692308 29.370928 27.738462 29.373663 27.784615 29.376317 27.830769 29.378891 27.876923 29.381385 27.923077 29.383801 27.969231 29.386138 28.015385 29.388397 28.061538 29.390579 28.107692 29.392684 28.153846 29.394714 28.200000 29.396668 28.246154 29.398546 28.292308 29.400351 28.338462 29.402082 28.384615 29.403739 28.430769 29.405324 28.476923 29.406837 28.523077 29.408279 28.569231 29.409649 28.615385 29.410950 28.661538 29.412180 28.707692 29.413341 28.753846 29.414434 28.800000 29.415459 28.846154 29.416416 28.892308 29.417307 28.938462 29.418131 28.984615 29.418890 29.030769 29.419583 29.076923 29.420212 29.123077 29.420777 29.169231 29.421278 29.215385 29.421717 29.261538 29.422093 29.307692 29.422408 29.353846 29.422662 29.400000 29.422855 29.446154 29.422988 29.492308 29.423062 29.538462 29.423077 29.584615 29.423034 29.630769 29.422933 29.676923 29.422775 29.723077 29.422561 29.769231 29.422291 29.815385 29.421965 29.861538 29.421585 29.907692 29.421150 29.953846 29.420662 30.000000 29.420121 30.046154 29.419528 30.092308 29.418882 30.138462 29.418186 30.184615 29.417438 30.230769 29.416641 30.276923 29.415794 30.323077 29.414898 30.369231 29.413953 30.415385 29.412961 30.461538 29.411921 30.507692 29.410835 30.553846 29.409703 30.600000 29.408525 30.646154 29.407302 30.692308 29.406035 30.738462 29.404724 30.784615 29.403369 30.830769 29.401972 30.876923 29.400533 30.923077 29.399053 30.969231 29.397532 31.015385 29.395970 31.061538 29.394369 31.107692 29.392728 31.153846 29.391049 31.200000 29.389331 31.246154 29.387577 31.292308 29.385785 31.338462 29.383957 31.384615 29.382093 31.430769 29.380194 31.476923 29.378261 31.523077 29.376294 31.569231 29.374293 31.615385 29.372259 31.661538 29.370193 31.707692 29.368096 31.753846 29.365967 31.800000 29.363808 31.846154 29.361618 31.892308 29.359400 31.938462 29.357152 31.984615 29.354877 32.030769 29.352573 32.076923 29.350243 32.123077 29.347886 32.169231 29.345503 32.215385 29.343095 32.261538 29.340662 32.307692 29.338204 32.353846 29.335724 32.400000 29.333220 32.446154 29.330693 32.492308 29.328145 32.538462 29.325576 32.584615 29.322985 32.630769 29.320375 32.676923 29.317745 32.723077 29.315096 32.769231 29.312428 32.815385 29.309743 32.861538 29.307040 32.907692 29.304321 32.953846 29.301585 33.000000 29.298834 33.046154 29.296068 33.092308 29.293288 33.138462 29.290493 33.184615 29.287686 33.230769 29.284866 33.276923 29.282033 33.323077 29.279190 33.369231 29.276335 33.415385 29.273470 33.461538 29.270595 33.507692 29.267711 33.553846 29.264818 33.600000 29.261917 33.646154 29.259009 33.692308 29.256094 33.738462 29.253172 33.784615 29.250245 33.830769 29.247312 33.876923 29.244375 33.923077 29.241434 33.969231 29.238489 34.015385 29.235542 34.061538 29.232592 34.107692 29.229641 34.153846 29.226688 34.200000 29.223735 34.246154 29.220782 34.292308 29.217829 34.338462 29.214878 34.384615 29.211928 34.430769 29.208981 34.476923 29.206036 34.523077 29.203095 34.569231 29.200158 34.615385 29.197226 34.661538 29.194298 34.707692 29.191377 34.753846 29.188462 34.800000 29.185554 34.846154 29.182653 34.892308 29.179761 34.938462 29.176877 34.984615 29.174002 35.030769 29.171137 35.076923 29.168283 35.123077 29.165439 35.169231 29.162607 35.215385 29.159787 35.261538 29.156980 35.307692 29.154186 35.353846 29.151406 35.400000 29.148640 35.446154 29.145890 35.492308 29.143154 35.538462 29.140435 35.584615 29.137733 35.630769 29.135048 35.676923 29.132381 35.723077 29.129732 35.769231 29.127103 35.815385 29.124493 35.861538 29.121903 35.907692 29.119334 35.953846 29.116786 36.000000 29.114260 36.046154 29.111757 36.092308 29.109277 36.138462 29.106820 36.184615 29.104388 36.230769 29.101980 36.276923 29.099598 36.323077 29.097242 36.369231 29.094912 36.415385 29.092609 36.461538 29.090334 36.507692 29.088087 36.553846 29.085869 36.600000 29.083681 36.646154 29.081522 36.692308 29.079394 36.738462 29.077297 36.784615 29.075231 36.830769 29.073196 36.876923 29.071191 36.923077 29.069217 36.969231 29.067273 37.015385 29.065359 37.061538 29.063475 37.107692 29.061621 37.153846 29.059797 37.200000 29.058002 37.246154 29.056236 37.292308 29.054499 37.338462 29.052791 37.384615 29.051112 37.430769 29.049462 37.476923 29.047840 37.523077 29.046246 37.569231 29.044680 37.615385 29.043142 37.661538 29.041632 37.707692 29.040149 37.753846 29.038694 37.800000 29.037265 37.846154 29.035864 37.892308 29.034490 37.938462 29.033143 37.984615 29.031822 38.030769 29.030527 38.076923 29.029258 38.123077 29.028016 38.169231 29.026799 38.215385 29.025608 38.261538 29.024443 38.307692 29.023303 38.353846 29.022188 38.400000 29.021098 38.446154 29.020033 38.492308 29.018992 38.538462 29.017976 38.584615 29.016984 38.630769 29.016017 38.676923 29.015073 38.723077 29.014153 38.769231 29.013257 38.815385 29.012384 38.861538 29.011534 38.907692 29.010708 38.953846 29.009904 39.000000 29.009124 39.046154 29.008365 39.092308 29.007630 39.138462 29.006916 39.184615 29.006225 39.230769 29.005555 39.276923 29.004907 39.323077 29.004281 39.369231 29.003676 39.415385 29.003093 39.461538 29.002530 39.507692 29.001989 39.553846 29.001468 39.600000 29.000967 39.646154 29.000487 39.692308 29.000028 39.738462 28.999588 39.784615 28.999168 39.830769 28.998768 39.876923 28.998387 39.923077 28.998026 39.969231 28.997684 40.015385 28.997360 40.061538 28.997056 40.107692 28.996770 40.153846 28.996503 40.200000 28.996254 40.246154 28.996024 40.292308 28.995811 40.338462 28.995616 40.384615 28.995439 40.430769 28.995279 40.476923 28.995136 40.523077 28.995011 40.569231 28.994903 40.615385 28.994811 40.661538 28.994736 40.707692 28.994678 40.753846 28.994635 40.800000 28.994609 40.846154 28.994599 40.892308 28.994604 40.938462 28.994625 40.984615 28.994662 41.030769 28.994714 41.076923 28.994781 41.123077 28.994862 41.169231 28.994959 41.215385 28.995070 41.261538 28.995195 41.307692 28.995335 41.353846 28.995489 41.400000 28.995656 41.446154 28.995838 41.492308 28.996033 41.538462 28.996241 41.584615 28.996462 41.630769 28.996697 41.676923 28.996944 41.723077 28.997204 41.769231 28.997477 41.815385 28.997762 41.861538 28.998059 41.907692 28.998368 41.953846 28.998689 42.000000 28.999021 42.046154 28.999365 42.092308 28.999721 42.138462 29.000087 42.184615 29.000465 42.230769 29.000853 42.276923 29.001252 42.323077 29.001661 42.369231 29.002081 42.415385 29.002511 42.461538 29.002951 42.507692 29.003400 42.553846 29.003859 42.600000 29.004328 42.646154 29.004806 42.692308 29.005293 42.738462 29.005789 42.784615 29.006294 42.830769 29.006807 42.876923 29.007329 42.923077 29.007859 42.969231 29.008397 43.015385 29.008943 43.061538 29.009496 43.107692 29.010058 43.153846 29.010626 43.200000 29.011202 43.246154 29.011785 43.292308 29.012375 43.338462 29.012971 43.384615 29.013574 43.430769 29.014184 43.476923 29.014799 43.523077 29.015421 43.569231 29.016049 43.615385 29.016682 43.661538 29.017321 43.707692 29.017965 43.753846 29.018614 43.800000 29.019268 43.846154 29.019927 43.892308 29.020591 43.938462 29.021259 43.984615 29.021932 44.030769 29.022608 44.076923 29.023289 44.123077 29.023973 44.169231 29.024661 44.215385 29.025353 44.261538 29.026048 44.307692 29.026746 44.353846 29.027447 44.400000 29.028151 44.446154 29.028857 44.492308 29.029566 44.538462 29.030277 44.584615 29.030990 44.630769 29.031705 44.676923 29.032422 44.723077 29.033140 44.769231 29.033860 44.815385 29.034581 44.861538 29.035303 44.907692 29.036026 44.953846 29.036750 45.000000 29.037475 45.046154 29.038199 45.092308 29.038924 45.138462 29.039649 45.184615 29.040374 45.230769 29.041099 45.276923 29.041823 45.323077 29.042547 45.369231 29.043269 45.415385 29.043991 45.461538 29.044712 45.507692 29.045431 45.553846 29.046149 45.600000 29.046865 45.646154 29.047579 45.692308 29.048292 45.738462 29.049002 45.784615 29.049709 45.830769 29.050415 45.876923 29.051117 45.923077 29.051817 45.969231 29.052514 46.015385 29.053207 46.061538 29.053898 46.107692 29.054584 46.153846 29.055267 46.200000 29.055946 46.246154 29.056621 46.292308 29.057292 46.338462 29.057958 46.384615 29.058620 46.430769 29.059277 46.476923 29.059930 46.523077 29.060577 46.569231 29.061219 46.615385 29.061855 46.661538 29.062486 46.707692 29.063111 46.753846 29.063730 46.800000 29.064344 46.846154 29.064950 46.892308 29.065551 46.938462 29.066145 46.984615 29.066732 47.030769 29.067312 47.076923 29.067885 47.123077 29.068450 47.169231 29.069008 47.215385 29.069559 47.261538 29.070102 47.307692 29.070637 47.353846 29.071163 47.400000 29.071681 47.446154 29.072191 47.492308 29.072692 47.538462 29.073185 47.584615 29.073668 47.630769 29.074142 47.676923 29.074607 47.723077 29.075062 47.769231 29.075508 47.815385 29.075944 47.861538 29.076370 47.907692 29.076785 47.953846 29.077190 48.000000 29.077585 48.046154 29.077969 48.092308 29.078342 48.138462 29.078704 48.184615 29.079055 48.230769 29.079394 48.276923 29.079722 48.323077 29.080038 48.369231 29.080344 48.415385 29.080637 48.461538 29.080920 48.507692 29.081192 48.553846 29.081452 48.600000 29.081702 48.646154 29.081942 48.692308 29.082170 48.738462 29.082388 48.784615 29.082596 48.830769 29.082794 48.876923 29.082981 48.923077 29.083158 48.969231 29.083325 49.015385 29.083483 49.061538 29.083630 49.107692 29.083768 49.153846 29.083897 49.200000 29.084016 49.246154 29.084126 49.292308 29.084226 49.338462 29.084318 49.384615 29.084400 49.430769 29.084474 49.476923 29.084538 49.523077 29.084594 49.569231 29.084642 49.615385 29.084681 49.661538 29.084711 49.707692 29.084734 49.753846 29.084748 49.800000 29.084754 49.846154 29.084753 49.892308 29.084743 49.938462 29.084726 49.984615 29.084701 50.030769 29.084668 50.076923 29.084629 50.123077 29.084581 50.169231 29.084527 50.215385 29.084466 50.261538 29.084398 50.307692 29.084322 50.353846 29.084240 50.400000 29.084152 50.446154 29.084057 50.492308 29.083955 50.538462 29.083847 50.584615 29.083733 50.630769 29.083613 50.676923 29.083486 50.723077 29.083354 50.769231 29.083216 50.815385 29.083072 50.861538 29.082923 50.907692 29.082768 50.953846 29.082608 51.000000 29.082443 51.046154 29.082272 51.092308 29.082097 51.138462 29.081916 51.184615 29.081731 51.230769 29.081541 51.276923 29.081346 51.323077 29.081147 51.369231 29.080943 51.415385 29.080735 51.461538 29.080523 51.507692 29.080307 51.553846 29.080086 51.600000 29.079862 51.646154 29.079634 51.692308 29.079403 51.738462 29.079167 51.784615 29.078929 51.830769 29.078687 51.876923 29.078442 51.923077 29.078193 51.969231 29.077942 52.015385 29.077688 52.061538 29.077431 52.107692 29.077171 52.153846 29.076909 52.200000 29.076644 52.246154 29.076377 52.292308 29.076107 52.338462 29.075835 52.384615 29.075562 52.430769 29.075286 52.476923 29.075008 52.523077 29.074729 52.569231 29.074448 52.615385 29.074166 52.661538 29.073882 52.707692 29.073597 52.753846 29.073310 52.800000 29.073023 52.846154 29.072734 52.892308 29.072445 52.938462 29.072155 52.984615 29.071864 53.030769 29.071572 53.076923 29.071280 53.123077 29.070988 53.169231 29.070696 53.215385 29.070403 53.261538 29.070110 53.307692 29.069818 53.353846 29.069525 53.400000 29.069233 53.446154 29.068941 53.492308 29.068650 53.538462 29.068359 53.584615 29.068069 53.630769 29.067780 53.676923 29.067492 53.723077 29.067205 53.769231 29.066919 53.815385 29.066634 53.861538 29.066350 53.907692 29.066068 53.953846 29.065788 54.000000 29.065509 54.046154 29.065232 54.092308 29.064957 54.138462 29.064684 54.184615 29.064413 54.230769 29.064144 54.276923 29.063877 54.323077 29.063613 54.369231 29.063352 54.415385 29.063093 54.461538 29.062837 54.507692 29.062583 54.553846 29.062333 54.600000 29.062086 54.646154 29.061841 54.692308 29.061601 54.738462 29.061363 54.784615 29.061129 54.830769 29.060898 54.876923 29.060672 54.923077 29.060449 54.969231 29.060230 55.015385 29.060015 55.061538 29.059804 55.107692 29.059597 55.153846 29.059395 55.200000 29.059197 55.246154 29.059004 55.292308 29.058815 55.338462 29.058631 55.384615 29.058452 55.430769 29.058278 55.476923 29.058109 55.523077 29.057945 55.569231 29.057787 55.615385 29.057634 55.661538 29.057486 55.707692 29.057344 55.753846 29.057208 55.800000 29.057078 55.846154 29.056953 55.892308 29.056835 55.938462 29.056722 55.984615 29.056616 56.030769 29.056517 56.076923 29.056424 56.123077 29.056337 56.169231 29.056257 56.215385 29.056184 56.261538 29.056118 56.307692 29.056059 56.353846 29.056007 56.400000 29.055962 56.446154 29.055924 56.492308 29.055894 56.538462 29.055872 56.584615 29.055857 56.630769 29.055850 56.676923 29.055850 56.723077 29.055859 56.769231 29.055876 56.815385 29.055901 56.861538 29.055934 56.907692 29.055976 56.953846 29.056026 57.000000 29.056084 57.046154 29.056152 57.092308 29.056228 57.138462 29.056313 57.184615 29.056407 57.230769 29.056511 57.276923 29.056623 57.323077 29.056745 57.369231 29.056877 57.415385 29.057018 57.461538 29.057168 57.507692 29.057329 57.553846 29.057499 57.600000 29.057679 57.646154 29.057870 57.692308 29.058070 57.738462 29.058281 57.784615 29.058503 57.830769 29.058735 57.876923 29.058977 57.923077 29.059230 57.969231 29.059495 58.015385 29.059770 58.061538 29.060056 58.107692 29.060353 58.153846 29.060662 58.200000 29.060982 58.246154 29.061313 58.292308 29.061656 58.338462 29.062011 58.384615 29.062377 58.430769 29.062756 58.476923 29.063146 58.523077 29.063549 58.569231 29.063964 58.615385 29.064391 58.661538 29.064831 58.707692 29.065283 58.753846 29.065748 58.800000 29.066225 58.846154 29.066716 58.892308 29.067219 58.938462 29.067736 58.984615 29.068266 59.030769 29.068809 59.076923 29.069365 59.123077 29.069935 59.169231 29.070519 59.215385 29.071116 59.261538 29.071727 59.307692 29.072353 59.353846 29.072992 59.400000 29.073645 59.446154 29.074313 59.492308 29.074995 59.538462 29.075691 59.584615 29.076402 59.630769 29.077128 59.676923 29.077868 59.723077 29.078624 59.769231 29.079394 59.815385 29.080180 59.861538 29.080980 59.907692 29.081795 59.953846 29.082624 60.000000 29.083468 60.046154 29.084325 60.092308 29.085196 60.138462 29.086080 60.184615 29.086977 60.230769 29.087887 60.276923 29.088810 60.323077 29.089744 60.369231 29.090691 60.415385 29.091650 60.461538 29.092620 60.507692 29.093602 60.553846 29.094594 60.600000 29.095598 60.646154 29.096611 60.692308 29.097635 60.738462 29.098669 60.784615 29.099713 60.830769 29.100766 60.876923 29.101829 60.923077 29.102900 60.969231 29.103981 61.015385 29.105069 61.061538 29.106166 61.107692 29.107271 61.153846 29.108383 61.200000 29.109503 61.246154 29.110630 61.292308 29.111764 61.338462 29.112905 61.384615 29.114052 61.430769 29.115205 61.476923 29.116364 61.523077 29.117529 61.569231 29.118699 61.615385 29.119875 61.661538 29.121055 61.707692 29.122239 61.753846 29.123429 61.800000 29.124622 61.846154 29.125819 61.892308 29.127020 61.938462 29.128224 61.984615 29.129431 62.030769 29.130641 62.076923 29.131853 62.123077 29.133068 62.169231 29.134285 62.215385 29.135504 62.261538 29.136724 62.307692 29.137945 62.353846 29.139168 62.400000 29.140391 62.446154 29.141615 62.492308 29.142839 62.538462 29.144063 62.584615 29.145287 62.630769 29.146510 62.676923 29.147733 62.723077 29.148954 62.769231 29.150175 62.815385 29.151393 62.861538 29.152610 62.907692 29.153825 62.953846 29.155038 63.000000 29.156248 63.046154 29.157455 63.092308 29.158660 63.138462 29.159860 63.184615 29.161058 63.230769 29.162251 63.276923 29.163441 63.323077 29.164626 63.369231 29.165806 63.415385 29.166982 63.461538 29.168152 63.507692 29.169317 63.553846 29.170477 63.600000 29.171630 63.646154 29.172778 63.692308 29.173919 63.738462 29.175053 63.784615 29.176181 63.830769 29.177301 63.876923 29.178414 63.923077 29.179519 63.969231 29.180617 64.015385 29.181706 64.061538 29.182786 64.107692 29.183858 64.153846 29.184921 64.200000 29.185975 64.246154 29.187020 64.292308 29.188054 64.338462 29.189079 64.384615 29.190093 64.430769 29.191097 64.476923 29.192090 64.523077 29.193072 64.569231 29.194043 64.615385 29.195003 64.661538 29.195950 64.707692 29.196886 64.753846 29.197809 64.800000 29.198720 64.846154 29.199618 64.892308 29.200503 64.938462 29.201375 64.984615 29.202233 65.030769 29.203077 65.076923 29.203907 65.123077 29.204723 65.169231 29.205524 65.215385 29.206310 65.261538 29.207082 65.307692 29.207838 65.353846 29.208578 65.400000 29.209302 65.446154 29.210011 65.492308 29.210703 65.538462 29.211378 65.584615 29.212036 65.630769 29.212677 65.676923 29.213301 65.723077 29.213908 65.769231 29.214496 65.815385 29.215066 65.861538 29.215618 65.907692 29.216150 65.953846 29.216665 66.000000 29.217159 66.046154 29.217635 66.092308 29.218090 66.138462 29.218526 66.184615 29.218942 66.230769 29.219337 66.276923 29.219711 66.323077 29.220064 66.369231 29.220396 66.415385 29.220707 66.461538 29.220995 66.507692 29.221262 66.553846 29.221507 66.600000 29.221728 66.646154 29.221928 66.692308 29.222104 66.738462 29.222257 66.784615 29.222386 66.830769 29.222491 66.876923 29.222573 66.923077 29.222630 66.969231 29.222662 67.015385 29.222670 67.061538 29.222653 67.107692 29.222610 67.153846 29.222541 67.200000 29.222447 67.246154 29.222327 67.292308 29.222180 67.338462 29.222007 67.384615 29.221807 67.430769 29.221579 67.476923 29.221325 67.523077 29.221042 67.569231 29.220732 67.615385 29.220393 67.661538 29.220026 67.707692 29.219631 67.753846 29.219206 67.800000 29.218753 67.846154 29.218270 67.892308 29.217757 67.938462 29.217214 67.984615 29.216641 68.030769 29.216038 68.076923 29.215404 68.123077 29.214738 68.169231 29.214042 68.215385 29.213314 68.261538 29.212555 68.307692 29.211763 68.353846 29.210939 68.400000 29.210083 68.446154 29.209194 68.492308 29.208271 68.538462 29.207316 68.584615 29.206327 68.630769 29.205304 68.676923 29.204247 68.723077 29.203156 68.769231 29.202030 68.815385 29.200870 68.861538 29.199674 68.907692 29.198443 68.953846 29.197177 69.000000 29.195874 69.046154 29.194536 69.092308 29.193161 69.138462 29.191749 69.184615 29.190301 69.230769 29.188816 69.276923 29.187293 69.323077 29.185732 69.369231 29.184134 69.415385 29.182498 69.461538 29.180823 69.507692 29.179109 69.553846 29.177357 69.600000 29.175565 69.646154 29.173734 69.692308 29.171863 69.738462 29.169952 69.784615 29.168001 69.830769 29.166010 69.876923 29.163978 69.923077 29.161905 69.969231 29.159791 70.015385 29.157635 70.061538 29.155437 70.107692 29.153198 70.153846 29.150916 70.200000 29.148592 70.246154 29.146225 70.292308 29.143815 70.338462 29.141362 70.384615 29.138865 70.430769 29.136324 70.476923 29.133740 70.523077 29.131111 70.569231 29.128437 70.615385 29.125719 70.661538 29.122956 70.707692 29.120147 70.753846 29.117293 70.800000 29.114393 70.846154 29.111447 70.892308 29.108454 70.938462 29.105415 70.984615 29.102329 71.030769 29.099196 71.076923 29.096016 71.123077 29.092788 71.169231 29.089512 71.215385 29.086188 71.261538 29.082815 71.307692 29.079394 71.353846 29.075924 71.400000 29.072403 71.446154 29.068830 71.492308 29.065204 71.538462 29.061522 71.584615 29.057783 71.630769 29.053986 71.676923 29.050129 71.723077 29.046210 71.769231 29.042228 71.815385 29.038181 71.861538 29.034068 71.907692 29.029886 71.953846 29.025635 72.000000 29.021313 72.046154 29.016918 72.092308 29.012448 72.138462 29.007903 72.184615 29.003280 72.230769 28.998577 72.276923 28.993794 72.323077 28.988929 72.369231 28.983979 72.415385 28.978944 72.461538 28.973822 72.507692 28.968611 72.553846 28.963310 72.600000 28.957916 72.646154 28.952430 72.692308 28.946848 72.738462 28.941169 72.784615 28.935392 72.830769 28.929515 72.876923 28.923536 72.923077 28.917455 72.969231 28.911269 73.015385 28.904976 73.061538 28.898575 73.107692 28.892066 73.153846 28.885444 73.200000 28.878711 73.246154 28.871863 73.292308 28.864899 73.338462 28.857818 73.384615 28.850617 73.430769 28.843296 73.476923 28.835853 73.523077 28.828286 73.569231 28.820593 73.615385 28.812774 73.661538 28.804826 73.707692 28.796747 73.753846 28.788537 73.800000 28.780194 73.846154 28.771715 73.892308 28.763100 73.938462 28.754347 73.984615 28.745453 74.030769 28.736419 74.076923 28.727241 74.123077 28.717919 74.169231 28.708451 74.215385 28.698835 74.261538 28.689070 74.307692 28.679154 74.353846 28.669085 74.400000 28.658862 74.446154 28.648484 74.492308 28.637948 74.538462 28.627253 74.584615 28.616398 74.630769 28.605380 74.676923 28.594199 74.723077 28.582853 74.769231 28.571339 74.815385 28.559658 74.861538 28.547806 74.907692 28.535782 74.953846 28.523586 75.000000 28.511214 75.046154 28.498666 75.092308 28.485940 75.138462 28.473034 75.184615 28.459947 75.230769 28.446677 75.276923 28.433223 75.323077 28.419583 75.369231 28.405755 75.415385 28.391738 75.461538 28.377530 75.507692 28.363130 75.553846 28.348536 75.600000 28.333746 75.646154 28.318759 75.692308 28.303574 75.738462 28.288187 75.784615 28.272599 75.830769 28.256808 75.876923 28.240811 75.923077 28.224608 75.969231 28.208196 76.015385 28.191574 76.061538 28.174741 76.107692 28.157695 76.153846 28.140434 76.200000 28.122956 76.246154 28.105261 76.292308 28.087346 76.338462 28.069211 76.384615 28.050852 76.430769 28.032269 76.476923 28.013461 76.523077 27.994424 76.569231 27.975159 76.615385 27.955663 76.661538 27.935935 76.707692 27.915973 76.753846 27.895776 76.800000 27.875342 76.846154 27.854669 76.892308 27.833756 76.938462 27.812600 76.984615 27.791202 77.030769 27.769559 77.076923 27.747669 77.123077 27.725530 77.169231 27.703142 77.215385 27.680503 77.261538 27.657611 77.307692 27.634464 77.353846 27.611061 77.400000 27.587400 77.446154 27.563480 77.492308 27.539298 77.538462 27.514855 77.584615 27.490147 77.630769 27.465173 77.676923 27.439933 77.723077 27.414423 77.769231 27.388643 77.815385 27.362590 77.861538 27.336264 77.907692 27.309663 77.953846 27.282785 78.000000 27.255628 78.046154 27.228191 78.092308 27.200473 78.138462 27.172471 78.184615 27.144184 78.230769 27.115611 78.276923 27.086750 78.323077 27.057599 78.369231 27.028157 78.415385 26.998423 78.461538 26.968393 78.507692 26.938068 78.553846 26.907445 78.600000 26.876523 78.646154 26.845300 78.692308 26.813775 78.738462 26.781946 78.784615 26.749811 78.830769 26.717369 78.876923 26.684618 78.923077 26.651557 78.969231 26.618184 79.015385 26.584497 79.061538 26.550496 79.107692 26.516177 79.153846 26.481540 79.200000 26.446583 79.246154 26.411305 79.292308 26.375704 79.338462 26.339777 79.384615 26.303525 79.430769 26.266945 79.476923 26.230035 79.523077 26.192794 79.569231 26.155220 79.615385 26.117312 79.661538 26.079068 79.707692 26.040487 79.753846 26.001567 79.800000 25.962306 79.846154 25.922702 79.892308 25.882755 79.938462 25.842463 79.984615 25.801823 80.030769 25.760835 80.076923 25.719497 80.123077 25.677806 80.169231 25.635763 80.215385 25.593364 80.261538 25.550609 80.307692 25.507495 80.353846 25.464022 80.400000 25.420187 80.446154 25.375990 80.492308 25.331428 80.538462 25.286499 80.584615 25.241203 80.630769 25.195538 80.676923 25.149501 80.723077 25.103092 80.769231 25.056309 80.815385 25.009151 80.861538 24.961614 80.907692 24.913699 80.953846 24.865404 81.000000 24.816726 81.046154 24.767665 81.092308 24.718218 81.138462 24.668384 81.184615 24.618162 81.230769 24.567550 81.276923 24.516546 81.323077 24.465149 81.369231 24.413357 81.415385 24.361169 81.461538 24.308583 81.507692 24.255596 81.553846 24.202209 81.600000 24.148419 81.646154 24.094224 81.692308 24.039624 81.738462 23.984616 81.784615 23.929198 81.830769 23.873370 81.876923 23.817129 81.923077 23.760475 81.969231 23.703404 82.015385 23.645917 82.061538 23.588011 82.107692 23.529684 82.153846 23.470936 82.200000 23.411763 82.246154 23.352166 82.292308 23.292142 82.338462 23.231690 82.384615 23.170808 82.430769 23.109494 82.476923 23.047747 82.523077 22.985565 82.569231 22.922947 82.615385 22.859891 82.661538 22.796396 82.707692 22.732460 82.753846 22.668080 82.800000 22.603257 82.846154 22.537988 82.892308 22.472272 82.938462 22.406113 82.984615 22.339514 83.030769 22.272481 83.076923 22.205016 83.123077 22.137125 83.169231 22.068811 83.215385 22.000078 83.261538 21.930931 83.307692 21.861373 83.353846 21.791409 83.400000 21.721043 83.446154 21.650279 83.492308 21.579121 83.538462 21.507573 83.584615 21.435640 83.630769 21.363325 83.676923 21.290632 83.723077 21.217567 83.769231 21.144132 83.815385 21.070332 83.861538 20.996171 83.907692 20.921654 83.953846 20.846783 84.000000 20.771565 84.046154 20.696001 84.092308 20.620098 84.138462 20.543858 84.184615 20.467286 84.230769 20.390386 84.276923 20.313163 84.323077 20.235619 84.369231 20.157760 84.415385 20.079590 84.461538 20.001112 84.507692 19.922331 84.553846 19.843251 84.600000 19.763876 84.646154 19.684210 84.692308 19.604257 84.738462 19.524022 84.784615 19.443508 84.830769 19.362720 84.876923 19.281661 84.923077 19.200337 84.969231 19.118750 85.015385 19.036906 85.061538 18.954807 85.107692 18.872459 85.153846 18.789866 85.200000 18.707031 85.246154 18.623959 85.292308 18.540653 85.338462 18.457119 85.384615 18.373360 85.430769 18.289380 85.476923 18.205183 85.523077 18.120773 85.569231 18.036156 85.615385 17.951333 85.661538 17.866311 85.707692 17.781093 85.753846 17.695682 85.800000 17.610084 85.846154 17.524302 85.892308 17.438341 85.938462 17.352204 85.984615 17.265896 86.030769 17.179420 86.076923 17.092782 86.123077 17.005984 86.169231 16.919032 86.215385 16.831928 86.261538 16.744679 86.307692 16.657286 86.353846 16.569755 86.400000 16.482091 86.446154 16.394295 86.492308 16.306374 86.538462 16.218331 86.584615 16.130171 86.630769 16.041896 86.676923 15.953512 86.723077 15.865023 86.769231 15.776432 86.815385 15.687744 86.861538 15.598964 86.907692 15.510094 86.953846 15.421139 87.000000 15.332104 87.046154 15.242992 87.092308 15.153808 87.138462 15.064556 87.184615 14.975239 87.230769 14.885862 87.276923 14.796429 87.323077 14.706945 87.369231 14.617412 87.415385 14.527836 87.461538 14.438221 87.507692 14.348570 87.553846 14.258889 87.600000 14.169179 87.646154 14.079447 87.692308 13.989697 87.738462 13.899931 87.784615 13.810155 87.830769 13.720372 87.876923 13.630587 87.923077 13.540804 87.969231 13.451026 88.015385 13.361259 88.061538 13.271505 88.107692 13.181770 88.153846 13.092057 88.200000 13.002371 88.246154 12.912715 88.292308 12.823094 88.338462 12.733512 88.384615 12.643973 88.430769 12.554481 88.476923 12.465040 88.523077 12.375655 88.569231 12.286328 88.615385 12.197066 88.661538 12.107871 88.707692 12.018748 88.753846 11.929701 88.800000 11.840734 88.846154 11.751851 88.892308 11.663056 88.938462 11.574354 88.984615 11.485748 89.030769 11.397243 89.076923 11.308843 89.123077 11.220552 89.169231 11.132373 89.215385 11.044312 89.261538 10.956372 89.307692 10.868558 89.353846 10.780873 89.400000 10.693321 89.446154 10.605908 89.492308 10.518636 89.538462 10.431510 89.584615 10.344534 89.630769 10.257713 89.676923 10.171050 89.723077 10.084549 89.769231 9.998215 89.815385 9.912052 89.861538 9.826064 89.907692 9.740254 89.953846 9.654628 90.000000 9.569189 90.046154 9.483941 90.092308 9.398888 90.138462 9.314036 90.184615 9.229387 90.230769 9.144945 90.276923 9.060716 90.323077 8.976702 90.369231 8.892909 90.415385 8.809340 90.461538 8.726000 90.507692 8.642892 90.553846 8.560021 90.600000 8.477390 90.646154 8.395005 90.692308 8.312868 90.738462 8.230985 90.784615 8.149359 90.830769 8.067994 90.876923 7.986895 90.923077 7.906065 90.969231 7.825509 91.015385 7.745231 91.061538 7.665236 91.107692 7.585526 91.153846 7.506106 91.200000 7.426981 91.246154 7.348154 91.292308 7.269630 91.338462 7.191412 91.384615 7.113506 91.430769 7.035914 91.476923 6.958642 91.523077 6.881692 91.569231 6.805070 91.615385 6.728780 91.661538 6.652825 91.707692 6.577209 91.753846 6.501938 91.800000 6.427014 91.846154 6.352443 91.892308 6.278228 91.938462 6.204373 91.984615 6.130882 92.030769 6.057760 92.076923 5.985011 92.123077 5.912638 92.169231 5.840646 92.215385 5.769040 92.261538 5.697822 92.307692 5.626998 92.353846 5.556571 92.400000 5.486546 92.446154 5.416926 92.492308 5.347716 92.538462 5.278920 92.584615 5.210542 92.630769 5.142586 92.676923 5.075056 92.723077 5.007957 92.769231 4.941292 92.815385 4.875066 92.861538 4.809282 92.907692 4.743945 92.953846 4.679060 93.000000 4.614629 93.046154 4.550658 93.092308 4.487149 93.138462 4.424109 93.184615 4.361540 93.230769 4.299446 93.276923 4.237833 93.323077 4.176703 93.369231 4.116062 93.415385 4.055912 93.461538 3.996259 93.507692 3.937107 93.553846 3.878458 93.600000 3.820319 93.646154 3.762692 93.692308 3.705583 93.738462 3.648994 93.784615 3.592930 93.830769 3.537396 93.876923 3.482395 93.923077 3.427932 93.969231 3.374010 94.015385 3.320634 94.061538 3.267808 94.107692 3.215536 94.153846 3.163822 94.200000 3.112670 94.246154 3.062085 94.292308 3.012070 94.338462 2.962630 94.384615 2.913768 94.430769 2.865488 94.476923 2.817789 94.523077 2.770668 94.569231 2.724123 94.615385 2.678151 94.661538 2.632751 94.707692 2.587919 94.753846 2.543654 94.800000 2.499953 94.846154 2.456814 94.892308 2.414234 94.938462 2.372212 94.984615 2.330745 95.030769 2.289830 95.076923 2.249465 95.123077 2.209648 95.169231 2.170377 95.215385 2.131649 95.261538 2.093462 95.307692 2.055813 95.353846 2.018701 95.400000 1.982122 95.446154 1.946076 95.492308 1.910558 95.538462 1.875567 95.584615 1.841101 95.630769 1.807157 95.676923 1.773733 95.723077 1.740826 95.769231 1.708435 95.815385 1.676557 95.861538 1.645189 95.907692 1.614329 95.953846 1.583975 96.000000 1.554125 96.046154 1.524777 96.092308 1.495927 96.138462 1.467573 96.184615 1.439714 96.230769 1.412347 96.276923 1.385470 96.323077 1.359079 96.369231 1.333174 96.415385 1.307751 96.461538 1.282809 96.507692 1.258344 96.553846 1.234355 96.600000 1.210840 96.646154 1.187795 96.692308 1.165219 96.738462 1.143109 96.784615 1.121463 96.830769 1.100279 96.876923 1.079554 96.923077 1.059286 96.969231 1.039473 97.015385 1.020112 97.061538 1.001200 97.107692 0.982737 97.153846 0.964719 97.200000 0.947143 97.246154 0.930009 97.292308 0.913312 97.338462 0.897052 97.384615 0.881225 97.430769 0.865830 97.476923 0.850864 97.523077 0.836324 97.569231 0.822208 97.615385 0.808515 97.661538 0.795241 97.707692 0.782385 97.753846 0.769943 97.800000 0.757914 97.846154 0.746296 97.892308 0.735085 97.938462 0.724280 97.984615 0.713879 98.030769 0.703878 98.076923 0.694276 98.123077 0.685071 98.169231 0.676259 98.215385 0.667839 98.261538 0.659809 98.307692 0.652165 98.353846 0.644907 98.400000 0.638030 98.446154 0.631534 98.492308 0.625415 98.538462 0.619672 98.584615 0.614301 98.630769 0.609302 98.676923 0.604670 98.723077 0.600405 98.769231 0.596503 98.815385 0.592963 98.861538 0.589782 98.907692 0.586957 98.953846 0.584487 99.000000 0.582369 99.046154 0.580601 99.092308 0.579180 99.138462 0.578104 99.184615 0.577371 99.230769 0.576978 99.276923 0.576923 99.323077 0.577204 99.369231 0.577818 99.415385 0.578764 99.461538 0.580038 99.507692 0.581638 99.553846 0.583563 99.600000 0.585809 99.646154 0.588375 99.692308 0.591258 99.738462 0.594455 99.784615 0.597965 99.830769 0.601785 99.876923 0.605913 99.923077 0.610346 99.969231 0.615082 100.015385 0.620119 100.061538 0.625455 100.107692 0.631086 100.153846 0.637011 100.200000 0.643228 100.246154 0.649734 100.292308 0.656526 100.338462 0.663603 100.384615 0.670962 100.430769 0.678601 100.476923 0.686517 100.523077 0.694709 100.569231 0.703173 100.615385 0.711908 100.661538 0.720910 100.707692 0.730179 100.753846 0.739711 100.800000 0.749504 100.846154 0.759556 100.892308 0.769864 100.938462 0.780426 100.984615 0.791240 101.030769 0.802304 101.076923 0.813615 101.123077 0.825170 101.169231 0.836968 101.215385 0.849007 101.261538 0.861283 101.307692 0.873794 101.353846 0.886539 101.400000 0.899514 101.446154 0.912718 101.492308 0.926148 101.538462 0.939802 101.584615 0.953677 101.630769 0.967772 101.676923 0.982083 101.723077 0.996609 101.769231 1.011347 101.815385 1.026294 101.861538 1.041450 101.907692 1.056810 101.953846 1.072373 102.000000 1.088137 102.046154 1.104099 102.092308 1.120257 102.138462 1.136608 102.184615 1.153150 102.230769 1.169882 102.276923 1.186800 102.323077 1.203902 102.369231 1.221185 102.415385 1.238649 102.461538 1.256289 102.507692 1.274105 102.553846 1.292093 102.600000 1.310251 102.646154 1.328577 102.692308 1.347068 102.738462 1.365723 102.784615 1.384538 102.830769 1.403512 102.876923 1.422643 102.923077 1.441927 102.969231 1.461363 103.015385 1.480947 103.061538 1.500679 103.107692 1.520556 103.153846 1.540574 103.200000 1.560733 103.246154 1.581029 103.292308 1.601460 103.338462 1.622024 103.384615 1.642719 103.430769 1.663541 103.476923 1.684490 103.523077 1.705563 103.569231 1.726756 103.615385 1.748069 103.661538 1.769498 103.707692 1.791041 103.753846 1.812696 103.800000 1.834461 103.846154 1.856333 103.892308 1.878310 103.938462 1.900389 103.984615 1.922569 104.030769 1.944847 104.076923 1.967220 104.123077 1.989687 104.169231 2.012244 104.215385 2.034890 104.261538 2.057622 104.307692 2.080439 104.353846 2.103337 104.400000 2.126314 104.446154 2.149368 104.492308 2.172496 104.538462 2.195697 104.584615 2.218968 104.630769 2.242307 104.676923 2.265710 104.723077 2.289177 104.769231 2.312704 104.815385 2.336290 104.861538 2.359931 104.907692 2.383627 104.953846 2.407373 105.000000 2.431169 105.046154 2.455011 105.092308 2.478897 105.138462 2.502825 105.184615 2.526793 105.230769 2.550798 105.276923 2.574839 105.323077 2.598912 105.369231 2.623015 105.415385 2.647146 105.461538 2.671303 105.507692 2.695483 105.553846 2.719684 105.600000 2.743904 105.646154 2.768140 105.692308 2.792390 105.738462 2.816651 105.784615 2.840922 105.830769 2.865200 105.876923 2.889483 105.923077 2.913768" class="line reactive nofill" /></g></g><g class="titles" /><g transform="translate(82, 10)" class="plot overlay"><g class="series serie-0 color-0" /></g><g transform="translate(82, 10)" class="plot text-overlay"><g class="series serie-0 color-0" /></g><g transform="translate(82, 10)" class="plot tooltip-overlay"><g transform="translate(0 0)" style="opacity: 0" class="tooltip"><rect rx="0" ry="0" width="0" height="0" class="tooltip-box" /><g class="text" /></g></g></g></svg>