<?xml version='1.0' encoding='utf-8'?>
<svg xmlns="http://www.w3.org/2000/svg" id="chart-a69b56d2-8003-464f-bc3e-55da4b091248" class="pygal-chart pygal-sparkline" viewBox="0 0 200 50" width="200" height="50"><!--Generated with pygal 3.0.5 (etree) ©Kozea 2012-2016 on 2025-03-02--><!--http://pygal.org--><!--http://github.com/Kozea/pygal--><defs><style type="text/css">#chart-a69b56d2-8003-464f-bc3e-55da4b091248{-webkit-user-select:none;-webkit-font-smoothing:antialiased;font-family:Consolas,"Liberation Mono",Menlo,Courier,monospace}#chart-a69b56d2-8003-464f-bc3e-55da4b091248 .title{font-family:Consolas,"Liberation Mono",Menlo,Courier,monospace;font-size:16px}#chart-a69b56d2-8003-464f-bc3e-55da4b091248 .legends .legend text{font-family:Consolas,"Liberation Mono",Menlo,Courier,monospace;font-size:14px}#chart-a69b56d2-8003-464f-bc3e-55da4b091248 .axis text{font-family:Consolas,"Liberation Mono",Menlo,Courier,monospace;font-size:10px}#chart-a69b56d2-8003-464f-bc3e-55da4b091248 .axis text.major{font-family:Consolas,"Liberation Mono",Menlo,Courier,monospace;font-size:10px}#chart-a69b56d2-8003-464f-bc3e-55da4b091248 .text-overlay text.value{font-family:Consolas,"Liberation Mono",Menlo,Courier,monospace;font-size:16px}#chart-a69b56d2-8003-464f-bc3e-55da4b091248 .text-overlay text.label{font-family:Consolas,"Liberation Mono",Menlo,Courier,monospace;font-size:10px}#chart-a69b56d2-8003-464f-bc3e-55da4b091248 .tooltip{font-family:Consolas,"Liberation Mono",Menlo,Courier,monospace;font-size:14px}#chart-a69b56d2-8003-464f-bc3e-55da4b091248 text.no_data{font-family:Consolas,"Liberation Mono",Menlo,Courier,monospace;font-size:64px}
#chart-a69b56d2-8003-464f-bc3e-55da4b091248{background-color:rgba(249,249,249,1)}#chart-a69b56d2-8003-464f-bc3e-55da4b091248 path,#chart-a69b56d2-8003-464f-bc3e-55da4b091248 line,#chart-a69b56d2-8003-464f-bc3e-55da4b091248 rect,#chart-a69b56d2-8003-464f-bc3e-55da4b091248 circle{-webkit-transition:150ms;-moz-transition:150ms;transition:150ms}#chart-a69b56d2-8003-464f-bc3e-55da4b091248 .graph &gt; .background{fill:rgba(249,249,249,1)}#chart-a69b56d2-8003-464f-bc3e-55da4b091248 .plot &gt; .background{fill:rgba(255,255,255,1)}#chart-a69b56d2-8003-464f-bc3e-55da4b091248 .graph{fill:rgba(0,0,0,.87)}#chart-a69b56d2-8003-464f-bc3e-55da4b091248 text.no_data{fill:rgba(0,0,0,1)}#chart-a69b56d2-8003-464f-bc3e-55da4b091248 .title{fill:rgba(0,0,0,1)}#chart-a69b56d2-8003-464f-bc3e-55da4b091248 .legends .legend text{fill:rgba(0,0,0,.87)}#chart-a69b56d2-8003-464f-bc3e-55da4b091248 .legends .legend:hover text{fill:rgba(0,0,0,1)}#chart-a69b56d2-8003-464f-bc3e-55da4b091248 .axis .line{stroke:rgba(0,0,0,1)}#chart-a69b56d2-8003-464f-bc3e-55da4b091248 .axis .guide.line{stroke:rgba(0,0,0,.54)}#chart-a69b56d2-8003-464f-bc3e-55da4b091248 .axis .major.line{stroke:rgba(0,0,0,.87)}#chart-a69b56d2-8003-464f-bc3e-55da4b091248 .axis text.major{fill:rgba(0,0,0,1)}#chart-a69b56d2-8003-464f-bc3e-55da4b091248 .axis.y .guides:hover .guide.line,#chart-a69b56d2-8003-464f-bc3e-55da4b091248 .line-graph .axis.x .guides:hover .guide.line,#chart-a69b56d2-8003-464f-bc3e-55da4b091248 .stackedline-graph .axis.x .guides:hover .guide.line,#chart-a69b56d2-8003-464f-bc3e-55da4b091248 .xy-graph .axis.x .guides:hover .guide.line{stroke:rgba(0,0,0,1)}#chart-a69b56d2-8003-464f-bc3e-55da4b091248 .axis .guides:hover text{fill:rgba(0,0,0,1)}#chart-a69b56d2-8003-464f-bc3e-55da4b091248 .reactive{fill-opacity:.7;stroke-opacity:.8;stroke-width:1}#chart-a69b56d2-8003-464f-bc3e-55da4b091248 .ci{stroke:rgba(0,0,0,.87)}#chart-a69b56d2-8003-464f-bc3e-55da4b091248 .reactive.active,#chart-a69b56d2-8003-464f-bc3e-55da4b091248 .active .reactive{fill-opacity:.8;stroke-opacity:.9;stroke-width:4}#chart-a69b56d2-8003-464f-bc3e-55da4b091248 .ci .reactive.active{stroke-width:1.5}#chart-a69b56d2-8003-464f-bc3e-55da4b091248 .series text{fill:rgba(0,0,0,1)}#chart-a69b56d2-8003-464f-bc3e-55da4b091248 .tooltip rect{fill:rgba(255,255,255,1);stroke:rgba(0,0,0,1);-webkit-transition:opacity 150ms;-moz-transition:opacity 150ms;transition:opacity 150ms}#chart-a69b56d2-8003-464f-bc3e-55da4b091248 .tooltip .label{fill:rgba(0,0,0,.87)}#chart-a69b56d2-8003-464f-bc3e-55da4b091248 .tooltip .label{fill:rgba(0,0,0,.87)}#chart-a69b56d2-8003-464f-bc3e-55da4b091248 .tooltip .legend{font-size:.8em;fill:rgba(0,0,0,.54)}#chart-a69b56d2-8003-464f-bc3e-55da4b091248 .tooltip .x_label{font-size:.6em;fill:rgba(0,0,0,1)}#chart-a69b56d2-8003-464f-bc3e-55da4b091248 .tooltip .xlink{font-size:.5em;text-decoration:underline}#chart-a69b56d2-8003-464f-bc3e-55da4b091248 .tooltip .value{font-size:1.5em}#chart-a69b56d2-8003-464f-bc3e-55da4b091248 .bound{font-size:.5em}#chart-a69b56d2-8003-464f-bc3e-55da4b091248 .max-value{font-size:.75em;fill:rgba(0,0,0,.54)}#chart-a69b56d2-8003-464f-bc3e-55da4b091248 .map-element{fill:rgba(255,255,255,1);stroke:rgba(0,0,0,.54) !important}#chart-a69b56d2-8003-464f-bc3e-55da4b091248 .map-element .reactive{fill-opacity:inherit;stroke-opacity:inherit}#chart-a69b56d2-8003-464f-bc3e-55da4b091248 .color-0,#chart-a69b56d2-8003-464f-bc3e-55da4b091248 .color-0 a:visited{stroke:#F44336;fill:#F44336}#chart-a69b56d2-8003-464f-bc3e-55da4b091248 .text-overlay .color-0 text{fill:black}
#chart-a69b56d2-8003-464f-bc3e-55da4b091248 text.no_data{text-anchor:middle}#chart-a69b56d2-8003-464f-bc3e-55da4b091248 .guide.line{fill:none}#chart-a69b56d2-8003-464f-bc3e-55da4b091248 .centered{text-anchor:middle}#chart-a69b56d2-8003-464f-bc3e-55da4b091248 .title{text-anchor:middle}#chart-a69b56d2-8003-464f-bc3e-55da4b091248 .legends .legend text{fill-opacity:1}#chart-a69b56d2-8003-464f-bc3e-55da4b091248 .axis.x text{text-anchor:middle}#chart-a69b56d2-8003-464f-bc3e-55da4b091248 .axis.x:not(.web) text[transform]{text-anchor:start}#chart-a69b56d2-8003-464f-bc3e-55da4b091248 .axis.x:not(.web) text[transform].backwards{text-anchor:end}#chart-a69b56d2-8003-464f-bc3e-55da4b091248 .axis.y text{text-anchor:end}#chart-a69b56d2-8003-464f-bc3e-55da4b091248 .axis.y text[transform].backwards{text-anchor:start}#chart-a69b56d2-8003-464f-bc3e-55da4b091248 .axis.y2 text{text-anchor:start}#chart-a69b56d2-8003-464f-bc3e-55da4b091248 .axis.y2 text[transform].backwards{text-anchor:end}#chart-a69b56d2-8003-464f-bc3e-55da4b091248 .axis .guide.line{stroke-dasharray:4,4;stroke:black}#chart-a69b56d2-8003-464f-bc3e-55da4b091248 .axis .major.guide.line{stroke-dasharray:6,6;stroke:black}#chart-a69b56d2-8003-464f-bc3e-55da4b091248 .horizontal .axis.y .guide.line,#chart-a69b56d2-8003-464f-bc3e-55da4b091248 .horizontal .axis.y2 .guide.line,#chart-a69b56d2-8003-464f-bc3e-55da4b091248 .vertical .axis.x .guide.line{opacity:0}#chart-a69b56d2-8003-464f-bc3e-55da4b091248 .horizontal .axis.always_show .guide.line,#chart-a69b56d2-8003-464f-bc3e-55da4b091248 .vertical .axis.always_show .guide.line{opacity:1 !important}#chart-a69b56d2-8003-464f-bc3e-55da4b091248 .axis.y .guides:hover .guide.line,#chart-a69b56d2-8003-464f-bc3e-55da4b091248 .axis.y2 .guides:hover .guide.line,#chart-a69b56d2-8003-464f-bc3e-55da4b091248 .axis.x .guides:hover .guide.line{opacity:1}#chart-a69b56d2-8003-464f-bc3e-55da4b091248 .axis .guides:hover text{opacity:1}#chart-a69b56d2-8003-464f-bc3e-55da4b091248 .nofill{fill:none}#chart-a69b56d2-8003-464f-bc3e-55da4b091248 .subtle-fill{fill-opacity:.2}#chart-a69b56d2-8003-464f-bc3e-55da4b091248 .dot{stroke-width:1px;fill-opacity:1;stroke-opacity:1}#chart-a69b56d2-8003-464f-bc3e-55da4b091248 .dot.active{stroke-width:5px}#chart-a69b56d2-8003-464f-bc3e-55da4b091248 .dot.negative{fill:transparent}#chart-a69b56d2-8003-464f-bc3e-55da4b091248 text,#chart-a69b56d2-8003-464f-bc3e-55da4b091248 tspan{stroke:none !important}#chart-a69b56d2-8003-464f-bc3e-55da4b091248 .series text.active{opacity:1}#chart-a69b56d2-8003-464f-bc3e-55da4b091248 .tooltip rect{fill-opacity:.95;stroke-width:.5}#chart-a69b56d2-8003-464f-bc3e-55da4b091248 .tooltip text{fill-opacity:1}#chart-a69b56d2-8003-464f-bc3e-55da4b091248 .showable{visibility:hidden}#chart-a69b56d2-8003-464f-bc3e-55da4b091248 .showable.shown{visibility:visible}#chart-a69b56d2-8003-464f-bc3e-55da4b091248 .gauge-background{fill:rgba(229,229,229,1);stroke:none}#chart-a69b56d2-8003-464f-bc3e-55da4b091248 .bg-lines{stroke:rgba(249,249,249,1);stroke-width:2px}</style><script type="text/javascript">window.pygal = window.pygal || {};window.pygal.config = window.pygal.config || {};window.pygal.config['a69b56d2-8003-464f-bc3e-55da4b091248'] = {"allow_interruptions": false, "box_mode": "extremes", "classes": ["pygal-chart", "pygal-sparkline"], "css": ["file://style.css", "file://graph.css"], "defs": [], "disable_xml_declaration": false, "dots_size": 2.5, "dynamic_print_values": false, "explicit_size": true, "fill": false, "force_uri_protocol": "https", "formatter": null, "half_pie": false, "height": 50, "include_x_axis": false, "inner_radius": 0, "interpolate": "cubic", "interpolation_parameters": {}, "interpolation_precision": 250, "inverse_y_axis": false, "js": [], "legend_at_bottom": false, "legend_at_bottom_columns": null, "legend_box_size": 12, "logarithmic": false, "margin": 10, "margin_bottom": null, "margin_left": null, "margin_right": null, "margin_top": null, "max_scale": 2, "min_scale": 1, "missing_value_fill_truncation": "x", "no_data_text": "", "no_prefix": false, "order_min": null, "pretty_print": false, "print_labels": false, "print_values": false, "print_values_position": "center", "print_zeroes": true, "range": null, "rounded_bars": null, "secondary_range": null, "show_dots": false, "show_legend": false, "show_minor_x_labels": true, "show_minor_y_labels": true, "show_only_major_dots": false, "show_x_guides": false, "show_x_labels": false, "show_y_guides": true, "show_y_labels": true, "spacing": 0, "stack_from_top": false, "strict": false, "stroke": true, "stroke_style": null, "style": {"background": "rgba(249, 249, 249, 1)", "ci_colors": [], "colors": ["#F44336", "#3F51B5", "#009688", "#FFC107", "#FF5722", "#9C27B0", "#03A9F4", "#8BC34A", "#FF9800", "#E91E63", "#2196F3", "#4CAF50", "#FFEB3B", "#673AB7", "#00BCD4", "#CDDC39", "#9E9E9E", "#607D8B"], "dot_opacity": "1", "font_family": "Consolas, \"Liberation Mono\", Menlo, Courier, monospace", "foreground": "rgba(0, 0, 0, .87)", "foreground_strong": "rgba(0, 0, 0, 1)", "foreground_subtle": "rgba(0, 0, 0, .54)", "guide_stroke_color": "black", "guide_stroke_dasharray": "4,4", "label_font_family": "Consolas, \"Liberation Mono\", Menlo, Courier, monospace", "label_font_size": 10, "legend_font_family": "Consolas, \"Liberation Mono\", Menlo, Courier, monospace", "legend_font_size": 14, "major_guide_stroke_color": "black", "major_guide_stroke_dasharray": "6,6", "major_label_font_family": "Consolas, \"Liberation Mono\", Menlo, Courier, monospace", "major_label_font_size": 10, "no_data_font_family": "Consolas, \"Liberation Mono\", Menlo, Courier, monospace", "no_data_font_size": 64, "opacity": ".7", "opacity_hover": ".8", "plot_background": "rgba(255, 255, 255, 1)", "stroke_opacity": ".8", "stroke_opacity_hover": ".9", "stroke_width": "1", "stroke_width_hover": "4", "title_font_family": "Consolas, \"Liberation Mono\", Menlo, Courier, monospace", "title_font_size": 16, "tooltip_font_family": "Consolas, \"Liberation Mono\", Menlo, Courier, monospace", "tooltip_font_size": 14, "transition": "150ms", "value_background": "rgba(229, 229, 229, 1)", "value_colors": [], "value_font_family": "Consolas, \"Liberation Mono\", Menlo, Courier, monospace", "value_font_size": 16, "value_label_font_family": "Consolas, \"Liberation Mono\", Menlo, Courier, monospace", "value_label_font_size": 10}, "title": null, "tooltip_border_radius": 0, "tooltip_fancy_mode": true, "truncate_label": null, "truncate_legend": null, "width": 200, "x_label_rotation": 0, "x_labels": ["2025/2", "2024/12", "2024/11", "2024/9", "2024/8", "2024/6", "2024/5", "2024/4", "2024/3", "2023/9", "2023/8", "2023/7", "2023/6", "2023/5", "2023/4"], "x_labels_major": null, "x_labels_major_count": null, "x_labels_major_every": null, "x_title": null, "xrange": null, "y_label_rotation": 0, "y_labels": null, "y_labels_major": null, "y_labels_major_count": null, "y_labels_major_every": null, "y_title": null, "zero": 0, "legends": [""]}</script></defs><title>Pygal</title><g class="graph line-graph vertical"><rect x="0" y="0" width="200" height="50" class="background" /><g transform="translate(82, 10)" class="plot"><rect x="0" y="0" width="108.0" height="30" class="background" /><g class="axis y always_show"><path d="M0.000000 30.000000 h108.000000" class="line" /><g class="guides"><path d="M0.000000 29.423077 h108.000000" class="guide line" /><text x="-5" y="32.92307692307692" class="">0.6163048275</text><title>0.6163048275</title></g><g class="guides"><path d="M0.000000 0.576923 h108.000000" class="guide line" /><text x="-5" y="4.076923076923077" class="">9</text><title>9</title></g></g><g class="series serie-0 color-0"><path d="M2.076923 28.102880 L2.106593 28.104073 2.136264 28.105267 2.165934 28.106460 2.195604 28.107653 2.225275 28.108845 2.254945 28.110037 2.284615 28.111228 2.314286 28.112418 2.343956 28.113608 2.373626 28.114796 2.403297 28.115983 2.432967 28.117169 2.462637 28.118354 2.492308 28.119537 2.521978 28.120718 2.551648 28.121898 2.581319 28.123076 2.610989 28.124252 2.640659 28.125426 2.670330 28.126597 2.700000 28.127767 2.729670 28.128934 2.759341 28.130098 2.789011 28.131260 2.818681 28.132419 2.848352 28.133576 2.878022 28.134729 2.907692 28.135879 2.937363 28.137026 2.967033 28.138170 2.996703 28.139310 3.026374 28.140447 3.056044 28.141580 3.085714 28.142709 3.115385 28.143834 3.145055 28.144955 3.174725 28.146073 3.204396 28.147186 3.234066 28.148294 3.263736 28.149398 3.293407 28.150498 3.323077 28.151593 3.352747 28.152683 3.382418 28.153768 3.412088 28.154848 3.441758 28.155923 3.471429 28.156992 3.501099 28.158057 3.530769 28.159115 3.560440 28.160169 3.590110 28.161216 3.619780 28.162258 3.649451 28.163293 3.679121 28.164323 3.708791 28.165346 3.738462 28.166363 3.768132 28.167374 3.797802 28.168378 3.827473 28.169375 3.857143 28.170366 3.886813 28.171350 3.916484 28.172327 3.946154 28.173296 3.975824 28.174259 4.005495 28.175214 4.035165 28.176162 4.064835 28.177102 4.094505 28.178034 4.124176 28.178959 4.153846 28.179876 4.183516 28.180785 4.213187 28.181685 4.242857 28.182578 4.272527 28.183462 4.302198 28.184337 4.331868 28.185204 4.361538 28.186062 4.391209 28.186912 4.420879 28.187752 4.450549 28.188584 4.480220 28.189406 4.509890 28.190219 4.539560 28.191023 4.569231 28.191817 4.598901 28.192601 4.628571 28.193376 4.658242 28.194141 4.687912 28.194896 4.717582 28.195640 4.747253 28.196375 4.776923 28.197099 4.806593 28.197813 4.836264 28.198517 4.865934 28.199209 4.895604 28.199891 4.925275 28.200562 4.954945 28.201222 4.984615 28.201871 5.014286 28.202509 5.043956 28.203135 5.073626 28.203750 5.103297 28.204353 5.132967 28.204945 5.162637 28.205525 5.192308 28.206093 5.221978 28.206648 5.251648 28.207192 5.281319 28.207724 5.310989 28.208243 5.340659 28.208749 5.370330 28.209243 5.400000 28.209725 5.429670 28.210193 5.459341 28.210649 5.489011 28.211091 5.518681 28.211520 5.548352 28.211936 5.578022 28.212339 5.607692 28.212728 5.637363 28.213103 5.667033 28.213465 5.696703 28.213813 5.726374 28.214147 5.756044 28.214466 5.785714 28.214772 5.815385 28.215063 5.845055 28.215340 5.874725 28.215602 5.904396 28.215850 5.934066 28.216082 5.963736 28.216300 5.993407 28.216503 6.023077 28.216691 6.052747 28.216863 6.082418 28.217020 6.112088 28.217162 6.141758 28.217288 6.171429 28.217399 6.201099 28.217493 6.230769 28.217572 6.260440 28.217634 6.290110 28.217681 6.319780 28.217711 6.349451 28.217725 6.379121 28.217722 6.408791 28.217703 6.438462 28.217667 6.468132 28.217614 6.497802 28.217544 6.527473 28.217457 6.557143 28.217353 6.586813 28.217232 6.616484 28.217093 6.646154 28.216937 6.675824 28.216763 6.705495 28.216571 6.735165 28.216361 6.764835 28.216134 6.794505 28.215888 6.824176 28.215624 6.853846 28.215342 6.883516 28.215041 6.913187 28.214722 6.942857 28.214384 6.972527 28.214027 7.002198 28.213651 7.031868 28.213257 7.061538 28.212843 7.091209 28.212410 7.120879 28.211958 7.150549 28.211486 7.180220 28.210994 7.209890 28.210483 7.239560 28.209952 7.269231 28.209401 7.298901 28.208830 7.328571 28.208239 7.358242 28.207627 7.387912 28.206996 7.417582 28.206343 7.447253 28.205670 7.476923 28.204977 7.506593 28.204262 7.536264 28.203526 7.565934 28.202770 7.595604 28.201992 7.625275 28.201193 7.654945 28.200372 7.684615 28.199530 7.714286 28.198667 7.743956 28.197781 7.773626 28.196874 7.803297 28.195944 7.832967 28.194993 7.862637 28.194019 7.892308 28.193023 7.921978 28.192004 7.951648 28.190963 7.981319 28.189900 8.010989 28.188813 8.040659 28.187703 8.070330 28.186571 8.100000 28.185415 8.129670 28.184236 8.159341 28.183034 8.189011 28.181808 8.218681 28.180559 8.248352 28.179286 8.278022 28.177989 8.307692 28.176668 8.337363 28.175323 8.367033 28.173954 8.396703 28.172560 8.426374 28.171142 8.456044 28.169700 8.485714 28.168233 8.515385 28.166741 8.545055 28.165225 8.574725 28.163683 8.604396 28.162116 8.634066 28.160524 8.663736 28.158907 8.693407 28.157265 8.723077 28.155596 8.752747 28.153903 8.782418 28.152183 8.812088 28.150437 8.841758 28.148666 8.871429 28.146868 8.901099 28.145044 8.930769 28.143194 8.960440 28.141317 8.990110 28.139414 9.019780 28.137484 9.049451 28.135527 9.079121 28.133544 9.108791 28.131533 9.138462 28.129495 9.168132 28.127430 9.197802 28.125337 9.227473 28.123217 9.257143 28.121069 9.286813 28.118894 9.316484 28.116691 9.346154 28.114459 9.375824 28.112200 9.405495 28.109913 9.435165 28.107597 9.464835 28.105253 9.494505 28.102880 9.524176 28.100479 9.553846 28.098049 9.583516 28.095592 9.613187 28.093109 9.642857 28.090599 9.672527 28.088063 9.702198 28.085502 9.731868 28.082916 9.761538 28.080306 9.791209 28.077673 9.820879 28.075017 9.850549 28.072338 9.880220 28.069638 9.909890 28.066916 9.939560 28.064174 9.969231 28.061412 9.998901 28.058630 10.028571 28.055830 10.058242 28.053011 10.087912 28.050174 10.117582 28.047320 10.147253 28.044450 10.176923 28.041563 10.206593 28.038661 10.236264 28.035745 10.265934 28.032813 10.295604 28.029869 10.325275 28.026910 10.354945 28.023940 10.384615 28.020957 10.414286 28.017963 10.443956 28.014958 10.473626 28.011942 10.503297 28.008917 10.532967 28.005883 10.562637 28.002840 10.592308 27.999789 10.621978 27.996731 10.651648 27.993665 10.681319 27.990594 10.710989 27.987517 10.740659 27.984434 10.770330 27.981347 10.800000 27.978256 10.829670 27.975162 10.859341 27.972064 10.889011 27.968965 10.918681 27.965864 10.948352 27.962761 10.978022 27.959658 11.007692 27.956555 11.037363 27.953453 11.067033 27.950351 11.096703 27.947252 11.126374 27.944154 11.156044 27.941060 11.185714 27.937969 11.215385 27.934882 11.245055 27.931799 11.274725 27.928722 11.304396 27.925651 11.334066 27.922585 11.363736 27.919527 11.393407 27.916476 11.423077 27.913433 11.452747 27.910399 11.482418 27.907374 11.512088 27.904358 11.541758 27.901353 11.571429 27.898359 11.601099 27.895376 11.630769 27.892406 11.660440 27.889448 11.690110 27.886503 11.719780 27.883571 11.749451 27.880655 11.779121 27.877753 11.808791 27.874866 11.838462 27.871996 11.868132 27.869142 11.897802 27.866305 11.927473 27.863486 11.957143 27.860686 11.986813 27.857904 12.016484 27.855142 12.046154 27.852400 12.075824 27.849678 12.105495 27.846978 12.135165 27.844299 12.164835 27.841643 12.194505 27.839010 12.224176 27.836400 12.253846 27.833814 12.283516 27.831253 12.313187 27.828717 12.342857 27.826207 12.372527 27.823724 12.402198 27.821267 12.431868 27.818837 12.461538 27.816436 12.491209 27.814064 12.520879 27.811720 12.550549 27.809407 12.580220 27.807123 12.609890 27.804871 12.639560 27.802650 12.669231 27.800462 12.698901 27.798305 12.728571 27.796183 12.758242 27.794094 12.787912 27.792039 12.817582 27.790019 12.847253 27.788035 12.876923 27.786087 12.906593 27.784176 12.936264 27.782301 12.965934 27.780465 12.995604 27.778667 13.025275 27.776908 13.054945 27.775188 13.084615 27.773509 13.114286 27.771870 13.143956 27.770273 13.173626 27.768717 13.203297 27.767204 13.232967 27.765733 13.262637 27.764307 13.292308 27.762924 13.321978 27.761586 13.351648 27.760293 13.381319 27.759046 13.410989 27.757846 13.440659 27.756692 13.470330 27.755586 13.500000 27.754529 13.529670 27.753519 13.559341 27.752560 13.589011 27.751650 13.618681 27.750790 13.648352 27.749981 13.678022 27.749224 13.707692 27.748519 13.737363 27.747867 13.767033 27.747268 13.796703 27.746723 13.826374 27.746232 13.856044 27.745797 13.885714 27.745417 13.915385 27.745093 13.945055 27.744825 13.974725 27.744615 14.004396 27.744463 14.034066 27.744370 14.063736 27.744335 14.093407 27.744360 14.123077 27.744445 14.152747 27.744591 14.182418 27.744798 14.212088 27.745067 14.241758 27.745398 14.271429 27.745793 14.301099 27.746251 14.330769 27.746773 14.360440 27.747360 14.390110 27.748012 14.419780 27.748730 14.449451 27.749515 14.479121 27.750366 14.508791 27.751285 14.538462 27.752273 14.568132 27.753329 14.597802 27.754454 14.627473 27.755650 14.657143 27.756916 14.686813 27.758252 14.716484 27.759661 14.746154 27.761141 14.775824 27.762695 14.805495 27.764322 14.835165 27.766022 14.864835 27.767797 14.894505 27.769647 14.924176 27.771573 14.953846 27.773575 14.983516 27.775654 15.013187 27.777810 15.042857 27.780044 15.072527 27.782356 15.102198 27.784748 15.131868 27.787219 15.161538 27.789770 15.191209 27.792402 15.220879 27.795116 15.250549 27.797911 15.280220 27.800789 15.309890 27.803750 15.339560 27.806795 15.369231 27.809924 15.398901 27.813137 15.428571 27.816436 15.458242 27.819821 15.487912 27.823293 15.517582 27.826851 15.547253 27.830497 15.576923 27.834232 15.606593 27.838055 15.636264 27.841967 15.665934 27.845970 15.695604 27.850063 15.725275 27.854247 15.754945 27.858523 15.784615 27.862891 15.814286 27.867351 15.843956 27.871905 15.873626 27.876554 15.903297 27.881296 15.932967 27.886134 15.962637 27.891067 15.992308 27.896097 16.021978 27.901224 16.051648 27.906447 16.081319 27.911769 16.110989 27.917190 16.140659 27.922709 16.170330 27.928328 16.200000 27.934048 16.229670 27.939868 16.259341 27.945790 16.289011 27.951813 16.318681 27.957939 16.348352 27.964169 16.378022 27.970502 16.407692 27.976939 16.437363 27.983481 16.467033 27.990128 16.496703 27.996882 16.526374 28.003742 16.556044 28.010709 16.585714 28.017784 16.615385 28.024967 16.645055 28.032259 16.674725 28.039661 16.704396 28.047172 16.734066 28.054794 16.763736 28.062527 16.793407 28.070372 16.823077 28.078329 16.852747 28.086399 16.882418 28.094582 16.912088 28.102880 16.941758 28.111291 16.971429 28.119815 17.001099 28.128449 17.030769 28.137192 17.060440 28.146040 17.090110 28.154991 17.119780 28.164045 17.149451 28.173197 17.179121 28.182447 17.208791 28.191792 17.238462 28.201229 17.268132 28.210758 17.297802 28.220374 17.327473 28.230077 17.357143 28.239864 17.386813 28.249733 17.416484 28.259682 17.446154 28.269708 17.475824 28.279810 17.505495 28.289985 17.535165 28.300231 17.564835 28.310545 17.594505 28.320927 17.624176 28.331373 17.653846 28.341881 17.683516 28.352450 17.713187 28.363076 17.742857 28.373758 17.772527 28.384494 17.802198 28.395281 17.831868 28.406118 17.861538 28.417002 17.891209 28.427930 17.920879 28.438902 17.950549 28.449913 17.980220 28.460964 18.009890 28.472050 18.039560 28.483171 18.069231 28.494323 18.098901 28.505505 18.128571 28.516714 18.158242 28.527949 18.187912 28.539207 18.217582 28.550486 18.247253 28.561784 18.276923 28.573098 18.306593 28.584427 18.336264 28.595768 18.365934 28.607119 18.395604 28.618478 18.425275 28.629843 18.454945 28.641211 18.484615 28.652581 18.514286 28.663950 18.543956 28.675316 18.573626 28.686677 18.603297 28.698030 18.632967 28.709374 18.662637 28.720706 18.692308 28.732025 18.721978 28.743327 18.751648 28.754611 18.781319 28.765875 18.810989 28.777116 18.840659 28.788332 18.870330 28.799522 18.900000 28.810682 18.929670 28.821811 18.959341 28.832907 18.989011 28.843967 19.018681 28.854989 19.048352 28.865971 19.078022 28.876911 19.107692 28.887807 19.137363 28.898656 19.167033 28.909456 19.196703 28.920206 19.226374 28.930903 19.256044 28.941544 19.285714 28.952128 19.315385 28.962652 19.345055 28.973115 19.374725 28.983513 19.404396 28.993846 19.434066 29.004110 19.463736 29.014304 19.493407 29.024425 19.523077 29.034471 19.552747 29.044441 19.582418 29.054331 19.612088 29.064140 19.641758 29.073865 19.671429 29.083505 19.701099 29.093056 19.730769 29.102518 19.760440 29.111887 19.790110 29.121162 19.819780 29.130341 19.849451 29.139420 19.879121 29.148399 19.908791 29.157275 19.938462 29.166045 19.968132 29.174708 19.997802 29.183261 20.027473 29.191702 20.057143 29.200029 20.086813 29.208241 20.116484 29.216333 20.146154 29.224306 20.175824 29.232155 20.205495 29.239880 20.235165 29.247477 20.264835 29.254946 20.294505 29.262283 20.324176 29.269486 20.353846 29.276553 20.383516 29.283483 20.413187 29.290272 20.442857 29.296920 20.472527 29.303422 20.502198 29.309778 20.531868 29.315985 20.561538 29.322042 20.591209 29.327945 20.620879 29.333692 20.650549 29.339282 20.680220 29.344713 20.709890 29.349981 20.739560 29.355085 20.769231 29.360024 20.798901 29.364793 20.828571 29.369392 20.858242 29.373819 20.887912 29.378070 20.917582 29.382144 20.947253 29.386039 20.976923 29.389752 21.006593 29.393282 21.036264 29.396626 21.065934 29.399782 21.095604 29.402748 21.125275 29.405521 21.154945 29.408100 21.184615 29.410482 21.214286 29.412665 21.243956 29.414647 21.273626 29.416425 21.303297 29.417999 21.332967 29.419364 21.362637 29.420520 21.392308 29.421464 21.421978 29.422194 21.451648 29.422708 21.481319 29.423003 21.510989 29.423077 21.540659 29.422928 21.570330 29.422555 21.600000 29.421954 21.629670 29.421124 21.659341 29.420062 21.689011 29.418767 21.718681 29.417235 21.748352 29.415466 21.778022 29.413456 21.807692 29.411204 21.837363 29.408707 21.867033 29.405963 21.896703 29.402971 21.926374 29.399727 21.956044 29.396230 21.985714 29.392477 22.015385 29.388467 22.045055 29.384197 22.074725 29.379665 22.104396 29.374868 22.134066 29.369806 22.163736 29.364474 22.193407 29.358872 22.223077 29.352997 22.252747 29.346847 22.282418 29.340420 22.312088 29.333713 22.341758 29.326724 22.371429 29.319452 22.401099 29.311894 22.430769 29.304047 22.460440 29.295911 22.490110 29.287481 22.519780 29.278757 22.549451 29.269737 22.579121 29.260417 22.608791 29.250795 22.638462 29.240871 22.668132 29.230641 22.697802 29.220103 22.727473 29.209255 22.757143 29.198095 22.786813 29.186621 22.816484 29.174830 22.846154 29.162721 22.875824 29.150291 22.905495 29.137538 22.935165 29.124460 22.964835 29.111054 22.994505 29.097319 23.024176 29.083252 23.053846 29.068851 23.083516 29.054115 23.113187 29.039040 23.142857 29.023624 23.172527 29.007866 23.202198 28.991763 23.231868 28.975314 23.261538 28.958515 23.291209 28.941365 23.320879 28.923861 23.350549 28.906002 23.380220 28.887785 23.409890 28.869208 23.439560 28.850268 23.469231 28.830965 23.498901 28.811295 23.528571 28.791256 23.558242 28.770846 23.587912 28.750063 23.617582 28.728905 23.647253 28.707370 23.676923 28.685455 23.706593 28.663158 23.736264 28.640477 23.765934 28.617410 23.795604 28.593955 23.825275 28.570109 23.854945 28.545871 23.884615 28.521238 23.914286 28.496208 23.943956 28.470778 23.973626 28.444948 24.003297 28.418713 24.032967 28.392073 24.062637 28.365025 24.092308 28.337567 24.121978 28.309697 24.151648 28.281413 24.181319 28.252711 24.210989 28.223591 24.240659 28.194050 24.270330 28.164086 24.300000 28.133697 24.329670 28.102880 24.359341 28.071634 24.389011 28.039963 24.418681 28.007871 24.448352 27.975361 24.478022 27.942439 24.507692 27.909108 24.537363 27.875372 24.567033 27.841235 24.596703 27.806703 24.626374 27.771778 24.656044 27.736465 24.685714 27.700769 24.715385 27.664692 24.745055 27.628241 24.774725 27.591418 24.804396 27.554228 24.834066 27.516675 24.863736 27.478763 24.893407 27.440497 24.923077 27.401881 24.952747 27.362918 24.982418 27.323613 25.012088 27.283970 25.041758 27.243993 25.071429 27.203687 25.101099 27.163056 25.130769 27.122103 25.160440 27.080833 25.190110 27.039251 25.219780 26.997359 25.249451 26.955164 25.279121 26.912667 25.308791 26.869875 25.338462 26.826790 25.368132 26.783418 25.397802 26.739762 25.427473 26.695827 25.457143 26.651616 25.486813 26.607134 25.516484 26.562385 25.546154 26.517374 25.575824 26.472103 25.605495 26.426578 25.635165 26.380803 25.664835 26.334782 25.694505 26.288519 25.724176 26.242018 25.753846 26.195283 25.783516 26.148319 25.813187 26.101130 25.842857 26.053719 25.872527 26.006092 25.902198 25.958252 25.931868 25.910203 25.961538 25.861950 25.991209 25.813497 26.020879 25.764847 26.050549 25.716006 26.080220 25.666977 26.109890 25.617764 26.139560 25.568372 26.169231 25.518805 26.198901 25.469066 26.228571 25.419161 26.258242 25.369093 26.287912 25.318867 26.317582 25.268486 26.347253 25.217955 26.376923 25.167278 26.406593 25.116459 26.436264 25.065503 26.465934 25.014413 26.495604 24.963193 26.525275 24.911849 26.554945 24.860383 26.584615 24.808801 26.614286 24.757106 26.643956 24.705303 26.673626 24.653395 26.703297 24.601387 26.732967 24.549283 26.762637 24.497087 26.792308 24.444804 26.821978 24.392437 26.851648 24.339991 26.881319 24.287470 26.910989 24.234878 26.940659 24.182219 26.970330 24.129498 27.000000 24.076718 27.029670 24.023884 27.059341 23.971000 27.089011 23.918070 27.118681 23.865098 27.148352 23.812088 27.178022 23.759046 27.207692 23.705974 27.237363 23.652876 27.267033 23.599759 27.296703 23.546624 27.326374 23.493477 27.356044 23.440321 27.385714 23.387161 27.415385 23.334002 27.445055 23.280846 27.474725 23.227699 27.504396 23.174564 27.534066 23.121446 27.563736 23.068348 27.593407 23.015276 27.623077 22.962233 27.652747 22.909223 27.682418 22.856250 27.712088 22.803320 27.741758 22.750435 27.771429 22.697600 27.801099 22.644820 27.830769 22.592098 27.860440 22.539438 27.890110 22.486845 27.919780 22.434323 27.949451 22.381876 27.979121 22.329508 28.008791 22.277224 28.038462 22.225027 28.068132 22.172922 28.097802 22.120913 28.127473 22.069004 28.157143 22.017199 28.186813 21.965503 28.216484 21.913919 28.246154 21.862452 28.275824 21.811106 28.305495 21.759885 28.335165 21.708794 28.364835 21.657835 28.394505 21.607015 28.424176 21.556336 28.453846 21.505803 28.483516 21.455421 28.513187 21.405192 28.542857 21.355122 28.572527 21.305215 28.602198 21.255475 28.631868 21.205906 28.661538 21.156511 28.691209 21.107296 28.720879 21.058265 28.750549 21.009421 28.780220 20.960770 28.809890 20.912314 28.839560 20.864058 28.869231 20.816007 28.898901 20.768164 28.928571 20.720534 28.958242 20.673121 28.987912 20.625929 29.017582 20.578962 29.047253 20.532225 29.076923 20.485721 29.106593 20.439455 29.136264 20.393430 29.165934 20.347652 29.195604 20.302124 29.225275 20.256851 29.254945 20.211836 29.284615 20.167084 29.314286 20.122598 29.343956 20.078384 29.373626 20.034446 29.403297 19.990786 29.432967 19.947410 29.462637 19.904322 29.492308 19.861526 29.521978 19.819027 29.551648 19.776827 29.581319 19.734932 29.610989 19.693345 29.640659 19.652072 29.670330 19.611115 29.700000 19.570480 29.729670 19.530170 29.759341 19.490189 29.789011 19.450542 29.818681 19.411233 29.848352 19.372266 29.878022 19.333645 29.907692 19.295374 29.937363 19.257458 29.967033 19.219901 29.996703 19.182707 30.026374 19.145879 30.056044 19.109423 30.085714 19.073342 30.115385 19.037641 30.145055 19.002324 30.174725 18.967394 30.204396 18.932857 30.234066 18.898715 30.263736 18.864974 30.293407 18.831638 30.323077 18.798711 30.352747 18.766196 30.382418 18.734099 30.412088 18.702422 30.441758 18.671172 30.471429 18.640350 30.501099 18.609963 30.530769 18.580014 30.560440 18.550506 30.590110 18.521445 30.619780 18.492835 30.649451 18.464679 30.679121 18.436982 30.708791 18.409748 30.738462 18.382981 30.768132 18.356685 30.797802 18.330865 30.827473 18.305525 30.857143 18.280668 30.886813 18.256300 30.916484 18.232423 30.946154 18.209043 30.975824 18.186164 31.005495 18.163789 31.035165 18.141923 31.064835 18.120570 31.094505 18.099734 31.124176 18.079420 31.153846 18.059631 31.183516 18.040372 31.213187 18.021647 31.242857 18.003460 31.272527 17.985815 31.302198 17.968717 31.331868 17.952169 31.361538 17.936176 31.391209 17.920742 31.420879 17.905871 31.450549 17.891567 31.480220 17.877834 31.509890 17.864678 31.539560 17.852101 31.569231 17.840108 31.598901 17.828703 31.628571 17.817890 31.658242 17.807674 31.687912 17.798058 31.717582 17.789048 31.747253 17.780646 31.776923 17.772856 31.806593 17.765675 31.836264 17.759100 31.865934 17.753126 31.895604 17.747749 31.925275 17.742966 31.954945 17.738772 31.984615 17.735164 32.014286 17.732137 32.043956 17.729689 32.073626 17.727814 32.103297 17.726508 32.132967 17.725769 32.162637 17.725592 32.192308 17.725972 32.221978 17.726907 32.251648 17.728392 32.281319 17.730423 32.310989 17.732997 32.340659 17.736108 32.370330 17.739754 32.400000 17.743931 32.429670 17.748634 32.459341 17.753859 32.489011 17.759604 32.518681 17.765863 32.548352 17.772632 32.578022 17.779909 32.607692 17.787688 32.637363 17.795967 32.667033 17.804740 32.696703 17.814004 32.726374 17.823756 32.756044 17.833991 32.785714 17.844705 32.815385 17.855894 32.845055 17.867555 32.874725 17.879683 32.904396 17.892274 32.934066 17.905325 32.963736 17.918832 32.993407 17.932791 33.023077 17.947197 33.052747 17.962047 33.082418 17.977337 33.112088 17.993063 33.141758 18.009221 33.171429 18.025807 33.201099 18.042817 33.230769 18.060247 33.260440 18.078093 33.290110 18.096352 33.319780 18.115019 33.349451 18.134091 33.379121 18.153563 33.408791 18.173432 33.438462 18.193693 33.468132 18.214343 33.497802 18.235377 33.527473 18.256793 33.557143 18.278585 33.586813 18.300751 33.616484 18.323285 33.646154 18.346184 33.675824 18.369444 33.705495 18.393062 33.735165 18.417033 33.764835 18.441353 33.794505 18.466018 33.824176 18.491025 33.853846 18.516370 33.883516 18.542048 33.913187 18.568055 33.942857 18.594388 33.972527 18.621043 34.002198 18.648016 34.031868 18.675302 34.061538 18.702899 34.091209 18.730801 34.120879 18.759006 34.150549 18.787508 34.180220 18.816305 34.209890 18.845392 34.239560 18.874765 34.269231 18.904421 34.298901 18.934355 34.328571 18.964564 34.358242 18.995043 34.387912 19.025788 34.417582 19.056797 34.447253 19.088064 34.476923 19.119585 34.506593 19.151358 34.536264 19.183378 34.565934 19.215640 34.595604 19.248142 34.625275 19.280878 34.654945 19.313846 34.684615 19.347041 34.714286 19.380459 34.743956 19.414097 34.773626 19.447950 34.803297 19.482014 34.832967 19.516286 34.862637 19.550762 34.892308 19.585437 34.921978 19.620308 34.951648 19.655371 34.981319 19.690622 35.010989 19.726056 35.040659 19.761670 35.070330 19.797461 35.100000 19.833423 35.129670 19.869554 35.159341 19.905849 35.189011 19.942304 35.218681 19.978916 35.248352 20.015679 35.278022 20.052592 35.307692 20.089649 35.337363 20.126846 35.367033 20.164180 35.396703 20.201647 35.426374 20.239242 35.456044 20.276963 35.485714 20.314804 35.515385 20.352762 35.545055 20.390833 35.574725 20.429013 35.604396 20.467299 35.634066 20.505685 35.663736 20.544169 35.693407 20.582746 35.723077 20.621413 35.752747 20.660165 35.782418 20.698998 35.812088 20.737909 35.841758 20.776894 35.871429 20.815949 35.901099 20.855069 35.930769 20.894251 35.960440 20.933490 35.990110 20.972784 36.019780 21.012128 36.049451 21.051518 36.079121 21.090950 36.108791 21.130420 36.138462 21.169924 36.168132 21.209459 36.197802 21.249020 36.227473 21.288604 36.257143 21.328206 36.286813 21.367822 36.316484 21.407449 36.346154 21.447083 36.375824 21.486720 36.405495 21.526355 36.435165 21.565986 36.464835 21.605607 36.494505 21.645215 36.524176 21.684806 36.553846 21.724377 36.583516 21.763922 36.613187 21.803439 36.642857 21.842923 36.672527 21.882370 36.702198 21.921777 36.731868 21.961140 36.761538 22.000454 36.791209 22.039715 36.820879 22.078920 36.850549 22.118065 36.880220 22.157146 36.909890 22.196158 36.939560 22.235099 36.969231 22.273963 36.998901 22.312748 37.028571 22.351449 37.058242 22.390061 37.087912 22.428582 37.117582 22.467008 37.147253 22.505333 37.176923 22.543556 37.206593 22.581670 37.236264 22.619673 37.265934 22.657561 37.295604 22.695329 37.325275 22.732974 37.354945 22.770492 37.384615 22.807879 37.414286 22.845131 37.443956 22.882243 37.473626 22.919213 37.503297 22.956036 37.532967 22.992707 37.562637 23.029225 37.592308 23.065583 37.621978 23.101779 37.651648 23.137808 37.681319 23.173666 37.710989 23.209351 37.740659 23.244856 37.770330 23.280180 37.800000 23.315317 37.829670 23.350264 37.859341 23.385016 37.889011 23.419571 37.918681 23.453923 37.948352 23.488070 37.978022 23.522007 38.007692 23.555730 38.037363 23.589235 38.067033 23.622518 38.096703 23.655576 38.126374 23.688404 38.156044 23.720998 38.185714 23.753355 38.215385 23.785471 38.245055 23.817341 38.274725 23.848962 38.304396 23.880330 38.334066 23.911440 38.363736 23.942290 38.393407 23.972874 38.423077 24.003189 38.452747 24.033232 38.482418 24.062998 38.512088 24.092482 38.541758 24.121682 38.571429 24.150594 38.601099 24.179213 38.630769 24.207535 38.660440 24.235557 38.690110 24.263274 38.719780 24.290683 38.749451 24.317780 38.779121 24.344560 38.808791 24.371020 38.838462 24.397156 38.868132 24.422964 38.897802 24.448440 38.927473 24.473580 38.957143 24.498381 38.986813 24.522837 39.016484 24.546946 39.046154 24.570703 39.075824 24.594104 39.105495 24.617146 39.135165 24.639824 39.164835 24.662135 39.194505 24.684076 39.224176 24.705647 39.253846 24.726852 39.283516 24.747693 39.313187 24.768171 39.342857 24.788290 39.372527 24.808051 39.402198 24.827457 39.431868 24.846511 39.461538 24.865214 39.491209 24.883569 39.520879 24.901578 39.550549 24.919244 39.580220 24.936569 39.609890 24.953555 39.639560 24.970205 39.669231 24.986521 39.698901 25.002505 39.728571 25.018159 39.758242 25.033487 39.787912 25.048490 39.817582 25.063170 39.847253 25.077531 39.876923 25.091573 39.906593 25.105300 39.936264 25.118715 39.965934 25.131818 39.995604 25.144613 40.025275 25.157102 40.054945 25.169287 40.084615 25.181171 40.114286 25.192756 40.143956 25.204044 40.173626 25.215038 40.203297 25.225739 40.232967 25.236151 40.262637 25.246275 40.292308 25.256115 40.321978 25.265671 40.351648 25.274948 40.381319 25.283946 40.410989 25.292668 40.440659 25.301117 40.470330 25.309295 40.500000 25.317204 40.529670 25.324847 40.559341 25.332225 40.589011 25.339342 40.618681 25.346200 40.648352 25.352800 40.678022 25.359145 40.707692 25.365239 40.737363 25.371082 40.767033 25.376677 40.796703 25.382027 40.826374 25.387134 40.856044 25.392000 40.885714 25.396627 40.915385 25.401019 40.945055 25.405177 40.974725 25.409103 41.004396 25.412800 41.034066 25.416271 41.063736 25.419517 41.093407 25.422541 41.123077 25.425345 41.152747 25.427932 41.182418 25.430303 41.212088 25.432462 41.241758 25.434410 41.271429 25.436151 41.301099 25.437685 41.330769 25.439016 41.360440 25.440146 41.390110 25.441078 41.419780 25.441812 41.449451 25.442353 41.479121 25.442702 41.508791 25.442861 41.538462 25.442834 41.568132 25.442621 41.597802 25.442226 41.627473 25.441651 41.657143 25.440898 41.686813 25.439970 41.716484 25.438869 41.746154 25.437597 41.775824 25.436156 41.805495 25.434549 41.835165 25.432779 41.864835 25.430847 41.894505 25.428756 41.924176 25.426508 41.953846 25.424105 41.983516 25.421551 42.013187 25.418847 42.042857 25.415995 42.072527 25.412998 42.102198 25.409858 42.131868 25.406578 42.161538 25.403160 42.191209 25.399606 42.220879 25.395918 42.250549 25.392100 42.280220 25.388152 42.309890 25.384078 42.339560 25.379880 42.369231 25.375560 42.398901 25.371121 42.428571 25.366564 42.458242 25.361893 42.487912 25.357109 42.517582 25.352215 42.547253 25.347213 42.576923 25.342106 42.606593 25.336896 42.636264 25.331584 42.665934 25.326175 42.695604 25.320669 42.725275 25.315069 42.754945 25.309378 42.784615 25.303598 42.814286 25.297731 42.843956 25.291779 42.873626 25.285745 42.903297 25.279632 42.932967 25.273441 42.962637 25.267175 42.992308 25.260836 43.021978 25.254426 43.051648 25.247948 43.081319 25.241405 43.110989 25.234798 43.140659 25.228130 43.170330 25.221403 43.200000 25.214619 43.229670 25.207782 43.259341 25.200892 43.289011 25.193953 43.318681 25.186967 43.348352 25.179936 43.378022 25.172862 43.407692 25.165749 43.437363 25.158597 43.467033 25.151410 43.496703 25.144190 43.526374 25.136939 43.556044 25.129659 43.585714 25.122354 43.615385 25.115024 43.645055 25.107673 43.674725 25.100303 43.704396 25.092916 43.734066 25.085514 43.763736 25.078100 43.793407 25.070677 43.823077 25.063245 43.852747 25.055809 43.882418 25.048370 43.912088 25.040930 43.941758 25.033492 43.971429 25.026058 44.001099 25.018631 44.030769 25.011213 44.060440 25.003805 44.090110 24.996412 44.119780 24.989033 44.149451 24.981674 44.179121 24.974334 44.208791 24.967018 44.238462 24.959726 44.268132 24.952462 44.297802 24.945228 44.327473 24.938026 44.357143 24.930858 44.386813 24.923727 44.416484 24.916636 44.446154 24.909585 44.475824 24.902579 44.505495 24.895619 44.535165 24.888707 44.564835 24.881846 44.594505 24.875038 44.624176 24.868285 44.653846 24.861591 44.683516 24.854956 44.713187 24.848384 44.742857 24.841877 44.772527 24.835437 44.802198 24.829066 44.831868 24.822767 44.861538 24.816542 44.891209 24.810394 44.920879 24.804324 44.950549 24.798336 44.980220 24.792431 45.009890 24.786611 45.039560 24.780880 45.069231 24.775240 45.098901 24.769692 45.128571 24.764239 45.158242 24.758884 45.187912 24.753628 45.217582 24.748475 45.247253 24.743426 45.276923 24.738483 45.306593 24.733650 45.336264 24.728928 45.365934 24.724320 45.395604 24.719829 45.425275 24.715455 45.454945 24.711203 45.484615 24.707073 45.514286 24.703069 45.543956 24.699193 45.573626 24.695446 45.603297 24.691833 45.632967 24.688354 45.662637 24.685012 45.692308 24.681809 45.721978 24.678748 45.751648 24.675832 45.781319 24.673061 45.810989 24.670440 45.840659 24.667969 45.870330 24.665652 45.900000 24.663491 45.929670 24.661488 45.959341 24.659645 45.989011 24.657965 46.018681 24.656450 46.048352 24.655103 46.078022 24.653925 46.107692 24.652920 46.137363 24.652088 46.167033 24.651434 46.196703 24.650958 46.226374 24.650664 46.256044 24.650554 46.285714 24.650630 46.315385 24.650894 46.345055 24.651349 46.374725 24.651997 46.404396 24.652841 46.434066 24.653882 46.463736 24.655123 46.493407 24.656567 46.523077 24.658215 46.552747 24.660070 46.582418 24.662135 46.612088 24.664411 46.641758 24.666897 46.671429 24.669593 46.701099 24.672495 46.730769 24.675604 46.760440 24.678917 46.790110 24.682433 46.819780 24.686151 46.849451 24.690070 46.879121 24.694187 46.908791 24.698502 46.938462 24.703013 46.968132 24.707718 46.997802 24.712616 47.027473 24.717707 47.057143 24.722987 47.086813 24.728457 47.116484 24.734114 47.146154 24.739957 47.175824 24.745984 47.205495 24.752195 47.235165 24.758587 47.264835 24.765160 47.294505 24.771912 47.324176 24.778841 47.353846 24.785946 47.383516 24.793226 47.413187 24.800679 47.442857 24.808304 47.472527 24.816099 47.502198 24.824063 47.531868 24.832194 47.561538 24.840492 47.591209 24.848954 47.620879 24.857579 47.650549 24.866366 47.680220 24.875313 47.709890 24.884419 47.739560 24.893683 47.769231 24.903103 47.798901 24.912677 47.828571 24.922405 47.858242 24.932284 47.887912 24.942314 47.917582 24.952492 47.947253 24.962818 47.976923 24.973290 48.006593 24.983907 48.036264 24.994667 48.065934 25.005569 48.095604 25.016611 48.125275 25.027791 48.154945 25.039110 48.184615 25.050564 48.214286 25.062153 48.243956 25.073876 48.273626 25.085730 48.303297 25.097714 48.332967 25.109827 48.362637 25.122068 48.392308 25.134435 48.421978 25.146926 48.451648 25.159541 48.481319 25.172277 48.510989 25.185134 48.540659 25.198110 48.570330 25.211203 48.600000 25.224412 48.629670 25.237736 48.659341 25.251173 48.689011 25.264722 48.718681 25.278381 48.748352 25.292150 48.778022 25.306025 48.807692 25.320007 48.837363 25.334093 48.867033 25.348283 48.896703 25.362574 48.926374 25.376966 48.956044 25.391457 48.985714 25.406045 49.015385 25.420729 49.045055 25.435508 49.074725 25.450380 49.104396 25.465344 49.134066 25.480398 49.163736 25.495541 49.193407 25.510772 49.223077 25.526089 49.252747 25.541490 49.282418 25.556975 49.312088 25.572541 49.341758 25.588188 49.371429 25.603914 49.401099 25.619717 49.430769 25.635596 49.460440 25.651550 49.490110 25.667577 49.519780 25.683676 49.549451 25.699846 49.579121 25.716084 49.608791 25.732390 49.638462 25.748762 49.668132 25.765198 49.697802 25.781698 49.727473 25.798260 49.757143 25.814882 49.786813 25.831563 49.816484 25.848301 49.846154 25.865096 49.875824 25.881945 49.905495 25.898847 49.935165 25.915801 49.964835 25.932806 49.994505 25.949860 50.024176 25.966961 50.053846 25.984108 50.083516 26.001300 50.113187 26.018535 50.142857 26.035812 50.172527 26.053129 50.202198 26.070486 50.231868 26.087879 50.261538 26.105309 50.291209 26.122774 50.320879 26.140272 50.350549 26.157801 50.380220 26.175361 50.409890 26.192950 50.439560 26.210567 50.469231 26.228209 50.498901 26.245877 50.528571 26.263567 50.558242 26.281280 50.587912 26.299012 50.617582 26.316764 50.647253 26.334534 50.676923 26.352319 50.706593 26.370119 50.736264 26.387932 50.765934 26.405757 50.795604 26.423593 50.825275 26.441438 50.854945 26.459290 50.884615 26.477148 50.914286 26.495011 50.943956 26.512877 50.973626 26.530745 51.003297 26.548613 51.032967 26.566481 51.062637 26.584346 51.092308 26.602207 51.121978 26.620062 51.151648 26.637911 51.181319 26.655752 51.210989 26.673583 51.240659 26.691404 51.270330 26.709211 51.300000 26.727005 51.329670 26.744784 51.359341 26.762546 51.389011 26.780289 51.418681 26.798013 51.448352 26.815717 51.478022 26.833397 51.507692 26.851054 51.537363 26.868685 51.567033 26.886290 51.596703 26.903867 51.626374 26.921414 51.656044 26.938930 51.685714 26.956414 51.715385 26.973863 51.745055 26.991278 51.774725 27.008655 51.804396 27.025995 51.834066 27.043295 51.863736 27.060554 51.893407 27.077770 51.923077 27.094943 51.952747 27.112071 51.982418 27.129151 52.012088 27.146184 52.041758 27.163167 52.071429 27.180099 52.101099 27.196978 52.130769 27.213804 52.160440 27.230574 52.190110 27.247288 52.219780 27.263944 52.249451 27.280540 52.279121 27.297075 52.308791 27.313547 52.338462 27.329956 52.368132 27.346299 52.397802 27.362576 52.427473 27.378785 52.457143 27.394924 52.486813 27.410992 52.516484 27.426987 52.546154 27.442909 52.575824 27.458756 52.605495 27.474525 52.635165 27.490217 52.664835 27.505829 52.694505 27.521360 52.724176 27.536809 52.753846 27.552174 52.783516 27.567454 52.813187 27.582647 52.842857 27.597751 52.872527 27.612767 52.902198 27.627691 52.931868 27.642523 52.961538 27.657261 52.991209 27.671903 53.020879 27.686450 53.050549 27.700897 53.080220 27.715246 53.109890 27.729493 53.139560 27.743638 53.169231 27.757679 53.198901 27.771615 53.228571 27.785445 53.258242 27.799166 53.287912 27.812777 53.317582 27.826278 53.347253 27.839666 53.376923 27.852941 53.406593 27.866100 53.436264 27.879142 53.465934 27.892066 53.495604 27.904871 53.525275 27.917555 53.554945 27.930116 53.584615 27.942554 53.614286 27.954866 53.643956 27.967052 53.673626 27.979110 53.703297 27.991038 53.732967 28.002835 53.762637 28.014500 53.792308 28.026030 53.821978 28.037426 53.851648 28.048685 53.881319 28.059806 53.910989 28.070787 53.940659 28.081628 53.970330 28.092326 54.000000 28.102880 54.029670 28.113289 54.059341 28.123554 54.089011 28.133675 54.118681 28.143653 54.148352 28.153489 54.178022 28.163183 54.207692 28.172736 54.237363 28.182149 54.267033 28.191423 54.296703 28.200559 54.326374 28.209556 54.356044 28.218416 54.385714 28.227140 54.415385 28.235728 54.445055 28.244182 54.474725 28.252501 54.504396 28.260686 54.534066 28.268739 54.563736 28.276660 54.593407 28.284450 54.623077 28.292109 54.652747 28.299639 54.682418 28.307039 54.712088 28.314311 54.741758 28.321456 54.771429 28.328473 54.801099 28.335365 54.830769 28.342131 54.860440 28.348773 54.890110 28.355291 54.919780 28.361685 54.949451 28.367958 54.979121 28.374108 55.008791 28.380138 55.038462 28.386047 55.068132 28.391837 55.097802 28.397508 55.127473 28.403062 55.157143 28.408498 55.186813 28.413817 55.216484 28.419021 55.246154 28.424110 55.275824 28.429084 55.305495 28.433945 55.335165 28.438693 55.364835 28.443329 55.394505 28.447853 55.424176 28.452267 55.453846 28.456571 55.483516 28.460766 55.513187 28.464853 55.542857 28.468832 55.572527 28.472703 55.602198 28.476469 55.631868 28.480129 55.661538 28.483685 55.691209 28.487136 55.720879 28.490485 55.750549 28.493730 55.780220 28.496874 55.809890 28.499917 55.839560 28.502860 55.869231 28.505703 55.898901 28.508447 55.928571 28.511093 55.958242 28.513642 55.987912 28.516094 56.017582 28.518450 56.047253 28.520712 56.076923 28.522878 56.106593 28.524951 56.136264 28.526931 56.165934 28.528819 56.195604 28.530616 56.225275 28.532321 56.254945 28.533937 56.284615 28.535463 56.314286 28.536901 56.343956 28.538251 56.373626 28.539515 56.403297 28.540691 56.432967 28.541783 56.462637 28.542789 56.492308 28.543711 56.521978 28.544550 56.551648 28.545306 56.581319 28.545981 56.610989 28.546574 56.640659 28.547087 56.670330 28.547520 56.700000 28.547874 56.729670 28.548150 56.759341 28.548349 56.789011 28.548470 56.818681 28.548516 56.848352 28.548487 56.878022 28.548383 56.907692 28.548205 56.937363 28.547954 56.967033 28.547631 56.996703 28.547236 57.026374 28.546771 57.056044 28.546235 57.085714 28.545630 57.115385 28.544956 57.145055 28.544215 57.174725 28.543406 57.204396 28.542531 57.234066 28.541590 57.263736 28.540584 57.293407 28.539514 57.323077 28.538381 57.352747 28.537184 57.382418 28.535926 57.412088 28.534607 57.441758 28.533227 57.471429 28.531787 57.501099 28.530288 57.530769 28.528731 57.560440 28.527116 57.590110 28.525445 57.619780 28.523717 57.649451 28.521934 57.679121 28.520096 57.708791 28.518205 57.738462 28.516260 57.768132 28.514263 57.797802 28.512214 57.827473 28.510114 57.857143 28.507964 57.886813 28.505764 57.916484 28.503516 57.946154 28.501220 57.975824 28.498876 58.005495 28.496486 58.035165 28.494050 58.064835 28.491569 58.094505 28.489044 58.124176 28.486475 58.153846 28.483864 58.183516 28.481210 58.213187 28.478515 58.242857 28.475779 58.272527 28.473003 58.302198 28.470188 58.331868 28.467335 58.361538 28.464444 58.391209 28.461516 58.420879 28.458552 58.450549 28.455552 58.480220 28.452518 58.509890 28.449450 58.539560 28.446348 58.569231 28.443214 58.598901 28.440048 58.628571 28.436851 58.658242 28.433623 58.687912 28.430366 58.717582 28.427080 58.747253 28.423766 58.776923 28.420425 58.806593 28.417057 58.836264 28.413663 58.865934 28.410244 58.895604 28.406801 58.925275 28.403333 58.954945 28.399843 58.984615 28.396331 59.014286 28.392797 59.043956 28.389242 59.073626 28.385668 59.103297 28.382074 59.132967 28.378461 59.162637 28.374831 59.192308 28.371184 59.221978 28.367520 59.251648 28.363841 59.281319 28.360147 59.310989 28.356439 59.340659 28.352717 59.370330 28.348983 59.400000 28.345237 59.429670 28.341479 59.459341 28.337712 59.489011 28.333934 59.518681 28.330148 59.548352 28.326353 59.578022 28.322551 59.607692 28.318742 59.637363 28.314927 59.667033 28.311107 59.696703 28.307282 59.726374 28.303454 59.756044 28.299622 59.785714 28.295788 59.815385 28.291953 59.845055 28.288116 59.874725 28.284280 59.904396 28.280444 59.934066 28.276609 59.963736 28.272777 59.993407 28.268947 60.023077 28.265121 60.052747 28.261299 60.082418 28.257482 60.112088 28.253671 60.141758 28.249867 60.171429 28.246070 60.201099 28.242280 60.230769 28.238500 60.260440 28.234729 60.290110 28.230968 60.319780 28.227218 60.349451 28.223479 60.379121 28.219753 60.408791 28.216041 60.438462 28.212342 60.468132 28.208657 60.497802 28.204988 60.527473 28.201335 60.557143 28.197699 60.586813 28.194081 60.616484 28.190480 60.646154 28.186899 60.675824 28.183338 60.705495 28.179797 60.735165 28.176277 60.764835 28.172779 60.794505 28.169304 60.824176 28.165853 60.853846 28.162425 60.883516 28.159023 60.913187 28.155646 60.942857 28.152296 60.972527 28.148972 61.002198 28.145677 61.031868 28.142410 61.061538 28.139173 61.091209 28.135965 61.120879 28.132789 61.150549 28.129644 61.180220 28.126531 61.209890 28.123451 61.239560 28.120405 61.269231 28.117394 61.298901 28.114418 61.328571 28.111477 61.358242 28.108574 61.387912 28.105708 61.417582 28.102880 61.447253 28.100091 61.476923 28.097340 61.506593 28.094628 61.536264 28.091955 61.565934 28.089319 61.595604 28.086722 61.625275 28.084162 61.654945 28.081640 61.684615 28.079155 61.714286 28.076707 61.743956 28.074296 61.773626 28.071922 61.803297 28.069584 61.832967 28.067283 61.862637 28.065018 61.892308 28.062789 61.921978 28.060596 61.951648 28.058438 61.981319 28.056315 62.010989 28.054228 62.040659 28.052176 62.070330 28.050158 62.100000 28.048176 62.129670 28.046227 62.159341 28.044313 62.189011 28.042432 62.218681 28.040586 62.248352 28.038773 62.278022 28.036993 62.307692 28.035247 62.337363 28.033533 62.367033 28.031852 62.396703 28.030204 62.426374 28.028589 62.456044 28.027005 62.485714 28.025454 62.515385 28.023934 62.545055 28.022446 62.574725 28.020990 62.604396 28.019564 62.634066 28.018170 62.663736 28.016807 62.693407 28.015474 62.723077 28.014171 62.752747 28.012899 62.782418 28.011657 62.812088 28.010444 62.841758 28.009262 62.871429 28.008108 62.901099 28.006984 62.930769 28.005889 62.960440 28.004823 62.990110 28.003786 63.019780 28.002777 63.049451 28.001796 63.079121 28.000843 63.108791 27.999919 63.138462 27.999021 63.168132 27.998152 63.197802 27.997309 63.227473 27.996494 63.257143 27.995705 63.286813 27.994944 63.316484 27.994208 63.346154 27.993499 63.375824 27.992816 63.405495 27.992159 63.435165 27.991528 63.464835 27.990922 63.494505 27.990342 63.524176 27.989786 63.553846 27.989256 63.583516 27.988750 63.613187 27.988268 63.642857 27.987811 63.672527 27.987378 63.702198 27.986969 63.731868 27.986584 63.761538 27.986222 63.791209 27.985884 63.820879 27.985569 63.850549 27.985276 63.880220 27.985007 63.909890 27.984759 63.939560 27.984535 63.969231 27.984332 63.998901 27.984151 64.028571 27.983992 64.058242 27.983855 64.087912 27.983739 64.117582 27.983644 64.147253 27.983570 64.176923 27.983517 64.206593 27.983484 64.236264 27.983472 64.265934 27.983480 64.295604 27.983508 64.325275 27.983555 64.354945 27.983623 64.384615 27.983709 64.414286 27.983815 64.443956 27.983940 64.473626 27.984083 64.503297 27.984245 64.532967 27.984426 64.562637 27.984624 64.592308 27.984841 64.621978 27.985076 64.651648 27.985328 64.681319 27.985597 64.710989 27.985884 64.740659 27.986188 64.770330 27.986508 64.800000 27.986845 64.829670 27.987199 64.859341 27.987569 64.889011 27.987954 64.918681 27.988356 64.948352 27.988773 64.978022 27.989206 65.007692 27.989654 65.037363 27.990117 65.067033 27.990595 65.096703 27.991087 65.126374 27.991594 65.156044 27.992115 65.185714 27.992650 65.215385 27.993199 65.245055 27.993762 65.274725 27.994338 65.304396 27.994927 65.334066 27.995530 65.363736 27.996145 65.393407 27.996773 65.423077 27.997413 65.452747 27.998066 65.482418 27.998731 65.512088 27.999407 65.541758 28.000096 65.571429 28.000795 65.601099 28.001507 65.630769 28.002229 65.660440 28.002962 65.690110 28.003706 65.719780 28.004460 65.749451 28.005224 65.779121 28.005999 65.808791 28.006783 65.838462 28.007578 65.868132 28.008381 65.897802 28.009195 65.927473 28.010017 65.957143 28.010848 65.986813 28.011688 66.016484 28.012536 66.046154 28.013393 66.075824 28.014257 66.105495 28.015130 66.135165 28.016011 66.164835 28.016898 66.194505 28.017794 66.224176 28.018696 66.253846 28.019606 66.283516 28.020522 66.313187 28.021444 66.342857 28.022373 66.372527 28.023309 66.402198 28.024250 66.431868 28.025197 66.461538 28.026149 66.491209 28.027107 66.520879 28.028070 66.550549 28.029038 66.580220 28.030011 66.609890 28.030988 66.639560 28.031970 66.669231 28.032955 66.698901 28.033945 66.728571 28.034939 66.758242 28.035936 66.787912 28.036937 66.817582 28.037940 66.847253 28.038947 66.876923 28.039957 66.906593 28.040969 66.936264 28.041984 66.965934 28.043000 66.995604 28.044019 67.025275 28.045040 67.054945 28.046062 67.084615 28.047085 67.114286 28.048110 67.143956 28.049136 67.173626 28.050163 67.203297 28.051190 67.232967 28.052218 67.262637 28.053246 67.292308 28.054274 67.321978 28.055302 67.351648 28.056329 67.381319 28.057356 67.410989 28.058382 67.440659 28.059407 67.470330 28.060431 67.500000 28.061454 67.529670 28.062475 67.559341 28.063495 67.589011 28.064512 67.618681 28.065528 67.648352 28.066541 67.678022 28.067551 67.707692 28.068559 67.737363 28.069564 67.767033 28.070565 67.796703 28.071564 67.826374 28.072558 67.856044 28.073550 67.885714 28.074537 67.915385 28.075520 67.945055 28.076499 67.974725 28.077473 68.004396 28.078443 68.034066 28.079407 68.063736 28.080367 68.093407 28.081321 68.123077 28.082270 68.152747 28.083213 68.182418 28.084150 68.212088 28.085081 68.241758 28.086006 68.271429 28.086925 68.301099 28.087836 68.330769 28.088741 68.360440 28.089639 68.390110 28.090529 68.419780 28.091412 68.449451 28.092288 68.479121 28.093155 68.508791 28.094015 68.538462 28.094866 68.568132 28.095708 68.597802 28.096543 68.627473 28.097368 68.657143 28.098184 68.686813 28.098991 68.716484 28.099788 68.746154 28.100576 68.775824 28.101354 68.805495 28.102122 68.835165 28.102880 68.864835 28.103627 68.894505 28.104364 68.924176 28.105091 68.953846 28.105807 68.983516 28.106513 69.013187 28.107209 69.042857 28.107895 69.072527 28.108571 69.102198 28.109237 69.131868 28.109893 69.161538 28.110539 69.191209 28.111175 69.220879 28.111801 69.250549 28.112418 69.280220 28.113025 69.309890 28.113622 69.339560 28.114210 69.369231 28.114788 69.398901 28.115357 69.428571 28.115916 69.458242 28.116466 69.487912 28.117007 69.517582 28.117538 69.547253 28.118060 69.576923 28.118573 69.606593 28.119077 69.636264 28.119572 69.665934 28.120057 69.695604 28.120534 69.725275 28.121002 69.754945 28.121461 69.784615 28.121912 69.814286 28.122353 69.843956 28.122786 69.873626 28.123210 69.903297 28.123626 69.932967 28.124033 69.962637 28.124432 69.992308 28.124822 70.021978 28.125204 70.051648 28.125578 70.081319 28.125943 70.110989 28.126300 70.140659 28.126649 70.170330 28.126990 70.200000 28.127323 70.229670 28.127648 70.259341 28.127965 70.289011 28.128274 70.318681 28.128575 70.348352 28.128868 70.378022 28.129154 70.407692 28.129432 70.437363 28.129702 70.467033 28.129965 70.496703 28.130221 70.526374 28.130468 70.556044 28.130709 70.585714 28.130942 70.615385 28.131167 70.645055 28.131386 70.674725 28.131597 70.704396 28.131801 70.734066 28.131998 70.763736 28.132188 70.793407 28.132371 70.823077 28.132547 70.852747 28.132717 70.882418 28.132879 70.912088 28.133034 70.941758 28.133183 70.971429 28.133325 71.001099 28.133461 71.030769 28.133590 71.060440 28.133712 71.090110 28.133828 71.119780 28.133938 71.149451 28.134041 71.179121 28.134138 71.208791 28.134229 71.238462 28.134313 71.268132 28.134392 71.297802 28.134464 71.327473 28.134530 71.357143 28.134590 71.386813 28.134645 71.416484 28.134693 71.446154 28.134736 71.475824 28.134773 71.505495 28.134804 71.535165 28.134829 71.564835 28.134849 71.594505 28.134863 71.624176 28.134872 71.653846 28.134875 71.683516 28.134873 71.713187 28.134866 71.742857 28.134853 71.772527 28.134835 71.802198 28.134812 71.831868 28.134783 71.861538 28.134750 71.891209 28.134711 71.920879 28.134668 71.950549 28.134620 71.980220 28.134566 72.009890 28.134508 72.039560 28.134446 72.069231 28.134378 72.098901 28.134306 72.128571 28.134229 72.158242 28.134148 72.187912 28.134062 72.217582 28.133971 72.247253 28.133877 72.276923 28.133778 72.306593 28.133674 72.336264 28.133567 72.365934 28.133455 72.395604 28.133339 72.425275 28.133219 72.454945 28.133095 72.484615 28.132967 72.514286 28.132835 72.543956 28.132699 72.573626 28.132559 72.603297 28.132416 72.632967 28.132269 72.662637 28.132118 72.692308 28.131964 72.721978 28.131806 72.751648 28.131644 72.781319 28.131480 72.810989 28.131311 72.840659 28.131140 72.870330 28.130965 72.900000 28.130787 72.929670 28.130605 72.959341 28.130421 72.989011 28.130233 73.018681 28.130043 73.048352 28.129849 73.078022 28.129653 73.107692 28.129454 73.137363 28.129252 73.167033 28.129047 73.196703 28.128839 73.226374 28.128629 73.256044 28.128416 73.285714 28.128201 73.315385 28.127983 73.345055 28.127763 73.374725 28.127540 73.404396 28.127315 73.434066 28.127088 73.463736 28.126858 73.493407 28.126626 73.523077 28.126393 73.552747 28.126157 73.582418 28.125919 73.612088 28.125679 73.641758 28.125437 73.671429 28.125193 73.701099 28.124948 73.730769 28.124701 73.760440 28.124452 73.790110 28.124201 73.819780 28.123949 73.849451 28.123695 73.879121 28.123440 73.908791 28.123183 73.938462 28.122925 73.968132 28.122666 73.997802 28.122405 74.027473 28.122143 74.057143 28.121880 74.086813 28.121616 74.116484 28.121351 74.146154 28.121085 74.175824 28.120818 74.205495 28.120549 74.235165 28.120280 74.264835 28.120011 74.294505 28.119740 74.324176 28.119469 74.353846 28.119197 74.383516 28.118925 74.413187 28.118652 74.442857 28.118378 74.472527 28.118104 74.502198 28.117830 74.531868 28.117555 74.561538 28.117281 74.591209 28.117005 74.620879 28.116730 74.650549 28.116455 74.680220 28.116179 74.709890 28.115904 74.739560 28.115629 74.769231 28.115353 74.798901 28.115078 74.828571 28.114803 74.858242 28.114528 74.887912 28.114254 74.917582 28.113980 74.947253 28.113706 74.976923 28.113433 75.006593 28.113161 75.036264 28.112888 75.065934 28.112617 75.095604 28.112346 75.125275 28.112076 75.154945 28.111807 75.184615 28.111539 75.214286 28.111271 75.243956 28.111005 75.273626 28.110739 75.303297 28.110474 75.332967 28.110211 75.362637 28.109949 75.392308 28.109688 75.421978 28.109428 75.451648 28.109169 75.481319 28.108912 75.510989 28.108657 75.540659 28.108402 75.570330 28.108150 75.600000 28.107898 75.629670 28.107649 75.659341 28.107401 75.689011 28.107155 75.718681 28.106911 75.748352 28.106668 75.778022 28.106428 75.807692 28.106189 75.837363 28.105953 75.867033 28.105718 75.896703 28.105486 75.926374 28.105255 75.956044 28.105027 75.985714 28.104801 76.015385 28.104578 76.045055 28.104357 76.074725 28.104138 76.104396 28.103922 76.134066 28.103708 76.163736 28.103497 76.193407 28.103289 76.223077 28.103083 76.252747 28.102880 76.282418 28.102680 76.312088 28.102482 76.341758 28.102287 76.371429 28.102095 76.401099 28.101906 76.430769 28.101720 76.460440 28.101536 76.490110 28.101355 76.519780 28.101176 76.549451 28.101001 76.579121 28.100828 76.608791 28.100657 76.638462 28.100489 76.668132 28.100324 76.697802 28.100161 76.727473 28.100001 76.757143 28.099844 76.786813 28.099689 76.816484 28.099537 76.846154 28.099387 76.875824 28.099239 76.905495 28.099094 76.935165 28.098952 76.964835 28.098812 76.994505 28.098675 77.024176 28.098540 77.053846 28.098407 77.083516 28.098277 77.113187 28.098149 77.142857 28.098024 77.172527 28.097901 77.202198 28.097780 77.231868 28.097662 77.261538 28.097546 77.291209 28.097432 77.320879 28.097321 77.350549 28.097212 77.380220 28.097105 77.409890 28.097000 77.439560 28.096898 77.469231 28.096798 77.498901 28.096700 77.528571 28.096604 77.558242 28.096511 77.587912 28.096419 77.617582 28.096330 77.647253 28.096243 77.676923 28.096158 77.706593 28.096075 77.736264 28.095995 77.765934 28.095916 77.795604 28.095839 77.825275 28.095765 77.854945 28.095692 77.884615 28.095622 77.914286 28.095554 77.943956 28.095487 77.973626 28.095423 78.003297 28.095360 78.032967 28.095300 78.062637 28.095241 78.092308 28.095185 78.121978 28.095130 78.151648 28.095077 78.181319 28.095026 78.210989 28.094977 78.240659 28.094930 78.270330 28.094885 78.300000 28.094841 78.329670 28.094799 78.359341 28.094760 78.389011 28.094721 78.418681 28.094685 78.448352 28.094651 78.478022 28.094618 78.507692 28.094587 78.537363 28.094557 78.567033 28.094530 78.596703 28.094504 78.626374 28.094479 78.656044 28.094457 78.685714 28.094436 78.715385 28.094416 78.745055 28.094399 78.774725 28.094382 78.804396 28.094368 78.834066 28.094355 78.863736 28.094343 78.893407 28.094334 78.923077 28.094325 78.952747 28.094318 78.982418 28.094313 79.012088 28.094309 79.041758 28.094307 79.071429 28.094306 79.101099 28.094307 79.130769 28.094309 79.160440 28.094312 79.190110 28.094317 79.219780 28.094323 79.249451 28.094331 79.279121 28.094340 79.308791 28.094350 79.338462 28.094362 79.368132 28.094375 79.397802 28.094389 79.427473 28.094404 79.457143 28.094421 79.486813 28.094439 79.516484 28.094459 79.546154 28.094479 79.575824 28.094501 79.605495 28.094524 79.635165 28.094548 79.664835 28.094574 79.694505 28.094600 79.724176 28.094628 79.753846 28.094657 79.783516 28.094687 79.813187 28.094718 79.842857 28.094750 79.872527 28.094783 79.902198 28.094817 79.931868 28.094853 79.961538 28.094889 79.991209 28.094926 80.020879 28.094965 80.050549 28.095004 80.080220 28.095045 80.109890 28.095086 80.139560 28.095128 80.169231 28.095172 80.198901 28.095216 80.228571 28.095261 80.258242 28.095307 80.287912 28.095354 80.317582 28.095401 80.347253 28.095450 80.376923 28.095499 80.406593 28.095550 80.436264 28.095601 80.465934 28.095653 80.495604 28.095705 80.525275 28.095759 80.554945 28.095813 80.584615 28.095868 80.614286 28.095923 80.643956 28.095980 80.673626 28.096037 80.703297 28.096094 80.732967 28.096153 80.762637 28.096212 80.792308 28.096271 80.821978 28.096332 80.851648 28.096393 80.881319 28.096454 80.910989 28.096516 80.940659 28.096579 80.970330 28.096642 81.000000 28.096706 81.029670 28.096770 81.059341 28.096835 81.089011 28.096900 81.118681 28.096966 81.148352 28.097032 81.178022 28.097099 81.207692 28.097166 81.237363 28.097234 81.267033 28.097302 81.296703 28.097370 81.326374 28.097439 81.356044 28.097508 81.385714 28.097577 81.415385 28.097647 81.445055 28.097717 81.474725 28.097788 81.504396 28.097859 81.534066 28.097930 81.563736 28.098001 81.593407 28.098073 81.623077 28.098145 81.652747 28.098217 81.682418 28.098289 81.712088 28.098361 81.741758 28.098434 81.771429 28.098507 81.801099 28.098580 81.830769 28.098653 81.860440 28.098726 81.890110 28.098800 81.919780 28.098873 81.949451 28.098947 81.979121 28.099020 82.008791 28.099094 82.038462 28.099168 82.068132 28.099242 82.097802 28.099316 82.127473 28.099389 82.157143 28.099463 82.186813 28.099537 82.216484 28.099611 82.246154 28.099684 82.275824 28.099758 82.305495 28.099832 82.335165 28.099905 82.364835 28.099978 82.394505 28.100051 82.424176 28.100125 82.453846 28.100197 82.483516 28.100270 82.513187 28.100343 82.542857 28.100415 82.572527 28.100487 82.602198 28.100559 82.631868 28.100631 82.661538 28.100702 82.691209 28.100774 82.720879 28.100844 82.750549 28.100915 82.780220 28.100985 82.809890 28.101055 82.839560 28.101125 82.869231 28.101194 82.898901 28.101263 82.928571 28.101332 82.958242 28.101400 82.987912 28.101467 83.017582 28.101535 83.047253 28.101602 83.076923 28.101668 83.106593 28.101734 83.136264 28.101799 83.165934 28.101864 83.195604 28.101929 83.225275 28.101993 83.254945 28.102056 83.284615 28.102119 83.314286 28.102181 83.343956 28.102243 83.373626 28.102304 83.403297 28.102365 83.432967 28.102425 83.462637 28.102484 83.492308 28.102543 83.521978 28.102601 83.551648 28.102658 83.581319 28.102714 83.610989 28.102770 83.640659 28.102825 83.670330 28.102880 83.700000 28.102933 83.729670 28.102983 83.759341 28.103027 83.789011 28.103062 83.818681 28.103086 83.848352 28.103096 83.878022 28.103089 83.907692 28.103063 83.937363 28.103015 83.967033 28.102943 83.996703 28.102844 84.026374 28.102715 84.056044 28.102553 84.085714 28.102356 84.115385 28.102122 84.145055 28.101848 84.174725 28.101530 84.204396 28.101167 84.234066 28.100755 84.263736 28.100293 84.293407 28.099777 84.323077 28.099205 84.352747 28.098574 84.382418 28.097882 84.412088 28.097126 84.441758 28.096303 84.471429 28.095410 84.501099 28.094446 84.530769 28.093407 84.560440 28.092290 84.590110 28.091094 84.619780 28.089815 84.649451 28.088452 84.679121 28.087000 84.708791 28.085458 84.738462 28.083822 84.768132 28.082091 84.797802 28.080262 84.827473 28.078331 84.857143 28.076297 84.886813 28.074157 84.916484 28.071907 84.946154 28.069546 84.975824 28.067071 85.005495 28.064479 85.035165 28.061768 85.064835 28.058934 85.094505 28.055976 85.124176 28.052890 85.153846 28.049674 85.183516 28.046325 85.213187 28.042842 85.242857 28.039220 85.272527 28.035457 85.302198 28.031552 85.331868 28.027500 85.361538 28.023300 85.391209 28.018949 85.420879 28.014444 85.450549 28.009783 85.480220 28.004962 85.509890 27.999980 85.539560 27.994833 85.569231 27.989520 85.598901 27.984037 85.628571 27.978381 85.658242 27.972551 85.687912 27.966543 85.717582 27.960355 85.747253 27.953984 85.776923 27.947428 85.806593 27.940683 85.836264 27.933748 85.865934 27.926620 85.895604 27.919295 85.925275 27.911772 85.954945 27.904048 85.984615 27.896119 86.014286 27.887984 86.043956 27.879640 86.073626 27.871084 86.103297 27.862313 86.132967 27.853326 86.162637 27.844118 86.192308 27.834689 86.221978 27.825034 86.251648 27.815151 86.281319 27.805039 86.310989 27.794693 86.340659 27.784111 86.370330 27.773292 86.400000 27.762231 86.429670 27.750927 86.459341 27.739377 86.489011 27.727578 86.518681 27.715528 86.548352 27.703224 86.578022 27.690662 86.607692 27.677842 86.637363 27.664760 86.667033 27.651413 86.696703 27.637798 86.726374 27.623914 86.756044 27.609757 86.785714 27.595325 86.815385 27.580616 86.845055 27.565626 86.874725 27.550352 86.904396 27.534793 86.934066 27.518946 86.963736 27.502808 86.993407 27.486376 87.023077 27.469647 87.052747 27.452620 87.082418 27.435291 87.112088 27.417659 87.141758 27.399719 87.171429 27.381469 87.201099 27.362908 87.230769 27.344032 87.260440 27.324838 87.290110 27.305325 87.319780 27.285489 87.349451 27.265327 87.379121 27.244838 87.408791 27.224017 87.438462 27.202864 87.468132 27.181375 87.497802 27.159547 87.527473 27.137379 87.557143 27.114866 87.586813 27.092007 87.616484 27.068799 87.646154 27.045239 87.675824 27.021325 87.705495 26.997054 87.735165 26.972423 87.764835 26.947430 87.794505 26.922073 87.824176 26.896347 87.853846 26.870252 87.883516 26.843783 87.913187 26.816940 87.942857 26.789718 87.972527 26.762115 88.002198 26.734129 88.031868 26.705757 88.061538 26.676997 88.091209 26.647845 88.120879 26.618299 88.150549 26.588357 88.180220 26.558015 88.209890 26.527272 88.239560 26.496124 88.269231 26.464569 88.298901 26.432605 88.328571 26.400228 88.358242 26.367436 88.387912 26.334226 88.417582 26.300596 88.447253 26.266543 88.476923 26.232064 88.506593 26.197158 88.536264 26.161820 88.565934 26.126049 88.595604 26.089842 88.625275 26.053196 88.654945 26.016108 88.684615 25.978577 88.714286 25.940599 88.743956 25.902171 88.773626 25.863292 88.803297 25.823958 88.832967 25.784166 88.862637 25.743915 88.892308 25.703201 88.921978 25.662023 88.951648 25.620376 88.981319 25.578259 89.010989 25.535669 89.040659 25.492603 89.070330 25.449058 89.100000 25.405033 89.129670 25.360524 89.159341 25.315529 89.189011 25.270045 89.218681 25.224070 89.248352 25.177600 89.278022 25.130633 89.307692 25.083167 89.337363 25.035199 89.367033 24.986726 89.396703 24.937746 89.426374 24.888255 89.456044 24.838252 89.485714 24.787734 89.515385 24.736698 89.545055 24.685141 89.574725 24.633061 89.604396 24.580455 89.634066 24.527321 89.663736 24.473656 89.693407 24.419456 89.723077 24.364721 89.752747 24.309446 89.782418 24.253630 89.812088 24.197269 89.841758 24.140362 89.871429 24.082904 89.901099 24.024895 89.930769 23.966331 89.960440 23.907209 89.990110 23.847527 90.019780 23.787282 90.049451 23.726472 90.079121 23.665094 90.108791 23.603145 90.138462 23.540622 90.168132 23.477524 90.197802 23.413847 90.227473 23.349589 90.257143 23.284747 90.286813 23.219318 90.316484 23.153300 90.346154 23.086691 90.375824 23.019486 90.405495 22.951685 90.435165 22.883284 90.464835 22.814281 90.494505 22.744673 90.524176 22.674457 90.553846 22.603630 90.583516 22.532191 90.613187 22.460137 90.642857 22.387464 90.672527 22.314170 90.702198 22.240253 90.731868 22.165709 90.761538 22.090537 90.791209 22.014733 90.820879 21.938296 90.850549 21.861222 90.880220 21.783508 90.909890 21.705153 90.939560 21.626152 90.969231 21.546505 90.998901 21.466208 91.028571 21.385258 91.058242 21.303653 91.087912 21.221391 91.117582 21.138469 91.147253 21.054896 91.176923 20.970677 91.206593 20.885822 91.236264 20.800338 91.265934 20.714234 91.295604 20.627516 91.325275 20.540194 91.354945 20.452275 91.384615 20.363766 91.414286 20.274677 91.443956 20.185014 91.473626 20.094786 91.503297 20.004000 91.532967 19.912665 91.562637 19.820789 91.592308 19.728379 91.621978 19.635443 91.651648 19.541989 91.681319 19.448026 91.710989 19.353561 91.740659 19.258602 91.770330 19.163157 91.800000 19.067233 91.829670 18.970840 91.859341 18.873984 91.889011 18.776674 91.918681 18.678917 91.948352 18.580722 91.978022 18.482097 92.007692 18.383048 92.037363 18.283585 92.067033 18.183716 92.096703 18.083447 92.126374 17.982788 92.156044 17.881745 92.185714 17.780328 92.215385 17.678543 92.245055 17.576399 92.274725 17.473904 92.304396 17.371066 92.334066 17.267892 92.363736 17.164390 92.393407 17.060569 92.423077 16.956436 92.452747 16.852000 92.482418 16.747268 92.512088 16.642247 92.541758 16.536947 92.571429 16.431375 92.601099 16.325539 92.630769 16.219447 92.660440 16.113106 92.690110 16.006525 92.719780 15.899712 92.749451 15.792674 92.779121 15.685419 92.808791 15.577956 92.838462 15.470293 92.868132 15.362436 92.897802 15.254395 92.927473 15.146177 92.957143 15.037790 92.986813 14.929242 93.016484 14.820540 93.046154 14.711694 93.075824 14.602710 93.105495 14.493597 93.135165 14.384362 93.164835 14.275014 93.194505 14.165560 93.224176 14.056009 93.253846 13.946368 93.283516 13.836645 93.313187 13.726849 93.342857 13.616986 93.372527 13.507065 93.402198 13.397095 93.431868 13.287082 93.461538 13.177035 93.491209 13.066961 93.520879 12.956870 93.550549 12.846767 93.580220 12.736663 93.609890 12.626563 93.639560 12.516477 93.669231 12.406412 93.698901 12.296377 93.728571 12.186378 93.758242 12.076425 93.787912 11.966524 93.817582 11.856685 93.847253 11.746914 93.876923 11.637220 93.906593 11.527611 93.936264 11.418094 93.965934 11.308678 93.995604 11.199370 94.025275 11.090178 94.054945 10.981111 94.084615 10.872176 94.114286 10.763381 94.143956 10.654735 94.173626 10.546244 94.203297 10.437917 94.232967 10.329762 94.262637 10.221787 94.292308 10.114000 94.321978 10.006408 94.351648 9.899020 94.381319 9.791843 94.410989 9.684886 94.440659 9.578156 94.470330 9.471661 94.500000 9.365409 94.529670 9.259409 94.559341 9.153668 94.589011 9.048193 94.618681 8.942994 94.648352 8.838077 94.678022 8.733451 94.707692 8.629124 94.737363 8.525103 94.767033 8.421397 94.796703 8.318014 94.826374 8.214960 94.856044 8.112246 94.885714 8.009877 94.915385 7.907862 94.945055 7.806210 94.974725 7.704928 95.004396 7.604023 95.034066 7.503505 95.063736 7.403380 95.093407 7.303657 95.123077 7.204343 95.152747 7.105447 95.182418 7.006977 95.212088 6.908940 95.241758 6.811345 95.271429 6.714198 95.301099 6.617509 95.330769 6.521286 95.360440 6.425535 95.390110 6.330265 95.419780 6.235484 95.449451 6.141200 95.479121 6.047420 95.508791 5.954154 95.538462 5.861408 95.568132 5.769190 95.597802 5.677509 95.627473 5.586373 95.657143 5.495789 95.686813 5.405765 95.716484 5.316309 95.746154 5.227429 95.775824 5.139133 95.805495 5.051430 95.835165 4.964326 95.864835 4.877830 95.894505 4.791949 95.924176 4.706693 95.953846 4.622068 95.983516 4.538082 96.013187 4.454744 96.042857 4.372062 96.072527 4.290042 96.102198 4.208694 96.131868 4.128025 96.161538 4.048043 96.191209 3.968756 96.220879 3.890172 96.250549 3.812299 96.280220 3.735145 96.309890 3.658717 96.339560 3.583024 96.369231 3.508074 96.398901 3.433874 96.428571 3.360432 96.458242 3.287757 96.487912 3.215856 96.517582 3.144737 96.547253 3.074409 96.576923 3.004878 96.606593 2.936153 96.636264 2.868243 96.665934 2.801154 96.695604 2.734895 96.725275 2.669473 96.754945 2.604897 96.784615 2.541175 96.814286 2.478314 96.843956 2.416323 96.873626 2.355209 96.903297 2.294980 96.932967 2.235644 96.962637 2.177210 96.992308 2.119684 97.021978 2.063075 97.051648 2.007391 97.081319 1.952640 97.110989 1.898830 97.140659 1.845969 97.170330 1.794064 97.200000 1.743123 97.229670 1.693155 97.259341 1.644167 97.289011 1.596168 97.318681 1.549164 97.348352 1.503165 97.378022 1.458178 97.407692 1.414211 97.437363 1.371272 97.467033 1.329369 97.496703 1.288509 97.526374 1.248701 97.556044 1.209953 97.585714 1.172273 97.615385 1.135667 97.645055 1.100146 97.674725 1.065715 97.704396 1.032384 97.734066 1.000160 97.763736 0.969051 97.793407 0.939065 97.823077 0.910210 97.852747 0.882494 97.882418 0.855925 97.912088 0.830510 97.941758 0.806259 97.971429 0.783177 98.001099 0.761275 98.030769 0.740559 98.060440 0.721037 98.090110 0.702717 98.119780 0.685608 98.149451 0.669716 98.179121 0.655051 98.208791 0.641620 98.238462 0.629431 98.268132 0.618492 98.297802 0.608810 98.327473 0.600394 98.357143 0.593252 98.386813 0.587391 98.416484 0.582820 98.446154 0.579547 98.475824 0.577578 98.505495 0.576923 98.535165 0.577587 98.564835 0.579567 98.594505 0.582857 98.624176 0.587453 98.653846 0.593349 98.683516 0.600539 98.713187 0.609019 98.742857 0.618784 98.772527 0.629827 98.802198 0.642144 98.831868 0.655729 98.861538 0.670577 98.891209 0.686683 98.920879 0.704042 98.950549 0.722647 98.980220 0.742495 99.009890 0.763579 99.039560 0.785895 99.069231 0.809437 99.098901 0.834199 99.128571 0.860177 99.158242 0.887365 99.187912 0.915758 99.217582 0.945351 99.247253 0.976138 99.276923 1.008115 99.306593 1.041275 99.336264 1.075613 99.365934 1.111125 99.395604 1.147804 99.425275 1.185647 99.454945 1.224647 99.484615 1.264798 99.514286 1.306097 99.543956 1.348537 99.573626 1.392113 99.603297 1.436821 99.632967 1.482653 99.662637 1.529607 99.692308 1.577675 99.721978 1.626853 99.751648 1.677136 99.781319 1.728518 99.810989 1.780994 99.840659 1.834558 99.870330 1.889206 99.900000 1.944932 99.929670 2.001731 99.959341 2.059598 99.989011 2.118526 100.018681 2.178512 100.048352 2.239549 100.078022 2.301633 100.107692 2.364758 100.137363 2.428918 100.167033 2.494109 100.196703 2.560326 100.226374 2.627562 100.256044 2.695813 100.285714 2.765073 100.315385 2.835338 100.345055 2.906601 100.374725 2.978858 100.404396 3.052103 100.434066 3.126331 100.463736 3.201537 100.493407 3.277715 100.523077 3.354860 100.552747 3.432967 100.582418 3.512031 100.612088 3.592046 100.641758 3.673007 100.671429 3.754908 100.701099 3.837745 100.730769 3.921512 100.760440 4.006204 100.790110 4.091816 100.819780 4.178342 100.849451 4.265776 100.879121 4.354115 100.908791 4.443352 100.938462 4.533482 100.968132 4.624499 100.997802 4.716400 101.027473 4.809177 101.057143 4.902827 101.086813 4.997343 101.116484 5.092721 101.146154 5.188955 101.175824 5.286040 101.205495 5.383970 101.235165 5.482741 101.264835 5.582346 101.294505 5.682782 101.324176 5.784042 101.353846 5.886120 101.383516 5.989013 101.413187 6.092714 101.442857 6.197219 101.472527 6.302522 101.502198 6.408617 101.531868 6.515500 101.561538 6.623165 101.591209 6.731606 101.620879 6.840820 101.650549 6.950799 101.680220 7.061540 101.709890 7.173036 101.739560 7.285283 101.769231 7.398275 101.798901 7.512007 101.828571 7.626473 101.858242 7.741669 101.887912 7.857589 101.917582 7.974227 101.947253 8.091579 101.976923 8.209639 102.006593 8.328402 102.036264 8.447863 102.065934 8.568016 102.095604 8.688855 102.125275 8.810377 102.154945 8.932575 102.184615 9.055444 102.214286 9.178979 102.243956 9.303175 102.273626 9.428026 102.303297 9.553527 102.332967 9.679673 102.362637 9.806458 102.392308 9.933878 102.421978 10.061926 102.451648 10.190598 102.481319 10.319888 102.510989 10.449791 102.540659 10.580302 102.570330 10.711416 102.600000 10.843127 102.629670 10.975429 102.659341 11.108318 102.689011 11.241789 102.718681 11.375835 102.748352 11.510453 102.778022 11.645635 102.807692 11.781378 102.837363 11.917676 102.867033 12.054524 102.896703 12.191916 102.926374 12.329846 102.956044 12.468311 102.985714 12.607304 103.015385 12.746820 103.045055 12.886855 103.074725 13.027401 103.104396 13.168456 103.134066 13.310012 103.163736 13.452065 103.193407 13.594609 103.223077 13.737640 103.252747 13.881152 103.282418 14.025139 103.312088 14.169596 103.341758 14.314519 103.371429 14.459901 103.401099 14.605738 103.430769 14.752024 103.460440 14.898754 103.490110 15.045923 103.519780 15.193525 103.549451 15.341555 103.579121 15.490008 103.608791 15.638878 103.638462 15.788161 103.668132 15.937850 103.697802 16.087942 103.727473 16.238429 103.757143 16.389308 103.786813 16.540572 103.816484 16.692217 103.846154 16.844237 103.875824 16.996627 103.905495 17.149382 103.935165 17.302496 103.964835 17.455964 103.994505 17.609781 104.024176 17.763941 104.053846 17.918440 104.083516 18.073271 104.113187 18.228431 104.142857 18.383912 104.172527 18.539711 104.202198 18.695822 104.231868 18.852239 104.261538 19.008957 104.291209 19.165971 104.320879 19.323276 104.350549 19.480866 104.380220 19.638737 104.409890 19.796882 104.439560 19.955296 104.469231 20.113975 104.498901 20.272913 104.528571 20.432105 104.558242 20.591545 104.587912 20.751228 104.617582 20.911149 104.647253 21.071302 104.676923 21.231683 104.706593 21.392285 104.736264 21.553104 104.765934 21.714135 104.795604 21.875372 104.825275 22.036809 104.854945 22.198442 104.884615 22.360266 104.914286 22.522274 104.943956 22.684462 104.973626 22.846825 105.003297 23.009356 105.032967 23.172052 105.062637 23.334905 105.092308 23.497913 105.121978 23.661068 105.151648 23.824366 105.181319 23.987801 105.210989 24.151368 105.240659 24.315062 105.270330 24.478878 105.300000 24.642810 105.329670 24.806853 105.359341 24.971002 105.389011 25.135251 105.418681 25.299595 105.448352 25.464029 105.478022 25.628548 105.507692 25.793145 105.537363 25.957817 105.567033 26.122558 105.596703 26.287362 105.626374 26.452224 105.656044 26.617139 105.685714 26.782102 105.715385 26.947106 105.745055 27.112148 105.774725 27.277222 105.804396 27.442322 105.834066 27.607443 105.863736 27.772580 105.893407 27.937727 105.923077 28.102880" class="line reactive nofill" /></g></g><g class="titles" /><g transform="translate(82, 10)" class="plot overlay"><g class="series serie-0 color-0" /></g><g transform="translate(82, 10)" class="plot text-overlay"><g class="series serie-0 color-0" /></g><g transform="translate(82, 10)" class="plot tooltip-overlay"><g transform="translate(0 0)" style="opacity: 0" class="tooltip"><rect rx="0" ry="0" width="0" height="0" class="tooltip-box" /><g class="text" /></g></g></g></svg>