<?xml version='1.0' encoding='utf-8'?>
<svg xmlns="http://www.w3.org/2000/svg" id="chart-4c0327e6-a4ef-4c93-bcd0-154204085aa9" class="pygal-chart pygal-sparkline" viewBox="0 0 200 50" width="200" height="50"><!--Generated with pygal 3.0.5 (etree) ©Kozea 2012-2016 on 2024-08-25--><!--http://pygal.org--><!--http://github.com/Kozea/pygal--><defs><style type="text/css">#chart-4c0327e6-a4ef-4c93-bcd0-154204085aa9{-webkit-user-select:none;-webkit-font-smoothing:antialiased;font-family:Consolas,"Liberation Mono",Menlo,Courier,monospace}#chart-4c0327e6-a4ef-4c93-bcd0-154204085aa9 .title{font-family:Consolas,"Liberation Mono",Menlo,Courier,monospace;font-size:16px}#chart-4c0327e6-a4ef-4c93-bcd0-154204085aa9 .legends .legend text{font-family:Consolas,"Liberation Mono",Menlo,Courier,monospace;font-size:14px}#chart-4c0327e6-a4ef-4c93-bcd0-154204085aa9 .axis text{font-family:Consolas,"Liberation Mono",Menlo,Courier,monospace;font-size:10px}#chart-4c0327e6-a4ef-4c93-bcd0-154204085aa9 .axis text.major{font-family:Consolas,"Liberation Mono",Menlo,Courier,monospace;font-size:10px}#chart-4c0327e6-a4ef-4c93-bcd0-154204085aa9 .text-overlay text.value{font-family:Consolas,"Liberation Mono",Menlo,Courier,monospace;font-size:16px}#chart-4c0327e6-a4ef-4c93-bcd0-154204085aa9 .text-overlay text.label{font-family:Consolas,"Liberation Mono",Menlo,Courier,monospace;font-size:10px}#chart-4c0327e6-a4ef-4c93-bcd0-154204085aa9 .tooltip{font-family:Consolas,"Liberation Mono",Menlo,Courier,monospace;font-size:14px}#chart-4c0327e6-a4ef-4c93-bcd0-154204085aa9 text.no_data{font-family:Consolas,"Liberation Mono",Menlo,Courier,monospace;font-size:64px}
#chart-4c0327e6-a4ef-4c93-bcd0-154204085aa9{background-color:rgba(249,249,249,1)}#chart-4c0327e6-a4ef-4c93-bcd0-154204085aa9 path,#chart-4c0327e6-a4ef-4c93-bcd0-154204085aa9 line,#chart-4c0327e6-a4ef-4c93-bcd0-154204085aa9 rect,#chart-4c0327e6-a4ef-4c93-bcd0-154204085aa9 circle{-webkit-transition:150ms;-moz-transition:150ms;transition:150ms}#chart-4c0327e6-a4ef-4c93-bcd0-154204085aa9 .graph &gt; .background{fill:rgba(249,249,249,1)}#chart-4c0327e6-a4ef-4c93-bcd0-154204085aa9 .plot &gt; .background{fill:rgba(255,255,255,1)}#chart-4c0327e6-a4ef-4c93-bcd0-154204085aa9 .graph{fill:rgba(0,0,0,.87)}#chart-4c0327e6-a4ef-4c93-bcd0-154204085aa9 text.no_data{fill:rgba(0,0,0,1)}#chart-4c0327e6-a4ef-4c93-bcd0-154204085aa9 .title{fill:rgba(0,0,0,1)}#chart-4c0327e6-a4ef-4c93-bcd0-154204085aa9 .legends .legend text{fill:rgba(0,0,0,.87)}#chart-4c0327e6-a4ef-4c93-bcd0-154204085aa9 .legends .legend:hover text{fill:rgba(0,0,0,1)}#chart-4c0327e6-a4ef-4c93-bcd0-154204085aa9 .axis .line{stroke:rgba(0,0,0,1)}#chart-4c0327e6-a4ef-4c93-bcd0-154204085aa9 .axis .guide.line{stroke:rgba(0,0,0,.54)}#chart-4c0327e6-a4ef-4c93-bcd0-154204085aa9 .axis .major.line{stroke:rgba(0,0,0,.87)}#chart-4c0327e6-a4ef-4c93-bcd0-154204085aa9 .axis text.major{fill:rgba(0,0,0,1)}#chart-4c0327e6-a4ef-4c93-bcd0-154204085aa9 .axis.y .guides:hover .guide.line,#chart-4c0327e6-a4ef-4c93-bcd0-154204085aa9 .line-graph .axis.x .guides:hover .guide.line,#chart-4c0327e6-a4ef-4c93-bcd0-154204085aa9 .stackedline-graph .axis.x .guides:hover .guide.line,#chart-4c0327e6-a4ef-4c93-bcd0-154204085aa9 .xy-graph .axis.x .guides:hover .guide.line{stroke:rgba(0,0,0,1)}#chart-4c0327e6-a4ef-4c93-bcd0-154204085aa9 .axis .guides:hover text{fill:rgba(0,0,0,1)}#chart-4c0327e6-a4ef-4c93-bcd0-154204085aa9 .reactive{fill-opacity:.7;stroke-opacity:.8;stroke-width:1}#chart-4c0327e6-a4ef-4c93-bcd0-154204085aa9 .ci{stroke:rgba(0,0,0,.87)}#chart-4c0327e6-a4ef-4c93-bcd0-154204085aa9 .reactive.active,#chart-4c0327e6-a4ef-4c93-bcd0-154204085aa9 .active .reactive{fill-opacity:.8;stroke-opacity:.9;stroke-width:4}#chart-4c0327e6-a4ef-4c93-bcd0-154204085aa9 .ci .reactive.active{stroke-width:1.5}#chart-4c0327e6-a4ef-4c93-bcd0-154204085aa9 .series text{fill:rgba(0,0,0,1)}#chart-4c0327e6-a4ef-4c93-bcd0-154204085aa9 .tooltip rect{fill:rgba(255,255,255,1);stroke:rgba(0,0,0,1);-webkit-transition:opacity 150ms;-moz-transition:opacity 150ms;transition:opacity 150ms}#chart-4c0327e6-a4ef-4c93-bcd0-154204085aa9 .tooltip .label{fill:rgba(0,0,0,.87)}#chart-4c0327e6-a4ef-4c93-bcd0-154204085aa9 .tooltip .label{fill:rgba(0,0,0,.87)}#chart-4c0327e6-a4ef-4c93-bcd0-154204085aa9 .tooltip .legend{font-size:.8em;fill:rgba(0,0,0,.54)}#chart-4c0327e6-a4ef-4c93-bcd0-154204085aa9 .tooltip .x_label{font-size:.6em;fill:rgba(0,0,0,1)}#chart-4c0327e6-a4ef-4c93-bcd0-154204085aa9 .tooltip .xlink{font-size:.5em;text-decoration:underline}#chart-4c0327e6-a4ef-4c93-bcd0-154204085aa9 .tooltip .value{font-size:1.5em}#chart-4c0327e6-a4ef-4c93-bcd0-154204085aa9 .bound{font-size:.5em}#chart-4c0327e6-a4ef-4c93-bcd0-154204085aa9 .max-value{font-size:.75em;fill:rgba(0,0,0,.54)}#chart-4c0327e6-a4ef-4c93-bcd0-154204085aa9 .map-element{fill:rgba(255,255,255,1);stroke:rgba(0,0,0,.54) !important}#chart-4c0327e6-a4ef-4c93-bcd0-154204085aa9 .map-element .reactive{fill-opacity:inherit;stroke-opacity:inherit}#chart-4c0327e6-a4ef-4c93-bcd0-154204085aa9 .color-0,#chart-4c0327e6-a4ef-4c93-bcd0-154204085aa9 .color-0 a:visited{stroke:#F44336;fill:#F44336}#chart-4c0327e6-a4ef-4c93-bcd0-154204085aa9 .text-overlay .color-0 text{fill:black}
#chart-4c0327e6-a4ef-4c93-bcd0-154204085aa9 text.no_data{text-anchor:middle}#chart-4c0327e6-a4ef-4c93-bcd0-154204085aa9 .guide.line{fill:none}#chart-4c0327e6-a4ef-4c93-bcd0-154204085aa9 .centered{text-anchor:middle}#chart-4c0327e6-a4ef-4c93-bcd0-154204085aa9 .title{text-anchor:middle}#chart-4c0327e6-a4ef-4c93-bcd0-154204085aa9 .legends .legend text{fill-opacity:1}#chart-4c0327e6-a4ef-4c93-bcd0-154204085aa9 .axis.x text{text-anchor:middle}#chart-4c0327e6-a4ef-4c93-bcd0-154204085aa9 .axis.x:not(.web) text[transform]{text-anchor:start}#chart-4c0327e6-a4ef-4c93-bcd0-154204085aa9 .axis.x:not(.web) text[transform].backwards{text-anchor:end}#chart-4c0327e6-a4ef-4c93-bcd0-154204085aa9 .axis.y text{text-anchor:end}#chart-4c0327e6-a4ef-4c93-bcd0-154204085aa9 .axis.y text[transform].backwards{text-anchor:start}#chart-4c0327e6-a4ef-4c93-bcd0-154204085aa9 .axis.y2 text{text-anchor:start}#chart-4c0327e6-a4ef-4c93-bcd0-154204085aa9 .axis.y2 text[transform].backwards{text-anchor:end}#chart-4c0327e6-a4ef-4c93-bcd0-154204085aa9 .axis .guide.line{stroke-dasharray:4,4;stroke:black}#chart-4c0327e6-a4ef-4c93-bcd0-154204085aa9 .axis .major.guide.line{stroke-dasharray:6,6;stroke:black}#chart-4c0327e6-a4ef-4c93-bcd0-154204085aa9 .horizontal .axis.y .guide.line,#chart-4c0327e6-a4ef-4c93-bcd0-154204085aa9 .horizontal .axis.y2 .guide.line,#chart-4c0327e6-a4ef-4c93-bcd0-154204085aa9 .vertical .axis.x .guide.line{opacity:0}#chart-4c0327e6-a4ef-4c93-bcd0-154204085aa9 .horizontal .axis.always_show .guide.line,#chart-4c0327e6-a4ef-4c93-bcd0-154204085aa9 .vertical .axis.always_show .guide.line{opacity:1 !important}#chart-4c0327e6-a4ef-4c93-bcd0-154204085aa9 .axis.y .guides:hover .guide.line,#chart-4c0327e6-a4ef-4c93-bcd0-154204085aa9 .axis.y2 .guides:hover .guide.line,#chart-4c0327e6-a4ef-4c93-bcd0-154204085aa9 .axis.x .guides:hover .guide.line{opacity:1}#chart-4c0327e6-a4ef-4c93-bcd0-154204085aa9 .axis .guides:hover text{opacity:1}#chart-4c0327e6-a4ef-4c93-bcd0-154204085aa9 .nofill{fill:none}#chart-4c0327e6-a4ef-4c93-bcd0-154204085aa9 .subtle-fill{fill-opacity:.2}#chart-4c0327e6-a4ef-4c93-bcd0-154204085aa9 .dot{stroke-width:1px;fill-opacity:1;stroke-opacity:1}#chart-4c0327e6-a4ef-4c93-bcd0-154204085aa9 .dot.active{stroke-width:5px}#chart-4c0327e6-a4ef-4c93-bcd0-154204085aa9 .dot.negative{fill:transparent}#chart-4c0327e6-a4ef-4c93-bcd0-154204085aa9 text,#chart-4c0327e6-a4ef-4c93-bcd0-154204085aa9 tspan{stroke:none !important}#chart-4c0327e6-a4ef-4c93-bcd0-154204085aa9 .series text.active{opacity:1}#chart-4c0327e6-a4ef-4c93-bcd0-154204085aa9 .tooltip rect{fill-opacity:.95;stroke-width:.5}#chart-4c0327e6-a4ef-4c93-bcd0-154204085aa9 .tooltip text{fill-opacity:1}#chart-4c0327e6-a4ef-4c93-bcd0-154204085aa9 .showable{visibility:hidden}#chart-4c0327e6-a4ef-4c93-bcd0-154204085aa9 .showable.shown{visibility:visible}#chart-4c0327e6-a4ef-4c93-bcd0-154204085aa9 .gauge-background{fill:rgba(229,229,229,1);stroke:none}#chart-4c0327e6-a4ef-4c93-bcd0-154204085aa9 .bg-lines{stroke:rgba(249,249,249,1);stroke-width:2px}</style><script type="text/javascript">window.pygal = window.pygal || {};window.pygal.config = window.pygal.config || {};window.pygal.config['4c0327e6-a4ef-4c93-bcd0-154204085aa9'] = {"allow_interruptions": false, "box_mode": "extremes", "classes": ["pygal-chart", "pygal-sparkline"], "css": ["file://style.css", "file://graph.css"], "defs": [], "disable_xml_declaration": false, "dots_size": 2.5, "dynamic_print_values": false, "explicit_size": true, "fill": false, "force_uri_protocol": "https", "formatter": null, "half_pie": false, "height": 50, "include_x_axis": false, "inner_radius": 0, "interpolate": "cubic", "interpolation_parameters": {}, "interpolation_precision": 250, "inverse_y_axis": false, "js": [], "legend_at_bottom": false, "legend_at_bottom_columns": null, "legend_box_size": 12, "logarithmic": false, "margin": 10, "margin_bottom": null, "margin_left": null, "margin_right": null, "margin_top": null, "max_scale": 2, "min_scale": 1, "missing_value_fill_truncation": "x", "no_data_text": "", "no_prefix": false, "order_min": null, "pretty_print": false, "print_labels": false, "print_values": false, "print_values_position": "center", "print_zeroes": true, "range": null, "rounded_bars": null, "secondary_range": null, "show_dots": false, "show_legend": false, "show_minor_x_labels": true, "show_minor_y_labels": true, "show_only_major_dots": false, "show_x_guides": false, "show_x_labels": false, "show_y_guides": true, "show_y_labels": true, "spacing": 0, "stack_from_top": false, "strict": false, "stroke": true, "stroke_style": null, "style": {"background": "rgba(249, 249, 249, 1)", "ci_colors": [], "colors": ["#F44336", "#3F51B5", "#009688", "#FFC107", "#FF5722", "#9C27B0", "#03A9F4", "#8BC34A", "#FF9800", "#E91E63", "#2196F3", "#4CAF50", "#FFEB3B", "#673AB7", "#00BCD4", "#CDDC39", "#9E9E9E", "#607D8B"], "dot_opacity": "1", "font_family": "Consolas, \"Liberation Mono\", Menlo, Courier, monospace", "foreground": "rgba(0, 0, 0, .87)", "foreground_strong": "rgba(0, 0, 0, 1)", "foreground_subtle": "rgba(0, 0, 0, .54)", "guide_stroke_color": "black", "guide_stroke_dasharray": "4,4", "label_font_family": "Consolas, \"Liberation Mono\", Menlo, Courier, monospace", "label_font_size": 10, "legend_font_family": "Consolas, \"Liberation Mono\", Menlo, Courier, monospace", "legend_font_size": 14, "major_guide_stroke_color": "black", "major_guide_stroke_dasharray": "6,6", "major_label_font_family": "Consolas, \"Liberation Mono\", Menlo, Courier, monospace", "major_label_font_size": 10, "no_data_font_family": "Consolas, \"Liberation Mono\", Menlo, Courier, monospace", "no_data_font_size": 64, "opacity": ".7", "opacity_hover": ".8", "plot_background": "rgba(255, 255, 255, 1)", "stroke_opacity": ".8", "stroke_opacity_hover": ".9", "stroke_width": "1", "stroke_width_hover": "4", "title_font_family": "Consolas, \"Liberation Mono\", Menlo, Courier, monospace", "title_font_size": 16, "tooltip_font_family": "Consolas, \"Liberation Mono\", Menlo, Courier, monospace", "tooltip_font_size": 14, "transition": "150ms", "value_background": "rgba(229, 229, 229, 1)", "value_colors": [], "value_font_family": "Consolas, \"Liberation Mono\", Menlo, Courier, monospace", "value_font_size": 16, "value_label_font_family": "Consolas, \"Liberation Mono\", Menlo, Courier, monospace", "value_label_font_size": 10}, "title": null, "tooltip_border_radius": 0, "tooltip_fancy_mode": true, "truncate_label": null, "truncate_legend": null, "width": 200, "x_label_rotation": 0, "x_labels": ["2024/8", "2024/7", "2024/6", "2024/5", "2024/4"], "x_labels_major": null, "x_labels_major_count": null, "x_labels_major_every": null, "x_title": null, "xrange": null, "y_label_rotation": 0, "y_labels": null, "y_labels_major": null, "y_labels_major_count": null, "y_labels_major_every": null, "y_title": null, "zero": 0, "legends": [""]}</script></defs><title>Pygal</title><g class="graph line-graph vertical"><rect x="0" y="0" width="200" height="50" class="background" /><g transform="translate(76, 10)" class="plot"><rect x="0" y="0" width="114.0" height="30" class="background" /><g class="axis y always_show"><path d="M0.000000 30.000000 h114.000000" class="line" /><g class="guides"><path d="M0.000000 29.423077 h114.000000" class="guide line" /><text x="-5" y="32.92307692307692" class="">2</text><title>2</title></g><g class="guides"><path d="M0.000000 0.576923 h114.000000" class="guide line" /><text x="-5" y="4.076923076923077" class="">14.01477147</text><title>14.01477147</title></g></g><g class="series serie-0 color-0"><path d="M2.192308 29.423077 L2.301923 29.245069 2.411538 29.067067 2.521154 28.889077 2.630769 28.711106 2.740385 28.533158 2.850000 28.355240 2.959615 28.177359 3.069231 27.999520 3.178846 27.821729 3.288462 27.643992 3.398077 27.466316 3.507692 27.288705 3.617308 27.111168 3.726923 26.933708 3.836538 26.756333 3.946154 26.579048 4.055769 26.401860 4.165385 26.224774 4.275000 26.047796 4.384615 25.870933 4.494231 25.694190 4.603846 25.517574 4.713462 25.341091 4.823077 25.164746 4.932692 24.988546 5.042308 24.812496 5.151923 24.636603 5.261538 24.460873 5.371154 24.285312 5.480769 24.109925 5.590385 23.934719 5.700000 23.759700 5.809615 23.584873 5.919231 23.410246 6.028846 23.235823 6.138462 23.061611 6.248077 22.887616 6.357692 22.713844 6.467308 22.540301 6.576923 22.366993 6.686538 22.193926 6.796154 22.021107 6.905769 21.848540 7.015385 21.676232 7.125000 21.504189 7.234615 21.332418 7.344231 21.160924 7.453846 20.989713 7.563462 20.818791 7.673077 20.648164 7.782692 20.477839 7.892308 20.307821 8.001923 20.138116 8.111538 19.968731 8.221154 19.799671 8.330769 19.630942 8.440385 19.462551 8.550000 19.294504 8.659615 19.126805 8.769231 18.959463 8.878846 18.792482 8.988462 18.625868 9.098077 18.459628 9.207692 18.293768 9.317308 18.128293 9.426923 17.963210 9.536538 17.798524 9.646154 17.634243 9.755769 17.470371 9.865385 17.306914 9.975000 17.143880 10.084615 16.981273 10.194231 16.819101 10.303846 16.657368 10.413462 16.496081 10.523077 16.335246 10.632692 16.174869 10.742308 16.014955 10.851923 15.855512 10.961538 15.696545 11.071154 15.538060 11.180769 15.380063 11.290385 15.222560 11.400000 15.065557 11.509615 14.909060 11.619231 14.753076 11.728846 14.597610 11.838462 14.442668 11.948077 14.288256 12.057692 14.134380 12.167308 13.981047 12.276923 13.828262 12.386538 13.676031 12.496154 13.524361 12.605769 13.373257 12.715385 13.222726 12.825000 13.072773 12.934615 12.923405 13.044231 12.774627 13.153846 12.626445 13.263462 12.478866 13.373077 12.331896 13.482692 12.185540 13.592308 12.039805 13.701923 11.894697 13.811538 11.750221 13.921154 11.606384 14.030769 11.463192 14.140385 11.320650 14.250000 11.178766 14.359615 11.037544 14.469231 10.896991 14.578846 10.757112 14.688462 10.617915 14.798077 10.479405 14.907692 10.341587 15.017308 10.204469 15.126923 10.068055 15.236538 9.932353 15.346154 9.797367 15.455769 9.663105 15.565385 9.529571 15.675000 9.396773 15.784615 9.264716 15.894231 9.133406 16.003846 9.002850 16.113462 8.873052 16.223077 8.744020 16.332692 8.615759 16.442308 8.488275 16.551923 8.361575 16.661538 8.235664 16.771154 8.110548 16.880769 7.986234 16.990385 7.862727 17.100000 7.740034 17.209615 7.618160 17.319231 7.497112 17.428846 7.376895 17.538462 7.257516 17.648077 7.138980 17.757692 7.021294 17.867308 6.904463 17.976923 6.788494 18.086538 6.673393 18.196154 6.559166 18.305769 6.445818 18.415385 6.333356 18.525000 6.221786 18.634615 6.111114 18.744231 6.001345 18.853846 5.892486 18.963462 5.784544 19.073077 5.677523 19.182692 5.571430 19.292308 5.466271 19.401923 5.362052 19.511538 5.258779 19.621154 5.156458 19.730769 5.055095 19.840385 4.954696 19.950000 4.855267 20.059615 4.756815 20.169231 4.659344 20.278846 4.562862 20.388462 4.467374 20.498077 4.372886 20.607692 4.279405 20.717308 4.186936 20.826923 4.095485 20.936538 4.005058 21.046154 3.915662 21.155769 3.827302 21.265385 3.739985 21.375000 3.653716 21.484615 3.568502 21.594231 3.484348 21.703846 3.401260 21.813462 3.319246 21.923077 3.238309 22.032692 3.158458 22.142308 3.079696 22.251923 3.002032 22.361538 2.925470 22.471154 2.850017 22.580769 2.775679 22.690385 2.702461 22.800000 2.630371 22.909615 2.559413 23.019231 2.489593 23.128846 2.420919 23.238462 2.353396 23.348077 2.287029 23.457692 2.221826 23.567308 2.157791 23.676923 2.094931 23.786538 2.033253 23.896154 1.972761 24.005769 1.913463 24.115385 1.855363 24.225000 1.798469 24.334615 1.742786 24.444231 1.688320 24.553846 1.635077 24.663462 1.583063 24.773077 1.532285 24.882692 1.482748 24.992308 1.434458 25.101923 1.387421 25.211538 1.341644 25.321154 1.297132 25.430769 1.253892 25.540385 1.211929 25.650000 1.171249 25.759615 1.131859 25.869231 1.093764 25.978846 1.056971 26.088462 1.021486 26.198077 0.987314 26.307692 0.954461 26.417308 0.922934 26.526923 0.892739 26.636538 0.863882 26.746154 0.836368 26.855769 0.810204 26.965385 0.785396 27.075000 0.761949 27.184615 0.739870 27.294231 0.719166 27.403846 0.699841 27.513462 0.681901 27.623077 0.665354 27.732692 0.650205 27.842308 0.636459 27.951923 0.624124 28.061538 0.613205 28.171154 0.603707 28.280769 0.595638 28.390385 0.589003 28.500000 0.583808 28.609615 0.580059 28.719231 0.577762 28.828846 0.576923 28.938462 0.577549 29.048077 0.579644 29.157692 0.583216 29.267308 0.588271 29.376923 0.594813 29.486538 0.602850 29.596154 0.612388 29.705769 0.623429 29.815385 0.635965 29.925000 0.649987 30.034615 0.665482 30.144231 0.682441 30.253846 0.700852 30.363462 0.720705 30.473077 0.741990 30.582692 0.764694 30.692308 0.788808 30.801923 0.814321 30.911538 0.841221 31.021154 0.869499 31.130769 0.899143 31.240385 0.930143 31.350000 0.962488 31.459615 0.996166 31.569231 1.031169 31.678846 1.067483 31.788462 1.105100 31.898077 1.144008 32.007692 1.184195 32.117308 1.225653 32.226923 1.268369 32.336538 1.312333 32.446154 1.357535 32.555769 1.403962 32.665385 1.451606 32.775000 1.500454 32.884615 1.550497 32.994231 1.601723 33.103846 1.654121 33.213462 1.707682 33.323077 1.762393 33.432692 1.818245 33.542308 1.875226 33.651923 1.933326 33.761538 1.992534 33.871154 2.052840 33.980769 2.114231 34.090385 2.176699 34.200000 2.240231 34.309615 2.304818 34.419231 2.370448 34.528846 2.437111 34.638462 2.504795 34.748077 2.573491 34.857692 2.643187 34.967308 2.713873 35.076923 2.785537 35.186538 2.858169 35.296154 2.931759 35.405769 3.006295 35.515385 3.081767 35.625000 3.158164 35.734615 3.235475 35.844231 3.313690 35.953846 3.392797 36.063462 3.472786 36.173077 3.553646 36.282692 3.635367 36.392308 3.717937 36.501923 3.801346 36.611538 3.885583 36.721154 3.970638 36.830769 4.056499 36.940385 4.143156 37.050000 4.230597 37.159615 4.318813 37.269231 4.407793 37.378846 4.497525 37.488462 4.587999 37.598077 4.679204 37.707692 4.771130 37.817308 4.863765 37.926923 4.957099 38.036538 5.051121 38.146154 5.145821 38.255769 5.241187 38.365385 5.337209 38.475000 5.433876 38.584615 5.531177 38.694231 5.629102 38.803846 5.727639 38.913462 5.826779 39.023077 5.926509 39.132692 6.026820 39.242308 6.127701 39.351923 6.229141 39.461538 6.331128 39.571154 6.433654 39.680769 6.536705 39.790385 6.640273 39.900000 6.744345 40.009615 6.848912 40.119231 6.953962 40.228846 7.059486 40.338462 7.165471 40.448077 7.271907 40.557692 7.378784 40.667308 7.486090 40.776923 7.593816 40.886538 7.701949 40.996154 7.810480 41.105769 7.919398 41.215385 8.028691 41.325000 8.138350 41.434615 8.248363 41.544231 8.358719 41.653846 8.469408 41.763462 8.580420 41.873077 8.691742 41.982692 8.803365 42.092308 8.915278 42.201923 9.027469 42.311538 9.139929 42.421154 9.252646 42.530769 9.365610 42.640385 9.478810 42.750000 9.592235 42.859615 9.705874 42.969231 9.819717 43.078846 9.933753 43.188462 10.047971 43.298077 10.162360 43.407692 10.276909 43.517308 10.391608 43.626923 10.506447 43.736538 10.621413 43.846154 10.736497 43.955769 10.851687 44.065385 10.966974 44.175000 11.082346 44.284615 11.197792 44.394231 11.313301 44.503846 11.428864 44.613462 11.544468 44.723077 11.660104 44.832692 11.775761 44.942308 11.891427 45.051923 12.007092 45.161538 12.122746 45.271154 12.238376 45.380769 12.353974 45.490385 12.469528 45.600000 12.585027 45.709615 12.700460 45.819231 12.815817 45.928846 12.931086 46.038462 13.046258 46.148077 13.161321 46.257692 13.276265 46.367308 13.391078 46.476923 13.505751 46.586538 13.620272 46.696154 13.734630 46.805769 13.848815 46.915385 13.962816 47.025000 14.076623 47.134615 14.190223 47.244231 14.303608 47.353846 14.416765 47.463462 14.529685 47.573077 14.642355 47.682692 14.754767 47.792308 14.866908 47.901923 14.978768 48.011538 15.090337 48.121154 15.201603 48.230769 15.312556 48.340385 15.423185 48.450000 15.533479 48.559615 15.643428 48.669231 15.753020 48.778846 15.862246 48.888462 15.971093 48.998077 16.079552 49.107692 16.187611 49.217308 16.295261 49.326923 16.402489 49.436538 16.509286 49.546154 16.615640 49.655769 16.721542 49.765385 16.826979 49.875000 16.931941 49.984615 17.036418 50.094231 17.140399 50.203846 17.243873 50.313462 17.346828 50.423077 17.449256 50.532692 17.551144 50.642308 17.652482 50.751923 17.753259 50.861538 17.853464 50.971154 17.953087 51.080769 18.052117 51.190385 18.150542 51.300000 18.248353 51.409615 18.345539 51.519231 18.442089 51.628846 18.537991 51.738462 18.633236 51.848077 18.727812 51.957692 18.821708 52.067308 18.914915 52.176923 19.007421 52.286538 19.099215 52.396154 19.190287 52.505769 19.280626 52.615385 19.370221 52.725000 19.459061 52.834615 19.547136 52.944231 19.634434 53.053846 19.720946 53.163462 19.806660 53.273077 19.891565 53.382692 19.975651 53.492308 20.058907 53.601923 20.141322 53.711538 20.222885 53.821154 20.303587 53.930769 20.383415 54.040385 20.462359 54.150000 20.540409 54.259615 20.617553 54.369231 20.693781 54.478846 20.769082 54.588462 20.843445 54.698077 20.916860 54.807692 20.989316 54.917308 21.060801 55.026923 21.131306 55.136538 21.200819 55.246154 21.269330 55.355769 21.336828 55.465385 21.403302 55.575000 21.468742 55.684615 21.533136 55.794231 21.596473 55.903846 21.658744 56.013462 21.719938 56.123077 21.780042 56.232692 21.839048 56.342308 21.896944 56.451923 21.953718 56.561538 22.009362 56.671154 22.063863 56.780769 22.117211 56.890385 22.169395 57.000000 22.220405 57.109615 22.270232 57.219231 22.318881 57.328846 22.366361 57.438462 22.412677 57.548077 22.457838 57.657692 22.501852 57.767308 22.544725 57.876923 22.586466 57.986538 22.627082 58.096154 22.666581 58.205769 22.704969 58.315385 22.742255 58.425000 22.778446 58.534615 22.813550 58.644231 22.847574 58.753846 22.880526 58.863462 22.912413 58.973077 22.943243 59.082692 22.973023 59.192308 23.001761 59.301923 23.029465 59.411538 23.056142 59.521154 23.081799 59.630769 23.106444 59.740385 23.130085 59.850000 23.152729 59.959615 23.174384 60.069231 23.195057 60.178846 23.214755 60.288462 23.233487 60.398077 23.251260 60.507692 23.268081 60.617308 23.283958 60.726923 23.298899 60.836538 23.312911 60.946154 23.326001 61.055769 23.338177 61.165385 23.349447 61.275000 23.359818 61.384615 23.369298 61.494231 23.377894 61.603846 23.385614 61.713462 23.392465 61.823077 23.398455 61.932692 23.403592 62.042308 23.407882 62.151923 23.411334 62.261538 23.413955 62.371154 23.415753 62.480769 23.416734 62.590385 23.416908 62.700000 23.416280 62.809615 23.414859 62.919231 23.412653 63.028846 23.409668 63.138462 23.405913 63.248077 23.401394 63.357692 23.396120 63.467308 23.390098 63.576923 23.383336 63.686538 23.375840 63.796154 23.367619 63.905769 23.358681 64.015385 23.349032 64.125000 23.338680 64.234615 23.327633 64.344231 23.315898 64.453846 23.303483 64.563462 23.290396 64.673077 23.276643 64.782692 23.262233 64.892308 23.247173 65.001923 23.231470 65.111538 23.215132 65.221154 23.198167 65.330769 23.180583 65.440385 23.162386 65.550000 23.143584 65.659615 23.124185 65.769231 23.104196 65.878846 23.083625 65.988462 23.062479 66.098077 23.040767 66.207692 23.018495 66.317308 22.995671 66.426923 22.972302 66.536538 22.948397 66.646154 22.923962 66.755769 22.899006 66.865385 22.873535 66.975000 22.847557 67.084615 22.821080 67.194231 22.794112 67.303846 22.766659 67.413462 22.738730 67.523077 22.710332 67.632692 22.681472 67.742308 22.652159 67.851923 22.622399 67.961538 22.592200 68.071154 22.561569 68.180769 22.530515 68.290385 22.499045 68.400000 22.467166 68.509615 22.434886 68.619231 22.402212 68.728846 22.369152 68.838462 22.335714 68.948077 22.301904 69.057692 22.267731 69.167308 22.233202 69.276923 22.198325 69.386538 22.163107 69.496154 22.127555 69.605769 22.091678 69.715385 22.055482 69.825000 22.018976 69.934615 21.982167 70.044231 21.945062 70.153846 21.907669 70.263462 21.869995 70.373077 21.832049 70.482692 21.793837 70.592308 21.755367 70.701923 21.716646 70.811538 21.677683 70.921154 21.638485 71.030769 21.599059 71.140385 21.559412 71.250000 21.519553 71.359615 21.479489 71.469231 21.439227 71.578846 21.398775 71.688462 21.358141 71.798077 21.317332 71.907692 21.276355 72.017308 21.235218 72.126923 21.193929 72.236538 21.152495 72.346154 21.110924 72.455769 21.069223 72.565385 21.027400 72.675000 20.985463 72.784615 20.943418 72.894231 20.901274 73.003846 20.859037 73.113462 20.816716 73.223077 20.774319 73.332692 20.731851 73.442308 20.689322 73.551923 20.646739 73.661538 20.604109 73.771154 20.561439 73.880769 20.518738 73.990385 20.476013 74.100000 20.433271 74.209615 20.390520 74.319231 20.347767 74.428846 20.305021 74.538462 20.262288 74.648077 20.219576 74.757692 20.176892 74.867308 20.134245 74.976923 20.091641 75.086538 20.049089 75.196154 20.006596 75.305769 19.964168 75.415385 19.921815 75.525000 19.879543 75.634615 19.837360 75.744231 19.795273 75.853846 19.753291 75.963462 19.711420 76.073077 19.669668 76.182692 19.628043 76.292308 19.586552 76.401923 19.545202 76.511538 19.504002 76.621154 19.462959 76.730769 19.422080 76.840385 19.381373 76.950000 19.340845 77.059615 19.300505 77.169231 19.260358 77.278846 19.220414 77.388462 19.180680 77.498077 19.141162 77.607692 19.101869 77.717308 19.062809 77.826923 19.023988 77.936538 18.985414 78.046154 18.947095 78.155769 18.909039 78.265385 18.871252 78.375000 18.833743 78.484615 18.796519 78.594231 18.759587 78.703846 18.722956 78.813462 18.686632 78.923077 18.650623 79.032692 18.614937 79.142308 18.579581 79.251923 18.544563 79.361538 18.509890 79.471154 18.475570 79.580769 18.441610 79.690385 18.408019 79.800000 18.374802 79.909615 18.341969 80.019231 18.309526 80.128846 18.277482 80.238462 18.245843 80.348077 18.214617 80.457692 18.183812 80.567308 18.153435 80.676923 18.123494 80.786538 18.093996 80.896154 18.064949 81.005769 18.036361 81.115385 18.008238 81.225000 17.980589 81.334615 17.953421 81.444231 17.926741 81.553846 17.900558 81.663462 17.874878 81.773077 17.849710 81.882692 17.825060 81.992308 17.800936 82.101923 17.777346 82.211538 17.754298 82.321154 17.731798 82.430769 17.709855 82.540385 17.688476 82.650000 17.667668 82.759615 17.647440 82.869231 17.627798 82.978846 17.608750 83.088462 17.590303 83.198077 17.572466 83.307692 17.555246 83.417308 17.538650 83.526923 17.522686 83.636538 17.507361 83.746154 17.492683 83.855769 17.478660 83.965385 17.465298 84.075000 17.452606 84.184615 17.440591 84.294231 17.429261 84.403846 17.418623 84.513462 17.408683 84.623077 17.399440 84.732692 17.390891 84.842308 17.383033 84.951923 17.375863 85.061538 17.369380 85.171154 17.363579 85.280769 17.358458 85.390385 17.354015 85.500000 17.350246 85.609615 17.347149 85.719231 17.344720 85.828846 17.342958 85.938462 17.341859 86.048077 17.341421 86.157692 17.341640 86.267308 17.342514 86.376923 17.344041 86.486538 17.346216 86.596154 17.349038 86.705769 17.352504 86.815385 17.356611 86.925000 17.361356 87.034615 17.366736 87.144231 17.372749 87.253846 17.379391 87.363462 17.386661 87.473077 17.394554 87.582692 17.403069 87.692308 17.412202 87.801923 17.421952 87.911538 17.432314 88.021154 17.443286 88.130769 17.454865 88.240385 17.467049 88.350000 17.479835 88.459615 17.493219 88.569231 17.507200 88.678846 17.521774 88.788462 17.536939 88.898077 17.552691 89.007692 17.569029 89.117308 17.585948 89.226923 17.603447 89.336538 17.621522 89.446154 17.640171 89.555769 17.659392 89.665385 17.679180 89.775000 17.699533 89.884615 17.720449 89.994231 17.741925 90.103846 17.763958 90.213462 17.786545 90.323077 17.809683 90.432692 17.833370 90.542308 17.857603 90.651923 17.882378 90.761538 17.907694 90.871154 17.933547 90.980769 17.959935 91.090385 17.986854 91.200000 18.014303 91.309615 18.042277 91.419231 18.070775 91.528846 18.099794 91.638462 18.129330 91.748077 18.159381 91.857692 18.189944 91.967308 18.221017 92.076923 18.252597 92.186538 18.284680 92.296154 18.317264 92.405769 18.350346 92.515385 18.383924 92.625000 18.417994 92.734615 18.452554 92.844231 18.487601 92.953846 18.523132 93.063462 18.559145 93.173077 18.595636 93.282692 18.632603 93.392308 18.670043 93.501923 18.707953 93.611538 18.746330 93.721154 18.785172 93.830769 18.824476 93.940385 18.864239 94.050000 18.904458 94.159615 18.945131 94.269231 18.986254 94.378846 19.027825 94.488462 19.069841 94.598077 19.112299 94.707692 19.155196 94.817308 19.198530 94.926923 19.242298 95.036538 19.286497 95.146154 19.331124 95.255769 19.376177 95.365385 19.421652 95.475000 19.467547 95.584615 19.513859 95.694231 19.560585 95.803846 19.607723 95.913462 19.655269 96.023077 19.703221 96.132692 19.751576 96.242308 19.800331 96.351923 19.849484 96.461538 19.899031 96.571154 19.948971 96.680769 19.999299 96.790385 20.050013 96.900000 20.101111 97.009615 20.152589 97.119231 20.204446 97.228846 20.256677 97.338462 20.309281 97.448077 20.362254 97.557692 20.415593 97.667308 20.469297 97.776923 20.523361 97.886538 20.577784 97.996154 20.632562 98.105769 20.687693 98.215385 20.743174 98.325000 20.799002 98.434615 20.855174 98.544231 20.911687 98.653846 20.968539 98.763462 21.025727 98.873077 21.083248 98.982692 21.141099 99.092308 21.199278 99.201923 21.257781 99.311538 21.316606 99.421154 21.375751 99.530769 21.435211 99.640385 21.494985 99.750000 21.555070 99.859615 21.615462 99.969231 21.676160 100.078846 21.737160 100.188462 21.798459 100.298077 21.860055 100.407692 21.921945 100.517308 21.984126 100.626923 22.046595 100.736538 22.109349 100.846154 22.172387 100.955769 22.235704 101.065385 22.299298 101.175000 22.363167 101.284615 22.427307 101.394231 22.491716 101.503846 22.556390 101.613462 22.621328 101.723077 22.686526 101.832692 22.751981 101.942308 22.817691 102.051923 22.883653 102.161538 22.949865 102.271154 23.016322 102.380769 23.083023 102.490385 23.149964 102.600000 23.217144 102.709615 23.284558 102.819231 23.352205 102.928846 23.420082 103.038462 23.488185 103.148077 23.556512 103.257692 23.625060 103.367308 23.693826 103.476923 23.762808 103.586538 23.832003 103.696154 23.901407 103.805769 23.971019 103.915385 24.040835 104.025000 24.110852 104.134615 24.181068 104.244231 24.251480 104.353846 24.322085 104.463462 24.392881 104.573077 24.463864 104.682692 24.535031 104.792308 24.606381 104.901923 24.677910 105.011538 24.749615 105.121154 24.821493 105.230769 24.893543 105.340385 24.965760 105.450000 25.038142 105.559615 25.110687 105.669231 25.183391 105.778846 25.256252 105.888462 25.329267 105.998077 25.402433 106.107692 25.475747 106.217308 25.549207 106.326923 25.622810 106.436538 25.696552 106.546154 25.770432 106.655769 25.844446 106.765385 25.918592 106.875000 25.992866 106.984615 26.067266 107.094231 26.141790 107.203846 26.216433 107.313462 26.291195 107.423077 26.366071 107.532692 26.441059 107.642308 26.516156 107.751923 26.591359 107.861538 26.666666 107.971154 26.742074 108.080769 26.817580 108.190385 26.893181 108.300000 26.968874 108.409615 27.044657 108.519231 27.120527 108.628846 27.196480 108.738462 27.272515 108.848077 27.348628 108.957692 27.424817 109.067308 27.501078 109.176923 27.577410 109.286538 27.653808 109.396154 27.730271 109.505769 27.806796 109.615385 27.883379 109.725000 27.960018 109.834615 28.036711 109.944231 28.113453 110.053846 28.190244 110.163462 28.267079 110.273077 28.343956 110.382692 28.420872 110.492308 28.497825 110.601923 28.574811 110.711538 28.651828 110.821154 28.728874 110.930769 28.805944 111.040385 28.883036 111.150000 28.960149 111.259615 29.037278 111.369231 29.114421 111.478846 29.191575 111.588462 29.268738 111.698077 29.345906 111.807692 29.423077" class="line reactive nofill" /></g></g><g class="titles" /><g transform="translate(76, 10)" class="plot overlay"><g class="series serie-0 color-0" /></g><g transform="translate(76, 10)" class="plot text-overlay"><g class="series serie-0 color-0" /></g><g transform="translate(76, 10)" class="plot tooltip-overlay"><g transform="translate(0 0)" style="opacity: 0" class="tooltip"><rect rx="0" ry="0" width="0" height="0" class="tooltip-box" /><g class="text" /></g></g></g></svg>