<?xml version='1.0' encoding='utf-8'?>
<svg xmlns="http://www.w3.org/2000/svg" id="chart-b92f2a98-2767-4b88-883b-c125f951a742" class="pygal-chart pygal-sparkline" viewBox="0 0 200 50" width="200" height="50"><!--Generated with pygal 3.0.5 (etree) ©Kozea 2012-2016 on 2025-02-02--><!--http://pygal.org--><!--http://github.com/Kozea/pygal--><defs><style type="text/css">#chart-b92f2a98-2767-4b88-883b-c125f951a742{-webkit-user-select:none;-webkit-font-smoothing:antialiased;font-family:Consolas,"Liberation Mono",Menlo,Courier,monospace}#chart-b92f2a98-2767-4b88-883b-c125f951a742 .title{font-family:Consolas,"Liberation Mono",Menlo,Courier,monospace;font-size:16px}#chart-b92f2a98-2767-4b88-883b-c125f951a742 .legends .legend text{font-family:Consolas,"Liberation Mono",Menlo,Courier,monospace;font-size:14px}#chart-b92f2a98-2767-4b88-883b-c125f951a742 .axis text{font-family:Consolas,"Liberation Mono",Menlo,Courier,monospace;font-size:10px}#chart-b92f2a98-2767-4b88-883b-c125f951a742 .axis text.major{font-family:Consolas,"Liberation Mono",Menlo,Courier,monospace;font-size:10px}#chart-b92f2a98-2767-4b88-883b-c125f951a742 .text-overlay text.value{font-family:Consolas,"Liberation Mono",Menlo,Courier,monospace;font-size:16px}#chart-b92f2a98-2767-4b88-883b-c125f951a742 .text-overlay text.label{font-family:Consolas,"Liberation Mono",Menlo,Courier,monospace;font-size:10px}#chart-b92f2a98-2767-4b88-883b-c125f951a742 .tooltip{font-family:Consolas,"Liberation Mono",Menlo,Courier,monospace;font-size:14px}#chart-b92f2a98-2767-4b88-883b-c125f951a742 text.no_data{font-family:Consolas,"Liberation Mono",Menlo,Courier,monospace;font-size:64px}
#chart-b92f2a98-2767-4b88-883b-c125f951a742{background-color:rgba(249,249,249,1)}#chart-b92f2a98-2767-4b88-883b-c125f951a742 path,#chart-b92f2a98-2767-4b88-883b-c125f951a742 line,#chart-b92f2a98-2767-4b88-883b-c125f951a742 rect,#chart-b92f2a98-2767-4b88-883b-c125f951a742 circle{-webkit-transition:150ms;-moz-transition:150ms;transition:150ms}#chart-b92f2a98-2767-4b88-883b-c125f951a742 .graph &gt; .background{fill:rgba(249,249,249,1)}#chart-b92f2a98-2767-4b88-883b-c125f951a742 .plot &gt; .background{fill:rgba(255,255,255,1)}#chart-b92f2a98-2767-4b88-883b-c125f951a742 .graph{fill:rgba(0,0,0,.87)}#chart-b92f2a98-2767-4b88-883b-c125f951a742 text.no_data{fill:rgba(0,0,0,1)}#chart-b92f2a98-2767-4b88-883b-c125f951a742 .title{fill:rgba(0,0,0,1)}#chart-b92f2a98-2767-4b88-883b-c125f951a742 .legends .legend text{fill:rgba(0,0,0,.87)}#chart-b92f2a98-2767-4b88-883b-c125f951a742 .legends .legend:hover text{fill:rgba(0,0,0,1)}#chart-b92f2a98-2767-4b88-883b-c125f951a742 .axis .line{stroke:rgba(0,0,0,1)}#chart-b92f2a98-2767-4b88-883b-c125f951a742 .axis .guide.line{stroke:rgba(0,0,0,.54)}#chart-b92f2a98-2767-4b88-883b-c125f951a742 .axis .major.line{stroke:rgba(0,0,0,.87)}#chart-b92f2a98-2767-4b88-883b-c125f951a742 .axis text.major{fill:rgba(0,0,0,1)}#chart-b92f2a98-2767-4b88-883b-c125f951a742 .axis.y .guides:hover .guide.line,#chart-b92f2a98-2767-4b88-883b-c125f951a742 .line-graph .axis.x .guides:hover .guide.line,#chart-b92f2a98-2767-4b88-883b-c125f951a742 .stackedline-graph .axis.x .guides:hover .guide.line,#chart-b92f2a98-2767-4b88-883b-c125f951a742 .xy-graph .axis.x .guides:hover .guide.line{stroke:rgba(0,0,0,1)}#chart-b92f2a98-2767-4b88-883b-c125f951a742 .axis .guides:hover text{fill:rgba(0,0,0,1)}#chart-b92f2a98-2767-4b88-883b-c125f951a742 .reactive{fill-opacity:.7;stroke-opacity:.8;stroke-width:1}#chart-b92f2a98-2767-4b88-883b-c125f951a742 .ci{stroke:rgba(0,0,0,.87)}#chart-b92f2a98-2767-4b88-883b-c125f951a742 .reactive.active,#chart-b92f2a98-2767-4b88-883b-c125f951a742 .active .reactive{fill-opacity:.8;stroke-opacity:.9;stroke-width:4}#chart-b92f2a98-2767-4b88-883b-c125f951a742 .ci .reactive.active{stroke-width:1.5}#chart-b92f2a98-2767-4b88-883b-c125f951a742 .series text{fill:rgba(0,0,0,1)}#chart-b92f2a98-2767-4b88-883b-c125f951a742 .tooltip rect{fill:rgba(255,255,255,1);stroke:rgba(0,0,0,1);-webkit-transition:opacity 150ms;-moz-transition:opacity 150ms;transition:opacity 150ms}#chart-b92f2a98-2767-4b88-883b-c125f951a742 .tooltip .label{fill:rgba(0,0,0,.87)}#chart-b92f2a98-2767-4b88-883b-c125f951a742 .tooltip .label{fill:rgba(0,0,0,.87)}#chart-b92f2a98-2767-4b88-883b-c125f951a742 .tooltip .legend{font-size:.8em;fill:rgba(0,0,0,.54)}#chart-b92f2a98-2767-4b88-883b-c125f951a742 .tooltip .x_label{font-size:.6em;fill:rgba(0,0,0,1)}#chart-b92f2a98-2767-4b88-883b-c125f951a742 .tooltip .xlink{font-size:.5em;text-decoration:underline}#chart-b92f2a98-2767-4b88-883b-c125f951a742 .tooltip .value{font-size:1.5em}#chart-b92f2a98-2767-4b88-883b-c125f951a742 .bound{font-size:.5em}#chart-b92f2a98-2767-4b88-883b-c125f951a742 .max-value{font-size:.75em;fill:rgba(0,0,0,.54)}#chart-b92f2a98-2767-4b88-883b-c125f951a742 .map-element{fill:rgba(255,255,255,1);stroke:rgba(0,0,0,.54) !important}#chart-b92f2a98-2767-4b88-883b-c125f951a742 .map-element .reactive{fill-opacity:inherit;stroke-opacity:inherit}#chart-b92f2a98-2767-4b88-883b-c125f951a742 .color-0,#chart-b92f2a98-2767-4b88-883b-c125f951a742 .color-0 a:visited{stroke:#F44336;fill:#F44336}#chart-b92f2a98-2767-4b88-883b-c125f951a742 .text-overlay .color-0 text{fill:black}
#chart-b92f2a98-2767-4b88-883b-c125f951a742 text.no_data{text-anchor:middle}#chart-b92f2a98-2767-4b88-883b-c125f951a742 .guide.line{fill:none}#chart-b92f2a98-2767-4b88-883b-c125f951a742 .centered{text-anchor:middle}#chart-b92f2a98-2767-4b88-883b-c125f951a742 .title{text-anchor:middle}#chart-b92f2a98-2767-4b88-883b-c125f951a742 .legends .legend text{fill-opacity:1}#chart-b92f2a98-2767-4b88-883b-c125f951a742 .axis.x text{text-anchor:middle}#chart-b92f2a98-2767-4b88-883b-c125f951a742 .axis.x:not(.web) text[transform]{text-anchor:start}#chart-b92f2a98-2767-4b88-883b-c125f951a742 .axis.x:not(.web) text[transform].backwards{text-anchor:end}#chart-b92f2a98-2767-4b88-883b-c125f951a742 .axis.y text{text-anchor:end}#chart-b92f2a98-2767-4b88-883b-c125f951a742 .axis.y text[transform].backwards{text-anchor:start}#chart-b92f2a98-2767-4b88-883b-c125f951a742 .axis.y2 text{text-anchor:start}#chart-b92f2a98-2767-4b88-883b-c125f951a742 .axis.y2 text[transform].backwards{text-anchor:end}#chart-b92f2a98-2767-4b88-883b-c125f951a742 .axis .guide.line{stroke-dasharray:4,4;stroke:black}#chart-b92f2a98-2767-4b88-883b-c125f951a742 .axis .major.guide.line{stroke-dasharray:6,6;stroke:black}#chart-b92f2a98-2767-4b88-883b-c125f951a742 .horizontal .axis.y .guide.line,#chart-b92f2a98-2767-4b88-883b-c125f951a742 .horizontal .axis.y2 .guide.line,#chart-b92f2a98-2767-4b88-883b-c125f951a742 .vertical .axis.x .guide.line{opacity:0}#chart-b92f2a98-2767-4b88-883b-c125f951a742 .horizontal .axis.always_show .guide.line,#chart-b92f2a98-2767-4b88-883b-c125f951a742 .vertical .axis.always_show .guide.line{opacity:1 !important}#chart-b92f2a98-2767-4b88-883b-c125f951a742 .axis.y .guides:hover .guide.line,#chart-b92f2a98-2767-4b88-883b-c125f951a742 .axis.y2 .guides:hover .guide.line,#chart-b92f2a98-2767-4b88-883b-c125f951a742 .axis.x .guides:hover .guide.line{opacity:1}#chart-b92f2a98-2767-4b88-883b-c125f951a742 .axis .guides:hover text{opacity:1}#chart-b92f2a98-2767-4b88-883b-c125f951a742 .nofill{fill:none}#chart-b92f2a98-2767-4b88-883b-c125f951a742 .subtle-fill{fill-opacity:.2}#chart-b92f2a98-2767-4b88-883b-c125f951a742 .dot{stroke-width:1px;fill-opacity:1;stroke-opacity:1}#chart-b92f2a98-2767-4b88-883b-c125f951a742 .dot.active{stroke-width:5px}#chart-b92f2a98-2767-4b88-883b-c125f951a742 .dot.negative{fill:transparent}#chart-b92f2a98-2767-4b88-883b-c125f951a742 text,#chart-b92f2a98-2767-4b88-883b-c125f951a742 tspan{stroke:none !important}#chart-b92f2a98-2767-4b88-883b-c125f951a742 .series text.active{opacity:1}#chart-b92f2a98-2767-4b88-883b-c125f951a742 .tooltip rect{fill-opacity:.95;stroke-width:.5}#chart-b92f2a98-2767-4b88-883b-c125f951a742 .tooltip text{fill-opacity:1}#chart-b92f2a98-2767-4b88-883b-c125f951a742 .showable{visibility:hidden}#chart-b92f2a98-2767-4b88-883b-c125f951a742 .showable.shown{visibility:visible}#chart-b92f2a98-2767-4b88-883b-c125f951a742 .gauge-background{fill:rgba(229,229,229,1);stroke:none}#chart-b92f2a98-2767-4b88-883b-c125f951a742 .bg-lines{stroke:rgba(249,249,249,1);stroke-width:2px}</style><script type="text/javascript">window.pygal = window.pygal || {};window.pygal.config = window.pygal.config || {};window.pygal.config['b92f2a98-2767-4b88-883b-c125f951a742'] = {"allow_interruptions": false, "box_mode": "extremes", "classes": ["pygal-chart", "pygal-sparkline"], "css": ["file://style.css", "file://graph.css"], "defs": [], "disable_xml_declaration": false, "dots_size": 2.5, "dynamic_print_values": false, "explicit_size": true, "fill": false, "force_uri_protocol": "https", "formatter": null, "half_pie": false, "height": 50, "include_x_axis": false, "inner_radius": 0, "interpolate": "cubic", "interpolation_parameters": {}, "interpolation_precision": 250, "inverse_y_axis": false, "js": [], "legend_at_bottom": false, "legend_at_bottom_columns": null, "legend_box_size": 12, "logarithmic": false, "margin": 10, "margin_bottom": null, "margin_left": null, "margin_right": null, "margin_top": null, "max_scale": 2, "min_scale": 1, "missing_value_fill_truncation": "x", "no_data_text": "", "no_prefix": false, "order_min": null, "pretty_print": false, "print_labels": false, "print_values": false, "print_values_position": "center", "print_zeroes": true, "range": null, "rounded_bars": null, "secondary_range": null, "show_dots": false, "show_legend": false, "show_minor_x_labels": true, "show_minor_y_labels": true, "show_only_major_dots": false, "show_x_guides": false, "show_x_labels": false, "show_y_guides": true, "show_y_labels": true, "spacing": 0, "stack_from_top": false, "strict": false, "stroke": true, "stroke_style": null, "style": {"background": "rgba(249, 249, 249, 1)", "ci_colors": [], "colors": ["#F44336", "#3F51B5", "#009688", "#FFC107", "#FF5722", "#9C27B0", "#03A9F4", "#8BC34A", "#FF9800", "#E91E63", "#2196F3", "#4CAF50", "#FFEB3B", "#673AB7", "#00BCD4", "#CDDC39", "#9E9E9E", "#607D8B"], "dot_opacity": "1", "font_family": "Consolas, \"Liberation Mono\", Menlo, Courier, monospace", "foreground": "rgba(0, 0, 0, .87)", "foreground_strong": "rgba(0, 0, 0, 1)", "foreground_subtle": "rgba(0, 0, 0, .54)", "guide_stroke_color": "black", "guide_stroke_dasharray": "4,4", "label_font_family": "Consolas, \"Liberation Mono\", Menlo, Courier, monospace", "label_font_size": 10, "legend_font_family": "Consolas, \"Liberation Mono\", Menlo, Courier, monospace", "legend_font_size": 14, "major_guide_stroke_color": "black", "major_guide_stroke_dasharray": "6,6", "major_label_font_family": "Consolas, \"Liberation Mono\", Menlo, Courier, monospace", "major_label_font_size": 10, "no_data_font_family": "Consolas, \"Liberation Mono\", Menlo, Courier, monospace", "no_data_font_size": 64, "opacity": ".7", "opacity_hover": ".8", "plot_background": "rgba(255, 255, 255, 1)", "stroke_opacity": ".8", "stroke_opacity_hover": ".9", "stroke_width": "1", "stroke_width_hover": "4", "title_font_family": "Consolas, \"Liberation Mono\", Menlo, Courier, monospace", "title_font_size": 16, "tooltip_font_family": "Consolas, \"Liberation Mono\", Menlo, Courier, monospace", "tooltip_font_size": 14, "transition": "150ms", "value_background": "rgba(229, 229, 229, 1)", "value_colors": [], "value_font_family": "Consolas, \"Liberation Mono\", Menlo, Courier, monospace", "value_font_size": 16, "value_label_font_family": "Consolas, \"Liberation Mono\", Menlo, Courier, monospace", "value_label_font_size": 10}, "title": null, "tooltip_border_radius": 0, "tooltip_fancy_mode": true, "truncate_label": null, "truncate_legend": null, "width": 200, "x_label_rotation": 0, "x_labels": ["2025/1", "2024/12", "2024/11", "2024/10", "2024/9"], "x_labels_major": null, "x_labels_major_count": null, "x_labels_major_every": null, "x_title": null, "xrange": null, "y_label_rotation": 0, "y_labels": null, "y_labels_major": null, "y_labels_major_count": null, "y_labels_major_every": null, "y_title": null, "zero": 0, "legends": [""]}</script></defs><title>Pygal</title><g class="graph line-graph vertical"><rect x="0" y="0" width="200" height="50" class="background" /><g transform="translate(63, 10)" class="plot"><rect x="0" y="0" width="126.0" height="30" class="background" /><g class="axis y always_show"><path d="M0.000000 30.000000 h126.000000" class="line" /><g class="guides"><path d="M0.000000 29.423077 h126.000000" class="guide line" /><text x="-5" y="32.92307692307692" class="">2</text><title>2</title></g><g class="guides"><path d="M0.000000 0.576923 h126.000000" class="guide line" /><text x="-5" y="4.076923076923077" class="">10.123872</text><title>10.123872</title></g></g><g class="series serie-0 color-0"><path d="M2.423077 8.118344 L2.544231 8.223345 2.665385 8.328342 2.786538 8.433329 2.907692 8.538302 3.028846 8.643257 3.150000 8.748189 3.271154 8.853093 3.392308 8.957964 3.513462 9.062799 3.634615 9.167592 3.755769 9.272339 3.876923 9.377034 3.998077 9.481675 4.119231 9.586255 4.240385 9.690770 4.361538 9.795216 4.482692 9.899588 4.603846 10.003882 4.725000 10.108092 4.846154 10.212214 4.967308 10.316243 5.088462 10.420176 5.209615 10.524007 5.330769 10.627731 5.451923 10.731344 5.573077 10.834842 5.694231 10.938219 5.815385 11.041472 5.936538 11.144594 6.057692 11.247583 6.178846 11.350433 6.300000 11.453140 6.421154 11.555698 6.542308 11.658104 6.663462 11.760353 6.784615 11.862439 6.905769 11.964359 7.026923 12.066108 7.148077 12.167681 7.269231 12.269074 7.390385 12.370282 7.511538 12.471300 7.632692 12.572123 7.753846 12.672748 7.875000 12.773169 7.996154 12.873383 8.117308 12.973383 8.238462 13.073166 8.359615 13.172726 8.480769 13.272060 8.601923 13.371163 8.723077 13.470030 8.844231 13.568656 8.965385 13.667037 9.086538 13.765169 9.207692 13.863045 9.328846 13.960663 9.450000 14.058017 9.571154 14.155103 9.692308 14.251916 9.813462 14.348451 9.934615 14.444704 10.055769 14.540670 10.176923 14.636345 10.298077 14.731724 10.419231 14.826802 10.540385 14.921574 10.661538 15.016037 10.782692 15.110185 10.903846 15.204014 11.025000 15.297519 11.146154 15.390696 11.267308 15.483539 11.388462 15.576045 11.509615 15.668209 11.630769 15.760025 11.751923 15.851490 11.873077 15.942599 11.994231 16.033347 12.115385 16.123729 12.236538 16.213742 12.357692 16.303379 12.478846 16.392638 12.600000 16.481512 12.721154 16.569998 12.842308 16.658090 12.963462 16.745785 13.084615 16.833077 13.205769 16.919962 13.326923 17.006435 13.448077 17.092492 13.569231 17.178128 13.690385 17.263338 13.811538 17.348119 13.932692 17.432464 14.053846 17.516370 14.175000 17.599831 14.296154 17.682844 14.417308 17.765404 14.538462 17.847505 14.659615 17.929144 14.780769 18.010316 14.901923 18.091016 15.023077 18.171239 15.144231 18.250982 15.265385 18.330238 15.386538 18.409004 15.507692 18.487275 15.628846 18.565047 15.750000 18.642314 15.871154 18.719072 15.992308 18.795317 16.113462 18.871044 16.234615 18.946248 16.355769 19.020924 16.476923 19.095069 16.598077 19.168677 16.719231 19.241744 16.840385 19.314264 16.961538 19.386235 17.082692 19.457650 17.203846 19.528505 17.325000 19.598796 17.446154 19.668518 17.567308 19.737666 17.688462 19.806236 17.809615 19.874224 17.930769 19.941623 18.051923 20.008431 18.173077 20.074641 18.294231 20.140251 18.415385 20.205254 18.536538 20.269646 18.657692 20.333424 18.778846 20.396581 18.900000 20.459114 19.021154 20.521018 19.142308 20.582288 19.263462 20.642919 19.384615 20.702908 19.505769 20.762249 19.626923 20.820937 19.748077 20.878969 19.869231 20.936339 19.990385 20.993043 20.111538 21.049076 20.232692 21.104433 20.353846 21.159111 20.475000 21.213104 20.596154 21.266408 20.717308 21.319018 20.838462 21.370929 20.959615 21.422137 21.080769 21.472637 21.201923 21.522425 21.323077 21.571495 21.444231 21.619844 21.565385 21.667467 21.686538 21.714359 21.807692 21.760515 21.928846 21.805931 22.050000 21.850603 22.171154 21.894524 22.292308 21.937692 22.413462 21.980101 22.534615 22.021747 22.655769 22.062625 22.776923 22.102730 22.898077 22.142058 23.019231 22.180604 23.140385 22.218364 23.261538 22.255332 23.382692 22.291505 23.503846 22.326878 23.625000 22.361446 23.746154 22.395204 23.867308 22.428148 23.988462 22.460273 24.109615 22.491574 24.230769 22.522048 24.351923 22.551689 24.473077 22.580492 24.594231 22.608454 24.715385 22.635569 24.836538 22.661832 24.957692 22.687240 25.078846 22.711788 25.200000 22.735470 25.321154 22.758282 25.442308 22.780221 25.563462 22.801280 25.684615 22.821456 25.805769 22.840743 25.926923 22.859138 26.048077 22.876635 26.169231 22.893230 26.290385 22.908918 26.411538 22.923695 26.532692 22.937556 26.653846 22.950496 26.775000 22.962511 26.896154 22.973597 27.017308 22.983747 27.138462 22.992959 27.259615 23.001227 27.380769 23.008546 27.501923 23.014913 27.623077 23.020322 27.744231 23.024768 27.865385 23.028248 27.986538 23.030757 28.107692 23.032289 28.228846 23.032840 28.350000 23.032406 28.471154 23.030982 28.592308 23.028564 28.713462 23.025146 28.834615 23.020724 28.955769 23.015294 29.076923 23.008851 29.198077 23.001390 29.319231 22.992906 29.440385 22.983396 29.561538 22.972854 29.682692 22.961275 29.803846 22.948656 29.925000 22.934991 30.046154 22.920276 30.167308 22.904507 30.288462 22.887678 30.409615 22.869785 30.530769 22.850823 30.651923 22.830788 30.773077 22.809675 30.894231 22.787479 31.015385 22.764197 31.136538 22.739823 31.257692 22.714352 31.378846 22.687780 31.500000 22.660103 31.621154 22.631315 31.742308 22.601412 31.863462 22.570390 31.984615 22.538244 32.105769 22.504969 32.226923 22.470560 32.348077 22.435013 32.469231 22.398324 32.590385 22.360488 32.711538 22.321499 32.832692 22.281357 32.953846 22.240067 33.075000 22.197640 33.196154 22.154085 33.317308 22.109411 33.438462 22.063628 33.559615 22.016745 33.680769 21.968773 33.801923 21.919720 33.923077 21.869595 34.044231 21.818410 34.165385 21.766172 34.286538 21.712891 34.407692 21.658578 34.528846 21.603241 34.650000 21.546889 34.771154 21.489534 34.892308 21.431183 35.013462 21.371846 35.134615 21.311533 35.255769 21.250254 35.376923 21.188017 35.498077 21.124833 35.619231 21.060711 35.740385 20.995660 35.861538 20.929690 35.982692 20.862810 36.103846 20.795031 36.225000 20.726360 36.346154 20.656808 36.467308 20.586385 36.588462 20.515099 36.709615 20.442961 36.830769 20.369980 36.951923 20.296165 37.073077 20.221526 37.194231 20.146072 37.315385 20.069813 37.436538 19.992758 37.557692 19.914917 37.678846 19.836299 37.800000 19.756914 37.921154 19.676771 38.042308 19.595880 38.163462 19.514251 38.284615 19.431892 38.405769 19.348813 38.526923 19.265024 38.648077 19.180535 38.769231 19.095354 38.890385 19.009491 39.011538 18.922957 39.132692 18.835759 39.253846 18.747908 39.375000 18.659414 39.496154 18.570285 39.617308 18.480531 39.738462 18.390162 39.859615 18.299187 39.980769 18.207616 40.101923 18.115458 40.223077 18.022723 40.344231 17.929420 40.465385 17.835559 40.586538 17.741149 40.707692 17.646200 40.828846 17.550721 40.950000 17.454721 41.071154 17.358211 41.192308 17.261199 41.313462 17.163696 41.434615 17.065710 41.555769 16.967251 41.676923 16.868329 41.798077 16.768953 41.919231 16.669133 42.040385 16.568878 42.161538 16.468198 42.282692 16.367101 42.403846 16.265599 42.525000 16.163699 42.646154 16.061412 42.767308 15.958747 42.888462 15.855714 43.009615 15.752322 43.130769 15.648580 43.251923 15.544499 43.373077 15.440087 43.494231 15.335354 43.615385 15.230310 43.736538 15.124964 43.857692 15.019326 43.978846 14.913404 44.100000 14.807209 44.221154 14.700751 44.342308 14.594037 44.463462 14.487079 44.584615 14.379886 44.705769 14.272466 44.826923 14.164830 44.948077 14.056987 45.069231 13.948947 45.190385 13.840718 45.311538 13.732311 45.432692 13.623736 45.553846 13.515000 45.675000 13.406115 45.796154 13.297089 45.917308 13.187932 46.038462 13.078654 46.159615 12.969264 46.280769 12.859771 46.401923 12.750185 46.523077 12.640516 46.644231 12.530772 46.765385 12.420964 46.886538 12.311102 47.007692 12.201193 47.128846 12.091249 47.250000 11.981278 47.371154 11.871290 47.492308 11.761294 47.613462 11.651300 47.734615 11.541318 47.855769 11.431357 47.976923 11.321426 48.098077 11.211535 48.219231 11.101694 48.340385 10.991911 48.461538 10.882197 48.582692 10.772561 48.703846 10.663012 48.825000 10.553560 48.946154 10.444214 49.067308 10.334985 49.188462 10.225881 49.309615 10.116911 49.430769 10.008086 49.551923 9.899415 49.673077 9.790908 49.794231 9.682573 49.915385 9.574420 50.036538 9.466460 50.157692 9.358701 50.278846 9.251152 50.400000 9.143824 50.521154 9.036726 50.642308 8.929867 50.763462 8.823257 50.884615 8.716906 51.005769 8.610822 51.126923 8.505015 51.248077 8.399496 51.369231 8.294272 51.490385 8.189355 51.611538 8.084753 51.732692 7.980475 51.853846 7.876532 51.975000 7.772933 52.096154 7.669687 52.217308 7.566803 52.338462 7.464292 52.459615 7.362163 52.580769 7.260425 52.701923 7.159088 52.823077 7.058161 52.944231 6.957654 53.065385 6.857577 53.186538 6.757937 53.307692 6.658747 53.428846 6.560014 53.550000 6.461748 53.671154 6.363959 53.792308 6.266656 53.913462 6.169849 54.034615 6.073547 54.155769 5.977760 54.276923 5.882497 54.398077 5.787767 54.519231 5.693581 54.640385 5.599948 54.761538 5.506877 54.882692 5.414377 55.003846 5.322459 55.125000 5.231132 55.246154 5.140404 55.367308 5.050287 55.488462 4.960788 55.609615 4.871918 55.730769 4.783687 55.851923 4.696103 55.973077 4.609176 56.094231 4.522916 56.215385 4.437332 56.336538 4.352433 56.457692 4.268230 56.578846 4.184731 56.700000 4.101947 56.821154 4.019886 56.942308 3.938558 57.063462 3.857973 57.184615 3.778140 57.305769 3.699069 57.426923 3.620769 57.548077 3.543249 57.669231 3.466519 57.790385 3.390590 57.911538 3.315469 58.032692 3.241166 58.153846 3.167692 58.275000 3.095056 58.396154 3.023266 58.517308 2.952333 58.638462 2.882266 58.759615 2.813075 58.880769 2.744769 59.001923 2.677357 59.123077 2.610849 59.244231 2.545255 59.365385 2.480584 59.486538 2.416846 59.607692 2.354049 59.728846 2.292204 59.850000 2.231320 59.971154 2.171407 60.092308 2.112473 60.213462 2.054530 60.334615 1.997585 60.455769 1.941648 60.576923 1.886730 60.698077 1.832839 60.819231 1.779985 60.940385 1.728178 61.061538 1.677426 61.182692 1.627740 61.303846 1.579130 61.425000 1.531603 61.546154 1.485171 61.667308 1.439841 61.788462 1.395625 61.909615 1.352532 62.030769 1.310570 62.151923 1.269750 62.273077 1.230081 62.394231 1.191572 62.515385 1.154233 62.636538 1.118073 62.757692 1.083103 62.878846 1.049331 63.000000 1.016766 63.121154 0.985417 63.242308 0.955279 63.363462 0.926346 63.484615 0.898612 63.605769 0.872072 63.726923 0.846718 63.848077 0.822545 63.969231 0.799547 64.090385 0.777718 64.211538 0.757052 64.332692 0.737541 64.453846 0.719182 64.575000 0.701967 64.696154 0.685890 64.817308 0.670945 64.938462 0.657126 65.059615 0.644428 65.180769 0.632843 65.301923 0.622366 65.423077 0.612991 65.544231 0.604712 65.665385 0.597522 65.786538 0.591415 65.907692 0.586386 66.028846 0.582429 66.150000 0.579536 66.271154 0.577703 66.392308 0.576923 66.513462 0.577190 66.634615 0.578498 66.755769 0.580840 66.876923 0.584211 66.998077 0.588605 67.119231 0.594016 67.240385 0.600436 67.361538 0.607862 67.482692 0.616285 67.603846 0.625701 67.725000 0.636103 67.846154 0.647484 67.967308 0.659840 68.088462 0.673164 68.209615 0.687449 68.330769 0.702690 68.451923 0.718881 68.573077 0.736015 68.694231 0.754086 68.815385 0.773089 68.936538 0.793017 69.057692 0.813864 69.178846 0.835624 69.300000 0.858292 69.421154 0.881860 69.542308 0.906323 69.663462 0.931674 69.784615 0.957909 69.905769 0.985019 70.026923 1.013001 70.148077 1.041846 70.269231 1.071550 70.390385 1.102106 70.511538 1.133508 70.632692 1.165750 70.753846 1.198826 70.875000 1.232730 70.996154 1.267456 71.117308 1.302998 71.238462 1.339348 71.359615 1.376503 71.480769 1.414455 71.601923 1.453198 71.723077 1.492726 71.844231 1.533034 71.965385 1.574114 72.086538 1.615962 72.207692 1.658570 72.328846 1.701934 72.450000 1.746046 72.571154 1.790900 72.692308 1.836491 72.813462 1.882813 72.934615 1.929859 73.055769 1.977623 73.176923 2.026099 73.298077 2.075282 73.419231 2.125164 73.540385 2.175741 73.661538 2.227005 73.782692 2.278951 73.903846 2.331573 74.025000 2.384864 74.146154 2.438819 74.267308 2.493431 74.388462 2.548694 74.509615 2.604603 74.630769 2.661151 74.751923 2.718332 74.873077 2.776140 74.994231 2.834568 75.115385 2.893612 75.236538 2.953264 75.357692 3.013519 75.478846 3.074370 75.600000 3.135812 75.721154 3.197838 75.842308 3.260443 75.963462 3.323620 76.084615 3.387362 76.205769 3.451665 76.326923 3.516522 76.448077 3.581926 76.569231 3.647872 76.690385 3.714354 76.811538 3.781366 76.932692 3.848901 77.053846 3.916953 77.175000 3.985517 77.296154 4.054586 77.417308 4.124154 77.538462 4.194215 77.659615 4.264763 77.780769 4.335792 77.901923 4.407296 78.023077 4.479268 78.144231 4.551703 78.265385 4.624595 78.386538 4.697937 78.507692 4.771724 78.628846 4.845948 78.750000 4.920605 78.871154 4.995688 78.992308 5.071191 79.113462 5.147108 79.234615 5.223433 79.355769 5.300159 79.476923 5.377281 79.598077 5.454793 79.719231 5.532688 79.840385 5.610961 79.961538 5.689604 80.082692 5.768614 80.203846 5.847982 80.325000 5.927703 80.446154 6.007771 80.567308 6.088181 80.688462 6.168924 80.809615 6.249997 80.930769 6.331392 81.051923 6.413104 81.173077 6.495126 81.294231 6.577453 81.415385 6.660078 81.536538 6.742995 81.657692 6.826198 81.778846 6.909681 81.900000 6.993438 82.021154 7.077463 82.142308 7.161749 82.263462 7.246292 82.384615 7.331083 82.505769 7.416119 82.626923 7.501391 82.748077 7.586895 82.869231 7.672625 82.990385 7.758573 83.111538 7.844734 83.232692 7.931103 83.353846 8.017672 83.475000 8.104436 83.596154 8.191389 83.717308 8.278524 83.838462 8.365836 83.959615 8.453318 84.080769 8.540965 84.201923 8.628770 84.323077 8.716727 84.444231 8.804830 84.565385 8.893073 84.686538 8.981450 84.807692 9.069955 84.928846 9.158582 85.050000 9.247324 85.171154 9.336176 85.292308 9.425132 85.413462 9.514184 85.534615 9.603329 85.655769 9.692558 85.776923 9.781866 85.898077 9.871248 86.019231 9.960696 86.140385 10.050205 86.261538 10.139770 86.382692 10.229382 86.503846 10.319038 86.625000 10.408730 86.746154 10.498452 86.867308 10.588199 86.988462 10.677964 87.109615 10.767741 87.230769 10.857524 87.351923 10.947307 87.473077 11.037084 87.594231 11.126849 87.715385 11.216596 87.836538 11.306318 87.957692 11.396010 88.078846 11.485666 88.200000 11.575278 88.321154 11.664842 88.442308 11.754352 88.563462 11.843800 88.684615 11.933182 88.805769 12.022490 88.926923 12.111719 89.048077 12.200863 89.169231 12.289916 89.290385 12.378872 89.411538 12.467724 89.532692 12.556466 89.653846 12.645093 89.775000 12.733597 89.896154 12.821975 90.017308 12.910218 90.138462 12.998321 90.259615 13.086278 90.380769 13.174083 90.501923 13.261730 90.623077 13.349212 90.744231 13.436524 90.865385 13.523659 90.986538 13.610612 91.107692 13.697376 91.228846 13.783945 91.350000 13.870313 91.471154 13.956475 91.592308 14.042423 91.713462 14.128153 91.834615 14.213657 91.955769 14.298929 92.076923 14.383965 92.198077 14.468756 92.319231 14.553299 92.440385 14.637585 92.561538 14.721610 92.682692 14.805367 92.803846 14.888850 92.925000 14.972053 93.046154 15.054970 93.167308 15.137595 93.288462 15.219922 93.409615 15.301945 93.530769 15.383665 93.651923 15.465084 93.773077 15.546201 93.894231 15.627020 94.015385 15.707540 94.136538 15.787762 94.257692 15.867689 94.378846 15.947322 94.500000 16.026661 94.621154 16.105708 94.742308 16.184464 94.863462 16.262930 94.984615 16.341107 95.105769 16.418998 95.226923 16.496602 95.348077 16.573921 95.469231 16.650957 95.590385 16.727710 95.711538 16.804182 95.832692 16.880374 95.953846 16.956287 96.075000 17.031923 96.196154 17.107282 96.317308 17.182367 96.438462 17.257177 96.559615 17.331714 96.680769 17.405980 96.801923 17.479976 96.923077 17.553703 97.044231 17.627162 97.165385 17.700354 97.286538 17.773281 97.407692 17.845944 97.528846 17.918344 97.650000 17.990482 97.771154 18.062359 97.892308 18.133977 98.013462 18.205337 98.134615 18.276441 98.255769 18.347288 98.376923 18.417881 98.498077 18.488221 98.619231 18.558309 98.740385 18.628146 98.861538 18.697734 98.982692 18.767073 99.103846 18.836165 99.225000 18.905011 99.346154 18.973613 99.467308 19.041971 99.588462 19.110086 99.709615 19.177961 99.830769 19.245596 99.951923 19.312992 100.073077 19.380151 100.194231 19.447073 100.315385 19.513761 100.436538 19.580215 100.557692 19.646436 100.678846 19.712427 100.800000 19.778187 100.921154 19.843718 101.042308 19.909021 101.163462 19.974098 101.284615 20.038950 101.405769 20.103578 101.526923 20.167983 101.648077 20.232166 101.769231 20.296129 101.890385 20.359873 102.011538 20.423399 102.132692 20.486709 102.253846 20.549803 102.375000 20.612682 102.496154 20.675349 102.617308 20.737803 102.738462 20.800048 102.859615 20.862082 102.980769 20.923909 103.101923 20.985528 103.223077 21.046942 103.344231 21.108152 103.465385 21.169158 103.586538 21.229961 103.707692 21.290564 103.828846 21.350968 103.950000 21.411173 104.071154 21.471181 104.192308 21.530992 104.313462 21.590609 104.434615 21.650033 104.555769 21.709264 104.676923 21.768303 104.798077 21.827153 104.919231 21.885815 105.040385 21.944288 105.161538 22.002576 105.282692 22.060678 105.403846 22.118597 105.525000 22.176333 105.646154 22.233888 105.767308 22.291262 105.888462 22.348458 106.009615 22.405475 106.130769 22.462317 106.251923 22.518983 106.373077 22.575474 106.494231 22.631793 106.615385 22.687941 106.736538 22.743918 106.857692 22.799725 106.978846 22.855365 107.100000 22.910838 107.221154 22.966145 107.342308 23.021288 107.463462 23.076268 107.584615 23.131086 107.705769 23.185743 107.826923 23.240241 107.948077 23.294580 108.069231 23.348762 108.190385 23.402789 108.311538 23.456661 108.432692 23.510379 108.553846 23.563946 108.675000 23.617361 108.796154 23.670627 108.917308 23.723744 109.038462 23.776714 109.159615 23.829538 109.280769 23.882217 109.401923 23.934752 109.523077 23.987145 109.644231 24.039396 109.765385 24.091508 109.886538 24.143481 110.007692 24.195316 110.128846 24.247015 110.250000 24.298579 110.371154 24.350008 110.492308 24.401305 110.613462 24.452471 110.734615 24.503506 110.855769 24.554413 110.976923 24.605191 111.098077 24.655843 111.219231 24.706370 111.340385 24.756772 111.461538 24.807051 111.582692 24.857209 111.703846 24.907246 111.825000 24.957164 111.946154 25.006964 112.067308 25.056647 112.188462 25.106214 112.309615 25.155666 112.430769 25.205006 112.551923 25.254234 112.673077 25.303350 112.794231 25.352357 112.915385 25.401256 113.036538 25.450048 113.157692 25.498734 113.278846 25.547315 113.400000 25.595792 113.521154 25.644168 113.642308 25.692442 113.763462 25.740617 113.884615 25.788692 114.005769 25.836671 114.126923 25.884553 114.248077 25.932340 114.369231 25.980034 114.490385 26.027635 114.611538 26.075145 114.732692 26.122565 114.853846 26.169895 114.975000 26.217138 115.096154 26.264295 115.217308 26.311367 115.338462 26.358354 115.459615 26.405259 115.580769 26.452082 115.701923 26.498825 115.823077 26.545488 115.944231 26.592074 116.065385 26.638583 116.186538 26.685017 116.307692 26.731376 116.428846 26.777662 116.550000 26.823877 116.671154 26.870021 116.792308 26.916095 116.913462 26.962101 117.034615 27.008041 117.155769 27.053914 117.276923 27.099723 117.398077 27.145469 117.519231 27.191153 117.640385 27.236775 117.761538 27.282338 117.882692 27.327843 118.003846 27.373291 118.125000 27.418682 118.246154 27.464019 118.367308 27.509302 118.488462 27.554533 118.609615 27.599712 118.730769 27.644842 118.851923 27.689923 118.973077 27.734956 119.094231 27.779944 119.215385 27.824886 119.336538 27.869784 119.457692 27.914640 119.578846 27.959455 119.700000 28.004229 119.821154 28.048964 119.942308 28.093662 120.063462 28.138323 120.184615 28.182948 120.305769 28.227540 120.426923 28.272099 120.548077 28.316626 120.669231 28.361122 120.790385 28.405590 120.911538 28.450029 121.032692 28.494442 121.153846 28.538829 121.275000 28.583192 121.396154 28.627531 121.517308 28.671849 121.638462 28.716146 121.759615 28.760424 121.880769 28.804683 122.001923 28.848925 122.123077 28.893152 122.244231 28.937363 122.365385 28.981562 122.486538 29.025748 122.607692 29.069923 122.728846 29.114089 122.850000 29.158246 122.971154 29.202395 123.092308 29.246539 123.213462 29.290678 123.334615 29.334813 123.455769 29.378945 123.576923 29.423077" class="line reactive nofill" /></g></g><g class="titles" /><g transform="translate(63, 10)" class="plot overlay"><g class="series serie-0 color-0" /></g><g transform="translate(63, 10)" class="plot text-overlay"><g class="series serie-0 color-0" /></g><g transform="translate(63, 10)" class="plot tooltip-overlay"><g transform="translate(0 0)" style="opacity: 0" class="tooltip"><rect rx="0" ry="0" width="0" height="0" class="tooltip-box" /><g class="text" /></g></g></g></svg>