<?xml version='1.0' encoding='utf-8'?>
<svg xmlns="http://www.w3.org/2000/svg" id="chart-a560e4ec-41ce-4993-9e45-619aeda1f544" class="pygal-chart pygal-sparkline" viewBox="0 0 200 50" width="200" height="50"><!--Generated with pygal 3.0.5 (etree) ©Kozea 2012-2016 on 2025-03-23--><!--http://pygal.org--><!--http://github.com/Kozea/pygal--><defs><style type="text/css">#chart-a560e4ec-41ce-4993-9e45-619aeda1f544{-webkit-user-select:none;-webkit-font-smoothing:antialiased;font-family:Consolas,"Liberation Mono",Menlo,Courier,monospace}#chart-a560e4ec-41ce-4993-9e45-619aeda1f544 .title{font-family:Consolas,"Liberation Mono",Menlo,Courier,monospace;font-size:16px}#chart-a560e4ec-41ce-4993-9e45-619aeda1f544 .legends .legend text{font-family:Consolas,"Liberation Mono",Menlo,Courier,monospace;font-size:14px}#chart-a560e4ec-41ce-4993-9e45-619aeda1f544 .axis text{font-family:Consolas,"Liberation Mono",Menlo,Courier,monospace;font-size:10px}#chart-a560e4ec-41ce-4993-9e45-619aeda1f544 .axis text.major{font-family:Consolas,"Liberation Mono",Menlo,Courier,monospace;font-size:10px}#chart-a560e4ec-41ce-4993-9e45-619aeda1f544 .text-overlay text.value{font-family:Consolas,"Liberation Mono",Menlo,Courier,monospace;font-size:16px}#chart-a560e4ec-41ce-4993-9e45-619aeda1f544 .text-overlay text.label{font-family:Consolas,"Liberation Mono",Menlo,Courier,monospace;font-size:10px}#chart-a560e4ec-41ce-4993-9e45-619aeda1f544 .tooltip{font-family:Consolas,"Liberation Mono",Menlo,Courier,monospace;font-size:14px}#chart-a560e4ec-41ce-4993-9e45-619aeda1f544 text.no_data{font-family:Consolas,"Liberation Mono",Menlo,Courier,monospace;font-size:64px}
#chart-a560e4ec-41ce-4993-9e45-619aeda1f544{background-color:rgba(249,249,249,1)}#chart-a560e4ec-41ce-4993-9e45-619aeda1f544 path,#chart-a560e4ec-41ce-4993-9e45-619aeda1f544 line,#chart-a560e4ec-41ce-4993-9e45-619aeda1f544 rect,#chart-a560e4ec-41ce-4993-9e45-619aeda1f544 circle{-webkit-transition:150ms;-moz-transition:150ms;transition:150ms}#chart-a560e4ec-41ce-4993-9e45-619aeda1f544 .graph &gt; .background{fill:rgba(249,249,249,1)}#chart-a560e4ec-41ce-4993-9e45-619aeda1f544 .plot &gt; .background{fill:rgba(255,255,255,1)}#chart-a560e4ec-41ce-4993-9e45-619aeda1f544 .graph{fill:rgba(0,0,0,.87)}#chart-a560e4ec-41ce-4993-9e45-619aeda1f544 text.no_data{fill:rgba(0,0,0,1)}#chart-a560e4ec-41ce-4993-9e45-619aeda1f544 .title{fill:rgba(0,0,0,1)}#chart-a560e4ec-41ce-4993-9e45-619aeda1f544 .legends .legend text{fill:rgba(0,0,0,.87)}#chart-a560e4ec-41ce-4993-9e45-619aeda1f544 .legends .legend:hover text{fill:rgba(0,0,0,1)}#chart-a560e4ec-41ce-4993-9e45-619aeda1f544 .axis .line{stroke:rgba(0,0,0,1)}#chart-a560e4ec-41ce-4993-9e45-619aeda1f544 .axis .guide.line{stroke:rgba(0,0,0,.54)}#chart-a560e4ec-41ce-4993-9e45-619aeda1f544 .axis .major.line{stroke:rgba(0,0,0,.87)}#chart-a560e4ec-41ce-4993-9e45-619aeda1f544 .axis text.major{fill:rgba(0,0,0,1)}#chart-a560e4ec-41ce-4993-9e45-619aeda1f544 .axis.y .guides:hover .guide.line,#chart-a560e4ec-41ce-4993-9e45-619aeda1f544 .line-graph .axis.x .guides:hover .guide.line,#chart-a560e4ec-41ce-4993-9e45-619aeda1f544 .stackedline-graph .axis.x .guides:hover .guide.line,#chart-a560e4ec-41ce-4993-9e45-619aeda1f544 .xy-graph .axis.x .guides:hover .guide.line{stroke:rgba(0,0,0,1)}#chart-a560e4ec-41ce-4993-9e45-619aeda1f544 .axis .guides:hover text{fill:rgba(0,0,0,1)}#chart-a560e4ec-41ce-4993-9e45-619aeda1f544 .reactive{fill-opacity:.7;stroke-opacity:.8;stroke-width:1}#chart-a560e4ec-41ce-4993-9e45-619aeda1f544 .ci{stroke:rgba(0,0,0,.87)}#chart-a560e4ec-41ce-4993-9e45-619aeda1f544 .reactive.active,#chart-a560e4ec-41ce-4993-9e45-619aeda1f544 .active .reactive{fill-opacity:.8;stroke-opacity:.9;stroke-width:4}#chart-a560e4ec-41ce-4993-9e45-619aeda1f544 .ci .reactive.active{stroke-width:1.5}#chart-a560e4ec-41ce-4993-9e45-619aeda1f544 .series text{fill:rgba(0,0,0,1)}#chart-a560e4ec-41ce-4993-9e45-619aeda1f544 .tooltip rect{fill:rgba(255,255,255,1);stroke:rgba(0,0,0,1);-webkit-transition:opacity 150ms;-moz-transition:opacity 150ms;transition:opacity 150ms}#chart-a560e4ec-41ce-4993-9e45-619aeda1f544 .tooltip .label{fill:rgba(0,0,0,.87)}#chart-a560e4ec-41ce-4993-9e45-619aeda1f544 .tooltip .label{fill:rgba(0,0,0,.87)}#chart-a560e4ec-41ce-4993-9e45-619aeda1f544 .tooltip .legend{font-size:.8em;fill:rgba(0,0,0,.54)}#chart-a560e4ec-41ce-4993-9e45-619aeda1f544 .tooltip .x_label{font-size:.6em;fill:rgba(0,0,0,1)}#chart-a560e4ec-41ce-4993-9e45-619aeda1f544 .tooltip .xlink{font-size:.5em;text-decoration:underline}#chart-a560e4ec-41ce-4993-9e45-619aeda1f544 .tooltip .value{font-size:1.5em}#chart-a560e4ec-41ce-4993-9e45-619aeda1f544 .bound{font-size:.5em}#chart-a560e4ec-41ce-4993-9e45-619aeda1f544 .max-value{font-size:.75em;fill:rgba(0,0,0,.54)}#chart-a560e4ec-41ce-4993-9e45-619aeda1f544 .map-element{fill:rgba(255,255,255,1);stroke:rgba(0,0,0,.54) !important}#chart-a560e4ec-41ce-4993-9e45-619aeda1f544 .map-element .reactive{fill-opacity:inherit;stroke-opacity:inherit}#chart-a560e4ec-41ce-4993-9e45-619aeda1f544 .color-0,#chart-a560e4ec-41ce-4993-9e45-619aeda1f544 .color-0 a:visited{stroke:#F44336;fill:#F44336}#chart-a560e4ec-41ce-4993-9e45-619aeda1f544 .text-overlay .color-0 text{fill:black}
#chart-a560e4ec-41ce-4993-9e45-619aeda1f544 text.no_data{text-anchor:middle}#chart-a560e4ec-41ce-4993-9e45-619aeda1f544 .guide.line{fill:none}#chart-a560e4ec-41ce-4993-9e45-619aeda1f544 .centered{text-anchor:middle}#chart-a560e4ec-41ce-4993-9e45-619aeda1f544 .title{text-anchor:middle}#chart-a560e4ec-41ce-4993-9e45-619aeda1f544 .legends .legend text{fill-opacity:1}#chart-a560e4ec-41ce-4993-9e45-619aeda1f544 .axis.x text{text-anchor:middle}#chart-a560e4ec-41ce-4993-9e45-619aeda1f544 .axis.x:not(.web) text[transform]{text-anchor:start}#chart-a560e4ec-41ce-4993-9e45-619aeda1f544 .axis.x:not(.web) text[transform].backwards{text-anchor:end}#chart-a560e4ec-41ce-4993-9e45-619aeda1f544 .axis.y text{text-anchor:end}#chart-a560e4ec-41ce-4993-9e45-619aeda1f544 .axis.y text[transform].backwards{text-anchor:start}#chart-a560e4ec-41ce-4993-9e45-619aeda1f544 .axis.y2 text{text-anchor:start}#chart-a560e4ec-41ce-4993-9e45-619aeda1f544 .axis.y2 text[transform].backwards{text-anchor:end}#chart-a560e4ec-41ce-4993-9e45-619aeda1f544 .axis .guide.line{stroke-dasharray:4,4;stroke:black}#chart-a560e4ec-41ce-4993-9e45-619aeda1f544 .axis .major.guide.line{stroke-dasharray:6,6;stroke:black}#chart-a560e4ec-41ce-4993-9e45-619aeda1f544 .horizontal .axis.y .guide.line,#chart-a560e4ec-41ce-4993-9e45-619aeda1f544 .horizontal .axis.y2 .guide.line,#chart-a560e4ec-41ce-4993-9e45-619aeda1f544 .vertical .axis.x .guide.line{opacity:0}#chart-a560e4ec-41ce-4993-9e45-619aeda1f544 .horizontal .axis.always_show .guide.line,#chart-a560e4ec-41ce-4993-9e45-619aeda1f544 .vertical .axis.always_show .guide.line{opacity:1 !important}#chart-a560e4ec-41ce-4993-9e45-619aeda1f544 .axis.y .guides:hover .guide.line,#chart-a560e4ec-41ce-4993-9e45-619aeda1f544 .axis.y2 .guides:hover .guide.line,#chart-a560e4ec-41ce-4993-9e45-619aeda1f544 .axis.x .guides:hover .guide.line{opacity:1}#chart-a560e4ec-41ce-4993-9e45-619aeda1f544 .axis .guides:hover text{opacity:1}#chart-a560e4ec-41ce-4993-9e45-619aeda1f544 .nofill{fill:none}#chart-a560e4ec-41ce-4993-9e45-619aeda1f544 .subtle-fill{fill-opacity:.2}#chart-a560e4ec-41ce-4993-9e45-619aeda1f544 .dot{stroke-width:1px;fill-opacity:1;stroke-opacity:1}#chart-a560e4ec-41ce-4993-9e45-619aeda1f544 .dot.active{stroke-width:5px}#chart-a560e4ec-41ce-4993-9e45-619aeda1f544 .dot.negative{fill:transparent}#chart-a560e4ec-41ce-4993-9e45-619aeda1f544 text,#chart-a560e4ec-41ce-4993-9e45-619aeda1f544 tspan{stroke:none !important}#chart-a560e4ec-41ce-4993-9e45-619aeda1f544 .series text.active{opacity:1}#chart-a560e4ec-41ce-4993-9e45-619aeda1f544 .tooltip rect{fill-opacity:.95;stroke-width:.5}#chart-a560e4ec-41ce-4993-9e45-619aeda1f544 .tooltip text{fill-opacity:1}#chart-a560e4ec-41ce-4993-9e45-619aeda1f544 .showable{visibility:hidden}#chart-a560e4ec-41ce-4993-9e45-619aeda1f544 .showable.shown{visibility:visible}#chart-a560e4ec-41ce-4993-9e45-619aeda1f544 .gauge-background{fill:rgba(229,229,229,1);stroke:none}#chart-a560e4ec-41ce-4993-9e45-619aeda1f544 .bg-lines{stroke:rgba(249,249,249,1);stroke-width:2px}</style><script type="text/javascript">window.pygal = window.pygal || {};window.pygal.config = window.pygal.config || {};window.pygal.config['a560e4ec-41ce-4993-9e45-619aeda1f544'] = {"allow_interruptions": false, "box_mode": "extremes", "classes": ["pygal-chart", "pygal-sparkline"], "css": ["file://style.css", "file://graph.css"], "defs": [], "disable_xml_declaration": false, "dots_size": 2.5, "dynamic_print_values": false, "explicit_size": true, "fill": false, "force_uri_protocol": "https", "formatter": null, "half_pie": false, "height": 50, "include_x_axis": false, "inner_radius": 0, "interpolate": "cubic", "interpolation_parameters": {}, "interpolation_precision": 250, "inverse_y_axis": false, "js": [], "legend_at_bottom": false, "legend_at_bottom_columns": null, "legend_box_size": 12, "logarithmic": false, "margin": 10, "margin_bottom": null, "margin_left": null, "margin_right": null, "margin_top": null, "max_scale": 2, "min_scale": 1, "missing_value_fill_truncation": "x", "no_data_text": "", "no_prefix": false, "order_min": null, "pretty_print": false, "print_labels": false, "print_values": false, "print_values_position": "center", "print_zeroes": true, "range": null, "rounded_bars": null, "secondary_range": null, "show_dots": false, "show_legend": false, "show_minor_x_labels": true, "show_minor_y_labels": true, "show_only_major_dots": false, "show_x_guides": false, "show_x_labels": false, "show_y_guides": true, "show_y_labels": true, "spacing": 0, "stack_from_top": false, "strict": false, "stroke": true, "stroke_style": null, "style": {"background": "rgba(249, 249, 249, 1)", "ci_colors": [], "colors": ["#F44336", "#3F51B5", "#009688", "#FFC107", "#FF5722", "#9C27B0", "#03A9F4", "#8BC34A", "#FF9800", "#E91E63", "#2196F3", "#4CAF50", "#FFEB3B", "#673AB7", "#00BCD4", "#CDDC39", "#9E9E9E", "#607D8B"], "dot_opacity": "1", "font_family": "Consolas, \"Liberation Mono\", Menlo, Courier, monospace", "foreground": "rgba(0, 0, 0, .87)", "foreground_strong": "rgba(0, 0, 0, 1)", "foreground_subtle": "rgba(0, 0, 0, .54)", "guide_stroke_color": "black", "guide_stroke_dasharray": "4,4", "label_font_family": "Consolas, \"Liberation Mono\", Menlo, Courier, monospace", "label_font_size": 10, "legend_font_family": "Consolas, \"Liberation Mono\", Menlo, Courier, monospace", "legend_font_size": 14, "major_guide_stroke_color": "black", "major_guide_stroke_dasharray": "6,6", "major_label_font_family": "Consolas, \"Liberation Mono\", Menlo, Courier, monospace", "major_label_font_size": 10, "no_data_font_family": "Consolas, \"Liberation Mono\", Menlo, Courier, monospace", "no_data_font_size": 64, "opacity": ".7", "opacity_hover": ".8", "plot_background": "rgba(255, 255, 255, 1)", "stroke_opacity": ".8", "stroke_opacity_hover": ".9", "stroke_width": "1", "stroke_width_hover": "4", "title_font_family": "Consolas, \"Liberation Mono\", Menlo, Courier, monospace", "title_font_size": 16, "tooltip_font_family": "Consolas, \"Liberation Mono\", Menlo, Courier, monospace", "tooltip_font_size": 14, "transition": "150ms", "value_background": "rgba(229, 229, 229, 1)", "value_colors": [], "value_font_family": "Consolas, \"Liberation Mono\", Menlo, Courier, monospace", "value_font_size": 16, "value_label_font_family": "Consolas, \"Liberation Mono\", Menlo, Courier, monospace", "value_label_font_size": 10}, "title": null, "tooltip_border_radius": 0, "tooltip_fancy_mode": true, "truncate_label": null, "truncate_legend": null, "width": 200, "x_label_rotation": 0, "x_labels": ["2025/3", "2025/2", "2025/1", "2024/12", "2024/11"], "x_labels_major": null, "x_labels_major_count": null, "x_labels_major_every": null, "x_title": null, "xrange": null, "y_label_rotation": 0, "y_labels": null, "y_labels_major": null, "y_labels_major_count": null, "y_labels_major_every": null, "y_title": null, "zero": 0, "legends": [""]}</script></defs><title>Pygal</title><g class="graph line-graph vertical"><rect x="0" y="0" width="200" height="50" class="background" /><g transform="translate(20, 10)" class="plot"><rect x="0" y="0" width="170" height="30" class="background" /><g class="axis y always_show"><path d="M0.000000 30.000000 h170.000000" class="line" /><g class="guides"><path d="M0.000000 26.527098 h170.000000" class="guide line" /><text x="-5" y="30.027098110053025" class="">4</text><title>4</title></g><g class="guides"><path d="M0.000000 3.751640 h170.000000" class="guide line" /><text x="-5" y="7.251639766366264" class="">8</text><title>8</title></g></g><g class="series serie-0 color-0"><path d="M3.269231 15.139369 L3.432692 15.089751 3.596154 15.040134 3.759615 14.990517 3.923077 14.940901 4.086538 14.891287 4.250000 14.841675 4.413462 14.792066 4.576923 14.742459 4.740385 14.692855 4.903846 14.643254 5.067308 14.593658 5.230769 14.544066 5.394231 14.494478 5.557692 14.444896 5.721154 14.395319 5.884615 14.345748 6.048077 14.296183 6.211538 14.246625 6.375000 14.197074 6.538462 14.147530 6.701923 14.097994 6.865385 14.048467 7.028846 13.998948 7.192308 13.949437 7.355769 13.899937 7.519231 13.850446 7.682692 13.800965 7.846154 13.751494 8.009615 13.702035 8.173077 13.652587 8.336538 13.603151 8.500000 13.553726 8.663462 13.504315 8.826923 13.454916 8.990385 13.405530 9.153846 13.356158 9.317308 13.306800 9.480769 13.257457 9.644231 13.208128 9.807692 13.158815 9.971154 13.109517 10.134615 13.060236 10.298077 13.010970 10.461538 12.961722 10.625000 12.912490 10.788462 12.863277 10.951923 12.814081 11.115385 12.764903 11.278846 12.715745 11.442308 12.666605 11.605769 12.617485 11.769231 12.568385 11.932692 12.519305 12.096154 12.470246 12.259615 12.421207 12.423077 12.372191 12.586538 12.323196 12.750000 12.274224 12.913462 12.225274 13.076923 12.176347 13.240385 12.127443 13.403846 12.078564 13.567308 12.029709 13.730769 11.980878 13.894231 11.932072 14.057692 11.883292 14.221154 11.834537 14.384615 11.785808 14.548077 11.737106 14.711538 11.688431 14.875000 11.639784 15.038462 11.591164 15.201923 11.542572 15.365385 11.494009 15.528846 11.445474 15.692308 11.396969 15.855769 11.348494 16.019231 11.300048 16.182692 11.251633 16.346154 11.203249 16.509615 11.154896 16.673077 11.106575 16.836538 11.058286 17.000000 11.010029 17.163462 10.961805 17.326923 10.913614 17.490385 10.865457 17.653846 10.817333 17.817308 10.769245 17.980769 10.721190 18.144231 10.673171 18.307692 10.625188 18.471154 10.577240 18.634615 10.529329 18.798077 10.481454 18.961538 10.433617 19.125000 10.385817 19.288462 10.338055 19.451923 10.290331 19.615385 10.242645 19.778846 10.194999 19.942308 10.147392 20.105769 10.099826 20.269231 10.052299 20.432692 10.004813 20.596154 9.957368 20.759615 9.909964 20.923077 9.862602 21.086538 9.815282 21.250000 9.768005 21.413462 9.720771 21.576923 9.673580 21.740385 9.626432 21.903846 9.579329 22.067308 9.532271 22.230769 9.485257 22.394231 9.438289 22.557692 9.391366 22.721154 9.344489 22.884615 9.297659 23.048077 9.250876 23.211538 9.204140 23.375000 9.157451 23.538462 9.110811 23.701923 9.064219 23.865385 9.017676 24.028846 8.971182 24.192308 8.924737 24.355769 8.878343 24.519231 8.831999 24.682692 8.785705 24.846154 8.739463 25.009615 8.693272 25.173077 8.647134 25.336538 8.601047 25.500000 8.555014 25.663462 8.509033 25.826923 8.463106 25.990385 8.417233 26.153846 8.371414 26.317308 8.325649 26.480769 8.279940 26.644231 8.234286 26.807692 8.188688 26.971154 8.143147 27.134615 8.097662 27.298077 8.052233 27.461538 8.006863 27.625000 7.961550 27.788462 7.916295 27.951923 7.871099 28.115385 7.825962 28.278846 7.780884 28.442308 7.735865 28.605769 7.690907 28.769231 7.646010 28.932692 7.601173 29.096154 7.556398 29.259615 7.511684 29.423077 7.467033 29.586538 7.422444 29.750000 7.377918 29.913462 7.333455 30.076923 7.289055 30.240385 7.244720 30.403846 7.200449 30.567308 7.156243 30.730769 7.112102 30.894231 7.068027 31.057692 7.024018 31.221154 6.980075 31.384615 6.936199 31.548077 6.892390 31.711538 6.848648 31.875000 6.804975 32.038462 6.761369 32.201923 6.717833 32.365385 6.674366 32.528846 6.630968 32.692308 6.587640 32.855769 6.544382 33.019231 6.501195 33.182692 6.458079 33.346154 6.415035 33.509615 6.372062 33.673077 6.329162 33.836538 6.286334 34.000000 6.243579 34.163462 6.200898 34.326923 6.158290 34.490385 6.115756 34.653846 6.073298 34.817308 6.030914 34.980769 5.988605 35.144231 5.946372 35.307692 5.904216 35.471154 5.862136 35.634615 5.820132 35.798077 5.778206 35.961538 5.736358 36.125000 5.694588 36.288462 5.652897 36.451923 5.611284 36.615385 5.569750 36.778846 5.528296 36.942308 5.486923 37.105769 5.445629 37.269231 5.404417 37.432692 5.363285 37.596154 5.322235 37.759615 5.281268 37.923077 5.240382 38.086538 5.199580 38.250000 5.158860 38.413462 5.118224 38.576923 5.077672 38.740385 5.037205 38.903846 4.996822 39.067308 4.956524 39.230769 4.916312 39.394231 4.876185 39.557692 4.836145 39.721154 4.796192 39.884615 4.756325 40.048077 4.716546 40.211538 4.676855 40.375000 4.637253 40.538462 4.597738 40.701923 4.558313 40.865385 4.518977 41.028846 4.479732 41.192308 4.440576 41.355769 4.401511 41.519231 4.362536 41.682692 4.323654 41.846154 4.284862 42.009615 4.246163 42.173077 4.207557 42.336538 4.169044 42.500000 4.130623 42.663462 4.092297 42.826923 4.054065 42.990385 4.015927 43.153846 3.977884 43.317308 3.939936 43.480769 3.902084 43.644231 3.864328 43.807692 3.826668 43.971154 3.789105 44.134615 3.751640 44.298077 3.714272 44.461538 3.677005 44.625000 3.639839 44.788462 3.602779 44.951923 3.565826 45.115385 3.528983 45.278846 3.492252 45.442308 3.455635 45.605769 3.419136 45.769231 3.382755 45.932692 3.346497 46.096154 3.310363 46.259615 3.274355 46.423077 3.238477 46.586538 3.202730 46.750000 3.167117 46.913462 3.131640 47.076923 3.096303 47.240385 3.061106 47.403846 3.026053 47.567308 2.991146 47.730769 2.956387 47.894231 2.921779 48.057692 2.887325 48.221154 2.853026 48.384615 2.818885 48.548077 2.784905 48.711538 2.751088 48.875000 2.717436 49.038462 2.683952 49.201923 2.650639 49.365385 2.617498 49.528846 2.584532 49.692308 2.551743 49.855769 2.519134 50.019231 2.486708 50.182692 2.454467 50.346154 2.422412 50.509615 2.390548 50.673077 2.358875 50.836538 2.327397 51.000000 2.296115 51.163462 2.265033 51.326923 2.234153 51.490385 2.203476 51.653846 2.173007 51.817308 2.142746 51.980769 2.112696 52.144231 2.082861 52.307692 2.053241 52.471154 2.023841 52.634615 1.994661 52.798077 1.965705 52.961538 1.936974 53.125000 1.908472 53.288462 1.880201 53.451923 1.852163 53.615385 1.824361 53.778846 1.796796 53.942308 1.769472 54.105769 1.742391 54.269231 1.715555 54.432692 1.688967 54.596154 1.662629 54.759615 1.636543 54.923077 1.610713 55.086538 1.585139 55.250000 1.559826 55.413462 1.534775 55.576923 1.509988 55.740385 1.485469 55.903846 1.461218 56.067308 1.437240 56.230769 1.413537 56.394231 1.390109 56.557692 1.366962 56.721154 1.344095 56.884615 1.321513 57.048077 1.299217 57.211538 1.277210 57.375000 1.255494 57.538462 1.234072 57.701923 1.212946 57.865385 1.192118 58.028846 1.171592 58.192308 1.151369 58.355769 1.131451 58.519231 1.111842 58.682692 1.092544 58.846154 1.073558 59.009615 1.054888 59.173077 1.036536 59.336538 1.018504 59.500000 1.000795 59.663462 0.983411 59.826923 0.966355 59.990385 0.949629 60.153846 0.933235 60.317308 0.917176 60.480769 0.901454 60.644231 0.886072 60.807692 0.871032 60.971154 0.856336 61.134615 0.841988 61.298077 0.827988 61.461538 0.814341 61.625000 0.801048 61.788462 0.788111 61.951923 0.775534 62.115385 0.763317 62.278846 0.751465 62.442308 0.739979 62.605769 0.728862 62.769231 0.718116 62.932692 0.707744 63.096154 0.697747 63.259615 0.688129 63.423077 0.678892 63.586538 0.670038 63.750000 0.661570 63.913462 0.653489 64.076923 0.645800 64.240385 0.638503 64.403846 0.631602 64.567308 0.625098 64.730769 0.618995 64.894231 0.613294 65.057692 0.607998 65.221154 0.603110 65.384615 0.598631 65.548077 0.594565 65.711538 0.590914 65.875000 0.587680 66.038462 0.584865 66.201923 0.582472 66.365385 0.580504 66.528846 0.578962 66.692308 0.577850 66.855769 0.577170 67.019231 0.576923 67.182692 0.577113 67.346154 0.577742 67.509615 0.578812 67.673077 0.580326 67.836538 0.582287 68.000000 0.584696 68.163462 0.587555 68.326923 0.590869 68.490385 0.594638 68.653846 0.598866 68.817308 0.603554 68.980769 0.608705 69.144231 0.614322 69.307692 0.620407 69.471154 0.626962 69.634615 0.633991 69.798077 0.641494 69.961538 0.649475 70.125000 0.657936 70.288462 0.666880 70.451923 0.676308 70.615385 0.686224 70.778846 0.696630 70.942308 0.707527 71.105769 0.718920 71.269231 0.730809 71.432692 0.743198 71.596154 0.756089 71.759615 0.769484 71.923077 0.783386 72.086538 0.797797 72.250000 0.812719 72.413462 0.828156 72.576923 0.844108 72.740385 0.860580 72.903846 0.877573 73.067308 0.895089 73.230769 0.913132 73.394231 0.931703 73.557692 0.950805 73.721154 0.970440 73.884615 0.990611 74.048077 1.011321 74.211538 1.032571 74.375000 1.054363 74.538462 1.076702 74.701923 1.099588 74.865385 1.123024 75.028846 1.147013 75.192308 1.171558 75.355769 1.196660 75.519231 1.222321 75.682692 1.248546 75.846154 1.275335 76.009615 1.302691 76.173077 1.330617 76.336538 1.359114 76.500000 1.388187 76.663462 1.417836 76.826923 1.448065 76.990385 1.478875 77.153846 1.510270 77.317308 1.542251 77.480769 1.574821 77.644231 1.607983 77.807692 1.641738 77.971154 1.676090 78.134615 1.711040 78.298077 1.746592 78.461538 1.782747 78.625000 1.819508 78.788462 1.856877 78.951923 1.894858 79.115385 1.933451 79.278846 1.972660 79.442308 2.012487 79.605769 2.052935 79.769231 2.094005 79.932692 2.135701 80.096154 2.178025 80.259615 2.220979 80.423077 2.264565 80.586538 2.308786 80.750000 2.353645 80.913462 2.399144 81.076923 2.445284 81.240385 2.492070 81.403846 2.539503 81.567308 2.587585 81.730769 2.636319 81.894231 2.685708 82.057692 2.735753 82.221154 2.786457 82.384615 2.837824 82.548077 2.889854 82.711538 2.942551 82.875000 2.995916 83.038462 3.049953 83.201923 3.104664 83.365385 3.160050 83.528846 3.216116 83.692308 3.272862 83.855769 3.330292 84.019231 3.388408 84.182692 3.447212 84.346154 3.506706 84.509615 3.566894 84.673077 3.627777 84.836538 3.689358 85.000000 3.751640 85.163462 3.814623 85.326923 3.878303 85.490385 3.942674 85.653846 4.007731 85.817308 4.073468 85.980769 4.139880 86.144231 4.206960 86.307692 4.274703 86.471154 4.343103 86.634615 4.412154 86.798077 4.481851 86.961538 4.552189 87.125000 4.623160 87.288462 4.694761 87.451923 4.766984 87.615385 4.839825 87.778846 4.913277 87.942308 4.987335 88.105769 5.061994 88.269231 5.137247 88.432692 5.213088 88.596154 5.289513 88.759615 5.366515 88.923077 5.444089 89.086538 5.522228 89.250000 5.600928 89.413462 5.680183 89.576923 5.759986 89.740385 5.840333 89.903846 5.921217 90.067308 6.002633 90.230769 6.084575 90.394231 6.167037 90.557692 6.250014 90.721154 6.333500 90.884615 6.417489 91.048077 6.501976 91.211538 6.586955 91.375000 6.672419 91.538462 6.758365 91.701923 6.844785 91.865385 6.931674 92.028846 7.019026 92.192308 7.106837 92.355769 7.195099 92.519231 7.283807 92.682692 7.372956 92.846154 7.462540 93.009615 7.552553 93.173077 7.642990 93.336538 7.733844 93.500000 7.825110 93.663462 7.916783 93.826923 8.008856 93.990385 8.101324 94.153846 8.194182 94.317308 8.287423 94.480769 8.381042 94.644231 8.475033 94.807692 8.569391 94.971154 8.664109 95.134615 8.759183 95.298077 8.854606 95.461538 8.950372 95.625000 9.046477 95.788462 9.142913 95.951923 9.239677 96.115385 9.336761 96.278846 9.434160 96.442308 9.531869 96.605769 9.629881 96.769231 9.728192 96.932692 9.826795 97.096154 9.925685 97.259615 10.024855 97.423077 10.124301 97.586538 10.224016 97.750000 10.323995 97.913462 10.424233 98.076923 10.524723 98.240385 10.625459 98.403846 10.726437 98.567308 10.827650 98.730769 10.929093 98.894231 11.030759 99.057692 11.132644 99.221154 11.234742 99.384615 11.337046 99.548077 11.439551 99.711538 11.542252 99.875000 11.645143 100.038462 11.748217 100.201923 11.851470 100.365385 11.954896 100.528846 12.058489 100.692308 12.162243 100.855769 12.266152 101.019231 12.370211 101.182692 12.474415 101.346154 12.578757 101.509615 12.683231 101.673077 12.787833 101.836538 12.892556 102.000000 12.997395 102.163462 13.102343 102.326923 13.207396 102.490385 13.312548 102.653846 13.417792 102.817308 13.523123 102.980769 13.628536 103.144231 13.734025 103.307692 13.839583 103.471154 13.945206 103.634615 14.050888 103.798077 14.156623 103.961538 14.262404 104.125000 14.368228 104.288462 14.474087 104.451923 14.579976 104.615385 14.685890 104.778846 14.791823 104.942308 14.897768 105.105769 15.003721 105.269231 15.109676 105.432692 15.215626 105.596154 15.321567 105.759615 15.427492 105.923077 15.533396 106.086538 15.639273 106.250000 15.745118 106.413462 15.850924 106.576923 15.956687 106.740385 16.062400 106.903846 16.168057 107.067308 16.273653 107.230769 16.379183 107.394231 16.484640 107.557692 16.590019 107.721154 16.695314 107.884615 16.800520 108.048077 16.905630 108.211538 17.010639 108.375000 17.115542 108.538462 17.220332 108.701923 17.325004 108.865385 17.429553 109.028846 17.533972 109.192308 17.638256 109.355769 17.742398 109.519231 17.846395 109.682692 17.950239 109.846154 18.053925 110.009615 18.157447 110.173077 18.260801 110.336538 18.363979 110.500000 18.466976 110.663462 18.569786 110.826923 18.672405 110.990385 18.774826 111.153846 18.877043 111.317308 18.979051 111.480769 19.080844 111.644231 19.182416 111.807692 19.283762 111.971154 19.384875 112.134615 19.485751 112.298077 19.586384 112.461538 19.686767 112.625000 19.786896 112.788462 19.886764 112.951923 19.986365 113.115385 20.085695 113.278846 20.184747 113.442308 20.283515 113.605769 20.381995 113.769231 20.480179 113.932692 20.578064 114.096154 20.675642 114.259615 20.772908 114.423077 20.869856 114.586538 20.966482 114.750000 21.062778 114.913462 21.158740 115.076923 21.254361 115.240385 21.349636 115.403846 21.444560 115.567308 21.539125 115.730769 21.633328 115.894231 21.727162 116.057692 21.820621 116.221154 21.913700 116.384615 22.006393 116.548077 22.098694 116.711538 22.190598 116.875000 22.282099 117.038462 22.373191 117.201923 22.463869 117.365385 22.554126 117.528846 22.643958 117.692308 22.733357 117.855769 22.822320 118.019231 22.910840 118.182692 22.998911 118.346154 23.086527 118.509615 23.173684 118.673077 23.260374 118.836538 23.346593 119.000000 23.432335 119.163462 23.517594 119.326923 23.602365 119.490385 23.686641 119.653846 23.770417 119.817308 23.853688 119.980769 23.936447 120.144231 24.018689 120.307692 24.100408 120.471154 24.181599 120.634615 24.262255 120.798077 24.342372 120.961538 24.421943 121.125000 24.500963 121.288462 24.579425 121.451923 24.657326 121.615385 24.734657 121.778846 24.811415 121.942308 24.887592 122.105769 24.963185 122.269231 25.038186 122.432692 25.112590 122.596154 25.186391 122.759615 25.259585 122.923077 25.332164 123.086538 25.404124 123.250000 25.475458 123.413462 25.546161 123.576923 25.616227 123.740385 25.685651 123.903846 25.754426 124.067308 25.822548 124.230769 25.890010 124.394231 25.956807 124.557692 26.022932 124.721154 26.088381 124.884615 26.153148 125.048077 26.217227 125.211538 26.280611 125.375000 26.343297 125.538462 26.405277 125.701923 26.466546 125.865385 26.527098 126.028846 26.586930 126.192308 26.646042 126.355769 26.704438 126.519231 26.762120 126.682692 26.819091 126.846154 26.875354 127.009615 26.930913 127.173077 26.985769 127.336538 27.039926 127.500000 27.093387 127.663462 27.146155 127.826923 27.198231 127.990385 27.249621 128.153846 27.300325 128.317308 27.350348 128.480769 27.399692 128.644231 27.448359 128.807692 27.496354 128.971154 27.543678 129.134615 27.590335 129.298077 27.636327 129.461538 27.681657 129.625000 27.726329 129.788462 27.770345 129.951923 27.813708 130.115385 27.856421 130.278846 27.898487 130.442308 27.939908 130.605769 27.980688 130.769231 28.020830 130.932692 28.060336 131.096154 28.099209 131.259615 28.137452 131.423077 28.175068 131.586538 28.212061 131.750000 28.248432 131.913462 28.284185 132.076923 28.319322 132.240385 28.353847 132.403846 28.387762 132.567308 28.421070 132.730769 28.453775 132.894231 28.485879 133.057692 28.517384 133.221154 28.548295 133.384615 28.578613 133.548077 28.608342 133.711538 28.637484 133.875000 28.666042 134.038462 28.694020 134.201923 28.721420 134.365385 28.748245 134.528846 28.774498 134.692308 28.800182 134.855769 28.825300 135.019231 28.849854 135.182692 28.873847 135.346154 28.897283 135.509615 28.920165 135.673077 28.942494 135.836538 28.964274 136.000000 28.985509 136.163462 29.006200 136.326923 29.026351 136.490385 29.045965 136.653846 29.065044 136.817308 29.083591 136.980769 29.101610 137.144231 29.119103 137.307692 29.136072 137.471154 29.152522 137.634615 29.168455 137.798077 29.183873 137.961538 29.198780 138.125000 29.213179 138.288462 29.227072 138.451923 29.240462 138.615385 29.253352 138.778846 29.265745 138.942308 29.277645 139.105769 29.289053 139.269231 29.299973 139.432692 29.310407 139.596154 29.320359 139.759615 29.329831 139.923077 29.338827 140.086538 29.347349 140.250000 29.355400 140.413462 29.362982 140.576923 29.370100 140.740385 29.376755 140.903846 29.382951 141.067308 29.388691 141.230769 29.393977 141.394231 29.398812 141.557692 29.403199 141.721154 29.407141 141.884615 29.410642 142.048077 29.413703 142.211538 29.416328 142.375000 29.418519 142.538462 29.420280 142.701923 29.421614 142.865385 29.422522 143.028846 29.423009 143.192308 29.423077 143.355769 29.422729 143.519231 29.421967 143.682692 29.420796 143.846154 29.419217 144.009615 29.417233 144.173077 29.414848 144.336538 29.412065 144.500000 29.408885 144.663462 29.405312 144.826923 29.401350 144.990385 29.397000 145.153846 29.392266 145.317308 29.387151 145.480769 29.381657 145.644231 29.375787 145.807692 29.369545 145.971154 29.362933 146.134615 29.355954 146.298077 29.348611 146.461538 29.340907 146.625000 29.332845 146.788462 29.324427 146.951923 29.315657 147.115385 29.306537 147.278846 29.297070 147.442308 29.287260 147.605769 29.277109 147.769231 29.266619 147.932692 29.255795 148.096154 29.244638 148.259615 29.233152 148.423077 29.221339 148.586538 29.209203 148.750000 29.196746 148.913462 29.183972 149.076923 29.170882 149.240385 29.157480 149.403846 29.143769 149.567308 29.129752 149.730769 29.115432 149.894231 29.100811 150.057692 29.085892 150.221154 29.070679 150.384615 29.055174 150.548077 29.039380 150.711538 29.023300 150.875000 29.006937 151.038462 28.990293 151.201923 28.973373 151.365385 28.956177 151.528846 28.938711 151.692308 28.920975 151.855769 28.902974 152.019231 28.884709 152.182692 28.866185 152.346154 28.847404 152.509615 28.828368 152.673077 28.809081 152.836538 28.789545 153.000000 28.769764 153.163462 28.749741 153.326923 28.729477 153.490385 28.708976 153.653846 28.688242 153.817308 28.667276 153.980769 28.646082 154.144231 28.624663 154.307692 28.603021 154.471154 28.581160 154.634615 28.559082 154.798077 28.536790 154.961538 28.514287 155.125000 28.491576 155.288462 28.468660 155.451923 28.445542 155.615385 28.422225 155.778846 28.398711 155.942308 28.375003 156.105769 28.351105 156.269231 28.327019 156.432692 28.302748 156.596154 28.278295 156.759615 28.253663 156.923077 28.228854 157.086538 28.203873 157.250000 28.178720 157.413462 28.153401 157.576923 28.127916 157.740385 28.102270 157.903846 28.076465 158.067308 28.050504 158.230769 28.024389 158.394231 27.998125 158.557692 27.971713 158.721154 27.945157 158.884615 27.918459 159.048077 27.891622 159.211538 27.864650 159.375000 27.837544 159.538462 27.810309 159.701923 27.782947 159.865385 27.755460 160.028846 27.727852 160.192308 27.700125 160.355769 27.672283 160.519231 27.644329 160.682692 27.616264 160.846154 27.588093 161.009615 27.559817 161.173077 27.531441 161.336538 27.502966 161.500000 27.474396 161.663462 27.445733 161.826923 27.416981 161.990385 27.388142 162.153846 27.359219 162.317308 27.330216 162.480769 27.301134 162.644231 27.271978 162.807692 27.242749 162.971154 27.213450 163.134615 27.184086 163.298077 27.154658 163.461538 27.125169 163.625000 27.095622 163.788462 27.066020 163.951923 27.036367 164.115385 27.006664 164.278846 26.976915 164.442308 26.947123 164.605769 26.917290 164.769231 26.887420 164.932692 26.857515 165.096154 26.827578 165.259615 26.797612 165.423077 26.767621 165.586538 26.737606 165.750000 26.707571 165.913462 26.677519 166.076923 26.647452 166.240385 26.617374 166.403846 26.587287 166.567308 26.557194 166.730769 26.527098" class="line reactive nofill" /></g></g><g class="titles" /><g transform="translate(20, 10)" class="plot overlay"><g class="series serie-0 color-0" /></g><g transform="translate(20, 10)" class="plot text-overlay"><g class="series serie-0 color-0" /></g><g transform="translate(20, 10)" class="plot tooltip-overlay"><g transform="translate(0 0)" style="opacity: 0" class="tooltip"><rect rx="0" ry="0" width="0" height="0" class="tooltip-box" /><g class="text" /></g></g></g></svg>