<?xml version='1.0' encoding='utf-8'?>
<svg xmlns="http://www.w3.org/2000/svg" id="chart-2b275e15-2f6e-4b98-8346-b6b352dabf92" class="pygal-chart pygal-sparkline" viewBox="0 0 200 50" width="200" height="50"><!--Generated with pygal 3.0.5 (etree) ©Kozea 2012-2016 on 2024-10-20--><!--http://pygal.org--><!--http://github.com/Kozea/pygal--><defs><style type="text/css">#chart-2b275e15-2f6e-4b98-8346-b6b352dabf92{-webkit-user-select:none;-webkit-font-smoothing:antialiased;font-family:Consolas,"Liberation Mono",Menlo,Courier,monospace}#chart-2b275e15-2f6e-4b98-8346-b6b352dabf92 .title{font-family:Consolas,"Liberation Mono",Menlo,Courier,monospace;font-size:16px}#chart-2b275e15-2f6e-4b98-8346-b6b352dabf92 .legends .legend text{font-family:Consolas,"Liberation Mono",Menlo,Courier,monospace;font-size:14px}#chart-2b275e15-2f6e-4b98-8346-b6b352dabf92 .axis text{font-family:Consolas,"Liberation Mono",Menlo,Courier,monospace;font-size:10px}#chart-2b275e15-2f6e-4b98-8346-b6b352dabf92 .axis text.major{font-family:Consolas,"Liberation Mono",Menlo,Courier,monospace;font-size:10px}#chart-2b275e15-2f6e-4b98-8346-b6b352dabf92 .text-overlay text.value{font-family:Consolas,"Liberation Mono",Menlo,Courier,monospace;font-size:16px}#chart-2b275e15-2f6e-4b98-8346-b6b352dabf92 .text-overlay text.label{font-family:Consolas,"Liberation Mono",Menlo,Courier,monospace;font-size:10px}#chart-2b275e15-2f6e-4b98-8346-b6b352dabf92 .tooltip{font-family:Consolas,"Liberation Mono",Menlo,Courier,monospace;font-size:14px}#chart-2b275e15-2f6e-4b98-8346-b6b352dabf92 text.no_data{font-family:Consolas,"Liberation Mono",Menlo,Courier,monospace;font-size:64px}
#chart-2b275e15-2f6e-4b98-8346-b6b352dabf92{background-color:rgba(249,249,249,1)}#chart-2b275e15-2f6e-4b98-8346-b6b352dabf92 path,#chart-2b275e15-2f6e-4b98-8346-b6b352dabf92 line,#chart-2b275e15-2f6e-4b98-8346-b6b352dabf92 rect,#chart-2b275e15-2f6e-4b98-8346-b6b352dabf92 circle{-webkit-transition:150ms;-moz-transition:150ms;transition:150ms}#chart-2b275e15-2f6e-4b98-8346-b6b352dabf92 .graph &gt; .background{fill:rgba(249,249,249,1)}#chart-2b275e15-2f6e-4b98-8346-b6b352dabf92 .plot &gt; .background{fill:rgba(255,255,255,1)}#chart-2b275e15-2f6e-4b98-8346-b6b352dabf92 .graph{fill:rgba(0,0,0,.87)}#chart-2b275e15-2f6e-4b98-8346-b6b352dabf92 text.no_data{fill:rgba(0,0,0,1)}#chart-2b275e15-2f6e-4b98-8346-b6b352dabf92 .title{fill:rgba(0,0,0,1)}#chart-2b275e15-2f6e-4b98-8346-b6b352dabf92 .legends .legend text{fill:rgba(0,0,0,.87)}#chart-2b275e15-2f6e-4b98-8346-b6b352dabf92 .legends .legend:hover text{fill:rgba(0,0,0,1)}#chart-2b275e15-2f6e-4b98-8346-b6b352dabf92 .axis .line{stroke:rgba(0,0,0,1)}#chart-2b275e15-2f6e-4b98-8346-b6b352dabf92 .axis .guide.line{stroke:rgba(0,0,0,.54)}#chart-2b275e15-2f6e-4b98-8346-b6b352dabf92 .axis .major.line{stroke:rgba(0,0,0,.87)}#chart-2b275e15-2f6e-4b98-8346-b6b352dabf92 .axis text.major{fill:rgba(0,0,0,1)}#chart-2b275e15-2f6e-4b98-8346-b6b352dabf92 .axis.y .guides:hover .guide.line,#chart-2b275e15-2f6e-4b98-8346-b6b352dabf92 .line-graph .axis.x .guides:hover .guide.line,#chart-2b275e15-2f6e-4b98-8346-b6b352dabf92 .stackedline-graph .axis.x .guides:hover .guide.line,#chart-2b275e15-2f6e-4b98-8346-b6b352dabf92 .xy-graph .axis.x .guides:hover .guide.line{stroke:rgba(0,0,0,1)}#chart-2b275e15-2f6e-4b98-8346-b6b352dabf92 .axis .guides:hover text{fill:rgba(0,0,0,1)}#chart-2b275e15-2f6e-4b98-8346-b6b352dabf92 .reactive{fill-opacity:.7;stroke-opacity:.8;stroke-width:1}#chart-2b275e15-2f6e-4b98-8346-b6b352dabf92 .ci{stroke:rgba(0,0,0,.87)}#chart-2b275e15-2f6e-4b98-8346-b6b352dabf92 .reactive.active,#chart-2b275e15-2f6e-4b98-8346-b6b352dabf92 .active .reactive{fill-opacity:.8;stroke-opacity:.9;stroke-width:4}#chart-2b275e15-2f6e-4b98-8346-b6b352dabf92 .ci .reactive.active{stroke-width:1.5}#chart-2b275e15-2f6e-4b98-8346-b6b352dabf92 .series text{fill:rgba(0,0,0,1)}#chart-2b275e15-2f6e-4b98-8346-b6b352dabf92 .tooltip rect{fill:rgba(255,255,255,1);stroke:rgba(0,0,0,1);-webkit-transition:opacity 150ms;-moz-transition:opacity 150ms;transition:opacity 150ms}#chart-2b275e15-2f6e-4b98-8346-b6b352dabf92 .tooltip .label{fill:rgba(0,0,0,.87)}#chart-2b275e15-2f6e-4b98-8346-b6b352dabf92 .tooltip .label{fill:rgba(0,0,0,.87)}#chart-2b275e15-2f6e-4b98-8346-b6b352dabf92 .tooltip .legend{font-size:.8em;fill:rgba(0,0,0,.54)}#chart-2b275e15-2f6e-4b98-8346-b6b352dabf92 .tooltip .x_label{font-size:.6em;fill:rgba(0,0,0,1)}#chart-2b275e15-2f6e-4b98-8346-b6b352dabf92 .tooltip .xlink{font-size:.5em;text-decoration:underline}#chart-2b275e15-2f6e-4b98-8346-b6b352dabf92 .tooltip .value{font-size:1.5em}#chart-2b275e15-2f6e-4b98-8346-b6b352dabf92 .bound{font-size:.5em}#chart-2b275e15-2f6e-4b98-8346-b6b352dabf92 .max-value{font-size:.75em;fill:rgba(0,0,0,.54)}#chart-2b275e15-2f6e-4b98-8346-b6b352dabf92 .map-element{fill:rgba(255,255,255,1);stroke:rgba(0,0,0,.54) !important}#chart-2b275e15-2f6e-4b98-8346-b6b352dabf92 .map-element .reactive{fill-opacity:inherit;stroke-opacity:inherit}#chart-2b275e15-2f6e-4b98-8346-b6b352dabf92 .color-0,#chart-2b275e15-2f6e-4b98-8346-b6b352dabf92 .color-0 a:visited{stroke:#F44336;fill:#F44336}#chart-2b275e15-2f6e-4b98-8346-b6b352dabf92 .text-overlay .color-0 text{fill:black}
#chart-2b275e15-2f6e-4b98-8346-b6b352dabf92 text.no_data{text-anchor:middle}#chart-2b275e15-2f6e-4b98-8346-b6b352dabf92 .guide.line{fill:none}#chart-2b275e15-2f6e-4b98-8346-b6b352dabf92 .centered{text-anchor:middle}#chart-2b275e15-2f6e-4b98-8346-b6b352dabf92 .title{text-anchor:middle}#chart-2b275e15-2f6e-4b98-8346-b6b352dabf92 .legends .legend text{fill-opacity:1}#chart-2b275e15-2f6e-4b98-8346-b6b352dabf92 .axis.x text{text-anchor:middle}#chart-2b275e15-2f6e-4b98-8346-b6b352dabf92 .axis.x:not(.web) text[transform]{text-anchor:start}#chart-2b275e15-2f6e-4b98-8346-b6b352dabf92 .axis.x:not(.web) text[transform].backwards{text-anchor:end}#chart-2b275e15-2f6e-4b98-8346-b6b352dabf92 .axis.y text{text-anchor:end}#chart-2b275e15-2f6e-4b98-8346-b6b352dabf92 .axis.y text[transform].backwards{text-anchor:start}#chart-2b275e15-2f6e-4b98-8346-b6b352dabf92 .axis.y2 text{text-anchor:start}#chart-2b275e15-2f6e-4b98-8346-b6b352dabf92 .axis.y2 text[transform].backwards{text-anchor:end}#chart-2b275e15-2f6e-4b98-8346-b6b352dabf92 .axis .guide.line{stroke-dasharray:4,4;stroke:black}#chart-2b275e15-2f6e-4b98-8346-b6b352dabf92 .axis .major.guide.line{stroke-dasharray:6,6;stroke:black}#chart-2b275e15-2f6e-4b98-8346-b6b352dabf92 .horizontal .axis.y .guide.line,#chart-2b275e15-2f6e-4b98-8346-b6b352dabf92 .horizontal .axis.y2 .guide.line,#chart-2b275e15-2f6e-4b98-8346-b6b352dabf92 .vertical .axis.x .guide.line{opacity:0}#chart-2b275e15-2f6e-4b98-8346-b6b352dabf92 .horizontal .axis.always_show .guide.line,#chart-2b275e15-2f6e-4b98-8346-b6b352dabf92 .vertical .axis.always_show .guide.line{opacity:1 !important}#chart-2b275e15-2f6e-4b98-8346-b6b352dabf92 .axis.y .guides:hover .guide.line,#chart-2b275e15-2f6e-4b98-8346-b6b352dabf92 .axis.y2 .guides:hover .guide.line,#chart-2b275e15-2f6e-4b98-8346-b6b352dabf92 .axis.x .guides:hover .guide.line{opacity:1}#chart-2b275e15-2f6e-4b98-8346-b6b352dabf92 .axis .guides:hover text{opacity:1}#chart-2b275e15-2f6e-4b98-8346-b6b352dabf92 .nofill{fill:none}#chart-2b275e15-2f6e-4b98-8346-b6b352dabf92 .subtle-fill{fill-opacity:.2}#chart-2b275e15-2f6e-4b98-8346-b6b352dabf92 .dot{stroke-width:1px;fill-opacity:1;stroke-opacity:1}#chart-2b275e15-2f6e-4b98-8346-b6b352dabf92 .dot.active{stroke-width:5px}#chart-2b275e15-2f6e-4b98-8346-b6b352dabf92 .dot.negative{fill:transparent}#chart-2b275e15-2f6e-4b98-8346-b6b352dabf92 text,#chart-2b275e15-2f6e-4b98-8346-b6b352dabf92 tspan{stroke:none !important}#chart-2b275e15-2f6e-4b98-8346-b6b352dabf92 .series text.active{opacity:1}#chart-2b275e15-2f6e-4b98-8346-b6b352dabf92 .tooltip rect{fill-opacity:.95;stroke-width:.5}#chart-2b275e15-2f6e-4b98-8346-b6b352dabf92 .tooltip text{fill-opacity:1}#chart-2b275e15-2f6e-4b98-8346-b6b352dabf92 .showable{visibility:hidden}#chart-2b275e15-2f6e-4b98-8346-b6b352dabf92 .showable.shown{visibility:visible}#chart-2b275e15-2f6e-4b98-8346-b6b352dabf92 .gauge-background{fill:rgba(229,229,229,1);stroke:none}#chart-2b275e15-2f6e-4b98-8346-b6b352dabf92 .bg-lines{stroke:rgba(249,249,249,1);stroke-width:2px}</style><script type="text/javascript">window.pygal = window.pygal || {};window.pygal.config = window.pygal.config || {};window.pygal.config['2b275e15-2f6e-4b98-8346-b6b352dabf92'] = {"allow_interruptions": false, "box_mode": "extremes", "classes": ["pygal-chart", "pygal-sparkline"], "css": ["file://style.css", "file://graph.css"], "defs": [], "disable_xml_declaration": false, "dots_size": 2.5, "dynamic_print_values": false, "explicit_size": true, "fill": false, "force_uri_protocol": "https", "formatter": null, "half_pie": false, "height": 50, "include_x_axis": false, "inner_radius": 0, "interpolate": "cubic", "interpolation_parameters": {}, "interpolation_precision": 250, "inverse_y_axis": false, "js": [], "legend_at_bottom": false, "legend_at_bottom_columns": null, "legend_box_size": 12, "logarithmic": false, "margin": 10, "margin_bottom": null, "margin_left": null, "margin_right": null, "margin_top": null, "max_scale": 2, "min_scale": 1, "missing_value_fill_truncation": "x", "no_data_text": "", "no_prefix": false, "order_min": null, "pretty_print": false, "print_labels": false, "print_values": false, "print_values_position": "center", "print_zeroes": true, "range": null, "rounded_bars": null, "secondary_range": null, "show_dots": false, "show_legend": false, "show_minor_x_labels": true, "show_minor_y_labels": true, "show_only_major_dots": false, "show_x_guides": false, "show_x_labels": false, "show_y_guides": true, "show_y_labels": true, "spacing": 0, "stack_from_top": false, "strict": false, "stroke": true, "stroke_style": null, "style": {"background": "rgba(249, 249, 249, 1)", "ci_colors": [], "colors": ["#F44336", "#3F51B5", "#009688", "#FFC107", "#FF5722", "#9C27B0", "#03A9F4", "#8BC34A", "#FF9800", "#E91E63", "#2196F3", "#4CAF50", "#FFEB3B", "#673AB7", "#00BCD4", "#CDDC39", "#9E9E9E", "#607D8B"], "dot_opacity": "1", "font_family": "Consolas, \"Liberation Mono\", Menlo, Courier, monospace", "foreground": "rgba(0, 0, 0, .87)", "foreground_strong": "rgba(0, 0, 0, 1)", "foreground_subtle": "rgba(0, 0, 0, .54)", "guide_stroke_color": "black", "guide_stroke_dasharray": "4,4", "label_font_family": "Consolas, \"Liberation Mono\", Menlo, Courier, monospace", "label_font_size": 10, "legend_font_family": "Consolas, \"Liberation Mono\", Menlo, Courier, monospace", "legend_font_size": 14, "major_guide_stroke_color": "black", "major_guide_stroke_dasharray": "6,6", "major_label_font_family": "Consolas, \"Liberation Mono\", Menlo, Courier, monospace", "major_label_font_size": 10, "no_data_font_family": "Consolas, \"Liberation Mono\", Menlo, Courier, monospace", "no_data_font_size": 64, "opacity": ".7", "opacity_hover": ".8", "plot_background": "rgba(255, 255, 255, 1)", "stroke_opacity": ".8", "stroke_opacity_hover": ".9", "stroke_width": "1", "stroke_width_hover": "4", "title_font_family": "Consolas, \"Liberation Mono\", Menlo, Courier, monospace", "title_font_size": 16, "tooltip_font_family": "Consolas, \"Liberation Mono\", Menlo, Courier, monospace", "tooltip_font_size": 14, "transition": "150ms", "value_background": "rgba(229, 229, 229, 1)", "value_colors": [], "value_font_family": "Consolas, \"Liberation Mono\", Menlo, Courier, monospace", "value_font_size": 16, "value_label_font_family": "Consolas, \"Liberation Mono\", Menlo, Courier, monospace", "value_label_font_size": 10}, "title": null, "tooltip_border_radius": 0, "tooltip_fancy_mode": true, "truncate_label": null, "truncate_legend": null, "width": 200, "x_label_rotation": 0, "x_labels": ["2024/10", "2024/9", "2024/8", "2024/7"], "x_labels_major": null, "x_labels_major_count": null, "x_labels_major_every": null, "x_title": null, "xrange": null, "y_label_rotation": 0, "y_labels": null, "y_labels_major": null, "y_labels_major_count": null, "y_labels_major_every": null, "y_title": null, "zero": 0, "legends": [""]}</script></defs><title>Pygal</title><g class="graph line-graph vertical"><rect x="0" y="0" width="200" height="50" class="background" /><g transform="translate(20, 10)" class="plot"><rect x="0" y="0" width="170" height="30" class="background" /><g class="axis y always_show"><path d="M0.000000 30.000000 h170.000000" class="line" /><g class="guides"><path d="M0.000000 25.817308 h170.000000" class="guide line" /><text x="-5" y="29.317307692307693" class="">4</text><title>4</title></g><g class="guides"><path d="M0.000000 11.394231 h170.000000" class="guide line" /><text x="-5" y="14.89423076923077" class="">8</text><title>8</title></g></g><g class="series serie-0 color-0"><path d="M3.269231 29.423077 L3.487179 29.300001 3.705128 29.176928 3.923077 29.053862 4.141026 28.930807 4.358974 28.807765 4.576923 28.684742 4.794872 28.561739 5.012821 28.438761 5.230769 28.315811 5.448718 28.192892 5.666667 28.070009 5.884615 27.947164 6.102564 27.824361 6.320513 27.701604 6.538462 27.578896 6.756410 27.456241 6.974359 27.333641 7.192308 27.211102 7.410256 27.088625 7.628205 26.966215 7.846154 26.843876 8.064103 26.721610 8.282051 26.599421 8.500000 26.477312 8.717949 26.355288 8.935897 26.233352 9.153846 26.111507 9.371795 25.989757 9.589744 25.868104 9.807692 25.746554 10.025641 25.625109 10.243590 25.503772 10.461538 25.382548 10.679487 25.261439 10.897436 25.140450 11.115385 25.019584 11.333333 24.898843 11.551282 24.778233 11.769231 24.657756 11.987179 24.537415 12.205128 24.417215 12.423077 24.297159 12.641026 24.177250 12.858974 24.057492 13.076923 23.937888 13.294872 23.818443 13.512821 23.699158 13.730769 23.580038 13.948718 23.461087 14.166667 23.342308 14.384615 23.223704 14.602564 23.105279 14.820513 22.987036 15.038462 22.868979 15.256410 22.751112 15.474359 22.633437 15.692308 22.515959 15.910256 22.398681 16.128205 22.281606 16.346154 22.164738 16.564103 22.048081 16.782051 21.931638 17.000000 21.815412 17.217949 21.699407 17.435897 21.583627 17.653846 21.468075 17.871795 21.352754 18.089744 21.237668 18.307692 21.122821 18.525641 21.008215 18.743590 20.893856 18.961538 20.779745 19.179487 20.665887 19.397436 20.552285 19.615385 20.438942 19.833333 20.325863 20.051282 20.213050 20.269231 20.100507 20.487179 19.988238 20.705128 19.876246 20.923077 19.764535 21.141026 19.653107 21.358974 19.541968 21.576923 19.431119 21.794872 19.320565 22.012821 19.210310 22.230769 19.100356 22.448718 18.990707 22.666667 18.881366 22.884615 18.772338 23.102564 18.663626 23.320513 18.555233 23.538462 18.447163 23.756410 18.339418 23.974359 18.232004 24.192308 18.124923 24.410256 18.018178 24.628205 17.911774 24.846154 17.805713 25.064103 17.700000 25.282051 17.594638 25.500000 17.489629 25.717949 17.384979 25.935897 17.280690 26.153846 17.176765 26.371795 17.073209 26.589744 16.970025 26.807692 16.867216 27.025641 16.764786 27.243590 16.662738 27.461538 16.561077 27.679487 16.459804 27.897436 16.358924 28.115385 16.258441 28.333333 16.158358 28.551282 16.058678 28.769231 15.959405 28.987179 15.860542 29.205128 15.762093 29.423077 15.664062 29.641026 15.566451 29.858974 15.469265 30.076923 15.372507 30.294872 15.276180 30.512821 15.180288 30.730769 15.084835 30.948718 14.989824 31.166667 14.895258 31.384615 14.801141 31.602564 14.707477 31.820513 14.614269 32.038462 14.521520 32.256410 14.429234 32.474359 14.337415 32.692308 14.246065 32.910256 14.155190 33.128205 14.064791 33.346154 13.974873 33.564103 13.885439 33.782051 13.796492 34.000000 13.708037 34.217949 13.620076 34.435897 13.532613 34.653846 13.445652 34.871795 13.359196 35.089744 13.273249 35.307692 13.187813 35.525641 13.102894 35.743590 13.018493 35.961538 12.934615 36.179487 12.851264 36.397436 12.768442 36.615385 12.686153 36.833333 12.604400 37.051282 12.523188 37.269231 12.442520 37.487179 12.362399 37.705128 12.282829 37.923077 12.203812 38.141026 12.125354 38.358974 12.047457 38.576923 11.970124 38.794872 11.893360 39.012821 11.817167 39.230769 11.741550 39.448718 11.666512 39.666667 11.592055 39.884615 11.518185 40.102564 11.444904 40.320513 11.372215 40.538462 11.300123 40.756410 11.228631 40.974359 11.157742 41.192308 11.087460 41.410256 11.017788 41.628205 10.948731 41.846154 10.880290 42.064103 10.812470 42.282051 10.745275 42.500000 10.678708 42.717949 10.612772 42.935897 10.547471 43.153846 10.482808 43.371795 10.418787 43.589744 10.355412 43.807692 10.292685 44.025641 10.230611 44.243590 10.169193 44.461538 10.108434 44.679487 10.048338 44.897436 9.988909 45.115385 9.930150 45.333333 9.872064 45.551282 9.814655 45.769231 9.757927 45.987179 9.701883 46.205128 9.646526 46.423077 9.591860 46.641026 9.537889 46.858974 9.484615 47.076923 9.432044 47.294872 9.380177 47.512821 9.329019 47.730769 9.278573 47.948718 9.228842 48.166667 9.179831 48.384615 9.131542 48.602564 9.083979 48.820513 9.037146 49.038462 8.991046 49.256410 8.945683 49.474359 8.901059 49.692308 8.857180 49.910256 8.814047 50.128205 8.771665 50.346154 8.730038 50.564103 8.689168 50.782051 8.649059 51.000000 8.609714 51.217949 8.571138 51.435897 8.533334 51.653846 8.496305 51.871795 8.460055 52.089744 8.424586 52.307692 8.389904 52.525641 8.356011 52.743590 8.322910 52.961538 8.290606 53.179487 8.259101 53.397436 8.228400 53.615385 8.198506 53.833333 8.169421 54.051282 8.141151 54.269231 8.113698 54.487179 8.087065 54.705128 8.061257 54.923077 8.036277 55.141026 8.012128 55.358974 7.988814 55.576923 7.966338 55.794872 7.944705 56.012821 7.923916 56.230769 7.903976 56.448718 7.884889 56.666667 7.866658 56.884615 7.849286 57.102564 7.832777 57.320513 7.817134 57.538462 7.802361 57.756410 7.788462 57.974359 7.775437 58.192308 7.763284 58.410256 7.751994 58.628205 7.741562 58.846154 7.731981 59.064103 7.723244 59.282051 7.715346 59.500000 7.708279 59.717949 7.702038 59.935897 7.696615 60.153846 7.692005 60.371795 7.688201 60.589744 7.685196 60.807692 7.682983 61.025641 7.681558 61.243590 7.680912 61.461538 7.681040 61.679487 7.681935 61.897436 7.683590 62.115385 7.686000 62.333333 7.689157 62.551282 7.693056 62.769231 7.697689 62.987179 7.703051 63.205128 7.709135 63.423077 7.715934 63.641026 7.723441 63.858974 7.731652 64.076923 7.740558 64.294872 7.750154 64.512821 7.760433 64.730769 7.771388 64.948718 7.783014 65.166667 7.795303 65.384615 7.808250 65.602564 7.821847 65.820513 7.836089 66.038462 7.850969 66.256410 7.866480 66.474359 7.882615 66.692308 7.899370 66.910256 7.916736 67.128205 7.934708 67.346154 7.953279 67.564103 7.972442 67.782051 7.992192 68.000000 8.012521 68.217949 8.033424 68.435897 8.054893 68.653846 8.076923 68.871795 8.099507 69.089744 8.122638 69.307692 8.146309 69.525641 8.170516 69.743590 8.195250 69.961538 8.220506 70.179487 8.246277 70.397436 8.272556 70.615385 8.299338 70.833333 8.326615 71.051282 8.354382 71.269231 8.382631 71.487179 8.411357 71.705128 8.440553 71.923077 8.470212 72.141026 8.500327 72.358974 8.530894 72.576923 8.561904 72.794872 8.593352 73.012821 8.625231 73.230769 8.657534 73.448718 8.690256 73.666667 8.723389 73.884615 8.756928 74.102564 8.790865 74.320513 8.825195 74.538462 8.859911 74.756410 8.895006 74.974359 8.930473 75.192308 8.966308 75.410256 9.002502 75.628205 9.039050 75.846154 9.075945 76.064103 9.113180 76.282051 9.150750 76.500000 9.188647 76.717949 9.226866 76.935897 9.265399 77.153846 9.304241 77.371795 9.343385 77.589744 9.382824 77.807692 9.422551 78.025641 9.462562 78.243590 9.502848 78.461538 9.543404 78.679487 9.584223 78.897436 9.625298 79.115385 9.666624 79.333333 9.708193 79.551282 9.750000 79.769231 9.792037 79.987179 9.834299 80.205128 9.876779 80.423077 9.919470 80.641026 9.962365 80.858974 10.005460 81.076923 10.048746 81.294872 10.092218 81.512821 10.135869 81.730769 10.179692 81.948718 10.223682 82.166667 10.267831 82.384615 10.312134 82.602564 10.356583 82.820513 10.401173 83.038462 10.445897 83.256410 10.490748 83.474359 10.535719 83.692308 10.580806 83.910256 10.626000 84.128205 10.671296 84.346154 10.716687 84.564103 10.762166 84.782051 10.807728 85.000000 10.853365 85.217949 10.899072 85.435897 10.944841 85.653846 10.990667 85.871795 11.036543 86.089744 11.082462 86.307692 11.128417 86.525641 11.174404 86.743590 11.220414 86.961538 11.266442 87.179487 11.312481 87.397436 11.358524 87.615385 11.404566 87.833333 11.450599 88.051282 11.496618 88.269231 11.542615 88.487179 11.588585 88.705128 11.634521 88.923077 11.680416 89.141026 11.726263 89.358974 11.772058 89.576923 11.817792 89.794872 11.863460 90.012821 11.909055 90.230769 11.954570 90.448718 12.000000 90.666667 12.045337 90.884615 12.090576 91.102564 12.135709 91.320513 12.180731 91.538462 12.225635 91.756410 12.270414 91.974359 12.315061 92.192308 12.359572 92.410256 12.403938 92.628205 12.448154 92.846154 12.492213 93.064103 12.536108 93.282051 12.579834 93.500000 12.623383 93.717949 12.666750 93.935897 12.709927 94.153846 12.752909 94.371795 12.795689 94.589744 12.838260 94.807692 12.880615 95.025641 12.922750 95.243590 12.964656 95.461538 13.006328 95.679487 13.047759 95.897436 13.088942 96.115385 13.129872 96.333333 13.170541 96.551282 13.210944 96.769231 13.251073 96.987179 13.290923 97.205128 13.330487 97.423077 13.369758 97.641026 13.408729 97.858974 13.447396 98.076923 13.485750 98.294872 13.523786 98.512821 13.561497 98.730769 13.598876 98.948718 13.635918 99.166667 13.672615 99.384615 13.708962 99.602564 13.744951 99.820513 13.780577 100.038462 13.815833 100.256410 13.850712 100.474359 13.885207 100.692308 13.919314 100.910256 13.953024 101.128205 13.986332 101.346154 14.019231 101.564103 14.051714 101.782051 14.083776 102.000000 14.115409 102.217949 14.146608 102.435897 14.177365 102.653846 14.207675 102.871795 14.237531 103.089744 14.266926 103.307692 14.295853 103.525641 14.324308 103.743590 14.352282 103.961538 14.379770 104.179487 14.406765 104.397436 14.433260 104.615385 14.459250 104.833333 14.484727 105.051282 14.509686 105.269231 14.534119 105.487179 14.558021 105.705128 14.581385 105.923077 14.604204 106.141026 14.626471 106.358974 14.648182 106.576923 14.669328 106.794872 14.689904 107.012821 14.709903 107.230769 14.729318 107.448718 14.748144 107.666667 14.766373 107.884615 14.784000 108.102564 14.801017 108.320513 14.817419 108.538462 14.833199 108.756410 14.848350 108.974359 14.862865 109.192308 14.876740 109.410256 14.889966 109.628205 14.902538 109.846154 14.914449 110.064103 14.925692 110.282051 14.936262 110.500000 14.946151 110.717949 14.955354 110.935897 14.963863 111.153846 14.971673 111.371795 14.978777 111.589744 14.985168 111.807692 14.990839 112.025641 14.995786 112.243590 15.000000 112.461538 15.003477 112.679487 15.006219 112.897436 15.008229 113.115385 15.009508 113.333333 15.010062 113.551282 15.009891 113.769231 15.009000 113.987179 15.007391 114.205128 15.005067 114.423077 15.002031 114.641026 14.998286 114.858974 14.993835 115.076923 14.988682 115.294872 14.982828 115.512821 14.976277 115.730769 14.969032 115.948718 14.961096 116.166667 14.952471 116.384615 14.943161 116.602564 14.933169 116.820513 14.922498 117.038462 14.911150 117.256410 14.899128 117.474359 14.886436 117.692308 14.873077 117.910256 14.859053 118.128205 14.844367 118.346154 14.829023 118.564103 14.813022 118.782051 14.796369 119.000000 14.779066 119.217949 14.761117 119.435897 14.742523 119.653846 14.723288 119.871795 14.703415 120.089744 14.682908 120.307692 14.661768 120.525641 14.639999 120.743590 14.617603 120.961538 14.594585 121.179487 14.570946 121.397436 14.546689 121.615385 14.521819 121.833333 14.496337 122.051282 14.470246 122.269231 14.443550 122.487179 14.416251 122.705128 14.388353 122.923077 14.359858 123.141026 14.330769 123.358974 14.301090 123.576923 14.270822 123.794872 14.239970 124.012821 14.208536 124.230769 14.176523 124.448718 14.143934 124.666667 14.110772 124.884615 14.077040 125.102564 14.042740 125.320513 14.007877 125.538462 13.972452 125.756410 13.936469 125.974359 13.899931 126.192308 13.862840 126.410256 13.825200 126.628205 13.787013 126.846154 13.748283 127.064103 13.709013 127.282051 13.669204 127.500000 13.628862 127.717949 13.587987 127.935897 13.546584 128.153846 13.504655 128.371795 13.462203 128.589744 13.419231 128.807692 13.375742 129.025641 13.331739 129.243590 13.287226 129.461538 13.242204 129.679487 13.196677 129.897436 13.150648 130.115385 13.104120 130.333333 13.057095 130.551282 13.009577 130.769231 12.961569 130.987179 12.913074 131.205128 12.864094 131.423077 12.814632 131.641026 12.764692 131.858974 12.714277 132.076923 12.663389 132.294872 12.612031 132.512821 12.560207 132.730769 12.507918 132.948718 12.455169 133.166667 12.401962 133.384615 12.348301 133.602564 12.294187 133.820513 12.239624 134.038462 12.184615 134.256410 12.129164 134.474359 12.073272 134.692308 12.016943 134.910256 11.960179 135.128205 11.902985 135.346154 11.845362 135.564103 11.787313 135.782051 11.728843 136.000000 11.669953 136.217949 11.610646 136.435897 11.550926 136.653846 11.490795 136.871795 11.430257 137.089744 11.369314 137.307692 11.307969 137.525641 11.246226 137.743590 11.184086 137.961538 11.121554 138.179487 11.058632 138.397436 10.995323 138.615385 10.931630 138.833333 10.867556 139.051282 10.803104 139.269231 10.738276 139.487179 10.673077 139.705128 10.607508 139.923077 10.541573 140.141026 10.475275 140.358974 10.408616 140.576923 10.341600 140.794872 10.274229 141.012821 10.206507 141.230769 10.138437 141.448718 10.070020 141.666667 10.001262 141.884615 9.932163 142.102564 9.862728 142.320513 9.792959 142.538462 9.722859 142.756410 9.652431 142.974359 9.581678 143.192308 9.510603 143.410256 9.439210 143.628205 9.367500 143.846154 9.295477 144.064103 9.223144 144.282051 9.150504 144.500000 9.077559 144.717949 9.004313 144.935897 8.930769 145.153846 8.856930 145.371795 8.782798 145.589744 8.708376 145.807692 8.633668 146.025641 8.558677 146.243590 8.483405 146.461538 8.407855 146.679487 8.332031 146.897436 8.255934 147.115385 8.179569 147.333333 8.102938 147.551282 8.026045 147.769231 7.948891 147.987179 7.871480 148.205128 7.793815 148.423077 7.715900 148.641026 7.637736 148.858974 7.559327 149.076923 7.480675 149.294872 7.401785 149.512821 7.322658 149.730769 7.243297 149.948718 7.163707 150.166667 7.083889 150.384615 7.003846 150.602564 6.923582 150.820513 6.843099 151.038462 6.762401 151.256410 6.681490 151.474359 6.600369 151.692308 6.519042 151.910256 6.437510 152.128205 6.355778 152.346154 6.273848 152.564103 6.191723 152.782051 6.109406 153.000000 6.026900 153.217949 5.944208 153.435897 5.861332 153.653846 5.778277 153.871795 5.695044 154.089744 5.611637 154.307692 5.528059 154.525641 5.444312 154.743590 5.360400 154.961538 5.276325 155.179487 5.192091 155.397436 5.107701 155.615385 5.023156 155.833333 4.938462 156.051282 4.853619 156.269231 4.768632 156.487179 4.683503 156.705128 4.598235 156.923077 4.512831 157.141026 4.427294 157.358974 4.341627 157.576923 4.255834 157.794872 4.169916 158.012821 4.083877 158.230769 3.997720 158.448718 3.911448 158.666667 3.825063 158.884615 3.738569 159.102564 3.651969 159.320513 3.565266 159.538462 3.478462 159.756410 3.391560 159.974359 3.304564 160.192308 3.217477 160.410256 3.130301 160.628205 3.043039 160.846154 2.955695 161.064103 2.868270 161.282051 2.780769 161.500000 2.693194 161.717949 2.605549 161.935897 2.517835 162.153846 2.430056 162.371795 2.342215 162.589744 2.254316 162.807692 2.166360 163.025641 2.078351 163.243590 1.990291 163.461538 1.902185 163.679487 1.814034 163.897436 1.725841 164.115385 1.637611 164.333333 1.549345 164.551282 1.461046 164.769231 1.372718 164.987179 1.284363 165.205128 1.195985 165.423077 1.107586 165.641026 1.019169 165.858974 0.930738 166.076923 0.842294 166.294872 0.753842 166.512821 0.665384 166.730769 0.576923" class="line reactive nofill" /></g></g><g class="titles" /><g transform="translate(20, 10)" class="plot overlay"><g class="series serie-0 color-0" /></g><g transform="translate(20, 10)" class="plot text-overlay"><g class="series serie-0 color-0" /></g><g transform="translate(20, 10)" class="plot tooltip-overlay"><g transform="translate(0 0)" style="opacity: 0" class="tooltip"><rect rx="0" ry="0" width="0" height="0" class="tooltip-box" /><g class="text" /></g></g></g></svg>