<?xml version='1.0' encoding='utf-8'?>
<svg xmlns="http://www.w3.org/2000/svg" id="chart-3fae5d2c-3ce2-4773-9b65-2a833a4baed8" class="pygal-chart pygal-sparkline" viewBox="0 0 200 50" width="200" height="50"><!--Generated with pygal 3.0.5 (etree) ©Kozea 2012-2016 on 2025-02-09--><!--http://pygal.org--><!--http://github.com/Kozea/pygal--><defs><style type="text/css">#chart-3fae5d2c-3ce2-4773-9b65-2a833a4baed8{-webkit-user-select:none;-webkit-font-smoothing:antialiased;font-family:Consolas,"Liberation Mono",Menlo,Courier,monospace}#chart-3fae5d2c-3ce2-4773-9b65-2a833a4baed8 .title{font-family:Consolas,"Liberation Mono",Menlo,Courier,monospace;font-size:16px}#chart-3fae5d2c-3ce2-4773-9b65-2a833a4baed8 .legends .legend text{font-family:Consolas,"Liberation Mono",Menlo,Courier,monospace;font-size:14px}#chart-3fae5d2c-3ce2-4773-9b65-2a833a4baed8 .axis text{font-family:Consolas,"Liberation Mono",Menlo,Courier,monospace;font-size:10px}#chart-3fae5d2c-3ce2-4773-9b65-2a833a4baed8 .axis text.major{font-family:Consolas,"Liberation Mono",Menlo,Courier,monospace;font-size:10px}#chart-3fae5d2c-3ce2-4773-9b65-2a833a4baed8 .text-overlay text.value{font-family:Consolas,"Liberation Mono",Menlo,Courier,monospace;font-size:16px}#chart-3fae5d2c-3ce2-4773-9b65-2a833a4baed8 .text-overlay text.label{font-family:Consolas,"Liberation Mono",Menlo,Courier,monospace;font-size:10px}#chart-3fae5d2c-3ce2-4773-9b65-2a833a4baed8 .tooltip{font-family:Consolas,"Liberation Mono",Menlo,Courier,monospace;font-size:14px}#chart-3fae5d2c-3ce2-4773-9b65-2a833a4baed8 text.no_data{font-family:Consolas,"Liberation Mono",Menlo,Courier,monospace;font-size:64px}
#chart-3fae5d2c-3ce2-4773-9b65-2a833a4baed8{background-color:rgba(249,249,249,1)}#chart-3fae5d2c-3ce2-4773-9b65-2a833a4baed8 path,#chart-3fae5d2c-3ce2-4773-9b65-2a833a4baed8 line,#chart-3fae5d2c-3ce2-4773-9b65-2a833a4baed8 rect,#chart-3fae5d2c-3ce2-4773-9b65-2a833a4baed8 circle{-webkit-transition:150ms;-moz-transition:150ms;transition:150ms}#chart-3fae5d2c-3ce2-4773-9b65-2a833a4baed8 .graph &gt; .background{fill:rgba(249,249,249,1)}#chart-3fae5d2c-3ce2-4773-9b65-2a833a4baed8 .plot &gt; .background{fill:rgba(255,255,255,1)}#chart-3fae5d2c-3ce2-4773-9b65-2a833a4baed8 .graph{fill:rgba(0,0,0,.87)}#chart-3fae5d2c-3ce2-4773-9b65-2a833a4baed8 text.no_data{fill:rgba(0,0,0,1)}#chart-3fae5d2c-3ce2-4773-9b65-2a833a4baed8 .title{fill:rgba(0,0,0,1)}#chart-3fae5d2c-3ce2-4773-9b65-2a833a4baed8 .legends .legend text{fill:rgba(0,0,0,.87)}#chart-3fae5d2c-3ce2-4773-9b65-2a833a4baed8 .legends .legend:hover text{fill:rgba(0,0,0,1)}#chart-3fae5d2c-3ce2-4773-9b65-2a833a4baed8 .axis .line{stroke:rgba(0,0,0,1)}#chart-3fae5d2c-3ce2-4773-9b65-2a833a4baed8 .axis .guide.line{stroke:rgba(0,0,0,.54)}#chart-3fae5d2c-3ce2-4773-9b65-2a833a4baed8 .axis .major.line{stroke:rgba(0,0,0,.87)}#chart-3fae5d2c-3ce2-4773-9b65-2a833a4baed8 .axis text.major{fill:rgba(0,0,0,1)}#chart-3fae5d2c-3ce2-4773-9b65-2a833a4baed8 .axis.y .guides:hover .guide.line,#chart-3fae5d2c-3ce2-4773-9b65-2a833a4baed8 .line-graph .axis.x .guides:hover .guide.line,#chart-3fae5d2c-3ce2-4773-9b65-2a833a4baed8 .stackedline-graph .axis.x .guides:hover .guide.line,#chart-3fae5d2c-3ce2-4773-9b65-2a833a4baed8 .xy-graph .axis.x .guides:hover .guide.line{stroke:rgba(0,0,0,1)}#chart-3fae5d2c-3ce2-4773-9b65-2a833a4baed8 .axis .guides:hover text{fill:rgba(0,0,0,1)}#chart-3fae5d2c-3ce2-4773-9b65-2a833a4baed8 .reactive{fill-opacity:.7;stroke-opacity:.8;stroke-width:1}#chart-3fae5d2c-3ce2-4773-9b65-2a833a4baed8 .ci{stroke:rgba(0,0,0,.87)}#chart-3fae5d2c-3ce2-4773-9b65-2a833a4baed8 .reactive.active,#chart-3fae5d2c-3ce2-4773-9b65-2a833a4baed8 .active .reactive{fill-opacity:.8;stroke-opacity:.9;stroke-width:4}#chart-3fae5d2c-3ce2-4773-9b65-2a833a4baed8 .ci .reactive.active{stroke-width:1.5}#chart-3fae5d2c-3ce2-4773-9b65-2a833a4baed8 .series text{fill:rgba(0,0,0,1)}#chart-3fae5d2c-3ce2-4773-9b65-2a833a4baed8 .tooltip rect{fill:rgba(255,255,255,1);stroke:rgba(0,0,0,1);-webkit-transition:opacity 150ms;-moz-transition:opacity 150ms;transition:opacity 150ms}#chart-3fae5d2c-3ce2-4773-9b65-2a833a4baed8 .tooltip .label{fill:rgba(0,0,0,.87)}#chart-3fae5d2c-3ce2-4773-9b65-2a833a4baed8 .tooltip .label{fill:rgba(0,0,0,.87)}#chart-3fae5d2c-3ce2-4773-9b65-2a833a4baed8 .tooltip .legend{font-size:.8em;fill:rgba(0,0,0,.54)}#chart-3fae5d2c-3ce2-4773-9b65-2a833a4baed8 .tooltip .x_label{font-size:.6em;fill:rgba(0,0,0,1)}#chart-3fae5d2c-3ce2-4773-9b65-2a833a4baed8 .tooltip .xlink{font-size:.5em;text-decoration:underline}#chart-3fae5d2c-3ce2-4773-9b65-2a833a4baed8 .tooltip .value{font-size:1.5em}#chart-3fae5d2c-3ce2-4773-9b65-2a833a4baed8 .bound{font-size:.5em}#chart-3fae5d2c-3ce2-4773-9b65-2a833a4baed8 .max-value{font-size:.75em;fill:rgba(0,0,0,.54)}#chart-3fae5d2c-3ce2-4773-9b65-2a833a4baed8 .map-element{fill:rgba(255,255,255,1);stroke:rgba(0,0,0,.54) !important}#chart-3fae5d2c-3ce2-4773-9b65-2a833a4baed8 .map-element .reactive{fill-opacity:inherit;stroke-opacity:inherit}#chart-3fae5d2c-3ce2-4773-9b65-2a833a4baed8 .color-0,#chart-3fae5d2c-3ce2-4773-9b65-2a833a4baed8 .color-0 a:visited{stroke:#F44336;fill:#F44336}#chart-3fae5d2c-3ce2-4773-9b65-2a833a4baed8 .text-overlay .color-0 text{fill:black}
#chart-3fae5d2c-3ce2-4773-9b65-2a833a4baed8 text.no_data{text-anchor:middle}#chart-3fae5d2c-3ce2-4773-9b65-2a833a4baed8 .guide.line{fill:none}#chart-3fae5d2c-3ce2-4773-9b65-2a833a4baed8 .centered{text-anchor:middle}#chart-3fae5d2c-3ce2-4773-9b65-2a833a4baed8 .title{text-anchor:middle}#chart-3fae5d2c-3ce2-4773-9b65-2a833a4baed8 .legends .legend text{fill-opacity:1}#chart-3fae5d2c-3ce2-4773-9b65-2a833a4baed8 .axis.x text{text-anchor:middle}#chart-3fae5d2c-3ce2-4773-9b65-2a833a4baed8 .axis.x:not(.web) text[transform]{text-anchor:start}#chart-3fae5d2c-3ce2-4773-9b65-2a833a4baed8 .axis.x:not(.web) text[transform].backwards{text-anchor:end}#chart-3fae5d2c-3ce2-4773-9b65-2a833a4baed8 .axis.y text{text-anchor:end}#chart-3fae5d2c-3ce2-4773-9b65-2a833a4baed8 .axis.y text[transform].backwards{text-anchor:start}#chart-3fae5d2c-3ce2-4773-9b65-2a833a4baed8 .axis.y2 text{text-anchor:start}#chart-3fae5d2c-3ce2-4773-9b65-2a833a4baed8 .axis.y2 text[transform].backwards{text-anchor:end}#chart-3fae5d2c-3ce2-4773-9b65-2a833a4baed8 .axis .guide.line{stroke-dasharray:4,4;stroke:black}#chart-3fae5d2c-3ce2-4773-9b65-2a833a4baed8 .axis .major.guide.line{stroke-dasharray:6,6;stroke:black}#chart-3fae5d2c-3ce2-4773-9b65-2a833a4baed8 .horizontal .axis.y .guide.line,#chart-3fae5d2c-3ce2-4773-9b65-2a833a4baed8 .horizontal .axis.y2 .guide.line,#chart-3fae5d2c-3ce2-4773-9b65-2a833a4baed8 .vertical .axis.x .guide.line{opacity:0}#chart-3fae5d2c-3ce2-4773-9b65-2a833a4baed8 .horizontal .axis.always_show .guide.line,#chart-3fae5d2c-3ce2-4773-9b65-2a833a4baed8 .vertical .axis.always_show .guide.line{opacity:1 !important}#chart-3fae5d2c-3ce2-4773-9b65-2a833a4baed8 .axis.y .guides:hover .guide.line,#chart-3fae5d2c-3ce2-4773-9b65-2a833a4baed8 .axis.y2 .guides:hover .guide.line,#chart-3fae5d2c-3ce2-4773-9b65-2a833a4baed8 .axis.x .guides:hover .guide.line{opacity:1}#chart-3fae5d2c-3ce2-4773-9b65-2a833a4baed8 .axis .guides:hover text{opacity:1}#chart-3fae5d2c-3ce2-4773-9b65-2a833a4baed8 .nofill{fill:none}#chart-3fae5d2c-3ce2-4773-9b65-2a833a4baed8 .subtle-fill{fill-opacity:.2}#chart-3fae5d2c-3ce2-4773-9b65-2a833a4baed8 .dot{stroke-width:1px;fill-opacity:1;stroke-opacity:1}#chart-3fae5d2c-3ce2-4773-9b65-2a833a4baed8 .dot.active{stroke-width:5px}#chart-3fae5d2c-3ce2-4773-9b65-2a833a4baed8 .dot.negative{fill:transparent}#chart-3fae5d2c-3ce2-4773-9b65-2a833a4baed8 text,#chart-3fae5d2c-3ce2-4773-9b65-2a833a4baed8 tspan{stroke:none !important}#chart-3fae5d2c-3ce2-4773-9b65-2a833a4baed8 .series text.active{opacity:1}#chart-3fae5d2c-3ce2-4773-9b65-2a833a4baed8 .tooltip rect{fill-opacity:.95;stroke-width:.5}#chart-3fae5d2c-3ce2-4773-9b65-2a833a4baed8 .tooltip text{fill-opacity:1}#chart-3fae5d2c-3ce2-4773-9b65-2a833a4baed8 .showable{visibility:hidden}#chart-3fae5d2c-3ce2-4773-9b65-2a833a4baed8 .showable.shown{visibility:visible}#chart-3fae5d2c-3ce2-4773-9b65-2a833a4baed8 .gauge-background{fill:rgba(229,229,229,1);stroke:none}#chart-3fae5d2c-3ce2-4773-9b65-2a833a4baed8 .bg-lines{stroke:rgba(249,249,249,1);stroke-width:2px}</style><script type="text/javascript">window.pygal = window.pygal || {};window.pygal.config = window.pygal.config || {};window.pygal.config['3fae5d2c-3ce2-4773-9b65-2a833a4baed8'] = {"allow_interruptions": false, "box_mode": "extremes", "classes": ["pygal-chart", "pygal-sparkline"], "css": ["file://style.css", "file://graph.css"], "defs": [], "disable_xml_declaration": false, "dots_size": 2.5, "dynamic_print_values": false, "explicit_size": true, "fill": false, "force_uri_protocol": "https", "formatter": null, "half_pie": false, "height": 50, "include_x_axis": false, "inner_radius": 0, "interpolate": "cubic", "interpolation_parameters": {}, "interpolation_precision": 250, "inverse_y_axis": false, "js": [], "legend_at_bottom": false, "legend_at_bottom_columns": null, "legend_box_size": 12, "logarithmic": false, "margin": 10, "margin_bottom": null, "margin_left": null, "margin_right": null, "margin_top": null, "max_scale": 2, "min_scale": 1, "missing_value_fill_truncation": "x", "no_data_text": "", "no_prefix": false, "order_min": null, "pretty_print": false, "print_labels": false, "print_values": false, "print_values_position": "center", "print_zeroes": true, "range": null, "rounded_bars": null, "secondary_range": null, "show_dots": false, "show_legend": false, "show_minor_x_labels": true, "show_minor_y_labels": true, "show_only_major_dots": false, "show_x_guides": false, "show_x_labels": false, "show_y_guides": true, "show_y_labels": true, "spacing": 0, "stack_from_top": false, "strict": false, "stroke": true, "stroke_style": null, "style": {"background": "rgba(249, 249, 249, 1)", "ci_colors": [], "colors": ["#F44336", "#3F51B5", "#009688", "#FFC107", "#FF5722", "#9C27B0", "#03A9F4", "#8BC34A", "#FF9800", "#E91E63", "#2196F3", "#4CAF50", "#FFEB3B", "#673AB7", "#00BCD4", "#CDDC39", "#9E9E9E", "#607D8B"], "dot_opacity": "1", "font_family": "Consolas, \"Liberation Mono\", Menlo, Courier, monospace", "foreground": "rgba(0, 0, 0, .87)", "foreground_strong": "rgba(0, 0, 0, 1)", "foreground_subtle": "rgba(0, 0, 0, .54)", "guide_stroke_color": "black", "guide_stroke_dasharray": "4,4", "label_font_family": "Consolas, \"Liberation Mono\", Menlo, Courier, monospace", "label_font_size": 10, "legend_font_family": "Consolas, \"Liberation Mono\", Menlo, Courier, monospace", "legend_font_size": 14, "major_guide_stroke_color": "black", "major_guide_stroke_dasharray": "6,6", "major_label_font_family": "Consolas, \"Liberation Mono\", Menlo, Courier, monospace", "major_label_font_size": 10, "no_data_font_family": "Consolas, \"Liberation Mono\", Menlo, Courier, monospace", "no_data_font_size": 64, "opacity": ".7", "opacity_hover": ".8", "plot_background": "rgba(255, 255, 255, 1)", "stroke_opacity": ".8", "stroke_opacity_hover": ".9", "stroke_width": "1", "stroke_width_hover": "4", "title_font_family": "Consolas, \"Liberation Mono\", Menlo, Courier, monospace", "title_font_size": 16, "tooltip_font_family": "Consolas, \"Liberation Mono\", Menlo, Courier, monospace", "tooltip_font_size": 14, "transition": "150ms", "value_background": "rgba(229, 229, 229, 1)", "value_colors": [], "value_font_family": "Consolas, \"Liberation Mono\", Menlo, Courier, monospace", "value_font_size": 16, "value_label_font_family": "Consolas, \"Liberation Mono\", Menlo, Courier, monospace", "value_label_font_size": 10}, "title": null, "tooltip_border_radius": 0, "tooltip_fancy_mode": true, "truncate_label": null, "truncate_legend": null, "width": 200, "x_label_rotation": 0, "x_labels": ["2025/1", "2024/12", "2024/11", "2024/10"], "x_labels_major": null, "x_labels_major_count": null, "x_labels_major_every": null, "x_title": null, "xrange": null, "y_label_rotation": 0, "y_labels": null, "y_labels_major": null, "y_labels_major_count": null, "y_labels_major_every": null, "y_title": null, "zero": 0, "legends": [""]}</script></defs><title>Pygal</title><g class="graph line-graph vertical"><rect x="0" y="0" width="200" height="50" class="background" /><g transform="translate(76, 10)" class="plot"><rect x="0" y="0" width="114.0" height="30" class="background" /><g class="axis y always_show"><path d="M0.000000 30.000000 h114.000000" class="line" /><g class="guides"><path d="M0.000000 29.423077 h114.000000" class="guide line" /><text x="-5" y="32.92307692307692" class="">2.442385613</text><title>2.442385613</title></g><g class="guides"><path d="M0.000000 0.576923 h114.000000" class="guide line" /><text x="-5" y="4.076923076923077" class="">13</text><title>13</title></g></g><g class="series serie-0 color-0"><path d="M2.192308 0.576923 L2.338462 0.592224 2.484615 0.607527 2.630769 0.622833 2.776923 0.638144 2.923077 0.653461 3.069231 0.668787 3.215385 0.684124 3.361538 0.699472 3.507692 0.714833 3.653846 0.730209 3.800000 0.745603 3.946154 0.761014 4.092308 0.776446 4.238462 0.791900 4.384615 0.807377 4.530769 0.822880 4.676923 0.838409 4.823077 0.853967 4.969231 0.869555 5.115385 0.885175 5.261538 0.900828 5.407692 0.916517 5.553846 0.932242 5.700000 0.948007 5.846154 0.963811 5.992308 0.979658 6.138462 0.995548 6.284615 1.011483 6.430769 1.027466 6.576923 1.043497 6.723077 1.059579 6.869231 1.075712 7.015385 1.091899 7.161538 1.108142 7.307692 1.124442 7.453846 1.140800 7.600000 1.157219 7.746154 1.173700 7.892308 1.190245 8.038462 1.206856 8.184615 1.223533 8.330769 1.240279 8.476923 1.257096 8.623077 1.273985 8.769231 1.290948 8.915385 1.307986 9.061538 1.325102 9.207692 1.342297 9.353846 1.359572 9.500000 1.376929 9.646154 1.394370 9.792308 1.411897 9.938462 1.429511 10.084615 1.447215 10.230769 1.465008 10.376923 1.482894 10.523077 1.500875 10.669231 1.518950 10.815385 1.537124 10.961538 1.555396 11.107692 1.573769 11.253846 1.592244 11.400000 1.610824 11.546154 1.629509 11.692308 1.648301 11.838462 1.667203 11.984615 1.686216 12.130769 1.705341 12.276923 1.724580 12.423077 1.743935 12.569231 1.763407 12.715385 1.782999 12.861538 1.802712 13.007692 1.822547 13.153846 1.842506 13.300000 1.862591 13.446154 1.882804 13.592308 1.903146 13.738462 1.923619 13.884615 1.944225 14.030769 1.964965 14.176923 1.985841 14.323077 2.006854 14.469231 2.028007 14.615385 2.049301 14.761538 2.070738 14.907692 2.092319 15.053846 2.114046 15.200000 2.135920 15.346154 2.157945 15.492308 2.180120 15.638462 2.202448 15.784615 2.224930 15.930769 2.247569 16.076923 2.270365 16.223077 2.293321 16.369231 2.316438 16.515385 2.339718 16.661538 2.363162 16.807692 2.386772 16.953846 2.410551 17.100000 2.434499 17.246154 2.458618 17.392308 2.482910 17.538462 2.507377 17.684615 2.532020 17.830769 2.556840 17.976923 2.581841 18.123077 2.607023 18.269231 2.632387 18.415385 2.657937 18.561538 2.683673 18.707692 2.709596 18.853846 2.735710 19.000000 2.762015 19.146154 2.788512 19.292308 2.815205 19.438462 2.842094 19.584615 2.869181 19.730769 2.896468 19.876923 2.923956 20.023077 2.951648 20.169231 2.979544 20.315385 3.007647 20.461538 3.035958 20.607692 3.064478 20.753846 3.093211 20.900000 3.122156 21.046154 3.151316 21.192308 3.180693 21.338462 3.210288 21.484615 3.240103 21.630769 3.270140 21.776923 3.300400 21.923077 3.330884 22.069231 3.361596 22.215385 3.392536 22.361538 3.423705 22.507692 3.455107 22.653846 3.486741 22.800000 3.518611 22.946154 3.550717 23.092308 3.583062 23.238462 3.615647 23.384615 3.648474 23.530769 3.681544 23.676923 3.714859 23.823077 3.748421 23.969231 3.782231 24.115385 3.816291 24.261538 3.850603 24.407692 3.885169 24.553846 3.919990 24.700000 3.955068 24.846154 3.990404 24.992308 4.026000 25.138462 4.061859 25.284615 4.097981 25.430769 4.134368 25.576923 4.171022 25.723077 4.207944 25.869231 4.245137 26.015385 4.282602 26.161538 4.320341 26.307692 4.358354 26.453846 4.396645 26.600000 4.435214 26.746154 4.474064 26.892308 4.513196 27.038462 4.552611 27.184615 4.592312 27.330769 4.632300 27.476923 4.672577 27.623077 4.713144 27.769231 4.754003 27.915385 4.795156 28.061538 4.836604 28.207692 4.878350 28.353846 4.920394 28.500000 4.962739 28.646154 5.005386 28.792308 5.048337 28.938462 5.091593 29.084615 5.135157 29.230769 5.179029 29.376923 5.223212 29.523077 5.267707 29.669231 5.312517 29.815385 5.357641 29.961538 5.403083 30.107692 5.448844 30.253846 5.494926 30.400000 5.541330 30.546154 5.588058 30.692308 5.635111 30.838462 5.682492 30.984615 5.730202 31.130769 5.778243 31.276923 5.826616 31.423077 5.875323 31.569231 5.924366 31.715385 5.973746 31.861538 6.023465 32.007692 6.073525 32.153846 6.123928 32.300000 6.174675 32.446154 6.225767 32.592308 6.277207 32.738462 6.328996 32.884615 6.381136 33.030769 6.433629 33.176923 6.486476 33.323077 6.539678 33.469231 6.593239 33.615385 6.647158 33.761538 6.701438 33.907692 6.756081 34.053846 6.811089 34.200000 6.866462 34.346154 6.922203 34.492308 6.978313 34.638462 7.034794 34.784615 7.091648 34.930769 7.148876 35.076923 7.206480 35.223077 7.264462 35.369231 7.322823 35.515385 7.381566 35.661538 7.440691 35.807692 7.500200 35.953846 7.560096 36.100000 7.620379 36.246154 7.681052 36.392308 7.742116 36.538462 7.803573 36.684615 7.865424 36.830769 7.927672 36.976923 7.990317 37.123077 8.053362 37.269231 8.116808 37.415385 8.180657 37.561538 8.244911 37.707692 8.309571 37.853846 8.374638 38.000000 8.440116 38.146154 8.506004 38.292308 8.572306 38.438462 8.639022 38.584615 8.706154 38.730769 8.773705 38.876923 8.841674 39.023077 8.910059 39.169231 8.978855 39.315385 9.048058 39.461538 9.117664 39.607692 9.187668 39.753846 9.258067 39.900000 9.328857 40.046154 9.400032 40.192308 9.471590 40.338462 9.543525 40.484615 9.615834 40.630769 9.688512 40.776923 9.761555 40.923077 9.834959 41.069231 9.908719 41.215385 9.982833 41.361538 10.057294 41.507692 10.132100 41.653846 10.207246 41.800000 10.282727 41.946154 10.358540 42.092308 10.434680 42.238462 10.511144 42.384615 10.587926 42.530769 10.665023 42.676923 10.742431 42.823077 10.820145 42.969231 10.898161 43.115385 10.976475 43.261538 11.055083 43.407692 11.133981 43.553846 11.213164 43.700000 11.292628 43.846154 11.372369 43.992308 11.452383 44.138462 11.532665 44.284615 11.613212 44.430769 11.694019 44.576923 11.775082 44.723077 11.856397 44.869231 11.937960 45.015385 12.019765 45.161538 12.101811 45.307692 12.184091 45.453846 12.266602 45.600000 12.349339 45.746154 12.432299 45.892308 12.515477 46.038462 12.598870 46.184615 12.682472 46.330769 12.766280 46.476923 12.850289 46.623077 12.934495 46.769231 13.018895 46.915385 13.103483 47.061538 13.188256 47.207692 13.273209 47.353846 13.358339 47.500000 13.443641 47.646154 13.529111 47.792308 13.614744 47.938462 13.700537 48.084615 13.786485 48.230769 13.872584 48.376923 13.958830 48.523077 14.045219 48.669231 14.131746 48.815385 14.218408 48.961538 14.305199 49.107692 14.392117 49.253846 14.479156 49.400000 14.566313 49.546154 14.653583 49.692308 14.740962 49.838462 14.828446 49.984615 14.916031 50.130769 15.003712 50.276923 15.091486 50.423077 15.179348 50.569231 15.267294 50.715385 15.355319 50.861538 15.443420 51.007692 15.531592 51.153846 15.619832 51.300000 15.708134 51.446154 15.796496 51.592308 15.884911 51.738462 15.973378 51.884615 16.061890 52.030769 16.150444 52.176923 16.239036 52.323077 16.327662 52.469231 16.416317 52.615385 16.504997 52.761538 16.593698 52.907692 16.682416 53.053846 16.771147 53.200000 16.859885 53.346154 16.948629 53.492308 17.037372 53.638462 17.126111 53.784615 17.214841 53.930769 17.303559 54.076923 17.392260 54.223077 17.480940 54.369231 17.569595 54.515385 17.658221 54.661538 17.746813 54.807692 17.835367 54.953846 17.923880 55.100000 18.012346 55.246154 18.100762 55.392308 18.189123 55.538462 18.277425 55.684615 18.365665 55.830769 18.453837 55.976923 18.541938 56.123077 18.629964 56.269231 18.717909 56.415385 18.805771 56.561538 18.893545 56.707692 18.981226 56.853846 19.068811 57.000000 19.156295 57.146154 19.243674 57.292308 19.330944 57.438462 19.418101 57.584615 19.505140 57.730769 19.592058 57.876923 19.678850 58.023077 19.765511 58.169231 19.852038 58.315385 19.938427 58.461538 20.024673 58.607692 20.110772 58.753846 20.196720 58.900000 20.282513 59.046154 20.368147 59.192308 20.453616 59.338462 20.538918 59.484615 20.624048 59.630769 20.709001 59.776923 20.793774 59.923077 20.878363 60.069231 20.962762 60.215385 21.046968 60.361538 21.130978 60.507692 21.214785 60.653846 21.298387 60.800000 21.381780 60.946154 21.464958 61.092308 21.547918 61.238462 21.630656 61.384615 21.713167 61.530769 21.795447 61.676923 21.877492 61.823077 21.959298 61.969231 22.040860 62.115385 22.122175 62.261538 22.203238 62.407692 22.284045 62.553846 22.364592 62.700000 22.444874 62.846154 22.524888 62.992308 22.604629 63.138462 22.684094 63.284615 22.763276 63.430769 22.842174 63.576923 22.920782 63.723077 22.999096 63.869231 23.077112 64.015385 23.154826 64.161538 23.232234 64.307692 23.309331 64.453846 23.386114 64.600000 23.462577 64.746154 23.538717 64.892308 23.614530 65.038462 23.690012 65.184615 23.765157 65.330769 23.839963 65.476923 23.914425 65.623077 23.988538 65.769231 24.062299 65.915385 24.135703 66.061538 24.208746 66.207692 24.281424 66.353846 24.353732 66.500000 24.425667 66.646154 24.497225 66.792308 24.568400 66.938462 24.639190 67.084615 24.709589 67.230769 24.779594 67.376923 24.849199 67.523077 24.918402 67.669231 24.987198 67.815385 25.055583 67.961538 25.123552 68.107692 25.191102 68.253846 25.258228 68.400000 25.324925 68.546154 25.391190 68.692308 25.457019 68.838462 25.522407 68.984615 25.587351 69.130769 25.651845 69.276923 25.715886 69.423077 25.779470 69.569231 25.842592 69.715385 25.905248 69.861538 25.967434 70.007692 26.029146 70.153846 26.090379 70.300000 26.151130 70.446154 26.211394 70.592308 26.271167 70.738462 26.330445 70.884615 26.389223 71.030769 26.447498 71.176923 26.505264 71.323077 26.562519 71.469231 26.619258 71.615385 26.675476 71.761538 26.731170 71.907692 26.786335 72.053846 26.840967 72.200000 26.895062 72.346154 26.948615 72.492308 27.001623 72.638462 27.054081 72.784615 27.105985 72.930769 27.157331 73.076923 27.208114 73.223077 27.258331 73.369231 27.307977 73.515385 27.357049 73.661538 27.405541 73.807692 27.453449 73.953846 27.500770 74.100000 27.547500 74.246154 27.593633 74.392308 27.639167 74.538462 27.684096 74.684615 27.728416 74.830769 27.772124 74.976923 27.815215 75.123077 27.857685 75.269231 27.899529 75.415385 27.940745 75.561538 27.981334 75.707692 28.021299 75.853846 28.060641 76.000000 28.099364 76.146154 28.137471 76.292308 28.174963 76.438462 28.211842 76.584615 28.248113 76.730769 28.283777 76.876923 28.318836 77.023077 28.353294 77.169231 28.387152 77.315385 28.420413 77.461538 28.453081 77.607692 28.485156 77.753846 28.516642 77.900000 28.547542 78.046154 28.577857 78.192308 28.607591 78.338462 28.636746 78.484615 28.665324 78.630769 28.693327 78.776923 28.720760 78.923077 28.747623 79.069231 28.773919 79.215385 28.799652 79.361538 28.824823 79.507692 28.849435 79.653846 28.873490 79.800000 28.896992 79.946154 28.919942 80.092308 28.942343 80.238462 28.964198 80.384615 28.985509 80.530769 29.006278 80.676923 29.026509 80.823077 29.046203 80.969231 29.065363 81.115385 29.083992 81.261538 29.102093 81.407692 29.119667 81.553846 29.136717 81.700000 29.153246 81.846154 29.169257 81.992308 29.184751 82.138462 29.199731 82.284615 29.214200 82.430769 29.228161 82.576923 29.241616 82.723077 29.254566 82.869231 29.267016 83.015385 29.278967 83.161538 29.290423 83.307692 29.301384 83.453846 29.311855 83.600000 29.321837 83.746154 29.331333 83.892308 29.340346 84.038462 29.348878 84.184615 29.356931 84.330769 29.364508 84.476923 29.371612 84.623077 29.378245 84.769231 29.384410 84.915385 29.390109 85.061538 29.395345 85.207692 29.400119 85.353846 29.404436 85.500000 29.408297 85.646154 29.411704 85.792308 29.414661 85.938462 29.417169 86.084615 29.419232 86.230769 29.420852 86.376923 29.422031 86.523077 29.422772 86.669231 29.423077 86.815385 29.422949 86.961538 29.422391 87.107692 29.421404 87.253846 29.419992 87.400000 29.418157 87.546154 29.415901 87.692308 29.413228 87.838462 29.410139 87.984615 29.406637 88.130769 29.402724 88.276923 29.398404 88.423077 29.393678 88.569231 29.388549 88.715385 29.383020 88.861538 29.377093 89.007692 29.370771 89.153846 29.364056 89.300000 29.356950 89.446154 29.349457 89.592308 29.341579 89.738462 29.333318 89.884615 29.324676 90.030769 29.315657 90.176923 29.306263 90.323077 29.296496 90.469231 29.286359 90.615385 29.275854 90.761538 29.264984 90.907692 29.253752 91.053846 29.242159 91.200000 29.230209 91.346154 29.217904 91.492308 29.205246 91.638462 29.192238 91.784615 29.178883 91.930769 29.165183 92.076923 29.151141 92.223077 29.136758 92.369231 29.122038 92.515385 29.106983 92.661538 29.091596 92.807692 29.075879 92.953846 29.059834 93.100000 29.043465 93.246154 29.026773 93.392308 29.009762 93.538462 28.992433 93.684615 28.974790 93.830769 28.956834 93.976923 28.938569 94.123077 28.919996 94.269231 28.901119 94.415385 28.881940 94.561538 28.862460 94.707692 28.842684 94.853846 28.822613 95.000000 28.802251 95.146154 28.781598 95.292308 28.760658 95.438462 28.739434 95.584615 28.717928 95.730769 28.696143 95.876923 28.674080 96.023077 28.651743 96.169231 28.629134 96.315385 28.606255 96.461538 28.583110 96.607692 28.559700 96.753846 28.536029 96.900000 28.512098 97.046154 28.487910 97.192308 28.463468 97.338462 28.438774 97.484615 28.413830 97.630769 28.388640 97.776923 28.363206 97.923077 28.337530 98.069231 28.311615 98.215385 28.285463 98.361538 28.259077 98.507692 28.232459 98.653846 28.205612 98.800000 28.178539 98.946154 28.151241 99.092308 28.123722 99.238462 28.095984 99.384615 28.068029 99.530769 28.039860 99.676923 28.011479 99.823077 27.982890 99.969231 27.954094 100.115385 27.925094 100.261538 27.895893 100.407692 27.866493 100.553846 27.836896 100.700000 27.807106 100.846154 27.777124 100.992308 27.746953 101.138462 27.716596 101.284615 27.686055 101.430769 27.655333 101.576923 27.624432 101.723077 27.593355 101.869231 27.562104 102.015385 27.530682 102.161538 27.499091 102.307692 27.467334 102.453846 27.435413 102.600000 27.403331 102.746154 27.371090 102.892308 27.338694 103.038462 27.306143 103.184615 27.273442 103.330769 27.240592 103.476923 27.207596 103.623077 27.174456 103.769231 27.141176 103.915385 27.107757 104.061538 27.074202 104.207692 27.040514 104.353846 27.006694 104.500000 26.972746 104.646154 26.938673 104.792308 26.904475 104.938462 26.870158 105.084615 26.835721 105.230769 26.801169 105.376923 26.766504 105.523077 26.731727 105.669231 26.696843 105.815385 26.661853 105.961538 26.626759 106.107692 26.591565 106.253846 26.556272 106.400000 26.520884 106.546154 26.485403 106.692308 26.449831 106.838462 26.414171 106.984615 26.378425 107.130769 26.342596 107.276923 26.306687 107.423077 26.270700 107.569231 26.234637 107.715385 26.198501 107.861538 26.162294 108.007692 26.126020 108.153846 26.089680 108.300000 26.053277 108.446154 26.016813 108.592308 25.980292 108.738462 25.943716 108.884615 25.907086 109.030769 25.870406 109.176923 25.833678 109.323077 25.796905 109.469231 25.760089 109.615385 25.723233 109.761538 25.686339 109.907692 25.649410 110.053846 25.612448 110.200000 25.575456 110.346154 25.538436 110.492308 25.501391 110.638462 25.464324 110.784615 25.427236 110.930769 25.390130 111.076923 25.353010 111.223077 25.315877 111.369231 25.278733 111.515385 25.241583 111.661538 25.204427 111.807692 25.167268" class="line reactive nofill" /></g></g><g class="titles" /><g transform="translate(76, 10)" class="plot overlay"><g class="series serie-0 color-0" /></g><g transform="translate(76, 10)" class="plot text-overlay"><g class="series serie-0 color-0" /></g><g transform="translate(76, 10)" class="plot tooltip-overlay"><g transform="translate(0 0)" style="opacity: 0" class="tooltip"><rect rx="0" ry="0" width="0" height="0" class="tooltip-box" /><g class="text" /></g></g></g></svg>