<?xml version='1.0' encoding='utf-8'?>
<svg xmlns="http://www.w3.org/2000/svg" id="chart-94a3ef8a-8127-4c32-9b4b-b1d376d12391" class="pygal-chart pygal-sparkline" viewBox="0 0 200 50" width="200" height="50"><!--Generated with pygal 3.0.4 (etree) ©Kozea 2012-2016 on 2024-05-06--><!--http://pygal.org--><!--http://github.com/Kozea/pygal--><defs><style type="text/css">#chart-94a3ef8a-8127-4c32-9b4b-b1d376d12391{-webkit-user-select:none;-webkit-font-smoothing:antialiased;font-family:Consolas,"Liberation Mono",Menlo,Courier,monospace}#chart-94a3ef8a-8127-4c32-9b4b-b1d376d12391 .title{font-family:Consolas,"Liberation Mono",Menlo,Courier,monospace;font-size:16px}#chart-94a3ef8a-8127-4c32-9b4b-b1d376d12391 .legends .legend text{font-family:Consolas,"Liberation Mono",Menlo,Courier,monospace;font-size:14px}#chart-94a3ef8a-8127-4c32-9b4b-b1d376d12391 .axis text{font-family:Consolas,"Liberation Mono",Menlo,Courier,monospace;font-size:10px}#chart-94a3ef8a-8127-4c32-9b4b-b1d376d12391 .axis text.major{font-family:Consolas,"Liberation Mono",Menlo,Courier,monospace;font-size:10px}#chart-94a3ef8a-8127-4c32-9b4b-b1d376d12391 .text-overlay text.value{font-family:Consolas,"Liberation Mono",Menlo,Courier,monospace;font-size:16px}#chart-94a3ef8a-8127-4c32-9b4b-b1d376d12391 .text-overlay text.label{font-family:Consolas,"Liberation Mono",Menlo,Courier,monospace;font-size:10px}#chart-94a3ef8a-8127-4c32-9b4b-b1d376d12391 .tooltip{font-family:Consolas,"Liberation Mono",Menlo,Courier,monospace;font-size:14px}#chart-94a3ef8a-8127-4c32-9b4b-b1d376d12391 text.no_data{font-family:Consolas,"Liberation Mono",Menlo,Courier,monospace;font-size:64px}
#chart-94a3ef8a-8127-4c32-9b4b-b1d376d12391{background-color:rgba(249,249,249,1)}#chart-94a3ef8a-8127-4c32-9b4b-b1d376d12391 path,#chart-94a3ef8a-8127-4c32-9b4b-b1d376d12391 line,#chart-94a3ef8a-8127-4c32-9b4b-b1d376d12391 rect,#chart-94a3ef8a-8127-4c32-9b4b-b1d376d12391 circle{-webkit-transition:150ms;-moz-transition:150ms;transition:150ms}#chart-94a3ef8a-8127-4c32-9b4b-b1d376d12391 .graph &gt; .background{fill:rgba(249,249,249,1)}#chart-94a3ef8a-8127-4c32-9b4b-b1d376d12391 .plot &gt; .background{fill:rgba(255,255,255,1)}#chart-94a3ef8a-8127-4c32-9b4b-b1d376d12391 .graph{fill:rgba(0,0,0,.87)}#chart-94a3ef8a-8127-4c32-9b4b-b1d376d12391 text.no_data{fill:rgba(0,0,0,1)}#chart-94a3ef8a-8127-4c32-9b4b-b1d376d12391 .title{fill:rgba(0,0,0,1)}#chart-94a3ef8a-8127-4c32-9b4b-b1d376d12391 .legends .legend text{fill:rgba(0,0,0,.87)}#chart-94a3ef8a-8127-4c32-9b4b-b1d376d12391 .legends .legend:hover text{fill:rgba(0,0,0,1)}#chart-94a3ef8a-8127-4c32-9b4b-b1d376d12391 .axis .line{stroke:rgba(0,0,0,1)}#chart-94a3ef8a-8127-4c32-9b4b-b1d376d12391 .axis .guide.line{stroke:rgba(0,0,0,.54)}#chart-94a3ef8a-8127-4c32-9b4b-b1d376d12391 .axis .major.line{stroke:rgba(0,0,0,.87)}#chart-94a3ef8a-8127-4c32-9b4b-b1d376d12391 .axis text.major{fill:rgba(0,0,0,1)}#chart-94a3ef8a-8127-4c32-9b4b-b1d376d12391 .axis.y .guides:hover .guide.line,#chart-94a3ef8a-8127-4c32-9b4b-b1d376d12391 .line-graph .axis.x .guides:hover .guide.line,#chart-94a3ef8a-8127-4c32-9b4b-b1d376d12391 .stackedline-graph .axis.x .guides:hover .guide.line,#chart-94a3ef8a-8127-4c32-9b4b-b1d376d12391 .xy-graph .axis.x .guides:hover .guide.line{stroke:rgba(0,0,0,1)}#chart-94a3ef8a-8127-4c32-9b4b-b1d376d12391 .axis .guides:hover text{fill:rgba(0,0,0,1)}#chart-94a3ef8a-8127-4c32-9b4b-b1d376d12391 .reactive{fill-opacity:.7;stroke-opacity:.8;stroke-width:1}#chart-94a3ef8a-8127-4c32-9b4b-b1d376d12391 .ci{stroke:rgba(0,0,0,.87)}#chart-94a3ef8a-8127-4c32-9b4b-b1d376d12391 .reactive.active,#chart-94a3ef8a-8127-4c32-9b4b-b1d376d12391 .active .reactive{fill-opacity:.8;stroke-opacity:.9;stroke-width:4}#chart-94a3ef8a-8127-4c32-9b4b-b1d376d12391 .ci .reactive.active{stroke-width:1.5}#chart-94a3ef8a-8127-4c32-9b4b-b1d376d12391 .series text{fill:rgba(0,0,0,1)}#chart-94a3ef8a-8127-4c32-9b4b-b1d376d12391 .tooltip rect{fill:rgba(255,255,255,1);stroke:rgba(0,0,0,1);-webkit-transition:opacity 150ms;-moz-transition:opacity 150ms;transition:opacity 150ms}#chart-94a3ef8a-8127-4c32-9b4b-b1d376d12391 .tooltip .label{fill:rgba(0,0,0,.87)}#chart-94a3ef8a-8127-4c32-9b4b-b1d376d12391 .tooltip .label{fill:rgba(0,0,0,.87)}#chart-94a3ef8a-8127-4c32-9b4b-b1d376d12391 .tooltip .legend{font-size:.8em;fill:rgba(0,0,0,.54)}#chart-94a3ef8a-8127-4c32-9b4b-b1d376d12391 .tooltip .x_label{font-size:.6em;fill:rgba(0,0,0,1)}#chart-94a3ef8a-8127-4c32-9b4b-b1d376d12391 .tooltip .xlink{font-size:.5em;text-decoration:underline}#chart-94a3ef8a-8127-4c32-9b4b-b1d376d12391 .tooltip .value{font-size:1.5em}#chart-94a3ef8a-8127-4c32-9b4b-b1d376d12391 .bound{font-size:.5em}#chart-94a3ef8a-8127-4c32-9b4b-b1d376d12391 .max-value{font-size:.75em;fill:rgba(0,0,0,.54)}#chart-94a3ef8a-8127-4c32-9b4b-b1d376d12391 .map-element{fill:rgba(255,255,255,1);stroke:rgba(0,0,0,.54) !important}#chart-94a3ef8a-8127-4c32-9b4b-b1d376d12391 .map-element .reactive{fill-opacity:inherit;stroke-opacity:inherit}#chart-94a3ef8a-8127-4c32-9b4b-b1d376d12391 .color-0,#chart-94a3ef8a-8127-4c32-9b4b-b1d376d12391 .color-0 a:visited{stroke:#F44336;fill:#F44336}#chart-94a3ef8a-8127-4c32-9b4b-b1d376d12391 .text-overlay .color-0 text{fill:black}
#chart-94a3ef8a-8127-4c32-9b4b-b1d376d12391 text.no_data{text-anchor:middle}#chart-94a3ef8a-8127-4c32-9b4b-b1d376d12391 .guide.line{fill:none}#chart-94a3ef8a-8127-4c32-9b4b-b1d376d12391 .centered{text-anchor:middle}#chart-94a3ef8a-8127-4c32-9b4b-b1d376d12391 .title{text-anchor:middle}#chart-94a3ef8a-8127-4c32-9b4b-b1d376d12391 .legends .legend text{fill-opacity:1}#chart-94a3ef8a-8127-4c32-9b4b-b1d376d12391 .axis.x text{text-anchor:middle}#chart-94a3ef8a-8127-4c32-9b4b-b1d376d12391 .axis.x:not(.web) text[transform]{text-anchor:start}#chart-94a3ef8a-8127-4c32-9b4b-b1d376d12391 .axis.x:not(.web) text[transform].backwards{text-anchor:end}#chart-94a3ef8a-8127-4c32-9b4b-b1d376d12391 .axis.y text{text-anchor:end}#chart-94a3ef8a-8127-4c32-9b4b-b1d376d12391 .axis.y text[transform].backwards{text-anchor:start}#chart-94a3ef8a-8127-4c32-9b4b-b1d376d12391 .axis.y2 text{text-anchor:start}#chart-94a3ef8a-8127-4c32-9b4b-b1d376d12391 .axis.y2 text[transform].backwards{text-anchor:end}#chart-94a3ef8a-8127-4c32-9b4b-b1d376d12391 .axis .guide.line{stroke-dasharray:4,4;stroke:black}#chart-94a3ef8a-8127-4c32-9b4b-b1d376d12391 .axis .major.guide.line{stroke-dasharray:6,6;stroke:black}#chart-94a3ef8a-8127-4c32-9b4b-b1d376d12391 .horizontal .axis.y .guide.line,#chart-94a3ef8a-8127-4c32-9b4b-b1d376d12391 .horizontal .axis.y2 .guide.line,#chart-94a3ef8a-8127-4c32-9b4b-b1d376d12391 .vertical .axis.x .guide.line{opacity:0}#chart-94a3ef8a-8127-4c32-9b4b-b1d376d12391 .horizontal .axis.always_show .guide.line,#chart-94a3ef8a-8127-4c32-9b4b-b1d376d12391 .vertical .axis.always_show .guide.line{opacity:1 !important}#chart-94a3ef8a-8127-4c32-9b4b-b1d376d12391 .axis.y .guides:hover .guide.line,#chart-94a3ef8a-8127-4c32-9b4b-b1d376d12391 .axis.y2 .guides:hover .guide.line,#chart-94a3ef8a-8127-4c32-9b4b-b1d376d12391 .axis.x .guides:hover .guide.line{opacity:1}#chart-94a3ef8a-8127-4c32-9b4b-b1d376d12391 .axis .guides:hover text{opacity:1}#chart-94a3ef8a-8127-4c32-9b4b-b1d376d12391 .nofill{fill:none}#chart-94a3ef8a-8127-4c32-9b4b-b1d376d12391 .subtle-fill{fill-opacity:.2}#chart-94a3ef8a-8127-4c32-9b4b-b1d376d12391 .dot{stroke-width:1px;fill-opacity:1;stroke-opacity:1}#chart-94a3ef8a-8127-4c32-9b4b-b1d376d12391 .dot.active{stroke-width:5px}#chart-94a3ef8a-8127-4c32-9b4b-b1d376d12391 .dot.negative{fill:transparent}#chart-94a3ef8a-8127-4c32-9b4b-b1d376d12391 text,#chart-94a3ef8a-8127-4c32-9b4b-b1d376d12391 tspan{stroke:none !important}#chart-94a3ef8a-8127-4c32-9b4b-b1d376d12391 .series text.active{opacity:1}#chart-94a3ef8a-8127-4c32-9b4b-b1d376d12391 .tooltip rect{fill-opacity:.95;stroke-width:.5}#chart-94a3ef8a-8127-4c32-9b4b-b1d376d12391 .tooltip text{fill-opacity:1}#chart-94a3ef8a-8127-4c32-9b4b-b1d376d12391 .showable{visibility:hidden}#chart-94a3ef8a-8127-4c32-9b4b-b1d376d12391 .showable.shown{visibility:visible}#chart-94a3ef8a-8127-4c32-9b4b-b1d376d12391 .gauge-background{fill:rgba(229,229,229,1);stroke:none}#chart-94a3ef8a-8127-4c32-9b4b-b1d376d12391 .bg-lines{stroke:rgba(249,249,249,1);stroke-width:2px}</style><script type="text/javascript">window.pygal = window.pygal || {};window.pygal.config = window.pygal.config || {};window.pygal.config['94a3ef8a-8127-4c32-9b4b-b1d376d12391'] = {"allow_interruptions": false, "box_mode": "extremes", "classes": ["pygal-chart", "pygal-sparkline"], "css": ["file://style.css", "file://graph.css"], "defs": [], "disable_xml_declaration": false, "dots_size": 2.5, "dynamic_print_values": false, "explicit_size": true, "fill": false, "force_uri_protocol": "https", "formatter": null, "half_pie": false, "height": 50, "include_x_axis": false, "inner_radius": 0, "interpolate": "cubic", "interpolation_parameters": {}, "interpolation_precision": 250, "inverse_y_axis": false, "js": [], "legend_at_bottom": false, "legend_at_bottom_columns": null, "legend_box_size": 12, "logarithmic": false, "margin": 10, "margin_bottom": null, "margin_left": null, "margin_right": null, "margin_top": null, "max_scale": 2, "min_scale": 1, "missing_value_fill_truncation": "x", "no_data_text": "", "no_prefix": false, "order_min": null, "pretty_print": false, "print_labels": false, "print_values": false, "print_values_position": "center", "print_zeroes": true, "range": null, "rounded_bars": null, "secondary_range": null, "show_dots": false, "show_legend": false, "show_minor_x_labels": true, "show_minor_y_labels": true, "show_only_major_dots": false, "show_x_guides": false, "show_x_labels": false, "show_y_guides": true, "show_y_labels": true, "spacing": 0, "stack_from_top": false, "strict": false, "stroke": true, "stroke_style": null, "style": {"background": "rgba(249, 249, 249, 1)", "ci_colors": [], "colors": ["#F44336", "#3F51B5", "#009688", "#FFC107", "#FF5722", "#9C27B0", "#03A9F4", "#8BC34A", "#FF9800", "#E91E63", "#2196F3", "#4CAF50", "#FFEB3B", "#673AB7", "#00BCD4", "#CDDC39", "#9E9E9E", "#607D8B"], "dot_opacity": "1", "font_family": "Consolas, \"Liberation Mono\", Menlo, Courier, monospace", "foreground": "rgba(0, 0, 0, .87)", "foreground_strong": "rgba(0, 0, 0, 1)", "foreground_subtle": "rgba(0, 0, 0, .54)", "guide_stroke_color": "black", "guide_stroke_dasharray": "4,4", "label_font_family": "Consolas, \"Liberation Mono\", Menlo, Courier, monospace", "label_font_size": 10, "legend_font_family": "Consolas, \"Liberation Mono\", Menlo, Courier, monospace", "legend_font_size": 14, "major_guide_stroke_color": "black", "major_guide_stroke_dasharray": "6,6", "major_label_font_family": "Consolas, \"Liberation Mono\", Menlo, Courier, monospace", "major_label_font_size": 10, "no_data_font_family": "Consolas, \"Liberation Mono\", Menlo, Courier, monospace", "no_data_font_size": 64, "opacity": ".7", "opacity_hover": ".8", "plot_background": "rgba(255, 255, 255, 1)", "stroke_opacity": ".8", "stroke_opacity_hover": ".9", "stroke_width": "1", "stroke_width_hover": "4", "title_font_family": "Consolas, \"Liberation Mono\", Menlo, Courier, monospace", "title_font_size": 16, "tooltip_font_family": "Consolas, \"Liberation Mono\", Menlo, Courier, monospace", "tooltip_font_size": 14, "transition": "150ms", "value_background": "rgba(229, 229, 229, 1)", "value_colors": [], "value_font_family": "Consolas, \"Liberation Mono\", Menlo, Courier, monospace", "value_font_size": 16, "value_label_font_family": "Consolas, \"Liberation Mono\", Menlo, Courier, monospace", "value_label_font_size": 10}, "title": null, "tooltip_border_radius": 0, "tooltip_fancy_mode": true, "truncate_label": null, "truncate_legend": null, "width": 200, "x_label_rotation": 0, "x_labels": ["2024/5", "2024/4", "2024/3", "2024/2", "2024/1"], "x_labels_major": null, "x_labels_major_count": null, "x_labels_major_every": null, "x_title": null, "xrange": null, "y_label_rotation": 0, "y_labels": null, "y_labels_major": null, "y_labels_major_count": null, "y_labels_major_every": null, "y_title": null, "zero": 0, "legends": [""]}</script></defs><title>Pygal</title><g class="graph line-graph vertical"><rect x="0" y="0" width="200" height="50" class="background" /><g transform="translate(76, 10)" class="plot"><rect x="0" y="0" width="114.0" height="30" class="background" /><g class="axis y always_show"><path d="M0.000000 30.000000 h114.000000" class="line" /><g class="guides"><path d="M0.000000 29.423077 h114.000000" class="guide line" /><text x="-5" y="32.92307692307692" class="">0.737772544</text><title>0.737772544</title></g><g class="guides"><path d="M0.000000 0.576923 h114.000000" class="guide line" /><text x="-5" y="4.076923076923077" class="">15.01371538</text><title>15.01371538</title></g></g><g class="series serie-0 color-0"><path d="M2.192308 26.872604 L2.301923 26.902479 2.411538 26.932351 2.521154 26.962216 2.630769 26.992070 2.740385 27.021909 2.850000 27.051730 2.959615 27.081529 3.069231 27.111303 3.178846 27.141047 3.288462 27.170759 3.398077 27.200434 3.507692 27.230069 3.617308 27.259660 3.726923 27.289204 3.836538 27.318697 3.946154 27.348135 4.055769 27.377516 4.165385 27.406834 4.275000 27.436086 4.384615 27.465269 4.494231 27.494380 4.603846 27.523413 4.713462 27.552367 4.823077 27.581237 4.932692 27.610019 5.042308 27.638711 5.151923 27.667307 5.261538 27.695805 5.371154 27.724201 5.480769 27.752492 5.590385 27.780673 5.700000 27.808741 5.809615 27.836693 5.919231 27.864524 6.028846 27.892231 6.138462 27.919811 6.248077 27.947260 6.357692 27.974574 6.467308 28.001749 6.576923 28.028782 6.686538 28.055670 6.796154 28.082408 6.905769 28.108993 7.015385 28.135421 7.125000 28.161689 7.234615 28.187793 7.344231 28.213730 7.453846 28.239495 7.563462 28.265085 7.673077 28.290497 7.782692 28.315726 7.892308 28.340770 8.001923 28.365624 8.111538 28.390285 8.221154 28.414749 8.330769 28.439013 8.440385 28.463073 8.550000 28.486925 8.659615 28.510565 8.769231 28.533991 8.878846 28.557198 8.988462 28.580183 9.098077 28.602942 9.207692 28.625471 9.317308 28.647767 9.426923 28.669826 9.536538 28.691645 9.646154 28.713219 9.755769 28.734546 9.865385 28.755621 9.975000 28.776441 10.084615 28.797003 10.194231 28.817302 10.303846 28.837335 10.413462 28.857098 10.523077 28.876588 10.632692 28.895802 10.742308 28.914734 10.851923 28.933382 10.961538 28.951743 11.071154 28.969812 11.180769 28.987586 11.290385 29.005061 11.400000 29.022233 11.509615 29.039100 11.619231 29.055656 11.728846 29.071899 11.838462 29.087826 11.948077 29.103431 12.057692 29.118713 12.167308 29.133666 12.276923 29.148288 12.386538 29.162574 12.496154 29.176521 12.605769 29.190126 12.715385 29.203385 12.825000 29.216294 12.934615 29.228850 13.044231 29.241048 13.153846 29.252886 13.263462 29.264359 13.373077 29.275464 13.482692 29.286198 13.592308 29.296556 13.701923 29.306535 13.811538 29.316132 13.921154 29.325342 14.030769 29.334162 14.140385 29.342589 14.250000 29.350619 14.359615 29.358248 14.469231 29.365472 14.578846 29.372288 14.688462 29.378692 14.798077 29.384681 14.907692 29.390251 15.017308 29.395399 15.126923 29.400119 15.236538 29.404410 15.346154 29.408268 15.455769 29.411687 15.565385 29.414666 15.675000 29.417201 15.784615 29.419287 15.894231 29.420921 16.003846 29.422100 16.113462 29.422820 16.223077 29.423077 16.332692 29.422867 16.442308 29.422188 16.551923 29.421034 16.661538 29.419404 16.771154 29.417292 16.880769 29.414696 16.990385 29.411611 17.100000 29.408034 17.209615 29.403962 17.319231 29.399391 17.428846 29.394317 17.538462 29.388736 17.648077 29.382645 17.757692 29.376040 17.867308 29.368918 17.976923 29.361274 18.086538 29.353106 18.196154 29.344410 18.305769 29.335181 18.415385 29.325417 18.525000 29.315114 18.634615 29.304267 18.744231 29.292874 18.853846 29.280931 18.963462 29.268434 19.073077 29.255379 19.182692 29.241763 19.292308 29.227582 19.401923 29.212833 19.511538 29.197512 19.621154 29.181615 19.730769 29.165138 19.840385 29.148079 19.950000 29.130432 20.059615 29.112196 20.169231 29.093365 20.278846 29.073937 20.388462 29.053908 20.498077 29.033273 20.607692 29.012031 20.717308 28.990176 20.826923 28.967705 20.936538 28.944614 21.046154 28.920901 21.155769 28.896560 21.265385 28.871590 21.375000 28.845985 21.484615 28.819742 21.594231 28.792859 21.703846 28.765330 21.813462 28.737152 21.923077 28.708323 22.032692 28.678837 22.142308 28.648692 22.251923 28.617883 22.361538 28.586408 22.471154 28.554262 22.580769 28.521442 22.690385 28.487944 22.800000 28.453765 22.909615 28.418901 23.019231 28.383348 23.128846 28.347103 23.238462 28.310161 23.348077 28.272520 23.457692 28.234176 23.567308 28.195125 23.676923 28.155363 23.786538 28.114887 23.896154 28.073693 24.005769 28.031777 24.115385 27.989137 24.225000 27.945767 24.334615 27.901666 24.444231 27.856828 24.553846 27.811250 24.663462 27.764929 24.773077 27.717861 24.882692 27.670042 24.992308 27.621469 25.101923 27.572138 25.211538 27.522045 25.321154 27.471187 25.430769 27.419560 25.540385 27.367161 25.650000 27.313985 25.759615 27.260030 25.869231 27.205291 25.978846 27.149765 26.088462 27.093449 26.198077 27.036338 26.307692 26.978429 26.417308 26.919718 26.526923 26.860202 26.636538 26.799877 26.746154 26.738739 26.855769 26.676785 26.965385 26.614011 27.075000 26.550414 27.184615 26.485989 27.294231 26.420733 27.403846 26.354643 27.513462 26.287715 27.623077 26.219945 27.732692 26.151330 27.842308 26.081866 27.951923 26.011549 28.061538 25.940375 28.171154 25.868342 28.280769 25.795445 28.390385 25.721681 28.500000 25.647046 28.609615 25.571536 28.719231 25.495148 28.828846 25.417878 28.938462 25.339723 29.048077 25.260678 29.157692 25.180741 29.267308 25.099907 29.376923 25.018173 29.486538 24.935536 29.596154 24.851991 29.705769 24.767537 29.815385 24.682182 29.925000 24.595936 30.034615 24.508807 30.144231 24.420806 30.253846 24.331943 30.363462 24.242227 30.473077 24.151667 30.582692 24.060274 30.692308 23.968057 30.801923 23.875026 30.911538 23.781191 31.021154 23.686560 31.130769 23.591145 31.240385 23.494954 31.350000 23.397997 31.459615 23.300285 31.569231 23.201826 31.678846 23.102630 31.788462 23.002708 31.898077 22.902068 32.007692 22.800720 32.117308 22.698675 32.226923 22.595941 32.336538 22.492529 32.446154 22.388447 32.555769 22.283707 32.665385 22.178317 32.775000 22.072287 32.884615 21.965628 32.994231 21.858347 33.103846 21.750456 33.213462 21.641964 33.323077 21.532880 33.432692 21.423215 33.542308 21.312978 33.651923 21.202178 33.761538 21.090826 33.871154 20.978930 33.980769 20.866502 34.090385 20.753550 34.200000 20.640084 34.309615 20.526113 34.419231 20.411648 34.528846 20.296699 34.638462 20.181274 34.748077 20.065383 34.857692 19.949037 34.967308 19.832245 35.076923 19.715016 35.186538 19.597360 35.296154 19.479288 35.405769 19.360808 35.515385 19.241930 35.625000 19.122664 35.734615 19.003020 35.844231 18.883007 35.953846 18.762636 36.063462 18.641915 36.173077 18.520854 36.282692 18.399464 36.392308 18.277753 36.501923 18.155732 36.611538 18.033410 36.721154 17.910797 36.830769 17.787902 36.940385 17.664736 37.050000 17.541307 37.159615 17.417626 37.269231 17.293703 37.378846 17.169546 37.488462 17.045166 37.598077 16.920572 37.707692 16.795774 37.817308 16.670782 37.926923 16.545605 38.036538 16.420254 38.146154 16.294737 38.255769 16.169064 38.365385 16.043246 38.475000 15.917291 38.584615 15.791210 38.694231 15.665012 38.803846 15.538707 38.913462 15.412305 39.023077 15.285814 39.132692 15.159246 39.242308 15.032609 39.351923 14.905913 39.461538 14.779169 39.571154 14.652385 39.680769 14.525571 39.790385 14.398738 39.900000 14.271894 40.009615 14.145049 40.119231 14.018214 40.228846 13.891397 40.338462 13.764609 40.448077 13.637859 40.557692 13.511157 40.667308 13.384512 40.776923 13.257935 40.886538 13.131434 40.996154 13.005020 41.105769 12.878702 41.215385 12.752490 41.325000 12.626394 41.434615 12.500423 41.544231 12.374586 41.653846 12.248895 41.763462 12.123358 41.873077 11.997985 41.982692 11.872786 42.092308 11.747770 42.201923 11.622947 42.311538 11.498327 42.421154 11.373919 42.530769 11.249734 42.640385 11.125780 42.750000 11.002068 42.859615 10.878608 42.969231 10.755408 43.078846 10.632478 43.188462 10.509829 43.298077 10.387470 43.407692 10.265410 43.517308 10.143660 43.626923 10.022229 43.736538 9.901126 43.846154 9.780362 43.955769 9.659946 44.065385 9.539887 44.175000 9.420196 44.284615 9.300883 44.394231 9.181955 44.503846 9.063425 44.613462 8.945300 44.723077 8.827592 44.832692 8.710309 44.942308 8.593461 45.051923 8.477058 45.161538 8.361110 45.271154 8.245626 45.380769 8.130615 45.490385 8.016089 45.600000 7.902056 45.709615 7.788526 45.819231 7.675508 45.928846 7.563013 46.038462 7.451050 46.148077 7.339629 46.257692 7.228759 46.367308 7.118451 46.476923 7.008713 46.586538 6.899555 46.696154 6.790988 46.805769 6.683021 46.915385 6.575663 47.025000 6.468925 47.134615 6.362815 47.244231 6.257344 47.353846 6.152521 47.463462 6.048357 47.573077 5.944860 47.682692 5.842040 47.792308 5.739907 47.901923 5.638471 48.011538 5.537742 48.121154 5.437728 48.230769 5.338441 48.340385 5.239888 48.450000 5.142081 48.559615 5.045029 48.669231 4.948741 48.778846 4.853228 48.888462 4.758498 48.998077 4.664562 49.107692 4.571429 49.217308 4.479109 49.326923 4.387612 49.436538 4.296947 49.546154 4.207124 49.655769 4.118152 49.765385 4.030043 49.875000 3.942804 49.984615 3.856445 50.094231 3.770978 50.203846 3.686410 50.313462 3.602752 50.423077 3.520014 50.532692 3.438205 50.642308 3.357334 50.751923 3.277412 50.861538 3.198449 50.971154 3.120453 51.080769 3.043435 51.190385 2.967404 51.300000 2.892370 51.409615 2.818343 51.519231 2.745332 51.628846 2.673347 51.738462 2.602397 51.848077 2.532493 51.957692 2.463645 52.067308 2.395861 52.176923 2.329151 52.286538 2.263525 52.396154 2.198994 52.505769 2.135565 52.615385 2.073250 52.725000 2.012058 52.834615 1.951998 52.944231 1.893081 53.053846 1.835316 53.163462 1.778712 53.273077 1.723279 53.382692 1.669027 53.492308 1.615966 53.601923 1.564106 53.711538 1.513455 53.821154 1.464024 53.930769 1.415823 54.040385 1.368860 54.150000 1.323147 54.259615 1.278691 54.369231 1.235504 54.478846 1.193595 54.588462 1.152973 54.698077 1.113649 54.807692 1.075631 54.917308 1.038930 55.026923 1.003555 55.136538 0.969516 55.246154 0.936823 55.355769 0.905485 55.465385 0.875512 55.575000 0.846913 55.684615 0.819699 55.794231 0.793879 55.903846 0.769463 56.013462 0.746460 56.123077 0.724881 56.232692 0.704734 56.342308 0.686029 56.451923 0.668777 56.561538 0.652986 56.671154 0.638667 56.780769 0.625830 56.890385 0.614483 57.000000 0.604637 57.109615 0.596297 57.219231 0.589459 57.328846 0.584112 57.438462 0.580246 57.548077 0.577853 57.657692 0.576923 57.767308 0.577446 57.876923 0.579413 57.986538 0.582814 58.096154 0.587640 58.205769 0.593882 58.315385 0.601529 58.425000 0.610573 58.534615 0.621003 58.644231 0.632811 58.753846 0.645987 58.863462 0.660521 58.973077 0.676404 59.082692 0.693627 59.192308 0.712179 59.301923 0.732052 59.411538 0.753236 59.521154 0.775722 59.630769 0.799499 59.740385 0.824559 59.850000 0.850891 59.959615 0.878488 60.069231 0.907338 60.178846 0.937433 60.288462 0.968763 60.398077 1.001318 60.507692 1.035089 60.617308 1.070067 60.726923 1.106242 60.836538 1.143605 60.946154 1.182145 61.055769 1.221855 61.165385 1.262723 61.275000 1.304741 61.384615 1.347899 61.494231 1.392187 61.603846 1.437597 61.713462 1.484119 61.823077 1.531742 61.932692 1.580458 62.042308 1.630258 62.151923 1.681131 62.261538 1.733068 62.371154 1.786060 62.480769 1.840097 62.590385 1.895170 62.700000 1.951269 62.809615 2.008385 62.919231 2.066508 63.028846 2.125628 63.138462 2.185737 63.248077 2.246825 63.357692 2.308882 63.467308 2.371899 63.576923 2.435866 63.686538 2.500774 63.796154 2.566613 63.905769 2.633374 64.015385 2.701047 64.125000 2.769624 64.234615 2.839093 64.344231 2.909447 64.453846 2.980674 64.563462 3.052767 64.673077 3.125715 64.782692 3.199509 64.892308 3.274139 65.001923 3.349596 65.111538 3.425871 65.221154 3.502953 65.330769 3.580834 65.440385 3.659504 65.550000 3.738953 65.659615 3.819172 65.769231 3.900152 65.878846 3.981883 65.988462 4.064355 66.098077 4.147559 66.207692 4.231486 66.317308 4.316126 66.426923 4.401469 66.536538 4.487506 66.646154 4.574228 66.755769 4.661625 66.865385 4.749687 66.975000 4.838406 67.084615 4.927771 67.194231 5.017773 67.303846 5.108402 67.413462 5.199650 67.523077 5.291507 67.632692 5.383962 67.742308 5.477007 67.851923 5.570633 67.961538 5.664829 68.071154 5.759586 68.180769 5.854894 68.290385 5.950745 68.400000 6.047129 68.509615 6.144036 68.619231 6.241456 68.728846 6.339381 68.838462 6.437800 68.948077 6.536705 69.057692 6.636085 69.167308 6.735932 69.276923 6.836235 69.386538 6.936986 69.496154 7.038174 69.605769 7.139791 69.715385 7.241826 69.825000 7.344271 69.934615 7.447115 70.044231 7.550350 70.153846 7.653966 70.263462 7.757953 70.373077 7.862302 70.482692 7.967003 70.592308 8.072047 70.701923 8.177425 70.811538 8.283126 70.921154 8.389142 71.030769 8.495462 71.140385 8.602078 71.250000 8.708980 71.359615 8.816158 71.469231 8.923603 71.578846 9.031306 71.688462 9.139257 71.798077 9.247446 71.907692 9.355864 72.017308 9.464501 72.126923 9.573349 72.236538 9.682397 72.346154 9.791636 72.455769 9.901056 72.565385 10.010649 72.675000 10.120404 72.784615 10.230312 72.894231 10.340364 73.003846 10.450549 73.113462 10.560859 73.223077 10.671285 73.332692 10.781816 73.442308 10.892443 73.551923 11.003156 73.661538 11.113947 73.771154 11.224805 73.880769 11.335722 73.990385 11.446687 74.100000 11.557691 74.209615 11.668725 74.319231 11.779779 74.428846 11.890843 74.538462 12.001909 74.648077 12.112967 74.757692 12.224006 74.867308 12.335019 74.976923 12.445995 75.086538 12.556924 75.196154 12.667798 75.305769 12.778606 75.415385 12.889339 75.525000 12.999989 75.634615 13.110544 75.744231 13.220997 75.853846 13.331337 75.963462 13.441554 76.073077 13.551640 76.182692 13.661584 76.292308 13.771378 76.401923 13.881012 76.511538 13.990476 76.621154 14.099761 76.730769 14.208857 76.840385 14.317755 76.950000 14.426446 77.059615 14.534919 77.169231 14.643166 77.278846 14.751177 77.388462 14.858942 77.498077 14.966452 77.607692 15.073697 77.717308 15.180669 77.826923 15.287356 77.936538 15.393751 78.046154 15.499843 78.155769 15.605624 78.265385 15.711082 78.375000 15.816210 78.484615 15.920997 78.594231 16.025434 78.703846 16.129512 78.813462 16.233221 78.923077 16.336551 79.032692 16.439493 79.142308 16.542038 79.251923 16.644176 79.361538 16.745898 79.471154 16.847193 79.580769 16.948053 79.690385 17.048468 79.800000 17.148429 79.909615 17.247926 80.019231 17.346950 80.128846 17.445491 80.238462 17.543539 80.348077 17.641085 80.457692 17.738121 80.567308 17.834635 80.676923 17.930619 80.786538 18.026063 80.896154 18.120958 81.005769 18.215294 81.115385 18.309062 81.225000 18.402252 81.334615 18.494855 81.444231 18.586861 81.553846 18.678260 81.663462 18.769044 81.773077 18.859203 81.882692 18.948727 81.992308 19.037607 82.101923 19.125833 82.211538 19.213396 82.321154 19.300286 82.430769 19.386494 82.540385 19.472010 82.650000 19.556825 82.759615 19.640930 82.869231 19.724314 82.978846 19.806969 83.088462 19.888885 83.198077 19.970052 83.307692 20.050461 83.417308 20.130102 83.526923 20.208966 83.636538 20.287044 83.746154 20.364325 83.855769 20.440801 83.965385 20.516462 84.075000 20.591298 84.184615 20.665301 84.294231 20.738460 84.403846 20.810765 84.513462 20.882211 84.623077 20.952797 84.732692 21.022528 84.842308 21.091406 84.951923 21.159436 85.061538 21.226621 85.171154 21.292964 85.280769 21.358468 85.390385 21.423137 85.500000 21.486975 85.609615 21.549986 85.719231 21.612171 85.828846 21.673535 85.938462 21.734082 86.048077 21.793815 86.157692 21.852736 86.267308 21.910851 86.376923 21.968161 86.486538 22.024671 86.596154 22.080384 86.705769 22.135304 86.815385 22.189434 86.925000 22.242777 87.034615 22.295337 87.144231 22.347117 87.253846 22.398120 87.363462 22.448351 87.473077 22.497813 87.582692 22.546509 87.692308 22.594442 87.801923 22.641617 87.911538 22.688035 88.021154 22.733702 88.130769 22.778620 88.240385 22.822793 88.350000 22.866224 88.459615 22.908916 88.569231 22.950874 88.678846 22.992100 88.788462 23.032599 88.898077 23.072373 89.007692 23.111426 89.117308 23.149761 89.226923 23.187382 89.336538 23.224292 89.446154 23.260495 89.555769 23.295995 89.665385 23.330794 89.775000 23.364896 89.884615 23.398304 89.994231 23.431023 90.103846 23.463055 90.213462 23.494404 90.323077 23.525073 90.432692 23.555066 90.542308 23.584386 90.651923 23.613037 90.761538 23.641022 90.871154 23.668345 90.980769 23.695009 91.090385 23.721017 91.200000 23.746373 91.309615 23.771081 91.419231 23.795143 91.528846 23.818564 91.638462 23.841346 91.748077 23.863494 91.857692 23.885010 91.967308 23.905898 92.076923 23.926162 92.186538 23.945805 92.296154 23.964831 92.405769 23.983242 92.515385 24.001042 92.625000 24.018236 92.734615 24.034825 92.844231 24.050814 92.953846 24.066207 93.063462 24.081006 93.173077 24.095215 93.282692 24.108837 93.392308 24.121877 93.501923 24.134337 93.611538 24.146220 93.721154 24.157531 93.830769 24.168273 93.940385 24.178449 94.050000 24.188063 94.159615 24.197117 94.269231 24.205617 94.378846 24.213564 94.488462 24.220962 94.598077 24.227816 94.707692 24.234128 94.817308 24.239901 94.926923 24.245140 95.036538 24.249848 95.146154 24.254028 95.255769 24.257683 95.365385 24.260817 95.475000 24.263434 95.584615 24.265537 95.694231 24.267129 95.803846 24.268214 95.913462 24.268796 96.023077 24.268877 96.132692 24.268461 96.242308 24.267552 96.351923 24.266153 96.461538 24.264267 96.571154 24.261899 96.680769 24.259051 96.790385 24.255727 96.900000 24.251930 97.009615 24.247664 97.119231 24.242932 97.228846 24.237738 97.338462 24.232085 97.448077 24.225977 97.557692 24.219417 97.667308 24.212408 97.776923 24.204954 97.886538 24.197059 97.996154 24.188725 98.105769 24.179957 98.215385 24.170757 98.325000 24.161130 98.434615 24.151078 98.544231 24.140606 98.653846 24.129715 98.763462 24.118411 98.873077 24.106697 98.982692 24.094575 99.092308 24.082050 99.201923 24.069124 99.311538 24.055802 99.421154 24.042086 99.530769 24.027980 99.640385 24.013488 99.750000 23.998613 99.859615 23.983359 99.969231 23.967729 100.078846 23.951726 100.188462 23.935353 100.298077 23.918615 100.407692 23.901515 100.517308 23.884056 100.626923 23.866242 100.736538 23.848076 100.846154 23.829561 100.955769 23.810701 101.065385 23.791500 101.175000 23.771961 101.284615 23.752087 101.394231 23.731881 101.503846 23.711348 101.613462 23.690491 101.723077 23.669313 101.832692 23.647817 101.942308 23.626008 102.051923 23.603888 102.161538 23.581461 102.271154 23.558730 102.380769 23.535699 102.490385 23.512372 102.600000 23.488751 102.709615 23.464840 102.819231 23.440643 102.928846 23.416164 103.038462 23.391404 103.148077 23.366369 103.257692 23.341061 103.367308 23.315484 103.476923 23.289642 103.586538 23.263537 103.696154 23.237173 103.805769 23.210554 103.915385 23.183684 104.025000 23.156564 104.134615 23.129200 104.244231 23.101595 104.353846 23.073751 104.463462 23.045673 104.573077 23.017363 104.682692 22.988826 104.792308 22.960065 104.901923 22.931083 105.011538 22.901883 105.121154 22.872470 105.230769 22.842846 105.340385 22.813015 105.450000 22.782981 105.559615 22.752746 105.669231 22.722315 105.778846 22.691691 105.888462 22.660876 105.998077 22.629876 106.107692 22.598693 106.217308 22.567330 106.326923 22.535791 106.436538 22.504080 106.546154 22.472200 106.655769 22.440154 106.765385 22.407946 106.875000 22.375580 106.984615 22.343058 107.094231 22.310384 107.203846 22.277562 107.313462 22.244595 107.423077 22.211486 107.532692 22.178240 107.642308 22.144859 107.751923 22.111347 107.861538 22.077707 107.971154 22.043943 108.080769 22.010059 108.190385 21.976057 108.300000 21.941941 108.409615 21.907715 108.519231 21.873381 108.628846 21.838945 108.738462 21.804408 108.848077 21.769775 108.957692 21.735048 109.067308 21.700232 109.176923 21.665329 109.286538 21.630344 109.396154 21.595280 109.505769 21.560139 109.615385 21.524926 109.725000 21.489644 109.834615 21.454297 109.944231 21.418887 110.053846 21.383419 110.163462 21.347895 110.273077 21.312320 110.382692 21.276697 110.492308 21.241028 110.601923 21.205318 110.711538 21.169571 110.821154 21.133788 110.930769 21.097975 111.040385 21.062134 111.150000 21.026269 111.259615 20.990384 111.369231 20.954481 111.478846 20.918564 111.588462 20.882637 111.698077 20.846703 111.807692 20.810765" class="line reactive nofill" /></g></g><g class="titles" /><g transform="translate(76, 10)" class="plot overlay"><g class="series serie-0 color-0" /></g><g transform="translate(76, 10)" class="plot text-overlay"><g class="series serie-0 color-0" /></g><g transform="translate(76, 10)" class="plot tooltip-overlay"><g transform="translate(0 0)" style="opacity: 0" class="tooltip"><rect rx="0" ry="0" width="0" height="0" class="tooltip-box" /><g class="text" /></g></g></g></svg>