<?xml version='1.0' encoding='utf-8'?>
<svg xmlns="http://www.w3.org/2000/svg" id="chart-d6d0a245-6540-443c-86cf-0a430f5694f5" class="pygal-chart pygal-sparkline" viewBox="0 0 200 50" width="200" height="50"><!--Generated with pygal 3.0.5 (etree) ©Kozea 2012-2016 on 2024-11-24--><!--http://pygal.org--><!--http://github.com/Kozea/pygal--><defs><style type="text/css">#chart-d6d0a245-6540-443c-86cf-0a430f5694f5{-webkit-user-select:none;-webkit-font-smoothing:antialiased;font-family:Consolas,"Liberation Mono",Menlo,Courier,monospace}#chart-d6d0a245-6540-443c-86cf-0a430f5694f5 .title{font-family:Consolas,"Liberation Mono",Menlo,Courier,monospace;font-size:16px}#chart-d6d0a245-6540-443c-86cf-0a430f5694f5 .legends .legend text{font-family:Consolas,"Liberation Mono",Menlo,Courier,monospace;font-size:14px}#chart-d6d0a245-6540-443c-86cf-0a430f5694f5 .axis text{font-family:Consolas,"Liberation Mono",Menlo,Courier,monospace;font-size:10px}#chart-d6d0a245-6540-443c-86cf-0a430f5694f5 .axis text.major{font-family:Consolas,"Liberation Mono",Menlo,Courier,monospace;font-size:10px}#chart-d6d0a245-6540-443c-86cf-0a430f5694f5 .text-overlay text.value{font-family:Consolas,"Liberation Mono",Menlo,Courier,monospace;font-size:16px}#chart-d6d0a245-6540-443c-86cf-0a430f5694f5 .text-overlay text.label{font-family:Consolas,"Liberation Mono",Menlo,Courier,monospace;font-size:10px}#chart-d6d0a245-6540-443c-86cf-0a430f5694f5 .tooltip{font-family:Consolas,"Liberation Mono",Menlo,Courier,monospace;font-size:14px}#chart-d6d0a245-6540-443c-86cf-0a430f5694f5 text.no_data{font-family:Consolas,"Liberation Mono",Menlo,Courier,monospace;font-size:64px}
#chart-d6d0a245-6540-443c-86cf-0a430f5694f5{background-color:rgba(249,249,249,1)}#chart-d6d0a245-6540-443c-86cf-0a430f5694f5 path,#chart-d6d0a245-6540-443c-86cf-0a430f5694f5 line,#chart-d6d0a245-6540-443c-86cf-0a430f5694f5 rect,#chart-d6d0a245-6540-443c-86cf-0a430f5694f5 circle{-webkit-transition:150ms;-moz-transition:150ms;transition:150ms}#chart-d6d0a245-6540-443c-86cf-0a430f5694f5 .graph &gt; .background{fill:rgba(249,249,249,1)}#chart-d6d0a245-6540-443c-86cf-0a430f5694f5 .plot &gt; .background{fill:rgba(255,255,255,1)}#chart-d6d0a245-6540-443c-86cf-0a430f5694f5 .graph{fill:rgba(0,0,0,.87)}#chart-d6d0a245-6540-443c-86cf-0a430f5694f5 text.no_data{fill:rgba(0,0,0,1)}#chart-d6d0a245-6540-443c-86cf-0a430f5694f5 .title{fill:rgba(0,0,0,1)}#chart-d6d0a245-6540-443c-86cf-0a430f5694f5 .legends .legend text{fill:rgba(0,0,0,.87)}#chart-d6d0a245-6540-443c-86cf-0a430f5694f5 .legends .legend:hover text{fill:rgba(0,0,0,1)}#chart-d6d0a245-6540-443c-86cf-0a430f5694f5 .axis .line{stroke:rgba(0,0,0,1)}#chart-d6d0a245-6540-443c-86cf-0a430f5694f5 .axis .guide.line{stroke:rgba(0,0,0,.54)}#chart-d6d0a245-6540-443c-86cf-0a430f5694f5 .axis .major.line{stroke:rgba(0,0,0,.87)}#chart-d6d0a245-6540-443c-86cf-0a430f5694f5 .axis text.major{fill:rgba(0,0,0,1)}#chart-d6d0a245-6540-443c-86cf-0a430f5694f5 .axis.y .guides:hover .guide.line,#chart-d6d0a245-6540-443c-86cf-0a430f5694f5 .line-graph .axis.x .guides:hover .guide.line,#chart-d6d0a245-6540-443c-86cf-0a430f5694f5 .stackedline-graph .axis.x .guides:hover .guide.line,#chart-d6d0a245-6540-443c-86cf-0a430f5694f5 .xy-graph .axis.x .guides:hover .guide.line{stroke:rgba(0,0,0,1)}#chart-d6d0a245-6540-443c-86cf-0a430f5694f5 .axis .guides:hover text{fill:rgba(0,0,0,1)}#chart-d6d0a245-6540-443c-86cf-0a430f5694f5 .reactive{fill-opacity:.7;stroke-opacity:.8;stroke-width:1}#chart-d6d0a245-6540-443c-86cf-0a430f5694f5 .ci{stroke:rgba(0,0,0,.87)}#chart-d6d0a245-6540-443c-86cf-0a430f5694f5 .reactive.active,#chart-d6d0a245-6540-443c-86cf-0a430f5694f5 .active .reactive{fill-opacity:.8;stroke-opacity:.9;stroke-width:4}#chart-d6d0a245-6540-443c-86cf-0a430f5694f5 .ci .reactive.active{stroke-width:1.5}#chart-d6d0a245-6540-443c-86cf-0a430f5694f5 .series text{fill:rgba(0,0,0,1)}#chart-d6d0a245-6540-443c-86cf-0a430f5694f5 .tooltip rect{fill:rgba(255,255,255,1);stroke:rgba(0,0,0,1);-webkit-transition:opacity 150ms;-moz-transition:opacity 150ms;transition:opacity 150ms}#chart-d6d0a245-6540-443c-86cf-0a430f5694f5 .tooltip .label{fill:rgba(0,0,0,.87)}#chart-d6d0a245-6540-443c-86cf-0a430f5694f5 .tooltip .label{fill:rgba(0,0,0,.87)}#chart-d6d0a245-6540-443c-86cf-0a430f5694f5 .tooltip .legend{font-size:.8em;fill:rgba(0,0,0,.54)}#chart-d6d0a245-6540-443c-86cf-0a430f5694f5 .tooltip .x_label{font-size:.6em;fill:rgba(0,0,0,1)}#chart-d6d0a245-6540-443c-86cf-0a430f5694f5 .tooltip .xlink{font-size:.5em;text-decoration:underline}#chart-d6d0a245-6540-443c-86cf-0a430f5694f5 .tooltip .value{font-size:1.5em}#chart-d6d0a245-6540-443c-86cf-0a430f5694f5 .bound{font-size:.5em}#chart-d6d0a245-6540-443c-86cf-0a430f5694f5 .max-value{font-size:.75em;fill:rgba(0,0,0,.54)}#chart-d6d0a245-6540-443c-86cf-0a430f5694f5 .map-element{fill:rgba(255,255,255,1);stroke:rgba(0,0,0,.54) !important}#chart-d6d0a245-6540-443c-86cf-0a430f5694f5 .map-element .reactive{fill-opacity:inherit;stroke-opacity:inherit}#chart-d6d0a245-6540-443c-86cf-0a430f5694f5 .color-0,#chart-d6d0a245-6540-443c-86cf-0a430f5694f5 .color-0 a:visited{stroke:#F44336;fill:#F44336}#chart-d6d0a245-6540-443c-86cf-0a430f5694f5 .text-overlay .color-0 text{fill:black}
#chart-d6d0a245-6540-443c-86cf-0a430f5694f5 text.no_data{text-anchor:middle}#chart-d6d0a245-6540-443c-86cf-0a430f5694f5 .guide.line{fill:none}#chart-d6d0a245-6540-443c-86cf-0a430f5694f5 .centered{text-anchor:middle}#chart-d6d0a245-6540-443c-86cf-0a430f5694f5 .title{text-anchor:middle}#chart-d6d0a245-6540-443c-86cf-0a430f5694f5 .legends .legend text{fill-opacity:1}#chart-d6d0a245-6540-443c-86cf-0a430f5694f5 .axis.x text{text-anchor:middle}#chart-d6d0a245-6540-443c-86cf-0a430f5694f5 .axis.x:not(.web) text[transform]{text-anchor:start}#chart-d6d0a245-6540-443c-86cf-0a430f5694f5 .axis.x:not(.web) text[transform].backwards{text-anchor:end}#chart-d6d0a245-6540-443c-86cf-0a430f5694f5 .axis.y text{text-anchor:end}#chart-d6d0a245-6540-443c-86cf-0a430f5694f5 .axis.y text[transform].backwards{text-anchor:start}#chart-d6d0a245-6540-443c-86cf-0a430f5694f5 .axis.y2 text{text-anchor:start}#chart-d6d0a245-6540-443c-86cf-0a430f5694f5 .axis.y2 text[transform].backwards{text-anchor:end}#chart-d6d0a245-6540-443c-86cf-0a430f5694f5 .axis .guide.line{stroke-dasharray:4,4;stroke:black}#chart-d6d0a245-6540-443c-86cf-0a430f5694f5 .axis .major.guide.line{stroke-dasharray:6,6;stroke:black}#chart-d6d0a245-6540-443c-86cf-0a430f5694f5 .horizontal .axis.y .guide.line,#chart-d6d0a245-6540-443c-86cf-0a430f5694f5 .horizontal .axis.y2 .guide.line,#chart-d6d0a245-6540-443c-86cf-0a430f5694f5 .vertical .axis.x .guide.line{opacity:0}#chart-d6d0a245-6540-443c-86cf-0a430f5694f5 .horizontal .axis.always_show .guide.line,#chart-d6d0a245-6540-443c-86cf-0a430f5694f5 .vertical .axis.always_show .guide.line{opacity:1 !important}#chart-d6d0a245-6540-443c-86cf-0a430f5694f5 .axis.y .guides:hover .guide.line,#chart-d6d0a245-6540-443c-86cf-0a430f5694f5 .axis.y2 .guides:hover .guide.line,#chart-d6d0a245-6540-443c-86cf-0a430f5694f5 .axis.x .guides:hover .guide.line{opacity:1}#chart-d6d0a245-6540-443c-86cf-0a430f5694f5 .axis .guides:hover text{opacity:1}#chart-d6d0a245-6540-443c-86cf-0a430f5694f5 .nofill{fill:none}#chart-d6d0a245-6540-443c-86cf-0a430f5694f5 .subtle-fill{fill-opacity:.2}#chart-d6d0a245-6540-443c-86cf-0a430f5694f5 .dot{stroke-width:1px;fill-opacity:1;stroke-opacity:1}#chart-d6d0a245-6540-443c-86cf-0a430f5694f5 .dot.active{stroke-width:5px}#chart-d6d0a245-6540-443c-86cf-0a430f5694f5 .dot.negative{fill:transparent}#chart-d6d0a245-6540-443c-86cf-0a430f5694f5 text,#chart-d6d0a245-6540-443c-86cf-0a430f5694f5 tspan{stroke:none !important}#chart-d6d0a245-6540-443c-86cf-0a430f5694f5 .series text.active{opacity:1}#chart-d6d0a245-6540-443c-86cf-0a430f5694f5 .tooltip rect{fill-opacity:.95;stroke-width:.5}#chart-d6d0a245-6540-443c-86cf-0a430f5694f5 .tooltip text{fill-opacity:1}#chart-d6d0a245-6540-443c-86cf-0a430f5694f5 .showable{visibility:hidden}#chart-d6d0a245-6540-443c-86cf-0a430f5694f5 .showable.shown{visibility:visible}#chart-d6d0a245-6540-443c-86cf-0a430f5694f5 .gauge-background{fill:rgba(229,229,229,1);stroke:none}#chart-d6d0a245-6540-443c-86cf-0a430f5694f5 .bg-lines{stroke:rgba(249,249,249,1);stroke-width:2px}</style><script type="text/javascript">window.pygal = window.pygal || {};window.pygal.config = window.pygal.config || {};window.pygal.config['d6d0a245-6540-443c-86cf-0a430f5694f5'] = {"allow_interruptions": false, "box_mode": "extremes", "classes": ["pygal-chart", "pygal-sparkline"], "css": ["file://style.css", "file://graph.css"], "defs": [], "disable_xml_declaration": false, "dots_size": 2.5, "dynamic_print_values": false, "explicit_size": true, "fill": false, "force_uri_protocol": "https", "formatter": null, "half_pie": false, "height": 50, "include_x_axis": false, "inner_radius": 0, "interpolate": "cubic", "interpolation_parameters": {}, "interpolation_precision": 250, "inverse_y_axis": false, "js": [], "legend_at_bottom": false, "legend_at_bottom_columns": null, "legend_box_size": 12, "logarithmic": false, "margin": 10, "margin_bottom": null, "margin_left": null, "margin_right": null, "margin_top": null, "max_scale": 2, "min_scale": 1, "missing_value_fill_truncation": "x", "no_data_text": "", "no_prefix": false, "order_min": null, "pretty_print": false, "print_labels": false, "print_values": false, "print_values_position": "center", "print_zeroes": true, "range": null, "rounded_bars": null, "secondary_range": null, "show_dots": false, "show_legend": false, "show_minor_x_labels": true, "show_minor_y_labels": true, "show_only_major_dots": false, "show_x_guides": false, "show_x_labels": false, "show_y_guides": true, "show_y_labels": true, "spacing": 0, "stack_from_top": false, "strict": false, "stroke": true, "stroke_style": null, "style": {"background": "rgba(249, 249, 249, 1)", "ci_colors": [], "colors": ["#F44336", "#3F51B5", "#009688", "#FFC107", "#FF5722", "#9C27B0", "#03A9F4", "#8BC34A", "#FF9800", "#E91E63", "#2196F3", "#4CAF50", "#FFEB3B", "#673AB7", "#00BCD4", "#CDDC39", "#9E9E9E", "#607D8B"], "dot_opacity": "1", "font_family": "Consolas, \"Liberation Mono\", Menlo, Courier, monospace", "foreground": "rgba(0, 0, 0, .87)", "foreground_strong": "rgba(0, 0, 0, 1)", "foreground_subtle": "rgba(0, 0, 0, .54)", "guide_stroke_color": "black", "guide_stroke_dasharray": "4,4", "label_font_family": "Consolas, \"Liberation Mono\", Menlo, Courier, monospace", "label_font_size": 10, "legend_font_family": "Consolas, \"Liberation Mono\", Menlo, Courier, monospace", "legend_font_size": 14, "major_guide_stroke_color": "black", "major_guide_stroke_dasharray": "6,6", "major_label_font_family": "Consolas, \"Liberation Mono\", Menlo, Courier, monospace", "major_label_font_size": 10, "no_data_font_family": "Consolas, \"Liberation Mono\", Menlo, Courier, monospace", "no_data_font_size": 64, "opacity": ".7", "opacity_hover": ".8", "plot_background": "rgba(255, 255, 255, 1)", "stroke_opacity": ".8", "stroke_opacity_hover": ".9", "stroke_width": "1", "stroke_width_hover": "4", "title_font_family": "Consolas, \"Liberation Mono\", Menlo, Courier, monospace", "title_font_size": 16, "tooltip_font_family": "Consolas, \"Liberation Mono\", Menlo, Courier, monospace", "tooltip_font_size": 14, "transition": "150ms", "value_background": "rgba(229, 229, 229, 1)", "value_colors": [], "value_font_family": "Consolas, \"Liberation Mono\", Menlo, Courier, monospace", "value_font_size": 16, "value_label_font_family": "Consolas, \"Liberation Mono\", Menlo, Courier, monospace", "value_label_font_size": 10}, "title": null, "tooltip_border_radius": 0, "tooltip_fancy_mode": true, "truncate_label": null, "truncate_legend": null, "width": 200, "x_label_rotation": 0, "x_labels": ["2024/11", "2024/10", "2024/9", "2024/8"], "x_labels_major": null, "x_labels_major_count": null, "x_labels_major_every": null, "x_title": null, "xrange": null, "y_label_rotation": 0, "y_labels": null, "y_labels_major": null, "y_labels_major_count": null, "y_labels_major_every": null, "y_title": null, "zero": 0, "legends": [""]}</script></defs><title>Pygal</title><g class="graph line-graph vertical"><rect x="0" y="0" width="200" height="50" class="background" /><g transform="translate(58, 10)" class="plot"><rect x="0" y="0" width="132.0" height="30" class="background" /><g class="axis y always_show"><path d="M0.000000 30.000000 h132.000000" class="line" /><g class="guides"><path d="M0.000000 29.423077 h132.000000" class="guide line" /><text x="-5" y="32.92307692307692" class="">2.978304</text><title>2.978304</title></g><g class="guides"><path d="M0.000000 0.576923 h132.000000" class="guide line" /><text x="-5" y="4.076923076923073" class="">13</text><title>13</title></g></g><g class="series serie-0 color-0"><path d="M2.538462 20.725516 L2.707692 20.669485 2.876923 20.613456 3.046154 20.557434 3.215385 20.501421 3.384615 20.445421 3.553846 20.389437 3.723077 20.333472 3.892308 20.277529 4.061538 20.221611 4.230769 20.165722 4.400000 20.109864 4.569231 20.054042 4.738462 19.998257 4.907692 19.942514 5.076923 19.886814 5.246154 19.831163 5.415385 19.775562 5.584615 19.720015 5.753846 19.664525 5.923077 19.609095 6.092308 19.553729 6.261538 19.498429 6.430769 19.443199 6.600000 19.388042 6.769231 19.332961 6.938462 19.277959 7.107692 19.223039 7.276923 19.168205 7.446154 19.113460 7.615385 19.058806 7.784615 19.004248 7.953846 18.949788 8.123077 18.895429 8.292308 18.841175 8.461538 18.787028 8.630769 18.732993 8.800000 18.679071 8.969231 18.625267 9.138462 18.571583 9.307692 18.518023 9.476923 18.464589 9.646154 18.411285 9.815385 18.358115 9.984615 18.305081 10.153846 18.252186 10.323077 18.199433 10.492308 18.146827 10.661538 18.094369 10.830769 18.042063 11.000000 17.989913 11.169231 17.937921 11.338462 17.886091 11.507692 17.834425 11.676923 17.782928 11.846154 17.731601 12.015385 17.680449 12.184615 17.629474 12.353846 17.578680 12.523077 17.528070 12.692308 17.477646 12.861538 17.427413 13.030769 17.377373 13.200000 17.327529 13.369231 17.277885 13.538462 17.228444 13.707692 17.179208 13.876923 17.130182 14.046154 17.081368 14.215385 17.032770 14.384615 16.984390 14.553846 16.936232 14.723077 16.888299 14.892308 16.840594 15.061538 16.793121 15.230769 16.745881 15.400000 16.698880 15.569231 16.652119 15.738462 16.605602 15.907692 16.559333 16.076923 16.513314 16.246154 16.467548 16.415385 16.422039 16.584615 16.376789 16.753846 16.331803 16.923077 16.287083 17.092308 16.242632 17.261538 16.198454 17.430769 16.154551 17.600000 16.110927 17.769231 16.067585 17.938462 16.024529 18.107692 15.981760 18.276923 15.939283 18.446154 15.897101 18.615385 15.855217 18.784615 15.813633 18.953846 15.772354 19.123077 15.731382 19.292308 15.690721 19.461538 15.650374 19.630769 15.610343 19.800000 15.570632 19.969231 15.531244 20.138462 15.492183 20.307692 15.453452 20.476923 15.415053 20.646154 15.376989 20.815385 15.339265 20.984615 15.301883 21.153846 15.264847 21.323077 15.228159 21.492308 15.191823 21.661538 15.155841 21.830769 15.120218 22.000000 15.084956 22.169231 15.050058 22.338462 15.015528 22.507692 14.981368 22.676923 14.947582 22.846154 14.914174 23.015385 14.881146 23.184615 14.848501 23.353846 14.816242 23.523077 14.784373 23.692308 14.752898 23.861538 14.721818 24.030769 14.691137 24.200000 14.660859 24.369231 14.630987 24.538462 14.601523 24.707692 14.572471 24.876923 14.543834 25.046154 14.515616 25.215385 14.487819 25.384615 14.460446 25.553846 14.433501 25.723077 14.406987 25.892308 14.380907 26.061538 14.355265 26.230769 14.330063 26.400000 14.305304 26.569231 14.280992 26.738462 14.257131 26.907692 14.233722 27.076923 14.210769 27.246154 14.188276 27.415385 14.166246 27.584615 14.144681 27.753846 14.123585 27.923077 14.102962 28.092308 14.082813 28.261538 14.063143 28.430769 14.043955 28.600000 14.025251 28.769231 14.007036 28.938462 13.989311 29.107692 13.972081 29.276923 13.955349 29.446154 13.939116 29.615385 13.923388 29.784615 13.908167 29.953846 13.893456 30.123077 13.879258 30.292308 13.865576 30.461538 13.852414 30.630769 13.839775 30.800000 13.827662 30.969231 13.816078 31.138462 13.805027 31.307692 13.794511 31.476923 13.784533 31.646154 13.775098 31.815385 13.766207 31.984615 13.757865 32.153846 13.750073 32.323077 13.742837 32.492308 13.736158 32.661538 13.730039 32.830769 13.724485 33.000000 13.719498 33.169231 13.715081 33.338462 13.711238 33.507692 13.707972 33.676923 13.705285 33.846154 13.703181 34.015385 13.701664 34.184615 13.700736 34.353846 13.700400 34.523077 13.700660 34.692308 13.701519 34.861538 13.702980 35.030769 13.705046 35.200000 13.707720 35.369231 13.711006 35.538462 13.714907 35.707692 13.719425 35.876923 13.724565 36.046154 13.730328 36.215385 13.736719 36.384615 13.743741 36.553846 13.751396 36.723077 13.759688 36.892308 13.768621 37.061538 13.778196 37.230769 13.788418 37.400000 13.799289 37.569231 13.810813 37.738462 13.822993 37.907692 13.835832 38.076923 13.849333 38.246154 13.863500 38.415385 13.878335 38.584615 13.893842 38.753846 13.910024 38.923077 13.926884 39.092308 13.944425 39.261538 13.962650 39.430769 13.981563 39.600000 14.001167 39.769231 14.021465 39.938462 14.042459 40.107692 14.064154 40.276923 14.086553 40.446154 14.109658 40.615385 14.133472 40.784615 14.158000 40.953846 14.183244 41.123077 14.209207 41.292308 14.235892 41.461538 14.263303 41.630769 14.291443 41.800000 14.320314 41.969231 14.349921 42.138462 14.380266 42.307692 14.411353 42.476923 14.443184 42.646154 14.475762 42.815385 14.509092 42.984615 14.543176 43.153846 14.578017 43.323077 14.613619 43.492308 14.649984 43.661538 14.687116 43.830769 14.725018 44.000000 14.763693 44.169231 14.803144 44.338462 14.843375 44.507692 14.884388 44.676923 14.926187 44.846154 14.968775 45.015385 15.012154 45.184615 15.056316 45.353846 15.101255 45.523077 15.146961 45.692308 15.193426 45.861538 15.240644 46.030769 15.288605 46.200000 15.337301 46.369231 15.386725 46.538462 15.436868 46.707692 15.487721 46.876923 15.539278 47.046154 15.591530 47.215385 15.644468 47.384615 15.698085 47.553846 15.752373 47.723077 15.807323 47.892308 15.862928 48.061538 15.919178 48.230769 15.976067 48.400000 16.033586 48.569231 16.091726 48.738462 16.150481 48.907692 16.209841 49.076923 16.269799 49.246154 16.330346 49.415385 16.391475 49.584615 16.453177 49.753846 16.515444 49.923077 16.578268 50.092308 16.641641 50.261538 16.705555 50.430769 16.770002 50.600000 16.834973 50.769231 16.900461 50.938462 16.966458 51.107692 17.032954 51.276923 17.099943 51.446154 17.167416 51.615385 17.235366 51.784615 17.303783 51.953846 17.372659 52.123077 17.441988 52.292308 17.511760 52.461538 17.581967 52.630769 17.652602 52.800000 17.723657 52.969231 17.795122 53.138462 17.866990 53.307692 17.939254 53.476923 18.011904 53.646154 18.084933 53.815385 18.158333 53.984615 18.232095 54.153846 18.306211 54.323077 18.380674 54.492308 18.455476 54.661538 18.530607 54.830769 18.606060 55.000000 18.681827 55.169231 18.757900 55.338462 18.834271 55.507692 18.910931 55.676923 18.987873 55.846154 19.065088 56.015385 19.142568 56.184615 19.220306 56.353846 19.298293 56.523077 19.376520 56.692308 19.454981 56.861538 19.533666 57.030769 19.612568 57.200000 19.691678 57.369231 19.770989 57.538462 19.850492 57.707692 19.930179 57.876923 20.010042 58.046154 20.090074 58.215385 20.170265 58.384615 20.250608 58.553846 20.331095 58.723077 20.411717 58.892308 20.492467 59.061538 20.573337 59.230769 20.654317 59.400000 20.735401 59.569231 20.816579 59.738462 20.897845 59.907692 20.979190 60.076923 21.060605 60.246154 21.142083 60.415385 21.223615 60.584615 21.305194 60.753846 21.386811 60.923077 21.468458 61.092308 21.550128 61.261538 21.631811 61.430769 21.713501 61.600000 21.795188 61.769231 21.876865 61.938462 21.958523 62.107692 22.040155 62.276923 22.121752 62.446154 22.203307 62.615385 22.284810 62.784615 22.366255 62.953846 22.447633 63.123077 22.528935 63.292308 22.610154 63.461538 22.691282 63.630769 22.772311 63.800000 22.853231 63.969231 22.934037 64.138462 23.014718 64.307692 23.095267 64.476923 23.175677 64.646154 23.255938 64.815385 23.336043 64.984615 23.415984 65.153846 23.495752 65.323077 23.575340 65.492308 23.654739 65.661538 23.733942 65.830769 23.812939 66.000000 23.891724 66.169231 23.970287 66.338462 24.048622 66.507692 24.126719 66.676923 24.204571 66.846154 24.282169 67.015385 24.359506 67.184615 24.436573 67.353846 24.513362 67.523077 24.589865 67.692308 24.666075 67.861538 24.741982 68.030769 24.817579 68.200000 24.892857 68.369231 24.967810 68.538462 25.042427 68.707692 25.116702 68.876923 25.190627 69.046154 25.264192 69.215385 25.337391 69.384615 25.410214 69.553846 25.482654 69.723077 25.554703 69.892308 25.626353 70.061538 25.697595 70.230769 25.768421 70.400000 25.838824 70.569231 25.908795 70.738462 25.978326 70.907692 26.047410 71.076923 26.116036 71.246154 26.184199 71.415385 26.251890 71.584615 26.319100 71.753846 26.385821 71.923077 26.452046 72.092308 26.517766 72.261538 26.582973 72.430769 26.647659 72.600000 26.711817 72.769231 26.775437 72.938462 26.838511 73.107692 26.901033 73.276923 26.962993 73.446154 27.024383 73.615385 27.085195 73.784615 27.145422 73.953846 27.205055 74.123077 27.264086 74.292308 27.322506 74.461538 27.380309 74.630769 27.437485 74.800000 27.494027 74.969231 27.549926 75.138462 27.605174 75.307692 27.659764 75.476923 27.713687 75.646154 27.766935 75.815385 27.819500 75.984615 27.871373 76.153846 27.922548 76.323077 27.973015 76.492308 28.022766 76.661538 28.071794 76.830769 28.120090 77.000000 28.167647 77.169231 28.214455 77.338462 28.260508 77.507692 28.305796 77.676923 28.350312 77.846154 28.394048 78.015385 28.436995 78.184615 28.479146 78.353846 28.520492 78.523077 28.561026 78.692308 28.600738 78.861538 28.639622 79.030769 28.677668 79.200000 28.714869 79.369231 28.751217 79.538462 28.786704 79.707692 28.821321 79.876923 28.855060 80.046154 28.887914 80.215385 28.919874 80.384615 28.950932 80.553846 28.981080 80.723077 29.010310 80.892308 29.038614 81.061538 29.065983 81.230769 29.092410 81.400000 29.117886 81.569231 29.142404 81.738462 29.165955 81.907692 29.188531 82.076923 29.210124 82.246154 29.230726 82.415385 29.250328 82.584615 29.268924 82.753846 29.286504 82.923077 29.303060 83.092308 29.318585 83.261538 29.333071 83.430769 29.346508 83.600000 29.358890 83.769231 29.370207 83.938462 29.380452 84.107692 29.389617 84.276923 29.397694 84.446154 29.404675 84.615385 29.410550 84.784615 29.415313 84.953846 29.418956 85.123077 29.421469 85.292308 29.422846 85.461538 29.423077 85.630769 29.422155 85.800000 29.420072 85.969231 29.416819 86.138462 29.412389 86.307692 29.406774 86.476923 29.399964 86.646154 29.391953 86.815385 29.382732 86.984615 29.372293 87.153846 29.360628 87.323077 29.347730 87.492308 29.333604 87.661538 29.318253 87.830769 29.301682 88.000000 29.283897 88.169231 29.264903 88.338462 29.244704 88.507692 29.223305 88.676923 29.200711 88.846154 29.176928 89.015385 29.151960 89.184615 29.125811 89.353846 29.098488 89.523077 29.069995 89.692308 29.040337 89.861538 29.009518 90.030769 28.977544 90.200000 28.944420 90.369231 28.910150 90.538462 28.874740 90.707692 28.838195 90.876923 28.800519 91.046154 28.761717 91.215385 28.721795 91.384615 28.680757 91.553846 28.638608 91.723077 28.595353 91.892308 28.550997 92.061538 28.505545 92.230769 28.459002 92.400000 28.411373 92.569231 28.362663 92.738462 28.312877 92.907692 28.262019 93.076923 28.210095 93.246154 28.157109 93.415385 28.103067 93.584615 28.047973 93.753846 27.991833 93.923077 27.934651 94.092308 27.876432 94.261538 27.817181 94.430769 27.756904 94.600000 27.695604 94.769231 27.633288 94.938462 27.569959 95.107692 27.505623 95.276923 27.440285 95.446154 27.373950 95.615385 27.306623 95.784615 27.238308 95.953846 27.169010 96.123077 27.098735 96.292308 27.027488 96.461538 26.955273 96.630769 26.882095 96.800000 26.807959 96.969231 26.732871 97.138462 26.656834 97.307692 26.579855 97.476923 26.501937 97.646154 26.423087 97.815385 26.343308 97.984615 26.262606 98.153846 26.180986 98.323077 26.098453 98.492308 26.015011 98.661538 25.930666 98.830769 25.845422 99.000000 25.759284 99.169231 25.672258 99.338462 25.584348 99.507692 25.495560 99.676923 25.405897 99.846154 25.315366 100.015385 25.223971 100.184615 25.131716 100.353846 25.038608 100.523077 24.944650 100.692308 24.849848 100.861538 24.754207 101.030769 24.657732 101.200000 24.560427 101.369231 24.462297 101.538462 24.363348 101.707692 24.263585 101.876923 24.163012 102.046154 24.061634 102.215385 23.959456 102.384615 23.856483 102.553846 23.752721 102.723077 23.648173 102.892308 23.542846 103.061538 23.436743 103.230769 23.329871 103.400000 23.222233 103.569231 23.113834 103.738462 23.004681 103.907692 22.894777 104.076923 22.784127 104.246154 22.672737 104.415385 22.560611 104.584615 22.447755 104.753846 22.334173 104.923077 22.219870 105.092308 22.104851 105.261538 21.989121 105.430769 21.872685 105.600000 21.755549 105.769231 21.637716 105.938462 21.519192 106.107692 21.399981 106.276923 21.280090 106.446154 21.159522 106.615385 21.038282 106.784615 20.916377 106.953846 20.793809 107.123077 20.670585 107.292308 20.546709 107.461538 20.422187 107.630769 20.297022 107.800000 20.171221 107.969231 20.044788 108.138462 19.917728 108.307692 19.790046 108.476923 19.661747 108.646154 19.532835 108.815385 19.403317 108.984615 19.273195 109.153846 19.142477 109.323077 19.011166 109.492308 18.879268 109.661538 18.746787 109.830769 18.613728 110.000000 18.480097 110.169231 18.345898 110.338462 18.211137 110.507692 18.075817 110.676923 17.939944 110.846154 17.803524 111.015385 17.666560 111.184615 17.529058 111.353846 17.391023 111.523077 17.252460 111.692308 17.113373 111.861538 16.973768 112.030769 16.833650 112.200000 16.693023 112.369231 16.551892 112.538462 16.410263 112.707692 16.268141 112.876923 16.125529 113.046154 15.982434 113.215385 15.838859 113.384615 15.694811 113.553846 15.550294 113.723077 15.405312 113.892308 15.259872 114.061538 15.113977 114.230769 14.967633 114.400000 14.820845 114.569231 14.673617 114.738462 14.525955 114.907692 14.377864 115.076923 14.229347 115.246154 14.080412 115.415385 13.931061 115.584615 13.781301 115.753846 13.631135 115.923077 13.480570 116.092308 13.329610 116.261538 13.178260 116.430769 13.026525 116.600000 12.874410 116.769231 12.721919 116.938462 12.569059 117.107692 12.415833 117.276923 12.262246 117.446154 12.108304 117.615385 11.954012 117.784615 11.799374 117.953846 11.644395 118.123077 11.489080 118.292308 11.333435 118.461538 11.177464 118.630769 11.021172 118.800000 10.864564 118.969231 10.707645 119.138462 10.550420 119.307692 10.392894 119.476923 10.235072 119.646154 10.076958 119.815385 9.918558 119.984615 9.759876 120.153846 9.600918 120.323077 9.441689 120.492308 9.282193 120.661538 9.122435 120.830769 8.962421 121.000000 8.802155 121.169231 8.641641 121.338462 8.480886 121.507692 8.319894 121.676923 8.158670 121.846154 7.997219 122.015385 7.835546 122.184615 7.673656 122.353846 7.511553 122.523077 7.349243 122.692308 7.186730 122.861538 7.024020 123.030769 6.861118 123.200000 6.698027 123.369231 6.534754 123.538462 6.371304 123.707692 6.207681 123.876923 6.043889 124.046154 5.879935 124.215385 5.715823 124.384615 5.551558 124.553846 5.387145 124.723077 5.222588 124.892308 5.057893 125.061538 4.893065 125.230769 4.728109 125.400000 4.563029 125.569231 4.397831 125.738462 4.232519 125.907692 4.067099 126.076923 3.901575 126.246154 3.735952 126.415385 3.570235 126.584615 3.404429 126.753846 3.238540 126.923077 3.072572 127.092308 2.906529 127.261538 2.740417 127.430769 2.574242 127.600000 2.408007 127.769231 2.241717 127.938462 2.075379 128.107692 1.908995 128.276923 1.742573 128.446154 1.576116 128.615385 1.409629 128.784615 1.243117 128.953846 1.076586 129.123077 0.910040 129.292308 0.743484 129.461538 0.576923" class="line reactive nofill" /></g></g><g class="titles" /><g transform="translate(58, 10)" class="plot overlay"><g class="series serie-0 color-0" /></g><g transform="translate(58, 10)" class="plot text-overlay"><g class="series serie-0 color-0" /></g><g transform="translate(58, 10)" class="plot tooltip-overlay"><g transform="translate(0 0)" style="opacity: 0" class="tooltip"><rect rx="0" ry="0" width="0" height="0" class="tooltip-box" /><g class="text" /></g></g></g></svg>