<?xml version='1.0' encoding='utf-8'?>
<svg xmlns="http://www.w3.org/2000/svg" id="chart-c3d113fd-8858-4305-811a-276aea224aaf" class="pygal-chart pygal-sparkline" viewBox="0 0 200 50" width="200" height="50"><!--Generated with pygal 3.0.5 (etree) ©Kozea 2012-2016 on 2025-06-01--><!--http://pygal.org--><!--http://github.com/Kozea/pygal--><defs><style type="text/css">#chart-c3d113fd-8858-4305-811a-276aea224aaf{-webkit-user-select:none;-webkit-font-smoothing:antialiased;font-family:Consolas,"Liberation Mono",Menlo,Courier,monospace}#chart-c3d113fd-8858-4305-811a-276aea224aaf .title{font-family:Consolas,"Liberation Mono",Menlo,Courier,monospace;font-size:16px}#chart-c3d113fd-8858-4305-811a-276aea224aaf .legends .legend text{font-family:Consolas,"Liberation Mono",Menlo,Courier,monospace;font-size:14px}#chart-c3d113fd-8858-4305-811a-276aea224aaf .axis text{font-family:Consolas,"Liberation Mono",Menlo,Courier,monospace;font-size:10px}#chart-c3d113fd-8858-4305-811a-276aea224aaf .axis text.major{font-family:Consolas,"Liberation Mono",Menlo,Courier,monospace;font-size:10px}#chart-c3d113fd-8858-4305-811a-276aea224aaf .text-overlay text.value{font-family:Consolas,"Liberation Mono",Menlo,Courier,monospace;font-size:16px}#chart-c3d113fd-8858-4305-811a-276aea224aaf .text-overlay text.label{font-family:Consolas,"Liberation Mono",Menlo,Courier,monospace;font-size:10px}#chart-c3d113fd-8858-4305-811a-276aea224aaf .tooltip{font-family:Consolas,"Liberation Mono",Menlo,Courier,monospace;font-size:14px}#chart-c3d113fd-8858-4305-811a-276aea224aaf text.no_data{font-family:Consolas,"Liberation Mono",Menlo,Courier,monospace;font-size:64px}
#chart-c3d113fd-8858-4305-811a-276aea224aaf{background-color:rgba(249,249,249,1)}#chart-c3d113fd-8858-4305-811a-276aea224aaf path,#chart-c3d113fd-8858-4305-811a-276aea224aaf line,#chart-c3d113fd-8858-4305-811a-276aea224aaf rect,#chart-c3d113fd-8858-4305-811a-276aea224aaf circle{-webkit-transition:150ms;-moz-transition:150ms;transition:150ms}#chart-c3d113fd-8858-4305-811a-276aea224aaf .graph &gt; .background{fill:rgba(249,249,249,1)}#chart-c3d113fd-8858-4305-811a-276aea224aaf .plot &gt; .background{fill:rgba(255,255,255,1)}#chart-c3d113fd-8858-4305-811a-276aea224aaf .graph{fill:rgba(0,0,0,.87)}#chart-c3d113fd-8858-4305-811a-276aea224aaf text.no_data{fill:rgba(0,0,0,1)}#chart-c3d113fd-8858-4305-811a-276aea224aaf .title{fill:rgba(0,0,0,1)}#chart-c3d113fd-8858-4305-811a-276aea224aaf .legends .legend text{fill:rgba(0,0,0,.87)}#chart-c3d113fd-8858-4305-811a-276aea224aaf .legends .legend:hover text{fill:rgba(0,0,0,1)}#chart-c3d113fd-8858-4305-811a-276aea224aaf .axis .line{stroke:rgba(0,0,0,1)}#chart-c3d113fd-8858-4305-811a-276aea224aaf .axis .guide.line{stroke:rgba(0,0,0,.54)}#chart-c3d113fd-8858-4305-811a-276aea224aaf .axis .major.line{stroke:rgba(0,0,0,.87)}#chart-c3d113fd-8858-4305-811a-276aea224aaf .axis text.major{fill:rgba(0,0,0,1)}#chart-c3d113fd-8858-4305-811a-276aea224aaf .axis.y .guides:hover .guide.line,#chart-c3d113fd-8858-4305-811a-276aea224aaf .line-graph .axis.x .guides:hover .guide.line,#chart-c3d113fd-8858-4305-811a-276aea224aaf .stackedline-graph .axis.x .guides:hover .guide.line,#chart-c3d113fd-8858-4305-811a-276aea224aaf .xy-graph .axis.x .guides:hover .guide.line{stroke:rgba(0,0,0,1)}#chart-c3d113fd-8858-4305-811a-276aea224aaf .axis .guides:hover text{fill:rgba(0,0,0,1)}#chart-c3d113fd-8858-4305-811a-276aea224aaf .reactive{fill-opacity:.7;stroke-opacity:.8;stroke-width:1}#chart-c3d113fd-8858-4305-811a-276aea224aaf .ci{stroke:rgba(0,0,0,.87)}#chart-c3d113fd-8858-4305-811a-276aea224aaf .reactive.active,#chart-c3d113fd-8858-4305-811a-276aea224aaf .active .reactive{fill-opacity:.8;stroke-opacity:.9;stroke-width:4}#chart-c3d113fd-8858-4305-811a-276aea224aaf .ci .reactive.active{stroke-width:1.5}#chart-c3d113fd-8858-4305-811a-276aea224aaf .series text{fill:rgba(0,0,0,1)}#chart-c3d113fd-8858-4305-811a-276aea224aaf .tooltip rect{fill:rgba(255,255,255,1);stroke:rgba(0,0,0,1);-webkit-transition:opacity 150ms;-moz-transition:opacity 150ms;transition:opacity 150ms}#chart-c3d113fd-8858-4305-811a-276aea224aaf .tooltip .label{fill:rgba(0,0,0,.87)}#chart-c3d113fd-8858-4305-811a-276aea224aaf .tooltip .label{fill:rgba(0,0,0,.87)}#chart-c3d113fd-8858-4305-811a-276aea224aaf .tooltip .legend{font-size:.8em;fill:rgba(0,0,0,.54)}#chart-c3d113fd-8858-4305-811a-276aea224aaf .tooltip .x_label{font-size:.6em;fill:rgba(0,0,0,1)}#chart-c3d113fd-8858-4305-811a-276aea224aaf .tooltip .xlink{font-size:.5em;text-decoration:underline}#chart-c3d113fd-8858-4305-811a-276aea224aaf .tooltip .value{font-size:1.5em}#chart-c3d113fd-8858-4305-811a-276aea224aaf .bound{font-size:.5em}#chart-c3d113fd-8858-4305-811a-276aea224aaf .max-value{font-size:.75em;fill:rgba(0,0,0,.54)}#chart-c3d113fd-8858-4305-811a-276aea224aaf .map-element{fill:rgba(255,255,255,1);stroke:rgba(0,0,0,.54) !important}#chart-c3d113fd-8858-4305-811a-276aea224aaf .map-element .reactive{fill-opacity:inherit;stroke-opacity:inherit}#chart-c3d113fd-8858-4305-811a-276aea224aaf .color-0,#chart-c3d113fd-8858-4305-811a-276aea224aaf .color-0 a:visited{stroke:#F44336;fill:#F44336}#chart-c3d113fd-8858-4305-811a-276aea224aaf .text-overlay .color-0 text{fill:black}
#chart-c3d113fd-8858-4305-811a-276aea224aaf text.no_data{text-anchor:middle}#chart-c3d113fd-8858-4305-811a-276aea224aaf .guide.line{fill:none}#chart-c3d113fd-8858-4305-811a-276aea224aaf .centered{text-anchor:middle}#chart-c3d113fd-8858-4305-811a-276aea224aaf .title{text-anchor:middle}#chart-c3d113fd-8858-4305-811a-276aea224aaf .legends .legend text{fill-opacity:1}#chart-c3d113fd-8858-4305-811a-276aea224aaf .axis.x text{text-anchor:middle}#chart-c3d113fd-8858-4305-811a-276aea224aaf .axis.x:not(.web) text[transform]{text-anchor:start}#chart-c3d113fd-8858-4305-811a-276aea224aaf .axis.x:not(.web) text[transform].backwards{text-anchor:end}#chart-c3d113fd-8858-4305-811a-276aea224aaf .axis.y text{text-anchor:end}#chart-c3d113fd-8858-4305-811a-276aea224aaf .axis.y text[transform].backwards{text-anchor:start}#chart-c3d113fd-8858-4305-811a-276aea224aaf .axis.y2 text{text-anchor:start}#chart-c3d113fd-8858-4305-811a-276aea224aaf .axis.y2 text[transform].backwards{text-anchor:end}#chart-c3d113fd-8858-4305-811a-276aea224aaf .axis .guide.line{stroke-dasharray:4,4;stroke:black}#chart-c3d113fd-8858-4305-811a-276aea224aaf .axis .major.guide.line{stroke-dasharray:6,6;stroke:black}#chart-c3d113fd-8858-4305-811a-276aea224aaf .horizontal .axis.y .guide.line,#chart-c3d113fd-8858-4305-811a-276aea224aaf .horizontal .axis.y2 .guide.line,#chart-c3d113fd-8858-4305-811a-276aea224aaf .vertical .axis.x .guide.line{opacity:0}#chart-c3d113fd-8858-4305-811a-276aea224aaf .horizontal .axis.always_show .guide.line,#chart-c3d113fd-8858-4305-811a-276aea224aaf .vertical .axis.always_show .guide.line{opacity:1 !important}#chart-c3d113fd-8858-4305-811a-276aea224aaf .axis.y .guides:hover .guide.line,#chart-c3d113fd-8858-4305-811a-276aea224aaf .axis.y2 .guides:hover .guide.line,#chart-c3d113fd-8858-4305-811a-276aea224aaf .axis.x .guides:hover .guide.line{opacity:1}#chart-c3d113fd-8858-4305-811a-276aea224aaf .axis .guides:hover text{opacity:1}#chart-c3d113fd-8858-4305-811a-276aea224aaf .nofill{fill:none}#chart-c3d113fd-8858-4305-811a-276aea224aaf .subtle-fill{fill-opacity:.2}#chart-c3d113fd-8858-4305-811a-276aea224aaf .dot{stroke-width:1px;fill-opacity:1;stroke-opacity:1}#chart-c3d113fd-8858-4305-811a-276aea224aaf .dot.active{stroke-width:5px}#chart-c3d113fd-8858-4305-811a-276aea224aaf .dot.negative{fill:transparent}#chart-c3d113fd-8858-4305-811a-276aea224aaf text,#chart-c3d113fd-8858-4305-811a-276aea224aaf tspan{stroke:none !important}#chart-c3d113fd-8858-4305-811a-276aea224aaf .series text.active{opacity:1}#chart-c3d113fd-8858-4305-811a-276aea224aaf .tooltip rect{fill-opacity:.95;stroke-width:.5}#chart-c3d113fd-8858-4305-811a-276aea224aaf .tooltip text{fill-opacity:1}#chart-c3d113fd-8858-4305-811a-276aea224aaf .showable{visibility:hidden}#chart-c3d113fd-8858-4305-811a-276aea224aaf .showable.shown{visibility:visible}#chart-c3d113fd-8858-4305-811a-276aea224aaf .gauge-background{fill:rgba(229,229,229,1);stroke:none}#chart-c3d113fd-8858-4305-811a-276aea224aaf .bg-lines{stroke:rgba(249,249,249,1);stroke-width:2px}</style><script type="text/javascript">window.pygal = window.pygal || {};window.pygal.config = window.pygal.config || {};window.pygal.config['c3d113fd-8858-4305-811a-276aea224aaf'] = {"allow_interruptions": false, "box_mode": "extremes", "classes": ["pygal-chart", "pygal-sparkline"], "css": ["file://style.css", "file://graph.css"], "defs": [], "disable_xml_declaration": false, "dots_size": 2.5, "dynamic_print_values": false, "explicit_size": true, "fill": false, "force_uri_protocol": "https", "formatter": null, "half_pie": false, "height": 50, "include_x_axis": false, "inner_radius": 0, "interpolate": "cubic", "interpolation_parameters": {}, "interpolation_precision": 250, "inverse_y_axis": false, "js": [], "legend_at_bottom": false, "legend_at_bottom_columns": null, "legend_box_size": 12, "logarithmic": false, "margin": 10, "margin_bottom": null, "margin_left": null, "margin_right": null, "margin_top": null, "max_scale": 2, "min_scale": 1, "missing_value_fill_truncation": "x", "no_data_text": "", "no_prefix": false, "order_min": null, "pretty_print": false, "print_labels": false, "print_values": false, "print_values_position": "center", "print_zeroes": true, "range": null, "rounded_bars": null, "secondary_range": null, "show_dots": false, "show_legend": false, "show_minor_x_labels": true, "show_minor_y_labels": true, "show_only_major_dots": false, "show_x_guides": false, "show_x_labels": false, "show_y_guides": true, "show_y_labels": true, "spacing": 0, "stack_from_top": false, "strict": false, "stroke": true, "stroke_style": null, "style": {"background": "rgba(249, 249, 249, 1)", "ci_colors": [], "colors": ["#F44336", "#3F51B5", "#009688", "#FFC107", "#FF5722", "#9C27B0", "#03A9F4", "#8BC34A", "#FF9800", "#E91E63", "#2196F3", "#4CAF50", "#FFEB3B", "#673AB7", "#00BCD4", "#CDDC39", "#9E9E9E", "#607D8B"], "dot_opacity": "1", "font_family": "Consolas, \"Liberation Mono\", Menlo, Courier, monospace", "foreground": "rgba(0, 0, 0, .87)", "foreground_strong": "rgba(0, 0, 0, 1)", "foreground_subtle": "rgba(0, 0, 0, .54)", "guide_stroke_color": "black", "guide_stroke_dasharray": "4,4", "label_font_family": "Consolas, \"Liberation Mono\", Menlo, Courier, monospace", "label_font_size": 10, "legend_font_family": "Consolas, \"Liberation Mono\", Menlo, Courier, monospace", "legend_font_size": 14, "major_guide_stroke_color": "black", "major_guide_stroke_dasharray": "6,6", "major_label_font_family": "Consolas, \"Liberation Mono\", Menlo, Courier, monospace", "major_label_font_size": 10, "no_data_font_family": "Consolas, \"Liberation Mono\", Menlo, Courier, monospace", "no_data_font_size": 64, "opacity": ".7", "opacity_hover": ".8", "plot_background": "rgba(255, 255, 255, 1)", "stroke_opacity": ".8", "stroke_opacity_hover": ".9", "stroke_width": "1", "stroke_width_hover": "4", "title_font_family": "Consolas, \"Liberation Mono\", Menlo, Courier, monospace", "title_font_size": 16, "tooltip_font_family": "Consolas, \"Liberation Mono\", Menlo, Courier, monospace", "tooltip_font_size": 14, "transition": "150ms", "value_background": "rgba(229, 229, 229, 1)", "value_colors": [], "value_font_family": "Consolas, \"Liberation Mono\", Menlo, Courier, monospace", "value_font_size": 16, "value_label_font_family": "Consolas, \"Liberation Mono\", Menlo, Courier, monospace", "value_label_font_size": 10}, "title": null, "tooltip_border_radius": 0, "tooltip_fancy_mode": true, "truncate_label": null, "truncate_legend": null, "width": 200, "x_label_rotation": 0, "x_labels": ["2025/5", "2025/4", "2025/3", "2025/2"], "x_labels_major": null, "x_labels_major_count": null, "x_labels_major_every": null, "x_title": null, "xrange": null, "y_label_rotation": 0, "y_labels": null, "y_labels_major": null, "y_labels_major_count": null, "y_labels_major_every": null, "y_title": null, "zero": 0, "legends": [""]}</script></defs><title>Pygal</title><g class="graph line-graph vertical"><rect x="0" y="0" width="200" height="50" class="background" /><g transform="translate(22, 10)" class="plot"><rect x="0" y="0" width="168.0" height="30" class="background" /><g class="axis y always_show"><path d="M0.000000 30.000000 h168.000000" class="line" /><g class="guides"><path d="M0.000000 29.423077 h168.000000" class="guide line" /><text x="-5" y="32.92307692307692" class="">3</text><title>3</title></g><g class="guides"><path d="M0.000000 0.576923 h168.000000" class="guide line" /><text x="-5" y="4.076923076923077" class="">12</text><title>12</title></g></g><g class="series serie-0 color-0"><path d="M3.230769 0.576923 L3.446154 0.717948 3.661538 0.858968 3.876923 0.999978 4.092308 1.140973 4.307692 1.281949 4.523077 1.422900 4.738462 1.563821 4.953846 1.704708 5.169231 1.845556 5.384615 1.986359 5.600000 2.127113 5.815385 2.267813 6.030769 2.408454 6.246154 2.549031 6.461538 2.689538 6.676923 2.829973 6.892308 2.970328 7.107692 3.110599 7.323077 3.250782 7.538462 3.390872 7.753846 3.530863 7.969231 3.670750 8.184615 3.810530 8.400000 3.950196 8.615385 4.089744 8.830769 4.229168 9.046154 4.368465 9.261538 4.507629 9.476923 4.646655 9.692308 4.785538 9.907692 4.924274 10.123077 5.062857 10.338462 5.201282 10.553846 5.339545 10.769231 5.477641 10.984615 5.615564 11.200000 5.753310 11.415385 5.890874 11.630769 6.028251 11.846154 6.165436 12.061538 6.302424 12.276923 6.439210 12.492308 6.575789 12.707692 6.712157 12.923077 6.848308 13.138462 6.984237 13.353846 7.119940 13.569231 7.255412 13.784615 7.390647 14.000000 7.525641 14.215385 7.660389 14.430769 7.794886 14.646154 7.929127 14.861538 8.063106 15.076923 8.196821 15.292308 8.330264 15.507692 8.463431 15.723077 8.596318 15.938462 8.728920 16.153846 8.861231 16.369231 8.993246 16.584615 9.124962 16.800000 9.256372 17.015385 9.387472 17.230769 9.518256 17.446154 9.648721 17.661538 9.778861 17.876923 9.908671 18.092308 10.038146 18.307692 10.167282 18.523077 10.296073 18.738462 10.424514 18.953846 10.552601 19.169231 10.680329 19.384615 10.807692 19.600000 10.934686 19.815385 11.061306 20.030769 11.187547 20.246154 11.313404 20.461538 11.438872 20.676923 11.563946 20.892308 11.688621 21.107692 11.812893 21.323077 11.936756 21.538462 12.060205 21.753846 12.183236 21.969231 12.305844 22.184615 12.428023 22.400000 12.549769 22.615385 12.671077 22.830769 12.791942 23.046154 12.912359 23.261538 13.032322 23.476923 13.151829 23.692308 13.270872 23.907692 13.389447 24.123077 13.507550 24.338462 13.625176 24.553846 13.742319 24.769231 13.858974 24.984615 13.975138 25.200000 14.090804 25.415385 14.205968 25.630769 14.320624 25.846154 14.434769 26.061538 14.548397 26.276923 14.661503 26.492308 14.774082 26.707692 14.886130 26.923077 14.997641 27.138462 15.108610 27.353846 15.219033 27.569231 15.328905 27.784615 15.438220 28.000000 15.546974 28.215385 15.655162 28.430769 15.762779 28.646154 15.869820 28.861538 15.976280 29.076923 16.082154 29.292308 16.187437 29.507692 16.292125 29.723077 16.396212 29.938462 16.499693 30.153846 16.602564 30.369231 16.704820 30.584615 16.806455 30.800000 16.907465 31.015385 17.007845 31.230769 17.107590 31.446154 17.206695 31.661538 17.305154 31.876923 17.402965 32.092308 17.500120 32.307692 17.596615 32.523077 17.692446 32.738462 17.787608 32.953846 17.882095 33.169231 17.975902 33.384615 18.069026 33.600000 18.161460 33.815385 18.253200 34.030769 18.344240 34.246154 18.434577 34.461538 18.524205 34.676923 18.613119 34.892308 18.701314 35.107692 18.788786 35.323077 18.875529 35.538462 18.961538 35.753846 19.046809 35.969231 19.131337 36.184615 19.215116 36.400000 19.298142 36.615385 19.380410 36.830769 19.461915 37.046154 19.542652 37.261538 19.622616 37.476923 19.701802 37.692308 19.780205 37.907692 19.857821 38.123077 19.934644 38.338462 20.010669 38.553846 20.085892 38.769231 20.160308 38.984615 20.233911 39.200000 20.306697 39.415385 20.378661 39.630769 20.449798 39.846154 20.520103 40.061538 20.589570 40.276923 20.658197 40.492308 20.725976 40.707692 20.792903 40.923077 20.858974 41.138462 20.924184 41.353846 20.988527 41.569231 21.051998 41.784615 21.114594 42.000000 21.176308 42.215385 21.237136 42.430769 21.297072 42.646154 21.356113 42.861538 21.414253 43.076923 21.471487 43.292308 21.527810 43.507692 21.583218 43.723077 21.637705 43.938462 21.691266 44.153846 21.743897 44.369231 21.795593 44.584615 21.846348 44.800000 21.896158 45.015385 21.945018 45.230769 21.992923 45.446154 22.039868 45.661538 22.085848 45.876923 22.130858 46.092308 22.174893 46.307692 22.217949 46.523077 22.260020 46.738462 22.301101 46.953846 22.341188 47.169231 22.380276 47.384615 22.418359 47.600000 22.455433 47.815385 22.491493 48.030769 22.526534 48.246154 22.560551 48.461538 22.593538 48.676923 22.625493 48.892308 22.656408 49.107692 22.686279 49.323077 22.715102 49.538462 22.742872 49.753846 22.769583 49.969231 22.795230 50.184615 22.819810 50.400000 22.843316 50.615385 22.865744 50.830769 22.887088 51.046154 22.907345 51.261538 22.926509 51.476923 22.944575 51.692308 22.961538 51.907692 22.977394 52.123077 22.992137 52.338462 23.005762 52.553846 23.018265 52.769231 23.029641 52.984615 23.039884 53.200000 23.048990 53.415385 23.056954 53.630769 23.063771 53.846154 23.069436 54.061538 23.073944 54.276923 23.077290 54.492308 23.079469 54.707692 23.080477 54.923077 23.080308 55.138462 23.078957 55.353846 23.076420 55.569231 23.072692 55.784615 23.067767 56.000000 23.061641 56.215385 23.054309 56.430769 23.045766 56.646154 23.036007 56.861538 23.025026 57.076923 23.012821 57.292308 22.999386 57.507692 22.984731 57.723077 22.968865 57.938462 22.951797 58.153846 22.933538 58.369231 22.914098 58.584615 22.893486 58.800000 22.871712 59.015385 22.848786 59.230769 22.824718 59.446154 22.799518 59.661538 22.773195 59.876923 22.745759 60.092308 22.717221 60.307692 22.687590 60.523077 22.656875 60.738462 22.625088 60.953846 22.592237 61.169231 22.558333 61.384615 22.523385 61.600000 22.487403 61.815385 22.450397 62.030769 22.412377 62.246154 22.373352 62.461538 22.333333 62.676923 22.292330 62.892308 22.250352 63.107692 22.207408 63.323077 22.163510 63.538462 22.118667 63.753846 22.072888 63.969231 22.026183 64.184615 21.978563 64.400000 21.930037 64.615385 21.880615 64.830769 21.830307 65.046154 21.779123 65.261538 21.727072 65.476923 21.674165 65.692308 21.620410 65.907692 21.565819 66.123077 21.510401 66.338462 21.454165 66.553846 21.397122 66.769231 21.339282 66.984615 21.280654 67.200000 21.221248 67.415385 21.161074 67.630769 21.100142 67.846154 21.038462 68.061538 20.976043 68.276923 20.912895 68.492308 20.849029 68.707692 20.784454 68.923077 20.719179 69.138462 20.653216 69.353846 20.586573 69.569231 20.519261 69.784615 20.451289 70.000000 20.382667 70.215385 20.313405 70.430769 20.243513 70.646154 20.173000 70.861538 20.101877 71.076923 20.030154 71.292308 19.957840 71.507692 19.884944 71.723077 19.811478 71.938462 19.737451 72.153846 19.662872 72.369231 19.587751 72.584615 19.512099 72.800000 19.435925 73.015385 19.359239 73.230769 19.282051 73.446154 19.204371 73.661538 19.126208 73.876923 19.047573 74.092308 18.968474 74.307692 18.888923 74.523077 18.808929 74.738462 18.728501 74.953846 18.647650 75.169231 18.566386 75.384615 18.484718 75.600000 18.402656 75.815385 18.320210 76.030769 18.237390 76.246154 18.154206 76.461538 18.070667 76.676923 17.986783 76.892308 17.902565 77.107692 17.818022 77.323077 17.733163 77.538462 17.648000 77.753846 17.562541 77.969231 17.476797 78.184615 17.390777 78.400000 17.304491 78.615385 17.217949 78.830769 17.131161 79.046154 17.044136 79.261538 16.956885 79.476923 16.869418 79.692308 16.781744 79.907692 16.693872 80.123077 16.605814 80.338462 16.517579 80.553846 16.429176 80.769231 16.340615 80.984615 16.251907 81.200000 16.163061 81.415385 16.074087 81.630769 15.984995 81.846154 15.895795 82.061538 15.806496 82.276923 15.717109 82.492308 15.627642 82.707692 15.538107 82.923077 15.448513 83.138462 15.358869 83.353846 15.269186 83.569231 15.179474 83.784615 15.089742 84.000000 15.000000 84.215385 14.910258 84.430769 14.820526 84.646154 14.730814 84.861538 14.641131 85.076923 14.551487 85.292308 14.461893 85.507692 14.372358 85.723077 14.282891 85.938462 14.193504 86.153846 14.104205 86.369231 14.015005 86.584615 13.925913 86.800000 13.836939 87.015385 13.748093 87.230769 13.659385 87.446154 13.570824 87.661538 13.482421 87.876923 13.394186 88.092308 13.306128 88.307692 13.218256 88.523077 13.130582 88.738462 13.043115 88.953846 12.955864 89.169231 12.868839 89.384615 12.782051 89.600000 12.695509 89.815385 12.609223 90.030769 12.523203 90.246154 12.437459 90.461538 12.352000 90.676923 12.266837 90.892308 12.181978 91.107692 12.097435 91.323077 12.013217 91.538462 11.929333 91.753846 11.845794 91.969231 11.762610 92.184615 11.679790 92.400000 11.597344 92.615385 11.515282 92.830769 11.433614 93.046154 11.352350 93.261538 11.271499 93.476923 11.191071 93.692308 11.111077 93.907692 11.031526 94.123077 10.952427 94.338462 10.873792 94.553846 10.795629 94.769231 10.717949 94.984615 10.640761 95.200000 10.564075 95.415385 10.487901 95.630769 10.412249 95.846154 10.337128 96.061538 10.262549 96.276923 10.188522 96.492308 10.115056 96.707692 10.042160 96.923077 9.969846 97.138462 9.898123 97.353846 9.827000 97.569231 9.756487 97.784615 9.686595 98.000000 9.617333 98.215385 9.548711 98.430769 9.480739 98.646154 9.413427 98.861538 9.346784 99.076923 9.280821 99.292308 9.215546 99.507692 9.150971 99.723077 9.087105 99.938462 9.023957 100.153846 8.961538 100.369231 8.899858 100.584615 8.838926 100.800000 8.778752 101.015385 8.719346 101.230769 8.660718 101.446154 8.602878 101.661538 8.545835 101.876923 8.489599 102.092308 8.434181 102.307692 8.379590 102.523077 8.325835 102.738462 8.272928 102.953846 8.220877 103.169231 8.169693 103.384615 8.119385 103.600000 8.069963 103.815385 8.021437 104.030769 7.973817 104.246154 7.927112 104.461538 7.881333 104.676923 7.836490 104.892308 7.792592 105.107692 7.749648 105.323077 7.707670 105.538462 7.666667 105.753846 7.626648 105.969231 7.587623 106.184615 7.549603 106.400000 7.512597 106.615385 7.476615 106.830769 7.441667 107.046154 7.407763 107.261538 7.374912 107.476923 7.343125 107.692308 7.312410 107.907692 7.282779 108.123077 7.254241 108.338462 7.226805 108.553846 7.200482 108.769231 7.175282 108.984615 7.151214 109.200000 7.128288 109.415385 7.106514 109.630769 7.085902 109.846154 7.066462 110.061538 7.048203 110.276923 7.031135 110.492308 7.015269 110.707692 7.000614 110.923077 6.987179 111.138462 6.974974 111.353846 6.963993 111.569231 6.954234 111.784615 6.945691 112.000000 6.938359 112.215385 6.932233 112.430769 6.927308 112.646154 6.923580 112.861538 6.921043 113.076923 6.919692 113.292308 6.919523 113.507692 6.920531 113.723077 6.922710 113.938462 6.926056 114.153846 6.930564 114.369231 6.936229 114.584615 6.943046 114.800000 6.951010 115.015385 6.960116 115.230769 6.970359 115.446154 6.981735 115.661538 6.994238 115.876923 7.007863 116.092308 7.022606 116.307692 7.038462 116.523077 7.055425 116.738462 7.073491 116.953846 7.092655 117.169231 7.112912 117.384615 7.134256 117.600000 7.156684 117.815385 7.180190 118.030769 7.204770 118.246154 7.230417 118.461538 7.257128 118.676923 7.284898 118.892308 7.313721 119.107692 7.343592 119.323077 7.374507 119.538462 7.406462 119.753846 7.439449 119.969231 7.473466 120.184615 7.508507 120.400000 7.544567 120.615385 7.581641 120.830769 7.619724 121.046154 7.658812 121.261538 7.698899 121.476923 7.739980 121.692308 7.782051 121.907692 7.825107 122.123077 7.869142 122.338462 7.914152 122.553846 7.960132 122.769231 8.007077 122.984615 8.054982 123.200000 8.103842 123.415385 8.153652 123.630769 8.204407 123.846154 8.256103 124.061538 8.308734 124.276923 8.362295 124.492308 8.416782 124.707692 8.472190 124.923077 8.528513 125.138462 8.585747 125.353846 8.643887 125.569231 8.702928 125.784615 8.762864 126.000000 8.823692 126.215385 8.885406 126.430769 8.948002 126.646154 9.011473 126.861538 9.075816 127.076923 9.141026 127.292308 9.207097 127.507692 9.274024 127.723077 9.341803 127.938462 9.410430 128.153846 9.479897 128.369231 9.550202 128.584615 9.621339 128.800000 9.693303 129.015385 9.766089 129.230769 9.839692 129.446154 9.914108 129.661538 9.989331 129.876923 10.065356 130.092308 10.142179 130.307692 10.219795 130.523077 10.298198 130.738462 10.377384 130.953846 10.457348 131.169231 10.538085 131.384615 10.619590 131.600000 10.701858 131.815385 10.784884 132.030769 10.868663 132.246154 10.953191 132.461538 11.038462 132.676923 11.124471 132.892308 11.211214 133.107692 11.298686 133.323077 11.386881 133.538462 11.475795 133.753846 11.565423 133.969231 11.655760 134.184615 11.746800 134.400000 11.838540 134.615385 11.930974 134.830769 12.024098 135.046154 12.117905 135.261538 12.212392 135.476923 12.307554 135.692308 12.403385 135.907692 12.499880 136.123077 12.597035 136.338462 12.694846 136.553846 12.793305 136.769231 12.892410 136.984615 12.992155 137.200000 13.092535 137.415385 13.193545 137.630769 13.295180 137.846154 13.397436 138.061538 13.500307 138.276923 13.603788 138.492308 13.707875 138.707692 13.812563 138.923077 13.917846 139.138462 14.023720 139.353846 14.130180 139.569231 14.237221 139.784615 14.344838 140.000000 14.453026 140.215385 14.561780 140.430769 14.671095 140.646154 14.780967 140.861538 14.891390 141.076923 15.002359 141.292308 15.113870 141.507692 15.225918 141.723077 15.338497 141.938462 15.451603 142.153846 15.565231 142.369231 15.679376 142.584615 15.794032 142.800000 15.909196 143.015385 16.024862 143.230769 16.141026 143.446154 16.257681 143.661538 16.374824 143.876923 16.492450 144.092308 16.610553 144.307692 16.729128 144.523077 16.848171 144.738462 16.967678 144.953846 17.087641 145.169231 17.208058 145.384615 17.328923 145.600000 17.450231 145.815385 17.571977 146.030769 17.694156 146.246154 17.816764 146.461538 17.939795 146.676923 18.063244 146.892308 18.187107 147.107692 18.311379 147.323077 18.436054 147.538462 18.561128 147.753846 18.686596 147.969231 18.812453 148.184615 18.938694 148.400000 19.065314 148.615385 19.192308 148.830769 19.319671 149.046154 19.447399 149.261538 19.575486 149.476923 19.703927 149.692308 19.832718 149.907692 19.961854 150.123077 20.091329 150.338462 20.221139 150.553846 20.351279 150.769231 20.481744 150.984615 20.612528 151.200000 20.743628 151.415385 20.875038 151.630769 21.006754 151.846154 21.138769 152.061538 21.271080 152.276923 21.403682 152.492308 21.536569 152.707692 21.669736 152.923077 21.803179 153.138462 21.936894 153.353846 22.070873 153.569231 22.205114 153.784615 22.339611 154.000000 22.474359 154.215385 22.609353 154.430769 22.744588 154.646154 22.880060 154.861538 23.015763 155.076923 23.151692 155.292308 23.287843 155.507692 23.424211 155.723077 23.560790 155.938462 23.697576 156.153846 23.834564 156.369231 23.971749 156.584615 24.109126 156.800000 24.246690 157.015385 24.384436 157.230769 24.522359 157.446154 24.660455 157.661538 24.798718 157.876923 24.937143 158.092308 25.075726 158.307692 25.214462 158.523077 25.353345 158.738462 25.492371 158.953846 25.631535 159.169231 25.770832 159.384615 25.910256 159.600000 26.049804 159.815385 26.189470 160.030769 26.329250 160.246154 26.469137 160.461538 26.609128 160.676923 26.749218 160.892308 26.889401 161.107692 27.029672 161.323077 27.170027 161.538462 27.310462 161.753846 27.450969 161.969231 27.591546 162.184615 27.732187 162.400000 27.872887 162.615385 28.013641 162.830769 28.154444 163.046154 28.295292 163.261538 28.436179 163.476923 28.577100 163.692308 28.718051 163.907692 28.859027 164.123077 29.000022 164.338462 29.141032 164.553846 29.282052 164.769231 29.423077" class="line reactive nofill" /></g></g><g class="titles" /><g transform="translate(22, 10)" class="plot overlay"><g class="series serie-0 color-0" /></g><g transform="translate(22, 10)" class="plot text-overlay"><g class="series serie-0 color-0" /></g><g transform="translate(22, 10)" class="plot tooltip-overlay"><g transform="translate(0 0)" style="opacity: 0" class="tooltip"><rect rx="0" ry="0" width="0" height="0" class="tooltip-box" /><g class="text" /></g></g></g></svg>