<?xml version='1.0' encoding='utf-8'?>
<svg xmlns="http://www.w3.org/2000/svg" id="chart-9ad14d45-e4e4-4594-9656-d53778f21297" class="pygal-chart pygal-sparkline" viewBox="0 0 200 50" width="200" height="50"><!--Generated with pygal 3.0.4 (etree) ©Kozea 2012-2016 on 2024-03-05--><!--http://pygal.org--><!--http://github.com/Kozea/pygal--><defs><style type="text/css">#chart-9ad14d45-e4e4-4594-9656-d53778f21297{-webkit-user-select:none;-webkit-font-smoothing:antialiased;font-family:Consolas,"Liberation Mono",Menlo,Courier,monospace}#chart-9ad14d45-e4e4-4594-9656-d53778f21297 .title{font-family:Consolas,"Liberation Mono",Menlo,Courier,monospace;font-size:16px}#chart-9ad14d45-e4e4-4594-9656-d53778f21297 .legends .legend text{font-family:Consolas,"Liberation Mono",Menlo,Courier,monospace;font-size:14px}#chart-9ad14d45-e4e4-4594-9656-d53778f21297 .axis text{font-family:Consolas,"Liberation Mono",Menlo,Courier,monospace;font-size:10px}#chart-9ad14d45-e4e4-4594-9656-d53778f21297 .axis text.major{font-family:Consolas,"Liberation Mono",Menlo,Courier,monospace;font-size:10px}#chart-9ad14d45-e4e4-4594-9656-d53778f21297 .text-overlay text.value{font-family:Consolas,"Liberation Mono",Menlo,Courier,monospace;font-size:16px}#chart-9ad14d45-e4e4-4594-9656-d53778f21297 .text-overlay text.label{font-family:Consolas,"Liberation Mono",Menlo,Courier,monospace;font-size:10px}#chart-9ad14d45-e4e4-4594-9656-d53778f21297 .tooltip{font-family:Consolas,"Liberation Mono",Menlo,Courier,monospace;font-size:14px}#chart-9ad14d45-e4e4-4594-9656-d53778f21297 text.no_data{font-family:Consolas,"Liberation Mono",Menlo,Courier,monospace;font-size:64px}
#chart-9ad14d45-e4e4-4594-9656-d53778f21297{background-color:rgba(249,249,249,1)}#chart-9ad14d45-e4e4-4594-9656-d53778f21297 path,#chart-9ad14d45-e4e4-4594-9656-d53778f21297 line,#chart-9ad14d45-e4e4-4594-9656-d53778f21297 rect,#chart-9ad14d45-e4e4-4594-9656-d53778f21297 circle{-webkit-transition:150ms;-moz-transition:150ms;transition:150ms}#chart-9ad14d45-e4e4-4594-9656-d53778f21297 .graph &gt; .background{fill:rgba(249,249,249,1)}#chart-9ad14d45-e4e4-4594-9656-d53778f21297 .plot &gt; .background{fill:rgba(255,255,255,1)}#chart-9ad14d45-e4e4-4594-9656-d53778f21297 .graph{fill:rgba(0,0,0,.87)}#chart-9ad14d45-e4e4-4594-9656-d53778f21297 text.no_data{fill:rgba(0,0,0,1)}#chart-9ad14d45-e4e4-4594-9656-d53778f21297 .title{fill:rgba(0,0,0,1)}#chart-9ad14d45-e4e4-4594-9656-d53778f21297 .legends .legend text{fill:rgba(0,0,0,.87)}#chart-9ad14d45-e4e4-4594-9656-d53778f21297 .legends .legend:hover text{fill:rgba(0,0,0,1)}#chart-9ad14d45-e4e4-4594-9656-d53778f21297 .axis .line{stroke:rgba(0,0,0,1)}#chart-9ad14d45-e4e4-4594-9656-d53778f21297 .axis .guide.line{stroke:rgba(0,0,0,.54)}#chart-9ad14d45-e4e4-4594-9656-d53778f21297 .axis .major.line{stroke:rgba(0,0,0,.87)}#chart-9ad14d45-e4e4-4594-9656-d53778f21297 .axis text.major{fill:rgba(0,0,0,1)}#chart-9ad14d45-e4e4-4594-9656-d53778f21297 .axis.y .guides:hover .guide.line,#chart-9ad14d45-e4e4-4594-9656-d53778f21297 .line-graph .axis.x .guides:hover .guide.line,#chart-9ad14d45-e4e4-4594-9656-d53778f21297 .stackedline-graph .axis.x .guides:hover .guide.line,#chart-9ad14d45-e4e4-4594-9656-d53778f21297 .xy-graph .axis.x .guides:hover .guide.line{stroke:rgba(0,0,0,1)}#chart-9ad14d45-e4e4-4594-9656-d53778f21297 .axis .guides:hover text{fill:rgba(0,0,0,1)}#chart-9ad14d45-e4e4-4594-9656-d53778f21297 .reactive{fill-opacity:.7;stroke-opacity:.8;stroke-width:1}#chart-9ad14d45-e4e4-4594-9656-d53778f21297 .ci{stroke:rgba(0,0,0,.87)}#chart-9ad14d45-e4e4-4594-9656-d53778f21297 .reactive.active,#chart-9ad14d45-e4e4-4594-9656-d53778f21297 .active .reactive{fill-opacity:.8;stroke-opacity:.9;stroke-width:4}#chart-9ad14d45-e4e4-4594-9656-d53778f21297 .ci .reactive.active{stroke-width:1.5}#chart-9ad14d45-e4e4-4594-9656-d53778f21297 .series text{fill:rgba(0,0,0,1)}#chart-9ad14d45-e4e4-4594-9656-d53778f21297 .tooltip rect{fill:rgba(255,255,255,1);stroke:rgba(0,0,0,1);-webkit-transition:opacity 150ms;-moz-transition:opacity 150ms;transition:opacity 150ms}#chart-9ad14d45-e4e4-4594-9656-d53778f21297 .tooltip .label{fill:rgba(0,0,0,.87)}#chart-9ad14d45-e4e4-4594-9656-d53778f21297 .tooltip .label{fill:rgba(0,0,0,.87)}#chart-9ad14d45-e4e4-4594-9656-d53778f21297 .tooltip .legend{font-size:.8em;fill:rgba(0,0,0,.54)}#chart-9ad14d45-e4e4-4594-9656-d53778f21297 .tooltip .x_label{font-size:.6em;fill:rgba(0,0,0,1)}#chart-9ad14d45-e4e4-4594-9656-d53778f21297 .tooltip .xlink{font-size:.5em;text-decoration:underline}#chart-9ad14d45-e4e4-4594-9656-d53778f21297 .tooltip .value{font-size:1.5em}#chart-9ad14d45-e4e4-4594-9656-d53778f21297 .bound{font-size:.5em}#chart-9ad14d45-e4e4-4594-9656-d53778f21297 .max-value{font-size:.75em;fill:rgba(0,0,0,.54)}#chart-9ad14d45-e4e4-4594-9656-d53778f21297 .map-element{fill:rgba(255,255,255,1);stroke:rgba(0,0,0,.54) !important}#chart-9ad14d45-e4e4-4594-9656-d53778f21297 .map-element .reactive{fill-opacity:inherit;stroke-opacity:inherit}#chart-9ad14d45-e4e4-4594-9656-d53778f21297 .color-0,#chart-9ad14d45-e4e4-4594-9656-d53778f21297 .color-0 a:visited{stroke:#F44336;fill:#F44336}#chart-9ad14d45-e4e4-4594-9656-d53778f21297 .text-overlay .color-0 text{fill:black}
#chart-9ad14d45-e4e4-4594-9656-d53778f21297 text.no_data{text-anchor:middle}#chart-9ad14d45-e4e4-4594-9656-d53778f21297 .guide.line{fill:none}#chart-9ad14d45-e4e4-4594-9656-d53778f21297 .centered{text-anchor:middle}#chart-9ad14d45-e4e4-4594-9656-d53778f21297 .title{text-anchor:middle}#chart-9ad14d45-e4e4-4594-9656-d53778f21297 .legends .legend text{fill-opacity:1}#chart-9ad14d45-e4e4-4594-9656-d53778f21297 .axis.x text{text-anchor:middle}#chart-9ad14d45-e4e4-4594-9656-d53778f21297 .axis.x:not(.web) text[transform]{text-anchor:start}#chart-9ad14d45-e4e4-4594-9656-d53778f21297 .axis.x:not(.web) text[transform].backwards{text-anchor:end}#chart-9ad14d45-e4e4-4594-9656-d53778f21297 .axis.y text{text-anchor:end}#chart-9ad14d45-e4e4-4594-9656-d53778f21297 .axis.y text[transform].backwards{text-anchor:start}#chart-9ad14d45-e4e4-4594-9656-d53778f21297 .axis.y2 text{text-anchor:start}#chart-9ad14d45-e4e4-4594-9656-d53778f21297 .axis.y2 text[transform].backwards{text-anchor:end}#chart-9ad14d45-e4e4-4594-9656-d53778f21297 .axis .guide.line{stroke-dasharray:4,4;stroke:black}#chart-9ad14d45-e4e4-4594-9656-d53778f21297 .axis .major.guide.line{stroke-dasharray:6,6;stroke:black}#chart-9ad14d45-e4e4-4594-9656-d53778f21297 .horizontal .axis.y .guide.line,#chart-9ad14d45-e4e4-4594-9656-d53778f21297 .horizontal .axis.y2 .guide.line,#chart-9ad14d45-e4e4-4594-9656-d53778f21297 .vertical .axis.x .guide.line{opacity:0}#chart-9ad14d45-e4e4-4594-9656-d53778f21297 .horizontal .axis.always_show .guide.line,#chart-9ad14d45-e4e4-4594-9656-d53778f21297 .vertical .axis.always_show .guide.line{opacity:1 !important}#chart-9ad14d45-e4e4-4594-9656-d53778f21297 .axis.y .guides:hover .guide.line,#chart-9ad14d45-e4e4-4594-9656-d53778f21297 .axis.y2 .guides:hover .guide.line,#chart-9ad14d45-e4e4-4594-9656-d53778f21297 .axis.x .guides:hover .guide.line{opacity:1}#chart-9ad14d45-e4e4-4594-9656-d53778f21297 .axis .guides:hover text{opacity:1}#chart-9ad14d45-e4e4-4594-9656-d53778f21297 .nofill{fill:none}#chart-9ad14d45-e4e4-4594-9656-d53778f21297 .subtle-fill{fill-opacity:.2}#chart-9ad14d45-e4e4-4594-9656-d53778f21297 .dot{stroke-width:1px;fill-opacity:1;stroke-opacity:1}#chart-9ad14d45-e4e4-4594-9656-d53778f21297 .dot.active{stroke-width:5px}#chart-9ad14d45-e4e4-4594-9656-d53778f21297 .dot.negative{fill:transparent}#chart-9ad14d45-e4e4-4594-9656-d53778f21297 text,#chart-9ad14d45-e4e4-4594-9656-d53778f21297 tspan{stroke:none !important}#chart-9ad14d45-e4e4-4594-9656-d53778f21297 .series text.active{opacity:1}#chart-9ad14d45-e4e4-4594-9656-d53778f21297 .tooltip rect{fill-opacity:.95;stroke-width:.5}#chart-9ad14d45-e4e4-4594-9656-d53778f21297 .tooltip text{fill-opacity:1}#chart-9ad14d45-e4e4-4594-9656-d53778f21297 .showable{visibility:hidden}#chart-9ad14d45-e4e4-4594-9656-d53778f21297 .showable.shown{visibility:visible}#chart-9ad14d45-e4e4-4594-9656-d53778f21297 .gauge-background{fill:rgba(229,229,229,1);stroke:none}#chart-9ad14d45-e4e4-4594-9656-d53778f21297 .bg-lines{stroke:rgba(249,249,249,1);stroke-width:2px}</style><script type="text/javascript">window.pygal = window.pygal || {};window.pygal.config = window.pygal.config || {};window.pygal.config['9ad14d45-e4e4-4594-9656-d53778f21297'] = {"allow_interruptions": false, "box_mode": "extremes", "classes": ["pygal-chart", "pygal-sparkline"], "css": ["file://style.css", "file://graph.css"], "defs": [], "disable_xml_declaration": false, "dots_size": 2.5, "dynamic_print_values": false, "explicit_size": true, "fill": false, "force_uri_protocol": "https", "formatter": null, "half_pie": false, "height": 50, "include_x_axis": false, "inner_radius": 0, "interpolate": "cubic", "interpolation_parameters": {}, "interpolation_precision": 250, "inverse_y_axis": false, "js": [], "legend_at_bottom": false, "legend_at_bottom_columns": null, "legend_box_size": 12, "logarithmic": false, "margin": 10, "margin_bottom": null, "margin_left": null, "margin_right": null, "margin_top": null, "max_scale": 2, "min_scale": 1, "missing_value_fill_truncation": "x", "no_data_text": "", "no_prefix": false, "order_min": null, "pretty_print": false, "print_labels": false, "print_values": false, "print_values_position": "center", "print_zeroes": true, "range": null, "rounded_bars": null, "secondary_range": null, "show_dots": false, "show_legend": false, "show_minor_x_labels": true, "show_minor_y_labels": true, "show_only_major_dots": false, "show_x_guides": false, "show_x_labels": true, "show_y_guides": true, "show_y_labels": true, "spacing": 0, "stack_from_top": false, "strict": false, "stroke": true, "stroke_style": null, "style": {"background": "rgba(249, 249, 249, 1)", "ci_colors": [], "colors": ["#F44336", "#3F51B5", "#009688", "#FFC107", "#FF5722", "#9C27B0", "#03A9F4", "#8BC34A", "#FF9800", "#E91E63", "#2196F3", "#4CAF50", "#FFEB3B", "#673AB7", "#00BCD4", "#CDDC39", "#9E9E9E", "#607D8B"], "dot_opacity": "1", "font_family": "Consolas, \"Liberation Mono\", Menlo, Courier, monospace", "foreground": "rgba(0, 0, 0, .87)", "foreground_strong": "rgba(0, 0, 0, 1)", "foreground_subtle": "rgba(0, 0, 0, .54)", "guide_stroke_color": "black", "guide_stroke_dasharray": "4,4", "label_font_family": "Consolas, \"Liberation Mono\", Menlo, Courier, monospace", "label_font_size": 10, "legend_font_family": "Consolas, \"Liberation Mono\", Menlo, Courier, monospace", "legend_font_size": 14, "major_guide_stroke_color": "black", "major_guide_stroke_dasharray": "6,6", "major_label_font_family": "Consolas, \"Liberation Mono\", Menlo, Courier, monospace", "major_label_font_size": 10, "no_data_font_family": "Consolas, \"Liberation Mono\", Menlo, Courier, monospace", "no_data_font_size": 64, "opacity": ".7", "opacity_hover": ".8", "plot_background": "rgba(255, 255, 255, 1)", "stroke_opacity": ".8", "stroke_opacity_hover": ".9", "stroke_width": "1", "stroke_width_hover": "4", "title_font_family": "Consolas, \"Liberation Mono\", Menlo, Courier, monospace", "title_font_size": 16, "tooltip_font_family": "Consolas, \"Liberation Mono\", Menlo, Courier, monospace", "tooltip_font_size": 14, "transition": "150ms", "value_background": "rgba(229, 229, 229, 1)", "value_colors": [], "value_font_family": "Consolas, \"Liberation Mono\", Menlo, Courier, monospace", "value_font_size": 16, "value_label_font_family": "Consolas, \"Liberation Mono\", Menlo, Courier, monospace", "value_label_font_size": 10}, "title": null, "tooltip_border_radius": 0, "tooltip_fancy_mode": true, "truncate_label": null, "truncate_legend": null, "width": 200, "x_label_rotation": 0, "x_labels": ["2024/2", "2024/1", "2023/10", "2023/9"], "x_labels_major": null, "x_labels_major_count": null, "x_labels_major_every": null, "x_title": null, "xrange": null, "y_label_rotation": 0, "y_labels": null, "y_labels_major": null, "y_labels_major_count": null, "y_labels_major_every": null, "y_title": null, "zero": 0, "legends": [""]}</script></defs><title>Pygal</title><g class="graph line-graph vertical"><rect x="0" y="0" width="200" height="50" class="background" /><g transform="translate(22, 10)" class="plot"><rect x="0" y="0" width="168.0" height="20" class="background" /><g class="axis y always_show"><g class="guides"><path d="M0.000000 19.167042 h168.000000" class="axis line" /><text x="-5" y="22.667041525381507" class="">0</text><title>0</title></g><g class="guides"><path d="M0.000000 2.471552 h168.000000" class="guide line" /><text x="-5" y="5.971551622478287" class="">16</text><title>16</title></g></g><g class="axis x"><g class="guides"><path d="M3.230769 0.000000 v20.000000" class="line" /><text x="3.2307692307692304" y="35.0" class="">2024/2</text></g><g class="guides"><path d="M57.076923 0.000000 v20.000000" class="guide line" /><text x="57.07692307692307" y="35.0" class="">2024/1</text></g><g class="guides"><path d="M110.923077 0.000000 v20.000000" class="guide line" /><text x="110.92307692307692" y="35.0" class="">2023/…</text><title>2023/10</title></g><g class="guides"><path d="M164.769231 0.000000 v20.000000" class="guide line" /><text x="164.76923076923077" y="35.0" class="">2023/9</text></g></g><g class="series serie-0 color-0"><path d="M3.230769 9.775828 L3.446154 9.806715 3.661538 9.837602 3.876923 9.868488 4.092308 9.899373 4.307692 9.930258 4.523077 9.961143 4.738462 9.992026 4.953846 10.022908 5.169231 10.053789 5.384615 10.084668 5.600000 10.115546 5.815385 10.146422 6.030769 10.177296 6.246154 10.208168 6.461538 10.239038 6.676923 10.269906 6.892308 10.300770 7.107692 10.331632 7.323077 10.362492 7.538462 10.393348 7.753846 10.424201 7.969231 10.455050 8.184615 10.485897 8.400000 10.516739 8.615385 10.547577 8.830769 10.578412 9.046154 10.609242 9.261538 10.640068 9.476923 10.670890 9.692308 10.701707 9.907692 10.732519 10.123077 10.763326 10.338462 10.794128 10.553846 10.824925 10.769231 10.855716 10.984615 10.886502 11.200000 10.917282 11.415385 10.948056 11.630769 10.978823 11.846154 11.009585 12.061538 11.040340 12.276923 11.071089 12.492308 11.101831 12.707692 11.132566 12.923077 11.163294 13.138462 11.194015 13.353846 11.224728 13.569231 11.255434 13.784615 11.286132 14.000000 11.316822 14.215385 11.347504 14.430769 11.378179 14.646154 11.408844 14.861538 11.439502 15.076923 11.470150 15.292308 11.500790 15.507692 11.531421 15.723077 11.562043 15.938462 11.592655 16.153846 11.623258 16.369231 11.653851 16.584615 11.684435 16.800000 11.715008 17.015385 11.745572 17.230769 11.776125 17.446154 11.806668 17.661538 11.837200 17.876923 11.867722 18.092308 11.898232 18.307692 11.928732 18.523077 11.959220 18.738462 11.989697 18.953846 12.020163 19.169231 12.050616 19.384615 12.081058 19.600000 12.111488 19.815385 12.141906 20.030769 12.172311 20.246154 12.202704 20.461538 12.233084 20.676923 12.263451 20.892308 12.293806 21.107692 12.324147 21.323077 12.354475 21.538462 12.384789 21.753846 12.415090 21.969231 12.445377 22.184615 12.475650 22.400000 12.505909 22.615385 12.536154 22.830769 12.566384 23.046154 12.596600 23.261538 12.626801 23.476923 12.656987 23.692308 12.687158 23.907692 12.717314 24.123077 12.747454 24.338462 12.777579 24.553846 12.807688 24.769231 12.837781 24.984615 12.867859 25.200000 12.897920 25.415385 12.927964 25.630769 12.957992 25.846154 12.988004 26.061538 13.017999 26.276923 13.047976 26.492308 13.077937 26.707692 13.107880 26.923077 13.137806 27.138462 13.167714 27.353846 13.197604 27.569231 13.227477 27.784615 13.257331 28.000000 13.287167 28.215385 13.316985 28.430769 13.346784 28.646154 13.376564 28.861538 13.406325 29.076923 13.436068 29.292308 13.465791 29.507692 13.495494 29.723077 13.525178 29.938462 13.554843 30.153846 13.584487 30.369231 13.614112 30.584615 13.643716 30.800000 13.673300 31.015385 13.702863 31.230769 13.732406 31.446154 13.761928 31.661538 13.791429 31.876923 13.820908 32.092308 13.850367 32.307692 13.879804 32.523077 13.909219 32.738462 13.938612 32.953846 13.967984 33.169231 13.997333 33.384615 14.026660 33.600000 14.055965 33.815385 14.085247 34.030769 14.114507 34.246154 14.143743 34.461538 14.172956 34.676923 14.202146 34.892308 14.231313 35.107692 14.260456 35.323077 14.289576 35.538462 14.318671 35.753846 14.347743 35.969231 14.376790 36.184615 14.405813 36.400000 14.434811 36.615385 14.463785 36.830769 14.492734 37.046154 14.521658 37.261538 14.550557 37.476923 14.579430 37.692308 14.608278 37.907692 14.637100 38.123077 14.665897 38.338462 14.694667 38.553846 14.723411 38.769231 14.752130 38.984615 14.780821 39.200000 14.809486 39.415385 14.838125 39.630769 14.866736 39.846154 14.895320 40.061538 14.923877 40.276923 14.952407 40.492308 14.980909 40.707692 15.009383 40.923077 15.037829 41.138462 15.066248 41.353846 15.094638 41.569231 15.123000 41.784615 15.151333 42.000000 15.179638 42.215385 15.207913 42.430769 15.236160 42.646154 15.264378 42.861538 15.292566 43.076923 15.320725 43.292308 15.348854 43.507692 15.376953 43.723077 15.405022 43.938462 15.433061 44.153846 15.461070 44.369231 15.489049 44.584615 15.516996 44.800000 15.544913 45.015385 15.572799 45.230769 15.600654 45.446154 15.628478 45.661538 15.656271 45.876923 15.684031 46.092308 15.711760 46.307692 15.739457 46.523077 15.767123 46.738462 15.794755 46.953846 15.822356 47.169231 15.849924 47.384615 15.877459 47.600000 15.904961 47.815385 15.932431 48.030769 15.959867 48.246154 15.987270 48.461538 16.014639 48.676923 16.041975 48.892308 16.069277 49.107692 16.096545 49.323077 16.123778 49.538462 16.150978 49.753846 16.178143 49.969231 16.205273 50.184615 16.232369 50.400000 16.259430 50.615385 16.286455 50.830769 16.313445 51.046154 16.340400 51.261538 16.367320 51.476923 16.394203 51.692308 16.421051 51.907692 16.447862 52.123077 16.474638 52.338462 16.501377 52.553846 16.528079 52.769231 16.554745 52.984615 16.581374 53.200000 16.607966 53.415385 16.634520 53.630769 16.661038 53.846154 16.687518 54.061538 16.713960 54.276923 16.740364 54.492308 16.766730 54.707692 16.793059 54.923077 16.819348 55.138462 16.845600 55.353846 16.871813 55.569231 16.897987 55.784615 16.924122 56.000000 16.950218 56.215385 16.976274 56.430769 17.002292 56.646154 17.028269 56.861538 17.054207 57.076923 17.080105 57.292308 17.105963 57.507692 17.131779 57.723077 17.157552 57.938462 17.183280 58.153846 17.208961 58.369231 17.234594 58.584615 17.260178 58.800000 17.285710 59.015385 17.311190 59.230769 17.336615 59.446154 17.361984 59.661538 17.387295 59.876923 17.412547 60.092308 17.437738 60.307692 17.462866 60.523077 17.487930 60.738462 17.512929 60.953846 17.537860 61.169231 17.562723 61.384615 17.587515 61.600000 17.612234 61.815385 17.636880 62.030769 17.661451 62.246154 17.685945 62.461538 17.710360 62.676923 17.734695 62.892308 17.758948 63.107692 17.783118 63.323077 17.807203 63.538462 17.831202 63.753846 17.855112 63.969231 17.878933 64.184615 17.902662 64.400000 17.926298 64.615385 17.949840 64.830769 17.973286 65.046154 17.996633 65.261538 18.019882 65.476923 18.043029 65.692308 18.066074 65.907692 18.089015 66.123077 18.111850 66.338462 18.134577 66.553846 18.157196 66.769231 18.179704 66.984615 18.202099 67.200000 18.224381 67.415385 18.246548 67.630769 18.268597 67.846154 18.290528 68.061538 18.312339 68.276923 18.334028 68.492308 18.355593 68.707692 18.377034 68.923077 18.398348 69.138462 18.419533 69.353846 18.440589 69.569231 18.461514 69.784615 18.482305 70.000000 18.502962 70.215385 18.523482 70.430769 18.543865 70.646154 18.564108 70.861538 18.584210 71.076923 18.604170 71.292308 18.623985 71.507692 18.643654 71.723077 18.663176 71.938462 18.682549 72.153846 18.701772 72.369231 18.720842 72.584615 18.739758 72.800000 18.758518 73.015385 18.777122 73.230769 18.795567 73.446154 18.813852 73.661538 18.831974 73.876923 18.849934 74.092308 18.867728 74.307692 18.885355 74.523077 18.902814 74.738462 18.920104 74.953846 18.937222 75.169231 18.954166 75.384615 18.970936 75.600000 18.987530 75.815385 19.003946 76.030769 19.020182 76.246154 19.036237 76.461538 19.052110 76.676923 19.067798 76.892308 19.083300 77.107692 19.098615 77.323077 19.113740 77.538462 19.128675 77.753846 19.143418 77.969231 19.157966 78.184615 19.172319 78.400000 19.186475 78.615385 19.200433 78.830769 19.214189 79.046154 19.227744 79.261538 19.241096 79.476923 19.254242 79.692308 19.267181 79.907692 19.279912 80.123077 19.292433 80.338462 19.304743 80.553846 19.316839 80.769231 19.328721 80.984615 19.340386 81.200000 19.351833 81.415385 19.363061 81.630769 19.374067 81.846154 19.384851 82.061538 19.395410 82.276923 19.405743 82.492308 19.415849 82.707692 19.425726 82.923077 19.435371 83.138462 19.444785 83.353846 19.453964 83.569231 19.462908 83.784615 19.471614 84.000000 19.480082 84.215385 19.488309 84.430769 19.496294 84.646154 19.504036 84.861538 19.511533 85.076923 19.518782 85.292308 19.525783 85.507692 19.532534 85.723077 19.539034 85.938462 19.545280 86.153846 19.551272 86.369231 19.557006 86.584615 19.562483 86.800000 19.567701 87.015385 19.572657 87.230769 19.577350 87.446154 19.581779 87.661538 19.585941 87.876923 19.589836 88.092308 19.593462 88.307692 19.596817 88.523077 19.599899 88.738462 19.602708 88.953846 19.605240 89.169231 19.607496 89.384615 19.609472 89.600000 19.611168 89.815385 19.612582 90.030769 19.613712 90.246154 19.614557 90.461538 19.615115 90.676923 19.615385 90.892308 19.615364 91.107692 19.615052 91.323077 19.614446 91.538462 19.613546 91.753846 19.612349 91.969231 19.610854 92.184615 19.609059 92.400000 19.606963 92.615385 19.604564 92.830769 19.601860 93.046154 19.598850 93.261538 19.595533 93.476923 19.591906 93.692308 19.587968 93.907692 19.583718 94.123077 19.579154 94.338462 19.574273 94.553846 19.569076 94.769231 19.563559 94.984615 19.557722 95.200000 19.551563 95.415385 19.545080 95.630769 19.538272 95.846154 19.531137 96.061538 19.523673 96.276923 19.515879 96.492308 19.507753 96.707692 19.499294 96.923077 19.490500 97.138462 19.481369 97.353846 19.471900 97.569231 19.462092 97.784615 19.451942 98.000000 19.441449 98.215385 19.430611 98.430769 19.419427 98.646154 19.407895 98.861538 19.396014 99.076923 19.383782 99.292308 19.371198 99.507692 19.358259 99.723077 19.344964 99.938462 19.331312 100.153846 19.317301 100.369231 19.302929 100.584615 19.288195 100.800000 19.273097 101.015385 19.257634 101.230769 19.241804 101.446154 19.225605 101.661538 19.209036 101.876923 19.192095 102.092308 19.174780 102.307692 19.157091 102.523077 19.139025 102.738462 19.120581 102.953846 19.101756 103.169231 19.082551 103.384615 19.062962 103.600000 19.042988 103.815385 19.022629 104.030769 19.001881 104.246154 18.980744 104.461538 18.959216 104.676923 18.937295 104.892308 18.914980 105.107692 18.892269 105.323077 18.869161 105.538462 18.845653 105.753846 18.821745 105.969231 18.797435 106.184615 18.772720 106.400000 18.747600 106.615385 18.722073 106.830769 18.696138 107.046154 18.669792 107.261538 18.643034 107.476923 18.615862 107.692308 18.588276 107.907692 18.560272 108.123077 18.531851 108.338462 18.503009 108.553846 18.473746 108.769231 18.444060 108.984615 18.413949 109.200000 18.383412 109.415385 18.352447 109.630769 18.321052 109.846154 18.289226 110.061538 18.256967 110.276923 18.224274 110.492308 18.191146 110.707692 18.157579 110.923077 18.123573 111.138462 18.089128 111.353846 18.054243 111.569231 18.018921 111.784615 17.983163 112.000000 17.946972 112.215385 17.910349 112.430769 17.873295 112.646154 17.835813 112.861538 17.797905 113.076923 17.759572 113.292308 17.720815 113.507692 17.681637 113.723077 17.642040 113.938462 17.602025 114.153846 17.561593 114.369231 17.520748 114.584615 17.479489 114.800000 17.437820 115.015385 17.395742 115.230769 17.353257 115.446154 17.310366 115.661538 17.267071 115.876923 17.223375 116.092308 17.179278 116.307692 17.134783 116.523077 17.089891 116.738462 17.044604 116.953846 16.998924 117.169231 16.952853 117.384615 16.906392 117.600000 16.859543 117.815385 16.812308 118.030769 16.764689 118.246154 16.716687 118.461538 16.668304 118.676923 16.619543 118.892308 16.570404 119.107692 16.520889 119.323077 16.471001 119.538462 16.420740 119.753846 16.370110 119.969231 16.319111 120.184615 16.267745 120.400000 16.216014 120.615385 16.163920 120.830769 16.111465 121.046154 16.058650 121.261538 16.005477 121.476923 15.951948 121.692308 15.898065 121.907692 15.843829 122.123077 15.789242 122.338462 15.734306 122.553846 15.679023 122.769231 15.623394 122.984615 15.567421 123.200000 15.511107 123.415385 15.454452 123.630769 15.397458 123.846154 15.340128 124.061538 15.282463 124.276923 15.224465 124.492308 15.166135 124.707692 15.107475 124.923077 15.048488 125.138462 14.989174 125.353846 14.929536 125.569231 14.869576 125.784615 14.809294 126.000000 14.748694 126.215385 14.687776 126.430769 14.626542 126.646154 14.564995 126.861538 14.503135 127.076923 14.440966 127.292308 14.378487 127.507692 14.315702 127.723077 14.252612 127.938462 14.189219 128.153846 14.125524 128.369231 14.061530 128.584615 13.997238 128.800000 13.932649 129.015385 13.867766 129.230769 13.802590 129.446154 13.737124 129.661538 13.671368 129.876923 13.605325 130.092308 13.538996 130.307692 13.472384 130.523077 13.405489 130.738462 13.338314 130.953846 13.270860 131.169231 13.203130 131.384615 13.135125 131.600000 13.066846 131.815385 12.998296 132.030769 12.929476 132.246154 12.860388 132.461538 12.791034 132.676923 12.721415 132.892308 12.651534 133.107692 12.581392 133.323077 12.510991 133.538462 12.440332 133.753846 12.369417 133.969231 12.298249 134.184615 12.226829 134.400000 12.155158 134.615385 12.083239 134.830769 12.011072 135.046154 11.938661 135.261538 11.866007 135.476923 11.793111 135.692308 11.719975 135.907692 11.646601 136.123077 11.572991 136.338462 11.499146 136.553846 11.425069 136.769231 11.350761 136.984615 11.276223 137.200000 11.201458 137.415385 11.126468 137.630769 11.051253 137.846154 10.975817 138.061538 10.900160 138.276923 10.824284 138.492308 10.748192 138.707692 10.671884 138.923077 10.595363 139.138462 10.518631 139.353846 10.441689 139.569231 10.364538 139.784615 10.287182 140.000000 10.209621 140.215385 10.131857 140.430769 10.053892 140.646154 9.975728 140.861538 9.897367 141.076923 9.818809 141.292308 9.740058 141.507692 9.661115 141.723077 9.581981 141.938462 9.502659 142.153846 9.423150 142.369231 9.343455 142.584615 9.263578 142.800000 9.183518 143.015385 9.103279 143.230769 9.022862 143.446154 8.942268 143.661538 8.861500 143.876923 8.780559 144.092308 8.699448 144.307692 8.618167 144.523077 8.536718 144.738462 8.455104 144.953846 8.373325 145.169231 8.291385 145.384615 8.209284 145.600000 8.127024 145.815385 8.044608 146.030769 7.962036 146.246154 7.879311 146.461538 7.796435 146.676923 7.713408 146.892308 7.630233 147.107692 7.546912 147.323077 7.463447 147.538462 7.379839 147.753846 7.296089 147.969231 7.212201 148.184615 7.128175 148.400000 7.044013 148.615385 6.959717 148.830769 6.875289 149.046154 6.790730 149.261538 6.706043 149.476923 6.621228 149.692308 6.536289 149.907692 6.451226 150.123077 6.366042 150.338462 6.280737 150.553846 6.195315 150.769231 6.109776 150.984615 6.024123 151.200000 5.938356 151.415385 5.852479 151.630769 5.766492 151.846154 5.680398 152.061538 5.594198 152.276923 5.507894 152.492308 5.421488 152.707692 5.334981 152.923077 5.248376 153.138462 5.161673 153.353846 5.074875 153.569231 4.987984 153.784615 4.901002 154.000000 4.813929 154.215385 4.726768 154.430769 4.639521 154.646154 4.552189 154.861538 4.464774 155.076923 4.377278 155.292308 4.289703 155.507692 4.202050 155.723077 4.114322 155.938462 4.026519 156.153846 3.938644 156.369231 3.850699 156.584615 3.762685 156.800000 3.674604 157.015385 3.586457 157.230769 3.498247 157.446154 3.409976 157.661538 3.321644 157.876923 3.233255 158.092308 3.144809 158.307692 3.056308 158.523077 2.967754 158.738462 2.879149 158.953846 2.790495 159.169231 2.701793 159.384615 2.613046 159.600000 2.524254 159.815385 2.435420 160.030769 2.346546 160.246154 2.257632 160.461538 2.168682 160.676923 2.079696 160.892308 1.990677 161.107692 1.901627 161.323077 1.812546 161.538462 1.723437 161.753846 1.634301 161.969231 1.545141 162.184615 1.455958 162.400000 1.366754 162.615385 1.277530 162.830769 1.188289 163.046154 1.099032 163.261538 1.009761 163.476923 0.920477 163.692308 0.831183 163.907692 0.741880 164.123077 0.652570 164.338462 0.563255 164.553846 0.473936 164.769231 0.384615" class="line reactive nofill" /></g></g><g class="titles" /><g transform="translate(22, 10)" class="plot overlay"><g class="series serie-0 color-0" /></g><g transform="translate(22, 10)" class="plot text-overlay"><g class="series serie-0 color-0" /></g><g transform="translate(22, 10)" class="plot tooltip-overlay"><g transform="translate(0 0)" style="opacity: 0" class="tooltip"><rect rx="0" ry="0" width="0" height="0" class="tooltip-box" /><g class="text" /></g></g></g></svg>