<?xml version='1.0' encoding='utf-8'?>
<svg xmlns="http://www.w3.org/2000/svg" id="chart-6a071642-96ab-4416-88c4-b9727403c159" class="pygal-chart pygal-sparkline" viewBox="0 0 200 50" width="200" height="50"><!--Generated with pygal 3.0.4 (etree) ©Kozea 2012-2016 on 2024-04-04--><!--http://pygal.org--><!--http://github.com/Kozea/pygal--><defs><style type="text/css">#chart-6a071642-96ab-4416-88c4-b9727403c159{-webkit-user-select:none;-webkit-font-smoothing:antialiased;font-family:Consolas,"Liberation Mono",Menlo,Courier,monospace}#chart-6a071642-96ab-4416-88c4-b9727403c159 .title{font-family:Consolas,"Liberation Mono",Menlo,Courier,monospace;font-size:16px}#chart-6a071642-96ab-4416-88c4-b9727403c159 .legends .legend text{font-family:Consolas,"Liberation Mono",Menlo,Courier,monospace;font-size:14px}#chart-6a071642-96ab-4416-88c4-b9727403c159 .axis text{font-family:Consolas,"Liberation Mono",Menlo,Courier,monospace;font-size:10px}#chart-6a071642-96ab-4416-88c4-b9727403c159 .axis text.major{font-family:Consolas,"Liberation Mono",Menlo,Courier,monospace;font-size:10px}#chart-6a071642-96ab-4416-88c4-b9727403c159 .text-overlay text.value{font-family:Consolas,"Liberation Mono",Menlo,Courier,monospace;font-size:16px}#chart-6a071642-96ab-4416-88c4-b9727403c159 .text-overlay text.label{font-family:Consolas,"Liberation Mono",Menlo,Courier,monospace;font-size:10px}#chart-6a071642-96ab-4416-88c4-b9727403c159 .tooltip{font-family:Consolas,"Liberation Mono",Menlo,Courier,monospace;font-size:14px}#chart-6a071642-96ab-4416-88c4-b9727403c159 text.no_data{font-family:Consolas,"Liberation Mono",Menlo,Courier,monospace;font-size:64px}
#chart-6a071642-96ab-4416-88c4-b9727403c159{background-color:rgba(249,249,249,1)}#chart-6a071642-96ab-4416-88c4-b9727403c159 path,#chart-6a071642-96ab-4416-88c4-b9727403c159 line,#chart-6a071642-96ab-4416-88c4-b9727403c159 rect,#chart-6a071642-96ab-4416-88c4-b9727403c159 circle{-webkit-transition:150ms;-moz-transition:150ms;transition:150ms}#chart-6a071642-96ab-4416-88c4-b9727403c159 .graph &gt; .background{fill:rgba(249,249,249,1)}#chart-6a071642-96ab-4416-88c4-b9727403c159 .plot &gt; .background{fill:rgba(255,255,255,1)}#chart-6a071642-96ab-4416-88c4-b9727403c159 .graph{fill:rgba(0,0,0,.87)}#chart-6a071642-96ab-4416-88c4-b9727403c159 text.no_data{fill:rgba(0,0,0,1)}#chart-6a071642-96ab-4416-88c4-b9727403c159 .title{fill:rgba(0,0,0,1)}#chart-6a071642-96ab-4416-88c4-b9727403c159 .legends .legend text{fill:rgba(0,0,0,.87)}#chart-6a071642-96ab-4416-88c4-b9727403c159 .legends .legend:hover text{fill:rgba(0,0,0,1)}#chart-6a071642-96ab-4416-88c4-b9727403c159 .axis .line{stroke:rgba(0,0,0,1)}#chart-6a071642-96ab-4416-88c4-b9727403c159 .axis .guide.line{stroke:rgba(0,0,0,.54)}#chart-6a071642-96ab-4416-88c4-b9727403c159 .axis .major.line{stroke:rgba(0,0,0,.87)}#chart-6a071642-96ab-4416-88c4-b9727403c159 .axis text.major{fill:rgba(0,0,0,1)}#chart-6a071642-96ab-4416-88c4-b9727403c159 .axis.y .guides:hover .guide.line,#chart-6a071642-96ab-4416-88c4-b9727403c159 .line-graph .axis.x .guides:hover .guide.line,#chart-6a071642-96ab-4416-88c4-b9727403c159 .stackedline-graph .axis.x .guides:hover .guide.line,#chart-6a071642-96ab-4416-88c4-b9727403c159 .xy-graph .axis.x .guides:hover .guide.line{stroke:rgba(0,0,0,1)}#chart-6a071642-96ab-4416-88c4-b9727403c159 .axis .guides:hover text{fill:rgba(0,0,0,1)}#chart-6a071642-96ab-4416-88c4-b9727403c159 .reactive{fill-opacity:.7;stroke-opacity:.8;stroke-width:1}#chart-6a071642-96ab-4416-88c4-b9727403c159 .ci{stroke:rgba(0,0,0,.87)}#chart-6a071642-96ab-4416-88c4-b9727403c159 .reactive.active,#chart-6a071642-96ab-4416-88c4-b9727403c159 .active .reactive{fill-opacity:.8;stroke-opacity:.9;stroke-width:4}#chart-6a071642-96ab-4416-88c4-b9727403c159 .ci .reactive.active{stroke-width:1.5}#chart-6a071642-96ab-4416-88c4-b9727403c159 .series text{fill:rgba(0,0,0,1)}#chart-6a071642-96ab-4416-88c4-b9727403c159 .tooltip rect{fill:rgba(255,255,255,1);stroke:rgba(0,0,0,1);-webkit-transition:opacity 150ms;-moz-transition:opacity 150ms;transition:opacity 150ms}#chart-6a071642-96ab-4416-88c4-b9727403c159 .tooltip .label{fill:rgba(0,0,0,.87)}#chart-6a071642-96ab-4416-88c4-b9727403c159 .tooltip .label{fill:rgba(0,0,0,.87)}#chart-6a071642-96ab-4416-88c4-b9727403c159 .tooltip .legend{font-size:.8em;fill:rgba(0,0,0,.54)}#chart-6a071642-96ab-4416-88c4-b9727403c159 .tooltip .x_label{font-size:.6em;fill:rgba(0,0,0,1)}#chart-6a071642-96ab-4416-88c4-b9727403c159 .tooltip .xlink{font-size:.5em;text-decoration:underline}#chart-6a071642-96ab-4416-88c4-b9727403c159 .tooltip .value{font-size:1.5em}#chart-6a071642-96ab-4416-88c4-b9727403c159 .bound{font-size:.5em}#chart-6a071642-96ab-4416-88c4-b9727403c159 .max-value{font-size:.75em;fill:rgba(0,0,0,.54)}#chart-6a071642-96ab-4416-88c4-b9727403c159 .map-element{fill:rgba(255,255,255,1);stroke:rgba(0,0,0,.54) !important}#chart-6a071642-96ab-4416-88c4-b9727403c159 .map-element .reactive{fill-opacity:inherit;stroke-opacity:inherit}#chart-6a071642-96ab-4416-88c4-b9727403c159 .color-0,#chart-6a071642-96ab-4416-88c4-b9727403c159 .color-0 a:visited{stroke:#F44336;fill:#F44336}#chart-6a071642-96ab-4416-88c4-b9727403c159 .text-overlay .color-0 text{fill:black}
#chart-6a071642-96ab-4416-88c4-b9727403c159 text.no_data{text-anchor:middle}#chart-6a071642-96ab-4416-88c4-b9727403c159 .guide.line{fill:none}#chart-6a071642-96ab-4416-88c4-b9727403c159 .centered{text-anchor:middle}#chart-6a071642-96ab-4416-88c4-b9727403c159 .title{text-anchor:middle}#chart-6a071642-96ab-4416-88c4-b9727403c159 .legends .legend text{fill-opacity:1}#chart-6a071642-96ab-4416-88c4-b9727403c159 .axis.x text{text-anchor:middle}#chart-6a071642-96ab-4416-88c4-b9727403c159 .axis.x:not(.web) text[transform]{text-anchor:start}#chart-6a071642-96ab-4416-88c4-b9727403c159 .axis.x:not(.web) text[transform].backwards{text-anchor:end}#chart-6a071642-96ab-4416-88c4-b9727403c159 .axis.y text{text-anchor:end}#chart-6a071642-96ab-4416-88c4-b9727403c159 .axis.y text[transform].backwards{text-anchor:start}#chart-6a071642-96ab-4416-88c4-b9727403c159 .axis.y2 text{text-anchor:start}#chart-6a071642-96ab-4416-88c4-b9727403c159 .axis.y2 text[transform].backwards{text-anchor:end}#chart-6a071642-96ab-4416-88c4-b9727403c159 .axis .guide.line{stroke-dasharray:4,4;stroke:black}#chart-6a071642-96ab-4416-88c4-b9727403c159 .axis .major.guide.line{stroke-dasharray:6,6;stroke:black}#chart-6a071642-96ab-4416-88c4-b9727403c159 .horizontal .axis.y .guide.line,#chart-6a071642-96ab-4416-88c4-b9727403c159 .horizontal .axis.y2 .guide.line,#chart-6a071642-96ab-4416-88c4-b9727403c159 .vertical .axis.x .guide.line{opacity:0}#chart-6a071642-96ab-4416-88c4-b9727403c159 .horizontal .axis.always_show .guide.line,#chart-6a071642-96ab-4416-88c4-b9727403c159 .vertical .axis.always_show .guide.line{opacity:1 !important}#chart-6a071642-96ab-4416-88c4-b9727403c159 .axis.y .guides:hover .guide.line,#chart-6a071642-96ab-4416-88c4-b9727403c159 .axis.y2 .guides:hover .guide.line,#chart-6a071642-96ab-4416-88c4-b9727403c159 .axis.x .guides:hover .guide.line{opacity:1}#chart-6a071642-96ab-4416-88c4-b9727403c159 .axis .guides:hover text{opacity:1}#chart-6a071642-96ab-4416-88c4-b9727403c159 .nofill{fill:none}#chart-6a071642-96ab-4416-88c4-b9727403c159 .subtle-fill{fill-opacity:.2}#chart-6a071642-96ab-4416-88c4-b9727403c159 .dot{stroke-width:1px;fill-opacity:1;stroke-opacity:1}#chart-6a071642-96ab-4416-88c4-b9727403c159 .dot.active{stroke-width:5px}#chart-6a071642-96ab-4416-88c4-b9727403c159 .dot.negative{fill:transparent}#chart-6a071642-96ab-4416-88c4-b9727403c159 text,#chart-6a071642-96ab-4416-88c4-b9727403c159 tspan{stroke:none !important}#chart-6a071642-96ab-4416-88c4-b9727403c159 .series text.active{opacity:1}#chart-6a071642-96ab-4416-88c4-b9727403c159 .tooltip rect{fill-opacity:.95;stroke-width:.5}#chart-6a071642-96ab-4416-88c4-b9727403c159 .tooltip text{fill-opacity:1}#chart-6a071642-96ab-4416-88c4-b9727403c159 .showable{visibility:hidden}#chart-6a071642-96ab-4416-88c4-b9727403c159 .showable.shown{visibility:visible}#chart-6a071642-96ab-4416-88c4-b9727403c159 .gauge-background{fill:rgba(229,229,229,1);stroke:none}#chart-6a071642-96ab-4416-88c4-b9727403c159 .bg-lines{stroke:rgba(249,249,249,1);stroke-width:2px}</style><script type="text/javascript">window.pygal = window.pygal || {};window.pygal.config = window.pygal.config || {};window.pygal.config['6a071642-96ab-4416-88c4-b9727403c159'] = {"allow_interruptions": false, "box_mode": "extremes", "classes": ["pygal-chart", "pygal-sparkline"], "css": ["file://style.css", "file://graph.css"], "defs": [], "disable_xml_declaration": false, "dots_size": 2.5, "dynamic_print_values": false, "explicit_size": true, "fill": false, "force_uri_protocol": "https", "formatter": null, "half_pie": false, "height": 50, "include_x_axis": false, "inner_radius": 0, "interpolate": "cubic", "interpolation_parameters": {}, "interpolation_precision": 250, "inverse_y_axis": false, "js": [], "legend_at_bottom": false, "legend_at_bottom_columns": null, "legend_box_size": 12, "logarithmic": false, "margin": 10, "margin_bottom": null, "margin_left": null, "margin_right": null, "margin_top": null, "max_scale": 2, "min_scale": 1, "missing_value_fill_truncation": "x", "no_data_text": "", "no_prefix": false, "order_min": null, "pretty_print": false, "print_labels": false, "print_values": false, "print_values_position": "center", "print_zeroes": true, "range": null, "rounded_bars": null, "secondary_range": null, "show_dots": false, "show_legend": false, "show_minor_x_labels": true, "show_minor_y_labels": true, "show_only_major_dots": false, "show_x_guides": false, "show_x_labels": true, "show_y_guides": true, "show_y_labels": true, "spacing": 0, "stack_from_top": false, "strict": false, "stroke": true, "stroke_style": null, "style": {"background": "rgba(249, 249, 249, 1)", "ci_colors": [], "colors": ["#F44336", "#3F51B5", "#009688", "#FFC107", "#FF5722", "#9C27B0", "#03A9F4", "#8BC34A", "#FF9800", "#E91E63", "#2196F3", "#4CAF50", "#FFEB3B", "#673AB7", "#00BCD4", "#CDDC39", "#9E9E9E", "#607D8B"], "dot_opacity": "1", "font_family": "Consolas, \"Liberation Mono\", Menlo, Courier, monospace", "foreground": "rgba(0, 0, 0, .87)", "foreground_strong": "rgba(0, 0, 0, 1)", "foreground_subtle": "rgba(0, 0, 0, .54)", "guide_stroke_color": "black", "guide_stroke_dasharray": "4,4", "label_font_family": "Consolas, \"Liberation Mono\", Menlo, Courier, monospace", "label_font_size": 10, "legend_font_family": "Consolas, \"Liberation Mono\", Menlo, Courier, monospace", "legend_font_size": 14, "major_guide_stroke_color": "black", "major_guide_stroke_dasharray": "6,6", "major_label_font_family": "Consolas, \"Liberation Mono\", Menlo, Courier, monospace", "major_label_font_size": 10, "no_data_font_family": "Consolas, \"Liberation Mono\", Menlo, Courier, monospace", "no_data_font_size": 64, "opacity": ".7", "opacity_hover": ".8", "plot_background": "rgba(255, 255, 255, 1)", "stroke_opacity": ".8", "stroke_opacity_hover": ".9", "stroke_width": "1", "stroke_width_hover": "4", "title_font_family": "Consolas, \"Liberation Mono\", Menlo, Courier, monospace", "title_font_size": 16, "tooltip_font_family": "Consolas, \"Liberation Mono\", Menlo, Courier, monospace", "tooltip_font_size": 14, "transition": "150ms", "value_background": "rgba(229, 229, 229, 1)", "value_colors": [], "value_font_family": "Consolas, \"Liberation Mono\", Menlo, Courier, monospace", "value_font_size": 16, "value_label_font_family": "Consolas, \"Liberation Mono\", Menlo, Courier, monospace", "value_label_font_size": 10}, "title": null, "tooltip_border_radius": 0, "tooltip_fancy_mode": true, "truncate_label": null, "truncate_legend": null, "width": 200, "x_label_rotation": 0, "x_labels": ["2023/9", "2023/6", "2023/3", "2023/2", "2021/3", "2020/10"], "x_labels_major": null, "x_labels_major_count": null, "x_labels_major_every": null, "x_title": null, "xrange": null, "y_label_rotation": 0, "y_labels": null, "y_labels_major": null, "y_labels_major_count": null, "y_labels_major_every": null, "y_title": null, "zero": 0, "legends": [""]}</script></defs><title>Pygal</title><g class="graph line-graph vertical"><rect x="0" y="0" width="200" height="50" class="background" /><g transform="translate(82, 10)" class="plot"><rect x="0" y="0" width="108.0" height="20" class="background" /><g class="axis y always_show"><path d="M0.000000 20.000000 h108.000000" class="line" /><g class="guides"><path d="M0.000000 19.615385 h108.000000" class="guide line" /><text x="-5" y="23.115384615384617" class="">0.1444710131</text><title>0.1444710131</title></g><g class="guides"><path d="M0.000000 0.384615 h108.000000" class="guide line" /><text x="-5" y="3.8846153846153832" class="">10.09967462</text><title>10.09967462</title></g></g><g class="axis x"><g class="guides"><path d="M2.076923 0.000000 v20.000000" class="line" /><text x="2.076923076923077" y="35.0" class="">2…</text><title>2023/9</title></g><g class="guides"><path d="M22.846154 0.000000 v20.000000" class="guide line" /><text x="22.846153846153847" y="35.0" class="">2…</text><title>2023/6</title></g><g class="guides"><path d="M43.615385 0.000000 v20.000000" class="guide line" /><text x="43.61538461538462" y="35.0" class="">2…</text><title>2023/3</title></g><g class="guides"><path d="M64.384615 0.000000 v20.000000" class="guide line" /><text x="64.38461538461537" y="35.0" class="">2…</text><title>2023/2</title></g><g class="guides"><path d="M85.153846 0.000000 v20.000000" class="guide line" /><text x="85.15384615384615" y="35.0" class="">2…</text><title>2021/3</title></g><g class="guides"><path d="M105.923077 0.000000 v20.000000" class="guide line" /><text x="105.92307692307692" y="35.0" class="">2…</text><title>2020/10</title></g></g><g class="series serie-0 color-0"><path d="M2.076923 10.235812 L2.160000 10.218140 2.243077 10.200469 2.326154 10.182800 2.409231 10.165134 2.492308 10.147471 2.575385 10.129814 2.658462 10.112162 2.741538 10.094516 2.824615 10.076879 2.907692 10.059250 2.990769 10.041630 3.073846 10.024022 3.156923 10.006424 3.240000 9.988839 3.323077 9.971267 3.406154 9.953710 3.489231 9.936168 3.572308 9.918642 3.655385 9.901133 3.738462 9.883643 3.821538 9.866171 3.904615 9.848720 3.987692 9.831290 4.070769 9.813881 4.153846 9.796496 4.236923 9.779134 4.320000 9.761797 4.403077 9.744486 4.486154 9.727202 4.569231 9.709945 4.652308 9.692717 4.735385 9.675519 4.818462 9.658351 4.901538 9.641215 4.984615 9.624111 5.067692 9.607040 5.150769 9.590004 5.233846 9.573003 5.316923 9.556039 5.400000 9.539112 5.483077 9.522223 5.566154 9.505373 5.649231 9.488563 5.732308 9.471794 5.815385 9.455067 5.898462 9.438384 5.981538 9.421744 6.064615 9.405149 6.147692 9.388600 6.230769 9.372097 6.313846 9.355643 6.396923 9.339237 6.480000 9.322880 6.563077 9.306575 6.646154 9.290320 6.729231 9.274119 6.812308 9.257971 6.895385 9.241877 6.978462 9.225838 7.061538 9.209856 7.144615 9.193932 7.227692 9.178065 7.310769 9.162258 7.393846 9.146511 7.476923 9.130825 7.560000 9.115200 7.643077 9.099639 7.726154 9.084142 7.809231 9.068710 7.892308 9.053344 7.975385 9.038045 8.058462 9.022813 8.141538 9.007650 8.224615 8.992557 8.307692 8.977534 8.390769 8.962583 8.473846 8.947705 8.556923 8.932900 8.640000 8.918170 8.723077 8.903515 8.806154 8.888936 8.889231 8.874435 8.972308 8.860012 9.055385 8.845668 9.138462 8.831405 9.221538 8.817222 9.304615 8.803122 9.387692 8.789105 9.470769 8.775172 9.553846 8.761323 9.636923 8.747561 9.720000 8.733886 9.803077 8.720298 9.886154 8.706799 9.969231 8.693390 10.052308 8.680072 10.135385 8.666845 10.218462 8.653711 10.301538 8.640671 10.384615 8.627725 10.467692 8.614874 10.550769 8.602120 10.633846 8.589463 10.716923 8.576905 10.800000 8.564446 10.883077 8.552087 10.966154 8.539830 11.049231 8.527674 11.132308 8.515622 11.215385 8.503673 11.298462 8.491830 11.381538 8.480093 11.464615 8.468463 11.547692 8.456940 11.630769 8.445526 11.713846 8.434223 11.796923 8.423029 11.880000 8.411948 11.963077 8.400979 12.046154 8.390124 12.129231 8.379384 12.212308 8.368759 12.295385 8.358250 12.378462 8.347859 12.461538 8.337586 12.544615 8.327433 12.627692 8.317400 12.710769 8.307488 12.793846 8.297698 12.876923 8.288032 12.960000 8.278490 13.043077 8.269072 13.126154 8.259781 13.209231 8.250617 13.292308 8.241580 13.375385 8.232673 13.458462 8.223895 13.541538 8.215248 13.624615 8.206733 13.707692 8.198351 13.790769 8.190102 13.873846 8.181988 13.956923 8.174010 14.040000 8.166168 14.123077 8.158463 14.206154 8.150897 14.289231 8.143471 14.372308 8.136184 14.455385 8.129039 14.538462 8.122037 14.621538 8.115177 14.704615 8.108462 14.787692 8.101891 14.870769 8.095467 14.953846 8.089190 15.036923 8.083061 15.120000 8.077081 15.203077 8.071250 15.286154 8.065571 15.369231 8.060043 15.452308 8.054668 15.535385 8.049447 15.618462 8.044380 15.701538 8.039470 15.784615 8.034715 15.867692 8.030118 15.950769 8.025680 16.033846 8.021401 16.116923 8.017283 16.200000 8.013326 16.283077 8.009531 16.366154 8.005899 16.449231 8.002432 16.532308 7.999130 16.615385 7.995994 16.698462 7.993025 16.781538 7.990224 16.864615 7.987592 16.947692 7.985130 17.030769 7.982838 17.113846 7.980719 17.196923 7.978773 17.280000 7.977000 17.363077 7.975402 17.446154 7.973980 17.529231 7.972734 17.612308 7.971666 17.695385 7.970776 17.778462 7.970066 17.861538 7.969537 17.944615 7.969188 18.027692 7.969022 18.110769 7.969040 18.193846 7.969242 18.276923 7.969629 18.360000 7.970202 18.443077 7.970962 18.526154 7.971910 18.609231 7.973047 18.692308 7.974375 18.775385 7.975893 18.858462 7.977603 18.941538 7.979506 19.024615 7.981603 19.107692 7.983895 19.190769 7.986382 19.273846 7.989066 19.356923 7.991948 19.440000 7.995028 19.523077 7.998308 19.606154 8.001788 19.689231 8.005470 19.772308 8.009354 19.855385 8.013441 19.938462 8.017733 20.021538 8.022230 20.104615 8.026933 20.187692 8.031844 20.270769 8.036962 20.353846 8.042290 20.436923 8.047828 20.520000 8.053576 20.603077 8.059537 20.686154 8.065711 20.769231 8.072098 20.852308 8.078700 20.935385 8.085518 21.018462 8.092553 21.101538 8.099806 21.184615 8.107277 21.267692 8.114967 21.350769 8.122878 21.433846 8.131011 21.516923 8.139366 21.600000 8.147945 21.683077 8.156748 21.766154 8.165776 21.849231 8.175031 21.932308 8.184512 22.015385 8.194222 22.098462 8.204161 22.181538 8.214330 22.264615 8.224731 22.347692 8.235363 22.430769 8.246228 22.513846 8.257327 22.596923 8.268661 22.680000 8.280231 22.763077 8.292037 22.846154 8.304081 22.929231 8.316364 23.012308 8.328881 23.095385 8.341631 23.178462 8.354609 23.261538 8.367814 23.344615 8.381240 23.427692 8.394885 23.510769 8.408746 23.593846 8.422819 23.676923 8.437102 23.760000 8.451590 23.843077 8.466280 23.926154 8.481170 24.009231 8.496256 24.092308 8.511534 24.175385 8.527002 24.258462 8.542656 24.341538 8.558492 24.424615 8.574508 24.507692 8.590700 24.590769 8.607065 24.673846 8.623600 24.756923 8.640300 24.840000 8.657164 24.923077 8.674188 25.006154 8.691368 25.089231 8.708701 25.172308 8.726184 25.255385 8.743814 25.338462 8.761587 25.421538 8.779500 25.504615 8.797549 25.587692 8.815732 25.670769 8.834045 25.753846 8.852485 25.836923 8.871048 25.920000 8.889732 26.003077 8.908533 26.086154 8.927447 26.169231 8.946471 26.252308 8.965603 26.335385 8.984839 26.418462 9.004175 26.501538 9.023608 26.584615 9.043135 26.667692 9.062753 26.750769 9.082458 26.833846 9.102247 26.916923 9.122117 27.000000 9.142064 27.083077 9.162086 27.166154 9.182178 27.249231 9.202338 27.332308 9.222563 27.415385 9.242848 27.498462 9.263191 27.581538 9.283588 27.664615 9.304037 27.747692 9.324534 27.830769 9.345075 27.913846 9.365657 27.996923 9.386277 28.080000 9.406933 28.163077 9.427619 28.246154 9.448334 28.329231 9.469073 28.412308 9.489834 28.495385 9.510613 28.578462 9.531407 28.661538 9.552213 28.744615 9.573027 28.827692 9.593846 28.910769 9.614668 28.993846 9.635487 29.076923 9.656302 29.160000 9.677109 29.243077 9.697904 29.326154 9.718685 29.409231 9.739447 29.492308 9.760189 29.575385 9.780906 29.658462 9.801595 29.741538 9.822253 29.824615 9.842877 29.907692 9.863463 29.990769 9.884008 30.073846 9.904509 30.156923 9.924962 30.240000 9.945364 30.323077 9.965712 30.406154 9.986003 30.489231 10.006233 30.572308 10.026399 30.655385 10.046498 30.738462 10.066526 30.821538 10.086480 30.904615 10.106358 30.987692 10.126154 31.070769 10.145867 31.153846 10.165493 31.236923 10.185029 31.320000 10.204471 31.403077 10.223816 31.486154 10.243060 31.569231 10.262202 31.652308 10.281236 31.735385 10.300161 31.818462 10.318972 31.901538 10.337667 31.984615 10.356241 32.067692 10.374692 32.150769 10.393017 32.233846 10.411212 32.316923 10.429274 32.400000 10.447200 32.483077 10.464986 32.566154 10.482628 32.649231 10.500125 32.732308 10.517472 32.815385 10.534666 32.898462 10.551704 32.981538 10.568583 33.064615 10.585299 33.147692 10.601849 33.230769 10.618230 33.313846 10.634438 33.396923 10.650470 33.480000 10.666323 33.563077 10.681994 33.646154 10.697479 33.729231 10.712774 33.812308 10.727878 33.895385 10.742786 33.978462 10.757495 34.061538 10.772002 34.144615 10.786303 34.227692 10.800396 34.310769 10.814276 34.393846 10.827941 34.476923 10.841388 34.560000 10.854612 34.643077 10.867612 34.726154 10.880382 34.809231 10.892921 34.892308 10.905225 34.975385 10.917291 35.058462 10.929115 35.141538 10.940694 35.224615 10.952025 35.307692 10.963104 35.390769 10.973928 35.473846 10.984494 35.556923 10.994799 35.640000 11.004839 35.723077 11.014611 35.806154 11.024112 35.889231 11.033338 35.972308 11.042286 36.055385 11.050954 36.138462 11.059336 36.221538 11.067431 36.304615 11.075235 36.387692 11.082745 36.470769 11.089957 36.553846 11.096868 36.636923 11.103475 36.720000 11.109775 36.803077 11.115763 36.886154 11.121438 36.969231 11.126795 37.052308 11.131832 37.135385 11.136545 37.218462 11.140931 37.301538 11.144986 37.384615 11.148707 37.467692 11.152091 37.550769 11.155135 37.633846 11.157835 37.716923 11.160188 37.800000 11.162191 37.883077 11.163841 37.966154 11.165133 38.049231 11.166066 38.132308 11.166635 38.215385 11.166837 38.298462 11.166669 38.381538 11.166128 38.464615 11.165211 38.547692 11.163914 38.630769 11.162233 38.713846 11.160166 38.796923 11.157710 38.880000 11.154860 38.963077 11.151614 39.046154 11.147968 39.129231 11.143920 39.212308 11.139465 39.295385 11.134601 39.378462 11.129324 39.461538 11.123631 39.544615 11.117519 39.627692 11.110984 39.710769 11.104023 39.793846 11.096633 39.876923 11.088811 39.960000 11.080553 40.043077 11.071855 40.126154 11.062715 40.209231 11.053130 40.292308 11.043096 40.375385 11.032609 40.458462 11.021667 40.541538 11.010266 40.624615 10.998403 40.707692 10.986074 40.790769 10.973277 40.873846 10.960008 40.956923 10.946264 41.040000 10.932041 41.123077 10.917336 41.206154 10.902146 41.289231 10.886468 41.372308 10.870298 41.455385 10.853632 41.538462 10.836469 41.621538 10.818804 41.704615 10.800634 41.787692 10.781956 41.870769 10.762766 41.953846 10.743062 42.036923 10.722840 42.120000 10.702096 42.203077 10.680828 42.286154 10.659032 42.369231 10.636704 42.452308 10.613842 42.535385 10.590443 42.618462 10.566502 42.701538 10.542017 42.784615 10.516984 42.867692 10.491400 42.950769 10.465263 43.033846 10.438567 43.116923 10.411311 43.200000 10.383490 43.283077 10.355103 43.366154 10.326144 43.449231 10.296612 43.532308 10.266502 43.615385 10.235812 43.698462 10.204539 43.781538 10.172689 43.864615 10.140268 43.947692 10.107281 44.030769 10.073736 44.113846 10.039639 44.196923 10.004995 44.280000 9.969811 44.363077 9.934093 44.446154 9.897848 44.529231 9.861082 44.612308 9.823802 44.695385 9.786012 44.778462 9.747720 44.861538 9.708933 44.944615 9.669655 45.027692 9.629894 45.110769 9.589655 45.193846 9.548946 45.276923 9.507772 45.360000 9.466140 45.443077 9.424055 45.526154 9.381525 45.609231 9.338555 45.692308 9.295152 45.775385 9.251321 45.858462 9.207070 45.941538 9.162404 46.024615 9.117330 46.107692 9.071854 46.190769 9.025983 46.273846 8.979722 46.356923 8.933077 46.440000 8.886056 46.523077 8.838665 46.606154 8.790909 46.689231 8.742794 46.772308 8.694329 46.855385 8.645517 46.938462 8.596366 47.021538 8.546883 47.104615 8.497072 47.187692 8.446941 47.270769 8.396496 47.353846 8.345743 47.436923 8.294689 47.520000 8.243339 47.603077 8.191700 47.686154 8.139778 47.769231 8.087580 47.852308 8.035111 47.935385 7.982378 48.018462 7.929388 48.101538 7.876146 48.184615 7.822659 48.267692 7.768933 48.350769 7.714975 48.433846 7.660790 48.516923 7.606385 48.600000 7.551766 48.683077 7.496939 48.766154 7.441912 48.849231 7.386689 48.932308 7.331277 49.015385 7.275684 49.098462 7.219913 49.181538 7.163973 49.264615 7.107870 49.347692 7.051608 49.430769 6.995196 49.513846 6.938639 49.596923 6.881943 49.680000 6.825116 49.763077 6.768162 49.846154 6.711088 49.929231 6.653901 50.012308 6.596606 50.095385 6.539211 50.178462 6.481721 50.261538 6.424142 50.344615 6.366482 50.427692 6.308745 50.510769 6.250939 50.593846 6.193070 50.676923 6.135143 50.760000 6.077166 50.843077 6.019145 50.926154 5.961085 51.009231 5.902993 51.092308 5.844875 51.175385 5.786738 51.258462 5.728588 51.341538 5.670431 51.424615 5.612274 51.507692 5.554122 51.590769 5.495982 51.673846 5.437860 51.756923 5.379763 51.840000 5.321697 51.923077 5.263667 52.006154 5.205681 52.089231 5.147744 52.172308 5.089864 52.255385 5.032045 52.338462 4.974295 52.421538 4.916619 52.504615 4.859025 52.587692 4.801517 52.670769 4.744103 52.753846 4.686789 52.836923 4.629581 52.920000 4.572485 53.003077 4.515507 53.086154 4.458655 53.169231 4.401933 53.252308 4.345349 53.335385 4.288909 53.418462 4.232618 53.501538 4.176484 53.584615 4.120512 53.667692 4.064709 53.750769 4.009081 53.833846 3.953634 53.916923 3.898375 54.000000 3.843309 54.083077 3.788444 54.166154 3.733785 54.249231 3.679338 54.332308 3.625111 54.415385 3.571108 54.498462 3.517338 54.581538 3.463804 54.664615 3.410515 54.747692 3.357476 54.830769 3.304694 54.913846 3.252174 54.996923 3.199924 55.080000 3.147948 55.163077 3.096255 55.246154 3.044849 55.329231 2.993738 55.412308 2.942926 55.495385 2.892422 55.578462 2.842231 55.661538 2.792358 55.744615 2.742812 55.827692 2.693597 55.910769 2.644720 55.993846 2.596187 56.076923 2.548005 56.160000 2.500180 56.243077 2.452719 56.326154 2.405626 56.409231 2.358909 56.492308 2.312574 56.575385 2.266628 56.658462 2.221076 56.741538 2.175924 56.824615 2.131180 56.907692 2.086849 56.990769 2.042938 57.073846 1.999452 57.156923 1.956399 57.240000 1.913784 57.323077 1.871614 57.406154 1.829894 57.489231 1.788632 57.572308 1.747833 57.655385 1.707505 57.738462 1.667652 57.821538 1.628281 57.904615 1.589399 57.987692 1.551012 58.070769 1.513126 58.153846 1.475747 58.236923 1.438882 58.320000 1.402537 58.403077 1.366718 58.486154 1.331432 58.569231 1.296684 58.652308 1.262482 58.735385 1.228830 58.818462 1.195737 58.901538 1.163207 58.984615 1.131247 59.067692 1.099863 59.150769 1.069062 59.233846 1.038851 59.316923 1.009234 59.400000 0.980219 59.483077 0.951811 59.566154 0.924018 59.649231 0.896844 59.732308 0.870298 59.815385 0.844384 59.898462 0.819109 59.981538 0.794479 60.064615 0.770502 60.147692 0.747182 60.230769 0.724526 60.313846 0.702541 60.396923 0.681232 60.480000 0.660606 60.563077 0.640670 60.646154 0.621429 60.729231 0.602890 60.812308 0.585059 60.895385 0.567943 60.978462 0.551547 61.061538 0.535878 61.144615 0.520942 61.227692 0.506745 61.310769 0.493295 61.393846 0.480596 61.476923 0.468655 61.560000 0.457479 61.643077 0.447074 61.726154 0.437446 61.809231 0.428601 61.892308 0.420546 61.975385 0.413286 62.058462 0.406829 62.141538 0.401180 62.224615 0.396346 62.307692 0.392333 62.390769 0.389147 62.473846 0.386795 62.556923 0.385282 62.640000 0.384615 62.723077 0.384801 62.806154 0.385845 62.889231 0.387755 62.972308 0.390535 63.055385 0.394193 63.138462 0.398734 63.221538 0.404165 63.304615 0.410493 63.387692 0.417723 63.470769 0.425862 63.553846 0.434915 63.636923 0.444890 63.720000 0.455793 63.803077 0.467630 63.886154 0.480406 63.969231 0.494129 64.052308 0.508805 64.135385 0.524440 64.218462 0.541040 64.301538 0.558611 64.384615 0.577160 64.467692 0.596691 64.550769 0.617199 64.633846 0.638677 64.716923 0.661118 64.800000 0.684515 64.883077 0.708862 64.966154 0.734151 65.049231 0.760375 65.132308 0.787527 65.215385 0.815601 65.298462 0.844589 65.381538 0.874485 65.464615 0.905281 65.547692 0.936971 65.630769 0.969547 65.713846 1.003003 65.796923 1.037332 65.880000 1.072526 65.963077 1.108579 66.046154 1.145484 66.129231 1.183234 66.212308 1.221821 66.295385 1.261239 66.378462 1.301482 66.461538 1.342541 66.544615 1.384410 66.627692 1.427083 66.710769 1.470551 66.793846 1.514809 66.876923 1.559849 66.960000 1.605664 67.043077 1.652247 67.126154 1.699591 67.209231 1.747690 67.292308 1.796537 67.375385 1.846123 67.458462 1.896443 67.541538 1.947490 67.624615 1.999256 67.707692 2.051735 67.790769 2.104920 67.873846 2.158803 67.956923 2.213377 68.040000 2.268637 68.123077 2.324574 68.206154 2.381182 68.289231 2.438454 68.372308 2.496383 68.455385 2.554962 68.538462 2.614183 68.621538 2.674041 68.704615 2.734528 68.787692 2.795637 68.870769 2.857361 68.953846 2.919693 69.036923 2.982627 69.120000 3.046154 69.203077 3.110269 69.286154 3.174965 69.369231 3.240234 69.452308 3.306069 69.535385 3.372463 69.618462 3.439410 69.701538 3.506903 69.784615 3.574934 69.867692 3.643497 69.950769 3.712585 70.033846 3.782190 70.116923 3.852306 70.200000 3.922925 70.283077 3.994042 70.366154 4.065648 70.449231 4.137738 70.532308 4.210303 70.615385 4.283337 70.698462 4.356833 70.781538 4.430785 70.864615 4.505184 70.947692 4.580025 71.030769 4.655299 71.113846 4.731001 71.196923 4.807123 71.280000 4.883659 71.363077 4.960601 71.446154 5.037942 71.529231 5.115675 71.612308 5.193794 71.695385 5.272292 71.778462 5.351161 71.861538 5.430395 71.944615 5.509986 72.027692 5.589928 72.110769 5.670214 72.193846 5.750836 72.276923 5.831788 72.360000 5.913063 72.443077 5.994654 72.526154 6.076554 72.609231 6.158755 72.692308 6.241252 72.775385 6.324037 72.858462 6.407103 72.941538 6.490442 73.024615 6.574049 73.107692 6.657917 73.190769 6.742037 73.273846 6.826404 73.356923 6.911009 73.440000 6.995848 73.523077 7.080911 73.606154 7.166193 73.689231 7.251687 73.772308 7.337385 73.855385 7.423280 73.938462 7.509367 74.021538 7.595636 74.104615 7.682083 74.187692 7.768699 74.270769 7.855478 74.353846 7.942412 74.436923 8.029496 74.520000 8.116721 74.603077 8.204081 74.686154 8.291569 74.769231 8.379179 74.852308 8.466902 74.935385 8.554732 75.018462 8.642662 75.101538 8.730686 75.184615 8.818795 75.267692 8.906984 75.350769 8.995245 75.433846 9.083572 75.516923 9.171956 75.600000 9.260392 75.683077 9.348873 75.766154 9.437391 75.849231 9.525939 75.932308 9.614511 76.015385 9.703100 76.098462 9.791698 76.181538 9.880299 76.264615 9.968896 76.347692 10.057481 76.430769 10.146048 76.513846 10.234590 76.596923 10.323100 76.680000 10.411570 76.763077 10.499995 76.846154 10.588366 76.929231 10.676678 77.012308 10.764923 77.095385 10.853093 77.178462 10.941183 77.261538 11.029185 77.344615 11.117093 77.427692 11.204898 77.510769 11.292595 77.593846 11.380176 77.676923 11.467635 77.760000 11.554964 77.843077 11.642156 77.926154 11.729205 78.009231 11.816104 78.092308 11.902845 78.175385 11.989421 78.258462 12.075827 78.341538 12.162054 78.424615 12.248095 78.507692 12.333945 78.590769 12.419595 78.673846 12.505040 78.756923 12.590271 78.840000 12.675282 78.923077 12.760066 79.006154 12.844616 79.089231 12.928925 79.172308 13.012986 79.255385 13.096793 79.338462 13.180337 79.421538 13.263613 79.504615 13.346613 79.587692 13.429330 79.670769 13.511758 79.753846 13.593889 79.836923 13.675716 79.920000 13.757233 80.003077 13.838432 80.086154 13.919307 80.169231 13.999851 80.252308 14.080056 80.335385 14.159916 80.418462 14.239423 80.501538 14.318572 80.584615 14.397354 80.667692 14.475762 80.750769 14.553791 80.833846 14.631433 80.916923 14.708680 81.000000 14.785527 81.083077 14.861965 81.166154 14.937989 81.249231 15.013590 81.332308 15.088763 81.415385 15.163500 81.498462 15.237794 81.581538 15.311639 81.664615 15.385027 81.747692 15.457951 81.830769 15.530404 81.913846 15.602380 81.996923 15.673872 82.080000 15.744871 82.163077 15.815373 82.246154 15.885369 82.329231 15.954852 82.412308 16.023817 82.495385 16.092255 82.578462 16.160159 82.661538 16.227524 82.744615 16.294341 82.827692 16.360604 82.910769 16.426306 82.993846 16.491440 83.076923 16.555999 83.160000 16.619976 83.243077 16.683364 83.326154 16.746156 83.409231 16.808346 83.492308 16.869925 83.575385 16.930888 83.658462 16.991227 83.741538 17.050935 83.824615 17.110005 83.907692 17.168431 83.990769 17.226206 84.073846 17.283322 84.156923 17.339772 84.240000 17.395550 84.323077 17.450648 84.406154 17.505060 84.489231 17.558779 84.572308 17.611797 84.655385 17.664109 84.738462 17.715706 84.821538 17.766581 84.904615 17.816729 84.987692 17.866141 85.070769 17.914812 85.153846 17.962733 85.236923 18.009900 85.320000 18.056315 85.403077 18.101979 85.486154 18.146896 85.569231 18.191070 85.652308 18.234502 85.735385 18.277197 85.818462 18.319157 85.901538 18.360385 85.984615 18.400884 86.067692 18.440658 86.150769 18.479709 86.233846 18.518040 86.316923 18.555654 86.400000 18.592555 86.483077 18.628746 86.566154 18.664228 86.649231 18.699006 86.732308 18.733083 86.815385 18.766461 86.898462 18.799143 86.981538 18.831133 87.064615 18.862434 87.147692 18.893048 87.230769 18.922979 87.313846 18.952229 87.396923 18.980802 87.480000 19.008701 87.563077 19.035928 87.646154 19.062487 87.729231 19.088381 87.812308 19.113613 87.895385 19.138185 87.978462 19.162101 88.061538 19.185364 88.144615 19.207977 88.227692 19.229943 88.310769 19.251264 88.393846 19.271945 88.476923 19.291987 88.560000 19.311395 88.643077 19.330170 88.726154 19.348317 88.809231 19.365837 88.892308 19.382735 88.975385 19.399013 89.058462 19.414674 89.141538 19.429721 89.224615 19.444157 89.307692 19.457985 89.390769 19.471209 89.473846 19.483830 89.556923 19.495853 89.640000 19.507281 89.723077 19.518115 89.806154 19.528360 89.889231 19.538019 89.972308 19.547093 90.055385 19.555588 90.138462 19.563504 90.221538 19.570846 90.304615 19.577617 90.387692 19.583819 90.470769 19.589455 90.553846 19.594529 90.636923 19.599044 90.720000 19.603002 90.803077 19.606407 90.886154 19.609262 90.969231 19.611569 91.052308 19.613332 91.135385 19.614553 91.218462 19.615237 91.301538 19.615385 91.384615 19.615001 91.467692 19.614087 91.550769 19.612648 91.633846 19.610685 91.716923 19.608202 91.800000 19.605203 91.883077 19.601689 91.966154 19.597664 92.049231 19.593131 92.132308 19.588093 92.215385 19.582553 92.298462 19.576514 92.381538 19.569979 92.464615 19.562952 92.547692 19.555434 92.630769 19.547430 92.713846 19.538942 92.796923 19.529973 92.880000 19.520526 92.963077 19.510604 93.046154 19.500211 93.129231 19.489349 93.212308 19.478021 93.295385 19.466231 93.378462 19.453981 93.461538 19.441274 93.544615 19.428114 93.627692 19.414503 93.710769 19.400445 93.793846 19.385942 93.876923 19.370998 93.960000 19.355615 94.043077 19.339797 94.126154 19.323546 94.209231 19.306866 94.292308 19.289760 94.375385 19.272230 94.458462 19.254280 94.541538 19.235912 94.624615 19.217131 94.707692 19.197938 94.790769 19.178337 94.873846 19.158330 94.956923 19.137922 95.040000 19.117114 95.123077 19.095910 95.206154 19.074313 95.289231 19.052326 95.372308 19.029952 95.455385 19.007194 95.538462 18.984055 95.621538 18.960538 95.704615 18.936646 95.787692 18.912382 95.870769 18.887749 95.953846 18.862750 96.036923 18.837388 96.120000 18.811666 96.203077 18.785588 96.286154 18.759156 96.369231 18.732373 96.452308 18.705242 96.535385 18.677767 96.618462 18.649949 96.701538 18.621794 96.784615 18.593302 96.867692 18.564478 96.950769 18.535324 97.033846 18.505844 97.116923 18.476040 97.200000 18.445916 97.283077 18.415474 97.366154 18.384717 97.449231 18.353649 97.532308 18.322273 97.615385 18.290591 97.698462 18.258607 97.781538 18.226324 97.864615 18.193744 97.947692 18.160871 98.030769 18.127707 98.113846 18.094257 98.196923 18.060522 98.280000 18.026505 98.363077 17.992211 98.446154 17.957641 98.529231 17.922800 98.612308 17.887689 98.695385 17.852312 98.778462 17.816672 98.861538 17.780772 98.944615 17.744614 99.027692 17.708203 99.110769 17.671541 99.193846 17.634631 99.276923 17.597476 99.360000 17.560079 99.443077 17.522443 99.526154 17.484571 99.609231 17.446467 99.692308 17.408133 99.775385 17.369571 99.858462 17.330786 99.941538 17.291781 100.024615 17.252557 100.107692 17.213119 100.190769 17.173469 100.273846 17.133611 100.356923 17.093547 100.440000 17.053280 100.523077 17.012814 100.606154 16.972151 100.689231 16.931295 100.772308 16.890248 100.855385 16.849014 100.938462 16.807595 101.021538 16.765995 101.104615 16.724216 101.187692 16.682262 101.270769 16.640136 101.353846 16.597840 101.436923 16.555378 101.520000 16.512753 101.603077 16.469967 101.686154 16.427024 101.769231 16.383927 101.852308 16.340679 101.935385 16.297283 102.018462 16.253741 102.101538 16.210057 102.184615 16.166235 102.267692 16.122276 102.350769 16.078184 102.433846 16.033962 102.516923 15.989613 102.600000 15.945140 102.683077 15.900546 102.766154 15.855834 102.849231 15.811007 102.932308 15.766069 103.015385 15.721021 103.098462 15.675868 103.181538 15.630612 103.264615 15.585256 103.347692 15.539803 103.430769 15.494257 103.513846 15.448620 103.596923 15.402895 103.680000 15.357085 103.763077 15.311194 103.846154 15.265224 103.929231 15.219179 104.012308 15.173061 104.095385 15.126873 104.178462 15.080619 104.261538 15.034302 104.344615 14.987924 104.427692 14.941488 104.510769 14.894999 104.593846 14.848457 104.676923 14.801868 104.760000 14.755232 104.843077 14.708555 104.926154 14.661838 105.009231 14.615085 105.092308 14.568299 105.175385 14.521483 105.258462 14.474639 105.341538 14.427771 105.424615 14.380882 105.507692 14.333975 105.590769 14.287053 105.673846 14.240118 105.756923 14.193175 105.840000 14.146225 105.923077 14.099273" class="line reactive nofill" /></g></g><g class="titles" /><g transform="translate(82, 10)" class="plot overlay"><g class="series serie-0 color-0" /></g><g transform="translate(82, 10)" class="plot text-overlay"><g class="series serie-0 color-0" /></g><g transform="translate(82, 10)" class="plot tooltip-overlay"><g transform="translate(0 0)" style="opacity: 0" class="tooltip"><rect rx="0" ry="0" width="0" height="0" class="tooltip-box" /><g class="text" /></g></g></g></svg>