<?xml version='1.0' encoding='utf-8'?>
<svg xmlns="http://www.w3.org/2000/svg" id="chart-0f5d28b5-5cc9-4cd3-8d13-fb050e510acc" class="pygal-chart pygal-sparkline" viewBox="0 0 200 50" width="200" height="50"><!--Generated with pygal 3.0.4 (etree) ©Kozea 2012-2016 on 2024-05-26--><!--http://pygal.org--><!--http://github.com/Kozea/pygal--><defs><style type="text/css">#chart-0f5d28b5-5cc9-4cd3-8d13-fb050e510acc{-webkit-user-select:none;-webkit-font-smoothing:antialiased;font-family:Consolas,"Liberation Mono",Menlo,Courier,monospace}#chart-0f5d28b5-5cc9-4cd3-8d13-fb050e510acc .title{font-family:Consolas,"Liberation Mono",Menlo,Courier,monospace;font-size:16px}#chart-0f5d28b5-5cc9-4cd3-8d13-fb050e510acc .legends .legend text{font-family:Consolas,"Liberation Mono",Menlo,Courier,monospace;font-size:14px}#chart-0f5d28b5-5cc9-4cd3-8d13-fb050e510acc .axis text{font-family:Consolas,"Liberation Mono",Menlo,Courier,monospace;font-size:10px}#chart-0f5d28b5-5cc9-4cd3-8d13-fb050e510acc .axis text.major{font-family:Consolas,"Liberation Mono",Menlo,Courier,monospace;font-size:10px}#chart-0f5d28b5-5cc9-4cd3-8d13-fb050e510acc .text-overlay text.value{font-family:Consolas,"Liberation Mono",Menlo,Courier,monospace;font-size:16px}#chart-0f5d28b5-5cc9-4cd3-8d13-fb050e510acc .text-overlay text.label{font-family:Consolas,"Liberation Mono",Menlo,Courier,monospace;font-size:10px}#chart-0f5d28b5-5cc9-4cd3-8d13-fb050e510acc .tooltip{font-family:Consolas,"Liberation Mono",Menlo,Courier,monospace;font-size:14px}#chart-0f5d28b5-5cc9-4cd3-8d13-fb050e510acc text.no_data{font-family:Consolas,"Liberation Mono",Menlo,Courier,monospace;font-size:64px}
#chart-0f5d28b5-5cc9-4cd3-8d13-fb050e510acc{background-color:rgba(249,249,249,1)}#chart-0f5d28b5-5cc9-4cd3-8d13-fb050e510acc path,#chart-0f5d28b5-5cc9-4cd3-8d13-fb050e510acc line,#chart-0f5d28b5-5cc9-4cd3-8d13-fb050e510acc rect,#chart-0f5d28b5-5cc9-4cd3-8d13-fb050e510acc circle{-webkit-transition:150ms;-moz-transition:150ms;transition:150ms}#chart-0f5d28b5-5cc9-4cd3-8d13-fb050e510acc .graph &gt; .background{fill:rgba(249,249,249,1)}#chart-0f5d28b5-5cc9-4cd3-8d13-fb050e510acc .plot &gt; .background{fill:rgba(255,255,255,1)}#chart-0f5d28b5-5cc9-4cd3-8d13-fb050e510acc .graph{fill:rgba(0,0,0,.87)}#chart-0f5d28b5-5cc9-4cd3-8d13-fb050e510acc text.no_data{fill:rgba(0,0,0,1)}#chart-0f5d28b5-5cc9-4cd3-8d13-fb050e510acc .title{fill:rgba(0,0,0,1)}#chart-0f5d28b5-5cc9-4cd3-8d13-fb050e510acc .legends .legend text{fill:rgba(0,0,0,.87)}#chart-0f5d28b5-5cc9-4cd3-8d13-fb050e510acc .legends .legend:hover text{fill:rgba(0,0,0,1)}#chart-0f5d28b5-5cc9-4cd3-8d13-fb050e510acc .axis .line{stroke:rgba(0,0,0,1)}#chart-0f5d28b5-5cc9-4cd3-8d13-fb050e510acc .axis .guide.line{stroke:rgba(0,0,0,.54)}#chart-0f5d28b5-5cc9-4cd3-8d13-fb050e510acc .axis .major.line{stroke:rgba(0,0,0,.87)}#chart-0f5d28b5-5cc9-4cd3-8d13-fb050e510acc .axis text.major{fill:rgba(0,0,0,1)}#chart-0f5d28b5-5cc9-4cd3-8d13-fb050e510acc .axis.y .guides:hover .guide.line,#chart-0f5d28b5-5cc9-4cd3-8d13-fb050e510acc .line-graph .axis.x .guides:hover .guide.line,#chart-0f5d28b5-5cc9-4cd3-8d13-fb050e510acc .stackedline-graph .axis.x .guides:hover .guide.line,#chart-0f5d28b5-5cc9-4cd3-8d13-fb050e510acc .xy-graph .axis.x .guides:hover .guide.line{stroke:rgba(0,0,0,1)}#chart-0f5d28b5-5cc9-4cd3-8d13-fb050e510acc .axis .guides:hover text{fill:rgba(0,0,0,1)}#chart-0f5d28b5-5cc9-4cd3-8d13-fb050e510acc .reactive{fill-opacity:.7;stroke-opacity:.8;stroke-width:1}#chart-0f5d28b5-5cc9-4cd3-8d13-fb050e510acc .ci{stroke:rgba(0,0,0,.87)}#chart-0f5d28b5-5cc9-4cd3-8d13-fb050e510acc .reactive.active,#chart-0f5d28b5-5cc9-4cd3-8d13-fb050e510acc .active .reactive{fill-opacity:.8;stroke-opacity:.9;stroke-width:4}#chart-0f5d28b5-5cc9-4cd3-8d13-fb050e510acc .ci .reactive.active{stroke-width:1.5}#chart-0f5d28b5-5cc9-4cd3-8d13-fb050e510acc .series text{fill:rgba(0,0,0,1)}#chart-0f5d28b5-5cc9-4cd3-8d13-fb050e510acc .tooltip rect{fill:rgba(255,255,255,1);stroke:rgba(0,0,0,1);-webkit-transition:opacity 150ms;-moz-transition:opacity 150ms;transition:opacity 150ms}#chart-0f5d28b5-5cc9-4cd3-8d13-fb050e510acc .tooltip .label{fill:rgba(0,0,0,.87)}#chart-0f5d28b5-5cc9-4cd3-8d13-fb050e510acc .tooltip .label{fill:rgba(0,0,0,.87)}#chart-0f5d28b5-5cc9-4cd3-8d13-fb050e510acc .tooltip .legend{font-size:.8em;fill:rgba(0,0,0,.54)}#chart-0f5d28b5-5cc9-4cd3-8d13-fb050e510acc .tooltip .x_label{font-size:.6em;fill:rgba(0,0,0,1)}#chart-0f5d28b5-5cc9-4cd3-8d13-fb050e510acc .tooltip .xlink{font-size:.5em;text-decoration:underline}#chart-0f5d28b5-5cc9-4cd3-8d13-fb050e510acc .tooltip .value{font-size:1.5em}#chart-0f5d28b5-5cc9-4cd3-8d13-fb050e510acc .bound{font-size:.5em}#chart-0f5d28b5-5cc9-4cd3-8d13-fb050e510acc .max-value{font-size:.75em;fill:rgba(0,0,0,.54)}#chart-0f5d28b5-5cc9-4cd3-8d13-fb050e510acc .map-element{fill:rgba(255,255,255,1);stroke:rgba(0,0,0,.54) !important}#chart-0f5d28b5-5cc9-4cd3-8d13-fb050e510acc .map-element .reactive{fill-opacity:inherit;stroke-opacity:inherit}#chart-0f5d28b5-5cc9-4cd3-8d13-fb050e510acc .color-0,#chart-0f5d28b5-5cc9-4cd3-8d13-fb050e510acc .color-0 a:visited{stroke:#F44336;fill:#F44336}#chart-0f5d28b5-5cc9-4cd3-8d13-fb050e510acc .text-overlay .color-0 text{fill:black}
#chart-0f5d28b5-5cc9-4cd3-8d13-fb050e510acc text.no_data{text-anchor:middle}#chart-0f5d28b5-5cc9-4cd3-8d13-fb050e510acc .guide.line{fill:none}#chart-0f5d28b5-5cc9-4cd3-8d13-fb050e510acc .centered{text-anchor:middle}#chart-0f5d28b5-5cc9-4cd3-8d13-fb050e510acc .title{text-anchor:middle}#chart-0f5d28b5-5cc9-4cd3-8d13-fb050e510acc .legends .legend text{fill-opacity:1}#chart-0f5d28b5-5cc9-4cd3-8d13-fb050e510acc .axis.x text{text-anchor:middle}#chart-0f5d28b5-5cc9-4cd3-8d13-fb050e510acc .axis.x:not(.web) text[transform]{text-anchor:start}#chart-0f5d28b5-5cc9-4cd3-8d13-fb050e510acc .axis.x:not(.web) text[transform].backwards{text-anchor:end}#chart-0f5d28b5-5cc9-4cd3-8d13-fb050e510acc .axis.y text{text-anchor:end}#chart-0f5d28b5-5cc9-4cd3-8d13-fb050e510acc .axis.y text[transform].backwards{text-anchor:start}#chart-0f5d28b5-5cc9-4cd3-8d13-fb050e510acc .axis.y2 text{text-anchor:start}#chart-0f5d28b5-5cc9-4cd3-8d13-fb050e510acc .axis.y2 text[transform].backwards{text-anchor:end}#chart-0f5d28b5-5cc9-4cd3-8d13-fb050e510acc .axis .guide.line{stroke-dasharray:4,4;stroke:black}#chart-0f5d28b5-5cc9-4cd3-8d13-fb050e510acc .axis .major.guide.line{stroke-dasharray:6,6;stroke:black}#chart-0f5d28b5-5cc9-4cd3-8d13-fb050e510acc .horizontal .axis.y .guide.line,#chart-0f5d28b5-5cc9-4cd3-8d13-fb050e510acc .horizontal .axis.y2 .guide.line,#chart-0f5d28b5-5cc9-4cd3-8d13-fb050e510acc .vertical .axis.x .guide.line{opacity:0}#chart-0f5d28b5-5cc9-4cd3-8d13-fb050e510acc .horizontal .axis.always_show .guide.line,#chart-0f5d28b5-5cc9-4cd3-8d13-fb050e510acc .vertical .axis.always_show .guide.line{opacity:1 !important}#chart-0f5d28b5-5cc9-4cd3-8d13-fb050e510acc .axis.y .guides:hover .guide.line,#chart-0f5d28b5-5cc9-4cd3-8d13-fb050e510acc .axis.y2 .guides:hover .guide.line,#chart-0f5d28b5-5cc9-4cd3-8d13-fb050e510acc .axis.x .guides:hover .guide.line{opacity:1}#chart-0f5d28b5-5cc9-4cd3-8d13-fb050e510acc .axis .guides:hover text{opacity:1}#chart-0f5d28b5-5cc9-4cd3-8d13-fb050e510acc .nofill{fill:none}#chart-0f5d28b5-5cc9-4cd3-8d13-fb050e510acc .subtle-fill{fill-opacity:.2}#chart-0f5d28b5-5cc9-4cd3-8d13-fb050e510acc .dot{stroke-width:1px;fill-opacity:1;stroke-opacity:1}#chart-0f5d28b5-5cc9-4cd3-8d13-fb050e510acc .dot.active{stroke-width:5px}#chart-0f5d28b5-5cc9-4cd3-8d13-fb050e510acc .dot.negative{fill:transparent}#chart-0f5d28b5-5cc9-4cd3-8d13-fb050e510acc text,#chart-0f5d28b5-5cc9-4cd3-8d13-fb050e510acc tspan{stroke:none !important}#chart-0f5d28b5-5cc9-4cd3-8d13-fb050e510acc .series text.active{opacity:1}#chart-0f5d28b5-5cc9-4cd3-8d13-fb050e510acc .tooltip rect{fill-opacity:.95;stroke-width:.5}#chart-0f5d28b5-5cc9-4cd3-8d13-fb050e510acc .tooltip text{fill-opacity:1}#chart-0f5d28b5-5cc9-4cd3-8d13-fb050e510acc .showable{visibility:hidden}#chart-0f5d28b5-5cc9-4cd3-8d13-fb050e510acc .showable.shown{visibility:visible}#chart-0f5d28b5-5cc9-4cd3-8d13-fb050e510acc .gauge-background{fill:rgba(229,229,229,1);stroke:none}#chart-0f5d28b5-5cc9-4cd3-8d13-fb050e510acc .bg-lines{stroke:rgba(249,249,249,1);stroke-width:2px}</style><script type="text/javascript">window.pygal = window.pygal || {};window.pygal.config = window.pygal.config || {};window.pygal.config['0f5d28b5-5cc9-4cd3-8d13-fb050e510acc'] = {"allow_interruptions": false, "box_mode": "extremes", "classes": ["pygal-chart", "pygal-sparkline"], "css": ["file://style.css", "file://graph.css"], "defs": [], "disable_xml_declaration": false, "dots_size": 2.5, "dynamic_print_values": false, "explicit_size": true, "fill": false, "force_uri_protocol": "https", "formatter": null, "half_pie": false, "height": 50, "include_x_axis": false, "inner_radius": 0, "interpolate": "cubic", "interpolation_parameters": {}, "interpolation_precision": 250, "inverse_y_axis": false, "js": [], "legend_at_bottom": false, "legend_at_bottom_columns": null, "legend_box_size": 12, "logarithmic": false, "margin": 10, "margin_bottom": null, "margin_left": null, "margin_right": null, "margin_top": null, "max_scale": 2, "min_scale": 1, "missing_value_fill_truncation": "x", "no_data_text": "", "no_prefix": false, "order_min": null, "pretty_print": false, "print_labels": false, "print_values": false, "print_values_position": "center", "print_zeroes": true, "range": null, "rounded_bars": null, "secondary_range": null, "show_dots": false, "show_legend": false, "show_minor_x_labels": true, "show_minor_y_labels": true, "show_only_major_dots": false, "show_x_guides": false, "show_x_labels": false, "show_y_guides": true, "show_y_labels": true, "spacing": 0, "stack_from_top": false, "strict": false, "stroke": true, "stroke_style": null, "style": {"background": "rgba(249, 249, 249, 1)", "ci_colors": [], "colors": ["#F44336", "#3F51B5", "#009688", "#FFC107", "#FF5722", "#9C27B0", "#03A9F4", "#8BC34A", "#FF9800", "#E91E63", "#2196F3", "#4CAF50", "#FFEB3B", "#673AB7", "#00BCD4", "#CDDC39", "#9E9E9E", "#607D8B"], "dot_opacity": "1", "font_family": "Consolas, \"Liberation Mono\", Menlo, Courier, monospace", "foreground": "rgba(0, 0, 0, .87)", "foreground_strong": "rgba(0, 0, 0, 1)", "foreground_subtle": "rgba(0, 0, 0, .54)", "guide_stroke_color": "black", "guide_stroke_dasharray": "4,4", "label_font_family": "Consolas, \"Liberation Mono\", Menlo, Courier, monospace", "label_font_size": 10, "legend_font_family": "Consolas, \"Liberation Mono\", Menlo, Courier, monospace", "legend_font_size": 14, "major_guide_stroke_color": "black", "major_guide_stroke_dasharray": "6,6", "major_label_font_family": "Consolas, \"Liberation Mono\", Menlo, Courier, monospace", "major_label_font_size": 10, "no_data_font_family": "Consolas, \"Liberation Mono\", Menlo, Courier, monospace", "no_data_font_size": 64, "opacity": ".7", "opacity_hover": ".8", "plot_background": "rgba(255, 255, 255, 1)", "stroke_opacity": ".8", "stroke_opacity_hover": ".9", "stroke_width": "1", "stroke_width_hover": "4", "title_font_family": "Consolas, \"Liberation Mono\", Menlo, Courier, monospace", "title_font_size": 16, "tooltip_font_family": "Consolas, \"Liberation Mono\", Menlo, Courier, monospace", "tooltip_font_size": 14, "transition": "150ms", "value_background": "rgba(229, 229, 229, 1)", "value_colors": [], "value_font_family": "Consolas, \"Liberation Mono\", Menlo, Courier, monospace", "value_font_size": 16, "value_label_font_family": "Consolas, \"Liberation Mono\", Menlo, Courier, monospace", "value_label_font_size": 10}, "title": null, "tooltip_border_radius": 0, "tooltip_fancy_mode": true, "truncate_label": null, "truncate_legend": null, "width": 200, "x_label_rotation": 0, "x_labels": ["2024/5", "2024/4", "2024/3"], "x_labels_major": null, "x_labels_major_count": null, "x_labels_major_every": null, "x_title": null, "xrange": null, "y_label_rotation": 0, "y_labels": null, "y_labels_major": null, "y_labels_major_count": null, "y_labels_major_every": null, "y_title": null, "zero": 0, "legends": [""]}</script></defs><title>Pygal</title><g class="graph line-graph vertical"><rect x="0" y="0" width="200" height="50" class="background" /><g transform="translate(22, 10)" class="plot"><rect x="0" y="0" width="168.0" height="30" class="background" /><g class="axis y always_show"><path d="M0.000000 30.000000 h168.000000" class="line" /><g class="guides"><path d="M0.000000 21.020215 h168.000000" class="guide line" /><text x="-5" y="24.520215171940382" class="">8</text><title>8</title></g><g class="guides"><path d="M0.000000 0.576923 h168.000000" class="guide line" /><text x="-5" y="4.076923076923077" class="">16</text><title>16</title></g></g><g class="series serie-0 color-0"><path d="M3.230769 18.464804 L3.553846 18.544021 3.876923 18.623234 4.200000 18.702440 4.523077 18.781635 4.846154 18.860816 5.169231 18.939978 5.492308 19.019118 5.815385 19.098232 6.138462 19.177316 6.461538 19.256368 6.784615 19.335383 7.107692 19.414357 7.430769 19.493287 7.753846 19.572169 8.076923 19.651000 8.400000 19.729776 8.723077 19.808492 9.046154 19.887147 9.369231 19.965734 9.692308 20.044252 10.015385 20.122697 10.338462 20.201064 10.661538 20.279350 10.984615 20.357552 11.307692 20.435665 11.630769 20.513686 11.953846 20.591612 12.276923 20.669438 12.600000 20.747161 12.923077 20.824777 13.246154 20.902283 13.569231 20.979675 13.892308 21.056950 14.215385 21.134102 14.538462 21.211130 14.861538 21.288029 15.184615 21.364795 15.507692 21.441425 15.830769 21.517916 16.153846 21.594263 16.476923 21.670463 16.800000 21.746511 17.123077 21.822406 17.446154 21.898142 17.769231 21.973716 18.092308 22.049124 18.415385 22.124364 18.738462 22.199430 19.061538 22.274320 19.384615 22.349029 19.707692 22.423555 20.030769 22.497892 20.353846 22.572039 20.676923 22.645990 21.000000 22.719743 21.323077 22.793293 21.646154 22.866637 21.969231 22.939772 22.292308 23.012693 22.615385 23.085397 22.938462 23.157880 23.261538 23.230138 23.584615 23.302169 23.907692 23.373968 24.230769 23.445531 24.553846 23.516855 24.876923 23.587936 25.200000 23.658770 25.523077 23.729355 25.846154 23.799685 26.169231 23.869758 26.492308 23.939570 26.815385 24.009116 27.138462 24.078394 27.461538 24.147400 27.784615 24.216130 28.107692 24.284580 28.430769 24.352747 28.753846 24.420626 29.076923 24.488215 29.400000 24.555510 29.723077 24.622506 30.046154 24.689201 30.369231 24.755591 30.692308 24.821671 31.015385 24.887438 31.338462 24.952889 31.661538 25.018020 31.984615 25.082827 32.307692 25.147307 32.630769 25.211455 32.953846 25.275269 33.276923 25.338744 33.600000 25.401877 33.923077 25.464664 34.246154 25.527101 34.569231 25.589185 34.892308 25.650912 35.215385 25.712278 35.538462 25.773281 35.861538 25.833915 36.184615 25.894177 36.507692 25.954065 36.830769 26.013573 37.153846 26.072698 37.476923 26.131437 37.800000 26.189786 38.123077 26.247742 38.446154 26.305299 38.769231 26.362456 39.092308 26.419208 39.415385 26.475552 39.738462 26.531483 40.061538 26.586999 40.384615 26.642095 40.707692 26.696768 41.030769 26.751014 41.353846 26.804829 41.676923 26.858211 42.000000 26.911154 42.323077 26.963656 42.646154 27.015713 42.969231 27.067320 43.292308 27.118475 43.615385 27.169174 43.938462 27.219413 44.261538 27.269188 44.584615 27.318496 44.907692 27.367333 45.230769 27.415695 45.553846 27.463578 45.876923 27.510980 46.200000 27.557896 46.523077 27.604322 46.846154 27.650256 47.169231 27.695693 47.492308 27.740629 47.815385 27.785061 48.138462 27.828985 48.461538 27.872398 48.784615 27.915295 49.107692 27.957674 49.430769 27.999530 49.753846 28.040860 50.076923 28.081660 50.400000 28.121927 50.723077 28.161656 51.046154 28.200845 51.369231 28.239488 51.692308 28.277584 52.015385 28.315127 52.338462 28.352115 52.661538 28.388544 52.984615 28.424409 53.307692 28.459708 53.630769 28.494436 53.953846 28.528591 54.276923 28.562168 54.600000 28.595163 54.923077 28.627573 55.246154 28.659394 55.569231 28.690623 55.892308 28.721256 56.215385 28.751289 56.538462 28.780719 56.861538 28.809541 57.184615 28.837753 57.507692 28.865350 57.830769 28.892329 58.153846 28.918686 58.476923 28.944417 58.800000 28.969519 59.123077 28.993988 59.446154 29.017821 59.769231 29.041013 60.092308 29.063561 60.415385 29.085462 60.738462 29.106711 61.061538 29.127306 61.384615 29.147242 61.707692 29.166515 62.030769 29.185122 62.353846 29.203060 62.676923 29.220324 63.000000 29.236911 63.323077 29.252817 63.646154 29.268039 63.969231 29.282573 64.292308 29.296415 64.615385 29.309561 64.938462 29.322009 65.261538 29.333753 65.584615 29.344791 65.907692 29.355119 66.230769 29.364733 66.553846 29.373629 66.876923 29.381804 67.200000 29.389254 67.523077 29.395976 67.846154 29.401965 68.169231 29.407218 68.492308 29.411732 68.815385 29.415502 69.138462 29.418526 69.461538 29.420798 69.784615 29.422317 70.107692 29.423077 70.430769 29.423075 70.753846 29.422309 71.076923 29.420773 71.400000 29.418464 71.723077 29.415379 72.046154 29.411514 72.369231 29.406865 72.692308 29.401428 73.015385 29.395201 73.338462 29.388178 73.661538 29.380357 73.984615 29.371734 74.307692 29.362305 74.630769 29.352066 74.953846 29.341014 75.276923 29.329146 75.600000 29.316456 75.923077 29.302943 76.246154 29.288601 76.569231 29.273428 76.892308 29.257419 77.215385 29.240572 77.538462 29.222882 77.861538 29.204345 78.184615 29.184959 78.507692 29.164718 78.830769 29.143621 79.153846 29.121662 79.476923 29.098838 79.800000 29.075146 80.123077 29.050582 80.446154 29.025143 80.769231 28.998823 81.092308 28.971621 81.415385 28.943531 81.738462 28.914552 82.061538 28.884678 82.384615 28.853906 82.707692 28.822232 83.030769 28.789654 83.353846 28.756166 83.676923 28.721766 84.000000 28.686450 84.323077 28.650215 84.646154 28.613063 84.969231 28.574999 85.292308 28.536026 85.615385 28.496148 85.938462 28.455369 86.261538 28.413691 86.584615 28.371119 86.907692 28.327657 87.230769 28.283308 87.553846 28.238076 87.876923 28.191964 88.200000 28.144977 88.523077 28.097117 88.846154 28.048389 89.169231 27.998796 89.492308 27.948342 89.815385 27.897031 90.138462 27.844866 90.461538 27.791851 90.784615 27.737990 91.107692 27.683286 91.430769 27.627743 91.753846 27.571365 92.076923 27.514155 92.400000 27.456117 92.723077 27.397255 93.046154 27.337572 93.369231 27.277072 93.692308 27.215759 94.015385 27.153637 94.338462 27.090708 94.661538 27.026978 94.984615 26.962449 95.307692 26.897125 95.630769 26.831010 95.953846 26.764107 96.276923 26.696421 96.600000 26.627955 96.923077 26.558712 97.246154 26.488696 97.569231 26.417912 97.892308 26.346361 98.215385 26.274050 98.538462 26.200980 98.861538 26.127156 99.184615 26.052581 99.507692 25.977259 99.830769 25.901194 100.153846 25.824389 100.476923 25.746848 100.800000 25.668575 101.123077 25.589573 101.446154 25.509847 101.769231 25.429399 102.092308 25.348233 102.415385 25.266354 102.738462 25.183765 103.061538 25.100469 103.384615 25.016470 103.707692 24.931772 104.030769 24.846378 104.353846 24.760293 104.676923 24.673520 105.000000 24.586062 105.323077 24.497923 105.646154 24.409108 105.969231 24.319619 106.292308 24.229460 106.615385 24.138635 106.938462 24.047148 107.261538 23.955002 107.584615 23.862201 107.907692 23.768749 108.230769 23.674649 108.553846 23.579905 108.876923 23.484521 109.200000 23.388500 109.523077 23.291847 109.846154 23.194564 110.169231 23.096655 110.492308 22.998125 110.815385 22.898976 111.138462 22.799213 111.461538 22.698839 111.784615 22.597858 112.107692 22.496274 112.430769 22.394089 112.753846 22.291309 113.076923 22.187936 113.400000 22.083974 113.723077 21.979428 114.046154 21.874299 114.369231 21.768593 114.692308 21.662313 115.015385 21.555463 115.338462 21.448046 115.661538 21.340066 115.984615 21.231527 116.307692 21.122432 116.630769 21.012785 116.953846 20.902589 117.276923 20.791849 117.600000 20.680569 117.923077 20.568751 118.246154 20.456399 118.569231 20.343517 118.892308 20.230110 119.215385 20.116179 119.538462 20.001730 119.861538 19.886766 120.184615 19.771290 120.507692 19.655307 120.830769 19.538819 121.153846 19.421831 121.476923 19.304346 121.800000 19.186368 122.123077 19.067900 122.446154 18.948947 122.769231 18.829512 123.092308 18.709598 123.415385 18.589210 123.738462 18.468351 124.061538 18.347024 124.384615 18.225234 124.707692 18.102984 125.030769 17.980277 125.353846 17.857118 125.676923 17.733510 126.000000 17.609456 126.323077 17.484961 126.646154 17.360029 126.969231 17.234661 127.292308 17.108864 127.615385 16.982639 127.938462 16.855992 128.261538 16.728925 128.584615 16.601442 128.907692 16.473547 129.230769 16.345243 129.553846 16.216535 129.876923 16.087425 130.200000 15.957919 130.523077 15.828018 130.846154 15.697727 131.169231 15.567050 131.492308 15.435991 131.815385 15.304552 132.138462 15.172738 132.461538 15.040552 132.784615 14.907999 133.107692 14.775081 133.430769 14.641802 133.753846 14.508166 134.076923 14.374178 134.400000 14.239839 134.723077 14.105155 135.046154 13.970128 135.369231 13.834763 135.692308 13.699063 136.015385 13.563032 136.338462 13.426674 136.661538 13.289991 136.984615 13.152989 137.307692 13.015670 137.630769 12.878038 137.953846 12.740097 138.276923 12.601851 138.600000 12.463303 138.923077 12.324456 139.246154 12.185316 139.569231 12.045885 139.892308 11.906166 140.215385 11.766165 140.538462 11.625884 140.861538 11.485326 141.184615 11.344497 141.507692 11.203399 141.830769 11.062036 142.153846 10.920411 142.476923 10.778529 142.800000 10.636393 143.123077 10.494007 143.446154 10.351375 143.769231 10.208499 144.092308 10.065384 144.415385 9.922034 144.738462 9.778452 145.061538 9.634642 145.384615 9.490607 145.707692 9.346352 146.030769 9.201879 146.353846 9.057193 146.676923 8.912298 147.000000 8.767196 147.323077 8.621892 147.646154 8.476389 147.969231 8.330691 148.292308 8.184802 148.615385 8.038725 148.938462 7.892464 149.261538 7.746023 149.584615 7.599405 149.907692 7.452614 150.230769 7.305654 150.553846 7.158528 150.876923 7.011241 151.200000 6.863795 151.523077 6.716194 151.846154 6.568443 152.169231 6.420545 152.492308 6.272503 152.815385 6.124321 153.138462 5.976003 153.461538 5.827553 153.784615 5.678973 154.107692 5.530269 154.430769 5.381443 154.753846 5.232500 155.076923 5.083442 155.400000 4.934274 155.723077 4.785000 156.046154 4.635622 156.369231 4.486145 156.692308 4.336572 157.015385 4.186908 157.338462 4.037154 157.661538 3.887317 157.984615 3.737398 158.307692 3.587402 158.630769 3.437333 158.953846 3.287193 159.276923 3.136988 159.600000 2.986719 159.923077 2.836392 160.246154 2.686010 160.569231 2.535576 160.892308 2.385095 161.215385 2.234569 161.538462 2.084003 161.861538 1.933399 162.184615 1.782763 162.507692 1.632098 162.830769 1.481406 163.153846 1.330693 163.476923 1.179961 163.800000 1.029214 164.123077 0.878457 164.446154 0.727692 164.769231 0.576923" class="line reactive nofill" /></g></g><g class="titles" /><g transform="translate(22, 10)" class="plot overlay"><g class="series serie-0 color-0" /></g><g transform="translate(22, 10)" class="plot text-overlay"><g class="series serie-0 color-0" /></g><g transform="translate(22, 10)" class="plot tooltip-overlay"><g transform="translate(0 0)" style="opacity: 0" class="tooltip"><rect rx="0" ry="0" width="0" height="0" class="tooltip-box" /><g class="text" /></g></g></g></svg>