<?xml version='1.0' encoding='utf-8'?>
<svg xmlns="http://www.w3.org/2000/svg" id="chart-3b140f2f-a711-4866-a2a1-b117c8e5d5c4" class="pygal-chart pygal-sparkline" viewBox="0 0 200 50" width="200" height="50"><!--Generated with pygal 3.0.5 (etree) ©Kozea 2012-2016 on 2024-08-16--><!--http://pygal.org--><!--http://github.com/Kozea/pygal--><defs><style type="text/css">#chart-3b140f2f-a711-4866-a2a1-b117c8e5d5c4{-webkit-user-select:none;-webkit-font-smoothing:antialiased;font-family:Consolas,"Liberation Mono",Menlo,Courier,monospace}#chart-3b140f2f-a711-4866-a2a1-b117c8e5d5c4 .title{font-family:Consolas,"Liberation Mono",Menlo,Courier,monospace;font-size:16px}#chart-3b140f2f-a711-4866-a2a1-b117c8e5d5c4 .legends .legend text{font-family:Consolas,"Liberation Mono",Menlo,Courier,monospace;font-size:14px}#chart-3b140f2f-a711-4866-a2a1-b117c8e5d5c4 .axis text{font-family:Consolas,"Liberation Mono",Menlo,Courier,monospace;font-size:10px}#chart-3b140f2f-a711-4866-a2a1-b117c8e5d5c4 .axis text.major{font-family:Consolas,"Liberation Mono",Menlo,Courier,monospace;font-size:10px}#chart-3b140f2f-a711-4866-a2a1-b117c8e5d5c4 .text-overlay text.value{font-family:Consolas,"Liberation Mono",Menlo,Courier,monospace;font-size:16px}#chart-3b140f2f-a711-4866-a2a1-b117c8e5d5c4 .text-overlay text.label{font-family:Consolas,"Liberation Mono",Menlo,Courier,monospace;font-size:10px}#chart-3b140f2f-a711-4866-a2a1-b117c8e5d5c4 .tooltip{font-family:Consolas,"Liberation Mono",Menlo,Courier,monospace;font-size:14px}#chart-3b140f2f-a711-4866-a2a1-b117c8e5d5c4 text.no_data{font-family:Consolas,"Liberation Mono",Menlo,Courier,monospace;font-size:64px}
#chart-3b140f2f-a711-4866-a2a1-b117c8e5d5c4{background-color:rgba(249,249,249,1)}#chart-3b140f2f-a711-4866-a2a1-b117c8e5d5c4 path,#chart-3b140f2f-a711-4866-a2a1-b117c8e5d5c4 line,#chart-3b140f2f-a711-4866-a2a1-b117c8e5d5c4 rect,#chart-3b140f2f-a711-4866-a2a1-b117c8e5d5c4 circle{-webkit-transition:150ms;-moz-transition:150ms;transition:150ms}#chart-3b140f2f-a711-4866-a2a1-b117c8e5d5c4 .graph &gt; .background{fill:rgba(249,249,249,1)}#chart-3b140f2f-a711-4866-a2a1-b117c8e5d5c4 .plot &gt; .background{fill:rgba(255,255,255,1)}#chart-3b140f2f-a711-4866-a2a1-b117c8e5d5c4 .graph{fill:rgba(0,0,0,.87)}#chart-3b140f2f-a711-4866-a2a1-b117c8e5d5c4 text.no_data{fill:rgba(0,0,0,1)}#chart-3b140f2f-a711-4866-a2a1-b117c8e5d5c4 .title{fill:rgba(0,0,0,1)}#chart-3b140f2f-a711-4866-a2a1-b117c8e5d5c4 .legends .legend text{fill:rgba(0,0,0,.87)}#chart-3b140f2f-a711-4866-a2a1-b117c8e5d5c4 .legends .legend:hover text{fill:rgba(0,0,0,1)}#chart-3b140f2f-a711-4866-a2a1-b117c8e5d5c4 .axis .line{stroke:rgba(0,0,0,1)}#chart-3b140f2f-a711-4866-a2a1-b117c8e5d5c4 .axis .guide.line{stroke:rgba(0,0,0,.54)}#chart-3b140f2f-a711-4866-a2a1-b117c8e5d5c4 .axis .major.line{stroke:rgba(0,0,0,.87)}#chart-3b140f2f-a711-4866-a2a1-b117c8e5d5c4 .axis text.major{fill:rgba(0,0,0,1)}#chart-3b140f2f-a711-4866-a2a1-b117c8e5d5c4 .axis.y .guides:hover .guide.line,#chart-3b140f2f-a711-4866-a2a1-b117c8e5d5c4 .line-graph .axis.x .guides:hover .guide.line,#chart-3b140f2f-a711-4866-a2a1-b117c8e5d5c4 .stackedline-graph .axis.x .guides:hover .guide.line,#chart-3b140f2f-a711-4866-a2a1-b117c8e5d5c4 .xy-graph .axis.x .guides:hover .guide.line{stroke:rgba(0,0,0,1)}#chart-3b140f2f-a711-4866-a2a1-b117c8e5d5c4 .axis .guides:hover text{fill:rgba(0,0,0,1)}#chart-3b140f2f-a711-4866-a2a1-b117c8e5d5c4 .reactive{fill-opacity:.7;stroke-opacity:.8;stroke-width:1}#chart-3b140f2f-a711-4866-a2a1-b117c8e5d5c4 .ci{stroke:rgba(0,0,0,.87)}#chart-3b140f2f-a711-4866-a2a1-b117c8e5d5c4 .reactive.active,#chart-3b140f2f-a711-4866-a2a1-b117c8e5d5c4 .active .reactive{fill-opacity:.8;stroke-opacity:.9;stroke-width:4}#chart-3b140f2f-a711-4866-a2a1-b117c8e5d5c4 .ci .reactive.active{stroke-width:1.5}#chart-3b140f2f-a711-4866-a2a1-b117c8e5d5c4 .series text{fill:rgba(0,0,0,1)}#chart-3b140f2f-a711-4866-a2a1-b117c8e5d5c4 .tooltip rect{fill:rgba(255,255,255,1);stroke:rgba(0,0,0,1);-webkit-transition:opacity 150ms;-moz-transition:opacity 150ms;transition:opacity 150ms}#chart-3b140f2f-a711-4866-a2a1-b117c8e5d5c4 .tooltip .label{fill:rgba(0,0,0,.87)}#chart-3b140f2f-a711-4866-a2a1-b117c8e5d5c4 .tooltip .label{fill:rgba(0,0,0,.87)}#chart-3b140f2f-a711-4866-a2a1-b117c8e5d5c4 .tooltip .legend{font-size:.8em;fill:rgba(0,0,0,.54)}#chart-3b140f2f-a711-4866-a2a1-b117c8e5d5c4 .tooltip .x_label{font-size:.6em;fill:rgba(0,0,0,1)}#chart-3b140f2f-a711-4866-a2a1-b117c8e5d5c4 .tooltip .xlink{font-size:.5em;text-decoration:underline}#chart-3b140f2f-a711-4866-a2a1-b117c8e5d5c4 .tooltip .value{font-size:1.5em}#chart-3b140f2f-a711-4866-a2a1-b117c8e5d5c4 .bound{font-size:.5em}#chart-3b140f2f-a711-4866-a2a1-b117c8e5d5c4 .max-value{font-size:.75em;fill:rgba(0,0,0,.54)}#chart-3b140f2f-a711-4866-a2a1-b117c8e5d5c4 .map-element{fill:rgba(255,255,255,1);stroke:rgba(0,0,0,.54) !important}#chart-3b140f2f-a711-4866-a2a1-b117c8e5d5c4 .map-element .reactive{fill-opacity:inherit;stroke-opacity:inherit}#chart-3b140f2f-a711-4866-a2a1-b117c8e5d5c4 .color-0,#chart-3b140f2f-a711-4866-a2a1-b117c8e5d5c4 .color-0 a:visited{stroke:#F44336;fill:#F44336}#chart-3b140f2f-a711-4866-a2a1-b117c8e5d5c4 .text-overlay .color-0 text{fill:black}
#chart-3b140f2f-a711-4866-a2a1-b117c8e5d5c4 text.no_data{text-anchor:middle}#chart-3b140f2f-a711-4866-a2a1-b117c8e5d5c4 .guide.line{fill:none}#chart-3b140f2f-a711-4866-a2a1-b117c8e5d5c4 .centered{text-anchor:middle}#chart-3b140f2f-a711-4866-a2a1-b117c8e5d5c4 .title{text-anchor:middle}#chart-3b140f2f-a711-4866-a2a1-b117c8e5d5c4 .legends .legend text{fill-opacity:1}#chart-3b140f2f-a711-4866-a2a1-b117c8e5d5c4 .axis.x text{text-anchor:middle}#chart-3b140f2f-a711-4866-a2a1-b117c8e5d5c4 .axis.x:not(.web) text[transform]{text-anchor:start}#chart-3b140f2f-a711-4866-a2a1-b117c8e5d5c4 .axis.x:not(.web) text[transform].backwards{text-anchor:end}#chart-3b140f2f-a711-4866-a2a1-b117c8e5d5c4 .axis.y text{text-anchor:end}#chart-3b140f2f-a711-4866-a2a1-b117c8e5d5c4 .axis.y text[transform].backwards{text-anchor:start}#chart-3b140f2f-a711-4866-a2a1-b117c8e5d5c4 .axis.y2 text{text-anchor:start}#chart-3b140f2f-a711-4866-a2a1-b117c8e5d5c4 .axis.y2 text[transform].backwards{text-anchor:end}#chart-3b140f2f-a711-4866-a2a1-b117c8e5d5c4 .axis .guide.line{stroke-dasharray:4,4;stroke:black}#chart-3b140f2f-a711-4866-a2a1-b117c8e5d5c4 .axis .major.guide.line{stroke-dasharray:6,6;stroke:black}#chart-3b140f2f-a711-4866-a2a1-b117c8e5d5c4 .horizontal .axis.y .guide.line,#chart-3b140f2f-a711-4866-a2a1-b117c8e5d5c4 .horizontal .axis.y2 .guide.line,#chart-3b140f2f-a711-4866-a2a1-b117c8e5d5c4 .vertical .axis.x .guide.line{opacity:0}#chart-3b140f2f-a711-4866-a2a1-b117c8e5d5c4 .horizontal .axis.always_show .guide.line,#chart-3b140f2f-a711-4866-a2a1-b117c8e5d5c4 .vertical .axis.always_show .guide.line{opacity:1 !important}#chart-3b140f2f-a711-4866-a2a1-b117c8e5d5c4 .axis.y .guides:hover .guide.line,#chart-3b140f2f-a711-4866-a2a1-b117c8e5d5c4 .axis.y2 .guides:hover .guide.line,#chart-3b140f2f-a711-4866-a2a1-b117c8e5d5c4 .axis.x .guides:hover .guide.line{opacity:1}#chart-3b140f2f-a711-4866-a2a1-b117c8e5d5c4 .axis .guides:hover text{opacity:1}#chart-3b140f2f-a711-4866-a2a1-b117c8e5d5c4 .nofill{fill:none}#chart-3b140f2f-a711-4866-a2a1-b117c8e5d5c4 .subtle-fill{fill-opacity:.2}#chart-3b140f2f-a711-4866-a2a1-b117c8e5d5c4 .dot{stroke-width:1px;fill-opacity:1;stroke-opacity:1}#chart-3b140f2f-a711-4866-a2a1-b117c8e5d5c4 .dot.active{stroke-width:5px}#chart-3b140f2f-a711-4866-a2a1-b117c8e5d5c4 .dot.negative{fill:transparent}#chart-3b140f2f-a711-4866-a2a1-b117c8e5d5c4 text,#chart-3b140f2f-a711-4866-a2a1-b117c8e5d5c4 tspan{stroke:none !important}#chart-3b140f2f-a711-4866-a2a1-b117c8e5d5c4 .series text.active{opacity:1}#chart-3b140f2f-a711-4866-a2a1-b117c8e5d5c4 .tooltip rect{fill-opacity:.95;stroke-width:.5}#chart-3b140f2f-a711-4866-a2a1-b117c8e5d5c4 .tooltip text{fill-opacity:1}#chart-3b140f2f-a711-4866-a2a1-b117c8e5d5c4 .showable{visibility:hidden}#chart-3b140f2f-a711-4866-a2a1-b117c8e5d5c4 .showable.shown{visibility:visible}#chart-3b140f2f-a711-4866-a2a1-b117c8e5d5c4 .gauge-background{fill:rgba(229,229,229,1);stroke:none}#chart-3b140f2f-a711-4866-a2a1-b117c8e5d5c4 .bg-lines{stroke:rgba(249,249,249,1);stroke-width:2px}</style><script type="text/javascript">window.pygal = window.pygal || {};window.pygal.config = window.pygal.config || {};window.pygal.config['3b140f2f-a711-4866-a2a1-b117c8e5d5c4'] = {"allow_interruptions": false, "box_mode": "extremes", "classes": ["pygal-chart", "pygal-sparkline"], "css": ["file://style.css", "file://graph.css"], "defs": [], "disable_xml_declaration": false, "dots_size": 2.5, "dynamic_print_values": false, "explicit_size": true, "fill": false, "force_uri_protocol": "https", "formatter": null, "half_pie": false, "height": 50, "include_x_axis": false, "inner_radius": 0, "interpolate": "cubic", "interpolation_parameters": {}, "interpolation_precision": 250, "inverse_y_axis": false, "js": [], "legend_at_bottom": false, "legend_at_bottom_columns": null, "legend_box_size": 12, "logarithmic": false, "margin": 10, "margin_bottom": null, "margin_left": null, "margin_right": null, "margin_top": null, "max_scale": 2, "min_scale": 1, "missing_value_fill_truncation": "x", "no_data_text": "", "no_prefix": false, "order_min": null, "pretty_print": false, "print_labels": false, "print_values": false, "print_values_position": "center", "print_zeroes": true, "range": null, "rounded_bars": null, "secondary_range": null, "show_dots": false, "show_legend": false, "show_minor_x_labels": true, "show_minor_y_labels": true, "show_only_major_dots": false, "show_x_guides": false, "show_x_labels": false, "show_y_guides": true, "show_y_labels": true, "spacing": 0, "stack_from_top": false, "strict": false, "stroke": true, "stroke_style": null, "style": {"background": "rgba(249, 249, 249, 1)", "ci_colors": [], "colors": ["#F44336", "#3F51B5", "#009688", "#FFC107", "#FF5722", "#9C27B0", "#03A9F4", "#8BC34A", "#FF9800", "#E91E63", "#2196F3", "#4CAF50", "#FFEB3B", "#673AB7", "#00BCD4", "#CDDC39", "#9E9E9E", "#607D8B"], "dot_opacity": "1", "font_family": "Consolas, \"Liberation Mono\", Menlo, Courier, monospace", "foreground": "rgba(0, 0, 0, .87)", "foreground_strong": "rgba(0, 0, 0, 1)", "foreground_subtle": "rgba(0, 0, 0, .54)", "guide_stroke_color": "black", "guide_stroke_dasharray": "4,4", "label_font_family": "Consolas, \"Liberation Mono\", Menlo, Courier, monospace", "label_font_size": 10, "legend_font_family": "Consolas, \"Liberation Mono\", Menlo, Courier, monospace", "legend_font_size": 14, "major_guide_stroke_color": "black", "major_guide_stroke_dasharray": "6,6", "major_label_font_family": "Consolas, \"Liberation Mono\", Menlo, Courier, monospace", "major_label_font_size": 10, "no_data_font_family": "Consolas, \"Liberation Mono\", Menlo, Courier, monospace", "no_data_font_size": 64, "opacity": ".7", "opacity_hover": ".8", "plot_background": "rgba(255, 255, 255, 1)", "stroke_opacity": ".8", "stroke_opacity_hover": ".9", "stroke_width": "1", "stroke_width_hover": "4", "title_font_family": "Consolas, \"Liberation Mono\", Menlo, Courier, monospace", "title_font_size": 16, "tooltip_font_family": "Consolas, \"Liberation Mono\", Menlo, Courier, monospace", "tooltip_font_size": 14, "transition": "150ms", "value_background": "rgba(229, 229, 229, 1)", "value_colors": [], "value_font_family": "Consolas, \"Liberation Mono\", Menlo, Courier, monospace", "value_font_size": 16, "value_label_font_family": "Consolas, \"Liberation Mono\", Menlo, Courier, monospace", "value_label_font_size": 10}, "title": null, "tooltip_border_radius": 0, "tooltip_fancy_mode": true, "truncate_label": null, "truncate_legend": null, "width": 200, "x_label_rotation": 0, "x_labels": ["2024/6", "2024/5", "2024/4", "2024/3"], "x_labels_major": null, "x_labels_major_count": null, "x_labels_major_every": null, "x_title": null, "xrange": null, "y_label_rotation": 0, "y_labels": null, "y_labels_major": null, "y_labels_major_count": null, "y_labels_major_every": null, "y_title": null, "zero": 0, "legends": [""]}</script></defs><title>Pygal</title><g class="graph line-graph vertical"><rect x="0" y="0" width="200" height="50" class="background" /><g transform="translate(22, 10)" class="plot"><rect x="0" y="0" width="168.0" height="30" class="background" /><g class="axis y always_show"><path d="M0.000000 30.000000 h168.000000" class="line" /><g class="guides"><path d="M0.000000 29.423077 h168.000000" class="guide line" /><text x="-5" y="32.92307692307692" class="">1</text><title>1</title></g><g class="guides"><path d="M0.000000 0.576923 h168.000000" class="guide line" /><text x="-5" y="4.076923076923077" class="">15</text><title>15</title></g></g><g class="series serie-0 color-0"><path d="M3.230769 29.423077 L3.446154 29.323077 3.661538 29.223081 3.876923 29.123092 4.092308 29.023112 4.307692 28.923145 4.523077 28.823195 4.738462 28.723264 4.953846 28.623356 5.169231 28.523474 5.384615 28.423622 5.600000 28.323802 5.815385 28.224019 6.030769 28.124274 6.246154 28.024573 6.461538 27.924916 6.676923 27.825309 6.892308 27.725755 7.107692 27.626256 7.323077 27.526815 7.538462 27.427437 7.753846 27.328125 7.969231 27.228881 8.184615 27.129709 8.400000 27.030612 8.615385 26.931593 8.830769 26.832657 9.046154 26.733805 9.261538 26.635042 9.476923 26.536370 9.692308 26.437793 9.907692 26.339315 10.123077 26.240937 10.338462 26.142665 10.553846 26.044500 10.769231 25.946446 10.984615 25.848507 11.200000 25.750686 11.415385 25.652985 11.630769 25.555409 11.846154 25.457960 12.061538 25.360643 12.276923 25.263459 12.492308 25.166413 12.707692 25.069507 12.923077 24.972745 13.138462 24.876130 13.353846 24.779666 13.569231 24.683356 13.784615 24.587202 14.000000 24.491209 14.215385 24.395379 14.430769 24.299716 14.646154 24.204223 14.861538 24.108903 15.076923 24.013760 15.292308 23.918797 15.507692 23.824017 15.723077 23.729424 15.938462 23.635020 16.153846 23.540809 16.369231 23.446794 16.584615 23.352979 16.800000 23.259366 17.015385 23.165960 17.230769 23.072763 17.446154 22.979778 17.661538 22.887009 17.876923 22.794460 18.092308 22.702132 18.307692 22.610031 18.523077 22.518158 18.738462 22.426518 18.953846 22.335113 19.169231 22.243946 19.384615 22.153022 19.600000 22.062343 19.815385 21.971912 20.030769 21.881734 20.246154 21.791810 20.461538 21.702145 20.676923 21.612741 20.892308 21.523603 21.107692 21.434732 21.323077 21.346133 21.538462 21.257809 21.753846 21.169762 21.969231 21.081997 22.184615 20.994517 22.400000 20.907324 22.615385 20.820422 22.830769 20.733815 23.046154 20.647505 23.261538 20.561496 23.476923 20.475791 23.692308 20.390393 23.907692 20.305307 24.123077 20.220534 24.338462 20.136078 24.553846 20.051943 24.769231 19.968132 24.984615 19.884648 25.200000 19.801494 25.415385 19.718673 25.630769 19.636190 25.846154 19.554046 26.061538 19.472246 26.276923 19.390793 26.492308 19.309689 26.707692 19.228939 26.923077 19.148545 27.138462 19.068511 27.353846 18.988840 27.569231 18.909535 27.784615 18.830600 28.000000 18.752037 28.215385 18.673851 28.430769 18.596044 28.646154 18.518620 28.861538 18.441581 29.076923 18.364932 29.292308 18.288675 29.507692 18.212814 29.723077 18.137352 29.938462 18.062292 30.153846 17.987637 30.369231 17.913392 30.584615 17.839558 30.800000 17.766140 31.015385 17.693140 31.230769 17.620563 31.446154 17.548410 31.661538 17.476686 31.876923 17.405393 32.092308 17.334536 32.307692 17.264116 32.523077 17.194139 32.738462 17.124606 32.953846 17.055521 33.169231 16.986887 33.384615 16.918708 33.600000 16.850986 33.815385 16.783726 34.030769 16.716930 34.246154 16.650602 34.461538 16.584745 34.676923 16.519362 34.892308 16.454456 35.107692 16.390032 35.323077 16.326091 35.538462 16.262637 35.753846 16.199674 35.969231 16.137205 36.184615 16.075233 36.400000 16.013761 36.615385 15.952793 36.830769 15.892332 37.046154 15.832381 37.261538 15.772944 37.476923 15.714023 37.692308 15.655622 37.907692 15.597744 38.123077 15.540393 38.338462 15.483572 38.553846 15.427284 38.769231 15.371532 38.984615 15.316320 39.200000 15.261650 39.415385 15.207527 39.630769 15.153953 39.846154 15.100932 40.061538 15.048467 40.276923 14.996561 40.492308 14.945217 40.707692 14.894439 40.923077 14.844231 41.138462 14.794594 41.353846 14.745534 41.569231 14.697052 41.784615 14.649152 42.000000 14.601837 42.215385 14.555112 42.430769 14.508978 42.646154 14.463439 42.861538 14.418499 43.076923 14.374160 43.292308 14.330427 43.507692 14.287302 43.723077 14.244788 43.938462 14.202889 44.153846 14.161609 44.369231 14.120949 44.584615 14.080915 44.800000 14.041508 45.015385 14.002732 45.230769 13.964591 45.446154 13.927088 45.661538 13.890225 45.876923 13.854007 46.092308 13.818436 46.307692 13.783516 46.523077 13.749251 46.738462 13.715642 46.953846 13.682694 47.169231 13.650410 47.384615 13.618793 47.600000 13.587847 47.815385 13.557574 48.030769 13.527978 48.246154 13.499063 48.461538 13.470831 48.676923 13.443285 48.892308 13.416430 49.107692 13.390268 49.323077 13.364803 49.538462 13.340037 49.753846 13.315975 49.969231 13.292619 50.184615 13.269973 50.400000 13.248039 50.615385 13.226822 50.830769 13.206324 51.046154 13.186549 51.261538 13.167500 51.476923 13.149181 51.692308 13.131593 51.907692 13.114742 52.123077 13.098630 52.338462 13.083260 52.553846 13.068636 52.769231 13.054760 52.984615 13.041637 53.200000 13.029270 53.415385 13.017661 53.630769 13.006814 53.846154 12.996732 54.061538 12.987419 54.276923 12.978877 54.492308 12.971111 54.707692 12.964123 54.923077 12.957916 55.138462 12.952495 55.353846 12.947862 55.569231 12.944020 55.784615 12.940972 56.000000 12.938723 56.215385 12.937275 56.430769 12.936631 56.646154 12.936796 56.861538 12.937771 57.076923 12.939560 57.292308 12.942166 57.507692 12.945582 57.723077 12.949802 57.938462 12.954819 58.153846 12.960626 58.369231 12.967217 58.584615 12.974584 58.800000 12.982720 59.015385 12.991620 59.230769 13.001275 59.446154 13.011679 59.661538 13.022825 59.876923 13.034707 60.092308 13.047317 60.307692 13.060648 60.523077 13.074695 60.738462 13.089449 60.953846 13.104904 61.169231 13.121053 61.384615 13.137890 61.600000 13.155407 61.815385 13.173598 62.030769 13.192455 62.246154 13.211973 62.461538 13.232143 62.676923 13.252959 62.892308 13.274415 63.107692 13.296503 63.323077 13.319217 63.538462 13.342549 63.753846 13.366494 63.969231 13.391043 64.184615 13.416191 64.400000 13.441929 64.615385 13.468253 64.830769 13.495154 65.046154 13.522625 65.261538 13.550661 65.476923 13.579253 65.692308 13.608396 65.907692 13.638081 66.123077 13.668304 66.338462 13.699056 66.553846 13.730330 66.769231 13.762121 66.984615 13.794420 67.200000 13.827222 67.415385 13.860519 67.630769 13.894304 67.846154 13.928571 68.061538 13.963313 68.276923 13.998523 68.492308 14.034193 68.707692 14.070318 68.923077 14.106890 69.138462 14.143903 69.353846 14.181349 69.569231 14.219221 69.784615 14.257514 70.000000 14.296220 70.215385 14.335332 70.430769 14.374843 70.646154 14.414746 70.861538 14.455035 71.076923 14.495703 71.292308 14.536743 71.507692 14.578148 71.723077 14.619911 71.938462 14.662025 72.153846 14.704484 72.369231 14.747280 72.584615 14.790407 72.800000 14.833857 73.015385 14.877625 73.230769 14.921703 73.446154 14.966085 73.661538 15.010762 73.876923 15.055730 74.092308 15.100980 74.307692 15.146505 74.523077 15.192300 74.738462 15.238357 74.953846 15.284670 75.169231 15.331231 75.384615 15.378033 75.600000 15.425070 75.815385 15.472335 76.030769 15.519821 76.246154 15.567521 76.461538 15.615429 76.676923 15.663536 76.892308 15.711838 77.107692 15.760326 77.323077 15.808994 77.538462 15.857835 77.753846 15.906842 77.969231 15.956009 78.184615 16.005328 78.400000 16.054792 78.615385 16.104396 78.830769 16.154131 79.046154 16.203991 79.261538 16.253969 79.476923 16.304059 79.692308 16.354253 79.907692 16.404544 80.123077 16.454927 80.338462 16.505393 80.553846 16.555936 80.769231 16.606549 80.984615 16.657226 81.200000 16.707959 81.415385 16.758742 81.630769 16.809567 81.846154 16.860429 82.061538 16.911319 82.276923 16.962231 82.492308 17.013159 82.707692 17.064095 82.923077 17.115033 83.138462 17.165965 83.353846 17.216886 83.569231 17.267787 83.784615 17.318663 84.000000 17.369505 84.215385 17.420309 84.430769 17.471066 84.646154 17.521769 84.861538 17.572413 85.076923 17.622989 85.292308 17.673492 85.507692 17.723913 85.723077 17.774248 85.938462 17.824488 86.153846 17.874626 86.369231 17.924657 86.584615 17.974572 86.800000 18.024366 87.015385 18.074031 87.230769 18.123560 87.446154 18.172947 87.661538 18.222185 87.876923 18.271267 88.092308 18.320185 88.307692 18.368934 88.523077 18.417506 88.738462 18.465895 88.953846 18.514093 89.169231 18.562093 89.384615 18.609890 89.600000 18.657476 89.815385 18.704844 90.030769 18.751987 90.246154 18.798898 90.461538 18.845571 90.676923 18.891999 90.892308 18.938175 91.107692 18.984092 91.323077 19.029743 91.538462 19.075121 91.753846 19.120220 91.969231 19.165032 92.184615 19.209551 92.400000 19.253769 92.615385 19.297681 92.830769 19.341279 93.046154 19.384557 93.261538 19.427506 93.476923 19.470122 93.692308 19.512396 93.907692 19.554321 94.123077 19.595892 94.338462 19.637101 94.553846 19.677942 94.769231 19.718407 94.984615 19.758489 95.200000 19.798182 95.415385 19.837479 95.630769 19.876373 95.846154 19.914857 96.061538 19.952925 96.276923 19.990568 96.492308 20.027782 96.707692 20.064558 96.923077 20.100890 97.138462 20.136771 97.353846 20.172194 97.569231 20.207153 97.784615 20.241640 98.000000 20.275648 98.215385 20.309172 98.430769 20.342203 98.646154 20.374735 98.861538 20.406761 99.076923 20.438275 99.292308 20.469269 99.507692 20.499736 99.723077 20.529671 99.938462 20.559065 100.153846 20.587912 100.369231 20.616205 100.584615 20.643938 100.800000 20.671103 101.015385 20.697694 101.230769 20.723703 101.446154 20.749125 101.661538 20.773951 101.876923 20.798175 102.092308 20.821791 102.307692 20.844791 102.523077 20.867169 102.738462 20.888917 102.953846 20.910030 103.169231 20.930499 103.384615 20.950319 103.600000 20.969481 103.815385 20.987981 104.030769 21.005810 104.246154 21.022961 104.461538 21.039429 104.676923 21.055205 104.892308 21.070284 105.107692 21.084657 105.323077 21.098320 105.538462 21.111264 105.753846 21.123482 105.969231 21.134969 106.184615 21.145716 106.400000 21.155718 106.615385 21.164967 106.830769 21.173456 107.046154 21.181179 107.261538 21.188129 107.476923 21.194299 107.692308 21.199681 107.907692 21.204270 108.123077 21.208058 108.338462 21.211039 108.553846 21.213205 108.769231 21.214549 108.984615 21.215066 109.200000 21.214748 109.415385 21.213588 109.630769 21.211579 109.846154 21.208714 110.061538 21.204987 110.276923 21.200391 110.492308 21.194919 110.707692 21.188564 110.923077 21.181319 111.138462 21.173179 111.353846 21.164145 111.569231 21.154223 111.784615 21.143414 112.000000 21.131723 112.215385 21.119153 112.430769 21.105708 112.646154 21.091392 112.861538 21.076207 113.076923 21.060158 113.292308 21.043248 113.507692 21.025481 113.723077 21.006861 113.938462 20.987390 114.153846 20.967073 114.369231 20.945912 114.584615 20.923913 114.800000 20.901078 115.015385 20.877410 115.230769 20.852914 115.446154 20.827593 115.661538 20.801451 115.876923 20.774491 116.092308 20.746717 116.307692 20.718132 116.523077 20.688740 116.738462 20.658545 116.953846 20.627549 117.169231 20.595758 117.384615 20.563174 117.600000 20.529800 117.815385 20.495642 118.030769 20.460701 118.246154 20.424982 118.461538 20.388488 118.676923 20.351223 118.892308 20.313190 119.107692 20.274394 119.323077 20.234837 119.538462 20.194523 119.753846 20.153456 119.969231 20.111639 120.184615 20.069077 120.400000 20.025772 120.615385 19.981727 120.830769 19.936948 121.046154 19.891437 121.261538 19.845198 121.476923 19.798234 121.692308 19.750549 121.907692 19.702147 122.123077 19.653032 122.338462 19.603206 122.553846 19.552673 122.769231 19.501437 122.984615 19.449502 123.200000 19.396871 123.415385 19.343548 123.630769 19.289536 123.846154 19.234840 124.061538 19.179461 124.276923 19.123405 124.492308 19.066674 124.707692 19.009273 124.923077 18.951204 125.138462 18.892472 125.353846 18.833080 125.569231 18.773032 125.784615 18.712331 126.000000 18.650980 126.215385 18.588984 126.430769 18.526346 126.646154 18.463070 126.861538 18.399158 127.076923 18.334615 127.292308 18.269445 127.507692 18.203650 127.723077 18.137235 127.938462 18.070204 128.153846 18.002558 128.369231 17.934303 128.584615 17.865442 128.800000 17.795978 129.015385 17.725915 129.230769 17.655257 129.446154 17.584007 129.661538 17.512169 129.876923 17.439746 130.092308 17.366742 130.307692 17.293160 130.523077 17.219005 130.738462 17.144279 130.953846 17.068987 131.169231 16.993132 131.384615 16.916716 131.600000 16.839745 131.815385 16.762222 132.030769 16.684150 132.246154 16.605533 132.461538 16.526374 132.676923 16.446677 132.892308 16.366445 133.107692 16.285683 133.323077 16.204393 133.538462 16.122580 133.753846 16.040247 133.969231 15.957397 134.184615 15.874034 134.400000 15.790162 134.615385 15.705785 134.830769 15.620905 135.046154 15.535526 135.261538 15.449653 135.476923 15.363288 135.692308 15.276435 135.907692 15.189098 136.123077 15.101281 136.338462 15.012986 136.553846 14.924218 136.769231 14.834980 136.984615 14.745276 137.200000 14.655109 137.415385 14.564483 137.630769 14.473402 137.846154 14.381868 138.061538 14.289886 138.276923 14.197460 138.492308 14.104592 138.707692 14.011287 138.923077 13.917547 139.138462 13.823377 139.353846 13.728781 139.569231 13.633761 139.784615 13.538322 140.000000 13.442466 140.215385 13.346198 140.430769 13.249521 140.646154 13.152439 140.861538 13.054955 141.076923 12.957073 141.292308 12.858796 141.507692 12.760128 141.723077 12.661073 141.938462 12.561634 142.153846 12.461815 142.369231 12.361620 142.584615 12.261051 142.800000 12.160113 143.015385 12.058809 143.230769 11.957143 143.446154 11.855118 143.661538 11.752738 143.876923 11.650006 144.092308 11.546927 144.307692 11.443503 144.523077 11.339739 144.738462 11.235637 144.953846 11.131202 145.169231 11.026437 145.384615 10.921345 145.600000 10.815931 145.815385 10.710197 146.030769 10.604148 146.246154 10.497786 146.461538 10.391116 146.676923 10.284142 146.892308 10.176866 147.107692 10.069292 147.323077 9.961424 147.538462 9.853266 147.753846 9.744821 147.969231 9.636092 148.184615 9.527084 148.400000 9.417799 148.615385 9.308242 148.830769 9.198416 149.046154 9.088324 149.261538 8.977970 149.476923 8.867359 149.692308 8.756492 149.907692 8.645375 150.123077 8.534010 150.338462 8.422401 150.553846 8.310552 150.769231 8.198466 150.984615 8.086147 151.200000 7.973598 151.415385 7.860824 151.630769 7.747827 151.846154 7.634611 152.061538 7.521180 152.276923 7.407537 152.492308 7.293687 152.707692 7.179632 152.923077 7.065376 153.138462 6.950923 153.353846 6.836276 153.569231 6.721439 153.784615 6.606415 154.000000 6.491209 154.215385 6.375823 154.430769 6.260261 154.646154 6.144528 154.861538 6.028626 155.076923 5.912558 155.292308 5.796330 155.507692 5.679943 155.723077 5.563402 155.938462 5.446711 156.153846 5.329873 156.369231 5.212891 156.584615 5.095769 156.800000 4.978511 157.015385 4.861120 157.230769 4.743600 157.446154 4.625955 157.661538 4.508187 157.876923 4.390301 158.092308 4.272301 158.307692 4.154189 158.523077 4.035970 158.738462 3.917646 158.953846 3.799222 159.169231 3.680702 159.384615 3.562088 159.600000 3.443384 159.815385 3.324595 160.030769 3.205723 160.246154 3.086771 160.461538 2.967745 160.676923 2.848647 160.892308 2.729481 161.107692 2.610250 161.323077 2.490958 161.538462 2.371609 161.753846 2.252206 161.969231 2.132753 162.184615 2.013253 162.400000 1.893710 162.615385 1.774127 162.830769 1.654509 163.046154 1.534859 163.261538 1.415180 163.476923 1.295475 163.692308 1.175749 163.907692 1.056006 164.123077 0.936248 164.338462 0.816479 164.553846 0.696703 164.769231 0.576923" class="line reactive nofill" /></g></g><g class="titles" /><g transform="translate(22, 10)" class="plot overlay"><g class="series serie-0 color-0" /></g><g transform="translate(22, 10)" class="plot text-overlay"><g class="series serie-0 color-0" /></g><g transform="translate(22, 10)" class="plot tooltip-overlay"><g transform="translate(0 0)" style="opacity: 0" class="tooltip"><rect rx="0" ry="0" width="0" height="0" class="tooltip-box" /><g class="text" /></g></g></g></svg>