<?xml version='1.0' encoding='utf-8'?>
<svg xmlns="http://www.w3.org/2000/svg" id="chart-cd581dd2-b5b7-4f36-83a8-ccf6d326a50d" class="pygal-chart pygal-sparkline" viewBox="0 0 200 50" width="200" height="50"><!--Generated with pygal 3.0.5 (etree) ©Kozea 2012-2016 on 2025-04-13--><!--http://pygal.org--><!--http://github.com/Kozea/pygal--><defs><style type="text/css">#chart-cd581dd2-b5b7-4f36-83a8-ccf6d326a50d{-webkit-user-select:none;-webkit-font-smoothing:antialiased;font-family:Consolas,"Liberation Mono",Menlo,Courier,monospace}#chart-cd581dd2-b5b7-4f36-83a8-ccf6d326a50d .title{font-family:Consolas,"Liberation Mono",Menlo,Courier,monospace;font-size:16px}#chart-cd581dd2-b5b7-4f36-83a8-ccf6d326a50d .legends .legend text{font-family:Consolas,"Liberation Mono",Menlo,Courier,monospace;font-size:14px}#chart-cd581dd2-b5b7-4f36-83a8-ccf6d326a50d .axis text{font-family:Consolas,"Liberation Mono",Menlo,Courier,monospace;font-size:10px}#chart-cd581dd2-b5b7-4f36-83a8-ccf6d326a50d .axis text.major{font-family:Consolas,"Liberation Mono",Menlo,Courier,monospace;font-size:10px}#chart-cd581dd2-b5b7-4f36-83a8-ccf6d326a50d .text-overlay text.value{font-family:Consolas,"Liberation Mono",Menlo,Courier,monospace;font-size:16px}#chart-cd581dd2-b5b7-4f36-83a8-ccf6d326a50d .text-overlay text.label{font-family:Consolas,"Liberation Mono",Menlo,Courier,monospace;font-size:10px}#chart-cd581dd2-b5b7-4f36-83a8-ccf6d326a50d .tooltip{font-family:Consolas,"Liberation Mono",Menlo,Courier,monospace;font-size:14px}#chart-cd581dd2-b5b7-4f36-83a8-ccf6d326a50d text.no_data{font-family:Consolas,"Liberation Mono",Menlo,Courier,monospace;font-size:64px}
#chart-cd581dd2-b5b7-4f36-83a8-ccf6d326a50d{background-color:rgba(249,249,249,1)}#chart-cd581dd2-b5b7-4f36-83a8-ccf6d326a50d path,#chart-cd581dd2-b5b7-4f36-83a8-ccf6d326a50d line,#chart-cd581dd2-b5b7-4f36-83a8-ccf6d326a50d rect,#chart-cd581dd2-b5b7-4f36-83a8-ccf6d326a50d circle{-webkit-transition:150ms;-moz-transition:150ms;transition:150ms}#chart-cd581dd2-b5b7-4f36-83a8-ccf6d326a50d .graph &gt; .background{fill:rgba(249,249,249,1)}#chart-cd581dd2-b5b7-4f36-83a8-ccf6d326a50d .plot &gt; .background{fill:rgba(255,255,255,1)}#chart-cd581dd2-b5b7-4f36-83a8-ccf6d326a50d .graph{fill:rgba(0,0,0,.87)}#chart-cd581dd2-b5b7-4f36-83a8-ccf6d326a50d text.no_data{fill:rgba(0,0,0,1)}#chart-cd581dd2-b5b7-4f36-83a8-ccf6d326a50d .title{fill:rgba(0,0,0,1)}#chart-cd581dd2-b5b7-4f36-83a8-ccf6d326a50d .legends .legend text{fill:rgba(0,0,0,.87)}#chart-cd581dd2-b5b7-4f36-83a8-ccf6d326a50d .legends .legend:hover text{fill:rgba(0,0,0,1)}#chart-cd581dd2-b5b7-4f36-83a8-ccf6d326a50d .axis .line{stroke:rgba(0,0,0,1)}#chart-cd581dd2-b5b7-4f36-83a8-ccf6d326a50d .axis .guide.line{stroke:rgba(0,0,0,.54)}#chart-cd581dd2-b5b7-4f36-83a8-ccf6d326a50d .axis .major.line{stroke:rgba(0,0,0,.87)}#chart-cd581dd2-b5b7-4f36-83a8-ccf6d326a50d .axis text.major{fill:rgba(0,0,0,1)}#chart-cd581dd2-b5b7-4f36-83a8-ccf6d326a50d .axis.y .guides:hover .guide.line,#chart-cd581dd2-b5b7-4f36-83a8-ccf6d326a50d .line-graph .axis.x .guides:hover .guide.line,#chart-cd581dd2-b5b7-4f36-83a8-ccf6d326a50d .stackedline-graph .axis.x .guides:hover .guide.line,#chart-cd581dd2-b5b7-4f36-83a8-ccf6d326a50d .xy-graph .axis.x .guides:hover .guide.line{stroke:rgba(0,0,0,1)}#chart-cd581dd2-b5b7-4f36-83a8-ccf6d326a50d .axis .guides:hover text{fill:rgba(0,0,0,1)}#chart-cd581dd2-b5b7-4f36-83a8-ccf6d326a50d .reactive{fill-opacity:.7;stroke-opacity:.8;stroke-width:1}#chart-cd581dd2-b5b7-4f36-83a8-ccf6d326a50d .ci{stroke:rgba(0,0,0,.87)}#chart-cd581dd2-b5b7-4f36-83a8-ccf6d326a50d .reactive.active,#chart-cd581dd2-b5b7-4f36-83a8-ccf6d326a50d .active .reactive{fill-opacity:.8;stroke-opacity:.9;stroke-width:4}#chart-cd581dd2-b5b7-4f36-83a8-ccf6d326a50d .ci .reactive.active{stroke-width:1.5}#chart-cd581dd2-b5b7-4f36-83a8-ccf6d326a50d .series text{fill:rgba(0,0,0,1)}#chart-cd581dd2-b5b7-4f36-83a8-ccf6d326a50d .tooltip rect{fill:rgba(255,255,255,1);stroke:rgba(0,0,0,1);-webkit-transition:opacity 150ms;-moz-transition:opacity 150ms;transition:opacity 150ms}#chart-cd581dd2-b5b7-4f36-83a8-ccf6d326a50d .tooltip .label{fill:rgba(0,0,0,.87)}#chart-cd581dd2-b5b7-4f36-83a8-ccf6d326a50d .tooltip .label{fill:rgba(0,0,0,.87)}#chart-cd581dd2-b5b7-4f36-83a8-ccf6d326a50d .tooltip .legend{font-size:.8em;fill:rgba(0,0,0,.54)}#chart-cd581dd2-b5b7-4f36-83a8-ccf6d326a50d .tooltip .x_label{font-size:.6em;fill:rgba(0,0,0,1)}#chart-cd581dd2-b5b7-4f36-83a8-ccf6d326a50d .tooltip .xlink{font-size:.5em;text-decoration:underline}#chart-cd581dd2-b5b7-4f36-83a8-ccf6d326a50d .tooltip .value{font-size:1.5em}#chart-cd581dd2-b5b7-4f36-83a8-ccf6d326a50d .bound{font-size:.5em}#chart-cd581dd2-b5b7-4f36-83a8-ccf6d326a50d .max-value{font-size:.75em;fill:rgba(0,0,0,.54)}#chart-cd581dd2-b5b7-4f36-83a8-ccf6d326a50d .map-element{fill:rgba(255,255,255,1);stroke:rgba(0,0,0,.54) !important}#chart-cd581dd2-b5b7-4f36-83a8-ccf6d326a50d .map-element .reactive{fill-opacity:inherit;stroke-opacity:inherit}#chart-cd581dd2-b5b7-4f36-83a8-ccf6d326a50d .color-0,#chart-cd581dd2-b5b7-4f36-83a8-ccf6d326a50d .color-0 a:visited{stroke:#F44336;fill:#F44336}#chart-cd581dd2-b5b7-4f36-83a8-ccf6d326a50d .text-overlay .color-0 text{fill:black}
#chart-cd581dd2-b5b7-4f36-83a8-ccf6d326a50d text.no_data{text-anchor:middle}#chart-cd581dd2-b5b7-4f36-83a8-ccf6d326a50d .guide.line{fill:none}#chart-cd581dd2-b5b7-4f36-83a8-ccf6d326a50d .centered{text-anchor:middle}#chart-cd581dd2-b5b7-4f36-83a8-ccf6d326a50d .title{text-anchor:middle}#chart-cd581dd2-b5b7-4f36-83a8-ccf6d326a50d .legends .legend text{fill-opacity:1}#chart-cd581dd2-b5b7-4f36-83a8-ccf6d326a50d .axis.x text{text-anchor:middle}#chart-cd581dd2-b5b7-4f36-83a8-ccf6d326a50d .axis.x:not(.web) text[transform]{text-anchor:start}#chart-cd581dd2-b5b7-4f36-83a8-ccf6d326a50d .axis.x:not(.web) text[transform].backwards{text-anchor:end}#chart-cd581dd2-b5b7-4f36-83a8-ccf6d326a50d .axis.y text{text-anchor:end}#chart-cd581dd2-b5b7-4f36-83a8-ccf6d326a50d .axis.y text[transform].backwards{text-anchor:start}#chart-cd581dd2-b5b7-4f36-83a8-ccf6d326a50d .axis.y2 text{text-anchor:start}#chart-cd581dd2-b5b7-4f36-83a8-ccf6d326a50d .axis.y2 text[transform].backwards{text-anchor:end}#chart-cd581dd2-b5b7-4f36-83a8-ccf6d326a50d .axis .guide.line{stroke-dasharray:4,4;stroke:black}#chart-cd581dd2-b5b7-4f36-83a8-ccf6d326a50d .axis .major.guide.line{stroke-dasharray:6,6;stroke:black}#chart-cd581dd2-b5b7-4f36-83a8-ccf6d326a50d .horizontal .axis.y .guide.line,#chart-cd581dd2-b5b7-4f36-83a8-ccf6d326a50d .horizontal .axis.y2 .guide.line,#chart-cd581dd2-b5b7-4f36-83a8-ccf6d326a50d .vertical .axis.x .guide.line{opacity:0}#chart-cd581dd2-b5b7-4f36-83a8-ccf6d326a50d .horizontal .axis.always_show .guide.line,#chart-cd581dd2-b5b7-4f36-83a8-ccf6d326a50d .vertical .axis.always_show .guide.line{opacity:1 !important}#chart-cd581dd2-b5b7-4f36-83a8-ccf6d326a50d .axis.y .guides:hover .guide.line,#chart-cd581dd2-b5b7-4f36-83a8-ccf6d326a50d .axis.y2 .guides:hover .guide.line,#chart-cd581dd2-b5b7-4f36-83a8-ccf6d326a50d .axis.x .guides:hover .guide.line{opacity:1}#chart-cd581dd2-b5b7-4f36-83a8-ccf6d326a50d .axis .guides:hover text{opacity:1}#chart-cd581dd2-b5b7-4f36-83a8-ccf6d326a50d .nofill{fill:none}#chart-cd581dd2-b5b7-4f36-83a8-ccf6d326a50d .subtle-fill{fill-opacity:.2}#chart-cd581dd2-b5b7-4f36-83a8-ccf6d326a50d .dot{stroke-width:1px;fill-opacity:1;stroke-opacity:1}#chart-cd581dd2-b5b7-4f36-83a8-ccf6d326a50d .dot.active{stroke-width:5px}#chart-cd581dd2-b5b7-4f36-83a8-ccf6d326a50d .dot.negative{fill:transparent}#chart-cd581dd2-b5b7-4f36-83a8-ccf6d326a50d text,#chart-cd581dd2-b5b7-4f36-83a8-ccf6d326a50d tspan{stroke:none !important}#chart-cd581dd2-b5b7-4f36-83a8-ccf6d326a50d .series text.active{opacity:1}#chart-cd581dd2-b5b7-4f36-83a8-ccf6d326a50d .tooltip rect{fill-opacity:.95;stroke-width:.5}#chart-cd581dd2-b5b7-4f36-83a8-ccf6d326a50d .tooltip text{fill-opacity:1}#chart-cd581dd2-b5b7-4f36-83a8-ccf6d326a50d .showable{visibility:hidden}#chart-cd581dd2-b5b7-4f36-83a8-ccf6d326a50d .showable.shown{visibility:visible}#chart-cd581dd2-b5b7-4f36-83a8-ccf6d326a50d .gauge-background{fill:rgba(229,229,229,1);stroke:none}#chart-cd581dd2-b5b7-4f36-83a8-ccf6d326a50d .bg-lines{stroke:rgba(249,249,249,1);stroke-width:2px}</style><script type="text/javascript">window.pygal = window.pygal || {};window.pygal.config = window.pygal.config || {};window.pygal.config['cd581dd2-b5b7-4f36-83a8-ccf6d326a50d'] = {"allow_interruptions": false, "box_mode": "extremes", "classes": ["pygal-chart", "pygal-sparkline"], "css": ["file://style.css", "file://graph.css"], "defs": [], "disable_xml_declaration": false, "dots_size": 2.5, "dynamic_print_values": false, "explicit_size": true, "fill": false, "force_uri_protocol": "https", "formatter": null, "half_pie": false, "height": 50, "include_x_axis": false, "inner_radius": 0, "interpolate": "cubic", "interpolation_parameters": {}, "interpolation_precision": 250, "inverse_y_axis": false, "js": [], "legend_at_bottom": false, "legend_at_bottom_columns": null, "legend_box_size": 12, "logarithmic": false, "margin": 10, "margin_bottom": null, "margin_left": null, "margin_right": null, "margin_top": null, "max_scale": 2, "min_scale": 1, "missing_value_fill_truncation": "x", "no_data_text": "", "no_prefix": false, "order_min": null, "pretty_print": false, "print_labels": false, "print_values": false, "print_values_position": "center", "print_zeroes": true, "range": null, "rounded_bars": null, "secondary_range": null, "show_dots": false, "show_legend": false, "show_minor_x_labels": true, "show_minor_y_labels": true, "show_only_major_dots": false, "show_x_guides": false, "show_x_labels": false, "show_y_guides": true, "show_y_labels": true, "spacing": 0, "stack_from_top": false, "strict": false, "stroke": true, "stroke_style": null, "style": {"background": "rgba(249, 249, 249, 1)", "ci_colors": [], "colors": ["#F44336", "#3F51B5", "#009688", "#FFC107", "#FF5722", "#9C27B0", "#03A9F4", "#8BC34A", "#FF9800", "#E91E63", "#2196F3", "#4CAF50", "#FFEB3B", "#673AB7", "#00BCD4", "#CDDC39", "#9E9E9E", "#607D8B"], "dot_opacity": "1", "font_family": "Consolas, \"Liberation Mono\", Menlo, Courier, monospace", "foreground": "rgba(0, 0, 0, .87)", "foreground_strong": "rgba(0, 0, 0, 1)", "foreground_subtle": "rgba(0, 0, 0, .54)", "guide_stroke_color": "black", "guide_stroke_dasharray": "4,4", "label_font_family": "Consolas, \"Liberation Mono\", Menlo, Courier, monospace", "label_font_size": 10, "legend_font_family": "Consolas, \"Liberation Mono\", Menlo, Courier, monospace", "legend_font_size": 14, "major_guide_stroke_color": "black", "major_guide_stroke_dasharray": "6,6", "major_label_font_family": "Consolas, \"Liberation Mono\", Menlo, Courier, monospace", "major_label_font_size": 10, "no_data_font_family": "Consolas, \"Liberation Mono\", Menlo, Courier, monospace", "no_data_font_size": 64, "opacity": ".7", "opacity_hover": ".8", "plot_background": "rgba(255, 255, 255, 1)", "stroke_opacity": ".8", "stroke_opacity_hover": ".9", "stroke_width": "1", "stroke_width_hover": "4", "title_font_family": "Consolas, \"Liberation Mono\", Menlo, Courier, monospace", "title_font_size": 16, "tooltip_font_family": "Consolas, \"Liberation Mono\", Menlo, Courier, monospace", "tooltip_font_size": 14, "transition": "150ms", "value_background": "rgba(229, 229, 229, 1)", "value_colors": [], "value_font_family": "Consolas, \"Liberation Mono\", Menlo, Courier, monospace", "value_font_size": 16, "value_label_font_family": "Consolas, \"Liberation Mono\", Menlo, Courier, monospace", "value_label_font_size": 10}, "title": null, "tooltip_border_radius": 0, "tooltip_fancy_mode": true, "truncate_label": null, "truncate_legend": null, "width": 200, "x_label_rotation": 0, "x_labels": ["2025/2", "2025/1", "2024/7", "2024/1", "2023/4", "2022/8", "2022/2", "2021/12", "2021/10", "2021/6"], "x_labels_major": null, "x_labels_major_count": null, "x_labels_major_every": null, "x_title": null, "xrange": null, "y_label_rotation": 0, "y_labels": null, "y_labels_major": null, "y_labels_major_count": null, "y_labels_major_every": null, "y_title": null, "zero": 0, "legends": [""]}</script></defs><title>Pygal</title><g class="graph line-graph vertical"><rect x="0" y="0" width="200" height="50" class="background" /><g transform="translate(20, 10)" class="plot"><rect x="0" y="0" width="170" height="30" class="background" /><g class="axis y always_show"><path d="M0.000000 30.000000 h170.000000" class="line" /><g class="guides"><path d="M0.000000 16.313371 h170.000000" class="guide line" /><text x="-5" y="19.813371380140552" class="">4</text><title>4</title></g><g class="guides"><path d="M0.000000 0.576923 h170.000000" class="guide line" /><text x="-5" y="4.07692307692308" class="">8</text><title>8</title></g></g><g class="series serie-0 color-0"><path d="M3.269231 28.115708 L3.341880 28.022614 3.414530 27.929523 3.487179 27.836439 3.559829 27.743362 3.632479 27.650298 3.705128 27.557248 3.777778 27.464215 3.850427 27.371202 3.923077 27.278213 3.995726 27.185250 4.068376 27.092315 4.141026 26.999413 4.213675 26.906545 4.286325 26.813715 4.358974 26.720925 4.431624 26.628179 4.504274 26.535479 4.576923 26.442828 4.649573 26.350230 4.722222 26.257686 4.794872 26.165200 4.867521 26.072775 4.940171 25.980414 5.012821 25.888119 5.085470 25.795894 5.158120 25.703741 5.230769 25.611663 5.303419 25.519664 5.376068 25.427745 5.448718 25.335911 5.521368 25.244163 5.594017 25.152505 5.666667 25.060940 5.739316 24.969470 5.811966 24.878098 5.884615 24.786828 5.957265 24.695662 6.029915 24.604603 6.102564 24.513654 6.175214 24.422818 6.247863 24.332098 6.320513 24.241496 6.393162 24.151016 6.465812 24.060661 6.538462 23.970433 6.611111 23.880335 6.683761 23.790370 6.756410 23.700541 6.829060 23.610851 6.901709 23.521303 6.974359 23.431899 7.047009 23.342644 7.119658 23.253538 7.192308 23.164586 7.264957 23.075791 7.337607 22.987154 7.410256 22.898680 7.482906 22.810371 7.555556 22.722229 7.628205 22.634258 7.700855 22.546461 7.773504 22.458841 7.846154 22.371400 7.918803 22.284141 7.991453 22.197067 8.064103 22.110182 8.136752 22.023487 8.209402 21.936987 8.282051 21.850683 8.354701 21.764579 8.427350 21.678678 8.500000 21.592982 8.572650 21.507495 8.645299 21.422218 8.717949 21.337156 8.790598 21.252311 8.863248 21.167686 8.935897 21.083284 9.008547 20.999108 9.081197 20.915160 9.153846 20.831444 9.226496 20.747962 9.299145 20.664717 9.371795 20.581713 9.444444 20.498952 9.517094 20.416437 9.589744 20.334171 9.662393 20.252156 9.735043 20.170396 9.807692 20.088894 9.880342 20.007653 9.952991 19.926674 10.025641 19.845962 10.098291 19.765519 10.170940 19.685349 10.243590 19.605453 10.316239 19.525835 10.388889 19.446497 10.461538 19.367444 10.534188 19.288677 10.606838 19.210199 10.679487 19.132014 10.752137 19.054124 10.824786 18.976531 10.897436 18.899240 10.970085 18.822253 11.042735 18.745573 11.115385 18.669202 11.188034 18.593144 11.260684 18.517402 11.333333 18.441977 11.405983 18.366874 11.478632 18.292095 11.551282 18.217644 11.623932 18.143522 11.696581 18.069733 11.769231 17.996279 11.841880 17.923165 11.914530 17.850392 11.987179 17.777963 12.059829 17.705881 12.132479 17.634150 12.205128 17.562772 12.277778 17.491750 12.350427 17.421087 12.423077 17.350785 12.495726 17.280848 12.568376 17.211279 12.641026 17.142080 12.713675 17.073255 12.786325 17.004806 12.858974 16.936736 12.931624 16.869048 13.004274 16.801745 13.076923 16.734829 13.149573 16.668305 13.222222 16.602174 13.294872 16.536440 13.367521 16.471105 13.440171 16.406172 13.512821 16.341644 13.585470 16.277525 13.658120 16.213817 13.730769 16.150522 13.803419 16.087644 13.876068 16.025186 13.948718 15.963151 14.021368 15.901541 14.094017 15.840359 14.166667 15.779608 14.239316 15.719292 14.311966 15.659413 14.384615 15.599973 14.457265 15.540976 14.529915 15.482426 14.602564 15.424323 14.675214 15.366672 14.747863 15.309476 14.820513 15.252737 14.893162 15.196458 14.965812 15.140642 15.038462 15.085292 15.111111 15.030411 15.183761 14.976002 15.256410 14.922067 15.329060 14.868610 15.401709 14.815634 15.474359 14.763140 15.547009 14.711133 15.619658 14.659615 15.692308 14.608590 15.764957 14.558059 15.837607 14.508025 15.910256 14.458493 15.982906 14.409464 16.055556 14.360942 16.128205 14.312929 16.200855 14.265428 16.273504 14.218442 16.346154 14.171975 16.418803 14.126028 16.491453 14.080606 16.564103 14.035710 16.636752 13.991343 16.709402 13.947510 16.782051 13.904211 16.854701 13.861451 16.927350 13.819233 17.000000 13.777558 17.072650 13.736430 17.145299 13.695853 17.217949 13.655828 17.290598 13.616358 17.363248 13.577448 17.435897 13.539099 17.508547 13.501314 17.581197 13.464096 17.653846 13.427449 17.726496 13.391375 17.799145 13.355876 17.871795 13.320957 17.944444 13.286619 18.017094 13.252866 18.089744 13.219700 18.162393 13.187125 18.235043 13.155143 18.307692 13.123757 18.380342 13.092971 18.452991 13.062786 18.525641 13.033207 18.598291 13.004235 18.670940 12.975874 18.743590 12.948126 18.816239 12.920995 18.888889 12.894483 18.961538 12.868594 19.034188 12.843329 19.106838 12.818693 19.179487 12.794688 19.252137 12.771316 19.324786 12.748581 19.397436 12.726486 19.470085 12.705033 19.542735 12.684226 19.615385 12.664067 19.688034 12.644559 19.760684 12.625706 19.833333 12.607509 19.905983 12.589972 19.978632 12.573098 20.051282 12.556890 20.123932 12.541350 20.196581 12.526482 20.269231 12.512288 20.341880 12.498771 20.414530 12.485935 20.487179 12.473781 20.559829 12.462314 20.632479 12.451535 20.705128 12.441448 20.777778 12.432056 20.850427 12.423361 20.923077 12.415366 20.995726 12.408075 21.068376 12.401490 21.141026 12.395614 21.213675 12.390450 21.286325 12.386001 21.358974 12.382270 21.431624 12.379259 21.504274 12.376971 21.576923 12.375403 21.649573 12.374550 21.722222 12.374409 21.794872 12.374976 21.867521 12.376247 21.940171 12.378218 22.012821 12.380886 22.085470 12.384246 22.158120 12.388295 22.230769 12.393028 22.303419 12.398441 22.376068 12.404532 22.448718 12.411295 22.521368 12.418728 22.594017 12.426826 22.666667 12.435584 22.739316 12.445001 22.811966 12.455070 22.884615 12.465789 22.957265 12.477154 23.029915 12.489160 23.102564 12.501805 23.175214 12.515083 23.247863 12.528991 23.320513 12.543526 23.393162 12.558683 23.465812 12.574458 23.538462 12.590847 23.611111 12.607847 23.683761 12.625454 23.756410 12.643664 23.829060 12.662472 23.901709 12.681875 23.974359 12.701870 24.047009 12.722452 24.119658 12.743616 24.192308 12.765361 24.264957 12.787681 24.337607 12.810572 24.410256 12.834031 24.482906 12.858054 24.555556 12.882637 24.628205 12.907776 24.700855 12.933467 24.773504 12.959706 24.846154 12.986490 24.918803 13.013814 24.991453 13.041675 25.064103 13.070068 25.136752 13.098990 25.209402 13.128437 25.282051 13.158404 25.354701 13.188889 25.427350 13.219887 25.500000 13.251394 25.572650 13.283407 25.645299 13.315921 25.717949 13.348933 25.790598 13.382438 25.863248 13.416433 25.935897 13.450914 26.008547 13.485877 26.081197 13.521318 26.153846 13.557233 26.226496 13.593619 26.299145 13.630471 26.371795 13.667785 26.444444 13.705559 26.517094 13.743786 26.589744 13.782465 26.662393 13.821591 26.735043 13.861159 26.807692 13.901167 26.880342 13.941610 26.952991 13.982484 27.025641 14.023786 27.098291 14.065511 27.170940 14.107656 27.243590 14.150217 27.316239 14.193189 27.388889 14.236570 27.461538 14.280354 27.534188 14.324539 27.606838 14.369120 27.679487 14.414093 27.752137 14.459455 27.824786 14.505202 27.897436 14.551329 27.970085 14.597833 28.042735 14.644709 28.115385 14.691955 28.188034 14.739566 28.260684 14.787538 28.333333 14.835868 28.405983 14.884551 28.478632 14.933583 28.551282 14.982961 28.623932 15.032681 28.696581 15.082738 28.769231 15.133129 28.841880 15.183851 28.914530 15.234899 28.987179 15.286268 29.059829 15.337957 29.132479 15.389959 29.205128 15.442273 29.277778 15.494892 29.350427 15.547815 29.423077 15.601037 29.495726 15.654553 29.568376 15.708361 29.641026 15.762455 29.713675 15.816833 29.786325 15.871491 29.858974 15.926424 29.931624 15.981628 30.004274 16.037100 30.076923 16.092836 30.149573 16.148832 30.222222 16.205084 30.294872 16.261588 30.367521 16.318340 30.440171 16.375337 30.512821 16.432574 30.585470 16.490047 30.658120 16.547753 30.730769 16.605688 30.803419 16.663848 30.876068 16.722228 30.948718 16.780826 31.021368 16.839637 31.094017 16.898657 31.166667 16.957882 31.239316 17.017309 31.311966 17.076933 31.384615 17.136752 31.457265 17.196759 31.529915 17.256953 31.602564 17.317329 31.675214 17.377883 31.747863 17.438611 31.820513 17.499509 31.893162 17.560574 31.965812 17.621801 32.038462 17.683186 32.111111 17.744727 32.183761 17.806418 32.256410 17.868256 32.329060 17.930238 32.401709 17.992358 32.474359 18.054613 32.547009 18.117000 32.619658 18.179515 32.692308 18.242152 32.764957 18.304910 32.837607 18.367783 32.910256 18.430768 32.982906 18.493861 33.055556 18.557058 33.128205 18.620355 33.200855 18.683749 33.273504 18.747235 33.346154 18.810809 33.418803 18.874468 33.491453 18.938207 33.564103 19.002024 33.636752 19.065913 33.709402 19.129871 33.782051 19.193894 33.854701 19.257979 33.927350 19.322121 34.000000 19.386316 34.072650 19.450560 34.145299 19.514851 34.217949 19.579183 34.290598 19.643553 34.363248 19.707956 34.435897 19.772390 34.508547 19.836850 34.581197 19.901332 34.653846 19.965833 34.726496 20.030347 34.799145 20.094873 34.871795 20.159405 34.944444 20.223940 35.017094 20.288473 35.089744 20.353002 35.162393 20.417522 35.235043 20.482029 35.307692 20.546519 35.380342 20.610988 35.452991 20.675433 35.525641 20.739850 35.598291 20.804234 35.670940 20.868582 35.743590 20.932890 35.816239 20.997154 35.888889 21.061370 35.961538 21.125534 36.034188 21.189643 36.106838 21.253692 36.179487 21.317677 36.252137 21.381595 36.324786 21.445442 36.397436 21.509214 36.470085 21.572906 36.542735 21.636516 36.615385 21.700038 36.688034 21.763470 36.760684 21.826808 36.833333 21.890046 36.905983 21.953183 36.978632 22.016213 37.051282 22.079132 37.123932 22.141938 37.196581 22.204625 37.269231 22.267191 37.341880 22.329631 37.414530 22.391941 37.487179 22.454117 37.559829 22.516156 37.632479 22.578054 37.705128 22.639806 37.777778 22.701409 37.850427 22.762859 37.923077 22.824152 37.995726 22.885284 38.068376 22.946251 38.141026 23.007049 38.213675 23.067675 38.286325 23.128125 38.358974 23.188394 38.431624 23.248479 38.504274 23.308375 38.576923 23.368080 38.649573 23.427588 38.722222 23.486897 38.794872 23.546002 38.867521 23.604900 38.940171 23.663585 39.012821 23.722056 39.085470 23.780307 39.158120 23.838335 39.230769 23.896135 39.303419 23.953705 39.376068 24.011040 39.448718 24.068136 39.521368 24.124989 39.594017 24.181596 39.666667 24.237952 39.739316 24.294057 39.811966 24.349910 39.884615 24.405510 39.957265 24.460855 40.029915 24.515946 40.102564 24.570780 40.175214 24.625358 40.247863 24.679678 40.320513 24.733739 40.393162 24.787541 40.465812 24.841082 40.538462 24.894362 40.611111 24.947380 40.683761 25.000134 40.756410 25.052624 40.829060 25.104850 40.901709 25.156809 40.974359 25.208502 41.047009 25.259927 41.119658 25.311083 41.192308 25.361970 41.264957 25.412586 41.337607 25.462931 41.410256 25.513004 41.482906 25.562803 41.555556 25.612329 41.628205 25.661580 41.700855 25.710554 41.773504 25.759252 41.846154 25.807673 41.918803 25.855815 41.991453 25.903677 42.064103 25.951259 42.136752 25.998559 42.209402 26.045578 42.282051 26.092313 42.354701 26.138764 42.427350 26.184931 42.500000 26.230811 42.572650 26.276405 42.645299 26.321711 42.717949 26.366729 42.790598 26.411457 42.863248 26.455895 42.935897 26.500041 43.008547 26.543896 43.081197 26.587457 43.153846 26.630725 43.226496 26.673697 43.299145 26.716374 43.371795 26.758754 43.444444 26.800836 43.517094 26.842620 43.589744 26.884105 43.662393 26.925289 43.735043 26.966172 43.807692 27.006753 43.880342 27.047031 43.952991 27.087005 44.025641 27.126674 44.098291 27.166037 44.170940 27.205094 44.243590 27.243843 44.316239 27.282284 44.388889 27.320415 44.461538 27.358236 44.534188 27.395746 44.606838 27.432944 44.679487 27.469829 44.752137 27.506400 44.824786 27.542656 44.897436 27.578597 44.970085 27.614220 45.042735 27.649527 45.115385 27.684515 45.188034 27.719183 45.260684 27.753532 45.333333 27.787559 45.405983 27.821264 45.478632 27.854646 45.551282 27.887705 45.623932 27.920438 45.696581 27.952846 45.769231 27.984928 45.841880 28.016682 45.914530 28.048107 45.987179 28.079204 46.059829 28.109970 46.132479 28.140405 46.205128 28.170508 46.277778 28.200278 46.350427 28.229714 46.423077 28.258815 46.495726 28.287581 46.568376 28.316011 46.641026 28.344103 46.713675 28.371856 46.786325 28.399271 46.858974 28.426345 46.931624 28.453078 47.004274 28.479469 47.076923 28.505518 47.149573 28.531222 47.222222 28.556582 47.294872 28.581596 47.367521 28.606264 47.440171 28.630585 47.512821 28.654557 47.585470 28.678180 47.658120 28.701453 47.730769 28.724374 47.803419 28.746944 47.876068 28.769161 47.948718 28.791025 48.021368 28.812533 48.094017 28.833686 48.166667 28.854483 48.239316 28.874922 48.311966 28.895004 48.384615 28.914725 48.457265 28.934087 48.529915 28.953088 48.602564 28.971727 48.675214 28.990003 48.747863 29.007916 48.820513 29.025464 48.893162 29.042646 48.965812 29.059462 49.038462 29.075911 49.111111 29.091991 49.183761 29.107702 49.256410 29.123044 49.329060 29.138014 49.401709 29.152613 49.474359 29.166838 49.547009 29.180690 49.619658 29.194168 49.692308 29.207270 49.764957 29.219996 49.837607 29.232344 49.910256 29.244314 49.982906 29.255906 50.055556 29.267117 50.128205 29.277947 50.200855 29.288396 50.273504 29.298461 50.346154 29.308144 50.418803 29.317441 50.491453 29.326353 50.564103 29.334879 50.636752 29.343018 50.709402 29.350768 50.782051 29.358130 50.854701 29.365101 50.927350 29.371682 51.000000 29.377871 51.072650 29.383667 51.145299 29.389070 51.217949 29.394078 51.290598 29.398691 51.363248 29.402907 51.435897 29.406727 51.508547 29.410148 51.581197 29.413170 51.653846 29.415792 51.726496 29.418014 51.799145 29.419833 51.871795 29.421250 51.944444 29.422264 52.017094 29.422873 52.089744 29.423077 52.162393 29.422874 52.235043 29.422265 52.307692 29.421247 52.380342 29.419820 52.452991 29.417984 52.525641 29.415737 52.598291 29.413078 52.670940 29.410006 52.743590 29.406521 52.816239 29.402622 52.888889 29.398307 52.961538 29.393576 53.034188 29.388428 53.106838 29.382862 53.179487 29.376876 53.252137 29.370472 53.324786 29.363646 53.397436 29.356399 53.470085 29.348729 53.542735 29.340636 53.615385 29.332118 53.688034 29.323175 53.760684 29.313806 53.833333 29.304010 53.905983 29.293786 53.978632 29.283133 54.051282 29.272050 54.123932 29.260536 54.196581 29.248591 54.269231 29.236214 54.341880 29.223402 54.414530 29.210157 54.487179 29.196476 54.559829 29.182360 54.632479 29.167806 54.705128 29.152814 54.777778 29.137384 54.850427 29.121513 54.923077 29.105202 54.995726 29.088450 55.068376 29.071255 55.141026 29.053617 55.213675 29.035534 55.286325 29.017006 55.358974 28.998032 55.431624 28.978611 55.504274 28.958742 55.576923 28.938425 55.649573 28.917657 55.722222 28.896439 55.794872 28.874770 55.867521 28.852648 55.940171 28.830072 56.012821 28.807043 56.085470 28.783558 56.158120 28.759618 56.230769 28.735220 56.303419 28.710364 56.376068 28.685050 56.448718 28.659276 56.521368 28.633041 56.594017 28.606345 56.666667 28.579187 56.739316 28.551565 56.811966 28.523479 56.884615 28.494928 56.957265 28.465911 57.029915 28.436427 57.102564 28.406475 57.175214 28.376055 57.247863 28.345165 57.320513 28.313804 57.393162 28.281972 57.465812 28.249667 57.538462 28.216890 57.611111 28.183638 57.683761 28.149911 57.756410 28.115708 57.829060 28.081029 57.901709 28.045877 57.974359 28.010258 58.047009 27.974175 58.119658 27.937634 58.192308 27.900638 58.264957 27.863192 58.337607 27.825301 58.410256 27.786969 58.482906 27.748201 58.555556 27.709000 58.628205 27.669372 58.700855 27.629322 58.773504 27.588852 58.846154 27.547969 58.918803 27.506677 58.991453 27.464979 59.064103 27.422881 59.136752 27.380388 59.209402 27.337502 59.282051 27.294230 59.354701 27.250575 59.427350 27.206543 59.500000 27.162137 59.572650 27.117362 59.645299 27.072222 59.717949 27.026723 59.790598 26.980868 59.863248 26.934662 59.935897 26.888110 60.008547 26.841216 60.081197 26.793984 60.153846 26.746419 60.226496 26.698526 60.299145 26.650309 60.371795 26.601772 60.444444 26.552920 60.517094 26.503758 60.589744 26.454290 60.662393 26.404520 60.735043 26.354453 60.807692 26.304094 60.880342 26.253447 60.952991 26.202516 61.025641 26.151306 61.098291 26.099822 61.170940 26.048068 61.243590 25.996048 61.316239 25.943767 61.388889 25.891229 61.461538 25.838440 61.534188 25.785403 61.606838 25.732123 61.679487 25.678604 61.752137 25.624852 61.824786 25.570869 61.897436 25.516662 61.970085 25.462234 62.042735 25.407590 62.115385 25.352735 62.188034 25.297672 62.260684 25.242407 62.333333 25.186944 62.405983 25.131287 62.478632 25.075442 62.551282 25.019411 62.623932 24.963201 62.696581 24.906814 62.769231 24.850257 62.841880 24.793533 62.914530 24.736648 62.987179 24.679604 63.059829 24.622407 63.132479 24.565062 63.205128 24.507573 63.277778 24.449944 63.350427 24.392180 63.423077 24.334285 63.495726 24.276264 63.568376 24.218122 63.641026 24.159862 63.713675 24.101490 63.786325 24.043010 63.858974 23.984426 63.931624 23.925742 64.004274 23.866965 64.076923 23.808097 64.149573 23.749143 64.222222 23.690108 64.294872 23.630997 64.367521 23.571813 64.440171 23.512562 64.512821 23.453247 64.585470 23.393874 64.658120 23.334447 64.730769 23.274970 64.803419 23.215448 64.876068 23.155885 64.948718 23.096286 65.021368 23.036655 65.094017 22.976997 65.166667 22.917316 65.239316 22.857618 65.311966 22.797905 65.384615 22.738183 65.457265 22.678457 65.529915 22.618730 65.602564 22.559008 65.675214 22.499294 65.747863 22.439594 65.820513 22.379911 65.893162 22.320251 65.965812 22.260617 66.038462 22.201015 66.111111 22.141448 66.183761 22.081922 66.256410 22.022440 66.329060 21.963008 66.401709 21.903630 66.474359 21.844309 66.547009 21.785052 66.619658 21.725861 66.692308 21.666743 66.764957 21.607700 66.837607 21.548739 66.910256 21.489862 66.982906 21.431076 67.055556 21.372383 67.128205 21.313789 67.200855 21.255299 67.273504 21.196916 67.346154 21.138645 67.418803 21.080491 67.491453 21.022458 67.564103 20.964551 67.636752 20.906774 67.709402 20.849132 67.782051 20.791629 67.854701 20.734270 67.927350 20.677059 68.000000 20.620000 68.072650 20.563099 68.145299 20.506359 68.217949 20.449786 68.290598 20.393383 68.363248 20.337155 68.435897 20.281107 68.508547 20.225244 68.581197 20.169568 68.653846 20.114086 68.726496 20.058802 68.799145 20.003720 68.871795 19.948844 68.944444 19.894180 69.017094 19.839731 69.089744 19.785502 69.162393 19.731498 69.235043 19.677723 69.307692 19.624181 69.380342 19.570878 69.452991 19.517818 69.525641 19.465004 69.598291 19.412442 69.670940 19.360136 69.743590 19.308091 69.816239 19.256311 69.888889 19.204800 69.961538 19.153564 70.034188 19.102606 70.106838 19.051931 70.179487 19.001544 70.252137 18.951449 70.324786 18.901650 70.397436 18.852153 70.470085 18.802961 70.542735 18.754079 70.615385 18.705512 70.688034 18.657263 70.760684 18.609339 70.833333 18.561742 70.905983 18.514478 70.978632 18.467551 71.051282 18.420965 71.123932 18.374726 71.196581 18.328837 71.269231 18.283303 71.341880 18.238129 71.414530 18.193318 71.487179 18.148876 71.559829 18.104808 71.632479 18.061116 71.705128 18.017807 71.777778 17.974884 71.850427 17.932352 71.923077 17.890216 71.995726 17.848480 72.068376 17.807148 72.141026 17.766225 72.213675 17.725716 72.286325 17.685625 72.358974 17.645956 72.431624 17.606714 72.504274 17.567904 72.576923 17.529529 72.649573 17.491595 72.722222 17.454106 72.794872 17.417067 72.867521 17.380481 72.940171 17.344354 73.012821 17.308690 73.085470 17.273493 73.158120 17.238769 73.230769 17.204520 73.303419 17.170753 73.376068 17.137471 73.448718 17.104679 73.521368 17.072382 73.594017 17.040583 73.666667 17.009288 73.739316 16.978501 73.811966 16.948226 73.884615 16.918468 73.957265 16.889231 74.029915 16.860521 74.102564 16.832341 74.175214 16.804695 74.247863 16.777589 74.320513 16.751027 74.393162 16.725014 74.465812 16.699553 74.538462 16.674650 74.611111 16.650308 74.683761 16.626533 74.756410 16.603329 74.829060 16.580700 74.901709 16.558651 74.974359 16.537187 75.047009 16.516311 75.119658 16.496029 75.192308 16.476344 75.264957 16.457262 75.337607 16.438787 75.410256 16.420923 75.482906 16.403675 75.555556 16.387047 75.628205 16.371045 75.700855 16.355671 75.773504 16.340931 75.846154 16.326830 75.918803 16.313371 75.991453 16.300559 76.064103 16.288390 76.136752 16.276862 76.209402 16.265970 76.282051 16.255712 76.354701 16.246084 76.427350 16.237082 76.500000 16.228703 76.572650 16.220944 76.645299 16.213800 76.717949 16.207269 76.790598 16.201347 76.863248 16.196031 76.935897 16.191316 77.008547 16.187200 77.081197 16.183679 77.153846 16.180750 77.226496 16.178409 77.299145 16.176652 77.371795 16.175476 77.444444 16.174878 77.517094 16.174854 77.589744 16.175401 77.662393 16.176515 77.735043 16.178192 77.807692 16.180430 77.880342 16.183225 77.952991 16.186572 78.025641 16.190470 78.098291 16.194913 78.170940 16.199900 78.243590 16.205426 78.316239 16.211487 78.388889 16.218081 78.461538 16.225204 78.534188 16.232851 78.606838 16.241021 78.679487 16.249709 78.752137 16.258912 78.824786 16.268627 78.897436 16.278849 78.970085 16.289576 79.042735 16.300804 79.115385 16.312529 79.188034 16.324748 79.260684 16.337457 79.333333 16.350654 79.405983 16.364334 79.478632 16.378494 79.551282 16.393131 79.623932 16.408240 79.696581 16.423820 79.769231 16.439865 79.841880 16.456373 79.914530 16.473340 79.987179 16.490762 80.059829 16.508637 80.132479 16.526961 80.205128 16.545729 80.277778 16.564940 80.350427 16.584588 80.423077 16.604671 80.495726 16.625186 80.568376 16.646128 80.641026 16.667494 80.713675 16.689281 80.786325 16.711486 80.858974 16.734104 80.931624 16.757133 81.004274 16.780568 81.076923 16.804407 81.149573 16.828645 81.222222 16.853280 81.294872 16.878308 81.367521 16.903725 81.440171 16.929529 81.512821 16.955714 81.585470 16.982279 81.658120 17.009219 81.730769 17.036531 81.803419 17.064211 81.876068 17.092257 81.948718 17.120664 82.021368 17.149429 82.094017 17.178548 82.166667 17.208019 82.239316 17.237837 82.311966 17.267999 82.384615 17.298502 82.457265 17.329342 82.529915 17.360516 82.602564 17.392019 82.675214 17.423850 82.747863 17.456003 82.820513 17.488477 82.893162 17.521266 82.965812 17.554368 83.038462 17.587780 83.111111 17.621497 83.183761 17.655516 83.256410 17.689835 83.329060 17.724448 83.401709 17.759353 83.474359 17.794547 83.547009 17.830026 83.619658 17.865785 83.692308 17.901823 83.764957 17.938135 83.837607 17.974718 83.910256 18.011568 83.982906 18.048683 84.055556 18.086058 84.128205 18.123689 84.200855 18.161574 84.273504 18.199709 84.346154 18.238091 84.418803 18.276716 84.491453 18.315580 84.564103 18.354680 84.636752 18.394013 84.709402 18.433575 84.782051 18.473362 84.854701 18.513372 84.927350 18.553600 85.000000 18.594043 85.072650 18.634698 85.145299 18.675561 85.217949 18.716629 85.290598 18.757897 85.363248 18.799364 85.435897 18.841025 85.508547 18.882876 85.581197 18.924915 85.653846 18.967138 85.726496 19.009540 85.799145 19.052120 85.871795 19.094873 85.944444 19.137796 86.017094 19.180885 86.089744 19.224137 86.162393 19.267548 86.235043 19.311115 86.307692 19.354834 86.380342 19.398703 86.452991 19.442717 86.525641 19.486872 86.598291 19.531166 86.670940 19.575596 86.743590 19.620156 86.816239 19.664845 86.888889 19.709658 86.961538 19.754592 87.034188 19.799644 87.106838 19.844809 87.179487 19.890086 87.252137 19.935469 87.324786 19.980956 87.397436 20.026543 87.470085 20.072227 87.542735 20.118003 87.615385 20.163870 87.688034 20.209823 87.760684 20.255858 87.833333 20.301972 87.905983 20.348162 87.978632 20.394425 88.051282 20.440756 88.123932 20.487152 88.196581 20.533611 88.269231 20.580127 88.341880 20.626698 88.414530 20.673321 88.487179 20.719991 88.559829 20.766706 88.632479 20.813461 88.705128 20.860254 88.777778 20.907081 88.850427 20.953938 88.923077 21.000822 88.995726 21.047730 89.068376 21.094657 89.141026 21.141601 89.213675 21.188558 89.286325 21.235525 89.358974 21.282497 89.431624 21.329472 89.504274 21.376446 89.576923 21.423415 89.649573 21.470377 89.722222 21.517327 89.794872 21.564262 89.867521 21.611179 89.940171 21.658074 90.012821 21.704943 90.085470 21.751784 90.158120 21.798592 90.230769 21.845365 90.303419 21.892098 90.376068 21.938788 90.448718 21.985432 90.521368 22.032027 90.594017 22.078568 90.666667 22.125052 90.739316 22.171476 90.811966 22.217837 90.884615 22.264130 90.957265 22.310352 91.029915 22.356501 91.102564 22.402571 91.175214 22.448561 91.247863 22.494466 91.320513 22.540283 91.393162 22.586008 91.465812 22.631638 91.538462 22.677170 91.611111 22.722599 91.683761 22.767923 91.756410 22.813138 91.829060 22.858240 91.901709 22.903227 91.974359 22.948094 92.047009 22.992838 92.119658 23.037455 92.192308 23.081943 92.264957 23.126297 92.337607 23.170515 92.410256 23.214591 92.482906 23.258524 92.555556 23.302310 92.628205 23.345945 92.700855 23.389425 92.773504 23.432748 92.846154 23.475909 92.918803 23.518906 92.991453 23.561734 93.064103 23.604391 93.136752 23.646872 93.209402 23.689175 93.282051 23.731295 93.354701 23.773230 93.427350 23.814975 93.500000 23.856528 93.572650 23.897885 93.645299 23.939041 93.717949 23.979995 93.790598 24.020743 93.863248 24.061280 93.935897 24.101603 94.008547 24.141710 94.081197 24.181596 94.153846 24.221258 94.226496 24.260697 94.299145 24.299912 94.371795 24.338905 94.444444 24.377675 94.517094 24.416223 94.589744 24.454549 94.662393 24.492654 94.735043 24.530538 94.807692 24.568201 94.880342 24.605644 94.952991 24.642868 95.025641 24.679871 95.098291 24.716656 95.170940 24.753222 95.243590 24.789569 95.316239 24.825699 95.388889 24.861611 95.461538 24.897306 95.534188 24.932784 95.606838 24.968046 95.679487 25.003091 95.752137 25.037921 95.824786 25.072536 95.897436 25.106935 95.970085 25.141121 96.042735 25.175092 96.115385 25.208849 96.188034 25.242393 96.260684 25.275724 96.333333 25.308842 96.405983 25.341748 96.478632 25.374442 96.551282 25.406925 96.623932 25.439197 96.696581 25.471258 96.769231 25.503108 96.841880 25.534749 96.914530 25.566180 96.987179 25.597402 97.059829 25.628415 97.132479 25.659220 97.205128 25.689816 97.277778 25.720205 97.350427 25.750387 97.423077 25.780362 97.495726 25.810130 97.568376 25.839692 97.641026 25.869048 97.713675 25.898199 97.786325 25.927145 97.858974 25.955887 97.931624 25.984424 98.004274 26.012757 98.076923 26.040887 98.149573 26.068813 98.222222 26.096537 98.294872 26.124059 98.367521 26.151379 98.440171 26.178497 98.512821 26.205414 98.585470 26.232130 98.658120 26.258645 98.730769 26.284961 98.803419 26.311077 98.876068 26.336993 98.948718 26.362711 99.021368 26.388230 99.094017 26.413552 99.166667 26.438675 99.239316 26.463601 99.311966 26.488330 99.384615 26.512862 99.457265 26.537198 99.529915 26.561338 99.602564 26.585283 99.675214 26.609033 99.747863 26.632588 99.820513 26.655948 99.893162 26.679115 99.965812 26.702088 100.038462 26.724868 100.111111 26.747455 100.183761 26.769849 100.256410 26.792052 100.329060 26.814063 100.401709 26.835883 100.474359 26.857511 100.547009 26.878949 100.619658 26.900197 100.692308 26.921256 100.764957 26.942125 100.837607 26.962805 100.910256 26.983296 100.982906 27.003599 101.055556 27.023714 101.128205 27.043642 101.200855 27.063382 101.273504 27.082936 101.346154 27.102304 101.418803 27.121485 101.491453 27.140481 101.564103 27.159292 101.636752 27.177918 101.709402 27.196360 101.782051 27.214617 101.854701 27.232691 101.927350 27.250581 102.000000 27.268289 102.072650 27.285814 102.145299 27.303157 102.217949 27.320318 102.290598 27.337298 102.363248 27.354097 102.435897 27.370715 102.508547 27.387153 102.581197 27.403411 102.653846 27.419490 102.726496 27.435389 102.799145 27.451110 102.871795 27.466652 102.944444 27.482017 103.017094 27.497204 103.089744 27.512213 103.162393 27.527046 103.235043 27.541703 103.307692 27.556183 103.380342 27.570488 103.452991 27.584617 103.525641 27.598572 103.598291 27.612352 103.670940 27.625958 103.743590 27.639390 103.816239 27.652648 103.888889 27.665734 103.961538 27.678647 104.034188 27.691388 104.106838 27.703957 104.179487 27.716354 104.252137 27.728581 104.324786 27.740636 104.397436 27.752522 104.470085 27.764237 104.542735 27.775783 104.615385 27.787159 104.688034 27.798367 104.760684 27.809406 104.833333 27.820277 104.905983 27.830981 104.978632 27.841517 105.051282 27.851887 105.123932 27.862090 105.196581 27.872126 105.269231 27.881997 105.341880 27.891703 105.414530 27.901243 105.487179 27.910619 105.559829 27.919831 105.632479 27.928878 105.705128 27.937763 105.777778 27.946484 105.850427 27.955042 105.923077 27.963439 105.995726 27.971673 106.068376 27.979745 106.141026 27.987657 106.213675 27.995407 106.286325 28.002997 106.358974 28.010427 106.431624 28.017698 106.504274 28.024809 106.576923 28.031761 106.649573 28.038555 106.722222 28.045190 106.794872 28.051668 106.867521 28.057988 106.940171 28.064152 107.012821 28.070158 107.085470 28.076009 107.158120 28.081703 107.230769 28.087242 107.303419 28.092626 107.376068 28.097856 107.448718 28.102930 107.521368 28.107851 107.594017 28.112619 107.666667 28.117233 107.739316 28.121694 107.811966 28.126003 107.884615 28.130160 107.957265 28.134165 108.029915 28.138019 108.102564 28.141722 108.175214 28.145274 108.247863 28.148677 108.320513 28.151929 108.393162 28.155032 108.465812 28.157986 108.538462 28.160792 108.611111 28.163449 108.683761 28.165958 108.756410 28.168320 108.829060 28.170535 108.901709 28.172603 108.974359 28.174525 109.047009 28.176300 109.119658 28.177930 109.192308 28.179415 109.264957 28.180756 109.337607 28.181951 109.410256 28.183003 109.482906 28.183911 109.555556 28.184675 109.628205 28.185297 109.700855 28.185776 109.773504 28.186113 109.846154 28.186308 109.918803 28.186362 109.991453 28.186275 110.064103 28.186047 110.136752 28.185679 110.209402 28.185171 110.282051 28.184524 110.354701 28.183737 110.427350 28.182812 110.500000 28.181748 110.572650 28.180547 110.645299 28.179208 110.717949 28.177731 110.790598 28.176118 110.863248 28.174368 110.935897 28.172483 111.008547 28.170461 111.081197 28.168305 111.153846 28.166013 111.226496 28.163587 111.299145 28.161027 111.371795 28.158332 111.444444 28.155505 111.517094 28.152545 111.589744 28.149451 111.662393 28.146226 111.735043 28.142869 111.807692 28.139380 111.880342 28.135760 111.952991 28.132010 112.025641 28.128129 112.098291 28.124118 112.170940 28.119977 112.243590 28.115708 112.316239 28.111309 112.388889 28.106782 112.461538 28.102127 112.534188 28.097345 112.606838 28.092436 112.679487 28.087400 112.752137 28.082238 112.824786 28.076950 112.897436 28.071537 112.970085 28.066000 113.042735 28.060338 113.115385 28.054552 113.188034 28.048643 113.260684 28.042611 113.333333 28.036456 113.405983 28.030179 113.478632 28.023781 113.551282 28.017261 113.623932 28.010621 113.696581 28.003861 113.769231 27.996981 113.841880 27.989981 113.914530 27.982862 113.987179 27.975625 114.059829 27.968271 114.132479 27.960798 114.205128 27.953208 114.277778 27.945502 114.350427 27.937680 114.423077 27.929742 114.495726 27.921688 114.568376 27.913520 114.641026 27.905237 114.713675 27.896841 114.786325 27.888331 114.858974 27.879708 114.931624 27.870972 115.004274 27.862124 115.076923 27.853165 115.149573 27.844094 115.222222 27.834912 115.294872 27.825621 115.367521 27.816219 115.440171 27.806708 115.512821 27.797088 115.585470 27.787359 115.658120 27.777523 115.730769 27.767578 115.803419 27.757527 115.876068 27.747369 115.948718 27.737104 116.021368 27.726734 116.094017 27.716259 116.166667 27.705678 116.239316 27.694993 116.311966 27.684204 116.384615 27.673312 116.457265 27.662316 116.529915 27.651218 116.602564 27.640017 116.675214 27.628715 116.747863 27.617312 116.820513 27.605807 116.893162 27.594203 116.965812 27.582498 117.038462 27.570694 117.111111 27.558791 117.183761 27.546789 117.256410 27.534689 117.329060 27.522491 117.401709 27.510196 117.474359 27.497805 117.547009 27.485317 117.619658 27.472733 117.692308 27.460054 117.764957 27.447279 117.837607 27.434411 117.910256 27.421448 117.982906 27.408391 118.055556 27.395242 118.128205 27.381999 118.200855 27.368665 118.273504 27.355238 118.346154 27.341720 118.418803 27.328111 118.491453 27.314412 118.564103 27.300623 118.636752 27.286744 118.709402 27.272776 118.782051 27.258720 118.854701 27.244575 118.927350 27.230342 119.000000 27.216022 119.072650 27.201616 119.145299 27.187123 119.217949 27.172544 119.290598 27.157879 119.363248 27.143129 119.435897 27.128295 119.508547 27.113377 119.581197 27.098375 119.653846 27.083289 119.726496 27.068121 119.799145 27.052871 119.871795 27.037538 119.944444 27.022125 120.017094 27.006630 120.089744 26.991055 120.162393 26.975399 120.235043 26.959664 120.307692 26.943850 120.380342 26.927957 120.452991 26.911986 120.525641 26.895937 120.598291 26.879810 120.670940 26.863607 120.743590 26.847327 120.816239 26.830971 120.888889 26.814540 120.961538 26.798033 121.034188 26.781452 121.106838 26.764797 121.179487 26.748067 121.252137 26.731265 121.324786 26.714389 121.397436 26.697442 121.470085 26.680422 121.542735 26.663331 121.615385 26.646168 121.688034 26.628935 121.760684 26.611632 121.833333 26.594259 121.905983 26.576817 121.978632 26.559306 122.051282 26.541727 122.123932 26.524080 122.196581 26.506365 122.269231 26.488584 122.341880 26.470736 122.414530 26.452821 122.487179 26.434841 122.559829 26.416796 122.632479 26.398687 122.705128 26.380512 122.777778 26.362275 122.850427 26.343973 122.923077 26.325609 122.995726 26.307182 123.068376 26.288693 123.141026 26.270143 123.213675 26.251531 123.286325 26.232859 123.358974 26.214127 123.431624 26.195335 123.504274 26.176483 123.576923 26.157573 123.649573 26.138604 123.722222 26.119577 123.794872 26.100493 123.867521 26.081351 123.940171 26.062153 124.012821 26.042899 124.085470 26.023589 124.158120 26.004224 124.230769 25.984804 124.303419 25.965330 124.376068 25.945802 124.448718 25.926220 124.521368 25.906585 124.594017 25.886898 124.666667 25.867159 124.739316 25.847368 124.811966 25.827525 124.884615 25.807632 124.957265 25.787689 125.029915 25.767696 125.102564 25.747653 125.175214 25.727562 125.247863 25.707422 125.320513 25.687234 125.393162 25.666998 125.465812 25.646715 125.538462 25.626386 125.611111 25.606010 125.683761 25.585589 125.756410 25.565122 125.829060 25.544610 125.901709 25.524054 125.974359 25.503454 126.047009 25.482810 126.119658 25.462124 126.192308 25.441394 126.264957 25.420623 126.337607 25.399809 126.410256 25.378955 126.482906 25.358060 126.555556 25.337124 126.628205 25.316148 126.700855 25.295133 126.773504 25.274079 126.846154 25.252986 126.918803 25.231855 126.991453 25.210687 127.064103 25.189481 127.136752 25.168239 127.209402 25.146960 127.282051 25.125645 127.354701 25.104295 127.427350 25.082910 127.500000 25.061491 127.572650 25.040037 127.645299 25.018550 127.717949 24.997029 127.790598 24.975476 127.863248 24.953891 127.935897 24.932274 128.008547 24.910626 128.081197 24.888946 128.153846 24.867237 128.226496 24.845497 128.299145 24.823727 128.371795 24.801929 128.444444 24.780102 128.517094 24.758247 128.589744 24.736364 128.662393 24.714454 128.735043 24.692517 128.807692 24.670553 128.880342 24.648564 128.952991 24.626549 129.025641 24.604509 129.098291 24.582444 129.170940 24.560356 129.243590 24.538244 129.316239 24.516108 129.388889 24.493950 129.461538 24.471769 129.534188 24.449567 129.606838 24.427343 129.679487 24.405098 129.752137 24.382833 129.824786 24.360547 129.897436 24.338242 129.970085 24.315918 130.042735 24.293575 130.115385 24.271214 130.188034 24.248835 130.260684 24.226438 130.333333 24.204025 130.405983 24.181596 130.478632 24.159150 130.551282 24.136687 130.623932 24.114207 130.696581 24.091709 130.769231 24.069193 130.841880 24.046656 130.914530 24.024100 130.987179 24.001524 131.059829 23.978925 131.132479 23.956305 131.205128 23.933662 131.277778 23.910995 131.350427 23.888305 131.423077 23.865589 131.495726 23.842849 131.568376 23.820082 131.641026 23.797288 131.713675 23.774467 131.786325 23.751617 131.858974 23.728739 131.931624 23.705831 132.004274 23.682893 132.076923 23.659924 132.149573 23.636924 132.222222 23.613891 132.294872 23.590826 132.367521 23.567727 132.440171 23.544594 132.512821 23.521425 132.585470 23.498222 132.658120 23.474982 132.730769 23.451705 132.803419 23.428390 132.876068 23.405037 132.948718 23.381645 133.021368 23.358214 133.094017 23.334742 133.166667 23.311229 133.239316 23.287675 133.311966 23.264078 133.384615 23.240438 133.457265 23.216755 133.529915 23.193027 133.602564 23.169254 133.675214 23.145436 133.747863 23.121571 133.820513 23.097659 133.893162 23.073699 133.965812 23.049691 134.038462 23.025633 134.111111 23.001526 134.183761 22.977369 134.256410 22.953160 134.329060 22.928899 134.401709 22.904586 134.474359 22.880220 134.547009 22.855800 134.619658 22.831326 134.692308 22.806797 134.764957 22.782211 134.837607 22.757569 134.910256 22.732870 134.982906 22.708113 135.055556 22.683297 135.128205 22.658423 135.200855 22.633488 135.273504 22.608493 135.346154 22.583436 135.418803 22.558318 135.491453 22.533137 135.564103 22.507892 135.636752 22.482584 135.709402 22.457211 135.782051 22.431773 135.854701 22.406269 135.927350 22.380698 136.000000 22.355060 136.072650 22.329354 136.145299 22.303579 136.217949 22.277735 136.290598 22.251820 136.363248 22.225836 136.435897 22.199779 136.508547 22.173651 136.581197 22.147450 136.653846 22.121175 136.726496 22.094827 136.799145 22.068403 136.871795 22.041905 136.944444 22.015330 137.017094 21.988678 137.089744 21.961949 137.162393 21.935142 137.235043 21.908256 137.307692 21.881290 137.380342 21.854244 137.452991 21.827118 137.525641 21.799910 137.598291 21.772619 137.670940 21.745246 137.743590 21.717790 137.816239 21.690249 137.888889 21.662623 137.961538 21.634912 138.034188 21.607114 138.106838 21.579230 138.179487 21.551258 138.252137 21.523197 138.324786 21.495048 138.397436 21.466809 138.470085 21.438480 138.542735 21.410060 138.615385 21.381548 138.688034 21.352944 138.760684 21.324247 138.833333 21.295456 138.905983 21.266571 138.978632 21.237591 139.051282 21.208516 139.123932 21.179343 139.196581 21.150074 139.269231 21.120707 139.341880 21.091242 139.414530 21.061678 139.487179 21.032014 139.559829 21.002249 139.632479 20.972383 139.705128 20.942416 139.777778 20.912346 139.850427 20.882173 139.923077 20.851896 139.995726 20.821515 140.068376 20.791029 140.141026 20.760437 140.213675 20.729738 140.286325 20.698932 140.358974 20.668018 140.431624 20.636996 140.504274 20.605865 140.576923 20.574623 140.649573 20.543271 140.722222 20.511808 140.794872 20.480233 140.867521 20.448546 140.940171 20.416745 141.012821 20.384830 141.085470 20.352801 141.158120 20.320656 141.230769 20.288395 141.303419 20.256018 141.376068 20.223524 141.448718 20.190911 141.521368 20.158180 141.594017 20.125330 141.666667 20.092359 141.739316 20.059268 141.811966 20.026055 141.884615 19.992721 141.957265 19.959264 142.029915 19.925683 142.102564 19.891978 142.175214 19.858149 142.247863 19.824194 142.320513 19.790113 142.393162 19.755906 142.465812 19.721570 142.538462 19.687107 142.611111 19.652515 142.683761 19.617794 142.756410 19.582942 142.829060 19.547960 142.901709 19.512846 142.974359 19.477600 143.047009 19.442221 143.119658 19.406709 143.192308 19.371062 143.264957 19.335281 143.337607 19.299364 143.410256 19.263310 143.482906 19.227120 143.555556 19.190793 143.628205 19.154327 143.700855 19.117722 143.773504 19.080978 143.846154 19.044093 143.918803 19.007067 143.991453 18.969900 144.064103 18.932591 144.136752 18.895138 144.209402 18.857542 144.282051 18.819802 144.354701 18.781916 144.427350 18.743885 144.500000 18.705708 144.572650 18.667383 144.645299 18.628911 144.717949 18.590291 144.790598 18.551521 144.863248 18.512602 144.935897 18.473532 145.008547 18.434311 145.081197 18.394939 145.153846 18.355414 145.226496 18.315736 145.299145 18.275904 145.371795 18.235918 145.444444 18.195777 145.517094 18.155480 145.589744 18.115026 145.662393 18.074415 145.735043 18.033647 145.807692 17.992720 145.880342 17.951633 145.952991 17.910387 146.025641 17.868981 146.098291 17.827413 146.170940 17.785683 146.243590 17.743791 146.316239 17.701736 146.388889 17.659516 146.461538 17.617132 146.534188 17.574583 146.606838 17.531868 146.679487 17.488986 146.752137 17.445937 146.824786 17.402720 146.897436 17.359335 146.970085 17.315780 147.042735 17.272055 147.115385 17.228159 147.188034 17.184093 147.260684 17.139854 147.333333 17.095442 147.405983 17.050857 147.478632 17.006098 147.551282 16.961165 147.623932 16.916056 147.696581 16.870771 147.769231 16.825309 147.841880 16.779670 147.914530 16.733852 147.987179 16.687856 148.059829 16.641681 148.132479 16.595325 148.205128 16.548789 148.277778 16.502071 148.350427 16.455171 148.423077 16.408088 148.495726 16.360822 148.568376 16.313371 148.641026 16.265736 148.713675 16.217917 148.786325 16.169915 148.858974 16.121730 148.931624 16.073363 149.004274 16.024814 149.076923 15.976086 149.149573 15.927178 149.222222 15.878091 149.294872 15.828825 149.367521 15.779383 149.440171 15.729763 149.512821 15.679968 149.585470 15.629997 149.658120 15.579852 149.730769 15.529533 149.803419 15.479041 149.876068 15.428377 149.948718 15.377541 150.021368 15.326535 150.094017 15.275358 150.166667 15.224013 150.239316 15.172498 150.311966 15.120816 150.384615 15.068967 150.457265 15.016951 150.529915 14.964770 150.602564 14.912424 150.675214 14.859913 150.747863 14.807240 150.820513 14.754403 150.893162 14.701405 150.965812 14.648246 151.038462 14.594926 151.111111 14.541446 151.183761 14.487808 151.256410 14.434011 151.329060 14.380057 151.401709 14.325946 151.474359 14.271679 151.547009 14.217257 151.619658 14.162680 151.692308 14.107949 151.764957 14.053066 151.837607 13.998030 151.910256 13.942842 151.982906 13.887504 152.055556 13.832016 152.128205 13.776378 152.200855 13.720592 152.273504 13.664657 152.346154 13.608576 152.418803 13.552348 152.491453 13.495975 152.564103 13.439457 152.636752 13.382794 152.709402 13.325988 152.782051 13.269040 152.854701 13.211949 152.927350 13.154717 153.000000 13.097345 153.072650 13.039833 153.145299 12.982182 153.217949 12.924393 153.290598 12.866466 153.363248 12.808403 153.435897 12.750203 153.508547 12.691868 153.581197 12.633399 153.653846 12.574796 153.726496 12.516059 153.799145 12.457191 153.871795 12.398190 153.944444 12.339059 154.017094 12.279798 154.089744 12.220407 154.162393 12.160888 154.235043 12.101241 154.307692 12.041467 154.380342 11.981566 154.452991 11.921539 154.525641 11.861388 154.598291 11.801112 154.670940 11.740713 154.743590 11.680191 154.816239 11.619547 154.888889 11.558782 154.961538 11.497897 155.034188 11.436891 155.106838 11.375767 155.179487 11.314524 155.252137 11.253164 155.324786 11.191687 155.397436 11.130094 155.470085 11.068385 155.542735 11.006562 155.615385 10.944625 155.688034 10.882575 155.760684 10.820413 155.833333 10.758138 155.905983 10.695753 155.978632 10.633258 156.051282 10.570654 156.123932 10.507940 156.196581 10.445119 156.269231 10.382191 156.341880 10.319156 156.414530 10.256015 156.487179 10.192770 156.559829 10.129420 156.632479 10.065967 156.705128 10.002410 156.777778 9.938752 156.850427 9.874993 156.923077 9.811133 156.995726 9.747173 157.068376 9.683114 157.141026 9.618957 157.213675 9.554702 157.286325 9.490350 157.358974 9.425903 157.431624 9.361360 157.504274 9.296722 157.576923 9.231990 157.649573 9.167165 157.722222 9.102248 157.794872 9.037239 157.867521 8.972139 157.940171 8.906949 158.012821 8.841670 158.085470 8.776301 158.158120 8.710845 158.230769 8.645302 158.303419 8.579672 158.376068 8.513956 158.448718 8.448155 158.521368 8.382270 158.594017 8.316301 158.666667 8.250250 158.739316 8.184116 158.811966 8.117902 158.884615 8.051606 158.957265 7.985231 159.029915 7.918777 159.102564 7.852244 159.175214 7.785634 159.247863 7.718946 159.320513 7.652183 159.393162 7.585344 159.465812 7.518431 159.538462 7.451443 159.611111 7.384382 159.683761 7.317249 159.756410 7.250045 159.829060 7.182769 159.901709 7.115423 159.974359 7.048007 160.047009 6.980523 160.119658 6.912971 160.192308 6.845351 160.264957 6.777665 160.337607 6.709913 160.410256 6.642096 160.482906 6.574215 160.555556 6.506270 160.628205 6.438262 160.700855 6.370192 160.773504 6.302061 160.846154 6.233869 160.918803 6.165618 160.991453 6.097307 161.064103 6.028938 161.136752 5.960511 161.209402 5.892027 161.282051 5.823487 161.354701 5.754891 161.427350 5.686241 161.500000 5.617537 161.572650 5.548779 161.645299 5.479969 161.717949 5.411108 161.790598 5.342195 161.863248 5.273232 161.935897 5.204220 162.008547 5.135158 162.081197 5.066049 162.153846 4.996892 162.226496 4.927689 162.299145 4.858440 162.371795 4.789146 162.444444 4.719807 162.517094 4.650425 162.589744 4.581000 162.662393 4.511533 162.735043 4.442024 162.807692 4.372475 162.880342 4.302886 162.952991 4.233257 163.025641 4.163590 163.098291 4.093886 163.170940 4.024144 163.243590 3.954367 163.316239 3.884554 163.388889 3.814706 163.461538 3.744824 163.534188 3.674908 163.606838 3.604961 163.679487 3.534981 163.752137 3.464970 163.824786 3.394929 163.897436 3.324859 163.970085 3.254760 164.042735 3.184632 164.115385 3.114477 164.188034 3.044296 164.260684 2.974089 164.333333 2.903856 164.405983 2.833599 164.478632 2.763319 164.551282 2.693016 164.623932 2.622690 164.696581 2.552343 164.769231 2.481975 164.841880 2.411588 164.914530 2.341181 164.987179 2.270755 165.059829 2.200312 165.132479 2.129852 165.205128 2.059376 165.277778 1.988884 165.350427 1.918377 165.423077 1.847856 165.495726 1.777322 165.568376 1.706775 165.641026 1.636217 165.713675 1.565647 165.786325 1.495067 165.858974 1.424478 165.931624 1.353880 166.004274 1.283273 166.076923 1.212659 166.149573 1.142039 166.222222 1.071412 166.294872 1.000780 166.367521 0.930144 166.440171 0.859504 166.512821 0.788862 166.585470 0.718217 166.658120 0.647570 166.730769 0.576923" class="line reactive nofill" /></g></g><g class="titles" /><g transform="translate(20, 10)" class="plot overlay"><g class="series serie-0 color-0" /></g><g transform="translate(20, 10)" class="plot text-overlay"><g class="series serie-0 color-0" /></g><g transform="translate(20, 10)" class="plot tooltip-overlay"><g transform="translate(0 0)" style="opacity: 0" class="tooltip"><rect rx="0" ry="0" width="0" height="0" class="tooltip-box" /><g class="text" /></g></g></g></svg>