<?xml version='1.0' encoding='utf-8'?>
<svg xmlns="http://www.w3.org/2000/svg" id="chart-0f81b521-99aa-4ad2-8f7b-fde77b0de5aa" class="pygal-chart pygal-sparkline" viewBox="0 0 200 50" width="200" height="50"><!--Generated with pygal 3.0.4 (etree) ©Kozea 2012-2016 on 2024-05-12--><!--http://pygal.org--><!--http://github.com/Kozea/pygal--><defs><style type="text/css">#chart-0f81b521-99aa-4ad2-8f7b-fde77b0de5aa{-webkit-user-select:none;-webkit-font-smoothing:antialiased;font-family:Consolas,"Liberation Mono",Menlo,Courier,monospace}#chart-0f81b521-99aa-4ad2-8f7b-fde77b0de5aa .title{font-family:Consolas,"Liberation Mono",Menlo,Courier,monospace;font-size:16px}#chart-0f81b521-99aa-4ad2-8f7b-fde77b0de5aa .legends .legend text{font-family:Consolas,"Liberation Mono",Menlo,Courier,monospace;font-size:14px}#chart-0f81b521-99aa-4ad2-8f7b-fde77b0de5aa .axis text{font-family:Consolas,"Liberation Mono",Menlo,Courier,monospace;font-size:10px}#chart-0f81b521-99aa-4ad2-8f7b-fde77b0de5aa .axis text.major{font-family:Consolas,"Liberation Mono",Menlo,Courier,monospace;font-size:10px}#chart-0f81b521-99aa-4ad2-8f7b-fde77b0de5aa .text-overlay text.value{font-family:Consolas,"Liberation Mono",Menlo,Courier,monospace;font-size:16px}#chart-0f81b521-99aa-4ad2-8f7b-fde77b0de5aa .text-overlay text.label{font-family:Consolas,"Liberation Mono",Menlo,Courier,monospace;font-size:10px}#chart-0f81b521-99aa-4ad2-8f7b-fde77b0de5aa .tooltip{font-family:Consolas,"Liberation Mono",Menlo,Courier,monospace;font-size:14px}#chart-0f81b521-99aa-4ad2-8f7b-fde77b0de5aa text.no_data{font-family:Consolas,"Liberation Mono",Menlo,Courier,monospace;font-size:64px}
#chart-0f81b521-99aa-4ad2-8f7b-fde77b0de5aa{background-color:rgba(249,249,249,1)}#chart-0f81b521-99aa-4ad2-8f7b-fde77b0de5aa path,#chart-0f81b521-99aa-4ad2-8f7b-fde77b0de5aa line,#chart-0f81b521-99aa-4ad2-8f7b-fde77b0de5aa rect,#chart-0f81b521-99aa-4ad2-8f7b-fde77b0de5aa circle{-webkit-transition:150ms;-moz-transition:150ms;transition:150ms}#chart-0f81b521-99aa-4ad2-8f7b-fde77b0de5aa .graph &gt; .background{fill:rgba(249,249,249,1)}#chart-0f81b521-99aa-4ad2-8f7b-fde77b0de5aa .plot &gt; .background{fill:rgba(255,255,255,1)}#chart-0f81b521-99aa-4ad2-8f7b-fde77b0de5aa .graph{fill:rgba(0,0,0,.87)}#chart-0f81b521-99aa-4ad2-8f7b-fde77b0de5aa text.no_data{fill:rgba(0,0,0,1)}#chart-0f81b521-99aa-4ad2-8f7b-fde77b0de5aa .title{fill:rgba(0,0,0,1)}#chart-0f81b521-99aa-4ad2-8f7b-fde77b0de5aa .legends .legend text{fill:rgba(0,0,0,.87)}#chart-0f81b521-99aa-4ad2-8f7b-fde77b0de5aa .legends .legend:hover text{fill:rgba(0,0,0,1)}#chart-0f81b521-99aa-4ad2-8f7b-fde77b0de5aa .axis .line{stroke:rgba(0,0,0,1)}#chart-0f81b521-99aa-4ad2-8f7b-fde77b0de5aa .axis .guide.line{stroke:rgba(0,0,0,.54)}#chart-0f81b521-99aa-4ad2-8f7b-fde77b0de5aa .axis .major.line{stroke:rgba(0,0,0,.87)}#chart-0f81b521-99aa-4ad2-8f7b-fde77b0de5aa .axis text.major{fill:rgba(0,0,0,1)}#chart-0f81b521-99aa-4ad2-8f7b-fde77b0de5aa .axis.y .guides:hover .guide.line,#chart-0f81b521-99aa-4ad2-8f7b-fde77b0de5aa .line-graph .axis.x .guides:hover .guide.line,#chart-0f81b521-99aa-4ad2-8f7b-fde77b0de5aa .stackedline-graph .axis.x .guides:hover .guide.line,#chart-0f81b521-99aa-4ad2-8f7b-fde77b0de5aa .xy-graph .axis.x .guides:hover .guide.line{stroke:rgba(0,0,0,1)}#chart-0f81b521-99aa-4ad2-8f7b-fde77b0de5aa .axis .guides:hover text{fill:rgba(0,0,0,1)}#chart-0f81b521-99aa-4ad2-8f7b-fde77b0de5aa .reactive{fill-opacity:.7;stroke-opacity:.8;stroke-width:1}#chart-0f81b521-99aa-4ad2-8f7b-fde77b0de5aa .ci{stroke:rgba(0,0,0,.87)}#chart-0f81b521-99aa-4ad2-8f7b-fde77b0de5aa .reactive.active,#chart-0f81b521-99aa-4ad2-8f7b-fde77b0de5aa .active .reactive{fill-opacity:.8;stroke-opacity:.9;stroke-width:4}#chart-0f81b521-99aa-4ad2-8f7b-fde77b0de5aa .ci .reactive.active{stroke-width:1.5}#chart-0f81b521-99aa-4ad2-8f7b-fde77b0de5aa .series text{fill:rgba(0,0,0,1)}#chart-0f81b521-99aa-4ad2-8f7b-fde77b0de5aa .tooltip rect{fill:rgba(255,255,255,1);stroke:rgba(0,0,0,1);-webkit-transition:opacity 150ms;-moz-transition:opacity 150ms;transition:opacity 150ms}#chart-0f81b521-99aa-4ad2-8f7b-fde77b0de5aa .tooltip .label{fill:rgba(0,0,0,.87)}#chart-0f81b521-99aa-4ad2-8f7b-fde77b0de5aa .tooltip .label{fill:rgba(0,0,0,.87)}#chart-0f81b521-99aa-4ad2-8f7b-fde77b0de5aa .tooltip .legend{font-size:.8em;fill:rgba(0,0,0,.54)}#chart-0f81b521-99aa-4ad2-8f7b-fde77b0de5aa .tooltip .x_label{font-size:.6em;fill:rgba(0,0,0,1)}#chart-0f81b521-99aa-4ad2-8f7b-fde77b0de5aa .tooltip .xlink{font-size:.5em;text-decoration:underline}#chart-0f81b521-99aa-4ad2-8f7b-fde77b0de5aa .tooltip .value{font-size:1.5em}#chart-0f81b521-99aa-4ad2-8f7b-fde77b0de5aa .bound{font-size:.5em}#chart-0f81b521-99aa-4ad2-8f7b-fde77b0de5aa .max-value{font-size:.75em;fill:rgba(0,0,0,.54)}#chart-0f81b521-99aa-4ad2-8f7b-fde77b0de5aa .map-element{fill:rgba(255,255,255,1);stroke:rgba(0,0,0,.54) !important}#chart-0f81b521-99aa-4ad2-8f7b-fde77b0de5aa .map-element .reactive{fill-opacity:inherit;stroke-opacity:inherit}#chart-0f81b521-99aa-4ad2-8f7b-fde77b0de5aa .color-0,#chart-0f81b521-99aa-4ad2-8f7b-fde77b0de5aa .color-0 a:visited{stroke:#F44336;fill:#F44336}#chart-0f81b521-99aa-4ad2-8f7b-fde77b0de5aa .text-overlay .color-0 text{fill:black}
#chart-0f81b521-99aa-4ad2-8f7b-fde77b0de5aa text.no_data{text-anchor:middle}#chart-0f81b521-99aa-4ad2-8f7b-fde77b0de5aa .guide.line{fill:none}#chart-0f81b521-99aa-4ad2-8f7b-fde77b0de5aa .centered{text-anchor:middle}#chart-0f81b521-99aa-4ad2-8f7b-fde77b0de5aa .title{text-anchor:middle}#chart-0f81b521-99aa-4ad2-8f7b-fde77b0de5aa .legends .legend text{fill-opacity:1}#chart-0f81b521-99aa-4ad2-8f7b-fde77b0de5aa .axis.x text{text-anchor:middle}#chart-0f81b521-99aa-4ad2-8f7b-fde77b0de5aa .axis.x:not(.web) text[transform]{text-anchor:start}#chart-0f81b521-99aa-4ad2-8f7b-fde77b0de5aa .axis.x:not(.web) text[transform].backwards{text-anchor:end}#chart-0f81b521-99aa-4ad2-8f7b-fde77b0de5aa .axis.y text{text-anchor:end}#chart-0f81b521-99aa-4ad2-8f7b-fde77b0de5aa .axis.y text[transform].backwards{text-anchor:start}#chart-0f81b521-99aa-4ad2-8f7b-fde77b0de5aa .axis.y2 text{text-anchor:start}#chart-0f81b521-99aa-4ad2-8f7b-fde77b0de5aa .axis.y2 text[transform].backwards{text-anchor:end}#chart-0f81b521-99aa-4ad2-8f7b-fde77b0de5aa .axis .guide.line{stroke-dasharray:4,4;stroke:black}#chart-0f81b521-99aa-4ad2-8f7b-fde77b0de5aa .axis .major.guide.line{stroke-dasharray:6,6;stroke:black}#chart-0f81b521-99aa-4ad2-8f7b-fde77b0de5aa .horizontal .axis.y .guide.line,#chart-0f81b521-99aa-4ad2-8f7b-fde77b0de5aa .horizontal .axis.y2 .guide.line,#chart-0f81b521-99aa-4ad2-8f7b-fde77b0de5aa .vertical .axis.x .guide.line{opacity:0}#chart-0f81b521-99aa-4ad2-8f7b-fde77b0de5aa .horizontal .axis.always_show .guide.line,#chart-0f81b521-99aa-4ad2-8f7b-fde77b0de5aa .vertical .axis.always_show .guide.line{opacity:1 !important}#chart-0f81b521-99aa-4ad2-8f7b-fde77b0de5aa .axis.y .guides:hover .guide.line,#chart-0f81b521-99aa-4ad2-8f7b-fde77b0de5aa .axis.y2 .guides:hover .guide.line,#chart-0f81b521-99aa-4ad2-8f7b-fde77b0de5aa .axis.x .guides:hover .guide.line{opacity:1}#chart-0f81b521-99aa-4ad2-8f7b-fde77b0de5aa .axis .guides:hover text{opacity:1}#chart-0f81b521-99aa-4ad2-8f7b-fde77b0de5aa .nofill{fill:none}#chart-0f81b521-99aa-4ad2-8f7b-fde77b0de5aa .subtle-fill{fill-opacity:.2}#chart-0f81b521-99aa-4ad2-8f7b-fde77b0de5aa .dot{stroke-width:1px;fill-opacity:1;stroke-opacity:1}#chart-0f81b521-99aa-4ad2-8f7b-fde77b0de5aa .dot.active{stroke-width:5px}#chart-0f81b521-99aa-4ad2-8f7b-fde77b0de5aa .dot.negative{fill:transparent}#chart-0f81b521-99aa-4ad2-8f7b-fde77b0de5aa text,#chart-0f81b521-99aa-4ad2-8f7b-fde77b0de5aa tspan{stroke:none !important}#chart-0f81b521-99aa-4ad2-8f7b-fde77b0de5aa .series text.active{opacity:1}#chart-0f81b521-99aa-4ad2-8f7b-fde77b0de5aa .tooltip rect{fill-opacity:.95;stroke-width:.5}#chart-0f81b521-99aa-4ad2-8f7b-fde77b0de5aa .tooltip text{fill-opacity:1}#chart-0f81b521-99aa-4ad2-8f7b-fde77b0de5aa .showable{visibility:hidden}#chart-0f81b521-99aa-4ad2-8f7b-fde77b0de5aa .showable.shown{visibility:visible}#chart-0f81b521-99aa-4ad2-8f7b-fde77b0de5aa .gauge-background{fill:rgba(229,229,229,1);stroke:none}#chart-0f81b521-99aa-4ad2-8f7b-fde77b0de5aa .bg-lines{stroke:rgba(249,249,249,1);stroke-width:2px}</style><script type="text/javascript">window.pygal = window.pygal || {};window.pygal.config = window.pygal.config || {};window.pygal.config['0f81b521-99aa-4ad2-8f7b-fde77b0de5aa'] = {"allow_interruptions": false, "box_mode": "extremes", "classes": ["pygal-chart", "pygal-sparkline"], "css": ["file://style.css", "file://graph.css"], "defs": [], "disable_xml_declaration": false, "dots_size": 2.5, "dynamic_print_values": false, "explicit_size": true, "fill": false, "force_uri_protocol": "https", "formatter": null, "half_pie": false, "height": 50, "include_x_axis": false, "inner_radius": 0, "interpolate": "cubic", "interpolation_parameters": {}, "interpolation_precision": 250, "inverse_y_axis": false, "js": [], "legend_at_bottom": false, "legend_at_bottom_columns": null, "legend_box_size": 12, "logarithmic": false, "margin": 10, "margin_bottom": null, "margin_left": null, "margin_right": null, "margin_top": null, "max_scale": 2, "min_scale": 1, "missing_value_fill_truncation": "x", "no_data_text": "", "no_prefix": false, "order_min": null, "pretty_print": false, "print_labels": false, "print_values": false, "print_values_position": "center", "print_zeroes": true, "range": null, "rounded_bars": null, "secondary_range": null, "show_dots": false, "show_legend": false, "show_minor_x_labels": true, "show_minor_y_labels": true, "show_only_major_dots": false, "show_x_guides": false, "show_x_labels": false, "show_y_guides": true, "show_y_labels": true, "spacing": 0, "stack_from_top": false, "strict": false, "stroke": true, "stroke_style": null, "style": {"background": "rgba(249, 249, 249, 1)", "ci_colors": [], "colors": ["#F44336", "#3F51B5", "#009688", "#FFC107", "#FF5722", "#9C27B0", "#03A9F4", "#8BC34A", "#FF9800", "#E91E63", "#2196F3", "#4CAF50", "#FFEB3B", "#673AB7", "#00BCD4", "#CDDC39", "#9E9E9E", "#607D8B"], "dot_opacity": "1", "font_family": "Consolas, \"Liberation Mono\", Menlo, Courier, monospace", "foreground": "rgba(0, 0, 0, .87)", "foreground_strong": "rgba(0, 0, 0, 1)", "foreground_subtle": "rgba(0, 0, 0, .54)", "guide_stroke_color": "black", "guide_stroke_dasharray": "4,4", "label_font_family": "Consolas, \"Liberation Mono\", Menlo, Courier, monospace", "label_font_size": 10, "legend_font_family": "Consolas, \"Liberation Mono\", Menlo, Courier, monospace", "legend_font_size": 14, "major_guide_stroke_color": "black", "major_guide_stroke_dasharray": "6,6", "major_label_font_family": "Consolas, \"Liberation Mono\", Menlo, Courier, monospace", "major_label_font_size": 10, "no_data_font_family": "Consolas, \"Liberation Mono\", Menlo, Courier, monospace", "no_data_font_size": 64, "opacity": ".7", "opacity_hover": ".8", "plot_background": "rgba(255, 255, 255, 1)", "stroke_opacity": ".8", "stroke_opacity_hover": ".9", "stroke_width": "1", "stroke_width_hover": "4", "title_font_family": "Consolas, \"Liberation Mono\", Menlo, Courier, monospace", "title_font_size": 16, "tooltip_font_family": "Consolas, \"Liberation Mono\", Menlo, Courier, monospace", "tooltip_font_size": 14, "transition": "150ms", "value_background": "rgba(229, 229, 229, 1)", "value_colors": [], "value_font_family": "Consolas, \"Liberation Mono\", Menlo, Courier, monospace", "value_font_size": 16, "value_label_font_family": "Consolas, \"Liberation Mono\", Menlo, Courier, monospace", "value_label_font_size": 10}, "title": null, "tooltip_border_radius": 0, "tooltip_fancy_mode": true, "truncate_label": null, "truncate_legend": null, "width": 200, "x_label_rotation": 0, "x_labels": ["2024/1", "2023/4", "2022/8", "2022/2", "2021/12", "2021/10", "2021/6"], "x_labels_major": null, "x_labels_major_count": null, "x_labels_major_every": null, "x_title": null, "xrange": null, "y_label_rotation": 0, "y_labels": null, "y_labels_major": null, "y_labels_major_count": null, "y_labels_major_every": null, "y_title": null, "zero": 0, "legends": [""]}</script></defs><title>Pygal</title><g class="graph line-graph vertical"><rect x="0" y="0" width="200" height="50" class="background" /><g transform="translate(22, 10)" class="plot"><rect x="0" y="0" width="168.0" height="30" class="background" /><g class="axis y always_show"><path d="M0.000000 30.000000 h168.000000" class="line" /><g class="guides"><path d="M0.000000 15.920255 h168.000000" class="guide line" /><text x="-5" y="19.42025529844446" class="">8</text><title>8</title></g><g class="guides"><path d="M0.000000 0.576923 h168.000000" class="guide line" /><text x="-5" y="4.076923076923073" class="">16</text><title>16</title></g></g><g class="series serie-0 color-0"><path d="M3.230769 29.345671 L3.338462 29.312181 3.446154 29.278693 3.553846 29.245206 3.661538 29.211723 3.769231 29.178243 3.876923 29.144769 3.984615 29.111300 4.092308 29.077839 4.200000 29.044385 4.307692 29.010941 4.415385 28.977507 4.523077 28.944083 4.630769 28.910672 4.738462 28.877274 4.846154 28.843890 4.953846 28.810521 5.061538 28.777168 5.169231 28.743832 5.276923 28.710515 5.384615 28.677216 5.492308 28.643938 5.600000 28.610681 5.707692 28.577445 5.815385 28.544233 5.923077 28.511045 6.030769 28.477883 6.138462 28.444746 6.246154 28.411636 6.353846 28.378555 6.461538 28.345503 6.569231 28.312481 6.676923 28.279490 6.784615 28.246531 6.892308 28.213606 7.000000 28.180715 7.107692 28.147859 7.215385 28.115039 7.323077 28.082256 7.430769 28.049511 7.538462 28.016806 7.646154 27.984141 7.753846 27.951517 7.861538 27.918936 7.969231 27.886398 8.076923 27.853903 8.184615 27.821455 8.292308 27.789052 8.400000 27.756697 8.507692 27.724390 8.615385 27.692132 8.723077 27.659924 8.830769 27.627768 8.938462 27.595664 9.046154 27.563614 9.153846 27.531617 9.261538 27.499676 9.369231 27.467792 9.476923 27.435964 9.584615 27.404195 9.692308 27.372485 9.800000 27.340836 9.907692 27.309248 10.015385 27.277722 10.123077 27.246260 10.230769 27.214862 10.338462 27.183529 10.446154 27.152263 10.553846 27.121064 10.661538 27.089934 10.769231 27.058872 10.876923 27.027882 10.984615 26.996962 11.092308 26.966115 11.200000 26.935342 11.307692 26.904643 11.415385 26.874019 11.523077 26.843472 11.630769 26.813002 11.738462 26.782610 11.846154 26.752298 11.953846 26.722067 12.061538 26.691917 12.169231 26.661849 12.276923 26.631865 12.384615 26.601965 12.492308 26.572151 12.600000 26.542423 12.707692 26.512783 12.815385 26.483231 12.923077 26.453769 13.030769 26.424397 13.138462 26.395117 13.246154 26.365929 13.353846 26.336835 13.461538 26.307835 13.569231 26.278931 13.676923 26.250124 13.784615 26.221414 13.892308 26.192802 14.000000 26.164290 14.107692 26.135879 14.215385 26.107569 14.323077 26.079361 14.430769 26.051258 14.538462 26.023259 14.646154 25.995365 14.753846 25.967578 14.861538 25.939899 14.969231 25.912328 15.076923 25.884867 15.184615 25.857516 15.292308 25.830277 15.400000 25.803151 15.507692 25.776138 15.615385 25.749240 15.723077 25.722458 15.830769 25.695792 15.938462 25.669244 16.046154 25.642815 16.153846 25.616505 16.261538 25.590316 16.369231 25.564248 16.476923 25.538303 16.584615 25.512482 16.692308 25.486786 16.800000 25.461215 16.907692 25.435771 17.015385 25.410455 17.123077 25.385268 17.230769 25.360210 17.338462 25.335283 17.446154 25.310487 17.553846 25.285825 17.661538 25.261296 17.769231 25.236902 17.876923 25.212643 17.984615 25.188522 18.092308 25.164538 18.200000 25.140693 18.307692 25.116987 18.415385 25.093423 18.523077 25.070000 18.630769 25.046720 18.738462 25.023584 18.846154 25.000592 18.953846 24.977747 19.061538 24.955048 19.169231 24.932497 19.276923 24.910095 19.384615 24.887843 19.492308 24.865741 19.600000 24.843792 19.707692 24.821995 19.815385 24.800352 19.923077 24.778864 20.030769 24.757532 20.138462 24.736357 20.246154 24.715339 20.353846 24.694481 20.461538 24.673782 20.569231 24.653244 20.676923 24.632869 20.784615 24.612656 20.892308 24.592607 21.000000 24.572722 21.107692 24.553004 21.215385 24.533453 21.323077 24.514070 21.430769 24.494855 21.538462 24.475811 21.646154 24.456937 21.753846 24.438236 21.861538 24.419707 21.969231 24.401352 22.076923 24.383173 22.184615 24.365169 22.292308 24.347342 22.400000 24.329693 22.507692 24.312224 22.615385 24.294934 22.723077 24.277825 22.830769 24.260899 22.938462 24.244155 23.046154 24.227595 23.153846 24.211220 23.261538 24.195032 23.369231 24.179030 23.476923 24.163217 23.584615 24.147592 23.692308 24.132158 23.800000 24.116914 23.907692 24.101863 24.015385 24.087005 24.123077 24.072341 24.230769 24.057872 24.338462 24.043599 24.446154 24.029523 24.553846 24.015645 24.661538 24.001966 24.769231 23.988488 24.876923 23.975210 24.984615 23.962135 25.092308 23.949262 25.200000 23.936594 25.307692 23.924131 25.415385 23.911875 25.523077 23.899825 25.630769 23.887983 25.738462 23.876351 25.846154 23.864929 25.953846 23.853718 26.061538 23.842719 26.169231 23.831933 26.276923 23.821362 26.384615 23.811006 26.492308 23.800866 26.600000 23.790943 26.707692 23.781238 26.815385 23.771753 26.923077 23.762487 27.030769 23.753443 27.138462 23.744622 27.246154 23.736023 27.353846 23.727649 27.461538 23.719500 27.569231 23.711577 27.676923 23.703881 27.784615 23.696414 27.892308 23.689176 28.000000 23.682169 28.107692 23.675392 28.215385 23.668848 28.323077 23.662537 28.430769 23.656461 28.538462 23.650619 28.646154 23.645014 28.753846 23.639647 28.861538 23.634518 28.969231 23.629628 29.076923 23.624978 29.184615 23.620570 29.292308 23.616404 29.400000 23.612481 29.507692 23.608803 29.615385 23.605370 29.723077 23.602184 29.830769 23.599245 29.938462 23.596554 30.046154 23.594112 30.153846 23.591921 30.261538 23.589981 30.369231 23.588292 30.476923 23.586850 30.584615 23.585656 30.692308 23.584709 30.800000 23.584005 30.907692 23.583546 31.015385 23.583328 31.123077 23.583350 31.230769 23.583612 31.338462 23.584112 31.446154 23.584849 31.553846 23.585821 31.661538 23.587026 31.769231 23.588465 31.876923 23.590134 31.984615 23.592034 32.092308 23.594161 32.200000 23.596516 32.307692 23.599097 32.415385 23.601903 32.523077 23.604931 32.630769 23.608182 32.738462 23.611652 32.846154 23.615342 32.953846 23.619250 33.061538 23.623374 33.169231 23.627713 33.276923 23.632266 33.384615 23.637031 33.492308 23.642007 33.600000 23.647193 33.707692 23.652587 33.815385 23.658188 33.923077 23.663995 34.030769 23.670006 34.138462 23.676221 34.246154 23.682636 34.353846 23.689252 34.461538 23.696067 34.569231 23.703080 34.676923 23.710288 34.784615 23.717692 34.892308 23.725289 35.000000 23.733079 35.107692 23.741059 35.215385 23.749228 35.323077 23.757586 35.430769 23.766131 35.538462 23.774861 35.646154 23.783775 35.753846 23.792872 35.861538 23.802151 35.969231 23.811609 36.076923 23.821247 36.184615 23.831061 36.292308 23.841052 36.400000 23.851217 36.507692 23.861556 36.615385 23.872067 36.723077 23.882749 36.830769 23.893599 36.938462 23.904618 37.046154 23.915803 37.153846 23.927154 37.261538 23.938669 37.369231 23.950346 37.476923 23.962184 37.584615 23.974183 37.692308 23.986339 37.800000 23.998654 37.907692 24.011124 38.015385 24.023748 38.123077 24.036526 38.230769 24.049455 38.338462 24.062535 38.446154 24.075764 38.553846 24.089141 38.661538 24.102664 38.769231 24.116333 38.876923 24.130145 38.984615 24.144100 39.092308 24.158195 39.200000 24.172431 39.307692 24.186805 39.415385 24.201315 39.523077 24.215962 39.630769 24.230743 39.738462 24.245656 39.846154 24.260702 39.953846 24.275878 40.061538 24.291182 40.169231 24.306615 40.276923 24.322173 40.384615 24.337857 40.492308 24.353664 40.600000 24.369593 40.707692 24.385643 40.815385 24.401813 40.923077 24.418101 41.030769 24.434506 41.138462 24.451026 41.246154 24.467660 41.353846 24.484407 41.461538 24.501266 41.569231 24.518235 41.676923 24.535312 41.784615 24.552497 41.892308 24.569789 42.000000 24.587184 42.107692 24.604684 42.215385 24.622285 42.323077 24.639987 42.430769 24.657788 42.538462 24.675687 42.646154 24.693683 42.753846 24.711775 42.861538 24.729960 42.969231 24.748238 43.076923 24.766607 43.184615 24.785066 43.292308 24.803614 43.400000 24.822249 43.507692 24.840969 43.615385 24.859775 43.723077 24.878663 43.830769 24.897634 43.938462 24.916685 44.046154 24.935815 44.153846 24.955023 44.261538 24.974307 44.369231 24.993667 44.476923 25.013100 44.584615 25.032606 44.692308 25.052183 44.800000 25.071830 44.907692 25.091545 45.015385 25.111327 45.123077 25.131175 45.230769 25.151087 45.338462 25.171062 45.446154 25.191099 45.553846 25.211197 45.661538 25.231353 45.769231 25.251567 45.876923 25.271837 45.984615 25.292162 46.092308 25.312541 46.200000 25.332972 46.307692 25.353454 46.415385 25.373985 46.523077 25.394565 46.630769 25.415192 46.738462 25.435864 46.846154 25.456580 46.953846 25.477340 47.061538 25.498140 47.169231 25.518981 47.276923 25.539861 47.384615 25.560778 47.492308 25.581731 47.600000 25.602719 47.707692 25.623740 47.815385 25.644794 47.923077 25.665878 48.030769 25.686992 48.138462 25.708133 48.246154 25.729302 48.353846 25.750495 48.461538 25.771713 48.569231 25.792954 48.676923 25.814215 48.784615 25.835497 48.892308 25.856797 49.000000 25.878115 49.107692 25.899448 49.215385 25.920796 49.323077 25.942158 49.430769 25.963531 49.538462 25.984915 49.646154 26.006308 49.753846 26.027709 49.861538 26.049116 49.969231 26.070528 50.076923 26.091945 50.184615 26.113364 50.292308 26.134784 50.400000 26.156203 50.507692 26.177622 50.615385 26.199037 50.723077 26.220448 50.830769 26.241853 50.938462 26.263252 51.046154 26.284642 51.153846 26.306023 51.261538 26.327392 51.369231 26.348750 51.476923 26.370093 51.584615 26.391422 51.692308 26.412734 51.800000 26.434029 51.907692 26.455304 52.015385 26.476559 52.123077 26.497793 52.230769 26.519003 52.338462 26.540189 52.446154 26.561349 52.553846 26.582482 52.661538 26.603586 52.769231 26.624661 52.876923 26.645704 52.984615 26.666715 53.092308 26.687693 53.200000 26.708634 53.307692 26.729540 53.415385 26.750407 53.523077 26.771236 53.630769 26.792023 53.738462 26.812769 53.846154 26.833472 53.953846 26.854130 54.061538 26.874742 54.169231 26.895306 54.276923 26.915822 54.384615 26.936288 54.492308 26.956703 54.600000 26.977065 54.707692 26.997373 54.815385 27.017626 54.923077 27.037821 55.030769 27.057959 55.138462 27.078038 55.246154 27.098055 55.353846 27.118011 55.461538 27.137903 55.569231 27.157730 55.676923 27.177491 55.784615 27.197185 55.892308 27.216809 56.000000 27.236364 56.107692 27.255847 56.215385 27.275257 56.323077 27.294593 56.430769 27.313854 56.538462 27.333037 56.646154 27.352143 56.753846 27.371168 56.861538 27.390113 56.969231 27.408976 57.076923 27.427754 57.184615 27.446449 57.292308 27.465058 57.400000 27.483582 57.507692 27.502020 57.615385 27.520374 57.723077 27.538643 57.830769 27.556826 57.938462 27.574924 58.046154 27.592937 58.153846 27.610864 58.261538 27.628706 58.369231 27.646463 58.476923 27.664134 58.584615 27.681719 58.692308 27.699219 58.800000 27.716633 58.907692 27.733962 59.015385 27.751205 59.123077 27.768362 59.230769 27.785434 59.338462 27.802419 59.446154 27.819319 59.553846 27.836133 59.661538 27.852860 59.769231 27.869502 59.876923 27.886058 59.984615 27.902528 60.092308 27.918911 60.200000 27.935209 60.307692 27.951420 60.415385 27.967545 60.523077 27.983584 60.630769 27.999536 60.738462 28.015402 60.846154 28.031181 60.953846 28.046875 61.061538 28.062481 61.169231 28.078001 61.276923 28.093434 61.384615 28.108781 61.492308 28.124041 61.600000 28.139215 61.707692 28.154301 61.815385 28.169301 61.923077 28.184214 62.030769 28.199040 62.138462 28.213779 62.246154 28.228431 62.353846 28.242997 62.461538 28.257475 62.569231 28.271866 62.676923 28.286169 62.784615 28.300386 62.892308 28.314516 63.000000 28.328558 63.107692 28.342512 63.215385 28.356380 63.323077 28.370160 63.430769 28.383853 63.538462 28.397458 63.646154 28.410975 63.753846 28.424405 63.861538 28.437748 63.969231 28.451003 64.076923 28.464170 64.184615 28.477249 64.292308 28.490241 64.400000 28.503144 64.507692 28.515960 64.615385 28.528688 64.723077 28.541328 64.830769 28.553880 64.938462 28.566344 65.046154 28.578720 65.153846 28.591008 65.261538 28.603207 65.369231 28.615319 65.476923 28.627342 65.584615 28.639277 65.692308 28.651123 65.800000 28.662881 65.907692 28.674551 66.015385 28.686132 66.123077 28.697625 66.230769 28.709029 66.338462 28.720345 66.446154 28.731572 66.553846 28.742710 66.661538 28.753760 66.769231 28.764721 66.876923 28.775593 66.984615 28.786376 67.092308 28.797070 67.200000 28.807675 67.307692 28.818192 67.415385 28.828619 67.523077 28.838957 67.630769 28.849207 67.738462 28.859367 67.846154 28.869438 67.953846 28.879419 68.061538 28.889312 68.169231 28.899115 68.276923 28.908828 68.384615 28.918453 68.492308 28.927988 68.600000 28.937433 68.707692 28.946789 68.815385 28.956055 68.923077 28.965232 69.030769 28.974319 69.138462 28.983316 69.246154 28.992224 69.353846 29.001042 69.461538 29.009770 69.569231 29.018408 69.676923 29.026956 69.784615 29.035414 69.892308 29.043783 70.000000 29.052061 70.107692 29.060249 70.215385 29.068347 70.323077 29.076355 70.430769 29.084273 70.538462 29.092100 70.646154 29.099837 70.753846 29.107484 70.861538 29.115041 70.969231 29.122507 71.076923 29.129882 71.184615 29.137167 71.292308 29.144362 71.400000 29.151466 71.507692 29.158479 71.615385 29.165402 71.723077 29.172234 71.830769 29.178975 71.938462 29.185625 72.046154 29.192185 72.153846 29.198654 72.261538 29.205031 72.369231 29.211318 72.476923 29.217514 72.584615 29.223618 72.692308 29.229632 72.800000 29.235554 72.907692 29.241386 73.015385 29.247126 73.123077 29.252775 73.230769 29.258332 73.338462 29.263798 73.446154 29.269173 73.553846 29.274456 73.661538 29.279648 73.769231 29.284748 73.876923 29.289757 73.984615 29.294674 74.092308 29.299500 74.200000 29.304233 74.307692 29.308875 74.415385 29.313426 74.523077 29.317884 74.630769 29.322251 74.738462 29.326525 74.846154 29.330708 74.953846 29.334799 75.061538 29.338797 75.169231 29.342704 75.276923 29.346519 75.384615 29.350241 75.492308 29.353871 75.600000 29.357409 75.707692 29.360855 75.815385 29.364208 75.923077 29.367469 76.030769 29.370637 76.138462 29.373713 76.246154 29.376697 76.353846 29.379588 76.461538 29.382386 76.569231 29.385092 76.676923 29.387705 76.784615 29.390226 76.892308 29.392653 77.000000 29.394988 77.107692 29.397230 77.215385 29.399379 77.323077 29.401436 77.430769 29.403399 77.538462 29.405269 77.646154 29.407046 77.753846 29.408731 77.861538 29.410321 77.969231 29.411819 78.076923 29.413224 78.184615 29.414535 78.292308 29.415753 78.400000 29.416878 78.507692 29.417909 78.615385 29.418847 78.723077 29.419691 78.830769 29.420442 78.938462 29.421099 79.046154 29.421663 79.153846 29.422133 79.261538 29.422509 79.369231 29.422792 79.476923 29.422981 79.584615 29.423076 79.692308 29.423077 79.800000 29.422984 79.907692 29.422797 80.015385 29.422517 80.123077 29.422142 80.230769 29.421673 80.338462 29.421110 80.446154 29.420453 80.553846 29.419702 80.661538 29.418857 80.769231 29.417917 80.876923 29.416883 80.984615 29.415754 81.092308 29.414531 81.200000 29.413214 81.307692 29.411802 81.415385 29.410296 81.523077 29.408695 81.630769 29.406999 81.738462 29.405209 81.846154 29.403324 81.953846 29.401344 82.061538 29.399270 82.169231 29.397101 82.276923 29.394836 82.384615 29.392477 82.492308 29.390023 82.600000 29.387474 82.707692 29.384830 82.815385 29.382091 82.923077 29.379256 83.030769 29.376327 83.138462 29.373302 83.246154 29.370182 83.353846 29.366967 83.461538 29.363656 83.569231 29.360250 83.676923 29.356748 83.784615 29.353152 83.892308 29.349459 84.000000 29.345671 84.107692 29.341787 84.215385 29.337809 84.323077 29.333737 84.430769 29.329571 84.538462 29.325313 84.646154 29.320963 84.753846 29.316522 84.861538 29.311992 84.969231 29.307371 85.076923 29.302662 85.184615 29.297866 85.292308 29.292982 85.400000 29.288012 85.507692 29.282957 85.615385 29.277817 85.723077 29.272593 85.830769 29.267285 85.938462 29.261896 86.046154 29.256425 86.153846 29.250873 86.261538 29.245241 86.369231 29.239530 86.476923 29.233740 86.584615 29.227873 86.692308 29.221928 86.800000 29.215908 86.907692 29.209812 87.015385 29.203642 87.123077 29.197398 87.230769 29.191081 87.338462 29.184692 87.446154 29.178231 87.553846 29.171700 87.661538 29.165098 87.769231 29.158428 87.876923 29.151689 87.984615 29.144883 88.092308 29.138010 88.200000 29.131070 88.307692 29.124066 88.415385 29.116997 88.523077 29.109865 88.630769 29.102670 88.738462 29.095412 88.846154 29.088093 88.953846 29.080714 89.061538 29.073275 89.169231 29.065777 89.276923 29.058221 89.384615 29.050607 89.492308 29.042937 89.600000 29.035210 89.707692 29.027429 89.815385 29.019593 89.923077 29.011704 90.030769 29.003762 90.138462 28.995768 90.246154 28.987723 90.353846 28.979628 90.461538 28.971483 90.569231 28.963288 90.676923 28.955046 90.784615 28.946757 90.892308 28.938421 91.000000 28.930039 91.107692 28.921613 91.215385 28.913142 91.323077 28.904628 91.430769 28.896071 91.538462 28.887472 91.646154 28.878832 91.753846 28.870152 91.861538 28.861432 91.969231 28.852674 92.076923 28.843878 92.184615 28.835044 92.292308 28.826174 92.400000 28.817269 92.507692 28.808328 92.615385 28.799354 92.723077 28.790346 92.830769 28.781306 92.938462 28.772234 93.046154 28.763131 93.153846 28.753998 93.261538 28.744836 93.369231 28.735645 93.476923 28.726426 93.584615 28.717180 93.692308 28.707908 93.800000 28.698610 93.907692 28.689288 94.015385 28.679941 94.123077 28.670572 94.230769 28.661180 94.338462 28.651766 94.446154 28.642332 94.553846 28.632878 94.661538 28.623404 94.769231 28.613912 94.876923 28.604402 94.984615 28.594876 95.092308 28.585333 95.200000 28.575774 95.307692 28.566202 95.415385 28.556615 95.523077 28.547015 95.630769 28.537404 95.738462 28.527780 95.846154 28.518146 95.953846 28.508502 96.061538 28.498849 96.169231 28.489188 96.276923 28.479518 96.384615 28.469843 96.492308 28.460161 96.600000 28.450474 96.707692 28.440782 96.815385 28.431087 96.923077 28.421389 97.030769 28.411688 97.138462 28.401987 97.246154 28.392285 97.353846 28.382583 97.461538 28.372882 97.569231 28.363182 97.676923 28.353486 97.784615 28.343792 97.892308 28.334103 98.000000 28.324419 98.107692 28.314740 98.215385 28.305068 98.323077 28.295403 98.430769 28.285746 98.538462 28.276098 98.646154 28.266459 98.753846 28.256831 98.861538 28.247213 98.969231 28.237608 99.076923 28.228015 99.184615 28.218436 99.292308 28.208871 99.400000 28.199321 99.507692 28.189787 99.615385 28.180270 99.723077 28.170769 99.830769 28.161287 99.938462 28.151824 100.046154 28.142381 100.153846 28.132958 100.261538 28.123556 100.369231 28.114176 100.476923 28.104819 100.584615 28.095486 100.692308 28.086177 100.800000 28.076893 100.907692 28.067635 101.015385 28.058404 101.123077 28.049200 101.230769 28.040024 101.338462 28.030878 101.446154 28.021761 101.553846 28.012675 101.661538 28.003620 101.769231 27.994598 101.876923 27.985608 101.984615 27.976652 102.092308 27.967731 102.200000 27.958844 102.307692 27.949994 102.415385 27.941181 102.523077 27.932405 102.630769 27.923668 102.738462 27.914970 102.846154 27.906312 102.953846 27.897694 103.061538 27.889118 103.169231 27.880584 103.276923 27.872094 103.384615 27.863647 103.492308 27.855244 103.600000 27.846888 103.707692 27.838577 103.815385 27.830313 103.923077 27.822097 104.030769 27.813930 104.138462 27.805812 104.246154 27.797743 104.353846 27.789726 104.461538 27.781761 104.569231 27.773847 104.676923 27.765987 104.784615 27.758181 104.892308 27.750430 105.000000 27.742734 105.107692 27.735094 105.215385 27.727512 105.323077 27.719987 105.430769 27.712521 105.538462 27.705115 105.646154 27.697768 105.753846 27.690483 105.861538 27.683259 105.969231 27.676098 106.076923 27.669000 106.184615 27.661967 106.292308 27.654998 106.400000 27.648095 106.507692 27.641258 106.615385 27.634488 106.723077 27.627787 106.830769 27.621154 106.938462 27.614590 107.046154 27.608097 107.153846 27.601676 107.261538 27.595326 107.369231 27.589048 107.476923 27.582844 107.584615 27.576715 107.692308 27.570660 107.800000 27.564681 107.907692 27.558779 108.015385 27.552954 108.123077 27.547207 108.230769 27.541539 108.338462 27.535950 108.446154 27.530442 108.553846 27.525016 108.661538 27.519671 108.769231 27.514409 108.876923 27.509231 108.984615 27.504136 109.092308 27.499128 109.200000 27.494205 109.307692 27.489368 109.415385 27.484619 109.523077 27.479959 109.630769 27.475387 109.738462 27.470905 109.846154 27.466514 109.953846 27.462214 110.061538 27.458006 110.169231 27.453892 110.276923 27.449870 110.384615 27.445944 110.492308 27.442112 110.600000 27.438377 110.707692 27.434738 110.815385 27.431197 110.923077 27.427754 111.030769 27.424410 111.138462 27.421163 111.246154 27.418010 111.353846 27.414950 111.461538 27.411979 111.569231 27.409095 111.676923 27.406297 111.784615 27.403582 111.892308 27.400947 112.000000 27.398390 112.107692 27.395909 112.215385 27.393501 112.323077 27.391164 112.430769 27.388896 112.538462 27.386695 112.646154 27.384557 112.753846 27.382482 112.861538 27.380466 112.969231 27.378507 113.076923 27.376602 113.184615 27.374750 113.292308 27.372948 113.400000 27.371194 113.507692 27.369485 113.615385 27.367820 113.723077 27.366195 113.830769 27.364608 113.938462 27.363057 114.046154 27.361540 114.153846 27.360055 114.261538 27.358598 114.369231 27.357169 114.476923 27.355763 114.584615 27.354380 114.692308 27.353016 114.800000 27.351670 114.907692 27.350339 115.015385 27.349020 115.123077 27.347712 115.230769 27.346411 115.338462 27.345117 115.446154 27.343825 115.553846 27.342535 115.661538 27.341243 115.769231 27.339948 115.876923 27.338646 115.984615 27.337337 116.092308 27.336016 116.200000 27.334683 116.307692 27.333334 116.415385 27.331967 116.523077 27.330581 116.630769 27.329172 116.738462 27.327738 116.846154 27.326278 116.953846 27.324787 117.061538 27.323266 117.169231 27.321710 117.276923 27.320117 117.384615 27.318486 117.492308 27.316814 117.600000 27.315099 117.707692 27.313337 117.815385 27.311528 117.923077 27.309668 118.030769 27.307756 118.138462 27.305788 118.246154 27.303763 118.353846 27.301678 118.461538 27.299531 118.569231 27.297320 118.676923 27.295042 118.784615 27.292695 118.892308 27.290276 119.000000 27.287783 119.107692 27.285215 119.215385 27.282568 119.323077 27.279840 119.430769 27.277029 119.538462 27.274132 119.646154 27.271148 119.753846 27.268074 119.861538 27.264907 119.969231 27.261645 120.076923 27.258286 120.184615 27.254827 120.292308 27.251267 120.400000 27.247603 120.507692 27.243832 120.615385 27.239952 120.723077 27.235961 120.830769 27.231857 120.938462 27.227636 121.046154 27.223298 121.153846 27.218839 121.261538 27.214257 121.369231 27.209550 121.476923 27.204715 121.584615 27.199751 121.692308 27.194654 121.800000 27.189423 121.907692 27.184054 122.015385 27.178547 122.123077 27.172898 122.230769 27.167105 122.338462 27.161166 122.446154 27.155078 122.553846 27.148840 122.661538 27.142448 122.769231 27.135901 122.876923 27.129195 122.984615 27.122330 123.092308 27.115302 123.200000 27.108109 123.307692 27.100748 123.415385 27.093218 123.523077 27.085516 123.630769 27.077640 123.738462 27.069587 123.846154 27.061356 123.953846 27.052943 124.061538 27.044346 124.169231 27.035563 124.276923 27.026593 124.384615 27.017431 124.492308 27.008076 124.600000 26.998527 124.707692 26.988779 124.815385 26.978832 124.923077 26.968682 125.030769 26.958328 125.138462 26.947766 125.246154 26.936995 125.353846 26.926013 125.461538 26.914817 125.569231 26.903404 125.676923 26.891772 125.784615 26.879920 125.892308 26.867844 126.000000 26.855543 126.107692 26.843013 126.215385 26.830253 126.323077 26.817261 126.430769 26.804033 126.538462 26.790568 126.646154 26.776863 126.753846 26.762917 126.861538 26.748725 126.969231 26.734288 127.076923 26.719601 127.184615 26.704662 127.292308 26.689470 127.400000 26.674022 127.507692 26.658316 127.615385 26.642348 127.723077 26.626118 127.830769 26.609622 127.938462 26.592859 128.046154 26.575825 128.153846 26.558519 128.261538 26.540939 128.369231 26.523081 128.476923 26.504943 128.584615 26.486524 128.692308 26.467821 128.800000 26.448831 128.907692 26.429553 129.015385 26.409983 129.123077 26.390120 129.230769 26.369962 129.338462 26.349505 129.446154 26.328747 129.553846 26.307687 129.661538 26.286322 129.769231 26.264649 129.876923 26.242666 129.984615 26.220371 130.092308 26.197762 130.200000 26.174836 130.307692 26.151591 130.415385 26.128024 130.523077 26.104133 130.630769 26.079916 130.738462 26.055371 130.846154 26.030495 130.953846 26.005285 131.061538 25.979740 131.169231 25.953858 131.276923 25.927635 131.384615 25.901069 131.492308 25.874159 131.600000 25.846901 131.707692 25.819294 131.815385 25.791335 131.923077 25.763022 132.030769 25.734352 132.138462 25.705324 132.246154 25.675934 132.353846 25.646180 132.461538 25.616061 132.569231 25.585573 132.676923 25.554715 132.784615 25.523484 132.892308 25.491878 133.000000 25.459894 133.107692 25.427530 133.215385 25.394784 133.323077 25.361653 133.430769 25.328136 133.538462 25.294229 133.646154 25.259930 133.753846 25.225238 133.861538 25.190149 133.969231 25.154662 134.076923 25.118773 134.184615 25.082482 134.292308 25.045784 134.400000 25.008679 134.507692 24.971164 134.615385 24.933236 134.723077 24.894892 134.830769 24.856132 134.938462 24.816952 135.046154 24.777350 135.153846 24.737323 135.261538 24.696870 135.369231 24.655988 135.476923 24.614675 135.584615 24.572928 135.692308 24.530745 135.800000 24.488123 135.907692 24.445061 136.015385 24.401556 136.123077 24.357605 136.230769 24.313207 136.338462 24.268359 136.446154 24.223058 136.553846 24.177303 136.661538 24.131091 136.769231 24.084419 136.876923 24.037285 136.984615 23.989688 137.092308 23.941624 137.200000 23.893091 137.307692 23.844088 137.415385 23.794611 137.523077 23.744658 137.630769 23.694227 137.738462 23.643315 137.846154 23.591921 137.953846 23.540043 138.061538 23.487681 138.169231 23.434839 138.276923 23.381517 138.384615 23.327717 138.492308 23.273442 138.600000 23.218694 138.707692 23.163475 138.815385 23.107785 138.923077 23.051628 139.030769 22.995006 139.138462 22.937920 139.246154 22.880371 139.353846 22.822363 139.461538 22.763898 139.569231 22.704976 139.676923 22.645600 139.784615 22.585772 139.892308 22.525494 140.000000 22.464767 140.107692 22.403595 140.215385 22.341978 140.323077 22.279918 140.430769 22.217418 140.538462 22.154480 140.646154 22.091105 140.753846 22.027295 140.861538 21.963053 140.969231 21.898380 141.076923 21.833278 141.184615 21.767749 141.292308 21.701796 141.400000 21.635419 141.507692 21.568621 141.615385 21.501404 141.723077 21.433770 141.830769 21.365721 141.938462 21.297259 142.046154 21.228385 142.153846 21.159102 142.261538 21.089411 142.369231 21.019314 142.476923 20.948815 142.584615 20.877913 142.692308 20.806612 142.800000 20.734913 142.907692 20.662818 143.015385 20.590329 143.123077 20.517448 143.230769 20.444178 143.338462 20.370519 143.446154 20.296474 143.553846 20.222045 143.661538 20.147234 143.769231 20.072042 143.876923 19.996472 143.984615 19.920526 144.092308 19.844205 144.200000 19.767511 144.307692 19.690447 144.415385 19.613014 144.523077 19.535215 144.630769 19.457051 144.738462 19.378524 144.846154 19.299636 144.953846 19.220389 145.061538 19.140785 145.169231 19.060826 145.276923 18.980514 145.384615 18.899850 145.492308 18.818837 145.600000 18.737478 145.707692 18.655772 145.815385 18.573723 145.923077 18.491333 146.030769 18.408603 146.138462 18.325536 146.246154 18.242133 146.353846 18.158396 146.461538 18.074327 146.569231 17.989928 146.676923 17.905202 146.784615 17.820149 146.892308 17.734773 147.000000 17.649074 147.107692 17.563056 147.215385 17.476719 147.323077 17.390065 147.430769 17.303098 147.538462 17.215818 147.646154 17.128228 147.753846 17.040329 147.861538 16.952123 147.969231 16.863613 148.076923 16.774800 148.184615 16.685687 148.292308 16.596274 148.400000 16.506565 148.507692 16.416561 148.615385 16.326263 148.723077 16.235675 148.830769 16.144798 148.938462 16.053633 149.046154 15.962184 149.153846 15.870451 149.261538 15.778436 149.369231 15.686142 149.476923 15.593571 149.584615 15.500724 149.692308 15.407604 149.800000 15.314212 149.907692 15.220550 150.015385 15.126621 150.123077 15.032425 150.230769 14.937966 150.338462 14.843245 150.446154 14.748264 150.553846 14.653024 150.661538 14.557529 150.769231 14.461780 150.876923 14.365778 150.984615 14.269526 151.092308 14.173025 151.200000 14.076278 151.307692 13.979287 151.415385 13.882053 151.523077 13.784578 151.630769 13.686865 151.738462 13.588915 151.846154 13.490731 151.953846 13.392313 152.061538 13.293665 152.169231 13.194787 152.276923 13.095683 152.384615 12.996353 152.492308 12.896801 152.600000 12.797027 152.707692 12.697034 152.815385 12.596824 152.923077 12.496398 153.030769 12.395759 153.138462 12.294908 153.246154 12.193848 153.353846 12.092580 153.461538 11.991106 153.569231 11.889429 153.676923 11.787550 153.784615 11.685471 153.892308 11.583194 154.000000 11.480721 154.107692 11.378054 154.215385 11.275195 154.323077 11.172146 154.430769 11.068909 154.538462 10.965485 154.646154 10.861877 154.753846 10.758087 154.861538 10.654116 154.969231 10.549967 155.076923 10.445641 155.184615 10.341141 155.292308 10.236467 155.400000 10.131623 155.507692 10.026611 155.615385 9.921431 155.723077 9.816087 155.830769 9.710579 155.938462 9.604910 156.046154 9.499083 156.153846 9.393098 156.261538 9.286958 156.369231 9.180664 156.476923 9.074220 156.584615 8.967626 156.692308 8.860884 156.800000 8.753997 156.907692 8.646966 157.015385 8.539794 157.123077 8.432482 157.230769 8.325032 157.338462 8.217446 157.446154 8.109727 157.553846 8.001875 157.661538 7.893894 157.769231 7.785784 157.876923 7.677549 157.984615 7.569189 158.092308 7.460707 158.200000 7.352104 158.307692 7.243384 158.415385 7.134547 158.523077 7.025595 158.630769 6.916531 158.738462 6.807356 158.846154 6.698073 158.953846 6.588682 159.061538 6.479188 159.169231 6.369590 159.276923 6.259891 159.384615 6.150093 159.492308 6.040199 159.600000 5.930209 159.707692 5.820126 159.815385 5.709952 159.923077 5.599689 160.030769 5.489338 160.138462 5.378902 160.246154 5.268383 160.353846 5.157782 160.461538 5.047101 160.569231 4.936343 160.676923 4.825510 160.784615 4.714602 160.892308 4.603623 161.000000 4.492574 161.107692 4.381457 161.215385 4.270274 161.323077 4.159026 161.430769 4.047717 161.538462 3.936348 161.646154 3.824921 161.753846 3.713437 161.861538 3.601899 161.969231 3.490308 162.076923 3.378667 162.184615 3.266978 162.292308 3.155242 162.400000 3.043461 162.507692 2.931638 162.615385 2.819774 162.723077 2.707871 162.830769 2.595931 162.938462 2.483956 163.046154 2.371949 163.153846 2.259910 163.261538 2.147842 163.369231 2.035747 163.476923 1.923627 163.584615 1.811483 163.692308 1.699319 163.800000 1.587134 163.907692 1.474933 164.015385 1.362715 164.123077 1.250485 164.230769 1.138242 164.338462 1.025990 164.446154 0.913730 164.553846 0.801464 164.661538 0.689195 164.769231 0.576923" class="line reactive nofill" /></g></g><g class="titles" /><g transform="translate(22, 10)" class="plot overlay"><g class="series serie-0 color-0" /></g><g transform="translate(22, 10)" class="plot text-overlay"><g class="series serie-0 color-0" /></g><g transform="translate(22, 10)" class="plot tooltip-overlay"><g transform="translate(0 0)" style="opacity: 0" class="tooltip"><rect rx="0" ry="0" width="0" height="0" class="tooltip-box" /><g class="text" /></g></g></g></svg>