<?xml version='1.0' encoding='utf-8'?>
<svg xmlns="http://www.w3.org/2000/svg" id="chart-bf3fee14-4335-4138-9647-a70092ef0663" class="pygal-chart pygal-sparkline" viewBox="0 0 200 50" width="200" height="50"><!--Generated with pygal 3.0.4 (etree) ©Kozea 2012-2016 on 2024-05-12--><!--http://pygal.org--><!--http://github.com/Kozea/pygal--><defs><style type="text/css">#chart-bf3fee14-4335-4138-9647-a70092ef0663{-webkit-user-select:none;-webkit-font-smoothing:antialiased;font-family:Consolas,"Liberation Mono",Menlo,Courier,monospace}#chart-bf3fee14-4335-4138-9647-a70092ef0663 .title{font-family:Consolas,"Liberation Mono",Menlo,Courier,monospace;font-size:16px}#chart-bf3fee14-4335-4138-9647-a70092ef0663 .legends .legend text{font-family:Consolas,"Liberation Mono",Menlo,Courier,monospace;font-size:14px}#chart-bf3fee14-4335-4138-9647-a70092ef0663 .axis text{font-family:Consolas,"Liberation Mono",Menlo,Courier,monospace;font-size:10px}#chart-bf3fee14-4335-4138-9647-a70092ef0663 .axis text.major{font-family:Consolas,"Liberation Mono",Menlo,Courier,monospace;font-size:10px}#chart-bf3fee14-4335-4138-9647-a70092ef0663 .text-overlay text.value{font-family:Consolas,"Liberation Mono",Menlo,Courier,monospace;font-size:16px}#chart-bf3fee14-4335-4138-9647-a70092ef0663 .text-overlay text.label{font-family:Consolas,"Liberation Mono",Menlo,Courier,monospace;font-size:10px}#chart-bf3fee14-4335-4138-9647-a70092ef0663 .tooltip{font-family:Consolas,"Liberation Mono",Menlo,Courier,monospace;font-size:14px}#chart-bf3fee14-4335-4138-9647-a70092ef0663 text.no_data{font-family:Consolas,"Liberation Mono",Menlo,Courier,monospace;font-size:64px}
#chart-bf3fee14-4335-4138-9647-a70092ef0663{background-color:rgba(249,249,249,1)}#chart-bf3fee14-4335-4138-9647-a70092ef0663 path,#chart-bf3fee14-4335-4138-9647-a70092ef0663 line,#chart-bf3fee14-4335-4138-9647-a70092ef0663 rect,#chart-bf3fee14-4335-4138-9647-a70092ef0663 circle{-webkit-transition:150ms;-moz-transition:150ms;transition:150ms}#chart-bf3fee14-4335-4138-9647-a70092ef0663 .graph &gt; .background{fill:rgba(249,249,249,1)}#chart-bf3fee14-4335-4138-9647-a70092ef0663 .plot &gt; .background{fill:rgba(255,255,255,1)}#chart-bf3fee14-4335-4138-9647-a70092ef0663 .graph{fill:rgba(0,0,0,.87)}#chart-bf3fee14-4335-4138-9647-a70092ef0663 text.no_data{fill:rgba(0,0,0,1)}#chart-bf3fee14-4335-4138-9647-a70092ef0663 .title{fill:rgba(0,0,0,1)}#chart-bf3fee14-4335-4138-9647-a70092ef0663 .legends .legend text{fill:rgba(0,0,0,.87)}#chart-bf3fee14-4335-4138-9647-a70092ef0663 .legends .legend:hover text{fill:rgba(0,0,0,1)}#chart-bf3fee14-4335-4138-9647-a70092ef0663 .axis .line{stroke:rgba(0,0,0,1)}#chart-bf3fee14-4335-4138-9647-a70092ef0663 .axis .guide.line{stroke:rgba(0,0,0,.54)}#chart-bf3fee14-4335-4138-9647-a70092ef0663 .axis .major.line{stroke:rgba(0,0,0,.87)}#chart-bf3fee14-4335-4138-9647-a70092ef0663 .axis text.major{fill:rgba(0,0,0,1)}#chart-bf3fee14-4335-4138-9647-a70092ef0663 .axis.y .guides:hover .guide.line,#chart-bf3fee14-4335-4138-9647-a70092ef0663 .line-graph .axis.x .guides:hover .guide.line,#chart-bf3fee14-4335-4138-9647-a70092ef0663 .stackedline-graph .axis.x .guides:hover .guide.line,#chart-bf3fee14-4335-4138-9647-a70092ef0663 .xy-graph .axis.x .guides:hover .guide.line{stroke:rgba(0,0,0,1)}#chart-bf3fee14-4335-4138-9647-a70092ef0663 .axis .guides:hover text{fill:rgba(0,0,0,1)}#chart-bf3fee14-4335-4138-9647-a70092ef0663 .reactive{fill-opacity:.7;stroke-opacity:.8;stroke-width:1}#chart-bf3fee14-4335-4138-9647-a70092ef0663 .ci{stroke:rgba(0,0,0,.87)}#chart-bf3fee14-4335-4138-9647-a70092ef0663 .reactive.active,#chart-bf3fee14-4335-4138-9647-a70092ef0663 .active .reactive{fill-opacity:.8;stroke-opacity:.9;stroke-width:4}#chart-bf3fee14-4335-4138-9647-a70092ef0663 .ci .reactive.active{stroke-width:1.5}#chart-bf3fee14-4335-4138-9647-a70092ef0663 .series text{fill:rgba(0,0,0,1)}#chart-bf3fee14-4335-4138-9647-a70092ef0663 .tooltip rect{fill:rgba(255,255,255,1);stroke:rgba(0,0,0,1);-webkit-transition:opacity 150ms;-moz-transition:opacity 150ms;transition:opacity 150ms}#chart-bf3fee14-4335-4138-9647-a70092ef0663 .tooltip .label{fill:rgba(0,0,0,.87)}#chart-bf3fee14-4335-4138-9647-a70092ef0663 .tooltip .label{fill:rgba(0,0,0,.87)}#chart-bf3fee14-4335-4138-9647-a70092ef0663 .tooltip .legend{font-size:.8em;fill:rgba(0,0,0,.54)}#chart-bf3fee14-4335-4138-9647-a70092ef0663 .tooltip .x_label{font-size:.6em;fill:rgba(0,0,0,1)}#chart-bf3fee14-4335-4138-9647-a70092ef0663 .tooltip .xlink{font-size:.5em;text-decoration:underline}#chart-bf3fee14-4335-4138-9647-a70092ef0663 .tooltip .value{font-size:1.5em}#chart-bf3fee14-4335-4138-9647-a70092ef0663 .bound{font-size:.5em}#chart-bf3fee14-4335-4138-9647-a70092ef0663 .max-value{font-size:.75em;fill:rgba(0,0,0,.54)}#chart-bf3fee14-4335-4138-9647-a70092ef0663 .map-element{fill:rgba(255,255,255,1);stroke:rgba(0,0,0,.54) !important}#chart-bf3fee14-4335-4138-9647-a70092ef0663 .map-element .reactive{fill-opacity:inherit;stroke-opacity:inherit}#chart-bf3fee14-4335-4138-9647-a70092ef0663 .color-0,#chart-bf3fee14-4335-4138-9647-a70092ef0663 .color-0 a:visited{stroke:#F44336;fill:#F44336}#chart-bf3fee14-4335-4138-9647-a70092ef0663 .text-overlay .color-0 text{fill:black}
#chart-bf3fee14-4335-4138-9647-a70092ef0663 text.no_data{text-anchor:middle}#chart-bf3fee14-4335-4138-9647-a70092ef0663 .guide.line{fill:none}#chart-bf3fee14-4335-4138-9647-a70092ef0663 .centered{text-anchor:middle}#chart-bf3fee14-4335-4138-9647-a70092ef0663 .title{text-anchor:middle}#chart-bf3fee14-4335-4138-9647-a70092ef0663 .legends .legend text{fill-opacity:1}#chart-bf3fee14-4335-4138-9647-a70092ef0663 .axis.x text{text-anchor:middle}#chart-bf3fee14-4335-4138-9647-a70092ef0663 .axis.x:not(.web) text[transform]{text-anchor:start}#chart-bf3fee14-4335-4138-9647-a70092ef0663 .axis.x:not(.web) text[transform].backwards{text-anchor:end}#chart-bf3fee14-4335-4138-9647-a70092ef0663 .axis.y text{text-anchor:end}#chart-bf3fee14-4335-4138-9647-a70092ef0663 .axis.y text[transform].backwards{text-anchor:start}#chart-bf3fee14-4335-4138-9647-a70092ef0663 .axis.y2 text{text-anchor:start}#chart-bf3fee14-4335-4138-9647-a70092ef0663 .axis.y2 text[transform].backwards{text-anchor:end}#chart-bf3fee14-4335-4138-9647-a70092ef0663 .axis .guide.line{stroke-dasharray:4,4;stroke:black}#chart-bf3fee14-4335-4138-9647-a70092ef0663 .axis .major.guide.line{stroke-dasharray:6,6;stroke:black}#chart-bf3fee14-4335-4138-9647-a70092ef0663 .horizontal .axis.y .guide.line,#chart-bf3fee14-4335-4138-9647-a70092ef0663 .horizontal .axis.y2 .guide.line,#chart-bf3fee14-4335-4138-9647-a70092ef0663 .vertical .axis.x .guide.line{opacity:0}#chart-bf3fee14-4335-4138-9647-a70092ef0663 .horizontal .axis.always_show .guide.line,#chart-bf3fee14-4335-4138-9647-a70092ef0663 .vertical .axis.always_show .guide.line{opacity:1 !important}#chart-bf3fee14-4335-4138-9647-a70092ef0663 .axis.y .guides:hover .guide.line,#chart-bf3fee14-4335-4138-9647-a70092ef0663 .axis.y2 .guides:hover .guide.line,#chart-bf3fee14-4335-4138-9647-a70092ef0663 .axis.x .guides:hover .guide.line{opacity:1}#chart-bf3fee14-4335-4138-9647-a70092ef0663 .axis .guides:hover text{opacity:1}#chart-bf3fee14-4335-4138-9647-a70092ef0663 .nofill{fill:none}#chart-bf3fee14-4335-4138-9647-a70092ef0663 .subtle-fill{fill-opacity:.2}#chart-bf3fee14-4335-4138-9647-a70092ef0663 .dot{stroke-width:1px;fill-opacity:1;stroke-opacity:1}#chart-bf3fee14-4335-4138-9647-a70092ef0663 .dot.active{stroke-width:5px}#chart-bf3fee14-4335-4138-9647-a70092ef0663 .dot.negative{fill:transparent}#chart-bf3fee14-4335-4138-9647-a70092ef0663 text,#chart-bf3fee14-4335-4138-9647-a70092ef0663 tspan{stroke:none !important}#chart-bf3fee14-4335-4138-9647-a70092ef0663 .series text.active{opacity:1}#chart-bf3fee14-4335-4138-9647-a70092ef0663 .tooltip rect{fill-opacity:.95;stroke-width:.5}#chart-bf3fee14-4335-4138-9647-a70092ef0663 .tooltip text{fill-opacity:1}#chart-bf3fee14-4335-4138-9647-a70092ef0663 .showable{visibility:hidden}#chart-bf3fee14-4335-4138-9647-a70092ef0663 .showable.shown{visibility:visible}#chart-bf3fee14-4335-4138-9647-a70092ef0663 .gauge-background{fill:rgba(229,229,229,1);stroke:none}#chart-bf3fee14-4335-4138-9647-a70092ef0663 .bg-lines{stroke:rgba(249,249,249,1);stroke-width:2px}</style><script type="text/javascript">window.pygal = window.pygal || {};window.pygal.config = window.pygal.config || {};window.pygal.config['bf3fee14-4335-4138-9647-a70092ef0663'] = {"allow_interruptions": false, "box_mode": "extremes", "classes": ["pygal-chart", "pygal-sparkline"], "css": ["file://style.css", "file://graph.css"], "defs": [], "disable_xml_declaration": false, "dots_size": 2.5, "dynamic_print_values": false, "explicit_size": true, "fill": false, "force_uri_protocol": "https", "formatter": null, "half_pie": false, "height": 50, "include_x_axis": false, "inner_radius": 0, "interpolate": "cubic", "interpolation_parameters": {}, "interpolation_precision": 250, "inverse_y_axis": false, "js": [], "legend_at_bottom": false, "legend_at_bottom_columns": null, "legend_box_size": 12, "logarithmic": false, "margin": 10, "margin_bottom": null, "margin_left": null, "margin_right": null, "margin_top": null, "max_scale": 2, "min_scale": 1, "missing_value_fill_truncation": "x", "no_data_text": "", "no_prefix": false, "order_min": null, "pretty_print": false, "print_labels": false, "print_values": false, "print_values_position": "center", "print_zeroes": true, "range": null, "rounded_bars": null, "secondary_range": null, "show_dots": false, "show_legend": false, "show_minor_x_labels": true, "show_minor_y_labels": true, "show_only_major_dots": false, "show_x_guides": false, "show_x_labels": false, "show_y_guides": true, "show_y_labels": true, "spacing": 0, "stack_from_top": false, "strict": false, "stroke": true, "stroke_style": null, "style": {"background": "rgba(249, 249, 249, 1)", "ci_colors": [], "colors": ["#F44336", "#3F51B5", "#009688", "#FFC107", "#FF5722", "#9C27B0", "#03A9F4", "#8BC34A", "#FF9800", "#E91E63", "#2196F3", "#4CAF50", "#FFEB3B", "#673AB7", "#00BCD4", "#CDDC39", "#9E9E9E", "#607D8B"], "dot_opacity": "1", "font_family": "Consolas, \"Liberation Mono\", Menlo, Courier, monospace", "foreground": "rgba(0, 0, 0, .87)", "foreground_strong": "rgba(0, 0, 0, 1)", "foreground_subtle": "rgba(0, 0, 0, .54)", "guide_stroke_color": "black", "guide_stroke_dasharray": "4,4", "label_font_family": "Consolas, \"Liberation Mono\", Menlo, Courier, monospace", "label_font_size": 10, "legend_font_family": "Consolas, \"Liberation Mono\", Menlo, Courier, monospace", "legend_font_size": 14, "major_guide_stroke_color": "black", "major_guide_stroke_dasharray": "6,6", "major_label_font_family": "Consolas, \"Liberation Mono\", Menlo, Courier, monospace", "major_label_font_size": 10, "no_data_font_family": "Consolas, \"Liberation Mono\", Menlo, Courier, monospace", "no_data_font_size": 64, "opacity": ".7", "opacity_hover": ".8", "plot_background": "rgba(255, 255, 255, 1)", "stroke_opacity": ".8", "stroke_opacity_hover": ".9", "stroke_width": "1", "stroke_width_hover": "4", "title_font_family": "Consolas, \"Liberation Mono\", Menlo, Courier, monospace", "title_font_size": 16, "tooltip_font_family": "Consolas, \"Liberation Mono\", Menlo, Courier, monospace", "tooltip_font_size": 14, "transition": "150ms", "value_background": "rgba(229, 229, 229, 1)", "value_colors": [], "value_font_family": "Consolas, \"Liberation Mono\", Menlo, Courier, monospace", "value_font_size": 16, "value_label_font_family": "Consolas, \"Liberation Mono\", Menlo, Courier, monospace", "value_label_font_size": 10}, "title": null, "tooltip_border_radius": 0, "tooltip_fancy_mode": true, "truncate_label": null, "truncate_legend": null, "width": 200, "x_label_rotation": 0, "x_labels": ["2024/1", "2023/11", "2023/1", "2022/12", "2022/11", "2022/10", "2022/9"], "x_labels_major": null, "x_labels_major_count": null, "x_labels_major_every": null, "x_title": null, "xrange": null, "y_label_rotation": 0, "y_labels": null, "y_labels_major": null, "y_labels_major_count": null, "y_labels_major_every": null, "y_title": null, "zero": 0, "legends": [""]}</script></defs><title>Pygal</title><g class="graph line-graph vertical"><rect x="0" y="0" width="200" height="50" class="background" /><g transform="translate(20, 10)" class="plot"><rect x="0" y="0" width="170" height="30" class="background" /><g class="axis y always_show"><path d="M0.000000 30.000000 h170.000000" class="line" /><g class="guides"><path d="M0.000000 15.356789 h170.000000" class="guide line" /><text x="-5" y="18.856788976454425" class="">4</text><title>4</title></g><g class="guides"><path d="M0.000000 0.655534 h170.000000" class="guide line" /><text x="-5" y="4.155533629514242" class="">8</text><title>8</title></g></g><g class="series serie-0 color-0"><path d="M3.269231 22.707417 L3.378205 22.768181 3.487179 22.828941 3.596154 22.889692 3.705128 22.950430 3.814103 23.011150 3.923077 23.071849 4.032051 23.132520 4.141026 23.193161 4.250000 23.253766 4.358974 23.314332 4.467949 23.374853 4.576923 23.435325 4.685897 23.495745 4.794872 23.556107 4.903846 23.616407 5.012821 23.676641 5.121795 23.736804 5.230769 23.796892 5.339744 23.856900 5.448718 23.916824 5.557692 23.976660 5.666667 24.036403 5.775641 24.096049 5.884615 24.155593 5.993590 24.215030 6.102564 24.274358 6.211538 24.333570 6.320513 24.392663 6.429487 24.451632 6.538462 24.510473 6.647436 24.569181 6.756410 24.627752 6.865385 24.686181 6.974359 24.744465 7.083333 24.802598 7.192308 24.860577 7.301282 24.918396 7.410256 24.976052 7.519231 25.033540 7.628205 25.090855 7.737179 25.147993 7.846154 25.204950 7.955128 25.261721 8.064103 25.318302 8.173077 25.374689 8.282051 25.430876 8.391026 25.486861 8.500000 25.542637 8.608974 25.598201 8.717949 25.653548 8.826923 25.708674 8.935897 25.763575 9.044872 25.818246 9.153846 25.872682 9.262821 25.926880 9.371795 25.980834 9.480769 26.034541 9.589744 26.087996 9.698718 26.141194 9.807692 26.194131 9.916667 26.246803 10.025641 26.299205 10.134615 26.351333 10.243590 26.403183 10.352564 26.454749 10.461538 26.506028 10.570513 26.557015 10.679487 26.607706 10.788462 26.658096 10.897436 26.708181 11.006410 26.757956 11.115385 26.807418 11.224359 26.856561 11.333333 26.905381 11.442308 26.953874 11.551282 27.002036 11.660256 27.049861 11.769231 27.097346 11.878205 27.144486 11.987179 27.191276 12.096154 27.237713 12.205128 27.283791 12.314103 27.329507 12.423077 27.374856 12.532051 27.419833 12.641026 27.464435 12.750000 27.508656 12.858974 27.552493 12.967949 27.595940 13.076923 27.638994 13.185897 27.681650 13.294872 27.723903 13.403846 27.765750 13.512821 27.807185 13.621795 27.848205 13.730769 27.888804 13.839744 27.928979 13.948718 27.968725 14.057692 28.008038 14.166667 28.046913 14.275641 28.085345 14.384615 28.123331 14.493590 28.160866 14.602564 28.197946 14.711538 28.234565 14.820513 28.270721 14.929487 28.306407 15.038462 28.341620 15.147436 28.376356 15.256410 28.410610 15.365385 28.444377 15.474359 28.477654 15.583333 28.510435 15.692308 28.542716 15.801282 28.574494 15.910256 28.605762 16.019231 28.636518 16.128205 28.666757 16.237179 28.696473 16.346154 28.725664 16.455128 28.754323 16.564103 28.782448 16.673077 28.810033 16.782051 28.837074 16.891026 28.863567 17.000000 28.889507 17.108974 28.914890 17.217949 28.939712 17.326923 28.963967 17.435897 28.987652 17.544872 29.010762 17.653846 29.033292 17.762821 29.055239 17.871795 29.076598 17.980769 29.097364 18.089744 29.117534 18.198718 29.137101 18.307692 29.156063 18.416667 29.174415 18.525641 29.192152 18.634615 29.209270 18.743590 29.225765 18.852564 29.241631 18.961538 29.256865 19.070513 29.271462 19.179487 29.285419 19.288462 29.298729 19.397436 29.311390 19.506410 29.323395 19.615385 29.334743 19.724359 29.345426 19.833333 29.355442 19.942308 29.364786 20.051282 29.373453 20.160256 29.381440 20.269231 29.388740 20.378205 29.395351 20.487179 29.401268 20.596154 29.406486 20.705128 29.411001 20.814103 29.414808 20.923077 29.417904 21.032051 29.420283 21.141026 29.421941 21.250000 29.422874 21.358974 29.423077 21.467949 29.422546 21.576923 29.421277 21.685897 29.419265 21.794872 29.416505 21.903846 29.412994 22.012821 29.408726 22.121795 29.403698 22.230769 29.397905 22.339744 29.391342 22.448718 29.384006 22.557692 29.375891 22.666667 29.366994 22.775641 29.357309 22.884615 29.346833 22.993590 29.335561 23.102564 29.323488 23.211538 29.310611 23.320513 29.296924 23.429487 29.282424 23.538462 29.267105 23.647436 29.250964 23.756410 29.233996 23.865385 29.216197 23.974359 29.197562 24.083333 29.178087 24.192308 29.157767 24.301282 29.136598 24.410256 29.114576 24.519231 29.091696 24.628205 29.067953 24.737179 29.043344 24.846154 29.017863 24.955128 28.991507 25.064103 28.964271 25.173077 28.936150 25.282051 28.907141 25.391026 28.877238 25.500000 28.846438 25.608974 28.814736 25.717949 28.782127 25.826923 28.748607 25.935897 28.714171 26.044872 28.678816 26.153846 28.642537 26.262821 28.605329 26.371795 28.567188 26.480769 28.528109 26.589744 28.488089 26.698718 28.447122 26.807692 28.405204 26.916667 28.362332 27.025641 28.318499 27.134615 28.273703 27.243590 28.227938 27.352564 28.181200 27.461538 28.133485 27.570513 28.084789 27.679487 28.035106 27.788462 27.984432 27.897436 27.932764 28.006410 27.880096 28.115385 27.826424 28.224359 27.771745 28.333333 27.716052 28.442308 27.659342 28.551282 27.601611 28.660256 27.542854 28.769231 27.483067 28.878205 27.422244 28.987179 27.360383 29.096154 27.297478 29.205128 27.233525 29.314103 27.168519 29.423077 27.102457 29.532051 27.035333 29.641026 26.967144 29.750000 26.897884 29.858974 26.827550 29.967949 26.756136 30.076923 26.683640 30.185897 26.610055 30.294872 26.535379 30.403846 26.459605 30.512821 26.382730 30.621795 26.304753 30.730769 26.225681 30.839744 26.145524 30.948718 26.064295 31.057692 25.982004 31.166667 25.898661 31.275641 25.814277 31.384615 25.728864 31.493590 25.642431 31.602564 25.554991 31.711538 25.466553 31.820513 25.377129 31.929487 25.286729 32.038462 25.195364 32.147436 25.103045 32.256410 25.009783 32.365385 24.915588 32.474359 24.820472 32.583333 24.724445 32.692308 24.627518 32.801282 24.529702 32.910256 24.431008 33.019231 24.331446 33.128205 24.231027 33.237179 24.129763 33.346154 24.027664 33.455128 23.924740 33.564103 23.821003 33.673077 23.716464 33.782051 23.611132 33.891026 23.505020 34.000000 23.398138 34.108974 23.290496 34.217949 23.182106 34.326923 23.072978 34.435897 22.963123 34.544872 22.852553 34.653846 22.741277 34.762821 22.629307 34.871795 22.516653 34.980769 22.403327 35.089744 22.289338 35.198718 22.174699 35.307692 22.059419 35.416667 21.943510 35.525641 21.826982 35.634615 21.709847 35.743590 21.592114 35.852564 21.473795 35.961538 21.354901 36.070513 21.235443 36.179487 21.115430 36.288462 20.994875 36.397436 20.873788 36.506410 20.752179 36.615385 20.630060 36.724359 20.507442 36.833333 20.384334 36.942308 20.260749 37.051282 20.136696 37.160256 20.012188 37.269231 19.887233 37.378205 19.761844 37.487179 19.636031 37.596154 19.509805 37.705128 19.383177 37.814103 19.256158 37.923077 19.128758 38.032051 19.000988 38.141026 18.872859 38.250000 18.744382 38.358974 18.615568 38.467949 18.486427 38.576923 18.356970 38.685897 18.227209 38.794872 18.097154 38.903846 17.966815 39.012821 17.836204 39.121795 17.705332 39.230769 17.574209 39.339744 17.442846 39.448718 17.311253 39.557692 17.179443 39.666667 17.047425 39.775641 16.915210 39.884615 16.782810 39.993590 16.650234 40.102564 16.517495 40.211538 16.384602 40.320513 16.251566 40.429487 16.118399 40.538462 15.985111 40.647436 15.851713 40.756410 15.718215 40.865385 15.584629 40.974359 15.450965 41.083333 15.317235 41.192308 15.183449 41.301282 15.049617 41.410256 14.915751 41.519231 14.781862 41.628205 14.647960 41.737179 14.514056 41.846154 14.380161 41.955128 14.246286 42.064103 14.112441 42.173077 13.978638 42.282051 13.844886 42.391026 13.711198 42.500000 13.577584 42.608974 13.444055 42.717949 13.310621 42.826923 13.177293 42.935897 13.044083 43.044872 12.911000 43.153846 12.778056 43.262821 12.645262 43.371795 12.512628 43.480769 12.380166 43.589744 12.247885 43.698718 12.115798 43.807692 11.983914 43.916667 11.852244 44.025641 11.720800 44.134615 11.589592 44.243590 11.458631 44.352564 11.327928 44.461538 11.197494 44.570513 11.067339 44.679487 10.937474 44.788462 10.807910 44.897436 10.678659 45.006410 10.549729 45.115385 10.421134 45.224359 10.292883 45.333333 10.164987 45.442308 10.037457 45.551282 9.910304 45.660256 9.783538 45.769231 9.657171 45.878205 9.531213 45.987179 9.405676 46.096154 9.280569 46.205128 9.155904 46.314103 9.031691 46.423077 8.907942 46.532051 8.784668 46.641026 8.661878 46.750000 8.539584 46.858974 8.417796 46.967949 8.296527 47.076923 8.175785 47.185897 8.055583 47.294872 7.935930 47.403846 7.816839 47.512821 7.698318 47.621795 7.580381 47.730769 7.463036 47.839744 7.346296 47.948718 7.230170 48.057692 7.114670 48.166667 6.999807 48.275641 6.885591 48.384615 6.772033 48.493590 6.659144 48.602564 6.546935 48.711538 6.435416 48.820513 6.324599 48.929487 6.214494 49.038462 6.105113 49.147436 5.996465 49.256410 5.888561 49.365385 5.781414 49.474359 5.675032 49.583333 5.569428 49.692308 5.464612 49.801282 5.360595 49.910256 5.257387 50.019231 5.155000 50.128205 5.053444 50.237179 4.952730 50.346154 4.852869 50.455128 4.753871 50.564103 4.655749 50.673077 4.558511 50.782051 4.462170 50.891026 4.366736 51.000000 4.272219 51.108974 4.178632 51.217949 4.085983 51.326923 3.994285 51.435897 3.903549 51.544872 3.813784 51.653846 3.725001 51.762821 3.637213 51.871795 3.550429 51.980769 3.464660 52.089744 3.379917 52.198718 3.296211 52.307692 3.213552 52.416667 3.131952 52.525641 3.051421 52.634615 2.971971 52.743590 2.893611 52.852564 2.816354 52.961538 2.740208 53.070513 2.665187 53.179487 2.591299 53.288462 2.518556 53.397436 2.446970 53.506410 2.376550 53.615385 2.307307 53.724359 2.239253 53.833333 2.172398 53.942308 2.106753 54.051282 2.042329 54.160256 1.979137 54.269231 1.917186 54.378205 1.856490 54.487179 1.797057 54.596154 1.738899 54.705128 1.682027 54.814103 1.626451 54.923077 1.572183 55.032051 1.519232 55.141026 1.467611 55.250000 1.417330 55.358974 1.368399 55.467949 1.320830 55.576923 1.274633 55.685897 1.229819 55.794872 1.186399 55.903846 1.144384 56.012821 1.103784 56.121795 1.064611 56.230769 1.026875 56.339744 0.990587 56.448718 0.955757 56.557692 0.922398 56.666667 0.890518 56.775641 0.860131 56.884615 0.831245 56.993590 0.803872 57.102564 0.778023 57.211538 0.753709 57.320513 0.730940 57.429487 0.709727 57.538462 0.690081 57.647436 0.672013 57.756410 0.655534 57.865385 0.640650 57.974359 0.627356 58.083333 0.615640 58.192308 0.605491 58.301282 0.596899 58.410256 0.589854 58.519231 0.584344 58.628205 0.580360 58.737179 0.577889 58.846154 0.576923 58.955128 0.577450 59.064103 0.579459 59.173077 0.582941 59.282051 0.587883 59.391026 0.594276 59.500000 0.602110 59.608974 0.611372 59.717949 0.622054 59.826923 0.634143 59.935897 0.647630 60.044872 0.662504 60.153846 0.678754 60.262821 0.696370 60.371795 0.715341 60.480769 0.735655 60.589744 0.757304 60.698718 0.780276 60.807692 0.804560 60.916667 0.830146 61.025641 0.857023 61.134615 0.885181 61.243590 0.914608 61.352564 0.945295 61.461538 0.977231 61.570513 1.010404 61.679487 1.044805 61.788462 1.080423 61.897436 1.117247 62.006410 1.155266 62.115385 1.194470 62.224359 1.234848 62.333333 1.276390 62.442308 1.319085 62.551282 1.362922 62.660256 1.407891 62.769231 1.453981 62.878205 1.501181 62.987179 1.549481 63.096154 1.598871 63.205128 1.649338 63.314103 1.700874 63.423077 1.753467 63.532051 1.807107 63.641026 1.861782 63.750000 1.917484 63.858974 1.974199 63.967949 2.031919 64.076923 2.090632 64.185897 2.150329 64.294872 2.210997 64.403846 2.272627 64.512821 2.335208 64.621795 2.398729 64.730769 2.463180 64.839744 2.528550 64.948718 2.594828 65.057692 2.662005 65.166667 2.730068 65.275641 2.799008 65.384615 2.868814 65.493590 2.939475 65.602564 3.010980 65.711538 3.083320 65.820513 3.156483 65.929487 3.230459 66.038462 3.305236 66.147436 3.380806 66.256410 3.457156 66.365385 3.534276 66.474359 3.612156 66.583333 3.690785 66.692308 3.770152 66.801282 3.850247 66.910256 3.931059 67.019231 4.012577 67.128205 4.094791 67.237179 4.177690 67.346154 4.261264 67.455128 4.345502 67.564103 4.430393 67.673077 4.515926 67.782051 4.602092 67.891026 4.688878 68.000000 4.776276 68.108974 4.864274 68.217949 4.952861 68.326923 5.042027 68.435897 5.131761 68.544872 5.222053 68.653846 5.312891 68.762821 5.404266 68.871795 5.496167 68.980769 5.588583 69.089744 5.681503 69.198718 5.774916 69.307692 5.868813 69.416667 5.963183 69.525641 6.058014 69.634615 6.153297 69.743590 6.249020 69.852564 6.345173 69.961538 6.441746 70.070513 6.538727 70.179487 6.636107 70.288462 6.733874 70.397436 6.832017 70.506410 6.930527 70.615385 7.029392 70.724359 7.128603 70.833333 7.228147 70.942308 7.328016 71.051282 7.428197 71.160256 7.528681 71.269231 7.629456 71.378205 7.730513 71.487179 7.831840 71.596154 7.933427 71.705128 8.035263 71.814103 8.137338 71.923077 8.239641 72.032051 8.342161 72.141026 8.444888 72.250000 8.547811 72.358974 8.650919 72.467949 8.754202 72.576923 8.857650 72.685897 8.961251 72.794872 9.064995 72.903846 9.168871 73.012821 9.272869 73.121795 9.376977 73.230769 9.481187 73.339744 9.585486 73.448718 9.689864 73.557692 9.794310 73.666667 9.898815 73.775641 10.003366 73.884615 10.107955 73.993590 10.212569 74.102564 10.317199 74.211538 10.421833 74.320513 10.526461 74.429487 10.631073 74.538462 10.735658 74.647436 10.840205 74.756410 10.944703 74.865385 11.049142 74.974359 11.153512 75.083333 11.257801 75.192308 11.361999 75.301282 11.466096 75.410256 11.570080 75.519231 11.673942 75.628205 11.777670 75.737179 11.881253 75.846154 11.984682 75.955128 12.087946 76.064103 12.191034 76.173077 12.293935 76.282051 12.396638 76.391026 12.499134 76.500000 12.601411 76.608974 12.703459 76.717949 12.805267 76.826923 12.906825 76.935897 13.008121 77.044872 13.109146 77.153846 13.209889 77.262821 13.310338 77.371795 13.410484 77.480769 13.510315 77.589744 13.609822 77.698718 13.708993 77.807692 13.807818 77.916667 13.906287 78.025641 14.004388 78.134615 14.102110 78.243590 14.199444 78.352564 14.296379 78.461538 14.392904 78.570513 14.489008 78.679487 14.584681 78.788462 14.679913 78.897436 14.774692 79.006410 14.869007 79.115385 14.962849 79.224359 15.056207 79.333333 15.149069 79.442308 15.241426 79.551282 15.333267 79.660256 15.424581 79.769231 15.515357 79.878205 15.605585 79.987179 15.695254 80.096154 15.784354 80.205128 15.872874 80.314103 15.960803 80.423077 16.048131 80.532051 16.134847 80.641026 16.220941 80.750000 16.306401 80.858974 16.391217 80.967949 16.475379 81.076923 16.558875 81.185897 16.641696 81.294872 16.723831 81.403846 16.805268 81.512821 16.885998 81.621795 16.966010 81.730769 17.045293 81.839744 17.123836 81.948718 17.201629 82.057692 17.278661 82.166667 17.354922 82.275641 17.430401 82.384615 17.505087 82.493590 17.578970 82.602564 17.652039 82.711538 17.724283 82.820513 17.795692 82.929487 17.866255 83.038462 17.935962 83.147436 18.004801 83.256410 18.072763 83.365385 18.139837 83.474359 18.206011 83.583333 18.271276 83.692308 18.335620 83.801282 18.399034 83.910256 18.461506 84.019231 18.523026 84.128205 18.583583 84.237179 18.643167 84.346154 18.701766 84.455128 18.759371 84.564103 18.815971 84.673077 18.871554 84.782051 18.926111 84.891026 18.979631 85.000000 19.032103 85.108974 19.083519 85.217949 19.133881 85.326923 19.183195 85.435897 19.231465 85.544872 19.278696 85.653846 19.324893 85.762821 19.370061 85.871795 19.414204 85.980769 19.457328 86.089744 19.499438 86.198718 19.540538 86.307692 19.580634 86.416667 19.619730 86.525641 19.657830 86.634615 19.694941 86.743590 19.731067 86.852564 19.766213 86.961538 19.800383 87.070513 19.833583 87.179487 19.865817 87.288462 19.897091 87.397436 19.927408 87.506410 19.956775 87.615385 19.985197 87.724359 20.012677 87.833333 20.039220 87.942308 20.064833 88.051282 20.089519 88.160256 20.113284 88.269231 20.136132 88.378205 20.158068 88.487179 20.179098 88.596154 20.199225 88.705128 20.218456 88.814103 20.236794 88.923077 20.254245 89.032051 20.270814 89.141026 20.286506 89.250000 20.301324 89.358974 20.315275 89.467949 20.328364 89.576923 20.340594 89.685897 20.351972 89.794872 20.362501 89.903846 20.372187 90.012821 20.381035 90.121795 20.389049 90.230769 20.396235 90.339744 20.402597 90.448718 20.408140 90.557692 20.412870 90.666667 20.416790 90.775641 20.419907 90.884615 20.422224 90.993590 20.423747 91.102564 20.424481 91.211538 20.424430 91.320513 20.423599 91.429487 20.421994 91.538462 20.419619 91.647436 20.416479 91.756410 20.412579 91.865385 20.407924 91.974359 20.402518 92.083333 20.396368 92.192308 20.389476 92.301282 20.381849 92.410256 20.373492 92.519231 20.364408 92.628205 20.354604 92.737179 20.344084 92.846154 20.332853 92.955128 20.320915 93.064103 20.308276 93.173077 20.294941 93.282051 20.280914 93.391026 20.266200 93.500000 20.250805 93.608974 20.234733 93.717949 20.217988 93.826923 20.200577 93.935897 20.182504 94.044872 20.163773 94.153846 20.144390 94.262821 20.124359 94.371795 20.103686 94.480769 20.082375 94.589744 20.060431 94.698718 20.037859 94.807692 20.014664 94.916667 19.990851 95.025641 19.966425 95.134615 19.941390 95.243590 19.915752 95.352564 19.889515 95.461538 19.862685 95.570513 19.835266 95.679487 19.807263 95.788462 19.778680 95.897436 19.749524 96.006410 19.719799 96.115385 19.689509 96.224359 19.658659 96.333333 19.627256 96.442308 19.595302 96.551282 19.562804 96.660256 19.529766 96.769231 19.496192 96.878205 19.462089 96.987179 19.427461 97.096154 19.392312 97.205128 19.356648 97.314103 19.320473 97.423077 19.283793 97.532051 19.246612 97.641026 19.208935 97.750000 19.170767 97.858974 19.132113 97.967949 19.092978 98.076923 19.053367 98.185897 19.013284 98.294872 18.972735 98.403846 18.931724 98.512821 18.890256 98.621795 18.848337 98.730769 18.805971 98.839744 18.763163 98.948718 18.719917 99.057692 18.676240 99.166667 18.632135 99.275641 18.587607 99.384615 18.542662 99.493590 18.497304 99.602564 18.451539 99.711538 18.405371 99.820513 18.358804 99.929487 18.311845 100.038462 18.264497 100.147436 18.216766 100.256410 18.168657 100.365385 18.120174 100.474359 18.071322 100.583333 18.022107 100.692308 17.972533 100.801282 17.922605 100.910256 17.872328 101.019231 17.821706 101.128205 17.770746 101.237179 17.719451 101.346154 17.667826 101.455128 17.615877 101.564103 17.563608 101.673077 17.511025 101.782051 17.458131 101.891026 17.404933 102.000000 17.351434 102.108974 17.297640 102.217949 17.243556 102.326923 17.189186 102.435897 17.134535 102.544872 17.079609 102.653846 17.024412 102.762821 16.968950 102.871795 16.913226 102.980769 16.857246 103.089744 16.801015 103.198718 16.744538 103.307692 16.687819 103.416667 16.630864 103.525641 16.573677 103.634615 16.516263 103.743590 16.458627 103.852564 16.400775 103.961538 16.342710 104.070513 16.284438 104.179487 16.225964 104.288462 16.167293 104.397436 16.108429 104.506410 16.049377 104.615385 15.990143 104.724359 15.930730 104.833333 15.871145 104.942308 15.811392 105.051282 15.751476 105.160256 15.691401 105.269231 15.631173 105.378205 15.570797 105.487179 15.510277 105.596154 15.449618 105.705128 15.388826 105.814103 15.327905 105.923077 15.266859 106.032051 15.205695 106.141026 15.144416 106.250000 15.083028 106.358974 15.021536 106.467949 14.959944 106.576923 14.898257 106.685897 14.836481 106.794872 14.774619 106.903846 14.712678 107.012821 14.650662 107.121795 14.588575 107.230769 14.526423 107.339744 14.464211 107.448718 14.401943 107.557692 14.339625 107.666667 14.277261 107.775641 14.214856 107.884615 14.152415 107.993590 14.089943 108.102564 14.027445 108.211538 13.964926 108.320513 13.902390 108.429487 13.839843 108.538462 13.777289 108.647436 13.714734 108.756410 13.652181 108.865385 13.589637 108.974359 13.527106 109.083333 13.464593 109.192308 13.402102 109.301282 13.339639 109.410256 13.277209 109.519231 13.214816 109.628205 13.152466 109.737179 13.090162 109.846154 13.027911 109.955128 12.965717 110.064103 12.903585 110.173077 12.841519 110.282051 12.779525 110.391026 12.717608 110.500000 12.655773 110.608974 12.594023 110.717949 12.532365 110.826923 12.470803 110.935897 12.409342 111.044872 12.347988 111.153846 12.286743 111.262821 12.225615 111.371795 12.164607 111.480769 12.103725 111.589744 12.042973 111.698718 11.982357 111.807692 11.921881 111.916667 11.861549 112.025641 11.801368 112.134615 11.741342 112.243590 11.681475 112.352564 11.621773 112.461538 11.562235 112.570513 11.502865 112.679487 11.443662 112.788462 11.384627 112.897436 11.325762 113.006410 11.267067 113.115385 11.208544 113.224359 11.150192 113.333333 11.092014 113.442308 11.034009 113.551282 10.976180 113.660256 10.918527 113.769231 10.861050 113.878205 10.803751 113.987179 10.746631 114.096154 10.689691 114.205128 10.632932 114.314103 10.576354 114.423077 10.519958 114.532051 10.463746 114.641026 10.407719 114.750000 10.351877 114.858974 10.296221 114.967949 10.240752 115.076923 10.185472 115.185897 10.130380 115.294872 10.075479 115.403846 10.020769 115.512821 9.966250 115.621795 9.911925 115.730769 9.857793 115.839744 9.803856 115.948718 9.750115 116.057692 9.696570 116.166667 9.643223 116.275641 9.590075 116.384615 9.537126 116.493590 9.484377 116.602564 9.431830 116.711538 9.379485 116.820513 9.327344 116.929487 9.275406 117.038462 9.223674 117.147436 9.172147 117.256410 9.120828 117.365385 9.069716 117.474359 9.018814 117.583333 8.968121 117.692308 8.917639 117.801282 8.867369 117.910256 8.817311 118.019231 8.767467 118.128205 8.717838 118.237179 8.668423 118.346154 8.619226 118.455128 8.570245 118.564103 8.521483 118.673077 8.472941 118.782051 8.424618 118.891026 8.376516 119.000000 8.328637 119.108974 8.280980 119.217949 8.233548 119.326923 8.186340 119.435897 8.139358 119.544872 8.092603 119.653846 8.046075 119.762821 7.999776 119.871795 7.953707 119.980769 7.907868 120.089744 7.862261 120.198718 7.816886 120.307692 7.771745 120.416667 7.726837 120.525641 7.682165 120.634615 7.637729 120.743590 7.593531 120.852564 7.549570 120.961538 7.505848 121.070513 7.462366 121.179487 7.419125 121.288462 7.376126 121.397436 7.333370 121.506410 7.290857 121.615385 7.248589 121.724359 7.206566 121.833333 7.164790 121.942308 7.123262 122.051282 7.081982 122.160256 7.040951 122.269231 7.000170 122.378205 6.959641 122.487179 6.919364 122.596154 6.879339 122.705128 6.839569 122.814103 6.800054 122.923077 6.760795 123.032051 6.721793 123.141026 6.683048 123.250000 6.644563 123.358974 6.606336 123.467949 6.568371 123.576923 6.530667 123.685897 6.493226 123.794872 6.456048 123.903846 6.419134 124.012821 6.382486 124.121795 6.346104 124.230769 6.309989 124.339744 6.274143 124.448718 6.238565 124.557692 6.203258 124.666667 6.168221 124.775641 6.133457 124.884615 6.098965 124.993590 6.064747 125.102564 6.030804 125.211538 5.997136 125.320513 5.963745 125.429487 5.930632 125.538462 5.897797 125.647436 5.865242 125.756410 5.832967 125.865385 5.800973 125.974359 5.769262 126.083333 5.737833 126.192308 5.706689 126.301282 5.675830 126.410256 5.645257 126.519231 5.614971 126.628205 5.584973 126.737179 5.555264 126.846154 5.525845 126.955128 5.496716 127.064103 5.467879 127.173077 5.439334 127.282051 5.411083 127.391026 5.383127 127.500000 5.355466 127.608974 5.328102 127.717949 5.301034 127.826923 5.274265 127.935897 5.247796 128.044872 5.221626 128.153846 5.195757 128.262821 5.170191 128.371795 5.144927 128.480769 5.119968 128.589744 5.095313 128.698718 5.070964 128.807692 5.046921 128.916667 5.023187 129.025641 4.999761 129.134615 4.976644 129.243590 4.953838 129.352564 4.931344 129.461538 4.909161 129.570513 4.887293 129.679487 4.865738 129.788462 4.844499 129.897436 4.823575 130.006410 4.802969 130.115385 4.782681 130.224359 4.762712 130.333333 4.743062 130.442308 4.723734 130.551282 4.704727 130.660256 4.686043 130.769231 4.667683 130.878205 4.649647 130.987179 4.631937 131.096154 4.614553 131.205128 4.597497 131.314103 4.580769 131.423077 4.564370 131.532051 4.548302 131.641026 4.532565 131.750000 4.517160 131.858974 4.502088 131.967949 4.487350 132.076923 4.472947 132.185897 4.458880 132.294872 4.445149 132.403846 4.431757 132.512821 4.418703 132.621795 4.405989 132.730769 4.393615 132.839744 4.381583 132.948718 4.369894 133.057692 4.358548 133.166667 4.347546 133.275641 4.336890 133.384615 4.326580 133.493590 4.316617 133.602564 4.307002 133.711538 4.297736 133.820513 4.288820 133.929487 4.280255 134.038462 4.272042 134.147436 4.264182 134.256410 4.256676 134.365385 4.249524 134.474359 4.242728 134.583333 4.236289 134.692308 4.230207 134.801282 4.224484 134.910256 4.219120 135.019231 4.214116 135.128205 4.209474 135.237179 4.205194 135.346154 4.201277 135.455128 4.197724 135.564103 4.194536 135.673077 4.191715 135.782051 4.189260 135.891026 4.187173 136.000000 4.185455 136.108974 4.184107 136.217949 4.183129 136.326923 4.182523 136.435897 4.182290 136.544872 4.182430 136.653846 4.182945 136.762821 4.183835 136.871795 4.185101 136.980769 4.186745 137.089744 4.188767 137.198718 4.191168 137.307692 4.193949 137.416667 4.197112 137.525641 4.200656 137.634615 4.204583 137.743590 4.208894 137.852564 4.213590 137.961538 4.218672 138.070513 4.224140 138.179487 4.229996 138.288462 4.236241 138.397436 4.242875 138.506410 4.249900 138.615385 4.257316 138.724359 4.265124 138.833333 4.273326 138.942308 4.281922 139.051282 4.290913 139.160256 4.300300 139.269231 4.310084 139.378205 4.320266 139.487179 4.330847 139.596154 4.341828 139.705128 4.353207 139.814103 4.364982 139.923077 4.377153 140.032051 4.389717 140.141026 4.402673 140.250000 4.416019 140.358974 4.429754 140.467949 4.443876 140.576923 4.458384 140.685897 4.473275 140.794872 4.488549 140.903846 4.504203 141.012821 4.520237 141.121795 4.536647 141.230769 4.553434 141.339744 4.570595 141.448718 4.588129 141.557692 4.606034 141.666667 4.624308 141.775641 4.642950 141.884615 4.661959 141.993590 4.681332 142.102564 4.701068 142.211538 4.721166 142.320513 4.741623 142.429487 4.762439 142.538462 4.783612 142.647436 4.805140 142.756410 4.827021 142.865385 4.849254 142.974359 4.871837 143.083333 4.894769 143.192308 4.918048 143.301282 4.941673 143.410256 4.965641 143.519231 4.989952 143.628205 5.014604 143.737179 5.039594 143.846154 5.064922 143.955128 5.090586 144.064103 5.116585 144.173077 5.142916 144.282051 5.169578 144.391026 5.196569 144.500000 5.223889 144.608974 5.251534 144.717949 5.279505 144.826923 5.307798 144.935897 5.336413 145.044872 5.365348 145.153846 5.394602 145.262821 5.424171 145.371795 5.454056 145.480769 5.484255 145.589744 5.514765 145.698718 5.545586 145.807692 5.576716 145.916667 5.608152 146.025641 5.639894 146.134615 5.671940 146.243590 5.704289 146.352564 5.736937 146.461538 5.769886 146.570513 5.803131 146.679487 5.836673 146.788462 5.870508 146.897436 5.904637 147.006410 5.939057 147.115385 5.973766 147.224359 6.008763 147.333333 6.044046 147.442308 6.079614 147.551282 6.115465 147.660256 6.151598 147.769231 6.188011 147.878205 6.224701 147.987179 6.261669 148.096154 6.298912 148.205128 6.336428 148.314103 6.374216 148.423077 6.412275 148.532051 6.450602 148.641026 6.489196 148.750000 6.528056 148.858974 6.567180 148.967949 6.606566 149.076923 6.646212 149.185897 6.686118 149.294872 6.726282 149.403846 6.766701 149.512821 6.807375 149.621795 6.848301 149.730769 6.889479 149.839744 6.930906 149.948718 6.972581 150.057692 7.014502 150.166667 7.056668 150.275641 7.099077 150.384615 7.141727 150.493590 7.184618 150.602564 7.227747 150.711538 7.271113 150.820513 7.314713 150.929487 7.358547 151.038462 7.402614 151.147436 7.446910 151.256410 7.491435 151.365385 7.536188 151.474359 7.581166 151.583333 7.626367 151.692308 7.671792 151.801282 7.717437 151.910256 7.763301 152.019231 7.809382 152.128205 7.855680 152.237179 7.902191 152.346154 7.948916 152.455128 7.995852 152.564103 8.042997 152.673077 8.090350 152.782051 8.137909 152.891026 8.185674 153.000000 8.233641 153.108974 8.281810 153.217949 8.330179 153.326923 8.378746 153.435897 8.427510 153.544872 8.476469 153.653846 8.525621 153.762821 8.574966 153.871795 8.624501 153.980769 8.674224 154.089744 8.724135 154.198718 8.774231 154.307692 8.824512 154.416667 8.874974 154.525641 8.925617 154.634615 8.976440 154.743590 9.027440 154.852564 9.078616 154.961538 9.129966 155.070513 9.181489 155.179487 9.233183 155.288462 9.285047 155.397436 9.337079 155.506410 9.389277 155.615385 9.441639 155.724359 9.494165 155.833333 9.546853 155.942308 9.599700 156.051282 9.652706 156.160256 9.705869 156.269231 9.759186 156.378205 9.812657 156.487179 9.866281 156.596154 9.920054 156.705128 9.973976 156.814103 10.028046 156.923077 10.082261 157.032051 10.136620 157.141026 10.191121 157.250000 10.245763 157.358974 10.300544 157.467949 10.355463 157.576923 10.410518 157.685897 10.465707 157.794872 10.521029 157.903846 10.576482 158.012821 10.632064 158.121795 10.687775 158.230769 10.743612 158.339744 10.799573 158.448718 10.855658 158.557692 10.911864 158.666667 10.968191 158.775641 11.024635 158.884615 11.081197 158.993590 11.137873 159.102564 11.194664 159.211538 11.251566 159.320513 11.308578 159.429487 11.365700 159.538462 11.422928 159.647436 11.480262 159.756410 11.537700 159.865385 11.595240 159.974359 11.652881 160.083333 11.710622 160.192308 11.768460 160.301282 11.826393 160.410256 11.884422 160.519231 11.942542 160.628205 12.000755 160.737179 12.059056 160.846154 12.117446 160.955128 12.175922 161.064103 12.234483 161.173077 12.293127 161.282051 12.351852 161.391026 12.410658 161.500000 12.469542 161.608974 12.528503 161.717949 12.587538 161.826923 12.646648 161.935897 12.705829 162.044872 12.765081 162.153846 12.824402 162.262821 12.883789 162.371795 12.943243 162.480769 13.002760 162.589744 13.062340 162.698718 13.121980 162.807692 13.181680 162.916667 13.241437 163.025641 13.301250 163.134615 13.361118 163.243590 13.421038 163.352564 13.481010 163.461538 13.541031 163.570513 13.601100 163.679487 13.661216 163.788462 13.721376 163.897436 13.781580 164.006410 13.841825 164.115385 13.902110 164.224359 13.962433 164.333333 14.022793 164.442308 14.083189 164.551282 14.143618 164.660256 14.204079 164.769231 14.264570 164.878205 14.325090 164.987179 14.385638 165.096154 14.446211 165.205128 14.506808 165.314103 14.567427 165.423077 14.628067 165.532051 14.688727 165.641026 14.749404 165.750000 14.810097 165.858974 14.870804 165.967949 14.931524 166.076923 14.992255 166.185897 15.052996 166.294872 15.113745 166.403846 15.174501 166.512821 15.235261 166.621795 15.296024 166.730769 15.356789" class="line reactive nofill" /></g></g><g class="titles" /><g transform="translate(20, 10)" class="plot overlay"><g class="series serie-0 color-0" /></g><g transform="translate(20, 10)" class="plot text-overlay"><g class="series serie-0 color-0" /></g><g transform="translate(20, 10)" class="plot tooltip-overlay"><g transform="translate(0 0)" style="opacity: 0" class="tooltip"><rect rx="0" ry="0" width="0" height="0" class="tooltip-box" /><g class="text" /></g></g></g></svg>