<?xml version='1.0' encoding='utf-8'?>
<svg xmlns="http://www.w3.org/2000/svg" id="chart-0cc3f637-f193-4130-8681-ff01a71b414b" class="pygal-chart pygal-sparkline" viewBox="0 0 200 50" width="200" height="50"><!--Generated with pygal 3.0.5 (etree) ©Kozea 2012-2016 on 2024-10-27--><!--http://pygal.org--><!--http://github.com/Kozea/pygal--><defs><style type="text/css">#chart-0cc3f637-f193-4130-8681-ff01a71b414b{-webkit-user-select:none;-webkit-font-smoothing:antialiased;font-family:Consolas,"Liberation Mono",Menlo,Courier,monospace}#chart-0cc3f637-f193-4130-8681-ff01a71b414b .title{font-family:Consolas,"Liberation Mono",Menlo,Courier,monospace;font-size:16px}#chart-0cc3f637-f193-4130-8681-ff01a71b414b .legends .legend text{font-family:Consolas,"Liberation Mono",Menlo,Courier,monospace;font-size:14px}#chart-0cc3f637-f193-4130-8681-ff01a71b414b .axis text{font-family:Consolas,"Liberation Mono",Menlo,Courier,monospace;font-size:10px}#chart-0cc3f637-f193-4130-8681-ff01a71b414b .axis text.major{font-family:Consolas,"Liberation Mono",Menlo,Courier,monospace;font-size:10px}#chart-0cc3f637-f193-4130-8681-ff01a71b414b .text-overlay text.value{font-family:Consolas,"Liberation Mono",Menlo,Courier,monospace;font-size:16px}#chart-0cc3f637-f193-4130-8681-ff01a71b414b .text-overlay text.label{font-family:Consolas,"Liberation Mono",Menlo,Courier,monospace;font-size:10px}#chart-0cc3f637-f193-4130-8681-ff01a71b414b .tooltip{font-family:Consolas,"Liberation Mono",Menlo,Courier,monospace;font-size:14px}#chart-0cc3f637-f193-4130-8681-ff01a71b414b text.no_data{font-family:Consolas,"Liberation Mono",Menlo,Courier,monospace;font-size:64px}
#chart-0cc3f637-f193-4130-8681-ff01a71b414b{background-color:rgba(249,249,249,1)}#chart-0cc3f637-f193-4130-8681-ff01a71b414b path,#chart-0cc3f637-f193-4130-8681-ff01a71b414b line,#chart-0cc3f637-f193-4130-8681-ff01a71b414b rect,#chart-0cc3f637-f193-4130-8681-ff01a71b414b circle{-webkit-transition:150ms;-moz-transition:150ms;transition:150ms}#chart-0cc3f637-f193-4130-8681-ff01a71b414b .graph &gt; .background{fill:rgba(249,249,249,1)}#chart-0cc3f637-f193-4130-8681-ff01a71b414b .plot &gt; .background{fill:rgba(255,255,255,1)}#chart-0cc3f637-f193-4130-8681-ff01a71b414b .graph{fill:rgba(0,0,0,.87)}#chart-0cc3f637-f193-4130-8681-ff01a71b414b text.no_data{fill:rgba(0,0,0,1)}#chart-0cc3f637-f193-4130-8681-ff01a71b414b .title{fill:rgba(0,0,0,1)}#chart-0cc3f637-f193-4130-8681-ff01a71b414b .legends .legend text{fill:rgba(0,0,0,.87)}#chart-0cc3f637-f193-4130-8681-ff01a71b414b .legends .legend:hover text{fill:rgba(0,0,0,1)}#chart-0cc3f637-f193-4130-8681-ff01a71b414b .axis .line{stroke:rgba(0,0,0,1)}#chart-0cc3f637-f193-4130-8681-ff01a71b414b .axis .guide.line{stroke:rgba(0,0,0,.54)}#chart-0cc3f637-f193-4130-8681-ff01a71b414b .axis .major.line{stroke:rgba(0,0,0,.87)}#chart-0cc3f637-f193-4130-8681-ff01a71b414b .axis text.major{fill:rgba(0,0,0,1)}#chart-0cc3f637-f193-4130-8681-ff01a71b414b .axis.y .guides:hover .guide.line,#chart-0cc3f637-f193-4130-8681-ff01a71b414b .line-graph .axis.x .guides:hover .guide.line,#chart-0cc3f637-f193-4130-8681-ff01a71b414b .stackedline-graph .axis.x .guides:hover .guide.line,#chart-0cc3f637-f193-4130-8681-ff01a71b414b .xy-graph .axis.x .guides:hover .guide.line{stroke:rgba(0,0,0,1)}#chart-0cc3f637-f193-4130-8681-ff01a71b414b .axis .guides:hover text{fill:rgba(0,0,0,1)}#chart-0cc3f637-f193-4130-8681-ff01a71b414b .reactive{fill-opacity:.7;stroke-opacity:.8;stroke-width:1}#chart-0cc3f637-f193-4130-8681-ff01a71b414b .ci{stroke:rgba(0,0,0,.87)}#chart-0cc3f637-f193-4130-8681-ff01a71b414b .reactive.active,#chart-0cc3f637-f193-4130-8681-ff01a71b414b .active .reactive{fill-opacity:.8;stroke-opacity:.9;stroke-width:4}#chart-0cc3f637-f193-4130-8681-ff01a71b414b .ci .reactive.active{stroke-width:1.5}#chart-0cc3f637-f193-4130-8681-ff01a71b414b .series text{fill:rgba(0,0,0,1)}#chart-0cc3f637-f193-4130-8681-ff01a71b414b .tooltip rect{fill:rgba(255,255,255,1);stroke:rgba(0,0,0,1);-webkit-transition:opacity 150ms;-moz-transition:opacity 150ms;transition:opacity 150ms}#chart-0cc3f637-f193-4130-8681-ff01a71b414b .tooltip .label{fill:rgba(0,0,0,.87)}#chart-0cc3f637-f193-4130-8681-ff01a71b414b .tooltip .label{fill:rgba(0,0,0,.87)}#chart-0cc3f637-f193-4130-8681-ff01a71b414b .tooltip .legend{font-size:.8em;fill:rgba(0,0,0,.54)}#chart-0cc3f637-f193-4130-8681-ff01a71b414b .tooltip .x_label{font-size:.6em;fill:rgba(0,0,0,1)}#chart-0cc3f637-f193-4130-8681-ff01a71b414b .tooltip .xlink{font-size:.5em;text-decoration:underline}#chart-0cc3f637-f193-4130-8681-ff01a71b414b .tooltip .value{font-size:1.5em}#chart-0cc3f637-f193-4130-8681-ff01a71b414b .bound{font-size:.5em}#chart-0cc3f637-f193-4130-8681-ff01a71b414b .max-value{font-size:.75em;fill:rgba(0,0,0,.54)}#chart-0cc3f637-f193-4130-8681-ff01a71b414b .map-element{fill:rgba(255,255,255,1);stroke:rgba(0,0,0,.54) !important}#chart-0cc3f637-f193-4130-8681-ff01a71b414b .map-element .reactive{fill-opacity:inherit;stroke-opacity:inherit}#chart-0cc3f637-f193-4130-8681-ff01a71b414b .color-0,#chart-0cc3f637-f193-4130-8681-ff01a71b414b .color-0 a:visited{stroke:#F44336;fill:#F44336}#chart-0cc3f637-f193-4130-8681-ff01a71b414b .text-overlay .color-0 text{fill:black}
#chart-0cc3f637-f193-4130-8681-ff01a71b414b text.no_data{text-anchor:middle}#chart-0cc3f637-f193-4130-8681-ff01a71b414b .guide.line{fill:none}#chart-0cc3f637-f193-4130-8681-ff01a71b414b .centered{text-anchor:middle}#chart-0cc3f637-f193-4130-8681-ff01a71b414b .title{text-anchor:middle}#chart-0cc3f637-f193-4130-8681-ff01a71b414b .legends .legend text{fill-opacity:1}#chart-0cc3f637-f193-4130-8681-ff01a71b414b .axis.x text{text-anchor:middle}#chart-0cc3f637-f193-4130-8681-ff01a71b414b .axis.x:not(.web) text[transform]{text-anchor:start}#chart-0cc3f637-f193-4130-8681-ff01a71b414b .axis.x:not(.web) text[transform].backwards{text-anchor:end}#chart-0cc3f637-f193-4130-8681-ff01a71b414b .axis.y text{text-anchor:end}#chart-0cc3f637-f193-4130-8681-ff01a71b414b .axis.y text[transform].backwards{text-anchor:start}#chart-0cc3f637-f193-4130-8681-ff01a71b414b .axis.y2 text{text-anchor:start}#chart-0cc3f637-f193-4130-8681-ff01a71b414b .axis.y2 text[transform].backwards{text-anchor:end}#chart-0cc3f637-f193-4130-8681-ff01a71b414b .axis .guide.line{stroke-dasharray:4,4;stroke:black}#chart-0cc3f637-f193-4130-8681-ff01a71b414b .axis .major.guide.line{stroke-dasharray:6,6;stroke:black}#chart-0cc3f637-f193-4130-8681-ff01a71b414b .horizontal .axis.y .guide.line,#chart-0cc3f637-f193-4130-8681-ff01a71b414b .horizontal .axis.y2 .guide.line,#chart-0cc3f637-f193-4130-8681-ff01a71b414b .vertical .axis.x .guide.line{opacity:0}#chart-0cc3f637-f193-4130-8681-ff01a71b414b .horizontal .axis.always_show .guide.line,#chart-0cc3f637-f193-4130-8681-ff01a71b414b .vertical .axis.always_show .guide.line{opacity:1 !important}#chart-0cc3f637-f193-4130-8681-ff01a71b414b .axis.y .guides:hover .guide.line,#chart-0cc3f637-f193-4130-8681-ff01a71b414b .axis.y2 .guides:hover .guide.line,#chart-0cc3f637-f193-4130-8681-ff01a71b414b .axis.x .guides:hover .guide.line{opacity:1}#chart-0cc3f637-f193-4130-8681-ff01a71b414b .axis .guides:hover text{opacity:1}#chart-0cc3f637-f193-4130-8681-ff01a71b414b .nofill{fill:none}#chart-0cc3f637-f193-4130-8681-ff01a71b414b .subtle-fill{fill-opacity:.2}#chart-0cc3f637-f193-4130-8681-ff01a71b414b .dot{stroke-width:1px;fill-opacity:1;stroke-opacity:1}#chart-0cc3f637-f193-4130-8681-ff01a71b414b .dot.active{stroke-width:5px}#chart-0cc3f637-f193-4130-8681-ff01a71b414b .dot.negative{fill:transparent}#chart-0cc3f637-f193-4130-8681-ff01a71b414b text,#chart-0cc3f637-f193-4130-8681-ff01a71b414b tspan{stroke:none !important}#chart-0cc3f637-f193-4130-8681-ff01a71b414b .series text.active{opacity:1}#chart-0cc3f637-f193-4130-8681-ff01a71b414b .tooltip rect{fill-opacity:.95;stroke-width:.5}#chart-0cc3f637-f193-4130-8681-ff01a71b414b .tooltip text{fill-opacity:1}#chart-0cc3f637-f193-4130-8681-ff01a71b414b .showable{visibility:hidden}#chart-0cc3f637-f193-4130-8681-ff01a71b414b .showable.shown{visibility:visible}#chart-0cc3f637-f193-4130-8681-ff01a71b414b .gauge-background{fill:rgba(229,229,229,1);stroke:none}#chart-0cc3f637-f193-4130-8681-ff01a71b414b .bg-lines{stroke:rgba(249,249,249,1);stroke-width:2px}</style><script type="text/javascript">window.pygal = window.pygal || {};window.pygal.config = window.pygal.config || {};window.pygal.config['0cc3f637-f193-4130-8681-ff01a71b414b'] = {"allow_interruptions": false, "box_mode": "extremes", "classes": ["pygal-chart", "pygal-sparkline"], "css": ["file://style.css", "file://graph.css"], "defs": [], "disable_xml_declaration": false, "dots_size": 2.5, "dynamic_print_values": false, "explicit_size": true, "fill": false, "force_uri_protocol": "https", "formatter": null, "half_pie": false, "height": 50, "include_x_axis": false, "inner_radius": 0, "interpolate": "cubic", "interpolation_parameters": {}, "interpolation_precision": 250, "inverse_y_axis": false, "js": [], "legend_at_bottom": false, "legend_at_bottom_columns": null, "legend_box_size": 12, "logarithmic": false, "margin": 10, "margin_bottom": null, "margin_left": null, "margin_right": null, "margin_top": null, "max_scale": 2, "min_scale": 1, "missing_value_fill_truncation": "x", "no_data_text": "", "no_prefix": false, "order_min": null, "pretty_print": false, "print_labels": false, "print_values": false, "print_values_position": "center", "print_zeroes": true, "range": null, "rounded_bars": null, "secondary_range": null, "show_dots": false, "show_legend": false, "show_minor_x_labels": true, "show_minor_y_labels": true, "show_only_major_dots": false, "show_x_guides": false, "show_x_labels": false, "show_y_guides": true, "show_y_labels": true, "spacing": 0, "stack_from_top": false, "strict": false, "stroke": true, "stroke_style": null, "style": {"background": "rgba(249, 249, 249, 1)", "ci_colors": [], "colors": ["#F44336", "#3F51B5", "#009688", "#FFC107", "#FF5722", "#9C27B0", "#03A9F4", "#8BC34A", "#FF9800", "#E91E63", "#2196F3", "#4CAF50", "#FFEB3B", "#673AB7", "#00BCD4", "#CDDC39", "#9E9E9E", "#607D8B"], "dot_opacity": "1", "font_family": "Consolas, \"Liberation Mono\", Menlo, Courier, monospace", "foreground": "rgba(0, 0, 0, .87)", "foreground_strong": "rgba(0, 0, 0, 1)", "foreground_subtle": "rgba(0, 0, 0, .54)", "guide_stroke_color": "black", "guide_stroke_dasharray": "4,4", "label_font_family": "Consolas, \"Liberation Mono\", Menlo, Courier, monospace", "label_font_size": 10, "legend_font_family": "Consolas, \"Liberation Mono\", Menlo, Courier, monospace", "legend_font_size": 14, "major_guide_stroke_color": "black", "major_guide_stroke_dasharray": "6,6", "major_label_font_family": "Consolas, \"Liberation Mono\", Menlo, Courier, monospace", "major_label_font_size": 10, "no_data_font_family": "Consolas, \"Liberation Mono\", Menlo, Courier, monospace", "no_data_font_size": 64, "opacity": ".7", "opacity_hover": ".8", "plot_background": "rgba(255, 255, 255, 1)", "stroke_opacity": ".8", "stroke_opacity_hover": ".9", "stroke_width": "1", "stroke_width_hover": "4", "title_font_family": "Consolas, \"Liberation Mono\", Menlo, Courier, monospace", "title_font_size": 16, "tooltip_font_family": "Consolas, \"Liberation Mono\", Menlo, Courier, monospace", "tooltip_font_size": 14, "transition": "150ms", "value_background": "rgba(229, 229, 229, 1)", "value_colors": [], "value_font_family": "Consolas, \"Liberation Mono\", Menlo, Courier, monospace", "value_font_size": 16, "value_label_font_family": "Consolas, \"Liberation Mono\", Menlo, Courier, monospace", "value_label_font_size": 10}, "title": null, "tooltip_border_radius": 0, "tooltip_fancy_mode": true, "truncate_label": null, "truncate_legend": null, "width": 200, "x_label_rotation": 0, "x_labels": ["2024/9", "2024/8", "2024/7", "2024/6", "2024/5", "2024/4", "2024/3"], "x_labels_major": null, "x_labels_major_count": null, "x_labels_major_every": null, "x_title": null, "xrange": null, "y_label_rotation": 0, "y_labels": null, "y_labels_major": null, "y_labels_major_count": null, "y_labels_major_every": null, "y_title": null, "zero": 0, "legends": [""]}</script></defs><title>Pygal</title><g class="graph line-graph vertical"><rect x="0" y="0" width="200" height="50" class="background" /><g transform="translate(76, 10)" class="plot"><rect x="0" y="0" width="114.0" height="30" class="background" /><g class="axis y always_show"><path d="M0.000000 30.000000 h114.000000" class="line" /><g class="guides"><path d="M0.000000 29.423077 h114.000000" class="guide line" /><text x="-5" y="32.92307692307692" class="">1</text><title>1</title></g><g class="guides"><path d="M0.000000 0.576923 h114.000000" class="guide line" /><text x="-5" y="4.076923076923077" class="">7.471319763</text><title>7.471319763</title></g></g><g class="series serie-0 color-0"><path d="M2.192308 11.592925 L2.265385 11.676086 2.338462 11.759244 2.411538 11.842397 2.484615 11.925541 2.557692 12.008674 2.630769 12.091792 2.703846 12.174894 2.776923 12.257975 2.850000 12.341034 2.923077 12.424067 2.996154 12.507071 3.069231 12.590044 3.142308 12.672983 3.215385 12.755885 3.288462 12.838747 3.361538 12.921567 3.434615 13.004341 3.507692 13.087066 3.580769 13.169740 3.653846 13.252360 3.726923 13.334923 3.800000 13.417426 3.873077 13.499867 3.946154 13.582242 4.019231 13.664549 4.092308 13.746784 4.165385 13.828945 4.238462 13.911030 4.311538 13.993035 4.384615 14.074957 4.457692 14.156793 4.530769 14.238542 4.603846 14.320199 4.676923 14.401762 4.750000 14.483228 4.823077 14.564595 4.896154 14.645859 4.969231 14.727018 5.042308 14.808068 5.115385 14.889008 5.188462 14.969833 5.261538 15.050542 5.334615 15.131131 5.407692 15.211598 5.480769 15.291939 5.553846 15.372152 5.626923 15.452234 5.700000 15.532182 5.773077 15.611994 5.846154 15.691665 5.919231 15.771195 5.992308 15.850579 6.065385 15.929815 6.138462 16.008900 6.211538 16.087831 6.284615 16.166606 6.357692 16.245221 6.430769 16.323674 6.503846 16.401961 6.576923 16.480081 6.650000 16.558029 6.723077 16.635804 6.796154 16.713402 6.869231 16.790821 6.942308 16.868057 7.015385 16.945109 7.088462 17.021972 7.161538 17.098644 7.234615 17.175123 7.307692 17.251405 7.380769 17.327488 7.453846 17.403369 7.526923 17.479044 7.600000 17.554512 7.673077 17.629769 7.746154 17.704812 7.819231 17.779638 7.892308 17.854246 7.965385 17.928631 8.038462 18.002791 8.111538 18.076723 8.184615 18.150425 8.257692 18.223893 8.330769 18.297124 8.403846 18.370117 8.476923 18.442867 8.550000 18.515372 8.623077 18.587629 8.696154 18.659636 8.769231 18.731389 8.842308 18.802886 8.915385 18.874124 8.988462 18.945099 9.061538 19.015810 9.134615 19.086253 9.207692 19.156425 9.280769 19.226324 9.353846 19.295947 9.426923 19.365290 9.500000 19.434351 9.573077 19.503128 9.646154 19.571617 9.719231 19.639815 9.792308 19.707720 9.865385 19.775329 9.938462 19.842639 10.011538 19.909646 10.084615 19.976349 10.157692 20.042745 10.230769 20.108829 10.303846 20.174601 10.376923 20.240056 10.450000 20.305192 10.523077 20.370007 10.596154 20.434497 10.669231 20.498659 10.742308 20.562490 10.815385 20.625989 10.888462 20.689151 10.961538 20.751974 11.034615 20.814456 11.107692 20.876593 11.180769 20.938382 11.253846 20.999821 11.326923 21.060907 11.400000 21.121637 11.473077 21.182008 11.546154 21.242017 11.619231 21.301661 11.692308 21.360938 11.765385 21.419845 11.838462 21.478379 11.911538 21.536536 11.984615 21.594315 12.057692 21.651712 12.130769 21.708725 12.203846 21.765350 12.276923 21.821585 12.350000 21.877427 12.423077 21.932873 12.496154 21.987920 12.569231 22.042565 12.642308 22.096806 12.715385 22.150640 12.788462 22.204063 12.861538 22.257074 12.934615 22.309669 13.007692 22.361844 13.080769 22.413599 13.153846 22.464929 13.226923 22.515831 13.300000 22.566304 13.373077 22.616343 13.446154 22.665947 13.519231 22.715112 13.592308 22.763836 13.665385 22.812115 13.738462 22.859947 13.811538 22.907329 13.884615 22.954258 13.957692 23.000732 14.030769 23.046746 14.103846 23.092300 14.176923 23.137389 14.250000 23.182010 14.323077 23.226162 14.396154 23.269841 14.469231 23.313045 14.542308 23.355769 14.615385 23.398013 14.688462 23.439772 14.761538 23.481044 14.834615 23.521826 14.907692 23.562116 14.980769 23.601909 15.053846 23.641205 15.126923 23.679999 15.200000 23.718288 15.273077 23.756071 15.346154 23.793344 15.419231 23.830104 15.492308 23.866349 15.565385 23.902075 15.638462 23.937280 15.711538 23.971961 15.784615 24.006115 15.857692 24.039739 15.930769 24.072830 16.003846 24.105386 16.076923 24.137404 16.150000 24.168880 16.223077 24.199812 16.296154 24.230197 16.369231 24.260033 16.442308 24.289316 16.515385 24.318044 16.588462 24.346213 16.661538 24.373821 16.734615 24.400865 16.807692 24.427343 16.880769 24.453250 16.953846 24.478585 17.026923 24.503345 17.100000 24.527527 17.173077 24.551127 17.246154 24.574143 17.319231 24.596573 17.392308 24.618413 17.465385 24.639661 17.538462 24.660313 17.611538 24.680367 17.684615 24.699820 17.757692 24.718669 17.830769 24.736912 17.903846 24.754545 17.976923 24.771565 18.050000 24.787971 18.123077 24.803758 18.196154 24.818924 18.269231 24.833466 18.342308 24.847382 18.415385 24.860668 18.488462 24.873322 18.561538 24.885341 18.634615 24.896721 18.707692 24.907461 18.780769 24.917557 18.853846 24.927006 18.926923 24.935806 19.000000 24.943954 19.073077 24.951446 19.146154 24.958281 19.219231 24.964455 19.292308 24.969965 19.365385 24.974808 19.438462 24.978982 19.511538 24.982484 19.584615 24.985311 19.657692 24.987460 19.730769 24.988928 19.803846 24.989712 19.876923 24.989810 19.950000 24.989219 20.023077 24.987935 20.096154 24.985957 20.169231 24.983280 20.242308 24.979903 20.315385 24.975822 20.388462 24.971035 20.461538 24.965539 20.534615 24.959332 20.607692 24.952416 20.680769 24.944796 20.753846 24.936477 20.826923 24.927461 20.900000 24.917752 20.973077 24.907356 21.046154 24.896275 21.119231 24.884514 21.192308 24.872076 21.265385 24.858966 21.338462 24.845188 21.411538 24.830745 21.484615 24.815642 21.557692 24.799882 21.630769 24.783469 21.703846 24.766408 21.776923 24.748703 21.850000 24.730357 21.923077 24.711374 21.996154 24.691759 22.069231 24.671515 22.142308 24.650646 22.215385 24.629156 22.288462 24.607050 22.361538 24.584331 22.434615 24.561003 22.507692 24.537070 22.580769 24.512536 22.653846 24.487406 22.726923 24.461682 22.800000 24.435369 22.873077 24.408472 22.946154 24.380993 23.019231 24.352937 23.092308 24.324309 23.165385 24.295111 23.238462 24.265348 23.311538 24.235023 23.384615 24.204142 23.457692 24.172707 23.530769 24.140723 23.603846 24.108194 23.676923 24.075124 23.750000 24.041516 23.823077 24.007375 23.896154 23.972704 23.969231 23.937508 24.042308 23.901791 24.115385 23.865556 24.188462 23.828807 24.261538 23.791549 24.334615 23.753786 24.407692 23.715520 24.480769 23.676758 24.553846 23.637501 24.626923 23.597755 24.700000 23.557523 24.773077 23.516810 24.846154 23.475618 24.919231 23.433953 24.992308 23.391818 25.065385 23.349218 25.138462 23.306155 25.211538 23.262635 25.284615 23.218660 25.357692 23.174236 25.430769 23.129365 25.503846 23.084053 25.576923 23.038302 25.650000 22.992118 25.723077 22.945503 25.796154 22.898463 25.869231 22.851000 25.942308 22.803119 26.015385 22.754823 26.088462 22.706118 26.161538 22.657006 26.234615 22.607492 26.307692 22.557580 26.380769 22.507273 26.453846 22.456576 26.526923 22.405492 26.600000 22.354026 26.673077 22.302182 26.746154 22.249963 26.819231 22.197374 26.892308 22.144418 26.965385 22.091099 27.038462 22.037422 27.111538 21.983390 27.184615 21.929008 27.257692 21.874279 27.330769 21.819207 27.403846 21.763796 27.476923 21.708051 27.550000 21.651975 27.623077 21.595572 27.696154 21.538846 27.769231 21.481802 27.842308 21.424442 27.915385 21.366771 27.988462 21.308794 28.061538 21.250513 28.134615 21.191934 28.207692 21.133059 28.280769 21.073894 28.353846 21.014441 28.426923 20.954705 28.500000 20.894690 28.573077 20.834400 28.646154 20.773839 28.719231 20.713010 28.792308 20.651918 28.865385 20.590567 28.938462 20.528960 29.011538 20.467102 29.084615 20.404997 29.157692 20.342648 29.230769 20.280060 29.303846 20.217237 29.376923 20.154182 29.450000 20.090899 29.523077 20.027393 29.596154 19.963667 29.669231 19.899726 29.742308 19.835573 29.815385 19.771212 29.888462 19.706648 29.961538 19.641883 30.034615 19.576924 30.107692 19.511772 30.180769 19.446433 30.253846 19.380909 30.326923 19.315206 30.400000 19.249327 30.473077 19.183276 30.546154 19.117058 30.619231 19.050675 30.692308 18.984132 30.765385 18.917433 30.838462 18.850582 30.911538 18.783583 30.984615 18.716440 31.057692 18.649157 31.130769 18.581737 31.203846 18.514186 31.276923 18.446506 31.350000 18.378702 31.423077 18.310778 31.496154 18.242737 31.569231 18.174584 31.642308 18.106323 31.715385 18.037957 31.788462 17.969491 31.861538 17.900928 31.934615 17.832273 32.007692 17.763529 32.080769 17.694701 32.153846 17.625792 32.226923 17.556807 32.300000 17.487749 32.373077 17.418623 32.446154 17.349432 32.519231 17.280180 32.592308 17.210871 32.665385 17.141510 32.738462 17.072099 32.811538 17.002644 32.884615 16.933149 32.957692 16.863616 33.030769 16.794050 33.103846 16.724456 33.176923 16.654836 33.250000 16.585196 33.323077 16.515539 33.396154 16.445868 33.469231 16.376189 33.542308 16.306504 33.615385 16.236818 33.688462 16.167135 33.761538 16.097459 33.834615 16.027794 33.907692 15.958143 33.980769 15.888512 34.053846 15.818903 34.126923 15.749320 34.200000 15.679768 34.273077 15.610251 34.346154 15.540773 34.419231 15.471337 34.492308 15.401948 34.565385 15.332609 34.638462 15.263324 34.711538 15.194099 34.784615 15.124935 34.857692 15.055838 34.930769 14.986811 35.003846 14.917859 35.076923 14.848985 35.150000 14.780193 35.223077 14.711488 35.296154 14.642873 35.369231 14.574352 35.442308 14.505929 35.515385 14.437608 35.588462 14.369393 35.661538 14.301289 35.734615 14.233299 35.807692 14.165426 35.880769 14.097676 35.953846 14.030052 36.026923 13.962557 36.100000 13.895197 36.173077 13.827974 36.246154 13.760894 36.319231 13.693959 36.392308 13.627174 36.465385 13.560542 36.538462 13.494069 36.611538 13.427757 36.684615 13.361611 36.757692 13.295635 36.830769 13.229832 36.903846 13.164207 36.976923 13.098764 37.050000 13.033506 37.123077 12.968437 37.196154 12.903562 37.269231 12.838885 37.342308 12.774409 37.415385 12.710138 37.488462 12.646077 37.561538 12.582230 37.634615 12.518599 37.707692 12.455190 37.780769 12.392006 37.853846 12.329052 37.926923 12.266330 38.000000 12.203846 38.073077 12.141603 38.146154 12.079605 38.219231 12.017857 38.292308 11.956361 38.365385 11.895123 38.438462 11.834145 38.511538 11.773433 38.584615 11.712989 38.657692 11.652819 38.730769 11.592925 38.803846 11.533311 38.876923 11.473978 38.950000 11.414923 39.023077 11.356145 39.096154 11.297645 39.169231 11.239420 39.242308 11.181469 39.315385 11.123792 39.388462 11.066388 39.461538 11.009255 39.534615 10.952392 39.607692 10.895798 39.680769 10.839473 39.753846 10.783415 39.826923 10.727622 39.900000 10.672095 39.973077 10.616832 40.046154 10.561832 40.119231 10.507093 40.192308 10.452616 40.265385 10.398398 40.338462 10.344439 40.411538 10.290737 40.484615 10.237292 40.557692 10.184103 40.630769 10.131168 40.703846 10.078486 40.776923 10.026057 40.850000 9.973879 40.923077 9.921951 40.996154 9.870272 41.069231 9.818842 41.142308 9.767658 41.215385 9.716721 41.288462 9.666028 41.361538 9.615580 41.434615 9.565374 41.507692 9.515410 41.580769 9.465686 41.653846 9.416202 41.726923 9.366957 41.800000 9.317949 41.873077 9.269178 41.946154 9.220642 42.019231 9.172341 42.092308 9.124273 42.165385 9.076437 42.238462 9.028832 42.311538 8.981458 42.384615 8.934312 42.457692 8.887394 42.530769 8.840704 42.603846 8.794239 42.676923 8.747999 42.750000 8.701983 42.823077 8.656190 42.896154 8.610618 42.969231 8.565267 43.042308 8.520135 43.115385 8.475222 43.188462 8.430527 43.261538 8.386047 43.334615 8.341783 43.407692 8.297734 43.480769 8.253897 43.553846 8.210273 43.626923 8.166860 43.700000 8.123656 43.773077 8.080662 43.846154 8.037876 43.919231 7.995296 43.992308 7.952922 44.065385 7.910753 44.138462 7.868788 44.211538 7.827025 44.284615 7.785464 44.357692 7.744104 44.430769 7.702942 44.503846 7.661980 44.576923 7.621214 44.650000 7.580645 44.723077 7.540271 44.796154 7.500091 44.869231 7.460104 44.942308 7.420310 45.015385 7.380706 45.088462 7.341292 45.161538 7.302067 45.234615 7.263030 45.307692 7.224180 45.380769 7.185515 45.453846 7.147035 45.526923 7.108739 45.600000 7.070625 45.673077 7.032693 45.746154 6.994941 45.819231 6.957368 45.892308 6.919974 45.965385 6.882756 46.038462 6.845715 46.111538 6.808850 46.184615 6.772158 46.257692 6.735639 46.330769 6.699292 46.403846 6.663116 46.476923 6.627110 46.550000 6.591273 46.623077 6.555603 46.696154 6.520100 46.769231 6.484763 46.842308 6.449590 46.915385 6.414581 46.988462 6.379734 47.061538 6.345048 47.134615 6.310523 47.207692 6.276157 47.280769 6.241949 47.353846 6.207899 47.426923 6.174004 47.500000 6.140265 47.573077 6.106679 47.646154 6.073246 47.719231 6.039966 47.792308 6.006836 47.865385 5.973855 47.938462 5.941024 48.011538 5.908340 48.084615 5.875802 48.157692 5.843410 48.230769 5.811163 48.303846 5.779059 48.376923 5.747097 48.450000 5.715276 48.523077 5.683596 48.596154 5.652055 48.669231 5.620652 48.742308 5.589386 48.815385 5.558256 48.888462 5.527261 48.961538 5.496400 49.034615 5.465671 49.107692 5.435075 49.180769 5.404609 49.253846 5.374272 49.326923 5.344065 49.400000 5.313984 49.473077 5.284031 49.546154 5.254202 49.619231 5.224498 49.692308 5.194918 49.765385 5.165459 49.838462 5.136122 49.911538 5.106905 49.984615 5.077807 50.057692 5.048826 50.130769 5.019963 50.203846 4.991216 50.276923 4.962584 50.350000 4.934065 50.423077 4.905659 50.496154 4.877365 50.569231 4.849181 50.642308 4.821107 50.715385 4.793141 50.788462 4.765283 50.861538 4.737531 50.934615 4.709884 51.007692 4.682342 51.080769 4.654903 51.153846 4.627566 51.226923 4.600330 51.300000 4.573194 51.373077 4.546157 51.446154 4.519218 51.519231 4.492375 51.592308 4.465629 51.665385 4.438977 51.738462 4.412419 51.811538 4.385954 51.884615 4.359580 51.957692 4.333297 52.030769 4.307103 52.103846 4.280997 52.176923 4.254979 52.250000 4.229047 52.323077 4.203200 52.396154 4.177438 52.469231 4.151758 52.542308 4.126161 52.615385 4.100644 52.688462 4.075208 52.761538 4.049850 52.834615 4.024570 52.907692 3.999367 52.980769 3.974240 53.053846 3.949187 53.126923 3.924208 53.200000 3.899301 53.273077 3.874466 53.346154 3.849701 53.419231 3.825006 53.492308 3.800379 53.565385 3.775819 53.638462 3.751325 53.711538 3.726896 53.784615 3.702532 53.857692 3.678230 53.930769 3.653990 54.003846 3.629812 54.076923 3.605693 54.150000 3.581632 54.223077 3.557630 54.296154 3.533684 54.369231 3.509794 54.442308 3.485958 54.515385 3.462176 54.588462 3.438446 54.661538 3.414768 54.734615 3.391140 54.807692 3.367561 54.880769 3.344030 54.953846 3.320547 55.026923 3.297109 55.100000 3.273717 55.173077 3.250368 55.246154 3.227063 55.319231 3.203799 55.392308 3.180576 55.465385 3.157393 55.538462 3.134248 55.611538 3.111141 55.684615 3.088071 55.757692 3.065036 55.830769 3.042035 55.903846 3.019068 55.976923 2.996134 56.050000 2.973230 56.123077 2.950357 56.196154 2.927513 56.269231 2.904697 56.342308 2.881908 56.415385 2.859145 56.488462 2.836407 56.561538 2.813692 56.634615 2.791001 56.707692 2.768331 56.780769 2.745682 56.853846 2.723053 56.926923 2.700442 57.000000 2.677849 57.073077 2.655273 57.146154 2.632715 57.219231 2.610177 57.292308 2.587662 57.365385 2.565171 57.438462 2.542707 57.511538 2.520271 57.584615 2.497865 57.657692 2.475491 57.730769 2.453152 57.803846 2.430848 57.876923 2.408583 57.950000 2.386358 58.023077 2.364175 58.096154 2.342036 58.169231 2.319943 58.242308 2.297898 58.315385 2.275903 58.388462 2.253960 58.461538 2.232071 58.534615 2.210238 58.607692 2.188462 58.680769 2.166747 58.753846 2.145093 58.826923 2.123503 58.900000 2.101978 58.973077 2.080521 59.046154 2.059134 59.119231 2.037819 59.192308 2.016577 59.265385 1.995411 59.338462 1.974322 59.411538 1.953313 59.484615 1.932386 59.557692 1.911542 59.630769 1.890783 59.703846 1.870111 59.776923 1.849529 59.850000 1.829039 59.923077 1.808642 59.996154 1.788340 60.069231 1.768135 60.142308 1.748029 60.215385 1.728025 60.288462 1.708124 60.361538 1.688328 60.434615 1.668639 60.507692 1.649059 60.580769 1.629590 60.653846 1.610234 60.726923 1.590993 60.800000 1.571870 60.873077 1.552865 60.946154 1.533981 61.019231 1.515220 61.092308 1.496583 61.165385 1.478074 61.238462 1.459693 61.311538 1.441443 61.384615 1.423326 61.457692 1.405343 61.530769 1.387498 61.603846 1.369790 61.676923 1.352224 61.750000 1.334800 61.823077 1.317520 61.896154 1.300387 61.969231 1.283403 62.042308 1.266569 62.115385 1.249887 62.188462 1.233360 62.261538 1.216989 62.334615 1.200777 62.407692 1.184725 62.480769 1.168835 62.553846 1.153109 62.626923 1.137550 62.700000 1.122159 62.773077 1.106938 62.846154 1.091889 62.919231 1.077014 62.992308 1.062316 63.065385 1.047795 63.138462 1.033455 63.211538 1.019296 63.284615 1.005321 63.357692 0.991533 63.430769 0.977932 63.503846 0.964521 63.576923 0.951302 63.650000 0.938277 63.723077 0.925447 63.796154 0.912816 63.869231 0.900384 63.942308 0.888153 64.015385 0.876127 64.088462 0.864306 64.161538 0.852692 64.234615 0.841289 64.307692 0.830096 64.380769 0.819118 64.453846 0.808355 64.526923 0.797809 64.600000 0.787483 64.673077 0.777378 64.746154 0.767496 64.819231 0.757840 64.892308 0.748411 64.965385 0.739212 65.038462 0.730243 65.111538 0.721508 65.184615 0.713008 65.257692 0.704746 65.330769 0.696722 65.403846 0.688940 65.476923 0.681400 65.550000 0.674106 65.623077 0.667059 65.696154 0.660260 65.769231 0.653713 65.842308 0.647419 65.915385 0.641379 65.988462 0.635596 66.061538 0.630073 66.134615 0.624810 66.207692 0.619810 66.280769 0.615074 66.353846 0.610605 66.426923 0.606405 66.500000 0.602476 66.573077 0.598820 66.646154 0.595437 66.719231 0.592332 66.792308 0.589505 66.865385 0.586959 66.938462 0.584695 67.011538 0.582715 67.084615 0.581022 67.157692 0.579618 67.230769 0.578504 67.303846 0.577682 67.376923 0.577154 67.450000 0.576923 67.523077 0.576990 67.596154 0.577357 67.669231 0.578027 67.742308 0.579000 67.815385 0.580280 67.888462 0.581868 67.961538 0.583766 68.034615 0.585976 68.107692 0.588500 68.180769 0.591340 68.253846 0.594498 68.326923 0.597976 68.400000 0.601776 68.473077 0.605900 68.546154 0.610349 68.619231 0.615127 68.692308 0.620234 68.765385 0.625673 68.838462 0.631446 68.911538 0.637554 68.984615 0.644000 69.057692 0.650786 69.130769 0.657913 69.203846 0.665384 69.276923 0.673200 69.350000 0.681364 69.423077 0.689878 69.496154 0.698743 69.569231 0.707961 69.642308 0.717535 69.715385 0.727466 69.788462 0.737757 69.861538 0.748409 69.934615 0.759424 70.007692 0.770804 70.080769 0.782552 70.153846 0.794669 70.226923 0.807157 70.300000 0.820018 70.373077 0.833254 70.446154 0.846868 70.519231 0.860860 70.592308 0.875234 70.665385 0.889990 70.738462 0.905131 70.811538 0.920660 70.884615 0.936577 70.957692 0.952885 71.030769 0.969586 71.103846 0.986682 71.176923 1.004175 71.250000 1.022066 71.323077 1.040358 71.396154 1.059053 71.469231 1.078152 71.542308 1.097659 71.615385 1.117573 71.688462 1.137899 71.761538 1.158637 71.834615 1.179789 71.907692 1.201358 71.980769 1.223345 72.053846 1.245753 72.126923 1.268584 72.200000 1.291838 72.273077 1.315519 72.346154 1.339628 72.419231 1.364168 72.492308 1.389140 72.565385 1.414546 72.638462 1.440388 72.711538 1.466669 72.784615 1.493389 72.857692 1.520552 72.930769 1.548159 73.003846 1.576212 73.076923 1.604713 73.150000 1.633664 73.223077 1.663067 73.296154 1.692924 73.369231 1.723236 73.442308 1.754007 73.515385 1.785237 73.588462 1.816930 73.661538 1.849086 73.734615 1.881708 73.807692 1.914797 73.880769 1.948357 73.953846 1.982388 74.026923 2.016892 74.100000 2.051873 74.173077 2.087330 74.246154 2.123268 74.319231 2.159687 74.392308 2.196589 74.465385 2.233977 74.538462 2.271852 74.611538 2.310217 74.684615 2.349073 74.757692 2.388423 74.830769 2.428268 74.903846 2.468610 74.976923 2.509451 75.050000 2.550794 75.123077 2.592640 75.196154 2.634991 75.269231 2.677849 75.342308 2.721215 75.415385 2.765087 75.488462 2.809462 75.561538 2.854335 75.634615 2.899704 75.707692 2.945565 75.780769 2.991915 75.853846 3.038750 75.926923 3.086066 76.000000 3.133862 76.073077 3.182132 76.146154 3.230875 76.219231 3.280085 76.292308 3.329760 76.365385 3.379897 76.438462 3.430492 76.511538 3.481542 76.584615 3.533043 76.657692 3.584992 76.730769 3.637385 76.803846 3.690220 76.876923 3.743492 76.950000 3.797198 77.023077 3.851336 77.096154 3.905901 77.169231 3.960889 77.242308 4.016299 77.315385 4.072126 77.388462 4.128367 77.461538 4.185018 77.534615 4.242076 77.607692 4.299538 77.680769 4.357400 77.753846 4.415660 77.826923 4.474312 77.900000 4.533355 77.973077 4.592784 78.046154 4.652597 78.119231 4.712789 78.192308 4.773358 78.265385 4.834300 78.338462 4.895612 78.411538 4.957290 78.484615 5.019330 78.557692 5.081731 78.630769 5.144487 78.703846 5.207596 78.776923 5.271054 78.850000 5.334858 78.923077 5.399004 78.996154 5.463490 79.069231 5.528311 79.142308 5.593464 79.215385 5.658947 79.288462 5.724754 79.361538 5.790884 79.434615 5.857332 79.507692 5.924096 79.580769 5.991172 79.653846 6.058555 79.726923 6.126244 79.800000 6.194235 79.873077 6.262524 79.946154 6.331107 80.019231 6.399982 80.092308 6.469145 80.165385 6.538593 80.238462 6.608322 80.311538 6.678329 80.384615 6.748610 80.457692 6.819162 80.530769 6.889982 80.603846 6.961066 80.676923 7.032410 80.750000 7.104013 80.823077 7.175869 80.896154 7.247976 80.969231 7.320330 81.042308 7.392928 81.115385 7.465766 81.188462 7.538841 81.261538 7.612150 81.334615 7.685689 81.407692 7.759455 81.480769 7.833444 81.553846 7.907653 81.626923 7.982079 81.700000 8.056718 81.773077 8.131567 81.846154 8.206622 81.919231 8.281881 81.992308 8.357338 82.065385 8.432992 82.138462 8.508839 82.211538 8.584875 82.284615 8.661097 82.357692 8.737502 82.430769 8.814086 82.503846 8.890846 82.576923 8.967778 82.650000 9.044879 82.723077 9.122146 82.796154 9.199574 82.869231 9.277162 82.942308 9.354905 83.015385 9.432800 83.088462 9.510843 83.161538 9.589032 83.234615 9.667362 83.307692 9.745831 83.380769 9.824435 83.453846 9.903170 83.526923 9.982033 83.600000 10.061021 83.673077 10.140131 83.746154 10.219358 83.819231 10.298700 83.892308 10.378154 83.965385 10.457715 84.038462 10.537380 84.111538 10.617146 84.184615 10.697010 84.257692 10.776968 84.330769 10.857016 84.403846 10.937152 84.476923 11.017372 84.550000 11.097673 84.623077 11.178050 84.696154 11.258502 84.769231 11.339024 84.842308 11.419612 84.915385 11.500264 84.988462 11.580977 85.061538 11.661746 85.134615 11.742568 85.207692 11.823440 85.280769 11.904359 85.353846 11.985321 85.426923 12.066322 85.500000 12.147360 85.573077 12.228431 85.646154 12.309532 85.719231 12.390658 85.792308 12.471807 85.865385 12.552976 85.938462 12.634160 86.011538 12.715357 86.084615 12.796563 86.157692 12.877775 86.230769 12.958989 86.303846 13.040202 86.376923 13.121410 86.450000 13.202611 86.523077 13.283800 86.596154 13.364975 86.669231 13.446131 86.742308 13.527266 86.815385 13.608376 86.888462 13.689458 86.961538 13.770508 87.034615 13.851523 87.107692 13.932499 87.180769 14.013433 87.253846 14.094322 87.326923 14.175163 87.400000 14.255951 87.473077 14.336684 87.546154 14.417358 87.619231 14.497969 87.692308 14.578515 87.765385 14.658992 87.838462 14.739396 87.911538 14.819724 87.984615 14.899973 88.057692 14.980139 88.130769 15.060219 88.203846 15.140210 88.276923 15.220108 88.350000 15.299909 88.423077 15.379610 88.496154 15.459209 88.569231 15.538700 88.642308 15.618082 88.715385 15.697351 88.788462 15.776503 88.861538 15.855534 88.934615 15.934442 89.007692 16.013223 89.080769 16.091874 89.153846 16.170391 89.226923 16.248771 89.300000 16.327010 89.373077 16.405106 89.446154 16.483054 89.519231 16.560851 89.592308 16.638494 89.665385 16.715980 89.738462 16.793304 89.811538 16.870464 89.884615 16.947457 89.957692 17.024278 90.030769 17.100925 90.103846 17.177393 90.176923 17.253681 90.250000 17.329783 90.323077 17.405698 90.396154 17.481420 90.469231 17.556948 90.542308 17.632278 90.615385 17.707405 90.688462 17.782328 90.761538 17.857042 90.834615 17.931543 90.907692 18.005830 90.980769 18.079898 91.053846 18.153743 91.126923 18.227363 91.200000 18.300754 91.273077 18.373913 91.346154 18.446835 91.419231 18.519519 91.492308 18.591960 91.565385 18.664155 91.638462 18.736100 91.711538 18.807793 91.784615 18.879230 91.857692 18.950406 91.930769 19.021320 92.003846 19.091968 92.076923 19.162346 92.150000 19.232450 92.223077 19.302278 92.296154 19.371826 92.369231 19.441090 92.442308 19.510068 92.515385 19.578755 92.588462 19.647149 92.661538 19.715246 92.734615 19.783042 92.807692 19.850535 92.880769 19.917720 92.953846 19.984595 93.026923 20.051155 93.100000 20.117398 93.173077 20.183321 93.246154 20.248919 93.319231 20.314189 93.392308 20.379129 93.465385 20.443734 93.538462 20.508001 93.611538 20.571928 93.684615 20.635514 93.757692 20.698763 93.830769 20.761674 93.903846 20.824249 93.976923 20.886490 94.050000 20.948398 94.123077 21.009975 94.196154 21.071220 94.269231 21.132137 94.342308 21.192727 94.415385 21.252990 94.488462 21.312928 94.561538 21.372543 94.634615 21.431836 94.707692 21.490808 94.780769 21.549460 94.853846 21.607794 94.926923 21.665812 95.000000 21.723515 95.073077 21.780903 95.146154 21.837979 95.219231 21.894744 95.292308 21.951199 95.365385 22.007345 95.438462 22.063185 95.511538 22.118718 95.584615 22.173947 95.657692 22.228873 95.730769 22.283498 95.803846 22.337822 95.876923 22.391847 95.950000 22.445575 96.023077 22.499006 96.096154 22.552143 96.169231 22.604986 96.242308 22.657537 96.315385 22.709798 96.388462 22.761769 96.461538 22.813452 96.534615 22.864848 96.607692 22.915959 96.680769 22.966786 96.753846 23.017331 96.826923 23.067594 96.900000 23.117578 96.973077 23.167283 97.046154 23.216711 97.119231 23.265863 97.192308 23.314741 97.265385 23.363346 97.338462 23.411679 97.411538 23.459743 97.484615 23.507537 97.557692 23.555063 97.630769 23.602324 97.703846 23.649319 97.776923 23.696052 97.850000 23.742522 97.923077 23.788731 97.996154 23.834681 98.069231 23.880374 98.142308 23.925809 98.215385 23.970989 98.288462 24.015916 98.361538 24.060590 98.434615 24.105012 98.507692 24.149185 98.580769 24.193110 98.653846 24.236787 98.726923 24.280219 98.800000 24.323406 98.873077 24.366351 98.946154 24.409054 99.019231 24.451516 99.092308 24.493740 99.165385 24.535726 99.238462 24.577476 99.311538 24.618992 99.384615 24.660274 99.457692 24.701323 99.530769 24.742143 99.603846 24.782732 99.676923 24.823094 99.750000 24.863230 99.823077 24.903140 99.896154 24.942826 99.969231 24.982290 100.042308 25.021533 100.115385 25.060556 100.188462 25.099360 100.261538 25.137947 100.334615 25.176319 100.407692 25.214477 100.480769 25.252421 100.553846 25.290154 100.626923 25.327677 100.700000 25.364991 100.773077 25.402098 100.846154 25.438998 100.919231 25.475694 100.992308 25.512186 101.065385 25.548476 101.138462 25.584566 101.211538 25.620456 101.284615 25.656148 101.357692 25.691644 101.430769 25.726945 101.503846 25.762052 101.576923 25.796966 101.650000 25.831689 101.723077 25.866223 101.796154 25.900568 101.869231 25.934726 101.942308 25.968699 102.015385 26.002487 102.088462 26.036092 102.161538 26.069516 102.234615 26.102760 102.307692 26.135825 102.380769 26.168712 102.453846 26.201423 102.526923 26.233960 102.600000 26.266323 102.673077 26.298514 102.746154 26.330535 102.819231 26.362386 102.892308 26.394070 102.965385 26.425587 103.038462 26.456938 103.111538 26.488126 103.184615 26.519152 103.257692 26.550016 103.330769 26.580721 103.403846 26.611268 103.476923 26.641657 103.550000 26.671891 103.623077 26.701971 103.696154 26.731897 103.769231 26.761673 103.842308 26.791298 103.915385 26.820774 103.988462 26.850103 104.061538 26.879286 104.134615 26.908324 104.207692 26.937219 104.280769 26.965972 104.353846 26.994584 104.426923 27.023057 104.500000 27.051392 104.573077 27.079591 104.646154 27.107655 104.719231 27.135585 104.792308 27.163382 104.865385 27.191048 104.938462 27.218585 105.011538 27.245993 105.084615 27.273275 105.157692 27.300431 105.230769 27.327462 105.303846 27.354371 105.376923 27.381159 105.450000 27.407826 105.523077 27.434374 105.596154 27.460805 105.669231 27.487120 105.742308 27.513321 105.815385 27.539408 105.888462 27.565383 105.961538 27.591248 106.034615 27.617003 106.107692 27.642651 106.180769 27.668192 106.253846 27.693628 106.326923 27.718960 106.400000 27.744190 106.473077 27.769319 106.546154 27.794348 106.619231 27.819279 106.692308 27.844113 106.765385 27.868852 106.838462 27.893496 106.911538 27.918048 106.984615 27.942508 107.057692 27.966878 107.130769 27.991159 107.203846 28.015353 107.276923 28.039461 107.350000 28.063484 107.423077 28.087424 107.496154 28.111282 107.569231 28.135060 107.642308 28.158758 107.715385 28.182379 107.788462 28.205923 107.861538 28.229392 107.934615 28.252787 108.007692 28.276111 108.080769 28.299363 108.153846 28.322545 108.226923 28.345659 108.300000 28.368707 108.373077 28.391688 108.446154 28.414606 108.519231 28.437461 108.592308 28.460254 108.665385 28.482988 108.738462 28.505662 108.811538 28.528280 108.884615 28.550841 108.957692 28.573348 109.030769 28.595802 109.103846 28.618203 109.176923 28.640555 109.250000 28.662857 109.323077 28.685111 109.396154 28.707319 109.469231 28.729482 109.542308 28.751601 109.615385 28.773678 109.688462 28.795713 109.761538 28.817710 109.834615 28.839668 109.907692 28.861589 109.980769 28.883475 110.053846 28.905326 110.126923 28.927145 110.200000 28.948933 110.273077 28.970690 110.346154 28.992419 110.419231 29.014120 110.492308 29.035796 110.565385 29.057447 110.638462 29.079075 110.711538 29.100681 110.784615 29.122266 110.857692 29.143832 110.930769 29.165381 111.003846 29.186913 111.076923 29.208430 111.150000 29.229934 111.223077 29.251425 111.296154 29.272906 111.369231 29.294376 111.442308 29.315839 111.515385 29.337295 111.588462 29.358745 111.661538 29.380191 111.734615 29.401635 111.807692 29.423077" class="line reactive nofill" /></g></g><g class="titles" /><g transform="translate(76, 10)" class="plot overlay"><g class="series serie-0 color-0" /></g><g transform="translate(76, 10)" class="plot text-overlay"><g class="series serie-0 color-0" /></g><g transform="translate(76, 10)" class="plot tooltip-overlay"><g transform="translate(0 0)" style="opacity: 0" class="tooltip"><rect rx="0" ry="0" width="0" height="0" class="tooltip-box" /><g class="text" /></g></g></g></svg>