<?xml version='1.0' encoding='utf-8'?>
<svg xmlns="http://www.w3.org/2000/svg" id="chart-8f5c36ea-18d5-43e5-af2d-f4e8fe26e582" class="pygal-chart pygal-sparkline" viewBox="0 0 200 50" width="200" height="50"><!--Generated with pygal 3.0.5 (etree) ©Kozea 2012-2016 on 2025-05-25--><!--http://pygal.org--><!--http://github.com/Kozea/pygal--><defs><style type="text/css">#chart-8f5c36ea-18d5-43e5-af2d-f4e8fe26e582{-webkit-user-select:none;-webkit-font-smoothing:antialiased;font-family:Consolas,"Liberation Mono",Menlo,Courier,monospace}#chart-8f5c36ea-18d5-43e5-af2d-f4e8fe26e582 .title{font-family:Consolas,"Liberation Mono",Menlo,Courier,monospace;font-size:16px}#chart-8f5c36ea-18d5-43e5-af2d-f4e8fe26e582 .legends .legend text{font-family:Consolas,"Liberation Mono",Menlo,Courier,monospace;font-size:14px}#chart-8f5c36ea-18d5-43e5-af2d-f4e8fe26e582 .axis text{font-family:Consolas,"Liberation Mono",Menlo,Courier,monospace;font-size:10px}#chart-8f5c36ea-18d5-43e5-af2d-f4e8fe26e582 .axis text.major{font-family:Consolas,"Liberation Mono",Menlo,Courier,monospace;font-size:10px}#chart-8f5c36ea-18d5-43e5-af2d-f4e8fe26e582 .text-overlay text.value{font-family:Consolas,"Liberation Mono",Menlo,Courier,monospace;font-size:16px}#chart-8f5c36ea-18d5-43e5-af2d-f4e8fe26e582 .text-overlay text.label{font-family:Consolas,"Liberation Mono",Menlo,Courier,monospace;font-size:10px}#chart-8f5c36ea-18d5-43e5-af2d-f4e8fe26e582 .tooltip{font-family:Consolas,"Liberation Mono",Menlo,Courier,monospace;font-size:14px}#chart-8f5c36ea-18d5-43e5-af2d-f4e8fe26e582 text.no_data{font-family:Consolas,"Liberation Mono",Menlo,Courier,monospace;font-size:64px}
#chart-8f5c36ea-18d5-43e5-af2d-f4e8fe26e582{background-color:rgba(249,249,249,1)}#chart-8f5c36ea-18d5-43e5-af2d-f4e8fe26e582 path,#chart-8f5c36ea-18d5-43e5-af2d-f4e8fe26e582 line,#chart-8f5c36ea-18d5-43e5-af2d-f4e8fe26e582 rect,#chart-8f5c36ea-18d5-43e5-af2d-f4e8fe26e582 circle{-webkit-transition:150ms;-moz-transition:150ms;transition:150ms}#chart-8f5c36ea-18d5-43e5-af2d-f4e8fe26e582 .graph &gt; .background{fill:rgba(249,249,249,1)}#chart-8f5c36ea-18d5-43e5-af2d-f4e8fe26e582 .plot &gt; .background{fill:rgba(255,255,255,1)}#chart-8f5c36ea-18d5-43e5-af2d-f4e8fe26e582 .graph{fill:rgba(0,0,0,.87)}#chart-8f5c36ea-18d5-43e5-af2d-f4e8fe26e582 text.no_data{fill:rgba(0,0,0,1)}#chart-8f5c36ea-18d5-43e5-af2d-f4e8fe26e582 .title{fill:rgba(0,0,0,1)}#chart-8f5c36ea-18d5-43e5-af2d-f4e8fe26e582 .legends .legend text{fill:rgba(0,0,0,.87)}#chart-8f5c36ea-18d5-43e5-af2d-f4e8fe26e582 .legends .legend:hover text{fill:rgba(0,0,0,1)}#chart-8f5c36ea-18d5-43e5-af2d-f4e8fe26e582 .axis .line{stroke:rgba(0,0,0,1)}#chart-8f5c36ea-18d5-43e5-af2d-f4e8fe26e582 .axis .guide.line{stroke:rgba(0,0,0,.54)}#chart-8f5c36ea-18d5-43e5-af2d-f4e8fe26e582 .axis .major.line{stroke:rgba(0,0,0,.87)}#chart-8f5c36ea-18d5-43e5-af2d-f4e8fe26e582 .axis text.major{fill:rgba(0,0,0,1)}#chart-8f5c36ea-18d5-43e5-af2d-f4e8fe26e582 .axis.y .guides:hover .guide.line,#chart-8f5c36ea-18d5-43e5-af2d-f4e8fe26e582 .line-graph .axis.x .guides:hover .guide.line,#chart-8f5c36ea-18d5-43e5-af2d-f4e8fe26e582 .stackedline-graph .axis.x .guides:hover .guide.line,#chart-8f5c36ea-18d5-43e5-af2d-f4e8fe26e582 .xy-graph .axis.x .guides:hover .guide.line{stroke:rgba(0,0,0,1)}#chart-8f5c36ea-18d5-43e5-af2d-f4e8fe26e582 .axis .guides:hover text{fill:rgba(0,0,0,1)}#chart-8f5c36ea-18d5-43e5-af2d-f4e8fe26e582 .reactive{fill-opacity:.7;stroke-opacity:.8;stroke-width:1}#chart-8f5c36ea-18d5-43e5-af2d-f4e8fe26e582 .ci{stroke:rgba(0,0,0,.87)}#chart-8f5c36ea-18d5-43e5-af2d-f4e8fe26e582 .reactive.active,#chart-8f5c36ea-18d5-43e5-af2d-f4e8fe26e582 .active .reactive{fill-opacity:.8;stroke-opacity:.9;stroke-width:4}#chart-8f5c36ea-18d5-43e5-af2d-f4e8fe26e582 .ci .reactive.active{stroke-width:1.5}#chart-8f5c36ea-18d5-43e5-af2d-f4e8fe26e582 .series text{fill:rgba(0,0,0,1)}#chart-8f5c36ea-18d5-43e5-af2d-f4e8fe26e582 .tooltip rect{fill:rgba(255,255,255,1);stroke:rgba(0,0,0,1);-webkit-transition:opacity 150ms;-moz-transition:opacity 150ms;transition:opacity 150ms}#chart-8f5c36ea-18d5-43e5-af2d-f4e8fe26e582 .tooltip .label{fill:rgba(0,0,0,.87)}#chart-8f5c36ea-18d5-43e5-af2d-f4e8fe26e582 .tooltip .label{fill:rgba(0,0,0,.87)}#chart-8f5c36ea-18d5-43e5-af2d-f4e8fe26e582 .tooltip .legend{font-size:.8em;fill:rgba(0,0,0,.54)}#chart-8f5c36ea-18d5-43e5-af2d-f4e8fe26e582 .tooltip .x_label{font-size:.6em;fill:rgba(0,0,0,1)}#chart-8f5c36ea-18d5-43e5-af2d-f4e8fe26e582 .tooltip .xlink{font-size:.5em;text-decoration:underline}#chart-8f5c36ea-18d5-43e5-af2d-f4e8fe26e582 .tooltip .value{font-size:1.5em}#chart-8f5c36ea-18d5-43e5-af2d-f4e8fe26e582 .bound{font-size:.5em}#chart-8f5c36ea-18d5-43e5-af2d-f4e8fe26e582 .max-value{font-size:.75em;fill:rgba(0,0,0,.54)}#chart-8f5c36ea-18d5-43e5-af2d-f4e8fe26e582 .map-element{fill:rgba(255,255,255,1);stroke:rgba(0,0,0,.54) !important}#chart-8f5c36ea-18d5-43e5-af2d-f4e8fe26e582 .map-element .reactive{fill-opacity:inherit;stroke-opacity:inherit}#chart-8f5c36ea-18d5-43e5-af2d-f4e8fe26e582 .color-0,#chart-8f5c36ea-18d5-43e5-af2d-f4e8fe26e582 .color-0 a:visited{stroke:#F44336;fill:#F44336}#chart-8f5c36ea-18d5-43e5-af2d-f4e8fe26e582 .text-overlay .color-0 text{fill:black}
#chart-8f5c36ea-18d5-43e5-af2d-f4e8fe26e582 text.no_data{text-anchor:middle}#chart-8f5c36ea-18d5-43e5-af2d-f4e8fe26e582 .guide.line{fill:none}#chart-8f5c36ea-18d5-43e5-af2d-f4e8fe26e582 .centered{text-anchor:middle}#chart-8f5c36ea-18d5-43e5-af2d-f4e8fe26e582 .title{text-anchor:middle}#chart-8f5c36ea-18d5-43e5-af2d-f4e8fe26e582 .legends .legend text{fill-opacity:1}#chart-8f5c36ea-18d5-43e5-af2d-f4e8fe26e582 .axis.x text{text-anchor:middle}#chart-8f5c36ea-18d5-43e5-af2d-f4e8fe26e582 .axis.x:not(.web) text[transform]{text-anchor:start}#chart-8f5c36ea-18d5-43e5-af2d-f4e8fe26e582 .axis.x:not(.web) text[transform].backwards{text-anchor:end}#chart-8f5c36ea-18d5-43e5-af2d-f4e8fe26e582 .axis.y text{text-anchor:end}#chart-8f5c36ea-18d5-43e5-af2d-f4e8fe26e582 .axis.y text[transform].backwards{text-anchor:start}#chart-8f5c36ea-18d5-43e5-af2d-f4e8fe26e582 .axis.y2 text{text-anchor:start}#chart-8f5c36ea-18d5-43e5-af2d-f4e8fe26e582 .axis.y2 text[transform].backwards{text-anchor:end}#chart-8f5c36ea-18d5-43e5-af2d-f4e8fe26e582 .axis .guide.line{stroke-dasharray:4,4;stroke:black}#chart-8f5c36ea-18d5-43e5-af2d-f4e8fe26e582 .axis .major.guide.line{stroke-dasharray:6,6;stroke:black}#chart-8f5c36ea-18d5-43e5-af2d-f4e8fe26e582 .horizontal .axis.y .guide.line,#chart-8f5c36ea-18d5-43e5-af2d-f4e8fe26e582 .horizontal .axis.y2 .guide.line,#chart-8f5c36ea-18d5-43e5-af2d-f4e8fe26e582 .vertical .axis.x .guide.line{opacity:0}#chart-8f5c36ea-18d5-43e5-af2d-f4e8fe26e582 .horizontal .axis.always_show .guide.line,#chart-8f5c36ea-18d5-43e5-af2d-f4e8fe26e582 .vertical .axis.always_show .guide.line{opacity:1 !important}#chart-8f5c36ea-18d5-43e5-af2d-f4e8fe26e582 .axis.y .guides:hover .guide.line,#chart-8f5c36ea-18d5-43e5-af2d-f4e8fe26e582 .axis.y2 .guides:hover .guide.line,#chart-8f5c36ea-18d5-43e5-af2d-f4e8fe26e582 .axis.x .guides:hover .guide.line{opacity:1}#chart-8f5c36ea-18d5-43e5-af2d-f4e8fe26e582 .axis .guides:hover text{opacity:1}#chart-8f5c36ea-18d5-43e5-af2d-f4e8fe26e582 .nofill{fill:none}#chart-8f5c36ea-18d5-43e5-af2d-f4e8fe26e582 .subtle-fill{fill-opacity:.2}#chart-8f5c36ea-18d5-43e5-af2d-f4e8fe26e582 .dot{stroke-width:1px;fill-opacity:1;stroke-opacity:1}#chart-8f5c36ea-18d5-43e5-af2d-f4e8fe26e582 .dot.active{stroke-width:5px}#chart-8f5c36ea-18d5-43e5-af2d-f4e8fe26e582 .dot.negative{fill:transparent}#chart-8f5c36ea-18d5-43e5-af2d-f4e8fe26e582 text,#chart-8f5c36ea-18d5-43e5-af2d-f4e8fe26e582 tspan{stroke:none !important}#chart-8f5c36ea-18d5-43e5-af2d-f4e8fe26e582 .series text.active{opacity:1}#chart-8f5c36ea-18d5-43e5-af2d-f4e8fe26e582 .tooltip rect{fill-opacity:.95;stroke-width:.5}#chart-8f5c36ea-18d5-43e5-af2d-f4e8fe26e582 .tooltip text{fill-opacity:1}#chart-8f5c36ea-18d5-43e5-af2d-f4e8fe26e582 .showable{visibility:hidden}#chart-8f5c36ea-18d5-43e5-af2d-f4e8fe26e582 .showable.shown{visibility:visible}#chart-8f5c36ea-18d5-43e5-af2d-f4e8fe26e582 .gauge-background{fill:rgba(229,229,229,1);stroke:none}#chart-8f5c36ea-18d5-43e5-af2d-f4e8fe26e582 .bg-lines{stroke:rgba(249,249,249,1);stroke-width:2px}</style><script type="text/javascript">window.pygal = window.pygal || {};window.pygal.config = window.pygal.config || {};window.pygal.config['8f5c36ea-18d5-43e5-af2d-f4e8fe26e582'] = {"allow_interruptions": false, "box_mode": "extremes", "classes": ["pygal-chart", "pygal-sparkline"], "css": ["file://style.css", "file://graph.css"], "defs": [], "disable_xml_declaration": false, "dots_size": 2.5, "dynamic_print_values": false, "explicit_size": true, "fill": false, "force_uri_protocol": "https", "formatter": null, "half_pie": false, "height": 50, "include_x_axis": false, "inner_radius": 0, "interpolate": "cubic", "interpolation_parameters": {}, "interpolation_precision": 250, "inverse_y_axis": false, "js": [], "legend_at_bottom": false, "legend_at_bottom_columns": null, "legend_box_size": 12, "logarithmic": false, "margin": 10, "margin_bottom": null, "margin_left": null, "margin_right": null, "margin_top": null, "max_scale": 2, "min_scale": 1, "missing_value_fill_truncation": "x", "no_data_text": "", "no_prefix": false, "order_min": null, "pretty_print": false, "print_labels": false, "print_values": false, "print_values_position": "center", "print_zeroes": true, "range": null, "rounded_bars": null, "secondary_range": null, "show_dots": false, "show_legend": false, "show_minor_x_labels": true, "show_minor_y_labels": true, "show_only_major_dots": false, "show_x_guides": false, "show_x_labels": false, "show_y_guides": true, "show_y_labels": true, "spacing": 0, "stack_from_top": false, "strict": false, "stroke": true, "stroke_style": null, "style": {"background": "rgba(249, 249, 249, 1)", "ci_colors": [], "colors": ["#F44336", "#3F51B5", "#009688", "#FFC107", "#FF5722", "#9C27B0", "#03A9F4", "#8BC34A", "#FF9800", "#E91E63", "#2196F3", "#4CAF50", "#FFEB3B", "#673AB7", "#00BCD4", "#CDDC39", "#9E9E9E", "#607D8B"], "dot_opacity": "1", "font_family": "Consolas, \"Liberation Mono\", Menlo, Courier, monospace", "foreground": "rgba(0, 0, 0, .87)", "foreground_strong": "rgba(0, 0, 0, 1)", "foreground_subtle": "rgba(0, 0, 0, .54)", "guide_stroke_color": "black", "guide_stroke_dasharray": "4,4", "label_font_family": "Consolas, \"Liberation Mono\", Menlo, Courier, monospace", "label_font_size": 10, "legend_font_family": "Consolas, \"Liberation Mono\", Menlo, Courier, monospace", "legend_font_size": 14, "major_guide_stroke_color": "black", "major_guide_stroke_dasharray": "6,6", "major_label_font_family": "Consolas, \"Liberation Mono\", Menlo, Courier, monospace", "major_label_font_size": 10, "no_data_font_family": "Consolas, \"Liberation Mono\", Menlo, Courier, monospace", "no_data_font_size": 64, "opacity": ".7", "opacity_hover": ".8", "plot_background": "rgba(255, 255, 255, 1)", "stroke_opacity": ".8", "stroke_opacity_hover": ".9", "stroke_width": "1", "stroke_width_hover": "4", "title_font_family": "Consolas, \"Liberation Mono\", Menlo, Courier, monospace", "title_font_size": 16, "tooltip_font_family": "Consolas, \"Liberation Mono\", Menlo, Courier, monospace", "tooltip_font_size": 14, "transition": "150ms", "value_background": "rgba(229, 229, 229, 1)", "value_colors": [], "value_font_family": "Consolas, \"Liberation Mono\", Menlo, Courier, monospace", "value_font_size": 16, "value_label_font_family": "Consolas, \"Liberation Mono\", Menlo, Courier, monospace", "value_label_font_size": 10}, "title": null, "tooltip_border_radius": 0, "tooltip_fancy_mode": true, "truncate_label": null, "truncate_legend": null, "width": 200, "x_label_rotation": 0, "x_labels": ["2025/5", "2025/4", "2025/3", "2025/1", "2024/12", "2024/11"], "x_labels_major": null, "x_labels_major_count": null, "x_labels_major_every": null, "x_title": null, "xrange": null, "y_label_rotation": 0, "y_labels": null, "y_labels_major": null, "y_labels_major_count": null, "y_labels_major_every": null, "y_title": null, "zero": 0, "legends": [""]}</script></defs><title>Pygal</title><g class="graph line-graph vertical"><rect x="0" y="0" width="200" height="50" class="background" /><g transform="translate(20, 10)" class="plot"><rect x="0" y="0" width="170" height="30" class="background" /><g class="axis y always_show"><g class="guides"><path d="M0.000000 29.073337 h170.000000" class="axis line" /><text x="-5" y="32.57333661188161" class="">0</text><title>0</title></g><g class="guides"><path d="M0.000000 11.552264 h170.000000" class="guide line" /><text x="-5" y="15.052263943160494" class="">8</text><title>8</title></g></g><g class="series serie-0 color-0"><path d="M3.269231 18.122666 L3.400000 18.168941 3.530769 18.215213 3.661538 18.261477 3.792308 18.307731 3.923077 18.353970 4.053846 18.400191 4.184615 18.446391 4.315385 18.492565 4.446154 18.538710 4.576923 18.584823 4.707692 18.630901 4.838462 18.676938 4.969231 18.722932 5.100000 18.768880 5.230769 18.814777 5.361538 18.860620 5.492308 18.906405 5.623077 18.952129 5.753846 18.997788 5.884615 19.043379 6.015385 19.088898 6.146154 19.134341 6.276923 19.179705 6.407692 19.224986 6.538462 19.270181 6.669231 19.315286 6.800000 19.360297 6.930769 19.405211 7.061538 19.450024 7.192308 19.494732 7.323077 19.539333 7.453846 19.583821 7.584615 19.628195 7.715385 19.672450 7.846154 19.716582 7.976923 19.760588 8.107692 19.804465 8.238462 19.848208 8.369231 19.891815 8.500000 19.935281 8.630769 19.978603 8.761538 20.021777 8.892308 20.064800 9.023077 20.107668 9.153846 20.150378 9.284615 20.192925 9.415385 20.235307 9.546154 20.277520 9.676923 20.319560 9.807692 20.361423 9.938462 20.403107 10.069231 20.444606 10.200000 20.485919 10.330769 20.527040 10.461538 20.567967 10.592308 20.608696 10.723077 20.649223 10.853846 20.689545 10.984615 20.729658 11.115385 20.769559 11.246154 20.809243 11.376923 20.848708 11.507692 20.887949 11.638462 20.926964 11.769231 20.965748 11.900000 21.004298 12.030769 21.042611 12.161538 21.080682 12.292308 21.118508 12.423077 21.156085 12.553846 21.193411 12.684615 21.230481 12.815385 21.267291 12.946154 21.303839 13.076923 21.340120 13.207692 21.376131 13.338462 21.411868 13.469231 21.447328 13.600000 21.482507 13.730769 21.517402 13.861538 21.552008 13.992308 21.586323 14.123077 21.620342 14.253846 21.654063 14.384615 21.687481 14.515385 21.720592 14.646154 21.753394 14.776923 21.785883 14.907692 21.818055 15.038462 21.849906 15.169231 21.881434 15.300000 21.912633 15.430769 21.943501 15.561538 21.974034 15.692308 22.004229 15.823077 22.034081 15.953846 22.063588 16.084615 22.092746 16.215385 22.121550 16.346154 22.149998 16.476923 22.178086 16.607692 22.205810 16.738462 22.233166 16.869231 22.260152 17.000000 22.286763 17.130769 22.312996 17.261538 22.338848 17.392308 22.364314 17.523077 22.389390 17.653846 22.414075 17.784615 22.438363 17.915385 22.462252 18.046154 22.485737 18.176923 22.508815 18.307692 22.531482 18.438462 22.553736 18.569231 22.575571 18.700000 22.596986 18.830769 22.617975 18.961538 22.638536 19.092308 22.658664 19.223077 22.678357 19.353846 22.697610 19.484615 22.716421 19.615385 22.734785 19.746154 22.752698 19.876923 22.770158 20.007692 22.787161 20.138462 22.803702 20.269231 22.819779 20.400000 22.835388 20.530769 22.850525 20.661538 22.865186 20.792308 22.879369 20.923077 22.893069 21.053846 22.906282 21.184615 22.919006 21.315385 22.931237 21.446154 22.942970 21.576923 22.954203 21.707692 22.964932 21.838462 22.975153 21.969231 22.984863 22.100000 22.994057 22.230769 23.002733 22.361538 23.010887 22.492308 23.018515 22.623077 23.025613 22.753846 23.032178 22.884615 23.038207 23.015385 23.043696 23.146154 23.048641 23.276923 23.053038 23.407692 23.056884 23.538462 23.060176 23.669231 23.062910 23.800000 23.065081 23.930769 23.066688 24.061538 23.067725 24.192308 23.068189 24.323077 23.068078 24.453846 23.067386 24.584615 23.066111 24.715385 23.064249 24.846154 23.061797 24.976923 23.058750 25.107692 23.055105 25.238462 23.050859 25.369231 23.046008 25.500000 23.040548 25.630769 23.034476 25.761538 23.027788 25.892308 23.020481 26.023077 23.012550 26.153846 23.003993 26.284615 22.994806 26.415385 22.984984 26.546154 22.974526 26.676923 22.963426 26.807692 22.951682 26.938462 22.939289 27.069231 22.926245 27.200000 22.912545 27.330769 22.898186 27.461538 22.883164 27.592308 22.867476 27.723077 22.851118 27.853846 22.834087 27.984615 22.816378 28.115385 22.797989 28.246154 22.778916 28.376923 22.759155 28.507692 22.738702 28.638462 22.717554 28.769231 22.695708 28.900000 22.673159 29.030769 22.649904 29.161538 22.625940 29.292308 22.601263 29.423077 22.575869 29.553846 22.549755 29.684615 22.522917 29.815385 22.495351 29.946154 22.467054 30.076923 22.438023 30.207692 22.408253 30.338462 22.377742 30.469231 22.346485 30.600000 22.314478 30.730769 22.281720 30.861538 22.248204 30.992308 22.213929 31.123077 22.178891 31.253846 22.143085 31.384615 22.106508 31.515385 22.069158 31.646154 22.031029 31.776923 21.992119 31.907692 21.952423 32.038462 21.911939 32.169231 21.870663 32.300000 21.828591 32.430769 21.785719 32.561538 21.742044 32.692308 21.697562 32.823077 21.652270 32.953846 21.606164 33.084615 21.559241 33.215385 21.511496 33.346154 21.462927 33.476923 21.413529 33.607692 21.363300 33.738462 21.312235 33.869231 21.260330 34.000000 21.207583 34.130769 21.153990 34.261538 21.099547 34.392308 21.044250 34.523077 20.988096 34.653846 20.931081 34.784615 20.873202 34.915385 20.814455 35.046154 20.754836 35.176923 20.694343 35.307692 20.632970 35.438462 20.570715 35.569231 20.507575 35.700000 20.443544 35.830769 20.378621 35.961538 20.312800 36.092308 20.246082 36.223077 20.178473 36.353846 20.109982 36.484615 20.040620 36.615385 19.970396 36.746154 19.899320 36.876923 19.827401 37.007692 19.754648 37.138462 19.681072 37.269231 19.606683 37.400000 19.531488 37.530769 19.455499 37.661538 19.378725 37.792308 19.301175 37.923077 19.222859 38.053846 19.143787 38.184615 19.063968 38.315385 18.983411 38.446154 18.902128 38.576923 18.820126 38.707692 18.737415 38.838462 18.654006 38.969231 18.569908 39.100000 18.485130 39.230769 18.399681 39.361538 18.313573 39.492308 18.226814 39.623077 18.139413 39.753846 18.051381 39.884615 17.962726 40.015385 17.873460 40.146154 17.783590 40.276923 17.693127 40.407692 17.602081 40.538462 17.510460 40.669231 17.418275 40.800000 17.325535 40.930769 17.232250 41.061538 17.138429 41.192308 17.044082 41.323077 16.949219 41.453846 16.853849 41.584615 16.757981 41.715385 16.661626 41.846154 16.564793 41.976923 16.467491 42.107692 16.369730 42.238462 16.271520 42.369231 16.172870 42.500000 16.073791 42.630769 15.974290 42.761538 15.874379 42.892308 15.774066 43.023077 15.673362 43.153846 15.572276 43.284615 15.470817 43.415385 15.368995 43.546154 15.266820 43.676923 15.164301 43.807692 15.061448 43.938462 14.958271 44.069231 14.854778 44.200000 14.750980 44.330769 14.646887 44.461538 14.542507 44.592308 14.437851 44.723077 14.332928 44.853846 14.227747 44.984615 14.122319 45.115385 14.016652 45.246154 13.910757 45.376923 13.804643 45.507692 13.698320 45.638462 13.591797 45.769231 13.485083 45.900000 13.378190 46.030769 13.271125 46.161538 13.163898 46.292308 13.056520 46.423077 12.949000 46.553846 12.841347 46.684615 12.733572 46.815385 12.625682 46.946154 12.517689 47.076923 12.409602 47.207692 12.301431 47.338462 12.193184 47.469231 12.084872 47.600000 11.976503 47.730769 11.868089 47.861538 11.759638 47.992308 11.651161 48.123077 11.542665 48.253846 11.434162 48.384615 11.325661 48.515385 11.217171 48.646154 11.108702 48.776923 11.000263 48.907692 10.891865 49.038462 10.783516 49.169231 10.675227 49.300000 10.567007 49.430769 10.458865 49.561538 10.350812 49.692308 10.242856 49.823077 10.135007 49.953846 10.027276 50.084615 9.919671 50.215385 9.812202 50.346154 9.704879 50.476923 9.597711 50.607692 9.490708 50.738462 9.383880 50.869231 9.277236 51.000000 9.170785 51.130769 9.064538 51.261538 8.958504 51.392308 8.852692 51.523077 8.747112 51.653846 8.641774 51.784615 8.536687 51.915385 8.431861 52.046154 8.327306 52.176923 8.223031 52.307692 8.119045 52.438462 8.015359 52.569231 7.911982 52.700000 7.808923 52.830769 7.706192 52.961538 7.603799 53.092308 7.501753 53.223077 7.400064 53.353846 7.298741 53.484615 7.197795 53.615385 7.097234 53.746154 6.997068 53.876923 6.897308 54.007692 6.797961 54.138462 6.699039 54.269231 6.600551 54.400000 6.502505 54.530769 6.404913 54.661538 6.307783 54.792308 6.211125 54.923077 6.114948 55.053846 6.019263 55.184615 5.924079 55.315385 5.829405 55.446154 5.735251 55.576923 5.641626 55.707692 5.548541 55.838462 5.456005 55.969231 5.364027 56.100000 5.272617 56.230769 5.181785 56.361538 5.091540 56.492308 5.001892 56.623077 4.912850 56.753846 4.824424 56.884615 4.736624 57.015385 4.649459 57.146154 4.562938 57.276923 4.477072 57.407692 4.391870 57.538462 4.307342 57.669231 4.223497 57.800000 4.140344 57.930769 4.057894 58.061538 3.976156 58.192308 3.895139 58.323077 3.814854 58.453846 3.735309 58.584615 3.656515 58.715385 3.578481 58.846154 3.501216 58.976923 3.424730 59.107692 3.349033 59.238462 3.274135 59.369231 3.200044 59.500000 3.126771 59.630769 3.054325 59.761538 2.982715 59.892308 2.911953 60.023077 2.842045 60.153846 2.773004 60.284615 2.704838 60.415385 2.637556 60.546154 2.571168 60.676923 2.505685 60.807692 2.441115 60.938462 2.377468 61.069231 2.314754 61.200000 2.252982 61.330769 2.192162 61.461538 2.132304 61.592308 2.073416 61.723077 2.015509 61.853846 1.958593 61.984615 1.902676 62.115385 1.847769 62.246154 1.793881 62.376923 1.741022 62.507692 1.689201 62.638462 1.638428 62.769231 1.588712 62.900000 1.540063 63.030769 1.492491 63.161538 1.446005 63.292308 1.400615 63.423077 1.356331 63.553846 1.313161 63.684615 1.271117 63.815385 1.230206 63.946154 1.190439 64.076923 1.151826 64.207692 1.114376 64.338462 1.078098 64.469231 1.043003 64.600000 1.009099 64.730769 0.976397 64.861538 0.944906 64.992308 0.914635 65.123077 0.885595 65.253846 0.857794 65.384615 0.831243 65.515385 0.805951 65.646154 0.781928 65.776923 0.759182 65.907692 0.737725 66.038462 0.717565 66.169231 0.698711 66.300000 0.681175 66.430769 0.664964 66.561538 0.650090 66.692308 0.636561 66.823077 0.624386 66.953846 0.613577 67.084615 0.604141 67.215385 0.596089 67.346154 0.589431 67.476923 0.584176 67.607692 0.580333 67.738462 0.577912 67.869231 0.576923 68.000000 0.577375 68.130769 0.579279 68.261538 0.582643 68.392308 0.587477 68.523077 0.593790 68.653846 0.601594 68.784615 0.610892 68.915385 0.621681 69.046154 0.633949 69.176923 0.647687 69.307692 0.662886 69.438462 0.679536 69.569231 0.697628 69.700000 0.717151 69.830769 0.738098 69.961538 0.760457 70.092308 0.784219 70.223077 0.809376 70.353846 0.835916 70.484615 0.863832 70.615385 0.893112 70.746154 0.923748 70.876923 0.955730 71.007692 0.989048 71.138462 1.023694 71.269231 1.059656 71.400000 1.096927 71.530769 1.135496 71.661538 1.175353 71.792308 1.216490 71.923077 1.258896 72.053846 1.302562 72.184615 1.347478 72.315385 1.393636 72.446154 1.441025 72.576923 1.489635 72.707692 1.539458 72.838462 1.590484 72.969231 1.642702 73.100000 1.696104 73.230769 1.750680 73.361538 1.806421 73.492308 1.863316 73.623077 1.921357 73.753846 1.980534 73.884615 2.040836 74.015385 2.102256 74.146154 2.164782 74.276923 2.228406 74.407692 2.293118 74.538462 2.358909 74.669231 2.425768 74.800000 2.493687 74.930769 2.562655 75.061538 2.632664 75.192308 2.703703 75.323077 2.775763 75.453846 2.848835 75.584615 2.922909 75.715385 2.997975 75.846154 3.074024 75.976923 3.151047 76.107692 3.229033 76.238462 3.307973 76.369231 3.387858 76.500000 3.468678 76.630769 3.550424 76.761538 3.633085 76.892308 3.716653 77.023077 3.801118 77.153846 3.886470 77.284615 3.972700 77.415385 4.059797 77.546154 4.147754 77.676923 4.236560 77.807692 4.326205 77.938462 4.416680 78.069231 4.507975 78.200000 4.600081 78.330769 4.692989 78.461538 4.786688 78.592308 4.881170 78.723077 4.976424 78.853846 5.072441 78.984615 5.169211 79.115385 5.266726 79.246154 5.364975 79.376923 5.463948 79.507692 5.563637 79.638462 5.664032 79.769231 5.765123 79.900000 5.866900 80.030769 5.969355 80.161538 6.072477 80.292308 6.176256 80.423077 6.280685 80.553846 6.385752 80.684615 6.491448 80.815385 6.597764 80.946154 6.704690 81.076923 6.812216 81.207692 6.920334 81.338462 7.029033 81.469231 7.138304 81.600000 7.248138 81.730769 7.358524 81.861538 7.469453 81.992308 7.580916 82.123077 7.692904 82.253846 7.805406 82.384615 7.918412 82.515385 8.031915 82.646154 8.145903 82.776923 8.260367 82.907692 8.375299 83.038462 8.490687 83.169231 8.606523 83.300000 8.722797 83.430769 8.839500 83.561538 8.956622 83.692308 9.074153 83.823077 9.192085 83.953846 9.310406 84.084615 9.429108 84.215385 9.548182 84.346154 9.667617 84.476923 9.787404 84.607692 9.907534 84.738462 10.027997 84.869231 10.148783 85.000000 10.269883 85.130769 10.391287 85.261538 10.512986 85.392308 10.634971 85.523077 10.757231 85.653846 10.879757 85.784615 11.002539 85.915385 11.125569 86.046154 11.248836 86.176923 11.372330 86.307692 11.496044 86.438462 11.619965 86.569231 11.744086 86.700000 11.868397 86.830769 11.992888 86.961538 12.117549 87.092308 12.242371 87.223077 12.367345 87.353846 12.492460 87.484615 12.617708 87.615385 12.743079 87.746154 12.868562 87.876923 12.994150 88.007692 13.119831 88.138462 13.245597 88.269231 13.371438 88.400000 13.497344 88.530769 13.623306 88.661538 13.749314 88.792308 13.875359 88.923077 14.001431 89.053846 14.127521 89.184615 14.253619 89.315385 14.379715 89.446154 14.505800 89.576923 14.631865 89.707692 14.757899 89.838462 14.883894 89.969231 15.009839 90.100000 15.135726 90.230769 15.261544 90.361538 15.387284 90.492308 15.512937 90.623077 15.638493 90.753846 15.763942 90.884615 15.889274 91.015385 16.014481 91.146154 16.139553 91.276923 16.264480 91.407692 16.389252 91.538462 16.513861 91.669231 16.638296 91.800000 16.762547 91.930769 16.886607 92.061538 17.010464 92.192308 17.134109 92.323077 17.257533 92.453846 17.380726 92.584615 17.503678 92.715385 17.626381 92.846154 17.748824 92.976923 17.870998 93.107692 17.992893 93.238462 18.114500 93.369231 18.235809 93.500000 18.356811 93.630769 18.477497 93.761538 18.597855 93.892308 18.717878 94.023077 18.837555 94.153846 18.956877 94.284615 19.075834 94.415385 19.194417 94.546154 19.312616 94.676923 19.430422 94.807692 19.547825 94.938462 19.664816 95.069231 19.781384 95.200000 19.897521 95.330769 20.013217 95.461538 20.128462 95.592308 20.243247 95.723077 20.357562 95.853846 20.471398 95.984615 20.584745 96.115385 20.697593 96.246154 20.809934 96.376923 20.921756 96.507692 21.033052 96.638462 21.143811 96.769231 21.254023 96.900000 21.363680 97.030769 21.472772 97.161538 21.581288 97.292308 21.689220 97.423077 21.796558 97.553846 21.903293 97.684615 22.009414 97.815385 22.114913 97.946154 22.219779 98.076923 22.324004 98.207692 22.427577 98.338462 22.530489 98.469231 22.632730 98.600000 22.734292 98.730769 22.835164 98.861538 22.935337 98.992308 23.034801 99.123077 23.133547 99.253846 23.231565 99.384615 23.328845 99.515385 23.425379 99.646154 23.521156 99.776923 23.616167 99.907692 23.710403 100.038462 23.803853 100.169231 23.896509 100.300000 23.988360 100.430769 24.079397 100.561538 24.169611 100.692308 24.258992 100.823077 24.347531 100.953846 24.435217 101.084615 24.522042 101.215385 24.607996 101.346154 24.693068 101.476923 24.777253 101.607692 24.860551 101.738462 24.942965 101.869231 25.024499 102.000000 25.105157 102.130769 25.184941 102.261538 25.263855 102.392308 25.341903 102.523077 25.419088 102.653846 25.495413 102.784615 25.570882 102.915385 25.645497 103.046154 25.719264 103.176923 25.792184 103.307692 25.864261 103.438462 25.935499 103.569231 26.005902 103.700000 26.075471 103.830769 26.144212 103.961538 26.212127 104.092308 26.279220 104.223077 26.345493 104.353846 26.410952 104.484615 26.475598 104.615385 26.539435 104.746154 26.602467 104.876923 26.664698 105.007692 26.726130 105.138462 26.786766 105.269231 26.846611 105.400000 26.905668 105.530769 26.963940 105.661538 27.021430 105.792308 27.078142 105.923077 27.134080 106.053846 27.189246 106.184615 27.243644 106.315385 27.297278 106.446154 27.350151 106.576923 27.402266 106.707692 27.453626 106.838462 27.504236 106.969231 27.554098 107.100000 27.603217 107.230769 27.651594 107.361538 27.699234 107.492308 27.746141 107.623077 27.792317 107.753846 27.837765 107.884615 27.882491 108.015385 27.926495 108.146154 27.969783 108.276923 28.012358 108.407692 28.054222 108.538462 28.095379 108.669231 28.135834 108.800000 28.175588 108.930769 28.214646 109.061538 28.253011 109.192308 28.290686 109.323077 28.327675 109.453846 28.363981 109.584615 28.399608 109.715385 28.434558 109.846154 28.468836 109.976923 28.502444 110.107692 28.535387 110.238462 28.567667 110.369231 28.599288 110.500000 28.630253 110.630769 28.660566 110.761538 28.690230 110.892308 28.719249 111.023077 28.747625 111.153846 28.775363 111.284615 28.802466 111.415385 28.828936 111.546154 28.854779 111.676923 28.879996 111.807692 28.904591 111.938462 28.928568 112.069231 28.951930 112.200000 28.974681 112.330769 28.996824 112.461538 29.018362 112.592308 29.039299 112.723077 29.059638 112.853846 29.079382 112.984615 29.098535 113.115385 29.117101 113.246154 29.135082 113.376923 29.152482 113.507692 29.169305 113.638462 29.185554 113.769231 29.201232 113.900000 29.216343 114.030769 29.230890 114.161538 29.244877 114.292308 29.258306 114.423077 29.271182 114.553846 29.283508 114.684615 29.295286 114.815385 29.306522 114.946154 29.317217 115.076923 29.327375 115.207692 29.337000 115.338462 29.346095 115.469231 29.354664 115.600000 29.362710 115.730769 29.370236 115.861538 29.377246 115.992308 29.383742 116.123077 29.389730 116.253846 29.395211 116.384615 29.400190 116.515385 29.404669 116.646154 29.408653 116.776923 29.412144 116.907692 29.415145 117.038462 29.417662 117.169231 29.419696 117.300000 29.421251 117.430769 29.422330 117.561538 29.422938 117.692308 29.423077 117.823077 29.422751 117.953846 29.421962 118.084615 29.420716 118.215385 29.419014 118.346154 29.416860 118.476923 29.414259 118.607692 29.411212 118.738462 29.407724 118.869231 29.403798 119.000000 29.399437 119.130769 29.394645 119.261538 29.389425 119.392308 29.383780 119.523077 29.377715 119.653846 29.371232 119.784615 29.364334 119.915385 29.357026 120.046154 29.349310 120.176923 29.341190 120.307692 29.332670 120.438462 29.323752 120.569231 29.314440 120.700000 29.304738 120.830769 29.294649 120.961538 29.284176 121.092308 29.273323 121.223077 29.262093 121.353846 29.250490 121.484615 29.238516 121.615385 29.226176 121.746154 29.213473 121.876923 29.200409 122.007692 29.186990 122.138462 29.173217 122.269231 29.159094 122.400000 29.144626 122.530769 29.129814 122.661538 29.114663 122.792308 29.099176 122.923077 29.083356 123.053846 29.067207 123.184615 29.050732 123.315385 29.033935 123.446154 29.016818 123.576923 28.999386 123.707692 28.981642 123.838462 28.963588 123.969231 28.945230 124.100000 28.926569 124.230769 28.907609 124.361538 28.888355 124.492308 28.868808 124.623077 28.848973 124.753846 28.828853 124.884615 28.808452 125.015385 28.787772 125.146154 28.766817 125.276923 28.745590 125.407692 28.724096 125.538462 28.702337 125.669231 28.680317 125.800000 28.658039 125.930769 28.635506 126.061538 28.612723 126.192308 28.589691 126.323077 28.566416 126.453846 28.542899 126.584615 28.519146 126.715385 28.495158 126.846154 28.470939 126.976923 28.446493 127.107692 28.421824 127.238462 28.396933 127.369231 28.371826 127.500000 28.346506 127.630769 28.320974 127.761538 28.295237 127.892308 28.269295 128.023077 28.243154 128.153846 28.216816 128.284615 28.190284 128.415385 28.163563 128.546154 28.136655 128.676923 28.109565 128.807692 28.082294 128.938462 28.054848 129.069231 28.027228 129.200000 27.999440 129.330769 27.971485 129.461538 27.943367 129.592308 27.915090 129.723077 27.886657 129.853846 27.858072 129.984615 27.829338 130.115385 27.800458 130.246154 27.771436 130.376923 27.742275 130.507692 27.712979 130.638462 27.683551 130.769231 27.653993 130.900000 27.624311 131.030769 27.594507 131.161538 27.564584 131.292308 27.534547 131.423077 27.504397 131.553846 27.474140 131.684615 27.443778 131.815385 27.413314 131.946154 27.382752 132.076923 27.352095 132.207692 27.321348 132.338462 27.290512 132.469231 27.259592 132.600000 27.228591 132.730769 27.197512 132.861538 27.166359 132.992308 27.135135 133.123077 27.103844 133.253846 27.072489 133.384615 27.041073 133.515385 27.009600 133.646154 26.978073 133.776923 26.946495 133.907692 26.914871 134.038462 26.883203 134.169231 26.851494 134.300000 26.819745 134.430769 26.787956 134.561538 26.756127 134.692308 26.724259 134.823077 26.692351 134.953846 26.660404 135.084615 26.628418 135.215385 26.596393 135.346154 26.564329 135.476923 26.532227 135.607692 26.500086 135.738462 26.467906 135.869231 26.435689 136.000000 26.403434 136.130769 26.371140 136.261538 26.338810 136.392308 26.306441 136.523077 26.274035 136.653846 26.241593 136.784615 26.209113 136.915385 26.176596 137.046154 26.144042 137.176923 26.111452 137.307692 26.078826 137.438462 26.046163 137.569231 26.013465 137.700000 25.980730 137.830769 25.947960 137.961538 25.915154 138.092308 25.882313 138.223077 25.849436 138.353846 25.816525 138.484615 25.783578 138.615385 25.750597 138.746154 25.717581 138.876923 25.684531 139.007692 25.651446 139.138462 25.618327 139.269231 25.585174 139.400000 25.551988 139.530769 25.518768 139.661538 25.485514 139.792308 25.452227 139.923077 25.418907 140.053846 25.385554 140.184615 25.352168 140.315385 25.318749 140.446154 25.285298 140.576923 25.251815 140.707692 25.218299 140.838462 25.184751 140.969231 25.151172 141.100000 25.117560 141.230769 25.083917 141.361538 25.050243 141.492308 25.016538 141.623077 24.982801 141.753846 24.949034 141.884615 24.915236 142.015385 24.881407 142.146154 24.847548 142.276923 24.813658 142.407692 24.779739 142.538462 24.745789 142.669231 24.711810 142.800000 24.677801 142.930769 24.643763 143.061538 24.609695 143.192308 24.575598 143.323077 24.541473 143.453846 24.507318 143.584615 24.473135 143.715385 24.438923 143.846154 24.404683 143.976923 24.370415 144.107692 24.336119 144.238462 24.301795 144.369231 24.267443 144.500000 24.233064 144.630769 24.198657 144.761538 24.164224 144.892308 24.129763 145.023077 24.095275 145.153846 24.060761 145.284615 24.026220 145.415385 23.991652 145.546154 23.957059 145.676923 23.922439 145.807692 23.887793 145.938462 23.853122 146.069231 23.818425 146.200000 23.783702 146.330769 23.748955 146.461538 23.714182 146.592308 23.679384 146.723077 23.644562 146.853846 23.609715 146.984615 23.574843 147.115385 23.539947 147.246154 23.505027 147.376923 23.470083 147.507692 23.435115 147.638462 23.400124 147.769231 23.365109 147.900000 23.330070 148.030769 23.295009 148.161538 23.259924 148.292308 23.224817 148.423077 23.189687 148.553846 23.154534 148.684615 23.119359 148.815385 23.084162 148.946154 23.048942 149.076923 23.013701 149.207692 22.978438 149.338462 22.943154 149.469231 22.907848 149.600000 22.872521 149.730769 22.837173 149.861538 22.801804 149.992308 22.766414 150.123077 22.731003 150.253846 22.695572 150.384615 22.660121 150.515385 22.624650 150.646154 22.589158 150.776923 22.553647 150.907692 22.518117 151.038462 22.482566 151.169231 22.446997 151.300000 22.411408 151.430769 22.375800 151.561538 22.340174 151.692308 22.304529 151.823077 22.268865 151.953846 22.233183 152.084615 22.197483 152.215385 22.161765 152.346154 22.126028 152.476923 22.090275 152.607692 22.054503 152.738462 22.018714 152.869231 21.982908 153.000000 21.947085 153.130769 21.911246 153.261538 21.875389 153.392308 21.839516 153.523077 21.803626 153.653846 21.767720 153.784615 21.731798 153.915385 21.695860 154.046154 21.659906 154.176923 21.623937 154.307692 21.587952 154.438462 21.551952 154.569231 21.515937 154.700000 21.479907 154.830769 21.443862 154.961538 21.407802 155.092308 21.371728 155.223077 21.335639 155.353846 21.299537 155.484615 21.263420 155.615385 21.227290 155.746154 21.191145 155.876923 21.154988 156.007692 21.118817 156.138462 21.082633 156.269231 21.046435 156.400000 21.010225 156.530769 20.974002 156.661538 20.937767 156.792308 20.901519 156.923077 20.865259 157.053846 20.828987 157.184615 20.792703 157.315385 20.756407 157.446154 20.720100 157.576923 20.683781 157.707692 20.647451 157.838462 20.611110 157.969231 20.574758 158.100000 20.538395 158.230769 20.502021 158.361538 20.465637 158.492308 20.429243 158.623077 20.392838 158.753846 20.356424 158.884615 20.320000 159.015385 20.283566 159.146154 20.247123 159.276923 20.210670 159.407692 20.174208 159.538462 20.137737 159.669231 20.101257 159.800000 20.064769 159.930769 20.028272 160.061538 19.991767 160.192308 19.955253 160.323077 19.918731 160.453846 19.882202 160.584615 19.845665 160.715385 19.809120 160.846154 19.772568 160.976923 19.736008 161.107692 19.699442 161.238462 19.662868 161.369231 19.626288 161.500000 19.589701 161.630769 19.553108 161.761538 19.516509 161.892308 19.479903 162.023077 19.443291 162.153846 19.406674 162.284615 19.370051 162.415385 19.333423 162.546154 19.296789 162.676923 19.260150 162.807692 19.223506 162.938462 19.186857 163.069231 19.150204 163.200000 19.113546 163.330769 19.076884 163.461538 19.040217 163.592308 19.003547 163.723077 18.966872 163.853846 18.930194 163.984615 18.893513 164.115385 18.856828 164.246154 18.820139 164.376923 18.783448 164.507692 18.746754 164.638462 18.710057 164.769231 18.673358 164.900000 18.636656 165.030769 18.599952 165.161538 18.563245 165.292308 18.526537 165.423077 18.489827 165.553846 18.453116 165.684615 18.416403 165.815385 18.379689 165.946154 18.342973 166.076923 18.306257 166.207692 18.269540 166.338462 18.232822 166.469231 18.196104 166.600000 18.159385 166.730769 18.122666" class="line reactive nofill" /></g></g><g class="titles" /><g transform="translate(20, 10)" class="plot overlay"><g class="series serie-0 color-0" /></g><g transform="translate(20, 10)" class="plot text-overlay"><g class="series serie-0 color-0" /></g><g transform="translate(20, 10)" class="plot tooltip-overlay"><g transform="translate(0 0)" style="opacity: 0" class="tooltip"><rect rx="0" ry="0" width="0" height="0" class="tooltip-box" /><g class="text" /></g></g></g></svg>