<?xml version='1.0' encoding='utf-8'?>
<svg xmlns="http://www.w3.org/2000/svg" id="chart-3c630c53-abc9-40f8-ac4a-52e3aa84e929" class="pygal-chart pygal-sparkline" viewBox="0 0 200 50" width="200" height="50"><!--Generated with pygal 3.0.4 (etree) ©Kozea 2012-2016 on 2024-05-12--><!--http://pygal.org--><!--http://github.com/Kozea/pygal--><defs><style type="text/css">#chart-3c630c53-abc9-40f8-ac4a-52e3aa84e929{-webkit-user-select:none;-webkit-font-smoothing:antialiased;font-family:Consolas,"Liberation Mono",Menlo,Courier,monospace}#chart-3c630c53-abc9-40f8-ac4a-52e3aa84e929 .title{font-family:Consolas,"Liberation Mono",Menlo,Courier,monospace;font-size:16px}#chart-3c630c53-abc9-40f8-ac4a-52e3aa84e929 .legends .legend text{font-family:Consolas,"Liberation Mono",Menlo,Courier,monospace;font-size:14px}#chart-3c630c53-abc9-40f8-ac4a-52e3aa84e929 .axis text{font-family:Consolas,"Liberation Mono",Menlo,Courier,monospace;font-size:10px}#chart-3c630c53-abc9-40f8-ac4a-52e3aa84e929 .axis text.major{font-family:Consolas,"Liberation Mono",Menlo,Courier,monospace;font-size:10px}#chart-3c630c53-abc9-40f8-ac4a-52e3aa84e929 .text-overlay text.value{font-family:Consolas,"Liberation Mono",Menlo,Courier,monospace;font-size:16px}#chart-3c630c53-abc9-40f8-ac4a-52e3aa84e929 .text-overlay text.label{font-family:Consolas,"Liberation Mono",Menlo,Courier,monospace;font-size:10px}#chart-3c630c53-abc9-40f8-ac4a-52e3aa84e929 .tooltip{font-family:Consolas,"Liberation Mono",Menlo,Courier,monospace;font-size:14px}#chart-3c630c53-abc9-40f8-ac4a-52e3aa84e929 text.no_data{font-family:Consolas,"Liberation Mono",Menlo,Courier,monospace;font-size:64px}
#chart-3c630c53-abc9-40f8-ac4a-52e3aa84e929{background-color:rgba(249,249,249,1)}#chart-3c630c53-abc9-40f8-ac4a-52e3aa84e929 path,#chart-3c630c53-abc9-40f8-ac4a-52e3aa84e929 line,#chart-3c630c53-abc9-40f8-ac4a-52e3aa84e929 rect,#chart-3c630c53-abc9-40f8-ac4a-52e3aa84e929 circle{-webkit-transition:150ms;-moz-transition:150ms;transition:150ms}#chart-3c630c53-abc9-40f8-ac4a-52e3aa84e929 .graph &gt; .background{fill:rgba(249,249,249,1)}#chart-3c630c53-abc9-40f8-ac4a-52e3aa84e929 .plot &gt; .background{fill:rgba(255,255,255,1)}#chart-3c630c53-abc9-40f8-ac4a-52e3aa84e929 .graph{fill:rgba(0,0,0,.87)}#chart-3c630c53-abc9-40f8-ac4a-52e3aa84e929 text.no_data{fill:rgba(0,0,0,1)}#chart-3c630c53-abc9-40f8-ac4a-52e3aa84e929 .title{fill:rgba(0,0,0,1)}#chart-3c630c53-abc9-40f8-ac4a-52e3aa84e929 .legends .legend text{fill:rgba(0,0,0,.87)}#chart-3c630c53-abc9-40f8-ac4a-52e3aa84e929 .legends .legend:hover text{fill:rgba(0,0,0,1)}#chart-3c630c53-abc9-40f8-ac4a-52e3aa84e929 .axis .line{stroke:rgba(0,0,0,1)}#chart-3c630c53-abc9-40f8-ac4a-52e3aa84e929 .axis .guide.line{stroke:rgba(0,0,0,.54)}#chart-3c630c53-abc9-40f8-ac4a-52e3aa84e929 .axis .major.line{stroke:rgba(0,0,0,.87)}#chart-3c630c53-abc9-40f8-ac4a-52e3aa84e929 .axis text.major{fill:rgba(0,0,0,1)}#chart-3c630c53-abc9-40f8-ac4a-52e3aa84e929 .axis.y .guides:hover .guide.line,#chart-3c630c53-abc9-40f8-ac4a-52e3aa84e929 .line-graph .axis.x .guides:hover .guide.line,#chart-3c630c53-abc9-40f8-ac4a-52e3aa84e929 .stackedline-graph .axis.x .guides:hover .guide.line,#chart-3c630c53-abc9-40f8-ac4a-52e3aa84e929 .xy-graph .axis.x .guides:hover .guide.line{stroke:rgba(0,0,0,1)}#chart-3c630c53-abc9-40f8-ac4a-52e3aa84e929 .axis .guides:hover text{fill:rgba(0,0,0,1)}#chart-3c630c53-abc9-40f8-ac4a-52e3aa84e929 .reactive{fill-opacity:.7;stroke-opacity:.8;stroke-width:1}#chart-3c630c53-abc9-40f8-ac4a-52e3aa84e929 .ci{stroke:rgba(0,0,0,.87)}#chart-3c630c53-abc9-40f8-ac4a-52e3aa84e929 .reactive.active,#chart-3c630c53-abc9-40f8-ac4a-52e3aa84e929 .active .reactive{fill-opacity:.8;stroke-opacity:.9;stroke-width:4}#chart-3c630c53-abc9-40f8-ac4a-52e3aa84e929 .ci .reactive.active{stroke-width:1.5}#chart-3c630c53-abc9-40f8-ac4a-52e3aa84e929 .series text{fill:rgba(0,0,0,1)}#chart-3c630c53-abc9-40f8-ac4a-52e3aa84e929 .tooltip rect{fill:rgba(255,255,255,1);stroke:rgba(0,0,0,1);-webkit-transition:opacity 150ms;-moz-transition:opacity 150ms;transition:opacity 150ms}#chart-3c630c53-abc9-40f8-ac4a-52e3aa84e929 .tooltip .label{fill:rgba(0,0,0,.87)}#chart-3c630c53-abc9-40f8-ac4a-52e3aa84e929 .tooltip .label{fill:rgba(0,0,0,.87)}#chart-3c630c53-abc9-40f8-ac4a-52e3aa84e929 .tooltip .legend{font-size:.8em;fill:rgba(0,0,0,.54)}#chart-3c630c53-abc9-40f8-ac4a-52e3aa84e929 .tooltip .x_label{font-size:.6em;fill:rgba(0,0,0,1)}#chart-3c630c53-abc9-40f8-ac4a-52e3aa84e929 .tooltip .xlink{font-size:.5em;text-decoration:underline}#chart-3c630c53-abc9-40f8-ac4a-52e3aa84e929 .tooltip .value{font-size:1.5em}#chart-3c630c53-abc9-40f8-ac4a-52e3aa84e929 .bound{font-size:.5em}#chart-3c630c53-abc9-40f8-ac4a-52e3aa84e929 .max-value{font-size:.75em;fill:rgba(0,0,0,.54)}#chart-3c630c53-abc9-40f8-ac4a-52e3aa84e929 .map-element{fill:rgba(255,255,255,1);stroke:rgba(0,0,0,.54) !important}#chart-3c630c53-abc9-40f8-ac4a-52e3aa84e929 .map-element .reactive{fill-opacity:inherit;stroke-opacity:inherit}#chart-3c630c53-abc9-40f8-ac4a-52e3aa84e929 .color-0,#chart-3c630c53-abc9-40f8-ac4a-52e3aa84e929 .color-0 a:visited{stroke:#F44336;fill:#F44336}#chart-3c630c53-abc9-40f8-ac4a-52e3aa84e929 .text-overlay .color-0 text{fill:black}
#chart-3c630c53-abc9-40f8-ac4a-52e3aa84e929 text.no_data{text-anchor:middle}#chart-3c630c53-abc9-40f8-ac4a-52e3aa84e929 .guide.line{fill:none}#chart-3c630c53-abc9-40f8-ac4a-52e3aa84e929 .centered{text-anchor:middle}#chart-3c630c53-abc9-40f8-ac4a-52e3aa84e929 .title{text-anchor:middle}#chart-3c630c53-abc9-40f8-ac4a-52e3aa84e929 .legends .legend text{fill-opacity:1}#chart-3c630c53-abc9-40f8-ac4a-52e3aa84e929 .axis.x text{text-anchor:middle}#chart-3c630c53-abc9-40f8-ac4a-52e3aa84e929 .axis.x:not(.web) text[transform]{text-anchor:start}#chart-3c630c53-abc9-40f8-ac4a-52e3aa84e929 .axis.x:not(.web) text[transform].backwards{text-anchor:end}#chart-3c630c53-abc9-40f8-ac4a-52e3aa84e929 .axis.y text{text-anchor:end}#chart-3c630c53-abc9-40f8-ac4a-52e3aa84e929 .axis.y text[transform].backwards{text-anchor:start}#chart-3c630c53-abc9-40f8-ac4a-52e3aa84e929 .axis.y2 text{text-anchor:start}#chart-3c630c53-abc9-40f8-ac4a-52e3aa84e929 .axis.y2 text[transform].backwards{text-anchor:end}#chart-3c630c53-abc9-40f8-ac4a-52e3aa84e929 .axis .guide.line{stroke-dasharray:4,4;stroke:black}#chart-3c630c53-abc9-40f8-ac4a-52e3aa84e929 .axis .major.guide.line{stroke-dasharray:6,6;stroke:black}#chart-3c630c53-abc9-40f8-ac4a-52e3aa84e929 .horizontal .axis.y .guide.line,#chart-3c630c53-abc9-40f8-ac4a-52e3aa84e929 .horizontal .axis.y2 .guide.line,#chart-3c630c53-abc9-40f8-ac4a-52e3aa84e929 .vertical .axis.x .guide.line{opacity:0}#chart-3c630c53-abc9-40f8-ac4a-52e3aa84e929 .horizontal .axis.always_show .guide.line,#chart-3c630c53-abc9-40f8-ac4a-52e3aa84e929 .vertical .axis.always_show .guide.line{opacity:1 !important}#chart-3c630c53-abc9-40f8-ac4a-52e3aa84e929 .axis.y .guides:hover .guide.line,#chart-3c630c53-abc9-40f8-ac4a-52e3aa84e929 .axis.y2 .guides:hover .guide.line,#chart-3c630c53-abc9-40f8-ac4a-52e3aa84e929 .axis.x .guides:hover .guide.line{opacity:1}#chart-3c630c53-abc9-40f8-ac4a-52e3aa84e929 .axis .guides:hover text{opacity:1}#chart-3c630c53-abc9-40f8-ac4a-52e3aa84e929 .nofill{fill:none}#chart-3c630c53-abc9-40f8-ac4a-52e3aa84e929 .subtle-fill{fill-opacity:.2}#chart-3c630c53-abc9-40f8-ac4a-52e3aa84e929 .dot{stroke-width:1px;fill-opacity:1;stroke-opacity:1}#chart-3c630c53-abc9-40f8-ac4a-52e3aa84e929 .dot.active{stroke-width:5px}#chart-3c630c53-abc9-40f8-ac4a-52e3aa84e929 .dot.negative{fill:transparent}#chart-3c630c53-abc9-40f8-ac4a-52e3aa84e929 text,#chart-3c630c53-abc9-40f8-ac4a-52e3aa84e929 tspan{stroke:none !important}#chart-3c630c53-abc9-40f8-ac4a-52e3aa84e929 .series text.active{opacity:1}#chart-3c630c53-abc9-40f8-ac4a-52e3aa84e929 .tooltip rect{fill-opacity:.95;stroke-width:.5}#chart-3c630c53-abc9-40f8-ac4a-52e3aa84e929 .tooltip text{fill-opacity:1}#chart-3c630c53-abc9-40f8-ac4a-52e3aa84e929 .showable{visibility:hidden}#chart-3c630c53-abc9-40f8-ac4a-52e3aa84e929 .showable.shown{visibility:visible}#chart-3c630c53-abc9-40f8-ac4a-52e3aa84e929 .gauge-background{fill:rgba(229,229,229,1);stroke:none}#chart-3c630c53-abc9-40f8-ac4a-52e3aa84e929 .bg-lines{stroke:rgba(249,249,249,1);stroke-width:2px}</style><script type="text/javascript">window.pygal = window.pygal || {};window.pygal.config = window.pygal.config || {};window.pygal.config['3c630c53-abc9-40f8-ac4a-52e3aa84e929'] = {"allow_interruptions": false, "box_mode": "extremes", "classes": ["pygal-chart", "pygal-sparkline"], "css": ["file://style.css", "file://graph.css"], "defs": [], "disable_xml_declaration": false, "dots_size": 2.5, "dynamic_print_values": false, "explicit_size": true, "fill": false, "force_uri_protocol": "https", "formatter": null, "half_pie": false, "height": 50, "include_x_axis": false, "inner_radius": 0, "interpolate": "cubic", "interpolation_parameters": {}, "interpolation_precision": 250, "inverse_y_axis": false, "js": [], "legend_at_bottom": false, "legend_at_bottom_columns": null, "legend_box_size": 12, "logarithmic": false, "margin": 10, "margin_bottom": null, "margin_left": null, "margin_right": null, "margin_top": null, "max_scale": 2, "min_scale": 1, "missing_value_fill_truncation": "x", "no_data_text": "", "no_prefix": false, "order_min": null, "pretty_print": false, "print_labels": false, "print_values": false, "print_values_position": "center", "print_zeroes": true, "range": null, "rounded_bars": null, "secondary_range": null, "show_dots": false, "show_legend": false, "show_minor_x_labels": true, "show_minor_y_labels": true, "show_only_major_dots": false, "show_x_guides": false, "show_x_labels": false, "show_y_guides": true, "show_y_labels": true, "spacing": 0, "stack_from_top": false, "strict": false, "stroke": true, "stroke_style": null, "style": {"background": "rgba(249, 249, 249, 1)", "ci_colors": [], "colors": ["#F44336", "#3F51B5", "#009688", "#FFC107", "#FF5722", "#9C27B0", "#03A9F4", "#8BC34A", "#FF9800", "#E91E63", "#2196F3", "#4CAF50", "#FFEB3B", "#673AB7", "#00BCD4", "#CDDC39", "#9E9E9E", "#607D8B"], "dot_opacity": "1", "font_family": "Consolas, \"Liberation Mono\", Menlo, Courier, monospace", "foreground": "rgba(0, 0, 0, .87)", "foreground_strong": "rgba(0, 0, 0, 1)", "foreground_subtle": "rgba(0, 0, 0, .54)", "guide_stroke_color": "black", "guide_stroke_dasharray": "4,4", "label_font_family": "Consolas, \"Liberation Mono\", Menlo, Courier, monospace", "label_font_size": 10, "legend_font_family": "Consolas, \"Liberation Mono\", Menlo, Courier, monospace", "legend_font_size": 14, "major_guide_stroke_color": "black", "major_guide_stroke_dasharray": "6,6", "major_label_font_family": "Consolas, \"Liberation Mono\", Menlo, Courier, monospace", "major_label_font_size": 10, "no_data_font_family": "Consolas, \"Liberation Mono\", Menlo, Courier, monospace", "no_data_font_size": 64, "opacity": ".7", "opacity_hover": ".8", "plot_background": "rgba(255, 255, 255, 1)", "stroke_opacity": ".8", "stroke_opacity_hover": ".9", "stroke_width": "1", "stroke_width_hover": "4", "title_font_family": "Consolas, \"Liberation Mono\", Menlo, Courier, monospace", "title_font_size": 16, "tooltip_font_family": "Consolas, \"Liberation Mono\", Menlo, Courier, monospace", "tooltip_font_size": 14, "transition": "150ms", "value_background": "rgba(229, 229, 229, 1)", "value_colors": [], "value_font_family": "Consolas, \"Liberation Mono\", Menlo, Courier, monospace", "value_font_size": 16, "value_label_font_family": "Consolas, \"Liberation Mono\", Menlo, Courier, monospace", "value_label_font_size": 10}, "title": null, "tooltip_border_radius": 0, "tooltip_fancy_mode": true, "truncate_label": null, "truncate_legend": null, "width": 200, "x_label_rotation": 0, "x_labels": ["2023/11", "2023/5", "2023/4", "2022/12", "2022/11", "2022/10", "2022/9", "2022/8"], "x_labels_major": null, "x_labels_major_count": null, "x_labels_major_every": null, "x_title": null, "xrange": null, "y_label_rotation": 0, "y_labels": null, "y_labels_major": null, "y_labels_major_count": null, "y_labels_major_every": null, "y_title": null, "zero": 0, "legends": [""]}</script></defs><title>Pygal</title><g class="graph line-graph vertical"><rect x="0" y="0" width="200" height="50" class="background" /><g transform="translate(20, 10)" class="plot"><rect x="0" y="0" width="170" height="30" class="background" /><g class="axis y always_show"><path d="M0.000000 30.000000 h170.000000" class="line" /><g class="guides"><path d="M0.000000 29.422277 h170.000000" class="guide line" /><text x="-5" y="32.92227708910845" class="">2</text><title>2</title></g><g class="guides"><path d="M0.000000 11.337754 h170.000000" class="guide line" /><text x="-5" y="14.837753863991761" class="">4</text><title>4</title></g></g><g class="series serie-0 color-0"><path d="M3.269231 20.380015 L3.362637 20.240770 3.456044 20.101531 3.549451 19.962305 3.642857 19.823098 3.736264 19.683917 3.829670 19.544768 3.923077 19.405657 4.016484 19.266592 4.109890 19.127578 4.203297 18.988621 4.296703 18.849729 4.390110 18.710908 4.483516 18.572163 4.576923 18.433502 4.670330 18.294931 4.763736 18.156457 4.857143 18.018085 4.950549 17.879822 5.043956 17.741675 5.137363 17.603650 5.230769 17.465754 5.324176 17.327992 5.417582 17.190372 5.510989 17.052899 5.604396 16.915581 5.697802 16.778423 5.791209 16.641432 5.884615 16.504614 5.978022 16.367977 6.071429 16.231525 6.164835 16.095267 6.258242 15.959207 6.351648 15.823353 6.445055 15.687711 6.538462 15.552288 6.631868 15.417089 6.725275 15.282121 6.818681 15.147392 6.912088 15.012906 7.005495 14.878670 7.098901 14.744692 7.192308 14.610977 7.285714 14.477532 7.379121 14.344363 7.472527 14.211476 7.565934 14.078879 7.659341 13.946577 7.752747 13.814577 7.846154 13.682885 7.939560 13.551508 8.032967 13.420452 8.126374 13.289724 8.219780 13.159330 8.313187 13.029276 8.406593 12.899569 8.500000 12.770216 8.593407 12.641222 8.686813 12.512594 8.780220 12.384338 8.873626 12.256462 8.967033 12.128971 9.060440 12.001872 9.153846 11.875171 9.247253 11.748875 9.340659 11.622990 9.434066 11.497522 9.527473 11.372478 9.620879 11.247865 9.714286 11.123688 9.807692 10.999955 9.901099 10.876671 9.994505 10.753844 10.087912 10.631478 10.181319 10.509582 10.274725 10.388161 10.368132 10.267222 10.461538 10.146771 10.554945 10.026814 10.648352 9.907359 10.741758 9.788411 10.835165 9.669976 10.928571 9.552062 11.021978 9.434675 11.115385 9.317821 11.208791 9.201506 11.302198 9.085738 11.395604 8.970522 11.489011 8.855864 11.582418 8.741772 11.675824 8.628252 11.769231 8.515309 11.862637 8.402951 11.956044 8.291185 12.049451 8.180015 12.142857 8.069449 12.236264 7.959494 12.329670 7.850155 12.423077 7.741439 12.516484 7.633352 12.609890 7.525902 12.703297 7.419093 12.796703 7.312934 12.890110 7.207430 12.983516 7.102587 13.076923 6.998412 13.170330 6.894912 13.263736 6.792093 13.357143 6.689960 13.450549 6.588522 13.543956 6.487784 13.637363 6.387752 13.730769 6.288433 13.824176 6.189834 13.917582 6.091960 14.010989 5.994819 14.104396 5.898416 14.197802 5.802759 14.291209 5.707853 14.384615 5.613705 14.478022 5.520321 14.571429 5.427708 14.664835 5.335872 14.758242 5.244820 14.851648 5.154558 14.945055 5.065093 15.038462 4.976430 15.131868 4.888577 15.225275 4.801539 15.318681 4.715324 15.412088 4.629937 15.505495 4.545385 15.598901 4.461674 15.692308 4.378812 15.785714 4.296804 15.879121 4.215656 15.972527 4.135376 16.065934 4.055969 16.159341 3.977442 16.252747 3.899802 16.346154 3.823054 16.439560 3.747206 16.532967 3.672263 16.626374 3.598232 16.719780 3.525120 16.813187 3.452933 16.906593 3.381677 17.000000 3.311359 17.093407 3.241986 17.186813 3.173562 17.280220 3.106096 17.373626 3.039594 17.467033 2.974061 17.560440 2.909505 17.653846 2.845931 17.747253 2.783347 17.840659 2.721758 17.934066 2.661171 18.027473 2.601592 18.120879 2.543029 18.214286 2.485487 18.307692 2.428972 18.401099 2.373492 18.494505 2.319052 18.587912 2.265659 18.681319 2.213320 18.774725 2.162040 18.868132 2.111827 18.961538 2.062686 19.054945 2.014624 19.148352 1.967648 19.241758 1.921764 19.335165 1.876978 19.428571 1.833298 19.521978 1.790728 19.615385 1.749276 19.708791 1.708948 19.802198 1.669750 19.895604 1.631689 19.989011 1.594772 20.082418 1.559004 20.175824 1.524393 20.269231 1.490944 20.362637 1.458665 20.456044 1.427560 20.549451 1.397638 20.642857 1.368904 20.736264 1.341364 20.829670 1.315026 20.923077 1.289895 21.016484 1.265978 21.109890 1.243282 21.203297 1.221812 21.296703 1.201576 21.390110 1.182580 21.483516 1.164829 21.576923 1.148331 21.670330 1.133092 21.763736 1.119118 21.857143 1.106417 21.950549 1.094993 22.043956 1.084854 22.137363 1.076006 22.230769 1.068456 22.324176 1.062209 22.417582 1.057273 22.510989 1.053654 22.604396 1.051357 22.697802 1.050391 22.791209 1.050760 22.884615 1.052472 22.978022 1.055533 23.071429 1.059949 23.164835 1.065726 23.258242 1.072872 23.351648 1.081393 23.445055 1.091294 23.538462 1.102583 23.631868 1.115265 23.725275 1.129348 23.818681 1.144838 23.912088 1.161741 24.005495 1.180063 24.098901 1.199811 24.192308 1.220992 24.285714 1.243611 24.379121 1.267676 24.472527 1.293192 24.565934 1.320166 24.659341 1.348605 24.752747 1.378515 24.846154 1.409902 24.939560 1.442772 25.032967 1.477133 25.126374 1.512991 25.219780 1.550352 25.313187 1.589222 25.406593 1.629608 25.500000 1.671516 25.593407 1.714953 25.686813 1.759925 25.780220 1.806439 25.873626 1.854500 25.967033 1.904116 26.060440 1.955293 26.153846 2.008038 26.247253 2.062355 26.340659 2.118253 26.434066 2.175738 26.527473 2.234815 26.620879 2.295492 26.714286 2.357771 26.807692 2.421642 26.901099 2.487088 26.994505 2.554096 27.087912 2.622651 27.181319 2.692738 27.274725 2.764342 27.368132 2.837448 27.461538 2.912043 27.554945 2.988110 27.648352 3.065636 27.741758 3.144605 27.835165 3.225003 27.928571 3.306814 28.021978 3.390025 28.115385 3.474621 28.208791 3.560586 28.302198 3.647907 28.395604 3.736567 28.489011 3.826553 28.582418 3.917850 28.675824 4.010442 28.769231 4.104316 28.862637 4.199456 28.956044 4.295848 29.049451 4.393477 29.142857 4.492328 29.236264 4.592386 29.329670 4.693637 29.423077 4.796066 29.516484 4.899658 29.609890 5.004399 29.703297 5.110273 29.796703 5.217266 29.890110 5.325363 29.983516 5.434550 30.076923 5.544811 30.170330 5.656132 30.263736 5.768499 30.357143 5.881895 30.450549 5.996307 30.543956 6.111720 30.637363 6.228119 30.730769 6.345490 30.824176 6.463817 30.917582 6.583086 31.010989 6.703282 31.104396 6.824390 31.197802 6.946396 31.291209 7.069285 31.384615 7.193041 31.478022 7.317651 31.571429 7.443100 31.664835 7.569372 31.758242 7.696454 31.851648 7.824329 31.945055 7.952984 32.038462 8.082404 32.131868 8.212574 32.225275 8.343480 32.318681 8.475105 32.412088 8.607437 32.505495 8.740459 32.598901 8.874158 32.692308 9.008518 32.785714 9.143525 32.879121 9.279164 32.972527 9.415421 33.065934 9.552279 33.159341 9.689726 33.252747 9.827745 33.346154 9.966322 33.439560 10.105443 33.532967 10.245093 33.626374 10.385257 33.719780 10.525920 33.813187 10.667067 33.906593 10.808684 34.000000 10.950756 34.093407 11.093268 34.186813 11.236205 34.280220 11.379553 34.373626 11.523297 34.467033 11.667422 34.560440 11.811914 34.653846 11.956757 34.747253 12.101937 34.840659 12.247439 34.934066 12.393248 35.027473 12.539350 35.120879 12.685730 35.214286 12.832374 35.307692 12.979265 35.401099 13.126390 35.494505 13.273734 35.587912 13.421282 35.681319 13.569019 35.774725 13.716931 35.868132 13.865003 35.961538 14.013220 36.054945 14.161567 36.148352 14.310029 36.241758 14.458593 36.335165 14.607242 36.428571 14.755963 36.521978 14.904740 36.615385 15.053560 36.708791 15.202406 36.802198 15.351264 36.895604 15.500120 36.989011 15.648959 37.082418 15.797765 37.175824 15.946525 37.269231 16.095224 37.362637 16.243846 37.456044 16.392377 37.549451 16.540803 37.642857 16.689108 37.736264 16.837277 37.829670 16.985297 37.923077 17.133152 38.016484 17.280827 38.109890 17.428308 38.203297 17.575580 38.296703 17.722628 38.390110 17.869438 38.483516 18.015994 38.576923 18.162282 38.670330 18.308287 38.763736 18.453995 38.857143 18.599391 38.950549 18.744459 39.043956 18.889186 39.137363 19.033556 39.230769 19.177554 39.324176 19.321167 39.417582 19.464378 39.510989 19.607174 39.604396 19.749540 39.697802 19.891460 39.791209 20.032921 39.884615 20.173907 39.978022 20.314403 40.071429 20.454396 40.164835 20.593869 40.258242 20.732809 40.351648 20.871201 40.445055 21.009029 40.538462 21.146279 40.631868 21.282937 40.725275 21.418987 40.818681 21.554415 40.912088 21.689206 41.005495 21.823346 41.098901 21.956819 41.192308 22.089611 41.285714 22.221707 41.379121 22.353092 41.472527 22.483751 41.565934 22.613671 41.659341 22.742835 41.752747 22.871230 41.846154 22.998840 41.939560 23.125651 42.032967 23.251648 42.126374 23.376816 42.219780 23.501141 42.313187 23.624607 42.406593 23.747201 42.500000 23.868906 42.593407 23.989709 42.686813 24.109595 42.780220 24.228549 42.873626 24.346556 42.967033 24.463601 43.060440 24.579671 43.153846 24.694749 43.247253 24.808821 43.340659 24.921873 43.434066 25.033889 43.527473 25.144855 43.620879 25.254757 43.714286 25.363579 43.807692 25.471306 43.901099 25.577925 43.994505 25.683419 44.087912 25.787775 44.181319 25.890978 44.274725 25.993012 44.368132 26.093864 44.461538 26.193518 44.554945 26.291960 44.648352 26.389174 44.741758 26.485147 44.835165 26.579863 44.928571 26.673307 45.021978 26.765466 45.115385 26.856323 45.208791 26.945865 45.302198 27.034076 45.395604 27.120943 45.489011 27.206449 45.582418 27.290580 45.675824 27.373323 45.769231 27.454661 45.862637 27.534580 45.956044 27.613065 46.049451 27.690102 46.142857 27.765675 46.236264 27.839771 46.329670 27.912374 46.423077 27.983470 46.516484 28.053043 46.609890 28.121079 46.703297 28.187564 46.796703 28.252482 46.890110 28.315818 46.983516 28.377559 47.076923 28.437689 47.170330 28.496193 47.263736 28.553058 47.357143 28.608267 47.450549 28.661806 47.543956 28.713661 47.637363 28.763817 47.730769 28.812258 47.824176 28.858971 47.917582 28.903940 48.010989 28.947151 48.104396 28.988588 48.197802 29.028238 48.291209 29.066086 48.384615 29.102116 48.478022 29.136314 48.571429 29.168665 48.664835 29.199154 48.758242 29.227768 48.851648 29.254490 48.945055 29.279306 49.038462 29.302201 49.131868 29.323162 49.225275 29.342172 49.318681 29.359217 49.412088 29.374282 49.505495 29.387354 49.598901 29.398416 49.692308 29.407454 49.785714 29.414453 49.879121 29.419399 49.972527 29.422277 50.065934 29.423077 50.159341 29.421808 50.252747 29.418485 50.346154 29.413123 50.439560 29.405735 50.532967 29.396336 50.626374 29.384941 50.719780 29.371564 50.813187 29.356219 50.906593 29.338920 51.000000 29.319683 51.093407 29.298521 51.186813 29.275449 51.280220 29.250482 51.373626 29.223633 51.467033 29.194917 51.560440 29.164349 51.653846 29.131943 51.747253 29.097713 51.840659 29.061673 51.934066 29.023839 52.027473 28.984225 52.120879 28.942844 52.214286 28.899711 52.307692 28.854842 52.401099 28.808249 52.494505 28.759948 52.587912 28.709953 52.681319 28.658278 52.774725 28.604938 52.868132 28.549947 52.961538 28.493320 53.054945 28.435071 53.148352 28.375213 53.241758 28.313763 53.335165 28.250734 53.428571 28.186140 53.521978 28.119996 53.615385 28.052317 53.708791 27.983117 53.802198 27.912409 53.895604 27.840209 53.989011 27.766531 54.082418 27.691390 54.175824 27.614799 54.269231 27.536773 54.362637 27.457327 54.456044 27.376475 54.549451 27.294231 54.642857 27.210610 54.736264 27.125626 54.829670 27.039294 54.923077 26.951628 55.016484 26.862642 55.109890 26.772351 55.203297 26.680769 55.296703 26.587910 55.390110 26.493790 55.483516 26.398422 55.576923 26.301821 55.670330 26.204001 55.763736 26.104976 55.857143 26.004762 55.950549 25.903372 56.043956 25.800821 56.137363 25.697123 56.230769 25.592292 56.324176 25.486344 56.417582 25.379292 56.510989 25.271150 56.604396 25.161934 56.697802 25.051658 56.791209 24.940336 56.884615 24.827982 56.978022 24.714610 57.071429 24.600236 57.164835 24.484874 57.258242 24.368538 57.351648 24.251242 57.445055 24.133001 57.538462 24.013829 57.631868 23.893741 57.725275 23.772751 57.818681 23.650873 57.912088 23.528122 58.005495 23.404512 58.098901 23.280058 58.192308 23.154774 58.285714 23.028675 58.379121 22.901774 58.472527 22.774086 58.565934 22.645626 58.659341 22.516409 58.752747 22.386447 58.846154 22.255757 58.939560 22.124352 59.032967 21.992246 59.126374 21.859454 59.219780 21.725991 59.313187 21.591871 59.406593 21.457108 59.500000 21.321717 59.593407 21.185712 59.686813 21.049107 59.780220 20.911917 59.873626 20.774156 59.967033 20.635839 60.060440 20.496981 60.153846 20.357594 60.247253 20.217695 60.340659 20.077296 60.434066 19.936414 60.527473 19.795061 60.620879 19.653253 60.714286 19.511004 60.807692 19.368329 60.901099 19.225240 60.994505 19.081754 61.087912 18.937885 61.181319 18.793646 61.274725 18.649053 61.368132 18.504119 61.461538 18.358860 61.554945 18.213289 61.648352 18.067421 61.741758 17.921270 61.835165 17.774851 61.928571 17.628178 62.021978 17.481265 62.115385 17.334128 62.208791 17.186779 62.302198 17.039235 62.395604 16.891508 62.489011 16.743615 62.582418 16.595568 62.675824 16.447382 62.769231 16.299072 62.862637 16.150652 62.956044 16.002137 63.049451 15.853541 63.142857 15.704878 63.236264 15.556162 63.329670 15.407409 63.423077 15.258633 63.516484 15.109847 63.609890 14.961067 63.703297 14.812306 63.796703 14.663580 63.890110 14.514902 63.983516 14.366287 64.076923 14.217750 64.170330 14.069304 64.263736 13.920964 64.357143 13.772745 64.450549 13.624661 64.543956 13.476726 64.637363 13.328955 64.730769 13.181362 64.824176 13.033962 64.917582 12.886769 65.010989 12.739797 65.104396 12.593061 65.197802 12.446575 65.291209 12.300354 65.384615 12.154411 65.478022 12.008762 65.571429 11.863421 65.664835 11.718402 65.758242 11.573719 65.851648 11.429388 65.945055 11.285422 66.038462 11.141835 66.131868 10.998643 66.225275 10.855860 66.318681 10.713499 66.412088 10.571576 66.505495 10.430105 66.598901 10.289100 66.692308 10.148575 66.785714 10.008546 66.879121 9.869025 66.972527 9.730029 67.065934 9.591571 67.159341 9.453666 67.252747 9.316327 67.346154 9.179570 67.439560 9.043409 67.532967 8.907858 67.626374 8.772931 67.719780 8.638644 67.813187 8.505010 67.906593 8.372044 68.000000 8.239760 68.093407 8.108173 68.186813 7.977297 68.280220 7.847146 68.373626 7.717735 68.467033 7.589078 68.560440 7.461190 68.653846 7.334085 68.747253 7.207778 68.840659 7.082282 68.934066 6.957612 69.027473 6.833784 69.120879 6.710810 69.214286 6.588705 69.307692 6.467485 69.401099 6.347163 69.494505 6.227753 69.587912 6.109271 69.681319 5.991730 69.774725 5.875144 69.868132 5.759529 69.961538 5.644899 70.054945 5.531268 70.148352 5.418650 70.241758 5.307060 70.335165 5.196513 70.428571 5.087022 70.521978 4.978602 70.615385 4.871268 70.708791 4.765033 70.802198 4.659913 70.895604 4.555922 70.989011 4.453073 71.082418 4.351383 71.175824 4.250863 71.269231 4.151531 71.362637 4.053399 71.456044 3.956482 71.549451 3.860794 71.642857 3.766351 71.736264 3.673166 71.829670 3.581253 71.923077 3.490628 72.016484 3.401304 72.109890 3.313296 72.203297 3.226618 72.296703 3.141285 72.390110 3.057311 72.483516 2.974711 72.576923 2.893498 72.670330 2.813688 72.763736 2.735295 72.857143 2.658333 72.950549 2.582816 73.043956 2.508759 73.137363 2.436177 73.230769 2.365083 73.324176 2.295492 73.417582 2.227415 73.510989 2.160848 73.604396 2.095782 73.697802 2.032209 73.791209 1.970121 73.884615 1.909510 73.978022 1.850367 74.071429 1.792686 74.164835 1.736456 74.258242 1.681671 74.351648 1.628323 74.445055 1.576402 74.538462 1.525902 74.631868 1.476813 74.725275 1.429128 74.818681 1.382838 74.912088 1.337936 75.005495 1.294414 75.098901 1.252262 75.192308 1.211474 75.285714 1.172040 75.379121 1.133954 75.472527 1.097206 75.565934 1.061788 75.659341 1.027693 75.752747 0.994912 75.846154 0.963438 75.939560 0.933261 76.032967 0.904375 76.126374 0.876770 76.219780 0.850438 76.313187 0.825373 76.406593 0.801564 76.500000 0.779005 76.593407 0.757687 76.686813 0.737602 76.780220 0.718741 76.873626 0.701098 76.967033 0.684663 77.060440 0.669429 77.153846 0.655386 77.247253 0.642528 77.340659 0.630847 77.434066 0.620333 77.527473 0.610979 77.620879 0.602776 77.714286 0.595717 77.807692 0.589794 77.901099 0.584998 77.994505 0.581320 78.087912 0.578754 78.181319 0.577291 78.274725 0.576923 78.368132 0.577641 78.461538 0.579438 78.554945 0.582305 78.648352 0.586235 78.741758 0.591218 78.835165 0.597248 78.928571 0.604315 79.021978 0.612413 79.115385 0.621531 79.208791 0.631664 79.302198 0.642801 79.395604 0.654936 79.489011 0.668060 79.582418 0.682164 79.675824 0.697242 79.769231 0.713284 79.862637 0.730283 79.956044 0.748230 80.049451 0.767118 80.142857 0.786938 80.236264 0.807682 80.329670 0.829341 80.423077 0.851909 80.516484 0.875376 80.609890 0.899734 80.703297 0.924976 80.796703 0.951094 80.890110 0.978078 80.983516 1.005922 81.076923 1.034616 81.170330 1.064153 81.263736 1.094524 81.357143 1.125722 81.450549 1.157739 81.543956 1.190566 81.637363 1.224194 81.730769 1.258617 81.824176 1.293825 81.917582 1.329812 82.010989 1.366567 82.104396 1.404085 82.197802 1.442355 82.291209 1.481371 82.384615 1.521124 82.478022 1.561605 82.571429 1.602808 82.664835 1.644723 82.758242 1.687342 82.851648 1.730658 82.945055 1.774663 83.038462 1.819347 83.131868 1.864703 83.225275 1.910724 83.318681 1.957400 83.412088 2.004723 83.505495 2.052687 83.598901 2.101281 83.692308 2.150499 83.785714 2.200332 83.879121 2.250771 83.972527 2.301810 84.065934 2.353439 84.159341 2.405651 84.252747 2.458437 84.346154 2.511790 84.439560 2.565701 84.532967 2.620162 84.626374 2.675165 84.719780 2.730701 84.813187 2.786763 84.906593 2.843343 85.000000 2.900432 85.093407 2.958023 85.186813 3.016106 85.280220 3.074675 85.373626 3.133720 85.467033 3.193235 85.560440 3.253210 85.653846 3.313637 85.747253 3.374509 85.840659 3.435817 85.934066 3.497553 86.027473 3.559709 86.120879 3.622276 86.214286 3.685248 86.307692 3.748615 86.401099 3.812370 86.494505 3.876504 86.587912 3.941009 86.681319 4.005877 86.774725 4.071100 86.868132 4.136670 86.961538 4.202579 87.054945 4.268818 87.148352 4.335379 87.241758 4.402255 87.335165 4.469437 87.428571 4.536917 87.521978 4.604687 87.615385 4.672739 87.708791 4.741064 87.802198 4.809655 87.895604 4.878503 87.989011 4.947600 88.082418 5.016939 88.175824 5.086510 88.269231 5.156306 88.362637 5.226319 88.456044 5.296541 88.549451 5.366963 88.642857 5.437577 88.736264 5.508376 88.829670 5.579351 88.923077 5.650493 89.016484 5.721796 89.109890 5.793250 89.203297 5.864847 89.296703 5.936581 89.390110 6.008441 89.483516 6.080420 89.576923 6.152511 89.670330 6.224704 89.763736 6.296993 89.857143 6.369367 89.950549 6.441821 90.043956 6.514344 90.137363 6.586930 90.230769 6.659571 90.324176 6.732257 90.417582 6.804981 90.510989 6.877734 90.604396 6.950509 90.697802 7.023298 90.791209 7.096092 90.884615 7.168884 90.978022 7.241664 91.071429 7.314425 91.164835 7.387159 91.258242 7.459858 91.351648 7.532513 91.445055 7.605117 91.538462 7.677661 91.631868 7.750137 91.725275 7.822538 91.818681 7.894854 91.912088 7.967078 92.005495 8.039201 92.098901 8.111217 92.192308 8.183115 92.285714 8.254889 92.379121 8.326530 92.472527 8.398030 92.565934 8.469380 92.659341 8.540574 92.752747 8.611602 92.846154 8.682456 92.939560 8.753129 93.032967 8.823612 93.126374 8.893898 93.219780 8.963977 93.313187 9.033842 93.406593 9.103484 93.500000 9.172897 93.593407 9.242070 93.686813 9.310997 93.780220 9.379669 93.873626 9.448079 93.967033 9.516217 94.060440 9.584075 94.153846 9.651647 94.247253 9.718923 94.340659 9.785896 94.434066 9.852556 94.527473 9.918897 94.620879 9.984910 94.714286 10.050587 94.807692 10.115919 94.901099 10.180899 94.994505 10.245519 95.087912 10.309770 95.181319 10.373644 95.274725 10.437133 95.368132 10.500229 95.461538 10.562924 95.554945 10.625210 95.648352 10.687078 95.741758 10.748521 95.835165 10.809530 95.928571 10.870097 96.021978 10.930214 96.115385 10.989874 96.208791 11.049067 96.302198 11.107785 96.395604 11.166021 96.489011 11.223767 96.582418 11.281014 96.675824 11.337754 96.769231 11.393980 96.862637 11.449693 96.956044 11.504891 97.049451 11.559577 97.142857 11.613752 97.236264 11.667414 97.329670 11.720567 97.423077 11.773210 97.516484 11.825343 97.609890 11.876969 97.703297 11.928087 97.796703 11.978699 97.890110 12.028805 97.983516 12.078405 98.076923 12.127501 98.170330 12.176094 98.263736 12.224184 98.357143 12.271771 98.450549 12.318857 98.543956 12.365443 98.637363 12.411529 98.730769 12.457115 98.824176 12.502204 98.917582 12.546794 99.010989 12.590888 99.104396 12.634486 99.197802 12.677589 99.291209 12.720197 99.384615 12.762311 99.478022 12.803932 99.571429 12.845061 99.664835 12.885699 99.758242 12.925846 99.851648 12.965502 99.945055 13.004670 100.038462 13.043349 100.131868 13.081540 100.225275 13.119245 100.318681 13.156463 100.412088 13.193195 100.505495 13.229443 100.598901 13.265207 100.692308 13.300488 100.785714 13.335287 100.879121 13.369604 100.972527 13.403439 101.065934 13.436795 101.159341 13.469672 101.252747 13.502069 101.346154 13.533989 101.439560 13.565432 101.532967 13.596398 101.626374 13.626889 101.719780 13.656905 101.813187 13.686447 101.906593 13.715515 102.000000 13.744111 102.093407 13.772235 102.186813 13.799888 102.280220 13.827071 102.373626 13.853784 102.467033 13.880029 102.560440 13.905805 102.653846 13.931114 102.747253 13.955957 102.840659 13.980333 102.934066 14.004245 103.027473 14.027693 103.120879 14.050677 103.214286 14.073198 103.307692 14.095258 103.401099 14.116856 103.494505 14.137994 103.587912 14.158672 103.681319 14.178891 103.774725 14.198652 103.868132 14.217955 103.961538 14.236802 104.054945 14.255193 104.148352 14.273129 104.241758 14.290610 104.335165 14.307638 104.428571 14.324213 104.521978 14.340336 104.615385 14.356007 104.708791 14.371228 104.802198 14.385999 104.895604 14.400320 104.989011 14.414194 105.082418 14.427620 105.175824 14.440599 105.269231 14.453132 105.362637 14.465220 105.456044 14.476863 105.549451 14.488062 105.642857 14.498818 105.736264 14.509132 105.829670 14.519005 105.923077 14.528437 106.016484 14.537428 106.109890 14.545981 106.203297 14.554095 106.296703 14.561771 106.390110 14.569011 106.483516 14.575814 106.576923 14.582181 106.670330 14.588114 106.763736 14.593613 106.857143 14.598679 106.950549 14.603313 107.043956 14.607514 107.137363 14.611285 107.230769 14.614626 107.324176 14.617537 107.417582 14.620020 107.510989 14.622074 107.604396 14.623702 107.697802 14.624903 107.791209 14.625679 107.884615 14.626029 107.978022 14.625956 108.071429 14.625459 108.164835 14.624540 108.258242 14.623199 108.351648 14.621437 108.445055 14.619254 108.538462 14.616652 108.631868 14.613631 108.725275 14.610192 108.818681 14.606336 108.912088 14.602064 109.005495 14.597375 109.098901 14.592272 109.192308 14.586754 109.285714 14.580823 109.379121 14.574479 109.472527 14.567723 109.565934 14.560556 109.659341 14.552978 109.752747 14.544991 109.846154 14.536595 109.939560 14.527790 110.032967 14.518578 110.126374 14.508960 110.219780 14.498935 110.313187 14.488505 110.406593 14.477671 110.500000 14.466434 110.593407 14.454793 110.686813 14.442750 110.780220 14.430306 110.873626 14.417461 110.967033 14.404217 111.060440 14.390573 111.153846 14.376531 111.247253 14.362092 111.340659 14.347255 111.434066 14.332023 111.527473 14.316395 111.620879 14.300372 111.714286 14.283956 111.807692 14.267147 111.901099 14.249945 111.994505 14.232352 112.087912 14.214368 112.181319 14.195994 112.274725 14.177231 112.368132 14.158080 112.461538 14.138540 112.554945 14.118614 112.648352 14.098301 112.741758 14.077603 112.835165 14.056521 112.928571 14.035054 113.021978 14.013204 113.115385 13.990972 113.208791 13.968358 113.302198 13.945363 113.395604 13.921988 113.489011 13.898233 113.582418 13.874100 113.675824 13.849589 113.769231 13.824701 113.862637 13.799436 113.956044 13.773796 114.049451 13.747781 114.142857 13.721392 114.236264 13.694629 114.329670 13.667494 114.423077 13.639987 114.516484 13.612109 114.609890 13.583860 114.703297 13.555242 114.796703 13.526256 114.890110 13.496901 114.983516 13.467179 115.076923 13.437090 115.170330 13.406636 115.263736 13.375816 115.357143 13.344633 115.450549 13.313086 115.543956 13.281176 115.637363 13.248904 115.730769 13.216271 115.824176 13.183277 115.917582 13.149924 116.010989 13.116211 116.104396 13.082141 116.197802 13.047713 116.291209 13.012928 116.384615 12.977788 116.478022 12.942292 116.571429 12.906442 116.664835 12.870238 116.758242 12.833681 116.851648 12.796772 116.945055 12.759512 117.038462 12.721901 117.131868 12.683940 117.225275 12.645631 117.318681 12.606972 117.412088 12.567967 117.505495 12.528614 117.598901 12.488915 117.692308 12.448871 117.785714 12.408482 117.879121 12.367750 117.972527 12.326674 118.065934 12.285257 118.159341 12.243497 118.252747 12.201397 118.346154 12.158957 118.439560 12.116178 118.532967 12.073060 118.626374 12.029604 118.719780 11.985811 118.813187 11.941683 118.906593 11.897218 119.000000 11.852419 119.093407 11.807286 119.186813 11.761820 119.280220 11.716021 119.373626 11.669891 119.467033 11.623429 119.560440 11.576638 119.653846 11.529517 119.747253 11.482067 119.840659 11.434290 119.934066 11.386185 120.027473 11.337754 120.120879 11.288998 120.214286 11.239921 120.307692 11.190529 120.401099 11.140827 120.494505 11.090820 120.587912 11.040512 120.681319 10.989909 120.774725 10.939017 120.868132 10.887839 120.961538 10.836382 121.054945 10.784650 121.148352 10.732649 121.241758 10.680383 121.335165 10.627858 121.428571 10.575079 121.521978 10.522051 121.615385 10.468778 121.708791 10.415267 121.802198 10.361522 121.895604 10.307548 121.989011 10.253350 122.082418 10.198934 122.175824 10.144305 122.269231 10.089467 122.362637 10.034426 122.456044 9.979187 122.549451 9.923754 122.642857 9.868134 122.736264 9.812331 122.829670 9.756351 122.923077 9.700197 123.016484 9.643877 123.109890 9.587393 123.203297 9.530753 123.296703 9.473960 123.390110 9.417020 123.483516 9.359938 123.576923 9.302719 123.670330 9.245369 123.763736 9.187891 123.857143 9.130292 123.950549 9.072577 124.043956 9.014750 124.137363 8.956817 124.230769 8.898782 124.324176 8.840652 124.417582 8.782430 124.510989 8.724123 124.604396 8.665734 124.697802 8.607270 124.791209 8.548736 124.884615 8.490136 124.978022 8.431475 125.071429 8.372759 125.164835 8.313993 125.258242 8.255182 125.351648 8.196331 125.445055 8.137445 125.538462 8.078529 125.631868 8.019588 125.725275 7.960628 125.818681 7.901653 125.912088 7.842669 126.005495 7.783680 126.098901 7.724693 126.192308 7.665711 126.285714 7.606740 126.379121 7.547786 126.472527 7.488852 126.565934 7.429945 126.659341 7.371069 126.752747 7.312230 126.846154 7.253432 126.939560 7.194681 127.032967 7.135982 127.126374 7.077339 127.219780 7.018759 127.313187 6.960246 127.406593 6.901805 127.500000 6.843441 127.593407 6.785160 127.686813 6.726966 127.780220 6.668865 127.873626 6.610861 127.967033 6.552960 128.060440 6.495167 128.153846 6.437488 128.247253 6.379926 128.340659 6.322487 128.434066 6.265177 128.527473 6.208000 128.620879 6.150962 128.714286 6.094067 128.807692 6.037321 128.901099 5.980729 128.994505 5.924295 129.087912 5.868026 129.181319 5.811926 129.274725 5.756000 129.368132 5.700253 129.461538 5.644691 129.554945 5.589318 129.648352 5.534140 129.741758 5.479161 129.835165 5.424388 129.928571 5.369824 130.021978 5.315475 130.115385 5.261347 130.208791 5.207443 130.302198 5.153770 130.395604 5.100332 130.489011 5.047135 130.582418 4.994184 130.675824 4.941483 130.769231 4.889038 130.862637 4.836853 130.956044 4.784935 131.049451 4.733288 131.142857 4.681917 131.236264 4.630828 131.329670 4.580025 131.423077 4.529513 131.516484 4.479298 131.609890 4.429385 131.703297 4.379779 131.796703 4.330484 131.890110 4.281507 131.983516 4.232851 132.076923 4.184523 132.170330 4.136527 132.263736 4.088869 132.357143 4.041553 132.450549 3.994585 132.543956 3.947969 132.637363 3.901711 132.730769 3.855816 132.824176 3.810290 132.917582 3.765136 133.010989 3.720360 133.104396 3.675968 133.197802 3.631965 133.291209 3.588354 133.384615 3.545143 133.478022 3.502335 133.571429 3.459936 133.664835 3.417951 133.758242 3.376385 133.851648 3.335243 133.945055 3.294530 134.038462 3.254252 134.131868 3.214413 134.225275 3.175018 134.318681 3.136073 134.412088 3.097583 134.505495 3.059553 134.598901 3.021988 134.692308 2.984892 134.785714 2.948272 134.879121 2.912132 134.972527 2.876477 135.065934 2.841313 135.159341 2.806645 135.252747 2.772476 135.346154 2.738814 135.439560 2.705663 135.532967 2.673027 135.626374 2.640913 135.719780 2.609324 135.813187 2.578267 135.906593 2.547746 136.000000 2.517767 136.093407 2.488334 136.186813 2.459453 136.280220 2.431128 136.373626 2.403366 136.467033 2.376170 136.560440 2.349546 136.653846 2.323500 136.747253 2.298036 136.840659 2.273159 136.934066 2.248874 137.027473 2.225187 137.120879 2.202103 137.214286 2.179626 137.307692 2.157762 137.401099 2.136516 137.494505 2.115894 137.587912 2.095899 137.681319 2.076538 137.774725 2.057815 137.868132 2.039735 137.961538 2.022304 138.054945 2.005526 138.148352 1.989408 138.241758 1.973953 138.335165 1.959167 138.428571 1.945055 138.521978 1.931622 138.615385 1.918874 138.708791 1.906815 138.802198 1.895450 138.895604 1.884785 138.989011 1.874824 139.082418 1.865574 139.175824 1.857038 139.269231 1.849222 139.362637 1.842131 139.456044 1.835770 139.549451 1.830145 139.642857 1.825260 139.736264 1.821120 139.829670 1.817731 139.923077 1.815097 140.016484 1.813224 140.109890 1.812118 140.203297 1.811782 140.296703 1.812222 140.390110 1.813443 140.483516 1.815450 140.576923 1.818249 140.670330 1.821845 140.763736 1.826241 140.857143 1.831445 140.950549 1.837460 141.043956 1.844292 141.137363 1.851946 141.230769 1.860428 141.324176 1.869741 141.417582 1.879891 141.510989 1.890884 141.604396 1.902725 141.697802 1.915418 141.791209 1.928968 141.884615 1.943382 141.978022 1.958663 142.071429 1.974817 142.164835 1.991849 142.258242 2.009765 142.351648 2.028568 142.445055 2.048265 142.538462 2.068861 142.631868 2.090360 142.725275 2.112767 142.818681 2.136089 142.912088 2.160329 143.005495 2.185493 143.098901 2.211587 143.192308 2.238614 143.285714 2.266581 143.379121 2.295492 143.472527 2.325351 143.565934 2.356156 143.659341 2.387903 143.752747 2.420588 143.846154 2.454207 143.939560 2.488756 144.032967 2.524232 144.126374 2.560631 144.219780 2.597949 144.313187 2.636183 144.406593 2.675328 144.500000 2.715380 144.593407 2.756337 144.686813 2.798193 144.780220 2.840946 144.873626 2.884591 144.967033 2.929126 145.060440 2.974544 145.153846 3.020845 145.247253 3.068022 145.340659 3.116073 145.434066 3.164993 145.527473 3.214780 145.620879 3.265429 145.714286 3.316935 145.807692 3.369297 145.901099 3.422509 145.994505 3.476568 146.087912 3.531470 146.181319 3.587212 146.274725 3.643789 146.368132 3.701198 146.461538 3.759435 146.554945 3.818495 146.648352 3.878377 146.741758 3.939074 146.835165 4.000585 146.928571 4.062904 147.021978 4.126029 147.115385 4.189955 147.208791 4.254678 147.302198 4.320196 147.395604 4.386503 147.489011 4.453596 147.582418 4.521472 147.675824 4.590126 147.769231 4.659555 147.862637 4.729755 147.956044 4.800722 148.049451 4.872453 148.142857 4.944943 148.236264 5.018189 148.329670 5.092187 148.423077 5.166933 148.516484 5.242423 148.609890 5.318654 148.703297 5.395622 148.796703 5.473323 148.890110 5.551753 148.983516 5.630908 149.076923 5.710785 149.170330 5.791380 149.263736 5.872689 149.357143 5.954708 149.450549 6.037433 149.543956 6.120861 149.637363 6.204988 149.730769 6.289810 149.824176 6.375322 149.917582 6.461523 150.010989 6.548407 150.104396 6.635971 150.197802 6.724211 150.291209 6.813123 150.384615 6.902703 150.478022 6.992948 150.571429 7.083854 150.664835 7.175417 150.758242 7.267633 150.851648 7.360499 150.945055 7.454010 151.038462 7.548163 151.131868 7.642955 151.225275 7.738380 151.318681 7.834436 151.412088 7.931118 151.505495 8.028424 151.598901 8.126348 151.692308 8.224888 151.785714 8.324039 151.879121 8.423798 151.972527 8.524160 152.065934 8.625123 152.159341 8.726682 152.252747 8.828833 152.346154 8.931573 152.439560 9.034898 152.532967 9.138804 152.626374 9.243288 152.719780 9.348344 152.813187 9.453971 152.906593 9.560163 153.000000 9.666918 153.093407 9.774230 153.186813 9.882098 153.280220 9.990516 153.373626 10.099480 153.467033 10.208988 153.560440 10.319035 153.653846 10.429618 153.747253 10.540732 153.840659 10.652375 153.934066 10.764541 154.027473 10.877228 154.120879 10.990431 154.214286 11.104147 154.307692 11.218372 154.401099 11.333102 154.494505 11.448333 154.587912 11.564062 154.681319 11.680284 154.774725 11.796997 154.868132 11.914195 154.961538 12.031876 155.054945 12.150035 155.148352 12.268669 155.241758 12.387775 155.335165 12.507347 155.428571 12.627382 155.521978 12.747877 155.615385 12.868828 155.708791 12.990231 155.802198 13.112082 155.895604 13.234377 155.989011 13.357113 156.082418 13.480286 156.175824 13.603891 156.269231 13.727926 156.362637 13.852386 156.456044 13.977268 156.549451 14.102567 156.642857 14.228280 156.736264 14.354404 156.829670 14.480934 156.923077 14.607866 157.016484 14.735197 157.109890 14.862924 157.203297 14.991041 157.296703 15.119546 157.390110 15.248434 157.483516 15.377702 157.576923 15.507346 157.670330 15.637363 157.763736 15.767748 157.857143 15.898497 157.950549 16.029607 158.043956 16.161074 158.137363 16.292894 158.230769 16.425064 158.324176 16.557579 158.417582 16.690437 158.510989 16.823632 158.604396 16.957161 158.697802 17.091021 158.791209 17.225207 158.884615 17.359716 158.978022 17.494545 159.071429 17.629688 159.164835 17.765143 159.258242 17.900905 159.351648 18.036972 159.445055 18.173338 159.538462 18.310001 159.631868 18.446956 159.725275 18.584199 159.818681 18.721728 159.912088 18.859537 160.005495 18.997624 160.098901 19.135984 160.192308 19.274614 160.285714 19.413510 160.379121 19.552668 160.472527 19.692084 160.565934 19.831754 160.659341 19.971675 160.752747 20.111843 160.846154 20.252255 160.939560 20.392905 161.032967 20.533791 161.126374 20.674908 161.219780 20.816254 161.313187 20.957823 161.406593 21.099613 161.500000 21.241619 161.593407 21.383838 161.686813 21.526265 161.780220 21.668898 161.873626 21.811732 161.967033 21.954764 162.060440 22.097989 162.153846 22.241404 162.247253 22.385006 162.340659 22.528789 162.434066 22.672751 162.527473 22.816888 162.620879 22.961196 162.714286 23.105671 162.807692 23.250309 162.901099 23.395106 162.994505 23.540060 163.087912 23.685165 163.181319 23.830418 163.274725 23.975816 163.368132 24.121354 163.461538 24.267029 163.554945 24.412837 163.648352 24.558774 163.741758 24.704836 163.835165 24.851020 163.928571 24.997322 164.021978 25.143737 164.115385 25.290263 164.208791 25.436895 164.302198 25.583629 164.395604 25.730462 164.489011 25.877391 164.582418 26.024410 164.675824 26.171517 164.769231 26.318707 164.862637 26.465977 164.956044 26.613323 165.049451 26.760741 165.142857 26.908228 165.236264 27.055779 165.329670 27.203390 165.423077 27.351059 165.516484 27.498781 165.609890 27.646552 165.703297 27.794369 165.796703 27.942228 165.890110 28.090125 165.983516 28.238056 166.076923 28.386017 166.170330 28.534005 166.263736 28.682015 166.357143 28.830045 166.450549 28.978090 166.543956 29.126146 166.637363 29.274210 166.730769 29.422277" class="line reactive nofill" /></g></g><g class="titles" /><g transform="translate(20, 10)" class="plot overlay"><g class="series serie-0 color-0" /></g><g transform="translate(20, 10)" class="plot text-overlay"><g class="series serie-0 color-0" /></g><g transform="translate(20, 10)" class="plot tooltip-overlay"><g transform="translate(0 0)" style="opacity: 0" class="tooltip"><rect rx="0" ry="0" width="0" height="0" class="tooltip-box" /><g class="text" /></g></g></g></svg>