<?xml version='1.0' encoding='utf-8'?>
<svg xmlns="http://www.w3.org/2000/svg" id="chart-968d2895-c9dc-49a7-8fba-fe4068062695" class="pygal-chart pygal-sparkline" viewBox="0 0 200 50" width="200" height="50"><!--Generated with pygal 3.0.5 (etree) ©Kozea 2012-2016 on 2025-04-20--><!--http://pygal.org--><!--http://github.com/Kozea/pygal--><defs><style type="text/css">#chart-968d2895-c9dc-49a7-8fba-fe4068062695{-webkit-user-select:none;-webkit-font-smoothing:antialiased;font-family:Consolas,"Liberation Mono",Menlo,Courier,monospace}#chart-968d2895-c9dc-49a7-8fba-fe4068062695 .title{font-family:Consolas,"Liberation Mono",Menlo,Courier,monospace;font-size:16px}#chart-968d2895-c9dc-49a7-8fba-fe4068062695 .legends .legend text{font-family:Consolas,"Liberation Mono",Menlo,Courier,monospace;font-size:14px}#chart-968d2895-c9dc-49a7-8fba-fe4068062695 .axis text{font-family:Consolas,"Liberation Mono",Menlo,Courier,monospace;font-size:10px}#chart-968d2895-c9dc-49a7-8fba-fe4068062695 .axis text.major{font-family:Consolas,"Liberation Mono",Menlo,Courier,monospace;font-size:10px}#chart-968d2895-c9dc-49a7-8fba-fe4068062695 .text-overlay text.value{font-family:Consolas,"Liberation Mono",Menlo,Courier,monospace;font-size:16px}#chart-968d2895-c9dc-49a7-8fba-fe4068062695 .text-overlay text.label{font-family:Consolas,"Liberation Mono",Menlo,Courier,monospace;font-size:10px}#chart-968d2895-c9dc-49a7-8fba-fe4068062695 .tooltip{font-family:Consolas,"Liberation Mono",Menlo,Courier,monospace;font-size:14px}#chart-968d2895-c9dc-49a7-8fba-fe4068062695 text.no_data{font-family:Consolas,"Liberation Mono",Menlo,Courier,monospace;font-size:64px}
#chart-968d2895-c9dc-49a7-8fba-fe4068062695{background-color:rgba(249,249,249,1)}#chart-968d2895-c9dc-49a7-8fba-fe4068062695 path,#chart-968d2895-c9dc-49a7-8fba-fe4068062695 line,#chart-968d2895-c9dc-49a7-8fba-fe4068062695 rect,#chart-968d2895-c9dc-49a7-8fba-fe4068062695 circle{-webkit-transition:150ms;-moz-transition:150ms;transition:150ms}#chart-968d2895-c9dc-49a7-8fba-fe4068062695 .graph &gt; .background{fill:rgba(249,249,249,1)}#chart-968d2895-c9dc-49a7-8fba-fe4068062695 .plot &gt; .background{fill:rgba(255,255,255,1)}#chart-968d2895-c9dc-49a7-8fba-fe4068062695 .graph{fill:rgba(0,0,0,.87)}#chart-968d2895-c9dc-49a7-8fba-fe4068062695 text.no_data{fill:rgba(0,0,0,1)}#chart-968d2895-c9dc-49a7-8fba-fe4068062695 .title{fill:rgba(0,0,0,1)}#chart-968d2895-c9dc-49a7-8fba-fe4068062695 .legends .legend text{fill:rgba(0,0,0,.87)}#chart-968d2895-c9dc-49a7-8fba-fe4068062695 .legends .legend:hover text{fill:rgba(0,0,0,1)}#chart-968d2895-c9dc-49a7-8fba-fe4068062695 .axis .line{stroke:rgba(0,0,0,1)}#chart-968d2895-c9dc-49a7-8fba-fe4068062695 .axis .guide.line{stroke:rgba(0,0,0,.54)}#chart-968d2895-c9dc-49a7-8fba-fe4068062695 .axis .major.line{stroke:rgba(0,0,0,.87)}#chart-968d2895-c9dc-49a7-8fba-fe4068062695 .axis text.major{fill:rgba(0,0,0,1)}#chart-968d2895-c9dc-49a7-8fba-fe4068062695 .axis.y .guides:hover .guide.line,#chart-968d2895-c9dc-49a7-8fba-fe4068062695 .line-graph .axis.x .guides:hover .guide.line,#chart-968d2895-c9dc-49a7-8fba-fe4068062695 .stackedline-graph .axis.x .guides:hover .guide.line,#chart-968d2895-c9dc-49a7-8fba-fe4068062695 .xy-graph .axis.x .guides:hover .guide.line{stroke:rgba(0,0,0,1)}#chart-968d2895-c9dc-49a7-8fba-fe4068062695 .axis .guides:hover text{fill:rgba(0,0,0,1)}#chart-968d2895-c9dc-49a7-8fba-fe4068062695 .reactive{fill-opacity:.7;stroke-opacity:.8;stroke-width:1}#chart-968d2895-c9dc-49a7-8fba-fe4068062695 .ci{stroke:rgba(0,0,0,.87)}#chart-968d2895-c9dc-49a7-8fba-fe4068062695 .reactive.active,#chart-968d2895-c9dc-49a7-8fba-fe4068062695 .active .reactive{fill-opacity:.8;stroke-opacity:.9;stroke-width:4}#chart-968d2895-c9dc-49a7-8fba-fe4068062695 .ci .reactive.active{stroke-width:1.5}#chart-968d2895-c9dc-49a7-8fba-fe4068062695 .series text{fill:rgba(0,0,0,1)}#chart-968d2895-c9dc-49a7-8fba-fe4068062695 .tooltip rect{fill:rgba(255,255,255,1);stroke:rgba(0,0,0,1);-webkit-transition:opacity 150ms;-moz-transition:opacity 150ms;transition:opacity 150ms}#chart-968d2895-c9dc-49a7-8fba-fe4068062695 .tooltip .label{fill:rgba(0,0,0,.87)}#chart-968d2895-c9dc-49a7-8fba-fe4068062695 .tooltip .label{fill:rgba(0,0,0,.87)}#chart-968d2895-c9dc-49a7-8fba-fe4068062695 .tooltip .legend{font-size:.8em;fill:rgba(0,0,0,.54)}#chart-968d2895-c9dc-49a7-8fba-fe4068062695 .tooltip .x_label{font-size:.6em;fill:rgba(0,0,0,1)}#chart-968d2895-c9dc-49a7-8fba-fe4068062695 .tooltip .xlink{font-size:.5em;text-decoration:underline}#chart-968d2895-c9dc-49a7-8fba-fe4068062695 .tooltip .value{font-size:1.5em}#chart-968d2895-c9dc-49a7-8fba-fe4068062695 .bound{font-size:.5em}#chart-968d2895-c9dc-49a7-8fba-fe4068062695 .max-value{font-size:.75em;fill:rgba(0,0,0,.54)}#chart-968d2895-c9dc-49a7-8fba-fe4068062695 .map-element{fill:rgba(255,255,255,1);stroke:rgba(0,0,0,.54) !important}#chart-968d2895-c9dc-49a7-8fba-fe4068062695 .map-element .reactive{fill-opacity:inherit;stroke-opacity:inherit}#chart-968d2895-c9dc-49a7-8fba-fe4068062695 .color-0,#chart-968d2895-c9dc-49a7-8fba-fe4068062695 .color-0 a:visited{stroke:#F44336;fill:#F44336}#chart-968d2895-c9dc-49a7-8fba-fe4068062695 .text-overlay .color-0 text{fill:black}
#chart-968d2895-c9dc-49a7-8fba-fe4068062695 text.no_data{text-anchor:middle}#chart-968d2895-c9dc-49a7-8fba-fe4068062695 .guide.line{fill:none}#chart-968d2895-c9dc-49a7-8fba-fe4068062695 .centered{text-anchor:middle}#chart-968d2895-c9dc-49a7-8fba-fe4068062695 .title{text-anchor:middle}#chart-968d2895-c9dc-49a7-8fba-fe4068062695 .legends .legend text{fill-opacity:1}#chart-968d2895-c9dc-49a7-8fba-fe4068062695 .axis.x text{text-anchor:middle}#chart-968d2895-c9dc-49a7-8fba-fe4068062695 .axis.x:not(.web) text[transform]{text-anchor:start}#chart-968d2895-c9dc-49a7-8fba-fe4068062695 .axis.x:not(.web) text[transform].backwards{text-anchor:end}#chart-968d2895-c9dc-49a7-8fba-fe4068062695 .axis.y text{text-anchor:end}#chart-968d2895-c9dc-49a7-8fba-fe4068062695 .axis.y text[transform].backwards{text-anchor:start}#chart-968d2895-c9dc-49a7-8fba-fe4068062695 .axis.y2 text{text-anchor:start}#chart-968d2895-c9dc-49a7-8fba-fe4068062695 .axis.y2 text[transform].backwards{text-anchor:end}#chart-968d2895-c9dc-49a7-8fba-fe4068062695 .axis .guide.line{stroke-dasharray:4,4;stroke:black}#chart-968d2895-c9dc-49a7-8fba-fe4068062695 .axis .major.guide.line{stroke-dasharray:6,6;stroke:black}#chart-968d2895-c9dc-49a7-8fba-fe4068062695 .horizontal .axis.y .guide.line,#chart-968d2895-c9dc-49a7-8fba-fe4068062695 .horizontal .axis.y2 .guide.line,#chart-968d2895-c9dc-49a7-8fba-fe4068062695 .vertical .axis.x .guide.line{opacity:0}#chart-968d2895-c9dc-49a7-8fba-fe4068062695 .horizontal .axis.always_show .guide.line,#chart-968d2895-c9dc-49a7-8fba-fe4068062695 .vertical .axis.always_show .guide.line{opacity:1 !important}#chart-968d2895-c9dc-49a7-8fba-fe4068062695 .axis.y .guides:hover .guide.line,#chart-968d2895-c9dc-49a7-8fba-fe4068062695 .axis.y2 .guides:hover .guide.line,#chart-968d2895-c9dc-49a7-8fba-fe4068062695 .axis.x .guides:hover .guide.line{opacity:1}#chart-968d2895-c9dc-49a7-8fba-fe4068062695 .axis .guides:hover text{opacity:1}#chart-968d2895-c9dc-49a7-8fba-fe4068062695 .nofill{fill:none}#chart-968d2895-c9dc-49a7-8fba-fe4068062695 .subtle-fill{fill-opacity:.2}#chart-968d2895-c9dc-49a7-8fba-fe4068062695 .dot{stroke-width:1px;fill-opacity:1;stroke-opacity:1}#chart-968d2895-c9dc-49a7-8fba-fe4068062695 .dot.active{stroke-width:5px}#chart-968d2895-c9dc-49a7-8fba-fe4068062695 .dot.negative{fill:transparent}#chart-968d2895-c9dc-49a7-8fba-fe4068062695 text,#chart-968d2895-c9dc-49a7-8fba-fe4068062695 tspan{stroke:none !important}#chart-968d2895-c9dc-49a7-8fba-fe4068062695 .series text.active{opacity:1}#chart-968d2895-c9dc-49a7-8fba-fe4068062695 .tooltip rect{fill-opacity:.95;stroke-width:.5}#chart-968d2895-c9dc-49a7-8fba-fe4068062695 .tooltip text{fill-opacity:1}#chart-968d2895-c9dc-49a7-8fba-fe4068062695 .showable{visibility:hidden}#chart-968d2895-c9dc-49a7-8fba-fe4068062695 .showable.shown{visibility:visible}#chart-968d2895-c9dc-49a7-8fba-fe4068062695 .gauge-background{fill:rgba(229,229,229,1);stroke:none}#chart-968d2895-c9dc-49a7-8fba-fe4068062695 .bg-lines{stroke:rgba(249,249,249,1);stroke-width:2px}</style><script type="text/javascript">window.pygal = window.pygal || {};window.pygal.config = window.pygal.config || {};window.pygal.config['968d2895-c9dc-49a7-8fba-fe4068062695'] = {"allow_interruptions": false, "box_mode": "extremes", "classes": ["pygal-chart", "pygal-sparkline"], "css": ["file://style.css", "file://graph.css"], "defs": [], "disable_xml_declaration": false, "dots_size": 2.5, "dynamic_print_values": false, "explicit_size": true, "fill": false, "force_uri_protocol": "https", "formatter": null, "half_pie": false, "height": 50, "include_x_axis": false, "inner_radius": 0, "interpolate": "cubic", "interpolation_parameters": {}, "interpolation_precision": 250, "inverse_y_axis": false, "js": [], "legend_at_bottom": false, "legend_at_bottom_columns": null, "legend_box_size": 12, "logarithmic": false, "margin": 10, "margin_bottom": null, "margin_left": null, "margin_right": null, "margin_top": null, "max_scale": 2, "min_scale": 1, "missing_value_fill_truncation": "x", "no_data_text": "", "no_prefix": false, "order_min": null, "pretty_print": false, "print_labels": false, "print_values": false, "print_values_position": "center", "print_zeroes": true, "range": null, "rounded_bars": null, "secondary_range": null, "show_dots": false, "show_legend": false, "show_minor_x_labels": true, "show_minor_y_labels": true, "show_only_major_dots": false, "show_x_guides": false, "show_x_labels": false, "show_y_guides": true, "show_y_labels": true, "spacing": 0, "stack_from_top": false, "strict": false, "stroke": true, "stroke_style": null, "style": {"background": "rgba(249, 249, 249, 1)", "ci_colors": [], "colors": ["#F44336", "#3F51B5", "#009688", "#FFC107", "#FF5722", "#9C27B0", "#03A9F4", "#8BC34A", "#FF9800", "#E91E63", "#2196F3", "#4CAF50", "#FFEB3B", "#673AB7", "#00BCD4", "#CDDC39", "#9E9E9E", "#607D8B"], "dot_opacity": "1", "font_family": "Consolas, \"Liberation Mono\", Menlo, Courier, monospace", "foreground": "rgba(0, 0, 0, .87)", "foreground_strong": "rgba(0, 0, 0, 1)", "foreground_subtle": "rgba(0, 0, 0, .54)", "guide_stroke_color": "black", "guide_stroke_dasharray": "4,4", "label_font_family": "Consolas, \"Liberation Mono\", Menlo, Courier, monospace", "label_font_size": 10, "legend_font_family": "Consolas, \"Liberation Mono\", Menlo, Courier, monospace", "legend_font_size": 14, "major_guide_stroke_color": "black", "major_guide_stroke_dasharray": "6,6", "major_label_font_family": "Consolas, \"Liberation Mono\", Menlo, Courier, monospace", "major_label_font_size": 10, "no_data_font_family": "Consolas, \"Liberation Mono\", Menlo, Courier, monospace", "no_data_font_size": 64, "opacity": ".7", "opacity_hover": ".8", "plot_background": "rgba(255, 255, 255, 1)", "stroke_opacity": ".8", "stroke_opacity_hover": ".9", "stroke_width": "1", "stroke_width_hover": "4", "title_font_family": "Consolas, \"Liberation Mono\", Menlo, Courier, monospace", "title_font_size": 16, "tooltip_font_family": "Consolas, \"Liberation Mono\", Menlo, Courier, monospace", "tooltip_font_size": 14, "transition": "150ms", "value_background": "rgba(229, 229, 229, 1)", "value_colors": [], "value_font_family": "Consolas, \"Liberation Mono\", Menlo, Courier, monospace", "value_font_size": 16, "value_label_font_family": "Consolas, \"Liberation Mono\", Menlo, Courier, monospace", "value_label_font_size": 10}, "title": null, "tooltip_border_radius": 0, "tooltip_fancy_mode": true, "truncate_label": null, "truncate_legend": null, "width": 200, "x_label_rotation": 0, "x_labels": ["2025/4", "2025/3", "2025/1", "2024/12", "2024/8", "2024/7", "2024/4", "2024/1", "2023/11", "2023/10", "2023/4", "2023/1", "2022/12"], "x_labels_major": null, "x_labels_major_count": null, "x_labels_major_every": null, "x_title": null, "xrange": null, "y_label_rotation": 0, "y_labels": null, "y_labels_major": null, "y_labels_major_count": null, "y_labels_major_every": null, "y_title": null, "zero": 0, "legends": [""]}</script></defs><title>Pygal</title><g class="graph line-graph vertical"><rect x="0" y="0" width="200" height="50" class="background" /><g transform="translate(20, 10)" class="plot"><rect x="0" y="0" width="170" height="30" class="background" /><g class="axis y always_show"><path d="M0.000000 30.000000 h170.000000" class="line" /><g class="guides"><path d="M0.000000 20.870321 h170.000000" class="guide line" /><text x="-5" y="24.370320845870395" class="">2</text><title>2</title></g><g class="guides"><path d="M0.000000 3.812805 h170.000000" class="guide line" /><text x="-5" y="7.312805236296345" class="">4</text><title>4</title></g></g><g class="series serie-0 color-0"><path d="M3.269231 20.870321 L3.323718 20.919422 3.378205 20.968522 3.432692 21.017618 3.487179 21.066711 3.541667 21.115798 3.596154 21.164877 3.650641 21.213948 3.705128 21.263009 3.759615 21.312058 3.814103 21.361094 3.868590 21.410116 3.923077 21.459122 3.977564 21.508111 4.032051 21.557081 4.086538 21.606031 4.141026 21.654960 4.195513 21.703865 4.250000 21.752746 4.304487 21.801601 4.358974 21.850429 4.413462 21.899228 4.467949 21.947997 4.522436 21.996734 4.576923 22.045438 4.631410 22.094107 4.685897 22.142741 4.740385 22.191337 4.794872 22.239894 4.849359 22.288411 4.903846 22.336887 4.958333 22.385319 5.012821 22.433706 5.067308 22.482048 5.121795 22.530342 5.176282 22.578587 5.230769 22.626781 5.285256 22.674924 5.339744 22.723014 5.394231 22.771049 5.448718 22.819028 5.503205 22.866949 5.557692 22.914812 5.612179 22.962614 5.666667 23.010354 5.721154 23.058030 5.775641 23.105643 5.830128 23.153188 5.884615 23.200667 5.939103 23.248076 5.993590 23.295415 6.048077 23.342681 6.102564 23.389875 6.157051 23.436993 6.211538 23.484036 6.266026 23.531000 6.320513 23.577886 6.375000 23.624691 6.429487 23.671414 6.483974 23.718053 6.538462 23.764608 6.592949 23.811076 6.647436 23.857457 6.701923 23.903748 6.756410 23.949949 6.810897 23.996057 6.865385 24.042072 6.919872 24.087992 6.974359 24.133816 7.028846 24.179542 7.083333 24.225169 7.137821 24.270695 7.192308 24.316119 7.246795 24.361439 7.301282 24.406654 7.355769 24.451763 7.410256 24.496764 7.464744 24.541655 7.519231 24.586436 7.573718 24.631104 7.628205 24.675659 7.682692 24.720099 7.737179 24.764422 7.791667 24.808627 7.846154 24.852713 7.900641 24.896678 7.955128 24.940521 8.009615 24.984240 8.064103 25.027834 8.118590 25.071301 8.173077 25.114640 8.227564 25.157850 8.282051 25.200928 8.336538 25.243875 8.391026 25.286687 8.445513 25.329365 8.500000 25.371905 8.554487 25.414308 8.608974 25.456571 8.663462 25.498693 8.717949 25.540673 8.772436 25.582508 8.826923 25.624199 8.881410 25.665743 8.935897 25.707138 8.990385 25.748384 9.044872 25.789479 9.099359 25.830421 9.153846 25.871209 9.208333 25.911842 9.262821 25.952319 9.317308 25.992636 9.371795 26.032795 9.426282 26.072792 9.480769 26.112626 9.535256 26.152297 9.589744 26.191802 9.644231 26.231140 9.698718 26.270310 9.753205 26.309310 9.807692 26.348139 9.862179 26.386795 9.916667 26.425277 9.971154 26.463584 10.025641 26.501714 10.080128 26.539665 10.134615 26.577436 10.189103 26.615026 10.243590 26.652434 10.298077 26.689657 10.352564 26.726695 10.407051 26.763546 10.461538 26.800208 10.516026 26.836680 10.570513 26.872961 10.625000 26.909049 10.679487 26.944943 10.733974 26.980642 10.788462 27.016143 10.842949 27.051445 10.897436 27.086548 10.951923 27.121449 11.006410 27.156148 11.060897 27.190642 11.115385 27.224930 11.169872 27.259012 11.224359 27.292884 11.278846 27.326547 11.333333 27.359998 11.387821 27.393236 11.442308 27.426260 11.496795 27.459068 11.551282 27.491659 11.605769 27.524031 11.660256 27.556183 11.714744 27.588113 11.769231 27.619820 11.823718 27.651303 11.878205 27.682560 11.932692 27.713590 11.987179 27.744391 12.041667 27.774962 12.096154 27.805301 12.150641 27.835407 12.205128 27.865279 12.259615 27.894915 12.314103 27.924313 12.368590 27.953472 12.423077 27.982392 12.477564 28.011069 12.532051 28.039504 12.586538 28.067693 12.641026 28.095637 12.695513 28.123334 12.750000 28.150781 12.804487 28.177978 12.858974 28.204923 12.913462 28.231616 12.967949 28.258053 13.022436 28.284234 13.076923 28.310158 13.131410 28.335823 13.185897 28.361228 13.240385 28.386370 13.294872 28.411250 13.349359 28.435865 13.403846 28.460213 13.458333 28.484294 13.512821 28.508106 13.567308 28.531647 13.621795 28.554917 13.676282 28.577913 13.730769 28.600634 13.785256 28.623079 13.839744 28.645247 13.894231 28.667135 13.948718 28.688743 14.003205 28.710069 14.057692 28.731111 14.112179 28.751869 14.166667 28.772340 14.221154 28.792524 14.275641 28.812418 14.330128 28.832022 14.384615 28.851334 14.439103 28.870352 14.493590 28.889075 14.548077 28.907502 14.602564 28.925631 14.657051 28.943461 14.711538 28.960990 14.766026 28.978217 14.820513 28.995141 14.875000 29.011759 14.929487 29.028071 14.983974 29.044075 15.038462 29.059770 15.092949 29.075154 15.147436 29.090226 15.201923 29.104984 15.256410 29.119427 15.310897 29.133554 15.365385 29.147363 15.419872 29.160852 15.474359 29.174021 15.528846 29.186867 15.583333 29.199389 15.637821 29.211587 15.692308 29.223458 15.746795 29.235000 15.801282 29.246214 15.855769 29.257096 15.910256 29.267646 15.964744 29.277863 16.019231 29.287744 16.073718 29.297288 16.128205 29.306495 16.182692 29.315361 16.237179 29.323887 16.291667 29.332071 16.346154 29.339910 16.400641 29.347405 16.455128 29.354552 16.509615 29.361352 16.564103 29.367802 16.618590 29.373901 16.673077 29.379647 16.727564 29.385039 16.782051 29.390076 16.836538 29.394757 16.891026 29.399079 16.945513 29.403041 17.000000 29.406645 17.054487 29.409890 17.108974 29.412778 17.163462 29.415308 17.217949 29.417482 17.272436 29.419301 17.326923 29.420764 17.381410 29.421872 17.435897 29.422627 17.490385 29.423028 17.544872 29.423077 17.599359 29.422774 17.653846 29.422119 17.708333 29.421114 17.762821 29.419759 17.817308 29.418054 17.871795 29.416001 17.926282 29.413600 17.980769 29.410851 18.035256 29.407755 18.089744 29.404314 18.144231 29.400526 18.198718 29.396394 18.253205 29.391918 18.307692 29.387098 18.362179 29.381935 18.416667 29.376430 18.471154 29.370583 18.525641 29.364395 18.580128 29.357867 18.634615 29.350999 18.689103 29.343792 18.743590 29.336246 18.798077 29.328363 18.852564 29.320142 18.907051 29.311585 18.961538 29.302692 19.016026 29.293464 19.070513 29.283902 19.125000 29.274005 19.179487 29.263775 19.233974 29.253213 19.288462 29.242318 19.342949 29.231092 19.397436 29.219536 19.451923 29.207649 19.506410 29.195433 19.560897 29.182888 19.615385 29.170015 19.669872 29.156814 19.724359 29.143287 19.778846 29.129433 19.833333 29.115254 19.887821 29.100750 19.942308 29.085921 19.996795 29.070769 20.051282 29.055294 20.105769 29.039497 20.160256 29.023377 20.214744 29.006937 20.269231 28.990176 20.323718 28.973096 20.378205 28.955696 20.432692 28.937978 20.487179 28.919942 20.541667 28.901589 20.596154 28.882919 20.650641 28.863934 20.705128 28.844633 20.759615 28.825017 20.814103 28.805088 20.868590 28.784845 20.923077 28.764289 20.977564 28.743421 21.032051 28.722242 21.086538 28.700752 21.141026 28.678952 21.195513 28.656843 21.250000 28.634425 21.304487 28.611698 21.358974 28.588664 21.413462 28.565323 21.467949 28.541676 21.522436 28.517723 21.576923 28.493465 21.631410 28.468902 21.685897 28.444036 21.740385 28.418867 21.794872 28.393396 21.849359 28.367623 21.903846 28.341548 21.958333 28.315173 22.012821 28.288499 22.067308 28.261525 22.121795 28.234253 22.176282 28.206682 22.230769 28.178815 22.285256 28.150650 22.339744 28.122190 22.394231 28.093435 22.448718 28.064384 22.503205 28.035040 22.557692 28.005402 22.612179 27.975472 22.666667 27.945249 22.721154 27.914735 22.775641 27.883930 22.830128 27.852835 22.884615 27.821451 22.939103 27.789777 22.993590 27.757815 23.048077 27.725566 23.102564 27.693029 23.157051 27.660207 23.211538 27.627098 23.266026 27.593705 23.320513 27.560027 23.375000 27.526065 23.429487 27.491821 23.483974 27.457293 23.538462 27.422484 23.592949 27.387394 23.647436 27.352023 23.701923 27.316373 23.756410 27.280443 23.810897 27.244234 23.865385 27.207748 23.919872 27.170984 23.974359 27.133944 24.028846 27.096627 24.083333 27.059035 24.137821 27.021168 24.192308 26.983028 24.246795 26.944613 24.301282 26.905926 24.355769 26.866967 24.410256 26.827736 24.464744 26.788235 24.519231 26.748463 24.573718 26.708421 24.628205 26.668111 24.682692 26.627532 24.737179 26.586686 24.791667 26.545572 24.846154 26.504192 24.900641 26.462547 24.955128 26.420636 25.009615 26.378461 25.064103 26.336022 25.118590 26.293319 25.173077 26.250355 25.227564 26.207128 25.282051 26.163640 25.336538 26.119892 25.391026 26.075884 25.445513 26.031616 25.500000 25.987090 25.554487 25.942305 25.608974 25.897263 25.663462 25.851965 25.717949 25.806410 25.772436 25.760600 25.826923 25.714535 25.881410 25.668216 25.935897 25.621644 25.990385 25.574818 26.044872 25.527741 26.099359 25.480412 26.153846 25.432831 26.208333 25.385001 26.262821 25.336921 26.317308 25.288592 26.371795 25.240014 26.426282 25.191189 26.480769 25.142116 26.535256 25.092798 26.589744 25.043233 26.644231 24.993423 26.698718 24.943369 26.753205 24.893071 26.807692 24.842529 26.862179 24.791745 26.916667 24.740720 26.971154 24.689452 27.025641 24.637945 27.080128 24.586197 27.134615 24.534209 27.189103 24.481983 27.243590 24.429519 27.298077 24.376818 27.352564 24.323880 27.407051 24.270705 27.461538 24.217295 27.516026 24.163651 27.570513 24.109772 27.625000 24.055659 27.679487 24.001314 27.733974 23.946736 27.788462 23.891926 27.842949 23.836886 27.897436 23.781615 27.951923 23.726114 28.006410 23.670385 28.060897 23.614427 28.115385 23.558241 28.169872 23.501828 28.224359 23.445188 28.278846 23.388323 28.333333 23.331233 28.387821 23.273918 28.442308 23.216378 28.496795 23.158616 28.551282 23.100631 28.605769 23.042424 28.660256 22.983996 28.714744 22.925347 28.769231 22.866478 28.823718 22.807389 28.878205 22.748082 28.932692 22.688556 28.987179 22.628814 29.041667 22.568854 29.096154 22.508678 29.150641 22.448286 29.205128 22.387680 29.259615 22.326859 29.314103 22.265825 29.368590 22.204577 29.423077 22.143118 29.477564 22.081446 29.532051 22.019564 29.586538 21.957471 29.641026 21.895168 29.695513 21.832656 29.750000 21.769936 29.804487 21.707008 29.858974 21.643872 29.913462 21.580531 29.967949 21.516983 30.022436 21.453230 30.076923 21.389272 30.131410 21.325110 30.185897 21.260745 30.240385 21.196177 30.294872 21.131408 30.349359 21.066436 30.403846 21.001265 30.458333 20.935892 30.512821 20.870321 30.567308 20.804551 30.621795 20.738584 30.676282 20.672422 30.730769 20.606069 30.785256 20.539524 30.839744 20.472792 30.894231 20.405874 30.948718 20.338772 31.003205 20.271488 31.057692 20.204025 31.112179 20.136384 31.166667 20.068568 31.221154 20.000579 31.275641 19.932418 31.330128 19.864089 31.384615 19.795593 31.439103 19.726933 31.493590 19.658110 31.548077 19.589127 31.602564 19.519985 31.657051 19.450688 31.711538 19.381237 31.766026 19.311634 31.820513 19.241881 31.875000 19.171981 31.929487 19.101935 31.983974 19.031747 32.038462 18.961417 32.092949 18.890948 32.147436 18.820343 32.201923 18.749603 32.256410 18.678730 32.310897 18.607728 32.365385 18.536597 32.419872 18.465340 32.474359 18.393959 32.528846 18.322456 32.583333 18.250833 32.637821 18.179093 32.692308 18.107238 32.746795 18.035270 32.801282 17.963190 32.855769 17.891001 32.910256 17.818706 32.964744 17.746306 33.019231 17.673803 33.073718 17.601201 33.128205 17.528499 33.182692 17.455702 33.237179 17.382811 33.291667 17.309828 33.346154 17.236755 33.400641 17.163595 33.455128 17.090349 33.509615 17.017020 33.564103 16.943610 33.618590 16.870121 33.673077 16.796556 33.727564 16.722915 33.782051 16.649202 33.836538 16.575419 33.891026 16.501567 33.945513 16.427649 34.000000 16.353667 34.054487 16.279623 34.108974 16.205520 34.163462 16.131359 34.217949 16.057142 34.272436 15.982873 34.326923 15.908552 34.381410 15.834182 34.435897 15.759765 34.490385 15.685304 34.544872 15.610799 34.599359 15.536255 34.653846 15.461672 34.708333 15.387053 34.762821 15.312400 34.817308 15.237715 34.871795 15.163000 34.926282 15.088258 34.980769 15.013490 35.035256 14.938699 35.089744 14.863887 35.144231 14.789056 35.198718 14.714207 35.253205 14.639344 35.307692 14.564469 35.362179 14.489583 35.416667 14.414688 35.471154 14.339788 35.525641 14.264883 35.580128 14.189976 35.634615 14.115070 35.689103 14.040166 35.743590 13.965266 35.798077 13.890374 35.852564 13.815489 35.907051 13.740616 35.961538 13.665756 36.016026 13.590911 36.070513 13.516084 36.125000 13.441276 36.179487 13.366489 36.233974 13.291726 36.288462 13.216989 36.342949 13.142281 36.397436 13.067602 36.451923 12.992956 36.506410 12.918344 36.560897 12.843769 36.615385 12.769232 36.669872 12.694737 36.724359 12.620284 36.778846 12.545877 36.833333 12.471517 36.887821 12.397206 36.942308 12.322947 36.996795 12.248742 37.051282 12.174592 37.105769 12.100501 37.160256 12.026470 37.214744 11.952501 37.269231 11.878596 37.323718 11.804758 37.378205 11.730989 37.432692 11.657291 37.487179 11.583665 37.541667 11.510115 37.596154 11.436642 37.650641 11.363248 37.705128 11.289936 37.759615 11.216708 37.814103 11.143565 37.868590 11.070511 37.923077 10.997546 37.977564 10.924674 38.032051 10.851896 38.086538 10.779215 38.141026 10.706632 38.195513 10.634151 38.250000 10.561772 38.304487 10.489498 38.358974 10.417332 38.413462 10.345275 38.467949 10.273329 38.522436 10.201497 38.576923 10.129781 38.631410 10.058183 38.685897 9.986705 38.740385 9.915349 38.794872 9.844117 38.849359 9.773012 38.903846 9.702036 38.958333 9.631190 39.012821 9.560478 39.067308 9.489900 39.121795 9.419460 39.176282 9.349159 39.230769 9.278999 39.285256 9.208983 39.339744 9.139113 39.394231 9.069391 39.448718 8.999819 39.503205 8.930398 39.557692 8.861133 39.612179 8.792024 39.666667 8.723073 39.721154 8.654283 39.775641 8.585656 39.830128 8.517194 39.884615 8.448899 39.939103 8.380774 39.993590 8.312820 40.048077 8.245039 40.102564 8.177434 40.157051 8.110008 40.211538 8.042761 40.266026 7.975696 40.320513 7.908816 40.375000 7.842122 40.429487 7.775616 40.483974 7.709302 40.538462 7.643180 40.592949 7.577253 40.647436 7.511523 40.701923 7.445993 40.756410 7.380664 40.810897 7.315538 40.865385 7.250619 40.919872 7.185907 40.974359 7.121405 41.028846 7.057115 41.083333 6.993039 41.137821 6.929180 41.192308 6.865539 41.246795 6.802119 41.301282 6.738922 41.355769 6.675950 41.410256 6.613205 41.464744 6.550689 41.519231 6.488405 41.573718 6.426354 41.628205 6.364539 41.682692 6.302961 41.737179 6.241623 41.791667 6.180528 41.846154 6.119677 41.900641 6.059072 41.955128 5.998716 42.009615 5.938610 42.064103 5.878757 42.118590 5.819159 42.173077 5.759818 42.227564 5.700736 42.282051 5.641916 42.336538 5.583359 42.391026 5.525068 42.445513 5.467044 42.500000 5.409290 42.554487 5.351809 42.608974 5.294602 42.663462 5.237670 42.717949 5.181018 42.772436 5.124646 42.826923 5.068557 42.881410 5.012752 42.935897 4.957235 42.990385 4.902007 43.044872 4.847070 43.099359 4.792427 43.153846 4.738079 43.208333 4.684029 43.262821 4.630279 43.317308 4.576831 43.371795 4.523687 43.426282 4.470849 43.480769 4.418320 43.535256 4.366101 43.589744 4.314195 43.644231 4.262604 43.698718 4.211330 43.753205 4.160375 43.807692 4.109741 43.862179 4.059431 43.916667 4.009446 43.971154 3.959789 44.025641 3.910462 44.080128 3.861466 44.134615 3.812805 44.189103 3.764480 44.243590 3.716492 44.298077 3.668841 44.352564 3.621529 44.407051 3.574555 44.461538 3.527920 44.516026 3.481626 44.570513 3.435672 44.625000 3.390059 44.679487 3.344788 44.733974 3.299860 44.788462 3.255274 44.842949 3.211033 44.897436 3.167136 44.951923 3.123583 45.006410 3.080376 45.060897 3.037516 45.115385 2.995002 45.169872 2.952836 45.224359 2.911017 45.278846 2.869548 45.333333 2.828427 45.387821 2.787657 45.442308 2.747237 45.496795 2.707168 45.551282 2.667451 45.605769 2.628086 45.660256 2.589075 45.714744 2.550417 45.769231 2.512113 45.823718 2.474164 45.878205 2.436570 45.932692 2.399333 45.987179 2.362452 46.041667 2.325929 46.096154 2.289764 46.150641 2.253957 46.205128 2.218510 46.259615 2.183422 46.314103 2.148695 46.368590 2.114329 46.423077 2.080324 46.477564 2.046682 46.532051 2.013403 46.586538 1.980487 46.641026 1.947936 46.695513 1.915749 46.750000 1.883928 46.804487 1.852473 46.858974 1.821384 46.913462 1.790663 46.967949 1.760309 47.022436 1.730324 47.076923 1.700709 47.131410 1.671463 47.185897 1.642587 47.240385 1.614082 47.294872 1.585949 47.349359 1.558188 47.403846 1.530800 47.458333 1.503786 47.512821 1.477145 47.567308 1.450880 47.621795 1.424989 47.676282 1.399475 47.730769 1.374337 47.785256 1.349577 47.839744 1.325194 47.894231 1.301189 47.948718 1.277564 48.003205 1.254318 48.057692 1.231453 48.112179 1.208969 48.166667 1.186866 48.221154 1.165145 48.275641 1.143807 48.330128 1.122852 48.384615 1.102282 48.439103 1.082096 48.493590 1.062295 48.548077 1.042881 48.602564 1.023852 48.657051 1.005211 48.711538 0.986958 48.766026 0.969093 48.820513 0.951617 48.875000 0.934530 48.929487 0.917834 48.983974 0.901529 49.038462 0.885615 49.092949 0.870093 49.147436 0.854964 49.201923 0.840228 49.256410 0.825886 49.310897 0.811939 49.365385 0.798387 49.419872 0.785230 49.474359 0.772470 49.528846 0.760107 49.583333 0.748142 49.637821 0.736575 49.692308 0.725407 49.746795 0.714639 49.801282 0.704270 49.855769 0.694303 49.910256 0.684737 49.964744 0.675572 50.019231 0.666811 50.073718 0.658453 50.128205 0.650498 50.182692 0.642948 50.237179 0.635803 50.291667 0.629064 50.346154 0.622731 50.400641 0.616806 50.455128 0.611287 50.509615 0.606177 50.564103 0.601476 50.618590 0.597184 50.673077 0.593303 50.727564 0.589832 50.782051 0.586772 50.836538 0.584124 50.891026 0.581889 50.945513 0.580067 51.000000 0.578659 51.054487 0.577665 51.108974 0.577086 51.163462 0.576923 51.217949 0.577176 51.272436 0.577846 51.326923 0.578934 51.381410 0.580439 51.435897 0.582364 51.490385 0.584708 51.544872 0.587471 51.599359 0.590656 51.653846 0.594261 51.708333 0.598289 51.762821 0.602739 51.817308 0.607612 51.871795 0.612909 51.926282 0.618630 51.980769 0.624776 52.035256 0.631347 52.089744 0.638345 52.144231 0.645770 52.198718 0.653622 52.253205 0.661902 52.307692 0.670611 52.362179 0.679749 52.416667 0.689317 52.471154 0.699316 52.525641 0.709745 52.580128 0.720607 52.634615 0.731901 52.689103 0.743628 52.743590 0.755788 52.798077 0.768383 52.852564 0.781413 52.907051 0.794878 52.961538 0.808779 53.016026 0.823117 53.070513 0.837893 53.125000 0.853106 53.179487 0.868758 53.233974 0.884849 53.288462 0.901380 53.342949 0.918352 53.397436 0.935764 53.451923 0.953619 53.506410 0.971915 53.560897 0.990655 53.615385 1.009838 53.669872 1.029465 53.724359 1.049537 53.778846 1.070055 53.833333 1.091019 53.887821 1.112429 53.942308 1.134286 53.996795 1.156592 54.051282 1.179346 54.105769 1.202549 54.160256 1.226202 54.214744 1.250305 54.269231 1.274859 54.323718 1.299865 54.378205 1.325323 54.432692 1.351234 54.487179 1.377599 54.541667 1.404417 54.596154 1.431691 54.650641 1.459419 54.705128 1.487604 54.759615 1.516245 54.814103 1.545343 54.868590 1.574900 54.923077 1.604914 54.977564 1.635388 55.032051 1.666322 55.086538 1.697715 55.141026 1.729570 55.195513 1.761886 55.250000 1.794665 55.304487 1.827906 55.358974 1.861611 55.413462 1.895779 55.467949 1.930412 55.522436 1.965511 55.576923 2.001075 55.631410 2.037106 55.685897 2.073605 55.740385 2.110570 55.794872 2.148005 55.849359 2.185908 55.903846 2.224281 55.958333 2.263124 56.012821 2.302438 56.067308 2.342223 56.121795 2.382481 56.176282 2.423211 56.230769 2.464414 56.285256 2.506092 56.339744 2.548244 56.394231 2.590871 56.448718 2.633974 56.503205 2.677554 56.557692 2.721610 56.612179 2.766144 56.666667 2.811157 56.721154 2.856648 56.775641 2.902619 56.830128 2.949071 56.884615 2.996003 56.939103 3.043416 56.993590 3.091311 57.048077 3.139689 57.102564 3.188550 57.157051 3.237896 57.211538 3.287725 57.266026 3.338040 57.320513 3.388840 57.375000 3.440127 57.429487 3.491901 57.483974 3.544162 57.538462 3.596912 57.592949 3.650151 57.647436 3.703878 57.701923 3.758097 57.756410 3.812805 57.810897 3.868004 57.865385 3.923690 57.919872 3.979858 57.974359 4.036504 58.028846 4.093622 58.083333 4.151208 58.137821 4.209258 58.192308 4.267767 58.246795 4.326731 58.301282 4.386144 58.355769 4.446002 58.410256 4.506301 58.464744 4.567035 58.519231 4.628201 58.573718 4.689794 58.628205 4.751808 58.682692 4.814240 58.737179 4.877084 58.791667 4.940337 58.846154 5.003993 58.900641 5.068048 58.955128 5.132498 59.009615 5.197337 59.064103 5.262561 59.118590 5.328165 59.173077 5.394146 59.227564 5.460497 59.282051 5.527215 59.336538 5.594295 59.391026 5.661732 59.445513 5.729522 59.500000 5.797660 59.554487 5.866141 59.608974 5.934962 59.663462 6.004116 59.717949 6.073600 59.772436 6.143409 59.826923 6.213538 59.881410 6.283983 59.935897 6.354739 59.990385 6.425801 60.044872 6.497166 60.099359 6.568827 60.153846 6.640782 60.208333 6.713024 60.262821 6.785549 60.317308 6.858353 60.371795 6.931432 60.426282 7.004780 60.480769 7.078392 60.535256 7.152265 60.589744 7.226394 60.644231 7.300774 60.698718 7.375400 60.753205 7.450267 60.807692 7.525372 60.862179 7.600710 60.916667 7.676275 60.971154 7.752064 61.025641 7.828071 61.080128 7.904293 61.134615 7.980723 61.189103 8.057359 61.243590 8.134195 61.298077 8.211226 61.352564 8.288448 61.407051 8.365857 61.461538 8.443447 61.516026 8.521214 61.570513 8.599154 61.625000 8.677261 61.679487 8.755532 61.733974 8.833961 61.788462 8.912545 61.842949 8.991277 61.897436 9.070155 61.951923 9.149172 62.006410 9.228325 62.060897 9.307609 62.115385 9.387019 62.169872 9.466550 62.224359 9.546199 62.278846 9.625960 62.333333 9.705829 62.387821 9.785801 62.442308 9.865871 62.496795 9.946035 62.551282 10.026289 62.605769 10.106627 62.660256 10.187045 62.714744 10.267538 62.769231 10.348103 62.823718 10.428733 62.878205 10.509425 62.932692 10.590174 62.987179 10.670975 63.041667 10.751824 63.096154 10.832716 63.150641 10.913647 63.205128 10.994611 63.259615 11.075604 63.314103 11.156622 63.368590 11.237660 63.423077 11.318713 63.477564 11.399777 63.532051 11.480847 63.586538 11.561918 63.641026 11.642986 63.695513 11.724047 63.750000 11.805095 63.804487 11.886126 63.858974 11.967135 63.913462 12.048118 63.967949 12.129071 64.022436 12.209987 64.076923 12.290864 64.131410 12.371696 64.185897 12.452478 64.240385 12.533206 64.294872 12.613876 64.349359 12.694483 64.403846 12.775021 64.458333 12.855487 64.512821 12.935876 64.567308 13.016184 64.621795 13.096405 64.676282 13.176535 64.730769 13.256569 64.785256 13.336503 64.839744 13.416333 64.894231 13.496053 64.948718 13.575658 65.003205 13.655146 65.057692 13.734509 65.112179 13.813745 65.166667 13.892848 65.221154 13.971815 65.275641 14.050639 65.330128 14.129317 65.384615 14.207843 65.439103 14.286215 65.493590 14.364425 65.548077 14.442471 65.602564 14.520348 65.657051 14.598050 65.711538 14.675573 65.766026 14.752914 65.820513 14.830066 65.875000 14.907025 65.929487 14.983787 65.983974 15.060347 66.038462 15.136701 66.092949 15.212844 66.147436 15.288770 66.201923 15.364477 66.256410 15.439958 66.310897 15.515210 66.365385 15.590228 66.419872 15.665007 66.474359 15.739542 66.528846 15.813829 66.583333 15.887864 66.637821 15.961641 66.692308 16.035156 66.746795 16.108405 66.801282 16.181382 66.855769 16.254084 66.910256 16.326505 66.964744 16.398641 67.019231 16.470487 67.073718 16.542039 67.128205 16.613292 67.182692 16.684242 67.237179 16.754883 67.291667 16.825212 67.346154 16.895223 67.400641 16.964912 67.455128 17.034274 67.509615 17.103305 67.564103 17.172001 67.618590 17.240355 67.673077 17.308365 67.727564 17.376025 67.782051 17.443330 67.836538 17.510276 67.891026 17.576859 67.945513 17.643074 68.000000 17.708915 68.054487 17.774379 68.108974 17.839461 68.163462 17.904157 68.217949 17.968461 68.272436 18.032369 68.326923 18.095876 68.381410 18.158978 68.435897 18.221670 68.490385 18.283948 68.544872 18.345807 68.599359 18.407242 68.653846 18.468248 68.708333 18.528822 68.762821 18.588958 68.817308 18.648652 68.871795 18.707899 68.926282 18.766695 68.980769 18.825034 69.035256 18.882913 69.089744 18.940327 69.144231 18.997270 69.198718 19.053739 69.253205 19.109729 69.307692 19.165235 69.362179 19.220253 69.416667 19.274778 69.471154 19.328805 69.525641 19.382330 69.580128 19.435348 69.634615 19.487854 69.689103 19.539844 69.743590 19.591314 69.798077 19.642258 69.852564 19.692672 69.907051 19.742551 69.961538 19.791891 70.016026 19.840688 70.070513 19.888935 70.125000 19.936630 70.179487 19.983767 70.233974 20.030342 70.288462 20.076349 70.342949 20.121786 70.397436 20.166645 70.451923 20.210924 70.506410 20.254618 70.560897 20.297721 70.615385 20.340230 70.669872 20.382140 70.724359 20.423445 70.778846 20.464142 70.833333 20.504226 70.887821 20.543692 70.942308 20.582535 70.996795 20.620752 71.051282 20.658336 71.105769 20.695285 71.160256 20.731592 71.214744 20.767254 71.269231 20.802266 71.323718 20.836623 71.378205 20.870321 71.432692 20.903356 71.487179 20.935732 71.541667 20.967453 71.596154 20.998525 71.650641 21.028952 71.705128 21.058738 71.759615 21.087890 71.814103 21.116410 71.868590 21.144305 71.923077 21.171578 71.977564 21.198235 72.032051 21.224280 72.086538 21.249719 72.141026 21.274556 72.195513 21.298795 72.250000 21.322441 72.304487 21.345500 72.358974 21.367976 72.413462 21.389874 72.467949 21.411198 72.522436 21.431953 72.576923 21.452145 72.631410 21.471777 72.685897 21.490855 72.740385 21.509383 72.794872 21.527366 72.849359 21.544809 72.903846 21.561717 72.958333 21.578094 73.012821 21.593945 73.067308 21.609276 73.121795 21.624089 73.176282 21.638392 73.230769 21.652187 73.285256 21.665481 73.339744 21.678277 73.394231 21.690581 73.448718 21.702397 73.503205 21.713731 73.557692 21.724586 73.612179 21.734967 73.666667 21.744880 73.721154 21.754329 73.775641 21.763319 73.830128 21.771855 73.884615 21.779941 73.939103 21.787582 73.993590 21.794783 74.048077 21.801549 74.102564 21.807884 74.157051 21.813794 74.211538 21.819282 74.266026 21.824354 74.320513 21.829015 74.375000 21.833269 74.429487 21.837121 74.483974 21.840576 74.538462 21.843639 74.592949 21.846314 74.647436 21.848606 74.701923 21.850520 74.756410 21.852060 74.810897 21.853232 74.865385 21.854040 74.919872 21.854489 74.974359 21.854584 75.028846 21.854329 75.083333 21.853730 75.137821 21.852790 75.192308 21.851516 75.246795 21.849910 75.301282 21.847980 75.355769 21.845728 75.410256 21.843160 75.464744 21.840280 75.519231 21.837094 75.573718 21.833606 75.628205 21.829821 75.682692 21.825744 75.737179 21.821379 75.791667 21.816731 75.846154 21.811805 75.900641 21.806606 75.955128 21.801138 76.009615 21.795407 76.064103 21.789417 76.118590 21.783172 76.173077 21.776678 76.227564 21.769939 76.282051 21.762961 76.336538 21.755747 76.391026 21.748302 76.445513 21.740633 76.500000 21.732742 76.554487 21.724635 76.608974 21.716317 76.663462 21.707792 76.717949 21.699065 76.772436 21.690142 76.826923 21.681026 76.881410 21.671723 76.935897 21.662236 76.990385 21.652572 77.044872 21.642735 77.099359 21.632729 77.153846 21.622560 77.208333 21.612231 77.262821 21.601749 77.317308 21.591117 77.371795 21.580340 77.426282 21.569424 77.480769 21.558372 77.535256 21.547190 77.589744 21.535883 77.644231 21.524454 77.698718 21.512910 77.753205 21.501255 77.807692 21.489492 77.862179 21.477629 77.916667 21.465668 77.971154 21.453615 78.025641 21.441474 78.080128 21.429251 78.134615 21.416950 78.189103 21.404576 78.243590 21.392134 78.298077 21.379627 78.352564 21.367062 78.407051 21.354443 78.461538 21.341775 78.516026 21.329062 78.570513 21.316309 78.625000 21.303521 78.679487 21.290703 78.733974 21.277859 78.788462 21.264995 78.842949 21.252115 78.897436 21.239223 78.951923 21.226325 79.006410 21.213426 79.060897 21.200529 79.115385 21.187641 79.169872 21.174765 79.224359 21.161906 79.278846 21.149069 79.333333 21.136260 79.387821 21.123482 79.442308 21.110740 79.496795 21.098040 79.551282 21.085386 79.605769 21.072782 79.660256 21.060234 79.714744 21.047747 79.769231 21.035324 79.823718 21.022971 79.878205 21.010693 79.932692 20.998494 79.987179 20.986379 80.041667 20.974353 80.096154 20.962421 80.150641 20.950587 80.205128 20.938856 80.259615 20.927233 80.314103 20.915723 80.368590 20.904330 80.423077 20.893059 80.477564 20.881916 80.532051 20.870904 80.586538 20.860029 80.641026 20.849294 80.695513 20.838707 80.750000 20.828269 80.804487 20.817988 80.858974 20.807867 80.913462 20.797910 80.967949 20.788124 81.022436 20.778512 81.076923 20.769080 81.131410 20.759832 81.185897 20.750773 81.240385 20.741908 81.294872 20.733241 81.349359 20.724777 81.403846 20.716521 81.458333 20.708478 81.512821 20.700653 81.567308 20.693049 81.621795 20.685673 81.676282 20.678529 81.730769 20.671621 81.785256 20.664955 81.839744 20.658535 81.894231 20.652365 81.948718 20.646451 82.003205 20.640798 82.057692 20.635410 82.112179 20.630292 82.166667 20.625448 82.221154 20.620884 82.275641 20.616604 82.330128 20.612613 82.384615 20.608916 82.439103 20.605518 82.493590 20.602423 82.548077 20.599635 82.602564 20.597161 82.657051 20.595004 82.711538 20.593170 82.766026 20.591663 82.820513 20.590487 82.875000 20.589649 82.929487 20.589151 82.983974 20.589000 83.038462 20.589200 83.092949 20.589755 83.147436 20.590671 83.201923 20.591953 83.256410 20.593604 83.310897 20.595630 83.365385 20.598035 83.419872 20.600825 83.474359 20.604004 83.528846 20.607577 83.583333 20.611548 83.637821 20.615923 83.692308 20.620706 83.746795 20.625901 83.801282 20.631515 83.855769 20.637551 83.910256 20.644013 83.964744 20.650908 84.019231 20.658240 84.073718 20.666013 84.128205 20.674233 84.182692 20.682903 84.237179 20.692029 84.291667 20.701616 84.346154 20.711668 84.400641 20.722190 84.455128 20.733187 84.509615 20.744664 84.564103 20.756624 84.618590 20.769074 84.673077 20.782018 84.727564 20.795461 84.782051 20.809407 84.836538 20.823861 84.891026 20.838829 84.945513 20.854313 85.000000 20.870321 85.054487 20.886854 85.108974 20.903910 85.163462 20.921483 85.217949 20.939571 85.272436 20.958167 85.326923 20.977267 85.381410 20.996867 85.435897 21.016961 85.490385 21.037546 85.544872 21.058617 85.599359 21.080169 85.653846 21.102197 85.708333 21.124698 85.762821 21.147665 85.817308 21.171095 85.871795 21.194984 85.926282 21.219325 85.980769 21.244116 86.035256 21.269351 86.089744 21.295025 86.144231 21.321134 86.198718 21.347674 86.253205 21.374639 86.307692 21.402026 86.362179 21.429829 86.416667 21.458044 86.471154 21.486666 86.525641 21.515691 86.580128 21.545114 86.634615 21.574930 86.689103 21.605136 86.743590 21.635725 86.798077 21.666694 86.852564 21.698038 86.907051 21.729753 86.961538 21.761833 87.016026 21.794274 87.070513 21.827072 87.125000 21.860222 87.179487 21.893719 87.233974 21.927559 87.288462 21.961737 87.342949 21.996248 87.397436 22.031089 87.451923 22.066253 87.506410 22.101737 87.560897 22.137537 87.615385 22.173646 87.669872 22.210061 87.724359 22.246778 87.778846 22.283791 87.833333 22.321096 87.887821 22.358688 87.942308 22.396563 87.996795 22.434717 88.051282 22.473143 88.105769 22.511839 88.160256 22.550798 88.214744 22.590018 88.269231 22.629492 88.323718 22.669217 88.378205 22.709188 88.432692 22.749400 88.487179 22.789848 88.541667 22.830529 88.596154 22.871436 88.650641 22.912567 88.705128 22.953915 88.759615 22.995478 88.814103 23.037248 88.868590 23.079224 88.923077 23.121399 88.977564 23.163769 89.032051 23.206329 89.086538 23.249075 89.141026 23.292003 89.195513 23.335107 89.250000 23.378383 89.304487 23.421826 89.358974 23.465432 89.413462 23.509197 89.467949 23.553115 89.522436 23.597181 89.576923 23.641392 89.631410 23.685743 89.685897 23.730229 89.740385 23.774845 89.794872 23.819587 89.849359 23.864450 89.903846 23.909430 89.958333 23.954522 90.012821 23.999721 90.067308 24.045023 90.121795 24.090424 90.176282 24.135917 90.230769 24.181500 90.285256 24.227167 90.339744 24.272914 90.394231 24.318735 90.448718 24.364628 90.503205 24.410586 90.557692 24.456605 90.612179 24.502681 90.666667 24.548809 90.721154 24.594985 90.775641 24.641203 90.830128 24.687459 90.884615 24.733749 90.939103 24.780068 90.993590 24.826411 91.048077 24.872774 91.102564 24.919152 91.157051 24.965541 91.211538 25.011935 91.266026 25.058331 91.320513 25.104723 91.375000 25.151107 91.429487 25.197479 91.483974 25.243834 91.538462 25.290167 91.592949 25.336473 91.647436 25.382748 91.701923 25.428988 91.756410 25.475187 91.810897 25.521342 91.865385 25.567447 91.919872 25.613498 91.974359 25.659490 92.028846 25.705419 92.083333 25.751280 92.137821 25.797068 92.192308 25.842780 92.246795 25.888409 92.301282 25.933952 92.355769 25.979404 92.410256 26.024760 92.464744 26.070017 92.519231 26.115168 92.573718 26.160210 92.628205 26.205137 92.682692 26.249946 92.737179 26.294632 92.791667 26.339190 92.846154 26.383615 92.900641 26.427903 92.955128 26.472049 93.009615 26.516049 93.064103 26.559898 93.118590 26.603592 93.173077 26.647125 93.227564 26.690493 93.282051 26.733692 93.336538 26.776717 93.391026 26.819563 93.445513 26.862225 93.500000 26.904700 93.554487 26.946983 93.608974 26.989068 93.663462 27.030951 93.717949 27.072628 93.772436 27.114094 93.826923 27.155345 93.881410 27.196375 93.935897 27.237181 93.990385 27.277757 94.044872 27.318099 94.099359 27.358202 94.153846 27.398062 94.208333 27.437674 94.262821 27.477034 94.317308 27.516136 94.371795 27.554977 94.426282 27.593552 94.480769 27.631855 94.535256 27.669883 94.589744 27.707631 94.644231 27.745094 94.698718 27.782267 94.753205 27.819147 94.807692 27.855728 94.862179 27.892005 94.916667 27.927975 94.971154 27.963632 95.025641 27.998972 95.080128 28.033991 95.134615 28.068683 95.189103 28.103044 95.243590 28.137069 95.298077 28.170755 95.352564 28.204095 95.407051 28.237087 95.461538 28.269724 95.516026 28.302002 95.570513 28.333918 95.625000 28.365465 95.679487 28.396640 95.733974 28.427438 95.788462 28.457855 95.842949 28.487885 95.897436 28.517524 95.951923 28.546767 96.006410 28.575610 96.060897 28.604049 96.115385 28.632078 96.169872 28.659693 96.224359 28.686890 96.278846 28.713663 96.333333 28.740009 96.387821 28.765922 96.442308 28.791398 96.496795 28.816432 96.551282 28.841020 96.605769 28.865157 96.660256 28.888839 96.714744 28.912061 96.769231 28.934817 96.823718 28.957105 96.878205 28.978918 96.932692 29.000253 96.987179 29.021105 97.041667 29.041468 97.096154 29.061340 97.150641 29.080714 97.205128 29.099587 97.259615 29.117953 97.314103 29.135809 97.368590 29.153149 97.423077 29.169969 97.477564 29.186264 97.532051 29.202030 97.586538 29.217261 97.641026 29.231955 97.695513 29.246105 97.750000 29.259707 97.804487 29.272757 97.858974 29.285250 97.913462 29.297181 97.967949 29.308546 98.022436 29.319340 98.076923 29.329559 98.131410 29.339197 98.185897 29.348251 98.240385 29.356716 98.294872 29.364586 98.349359 29.371858 98.403846 29.378527 98.458333 29.384588 98.512821 29.390037 98.567308 29.394869 98.621795 29.399079 98.676282 29.402664 98.730769 29.405627 98.785256 29.407971 98.839744 29.409701 98.894231 29.410820 98.948718 29.411332 99.003205 29.411241 99.057692 29.410551 99.112179 29.409265 99.166667 29.407388 99.221154 29.404924 99.275641 29.401875 99.330128 29.398247 99.384615 29.394043 99.439103 29.389267 99.493590 29.383923 99.548077 29.378014 99.602564 29.371544 99.657051 29.364518 99.711538 29.356940 99.766026 29.348812 99.820513 29.340139 99.875000 29.330925 99.929487 29.321174 99.983974 29.310889 100.038462 29.300075 100.092949 29.288735 100.147436 29.276873 100.201923 29.264493 100.256410 29.251599 100.310897 29.238194 100.365385 29.224284 100.419872 29.209870 100.474359 29.194958 100.528846 29.179552 100.583333 29.163654 100.637821 29.147269 100.692308 29.130401 100.746795 29.113054 100.801282 29.095231 100.855769 29.076937 100.910256 29.058175 100.964744 29.038948 101.019231 29.019262 101.073718 28.999120 101.128205 28.978526 101.182692 28.957483 101.237179 28.935995 101.291667 28.914067 101.346154 28.891702 101.400641 28.868904 101.455128 28.845677 101.509615 28.822025 101.564103 28.797952 101.618590 28.773460 101.673077 28.748556 101.727564 28.723241 101.782051 28.697521 101.836538 28.671399 101.891026 28.644878 101.945513 28.617963 102.000000 28.590658 102.054487 28.562966 102.108974 28.534891 102.163462 28.506438 102.217949 28.477610 102.272436 28.448410 102.326923 28.418843 102.381410 28.388913 102.435897 28.358624 102.490385 28.327979 102.544872 28.296982 102.599359 28.265637 102.653846 28.233948 102.708333 28.201918 102.762821 28.169553 102.817308 28.136855 102.871795 28.103829 102.926282 28.070477 102.980769 28.036805 103.035256 28.002816 103.089744 27.968514 103.144231 27.933903 103.198718 27.898986 103.253205 27.863767 103.307692 27.828251 103.362179 27.792441 103.416667 27.756342 103.471154 27.719956 103.525641 27.683288 103.580128 27.646342 103.634615 27.609121 103.689103 27.571629 103.743590 27.533871 103.798077 27.495850 103.852564 27.457570 103.907051 27.419035 103.961538 27.380249 104.016026 27.341215 104.070513 27.301938 104.125000 27.262421 104.179487 27.222668 104.233974 27.182683 104.288462 27.142470 104.342949 27.102033 104.397436 27.061376 104.451923 27.020502 104.506410 26.979415 104.560897 26.938120 104.615385 26.896620 104.669872 26.854919 104.724359 26.813020 104.778846 26.770929 104.833333 26.728648 104.887821 26.686181 104.942308 26.643533 104.996795 26.600707 105.051282 26.557706 105.105769 26.514536 105.160256 26.471200 105.214744 26.427701 105.269231 26.384044 105.323718 26.340232 105.378205 26.296269 105.432692 26.252160 105.487179 26.207907 105.541667 26.163515 105.596154 26.118988 105.650641 26.074330 105.705128 26.029544 105.759615 25.984634 105.814103 25.939604 105.868590 25.894459 105.923077 25.849201 105.977564 25.803835 106.032051 25.758365 106.086538 25.712794 106.141026 25.667127 106.195513 25.621366 106.250000 25.575517 106.304487 25.529583 106.358974 25.483567 106.413462 25.437475 106.467949 25.391308 106.522436 25.345073 106.576923 25.298771 106.631410 25.252408 106.685897 25.205986 106.740385 25.159511 106.794872 25.112985 106.849359 25.066413 106.903846 25.019798 106.958333 24.973145 107.012821 24.926457 107.067308 24.879738 107.121795 24.832992 107.176282 24.786222 107.230769 24.739434 107.285256 24.692630 107.339744 24.645814 107.394231 24.598990 107.448718 24.552163 107.503205 24.505336 107.557692 24.458512 107.612179 24.411696 107.666667 24.364892 107.721154 24.318104 107.775641 24.271334 107.830128 24.224588 107.884615 24.177869 107.939103 24.131180 107.993590 24.084527 108.048077 24.037912 108.102564 23.991340 108.157051 23.944814 108.211538 23.898338 108.266026 23.851917 108.320513 23.805553 108.375000 23.759251 108.429487 23.713015 108.483974 23.666849 108.538462 23.620756 108.592949 23.574740 108.647436 23.528806 108.701923 23.482956 108.756410 23.437195 108.810897 23.391528 108.865385 23.345956 108.919872 23.300486 108.974359 23.255119 109.028846 23.209861 109.083333 23.164715 109.137821 23.119685 109.192308 23.074775 109.246795 23.029988 109.301282 22.985329 109.355769 22.940802 109.410256 22.896409 109.464744 22.852156 109.519231 22.808046 109.573718 22.764083 109.628205 22.720270 109.682692 22.676613 109.737179 22.633113 109.791667 22.589776 109.846154 22.546605 109.900641 22.503605 109.955128 22.460778 110.009615 22.418129 110.064103 22.375661 110.118590 22.333380 110.173077 22.291287 110.227564 22.249388 110.282051 22.207686 110.336538 22.166185 110.391026 22.124889 110.445513 22.083802 110.500000 22.042927 110.554487 22.002269 110.608974 21.961831 110.663462 21.921617 110.717949 21.881632 110.772436 21.841878 110.826923 21.802360 110.881410 21.763082 110.935897 21.724047 110.990385 21.685260 111.044872 21.646723 111.099359 21.608442 111.153846 21.570420 111.208333 21.532661 111.262821 21.495169 111.317308 21.457947 111.371795 21.421000 111.426282 21.384331 111.480769 21.347944 111.535256 21.311843 111.589744 21.276032 111.644231 21.240515 111.698718 21.205295 111.753205 21.170377 111.807692 21.135765 111.862179 21.101461 111.916667 21.067471 111.971154 21.033798 112.025641 21.000445 112.080128 20.967417 112.134615 20.934718 112.189103 20.902351 112.243590 20.870321 112.298077 20.838630 112.352564 20.807278 112.407051 20.776264 112.461538 20.745587 112.516026 20.715246 112.570513 20.685241 112.625000 20.655569 112.679487 20.626231 112.733974 20.597224 112.788462 20.568548 112.842949 20.540203 112.897436 20.512186 112.951923 20.484497 113.006410 20.457135 113.060897 20.430098 113.115385 20.403387 113.169872 20.376999 113.224359 20.350935 113.278846 20.325191 113.333333 20.299769 113.387821 20.274666 113.442308 20.249882 113.496795 20.225416 113.551282 20.201266 113.605769 20.177432 113.660256 20.153913 113.714744 20.130707 113.769231 20.107813 113.823718 20.085231 113.878205 20.062960 113.932692 20.040998 113.987179 20.019344 114.041667 19.997998 114.096154 19.976958 114.150641 19.956224 114.205128 19.935794 114.259615 19.915667 114.314103 19.895843 114.368590 19.876320 114.423077 19.857097 114.477564 19.838173 114.532051 19.819548 114.586538 19.801220 114.641026 19.783188 114.695513 19.765451 114.750000 19.748008 114.804487 19.730858 114.858974 19.714001 114.913462 19.697434 114.967949 19.681157 115.022436 19.665170 115.076923 19.649470 115.131410 19.634058 115.185897 19.618931 115.240385 19.604089 115.294872 19.589531 115.349359 19.575256 115.403846 19.561263 115.458333 19.547551 115.512821 19.534118 115.567308 19.520964 115.621795 19.508088 115.676282 19.495489 115.730769 19.483165 115.785256 19.471116 115.839744 19.459340 115.894231 19.447838 115.948718 19.436607 116.003205 19.425646 116.057692 19.414955 116.112179 19.404532 116.166667 19.394377 116.221154 19.384489 116.275641 19.374866 116.330128 19.365507 116.384615 19.356412 116.439103 19.347579 116.493590 19.339008 116.548077 19.330697 116.602564 19.322645 116.657051 19.314852 116.711538 19.307316 116.766026 19.300036 116.820513 19.293011 116.875000 19.286241 116.929487 19.279723 116.983974 19.273458 117.038462 19.267444 117.092949 19.261680 117.147436 19.256165 117.201923 19.250899 117.256410 19.245879 117.310897 19.241105 117.365385 19.236577 117.419872 19.232292 117.474359 19.228250 117.528846 19.224450 117.583333 19.220891 117.637821 19.217572 117.692308 19.214492 117.746795 19.211650 117.801282 19.209044 117.855769 19.206675 117.910256 19.204540 117.964744 19.202638 118.019231 19.200970 118.073718 19.199533 118.128205 19.198327 118.182692 19.197350 118.237179 19.196602 118.291667 19.196082 118.346154 19.195788 118.400641 19.195720 118.455128 19.195876 118.509615 19.196256 118.564103 19.196859 118.618590 19.197682 118.673077 19.198727 118.727564 19.199990 118.782051 19.201472 118.836538 19.203172 118.891026 19.205088 118.945513 19.207219 119.000000 19.209564 119.054487 19.212123 119.108974 19.214893 119.163462 19.217876 119.217949 19.221068 119.272436 19.224469 119.326923 19.228079 119.381410 19.231896 119.435897 19.235919 119.490385 19.240147 119.544872 19.244579 119.599359 19.249214 119.653846 19.254051 119.708333 19.259089 119.762821 19.264327 119.817308 19.269764 119.871795 19.275399 119.926282 19.281231 119.980769 19.287258 120.035256 19.293481 120.089744 19.299897 120.144231 19.306507 120.198718 19.313308 120.253205 19.320299 120.307692 19.327481 120.362179 19.334851 120.416667 19.342409 120.471154 19.350153 120.525641 19.358083 120.580128 19.366198 120.634615 19.374497 120.689103 19.382978 120.743590 19.391640 120.798077 19.400483 120.852564 19.409506 120.907051 19.418707 120.961538 19.428085 121.016026 19.437640 121.070513 19.447370 121.125000 19.457275 121.179487 19.467353 121.233974 19.477604 121.288462 19.488025 121.342949 19.498617 121.397436 19.509379 121.451923 19.520308 121.506410 19.531405 121.560897 19.542668 121.615385 19.554096 121.669872 19.565688 121.724359 19.577444 121.778846 19.589361 121.833333 19.601440 121.887821 19.613679 121.942308 19.626076 121.996795 19.638632 122.051282 19.651345 122.105769 19.664213 122.160256 19.677237 122.214744 19.690414 122.269231 19.703745 122.323718 19.717227 122.378205 19.730860 122.432692 19.744643 122.487179 19.758575 122.541667 19.772655 122.596154 19.786881 122.650641 19.801253 122.705128 19.815770 122.759615 19.830430 122.814103 19.845233 122.868590 19.860178 122.923077 19.875263 122.977564 19.890488 123.032051 19.905852 123.086538 19.921353 123.141026 19.936990 123.195513 19.952764 123.250000 19.968671 123.304487 19.984712 123.358974 20.000886 123.413462 20.017190 123.467949 20.033626 123.522436 20.050190 123.576923 20.066883 123.631410 20.083703 123.685897 20.100650 123.740385 20.117722 123.794872 20.134918 123.849359 20.152237 123.903846 20.169679 123.958333 20.187241 124.012821 20.204924 124.067308 20.222726 124.121795 20.240646 124.176282 20.258683 124.230769 20.276836 124.285256 20.295104 124.339744 20.313486 124.394231 20.331982 124.448718 20.350589 124.503205 20.369307 124.557692 20.388135 124.612179 20.407072 124.666667 20.426116 124.721154 20.445268 124.775641 20.464526 124.830128 20.483888 124.884615 20.503354 124.939103 20.522922 124.993590 20.542593 125.048077 20.562364 125.102564 20.582235 125.157051 20.602205 125.211538 20.622272 125.266026 20.642435 125.320513 20.662695 125.375000 20.683049 125.429487 20.703496 125.483974 20.724036 125.538462 20.744668 125.592949 20.765390 125.647436 20.786201 125.701923 20.807101 125.756410 20.828088 125.810897 20.849162 125.865385 20.870321 125.919872 20.891564 125.974359 20.912888 126.028846 20.934291 126.083333 20.955768 126.137821 20.977318 126.192308 20.998937 126.246795 21.020622 126.301282 21.042370 126.355769 21.064178 126.410256 21.086043 126.464744 21.107961 126.519231 21.129931 126.573718 21.151948 126.628205 21.174010 126.682692 21.196114 126.737179 21.218256 126.791667 21.240434 126.846154 21.262644 126.900641 21.284884 126.955128 21.307151 127.009615 21.329440 127.064103 21.351750 127.118590 21.374078 127.173077 21.396419 127.227564 21.418772 127.282051 21.441133 127.336538 21.463499 127.391026 21.485867 127.445513 21.508234 127.500000 21.530597 127.554487 21.552953 127.608974 21.575299 127.663462 21.597632 127.717949 21.619948 127.772436 21.642245 127.826923 21.664520 127.881410 21.686769 127.935897 21.708990 127.990385 21.731180 128.044872 21.753335 128.099359 21.775453 128.153846 21.797529 128.208333 21.819563 128.262821 21.841549 128.317308 21.863486 128.371795 21.885370 128.426282 21.907198 128.480769 21.928967 128.535256 21.950675 128.589744 21.972317 128.644231 21.993891 128.698718 22.015394 128.753205 22.036824 128.807692 22.058175 128.862179 22.079447 128.916667 22.100636 128.971154 22.121738 129.025641 22.142750 129.080128 22.163671 129.134615 22.184496 129.189103 22.205222 129.243590 22.225847 129.298077 22.246367 129.352564 22.266779 129.407051 22.287081 129.461538 22.307269 129.516026 22.327341 129.570513 22.347292 129.625000 22.367121 129.679487 22.386823 129.733974 22.406397 129.788462 22.425839 129.842949 22.445145 129.897436 22.464314 129.951923 22.483341 130.006410 22.502224 130.060897 22.520960 130.115385 22.539546 130.169872 22.557978 130.224359 22.576253 130.278846 22.594370 130.333333 22.612323 130.387821 22.630112 130.442308 22.647731 130.496795 22.665179 130.551282 22.682453 130.605769 22.699548 130.660256 22.716463 130.714744 22.733194 130.769231 22.749738 130.823718 22.766092 130.878205 22.782253 130.932692 22.798219 130.987179 22.813985 131.041667 22.829549 131.096154 22.844907 131.150641 22.860058 131.205128 22.874997 131.259615 22.889722 131.314103 22.904230 131.368590 22.918517 131.423077 22.932581 131.477564 22.946419 131.532051 22.960026 131.586538 22.973402 131.641026 22.986541 131.695513 22.999442 131.750000 23.012101 131.804487 23.024516 131.858974 23.036682 131.913462 23.048598 131.967949 23.060260 132.022436 23.071665 132.076923 23.082809 132.131410 23.093691 132.185897 23.104307 132.240385 23.114653 132.294872 23.124727 132.349359 23.134526 132.403846 23.144047 132.458333 23.153287 132.512821 23.162242 132.567308 23.170909 132.621795 23.179286 132.676282 23.187370 132.730769 23.195157 132.785256 23.202644 132.839744 23.209829 132.894231 23.216707 132.948718 23.223278 133.003205 23.229536 133.057692 23.235479 133.112179 23.241105 133.166667 23.246409 133.221154 23.251390 133.275641 23.256043 133.330128 23.260367 133.384615 23.264357 133.439103 23.268011 133.493590 23.271326 133.548077 23.274299 133.602564 23.276926 133.657051 23.279205 133.711538 23.281132 133.766026 23.282705 133.820513 23.283920 133.875000 23.284775 133.929487 23.285266 133.983974 23.285390 134.038462 23.285145 134.092949 23.284527 134.147436 23.283533 134.201923 23.282161 134.256410 23.280406 134.310897 23.278267 134.365385 23.275739 134.419872 23.272821 134.474359 23.269508 134.528846 23.265798 134.583333 23.261688 134.637821 23.257175 134.692308 23.252255 134.746795 23.246926 134.801282 23.241185 134.855769 23.235028 134.910256 23.228453 134.964744 23.221457 135.019231 23.214035 135.073718 23.206186 135.128205 23.197907 135.182692 23.189194 135.237179 23.180044 135.291667 23.170454 135.346154 23.160421 135.400641 23.149943 135.455128 23.139015 135.509615 23.127636 135.564103 23.115801 135.618590 23.103508 135.673077 23.090755 135.727564 23.077537 135.782051 23.063851 135.836538 23.049696 135.891026 23.035067 135.945513 23.019962 136.000000 23.004377 136.054487 22.988310 136.108974 22.971758 136.163462 22.954717 136.217949 22.937184 136.272436 22.919156 136.326923 22.900631 136.381410 22.881605 136.435897 22.862076 136.490385 22.842039 136.544872 22.821493 136.599359 22.800433 136.653846 22.778858 136.708333 22.756764 136.762821 22.734147 136.817308 22.711006 136.871795 22.687336 136.926282 22.663135 136.980769 22.638400 137.035256 22.613127 137.089744 22.587314 137.144231 22.560958 137.198718 22.534055 137.253205 22.506602 137.307692 22.478597 137.362179 22.450037 137.416667 22.420918 137.471154 22.391237 137.525641 22.360991 137.580128 22.330178 137.634615 22.298794 137.689103 22.266836 137.743590 22.234300 137.798077 22.201185 137.852564 22.167487 137.907051 22.133203 137.961538 22.098330 138.016026 22.062864 138.070513 22.026804 138.125000 21.990145 138.179487 21.952884 138.233974 21.915020 138.288462 21.876548 138.342949 21.837465 138.397436 21.797769 138.451923 21.757457 138.506410 21.716525 138.560897 21.674970 138.615385 21.632789 138.669872 21.589980 138.724359 21.546539 138.778846 21.502463 138.833333 21.457750 138.887821 21.412395 138.942308 21.366396 138.996795 21.319751 139.051282 21.272455 139.105769 21.224506 139.160256 21.175901 139.214744 21.126637 139.269231 21.076710 139.323718 21.026119 139.378205 20.974858 139.432692 20.922927 139.487179 20.870321 139.541667 20.817039 139.596154 20.763086 139.650641 20.708469 139.705128 20.653195 139.759615 20.597270 139.814103 20.540700 139.868590 20.483493 139.923077 20.425656 139.977564 20.367194 140.032051 20.308114 140.086538 20.248424 140.141026 20.188129 140.195513 20.127237 140.250000 20.065754 140.304487 20.003686 140.358974 19.941042 140.413462 19.877826 140.467949 19.814046 140.522436 19.749708 140.576923 19.684820 140.631410 19.619387 140.685897 19.553417 140.740385 19.486916 140.794872 19.419890 140.849359 19.352347 140.903846 19.284293 140.958333 19.215735 141.012821 19.146679 141.067308 19.077132 141.121795 19.007101 141.176282 18.936592 141.230769 18.865613 141.285256 18.794169 141.339744 18.722267 141.394231 18.649914 141.448718 18.577118 141.503205 18.503883 141.557692 18.430218 141.612179 18.356128 141.666667 18.281620 141.721154 18.206702 141.775641 18.131379 141.830128 18.055658 141.884615 17.979547 141.939103 17.903051 141.993590 17.826177 142.048077 17.748933 142.102564 17.671324 142.157051 17.593357 142.211538 17.515040 142.266026 17.436378 142.320513 17.357378 142.375000 17.278047 142.429487 17.198392 142.483974 17.118419 142.538462 17.038135 142.592949 16.957547 142.647436 16.876661 142.701923 16.795484 142.756410 16.714022 142.810897 16.632283 142.865385 16.550272 142.919872 16.467998 142.974359 16.385465 143.028846 16.302681 143.083333 16.219653 143.137821 16.136387 143.192308 16.052890 143.246795 15.969169 143.301282 15.885230 143.355769 15.801080 143.410256 15.716725 143.464744 15.632172 143.519231 15.547428 143.573718 15.462500 143.628205 15.377394 143.682692 15.292117 143.737179 15.206676 143.791667 15.121076 143.846154 15.035326 143.900641 14.949431 143.955128 14.863398 144.009615 14.777234 144.064103 14.690945 144.118590 14.604539 144.173077 14.518021 144.227564 14.431399 144.282051 14.344679 144.336538 14.257868 144.391026 14.170972 144.445513 14.083998 144.500000 13.996954 144.554487 13.909844 144.608974 13.822677 144.663462 13.735459 144.717949 13.648196 144.772436 13.560895 144.826923 13.473563 144.881410 13.386206 144.935897 13.298831 144.990385 13.211445 145.044872 13.124055 145.099359 13.036667 145.153846 12.949287 145.208333 12.861923 145.262821 12.774581 145.317308 12.687267 145.371795 12.599989 145.426282 12.512753 145.480769 12.425566 145.535256 12.338434 145.589744 12.251364 145.644231 12.164363 145.698718 12.077438 145.753205 11.990594 145.807692 11.903839 145.862179 11.817179 145.916667 11.730622 145.971154 11.644173 146.025641 11.557839 146.080128 11.471628 146.134615 11.385545 146.189103 11.299597 146.243590 11.213791 146.298077 11.128134 146.352564 11.042633 146.407051 10.957293 146.461538 10.872122 146.516026 10.787126 146.570513 10.702313 146.625000 10.617688 146.679487 10.533258 146.733974 10.449030 146.788462 10.365011 146.842949 10.281207 146.897436 10.197625 146.951923 10.114271 147.006410 10.031153 147.060897 9.948277 147.115385 9.865649 147.169872 9.783277 147.224359 9.701167 147.278846 9.619325 147.333333 9.537758 147.387821 9.456474 147.442308 9.375477 147.496795 9.294777 147.551282 9.214378 147.605769 9.134287 147.660256 9.054512 147.714744 8.975059 147.769231 8.895934 147.823718 8.817144 147.878205 8.738696 147.932692 8.660597 147.987179 8.582853 148.041667 8.505471 148.096154 8.428458 148.150641 8.351819 148.205128 8.275563 148.259615 8.199694 148.314103 8.124222 148.368590 8.049150 148.423077 7.974488 148.477564 7.900240 148.532051 7.826415 148.586538 7.753018 148.641026 7.680056 148.695513 7.607536 148.750000 7.535464 148.804487 7.463847 148.858974 7.392693 148.913462 7.322006 148.967949 7.251795 149.022436 7.182066 149.076923 7.112825 149.131410 7.044079 149.185897 6.975835 149.240385 6.908099 149.294872 6.840879 149.349359 6.774180 149.403846 6.708009 149.458333 6.642374 149.512821 6.577281 149.567308 6.512735 149.621795 6.448745 149.676282 6.385317 149.730769 6.322457 149.785256 6.260172 149.839744 6.198469 149.894231 6.137354 149.948718 6.076835 150.003205 6.016916 150.057692 5.957607 150.112179 5.898912 150.166667 5.840839 150.221154 5.783395 150.275641 5.726585 150.330128 5.670417 150.384615 5.614898 150.439103 5.560033 150.493590 5.505830 150.548077 5.452296 150.602564 5.399436 150.657051 5.347259 150.711538 5.295769 150.766026 5.244975 150.820513 5.194882 150.875000 5.145497 150.929487 5.096827 150.983974 5.048879 151.038462 5.001660 151.092949 4.955175 151.147436 4.909432 151.201923 4.864437 151.256410 4.820197 151.310897 4.776719 151.365385 4.734009 151.419872 4.692074 151.474359 4.650920 151.528846 4.610555 151.583333 4.570985 151.637821 4.532216 151.692308 4.494256 151.746795 4.457110 151.801282 4.420786 151.855769 4.385291 151.910256 4.350630 151.964744 4.316811 152.019231 4.283839 152.073718 4.251723 152.128205 4.220469 152.182692 4.190082 152.237179 4.160571 152.291667 4.131941 152.346154 4.104199 152.400641 4.077352 152.455128 4.051406 152.509615 4.026369 152.564103 4.002247 152.618590 3.979046 152.673077 3.956773 152.727564 3.935435 152.782051 3.915039 152.836538 3.895591 152.891026 3.877097 152.945513 3.859565 153.000000 3.843002 153.054487 3.827413 153.108974 3.812805 153.163462 3.799184 153.217949 3.786547 153.272436 3.774890 153.326923 3.764210 153.381410 3.754502 153.435897 3.745762 153.490385 3.737987 153.544872 3.731172 153.599359 3.725314 153.653846 3.720408 153.708333 3.716451 153.762821 3.713438 153.817308 3.711366 153.871795 3.710231 153.926282 3.710029 153.980769 3.710756 154.035256 3.712407 154.089744 3.714980 154.144231 3.718469 154.198718 3.722872 154.253205 3.728183 154.307692 3.734400 154.362179 3.741518 154.416667 3.749533 154.471154 3.758441 154.525641 3.768239 154.580128 3.778922 154.634615 3.790486 154.689103 3.802928 154.743590 3.816244 154.798077 3.830429 154.852564 3.845479 154.907051 3.861392 154.961538 3.878162 155.016026 3.895785 155.070513 3.914259 155.125000 3.933578 155.179487 3.953739 155.233974 3.974739 155.288462 3.996572 155.342949 4.019235 155.397436 4.042724 155.451923 4.067036 155.506410 4.092165 155.560897 4.118109 155.615385 4.144863 155.669872 4.172424 155.724359 4.200786 155.778846 4.229947 155.833333 4.259903 155.887821 4.290649 155.942308 4.322182 155.996795 4.354497 156.051282 4.387591 156.105769 4.421460 156.160256 4.456099 156.214744 4.491505 156.269231 4.527674 156.323718 4.564602 156.378205 4.602285 156.432692 4.640719 156.487179 4.679900 156.541667 4.719824 156.596154 4.760487 156.650641 4.801885 156.705128 4.844015 156.759615 4.886871 156.814103 4.930451 156.868590 4.974751 156.923077 5.019766 156.977564 5.065492 157.032051 5.111926 157.086538 5.159063 157.141026 5.206900 157.195513 5.255433 157.250000 5.304657 157.304487 5.354569 157.358974 5.405165 157.413462 5.456440 157.467949 5.508392 157.522436 5.561015 157.576923 5.614307 157.631410 5.668262 157.685897 5.722878 157.740385 5.778149 157.794872 5.834073 157.849359 5.890645 157.903846 5.947862 157.958333 6.005718 158.012821 6.064211 158.067308 6.123337 158.121795 6.183090 158.176282 6.243469 158.230769 6.304468 158.285256 6.366083 158.339744 6.428311 158.394231 6.491148 158.448718 6.554590 158.503205 6.618632 158.557692 6.683271 158.612179 6.748503 158.666667 6.814324 158.721154 6.880730 158.775641 6.947717 158.830128 7.015281 158.884615 7.083418 158.939103 7.152125 158.993590 7.221396 159.048077 7.291229 159.102564 7.361619 159.157051 7.432563 159.211538 7.504056 159.266026 7.576094 159.320513 7.648674 159.375000 7.721791 159.429487 7.795442 159.483974 7.869623 159.538462 7.944329 159.592949 8.019557 159.647436 8.095303 159.701923 8.171562 159.756410 8.248332 159.810897 8.325607 159.865385 8.403385 159.919872 8.481660 159.974359 8.560430 160.028846 8.639689 160.083333 8.719435 160.137821 8.799663 160.192308 8.880370 160.246795 8.961550 160.301282 9.043201 160.355769 9.125318 160.410256 9.207898 160.464744 9.290936 160.519231 9.374429 160.573718 9.458373 160.628205 9.542763 160.682692 9.627595 160.737179 9.712867 160.791667 9.798573 160.846154 9.884710 160.900641 9.971274 160.955128 10.058261 161.009615 10.145667 161.064103 10.233487 161.118590 10.321719 161.173077 10.410358 161.227564 10.499400 161.282051 10.588842 161.336538 10.678678 161.391026 10.768906 161.445513 10.859522 161.500000 10.950520 161.554487 11.041898 161.608974 11.133652 161.663462 11.225777 161.717949 11.318270 161.772436 11.411126 161.826923 11.504342 161.881410 11.597914 161.935897 11.691838 161.990385 11.786109 162.044872 11.880724 162.099359 11.975679 162.153846 12.070971 162.208333 12.166594 162.262821 12.262545 162.317308 12.358820 162.371795 12.455416 162.426282 12.552327 162.480769 12.649551 162.535256 12.747083 162.589744 12.844920 162.644231 12.943057 162.698718 13.041490 162.753205 13.140216 162.807692 13.239231 162.862179 13.338530 162.916667 13.438109 162.971154 13.537966 163.025641 13.638095 163.080128 13.738493 163.134615 13.839155 163.189103 13.940079 163.243590 14.041259 163.298077 14.142692 163.352564 14.244375 163.407051 14.346302 163.461538 14.448471 163.516026 14.550877 163.570513 14.653515 163.625000 14.756384 163.679487 14.859477 163.733974 14.962792 163.788462 15.066324 163.842949 15.170070 163.897436 15.274025 163.951923 15.378185 164.006410 15.482548 164.060897 15.587107 164.115385 15.691861 164.169872 15.796804 164.224359 15.901933 164.278846 16.007244 164.333333 16.112733 164.387821 16.218395 164.442308 16.324228 164.496795 16.430226 164.551282 16.536387 164.605769 16.642706 164.660256 16.749179 164.714744 16.855802 164.769231 16.962571 164.823718 17.069483 164.878205 17.176532 164.932692 17.283717 164.987179 17.391032 165.041667 17.498473 165.096154 17.606037 165.150641 17.713719 165.205128 17.821516 165.259615 17.929423 165.314103 18.037438 165.368590 18.145555 165.423077 18.253771 165.477564 18.362082 165.532051 18.470483 165.586538 18.578972 165.641026 18.687544 165.695513 18.796194 165.750000 18.904920 165.804487 19.013717 165.858974 19.122581 165.913462 19.231509 165.967949 19.340495 166.022436 19.449537 166.076923 19.558631 166.131410 19.667772 166.185897 19.776956 166.240385 19.886180 166.294872 19.995439 166.349359 20.104730 166.403846 20.214049 166.458333 20.323391 166.512821 20.432754 166.567308 20.542132 166.621795 20.651521 166.676282 20.760919 166.730769 20.870321" class="line reactive nofill" /></g></g><g class="titles" /><g transform="translate(20, 10)" class="plot overlay"><g class="series serie-0 color-0" /></g><g transform="translate(20, 10)" class="plot text-overlay"><g class="series serie-0 color-0" /></g><g transform="translate(20, 10)" class="plot tooltip-overlay"><g transform="translate(0 0)" style="opacity: 0" class="tooltip"><rect rx="0" ry="0" width="0" height="0" class="tooltip-box" /><g class="text" /></g></g></g></svg>