<?xml version='1.0' encoding='utf-8'?>
<svg xmlns="http://www.w3.org/2000/svg" id="chart-56691029-0aee-4077-8b19-6a54658cd4a5" class="pygal-chart pygal-sparkline" viewBox="0 0 200 50" width="200" height="50"><!--Generated with pygal 3.0.5 (etree) ©Kozea 2012-2016 on 2024-11-17--><!--http://pygal.org--><!--http://github.com/Kozea/pygal--><defs><style type="text/css">#chart-56691029-0aee-4077-8b19-6a54658cd4a5{-webkit-user-select:none;-webkit-font-smoothing:antialiased;font-family:Consolas,"Liberation Mono",Menlo,Courier,monospace}#chart-56691029-0aee-4077-8b19-6a54658cd4a5 .title{font-family:Consolas,"Liberation Mono",Menlo,Courier,monospace;font-size:16px}#chart-56691029-0aee-4077-8b19-6a54658cd4a5 .legends .legend text{font-family:Consolas,"Liberation Mono",Menlo,Courier,monospace;font-size:14px}#chart-56691029-0aee-4077-8b19-6a54658cd4a5 .axis text{font-family:Consolas,"Liberation Mono",Menlo,Courier,monospace;font-size:10px}#chart-56691029-0aee-4077-8b19-6a54658cd4a5 .axis text.major{font-family:Consolas,"Liberation Mono",Menlo,Courier,monospace;font-size:10px}#chart-56691029-0aee-4077-8b19-6a54658cd4a5 .text-overlay text.value{font-family:Consolas,"Liberation Mono",Menlo,Courier,monospace;font-size:16px}#chart-56691029-0aee-4077-8b19-6a54658cd4a5 .text-overlay text.label{font-family:Consolas,"Liberation Mono",Menlo,Courier,monospace;font-size:10px}#chart-56691029-0aee-4077-8b19-6a54658cd4a5 .tooltip{font-family:Consolas,"Liberation Mono",Menlo,Courier,monospace;font-size:14px}#chart-56691029-0aee-4077-8b19-6a54658cd4a5 text.no_data{font-family:Consolas,"Liberation Mono",Menlo,Courier,monospace;font-size:64px}
#chart-56691029-0aee-4077-8b19-6a54658cd4a5{background-color:rgba(249,249,249,1)}#chart-56691029-0aee-4077-8b19-6a54658cd4a5 path,#chart-56691029-0aee-4077-8b19-6a54658cd4a5 line,#chart-56691029-0aee-4077-8b19-6a54658cd4a5 rect,#chart-56691029-0aee-4077-8b19-6a54658cd4a5 circle{-webkit-transition:150ms;-moz-transition:150ms;transition:150ms}#chart-56691029-0aee-4077-8b19-6a54658cd4a5 .graph &gt; .background{fill:rgba(249,249,249,1)}#chart-56691029-0aee-4077-8b19-6a54658cd4a5 .plot &gt; .background{fill:rgba(255,255,255,1)}#chart-56691029-0aee-4077-8b19-6a54658cd4a5 .graph{fill:rgba(0,0,0,.87)}#chart-56691029-0aee-4077-8b19-6a54658cd4a5 text.no_data{fill:rgba(0,0,0,1)}#chart-56691029-0aee-4077-8b19-6a54658cd4a5 .title{fill:rgba(0,0,0,1)}#chart-56691029-0aee-4077-8b19-6a54658cd4a5 .legends .legend text{fill:rgba(0,0,0,.87)}#chart-56691029-0aee-4077-8b19-6a54658cd4a5 .legends .legend:hover text{fill:rgba(0,0,0,1)}#chart-56691029-0aee-4077-8b19-6a54658cd4a5 .axis .line{stroke:rgba(0,0,0,1)}#chart-56691029-0aee-4077-8b19-6a54658cd4a5 .axis .guide.line{stroke:rgba(0,0,0,.54)}#chart-56691029-0aee-4077-8b19-6a54658cd4a5 .axis .major.line{stroke:rgba(0,0,0,.87)}#chart-56691029-0aee-4077-8b19-6a54658cd4a5 .axis text.major{fill:rgba(0,0,0,1)}#chart-56691029-0aee-4077-8b19-6a54658cd4a5 .axis.y .guides:hover .guide.line,#chart-56691029-0aee-4077-8b19-6a54658cd4a5 .line-graph .axis.x .guides:hover .guide.line,#chart-56691029-0aee-4077-8b19-6a54658cd4a5 .stackedline-graph .axis.x .guides:hover .guide.line,#chart-56691029-0aee-4077-8b19-6a54658cd4a5 .xy-graph .axis.x .guides:hover .guide.line{stroke:rgba(0,0,0,1)}#chart-56691029-0aee-4077-8b19-6a54658cd4a5 .axis .guides:hover text{fill:rgba(0,0,0,1)}#chart-56691029-0aee-4077-8b19-6a54658cd4a5 .reactive{fill-opacity:.7;stroke-opacity:.8;stroke-width:1}#chart-56691029-0aee-4077-8b19-6a54658cd4a5 .ci{stroke:rgba(0,0,0,.87)}#chart-56691029-0aee-4077-8b19-6a54658cd4a5 .reactive.active,#chart-56691029-0aee-4077-8b19-6a54658cd4a5 .active .reactive{fill-opacity:.8;stroke-opacity:.9;stroke-width:4}#chart-56691029-0aee-4077-8b19-6a54658cd4a5 .ci .reactive.active{stroke-width:1.5}#chart-56691029-0aee-4077-8b19-6a54658cd4a5 .series text{fill:rgba(0,0,0,1)}#chart-56691029-0aee-4077-8b19-6a54658cd4a5 .tooltip rect{fill:rgba(255,255,255,1);stroke:rgba(0,0,0,1);-webkit-transition:opacity 150ms;-moz-transition:opacity 150ms;transition:opacity 150ms}#chart-56691029-0aee-4077-8b19-6a54658cd4a5 .tooltip .label{fill:rgba(0,0,0,.87)}#chart-56691029-0aee-4077-8b19-6a54658cd4a5 .tooltip .label{fill:rgba(0,0,0,.87)}#chart-56691029-0aee-4077-8b19-6a54658cd4a5 .tooltip .legend{font-size:.8em;fill:rgba(0,0,0,.54)}#chart-56691029-0aee-4077-8b19-6a54658cd4a5 .tooltip .x_label{font-size:.6em;fill:rgba(0,0,0,1)}#chart-56691029-0aee-4077-8b19-6a54658cd4a5 .tooltip .xlink{font-size:.5em;text-decoration:underline}#chart-56691029-0aee-4077-8b19-6a54658cd4a5 .tooltip .value{font-size:1.5em}#chart-56691029-0aee-4077-8b19-6a54658cd4a5 .bound{font-size:.5em}#chart-56691029-0aee-4077-8b19-6a54658cd4a5 .max-value{font-size:.75em;fill:rgba(0,0,0,.54)}#chart-56691029-0aee-4077-8b19-6a54658cd4a5 .map-element{fill:rgba(255,255,255,1);stroke:rgba(0,0,0,.54) !important}#chart-56691029-0aee-4077-8b19-6a54658cd4a5 .map-element .reactive{fill-opacity:inherit;stroke-opacity:inherit}#chart-56691029-0aee-4077-8b19-6a54658cd4a5 .color-0,#chart-56691029-0aee-4077-8b19-6a54658cd4a5 .color-0 a:visited{stroke:#F44336;fill:#F44336}#chart-56691029-0aee-4077-8b19-6a54658cd4a5 .text-overlay .color-0 text{fill:black}
#chart-56691029-0aee-4077-8b19-6a54658cd4a5 text.no_data{text-anchor:middle}#chart-56691029-0aee-4077-8b19-6a54658cd4a5 .guide.line{fill:none}#chart-56691029-0aee-4077-8b19-6a54658cd4a5 .centered{text-anchor:middle}#chart-56691029-0aee-4077-8b19-6a54658cd4a5 .title{text-anchor:middle}#chart-56691029-0aee-4077-8b19-6a54658cd4a5 .legends .legend text{fill-opacity:1}#chart-56691029-0aee-4077-8b19-6a54658cd4a5 .axis.x text{text-anchor:middle}#chart-56691029-0aee-4077-8b19-6a54658cd4a5 .axis.x:not(.web) text[transform]{text-anchor:start}#chart-56691029-0aee-4077-8b19-6a54658cd4a5 .axis.x:not(.web) text[transform].backwards{text-anchor:end}#chart-56691029-0aee-4077-8b19-6a54658cd4a5 .axis.y text{text-anchor:end}#chart-56691029-0aee-4077-8b19-6a54658cd4a5 .axis.y text[transform].backwards{text-anchor:start}#chart-56691029-0aee-4077-8b19-6a54658cd4a5 .axis.y2 text{text-anchor:start}#chart-56691029-0aee-4077-8b19-6a54658cd4a5 .axis.y2 text[transform].backwards{text-anchor:end}#chart-56691029-0aee-4077-8b19-6a54658cd4a5 .axis .guide.line{stroke-dasharray:4,4;stroke:black}#chart-56691029-0aee-4077-8b19-6a54658cd4a5 .axis .major.guide.line{stroke-dasharray:6,6;stroke:black}#chart-56691029-0aee-4077-8b19-6a54658cd4a5 .horizontal .axis.y .guide.line,#chart-56691029-0aee-4077-8b19-6a54658cd4a5 .horizontal .axis.y2 .guide.line,#chart-56691029-0aee-4077-8b19-6a54658cd4a5 .vertical .axis.x .guide.line{opacity:0}#chart-56691029-0aee-4077-8b19-6a54658cd4a5 .horizontal .axis.always_show .guide.line,#chart-56691029-0aee-4077-8b19-6a54658cd4a5 .vertical .axis.always_show .guide.line{opacity:1 !important}#chart-56691029-0aee-4077-8b19-6a54658cd4a5 .axis.y .guides:hover .guide.line,#chart-56691029-0aee-4077-8b19-6a54658cd4a5 .axis.y2 .guides:hover .guide.line,#chart-56691029-0aee-4077-8b19-6a54658cd4a5 .axis.x .guides:hover .guide.line{opacity:1}#chart-56691029-0aee-4077-8b19-6a54658cd4a5 .axis .guides:hover text{opacity:1}#chart-56691029-0aee-4077-8b19-6a54658cd4a5 .nofill{fill:none}#chart-56691029-0aee-4077-8b19-6a54658cd4a5 .subtle-fill{fill-opacity:.2}#chart-56691029-0aee-4077-8b19-6a54658cd4a5 .dot{stroke-width:1px;fill-opacity:1;stroke-opacity:1}#chart-56691029-0aee-4077-8b19-6a54658cd4a5 .dot.active{stroke-width:5px}#chart-56691029-0aee-4077-8b19-6a54658cd4a5 .dot.negative{fill:transparent}#chart-56691029-0aee-4077-8b19-6a54658cd4a5 text,#chart-56691029-0aee-4077-8b19-6a54658cd4a5 tspan{stroke:none !important}#chart-56691029-0aee-4077-8b19-6a54658cd4a5 .series text.active{opacity:1}#chart-56691029-0aee-4077-8b19-6a54658cd4a5 .tooltip rect{fill-opacity:.95;stroke-width:.5}#chart-56691029-0aee-4077-8b19-6a54658cd4a5 .tooltip text{fill-opacity:1}#chart-56691029-0aee-4077-8b19-6a54658cd4a5 .showable{visibility:hidden}#chart-56691029-0aee-4077-8b19-6a54658cd4a5 .showable.shown{visibility:visible}#chart-56691029-0aee-4077-8b19-6a54658cd4a5 .gauge-background{fill:rgba(229,229,229,1);stroke:none}#chart-56691029-0aee-4077-8b19-6a54658cd4a5 .bg-lines{stroke:rgba(249,249,249,1);stroke-width:2px}</style><script type="text/javascript">window.pygal = window.pygal || {};window.pygal.config = window.pygal.config || {};window.pygal.config['56691029-0aee-4077-8b19-6a54658cd4a5'] = {"allow_interruptions": false, "box_mode": "extremes", "classes": ["pygal-chart", "pygal-sparkline"], "css": ["file://style.css", "file://graph.css"], "defs": [], "disable_xml_declaration": false, "dots_size": 2.5, "dynamic_print_values": false, "explicit_size": true, "fill": false, "force_uri_protocol": "https", "formatter": null, "half_pie": false, "height": 50, "include_x_axis": false, "inner_radius": 0, "interpolate": "cubic", "interpolation_parameters": {}, "interpolation_precision": 250, "inverse_y_axis": false, "js": [], "legend_at_bottom": false, "legend_at_bottom_columns": null, "legend_box_size": 12, "logarithmic": false, "margin": 10, "margin_bottom": null, "margin_left": null, "margin_right": null, "margin_top": null, "max_scale": 2, "min_scale": 1, "missing_value_fill_truncation": "x", "no_data_text": "", "no_prefix": false, "order_min": null, "pretty_print": false, "print_labels": false, "print_values": false, "print_values_position": "center", "print_zeroes": true, "range": null, "rounded_bars": null, "secondary_range": null, "show_dots": false, "show_legend": false, "show_minor_x_labels": true, "show_minor_y_labels": true, "show_only_major_dots": false, "show_x_guides": false, "show_x_labels": false, "show_y_guides": true, "show_y_labels": true, "spacing": 0, "stack_from_top": false, "strict": false, "stroke": true, "stroke_style": null, "style": {"background": "rgba(249, 249, 249, 1)", "ci_colors": [], "colors": ["#F44336", "#3F51B5", "#009688", "#FFC107", "#FF5722", "#9C27B0", "#03A9F4", "#8BC34A", "#FF9800", "#E91E63", "#2196F3", "#4CAF50", "#FFEB3B", "#673AB7", "#00BCD4", "#CDDC39", "#9E9E9E", "#607D8B"], "dot_opacity": "1", "font_family": "Consolas, \"Liberation Mono\", Menlo, Courier, monospace", "foreground": "rgba(0, 0, 0, .87)", "foreground_strong": "rgba(0, 0, 0, 1)", "foreground_subtle": "rgba(0, 0, 0, .54)", "guide_stroke_color": "black", "guide_stroke_dasharray": "4,4", "label_font_family": "Consolas, \"Liberation Mono\", Menlo, Courier, monospace", "label_font_size": 10, "legend_font_family": "Consolas, \"Liberation Mono\", Menlo, Courier, monospace", "legend_font_size": 14, "major_guide_stroke_color": "black", "major_guide_stroke_dasharray": "6,6", "major_label_font_family": "Consolas, \"Liberation Mono\", Menlo, Courier, monospace", "major_label_font_size": 10, "no_data_font_family": "Consolas, \"Liberation Mono\", Menlo, Courier, monospace", "no_data_font_size": 64, "opacity": ".7", "opacity_hover": ".8", "plot_background": "rgba(255, 255, 255, 1)", "stroke_opacity": ".8", "stroke_opacity_hover": ".9", "stroke_width": "1", "stroke_width_hover": "4", "title_font_family": "Consolas, \"Liberation Mono\", Menlo, Courier, monospace", "title_font_size": 16, "tooltip_font_family": "Consolas, \"Liberation Mono\", Menlo, Courier, monospace", "tooltip_font_size": 14, "transition": "150ms", "value_background": "rgba(229, 229, 229, 1)", "value_colors": [], "value_font_family": "Consolas, \"Liberation Mono\", Menlo, Courier, monospace", "value_font_size": 16, "value_label_font_family": "Consolas, \"Liberation Mono\", Menlo, Courier, monospace", "value_label_font_size": 10}, "title": null, "tooltip_border_radius": 0, "tooltip_fancy_mode": true, "truncate_label": null, "truncate_legend": null, "width": 200, "x_label_rotation": 0, "x_labels": ["2024/11", "2024/10", "2024/9", "2024/8"], "x_labels_major": null, "x_labels_major_count": null, "x_labels_major_every": null, "x_title": null, "xrange": null, "y_label_rotation": 0, "y_labels": null, "y_labels_major": null, "y_labels_major_count": null, "y_labels_major_every": null, "y_title": null, "zero": 0, "legends": [""]}</script></defs><title>Pygal</title><g class="graph line-graph vertical"><rect x="0" y="0" width="200" height="50" class="background" /><g transform="translate(76, 10)" class="plot"><rect x="0" y="0" width="114.0" height="30" class="background" /><g class="axis y always_show"><path d="M0.000000 30.000000 h114.000000" class="line" /><g class="guides"><path d="M0.000000 29.423077 h114.000000" class="guide line" /><text x="-5" y="32.92307692307692" class="">4.736493824</text><title>4.736493824</title></g><g class="guides"><path d="M0.000000 0.576923 h114.000000" class="guide line" /><text x="-5" y="4.07692307692308" class="">10</text><title>10</title></g></g><g class="series serie-0 color-0"><path d="M2.192308 0.576923 L2.338462 0.718682 2.484615 0.860439 2.630769 1.002189 2.776923 1.143930 2.923077 1.285658 3.069231 1.427371 3.215385 1.569066 3.361538 1.710738 3.507692 1.852387 3.653846 1.994007 3.800000 2.135597 3.946154 2.277152 4.092308 2.418671 4.238462 2.560149 4.384615 2.701585 4.530769 2.842974 4.676923 2.984313 4.823077 3.125600 4.969231 3.266832 5.115385 3.408005 5.261538 3.549116 5.407692 3.690162 5.553846 3.831141 5.700000 3.972048 5.846154 4.112881 5.992308 4.253638 6.138462 4.394314 6.284615 4.534906 6.430769 4.675412 6.576923 4.815829 6.723077 4.956153 6.869231 5.096382 7.015385 5.236511 7.161538 5.376539 7.307692 5.516462 7.453846 5.656277 7.600000 5.795980 7.746154 5.935570 7.892308 6.075042 8.038462 6.214394 8.184615 6.353622 8.330769 6.492724 8.476923 6.631696 8.623077 6.770535 8.769231 6.909239 8.915385 7.047804 9.061538 7.186227 9.207692 7.324504 9.353846 7.462634 9.500000 7.600612 9.646154 7.738436 9.792308 7.876103 9.938462 8.013609 10.084615 8.150951 10.230769 8.288127 10.376923 8.425133 10.523077 8.561966 10.669231 8.698623 10.815385 8.835102 10.961538 8.971398 11.107692 9.107509 11.253846 9.243431 11.400000 9.379163 11.546154 9.514699 11.692308 9.650039 11.838462 9.785177 11.984615 9.920112 12.130769 10.054840 12.276923 10.189359 12.423077 10.323664 12.569231 10.457753 12.715385 10.591623 12.861538 10.725271 13.007692 10.858694 13.153846 10.991888 13.300000 11.124850 13.446154 11.257578 13.592308 11.390069 13.738462 11.522318 13.884615 11.654324 14.030769 11.786083 14.176923 11.917592 14.323077 12.048848 14.469231 12.179847 14.615385 12.310588 14.761538 12.441065 14.907692 12.571278 15.053846 12.701222 15.200000 12.830894 15.346154 12.960292 15.492308 13.089412 15.638462 13.218251 15.784615 13.346806 15.930769 13.475074 16.076923 13.603052 16.223077 13.730736 16.369231 13.858124 16.515385 13.985213 16.661538 14.112000 16.807692 14.238481 16.953846 14.364653 17.100000 14.490513 17.246154 14.616059 17.392308 14.741287 17.538462 14.866193 17.684615 14.990776 17.830769 15.115031 17.976923 15.238956 18.123077 15.362548 18.269231 15.485804 18.415385 15.608719 18.561538 15.731293 18.707692 15.853520 18.853846 15.975399 19.000000 16.096926 19.146154 16.218098 19.292308 16.338912 19.438462 16.459365 19.584615 16.579453 19.730769 16.699174 19.876923 16.818525 20.023077 16.937503 20.169231 17.056103 20.315385 17.174325 20.461538 17.292163 20.607692 17.409616 20.753846 17.526679 20.900000 17.643351 21.046154 17.759628 21.192308 17.875506 21.338462 17.990984 21.484615 18.106056 21.630769 18.220722 21.776923 18.334977 21.923077 18.448818 22.069231 18.562243 22.215385 18.675248 22.361538 18.787830 22.507692 18.899986 22.653846 19.011713 22.800000 19.123008 22.946154 19.233868 23.092308 19.344289 23.238462 19.454269 23.384615 19.563805 23.530769 19.672893 23.676923 19.781530 23.823077 19.889714 23.969231 19.997441 24.115385 20.104708 24.261538 20.211512 24.407692 20.317850 24.553846 20.423718 24.700000 20.529115 24.846154 20.634036 24.992308 20.738479 25.138462 20.842440 25.284615 20.945917 25.430769 21.048906 25.576923 21.151404 25.723077 21.253408 25.869231 21.354916 26.015385 21.455923 26.161538 21.556428 26.307692 21.656426 26.453846 21.755915 26.600000 21.854891 26.746154 21.953352 26.892308 22.051294 27.038462 22.148715 27.184615 22.245611 27.330769 22.341980 27.476923 22.437817 27.623077 22.533121 27.769231 22.627887 27.915385 22.722113 28.061538 22.815796 28.207692 22.908933 28.353846 23.001520 28.500000 23.093555 28.646154 23.185034 28.792308 23.275955 28.938462 23.366313 29.084615 23.456107 29.230769 23.545333 29.376923 23.633988 29.523077 23.722069 29.669231 23.809573 29.815385 23.896496 29.961538 23.982836 30.107692 24.068590 30.253846 24.153754 30.400000 24.238326 30.546154 24.322301 30.692308 24.405678 30.838462 24.488453 30.984615 24.570623 31.130769 24.652185 31.276923 24.733136 31.423077 24.813473 31.569231 24.893192 31.715385 24.972291 31.861538 25.050767 32.007692 25.128616 32.153846 25.205835 32.300000 25.282422 32.446154 25.358372 32.592308 25.433684 32.738462 25.508354 32.884615 25.582379 33.030769 25.655755 33.176923 25.728480 33.323077 25.800551 33.469231 25.871965 33.615385 25.942717 33.761538 26.012807 33.907692 26.082229 34.053846 26.150982 34.200000 26.219062 34.346154 26.286466 34.492308 26.353191 34.638462 26.419234 34.784615 26.484591 34.930769 26.549261 35.076923 26.613239 35.223077 26.676522 35.369231 26.739108 35.515385 26.800993 35.661538 26.862175 35.807692 26.922649 35.953846 26.982414 36.100000 27.041466 36.246154 27.099801 36.392308 27.157418 36.538462 27.214312 36.684615 27.270481 36.830769 27.325921 36.976923 27.380630 37.123077 27.434605 37.269231 27.487841 37.415385 27.540337 37.561538 27.592089 37.707692 27.643094 37.853846 27.693349 38.000000 27.742851 38.146154 27.791597 38.292308 27.839583 38.438462 27.886807 38.584615 27.933266 38.730769 27.978956 38.876923 28.023875 39.023077 28.068026 39.169231 28.111410 39.315385 28.154032 39.461538 28.195892 39.607692 28.236996 39.753846 28.277344 39.900000 28.316940 40.046154 28.355788 40.192308 28.393888 40.338462 28.431246 40.484615 28.467862 40.630769 28.503741 40.776923 28.538884 40.923077 28.573295 41.069231 28.606977 41.215385 28.639931 41.361538 28.672162 41.507692 28.703672 41.653846 28.734463 41.800000 28.764539 41.946154 28.793902 42.092308 28.822555 42.238462 28.850501 42.384615 28.877743 42.530769 28.904283 42.676923 28.930124 42.823077 28.955270 42.969231 28.979723 43.115385 29.003485 43.261538 29.026560 43.407692 29.048950 43.553846 29.070659 43.700000 29.091688 43.846154 29.112041 43.992308 29.131721 44.138462 29.150730 44.284615 29.169071 44.430769 29.186747 44.576923 29.203761 44.723077 29.220116 44.869231 29.235814 45.015385 29.250858 45.161538 29.265251 45.307692 29.278996 45.453846 29.292096 45.600000 29.304553 45.746154 29.316370 45.892308 29.327551 46.038462 29.338097 46.184615 29.348012 46.330769 29.357298 46.476923 29.365959 46.623077 29.373996 46.769231 29.381414 46.915385 29.388214 47.061538 29.394400 47.207692 29.399974 47.353846 29.404939 47.500000 29.409298 47.646154 29.413054 47.792308 29.416209 47.938462 29.418767 48.084615 29.420730 48.230769 29.422100 48.376923 29.422882 48.523077 29.423077 48.669231 29.422688 48.815385 29.421719 48.961538 29.420171 49.107692 29.418049 49.253846 29.415353 49.400000 29.412089 49.546154 29.408257 49.692308 29.403862 49.838462 29.398905 49.984615 29.393390 50.130769 29.387319 50.276923 29.380696 50.423077 29.373522 50.569231 29.365802 50.715385 29.357537 50.861538 29.348730 51.007692 29.339385 51.153846 29.329503 51.300000 29.319089 51.446154 29.308144 51.592308 29.296672 51.738462 29.284675 51.884615 29.272157 52.030769 29.259119 52.176923 29.245564 52.323077 29.231497 52.469231 29.216918 52.615385 29.201832 52.761538 29.186241 52.907692 29.170147 53.053846 29.153554 53.200000 29.136464 53.346154 29.118881 53.492308 29.100806 53.638462 29.082243 53.784615 29.063195 53.930769 29.043664 54.076923 29.023653 54.223077 29.003165 54.369231 28.982203 54.515385 28.960770 54.661538 28.938868 54.807692 28.916500 54.953846 28.893669 55.100000 28.870378 55.246154 28.846630 55.392308 28.822427 55.538462 28.797773 55.684615 28.772669 55.830769 28.747119 55.976923 28.721126 56.123077 28.694692 56.269231 28.667821 56.415385 28.640515 56.561538 28.612776 56.707692 28.584609 56.853846 28.556015 57.000000 28.526997 57.146154 28.497558 57.292308 28.467701 57.438462 28.437429 57.584615 28.406744 57.730769 28.375650 57.876923 28.344148 58.023077 28.312243 58.169231 28.279937 58.315385 28.247232 58.461538 28.214131 58.607692 28.180638 58.753846 28.146754 58.900000 28.112484 59.046154 28.077828 59.192308 28.042792 59.338462 28.007376 59.484615 27.971585 59.630769 27.935420 59.776923 27.898885 59.923077 27.861982 60.069231 27.824715 60.215385 27.787085 60.361538 27.749097 60.507692 27.710752 60.653846 27.672053 60.800000 27.633004 60.946154 27.593607 61.092308 27.553864 61.238462 27.513780 61.384615 27.473356 61.530769 27.432595 61.676923 27.391500 61.823077 27.350074 61.969231 27.308320 62.115385 27.266240 62.261538 27.223838 62.407692 27.181115 62.553846 27.138076 62.700000 27.094722 62.846154 27.051057 62.992308 27.007084 63.138462 26.962804 63.284615 26.918221 63.430769 26.873339 63.576923 26.828158 63.723077 26.782683 63.869231 26.736917 64.015385 26.690861 64.161538 26.644519 64.307692 26.597893 64.453846 26.550988 64.600000 26.503804 64.746154 26.456345 64.892308 26.408614 65.038462 26.360614 65.184615 26.312347 65.330769 26.263816 65.476923 26.215025 65.623077 26.165975 65.769231 26.116670 65.915385 26.067112 66.061538 26.017305 66.207692 25.967251 66.353846 25.916952 66.500000 25.866413 66.646154 25.815634 66.792308 25.764621 66.938462 25.713374 67.084615 25.661897 67.230769 25.610193 67.376923 25.558264 67.523077 25.506114 67.669231 25.453745 67.815385 25.401159 67.961538 25.348361 68.107692 25.295352 68.253846 25.242135 68.400000 25.188714 68.546154 25.135090 68.692308 25.081268 68.838462 25.027249 68.984615 24.973036 69.130769 24.918632 69.276923 24.864041 69.423077 24.809264 69.569231 24.754305 69.715385 24.699166 69.861538 24.643851 70.007692 24.588362 70.153846 24.532701 70.300000 24.476872 70.446154 24.420877 70.592308 24.364720 70.738462 24.308403 70.884615 24.251929 71.030769 24.195300 71.176923 24.138520 71.323077 24.081591 71.469231 24.024516 71.615385 23.967298 71.761538 23.909940 71.907692 23.852444 72.053846 23.794814 72.200000 23.737052 72.346154 23.679160 72.492308 23.621143 72.638462 23.563002 72.784615 23.504740 72.930769 23.446361 73.076923 23.387866 73.223077 23.329259 73.369231 23.270543 73.515385 23.211720 73.661538 23.152793 73.807692 23.093765 73.953846 23.034639 74.100000 22.975418 74.246154 22.916104 74.392308 22.856700 74.538462 22.797210 74.684615 22.737635 74.830769 22.677978 74.976923 22.618244 75.123077 22.558433 75.269231 22.498549 75.415385 22.438595 75.561538 22.378571 75.707692 22.318478 75.853846 22.258315 76.000000 22.198083 76.146154 22.137782 76.292308 22.077413 76.438462 22.016976 76.584615 21.956470 76.730769 21.895898 76.876923 21.835257 77.023077 21.774550 77.169231 21.713776 77.315385 21.652936 77.461538 21.592029 77.607692 21.531056 77.753846 21.470018 77.900000 21.408914 78.046154 21.347745 78.192308 21.286511 78.338462 21.225213 78.484615 21.163851 78.630769 21.102424 78.776923 21.040934 78.923077 20.979381 79.069231 20.917764 79.215385 20.856084 79.361538 20.794342 79.507692 20.732538 79.653846 20.670672 79.800000 20.608743 79.946154 20.546754 80.092308 20.484703 80.238462 20.422591 80.384615 20.360419 80.530769 20.298187 80.676923 20.235894 80.823077 20.173542 80.969231 20.111130 81.115385 20.048659 81.261538 19.986129 81.407692 19.923540 81.553846 19.860893 81.700000 19.798188 81.846154 19.735425 81.992308 19.672604 82.138462 19.609727 82.284615 19.546792 82.430769 19.483801 82.576923 19.420753 82.723077 19.357649 82.869231 19.294490 83.015385 19.231274 83.161538 19.168004 83.307692 19.104678 83.453846 19.041298 83.600000 18.977863 83.746154 18.914375 83.892308 18.850832 84.038462 18.787236 84.184615 18.723586 84.330769 18.659883 84.476923 18.596128 84.623077 18.532320 84.769231 18.468460 84.915385 18.404548 85.061538 18.340585 85.207692 18.276570 85.353846 18.212504 85.500000 18.148387 85.646154 18.084219 85.792308 18.020002 85.938462 17.955734 86.084615 17.891417 86.230769 17.827051 86.376923 17.762635 86.523077 17.698171 86.669231 17.633658 86.815385 17.569096 86.961538 17.504487 87.107692 17.439830 87.253846 17.375126 87.400000 17.310374 87.546154 17.245576 87.692308 17.180731 87.838462 17.115840 87.984615 17.050903 88.130769 16.985920 88.276923 16.920891 88.423077 16.855818 88.569231 16.790699 88.715385 16.725536 88.861538 16.660328 89.007692 16.595077 89.153846 16.529782 89.300000 16.464443 89.446154 16.399061 89.592308 16.333636 89.738462 16.268168 89.884615 16.202658 90.030769 16.137106 90.176923 16.071512 90.323077 16.005877 90.469231 15.940200 90.615385 15.874483 90.761538 15.808724 90.907692 15.742926 91.053846 15.677087 91.200000 15.611208 91.346154 15.545290 91.492308 15.479333 91.638462 15.413336 91.784615 15.347301 91.930769 15.281227 92.076923 15.215115 92.223077 15.148966 92.369231 15.082778 92.515385 15.016554 92.661538 14.950292 92.807692 14.883994 92.953846 14.817659 93.100000 14.751288 93.246154 14.684881 93.392308 14.618438 93.538462 14.551960 93.684615 14.485447 93.830769 14.418899 93.976923 14.352316 94.123077 14.285700 94.269231 14.219049 94.415385 14.152365 94.561538 14.085647 94.707692 14.018897 94.853846 13.952113 95.000000 13.885297 95.146154 13.818448 95.292308 13.751568 95.438462 13.684656 95.584615 13.617712 95.730769 13.550738 95.876923 13.483732 96.023077 13.416696 96.169231 13.349630 96.315385 13.282533 96.461538 13.215407 96.607692 13.148251 96.753846 13.081067 96.900000 13.013853 97.046154 12.946610 97.192308 12.879340 97.338462 12.812041 97.484615 12.744714 97.630769 12.677360 97.776923 12.609979 97.923077 12.542571 98.069231 12.475136 98.215385 12.407675 98.361538 12.340188 98.507692 12.272674 98.653846 12.205136 98.800000 12.137572 98.946154 12.069983 99.092308 12.002369 99.238462 11.934731 99.384615 11.867069 99.530769 11.799383 99.676923 11.731674 99.823077 11.663941 99.969231 11.596185 100.115385 11.528406 100.261538 11.460605 100.407692 11.392782 100.553846 11.324937 100.700000 11.257070 100.846154 11.189182 100.992308 11.121273 101.138462 11.053343 101.284615 10.985393 101.430769 10.917423 101.576923 10.849432 101.723077 10.781422 101.869231 10.713393 102.015385 10.645344 102.161538 10.577277 102.307692 10.509191 102.453846 10.441087 102.600000 10.372965 102.746154 10.304825 102.892308 10.236668 103.038462 10.168494 103.184615 10.100303 103.330769 10.032095 103.476923 9.963871 103.623077 9.895631 103.769231 9.827376 103.915385 9.759105 104.061538 9.690819 104.207692 9.622518 104.353846 9.554202 104.500000 9.485872 104.646154 9.417528 104.792308 9.349170 104.938462 9.280799 105.084615 9.212415 105.230769 9.144017 105.376923 9.075607 105.523077 9.007185 105.669231 8.938751 105.815385 8.870305 105.961538 8.801847 106.107692 8.733378 106.253846 8.664898 106.400000 8.596408 106.546154 8.527907 106.692308 8.459396 106.838462 8.390875 106.984615 8.322345 107.130769 8.253806 107.276923 8.185257 107.423077 8.116700 107.569231 8.048134 107.715385 7.979560 107.861538 7.910979 108.007692 7.842390 108.153846 7.773793 108.300000 7.705189 108.446154 7.636579 108.592308 7.567962 108.738462 7.499340 108.884615 7.430711 109.030769 7.362076 109.176923 7.293437 109.323077 7.224792 109.469231 7.156142 109.615385 7.087488 109.761538 7.018830 109.907692 6.950168 110.053846 6.881502 110.200000 6.812833 110.346154 6.744161 110.492308 6.675485 110.638462 6.606808 110.784615 6.538128 110.930769 6.469446 111.076923 6.400763 111.223077 6.332078 111.369231 6.263392 111.515385 6.194705 111.661538 6.126017 111.807692 6.057330" class="line reactive nofill" /></g></g><g class="titles" /><g transform="translate(76, 10)" class="plot overlay"><g class="series serie-0 color-0" /></g><g transform="translate(76, 10)" class="plot text-overlay"><g class="series serie-0 color-0" /></g><g transform="translate(76, 10)" class="plot tooltip-overlay"><g transform="translate(0 0)" style="opacity: 0" class="tooltip"><rect rx="0" ry="0" width="0" height="0" class="tooltip-box" /><g class="text" /></g></g></g></svg>