<?xml version='1.0' encoding='utf-8'?>
<svg xmlns="http://www.w3.org/2000/svg" id="chart-f212f1ce-8fc0-4c3f-93c2-206b00bff1cd" class="pygal-chart pygal-sparkline" viewBox="0 0 200 50" width="200" height="50"><!--Generated with pygal 3.0.5 (etree) ©Kozea 2012-2016 on 2025-06-01--><!--http://pygal.org--><!--http://github.com/Kozea/pygal--><defs><style type="text/css">#chart-f212f1ce-8fc0-4c3f-93c2-206b00bff1cd{-webkit-user-select:none;-webkit-font-smoothing:antialiased;font-family:Consolas,"Liberation Mono",Menlo,Courier,monospace}#chart-f212f1ce-8fc0-4c3f-93c2-206b00bff1cd .title{font-family:Consolas,"Liberation Mono",Menlo,Courier,monospace;font-size:16px}#chart-f212f1ce-8fc0-4c3f-93c2-206b00bff1cd .legends .legend text{font-family:Consolas,"Liberation Mono",Menlo,Courier,monospace;font-size:14px}#chart-f212f1ce-8fc0-4c3f-93c2-206b00bff1cd .axis text{font-family:Consolas,"Liberation Mono",Menlo,Courier,monospace;font-size:10px}#chart-f212f1ce-8fc0-4c3f-93c2-206b00bff1cd .axis text.major{font-family:Consolas,"Liberation Mono",Menlo,Courier,monospace;font-size:10px}#chart-f212f1ce-8fc0-4c3f-93c2-206b00bff1cd .text-overlay text.value{font-family:Consolas,"Liberation Mono",Menlo,Courier,monospace;font-size:16px}#chart-f212f1ce-8fc0-4c3f-93c2-206b00bff1cd .text-overlay text.label{font-family:Consolas,"Liberation Mono",Menlo,Courier,monospace;font-size:10px}#chart-f212f1ce-8fc0-4c3f-93c2-206b00bff1cd .tooltip{font-family:Consolas,"Liberation Mono",Menlo,Courier,monospace;font-size:14px}#chart-f212f1ce-8fc0-4c3f-93c2-206b00bff1cd text.no_data{font-family:Consolas,"Liberation Mono",Menlo,Courier,monospace;font-size:64px}
#chart-f212f1ce-8fc0-4c3f-93c2-206b00bff1cd{background-color:rgba(249,249,249,1)}#chart-f212f1ce-8fc0-4c3f-93c2-206b00bff1cd path,#chart-f212f1ce-8fc0-4c3f-93c2-206b00bff1cd line,#chart-f212f1ce-8fc0-4c3f-93c2-206b00bff1cd rect,#chart-f212f1ce-8fc0-4c3f-93c2-206b00bff1cd circle{-webkit-transition:150ms;-moz-transition:150ms;transition:150ms}#chart-f212f1ce-8fc0-4c3f-93c2-206b00bff1cd .graph &gt; .background{fill:rgba(249,249,249,1)}#chart-f212f1ce-8fc0-4c3f-93c2-206b00bff1cd .plot &gt; .background{fill:rgba(255,255,255,1)}#chart-f212f1ce-8fc0-4c3f-93c2-206b00bff1cd .graph{fill:rgba(0,0,0,.87)}#chart-f212f1ce-8fc0-4c3f-93c2-206b00bff1cd text.no_data{fill:rgba(0,0,0,1)}#chart-f212f1ce-8fc0-4c3f-93c2-206b00bff1cd .title{fill:rgba(0,0,0,1)}#chart-f212f1ce-8fc0-4c3f-93c2-206b00bff1cd .legends .legend text{fill:rgba(0,0,0,.87)}#chart-f212f1ce-8fc0-4c3f-93c2-206b00bff1cd .legends .legend:hover text{fill:rgba(0,0,0,1)}#chart-f212f1ce-8fc0-4c3f-93c2-206b00bff1cd .axis .line{stroke:rgba(0,0,0,1)}#chart-f212f1ce-8fc0-4c3f-93c2-206b00bff1cd .axis .guide.line{stroke:rgba(0,0,0,.54)}#chart-f212f1ce-8fc0-4c3f-93c2-206b00bff1cd .axis .major.line{stroke:rgba(0,0,0,.87)}#chart-f212f1ce-8fc0-4c3f-93c2-206b00bff1cd .axis text.major{fill:rgba(0,0,0,1)}#chart-f212f1ce-8fc0-4c3f-93c2-206b00bff1cd .axis.y .guides:hover .guide.line,#chart-f212f1ce-8fc0-4c3f-93c2-206b00bff1cd .line-graph .axis.x .guides:hover .guide.line,#chart-f212f1ce-8fc0-4c3f-93c2-206b00bff1cd .stackedline-graph .axis.x .guides:hover .guide.line,#chart-f212f1ce-8fc0-4c3f-93c2-206b00bff1cd .xy-graph .axis.x .guides:hover .guide.line{stroke:rgba(0,0,0,1)}#chart-f212f1ce-8fc0-4c3f-93c2-206b00bff1cd .axis .guides:hover text{fill:rgba(0,0,0,1)}#chart-f212f1ce-8fc0-4c3f-93c2-206b00bff1cd .reactive{fill-opacity:.7;stroke-opacity:.8;stroke-width:1}#chart-f212f1ce-8fc0-4c3f-93c2-206b00bff1cd .ci{stroke:rgba(0,0,0,.87)}#chart-f212f1ce-8fc0-4c3f-93c2-206b00bff1cd .reactive.active,#chart-f212f1ce-8fc0-4c3f-93c2-206b00bff1cd .active .reactive{fill-opacity:.8;stroke-opacity:.9;stroke-width:4}#chart-f212f1ce-8fc0-4c3f-93c2-206b00bff1cd .ci .reactive.active{stroke-width:1.5}#chart-f212f1ce-8fc0-4c3f-93c2-206b00bff1cd .series text{fill:rgba(0,0,0,1)}#chart-f212f1ce-8fc0-4c3f-93c2-206b00bff1cd .tooltip rect{fill:rgba(255,255,255,1);stroke:rgba(0,0,0,1);-webkit-transition:opacity 150ms;-moz-transition:opacity 150ms;transition:opacity 150ms}#chart-f212f1ce-8fc0-4c3f-93c2-206b00bff1cd .tooltip .label{fill:rgba(0,0,0,.87)}#chart-f212f1ce-8fc0-4c3f-93c2-206b00bff1cd .tooltip .label{fill:rgba(0,0,0,.87)}#chart-f212f1ce-8fc0-4c3f-93c2-206b00bff1cd .tooltip .legend{font-size:.8em;fill:rgba(0,0,0,.54)}#chart-f212f1ce-8fc0-4c3f-93c2-206b00bff1cd .tooltip .x_label{font-size:.6em;fill:rgba(0,0,0,1)}#chart-f212f1ce-8fc0-4c3f-93c2-206b00bff1cd .tooltip .xlink{font-size:.5em;text-decoration:underline}#chart-f212f1ce-8fc0-4c3f-93c2-206b00bff1cd .tooltip .value{font-size:1.5em}#chart-f212f1ce-8fc0-4c3f-93c2-206b00bff1cd .bound{font-size:.5em}#chart-f212f1ce-8fc0-4c3f-93c2-206b00bff1cd .max-value{font-size:.75em;fill:rgba(0,0,0,.54)}#chart-f212f1ce-8fc0-4c3f-93c2-206b00bff1cd .map-element{fill:rgba(255,255,255,1);stroke:rgba(0,0,0,.54) !important}#chart-f212f1ce-8fc0-4c3f-93c2-206b00bff1cd .map-element .reactive{fill-opacity:inherit;stroke-opacity:inherit}#chart-f212f1ce-8fc0-4c3f-93c2-206b00bff1cd .color-0,#chart-f212f1ce-8fc0-4c3f-93c2-206b00bff1cd .color-0 a:visited{stroke:#F44336;fill:#F44336}#chart-f212f1ce-8fc0-4c3f-93c2-206b00bff1cd .text-overlay .color-0 text{fill:black}
#chart-f212f1ce-8fc0-4c3f-93c2-206b00bff1cd text.no_data{text-anchor:middle}#chart-f212f1ce-8fc0-4c3f-93c2-206b00bff1cd .guide.line{fill:none}#chart-f212f1ce-8fc0-4c3f-93c2-206b00bff1cd .centered{text-anchor:middle}#chart-f212f1ce-8fc0-4c3f-93c2-206b00bff1cd .title{text-anchor:middle}#chart-f212f1ce-8fc0-4c3f-93c2-206b00bff1cd .legends .legend text{fill-opacity:1}#chart-f212f1ce-8fc0-4c3f-93c2-206b00bff1cd .axis.x text{text-anchor:middle}#chart-f212f1ce-8fc0-4c3f-93c2-206b00bff1cd .axis.x:not(.web) text[transform]{text-anchor:start}#chart-f212f1ce-8fc0-4c3f-93c2-206b00bff1cd .axis.x:not(.web) text[transform].backwards{text-anchor:end}#chart-f212f1ce-8fc0-4c3f-93c2-206b00bff1cd .axis.y text{text-anchor:end}#chart-f212f1ce-8fc0-4c3f-93c2-206b00bff1cd .axis.y text[transform].backwards{text-anchor:start}#chart-f212f1ce-8fc0-4c3f-93c2-206b00bff1cd .axis.y2 text{text-anchor:start}#chart-f212f1ce-8fc0-4c3f-93c2-206b00bff1cd .axis.y2 text[transform].backwards{text-anchor:end}#chart-f212f1ce-8fc0-4c3f-93c2-206b00bff1cd .axis .guide.line{stroke-dasharray:4,4;stroke:black}#chart-f212f1ce-8fc0-4c3f-93c2-206b00bff1cd .axis .major.guide.line{stroke-dasharray:6,6;stroke:black}#chart-f212f1ce-8fc0-4c3f-93c2-206b00bff1cd .horizontal .axis.y .guide.line,#chart-f212f1ce-8fc0-4c3f-93c2-206b00bff1cd .horizontal .axis.y2 .guide.line,#chart-f212f1ce-8fc0-4c3f-93c2-206b00bff1cd .vertical .axis.x .guide.line{opacity:0}#chart-f212f1ce-8fc0-4c3f-93c2-206b00bff1cd .horizontal .axis.always_show .guide.line,#chart-f212f1ce-8fc0-4c3f-93c2-206b00bff1cd .vertical .axis.always_show .guide.line{opacity:1 !important}#chart-f212f1ce-8fc0-4c3f-93c2-206b00bff1cd .axis.y .guides:hover .guide.line,#chart-f212f1ce-8fc0-4c3f-93c2-206b00bff1cd .axis.y2 .guides:hover .guide.line,#chart-f212f1ce-8fc0-4c3f-93c2-206b00bff1cd .axis.x .guides:hover .guide.line{opacity:1}#chart-f212f1ce-8fc0-4c3f-93c2-206b00bff1cd .axis .guides:hover text{opacity:1}#chart-f212f1ce-8fc0-4c3f-93c2-206b00bff1cd .nofill{fill:none}#chart-f212f1ce-8fc0-4c3f-93c2-206b00bff1cd .subtle-fill{fill-opacity:.2}#chart-f212f1ce-8fc0-4c3f-93c2-206b00bff1cd .dot{stroke-width:1px;fill-opacity:1;stroke-opacity:1}#chart-f212f1ce-8fc0-4c3f-93c2-206b00bff1cd .dot.active{stroke-width:5px}#chart-f212f1ce-8fc0-4c3f-93c2-206b00bff1cd .dot.negative{fill:transparent}#chart-f212f1ce-8fc0-4c3f-93c2-206b00bff1cd text,#chart-f212f1ce-8fc0-4c3f-93c2-206b00bff1cd tspan{stroke:none !important}#chart-f212f1ce-8fc0-4c3f-93c2-206b00bff1cd .series text.active{opacity:1}#chart-f212f1ce-8fc0-4c3f-93c2-206b00bff1cd .tooltip rect{fill-opacity:.95;stroke-width:.5}#chart-f212f1ce-8fc0-4c3f-93c2-206b00bff1cd .tooltip text{fill-opacity:1}#chart-f212f1ce-8fc0-4c3f-93c2-206b00bff1cd .showable{visibility:hidden}#chart-f212f1ce-8fc0-4c3f-93c2-206b00bff1cd .showable.shown{visibility:visible}#chart-f212f1ce-8fc0-4c3f-93c2-206b00bff1cd .gauge-background{fill:rgba(229,229,229,1);stroke:none}#chart-f212f1ce-8fc0-4c3f-93c2-206b00bff1cd .bg-lines{stroke:rgba(249,249,249,1);stroke-width:2px}</style><script type="text/javascript">window.pygal = window.pygal || {};window.pygal.config = window.pygal.config || {};window.pygal.config['f212f1ce-8fc0-4c3f-93c2-206b00bff1cd'] = {"allow_interruptions": false, "box_mode": "extremes", "classes": ["pygal-chart", "pygal-sparkline"], "css": ["file://style.css", "file://graph.css"], "defs": [], "disable_xml_declaration": false, "dots_size": 2.5, "dynamic_print_values": false, "explicit_size": true, "fill": false, "force_uri_protocol": "https", "formatter": null, "half_pie": false, "height": 50, "include_x_axis": false, "inner_radius": 0, "interpolate": "cubic", "interpolation_parameters": {}, "interpolation_precision": 250, "inverse_y_axis": false, "js": [], "legend_at_bottom": false, "legend_at_bottom_columns": null, "legend_box_size": 12, "logarithmic": false, "margin": 10, "margin_bottom": null, "margin_left": null, "margin_right": null, "margin_top": null, "max_scale": 2, "min_scale": 1, "missing_value_fill_truncation": "x", "no_data_text": "", "no_prefix": false, "order_min": null, "pretty_print": false, "print_labels": false, "print_values": false, "print_values_position": "center", "print_zeroes": true, "range": null, "rounded_bars": null, "secondary_range": null, "show_dots": false, "show_legend": false, "show_minor_x_labels": true, "show_minor_y_labels": true, "show_only_major_dots": false, "show_x_guides": false, "show_x_labels": false, "show_y_guides": true, "show_y_labels": true, "spacing": 0, "stack_from_top": false, "strict": false, "stroke": true, "stroke_style": null, "style": {"background": "rgba(249, 249, 249, 1)", "ci_colors": [], "colors": ["#F44336", "#3F51B5", "#009688", "#FFC107", "#FF5722", "#9C27B0", "#03A9F4", "#8BC34A", "#FF9800", "#E91E63", "#2196F3", "#4CAF50", "#FFEB3B", "#673AB7", "#00BCD4", "#CDDC39", "#9E9E9E", "#607D8B"], "dot_opacity": "1", "font_family": "Consolas, \"Liberation Mono\", Menlo, Courier, monospace", "foreground": "rgba(0, 0, 0, .87)", "foreground_strong": "rgba(0, 0, 0, 1)", "foreground_subtle": "rgba(0, 0, 0, .54)", "guide_stroke_color": "black", "guide_stroke_dasharray": "4,4", "label_font_family": "Consolas, \"Liberation Mono\", Menlo, Courier, monospace", "label_font_size": 10, "legend_font_family": "Consolas, \"Liberation Mono\", Menlo, Courier, monospace", "legend_font_size": 14, "major_guide_stroke_color": "black", "major_guide_stroke_dasharray": "6,6", "major_label_font_family": "Consolas, \"Liberation Mono\", Menlo, Courier, monospace", "major_label_font_size": 10, "no_data_font_family": "Consolas, \"Liberation Mono\", Menlo, Courier, monospace", "no_data_font_size": 64, "opacity": ".7", "opacity_hover": ".8", "plot_background": "rgba(255, 255, 255, 1)", "stroke_opacity": ".8", "stroke_opacity_hover": ".9", "stroke_width": "1", "stroke_width_hover": "4", "title_font_family": "Consolas, \"Liberation Mono\", Menlo, Courier, monospace", "title_font_size": 16, "tooltip_font_family": "Consolas, \"Liberation Mono\", Menlo, Courier, monospace", "tooltip_font_size": 14, "transition": "150ms", "value_background": "rgba(229, 229, 229, 1)", "value_colors": [], "value_font_family": "Consolas, \"Liberation Mono\", Menlo, Courier, monospace", "value_font_size": 16, "value_label_font_family": "Consolas, \"Liberation Mono\", Menlo, Courier, monospace", "value_label_font_size": 10}, "title": null, "tooltip_border_radius": 0, "tooltip_fancy_mode": true, "truncate_label": null, "truncate_legend": null, "width": 200, "x_label_rotation": 0, "x_labels": ["2025/5", "2025/4", "2025/3", "2025/1"], "x_labels_major": null, "x_labels_major_count": null, "x_labels_major_every": null, "x_title": null, "xrange": null, "y_label_rotation": 0, "y_labels": null, "y_labels_major": null, "y_labels_major_count": null, "y_labels_major_every": null, "y_title": null, "zero": 0, "legends": [""]}</script></defs><title>Pygal</title><g class="graph line-graph vertical"><rect x="0" y="0" width="200" height="50" class="background" /><g transform="translate(76, 10)" class="plot"><rect x="0" y="0" width="114.0" height="30" class="background" /><g class="axis y always_show"><path d="M0.000000 30.000000 h114.000000" class="line" /><g class="guides"><path d="M0.000000 29.423077 h114.000000" class="guide line" /><text x="-5" y="32.92307692307692" class="">1.942479258</text><title>1.942479258</title></g><g class="guides"><path d="M0.000000 0.576923 h114.000000" class="guide line" /><text x="-5" y="4.076923076923077" class="">11.02320609</text><title>11.02320609</title></g></g><g class="series serie-0 color-0"><path d="M2.192308 0.650640 L2.338462 0.648100 2.484615 0.645561 2.630769 0.643029 2.776923 0.640504 2.923077 0.637990 3.069231 0.635489 3.215385 0.633005 3.361538 0.630539 3.507692 0.628095 3.653846 0.625675 3.800000 0.623281 3.946154 0.620918 4.092308 0.618586 4.238462 0.616289 4.384615 0.614030 4.530769 0.611811 4.676923 0.609636 4.823077 0.607505 4.969231 0.605423 5.115385 0.603392 5.261538 0.601415 5.407692 0.599494 5.553846 0.597632 5.700000 0.595832 5.846154 0.594096 5.992308 0.592428 6.138462 0.590829 6.284615 0.589302 6.430769 0.587851 6.576923 0.586477 6.723077 0.585184 6.869231 0.583975 7.015385 0.582851 7.161538 0.581815 7.307692 0.580871 7.453846 0.580021 7.600000 0.579268 7.746154 0.578613 7.892308 0.578061 8.038462 0.577613 8.184615 0.577273 8.330769 0.577043 8.476923 0.576925 8.623077 0.576923 8.769231 0.577039 8.915385 0.577276 9.061538 0.577636 9.207692 0.578122 9.353846 0.578737 9.500000 0.579484 9.646154 0.580364 9.792308 0.581382 9.938462 0.582539 10.084615 0.583839 10.230769 0.585283 10.376923 0.586875 10.523077 0.588617 10.669231 0.590512 10.815385 0.592563 10.961538 0.594772 11.107692 0.597142 11.253846 0.599676 11.400000 0.602377 11.546154 0.605246 11.692308 0.608287 11.838462 0.611502 11.984615 0.614895 12.130769 0.618467 12.276923 0.622222 12.423077 0.626162 12.569231 0.630290 12.715385 0.634609 12.861538 0.639121 13.007692 0.643828 13.153846 0.648734 13.300000 0.653842 13.446154 0.659153 13.592308 0.664671 13.738462 0.670399 13.884615 0.676338 14.030769 0.682492 14.176923 0.688864 14.323077 0.695455 14.469231 0.702269 14.615385 0.709309 14.761538 0.716577 14.907692 0.724075 15.053846 0.731807 15.200000 0.739776 15.346154 0.747983 15.492308 0.756431 15.638462 0.765124 15.784615 0.774064 15.930769 0.783253 16.076923 0.792694 16.223077 0.802391 16.369231 0.812345 16.515385 0.822559 16.661538 0.833037 16.807692 0.843780 16.953846 0.854791 17.100000 0.866074 17.246154 0.877630 17.392308 0.889462 17.538462 0.901574 17.684615 0.913968 17.830769 0.926646 17.976923 0.939611 18.123077 0.952866 18.269231 0.966413 18.415385 0.980256 18.561538 0.994396 18.707692 1.008837 18.853846 1.023582 19.000000 1.038632 19.146154 1.053991 19.292308 1.069661 19.438462 1.085645 19.584615 1.101946 19.730769 1.118566 19.876923 1.135509 20.023077 1.152775 20.169231 1.170370 20.315385 1.188294 20.461538 1.206551 20.607692 1.225144 20.753846 1.244075 20.900000 1.263347 21.046154 1.282962 21.192308 1.302923 21.338462 1.323233 21.484615 1.343895 21.630769 1.364911 21.776923 1.386284 21.923077 1.408016 22.069231 1.430111 22.215385 1.452571 22.361538 1.475398 22.507692 1.498596 22.653846 1.522167 22.800000 1.546113 22.946154 1.570438 23.092308 1.595144 23.238462 1.620234 23.384615 1.645710 23.530769 1.671575 23.676923 1.697832 23.823077 1.724484 23.969231 1.751532 24.115385 1.778981 24.261538 1.806832 24.407692 1.835089 24.553846 1.863753 24.700000 1.892828 24.846154 1.922316 24.992308 1.952220 25.138462 1.982543 25.284615 2.013287 25.430769 2.044455 25.576923 2.076050 25.723077 2.108074 25.869231 2.140530 26.015385 2.173421 26.161538 2.206750 26.307692 2.240518 26.453846 2.274730 26.600000 2.309386 26.746154 2.344491 26.892308 2.380047 27.038462 2.416056 27.184615 2.452522 27.330769 2.489447 27.476923 2.526833 27.623077 2.564683 27.769231 2.603000 27.915385 2.641787 28.061538 2.681046 28.207692 2.720781 28.353846 2.760992 28.500000 2.801685 28.646154 2.842860 28.792308 2.884521 28.938462 2.926671 29.084615 2.969311 29.230769 3.012446 29.376923 3.056076 29.523077 3.100206 29.669231 3.144838 29.815385 3.189975 29.961538 3.235618 30.107692 3.281772 30.253846 3.328438 30.400000 3.375619 30.546154 3.423318 30.692308 3.471538 30.838462 3.520281 30.984615 3.569550 31.130769 3.619348 31.276923 3.669677 31.423077 3.720540 31.569231 3.771940 31.715385 3.823880 31.861538 3.876361 32.007692 3.929387 32.153846 3.982961 32.300000 4.037085 32.446154 4.091761 32.592308 4.146993 32.738462 4.202784 32.884615 4.259135 33.030769 4.316050 33.176923 4.373531 33.323077 4.431581 33.469231 4.490202 33.615385 4.549398 33.761538 4.609171 33.907692 4.669523 34.053846 4.730458 34.200000 4.791978 34.346154 4.854086 34.492308 4.916784 34.638462 4.980075 34.784615 5.043961 34.930769 5.108447 35.076923 5.173533 35.223077 5.239223 35.369231 5.305520 35.515385 5.372426 35.661538 5.439944 35.807692 5.508076 35.953846 5.576826 36.100000 5.646195 36.246154 5.716187 36.392308 5.786804 36.538462 5.858050 36.684615 5.929926 36.830769 6.002435 36.976923 6.075580 37.123077 6.149364 37.269231 6.223790 37.415385 6.298859 37.561538 6.374575 37.707692 6.450941 37.853846 6.527959 38.000000 6.605631 38.146154 6.683961 38.292308 6.762952 38.438462 6.842605 38.584615 6.922923 38.730769 7.003910 38.876923 7.085566 39.023077 7.167886 39.169231 7.250862 39.315385 7.334487 39.461538 7.418753 39.607692 7.503654 39.753846 7.589182 39.900000 7.675329 40.046154 7.762089 40.192308 7.849454 40.338462 7.937417 40.484615 8.025970 40.630769 8.115106 40.776923 8.204818 40.923077 8.295098 41.069231 8.385939 41.215385 8.477334 41.361538 8.569276 41.507692 8.661757 41.653846 8.754770 41.800000 8.848307 41.946154 8.942361 42.092308 9.036926 42.238462 9.131992 42.384615 9.227555 42.530769 9.323605 42.676923 9.420135 42.823077 9.517139 42.969231 9.614609 43.115385 9.712538 43.261538 9.810918 43.407692 9.909742 43.553846 10.009002 43.700000 10.108692 43.846154 10.208804 43.992308 10.309331 44.138462 10.410265 44.284615 10.511600 44.430769 10.613327 44.576923 10.715440 44.723077 10.817930 44.869231 10.920792 45.015385 11.024017 45.161538 11.127598 45.307692 11.231528 45.453846 11.335800 45.600000 11.440406 45.746154 11.545339 45.892308 11.650591 46.038462 11.756156 46.184615 11.862026 46.330769 11.968193 46.476923 12.074651 46.623077 12.181391 46.769231 12.288408 46.915385 12.395692 47.061538 12.503238 47.207692 12.611037 47.353846 12.719083 47.500000 12.827368 47.646154 12.935885 47.792308 13.044626 47.938462 13.153584 48.084615 13.262752 48.230769 13.372123 48.376923 13.481689 48.523077 13.591442 48.669231 13.701376 48.815385 13.811484 48.961538 13.921757 49.107692 14.032189 49.253846 14.142772 49.400000 14.253499 49.546154 14.364363 49.692308 14.475355 49.838462 14.586470 49.984615 14.697700 50.130769 14.809037 50.276923 14.920474 50.423077 15.032004 50.569231 15.143619 50.715385 15.255312 50.861538 15.367076 51.007692 15.478903 51.153846 15.590786 51.300000 15.702719 51.446154 15.814692 51.592308 15.926700 51.738462 16.038735 51.884615 16.150789 52.030769 16.262855 52.176923 16.374927 52.323077 16.486995 52.469231 16.599055 52.615385 16.711097 52.761538 16.823114 52.907692 16.935100 53.053846 17.047047 53.200000 17.158947 53.346154 17.270794 53.492308 17.382580 53.638462 17.494298 53.784615 17.605939 53.930769 17.717498 54.076923 17.828967 54.223077 17.940338 54.369231 18.051604 54.515385 18.162758 54.661538 18.273793 54.807692 18.384700 54.953846 18.495474 55.100000 18.606106 55.246154 18.716589 55.392308 18.826916 55.538462 18.937079 55.684615 19.047072 55.830769 19.156886 55.976923 19.266515 56.123077 19.375952 56.269231 19.485188 56.415385 19.594217 56.561538 19.703032 56.707692 19.811624 56.853846 19.919987 57.000000 20.028113 57.146154 20.135996 57.292308 20.243627 57.438462 20.350999 57.584615 20.458106 57.730769 20.564939 57.876923 20.671492 58.023077 20.777757 58.169231 20.883727 58.315385 20.989394 58.461538 21.094751 58.607692 21.199791 58.753846 21.304507 58.900000 21.408891 59.046154 21.512936 59.192308 21.616634 59.338462 21.719979 59.484615 21.822962 59.630769 21.925577 59.776923 22.027817 59.923077 22.129673 60.069231 22.231139 60.215385 22.332208 60.361538 22.432871 60.507692 22.533122 60.653846 22.632954 60.800000 22.732358 60.946154 22.831329 61.092308 22.929858 61.238462 23.027937 61.384615 23.125561 61.530769 23.222721 61.676923 23.319410 61.823077 23.415621 61.969231 23.511347 62.115385 23.606580 62.261538 23.701312 62.407692 23.795538 62.553846 23.889248 62.700000 23.982436 62.846154 24.075095 62.992308 24.167218 63.138462 24.258796 63.284615 24.349823 63.430769 24.440291 63.576923 24.530193 63.723077 24.619522 63.869231 24.708270 64.015385 24.796430 64.161538 24.883995 64.307692 24.970957 64.453846 25.057310 64.600000 25.143045 64.746154 25.228155 64.892308 25.312634 65.038462 25.396474 65.184615 25.479667 65.330769 25.562206 65.476923 25.644084 65.623077 25.725294 65.769231 25.805828 65.915385 25.885678 66.061538 25.964839 66.207692 26.043301 66.353846 26.121059 66.500000 26.198104 66.646154 26.274429 66.792308 26.350028 66.938462 26.424892 67.084615 26.499014 67.230769 26.572388 67.376923 26.645005 67.523077 26.716859 67.669231 26.787941 67.815385 26.858246 67.961538 26.927764 68.107692 26.996490 68.253846 27.064416 68.400000 27.131534 68.546154 27.197837 68.692308 27.263319 68.838462 27.327970 68.984615 27.391785 69.130769 27.454756 69.276923 27.516875 69.423077 27.578136 69.569231 27.638530 69.715385 27.698051 69.861538 27.756692 70.007692 27.814444 70.153846 27.871301 70.300000 27.927255 70.446154 27.982300 70.592308 28.036427 70.738462 28.089629 70.884615 28.141900 71.030769 28.193231 71.176923 28.243615 71.323077 28.293046 71.469231 28.341515 71.615385 28.389016 71.761538 28.435541 71.907692 28.481083 72.053846 28.525635 72.200000 28.569188 72.346154 28.611737 72.492308 28.653273 72.638462 28.693789 72.784615 28.733278 72.930769 28.771732 73.076923 28.809145 73.223077 28.845509 73.369231 28.880817 73.515385 28.915061 73.661538 28.948233 73.807692 28.980328 73.953846 29.011337 74.100000 29.041253 74.246154 29.070068 74.392308 29.097776 74.538462 29.124369 74.684615 29.149840 74.830769 29.174181 74.976923 29.197386 75.123077 29.219446 75.269231 29.240355 75.415385 29.260106 75.561538 29.278704 75.707692 29.296152 75.853846 29.312455 76.000000 29.327618 76.146154 29.341645 76.292308 29.354541 76.438462 29.366311 76.584615 29.376959 76.730769 29.386490 76.876923 29.394908 77.023077 29.402219 77.169231 29.408426 77.315385 29.413535 77.461538 29.417550 77.607692 29.420475 77.753846 29.422316 77.900000 29.423077 78.046154 29.422762 78.192308 29.421377 78.338462 29.418925 78.484615 29.415413 78.630769 29.410843 78.776923 29.405221 78.923077 29.398551 79.069231 29.390838 79.215385 29.382087 79.361538 29.372303 79.507692 29.361489 79.653846 29.349651 79.800000 29.336793 79.946154 29.322920 80.092308 29.308037 80.238462 29.292147 80.384615 29.275257 80.530769 29.257370 80.676923 29.238491 80.823077 29.218624 80.969231 29.197775 81.115385 29.175948 81.261538 29.153147 81.407692 29.129378 81.553846 29.104644 81.700000 29.078951 81.846154 29.052303 81.992308 29.024705 82.138462 28.996161 82.284615 28.966676 82.430769 28.936255 82.576923 28.904902 82.723077 28.872622 82.869231 28.839420 83.015385 28.805299 83.161538 28.770266 83.307692 28.734324 83.453846 28.697478 83.600000 28.659733 83.746154 28.621094 83.892308 28.581564 84.038462 28.541149 84.184615 28.499854 84.330769 28.457682 84.476923 28.414639 84.623077 28.370729 84.769231 28.325956 84.915385 28.280327 85.061538 28.233844 85.207692 28.186513 85.353846 28.138339 85.500000 28.089325 85.646154 28.039477 85.792308 27.988799 85.938462 27.937297 86.084615 27.884974 86.230769 27.831835 86.376923 27.777884 86.523077 27.723128 86.669231 27.667569 86.815385 27.611213 86.961538 27.554065 87.107692 27.496128 87.253846 27.437408 87.400000 27.377909 87.546154 27.317637 87.692308 27.256594 87.838462 27.194787 87.984615 27.132220 88.130769 27.068897 88.276923 27.004823 88.423077 26.940003 88.569231 26.874442 88.715385 26.808143 88.861538 26.741112 89.007692 26.673353 89.153846 26.604871 89.300000 26.535670 89.446154 26.465756 89.592308 26.395133 89.738462 26.323804 89.884615 26.251776 90.030769 26.179053 90.176923 26.105639 90.323077 26.031539 90.469231 25.956758 90.615385 25.881299 90.761538 25.805169 90.907692 25.728371 91.053846 25.650911 91.200000 25.572792 91.346154 25.494019 91.492308 25.414598 91.638462 25.334532 91.784615 25.253827 91.930769 25.172486 92.076923 25.090516 92.223077 25.007919 92.369231 24.924701 92.515385 24.840867 92.661538 24.756421 92.807692 24.671368 92.953846 24.585712 93.100000 24.499458 93.246154 24.412610 93.392308 24.325175 93.538462 24.237155 93.684615 24.148555 93.830769 24.059381 93.976923 23.969637 94.123077 23.879327 94.269231 23.788456 94.415385 23.697029 94.561538 23.605051 94.707692 23.512525 94.853846 23.419457 95.000000 23.325852 95.146154 23.231713 95.292308 23.137046 95.438462 23.041855 95.584615 22.946145 95.730769 22.849921 95.876923 22.753186 96.023077 22.655947 96.169231 22.558206 96.315385 22.459970 96.461538 22.361242 96.607692 22.262028 96.753846 22.162332 96.900000 22.062158 97.046154 21.961511 97.192308 21.860396 97.338462 21.758818 97.484615 21.656781 97.630769 21.554289 97.776923 21.451348 97.923077 21.347962 98.069231 21.244135 98.215385 21.139873 98.361538 21.035180 98.507692 20.930060 98.653846 20.824519 98.800000 20.718560 98.946154 20.612188 99.092308 20.505409 99.238462 20.398227 99.384615 20.290646 99.530769 20.182671 99.676923 20.074306 99.823077 19.965557 99.969231 19.856427 100.115385 19.746923 100.261538 19.637047 100.407692 19.526805 100.553846 19.416202 100.700000 19.305242 100.846154 19.193929 100.992308 19.082269 101.138462 18.970265 101.284615 18.857924 101.430769 18.745248 101.576923 18.632244 101.723077 18.518915 101.869231 18.405266 102.015385 18.291302 102.161538 18.177028 102.307692 18.062447 102.453846 17.947565 102.600000 17.832387 102.746154 17.716916 102.892308 17.601159 103.038462 17.485118 103.184615 17.368799 103.330769 17.252207 103.476923 17.135346 103.623077 17.018221 103.769231 16.900836 103.915385 16.783196 104.061538 16.665306 104.207692 16.547170 104.353846 16.428793 104.500000 16.310180 104.646154 16.191335 104.792308 16.072263 104.938462 15.952968 105.084615 15.833455 105.230769 15.713730 105.376923 15.593795 105.523077 15.473657 105.669231 15.353320 105.815385 15.232787 105.961538 15.112065 106.107692 14.991157 106.253846 14.870069 106.400000 14.748804 106.546154 14.627368 106.692308 14.505765 106.838462 14.383999 106.984615 14.262077 107.130769 14.140001 107.276923 14.017777 107.423077 13.895409 107.569231 13.772902 107.715385 13.650260 107.861538 13.527489 108.007692 13.404593 108.153846 13.281576 108.300000 13.158443 108.446154 13.035199 108.592308 12.911849 108.738462 12.788396 108.884615 12.664846 109.030769 12.541204 109.176923 12.417473 109.323077 12.293659 109.469231 12.169766 109.615385 12.045799 109.761538 11.921762 109.907692 11.797661 110.053846 11.673499 110.200000 11.549282 110.346154 11.425013 110.492308 11.300699 110.638462 11.176342 110.784615 11.051949 110.930769 10.927523 111.076923 10.803069 111.223077 10.678592 111.369231 10.554096 111.515385 10.429587 111.661538 10.305068 111.807692 10.180545" class="line reactive nofill" /></g></g><g class="titles" /><g transform="translate(76, 10)" class="plot overlay"><g class="series serie-0 color-0" /></g><g transform="translate(76, 10)" class="plot text-overlay"><g class="series serie-0 color-0" /></g><g transform="translate(76, 10)" class="plot tooltip-overlay"><g transform="translate(0 0)" style="opacity: 0" class="tooltip"><rect rx="0" ry="0" width="0" height="0" class="tooltip-box" /><g class="text" /></g></g></g></svg>