<?xml version='1.0' encoding='utf-8'?>
<svg xmlns="http://www.w3.org/2000/svg" id="chart-8b306185-f747-4dbb-aa6c-c1003d63aa0f" class="pygal-chart pygal-sparkline" viewBox="0 0 200 50" width="200" height="50"><!--Generated with pygal 3.0.5 (etree) ©Kozea 2012-2016 on 2025-06-01--><!--http://pygal.org--><!--http://github.com/Kozea/pygal--><defs><style type="text/css">#chart-8b306185-f747-4dbb-aa6c-c1003d63aa0f{-webkit-user-select:none;-webkit-font-smoothing:antialiased;font-family:Consolas,"Liberation Mono",Menlo,Courier,monospace}#chart-8b306185-f747-4dbb-aa6c-c1003d63aa0f .title{font-family:Consolas,"Liberation Mono",Menlo,Courier,monospace;font-size:16px}#chart-8b306185-f747-4dbb-aa6c-c1003d63aa0f .legends .legend text{font-family:Consolas,"Liberation Mono",Menlo,Courier,monospace;font-size:14px}#chart-8b306185-f747-4dbb-aa6c-c1003d63aa0f .axis text{font-family:Consolas,"Liberation Mono",Menlo,Courier,monospace;font-size:10px}#chart-8b306185-f747-4dbb-aa6c-c1003d63aa0f .axis text.major{font-family:Consolas,"Liberation Mono",Menlo,Courier,monospace;font-size:10px}#chart-8b306185-f747-4dbb-aa6c-c1003d63aa0f .text-overlay text.value{font-family:Consolas,"Liberation Mono",Menlo,Courier,monospace;font-size:16px}#chart-8b306185-f747-4dbb-aa6c-c1003d63aa0f .text-overlay text.label{font-family:Consolas,"Liberation Mono",Menlo,Courier,monospace;font-size:10px}#chart-8b306185-f747-4dbb-aa6c-c1003d63aa0f .tooltip{font-family:Consolas,"Liberation Mono",Menlo,Courier,monospace;font-size:14px}#chart-8b306185-f747-4dbb-aa6c-c1003d63aa0f text.no_data{font-family:Consolas,"Liberation Mono",Menlo,Courier,monospace;font-size:64px}
#chart-8b306185-f747-4dbb-aa6c-c1003d63aa0f{background-color:rgba(249,249,249,1)}#chart-8b306185-f747-4dbb-aa6c-c1003d63aa0f path,#chart-8b306185-f747-4dbb-aa6c-c1003d63aa0f line,#chart-8b306185-f747-4dbb-aa6c-c1003d63aa0f rect,#chart-8b306185-f747-4dbb-aa6c-c1003d63aa0f circle{-webkit-transition:150ms;-moz-transition:150ms;transition:150ms}#chart-8b306185-f747-4dbb-aa6c-c1003d63aa0f .graph &gt; .background{fill:rgba(249,249,249,1)}#chart-8b306185-f747-4dbb-aa6c-c1003d63aa0f .plot &gt; .background{fill:rgba(255,255,255,1)}#chart-8b306185-f747-4dbb-aa6c-c1003d63aa0f .graph{fill:rgba(0,0,0,.87)}#chart-8b306185-f747-4dbb-aa6c-c1003d63aa0f text.no_data{fill:rgba(0,0,0,1)}#chart-8b306185-f747-4dbb-aa6c-c1003d63aa0f .title{fill:rgba(0,0,0,1)}#chart-8b306185-f747-4dbb-aa6c-c1003d63aa0f .legends .legend text{fill:rgba(0,0,0,.87)}#chart-8b306185-f747-4dbb-aa6c-c1003d63aa0f .legends .legend:hover text{fill:rgba(0,0,0,1)}#chart-8b306185-f747-4dbb-aa6c-c1003d63aa0f .axis .line{stroke:rgba(0,0,0,1)}#chart-8b306185-f747-4dbb-aa6c-c1003d63aa0f .axis .guide.line{stroke:rgba(0,0,0,.54)}#chart-8b306185-f747-4dbb-aa6c-c1003d63aa0f .axis .major.line{stroke:rgba(0,0,0,.87)}#chart-8b306185-f747-4dbb-aa6c-c1003d63aa0f .axis text.major{fill:rgba(0,0,0,1)}#chart-8b306185-f747-4dbb-aa6c-c1003d63aa0f .axis.y .guides:hover .guide.line,#chart-8b306185-f747-4dbb-aa6c-c1003d63aa0f .line-graph .axis.x .guides:hover .guide.line,#chart-8b306185-f747-4dbb-aa6c-c1003d63aa0f .stackedline-graph .axis.x .guides:hover .guide.line,#chart-8b306185-f747-4dbb-aa6c-c1003d63aa0f .xy-graph .axis.x .guides:hover .guide.line{stroke:rgba(0,0,0,1)}#chart-8b306185-f747-4dbb-aa6c-c1003d63aa0f .axis .guides:hover text{fill:rgba(0,0,0,1)}#chart-8b306185-f747-4dbb-aa6c-c1003d63aa0f .reactive{fill-opacity:.7;stroke-opacity:.8;stroke-width:1}#chart-8b306185-f747-4dbb-aa6c-c1003d63aa0f .ci{stroke:rgba(0,0,0,.87)}#chart-8b306185-f747-4dbb-aa6c-c1003d63aa0f .reactive.active,#chart-8b306185-f747-4dbb-aa6c-c1003d63aa0f .active .reactive{fill-opacity:.8;stroke-opacity:.9;stroke-width:4}#chart-8b306185-f747-4dbb-aa6c-c1003d63aa0f .ci .reactive.active{stroke-width:1.5}#chart-8b306185-f747-4dbb-aa6c-c1003d63aa0f .series text{fill:rgba(0,0,0,1)}#chart-8b306185-f747-4dbb-aa6c-c1003d63aa0f .tooltip rect{fill:rgba(255,255,255,1);stroke:rgba(0,0,0,1);-webkit-transition:opacity 150ms;-moz-transition:opacity 150ms;transition:opacity 150ms}#chart-8b306185-f747-4dbb-aa6c-c1003d63aa0f .tooltip .label{fill:rgba(0,0,0,.87)}#chart-8b306185-f747-4dbb-aa6c-c1003d63aa0f .tooltip .label{fill:rgba(0,0,0,.87)}#chart-8b306185-f747-4dbb-aa6c-c1003d63aa0f .tooltip .legend{font-size:.8em;fill:rgba(0,0,0,.54)}#chart-8b306185-f747-4dbb-aa6c-c1003d63aa0f .tooltip .x_label{font-size:.6em;fill:rgba(0,0,0,1)}#chart-8b306185-f747-4dbb-aa6c-c1003d63aa0f .tooltip .xlink{font-size:.5em;text-decoration:underline}#chart-8b306185-f747-4dbb-aa6c-c1003d63aa0f .tooltip .value{font-size:1.5em}#chart-8b306185-f747-4dbb-aa6c-c1003d63aa0f .bound{font-size:.5em}#chart-8b306185-f747-4dbb-aa6c-c1003d63aa0f .max-value{font-size:.75em;fill:rgba(0,0,0,.54)}#chart-8b306185-f747-4dbb-aa6c-c1003d63aa0f .map-element{fill:rgba(255,255,255,1);stroke:rgba(0,0,0,.54) !important}#chart-8b306185-f747-4dbb-aa6c-c1003d63aa0f .map-element .reactive{fill-opacity:inherit;stroke-opacity:inherit}#chart-8b306185-f747-4dbb-aa6c-c1003d63aa0f .color-0,#chart-8b306185-f747-4dbb-aa6c-c1003d63aa0f .color-0 a:visited{stroke:#F44336;fill:#F44336}#chart-8b306185-f747-4dbb-aa6c-c1003d63aa0f .text-overlay .color-0 text{fill:black}
#chart-8b306185-f747-4dbb-aa6c-c1003d63aa0f text.no_data{text-anchor:middle}#chart-8b306185-f747-4dbb-aa6c-c1003d63aa0f .guide.line{fill:none}#chart-8b306185-f747-4dbb-aa6c-c1003d63aa0f .centered{text-anchor:middle}#chart-8b306185-f747-4dbb-aa6c-c1003d63aa0f .title{text-anchor:middle}#chart-8b306185-f747-4dbb-aa6c-c1003d63aa0f .legends .legend text{fill-opacity:1}#chart-8b306185-f747-4dbb-aa6c-c1003d63aa0f .axis.x text{text-anchor:middle}#chart-8b306185-f747-4dbb-aa6c-c1003d63aa0f .axis.x:not(.web) text[transform]{text-anchor:start}#chart-8b306185-f747-4dbb-aa6c-c1003d63aa0f .axis.x:not(.web) text[transform].backwards{text-anchor:end}#chart-8b306185-f747-4dbb-aa6c-c1003d63aa0f .axis.y text{text-anchor:end}#chart-8b306185-f747-4dbb-aa6c-c1003d63aa0f .axis.y text[transform].backwards{text-anchor:start}#chart-8b306185-f747-4dbb-aa6c-c1003d63aa0f .axis.y2 text{text-anchor:start}#chart-8b306185-f747-4dbb-aa6c-c1003d63aa0f .axis.y2 text[transform].backwards{text-anchor:end}#chart-8b306185-f747-4dbb-aa6c-c1003d63aa0f .axis .guide.line{stroke-dasharray:4,4;stroke:black}#chart-8b306185-f747-4dbb-aa6c-c1003d63aa0f .axis .major.guide.line{stroke-dasharray:6,6;stroke:black}#chart-8b306185-f747-4dbb-aa6c-c1003d63aa0f .horizontal .axis.y .guide.line,#chart-8b306185-f747-4dbb-aa6c-c1003d63aa0f .horizontal .axis.y2 .guide.line,#chart-8b306185-f747-4dbb-aa6c-c1003d63aa0f .vertical .axis.x .guide.line{opacity:0}#chart-8b306185-f747-4dbb-aa6c-c1003d63aa0f .horizontal .axis.always_show .guide.line,#chart-8b306185-f747-4dbb-aa6c-c1003d63aa0f .vertical .axis.always_show .guide.line{opacity:1 !important}#chart-8b306185-f747-4dbb-aa6c-c1003d63aa0f .axis.y .guides:hover .guide.line,#chart-8b306185-f747-4dbb-aa6c-c1003d63aa0f .axis.y2 .guides:hover .guide.line,#chart-8b306185-f747-4dbb-aa6c-c1003d63aa0f .axis.x .guides:hover .guide.line{opacity:1}#chart-8b306185-f747-4dbb-aa6c-c1003d63aa0f .axis .guides:hover text{opacity:1}#chart-8b306185-f747-4dbb-aa6c-c1003d63aa0f .nofill{fill:none}#chart-8b306185-f747-4dbb-aa6c-c1003d63aa0f .subtle-fill{fill-opacity:.2}#chart-8b306185-f747-4dbb-aa6c-c1003d63aa0f .dot{stroke-width:1px;fill-opacity:1;stroke-opacity:1}#chart-8b306185-f747-4dbb-aa6c-c1003d63aa0f .dot.active{stroke-width:5px}#chart-8b306185-f747-4dbb-aa6c-c1003d63aa0f .dot.negative{fill:transparent}#chart-8b306185-f747-4dbb-aa6c-c1003d63aa0f text,#chart-8b306185-f747-4dbb-aa6c-c1003d63aa0f tspan{stroke:none !important}#chart-8b306185-f747-4dbb-aa6c-c1003d63aa0f .series text.active{opacity:1}#chart-8b306185-f747-4dbb-aa6c-c1003d63aa0f .tooltip rect{fill-opacity:.95;stroke-width:.5}#chart-8b306185-f747-4dbb-aa6c-c1003d63aa0f .tooltip text{fill-opacity:1}#chart-8b306185-f747-4dbb-aa6c-c1003d63aa0f .showable{visibility:hidden}#chart-8b306185-f747-4dbb-aa6c-c1003d63aa0f .showable.shown{visibility:visible}#chart-8b306185-f747-4dbb-aa6c-c1003d63aa0f .gauge-background{fill:rgba(229,229,229,1);stroke:none}#chart-8b306185-f747-4dbb-aa6c-c1003d63aa0f .bg-lines{stroke:rgba(249,249,249,1);stroke-width:2px}</style><script type="text/javascript">window.pygal = window.pygal || {};window.pygal.config = window.pygal.config || {};window.pygal.config['8b306185-f747-4dbb-aa6c-c1003d63aa0f'] = {"allow_interruptions": false, "box_mode": "extremes", "classes": ["pygal-chart", "pygal-sparkline"], "css": ["file://style.css", "file://graph.css"], "defs": [], "disable_xml_declaration": false, "dots_size": 2.5, "dynamic_print_values": false, "explicit_size": true, "fill": false, "force_uri_protocol": "https", "formatter": null, "half_pie": false, "height": 50, "include_x_axis": false, "inner_radius": 0, "interpolate": "cubic", "interpolation_parameters": {}, "interpolation_precision": 250, "inverse_y_axis": false, "js": [], "legend_at_bottom": false, "legend_at_bottom_columns": null, "legend_box_size": 12, "logarithmic": false, "margin": 10, "margin_bottom": null, "margin_left": null, "margin_right": null, "margin_top": null, "max_scale": 2, "min_scale": 1, "missing_value_fill_truncation": "x", "no_data_text": "", "no_prefix": false, "order_min": null, "pretty_print": false, "print_labels": false, "print_values": false, "print_values_position": "center", "print_zeroes": true, "range": null, "rounded_bars": null, "secondary_range": null, "show_dots": false, "show_legend": false, "show_minor_x_labels": true, "show_minor_y_labels": true, "show_only_major_dots": false, "show_x_guides": false, "show_x_labels": false, "show_y_guides": true, "show_y_labels": true, "spacing": 0, "stack_from_top": false, "strict": false, "stroke": true, "stroke_style": null, "style": {"background": "rgba(249, 249, 249, 1)", "ci_colors": [], "colors": ["#F44336", "#3F51B5", "#009688", "#FFC107", "#FF5722", "#9C27B0", "#03A9F4", "#8BC34A", "#FF9800", "#E91E63", "#2196F3", "#4CAF50", "#FFEB3B", "#673AB7", "#00BCD4", "#CDDC39", "#9E9E9E", "#607D8B"], "dot_opacity": "1", "font_family": "Consolas, \"Liberation Mono\", Menlo, Courier, monospace", "foreground": "rgba(0, 0, 0, .87)", "foreground_strong": "rgba(0, 0, 0, 1)", "foreground_subtle": "rgba(0, 0, 0, .54)", "guide_stroke_color": "black", "guide_stroke_dasharray": "4,4", "label_font_family": "Consolas, \"Liberation Mono\", Menlo, Courier, monospace", "label_font_size": 10, "legend_font_family": "Consolas, \"Liberation Mono\", Menlo, Courier, monospace", "legend_font_size": 14, "major_guide_stroke_color": "black", "major_guide_stroke_dasharray": "6,6", "major_label_font_family": "Consolas, \"Liberation Mono\", Menlo, Courier, monospace", "major_label_font_size": 10, "no_data_font_family": "Consolas, \"Liberation Mono\", Menlo, Courier, monospace", "no_data_font_size": 64, "opacity": ".7", "opacity_hover": ".8", "plot_background": "rgba(255, 255, 255, 1)", "stroke_opacity": ".8", "stroke_opacity_hover": ".9", "stroke_width": "1", "stroke_width_hover": "4", "title_font_family": "Consolas, \"Liberation Mono\", Menlo, Courier, monospace", "title_font_size": 16, "tooltip_font_family": "Consolas, \"Liberation Mono\", Menlo, Courier, monospace", "tooltip_font_size": 14, "transition": "150ms", "value_background": "rgba(229, 229, 229, 1)", "value_colors": [], "value_font_family": "Consolas, \"Liberation Mono\", Menlo, Courier, monospace", "value_font_size": 16, "value_label_font_family": "Consolas, \"Liberation Mono\", Menlo, Courier, monospace", "value_label_font_size": 10}, "title": null, "tooltip_border_radius": 0, "tooltip_fancy_mode": true, "truncate_label": null, "truncate_legend": null, "width": 200, "x_label_rotation": 0, "x_labels": ["2025/5", "2025/3", "2025/1", "2024/12", "2024/10", "2024/7", "2024/5", "2024/4"], "x_labels_major": null, "x_labels_major_count": null, "x_labels_major_every": null, "x_title": null, "xrange": null, "y_label_rotation": 0, "y_labels": null, "y_labels_major": null, "y_labels_major_count": null, "y_labels_major_every": null, "y_title": null, "zero": 0, "legends": [""]}</script></defs><title>Pygal</title><g class="graph line-graph vertical"><rect x="0" y="0" width="200" height="50" class="background" /><g transform="translate(82, 10)" class="plot"><rect x="0" y="0" width="108.0" height="30" class="background" /><g class="axis y always_show"><path d="M0.000000 30.000000 h108.000000" class="line" /><g class="guides"><path d="M0.000000 29.423077 h108.000000" class="guide line" /><text x="-5" y="32.92307692307692" class="">0.7056162812</text><title>0.7056162812</title></g><g class="guides"><path d="M0.000000 0.576923 h108.000000" class="guide line" /><text x="-5" y="4.076923076923077" class="">7.171145234</text><title>7.171145234</title></g></g><g class="series serie-0 color-0"><path d="M2.076923 1.340493 L2.136264 1.458077 2.195604 1.575658 2.254945 1.693234 2.314286 1.810802 2.373626 1.928359 2.432967 2.045902 2.492308 2.163429 2.551648 2.280937 2.610989 2.398423 2.670330 2.515885 2.729670 2.633319 2.789011 2.750723 2.848352 2.868095 2.907692 2.985432 2.967033 3.102730 3.026374 3.219987 3.085714 3.337201 3.145055 3.454369 3.204396 3.571487 3.263736 3.688554 3.323077 3.805567 3.382418 3.922522 3.441758 4.039418 3.501099 4.156250 3.560440 4.273018 3.619780 4.389717 3.679121 4.506346 3.738462 4.622901 3.797802 4.739380 3.857143 4.855780 3.916484 4.972099 3.975824 5.088333 4.035165 5.204479 4.094505 5.320537 4.153846 5.436501 4.213187 5.552370 4.272527 5.668142 4.331868 5.783812 4.391209 5.899379 4.450549 6.014840 4.509890 6.130192 4.569231 6.245433 4.628571 6.360559 4.687912 6.475568 4.747253 6.590457 4.806593 6.705224 4.865934 6.819866 4.925275 6.934379 4.984615 7.048762 5.043956 7.163012 5.103297 7.277126 5.162637 7.391100 5.221978 7.504934 5.281319 7.618623 5.340659 7.732165 5.400000 7.845557 5.459341 7.958797 5.518681 8.071881 5.578022 8.184808 5.637363 8.297574 5.696703 8.410177 5.756044 8.522614 5.815385 8.634882 5.874725 8.746979 5.934066 8.858901 5.993407 8.970646 6.052747 9.082212 6.112088 9.193596 6.171429 9.304794 6.230769 9.415804 6.290110 9.526624 6.349451 9.637251 6.408791 9.747682 6.468132 9.857914 6.527473 9.967945 6.586813 10.077771 6.646154 10.187391 6.705495 10.296801 6.764835 10.405998 6.824176 10.514981 6.883516 10.623746 6.942857 10.732290 7.002198 10.840611 7.061538 10.948707 7.120879 11.056573 7.180220 11.164209 7.239560 11.271610 7.298901 11.378774 7.358242 11.485699 7.417582 11.592381 7.476923 11.698819 7.536264 11.805009 7.595604 11.910948 7.654945 12.016635 7.714286 12.122065 7.773626 12.227237 7.832967 12.332148 7.892308 12.436794 7.951648 12.541174 8.010989 12.645284 8.070330 12.749122 8.129670 12.852686 8.189011 12.955971 8.248352 13.058976 8.307692 13.161698 8.367033 13.264135 8.426374 13.366282 8.485714 13.468139 8.545055 13.569701 8.604396 13.670967 8.663736 13.771934 8.723077 13.872598 8.782418 13.972957 8.841758 14.073009 8.901099 14.172751 8.960440 14.272179 9.019780 14.371292 9.079121 14.470086 9.138462 14.568559 9.197802 14.666708 9.257143 14.764531 9.316484 14.862024 9.375824 14.959185 9.435165 15.056012 9.494505 15.152500 9.553846 15.248649 9.613187 15.344454 9.672527 15.439914 9.731868 15.535026 9.791209 15.629786 9.850549 15.724192 9.909890 15.818242 9.969231 15.911933 10.028571 16.005261 10.087912 16.098225 10.147253 16.190822 10.206593 16.283048 10.265934 16.374901 10.325275 16.466379 10.384615 16.557478 10.443956 16.648196 10.503297 16.738530 10.562637 16.828478 10.621978 16.918037 10.681319 17.007203 10.740659 17.095975 10.800000 17.184350 10.859341 17.272324 10.918681 17.359896 10.978022 17.447062 11.037363 17.533820 11.096703 17.620166 11.156044 17.706099 11.215385 17.791616 11.274725 17.876713 11.334066 17.961388 11.393407 18.045639 11.452747 18.129462 11.512088 18.212856 11.571429 18.295816 11.630769 18.378341 11.690110 18.460428 11.749451 18.542074 11.808791 18.623276 11.868132 18.704032 11.927473 18.784338 11.986813 18.864193 12.046154 18.943593 12.105495 19.022536 12.164835 19.101019 12.224176 19.179039 12.283516 19.256594 12.342857 19.333680 12.402198 19.410296 12.461538 19.486438 12.520879 19.562104 12.580220 19.637290 12.639560 19.711995 12.698901 19.786215 12.758242 19.859948 12.817582 19.933191 12.876923 20.005942 12.936264 20.078197 12.995604 20.149954 13.054945 20.221210 13.114286 20.291962 13.173626 20.362208 13.232967 20.431945 13.292308 20.501171 13.351648 20.569882 13.410989 20.638076 13.470330 20.705749 13.529670 20.772901 13.589011 20.839527 13.648352 20.905625 13.707692 20.971192 13.767033 21.036225 13.826374 21.100723 13.885714 21.164681 13.945055 21.228098 14.004396 21.290970 14.063736 21.353295 14.123077 21.415071 14.182418 21.476293 14.241758 21.536961 14.301099 21.597071 14.360440 21.656619 14.419780 21.715605 14.479121 21.774024 14.538462 21.831874 14.597802 21.889153 14.657143 21.945857 14.716484 22.001984 14.775824 22.057532 14.835165 22.112497 14.894505 22.166877 14.953846 22.220668 15.013187 22.273870 15.072527 22.326477 15.131868 22.378489 15.191209 22.429902 15.250549 22.480713 15.309890 22.530920 15.369231 22.580520 15.428571 22.629510 15.487912 22.677888 15.547253 22.725651 15.606593 22.772795 15.665934 22.819320 15.725275 22.865220 15.784615 22.910495 15.843956 22.955141 15.903297 22.999156 15.962637 23.042536 16.021978 23.085279 16.081319 23.127383 16.140659 23.168844 16.200000 23.209660 16.259341 23.249828 16.318681 23.289346 16.378022 23.328211 16.437363 23.366419 16.496703 23.403969 16.556044 23.440857 16.615385 23.477082 16.674725 23.512639 16.734066 23.547526 16.793407 23.581742 16.852747 23.615282 16.912088 23.648145 16.971429 23.680328 17.030769 23.711834 17.090110 23.742666 17.149451 23.772827 17.208791 23.802322 17.268132 23.831152 17.327473 23.859322 17.386813 23.886835 17.446154 23.913694 17.505495 23.939902 17.564835 23.965464 17.624176 23.990381 17.683516 24.014658 17.742857 24.038298 17.802198 24.061303 17.861538 24.083679 17.920879 24.105427 17.980220 24.126551 18.039560 24.147055 18.098901 24.166941 18.158242 24.186214 18.217582 24.204876 18.276923 24.222930 18.336264 24.240381 18.395604 24.257232 18.454945 24.273485 18.514286 24.289144 18.573626 24.304213 18.632967 24.318694 18.692308 24.332591 18.751648 24.345908 18.810989 24.358648 18.870330 24.370814 18.929670 24.382409 18.989011 24.393437 19.048352 24.403901 19.107692 24.413804 19.167033 24.423150 19.226374 24.431942 19.285714 24.440184 19.345055 24.447878 19.404396 24.455029 19.463736 24.461638 19.523077 24.467711 19.582418 24.473249 19.641758 24.478257 19.701099 24.482738 19.760440 24.486694 19.819780 24.490130 19.879121 24.493049 19.938462 24.495454 19.997802 24.497348 20.057143 24.498735 20.116484 24.499617 20.175824 24.500000 20.235165 24.499885 20.294505 24.499275 20.353846 24.498176 20.413187 24.496588 20.472527 24.494517 20.531868 24.491966 20.591209 24.488936 20.650549 24.485433 20.709890 24.481460 20.769231 24.477018 20.828571 24.472113 20.887912 24.466748 20.947253 24.460924 21.006593 24.454647 21.065934 24.447919 21.125275 24.440744 21.184615 24.433125 21.243956 24.425065 21.303297 24.416568 21.362637 24.407636 21.421978 24.398274 21.481319 24.388485 21.540659 24.378271 21.600000 24.367637 21.659341 24.356586 21.718681 24.345120 21.778022 24.333244 21.837363 24.320960 21.896703 24.308272 21.956044 24.295184 22.015385 24.281698 22.074725 24.267818 22.134066 24.253547 22.193407 24.238889 22.252747 24.223847 22.312088 24.208424 22.371429 24.192623 22.430769 24.176449 22.490110 24.159903 22.549451 24.142991 22.608791 24.125714 22.668132 24.108077 22.727473 24.090082 22.786813 24.071733 22.846154 24.053033 22.905495 24.033985 22.964835 24.014594 23.024176 23.994862 23.083516 23.974792 23.142857 23.954389 23.202198 23.933654 23.261538 23.912592 23.320879 23.891206 23.380220 23.869499 23.439560 23.847475 23.498901 23.825136 23.558242 23.802487 23.617582 23.779530 23.676923 23.756269 23.736264 23.732707 23.795604 23.708848 23.854945 23.684695 23.914286 23.660251 23.973626 23.635519 24.032967 23.610503 24.092308 23.585206 24.151648 23.559632 24.210989 23.533784 24.270330 23.507665 24.329670 23.481278 24.389011 23.454627 24.448352 23.427715 24.507692 23.400546 24.567033 23.373123 24.626374 23.345448 24.685714 23.317526 24.745055 23.289360 24.804396 23.260953 24.863736 23.232309 24.923077 23.203430 24.982418 23.174321 25.041758 23.144984 25.101099 23.115423 25.160440 23.085640 25.219780 23.055641 25.279121 23.025427 25.338462 22.995002 25.397802 22.964370 25.457143 22.933533 25.516484 22.902496 25.575824 22.871260 25.635165 22.839831 25.694505 22.808211 25.753846 22.776403 25.813187 22.744411 25.872527 22.712238 25.931868 22.679888 25.991209 22.647363 26.050549 22.614667 26.109890 22.581804 26.169231 22.548776 26.228571 22.515588 26.287912 22.482242 26.347253 22.448741 26.406593 22.415090 26.465934 22.381291 26.525275 22.347348 26.584615 22.313264 26.643956 22.279042 26.703297 22.244686 26.762637 22.210199 26.821978 22.175584 26.881319 22.140845 26.940659 22.105985 27.000000 22.071008 27.059341 22.035916 27.118681 22.000713 27.178022 21.965403 27.237363 21.929988 27.296703 21.894472 27.356044 21.858859 27.415385 21.823151 27.474725 21.787352 27.534066 21.751466 27.593407 21.715495 27.652747 21.679443 27.712088 21.643314 27.771429 21.607110 27.830769 21.570835 27.890110 21.534493 27.949451 21.498086 28.008791 21.461618 28.068132 21.425093 28.127473 21.388513 28.186813 21.351882 28.246154 21.315204 28.305495 21.278481 28.364835 21.241717 28.424176 21.204915 28.483516 21.168079 28.542857 21.131212 28.602198 21.094317 28.661538 21.057398 28.720879 21.020458 28.780220 20.983500 28.839560 20.946528 28.898901 20.909544 28.958242 20.872553 29.017582 20.835557 29.076923 20.798561 29.136264 20.761567 29.195604 20.724578 29.254945 20.687598 29.314286 20.650631 29.373626 20.613679 29.432967 20.576746 29.492308 20.539835 29.551648 20.502949 29.610989 20.466093 29.670330 20.429269 29.729670 20.392481 29.789011 20.355731 29.848352 20.319024 29.907692 20.282362 29.967033 20.245749 30.026374 20.209188 30.085714 20.172683 30.145055 20.136237 30.204396 20.099853 30.263736 20.063534 30.323077 20.027284 30.382418 19.991107 30.441758 19.955005 30.501099 19.918982 30.560440 19.883041 30.619780 19.847186 30.679121 19.811419 30.738462 19.775745 30.797802 19.740166 30.857143 19.704686 30.916484 19.669309 30.975824 19.634036 31.035165 19.598873 31.094505 19.563822 31.153846 19.528886 31.213187 19.494069 31.272527 19.459375 31.331868 19.424805 31.391209 19.390365 31.450549 19.356057 31.509890 19.321884 31.569231 19.287850 31.628571 19.253958 31.687912 19.220212 31.747253 19.186614 31.806593 19.153168 31.865934 19.119874 31.925275 19.086731 31.984615 19.053740 32.043956 19.020899 32.103297 18.988209 32.162637 18.955669 32.221978 18.923279 32.281319 18.891039 32.340659 18.858947 32.400000 18.827005 32.459341 18.795212 32.518681 18.763566 32.578022 18.732069 32.637363 18.700719 32.696703 18.669516 32.756044 18.638461 32.815385 18.607552 32.874725 18.576790 32.934066 18.546174 32.993407 18.515703 33.052747 18.485378 33.112088 18.455198 33.171429 18.425162 33.230769 18.395271 33.290110 18.365524 33.349451 18.335921 33.408791 18.306462 33.468132 18.277145 33.527473 18.247972 33.586813 18.218941 33.646154 18.190052 33.705495 18.161305 33.764835 18.132699 33.824176 18.104235 33.883516 18.075912 33.942857 18.047729 34.002198 18.019687 34.061538 17.991784 34.120879 17.964021 34.180220 17.936398 34.239560 17.908913 34.298901 17.881567 34.358242 17.854360 34.417582 17.827290 34.476923 17.800358 34.536264 17.773564 34.595604 17.746907 34.654945 17.720386 34.714286 17.694002 34.773626 17.667754 34.832967 17.641641 34.892308 17.615664 34.951648 17.589823 35.010989 17.564116 35.070330 17.538543 35.129670 17.513105 35.189011 17.487800 35.248352 17.462630 35.307692 17.437592 35.367033 17.412687 35.426374 17.387915 35.485714 17.363275 35.545055 17.338767 35.604396 17.314390 35.663736 17.290145 35.723077 17.266031 35.782418 17.242048 35.841758 17.218194 35.901099 17.194471 35.960440 17.170878 36.019780 17.147413 36.079121 17.124078 36.138462 17.100872 36.197802 17.077794 36.257143 17.054844 36.316484 17.032022 36.375824 17.009327 36.435165 16.986760 36.494505 16.964319 36.553846 16.942005 36.613187 16.919816 36.672527 16.897754 36.731868 16.875817 36.791209 16.854006 36.850549 16.832319 36.909890 16.810757 36.969231 16.789319 37.028571 16.768005 37.087912 16.746814 37.147253 16.725747 37.206593 16.704803 37.265934 16.683981 37.325275 16.663282 37.384615 16.642704 37.443956 16.622249 37.503297 16.601914 37.562637 16.581701 37.621978 16.561609 37.681319 16.541636 37.740659 16.521784 37.800000 16.502052 37.859341 16.482439 37.918681 16.462945 37.978022 16.443570 38.037363 16.424313 38.096703 16.405175 38.156044 16.386154 38.215385 16.367251 38.274725 16.348465 38.334066 16.329796 38.393407 16.311243 38.452747 16.292806 38.512088 16.274486 38.571429 16.256281 38.630769 16.238191 38.690110 16.220216 38.749451 16.202356 38.808791 16.184610 38.868132 16.166978 38.927473 16.149460 38.986813 16.132055 39.046154 16.114763 39.105495 16.097584 39.164835 16.080517 39.224176 16.063562 39.283516 16.046719 39.342857 16.029987 39.402198 16.013367 39.461538 15.996857 39.520879 15.980457 39.580220 15.964168 39.639560 15.947988 39.698901 15.931918 39.758242 15.915957 39.817582 15.900105 39.876923 15.884362 39.936264 15.868726 39.995604 15.853199 40.054945 15.837779 40.114286 15.822466 40.173626 15.807260 40.232967 15.792161 40.292308 15.777168 40.351648 15.762281 40.410989 15.747500 40.470330 15.732824 40.529670 15.718253 40.589011 15.703786 40.648352 15.689424 40.707692 15.675166 40.767033 15.661012 40.826374 15.646961 40.885714 15.633013 40.945055 15.619168 41.004396 15.605425 41.063736 15.591785 41.123077 15.578246 41.182418 15.564808 41.241758 15.551472 41.301099 15.538237 41.360440 15.525102 41.419780 15.512067 41.479121 15.499132 41.538462 15.486296 41.597802 15.473560 41.657143 15.460923 41.716484 15.448384 41.775824 15.435944 41.835165 15.423601 41.894505 15.411356 41.953846 15.399209 42.013187 15.387158 42.072527 15.375204 42.131868 15.363346 42.191209 15.351585 42.250549 15.339919 42.309890 15.328348 42.369231 15.316872 42.428571 15.305491 42.487912 15.294205 42.547253 15.283013 42.606593 15.271914 42.665934 15.260909 42.725275 15.249997 42.784615 15.239177 42.843956 15.228451 42.903297 15.217816 42.962637 15.207273 43.021978 15.196822 43.081319 15.186462 43.140659 15.176192 43.200000 15.166014 43.259341 15.155925 43.318681 15.145927 43.378022 15.136018 43.437363 15.126198 43.496703 15.116467 43.556044 15.106825 43.615385 15.097271 43.674725 15.087806 43.734066 15.078427 43.793407 15.069137 43.852747 15.059933 43.912088 15.050816 43.971429 15.041785 44.030769 15.032840 44.090110 15.023982 44.149451 15.015208 44.208791 15.006520 44.268132 14.997916 44.327473 14.989397 44.386813 14.980962 44.446154 14.972611 44.505495 14.964343 44.564835 14.956159 44.624176 14.948057 44.683516 14.940038 44.742857 14.932101 44.802198 14.924246 44.861538 14.916472 44.920879 14.908780 44.980220 14.901169 45.039560 14.893638 45.098901 14.886188 45.158242 14.878817 45.217582 14.871527 45.276923 14.864315 45.336264 14.857183 45.395604 14.850129 45.454945 14.843154 45.514286 14.836256 45.573626 14.829437 45.632967 14.822695 45.692308 14.816029 45.751648 14.809441 45.810989 14.802929 45.870330 14.796493 45.929670 14.790133 45.989011 14.783849 46.048352 14.777639 46.107692 14.771505 46.167033 14.765445 46.226374 14.759459 46.285714 14.753547 46.345055 14.747708 46.404396 14.741943 46.463736 14.736251 46.523077 14.730631 46.582418 14.725084 46.641758 14.719609 46.701099 14.714207 46.760440 14.708880 46.819780 14.703629 46.879121 14.698455 46.938462 14.693360 46.997802 14.688346 47.057143 14.683413 47.116484 14.678563 47.175824 14.673797 47.235165 14.669117 47.294505 14.664525 47.353846 14.660020 47.413187 14.655606 47.472527 14.651283 47.531868 14.647052 47.591209 14.642916 47.650549 14.638875 47.709890 14.634930 47.769231 14.631084 47.828571 14.627338 47.887912 14.623692 47.947253 14.620148 48.006593 14.616709 48.065934 14.613374 48.125275 14.610146 48.184615 14.607025 48.243956 14.604014 48.303297 14.601113 48.362637 14.598324 48.421978 14.595649 48.481319 14.593088 48.540659 14.590643 48.600000 14.588316 48.659341 14.586107 48.718681 14.584019 48.778022 14.582052 48.837363 14.580209 48.896703 14.578489 48.956044 14.576896 49.015385 14.575429 49.074725 14.574091 49.134066 14.572883 49.193407 14.571806 49.252747 14.570862 49.312088 14.570051 49.371429 14.569376 49.430769 14.568838 49.490110 14.568438 49.549451 14.568178 49.608791 14.568058 49.668132 14.568081 49.727473 14.568247 49.786813 14.568558 49.846154 14.569016 49.905495 14.569622 49.964835 14.570377 50.024176 14.571282 50.083516 14.572339 50.142857 14.573549 50.202198 14.574915 50.261538 14.576436 50.320879 14.578115 50.380220 14.579952 50.439560 14.581950 50.498901 14.584109 50.558242 14.586431 50.617582 14.588918 50.676923 14.591570 50.736264 14.594390 50.795604 14.597377 50.854945 14.600535 50.914286 14.603864 50.973626 14.607366 51.032967 14.611041 51.092308 14.614892 51.151648 14.618920 51.210989 14.623126 51.270330 14.627511 51.329670 14.632077 51.389011 14.636826 51.448352 14.641758 51.507692 14.646875 51.567033 14.652178 51.626374 14.657670 51.685714 14.663350 51.745055 14.669221 51.804396 14.675284 51.863736 14.681540 51.923077 14.687991 51.982418 14.694638 52.041758 14.701482 52.101099 14.708526 52.160440 14.715769 52.219780 14.723214 52.279121 14.730862 52.338462 14.738714 52.397802 14.746772 52.457143 14.755037 52.516484 14.763510 52.575824 14.772194 52.635165 14.781088 52.694505 14.790195 52.753846 14.799516 52.813187 14.809053 52.872527 14.818806 52.931868 14.828777 52.991209 14.838968 53.050549 14.849380 53.109890 14.860014 53.169231 14.870871 53.228571 14.881954 53.287912 14.893263 53.347253 14.904800 53.406593 14.916566 53.465934 14.928562 53.525275 14.940790 53.584615 14.953252 53.643956 14.965948 53.703297 14.978881 53.762637 14.992050 53.821978 15.005459 53.881319 15.019107 53.940659 15.032998 54.000000 15.047131 54.059341 15.061508 54.118681 15.076132 54.178022 15.091002 54.237363 15.106121 54.296703 15.121489 54.356044 15.137109 54.415385 15.152981 54.474725 15.169108 54.534066 15.185490 54.593407 15.202128 54.652747 15.219024 54.712088 15.236180 54.771429 15.253597 54.830769 15.271276 54.890110 15.289219 54.949451 15.307427 55.008791 15.325901 55.068132 15.344643 55.127473 15.363654 55.186813 15.382935 55.246154 15.402489 55.305495 15.422316 55.364835 15.442417 55.424176 15.462794 55.483516 15.483449 55.542857 15.504383 55.602198 15.525596 55.661538 15.547092 55.720879 15.568870 55.780220 15.590932 55.839560 15.613281 55.898901 15.635916 55.958242 15.658840 56.017582 15.682053 56.076923 15.705558 56.136264 15.729355 56.195604 15.753446 56.254945 15.777833 56.314286 15.802516 56.373626 15.827498 56.432967 15.852779 56.492308 15.878360 56.551648 15.904244 56.610989 15.930432 56.670330 15.956924 56.729670 15.983723 56.789011 16.010830 56.848352 16.038246 56.907692 16.065972 56.967033 16.094010 57.026374 16.122362 57.085714 16.151028 57.145055 16.180010 57.204396 16.209310 57.263736 16.238928 57.323077 16.268866 57.382418 16.299126 57.441758 16.329709 57.501099 16.360617 57.560440 16.391849 57.619780 16.423409 57.679121 16.455298 57.738462 16.487516 57.797802 16.520065 57.857143 16.552947 57.916484 16.586163 57.975824 16.619714 58.035165 16.653602 58.094505 16.687828 58.153846 16.722394 58.213187 16.757300 58.272527 16.792549 58.331868 16.828141 58.391209 16.864078 58.450549 16.900361 58.509890 16.936992 58.569231 16.973973 58.628571 17.011303 58.687912 17.048986 58.747253 17.087022 58.806593 17.125413 58.865934 17.164159 58.925275 17.203263 58.984615 17.242726 59.043956 17.282549 59.103297 17.322733 59.162637 17.363280 59.221978 17.404192 59.281319 17.445469 59.340659 17.487114 59.400000 17.529126 59.459341 17.571509 59.518681 17.614262 59.578022 17.657389 59.637363 17.700889 59.696703 17.744764 59.756044 17.789017 59.815385 17.833647 59.874725 17.878657 59.934066 17.924047 59.993407 17.969820 60.052747 18.015976 60.112088 18.062518 60.171429 18.109445 60.230769 18.156761 60.290110 18.204465 60.349451 18.252560 60.408791 18.301047 60.468132 18.349927 60.527473 18.399202 60.586813 18.448872 60.646154 18.498940 60.705495 18.549407 60.764835 18.600274 60.824176 18.651543 60.883516 18.703214 60.942857 18.755290 61.002198 18.807771 61.061538 18.860659 61.120879 18.913956 61.180220 18.967663 61.239560 19.021780 61.298901 19.076311 61.358242 19.131255 61.417582 19.186614 61.476923 19.242389 61.536264 19.298574 61.595604 19.355161 61.654945 19.412144 61.714286 19.469517 61.773626 19.527271 61.832967 19.585401 61.892308 19.643899 61.951648 19.702759 62.010989 19.761973 62.070330 19.821535 62.129670 19.881437 62.189011 19.941673 62.248352 20.002236 62.307692 20.063119 62.367033 20.124315 62.426374 20.185817 62.485714 20.247619 62.545055 20.309712 62.604396 20.372092 62.663736 20.434749 62.723077 20.497679 62.782418 20.560873 62.841758 20.624325 62.901099 20.688027 62.960440 20.751974 63.019780 20.816158 63.079121 20.880572 63.138462 20.945209 63.197802 21.010062 63.257143 21.075125 63.316484 21.140391 63.375824 21.205852 63.435165 21.271502 63.494505 21.337333 63.553846 21.403340 63.613187 21.469514 63.672527 21.535850 63.731868 21.602340 63.791209 21.668977 63.850549 21.735754 63.909890 21.802665 63.969231 21.869702 64.028571 21.936859 64.087912 22.004129 64.147253 22.071504 64.206593 22.138979 64.265934 22.206545 64.325275 22.274197 64.384615 22.341926 64.443956 22.409727 64.503297 22.477593 64.562637 22.545515 64.621978 22.613489 64.681319 22.681506 64.740659 22.749559 64.800000 22.817643 64.859341 22.885749 64.918681 22.953872 64.978022 23.022003 65.037363 23.090137 65.096703 23.158266 65.156044 23.226383 65.215385 23.294482 65.274725 23.362555 65.334066 23.430596 65.393407 23.498598 65.452747 23.566554 65.512088 23.634456 65.571429 23.702299 65.630769 23.770075 65.690110 23.837776 65.749451 23.905397 65.808791 23.972931 65.868132 24.040370 65.927473 24.107708 65.986813 24.174937 66.046154 24.242051 66.105495 24.309043 66.164835 24.375905 66.224176 24.442632 66.283516 24.509216 66.342857 24.575650 66.402198 24.641927 66.461538 24.708041 66.520879 24.773985 66.580220 24.839750 66.639560 24.905332 66.698901 24.970722 66.758242 25.035914 66.817582 25.100901 66.876923 25.165676 66.936264 25.230233 66.995604 25.294563 67.054945 25.358661 67.114286 25.422519 67.173626 25.486131 67.232967 25.549489 67.292308 25.612587 67.351648 25.675417 67.410989 25.737974 67.470330 25.800249 67.529670 25.862237 67.589011 25.923930 67.648352 25.985321 67.707692 26.046403 67.767033 26.107169 67.826374 26.167614 67.885714 26.227728 67.945055 26.287507 68.004396 26.346942 68.063736 26.406027 68.123077 26.464755 68.182418 26.523119 68.241758 26.581112 68.301099 26.638728 68.360440 26.695958 68.419780 26.752798 68.479121 26.809238 68.538462 26.865274 68.597802 26.920897 68.657143 26.976100 68.716484 27.030878 68.775824 27.085223 68.835165 27.139127 68.894505 27.192585 68.953846 27.245589 69.013187 27.298133 69.072527 27.350209 69.131868 27.401810 69.191209 27.452930 69.250549 27.503562 69.309890 27.553698 69.369231 27.603333 69.428571 27.652458 69.487912 27.701068 69.547253 27.749154 69.606593 27.796711 69.665934 27.843731 69.725275 27.890208 69.784615 27.936134 69.843956 27.981503 69.903297 28.026307 69.962637 28.070541 70.021978 28.114196 70.081319 28.157266 70.140659 28.199744 70.200000 28.241624 70.259341 28.282898 70.318681 28.323559 70.378022 28.363600 70.437363 28.403015 70.496703 28.441797 70.556044 28.479938 70.615385 28.517433 70.674725 28.554273 70.734066 28.590452 70.793407 28.625963 70.852747 28.660800 70.912088 28.694954 70.971429 28.728421 71.030769 28.761191 71.090110 28.793259 71.149451 28.824618 71.208791 28.855260 71.268132 28.885180 71.327473 28.914369 71.386813 28.942821 71.446154 28.970529 71.505495 28.997487 71.564835 29.023687 71.624176 29.049122 71.683516 29.073785 71.742857 29.097670 71.802198 29.120770 71.861538 29.143078 71.920879 29.164586 71.980220 29.185289 72.039560 29.205178 72.098901 29.224247 72.158242 29.242490 72.217582 29.259899 72.276923 29.276467 72.336264 29.292188 72.395604 29.307055 72.454945 29.321060 72.514286 29.334196 72.573626 29.346458 72.632967 29.357838 72.692308 29.368328 72.751648 29.377923 72.810989 29.386615 72.870330 29.394397 72.929670 29.401263 72.989011 29.407205 73.048352 29.412217 73.107692 29.416291 73.167033 29.419421 73.226374 29.421600 73.285714 29.422821 73.345055 29.423077 73.404396 29.422361 73.463736 29.420666 73.523077 29.417986 73.582418 29.414313 73.641758 29.409640 73.701099 29.403962 73.760440 29.397269 73.819780 29.389557 73.879121 29.380817 73.938462 29.371044 73.997802 29.360229 74.057143 29.348367 74.116484 29.335450 74.175824 29.321471 74.235165 29.306423 74.294505 29.290300 74.353846 29.273095 74.413187 29.254800 74.472527 29.235409 74.531868 29.214915 74.591209 29.193311 74.650549 29.170590 74.709890 29.146745 74.769231 29.121770 74.828571 29.095656 74.887912 29.068398 74.947253 29.039989 75.006593 29.010421 75.065934 28.979688 75.125275 28.947783 75.184615 28.914699 75.243956 28.880428 75.303297 28.844965 75.362637 28.808302 75.421978 28.770432 75.481319 28.731348 75.540659 28.691044 75.600000 28.649512 75.659341 28.606746 75.718681 28.562739 75.778022 28.517483 75.837363 28.470973 75.896703 28.423200 75.956044 28.374159 76.015385 28.323841 76.074725 28.272241 76.134066 28.219351 76.193407 28.165165 76.252747 28.109675 76.312088 28.052878 76.371429 27.994781 76.430769 27.935396 76.490110 27.874732 76.549451 27.812802 76.608791 27.749615 76.668132 27.685183 76.727473 27.619517 76.786813 27.552627 76.846154 27.484523 76.905495 27.415218 76.964835 27.344722 77.024176 27.273046 77.083516 27.200199 77.142857 27.126195 77.202198 27.051042 77.261538 26.974752 77.320879 26.897336 77.380220 26.818805 77.439560 26.739169 77.498901 26.658440 77.558242 26.576628 77.617582 26.493743 77.676923 26.409798 77.736264 26.324802 77.795604 26.238767 77.854945 26.151703 77.914286 26.063621 77.973626 25.974533 78.032967 25.884448 78.092308 25.793377 78.151648 25.701333 78.210989 25.608324 78.270330 25.514363 78.329670 25.419460 78.389011 25.323626 78.448352 25.226871 78.507692 25.129207 78.567033 25.030644 78.626374 24.931193 78.685714 24.830866 78.745055 24.729672 78.804396 24.627623 78.863736 24.524729 78.923077 24.421002 78.982418 24.316452 79.041758 24.211090 79.101099 24.104927 79.160440 23.997974 79.219780 23.890241 79.279121 23.781740 79.338462 23.672481 79.397802 23.562474 79.457143 23.451732 79.516484 23.340265 79.575824 23.228082 79.635165 23.115197 79.694505 23.001618 79.753846 22.887358 79.813187 22.772426 79.872527 22.656835 79.931868 22.540593 79.991209 22.423714 80.050549 22.306206 80.109890 22.188081 80.169231 22.069351 80.228571 21.950025 80.287912 21.830114 80.347253 21.709630 80.406593 21.588584 80.465934 21.466985 80.525275 21.344845 80.584615 21.222175 80.643956 21.098986 80.703297 20.975288 80.762637 20.851092 80.821978 20.726409 80.881319 20.601251 80.940659 20.475627 81.000000 20.349548 81.059341 20.223026 81.118681 20.096071 81.178022 19.968695 81.237363 19.840907 81.296703 19.712719 81.356044 19.584142 81.415385 19.455186 81.474725 19.325862 81.534066 19.196181 81.593407 19.066155 81.652747 18.935793 81.712088 18.805107 81.771429 18.674107 81.830769 18.542804 81.890110 18.411210 81.949451 18.279334 82.008791 18.147188 82.068132 18.014783 82.127473 17.882130 82.186813 17.749238 82.246154 17.616120 82.305495 17.482786 82.364835 17.349246 82.424176 17.215512 82.483516 17.081595 82.542857 16.947505 82.602198 16.813253 82.661538 16.678850 82.720879 16.544306 82.780220 16.409634 82.839560 16.274843 82.898901 16.139944 82.958242 16.004948 83.017582 15.869866 83.076923 15.734709 83.136264 15.599488 83.195604 15.464213 83.254945 15.328896 83.314286 15.193546 83.373626 15.058176 83.432967 14.922795 83.492308 14.787416 83.551648 14.652047 83.610989 14.516701 83.670330 14.381388 83.729670 14.246119 83.789011 14.110905 83.848352 13.975757 83.907692 13.840685 83.967033 13.705700 84.026374 13.570814 84.085714 13.436036 84.145055 13.301379 84.204396 13.166852 84.263736 13.032466 84.323077 12.898233 84.382418 12.764163 84.441758 12.630268 84.501099 12.496556 84.560440 12.363041 84.619780 12.229732 84.679121 12.096641 84.738462 11.963778 84.797802 11.831153 84.857143 11.698779 84.916484 11.566665 84.975824 11.434823 85.035165 11.303263 85.094505 11.171996 85.153846 11.041034 85.213187 10.910386 85.272527 10.780064 85.331868 10.650079 85.391209 10.520440 85.450549 10.391160 85.509890 10.262250 85.569231 10.133719 85.628571 10.005578 85.687912 9.877839 85.747253 9.750513 85.806593 9.623610 85.865934 9.497141 85.925275 9.371117 85.984615 9.245548 86.043956 9.120446 86.103297 8.995822 86.162637 8.871685 86.221978 8.748048 86.281319 8.624921 86.340659 8.502314 86.400000 8.380239 86.459341 8.258706 86.518681 8.137727 86.578022 8.017312 86.637363 7.897471 86.696703 7.778216 86.756044 7.659558 86.815385 7.541507 86.874725 7.424075 86.934066 7.307272 86.993407 7.191108 87.052747 7.075595 87.112088 6.960744 87.171429 6.846565 87.230769 6.733070 87.290110 6.620269 87.349451 6.508172 87.408791 6.396791 87.468132 6.286137 87.527473 6.176221 87.586813 6.067052 87.646154 5.958643 87.705495 5.851003 87.764835 5.744145 87.824176 5.638078 87.883516 5.532813 87.942857 5.428362 88.002198 5.324735 88.061538 5.221942 88.120879 5.119996 88.180220 5.018906 88.239560 4.918684 88.298901 4.819340 88.358242 4.720885 88.417582 4.623330 88.476923 4.526685 88.536264 4.430963 88.595604 4.336172 88.654945 4.242326 88.714286 4.149433 88.773626 4.057505 88.832967 3.966553 88.892308 3.876588 88.951648 3.787620 89.010989 3.699660 89.070330 3.612720 89.129670 3.526809 89.189011 3.441940 89.248352 3.358121 89.307692 3.275366 89.367033 3.193684 89.426374 3.113086 89.485714 3.033582 89.545055 2.955185 89.604396 2.877905 89.663736 2.801751 89.723077 2.726737 89.782418 2.652871 89.841758 2.580165 89.901099 2.508630 89.960440 2.438277 90.019780 2.369116 90.079121 2.301159 90.138462 2.234416 90.197802 2.168898 90.257143 2.104615 90.316484 2.041580 90.375824 1.979801 90.435165 1.919292 90.494505 1.860061 90.553846 1.802120 90.613187 1.745481 90.672527 1.690152 90.731868 1.636147 90.791209 1.583475 90.850549 1.532146 90.909890 1.482173 90.969231 1.433566 91.028571 1.386336 91.087912 1.340493 91.147253 1.296045 91.206593 1.252991 91.265934 1.211323 91.325275 1.171038 91.384615 1.132128 91.443956 1.094588 91.503297 1.058414 91.562637 1.023598 91.621978 0.990136 91.681319 0.958023 91.740659 0.927251 91.800000 0.897817 91.859341 0.869713 91.918681 0.842936 91.978022 0.817478 92.037363 0.793335 92.096703 0.770501 92.156044 0.748970 92.215385 0.728736 92.274725 0.709795 92.334066 0.692140 92.393407 0.675766 92.452747 0.660668 92.512088 0.646839 92.571429 0.634274 92.630769 0.622968 92.690110 0.612915 92.749451 0.604109 92.808791 0.596545 92.868132 0.590217 92.927473 0.585119 92.986813 0.581247 93.046154 0.578594 93.105495 0.577154 93.164835 0.576923 93.224176 0.577894 93.283516 0.580063 93.342857 0.583423 93.402198 0.587968 93.461538 0.593694 93.520879 0.600595 93.580220 0.608664 93.639560 0.617897 93.698901 0.628288 93.758242 0.639831 93.817582 0.652521 93.876923 0.666351 93.936264 0.681318 93.995604 0.697414 94.054945 0.714634 94.114286 0.732973 94.173626 0.752425 94.232967 0.772985 94.292308 0.794646 94.351648 0.817404 94.410989 0.841253 94.470330 0.866187 94.529670 0.892200 94.589011 0.919287 94.648352 0.947443 94.707692 0.976661 94.767033 1.006936 94.826374 1.038263 94.885714 1.070636 94.945055 1.104050 95.004396 1.138498 95.063736 1.173975 95.123077 1.210476 95.182418 1.247995 95.241758 1.286527 95.301099 1.326065 95.360440 1.366604 95.419780 1.408139 95.479121 1.450665 95.538462 1.494174 95.597802 1.538663 95.657143 1.584124 95.716484 1.630554 95.775824 1.677945 95.835165 1.726293 95.894505 1.775592 95.953846 1.825836 96.013187 1.877019 96.072527 1.929137 96.131868 1.982184 96.191209 2.036153 96.250549 2.091040 96.309890 2.146838 96.369231 2.203542 96.428571 2.261148 96.487912 2.319647 96.547253 2.379037 96.606593 2.439310 96.665934 2.500461 96.725275 2.562485 96.784615 2.625376 96.843956 2.689128 96.903297 2.753736 96.962637 2.819194 97.021978 2.885497 97.081319 2.952639 97.140659 3.020614 97.200000 3.089418 97.259341 3.159043 97.318681 3.229485 97.378022 3.300738 97.437363 3.372796 97.496703 3.445655 97.556044 3.519307 97.615385 3.593749 97.674725 3.668973 97.734066 3.744975 97.793407 3.821749 97.852747 3.899289 97.912088 3.977590 97.971429 4.056645 98.030769 4.136451 98.090110 4.217000 98.149451 4.298288 98.208791 4.380308 98.268132 4.463056 98.327473 4.546525 98.386813 4.630710 98.446154 4.715606 98.505495 4.801206 98.564835 4.887505 98.624176 4.974498 98.683516 5.062179 98.742857 5.150543 98.802198 5.239583 98.861538 5.329294 98.920879 5.419671 98.980220 5.510708 99.039560 5.602400 99.098901 5.694740 99.158242 5.787724 99.217582 5.881345 99.276923 5.975598 99.336264 6.070478 99.395604 6.165978 99.454945 6.262094 99.514286 6.358820 99.573626 6.456150 99.632967 6.554078 99.692308 6.652599 99.751648 6.751707 99.810989 6.851397 99.870330 6.951664 99.929670 7.052500 99.989011 7.153902 100.048352 7.255863 100.107692 7.358378 100.167033 7.461441 100.226374 7.565046 100.285714 7.669189 100.345055 7.773863 100.404396 7.879062 100.463736 7.984782 100.523077 8.091017 100.582418 8.197760 100.641758 8.305007 100.701099 8.412752 100.760440 8.520989 100.819780 8.629712 100.879121 8.738917 100.938462 8.848597 100.997802 8.958746 101.057143 9.069361 101.116484 9.180433 101.175824 9.291959 101.235165 9.403933 101.294505 9.516348 101.353846 9.629199 101.413187 9.742481 101.472527 9.856189 101.531868 9.970315 101.591209 10.084856 101.650549 10.199805 101.709890 10.315157 101.769231 10.430906 101.828571 10.547046 101.887912 10.663573 101.947253 10.780479 102.006593 10.897761 102.065934 11.015411 102.125275 11.133426 102.184615 11.251798 102.243956 11.370523 102.303297 11.489594 102.362637 11.609007 102.421978 11.728755 102.481319 11.848833 102.540659 11.969236 102.600000 12.089957 102.659341 12.210992 102.718681 12.332334 102.778022 12.453978 102.837363 12.575919 102.896703 12.698151 102.956044 12.820668 103.015385 12.943465 103.074725 13.066535 103.134066 13.189874 103.193407 13.313477 103.252747 13.437336 103.312088 13.561447 103.371429 13.685804 103.430769 13.810402 103.490110 13.935235 103.549451 14.060297 103.608791 14.185582 103.668132 14.311086 103.727473 14.436802 103.786813 14.562726 103.846154 14.688851 103.905495 14.815171 103.964835 14.941682 104.024176 15.068377 104.083516 15.195251 104.142857 15.322299 104.202198 15.449514 104.261538 15.576892 104.320879 15.704426 104.380220 15.832112 104.439560 15.959942 104.498901 16.087913 104.558242 16.216018 104.617582 16.344251 104.676923 16.472608 104.736264 16.601082 104.795604 16.729667 104.854945 16.858360 104.914286 16.987152 104.973626 17.116040 105.032967 17.245018 105.092308 17.374079 105.151648 17.503219 105.210989 17.632431 105.270330 17.761710 105.329670 17.891051 105.389011 18.020448 105.448352 18.149895 105.507692 18.279387 105.567033 18.408918 105.626374 18.538483 105.685714 18.668076 105.745055 18.797691 105.804396 18.927323 105.863736 19.056966 105.923077 19.186614" class="line reactive nofill" /></g></g><g class="titles" /><g transform="translate(82, 10)" class="plot overlay"><g class="series serie-0 color-0" /></g><g transform="translate(82, 10)" class="plot text-overlay"><g class="series serie-0 color-0" /></g><g transform="translate(82, 10)" class="plot tooltip-overlay"><g transform="translate(0 0)" style="opacity: 0" class="tooltip"><rect rx="0" ry="0" width="0" height="0" class="tooltip-box" /><g class="text" /></g></g></g></svg>