<?xml version='1.0' encoding='utf-8'?>
<svg xmlns="http://www.w3.org/2000/svg" id="chart-8e261f17-15ac-4c63-a60e-b84b63b8aa18" class="pygal-chart pygal-sparkline" viewBox="0 0 200 50" width="200" height="50"><!--Generated with pygal 3.0.5 (etree) ©Kozea 2012-2016 on 2025-03-16--><!--http://pygal.org--><!--http://github.com/Kozea/pygal--><defs><style type="text/css">#chart-8e261f17-15ac-4c63-a60e-b84b63b8aa18{-webkit-user-select:none;-webkit-font-smoothing:antialiased;font-family:Consolas,"Liberation Mono",Menlo,Courier,monospace}#chart-8e261f17-15ac-4c63-a60e-b84b63b8aa18 .title{font-family:Consolas,"Liberation Mono",Menlo,Courier,monospace;font-size:16px}#chart-8e261f17-15ac-4c63-a60e-b84b63b8aa18 .legends .legend text{font-family:Consolas,"Liberation Mono",Menlo,Courier,monospace;font-size:14px}#chart-8e261f17-15ac-4c63-a60e-b84b63b8aa18 .axis text{font-family:Consolas,"Liberation Mono",Menlo,Courier,monospace;font-size:10px}#chart-8e261f17-15ac-4c63-a60e-b84b63b8aa18 .axis text.major{font-family:Consolas,"Liberation Mono",Menlo,Courier,monospace;font-size:10px}#chart-8e261f17-15ac-4c63-a60e-b84b63b8aa18 .text-overlay text.value{font-family:Consolas,"Liberation Mono",Menlo,Courier,monospace;font-size:16px}#chart-8e261f17-15ac-4c63-a60e-b84b63b8aa18 .text-overlay text.label{font-family:Consolas,"Liberation Mono",Menlo,Courier,monospace;font-size:10px}#chart-8e261f17-15ac-4c63-a60e-b84b63b8aa18 .tooltip{font-family:Consolas,"Liberation Mono",Menlo,Courier,monospace;font-size:14px}#chart-8e261f17-15ac-4c63-a60e-b84b63b8aa18 text.no_data{font-family:Consolas,"Liberation Mono",Menlo,Courier,monospace;font-size:64px}
#chart-8e261f17-15ac-4c63-a60e-b84b63b8aa18{background-color:rgba(249,249,249,1)}#chart-8e261f17-15ac-4c63-a60e-b84b63b8aa18 path,#chart-8e261f17-15ac-4c63-a60e-b84b63b8aa18 line,#chart-8e261f17-15ac-4c63-a60e-b84b63b8aa18 rect,#chart-8e261f17-15ac-4c63-a60e-b84b63b8aa18 circle{-webkit-transition:150ms;-moz-transition:150ms;transition:150ms}#chart-8e261f17-15ac-4c63-a60e-b84b63b8aa18 .graph &gt; .background{fill:rgba(249,249,249,1)}#chart-8e261f17-15ac-4c63-a60e-b84b63b8aa18 .plot &gt; .background{fill:rgba(255,255,255,1)}#chart-8e261f17-15ac-4c63-a60e-b84b63b8aa18 .graph{fill:rgba(0,0,0,.87)}#chart-8e261f17-15ac-4c63-a60e-b84b63b8aa18 text.no_data{fill:rgba(0,0,0,1)}#chart-8e261f17-15ac-4c63-a60e-b84b63b8aa18 .title{fill:rgba(0,0,0,1)}#chart-8e261f17-15ac-4c63-a60e-b84b63b8aa18 .legends .legend text{fill:rgba(0,0,0,.87)}#chart-8e261f17-15ac-4c63-a60e-b84b63b8aa18 .legends .legend:hover text{fill:rgba(0,0,0,1)}#chart-8e261f17-15ac-4c63-a60e-b84b63b8aa18 .axis .line{stroke:rgba(0,0,0,1)}#chart-8e261f17-15ac-4c63-a60e-b84b63b8aa18 .axis .guide.line{stroke:rgba(0,0,0,.54)}#chart-8e261f17-15ac-4c63-a60e-b84b63b8aa18 .axis .major.line{stroke:rgba(0,0,0,.87)}#chart-8e261f17-15ac-4c63-a60e-b84b63b8aa18 .axis text.major{fill:rgba(0,0,0,1)}#chart-8e261f17-15ac-4c63-a60e-b84b63b8aa18 .axis.y .guides:hover .guide.line,#chart-8e261f17-15ac-4c63-a60e-b84b63b8aa18 .line-graph .axis.x .guides:hover .guide.line,#chart-8e261f17-15ac-4c63-a60e-b84b63b8aa18 .stackedline-graph .axis.x .guides:hover .guide.line,#chart-8e261f17-15ac-4c63-a60e-b84b63b8aa18 .xy-graph .axis.x .guides:hover .guide.line{stroke:rgba(0,0,0,1)}#chart-8e261f17-15ac-4c63-a60e-b84b63b8aa18 .axis .guides:hover text{fill:rgba(0,0,0,1)}#chart-8e261f17-15ac-4c63-a60e-b84b63b8aa18 .reactive{fill-opacity:.7;stroke-opacity:.8;stroke-width:1}#chart-8e261f17-15ac-4c63-a60e-b84b63b8aa18 .ci{stroke:rgba(0,0,0,.87)}#chart-8e261f17-15ac-4c63-a60e-b84b63b8aa18 .reactive.active,#chart-8e261f17-15ac-4c63-a60e-b84b63b8aa18 .active .reactive{fill-opacity:.8;stroke-opacity:.9;stroke-width:4}#chart-8e261f17-15ac-4c63-a60e-b84b63b8aa18 .ci .reactive.active{stroke-width:1.5}#chart-8e261f17-15ac-4c63-a60e-b84b63b8aa18 .series text{fill:rgba(0,0,0,1)}#chart-8e261f17-15ac-4c63-a60e-b84b63b8aa18 .tooltip rect{fill:rgba(255,255,255,1);stroke:rgba(0,0,0,1);-webkit-transition:opacity 150ms;-moz-transition:opacity 150ms;transition:opacity 150ms}#chart-8e261f17-15ac-4c63-a60e-b84b63b8aa18 .tooltip .label{fill:rgba(0,0,0,.87)}#chart-8e261f17-15ac-4c63-a60e-b84b63b8aa18 .tooltip .label{fill:rgba(0,0,0,.87)}#chart-8e261f17-15ac-4c63-a60e-b84b63b8aa18 .tooltip .legend{font-size:.8em;fill:rgba(0,0,0,.54)}#chart-8e261f17-15ac-4c63-a60e-b84b63b8aa18 .tooltip .x_label{font-size:.6em;fill:rgba(0,0,0,1)}#chart-8e261f17-15ac-4c63-a60e-b84b63b8aa18 .tooltip .xlink{font-size:.5em;text-decoration:underline}#chart-8e261f17-15ac-4c63-a60e-b84b63b8aa18 .tooltip .value{font-size:1.5em}#chart-8e261f17-15ac-4c63-a60e-b84b63b8aa18 .bound{font-size:.5em}#chart-8e261f17-15ac-4c63-a60e-b84b63b8aa18 .max-value{font-size:.75em;fill:rgba(0,0,0,.54)}#chart-8e261f17-15ac-4c63-a60e-b84b63b8aa18 .map-element{fill:rgba(255,255,255,1);stroke:rgba(0,0,0,.54) !important}#chart-8e261f17-15ac-4c63-a60e-b84b63b8aa18 .map-element .reactive{fill-opacity:inherit;stroke-opacity:inherit}#chart-8e261f17-15ac-4c63-a60e-b84b63b8aa18 .color-0,#chart-8e261f17-15ac-4c63-a60e-b84b63b8aa18 .color-0 a:visited{stroke:#F44336;fill:#F44336}#chart-8e261f17-15ac-4c63-a60e-b84b63b8aa18 .text-overlay .color-0 text{fill:black}
#chart-8e261f17-15ac-4c63-a60e-b84b63b8aa18 text.no_data{text-anchor:middle}#chart-8e261f17-15ac-4c63-a60e-b84b63b8aa18 .guide.line{fill:none}#chart-8e261f17-15ac-4c63-a60e-b84b63b8aa18 .centered{text-anchor:middle}#chart-8e261f17-15ac-4c63-a60e-b84b63b8aa18 .title{text-anchor:middle}#chart-8e261f17-15ac-4c63-a60e-b84b63b8aa18 .legends .legend text{fill-opacity:1}#chart-8e261f17-15ac-4c63-a60e-b84b63b8aa18 .axis.x text{text-anchor:middle}#chart-8e261f17-15ac-4c63-a60e-b84b63b8aa18 .axis.x:not(.web) text[transform]{text-anchor:start}#chart-8e261f17-15ac-4c63-a60e-b84b63b8aa18 .axis.x:not(.web) text[transform].backwards{text-anchor:end}#chart-8e261f17-15ac-4c63-a60e-b84b63b8aa18 .axis.y text{text-anchor:end}#chart-8e261f17-15ac-4c63-a60e-b84b63b8aa18 .axis.y text[transform].backwards{text-anchor:start}#chart-8e261f17-15ac-4c63-a60e-b84b63b8aa18 .axis.y2 text{text-anchor:start}#chart-8e261f17-15ac-4c63-a60e-b84b63b8aa18 .axis.y2 text[transform].backwards{text-anchor:end}#chart-8e261f17-15ac-4c63-a60e-b84b63b8aa18 .axis .guide.line{stroke-dasharray:4,4;stroke:black}#chart-8e261f17-15ac-4c63-a60e-b84b63b8aa18 .axis .major.guide.line{stroke-dasharray:6,6;stroke:black}#chart-8e261f17-15ac-4c63-a60e-b84b63b8aa18 .horizontal .axis.y .guide.line,#chart-8e261f17-15ac-4c63-a60e-b84b63b8aa18 .horizontal .axis.y2 .guide.line,#chart-8e261f17-15ac-4c63-a60e-b84b63b8aa18 .vertical .axis.x .guide.line{opacity:0}#chart-8e261f17-15ac-4c63-a60e-b84b63b8aa18 .horizontal .axis.always_show .guide.line,#chart-8e261f17-15ac-4c63-a60e-b84b63b8aa18 .vertical .axis.always_show .guide.line{opacity:1 !important}#chart-8e261f17-15ac-4c63-a60e-b84b63b8aa18 .axis.y .guides:hover .guide.line,#chart-8e261f17-15ac-4c63-a60e-b84b63b8aa18 .axis.y2 .guides:hover .guide.line,#chart-8e261f17-15ac-4c63-a60e-b84b63b8aa18 .axis.x .guides:hover .guide.line{opacity:1}#chart-8e261f17-15ac-4c63-a60e-b84b63b8aa18 .axis .guides:hover text{opacity:1}#chart-8e261f17-15ac-4c63-a60e-b84b63b8aa18 .nofill{fill:none}#chart-8e261f17-15ac-4c63-a60e-b84b63b8aa18 .subtle-fill{fill-opacity:.2}#chart-8e261f17-15ac-4c63-a60e-b84b63b8aa18 .dot{stroke-width:1px;fill-opacity:1;stroke-opacity:1}#chart-8e261f17-15ac-4c63-a60e-b84b63b8aa18 .dot.active{stroke-width:5px}#chart-8e261f17-15ac-4c63-a60e-b84b63b8aa18 .dot.negative{fill:transparent}#chart-8e261f17-15ac-4c63-a60e-b84b63b8aa18 text,#chart-8e261f17-15ac-4c63-a60e-b84b63b8aa18 tspan{stroke:none !important}#chart-8e261f17-15ac-4c63-a60e-b84b63b8aa18 .series text.active{opacity:1}#chart-8e261f17-15ac-4c63-a60e-b84b63b8aa18 .tooltip rect{fill-opacity:.95;stroke-width:.5}#chart-8e261f17-15ac-4c63-a60e-b84b63b8aa18 .tooltip text{fill-opacity:1}#chart-8e261f17-15ac-4c63-a60e-b84b63b8aa18 .showable{visibility:hidden}#chart-8e261f17-15ac-4c63-a60e-b84b63b8aa18 .showable.shown{visibility:visible}#chart-8e261f17-15ac-4c63-a60e-b84b63b8aa18 .gauge-background{fill:rgba(229,229,229,1);stroke:none}#chart-8e261f17-15ac-4c63-a60e-b84b63b8aa18 .bg-lines{stroke:rgba(249,249,249,1);stroke-width:2px}</style><script type="text/javascript">window.pygal = window.pygal || {};window.pygal.config = window.pygal.config || {};window.pygal.config['8e261f17-15ac-4c63-a60e-b84b63b8aa18'] = {"allow_interruptions": false, "box_mode": "extremes", "classes": ["pygal-chart", "pygal-sparkline"], "css": ["file://style.css", "file://graph.css"], "defs": [], "disable_xml_declaration": false, "dots_size": 2.5, "dynamic_print_values": false, "explicit_size": true, "fill": false, "force_uri_protocol": "https", "formatter": null, "half_pie": false, "height": 50, "include_x_axis": false, "inner_radius": 0, "interpolate": "cubic", "interpolation_parameters": {}, "interpolation_precision": 250, "inverse_y_axis": false, "js": [], "legend_at_bottom": false, "legend_at_bottom_columns": null, "legend_box_size": 12, "logarithmic": false, "margin": 10, "margin_bottom": null, "margin_left": null, "margin_right": null, "margin_top": null, "max_scale": 2, "min_scale": 1, "missing_value_fill_truncation": "x", "no_data_text": "", "no_prefix": false, "order_min": null, "pretty_print": false, "print_labels": false, "print_values": false, "print_values_position": "center", "print_zeroes": true, "range": null, "rounded_bars": null, "secondary_range": null, "show_dots": false, "show_legend": false, "show_minor_x_labels": true, "show_minor_y_labels": true, "show_only_major_dots": false, "show_x_guides": false, "show_x_labels": false, "show_y_guides": true, "show_y_labels": true, "spacing": 0, "stack_from_top": false, "strict": false, "stroke": true, "stroke_style": null, "style": {"background": "rgba(249, 249, 249, 1)", "ci_colors": [], "colors": ["#F44336", "#3F51B5", "#009688", "#FFC107", "#FF5722", "#9C27B0", "#03A9F4", "#8BC34A", "#FF9800", "#E91E63", "#2196F3", "#4CAF50", "#FFEB3B", "#673AB7", "#00BCD4", "#CDDC39", "#9E9E9E", "#607D8B"], "dot_opacity": "1", "font_family": "Consolas, \"Liberation Mono\", Menlo, Courier, monospace", "foreground": "rgba(0, 0, 0, .87)", "foreground_strong": "rgba(0, 0, 0, 1)", "foreground_subtle": "rgba(0, 0, 0, .54)", "guide_stroke_color": "black", "guide_stroke_dasharray": "4,4", "label_font_family": "Consolas, \"Liberation Mono\", Menlo, Courier, monospace", "label_font_size": 10, "legend_font_family": "Consolas, \"Liberation Mono\", Menlo, Courier, monospace", "legend_font_size": 14, "major_guide_stroke_color": "black", "major_guide_stroke_dasharray": "6,6", "major_label_font_family": "Consolas, \"Liberation Mono\", Menlo, Courier, monospace", "major_label_font_size": 10, "no_data_font_family": "Consolas, \"Liberation Mono\", Menlo, Courier, monospace", "no_data_font_size": 64, "opacity": ".7", "opacity_hover": ".8", "plot_background": "rgba(255, 255, 255, 1)", "stroke_opacity": ".8", "stroke_opacity_hover": ".9", "stroke_width": "1", "stroke_width_hover": "4", "title_font_family": "Consolas, \"Liberation Mono\", Menlo, Courier, monospace", "title_font_size": 16, "tooltip_font_family": "Consolas, \"Liberation Mono\", Menlo, Courier, monospace", "tooltip_font_size": 14, "transition": "150ms", "value_background": "rgba(229, 229, 229, 1)", "value_colors": [], "value_font_family": "Consolas, \"Liberation Mono\", Menlo, Courier, monospace", "value_font_size": 16, "value_label_font_family": "Consolas, \"Liberation Mono\", Menlo, Courier, monospace", "value_label_font_size": 10}, "title": null, "tooltip_border_radius": 0, "tooltip_fancy_mode": true, "truncate_label": null, "truncate_legend": null, "width": 200, "x_label_rotation": 0, "x_labels": ["2025/3", "2024/11", "2024/10", "2024/9", "2024/8", "2024/7", "2024/6", "2024/5"], "x_labels_major": null, "x_labels_major_count": null, "x_labels_major_every": null, "x_title": null, "xrange": null, "y_label_rotation": 0, "y_labels": null, "y_labels_major": null, "y_labels_major_count": null, "y_labels_major_every": null, "y_title": null, "zero": 0, "legends": [""]}</script></defs><title>Pygal</title><g class="graph line-graph vertical"><rect x="0" y="0" width="200" height="50" class="background" /><g transform="translate(82, 10)" class="plot"><rect x="0" y="0" width="108.0" height="30" class="background" /><g class="axis y always_show"><path d="M0.000000 30.000000 h108.000000" class="line" /><g class="guides"><path d="M0.000000 29.423077 h108.000000" class="guide line" /><text x="-5" y="32.92307692307692" class="">0.9858855827</text><title>0.9858855827</title></g><g class="guides"><path d="M0.000000 0.576923 h108.000000" class="guide line" /><text x="-5" y="4.076923076923077" class="">12.00316651</text><title>12.00316651</title></g></g><g class="series serie-0 color-0"><path d="M2.076923 24.149593 L2.136264 24.158969 2.195604 24.168345 2.254945 24.177721 2.314286 24.187097 2.373626 24.196474 2.432967 24.205851 2.492308 24.215229 2.551648 24.224608 2.610989 24.233987 2.670330 24.243368 2.729670 24.252749 2.789011 24.262132 2.848352 24.271516 2.907692 24.280902 2.967033 24.290288 3.026374 24.299677 3.085714 24.309067 3.145055 24.318459 3.204396 24.327852 3.263736 24.337248 3.323077 24.346646 3.382418 24.356046 3.441758 24.365449 3.501099 24.374853 3.560440 24.384261 3.619780 24.393671 3.679121 24.403084 3.738462 24.412499 3.797802 24.421918 3.857143 24.431339 3.916484 24.440764 3.975824 24.450192 4.035165 24.459623 4.094505 24.469058 4.153846 24.478497 4.213187 24.487939 4.272527 24.497385 4.331868 24.506835 4.391209 24.516288 4.450549 24.525746 4.509890 24.535208 4.569231 24.544675 4.628571 24.554146 4.687912 24.563621 4.747253 24.573101 4.806593 24.582586 4.865934 24.592076 4.925275 24.601570 4.984615 24.611070 5.043956 24.620575 5.103297 24.630085 5.162637 24.639600 5.221978 24.649121 5.281319 24.658648 5.340659 24.668180 5.400000 24.677718 5.459341 24.687262 5.518681 24.696812 5.578022 24.706368 5.637363 24.715930 5.696703 24.725498 5.756044 24.735073 5.815385 24.744655 5.874725 24.754243 5.934066 24.763838 5.993407 24.773440 6.052747 24.783048 6.112088 24.792664 6.171429 24.802287 6.230769 24.811917 6.290110 24.821555 6.349451 24.831200 6.408791 24.840852 6.468132 24.850512 6.527473 24.860181 6.586813 24.869857 6.646154 24.879541 6.705495 24.889233 6.764835 24.898933 6.824176 24.908642 6.883516 24.918359 6.942857 24.928084 7.002198 24.937818 7.061538 24.947561 7.120879 24.957313 7.180220 24.967074 7.239560 24.976844 7.298901 24.986623 7.358242 24.996411 7.417582 25.006209 7.476923 25.016016 7.536264 25.025833 7.595604 25.035659 7.654945 25.045495 7.714286 25.055341 7.773626 25.065198 7.832967 25.075064 7.892308 25.084940 7.951648 25.094827 8.010989 25.104724 8.070330 25.114632 8.129670 25.124550 8.189011 25.134480 8.248352 25.144419 8.307692 25.154370 8.367033 25.164332 8.426374 25.174306 8.485714 25.184290 8.545055 25.194286 8.604396 25.204293 8.663736 25.214312 8.723077 25.224343 8.782418 25.234385 8.841758 25.244439 8.901099 25.254505 8.960440 25.264584 9.019780 25.274674 9.079121 25.284777 9.138462 25.294893 9.197802 25.305021 9.257143 25.315161 9.316484 25.325314 9.375824 25.335481 9.435165 25.345660 9.494505 25.355852 9.553846 25.366057 9.613187 25.376276 9.672527 25.386508 9.731868 25.396753 9.791209 25.407012 9.850549 25.417285 9.909890 25.427572 9.969231 25.437872 10.028571 25.448187 10.087912 25.458515 10.147253 25.468858 10.206593 25.479215 10.265934 25.489587 10.325275 25.499973 10.384615 25.510373 10.443956 25.520789 10.503297 25.531219 10.562637 25.541665 10.621978 25.552125 10.681319 25.562600 10.740659 25.573091 10.800000 25.583597 10.859341 25.594119 10.918681 25.604656 10.978022 25.615209 11.037363 25.625778 11.096703 25.636363 11.156044 25.646963 11.215385 25.657580 11.274725 25.668213 11.334066 25.678863 11.393407 25.689528 11.452747 25.700211 11.512088 25.710910 11.571429 25.721625 11.630769 25.732358 11.690110 25.743108 11.749451 25.753874 11.808791 25.764658 11.868132 25.775459 11.927473 25.786277 11.986813 25.797113 12.046154 25.807967 12.105495 25.818838 12.164835 25.829727 12.224176 25.840634 12.283516 25.851559 12.342857 25.862502 12.402198 25.873463 12.461538 25.884443 12.520879 25.895441 12.580220 25.906457 12.639560 25.917492 12.698901 25.928546 12.758242 25.939619 12.817582 25.950711 12.876923 25.961822 12.936264 25.972952 12.995604 25.984101 13.054945 25.995270 13.114286 26.006458 13.173626 26.017666 13.232967 26.028893 13.292308 26.040141 13.351648 26.051408 13.410989 26.062695 13.470330 26.074002 13.529670 26.085330 13.589011 26.096678 13.648352 26.108046 13.707692 26.119435 13.767033 26.130844 13.826374 26.142275 13.885714 26.153726 13.945055 26.165198 14.004396 26.176691 14.063736 26.188205 14.123077 26.199741 14.182418 26.211298 14.241758 26.222876 14.301099 26.234476 14.360440 26.246098 14.419780 26.257742 14.479121 26.269407 14.538462 26.281095 14.597802 26.292804 14.657143 26.304536 14.716484 26.316290 14.775824 26.328067 14.835165 26.339866 14.894505 26.351688 14.953846 26.363532 15.013187 26.375400 15.072527 26.387290 15.131868 26.399204 15.191209 26.411140 15.250549 26.423100 15.309890 26.435084 15.369231 26.447090 15.428571 26.459121 15.487912 26.471175 15.547253 26.483253 15.606593 26.495354 15.665934 26.507480 15.725275 26.519630 15.784615 26.531804 15.843956 26.544003 15.903297 26.556226 15.962637 26.568473 16.021978 26.580745 16.081319 26.593042 16.140659 26.605364 16.200000 26.617711 16.259341 26.630083 16.318681 26.642480 16.378022 26.654902 16.437363 26.667350 16.496703 26.679823 16.556044 26.692321 16.615385 26.704846 16.674725 26.717396 16.734066 26.729972 16.793407 26.742574 16.852747 26.755203 16.912088 26.767857 16.971429 26.780538 17.030769 26.793245 17.090110 26.805977 17.149451 26.818733 17.208791 26.831514 17.268132 26.844318 17.327473 26.857146 17.386813 26.869997 17.446154 26.882869 17.505495 26.895763 17.564835 26.908678 17.624176 26.921614 17.683516 26.934570 17.742857 26.947545 17.802198 26.960539 17.861538 26.973552 17.920879 26.986582 17.980220 26.999630 18.039560 27.012695 18.098901 27.025776 18.158242 27.038873 18.217582 27.051985 18.276923 27.065112 18.336264 27.078253 18.395604 27.091408 18.454945 27.104576 18.514286 27.117756 18.573626 27.130949 18.632967 27.144153 18.692308 27.157369 18.751648 27.170595 18.810989 27.183831 18.870330 27.197076 18.929670 27.210330 18.989011 27.223593 19.048352 27.236864 19.107692 27.250142 19.167033 27.263427 19.226374 27.276718 19.285714 27.290015 19.345055 27.303317 19.404396 27.316624 19.463736 27.329935 19.523077 27.343250 19.582418 27.356569 19.641758 27.369889 19.701099 27.383212 19.760440 27.396536 19.819780 27.409862 19.879121 27.423188 19.938462 27.436514 19.997802 27.449839 20.057143 27.463164 20.116484 27.476487 20.175824 27.489807 20.235165 27.503125 20.294505 27.516440 20.353846 27.529752 20.413187 27.543059 20.472527 27.556361 20.531868 27.569658 20.591209 27.582949 20.650549 27.596234 20.709890 27.609512 20.769231 27.622783 20.828571 27.636046 20.887912 27.649300 20.947253 27.662545 21.006593 27.675781 21.065934 27.689007 21.125275 27.702223 21.184615 27.715427 21.243956 27.728620 21.303297 27.741800 21.362637 27.754968 21.421978 27.768123 21.481319 27.781264 21.540659 27.794391 21.600000 27.807503 21.659341 27.820600 21.718681 27.833681 21.778022 27.846746 21.837363 27.859794 21.896703 27.872824 21.956044 27.885837 22.015385 27.898831 22.074725 27.911806 22.134066 27.924762 22.193407 27.937698 22.252747 27.950613 22.312088 27.963507 22.371429 27.976379 22.430769 27.989230 22.490110 28.002057 22.549451 28.014862 22.608791 28.027643 22.668132 28.040399 22.727473 28.053131 22.786813 28.065838 22.846154 28.078519 22.905495 28.091173 22.964835 28.103801 23.024176 28.116401 23.083516 28.128973 23.142857 28.141517 23.202198 28.154032 23.261538 28.166517 23.320879 28.178972 23.380220 28.191397 23.439560 28.203791 23.498901 28.216153 23.558242 28.228483 23.617582 28.240780 23.676923 28.253044 23.736264 28.265275 23.795604 28.277471 23.854945 28.289632 23.914286 28.301759 23.973626 28.313849 24.032967 28.325903 24.092308 28.337920 24.151648 28.349900 24.210989 28.361841 24.270330 28.373745 24.329670 28.385609 24.389011 28.397434 24.448352 28.409219 24.507692 28.420963 24.567033 28.432666 24.626374 28.444328 24.685714 28.455947 24.745055 28.467524 24.804396 28.479058 24.863736 28.490548 24.923077 28.501993 24.982418 28.513394 25.041758 28.524750 25.101099 28.536059 25.160440 28.547323 25.219780 28.558539 25.279121 28.569708 25.338462 28.580830 25.397802 28.591902 25.457143 28.602926 25.516484 28.613900 25.575824 28.624824 25.635165 28.635698 25.694505 28.646521 25.753846 28.657291 25.813187 28.668010 25.872527 28.678676 25.931868 28.689289 25.991209 28.699848 26.050549 28.710353 26.109890 28.720803 26.169231 28.731198 26.228571 28.741537 26.287912 28.751820 26.347253 28.762046 26.406593 28.772214 26.465934 28.782325 26.525275 28.792376 26.584615 28.802369 26.643956 28.812303 26.703297 28.822176 26.762637 28.831989 26.821978 28.841741 26.881319 28.851431 26.940659 28.861059 27.000000 28.870624 27.059341 28.880126 27.118681 28.889565 27.178022 28.898939 27.237363 28.908248 27.296703 28.917492 27.356044 28.926670 27.415385 28.935782 27.474725 28.944827 27.534066 28.953804 27.593407 28.962714 27.652747 28.971555 27.712088 28.980327 27.771429 28.989029 27.830769 28.997662 27.890110 29.006224 27.949451 29.014714 28.008791 29.023134 28.068132 29.031481 28.127473 29.039755 28.186813 29.047956 28.246154 29.056083 28.305495 29.064136 28.364835 29.072115 28.424176 29.080018 28.483516 29.087845 28.542857 29.095596 28.602198 29.103269 28.661538 29.110866 28.720879 29.118384 28.780220 29.125824 28.839560 29.133185 28.898901 29.140467 28.958242 29.147668 29.017582 29.154789 29.076923 29.161829 29.136264 29.168787 29.195604 29.175663 29.254945 29.182456 29.314286 29.189166 29.373626 29.195792 29.432967 29.202334 29.492308 29.208791 29.551648 29.215163 29.610989 29.221449 29.670330 29.227648 29.729670 29.233761 29.789011 29.239786 29.848352 29.245724 29.907692 29.251572 29.967033 29.257332 30.026374 29.263002 30.085714 29.268583 30.145055 29.274072 30.204396 29.279471 30.263736 29.284777 30.323077 29.289992 30.382418 29.295114 30.441758 29.300143 30.501099 29.305078 30.560440 29.309918 30.619780 29.314664 30.679121 29.319315 30.738462 29.323869 30.797802 29.328328 30.857143 29.332689 30.916484 29.336953 30.975824 29.341119 31.035165 29.345186 31.094505 29.349155 31.153846 29.353024 31.213187 29.356793 31.272527 29.360461 31.331868 29.364028 31.391209 29.367493 31.450549 29.370857 31.509890 29.374117 31.569231 29.377274 31.628571 29.380328 31.687912 29.383277 31.747253 29.386122 31.806593 29.388861 31.865934 29.391495 31.925275 29.394023 31.984615 29.396446 32.043956 29.398764 32.103297 29.400976 32.162637 29.403083 32.221978 29.405085 32.281319 29.406981 32.340659 29.408772 32.400000 29.410457 32.459341 29.412037 32.518681 29.413511 32.578022 29.414880 32.637363 29.416143 32.696703 29.417301 32.756044 29.418354 32.815385 29.419301 32.874725 29.420142 32.934066 29.420878 32.993407 29.421508 33.052747 29.422033 33.112088 29.422452 33.171429 29.422766 33.230769 29.422974 33.290110 29.423077 33.349451 29.423074 33.408791 29.422965 33.468132 29.422751 33.527473 29.422431 33.586813 29.422006 33.646154 29.421475 33.705495 29.420838 33.764835 29.420096 33.824176 29.419248 33.883516 29.418294 33.942857 29.417235 34.002198 29.416070 34.061538 29.414799 34.120879 29.413423 34.180220 29.411941 34.239560 29.410353 34.298901 29.408659 34.358242 29.406860 34.417582 29.404955 34.476923 29.402944 34.536264 29.400827 34.595604 29.398605 34.654945 29.396276 34.714286 29.393842 34.773626 29.391303 34.832967 29.388657 34.892308 29.385906 34.951648 29.383048 35.010989 29.380085 35.070330 29.377016 35.129670 29.373841 35.189011 29.370560 35.248352 29.367174 35.307692 29.363681 35.367033 29.360083 35.426374 29.356379 35.485714 29.352568 35.545055 29.348652 35.604396 29.344630 35.663736 29.340502 35.723077 29.336268 35.782418 29.331928 35.841758 29.327482 35.901099 29.322930 35.960440 29.318272 36.019780 29.313508 36.079121 29.308638 36.138462 29.303662 36.197802 29.298580 36.257143 29.293392 36.316484 29.288098 36.375824 29.282698 36.435165 29.277192 36.494505 29.271579 36.553846 29.265861 36.613187 29.260036 36.672527 29.254106 36.731868 29.248069 36.791209 29.241926 36.850549 29.235677 36.909890 29.229322 36.969231 29.222861 37.028571 29.216293 37.087912 29.209620 37.147253 29.202840 37.206593 29.195954 37.265934 29.188962 37.325275 29.181863 37.384615 29.174659 37.443956 29.167348 37.503297 29.159931 37.562637 29.152407 37.621978 29.144778 37.681319 29.137042 37.740659 29.129200 37.800000 29.121252 37.859341 29.113197 37.918681 29.105036 37.978022 29.096768 38.037363 29.088395 38.096703 29.079915 38.156044 29.071329 38.215385 29.062636 38.274725 29.053837 38.334066 29.044931 38.393407 29.035920 38.452747 29.026802 38.512088 29.017577 38.571429 29.008246 38.630769 28.998809 38.690110 28.989265 38.749451 28.979615 38.808791 28.969858 38.868132 28.959995 38.927473 28.950025 38.986813 28.939949 39.046154 28.929767 39.105495 28.919478 39.164835 28.909082 39.224176 28.898580 39.283516 28.887972 39.342857 28.877257 39.402198 28.866435 39.461538 28.855507 39.520879 28.844472 39.580220 28.833331 39.639560 28.822083 39.698901 28.810729 39.758242 28.799267 39.817582 28.787700 39.876923 28.776026 39.936264 28.764245 39.995604 28.752357 40.054945 28.740363 40.114286 28.728262 40.173626 28.716055 40.232967 28.703741 40.292308 28.691320 40.351648 28.678793 40.410989 28.666159 40.470330 28.653418 40.529670 28.640570 40.589011 28.627616 40.648352 28.614555 40.707692 28.601387 40.767033 28.588113 40.826374 28.574731 40.885714 28.561243 40.945055 28.547648 41.004396 28.533947 41.063736 28.520138 41.123077 28.506223 41.182418 28.492201 41.241758 28.478072 41.301099 28.463837 41.360440 28.449494 41.419780 28.435045 41.479121 28.420489 41.538462 28.405825 41.597802 28.391056 41.657143 28.376179 41.716484 28.361195 41.775824 28.346104 41.835165 28.330907 41.894505 28.315602 41.953846 28.300191 42.013187 28.284672 42.072527 28.269047 42.131868 28.253314 42.191209 28.237475 42.250549 28.221529 42.309890 28.205476 42.369231 28.189315 42.428571 28.173048 42.487912 28.156674 42.547253 28.140192 42.606593 28.123604 42.665934 28.106908 42.725275 28.090106 42.784615 28.073196 42.843956 28.056180 42.903297 28.039056 42.962637 28.021825 43.021978 28.004487 43.081319 27.987042 43.140659 27.969490 43.200000 27.951831 43.259341 27.934064 43.318681 27.916191 43.378022 27.898210 43.437363 27.880122 43.496703 27.861927 43.556044 27.843625 43.615385 27.825215 43.674725 27.806698 43.734066 27.788075 43.793407 27.769343 43.852747 27.750505 43.912088 27.731559 43.971429 27.712507 44.030769 27.693346 44.090110 27.674079 44.149451 27.654704 44.208791 27.635222 44.268132 27.615633 44.327473 27.595936 44.386813 27.576133 44.446154 27.556221 44.505495 27.536203 44.564835 27.516077 44.624176 27.495844 44.683516 27.475503 44.742857 27.455055 44.802198 27.434499 44.861538 27.413837 44.920879 27.393066 44.980220 27.372189 45.039560 27.351204 45.098901 27.330111 45.158242 27.308911 45.217582 27.287604 45.276923 27.266189 45.336264 27.244667 45.395604 27.223037 45.454945 27.201300 45.514286 27.179455 45.573626 27.157503 45.632967 27.135443 45.692308 27.113276 45.751648 27.091001 45.810989 27.068619 45.870330 27.046129 45.929670 27.023531 45.989011 27.000826 46.048352 26.978014 46.107692 26.955093 46.167033 26.932066 46.226374 26.908930 46.285714 26.885687 46.345055 26.862336 46.404396 26.838878 46.463736 26.815312 46.523077 26.791639 46.582418 26.767857 46.641758 26.743969 46.701099 26.719974 46.760440 26.695875 46.819780 26.671672 46.879121 26.647369 46.938462 26.622965 46.997802 26.598463 47.057143 26.573865 47.116484 26.549171 47.175824 26.524384 47.235165 26.499505 47.294505 26.474535 47.353846 26.449477 47.413187 26.424332 47.472527 26.399100 47.531868 26.373785 47.591209 26.348387 47.650549 26.322908 47.709890 26.297349 47.769231 26.271713 47.828571 26.246000 47.887912 26.220213 47.947253 26.194353 48.006593 26.168421 48.065934 26.142419 48.125275 26.116348 48.184615 26.090211 48.243956 26.064008 48.303297 26.037742 48.362637 26.011413 48.421978 25.985024 48.481319 25.958576 48.540659 25.932071 48.600000 25.905509 48.659341 25.878893 48.718681 25.852225 48.778022 25.825505 48.837363 25.798736 48.896703 25.771918 48.956044 25.745055 49.015385 25.718146 49.074725 25.691194 49.134066 25.664200 49.193407 25.637166 49.252747 25.610094 49.312088 25.582984 49.371429 25.555839 49.430769 25.528660 49.490110 25.501448 49.549451 25.474206 49.608791 25.446935 49.668132 25.419636 49.727473 25.392311 49.786813 25.364961 49.846154 25.337589 49.905495 25.310195 49.964835 25.282781 50.024176 25.255350 50.083516 25.227901 50.142857 25.200438 50.202198 25.172961 50.261538 25.145472 50.320879 25.117972 50.380220 25.090464 50.439560 25.062949 50.498901 25.035428 50.558242 25.007903 50.617582 24.980375 50.676923 24.952846 50.736264 24.925318 50.795604 24.897792 50.854945 24.870270 50.914286 24.842754 50.973626 24.815244 51.032967 24.787742 51.092308 24.760251 51.151648 24.732771 51.210989 24.705305 51.270330 24.677853 51.329670 24.650418 51.389011 24.623000 51.448352 24.595602 51.507692 24.568225 51.567033 24.540870 51.626374 24.513540 51.685714 24.486235 51.745055 24.458958 51.804396 24.431709 51.863736 24.404491 51.923077 24.377305 51.982418 24.350152 52.041758 24.323035 52.101099 24.295954 52.160440 24.268912 52.219780 24.241909 52.279121 24.214948 52.338462 24.188030 52.397802 24.161157 52.457143 24.134329 52.516484 24.107550 52.575824 24.080819 52.635165 24.054140 52.694505 24.027512 52.753846 24.000939 52.813187 23.974422 52.872527 23.947961 52.931868 23.921559 52.991209 23.895217 53.050549 23.868938 53.109890 23.842721 53.169231 23.816570 53.228571 23.790485 53.287912 23.764468 53.347253 23.738521 53.406593 23.712645 53.465934 23.686842 53.525275 23.661113 53.584615 23.635461 53.643956 23.609885 53.703297 23.584389 53.762637 23.558974 53.821978 23.533641 53.881319 23.508391 53.940659 23.483227 54.000000 23.458150 54.059341 23.433161 54.118681 23.408263 54.178022 23.383456 54.237363 23.358742 54.296703 23.334123 54.356044 23.309601 54.415385 23.285176 54.474725 23.260851 54.534066 23.236627 54.593407 23.212505 54.652747 23.188488 54.712088 23.164576 54.771429 23.140772 54.830769 23.117077 54.890110 23.093492 54.949451 23.070019 55.008791 23.046660 55.068132 23.023416 55.127473 23.000289 55.186813 22.977280 55.246154 22.954391 55.305495 22.931624 55.364835 22.908979 55.424176 22.886459 55.483516 22.864066 55.542857 22.841800 55.602198 22.819663 55.661538 22.797657 55.720879 22.775784 55.780220 22.754045 55.839560 22.732441 55.898901 22.710974 55.958242 22.689646 56.017582 22.668459 56.076923 22.647413 56.136264 22.626511 56.195604 22.605754 56.254945 22.585143 56.314286 22.564681 56.373626 22.544368 56.432967 22.524206 56.492308 22.504198 56.551648 22.484343 56.610989 22.464645 56.670330 22.445104 56.729670 22.425723 56.789011 22.406502 56.848352 22.387443 56.907692 22.368548 56.967033 22.349819 57.026374 22.331257 57.085714 22.312863 57.145055 22.294639 57.204396 22.276587 57.263736 22.258708 57.323077 22.241004 57.382418 22.223477 57.441758 22.206127 57.501099 22.188957 57.560440 22.171968 57.619780 22.155162 57.679121 22.138540 57.738462 22.122103 57.797802 22.105854 57.857143 22.089795 57.916484 22.073925 57.975824 22.058248 58.035165 22.042764 58.094505 22.027476 58.153846 22.012384 58.213187 21.997491 58.272527 21.982797 58.331868 21.968305 58.391209 21.954017 58.450549 21.939933 58.509890 21.926055 58.569231 21.912384 58.628571 21.898924 58.687912 21.885674 58.747253 21.872636 58.806593 21.859813 58.865934 21.847205 58.925275 21.834815 58.984615 21.822643 59.043956 21.810692 59.103297 21.798962 59.162637 21.787456 59.221978 21.776175 59.281319 21.765121 59.340659 21.754295 59.400000 21.743698 59.459341 21.733333 59.518681 21.723201 59.578022 21.713303 59.637363 21.703641 59.696703 21.694217 59.756044 21.685032 59.815385 21.676088 59.874725 21.667386 59.934066 21.658928 59.993407 21.650716 60.052747 21.642750 60.112088 21.635033 60.171429 21.627566 60.230769 21.620351 60.290110 21.613389 60.349451 21.606683 60.408791 21.600232 60.468132 21.594040 60.527473 21.588107 60.586813 21.582435 60.646154 21.577026 60.705495 21.571881 60.764835 21.567002 60.824176 21.562391 60.883516 21.558048 60.942857 21.553976 61.002198 21.550176 61.061538 21.546650 61.120879 21.543399 61.180220 21.540425 61.239560 21.537729 61.298901 21.535314 61.358242 21.533180 61.417582 21.531329 61.476923 21.529761 61.536264 21.528474 61.595604 21.527464 61.654945 21.526725 61.714286 21.526254 61.773626 21.526046 61.832967 21.526097 61.892308 21.526404 61.951648 21.526961 62.010989 21.527764 62.070330 21.528809 62.129670 21.530092 62.189011 21.531609 62.248352 21.533355 62.307692 21.535327 62.367033 21.537519 62.426374 21.539927 62.485714 21.542548 62.545055 21.545377 62.604396 21.548410 62.663736 21.551642 62.723077 21.555070 62.782418 21.558688 62.841758 21.562494 62.901099 21.566481 62.960440 21.570647 63.019780 21.574987 63.079121 21.579497 63.138462 21.584173 63.197802 21.589009 63.257143 21.594002 63.316484 21.599149 63.375824 21.604443 63.435165 21.609882 63.494505 21.615461 63.553846 21.621175 63.613187 21.627021 63.672527 21.632994 63.731868 21.639089 63.791209 21.645304 63.850549 21.651633 63.909890 21.658072 63.969231 21.664616 64.028571 21.671263 64.087912 21.678007 64.147253 21.684843 64.206593 21.691769 64.265934 21.698779 64.325275 21.705870 64.384615 21.713037 64.443956 21.720275 64.503297 21.727581 64.562637 21.734950 64.621978 21.742379 64.681319 21.749862 64.740659 21.757396 64.800000 21.764975 64.859341 21.772597 64.918681 21.780257 64.978022 21.787950 65.037363 21.795672 65.096703 21.803420 65.156044 21.811188 65.215385 21.818972 65.274725 21.826769 65.334066 21.834574 65.393407 21.842382 65.452747 21.850190 65.512088 21.857993 65.571429 21.865787 65.630769 21.873567 65.690110 21.881330 65.749451 21.889071 65.808791 21.896786 65.868132 21.904470 65.927473 21.912120 65.986813 21.919731 66.046154 21.927299 66.105495 21.934820 66.164835 21.942288 66.224176 21.949701 66.283516 21.957054 66.342857 21.964342 66.402198 21.971562 66.461538 21.978708 66.520879 21.985778 66.580220 21.992766 66.639560 21.999668 66.698901 22.006480 66.758242 22.013198 66.817582 22.019818 66.876923 22.026334 66.936264 22.032744 66.995604 22.039043 67.054945 22.045226 67.114286 22.051289 67.173626 22.057228 67.232967 22.063039 67.292308 22.068717 67.351648 22.074258 67.410989 22.079659 67.470330 22.084914 67.529670 22.090019 67.589011 22.094971 67.648352 22.099764 67.707692 22.104395 67.767033 22.108860 67.826374 22.113153 67.885714 22.117272 67.945055 22.121211 68.004396 22.124967 68.063736 22.128534 68.123077 22.131910 68.182418 22.135089 68.241758 22.138067 68.301099 22.140840 68.360440 22.143404 68.419780 22.145755 68.479121 22.147888 68.538462 22.149799 68.597802 22.151484 68.657143 22.152938 68.716484 22.154158 68.775824 22.155139 68.835165 22.155876 68.894505 22.156366 68.953846 22.156604 69.013187 22.156586 69.072527 22.156308 69.131868 22.155765 69.191209 22.154953 69.250549 22.153869 69.309890 22.152507 69.369231 22.150863 69.428571 22.148934 69.487912 22.146715 69.547253 22.144201 69.606593 22.141388 69.665934 22.138273 69.725275 22.134851 69.784615 22.131117 69.843956 22.127068 69.903297 22.122699 69.962637 22.118005 70.021978 22.112983 70.081319 22.107629 70.140659 22.101938 70.200000 22.095905 70.259341 22.089527 70.318681 22.082799 70.378022 22.075718 70.437363 22.068278 70.496703 22.060476 70.556044 22.052307 70.615385 22.043767 70.674725 22.034851 70.734066 22.025557 70.793407 22.015878 70.852747 22.005812 70.912088 21.995353 70.971429 21.984497 71.030769 21.973241 71.090110 21.961580 71.149451 21.949510 71.208791 21.937026 71.268132 21.924124 71.327473 21.910800 71.386813 21.897050 71.446154 21.882869 71.505495 21.868254 71.564835 21.853199 71.624176 21.837701 71.683516 21.821755 71.742857 21.805358 71.802198 21.788504 71.861538 21.771190 71.920879 21.753411 71.980220 21.735164 72.039560 21.716443 72.098901 21.697245 72.158242 21.677565 72.217582 21.657399 72.276923 21.636743 72.336264 21.615592 72.395604 21.593943 72.454945 21.571791 72.514286 21.549132 72.573626 21.525961 72.632967 21.502274 72.692308 21.478068 72.751648 21.453337 72.810989 21.428078 72.870330 21.402286 72.929670 21.375957 72.989011 21.349086 73.048352 21.321670 73.107692 21.293705 73.167033 21.265185 73.226374 21.236107 73.285714 21.206466 73.345055 21.176258 73.404396 21.145480 73.463736 21.114126 73.523077 21.082192 73.582418 21.049675 73.641758 21.016570 73.701099 20.982872 73.760440 20.948577 73.819780 20.913682 73.879121 20.878181 73.938462 20.842071 73.997802 20.805348 74.057143 20.768006 74.116484 20.730043 74.175824 20.691452 74.235165 20.652232 74.294505 20.612376 74.353846 20.571881 74.413187 20.530742 74.472527 20.488956 74.531868 20.446518 74.591209 20.403424 74.650549 20.359669 74.709890 20.315249 74.769231 20.270161 74.828571 20.224399 74.887912 20.177959 74.947253 20.130838 75.006593 20.083031 75.065934 20.034534 75.125275 19.985341 75.184615 19.935451 75.243956 19.884857 75.303297 19.833555 75.362637 19.781542 75.421978 19.728814 75.481319 19.675365 75.540659 19.621192 75.600000 19.566290 75.659341 19.510655 75.718681 19.454284 75.778022 19.397170 75.837363 19.339312 75.896703 19.280703 75.956044 19.221340 76.015385 19.161219 76.074725 19.100335 76.134066 19.038684 76.193407 18.976262 76.252747 18.913064 76.312088 18.849089 76.371429 18.784343 76.430769 18.718833 76.490110 18.652570 76.549451 18.585560 76.608791 18.517813 76.668132 18.449336 76.727473 18.380139 76.786813 18.310230 76.846154 18.239616 76.905495 18.168307 76.964835 18.096311 77.024176 18.023637 77.083516 17.950292 77.142857 17.876285 77.202198 17.801625 77.261538 17.726320 77.320879 17.650379 77.380220 17.573809 77.439560 17.496620 77.498901 17.418820 77.558242 17.340417 77.617582 17.261419 77.676923 17.181835 77.736264 17.101674 77.795604 17.020944 77.854945 16.939653 77.914286 16.857810 77.973626 16.775422 78.032967 16.692500 78.092308 16.609050 78.151648 16.525082 78.210989 16.440603 78.270330 16.355623 78.329670 16.270150 78.389011 16.184191 78.448352 16.097757 78.507692 16.010854 78.567033 15.923491 78.626374 15.835677 78.685714 15.747421 78.745055 15.658730 78.804396 15.569613 78.863736 15.480079 78.923077 15.390135 78.982418 15.299791 79.041758 15.209055 79.101099 15.117934 79.160440 15.026439 79.219780 14.934576 79.279121 14.842355 79.338462 14.749784 79.397802 14.656870 79.457143 14.563624 79.516484 14.470053 79.575824 14.376165 79.635165 14.281970 79.694505 14.187474 79.753846 14.092688 79.813187 13.997619 79.872527 13.902275 79.931868 13.806666 79.991209 13.710799 80.050549 13.614683 80.109890 13.518326 80.169231 13.421737 80.228571 13.324925 80.287912 13.227897 80.347253 13.130662 80.406593 13.033228 80.465934 12.935605 80.525275 12.837799 80.584615 12.739821 80.643956 12.641677 80.703297 12.543378 80.762637 12.444930 80.821978 12.346342 80.881319 12.247624 80.940659 12.148783 81.000000 12.049827 81.059341 11.950766 81.118681 11.851607 81.178022 11.752359 81.237363 11.653031 81.296703 11.553630 81.356044 11.454166 81.415385 11.354646 81.474725 11.255079 81.534066 11.155474 81.593407 11.055839 81.652747 10.956182 81.712088 10.856512 81.771429 10.756837 81.830769 10.657166 81.890110 10.557507 81.949451 10.457868 82.008791 10.358258 82.068132 10.258686 82.127473 10.159159 82.186813 10.059686 82.246154 9.960276 82.305495 9.860937 82.364835 9.761678 82.424176 9.662506 82.483516 9.563430 82.542857 9.464460 82.602198 9.365602 82.661538 9.266866 82.720879 9.168260 82.780220 9.069792 82.839560 8.971471 82.898901 8.873305 82.958242 8.775303 83.017582 8.677473 83.076923 8.579824 83.136264 8.482363 83.195604 8.385100 83.254945 8.288042 83.314286 8.191199 83.373626 8.094579 83.432967 7.998189 83.492308 7.902039 83.551648 7.806137 83.610989 7.710491 83.670330 7.615110 83.729670 7.520002 83.789011 7.425175 83.848352 7.330639 83.907692 7.236401 83.967033 7.142470 84.026374 7.048854 84.085714 6.955562 84.145055 6.862601 84.204396 6.769982 84.263736 6.677711 84.323077 6.585798 84.382418 6.494251 84.441758 6.403078 84.501099 6.312287 84.560440 6.221888 84.619780 6.131888 84.679121 6.042296 84.738462 5.953120 84.797802 5.864369 84.857143 5.776051 84.916484 5.688175 84.975824 5.600749 85.035165 5.513782 85.094505 5.427281 85.153846 5.341255 85.213187 5.255714 85.272527 5.170664 85.331868 5.086115 85.391209 5.002075 85.450549 4.918553 85.509890 4.835556 85.569231 4.753094 85.628571 4.671174 85.687912 4.589805 85.747253 4.508996 85.806593 4.428755 85.865934 4.349090 85.925275 4.270010 85.984615 4.191524 86.043956 4.113638 86.103297 4.036363 86.162637 3.959707 86.221978 3.883677 86.281319 3.808283 86.340659 3.733533 86.400000 3.659434 86.459341 3.585996 86.518681 3.513228 86.578022 3.441137 86.637363 3.369731 86.696703 3.299020 86.756044 3.229012 86.815385 3.159715 86.874725 3.091137 86.934066 3.023287 86.993407 2.956174 87.052747 2.889806 87.112088 2.824191 87.171429 2.759337 87.230769 2.695254 87.290110 2.631949 87.349451 2.569431 87.408791 2.507709 87.468132 2.446790 87.527473 2.386684 87.586813 2.327398 87.646154 2.268941 87.705495 2.211322 87.764835 2.154549 87.824176 2.098630 87.883516 2.043573 87.942857 1.989388 88.002198 1.936083 88.061538 1.883665 88.120879 1.832144 88.180220 1.781528 88.239560 1.731826 88.298901 1.683044 88.358242 1.635193 88.417582 1.588281 88.476923 1.542316 88.536264 1.497306 88.595604 1.453260 88.654945 1.410186 88.714286 1.368092 88.773626 1.326988 88.832967 1.286882 88.892308 1.247781 88.951648 1.209695 89.010989 1.172631 89.070330 1.136599 89.129670 1.101606 89.189011 1.067662 89.248352 1.034774 89.307692 1.002950 89.367033 0.972201 89.426374 0.942532 89.485714 0.913954 89.545055 0.886475 89.604396 0.860103 89.663736 0.834846 89.723077 0.810713 89.782418 0.787712 89.841758 0.765852 89.901099 0.745141 89.960440 0.725588 90.019780 0.707201 90.079121 0.689988 90.138462 0.673958 90.197802 0.659119 90.257143 0.645480 90.316484 0.633049 90.375824 0.621834 90.435165 0.611844 90.494505 0.603088 90.553846 0.595574 90.613187 0.589310 90.672527 0.584304 90.731868 0.580565 90.791209 0.578102 90.850549 0.576923 90.909890 0.577036 90.969231 0.578450 91.028571 0.581173 91.087912 0.585214 91.147253 0.590578 91.206593 0.597263 91.265934 0.605264 91.325275 0.614574 91.384615 0.625190 91.443956 0.637105 91.503297 0.650314 91.562637 0.664812 91.621978 0.680593 91.681319 0.697653 91.740659 0.715986 91.800000 0.735587 91.859341 0.756449 91.918681 0.778569 91.978022 0.801941 92.037363 0.826559 92.096703 0.852419 92.156044 0.879514 92.215385 0.907839 92.274725 0.937390 92.334066 0.968161 92.393407 1.000147 92.452747 1.033341 92.512088 1.067740 92.571429 1.103338 92.630769 1.140129 92.690110 1.178108 92.749451 1.217270 92.808791 1.257609 92.868132 1.299121 92.927473 1.341799 92.986813 1.385639 93.046154 1.430636 93.105495 1.476783 93.164835 1.524076 93.224176 1.572510 93.283516 1.622078 93.342857 1.672776 93.402198 1.724599 93.461538 1.777541 93.520879 1.831596 93.580220 1.886761 93.639560 1.943028 93.698901 2.000394 93.758242 2.058852 93.817582 2.118397 93.876923 2.179025 93.936264 2.240729 93.995604 2.303504 94.054945 2.367346 94.114286 2.432249 94.173626 2.498207 94.232967 2.565215 94.292308 2.633268 94.351648 2.702361 94.410989 2.772488 94.470330 2.843644 94.529670 2.915824 94.589011 2.989022 94.648352 3.063233 94.707692 3.138452 94.767033 3.214673 94.826374 3.291892 94.885714 3.370102 94.945055 3.449299 95.004396 3.529477 95.063736 3.610632 95.123077 3.692756 95.182418 3.775846 95.241758 3.859897 95.301099 3.944902 95.360440 4.030856 95.419780 4.117754 95.479121 4.205592 95.538462 4.294363 95.597802 4.384062 95.657143 4.474684 95.716484 4.566223 95.775824 4.658675 95.835165 4.752034 95.894505 4.846294 95.953846 4.941451 96.013187 5.037499 96.072527 5.134433 96.131868 5.232247 96.191209 5.330937 96.250549 5.430496 96.309890 5.530920 96.369231 5.632203 96.428571 5.734340 96.487912 5.837326 96.547253 5.941155 96.606593 6.045822 96.665934 6.151322 96.725275 6.257649 96.784615 6.364798 96.843956 6.472765 96.903297 6.581542 96.962637 6.691126 97.021978 6.801511 97.081319 6.912692 97.140659 7.024663 97.200000 7.137418 97.259341 7.250954 97.318681 7.365264 97.378022 7.480343 97.437363 7.596186 97.496703 7.712787 97.556044 7.830141 97.615385 7.948244 97.674725 8.067088 97.734066 8.186671 97.793407 8.306985 97.852747 8.428025 97.912088 8.549787 97.971429 8.672266 98.030769 8.795455 98.090110 8.919349 98.149451 9.043943 98.208791 9.169233 98.268132 9.295212 98.327473 9.421875 98.386813 9.549217 98.446154 9.677232 98.505495 9.805916 98.564835 9.935263 98.624176 10.065268 98.683516 10.195925 98.742857 10.327229 98.802198 10.459175 98.861538 10.591757 98.920879 10.724971 98.980220 10.858810 99.039560 10.993270 99.098901 11.128346 99.158242 11.264031 99.217582 11.400321 99.276923 11.537210 99.336264 11.674693 99.395604 11.812766 99.454945 11.951421 99.514286 12.090655 99.573626 12.230461 99.632967 12.370835 99.692308 12.511772 99.751648 12.653265 99.810989 12.795310 99.870330 12.937901 99.929670 13.081033 99.989011 13.224701 100.048352 13.368899 100.107692 13.513623 100.167033 13.658866 100.226374 13.804624 100.285714 13.950891 100.345055 14.097661 100.404396 14.244931 100.463736 14.392693 100.523077 14.540944 100.582418 14.689677 100.641758 14.838888 100.701099 14.988571 100.760440 15.138720 100.819780 15.289331 100.879121 15.440398 100.938462 15.591916 100.997802 15.743879 101.057143 15.896283 101.116484 16.049122 101.175824 16.202390 101.235165 16.356083 101.294505 16.510194 101.353846 16.664720 101.413187 16.819653 101.472527 16.974990 101.531868 17.130725 101.591209 17.286852 101.650549 17.443366 101.709890 17.600262 101.769231 17.757535 101.828571 17.915179 101.887912 18.073190 101.947253 18.231560 102.006593 18.390286 102.065934 18.549363 102.125275 18.708784 102.184615 18.868544 102.243956 19.028639 102.303297 19.189062 102.362637 19.349809 102.421978 19.510874 102.481319 19.672252 102.540659 19.833938 102.600000 19.995926 102.659341 20.158212 102.718681 20.320789 102.778022 20.483652 102.837363 20.646796 102.896703 20.810216 102.956044 20.973907 103.015385 21.137863 103.074725 21.302079 103.134066 21.466549 103.193407 21.631269 103.252747 21.796233 103.312088 21.961435 103.371429 22.126871 103.430769 22.292535 103.490110 22.458422 103.549451 22.624526 103.608791 22.790842 103.668132 22.957365 103.727473 23.124090 103.786813 23.291011 103.846154 23.458123 103.905495 23.625420 103.964835 23.792898 104.024176 23.960551 104.083516 24.128373 104.142857 24.296360 104.202198 24.464507 104.261538 24.632807 104.320879 24.801255 104.380220 24.969847 104.439560 25.138576 104.498901 25.307439 104.558242 25.476428 104.617582 25.645540 104.676923 25.814768 104.736264 25.984107 104.795604 26.153553 104.854945 26.323100 104.914286 26.492741 104.973626 26.662474 105.032967 26.832290 105.092308 27.002187 105.151648 27.172158 105.210989 27.342197 105.270330 27.512301 105.329670 27.682463 105.389011 27.852677 105.448352 28.022940 105.507692 28.193245 105.567033 28.363587 105.626374 28.533961 105.685714 28.704361 105.745055 28.874783 105.804396 29.045220 105.863736 29.215668 105.923077 29.386122" class="line reactive nofill" /></g></g><g class="titles" /><g transform="translate(82, 10)" class="plot overlay"><g class="series serie-0 color-0" /></g><g transform="translate(82, 10)" class="plot text-overlay"><g class="series serie-0 color-0" /></g><g transform="translate(82, 10)" class="plot tooltip-overlay"><g transform="translate(0 0)" style="opacity: 0" class="tooltip"><rect rx="0" ry="0" width="0" height="0" class="tooltip-box" /><g class="text" /></g></g></g></svg>