<?xml version='1.0' encoding='utf-8'?>
<svg xmlns="http://www.w3.org/2000/svg" id="chart-266236c1-8a31-42aa-a6a8-5aae81cd4d16" class="pygal-chart pygal-sparkline" viewBox="0 0 200 50" width="200" height="50"><!--Generated with pygal 3.0.4 (etree) ©Kozea 2012-2016 on 2024-07-07--><!--http://pygal.org--><!--http://github.com/Kozea/pygal--><defs><style type="text/css">#chart-266236c1-8a31-42aa-a6a8-5aae81cd4d16{-webkit-user-select:none;-webkit-font-smoothing:antialiased;font-family:Consolas,"Liberation Mono",Menlo,Courier,monospace}#chart-266236c1-8a31-42aa-a6a8-5aae81cd4d16 .title{font-family:Consolas,"Liberation Mono",Menlo,Courier,monospace;font-size:16px}#chart-266236c1-8a31-42aa-a6a8-5aae81cd4d16 .legends .legend text{font-family:Consolas,"Liberation Mono",Menlo,Courier,monospace;font-size:14px}#chart-266236c1-8a31-42aa-a6a8-5aae81cd4d16 .axis text{font-family:Consolas,"Liberation Mono",Menlo,Courier,monospace;font-size:10px}#chart-266236c1-8a31-42aa-a6a8-5aae81cd4d16 .axis text.major{font-family:Consolas,"Liberation Mono",Menlo,Courier,monospace;font-size:10px}#chart-266236c1-8a31-42aa-a6a8-5aae81cd4d16 .text-overlay text.value{font-family:Consolas,"Liberation Mono",Menlo,Courier,monospace;font-size:16px}#chart-266236c1-8a31-42aa-a6a8-5aae81cd4d16 .text-overlay text.label{font-family:Consolas,"Liberation Mono",Menlo,Courier,monospace;font-size:10px}#chart-266236c1-8a31-42aa-a6a8-5aae81cd4d16 .tooltip{font-family:Consolas,"Liberation Mono",Menlo,Courier,monospace;font-size:14px}#chart-266236c1-8a31-42aa-a6a8-5aae81cd4d16 text.no_data{font-family:Consolas,"Liberation Mono",Menlo,Courier,monospace;font-size:64px}
#chart-266236c1-8a31-42aa-a6a8-5aae81cd4d16{background-color:rgba(249,249,249,1)}#chart-266236c1-8a31-42aa-a6a8-5aae81cd4d16 path,#chart-266236c1-8a31-42aa-a6a8-5aae81cd4d16 line,#chart-266236c1-8a31-42aa-a6a8-5aae81cd4d16 rect,#chart-266236c1-8a31-42aa-a6a8-5aae81cd4d16 circle{-webkit-transition:150ms;-moz-transition:150ms;transition:150ms}#chart-266236c1-8a31-42aa-a6a8-5aae81cd4d16 .graph &gt; .background{fill:rgba(249,249,249,1)}#chart-266236c1-8a31-42aa-a6a8-5aae81cd4d16 .plot &gt; .background{fill:rgba(255,255,255,1)}#chart-266236c1-8a31-42aa-a6a8-5aae81cd4d16 .graph{fill:rgba(0,0,0,.87)}#chart-266236c1-8a31-42aa-a6a8-5aae81cd4d16 text.no_data{fill:rgba(0,0,0,1)}#chart-266236c1-8a31-42aa-a6a8-5aae81cd4d16 .title{fill:rgba(0,0,0,1)}#chart-266236c1-8a31-42aa-a6a8-5aae81cd4d16 .legends .legend text{fill:rgba(0,0,0,.87)}#chart-266236c1-8a31-42aa-a6a8-5aae81cd4d16 .legends .legend:hover text{fill:rgba(0,0,0,1)}#chart-266236c1-8a31-42aa-a6a8-5aae81cd4d16 .axis .line{stroke:rgba(0,0,0,1)}#chart-266236c1-8a31-42aa-a6a8-5aae81cd4d16 .axis .guide.line{stroke:rgba(0,0,0,.54)}#chart-266236c1-8a31-42aa-a6a8-5aae81cd4d16 .axis .major.line{stroke:rgba(0,0,0,.87)}#chart-266236c1-8a31-42aa-a6a8-5aae81cd4d16 .axis text.major{fill:rgba(0,0,0,1)}#chart-266236c1-8a31-42aa-a6a8-5aae81cd4d16 .axis.y .guides:hover .guide.line,#chart-266236c1-8a31-42aa-a6a8-5aae81cd4d16 .line-graph .axis.x .guides:hover .guide.line,#chart-266236c1-8a31-42aa-a6a8-5aae81cd4d16 .stackedline-graph .axis.x .guides:hover .guide.line,#chart-266236c1-8a31-42aa-a6a8-5aae81cd4d16 .xy-graph .axis.x .guides:hover .guide.line{stroke:rgba(0,0,0,1)}#chart-266236c1-8a31-42aa-a6a8-5aae81cd4d16 .axis .guides:hover text{fill:rgba(0,0,0,1)}#chart-266236c1-8a31-42aa-a6a8-5aae81cd4d16 .reactive{fill-opacity:.7;stroke-opacity:.8;stroke-width:1}#chart-266236c1-8a31-42aa-a6a8-5aae81cd4d16 .ci{stroke:rgba(0,0,0,.87)}#chart-266236c1-8a31-42aa-a6a8-5aae81cd4d16 .reactive.active,#chart-266236c1-8a31-42aa-a6a8-5aae81cd4d16 .active .reactive{fill-opacity:.8;stroke-opacity:.9;stroke-width:4}#chart-266236c1-8a31-42aa-a6a8-5aae81cd4d16 .ci .reactive.active{stroke-width:1.5}#chart-266236c1-8a31-42aa-a6a8-5aae81cd4d16 .series text{fill:rgba(0,0,0,1)}#chart-266236c1-8a31-42aa-a6a8-5aae81cd4d16 .tooltip rect{fill:rgba(255,255,255,1);stroke:rgba(0,0,0,1);-webkit-transition:opacity 150ms;-moz-transition:opacity 150ms;transition:opacity 150ms}#chart-266236c1-8a31-42aa-a6a8-5aae81cd4d16 .tooltip .label{fill:rgba(0,0,0,.87)}#chart-266236c1-8a31-42aa-a6a8-5aae81cd4d16 .tooltip .label{fill:rgba(0,0,0,.87)}#chart-266236c1-8a31-42aa-a6a8-5aae81cd4d16 .tooltip .legend{font-size:.8em;fill:rgba(0,0,0,.54)}#chart-266236c1-8a31-42aa-a6a8-5aae81cd4d16 .tooltip .x_label{font-size:.6em;fill:rgba(0,0,0,1)}#chart-266236c1-8a31-42aa-a6a8-5aae81cd4d16 .tooltip .xlink{font-size:.5em;text-decoration:underline}#chart-266236c1-8a31-42aa-a6a8-5aae81cd4d16 .tooltip .value{font-size:1.5em}#chart-266236c1-8a31-42aa-a6a8-5aae81cd4d16 .bound{font-size:.5em}#chart-266236c1-8a31-42aa-a6a8-5aae81cd4d16 .max-value{font-size:.75em;fill:rgba(0,0,0,.54)}#chart-266236c1-8a31-42aa-a6a8-5aae81cd4d16 .map-element{fill:rgba(255,255,255,1);stroke:rgba(0,0,0,.54) !important}#chart-266236c1-8a31-42aa-a6a8-5aae81cd4d16 .map-element .reactive{fill-opacity:inherit;stroke-opacity:inherit}#chart-266236c1-8a31-42aa-a6a8-5aae81cd4d16 .color-0,#chart-266236c1-8a31-42aa-a6a8-5aae81cd4d16 .color-0 a:visited{stroke:#F44336;fill:#F44336}#chart-266236c1-8a31-42aa-a6a8-5aae81cd4d16 .text-overlay .color-0 text{fill:black}
#chart-266236c1-8a31-42aa-a6a8-5aae81cd4d16 text.no_data{text-anchor:middle}#chart-266236c1-8a31-42aa-a6a8-5aae81cd4d16 .guide.line{fill:none}#chart-266236c1-8a31-42aa-a6a8-5aae81cd4d16 .centered{text-anchor:middle}#chart-266236c1-8a31-42aa-a6a8-5aae81cd4d16 .title{text-anchor:middle}#chart-266236c1-8a31-42aa-a6a8-5aae81cd4d16 .legends .legend text{fill-opacity:1}#chart-266236c1-8a31-42aa-a6a8-5aae81cd4d16 .axis.x text{text-anchor:middle}#chart-266236c1-8a31-42aa-a6a8-5aae81cd4d16 .axis.x:not(.web) text[transform]{text-anchor:start}#chart-266236c1-8a31-42aa-a6a8-5aae81cd4d16 .axis.x:not(.web) text[transform].backwards{text-anchor:end}#chart-266236c1-8a31-42aa-a6a8-5aae81cd4d16 .axis.y text{text-anchor:end}#chart-266236c1-8a31-42aa-a6a8-5aae81cd4d16 .axis.y text[transform].backwards{text-anchor:start}#chart-266236c1-8a31-42aa-a6a8-5aae81cd4d16 .axis.y2 text{text-anchor:start}#chart-266236c1-8a31-42aa-a6a8-5aae81cd4d16 .axis.y2 text[transform].backwards{text-anchor:end}#chart-266236c1-8a31-42aa-a6a8-5aae81cd4d16 .axis .guide.line{stroke-dasharray:4,4;stroke:black}#chart-266236c1-8a31-42aa-a6a8-5aae81cd4d16 .axis .major.guide.line{stroke-dasharray:6,6;stroke:black}#chart-266236c1-8a31-42aa-a6a8-5aae81cd4d16 .horizontal .axis.y .guide.line,#chart-266236c1-8a31-42aa-a6a8-5aae81cd4d16 .horizontal .axis.y2 .guide.line,#chart-266236c1-8a31-42aa-a6a8-5aae81cd4d16 .vertical .axis.x .guide.line{opacity:0}#chart-266236c1-8a31-42aa-a6a8-5aae81cd4d16 .horizontal .axis.always_show .guide.line,#chart-266236c1-8a31-42aa-a6a8-5aae81cd4d16 .vertical .axis.always_show .guide.line{opacity:1 !important}#chart-266236c1-8a31-42aa-a6a8-5aae81cd4d16 .axis.y .guides:hover .guide.line,#chart-266236c1-8a31-42aa-a6a8-5aae81cd4d16 .axis.y2 .guides:hover .guide.line,#chart-266236c1-8a31-42aa-a6a8-5aae81cd4d16 .axis.x .guides:hover .guide.line{opacity:1}#chart-266236c1-8a31-42aa-a6a8-5aae81cd4d16 .axis .guides:hover text{opacity:1}#chart-266236c1-8a31-42aa-a6a8-5aae81cd4d16 .nofill{fill:none}#chart-266236c1-8a31-42aa-a6a8-5aae81cd4d16 .subtle-fill{fill-opacity:.2}#chart-266236c1-8a31-42aa-a6a8-5aae81cd4d16 .dot{stroke-width:1px;fill-opacity:1;stroke-opacity:1}#chart-266236c1-8a31-42aa-a6a8-5aae81cd4d16 .dot.active{stroke-width:5px}#chart-266236c1-8a31-42aa-a6a8-5aae81cd4d16 .dot.negative{fill:transparent}#chart-266236c1-8a31-42aa-a6a8-5aae81cd4d16 text,#chart-266236c1-8a31-42aa-a6a8-5aae81cd4d16 tspan{stroke:none !important}#chart-266236c1-8a31-42aa-a6a8-5aae81cd4d16 .series text.active{opacity:1}#chart-266236c1-8a31-42aa-a6a8-5aae81cd4d16 .tooltip rect{fill-opacity:.95;stroke-width:.5}#chart-266236c1-8a31-42aa-a6a8-5aae81cd4d16 .tooltip text{fill-opacity:1}#chart-266236c1-8a31-42aa-a6a8-5aae81cd4d16 .showable{visibility:hidden}#chart-266236c1-8a31-42aa-a6a8-5aae81cd4d16 .showable.shown{visibility:visible}#chart-266236c1-8a31-42aa-a6a8-5aae81cd4d16 .gauge-background{fill:rgba(229,229,229,1);stroke:none}#chart-266236c1-8a31-42aa-a6a8-5aae81cd4d16 .bg-lines{stroke:rgba(249,249,249,1);stroke-width:2px}</style><script type="text/javascript">window.pygal = window.pygal || {};window.pygal.config = window.pygal.config || {};window.pygal.config['266236c1-8a31-42aa-a6a8-5aae81cd4d16'] = {"allow_interruptions": false, "box_mode": "extremes", "classes": ["pygal-chart", "pygal-sparkline"], "css": ["file://style.css", "file://graph.css"], "defs": [], "disable_xml_declaration": false, "dots_size": 2.5, "dynamic_print_values": false, "explicit_size": true, "fill": false, "force_uri_protocol": "https", "formatter": null, "half_pie": false, "height": 50, "include_x_axis": false, "inner_radius": 0, "interpolate": "cubic", "interpolation_parameters": {}, "interpolation_precision": 250, "inverse_y_axis": false, "js": [], "legend_at_bottom": false, "legend_at_bottom_columns": null, "legend_box_size": 12, "logarithmic": false, "margin": 10, "margin_bottom": null, "margin_left": null, "margin_right": null, "margin_top": null, "max_scale": 2, "min_scale": 1, "missing_value_fill_truncation": "x", "no_data_text": "", "no_prefix": false, "order_min": null, "pretty_print": false, "print_labels": false, "print_values": false, "print_values_position": "center", "print_zeroes": true, "range": null, "rounded_bars": null, "secondary_range": null, "show_dots": false, "show_legend": false, "show_minor_x_labels": true, "show_minor_y_labels": true, "show_only_major_dots": false, "show_x_guides": false, "show_x_labels": false, "show_y_guides": true, "show_y_labels": true, "spacing": 0, "stack_from_top": false, "strict": false, "stroke": true, "stroke_style": null, "style": {"background": "rgba(249, 249, 249, 1)", "ci_colors": [], "colors": ["#F44336", "#3F51B5", "#009688", "#FFC107", "#FF5722", "#9C27B0", "#03A9F4", "#8BC34A", "#FF9800", "#E91E63", "#2196F3", "#4CAF50", "#FFEB3B", "#673AB7", "#00BCD4", "#CDDC39", "#9E9E9E", "#607D8B"], "dot_opacity": "1", "font_family": "Consolas, \"Liberation Mono\", Menlo, Courier, monospace", "foreground": "rgba(0, 0, 0, .87)", "foreground_strong": "rgba(0, 0, 0, 1)", "foreground_subtle": "rgba(0, 0, 0, .54)", "guide_stroke_color": "black", "guide_stroke_dasharray": "4,4", "label_font_family": "Consolas, \"Liberation Mono\", Menlo, Courier, monospace", "label_font_size": 10, "legend_font_family": "Consolas, \"Liberation Mono\", Menlo, Courier, monospace", "legend_font_size": 14, "major_guide_stroke_color": "black", "major_guide_stroke_dasharray": "6,6", "major_label_font_family": "Consolas, \"Liberation Mono\", Menlo, Courier, monospace", "major_label_font_size": 10, "no_data_font_family": "Consolas, \"Liberation Mono\", Menlo, Courier, monospace", "no_data_font_size": 64, "opacity": ".7", "opacity_hover": ".8", "plot_background": "rgba(255, 255, 255, 1)", "stroke_opacity": ".8", "stroke_opacity_hover": ".9", "stroke_width": "1", "stroke_width_hover": "4", "title_font_family": "Consolas, \"Liberation Mono\", Menlo, Courier, monospace", "title_font_size": 16, "tooltip_font_family": "Consolas, \"Liberation Mono\", Menlo, Courier, monospace", "tooltip_font_size": 14, "transition": "150ms", "value_background": "rgba(229, 229, 229, 1)", "value_colors": [], "value_font_family": "Consolas, \"Liberation Mono\", Menlo, Courier, monospace", "value_font_size": 16, "value_label_font_family": "Consolas, \"Liberation Mono\", Menlo, Courier, monospace", "value_label_font_size": 10}, "title": null, "tooltip_border_radius": 0, "tooltip_fancy_mode": true, "truncate_label": null, "truncate_legend": null, "width": 200, "x_label_rotation": 0, "x_labels": ["2024/6", "2024/4", "2024/1", "2023/11", "2023/2", "2022/12", "2022/11", "2022/10", "2022/8", "2022/4"], "x_labels_major": null, "x_labels_major_count": null, "x_labels_major_every": null, "x_title": null, "xrange": null, "y_label_rotation": 0, "y_labels": null, "y_labels_major": null, "y_labels_major_count": null, "y_labels_major_every": null, "y_title": null, "zero": 0, "legends": [""]}</script></defs><title>Pygal</title><g class="graph line-graph vertical"><rect x="0" y="0" width="200" height="50" class="background" /><g transform="translate(82, 10)" class="plot"><rect x="0" y="0" width="108.0" height="30" class="background" /><g class="axis y always_show"><path d="M0.000000 30.000000 h108.000000" class="line" /><g class="guides"><path d="M0.000000 29.423077 h108.000000" class="guide line" /><text x="-5" y="32.92307692307692" class="">0.3907719469</text><title>0.3907719469</title></g><g class="guides"><path d="M0.000000 0.576923 h108.000000" class="guide line" /><text x="-5" y="4.076923076923077" class="">7.156593326</text><title>7.156593326</title></g></g><g class="series serie-0 color-0"><path d="M2.076923 26.825626 L2.123077 26.827206 2.169231 26.828786 2.215385 26.830365 2.261538 26.831944 2.307692 26.833523 2.353846 26.835100 2.400000 26.836677 2.446154 26.838252 2.492308 26.839827 2.538462 26.841400 2.584615 26.842971 2.630769 26.844541 2.676923 26.846109 2.723077 26.847675 2.769231 26.849239 2.815385 26.850800 2.861538 26.852360 2.907692 26.853916 2.953846 26.855470 3.000000 26.857021 3.046154 26.858569 3.092308 26.860114 3.138462 26.861655 3.184615 26.863193 3.230769 26.864728 3.276923 26.866258 3.323077 26.867785 3.369231 26.869307 3.415385 26.870826 3.461538 26.872339 3.507692 26.873849 3.553846 26.875353 3.600000 26.876853 3.646154 26.878348 3.692308 26.879837 3.738462 26.881322 3.784615 26.882800 3.830769 26.884274 3.876923 26.885741 3.923077 26.887203 3.969231 26.888658 4.015385 26.890107 4.061538 26.891550 4.107692 26.892987 4.153846 26.894416 4.200000 26.895839 4.246154 26.897255 4.292308 26.898664 4.338462 26.900065 4.384615 26.901459 4.430769 26.902846 4.476923 26.904224 4.523077 26.905595 4.569231 26.906958 4.615385 26.908313 4.661538 26.909659 4.707692 26.910997 4.753846 26.912326 4.800000 26.913646 4.846154 26.914957 4.892308 26.916260 4.938462 26.917553 4.984615 26.918836 5.030769 26.920110 5.076923 26.921375 5.123077 26.922629 5.169231 26.923874 5.215385 26.925108 5.261538 26.926332 5.307692 26.927546 5.353846 26.928749 5.400000 26.929941 5.446154 26.931122 5.492308 26.932292 5.538462 26.933451 5.584615 26.934599 5.630769 26.935735 5.676923 26.936859 5.723077 26.937972 5.769231 26.939072 5.815385 26.940161 5.861538 26.941237 5.907692 26.942301 5.953846 26.943352 6.000000 26.944390 6.046154 26.945415 6.092308 26.946428 6.138462 26.947427 6.184615 26.948413 6.230769 26.949385 6.276923 26.950344 6.323077 26.951289 6.369231 26.952220 6.415385 26.953137 6.461538 26.954040 6.507692 26.954928 6.553846 26.955802 6.600000 26.956661 6.646154 26.957505 6.692308 26.958334 6.738462 26.959148 6.784615 26.959946 6.830769 26.960729 6.876923 26.961497 6.923077 26.962249 6.969231 26.962984 7.015385 26.963704 7.061538 26.964408 7.107692 26.965095 7.153846 26.965765 7.200000 26.966419 7.246154 26.967056 7.292308 26.967676 7.338462 26.968279 7.384615 26.968865 7.430769 26.969433 7.476923 26.969984 7.523077 26.970517 7.569231 26.971032 7.615385 26.971529 7.661538 26.972007 7.707692 26.972468 7.753846 26.972910 7.800000 26.973333 7.846154 26.973737 7.892308 26.974123 7.938462 26.974489 7.984615 26.974836 8.030769 26.975164 8.076923 26.975472 8.123077 26.975760 8.169231 26.976029 8.215385 26.976277 8.261538 26.976506 8.307692 26.976714 8.353846 26.976901 8.400000 26.977068 8.446154 26.977214 8.492308 26.977339 8.538462 26.977444 8.584615 26.977527 8.630769 26.977588 8.676923 26.977628 8.723077 26.977646 8.769231 26.977643 8.815385 26.977617 8.861538 26.977569 8.907692 26.977499 8.953846 26.977407 9.000000 26.977292 9.046154 26.977154 9.092308 26.976993 9.138462 26.976810 9.184615 26.976603 9.230769 26.976372 9.276923 26.976119 9.323077 26.975841 9.369231 26.975540 9.415385 26.975215 9.461538 26.974865 9.507692 26.974492 9.553846 26.974094 9.600000 26.973671 9.646154 26.973224 9.692308 26.972751 9.738462 26.972254 9.784615 26.971732 9.830769 26.971184 9.876923 26.970611 9.923077 26.970012 9.969231 26.969387 10.015385 26.968737 10.061538 26.968060 10.107692 26.967357 10.153846 26.966628 10.200000 26.965872 10.246154 26.965090 10.292308 26.964280 10.338462 26.963444 10.384615 26.962580 10.430769 26.961690 10.476923 26.960771 10.523077 26.959825 10.569231 26.958852 10.615385 26.957850 10.661538 26.956821 10.707692 26.955763 10.753846 26.954677 10.800000 26.953562 10.846154 26.952419 10.892308 26.951247 10.938462 26.950046 10.984615 26.948815 11.030769 26.947556 11.076923 26.946267 11.123077 26.944948 11.169231 26.943600 11.215385 26.942222 11.261538 26.940814 11.307692 26.939376 11.353846 26.937907 11.400000 26.936408 11.446154 26.934878 11.492308 26.933317 11.538462 26.931726 11.584615 26.930103 11.630769 26.928450 11.676923 26.926764 11.723077 26.925047 11.769231 26.923299 11.815385 26.921519 11.861538 26.919706 11.907692 26.917862 11.953846 26.915985 12.000000 26.914076 12.046154 26.912134 12.092308 26.910159 12.138462 26.908152 12.184615 26.906111 12.230769 26.904037 12.276923 26.901930 12.323077 26.899790 12.369231 26.897615 12.415385 26.895407 12.461538 26.893165 12.507692 26.890889 12.553846 26.888578 12.600000 26.886233 12.646154 26.883854 12.692308 26.881439 12.738462 26.878990 12.784615 26.876506 12.830769 26.873987 12.876923 26.871432 12.923077 26.868842 12.969231 26.866216 13.015385 26.863554 13.061538 26.860857 13.107692 26.858123 13.153846 26.855353 13.200000 26.852547 13.246154 26.849704 13.292308 26.846824 13.338462 26.843908 13.384615 26.840954 13.430769 26.837964 13.476923 26.834936 13.523077 26.831870 13.569231 26.828767 13.615385 26.825626 13.661538 26.822448 13.707692 26.819230 13.753846 26.815973 13.800000 26.812675 13.846154 26.809336 13.892308 26.805954 13.938462 26.802529 13.984615 26.799061 14.030769 26.795547 14.076923 26.791987 14.123077 26.788381 14.169231 26.784727 14.215385 26.781025 14.261538 26.777273 14.307692 26.773471 14.353846 26.769618 14.400000 26.765713 14.446154 26.761755 14.492308 26.757744 14.538462 26.753677 14.584615 26.749556 14.630769 26.745378 14.676923 26.741142 14.723077 26.736849 14.769231 26.732496 14.815385 26.728084 14.861538 26.723611 14.907692 26.719076 14.953846 26.714479 15.000000 26.709818 15.046154 26.705093 15.092308 26.700303 15.138462 26.695447 15.184615 26.690524 15.230769 26.685533 15.276923 26.680473 15.323077 26.675344 15.369231 26.670145 15.415385 26.664874 15.461538 26.659531 15.507692 26.654115 15.553846 26.648625 15.600000 26.643060 15.646154 26.637419 15.692308 26.631702 15.738462 26.625907 15.784615 26.620034 15.830769 26.614082 15.876923 26.608050 15.923077 26.601936 15.969231 26.595741 16.015385 26.589463 16.061538 26.583102 16.107692 26.576656 16.153846 26.570124 16.200000 26.563507 16.246154 26.556802 16.292308 26.550009 16.338462 26.543127 16.384615 26.536156 16.430769 26.529094 16.476923 26.521940 16.523077 26.514694 16.569231 26.507355 16.615385 26.499921 16.661538 26.492393 16.707692 26.484769 16.753846 26.477047 16.800000 26.469228 16.846154 26.461311 16.892308 26.453294 16.938462 26.445177 16.984615 26.436958 17.030769 26.428638 17.076923 26.420214 17.123077 26.411687 17.169231 26.403055 17.215385 26.394317 17.261538 26.385473 17.307692 26.376522 17.353846 26.367462 17.400000 26.358294 17.446154 26.349015 17.492308 26.339625 17.538462 26.330124 17.584615 26.320510 17.630769 26.310783 17.676923 26.300941 17.723077 26.290984 17.769231 26.280911 17.815385 26.270720 17.861538 26.260412 17.907692 26.249985 17.953846 26.239439 18.000000 26.228772 18.046154 26.217983 18.092308 26.207073 18.138462 26.196039 18.184615 26.184881 18.230769 26.173598 18.276923 26.162189 18.323077 26.150654 18.369231 26.138991 18.415385 26.127200 18.461538 26.115279 18.507692 26.103228 18.553846 26.091046 18.600000 26.078732 18.646154 26.066285 18.692308 26.053705 18.738462 26.040990 18.784615 26.028139 18.830769 26.015152 18.876923 26.002028 18.923077 25.988766 18.969231 25.975365 19.015385 25.961824 19.061538 25.948142 19.107692 25.934319 19.153846 25.920353 19.200000 25.906243 19.246154 25.891990 19.292308 25.877591 19.338462 25.863047 19.384615 25.848355 19.430769 25.833516 19.476923 25.818528 19.523077 25.803390 19.569231 25.788102 19.615385 25.772663 19.661538 25.757071 19.707692 25.741327 19.753846 25.725428 19.800000 25.709375 19.846154 25.693166 19.892308 25.676801 19.938462 25.660278 19.984615 25.643597 20.030769 25.626756 20.076923 25.609756 20.123077 25.592594 20.169231 25.575271 20.215385 25.557785 20.261538 25.540136 20.307692 25.522321 20.353846 25.504342 20.400000 25.486196 20.446154 25.467884 20.492308 25.449403 20.538462 25.430753 20.584615 25.411934 20.630769 25.392944 20.676923 25.373782 20.723077 25.354449 20.769231 25.334941 20.815385 25.315260 20.861538 25.295404 20.907692 25.275372 20.953846 25.255163 21.000000 25.234776 21.046154 25.214211 21.092308 25.193466 21.138462 25.172542 21.184615 25.151436 21.230769 25.130147 21.276923 25.108676 21.323077 25.087022 21.369231 25.065182 21.415385 25.043157 21.461538 25.020946 21.507692 24.998547 21.553846 24.975960 21.600000 24.953184 21.646154 24.930218 21.692308 24.907061 21.738462 24.883712 21.784615 24.860171 21.830769 24.836436 21.876923 24.812507 21.923077 24.788383 21.969231 24.764062 22.015385 24.739545 22.061538 24.714830 22.107692 24.689916 22.153846 24.664802 22.200000 24.639488 22.246154 24.613973 22.292308 24.588255 22.338462 24.562334 22.384615 24.536209 22.430769 24.509879 22.476923 24.483343 22.523077 24.456601 22.569231 24.429651 22.615385 24.402493 22.661538 24.375126 22.707692 24.347548 22.753846 24.319759 22.800000 24.291758 22.846154 24.263545 22.892308 24.235118 22.938462 24.206476 22.984615 24.177619 23.030769 24.148545 23.076923 24.119255 23.123077 24.089746 23.169231 24.060018 23.215385 24.030070 23.261538 23.999902 23.307692 23.969512 23.353846 23.938900 23.400000 23.908064 23.446154 23.877004 23.492308 23.845719 23.538462 23.814208 23.584615 23.782470 23.630769 23.750504 23.676923 23.718310 23.723077 23.685886 23.769231 23.653232 23.815385 23.620346 23.861538 23.587229 23.907692 23.553878 23.953846 23.520293 24.000000 23.486474 24.046154 23.452419 24.092308 23.418127 24.138462 23.383598 24.184615 23.348831 24.230769 23.313825 24.276923 23.278578 24.323077 23.243091 24.369231 23.207361 24.415385 23.171390 24.461538 23.135174 24.507692 23.098714 24.553846 23.062009 24.600000 23.025057 24.646154 22.987859 24.692308 22.950412 24.738462 22.912717 24.784615 22.874772 24.830769 22.836576 24.876923 22.798129 24.923077 22.759429 24.969231 22.720476 25.015385 22.681270 25.061538 22.641808 25.107692 22.602090 25.153846 22.562115 25.200000 22.521884 25.246154 22.481399 25.292308 22.440663 25.338462 22.399681 25.384615 22.358455 25.430769 22.316991 25.476923 22.275291 25.523077 22.233359 25.569231 22.191198 25.615385 22.148813 25.661538 22.106207 25.707692 22.063384 25.753846 22.020347 25.800000 21.977100 25.846154 21.933647 25.892308 21.889991 25.938462 21.846136 25.984615 21.802086 26.030769 21.757844 26.076923 21.713415 26.123077 21.668801 26.169231 21.624006 26.215385 21.579035 26.261538 21.533890 26.307692 21.488576 26.353846 21.443095 26.400000 21.397453 26.446154 21.351651 26.492308 21.305695 26.538462 21.259588 26.584615 21.213332 26.630769 21.166933 26.676923 21.120394 26.723077 21.073718 26.769231 21.026909 26.815385 20.979971 26.861538 20.932907 26.907692 20.885721 26.953846 20.838417 27.000000 20.790999 27.046154 20.743469 27.092308 20.695832 27.138462 20.648091 27.184615 20.600251 27.230769 20.552314 27.276923 20.504285 27.323077 20.456167 27.369231 20.407963 27.415385 20.359678 27.461538 20.311315 27.507692 20.262877 27.553846 20.214369 27.600000 20.165794 27.646154 20.117156 27.692308 20.068458 27.738462 20.019705 27.784615 19.970898 27.830769 19.922044 27.876923 19.873144 27.923077 19.824203 27.969231 19.775225 28.015385 19.726212 28.061538 19.677170 28.107692 19.628100 28.153846 19.579008 28.200000 19.529897 28.246154 19.480770 28.292308 19.431631 28.338462 19.382483 28.384615 19.333331 28.430769 19.284179 28.476923 19.235028 28.523077 19.185885 28.569231 19.136751 28.615385 19.087631 28.661538 19.038529 28.707692 18.989447 28.753846 18.940391 28.800000 18.891362 28.846154 18.842366 28.892308 18.793406 28.938462 18.744485 28.984615 18.695607 29.030769 18.646775 29.076923 18.597994 29.123077 18.549268 29.169231 18.500599 29.215385 18.451991 29.261538 18.403448 29.307692 18.354975 29.353846 18.306573 29.400000 18.258248 29.446154 18.210002 29.492308 18.161840 29.538462 18.113765 29.584615 18.065780 29.630769 18.017890 29.676923 17.970099 29.723077 17.922408 29.769231 17.874824 29.815385 17.827348 29.861538 17.779985 29.907692 17.732739 29.953846 17.685612 30.000000 17.638610 30.046154 17.591734 30.092308 17.544990 30.138462 17.498381 30.184615 17.451910 30.230769 17.405581 30.276923 17.359398 30.323077 17.313364 30.369231 17.267483 30.415385 17.221759 30.461538 17.176196 30.507692 17.130796 30.553846 17.085565 30.600000 17.040505 30.646154 16.995619 30.692308 16.950913 30.738462 16.906389 30.784615 16.862051 30.830769 16.817903 30.876923 16.773948 30.923077 16.730191 30.969231 16.686634 31.015385 16.643281 31.061538 16.600137 31.107692 16.557205 31.153846 16.514487 31.200000 16.471989 31.246154 16.429714 31.292308 16.387665 31.338462 16.345846 31.384615 16.304261 31.430769 16.262914 31.476923 16.221807 31.523077 16.180945 31.569231 16.140332 31.615385 16.099971 31.661538 16.059865 31.707692 16.020019 31.753846 15.980437 31.800000 15.941120 31.846154 15.902075 31.892308 15.863303 31.938462 15.824809 31.984615 15.786597 32.030769 15.748669 32.076923 15.711031 32.123077 15.673685 32.169231 15.636635 32.215385 15.599884 32.261538 15.563438 32.307692 15.527298 32.353846 15.491469 32.400000 15.455954 32.446154 15.420758 32.492308 15.385883 32.538462 15.351334 32.584615 15.317114 32.630769 15.283227 32.676923 15.249676 32.723077 15.216465 32.769231 15.183598 32.815385 15.151079 32.861538 15.118910 32.907692 15.087097 32.953846 15.055641 33.000000 15.024548 33.046154 14.993821 33.092308 14.963463 33.138462 14.933478 33.184615 14.903870 33.230769 14.874643 33.276923 14.845799 33.323077 14.817344 33.369231 14.789279 33.415385 14.761610 33.461538 14.734340 33.507692 14.707472 33.553846 14.681010 33.600000 14.654958 33.646154 14.629320 33.692308 14.604098 33.738462 14.579298 33.784615 14.554921 33.830769 14.530973 33.876923 14.507457 33.923077 14.484376 33.969231 14.461735 34.015385 14.439536 34.061538 14.417783 34.107692 14.396481 34.153846 14.375632 34.200000 14.355241 34.246154 14.335311 34.292308 14.315846 34.338462 14.296849 34.384615 14.278325 34.430769 14.260276 34.476923 14.242706 34.523077 14.225620 34.569231 14.209021 34.615385 14.192912 34.661538 14.177297 34.707692 14.162180 34.753846 14.147564 34.800000 14.133454 34.846154 14.119852 34.892308 14.106763 34.938462 14.094190 34.984615 14.082136 35.030769 14.070606 35.076923 14.059604 35.123077 14.049132 35.169231 14.039194 35.215385 14.029795 35.261538 14.020937 35.307692 14.012625 35.353846 14.004862 35.400000 13.997652 35.446154 13.990999 35.492308 13.984905 35.538462 13.979375 35.584615 13.974413 35.630769 13.970022 35.676923 13.966206 35.723077 13.962968 35.769231 13.960312 35.815385 13.958242 35.861538 13.956762 35.907692 13.955874 35.953846 13.955584 36.000000 13.955894 36.046154 13.956808 36.092308 13.958330 36.138462 13.960463 36.184615 13.963212 36.230769 13.966579 36.276923 13.970569 36.323077 13.975185 36.369231 13.980431 36.415385 13.986310 36.461538 13.992826 36.507692 13.999983 36.553846 14.007785 36.600000 14.016235 36.646154 14.025336 36.692308 14.035093 36.738462 14.045508 36.784615 14.056576 36.830769 14.068293 36.876923 14.080651 36.923077 14.093646 36.969231 14.107273 37.015385 14.121525 37.061538 14.136396 37.107692 14.151882 37.153846 14.167977 37.200000 14.184675 37.246154 14.201971 37.292308 14.219858 37.338462 14.238332 37.384615 14.257386 37.430769 14.277015 37.476923 14.297214 37.523077 14.317977 37.569231 14.339298 37.615385 14.361172 37.661538 14.383593 37.707692 14.406555 37.753846 14.430053 37.800000 14.454082 37.846154 14.478635 37.892308 14.503707 37.938462 14.529293 37.984615 14.555386 38.030769 14.581982 38.076923 14.609074 38.123077 14.636657 38.169231 14.664726 38.215385 14.693275 38.261538 14.722298 38.307692 14.751789 38.353846 14.781744 38.400000 14.812156 38.446154 14.843019 38.492308 14.874329 38.538462 14.906080 38.584615 14.938265 38.630769 14.970880 38.676923 15.003919 38.723077 15.037376 38.769231 15.071245 38.815385 15.105522 38.861538 15.140200 38.907692 15.175273 38.953846 15.210737 39.000000 15.246585 39.046154 15.282813 39.092308 15.319413 39.138462 15.356382 39.184615 15.393713 39.230769 15.431400 39.276923 15.469438 39.323077 15.507821 39.369231 15.546544 39.415385 15.585602 39.461538 15.624988 39.507692 15.664696 39.553846 15.704722 39.600000 15.745060 39.646154 15.785704 39.692308 15.826649 39.738462 15.867888 39.784615 15.909417 39.830769 15.951229 39.876923 15.993319 39.923077 16.035682 39.969231 16.078312 40.015385 16.121203 40.061538 16.164350 40.107692 16.207747 40.153846 16.251389 40.200000 16.295269 40.246154 16.339382 40.292308 16.383723 40.338462 16.428287 40.384615 16.473066 40.430769 16.518057 40.476923 16.563253 40.523077 16.608648 40.569231 16.654238 40.615385 16.700016 40.661538 16.745977 40.707692 16.792115 40.753846 16.838424 40.800000 16.884900 40.846154 16.931536 40.892308 16.978327 40.938462 17.025267 40.984615 17.072351 41.030769 17.119573 41.076923 17.166927 41.123077 17.214408 41.169231 17.262010 41.215385 17.309728 41.261538 17.357555 41.307692 17.405487 41.353846 17.453518 41.400000 17.501642 41.446154 17.549854 41.492308 17.598148 41.538462 17.646518 41.584615 17.694958 41.630769 17.743464 41.676923 17.792030 41.723077 17.840649 41.769231 17.889317 41.815385 17.938028 41.861538 17.986775 41.907692 18.035554 41.953846 18.084360 42.000000 18.133185 42.046154 18.182025 42.092308 18.230875 42.138462 18.279727 42.184615 18.328578 42.230769 18.377421 42.276923 18.426251 42.323077 18.475062 42.369231 18.523848 42.415385 18.572605 42.461538 18.621325 42.507692 18.670005 42.553846 18.718637 42.600000 18.767217 42.646154 18.815738 42.692308 18.864197 42.738462 18.912585 42.784615 18.960899 42.830769 19.009132 42.876923 19.057279 42.923077 19.105335 42.969231 19.153293 43.015385 19.201148 43.061538 19.248894 43.107692 19.296527 43.153846 19.344039 43.200000 19.391426 43.246154 19.438683 43.292308 19.485802 43.338462 19.532780 43.384615 19.579610 43.430769 19.626286 43.476923 19.672803 43.523077 19.719156 43.569231 19.765339 43.615385 19.811345 43.661538 19.857171 43.707692 19.902809 43.753846 19.948255 43.800000 19.993503 43.846154 20.038546 43.892308 20.083381 43.938462 20.128000 43.984615 20.172399 44.030769 20.216571 44.076923 20.260512 44.123077 20.304215 44.169231 20.347675 44.215385 20.390887 44.261538 20.433844 44.307692 20.476542 44.353846 20.518973 44.400000 20.561134 44.446154 20.603019 44.492308 20.644621 44.538462 20.685935 44.584615 20.726955 44.630769 20.767677 44.676923 20.808094 44.723077 20.848201 44.769231 20.887991 44.815385 20.927461 44.861538 20.966603 44.907692 21.005412 44.953846 21.043883 45.000000 21.082011 45.046154 21.119788 45.092308 21.157211 45.138462 21.194273 45.184615 21.230968 45.230769 21.267292 45.276923 21.303238 45.323077 21.338801 45.369231 21.373976 45.415385 21.408755 45.461538 21.443135 45.507692 21.477110 45.553846 21.510673 45.600000 21.543820 45.646154 21.576544 45.692308 21.608840 45.738462 21.640703 45.784615 21.672127 45.830769 21.703105 45.876923 21.733634 45.923077 21.763706 45.969231 21.793317 46.015385 21.822460 46.061538 21.851131 46.107692 21.879324 46.153846 21.907032 46.200000 21.934251 46.246154 21.960975 46.292308 21.987198 46.338462 22.012914 46.384615 22.038119 46.430769 22.062805 46.476923 22.086969 46.523077 22.110604 46.569231 22.133704 46.615385 22.156264 46.661538 22.178279 46.707692 22.199742 46.753846 22.220649 46.800000 22.240993 46.846154 22.260769 46.892308 22.279972 46.938462 22.298595 46.984615 22.316633 47.030769 22.334081 47.076923 22.350933 47.123077 22.367183 47.169231 22.382826 47.215385 22.397856 47.261538 22.412267 47.307692 22.426055 47.353846 22.439213 47.400000 22.451735 47.446154 22.463617 47.492308 22.474852 47.538462 22.485434 47.584615 22.495360 47.630769 22.504622 47.676923 22.513215 47.723077 22.521133 47.769231 22.528371 47.815385 22.534924 47.861538 22.540785 47.907692 22.545950 47.953846 22.550412 48.000000 22.554165 48.046154 22.557205 48.092308 22.559526 48.138462 22.561121 48.184615 22.561986 48.230769 22.562115 48.276923 22.561504 48.323077 22.560155 48.369231 22.558073 48.415385 22.555260 48.461538 22.551722 48.507692 22.547462 48.553846 22.542485 48.600000 22.536793 48.646154 22.530392 48.692308 22.523286 48.738462 22.515478 48.784615 22.506972 48.830769 22.497773 48.876923 22.487884 48.923077 22.477309 48.969231 22.466053 49.015385 22.454119 49.061538 22.441512 49.107692 22.428235 49.153846 22.414293 49.200000 22.399689 49.246154 22.384428 49.292308 22.368513 49.338462 22.351949 49.384615 22.334739 49.430769 22.316888 49.476923 22.298399 49.523077 22.279277 49.569231 22.259526 49.615385 22.239149 49.661538 22.218151 49.707692 22.196536 49.753846 22.174307 49.800000 22.151468 49.846154 22.128025 49.892308 22.103980 49.938462 22.079338 49.984615 22.054102 50.030769 22.028278 50.076923 22.001868 50.123077 21.974876 50.169231 21.947308 50.215385 21.919166 50.261538 21.890455 50.307692 21.861179 50.353846 21.831342 50.400000 21.800947 50.446154 21.769999 50.492308 21.738502 50.538462 21.706460 50.584615 21.673877 50.630769 21.640757 50.676923 21.607104 50.723077 21.572921 50.769231 21.538214 50.815385 21.502985 50.861538 21.467240 50.907692 21.430981 50.953846 21.394213 51.000000 21.356941 51.046154 21.319167 51.092308 21.280896 51.138462 21.242133 51.184615 21.202880 51.230769 21.163143 51.276923 21.122924 51.323077 21.082229 51.369231 21.041060 51.415385 20.999423 51.461538 20.957321 51.507692 20.914758 51.553846 20.871738 51.600000 20.828266 51.646154 20.784344 51.692308 20.739978 51.738462 20.695171 51.784615 20.649927 51.830769 20.604250 51.876923 20.558145 51.923077 20.511614 51.969231 20.464663 52.015385 20.417296 52.061538 20.369515 52.107692 20.321326 52.153846 20.272732 52.200000 20.223738 52.246154 20.174347 52.292308 20.124563 52.338462 20.074390 52.384615 20.023833 52.430769 19.972895 52.476923 19.921581 52.523077 19.869894 52.569231 19.817839 52.615385 19.765419 52.661538 19.712638 52.707692 19.659501 52.753846 19.606011 52.800000 19.552173 52.846154 19.497990 52.892308 19.443467 52.938462 19.388607 52.984615 19.333415 53.030769 19.277895 53.076923 19.222049 53.123077 19.165884 53.169231 19.109402 53.215385 19.052608 53.261538 18.995505 53.307692 18.938098 53.353846 18.880391 53.400000 18.822387 53.446154 18.764091 53.492308 18.705506 53.538462 18.646638 53.584615 18.587489 53.630769 18.528063 53.676923 18.468366 53.723077 18.408400 53.769231 18.348170 53.815385 18.287679 53.861538 18.226933 53.907692 18.165934 53.953846 18.104687 54.000000 18.043196 54.046154 17.981465 54.092308 17.919497 54.138462 17.857298 54.184615 17.794870 54.230769 17.732218 54.276923 17.669346 54.323077 17.606258 54.369231 17.542958 54.415385 17.479449 54.461538 17.415737 54.507692 17.351825 54.553846 17.287716 54.600000 17.223416 54.646154 17.158927 54.692308 17.094255 54.738462 17.029403 54.784615 16.964374 54.830769 16.899174 54.876923 16.833806 54.923077 16.768274 54.969231 16.702581 55.015385 16.636733 55.061538 16.570733 55.107692 16.504586 55.153846 16.438294 55.200000 16.371863 55.246154 16.305295 55.292308 16.238596 55.338462 16.171769 55.384615 16.104818 55.430769 16.037748 55.476923 15.970561 55.523077 15.903263 55.569231 15.835857 55.615385 15.768348 55.661538 15.700738 55.707692 15.633033 55.753846 15.565236 55.800000 15.497352 55.846154 15.429384 55.892308 15.361336 55.938462 15.293213 55.984615 15.225017 56.030769 15.156755 56.076923 15.088428 56.123077 15.020042 56.169231 14.951601 56.215385 14.883108 56.261538 14.814567 56.307692 14.745983 56.353846 14.677359 56.400000 14.608700 56.446154 14.540009 56.492308 14.471291 56.538462 14.402549 56.584615 14.333788 56.630769 14.265011 56.676923 14.196223 56.723077 14.127428 56.769231 14.058629 56.815385 13.989830 56.861538 13.921036 56.907692 13.852251 56.953846 13.783479 57.000000 13.714723 57.046154 13.645987 57.092308 13.577277 57.138462 13.508595 57.184615 13.439946 57.230769 13.371333 57.276923 13.302761 57.323077 13.234234 57.369231 13.165756 57.415385 13.097330 57.461538 13.028962 57.507692 12.960654 57.553846 12.892410 57.600000 12.824236 57.646154 12.756134 57.692308 12.688110 57.738462 12.620166 57.784615 12.552307 57.830769 12.484536 57.876923 12.416859 57.923077 12.349279 57.969231 12.281799 58.015385 12.214425 58.061538 12.147159 58.107692 12.080006 58.153846 12.012970 58.200000 11.946056 58.246154 11.879266 58.292308 11.812605 58.338462 11.746077 58.384615 11.679687 58.430769 11.613437 58.476923 11.547332 58.523077 11.481377 58.569231 11.415574 58.615385 11.349929 58.661538 11.284444 58.707692 11.219125 58.753846 11.153975 58.800000 11.088998 58.846154 11.024198 58.892308 10.959579 58.938462 10.895146 58.984615 10.830902 59.030769 10.766850 59.076923 10.702997 59.123077 10.639344 59.169231 10.575896 59.215385 10.512658 59.261538 10.449633 59.307692 10.386826 59.353846 10.324239 59.400000 10.261878 59.446154 10.199747 59.492308 10.137848 59.538462 10.076187 59.584615 10.014767 59.630769 9.953593 59.676923 9.892668 59.723077 9.831997 59.769231 9.771582 59.815385 9.711429 59.861538 9.651536 59.907692 9.591904 59.953846 9.532531 60.000000 9.473417 60.046154 9.414561 60.092308 9.355963 60.138462 9.297622 60.184615 9.239537 60.230769 9.181708 60.276923 9.124134 60.323077 9.066815 60.369231 9.009750 60.415385 8.952938 60.461538 8.896379 60.507692 8.840072 60.553846 8.784016 60.600000 8.728211 60.646154 8.672656 60.692308 8.617351 60.738462 8.562295 60.784615 8.507487 60.830769 8.452927 60.876923 8.398614 60.923077 8.344547 60.969231 8.290726 61.015385 8.237150 61.061538 8.183819 61.107692 8.130732 61.153846 8.077888 61.200000 8.025287 61.246154 7.972928 61.292308 7.920810 61.338462 7.868933 61.384615 7.817296 61.430769 7.765899 61.476923 7.714741 61.523077 7.663821 61.569231 7.613139 61.615385 7.562694 61.661538 7.512486 61.707692 7.462513 61.753846 7.412775 61.800000 7.363272 61.846154 7.314003 61.892308 7.264967 61.938462 7.216165 61.984615 7.167594 62.030769 7.119254 62.076923 7.071146 62.123077 7.023267 62.169231 6.975618 62.215385 6.928198 62.261538 6.881007 62.307692 6.834043 62.353846 6.787307 62.400000 6.740796 62.446154 6.694512 62.492308 6.648453 62.538462 6.602618 62.584615 6.557008 62.630769 6.511620 62.676923 6.466456 62.723077 6.421513 62.769231 6.376792 62.815385 6.332292 62.861538 6.288012 62.907692 6.243952 62.953846 6.200111 63.000000 6.156488 63.046154 6.113083 63.092308 6.069894 63.138462 6.026923 63.184615 5.984167 63.230769 5.941627 63.276923 5.899301 63.323077 5.857189 63.369231 5.815290 63.415385 5.773604 63.461538 5.732130 63.507692 5.690868 63.553846 5.649817 63.600000 5.608976 63.646154 5.568344 63.692308 5.527922 63.738462 5.487707 63.784615 5.447701 63.830769 5.407902 63.876923 5.368309 63.923077 5.328922 63.969231 5.289740 64.015385 5.250763 64.061538 5.211990 64.107692 5.173420 64.153846 5.135053 64.200000 5.096889 64.246154 5.058925 64.292308 5.021163 64.338462 4.983601 64.384615 4.946238 64.430769 4.909075 64.476923 4.872109 64.523077 4.835342 64.569231 4.798772 64.615385 4.762398 64.661538 4.726220 64.707692 4.690238 64.753846 4.654450 64.800000 4.618856 64.846154 4.583455 64.892308 4.548247 64.938462 4.513232 64.984615 4.478407 65.030769 4.443774 65.076923 4.409331 65.123077 4.375078 65.169231 4.341014 65.215385 4.307138 65.261538 4.273450 65.307692 4.239949 65.353846 4.206634 65.400000 4.173505 65.446154 4.140562 65.492308 4.107804 65.538462 4.075229 65.584615 4.042838 65.630769 4.010629 65.676923 3.978603 65.723077 3.946758 65.769231 3.915094 65.815385 3.883611 65.861538 3.852307 65.907692 3.821182 65.953846 3.790236 66.000000 3.759467 66.046154 3.728875 66.092308 3.698460 66.138462 3.668221 66.184615 3.638158 66.230769 3.608269 66.276923 3.578554 66.323077 3.549012 66.369231 3.519643 66.415385 3.490446 66.461538 3.461421 66.507692 3.432567 66.553846 3.403883 66.600000 3.375369 66.646154 3.347024 66.692308 3.318847 66.738462 3.290838 66.784615 3.262996 66.830769 3.235321 66.876923 3.207812 66.923077 3.180468 66.969231 3.153288 67.015385 3.126273 67.061538 3.099421 67.107692 3.072732 67.153846 3.046206 67.200000 3.019840 67.246154 2.993636 67.292308 2.967592 67.338462 2.941708 67.384615 2.915982 67.430769 2.890416 67.476923 2.865007 67.523077 2.839755 67.569231 2.814659 67.615385 2.789720 67.661538 2.764936 67.707692 2.740307 67.753846 2.715832 67.800000 2.691510 67.846154 2.667341 67.892308 2.643324 67.938462 2.619459 67.984615 2.595745 68.030769 2.572181 68.076923 2.548767 68.123077 2.525502 68.169231 2.502385 68.215385 2.479416 68.261538 2.456594 68.307692 2.433919 68.353846 2.411390 68.400000 2.389006 68.446154 2.366767 68.492308 2.344672 68.538462 2.322721 68.584615 2.300912 68.630769 2.279246 68.676923 2.257721 68.723077 2.236337 68.769231 2.215093 68.815385 2.193990 68.861538 2.173025 68.907692 2.152199 68.953846 2.131510 69.000000 2.110959 69.046154 2.090544 69.092308 2.070266 69.138462 2.050122 69.184615 2.030114 69.230769 2.010239 69.276923 1.990498 69.323077 1.970890 69.369231 1.951414 69.415385 1.932070 69.461538 1.912856 69.507692 1.893773 69.553846 1.874820 69.600000 1.855996 69.646154 1.837300 69.692308 1.818733 69.738462 1.800292 69.784615 1.781978 69.830769 1.763790 69.876923 1.745727 69.923077 1.727789 69.969231 1.709976 70.015385 1.692285 70.061538 1.674718 70.107692 1.657273 70.153846 1.639949 70.200000 1.622747 70.246154 1.605665 70.292308 1.588702 70.338462 1.571859 70.384615 1.555134 70.430769 1.538527 70.476923 1.522037 70.523077 1.505664 70.569231 1.489407 70.615385 1.473265 70.661538 1.457238 70.707692 1.441326 70.753846 1.425526 70.800000 1.409840 70.846154 1.394266 70.892308 1.378803 70.938462 1.363451 70.984615 1.348210 71.030769 1.333079 71.076923 1.318057 71.123077 1.303143 71.169231 1.288337 71.215385 1.273638 71.261538 1.259046 71.307692 1.244560 71.353846 1.230180 71.400000 1.215907 71.446154 1.201743 71.492308 1.187690 71.538462 1.173749 71.584615 1.159922 71.630769 1.146211 71.676923 1.132618 71.723077 1.119144 71.769231 1.105791 71.815385 1.092562 71.861538 1.079457 71.907692 1.066479 71.953846 1.053629 72.000000 1.040908 72.046154 1.028320 72.092308 1.015865 72.138462 1.003546 72.184615 0.991363 72.230769 0.979319 72.276923 0.967416 72.323077 0.955655 72.369231 0.944039 72.415385 0.932568 72.461538 0.921244 72.507692 0.910070 72.553846 0.899047 72.600000 0.888177 72.646154 0.877462 72.692308 0.866903 72.738462 0.856502 72.784615 0.846261 72.830769 0.836181 72.876923 0.826265 72.923077 0.816515 72.969231 0.806931 73.015385 0.797515 73.061538 0.788271 73.107692 0.779198 73.153846 0.770299 73.200000 0.761577 73.246154 0.753031 73.292308 0.744665 73.338462 0.736480 73.384615 0.728477 73.430769 0.720659 73.476923 0.713027 73.523077 0.705584 73.569231 0.698330 73.615385 0.691267 73.661538 0.684398 73.707692 0.677724 73.753846 0.671247 73.800000 0.664968 73.846154 0.658890 73.892308 0.653014 73.938462 0.647341 73.984615 0.641875 74.030769 0.636615 74.076923 0.631565 74.123077 0.626726 74.169231 0.622099 74.215385 0.617686 74.261538 0.613490 74.307692 0.609512 74.353846 0.605753 74.400000 0.602216 74.446154 0.598902 74.492308 0.595812 74.538462 0.592950 74.584615 0.590316 74.630769 0.587912 74.676923 0.585740 74.723077 0.583802 74.769231 0.582100 74.815385 0.580634 74.861538 0.579408 74.907692 0.578423 74.953846 0.577680 75.000000 0.577181 75.046154 0.576928 75.092308 0.576923 75.138462 0.577168 75.184615 0.577664 75.230769 0.578413 75.276923 0.579416 75.323077 0.580677 75.369231 0.582196 75.415385 0.583974 75.461538 0.586015 75.507692 0.588320 75.553846 0.590889 75.600000 0.593726 75.646154 0.596832 75.692308 0.600208 75.738462 0.603857 75.784615 0.607780 75.830769 0.611979 75.876923 0.616455 75.923077 0.621211 75.969231 0.626249 76.015385 0.631569 76.061538 0.637174 76.107692 0.643065 76.153846 0.649245 76.200000 0.655714 76.246154 0.662476 76.292308 0.669530 76.338462 0.676881 76.384615 0.684528 76.430769 0.692474 76.476923 0.700720 76.523077 0.709269 76.569231 0.718122 76.615385 0.727280 76.661538 0.736746 76.707692 0.746522 76.753846 0.756608 76.800000 0.767008 76.846154 0.777722 76.892308 0.788752 76.938462 0.800101 76.984615 0.811769 77.030769 0.823759 77.076923 0.836073 77.123077 0.848711 77.169231 0.861677 77.215385 0.874971 77.261538 0.888595 77.307692 0.902552 77.353846 0.916843 77.400000 0.931469 77.446154 0.946433 77.492308 0.961736 77.538462 0.977380 77.584615 0.993367 77.630769 1.009698 77.676923 1.026376 77.723077 1.043401 77.769231 1.060776 77.815385 1.078503 77.861538 1.096583 77.907692 1.115018 77.953846 1.133810 78.000000 1.152961 78.046154 1.172472 78.092308 1.192345 78.138462 1.212581 78.184615 1.233183 78.230769 1.254153 78.276923 1.275492 78.323077 1.297201 78.369231 1.319284 78.415385 1.341740 78.461538 1.364573 78.507692 1.387784 78.553846 1.411374 78.600000 1.435345 78.646154 1.459700 78.692308 1.484440 78.738462 1.509567 78.784615 1.535081 78.830769 1.560987 78.876923 1.587284 78.923077 1.613974 78.969231 1.641061 79.015385 1.668544 79.061538 1.696427 79.107692 1.724710 79.153846 1.753395 79.200000 1.782485 79.246154 1.811981 79.292308 1.841885 79.338462 1.872199 79.384615 1.902923 79.430769 1.934061 79.476923 1.965613 79.523077 1.997582 79.569231 2.029970 79.615385 2.062777 79.661538 2.096007 79.707692 2.129660 79.753846 2.163738 79.800000 2.198243 79.846154 2.233178 79.892308 2.268543 79.938462 2.304340 79.984615 2.340571 80.030769 2.377239 80.076923 2.414344 80.123077 2.451888 80.169231 2.489874 80.215385 2.528303 80.261538 2.567176 80.307692 2.606496 80.353846 2.646264 80.400000 2.686482 80.446154 2.727151 80.492308 2.768274 80.538462 2.809853 80.584615 2.851888 80.630769 2.894383 80.676923 2.937337 80.723077 2.980754 80.769231 3.024635 80.815385 3.068982 80.861538 3.113797 80.907692 3.159080 80.953846 3.204835 81.000000 3.251063 81.046154 3.297765 81.092308 3.344944 81.138462 3.392600 81.184615 3.440737 81.230769 3.489355 81.276923 3.538456 81.323077 3.588043 81.369231 3.638117 81.415385 3.688679 81.461538 3.739731 81.507692 3.791276 81.553846 3.843315 81.600000 3.895849 81.646154 3.948881 81.692308 4.002412 81.738462 4.056444 81.784615 4.110979 81.830769 4.166018 81.876923 4.221564 81.923077 4.277617 81.969231 4.334180 82.015385 4.391255 82.061538 4.448843 82.107692 4.506946 82.153846 4.565566 82.200000 4.624704 82.246154 4.684363 82.292308 4.744543 82.338462 4.805248 82.384615 4.866478 82.430769 4.928235 82.476923 4.990522 82.523077 5.053339 82.569231 5.116689 82.615385 5.180573 82.661538 5.244993 82.707692 5.309952 82.753846 5.375450 82.800000 5.441489 82.846154 5.508071 82.892308 5.575198 82.938462 5.642864 82.984615 5.711066 83.030769 5.779798 83.076923 5.849057 83.123077 5.918836 83.169231 5.989131 83.215385 6.059939 83.261538 6.131252 83.307692 6.203068 83.353846 6.275381 83.400000 6.348187 83.446154 6.421480 83.492308 6.495256 83.538462 6.569510 83.584615 6.644237 83.630769 6.719433 83.676923 6.795093 83.723077 6.871212 83.769231 6.947785 83.815385 7.024808 83.861538 7.102275 83.907692 7.180182 83.953846 7.258525 84.000000 7.337297 84.046154 7.416496 84.092308 7.496115 84.138462 7.576151 84.184615 7.656598 84.230769 7.737451 84.276923 7.818706 84.323077 7.900358 84.369231 7.982402 84.415385 8.064834 84.461538 8.147649 84.507692 8.230841 84.553846 8.314407 84.600000 8.398341 84.646154 8.482638 84.692308 8.567295 84.738462 8.652305 84.784615 8.737665 84.830769 8.823369 84.876923 8.909414 84.923077 8.995793 84.969231 9.082502 85.015385 9.169537 85.061538 9.256892 85.107692 9.344563 85.153846 9.432546 85.200000 9.520835 85.246154 9.609425 85.292308 9.698312 85.338462 9.787491 85.384615 9.876958 85.430769 9.966707 85.476923 10.056734 85.523077 10.147033 85.569231 10.237601 85.615385 10.328433 85.661538 10.419523 85.707692 10.510867 85.753846 10.602459 85.800000 10.694297 85.846154 10.786374 85.892308 10.878685 85.938462 10.971227 85.984615 11.063994 86.030769 11.156981 86.076923 11.250184 86.123077 11.343599 86.169231 11.437219 86.215385 11.531040 86.261538 11.625059 86.307692 11.719269 86.353846 11.813666 86.400000 11.908245 86.446154 12.003003 86.492308 12.097932 86.538462 12.193030 86.584615 12.288291 86.630769 12.383711 86.676923 12.479284 86.723077 12.575006 86.769231 12.670872 86.815385 12.766878 86.861538 12.863018 86.907692 12.959288 86.953846 13.055683 87.000000 13.152199 87.046154 13.248830 87.092308 13.345571 87.138462 13.442419 87.184615 13.539368 87.230769 13.636413 87.276923 13.733550 87.323077 13.830774 87.369231 13.928080 87.415385 14.025463 87.461538 14.122919 87.507692 14.220443 87.553846 14.318029 87.600000 14.415674 87.646154 14.513373 87.692308 14.611120 87.738462 14.708911 87.784615 14.806742 87.830769 14.904606 87.876923 15.002501 87.923077 15.100420 87.969231 15.198359 88.015385 15.296314 88.061538 15.394279 88.107692 15.492250 88.153846 15.590222 88.200000 15.688191 88.246154 15.786150 88.292308 15.884097 88.338462 15.982025 88.384615 16.079931 88.430769 16.177809 88.476923 16.275654 88.523077 16.373462 88.569231 16.471229 88.615385 16.568949 88.661538 16.666617 88.707692 16.764229 88.753846 16.861780 88.800000 16.959265 88.846154 17.056680 88.892308 17.154019 88.938462 17.251279 88.984615 17.348453 89.030769 17.445538 89.076923 17.542528 89.123077 17.639419 89.169231 17.736207 89.215385 17.832885 89.261538 17.929450 89.307692 18.025897 89.353846 18.122221 89.400000 18.218417 89.446154 18.314480 89.492308 18.410406 89.538462 18.506190 89.584615 18.601827 89.630769 18.697312 89.676923 18.792641 89.723077 18.887809 89.769231 18.982810 89.815385 19.077641 89.861538 19.172297 89.907692 19.266772 89.953846 19.361062 90.000000 19.455162 90.046154 19.549068 90.092308 19.642774 90.138462 19.736277 90.184615 19.829570 90.230769 19.922649 90.276923 20.015511 90.323077 20.108148 90.369231 20.200558 90.415385 20.292735 90.461538 20.384675 90.507692 20.476372 90.553846 20.567823 90.600000 20.659021 90.646154 20.749963 90.692308 20.840643 90.738462 20.931057 90.784615 21.021200 90.830769 21.111068 90.876923 21.200655 90.923077 21.289957 90.969231 21.378968 91.015385 21.467685 91.061538 21.556103 91.107692 21.644216 91.153846 21.732020 91.200000 21.819510 91.246154 21.906681 91.292308 21.993529 91.338462 22.080049 91.384615 22.166236 91.430769 22.252085 91.476923 22.337592 91.523077 22.422751 91.569231 22.507559 91.615385 22.592009 91.661538 22.676098 91.707692 22.759821 91.753846 22.843172 91.800000 22.926148 91.846154 23.008742 91.892308 23.090952 91.938462 23.172771 91.984615 23.254195 92.030769 23.335220 92.076923 23.415840 92.123077 23.496050 92.169231 23.575847 92.215385 23.655225 92.261538 23.734179 92.307692 23.812705 92.353846 23.890797 92.400000 23.968452 92.446154 24.045664 92.492308 24.122428 92.538462 24.198741 92.584615 24.274596 92.630769 24.349989 92.676923 24.424916 92.723077 24.499372 92.769231 24.573352 92.815385 24.646850 92.861538 24.719863 92.907692 24.792386 92.953846 24.864413 93.000000 24.935941 93.046154 25.006964 93.092308 25.077477 93.138462 25.147476 93.184615 25.216956 93.230769 25.285912 93.276923 25.354340 93.323077 25.422234 93.369231 25.489590 93.415385 25.556404 93.461538 25.622669 93.507692 25.688382 93.553846 25.753538 93.600000 25.818132 93.646154 25.882160 93.692308 25.945616 93.738462 26.008495 93.784615 26.070793 93.830769 26.132506 93.876923 26.193628 93.923077 26.254155 93.969231 26.314081 94.015385 26.373403 94.061538 26.432115 94.107692 26.490212 94.153846 26.547691 94.200000 26.604545 94.246154 26.660770 94.292308 26.716362 94.338462 26.771316 94.384615 26.825626 94.430769 26.879290 94.476923 26.932309 94.523077 26.984685 94.569231 27.036421 94.615385 27.087519 94.661538 27.137983 94.707692 27.187814 94.753846 27.237016 94.800000 27.285590 94.846154 27.333540 94.892308 27.380868 94.938462 27.427577 94.984615 27.473669 95.030769 27.519146 95.076923 27.564013 95.123077 27.608270 95.169231 27.651921 95.215385 27.694968 95.261538 27.737413 95.307692 27.779261 95.353846 27.820512 95.400000 27.861169 95.446154 27.901236 95.492308 27.940715 95.538462 27.979608 95.584615 28.017918 95.630769 28.055647 95.676923 28.092799 95.723077 28.129375 95.769231 28.165379 95.815385 28.200812 95.861538 28.235678 95.907692 28.269979 95.953846 28.303718 96.000000 28.336897 96.046154 28.369519 96.092308 28.401586 96.138462 28.433101 96.184615 28.464067 96.230769 28.494486 96.276923 28.524361 96.323077 28.553694 96.369231 28.582489 96.415385 28.610747 96.461538 28.638471 96.507692 28.665663 96.553846 28.692328 96.600000 28.718466 96.646154 28.744080 96.692308 28.769174 96.738462 28.793750 96.784615 28.817810 96.830769 28.841356 96.876923 28.864392 96.923077 28.886921 96.969231 28.908944 97.015385 28.930464 97.061538 28.951484 97.107692 28.972007 97.153846 28.992034 97.200000 29.011570 97.246154 29.030615 97.292308 29.049173 97.338462 29.067247 97.384615 29.084839 97.430769 29.101951 97.476923 29.118586 97.523077 29.134748 97.569231 29.150437 97.615385 29.165658 97.661538 29.180412 97.707692 29.194702 97.753846 29.208531 97.800000 29.221902 97.846154 29.234816 97.892308 29.247277 97.938462 29.259286 97.984615 29.270848 98.030769 29.281964 98.076923 29.292636 98.123077 29.302868 98.169231 29.312663 98.215385 29.322022 98.261538 29.330948 98.307692 29.339443 98.353846 29.347512 98.400000 29.355155 98.446154 29.362376 98.492308 29.369177 98.538462 29.375561 98.584615 29.381530 98.630769 29.387088 98.676923 29.392235 98.723077 29.396976 98.769231 29.401313 98.815385 29.405248 98.861538 29.408784 98.907692 29.411924 98.953846 29.414669 99.000000 29.417023 99.046154 29.418989 99.092308 29.420568 99.138462 29.421764 99.184615 29.422579 99.230769 29.423016 99.276923 29.423077 99.323077 29.422765 99.369231 29.422082 99.415385 29.421031 99.461538 29.419615 99.507692 29.417836 99.553846 29.415697 99.600000 29.413200 99.646154 29.410348 99.692308 29.407144 99.738462 29.403590 99.784615 29.399688 99.830769 29.395442 99.876923 29.390854 99.923077 29.385927 99.969231 29.380662 100.015385 29.375064 100.061538 29.369133 100.107692 29.362874 100.153846 29.356288 100.200000 29.349378 100.246154 29.342146 100.292308 29.334596 100.338462 29.326730 100.384615 29.318550 100.430769 29.310060 100.476923 29.301261 100.523077 29.292156 100.569231 29.282748 100.615385 29.273039 100.661538 29.263032 100.707692 29.252730 100.753846 29.242135 100.800000 29.231250 100.846154 29.220077 100.892308 29.208619 100.938462 29.196879 100.984615 29.184859 101.030769 29.172561 101.076923 29.159989 101.123077 29.147145 101.169231 29.134031 101.215385 29.120651 101.261538 29.107006 101.307692 29.093099 101.353846 29.078933 101.400000 29.064511 101.446154 29.049834 101.492308 29.034906 101.538462 29.019730 101.584615 29.004307 101.630769 28.988641 101.676923 28.972734 101.723077 28.956588 101.769231 28.940206 101.815385 28.923592 101.861538 28.906746 101.907692 28.889673 101.953846 28.872374 102.000000 28.854852 102.046154 28.837110 102.092308 28.819151 102.138462 28.800976 102.184615 28.782589 102.230769 28.763991 102.276923 28.745187 102.323077 28.726178 102.369231 28.706966 102.415385 28.687556 102.461538 28.667948 102.507692 28.648146 102.553846 28.628152 102.600000 28.607969 102.646154 28.587599 102.692308 28.567045 102.738462 28.546310 102.784615 28.525396 102.830769 28.504306 102.876923 28.483042 102.923077 28.461608 102.969231 28.440005 103.015385 28.418236 103.061538 28.396303 103.107692 28.374210 103.153846 28.351959 103.200000 28.329553 103.246154 28.306993 103.292308 28.284284 103.338462 28.261426 103.384615 28.238424 103.430769 28.215279 103.476923 28.191994 103.523077 28.168571 103.569231 28.145014 103.615385 28.121325 103.661538 28.097506 103.707692 28.073560 103.753846 28.049490 103.800000 28.025298 103.846154 28.000987 103.892308 27.976559 103.938462 27.952017 103.984615 27.927364 104.030769 27.902602 104.076923 27.877734 104.123077 27.852762 104.169231 27.827689 104.215385 27.802517 104.261538 27.777250 104.307692 27.751889 104.353846 27.726437 104.400000 27.700898 104.446154 27.675273 104.492308 27.649565 104.538462 27.623777 104.584615 27.597911 104.630769 27.571969 104.676923 27.545956 104.723077 27.519872 104.769231 27.493721 104.815385 27.467505 104.861538 27.441227 104.907692 27.414889 104.953846 27.388495 105.000000 27.362046 105.046154 27.335545 105.092308 27.308995 105.138462 27.282398 105.184615 27.255757 105.230769 27.229075 105.276923 27.202353 105.323077 27.175596 105.369231 27.148805 105.415385 27.121982 105.461538 27.095132 105.507692 27.068255 105.553846 27.041355 105.600000 27.014434 105.646154 26.987495 105.692308 26.960541 105.738462 26.933574 105.784615 26.906596 105.830769 26.879610 105.876923 26.852620 105.923077 26.825626" class="line reactive nofill" /></g></g><g class="titles" /><g transform="translate(82, 10)" class="plot overlay"><g class="series serie-0 color-0" /></g><g transform="translate(82, 10)" class="plot text-overlay"><g class="series serie-0 color-0" /></g><g transform="translate(82, 10)" class="plot tooltip-overlay"><g transform="translate(0 0)" style="opacity: 0" class="tooltip"><rect rx="0" ry="0" width="0" height="0" class="tooltip-box" /><g class="text" /></g></g></g></svg>