<?xml version='1.0' encoding='utf-8'?>
<svg xmlns="http://www.w3.org/2000/svg" id="chart-a89c8075-879c-4559-b823-131db27e8e42" class="pygal-chart pygal-sparkline" viewBox="0 0 200 50" width="200" height="50"><!--Generated with pygal 3.0.5 (etree) ©Kozea 2012-2016 on 2024-11-10--><!--http://pygal.org--><!--http://github.com/Kozea/pygal--><defs><style type="text/css">#chart-a89c8075-879c-4559-b823-131db27e8e42{-webkit-user-select:none;-webkit-font-smoothing:antialiased;font-family:Consolas,"Liberation Mono",Menlo,Courier,monospace}#chart-a89c8075-879c-4559-b823-131db27e8e42 .title{font-family:Consolas,"Liberation Mono",Menlo,Courier,monospace;font-size:16px}#chart-a89c8075-879c-4559-b823-131db27e8e42 .legends .legend text{font-family:Consolas,"Liberation Mono",Menlo,Courier,monospace;font-size:14px}#chart-a89c8075-879c-4559-b823-131db27e8e42 .axis text{font-family:Consolas,"Liberation Mono",Menlo,Courier,monospace;font-size:10px}#chart-a89c8075-879c-4559-b823-131db27e8e42 .axis text.major{font-family:Consolas,"Liberation Mono",Menlo,Courier,monospace;font-size:10px}#chart-a89c8075-879c-4559-b823-131db27e8e42 .text-overlay text.value{font-family:Consolas,"Liberation Mono",Menlo,Courier,monospace;font-size:16px}#chart-a89c8075-879c-4559-b823-131db27e8e42 .text-overlay text.label{font-family:Consolas,"Liberation Mono",Menlo,Courier,monospace;font-size:10px}#chart-a89c8075-879c-4559-b823-131db27e8e42 .tooltip{font-family:Consolas,"Liberation Mono",Menlo,Courier,monospace;font-size:14px}#chart-a89c8075-879c-4559-b823-131db27e8e42 text.no_data{font-family:Consolas,"Liberation Mono",Menlo,Courier,monospace;font-size:64px}
#chart-a89c8075-879c-4559-b823-131db27e8e42{background-color:rgba(249,249,249,1)}#chart-a89c8075-879c-4559-b823-131db27e8e42 path,#chart-a89c8075-879c-4559-b823-131db27e8e42 line,#chart-a89c8075-879c-4559-b823-131db27e8e42 rect,#chart-a89c8075-879c-4559-b823-131db27e8e42 circle{-webkit-transition:150ms;-moz-transition:150ms;transition:150ms}#chart-a89c8075-879c-4559-b823-131db27e8e42 .graph &gt; .background{fill:rgba(249,249,249,1)}#chart-a89c8075-879c-4559-b823-131db27e8e42 .plot &gt; .background{fill:rgba(255,255,255,1)}#chart-a89c8075-879c-4559-b823-131db27e8e42 .graph{fill:rgba(0,0,0,.87)}#chart-a89c8075-879c-4559-b823-131db27e8e42 text.no_data{fill:rgba(0,0,0,1)}#chart-a89c8075-879c-4559-b823-131db27e8e42 .title{fill:rgba(0,0,0,1)}#chart-a89c8075-879c-4559-b823-131db27e8e42 .legends .legend text{fill:rgba(0,0,0,.87)}#chart-a89c8075-879c-4559-b823-131db27e8e42 .legends .legend:hover text{fill:rgba(0,0,0,1)}#chart-a89c8075-879c-4559-b823-131db27e8e42 .axis .line{stroke:rgba(0,0,0,1)}#chart-a89c8075-879c-4559-b823-131db27e8e42 .axis .guide.line{stroke:rgba(0,0,0,.54)}#chart-a89c8075-879c-4559-b823-131db27e8e42 .axis .major.line{stroke:rgba(0,0,0,.87)}#chart-a89c8075-879c-4559-b823-131db27e8e42 .axis text.major{fill:rgba(0,0,0,1)}#chart-a89c8075-879c-4559-b823-131db27e8e42 .axis.y .guides:hover .guide.line,#chart-a89c8075-879c-4559-b823-131db27e8e42 .line-graph .axis.x .guides:hover .guide.line,#chart-a89c8075-879c-4559-b823-131db27e8e42 .stackedline-graph .axis.x .guides:hover .guide.line,#chart-a89c8075-879c-4559-b823-131db27e8e42 .xy-graph .axis.x .guides:hover .guide.line{stroke:rgba(0,0,0,1)}#chart-a89c8075-879c-4559-b823-131db27e8e42 .axis .guides:hover text{fill:rgba(0,0,0,1)}#chart-a89c8075-879c-4559-b823-131db27e8e42 .reactive{fill-opacity:.7;stroke-opacity:.8;stroke-width:1}#chart-a89c8075-879c-4559-b823-131db27e8e42 .ci{stroke:rgba(0,0,0,.87)}#chart-a89c8075-879c-4559-b823-131db27e8e42 .reactive.active,#chart-a89c8075-879c-4559-b823-131db27e8e42 .active .reactive{fill-opacity:.8;stroke-opacity:.9;stroke-width:4}#chart-a89c8075-879c-4559-b823-131db27e8e42 .ci .reactive.active{stroke-width:1.5}#chart-a89c8075-879c-4559-b823-131db27e8e42 .series text{fill:rgba(0,0,0,1)}#chart-a89c8075-879c-4559-b823-131db27e8e42 .tooltip rect{fill:rgba(255,255,255,1);stroke:rgba(0,0,0,1);-webkit-transition:opacity 150ms;-moz-transition:opacity 150ms;transition:opacity 150ms}#chart-a89c8075-879c-4559-b823-131db27e8e42 .tooltip .label{fill:rgba(0,0,0,.87)}#chart-a89c8075-879c-4559-b823-131db27e8e42 .tooltip .label{fill:rgba(0,0,0,.87)}#chart-a89c8075-879c-4559-b823-131db27e8e42 .tooltip .legend{font-size:.8em;fill:rgba(0,0,0,.54)}#chart-a89c8075-879c-4559-b823-131db27e8e42 .tooltip .x_label{font-size:.6em;fill:rgba(0,0,0,1)}#chart-a89c8075-879c-4559-b823-131db27e8e42 .tooltip .xlink{font-size:.5em;text-decoration:underline}#chart-a89c8075-879c-4559-b823-131db27e8e42 .tooltip .value{font-size:1.5em}#chart-a89c8075-879c-4559-b823-131db27e8e42 .bound{font-size:.5em}#chart-a89c8075-879c-4559-b823-131db27e8e42 .max-value{font-size:.75em;fill:rgba(0,0,0,.54)}#chart-a89c8075-879c-4559-b823-131db27e8e42 .map-element{fill:rgba(255,255,255,1);stroke:rgba(0,0,0,.54) !important}#chart-a89c8075-879c-4559-b823-131db27e8e42 .map-element .reactive{fill-opacity:inherit;stroke-opacity:inherit}#chart-a89c8075-879c-4559-b823-131db27e8e42 .color-0,#chart-a89c8075-879c-4559-b823-131db27e8e42 .color-0 a:visited{stroke:#F44336;fill:#F44336}#chart-a89c8075-879c-4559-b823-131db27e8e42 .text-overlay .color-0 text{fill:black}
#chart-a89c8075-879c-4559-b823-131db27e8e42 text.no_data{text-anchor:middle}#chart-a89c8075-879c-4559-b823-131db27e8e42 .guide.line{fill:none}#chart-a89c8075-879c-4559-b823-131db27e8e42 .centered{text-anchor:middle}#chart-a89c8075-879c-4559-b823-131db27e8e42 .title{text-anchor:middle}#chart-a89c8075-879c-4559-b823-131db27e8e42 .legends .legend text{fill-opacity:1}#chart-a89c8075-879c-4559-b823-131db27e8e42 .axis.x text{text-anchor:middle}#chart-a89c8075-879c-4559-b823-131db27e8e42 .axis.x:not(.web) text[transform]{text-anchor:start}#chart-a89c8075-879c-4559-b823-131db27e8e42 .axis.x:not(.web) text[transform].backwards{text-anchor:end}#chart-a89c8075-879c-4559-b823-131db27e8e42 .axis.y text{text-anchor:end}#chart-a89c8075-879c-4559-b823-131db27e8e42 .axis.y text[transform].backwards{text-anchor:start}#chart-a89c8075-879c-4559-b823-131db27e8e42 .axis.y2 text{text-anchor:start}#chart-a89c8075-879c-4559-b823-131db27e8e42 .axis.y2 text[transform].backwards{text-anchor:end}#chart-a89c8075-879c-4559-b823-131db27e8e42 .axis .guide.line{stroke-dasharray:4,4;stroke:black}#chart-a89c8075-879c-4559-b823-131db27e8e42 .axis .major.guide.line{stroke-dasharray:6,6;stroke:black}#chart-a89c8075-879c-4559-b823-131db27e8e42 .horizontal .axis.y .guide.line,#chart-a89c8075-879c-4559-b823-131db27e8e42 .horizontal .axis.y2 .guide.line,#chart-a89c8075-879c-4559-b823-131db27e8e42 .vertical .axis.x .guide.line{opacity:0}#chart-a89c8075-879c-4559-b823-131db27e8e42 .horizontal .axis.always_show .guide.line,#chart-a89c8075-879c-4559-b823-131db27e8e42 .vertical .axis.always_show .guide.line{opacity:1 !important}#chart-a89c8075-879c-4559-b823-131db27e8e42 .axis.y .guides:hover .guide.line,#chart-a89c8075-879c-4559-b823-131db27e8e42 .axis.y2 .guides:hover .guide.line,#chart-a89c8075-879c-4559-b823-131db27e8e42 .axis.x .guides:hover .guide.line{opacity:1}#chart-a89c8075-879c-4559-b823-131db27e8e42 .axis .guides:hover text{opacity:1}#chart-a89c8075-879c-4559-b823-131db27e8e42 .nofill{fill:none}#chart-a89c8075-879c-4559-b823-131db27e8e42 .subtle-fill{fill-opacity:.2}#chart-a89c8075-879c-4559-b823-131db27e8e42 .dot{stroke-width:1px;fill-opacity:1;stroke-opacity:1}#chart-a89c8075-879c-4559-b823-131db27e8e42 .dot.active{stroke-width:5px}#chart-a89c8075-879c-4559-b823-131db27e8e42 .dot.negative{fill:transparent}#chart-a89c8075-879c-4559-b823-131db27e8e42 text,#chart-a89c8075-879c-4559-b823-131db27e8e42 tspan{stroke:none !important}#chart-a89c8075-879c-4559-b823-131db27e8e42 .series text.active{opacity:1}#chart-a89c8075-879c-4559-b823-131db27e8e42 .tooltip rect{fill-opacity:.95;stroke-width:.5}#chart-a89c8075-879c-4559-b823-131db27e8e42 .tooltip text{fill-opacity:1}#chart-a89c8075-879c-4559-b823-131db27e8e42 .showable{visibility:hidden}#chart-a89c8075-879c-4559-b823-131db27e8e42 .showable.shown{visibility:visible}#chart-a89c8075-879c-4559-b823-131db27e8e42 .gauge-background{fill:rgba(229,229,229,1);stroke:none}#chart-a89c8075-879c-4559-b823-131db27e8e42 .bg-lines{stroke:rgba(249,249,249,1);stroke-width:2px}</style><script type="text/javascript">window.pygal = window.pygal || {};window.pygal.config = window.pygal.config || {};window.pygal.config['a89c8075-879c-4559-b823-131db27e8e42'] = {"allow_interruptions": false, "box_mode": "extremes", "classes": ["pygal-chart", "pygal-sparkline"], "css": ["file://style.css", "file://graph.css"], "defs": [], "disable_xml_declaration": false, "dots_size": 2.5, "dynamic_print_values": false, "explicit_size": true, "fill": false, "force_uri_protocol": "https", "formatter": null, "half_pie": false, "height": 50, "include_x_axis": false, "inner_radius": 0, "interpolate": "cubic", "interpolation_parameters": {}, "interpolation_precision": 250, "inverse_y_axis": false, "js": [], "legend_at_bottom": false, "legend_at_bottom_columns": null, "legend_box_size": 12, "logarithmic": false, "margin": 10, "margin_bottom": null, "margin_left": null, "margin_right": null, "margin_top": null, "max_scale": 2, "min_scale": 1, "missing_value_fill_truncation": "x", "no_data_text": "", "no_prefix": false, "order_min": null, "pretty_print": false, "print_labels": false, "print_values": false, "print_values_position": "center", "print_zeroes": true, "range": null, "rounded_bars": null, "secondary_range": null, "show_dots": false, "show_legend": false, "show_minor_x_labels": true, "show_minor_y_labels": true, "show_only_major_dots": false, "show_x_guides": false, "show_x_labels": false, "show_y_guides": true, "show_y_labels": true, "spacing": 0, "stack_from_top": false, "strict": false, "stroke": true, "stroke_style": null, "style": {"background": "rgba(249, 249, 249, 1)", "ci_colors": [], "colors": ["#F44336", "#3F51B5", "#009688", "#FFC107", "#FF5722", "#9C27B0", "#03A9F4", "#8BC34A", "#FF9800", "#E91E63", "#2196F3", "#4CAF50", "#FFEB3B", "#673AB7", "#00BCD4", "#CDDC39", "#9E9E9E", "#607D8B"], "dot_opacity": "1", "font_family": "Consolas, \"Liberation Mono\", Menlo, Courier, monospace", "foreground": "rgba(0, 0, 0, .87)", "foreground_strong": "rgba(0, 0, 0, 1)", "foreground_subtle": "rgba(0, 0, 0, .54)", "guide_stroke_color": "black", "guide_stroke_dasharray": "4,4", "label_font_family": "Consolas, \"Liberation Mono\", Menlo, Courier, monospace", "label_font_size": 10, "legend_font_family": "Consolas, \"Liberation Mono\", Menlo, Courier, monospace", "legend_font_size": 14, "major_guide_stroke_color": "black", "major_guide_stroke_dasharray": "6,6", "major_label_font_family": "Consolas, \"Liberation Mono\", Menlo, Courier, monospace", "major_label_font_size": 10, "no_data_font_family": "Consolas, \"Liberation Mono\", Menlo, Courier, monospace", "no_data_font_size": 64, "opacity": ".7", "opacity_hover": ".8", "plot_background": "rgba(255, 255, 255, 1)", "stroke_opacity": ".8", "stroke_opacity_hover": ".9", "stroke_width": "1", "stroke_width_hover": "4", "title_font_family": "Consolas, \"Liberation Mono\", Menlo, Courier, monospace", "title_font_size": 16, "tooltip_font_family": "Consolas, \"Liberation Mono\", Menlo, Courier, monospace", "tooltip_font_size": 14, "transition": "150ms", "value_background": "rgba(229, 229, 229, 1)", "value_colors": [], "value_font_family": "Consolas, \"Liberation Mono\", Menlo, Courier, monospace", "value_font_size": 16, "value_label_font_family": "Consolas, \"Liberation Mono\", Menlo, Courier, monospace", "value_label_font_size": 10}, "title": null, "tooltip_border_radius": 0, "tooltip_fancy_mode": true, "truncate_label": null, "truncate_legend": null, "width": 200, "x_label_rotation": 0, "x_labels": ["2024/11", "2024/10", "2024/9", "2024/8", "2024/7"], "x_labels_major": null, "x_labels_major_count": null, "x_labels_major_every": null, "x_title": null, "xrange": null, "y_label_rotation": 0, "y_labels": null, "y_labels_major": null, "y_labels_major_count": null, "y_labels_major_every": null, "y_title": null, "zero": 0, "legends": [""]}</script></defs><title>Pygal</title><g class="graph line-graph vertical"><rect x="0" y="0" width="200" height="50" class="background" /><g transform="translate(76, 10)" class="plot"><rect x="0" y="0" width="114.0" height="30" class="background" /><g class="axis y always_show"><path d="M0.000000 30.000000 h114.000000" class="line" /><g class="guides"><path d="M0.000000 29.423077 h114.000000" class="guide line" /><text x="-5" y="32.92307692307692" class="">1</text><title>1</title></g><g class="guides"><path d="M0.000000 0.576923 h114.000000" class="guide line" /><text x="-5" y="4.076923076923073" class="">10.51905851</text><title>10.51905851</title></g></g><g class="series serie-0 color-0"><path d="M2.192308 29.423077 L2.301923 29.267231 2.411538 29.111391 2.521154 28.955561 2.630769 28.799749 2.740385 28.643960 2.850000 28.488199 2.959615 28.332471 3.069231 28.176783 3.178846 28.021141 3.288462 27.865549 3.398077 27.710014 3.507692 27.554541 3.617308 27.399136 3.726923 27.243804 3.836538 27.088552 3.946154 26.933384 4.055769 26.778306 4.165385 26.623325 4.275000 26.468446 4.384615 26.313673 4.494231 26.159014 4.603846 26.004474 4.713462 25.850058 4.823077 25.695772 4.932692 25.541621 5.042308 25.387612 5.151923 25.233750 5.261538 25.080041 5.371154 24.926489 5.480769 24.773102 5.590385 24.619884 5.700000 24.466841 5.809615 24.313980 5.919231 24.161304 6.028846 24.008821 6.138462 23.856536 6.248077 23.704454 6.357692 23.552582 6.467308 23.400924 6.576923 23.249486 6.686538 23.098275 6.796154 22.947295 6.905769 22.796553 7.015385 22.646054 7.125000 22.495804 7.234615 22.345807 7.344231 22.196071 7.453846 22.046601 7.563462 21.897401 7.673077 21.748479 7.782692 21.599839 7.892308 21.451488 8.001923 21.303431 8.111538 21.155673 8.221154 21.008220 8.330769 20.861078 8.440385 20.714253 8.550000 20.567749 8.659615 20.421574 8.769231 20.275732 8.878846 20.130229 8.988462 19.985071 9.098077 19.840264 9.207692 19.695812 9.317308 19.551723 9.426923 19.408000 9.536538 19.264651 9.646154 19.121680 9.755769 18.979094 9.865385 18.836897 9.975000 18.695097 10.084615 18.553697 10.194231 18.412705 10.303846 18.272125 10.413462 18.131964 10.523077 17.992226 10.632692 17.852918 10.742308 17.714045 10.851923 17.575613 10.961538 17.437627 11.071154 17.300094 11.180769 17.163018 11.290385 17.026406 11.400000 16.890263 11.509615 16.754595 11.619231 16.619407 11.728846 16.484705 11.838462 16.350495 11.948077 16.216783 12.057692 16.083573 12.167308 15.950872 12.276923 15.818686 12.386538 15.687019 12.496154 15.555878 12.605769 15.425269 12.715385 15.295196 12.825000 15.165666 12.934615 15.036684 13.044231 14.908256 13.153846 14.780388 13.263462 14.653085 13.373077 14.526352 13.482692 14.400196 13.592308 14.274623 13.701923 14.149637 13.811538 14.025245 13.921154 13.901451 14.030769 13.778263 14.140385 13.655685 14.250000 13.533723 14.359615 13.412382 14.469231 13.291670 14.578846 13.171590 14.688462 13.052149 14.798077 12.933352 14.907692 12.815205 15.017308 12.697714 15.126923 12.580884 15.236538 12.464721 15.346154 12.349230 15.455769 12.234418 15.565385 12.120290 15.675000 12.006851 15.784615 11.894108 15.894231 11.782065 16.003846 11.670729 16.113462 11.560105 16.223077 11.450199 16.332692 11.341016 16.442308 11.232562 16.551923 11.124844 16.661538 11.017865 16.771154 10.911633 16.880769 10.806152 16.990385 10.701429 17.100000 10.597469 17.209615 10.494277 17.319231 10.391860 17.428846 10.290223 17.538462 10.189371 17.648077 10.089311 17.757692 9.990048 17.867308 9.891587 17.976923 9.793934 18.086538 9.697096 18.196154 9.601077 18.305769 9.505883 18.415385 9.411520 18.525000 9.317993 18.634615 9.225309 18.744231 9.133472 18.853846 9.042489 18.963462 8.952365 19.073077 8.863106 19.182692 8.774717 19.292308 8.687204 19.401923 8.600573 19.511538 8.514830 19.621154 8.429979 19.730769 8.346027 19.840385 8.262979 19.950000 8.180842 20.059615 8.099620 20.169231 8.019319 20.278846 7.939945 20.388462 7.861504 20.498077 7.784001 20.607692 7.707442 20.717308 7.631833 20.826923 7.557178 20.936538 7.483485 21.046154 7.410758 21.155769 7.339003 21.265385 7.268226 21.375000 7.198432 21.484615 7.129628 21.594231 7.061818 21.703846 6.995009 21.813462 6.929206 21.923077 6.864414 22.032692 6.800640 22.142308 6.737889 22.251923 6.676166 22.361538 6.615478 22.471154 6.555830 22.580769 6.497228 22.690385 6.439676 22.800000 6.383182 22.909615 6.327750 23.019231 6.273387 23.128846 6.220097 23.238462 6.167887 23.348077 6.116763 23.457692 6.066729 23.567308 6.017791 23.676923 5.969956 23.786538 5.923228 23.896154 5.877614 24.005769 5.833119 24.115385 5.789749 24.225000 5.747509 24.334615 5.706405 24.444231 5.666443 24.553846 5.627629 24.663462 5.589967 24.773077 5.553464 24.882692 5.518125 24.992308 5.483956 25.101923 5.450963 25.211538 5.419152 25.321154 5.388527 25.430769 5.359094 25.540385 5.330860 25.650000 5.303830 25.759615 5.278010 25.869231 5.253404 25.978846 5.230020 26.088462 5.207862 26.198077 5.186936 26.307692 5.167248 26.417308 5.148803 26.526923 5.131607 26.636538 5.115666 26.746154 5.100986 26.855769 5.087572 26.965385 5.075429 27.075000 5.064564 27.184615 5.054981 27.294231 5.046688 27.403846 5.039688 27.513462 5.033989 27.623077 5.029595 27.732692 5.026513 27.842308 5.024748 27.951923 5.024305 28.061538 5.025190 28.171154 5.027409 28.280769 5.030968 28.390385 5.035872 28.500000 5.042127 28.609615 5.049738 28.719231 5.058711 28.828846 5.069052 28.938462 5.080767 29.048077 5.093861 29.157692 5.108339 29.267308 5.124208 29.376923 5.141473 29.486538 5.160140 29.596154 5.180214 29.705769 5.201698 29.815385 5.224583 29.925000 5.248857 30.034615 5.274509 30.144231 5.301525 30.253846 5.329895 30.363462 5.359606 30.473077 5.390646 30.582692 5.423003 30.692308 5.456666 30.801923 5.491622 30.911538 5.527859 31.021154 5.565366 31.130769 5.604130 31.240385 5.644139 31.350000 5.685382 31.459615 5.727847 31.569231 5.771521 31.678846 5.816392 31.788462 5.862450 31.898077 5.909681 32.007692 5.958073 32.117308 6.007615 32.226923 6.058295 32.336538 6.110101 32.446154 6.163020 32.555769 6.217042 32.665385 6.272153 32.775000 6.328342 32.884615 6.385597 32.994231 6.443906 33.103846 6.503257 33.213462 6.563637 33.323077 6.625036 33.432692 6.687441 33.542308 6.750840 33.651923 6.815221 33.761538 6.880573 33.871154 6.946882 33.980769 7.014138 34.090385 7.082328 34.200000 7.151440 34.309615 7.221463 34.419231 7.292384 34.528846 7.364191 34.638462 7.436873 34.748077 7.510417 34.857692 7.584812 34.967308 7.660045 35.076923 7.736104 35.186538 7.812979 35.296154 7.890655 35.405769 7.969123 35.515385 8.048369 35.625000 8.128382 35.734615 8.209149 35.844231 8.290659 35.953846 8.372900 36.063462 8.455860 36.173077 8.539527 36.282692 8.623888 36.392308 8.708933 36.501923 8.794648 36.611538 8.881022 36.721154 8.968044 36.830769 9.055700 36.940385 9.143979 37.050000 9.232870 37.159615 9.322359 37.269231 9.412436 37.378846 9.503088 37.488462 9.594303 37.598077 9.686069 37.707692 9.778375 37.817308 9.871208 37.926923 9.964556 38.036538 10.058408 38.146154 10.152751 38.255769 10.247573 38.365385 10.342863 38.475000 10.438609 38.584615 10.534798 38.694231 10.631418 38.803846 10.728458 38.913462 10.825906 39.023077 10.923749 39.132692 11.021976 39.242308 11.120575 39.351923 11.219533 39.461538 11.318839 39.571154 11.418481 39.680769 11.518447 39.790385 11.618725 39.900000 11.719302 40.009615 11.820168 40.119231 11.921309 40.228846 12.022715 40.338462 12.124372 40.448077 12.226270 40.557692 12.328395 40.667308 12.430737 40.776923 12.533283 40.886538 12.636021 40.996154 12.738939 41.105769 12.842025 41.215385 12.945268 41.325000 13.048655 41.434615 13.152174 41.544231 13.255814 41.653846 13.359562 41.763462 13.463406 41.873077 13.567335 41.982692 13.671337 42.092308 13.775399 42.201923 13.879509 42.311538 13.983656 42.421154 14.087828 42.530769 14.192012 42.640385 14.296197 42.750000 14.400370 42.859615 14.504521 42.969231 14.608636 43.078846 14.712704 43.188462 14.816712 43.298077 14.920650 43.407692 15.024504 43.517308 15.128264 43.626923 15.231916 43.736538 15.335449 43.846154 15.438852 43.955769 15.542111 44.065385 15.645215 44.175000 15.748153 44.284615 15.850911 44.394231 15.953479 44.503846 16.055844 44.613462 16.157994 44.723077 16.259918 44.832692 16.361602 44.942308 16.463036 45.051923 16.564208 45.161538 16.665104 45.271154 16.765715 45.380769 16.866026 45.490385 16.966027 45.600000 17.065706 45.709615 17.165050 45.819231 17.264048 45.928846 17.362687 46.038462 17.460956 46.148077 17.558842 46.257692 17.656334 46.367308 17.753420 46.476923 17.850088 46.586538 17.946326 46.696154 18.042121 46.805769 18.137462 46.915385 18.232337 47.025000 18.326734 47.134615 18.420641 47.244231 18.514045 47.353846 18.606936 47.463462 18.699301 47.573077 18.791128 47.682692 18.882405 47.792308 18.973120 47.901923 19.063261 48.011538 19.152816 48.121154 19.241774 48.230769 19.330122 48.340385 19.417848 48.450000 19.504941 48.559615 19.591387 48.669231 19.677176 48.778846 19.762296 48.888462 19.846734 48.998077 19.930478 49.107692 20.013517 49.217308 20.095839 49.326923 20.177431 49.436538 20.258281 49.546154 20.338379 49.655769 20.417710 49.765385 20.496265 49.875000 20.574030 49.984615 20.650994 50.094231 20.727145 50.203846 20.802470 50.313462 20.876959 50.423077 20.950598 50.532692 21.023376 50.642308 21.095281 50.751923 21.166301 50.861538 21.236424 50.971154 21.305638 51.080769 21.373931 51.190385 21.441291 51.300000 21.507707 51.409615 21.573165 51.519231 21.637655 51.628846 21.701163 51.738462 21.763679 51.848077 21.825191 51.957692 21.885685 52.067308 21.945151 52.176923 22.003576 52.286538 22.060949 52.396154 22.117257 52.505769 22.172489 52.615385 22.226632 52.725000 22.279674 52.834615 22.331604 52.944231 22.382410 53.053846 22.432079 53.163462 22.480600 53.273077 22.527960 53.382692 22.574149 53.492308 22.619152 53.601923 22.662960 53.711538 22.705560 53.821154 22.746939 53.930769 22.787086 54.040385 22.825989 54.150000 22.863636 54.259615 22.900015 54.369231 22.935114 54.478846 22.968921 54.588462 23.001424 54.698077 23.032611 54.807692 23.062470 54.917308 23.090989 55.026923 23.118157 55.136538 23.143960 55.246154 23.168388 55.355769 23.191428 55.465385 23.213069 55.575000 23.233297 55.684615 23.252102 55.794231 23.269472 55.903846 23.285394 56.013462 23.299856 56.123077 23.312847 56.232692 23.324354 56.342308 23.334366 56.451923 23.342870 56.561538 23.349855 56.671154 23.355308 56.780769 23.359219 56.890385 23.361574 57.000000 23.362361 57.109615 23.361573 57.219231 23.359217 57.328846 23.355303 57.438462 23.349842 57.548077 23.342846 57.657692 23.334324 57.767308 23.324287 57.876923 23.312747 57.986538 23.299714 58.096154 23.285200 58.205769 23.269214 58.315385 23.251767 58.425000 23.232871 58.534615 23.212536 58.644231 23.190774 58.753846 23.167594 58.863462 23.143007 58.973077 23.117026 59.082692 23.089659 59.192308 23.060919 59.301923 23.030815 59.411538 22.999359 59.521154 22.966561 59.630769 22.932433 59.740385 22.896985 59.850000 22.860227 59.959615 22.822172 60.069231 22.782829 60.178846 22.742209 60.288462 22.700323 60.398077 22.657182 60.507692 22.612797 60.617308 22.567179 60.726923 22.520338 60.836538 22.472284 60.946154 22.423030 61.055769 22.372586 61.165385 22.320962 61.275000 22.268170 61.384615 22.214219 61.494231 22.159122 61.603846 22.102888 61.713462 22.045529 61.823077 21.987056 61.932692 21.927478 62.042308 21.866808 62.151923 21.805055 62.261538 21.742231 62.371154 21.678346 62.480769 21.613412 62.590385 21.547438 62.700000 21.480437 62.809615 21.412418 62.919231 21.343392 63.028846 21.273371 63.138462 21.202365 63.248077 21.130384 63.357692 21.057441 63.467308 20.983544 63.576923 20.908706 63.686538 20.832937 63.796154 20.756248 63.905769 20.678650 64.015385 20.600153 64.125000 20.520769 64.234615 20.440507 64.344231 20.359380 64.453846 20.277397 64.563462 20.194569 64.673077 20.110908 64.782692 20.026425 64.892308 19.941129 65.001923 19.855031 65.111538 19.768144 65.221154 19.680476 65.330769 19.592040 65.440385 19.502846 65.550000 19.412905 65.659615 19.322227 65.769231 19.230823 65.878846 19.138705 65.988462 19.045883 66.098077 18.952367 66.207692 18.858169 66.317308 18.763300 66.426923 18.667769 66.536538 18.571589 66.646154 18.474769 66.755769 18.377322 66.865385 18.279256 66.975000 18.180584 67.084615 18.081316 67.194231 17.981463 67.303846 17.881035 67.413462 17.780044 67.523077 17.678500 67.632692 17.576414 67.742308 17.473797 67.851923 17.370660 67.961538 17.267013 68.071154 17.162867 68.180769 17.058234 68.290385 16.953123 68.400000 16.847546 68.509615 16.741514 68.619231 16.635037 68.728846 16.528126 68.838462 16.420792 68.948077 16.313046 69.057692 16.204898 69.167308 16.096360 69.276923 15.987442 69.386538 15.878155 69.496154 15.768509 69.605769 15.658516 69.715385 15.548187 69.825000 15.437531 69.934615 15.326561 70.044231 15.215286 70.153846 15.103718 70.263462 14.991868 70.373077 14.879745 70.482692 14.767362 70.592308 14.654728 70.701923 14.541855 70.811538 14.428754 70.921154 14.315434 71.030769 14.201908 71.140385 14.088186 71.250000 13.974278 71.359615 13.860196 71.469231 13.745949 71.578846 13.631550 71.688462 13.517009 71.798077 13.402337 71.907692 13.287544 72.017308 13.172641 72.126923 13.057639 72.236538 12.942550 72.346154 12.827383 72.455769 12.712149 72.565385 12.596860 72.675000 12.481526 72.784615 12.366158 72.894231 12.250766 73.003846 12.135362 73.113462 12.019957 73.223077 11.904560 73.332692 11.789184 73.442308 11.673838 73.551923 11.558534 73.661538 11.443282 73.771154 11.328093 73.880769 11.212979 73.990385 11.097949 74.100000 10.983014 74.209615 10.868187 74.319231 10.753476 74.428846 10.638893 74.538462 10.524449 74.648077 10.410155 74.757692 10.296021 74.867308 10.182058 74.976923 10.068278 75.086538 9.954690 75.196154 9.841306 75.305769 9.728136 75.415385 9.615192 75.525000 9.502483 75.634615 9.390022 75.744231 9.277818 75.853846 9.165882 75.963462 9.054226 76.073077 8.942860 76.182692 8.831795 76.292308 8.721042 76.401923 8.610611 76.511538 8.500513 76.621154 8.390760 76.730769 8.281361 76.840385 8.172328 76.950000 8.063672 77.059615 7.955403 77.169231 7.847532 77.278846 7.740070 77.388462 7.633028 77.498077 7.526416 77.607692 7.420246 77.717308 7.314528 77.826923 7.209272 77.936538 7.104491 78.046154 7.000194 78.155769 6.896393 78.265385 6.793097 78.375000 6.690319 78.484615 6.588069 78.594231 6.486357 78.703846 6.385195 78.813462 6.284592 78.923077 6.184561 79.032692 6.085112 79.142308 5.986255 79.251923 5.888002 79.361538 5.790363 79.471154 5.693349 79.580769 5.596971 79.690385 5.501239 79.800000 5.406165 79.909615 5.311759 80.019231 5.218033 80.128846 5.124996 80.238462 5.032660 80.348077 4.941035 80.457692 4.850133 80.567308 4.759964 80.676923 4.670539 80.786538 4.581868 80.896154 4.493963 81.005769 4.406834 81.115385 4.320493 81.225000 4.234949 81.334615 4.150214 81.444231 4.066299 81.553846 3.983214 81.663462 3.900970 81.773077 3.819578 81.882692 3.739049 81.992308 3.659394 82.101923 3.580622 82.211538 3.502746 82.321154 3.425776 82.430769 3.349723 82.540385 3.274598 82.650000 3.200410 82.759615 3.127172 82.869231 3.054895 82.978846 2.983587 83.088462 2.913262 83.198077 2.843929 83.307692 2.775599 83.417308 2.708283 83.526923 2.641992 83.636538 2.576737 83.746154 2.512528 83.855769 2.449377 83.965385 2.387293 84.075000 2.326289 84.184615 2.266374 84.294231 2.207559 84.403846 2.149856 84.513462 2.093273 84.623077 2.037807 84.732692 1.983454 84.842308 1.930209 84.951923 1.878069 85.061538 1.827029 85.171154 1.777084 85.280769 1.728229 85.390385 1.680461 85.500000 1.633774 85.609615 1.588165 85.719231 1.543628 85.828846 1.500159 85.938462 1.457755 86.048077 1.416409 86.157692 1.376118 86.267308 1.336878 86.376923 1.298683 86.486538 1.261530 86.596154 1.225413 86.705769 1.190329 86.815385 1.156273 86.925000 1.123240 87.034615 1.091226 87.144231 1.060226 87.253846 1.030236 87.363462 1.001252 87.473077 0.973268 87.582692 0.946281 87.692308 0.920286 87.801923 0.895278 87.911538 0.871253 88.021154 0.848207 88.130769 0.826135 88.240385 0.805032 88.350000 0.784894 88.459615 0.765717 88.569231 0.747495 88.678846 0.730226 88.788462 0.713903 88.898077 0.698523 89.007692 0.684081 89.117308 0.670572 89.226923 0.657993 89.336538 0.646338 89.446154 0.635603 89.555769 0.625784 89.665385 0.616876 89.775000 0.608875 89.884615 0.601776 89.994231 0.595575 90.103846 0.590267 90.213462 0.585847 90.323077 0.582312 90.432692 0.579656 90.542308 0.577876 90.651923 0.576966 90.761538 0.576923 90.871154 0.577742 90.980769 0.579417 91.090385 0.581946 91.200000 0.585323 91.309615 0.589543 91.419231 0.594603 91.528846 0.600498 91.638462 0.607223 91.748077 0.614774 91.857692 0.623147 91.967308 0.632336 92.076923 0.642338 92.186538 0.653148 92.296154 0.664761 92.405769 0.677173 92.515385 0.690379 92.625000 0.704375 92.734615 0.719157 92.844231 0.734720 92.953846 0.751059 93.063462 0.768171 93.173077 0.786050 93.282692 0.804691 93.392308 0.824092 93.501923 0.844246 93.611538 0.865150 93.721154 0.886799 93.830769 0.909189 93.940385 0.932315 94.050000 0.956172 94.159615 0.980757 94.269231 1.006064 94.378846 1.032089 94.488462 1.058828 94.598077 1.086276 94.707692 1.114429 94.817308 1.143282 94.926923 1.172831 95.036538 1.203071 95.146154 1.233997 95.255769 1.265606 95.365385 1.297893 95.475000 1.330852 95.584615 1.364481 95.694231 1.398774 95.803846 1.433727 95.913462 1.469335 96.023077 1.505594 96.132692 1.542499 96.242308 1.580046 96.351923 1.618230 96.461538 1.657047 96.571154 1.696493 96.680769 1.736562 96.790385 1.777251 96.900000 1.818555 97.009615 1.860469 97.119231 1.902989 97.228846 1.946111 97.338462 1.989829 97.448077 2.034140 97.557692 2.079039 97.667308 2.124522 97.776923 2.170583 97.886538 2.217219 97.996154 2.264425 98.105769 2.312197 98.215385 2.360529 98.325000 2.409418 98.434615 2.458860 98.544231 2.508848 98.653846 2.559380 98.763462 2.610451 98.873077 2.662056 98.982692 2.714190 99.092308 2.766849 99.201923 2.820029 99.311538 2.873725 99.421154 2.927933 99.530769 2.982648 99.640385 3.037866 99.750000 3.093582 99.859615 3.149792 99.969231 3.206491 100.078846 3.263675 100.188462 3.321339 100.298077 3.379478 100.407692 3.438089 100.517308 3.497167 100.626923 3.556707 100.736538 3.616705 100.846154 3.677156 100.955769 3.738057 101.065385 3.799401 101.175000 3.861185 101.284615 3.923405 101.394231 3.986056 101.503846 4.049133 101.613462 4.112631 101.723077 4.176548 101.832692 4.240877 101.942308 4.305615 102.051923 4.370756 102.161538 4.436297 102.271154 4.502233 102.380769 4.568560 102.490385 4.635273 102.600000 4.702367 102.709615 4.769838 102.819231 4.837681 102.928846 4.905893 103.038462 4.974468 103.148077 5.043403 103.257692 5.112691 103.367308 5.182330 103.476923 5.252315 103.586538 5.322641 103.696154 5.393303 103.805769 5.464298 103.915385 5.535620 104.025000 5.607265 104.134615 5.679229 104.244231 5.751507 104.353846 5.824095 104.463462 5.896988 104.573077 5.970182 104.682692 6.043672 104.792308 6.117454 104.901923 6.191523 105.011538 6.265875 105.121154 6.340505 105.230769 6.415409 105.340385 6.490582 105.450000 6.566020 105.559615 6.641718 105.669231 6.717672 105.778846 6.793878 105.888462 6.870330 105.998077 6.947025 106.107692 7.023958 106.217308 7.101124 106.326923 7.178519 106.436538 7.256138 106.546154 7.333977 106.655769 7.412032 106.765385 7.490298 106.875000 7.568770 106.984615 7.647444 107.094231 7.726315 107.203846 7.805380 107.313462 7.884633 107.423077 7.964070 107.532692 8.043687 107.642308 8.123479 107.751923 8.203441 107.861538 8.283570 107.971154 8.363859 108.080769 8.444307 108.190385 8.524906 108.300000 8.605654 108.409615 8.686545 108.519231 8.767576 108.628846 8.848741 108.738462 8.930036 108.848077 9.011457 108.957692 9.093000 109.067308 9.174659 109.176923 9.256430 109.286538 9.338309 109.396154 9.420291 109.505769 9.502371 109.615385 9.584546 109.725000 9.666811 109.834615 9.749161 109.944231 9.831592 110.053846 9.914100 110.163462 9.996679 110.273077 10.079325 110.382692 10.162034 110.492308 10.244802 110.601923 10.327623 110.711538 10.410494 110.821154 10.493410 110.930769 10.576366 111.040385 10.659358 111.150000 10.742381 111.259615 10.825431 111.369231 10.908504 111.478846 10.991595 111.588462 11.074699 111.698077 11.157812 111.807692 11.240930" class="line reactive nofill" /></g></g><g class="titles" /><g transform="translate(76, 10)" class="plot overlay"><g class="series serie-0 color-0" /></g><g transform="translate(76, 10)" class="plot text-overlay"><g class="series serie-0 color-0" /></g><g transform="translate(76, 10)" class="plot tooltip-overlay"><g transform="translate(0 0)" style="opacity: 0" class="tooltip"><rect rx="0" ry="0" width="0" height="0" class="tooltip-box" /><g class="text" /></g></g></g></svg>