<?xml version='1.0' encoding='utf-8'?>
<svg xmlns="http://www.w3.org/2000/svg" id="chart-25f795c1-89ec-464b-a700-34bbcc4585e2" class="pygal-chart pygal-sparkline" viewBox="0 0 200 50" width="200" height="50"><!--Generated with pygal 3.0.5 (etree) ©Kozea 2012-2016 on 2025-01-19--><!--http://pygal.org--><!--http://github.com/Kozea/pygal--><defs><style type="text/css">#chart-25f795c1-89ec-464b-a700-34bbcc4585e2{-webkit-user-select:none;-webkit-font-smoothing:antialiased;font-family:Consolas,"Liberation Mono",Menlo,Courier,monospace}#chart-25f795c1-89ec-464b-a700-34bbcc4585e2 .title{font-family:Consolas,"Liberation Mono",Menlo,Courier,monospace;font-size:16px}#chart-25f795c1-89ec-464b-a700-34bbcc4585e2 .legends .legend text{font-family:Consolas,"Liberation Mono",Menlo,Courier,monospace;font-size:14px}#chart-25f795c1-89ec-464b-a700-34bbcc4585e2 .axis text{font-family:Consolas,"Liberation Mono",Menlo,Courier,monospace;font-size:10px}#chart-25f795c1-89ec-464b-a700-34bbcc4585e2 .axis text.major{font-family:Consolas,"Liberation Mono",Menlo,Courier,monospace;font-size:10px}#chart-25f795c1-89ec-464b-a700-34bbcc4585e2 .text-overlay text.value{font-family:Consolas,"Liberation Mono",Menlo,Courier,monospace;font-size:16px}#chart-25f795c1-89ec-464b-a700-34bbcc4585e2 .text-overlay text.label{font-family:Consolas,"Liberation Mono",Menlo,Courier,monospace;font-size:10px}#chart-25f795c1-89ec-464b-a700-34bbcc4585e2 .tooltip{font-family:Consolas,"Liberation Mono",Menlo,Courier,monospace;font-size:14px}#chart-25f795c1-89ec-464b-a700-34bbcc4585e2 text.no_data{font-family:Consolas,"Liberation Mono",Menlo,Courier,monospace;font-size:64px}
#chart-25f795c1-89ec-464b-a700-34bbcc4585e2{background-color:rgba(249,249,249,1)}#chart-25f795c1-89ec-464b-a700-34bbcc4585e2 path,#chart-25f795c1-89ec-464b-a700-34bbcc4585e2 line,#chart-25f795c1-89ec-464b-a700-34bbcc4585e2 rect,#chart-25f795c1-89ec-464b-a700-34bbcc4585e2 circle{-webkit-transition:150ms;-moz-transition:150ms;transition:150ms}#chart-25f795c1-89ec-464b-a700-34bbcc4585e2 .graph &gt; .background{fill:rgba(249,249,249,1)}#chart-25f795c1-89ec-464b-a700-34bbcc4585e2 .plot &gt; .background{fill:rgba(255,255,255,1)}#chart-25f795c1-89ec-464b-a700-34bbcc4585e2 .graph{fill:rgba(0,0,0,.87)}#chart-25f795c1-89ec-464b-a700-34bbcc4585e2 text.no_data{fill:rgba(0,0,0,1)}#chart-25f795c1-89ec-464b-a700-34bbcc4585e2 .title{fill:rgba(0,0,0,1)}#chart-25f795c1-89ec-464b-a700-34bbcc4585e2 .legends .legend text{fill:rgba(0,0,0,.87)}#chart-25f795c1-89ec-464b-a700-34bbcc4585e2 .legends .legend:hover text{fill:rgba(0,0,0,1)}#chart-25f795c1-89ec-464b-a700-34bbcc4585e2 .axis .line{stroke:rgba(0,0,0,1)}#chart-25f795c1-89ec-464b-a700-34bbcc4585e2 .axis .guide.line{stroke:rgba(0,0,0,.54)}#chart-25f795c1-89ec-464b-a700-34bbcc4585e2 .axis .major.line{stroke:rgba(0,0,0,.87)}#chart-25f795c1-89ec-464b-a700-34bbcc4585e2 .axis text.major{fill:rgba(0,0,0,1)}#chart-25f795c1-89ec-464b-a700-34bbcc4585e2 .axis.y .guides:hover .guide.line,#chart-25f795c1-89ec-464b-a700-34bbcc4585e2 .line-graph .axis.x .guides:hover .guide.line,#chart-25f795c1-89ec-464b-a700-34bbcc4585e2 .stackedline-graph .axis.x .guides:hover .guide.line,#chart-25f795c1-89ec-464b-a700-34bbcc4585e2 .xy-graph .axis.x .guides:hover .guide.line{stroke:rgba(0,0,0,1)}#chart-25f795c1-89ec-464b-a700-34bbcc4585e2 .axis .guides:hover text{fill:rgba(0,0,0,1)}#chart-25f795c1-89ec-464b-a700-34bbcc4585e2 .reactive{fill-opacity:.7;stroke-opacity:.8;stroke-width:1}#chart-25f795c1-89ec-464b-a700-34bbcc4585e2 .ci{stroke:rgba(0,0,0,.87)}#chart-25f795c1-89ec-464b-a700-34bbcc4585e2 .reactive.active,#chart-25f795c1-89ec-464b-a700-34bbcc4585e2 .active .reactive{fill-opacity:.8;stroke-opacity:.9;stroke-width:4}#chart-25f795c1-89ec-464b-a700-34bbcc4585e2 .ci .reactive.active{stroke-width:1.5}#chart-25f795c1-89ec-464b-a700-34bbcc4585e2 .series text{fill:rgba(0,0,0,1)}#chart-25f795c1-89ec-464b-a700-34bbcc4585e2 .tooltip rect{fill:rgba(255,255,255,1);stroke:rgba(0,0,0,1);-webkit-transition:opacity 150ms;-moz-transition:opacity 150ms;transition:opacity 150ms}#chart-25f795c1-89ec-464b-a700-34bbcc4585e2 .tooltip .label{fill:rgba(0,0,0,.87)}#chart-25f795c1-89ec-464b-a700-34bbcc4585e2 .tooltip .label{fill:rgba(0,0,0,.87)}#chart-25f795c1-89ec-464b-a700-34bbcc4585e2 .tooltip .legend{font-size:.8em;fill:rgba(0,0,0,.54)}#chart-25f795c1-89ec-464b-a700-34bbcc4585e2 .tooltip .x_label{font-size:.6em;fill:rgba(0,0,0,1)}#chart-25f795c1-89ec-464b-a700-34bbcc4585e2 .tooltip .xlink{font-size:.5em;text-decoration:underline}#chart-25f795c1-89ec-464b-a700-34bbcc4585e2 .tooltip .value{font-size:1.5em}#chart-25f795c1-89ec-464b-a700-34bbcc4585e2 .bound{font-size:.5em}#chart-25f795c1-89ec-464b-a700-34bbcc4585e2 .max-value{font-size:.75em;fill:rgba(0,0,0,.54)}#chart-25f795c1-89ec-464b-a700-34bbcc4585e2 .map-element{fill:rgba(255,255,255,1);stroke:rgba(0,0,0,.54) !important}#chart-25f795c1-89ec-464b-a700-34bbcc4585e2 .map-element .reactive{fill-opacity:inherit;stroke-opacity:inherit}#chart-25f795c1-89ec-464b-a700-34bbcc4585e2 .color-0,#chart-25f795c1-89ec-464b-a700-34bbcc4585e2 .color-0 a:visited{stroke:#F44336;fill:#F44336}#chart-25f795c1-89ec-464b-a700-34bbcc4585e2 .text-overlay .color-0 text{fill:black}
#chart-25f795c1-89ec-464b-a700-34bbcc4585e2 text.no_data{text-anchor:middle}#chart-25f795c1-89ec-464b-a700-34bbcc4585e2 .guide.line{fill:none}#chart-25f795c1-89ec-464b-a700-34bbcc4585e2 .centered{text-anchor:middle}#chart-25f795c1-89ec-464b-a700-34bbcc4585e2 .title{text-anchor:middle}#chart-25f795c1-89ec-464b-a700-34bbcc4585e2 .legends .legend text{fill-opacity:1}#chart-25f795c1-89ec-464b-a700-34bbcc4585e2 .axis.x text{text-anchor:middle}#chart-25f795c1-89ec-464b-a700-34bbcc4585e2 .axis.x:not(.web) text[transform]{text-anchor:start}#chart-25f795c1-89ec-464b-a700-34bbcc4585e2 .axis.x:not(.web) text[transform].backwards{text-anchor:end}#chart-25f795c1-89ec-464b-a700-34bbcc4585e2 .axis.y text{text-anchor:end}#chart-25f795c1-89ec-464b-a700-34bbcc4585e2 .axis.y text[transform].backwards{text-anchor:start}#chart-25f795c1-89ec-464b-a700-34bbcc4585e2 .axis.y2 text{text-anchor:start}#chart-25f795c1-89ec-464b-a700-34bbcc4585e2 .axis.y2 text[transform].backwards{text-anchor:end}#chart-25f795c1-89ec-464b-a700-34bbcc4585e2 .axis .guide.line{stroke-dasharray:4,4;stroke:black}#chart-25f795c1-89ec-464b-a700-34bbcc4585e2 .axis .major.guide.line{stroke-dasharray:6,6;stroke:black}#chart-25f795c1-89ec-464b-a700-34bbcc4585e2 .horizontal .axis.y .guide.line,#chart-25f795c1-89ec-464b-a700-34bbcc4585e2 .horizontal .axis.y2 .guide.line,#chart-25f795c1-89ec-464b-a700-34bbcc4585e2 .vertical .axis.x .guide.line{opacity:0}#chart-25f795c1-89ec-464b-a700-34bbcc4585e2 .horizontal .axis.always_show .guide.line,#chart-25f795c1-89ec-464b-a700-34bbcc4585e2 .vertical .axis.always_show .guide.line{opacity:1 !important}#chart-25f795c1-89ec-464b-a700-34bbcc4585e2 .axis.y .guides:hover .guide.line,#chart-25f795c1-89ec-464b-a700-34bbcc4585e2 .axis.y2 .guides:hover .guide.line,#chart-25f795c1-89ec-464b-a700-34bbcc4585e2 .axis.x .guides:hover .guide.line{opacity:1}#chart-25f795c1-89ec-464b-a700-34bbcc4585e2 .axis .guides:hover text{opacity:1}#chart-25f795c1-89ec-464b-a700-34bbcc4585e2 .nofill{fill:none}#chart-25f795c1-89ec-464b-a700-34bbcc4585e2 .subtle-fill{fill-opacity:.2}#chart-25f795c1-89ec-464b-a700-34bbcc4585e2 .dot{stroke-width:1px;fill-opacity:1;stroke-opacity:1}#chart-25f795c1-89ec-464b-a700-34bbcc4585e2 .dot.active{stroke-width:5px}#chart-25f795c1-89ec-464b-a700-34bbcc4585e2 .dot.negative{fill:transparent}#chart-25f795c1-89ec-464b-a700-34bbcc4585e2 text,#chart-25f795c1-89ec-464b-a700-34bbcc4585e2 tspan{stroke:none !important}#chart-25f795c1-89ec-464b-a700-34bbcc4585e2 .series text.active{opacity:1}#chart-25f795c1-89ec-464b-a700-34bbcc4585e2 .tooltip rect{fill-opacity:.95;stroke-width:.5}#chart-25f795c1-89ec-464b-a700-34bbcc4585e2 .tooltip text{fill-opacity:1}#chart-25f795c1-89ec-464b-a700-34bbcc4585e2 .showable{visibility:hidden}#chart-25f795c1-89ec-464b-a700-34bbcc4585e2 .showable.shown{visibility:visible}#chart-25f795c1-89ec-464b-a700-34bbcc4585e2 .gauge-background{fill:rgba(229,229,229,1);stroke:none}#chart-25f795c1-89ec-464b-a700-34bbcc4585e2 .bg-lines{stroke:rgba(249,249,249,1);stroke-width:2px}</style><script type="text/javascript">window.pygal = window.pygal || {};window.pygal.config = window.pygal.config || {};window.pygal.config['25f795c1-89ec-464b-a700-34bbcc4585e2'] = {"allow_interruptions": false, "box_mode": "extremes", "classes": ["pygal-chart", "pygal-sparkline"], "css": ["file://style.css", "file://graph.css"], "defs": [], "disable_xml_declaration": false, "dots_size": 2.5, "dynamic_print_values": false, "explicit_size": true, "fill": false, "force_uri_protocol": "https", "formatter": null, "half_pie": false, "height": 50, "include_x_axis": false, "inner_radius": 0, "interpolate": "cubic", "interpolation_parameters": {}, "interpolation_precision": 250, "inverse_y_axis": false, "js": [], "legend_at_bottom": false, "legend_at_bottom_columns": null, "legend_box_size": 12, "logarithmic": false, "margin": 10, "margin_bottom": null, "margin_left": null, "margin_right": null, "margin_top": null, "max_scale": 2, "min_scale": 1, "missing_value_fill_truncation": "x", "no_data_text": "", "no_prefix": false, "order_min": null, "pretty_print": false, "print_labels": false, "print_values": false, "print_values_position": "center", "print_zeroes": true, "range": null, "rounded_bars": null, "secondary_range": null, "show_dots": false, "show_legend": false, "show_minor_x_labels": true, "show_minor_y_labels": true, "show_only_major_dots": false, "show_x_guides": false, "show_x_labels": false, "show_y_guides": true, "show_y_labels": true, "spacing": 0, "stack_from_top": false, "strict": false, "stroke": true, "stroke_style": null, "style": {"background": "rgba(249, 249, 249, 1)", "ci_colors": [], "colors": ["#F44336", "#3F51B5", "#009688", "#FFC107", "#FF5722", "#9C27B0", "#03A9F4", "#8BC34A", "#FF9800", "#E91E63", "#2196F3", "#4CAF50", "#FFEB3B", "#673AB7", "#00BCD4", "#CDDC39", "#9E9E9E", "#607D8B"], "dot_opacity": "1", "font_family": "Consolas, \"Liberation Mono\", Menlo, Courier, monospace", "foreground": "rgba(0, 0, 0, .87)", "foreground_strong": "rgba(0, 0, 0, 1)", "foreground_subtle": "rgba(0, 0, 0, .54)", "guide_stroke_color": "black", "guide_stroke_dasharray": "4,4", "label_font_family": "Consolas, \"Liberation Mono\", Menlo, Courier, monospace", "label_font_size": 10, "legend_font_family": "Consolas, \"Liberation Mono\", Menlo, Courier, monospace", "legend_font_size": 14, "major_guide_stroke_color": "black", "major_guide_stroke_dasharray": "6,6", "major_label_font_family": "Consolas, \"Liberation Mono\", Menlo, Courier, monospace", "major_label_font_size": 10, "no_data_font_family": "Consolas, \"Liberation Mono\", Menlo, Courier, monospace", "no_data_font_size": 64, "opacity": ".7", "opacity_hover": ".8", "plot_background": "rgba(255, 255, 255, 1)", "stroke_opacity": ".8", "stroke_opacity_hover": ".9", "stroke_width": "1", "stroke_width_hover": "4", "title_font_family": "Consolas, \"Liberation Mono\", Menlo, Courier, monospace", "title_font_size": 16, "tooltip_font_family": "Consolas, \"Liberation Mono\", Menlo, Courier, monospace", "tooltip_font_size": 14, "transition": "150ms", "value_background": "rgba(229, 229, 229, 1)", "value_colors": [], "value_font_family": "Consolas, \"Liberation Mono\", Menlo, Courier, monospace", "value_font_size": 16, "value_label_font_family": "Consolas, \"Liberation Mono\", Menlo, Courier, monospace", "value_label_font_size": 10}, "title": null, "tooltip_border_radius": 0, "tooltip_fancy_mode": true, "truncate_label": null, "truncate_legend": null, "width": 200, "x_label_rotation": 0, "x_labels": ["2025/1", "2024/12", "2024/11", "2024/10", "2024/9", "2024/8"], "x_labels_major": null, "x_labels_major_count": null, "x_labels_major_every": null, "x_title": null, "xrange": null, "y_label_rotation": 0, "y_labels": null, "y_labels_major": null, "y_labels_major_count": null, "y_labels_major_every": null, "y_title": null, "zero": 0, "legends": [""]}</script></defs><title>Pygal</title><g class="graph line-graph vertical"><rect x="0" y="0" width="200" height="50" class="background" /><g transform="translate(20, 10)" class="plot"><rect x="0" y="0" width="170" height="30" class="background" /><g class="axis y always_show"><path d="M0.000000 30.000000 h170.000000" class="line" /><g class="guides"><path d="M0.000000 21.432375 h170.000000" class="guide line" /><text x="-5" y="24.932374752113603" class="">4</text><title>4</title></g><g class="guides"><path d="M0.000000 4.767470 h170.000000" class="guide line" /><text x="-5" y="8.267470110732834" class="">8</text><title>8</title></g></g><g class="series serie-0 color-0"><path d="M3.269231 21.432375 L3.400000 21.441624 3.530769 21.450875 3.661538 21.460126 3.792308 21.469380 3.923077 21.478637 4.053846 21.487897 4.184615 21.497161 4.315385 21.506431 4.446154 21.515706 4.576923 21.524988 4.707692 21.534276 4.838462 21.543573 4.969231 21.552878 5.100000 21.562192 5.230769 21.571516 5.361538 21.580851 5.492308 21.590198 5.623077 21.599556 5.753846 21.608928 5.884615 21.618312 6.015385 21.627711 6.146154 21.637125 6.276923 21.646555 6.407692 21.656001 6.538462 21.665464 6.669231 21.674945 6.800000 21.684444 6.930769 21.693963 7.061538 21.703502 7.192308 21.713061 7.323077 21.722641 7.453846 21.732244 7.584615 21.741869 7.715385 21.751518 7.846154 21.761192 7.976923 21.770890 8.107692 21.780613 8.238462 21.790363 8.369231 21.800140 8.500000 21.809945 8.630769 21.819778 8.761538 21.829641 8.892308 21.839533 9.023077 21.849456 9.153846 21.859410 9.284615 21.869397 9.415385 21.879416 9.546154 21.889468 9.676923 21.899555 9.807692 21.909677 9.938462 21.919834 10.069231 21.930027 10.200000 21.940258 10.330769 21.950526 10.461538 21.960833 10.592308 21.971179 10.723077 21.981564 10.853846 21.991991 10.984615 22.002458 11.115385 22.012968 11.246154 22.023520 11.376923 22.034116 11.507692 22.044756 11.638462 22.055440 11.769231 22.066171 11.900000 22.076947 12.030769 22.087771 12.161538 22.098642 12.292308 22.109562 12.423077 22.120530 12.553846 22.131549 12.684615 22.142618 12.815385 22.153738 12.946154 22.164911 13.076923 22.176136 13.207692 22.187414 13.338462 22.198747 13.469231 22.210134 13.600000 22.221577 13.730769 22.233076 13.861538 22.244632 13.992308 22.256246 14.123077 22.267918 14.253846 22.279649 14.384615 22.291440 14.515385 22.303292 14.646154 22.315204 14.776923 22.327179 14.907692 22.339216 15.038462 22.351317 15.169231 22.363482 15.300000 22.375711 15.430769 22.388006 15.561538 22.400367 15.692308 22.412795 15.823077 22.425291 15.953846 22.437855 16.084615 22.450488 16.215385 22.463191 16.346154 22.475965 16.476923 22.488809 16.607692 22.501726 16.738462 22.514715 16.869231 22.527777 17.000000 22.540914 17.130769 22.554125 17.261538 22.567411 17.392308 22.580774 17.523077 22.594214 17.653846 22.607731 17.784615 22.621327 17.915385 22.635001 18.046154 22.648756 18.176923 22.662591 18.307692 22.676507 18.438462 22.690504 18.569231 22.704585 18.700000 22.718748 18.830769 22.732996 18.961538 22.747329 19.092308 22.761746 19.223077 22.776250 19.353846 22.790841 19.484615 22.805520 19.615385 22.820286 19.746154 22.835142 19.876923 22.850087 20.007692 22.865123 20.138462 22.880250 20.269231 22.895469 20.400000 22.910780 20.530769 22.926184 20.661538 22.941683 20.792308 22.957276 20.923077 22.972964 21.053846 22.988749 21.184615 23.004631 21.315385 23.020610 21.446154 23.036687 21.576923 23.052863 21.707692 23.069139 21.838462 23.085515 21.969231 23.101992 22.100000 23.118572 22.230769 23.135253 22.361538 23.152038 22.492308 23.168927 22.623077 23.185920 22.753846 23.203019 22.884615 23.220224 23.015385 23.237536 23.146154 23.254955 23.276923 23.272482 23.407692 23.290118 23.538462 23.307864 23.669231 23.325721 23.800000 23.343688 23.930769 23.361767 24.061538 23.379958 24.192308 23.398263 24.323077 23.416682 24.453846 23.435215 24.584615 23.453864 24.715385 23.472628 24.846154 23.491510 24.976923 23.510508 25.107692 23.529625 25.238462 23.548861 25.369231 23.568217 25.500000 23.587693 25.630769 23.607289 25.761538 23.627008 25.892308 23.646849 26.023077 23.666813 26.153846 23.686901 26.284615 23.707114 26.415385 23.727452 26.546154 23.747915 26.676923 23.768506 26.807692 23.789224 26.938462 23.810070 27.069231 23.831045 27.200000 23.852150 27.330769 23.873385 27.461538 23.894751 27.592308 23.916248 27.723077 23.937878 27.853846 23.959641 27.984615 23.981538 28.115385 24.003570 28.246154 24.025736 28.376923 24.048039 28.507692 24.070478 28.638462 24.093055 28.769231 24.115770 28.900000 24.138624 29.030769 24.161617 29.161538 24.184750 29.292308 24.208025 29.423077 24.231441 29.553846 24.254999 29.684615 24.278701 29.815385 24.302546 29.946154 24.326536 30.076923 24.350671 30.207692 24.374952 30.338462 24.399380 30.469231 24.423955 30.600000 24.448678 30.730769 24.473550 30.861538 24.498571 30.992308 24.523743 31.123077 24.549065 31.253846 24.574539 31.384615 24.600166 31.515385 24.625946 31.646154 24.651879 31.776923 24.677967 31.907692 24.704210 32.038462 24.730608 32.169231 24.757164 32.300000 24.783877 32.430769 24.810748 32.561538 24.837777 32.692308 24.864966 32.823077 24.892316 32.953846 24.919826 33.084615 24.947497 33.215385 24.975332 33.346154 25.003329 33.476923 25.031489 33.607692 25.059815 33.738462 25.088305 33.869231 25.116961 34.000000 25.145784 34.130769 25.174774 34.261538 25.203933 34.392308 25.233259 34.523077 25.262756 34.653846 25.292422 34.784615 25.322259 34.915385 25.352268 35.046154 25.382449 35.176923 25.412804 35.307692 25.443331 35.438462 25.474034 35.569231 25.504911 35.700000 25.535964 35.830769 25.567194 35.961538 25.598601 36.092308 25.630185 36.223077 25.661942 36.353846 25.693866 36.484615 25.725953 36.615385 25.758197 36.746154 25.790594 36.876923 25.823137 37.007692 25.855823 37.138462 25.888645 37.269231 25.921598 37.400000 25.954678 37.530769 25.987879 37.661538 26.021197 37.792308 26.054625 37.923077 26.088159 38.053846 26.121793 38.184615 26.155523 38.315385 26.189343 38.446154 26.223248 38.576923 26.257234 38.707692 26.291294 38.838462 26.325423 38.969231 26.359617 39.100000 26.393871 39.230769 26.428178 39.361538 26.462535 39.492308 26.496935 39.623077 26.531374 39.753846 26.565847 39.884615 26.600348 40.015385 26.634872 40.146154 26.669414 40.276923 26.703969 40.407692 26.738532 40.538462 26.773097 40.669231 26.807659 40.800000 26.842214 40.930769 26.876756 41.061538 26.911280 41.192308 26.945781 41.323077 26.980253 41.453846 27.014692 41.584615 27.049092 41.715385 27.083448 41.846154 27.117755 41.976923 27.152008 42.107692 27.186202 42.238462 27.220331 42.369231 27.254390 42.500000 27.288374 42.630769 27.322279 42.761538 27.356098 42.892308 27.389827 43.023077 27.423461 43.153846 27.456994 43.284615 27.490421 43.415385 27.523737 43.546154 27.556937 43.676923 27.590016 43.807692 27.622969 43.938462 27.655790 44.069231 27.688474 44.200000 27.721016 44.330769 27.753411 44.461538 27.785654 44.592308 27.817739 44.723077 27.849662 44.853846 27.881418 44.984615 27.913000 45.115385 27.944405 45.246154 27.975626 45.376923 28.006659 45.507692 28.037498 45.638462 28.068139 45.769231 28.098576 45.900000 28.128804 46.030769 28.158818 46.161538 28.188612 46.292308 28.218182 46.423077 28.247523 46.553846 28.276628 46.684615 28.305494 46.815385 28.334115 46.946154 28.362485 47.076923 28.390600 47.207692 28.418455 47.338462 28.446044 47.469231 28.473362 47.600000 28.500403 47.730769 28.527164 47.861538 28.553638 47.992308 28.579821 48.123077 28.605707 48.253846 28.631291 48.384615 28.656568 48.515385 28.681534 48.646154 28.706181 48.776923 28.730507 48.907692 28.754504 49.038462 28.778169 49.169231 28.801496 49.300000 28.824480 49.430769 28.847115 49.561538 28.869397 49.692308 28.891321 49.823077 28.912880 49.953846 28.934071 50.084615 28.954888 50.215385 28.975325 50.346154 28.995379 50.476923 29.015042 50.607692 29.034311 50.738462 29.053180 50.869231 29.071644 51.000000 29.089698 51.130769 29.107336 51.261538 29.124554 51.392308 29.141346 51.523077 29.157708 51.653846 29.173633 51.784615 29.189118 51.915385 29.204156 52.046154 29.218742 52.176923 29.232872 52.307692 29.246541 52.438462 29.259742 52.569231 29.272471 52.700000 29.284723 52.830769 29.296492 52.961538 29.307774 53.092308 29.318563 53.223077 29.328855 53.353846 29.338643 53.484615 29.347923 53.615385 29.356690 53.746154 29.364938 53.876923 29.372662 54.007692 29.379858 54.138462 29.386519 54.269231 29.392642 54.400000 29.398220 54.530769 29.403249 54.661538 29.407723 54.792308 29.411637 54.923077 29.414986 55.053846 29.417765 55.184615 29.419969 55.315385 29.421592 55.446154 29.422630 55.576923 29.423077 55.707692 29.422928 55.838462 29.422178 55.969231 29.420822 56.100000 29.418854 56.230769 29.416270 56.361538 29.413064 56.492308 29.409231 56.623077 29.404767 56.753846 29.399665 56.884615 29.393920 57.015385 29.387528 57.146154 29.380484 57.276923 29.372781 57.407692 29.364416 57.538462 29.355383 57.669231 29.345676 57.800000 29.335291 57.930769 29.324222 58.061538 29.312464 58.192308 29.300012 58.323077 29.286862 58.453846 29.273007 58.584615 29.258442 58.715385 29.243163 58.846154 29.227165 58.976923 29.210441 59.107692 29.192987 59.238462 29.174798 59.369231 29.155869 59.500000 29.136194 59.630769 29.115769 59.761538 29.094587 59.892308 29.072645 60.023077 29.049937 60.153846 29.026457 60.284615 29.002200 60.415385 28.977162 60.546154 28.951337 60.676923 28.924721 60.807692 28.897307 60.938462 28.869090 61.069231 28.840067 61.200000 28.810231 61.330769 28.779576 61.461538 28.748099 61.592308 28.715794 61.723077 28.682656 61.853846 28.648679 61.984615 28.613859 62.115385 28.578190 62.246154 28.541667 62.376923 28.504285 62.507692 28.466039 62.638462 28.426924 62.769231 28.386934 62.900000 28.346064 63.030769 28.304310 63.161538 28.261665 63.292308 28.218126 63.423077 28.173686 63.553846 28.128340 63.684615 28.082084 63.815385 28.034912 63.946154 27.986819 64.076923 27.937800 64.207692 27.887850 64.338462 27.836964 64.469231 27.785135 64.600000 27.732360 64.730769 27.678634 64.861538 27.623950 64.992308 27.568304 65.123077 27.511690 65.253846 27.454104 65.384615 27.395540 65.515385 27.335993 65.646154 27.275459 65.776923 27.213931 65.907692 27.151405 66.038462 27.087875 66.169231 27.023337 66.300000 26.957784 66.430769 26.891213 66.561538 26.823618 66.692308 26.754993 66.823077 26.685334 66.953846 26.614636 67.084615 26.542892 67.215385 26.470099 67.346154 26.396251 67.476923 26.321342 67.607692 26.245368 67.738462 26.168323 67.869231 26.090203 68.000000 26.011001 68.130769 25.930714 68.261538 25.849335 68.392308 25.766860 68.523077 25.683284 68.653846 25.598601 68.784615 25.512809 68.915385 25.425917 69.046154 25.337937 69.176923 25.248881 69.307692 25.158760 69.438462 25.067588 69.569231 24.975375 69.700000 24.882134 69.830769 24.787876 69.961538 24.692614 70.092308 24.596360 70.223077 24.499124 70.353846 24.400920 70.484615 24.301760 70.615385 24.201654 70.746154 24.100615 70.876923 23.998656 71.007692 23.895787 71.138462 23.792021 71.269231 23.687369 71.400000 23.581845 71.530769 23.475459 71.661538 23.368224 71.792308 23.260151 71.923077 23.151252 72.053846 23.041540 72.184615 22.931026 72.315385 22.819722 72.446154 22.707640 72.576923 22.594792 72.707692 22.481190 72.838462 22.366846 72.969231 22.251772 73.100000 22.135980 73.230769 22.019481 73.361538 21.902287 73.492308 21.784412 73.623077 21.665865 73.753846 21.546660 73.884615 21.426809 74.015385 21.306322 74.146154 21.185213 74.276923 21.063492 74.407692 20.941173 74.538462 20.818266 74.669231 20.694784 74.800000 20.570740 74.930769 20.446143 75.061538 20.321008 75.192308 20.195344 75.323077 20.069166 75.453846 19.942483 75.584615 19.815310 75.715385 19.687656 75.846154 19.559534 75.976923 19.430957 76.107692 19.301935 76.238462 19.172482 76.369231 19.042608 76.500000 18.912326 76.630769 18.781648 76.761538 18.650585 76.892308 18.519150 77.023077 18.387355 77.153846 18.255211 77.284615 18.122730 77.415385 17.989925 77.546154 17.856806 77.676923 17.723387 77.807692 17.589679 77.938462 17.455694 78.069231 17.321444 78.200000 17.186941 78.330769 17.052196 78.461538 16.917222 78.592308 16.782031 78.723077 16.646634 78.853846 16.511044 78.984615 16.375272 79.115385 16.239330 79.246154 16.103231 79.376923 15.966986 79.507692 15.830606 79.638462 15.694105 79.769231 15.557494 79.900000 15.420785 80.030769 15.283989 80.161538 15.147120 80.292308 15.010187 80.423077 14.873205 80.553846 14.736184 80.684615 14.599136 80.815385 14.462074 80.946154 14.325009 81.076923 14.187953 81.207692 14.050918 81.338462 13.913916 81.469231 13.776960 81.600000 13.640060 81.730769 13.503229 81.861538 13.366479 81.992308 13.229821 82.123077 13.093268 82.253846 12.956832 82.384615 12.820524 82.515385 12.684357 82.646154 12.548342 82.776923 12.412491 82.907692 12.276816 83.038462 12.141329 83.169231 12.006042 83.300000 11.870968 83.430769 11.736117 83.561538 11.601502 83.692308 11.467134 83.823077 11.333027 83.953846 11.199190 84.084615 11.065638 84.215385 10.932381 84.346154 10.799431 84.476923 10.666800 84.607692 10.534501 84.738462 10.402545 84.869231 10.270943 85.000000 10.139709 85.130769 10.008854 85.261538 9.878389 85.392308 9.748328 85.523077 9.618681 85.653846 9.489460 85.784615 9.360678 85.915385 9.232347 86.046154 9.104478 86.176923 8.977083 86.307692 8.850175 86.438462 8.723764 86.569231 8.597864 86.700000 8.472486 86.830769 8.347642 86.961538 8.223343 87.092308 8.099603 87.223077 7.976432 87.353846 7.853843 87.484615 7.731847 87.615385 7.610457 87.746154 7.489684 87.876923 7.369541 88.007692 7.250039 88.138462 7.131190 88.269231 7.013006 88.400000 6.895500 88.530769 6.778682 88.661538 6.662565 88.792308 6.547161 88.923077 6.432482 89.053846 6.318539 89.184615 6.205346 89.315385 6.092912 89.446154 5.981251 89.576923 5.870375 89.707692 5.760295 89.838462 5.651023 89.969231 5.542571 90.100000 5.434951 90.230769 5.328176 90.361538 5.222256 90.492308 5.117204 90.623077 5.013032 90.753846 4.909752 90.884615 4.807375 91.015385 4.705914 91.146154 4.605381 91.276923 4.505787 91.407692 4.407144 91.538462 4.309464 91.669231 4.212760 91.800000 4.117043 91.930769 4.022325 92.061538 3.928618 92.192308 3.835934 92.323077 3.744284 92.453846 3.653682 92.584615 3.564138 92.715385 3.475664 92.846154 3.388274 92.976923 3.301977 93.107692 3.216788 93.238462 3.132716 93.369231 3.049775 93.500000 2.967976 93.630769 2.887330 93.761538 2.807851 93.892308 2.729550 94.023077 2.652439 94.153846 2.576530 94.284615 2.501834 94.415385 2.428364 94.546154 2.356132 94.676923 2.285149 94.807692 2.215427 94.938462 2.146979 95.069231 2.079816 95.200000 2.013951 95.330769 1.949394 95.461538 1.886159 95.592308 1.824256 95.723077 1.763699 95.853846 1.704498 95.984615 1.646666 96.115385 1.590215 96.246154 1.535156 96.376923 1.481502 96.507692 1.429265 96.638462 1.378455 96.769231 1.329087 96.900000 1.281170 97.030769 1.234718 97.161538 1.189741 97.292308 1.146253 97.423077 1.104264 97.553846 1.063788 97.684615 1.024835 97.815385 0.987418 97.946154 0.951549 98.076923 0.917239 98.207692 0.884501 98.338462 0.853346 98.469231 0.823787 98.600000 0.795835 98.730769 0.769502 98.861538 0.744800 98.992308 0.721741 99.123077 0.700338 99.253846 0.680601 99.384615 0.662543 99.515385 0.646176 99.646154 0.631511 99.776923 0.618561 99.907692 0.607338 100.038462 0.597853 100.169231 0.590118 100.300000 0.584146 100.430769 0.579948 100.561538 0.577537 100.692308 0.576923 100.823077 0.578119 100.953846 0.581138 101.084615 0.585990 101.215385 0.592688 101.346154 0.601244 101.476923 0.611665 101.607692 0.623942 101.738462 0.638061 101.869231 0.654009 102.000000 0.671771 102.130769 0.691335 102.261538 0.712685 102.392308 0.735809 102.523077 0.760692 102.653846 0.787322 102.784615 0.815684 102.915385 0.845764 103.046154 0.877548 103.176923 0.911024 103.307692 0.946177 103.438462 0.982993 103.569231 1.021459 103.700000 1.061561 103.830769 1.103285 103.961538 1.146618 104.092308 1.191545 104.223077 1.238053 104.353846 1.286129 104.484615 1.335758 104.615385 1.386926 104.746154 1.439621 104.876923 1.493828 105.007692 1.549533 105.138462 1.606723 105.269231 1.665384 105.400000 1.725502 105.530769 1.787064 105.661538 1.850055 105.792308 1.914463 105.923077 1.980272 106.053846 2.047470 106.184615 2.116043 106.315385 2.185977 106.446154 2.257258 106.576923 2.329873 106.707692 2.403807 106.838462 2.479047 106.969231 2.555580 107.100000 2.633391 107.230769 2.712467 107.361538 2.792793 107.492308 2.874358 107.623077 2.957145 107.753846 3.041142 107.884615 3.126336 108.015385 3.212711 108.146154 3.300256 108.276923 3.388955 108.407692 3.478794 108.538462 3.569762 108.669231 3.661842 108.800000 3.755023 108.930769 3.849289 109.061538 3.944628 109.192308 4.041026 109.323077 4.138468 109.453846 4.236941 109.584615 4.336432 109.715385 4.436926 109.846154 4.538409 109.976923 4.640869 110.107692 4.744292 110.238462 4.848662 110.369231 4.953968 110.500000 5.060195 110.630769 5.167328 110.761538 5.275356 110.892308 5.384263 111.023077 5.494037 111.153846 5.604662 111.284615 5.716127 111.415385 5.828416 111.546154 5.941516 111.676923 6.055413 111.807692 6.170094 111.938462 6.285545 112.069231 6.401752 112.200000 6.518702 112.330769 6.636380 112.461538 6.754772 112.592308 6.873866 112.723077 6.993647 112.853846 7.114102 112.984615 7.235217 113.115385 7.356977 113.246154 7.479371 113.376923 7.602382 113.507692 7.725999 113.638462 7.850207 113.769231 7.974992 113.900000 8.100340 114.030769 8.226239 114.161538 8.352673 114.292308 8.479630 114.423077 8.607096 114.553846 8.735057 114.684615 8.863498 114.815385 8.992407 114.946154 9.121770 115.076923 9.251572 115.207692 9.381801 115.338462 9.512442 115.469231 9.643482 115.600000 9.774906 115.730769 9.906702 115.861538 10.038855 115.992308 10.171352 116.123077 10.304179 116.253846 10.437322 116.384615 10.570767 116.515385 10.704501 116.646154 10.838510 116.776923 10.972780 116.907692 11.107297 117.038462 11.242048 117.169231 11.377019 117.300000 11.512196 117.430769 11.647566 117.561538 11.783114 117.692308 11.918827 117.823077 12.054692 117.953846 12.190693 118.084615 12.326819 118.215385 12.463054 118.346154 12.599386 118.476923 12.735800 118.607692 12.872283 118.738462 13.008820 118.869231 13.145399 119.000000 13.282006 119.130769 13.418626 119.261538 13.555246 119.392308 13.691852 119.523077 13.828430 119.653846 13.964968 119.784615 14.101450 119.915385 14.237864 120.046154 14.374195 120.176923 14.510429 120.307692 14.646554 120.438462 14.782555 120.569231 14.918418 120.700000 15.054131 120.830769 15.189678 120.961538 15.325046 121.092308 15.460222 121.223077 15.595191 121.353846 15.729941 121.484615 15.864457 121.615385 15.998725 121.746154 16.132732 121.876923 16.266464 122.007692 16.399907 122.138462 16.533048 122.269231 16.665873 122.400000 16.798367 122.530769 16.930518 122.661538 17.062311 122.792308 17.193733 122.923077 17.324770 123.053846 17.455409 123.184615 17.585635 123.315385 17.715434 123.446154 17.844794 123.576923 17.973700 123.707692 18.102138 123.838462 18.230096 123.969231 18.357558 124.100000 18.484512 124.230769 18.610943 124.361538 18.736837 124.492308 18.862182 124.623077 18.986964 124.753846 19.111167 124.884615 19.234780 125.015385 19.357788 125.146154 19.480177 125.276923 19.601933 125.407692 19.723043 125.538462 19.843494 125.669231 19.963270 125.800000 20.082359 125.930769 20.200748 126.061538 20.318421 126.192308 20.435365 126.323077 20.551567 126.453846 20.667013 126.584615 20.781689 126.715385 20.895581 126.846154 21.008676 126.976923 21.120959 127.107692 21.232418 127.238462 21.343038 127.369231 21.452806 127.500000 21.561707 127.630769 21.669729 127.761538 21.776857 127.892308 21.883077 128.023077 21.988377 128.153846 22.092741 128.284615 22.196157 128.415385 22.298610 128.546154 22.400087 128.676923 22.500575 128.807692 22.600059 128.938462 22.698525 129.069231 22.795960 129.200000 22.892351 129.330769 22.987682 129.461538 23.081942 129.592308 23.175115 129.723077 23.267188 129.853846 23.358148 129.984615 23.447980 130.115385 23.536672 130.246154 23.624208 130.376923 23.710576 130.507692 23.795761 130.638462 23.879750 130.769231 23.962530 130.900000 24.044086 131.030769 24.124404 131.161538 24.203472 131.292308 24.281274 131.423077 24.357798 131.553846 24.433030 131.684615 24.506955 131.815385 24.579561 131.946154 24.650833 132.076923 24.720758 132.207692 24.789322 132.338462 24.856510 132.469231 24.922311 132.600000 24.986709 132.730769 25.049691 132.861538 25.111243 132.992308 25.171351 133.123077 25.230002 133.253846 25.287182 133.384615 25.342878 133.515385 25.397074 133.646154 25.449759 133.776923 25.500917 133.907692 25.550536 134.038462 25.598601 134.169231 25.645102 134.300000 25.690042 134.430769 25.733427 134.561538 25.775264 134.692308 25.815559 134.823077 25.854317 134.953846 25.891546 135.084615 25.927252 135.215385 25.961440 135.346154 25.994118 135.476923 26.025291 135.607692 26.054965 135.738462 26.083148 135.869231 26.109844 136.000000 26.135061 136.130769 26.158805 136.261538 26.181082 136.392308 26.201898 136.523077 26.221260 136.653846 26.239174 136.784615 26.255645 136.915385 26.270681 137.046154 26.284288 137.176923 26.296471 137.307692 26.307238 137.438462 26.316594 137.569231 26.324546 137.700000 26.331100 137.830769 26.336262 137.961538 26.340038 138.092308 26.342436 138.223077 26.343460 138.353846 26.343118 138.484615 26.341415 138.615385 26.338358 138.746154 26.333953 138.876923 26.328207 139.007692 26.321125 139.138462 26.312714 139.269231 26.302981 139.400000 26.291931 139.530769 26.279570 139.661538 26.265906 139.792308 26.250944 139.923077 26.234690 140.053846 26.217151 140.184615 26.198334 140.315385 26.178243 140.446154 26.156887 140.576923 26.134270 140.707692 26.110399 140.838462 26.085281 140.969231 26.058922 141.100000 26.031327 141.230769 26.002504 141.361538 25.972458 141.492308 25.941196 141.623077 25.908724 141.753846 25.875048 141.884615 25.840175 142.015385 25.804111 142.146154 25.766862 142.276923 25.728434 142.407692 25.688834 142.538462 25.648068 142.669231 25.606142 142.800000 25.563063 142.930769 25.518836 143.061538 25.473469 143.192308 25.426966 143.323077 25.379335 143.453846 25.330582 143.584615 25.280713 143.715385 25.229735 143.846154 25.177653 143.976923 25.124473 144.107692 25.070204 144.238462 25.014849 144.369231 24.958416 144.500000 24.900911 144.630769 24.842341 144.761538 24.782711 144.892308 24.722027 145.023077 24.660297 145.153846 24.597526 145.284615 24.533721 145.415385 24.468887 145.546154 24.403032 145.676923 24.336161 145.807692 24.268280 145.938462 24.199397 146.069231 24.129517 146.200000 24.058646 146.330769 23.986791 146.461538 23.913958 146.592308 23.840153 146.723077 23.765383 146.853846 23.689653 146.984615 23.612971 147.115385 23.535342 147.246154 23.456773 147.376923 23.377269 147.507692 23.296838 147.638462 23.215485 147.769231 23.133217 147.900000 23.050040 148.030769 22.965960 148.161538 22.880983 148.292308 22.795117 148.423077 22.708366 148.553846 22.620738 148.684615 22.532238 148.815385 22.442873 148.946154 22.352649 149.076923 22.261573 149.207692 22.169650 149.338462 22.076888 149.469231 21.983291 149.600000 21.888867 149.730769 21.793621 149.861538 21.697561 149.992308 21.600692 150.123077 21.503020 150.253846 21.404553 150.384615 21.305295 150.515385 21.205254 150.646154 21.104435 150.776923 21.002845 150.907692 20.900490 151.038462 20.797377 151.169231 20.693512 151.300000 20.588900 151.430769 20.483549 151.561538 20.377464 151.692308 20.270652 151.823077 20.163119 151.953846 20.054871 152.084615 19.945915 152.215385 19.836257 152.346154 19.725903 152.476923 19.614859 152.607692 19.503132 152.738462 19.390728 152.869231 19.277653 153.000000 19.163913 153.130769 19.049515 153.261538 18.934465 153.392308 18.818770 153.523077 18.702435 153.653846 18.585467 153.784615 18.467872 153.915385 18.349656 154.046154 18.230826 154.176923 18.111388 154.307692 17.991348 154.438462 17.870712 154.569231 17.749487 154.700000 17.627679 154.830769 17.505294 154.961538 17.382339 155.092308 17.258820 155.223077 17.134742 155.353846 17.010113 155.484615 16.884939 155.615385 16.759225 155.746154 16.632978 155.876923 16.506205 156.007692 16.378912 156.138462 16.251104 156.269231 16.122789 156.400000 15.993972 156.530769 15.864660 156.661538 15.734858 156.792308 15.604575 156.923077 15.473814 157.053846 15.342584 157.184615 15.210889 157.315385 15.078737 157.446154 14.946133 157.576923 14.813085 157.707692 14.679597 157.838462 14.545677 157.969231 14.411331 158.100000 14.276565 158.230769 14.141384 158.361538 14.005797 158.492308 13.869808 158.623077 13.733424 158.753846 13.596651 158.884615 13.459497 159.015385 13.321965 159.146154 13.184064 159.276923 13.045800 159.407692 12.907178 159.538462 12.768205 159.669231 12.628887 159.800000 12.489231 159.930769 12.349242 160.061538 12.208927 160.192308 12.068293 160.323077 11.927345 160.453846 11.786090 160.584615 11.644534 160.715385 11.502684 160.846154 11.360545 160.976923 11.218124 161.107692 11.075427 161.238462 10.932460 161.369231 10.789230 161.500000 10.645744 161.630769 10.502006 161.761538 10.358024 161.892308 10.213804 162.023077 10.069351 162.153846 9.924673 162.284615 9.779776 162.415385 9.634665 162.546154 9.489348 162.676923 9.343830 162.807692 9.198117 162.938462 9.052217 163.069231 8.906135 163.200000 8.759877 163.330769 8.613450 163.461538 8.466860 163.592308 8.320113 163.723077 8.173216 163.853846 8.026174 163.984615 7.878995 164.115385 7.731684 164.246154 7.584247 164.376923 7.436692 164.507692 7.289023 164.638462 7.141248 164.769231 6.993373 164.900000 6.845404 165.030769 6.697347 165.161538 6.549208 165.292308 6.400994 165.423077 6.252711 165.553846 6.104366 165.684615 5.955964 165.815385 5.807512 165.946154 5.659016 166.076923 5.510483 166.207692 5.361918 166.338462 5.213328 166.469231 5.064719 166.600000 4.916098 166.730769 4.767470" class="line reactive nofill" /></g></g><g class="titles" /><g transform="translate(20, 10)" class="plot overlay"><g class="series serie-0 color-0" /></g><g transform="translate(20, 10)" class="plot text-overlay"><g class="series serie-0 color-0" /></g><g transform="translate(20, 10)" class="plot tooltip-overlay"><g transform="translate(0 0)" style="opacity: 0" class="tooltip"><rect rx="0" ry="0" width="0" height="0" class="tooltip-box" /><g class="text" /></g></g></g></svg>