<?xml version='1.0' encoding='utf-8'?>
<svg xmlns="http://www.w3.org/2000/svg" id="chart-8e1d44bd-cd95-4c1b-bfdc-46177b67b9f1" class="pygal-chart pygal-sparkline" viewBox="0 0 200 50" width="200" height="50"><!--Generated with pygal 3.0.5 (etree) ©Kozea 2012-2016 on 2024-10-07--><!--http://pygal.org--><!--http://github.com/Kozea/pygal--><defs><style type="text/css">#chart-8e1d44bd-cd95-4c1b-bfdc-46177b67b9f1{-webkit-user-select:none;-webkit-font-smoothing:antialiased;font-family:Consolas,"Liberation Mono",Menlo,Courier,monospace}#chart-8e1d44bd-cd95-4c1b-bfdc-46177b67b9f1 .title{font-family:Consolas,"Liberation Mono",Menlo,Courier,monospace;font-size:16px}#chart-8e1d44bd-cd95-4c1b-bfdc-46177b67b9f1 .legends .legend text{font-family:Consolas,"Liberation Mono",Menlo,Courier,monospace;font-size:14px}#chart-8e1d44bd-cd95-4c1b-bfdc-46177b67b9f1 .axis text{font-family:Consolas,"Liberation Mono",Menlo,Courier,monospace;font-size:10px}#chart-8e1d44bd-cd95-4c1b-bfdc-46177b67b9f1 .axis text.major{font-family:Consolas,"Liberation Mono",Menlo,Courier,monospace;font-size:10px}#chart-8e1d44bd-cd95-4c1b-bfdc-46177b67b9f1 .text-overlay text.value{font-family:Consolas,"Liberation Mono",Menlo,Courier,monospace;font-size:16px}#chart-8e1d44bd-cd95-4c1b-bfdc-46177b67b9f1 .text-overlay text.label{font-family:Consolas,"Liberation Mono",Menlo,Courier,monospace;font-size:10px}#chart-8e1d44bd-cd95-4c1b-bfdc-46177b67b9f1 .tooltip{font-family:Consolas,"Liberation Mono",Menlo,Courier,monospace;font-size:14px}#chart-8e1d44bd-cd95-4c1b-bfdc-46177b67b9f1 text.no_data{font-family:Consolas,"Liberation Mono",Menlo,Courier,monospace;font-size:64px}
#chart-8e1d44bd-cd95-4c1b-bfdc-46177b67b9f1{background-color:rgba(249,249,249,1)}#chart-8e1d44bd-cd95-4c1b-bfdc-46177b67b9f1 path,#chart-8e1d44bd-cd95-4c1b-bfdc-46177b67b9f1 line,#chart-8e1d44bd-cd95-4c1b-bfdc-46177b67b9f1 rect,#chart-8e1d44bd-cd95-4c1b-bfdc-46177b67b9f1 circle{-webkit-transition:150ms;-moz-transition:150ms;transition:150ms}#chart-8e1d44bd-cd95-4c1b-bfdc-46177b67b9f1 .graph &gt; .background{fill:rgba(249,249,249,1)}#chart-8e1d44bd-cd95-4c1b-bfdc-46177b67b9f1 .plot &gt; .background{fill:rgba(255,255,255,1)}#chart-8e1d44bd-cd95-4c1b-bfdc-46177b67b9f1 .graph{fill:rgba(0,0,0,.87)}#chart-8e1d44bd-cd95-4c1b-bfdc-46177b67b9f1 text.no_data{fill:rgba(0,0,0,1)}#chart-8e1d44bd-cd95-4c1b-bfdc-46177b67b9f1 .title{fill:rgba(0,0,0,1)}#chart-8e1d44bd-cd95-4c1b-bfdc-46177b67b9f1 .legends .legend text{fill:rgba(0,0,0,.87)}#chart-8e1d44bd-cd95-4c1b-bfdc-46177b67b9f1 .legends .legend:hover text{fill:rgba(0,0,0,1)}#chart-8e1d44bd-cd95-4c1b-bfdc-46177b67b9f1 .axis .line{stroke:rgba(0,0,0,1)}#chart-8e1d44bd-cd95-4c1b-bfdc-46177b67b9f1 .axis .guide.line{stroke:rgba(0,0,0,.54)}#chart-8e1d44bd-cd95-4c1b-bfdc-46177b67b9f1 .axis .major.line{stroke:rgba(0,0,0,.87)}#chart-8e1d44bd-cd95-4c1b-bfdc-46177b67b9f1 .axis text.major{fill:rgba(0,0,0,1)}#chart-8e1d44bd-cd95-4c1b-bfdc-46177b67b9f1 .axis.y .guides:hover .guide.line,#chart-8e1d44bd-cd95-4c1b-bfdc-46177b67b9f1 .line-graph .axis.x .guides:hover .guide.line,#chart-8e1d44bd-cd95-4c1b-bfdc-46177b67b9f1 .stackedline-graph .axis.x .guides:hover .guide.line,#chart-8e1d44bd-cd95-4c1b-bfdc-46177b67b9f1 .xy-graph .axis.x .guides:hover .guide.line{stroke:rgba(0,0,0,1)}#chart-8e1d44bd-cd95-4c1b-bfdc-46177b67b9f1 .axis .guides:hover text{fill:rgba(0,0,0,1)}#chart-8e1d44bd-cd95-4c1b-bfdc-46177b67b9f1 .reactive{fill-opacity:.7;stroke-opacity:.8;stroke-width:1}#chart-8e1d44bd-cd95-4c1b-bfdc-46177b67b9f1 .ci{stroke:rgba(0,0,0,.87)}#chart-8e1d44bd-cd95-4c1b-bfdc-46177b67b9f1 .reactive.active,#chart-8e1d44bd-cd95-4c1b-bfdc-46177b67b9f1 .active .reactive{fill-opacity:.8;stroke-opacity:.9;stroke-width:4}#chart-8e1d44bd-cd95-4c1b-bfdc-46177b67b9f1 .ci .reactive.active{stroke-width:1.5}#chart-8e1d44bd-cd95-4c1b-bfdc-46177b67b9f1 .series text{fill:rgba(0,0,0,1)}#chart-8e1d44bd-cd95-4c1b-bfdc-46177b67b9f1 .tooltip rect{fill:rgba(255,255,255,1);stroke:rgba(0,0,0,1);-webkit-transition:opacity 150ms;-moz-transition:opacity 150ms;transition:opacity 150ms}#chart-8e1d44bd-cd95-4c1b-bfdc-46177b67b9f1 .tooltip .label{fill:rgba(0,0,0,.87)}#chart-8e1d44bd-cd95-4c1b-bfdc-46177b67b9f1 .tooltip .label{fill:rgba(0,0,0,.87)}#chart-8e1d44bd-cd95-4c1b-bfdc-46177b67b9f1 .tooltip .legend{font-size:.8em;fill:rgba(0,0,0,.54)}#chart-8e1d44bd-cd95-4c1b-bfdc-46177b67b9f1 .tooltip .x_label{font-size:.6em;fill:rgba(0,0,0,1)}#chart-8e1d44bd-cd95-4c1b-bfdc-46177b67b9f1 .tooltip .xlink{font-size:.5em;text-decoration:underline}#chart-8e1d44bd-cd95-4c1b-bfdc-46177b67b9f1 .tooltip .value{font-size:1.5em}#chart-8e1d44bd-cd95-4c1b-bfdc-46177b67b9f1 .bound{font-size:.5em}#chart-8e1d44bd-cd95-4c1b-bfdc-46177b67b9f1 .max-value{font-size:.75em;fill:rgba(0,0,0,.54)}#chart-8e1d44bd-cd95-4c1b-bfdc-46177b67b9f1 .map-element{fill:rgba(255,255,255,1);stroke:rgba(0,0,0,.54) !important}#chart-8e1d44bd-cd95-4c1b-bfdc-46177b67b9f1 .map-element .reactive{fill-opacity:inherit;stroke-opacity:inherit}#chart-8e1d44bd-cd95-4c1b-bfdc-46177b67b9f1 .color-0,#chart-8e1d44bd-cd95-4c1b-bfdc-46177b67b9f1 .color-0 a:visited{stroke:#F44336;fill:#F44336}#chart-8e1d44bd-cd95-4c1b-bfdc-46177b67b9f1 .text-overlay .color-0 text{fill:black}
#chart-8e1d44bd-cd95-4c1b-bfdc-46177b67b9f1 text.no_data{text-anchor:middle}#chart-8e1d44bd-cd95-4c1b-bfdc-46177b67b9f1 .guide.line{fill:none}#chart-8e1d44bd-cd95-4c1b-bfdc-46177b67b9f1 .centered{text-anchor:middle}#chart-8e1d44bd-cd95-4c1b-bfdc-46177b67b9f1 .title{text-anchor:middle}#chart-8e1d44bd-cd95-4c1b-bfdc-46177b67b9f1 .legends .legend text{fill-opacity:1}#chart-8e1d44bd-cd95-4c1b-bfdc-46177b67b9f1 .axis.x text{text-anchor:middle}#chart-8e1d44bd-cd95-4c1b-bfdc-46177b67b9f1 .axis.x:not(.web) text[transform]{text-anchor:start}#chart-8e1d44bd-cd95-4c1b-bfdc-46177b67b9f1 .axis.x:not(.web) text[transform].backwards{text-anchor:end}#chart-8e1d44bd-cd95-4c1b-bfdc-46177b67b9f1 .axis.y text{text-anchor:end}#chart-8e1d44bd-cd95-4c1b-bfdc-46177b67b9f1 .axis.y text[transform].backwards{text-anchor:start}#chart-8e1d44bd-cd95-4c1b-bfdc-46177b67b9f1 .axis.y2 text{text-anchor:start}#chart-8e1d44bd-cd95-4c1b-bfdc-46177b67b9f1 .axis.y2 text[transform].backwards{text-anchor:end}#chart-8e1d44bd-cd95-4c1b-bfdc-46177b67b9f1 .axis .guide.line{stroke-dasharray:4,4;stroke:black}#chart-8e1d44bd-cd95-4c1b-bfdc-46177b67b9f1 .axis .major.guide.line{stroke-dasharray:6,6;stroke:black}#chart-8e1d44bd-cd95-4c1b-bfdc-46177b67b9f1 .horizontal .axis.y .guide.line,#chart-8e1d44bd-cd95-4c1b-bfdc-46177b67b9f1 .horizontal .axis.y2 .guide.line,#chart-8e1d44bd-cd95-4c1b-bfdc-46177b67b9f1 .vertical .axis.x .guide.line{opacity:0}#chart-8e1d44bd-cd95-4c1b-bfdc-46177b67b9f1 .horizontal .axis.always_show .guide.line,#chart-8e1d44bd-cd95-4c1b-bfdc-46177b67b9f1 .vertical .axis.always_show .guide.line{opacity:1 !important}#chart-8e1d44bd-cd95-4c1b-bfdc-46177b67b9f1 .axis.y .guides:hover .guide.line,#chart-8e1d44bd-cd95-4c1b-bfdc-46177b67b9f1 .axis.y2 .guides:hover .guide.line,#chart-8e1d44bd-cd95-4c1b-bfdc-46177b67b9f1 .axis.x .guides:hover .guide.line{opacity:1}#chart-8e1d44bd-cd95-4c1b-bfdc-46177b67b9f1 .axis .guides:hover text{opacity:1}#chart-8e1d44bd-cd95-4c1b-bfdc-46177b67b9f1 .nofill{fill:none}#chart-8e1d44bd-cd95-4c1b-bfdc-46177b67b9f1 .subtle-fill{fill-opacity:.2}#chart-8e1d44bd-cd95-4c1b-bfdc-46177b67b9f1 .dot{stroke-width:1px;fill-opacity:1;stroke-opacity:1}#chart-8e1d44bd-cd95-4c1b-bfdc-46177b67b9f1 .dot.active{stroke-width:5px}#chart-8e1d44bd-cd95-4c1b-bfdc-46177b67b9f1 .dot.negative{fill:transparent}#chart-8e1d44bd-cd95-4c1b-bfdc-46177b67b9f1 text,#chart-8e1d44bd-cd95-4c1b-bfdc-46177b67b9f1 tspan{stroke:none !important}#chart-8e1d44bd-cd95-4c1b-bfdc-46177b67b9f1 .series text.active{opacity:1}#chart-8e1d44bd-cd95-4c1b-bfdc-46177b67b9f1 .tooltip rect{fill-opacity:.95;stroke-width:.5}#chart-8e1d44bd-cd95-4c1b-bfdc-46177b67b9f1 .tooltip text{fill-opacity:1}#chart-8e1d44bd-cd95-4c1b-bfdc-46177b67b9f1 .showable{visibility:hidden}#chart-8e1d44bd-cd95-4c1b-bfdc-46177b67b9f1 .showable.shown{visibility:visible}#chart-8e1d44bd-cd95-4c1b-bfdc-46177b67b9f1 .gauge-background{fill:rgba(229,229,229,1);stroke:none}#chart-8e1d44bd-cd95-4c1b-bfdc-46177b67b9f1 .bg-lines{stroke:rgba(249,249,249,1);stroke-width:2px}</style><script type="text/javascript">window.pygal = window.pygal || {};window.pygal.config = window.pygal.config || {};window.pygal.config['8e1d44bd-cd95-4c1b-bfdc-46177b67b9f1'] = {"allow_interruptions": false, "box_mode": "extremes", "classes": ["pygal-chart", "pygal-sparkline"], "css": ["file://style.css", "file://graph.css"], "defs": [], "disable_xml_declaration": false, "dots_size": 2.5, "dynamic_print_values": false, "explicit_size": true, "fill": false, "force_uri_protocol": "https", "formatter": null, "half_pie": false, "height": 50, "include_x_axis": false, "inner_radius": 0, "interpolate": "cubic", "interpolation_parameters": {}, "interpolation_precision": 250, "inverse_y_axis": false, "js": [], "legend_at_bottom": false, "legend_at_bottom_columns": null, "legend_box_size": 12, "logarithmic": false, "margin": 10, "margin_bottom": null, "margin_left": null, "margin_right": null, "margin_top": null, "max_scale": 2, "min_scale": 1, "missing_value_fill_truncation": "x", "no_data_text": "", "no_prefix": false, "order_min": null, "pretty_print": false, "print_labels": false, "print_values": false, "print_values_position": "center", "print_zeroes": true, "range": null, "rounded_bars": null, "secondary_range": null, "show_dots": false, "show_legend": false, "show_minor_x_labels": true, "show_minor_y_labels": true, "show_only_major_dots": false, "show_x_guides": false, "show_x_labels": false, "show_y_guides": true, "show_y_labels": true, "spacing": 0, "stack_from_top": false, "strict": false, "stroke": true, "stroke_style": null, "style": {"background": "rgba(249, 249, 249, 1)", "ci_colors": [], "colors": ["#F44336", "#3F51B5", "#009688", "#FFC107", "#FF5722", "#9C27B0", "#03A9F4", "#8BC34A", "#FF9800", "#E91E63", "#2196F3", "#4CAF50", "#FFEB3B", "#673AB7", "#00BCD4", "#CDDC39", "#9E9E9E", "#607D8B"], "dot_opacity": "1", "font_family": "Consolas, \"Liberation Mono\", Menlo, Courier, monospace", "foreground": "rgba(0, 0, 0, .87)", "foreground_strong": "rgba(0, 0, 0, 1)", "foreground_subtle": "rgba(0, 0, 0, .54)", "guide_stroke_color": "black", "guide_stroke_dasharray": "4,4", "label_font_family": "Consolas, \"Liberation Mono\", Menlo, Courier, monospace", "label_font_size": 10, "legend_font_family": "Consolas, \"Liberation Mono\", Menlo, Courier, monospace", "legend_font_size": 14, "major_guide_stroke_color": "black", "major_guide_stroke_dasharray": "6,6", "major_label_font_family": "Consolas, \"Liberation Mono\", Menlo, Courier, monospace", "major_label_font_size": 10, "no_data_font_family": "Consolas, \"Liberation Mono\", Menlo, Courier, monospace", "no_data_font_size": 64, "opacity": ".7", "opacity_hover": ".8", "plot_background": "rgba(255, 255, 255, 1)", "stroke_opacity": ".8", "stroke_opacity_hover": ".9", "stroke_width": "1", "stroke_width_hover": "4", "title_font_family": "Consolas, \"Liberation Mono\", Menlo, Courier, monospace", "title_font_size": 16, "tooltip_font_family": "Consolas, \"Liberation Mono\", Menlo, Courier, monospace", "tooltip_font_size": 14, "transition": "150ms", "value_background": "rgba(229, 229, 229, 1)", "value_colors": [], "value_font_family": "Consolas, \"Liberation Mono\", Menlo, Courier, monospace", "value_font_size": 16, "value_label_font_family": "Consolas, \"Liberation Mono\", Menlo, Courier, monospace", "value_label_font_size": 10}, "title": null, "tooltip_border_radius": 0, "tooltip_fancy_mode": true, "truncate_label": null, "truncate_legend": null, "width": 200, "x_label_rotation": 0, "x_labels": ["2024/8", "2024/7", "2024/5", "2023/8", "2023/7", "2023/6"], "x_labels_major": null, "x_labels_major_count": null, "x_labels_major_every": null, "x_title": null, "xrange": null, "y_label_rotation": 0, "y_labels": null, "y_labels_major": null, "y_labels_major_count": null, "y_labels_major_every": null, "y_title": null, "zero": 0, "legends": [""]}</script></defs><title>Pygal</title><g class="graph line-graph vertical"><rect x="0" y="0" width="200" height="50" class="background" /><g transform="translate(82, 10)" class="plot"><rect x="0" y="0" width="108.0" height="30" class="background" /><g class="axis y always_show"><path d="M0.000000 30.000000 h108.000000" class="line" /><g class="guides"><path d="M0.000000 29.423077 h108.000000" class="guide line" /><text x="-5" y="32.92307692307692" class="">0.9586226024</text><title>0.9586226024</title></g><g class="guides"><path d="M0.000000 0.576923 h108.000000" class="guide line" /><text x="-5" y="4.076923076923077" class="">9</text><title>9</title></g></g><g class="series serie-0 color-0"><path d="M2.076923 0.576923 L2.160000 0.652169 2.243077 0.727414 2.326154 0.802659 2.409231 0.877902 2.492308 0.953145 2.575385 1.028385 2.658462 1.103624 2.741538 1.178860 2.824615 1.254094 2.907692 1.329324 2.990769 1.404551 3.073846 1.479775 3.156923 1.554994 3.240000 1.630209 3.323077 1.705420 3.406154 1.780625 3.489231 1.855825 3.572308 1.931019 3.655385 2.006207 3.738462 2.081389 3.821538 2.156564 3.904615 2.231732 3.987692 2.306893 4.070769 2.382046 4.153846 2.457190 4.236923 2.532327 4.320000 2.607454 4.403077 2.682573 4.486154 2.757682 4.569231 2.832782 4.652308 2.907871 4.735385 2.982950 4.818462 3.058018 4.901538 3.133075 4.984615 3.208121 5.067692 3.283155 5.150769 3.358177 5.233846 3.433186 5.316923 3.508182 5.400000 3.583166 5.483077 3.658136 5.566154 3.733092 5.649231 3.808034 5.732308 3.882962 5.815385 3.957875 5.898462 4.032773 5.981538 4.107655 6.064615 4.182521 6.147692 4.257372 6.230769 4.332206 6.313846 4.407023 6.396923 4.481823 6.480000 4.556605 6.563077 4.631370 6.646154 4.706116 6.729231 4.780844 6.812308 4.855553 6.895385 4.930243 6.978462 5.004914 7.061538 5.079565 7.144615 5.154195 7.227692 5.228805 7.310769 5.303394 7.393846 5.377962 7.476923 5.452509 7.560000 5.527034 7.643077 5.601536 7.726154 5.676016 7.809231 5.750473 7.892308 5.824907 7.975385 5.899317 8.058462 5.973704 8.141538 6.048066 8.224615 6.122404 8.307692 6.196717 8.390769 6.271004 8.473846 6.345267 8.556923 6.419503 8.640000 6.493713 8.723077 6.567896 8.806154 6.642053 8.889231 6.716182 8.972308 6.790284 9.055385 6.864358 9.138462 6.938403 9.221538 7.012421 9.304615 7.086409 9.387692 7.160368 9.470769 7.234297 9.553846 7.308196 9.636923 7.382066 9.720000 7.455904 9.803077 7.529712 9.886154 7.603488 9.969231 7.677233 10.052308 7.750946 10.135385 7.824627 10.218462 7.898275 10.301538 7.971890 10.384615 8.045471 10.467692 8.119020 10.550769 8.192534 10.633846 8.266014 10.716923 8.339459 10.800000 8.412869 10.883077 8.486245 10.966154 8.559584 11.049231 8.632887 11.132308 8.706155 11.215385 8.779385 11.298462 8.852579 11.381538 8.925735 11.464615 8.998854 11.547692 9.071934 11.630769 9.144976 11.713846 9.217980 11.796923 9.290945 11.880000 9.363870 11.963077 9.436756 12.046154 9.509601 12.129231 9.582407 12.212308 9.655171 12.295385 9.727895 12.378462 9.800577 12.461538 9.873218 12.544615 9.945816 12.627692 10.018373 12.710769 10.090886 12.793846 10.163357 12.876923 10.235784 12.960000 10.308167 13.043077 10.380507 13.126154 10.452802 13.209231 10.525052 13.292308 10.597258 13.375385 10.669418 13.458462 10.741532 13.541538 10.813600 13.624615 10.885622 13.707692 10.957597 13.790769 11.029525 13.873846 11.101405 13.956923 11.173238 14.040000 11.245023 14.123077 11.316760 14.206154 11.388447 14.289231 11.460086 14.372308 11.531675 14.455385 11.603214 14.538462 11.674704 14.621538 11.746143 14.704615 11.817531 14.787692 11.888868 14.870769 11.960154 14.953846 12.031388 15.036923 12.102569 15.120000 12.173699 15.203077 12.244775 15.286154 12.315799 15.369231 12.386769 15.452308 12.457685 15.535385 12.528547 15.618462 12.599355 15.701538 12.670108 15.784615 12.740805 15.867692 12.811448 15.950769 12.882034 16.033846 12.952565 16.116923 13.023038 16.200000 13.093456 16.283077 13.163815 16.366154 13.234118 16.449231 13.304363 16.532308 13.374549 16.615385 13.444677 16.698462 13.514746 16.781538 13.584756 16.864615 13.654707 16.947692 13.724598 17.030769 13.794428 17.113846 13.864198 17.196923 13.933907 17.280000 14.003555 17.363077 14.073142 17.446154 14.142666 17.529231 14.212129 17.612308 14.281529 17.695385 14.350866 17.778462 14.420140 17.861538 14.489350 17.944615 14.558497 18.027692 14.627579 18.110769 14.696597 18.193846 14.765550 18.276923 14.834437 18.360000 14.903259 18.443077 14.972016 18.526154 15.040706 18.609231 15.109329 18.692308 15.177886 18.775385 15.246375 18.858462 15.314797 18.941538 15.383151 19.024615 15.451436 19.107692 15.519654 19.190769 15.587802 19.273846 15.655881 19.356923 15.723890 19.440000 15.791829 19.523077 15.859699 19.606154 15.927497 19.689231 15.995225 19.772308 16.062881 19.855385 16.130466 19.938462 16.197979 20.021538 16.265420 20.104615 16.332788 20.187692 16.400083 20.270769 16.467305 20.353846 16.534453 20.436923 16.601527 20.520000 16.668527 20.603077 16.735452 20.686154 16.802303 20.769231 16.869078 20.852308 16.935777 20.935385 17.002401 21.018462 17.068948 21.101538 17.135418 21.184615 17.201812 21.267692 17.268128 21.350769 17.334367 21.433846 17.400527 21.516923 17.466610 21.600000 17.532613 21.683077 17.598538 21.766154 17.664383 21.849231 17.730149 21.932308 17.795835 22.015385 17.861440 22.098462 17.926965 22.181538 17.992408 22.264615 18.057770 22.347692 18.123051 22.430769 18.188250 22.513846 18.253366 22.596923 18.318400 22.680000 18.383350 22.763077 18.448217 22.846154 18.513001 22.929231 18.577700 23.012308 18.642314 23.095385 18.706842 23.178462 18.771283 23.261538 18.835635 23.344615 18.899899 23.427692 18.964071 23.510769 19.028152 23.593846 19.092140 23.676923 19.156035 23.760000 19.219835 23.843077 19.283539 23.926154 19.347146 24.009231 19.410655 24.092308 19.474065 24.175385 19.537375 24.258462 19.600584 24.341538 19.663690 24.424615 19.726693 24.507692 19.789592 24.590769 19.852385 24.673846 19.915071 24.756923 19.977650 24.840000 20.040120 24.923077 20.102480 25.006154 20.164730 25.089231 20.226867 25.172308 20.288891 25.255385 20.350802 25.338462 20.412597 25.421538 20.474275 25.504615 20.535837 25.587692 20.597280 25.670769 20.658603 25.753846 20.719806 25.836923 20.780888 25.920000 20.841846 26.003077 20.902681 26.086154 20.963391 26.169231 21.023975 26.252308 21.084432 26.335385 21.144761 26.418462 21.204961 26.501538 21.265031 26.584615 21.324969 26.667692 21.384775 26.750769 21.444447 26.833846 21.503985 26.916923 21.563387 27.000000 21.622653 27.083077 21.681781 27.166154 21.740770 27.249231 21.799619 27.332308 21.858327 27.415385 21.916894 27.498462 21.975317 27.581538 22.033596 27.664615 22.091729 27.747692 22.149716 27.830769 22.207556 27.913846 22.265247 27.996923 22.322789 28.080000 22.380180 28.163077 22.437420 28.246154 22.494506 28.329231 22.551439 28.412308 22.608217 28.495385 22.664839 28.578462 22.721303 28.661538 22.777610 28.744615 22.833757 28.827692 22.889744 28.910769 22.945570 28.993846 23.001233 29.076923 23.056733 29.160000 23.112068 29.243077 23.167237 29.326154 23.222240 29.409231 23.277074 29.492308 23.331740 29.575385 23.386236 29.658462 23.440561 29.741538 23.494714 29.824615 23.548693 29.907692 23.602498 29.990769 23.656128 30.073846 23.709582 30.156923 23.762858 30.240000 23.815955 30.323077 23.868873 30.406154 23.921610 30.489231 23.974165 30.572308 24.026537 30.655385 24.078726 30.738462 24.130729 30.821538 24.182546 30.904615 24.234176 30.987692 24.285618 31.070769 24.336871 31.153846 24.387933 31.236923 24.438804 31.320000 24.489482 31.403077 24.539966 31.486154 24.590256 31.569231 24.640350 31.652308 24.690248 31.735385 24.739947 31.818462 24.789447 31.901538 24.838748 31.984615 24.887847 32.067692 24.936744 32.150769 24.985437 32.233846 25.033927 32.316923 25.082211 32.400000 25.130288 32.483077 25.178158 32.566154 25.225819 32.649231 25.273270 32.732308 25.320511 32.815385 25.367540 32.898462 25.414356 32.981538 25.460957 33.064615 25.507344 33.147692 25.553514 33.230769 25.599468 33.313846 25.645203 33.396923 25.690718 33.480000 25.736013 33.563077 25.781087 33.646154 25.825938 33.729231 25.870565 33.812308 25.914967 33.895385 25.959144 33.978462 26.003094 34.061538 26.046815 34.144615 26.090308 34.227692 26.133570 34.310769 26.176602 34.393846 26.219401 34.476923 26.261966 34.560000 26.304297 34.643077 26.346393 34.726154 26.388252 34.809231 26.429874 34.892308 26.471256 34.975385 26.512399 35.058462 26.553301 35.141538 26.593961 35.224615 26.634378 35.307692 26.674551 35.390769 26.714479 35.473846 26.754160 35.556923 26.793594 35.640000 26.832780 35.723077 26.871716 35.806154 26.910402 35.889231 26.948836 35.972308 26.987018 36.055385 27.024945 36.138462 27.062618 36.221538 27.100035 36.304615 27.137195 36.387692 27.174096 36.470769 27.210739 36.553846 27.247121 36.636923 27.283242 36.720000 27.319101 36.803077 27.354696 36.886154 27.390027 36.969231 27.425092 37.052308 27.459891 37.135385 27.494422 37.218462 27.528684 37.301538 27.562676 37.384615 27.596397 37.467692 27.629846 37.550769 27.663022 37.633846 27.695924 37.716923 27.728550 37.800000 27.760900 37.883077 27.792973 37.966154 27.824767 38.049231 27.856282 38.132308 27.887516 38.215385 27.918468 38.298462 27.949138 38.381538 27.979524 38.464615 28.009625 38.547692 28.039439 38.630769 28.068967 38.713846 28.098207 38.796923 28.127157 38.880000 28.155817 38.963077 28.184186 39.046154 28.212262 39.129231 28.240045 39.212308 28.267533 39.295385 28.294725 39.378462 28.321621 39.461538 28.348219 39.544615 28.374518 39.627692 28.400517 39.710769 28.426215 39.793846 28.451611 39.876923 28.476703 39.960000 28.501492 40.043077 28.525975 40.126154 28.550151 40.209231 28.574020 40.292308 28.597581 40.375385 28.620832 40.458462 28.643772 40.541538 28.666400 40.624615 28.688716 40.707692 28.710718 40.790769 28.732404 40.873846 28.753775 40.956923 28.774828 41.040000 28.795563 41.123077 28.815979 41.206154 28.836075 41.289231 28.855849 41.372308 28.875300 41.455385 28.894428 41.538462 28.913231 41.621538 28.931708 41.704615 28.949859 41.787692 28.967682 41.870769 28.985175 41.953846 29.002339 42.036923 29.019172 42.120000 29.035672 42.203077 29.051839 42.286154 29.067672 42.369231 29.083169 42.452308 29.098330 42.535385 29.113153 42.618462 29.127638 42.701538 29.141783 42.784615 29.155587 42.867692 29.169049 42.950769 29.182168 43.033846 29.194943 43.116923 29.207373 43.200000 29.219457 43.283077 29.231194 43.366154 29.242583 43.449231 29.253622 43.532308 29.264310 43.615385 29.274647 43.698462 29.284632 43.781538 29.294265 43.864615 29.303546 43.947692 29.312475 44.030769 29.321055 44.113846 29.329284 44.196923 29.337163 44.280000 29.344694 44.363077 29.351876 44.446154 29.358709 44.529231 29.365195 44.612308 29.371335 44.695385 29.377127 44.778462 29.382573 44.861538 29.387674 44.944615 29.392430 45.027692 29.396841 45.110769 29.400908 45.193846 29.404631 45.276923 29.408011 45.360000 29.411049 45.443077 29.413744 45.526154 29.416098 45.609231 29.418111 45.692308 29.419784 45.775385 29.421116 45.858462 29.422108 45.941538 29.422762 46.024615 29.423077 46.107692 29.423054 46.190769 29.422693 46.273846 29.421995 46.356923 29.420961 46.440000 29.419590 46.523077 29.417884 46.606154 29.415843 46.689231 29.413468 46.772308 29.410758 46.855385 29.407714 46.938462 29.404338 47.021538 29.400629 47.104615 29.396588 47.187692 29.392215 47.270769 29.387511 47.353846 29.382477 47.436923 29.377113 47.520000 29.371419 47.603077 29.365396 47.686154 29.359044 47.769231 29.352365 47.852308 29.345357 47.935385 29.338023 48.018462 29.330362 48.101538 29.322375 48.184615 29.314063 48.267692 29.305425 48.350769 29.296463 48.433846 29.287177 48.516923 29.277567 48.600000 29.267635 48.683077 29.257379 48.766154 29.246802 48.849231 29.235903 48.932308 29.224683 49.015385 29.213142 49.098462 29.201282 49.181538 29.189102 49.264615 29.176602 49.347692 29.163785 49.430769 29.150649 49.513846 29.137196 49.596923 29.123425 49.680000 29.109338 49.763077 29.094935 49.846154 29.080217 49.929231 29.065183 50.012308 29.049835 50.095385 29.034173 50.178462 29.018197 50.261538 29.001909 50.344615 28.985307 50.427692 28.968394 50.510769 28.951169 50.593846 28.933633 50.676923 28.915787 50.760000 28.897630 50.843077 28.879164 50.926154 28.860389 51.009231 28.841306 51.092308 28.821914 51.175385 28.802215 51.258462 28.782209 51.341538 28.761896 51.424615 28.741278 51.507692 28.720353 51.590769 28.699124 51.673846 28.677590 51.756923 28.655753 51.840000 28.633611 51.923077 28.611167 52.006154 28.588420 52.089231 28.565371 52.172308 28.542021 52.255385 28.518369 52.338462 28.494417 52.421538 28.470165 52.504615 28.445614 52.587692 28.420764 52.670769 28.395615 52.753846 28.370168 52.836923 28.344423 52.920000 28.318381 53.003077 28.292043 53.086154 28.265409 53.169231 28.238480 53.252308 28.211255 53.335385 28.183736 53.418462 28.155923 53.501538 28.127817 53.584615 28.099417 53.667692 28.070725 53.750769 28.041741 53.833846 28.012465 53.916923 27.982899 54.000000 27.953042 54.083077 27.922894 54.166154 27.892458 54.249231 27.861732 54.332308 27.830718 54.415385 27.799416 54.498462 27.767827 54.581538 27.735950 54.664615 27.703787 54.747692 27.671338 54.830769 27.638603 54.913846 27.605584 54.996923 27.572280 55.080000 27.538692 55.163077 27.504821 55.246154 27.470666 55.329231 27.436229 55.412308 27.401510 55.495385 27.366510 55.578462 27.331228 55.661538 27.295666 55.744615 27.259825 55.827692 27.223703 55.910769 27.187303 55.993846 27.150624 56.076923 27.113667 56.160000 27.076433 56.243077 27.038922 56.326154 27.001134 56.409231 26.963071 56.492308 26.924732 56.575385 26.886117 56.658462 26.847229 56.741538 26.808066 56.824615 26.768630 56.907692 26.728921 56.990769 26.688940 57.073846 26.648686 57.156923 26.608162 57.240000 26.567366 57.323077 26.526299 57.406154 26.484963 57.489231 26.443357 57.572308 26.401483 57.655385 26.359340 57.738462 26.316929 57.821538 26.274250 57.904615 26.231304 57.987692 26.188093 58.070769 26.144615 58.153846 26.100871 58.236923 26.056863 58.320000 26.012590 58.403077 25.968053 58.486154 25.923253 58.569231 25.878190 58.652308 25.832864 58.735385 25.787277 58.818462 25.741428 58.901538 25.695318 58.984615 25.648948 59.067692 25.602317 59.150769 25.555428 59.233846 25.508279 59.316923 25.460872 59.400000 25.413207 59.483077 25.365284 59.566154 25.317105 59.649231 25.268669 59.732308 25.219977 59.815385 25.171030 59.898462 25.121828 59.981538 25.072371 60.064615 25.022660 60.147692 24.972696 60.230769 24.922479 60.313846 24.872010 60.396923 24.821289 60.480000 24.770316 60.563077 24.719093 60.646154 24.667618 60.729231 24.615894 60.812308 24.563921 60.895385 24.511699 60.978462 24.459228 61.061538 24.406509 61.144615 24.353543 61.227692 24.300330 61.310769 24.246871 61.393846 24.193165 61.476923 24.139215 61.560000 24.085019 61.643077 24.030579 61.726154 23.975895 61.809231 23.920967 61.892308 23.865797 61.975385 23.810384 62.058462 23.754729 62.141538 23.698833 62.224615 23.642696 62.307692 23.586319 62.390769 23.529702 62.473846 23.472845 62.556923 23.415749 62.640000 23.358415 62.723077 23.300843 62.806154 23.243034 62.889231 23.184988 62.972308 23.126705 63.055385 23.068187 63.138462 23.009433 63.221538 22.950444 63.304615 22.891221 63.387692 22.831763 63.470769 22.772073 63.553846 22.712149 63.636923 22.651994 63.720000 22.591606 63.803077 22.530987 63.886154 22.470137 63.969231 22.409056 64.052308 22.347746 64.135385 22.286207 64.218462 22.224438 64.301538 22.162441 64.384615 22.100216 64.467692 22.037764 64.550769 21.975089 64.633846 21.912192 64.716923 21.849077 64.800000 21.785748 64.883077 21.722207 64.966154 21.658458 65.049231 21.594504 65.132308 21.530349 65.215385 21.465995 65.298462 21.401445 65.381538 21.336704 65.464615 21.271773 65.547692 21.206657 65.630769 21.141358 65.713846 21.075880 65.796923 21.010226 65.880000 20.944399 65.963077 20.878402 66.046154 20.812238 66.129231 20.745911 66.212308 20.679425 66.295385 20.612781 66.378462 20.545983 66.461538 20.479035 66.544615 20.411940 66.627692 20.344700 66.710769 20.277320 66.793846 20.209802 66.876923 20.142149 66.960000 20.074366 67.043077 20.006454 67.126154 19.938417 67.209231 19.870258 67.292308 19.801981 67.375385 19.733589 67.458462 19.665085 67.541538 19.596472 67.624615 19.527753 67.707692 19.458932 67.790769 19.390011 67.873846 19.320994 67.956923 19.251885 68.040000 19.182686 68.123077 19.113400 68.206154 19.044031 68.289231 18.974583 68.372308 18.905057 68.455385 18.835458 68.538462 18.765788 68.621538 18.696051 68.704615 18.626250 68.787692 18.556388 68.870769 18.486469 68.953846 18.416495 69.036923 18.346470 69.120000 18.276397 69.203077 18.206279 69.286154 18.136119 69.369231 18.065921 69.452308 17.995688 69.535385 17.925423 69.618462 17.855130 69.701538 17.784810 69.784615 17.714468 69.867692 17.644107 69.950769 17.573730 70.033846 17.503341 70.116923 17.432941 70.200000 17.362536 70.283077 17.292127 70.366154 17.221718 70.449231 17.151312 70.532308 17.080913 70.615385 17.010524 70.698462 16.940147 70.781538 16.869787 70.864615 16.799445 70.947692 16.729126 71.030769 16.658833 71.113846 16.588569 71.196923 16.518337 71.280000 16.448140 71.363077 16.377981 71.446154 16.307865 71.529231 16.237793 71.612308 16.167769 71.695385 16.097796 71.778462 16.027878 71.861538 15.958018 71.944615 15.888218 72.027692 15.818483 72.110769 15.748815 72.193846 15.679218 72.276923 15.609694 72.360000 15.540247 72.443077 15.470880 72.526154 15.401597 72.609231 15.332400 72.692308 15.263292 72.775385 15.194278 72.858462 15.125360 72.941538 15.056541 73.024615 14.987825 73.107692 14.919214 73.190769 14.850713 73.273846 14.782323 73.356923 14.714049 73.440000 14.645894 73.523077 14.577860 73.606154 14.509951 73.689231 14.442171 73.772308 14.374521 73.855385 14.307007 73.938462 14.239630 74.021538 14.172394 74.104615 14.105302 74.187692 14.038358 74.270769 13.971564 74.353846 13.904924 74.436923 13.838441 74.520000 13.772118 74.603077 13.705959 74.686154 13.639966 74.769231 13.574143 74.852308 13.508493 74.935385 13.443019 75.018462 13.377725 75.101538 13.312613 75.184615 13.247687 75.267692 13.182950 75.350769 13.118406 75.433846 13.054057 75.516923 12.989906 75.600000 12.925957 75.683077 12.862214 75.766154 12.798678 75.849231 12.735354 75.932308 12.672245 76.015385 12.609353 76.098462 12.546683 76.181538 12.484237 76.264615 12.422018 76.347692 12.360030 76.430769 12.298276 76.513846 12.236759 76.596923 12.175482 76.680000 12.114448 76.763077 12.053662 76.846154 11.993125 76.929231 11.932841 77.012308 11.872814 77.095385 11.813046 77.178462 11.753541 77.261538 11.694301 77.344615 11.635331 77.427692 11.576633 77.510769 11.518211 77.593846 11.460067 77.676923 11.402206 77.760000 11.344629 77.843077 11.287341 77.926154 11.230344 78.009231 11.173642 78.092308 11.117238 78.175385 11.061135 78.258462 11.005336 78.341538 10.949845 78.424615 10.894665 78.507692 10.839798 78.590769 10.785249 78.673846 10.731020 78.756923 10.677115 78.840000 10.623536 78.923077 10.570288 79.006154 10.517372 79.089231 10.464793 79.172308 10.412554 79.255385 10.360657 79.338462 10.309106 79.421538 10.257905 79.504615 10.207056 79.587692 10.156562 79.670769 10.106427 79.753846 10.056654 79.836923 10.007247 79.920000 9.958208 80.003077 9.909540 80.086154 9.861247 80.169231 9.813333 80.252308 9.765799 80.335385 9.718650 80.418462 9.671888 80.501538 9.625518 80.584615 9.579541 80.667692 9.533962 80.750769 9.488783 80.833846 9.444007 80.916923 9.399639 81.000000 9.355680 81.083077 9.312135 81.166154 9.269007 81.249231 9.226297 81.332308 9.184011 81.415385 9.142151 81.498462 9.100720 81.581538 9.059722 81.664615 9.019159 81.747692 8.979035 81.830769 8.939353 81.913846 8.900117 81.996923 8.861329 82.080000 8.822992 82.163077 8.785111 82.246154 8.747687 82.329231 8.710725 82.412308 8.674227 82.495385 8.638198 82.578462 8.602639 82.661538 8.567554 82.744615 8.532946 82.827692 8.498819 82.910769 8.465176 82.993846 8.432019 83.076923 8.399353 83.160000 8.367180 83.243077 8.335503 83.326154 8.304327 83.409231 8.273653 83.492308 8.243485 83.575385 8.213827 83.658462 8.184681 83.741538 8.156051 83.824615 8.127940 83.907692 8.100351 83.990769 8.073288 84.073846 8.046753 84.156923 8.020749 84.240000 7.995281 84.323077 7.970351 84.406154 7.945962 84.489231 7.922118 84.572308 7.898822 84.655385 7.876076 84.738462 7.853885 84.821538 7.832251 84.904615 7.811178 84.987692 7.790669 85.070769 7.770726 85.153846 7.751354 85.236923 7.732554 85.320000 7.714326 85.403077 7.696666 85.486154 7.679573 85.569231 7.663044 85.652308 7.647077 85.735385 7.631669 85.818462 7.616819 85.901538 7.602524 85.984615 7.588782 86.067692 7.575590 86.150769 7.562946 86.233846 7.550848 86.316923 7.539294 86.400000 7.528281 86.483077 7.517807 86.566154 7.507870 86.649231 7.498468 86.732308 7.489597 86.815385 7.481256 86.898462 7.473443 86.981538 7.466155 87.064615 7.459390 87.147692 7.453145 87.230769 7.447419 87.313846 7.442209 87.396923 7.437513 87.480000 7.433328 87.563077 7.429653 87.646154 7.426484 87.729231 7.423820 87.812308 7.421658 87.895385 7.419996 87.978462 7.418832 88.061538 7.418163 88.144615 7.417988 88.227692 7.418303 88.310769 7.419107 88.393846 7.420397 88.476923 7.422171 88.560000 7.424427 88.643077 7.427162 88.726154 7.430374 88.809231 7.434061 88.892308 7.438220 88.975385 7.442850 89.058462 7.447948 89.141538 7.453511 89.224615 7.459537 89.307692 7.466025 89.390769 7.472971 89.473846 7.480373 89.556923 7.488230 89.640000 7.496539 89.723077 7.505297 89.806154 7.514502 89.889231 7.524153 89.972308 7.534246 90.055385 7.544779 90.138462 7.555750 90.221538 7.567158 90.304615 7.578998 90.387692 7.591270 90.470769 7.603971 90.553846 7.617099 90.636923 7.630651 90.720000 7.644624 90.803077 7.659018 90.886154 7.673829 90.969231 7.689055 91.052308 7.704694 91.135385 7.720744 91.218462 7.737201 91.301538 7.754065 91.384615 7.771333 91.467692 7.789002 91.550769 7.807069 91.633846 7.825534 91.716923 7.844393 91.800000 7.863645 91.883077 7.883286 91.966154 7.903315 92.049231 7.923730 92.132308 7.944527 92.215385 7.965705 92.298462 7.987262 92.381538 8.009194 92.464615 8.031501 92.547692 8.054179 92.630769 8.077226 92.713846 8.100641 92.796923 8.124420 92.880000 8.148561 92.963077 8.173063 93.046154 8.197922 93.129231 8.223137 93.212308 8.248705 93.295385 8.274624 93.378462 8.300892 93.461538 8.327506 93.544615 8.354464 93.627692 8.381763 93.710769 8.409403 93.793846 8.437379 93.876923 8.465690 93.960000 8.494334 94.043077 8.523308 94.126154 8.552610 94.209231 8.582238 94.292308 8.612189 94.375385 8.642461 94.458462 8.673053 94.541538 8.703960 94.624615 8.735182 94.707692 8.766716 94.790769 8.798559 94.873846 8.830710 94.956923 8.863166 95.040000 8.895924 95.123077 8.928984 95.206154 8.962341 95.289231 8.995994 95.372308 9.029940 95.455385 9.064178 95.538462 9.098705 95.621538 9.133519 95.704615 9.168617 95.787692 9.203997 95.870769 9.239657 95.953846 9.275595 96.036923 9.311808 96.120000 9.348293 96.203077 9.385050 96.286154 9.422074 96.369231 9.459365 96.452308 9.496920 96.535385 9.534736 96.618462 9.572811 96.701538 9.611143 96.784615 9.649730 96.867692 9.688569 96.950769 9.727658 97.033846 9.766994 97.116923 9.806576 97.200000 9.846402 97.283077 9.886468 97.366154 9.926772 97.449231 9.967313 97.532308 10.008088 97.615385 10.049094 97.698462 10.090330 97.781538 10.131793 97.864615 10.173481 97.947692 10.215391 98.030769 10.257521 98.113846 10.299869 98.196923 10.342433 98.280000 10.385210 98.363077 10.428198 98.446154 10.471395 98.529231 10.514799 98.612308 10.558406 98.695385 10.602215 98.778462 10.646224 98.861538 10.690430 98.944615 10.734831 99.027692 10.779425 99.110769 10.824209 99.193846 10.869181 99.276923 10.914339 99.360000 10.959680 99.443077 11.005203 99.526154 11.050904 99.609231 11.096782 99.692308 11.142835 99.775385 11.189059 99.858462 11.235453 99.941538 11.282015 100.024615 11.328742 100.107692 11.375631 100.190769 11.422681 100.273846 11.469890 100.356923 11.517254 100.440000 11.564772 100.523077 11.612442 100.606154 11.660260 100.689231 11.708225 100.772308 11.756335 100.855385 11.804587 100.938462 11.852979 101.021538 11.901508 101.104615 11.950173 101.187692 11.998971 101.270769 12.047900 101.353846 12.096957 101.436923 12.146140 101.520000 12.195447 101.603077 12.244876 101.686154 12.294424 101.769231 12.344088 101.852308 12.393868 101.935385 12.443760 102.018462 12.493762 102.101538 12.543872 102.184615 12.594087 102.267692 12.644406 102.350769 12.694825 102.433846 12.745343 102.516923 12.795958 102.600000 12.846666 102.683077 12.897466 102.766154 12.948356 102.849231 12.999333 102.932308 13.050394 103.015385 13.101539 103.098462 13.152763 103.181538 13.204066 103.264615 13.255444 103.347692 13.306895 103.430769 13.358418 103.513846 13.410010 103.596923 13.461668 103.680000 13.513390 103.763077 13.565174 103.846154 13.617018 103.929231 13.668919 104.012308 13.720875 104.095385 13.772884 104.178462 13.824944 104.261538 13.877051 104.344615 13.929205 104.427692 13.981402 104.510769 14.033640 104.593846 14.085917 104.676923 14.138231 104.760000 14.190580 104.843077 14.242960 104.926154 14.295370 105.009231 14.347808 105.092308 14.400271 105.175385 14.452757 105.258462 14.505264 105.341538 14.557789 105.424615 14.610330 105.507692 14.662885 105.590769 14.715451 105.673846 14.768027 105.756923 14.820609 105.840000 14.873196 105.923077 14.925785" class="line reactive nofill" /></g></g><g class="titles" /><g transform="translate(82, 10)" class="plot overlay"><g class="series serie-0 color-0" /></g><g transform="translate(82, 10)" class="plot text-overlay"><g class="series serie-0 color-0" /></g><g transform="translate(82, 10)" class="plot tooltip-overlay"><g transform="translate(0 0)" style="opacity: 0" class="tooltip"><rect rx="0" ry="0" width="0" height="0" class="tooltip-box" /><g class="text" /></g></g></g></svg>