<?xml version='1.0' encoding='utf-8'?>
<svg xmlns="http://www.w3.org/2000/svg" id="chart-07bc26f7-8eb4-47d9-a29f-84d24e4cc255" class="pygal-chart pygal-sparkline" viewBox="0 0 200 50" width="200" height="50"><!--Generated with pygal 3.0.4 (etree) ©Kozea 2012-2016 on 2024-05-26--><!--http://pygal.org--><!--http://github.com/Kozea/pygal--><defs><style type="text/css">#chart-07bc26f7-8eb4-47d9-a29f-84d24e4cc255{-webkit-user-select:none;-webkit-font-smoothing:antialiased;font-family:Consolas,"Liberation Mono",Menlo,Courier,monospace}#chart-07bc26f7-8eb4-47d9-a29f-84d24e4cc255 .title{font-family:Consolas,"Liberation Mono",Menlo,Courier,monospace;font-size:16px}#chart-07bc26f7-8eb4-47d9-a29f-84d24e4cc255 .legends .legend text{font-family:Consolas,"Liberation Mono",Menlo,Courier,monospace;font-size:14px}#chart-07bc26f7-8eb4-47d9-a29f-84d24e4cc255 .axis text{font-family:Consolas,"Liberation Mono",Menlo,Courier,monospace;font-size:10px}#chart-07bc26f7-8eb4-47d9-a29f-84d24e4cc255 .axis text.major{font-family:Consolas,"Liberation Mono",Menlo,Courier,monospace;font-size:10px}#chart-07bc26f7-8eb4-47d9-a29f-84d24e4cc255 .text-overlay text.value{font-family:Consolas,"Liberation Mono",Menlo,Courier,monospace;font-size:16px}#chart-07bc26f7-8eb4-47d9-a29f-84d24e4cc255 .text-overlay text.label{font-family:Consolas,"Liberation Mono",Menlo,Courier,monospace;font-size:10px}#chart-07bc26f7-8eb4-47d9-a29f-84d24e4cc255 .tooltip{font-family:Consolas,"Liberation Mono",Menlo,Courier,monospace;font-size:14px}#chart-07bc26f7-8eb4-47d9-a29f-84d24e4cc255 text.no_data{font-family:Consolas,"Liberation Mono",Menlo,Courier,monospace;font-size:64px}
#chart-07bc26f7-8eb4-47d9-a29f-84d24e4cc255{background-color:rgba(249,249,249,1)}#chart-07bc26f7-8eb4-47d9-a29f-84d24e4cc255 path,#chart-07bc26f7-8eb4-47d9-a29f-84d24e4cc255 line,#chart-07bc26f7-8eb4-47d9-a29f-84d24e4cc255 rect,#chart-07bc26f7-8eb4-47d9-a29f-84d24e4cc255 circle{-webkit-transition:150ms;-moz-transition:150ms;transition:150ms}#chart-07bc26f7-8eb4-47d9-a29f-84d24e4cc255 .graph &gt; .background{fill:rgba(249,249,249,1)}#chart-07bc26f7-8eb4-47d9-a29f-84d24e4cc255 .plot &gt; .background{fill:rgba(255,255,255,1)}#chart-07bc26f7-8eb4-47d9-a29f-84d24e4cc255 .graph{fill:rgba(0,0,0,.87)}#chart-07bc26f7-8eb4-47d9-a29f-84d24e4cc255 text.no_data{fill:rgba(0,0,0,1)}#chart-07bc26f7-8eb4-47d9-a29f-84d24e4cc255 .title{fill:rgba(0,0,0,1)}#chart-07bc26f7-8eb4-47d9-a29f-84d24e4cc255 .legends .legend text{fill:rgba(0,0,0,.87)}#chart-07bc26f7-8eb4-47d9-a29f-84d24e4cc255 .legends .legend:hover text{fill:rgba(0,0,0,1)}#chart-07bc26f7-8eb4-47d9-a29f-84d24e4cc255 .axis .line{stroke:rgba(0,0,0,1)}#chart-07bc26f7-8eb4-47d9-a29f-84d24e4cc255 .axis .guide.line{stroke:rgba(0,0,0,.54)}#chart-07bc26f7-8eb4-47d9-a29f-84d24e4cc255 .axis .major.line{stroke:rgba(0,0,0,.87)}#chart-07bc26f7-8eb4-47d9-a29f-84d24e4cc255 .axis text.major{fill:rgba(0,0,0,1)}#chart-07bc26f7-8eb4-47d9-a29f-84d24e4cc255 .axis.y .guides:hover .guide.line,#chart-07bc26f7-8eb4-47d9-a29f-84d24e4cc255 .line-graph .axis.x .guides:hover .guide.line,#chart-07bc26f7-8eb4-47d9-a29f-84d24e4cc255 .stackedline-graph .axis.x .guides:hover .guide.line,#chart-07bc26f7-8eb4-47d9-a29f-84d24e4cc255 .xy-graph .axis.x .guides:hover .guide.line{stroke:rgba(0,0,0,1)}#chart-07bc26f7-8eb4-47d9-a29f-84d24e4cc255 .axis .guides:hover text{fill:rgba(0,0,0,1)}#chart-07bc26f7-8eb4-47d9-a29f-84d24e4cc255 .reactive{fill-opacity:.7;stroke-opacity:.8;stroke-width:1}#chart-07bc26f7-8eb4-47d9-a29f-84d24e4cc255 .ci{stroke:rgba(0,0,0,.87)}#chart-07bc26f7-8eb4-47d9-a29f-84d24e4cc255 .reactive.active,#chart-07bc26f7-8eb4-47d9-a29f-84d24e4cc255 .active .reactive{fill-opacity:.8;stroke-opacity:.9;stroke-width:4}#chart-07bc26f7-8eb4-47d9-a29f-84d24e4cc255 .ci .reactive.active{stroke-width:1.5}#chart-07bc26f7-8eb4-47d9-a29f-84d24e4cc255 .series text{fill:rgba(0,0,0,1)}#chart-07bc26f7-8eb4-47d9-a29f-84d24e4cc255 .tooltip rect{fill:rgba(255,255,255,1);stroke:rgba(0,0,0,1);-webkit-transition:opacity 150ms;-moz-transition:opacity 150ms;transition:opacity 150ms}#chart-07bc26f7-8eb4-47d9-a29f-84d24e4cc255 .tooltip .label{fill:rgba(0,0,0,.87)}#chart-07bc26f7-8eb4-47d9-a29f-84d24e4cc255 .tooltip .label{fill:rgba(0,0,0,.87)}#chart-07bc26f7-8eb4-47d9-a29f-84d24e4cc255 .tooltip .legend{font-size:.8em;fill:rgba(0,0,0,.54)}#chart-07bc26f7-8eb4-47d9-a29f-84d24e4cc255 .tooltip .x_label{font-size:.6em;fill:rgba(0,0,0,1)}#chart-07bc26f7-8eb4-47d9-a29f-84d24e4cc255 .tooltip .xlink{font-size:.5em;text-decoration:underline}#chart-07bc26f7-8eb4-47d9-a29f-84d24e4cc255 .tooltip .value{font-size:1.5em}#chart-07bc26f7-8eb4-47d9-a29f-84d24e4cc255 .bound{font-size:.5em}#chart-07bc26f7-8eb4-47d9-a29f-84d24e4cc255 .max-value{font-size:.75em;fill:rgba(0,0,0,.54)}#chart-07bc26f7-8eb4-47d9-a29f-84d24e4cc255 .map-element{fill:rgba(255,255,255,1);stroke:rgba(0,0,0,.54) !important}#chart-07bc26f7-8eb4-47d9-a29f-84d24e4cc255 .map-element .reactive{fill-opacity:inherit;stroke-opacity:inherit}#chart-07bc26f7-8eb4-47d9-a29f-84d24e4cc255 .color-0,#chart-07bc26f7-8eb4-47d9-a29f-84d24e4cc255 .color-0 a:visited{stroke:#F44336;fill:#F44336}#chart-07bc26f7-8eb4-47d9-a29f-84d24e4cc255 .text-overlay .color-0 text{fill:black}
#chart-07bc26f7-8eb4-47d9-a29f-84d24e4cc255 text.no_data{text-anchor:middle}#chart-07bc26f7-8eb4-47d9-a29f-84d24e4cc255 .guide.line{fill:none}#chart-07bc26f7-8eb4-47d9-a29f-84d24e4cc255 .centered{text-anchor:middle}#chart-07bc26f7-8eb4-47d9-a29f-84d24e4cc255 .title{text-anchor:middle}#chart-07bc26f7-8eb4-47d9-a29f-84d24e4cc255 .legends .legend text{fill-opacity:1}#chart-07bc26f7-8eb4-47d9-a29f-84d24e4cc255 .axis.x text{text-anchor:middle}#chart-07bc26f7-8eb4-47d9-a29f-84d24e4cc255 .axis.x:not(.web) text[transform]{text-anchor:start}#chart-07bc26f7-8eb4-47d9-a29f-84d24e4cc255 .axis.x:not(.web) text[transform].backwards{text-anchor:end}#chart-07bc26f7-8eb4-47d9-a29f-84d24e4cc255 .axis.y text{text-anchor:end}#chart-07bc26f7-8eb4-47d9-a29f-84d24e4cc255 .axis.y text[transform].backwards{text-anchor:start}#chart-07bc26f7-8eb4-47d9-a29f-84d24e4cc255 .axis.y2 text{text-anchor:start}#chart-07bc26f7-8eb4-47d9-a29f-84d24e4cc255 .axis.y2 text[transform].backwards{text-anchor:end}#chart-07bc26f7-8eb4-47d9-a29f-84d24e4cc255 .axis .guide.line{stroke-dasharray:4,4;stroke:black}#chart-07bc26f7-8eb4-47d9-a29f-84d24e4cc255 .axis .major.guide.line{stroke-dasharray:6,6;stroke:black}#chart-07bc26f7-8eb4-47d9-a29f-84d24e4cc255 .horizontal .axis.y .guide.line,#chart-07bc26f7-8eb4-47d9-a29f-84d24e4cc255 .horizontal .axis.y2 .guide.line,#chart-07bc26f7-8eb4-47d9-a29f-84d24e4cc255 .vertical .axis.x .guide.line{opacity:0}#chart-07bc26f7-8eb4-47d9-a29f-84d24e4cc255 .horizontal .axis.always_show .guide.line,#chart-07bc26f7-8eb4-47d9-a29f-84d24e4cc255 .vertical .axis.always_show .guide.line{opacity:1 !important}#chart-07bc26f7-8eb4-47d9-a29f-84d24e4cc255 .axis.y .guides:hover .guide.line,#chart-07bc26f7-8eb4-47d9-a29f-84d24e4cc255 .axis.y2 .guides:hover .guide.line,#chart-07bc26f7-8eb4-47d9-a29f-84d24e4cc255 .axis.x .guides:hover .guide.line{opacity:1}#chart-07bc26f7-8eb4-47d9-a29f-84d24e4cc255 .axis .guides:hover text{opacity:1}#chart-07bc26f7-8eb4-47d9-a29f-84d24e4cc255 .nofill{fill:none}#chart-07bc26f7-8eb4-47d9-a29f-84d24e4cc255 .subtle-fill{fill-opacity:.2}#chart-07bc26f7-8eb4-47d9-a29f-84d24e4cc255 .dot{stroke-width:1px;fill-opacity:1;stroke-opacity:1}#chart-07bc26f7-8eb4-47d9-a29f-84d24e4cc255 .dot.active{stroke-width:5px}#chart-07bc26f7-8eb4-47d9-a29f-84d24e4cc255 .dot.negative{fill:transparent}#chart-07bc26f7-8eb4-47d9-a29f-84d24e4cc255 text,#chart-07bc26f7-8eb4-47d9-a29f-84d24e4cc255 tspan{stroke:none !important}#chart-07bc26f7-8eb4-47d9-a29f-84d24e4cc255 .series text.active{opacity:1}#chart-07bc26f7-8eb4-47d9-a29f-84d24e4cc255 .tooltip rect{fill-opacity:.95;stroke-width:.5}#chart-07bc26f7-8eb4-47d9-a29f-84d24e4cc255 .tooltip text{fill-opacity:1}#chart-07bc26f7-8eb4-47d9-a29f-84d24e4cc255 .showable{visibility:hidden}#chart-07bc26f7-8eb4-47d9-a29f-84d24e4cc255 .showable.shown{visibility:visible}#chart-07bc26f7-8eb4-47d9-a29f-84d24e4cc255 .gauge-background{fill:rgba(229,229,229,1);stroke:none}#chart-07bc26f7-8eb4-47d9-a29f-84d24e4cc255 .bg-lines{stroke:rgba(249,249,249,1);stroke-width:2px}</style><script type="text/javascript">window.pygal = window.pygal || {};window.pygal.config = window.pygal.config || {};window.pygal.config['07bc26f7-8eb4-47d9-a29f-84d24e4cc255'] = {"allow_interruptions": false, "box_mode": "extremes", "classes": ["pygal-chart", "pygal-sparkline"], "css": ["file://style.css", "file://graph.css"], "defs": [], "disable_xml_declaration": false, "dots_size": 2.5, "dynamic_print_values": false, "explicit_size": true, "fill": false, "force_uri_protocol": "https", "formatter": null, "half_pie": false, "height": 50, "include_x_axis": false, "inner_radius": 0, "interpolate": "cubic", "interpolation_parameters": {}, "interpolation_precision": 250, "inverse_y_axis": false, "js": [], "legend_at_bottom": false, "legend_at_bottom_columns": null, "legend_box_size": 12, "logarithmic": false, "margin": 10, "margin_bottom": null, "margin_left": null, "margin_right": null, "margin_top": null, "max_scale": 2, "min_scale": 1, "missing_value_fill_truncation": "x", "no_data_text": "", "no_prefix": false, "order_min": null, "pretty_print": false, "print_labels": false, "print_values": false, "print_values_position": "center", "print_zeroes": true, "range": null, "rounded_bars": null, "secondary_range": null, "show_dots": false, "show_legend": false, "show_minor_x_labels": true, "show_minor_y_labels": true, "show_only_major_dots": false, "show_x_guides": false, "show_x_labels": false, "show_y_guides": true, "show_y_labels": true, "spacing": 0, "stack_from_top": false, "strict": false, "stroke": true, "stroke_style": null, "style": {"background": "rgba(249, 249, 249, 1)", "ci_colors": [], "colors": ["#F44336", "#3F51B5", "#009688", "#FFC107", "#FF5722", "#9C27B0", "#03A9F4", "#8BC34A", "#FF9800", "#E91E63", "#2196F3", "#4CAF50", "#FFEB3B", "#673AB7", "#00BCD4", "#CDDC39", "#9E9E9E", "#607D8B"], "dot_opacity": "1", "font_family": "Consolas, \"Liberation Mono\", Menlo, Courier, monospace", "foreground": "rgba(0, 0, 0, .87)", "foreground_strong": "rgba(0, 0, 0, 1)", "foreground_subtle": "rgba(0, 0, 0, .54)", "guide_stroke_color": "black", "guide_stroke_dasharray": "4,4", "label_font_family": "Consolas, \"Liberation Mono\", Menlo, Courier, monospace", "label_font_size": 10, "legend_font_family": "Consolas, \"Liberation Mono\", Menlo, Courier, monospace", "legend_font_size": 14, "major_guide_stroke_color": "black", "major_guide_stroke_dasharray": "6,6", "major_label_font_family": "Consolas, \"Liberation Mono\", Menlo, Courier, monospace", "major_label_font_size": 10, "no_data_font_family": "Consolas, \"Liberation Mono\", Menlo, Courier, monospace", "no_data_font_size": 64, "opacity": ".7", "opacity_hover": ".8", "plot_background": "rgba(255, 255, 255, 1)", "stroke_opacity": ".8", "stroke_opacity_hover": ".9", "stroke_width": "1", "stroke_width_hover": "4", "title_font_family": "Consolas, \"Liberation Mono\", Menlo, Courier, monospace", "title_font_size": 16, "tooltip_font_family": "Consolas, \"Liberation Mono\", Menlo, Courier, monospace", "tooltip_font_size": 14, "transition": "150ms", "value_background": "rgba(229, 229, 229, 1)", "value_colors": [], "value_font_family": "Consolas, \"Liberation Mono\", Menlo, Courier, monospace", "value_font_size": 16, "value_label_font_family": "Consolas, \"Liberation Mono\", Menlo, Courier, monospace", "value_label_font_size": 10}, "title": null, "tooltip_border_radius": 0, "tooltip_fancy_mode": true, "truncate_label": null, "truncate_legend": null, "width": 200, "x_label_rotation": 0, "x_labels": ["2024/5", "2024/4", "2024/2", "2024/1", "2023/12", "2023/11"], "x_labels_major": null, "x_labels_major_count": null, "x_labels_major_every": null, "x_title": null, "xrange": null, "y_label_rotation": 0, "y_labels": null, "y_labels_major": null, "y_labels_major_count": null, "y_labels_major_every": null, "y_title": null, "zero": 0, "legends": [""]}</script></defs><title>Pygal</title><g class="graph line-graph vertical"><rect x="0" y="0" width="200" height="50" class="background" /><g transform="translate(82, 10)" class="plot"><rect x="0" y="0" width="108.0" height="30" class="background" /><g class="axis y always_show"><path d="M0.000000 30.000000 h108.000000" class="line" /><g class="guides"><path d="M0.000000 29.423077 h108.000000" class="guide line" /><text x="-5" y="32.92307692307692" class="">0.9969327605</text><title>0.9969327605</title></g><g class="guides"><path d="M0.000000 0.576923 h108.000000" class="guide line" /><text x="-5" y="4.076923076923077" class="">11</text><title>11</title></g></g><g class="series serie-0 color-0"><path d="M2.076923 26.530501 L2.160000 26.506162 2.243077 26.481824 2.326154 26.457489 2.409231 26.433157 2.492308 26.408830 2.575385 26.384510 2.658462 26.360197 2.741538 26.335892 2.824615 26.311597 2.907692 26.287313 2.990769 26.263042 3.073846 26.238784 3.156923 26.214541 3.240000 26.190314 3.323077 26.166104 3.406154 26.141912 3.489231 26.117740 3.572308 26.093589 3.655385 26.069461 3.738462 26.045355 3.821538 26.021274 3.904615 25.997219 3.987692 25.973191 4.070769 25.949191 4.153846 25.925221 4.236923 25.901281 4.320000 25.877374 4.403077 25.853500 4.486154 25.829660 4.569231 25.805855 4.652308 25.782088 4.735385 25.758358 4.818462 25.734668 4.901538 25.711019 4.984615 25.687411 5.067692 25.663847 5.150769 25.640326 5.233846 25.616851 5.316923 25.593423 5.400000 25.570043 5.483077 25.546712 5.566154 25.523431 5.649231 25.500202 5.732308 25.477026 5.815385 25.453904 5.898462 25.430837 5.981538 25.407827 6.064615 25.384874 6.147692 25.361981 6.230769 25.339148 6.313846 25.316376 6.396923 25.293667 6.480000 25.271022 6.563077 25.248441 6.646154 25.225928 6.729231 25.203482 6.812308 25.181105 6.895385 25.158797 6.978462 25.136562 7.061538 25.114398 7.144615 25.092309 7.227692 25.070294 7.310769 25.048356 7.393846 25.026495 7.476923 25.004712 7.560000 24.983010 7.643077 24.961389 7.726154 24.939850 7.809231 24.918395 7.892308 24.897024 7.975385 24.875740 8.058462 24.854543 8.141538 24.833434 8.224615 24.812415 8.307692 24.791487 8.390769 24.770651 8.473846 24.749909 8.556923 24.729261 8.640000 24.708709 8.723077 24.688255 8.806154 24.667898 8.889231 24.647641 8.972308 24.627485 9.055385 24.607431 9.138462 24.587481 9.221538 24.567634 9.304615 24.547894 9.387692 24.528260 9.470769 24.508735 9.553846 24.489319 9.636923 24.470013 9.720000 24.450820 9.803077 24.431739 9.886154 24.412773 9.969231 24.393923 10.052308 24.375189 10.135385 24.356573 10.218462 24.338077 10.301538 24.319700 10.384615 24.301446 10.467692 24.283314 10.550769 24.265307 10.633846 24.247425 10.716923 24.229670 10.800000 24.212042 10.883077 24.194544 10.966154 24.177176 11.049231 24.159939 11.132308 24.142835 11.215385 24.125865 11.298462 24.109031 11.381538 24.092332 11.464615 24.075772 11.547692 24.059350 11.630769 24.043069 11.713846 24.026928 11.796923 24.010931 11.880000 23.995077 11.963077 23.979368 12.046154 23.963806 12.129231 23.948391 12.212308 23.933125 12.295385 23.918008 12.378462 23.903043 12.461538 23.888231 12.544615 23.873572 12.627692 23.859068 12.710769 23.844720 12.793846 23.830529 12.876923 23.816497 12.960000 23.802625 13.043077 23.788914 13.126154 23.775365 13.209231 23.761979 13.292308 23.748758 13.375385 23.735703 13.458462 23.722816 13.541538 23.710096 13.624615 23.697547 13.707692 23.685168 13.790769 23.672961 13.873846 23.660928 13.956923 23.649069 14.040000 23.637386 14.123077 23.625880 14.206154 23.614552 14.289231 23.603404 14.372308 23.592436 14.455385 23.581651 14.538462 23.571048 14.621538 23.560630 14.704615 23.550397 14.787692 23.540352 14.870769 23.530494 14.953846 23.520825 15.036923 23.511348 15.120000 23.502062 15.203077 23.492968 15.286154 23.484070 15.369231 23.475366 15.452308 23.466859 15.535385 23.458551 15.618462 23.450441 15.701538 23.442532 15.784615 23.434824 15.867692 23.427319 15.950769 23.420018 16.033846 23.412922 16.116923 23.406033 16.200000 23.399352 16.283077 23.392879 16.366154 23.386617 16.449231 23.380566 16.532308 23.374728 16.615385 23.369104 16.698462 23.363695 16.781538 23.358502 16.864615 23.353527 16.947692 23.348770 17.030769 23.344234 17.113846 23.339919 17.196923 23.335826 17.280000 23.331957 17.363077 23.328313 17.446154 23.324896 17.529231 23.321705 17.612308 23.318743 17.695385 23.316012 17.778462 23.313511 17.861538 23.311242 17.944615 23.309207 18.027692 23.307407 18.110769 23.305843 18.193846 23.304516 18.276923 23.303428 18.360000 23.302579 18.443077 23.301971 18.526154 23.301605 18.609231 23.301483 18.692308 23.301605 18.775385 23.301974 18.858462 23.302589 18.941538 23.303452 19.024615 23.304565 19.107692 23.305929 19.190769 23.307545 19.273846 23.309414 19.356923 23.311538 19.440000 23.313917 19.523077 23.316553 19.606154 23.319447 19.689231 23.322601 19.772308 23.326015 19.855385 23.329691 19.938462 23.333630 20.021538 23.337833 20.104615 23.342302 20.187692 23.347038 20.270769 23.352041 20.353846 23.357314 20.436923 23.362857 20.520000 23.368672 20.603077 23.374760 20.686154 23.381121 20.769231 23.387759 20.852308 23.394672 20.935385 23.401864 21.018462 23.409334 21.101538 23.417085 21.184615 23.425118 21.267692 23.433433 21.350769 23.442032 21.433846 23.450916 21.516923 23.460086 21.600000 23.469545 21.683077 23.479292 21.766154 23.489329 21.849231 23.499657 21.932308 23.510278 22.015385 23.521193 22.098462 23.532403 22.181538 23.543909 22.264615 23.555713 22.347692 23.567815 22.430769 23.580217 22.513846 23.592921 22.596923 23.605926 22.680000 23.619236 22.763077 23.632850 22.846154 23.646770 22.929231 23.660997 23.012308 23.675528 23.095385 23.690361 23.178462 23.705493 23.261538 23.720921 23.344615 23.736642 23.427692 23.752654 23.510769 23.768952 23.593846 23.785536 23.676923 23.802402 23.760000 23.819546 23.843077 23.836967 23.926154 23.854661 24.009231 23.872626 24.092308 23.890859 24.175385 23.909356 24.258462 23.928116 24.341538 23.947135 24.424615 23.966411 24.507692 23.985940 24.590769 24.005720 24.673846 24.025747 24.756923 24.046021 24.840000 24.066536 24.923077 24.087291 25.006154 24.108283 25.089231 24.129508 25.172308 24.150965 25.255385 24.172650 25.338462 24.194560 25.421538 24.216693 25.504615 24.239045 25.587692 24.261615 25.670769 24.284399 25.753846 24.307393 25.836923 24.330597 25.920000 24.354006 26.003077 24.377618 26.086154 24.401430 26.169231 24.425439 26.252308 24.449642 26.335385 24.474037 26.418462 24.498620 26.501538 24.523390 26.584615 24.548342 26.667692 24.573475 26.750769 24.598785 26.833846 24.624270 26.916923 24.649926 27.000000 24.675751 27.083077 24.701743 27.166154 24.727898 27.249231 24.754213 27.332308 24.780686 27.415385 24.807313 27.498462 24.834093 27.581538 24.861022 27.664615 24.888097 27.747692 24.915315 27.830769 24.942675 27.913846 24.970172 27.996923 24.997804 28.080000 25.025568 28.163077 25.053462 28.246154 25.081483 28.329231 25.109627 28.412308 25.137892 28.495385 25.166275 28.578462 25.194773 28.661538 25.223384 28.744615 25.252105 28.827692 25.280932 28.910769 25.309863 28.993846 25.338896 29.076923 25.368026 29.160000 25.397252 29.243077 25.426571 29.326154 25.455980 29.409231 25.485476 29.492308 25.515056 29.575385 25.544717 29.658462 25.574457 29.741538 25.604273 29.824615 25.634161 29.907692 25.664120 29.990769 25.694146 30.073846 25.724236 30.156923 25.754388 30.240000 25.784599 30.323077 25.814866 30.406154 25.845186 30.489231 25.875556 30.572308 25.905974 30.655385 25.936436 30.738462 25.966940 30.821538 25.997483 30.904615 26.028063 30.987692 26.058676 31.070769 26.089319 31.153846 26.119990 31.236923 26.150686 31.320000 26.181404 31.403077 26.212141 31.486154 26.242895 31.569231 26.273663 31.652308 26.304441 31.735385 26.335227 31.818462 26.366018 31.901538 26.396812 31.984615 26.427605 32.067692 26.458394 32.150769 26.489178 32.233846 26.519952 32.316923 26.550715 32.400000 26.581463 32.483077 26.612194 32.566154 26.642904 32.649231 26.673591 32.732308 26.704253 32.815385 26.734885 32.898462 26.765486 32.981538 26.796053 33.064615 26.826582 33.147692 26.857071 33.230769 26.887518 33.313846 26.917919 33.396923 26.948271 33.480000 26.978572 33.563077 27.008818 33.646154 27.039008 33.729231 27.069138 33.812308 27.099205 33.895385 27.129207 33.978462 27.159140 34.061538 27.189003 34.144615 27.218791 34.227692 27.248503 34.310769 27.278135 34.393846 27.307685 34.476923 27.337149 34.560000 27.366525 34.643077 27.395811 34.726154 27.425003 34.809231 27.454098 34.892308 27.483094 34.975385 27.511988 35.058462 27.540776 35.141538 27.569457 35.224615 27.598027 35.307692 27.626484 35.390769 27.654825 35.473846 27.683046 35.556923 27.711145 35.640000 27.739120 35.723077 27.766967 35.806154 27.794684 35.889231 27.822267 35.972308 27.849714 36.055385 27.877023 36.138462 27.904190 36.221538 27.931212 36.304615 27.958087 36.387692 27.984811 36.470769 28.011383 36.553846 28.037799 36.636923 28.064056 36.720000 28.090151 36.803077 28.116083 36.886154 28.141847 36.969231 28.167441 37.052308 28.192863 37.135385 28.218108 37.218462 28.243176 37.301538 28.268062 37.384615 28.292764 37.467692 28.317279 37.550769 28.341605 37.633846 28.365738 37.716923 28.389675 37.800000 28.413415 37.883077 28.436953 37.966154 28.460287 38.049231 28.483415 38.132308 28.506334 38.215385 28.529040 38.298462 28.551531 38.381538 28.573804 38.464615 28.595856 38.547692 28.617684 38.630769 28.639286 38.713846 28.660659 38.796923 28.681800 38.880000 28.702706 38.963077 28.723374 39.046154 28.743801 39.129231 28.763986 39.212308 28.783924 39.295385 28.803613 39.378462 28.823050 39.461538 28.842232 39.544615 28.861157 39.627692 28.879822 39.710769 28.898223 39.793846 28.916359 39.876923 28.934225 39.960000 28.951820 40.043077 28.969141 40.126154 28.986184 40.209231 29.002948 40.292308 29.019428 40.375385 29.035623 40.458462 29.051529 40.541538 29.067143 40.624615 29.082464 40.707692 29.097487 40.790769 29.112211 40.873846 29.126632 40.956923 29.140747 41.040000 29.154554 41.123077 29.168050 41.206154 29.181232 41.289231 29.194097 41.372308 29.206642 41.455385 29.218865 41.538462 29.230763 41.621538 29.242333 41.704615 29.253571 41.787692 29.264476 41.870769 29.275045 41.953846 29.285274 42.036923 29.295161 42.120000 29.304702 42.203077 29.313896 42.286154 29.322739 42.369231 29.331229 42.452308 29.339362 42.535385 29.347137 42.618462 29.354549 42.701538 29.361596 42.784615 29.368276 42.867692 29.374585 42.950769 29.380521 43.033846 29.386081 43.116923 29.391262 43.200000 29.396061 43.283077 29.400476 43.366154 29.404503 43.449231 29.408140 43.532308 29.411384 43.615385 29.414232 43.698462 29.416682 43.781538 29.418734 43.864615 29.420391 43.947692 29.421652 44.030769 29.422519 44.113846 29.422994 44.196923 29.423077 44.280000 29.422770 44.363077 29.422074 44.446154 29.420990 44.529231 29.419519 44.612308 29.417663 44.695385 29.415423 44.778462 29.412800 44.861538 29.409795 44.944615 29.406410 45.027692 29.402645 45.110769 29.398502 45.193846 29.393982 45.276923 29.389086 45.360000 29.383816 45.443077 29.378172 45.526154 29.372156 45.609231 29.365770 45.692308 29.359013 45.775385 29.351888 45.858462 29.344396 45.941538 29.336538 46.024615 29.328315 46.107692 29.319728 46.190769 29.310779 46.273846 29.301468 46.356923 29.291798 46.440000 29.281768 46.523077 29.271381 46.606154 29.260638 46.689231 29.249539 46.772308 29.238087 46.855385 29.226281 46.938462 29.214124 47.021538 29.201617 47.104615 29.188760 47.187692 29.175556 47.270769 29.162004 47.353846 29.148108 47.436923 29.133866 47.520000 29.119282 47.603077 29.104356 47.686154 29.089089 47.769231 29.073482 47.852308 29.057538 47.935385 29.041256 48.018462 29.024638 48.101538 29.007686 48.184615 28.990400 48.267692 28.972782 48.350769 28.954833 48.433846 28.936554 48.516923 28.917946 48.600000 28.899011 48.683077 28.879750 48.766154 28.860163 48.849231 28.840253 48.932308 28.820020 49.015385 28.799466 49.098462 28.778592 49.181538 28.757399 49.264615 28.735888 49.347692 28.714060 49.430769 28.691917 49.513846 28.669460 49.596923 28.646690 49.680000 28.623609 49.763077 28.600216 49.846154 28.576515 49.929231 28.552505 50.012308 28.528189 50.095385 28.503567 50.178462 28.478640 50.261538 28.453410 50.344615 28.427878 50.427692 28.402045 50.510769 28.375913 50.593846 28.349482 50.676923 28.322754 50.760000 28.295729 50.843077 28.268411 50.926154 28.240798 51.009231 28.212893 51.092308 28.184697 51.175385 28.156211 51.258462 28.127436 51.341538 28.098373 51.424615 28.069025 51.507692 28.039391 51.590769 28.009473 51.673846 27.979272 51.756923 27.948790 51.840000 27.918027 51.923077 27.886986 52.006154 27.855666 52.089231 27.824070 52.172308 27.792199 52.255385 27.760053 52.338462 27.727634 52.421538 27.694943 52.504615 27.661981 52.587692 27.628750 52.670769 27.595251 52.753846 27.561485 52.836923 27.527453 52.920000 27.493157 53.003077 27.458596 53.086154 27.423774 53.169231 27.388691 53.252308 27.353348 53.335385 27.317747 53.418462 27.281888 53.501538 27.245773 53.584615 27.209403 53.667692 27.172779 53.750769 27.135903 53.833846 27.098775 53.916923 27.061397 54.000000 27.023771 54.083077 26.985896 54.166154 26.947776 54.249231 26.909410 54.332308 26.870799 54.415385 26.831946 54.498462 26.792852 54.581538 26.753517 54.664615 26.713942 54.747692 26.674130 54.830769 26.634081 54.913846 26.593796 54.996923 26.553277 55.080000 26.512524 55.163077 26.471540 55.246154 26.430324 55.329231 26.388880 55.412308 26.347206 55.495385 26.305306 55.578462 26.263180 55.661538 26.220829 55.744615 26.178254 55.827692 26.135457 55.910769 26.092439 55.993846 26.049201 56.076923 26.005745 56.160000 25.962071 56.243077 25.918180 56.326154 25.874075 56.409231 25.829755 56.492308 25.785223 56.575385 25.740480 56.658462 25.695526 56.741538 25.650363 56.824615 25.604993 56.907692 25.559415 56.990769 25.513633 57.073846 25.467646 57.156923 25.421456 57.240000 25.375064 57.323077 25.328472 57.406154 25.281680 57.489231 25.234691 57.572308 25.187504 57.655385 25.140121 57.738462 25.092544 57.821538 25.044774 57.904615 24.996811 57.987692 24.948658 58.070769 24.900315 58.153846 24.851783 58.236923 24.803064 58.320000 24.754159 58.403077 24.705069 58.486154 24.655796 58.569231 24.606340 58.652308 24.556702 58.735385 24.506885 58.818462 24.456889 58.901538 24.406715 58.984615 24.356365 59.067692 24.305839 59.150769 24.255140 59.233846 24.204268 59.316923 24.153224 59.400000 24.102009 59.483077 24.050626 59.566154 23.999075 59.649231 23.947356 59.732308 23.895473 59.815385 23.843425 59.898462 23.791214 59.981538 23.738840 60.064615 23.686307 60.147692 23.633613 60.230769 23.580762 60.313846 23.527753 60.396923 23.474588 60.480000 23.421269 60.563077 23.367796 60.646154 23.314171 60.729231 23.260395 60.812308 23.206469 60.895385 23.152394 60.978462 23.098172 61.061538 23.043804 61.144615 22.989291 61.227692 22.934634 61.310769 22.879834 61.393846 22.824893 61.476923 22.769812 61.560000 22.714592 61.643077 22.659234 61.726154 22.603739 61.809231 22.548109 61.892308 22.492345 61.975385 22.436448 62.058462 22.380420 62.141538 22.324260 62.224615 22.267972 62.307692 22.211555 62.390769 22.155012 62.473846 22.098342 62.556923 22.041549 62.640000 21.984632 62.723077 21.927593 62.806154 21.870433 62.889231 21.813153 62.972308 21.755755 63.055385 21.698240 63.138462 21.640609 63.221538 21.582863 63.304615 21.525003 63.387692 21.467031 63.470769 21.408948 63.553846 21.350755 63.636923 21.292453 63.720000 21.234043 63.803077 21.175527 63.886154 21.116906 63.969231 21.058181 64.052308 20.999353 64.135385 20.940424 64.218462 20.881395 64.301538 20.822266 64.384615 20.763039 64.467692 20.703716 64.550769 20.644297 64.633846 20.584785 64.716923 20.525179 64.800000 20.465482 64.883077 20.405695 64.966154 20.345819 65.049231 20.285856 65.132308 20.225806 65.215385 20.165672 65.298462 20.105454 65.381538 20.045154 65.464615 19.984773 65.547692 19.924312 65.630769 19.863773 65.713846 19.803157 65.796923 19.742465 65.880000 19.681699 65.963077 19.620860 66.046154 19.559949 66.129231 19.498968 66.212308 19.437918 66.295385 19.376799 66.378462 19.315615 66.461538 19.254365 66.544615 19.193051 66.627692 19.131675 66.710769 19.070238 66.793846 19.008741 66.876923 18.947185 66.960000 18.885572 67.043077 18.823903 67.126154 18.762179 67.209231 18.700402 67.292308 18.638573 67.375385 18.576693 67.458462 18.514764 67.541538 18.452787 67.624615 18.390763 67.707692 18.328693 67.790769 18.266579 67.873846 18.204423 67.956923 18.142225 68.040000 18.079987 68.123077 18.017710 68.206154 17.955395 68.289231 17.893045 68.372308 17.830659 68.455385 17.768239 68.538462 17.705788 68.621538 17.643305 68.704615 17.580793 68.787692 17.518252 68.870769 17.455684 68.953846 17.393091 69.036923 17.330473 69.120000 17.267832 69.203077 17.205169 69.286154 17.142485 69.369231 17.079783 69.452308 17.017063 69.535385 16.954326 69.618462 16.891574 69.701538 16.828807 69.784615 16.766029 69.867692 16.703239 69.950769 16.640439 70.033846 16.577630 70.116923 16.514815 70.200000 16.451993 70.283077 16.389166 70.366154 16.326336 70.449231 16.263504 70.532308 16.200671 70.615385 16.137838 70.698462 16.075008 70.781538 16.012181 70.864615 15.949358 70.947692 15.886541 71.030769 15.823731 71.113846 15.760929 71.196923 15.698137 71.280000 15.635357 71.363077 15.572588 71.446154 15.509833 71.529231 15.447094 71.612308 15.384370 71.695385 15.321665 71.778462 15.258978 71.861538 15.196311 71.944615 15.133666 72.027692 15.071044 72.110769 15.008446 72.193846 14.945874 72.276923 14.883328 72.360000 14.820810 72.443077 14.758322 72.526154 14.695865 72.609231 14.633440 72.692308 14.571048 72.775385 14.508691 72.858462 14.446370 72.941538 14.384086 73.024615 14.321841 73.107692 14.259636 73.190769 14.197472 73.273846 14.135351 73.356923 14.073273 73.440000 14.011241 73.523077 13.949255 73.606154 13.887318 73.689231 13.825429 73.772308 13.763591 73.855385 13.701804 73.938462 13.640071 74.021538 13.578392 74.104615 13.516769 74.187692 13.455203 74.270769 13.393695 74.353846 13.332247 74.436923 13.270860 74.520000 13.209535 74.603077 13.148274 74.686154 13.087078 74.769231 13.025948 74.852308 12.964885 74.935385 12.903892 75.018462 12.842968 75.101538 12.782116 75.184615 12.721337 75.267692 12.660632 75.350769 12.600003 75.433846 12.539450 75.516923 12.478975 75.600000 12.418580 75.683077 12.358265 75.766154 12.298033 75.849231 12.237883 75.932308 12.177819 76.015385 12.117840 76.098462 12.057948 76.181538 11.998146 76.264615 11.938432 76.347692 11.878811 76.430769 11.819281 76.513846 11.759846 76.596923 11.700506 76.680000 11.641262 76.763077 11.582116 76.846154 11.523069 76.929231 11.464122 77.012308 11.405277 77.095385 11.346536 77.178462 11.287898 77.261538 11.229366 77.344615 11.170941 77.427692 11.112625 77.510769 11.054418 77.593846 10.996322 77.676923 10.938338 77.760000 10.880468 77.843077 10.822712 77.926154 10.765073 78.009231 10.707551 78.092308 10.650148 78.175385 10.592866 78.258462 10.535704 78.341538 10.478665 78.424615 10.421751 78.507692 10.364962 78.590769 10.308299 78.673846 10.251764 78.756923 10.195359 78.840000 10.139085 78.923077 10.082942 79.006154 10.026932 79.089231 9.971058 79.172308 9.915319 79.255385 9.859717 79.338462 9.804253 79.421538 9.748930 79.504615 9.693748 79.587692 9.638708 79.670769 9.583812 79.753846 9.529061 79.836923 9.474456 79.920000 9.419999 80.003077 9.365691 80.086154 9.311534 80.169231 9.257528 80.252308 9.203675 80.335385 9.149976 80.418462 9.096433 80.501538 9.043047 80.584615 8.989819 80.667692 8.936750 80.750769 8.883843 80.833846 8.831097 80.916923 8.778515 81.000000 8.726098 81.083077 8.673847 81.166154 8.621763 81.249231 8.569849 81.332308 8.518104 81.415385 8.466530 81.498462 8.415129 81.581538 8.363902 81.664615 8.312851 81.747692 8.261976 81.830769 8.211279 81.913846 8.160761 81.996923 8.110424 82.080000 8.060269 82.163077 8.010297 82.246154 7.960509 82.329231 7.910907 82.412308 7.861492 82.495385 7.812266 82.578462 7.763230 82.661538 7.714384 82.744615 7.665731 82.827692 7.617272 82.910769 7.569007 82.993846 7.520939 83.076923 7.473069 83.160000 7.425397 83.243077 7.377926 83.326154 7.330657 83.409231 7.283590 83.492308 7.236727 83.575385 7.190070 83.658462 7.143620 83.741538 7.097378 83.824615 7.051346 83.907692 7.005524 83.990769 6.959914 84.073846 6.914518 84.156923 6.869337 84.240000 6.824371 84.323077 6.779623 84.406154 6.735094 84.489231 6.690784 84.572308 6.646696 84.655385 6.602830 84.738462 6.559189 84.821538 6.515772 84.904615 6.472582 84.987692 6.429620 85.070769 6.386887 85.153846 6.344385 85.236923 6.302114 85.320000 6.260074 85.403077 6.218264 85.486154 6.176683 85.569231 6.135330 85.652308 6.094204 85.735385 6.053304 85.818462 6.012630 85.901538 5.972180 85.984615 5.931953 86.067692 5.891949 86.150769 5.852167 86.233846 5.812605 86.316923 5.773264 86.400000 5.734140 86.483077 5.695235 86.566154 5.656547 86.649231 5.618075 86.732308 5.579818 86.815385 5.541775 86.898462 5.503945 86.981538 5.466328 87.064615 5.428922 87.147692 5.391727 87.230769 5.354741 87.313846 5.317964 87.396923 5.281394 87.480000 5.245031 87.563077 5.208874 87.646154 5.172922 87.729231 5.137174 87.812308 5.101629 87.895385 5.066286 87.978462 5.031145 88.061538 4.996203 88.144615 4.961461 88.227692 4.926918 88.310769 4.892572 88.393846 4.858422 88.476923 4.824468 88.560000 4.790709 88.643077 4.757144 88.726154 4.723771 88.809231 4.690591 88.892308 4.657601 88.975385 4.624801 89.058462 4.592191 89.141538 4.559769 89.224615 4.527534 89.307692 4.495486 89.390769 4.463623 89.473846 4.431944 89.556923 4.400449 89.640000 4.369137 89.723077 4.338006 89.806154 4.307057 89.889231 4.276287 89.972308 4.245696 90.055385 4.215283 90.138462 4.185047 90.221538 4.154988 90.304615 4.125103 90.387692 4.095393 90.470769 4.065856 90.553846 4.036492 90.636923 4.007300 90.720000 3.978277 90.803077 3.949425 90.886154 3.920741 90.969231 3.892226 91.052308 3.863877 91.135385 3.835694 91.218462 3.807676 91.301538 3.779822 91.384615 3.752132 91.467692 3.724603 91.550769 3.697236 91.633846 3.670030 91.716923 3.642983 91.800000 3.616094 91.883077 3.589363 91.966154 3.562789 92.049231 3.536370 92.132308 3.510107 92.215385 3.483997 92.298462 3.458040 92.381538 3.432236 92.464615 3.406582 92.547692 3.381079 92.630769 3.355725 92.713846 3.330519 92.796923 3.305461 92.880000 3.280549 92.963077 3.255783 93.046154 3.231161 93.129231 3.206684 93.212308 3.182349 93.295385 3.158155 93.378462 3.134103 93.461538 3.110191 93.544615 3.086418 93.627692 3.062783 93.710769 3.039285 93.793846 3.015924 93.876923 2.992698 93.960000 2.969606 94.043077 2.946648 94.126154 2.923822 94.209231 2.901128 94.292308 2.878565 94.375385 2.856132 94.458462 2.833828 94.541538 2.811651 94.624615 2.789602 94.707692 2.767678 94.790769 2.745880 94.873846 2.724206 94.956923 2.702656 95.040000 2.681227 95.123077 2.659921 95.206154 2.638734 95.289231 2.617668 95.372308 2.596720 95.455385 2.575890 95.538462 2.555176 95.621538 2.534579 95.704615 2.514096 95.787692 2.493728 95.870769 2.473473 95.953846 2.453330 96.036923 2.433298 96.120000 2.413376 96.203077 2.393564 96.286154 2.373860 96.369231 2.354264 96.452308 2.334775 96.535385 2.315391 96.618462 2.296112 96.701538 2.276937 96.784615 2.257865 96.867692 2.238895 96.950769 2.220026 97.033846 2.201257 97.116923 2.182587 97.200000 2.164015 97.283077 2.145541 97.366154 2.127164 97.449231 2.108881 97.532308 2.090694 97.615385 2.072600 97.698462 2.054599 97.781538 2.036689 97.864615 2.018870 97.947692 2.001142 98.030769 1.983502 98.113846 1.965951 98.196923 1.948486 98.280000 1.931108 98.363077 1.913815 98.446154 1.896607 98.529231 1.879482 98.612308 1.862439 98.695385 1.845478 98.778462 1.828598 98.861538 1.811797 98.944615 1.795076 99.027692 1.778432 99.110769 1.761865 99.193846 1.745374 99.276923 1.728958 99.360000 1.712617 99.443077 1.696349 99.526154 1.680153 99.609231 1.664028 99.692308 1.647974 99.775385 1.631989 99.858462 1.616073 99.941538 1.600225 100.024615 1.584443 100.107692 1.568728 100.190769 1.553077 100.273846 1.537490 100.356923 1.521966 100.440000 1.506505 100.523077 1.491104 100.606154 1.475764 100.689231 1.460483 100.772308 1.445261 100.855385 1.430096 100.938462 1.414988 101.021538 1.399935 101.104615 1.384937 101.187692 1.369993 101.270769 1.355101 101.353846 1.340262 101.436923 1.325473 101.520000 1.310735 101.603077 1.296046 101.686154 1.281405 101.769231 1.266811 101.852308 1.252263 101.935385 1.237761 102.018462 1.223304 102.101538 1.208890 102.184615 1.194519 102.267692 1.180189 102.350769 1.165901 102.433846 1.151652 102.516923 1.137442 102.600000 1.123270 102.683077 1.109135 102.766154 1.095037 102.849231 1.080973 102.932308 1.066944 103.015385 1.052948 103.098462 1.038985 103.181538 1.025053 103.264615 1.011152 103.347692 0.997281 103.430769 0.983438 103.513846 0.969623 103.596923 0.955835 103.680000 0.942073 103.763077 0.928336 103.846154 0.914623 103.929231 0.900933 104.012308 0.887266 104.095385 0.873620 104.178462 0.859994 104.261538 0.846388 104.344615 0.832800 104.427692 0.819230 104.510769 0.805676 104.593846 0.792139 104.676923 0.778616 104.760000 0.765107 104.843077 0.751611 104.926154 0.738127 105.009231 0.724654 105.092308 0.711192 105.175385 0.697738 105.258462 0.684294 105.341538 0.670856 105.424615 0.657425 105.507692 0.643999 105.590769 0.630579 105.673846 0.617162 105.756923 0.603747 105.840000 0.590335 105.923077 0.576923" class="line reactive nofill" /></g></g><g class="titles" /><g transform="translate(82, 10)" class="plot overlay"><g class="series serie-0 color-0" /></g><g transform="translate(82, 10)" class="plot text-overlay"><g class="series serie-0 color-0" /></g><g transform="translate(82, 10)" class="plot tooltip-overlay"><g transform="translate(0 0)" style="opacity: 0" class="tooltip"><rect rx="0" ry="0" width="0" height="0" class="tooltip-box" /><g class="text" /></g></g></g></svg>