<?xml version='1.0' encoding='utf-8'?>
<svg xmlns="http://www.w3.org/2000/svg" id="chart-b37407a8-bf8e-4537-86d7-004d035dcc2f" class="pygal-chart pygal-sparkline" viewBox="0 0 200 50" width="200" height="50"><!--Generated with pygal 3.0.5 (etree) ©Kozea 2012-2016 on 2024-09-22--><!--http://pygal.org--><!--http://github.com/Kozea/pygal--><defs><style type="text/css">#chart-b37407a8-bf8e-4537-86d7-004d035dcc2f{-webkit-user-select:none;-webkit-font-smoothing:antialiased;font-family:Consolas,"Liberation Mono",Menlo,Courier,monospace}#chart-b37407a8-bf8e-4537-86d7-004d035dcc2f .title{font-family:Consolas,"Liberation Mono",Menlo,Courier,monospace;font-size:16px}#chart-b37407a8-bf8e-4537-86d7-004d035dcc2f .legends .legend text{font-family:Consolas,"Liberation Mono",Menlo,Courier,monospace;font-size:14px}#chart-b37407a8-bf8e-4537-86d7-004d035dcc2f .axis text{font-family:Consolas,"Liberation Mono",Menlo,Courier,monospace;font-size:10px}#chart-b37407a8-bf8e-4537-86d7-004d035dcc2f .axis text.major{font-family:Consolas,"Liberation Mono",Menlo,Courier,monospace;font-size:10px}#chart-b37407a8-bf8e-4537-86d7-004d035dcc2f .text-overlay text.value{font-family:Consolas,"Liberation Mono",Menlo,Courier,monospace;font-size:16px}#chart-b37407a8-bf8e-4537-86d7-004d035dcc2f .text-overlay text.label{font-family:Consolas,"Liberation Mono",Menlo,Courier,monospace;font-size:10px}#chart-b37407a8-bf8e-4537-86d7-004d035dcc2f .tooltip{font-family:Consolas,"Liberation Mono",Menlo,Courier,monospace;font-size:14px}#chart-b37407a8-bf8e-4537-86d7-004d035dcc2f text.no_data{font-family:Consolas,"Liberation Mono",Menlo,Courier,monospace;font-size:64px}
#chart-b37407a8-bf8e-4537-86d7-004d035dcc2f{background-color:rgba(249,249,249,1)}#chart-b37407a8-bf8e-4537-86d7-004d035dcc2f path,#chart-b37407a8-bf8e-4537-86d7-004d035dcc2f line,#chart-b37407a8-bf8e-4537-86d7-004d035dcc2f rect,#chart-b37407a8-bf8e-4537-86d7-004d035dcc2f circle{-webkit-transition:150ms;-moz-transition:150ms;transition:150ms}#chart-b37407a8-bf8e-4537-86d7-004d035dcc2f .graph &gt; .background{fill:rgba(249,249,249,1)}#chart-b37407a8-bf8e-4537-86d7-004d035dcc2f .plot &gt; .background{fill:rgba(255,255,255,1)}#chart-b37407a8-bf8e-4537-86d7-004d035dcc2f .graph{fill:rgba(0,0,0,.87)}#chart-b37407a8-bf8e-4537-86d7-004d035dcc2f text.no_data{fill:rgba(0,0,0,1)}#chart-b37407a8-bf8e-4537-86d7-004d035dcc2f .title{fill:rgba(0,0,0,1)}#chart-b37407a8-bf8e-4537-86d7-004d035dcc2f .legends .legend text{fill:rgba(0,0,0,.87)}#chart-b37407a8-bf8e-4537-86d7-004d035dcc2f .legends .legend:hover text{fill:rgba(0,0,0,1)}#chart-b37407a8-bf8e-4537-86d7-004d035dcc2f .axis .line{stroke:rgba(0,0,0,1)}#chart-b37407a8-bf8e-4537-86d7-004d035dcc2f .axis .guide.line{stroke:rgba(0,0,0,.54)}#chart-b37407a8-bf8e-4537-86d7-004d035dcc2f .axis .major.line{stroke:rgba(0,0,0,.87)}#chart-b37407a8-bf8e-4537-86d7-004d035dcc2f .axis text.major{fill:rgba(0,0,0,1)}#chart-b37407a8-bf8e-4537-86d7-004d035dcc2f .axis.y .guides:hover .guide.line,#chart-b37407a8-bf8e-4537-86d7-004d035dcc2f .line-graph .axis.x .guides:hover .guide.line,#chart-b37407a8-bf8e-4537-86d7-004d035dcc2f .stackedline-graph .axis.x .guides:hover .guide.line,#chart-b37407a8-bf8e-4537-86d7-004d035dcc2f .xy-graph .axis.x .guides:hover .guide.line{stroke:rgba(0,0,0,1)}#chart-b37407a8-bf8e-4537-86d7-004d035dcc2f .axis .guides:hover text{fill:rgba(0,0,0,1)}#chart-b37407a8-bf8e-4537-86d7-004d035dcc2f .reactive{fill-opacity:.7;stroke-opacity:.8;stroke-width:1}#chart-b37407a8-bf8e-4537-86d7-004d035dcc2f .ci{stroke:rgba(0,0,0,.87)}#chart-b37407a8-bf8e-4537-86d7-004d035dcc2f .reactive.active,#chart-b37407a8-bf8e-4537-86d7-004d035dcc2f .active .reactive{fill-opacity:.8;stroke-opacity:.9;stroke-width:4}#chart-b37407a8-bf8e-4537-86d7-004d035dcc2f .ci .reactive.active{stroke-width:1.5}#chart-b37407a8-bf8e-4537-86d7-004d035dcc2f .series text{fill:rgba(0,0,0,1)}#chart-b37407a8-bf8e-4537-86d7-004d035dcc2f .tooltip rect{fill:rgba(255,255,255,1);stroke:rgba(0,0,0,1);-webkit-transition:opacity 150ms;-moz-transition:opacity 150ms;transition:opacity 150ms}#chart-b37407a8-bf8e-4537-86d7-004d035dcc2f .tooltip .label{fill:rgba(0,0,0,.87)}#chart-b37407a8-bf8e-4537-86d7-004d035dcc2f .tooltip .label{fill:rgba(0,0,0,.87)}#chart-b37407a8-bf8e-4537-86d7-004d035dcc2f .tooltip .legend{font-size:.8em;fill:rgba(0,0,0,.54)}#chart-b37407a8-bf8e-4537-86d7-004d035dcc2f .tooltip .x_label{font-size:.6em;fill:rgba(0,0,0,1)}#chart-b37407a8-bf8e-4537-86d7-004d035dcc2f .tooltip .xlink{font-size:.5em;text-decoration:underline}#chart-b37407a8-bf8e-4537-86d7-004d035dcc2f .tooltip .value{font-size:1.5em}#chart-b37407a8-bf8e-4537-86d7-004d035dcc2f .bound{font-size:.5em}#chart-b37407a8-bf8e-4537-86d7-004d035dcc2f .max-value{font-size:.75em;fill:rgba(0,0,0,.54)}#chart-b37407a8-bf8e-4537-86d7-004d035dcc2f .map-element{fill:rgba(255,255,255,1);stroke:rgba(0,0,0,.54) !important}#chart-b37407a8-bf8e-4537-86d7-004d035dcc2f .map-element .reactive{fill-opacity:inherit;stroke-opacity:inherit}#chart-b37407a8-bf8e-4537-86d7-004d035dcc2f .color-0,#chart-b37407a8-bf8e-4537-86d7-004d035dcc2f .color-0 a:visited{stroke:#F44336;fill:#F44336}#chart-b37407a8-bf8e-4537-86d7-004d035dcc2f .text-overlay .color-0 text{fill:black}
#chart-b37407a8-bf8e-4537-86d7-004d035dcc2f text.no_data{text-anchor:middle}#chart-b37407a8-bf8e-4537-86d7-004d035dcc2f .guide.line{fill:none}#chart-b37407a8-bf8e-4537-86d7-004d035dcc2f .centered{text-anchor:middle}#chart-b37407a8-bf8e-4537-86d7-004d035dcc2f .title{text-anchor:middle}#chart-b37407a8-bf8e-4537-86d7-004d035dcc2f .legends .legend text{fill-opacity:1}#chart-b37407a8-bf8e-4537-86d7-004d035dcc2f .axis.x text{text-anchor:middle}#chart-b37407a8-bf8e-4537-86d7-004d035dcc2f .axis.x:not(.web) text[transform]{text-anchor:start}#chart-b37407a8-bf8e-4537-86d7-004d035dcc2f .axis.x:not(.web) text[transform].backwards{text-anchor:end}#chart-b37407a8-bf8e-4537-86d7-004d035dcc2f .axis.y text{text-anchor:end}#chart-b37407a8-bf8e-4537-86d7-004d035dcc2f .axis.y text[transform].backwards{text-anchor:start}#chart-b37407a8-bf8e-4537-86d7-004d035dcc2f .axis.y2 text{text-anchor:start}#chart-b37407a8-bf8e-4537-86d7-004d035dcc2f .axis.y2 text[transform].backwards{text-anchor:end}#chart-b37407a8-bf8e-4537-86d7-004d035dcc2f .axis .guide.line{stroke-dasharray:4,4;stroke:black}#chart-b37407a8-bf8e-4537-86d7-004d035dcc2f .axis .major.guide.line{stroke-dasharray:6,6;stroke:black}#chart-b37407a8-bf8e-4537-86d7-004d035dcc2f .horizontal .axis.y .guide.line,#chart-b37407a8-bf8e-4537-86d7-004d035dcc2f .horizontal .axis.y2 .guide.line,#chart-b37407a8-bf8e-4537-86d7-004d035dcc2f .vertical .axis.x .guide.line{opacity:0}#chart-b37407a8-bf8e-4537-86d7-004d035dcc2f .horizontal .axis.always_show .guide.line,#chart-b37407a8-bf8e-4537-86d7-004d035dcc2f .vertical .axis.always_show .guide.line{opacity:1 !important}#chart-b37407a8-bf8e-4537-86d7-004d035dcc2f .axis.y .guides:hover .guide.line,#chart-b37407a8-bf8e-4537-86d7-004d035dcc2f .axis.y2 .guides:hover .guide.line,#chart-b37407a8-bf8e-4537-86d7-004d035dcc2f .axis.x .guides:hover .guide.line{opacity:1}#chart-b37407a8-bf8e-4537-86d7-004d035dcc2f .axis .guides:hover text{opacity:1}#chart-b37407a8-bf8e-4537-86d7-004d035dcc2f .nofill{fill:none}#chart-b37407a8-bf8e-4537-86d7-004d035dcc2f .subtle-fill{fill-opacity:.2}#chart-b37407a8-bf8e-4537-86d7-004d035dcc2f .dot{stroke-width:1px;fill-opacity:1;stroke-opacity:1}#chart-b37407a8-bf8e-4537-86d7-004d035dcc2f .dot.active{stroke-width:5px}#chart-b37407a8-bf8e-4537-86d7-004d035dcc2f .dot.negative{fill:transparent}#chart-b37407a8-bf8e-4537-86d7-004d035dcc2f text,#chart-b37407a8-bf8e-4537-86d7-004d035dcc2f tspan{stroke:none !important}#chart-b37407a8-bf8e-4537-86d7-004d035dcc2f .series text.active{opacity:1}#chart-b37407a8-bf8e-4537-86d7-004d035dcc2f .tooltip rect{fill-opacity:.95;stroke-width:.5}#chart-b37407a8-bf8e-4537-86d7-004d035dcc2f .tooltip text{fill-opacity:1}#chart-b37407a8-bf8e-4537-86d7-004d035dcc2f .showable{visibility:hidden}#chart-b37407a8-bf8e-4537-86d7-004d035dcc2f .showable.shown{visibility:visible}#chart-b37407a8-bf8e-4537-86d7-004d035dcc2f .gauge-background{fill:rgba(229,229,229,1);stroke:none}#chart-b37407a8-bf8e-4537-86d7-004d035dcc2f .bg-lines{stroke:rgba(249,249,249,1);stroke-width:2px}</style><script type="text/javascript">window.pygal = window.pygal || {};window.pygal.config = window.pygal.config || {};window.pygal.config['b37407a8-bf8e-4537-86d7-004d035dcc2f'] = {"allow_interruptions": false, "box_mode": "extremes", "classes": ["pygal-chart", "pygal-sparkline"], "css": ["file://style.css", "file://graph.css"], "defs": [], "disable_xml_declaration": false, "dots_size": 2.5, "dynamic_print_values": false, "explicit_size": true, "fill": false, "force_uri_protocol": "https", "formatter": null, "half_pie": false, "height": 50, "include_x_axis": false, "inner_radius": 0, "interpolate": "cubic", "interpolation_parameters": {}, "interpolation_precision": 250, "inverse_y_axis": false, "js": [], "legend_at_bottom": false, "legend_at_bottom_columns": null, "legend_box_size": 12, "logarithmic": false, "margin": 10, "margin_bottom": null, "margin_left": null, "margin_right": null, "margin_top": null, "max_scale": 2, "min_scale": 1, "missing_value_fill_truncation": "x", "no_data_text": "", "no_prefix": false, "order_min": null, "pretty_print": false, "print_labels": false, "print_values": false, "print_values_position": "center", "print_zeroes": true, "range": null, "rounded_bars": null, "secondary_range": null, "show_dots": false, "show_legend": false, "show_minor_x_labels": true, "show_minor_y_labels": true, "show_only_major_dots": false, "show_x_guides": false, "show_x_labels": false, "show_y_guides": true, "show_y_labels": true, "spacing": 0, "stack_from_top": false, "strict": false, "stroke": true, "stroke_style": null, "style": {"background": "rgba(249, 249, 249, 1)", "ci_colors": [], "colors": ["#F44336", "#3F51B5", "#009688", "#FFC107", "#FF5722", "#9C27B0", "#03A9F4", "#8BC34A", "#FF9800", "#E91E63", "#2196F3", "#4CAF50", "#FFEB3B", "#673AB7", "#00BCD4", "#CDDC39", "#9E9E9E", "#607D8B"], "dot_opacity": "1", "font_family": "Consolas, \"Liberation Mono\", Menlo, Courier, monospace", "foreground": "rgba(0, 0, 0, .87)", "foreground_strong": "rgba(0, 0, 0, 1)", "foreground_subtle": "rgba(0, 0, 0, .54)", "guide_stroke_color": "black", "guide_stroke_dasharray": "4,4", "label_font_family": "Consolas, \"Liberation Mono\", Menlo, Courier, monospace", "label_font_size": 10, "legend_font_family": "Consolas, \"Liberation Mono\", Menlo, Courier, monospace", "legend_font_size": 14, "major_guide_stroke_color": "black", "major_guide_stroke_dasharray": "6,6", "major_label_font_family": "Consolas, \"Liberation Mono\", Menlo, Courier, monospace", "major_label_font_size": 10, "no_data_font_family": "Consolas, \"Liberation Mono\", Menlo, Courier, monospace", "no_data_font_size": 64, "opacity": ".7", "opacity_hover": ".8", "plot_background": "rgba(255, 255, 255, 1)", "stroke_opacity": ".8", "stroke_opacity_hover": ".9", "stroke_width": "1", "stroke_width_hover": "4", "title_font_family": "Consolas, \"Liberation Mono\", Menlo, Courier, monospace", "title_font_size": 16, "tooltip_font_family": "Consolas, \"Liberation Mono\", Menlo, Courier, monospace", "tooltip_font_size": 14, "transition": "150ms", "value_background": "rgba(229, 229, 229, 1)", "value_colors": [], "value_font_family": "Consolas, \"Liberation Mono\", Menlo, Courier, monospace", "value_font_size": 16, "value_label_font_family": "Consolas, \"Liberation Mono\", Menlo, Courier, monospace", "value_label_font_size": 10}, "title": null, "tooltip_border_radius": 0, "tooltip_fancy_mode": true, "truncate_label": null, "truncate_legend": null, "width": 200, "x_label_rotation": 0, "x_labels": ["2024/9", "2024/8", "2024/7", "2024/6"], "x_labels_major": null, "x_labels_major_count": null, "x_labels_major_every": null, "x_title": null, "xrange": null, "y_label_rotation": 0, "y_labels": null, "y_labels_major": null, "y_labels_major_count": null, "y_labels_major_every": null, "y_title": null, "zero": 0, "legends": [""]}</script></defs><title>Pygal</title><g class="graph line-graph vertical"><rect x="0" y="0" width="200" height="50" class="background" /><g transform="translate(63, 10)" class="plot"><rect x="0" y="0" width="126.0" height="30" class="background" /><g class="axis y always_show"><path d="M0.000000 30.000000 h126.000000" class="line" /><g class="guides"><path d="M0.000000 29.423077 h126.000000" class="guide line" /><text x="-5" y="32.92307692307692" class="">2</text><title>2</title></g><g class="guides"><path d="M0.000000 0.576923 h126.000000" class="guide line" /><text x="-5" y="4.076923076923077" class="">10.150688</text><title>10.150688</title></g></g><g class="series serie-0 color-0"><path d="M2.423077 4.649331 L2.584615 4.633287 2.746154 4.617243 2.907692 4.601200 3.069231 4.585157 3.230769 4.569115 3.392308 4.553073 3.553846 4.537033 3.715385 4.520994 3.876923 4.504957 4.038462 4.488921 4.200000 4.472887 4.361538 4.456855 4.523077 4.440826 4.684615 4.424798 4.846154 4.408773 5.007692 4.392751 5.169231 4.376732 5.330769 4.360716 5.492308 4.344703 5.653846 4.328693 5.815385 4.312687 5.976923 4.296685 6.138462 4.280687 6.300000 4.264693 6.461538 4.248704 6.623077 4.232719 6.784615 4.216738 6.946154 4.200763 7.107692 4.184793 7.269231 4.168828 7.430769 4.152868 7.592308 4.136914 7.753846 4.120966 7.915385 4.105023 8.076923 4.089087 8.238462 4.073157 8.400000 4.057234 8.561538 4.041318 8.723077 4.025408 8.884615 4.009505 9.046154 3.993610 9.207692 3.977722 9.369231 3.961842 9.530769 3.945969 9.692308 3.930105 9.853846 3.914248 10.015385 3.898400 10.176923 3.882561 10.338462 3.866730 10.500000 3.850908 10.661538 3.835095 10.823077 3.819292 10.984615 3.803497 11.146154 3.787713 11.307692 3.771938 11.469231 3.756173 11.630769 3.740418 11.792308 3.724674 11.953846 3.708940 12.115385 3.693217 12.276923 3.677505 12.438462 3.661803 12.600000 3.646113 12.761538 3.630435 12.923077 3.614768 13.084615 3.599112 13.246154 3.583469 13.407692 3.567838 13.569231 3.552219 13.730769 3.536613 13.892308 3.521019 14.053846 3.505438 14.215385 3.489871 14.376923 3.474316 14.538462 3.458775 14.700000 3.443248 14.861538 3.427734 15.023077 3.412234 15.184615 3.396749 15.346154 3.381277 15.507692 3.365820 15.669231 3.350378 15.830769 3.334951 15.992308 3.319539 16.153846 3.304142 16.315385 3.288760 16.476923 3.273394 16.638462 3.258044 16.800000 3.242709 16.961538 3.227391 17.123077 3.212089 17.284615 3.196804 17.446154 3.181535 17.607692 3.166283 17.769231 3.151048 17.930769 3.135831 18.092308 3.120631 18.253846 3.105448 18.415385 3.090283 18.576923 3.075136 18.738462 3.060007 18.900000 3.044897 19.061538 3.029805 19.223077 3.014731 19.384615 2.999677 19.546154 2.984641 19.707692 2.969625 19.869231 2.954628 20.030769 2.939650 20.192308 2.924693 20.353846 2.909755 20.515385 2.894838 20.676923 2.879940 20.838462 2.865063 21.000000 2.850207 21.161538 2.835372 21.323077 2.820558 21.484615 2.805765 21.646154 2.790993 21.807692 2.776243 21.969231 2.761514 22.130769 2.746808 22.292308 2.732124 22.453846 2.717462 22.615385 2.702822 22.776923 2.688205 22.938462 2.673611 23.100000 2.659040 23.261538 2.644492 23.423077 2.629967 23.584615 2.615466 23.746154 2.600989 23.907692 2.586536 24.069231 2.572107 24.230769 2.557702 24.392308 2.543321 24.553846 2.528965 24.715385 2.514634 24.876923 2.500328 25.038462 2.486047 25.200000 2.471792 25.361538 2.457562 25.523077 2.443358 25.684615 2.429180 25.846154 2.415027 26.007692 2.400902 26.169231 2.386802 26.330769 2.372729 26.492308 2.358683 26.653846 2.344664 26.815385 2.330673 26.976923 2.316708 27.138462 2.302771 27.300000 2.288862 27.461538 2.274981 27.623077 2.261128 27.784615 2.247303 27.946154 2.233506 28.107692 2.219738 28.269231 2.205999 28.430769 2.192289 28.592308 2.178608 28.753846 2.164957 28.915385 2.151335 29.076923 2.137743 29.238462 2.124180 29.400000 2.110648 29.561538 2.097146 29.723077 2.083674 29.884615 2.070234 30.046154 2.056823 30.207692 2.043444 30.369231 2.030096 30.530769 2.016780 30.692308 2.003494 30.853846 1.990241 31.015385 1.977020 31.176923 1.963830 31.338462 1.950673 31.500000 1.937548 31.661538 1.924456 31.823077 1.911397 31.984615 1.898370 32.146154 1.885377 32.307692 1.872417 32.469231 1.859491 32.630769 1.846598 32.792308 1.833740 32.953846 1.820915 33.115385 1.808124 33.276923 1.795368 33.438462 1.782647 33.600000 1.769960 33.761538 1.757309 33.923077 1.744692 34.084615 1.732111 34.246154 1.719566 34.407692 1.707056 34.569231 1.694582 34.730769 1.682144 34.892308 1.669742 35.053846 1.657377 35.215385 1.645048 35.376923 1.632756 35.538462 1.620501 35.700000 1.608283 35.861538 1.596103 36.023077 1.583960 36.184615 1.571854 36.346154 1.559787 36.507692 1.547757 36.669231 1.535766 36.830769 1.523814 36.992308 1.511899 37.153846 1.500024 37.315385 1.488188 37.476923 1.476390 37.638462 1.464632 37.800000 1.452914 37.961538 1.441235 38.123077 1.429596 38.284615 1.417997 38.446154 1.406439 38.607692 1.394921 38.769231 1.383443 38.930769 1.372006 39.092308 1.360610 39.253846 1.349255 39.415385 1.337942 39.576923 1.326670 39.738462 1.315440 39.900000 1.304251 40.061538 1.293105 40.223077 1.282001 40.384615 1.270939 40.546154 1.259920 40.707692 1.248943 40.869231 1.238010 41.030769 1.227120 41.192308 1.216273 41.353846 1.205469 41.515385 1.194709 41.676923 1.183993 41.838462 1.173321 42.000000 1.162693 42.161538 1.152110 42.323077 1.141571 42.484615 1.131077 42.646154 1.120628 42.807692 1.110224 42.969231 1.099866 43.130769 1.089554 43.292308 1.079292 43.453846 1.069080 43.615385 1.058921 43.776923 1.048816 43.938462 1.038768 44.100000 1.028777 44.261538 1.018846 44.423077 1.008977 44.584615 0.999171 44.746154 0.989431 44.907692 0.979757 45.069231 0.970153 45.230769 0.960619 45.392308 0.951157 45.553846 0.941770 45.715385 0.932459 45.876923 0.923226 46.038462 0.914073 46.200000 0.905001 46.361538 0.896012 46.523077 0.887109 46.684615 0.878292 46.846154 0.869565 47.007692 0.860928 47.169231 0.852383 47.330769 0.843933 47.492308 0.835578 47.653846 0.827322 47.815385 0.819165 47.976923 0.811110 48.138462 0.803158 48.300000 0.795311 48.461538 0.787571 48.623077 0.779939 48.784615 0.772419 48.946154 0.765010 49.107692 0.757716 49.269231 0.750537 49.430769 0.743477 49.592308 0.736536 49.753846 0.729716 49.915385 0.723020 50.076923 0.716449 50.238462 0.710004 50.400000 0.703689 50.561538 0.697503 50.723077 0.691450 50.884615 0.685531 51.046154 0.679748 51.207692 0.674103 51.369231 0.668597 51.530769 0.663232 51.692308 0.658011 51.853846 0.652935 52.015385 0.648005 52.176923 0.643224 52.338462 0.638593 52.500000 0.634115 52.661538 0.629791 52.823077 0.625622 52.984615 0.621611 53.146154 0.617760 53.307692 0.614070 53.469231 0.610542 53.630769 0.607180 53.792308 0.603985 53.953846 0.600958 54.115385 0.598101 54.276923 0.595417 54.438462 0.592906 54.600000 0.590571 54.761538 0.588414 54.923077 0.586436 55.084615 0.584640 55.246154 0.583026 55.407692 0.581597 55.569231 0.580355 55.730769 0.579301 55.892308 0.578438 56.053846 0.577767 56.215385 0.577289 56.376923 0.577007 56.538462 0.576923 56.700000 0.577038 56.861538 0.577354 57.023077 0.577873 57.184615 0.578597 57.346154 0.579528 57.507692 0.580667 57.669231 0.582016 57.830769 0.583577 57.992308 0.585352 58.153846 0.587342 58.315385 0.589550 58.476923 0.591977 58.638462 0.594626 58.800000 0.597497 58.961538 0.600593 59.123077 0.603915 59.284615 0.607466 59.446154 0.611246 59.607692 0.615259 59.769231 0.619506 59.930769 0.623988 60.092308 0.628707 60.253846 0.633666 60.415385 0.638865 60.576923 0.644308 60.738462 0.649995 60.900000 0.655928 61.061538 0.662110 61.223077 0.668542 61.384615 0.675225 61.546154 0.682163 61.707692 0.689355 61.869231 0.696806 62.030769 0.704515 62.192308 0.712485 62.353846 0.720718 62.515385 0.729215 62.676923 0.737979 62.838462 0.747011 63.000000 0.756313 63.161538 0.765887 63.323077 0.775735 63.484615 0.785857 63.646154 0.796258 63.807692 0.806937 63.969231 0.817897 64.130769 0.829139 64.292308 0.840667 64.453846 0.852480 64.615385 0.864582 64.776923 0.876973 64.938462 0.889656 65.100000 0.902633 65.261538 0.915905 65.423077 0.929475 65.584615 0.943343 65.746154 0.957512 65.907692 0.971984 66.069231 0.986760 66.230769 1.001842 66.392308 1.017233 66.553846 1.032933 66.715385 1.048945 66.876923 1.065270 67.038462 1.081911 67.200000 1.098869 67.361538 1.116146 67.523077 1.133743 67.684615 1.151663 67.846154 1.169907 68.007692 1.188478 68.169231 1.207376 68.330769 1.226605 68.492308 1.246165 68.653846 1.266058 68.815385 1.286286 68.976923 1.306852 69.138462 1.327756 69.300000 1.349001 69.461538 1.370589 69.623077 1.392521 69.784615 1.414799 69.946154 1.437425 70.107692 1.460400 70.269231 1.483727 70.430769 1.507408 70.592308 1.531443 70.753846 1.555836 70.915385 1.580587 71.076923 1.605699 71.238462 1.631173 71.400000 1.657012 71.561538 1.683216 71.723077 1.709789 71.884615 1.736731 72.046154 1.764044 72.207692 1.791731 72.369231 1.819793 72.530769 1.848232 72.692308 1.877049 72.853846 1.906247 73.015385 1.935828 73.176923 1.965792 73.338462 1.996143 73.500000 2.026881 73.661538 2.058009 73.823077 2.089528 73.984615 2.121440 74.146154 2.153748 74.307692 2.186452 74.469231 2.219555 74.630769 2.253058 74.792308 2.286964 74.953846 2.321274 75.115385 2.355990 75.276923 2.391113 75.438462 2.426646 75.600000 2.462590 75.761538 2.498947 75.923077 2.535719 76.084615 2.572909 76.246154 2.610516 76.407692 2.648544 76.569231 2.686994 76.730769 2.725869 76.892308 2.765169 77.053846 2.804896 77.215385 2.845053 77.376923 2.885642 77.538462 2.926663 77.700000 2.968120 77.861538 3.010013 78.023077 3.052344 78.184615 3.095116 78.346154 3.138330 78.507692 3.181988 78.669231 3.226092 78.830769 3.270643 78.992308 3.315644 79.153846 3.361096 79.315385 3.407001 79.476923 3.453360 79.638462 3.500177 79.800000 3.547451 79.961538 3.595186 80.123077 3.643384 80.284615 3.692044 80.446154 3.741171 80.607692 3.790765 80.769231 3.840829 80.930769 3.891363 81.092308 3.942371 81.253846 3.993853 81.415385 4.045812 81.576923 4.098249 81.738462 4.151167 81.900000 4.204566 82.061538 4.258449 82.223077 4.312818 82.384615 4.367674 82.546154 4.423020 82.707692 4.478856 82.869231 4.535186 83.030769 4.592010 83.192308 4.649331 83.353846 4.707149 83.515385 4.765463 83.676923 4.824272 83.838462 4.883574 84.000000 4.943365 84.161538 5.003645 84.323077 5.064411 84.484615 5.125662 84.646154 5.187395 84.807692 5.249608 84.969231 5.312300 85.130769 5.375468 85.292308 5.439111 85.453846 5.503226 85.615385 5.567811 85.776923 5.632865 85.938462 5.698385 86.100000 5.764369 86.261538 5.830816 86.423077 5.897724 86.584615 5.965089 86.746154 6.032912 86.907692 6.101188 87.069231 6.169918 87.230769 6.239097 87.392308 6.308725 87.553846 6.378800 87.715385 6.449319 87.876923 6.520281 88.038462 6.591683 88.200000 6.663524 88.361538 6.735801 88.523077 6.808512 88.684615 6.881657 88.846154 6.955231 89.007692 7.029235 89.169231 7.103664 89.330769 7.178519 89.492308 7.253796 89.653846 7.329493 89.815385 7.405609 89.976923 7.482142 90.138462 7.559089 90.300000 7.636449 90.461538 7.714220 90.623077 7.792399 90.784615 7.870984 90.946154 7.949975 91.107692 8.029368 91.269231 8.109161 91.430769 8.189353 91.592308 8.269942 91.753846 8.350926 91.915385 8.432302 92.076923 8.514069 92.238462 8.596225 92.400000 8.678767 92.561538 8.761694 92.723077 8.845003 92.884615 8.928694 93.046154 9.012763 93.207692 9.097209 93.369231 9.182029 93.530769 9.267222 93.692308 9.352786 93.853846 9.438719 94.015385 9.525019 94.176923 9.611683 94.338462 9.698710 94.500000 9.786098 94.661538 9.873844 94.823077 9.961947 94.984615 10.050406 95.146154 10.139217 95.307692 10.228378 95.469231 10.317889 95.630769 10.407746 95.792308 10.497948 95.953846 10.588493 96.115385 10.679379 96.276923 10.770604 96.438462 10.862166 96.600000 10.954062 96.761538 11.046291 96.923077 11.138852 97.084615 11.231741 97.246154 11.324957 97.407692 11.418498 97.569231 11.512361 97.730769 11.606546 97.892308 11.701050 98.053846 11.795870 98.215385 11.891006 98.376923 11.986454 98.538462 12.082213 98.700000 12.178282 98.861538 12.274657 99.023077 12.371337 99.184615 12.468320 99.346154 12.565604 99.507692 12.663187 99.669231 12.761068 99.830769 12.859243 99.992308 12.957711 100.153846 13.056470 100.315385 13.155518 100.476923 13.254853 100.638462 13.354473 100.800000 13.454377 100.961538 13.554561 101.123077 13.655024 101.284615 13.755765 101.446154 13.856780 101.607692 13.958069 101.769231 14.059628 101.930769 14.161457 102.092308 14.263553 102.253846 14.365914 102.415385 14.468538 102.576923 14.571423 102.738462 14.674567 102.900000 14.777968 103.061538 14.881625 103.223077 14.985534 103.384615 15.089695 103.546154 15.194105 103.707692 15.298762 103.869231 15.403664 104.030769 15.508810 104.192308 15.614196 104.353846 15.719822 104.515385 15.825685 104.676923 15.931783 104.838462 16.038115 105.000000 16.144677 105.161538 16.251469 105.323077 16.358488 105.484615 16.465732 105.646154 16.573200 105.807692 16.680889 105.969231 16.788797 106.130769 16.896922 106.292308 17.005263 106.453846 17.113816 106.615385 17.222582 106.776923 17.331556 106.938462 17.440738 107.100000 17.550125 107.261538 17.659715 107.423077 17.769507 107.584615 17.879498 107.746154 17.989686 107.907692 18.100069 108.069231 18.210646 108.230769 18.321415 108.392308 18.432372 108.553846 18.543517 108.715385 18.654848 108.876923 18.766362 109.038462 18.878057 109.200000 18.989931 109.361538 19.101983 109.523077 19.214211 109.684615 19.326611 109.846154 19.439184 110.007692 19.551925 110.169231 19.664834 110.330769 19.777909 110.492308 19.891147 110.653846 20.004546 110.815385 20.118105 110.976923 20.231821 111.138462 20.345693 111.300000 20.459718 111.461538 20.573895 111.623077 20.688221 111.784615 20.802695 111.946154 20.917314 112.107692 21.032077 112.269231 21.146981 112.430769 21.262025 112.592308 21.377206 112.753846 21.492523 112.915385 21.607973 113.076923 21.723555 113.238462 21.839267 113.400000 21.955106 113.561538 22.071070 113.723077 22.187159 113.884615 22.303368 114.046154 22.419698 114.207692 22.536145 114.369231 22.652707 114.530769 22.769384 114.692308 22.886171 114.853846 23.003069 115.015385 23.120074 115.176923 23.237185 115.338462 23.354399 115.500000 23.471715 115.661538 23.589131 115.823077 23.706644 115.984615 23.824253 116.146154 23.941956 116.307692 24.059751 116.469231 24.177635 116.630769 24.295606 116.792308 24.413664 116.953846 24.531805 117.115385 24.650028 117.276923 24.768331 117.438462 24.886711 117.600000 25.005168 117.761538 25.123697 117.923077 25.242299 118.084615 25.360971 118.246154 25.479710 118.407692 25.598515 118.569231 25.717384 118.730769 25.836314 118.892308 25.955304 119.053846 26.074353 119.215385 26.193457 119.376923 26.312614 119.538462 26.431824 119.700000 26.551083 119.861538 26.670391 120.023077 26.789744 120.184615 26.909141 120.346154 27.028580 120.507692 27.148058 120.669231 27.267575 120.830769 27.387127 120.992308 27.506714 121.153846 27.626332 121.315385 27.745980 121.476923 27.865656 121.638462 27.985358 121.800000 28.105084 121.961538 28.224832 122.123077 28.344599 122.284615 28.464385 122.446154 28.584187 122.607692 28.704002 122.769231 28.823830 122.930769 28.943667 123.092308 29.063513 123.253846 29.183364 123.415385 29.303220 123.576923 29.423077" class="line reactive nofill" /></g></g><g class="titles" /><g transform="translate(63, 10)" class="plot overlay"><g class="series serie-0 color-0" /></g><g transform="translate(63, 10)" class="plot text-overlay"><g class="series serie-0 color-0" /></g><g transform="translate(63, 10)" class="plot tooltip-overlay"><g transform="translate(0 0)" style="opacity: 0" class="tooltip"><rect rx="0" ry="0" width="0" height="0" class="tooltip-box" /><g class="text" /></g></g></g></svg>