<?xml version='1.0' encoding='utf-8'?>
<svg xmlns="http://www.w3.org/2000/svg" id="chart-b0289e57-4e71-4687-bc7f-833c58f4a5f9" class="pygal-chart pygal-sparkline" viewBox="0 0 200 50" width="200" height="50"><!--Generated with pygal 3.0.4 (etree) ©Kozea 2012-2016 on 2024-06-10--><!--http://pygal.org--><!--http://github.com/Kozea/pygal--><defs><style type="text/css">#chart-b0289e57-4e71-4687-bc7f-833c58f4a5f9{-webkit-user-select:none;-webkit-font-smoothing:antialiased;font-family:Consolas,"Liberation Mono",Menlo,Courier,monospace}#chart-b0289e57-4e71-4687-bc7f-833c58f4a5f9 .title{font-family:Consolas,"Liberation Mono",Menlo,Courier,monospace;font-size:16px}#chart-b0289e57-4e71-4687-bc7f-833c58f4a5f9 .legends .legend text{font-family:Consolas,"Liberation Mono",Menlo,Courier,monospace;font-size:14px}#chart-b0289e57-4e71-4687-bc7f-833c58f4a5f9 .axis text{font-family:Consolas,"Liberation Mono",Menlo,Courier,monospace;font-size:10px}#chart-b0289e57-4e71-4687-bc7f-833c58f4a5f9 .axis text.major{font-family:Consolas,"Liberation Mono",Menlo,Courier,monospace;font-size:10px}#chart-b0289e57-4e71-4687-bc7f-833c58f4a5f9 .text-overlay text.value{font-family:Consolas,"Liberation Mono",Menlo,Courier,monospace;font-size:16px}#chart-b0289e57-4e71-4687-bc7f-833c58f4a5f9 .text-overlay text.label{font-family:Consolas,"Liberation Mono",Menlo,Courier,monospace;font-size:10px}#chart-b0289e57-4e71-4687-bc7f-833c58f4a5f9 .tooltip{font-family:Consolas,"Liberation Mono",Menlo,Courier,monospace;font-size:14px}#chart-b0289e57-4e71-4687-bc7f-833c58f4a5f9 text.no_data{font-family:Consolas,"Liberation Mono",Menlo,Courier,monospace;font-size:64px}
#chart-b0289e57-4e71-4687-bc7f-833c58f4a5f9{background-color:rgba(249,249,249,1)}#chart-b0289e57-4e71-4687-bc7f-833c58f4a5f9 path,#chart-b0289e57-4e71-4687-bc7f-833c58f4a5f9 line,#chart-b0289e57-4e71-4687-bc7f-833c58f4a5f9 rect,#chart-b0289e57-4e71-4687-bc7f-833c58f4a5f9 circle{-webkit-transition:150ms;-moz-transition:150ms;transition:150ms}#chart-b0289e57-4e71-4687-bc7f-833c58f4a5f9 .graph &gt; .background{fill:rgba(249,249,249,1)}#chart-b0289e57-4e71-4687-bc7f-833c58f4a5f9 .plot &gt; .background{fill:rgba(255,255,255,1)}#chart-b0289e57-4e71-4687-bc7f-833c58f4a5f9 .graph{fill:rgba(0,0,0,.87)}#chart-b0289e57-4e71-4687-bc7f-833c58f4a5f9 text.no_data{fill:rgba(0,0,0,1)}#chart-b0289e57-4e71-4687-bc7f-833c58f4a5f9 .title{fill:rgba(0,0,0,1)}#chart-b0289e57-4e71-4687-bc7f-833c58f4a5f9 .legends .legend text{fill:rgba(0,0,0,.87)}#chart-b0289e57-4e71-4687-bc7f-833c58f4a5f9 .legends .legend:hover text{fill:rgba(0,0,0,1)}#chart-b0289e57-4e71-4687-bc7f-833c58f4a5f9 .axis .line{stroke:rgba(0,0,0,1)}#chart-b0289e57-4e71-4687-bc7f-833c58f4a5f9 .axis .guide.line{stroke:rgba(0,0,0,.54)}#chart-b0289e57-4e71-4687-bc7f-833c58f4a5f9 .axis .major.line{stroke:rgba(0,0,0,.87)}#chart-b0289e57-4e71-4687-bc7f-833c58f4a5f9 .axis text.major{fill:rgba(0,0,0,1)}#chart-b0289e57-4e71-4687-bc7f-833c58f4a5f9 .axis.y .guides:hover .guide.line,#chart-b0289e57-4e71-4687-bc7f-833c58f4a5f9 .line-graph .axis.x .guides:hover .guide.line,#chart-b0289e57-4e71-4687-bc7f-833c58f4a5f9 .stackedline-graph .axis.x .guides:hover .guide.line,#chart-b0289e57-4e71-4687-bc7f-833c58f4a5f9 .xy-graph .axis.x .guides:hover .guide.line{stroke:rgba(0,0,0,1)}#chart-b0289e57-4e71-4687-bc7f-833c58f4a5f9 .axis .guides:hover text{fill:rgba(0,0,0,1)}#chart-b0289e57-4e71-4687-bc7f-833c58f4a5f9 .reactive{fill-opacity:.7;stroke-opacity:.8;stroke-width:1}#chart-b0289e57-4e71-4687-bc7f-833c58f4a5f9 .ci{stroke:rgba(0,0,0,.87)}#chart-b0289e57-4e71-4687-bc7f-833c58f4a5f9 .reactive.active,#chart-b0289e57-4e71-4687-bc7f-833c58f4a5f9 .active .reactive{fill-opacity:.8;stroke-opacity:.9;stroke-width:4}#chart-b0289e57-4e71-4687-bc7f-833c58f4a5f9 .ci .reactive.active{stroke-width:1.5}#chart-b0289e57-4e71-4687-bc7f-833c58f4a5f9 .series text{fill:rgba(0,0,0,1)}#chart-b0289e57-4e71-4687-bc7f-833c58f4a5f9 .tooltip rect{fill:rgba(255,255,255,1);stroke:rgba(0,0,0,1);-webkit-transition:opacity 150ms;-moz-transition:opacity 150ms;transition:opacity 150ms}#chart-b0289e57-4e71-4687-bc7f-833c58f4a5f9 .tooltip .label{fill:rgba(0,0,0,.87)}#chart-b0289e57-4e71-4687-bc7f-833c58f4a5f9 .tooltip .label{fill:rgba(0,0,0,.87)}#chart-b0289e57-4e71-4687-bc7f-833c58f4a5f9 .tooltip .legend{font-size:.8em;fill:rgba(0,0,0,.54)}#chart-b0289e57-4e71-4687-bc7f-833c58f4a5f9 .tooltip .x_label{font-size:.6em;fill:rgba(0,0,0,1)}#chart-b0289e57-4e71-4687-bc7f-833c58f4a5f9 .tooltip .xlink{font-size:.5em;text-decoration:underline}#chart-b0289e57-4e71-4687-bc7f-833c58f4a5f9 .tooltip .value{font-size:1.5em}#chart-b0289e57-4e71-4687-bc7f-833c58f4a5f9 .bound{font-size:.5em}#chart-b0289e57-4e71-4687-bc7f-833c58f4a5f9 .max-value{font-size:.75em;fill:rgba(0,0,0,.54)}#chart-b0289e57-4e71-4687-bc7f-833c58f4a5f9 .map-element{fill:rgba(255,255,255,1);stroke:rgba(0,0,0,.54) !important}#chart-b0289e57-4e71-4687-bc7f-833c58f4a5f9 .map-element .reactive{fill-opacity:inherit;stroke-opacity:inherit}#chart-b0289e57-4e71-4687-bc7f-833c58f4a5f9 .color-0,#chart-b0289e57-4e71-4687-bc7f-833c58f4a5f9 .color-0 a:visited{stroke:#F44336;fill:#F44336}#chart-b0289e57-4e71-4687-bc7f-833c58f4a5f9 .text-overlay .color-0 text{fill:black}
#chart-b0289e57-4e71-4687-bc7f-833c58f4a5f9 text.no_data{text-anchor:middle}#chart-b0289e57-4e71-4687-bc7f-833c58f4a5f9 .guide.line{fill:none}#chart-b0289e57-4e71-4687-bc7f-833c58f4a5f9 .centered{text-anchor:middle}#chart-b0289e57-4e71-4687-bc7f-833c58f4a5f9 .title{text-anchor:middle}#chart-b0289e57-4e71-4687-bc7f-833c58f4a5f9 .legends .legend text{fill-opacity:1}#chart-b0289e57-4e71-4687-bc7f-833c58f4a5f9 .axis.x text{text-anchor:middle}#chart-b0289e57-4e71-4687-bc7f-833c58f4a5f9 .axis.x:not(.web) text[transform]{text-anchor:start}#chart-b0289e57-4e71-4687-bc7f-833c58f4a5f9 .axis.x:not(.web) text[transform].backwards{text-anchor:end}#chart-b0289e57-4e71-4687-bc7f-833c58f4a5f9 .axis.y text{text-anchor:end}#chart-b0289e57-4e71-4687-bc7f-833c58f4a5f9 .axis.y text[transform].backwards{text-anchor:start}#chart-b0289e57-4e71-4687-bc7f-833c58f4a5f9 .axis.y2 text{text-anchor:start}#chart-b0289e57-4e71-4687-bc7f-833c58f4a5f9 .axis.y2 text[transform].backwards{text-anchor:end}#chart-b0289e57-4e71-4687-bc7f-833c58f4a5f9 .axis .guide.line{stroke-dasharray:4,4;stroke:black}#chart-b0289e57-4e71-4687-bc7f-833c58f4a5f9 .axis .major.guide.line{stroke-dasharray:6,6;stroke:black}#chart-b0289e57-4e71-4687-bc7f-833c58f4a5f9 .horizontal .axis.y .guide.line,#chart-b0289e57-4e71-4687-bc7f-833c58f4a5f9 .horizontal .axis.y2 .guide.line,#chart-b0289e57-4e71-4687-bc7f-833c58f4a5f9 .vertical .axis.x .guide.line{opacity:0}#chart-b0289e57-4e71-4687-bc7f-833c58f4a5f9 .horizontal .axis.always_show .guide.line,#chart-b0289e57-4e71-4687-bc7f-833c58f4a5f9 .vertical .axis.always_show .guide.line{opacity:1 !important}#chart-b0289e57-4e71-4687-bc7f-833c58f4a5f9 .axis.y .guides:hover .guide.line,#chart-b0289e57-4e71-4687-bc7f-833c58f4a5f9 .axis.y2 .guides:hover .guide.line,#chart-b0289e57-4e71-4687-bc7f-833c58f4a5f9 .axis.x .guides:hover .guide.line{opacity:1}#chart-b0289e57-4e71-4687-bc7f-833c58f4a5f9 .axis .guides:hover text{opacity:1}#chart-b0289e57-4e71-4687-bc7f-833c58f4a5f9 .nofill{fill:none}#chart-b0289e57-4e71-4687-bc7f-833c58f4a5f9 .subtle-fill{fill-opacity:.2}#chart-b0289e57-4e71-4687-bc7f-833c58f4a5f9 .dot{stroke-width:1px;fill-opacity:1;stroke-opacity:1}#chart-b0289e57-4e71-4687-bc7f-833c58f4a5f9 .dot.active{stroke-width:5px}#chart-b0289e57-4e71-4687-bc7f-833c58f4a5f9 .dot.negative{fill:transparent}#chart-b0289e57-4e71-4687-bc7f-833c58f4a5f9 text,#chart-b0289e57-4e71-4687-bc7f-833c58f4a5f9 tspan{stroke:none !important}#chart-b0289e57-4e71-4687-bc7f-833c58f4a5f9 .series text.active{opacity:1}#chart-b0289e57-4e71-4687-bc7f-833c58f4a5f9 .tooltip rect{fill-opacity:.95;stroke-width:.5}#chart-b0289e57-4e71-4687-bc7f-833c58f4a5f9 .tooltip text{fill-opacity:1}#chart-b0289e57-4e71-4687-bc7f-833c58f4a5f9 .showable{visibility:hidden}#chart-b0289e57-4e71-4687-bc7f-833c58f4a5f9 .showable.shown{visibility:visible}#chart-b0289e57-4e71-4687-bc7f-833c58f4a5f9 .gauge-background{fill:rgba(229,229,229,1);stroke:none}#chart-b0289e57-4e71-4687-bc7f-833c58f4a5f9 .bg-lines{stroke:rgba(249,249,249,1);stroke-width:2px}</style><script type="text/javascript">window.pygal = window.pygal || {};window.pygal.config = window.pygal.config || {};window.pygal.config['b0289e57-4e71-4687-bc7f-833c58f4a5f9'] = {"allow_interruptions": false, "box_mode": "extremes", "classes": ["pygal-chart", "pygal-sparkline"], "css": ["file://style.css", "file://graph.css"], "defs": [], "disable_xml_declaration": false, "dots_size": 2.5, "dynamic_print_values": false, "explicit_size": true, "fill": false, "force_uri_protocol": "https", "formatter": null, "half_pie": false, "height": 50, "include_x_axis": false, "inner_radius": 0, "interpolate": "cubic", "interpolation_parameters": {}, "interpolation_precision": 250, "inverse_y_axis": false, "js": [], "legend_at_bottom": false, "legend_at_bottom_columns": null, "legend_box_size": 12, "logarithmic": false, "margin": 10, "margin_bottom": null, "margin_left": null, "margin_right": null, "margin_top": null, "max_scale": 2, "min_scale": 1, "missing_value_fill_truncation": "x", "no_data_text": "", "no_prefix": false, "order_min": null, "pretty_print": false, "print_labels": false, "print_values": false, "print_values_position": "center", "print_zeroes": true, "range": null, "rounded_bars": null, "secondary_range": null, "show_dots": false, "show_legend": false, "show_minor_x_labels": true, "show_minor_y_labels": true, "show_only_major_dots": false, "show_x_guides": false, "show_x_labels": false, "show_y_guides": true, "show_y_labels": true, "spacing": 0, "stack_from_top": false, "strict": false, "stroke": true, "stroke_style": null, "style": {"background": "rgba(249, 249, 249, 1)", "ci_colors": [], "colors": ["#F44336", "#3F51B5", "#009688", "#FFC107", "#FF5722", "#9C27B0", "#03A9F4", "#8BC34A", "#FF9800", "#E91E63", "#2196F3", "#4CAF50", "#FFEB3B", "#673AB7", "#00BCD4", "#CDDC39", "#9E9E9E", "#607D8B"], "dot_opacity": "1", "font_family": "Consolas, \"Liberation Mono\", Menlo, Courier, monospace", "foreground": "rgba(0, 0, 0, .87)", "foreground_strong": "rgba(0, 0, 0, 1)", "foreground_subtle": "rgba(0, 0, 0, .54)", "guide_stroke_color": "black", "guide_stroke_dasharray": "4,4", "label_font_family": "Consolas, \"Liberation Mono\", Menlo, Courier, monospace", "label_font_size": 10, "legend_font_family": "Consolas, \"Liberation Mono\", Menlo, Courier, monospace", "legend_font_size": 14, "major_guide_stroke_color": "black", "major_guide_stroke_dasharray": "6,6", "major_label_font_family": "Consolas, \"Liberation Mono\", Menlo, Courier, monospace", "major_label_font_size": 10, "no_data_font_family": "Consolas, \"Liberation Mono\", Menlo, Courier, monospace", "no_data_font_size": 64, "opacity": ".7", "opacity_hover": ".8", "plot_background": "rgba(255, 255, 255, 1)", "stroke_opacity": ".8", "stroke_opacity_hover": ".9", "stroke_width": "1", "stroke_width_hover": "4", "title_font_family": "Consolas, \"Liberation Mono\", Menlo, Courier, monospace", "title_font_size": 16, "tooltip_font_family": "Consolas, \"Liberation Mono\", Menlo, Courier, monospace", "tooltip_font_size": 14, "transition": "150ms", "value_background": "rgba(229, 229, 229, 1)", "value_colors": [], "value_font_family": "Consolas, \"Liberation Mono\", Menlo, Courier, monospace", "value_font_size": 16, "value_label_font_family": "Consolas, \"Liberation Mono\", Menlo, Courier, monospace", "value_label_font_size": 10}, "title": null, "tooltip_border_radius": 0, "tooltip_fancy_mode": true, "truncate_label": null, "truncate_legend": null, "width": 200, "x_label_rotation": 0, "x_labels": ["2024/6", "2024/5", "2024/4", "2024/2", "2024/1", "2023/12"], "x_labels_major": null, "x_labels_major_count": null, "x_labels_major_every": null, "x_title": null, "xrange": null, "y_label_rotation": 0, "y_labels": null, "y_labels_major": null, "y_labels_major_count": null, "y_labels_major_every": null, "y_title": null, "zero": 0, "legends": [""]}</script></defs><title>Pygal</title><g class="graph line-graph vertical"><rect x="0" y="0" width="200" height="50" class="background" /><g transform="translate(82, 10)" class="plot"><rect x="0" y="0" width="108.0" height="30" class="background" /><g class="axis y always_show"><path d="M0.000000 30.000000 h108.000000" class="line" /><g class="guides"><path d="M0.000000 29.423077 h108.000000" class="guide line" /><text x="-5" y="32.92307692307692" class="">0.7720179874</text><title>0.7720179874</title></g><g class="guides"><path d="M0.000000 0.576923 h108.000000" class="guide line" /><text x="-5" y="4.076923076923077" class="">10.15814543</text><title>10.15814543</title></g></g><g class="series serie-0 color-0"><path d="M2.076923 13.356049 L2.160000 13.267469 2.243077 13.178892 2.326154 13.090323 2.409231 13.001766 2.492308 12.913223 2.575385 12.824700 2.658462 12.736199 2.741538 12.647724 2.824615 12.559280 2.907692 12.470870 2.990769 12.382498 3.073846 12.294167 3.156923 12.205882 3.240000 12.117646 3.323077 12.029463 3.406154 11.941337 3.489231 11.853271 3.572308 11.765270 3.655385 11.677336 3.738462 11.589475 3.821538 11.501689 3.904615 11.413983 3.987692 11.326360 4.070769 11.238823 4.153846 11.151378 4.236923 11.064027 4.320000 10.976775 4.403077 10.889625 4.486154 10.802581 4.569231 10.715646 4.652308 10.628825 4.735385 10.542121 4.818462 10.455538 4.901538 10.369080 4.984615 10.282751 5.067692 10.196554 5.150769 10.110494 5.233846 10.024573 5.316923 9.938796 5.400000 9.853167 5.483077 9.767689 5.566154 9.682366 5.649231 9.597202 5.732308 9.512200 5.815385 9.427365 5.898462 9.342701 5.981538 9.258210 6.064615 9.173897 6.147692 9.089766 6.230769 9.005820 6.313846 8.922064 6.396923 8.838500 6.480000 8.755133 6.563077 8.671966 6.646154 8.589004 6.729231 8.506250 6.812308 8.423708 6.895385 8.341381 6.978462 8.259274 7.061538 8.177390 7.144615 8.095733 7.227692 8.014307 7.310769 7.933115 7.393846 7.852162 7.476923 7.771451 7.560000 7.690985 7.643077 7.610770 7.726154 7.530808 7.809231 7.451103 7.892308 7.371659 7.975385 7.292480 8.058462 7.213570 8.141538 7.134932 8.224615 7.056570 8.307692 6.978488 8.390769 6.900690 8.473846 6.823179 8.556923 6.745960 8.640000 6.669036 8.723077 6.592410 8.806154 6.516088 8.889231 6.440071 8.972308 6.364365 9.055385 6.288974 9.138462 6.213899 9.221538 6.139147 9.304615 6.064719 9.387692 5.990621 9.470769 5.916856 9.553846 5.843428 9.636923 5.770340 9.720000 5.697596 9.803077 5.625200 9.886154 5.553156 9.969231 5.481468 10.052308 5.410139 10.135385 5.339174 10.218462 5.268575 10.301538 5.198347 10.384615 5.128494 10.467692 5.059019 10.550769 4.989926 10.633846 4.921219 10.716923 4.852901 10.800000 4.784977 10.883077 4.717451 10.966154 4.650325 11.049231 4.583604 11.132308 4.517292 11.215385 4.451392 11.298462 4.385908 11.381538 4.320845 11.464615 4.256204 11.547692 4.191992 11.630769 4.128211 11.713846 4.064864 11.796923 4.001957 11.880000 3.939492 11.963077 3.877474 12.046154 3.815906 12.129231 3.754792 12.212308 3.694135 12.295385 3.633941 12.378462 3.574211 12.461538 3.514951 12.544615 3.456163 12.627692 3.397852 12.710769 3.340022 12.793846 3.282676 12.876923 3.225818 12.960000 3.169452 13.043077 3.113581 13.126154 3.058210 13.209231 3.003342 13.292308 2.948981 13.375385 2.895131 13.458462 2.841795 13.541538 2.788977 13.624615 2.736682 13.707692 2.684912 13.790769 2.633672 13.873846 2.582966 13.956923 2.532797 14.040000 2.483168 14.123077 2.434085 14.206154 2.385550 14.289231 2.337567 14.372308 2.290141 14.455385 2.243274 14.538462 2.196971 14.621538 2.151236 14.704615 2.106072 14.787692 2.061483 14.870769 2.017473 14.953846 1.974045 15.036923 1.931204 15.120000 1.888953 15.203077 1.847296 15.286154 1.806237 15.369231 1.765779 15.452308 1.725926 15.535385 1.686683 15.618462 1.648053 15.701538 1.610039 15.784615 1.572645 15.867692 1.535876 15.950769 1.499735 16.033846 1.464226 16.116923 1.429352 16.200000 1.395118 16.283077 1.361526 16.366154 1.328582 16.449231 1.296289 16.532308 1.264650 16.615385 1.233669 16.698462 1.203350 16.781538 1.173697 16.864615 1.144714 16.947692 1.116404 17.030769 1.088771 17.113846 1.061820 17.196923 1.035553 17.280000 1.009974 17.363077 0.985088 17.446154 0.960898 17.529231 0.937408 17.612308 0.914622 17.695385 0.892543 17.778462 0.871175 17.861538 0.850523 17.944615 0.830589 18.027692 0.811378 18.110769 0.792893 18.193846 0.775138 18.276923 0.758117 18.360000 0.741834 18.443077 0.726293 18.526154 0.711497 18.609231 0.697450 18.692308 0.684155 18.775385 0.671618 18.858462 0.659840 18.941538 0.648828 19.024615 0.638583 19.107692 0.629109 19.190769 0.620412 19.273846 0.612493 19.356923 0.605358 19.440000 0.599010 19.523077 0.593452 19.606154 0.588689 19.689231 0.584724 19.772308 0.581561 19.855385 0.579204 19.938462 0.577657 20.021538 0.576923 20.104615 0.577006 20.187692 0.577910 20.270769 0.579639 20.353846 0.582197 20.436923 0.585586 20.520000 0.589812 20.603077 0.594878 20.686154 0.600787 20.769231 0.607544 20.852308 0.615152 20.935385 0.623615 21.018462 0.632937 21.101538 0.643121 21.184615 0.654172 21.267692 0.666093 21.350769 0.678888 21.433846 0.692560 21.516923 0.707114 21.600000 0.722553 21.683077 0.738882 21.766154 0.756103 21.849231 0.774221 21.932308 0.793239 22.015385 0.813161 22.098462 0.833991 22.181538 0.855734 22.264615 0.878391 22.347692 0.901968 22.430769 0.926468 22.513846 0.951895 22.596923 0.978253 22.680000 1.005545 22.763077 1.033775 22.846154 1.062948 22.929231 1.093064 23.012308 1.124120 23.095385 1.156111 23.178462 1.189029 23.261538 1.222869 23.344615 1.257626 23.427692 1.293293 23.510769 1.329864 23.593846 1.367333 23.676923 1.405695 23.760000 1.444943 23.843077 1.485072 23.926154 1.526075 24.009231 1.567947 24.092308 1.610681 24.175385 1.654273 24.258462 1.698715 24.341538 1.744002 24.424615 1.790129 24.507692 1.837088 24.590769 1.884874 24.673846 1.933482 24.756923 1.982904 24.840000 2.033136 24.923077 2.084172 25.006154 2.136005 25.089231 2.188629 25.172308 2.242039 25.255385 2.296229 25.338462 2.351192 25.421538 2.406923 25.504615 2.463416 25.587692 2.520665 25.670769 2.578664 25.753846 2.637406 25.836923 2.696887 25.920000 2.757100 26.003077 2.818040 26.086154 2.879699 26.169231 2.942073 26.252308 3.005155 26.335385 3.068940 26.418462 3.133422 26.501538 3.198594 26.584615 3.264450 26.667692 3.330986 26.750769 3.398194 26.833846 3.466069 26.916923 3.534605 27.000000 3.603796 27.083077 3.673636 27.166154 3.744120 27.249231 3.815240 27.332308 3.886992 27.415385 3.959369 27.498462 4.032366 27.581538 4.105976 27.664615 4.180193 27.747692 4.255012 27.830769 4.330427 27.913846 4.406432 27.996923 4.483020 28.080000 4.560186 28.163077 4.637924 28.246154 4.716228 28.329231 4.795092 28.412308 4.874511 28.495385 4.954477 28.578462 5.034986 28.661538 5.116031 28.744615 5.197606 28.827692 5.279706 28.910769 5.362324 28.993846 5.445455 29.076923 5.529093 29.160000 5.613231 29.243077 5.697864 29.326154 5.782986 29.409231 5.868591 29.492308 5.954673 29.575385 6.041226 29.658462 6.128244 29.741538 6.215721 29.824615 6.303651 29.907692 6.392029 29.990769 6.480848 30.073846 6.570102 30.156923 6.659786 30.240000 6.749894 30.323077 6.840419 30.406154 6.931356 30.489231 7.022698 30.572308 7.114441 30.655385 7.206577 30.738462 7.299101 30.821538 7.392008 30.904615 7.485290 30.987692 7.578943 31.070769 7.672959 31.153846 7.767334 31.236923 7.862062 31.320000 7.957136 31.403077 8.052550 31.486154 8.148299 31.569231 8.244376 31.652308 8.340776 31.735385 8.437493 31.818462 8.534521 31.901538 8.631853 31.984615 8.729485 32.067692 8.827409 32.150769 8.925620 32.233846 9.024113 32.316923 9.122881 32.400000 9.221918 32.483077 9.321218 32.566154 9.420776 32.649231 9.520586 32.732308 9.620640 32.815385 9.720935 32.898462 9.821463 32.981538 9.922219 33.064615 10.023196 33.147692 10.124390 33.230769 10.225793 33.313846 10.327400 33.396923 10.429206 33.480000 10.531203 33.563077 10.633387 33.646154 10.735751 33.729231 10.838289 33.812308 10.940995 33.895385 11.043864 33.978462 11.146890 34.061538 11.250066 34.144615 11.353387 34.227692 11.456846 34.310769 11.560439 34.393846 11.664158 34.476923 11.767998 34.560000 11.871952 34.643077 11.976016 34.726154 12.080183 34.809231 12.184448 34.892308 12.288803 34.975385 12.393244 35.058462 12.497764 35.141538 12.602357 35.224615 12.707018 35.307692 12.811741 35.390769 12.916519 35.473846 13.021347 35.556923 13.126218 35.640000 13.231128 35.723077 13.336069 35.806154 13.441036 35.889231 13.546024 35.972308 13.651025 36.055385 13.756034 36.138462 13.861046 36.221538 13.966054 36.304615 14.071052 36.387692 14.176035 36.470769 14.280996 36.553846 14.385930 36.636923 14.490830 36.720000 14.595691 36.803077 14.700507 36.886154 14.805271 36.969231 14.909979 37.052308 15.014623 37.135385 15.119198 37.218462 15.223699 37.301538 15.328118 37.384615 15.432451 37.467692 15.536691 37.550769 15.640832 37.633846 15.744868 37.716923 15.848794 37.800000 15.952604 37.883077 16.056291 37.966154 16.159850 38.049231 16.263274 38.132308 16.366559 38.215385 16.469697 38.298462 16.572683 38.381538 16.675511 38.464615 16.778175 38.547692 16.880669 38.630769 16.982988 38.713846 17.085124 38.796923 17.187073 38.880000 17.288828 38.963077 17.390384 39.046154 17.491734 39.129231 17.592873 39.212308 17.693794 39.295385 17.794492 39.378462 17.894961 39.461538 17.995195 39.544615 18.095187 39.627692 18.194933 39.710769 18.294425 39.793846 18.393659 39.876923 18.492628 39.960000 18.591326 40.043077 18.689747 40.126154 18.787885 40.209231 18.885735 40.292308 18.983291 40.375385 19.080546 40.458462 19.177495 40.541538 19.274131 40.624615 19.370449 40.707692 19.466443 40.790769 19.562107 40.873846 19.657434 40.956923 19.752420 41.040000 19.847058 41.123077 19.941342 41.206154 20.035266 41.289231 20.128824 41.372308 20.222011 41.455385 20.314820 41.538462 20.407245 41.621538 20.499281 41.704615 20.590922 41.787692 20.682161 41.870769 20.772993 41.953846 20.863412 42.036923 20.953412 42.120000 21.042986 42.203077 21.132130 42.286154 21.220837 42.369231 21.309100 42.452308 21.396915 42.535385 21.484275 42.618462 21.571175 42.701538 21.657608 42.784615 21.743568 42.867692 21.829050 42.950769 21.914047 43.033846 21.998554 43.116923 22.082565 43.200000 22.166073 43.283077 22.249074 43.366154 22.331560 43.449231 22.413526 43.532308 22.494966 43.615385 22.575875 43.698462 22.656246 43.781538 22.736081 43.864615 22.815381 43.947692 22.894145 44.030769 22.972376 44.113846 23.050075 44.196923 23.127242 44.280000 23.203879 44.363077 23.279986 44.446154 23.355566 44.529231 23.430618 44.612308 23.505144 44.695385 23.579145 44.778462 23.652623 44.861538 23.725577 44.944615 23.798010 45.027692 23.869922 45.110769 23.941315 45.193846 24.012189 45.276923 24.082546 45.360000 24.152386 45.443077 24.221711 45.526154 24.290521 45.609231 24.358819 45.692308 24.426604 45.775385 24.493879 45.858462 24.560643 45.941538 24.626899 46.024615 24.692646 46.107692 24.757887 46.190769 24.822623 46.273846 24.886854 46.356923 24.950581 46.440000 25.013806 46.523077 25.076529 46.606154 25.138752 46.689231 25.200476 46.772308 25.261702 46.855385 25.322431 46.938462 25.382664 47.021538 25.442402 47.104615 25.501646 47.187692 25.560397 47.270769 25.618657 47.353846 25.676426 47.436923 25.733705 47.520000 25.790496 47.603077 25.846799 47.686154 25.902616 47.769231 25.957948 47.852308 26.012796 47.935385 26.067160 48.018462 26.121043 48.101538 26.174444 48.184615 26.227366 48.267692 26.279809 48.350769 26.331774 48.433846 26.383262 48.516923 26.434275 48.600000 26.484813 48.683077 26.534877 48.766154 26.584470 48.849231 26.633591 48.932308 26.682242 49.015385 26.730423 49.098462 26.778137 49.181538 26.825383 49.264615 26.872163 49.347692 26.918479 49.430769 26.964331 49.513846 27.009720 49.596923 27.054647 49.680000 27.099114 49.763077 27.143121 49.846154 27.186670 49.929231 27.229761 50.012308 27.272397 50.095385 27.314577 50.178462 27.356302 50.261538 27.397575 50.344615 27.438396 50.427692 27.478765 50.510769 27.518685 50.593846 27.558156 50.676923 27.597180 50.760000 27.635756 50.843077 27.673887 50.926154 27.711574 51.009231 27.748817 51.092308 27.785618 51.175385 27.821978 51.258462 27.857897 51.341538 27.893377 51.424615 27.928420 51.507692 27.963025 51.590769 27.997194 51.673846 28.030928 51.756923 28.064229 51.840000 28.097097 51.923077 28.129533 52.006154 28.161539 52.089231 28.193115 52.172308 28.224263 52.255385 28.254984 52.338462 28.285278 52.421538 28.315147 52.504615 28.344592 52.587692 28.373614 52.670769 28.402214 52.753846 28.430393 52.836923 28.458152 52.920000 28.485493 53.003077 28.512416 53.086154 28.538922 53.169231 28.565013 53.252308 28.590689 53.335385 28.615952 53.418462 28.640802 53.501538 28.665241 53.584615 28.689271 53.667692 28.712891 53.750769 28.736103 53.833846 28.758908 53.916923 28.781307 54.000000 28.803301 54.083077 28.824892 54.166154 28.846080 54.249231 28.866866 54.332308 28.887252 54.415385 28.907238 54.498462 28.926826 54.581538 28.946017 54.664615 28.964812 54.747692 28.983211 54.830769 29.001216 54.913846 29.018829 54.996923 29.036049 55.080000 29.052879 55.163077 29.069319 55.246154 29.085370 55.329231 29.101033 55.412308 29.116310 55.495385 29.131201 55.578462 29.145708 55.661538 29.159832 55.744615 29.173573 55.827692 29.186933 55.910769 29.199913 55.993846 29.212514 56.076923 29.224737 56.160000 29.236583 56.243077 29.248053 56.326154 29.259148 56.409231 29.269870 56.492308 29.280219 56.575385 29.290197 56.658462 29.299804 56.741538 29.309042 56.824615 29.317911 56.907692 29.326413 56.990769 29.334549 57.073846 29.342320 57.156923 29.349727 57.240000 29.356770 57.323077 29.363452 57.406154 29.369774 57.489231 29.375735 57.572308 29.381338 57.655385 29.386583 57.738462 29.391471 57.821538 29.396004 57.904615 29.400183 57.987692 29.404009 58.070769 29.407482 58.153846 29.410604 58.236923 29.413376 58.320000 29.415799 58.403077 29.417874 58.486154 29.419602 58.569231 29.420984 58.652308 29.422022 58.735385 29.422716 58.818462 29.423067 58.901538 29.423077 58.984615 29.422746 59.067692 29.422076 59.150769 29.421068 59.233846 29.419723 59.316923 29.418041 59.400000 29.416025 59.483077 29.413674 59.566154 29.410990 59.649231 29.407975 59.732308 29.404629 59.815385 29.400953 59.898462 29.396948 59.981538 29.392616 60.064615 29.387958 60.147692 29.382974 60.230769 29.377665 60.313846 29.372034 60.396923 29.366080 60.480000 29.359805 60.563077 29.353210 60.646154 29.346296 60.729231 29.339064 60.812308 29.331516 60.895385 29.323651 60.978462 29.315472 61.061538 29.306979 61.144615 29.298174 61.227692 29.289057 61.310769 29.279630 61.393846 29.269894 61.476923 29.259849 61.560000 29.249497 61.643077 29.238839 61.726154 29.227876 61.809231 29.216609 61.892308 29.205040 61.975385 29.193168 62.058462 29.180996 62.141538 29.168524 62.224615 29.155753 62.307692 29.142685 62.390769 29.129320 62.473846 29.115660 62.556923 29.101706 62.640000 29.087458 62.723077 29.072919 62.806154 29.058088 62.889231 29.042967 62.972308 29.027558 63.055385 29.011860 63.138462 28.995876 63.221538 28.979606 63.304615 28.963051 63.387692 28.946213 63.470769 28.929092 63.553846 28.911690 63.636923 28.894007 63.720000 28.876045 63.803077 28.857805 63.886154 28.839288 63.969231 28.820495 64.052308 28.801427 64.135385 28.782085 64.218462 28.762470 64.301538 28.742583 64.384615 28.722425 64.467692 28.701998 64.550769 28.681303 64.633846 28.660342 64.716923 28.639116 64.800000 28.617627 64.883077 28.595877 64.966154 28.573866 65.049231 28.551598 65.132308 28.529073 65.215385 28.506294 65.298462 28.483261 65.381538 28.459976 65.464615 28.436442 65.547692 28.412660 65.630769 28.388630 65.713846 28.364356 65.796923 28.339839 65.880000 28.315079 65.963077 28.290080 66.046154 28.264843 66.129231 28.239368 66.212308 28.213659 66.295385 28.187716 66.378462 28.161541 66.461538 28.135136 66.544615 28.108502 66.627692 28.081642 66.710769 28.054556 66.793846 28.027247 66.876923 27.999715 66.960000 27.971964 67.043077 27.943993 67.126154 27.915806 67.209231 27.887403 67.292308 27.858787 67.375385 27.829958 67.458462 27.800919 67.541538 27.771671 67.624615 27.742216 67.707692 27.712555 67.790769 27.682690 67.873846 27.652624 67.956923 27.622356 68.040000 27.591890 68.123077 27.561226 68.206154 27.530367 68.289231 27.499313 68.372308 27.468067 68.455385 27.436631 68.538462 27.405005 68.621538 27.373192 68.704615 27.341193 68.787692 27.309010 68.870769 27.276644 68.953846 27.244097 69.036923 27.211371 69.120000 27.178468 69.203077 27.145388 69.286154 27.112135 69.369231 27.078708 69.452308 27.045111 69.535385 27.011344 69.618462 26.977409 69.701538 26.943308 69.784615 26.909043 69.867692 26.874615 69.950769 26.840026 70.033846 26.805277 70.116923 26.770371 70.200000 26.735308 70.283077 26.700090 70.366154 26.664720 70.449231 26.629198 70.532308 26.593527 70.615385 26.557707 70.698462 26.521742 70.781538 26.485631 70.864615 26.449377 70.947692 26.412982 71.030769 26.376447 71.113846 26.339774 71.196923 26.302964 71.280000 26.266020 71.363077 26.228942 71.446154 26.191733 71.529231 26.154393 71.612308 26.116926 71.695385 26.079331 71.778462 26.041612 71.861538 26.003769 71.944615 25.965805 72.027692 25.927720 72.110769 25.889517 72.193846 25.851197 72.276923 25.812762 72.360000 25.774214 72.443077 25.735553 72.526154 25.696783 72.609231 25.657904 72.692308 25.618917 72.775385 25.579826 72.858462 25.540631 72.941538 25.501333 73.024615 25.461936 73.107692 25.422440 73.190769 25.382846 73.273846 25.343157 73.356923 25.303375 73.440000 25.263500 73.523077 25.223534 73.606154 25.183480 73.689231 25.143339 73.772308 25.103112 73.855385 25.062801 73.938462 25.022407 74.021538 24.981933 74.104615 24.941381 74.187692 24.900750 74.270769 24.860044 74.353846 24.819264 74.436923 24.778411 74.520000 24.737488 74.603077 24.696495 74.686154 24.655435 74.769231 24.614309 74.852308 24.573119 74.935385 24.531866 75.018462 24.490552 75.101538 24.449179 75.184615 24.407749 75.267692 24.366262 75.350769 24.324721 75.433846 24.283127 75.516923 24.241482 75.600000 24.199788 75.683077 24.158046 75.766154 24.116258 75.849231 24.074425 75.932308 24.032549 76.015385 23.990632 76.098462 23.948676 76.181538 23.906681 76.264615 23.864651 76.347692 23.822585 76.430769 23.780487 76.513846 23.738357 76.596923 23.696198 76.680000 23.654010 76.763077 23.611796 76.846154 23.569557 76.929231 23.527295 77.012308 23.485012 77.095385 23.442709 77.178462 23.400387 77.261538 23.358049 77.344615 23.315696 77.427692 23.273330 77.510769 23.230952 77.593846 23.188564 77.676923 23.146167 77.760000 23.103764 77.843077 23.061356 77.926154 23.018945 78.009231 22.976531 78.092308 22.934118 78.175385 22.891706 78.258462 22.849297 78.341538 22.806893 78.424615 22.764495 78.507692 22.722106 78.590769 22.679726 78.673846 22.637357 78.756923 22.595002 78.840000 22.552661 78.923077 22.510336 79.006154 22.468029 79.089231 22.425742 79.172308 22.383476 79.255385 22.341233 79.338462 22.299015 79.421538 22.256822 79.504615 22.214658 79.587692 22.172523 79.670769 22.130419 79.753846 22.088347 79.836923 22.046310 79.920000 22.004309 80.003077 21.962346 80.086154 21.920422 80.169231 21.878539 80.252308 21.836698 80.335385 21.794902 80.418462 21.753151 80.501538 21.711448 80.584615 21.669794 80.667692 21.628191 80.750769 21.586641 80.833846 21.545144 80.916923 21.503703 81.000000 21.462320 81.083077 21.420995 81.166154 21.379732 81.249231 21.338530 81.332308 21.297392 81.415385 21.256320 81.498462 21.215316 81.581538 21.174380 81.664615 21.133514 81.747692 21.092721 81.830769 21.052002 81.913846 21.011358 81.996923 20.970791 82.080000 20.930303 82.163077 20.889895 82.246154 20.849569 82.329231 20.809327 82.412308 20.769170 82.495385 20.729100 82.578462 20.689119 82.661538 20.649227 82.744615 20.609428 82.827692 20.569723 82.910769 20.530112 82.993846 20.490598 83.076923 20.451183 83.160000 20.411868 83.243077 20.372654 83.326154 20.333544 83.409231 20.294539 83.492308 20.255640 83.575385 20.216850 83.658462 20.178170 83.741538 20.139601 83.824615 20.101146 83.907692 20.062805 83.990769 20.024581 84.073846 19.986475 84.156923 19.948489 84.240000 19.910625 84.323077 19.872883 84.406154 19.835266 84.489231 19.797776 84.572308 19.760414 84.655385 19.723181 84.738462 19.686079 84.821538 19.649111 84.904615 19.612277 84.987692 19.575579 85.070769 19.539020 85.153846 19.502599 85.236923 19.466320 85.320000 19.430181 85.403077 19.394182 85.486154 19.358323 85.569231 19.322603 85.652308 19.287020 85.735385 19.251576 85.818462 19.216269 85.901538 19.181099 85.984615 19.146064 86.067692 19.111165 86.150769 19.076401 86.233846 19.041772 86.316923 19.007276 86.400000 18.972914 86.483077 18.938684 86.566154 18.904587 86.649231 18.870620 86.732308 18.836785 86.815385 18.803081 86.898462 18.769506 86.981538 18.736061 87.064615 18.702744 87.147692 18.669555 87.230769 18.636495 87.313846 18.603561 87.396923 18.570753 87.480000 18.538072 87.563077 18.505516 87.646154 18.473085 87.729231 18.440778 87.812308 18.408594 87.895385 18.376534 87.978462 18.344596 88.061538 18.312780 88.144615 18.281086 88.227692 18.249512 88.310769 18.218059 88.393846 18.186725 88.476923 18.155511 88.560000 18.124415 88.643077 18.093437 88.726154 18.062577 88.809231 18.031833 88.892308 18.001206 88.975385 17.970694 89.058462 17.940298 89.141538 17.910017 89.224615 17.879849 89.307692 17.849795 89.390769 17.819854 89.473846 17.790025 89.556923 17.760308 89.640000 17.730702 89.723077 17.701207 89.806154 17.671822 89.889231 17.642547 89.972308 17.613380 90.055385 17.584322 90.138462 17.555372 90.221538 17.526529 90.304615 17.497793 90.387692 17.469163 90.470769 17.440639 90.553846 17.412219 90.636923 17.383904 90.720000 17.355693 90.803077 17.327586 90.886154 17.299581 90.969231 17.271678 91.052308 17.243877 91.135385 17.216177 91.218462 17.188577 91.301538 17.161078 91.384615 17.133678 91.467692 17.106376 91.550769 17.079173 91.633846 17.052068 91.716923 17.025059 91.800000 16.998148 91.883077 16.971332 91.966154 16.944612 92.049231 16.917986 92.132308 16.891455 92.215385 16.865018 92.298462 16.838673 92.381538 16.812422 92.464615 16.786262 92.547692 16.760194 92.630769 16.734217 92.713846 16.708330 92.796923 16.682533 92.880000 16.656825 92.963077 16.631205 93.046154 16.605674 93.129231 16.580231 93.212308 16.554874 93.295385 16.529604 93.378462 16.504419 93.461538 16.479320 93.544615 16.454306 93.627692 16.429375 93.710769 16.404528 93.793846 16.379765 93.876923 16.355083 93.960000 16.330484 94.043077 16.305966 94.126154 16.281528 94.209231 16.257171 94.292308 16.232893 94.375385 16.208695 94.458462 16.184575 94.541538 16.160533 94.624615 16.136568 94.707692 16.112680 94.790769 16.088868 94.873846 16.065132 94.956923 16.041471 95.040000 16.017884 95.123077 15.994372 95.206154 15.970933 95.289231 15.947567 95.372308 15.924273 95.455385 15.901050 95.538462 15.877899 95.621538 15.854819 95.704615 15.831808 95.787692 15.808867 95.870769 15.785995 95.953846 15.763191 96.036923 15.740455 96.120000 15.717786 96.203077 15.695184 96.286154 15.672648 96.369231 15.650177 96.452308 15.627771 96.535385 15.605430 96.618462 15.583152 96.701538 15.560938 96.784615 15.538786 96.867692 15.516696 96.950769 15.494668 97.033846 15.472701 97.116923 15.450795 97.200000 15.428948 97.283077 15.407161 97.366154 15.385432 97.449231 15.363761 97.532308 15.342148 97.615385 15.320592 97.698462 15.299093 97.781538 15.277649 97.864615 15.256261 97.947692 15.234927 98.030769 15.213648 98.113846 15.192423 98.196923 15.171250 98.280000 15.150130 98.363077 15.129062 98.446154 15.108045 98.529231 15.087079 98.612308 15.066164 98.695385 15.045298 98.778462 15.024481 98.861538 15.003713 98.944615 14.982992 99.027692 14.962320 99.110769 14.941694 99.193846 14.921114 99.276923 14.900580 99.360000 14.880091 99.443077 14.859647 99.526154 14.839247 99.609231 14.818890 99.692308 14.798577 99.775385 14.778305 99.858462 14.758076 99.941538 14.737887 100.024615 14.717740 100.107692 14.697632 100.190769 14.677564 100.273846 14.657535 100.356923 14.637544 100.440000 14.617591 100.523077 14.597676 100.606154 14.577797 100.689231 14.557954 100.772308 14.538147 100.855385 14.518374 100.938462 14.498637 101.021538 14.478933 101.104615 14.459262 101.187692 14.439624 101.270769 14.420019 101.353846 14.400445 101.436923 14.380902 101.520000 14.361389 101.603077 14.341907 101.686154 14.322454 101.769231 14.303029 101.852308 14.283633 101.935385 14.264265 102.018462 14.244923 102.101538 14.225609 102.184615 14.206320 102.267692 14.187056 102.350769 14.167818 102.433846 14.148603 102.516923 14.129413 102.600000 14.110245 102.683077 14.091100 102.766154 14.071978 102.849231 14.052876 102.932308 14.033796 103.015385 14.014736 103.098462 13.995695 103.181538 13.976674 103.264615 13.957671 103.347692 13.938687 103.430769 13.919720 103.513846 13.900770 103.596923 13.881836 103.680000 13.862918 103.763077 13.844016 103.846154 13.825128 103.929231 13.806254 104.012308 13.787394 104.095385 13.768546 104.178462 13.749711 104.261538 13.730888 104.344615 13.712077 104.427692 13.693276 104.510769 13.674485 104.593846 13.655704 104.676923 13.636931 104.760000 13.618168 104.843077 13.599412 104.926154 13.580663 105.009231 13.561922 105.092308 13.543186 105.175385 13.524456 105.258462 13.505732 105.341538 13.487011 105.424615 13.468295 105.507692 13.449582 105.590769 13.430872 105.673846 13.412164 105.756923 13.393458 105.840000 13.374753 105.923077 13.356049" class="line reactive nofill" /></g></g><g class="titles" /><g transform="translate(82, 10)" class="plot overlay"><g class="series serie-0 color-0" /></g><g transform="translate(82, 10)" class="plot text-overlay"><g class="series serie-0 color-0" /></g><g transform="translate(82, 10)" class="plot tooltip-overlay"><g transform="translate(0 0)" style="opacity: 0" class="tooltip"><rect rx="0" ry="0" width="0" height="0" class="tooltip-box" /><g class="text" /></g></g></g></svg>