<?xml version='1.0' encoding='utf-8'?>
<svg xmlns="http://www.w3.org/2000/svg" id="chart-f5d3871d-fc96-432f-927a-841c37793209" class="pygal-chart pygal-sparkline" viewBox="0 0 200 50" width="200" height="50"><!--Generated with pygal 3.0.5 (etree) ©Kozea 2012-2016 on 2025-04-06--><!--http://pygal.org--><!--http://github.com/Kozea/pygal--><defs><style type="text/css">#chart-f5d3871d-fc96-432f-927a-841c37793209{-webkit-user-select:none;-webkit-font-smoothing:antialiased;font-family:Consolas,"Liberation Mono",Menlo,Courier,monospace}#chart-f5d3871d-fc96-432f-927a-841c37793209 .title{font-family:Consolas,"Liberation Mono",Menlo,Courier,monospace;font-size:16px}#chart-f5d3871d-fc96-432f-927a-841c37793209 .legends .legend text{font-family:Consolas,"Liberation Mono",Menlo,Courier,monospace;font-size:14px}#chart-f5d3871d-fc96-432f-927a-841c37793209 .axis text{font-family:Consolas,"Liberation Mono",Menlo,Courier,monospace;font-size:10px}#chart-f5d3871d-fc96-432f-927a-841c37793209 .axis text.major{font-family:Consolas,"Liberation Mono",Menlo,Courier,monospace;font-size:10px}#chart-f5d3871d-fc96-432f-927a-841c37793209 .text-overlay text.value{font-family:Consolas,"Liberation Mono",Menlo,Courier,monospace;font-size:16px}#chart-f5d3871d-fc96-432f-927a-841c37793209 .text-overlay text.label{font-family:Consolas,"Liberation Mono",Menlo,Courier,monospace;font-size:10px}#chart-f5d3871d-fc96-432f-927a-841c37793209 .tooltip{font-family:Consolas,"Liberation Mono",Menlo,Courier,monospace;font-size:14px}#chart-f5d3871d-fc96-432f-927a-841c37793209 text.no_data{font-family:Consolas,"Liberation Mono",Menlo,Courier,monospace;font-size:64px}
#chart-f5d3871d-fc96-432f-927a-841c37793209{background-color:rgba(249,249,249,1)}#chart-f5d3871d-fc96-432f-927a-841c37793209 path,#chart-f5d3871d-fc96-432f-927a-841c37793209 line,#chart-f5d3871d-fc96-432f-927a-841c37793209 rect,#chart-f5d3871d-fc96-432f-927a-841c37793209 circle{-webkit-transition:150ms;-moz-transition:150ms;transition:150ms}#chart-f5d3871d-fc96-432f-927a-841c37793209 .graph &gt; .background{fill:rgba(249,249,249,1)}#chart-f5d3871d-fc96-432f-927a-841c37793209 .plot &gt; .background{fill:rgba(255,255,255,1)}#chart-f5d3871d-fc96-432f-927a-841c37793209 .graph{fill:rgba(0,0,0,.87)}#chart-f5d3871d-fc96-432f-927a-841c37793209 text.no_data{fill:rgba(0,0,0,1)}#chart-f5d3871d-fc96-432f-927a-841c37793209 .title{fill:rgba(0,0,0,1)}#chart-f5d3871d-fc96-432f-927a-841c37793209 .legends .legend text{fill:rgba(0,0,0,.87)}#chart-f5d3871d-fc96-432f-927a-841c37793209 .legends .legend:hover text{fill:rgba(0,0,0,1)}#chart-f5d3871d-fc96-432f-927a-841c37793209 .axis .line{stroke:rgba(0,0,0,1)}#chart-f5d3871d-fc96-432f-927a-841c37793209 .axis .guide.line{stroke:rgba(0,0,0,.54)}#chart-f5d3871d-fc96-432f-927a-841c37793209 .axis .major.line{stroke:rgba(0,0,0,.87)}#chart-f5d3871d-fc96-432f-927a-841c37793209 .axis text.major{fill:rgba(0,0,0,1)}#chart-f5d3871d-fc96-432f-927a-841c37793209 .axis.y .guides:hover .guide.line,#chart-f5d3871d-fc96-432f-927a-841c37793209 .line-graph .axis.x .guides:hover .guide.line,#chart-f5d3871d-fc96-432f-927a-841c37793209 .stackedline-graph .axis.x .guides:hover .guide.line,#chart-f5d3871d-fc96-432f-927a-841c37793209 .xy-graph .axis.x .guides:hover .guide.line{stroke:rgba(0,0,0,1)}#chart-f5d3871d-fc96-432f-927a-841c37793209 .axis .guides:hover text{fill:rgba(0,0,0,1)}#chart-f5d3871d-fc96-432f-927a-841c37793209 .reactive{fill-opacity:.7;stroke-opacity:.8;stroke-width:1}#chart-f5d3871d-fc96-432f-927a-841c37793209 .ci{stroke:rgba(0,0,0,.87)}#chart-f5d3871d-fc96-432f-927a-841c37793209 .reactive.active,#chart-f5d3871d-fc96-432f-927a-841c37793209 .active .reactive{fill-opacity:.8;stroke-opacity:.9;stroke-width:4}#chart-f5d3871d-fc96-432f-927a-841c37793209 .ci .reactive.active{stroke-width:1.5}#chart-f5d3871d-fc96-432f-927a-841c37793209 .series text{fill:rgba(0,0,0,1)}#chart-f5d3871d-fc96-432f-927a-841c37793209 .tooltip rect{fill:rgba(255,255,255,1);stroke:rgba(0,0,0,1);-webkit-transition:opacity 150ms;-moz-transition:opacity 150ms;transition:opacity 150ms}#chart-f5d3871d-fc96-432f-927a-841c37793209 .tooltip .label{fill:rgba(0,0,0,.87)}#chart-f5d3871d-fc96-432f-927a-841c37793209 .tooltip .label{fill:rgba(0,0,0,.87)}#chart-f5d3871d-fc96-432f-927a-841c37793209 .tooltip .legend{font-size:.8em;fill:rgba(0,0,0,.54)}#chart-f5d3871d-fc96-432f-927a-841c37793209 .tooltip .x_label{font-size:.6em;fill:rgba(0,0,0,1)}#chart-f5d3871d-fc96-432f-927a-841c37793209 .tooltip .xlink{font-size:.5em;text-decoration:underline}#chart-f5d3871d-fc96-432f-927a-841c37793209 .tooltip .value{font-size:1.5em}#chart-f5d3871d-fc96-432f-927a-841c37793209 .bound{font-size:.5em}#chart-f5d3871d-fc96-432f-927a-841c37793209 .max-value{font-size:.75em;fill:rgba(0,0,0,.54)}#chart-f5d3871d-fc96-432f-927a-841c37793209 .map-element{fill:rgba(255,255,255,1);stroke:rgba(0,0,0,.54) !important}#chart-f5d3871d-fc96-432f-927a-841c37793209 .map-element .reactive{fill-opacity:inherit;stroke-opacity:inherit}#chart-f5d3871d-fc96-432f-927a-841c37793209 .color-0,#chart-f5d3871d-fc96-432f-927a-841c37793209 .color-0 a:visited{stroke:#F44336;fill:#F44336}#chart-f5d3871d-fc96-432f-927a-841c37793209 .text-overlay .color-0 text{fill:black}
#chart-f5d3871d-fc96-432f-927a-841c37793209 text.no_data{text-anchor:middle}#chart-f5d3871d-fc96-432f-927a-841c37793209 .guide.line{fill:none}#chart-f5d3871d-fc96-432f-927a-841c37793209 .centered{text-anchor:middle}#chart-f5d3871d-fc96-432f-927a-841c37793209 .title{text-anchor:middle}#chart-f5d3871d-fc96-432f-927a-841c37793209 .legends .legend text{fill-opacity:1}#chart-f5d3871d-fc96-432f-927a-841c37793209 .axis.x text{text-anchor:middle}#chart-f5d3871d-fc96-432f-927a-841c37793209 .axis.x:not(.web) text[transform]{text-anchor:start}#chart-f5d3871d-fc96-432f-927a-841c37793209 .axis.x:not(.web) text[transform].backwards{text-anchor:end}#chart-f5d3871d-fc96-432f-927a-841c37793209 .axis.y text{text-anchor:end}#chart-f5d3871d-fc96-432f-927a-841c37793209 .axis.y text[transform].backwards{text-anchor:start}#chart-f5d3871d-fc96-432f-927a-841c37793209 .axis.y2 text{text-anchor:start}#chart-f5d3871d-fc96-432f-927a-841c37793209 .axis.y2 text[transform].backwards{text-anchor:end}#chart-f5d3871d-fc96-432f-927a-841c37793209 .axis .guide.line{stroke-dasharray:4,4;stroke:black}#chart-f5d3871d-fc96-432f-927a-841c37793209 .axis .major.guide.line{stroke-dasharray:6,6;stroke:black}#chart-f5d3871d-fc96-432f-927a-841c37793209 .horizontal .axis.y .guide.line,#chart-f5d3871d-fc96-432f-927a-841c37793209 .horizontal .axis.y2 .guide.line,#chart-f5d3871d-fc96-432f-927a-841c37793209 .vertical .axis.x .guide.line{opacity:0}#chart-f5d3871d-fc96-432f-927a-841c37793209 .horizontal .axis.always_show .guide.line,#chart-f5d3871d-fc96-432f-927a-841c37793209 .vertical .axis.always_show .guide.line{opacity:1 !important}#chart-f5d3871d-fc96-432f-927a-841c37793209 .axis.y .guides:hover .guide.line,#chart-f5d3871d-fc96-432f-927a-841c37793209 .axis.y2 .guides:hover .guide.line,#chart-f5d3871d-fc96-432f-927a-841c37793209 .axis.x .guides:hover .guide.line{opacity:1}#chart-f5d3871d-fc96-432f-927a-841c37793209 .axis .guides:hover text{opacity:1}#chart-f5d3871d-fc96-432f-927a-841c37793209 .nofill{fill:none}#chart-f5d3871d-fc96-432f-927a-841c37793209 .subtle-fill{fill-opacity:.2}#chart-f5d3871d-fc96-432f-927a-841c37793209 .dot{stroke-width:1px;fill-opacity:1;stroke-opacity:1}#chart-f5d3871d-fc96-432f-927a-841c37793209 .dot.active{stroke-width:5px}#chart-f5d3871d-fc96-432f-927a-841c37793209 .dot.negative{fill:transparent}#chart-f5d3871d-fc96-432f-927a-841c37793209 text,#chart-f5d3871d-fc96-432f-927a-841c37793209 tspan{stroke:none !important}#chart-f5d3871d-fc96-432f-927a-841c37793209 .series text.active{opacity:1}#chart-f5d3871d-fc96-432f-927a-841c37793209 .tooltip rect{fill-opacity:.95;stroke-width:.5}#chart-f5d3871d-fc96-432f-927a-841c37793209 .tooltip text{fill-opacity:1}#chart-f5d3871d-fc96-432f-927a-841c37793209 .showable{visibility:hidden}#chart-f5d3871d-fc96-432f-927a-841c37793209 .showable.shown{visibility:visible}#chart-f5d3871d-fc96-432f-927a-841c37793209 .gauge-background{fill:rgba(229,229,229,1);stroke:none}#chart-f5d3871d-fc96-432f-927a-841c37793209 .bg-lines{stroke:rgba(249,249,249,1);stroke-width:2px}</style><script type="text/javascript">window.pygal = window.pygal || {};window.pygal.config = window.pygal.config || {};window.pygal.config['f5d3871d-fc96-432f-927a-841c37793209'] = {"allow_interruptions": false, "box_mode": "extremes", "classes": ["pygal-chart", "pygal-sparkline"], "css": ["file://style.css", "file://graph.css"], "defs": [], "disable_xml_declaration": false, "dots_size": 2.5, "dynamic_print_values": false, "explicit_size": true, "fill": false, "force_uri_protocol": "https", "formatter": null, "half_pie": false, "height": 50, "include_x_axis": false, "inner_radius": 0, "interpolate": "cubic", "interpolation_parameters": {}, "interpolation_precision": 250, "inverse_y_axis": false, "js": [], "legend_at_bottom": false, "legend_at_bottom_columns": null, "legend_box_size": 12, "logarithmic": false, "margin": 10, "margin_bottom": null, "margin_left": null, "margin_right": null, "margin_top": null, "max_scale": 2, "min_scale": 1, "missing_value_fill_truncation": "x", "no_data_text": "", "no_prefix": false, "order_min": null, "pretty_print": false, "print_labels": false, "print_values": false, "print_values_position": "center", "print_zeroes": true, "range": null, "rounded_bars": null, "secondary_range": null, "show_dots": false, "show_legend": false, "show_minor_x_labels": true, "show_minor_y_labels": true, "show_only_major_dots": false, "show_x_guides": false, "show_x_labels": false, "show_y_guides": true, "show_y_labels": true, "spacing": 0, "stack_from_top": false, "strict": false, "stroke": true, "stroke_style": null, "style": {"background": "rgba(249, 249, 249, 1)", "ci_colors": [], "colors": ["#F44336", "#3F51B5", "#009688", "#FFC107", "#FF5722", "#9C27B0", "#03A9F4", "#8BC34A", "#FF9800", "#E91E63", "#2196F3", "#4CAF50", "#FFEB3B", "#673AB7", "#00BCD4", "#CDDC39", "#9E9E9E", "#607D8B"], "dot_opacity": "1", "font_family": "Consolas, \"Liberation Mono\", Menlo, Courier, monospace", "foreground": "rgba(0, 0, 0, .87)", "foreground_strong": "rgba(0, 0, 0, 1)", "foreground_subtle": "rgba(0, 0, 0, .54)", "guide_stroke_color": "black", "guide_stroke_dasharray": "4,4", "label_font_family": "Consolas, \"Liberation Mono\", Menlo, Courier, monospace", "label_font_size": 10, "legend_font_family": "Consolas, \"Liberation Mono\", Menlo, Courier, monospace", "legend_font_size": 14, "major_guide_stroke_color": "black", "major_guide_stroke_dasharray": "6,6", "major_label_font_family": "Consolas, \"Liberation Mono\", Menlo, Courier, monospace", "major_label_font_size": 10, "no_data_font_family": "Consolas, \"Liberation Mono\", Menlo, Courier, monospace", "no_data_font_size": 64, "opacity": ".7", "opacity_hover": ".8", "plot_background": "rgba(255, 255, 255, 1)", "stroke_opacity": ".8", "stroke_opacity_hover": ".9", "stroke_width": "1", "stroke_width_hover": "4", "title_font_family": "Consolas, \"Liberation Mono\", Menlo, Courier, monospace", "title_font_size": 16, "tooltip_font_family": "Consolas, \"Liberation Mono\", Menlo, Courier, monospace", "tooltip_font_size": 14, "transition": "150ms", "value_background": "rgba(229, 229, 229, 1)", "value_colors": [], "value_font_family": "Consolas, \"Liberation Mono\", Menlo, Courier, monospace", "value_font_size": 16, "value_label_font_family": "Consolas, \"Liberation Mono\", Menlo, Courier, monospace", "value_label_font_size": 10}, "title": null, "tooltip_border_radius": 0, "tooltip_fancy_mode": true, "truncate_label": null, "truncate_legend": null, "width": 200, "x_label_rotation": 0, "x_labels": ["2025/3", "2025/2", "2025/1", "2024/12", "2024/10", "2024/9", "2024/8", "2024/7", "2024/6", "2024/5", "2024/4", "2024/3", "2024/1", "2023/10"], "x_labels_major": null, "x_labels_major_count": null, "x_labels_major_every": null, "x_title": null, "xrange": null, "y_label_rotation": 0, "y_labels": null, "y_labels_major": null, "y_labels_major_count": null, "y_labels_major_every": null, "y_title": null, "zero": 0, "legends": [""]}</script></defs><title>Pygal</title><g class="graph line-graph vertical"><rect x="0" y="0" width="200" height="50" class="background" /><g transform="translate(20, 10)" class="plot"><rect x="0" y="0" width="170" height="30" class="background" /><g class="axis y always_show"><path d="M0.000000 30.000000 h170.000000" class="line" /><g class="guides"><path d="M0.000000 28.619843 h170.000000" class="guide line" /><text x="-5" y="32.11984284052604" class="">1</text><title>1</title></g><g class="guides"><path d="M0.000000 1.506777 h170.000000" class="guide line" /><text x="-5" y="5.006777307606583" class="">3</text><title>3</title></g></g><g class="series serie-0 color-0"><path d="M3.269231 15.063310 L3.319527 14.975529 3.369822 14.887750 3.420118 14.799979 3.470414 14.712216 3.520710 14.624467 3.571006 14.536734 3.621302 14.449020 3.671598 14.361329 3.721893 14.273664 3.772189 14.186027 3.822485 14.098423 3.872781 14.010854 3.923077 13.923324 3.973373 13.835835 4.023669 13.748392 4.073964 13.660997 4.124260 13.573654 4.174556 13.486365 4.224852 13.399135 4.275148 13.311965 4.325444 13.224860 4.375740 13.137823 4.426036 13.050857 4.476331 12.963964 4.526627 12.877149 4.576923 12.790415 4.627219 12.703764 4.677515 12.617200 4.727811 12.530727 4.778107 12.444347 4.828402 12.358063 4.878698 12.271879 4.928994 12.185799 4.979290 12.099825 5.029586 12.013960 5.079882 11.928208 5.130178 11.842572 5.180473 11.757055 5.230769 11.671661 5.281065 11.586392 5.331361 11.501252 5.381657 11.416244 5.431953 11.331371 5.482249 11.246637 5.532544 11.162045 5.582840 11.077598 5.633136 10.993299 5.683432 10.909151 5.733728 10.825158 5.784024 10.741322 5.834320 10.657648 5.884615 10.574138 5.934911 10.490796 5.985207 10.407624 6.035503 10.324626 6.085799 10.241806 6.136095 10.159166 6.186391 10.076709 6.236686 9.994439 6.286982 9.912360 6.337278 9.830473 6.387574 9.748784 6.437870 9.667293 6.488166 9.586006 6.538462 9.504925 6.588757 9.424054 6.639053 9.343395 6.689349 9.262951 6.739645 9.182727 6.789941 9.102725 6.840237 9.022949 6.890533 8.943401 6.940828 8.864086 6.991124 8.785005 7.041420 8.706163 7.091716 8.627562 7.142012 8.549207 7.192308 8.471099 7.242604 8.393242 7.292899 8.315641 7.343195 8.238296 7.393491 8.161213 7.443787 8.084394 7.494083 8.007842 7.544379 7.931561 7.594675 7.855553 7.644970 7.779823 7.695266 7.704373 7.745562 7.629206 7.795858 7.554327 7.846154 7.479737 7.896450 7.405440 7.946746 7.331439 7.997041 7.257738 8.047337 7.184340 8.097633 7.111248 8.147929 7.038466 8.198225 6.965995 8.248521 6.893841 8.298817 6.822005 8.349112 6.750491 8.399408 6.679303 8.449704 6.608443 8.500000 6.537916 8.550296 6.467723 8.600592 6.397868 8.650888 6.328355 8.701183 6.259187 8.751479 6.190366 8.801775 6.121897 8.852071 6.053782 8.902367 5.986024 8.952663 5.918628 9.002959 5.851595 9.053254 5.784930 9.103550 5.718635 9.153846 5.652713 9.204142 5.587169 9.254438 5.522005 9.304734 5.457224 9.355030 5.392829 9.405325 5.328825 9.455621 5.265213 9.505917 5.201998 9.556213 5.139182 9.606509 5.076769 9.656805 5.014761 9.707101 4.953163 9.757396 4.891977 9.807692 4.831207 9.857988 4.770855 9.908284 4.710926 9.958580 4.651422 10.008876 4.592346 10.059172 4.533701 10.109467 4.475492 10.159763 4.417721 10.210059 4.360391 10.260355 4.303506 10.310651 4.247068 10.360947 4.191081 10.411243 4.135549 10.461538 4.080474 10.511834 4.025860 10.562130 3.971709 10.612426 3.918026 10.662722 3.864813 10.713018 3.812073 10.763314 3.759811 10.813609 3.708028 10.863905 3.656729 10.914201 3.605915 10.964497 3.555592 11.014793 3.505761 11.065089 3.456427 11.115385 3.407592 11.165680 3.359259 11.215976 3.311432 11.266272 3.264114 11.316568 3.217309 11.366864 3.171018 11.417160 3.125247 11.467456 3.079997 11.517751 3.035272 11.568047 2.991076 11.618343 2.947411 11.668639 2.904281 11.718935 2.861688 11.769231 2.819637 11.819527 2.778131 11.869822 2.737172 11.920118 2.696764 11.970414 2.656910 12.020710 2.617613 12.071006 2.578877 12.121302 2.540704 12.171598 2.503099 12.221893 2.466063 12.272189 2.429602 12.322485 2.393716 12.372781 2.358411 12.423077 2.323688 12.473373 2.289552 12.523669 2.256006 12.573964 2.223052 12.624260 2.190694 12.674556 2.158935 12.724852 2.127779 12.775148 2.097228 12.825444 2.067286 12.875740 2.037956 12.926036 2.009242 12.976331 1.981146 13.026627 1.953671 13.076923 1.926822 13.127219 1.900601 13.177515 1.875011 13.227811 1.850056 13.278107 1.825738 13.328402 1.802062 13.378698 1.779030 13.428994 1.756645 13.479290 1.734912 13.529586 1.713832 13.579882 1.693409 13.630178 1.673647 13.680473 1.654548 13.730769 1.636116 13.781065 1.618354 13.831361 1.601265 13.881657 1.584853 13.931953 1.569121 13.982249 1.554071 14.032544 1.539708 14.082840 1.526034 14.133136 1.513052 14.183432 1.500767 14.233728 1.489180 14.284024 1.478296 14.334320 1.468117 14.384615 1.458647 14.434911 1.449889 14.485207 1.441845 14.535503 1.434521 14.585799 1.427918 14.636095 1.422039 14.686391 1.416889 14.736686 1.412470 14.786982 1.408785 14.837278 1.405839 14.887574 1.403633 14.937870 1.402171 14.988166 1.401456 15.038462 1.401492 15.088757 1.402282 15.139053 1.403829 15.189349 1.406136 15.239645 1.409207 15.289941 1.413044 15.340237 1.417652 15.390533 1.423032 15.440828 1.429189 15.491124 1.436125 15.541420 1.443844 15.591716 1.452349 15.642012 1.461643 15.692308 1.471730 15.742604 1.482613 15.792899 1.494294 15.843195 1.506777 15.893491 1.520065 15.943787 1.534152 15.994083 1.549032 16.044379 1.564702 16.094675 1.581153 16.144970 1.598382 16.195266 1.616382 16.245562 1.635147 16.295858 1.654672 16.346154 1.674951 16.396450 1.695978 16.446746 1.717749 16.497041 1.740256 16.547337 1.763494 16.597633 1.787458 16.647929 1.812142 16.698225 1.837540 16.748521 1.863647 16.798817 1.890457 16.849112 1.917963 16.899408 1.946161 16.949704 1.975045 17.000000 2.004609 17.050296 2.034847 17.100592 2.065754 17.150888 2.097324 17.201183 2.129551 17.251479 2.162430 17.301775 2.195954 17.352071 2.230119 17.402367 2.264918 17.452663 2.300346 17.502959 2.336397 17.553254 2.373065 17.603550 2.410346 17.653846 2.448232 17.704142 2.486718 17.754438 2.525799 17.804734 2.565469 17.855030 2.605722 17.905325 2.646553 17.955621 2.687956 18.005917 2.729924 18.056213 2.772453 18.106509 2.815537 18.156805 2.859170 18.207101 2.903346 18.257396 2.948060 18.307692 2.993306 18.357988 3.039078 18.408284 3.085371 18.458580 3.132179 18.508876 3.179495 18.559172 3.227316 18.609467 3.275634 18.659763 3.324444 18.710059 3.373740 18.760355 3.423517 18.810651 3.473770 18.860947 3.524491 18.911243 3.575676 18.961538 3.627320 19.011834 3.679415 19.062130 3.731957 19.112426 3.784939 19.162722 3.838357 19.213018 3.892204 19.263314 3.946475 19.313609 4.001165 19.363905 4.056266 19.414201 4.111774 19.464497 4.167683 19.514793 4.223987 19.565089 4.280681 19.615385 4.337759 19.665680 4.395215 19.715976 4.453044 19.766272 4.511239 19.816568 4.569795 19.866864 4.628707 19.917160 4.687968 19.967456 4.747574 20.017751 4.807518 20.068047 4.867794 20.118343 4.928398 20.168639 4.989322 20.218935 5.050562 20.269231 5.112112 20.319527 5.173966 20.369822 5.236119 20.420118 5.298564 20.470414 5.361297 20.520710 5.424310 20.571006 5.487600 20.621302 5.551159 20.671598 5.614983 20.721893 5.679065 20.772189 5.743400 20.822485 5.807982 20.872781 5.872806 20.923077 5.937866 20.973373 6.003156 21.023669 6.068670 21.073964 6.134403 21.124260 6.200349 21.174556 6.266502 21.224852 6.332857 21.275148 6.399407 21.325444 6.466148 21.375740 6.533074 21.426036 6.600178 21.476331 6.667456 21.526627 6.734901 21.576923 6.802508 21.627219 6.870270 21.677515 6.938184 21.727811 7.006241 21.778107 7.074438 21.828402 7.142768 21.878698 7.211226 21.928994 7.279806 21.979290 7.348502 22.029586 7.417308 22.079882 7.486219 22.130178 7.555229 22.180473 7.624333 22.230769 7.693524 22.281065 7.762798 22.331361 7.832147 22.381657 7.901568 22.431953 7.971053 22.482249 8.040597 22.532544 8.110196 22.582840 8.179842 22.633136 8.249530 22.683432 8.319254 22.733728 8.389010 22.784024 8.458790 22.834320 8.528590 22.884615 8.598403 22.934911 8.668225 22.985207 8.738048 23.035503 8.807869 23.085799 8.877680 23.136095 8.947476 23.186391 9.017252 23.236686 9.087002 23.286982 9.156720 23.337278 9.226400 23.387574 9.296037 23.437870 9.365625 23.488166 9.435159 23.538462 9.504632 23.588757 9.574039 23.639053 9.643374 23.689349 9.712632 23.739645 9.781806 23.789941 9.850892 23.840237 9.919883 23.890533 9.988774 23.940828 10.057559 23.991124 10.126233 24.041420 10.194789 24.091716 10.263222 24.142012 10.331527 24.192308 10.399697 24.242604 10.467727 24.292899 10.535611 24.343195 10.603344 24.393491 10.670919 24.443787 10.738332 24.494083 10.805576 24.544379 10.872646 24.594675 10.939536 24.644970 11.006240 24.695266 11.072753 24.745562 11.139068 24.795858 11.205181 24.846154 11.271086 24.896450 11.336777 24.946746 11.402247 24.997041 11.467492 25.047337 11.532506 25.097633 11.597283 25.147929 11.661818 25.198225 11.726104 25.248521 11.790136 25.298817 11.853908 25.349112 11.917415 25.399408 11.980651 25.449704 12.043610 25.500000 12.106286 25.550296 12.168675 25.600592 12.230769 25.650888 12.292564 25.701183 12.354054 25.751479 12.415233 25.801775 12.476095 25.852071 12.536635 25.902367 12.596847 25.952663 12.656725 26.002959 12.716263 26.053254 12.775457 26.103550 12.834299 26.153846 12.892785 26.204142 12.950909 26.254438 13.008665 26.304734 13.066047 26.355030 13.123050 26.405325 13.179669 26.455621 13.235896 26.505917 13.291727 26.556213 13.347156 26.606509 13.402177 26.656805 13.456784 26.707101 13.510973 26.757396 13.564737 26.807692 13.618070 26.857988 13.670966 26.908284 13.723421 26.958580 13.775428 27.008876 13.826982 27.059172 13.878077 27.109467 13.928707 27.159763 13.978867 27.210059 14.028550 27.260355 14.077752 27.310651 14.126466 27.360947 14.174687 27.411243 14.222409 27.461538 14.269627 27.511834 14.316334 27.562130 14.362525 27.612426 14.408195 27.662722 14.453337 27.713018 14.497946 27.763314 14.542016 27.813609 14.585542 27.863905 14.628518 27.914201 14.670937 27.964497 14.712796 28.014793 14.754087 28.065089 14.794805 28.115385 14.834944 28.165680 14.874499 28.215976 14.913464 28.266272 14.951833 28.316568 14.989601 28.366864 15.026762 28.417160 15.063310 28.467456 15.099241 28.517751 15.134558 28.568047 15.169263 28.618343 15.203363 28.668639 15.236859 28.718935 15.269757 28.769231 15.302060 28.819527 15.333771 28.869822 15.364896 28.920118 15.395438 28.970414 15.425401 29.020710 15.454789 29.071006 15.483605 29.121302 15.511855 29.171598 15.539541 29.221893 15.566667 29.272189 15.593238 29.322485 15.619258 29.372781 15.644730 29.423077 15.669659 29.473373 15.694048 29.523669 15.717901 29.573964 15.741223 29.624260 15.764016 29.674556 15.786286 29.724852 15.808036 29.775148 15.829270 29.825444 15.849992 29.875740 15.870205 29.926036 15.889915 29.976331 15.909124 30.026627 15.927837 30.076923 15.946058 30.127219 15.963790 30.177515 15.981038 30.227811 15.997806 30.278107 16.014097 30.328402 16.029915 30.378698 16.045264 30.428994 16.060149 30.479290 16.074573 30.529586 16.088541 30.579882 16.102055 30.630178 16.115120 30.680473 16.127741 30.730769 16.139920 30.781065 16.151662 30.831361 16.162971 30.881657 16.173851 30.931953 16.184305 30.982249 16.194338 31.032544 16.203954 31.082840 16.213156 31.133136 16.221949 31.183432 16.230336 31.233728 16.238321 31.284024 16.245909 31.334320 16.253103 31.384615 16.259907 31.434911 16.266326 31.485207 16.272362 31.535503 16.278021 31.585799 16.283305 31.636095 16.288219 31.686391 16.292768 31.736686 16.296953 31.786982 16.300781 31.837278 16.304255 31.887574 16.307378 31.937870 16.310154 31.988166 16.312588 32.038462 16.314684 32.088757 16.316445 32.139053 16.317875 32.189349 16.318978 32.239645 16.319759 32.289941 16.320221 32.340237 16.320368 32.390533 16.320204 32.440828 16.319733 32.491124 16.318959 32.541420 16.317886 32.591716 16.316518 32.642012 16.314858 32.692308 16.312912 32.742604 16.310681 32.792899 16.308172 32.843195 16.305387 32.893491 16.302330 32.943787 16.299006 32.994083 16.295419 33.044379 16.291571 33.094675 16.287468 33.144970 16.283113 33.195266 16.278510 33.245562 16.273664 33.295858 16.268577 33.346154 16.263254 33.396450 16.257699 33.446746 16.251916 33.497041 16.245909 33.547337 16.239682 33.597633 16.233238 33.647929 16.226582 33.698225 16.219718 33.748521 16.212649 33.798817 16.205379 33.849112 16.197913 33.899408 16.190254 33.949704 16.182407 34.000000 16.174374 34.050296 16.166161 34.100592 16.157771 34.150888 16.149208 34.201183 16.140476 34.251479 16.131579 34.301775 16.122521 34.352071 16.113306 34.402367 16.103938 34.452663 16.094420 34.502959 16.084757 34.553254 16.074952 34.603550 16.065010 34.653846 16.054935 34.704142 16.044730 34.754438 16.034399 34.804734 16.023947 34.855030 16.013377 34.905325 16.002693 34.955621 15.991900 35.005917 15.981000 35.056213 15.969998 35.106509 15.958899 35.156805 15.947705 35.207101 15.936422 35.257396 15.925052 35.307692 15.913599 35.357988 15.902069 35.408284 15.890464 35.458580 15.878789 35.508876 15.867047 35.559172 15.855243 35.609467 15.843380 35.659763 15.831462 35.710059 15.819494 35.760355 15.807479 35.810651 15.795421 35.860947 15.783324 35.911243 15.771193 35.961538 15.759030 36.011834 15.746840 36.062130 15.734628 36.112426 15.722396 36.162722 15.710149 36.213018 15.697890 36.263314 15.685624 36.313609 15.673355 36.363905 15.661087 36.414201 15.648823 36.464497 15.636567 36.514793 15.624324 36.565089 15.612097 36.615385 15.599890 36.665680 15.587708 36.715976 15.575554 36.766272 15.563432 36.816568 15.551345 36.866864 15.539299 36.917160 15.527297 36.967456 15.515343 37.017751 15.503440 37.068047 15.491594 37.118343 15.479807 37.168639 15.468083 37.218935 15.456427 37.269231 15.444843 37.319527 15.433334 37.369822 15.421905 37.420118 15.410559 37.470414 15.399300 37.520710 15.388133 37.571006 15.377060 37.621302 15.366087 37.671598 15.355217 37.721893 15.344454 37.772189 15.333802 37.822485 15.323265 37.872781 15.312847 37.923077 15.302551 37.973373 15.292382 38.023669 15.282344 38.073964 15.272441 38.124260 15.262676 38.174556 15.253054 38.224852 15.243578 38.275148 15.234252 38.325444 15.225081 38.375740 15.216068 38.426036 15.207217 38.476331 15.198533 38.526627 15.190018 38.576923 15.181678 38.627219 15.173515 38.677515 15.165535 38.727811 15.157740 38.778107 15.150136 38.828402 15.142725 38.878698 15.135511 38.928994 15.128500 38.979290 15.121694 39.029586 15.115097 39.079882 15.108714 39.130178 15.102549 39.180473 15.096604 39.230769 15.090886 39.281065 15.085396 39.331361 15.080140 39.381657 15.075120 39.431953 15.070342 39.482249 15.065809 39.532544 15.061525 39.582840 15.057493 39.633136 15.053719 39.683432 15.050205 39.733728 15.046957 39.784024 15.043976 39.834320 15.041269 39.884615 15.038838 39.934911 15.036687 39.985207 15.034821 40.035503 15.033244 40.085799 15.031958 40.136095 15.030969 40.186391 15.030281 40.236686 15.029896 40.286982 15.029820 40.337278 15.030055 40.387574 15.030607 40.437870 15.031479 40.488166 15.032674 40.538462 15.034197 40.588757 15.036052 40.639053 15.038243 40.689349 15.040774 40.739645 15.043648 40.789941 15.046869 40.840237 15.050442 40.890533 15.054371 40.940828 15.058659 40.991124 15.063310 41.041420 15.068327 41.091716 15.073707 41.142012 15.079443 41.192308 15.085533 41.242604 15.091970 41.292899 15.098751 41.343195 15.105869 41.393491 15.113321 41.443787 15.121100 41.494083 15.129204 41.544379 15.137625 41.594675 15.146361 41.644970 15.155405 41.695266 15.164753 41.745562 15.174400 41.795858 15.184342 41.846154 15.194573 41.896450 15.205088 41.946746 15.215883 41.997041 15.226952 42.047337 15.238292 42.097633 15.249896 42.147929 15.261760 42.198225 15.273880 42.248521 15.286250 42.298817 15.298865 42.349112 15.311722 42.399408 15.324813 42.449704 15.338136 42.500000 15.351685 42.550296 15.365455 42.600592 15.379441 42.650888 15.393638 42.701183 15.408042 42.751479 15.422648 42.801775 15.437450 42.852071 15.452444 42.902367 15.467626 42.952663 15.482989 43.002959 15.498530 43.053254 15.514243 43.103550 15.530124 43.153846 15.546167 43.204142 15.562369 43.254438 15.578723 43.304734 15.595225 43.355030 15.611870 43.405325 15.628654 43.455621 15.645571 43.505917 15.662617 43.556213 15.679786 43.606509 15.697074 43.656805 15.714477 43.707101 15.731988 43.757396 15.749603 43.807692 15.767318 43.857988 15.785127 43.908284 15.803026 43.958580 15.821010 44.008876 15.839074 44.059172 15.857212 44.109467 15.875421 44.159763 15.893695 44.210059 15.912029 44.260355 15.930419 44.310651 15.948859 44.360947 15.967345 44.411243 15.985872 44.461538 16.004435 44.511834 16.023029 44.562130 16.041650 44.612426 16.060292 44.662722 16.078950 44.713018 16.097620 44.763314 16.116297 44.813609 16.134976 44.863905 16.153652 44.914201 16.172320 44.964497 16.190975 45.014793 16.209613 45.065089 16.228228 45.115385 16.246816 45.165680 16.265372 45.215976 16.283891 45.266272 16.302367 45.316568 16.320798 45.366864 16.339176 45.417160 16.357498 45.467456 16.375758 45.517751 16.393952 45.568047 16.412076 45.618343 16.430123 45.668639 16.448089 45.718935 16.465969 45.769231 16.483759 45.819527 16.501453 45.869822 16.519047 45.920118 16.536535 45.970414 16.553914 46.020710 16.571177 46.071006 16.588321 46.121302 16.605340 46.171598 16.622229 46.221893 16.638984 46.272189 16.655599 46.322485 16.672071 46.372781 16.688393 46.423077 16.704561 46.473373 16.720570 46.523669 16.736416 46.573964 16.752093 46.624260 16.767597 46.674556 16.782922 46.724852 16.798064 46.775148 16.813018 46.825444 16.827780 46.875740 16.842343 46.926036 16.856704 46.976331 16.870857 47.026627 16.884798 47.076923 16.898521 47.127219 16.912022 47.177515 16.925297 47.227811 16.938339 47.278107 16.951144 47.328402 16.963708 47.378698 16.976026 47.428994 16.988092 47.479290 16.999902 47.529586 17.011450 47.579882 17.022733 47.630178 17.033745 47.680473 17.044481 47.730769 17.054936 47.781065 17.065106 47.831361 17.074986 47.881657 17.084570 47.931953 17.093854 47.982249 17.102834 48.032544 17.111503 48.082840 17.119858 48.133136 17.127893 48.183432 17.135604 48.233728 17.142985 48.284024 17.150032 48.334320 17.156740 48.384615 17.163105 48.434911 17.169120 48.485207 17.174782 48.535503 17.180085 48.585799 17.185024 48.636095 17.189596 48.686391 17.193794 48.736686 17.197614 48.786982 17.201052 48.837278 17.204101 48.887574 17.206758 48.937870 17.209017 48.988166 17.210874 49.038462 17.212324 49.088757 17.213362 49.139053 17.213982 49.189349 17.214181 49.239645 17.213953 49.289941 17.213293 49.340237 17.212197 49.390533 17.210659 49.440828 17.208675 49.491124 17.206240 49.541420 17.203349 49.591716 17.199998 49.642012 17.196180 49.692308 17.191892 49.742604 17.187129 49.792899 17.181885 49.843195 17.176156 49.893491 17.169937 49.943787 17.163223 49.994083 17.156009 50.044379 17.148290 50.094675 17.140062 50.144970 17.131319 50.195266 17.122057 50.245562 17.112271 50.295858 17.101956 50.346154 17.091107 50.396450 17.079719 50.446746 17.067788 50.497041 17.055308 50.547337 17.042274 50.597633 17.028683 50.647929 17.014528 50.698225 16.999805 50.748521 16.984509 50.798817 16.968636 50.849112 16.952180 50.899408 16.935136 50.949704 16.917500 51.000000 16.899267 51.050296 16.880431 51.100592 16.860989 51.150888 16.840935 51.201183 16.820264 51.251479 16.798971 51.301775 16.777052 51.352071 16.754502 51.402367 16.731315 51.452663 16.707488 51.502959 16.683014 51.553254 16.657890 51.603550 16.632109 51.653846 16.605669 51.704142 16.578563 51.754438 16.550786 51.804734 16.522334 51.855030 16.493203 51.905325 16.463386 51.955621 16.432880 52.005917 16.401679 52.056213 16.369778 52.106509 16.337173 52.156805 16.303858 52.207101 16.269830 52.257396 16.235082 52.307692 16.199611 52.357988 16.163411 52.408284 16.126477 52.458580 16.088805 52.508876 16.050389 52.559172 16.011225 52.609467 15.971308 52.659763 15.930633 52.710059 15.889195 52.760355 15.846989 52.810651 15.804011 52.860947 15.760255 52.911243 15.715717 52.961538 15.670391 53.011834 15.624274 53.062130 15.577359 53.112426 15.529643 53.162722 15.481120 53.213018 15.431785 53.263314 15.381634 53.313609 15.330662 53.363905 15.278864 53.414201 15.226234 53.464497 15.172768 53.514793 15.118462 53.565089 15.063310 53.615385 15.007310 53.665680 14.950470 53.715976 14.892800 53.766272 14.834310 53.816568 14.775011 53.866864 14.714913 53.917160 14.654027 53.967456 14.592363 54.017751 14.529930 54.068047 14.466740 54.118343 14.402803 54.168639 14.338129 54.218935 14.272729 54.269231 14.206612 54.319527 14.139790 54.369822 14.072272 54.420118 14.004069 54.470414 13.935191 54.520710 13.865649 54.571006 13.795452 54.621302 13.724611 54.671598 13.653138 54.721893 13.581040 54.772189 13.508331 54.822485 13.435018 54.872781 13.361114 54.923077 13.286627 54.973373 13.211570 55.023669 13.135951 55.073964 13.059781 55.124260 12.983071 55.174556 12.905830 55.224852 12.828070 55.275148 12.749801 55.325444 12.671032 55.375740 12.591775 55.426036 12.512039 55.476331 12.431835 55.526627 12.351173 55.576923 12.270064 55.627219 12.188517 55.677515 12.106544 55.727811 12.024155 55.778107 11.941359 55.828402 11.858168 55.878698 11.774591 55.928994 11.690639 55.979290 11.606322 56.029586 11.521651 56.079882 11.436636 56.130178 11.351287 56.180473 11.265615 56.230769 11.179630 56.281065 11.093342 56.331361 11.006761 56.381657 10.919899 56.431953 10.832765 56.482249 10.745369 56.532544 10.657722 56.582840 10.569835 56.633136 10.481717 56.683432 10.393379 56.733728 10.304832 56.784024 10.216085 56.834320 10.127149 56.884615 10.038035 56.934911 9.948752 56.985207 9.859311 57.035503 9.769722 57.085799 9.679996 57.136095 9.590143 57.186391 9.500173 57.236686 9.410097 57.286982 9.319925 57.337278 9.229668 57.387574 9.139335 57.437870 9.048937 57.488166 8.958484 57.538462 8.867987 57.588757 8.777456 57.639053 8.686901 57.689349 8.596333 57.739645 8.505762 57.789941 8.415199 57.840237 8.324653 57.890533 8.234135 57.940828 8.143656 57.991124 8.053225 58.041420 7.962853 58.091716 7.872551 58.142012 7.782328 58.192308 7.692195 58.242604 7.602163 58.292899 7.512242 58.343195 7.422441 58.393491 7.332772 58.443787 7.243245 58.494083 7.153869 58.544379 7.064657 58.594675 6.975616 58.644970 6.886759 58.695266 6.798096 58.745562 6.709636 58.795858 6.621390 58.846154 6.533369 58.896450 6.445582 58.946746 6.358040 58.997041 6.270754 59.047337 6.183734 59.097633 6.096990 59.147929 6.010532 59.198225 5.924371 59.248521 5.838517 59.298817 5.752980 59.349112 5.667771 59.399408 5.582901 59.449704 5.498379 59.500000 5.414215 59.550296 5.330421 59.600592 5.247006 59.650888 5.163981 59.701183 5.081356 59.751479 4.999142 59.801775 4.917348 59.852071 4.835986 59.902367 4.755065 59.952663 4.674596 60.002959 4.594589 60.053254 4.515054 60.103550 4.436003 60.153846 4.357444 60.204142 4.279389 60.254438 4.201848 60.304734 4.124831 60.355030 4.048349 60.405325 3.972411 60.455621 3.897028 60.505917 3.822211 60.556213 3.747970 60.606509 3.674315 60.656805 3.601257 60.707101 3.528805 60.757396 3.456971 60.807692 3.385764 60.857988 3.315195 60.908284 3.245275 60.958580 3.176012 61.008876 3.107419 61.059172 3.039505 61.109467 2.972280 61.159763 2.905756 61.210059 2.839941 61.260355 2.774847 61.310651 2.710484 61.360947 2.646862 61.411243 2.583992 61.461538 2.521884 61.511834 2.460548 61.562130 2.399994 61.612426 2.340234 61.662722 2.281276 61.713018 2.223133 61.763314 2.165813 61.813609 2.109327 61.863905 2.053686 61.914201 1.998900 61.964497 1.944979 62.014793 1.891934 62.065089 1.839775 62.115385 1.788512 62.165680 1.738156 62.215976 1.688716 62.266272 1.640204 62.316568 1.592629 62.366864 1.546003 62.417160 1.500335 62.467456 1.455635 62.517751 1.411914 62.568047 1.369183 62.618343 1.327451 62.668639 1.286729 62.718935 1.247028 62.769231 1.208357 62.819527 1.170727 62.869822 1.134149 62.920118 1.098632 62.970414 1.064187 63.020710 1.030824 63.071006 0.998554 63.121302 0.967388 63.171598 0.937334 63.221893 0.908404 63.272189 0.880608 63.322485 0.853957 63.372781 0.828460 63.423077 0.804128 63.473373 0.780971 63.523669 0.759001 63.573964 0.738226 63.624260 0.718657 63.674556 0.700306 63.724852 0.683181 63.775148 0.667294 63.825444 0.652654 63.875740 0.639273 63.926036 0.627159 63.976331 0.616325 64.026627 0.606779 64.076923 0.598533 64.127219 0.591597 64.177515 0.585981 64.227811 0.581695 64.278107 0.578750 64.328402 0.577156 64.378698 0.576923 64.428994 0.578062 64.479290 0.580583 64.529586 0.584497 64.579882 0.589813 64.630178 0.596543 64.680473 0.604695 64.730769 0.614282 64.781065 0.625313 64.831361 0.637798 64.881657 0.651748 64.931953 0.667173 64.982249 0.684083 65.032544 0.702489 65.082840 0.722402 65.133136 0.743830 65.183432 0.766786 65.233728 0.791279 65.284024 0.817319 65.334320 0.844917 65.384615 0.874083 65.434911 0.904827 65.485207 0.937160 65.535503 0.971093 65.585799 1.006635 65.636095 1.043797 65.686391 1.082588 65.736686 1.123021 65.786982 1.165104 65.837278 1.208848 65.887574 1.254264 65.937870 1.301362 65.988166 1.350152 66.038462 1.400644 66.088757 1.452849 66.139053 1.506777 66.189349 1.562435 66.239645 1.619810 66.289941 1.678888 66.340237 1.739652 66.390533 1.802087 66.440828 1.866177 66.491124 1.931907 66.541420 1.999261 66.591716 2.068223 66.642012 2.138778 66.692308 2.210910 66.742604 2.284603 66.792899 2.359842 66.843195 2.436610 66.893491 2.514894 66.943787 2.594676 66.994083 2.675941 67.044379 2.758674 67.094675 2.842858 67.144970 2.928478 67.195266 3.015519 67.245562 3.103965 67.295858 3.193800 67.346154 3.285009 67.396450 3.377575 67.446746 3.471484 67.497041 3.566719 67.547337 3.663265 67.597633 3.761107 67.647929 3.860228 67.698225 3.960613 67.748521 4.062247 67.798817 4.165113 67.849112 4.269196 67.899408 4.374481 67.949704 4.480951 68.000000 4.588591 68.050296 4.697386 68.100592 4.807320 68.150888 4.918376 68.201183 5.030540 68.251479 5.143796 68.301775 5.258128 68.352071 5.373521 68.402367 5.489959 68.452663 5.607425 68.502959 5.725906 68.553254 5.845384 68.603550 5.965845 68.653846 6.087272 68.704142 6.209650 68.754438 6.332963 68.804734 6.457196 68.855030 6.582333 68.905325 6.708359 68.955621 6.835257 69.005917 6.963012 69.056213 7.091609 69.106509 7.221031 69.156805 7.351264 69.207101 7.482291 69.257396 7.614097 69.307692 7.746666 69.357988 7.879982 69.408284 8.014030 69.458580 8.148795 69.508876 8.284260 69.559172 8.420410 69.609467 8.557229 69.659763 8.694702 69.710059 8.832813 69.760355 8.971546 69.810651 9.110885 69.860947 9.250816 69.911243 9.391322 69.961538 9.532388 70.011834 9.673998 70.062130 9.816136 70.112426 9.958787 70.162722 10.101935 70.213018 10.245564 70.263314 10.389660 70.313609 10.534205 70.363905 10.679185 70.414201 10.824583 70.464497 10.970385 70.514793 11.116575 70.565089 11.263136 70.615385 11.410054 70.665680 11.557312 70.715976 11.704895 70.766272 11.852787 70.816568 12.000973 70.866864 12.149437 70.917160 12.298163 70.967456 12.447136 71.017751 12.596340 71.068047 12.745760 71.118343 12.895379 71.168639 13.045182 71.218935 13.195154 71.269231 13.345278 71.319527 13.495539 71.369822 13.645922 71.420118 13.796411 71.470414 13.946990 71.520710 14.097644 71.571006 14.248356 71.621302 14.399111 71.671598 14.549895 71.721893 14.700690 71.772189 14.851481 71.822485 15.002253 71.872781 15.152990 71.923077 15.303676 71.973373 15.454296 72.023669 15.604834 72.073964 15.755274 72.124260 15.905601 72.174556 16.055799 72.224852 16.205852 72.275148 16.355745 72.325444 16.505462 72.375740 16.654988 72.426036 16.804307 72.476331 16.953402 72.526627 17.102259 72.576923 17.250862 72.627219 17.399196 72.677515 17.547243 72.727811 17.694990 72.778107 17.842420 72.828402 17.989518 72.878698 18.136267 72.928994 18.282653 72.979290 18.428659 73.029586 18.574270 73.079882 18.719471 73.130178 18.864246 73.180473 19.008578 73.230769 19.152453 73.281065 19.295854 73.331361 19.438767 73.381657 19.581175 73.431953 19.723063 73.482249 19.864415 73.532544 20.005216 73.582840 20.145449 73.633136 20.285100 73.683432 20.424152 73.733728 20.562590 73.784024 20.700398 73.834320 20.837560 73.884615 20.974062 73.934911 21.109887 73.985207 21.245020 74.035503 21.379444 74.085799 21.513145 74.136095 21.646107 74.186391 21.778313 74.236686 21.909749 74.286982 22.040399 74.337278 22.170247 74.387574 22.299277 74.437870 22.427474 74.488166 22.554822 74.538462 22.681305 74.588757 22.806909 74.639053 22.931616 74.689349 23.055412 74.739645 23.178281 74.789941 23.300207 74.840237 23.421175 74.890533 23.541168 74.940828 23.660172 74.991124 23.778171 75.041420 23.895148 75.091716 24.011089 75.142012 24.125977 75.192308 24.239798 75.242604 24.352534 75.292899 24.464172 75.343195 24.574694 75.393491 24.684086 75.443787 24.792332 75.494083 24.899415 75.544379 25.005322 75.594675 25.110035 75.644970 25.213539 75.695266 25.315818 75.745562 25.416858 75.795858 25.516642 75.846154 25.615154 75.896450 25.712379 75.946746 25.808301 75.997041 25.902905 76.047337 25.996175 76.097633 26.088095 76.147929 26.178650 76.198225 26.267824 76.248521 26.355601 76.298817 26.441966 76.349112 26.526903 76.399408 26.610396 76.449704 26.692430 76.500000 26.772989 76.550296 26.852058 76.600592 26.929620 76.650888 27.005661 76.701183 27.080163 76.751479 27.153113 76.801775 27.224494 76.852071 27.294291 76.902367 27.362487 76.952663 27.429068 77.002959 27.494017 77.053254 27.557319 77.103550 27.618958 77.153846 27.678919 77.204142 27.737186 77.254438 27.793743 77.304734 27.848575 77.355030 27.901666 77.405325 27.953000 77.455621 28.002562 77.505917 28.050337 77.556213 28.096307 77.606509 28.140458 77.656805 28.182775 77.707101 28.223241 77.757396 28.261840 77.807692 28.298558 77.857988 28.333378 77.908284 28.366286 77.958580 28.397264 78.008876 28.426298 78.059172 28.453372 78.109467 28.478470 78.159763 28.501577 78.210059 28.522676 78.260355 28.541753 78.310651 28.558792 78.360947 28.573777 78.411243 28.586692 78.461538 28.597522 78.511834 28.606250 78.562130 28.612862 78.612426 28.617342 78.662722 28.619674 78.713018 28.619843 78.763314 28.617837 78.813609 28.613668 78.863905 28.607352 78.914201 28.598904 78.964497 28.588340 79.014793 28.575676 79.065089 28.560927 79.115385 28.544111 79.165680 28.525241 79.215976 28.504335 79.266272 28.481408 79.316568 28.456476 79.366864 28.429555 79.417160 28.400660 79.467456 28.369807 79.517751 28.337013 79.568047 28.302293 79.618343 28.265662 79.668639 28.227137 79.718935 28.186734 79.769231 28.144468 79.819527 28.100356 79.869822 28.054412 79.920118 28.006653 79.970414 27.957095 80.020710 27.905753 80.071006 27.852644 80.121302 27.797782 80.171598 27.741185 80.221893 27.682867 80.272189 27.622845 80.322485 27.561135 80.372781 27.497752 80.423077 27.432711 80.473373 27.366030 80.523669 27.297724 80.573964 27.227808 80.624260 27.156298 80.674556 27.083211 80.724852 27.008562 80.775148 26.932366 80.825444 26.854641 80.875740 26.775401 80.926036 26.694662 80.976331 26.612440 81.026627 26.528752 81.076923 26.443612 81.127219 26.357037 81.177515 26.269043 81.227811 26.179645 81.278107 26.088859 81.328402 25.996701 81.378698 25.903186 81.428994 25.808332 81.479290 25.712153 81.529586 25.614665 81.579882 25.515884 81.630178 25.415826 81.680473 25.314507 81.730769 25.211943 81.781065 25.108149 81.831361 25.003141 81.881657 24.896936 81.931953 24.789548 81.982249 24.680994 82.032544 24.571290 82.082840 24.460451 82.133136 24.348493 82.183432 24.235432 82.233728 24.121284 82.284024 24.006065 82.334320 23.889791 82.384615 23.772476 82.434911 23.654138 82.485207 23.534792 82.535503 23.414454 82.585799 23.293139 82.636095 23.170864 82.686391 23.047644 82.736686 22.923496 82.786982 22.798434 82.837278 22.672475 82.887574 22.545635 82.937870 22.417929 82.988166 22.289374 83.038462 22.159984 83.088757 22.029777 83.139053 21.898767 83.189349 21.766971 83.239645 21.634404 83.289941 21.501083 83.340237 21.367023 83.390533 21.232239 83.440828 21.096748 83.491124 20.960566 83.541420 20.823708 83.591716 20.686191 83.642012 20.548029 83.692308 20.409240 83.742604 20.269838 83.792899 20.129839 83.843195 19.989260 83.893491 19.848116 83.943787 19.706423 83.994083 19.564197 84.044379 19.421453 84.094675 19.278208 84.144970 19.134478 84.195266 18.990277 84.245562 18.845622 84.295858 18.700530 84.346154 18.555014 84.396450 18.409093 84.446746 18.262780 84.497041 18.116093 84.547337 17.969046 84.597633 17.821657 84.647929 17.673939 84.698225 17.525911 84.748521 17.377586 84.798817 17.228982 84.849112 17.080113 84.899408 16.930996 84.949704 16.781647 85.000000 16.632081 85.050296 16.482314 85.100592 16.332363 85.150888 16.182242 85.201183 16.031968 85.251479 15.881556 85.301775 15.731023 85.352071 15.580384 85.402367 15.429654 85.452663 15.278851 85.502959 15.127989 85.553254 14.977085 85.603550 14.826154 85.653846 14.675212 85.704142 14.524275 85.754438 14.373359 85.804734 14.222480 85.855030 14.071653 85.905325 13.920894 85.955621 13.770219 86.005917 13.619644 86.056213 13.469185 86.106509 13.318858 86.156805 13.168678 86.207101 13.018661 86.257396 12.868823 86.307692 12.719180 86.357988 12.569748 86.408284 12.420542 86.458580 12.271579 86.508876 12.122874 86.559172 11.974443 86.609467 11.826301 86.659763 11.678466 86.710059 11.530951 86.760355 11.383775 86.810651 11.236951 86.860947 11.090496 86.911243 10.944426 86.961538 10.798757 87.011834 10.653504 87.062130 10.508684 87.112426 10.364311 87.162722 10.220403 87.213018 10.076974 87.263314 9.934041 87.313609 9.791619 87.363905 9.649725 87.414201 9.508374 87.464497 9.367581 87.514793 9.227364 87.565089 9.087736 87.615385 8.948716 87.665680 8.810317 87.715976 8.672556 87.766272 8.535450 87.816568 8.399013 87.866864 8.263261 87.917160 8.128211 87.967456 7.993878 88.017751 7.860278 88.068047 7.727427 88.118343 7.595341 88.168639 7.464035 88.218935 7.333525 88.269231 7.203828 88.319527 7.074958 88.369822 6.946933 88.420118 6.819767 88.470414 6.693476 88.520710 6.568076 88.571006 6.443584 88.621302 6.320015 88.671598 6.197384 88.721893 6.075708 88.772189 5.955003 88.822485 5.835283 88.872781 5.716566 88.923077 5.598866 88.973373 5.482201 89.023669 5.366585 89.073964 5.252034 89.124260 5.138564 89.174556 5.026192 89.224852 4.914932 89.275148 4.804801 89.325444 4.695815 89.375740 4.587988 89.426036 4.481338 89.476331 4.375880 89.526627 4.271630 89.576923 4.168604 89.627219 4.066817 89.677515 3.966285 89.727811 3.867024 89.778107 3.769051 89.828402 3.672380 89.878698 3.577027 89.928994 3.483010 89.979290 3.390342 90.029586 3.299040 90.079882 3.209121 90.130178 3.120599 90.180473 3.033491 90.230769 2.947812 90.281065 2.863578 90.331361 2.780806 90.381657 2.699510 90.431953 2.619707 90.482249 2.541413 90.532544 2.464643 90.582840 2.389413 90.633136 2.315739 90.683432 2.243637 90.733728 2.173122 90.784024 2.104211 90.834320 2.036920 90.884615 1.971264 90.934911 1.907258 90.985207 1.844920 91.035503 1.784264 91.085799 1.725306 91.136095 1.668063 91.186391 1.612550 91.236686 1.558783 91.286982 1.506777 91.337278 1.456545 91.387574 1.408079 91.437870 1.361368 91.488166 1.316402 91.538462 1.273168 91.588757 1.231655 91.639053 1.191853 91.689349 1.153750 91.739645 1.117334 91.789941 1.082595 91.840237 1.049522 91.890533 1.018103 91.940828 0.988327 91.991124 0.960183 92.041420 0.933659 92.091716 0.908744 92.142012 0.885428 92.192308 0.863699 92.242604 0.843545 92.292899 0.824955 92.343195 0.807919 92.393491 0.792425 92.443787 0.778462 92.494083 0.766018 92.544379 0.755083 92.594675 0.745645 92.644970 0.737693 92.695266 0.731215 92.745562 0.726201 92.795858 0.722639 92.846154 0.720519 92.896450 0.719828 92.946746 0.720555 92.997041 0.722691 93.047337 0.726222 93.097633 0.731138 93.147929 0.737428 93.198225 0.745081 93.248521 0.754085 93.298817 0.764429 93.349112 0.776102 93.399408 0.789092 93.449704 0.803389 93.500000 0.818981 93.550296 0.835858 93.600592 0.854007 93.650888 0.873417 93.701183 0.894078 93.751479 0.915978 93.801775 0.939106 93.852071 0.963451 93.902367 0.989001 93.952663 1.015745 94.002959 1.043673 94.053254 1.072772 94.103550 1.103032 94.153846 1.134441 94.204142 1.166989 94.254438 1.200663 94.304734 1.235453 94.355030 1.271348 94.405325 1.308336 94.455621 1.346406 94.505917 1.385547 94.556213 1.425747 94.606509 1.466996 94.656805 1.509282 94.707101 1.552594 94.757396 1.596921 94.807692 1.642252 94.857988 1.688575 94.908284 1.735879 94.958580 1.784152 95.008876 1.833385 95.059172 1.883565 95.109467 1.934681 95.159763 1.986722 95.210059 2.039677 95.260355 2.093535 95.310651 2.148284 95.360947 2.203913 95.411243 2.260411 95.461538 2.317767 95.511834 2.375970 95.562130 2.435007 95.612426 2.494869 95.662722 2.555544 95.713018 2.617020 95.763314 2.679286 95.813609 2.742332 95.863905 2.806146 95.914201 2.870716 95.964497 2.936032 96.014793 3.002083 96.065089 3.068856 96.115385 3.136342 96.165680 3.204528 96.215976 3.273403 96.266272 3.342957 96.316568 3.413178 96.366864 3.484054 96.417160 3.555575 96.467456 3.627730 96.517751 3.700506 96.568047 3.773894 96.618343 3.847881 96.668639 3.922457 96.718935 3.997610 96.769231 4.073329 96.819527 4.149603 96.869822 4.226420 96.920118 4.303770 96.970414 4.381641 97.020710 4.460022 97.071006 4.538902 97.121302 4.618269 97.171598 4.698113 97.221893 4.778422 97.272189 4.859184 97.322485 4.940389 97.372781 5.022026 97.423077 5.104083 97.473373 5.186549 97.523669 5.269412 97.573964 5.352663 97.624260 5.436288 97.674556 5.520278 97.724852 5.604620 97.775148 5.689305 97.825444 5.774319 97.875740 5.859653 97.926036 5.945295 97.976331 6.031234 98.026627 6.117459 98.076923 6.203958 98.127219 6.290720 98.177515 6.377734 98.227811 6.464988 98.278107 6.552473 98.328402 6.640175 98.378698 6.728085 98.428994 6.816190 98.479290 6.904480 98.529586 6.992944 98.579882 7.081569 98.630178 7.170346 98.680473 7.259262 98.730769 7.348307 98.781065 7.437470 98.831361 7.526738 98.881657 7.616101 98.931953 7.705548 98.982249 7.795068 99.032544 7.884648 99.082840 7.974279 99.133136 8.063949 99.183432 8.153646 99.233728 8.243359 99.284024 8.333078 99.334320 8.422790 99.384615 8.512486 99.434911 8.602152 99.485207 8.691779 99.535503 8.781356 99.585799 8.870870 99.636095 8.960310 99.686391 9.049666 99.736686 9.138926 99.786982 9.228079 99.837278 9.317114 99.887574 9.406020 99.937870 9.494784 99.988166 9.583397 100.038462 9.671847 100.088757 9.760122 100.139053 9.848212 100.189349 9.936105 100.239645 10.023790 100.289941 10.111256 100.340237 10.198491 100.390533 10.285485 100.440828 10.372226 100.491124 10.458703 100.541420 10.544904 100.591716 10.630819 100.642012 10.716436 100.692308 10.801745 100.742604 10.886733 100.792899 10.971390 100.843195 11.055704 100.893491 11.139664 100.943787 11.223259 100.994083 11.306478 101.044379 11.389310 101.094675 11.471743 101.144970 11.553765 101.195266 11.635367 101.245562 11.716537 101.295858 11.797262 101.346154 11.877533 101.396450 11.957338 101.446746 12.036666 101.497041 12.115506 101.547337 12.193845 101.597633 12.271674 101.647929 12.348981 101.698225 12.425754 101.748521 12.501983 101.798817 12.577656 101.849112 12.652762 101.899408 12.727290 101.949704 12.801229 102.000000 12.874567 102.050296 12.947293 102.100592 13.019396 102.150888 13.090865 102.201183 13.161688 102.251479 13.231855 102.301775 13.301353 102.352071 13.370173 102.402367 13.438302 102.452663 13.505729 102.502959 13.572444 102.553254 13.638435 102.603550 13.703690 102.653846 13.768199 102.704142 13.831950 102.754438 13.894933 102.804734 13.957135 102.855030 14.018546 102.905325 14.079154 102.955621 14.138949 103.005917 14.197919 103.056213 14.256052 103.106509 14.313338 103.156805 14.369766 103.207101 14.425323 103.257396 14.480000 103.307692 14.533784 103.357988 14.586664 103.408284 14.638630 103.458580 14.689670 103.508876 14.739773 103.559172 14.788928 103.609467 14.837122 103.659763 14.884347 103.710059 14.930589 103.760355 14.975837 103.810651 15.020082 103.860947 15.063310 103.911243 15.105515 103.961538 15.146701 104.011834 15.186877 104.062130 15.226050 104.112426 15.264230 104.162722 15.301424 104.213018 15.337640 104.263314 15.372886 104.313609 15.407172 104.363905 15.440505 104.414201 15.472893 104.464497 15.504344 104.514793 15.534868 104.565089 15.564471 104.615385 15.593163 104.665680 15.620950 104.715976 15.647843 104.766272 15.673848 104.816568 15.698975 104.866864 15.723231 104.917160 15.746624 104.967456 15.769163 105.017751 15.790856 105.068047 15.811712 105.118343 15.831737 105.168639 15.850942 105.218935 15.869333 105.269231 15.886919 105.319527 15.903709 105.369822 15.919710 105.420118 15.934931 105.470414 15.949380 105.520710 15.963065 105.571006 15.975994 105.621302 15.988176 105.671598 15.999619 105.721893 16.010331 105.772189 16.020321 105.822485 16.029596 105.872781 16.038164 105.923077 16.046035 105.973373 16.053216 106.023669 16.059715 106.073964 16.065541 106.124260 16.070702 106.174556 16.075206 106.224852 16.079061 106.275148 16.082275 106.325444 16.084858 106.375740 16.086816 106.426036 16.088159 106.476331 16.088894 106.526627 16.089030 106.576923 16.088574 106.627219 16.087536 106.677515 16.085923 106.727811 16.083743 106.778107 16.081005 106.828402 16.077717 106.878698 16.073888 106.928994 16.069524 106.979290 16.064636 107.029586 16.059230 107.079882 16.053315 107.130178 16.046900 107.180473 16.039992 107.230769 16.032600 107.281065 16.024732 107.331361 16.016396 107.381657 16.007601 107.431953 15.998354 107.482249 15.988664 107.532544 15.978539 107.582840 15.967987 107.633136 15.957017 107.683432 15.945637 107.733728 15.933854 107.784024 15.921678 107.834320 15.909116 107.884615 15.896177 107.934911 15.882869 107.985207 15.869200 108.035503 15.855178 108.085799 15.840811 108.136095 15.826109 108.186391 15.811078 108.236686 15.795728 108.286982 15.780066 108.337278 15.764100 108.387574 15.747840 108.437870 15.731292 108.488166 15.714466 108.538462 15.697369 108.588757 15.680010 108.639053 15.662397 108.689349 15.644538 108.739645 15.626442 108.789941 15.608116 108.840237 15.589569 108.890533 15.570810 108.940828 15.551845 108.991124 15.532684 109.041420 15.513335 109.091716 15.493806 109.142012 15.474105 109.192308 15.454240 109.242604 15.434220 109.292899 15.414053 109.343195 15.393746 109.393491 15.373310 109.443787 15.352750 109.494083 15.332077 109.544379 15.311297 109.594675 15.290420 109.644970 15.269453 109.695266 15.248404 109.745562 15.227283 109.795858 15.206096 109.846154 15.184853 109.896450 15.163562 109.946746 15.142230 109.997041 15.120866 110.047337 15.099478 110.097633 15.078075 110.147929 15.056664 110.198225 15.035254 110.248521 15.013853 110.298817 14.992470 110.349112 14.971112 110.399408 14.949788 110.449704 14.928505 110.500000 14.907273 110.550296 14.886099 110.600592 14.864992 110.650888 14.843960 110.701183 14.823011 110.751479 14.802153 110.801775 14.781395 110.852071 14.760744 110.902367 14.740210 110.952663 14.719799 111.002959 14.699521 111.053254 14.679384 111.103550 14.659395 111.153846 14.639564 111.204142 14.619897 111.254438 14.600405 111.304734 14.581094 111.355030 14.561973 111.405325 14.543050 111.455621 14.524333 111.505917 14.505832 111.556213 14.487553 111.606509 14.469505 111.656805 14.451696 111.707101 14.434135 111.757396 14.416830 111.807692 14.399788 111.857988 14.383019 111.908284 14.366530 111.958580 14.350330 112.008876 14.334427 112.059172 14.318829 112.109467 14.303544 112.159763 14.288580 112.210059 14.273946 112.260355 14.259651 112.310651 14.245701 112.360947 14.232106 112.411243 14.218873 112.461538 14.206012 112.511834 14.193529 112.562130 14.181433 112.612426 14.169734 112.662722 14.158437 112.713018 14.147553 112.763314 14.137089 112.813609 14.127054 112.863905 14.117455 112.914201 14.108301 112.964497 14.099599 113.014793 14.091360 113.065089 14.083589 113.115385 14.076297 113.165680 14.069490 113.215976 14.063178 113.266272 14.057368 113.316568 14.052068 113.366864 14.047288 113.417160 14.043034 113.467456 14.039316 113.517751 14.036141 113.568047 14.033518 113.618343 14.031455 113.668639 14.029961 113.718935 14.029042 113.769231 14.028708 113.819527 14.028967 113.869822 14.029827 113.920118 14.031297 113.970414 14.033384 114.020710 14.036096 114.071006 14.039443 114.121302 14.043431 114.171598 14.048071 114.221893 14.053368 114.272189 14.059333 114.322485 14.065972 114.372781 14.073295 114.423077 14.081310 114.473373 14.090024 114.523669 14.099446 114.573964 14.109584 114.624260 14.120447 114.674556 14.132042 114.724852 14.144378 114.775148 14.157463 114.825444 14.171306 114.875740 14.185914 114.926036 14.201296 114.976331 14.217459 115.026627 14.234413 115.076923 14.252165 115.127219 14.270724 115.177515 14.290098 115.227811 14.310294 115.278107 14.331322 115.328402 14.353190 115.378698 14.375905 115.428994 14.399476 115.479290 14.423911 115.529586 14.449219 115.579882 14.475408 115.630178 14.502485 115.680473 14.530459 115.730769 14.559338 115.781065 14.589131 115.831361 14.619846 115.881657 14.651491 115.931953 14.684074 115.982249 14.717603 116.032544 14.752087 116.082840 14.787533 116.133136 14.823951 116.183432 14.861348 116.233728 14.899733 116.284024 14.939113 116.334320 14.979497 116.384615 15.020893 116.434911 15.063310 116.485207 15.106752 116.535503 15.151212 116.585799 15.196677 116.636095 15.243138 116.686391 15.290581 116.736686 15.338998 116.786982 15.388375 116.837278 15.438702 116.887574 15.489968 116.937870 15.542161 116.988166 15.595270 117.038462 15.649283 117.088757 15.704191 117.139053 15.759980 117.189349 15.816641 117.239645 15.874161 117.289941 15.932529 117.340237 15.991735 117.390533 16.051767 117.440828 16.112614 117.491124 16.174264 117.541420 16.236706 117.591716 16.299929 117.642012 16.363921 117.692308 16.428672 117.742604 16.494171 117.792899 16.560405 117.843195 16.627364 117.893491 16.695036 117.943787 16.763410 117.994083 16.832475 118.044379 16.902219 118.094675 16.972632 118.144970 17.043702 118.195266 17.115418 118.245562 17.187769 118.295858 17.260742 118.346154 17.334328 118.396450 17.408514 118.446746 17.483290 118.497041 17.558645 118.547337 17.634566 118.597633 17.711043 118.647929 17.788064 118.698225 17.865619 118.748521 17.943696 118.798817 18.022283 118.849112 18.101370 118.899408 18.180945 118.949704 18.260997 119.000000 18.341514 119.050296 18.422486 119.100592 18.503901 119.150888 18.585748 119.201183 18.668016 119.251479 18.750693 119.301775 18.833768 119.352071 18.917230 119.402367 19.001068 119.452663 19.085270 119.502959 19.169825 119.553254 19.254721 119.603550 19.339949 119.653846 19.425495 119.704142 19.511350 119.754438 19.597502 119.804734 19.683939 119.855030 19.770650 119.905325 19.857624 119.955621 19.944850 120.005917 20.032317 120.056213 20.120013 120.106509 20.207926 120.156805 20.296047 120.207101 20.384363 120.257396 20.472863 120.307692 20.561536 120.357988 20.650371 120.408284 20.739356 120.458580 20.828480 120.508876 20.917732 120.559172 21.007101 120.609467 21.096576 120.659763 21.186144 120.710059 21.275795 120.760355 21.365518 120.810651 21.455301 120.860947 21.545133 120.911243 21.635003 120.961538 21.724900 121.011834 21.814812 121.062130 21.904728 121.112426 21.994637 121.162722 22.084527 121.213018 22.174388 121.263314 22.264208 121.313609 22.353975 121.363905 22.443679 121.414201 22.533308 121.464497 22.622851 121.514793 22.712297 121.565089 22.801635 121.615385 22.890852 121.665680 22.979939 121.715976 23.068883 121.766272 23.157673 121.816568 23.246299 121.866864 23.334749 121.917160 23.423011 121.967456 23.511075 122.017751 23.598929 122.068047 23.686562 122.118343 23.773962 122.168639 23.861119 122.218935 23.948020 122.269231 24.034656 122.319527 24.121014 122.369822 24.207084 122.420118 24.292854 122.470414 24.378312 122.520710 24.463448 122.571006 24.548250 122.621302 24.632708 122.671598 24.716809 122.721893 24.800542 122.772189 24.883897 122.822485 24.966862 122.872781 25.049426 122.923077 25.131577 122.973373 25.213304 123.023669 25.294596 123.073964 25.375442 123.124260 25.455830 123.174556 25.535750 123.224852 25.615189 123.275148 25.694137 123.325444 25.772583 123.375740 25.850515 123.426036 25.927921 123.476331 26.004791 123.526627 26.081114 123.576923 26.156878 123.627219 26.232071 123.677515 26.306683 123.727811 26.380703 123.778107 26.454118 123.828402 26.526919 123.878698 26.599093 123.928994 26.670629 123.979290 26.741516 124.029586 26.811743 124.079882 26.881299 124.130178 26.950171 124.180473 27.018350 124.230769 27.085824 124.281065 27.152581 124.331361 27.218610 124.381657 27.283900 124.431953 27.348440 124.482249 27.412219 124.532544 27.475224 124.582840 27.537446 124.633136 27.598872 124.683432 27.659492 124.733728 27.719293 124.784024 27.778266 124.834320 27.836398 124.884615 27.893679 124.934911 27.950097 124.985207 28.005640 125.035503 28.060299 125.085799 28.114060 125.136095 28.166914 125.186391 28.218849 125.236686 28.269853 125.286982 28.319915 125.337278 28.369025 125.387574 28.417170 125.437870 28.464340 125.488166 28.510523 125.538462 28.555708 125.588757 28.599884 125.639053 28.643039 125.689349 28.685162 125.739645 28.726243 125.789941 28.766269 125.840237 28.805230 125.890533 28.843114 125.940828 28.879910 125.991124 28.915606 126.041420 28.950192 126.091716 28.983656 126.142012 29.015987 126.192308 29.047174 126.242604 29.077205 126.292899 29.106069 126.343195 29.133756 126.393491 29.160252 126.443787 29.185548 126.494083 29.209633 126.544379 29.232494 126.594675 29.254120 126.644970 29.274501 126.695266 29.293625 126.745562 29.311481 126.795858 29.328057 126.846154 29.343343 126.896450 29.357326 126.946746 29.369997 126.997041 29.381343 127.047337 29.391353 127.097633 29.400016 127.147929 29.407321 127.198225 29.413256 127.248521 29.417811 127.298817 29.420973 127.349112 29.422732 127.399408 29.423077 127.449704 29.421996 127.500000 29.419477 127.550296 29.415511 127.600592 29.410085 127.650888 29.403188 127.701183 29.394808 127.751479 29.384936 127.801775 29.373559 127.852071 29.360666 127.902367 29.346245 127.952663 29.330287 128.002959 29.312778 128.053254 29.293709 128.103550 29.273068 128.153846 29.250843 128.204142 29.227023 128.254438 29.201598 128.304734 29.174555 128.355030 29.145884 128.405325 29.115573 128.455621 29.083611 128.505917 29.049986 128.556213 29.014689 128.606509 28.977706 128.656805 28.939028 128.707101 28.898642 128.757396 28.856537 128.807692 28.812703 128.857988 28.767128 128.908284 28.719800 128.958580 28.670709 129.008876 28.619843 129.059172 28.567195 129.109467 28.512777 129.159763 28.456606 129.210059 28.398696 129.260355 28.339063 129.310651 28.277725 129.360947 28.214697 129.411243 28.149994 129.461538 28.083633 129.511834 28.015630 129.562130 27.946001 129.612426 27.874762 129.662722 27.801928 129.713018 27.727516 129.763314 27.651542 129.813609 27.574022 129.863905 27.494971 129.914201 27.414406 129.964497 27.332343 130.014793 27.248798 130.065089 27.163786 130.115385 27.077324 130.165680 26.989427 130.215976 26.900113 130.266272 26.809396 130.316568 26.717292 130.366864 26.623819 130.417160 26.528991 130.467456 26.432824 130.517751 26.335335 130.568047 26.236540 130.618343 26.136455 130.668639 26.035095 130.718935 25.932476 130.769231 25.828615 130.819527 25.723528 130.869822 25.617230 130.920118 25.509738 130.970414 25.401067 131.020710 25.291234 131.071006 25.180255 131.121302 25.068145 131.171598 24.954920 131.221893 24.840597 131.272189 24.725191 131.322485 24.608719 131.372781 24.491196 131.423077 24.372639 131.473373 24.253063 131.523669 24.132485 131.573964 24.010920 131.624260 23.888384 131.674556 23.764894 131.724852 23.640465 131.775148 23.515114 131.825444 23.388856 131.875740 23.261707 131.926036 23.133684 131.976331 23.004802 132.026627 22.875078 132.076923 22.744526 132.127219 22.613164 132.177515 22.481008 132.227811 22.348072 132.278107 22.214374 132.328402 22.079929 132.378698 21.944754 132.428994 21.808864 132.479290 21.672275 132.529586 21.535003 132.579882 21.397064 132.630178 21.258475 132.680473 21.119251 132.730769 20.979408 132.781065 20.838962 132.831361 20.697930 132.881657 20.556327 132.931953 20.414168 132.982249 20.271471 133.032544 20.128252 133.082840 19.984525 133.133136 19.840307 133.183432 19.695615 133.233728 19.550463 133.284024 19.404869 133.334320 19.258848 133.384615 19.112416 133.434911 18.965589 133.485207 18.818383 133.535503 18.670814 133.585799 18.522898 133.636095 18.374651 133.686391 18.226090 133.736686 18.077229 133.786982 17.928085 133.837278 17.778674 133.887574 17.629012 133.937870 17.479116 133.988166 17.329000 134.038462 17.178681 134.088757 17.028175 134.139053 16.877498 134.189349 16.726666 134.239645 16.575695 134.289941 16.424600 134.340237 16.273399 134.390533 16.122107 134.440828 15.970739 134.491124 15.819312 134.541420 15.667843 134.591716 15.516346 134.642012 15.364838 134.692308 15.213334 134.742604 15.061852 134.792899 14.910406 134.843195 14.759013 134.893491 14.607689 134.943787 14.456450 134.994083 14.305311 135.044379 14.154290 135.094675 14.003401 135.144970 13.852661 135.195266 13.702085 135.245562 13.551690 135.295858 13.401492 135.346154 13.251507 135.396450 13.101751 135.446746 12.952239 135.497041 12.802987 135.547337 12.654013 135.597633 12.505331 135.647929 12.356958 135.698225 12.208909 135.748521 12.061201 135.798817 11.913850 135.849112 11.766871 135.899408 11.620281 135.949704 11.474096 136.000000 11.328331 136.050296 11.183003 136.100592 11.038127 136.150888 10.893720 136.201183 10.749797 136.251479 10.606375 136.301775 10.463469 136.352071 10.321096 136.402367 10.179272 136.452663 10.038012 136.502959 9.897332 136.553254 9.757249 136.603550 9.617779 136.653846 9.478937 136.704142 9.340739 136.754438 9.203202 136.804734 9.066341 136.855030 8.930173 136.905325 8.794713 136.955621 8.659978 137.005917 8.525982 137.056213 8.392744 137.106509 8.260278 137.156805 8.128600 137.207101 7.997726 137.257396 7.867673 137.307692 7.738456 137.357988 7.610091 137.408284 7.482595 137.458580 7.355983 137.508876 7.230272 137.559172 7.105476 137.609467 6.981613 137.659763 6.858699 137.710059 6.736748 137.760355 6.615778 137.810651 6.495804 137.860947 6.376842 137.911243 6.258909 137.961538 6.142020 138.011834 6.026191 138.062130 5.911438 138.112426 5.797777 138.162722 5.685225 138.213018 5.573796 138.263314 5.463508 138.313609 5.354376 138.363905 5.246416 138.414201 5.139645 138.464497 5.034077 138.514793 4.929730 138.565089 4.826618 138.615385 4.724759 138.665680 4.624168 138.715976 4.524861 138.766272 4.426854 138.816568 4.330163 138.866864 4.234804 138.917160 4.140793 138.967456 4.048146 139.017751 3.956880 139.068047 3.867009 139.118343 3.778550 139.168639 3.691519 139.218935 3.605932 139.269231 3.521806 139.319527 3.439155 139.369822 3.357996 139.420118 3.278345 139.470414 3.200218 139.520710 3.123631 139.571006 3.048600 139.621302 2.975140 139.671598 2.903269 139.721893 2.833001 139.772189 2.764354 139.822485 2.697342 139.872781 2.631982 139.923077 2.568290 139.973373 2.506282 140.023669 2.445974 140.073964 2.387381 140.124260 2.330521 140.174556 2.275408 140.224852 2.222059 140.275148 2.170489 140.325444 2.120716 140.375740 2.072754 140.426036 2.026620 140.476331 1.982330 140.526627 1.939899 140.576923 1.899344 140.627219 1.860681 140.677515 1.823926 140.727811 1.789094 140.778107 1.756202 140.828402 1.725266 140.878698 1.696301 140.928994 1.669325 140.979290 1.644351 141.029586 1.621398 141.079882 1.600480 141.130178 1.581613 141.180473 1.564814 141.230769 1.550099 141.281065 1.537484 141.331361 1.526984 141.381657 1.518615 141.431953 1.512394 141.482249 1.508337 141.532544 1.506459 141.582840 1.506777 141.633136 1.509301 141.683432 1.514021 141.733728 1.520919 141.784024 1.529980 141.834320 1.541187 141.884615 1.554525 141.934911 1.569977 141.985207 1.587526 142.035503 1.607157 142.085799 1.628853 142.136095 1.652597 142.186391 1.678375 142.236686 1.706169 142.286982 1.735962 142.337278 1.767740 142.387574 1.801486 142.437870 1.837182 142.488166 1.874814 142.538462 1.914364 142.588757 1.955817 142.639053 1.999157 142.689349 2.044366 142.739645 2.091429 142.789941 2.140330 142.840237 2.191051 142.890533 2.243578 142.940828 2.297893 142.991124 2.353981 143.041420 2.411825 143.091716 2.471409 143.142012 2.532716 143.192308 2.595731 143.242604 2.660437 143.292899 2.726818 143.343195 2.794857 143.393491 2.864539 143.443787 2.935846 143.494083 3.008764 143.544379 3.083275 143.594675 3.159363 143.644970 3.237012 143.695266 3.316206 143.745562 3.396929 143.795858 3.479163 143.846154 3.562894 143.896450 3.648104 143.946746 3.734778 143.997041 3.822899 144.047337 3.912451 144.097633 4.003417 144.147929 4.095782 144.198225 4.189529 144.248521 4.284641 144.298817 4.381104 144.349112 4.478899 144.399408 4.578012 144.449704 4.678425 144.500000 4.780123 144.550296 4.883089 144.600592 4.987307 144.650888 5.092761 144.701183 5.199435 144.751479 5.307311 144.801775 5.416375 144.852071 5.526609 144.902367 5.637997 144.952663 5.750524 145.002959 5.864173 145.053254 5.978927 145.103550 6.094771 145.153846 6.211687 145.204142 6.329661 145.254438 6.448675 145.304734 6.568713 145.355030 6.689760 145.405325 6.811798 145.455621 6.934812 145.505917 7.058785 145.556213 7.183701 145.606509 7.309543 145.656805 7.436296 145.707101 7.563944 145.757396 7.692469 145.807692 7.821856 145.857988 7.952088 145.908284 8.083150 145.958580 8.215024 146.008876 8.347695 146.059172 8.481147 146.109467 8.615362 146.159763 8.750325 146.210059 8.886020 146.260355 9.022431 146.310651 9.159540 146.360947 9.297332 146.411243 9.435790 146.461538 9.574899 146.511834 9.714642 146.562130 9.855002 146.612426 9.995964 146.662722 10.137511 146.713018 10.279627 146.763314 10.422296 146.813609 10.565501 146.863905 10.709226 146.914201 10.853455 146.964497 10.998172 147.014793 11.143360 147.065089 11.289003 147.115385 11.435085 147.165680 11.581590 147.215976 11.728501 147.266272 11.875802 147.316568 12.023476 147.366864 12.171508 147.417160 12.319882 147.467456 12.468580 147.517751 12.617587 147.568047 12.766887 147.618343 12.916463 147.668639 13.066298 147.718935 13.216378 147.769231 13.366684 147.819527 13.517202 147.869822 13.667915 147.920118 13.818806 147.970414 13.969860 148.020710 14.121060 148.071006 14.272389 148.121302 14.423833 148.171598 14.575373 148.221893 14.726995 148.272189 14.878681 148.322485 15.030416 148.372781 15.182183 148.423077 15.333966 148.473373 15.485748 148.523669 15.637514 148.573964 15.789248 148.624260 15.940932 148.674556 16.092551 148.724852 16.244088 148.775148 16.395528 148.825444 16.546853 148.875740 16.698048 148.926036 16.849096 148.976331 16.999982 149.026627 17.150688 149.076923 17.301199 149.127219 17.451498 149.177515 17.601569 149.227811 17.751395 149.278107 17.900962 149.328402 18.050251 149.378698 18.199248 149.428994 18.347935 149.479290 18.496297 149.529586 18.644316 149.579882 18.791978 149.630178 18.939266 149.680473 19.086162 149.730769 19.232652 149.781065 19.378719 149.831361 19.524347 149.881657 19.669518 149.931953 19.814218 149.982249 19.958430 150.032544 20.102137 150.082840 20.245324 150.133136 20.387973 150.183432 20.530069 150.233728 20.671596 150.284024 20.812537 150.334320 20.952876 150.384615 21.092597 150.434911 21.231683 150.485207 21.370118 150.535503 21.507886 150.585799 21.644971 150.636095 21.781356 150.686391 21.917026 150.736686 22.051963 150.786982 22.186152 150.837278 22.319576 150.887574 22.452219 150.937870 22.584065 150.988166 22.715098 151.038462 22.845301 151.088757 22.974658 151.139053 23.103152 151.189349 23.230768 151.239645 23.357490 151.289941 23.483300 151.340237 23.608183 151.390533 23.732123 151.440828 23.855102 151.491124 23.977106 151.541420 24.098117 151.591716 24.218120 151.642012 24.337097 151.692308 24.455034 151.742604 24.571913 151.792899 24.687719 151.843195 24.802434 151.893491 24.916044 151.943787 25.028530 151.994083 25.139879 152.044379 25.250072 152.094675 25.359094 152.144970 25.466928 152.195266 25.573559 152.245562 25.678970 152.295858 25.783144 152.346154 25.886066 152.396450 25.987719 152.446746 26.088086 152.497041 26.187153 152.547337 26.284902 152.597633 26.381317 152.647929 26.476382 152.698225 26.570080 152.748521 26.662396 152.798817 26.753313 152.849112 26.842814 152.899408 26.930884 152.949704 27.017507 153.000000 27.102665 153.050296 27.186343 153.100592 27.268525 153.150888 27.349194 153.201183 27.428334 153.251479 27.505928 153.301775 27.581961 153.352071 27.656417 153.402367 27.729278 153.452663 27.800528 153.502959 27.870152 153.553254 27.938134 153.603550 28.004456 153.653846 28.069102 153.704142 28.132057 153.754438 28.193304 153.804734 28.252827 153.855030 28.310609 153.905325 28.366635 153.955621 28.420888 154.005917 28.473351 154.056213 28.524009 154.106509 28.572845 154.156805 28.619843 154.207101 28.664990 154.257396 28.708291 154.307692 28.749753 154.357988 28.789382 154.408284 28.827186 154.458580 28.863174 154.508876 28.897351 154.559172 28.929726 154.609467 28.960307 154.659763 28.989099 154.710059 29.016112 154.760355 29.041351 154.810651 29.064826 154.860947 29.086543 154.911243 29.106509 154.961538 29.124732 155.011834 29.141219 155.062130 29.155978 155.112426 29.169017 155.162722 29.180342 155.213018 29.189961 155.263314 29.197881 155.313609 29.204111 155.363905 29.208656 155.414201 29.211526 155.464497 29.212726 155.514793 29.212265 155.565089 29.210150 155.615385 29.206389 155.665680 29.200988 155.715976 29.193955 155.766272 29.185298 155.816568 29.175024 155.866864 29.163141 155.917160 29.149655 155.967456 29.134575 156.017751 29.117907 156.068047 29.099660 156.118343 29.079840 156.168639 29.058455 156.218935 29.035512 156.269231 29.011019 156.319527 28.984984 156.369822 28.957413 156.420118 28.928314 156.470414 28.897694 156.520710 28.865562 156.571006 28.831923 156.621302 28.796787 156.671598 28.760159 156.721893 28.722049 156.772189 28.682462 156.822485 28.641406 156.872781 28.598889 156.923077 28.554919 156.973373 28.509502 157.023669 28.462646 157.073964 28.414359 157.124260 28.364648 157.174556 28.313519 157.224852 28.260982 157.275148 28.207043 157.325444 28.151709 157.375740 28.094988 157.426036 28.036888 157.476331 27.977416 157.526627 27.916578 157.576923 27.854384 157.627219 27.790839 157.677515 27.725952 157.727811 27.659730 157.778107 27.592180 157.828402 27.523310 157.878698 27.453127 157.928994 27.381638 157.979290 27.308852 158.029586 27.234775 158.079882 27.159414 158.130178 27.082778 158.180473 27.004874 158.230769 26.925709 158.281065 26.845290 158.331361 26.763625 158.381657 26.680721 158.431953 26.596587 158.482249 26.511228 158.532544 26.424653 158.582840 26.336869 158.633136 26.247883 158.683432 26.157703 158.733728 26.066336 158.784024 25.973790 158.834320 25.880072 158.884615 25.785190 158.934911 25.689151 158.985207 25.591961 159.035503 25.493630 159.085799 25.394164 159.136095 25.293570 159.186391 25.191856 159.236686 25.089030 159.286982 24.985099 159.337278 24.880069 159.387574 24.773950 159.437870 24.666747 159.488166 24.558469 159.538462 24.449123 159.588757 24.338717 159.639053 24.227257 159.689349 24.114751 159.739645 24.001207 159.789941 23.886631 159.840237 23.771033 159.890533 23.654418 159.940828 23.536794 159.991124 23.418169 160.041420 23.298550 160.091716 23.177945 160.142012 23.056360 160.192308 22.933804 160.242604 22.810284 160.292899 22.685807 160.343195 22.560380 160.393491 22.434011 160.443787 22.306708 160.494083 22.178478 160.544379 22.049328 160.594675 21.919265 160.644970 21.788298 160.695266 21.656433 160.745562 21.523678 160.795858 21.390041 160.846154 21.255528 160.896450 21.120148 160.946746 20.983907 160.997041 20.846813 161.047337 20.708873 161.097633 20.570096 161.147929 20.430487 161.198225 20.290056 161.248521 20.148808 161.298817 20.006752 161.349112 19.863895 161.399408 19.720244 161.449704 19.575807 161.500000 19.430591 161.550296 19.284604 161.600592 19.137853 161.650888 18.990345 161.701183 18.842088 161.751479 18.693090 161.801775 18.543357 161.852071 18.392897 161.902367 18.241718 161.952663 18.089826 162.002959 17.937230 162.053254 17.783937 162.103550 17.629954 162.153846 17.475289 162.204142 17.319948 162.254438 17.163941 162.304734 17.007273 162.355030 16.849952 162.405325 16.691986 162.455621 16.533382 162.505917 16.374147 162.556213 16.214290 162.606509 16.053817 162.656805 15.892736 162.707101 15.731054 162.757396 15.568778 162.807692 15.405917 162.857988 15.242477 162.908284 15.078466 162.958580 14.913891 163.008876 14.748760 163.059172 14.583080 163.109467 14.416858 163.159763 14.250103 163.210059 14.082821 163.260355 13.915019 163.310651 13.746706 163.360947 13.577889 163.411243 13.408574 163.461538 13.238770 163.511834 13.068484 163.562130 12.897724 163.612426 12.726496 163.662722 12.554808 163.713018 12.382667 163.763314 12.210082 163.813609 12.037059 163.863905 11.863605 163.914201 11.689729 163.964497 11.515438 164.014793 11.340739 164.065089 11.165639 164.115385 10.990146 164.165680 10.814267 164.215976 10.638010 164.266272 10.461382 164.316568 10.284391 164.366864 10.107044 164.417160 9.929348 164.467456 9.751311 164.517751 9.572940 164.568047 9.394243 164.618343 9.215227 164.668639 9.035899 164.718935 8.856267 164.769231 8.676339 164.819527 8.496121 164.869822 8.315621 164.920118 8.134847 164.970414 7.953806 165.020710 7.772505 165.071006 7.590953 165.121302 7.409155 165.171598 7.227120 165.221893 7.044855 165.272189 6.862368 165.322485 6.679665 165.372781 6.496755 165.423077 6.313644 165.473373 6.130341 165.523669 5.946852 165.573964 5.763185 165.624260 5.579348 165.674556 5.395347 165.724852 5.211191 165.775148 5.026886 165.825444 4.842441 165.875740 4.657862 165.926036 4.473157 165.976331 4.288333 166.026627 4.103398 166.076923 3.918359 166.127219 3.733223 166.177515 3.547999 166.227811 3.362693 166.278107 3.177313 166.328402 2.991866 166.378698 2.806360 166.428994 2.620801 166.479290 2.435199 166.529586 2.249559 166.579882 2.063889 166.630178 1.878198 166.680473 1.692491 166.730769 1.506777" class="line reactive nofill" /></g></g><g class="titles" /><g transform="translate(20, 10)" class="plot overlay"><g class="series serie-0 color-0" /></g><g transform="translate(20, 10)" class="plot text-overlay"><g class="series serie-0 color-0" /></g><g transform="translate(20, 10)" class="plot tooltip-overlay"><g transform="translate(0 0)" style="opacity: 0" class="tooltip"><rect rx="0" ry="0" width="0" height="0" class="tooltip-box" /><g class="text" /></g></g></g></svg>