<?xml version='1.0' encoding='utf-8'?>
<svg xmlns="http://www.w3.org/2000/svg" id="chart-1339b3d5-8df8-4a96-9a35-22a61c7de164" class="pygal-chart pygal-sparkline" viewBox="0 0 200 50" width="200" height="50"><!--Generated with pygal 3.0.4 (etree) ©Kozea 2012-2016 on 2024-05-12--><!--http://pygal.org--><!--http://github.com/Kozea/pygal--><defs><style type="text/css">#chart-1339b3d5-8df8-4a96-9a35-22a61c7de164{-webkit-user-select:none;-webkit-font-smoothing:antialiased;font-family:Consolas,"Liberation Mono",Menlo,Courier,monospace}#chart-1339b3d5-8df8-4a96-9a35-22a61c7de164 .title{font-family:Consolas,"Liberation Mono",Menlo,Courier,monospace;font-size:16px}#chart-1339b3d5-8df8-4a96-9a35-22a61c7de164 .legends .legend text{font-family:Consolas,"Liberation Mono",Menlo,Courier,monospace;font-size:14px}#chart-1339b3d5-8df8-4a96-9a35-22a61c7de164 .axis text{font-family:Consolas,"Liberation Mono",Menlo,Courier,monospace;font-size:10px}#chart-1339b3d5-8df8-4a96-9a35-22a61c7de164 .axis text.major{font-family:Consolas,"Liberation Mono",Menlo,Courier,monospace;font-size:10px}#chart-1339b3d5-8df8-4a96-9a35-22a61c7de164 .text-overlay text.value{font-family:Consolas,"Liberation Mono",Menlo,Courier,monospace;font-size:16px}#chart-1339b3d5-8df8-4a96-9a35-22a61c7de164 .text-overlay text.label{font-family:Consolas,"Liberation Mono",Menlo,Courier,monospace;font-size:10px}#chart-1339b3d5-8df8-4a96-9a35-22a61c7de164 .tooltip{font-family:Consolas,"Liberation Mono",Menlo,Courier,monospace;font-size:14px}#chart-1339b3d5-8df8-4a96-9a35-22a61c7de164 text.no_data{font-family:Consolas,"Liberation Mono",Menlo,Courier,monospace;font-size:64px}
#chart-1339b3d5-8df8-4a96-9a35-22a61c7de164{background-color:rgba(249,249,249,1)}#chart-1339b3d5-8df8-4a96-9a35-22a61c7de164 path,#chart-1339b3d5-8df8-4a96-9a35-22a61c7de164 line,#chart-1339b3d5-8df8-4a96-9a35-22a61c7de164 rect,#chart-1339b3d5-8df8-4a96-9a35-22a61c7de164 circle{-webkit-transition:150ms;-moz-transition:150ms;transition:150ms}#chart-1339b3d5-8df8-4a96-9a35-22a61c7de164 .graph &gt; .background{fill:rgba(249,249,249,1)}#chart-1339b3d5-8df8-4a96-9a35-22a61c7de164 .plot &gt; .background{fill:rgba(255,255,255,1)}#chart-1339b3d5-8df8-4a96-9a35-22a61c7de164 .graph{fill:rgba(0,0,0,.87)}#chart-1339b3d5-8df8-4a96-9a35-22a61c7de164 text.no_data{fill:rgba(0,0,0,1)}#chart-1339b3d5-8df8-4a96-9a35-22a61c7de164 .title{fill:rgba(0,0,0,1)}#chart-1339b3d5-8df8-4a96-9a35-22a61c7de164 .legends .legend text{fill:rgba(0,0,0,.87)}#chart-1339b3d5-8df8-4a96-9a35-22a61c7de164 .legends .legend:hover text{fill:rgba(0,0,0,1)}#chart-1339b3d5-8df8-4a96-9a35-22a61c7de164 .axis .line{stroke:rgba(0,0,0,1)}#chart-1339b3d5-8df8-4a96-9a35-22a61c7de164 .axis .guide.line{stroke:rgba(0,0,0,.54)}#chart-1339b3d5-8df8-4a96-9a35-22a61c7de164 .axis .major.line{stroke:rgba(0,0,0,.87)}#chart-1339b3d5-8df8-4a96-9a35-22a61c7de164 .axis text.major{fill:rgba(0,0,0,1)}#chart-1339b3d5-8df8-4a96-9a35-22a61c7de164 .axis.y .guides:hover .guide.line,#chart-1339b3d5-8df8-4a96-9a35-22a61c7de164 .line-graph .axis.x .guides:hover .guide.line,#chart-1339b3d5-8df8-4a96-9a35-22a61c7de164 .stackedline-graph .axis.x .guides:hover .guide.line,#chart-1339b3d5-8df8-4a96-9a35-22a61c7de164 .xy-graph .axis.x .guides:hover .guide.line{stroke:rgba(0,0,0,1)}#chart-1339b3d5-8df8-4a96-9a35-22a61c7de164 .axis .guides:hover text{fill:rgba(0,0,0,1)}#chart-1339b3d5-8df8-4a96-9a35-22a61c7de164 .reactive{fill-opacity:.7;stroke-opacity:.8;stroke-width:1}#chart-1339b3d5-8df8-4a96-9a35-22a61c7de164 .ci{stroke:rgba(0,0,0,.87)}#chart-1339b3d5-8df8-4a96-9a35-22a61c7de164 .reactive.active,#chart-1339b3d5-8df8-4a96-9a35-22a61c7de164 .active .reactive{fill-opacity:.8;stroke-opacity:.9;stroke-width:4}#chart-1339b3d5-8df8-4a96-9a35-22a61c7de164 .ci .reactive.active{stroke-width:1.5}#chart-1339b3d5-8df8-4a96-9a35-22a61c7de164 .series text{fill:rgba(0,0,0,1)}#chart-1339b3d5-8df8-4a96-9a35-22a61c7de164 .tooltip rect{fill:rgba(255,255,255,1);stroke:rgba(0,0,0,1);-webkit-transition:opacity 150ms;-moz-transition:opacity 150ms;transition:opacity 150ms}#chart-1339b3d5-8df8-4a96-9a35-22a61c7de164 .tooltip .label{fill:rgba(0,0,0,.87)}#chart-1339b3d5-8df8-4a96-9a35-22a61c7de164 .tooltip .label{fill:rgba(0,0,0,.87)}#chart-1339b3d5-8df8-4a96-9a35-22a61c7de164 .tooltip .legend{font-size:.8em;fill:rgba(0,0,0,.54)}#chart-1339b3d5-8df8-4a96-9a35-22a61c7de164 .tooltip .x_label{font-size:.6em;fill:rgba(0,0,0,1)}#chart-1339b3d5-8df8-4a96-9a35-22a61c7de164 .tooltip .xlink{font-size:.5em;text-decoration:underline}#chart-1339b3d5-8df8-4a96-9a35-22a61c7de164 .tooltip .value{font-size:1.5em}#chart-1339b3d5-8df8-4a96-9a35-22a61c7de164 .bound{font-size:.5em}#chart-1339b3d5-8df8-4a96-9a35-22a61c7de164 .max-value{font-size:.75em;fill:rgba(0,0,0,.54)}#chart-1339b3d5-8df8-4a96-9a35-22a61c7de164 .map-element{fill:rgba(255,255,255,1);stroke:rgba(0,0,0,.54) !important}#chart-1339b3d5-8df8-4a96-9a35-22a61c7de164 .map-element .reactive{fill-opacity:inherit;stroke-opacity:inherit}#chart-1339b3d5-8df8-4a96-9a35-22a61c7de164 .color-0,#chart-1339b3d5-8df8-4a96-9a35-22a61c7de164 .color-0 a:visited{stroke:#F44336;fill:#F44336}#chart-1339b3d5-8df8-4a96-9a35-22a61c7de164 .text-overlay .color-0 text{fill:black}
#chart-1339b3d5-8df8-4a96-9a35-22a61c7de164 text.no_data{text-anchor:middle}#chart-1339b3d5-8df8-4a96-9a35-22a61c7de164 .guide.line{fill:none}#chart-1339b3d5-8df8-4a96-9a35-22a61c7de164 .centered{text-anchor:middle}#chart-1339b3d5-8df8-4a96-9a35-22a61c7de164 .title{text-anchor:middle}#chart-1339b3d5-8df8-4a96-9a35-22a61c7de164 .legends .legend text{fill-opacity:1}#chart-1339b3d5-8df8-4a96-9a35-22a61c7de164 .axis.x text{text-anchor:middle}#chart-1339b3d5-8df8-4a96-9a35-22a61c7de164 .axis.x:not(.web) text[transform]{text-anchor:start}#chart-1339b3d5-8df8-4a96-9a35-22a61c7de164 .axis.x:not(.web) text[transform].backwards{text-anchor:end}#chart-1339b3d5-8df8-4a96-9a35-22a61c7de164 .axis.y text{text-anchor:end}#chart-1339b3d5-8df8-4a96-9a35-22a61c7de164 .axis.y text[transform].backwards{text-anchor:start}#chart-1339b3d5-8df8-4a96-9a35-22a61c7de164 .axis.y2 text{text-anchor:start}#chart-1339b3d5-8df8-4a96-9a35-22a61c7de164 .axis.y2 text[transform].backwards{text-anchor:end}#chart-1339b3d5-8df8-4a96-9a35-22a61c7de164 .axis .guide.line{stroke-dasharray:4,4;stroke:black}#chart-1339b3d5-8df8-4a96-9a35-22a61c7de164 .axis .major.guide.line{stroke-dasharray:6,6;stroke:black}#chart-1339b3d5-8df8-4a96-9a35-22a61c7de164 .horizontal .axis.y .guide.line,#chart-1339b3d5-8df8-4a96-9a35-22a61c7de164 .horizontal .axis.y2 .guide.line,#chart-1339b3d5-8df8-4a96-9a35-22a61c7de164 .vertical .axis.x .guide.line{opacity:0}#chart-1339b3d5-8df8-4a96-9a35-22a61c7de164 .horizontal .axis.always_show .guide.line,#chart-1339b3d5-8df8-4a96-9a35-22a61c7de164 .vertical .axis.always_show .guide.line{opacity:1 !important}#chart-1339b3d5-8df8-4a96-9a35-22a61c7de164 .axis.y .guides:hover .guide.line,#chart-1339b3d5-8df8-4a96-9a35-22a61c7de164 .axis.y2 .guides:hover .guide.line,#chart-1339b3d5-8df8-4a96-9a35-22a61c7de164 .axis.x .guides:hover .guide.line{opacity:1}#chart-1339b3d5-8df8-4a96-9a35-22a61c7de164 .axis .guides:hover text{opacity:1}#chart-1339b3d5-8df8-4a96-9a35-22a61c7de164 .nofill{fill:none}#chart-1339b3d5-8df8-4a96-9a35-22a61c7de164 .subtle-fill{fill-opacity:.2}#chart-1339b3d5-8df8-4a96-9a35-22a61c7de164 .dot{stroke-width:1px;fill-opacity:1;stroke-opacity:1}#chart-1339b3d5-8df8-4a96-9a35-22a61c7de164 .dot.active{stroke-width:5px}#chart-1339b3d5-8df8-4a96-9a35-22a61c7de164 .dot.negative{fill:transparent}#chart-1339b3d5-8df8-4a96-9a35-22a61c7de164 text,#chart-1339b3d5-8df8-4a96-9a35-22a61c7de164 tspan{stroke:none !important}#chart-1339b3d5-8df8-4a96-9a35-22a61c7de164 .series text.active{opacity:1}#chart-1339b3d5-8df8-4a96-9a35-22a61c7de164 .tooltip rect{fill-opacity:.95;stroke-width:.5}#chart-1339b3d5-8df8-4a96-9a35-22a61c7de164 .tooltip text{fill-opacity:1}#chart-1339b3d5-8df8-4a96-9a35-22a61c7de164 .showable{visibility:hidden}#chart-1339b3d5-8df8-4a96-9a35-22a61c7de164 .showable.shown{visibility:visible}#chart-1339b3d5-8df8-4a96-9a35-22a61c7de164 .gauge-background{fill:rgba(229,229,229,1);stroke:none}#chart-1339b3d5-8df8-4a96-9a35-22a61c7de164 .bg-lines{stroke:rgba(249,249,249,1);stroke-width:2px}</style><script type="text/javascript">window.pygal = window.pygal || {};window.pygal.config = window.pygal.config || {};window.pygal.config['1339b3d5-8df8-4a96-9a35-22a61c7de164'] = {"allow_interruptions": false, "box_mode": "extremes", "classes": ["pygal-chart", "pygal-sparkline"], "css": ["file://style.css", "file://graph.css"], "defs": [], "disable_xml_declaration": false, "dots_size": 2.5, "dynamic_print_values": false, "explicit_size": true, "fill": false, "force_uri_protocol": "https", "formatter": null, "half_pie": false, "height": 50, "include_x_axis": false, "inner_radius": 0, "interpolate": "cubic", "interpolation_parameters": {}, "interpolation_precision": 250, "inverse_y_axis": false, "js": [], "legend_at_bottom": false, "legend_at_bottom_columns": null, "legend_box_size": 12, "logarithmic": false, "margin": 10, "margin_bottom": null, "margin_left": null, "margin_right": null, "margin_top": null, "max_scale": 2, "min_scale": 1, "missing_value_fill_truncation": "x", "no_data_text": "", "no_prefix": false, "order_min": null, "pretty_print": false, "print_labels": false, "print_values": false, "print_values_position": "center", "print_zeroes": true, "range": null, "rounded_bars": null, "secondary_range": null, "show_dots": false, "show_legend": false, "show_minor_x_labels": true, "show_minor_y_labels": true, "show_only_major_dots": false, "show_x_guides": false, "show_x_labels": false, "show_y_guides": true, "show_y_labels": true, "spacing": 0, "stack_from_top": false, "strict": false, "stroke": true, "stroke_style": null, "style": {"background": "rgba(249, 249, 249, 1)", "ci_colors": [], "colors": ["#F44336", "#3F51B5", "#009688", "#FFC107", "#FF5722", "#9C27B0", "#03A9F4", "#8BC34A", "#FF9800", "#E91E63", "#2196F3", "#4CAF50", "#FFEB3B", "#673AB7", "#00BCD4", "#CDDC39", "#9E9E9E", "#607D8B"], "dot_opacity": "1", "font_family": "Consolas, \"Liberation Mono\", Menlo, Courier, monospace", "foreground": "rgba(0, 0, 0, .87)", "foreground_strong": "rgba(0, 0, 0, 1)", "foreground_subtle": "rgba(0, 0, 0, .54)", "guide_stroke_color": "black", "guide_stroke_dasharray": "4,4", "label_font_family": "Consolas, \"Liberation Mono\", Menlo, Courier, monospace", "label_font_size": 10, "legend_font_family": "Consolas, \"Liberation Mono\", Menlo, Courier, monospace", "legend_font_size": 14, "major_guide_stroke_color": "black", "major_guide_stroke_dasharray": "6,6", "major_label_font_family": "Consolas, \"Liberation Mono\", Menlo, Courier, monospace", "major_label_font_size": 10, "no_data_font_family": "Consolas, \"Liberation Mono\", Menlo, Courier, monospace", "no_data_font_size": 64, "opacity": ".7", "opacity_hover": ".8", "plot_background": "rgba(255, 255, 255, 1)", "stroke_opacity": ".8", "stroke_opacity_hover": ".9", "stroke_width": "1", "stroke_width_hover": "4", "title_font_family": "Consolas, \"Liberation Mono\", Menlo, Courier, monospace", "title_font_size": 16, "tooltip_font_family": "Consolas, \"Liberation Mono\", Menlo, Courier, monospace", "tooltip_font_size": 14, "transition": "150ms", "value_background": "rgba(229, 229, 229, 1)", "value_colors": [], "value_font_family": "Consolas, \"Liberation Mono\", Menlo, Courier, monospace", "value_font_size": 16, "value_label_font_family": "Consolas, \"Liberation Mono\", Menlo, Courier, monospace", "value_label_font_size": 10}, "title": null, "tooltip_border_radius": 0, "tooltip_fancy_mode": true, "truncate_label": null, "truncate_legend": null, "width": 200, "x_label_rotation": 0, "x_labels": ["2023/12", "2023/6", "2023/5", "2023/4", "2023/3"], "x_labels_major": null, "x_labels_major_count": null, "x_labels_major_every": null, "x_title": null, "xrange": null, "y_label_rotation": 0, "y_labels": null, "y_labels_major": null, "y_labels_major_count": null, "y_labels_major_every": null, "y_title": null, "zero": 0, "legends": [""]}</script></defs><title>Pygal</title><g class="graph line-graph vertical"><rect x="0" y="0" width="200" height="50" class="background" /><g transform="translate(22, 10)" class="plot"><rect x="0" y="0" width="168.0" height="30" class="background" /><g class="axis y always_show"><g class="guides"><path d="M0.000000 29.382689 h168.000000" class="axis line" /><text x="-5" y="32.88268881885415" class="">0</text><title>0</title></g><g class="guides"><path d="M0.000000 2.271380 h168.000000" class="guide line" /><text x="-5" y="5.7713798852719655" class="">16</text><title>16</title></g></g><g class="series serie-0 color-0"><path d="M3.230769 25.993775 L3.392308 25.985424 3.553846 25.977073 3.715385 25.968722 3.876923 25.960372 4.038462 25.952022 4.200000 25.943673 4.361538 25.935325 4.523077 25.926978 4.684615 25.918632 4.846154 25.910288 5.007692 25.901945 5.169231 25.893604 5.330769 25.885264 5.492308 25.876927 5.653846 25.868591 5.815385 25.860258 5.976923 25.851928 6.138462 25.843599 6.300000 25.835274 6.461538 25.826952 6.623077 25.818632 6.784615 25.810316 6.946154 25.802003 7.107692 25.793693 7.269231 25.785387 7.430769 25.777085 7.592308 25.768787 7.753846 25.760493 7.915385 25.752203 8.076923 25.743917 8.238462 25.735636 8.400000 25.727360 8.561538 25.719089 8.723077 25.710822 8.884615 25.702561 9.046154 25.694305 9.207692 25.686054 9.369231 25.677809 9.530769 25.669570 9.692308 25.661336 9.853846 25.653109 10.015385 25.644888 10.176923 25.636673 10.338462 25.628465 10.500000 25.620263 10.661538 25.612068 10.823077 25.603880 10.984615 25.595699 11.146154 25.587526 11.307692 25.579359 11.469231 25.571201 11.630769 25.563050 11.792308 25.554907 11.953846 25.546772 12.115385 25.538645 12.276923 25.530526 12.438462 25.522416 12.600000 25.514315 12.761538 25.506222 12.923077 25.498138 13.084615 25.490063 13.246154 25.481997 13.407692 25.473941 13.569231 25.465895 13.730769 25.457857 13.892308 25.449830 14.053846 25.441813 14.215385 25.433806 14.376923 25.425809 14.538462 25.417823 14.700000 25.409847 14.861538 25.401882 15.023077 25.393927 15.184615 25.385984 15.346154 25.378052 15.507692 25.370131 15.669231 25.362222 15.830769 25.354324 15.992308 25.346438 16.153846 25.338565 16.315385 25.330703 16.476923 25.322853 16.638462 25.315016 16.800000 25.307191 16.961538 25.299379 17.123077 25.291580 17.284615 25.283794 17.446154 25.276021 17.607692 25.268261 17.769231 25.260515 17.930769 25.252782 18.092308 25.245063 18.253846 25.237358 18.415385 25.229667 18.576923 25.221991 18.738462 25.214328 18.900000 25.206680 19.061538 25.199047 19.223077 25.191428 19.384615 25.183825 19.546154 25.176236 19.707692 25.168663 19.869231 25.161105 20.030769 25.153563 20.192308 25.146037 20.353846 25.138526 20.515385 25.131031 20.676923 25.123553 20.838462 25.116091 21.000000 25.108645 21.161538 25.101216 21.323077 25.093804 21.484615 25.086408 21.646154 25.079030 21.807692 25.071669 21.969231 25.064325 22.130769 25.056999 22.292308 25.049691 22.453846 25.042400 22.615385 25.035127 22.776923 25.027872 22.938462 25.020636 23.100000 25.013418 23.261538 25.006219 23.423077 24.999038 23.584615 24.991877 23.746154 24.984734 23.907692 24.977610 24.069231 24.970506 24.230769 24.963422 24.392308 24.956356 24.553846 24.949311 24.715385 24.942286 24.876923 24.935281 25.038462 24.928296 25.200000 24.921331 25.361538 24.914387 25.523077 24.907464 25.684615 24.900561 25.846154 24.893680 26.007692 24.886819 26.169231 24.879980 26.330769 24.873163 26.492308 24.866367 26.653846 24.859592 26.815385 24.852840 26.976923 24.846110 27.138462 24.839401 27.300000 24.832716 27.461538 24.826052 27.623077 24.819412 27.784615 24.812794 27.946154 24.806199 28.107692 24.799627 28.269231 24.793079 28.430769 24.786554 28.592308 24.780052 28.753846 24.773575 28.915385 24.767121 29.076923 24.760691 29.238462 24.754285 29.400000 24.747904 29.561538 24.741547 29.723077 24.735215 29.884615 24.728907 30.046154 24.722624 30.207692 24.716367 30.369231 24.710135 30.530769 24.703928 30.692308 24.697746 30.853846 24.691590 31.015385 24.685461 31.176923 24.679357 31.338462 24.673279 31.500000 24.667227 31.661538 24.661202 31.823077 24.655204 31.984615 24.649232 32.146154 24.643287 32.307692 24.637369 32.469231 24.631479 32.630769 24.625615 32.792308 24.619780 32.953846 24.613971 33.115385 24.608191 33.276923 24.602439 33.438462 24.596714 33.600000 24.591018 33.761538 24.585350 33.923077 24.579711 34.084615 24.574101 34.246154 24.568519 34.407692 24.562967 34.569231 24.557443 34.730769 24.551949 34.892308 24.546484 35.053846 24.541049 35.215385 24.535644 35.376923 24.530269 35.538462 24.524923 35.700000 24.519608 35.861538 24.514323 36.023077 24.509069 36.184615 24.503845 36.346154 24.498653 36.507692 24.493491 36.669231 24.488360 36.830769 24.483261 36.992308 24.478193 37.153846 24.473156 37.315385 24.468151 37.476923 24.463178 37.638462 24.458238 37.800000 24.453329 37.961538 24.448453 38.123077 24.443609 38.284615 24.438797 38.446154 24.434019 38.607692 24.429273 38.769231 24.424561 38.930769 24.419882 39.092308 24.415236 39.253846 24.410624 39.415385 24.406045 39.576923 24.401500 39.738462 24.396989 39.900000 24.392513 40.061538 24.388070 40.223077 24.383662 40.384615 24.379289 40.546154 24.374950 40.707692 24.370647 40.869231 24.366378 41.030769 24.362144 41.192308 24.357946 41.353846 24.353784 41.515385 24.349657 41.676923 24.345566 41.838462 24.341510 42.000000 24.337491 42.161538 24.333508 42.323077 24.329562 42.484615 24.325652 42.646154 24.321779 42.807692 24.317942 42.969231 24.314143 43.130769 24.310381 43.292308 24.306656 43.453846 24.302968 43.615385 24.299318 43.776923 24.295706 43.938462 24.292133 44.100000 24.288598 44.261538 24.285102 44.423077 24.281647 44.584615 24.278232 44.746154 24.274858 44.907692 24.271526 45.069231 24.268235 45.230769 24.264988 45.392308 24.261783 45.553846 24.258623 45.715385 24.255507 45.876923 24.252435 46.038462 24.249409 46.200000 24.246429 46.361538 24.243496 46.523077 24.240609 46.684615 24.237770 46.846154 24.234979 47.007692 24.232237 47.169231 24.229544 47.330769 24.226901 47.492308 24.224309 47.653846 24.221767 47.815385 24.219276 47.976923 24.216838 48.138462 24.214452 48.300000 24.212119 48.461538 24.209839 48.623077 24.207614 48.784615 24.205444 48.946154 24.203328 49.107692 24.201269 49.269231 24.199266 49.430769 24.197320 49.592308 24.195431 49.753846 24.193600 49.915385 24.191827 50.076923 24.190114 50.238462 24.188460 50.400000 24.186867 50.561538 24.185334 50.723077 24.183862 50.884615 24.182452 51.046154 24.181105 51.207692 24.179820 51.369231 24.178599 51.530769 24.177442 51.692308 24.176349 51.853846 24.175322 52.015385 24.174360 52.176923 24.173464 52.338462 24.172635 52.500000 24.171873 52.661538 24.171179 52.823077 24.170553 52.984615 24.169996 53.146154 24.169509 53.307692 24.169091 53.469231 24.168744 53.630769 24.168468 53.792308 24.168264 53.953846 24.168132 54.115385 24.168073 54.276923 24.168087 54.438462 24.168174 54.600000 24.168337 54.761538 24.168573 54.923077 24.168886 55.084615 24.169274 55.246154 24.169739 55.407692 24.170281 55.569231 24.170901 55.730769 24.171599 55.892308 24.172375 56.053846 24.173231 56.215385 24.174167 56.376923 24.175183 56.538462 24.176280 56.700000 24.177458 56.861538 24.178718 57.023077 24.180061 57.184615 24.181487 57.346154 24.182997 57.507692 24.184590 57.669231 24.186269 57.830769 24.188033 57.992308 24.189882 58.153846 24.191818 58.315385 24.193841 58.476923 24.195951 58.638462 24.198150 58.800000 24.200437 58.961538 24.202813 59.123077 24.205278 59.284615 24.207834 59.446154 24.210480 59.607692 24.213218 59.769231 24.216048 59.930769 24.218970 60.092308 24.221985 60.253846 24.225093 60.415385 24.228296 60.576923 24.231593 60.738462 24.234985 60.900000 24.238472 61.061538 24.242056 61.223077 24.245737 61.384615 24.249515 61.546154 24.253391 61.707692 24.257365 61.869231 24.261438 62.030769 24.265610 62.192308 24.269883 62.353846 24.274256 62.515385 24.278730 62.676923 24.283306 62.838462 24.287984 63.000000 24.292765 63.161538 24.297649 63.323077 24.302637 63.484615 24.307730 63.646154 24.312927 63.807692 24.318230 63.969231 24.323639 64.130769 24.329154 64.292308 24.334776 64.453846 24.340507 64.615385 24.346345 64.776923 24.352292 64.938462 24.358348 65.100000 24.364515 65.261538 24.370791 65.423077 24.377179 65.584615 24.383678 65.746154 24.390289 65.907692 24.397013 66.069231 24.403850 66.230769 24.410800 66.392308 24.417865 66.553846 24.425044 66.715385 24.432339 66.876923 24.439750 67.038462 24.447277 67.200000 24.454921 67.361538 24.462682 67.523077 24.470562 67.684615 24.478560 67.846154 24.486677 68.007692 24.494914 68.169231 24.503271 68.330769 24.511749 68.492308 24.520348 68.653846 24.529069 68.815385 24.537913 68.976923 24.546879 69.138462 24.555969 69.300000 24.565183 69.461538 24.574521 69.623077 24.583985 69.784615 24.593575 69.946154 24.603290 70.107692 24.613133 70.269231 24.623102 70.430769 24.633200 70.592308 24.643426 70.753846 24.653781 70.915385 24.664265 71.076923 24.674880 71.238462 24.685625 71.400000 24.696501 71.561538 24.707509 71.723077 24.718649 71.884615 24.729922 72.046154 24.741329 72.207692 24.752869 72.369231 24.764543 72.530769 24.776353 72.692308 24.788298 72.853846 24.800379 73.015385 24.812597 73.176923 24.824952 73.338462 24.837444 73.500000 24.850075 73.661538 24.862845 73.823077 24.875754 73.984615 24.888803 74.146154 24.901992 74.307692 24.915322 74.469231 24.928794 74.630769 24.942408 74.792308 24.956164 74.953846 24.970064 75.115385 24.984107 75.276923 24.998295 75.438462 25.012627 75.600000 25.027105 75.761538 25.041728 75.923077 25.056499 76.084615 25.071416 76.246154 25.086480 76.407692 25.101693 76.569231 25.117054 76.730769 25.132564 76.892308 25.148225 77.053846 25.164035 77.215385 25.179996 77.376923 25.196109 77.538462 25.212373 77.700000 25.228790 77.861538 25.245360 78.023077 25.262083 78.184615 25.278961 78.346154 25.295993 78.507692 25.313180 78.669231 25.330523 78.830769 25.348022 78.992308 25.365678 79.153846 25.383492 79.315385 25.401463 79.476923 25.419593 79.638462 25.437882 79.800000 25.456330 79.961538 25.474939 80.123077 25.493708 80.284615 25.512638 80.446154 25.531730 80.607692 25.550984 80.769231 25.570401 80.930769 25.589982 81.092308 25.609726 81.253846 25.629635 81.415385 25.649708 81.576923 25.669948 81.738462 25.690353 81.900000 25.710925 82.061538 25.731665 82.223077 25.752572 82.384615 25.773647 82.546154 25.794891 82.707692 25.816304 82.869231 25.837888 83.030769 25.859642 83.192308 25.881567 83.353846 25.903663 83.515385 25.925932 83.676923 25.948373 83.838462 25.970987 84.000000 25.993775 84.161538 26.016737 84.323077 26.039869 84.484615 26.063169 84.646154 26.086631 84.807692 26.110254 84.969231 26.134032 85.130769 26.157963 85.292308 26.182043 85.453846 26.206268 85.615385 26.230635 85.776923 26.255140 85.938462 26.279778 86.100000 26.304548 86.261538 26.329444 86.423077 26.354464 86.584615 26.379604 86.746154 26.404860 86.907692 26.430228 87.069231 26.455705 87.230769 26.481287 87.392308 26.506971 87.553846 26.532752 87.715385 26.558628 87.876923 26.584595 88.038462 26.610648 88.200000 26.636785 88.361538 26.663002 88.523077 26.689295 88.684615 26.715660 88.846154 26.742094 89.007692 26.768593 89.169231 26.795154 89.330769 26.821772 89.492308 26.848445 89.653846 26.875169 89.815385 26.901940 89.976923 26.928753 90.138462 26.955607 90.300000 26.982497 90.461538 27.009419 90.623077 27.036370 90.784615 27.063346 90.946154 27.090344 91.107692 27.117360 91.269231 27.144390 91.430769 27.171430 91.592308 27.198478 91.753846 27.225529 91.915385 27.252579 92.076923 27.279626 92.238462 27.306665 92.400000 27.333693 92.561538 27.360706 92.723077 27.387701 92.884615 27.414673 93.046154 27.441620 93.207692 27.468538 93.369231 27.495422 93.530769 27.522270 93.692308 27.549077 93.853846 27.575841 94.015385 27.602557 94.176923 27.629222 94.338462 27.655832 94.500000 27.682383 94.661538 27.708873 94.823077 27.735297 94.984615 27.761651 95.146154 27.787932 95.307692 27.814137 95.469231 27.840261 95.630769 27.866302 95.792308 27.892255 95.953846 27.918116 96.115385 27.943883 96.276923 27.969552 96.438462 27.995118 96.600000 28.020578 96.761538 28.045930 96.923077 28.071168 97.084615 28.096289 97.246154 28.121290 97.407692 28.146168 97.569231 28.170917 97.730769 28.195536 97.892308 28.220019 98.053846 28.244364 98.215385 28.268568 98.376923 28.292625 98.538462 28.316533 98.700000 28.340288 98.861538 28.363886 99.023077 28.387324 99.184615 28.410598 99.346154 28.433704 99.507692 28.456639 99.669231 28.479400 99.830769 28.501982 99.992308 28.524381 100.153846 28.546595 100.315385 28.568620 100.476923 28.590452 100.638462 28.612087 100.800000 28.633521 100.961538 28.654752 101.123077 28.675775 101.284615 28.696587 101.446154 28.717184 101.607692 28.737562 101.769231 28.757719 101.930769 28.777650 102.092308 28.797351 102.253846 28.816819 102.415385 28.836051 102.576923 28.855042 102.738462 28.873789 102.900000 28.892289 103.061538 28.910538 103.223077 28.928531 103.384615 28.946266 103.546154 28.963740 103.707692 28.980947 103.869231 28.997885 104.030769 29.014550 104.192308 29.030938 104.353846 29.047046 104.515385 29.062870 104.676923 29.078406 104.838462 29.093651 105.000000 29.108601 105.161538 29.123253 105.323077 29.137603 105.484615 29.151646 105.646154 29.165381 105.807692 29.178802 105.969231 29.191907 106.130769 29.204691 106.292308 29.217152 106.453846 29.229285 106.615385 29.241086 106.776923 29.252553 106.938462 29.263682 107.100000 29.274468 107.261538 29.284908 107.423077 29.294999 107.584615 29.304737 107.746154 29.314118 107.907692 29.323139 108.069231 29.331796 108.230769 29.340085 108.392308 29.348003 108.553846 29.355547 108.715385 29.362711 108.876923 29.369494 109.038462 29.375891 109.200000 29.381898 109.361538 29.387513 109.523077 29.392730 109.684615 29.397548 109.846154 29.401961 110.007692 29.405967 110.169231 29.409561 110.330769 29.412741 110.492308 29.415502 110.653846 29.417841 110.815385 29.419755 110.976923 29.421238 111.138462 29.422289 111.300000 29.422903 111.461538 29.423077 111.623077 29.422807 111.784615 29.422089 111.946154 29.420920 112.107692 29.419296 112.269231 29.417213 112.430769 29.414669 112.592308 29.411658 112.753846 29.408179 112.915385 29.404226 113.076923 29.399796 113.238462 29.394886 113.400000 29.389492 113.561538 29.383611 113.723077 29.377238 113.884615 29.370370 114.046154 29.363004 114.207692 29.355136 114.369231 29.346762 114.530769 29.337878 114.692308 29.328482 114.853846 29.318568 115.015385 29.308135 115.176923 29.297177 115.338462 29.285692 115.500000 29.273675 115.661538 29.261124 115.823077 29.248034 115.984615 29.234402 116.146154 29.220224 116.307692 29.205497 116.469231 29.190217 116.630769 29.174380 116.792308 29.157982 116.953846 29.141021 117.115385 29.123492 117.276923 29.105392 117.438462 29.086716 117.600000 29.067463 117.761538 29.047627 117.923077 29.027205 118.084615 29.006194 118.246154 28.984590 118.407692 28.962389 118.569231 28.939588 118.730769 28.916183 118.892308 28.892170 119.053846 28.867546 119.215385 28.842307 119.376923 28.816449 119.538462 28.789970 119.700000 28.762864 119.861538 28.735129 120.023077 28.706761 120.184615 28.677757 120.346154 28.648112 120.507692 28.617822 120.669231 28.586886 120.830769 28.555298 120.992308 28.523055 121.153846 28.490154 121.315385 28.456590 121.476923 28.422361 121.638462 28.387462 121.800000 28.351890 121.961538 28.315641 122.123077 28.278712 122.284615 28.241099 122.446154 28.202799 122.607692 28.163807 122.769231 28.124120 122.930769 28.083735 123.092308 28.042647 123.253846 28.000854 123.415385 27.958351 123.576923 27.915135 123.738462 27.871202 123.900000 27.826549 124.061538 27.781172 124.223077 27.735068 124.384615 27.688232 124.546154 27.640662 124.707692 27.592361 124.869231 27.543330 125.030769 27.493573 125.192308 27.443093 125.353846 27.391893 125.515385 27.339976 125.676923 27.287344 125.838462 27.234001 126.000000 27.179949 126.161538 27.125192 126.323077 27.069732 126.484615 27.013573 126.646154 26.956717 126.807692 26.899167 126.969231 26.840927 127.130769 26.781998 127.292308 26.722385 127.453846 26.662089 127.615385 26.601115 127.776923 26.539464 127.938462 26.477141 128.100000 26.414147 128.261538 26.350485 128.423077 26.286160 128.584615 26.221173 128.746154 26.155527 128.907692 26.089226 129.069231 26.022272 129.230769 25.954669 129.392308 25.886419 129.553846 25.817525 129.715385 25.747990 129.876923 25.677818 130.038462 25.607010 130.200000 25.535571 130.361538 25.463502 130.523077 25.390807 130.684615 25.317489 130.846154 25.243551 131.007692 25.168995 131.169231 25.093825 131.330769 25.018044 131.492308 24.941654 131.653846 24.864659 131.815385 24.787061 131.976923 24.708863 132.138462 24.630068 132.300000 24.550680 132.461538 24.470701 132.623077 24.390133 132.784615 24.308981 132.946154 24.227247 133.107692 24.144934 133.269231 24.062044 133.430769 23.978582 133.592308 23.894549 133.753846 23.809948 133.915385 23.724784 134.076923 23.639057 134.238462 23.552773 134.400000 23.465932 134.561538 23.378539 134.723077 23.290597 134.884615 23.202107 135.046154 23.113074 135.207692 23.023499 135.369231 22.933387 135.530769 22.842740 135.692308 22.751561 135.853846 22.659852 136.015385 22.567618 136.176923 22.474860 136.338462 22.381582 136.500000 22.287786 136.661538 22.193476 136.823077 22.098655 136.984615 22.003325 137.146154 21.907489 137.307692 21.811151 137.469231 21.714313 137.630769 21.616978 137.792308 21.519149 137.953846 21.420830 138.115385 21.322022 138.276923 21.222729 138.438462 21.122955 138.600000 21.022701 138.761538 20.921970 138.923077 20.820767 139.084615 20.719093 139.246154 20.616952 139.407692 20.514346 139.569231 20.411279 139.730769 20.307754 139.892308 20.203772 140.053846 20.099338 140.215385 19.994454 140.376923 19.889124 140.538462 19.783349 140.700000 19.677133 140.861538 19.570480 141.023077 19.463391 141.184615 19.355871 141.346154 19.247921 141.507692 19.139545 141.669231 19.030745 141.830769 18.921525 141.992308 18.811888 142.153846 18.701836 142.315385 18.591373 142.476923 18.480501 142.638462 18.369223 142.800000 18.257543 142.961538 18.145463 143.123077 18.032986 143.284615 17.920115 143.446154 17.806853 143.607692 17.693203 143.769231 17.579169 143.930769 17.464751 144.092308 17.349955 144.253846 17.234782 144.415385 17.119237 144.576923 17.003320 144.738462 16.887036 144.900000 16.770388 145.061538 16.653378 145.223077 16.536010 145.384615 16.418286 145.546154 16.300209 145.707692 16.181782 145.869231 16.063008 146.030769 15.943891 146.192308 15.824432 146.353846 15.704635 146.515385 15.584503 146.676923 15.464040 146.838462 15.343246 147.000000 15.222127 147.161538 15.100684 147.323077 14.978921 147.484615 14.856840 147.646154 14.734445 147.807692 14.611738 147.969231 14.488722 148.130769 14.365401 148.292308 14.241777 148.453846 14.117853 148.615385 13.993632 148.776923 13.869117 148.938462 13.744311 149.100000 13.619218 149.261538 13.493839 149.423077 13.368177 149.584615 13.242237 149.746154 13.116020 149.907692 12.989530 150.069231 12.862769 150.230769 12.735741 150.392308 12.608448 150.553846 12.480894 150.715385 12.353081 150.876923 12.225012 151.038462 12.096690 151.200000 11.968119 151.361538 11.839300 151.523077 11.710238 151.684615 11.580935 151.846154 11.451393 152.007692 11.321616 152.169231 11.191607 152.330769 11.061369 152.492308 10.930904 152.653846 10.800216 152.815385 10.669308 152.976923 10.538182 153.138462 10.406841 153.300000 10.275289 153.461538 10.143528 153.623077 10.011561 153.784615 9.879392 153.946154 9.747022 154.107692 9.614456 154.269231 9.481695 154.430769 9.348744 154.592308 9.215604 154.753846 9.082279 154.915385 8.948772 155.076923 8.815085 155.238462 8.681223 155.400000 8.547186 155.561538 8.412980 155.723077 8.278605 155.884615 8.144066 156.046154 8.009366 156.207692 7.874506 156.369231 7.739491 156.530769 7.604323 156.692308 7.469005 156.853846 7.333540 157.015385 7.197931 157.176923 7.062181 157.338462 6.926293 157.500000 6.790269 157.661538 6.654114 157.823077 6.517829 157.984615 6.381417 158.146154 6.244882 158.307692 6.108227 158.469231 5.971453 158.630769 5.834566 158.792308 5.697566 158.953846 5.560458 159.115385 5.423244 159.276923 5.285927 159.438462 5.148510 159.600000 5.010996 159.761538 4.873388 159.923077 4.735689 160.084615 4.597902 160.246154 4.460030 160.407692 4.322075 160.569231 4.184041 160.730769 4.045930 160.892308 3.907746 161.053846 3.769491 161.215385 3.631169 161.376923 3.492782 161.538462 3.354333 161.700000 3.215826 161.861538 3.077263 162.023077 2.938646 162.184615 2.799980 162.346154 2.661267 162.507692 2.522510 162.669231 2.383711 162.830769 2.244874 162.992308 2.106002 163.153846 1.967098 163.315385 1.828164 163.476923 1.689204 163.638462 1.550220 163.800000 1.411216 163.961538 1.272194 164.123077 1.133158 164.284615 0.994109 164.446154 0.855052 164.607692 0.715989 164.769231 0.576923" class="line reactive nofill" /></g></g><g class="titles" /><g transform="translate(22, 10)" class="plot overlay"><g class="series serie-0 color-0" /></g><g transform="translate(22, 10)" class="plot text-overlay"><g class="series serie-0 color-0" /></g><g transform="translate(22, 10)" class="plot tooltip-overlay"><g transform="translate(0 0)" style="opacity: 0" class="tooltip"><rect rx="0" ry="0" width="0" height="0" class="tooltip-box" /><g class="text" /></g></g></g></svg>