<?xml version='1.0' encoding='utf-8'?>
<svg xmlns="http://www.w3.org/2000/svg" id="chart-141782d3-b3fb-4fc4-a589-f25293c65b4f" class="pygal-chart pygal-sparkline" viewBox="0 0 200 50" width="200" height="50"><!--Generated with pygal 3.0.5 (etree) ©Kozea 2012-2016 on 2024-08-28--><!--http://pygal.org--><!--http://github.com/Kozea/pygal--><defs><style type="text/css">#chart-141782d3-b3fb-4fc4-a589-f25293c65b4f{-webkit-user-select:none;-webkit-font-smoothing:antialiased;font-family:Consolas,"Liberation Mono",Menlo,Courier,monospace}#chart-141782d3-b3fb-4fc4-a589-f25293c65b4f .title{font-family:Consolas,"Liberation Mono",Menlo,Courier,monospace;font-size:16px}#chart-141782d3-b3fb-4fc4-a589-f25293c65b4f .legends .legend text{font-family:Consolas,"Liberation Mono",Menlo,Courier,monospace;font-size:14px}#chart-141782d3-b3fb-4fc4-a589-f25293c65b4f .axis text{font-family:Consolas,"Liberation Mono",Menlo,Courier,monospace;font-size:10px}#chart-141782d3-b3fb-4fc4-a589-f25293c65b4f .axis text.major{font-family:Consolas,"Liberation Mono",Menlo,Courier,monospace;font-size:10px}#chart-141782d3-b3fb-4fc4-a589-f25293c65b4f .text-overlay text.value{font-family:Consolas,"Liberation Mono",Menlo,Courier,monospace;font-size:16px}#chart-141782d3-b3fb-4fc4-a589-f25293c65b4f .text-overlay text.label{font-family:Consolas,"Liberation Mono",Menlo,Courier,monospace;font-size:10px}#chart-141782d3-b3fb-4fc4-a589-f25293c65b4f .tooltip{font-family:Consolas,"Liberation Mono",Menlo,Courier,monospace;font-size:14px}#chart-141782d3-b3fb-4fc4-a589-f25293c65b4f text.no_data{font-family:Consolas,"Liberation Mono",Menlo,Courier,monospace;font-size:64px}
#chart-141782d3-b3fb-4fc4-a589-f25293c65b4f{background-color:rgba(249,249,249,1)}#chart-141782d3-b3fb-4fc4-a589-f25293c65b4f path,#chart-141782d3-b3fb-4fc4-a589-f25293c65b4f line,#chart-141782d3-b3fb-4fc4-a589-f25293c65b4f rect,#chart-141782d3-b3fb-4fc4-a589-f25293c65b4f circle{-webkit-transition:150ms;-moz-transition:150ms;transition:150ms}#chart-141782d3-b3fb-4fc4-a589-f25293c65b4f .graph &gt; .background{fill:rgba(249,249,249,1)}#chart-141782d3-b3fb-4fc4-a589-f25293c65b4f .plot &gt; .background{fill:rgba(255,255,255,1)}#chart-141782d3-b3fb-4fc4-a589-f25293c65b4f .graph{fill:rgba(0,0,0,.87)}#chart-141782d3-b3fb-4fc4-a589-f25293c65b4f text.no_data{fill:rgba(0,0,0,1)}#chart-141782d3-b3fb-4fc4-a589-f25293c65b4f .title{fill:rgba(0,0,0,1)}#chart-141782d3-b3fb-4fc4-a589-f25293c65b4f .legends .legend text{fill:rgba(0,0,0,.87)}#chart-141782d3-b3fb-4fc4-a589-f25293c65b4f .legends .legend:hover text{fill:rgba(0,0,0,1)}#chart-141782d3-b3fb-4fc4-a589-f25293c65b4f .axis .line{stroke:rgba(0,0,0,1)}#chart-141782d3-b3fb-4fc4-a589-f25293c65b4f .axis .guide.line{stroke:rgba(0,0,0,.54)}#chart-141782d3-b3fb-4fc4-a589-f25293c65b4f .axis .major.line{stroke:rgba(0,0,0,.87)}#chart-141782d3-b3fb-4fc4-a589-f25293c65b4f .axis text.major{fill:rgba(0,0,0,1)}#chart-141782d3-b3fb-4fc4-a589-f25293c65b4f .axis.y .guides:hover .guide.line,#chart-141782d3-b3fb-4fc4-a589-f25293c65b4f .line-graph .axis.x .guides:hover .guide.line,#chart-141782d3-b3fb-4fc4-a589-f25293c65b4f .stackedline-graph .axis.x .guides:hover .guide.line,#chart-141782d3-b3fb-4fc4-a589-f25293c65b4f .xy-graph .axis.x .guides:hover .guide.line{stroke:rgba(0,0,0,1)}#chart-141782d3-b3fb-4fc4-a589-f25293c65b4f .axis .guides:hover text{fill:rgba(0,0,0,1)}#chart-141782d3-b3fb-4fc4-a589-f25293c65b4f .reactive{fill-opacity:.7;stroke-opacity:.8;stroke-width:1}#chart-141782d3-b3fb-4fc4-a589-f25293c65b4f .ci{stroke:rgba(0,0,0,.87)}#chart-141782d3-b3fb-4fc4-a589-f25293c65b4f .reactive.active,#chart-141782d3-b3fb-4fc4-a589-f25293c65b4f .active .reactive{fill-opacity:.8;stroke-opacity:.9;stroke-width:4}#chart-141782d3-b3fb-4fc4-a589-f25293c65b4f .ci .reactive.active{stroke-width:1.5}#chart-141782d3-b3fb-4fc4-a589-f25293c65b4f .series text{fill:rgba(0,0,0,1)}#chart-141782d3-b3fb-4fc4-a589-f25293c65b4f .tooltip rect{fill:rgba(255,255,255,1);stroke:rgba(0,0,0,1);-webkit-transition:opacity 150ms;-moz-transition:opacity 150ms;transition:opacity 150ms}#chart-141782d3-b3fb-4fc4-a589-f25293c65b4f .tooltip .label{fill:rgba(0,0,0,.87)}#chart-141782d3-b3fb-4fc4-a589-f25293c65b4f .tooltip .label{fill:rgba(0,0,0,.87)}#chart-141782d3-b3fb-4fc4-a589-f25293c65b4f .tooltip .legend{font-size:.8em;fill:rgba(0,0,0,.54)}#chart-141782d3-b3fb-4fc4-a589-f25293c65b4f .tooltip .x_label{font-size:.6em;fill:rgba(0,0,0,1)}#chart-141782d3-b3fb-4fc4-a589-f25293c65b4f .tooltip .xlink{font-size:.5em;text-decoration:underline}#chart-141782d3-b3fb-4fc4-a589-f25293c65b4f .tooltip .value{font-size:1.5em}#chart-141782d3-b3fb-4fc4-a589-f25293c65b4f .bound{font-size:.5em}#chart-141782d3-b3fb-4fc4-a589-f25293c65b4f .max-value{font-size:.75em;fill:rgba(0,0,0,.54)}#chart-141782d3-b3fb-4fc4-a589-f25293c65b4f .map-element{fill:rgba(255,255,255,1);stroke:rgba(0,0,0,.54) !important}#chart-141782d3-b3fb-4fc4-a589-f25293c65b4f .map-element .reactive{fill-opacity:inherit;stroke-opacity:inherit}#chart-141782d3-b3fb-4fc4-a589-f25293c65b4f .color-0,#chart-141782d3-b3fb-4fc4-a589-f25293c65b4f .color-0 a:visited{stroke:#F44336;fill:#F44336}#chart-141782d3-b3fb-4fc4-a589-f25293c65b4f .text-overlay .color-0 text{fill:black}
#chart-141782d3-b3fb-4fc4-a589-f25293c65b4f text.no_data{text-anchor:middle}#chart-141782d3-b3fb-4fc4-a589-f25293c65b4f .guide.line{fill:none}#chart-141782d3-b3fb-4fc4-a589-f25293c65b4f .centered{text-anchor:middle}#chart-141782d3-b3fb-4fc4-a589-f25293c65b4f .title{text-anchor:middle}#chart-141782d3-b3fb-4fc4-a589-f25293c65b4f .legends .legend text{fill-opacity:1}#chart-141782d3-b3fb-4fc4-a589-f25293c65b4f .axis.x text{text-anchor:middle}#chart-141782d3-b3fb-4fc4-a589-f25293c65b4f .axis.x:not(.web) text[transform]{text-anchor:start}#chart-141782d3-b3fb-4fc4-a589-f25293c65b4f .axis.x:not(.web) text[transform].backwards{text-anchor:end}#chart-141782d3-b3fb-4fc4-a589-f25293c65b4f .axis.y text{text-anchor:end}#chart-141782d3-b3fb-4fc4-a589-f25293c65b4f .axis.y text[transform].backwards{text-anchor:start}#chart-141782d3-b3fb-4fc4-a589-f25293c65b4f .axis.y2 text{text-anchor:start}#chart-141782d3-b3fb-4fc4-a589-f25293c65b4f .axis.y2 text[transform].backwards{text-anchor:end}#chart-141782d3-b3fb-4fc4-a589-f25293c65b4f .axis .guide.line{stroke-dasharray:4,4;stroke:black}#chart-141782d3-b3fb-4fc4-a589-f25293c65b4f .axis .major.guide.line{stroke-dasharray:6,6;stroke:black}#chart-141782d3-b3fb-4fc4-a589-f25293c65b4f .horizontal .axis.y .guide.line,#chart-141782d3-b3fb-4fc4-a589-f25293c65b4f .horizontal .axis.y2 .guide.line,#chart-141782d3-b3fb-4fc4-a589-f25293c65b4f .vertical .axis.x .guide.line{opacity:0}#chart-141782d3-b3fb-4fc4-a589-f25293c65b4f .horizontal .axis.always_show .guide.line,#chart-141782d3-b3fb-4fc4-a589-f25293c65b4f .vertical .axis.always_show .guide.line{opacity:1 !important}#chart-141782d3-b3fb-4fc4-a589-f25293c65b4f .axis.y .guides:hover .guide.line,#chart-141782d3-b3fb-4fc4-a589-f25293c65b4f .axis.y2 .guides:hover .guide.line,#chart-141782d3-b3fb-4fc4-a589-f25293c65b4f .axis.x .guides:hover .guide.line{opacity:1}#chart-141782d3-b3fb-4fc4-a589-f25293c65b4f .axis .guides:hover text{opacity:1}#chart-141782d3-b3fb-4fc4-a589-f25293c65b4f .nofill{fill:none}#chart-141782d3-b3fb-4fc4-a589-f25293c65b4f .subtle-fill{fill-opacity:.2}#chart-141782d3-b3fb-4fc4-a589-f25293c65b4f .dot{stroke-width:1px;fill-opacity:1;stroke-opacity:1}#chart-141782d3-b3fb-4fc4-a589-f25293c65b4f .dot.active{stroke-width:5px}#chart-141782d3-b3fb-4fc4-a589-f25293c65b4f .dot.negative{fill:transparent}#chart-141782d3-b3fb-4fc4-a589-f25293c65b4f text,#chart-141782d3-b3fb-4fc4-a589-f25293c65b4f tspan{stroke:none !important}#chart-141782d3-b3fb-4fc4-a589-f25293c65b4f .series text.active{opacity:1}#chart-141782d3-b3fb-4fc4-a589-f25293c65b4f .tooltip rect{fill-opacity:.95;stroke-width:.5}#chart-141782d3-b3fb-4fc4-a589-f25293c65b4f .tooltip text{fill-opacity:1}#chart-141782d3-b3fb-4fc4-a589-f25293c65b4f .showable{visibility:hidden}#chart-141782d3-b3fb-4fc4-a589-f25293c65b4f .showable.shown{visibility:visible}#chart-141782d3-b3fb-4fc4-a589-f25293c65b4f .gauge-background{fill:rgba(229,229,229,1);stroke:none}#chart-141782d3-b3fb-4fc4-a589-f25293c65b4f .bg-lines{stroke:rgba(249,249,249,1);stroke-width:2px}</style><script type="text/javascript">window.pygal = window.pygal || {};window.pygal.config = window.pygal.config || {};window.pygal.config['141782d3-b3fb-4fc4-a589-f25293c65b4f'] = {"allow_interruptions": false, "box_mode": "extremes", "classes": ["pygal-chart", "pygal-sparkline"], "css": ["file://style.css", "file://graph.css"], "defs": [], "disable_xml_declaration": false, "dots_size": 2.5, "dynamic_print_values": false, "explicit_size": true, "fill": false, "force_uri_protocol": "https", "formatter": null, "half_pie": false, "height": 50, "include_x_axis": false, "inner_radius": 0, "interpolate": "cubic", "interpolation_parameters": {}, "interpolation_precision": 250, "inverse_y_axis": false, "js": [], "legend_at_bottom": false, "legend_at_bottom_columns": null, "legend_box_size": 12, "logarithmic": false, "margin": 10, "margin_bottom": null, "margin_left": null, "margin_right": null, "margin_top": null, "max_scale": 2, "min_scale": 1, "missing_value_fill_truncation": "x", "no_data_text": "", "no_prefix": false, "order_min": null, "pretty_print": false, "print_labels": false, "print_values": false, "print_values_position": "center", "print_zeroes": true, "range": null, "rounded_bars": null, "secondary_range": null, "show_dots": false, "show_legend": false, "show_minor_x_labels": true, "show_minor_y_labels": true, "show_only_major_dots": false, "show_x_guides": false, "show_x_labels": false, "show_y_guides": true, "show_y_labels": true, "spacing": 0, "stack_from_top": false, "strict": false, "stroke": true, "stroke_style": null, "style": {"background": "rgba(249, 249, 249, 1)", "ci_colors": [], "colors": ["#F44336", "#3F51B5", "#009688", "#FFC107", "#FF5722", "#9C27B0", "#03A9F4", "#8BC34A", "#FF9800", "#E91E63", "#2196F3", "#4CAF50", "#FFEB3B", "#673AB7", "#00BCD4", "#CDDC39", "#9E9E9E", "#607D8B"], "dot_opacity": "1", "font_family": "Consolas, \"Liberation Mono\", Menlo, Courier, monospace", "foreground": "rgba(0, 0, 0, .87)", "foreground_strong": "rgba(0, 0, 0, 1)", "foreground_subtle": "rgba(0, 0, 0, .54)", "guide_stroke_color": "black", "guide_stroke_dasharray": "4,4", "label_font_family": "Consolas, \"Liberation Mono\", Menlo, Courier, monospace", "label_font_size": 10, "legend_font_family": "Consolas, \"Liberation Mono\", Menlo, Courier, monospace", "legend_font_size": 14, "major_guide_stroke_color": "black", "major_guide_stroke_dasharray": "6,6", "major_label_font_family": "Consolas, \"Liberation Mono\", Menlo, Courier, monospace", "major_label_font_size": 10, "no_data_font_family": "Consolas, \"Liberation Mono\", Menlo, Courier, monospace", "no_data_font_size": 64, "opacity": ".7", "opacity_hover": ".8", "plot_background": "rgba(255, 255, 255, 1)", "stroke_opacity": ".8", "stroke_opacity_hover": ".9", "stroke_width": "1", "stroke_width_hover": "4", "title_font_family": "Consolas, \"Liberation Mono\", Menlo, Courier, monospace", "title_font_size": 16, "tooltip_font_family": "Consolas, \"Liberation Mono\", Menlo, Courier, monospace", "tooltip_font_size": 14, "transition": "150ms", "value_background": "rgba(229, 229, 229, 1)", "value_colors": [], "value_font_family": "Consolas, \"Liberation Mono\", Menlo, Courier, monospace", "value_font_size": 16, "value_label_font_family": "Consolas, \"Liberation Mono\", Menlo, Courier, monospace", "value_label_font_size": 10}, "title": null, "tooltip_border_radius": 0, "tooltip_fancy_mode": true, "truncate_label": null, "truncate_legend": null, "width": 200, "x_label_rotation": 0, "x_labels": ["2024/8", "2024/7", "2024/6", "2024/5", "2023/12", "2023/6", "2023/5", "2023/4", "2023/3"], "x_labels_major": null, "x_labels_major_count": null, "x_labels_major_every": null, "x_title": null, "xrange": null, "y_label_rotation": 0, "y_labels": null, "y_labels_major": null, "y_labels_major_count": null, "y_labels_major_every": null, "y_title": null, "zero": 0, "legends": [""]}</script></defs><title>Pygal</title><g class="graph line-graph vertical"><rect x="0" y="0" width="200" height="50" class="background" /><g transform="translate(82, 10)" class="plot"><rect x="0" y="0" width="108.0" height="30" class="background" /><g class="axis y always_show"><path d="M0.000000 30.000000 h108.000000" class="line" /><g class="guides"><path d="M0.000000 29.423077 h108.000000" class="guide line" /><text x="-5" y="32.92307692307692" class="">0.4391445653</text><title>0.4391445653</title></g><g class="guides"><path d="M0.000000 0.576923 h108.000000" class="guide line" /><text x="-5" y="4.07692307692308" class="">11</text><title>11</title></g></g><g class="series serie-0 color-0"><path d="M2.076923 14.234034 L2.128846 14.312903 2.180769 14.391771 2.232692 14.470634 2.284615 14.549490 2.336538 14.628337 2.388462 14.707172 2.440385 14.785993 2.492308 14.864797 2.544231 14.943584 2.596154 15.022349 2.648077 15.101091 2.700000 15.179807 2.751923 15.258495 2.803846 15.337154 2.855769 15.415779 2.907692 15.494370 2.959615 15.572923 3.011538 15.651437 3.063462 15.729909 3.115385 15.808337 3.167308 15.886718 3.219231 15.965050 3.271154 16.043332 3.323077 16.121559 3.375000 16.199731 3.426923 16.277845 3.478846 16.355898 3.530769 16.433888 3.582692 16.511813 3.634615 16.589671 3.686538 16.667458 3.738462 16.745174 3.790385 16.822815 3.842308 16.900379 3.894231 16.977865 3.946154 17.055268 3.998077 17.132588 4.050000 17.209822 4.101923 17.286968 4.153846 17.364022 4.205769 17.440984 4.257692 17.517850 4.309615 17.594619 4.361538 17.671287 4.413462 17.747853 4.465385 17.824314 4.517308 17.900669 4.569231 17.976913 4.621154 18.053046 4.673077 18.129066 4.725000 18.204968 4.776923 18.280752 4.828846 18.356415 4.880769 18.431955 4.932692 18.507369 4.984615 18.582655 5.036538 18.657811 5.088462 18.732834 5.140385 18.807722 5.192308 18.882473 5.244231 18.957084 5.296154 19.031553 5.348077 19.105878 5.400000 19.180056 5.451923 19.254085 5.503846 19.327963 5.555769 19.401688 5.607692 19.475256 5.659615 19.548667 5.711538 19.621916 5.763462 19.695003 5.815385 19.767925 5.867308 19.840679 5.919231 19.913263 5.971154 19.985675 6.023077 20.057912 6.075000 20.129972 6.126923 20.201854 6.178846 20.273553 6.230769 20.345069 6.282692 20.416399 6.334615 20.487540 6.386538 20.558491 6.438462 20.629248 6.490385 20.699810 6.542308 20.770174 6.594231 20.840337 6.646154 20.910299 6.698077 20.980055 6.750000 21.049605 6.801923 21.118945 6.853846 21.188073 6.905769 21.256987 6.957692 21.325685 7.009615 21.394164 7.061538 21.462421 7.113462 21.530456 7.165385 21.598264 7.217308 21.665845 7.269231 21.733195 7.321154 21.800313 7.373077 21.867195 7.425000 21.933840 7.476923 22.000245 7.528846 22.066409 7.580769 22.132328 7.632692 22.198000 7.684615 22.263423 7.736538 22.328595 7.788462 22.393513 7.840385 22.458176 7.892308 22.522580 7.944231 22.586723 7.996154 22.650603 8.048077 22.714218 8.100000 22.777565 8.151923 22.840643 8.203846 22.903448 8.255769 22.965979 8.307692 23.028232 8.359615 23.090206 8.411538 23.151899 8.463462 23.213308 8.515385 23.274430 8.567308 23.335264 8.619231 23.395808 8.671154 23.456057 8.723077 23.516012 8.775000 23.575668 8.826923 23.635024 8.878846 23.694078 8.930769 23.752827 8.982692 23.811268 9.034615 23.869400 9.086538 23.927221 9.138462 23.984727 9.190385 24.041916 9.242308 24.098787 9.294231 24.155336 9.346154 24.211563 9.398077 24.267463 9.450000 24.323035 9.501923 24.378277 9.553846 24.433185 9.605769 24.487759 9.657692 24.541996 9.709615 24.595892 9.761538 24.649446 9.813462 24.702656 9.865385 24.755520 9.917308 24.808034 9.969231 24.860197 10.021154 24.912006 10.073077 24.963459 10.125000 25.014553 10.176923 25.065287 10.228846 25.115658 10.280769 25.165663 10.332692 25.215301 10.384615 25.264569 10.436538 25.313464 10.488462 25.361985 10.540385 25.410128 10.592308 25.457893 10.644231 25.505275 10.696154 25.552274 10.748077 25.598886 10.800000 25.645110 10.851923 25.690943 10.903846 25.736382 10.955769 25.781426 11.007692 25.826072 11.059615 25.870317 11.111538 25.914160 11.163462 25.957598 11.215385 26.000629 11.267308 26.043250 11.319231 26.085459 11.371154 26.127254 11.423077 26.168633 11.475000 26.209592 11.526923 26.250130 11.578846 26.290245 11.630769 26.329934 11.682692 26.369195 11.734615 26.408025 11.786538 26.446422 11.838462 26.484384 11.890385 26.521909 11.942308 26.558993 11.994231 26.595636 12.046154 26.631834 12.098077 26.667585 12.150000 26.702887 12.201923 26.737738 12.253846 26.772134 12.305769 26.806075 12.357692 26.839557 12.409615 26.872579 12.461538 26.905137 12.513462 26.937230 12.565385 26.968855 12.617308 27.000010 12.669231 27.030692 12.721154 27.060900 12.773077 27.090631 12.825000 27.119882 12.876923 27.148651 12.928846 27.176937 12.980769 27.204736 13.032692 27.232046 13.084615 27.258866 13.136538 27.285192 13.188462 27.311022 13.240385 27.336354 13.292308 27.361186 13.344231 27.385515 13.396154 27.409339 13.448077 27.432656 13.500000 27.455463 13.551923 27.477759 13.603846 27.499540 13.655769 27.520804 13.707692 27.541549 13.759615 27.561773 13.811538 27.581473 13.863462 27.600648 13.915385 27.619294 13.967308 27.637409 14.019231 27.654992 14.071154 27.672039 14.123077 27.688549 14.175000 27.704519 14.226923 27.719947 14.278846 27.734830 14.330769 27.749166 14.382692 27.762953 14.434615 27.776188 14.486538 27.788869 14.538462 27.800995 14.590385 27.812561 14.642308 27.823567 14.694231 27.834010 14.746154 27.843887 14.798077 27.853196 14.850000 27.861936 14.901923 27.870102 14.953846 27.877694 15.005769 27.884709 15.057692 27.891144 15.109615 27.896999 15.161538 27.902276 15.213462 27.906979 15.265385 27.911114 15.317308 27.914684 15.369231 27.917694 15.421154 27.920148 15.473077 27.922050 15.525000 27.923405 15.576923 27.924216 15.628846 27.924489 15.680769 27.924227 15.732692 27.923435 15.784615 27.922117 15.836538 27.920277 15.888462 27.917919 15.940385 27.915049 15.992308 27.911670 16.044231 27.907786 16.096154 27.903402 16.148077 27.898522 16.200000 27.893151 16.251923 27.887292 16.303846 27.880950 16.355769 27.874130 16.407692 27.866835 16.459615 27.859069 16.511538 27.850838 16.563462 27.842146 16.615385 27.832996 16.667308 27.823393 16.719231 27.813341 16.771154 27.802845 16.823077 27.791909 16.875000 27.780537 16.926923 27.768734 16.978846 27.756503 17.030769 27.743850 17.082692 27.730777 17.134615 27.717291 17.186538 27.703394 17.238462 27.689092 17.290385 27.674388 17.342308 27.659287 17.394231 27.643793 17.446154 27.627911 17.498077 27.611644 17.550000 27.594998 17.601923 27.577975 17.653846 27.560582 17.705769 27.542821 17.757692 27.524697 17.809615 27.506215 17.861538 27.487379 17.913462 27.468192 17.965385 27.448660 18.017308 27.428787 18.069231 27.408577 18.121154 27.388034 18.173077 27.367162 18.225000 27.345966 18.276923 27.324451 18.328846 27.302620 18.380769 27.280477 18.432692 27.258028 18.484615 27.235276 18.536538 27.212225 18.588462 27.188881 18.640385 27.165246 18.692308 27.141326 18.744231 27.117125 18.796154 27.092647 18.848077 27.067896 18.900000 27.042877 18.951923 27.017594 19.003846 26.992051 19.055769 26.966253 19.107692 26.940203 19.159615 26.913907 19.211538 26.887368 19.263462 26.860591 19.315385 26.833580 19.367308 26.806339 19.419231 26.778872 19.471154 26.751185 19.523077 26.723281 19.575000 26.695164 19.626923 26.666839 19.678846 26.638310 19.730769 26.609582 19.782692 26.580658 19.834615 26.551543 19.886538 26.522241 19.938462 26.492757 19.990385 26.463095 20.042308 26.433259 20.094231 26.403253 20.146154 26.373082 20.198077 26.342750 20.250000 26.312261 20.301923 26.281620 20.353846 26.250831 20.405769 26.219898 20.457692 26.188825 20.509615 26.157618 20.561538 26.126279 20.613462 26.094814 20.665385 26.063226 20.717308 26.031520 20.769231 25.999701 20.821154 25.967772 20.873077 25.935738 20.925000 25.903603 20.976923 25.871371 21.028846 25.839047 21.080769 25.806635 21.132692 25.774140 21.184615 25.741565 21.236538 25.708915 21.288462 25.676194 21.340385 25.643407 21.392308 25.610557 21.444231 25.577650 21.496154 25.544688 21.548077 25.511678 21.600000 25.478622 21.651923 25.445526 21.703846 25.412393 21.755769 25.379228 21.807692 25.346035 21.859615 25.312819 21.911538 25.279583 21.963462 25.246333 22.015385 25.213071 22.067308 25.179803 22.119231 25.146533 22.171154 25.113266 22.223077 25.080005 22.275000 25.046754 22.326923 25.013519 22.378846 24.980303 22.430769 24.947110 22.482692 24.913946 22.534615 24.880814 22.586538 24.847718 22.638462 24.814663 22.690385 24.781653 22.742308 24.748693 22.794231 24.715786 22.846154 24.682938 22.898077 24.650152 22.950000 24.617432 23.001923 24.584783 23.053846 24.552210 23.105769 24.519715 23.157692 24.487305 23.209615 24.454983 23.261538 24.422753 23.313462 24.390620 23.365385 24.358587 23.417308 24.326660 23.469231 24.294843 23.521154 24.263139 23.573077 24.231553 23.625000 24.200090 23.676923 24.168754 23.728846 24.137548 23.780769 24.106478 23.832692 24.075547 23.884615 24.044761 23.936538 24.014122 23.988462 23.983636 24.040385 23.953307 24.092308 23.923139 24.144231 23.893136 24.196154 23.863303 24.248077 23.833643 24.300000 23.804162 24.351923 23.774864 24.403846 23.745752 24.455769 23.716832 24.507692 23.688107 24.559615 23.659581 24.611538 23.631260 24.663462 23.603147 24.715385 23.575246 24.767308 23.547563 24.819231 23.520100 24.871154 23.492863 24.923077 23.465856 24.975000 23.439083 25.026923 23.412548 25.078846 23.386256 25.130769 23.360211 25.182692 23.334417 25.234615 23.308878 25.286538 23.283600 25.338462 23.258585 25.390385 23.233839 25.442308 23.209366 25.494231 23.185170 25.546154 23.161254 25.598077 23.137625 25.650000 23.114285 25.701923 23.091240 25.753846 23.068493 25.805769 23.046049 25.857692 23.023912 25.909615 23.002086 25.961538 22.980576 26.013462 22.959386 26.065385 22.938520 26.117308 22.917983 26.169231 22.897778 26.221154 22.877911 26.273077 22.858385 26.325000 22.839204 26.376923 22.820374 26.428846 22.801898 26.480769 22.783780 26.532692 22.766026 26.584615 22.748639 26.636538 22.731623 26.688462 22.714982 26.740385 22.698722 26.792308 22.682847 26.844231 22.667360 26.896154 22.652265 26.948077 22.637569 27.000000 22.623273 27.051923 22.609384 27.103846 22.595904 27.155769 22.582839 27.207692 22.570193 27.259615 22.557970 27.311538 22.546174 27.363462 22.534809 27.415385 22.523881 27.467308 22.513392 27.519231 22.503348 27.571154 22.493753 27.623077 22.484611 27.675000 22.475926 27.726923 22.467703 27.778846 22.459946 27.830769 22.452659 27.882692 22.445847 27.934615 22.439513 27.986538 22.433663 28.038462 22.428300 28.090385 22.423427 28.142308 22.419043 28.194231 22.415144 28.246154 22.411727 28.298077 22.408788 28.350000 22.406324 28.401923 22.404332 28.453846 22.402809 28.505769 22.401750 28.557692 22.401154 28.609615 22.401016 28.661538 22.401334 28.713462 22.402104 28.765385 22.403322 28.817308 22.404985 28.869231 22.407091 28.921154 22.409635 28.973077 22.412615 29.025000 22.416027 29.076923 22.419868 29.128846 22.424134 29.180769 22.428822 29.232692 22.433929 29.284615 22.439452 29.336538 22.445387 29.388462 22.451730 29.440385 22.458480 29.492308 22.465631 29.544231 22.473182 29.596154 22.481129 29.648077 22.489467 29.700000 22.498195 29.751923 22.507309 29.803846 22.516805 29.855769 22.526680 29.907692 22.536930 29.959615 22.547554 30.011538 22.558546 30.063462 22.569905 30.115385 22.581626 30.167308 22.593706 30.219231 22.606142 30.271154 22.618931 30.323077 22.632069 30.375000 22.645553 30.426923 22.659380 30.478846 22.673546 30.530769 22.688048 30.582692 22.702883 30.634615 22.718048 30.686538 22.733538 30.738462 22.749352 30.790385 22.765485 30.842308 22.781934 30.894231 22.798696 30.946154 22.815767 30.998077 22.833145 31.050000 22.850826 31.101923 22.868806 31.153846 22.887083 31.205769 22.905653 31.257692 22.924513 31.309615 22.943658 31.361538 22.963087 31.413462 22.982796 31.465385 23.002781 31.517308 23.023040 31.569231 23.043568 31.621154 23.064363 31.673077 23.085421 31.725000 23.106739 31.776923 23.128313 31.828846 23.150141 31.880769 23.172219 31.932692 23.194543 31.984615 23.217111 32.036538 23.239918 32.088462 23.262963 32.140385 23.286241 32.192308 23.309749 32.244231 23.333484 32.296154 23.357442 32.348077 23.381620 32.400000 23.406016 32.451923 23.430625 32.503846 23.455444 32.555769 23.480470 32.607692 23.505699 32.659615 23.531129 32.711538 23.556756 32.763462 23.582577 32.815385 23.608588 32.867308 23.634786 32.919231 23.661167 32.971154 23.687730 33.023077 23.714469 33.075000 23.741382 33.126923 23.768466 33.178846 23.795717 33.230769 23.823131 33.282692 23.850707 33.334615 23.878439 33.386538 23.906325 33.438462 23.934363 33.490385 23.962547 33.542308 23.990875 33.594231 24.019344 33.646154 24.047951 33.698077 24.076692 33.750000 24.105563 33.801923 24.134562 33.853846 24.163685 33.905769 24.192928 33.957692 24.222289 34.009615 24.251765 34.061538 24.281351 34.113462 24.311045 34.165385 24.340843 34.217308 24.370743 34.269231 24.400739 34.321154 24.430831 34.373077 24.461013 34.425000 24.491283 34.476923 24.521637 34.528846 24.552072 34.580769 24.582585 34.632692 24.613173 34.684615 24.643832 34.736538 24.674558 34.788462 24.705350 34.840385 24.736202 34.892308 24.767112 34.944231 24.798077 34.996154 24.829093 35.048077 24.860157 35.100000 24.891266 35.151923 24.922416 35.203846 24.953605 35.255769 24.984828 35.307692 25.016082 35.359615 25.047364 35.411538 25.078672 35.463462 25.110000 35.515385 25.141347 35.567308 25.172709 35.619231 25.204083 35.671154 25.235464 35.723077 25.266851 35.775000 25.298239 35.826923 25.329625 35.878846 25.361007 35.930769 25.392380 35.982692 25.423741 36.034615 25.455088 36.086538 25.486416 36.138462 25.517723 36.190385 25.549005 36.242308 25.580258 36.294231 25.611480 36.346154 25.642668 36.398077 25.673817 36.450000 25.704925 36.501923 25.735988 36.553846 25.767003 36.605769 25.797967 36.657692 25.828876 36.709615 25.859727 36.761538 25.890516 36.813462 25.921241 36.865385 25.951898 36.917308 25.982484 36.969231 26.012996 37.021154 26.043429 37.073077 26.073782 37.125000 26.104049 37.176923 26.134230 37.228846 26.164319 37.280769 26.194313 37.332692 26.224210 37.384615 26.254006 37.436538 26.283697 37.488462 26.313281 37.540385 26.342754 37.592308 26.372112 37.644231 26.401353 37.696154 26.430473 37.748077 26.459469 37.800000 26.488337 37.851923 26.517075 37.903846 26.545678 37.955769 26.574144 38.007692 26.602469 38.059615 26.630650 38.111538 26.658684 38.163462 26.686567 38.215385 26.714295 38.267308 26.741867 38.319231 26.769278 38.371154 26.796525 38.423077 26.823604 38.475000 26.850514 38.526923 26.877249 38.578846 26.903807 38.630769 26.930184 38.682692 26.956378 38.734615 26.982385 38.786538 27.008201 38.838462 27.033823 38.890385 27.059248 38.942308 27.084473 38.994231 27.109494 39.046154 27.134309 39.098077 27.158912 39.150000 27.183303 39.201923 27.207476 39.253846 27.231429 39.305769 27.255159 39.357692 27.278661 39.409615 27.301934 39.461538 27.324973 39.513462 27.347775 39.565385 27.370337 39.617308 27.392656 39.669231 27.414728 39.721154 27.436550 39.773077 27.458118 39.825000 27.479430 39.876923 27.500482 39.928846 27.521270 39.980769 27.541792 40.032692 27.562044 40.084615 27.582023 40.136538 27.601725 40.188462 27.621148 40.240385 27.640287 40.292308 27.659140 40.344231 27.677703 40.396154 27.695972 40.448077 27.713946 40.500000 27.731620 40.551923 27.748990 40.603846 27.766055 40.655769 27.782809 40.707692 27.799251 40.759615 27.815377 40.811538 27.831183 40.863462 27.846666 40.915385 27.861822 40.967308 27.876650 41.019231 27.891144 41.071154 27.905303 41.123077 27.919128 41.175000 27.932619 41.226923 27.945780 41.278846 27.958610 41.330769 27.971113 41.382692 27.983289 41.434615 27.995140 41.486538 28.006668 41.538462 28.017874 41.590385 28.028760 41.642308 28.039328 41.694231 28.049579 41.746154 28.059514 41.798077 28.069136 41.850000 28.078446 41.901923 28.087446 41.953846 28.096137 42.005769 28.104521 42.057692 28.112599 42.109615 28.120373 42.161538 28.127845 42.213462 28.135016 42.265385 28.141888 42.317308 28.148462 42.369231 28.154741 42.421154 28.160725 42.473077 28.166416 42.525000 28.171817 42.576923 28.176928 42.628846 28.181751 42.680769 28.186288 42.732692 28.190540 42.784615 28.194509 42.836538 28.198197 42.888462 28.201605 42.940385 28.204735 42.992308 28.207588 43.044231 28.210166 43.096154 28.212471 43.148077 28.214504 43.200000 28.216267 43.251923 28.217761 43.303846 28.218989 43.355769 28.219951 43.407692 28.220649 43.459615 28.221085 43.511538 28.221261 43.563462 28.221178 43.615385 28.220838 43.667308 28.220241 43.719231 28.219391 43.771154 28.218289 43.823077 28.216935 43.875000 28.215333 43.926923 28.213482 43.978846 28.211386 44.030769 28.209045 44.082692 28.206462 44.134615 28.203637 44.186538 28.200573 44.238462 28.197270 44.290385 28.193732 44.342308 28.189958 44.394231 28.185952 44.446154 28.181714 44.498077 28.177246 44.550000 28.172550 44.601923 28.167627 44.653846 28.162479 44.705769 28.157107 44.757692 28.151514 44.809615 28.145700 44.861538 28.139668 44.913462 28.133419 44.965385 28.126954 45.017308 28.120275 45.069231 28.113384 45.121154 28.106283 45.173077 28.098973 45.225000 28.091455 45.276923 28.083731 45.328846 28.075804 45.380769 28.067673 45.432692 28.059342 45.484615 28.050811 45.536538 28.042083 45.588462 28.033159 45.640385 28.024040 45.692308 28.014728 45.744231 28.005225 45.796154 27.995532 45.848077 27.985651 45.900000 27.975584 45.951923 27.965332 46.003846 27.954896 46.055769 27.944279 46.107692 27.933482 46.159615 27.922506 46.211538 27.911354 46.263462 27.900027 46.315385 27.888525 46.367308 27.876852 46.419231 27.865009 46.471154 27.852997 46.523077 27.840817 46.575000 27.828473 46.626923 27.815964 46.678846 27.803293 46.730769 27.790461 46.782692 27.777470 46.834615 27.764321 46.886538 27.751017 46.938462 27.737558 46.990385 27.723947 47.042308 27.710185 47.094231 27.696273 47.146154 27.682214 47.198077 27.668008 47.250000 27.653657 47.301923 27.639164 47.353846 27.624529 47.405769 27.609754 47.457692 27.594842 47.509615 27.579792 47.561538 27.564608 47.613462 27.549290 47.665385 27.533841 47.717308 27.518261 47.769231 27.502553 47.821154 27.486718 47.873077 27.470758 47.925000 27.454674 47.976923 27.438468 48.028846 27.422142 48.080769 27.405696 48.132692 27.389134 48.184615 27.372455 48.236538 27.355663 48.288462 27.338758 48.340385 27.321743 48.392308 27.304618 48.444231 27.287386 48.496154 27.270047 48.548077 27.252605 48.600000 27.235059 48.651923 27.217413 48.703846 27.199666 48.755769 27.181822 48.807692 27.163882 48.859615 27.145847 48.911538 27.127718 48.963462 27.109498 49.015385 27.091189 49.067308 27.072791 49.119231 27.054306 49.171154 27.035737 49.223077 27.017083 49.275000 26.998348 49.326923 26.979533 49.378846 26.960639 49.430769 26.941668 49.482692 26.922622 49.534615 26.903502 49.586538 26.884310 49.638462 26.865047 49.690385 26.845715 49.742308 26.826316 49.794231 26.806851 49.846154 26.787322 49.898077 26.767730 49.950000 26.748078 50.001923 26.728366 50.053846 26.708597 50.105769 26.688771 50.157692 26.668891 50.209615 26.648958 50.261538 26.628974 50.313462 26.608940 50.365385 26.588858 50.417308 26.568729 50.469231 26.548556 50.521154 26.528340 50.573077 26.508082 50.625000 26.487784 50.676923 26.467447 50.728846 26.447074 50.780769 26.426666 50.832692 26.406224 50.884615 26.385750 50.936538 26.365246 50.988462 26.344713 51.040385 26.324153 51.092308 26.303567 51.144231 26.282958 51.196154 26.262326 51.248077 26.241674 51.300000 26.221002 51.351923 26.200313 51.403846 26.179608 51.455769 26.158889 51.507692 26.138158 51.559615 26.117415 51.611538 26.096663 51.663462 26.075903 51.715385 26.055137 51.767308 26.034366 51.819231 26.013592 51.871154 25.992817 51.923077 25.972042 51.975000 25.951269 52.026923 25.930500 52.078846 25.909735 52.130769 25.888977 52.182692 25.868228 52.234615 25.847488 52.286538 25.826760 52.338462 25.806045 52.390385 25.785345 52.442308 25.764661 52.494231 25.743995 52.546154 25.723348 52.598077 25.702723 52.650000 25.682121 52.701923 25.661543 52.753846 25.640990 52.805769 25.620466 52.857692 25.599971 52.909615 25.579506 52.961538 25.559074 53.013462 25.538676 53.065385 25.518314 53.117308 25.497989 53.169231 25.477702 53.221154 25.457457 53.273077 25.437253 53.325000 25.417093 53.376923 25.396978 53.428846 25.376910 53.480769 25.356891 53.532692 25.336922 53.584615 25.317005 53.636538 25.297141 53.688462 25.277332 53.740385 25.257579 53.792308 25.237885 53.844231 25.218251 53.896154 25.198677 53.948077 25.179167 54.000000 25.159722 54.051923 25.140342 54.103846 25.121029 54.155769 25.101782 54.207692 25.082602 54.259615 25.063487 54.311538 25.044439 54.363462 25.025457 54.415385 25.006542 54.467308 24.987693 54.519231 24.968911 54.571154 24.950195 54.623077 24.931545 54.675000 24.912962 54.726923 24.894445 54.778846 24.875995 54.830769 24.857611 54.882692 24.839294 54.934615 24.821044 54.986538 24.802860 55.038462 24.784742 55.090385 24.766692 55.142308 24.748708 55.194231 24.730790 55.246154 24.712940 55.298077 24.695156 55.350000 24.677438 55.401923 24.659788 55.453846 24.642204 55.505769 24.624687 55.557692 24.607237 55.609615 24.589854 55.661538 24.572537 55.713462 24.555288 55.765385 24.538105 55.817308 24.520989 55.869231 24.503940 55.921154 24.486959 55.973077 24.470044 56.025000 24.453196 56.076923 24.436415 56.128846 24.419701 56.180769 24.403054 56.232692 24.386474 56.284615 24.369962 56.336538 24.353516 56.388462 24.337137 56.440385 24.320826 56.492308 24.304582 56.544231 24.288405 56.596154 24.272295 56.648077 24.256253 56.700000 24.240278 56.751923 24.224370 56.803846 24.208529 56.855769 24.192755 56.907692 24.177049 56.959615 24.161411 57.011538 24.145839 57.063462 24.130335 57.115385 24.114899 57.167308 24.099530 57.219231 24.084228 57.271154 24.068994 57.323077 24.053827 57.375000 24.038728 57.426923 24.023696 57.478846 24.008732 57.530769 23.993836 57.582692 23.979007 57.634615 23.964245 57.686538 23.949552 57.738462 23.934925 57.790385 23.920367 57.842308 23.905876 57.894231 23.891453 57.946154 23.877098 57.998077 23.862810 58.050000 23.848591 58.101923 23.834439 58.153846 23.820355 58.205769 23.806338 58.257692 23.792390 58.309615 23.778509 58.361538 23.764696 58.413462 23.750952 58.465385 23.737275 58.517308 23.723666 58.569231 23.710125 58.621154 23.696652 58.673077 23.683247 58.725000 23.669910 58.776923 23.656641 58.828846 23.643440 58.880769 23.630307 58.932692 23.617243 58.984615 23.604246 59.036538 23.591318 59.088462 23.578458 59.140385 23.565666 59.192308 23.552942 59.244231 23.540286 59.296154 23.527699 59.348077 23.515180 59.400000 23.502729 59.451923 23.490347 59.503846 23.478032 59.555769 23.465787 59.607692 23.453609 59.659615 23.441500 59.711538 23.429460 59.763462 23.417487 59.815385 23.405584 59.867308 23.393748 59.919231 23.381982 59.971154 23.370283 60.023077 23.358654 60.075000 23.347092 60.126923 23.335600 60.178846 23.324176 60.230769 23.312820 60.282692 23.301534 60.334615 23.290315 60.386538 23.279166 60.438462 23.268085 60.490385 23.257073 60.542308 23.246130 60.594231 23.235255 60.646154 23.224449 60.698077 23.213712 60.750000 23.203044 60.801923 23.192444 60.853846 23.181914 60.905769 23.171452 60.957692 23.161059 61.009615 23.150735 61.061538 23.140480 61.113462 23.130294 61.165385 23.120177 61.217308 23.110129 61.269231 23.100150 61.321154 23.090240 61.373077 23.080399 61.425000 23.070627 61.476923 23.060924 61.528846 23.051291 61.580769 23.041726 61.632692 23.032231 61.684615 23.022804 61.736538 23.013447 61.788462 23.004159 61.840385 22.994941 61.892308 22.985791 61.944231 22.976711 61.996154 22.967700 62.048077 22.958759 62.100000 22.949886 62.151923 22.941083 62.203846 22.932350 62.255769 22.923686 62.307692 22.915091 62.359615 22.906566 62.411538 22.898110 62.463462 22.889724 62.515385 22.881407 62.567308 22.873159 62.619231 22.864981 62.671154 22.856873 62.723077 22.848834 62.775000 22.840865 62.826923 22.832966 62.878846 22.825136 62.930769 22.817375 62.982692 22.809685 63.034615 22.802064 63.086538 22.794513 63.138462 22.787031 63.190385 22.779620 63.242308 22.772278 63.294231 22.765005 63.346154 22.757803 63.398077 22.750670 63.450000 22.743608 63.501923 22.736615 63.553846 22.729692 63.605769 22.722839 63.657692 22.716056 63.709615 22.709343 63.761538 22.702700 63.813462 22.696126 63.865385 22.689623 63.917308 22.683190 63.969231 22.676827 64.021154 22.670534 64.073077 22.664311 64.125000 22.658158 64.176923 22.652075 64.228846 22.646063 64.280769 22.640120 64.332692 22.634248 64.384615 22.628446 64.436538 22.622714 64.488462 22.617053 64.540385 22.611461 64.592308 22.605940 64.644231 22.600490 64.696154 22.595109 64.748077 22.589799 64.800000 22.584559 64.851923 22.579390 64.903846 22.574291 64.955769 22.569263 65.007692 22.564305 65.059615 22.559417 65.111538 22.554600 65.163462 22.549854 65.215385 22.545178 65.267308 22.540572 65.319231 22.536037 65.371154 22.531573 65.423077 22.527179 65.475000 22.522856 65.526923 22.518604 65.578846 22.514422 65.630769 22.510311 65.682692 22.506271 65.734615 22.502301 65.786538 22.498402 65.838462 22.494574 65.890385 22.490817 65.942308 22.487130 65.994231 22.483515 66.046154 22.479970 66.098077 22.476496 66.150000 22.473093 66.201923 22.469760 66.253846 22.466499 66.305769 22.463309 66.357692 22.460189 66.409615 22.457141 66.461538 22.454164 66.513462 22.451257 66.565385 22.448422 66.617308 22.445658 66.669231 22.442965 66.721154 22.440343 66.773077 22.437792 66.825000 22.435312 66.876923 22.432903 66.928846 22.430566 66.980769 22.428300 67.032692 22.426105 67.084615 22.423982 67.136538 22.421930 67.188462 22.419952 67.240385 22.418046 67.292308 22.416213 67.344231 22.414454 67.396154 22.412769 67.448077 22.411159 67.500000 22.409623 67.551923 22.408163 67.603846 22.406779 67.655769 22.405470 67.707692 22.404238 67.759615 22.403084 67.811538 22.402006 67.863462 22.401006 67.915385 22.400085 67.967308 22.399242 68.019231 22.398478 68.071154 22.397793 68.123077 22.397188 68.175000 22.396663 68.226923 22.396219 68.278846 22.395856 68.330769 22.395575 68.382692 22.395375 68.434615 22.395258 68.486538 22.395223 68.538462 22.395271 68.590385 22.395403 68.642308 22.395618 68.694231 22.395918 68.746154 22.396303 68.798077 22.396773 68.850000 22.397328 68.901923 22.397969 68.953846 22.398696 69.005769 22.399511 69.057692 22.400412 69.109615 22.401401 69.161538 22.402478 69.213462 22.403643 69.265385 22.404897 69.317308 22.406240 69.369231 22.407673 69.421154 22.409196 69.473077 22.410809 69.525000 22.412513 69.576923 22.414309 69.628846 22.416196 69.680769 22.418175 69.732692 22.420246 69.784615 22.422411 69.836538 22.424668 69.888462 22.427019 69.940385 22.429465 69.992308 22.432005 70.044231 22.434640 70.096154 22.437370 70.148077 22.440195 70.200000 22.443117 70.251923 22.446136 70.303846 22.449251 70.355769 22.452464 70.407692 22.455775 70.459615 22.459183 70.511538 22.462691 70.563462 22.466297 70.615385 22.470003 70.667308 22.473808 70.719231 22.477714 70.771154 22.481720 70.823077 22.485828 70.875000 22.490037 70.926923 22.494347 70.978846 22.498760 71.030769 22.503276 71.082692 22.507895 71.134615 22.512617 71.186538 22.517443 71.238462 22.522373 71.290385 22.527408 71.342308 22.532548 71.394231 22.537794 71.446154 22.543145 71.498077 22.548603 71.550000 22.554168 71.601923 22.559840 71.653846 22.565619 71.705769 22.571507 71.757692 22.577503 71.809615 22.583607 71.861538 22.589821 71.913462 22.596144 71.965385 22.602578 72.017308 22.609121 72.069231 22.615776 72.121154 22.622542 72.173077 22.629419 72.225000 22.636409 72.276923 22.643511 72.328846 22.650726 72.380769 22.658054 72.432692 22.665496 72.484615 22.673052 72.536538 22.680722 72.588462 22.688508 72.640385 22.696408 72.692308 22.704425 72.744231 22.712557 72.796154 22.720807 72.848077 22.729173 72.900000 22.737656 72.951923 22.746257 73.003846 22.754977 73.055769 22.763815 73.107692 22.772772 73.159615 22.781848 73.211538 22.791044 73.263462 22.800361 73.315385 22.809798 73.367308 22.819356 73.419231 22.829035 73.471154 22.838837 73.523077 22.848760 73.575000 22.858806 73.626923 22.868976 73.678846 22.879269 73.730769 22.889685 73.782692 22.900227 73.834615 22.910892 73.886538 22.921683 73.938462 22.932600 73.990385 22.943642 74.042308 22.954811 74.094231 22.966106 74.146154 22.977529 74.198077 22.989079 74.250000 23.000757 74.301923 23.012564 74.353846 23.024499 74.405769 23.036564 74.457692 23.048758 74.509615 23.061082 74.561538 23.073537 74.613462 23.086122 74.665385 23.098839 74.717308 23.111687 74.769231 23.124668 74.821154 23.137781 74.873077 23.151026 74.925000 23.164405 74.976923 23.177918 75.028846 23.191565 75.080769 23.205346 75.132692 23.219263 75.184615 23.233314 75.236538 23.247502 75.288462 23.261825 75.340385 23.276285 75.392308 23.290882 75.444231 23.305616 75.496154 23.320489 75.548077 23.335499 75.600000 23.350648 75.651923 23.365936 75.703846 23.381363 75.755769 23.396930 75.807692 23.412638 75.859615 23.428486 75.911538 23.444475 75.963462 23.460605 76.015385 23.476878 76.067308 23.493292 76.119231 23.509850 76.171154 23.526550 76.223077 23.543394 76.275000 23.560382 76.326923 23.577514 76.378846 23.594791 76.430769 23.612213 76.482692 23.629780 76.534615 23.647493 76.586538 23.665353 76.638462 23.683360 76.690385 23.701513 76.742308 23.719815 76.794231 23.738264 76.846154 23.756862 76.898077 23.775608 76.950000 23.794504 77.001923 23.813549 77.053846 23.832744 77.105769 23.852090 77.157692 23.871587 77.209615 23.891235 77.261538 23.911034 77.313462 23.930986 77.365385 23.951090 77.417308 23.971347 77.469231 23.991757 77.521154 24.012321 77.573077 24.033039 77.625000 24.053911 77.676923 24.074939 77.728846 24.096122 77.780769 24.117460 77.832692 24.138955 77.884615 24.160606 77.936538 24.182414 77.988462 24.204380 78.040385 24.226503 78.092308 24.248785 78.144231 24.271225 78.196154 24.293824 78.248077 24.316583 78.300000 24.339501 78.351923 24.362580 78.403846 24.385819 78.455769 24.409220 78.507692 24.432782 78.559615 24.456505 78.611538 24.480391 78.663462 24.504440 78.715385 24.528652 78.767308 24.553027 78.819231 24.577566 78.871154 24.602269 78.923077 24.627138 78.975000 24.652171 79.026923 24.677370 79.078846 24.702734 79.130769 24.728266 79.182692 24.753964 79.234615 24.779829 79.286538 24.805861 79.338462 24.832062 79.390385 24.858431 79.442308 24.884969 79.494231 24.911676 79.546154 24.938553 79.598077 24.965599 79.650000 24.992817 79.701923 25.020205 79.753846 25.047764 79.805769 25.075495 79.857692 25.103398 79.909615 25.131474 79.961538 25.159722 80.013462 25.188143 80.065385 25.216733 80.117308 25.245490 80.169231 25.274408 80.221154 25.303485 80.273077 25.332716 80.325000 25.362098 80.376923 25.391627 80.428846 25.421300 80.480769 25.451112 80.532692 25.481059 80.584615 25.511139 80.636538 25.541347 80.688462 25.571680 80.740385 25.602133 80.792308 25.632703 80.844231 25.663387 80.896154 25.694180 80.948077 25.725079 81.000000 25.756080 81.051923 25.787179 81.103846 25.818373 81.155769 25.849658 81.207692 25.881029 81.259615 25.912484 81.311538 25.944019 81.363462 25.975629 81.415385 26.007311 81.467308 26.039062 81.519231 26.070877 81.571154 26.102753 81.623077 26.134685 81.675000 26.166672 81.726923 26.198707 81.778846 26.230789 81.830769 26.262912 81.882692 26.295074 81.934615 26.327270 81.986538 26.359497 82.038462 26.391751 82.090385 26.424028 82.142308 26.456325 82.194231 26.488637 82.246154 26.520962 82.298077 26.553295 82.350000 26.585632 82.401923 26.617970 82.453846 26.650305 82.505769 26.682633 82.557692 26.714951 82.609615 26.747255 82.661538 26.779540 82.713462 26.811804 82.765385 26.844042 82.817308 26.876251 82.869231 26.908427 82.921154 26.940567 82.973077 26.972666 83.025000 27.004720 83.076923 27.036727 83.128846 27.068682 83.180769 27.100581 83.232692 27.132421 83.284615 27.164198 83.336538 27.195908 83.388462 27.227548 83.440385 27.259114 83.492308 27.290601 83.544231 27.322007 83.596154 27.353327 83.648077 27.384558 83.700000 27.415696 83.751923 27.446737 83.803846 27.477678 83.855769 27.508514 83.907692 27.539243 83.959615 27.569859 84.011538 27.600361 84.063462 27.630742 84.115385 27.661001 84.167308 27.691133 84.219231 27.721135 84.271154 27.751002 84.323077 27.780731 84.375000 27.810319 84.426923 27.839761 84.478846 27.869053 84.530769 27.898193 84.582692 27.927176 84.634615 27.955998 84.686538 27.984656 84.738462 28.013146 84.790385 28.041464 84.842308 28.069607 84.894231 28.097571 84.946154 28.125351 84.998077 28.152944 85.050000 28.180348 85.101923 28.207556 85.153846 28.234567 85.205769 28.261376 85.257692 28.287979 85.309615 28.314373 85.361538 28.340555 85.413462 28.366519 85.465385 28.392263 85.517308 28.417782 85.569231 28.443073 85.621154 28.468133 85.673077 28.492957 85.725000 28.517542 85.776923 28.541884 85.828846 28.565978 85.880769 28.589823 85.932692 28.613413 85.984615 28.636745 86.036538 28.659815 86.088462 28.682620 86.140385 28.705155 86.192308 28.727417 86.244231 28.749403 86.296154 28.771108 86.348077 28.792528 86.400000 28.813661 86.451923 28.834502 86.503846 28.855047 86.555769 28.875293 86.607692 28.895235 86.659615 28.914871 86.711538 28.934197 86.763462 28.953208 86.815385 28.971901 86.867308 28.990272 86.919231 29.008318 86.971154 29.026034 87.023077 29.043418 87.075000 29.060464 87.126923 29.077170 87.178846 29.093532 87.230769 29.109545 87.282692 29.125207 87.334615 29.140513 87.386538 29.155460 87.438462 29.170043 87.490385 29.184260 87.542308 29.198106 87.594231 29.211578 87.646154 29.224672 87.698077 29.237384 87.750000 29.249711 87.801923 29.261648 87.853846 29.273192 87.905769 29.284339 87.957692 29.295086 88.009615 29.305428 88.061538 29.315362 88.113462 29.324885 88.165385 29.333991 88.217308 29.342679 88.269231 29.350943 88.321154 29.358781 88.373077 29.366188 88.425000 29.373160 88.476923 29.379695 88.528846 29.385787 88.580769 29.391434 88.632692 29.396632 88.684615 29.401377 88.736538 29.405664 88.788462 29.409491 88.840385 29.412854 88.892308 29.415749 88.944231 29.418172 88.996154 29.420119 89.048077 29.421587 89.100000 29.422572 89.151923 29.423070 89.203846 29.423077 89.255769 29.422590 89.307692 29.421605 89.359615 29.420118 89.411538 29.418125 89.463462 29.415623 89.515385 29.412608 89.567308 29.409076 89.619231 29.405024 89.671154 29.400447 89.723077 29.395342 89.775000 29.389705 89.826923 29.383532 89.878846 29.376820 89.930769 29.369565 89.982692 29.361763 90.034615 29.353411 90.086538 29.344504 90.138462 29.335039 90.190385 29.325012 90.242308 29.314420 90.294231 29.303258 90.346154 29.291523 90.398077 29.279211 90.450000 29.266318 90.501923 29.252842 90.553846 29.238777 90.605769 29.224120 90.657692 29.208867 90.709615 29.193015 90.761538 29.176560 90.813462 29.159498 90.865385 29.141826 90.917308 29.123539 90.969231 29.104634 91.021154 29.085107 91.073077 29.064954 91.125000 29.044172 91.176923 29.022757 91.228846 29.000705 91.280769 28.978013 91.332692 28.954675 91.384615 28.930690 91.436538 28.906053 91.488462 28.880760 91.540385 28.854808 91.592308 28.828193 91.644231 28.800911 91.696154 28.772958 91.748077 28.744331 91.800000 28.715026 91.851923 28.685038 91.903846 28.654365 91.955769 28.623003 92.007692 28.590948 92.059615 28.558195 92.111538 28.524742 92.163462 28.490585 92.215385 28.455719 92.267308 28.420142 92.319231 28.383849 92.371154 28.346836 92.423077 28.309100 92.475000 28.270638 92.526923 28.231444 92.578846 28.191517 92.630769 28.150851 92.682692 28.109443 92.734615 28.067289 92.786538 28.024387 92.838462 27.980731 92.890385 27.936318 92.942308 27.891144 92.994231 27.845207 93.046154 27.798509 93.098077 27.751052 93.150000 27.702840 93.201923 27.653876 93.253846 27.604163 93.305769 27.553704 93.357692 27.502502 93.409615 27.450560 93.461538 27.397880 93.513462 27.344468 93.565385 27.290324 93.617308 27.235452 93.669231 27.179856 93.721154 27.123538 93.773077 27.066502 93.825000 27.008750 93.876923 26.950286 93.928846 26.891113 93.980769 26.831233 94.032692 26.770649 94.084615 26.709366 94.136538 26.647385 94.188462 26.584711 94.240385 26.521345 94.292308 26.457291 94.344231 26.392553 94.396154 26.327132 94.448077 26.261033 94.500000 26.194258 94.551923 26.126810 94.603846 26.058693 94.655769 25.989909 94.707692 25.920462 94.759615 25.850354 94.811538 25.779589 94.863462 25.708169 94.915385 25.636098 94.967308 25.563379 95.019231 25.490015 95.071154 25.416008 95.123077 25.341363 95.175000 25.266081 95.226923 25.190167 95.278846 25.113623 95.330769 25.036452 95.382692 24.958657 95.434615 24.880241 95.486538 24.801208 95.538462 24.721560 95.590385 24.641301 95.642308 24.560433 95.694231 24.478959 95.746154 24.396884 95.798077 24.314209 95.850000 24.230938 95.901923 24.147073 95.953846 24.062619 96.005769 23.977577 96.057692 23.891952 96.109615 23.805745 96.161538 23.718961 96.213462 23.631601 96.265385 23.543670 96.317308 23.455170 96.369231 23.366105 96.421154 23.276477 96.473077 23.186289 96.525000 23.095545 96.576923 23.004247 96.628846 22.912399 96.680769 22.820004 96.732692 22.727065 96.784615 22.633584 96.836538 22.539565 96.888462 22.445011 96.940385 22.349925 96.992308 22.254310 97.044231 22.158169 97.096154 22.061505 97.148077 21.964321 97.200000 21.866621 97.251923 21.768407 97.303846 21.669682 97.355769 21.570450 97.407692 21.470713 97.459615 21.370475 97.511538 21.269738 97.563462 21.168506 97.615385 21.066782 97.667308 20.964568 97.719231 20.861869 97.771154 20.758686 97.823077 20.655023 97.875000 20.550883 97.926923 20.446269 97.978846 20.341185 98.030769 20.235632 98.082692 20.129615 98.134615 20.023136 98.186538 19.916198 98.238462 19.808805 98.290385 19.700959 98.342308 19.592664 98.394231 19.483922 98.446154 19.374737 98.498077 19.265112 98.550000 19.155049 98.601923 19.044553 98.653846 18.933625 98.705769 18.822269 98.757692 18.710488 98.809615 18.598285 98.861538 18.485663 98.913462 18.372625 98.965385 18.259175 99.017308 18.145314 99.069231 18.031048 99.121154 17.916377 99.173077 17.801306 99.225000 17.685837 99.276923 17.569974 99.328846 17.453720 99.380769 17.337077 99.432692 17.220049 99.484615 17.102639 99.536538 16.984850 99.588462 16.866684 99.640385 16.748146 99.692308 16.629237 99.744231 16.509962 99.796154 16.390323 99.848077 16.270323 99.900000 16.149965 99.951923 16.029253 100.003846 15.908188 100.055769 15.786776 100.107692 15.665018 100.159615 15.542917 100.211538 15.420477 100.263462 15.297700 100.315385 15.174591 100.367308 15.051151 100.419231 14.927384 100.471154 14.803292 100.523077 14.678880 100.575000 14.554150 100.626923 14.429105 100.678846 14.303748 100.730769 14.178082 100.782692 14.052110 100.834615 13.925836 100.886538 13.799261 100.938462 13.672391 100.990385 13.545227 101.042308 13.417772 101.094231 13.290030 101.146154 13.162003 101.198077 13.033696 101.250000 12.905110 101.301923 12.776248 101.353846 12.647115 101.405769 12.517713 101.457692 12.388044 101.509615 12.258113 101.561538 12.127922 101.613462 11.997473 101.665385 11.866772 101.717308 11.735819 101.769231 11.604619 101.821154 11.473174 101.873077 11.341487 101.925000 11.209562 101.976923 11.077402 102.028846 10.945009 102.080769 10.812387 102.132692 10.679538 102.184615 10.546467 102.236538 10.413175 102.288462 10.279666 102.340385 10.145943 102.392308 10.012009 102.444231 9.877867 102.496154 9.743521 102.548077 9.608972 102.600000 9.474225 102.651923 9.339282 102.703846 9.204147 102.755769 9.068821 102.807692 8.933310 102.859615 8.797615 102.911538 8.661739 102.963462 8.525686 103.015385 8.389459 103.067308 8.253061 103.119231 8.116494 103.171154 7.979762 103.223077 7.842869 103.275000 7.705816 103.326923 7.568607 103.378846 7.431246 103.430769 7.293734 103.482692 7.156076 103.534615 7.018274 103.586538 6.880332 103.638462 6.742252 103.690385 6.604037 103.742308 6.465691 103.794231 6.327216 103.846154 6.188617 103.898077 6.049894 103.950000 5.911053 104.001923 5.772095 104.053846 5.633024 104.105769 5.493844 104.157692 5.354556 104.209615 5.215164 104.261538 5.075671 104.313462 4.936080 104.365385 4.796395 104.417308 4.656618 104.469231 4.516752 104.521154 4.376801 104.573077 4.236767 104.625000 4.096653 104.676923 3.956463 104.728846 3.816200 104.780769 3.675867 104.832692 3.535466 104.884615 3.395001 104.936538 3.254474 104.988462 3.113890 105.040385 2.973251 105.092308 2.832559 105.144231 2.691819 105.196154 2.551033 105.248077 2.410204 105.300000 2.269335 105.351923 2.128430 105.403846 1.987491 105.455769 1.846521 105.507692 1.705524 105.559615 1.564502 105.611538 1.423459 105.663462 1.282398 105.715385 1.141321 105.767308 1.000232 105.819231 0.859134 105.871154 0.718030 105.923077 0.576923" class="line reactive nofill" /></g></g><g class="titles" /><g transform="translate(82, 10)" class="plot overlay"><g class="series serie-0 color-0" /></g><g transform="translate(82, 10)" class="plot text-overlay"><g class="series serie-0 color-0" /></g><g transform="translate(82, 10)" class="plot tooltip-overlay"><g transform="translate(0 0)" style="opacity: 0" class="tooltip"><rect rx="0" ry="0" width="0" height="0" class="tooltip-box" /><g class="text" /></g></g></g></svg>