<?xml version='1.0' encoding='utf-8'?>
<svg xmlns="http://www.w3.org/2000/svg" id="chart-7f3063de-eba2-4d9f-8cb5-f6b89884bbc4" class="pygal-chart pygal-sparkline" viewBox="0 0 200 50" width="200" height="50"><!--Generated with pygal 3.0.5 (etree) ©Kozea 2012-2016 on 2024-12-22--><!--http://pygal.org--><!--http://github.com/Kozea/pygal--><defs><style type="text/css">#chart-7f3063de-eba2-4d9f-8cb5-f6b89884bbc4{-webkit-user-select:none;-webkit-font-smoothing:antialiased;font-family:Consolas,"Liberation Mono",Menlo,Courier,monospace}#chart-7f3063de-eba2-4d9f-8cb5-f6b89884bbc4 .title{font-family:Consolas,"Liberation Mono",Menlo,Courier,monospace;font-size:16px}#chart-7f3063de-eba2-4d9f-8cb5-f6b89884bbc4 .legends .legend text{font-family:Consolas,"Liberation Mono",Menlo,Courier,monospace;font-size:14px}#chart-7f3063de-eba2-4d9f-8cb5-f6b89884bbc4 .axis text{font-family:Consolas,"Liberation Mono",Menlo,Courier,monospace;font-size:10px}#chart-7f3063de-eba2-4d9f-8cb5-f6b89884bbc4 .axis text.major{font-family:Consolas,"Liberation Mono",Menlo,Courier,monospace;font-size:10px}#chart-7f3063de-eba2-4d9f-8cb5-f6b89884bbc4 .text-overlay text.value{font-family:Consolas,"Liberation Mono",Menlo,Courier,monospace;font-size:16px}#chart-7f3063de-eba2-4d9f-8cb5-f6b89884bbc4 .text-overlay text.label{font-family:Consolas,"Liberation Mono",Menlo,Courier,monospace;font-size:10px}#chart-7f3063de-eba2-4d9f-8cb5-f6b89884bbc4 .tooltip{font-family:Consolas,"Liberation Mono",Menlo,Courier,monospace;font-size:14px}#chart-7f3063de-eba2-4d9f-8cb5-f6b89884bbc4 text.no_data{font-family:Consolas,"Liberation Mono",Menlo,Courier,monospace;font-size:64px}
#chart-7f3063de-eba2-4d9f-8cb5-f6b89884bbc4{background-color:rgba(249,249,249,1)}#chart-7f3063de-eba2-4d9f-8cb5-f6b89884bbc4 path,#chart-7f3063de-eba2-4d9f-8cb5-f6b89884bbc4 line,#chart-7f3063de-eba2-4d9f-8cb5-f6b89884bbc4 rect,#chart-7f3063de-eba2-4d9f-8cb5-f6b89884bbc4 circle{-webkit-transition:150ms;-moz-transition:150ms;transition:150ms}#chart-7f3063de-eba2-4d9f-8cb5-f6b89884bbc4 .graph &gt; .background{fill:rgba(249,249,249,1)}#chart-7f3063de-eba2-4d9f-8cb5-f6b89884bbc4 .plot &gt; .background{fill:rgba(255,255,255,1)}#chart-7f3063de-eba2-4d9f-8cb5-f6b89884bbc4 .graph{fill:rgba(0,0,0,.87)}#chart-7f3063de-eba2-4d9f-8cb5-f6b89884bbc4 text.no_data{fill:rgba(0,0,0,1)}#chart-7f3063de-eba2-4d9f-8cb5-f6b89884bbc4 .title{fill:rgba(0,0,0,1)}#chart-7f3063de-eba2-4d9f-8cb5-f6b89884bbc4 .legends .legend text{fill:rgba(0,0,0,.87)}#chart-7f3063de-eba2-4d9f-8cb5-f6b89884bbc4 .legends .legend:hover text{fill:rgba(0,0,0,1)}#chart-7f3063de-eba2-4d9f-8cb5-f6b89884bbc4 .axis .line{stroke:rgba(0,0,0,1)}#chart-7f3063de-eba2-4d9f-8cb5-f6b89884bbc4 .axis .guide.line{stroke:rgba(0,0,0,.54)}#chart-7f3063de-eba2-4d9f-8cb5-f6b89884bbc4 .axis .major.line{stroke:rgba(0,0,0,.87)}#chart-7f3063de-eba2-4d9f-8cb5-f6b89884bbc4 .axis text.major{fill:rgba(0,0,0,1)}#chart-7f3063de-eba2-4d9f-8cb5-f6b89884bbc4 .axis.y .guides:hover .guide.line,#chart-7f3063de-eba2-4d9f-8cb5-f6b89884bbc4 .line-graph .axis.x .guides:hover .guide.line,#chart-7f3063de-eba2-4d9f-8cb5-f6b89884bbc4 .stackedline-graph .axis.x .guides:hover .guide.line,#chart-7f3063de-eba2-4d9f-8cb5-f6b89884bbc4 .xy-graph .axis.x .guides:hover .guide.line{stroke:rgba(0,0,0,1)}#chart-7f3063de-eba2-4d9f-8cb5-f6b89884bbc4 .axis .guides:hover text{fill:rgba(0,0,0,1)}#chart-7f3063de-eba2-4d9f-8cb5-f6b89884bbc4 .reactive{fill-opacity:.7;stroke-opacity:.8;stroke-width:1}#chart-7f3063de-eba2-4d9f-8cb5-f6b89884bbc4 .ci{stroke:rgba(0,0,0,.87)}#chart-7f3063de-eba2-4d9f-8cb5-f6b89884bbc4 .reactive.active,#chart-7f3063de-eba2-4d9f-8cb5-f6b89884bbc4 .active .reactive{fill-opacity:.8;stroke-opacity:.9;stroke-width:4}#chart-7f3063de-eba2-4d9f-8cb5-f6b89884bbc4 .ci .reactive.active{stroke-width:1.5}#chart-7f3063de-eba2-4d9f-8cb5-f6b89884bbc4 .series text{fill:rgba(0,0,0,1)}#chart-7f3063de-eba2-4d9f-8cb5-f6b89884bbc4 .tooltip rect{fill:rgba(255,255,255,1);stroke:rgba(0,0,0,1);-webkit-transition:opacity 150ms;-moz-transition:opacity 150ms;transition:opacity 150ms}#chart-7f3063de-eba2-4d9f-8cb5-f6b89884bbc4 .tooltip .label{fill:rgba(0,0,0,.87)}#chart-7f3063de-eba2-4d9f-8cb5-f6b89884bbc4 .tooltip .label{fill:rgba(0,0,0,.87)}#chart-7f3063de-eba2-4d9f-8cb5-f6b89884bbc4 .tooltip .legend{font-size:.8em;fill:rgba(0,0,0,.54)}#chart-7f3063de-eba2-4d9f-8cb5-f6b89884bbc4 .tooltip .x_label{font-size:.6em;fill:rgba(0,0,0,1)}#chart-7f3063de-eba2-4d9f-8cb5-f6b89884bbc4 .tooltip .xlink{font-size:.5em;text-decoration:underline}#chart-7f3063de-eba2-4d9f-8cb5-f6b89884bbc4 .tooltip .value{font-size:1.5em}#chart-7f3063de-eba2-4d9f-8cb5-f6b89884bbc4 .bound{font-size:.5em}#chart-7f3063de-eba2-4d9f-8cb5-f6b89884bbc4 .max-value{font-size:.75em;fill:rgba(0,0,0,.54)}#chart-7f3063de-eba2-4d9f-8cb5-f6b89884bbc4 .map-element{fill:rgba(255,255,255,1);stroke:rgba(0,0,0,.54) !important}#chart-7f3063de-eba2-4d9f-8cb5-f6b89884bbc4 .map-element .reactive{fill-opacity:inherit;stroke-opacity:inherit}#chart-7f3063de-eba2-4d9f-8cb5-f6b89884bbc4 .color-0,#chart-7f3063de-eba2-4d9f-8cb5-f6b89884bbc4 .color-0 a:visited{stroke:#F44336;fill:#F44336}#chart-7f3063de-eba2-4d9f-8cb5-f6b89884bbc4 .text-overlay .color-0 text{fill:black}
#chart-7f3063de-eba2-4d9f-8cb5-f6b89884bbc4 text.no_data{text-anchor:middle}#chart-7f3063de-eba2-4d9f-8cb5-f6b89884bbc4 .guide.line{fill:none}#chart-7f3063de-eba2-4d9f-8cb5-f6b89884bbc4 .centered{text-anchor:middle}#chart-7f3063de-eba2-4d9f-8cb5-f6b89884bbc4 .title{text-anchor:middle}#chart-7f3063de-eba2-4d9f-8cb5-f6b89884bbc4 .legends .legend text{fill-opacity:1}#chart-7f3063de-eba2-4d9f-8cb5-f6b89884bbc4 .axis.x text{text-anchor:middle}#chart-7f3063de-eba2-4d9f-8cb5-f6b89884bbc4 .axis.x:not(.web) text[transform]{text-anchor:start}#chart-7f3063de-eba2-4d9f-8cb5-f6b89884bbc4 .axis.x:not(.web) text[transform].backwards{text-anchor:end}#chart-7f3063de-eba2-4d9f-8cb5-f6b89884bbc4 .axis.y text{text-anchor:end}#chart-7f3063de-eba2-4d9f-8cb5-f6b89884bbc4 .axis.y text[transform].backwards{text-anchor:start}#chart-7f3063de-eba2-4d9f-8cb5-f6b89884bbc4 .axis.y2 text{text-anchor:start}#chart-7f3063de-eba2-4d9f-8cb5-f6b89884bbc4 .axis.y2 text[transform].backwards{text-anchor:end}#chart-7f3063de-eba2-4d9f-8cb5-f6b89884bbc4 .axis .guide.line{stroke-dasharray:4,4;stroke:black}#chart-7f3063de-eba2-4d9f-8cb5-f6b89884bbc4 .axis .major.guide.line{stroke-dasharray:6,6;stroke:black}#chart-7f3063de-eba2-4d9f-8cb5-f6b89884bbc4 .horizontal .axis.y .guide.line,#chart-7f3063de-eba2-4d9f-8cb5-f6b89884bbc4 .horizontal .axis.y2 .guide.line,#chart-7f3063de-eba2-4d9f-8cb5-f6b89884bbc4 .vertical .axis.x .guide.line{opacity:0}#chart-7f3063de-eba2-4d9f-8cb5-f6b89884bbc4 .horizontal .axis.always_show .guide.line,#chart-7f3063de-eba2-4d9f-8cb5-f6b89884bbc4 .vertical .axis.always_show .guide.line{opacity:1 !important}#chart-7f3063de-eba2-4d9f-8cb5-f6b89884bbc4 .axis.y .guides:hover .guide.line,#chart-7f3063de-eba2-4d9f-8cb5-f6b89884bbc4 .axis.y2 .guides:hover .guide.line,#chart-7f3063de-eba2-4d9f-8cb5-f6b89884bbc4 .axis.x .guides:hover .guide.line{opacity:1}#chart-7f3063de-eba2-4d9f-8cb5-f6b89884bbc4 .axis .guides:hover text{opacity:1}#chart-7f3063de-eba2-4d9f-8cb5-f6b89884bbc4 .nofill{fill:none}#chart-7f3063de-eba2-4d9f-8cb5-f6b89884bbc4 .subtle-fill{fill-opacity:.2}#chart-7f3063de-eba2-4d9f-8cb5-f6b89884bbc4 .dot{stroke-width:1px;fill-opacity:1;stroke-opacity:1}#chart-7f3063de-eba2-4d9f-8cb5-f6b89884bbc4 .dot.active{stroke-width:5px}#chart-7f3063de-eba2-4d9f-8cb5-f6b89884bbc4 .dot.negative{fill:transparent}#chart-7f3063de-eba2-4d9f-8cb5-f6b89884bbc4 text,#chart-7f3063de-eba2-4d9f-8cb5-f6b89884bbc4 tspan{stroke:none !important}#chart-7f3063de-eba2-4d9f-8cb5-f6b89884bbc4 .series text.active{opacity:1}#chart-7f3063de-eba2-4d9f-8cb5-f6b89884bbc4 .tooltip rect{fill-opacity:.95;stroke-width:.5}#chart-7f3063de-eba2-4d9f-8cb5-f6b89884bbc4 .tooltip text{fill-opacity:1}#chart-7f3063de-eba2-4d9f-8cb5-f6b89884bbc4 .showable{visibility:hidden}#chart-7f3063de-eba2-4d9f-8cb5-f6b89884bbc4 .showable.shown{visibility:visible}#chart-7f3063de-eba2-4d9f-8cb5-f6b89884bbc4 .gauge-background{fill:rgba(229,229,229,1);stroke:none}#chart-7f3063de-eba2-4d9f-8cb5-f6b89884bbc4 .bg-lines{stroke:rgba(249,249,249,1);stroke-width:2px}</style><script type="text/javascript">window.pygal = window.pygal || {};window.pygal.config = window.pygal.config || {};window.pygal.config['7f3063de-eba2-4d9f-8cb5-f6b89884bbc4'] = {"allow_interruptions": false, "box_mode": "extremes", "classes": ["pygal-chart", "pygal-sparkline"], "css": ["file://style.css", "file://graph.css"], "defs": [], "disable_xml_declaration": false, "dots_size": 2.5, "dynamic_print_values": false, "explicit_size": true, "fill": false, "force_uri_protocol": "https", "formatter": null, "half_pie": false, "height": 50, "include_x_axis": false, "inner_radius": 0, "interpolate": "cubic", "interpolation_parameters": {}, "interpolation_precision": 250, "inverse_y_axis": false, "js": [], "legend_at_bottom": false, "legend_at_bottom_columns": null, "legend_box_size": 12, "logarithmic": false, "margin": 10, "margin_bottom": null, "margin_left": null, "margin_right": null, "margin_top": null, "max_scale": 2, "min_scale": 1, "missing_value_fill_truncation": "x", "no_data_text": "", "no_prefix": false, "order_min": null, "pretty_print": false, "print_labels": false, "print_values": false, "print_values_position": "center", "print_zeroes": true, "range": null, "rounded_bars": null, "secondary_range": null, "show_dots": false, "show_legend": false, "show_minor_x_labels": true, "show_minor_y_labels": true, "show_only_major_dots": false, "show_x_guides": false, "show_x_labels": false, "show_y_guides": true, "show_y_labels": true, "spacing": 0, "stack_from_top": false, "strict": false, "stroke": true, "stroke_style": null, "style": {"background": "rgba(249, 249, 249, 1)", "ci_colors": [], "colors": ["#F44336", "#3F51B5", "#009688", "#FFC107", "#FF5722", "#9C27B0", "#03A9F4", "#8BC34A", "#FF9800", "#E91E63", "#2196F3", "#4CAF50", "#FFEB3B", "#673AB7", "#00BCD4", "#CDDC39", "#9E9E9E", "#607D8B"], "dot_opacity": "1", "font_family": "Consolas, \"Liberation Mono\", Menlo, Courier, monospace", "foreground": "rgba(0, 0, 0, .87)", "foreground_strong": "rgba(0, 0, 0, 1)", "foreground_subtle": "rgba(0, 0, 0, .54)", "guide_stroke_color": "black", "guide_stroke_dasharray": "4,4", "label_font_family": "Consolas, \"Liberation Mono\", Menlo, Courier, monospace", "label_font_size": 10, "legend_font_family": "Consolas, \"Liberation Mono\", Menlo, Courier, monospace", "legend_font_size": 14, "major_guide_stroke_color": "black", "major_guide_stroke_dasharray": "6,6", "major_label_font_family": "Consolas, \"Liberation Mono\", Menlo, Courier, monospace", "major_label_font_size": 10, "no_data_font_family": "Consolas, \"Liberation Mono\", Menlo, Courier, monospace", "no_data_font_size": 64, "opacity": ".7", "opacity_hover": ".8", "plot_background": "rgba(255, 255, 255, 1)", "stroke_opacity": ".8", "stroke_opacity_hover": ".9", "stroke_width": "1", "stroke_width_hover": "4", "title_font_family": "Consolas, \"Liberation Mono\", Menlo, Courier, monospace", "title_font_size": 16, "tooltip_font_family": "Consolas, \"Liberation Mono\", Menlo, Courier, monospace", "tooltip_font_size": 14, "transition": "150ms", "value_background": "rgba(229, 229, 229, 1)", "value_colors": [], "value_font_family": "Consolas, \"Liberation Mono\", Menlo, Courier, monospace", "value_font_size": 16, "value_label_font_family": "Consolas, \"Liberation Mono\", Menlo, Courier, monospace", "value_label_font_size": 10}, "title": null, "tooltip_border_radius": 0, "tooltip_fancy_mode": true, "truncate_label": null, "truncate_legend": null, "width": 200, "x_label_rotation": 0, "x_labels": ["2024/12", "2024/8", "2024/7", "2024/6", "2024/5", "2023/12", "2023/6", "2023/5", "2023/4", "2023/3"], "x_labels_major": null, "x_labels_major_count": null, "x_labels_major_every": null, "x_title": null, "xrange": null, "y_label_rotation": 0, "y_labels": null, "y_labels_major": null, "y_labels_major_count": null, "y_labels_major_every": null, "y_title": null, "zero": 0, "legends": [""]}</script></defs><title>Pygal</title><g class="graph line-graph vertical"><rect x="0" y="0" width="200" height="50" class="background" /><g transform="translate(82, 10)" class="plot"><rect x="0" y="0" width="108.0" height="30" class="background" /><g class="axis y always_show"><path d="M0.000000 30.000000 h108.000000" class="line" /><g class="guides"><path d="M0.000000 29.423077 h108.000000" class="guide line" /><text x="-5" y="32.92307692307692" class="">0.6724237567</text><title>0.6724237567</title></g><g class="guides"><path d="M0.000000 0.576923 h108.000000" class="guide line" /><text x="-5" y="4.076923076923077" class="">9.361491975</text><title>9.361491975</title></g></g><g class="series serie-0 color-0"><path d="M2.076923 15.056297 L2.123077 14.949730 2.169231 14.843169 2.215385 14.736617 2.261538 14.630081 2.307692 14.523566 2.353846 14.417076 2.400000 14.310617 2.446154 14.204193 2.492308 14.097811 2.538462 13.991475 2.584615 13.885191 2.630769 13.778963 2.676923 13.672796 2.723077 13.566696 2.769231 13.460668 2.815385 13.354717 2.861538 13.248848 2.907692 13.143066 2.953846 13.037377 3.000000 12.931785 3.046154 12.826296 3.092308 12.720914 3.138462 12.615645 3.184615 12.510495 3.230769 12.405467 3.276923 12.300568 3.323077 12.195802 3.369231 12.091175 3.415385 11.986692 3.461538 11.882357 3.507692 11.778176 3.553846 11.674154 3.600000 11.570297 3.646154 11.466609 3.692308 11.363095 3.738462 11.259761 3.784615 11.156611 3.830769 11.053652 3.876923 10.950887 3.923077 10.848323 3.969231 10.745963 4.015385 10.643815 4.061538 10.541881 4.107692 10.440169 4.153846 10.338682 4.200000 10.237426 4.246154 10.136406 4.292308 10.035627 4.338462 9.935094 4.384615 9.834813 4.430769 9.734789 4.476923 9.635026 4.523077 9.535530 4.569231 9.436306 4.615385 9.337359 4.661538 9.238694 4.707692 9.140317 4.753846 9.042232 4.800000 8.944445 4.846154 8.846960 4.892308 8.749784 4.938462 8.652920 4.984615 8.556375 5.030769 8.460152 5.076923 8.364259 5.123077 8.268698 5.169231 8.173477 5.215385 8.078599 5.261538 7.984070 5.307692 7.889895 5.353846 7.796079 5.400000 7.702628 5.446154 7.609546 5.492308 7.516839 5.538462 7.424511 5.584615 7.332568 5.630769 7.241015 5.676923 7.149858 5.723077 7.059100 5.769231 6.968748 5.815385 6.878807 5.861538 6.789281 5.907692 6.700176 5.953846 6.611496 6.000000 6.523248 6.046154 6.435436 6.092308 6.348065 6.138462 6.261141 6.184615 6.174668 6.230769 6.088652 6.276923 6.003097 6.323077 5.918010 6.369231 5.833395 6.415385 5.749256 6.461538 5.665601 6.507692 5.582432 6.553846 5.499757 6.600000 5.417579 6.646154 5.335903 6.692308 5.254736 6.738462 5.174082 6.784615 5.093947 6.830769 5.014334 6.876923 4.935250 6.923077 4.856700 6.969231 4.778689 7.015385 4.701221 7.061538 4.624303 7.107692 4.547938 7.153846 4.472133 7.200000 4.396893 7.246154 4.322222 7.292308 4.248126 7.338462 4.174609 7.384615 4.101678 7.430769 4.029336 7.476923 3.957590 7.523077 3.886444 7.569231 3.815904 7.615385 3.745974 7.661538 3.676660 7.707692 3.607967 7.753846 3.539900 7.800000 3.472464 7.846154 3.405665 7.892308 3.339507 7.938462 3.273995 7.984615 3.209135 8.030769 3.144932 8.076923 3.081390 8.123077 3.018516 8.169231 2.956314 8.215385 2.894789 8.261538 2.833947 8.307692 2.773793 8.353846 2.714331 8.400000 2.655567 8.446154 2.597505 8.492308 2.540152 8.538462 2.483513 8.584615 2.427591 8.630769 2.372393 8.676923 2.317924 8.723077 2.264189 8.769231 2.211192 8.815385 2.158940 8.861538 2.107436 8.907692 2.056687 8.953846 2.006698 9.000000 1.957473 9.046154 1.909017 9.092308 1.861337 9.138462 1.814436 9.184615 1.768320 9.230769 1.722995 9.276923 1.678465 9.323077 1.634736 9.369231 1.591812 9.415385 1.549699 9.461538 1.508401 9.507692 1.467925 9.553846 1.428275 9.600000 1.389456 9.646154 1.351473 9.692308 1.314332 9.738462 1.278038 9.784615 1.242595 9.830769 1.208010 9.876923 1.174286 9.923077 1.141430 9.969231 1.109446 10.015385 1.078339 10.061538 1.048115 10.107692 1.018779 10.153846 0.990335 10.200000 0.962790 10.246154 0.936147 10.292308 0.910413 10.338462 0.885592 10.384615 0.861690 10.430769 0.838711 10.476923 0.816661 10.523077 0.795545 10.569231 0.775368 10.615385 0.756135 10.661538 0.737852 10.707692 0.720522 10.753846 0.704153 10.800000 0.688748 10.846154 0.674312 10.892308 0.660852 10.938462 0.648372 10.984615 0.636877 11.030769 0.626372 11.076923 0.616863 11.123077 0.608355 11.169231 0.600852 11.215385 0.594360 11.261538 0.588884 11.307692 0.584429 11.353846 0.581000 11.400000 0.578603 11.446154 0.577242 11.492308 0.576923 11.538462 0.577651 11.584615 0.579430 11.630769 0.582267 11.676923 0.586166 11.723077 0.591132 11.769231 0.597170 11.815385 0.604286 11.861538 0.612485 11.907692 0.621772 11.953846 0.632151 12.000000 0.643629 12.046154 0.656210 12.092308 0.669899 12.138462 0.684702 12.184615 0.700623 12.230769 0.717668 12.276923 0.735842 12.323077 0.755150 12.369231 0.775597 12.415385 0.797188 12.461538 0.819929 12.507692 0.843824 12.553846 0.868879 12.600000 0.895099 12.646154 0.922489 12.692308 0.951053 12.738462 0.980798 12.784615 1.011729 12.830769 1.043849 12.876923 1.077165 12.923077 1.111682 12.969231 1.147405 13.015385 1.184339 13.061538 1.222489 13.107692 1.261860 13.153846 1.302458 13.200000 1.344287 13.246154 1.387352 13.292308 1.431660 13.338462 1.477214 13.384615 1.524020 13.430769 1.572084 13.476923 1.621409 13.523077 1.672003 13.569231 1.723868 13.615385 1.777012 13.661538 1.831435 13.707692 1.887132 13.753846 1.944090 13.800000 2.002300 13.846154 2.061751 13.892308 2.122433 13.938462 2.184336 13.984615 2.247450 14.030769 2.311763 14.076923 2.377266 14.123077 2.443948 14.169231 2.511799 14.215385 2.580808 14.261538 2.650966 14.307692 2.722261 14.353846 2.794684 14.400000 2.868224 14.446154 2.942871 14.492308 3.018614 14.538462 3.095443 14.584615 3.173347 14.630769 3.252317 14.676923 3.332342 14.723077 3.413411 14.769231 3.495515 14.815385 3.578642 14.861538 3.662783 14.907692 3.747927 14.953846 3.834064 15.000000 3.921184 15.046154 4.009275 15.092308 4.098328 15.138462 4.188332 15.184615 4.279278 15.230769 4.371154 15.276923 4.463950 15.323077 4.557656 15.369231 4.652262 15.415385 4.747757 15.461538 4.844130 15.507692 4.941373 15.553846 5.039473 15.600000 5.138421 15.646154 5.238206 15.692308 5.338819 15.738462 5.440248 15.784615 5.542484 15.830769 5.645515 15.876923 5.749332 15.923077 5.853924 15.969231 5.959282 16.015385 6.065393 16.061538 6.172249 16.107692 6.279839 16.153846 6.388152 16.200000 6.497178 16.246154 6.606907 16.292308 6.717329 16.338462 6.828432 16.384615 6.940207 16.430769 7.052643 16.476923 7.165731 16.523077 7.279459 16.569231 7.393817 16.615385 7.508795 16.661538 7.624382 16.707692 7.740569 16.753846 7.857344 16.800000 7.974698 16.846154 8.092620 16.892308 8.211099 16.938462 8.330126 16.984615 8.449690 17.030769 8.569781 17.076923 8.690388 17.123077 8.811501 17.169231 8.933109 17.215385 9.055203 17.261538 9.177771 17.307692 9.300804 17.353846 9.424291 17.400000 9.548222 17.446154 9.672587 17.492308 9.797374 17.538462 9.922574 17.584615 10.048176 17.630769 10.174171 17.676923 10.300547 17.723077 10.427294 17.769231 10.554402 17.815385 10.681861 17.861538 10.809659 17.907692 10.937788 17.953846 11.066236 18.000000 11.194993 18.046154 11.324050 18.092308 11.453394 18.138462 11.583016 18.184615 11.712907 18.230769 11.843054 18.276923 11.973448 18.323077 12.104079 18.369231 12.234937 18.415385 12.366010 18.461538 12.497288 18.507692 12.628762 18.553846 12.760421 18.600000 12.892254 18.646154 13.024251 18.692308 13.156402 18.738462 13.288696 18.784615 13.421124 18.830769 13.553674 18.876923 13.686336 18.923077 13.819100 18.969231 13.951956 19.015385 14.084893 19.061538 14.217901 19.107692 14.350969 19.153846 14.484088 19.200000 14.617246 19.246154 14.750434 19.292308 14.883641 19.338462 15.016856 19.384615 15.150070 19.430769 15.283272 19.476923 15.416451 19.523077 15.549598 19.569231 15.682702 19.615385 15.815752 19.661538 15.948739 19.707692 16.081651 19.753846 16.214479 19.800000 16.347212 19.846154 16.479840 19.892308 16.612352 19.938462 16.744738 19.984615 16.876988 20.030769 17.009091 20.076923 17.141037 20.123077 17.272816 20.169231 17.404417 20.215385 17.535830 20.261538 17.667045 20.307692 17.798051 20.353846 17.928837 20.400000 18.059394 20.446154 18.189711 20.492308 18.319778 20.538462 18.449584 20.584615 18.579120 20.630769 18.708374 20.676923 18.837336 20.723077 18.965996 20.769231 19.094344 20.815385 19.222369 20.861538 19.350061 20.907692 19.477410 20.953846 19.604404 21.000000 19.731035 21.046154 19.857291 21.092308 19.983162 21.138462 20.108637 21.184615 20.233707 21.230769 20.358362 21.276923 20.482589 21.323077 20.606380 21.369231 20.729724 21.415385 20.852611 21.461538 20.975030 21.507692 21.096971 21.553846 21.218423 21.600000 21.339376 21.646154 21.459820 21.692308 21.579745 21.738462 21.699139 21.784615 21.817994 21.830769 21.936297 21.876923 22.054040 21.923077 22.171211 21.969231 22.287801 22.015385 22.403798 22.061538 22.519194 22.107692 22.633976 22.153846 22.748135 22.200000 22.861661 22.246154 22.974542 22.292308 23.086770 22.338462 23.198333 22.384615 23.309221 22.430769 23.419423 22.476923 23.528930 22.523077 23.637731 22.569231 23.745816 22.615385 23.853174 22.661538 23.959794 22.707692 24.065668 22.753846 24.170783 22.800000 24.275130 22.846154 24.378699 22.892308 24.481479 22.938462 24.583460 22.984615 24.684631 23.030769 24.784982 23.076923 24.884502 23.123077 24.983182 23.169231 25.081011 23.215385 25.177979 23.261538 25.274075 23.307692 25.369289 23.353846 25.463610 23.400000 25.557028 23.446154 25.649533 23.492308 25.741115 23.538462 25.831763 23.584615 25.921466 23.630769 26.010215 23.676923 26.097999 23.723077 26.184807 23.769231 26.270630 23.815385 26.355457 23.861538 26.439277 23.907692 26.522081 23.953846 26.603857 24.000000 26.684596 24.046154 26.764287 24.092308 26.842920 24.138462 26.920484 24.184615 26.996969 24.230769 27.072365 24.276923 27.146662 24.323077 27.219848 24.369231 27.291914 24.415385 27.362849 24.461538 27.432643 24.507692 27.501286 24.553846 27.568767 24.600000 27.635076 24.646154 27.700202 24.692308 27.764135 24.738462 27.826866 24.784615 27.888382 24.830769 27.948675 24.876923 28.007733 24.923077 28.065547 24.969231 28.122105 25.015385 28.177399 25.061538 28.231416 25.107692 28.284147 25.153846 28.335582 25.200000 28.385714 25.246154 28.434546 25.292308 28.482089 25.338462 28.528349 25.384615 28.573335 25.430769 28.617056 25.476923 28.659520 25.523077 28.700735 25.569231 28.740709 25.615385 28.779450 25.661538 28.816967 25.707692 28.853268 25.753846 28.888362 25.800000 28.922256 25.846154 28.954958 25.892308 28.986478 25.938462 29.016823 25.984615 29.046002 26.030769 29.074022 26.076923 29.100893 26.123077 29.126621 26.169231 29.151217 26.215385 29.174687 26.261538 29.197040 26.307692 29.218285 26.353846 29.238429 26.400000 29.257481 26.446154 29.275449 26.492308 29.292342 26.538462 29.308167 26.584615 29.322933 26.630769 29.336649 26.676923 29.349321 26.723077 29.360960 26.769231 29.371572 26.815385 29.381167 26.861538 29.389751 26.907692 29.397335 26.953846 29.403926 27.000000 29.409531 27.046154 29.414160 27.092308 29.417821 27.138462 29.420522 27.184615 29.422271 27.230769 29.423077 27.276923 29.422947 27.323077 29.421891 27.369231 29.419915 27.415385 29.417029 27.461538 29.413241 27.507692 29.408559 27.553846 29.402991 27.600000 29.396546 27.646154 29.389232 27.692308 29.381056 27.738462 29.372028 27.784615 29.362156 27.830769 29.351447 27.876923 29.339911 27.923077 29.327554 27.969231 29.314387 28.015385 29.300416 28.061538 29.285650 28.107692 29.270098 28.153846 29.253768 28.200000 29.236667 28.246154 29.218804 28.292308 29.200188 28.338462 29.180827 28.384615 29.160728 28.430769 29.139900 28.476923 29.118352 28.523077 29.096092 28.569231 29.073128 28.615385 29.049467 28.661538 29.025120 28.707692 29.000093 28.753846 28.974395 28.800000 28.948034 28.846154 28.921018 28.892308 28.893357 28.938462 28.865057 28.984615 28.836128 29.030769 28.806577 29.076923 28.776413 29.123077 28.745644 29.169231 28.714278 29.215385 28.682324 29.261538 28.649790 29.307692 28.616683 29.353846 28.583013 29.400000 28.548788 29.446154 28.514015 29.492308 28.478704 29.538462 28.442861 29.584615 28.406497 29.630769 28.369618 29.676923 28.332233 29.723077 28.294351 29.769231 28.255979 29.815385 28.217127 29.861538 28.177801 29.907692 28.138011 29.953846 28.097764 30.000000 28.057069 30.046154 28.015935 30.092308 27.974369 30.138462 27.932379 30.184615 27.889975 30.230769 27.847164 30.276923 27.803954 30.323077 27.760354 30.369231 27.716372 30.415385 27.672016 30.461538 27.627294 30.507692 27.582215 30.553846 27.536788 30.600000 27.491019 30.646154 27.444918 30.692308 27.398493 30.738462 27.351752 30.784615 27.304703 30.830769 27.257355 30.876923 27.209715 30.923077 27.161793 30.969231 27.113596 31.015385 27.065132 31.061538 27.016410 31.107692 26.967438 31.153846 26.918225 31.200000 26.868778 31.246154 26.819106 31.292308 26.769217 31.338462 26.719120 31.384615 26.668822 31.430769 26.618332 31.476923 26.567658 31.523077 26.516809 31.569231 26.465792 31.615385 26.414616 31.661538 26.363289 31.707692 26.311820 31.753846 26.260217 31.800000 26.208487 31.846154 26.156639 31.892308 26.104682 31.938462 26.052624 31.984615 26.000473 32.030769 25.948236 32.076923 25.895924 32.123077 25.843543 32.169231 25.791102 32.215385 25.738609 32.261538 25.686073 32.307692 25.633501 32.353846 25.580903 32.400000 25.528286 32.446154 25.475658 32.492308 25.423028 32.538462 25.370404 32.584615 25.317795 32.630769 25.265208 32.676923 25.212652 32.723077 25.160135 32.769231 25.107665 32.815385 25.055251 32.861538 25.002901 32.907692 24.950623 32.953846 24.898425 33.000000 24.846316 33.046154 24.794303 33.092308 24.742396 33.138462 24.690602 33.184615 24.638930 33.230769 24.587388 33.276923 24.535984 33.323077 24.484726 33.369231 24.433623 33.415385 24.382683 33.461538 24.331914 33.507692 24.281325 33.553846 24.230923 33.600000 24.180717 33.646154 24.130716 33.692308 24.080926 33.738462 24.031358 33.784615 23.982019 33.830769 23.932917 33.876923 23.884060 33.923077 23.835457 33.969231 23.787116 34.015385 23.739046 34.061538 23.691254 34.107692 23.643748 34.153846 23.596538 34.200000 23.549631 34.246154 23.503036 34.292308 23.456760 34.338462 23.410813 34.384615 23.365201 34.430769 23.319935 34.476923 23.275021 34.523077 23.230468 34.569231 23.186285 34.615385 23.142479 34.661538 23.099060 34.707692 23.056034 34.753846 23.013411 34.800000 22.971198 34.846154 22.929404 34.892308 22.888038 34.938462 22.847106 34.984615 22.806619 35.030769 22.766583 35.076923 22.727008 35.123077 22.687901 35.169231 22.649270 35.215385 22.611125 35.261538 22.573473 35.307692 22.536322 35.353846 22.499681 35.400000 22.463558 35.446154 22.427962 35.492308 22.392899 35.538462 22.358380 35.584615 22.324412 35.630769 22.291002 35.676923 22.258161 35.723077 22.225895 35.769231 22.194213 35.815385 22.163123 35.861538 22.132634 35.907692 22.102754 35.953846 22.073491 36.000000 22.044853 36.046154 22.016849 36.092308 21.989487 36.138462 21.962774 36.184615 21.936720 36.230769 21.911333 36.276923 21.886621 36.323077 21.862591 36.369231 21.839253 36.415385 21.816615 36.461538 21.794685 36.507692 21.773470 36.553846 21.752980 36.600000 21.733223 36.646154 21.714207 36.692308 21.695940 36.738462 21.678428 36.784615 21.661669 36.830769 21.645657 36.876923 21.630389 36.923077 21.615858 36.969231 21.602061 37.015385 21.588993 37.061538 21.576648 37.107692 21.565022 37.153846 21.554110 37.200000 21.543907 37.246154 21.534409 37.292308 21.525610 37.338462 21.517506 37.384615 21.510092 37.430769 21.503363 37.476923 21.497314 37.523077 21.491941 37.569231 21.487238 37.615385 21.483202 37.661538 21.479826 37.707692 21.477106 37.753846 21.475038 37.800000 21.473616 37.846154 21.472836 37.892308 21.472693 37.938462 21.473182 37.984615 21.474298 38.030769 21.476036 38.076923 21.478392 38.123077 21.481361 38.169231 21.484938 38.215385 21.489118 38.261538 21.493896 38.307692 21.499268 38.353846 21.505228 38.400000 21.511773 38.446154 21.518896 38.492308 21.526593 38.538462 21.534860 38.584615 21.543691 38.630769 21.553082 38.676923 21.563028 38.723077 21.573524 38.769231 21.584566 38.815385 21.596148 38.861538 21.608265 38.907692 21.620913 38.953846 21.634087 39.000000 21.647783 39.046154 21.661994 39.092308 21.676717 39.138462 21.691947 39.184615 21.707679 39.230769 21.723907 39.276923 21.740628 39.323077 21.757837 39.369231 21.775527 39.415385 21.793696 39.461538 21.812338 39.507692 21.831447 39.553846 21.851020 39.600000 21.871052 39.646154 21.891537 39.692308 21.912471 39.738462 21.933848 39.784615 21.955665 39.830769 21.977917 39.876923 22.000598 39.923077 22.023703 39.969231 22.047229 40.015385 22.071169 40.061538 22.095520 40.107692 22.120276 40.153846 22.145433 40.200000 22.170986 40.246154 22.196929 40.292308 22.223259 40.338462 22.249970 40.384615 22.277057 40.430769 22.304516 40.476923 22.332342 40.523077 22.360530 40.569231 22.389075 40.615385 22.417973 40.661538 22.447218 40.707692 22.476805 40.753846 22.506731 40.800000 22.536990 40.846154 22.567577 40.892308 22.598487 40.938462 22.629716 40.984615 22.661259 41.030769 22.693111 41.076923 22.725267 41.123077 22.757722 41.169231 22.790472 41.215385 22.823512 41.261538 22.856836 41.307692 22.890441 41.353846 22.924320 41.400000 22.958470 41.446154 22.992886 41.492308 23.027562 41.538462 23.062495 41.584615 23.097678 41.630769 23.133108 41.676923 23.168779 41.723077 23.204687 41.769231 23.240826 41.815385 23.277193 41.861538 23.313781 41.907692 23.350588 41.953846 23.387606 42.000000 23.424833 42.046154 23.462262 42.092308 23.499889 42.138462 23.537710 42.184615 23.575719 42.230769 23.613911 42.276923 23.652282 42.323077 23.690828 42.369231 23.729542 42.415385 23.768421 42.461538 23.807459 42.507692 23.846652 42.553846 23.885995 42.600000 23.925482 42.646154 23.965110 42.692308 24.004874 42.738462 24.044767 42.784615 24.084787 42.830769 24.124927 42.876923 24.165184 42.923077 24.205552 42.969231 24.246026 43.015385 24.286602 43.061538 24.327275 43.107692 24.368039 43.153846 24.408891 43.200000 24.449825 43.246154 24.490837 43.292308 24.531921 43.338462 24.573073 43.384615 24.614289 43.430769 24.655562 43.476923 24.696889 43.523077 24.738264 43.569231 24.779684 43.615385 24.821142 43.661538 24.862634 43.707692 24.904155 43.753846 24.945701 43.800000 24.987267 43.846154 25.028847 43.892308 25.070438 43.938462 25.112033 43.984615 25.153629 44.030769 25.195221 44.076923 25.236803 44.123077 25.278371 44.169231 25.319920 44.215385 25.361446 44.261538 25.402942 44.307692 25.444406 44.353846 25.485831 44.400000 25.527213 44.446154 25.568547 44.492308 25.609829 44.538462 25.651053 44.584615 25.692215 44.630769 25.733309 44.676923 25.774332 44.723077 25.815278 44.769231 25.856142 44.815385 25.896919 44.861538 25.937606 44.907692 25.978196 44.953846 26.018686 45.000000 26.059069 45.046154 26.099343 45.092308 26.139500 45.138462 26.179538 45.184615 26.219450 45.230769 26.259233 45.276923 26.298881 45.323077 26.338390 45.369231 26.377754 45.415385 26.416969 45.461538 26.456030 45.507692 26.494933 45.553846 26.533671 45.600000 26.572242 45.646154 26.610639 45.692308 26.648858 45.738462 26.686894 45.784615 26.724742 45.830769 26.762398 45.876923 26.799857 45.923077 26.837113 45.969231 26.874162 46.015385 26.911000 46.061538 26.947621 46.107692 26.984020 46.153846 27.020193 46.200000 27.056135 46.246154 27.091841 46.292308 27.127307 46.338462 27.162526 46.384615 27.197496 46.430769 27.232210 46.476923 27.266664 46.523077 27.300853 46.569231 27.334773 46.615385 27.368418 46.661538 27.401783 46.707692 27.434865 46.753846 27.467657 46.800000 27.500156 46.846154 27.532356 46.892308 27.564253 46.938462 27.595841 46.984615 27.627117 47.030769 27.658074 47.076923 27.688709 47.123077 27.719016 47.169231 27.748991 47.215385 27.778628 47.261538 27.807924 47.307692 27.836872 47.353846 27.865469 47.400000 27.893710 47.446154 27.921589 47.492308 27.949102 47.538462 27.976244 47.584615 28.003011 47.630769 28.029396 47.676923 28.055397 47.723077 28.081007 47.769231 28.106222 47.815385 28.131037 47.861538 28.155447 47.907692 28.179448 47.953846 28.203035 48.000000 28.226202 48.046154 28.248945 48.092308 28.271260 48.138462 28.293141 48.184615 28.314583 48.230769 28.335582 48.276923 28.356135 48.323077 28.376241 48.369231 28.395903 48.415385 28.415123 48.461538 28.433904 48.507692 28.452248 48.553846 28.470155 48.600000 28.487630 48.646154 28.504673 48.692308 28.521287 48.738462 28.537474 48.784615 28.553236 48.830769 28.568575 48.876923 28.583494 48.923077 28.597994 48.969231 28.612077 49.015385 28.625747 49.061538 28.639003 49.107692 28.651850 49.153846 28.664289 49.200000 28.676321 49.246154 28.687950 49.292308 28.699177 49.338462 28.710005 49.384615 28.720435 49.430769 28.730469 49.476923 28.740111 49.523077 28.749361 49.569231 28.758222 49.615385 28.766696 49.661538 28.774785 49.707692 28.782491 49.753846 28.789817 49.800000 28.796764 49.846154 28.803335 49.892308 28.809531 49.938462 28.815355 49.984615 28.820809 50.030769 28.825895 50.076923 28.830615 50.123077 28.834972 50.169231 28.838966 50.215385 28.842602 50.261538 28.845879 50.307692 28.848801 50.353846 28.851371 50.400000 28.853588 50.446154 28.855457 50.492308 28.856979 50.538462 28.858156 50.584615 28.858991 50.630769 28.859485 50.676923 28.859640 50.723077 28.859459 50.769231 28.858944 50.815385 28.858096 50.861538 28.856918 50.907692 28.855413 50.953846 28.853582 51.000000 28.851426 51.046154 28.848950 51.092308 28.846153 51.138462 28.843040 51.184615 28.839611 51.230769 28.835869 51.276923 28.831815 51.323077 28.827453 51.369231 28.822784 51.415385 28.817810 51.461538 28.812534 51.507692 28.806957 51.553846 28.801081 51.600000 28.794909 51.646154 28.788443 51.692308 28.781685 51.738462 28.774637 51.784615 28.767301 51.830769 28.759679 51.876923 28.751773 51.923077 28.743586 51.969231 28.735119 52.015385 28.726376 52.061538 28.717356 52.107692 28.708064 52.153846 28.698501 52.200000 28.688668 52.246154 28.678569 52.292308 28.668205 52.338462 28.657579 52.384615 28.646692 52.430769 28.635546 52.476923 28.624145 52.523077 28.612489 52.569231 28.600581 52.615385 28.588423 52.661538 28.576018 52.707692 28.563366 52.753846 28.550471 52.800000 28.537335 52.846154 28.523959 52.892308 28.510345 52.938462 28.496497 52.984615 28.482415 53.030769 28.468103 53.076923 28.453561 53.123077 28.438793 53.169231 28.423800 53.215385 28.408585 53.261538 28.393149 53.307692 28.377495 53.353846 28.361624 53.400000 28.345540 53.446154 28.329243 53.492308 28.312737 53.538462 28.296022 53.584615 28.279102 53.630769 28.261979 53.676923 28.244654 53.723077 28.227130 53.769231 28.209408 53.815385 28.191491 53.861538 28.173381 53.907692 28.155081 53.953846 28.136591 54.000000 28.117915 54.046154 28.099054 54.092308 28.080011 54.138462 28.060787 54.184615 28.041385 54.230769 28.021807 54.276923 28.002054 54.323077 27.982130 54.369231 27.962036 54.415385 27.941774 54.461538 27.921347 54.507692 27.900756 54.553846 27.880003 54.600000 27.859091 54.646154 27.838022 54.692308 27.816798 54.738462 27.795421 54.784615 27.773893 54.830769 27.752217 54.876923 27.730393 54.923077 27.708426 54.969231 27.686315 55.015385 27.664065 55.061538 27.641676 55.107692 27.619151 55.153846 27.596492 55.200000 27.573701 55.246154 27.550780 55.292308 27.527731 55.338462 27.504557 55.384615 27.481260 55.430769 27.457841 55.476923 27.434303 55.523077 27.410648 55.569231 27.386877 55.615385 27.362994 55.661538 27.339000 55.707692 27.314897 55.753846 27.290688 55.800000 27.266374 55.846154 27.241958 55.892308 27.217441 55.938462 27.192826 55.984615 27.168116 56.030769 27.143311 56.076923 27.118414 56.123077 27.093428 56.169231 27.068354 56.215385 27.043194 56.261538 27.017951 56.307692 26.992627 56.353846 26.967223 56.400000 26.941743 56.446154 26.916187 56.492308 26.890559 56.538462 26.864859 56.584615 26.839091 56.630769 26.813257 56.676923 26.787358 56.723077 26.761397 56.769231 26.735375 56.815385 26.709296 56.861538 26.683160 56.907692 26.656970 56.953846 26.630729 57.000000 26.604438 57.046154 26.578099 57.092308 26.551715 57.138462 26.525288 57.184615 26.498819 57.230769 26.472311 57.276923 26.445766 57.323077 26.419186 57.369231 26.392574 57.415385 26.365930 57.461538 26.339258 57.507692 26.312560 57.553846 26.285837 57.600000 26.259091 57.646154 26.232326 57.692308 26.205543 57.738462 26.178743 57.784615 26.151930 57.830769 26.125105 57.876923 26.098270 57.923077 26.071428 57.969231 26.044580 58.015385 26.017729 58.061538 25.990877 58.107692 25.964026 58.153846 25.937177 58.200000 25.910334 58.246154 25.883498 58.292308 25.856672 58.338462 25.829856 58.384615 25.803055 58.430769 25.776269 58.476923 25.749501 58.523077 25.722752 58.569231 25.696026 58.615385 25.669324 58.661538 25.642648 58.707692 25.616000 58.753846 25.589382 58.800000 25.562798 58.846154 25.536247 58.892308 25.509734 58.938462 25.483259 58.984615 25.456826 59.030769 25.430435 59.076923 25.404089 59.123077 25.377791 59.169231 25.351542 59.215385 25.325345 59.261538 25.299201 59.307692 25.273113 59.353846 25.247083 59.400000 25.221113 59.446154 25.195205 59.492308 25.169361 59.538462 25.143583 59.584615 25.117873 59.630769 25.092234 59.676923 25.066668 59.723077 25.041176 59.769231 25.015761 59.815385 24.990425 59.861538 24.965167 59.907692 24.939989 59.953846 24.914891 60.000000 24.889872 60.046154 24.864933 60.092308 24.840075 60.138462 24.815297 60.184615 24.790599 60.230769 24.765983 60.276923 24.741447 60.323077 24.716993 60.369231 24.692620 60.415385 24.668328 60.461538 24.644119 60.507692 24.619992 60.553846 24.595947 60.600000 24.571984 60.646154 24.548105 60.692308 24.524308 60.738462 24.500595 60.784615 24.476965 60.830769 24.453418 60.876923 24.429956 60.923077 24.406577 60.969231 24.383283 61.015385 24.360073 61.061538 24.336948 61.107692 24.313908 61.153846 24.290952 61.200000 24.268083 61.246154 24.245298 61.292308 24.222600 61.338462 24.199987 61.384615 24.177461 61.430769 24.155021 61.476923 24.132668 61.523077 24.110401 61.569231 24.088222 61.615385 24.066130 61.661538 24.044125 61.707692 24.022208 61.753846 24.000379 61.800000 23.978638 61.846154 23.956986 61.892308 23.935421 61.938462 23.913946 61.984615 23.892560 62.030769 23.871263 62.076923 23.850055 62.123077 23.828937 62.169231 23.807909 62.215385 23.786970 62.261538 23.766122 62.307692 23.745365 62.353846 23.724698 62.400000 23.704122 62.446154 23.683637 62.492308 23.663244 62.538462 23.642942 62.584615 23.622732 62.630769 23.602614 62.676923 23.582588 62.723077 23.562655 62.769231 23.542814 62.815385 23.523066 62.861538 23.503411 62.907692 23.483849 62.953846 23.464381 63.000000 23.445006 63.046154 23.425726 63.092308 23.406539 63.138462 23.387447 63.184615 23.368449 63.230769 23.349547 63.276923 23.330739 63.323077 23.312026 63.369231 23.293409 63.415385 23.274887 63.461538 23.256461 63.507692 23.238132 63.553846 23.219898 63.600000 23.201761 63.646154 23.183721 63.692308 23.165778 63.738462 23.147932 63.784615 23.130183 63.830769 23.112531 63.876923 23.094978 63.923077 23.077522 63.969231 23.060165 64.015385 23.042906 64.061538 23.025746 64.107692 23.008685 64.153846 22.991722 64.200000 22.974859 64.246154 22.958095 64.292308 22.941432 64.338462 22.924868 64.384615 22.908404 64.430769 22.892040 64.476923 22.875777 64.523077 22.859615 64.569231 22.843554 64.615385 22.827594 64.661538 22.811736 64.707692 22.795979 64.753846 22.780324 64.800000 22.764771 64.846154 22.749320 64.892308 22.733972 64.938462 22.718726 64.984615 22.703584 65.030769 22.688544 65.076923 22.673608 65.123077 22.658776 65.169231 22.644047 65.215385 22.629422 65.261538 22.614902 65.307692 22.600485 65.353846 22.586174 65.400000 22.571967 65.446154 22.557866 65.492308 22.543870 65.538462 22.529979 65.584615 22.516194 65.630769 22.502515 65.676923 22.488942 65.723077 22.475475 65.769231 22.462115 65.815385 22.448862 65.861538 22.435715 65.907692 22.422676 65.953846 22.409745 66.000000 22.396921 66.046154 22.384204 66.092308 22.371596 66.138462 22.359097 66.184615 22.346705 66.230769 22.334423 66.276923 22.322249 66.323077 22.310185 66.369231 22.298229 66.415385 22.286384 66.461538 22.274648 66.507692 22.263022 66.553846 22.251507 66.600000 22.240102 66.646154 22.228807 66.692308 22.217624 66.738462 22.206551 66.784615 22.195590 66.830769 22.184740 66.876923 22.174002 66.923077 22.163376 66.969231 22.152862 67.015385 22.142460 67.061538 22.132171 67.107692 22.121995 67.153846 22.111932 67.200000 22.101982 67.246154 22.092145 67.292308 22.082422 67.338462 22.072813 67.384615 22.063318 67.430769 22.053938 67.476923 22.044671 67.523077 22.035520 67.569231 22.026483 67.615385 22.017562 67.661538 22.008756 67.707692 22.000066 67.753846 21.991491 67.800000 21.983032 67.846154 21.974690 67.892308 21.966464 67.938462 21.958355 67.984615 21.950362 68.030769 21.942487 68.076923 21.934729 68.123077 21.927088 68.169231 21.919565 68.215385 21.912161 68.261538 21.904874 68.307692 21.897705 68.353846 21.890656 68.400000 21.883725 68.446154 21.876913 68.492308 21.870220 68.538462 21.863647 68.584615 21.857193 68.630769 21.850859 68.676923 21.844646 68.723077 21.838552 68.769231 21.832579 68.815385 21.826727 68.861538 21.820996 68.907692 21.815386 68.953846 21.809897 69.000000 21.804530 69.046154 21.799285 69.092308 21.794162 69.138462 21.789161 69.184615 21.784282 69.230769 21.779526 69.276923 21.774893 69.323077 21.770383 69.369231 21.765996 69.415385 21.761733 69.461538 21.757594 69.507692 21.753578 69.553846 21.749687 69.600000 21.745920 69.646154 21.742278 69.692308 21.738760 69.738462 21.735368 69.784615 21.732100 69.830769 21.728958 69.876923 21.725942 69.923077 21.723052 69.969231 21.720288 70.015385 21.717650 70.061538 21.715138 70.107692 21.712754 70.153846 21.710496 70.200000 21.708366 70.246154 21.706362 70.292308 21.704487 70.338462 21.702739 70.384615 21.701119 70.430769 21.699628 70.476923 21.698265 70.523077 21.697030 70.569231 21.695925 70.615385 21.694948 70.661538 21.694101 70.707692 21.693384 70.753846 21.692796 70.800000 21.692338 70.846154 21.692010 70.892308 21.691813 70.938462 21.691746 70.984615 21.691810 71.030769 21.692006 71.076923 21.692332 71.123077 21.692790 71.169231 21.693379 71.215385 21.694100 71.261538 21.694954 71.307692 21.695940 71.353846 21.697058 71.400000 21.698308 71.446154 21.699690 71.492308 21.701203 71.538462 21.702848 71.584615 21.704622 71.630769 21.706527 71.676923 21.708561 71.723077 21.710724 71.769231 21.713017 71.815385 21.715437 71.861538 21.717986 71.907692 21.720662 71.953846 21.723465 72.000000 21.726395 72.046154 21.729451 72.092308 21.732633 72.138462 21.735940 72.184615 21.739373 72.230769 21.742930 72.276923 21.746611 72.323077 21.750416 72.369231 21.754344 72.415385 21.758396 72.461538 21.762570 72.507692 21.766866 72.553846 21.771283 72.600000 21.775822 72.646154 21.780482 72.692308 21.785263 72.738462 21.790163 72.784615 21.795183 72.830769 21.800322 72.876923 21.805580 72.923077 21.810956 72.969231 21.816451 73.015385 21.822062 73.061538 21.827791 73.107692 21.833637 73.153846 21.839599 73.200000 21.845676 73.246154 21.851870 73.292308 21.858178 73.338462 21.864601 73.384615 21.871138 73.430769 21.877789 73.476923 21.884553 73.523077 21.891430 73.569231 21.898420 73.615385 21.905522 73.661538 21.912735 73.707692 21.920060 73.753846 21.927495 73.800000 21.935042 73.846154 21.942698 73.892308 21.950464 73.938462 21.958339 73.984615 21.966322 74.030769 21.974414 74.076923 21.982615 74.123077 21.990922 74.169231 21.999337 74.215385 22.007858 74.261538 22.016486 74.307692 22.025220 74.353846 22.034059 74.400000 22.043003 74.446154 22.052052 74.492308 22.061205 74.538462 22.070461 74.584615 22.079821 74.630769 22.089284 74.676923 22.098850 74.723077 22.108518 74.769231 22.118287 74.815385 22.128158 74.861538 22.138129 74.907692 22.148201 74.953846 22.158373 75.000000 22.168645 75.046154 22.179016 75.092308 22.189486 75.138462 22.200054 75.184615 22.210720 75.230769 22.221483 75.276923 22.232344 75.323077 22.243301 75.369231 22.254355 75.415385 22.265505 75.461538 22.276750 75.507692 22.288090 75.553846 22.299524 75.600000 22.311053 75.646154 22.322676 75.692308 22.334392 75.738462 22.346201 75.784615 22.358103 75.830769 22.370096 75.876923 22.382182 75.923077 22.394358 75.969231 22.406626 76.015385 22.418984 76.061538 22.431432 76.107692 22.443970 76.153846 22.456597 76.200000 22.469312 76.246154 22.482116 76.292308 22.495008 76.338462 22.507988 76.384615 22.521055 76.430769 22.534208 76.476923 22.547448 76.523077 22.560773 76.569231 22.574185 76.615385 22.587681 76.661538 22.601261 76.707692 22.614926 76.753846 22.628675 76.800000 22.642507 76.846154 22.656422 76.892308 22.670420 76.938462 22.684500 76.984615 22.698661 77.030769 22.712904 77.076923 22.727228 77.123077 22.741632 77.169231 22.756116 77.215385 22.770680 77.261538 22.785323 77.307692 22.800044 77.353846 22.814845 77.400000 22.829723 77.446154 22.844678 77.492308 22.859711 77.538462 22.874821 77.584615 22.890007 77.630769 22.905268 77.676923 22.920606 77.723077 22.936018 77.769231 22.951505 77.815385 22.967066 77.861538 22.982701 77.907692 22.998409 77.953846 23.014190 78.000000 23.030044 78.046154 23.045970 78.092308 23.061967 78.138462 23.078036 78.184615 23.094176 78.230769 23.110386 78.276923 23.126667 78.323077 23.143017 78.369231 23.159436 78.415385 23.175924 78.461538 23.192480 78.507692 23.209105 78.553846 23.225797 78.600000 23.242556 78.646154 23.259381 78.692308 23.276273 78.738462 23.293231 78.784615 23.310255 78.830769 23.327343 78.876923 23.344496 78.923077 23.361714 78.969231 23.378995 79.015385 23.396339 79.061538 23.413747 79.107692 23.431217 79.153846 23.448749 79.200000 23.466343 79.246154 23.483998 79.292308 23.501714 79.338462 23.519491 79.384615 23.537327 79.430769 23.555224 79.476923 23.573179 79.523077 23.591193 79.569231 23.609266 79.615385 23.627397 79.661538 23.645585 79.707692 23.663830 79.753846 23.682132 79.800000 23.700491 79.846154 23.718905 79.892308 23.737374 79.938462 23.755899 79.984615 23.774479 80.030769 23.793112 80.076923 23.811800 80.123077 23.830541 80.169231 23.849334 80.215385 23.868181 80.261538 23.887079 80.307692 23.906030 80.353846 23.925031 80.400000 23.944083 80.446154 23.963186 80.492308 23.982339 80.538462 24.001542 80.584615 24.020794 80.630769 24.040094 80.676923 24.059443 80.723077 24.078841 80.769231 24.098285 80.815385 24.117777 80.861538 24.137315 80.907692 24.156900 80.953846 24.176531 81.000000 24.196207 81.046154 24.215928 81.092308 24.235694 81.138462 24.255504 81.184615 24.275358 81.230769 24.295255 81.276923 24.315195 81.323077 24.335178 81.369231 24.355203 81.415385 24.375270 81.461538 24.395378 81.507692 24.415526 81.553846 24.435716 81.600000 24.455945 81.646154 24.476214 81.692308 24.496523 81.738462 24.516870 81.784615 24.537255 81.830769 24.557679 81.876923 24.578140 81.923077 24.598638 81.969231 24.619173 82.015385 24.639744 82.061538 24.660351 82.107692 24.680994 82.153846 24.701671 82.200000 24.722384 82.246154 24.743130 82.292308 24.763911 82.338462 24.784724 82.384615 24.805571 82.430769 24.826451 82.476923 24.847362 82.523077 24.868305 82.569231 24.889280 82.615385 24.910285 82.661538 24.931321 82.707692 24.952387 82.753846 24.973483 82.800000 24.994607 82.846154 25.015761 82.892308 25.036943 82.938462 25.058152 82.984615 25.079388 83.030769 25.100648 83.076923 25.121933 83.123077 25.143240 83.169231 25.164570 83.215385 25.185920 83.261538 25.207289 83.307692 25.228677 83.353846 25.250083 83.400000 25.271505 83.446154 25.292942 83.492308 25.314393 83.538462 25.335857 83.584615 25.357333 83.630769 25.378820 83.676923 25.400317 83.723077 25.421822 83.769231 25.443335 83.815385 25.464855 83.861538 25.486379 83.907692 25.507908 83.953846 25.529440 84.000000 25.550974 84.046154 25.572509 84.092308 25.594044 84.138462 25.615578 84.184615 25.637109 84.230769 25.658637 84.276923 25.680161 84.323077 25.701678 84.369231 25.723189 84.415385 25.744692 84.461538 25.766186 84.507692 25.787671 84.553846 25.809144 84.600000 25.830604 84.646154 25.852052 84.692308 25.873485 84.738462 25.894902 84.784615 25.916303 84.830769 25.937686 84.876923 25.959051 84.923077 25.980395 84.969231 26.001718 85.015385 26.023020 85.061538 26.044298 85.107692 26.065551 85.153846 26.086780 85.200000 26.107982 85.246154 26.129156 85.292308 26.150301 85.338462 26.171417 85.384615 26.192502 85.430769 26.213555 85.476923 26.234575 85.523077 26.255560 85.569231 26.276510 85.615385 26.297424 85.661538 26.318301 85.707692 26.339139 85.753846 26.359937 85.800000 26.380694 85.846154 26.401410 85.892308 26.422082 85.938462 26.442710 85.984615 26.463294 86.030769 26.483831 86.076923 26.504320 86.123077 26.524761 86.169231 26.545153 86.215385 26.565494 86.261538 26.585783 86.307692 26.606019 86.353846 26.626202 86.400000 26.646329 86.446154 26.666400 86.492308 26.686414 86.538462 26.706369 86.584615 26.726265 86.630769 26.746101 86.676923 26.765875 86.723077 26.785586 86.769231 26.805233 86.815385 26.824816 86.861538 26.844332 86.907692 26.863781 86.953846 26.883162 87.000000 26.902474 87.046154 26.921715 87.092308 26.940884 87.138462 26.959981 87.184615 26.979005 87.230769 26.997953 87.276923 27.016826 87.323077 27.035621 87.369231 27.054339 87.415385 27.072977 87.461538 27.091535 87.507692 27.110011 87.553846 27.128405 87.600000 27.146716 87.646154 27.164941 87.692308 27.183081 87.738462 27.201134 87.784615 27.219099 87.830769 27.236975 87.876923 27.254761 87.923077 27.272455 87.969231 27.290057 88.015385 27.307566 88.061538 27.324979 88.107692 27.342298 88.153846 27.359519 88.200000 27.376643 88.246154 27.393667 88.292308 27.410592 88.338462 27.427415 88.384615 27.444136 88.430769 27.460754 88.476923 27.477267 88.523077 27.493674 88.569231 27.509975 88.615385 27.526169 88.661538 27.542253 88.707692 27.558227 88.753846 27.574091 88.800000 27.589842 88.846154 27.605480 88.892308 27.621003 88.938462 27.636411 88.984615 27.651703 89.030769 27.666877 89.076923 27.681932 89.123077 27.696867 89.169231 27.711681 89.215385 27.726374 89.261538 27.740943 89.307692 27.755388 89.353846 27.769708 89.400000 27.783901 89.446154 27.797966 89.492308 27.811903 89.538462 27.825711 89.584615 27.839387 89.630769 27.852932 89.676923 27.866343 89.723077 27.879620 89.769231 27.892763 89.815385 27.905768 89.861538 27.918637 89.907692 27.931367 89.953846 27.943957 90.000000 27.956407 90.046154 27.968715 90.092308 27.980879 90.138462 27.992900 90.184615 28.004776 90.230769 28.016506 90.276923 28.028088 90.323077 28.039522 90.369231 28.050806 90.415385 28.061940 90.461538 28.072922 90.507692 28.083752 90.553846 28.094427 90.600000 28.104947 90.646154 28.115312 90.692308 28.125519 90.738462 28.135568 90.784615 28.145458 90.830769 28.155187 90.876923 28.164754 90.923077 28.174159 90.969231 28.183400 91.015385 28.192476 91.061538 28.201386 91.107692 28.210130 91.153846 28.218705 91.200000 28.227110 91.246154 28.235346 91.292308 28.243410 91.338462 28.251301 91.384615 28.259019 91.430769 28.266562 91.476923 28.273929 91.523077 28.281119 91.569231 28.288131 91.615385 28.294964 91.661538 28.301617 91.707692 28.308088 91.753846 28.314377 91.800000 28.320483 91.846154 28.326404 91.892308 28.332139 91.938462 28.337687 91.984615 28.343047 92.030769 28.348218 92.076923 28.353200 92.123077 28.357990 92.169231 28.362587 92.215385 28.366991 92.261538 28.371201 92.307692 28.375215 92.353846 28.379033 92.400000 28.382652 92.446154 28.386073 92.492308 28.389293 92.538462 28.392313 92.584615 28.395130 92.630769 28.397744 92.676923 28.400154 92.723077 28.402358 92.769231 28.404356 92.815385 28.406145 92.861538 28.407727 92.907692 28.409098 92.953846 28.410258 93.000000 28.411206 93.046154 28.411941 93.092308 28.412462 93.138462 28.412767 93.184615 28.412856 93.230769 28.412727 93.276923 28.412379 93.323077 28.411812 93.369231 28.411024 93.415385 28.410014 93.461538 28.408781 93.507692 28.407323 93.553846 28.405641 93.600000 28.403732 93.646154 28.401595 93.692308 28.399230 93.738462 28.396636 93.784615 28.393810 93.830769 28.390753 93.876923 28.387463 93.923077 28.383939 93.969231 28.380179 94.015385 28.376184 94.061538 28.371951 94.107692 28.367479 94.153846 28.362769 94.200000 28.357817 94.246154 28.352624 94.292308 28.347187 94.338462 28.341507 94.384615 28.335582 94.430769 28.329411 94.476923 28.322995 94.523077 28.316335 94.569231 28.309432 94.615385 28.302286 94.661538 28.294900 94.707692 28.287273 94.753846 28.279406 94.800000 28.271302 94.846154 28.262960 94.892308 28.254382 94.938462 28.245569 94.984615 28.236521 95.030769 28.227240 95.076923 28.217727 95.123077 28.207982 95.169231 28.198007 95.215385 28.187803 95.261538 28.177370 95.307692 28.166710 95.353846 28.155823 95.400000 28.144711 95.446154 28.133375 95.492308 28.121815 95.538462 28.110032 95.584615 28.098028 95.630769 28.085803 95.676923 28.073359 95.723077 28.060696 95.769231 28.047816 95.815385 28.034719 95.861538 28.021407 95.907692 28.007880 95.953846 27.994139 96.000000 27.980185 96.046154 27.966020 96.092308 27.951645 96.138462 27.937059 96.184615 27.922265 96.230769 27.907263 96.276923 27.892054 96.323077 27.876640 96.369231 27.861021 96.415385 27.845198 96.461538 27.829172 96.507692 27.812944 96.553846 27.796516 96.600000 27.779887 96.646154 27.763060 96.692308 27.746035 96.738462 27.728813 96.784615 27.711395 96.830769 27.693782 96.876923 27.675976 96.923077 27.657976 96.969231 27.639784 97.015385 27.621401 97.061538 27.602829 97.107692 27.584067 97.153846 27.565117 97.200000 27.545980 97.246154 27.526657 97.292308 27.507149 97.338462 27.487457 97.384615 27.467582 97.430769 27.447525 97.476923 27.427286 97.523077 27.406867 97.569231 27.386270 97.615385 27.365494 97.661538 27.344540 97.707692 27.323411 97.753846 27.302106 97.800000 27.280627 97.846154 27.258975 97.892308 27.237150 97.938462 27.215154 97.984615 27.192988 98.030769 27.170653 98.076923 27.148149 98.123077 27.125477 98.169231 27.102640 98.215385 27.079637 98.261538 27.056469 98.307692 27.033139 98.353846 27.009645 98.400000 26.985990 98.446154 26.962175 98.492308 26.938201 98.538462 26.914067 98.584615 26.889777 98.630769 26.865329 98.676923 26.840726 98.723077 26.815969 98.769231 26.791058 98.815385 26.765994 98.861538 26.740779 98.907692 26.715413 98.953846 26.689898 99.000000 26.664234 99.046154 26.638422 99.092308 26.612463 99.138462 26.586359 99.184615 26.560110 99.230769 26.533718 99.276923 26.507182 99.323077 26.480505 99.369231 26.453687 99.415385 26.426729 99.461538 26.399633 99.507692 26.372398 99.553846 26.345027 99.600000 26.317520 99.646154 26.289878 99.692308 26.262102 99.738462 26.234193 99.784615 26.206152 99.830769 26.177980 99.876923 26.149679 99.923077 26.121248 99.969231 26.092690 100.015385 26.064004 100.061538 26.035192 100.107692 26.006256 100.153846 25.977195 100.200000 25.948011 100.246154 25.918705 100.292308 25.889278 100.338462 25.859731 100.384615 25.830065 100.430769 25.800281 100.476923 25.770379 100.523077 25.740362 100.569231 25.710229 100.615385 25.679982 100.661538 25.649622 100.707692 25.619149 100.753846 25.588566 100.800000 25.557872 100.846154 25.527068 100.892308 25.496157 100.938462 25.465138 100.984615 25.434013 101.030769 25.402782 101.076923 25.371447 101.123077 25.340009 101.169231 25.308468 101.215385 25.276826 101.261538 25.245084 101.307692 25.213242 101.353846 25.181301 101.400000 25.149263 101.446154 25.117129 101.492308 25.084899 101.538462 25.052575 101.584615 25.020157 101.630769 24.987647 101.676923 24.955045 101.723077 24.922352 101.769231 24.889570 101.815385 24.856699 101.861538 24.823741 101.907692 24.790696 101.953846 24.757565 102.000000 24.724350 102.046154 24.691051 102.092308 24.657669 102.138462 24.624206 102.184615 24.590662 102.230769 24.557038 102.276923 24.523335 102.323077 24.489555 102.369231 24.455697 102.415385 24.421764 102.461538 24.387756 102.507692 24.353675 102.553846 24.319520 102.600000 24.285294 102.646154 24.250997 102.692308 24.216629 102.738462 24.182193 102.784615 24.147689 102.830769 24.113118 102.876923 24.078481 102.923077 24.043779 102.969231 24.009013 103.015385 23.974184 103.061538 23.939293 103.107692 23.904341 103.153846 23.869329 103.200000 23.834258 103.246154 23.799129 103.292308 23.763943 103.338462 23.728700 103.384615 23.693403 103.430769 23.658051 103.476923 23.622646 103.523077 23.587189 103.569231 23.551681 103.615385 23.516122 103.661538 23.480515 103.707692 23.444859 103.753846 23.409156 103.800000 23.373406 103.846154 23.337611 103.892308 23.301772 103.938462 23.265890 103.984615 23.229965 104.030769 23.193999 104.076923 23.157993 104.123077 23.121947 104.169231 23.085863 104.215385 23.049741 104.261538 23.013583 104.307692 22.977390 104.353846 22.941162 104.400000 22.904901 104.446154 22.868607 104.492308 22.832281 104.538462 22.795925 104.584615 22.759540 104.630769 22.723126 104.676923 22.686684 104.723077 22.650216 104.769231 22.613723 104.815385 22.577204 104.861538 22.540662 104.907692 22.504098 104.953846 22.467511 105.000000 22.430904 105.046154 22.394278 105.092308 22.357632 105.138462 22.320969 105.184615 22.284289 105.230769 22.247594 105.276923 22.210884 105.323077 22.174159 105.369231 22.137423 105.415385 22.100674 105.461538 22.063914 105.507692 22.027145 105.553846 21.990367 105.600000 21.953580 105.646154 21.916787 105.692308 21.879989 105.738462 21.843185 105.784615 21.806377 105.830769 21.769566 105.876923 21.732753 105.923077 21.695940" class="line reactive nofill" /></g></g><g class="titles" /><g transform="translate(82, 10)" class="plot overlay"><g class="series serie-0 color-0" /></g><g transform="translate(82, 10)" class="plot text-overlay"><g class="series serie-0 color-0" /></g><g transform="translate(82, 10)" class="plot tooltip-overlay"><g transform="translate(0 0)" style="opacity: 0" class="tooltip"><rect rx="0" ry="0" width="0" height="0" class="tooltip-box" /><g class="text" /></g></g></g></svg>