<?xml version='1.0' encoding='utf-8'?>
<svg xmlns="http://www.w3.org/2000/svg" id="chart-409bb201-4082-4b12-af24-daf95584d86d" class="pygal-chart pygal-sparkline" viewBox="0 0 200 50" width="200" height="50"><!--Generated with pygal 3.0.5 (etree) ©Kozea 2012-2016 on 2025-03-02--><!--http://pygal.org--><!--http://github.com/Kozea/pygal--><defs><style type="text/css">#chart-409bb201-4082-4b12-af24-daf95584d86d{-webkit-user-select:none;-webkit-font-smoothing:antialiased;font-family:Consolas,"Liberation Mono",Menlo,Courier,monospace}#chart-409bb201-4082-4b12-af24-daf95584d86d .title{font-family:Consolas,"Liberation Mono",Menlo,Courier,monospace;font-size:16px}#chart-409bb201-4082-4b12-af24-daf95584d86d .legends .legend text{font-family:Consolas,"Liberation Mono",Menlo,Courier,monospace;font-size:14px}#chart-409bb201-4082-4b12-af24-daf95584d86d .axis text{font-family:Consolas,"Liberation Mono",Menlo,Courier,monospace;font-size:10px}#chart-409bb201-4082-4b12-af24-daf95584d86d .axis text.major{font-family:Consolas,"Liberation Mono",Menlo,Courier,monospace;font-size:10px}#chart-409bb201-4082-4b12-af24-daf95584d86d .text-overlay text.value{font-family:Consolas,"Liberation Mono",Menlo,Courier,monospace;font-size:16px}#chart-409bb201-4082-4b12-af24-daf95584d86d .text-overlay text.label{font-family:Consolas,"Liberation Mono",Menlo,Courier,monospace;font-size:10px}#chart-409bb201-4082-4b12-af24-daf95584d86d .tooltip{font-family:Consolas,"Liberation Mono",Menlo,Courier,monospace;font-size:14px}#chart-409bb201-4082-4b12-af24-daf95584d86d text.no_data{font-family:Consolas,"Liberation Mono",Menlo,Courier,monospace;font-size:64px}
#chart-409bb201-4082-4b12-af24-daf95584d86d{background-color:rgba(249,249,249,1)}#chart-409bb201-4082-4b12-af24-daf95584d86d path,#chart-409bb201-4082-4b12-af24-daf95584d86d line,#chart-409bb201-4082-4b12-af24-daf95584d86d rect,#chart-409bb201-4082-4b12-af24-daf95584d86d circle{-webkit-transition:150ms;-moz-transition:150ms;transition:150ms}#chart-409bb201-4082-4b12-af24-daf95584d86d .graph &gt; .background{fill:rgba(249,249,249,1)}#chart-409bb201-4082-4b12-af24-daf95584d86d .plot &gt; .background{fill:rgba(255,255,255,1)}#chart-409bb201-4082-4b12-af24-daf95584d86d .graph{fill:rgba(0,0,0,.87)}#chart-409bb201-4082-4b12-af24-daf95584d86d text.no_data{fill:rgba(0,0,0,1)}#chart-409bb201-4082-4b12-af24-daf95584d86d .title{fill:rgba(0,0,0,1)}#chart-409bb201-4082-4b12-af24-daf95584d86d .legends .legend text{fill:rgba(0,0,0,.87)}#chart-409bb201-4082-4b12-af24-daf95584d86d .legends .legend:hover text{fill:rgba(0,0,0,1)}#chart-409bb201-4082-4b12-af24-daf95584d86d .axis .line{stroke:rgba(0,0,0,1)}#chart-409bb201-4082-4b12-af24-daf95584d86d .axis .guide.line{stroke:rgba(0,0,0,.54)}#chart-409bb201-4082-4b12-af24-daf95584d86d .axis .major.line{stroke:rgba(0,0,0,.87)}#chart-409bb201-4082-4b12-af24-daf95584d86d .axis text.major{fill:rgba(0,0,0,1)}#chart-409bb201-4082-4b12-af24-daf95584d86d .axis.y .guides:hover .guide.line,#chart-409bb201-4082-4b12-af24-daf95584d86d .line-graph .axis.x .guides:hover .guide.line,#chart-409bb201-4082-4b12-af24-daf95584d86d .stackedline-graph .axis.x .guides:hover .guide.line,#chart-409bb201-4082-4b12-af24-daf95584d86d .xy-graph .axis.x .guides:hover .guide.line{stroke:rgba(0,0,0,1)}#chart-409bb201-4082-4b12-af24-daf95584d86d .axis .guides:hover text{fill:rgba(0,0,0,1)}#chart-409bb201-4082-4b12-af24-daf95584d86d .reactive{fill-opacity:.7;stroke-opacity:.8;stroke-width:1}#chart-409bb201-4082-4b12-af24-daf95584d86d .ci{stroke:rgba(0,0,0,.87)}#chart-409bb201-4082-4b12-af24-daf95584d86d .reactive.active,#chart-409bb201-4082-4b12-af24-daf95584d86d .active .reactive{fill-opacity:.8;stroke-opacity:.9;stroke-width:4}#chart-409bb201-4082-4b12-af24-daf95584d86d .ci .reactive.active{stroke-width:1.5}#chart-409bb201-4082-4b12-af24-daf95584d86d .series text{fill:rgba(0,0,0,1)}#chart-409bb201-4082-4b12-af24-daf95584d86d .tooltip rect{fill:rgba(255,255,255,1);stroke:rgba(0,0,0,1);-webkit-transition:opacity 150ms;-moz-transition:opacity 150ms;transition:opacity 150ms}#chart-409bb201-4082-4b12-af24-daf95584d86d .tooltip .label{fill:rgba(0,0,0,.87)}#chart-409bb201-4082-4b12-af24-daf95584d86d .tooltip .label{fill:rgba(0,0,0,.87)}#chart-409bb201-4082-4b12-af24-daf95584d86d .tooltip .legend{font-size:.8em;fill:rgba(0,0,0,.54)}#chart-409bb201-4082-4b12-af24-daf95584d86d .tooltip .x_label{font-size:.6em;fill:rgba(0,0,0,1)}#chart-409bb201-4082-4b12-af24-daf95584d86d .tooltip .xlink{font-size:.5em;text-decoration:underline}#chart-409bb201-4082-4b12-af24-daf95584d86d .tooltip .value{font-size:1.5em}#chart-409bb201-4082-4b12-af24-daf95584d86d .bound{font-size:.5em}#chart-409bb201-4082-4b12-af24-daf95584d86d .max-value{font-size:.75em;fill:rgba(0,0,0,.54)}#chart-409bb201-4082-4b12-af24-daf95584d86d .map-element{fill:rgba(255,255,255,1);stroke:rgba(0,0,0,.54) !important}#chart-409bb201-4082-4b12-af24-daf95584d86d .map-element .reactive{fill-opacity:inherit;stroke-opacity:inherit}#chart-409bb201-4082-4b12-af24-daf95584d86d .color-0,#chart-409bb201-4082-4b12-af24-daf95584d86d .color-0 a:visited{stroke:#F44336;fill:#F44336}#chart-409bb201-4082-4b12-af24-daf95584d86d .text-overlay .color-0 text{fill:black}
#chart-409bb201-4082-4b12-af24-daf95584d86d text.no_data{text-anchor:middle}#chart-409bb201-4082-4b12-af24-daf95584d86d .guide.line{fill:none}#chart-409bb201-4082-4b12-af24-daf95584d86d .centered{text-anchor:middle}#chart-409bb201-4082-4b12-af24-daf95584d86d .title{text-anchor:middle}#chart-409bb201-4082-4b12-af24-daf95584d86d .legends .legend text{fill-opacity:1}#chart-409bb201-4082-4b12-af24-daf95584d86d .axis.x text{text-anchor:middle}#chart-409bb201-4082-4b12-af24-daf95584d86d .axis.x:not(.web) text[transform]{text-anchor:start}#chart-409bb201-4082-4b12-af24-daf95584d86d .axis.x:not(.web) text[transform].backwards{text-anchor:end}#chart-409bb201-4082-4b12-af24-daf95584d86d .axis.y text{text-anchor:end}#chart-409bb201-4082-4b12-af24-daf95584d86d .axis.y text[transform].backwards{text-anchor:start}#chart-409bb201-4082-4b12-af24-daf95584d86d .axis.y2 text{text-anchor:start}#chart-409bb201-4082-4b12-af24-daf95584d86d .axis.y2 text[transform].backwards{text-anchor:end}#chart-409bb201-4082-4b12-af24-daf95584d86d .axis .guide.line{stroke-dasharray:4,4;stroke:black}#chart-409bb201-4082-4b12-af24-daf95584d86d .axis .major.guide.line{stroke-dasharray:6,6;stroke:black}#chart-409bb201-4082-4b12-af24-daf95584d86d .horizontal .axis.y .guide.line,#chart-409bb201-4082-4b12-af24-daf95584d86d .horizontal .axis.y2 .guide.line,#chart-409bb201-4082-4b12-af24-daf95584d86d .vertical .axis.x .guide.line{opacity:0}#chart-409bb201-4082-4b12-af24-daf95584d86d .horizontal .axis.always_show .guide.line,#chart-409bb201-4082-4b12-af24-daf95584d86d .vertical .axis.always_show .guide.line{opacity:1 !important}#chart-409bb201-4082-4b12-af24-daf95584d86d .axis.y .guides:hover .guide.line,#chart-409bb201-4082-4b12-af24-daf95584d86d .axis.y2 .guides:hover .guide.line,#chart-409bb201-4082-4b12-af24-daf95584d86d .axis.x .guides:hover .guide.line{opacity:1}#chart-409bb201-4082-4b12-af24-daf95584d86d .axis .guides:hover text{opacity:1}#chart-409bb201-4082-4b12-af24-daf95584d86d .nofill{fill:none}#chart-409bb201-4082-4b12-af24-daf95584d86d .subtle-fill{fill-opacity:.2}#chart-409bb201-4082-4b12-af24-daf95584d86d .dot{stroke-width:1px;fill-opacity:1;stroke-opacity:1}#chart-409bb201-4082-4b12-af24-daf95584d86d .dot.active{stroke-width:5px}#chart-409bb201-4082-4b12-af24-daf95584d86d .dot.negative{fill:transparent}#chart-409bb201-4082-4b12-af24-daf95584d86d text,#chart-409bb201-4082-4b12-af24-daf95584d86d tspan{stroke:none !important}#chart-409bb201-4082-4b12-af24-daf95584d86d .series text.active{opacity:1}#chart-409bb201-4082-4b12-af24-daf95584d86d .tooltip rect{fill-opacity:.95;stroke-width:.5}#chart-409bb201-4082-4b12-af24-daf95584d86d .tooltip text{fill-opacity:1}#chart-409bb201-4082-4b12-af24-daf95584d86d .showable{visibility:hidden}#chart-409bb201-4082-4b12-af24-daf95584d86d .showable.shown{visibility:visible}#chart-409bb201-4082-4b12-af24-daf95584d86d .gauge-background{fill:rgba(229,229,229,1);stroke:none}#chart-409bb201-4082-4b12-af24-daf95584d86d .bg-lines{stroke:rgba(249,249,249,1);stroke-width:2px}</style><script type="text/javascript">window.pygal = window.pygal || {};window.pygal.config = window.pygal.config || {};window.pygal.config['409bb201-4082-4b12-af24-daf95584d86d'] = {"allow_interruptions": false, "box_mode": "extremes", "classes": ["pygal-chart", "pygal-sparkline"], "css": ["file://style.css", "file://graph.css"], "defs": [], "disable_xml_declaration": false, "dots_size": 2.5, "dynamic_print_values": false, "explicit_size": true, "fill": false, "force_uri_protocol": "https", "formatter": null, "half_pie": false, "height": 50, "include_x_axis": false, "inner_radius": 0, "interpolate": "cubic", "interpolation_parameters": {}, "interpolation_precision": 250, "inverse_y_axis": false, "js": [], "legend_at_bottom": false, "legend_at_bottom_columns": null, "legend_box_size": 12, "logarithmic": false, "margin": 10, "margin_bottom": null, "margin_left": null, "margin_right": null, "margin_top": null, "max_scale": 2, "min_scale": 1, "missing_value_fill_truncation": "x", "no_data_text": "", "no_prefix": false, "order_min": null, "pretty_print": false, "print_labels": false, "print_values": false, "print_values_position": "center", "print_zeroes": true, "range": null, "rounded_bars": null, "secondary_range": null, "show_dots": false, "show_legend": false, "show_minor_x_labels": true, "show_minor_y_labels": true, "show_only_major_dots": false, "show_x_guides": false, "show_x_labels": false, "show_y_guides": true, "show_y_labels": true, "spacing": 0, "stack_from_top": false, "strict": false, "stroke": true, "stroke_style": null, "style": {"background": "rgba(249, 249, 249, 1)", "ci_colors": [], "colors": ["#F44336", "#3F51B5", "#009688", "#FFC107", "#FF5722", "#9C27B0", "#03A9F4", "#8BC34A", "#FF9800", "#E91E63", "#2196F3", "#4CAF50", "#FFEB3B", "#673AB7", "#00BCD4", "#CDDC39", "#9E9E9E", "#607D8B"], "dot_opacity": "1", "font_family": "Consolas, \"Liberation Mono\", Menlo, Courier, monospace", "foreground": "rgba(0, 0, 0, .87)", "foreground_strong": "rgba(0, 0, 0, 1)", "foreground_subtle": "rgba(0, 0, 0, .54)", "guide_stroke_color": "black", "guide_stroke_dasharray": "4,4", "label_font_family": "Consolas, \"Liberation Mono\", Menlo, Courier, monospace", "label_font_size": 10, "legend_font_family": "Consolas, \"Liberation Mono\", Menlo, Courier, monospace", "legend_font_size": 14, "major_guide_stroke_color": "black", "major_guide_stroke_dasharray": "6,6", "major_label_font_family": "Consolas, \"Liberation Mono\", Menlo, Courier, monospace", "major_label_font_size": 10, "no_data_font_family": "Consolas, \"Liberation Mono\", Menlo, Courier, monospace", "no_data_font_size": 64, "opacity": ".7", "opacity_hover": ".8", "plot_background": "rgba(255, 255, 255, 1)", "stroke_opacity": ".8", "stroke_opacity_hover": ".9", "stroke_width": "1", "stroke_width_hover": "4", "title_font_family": "Consolas, \"Liberation Mono\", Menlo, Courier, monospace", "title_font_size": 16, "tooltip_font_family": "Consolas, \"Liberation Mono\", Menlo, Courier, monospace", "tooltip_font_size": 14, "transition": "150ms", "value_background": "rgba(229, 229, 229, 1)", "value_colors": [], "value_font_family": "Consolas, \"Liberation Mono\", Menlo, Courier, monospace", "value_font_size": 16, "value_label_font_family": "Consolas, \"Liberation Mono\", Menlo, Courier, monospace", "value_label_font_size": 10}, "title": null, "tooltip_border_radius": 0, "tooltip_fancy_mode": true, "truncate_label": null, "truncate_legend": null, "width": 200, "x_label_rotation": 0, "x_labels": ["2025/2", "2025/1", "2024/12", "2023/12", "2023/11", "2023/5", "2023/4"], "x_labels_major": null, "x_labels_major_count": null, "x_labels_major_every": null, "x_title": null, "xrange": null, "y_label_rotation": 0, "y_labels": null, "y_labels_major": null, "y_labels_major_count": null, "y_labels_major_every": null, "y_title": null, "zero": 0, "legends": [""]}</script></defs><title>Pygal</title><g class="graph line-graph vertical"><rect x="0" y="0" width="200" height="50" class="background" /><g transform="translate(76, 10)" class="plot"><rect x="0" y="0" width="114.0" height="30" class="background" /><g class="axis y always_show"><path d="M0.000000 30.000000 h114.000000" class="line" /><g class="guides"><path d="M0.000000 29.423077 h114.000000" class="guide line" /><text x="-5" y="32.92307692307692" class="">0.986333696</text><title>0.986333696</title></g><g class="guides"><path d="M0.000000 0.576923 h114.000000" class="guide line" /><text x="-5" y="4.076923076923073" class="">11.10025025</text><title>11.10025025</title></g></g><g class="series serie-0 color-0"><path d="M2.192308 20.827724 L2.265385 20.876502 2.338462 20.925279 2.411538 20.974054 2.484615 21.022824 2.557692 21.071588 2.630769 21.120346 2.703846 21.169095 2.776923 21.217834 2.850000 21.266562 2.923077 21.315278 2.996154 21.363979 3.069231 21.412665 3.142308 21.461335 3.215385 21.509986 3.288462 21.558618 3.361538 21.607229 3.434615 21.655817 3.507692 21.704382 3.580769 21.752921 3.653846 21.801434 3.726923 21.849919 3.800000 21.898375 3.873077 21.946800 3.946154 21.995193 4.019231 22.043552 4.092308 22.091876 4.165385 22.140164 4.238462 22.188415 4.311538 22.236626 4.384615 22.284797 4.457692 22.332925 4.530769 22.381011 4.603846 22.429052 4.676923 22.477046 4.750000 22.524993 4.823077 22.572892 4.896154 22.620740 4.969231 22.668536 5.042308 22.716279 5.115385 22.763968 5.188462 22.811600 5.261538 22.859176 5.334615 22.906693 5.407692 22.954150 5.480769 23.001545 5.553846 23.048877 5.626923 23.096145 5.700000 23.143348 5.773077 23.190483 5.846154 23.237550 5.919231 23.284547 5.992308 23.331473 6.065385 23.378326 6.138462 23.425106 6.211538 23.471809 6.284615 23.518436 6.357692 23.564985 6.430769 23.611454 6.503846 23.657842 6.576923 23.704147 6.650000 23.750369 6.723077 23.796506 6.796154 23.842555 6.869231 23.888517 6.942308 23.934390 7.015385 23.980171 7.088462 24.025861 7.161538 24.071457 7.234615 24.116957 7.307692 24.162362 7.380769 24.207668 7.453846 24.252876 7.526923 24.297983 7.600000 24.342988 7.673077 24.387889 7.746154 24.432686 7.819231 24.477376 7.892308 24.521959 7.965385 24.566433 8.038462 24.610797 8.111538 24.655048 8.184615 24.699187 8.257692 24.743211 8.330769 24.787119 8.403846 24.830910 8.476923 24.874582 8.550000 24.918134 8.623077 24.961564 8.696154 25.004872 8.769231 25.048055 8.842308 25.091112 8.915385 25.134042 8.988462 25.176844 9.061538 25.219515 9.134615 25.262056 9.207692 25.304463 9.280769 25.346737 9.353846 25.388875 9.426923 25.430876 9.500000 25.472739 9.573077 25.514462 9.646154 25.556044 9.719231 25.597483 9.792308 25.638779 9.865385 25.679929 9.938462 25.720932 10.011538 25.761788 10.084615 25.802494 10.157692 25.843049 10.230769 25.883452 10.303846 25.923701 10.376923 25.963795 10.450000 26.003732 10.523077 26.043512 10.596154 26.083132 10.669231 26.122592 10.742308 26.161890 10.815385 26.201024 10.888462 26.239993 10.961538 26.278797 11.034615 26.317432 11.107692 26.355898 11.180769 26.394194 11.253846 26.432318 11.326923 26.470269 11.400000 26.508046 11.473077 26.545646 11.546154 26.583069 11.619231 26.620312 11.692308 26.657376 11.765385 26.694258 11.838462 26.730957 11.911538 26.767472 11.984615 26.803801 12.057692 26.839942 12.130769 26.875895 12.203846 26.911658 12.276923 26.947230 12.350000 26.982609 12.423077 27.017794 12.496154 27.052783 12.569231 27.087575 12.642308 27.122168 12.715385 27.156562 12.788462 27.190755 12.861538 27.224745 12.934615 27.258531 13.007692 27.292112 13.080769 27.325486 13.153846 27.358651 13.226923 27.391608 13.300000 27.424353 13.373077 27.456886 13.446154 27.489205 13.519231 27.521309 13.592308 27.553196 13.665385 27.584866 13.738462 27.616316 13.811538 27.647545 13.884615 27.678553 13.957692 27.709336 14.030769 27.739895 14.103846 27.770228 14.176923 27.800333 14.250000 27.830208 14.323077 27.859853 14.396154 27.889266 14.469231 27.918446 14.542308 27.947391 14.615385 27.976100 14.688462 28.004572 14.761538 28.032805 14.834615 28.060797 14.907692 28.088548 14.980769 28.116055 15.053846 28.143318 15.126923 28.170335 15.200000 28.197105 15.273077 28.223626 15.346154 28.249897 15.419231 28.275917 15.492308 28.301684 15.565385 28.327196 15.638462 28.352453 15.711538 28.377453 15.784615 28.402194 15.857692 28.426675 15.930769 28.450896 16.003846 28.474853 16.076923 28.498547 16.150000 28.521975 16.223077 28.545136 16.296154 28.568029 16.369231 28.590652 16.442308 28.613004 16.515385 28.635084 16.588462 28.656890 16.661538 28.678421 16.734615 28.699675 16.807692 28.720651 16.880769 28.741347 16.953846 28.761763 17.026923 28.781897 17.100000 28.801747 17.173077 28.821312 17.246154 28.840591 17.319231 28.859581 17.392308 28.878283 17.465385 28.896694 17.538462 28.914813 17.611538 28.932639 17.684615 28.950169 17.757692 28.967404 17.830769 28.984341 17.903846 29.000979 17.976923 29.017317 18.050000 29.033353 18.123077 29.049085 18.196154 29.064514 18.269231 29.079636 18.342308 29.094451 18.415385 29.108957 18.488462 29.123153 18.561538 29.137037 18.634615 29.150609 18.707692 29.163866 18.780769 29.176807 18.853846 29.189431 18.926923 29.201737 19.000000 29.213723 19.073077 29.225387 19.146154 29.236729 19.219231 29.247746 19.292308 29.258438 19.365385 29.268803 19.438462 29.278840 19.511538 29.288547 19.584615 29.297923 19.657692 29.306966 19.730769 29.315676 19.803846 29.324050 19.876923 29.332088 19.950000 29.339787 20.023077 29.347147 20.096154 29.354166 20.169231 29.360843 20.242308 29.367176 20.315385 29.373164 20.388462 29.378805 20.461538 29.384099 20.534615 29.389044 20.607692 29.393642 20.680769 29.397896 20.753846 29.401809 20.826923 29.405383 20.900000 29.408621 20.973077 29.411525 21.046154 29.414098 21.119231 29.416343 21.192308 29.418261 21.265385 29.419857 21.338462 29.421132 21.411538 29.422088 21.484615 29.422730 21.557692 29.423059 21.630769 29.423077 21.703846 29.422788 21.776923 29.422194 21.850000 29.421297 21.923077 29.420101 21.996154 29.418607 22.069231 29.416819 22.142308 29.414739 22.215385 29.412369 22.288462 29.409713 22.361538 29.406773 22.434615 29.403551 22.507692 29.400050 22.580769 29.396273 22.653846 29.392222 22.726923 29.387900 22.800000 29.383309 22.873077 29.378452 22.946154 29.373333 23.019231 29.367952 23.092308 29.362313 23.165385 29.356419 23.238462 29.350272 23.311538 29.343874 23.384615 29.337229 23.457692 29.330339 23.530769 29.323206 23.603846 29.315834 23.676923 29.308224 23.750000 29.300379 23.823077 29.292303 23.896154 29.283997 23.969231 29.275464 24.042308 29.266707 24.115385 29.257728 24.188462 29.248530 24.261538 29.239116 24.334615 29.229488 24.407692 29.219648 24.480769 29.209600 24.553846 29.199346 24.626923 29.188889 24.700000 29.178231 24.773077 29.167374 24.846154 29.156322 24.919231 29.145077 24.992308 29.133642 25.065385 29.122018 25.138462 29.110210 25.211538 29.098219 25.284615 29.086048 25.357692 29.073700 25.430769 29.061177 25.503846 29.048481 25.576923 29.035617 25.650000 29.022585 25.723077 29.009389 25.796154 28.996031 25.869231 28.982514 25.942308 28.968840 26.015385 28.955013 26.088462 28.941034 26.161538 28.926907 26.234615 28.912633 26.307692 28.898216 26.380769 28.883658 26.453846 28.868962 26.526923 28.854130 26.600000 28.839165 26.673077 28.824069 26.746154 28.808846 26.819231 28.793497 26.892308 28.778026 26.965385 28.762434 27.038462 28.746725 27.111538 28.730902 27.184615 28.714966 27.257692 28.698920 27.330769 28.682767 27.403846 28.666510 27.476923 28.650151 27.550000 28.633693 27.623077 28.617138 27.696154 28.600489 27.769231 28.583749 27.842308 28.566920 27.915385 28.550004 27.988462 28.533005 28.061538 28.515926 28.134615 28.498767 28.207692 28.481533 28.280769 28.464226 28.353846 28.446848 28.426923 28.429402 28.500000 28.411891 28.573077 28.394317 28.646154 28.376683 28.719231 28.358991 28.792308 28.341245 28.865385 28.323446 28.938462 28.305597 29.011538 28.287701 29.084615 28.269761 29.157692 28.251779 29.230769 28.233757 29.303846 28.215699 29.376923 28.197606 29.450000 28.179482 29.523077 28.161329 29.596154 28.143150 29.669231 28.124947 29.742308 28.106724 29.815385 28.088481 29.888462 28.070223 29.961538 28.051951 30.034615 28.033669 30.107692 28.015379 30.180769 27.997083 30.253846 27.978784 30.326923 27.960485 30.400000 27.942189 30.473077 27.923897 30.546154 27.905613 30.619231 27.887339 30.692308 27.869078 30.765385 27.850833 30.838462 27.832605 30.911538 27.814398 30.984615 27.796214 31.057692 27.778056 31.130769 27.759926 31.203846 27.741827 31.276923 27.723762 31.350000 27.705733 31.423077 27.687743 31.496154 27.669794 31.569231 27.651889 31.642308 27.634031 31.715385 27.616223 31.788462 27.598466 31.861538 27.580763 31.934615 27.563118 32.007692 27.545532 32.080769 27.528008 32.153846 27.510549 32.226923 27.493158 32.300000 27.475837 32.373077 27.458589 32.446154 27.441415 32.519231 27.424320 32.592308 27.407305 32.665385 27.390373 32.738462 27.373527 32.811538 27.356770 32.884615 27.340103 32.957692 27.323530 33.030769 27.307052 33.103846 27.290674 33.176923 27.274397 33.250000 27.258224 33.323077 27.242157 33.396154 27.226200 33.469231 27.210354 33.542308 27.194622 33.615385 27.179008 33.688462 27.163513 33.761538 27.148140 33.834615 27.132892 33.907692 27.117772 33.980769 27.102781 34.053846 27.087923 34.126923 27.073200 34.200000 27.058615 34.273077 27.044171 34.346154 27.029869 34.419231 27.015713 34.492308 27.001705 34.565385 26.987848 34.638462 26.974145 34.711538 26.960597 34.784615 26.947208 34.857692 26.933980 34.930769 26.920917 35.003846 26.908019 35.076923 26.895291 35.150000 26.882734 35.223077 26.870352 35.296154 26.858146 35.369231 26.846120 35.442308 26.834276 35.515385 26.822617 35.588462 26.811145 35.661538 26.799862 35.734615 26.788773 35.807692 26.777878 35.880769 26.767181 35.953846 26.756685 36.026923 26.746391 36.100000 26.736303 36.173077 26.726423 36.246154 26.716753 36.319231 26.707297 36.392308 26.698057 36.465385 26.689036 36.538462 26.680235 36.611538 26.671659 36.684615 26.663308 36.757692 26.655187 36.830769 26.647297 36.903846 26.639642 36.976923 26.632223 37.050000 26.625043 37.123077 26.618106 37.196154 26.611413 37.269231 26.604967 37.342308 26.598771 37.415385 26.592828 37.488462 26.587139 37.561538 26.581708 37.634615 26.576538 37.707692 26.571630 37.780769 26.566987 37.853846 26.562613 37.926923 26.558509 38.000000 26.554679 38.073077 26.551124 38.146154 26.547848 38.219231 26.544852 38.292308 26.542141 38.365385 26.539716 38.438462 26.537579 38.511538 26.535734 38.584615 26.534183 38.657692 26.532929 38.730769 26.531974 38.803846 26.531320 38.876923 26.530963 38.950000 26.530898 39.023077 26.531122 39.096154 26.531629 39.169231 26.532414 39.242308 26.533474 39.315385 26.534803 39.388462 26.536397 39.461538 26.538250 39.534615 26.540360 39.607692 26.542720 39.680769 26.545326 39.753846 26.548174 39.826923 26.551259 39.900000 26.554576 39.973077 26.558121 40.046154 26.561889 40.119231 26.565875 40.192308 26.570075 40.265385 26.574484 40.338462 26.579097 40.411538 26.583910 40.484615 26.588919 40.557692 26.594117 40.630769 26.599502 40.703846 26.605068 40.776923 26.610810 40.850000 26.616725 40.923077 26.622807 40.996154 26.629051 41.069231 26.635454 41.142308 26.642009 41.215385 26.648714 41.288462 26.655563 41.361538 26.662551 41.434615 26.669674 41.507692 26.676927 41.580769 26.684306 41.653846 26.691805 41.726923 26.699421 41.800000 26.707149 41.873077 26.714983 41.946154 26.722920 42.019231 26.730954 42.092308 26.739082 42.165385 26.747298 42.238462 26.755598 42.311538 26.763977 42.384615 26.772430 42.457692 26.780953 42.530769 26.789542 42.603846 26.798191 42.676923 26.806896 42.750000 26.815652 42.823077 26.824455 42.896154 26.833300 42.969231 26.842182 43.042308 26.851097 43.115385 26.860040 43.188462 26.869007 43.261538 26.877992 43.334615 26.886992 43.407692 26.896001 43.480769 26.905015 43.553846 26.914029 43.626923 26.923039 43.700000 26.932040 43.773077 26.941027 43.846154 26.949995 43.919231 26.958941 43.992308 26.967859 44.065385 26.976745 44.138462 26.985595 44.211538 26.994402 44.284615 27.003164 44.357692 27.011874 44.430769 27.020529 44.503846 27.029124 44.576923 27.037655 44.650000 27.046116 44.723077 27.054503 44.796154 27.062811 44.869231 27.071036 44.942308 27.079173 45.015385 27.087218 45.088462 27.095165 45.161538 27.103011 45.234615 27.110750 45.307692 27.118378 45.380769 27.125890 45.453846 27.133282 45.526923 27.140548 45.600000 27.147685 45.673077 27.154688 45.746154 27.161552 45.819231 27.168272 45.892308 27.174844 45.965385 27.181263 46.038462 27.187524 46.111538 27.193623 46.184615 27.199556 46.257692 27.205316 46.330769 27.210901 46.403846 27.216305 46.476923 27.221524 46.550000 27.226553 46.623077 27.231387 46.696154 27.236022 46.769231 27.240452 46.842308 27.244675 46.915385 27.248684 46.988462 27.252475 47.061538 27.256043 47.134615 27.259385 47.207692 27.262494 47.280769 27.265368 47.353846 27.268000 47.426923 27.270386 47.500000 27.272522 47.573077 27.274404 47.646154 27.276025 47.719231 27.277382 47.792308 27.278471 47.865385 27.279286 47.938462 27.279822 48.011538 27.280076 48.084615 27.280042 48.157692 27.279716 48.230769 27.279094 48.303846 27.278170 48.376923 27.276940 48.450000 27.275399 48.523077 27.273543 48.596154 27.271367 48.669231 27.268867 48.742308 27.266037 48.815385 27.262873 48.888462 27.259371 48.961538 27.255526 49.034615 27.251332 49.107692 27.246787 49.180769 27.241884 49.253846 27.236620 49.326923 27.230989 49.400000 27.224987 49.473077 27.218610 49.546154 27.211852 49.619231 27.204709 49.692308 27.197177 49.765385 27.189251 49.838462 27.180926 49.911538 27.172197 49.984615 27.163060 50.057692 27.153510 50.130769 27.143543 50.203846 27.133154 50.276923 27.122338 50.350000 27.111091 50.423077 27.099408 50.496154 27.087284 50.569231 27.074715 50.642308 27.061697 50.715385 27.048223 50.788462 27.034291 50.861538 27.019894 50.934615 27.005029 51.007692 26.989691 51.080769 26.973876 51.153846 26.957578 51.226923 26.940793 51.300000 26.923516 51.373077 26.905743 51.446154 26.887469 51.519231 26.868689 51.592308 26.849399 51.665385 26.829595 51.738462 26.809271 51.811538 26.788422 51.884615 26.767045 51.957692 26.745135 52.030769 26.722686 52.103846 26.699695 52.176923 26.676156 52.250000 26.652066 52.323077 26.627418 52.396154 26.602210 52.469231 26.576435 52.542308 26.550090 52.615385 26.523170 52.688462 26.495670 52.761538 26.467586 52.834615 26.438912 52.907692 26.409645 52.980769 26.379779 53.053846 26.349310 53.126923 26.318234 53.200000 26.286545 53.273077 26.254239 53.346154 26.221312 53.419231 26.187758 53.492308 26.153574 53.565385 26.118754 53.638462 26.083294 53.711538 26.047189 53.784615 26.010434 53.857692 25.973026 53.930769 25.934959 54.003846 25.896228 54.076923 25.856829 54.150000 25.816758 54.223077 25.776010 54.296154 25.734579 54.369231 25.692462 54.442308 25.649654 54.515385 25.606150 54.588462 25.561946 54.661538 25.517036 54.734615 25.471417 54.807692 25.425083 54.880769 25.378030 54.953846 25.330253 55.026923 25.281748 55.100000 25.232510 55.173077 25.182535 55.246154 25.131817 55.319231 25.080353 55.392308 25.028136 55.465385 24.975164 55.538462 24.921431 55.611538 24.866932 55.684615 24.811663 55.757692 24.755620 55.830769 24.698797 55.903846 24.641190 55.976923 24.582795 56.050000 24.523606 56.123077 24.463619 56.196154 24.402830 56.269231 24.341233 56.342308 24.278825 56.415385 24.215600 56.488462 24.151554 56.561538 24.086682 56.634615 24.020979 56.707692 23.954442 56.780769 23.887065 56.853846 23.818843 56.926923 23.749773 57.000000 23.679849 57.073077 23.609069 57.146154 23.537439 57.219231 23.464967 57.292308 23.391662 57.365385 23.317531 57.438462 23.242584 57.511538 23.166828 57.584615 23.090273 57.657692 23.012925 57.730769 22.934793 57.803846 22.855886 57.876923 22.776212 57.950000 22.695780 58.023077 22.614597 58.096154 22.532671 58.169231 22.450012 58.242308 22.366627 58.315385 22.282525 58.388462 22.197714 58.461538 22.112202 58.534615 22.025997 58.607692 21.939109 58.680769 21.851544 58.753846 21.763312 58.826923 21.674421 58.900000 21.584879 58.973077 21.494694 59.046154 21.403875 59.119231 21.312429 59.192308 21.220366 59.265385 21.127693 59.338462 21.034419 59.411538 20.940552 59.484615 20.846101 59.557692 20.751073 59.630769 20.655476 59.703846 20.559321 59.776923 20.462613 59.850000 20.365363 59.923077 20.267577 59.996154 20.169265 60.069231 20.070435 60.142308 19.971094 60.215385 19.871252 60.288462 19.770917 60.361538 19.670096 60.434615 19.568798 60.507692 19.467032 60.580769 19.364805 60.653846 19.262127 60.726923 19.159005 60.800000 19.055447 60.873077 18.951462 60.946154 18.847059 61.019231 18.742245 61.092308 18.637028 61.165385 18.531418 61.238462 18.425422 61.311538 18.319049 61.384615 18.212306 61.457692 18.105203 61.530769 17.997747 61.603846 17.889947 61.676923 17.781811 61.750000 17.673348 61.823077 17.564565 61.896154 17.455471 61.969231 17.346075 62.042308 17.236384 62.115385 17.126407 62.188462 17.016151 62.261538 16.905627 62.334615 16.794841 62.407692 16.683802 62.480769 16.572518 62.553846 16.460998 62.626923 16.349250 62.700000 16.237282 62.773077 16.125102 62.846154 16.012719 62.919231 15.900141 62.992308 15.787377 63.065385 15.674434 63.138462 15.561321 63.211538 15.448046 63.284615 15.334618 63.357692 15.221045 63.430769 15.107334 63.503846 14.993495 63.576923 14.879536 63.650000 14.765464 63.723077 14.651289 63.796154 14.537019 63.869231 14.422661 63.942308 14.308224 64.015385 14.193717 64.088462 14.079147 64.161538 13.964524 64.234615 13.849854 64.307692 13.735147 64.380769 13.620412 64.453846 13.505655 64.526923 13.390886 64.600000 13.276112 64.673077 13.161342 64.746154 13.046585 64.819231 12.931849 64.892308 12.817141 64.965385 12.702471 65.038462 12.587846 65.111538 12.473274 65.184615 12.358765 65.257692 12.244326 65.330769 12.129966 65.403846 12.015693 65.476923 11.901515 65.550000 11.787441 65.623077 11.673478 65.696154 11.559635 65.769231 11.445921 65.842308 11.332344 65.915385 11.218912 65.988462 11.105632 66.061538 10.992515 66.134615 10.879567 66.207692 10.766797 66.280769 10.654214 66.353846 10.541826 66.426923 10.429640 66.500000 10.317666 66.573077 10.205912 66.646154 10.094385 66.719231 9.983095 66.792308 9.872049 66.865385 9.761256 66.938462 9.650724 67.011538 9.540461 67.084615 9.430476 67.157692 9.320777 67.230769 9.211372 67.303846 9.102269 67.376923 8.993478 67.450000 8.885005 67.523077 8.776860 67.596154 8.669051 67.669231 8.561585 67.742308 8.454472 67.815385 8.347720 67.888462 8.241336 67.961538 8.135329 68.034615 8.029708 68.107692 7.924480 68.180769 7.819655 68.253846 7.715240 68.326923 7.611243 68.400000 7.507674 68.473077 7.404539 68.546154 7.301848 68.619231 7.199609 68.692308 7.097830 68.765385 6.996519 68.838462 6.895685 68.911538 6.795335 68.984615 6.695479 69.057692 6.596125 69.130769 6.497280 69.203846 6.398953 69.276923 6.301153 69.350000 6.203887 69.423077 6.107165 69.496154 6.010993 69.569231 5.915381 69.642308 5.820337 69.715385 5.725870 69.788462 5.631986 69.861538 5.538695 69.934615 5.446006 70.007692 5.353925 70.080769 5.262463 70.153846 5.171626 70.226923 5.081423 70.300000 4.991862 70.373077 4.902953 70.446154 4.814702 70.519231 4.727119 70.592308 4.640212 70.665385 4.553988 70.738462 4.468457 70.811538 4.383626 70.884615 4.299504 70.957692 4.216099 71.030769 4.133419 71.103846 4.051473 71.176923 3.970269 71.250000 3.889815 71.323077 3.810120 71.396154 3.731192 71.469231 3.653038 71.542308 3.575668 71.615385 3.499090 71.688462 3.423312 71.761538 3.348342 71.834615 3.274189 71.907692 3.200861 71.980769 3.128365 72.053846 3.056712 72.126923 2.985908 72.200000 2.915962 72.273077 2.846882 72.346154 2.778677 72.419231 2.711355 72.492308 2.644924 72.565385 2.579392 72.638462 2.514769 72.711538 2.451061 72.784615 2.388278 72.857692 2.326428 72.930769 2.265518 73.003846 2.205558 73.076923 2.146555 73.150000 2.088518 73.223077 2.031455 73.296154 1.975374 73.369231 1.920285 73.442308 1.866194 73.515385 1.813110 73.588462 1.761043 73.661538 1.709999 73.734615 1.659987 73.807692 1.611015 73.880769 1.563093 73.953846 1.516227 74.026923 1.470427 74.100000 1.425700 74.173077 1.382055 74.246154 1.339500 74.319231 1.298044 74.392308 1.257695 74.465385 1.218461 74.538462 1.180350 74.611538 1.143370 74.684615 1.107531 74.757692 1.072840 74.830769 1.039305 74.903846 1.006936 74.976923 0.975739 75.050000 0.945724 75.123077 0.916898 75.196154 0.889271 75.269231 0.862849 75.342308 0.837640 75.415385 0.813639 75.488462 0.790839 75.561538 0.769234 75.634615 0.748817 75.707692 0.729581 75.780769 0.711520 75.853846 0.694627 75.926923 0.678896 76.000000 0.664320 76.073077 0.650893 76.146154 0.638607 76.219231 0.627456 76.292308 0.617434 76.365385 0.608533 76.438462 0.600748 76.511538 0.594072 76.584615 0.588497 76.657692 0.584018 76.730769 0.580628 76.803846 0.578319 76.876923 0.577087 76.950000 0.576923 77.023077 0.577822 77.096154 0.579776 77.169231 0.582779 77.242308 0.586825 77.315385 0.591907 77.388462 0.598017 77.461538 0.605151 77.534615 0.613300 77.607692 0.622459 77.680769 0.632620 77.753846 0.643777 77.826923 0.655924 77.900000 0.669054 77.973077 0.683160 78.046154 0.698235 78.119231 0.714274 78.192308 0.731269 78.265385 0.749214 78.338462 0.768101 78.411538 0.787926 78.484615 0.808680 78.557692 0.830357 78.630769 0.852952 78.703846 0.876456 78.776923 0.900863 78.850000 0.926168 78.923077 0.952362 78.996154 0.979440 79.069231 1.007395 79.142308 1.036220 79.215385 1.065909 79.288462 1.096455 79.361538 1.127852 79.434615 1.160092 79.507692 1.193170 79.580769 1.227078 79.653846 1.261810 79.726923 1.297359 79.800000 1.333719 79.873077 1.370883 79.946154 1.408845 80.019231 1.447598 80.092308 1.487134 80.165385 1.527449 80.238462 1.568534 80.311538 1.610384 80.384615 1.652991 80.457692 1.696350 80.530769 1.740453 80.603846 1.785294 80.676923 1.830867 80.750000 1.877164 80.823077 1.924179 80.896154 1.971905 80.969231 2.020336 81.042308 2.069466 81.115385 2.119287 81.188462 2.169793 81.261538 2.220977 81.334615 2.272833 81.407692 2.325354 81.480769 2.378533 81.553846 2.432364 81.626923 2.486841 81.700000 2.541956 81.773077 2.597703 81.846154 2.654075 81.919231 2.711066 81.992308 2.768669 82.065385 2.826878 82.138462 2.885685 82.211538 2.945085 82.284615 3.005071 82.357692 3.065635 82.430769 3.126772 82.503846 3.188474 82.576923 3.250736 82.650000 3.313550 82.723077 3.376910 82.796154 3.440810 82.869231 3.505242 82.942308 3.570200 83.015385 3.635677 83.088462 3.701668 83.161538 3.768164 83.234615 3.835160 83.307692 3.902649 83.380769 3.970625 83.453846 4.039080 83.526923 4.108008 83.600000 4.177402 83.673077 4.247257 83.746154 4.317564 83.819231 4.388318 83.892308 4.459513 83.965385 4.531140 84.038462 4.603194 84.111538 4.675669 84.184615 4.748557 84.257692 4.821851 84.330769 4.895546 84.403846 4.969635 84.476923 5.044111 84.550000 5.118967 84.623077 5.194196 84.696154 5.269793 84.769231 5.345751 84.842308 5.422062 84.915385 5.498721 84.988462 5.575720 85.061538 5.653054 85.134615 5.730714 85.207692 5.808696 85.280769 5.886992 85.353846 5.965595 85.426923 6.044500 85.500000 6.123698 85.573077 6.203185 85.646154 6.282952 85.719231 6.362994 85.792308 6.443304 85.865385 6.523875 85.938462 6.604700 86.011538 6.685774 86.084615 6.767089 86.157692 6.848638 86.230769 6.930416 86.303846 7.012415 86.376923 7.094630 86.450000 7.177052 86.523077 7.259676 86.596154 7.342495 86.669231 7.425503 86.742308 7.508692 86.815385 7.592056 86.888462 7.675589 86.961538 7.759284 87.034615 7.843134 87.107692 7.927133 87.180769 8.011274 87.253846 8.095550 87.326923 8.179955 87.400000 8.264483 87.473077 8.349126 87.546154 8.433877 87.619231 8.518732 87.692308 8.603681 87.765385 8.688720 87.838462 8.773842 87.911538 8.859039 87.984615 8.944306 88.057692 9.029635 88.130769 9.115020 88.203846 9.200455 88.276923 9.285932 88.350000 9.371445 88.423077 9.456988 88.496154 9.542554 88.569231 9.628136 88.642308 9.713728 88.715385 9.799322 88.788462 9.884913 88.861538 9.970494 88.934615 10.056058 89.007692 10.141599 89.080769 10.227110 89.153846 10.312583 89.226923 10.398014 89.300000 10.483395 89.373077 10.568719 89.446154 10.653979 89.519231 10.739171 89.592308 10.824285 89.665385 10.909317 89.738462 10.994259 89.811538 11.079104 89.884615 11.163847 89.957692 11.248480 90.030769 11.332997 90.103846 11.417392 90.176923 11.501657 90.250000 11.585786 90.323077 11.669772 90.396154 11.753609 90.469231 11.837290 90.542308 11.920809 90.615385 12.004159 90.688462 12.087332 90.761538 12.170324 90.834615 12.253127 90.907692 12.335734 90.980769 12.418138 91.053846 12.500334 91.126923 12.582315 91.200000 12.664073 91.273077 12.745603 91.346154 12.826897 91.419231 12.907950 91.492308 12.988754 91.565385 13.069303 91.638462 13.149590 91.711538 13.229608 91.784615 13.309352 91.857692 13.388814 91.930769 13.467987 92.003846 13.546866 92.076923 13.625443 92.150000 13.703712 92.223077 13.781667 92.296154 13.859300 92.369231 13.936605 92.442308 14.013575 92.515385 14.090204 92.588462 14.166485 92.661538 14.242412 92.734615 14.317978 92.807692 14.393176 92.880769 14.467999 92.953846 14.542442 93.026923 14.616497 93.100000 14.690158 93.173077 14.763418 93.246154 14.836271 93.319231 14.908709 93.392308 14.980727 93.465385 15.052317 93.538462 15.123474 93.611538 15.194192 93.684615 15.264470 93.757692 15.334312 93.830769 15.403718 93.903846 15.472691 93.976923 15.541233 94.050000 15.609344 94.123077 15.677027 94.196154 15.744283 94.269231 15.811115 94.342308 15.877524 94.415385 15.943512 94.488462 16.009080 94.561538 16.074231 94.634615 16.138966 94.707692 16.203287 94.780769 16.267195 94.853846 16.330693 94.926923 16.393782 95.000000 16.456464 95.073077 16.518741 95.146154 16.580614 95.219231 16.642085 95.292308 16.703157 95.365385 16.763830 95.438462 16.824107 95.511538 16.883988 95.584615 16.943477 95.657692 17.002575 95.730769 17.061283 95.803846 17.119604 95.876923 17.177539 95.950000 17.235089 96.023077 17.292257 96.096154 17.349045 96.169231 17.405453 96.242308 17.461485 96.315385 17.517141 96.388462 17.572424 96.461538 17.627334 96.534615 17.681875 96.607692 17.736048 96.680769 17.789853 96.753846 17.843295 96.826923 17.896373 96.900000 17.949090 96.973077 18.001447 97.046154 18.053447 97.119231 18.105090 97.192308 18.156380 97.265385 18.207317 97.338462 18.257903 97.411538 18.308141 97.484615 18.358031 97.557692 18.407576 97.630769 18.456778 97.703846 18.505637 97.776923 18.554156 97.850000 18.602337 97.923077 18.650182 97.996154 18.697692 98.069231 18.744868 98.142308 18.791713 98.215385 18.838229 98.288462 18.884417 98.361538 18.930279 98.434615 18.975817 98.507692 19.021032 98.580769 19.065927 98.653846 19.110503 98.726923 19.154761 98.800000 19.198704 98.873077 19.242333 98.946154 19.285651 99.019231 19.328658 99.092308 19.371357 99.165385 19.413749 99.238462 19.455837 99.311538 19.497621 99.384615 19.539104 99.457692 19.580288 99.530769 19.621173 99.603846 19.661763 99.676923 19.702058 99.750000 19.742061 99.823077 19.781773 99.896154 19.821196 99.969231 19.860332 100.042308 19.899182 100.115385 19.937749 100.188462 19.976033 100.261538 20.014038 100.334615 20.051764 100.407692 20.089213 100.480769 20.126388 100.553846 20.163289 100.626923 20.199919 100.700000 20.236280 100.773077 20.272372 100.846154 20.308199 100.919231 20.343761 100.992308 20.379060 101.065385 20.414099 101.138462 20.448879 101.211538 20.483401 101.284615 20.517668 101.357692 20.551681 101.430769 20.585442 101.503846 20.618953 101.576923 20.652216 101.650000 20.685231 101.723077 20.718002 101.796154 20.750530 101.869231 20.782816 101.942308 20.814863 102.015385 20.846671 102.088462 20.878244 102.161538 20.909582 102.234615 20.940688 102.307692 20.971562 102.380769 21.002208 102.453846 21.032626 102.526923 21.062819 102.600000 21.092788 102.673077 21.122535 102.746154 21.152062 102.819231 21.181370 102.892308 21.210461 102.965385 21.239338 103.038462 21.268001 103.111538 21.296453 103.184615 21.324695 103.257692 21.352729 103.330769 21.380557 103.403846 21.408180 103.476923 21.435601 103.550000 21.462821 103.623077 21.489842 103.696154 21.516665 103.769231 21.543293 103.842308 21.569727 103.915385 21.595969 103.988462 21.622021 104.061538 21.647884 104.134615 21.673560 104.207692 21.699052 104.280769 21.724360 104.353846 21.749486 104.426923 21.774433 104.500000 21.799202 104.573077 21.823794 104.646154 21.848212 104.719231 21.872458 104.792308 21.896532 104.865385 21.920438 104.938462 21.944176 105.011538 21.967748 105.084615 21.991156 105.157692 22.014402 105.230769 22.037488 105.303846 22.060416 105.376923 22.083186 105.450000 22.105802 105.523077 22.128264 105.596154 22.150574 105.669231 22.172735 105.742308 22.194748 105.815385 22.216614 105.888462 22.238336 105.961538 22.259916 106.034615 22.281354 106.107692 22.302653 106.180769 22.323814 106.253846 22.344840 106.326923 22.365732 106.400000 22.386492 106.473077 22.407122 106.546154 22.427623 106.619231 22.447996 106.692308 22.468245 106.765385 22.488371 106.838462 22.508375 106.911538 22.528259 106.984615 22.548025 107.057692 22.567674 107.130769 22.587209 107.203846 22.606632 107.276923 22.625943 107.350000 22.645145 107.423077 22.664240 107.496154 22.683229 107.569231 22.702114 107.642308 22.720896 107.715385 22.739578 107.788462 22.758162 107.861538 22.776649 107.934615 22.795040 108.007692 22.813338 108.080769 22.831545 108.153846 22.849661 108.226923 22.867690 108.300000 22.885632 108.373077 22.903489 108.446154 22.921264 108.519231 22.938958 108.592308 22.956572 108.665385 22.974109 108.738462 22.991570 108.811538 23.008957 108.884615 23.026272 108.957692 23.043516 109.030769 23.060692 109.103846 23.077800 109.176923 23.094844 109.250000 23.111824 109.323077 23.128742 109.396154 23.145600 109.469231 23.162401 109.542308 23.179145 109.615385 23.195834 109.688462 23.212470 109.761538 23.229055 109.834615 23.245591 109.907692 23.262080 109.980769 23.278522 110.053846 23.294921 110.126923 23.311277 110.200000 23.327592 110.273077 23.343869 110.346154 23.360109 110.419231 23.376314 110.492308 23.392485 110.565385 23.408624 110.638462 23.424734 110.711538 23.440815 110.784615 23.456870 110.857692 23.472900 110.930769 23.488907 111.003846 23.504893 111.076923 23.520860 111.150000 23.536809 111.223077 23.552742 111.296154 23.568662 111.369231 23.584568 111.442308 23.600465 111.515385 23.616352 111.588462 23.632233 111.661538 23.648108 111.734615 23.663979 111.807692 23.679849" class="line reactive nofill" /></g></g><g class="titles" /><g transform="translate(76, 10)" class="plot overlay"><g class="series serie-0 color-0" /></g><g transform="translate(76, 10)" class="plot text-overlay"><g class="series serie-0 color-0" /></g><g transform="translate(76, 10)" class="plot tooltip-overlay"><g transform="translate(0 0)" style="opacity: 0" class="tooltip"><rect rx="0" ry="0" width="0" height="0" class="tooltip-box" /><g class="text" /></g></g></g></svg>