<?xml version='1.0' encoding='utf-8'?>
<svg xmlns="http://www.w3.org/2000/svg" id="chart-fe1f383b-6a80-438a-89ab-eebe3b56f426" class="pygal-chart pygal-sparkline" viewBox="0 0 200 50" width="200" height="50"><!--Generated with pygal 3.0.5 (etree) ©Kozea 2012-2016 on 2025-02-16--><!--http://pygal.org--><!--http://github.com/Kozea/pygal--><defs><style type="text/css">#chart-fe1f383b-6a80-438a-89ab-eebe3b56f426{-webkit-user-select:none;-webkit-font-smoothing:antialiased;font-family:Consolas,"Liberation Mono",Menlo,Courier,monospace}#chart-fe1f383b-6a80-438a-89ab-eebe3b56f426 .title{font-family:Consolas,"Liberation Mono",Menlo,Courier,monospace;font-size:16px}#chart-fe1f383b-6a80-438a-89ab-eebe3b56f426 .legends .legend text{font-family:Consolas,"Liberation Mono",Menlo,Courier,monospace;font-size:14px}#chart-fe1f383b-6a80-438a-89ab-eebe3b56f426 .axis text{font-family:Consolas,"Liberation Mono",Menlo,Courier,monospace;font-size:10px}#chart-fe1f383b-6a80-438a-89ab-eebe3b56f426 .axis text.major{font-family:Consolas,"Liberation Mono",Menlo,Courier,monospace;font-size:10px}#chart-fe1f383b-6a80-438a-89ab-eebe3b56f426 .text-overlay text.value{font-family:Consolas,"Liberation Mono",Menlo,Courier,monospace;font-size:16px}#chart-fe1f383b-6a80-438a-89ab-eebe3b56f426 .text-overlay text.label{font-family:Consolas,"Liberation Mono",Menlo,Courier,monospace;font-size:10px}#chart-fe1f383b-6a80-438a-89ab-eebe3b56f426 .tooltip{font-family:Consolas,"Liberation Mono",Menlo,Courier,monospace;font-size:14px}#chart-fe1f383b-6a80-438a-89ab-eebe3b56f426 text.no_data{font-family:Consolas,"Liberation Mono",Menlo,Courier,monospace;font-size:64px}
#chart-fe1f383b-6a80-438a-89ab-eebe3b56f426{background-color:rgba(249,249,249,1)}#chart-fe1f383b-6a80-438a-89ab-eebe3b56f426 path,#chart-fe1f383b-6a80-438a-89ab-eebe3b56f426 line,#chart-fe1f383b-6a80-438a-89ab-eebe3b56f426 rect,#chart-fe1f383b-6a80-438a-89ab-eebe3b56f426 circle{-webkit-transition:150ms;-moz-transition:150ms;transition:150ms}#chart-fe1f383b-6a80-438a-89ab-eebe3b56f426 .graph &gt; .background{fill:rgba(249,249,249,1)}#chart-fe1f383b-6a80-438a-89ab-eebe3b56f426 .plot &gt; .background{fill:rgba(255,255,255,1)}#chart-fe1f383b-6a80-438a-89ab-eebe3b56f426 .graph{fill:rgba(0,0,0,.87)}#chart-fe1f383b-6a80-438a-89ab-eebe3b56f426 text.no_data{fill:rgba(0,0,0,1)}#chart-fe1f383b-6a80-438a-89ab-eebe3b56f426 .title{fill:rgba(0,0,0,1)}#chart-fe1f383b-6a80-438a-89ab-eebe3b56f426 .legends .legend text{fill:rgba(0,0,0,.87)}#chart-fe1f383b-6a80-438a-89ab-eebe3b56f426 .legends .legend:hover text{fill:rgba(0,0,0,1)}#chart-fe1f383b-6a80-438a-89ab-eebe3b56f426 .axis .line{stroke:rgba(0,0,0,1)}#chart-fe1f383b-6a80-438a-89ab-eebe3b56f426 .axis .guide.line{stroke:rgba(0,0,0,.54)}#chart-fe1f383b-6a80-438a-89ab-eebe3b56f426 .axis .major.line{stroke:rgba(0,0,0,.87)}#chart-fe1f383b-6a80-438a-89ab-eebe3b56f426 .axis text.major{fill:rgba(0,0,0,1)}#chart-fe1f383b-6a80-438a-89ab-eebe3b56f426 .axis.y .guides:hover .guide.line,#chart-fe1f383b-6a80-438a-89ab-eebe3b56f426 .line-graph .axis.x .guides:hover .guide.line,#chart-fe1f383b-6a80-438a-89ab-eebe3b56f426 .stackedline-graph .axis.x .guides:hover .guide.line,#chart-fe1f383b-6a80-438a-89ab-eebe3b56f426 .xy-graph .axis.x .guides:hover .guide.line{stroke:rgba(0,0,0,1)}#chart-fe1f383b-6a80-438a-89ab-eebe3b56f426 .axis .guides:hover text{fill:rgba(0,0,0,1)}#chart-fe1f383b-6a80-438a-89ab-eebe3b56f426 .reactive{fill-opacity:.7;stroke-opacity:.8;stroke-width:1}#chart-fe1f383b-6a80-438a-89ab-eebe3b56f426 .ci{stroke:rgba(0,0,0,.87)}#chart-fe1f383b-6a80-438a-89ab-eebe3b56f426 .reactive.active,#chart-fe1f383b-6a80-438a-89ab-eebe3b56f426 .active .reactive{fill-opacity:.8;stroke-opacity:.9;stroke-width:4}#chart-fe1f383b-6a80-438a-89ab-eebe3b56f426 .ci .reactive.active{stroke-width:1.5}#chart-fe1f383b-6a80-438a-89ab-eebe3b56f426 .series text{fill:rgba(0,0,0,1)}#chart-fe1f383b-6a80-438a-89ab-eebe3b56f426 .tooltip rect{fill:rgba(255,255,255,1);stroke:rgba(0,0,0,1);-webkit-transition:opacity 150ms;-moz-transition:opacity 150ms;transition:opacity 150ms}#chart-fe1f383b-6a80-438a-89ab-eebe3b56f426 .tooltip .label{fill:rgba(0,0,0,.87)}#chart-fe1f383b-6a80-438a-89ab-eebe3b56f426 .tooltip .label{fill:rgba(0,0,0,.87)}#chart-fe1f383b-6a80-438a-89ab-eebe3b56f426 .tooltip .legend{font-size:.8em;fill:rgba(0,0,0,.54)}#chart-fe1f383b-6a80-438a-89ab-eebe3b56f426 .tooltip .x_label{font-size:.6em;fill:rgba(0,0,0,1)}#chart-fe1f383b-6a80-438a-89ab-eebe3b56f426 .tooltip .xlink{font-size:.5em;text-decoration:underline}#chart-fe1f383b-6a80-438a-89ab-eebe3b56f426 .tooltip .value{font-size:1.5em}#chart-fe1f383b-6a80-438a-89ab-eebe3b56f426 .bound{font-size:.5em}#chart-fe1f383b-6a80-438a-89ab-eebe3b56f426 .max-value{font-size:.75em;fill:rgba(0,0,0,.54)}#chart-fe1f383b-6a80-438a-89ab-eebe3b56f426 .map-element{fill:rgba(255,255,255,1);stroke:rgba(0,0,0,.54) !important}#chart-fe1f383b-6a80-438a-89ab-eebe3b56f426 .map-element .reactive{fill-opacity:inherit;stroke-opacity:inherit}#chart-fe1f383b-6a80-438a-89ab-eebe3b56f426 .color-0,#chart-fe1f383b-6a80-438a-89ab-eebe3b56f426 .color-0 a:visited{stroke:#F44336;fill:#F44336}#chart-fe1f383b-6a80-438a-89ab-eebe3b56f426 .text-overlay .color-0 text{fill:black}
#chart-fe1f383b-6a80-438a-89ab-eebe3b56f426 text.no_data{text-anchor:middle}#chart-fe1f383b-6a80-438a-89ab-eebe3b56f426 .guide.line{fill:none}#chart-fe1f383b-6a80-438a-89ab-eebe3b56f426 .centered{text-anchor:middle}#chart-fe1f383b-6a80-438a-89ab-eebe3b56f426 .title{text-anchor:middle}#chart-fe1f383b-6a80-438a-89ab-eebe3b56f426 .legends .legend text{fill-opacity:1}#chart-fe1f383b-6a80-438a-89ab-eebe3b56f426 .axis.x text{text-anchor:middle}#chart-fe1f383b-6a80-438a-89ab-eebe3b56f426 .axis.x:not(.web) text[transform]{text-anchor:start}#chart-fe1f383b-6a80-438a-89ab-eebe3b56f426 .axis.x:not(.web) text[transform].backwards{text-anchor:end}#chart-fe1f383b-6a80-438a-89ab-eebe3b56f426 .axis.y text{text-anchor:end}#chart-fe1f383b-6a80-438a-89ab-eebe3b56f426 .axis.y text[transform].backwards{text-anchor:start}#chart-fe1f383b-6a80-438a-89ab-eebe3b56f426 .axis.y2 text{text-anchor:start}#chart-fe1f383b-6a80-438a-89ab-eebe3b56f426 .axis.y2 text[transform].backwards{text-anchor:end}#chart-fe1f383b-6a80-438a-89ab-eebe3b56f426 .axis .guide.line{stroke-dasharray:4,4;stroke:black}#chart-fe1f383b-6a80-438a-89ab-eebe3b56f426 .axis .major.guide.line{stroke-dasharray:6,6;stroke:black}#chart-fe1f383b-6a80-438a-89ab-eebe3b56f426 .horizontal .axis.y .guide.line,#chart-fe1f383b-6a80-438a-89ab-eebe3b56f426 .horizontal .axis.y2 .guide.line,#chart-fe1f383b-6a80-438a-89ab-eebe3b56f426 .vertical .axis.x .guide.line{opacity:0}#chart-fe1f383b-6a80-438a-89ab-eebe3b56f426 .horizontal .axis.always_show .guide.line,#chart-fe1f383b-6a80-438a-89ab-eebe3b56f426 .vertical .axis.always_show .guide.line{opacity:1 !important}#chart-fe1f383b-6a80-438a-89ab-eebe3b56f426 .axis.y .guides:hover .guide.line,#chart-fe1f383b-6a80-438a-89ab-eebe3b56f426 .axis.y2 .guides:hover .guide.line,#chart-fe1f383b-6a80-438a-89ab-eebe3b56f426 .axis.x .guides:hover .guide.line{opacity:1}#chart-fe1f383b-6a80-438a-89ab-eebe3b56f426 .axis .guides:hover text{opacity:1}#chart-fe1f383b-6a80-438a-89ab-eebe3b56f426 .nofill{fill:none}#chart-fe1f383b-6a80-438a-89ab-eebe3b56f426 .subtle-fill{fill-opacity:.2}#chart-fe1f383b-6a80-438a-89ab-eebe3b56f426 .dot{stroke-width:1px;fill-opacity:1;stroke-opacity:1}#chart-fe1f383b-6a80-438a-89ab-eebe3b56f426 .dot.active{stroke-width:5px}#chart-fe1f383b-6a80-438a-89ab-eebe3b56f426 .dot.negative{fill:transparent}#chart-fe1f383b-6a80-438a-89ab-eebe3b56f426 text,#chart-fe1f383b-6a80-438a-89ab-eebe3b56f426 tspan{stroke:none !important}#chart-fe1f383b-6a80-438a-89ab-eebe3b56f426 .series text.active{opacity:1}#chart-fe1f383b-6a80-438a-89ab-eebe3b56f426 .tooltip rect{fill-opacity:.95;stroke-width:.5}#chart-fe1f383b-6a80-438a-89ab-eebe3b56f426 .tooltip text{fill-opacity:1}#chart-fe1f383b-6a80-438a-89ab-eebe3b56f426 .showable{visibility:hidden}#chart-fe1f383b-6a80-438a-89ab-eebe3b56f426 .showable.shown{visibility:visible}#chart-fe1f383b-6a80-438a-89ab-eebe3b56f426 .gauge-background{fill:rgba(229,229,229,1);stroke:none}#chart-fe1f383b-6a80-438a-89ab-eebe3b56f426 .bg-lines{stroke:rgba(249,249,249,1);stroke-width:2px}</style><script type="text/javascript">window.pygal = window.pygal || {};window.pygal.config = window.pygal.config || {};window.pygal.config['fe1f383b-6a80-438a-89ab-eebe3b56f426'] = {"allow_interruptions": false, "box_mode": "extremes", "classes": ["pygal-chart", "pygal-sparkline"], "css": ["file://style.css", "file://graph.css"], "defs": [], "disable_xml_declaration": false, "dots_size": 2.5, "dynamic_print_values": false, "explicit_size": true, "fill": false, "force_uri_protocol": "https", "formatter": null, "half_pie": false, "height": 50, "include_x_axis": false, "inner_radius": 0, "interpolate": "cubic", "interpolation_parameters": {}, "interpolation_precision": 250, "inverse_y_axis": false, "js": [], "legend_at_bottom": false, "legend_at_bottom_columns": null, "legend_box_size": 12, "logarithmic": false, "margin": 10, "margin_bottom": null, "margin_left": null, "margin_right": null, "margin_top": null, "max_scale": 2, "min_scale": 1, "missing_value_fill_truncation": "x", "no_data_text": "", "no_prefix": false, "order_min": null, "pretty_print": false, "print_labels": false, "print_values": false, "print_values_position": "center", "print_zeroes": true, "range": null, "rounded_bars": null, "secondary_range": null, "show_dots": false, "show_legend": false, "show_minor_x_labels": true, "show_minor_y_labels": true, "show_only_major_dots": false, "show_x_guides": false, "show_x_labels": false, "show_y_guides": true, "show_y_labels": true, "spacing": 0, "stack_from_top": false, "strict": false, "stroke": true, "stroke_style": null, "style": {"background": "rgba(249, 249, 249, 1)", "ci_colors": [], "colors": ["#F44336", "#3F51B5", "#009688", "#FFC107", "#FF5722", "#9C27B0", "#03A9F4", "#8BC34A", "#FF9800", "#E91E63", "#2196F3", "#4CAF50", "#FFEB3B", "#673AB7", "#00BCD4", "#CDDC39", "#9E9E9E", "#607D8B"], "dot_opacity": "1", "font_family": "Consolas, \"Liberation Mono\", Menlo, Courier, monospace", "foreground": "rgba(0, 0, 0, .87)", "foreground_strong": "rgba(0, 0, 0, 1)", "foreground_subtle": "rgba(0, 0, 0, .54)", "guide_stroke_color": "black", "guide_stroke_dasharray": "4,4", "label_font_family": "Consolas, \"Liberation Mono\", Menlo, Courier, monospace", "label_font_size": 10, "legend_font_family": "Consolas, \"Liberation Mono\", Menlo, Courier, monospace", "legend_font_size": 14, "major_guide_stroke_color": "black", "major_guide_stroke_dasharray": "6,6", "major_label_font_family": "Consolas, \"Liberation Mono\", Menlo, Courier, monospace", "major_label_font_size": 10, "no_data_font_family": "Consolas, \"Liberation Mono\", Menlo, Courier, monospace", "no_data_font_size": 64, "opacity": ".7", "opacity_hover": ".8", "plot_background": "rgba(255, 255, 255, 1)", "stroke_opacity": ".8", "stroke_opacity_hover": ".9", "stroke_width": "1", "stroke_width_hover": "4", "title_font_family": "Consolas, \"Liberation Mono\", Menlo, Courier, monospace", "title_font_size": 16, "tooltip_font_family": "Consolas, \"Liberation Mono\", Menlo, Courier, monospace", "tooltip_font_size": 14, "transition": "150ms", "value_background": "rgba(229, 229, 229, 1)", "value_colors": [], "value_font_family": "Consolas, \"Liberation Mono\", Menlo, Courier, monospace", "value_font_size": 16, "value_label_font_family": "Consolas, \"Liberation Mono\", Menlo, Courier, monospace", "value_label_font_size": 10}, "title": null, "tooltip_border_radius": 0, "tooltip_fancy_mode": true, "truncate_label": null, "truncate_legend": null, "width": 200, "x_label_rotation": 0, "x_labels": ["2025/2", "2025/1", "2024/12", "2024/11"], "x_labels_major": null, "x_labels_major_count": null, "x_labels_major_every": null, "x_title": null, "xrange": null, "y_label_rotation": 0, "y_labels": null, "y_labels_major": null, "y_labels_major_count": null, "y_labels_major_every": null, "y_title": null, "zero": 0, "legends": [""]}</script></defs><title>Pygal</title><g class="graph line-graph vertical"><rect x="0" y="0" width="200" height="50" class="background" /><g transform="translate(70, 10)" class="plot"><rect x="0" y="0" width="120.0" height="30" class="background" /><g class="axis y always_show"><path d="M0.000000 30.000000 h120.000000" class="line" /><g class="guides"><path d="M0.000000 29.423077 h120.000000" class="guide line" /><text x="-5" y="32.92307692307692" class="">5</text><title>5</title></g><g class="guides"><path d="M0.000000 0.576923 h120.000000" class="guide line" /><text x="-5" y="4.07692307692308" class="">11.0158976</text><title>11.0158976</title></g></g><g class="series serie-0 color-0"><path d="M2.307692 15.038114 L2.461538 15.126341 2.615385 15.214564 2.769231 15.302776 2.923077 15.390974 3.076923 15.479154 3.230769 15.567309 3.384615 15.655435 3.538462 15.743528 3.692308 15.831583 3.846154 15.919594 4.000000 16.007558 4.153846 16.095469 4.307692 16.183322 4.461538 16.271114 4.615385 16.358838 4.769231 16.446491 4.923077 16.534066 5.076923 16.621561 5.230769 16.708969 5.384615 16.796287 5.538462 16.883508 5.692308 16.970629 5.846154 17.057645 6.000000 17.144551 6.153846 17.231342 6.307692 17.318013 6.461538 17.404559 6.615385 17.490977 6.769231 17.577260 6.923077 17.663405 7.076923 17.749405 7.230769 17.835258 7.384615 17.920957 7.538462 18.006498 7.692308 18.091877 7.846154 18.177088 8.000000 18.262127 8.153846 18.346988 8.307692 18.431668 8.461538 18.516161 8.615385 18.600462 8.769231 18.684567 8.923077 18.768471 9.076923 18.852169 9.230769 18.935657 9.384615 19.018929 9.538462 19.101981 9.692308 19.184808 9.846154 19.267405 10.000000 19.349767 10.153846 19.431890 10.307692 19.513769 10.461538 19.595399 10.615385 19.676776 10.769231 19.757893 10.923077 19.838748 11.076923 19.919334 11.230769 19.999648 11.384615 20.079684 11.538462 20.159437 11.692308 20.238903 11.846154 20.318078 12.000000 20.396955 12.153846 20.475531 12.307692 20.553800 12.461538 20.631758 12.615385 20.709400 12.769231 20.786722 12.923077 20.863718 13.076923 20.940383 13.230769 21.016714 13.384615 21.092705 13.538462 21.168350 13.692308 21.243647 13.846154 21.318589 14.000000 21.393172 14.153846 21.467391 14.307692 21.541242 14.461538 21.614719 14.615385 21.687818 14.769231 21.760534 14.923077 21.832863 15.076923 21.904799 15.230769 21.976337 15.384615 22.047473 15.538462 22.118203 15.692308 22.188520 15.846154 22.258421 16.000000 22.327901 16.153846 22.396955 16.307692 22.465578 16.461538 22.533765 16.615385 22.601512 16.769231 22.668814 16.923077 22.735665 17.076923 22.802062 17.230769 22.867999 17.384615 22.933472 17.538462 22.998476 17.692308 23.063005 17.846154 23.127057 18.000000 23.190624 18.153846 23.253703 18.307692 23.316289 18.461538 23.378378 18.615385 23.439963 18.769231 23.501041 18.923077 23.561607 19.076923 23.621656 19.230769 23.681183 19.384615 23.740183 19.538462 23.798652 19.692308 23.856585 19.846154 23.913977 20.000000 23.970823 20.153846 24.027119 20.307692 24.082859 20.461538 24.138039 20.615385 24.192654 20.769231 24.246700 20.923077 24.300171 21.076923 24.353063 21.230769 24.405371 21.384615 24.457089 21.538462 24.508215 21.692308 24.558742 21.846154 24.608665 22.000000 24.657981 22.153846 24.706684 22.307692 24.754769 22.461538 24.802232 22.615385 24.849068 22.769231 24.895272 22.923077 24.940839 23.076923 24.985765 23.230769 25.030044 23.384615 25.073673 23.538462 25.116645 23.692308 25.158957 23.846154 25.200603 24.000000 25.241579 24.153846 25.281881 24.307692 25.321502 24.461538 25.360439 24.615385 25.398686 24.769231 25.436239 24.923077 25.473094 25.076923 25.509244 25.230769 25.544686 25.384615 25.579415 25.538462 25.613426 25.692308 25.646713 25.846154 25.679273 26.000000 25.711101 26.153846 25.742191 26.307692 25.772540 26.461538 25.802141 26.615385 25.830991 26.769231 25.859085 26.923077 25.886417 27.076923 25.912983 27.230769 25.938779 27.384615 25.963799 27.538462 25.988039 27.692308 26.011493 27.846154 26.034158 28.000000 26.056028 28.153846 26.077098 28.307692 26.097365 28.461538 26.116822 28.615385 26.135465 28.769231 26.153290 28.923077 26.170291 29.076923 26.186464 29.230769 26.201804 29.384615 26.216307 29.538462 26.229966 29.692308 26.242779 29.846154 26.254739 30.000000 26.265842 30.153846 26.276084 30.307692 26.285459 30.461538 26.293963 30.615385 26.301591 30.769231 26.308337 30.923077 26.314199 31.076923 26.319169 31.230769 26.323245 31.384615 26.326420 31.538462 26.328691 31.692308 26.330052 31.846154 26.330499 32.000000 26.330027 32.153846 26.328630 32.307692 26.326305 32.461538 26.323047 32.615385 26.318850 32.769231 26.313710 32.923077 26.307622 33.076923 26.300581 33.230769 26.292583 33.384615 26.283623 33.538462 26.273695 33.692308 26.262796 33.846154 26.250920 34.000000 26.238063 34.153846 26.224220 34.307692 26.209385 34.461538 26.193555 34.615385 26.176725 34.769231 26.158889 34.923077 26.140042 35.076923 26.120181 35.230769 26.099301 35.384615 26.077395 35.538462 26.054461 35.692308 26.030492 35.846154 26.005485 36.000000 25.979434 36.153846 25.952335 36.307692 25.924182 36.461538 25.894971 36.615385 25.864698 36.769231 25.833357 36.923077 25.800943 37.076923 25.767453 37.230769 25.732880 37.384615 25.697221 37.538462 25.660471 37.692308 25.622624 37.846154 25.583675 38.000000 25.543622 38.153846 25.502457 38.307692 25.460177 38.461538 25.416777 38.615385 25.372251 38.769231 25.326596 38.923077 25.279807 39.076923 25.231877 39.230769 25.182804 39.384615 25.132582 39.538462 25.081206 39.692308 25.028672 39.846154 24.974974 40.000000 24.920108 40.153846 24.864069 40.307692 24.806853 40.461538 24.748454 40.615385 24.688868 40.769231 24.628089 40.923077 24.566117 41.076923 24.502959 41.230769 24.438626 41.384615 24.373129 41.538462 24.306480 41.692308 24.238689 41.846154 24.169768 42.000000 24.099727 42.153846 24.028578 42.307692 23.956331 42.461538 23.882998 42.615385 23.808589 42.769231 23.733117 42.923077 23.656591 43.076923 23.579023 43.230769 23.500424 43.384615 23.420805 43.538462 23.340176 43.692308 23.258550 43.846154 23.175937 44.000000 23.092348 44.153846 23.007794 44.307692 22.922287 44.461538 22.835836 44.615385 22.748454 44.769231 22.660152 44.923077 22.570939 45.076923 22.480829 45.230769 22.389830 45.384615 22.297956 45.538462 22.205216 45.692308 22.111621 45.846154 22.017183 46.000000 21.921913 46.153846 21.825822 46.307692 21.728921 46.461538 21.631220 46.615385 21.532731 46.769231 21.433466 46.923077 21.333434 47.076923 21.232648 47.230769 21.131117 47.384615 21.028854 47.538462 20.925869 47.692308 20.822174 47.846154 20.717778 48.000000 20.612694 48.153846 20.506933 48.307692 20.400504 48.461538 20.293421 48.615385 20.185693 48.769231 20.077331 48.923077 19.968347 49.076923 19.858752 49.230769 19.748557 49.384615 19.637772 49.538462 19.526409 49.692308 19.414479 49.846154 19.301993 50.000000 19.188962 50.153846 19.075398 50.307692 18.961310 50.461538 18.846710 50.615385 18.731609 50.769231 18.616019 50.923077 18.499950 51.076923 18.383413 51.230769 18.266420 51.384615 18.148981 51.538462 18.031107 51.692308 17.912810 51.846154 17.794101 52.000000 17.674990 52.153846 17.555489 52.307692 17.435608 52.461538 17.315359 52.615385 17.194753 52.769231 17.073801 52.923077 16.952514 53.076923 16.830903 53.230769 16.708978 53.384615 16.586752 53.538462 16.464235 53.692308 16.341438 53.846154 16.218372 54.000000 16.095048 54.153846 15.971478 54.307692 15.847672 54.461538 15.723641 54.615385 15.599396 54.769231 15.474950 54.923077 15.350311 55.076923 15.225492 55.230769 15.100504 55.384615 14.975358 55.538462 14.850064 55.692308 14.724634 55.846154 14.599078 56.000000 14.473409 56.153846 14.347636 56.307692 14.221772 56.461538 14.095826 56.615385 13.969810 56.769231 13.843736 56.923077 13.717613 57.076923 13.591454 57.230769 13.465269 57.384615 13.339069 57.538462 13.212866 57.692308 13.086670 57.846154 12.960492 58.000000 12.834344 58.153846 12.708236 58.307692 12.582180 58.461538 12.456186 58.615385 12.330266 58.769231 12.204431 58.923077 12.078692 59.076923 11.953059 59.230769 11.827544 59.384615 11.702158 59.538462 11.576912 59.692308 11.451817 59.846154 11.326884 60.000000 11.202124 60.153846 11.077549 60.307692 10.953168 60.461538 10.828994 60.615385 10.705037 60.769231 10.581308 60.923077 10.457818 61.076923 10.334579 61.230769 10.211602 61.384615 10.088897 61.538462 9.966475 61.692308 9.844348 61.846154 9.722527 62.000000 9.601023 62.153846 9.479846 62.307692 9.359008 62.461538 9.238520 62.615385 9.118393 62.769231 8.998637 62.923077 8.879265 63.076923 8.760287 63.230769 8.641713 63.384615 8.523556 63.538462 8.405826 63.692308 8.288535 63.846154 8.171692 64.000000 8.055310 64.153846 7.939399 64.307692 7.823971 64.461538 7.709036 64.615385 7.594606 64.769231 7.480691 64.923077 7.367303 65.076923 7.254452 65.230769 7.142151 65.384615 7.030409 65.538462 6.919237 65.692308 6.808648 65.846154 6.698651 66.000000 6.589259 66.153846 6.480481 66.307692 6.372329 66.461538 6.264815 66.615385 6.157949 66.769231 6.051741 66.923077 5.946204 67.076923 5.841349 67.230769 5.737185 67.384615 5.633725 67.538462 5.530980 67.692308 5.428959 67.846154 5.327676 68.000000 5.227140 68.153846 5.127362 68.307692 5.028354 68.461538 4.930127 68.615385 4.832692 68.769231 4.736059 68.923077 4.640241 69.076923 4.545247 69.230769 4.451089 69.384615 4.357778 69.538462 4.265325 69.692308 4.173741 69.846154 4.083038 70.000000 3.993225 70.153846 3.904315 70.307692 3.816318 70.461538 3.729245 70.615385 3.643108 70.769231 3.557917 70.923077 3.473684 71.076923 3.390419 71.230769 3.308133 71.384615 3.226838 71.538462 3.146545 71.692308 3.067265 71.846154 2.989008 72.000000 2.911786 72.153846 2.835610 72.307692 2.760491 72.461538 2.686440 72.615385 2.613468 72.769231 2.541586 72.923077 2.470805 73.076923 2.401136 73.230769 2.332590 73.384615 2.265178 73.538462 2.198912 73.692308 2.133802 73.846154 2.069860 74.000000 2.007096 74.153846 1.945521 74.307692 1.885147 74.461538 1.825984 74.615385 1.768044 74.769231 1.711338 74.923077 1.655876 75.076923 1.601670 75.230769 1.548731 75.384615 1.497070 75.538462 1.446697 75.692308 1.397625 75.846154 1.349863 76.000000 1.303424 76.153846 1.258318 76.307692 1.214555 76.461538 1.172148 76.615385 1.131108 76.769231 1.091444 76.923077 1.053169 77.076923 1.016293 77.230769 0.980828 77.384615 0.946784 77.538462 0.914172 77.692308 0.883004 77.846154 0.853291 78.000000 0.825044 78.153846 0.798273 78.307692 0.772989 78.461538 0.749205 78.615385 0.726931 78.769231 0.706177 78.923077 0.686955 79.076923 0.669277 79.230769 0.653152 79.384615 0.638589 79.538462 0.625586 79.692308 0.614135 79.846154 0.604230 80.000000 0.595865 80.153846 0.589034 80.307692 0.583731 80.461538 0.579949 80.615385 0.577681 80.769231 0.576923 80.923077 0.577667 81.076923 0.579907 81.230769 0.583638 81.384615 0.588852 81.538462 0.595543 81.692308 0.603706 81.846154 0.613333 82.000000 0.624419 82.153846 0.636958 82.307692 0.650942 82.461538 0.666367 82.615385 0.683225 82.769231 0.701511 82.923077 0.721217 83.076923 0.742339 83.230769 0.764869 83.384615 0.788801 83.538462 0.814129 83.692308 0.840848 83.846154 0.868949 84.000000 0.898428 84.153846 0.929278 84.307692 0.961493 84.461538 0.995066 84.615385 1.029992 84.769231 1.066263 84.923077 1.103874 85.076923 1.142819 85.230769 1.183091 85.384615 1.224684 85.538462 1.267591 85.692308 1.311807 85.846154 1.357325 86.000000 1.404139 86.153846 1.452242 86.307692 1.501629 86.461538 1.552293 86.615385 1.604228 86.769231 1.657427 86.923077 1.711885 87.076923 1.767595 87.230769 1.824551 87.384615 1.882746 87.538462 1.942174 87.692308 2.002830 87.846154 2.064706 88.000000 2.127797 88.153846 2.192096 88.307692 2.257597 88.461538 2.324293 88.615385 2.392179 88.769231 2.461249 88.923077 2.531495 89.076923 2.602912 89.230769 2.675493 89.384615 2.749233 89.538462 2.824125 89.692308 2.900162 89.846154 2.977338 90.000000 3.055648 90.153846 3.135084 90.307692 3.215641 90.461538 3.297313 90.615385 3.380092 90.769231 3.463974 90.923077 3.548950 91.076923 3.635017 91.230769 3.722166 91.384615 3.810392 91.538462 3.899688 91.692308 3.990049 91.846154 4.081468 92.000000 4.173938 92.153846 4.267454 92.307692 4.362009 92.461538 4.457598 92.615385 4.554212 92.769231 4.651848 92.923077 4.750497 93.076923 4.850155 93.230769 4.950814 93.384615 5.052468 93.538462 5.155112 93.692308 5.258738 93.846154 5.363341 94.000000 5.468914 94.153846 5.575452 94.307692 5.682947 94.461538 5.791394 94.615385 5.900786 94.769231 6.011117 94.923077 6.122381 95.076923 6.234572 95.230769 6.347683 95.384615 6.461708 95.538462 6.576640 95.692308 6.692474 95.846154 6.809204 96.000000 6.926822 96.153846 7.045323 96.307692 7.164700 96.461538 7.284948 96.615385 7.406059 96.769231 7.528029 96.923077 7.650849 97.076923 7.774515 97.230769 7.899020 97.384615 8.024357 97.538462 8.150521 97.692308 8.277504 97.846154 8.405302 98.000000 8.533907 98.153846 8.663313 98.307692 8.793515 98.461538 8.924505 98.615385 9.056278 98.769231 9.188827 98.923077 9.322147 99.076923 9.456230 99.230769 9.591070 99.384615 9.726662 99.538462 9.862998 99.692308 10.000074 99.846154 10.137882 100.000000 10.276416 100.153846 10.415670 100.307692 10.555637 100.461538 10.696312 100.615385 10.837689 100.769231 10.979760 100.923077 11.122519 101.076923 11.265962 101.230769 11.410080 101.384615 11.554868 101.538462 11.700320 101.692308 11.846429 101.846154 11.993189 102.000000 12.140594 102.153846 12.288637 102.307692 12.437313 102.461538 12.586615 102.615385 12.736537 102.769231 12.887072 102.923077 13.038214 103.076923 13.189957 103.230769 13.342296 103.384615 13.495222 103.538462 13.648731 103.692308 13.802816 103.846154 13.957470 104.000000 14.112688 104.153846 14.268463 104.307692 14.424789 104.461538 14.581659 104.615385 14.739068 104.769231 14.897009 104.923077 15.055476 105.076923 15.214463 105.230769 15.373963 105.384615 15.533970 105.538462 15.694478 105.692308 15.855480 105.846154 16.016971 106.000000 16.178943 106.153846 16.341392 106.307692 16.504310 106.461538 16.667691 106.615385 16.831530 106.769231 16.995819 106.923077 17.160552 107.076923 17.325724 107.230769 17.491328 107.384615 17.657357 107.538462 17.823806 107.692308 17.990668 107.846154 18.157937 108.000000 18.325607 108.153846 18.493671 108.307692 18.662123 108.461538 18.830957 108.615385 19.000167 108.769231 19.169746 108.923077 19.339688 109.076923 19.509987 109.230769 19.680637 109.384615 19.851631 109.538462 20.022962 109.692308 20.194626 109.846154 20.366616 110.000000 20.538924 110.153846 20.711546 110.307692 20.884474 110.461538 21.057703 110.615385 21.231226 110.769231 21.405037 110.923077 21.579130 111.076923 21.753498 111.230769 21.928135 111.384615 22.103036 111.538462 22.278193 111.692308 22.453600 111.846154 22.629252 112.000000 22.805141 112.153846 22.981262 112.307692 23.157609 112.461538 23.334174 112.615385 23.510953 112.769231 23.687938 112.923077 23.865123 113.076923 24.042503 113.230769 24.220070 113.384615 24.397819 113.538462 24.575743 113.692308 24.753836 113.846154 24.932092 114.000000 25.110504 114.153846 25.289067 114.307692 25.467773 114.461538 25.646618 114.615385 25.825593 114.769231 26.004694 114.923077 26.183914 115.076923 26.363247 115.230769 26.542686 115.384615 26.722225 115.538462 26.901859 115.692308 27.081579 115.846154 27.261382 116.000000 27.441259 116.153846 27.621205 116.307692 27.801214 116.461538 27.981279 116.615385 28.161394 116.769231 28.341553 116.923077 28.521750 117.076923 28.701978 117.230769 28.882231 117.384615 29.062502 117.538462 29.242786 117.692308 29.423077" class="line reactive nofill" /></g></g><g class="titles" /><g transform="translate(70, 10)" class="plot overlay"><g class="series serie-0 color-0" /></g><g transform="translate(70, 10)" class="plot text-overlay"><g class="series serie-0 color-0" /></g><g transform="translate(70, 10)" class="plot tooltip-overlay"><g transform="translate(0 0)" style="opacity: 0" class="tooltip"><rect rx="0" ry="0" width="0" height="0" class="tooltip-box" /><g class="text" /></g></g></g></svg>