<?xml version='1.0' encoding='utf-8'?>
<svg xmlns="http://www.w3.org/2000/svg" id="chart-113a4a4b-ef7a-445d-ab58-a0bcdc808ca7" class="pygal-chart pygal-sparkline" viewBox="0 0 200 50" width="200" height="50"><!--Generated with pygal 3.0.5 (etree) ©Kozea 2012-2016 on 2024-12-08--><!--http://pygal.org--><!--http://github.com/Kozea/pygal--><defs><style type="text/css">#chart-113a4a4b-ef7a-445d-ab58-a0bcdc808ca7{-webkit-user-select:none;-webkit-font-smoothing:antialiased;font-family:Consolas,"Liberation Mono",Menlo,Courier,monospace}#chart-113a4a4b-ef7a-445d-ab58-a0bcdc808ca7 .title{font-family:Consolas,"Liberation Mono",Menlo,Courier,monospace;font-size:16px}#chart-113a4a4b-ef7a-445d-ab58-a0bcdc808ca7 .legends .legend text{font-family:Consolas,"Liberation Mono",Menlo,Courier,monospace;font-size:14px}#chart-113a4a4b-ef7a-445d-ab58-a0bcdc808ca7 .axis text{font-family:Consolas,"Liberation Mono",Menlo,Courier,monospace;font-size:10px}#chart-113a4a4b-ef7a-445d-ab58-a0bcdc808ca7 .axis text.major{font-family:Consolas,"Liberation Mono",Menlo,Courier,monospace;font-size:10px}#chart-113a4a4b-ef7a-445d-ab58-a0bcdc808ca7 .text-overlay text.value{font-family:Consolas,"Liberation Mono",Menlo,Courier,monospace;font-size:16px}#chart-113a4a4b-ef7a-445d-ab58-a0bcdc808ca7 .text-overlay text.label{font-family:Consolas,"Liberation Mono",Menlo,Courier,monospace;font-size:10px}#chart-113a4a4b-ef7a-445d-ab58-a0bcdc808ca7 .tooltip{font-family:Consolas,"Liberation Mono",Menlo,Courier,monospace;font-size:14px}#chart-113a4a4b-ef7a-445d-ab58-a0bcdc808ca7 text.no_data{font-family:Consolas,"Liberation Mono",Menlo,Courier,monospace;font-size:64px}
#chart-113a4a4b-ef7a-445d-ab58-a0bcdc808ca7{background-color:rgba(249,249,249,1)}#chart-113a4a4b-ef7a-445d-ab58-a0bcdc808ca7 path,#chart-113a4a4b-ef7a-445d-ab58-a0bcdc808ca7 line,#chart-113a4a4b-ef7a-445d-ab58-a0bcdc808ca7 rect,#chart-113a4a4b-ef7a-445d-ab58-a0bcdc808ca7 circle{-webkit-transition:150ms;-moz-transition:150ms;transition:150ms}#chart-113a4a4b-ef7a-445d-ab58-a0bcdc808ca7 .graph &gt; .background{fill:rgba(249,249,249,1)}#chart-113a4a4b-ef7a-445d-ab58-a0bcdc808ca7 .plot &gt; .background{fill:rgba(255,255,255,1)}#chart-113a4a4b-ef7a-445d-ab58-a0bcdc808ca7 .graph{fill:rgba(0,0,0,.87)}#chart-113a4a4b-ef7a-445d-ab58-a0bcdc808ca7 text.no_data{fill:rgba(0,0,0,1)}#chart-113a4a4b-ef7a-445d-ab58-a0bcdc808ca7 .title{fill:rgba(0,0,0,1)}#chart-113a4a4b-ef7a-445d-ab58-a0bcdc808ca7 .legends .legend text{fill:rgba(0,0,0,.87)}#chart-113a4a4b-ef7a-445d-ab58-a0bcdc808ca7 .legends .legend:hover text{fill:rgba(0,0,0,1)}#chart-113a4a4b-ef7a-445d-ab58-a0bcdc808ca7 .axis .line{stroke:rgba(0,0,0,1)}#chart-113a4a4b-ef7a-445d-ab58-a0bcdc808ca7 .axis .guide.line{stroke:rgba(0,0,0,.54)}#chart-113a4a4b-ef7a-445d-ab58-a0bcdc808ca7 .axis .major.line{stroke:rgba(0,0,0,.87)}#chart-113a4a4b-ef7a-445d-ab58-a0bcdc808ca7 .axis text.major{fill:rgba(0,0,0,1)}#chart-113a4a4b-ef7a-445d-ab58-a0bcdc808ca7 .axis.y .guides:hover .guide.line,#chart-113a4a4b-ef7a-445d-ab58-a0bcdc808ca7 .line-graph .axis.x .guides:hover .guide.line,#chart-113a4a4b-ef7a-445d-ab58-a0bcdc808ca7 .stackedline-graph .axis.x .guides:hover .guide.line,#chart-113a4a4b-ef7a-445d-ab58-a0bcdc808ca7 .xy-graph .axis.x .guides:hover .guide.line{stroke:rgba(0,0,0,1)}#chart-113a4a4b-ef7a-445d-ab58-a0bcdc808ca7 .axis .guides:hover text{fill:rgba(0,0,0,1)}#chart-113a4a4b-ef7a-445d-ab58-a0bcdc808ca7 .reactive{fill-opacity:.7;stroke-opacity:.8;stroke-width:1}#chart-113a4a4b-ef7a-445d-ab58-a0bcdc808ca7 .ci{stroke:rgba(0,0,0,.87)}#chart-113a4a4b-ef7a-445d-ab58-a0bcdc808ca7 .reactive.active,#chart-113a4a4b-ef7a-445d-ab58-a0bcdc808ca7 .active .reactive{fill-opacity:.8;stroke-opacity:.9;stroke-width:4}#chart-113a4a4b-ef7a-445d-ab58-a0bcdc808ca7 .ci .reactive.active{stroke-width:1.5}#chart-113a4a4b-ef7a-445d-ab58-a0bcdc808ca7 .series text{fill:rgba(0,0,0,1)}#chart-113a4a4b-ef7a-445d-ab58-a0bcdc808ca7 .tooltip rect{fill:rgba(255,255,255,1);stroke:rgba(0,0,0,1);-webkit-transition:opacity 150ms;-moz-transition:opacity 150ms;transition:opacity 150ms}#chart-113a4a4b-ef7a-445d-ab58-a0bcdc808ca7 .tooltip .label{fill:rgba(0,0,0,.87)}#chart-113a4a4b-ef7a-445d-ab58-a0bcdc808ca7 .tooltip .label{fill:rgba(0,0,0,.87)}#chart-113a4a4b-ef7a-445d-ab58-a0bcdc808ca7 .tooltip .legend{font-size:.8em;fill:rgba(0,0,0,.54)}#chart-113a4a4b-ef7a-445d-ab58-a0bcdc808ca7 .tooltip .x_label{font-size:.6em;fill:rgba(0,0,0,1)}#chart-113a4a4b-ef7a-445d-ab58-a0bcdc808ca7 .tooltip .xlink{font-size:.5em;text-decoration:underline}#chart-113a4a4b-ef7a-445d-ab58-a0bcdc808ca7 .tooltip .value{font-size:1.5em}#chart-113a4a4b-ef7a-445d-ab58-a0bcdc808ca7 .bound{font-size:.5em}#chart-113a4a4b-ef7a-445d-ab58-a0bcdc808ca7 .max-value{font-size:.75em;fill:rgba(0,0,0,.54)}#chart-113a4a4b-ef7a-445d-ab58-a0bcdc808ca7 .map-element{fill:rgba(255,255,255,1);stroke:rgba(0,0,0,.54) !important}#chart-113a4a4b-ef7a-445d-ab58-a0bcdc808ca7 .map-element .reactive{fill-opacity:inherit;stroke-opacity:inherit}#chart-113a4a4b-ef7a-445d-ab58-a0bcdc808ca7 .color-0,#chart-113a4a4b-ef7a-445d-ab58-a0bcdc808ca7 .color-0 a:visited{stroke:#F44336;fill:#F44336}#chart-113a4a4b-ef7a-445d-ab58-a0bcdc808ca7 .text-overlay .color-0 text{fill:black}
#chart-113a4a4b-ef7a-445d-ab58-a0bcdc808ca7 text.no_data{text-anchor:middle}#chart-113a4a4b-ef7a-445d-ab58-a0bcdc808ca7 .guide.line{fill:none}#chart-113a4a4b-ef7a-445d-ab58-a0bcdc808ca7 .centered{text-anchor:middle}#chart-113a4a4b-ef7a-445d-ab58-a0bcdc808ca7 .title{text-anchor:middle}#chart-113a4a4b-ef7a-445d-ab58-a0bcdc808ca7 .legends .legend text{fill-opacity:1}#chart-113a4a4b-ef7a-445d-ab58-a0bcdc808ca7 .axis.x text{text-anchor:middle}#chart-113a4a4b-ef7a-445d-ab58-a0bcdc808ca7 .axis.x:not(.web) text[transform]{text-anchor:start}#chart-113a4a4b-ef7a-445d-ab58-a0bcdc808ca7 .axis.x:not(.web) text[transform].backwards{text-anchor:end}#chart-113a4a4b-ef7a-445d-ab58-a0bcdc808ca7 .axis.y text{text-anchor:end}#chart-113a4a4b-ef7a-445d-ab58-a0bcdc808ca7 .axis.y text[transform].backwards{text-anchor:start}#chart-113a4a4b-ef7a-445d-ab58-a0bcdc808ca7 .axis.y2 text{text-anchor:start}#chart-113a4a4b-ef7a-445d-ab58-a0bcdc808ca7 .axis.y2 text[transform].backwards{text-anchor:end}#chart-113a4a4b-ef7a-445d-ab58-a0bcdc808ca7 .axis .guide.line{stroke-dasharray:4,4;stroke:black}#chart-113a4a4b-ef7a-445d-ab58-a0bcdc808ca7 .axis .major.guide.line{stroke-dasharray:6,6;stroke:black}#chart-113a4a4b-ef7a-445d-ab58-a0bcdc808ca7 .horizontal .axis.y .guide.line,#chart-113a4a4b-ef7a-445d-ab58-a0bcdc808ca7 .horizontal .axis.y2 .guide.line,#chart-113a4a4b-ef7a-445d-ab58-a0bcdc808ca7 .vertical .axis.x .guide.line{opacity:0}#chart-113a4a4b-ef7a-445d-ab58-a0bcdc808ca7 .horizontal .axis.always_show .guide.line,#chart-113a4a4b-ef7a-445d-ab58-a0bcdc808ca7 .vertical .axis.always_show .guide.line{opacity:1 !important}#chart-113a4a4b-ef7a-445d-ab58-a0bcdc808ca7 .axis.y .guides:hover .guide.line,#chart-113a4a4b-ef7a-445d-ab58-a0bcdc808ca7 .axis.y2 .guides:hover .guide.line,#chart-113a4a4b-ef7a-445d-ab58-a0bcdc808ca7 .axis.x .guides:hover .guide.line{opacity:1}#chart-113a4a4b-ef7a-445d-ab58-a0bcdc808ca7 .axis .guides:hover text{opacity:1}#chart-113a4a4b-ef7a-445d-ab58-a0bcdc808ca7 .nofill{fill:none}#chart-113a4a4b-ef7a-445d-ab58-a0bcdc808ca7 .subtle-fill{fill-opacity:.2}#chart-113a4a4b-ef7a-445d-ab58-a0bcdc808ca7 .dot{stroke-width:1px;fill-opacity:1;stroke-opacity:1}#chart-113a4a4b-ef7a-445d-ab58-a0bcdc808ca7 .dot.active{stroke-width:5px}#chart-113a4a4b-ef7a-445d-ab58-a0bcdc808ca7 .dot.negative{fill:transparent}#chart-113a4a4b-ef7a-445d-ab58-a0bcdc808ca7 text,#chart-113a4a4b-ef7a-445d-ab58-a0bcdc808ca7 tspan{stroke:none !important}#chart-113a4a4b-ef7a-445d-ab58-a0bcdc808ca7 .series text.active{opacity:1}#chart-113a4a4b-ef7a-445d-ab58-a0bcdc808ca7 .tooltip rect{fill-opacity:.95;stroke-width:.5}#chart-113a4a4b-ef7a-445d-ab58-a0bcdc808ca7 .tooltip text{fill-opacity:1}#chart-113a4a4b-ef7a-445d-ab58-a0bcdc808ca7 .showable{visibility:hidden}#chart-113a4a4b-ef7a-445d-ab58-a0bcdc808ca7 .showable.shown{visibility:visible}#chart-113a4a4b-ef7a-445d-ab58-a0bcdc808ca7 .gauge-background{fill:rgba(229,229,229,1);stroke:none}#chart-113a4a4b-ef7a-445d-ab58-a0bcdc808ca7 .bg-lines{stroke:rgba(249,249,249,1);stroke-width:2px}</style><script type="text/javascript">window.pygal = window.pygal || {};window.pygal.config = window.pygal.config || {};window.pygal.config['113a4a4b-ef7a-445d-ab58-a0bcdc808ca7'] = {"allow_interruptions": false, "box_mode": "extremes", "classes": ["pygal-chart", "pygal-sparkline"], "css": ["file://style.css", "file://graph.css"], "defs": [], "disable_xml_declaration": false, "dots_size": 2.5, "dynamic_print_values": false, "explicit_size": true, "fill": false, "force_uri_protocol": "https", "formatter": null, "half_pie": false, "height": 50, "include_x_axis": false, "inner_radius": 0, "interpolate": "cubic", "interpolation_parameters": {}, "interpolation_precision": 250, "inverse_y_axis": false, "js": [], "legend_at_bottom": false, "legend_at_bottom_columns": null, "legend_box_size": 12, "logarithmic": false, "margin": 10, "margin_bottom": null, "margin_left": null, "margin_right": null, "margin_top": null, "max_scale": 2, "min_scale": 1, "missing_value_fill_truncation": "x", "no_data_text": "", "no_prefix": false, "order_min": null, "pretty_print": false, "print_labels": false, "print_values": false, "print_values_position": "center", "print_zeroes": true, "range": null, "rounded_bars": null, "secondary_range": null, "show_dots": false, "show_legend": false, "show_minor_x_labels": true, "show_minor_y_labels": true, "show_only_major_dots": false, "show_x_guides": false, "show_x_labels": false, "show_y_guides": true, "show_y_labels": true, "spacing": 0, "stack_from_top": false, "strict": false, "stroke": true, "stroke_style": null, "style": {"background": "rgba(249, 249, 249, 1)", "ci_colors": [], "colors": ["#F44336", "#3F51B5", "#009688", "#FFC107", "#FF5722", "#9C27B0", "#03A9F4", "#8BC34A", "#FF9800", "#E91E63", "#2196F3", "#4CAF50", "#FFEB3B", "#673AB7", "#00BCD4", "#CDDC39", "#9E9E9E", "#607D8B"], "dot_opacity": "1", "font_family": "Consolas, \"Liberation Mono\", Menlo, Courier, monospace", "foreground": "rgba(0, 0, 0, .87)", "foreground_strong": "rgba(0, 0, 0, 1)", "foreground_subtle": "rgba(0, 0, 0, .54)", "guide_stroke_color": "black", "guide_stroke_dasharray": "4,4", "label_font_family": "Consolas, \"Liberation Mono\", Menlo, Courier, monospace", "label_font_size": 10, "legend_font_family": "Consolas, \"Liberation Mono\", Menlo, Courier, monospace", "legend_font_size": 14, "major_guide_stroke_color": "black", "major_guide_stroke_dasharray": "6,6", "major_label_font_family": "Consolas, \"Liberation Mono\", Menlo, Courier, monospace", "major_label_font_size": 10, "no_data_font_family": "Consolas, \"Liberation Mono\", Menlo, Courier, monospace", "no_data_font_size": 64, "opacity": ".7", "opacity_hover": ".8", "plot_background": "rgba(255, 255, 255, 1)", "stroke_opacity": ".8", "stroke_opacity_hover": ".9", "stroke_width": "1", "stroke_width_hover": "4", "title_font_family": "Consolas, \"Liberation Mono\", Menlo, Courier, monospace", "title_font_size": 16, "tooltip_font_family": "Consolas, \"Liberation Mono\", Menlo, Courier, monospace", "tooltip_font_size": 14, "transition": "150ms", "value_background": "rgba(229, 229, 229, 1)", "value_colors": [], "value_font_family": "Consolas, \"Liberation Mono\", Menlo, Courier, monospace", "value_font_size": 16, "value_label_font_family": "Consolas, \"Liberation Mono\", Menlo, Courier, monospace", "value_label_font_size": 10}, "title": null, "tooltip_border_radius": 0, "tooltip_fancy_mode": true, "truncate_label": null, "truncate_legend": null, "width": 200, "x_label_rotation": 0, "x_labels": ["2024/12", "2024/11", "2024/10", "2024/9"], "x_labels_major": null, "x_labels_major_count": null, "x_labels_major_every": null, "x_title": null, "xrange": null, "y_label_rotation": 0, "y_labels": null, "y_labels_major": null, "y_labels_major_count": null, "y_labels_major_every": null, "y_title": null, "zero": 0, "legends": [""]}</script></defs><title>Pygal</title><g class="graph line-graph vertical"><rect x="0" y="0" width="200" height="50" class="background" /><g transform="translate(76, 10)" class="plot"><rect x="0" y="0" width="114.0" height="30" class="background" /><g class="axis y always_show"><path d="M0.000000 30.000000 h114.000000" class="line" /><g class="guides"><path d="M0.000000 29.423077 h114.000000" class="guide line" /><text x="-5" y="32.92307692307692" class="">3</text><title>3</title></g><g class="guides"><path d="M0.000000 0.576923 h114.000000" class="guide line" /><text x="-5" y="4.07692307692308" class="">11.24073024</text><title>11.24073024</title></g></g><g class="series serie-0 color-0"><path d="M2.192308 29.423077 L2.338462 29.273726 2.484615 29.124378 2.630769 28.975037 2.776923 28.825707 2.923077 28.676392 3.069231 28.527094 3.215385 28.377818 3.361538 28.228567 3.507692 28.079345 3.653846 27.930155 3.800000 27.781000 3.946154 27.631886 4.092308 27.482814 4.238462 27.333789 4.384615 27.184814 4.530769 27.035893 4.676923 26.887029 4.823077 26.738226 4.969231 26.589487 5.115385 26.440817 5.261538 26.292218 5.407692 26.143695 5.553846 25.995250 5.700000 25.846888 5.846154 25.698612 5.992308 25.550426 6.138462 25.402333 6.284615 25.254336 6.430769 25.106440 6.576923 24.958648 6.723077 24.810963 6.869231 24.663390 7.015385 24.515931 7.161538 24.368591 7.307692 24.221372 7.453846 24.074279 7.600000 23.927315 7.746154 23.780483 7.892308 23.633788 8.038462 23.487233 8.184615 23.340820 8.330769 23.194555 8.476923 23.048441 8.623077 22.902480 8.769231 22.756677 8.915385 22.611036 9.061538 22.465559 9.207692 22.320251 9.353846 22.175115 9.500000 22.030155 9.646154 21.885374 9.792308 21.740775 9.938462 21.596363 10.084615 21.452141 10.230769 21.308113 10.376923 21.164281 10.523077 21.020651 10.669231 20.877225 10.815385 20.734006 10.961538 20.590999 11.107692 20.448207 11.253846 20.305634 11.400000 20.163283 11.546154 20.021158 11.692308 19.879263 11.838462 19.737600 11.984615 19.596174 12.130769 19.454988 12.276923 19.314045 12.423077 19.173350 12.569231 19.032906 12.715385 18.892717 12.861538 18.752785 13.007692 18.613116 13.153846 18.473711 13.300000 18.334576 13.446154 18.195712 13.592308 18.057125 13.738462 17.918817 13.884615 17.780793 14.030769 17.643055 14.176923 17.505608 14.323077 17.368454 14.469231 17.231598 14.615385 17.095043 14.761538 16.958793 14.907692 16.822851 15.053846 16.687221 15.200000 16.551906 15.346154 16.416911 15.492308 16.282238 15.638462 16.147891 15.784615 16.013874 15.930769 15.880190 16.076923 15.746843 16.223077 15.613837 16.369231 15.481175 16.515385 15.348860 16.661538 15.216897 16.807692 15.085289 16.953846 14.954039 17.100000 14.823151 17.246154 14.692629 17.392308 14.562475 17.538462 14.432695 17.684615 14.303291 17.830769 14.174267 17.976923 14.045627 18.123077 13.917374 18.269231 13.789511 18.415385 13.662043 18.561538 13.534972 18.707692 13.408303 18.853846 13.282039 19.000000 13.156184 19.146154 13.030741 19.292308 12.905714 19.438462 12.781106 19.584615 12.656921 19.730769 12.533162 19.876923 12.409834 20.023077 12.286939 20.169231 12.164482 20.315385 12.042466 20.461538 11.920894 20.607692 11.799770 20.753846 11.679098 20.900000 11.558881 21.046154 11.439123 21.192308 11.319827 21.338462 11.200997 21.484615 11.082637 21.630769 10.964750 21.776923 10.847339 21.923077 10.730409 22.069231 10.613963 22.215385 10.498005 22.361538 10.382537 22.507692 10.267564 22.653846 10.153089 22.800000 10.039116 22.946154 9.925649 23.092308 9.812691 23.238462 9.700245 23.384615 9.588315 23.530769 9.476905 23.676923 9.366018 23.823077 9.255659 23.969231 9.145829 24.115385 9.036534 24.261538 8.927777 24.407692 8.819560 24.553846 8.711889 24.700000 8.604766 24.846154 8.498195 24.992308 8.392180 25.138462 8.286723 25.284615 8.181830 25.430769 8.077503 25.576923 7.973746 25.723077 7.870562 25.869231 7.767955 26.015385 7.665929 26.161538 7.564488 26.307692 7.463634 26.453846 7.363372 26.600000 7.263704 26.746154 7.164635 26.892308 7.066169 27.038462 6.968308 27.184615 6.871057 27.330769 6.774418 27.476923 6.678396 27.623077 6.582994 27.769231 6.488216 27.915385 6.394065 28.061538 6.300545 28.207692 6.207660 28.353846 6.115412 28.500000 6.023806 28.646154 5.932846 28.792308 5.842534 28.938462 5.752874 29.084615 5.663870 29.230769 5.575526 29.376923 5.487845 29.523077 5.400831 29.669231 5.314487 29.815385 5.228817 29.961538 5.143825 30.107692 5.059513 30.253846 4.975886 30.400000 4.892947 30.546154 4.810700 30.692308 4.729149 30.838462 4.648296 30.984615 4.568146 31.130769 4.488702 31.276923 4.409968 31.423077 4.331947 31.569231 4.254643 31.715385 4.178060 31.861538 4.102200 32.007692 4.027069 32.153846 3.952668 32.300000 3.879002 32.446154 3.806075 32.592308 3.733889 32.738462 3.662450 32.884615 3.591759 33.030769 3.521821 33.176923 3.452639 33.323077 3.384218 33.469231 3.316559 33.615385 3.249668 33.761538 3.183548 33.907692 3.118202 34.053846 3.053633 34.200000 2.989846 34.346154 2.926844 34.492308 2.864631 34.638462 2.803209 34.784615 2.742584 34.930769 2.682758 35.076923 2.623734 35.223077 2.565517 35.369231 2.508111 35.515385 2.451518 35.661538 2.395742 35.807692 2.340787 35.953846 2.286656 36.100000 2.233354 36.246154 2.180883 36.392308 2.129247 36.538462 2.078450 36.684615 2.028496 36.830769 1.979387 36.976923 1.931128 37.123077 1.883722 37.269231 1.837172 37.415385 1.791483 37.561538 1.746658 37.707692 1.702700 37.853846 1.659613 38.000000 1.617401 38.146154 1.576067 38.292308 1.535614 38.438462 1.496047 38.584615 1.457369 38.730769 1.419584 38.876923 1.382693 39.023077 1.346694 39.169231 1.311582 39.315385 1.277353 39.461538 1.244002 39.607692 1.211525 39.753846 1.179917 39.900000 1.149173 40.046154 1.119290 40.192308 1.090263 40.338462 1.062087 40.484615 1.034758 40.630769 1.008271 40.776923 0.982622 40.923077 0.957806 41.069231 0.933820 41.215385 0.910658 41.361538 0.888315 41.507692 0.866788 41.653846 0.846072 41.800000 0.826163 41.946154 0.807056 42.092308 0.788746 42.238462 0.771229 42.384615 0.754501 42.530769 0.738557 42.676923 0.723393 42.823077 0.709003 42.969231 0.695385 43.115385 0.682532 43.261538 0.670441 43.407692 0.659108 43.553846 0.648527 43.700000 0.638694 43.846154 0.629605 43.992308 0.621256 44.138462 0.613641 44.284615 0.606757 44.430769 0.600598 44.576923 0.595161 44.723077 0.590441 44.869231 0.586433 45.015385 0.583133 45.161538 0.580537 45.307692 0.578639 45.453846 0.577436 45.600000 0.576923 45.746154 0.577096 45.892308 0.577949 46.038462 0.579479 46.184615 0.581681 46.330769 0.584551 46.476923 0.588084 46.623077 0.592276 46.769231 0.597121 46.915385 0.602617 47.061538 0.608757 47.207692 0.615539 47.353846 0.622956 47.500000 0.631006 47.646154 0.639682 47.792308 0.648982 47.938462 0.658899 48.084615 0.669431 48.230769 0.680572 48.376923 0.692318 48.523077 0.704664 48.669231 0.717606 48.815385 0.731139 48.961538 0.745260 49.107692 0.759963 49.253846 0.775244 49.400000 0.791098 49.546154 0.807522 49.692308 0.824510 49.838462 0.842058 49.984615 0.860162 50.130769 0.878816 50.276923 0.898018 50.423077 0.917761 50.569231 0.938043 50.715385 0.958857 50.861538 0.980200 51.007692 1.002068 51.153846 1.024455 51.300000 1.047357 51.446154 1.070770 51.592308 1.094690 51.738462 1.119111 51.884615 1.144030 52.030769 1.169441 52.176923 1.195341 52.323077 1.221725 52.469231 1.248588 52.615385 1.275926 52.761538 1.303735 52.907692 1.332009 53.053846 1.360745 53.200000 1.389938 53.346154 1.419584 53.492308 1.449678 53.638462 1.480215 53.784615 1.511191 53.930769 1.542602 54.076923 1.574443 54.223077 1.606710 54.369231 1.639398 54.515385 1.672503 54.661538 1.706019 54.807692 1.739944 54.953846 1.774272 55.100000 1.808998 55.246154 1.844119 55.392308 1.879630 55.538462 1.915526 55.684615 1.951803 55.830769 1.988456 55.976923 2.025481 56.123077 2.062874 56.269231 2.100629 56.415385 2.138743 56.561538 2.177211 56.707692 2.216028 56.853846 2.255190 57.000000 2.294693 57.146154 2.334532 57.292308 2.374703 57.438462 2.415200 57.584615 2.456020 57.730769 2.497158 57.876923 2.538610 58.023077 2.580371 58.169231 2.622437 58.315385 2.664803 58.461538 2.707465 58.607692 2.750418 58.753846 2.793657 58.900000 2.837179 59.046154 2.880979 59.192308 2.925052 59.338462 2.969394 59.484615 3.014000 59.630769 3.058866 59.776923 3.103987 59.923077 3.149360 60.069231 3.194979 60.215385 3.240839 60.361538 3.286938 60.507692 3.333269 60.653846 3.379829 60.800000 3.426612 60.946154 3.473616 61.092308 3.520834 61.238462 3.568263 61.384615 3.615898 61.530769 3.663735 61.676923 3.711768 61.823077 3.759995 61.969231 3.808410 62.115385 3.857008 62.261538 3.905786 62.407692 3.954738 62.553846 4.003861 62.700000 4.053149 62.846154 4.102599 62.992308 4.152205 63.138462 4.201964 63.284615 4.251871 63.430769 4.301921 63.576923 4.352110 63.723077 4.402433 63.869231 4.452887 64.015385 4.503465 64.161538 4.554165 64.307692 4.604981 64.453846 4.655910 64.600000 4.706945 64.746154 4.758084 64.892308 4.809322 65.038462 4.860653 65.184615 4.912074 65.330769 4.963581 65.476923 5.015168 65.623077 5.066831 65.769231 5.118565 65.915385 5.170367 66.061538 5.222232 66.207692 5.274155 66.353846 5.326132 66.500000 5.378158 66.646154 5.430229 66.792308 5.482340 66.938462 5.534487 67.084615 5.586665 67.230769 5.638870 67.376923 5.691098 67.523077 5.743343 67.669231 5.795602 67.815385 5.847870 67.961538 5.900143 68.107692 5.952415 68.253846 6.004683 68.400000 6.056942 68.546154 6.109188 68.692308 6.161415 68.838462 6.213621 68.984615 6.265799 69.130769 6.317946 69.276923 6.370057 69.423077 6.422128 69.569231 6.474154 69.715385 6.526131 69.861538 6.578054 70.007692 6.629918 70.153846 6.681720 70.300000 6.733455 70.446154 6.785118 70.592308 6.836705 70.738462 6.888211 70.884615 6.939633 71.030769 6.990964 71.176923 7.042201 71.323077 7.093340 71.469231 7.144376 71.615385 7.195304 71.761538 7.246121 71.907692 7.296820 72.053846 7.347399 72.200000 7.397853 72.346154 7.448176 72.492308 7.498365 72.638462 7.548415 72.784615 7.598322 72.930769 7.648081 73.076923 7.697687 73.223077 7.747137 73.369231 7.796425 73.515385 7.845548 73.661538 7.894500 73.807692 7.943278 73.953846 7.991876 74.100000 8.040291 74.246154 8.088517 74.392308 8.136551 74.538462 8.184388 74.684615 8.232023 74.830769 8.279452 74.976923 8.326670 75.123077 8.373673 75.269231 8.420457 75.415385 8.467018 75.561538 8.513355 75.707692 8.559471 75.853846 8.605365 76.000000 8.651038 76.146154 8.696492 76.292308 8.741727 76.438462 8.786745 76.584615 8.831545 76.730769 8.876130 76.876923 8.920500 77.023077 8.964655 77.169231 9.008597 77.315385 9.052327 77.461538 9.095845 77.607692 9.139153 77.753846 9.182251 77.900000 9.225141 78.046154 9.267822 78.192308 9.310296 78.338462 9.352564 78.484615 9.394628 78.630769 9.436486 78.776923 9.478142 78.923077 9.519594 79.069231 9.560846 79.215385 9.601896 79.361538 9.642747 79.507692 9.683398 79.653846 9.723852 79.800000 9.764108 79.946154 9.804169 80.092308 9.844033 80.238462 9.883704 80.384615 9.923181 80.530769 9.962465 80.676923 10.001557 80.823077 10.040459 80.969231 10.079170 81.115385 10.117693 81.261538 10.156027 81.407692 10.194174 81.553846 10.232135 81.700000 10.269910 81.846154 10.307501 81.992308 10.344907 82.138462 10.382131 82.284615 10.419174 82.430769 10.456035 82.576923 10.492716 82.723077 10.529217 82.869231 10.565541 83.015385 10.601687 83.161538 10.637656 83.307692 10.673450 83.453846 10.709069 83.600000 10.744515 83.746154 10.779787 83.892308 10.814887 84.038462 10.849816 84.184615 10.884575 84.330769 10.919165 84.476923 10.953586 84.623077 10.987839 84.769231 11.021926 84.915385 11.055847 85.061538 11.089603 85.207692 11.123195 85.353846 11.156624 85.500000 11.189891 85.646154 11.222996 85.792308 11.255941 85.938462 11.288727 86.084615 11.321354 86.230769 11.353823 86.376923 11.386136 86.523077 11.418292 86.669231 11.450294 86.815385 11.482141 86.961538 11.513835 87.107692 11.545377 87.253846 11.576767 87.400000 11.608007 87.546154 11.639097 87.692308 11.670039 87.838462 11.700832 87.984615 11.731479 88.130769 11.761979 88.276923 11.792335 88.423077 11.822546 88.569231 11.852613 88.715385 11.882538 88.861538 11.912322 89.007692 11.941965 89.153846 11.971468 89.300000 12.000832 89.446154 12.030059 89.592308 12.059148 89.738462 12.088101 89.884615 12.116918 90.030769 12.145602 90.176923 12.174151 90.323077 12.202568 90.469231 12.230854 90.615385 12.259008 90.761538 12.287033 90.907692 12.314928 91.053846 12.342695 91.200000 12.370336 91.346154 12.397849 91.492308 12.425238 91.638462 12.452501 91.784615 12.479642 91.930769 12.506659 92.076923 12.533554 92.223077 12.560329 92.369231 12.586983 92.515385 12.613518 92.661538 12.639935 92.807692 12.666235 92.953846 12.692418 93.100000 12.718485 93.246154 12.744438 93.392308 12.770277 93.538462 12.796003 93.684615 12.821617 93.830769 12.847120 93.976923 12.872513 94.123077 12.897796 94.269231 12.922971 94.415385 12.948038 94.561538 12.972999 94.707692 12.997854 94.853846 13.022604 95.000000 13.047250 95.146154 13.071794 95.292308 13.096235 95.438462 13.120574 95.584615 13.144814 95.730769 13.168954 95.876923 13.192995 96.023077 13.216939 96.169231 13.240785 96.315385 13.264536 96.461538 13.288192 96.607692 13.311754 96.753846 13.335223 96.900000 13.358599 97.046154 13.381884 97.192308 13.405079 97.338462 13.428184 97.484615 13.451200 97.630769 13.474128 97.776923 13.496970 97.923077 13.519725 98.069231 13.542396 98.215385 13.564982 98.361538 13.587484 98.507692 13.609905 98.653846 13.632243 98.800000 13.654501 98.946154 13.676680 99.092308 13.698779 99.238462 13.720801 99.384615 13.742745 99.530769 13.764613 99.676923 13.786406 99.823077 13.808125 99.969231 13.829770 100.115385 13.851343 100.261538 13.872844 100.407692 13.894274 100.553846 13.915634 100.700000 13.936925 100.846154 13.958148 100.992308 13.979304 101.138462 14.000393 101.284615 14.021417 101.430769 14.042377 101.576923 14.063273 101.723077 14.084106 101.869231 14.104878 102.015385 14.125588 102.161538 14.146239 102.307692 14.166830 102.453846 14.187363 102.600000 14.207839 102.746154 14.228258 102.892308 14.248622 103.038462 14.268931 103.184615 14.289186 103.330769 14.309388 103.476923 14.329539 103.623077 14.349638 103.769231 14.369687 103.915385 14.389687 104.061538 14.409639 104.207692 14.429543 104.353846 14.449400 104.500000 14.469212 104.646154 14.488979 104.792308 14.508702 104.938462 14.528382 105.084615 14.548019 105.230769 14.567616 105.376923 14.587172 105.523077 14.606689 105.669231 14.626167 105.815385 14.645608 105.961538 14.665012 106.107692 14.684380 106.253846 14.703713 106.400000 14.723013 106.546154 14.742278 106.692308 14.761512 106.838462 14.780715 106.984615 14.799886 107.130769 14.819029 107.276923 14.838142 107.423077 14.857228 107.569231 14.876287 107.715385 14.895320 107.861538 14.914328 108.007692 14.933312 108.153846 14.952272 108.300000 14.971210 108.446154 14.990126 108.592308 15.009022 108.738462 15.027898 108.884615 15.046756 109.030769 15.065595 109.176923 15.084418 109.323077 15.103224 109.469231 15.122015 109.615385 15.140791 109.761538 15.159555 109.907692 15.178305 110.053846 15.197044 110.200000 15.215773 110.346154 15.234491 110.492308 15.253201 110.638462 15.271902 110.784615 15.290596 110.930769 15.309284 111.076923 15.327967 111.223077 15.346645 111.369231 15.365319 111.515385 15.383991 111.661538 15.402661 111.807692 15.421330" class="line reactive nofill" /></g></g><g class="titles" /><g transform="translate(76, 10)" class="plot overlay"><g class="series serie-0 color-0" /></g><g transform="translate(76, 10)" class="plot text-overlay"><g class="series serie-0 color-0" /></g><g transform="translate(76, 10)" class="plot tooltip-overlay"><g transform="translate(0 0)" style="opacity: 0" class="tooltip"><rect rx="0" ry="0" width="0" height="0" class="tooltip-box" /><g class="text" /></g></g></g></svg>