<?xml version='1.0' encoding='utf-8'?>
<svg xmlns="http://www.w3.org/2000/svg" id="chart-385c69b5-1465-4a00-9749-062132bf8dac" class="pygal-chart pygal-sparkline" viewBox="0 0 200 50" width="200" height="50"><!--Generated with pygal 3.0.5 (etree) ©Kozea 2012-2016 on 2025-01-12--><!--http://pygal.org--><!--http://github.com/Kozea/pygal--><defs><style type="text/css">#chart-385c69b5-1465-4a00-9749-062132bf8dac{-webkit-user-select:none;-webkit-font-smoothing:antialiased;font-family:Consolas,"Liberation Mono",Menlo,Courier,monospace}#chart-385c69b5-1465-4a00-9749-062132bf8dac .title{font-family:Consolas,"Liberation Mono",Menlo,Courier,monospace;font-size:16px}#chart-385c69b5-1465-4a00-9749-062132bf8dac .legends .legend text{font-family:Consolas,"Liberation Mono",Menlo,Courier,monospace;font-size:14px}#chart-385c69b5-1465-4a00-9749-062132bf8dac .axis text{font-family:Consolas,"Liberation Mono",Menlo,Courier,monospace;font-size:10px}#chart-385c69b5-1465-4a00-9749-062132bf8dac .axis text.major{font-family:Consolas,"Liberation Mono",Menlo,Courier,monospace;font-size:10px}#chart-385c69b5-1465-4a00-9749-062132bf8dac .text-overlay text.value{font-family:Consolas,"Liberation Mono",Menlo,Courier,monospace;font-size:16px}#chart-385c69b5-1465-4a00-9749-062132bf8dac .text-overlay text.label{font-family:Consolas,"Liberation Mono",Menlo,Courier,monospace;font-size:10px}#chart-385c69b5-1465-4a00-9749-062132bf8dac .tooltip{font-family:Consolas,"Liberation Mono",Menlo,Courier,monospace;font-size:14px}#chart-385c69b5-1465-4a00-9749-062132bf8dac text.no_data{font-family:Consolas,"Liberation Mono",Menlo,Courier,monospace;font-size:64px}
#chart-385c69b5-1465-4a00-9749-062132bf8dac{background-color:rgba(249,249,249,1)}#chart-385c69b5-1465-4a00-9749-062132bf8dac path,#chart-385c69b5-1465-4a00-9749-062132bf8dac line,#chart-385c69b5-1465-4a00-9749-062132bf8dac rect,#chart-385c69b5-1465-4a00-9749-062132bf8dac circle{-webkit-transition:150ms;-moz-transition:150ms;transition:150ms}#chart-385c69b5-1465-4a00-9749-062132bf8dac .graph &gt; .background{fill:rgba(249,249,249,1)}#chart-385c69b5-1465-4a00-9749-062132bf8dac .plot &gt; .background{fill:rgba(255,255,255,1)}#chart-385c69b5-1465-4a00-9749-062132bf8dac .graph{fill:rgba(0,0,0,.87)}#chart-385c69b5-1465-4a00-9749-062132bf8dac text.no_data{fill:rgba(0,0,0,1)}#chart-385c69b5-1465-4a00-9749-062132bf8dac .title{fill:rgba(0,0,0,1)}#chart-385c69b5-1465-4a00-9749-062132bf8dac .legends .legend text{fill:rgba(0,0,0,.87)}#chart-385c69b5-1465-4a00-9749-062132bf8dac .legends .legend:hover text{fill:rgba(0,0,0,1)}#chart-385c69b5-1465-4a00-9749-062132bf8dac .axis .line{stroke:rgba(0,0,0,1)}#chart-385c69b5-1465-4a00-9749-062132bf8dac .axis .guide.line{stroke:rgba(0,0,0,.54)}#chart-385c69b5-1465-4a00-9749-062132bf8dac .axis .major.line{stroke:rgba(0,0,0,.87)}#chart-385c69b5-1465-4a00-9749-062132bf8dac .axis text.major{fill:rgba(0,0,0,1)}#chart-385c69b5-1465-4a00-9749-062132bf8dac .axis.y .guides:hover .guide.line,#chart-385c69b5-1465-4a00-9749-062132bf8dac .line-graph .axis.x .guides:hover .guide.line,#chart-385c69b5-1465-4a00-9749-062132bf8dac .stackedline-graph .axis.x .guides:hover .guide.line,#chart-385c69b5-1465-4a00-9749-062132bf8dac .xy-graph .axis.x .guides:hover .guide.line{stroke:rgba(0,0,0,1)}#chart-385c69b5-1465-4a00-9749-062132bf8dac .axis .guides:hover text{fill:rgba(0,0,0,1)}#chart-385c69b5-1465-4a00-9749-062132bf8dac .reactive{fill-opacity:.7;stroke-opacity:.8;stroke-width:1}#chart-385c69b5-1465-4a00-9749-062132bf8dac .ci{stroke:rgba(0,0,0,.87)}#chart-385c69b5-1465-4a00-9749-062132bf8dac .reactive.active,#chart-385c69b5-1465-4a00-9749-062132bf8dac .active .reactive{fill-opacity:.8;stroke-opacity:.9;stroke-width:4}#chart-385c69b5-1465-4a00-9749-062132bf8dac .ci .reactive.active{stroke-width:1.5}#chart-385c69b5-1465-4a00-9749-062132bf8dac .series text{fill:rgba(0,0,0,1)}#chart-385c69b5-1465-4a00-9749-062132bf8dac .tooltip rect{fill:rgba(255,255,255,1);stroke:rgba(0,0,0,1);-webkit-transition:opacity 150ms;-moz-transition:opacity 150ms;transition:opacity 150ms}#chart-385c69b5-1465-4a00-9749-062132bf8dac .tooltip .label{fill:rgba(0,0,0,.87)}#chart-385c69b5-1465-4a00-9749-062132bf8dac .tooltip .label{fill:rgba(0,0,0,.87)}#chart-385c69b5-1465-4a00-9749-062132bf8dac .tooltip .legend{font-size:.8em;fill:rgba(0,0,0,.54)}#chart-385c69b5-1465-4a00-9749-062132bf8dac .tooltip .x_label{font-size:.6em;fill:rgba(0,0,0,1)}#chart-385c69b5-1465-4a00-9749-062132bf8dac .tooltip .xlink{font-size:.5em;text-decoration:underline}#chart-385c69b5-1465-4a00-9749-062132bf8dac .tooltip .value{font-size:1.5em}#chart-385c69b5-1465-4a00-9749-062132bf8dac .bound{font-size:.5em}#chart-385c69b5-1465-4a00-9749-062132bf8dac .max-value{font-size:.75em;fill:rgba(0,0,0,.54)}#chart-385c69b5-1465-4a00-9749-062132bf8dac .map-element{fill:rgba(255,255,255,1);stroke:rgba(0,0,0,.54) !important}#chart-385c69b5-1465-4a00-9749-062132bf8dac .map-element .reactive{fill-opacity:inherit;stroke-opacity:inherit}#chart-385c69b5-1465-4a00-9749-062132bf8dac .color-0,#chart-385c69b5-1465-4a00-9749-062132bf8dac .color-0 a:visited{stroke:#F44336;fill:#F44336}#chart-385c69b5-1465-4a00-9749-062132bf8dac .text-overlay .color-0 text{fill:black}
#chart-385c69b5-1465-4a00-9749-062132bf8dac text.no_data{text-anchor:middle}#chart-385c69b5-1465-4a00-9749-062132bf8dac .guide.line{fill:none}#chart-385c69b5-1465-4a00-9749-062132bf8dac .centered{text-anchor:middle}#chart-385c69b5-1465-4a00-9749-062132bf8dac .title{text-anchor:middle}#chart-385c69b5-1465-4a00-9749-062132bf8dac .legends .legend text{fill-opacity:1}#chart-385c69b5-1465-4a00-9749-062132bf8dac .axis.x text{text-anchor:middle}#chart-385c69b5-1465-4a00-9749-062132bf8dac .axis.x:not(.web) text[transform]{text-anchor:start}#chart-385c69b5-1465-4a00-9749-062132bf8dac .axis.x:not(.web) text[transform].backwards{text-anchor:end}#chart-385c69b5-1465-4a00-9749-062132bf8dac .axis.y text{text-anchor:end}#chart-385c69b5-1465-4a00-9749-062132bf8dac .axis.y text[transform].backwards{text-anchor:start}#chart-385c69b5-1465-4a00-9749-062132bf8dac .axis.y2 text{text-anchor:start}#chart-385c69b5-1465-4a00-9749-062132bf8dac .axis.y2 text[transform].backwards{text-anchor:end}#chart-385c69b5-1465-4a00-9749-062132bf8dac .axis .guide.line{stroke-dasharray:4,4;stroke:black}#chart-385c69b5-1465-4a00-9749-062132bf8dac .axis .major.guide.line{stroke-dasharray:6,6;stroke:black}#chart-385c69b5-1465-4a00-9749-062132bf8dac .horizontal .axis.y .guide.line,#chart-385c69b5-1465-4a00-9749-062132bf8dac .horizontal .axis.y2 .guide.line,#chart-385c69b5-1465-4a00-9749-062132bf8dac .vertical .axis.x .guide.line{opacity:0}#chart-385c69b5-1465-4a00-9749-062132bf8dac .horizontal .axis.always_show .guide.line,#chart-385c69b5-1465-4a00-9749-062132bf8dac .vertical .axis.always_show .guide.line{opacity:1 !important}#chart-385c69b5-1465-4a00-9749-062132bf8dac .axis.y .guides:hover .guide.line,#chart-385c69b5-1465-4a00-9749-062132bf8dac .axis.y2 .guides:hover .guide.line,#chart-385c69b5-1465-4a00-9749-062132bf8dac .axis.x .guides:hover .guide.line{opacity:1}#chart-385c69b5-1465-4a00-9749-062132bf8dac .axis .guides:hover text{opacity:1}#chart-385c69b5-1465-4a00-9749-062132bf8dac .nofill{fill:none}#chart-385c69b5-1465-4a00-9749-062132bf8dac .subtle-fill{fill-opacity:.2}#chart-385c69b5-1465-4a00-9749-062132bf8dac .dot{stroke-width:1px;fill-opacity:1;stroke-opacity:1}#chart-385c69b5-1465-4a00-9749-062132bf8dac .dot.active{stroke-width:5px}#chart-385c69b5-1465-4a00-9749-062132bf8dac .dot.negative{fill:transparent}#chart-385c69b5-1465-4a00-9749-062132bf8dac text,#chart-385c69b5-1465-4a00-9749-062132bf8dac tspan{stroke:none !important}#chart-385c69b5-1465-4a00-9749-062132bf8dac .series text.active{opacity:1}#chart-385c69b5-1465-4a00-9749-062132bf8dac .tooltip rect{fill-opacity:.95;stroke-width:.5}#chart-385c69b5-1465-4a00-9749-062132bf8dac .tooltip text{fill-opacity:1}#chart-385c69b5-1465-4a00-9749-062132bf8dac .showable{visibility:hidden}#chart-385c69b5-1465-4a00-9749-062132bf8dac .showable.shown{visibility:visible}#chart-385c69b5-1465-4a00-9749-062132bf8dac .gauge-background{fill:rgba(229,229,229,1);stroke:none}#chart-385c69b5-1465-4a00-9749-062132bf8dac .bg-lines{stroke:rgba(249,249,249,1);stroke-width:2px}</style><script type="text/javascript">window.pygal = window.pygal || {};window.pygal.config = window.pygal.config || {};window.pygal.config['385c69b5-1465-4a00-9749-062132bf8dac'] = {"allow_interruptions": false, "box_mode": "extremes", "classes": ["pygal-chart", "pygal-sparkline"], "css": ["file://style.css", "file://graph.css"], "defs": [], "disable_xml_declaration": false, "dots_size": 2.5, "dynamic_print_values": false, "explicit_size": true, "fill": false, "force_uri_protocol": "https", "formatter": null, "half_pie": false, "height": 50, "include_x_axis": false, "inner_radius": 0, "interpolate": "cubic", "interpolation_parameters": {}, "interpolation_precision": 250, "inverse_y_axis": false, "js": [], "legend_at_bottom": false, "legend_at_bottom_columns": null, "legend_box_size": 12, "logarithmic": false, "margin": 10, "margin_bottom": null, "margin_left": null, "margin_right": null, "margin_top": null, "max_scale": 2, "min_scale": 1, "missing_value_fill_truncation": "x", "no_data_text": "", "no_prefix": false, "order_min": null, "pretty_print": false, "print_labels": false, "print_values": false, "print_values_position": "center", "print_zeroes": true, "range": null, "rounded_bars": null, "secondary_range": null, "show_dots": false, "show_legend": false, "show_minor_x_labels": true, "show_minor_y_labels": true, "show_only_major_dots": false, "show_x_guides": false, "show_x_labels": false, "show_y_guides": true, "show_y_labels": true, "spacing": 0, "stack_from_top": false, "strict": false, "stroke": true, "stroke_style": null, "style": {"background": "rgba(249, 249, 249, 1)", "ci_colors": [], "colors": ["#F44336", "#3F51B5", "#009688", "#FFC107", "#FF5722", "#9C27B0", "#03A9F4", "#8BC34A", "#FF9800", "#E91E63", "#2196F3", "#4CAF50", "#FFEB3B", "#673AB7", "#00BCD4", "#CDDC39", "#9E9E9E", "#607D8B"], "dot_opacity": "1", "font_family": "Consolas, \"Liberation Mono\", Menlo, Courier, monospace", "foreground": "rgba(0, 0, 0, .87)", "foreground_strong": "rgba(0, 0, 0, 1)", "foreground_subtle": "rgba(0, 0, 0, .54)", "guide_stroke_color": "black", "guide_stroke_dasharray": "4,4", "label_font_family": "Consolas, \"Liberation Mono\", Menlo, Courier, monospace", "label_font_size": 10, "legend_font_family": "Consolas, \"Liberation Mono\", Menlo, Courier, monospace", "legend_font_size": 14, "major_guide_stroke_color": "black", "major_guide_stroke_dasharray": "6,6", "major_label_font_family": "Consolas, \"Liberation Mono\", Menlo, Courier, monospace", "major_label_font_size": 10, "no_data_font_family": "Consolas, \"Liberation Mono\", Menlo, Courier, monospace", "no_data_font_size": 64, "opacity": ".7", "opacity_hover": ".8", "plot_background": "rgba(255, 255, 255, 1)", "stroke_opacity": ".8", "stroke_opacity_hover": ".9", "stroke_width": "1", "stroke_width_hover": "4", "title_font_family": "Consolas, \"Liberation Mono\", Menlo, Courier, monospace", "title_font_size": 16, "tooltip_font_family": "Consolas, \"Liberation Mono\", Menlo, Courier, monospace", "tooltip_font_size": 14, "transition": "150ms", "value_background": "rgba(229, 229, 229, 1)", "value_colors": [], "value_font_family": "Consolas, \"Liberation Mono\", Menlo, Courier, monospace", "value_font_size": 16, "value_label_font_family": "Consolas, \"Liberation Mono\", Menlo, Courier, monospace", "value_label_font_size": 10}, "title": null, "tooltip_border_radius": 0, "tooltip_fancy_mode": true, "truncate_label": null, "truncate_legend": null, "width": 200, "x_label_rotation": 0, "x_labels": ["2025/1", "2024/12", "2024/11"], "x_labels_major": null, "x_labels_major_count": null, "x_labels_major_every": null, "x_title": null, "xrange": null, "y_label_rotation": 0, "y_labels": null, "y_labels_major": null, "y_labels_major_count": null, "y_labels_major_every": null, "y_title": null, "zero": 0, "legends": [""]}</script></defs><title>Pygal</title><g class="graph line-graph vertical"><rect x="0" y="0" width="200" height="50" class="background" /><g transform="translate(22, 10)" class="plot"><rect x="0" y="0" width="168.0" height="30" class="background" /><g class="axis y always_show"><path d="M0.000000 30.000000 h168.000000" class="line" /><g class="guides"><path d="M0.000000 22.773443 h168.000000" class="guide line" /><text x="-5" y="26.273443416016384" class="">8</text><title>8</title></g><g class="guides"><path d="M0.000000 5.041087 h168.000000" class="guide line" /><text x="-5" y="8.541087397188278" class="">16</text><title>16</title></g></g><g class="series serie-0 color-0"><path d="M3.230769 24.989988 L3.553846 24.839264 3.876923 24.688545 4.200000 24.537836 4.523077 24.387142 4.846154 24.236469 5.169231 24.085822 5.492308 23.935205 5.815385 23.784623 6.138462 23.634083 6.461538 23.483589 6.784615 23.333146 7.107692 23.182758 7.430769 23.032433 7.753846 22.882173 8.076923 22.731985 8.400000 22.581874 8.723077 22.431844 9.046154 22.281901 9.369231 22.132050 9.692308 21.982297 10.015385 21.832645 10.338462 21.683100 10.661538 21.533668 10.984615 21.384354 11.307692 21.235162 11.630769 21.086097 11.953846 20.937165 12.276923 20.788372 12.600000 20.639721 12.923077 20.491218 13.246154 20.342869 13.569231 20.194678 13.892308 20.046650 14.215385 19.898791 14.538462 19.751105 14.861538 19.603598 15.184615 19.456275 15.507692 19.309141 15.830769 19.162201 16.153846 19.015461 16.476923 18.868924 16.800000 18.722597 17.123077 18.576484 17.446154 18.430591 17.769231 18.284923 18.092308 18.139485 18.415385 17.994281 18.738462 17.849317 19.061538 17.704599 19.384615 17.560131 19.707692 17.415918 20.030769 17.271965 20.353846 17.128279 20.676923 16.984862 21.000000 16.841722 21.323077 16.698863 21.646154 16.556289 21.969231 16.414007 22.292308 16.272020 22.615385 16.130335 22.938462 15.988957 23.261538 15.847890 23.584615 15.707140 23.907692 15.566711 24.230769 15.426609 24.553846 15.286839 24.876923 15.147407 25.200000 15.008316 25.523077 14.869573 25.846154 14.731182 26.169231 14.593148 26.492308 14.455477 26.815385 14.318174 27.138462 14.181244 27.461538 14.044691 27.784615 13.908522 28.107692 13.772740 28.430769 13.637352 28.753846 13.502363 29.076923 13.367776 29.400000 13.233598 29.723077 13.099834 30.046154 12.966489 30.369231 12.833568 30.692308 12.701075 31.015385 12.569017 31.338462 12.437398 31.661538 12.306223 31.984615 12.175497 32.307692 12.045226 32.630769 11.915415 32.953846 11.786068 33.276923 11.657191 33.600000 11.528790 33.923077 11.400868 34.246154 11.273431 34.569231 11.146485 34.892308 11.020034 35.215385 10.894083 35.538462 10.768638 35.861538 10.643704 36.184615 10.519286 36.507692 10.395388 36.830769 10.272017 37.153846 10.149176 37.476923 10.026872 37.800000 9.905109 38.123077 9.783893 38.446154 9.663228 38.769231 9.543120 39.092308 9.423573 39.415385 9.304594 39.738462 9.186186 40.061538 9.068356 40.384615 8.951107 40.707692 8.834446 41.030769 8.718378 41.353846 8.602907 41.676923 8.488038 42.000000 8.373777 42.323077 8.260129 42.646154 8.147099 42.969231 8.034692 43.292308 7.922914 43.615385 7.811768 43.938462 7.701261 44.261538 7.591397 44.584615 7.482182 44.907692 7.373621 45.230769 7.265718 45.553846 7.158479 45.876923 7.051909 46.200000 6.946014 46.523077 6.840797 46.846154 6.736265 47.169231 6.632423 47.492308 6.529274 47.815385 6.426826 48.138462 6.325082 48.461538 6.224048 48.784615 6.123729 49.107692 6.024131 49.430769 5.925257 49.753846 5.827114 50.076923 5.729706 50.400000 5.633038 50.723077 5.537116 51.046154 5.441945 51.369231 5.347530 51.692308 5.253876 52.015385 5.160987 52.338462 5.068870 52.661538 4.977529 52.984615 4.886970 53.307692 4.797197 53.630769 4.708215 53.953846 4.620030 54.276923 4.532647 54.600000 4.446071 54.923077 4.360307 55.246154 4.275360 55.569231 4.191235 55.892308 4.107937 56.215385 4.025472 56.538462 3.943845 56.861538 3.863060 57.184615 3.783123 57.507692 3.704038 57.830769 3.625812 58.153846 3.548449 58.476923 3.471953 58.800000 3.396332 59.123077 3.321588 59.446154 3.247728 59.769231 3.174757 60.092308 3.102679 60.415385 3.031500 60.738462 2.961226 61.061538 2.891860 61.384615 2.823408 61.707692 2.755876 62.030769 2.689267 62.353846 2.623589 62.676923 2.558845 63.000000 2.495040 63.323077 2.432181 63.646154 2.370271 63.969231 2.309316 64.292308 2.249321 64.615385 2.190292 64.938462 2.132233 65.261538 2.075149 65.584615 2.019046 65.907692 1.963928 66.230769 1.909802 66.553846 1.856671 66.876923 1.804541 67.200000 1.753417 67.523077 1.703304 67.846154 1.654207 68.169231 1.606132 68.492308 1.559084 68.815385 1.513067 69.138462 1.468086 69.461538 1.424148 69.784615 1.381256 70.107692 1.339417 70.430769 1.298634 70.753846 1.258914 71.076923 1.220261 71.400000 1.182681 71.723077 1.146178 72.046154 1.110758 72.369231 1.076425 72.692308 1.043186 73.015385 1.011044 73.338462 0.980006 73.661538 0.950076 73.984615 0.921259 74.307692 0.893560 74.630769 0.866985 74.953846 0.841539 75.276923 0.817226 75.600000 0.794053 75.923077 0.772023 76.246154 0.751142 76.569231 0.731415 76.892308 0.712848 77.215385 0.695445 77.538462 0.679212 77.861538 0.664153 78.184615 0.650273 78.507692 0.637579 78.830769 0.626075 79.153846 0.615765 79.476923 0.606656 79.800000 0.598752 80.123077 0.592058 80.446154 0.586580 80.769231 0.582322 81.092308 0.579290 81.415385 0.577489 81.738462 0.576923 82.061538 0.577599 82.384615 0.579520 82.707692 0.582693 83.030769 0.587122 83.353846 0.592813 83.676923 0.599770 84.000000 0.607998 84.323077 0.617502 84.646154 0.628277 84.969231 0.640319 85.292308 0.653622 85.615385 0.668182 85.938462 0.683993 86.261538 0.701050 86.584615 0.719347 86.907692 0.738881 87.230769 0.759646 87.553846 0.781636 87.876923 0.804846 88.200000 0.829272 88.523077 0.854909 88.846154 0.881751 89.169231 0.909792 89.492308 0.939029 89.815385 0.969456 90.138462 1.001067 90.461538 1.033859 90.784615 1.067824 91.107692 1.102960 91.430769 1.139259 91.753846 1.176718 92.076923 1.215332 92.400000 1.255094 92.723077 1.296000 93.046154 1.338045 93.369231 1.381224 93.692308 1.425531 94.015385 1.470962 94.338462 1.517511 94.661538 1.565174 94.984615 1.613944 95.307692 1.663818 95.630769 1.714790 95.953846 1.766855 96.276923 1.820007 96.600000 1.874243 96.923077 1.929555 97.246154 1.985941 97.569231 2.043393 97.892308 2.101908 98.215385 2.161480 98.538462 2.222104 98.861538 2.283775 99.184615 2.346487 99.507692 2.410237 99.830769 2.475018 100.153846 2.540825 100.476923 2.607654 100.800000 2.675499 101.123077 2.744355 101.446154 2.814218 101.769231 2.885081 102.092308 2.956940 102.415385 3.029790 102.738462 3.103626 103.061538 3.178442 103.384615 3.254233 103.707692 3.330995 104.030769 3.408722 104.353846 3.487409 104.676923 3.567051 105.000000 3.647643 105.323077 3.729180 105.646154 3.811657 105.969231 3.895068 106.292308 3.979408 106.615385 4.064673 106.938462 4.150857 107.261538 4.237955 107.584615 4.325962 107.907692 4.414874 108.230769 4.504684 108.553846 4.595387 108.876923 4.686980 109.200000 4.779455 109.523077 4.872810 109.846154 4.967037 110.169231 5.062133 110.492308 5.158091 110.815385 5.254908 111.138462 5.352578 111.461538 5.451095 111.784615 5.550455 112.107692 5.650652 112.430769 5.751682 112.753846 5.853539 113.076923 5.956219 113.400000 6.059715 113.723077 6.164024 114.046154 6.269139 114.369231 6.375057 114.692308 6.481770 115.015385 6.589276 115.338462 6.697568 115.661538 6.806641 115.984615 6.916491 116.307692 7.027111 116.630769 7.138498 116.953846 7.250646 117.276923 7.363549 117.600000 7.477203 117.923077 7.591603 118.246154 7.706743 118.569231 7.822619 118.892308 7.939225 119.215385 8.056556 119.538462 8.174607 119.861538 8.293374 120.184615 8.412850 120.507692 8.533031 120.830769 8.653911 121.153846 8.775486 121.476923 8.897751 121.800000 9.020699 122.123077 9.144327 122.446154 9.268629 122.769231 9.393601 123.092308 9.519236 123.415385 9.645529 123.738462 9.772477 124.061538 9.900073 124.384615 10.028313 124.707692 10.157190 125.030769 10.286702 125.353846 10.416841 125.676923 10.547603 126.000000 10.678984 126.323077 10.810977 126.646154 10.943578 126.969231 11.076781 127.292308 11.210582 127.615385 11.344975 127.938462 11.479956 128.261538 11.615519 128.584615 11.751659 128.907692 11.888371 129.230769 12.025650 129.553846 12.163490 129.876923 12.301887 130.200000 12.440836 130.523077 12.580331 130.846154 12.720368 131.169231 12.860941 131.492308 13.002045 131.815385 13.143674 132.138462 13.285825 132.461538 13.428492 132.784615 13.571669 133.107692 13.715352 133.430769 13.859535 133.753846 14.004214 134.076923 14.149383 134.400000 14.295037 134.723077 14.441171 135.046154 14.587780 135.369231 14.734859 135.692308 14.882403 136.015385 15.030406 136.338462 15.178864 136.661538 15.327772 136.984615 15.477123 137.307692 15.626914 137.630769 15.777139 137.953846 15.927792 138.276923 16.078870 138.600000 16.230367 138.923077 16.382277 139.246154 16.534595 139.569231 16.687318 139.892308 16.840438 140.215385 16.993952 140.538462 17.147853 140.861538 17.302138 141.184615 17.456801 141.507692 17.611837 141.830769 17.767240 142.153846 17.923006 142.476923 18.079129 142.800000 18.235605 143.123077 18.392428 143.446154 18.549593 143.769231 18.707095 144.092308 18.864929 144.415385 19.023090 144.738462 19.181573 145.061538 19.340372 145.384615 19.499483 145.707692 19.658900 146.030769 19.818619 146.353846 19.978634 146.676923 20.138940 147.000000 20.299531 147.323077 20.460404 147.646154 20.621553 147.969231 20.782972 148.292308 20.944657 148.615385 21.106602 148.938462 21.268803 149.261538 21.431253 149.584615 21.593949 149.907692 21.756885 150.230769 21.920056 150.553846 22.083457 150.876923 22.247082 151.200000 22.410927 151.523077 22.574987 151.846154 22.739255 152.169231 22.903729 152.492308 23.068401 152.815385 23.233267 153.138462 23.398323 153.461538 23.563562 153.784615 23.728980 154.107692 23.894571 154.430769 24.060331 154.753846 24.226255 155.076923 24.392337 155.400000 24.558572 155.723077 24.724955 156.046154 24.891481 156.369231 25.058145 156.692308 25.224942 157.015385 25.391866 157.338462 25.558913 157.661538 25.726078 157.984615 25.893354 158.307692 26.060739 158.630769 26.228225 158.953846 26.395808 159.276923 26.563483 159.600000 26.731245 159.923077 26.899089 160.246154 27.067009 160.569231 27.235001 160.892308 27.403059 161.215385 27.571179 161.538462 27.739354 161.861538 27.907581 162.184615 28.075854 162.507692 28.244167 162.830769 28.412516 163.153846 28.580896 163.476923 28.749302 163.800000 28.917728 164.123077 29.086169 164.446154 29.254620 164.769231 29.423077" class="line reactive nofill" /></g></g><g class="titles" /><g transform="translate(22, 10)" class="plot overlay"><g class="series serie-0 color-0" /></g><g transform="translate(22, 10)" class="plot text-overlay"><g class="series serie-0 color-0" /></g><g transform="translate(22, 10)" class="plot tooltip-overlay"><g transform="translate(0 0)" style="opacity: 0" class="tooltip"><rect rx="0" ry="0" width="0" height="0" class="tooltip-box" /><g class="text" /></g></g></g></svg>