<?xml version='1.0' encoding='utf-8'?>
<svg xmlns="http://www.w3.org/2000/svg" id="chart-e4c62514-93f8-4d5c-a370-d4fed5ef618e" class="pygal-chart pygal-sparkline" viewBox="0 0 200 50" width="200" height="50"><!--Generated with pygal 3.0.5 (etree) ©Kozea 2012-2016 on 2025-02-09--><!--http://pygal.org--><!--http://github.com/Kozea/pygal--><defs><style type="text/css">#chart-e4c62514-93f8-4d5c-a370-d4fed5ef618e{-webkit-user-select:none;-webkit-font-smoothing:antialiased;font-family:Consolas,"Liberation Mono",Menlo,Courier,monospace}#chart-e4c62514-93f8-4d5c-a370-d4fed5ef618e .title{font-family:Consolas,"Liberation Mono",Menlo,Courier,monospace;font-size:16px}#chart-e4c62514-93f8-4d5c-a370-d4fed5ef618e .legends .legend text{font-family:Consolas,"Liberation Mono",Menlo,Courier,monospace;font-size:14px}#chart-e4c62514-93f8-4d5c-a370-d4fed5ef618e .axis text{font-family:Consolas,"Liberation Mono",Menlo,Courier,monospace;font-size:10px}#chart-e4c62514-93f8-4d5c-a370-d4fed5ef618e .axis text.major{font-family:Consolas,"Liberation Mono",Menlo,Courier,monospace;font-size:10px}#chart-e4c62514-93f8-4d5c-a370-d4fed5ef618e .text-overlay text.value{font-family:Consolas,"Liberation Mono",Menlo,Courier,monospace;font-size:16px}#chart-e4c62514-93f8-4d5c-a370-d4fed5ef618e .text-overlay text.label{font-family:Consolas,"Liberation Mono",Menlo,Courier,monospace;font-size:10px}#chart-e4c62514-93f8-4d5c-a370-d4fed5ef618e .tooltip{font-family:Consolas,"Liberation Mono",Menlo,Courier,monospace;font-size:14px}#chart-e4c62514-93f8-4d5c-a370-d4fed5ef618e text.no_data{font-family:Consolas,"Liberation Mono",Menlo,Courier,monospace;font-size:64px}
#chart-e4c62514-93f8-4d5c-a370-d4fed5ef618e{background-color:rgba(249,249,249,1)}#chart-e4c62514-93f8-4d5c-a370-d4fed5ef618e path,#chart-e4c62514-93f8-4d5c-a370-d4fed5ef618e line,#chart-e4c62514-93f8-4d5c-a370-d4fed5ef618e rect,#chart-e4c62514-93f8-4d5c-a370-d4fed5ef618e circle{-webkit-transition:150ms;-moz-transition:150ms;transition:150ms}#chart-e4c62514-93f8-4d5c-a370-d4fed5ef618e .graph &gt; .background{fill:rgba(249,249,249,1)}#chart-e4c62514-93f8-4d5c-a370-d4fed5ef618e .plot &gt; .background{fill:rgba(255,255,255,1)}#chart-e4c62514-93f8-4d5c-a370-d4fed5ef618e .graph{fill:rgba(0,0,0,.87)}#chart-e4c62514-93f8-4d5c-a370-d4fed5ef618e text.no_data{fill:rgba(0,0,0,1)}#chart-e4c62514-93f8-4d5c-a370-d4fed5ef618e .title{fill:rgba(0,0,0,1)}#chart-e4c62514-93f8-4d5c-a370-d4fed5ef618e .legends .legend text{fill:rgba(0,0,0,.87)}#chart-e4c62514-93f8-4d5c-a370-d4fed5ef618e .legends .legend:hover text{fill:rgba(0,0,0,1)}#chart-e4c62514-93f8-4d5c-a370-d4fed5ef618e .axis .line{stroke:rgba(0,0,0,1)}#chart-e4c62514-93f8-4d5c-a370-d4fed5ef618e .axis .guide.line{stroke:rgba(0,0,0,.54)}#chart-e4c62514-93f8-4d5c-a370-d4fed5ef618e .axis .major.line{stroke:rgba(0,0,0,.87)}#chart-e4c62514-93f8-4d5c-a370-d4fed5ef618e .axis text.major{fill:rgba(0,0,0,1)}#chart-e4c62514-93f8-4d5c-a370-d4fed5ef618e .axis.y .guides:hover .guide.line,#chart-e4c62514-93f8-4d5c-a370-d4fed5ef618e .line-graph .axis.x .guides:hover .guide.line,#chart-e4c62514-93f8-4d5c-a370-d4fed5ef618e .stackedline-graph .axis.x .guides:hover .guide.line,#chart-e4c62514-93f8-4d5c-a370-d4fed5ef618e .xy-graph .axis.x .guides:hover .guide.line{stroke:rgba(0,0,0,1)}#chart-e4c62514-93f8-4d5c-a370-d4fed5ef618e .axis .guides:hover text{fill:rgba(0,0,0,1)}#chart-e4c62514-93f8-4d5c-a370-d4fed5ef618e .reactive{fill-opacity:.7;stroke-opacity:.8;stroke-width:1}#chart-e4c62514-93f8-4d5c-a370-d4fed5ef618e .ci{stroke:rgba(0,0,0,.87)}#chart-e4c62514-93f8-4d5c-a370-d4fed5ef618e .reactive.active,#chart-e4c62514-93f8-4d5c-a370-d4fed5ef618e .active .reactive{fill-opacity:.8;stroke-opacity:.9;stroke-width:4}#chart-e4c62514-93f8-4d5c-a370-d4fed5ef618e .ci .reactive.active{stroke-width:1.5}#chart-e4c62514-93f8-4d5c-a370-d4fed5ef618e .series text{fill:rgba(0,0,0,1)}#chart-e4c62514-93f8-4d5c-a370-d4fed5ef618e .tooltip rect{fill:rgba(255,255,255,1);stroke:rgba(0,0,0,1);-webkit-transition:opacity 150ms;-moz-transition:opacity 150ms;transition:opacity 150ms}#chart-e4c62514-93f8-4d5c-a370-d4fed5ef618e .tooltip .label{fill:rgba(0,0,0,.87)}#chart-e4c62514-93f8-4d5c-a370-d4fed5ef618e .tooltip .label{fill:rgba(0,0,0,.87)}#chart-e4c62514-93f8-4d5c-a370-d4fed5ef618e .tooltip .legend{font-size:.8em;fill:rgba(0,0,0,.54)}#chart-e4c62514-93f8-4d5c-a370-d4fed5ef618e .tooltip .x_label{font-size:.6em;fill:rgba(0,0,0,1)}#chart-e4c62514-93f8-4d5c-a370-d4fed5ef618e .tooltip .xlink{font-size:.5em;text-decoration:underline}#chart-e4c62514-93f8-4d5c-a370-d4fed5ef618e .tooltip .value{font-size:1.5em}#chart-e4c62514-93f8-4d5c-a370-d4fed5ef618e .bound{font-size:.5em}#chart-e4c62514-93f8-4d5c-a370-d4fed5ef618e .max-value{font-size:.75em;fill:rgba(0,0,0,.54)}#chart-e4c62514-93f8-4d5c-a370-d4fed5ef618e .map-element{fill:rgba(255,255,255,1);stroke:rgba(0,0,0,.54) !important}#chart-e4c62514-93f8-4d5c-a370-d4fed5ef618e .map-element .reactive{fill-opacity:inherit;stroke-opacity:inherit}#chart-e4c62514-93f8-4d5c-a370-d4fed5ef618e .color-0,#chart-e4c62514-93f8-4d5c-a370-d4fed5ef618e .color-0 a:visited{stroke:#F44336;fill:#F44336}#chart-e4c62514-93f8-4d5c-a370-d4fed5ef618e .text-overlay .color-0 text{fill:black}
#chart-e4c62514-93f8-4d5c-a370-d4fed5ef618e text.no_data{text-anchor:middle}#chart-e4c62514-93f8-4d5c-a370-d4fed5ef618e .guide.line{fill:none}#chart-e4c62514-93f8-4d5c-a370-d4fed5ef618e .centered{text-anchor:middle}#chart-e4c62514-93f8-4d5c-a370-d4fed5ef618e .title{text-anchor:middle}#chart-e4c62514-93f8-4d5c-a370-d4fed5ef618e .legends .legend text{fill-opacity:1}#chart-e4c62514-93f8-4d5c-a370-d4fed5ef618e .axis.x text{text-anchor:middle}#chart-e4c62514-93f8-4d5c-a370-d4fed5ef618e .axis.x:not(.web) text[transform]{text-anchor:start}#chart-e4c62514-93f8-4d5c-a370-d4fed5ef618e .axis.x:not(.web) text[transform].backwards{text-anchor:end}#chart-e4c62514-93f8-4d5c-a370-d4fed5ef618e .axis.y text{text-anchor:end}#chart-e4c62514-93f8-4d5c-a370-d4fed5ef618e .axis.y text[transform].backwards{text-anchor:start}#chart-e4c62514-93f8-4d5c-a370-d4fed5ef618e .axis.y2 text{text-anchor:start}#chart-e4c62514-93f8-4d5c-a370-d4fed5ef618e .axis.y2 text[transform].backwards{text-anchor:end}#chart-e4c62514-93f8-4d5c-a370-d4fed5ef618e .axis .guide.line{stroke-dasharray:4,4;stroke:black}#chart-e4c62514-93f8-4d5c-a370-d4fed5ef618e .axis .major.guide.line{stroke-dasharray:6,6;stroke:black}#chart-e4c62514-93f8-4d5c-a370-d4fed5ef618e .horizontal .axis.y .guide.line,#chart-e4c62514-93f8-4d5c-a370-d4fed5ef618e .horizontal .axis.y2 .guide.line,#chart-e4c62514-93f8-4d5c-a370-d4fed5ef618e .vertical .axis.x .guide.line{opacity:0}#chart-e4c62514-93f8-4d5c-a370-d4fed5ef618e .horizontal .axis.always_show .guide.line,#chart-e4c62514-93f8-4d5c-a370-d4fed5ef618e .vertical .axis.always_show .guide.line{opacity:1 !important}#chart-e4c62514-93f8-4d5c-a370-d4fed5ef618e .axis.y .guides:hover .guide.line,#chart-e4c62514-93f8-4d5c-a370-d4fed5ef618e .axis.y2 .guides:hover .guide.line,#chart-e4c62514-93f8-4d5c-a370-d4fed5ef618e .axis.x .guides:hover .guide.line{opacity:1}#chart-e4c62514-93f8-4d5c-a370-d4fed5ef618e .axis .guides:hover text{opacity:1}#chart-e4c62514-93f8-4d5c-a370-d4fed5ef618e .nofill{fill:none}#chart-e4c62514-93f8-4d5c-a370-d4fed5ef618e .subtle-fill{fill-opacity:.2}#chart-e4c62514-93f8-4d5c-a370-d4fed5ef618e .dot{stroke-width:1px;fill-opacity:1;stroke-opacity:1}#chart-e4c62514-93f8-4d5c-a370-d4fed5ef618e .dot.active{stroke-width:5px}#chart-e4c62514-93f8-4d5c-a370-d4fed5ef618e .dot.negative{fill:transparent}#chart-e4c62514-93f8-4d5c-a370-d4fed5ef618e text,#chart-e4c62514-93f8-4d5c-a370-d4fed5ef618e tspan{stroke:none !important}#chart-e4c62514-93f8-4d5c-a370-d4fed5ef618e .series text.active{opacity:1}#chart-e4c62514-93f8-4d5c-a370-d4fed5ef618e .tooltip rect{fill-opacity:.95;stroke-width:.5}#chart-e4c62514-93f8-4d5c-a370-d4fed5ef618e .tooltip text{fill-opacity:1}#chart-e4c62514-93f8-4d5c-a370-d4fed5ef618e .showable{visibility:hidden}#chart-e4c62514-93f8-4d5c-a370-d4fed5ef618e .showable.shown{visibility:visible}#chart-e4c62514-93f8-4d5c-a370-d4fed5ef618e .gauge-background{fill:rgba(229,229,229,1);stroke:none}#chart-e4c62514-93f8-4d5c-a370-d4fed5ef618e .bg-lines{stroke:rgba(249,249,249,1);stroke-width:2px}</style><script type="text/javascript">window.pygal = window.pygal || {};window.pygal.config = window.pygal.config || {};window.pygal.config['e4c62514-93f8-4d5c-a370-d4fed5ef618e'] = {"allow_interruptions": false, "box_mode": "extremes", "classes": ["pygal-chart", "pygal-sparkline"], "css": ["file://style.css", "file://graph.css"], "defs": [], "disable_xml_declaration": false, "dots_size": 2.5, "dynamic_print_values": false, "explicit_size": true, "fill": false, "force_uri_protocol": "https", "formatter": null, "half_pie": false, "height": 50, "include_x_axis": false, "inner_radius": 0, "interpolate": "cubic", "interpolation_parameters": {}, "interpolation_precision": 250, "inverse_y_axis": false, "js": [], "legend_at_bottom": false, "legend_at_bottom_columns": null, "legend_box_size": 12, "logarithmic": false, "margin": 10, "margin_bottom": null, "margin_left": null, "margin_right": null, "margin_top": null, "max_scale": 2, "min_scale": 1, "missing_value_fill_truncation": "x", "no_data_text": "", "no_prefix": false, "order_min": null, "pretty_print": false, "print_labels": false, "print_values": false, "print_values_position": "center", "print_zeroes": true, "range": null, "rounded_bars": null, "secondary_range": null, "show_dots": false, "show_legend": false, "show_minor_x_labels": true, "show_minor_y_labels": true, "show_only_major_dots": false, "show_x_guides": false, "show_x_labels": false, "show_y_guides": true, "show_y_labels": true, "spacing": 0, "stack_from_top": false, "strict": false, "stroke": true, "stroke_style": null, "style": {"background": "rgba(249, 249, 249, 1)", "ci_colors": [], "colors": ["#F44336", "#3F51B5", "#009688", "#FFC107", "#FF5722", "#9C27B0", "#03A9F4", "#8BC34A", "#FF9800", "#E91E63", "#2196F3", "#4CAF50", "#FFEB3B", "#673AB7", "#00BCD4", "#CDDC39", "#9E9E9E", "#607D8B"], "dot_opacity": "1", "font_family": "Consolas, \"Liberation Mono\", Menlo, Courier, monospace", "foreground": "rgba(0, 0, 0, .87)", "foreground_strong": "rgba(0, 0, 0, 1)", "foreground_subtle": "rgba(0, 0, 0, .54)", "guide_stroke_color": "black", "guide_stroke_dasharray": "4,4", "label_font_family": "Consolas, \"Liberation Mono\", Menlo, Courier, monospace", "label_font_size": 10, "legend_font_family": "Consolas, \"Liberation Mono\", Menlo, Courier, monospace", "legend_font_size": 14, "major_guide_stroke_color": "black", "major_guide_stroke_dasharray": "6,6", "major_label_font_family": "Consolas, \"Liberation Mono\", Menlo, Courier, monospace", "major_label_font_size": 10, "no_data_font_family": "Consolas, \"Liberation Mono\", Menlo, Courier, monospace", "no_data_font_size": 64, "opacity": ".7", "opacity_hover": ".8", "plot_background": "rgba(255, 255, 255, 1)", "stroke_opacity": ".8", "stroke_opacity_hover": ".9", "stroke_width": "1", "stroke_width_hover": "4", "title_font_family": "Consolas, \"Liberation Mono\", Menlo, Courier, monospace", "title_font_size": 16, "tooltip_font_family": "Consolas, \"Liberation Mono\", Menlo, Courier, monospace", "tooltip_font_size": 14, "transition": "150ms", "value_background": "rgba(229, 229, 229, 1)", "value_colors": [], "value_font_family": "Consolas, \"Liberation Mono\", Menlo, Courier, monospace", "value_font_size": 16, "value_label_font_family": "Consolas, \"Liberation Mono\", Menlo, Courier, monospace", "value_label_font_size": 10}, "title": null, "tooltip_border_radius": 0, "tooltip_fancy_mode": true, "truncate_label": null, "truncate_legend": null, "width": 200, "x_label_rotation": 0, "x_labels": ["2025/2", "2024/12", "2024/11"], "x_labels_major": null, "x_labels_major_count": null, "x_labels_major_every": null, "x_title": null, "xrange": null, "y_label_rotation": 0, "y_labels": null, "y_labels_major": null, "y_labels_major_count": null, "y_labels_major_every": null, "y_title": null, "zero": 0, "legends": [""]}</script></defs><title>Pygal</title><g class="graph line-graph vertical"><rect x="0" y="0" width="200" height="50" class="background" /><g transform="translate(22, 10)" class="plot"><rect x="0" y="0" width="168.0" height="30" class="background" /><g class="axis y always_show"><path d="M0.000000 30.000000 h168.000000" class="line" /><g class="guides"><path d="M0.000000 21.214508 h168.000000" class="guide line" /><text x="-5" y="24.71450809216423" class="">8</text><title>8</title></g><g class="guides"><path d="M0.000000 4.797370 h168.000000" class="guide line" /><text x="-5" y="8.297370430338844" class="">16</text><title>16</title></g></g><g class="series serie-0 color-0"><path d="M3.230769 29.423077 L3.553846 29.258906 3.876923 29.094740 4.200000 28.930584 4.523077 28.766442 4.846154 28.602319 5.169231 28.438219 5.492308 28.274148 5.815385 28.110109 6.138462 27.946109 6.461538 27.782151 6.784615 27.618241 7.107692 27.454382 7.430769 27.290580 7.753846 27.126840 8.076923 26.963166 8.400000 26.799563 8.723077 26.636035 9.046154 26.472588 9.369231 26.309226 9.692308 26.145954 10.015385 25.982776 10.338462 25.819698 10.661538 25.656723 10.984615 25.493858 11.307692 25.331105 11.630769 25.168471 11.953846 25.005960 12.276923 24.843577 12.600000 24.681326 12.923077 24.519212 13.246154 24.357240 13.569231 24.195415 13.892308 24.033741 14.215385 23.872223 14.538462 23.710865 14.861538 23.549673 15.184615 23.388652 15.507692 23.227805 15.830769 23.067138 16.153846 22.906655 16.476923 22.746362 16.800000 22.586262 17.123077 22.426361 17.446154 22.266663 17.769231 22.107174 18.092308 21.947897 18.415385 21.788837 18.738462 21.630000 19.061538 21.471390 19.384615 21.313011 19.707692 21.154869 20.030769 20.996968 20.353846 20.839312 20.676923 20.681908 21.000000 20.524758 21.323077 20.367869 21.646154 20.211245 21.969231 20.054890 22.292308 19.898809 22.615385 19.743007 22.938462 19.587489 23.261538 19.432259 23.584615 19.277323 23.907692 19.122684 24.230769 18.968348 24.553846 18.814319 24.876923 18.660603 25.200000 18.507203 25.523077 18.354124 25.846154 18.201372 26.169231 18.048951 26.492308 17.896866 26.815385 17.745121 27.138462 17.593721 27.461538 17.442671 27.784615 17.291975 28.107692 17.141639 28.430769 16.991667 28.753846 16.842064 29.076923 16.692834 29.400000 16.543983 29.723077 16.395514 30.046154 16.247434 30.369231 16.099745 30.692308 15.952454 31.015385 15.805565 31.338462 15.659082 31.661538 15.513011 31.984615 15.367356 32.307692 15.222122 32.630769 15.077313 32.953846 14.932934 33.276923 14.788990 33.600000 14.645486 33.923077 14.502427 34.246154 14.359817 34.569231 14.217660 34.892308 14.075963 35.215385 13.934728 35.538462 13.793962 35.861538 13.653668 36.184615 13.513852 36.507692 13.374519 36.830769 13.235672 37.153846 13.097317 37.476923 12.959459 37.800000 12.822101 38.123077 12.685250 38.446154 12.548909 38.769231 12.413084 39.092308 12.277778 39.415385 12.142998 39.738462 12.008747 40.061538 11.875030 40.384615 11.741852 40.707692 11.609219 41.030769 11.477133 41.353846 11.345601 41.676923 11.214626 42.000000 11.084215 42.323077 10.954370 42.646154 10.825098 42.969231 10.696403 43.292308 10.568289 43.615385 10.440762 43.938462 10.313825 44.261538 10.187484 44.584615 10.061744 44.907692 9.936609 45.230769 9.812084 45.553846 9.688173 45.876923 9.564882 46.200000 9.442215 46.523077 9.320177 46.846154 9.198772 47.169231 9.078006 47.492308 8.957883 47.815385 8.838407 48.138462 8.719584 48.461538 8.601418 48.784615 8.483914 49.107692 8.367077 49.430769 8.250911 49.753846 8.135422 50.076923 8.020613 50.400000 7.906489 50.723077 7.793056 51.046154 7.680319 51.369231 7.568280 51.692308 7.456947 52.015385 7.346322 52.338462 7.236412 52.661538 7.127220 52.984615 7.018752 53.307692 6.911011 53.630769 6.804004 53.953846 6.697734 54.276923 6.592206 54.600000 6.487426 54.923077 6.383397 55.246154 6.280125 55.569231 6.177614 55.892308 6.075869 56.215385 5.974895 56.538462 5.874696 56.861538 5.775277 57.184615 5.676643 57.507692 5.578799 57.830769 5.481749 58.153846 5.385498 58.476923 5.290051 58.800000 5.195412 59.123077 5.101587 59.446154 5.008579 59.769231 4.916395 60.092308 4.825037 60.415385 4.734512 60.738462 4.644824 61.061538 4.555977 61.384615 4.467977 61.707692 4.380828 62.030769 4.294534 62.353846 4.209101 62.676923 4.124534 63.000000 4.040836 63.323077 3.958013 63.646154 3.876069 63.969231 3.795010 64.292308 3.714839 64.615385 3.635562 64.938462 3.557184 65.261538 3.479708 65.584615 3.403141 65.907692 3.327486 66.230769 3.252748 66.553846 3.178932 66.876923 3.106042 67.200000 3.034085 67.523077 2.963063 67.846154 2.892982 68.169231 2.823847 68.492308 2.755663 68.815385 2.688433 69.138462 2.622163 69.461538 2.556858 69.784615 2.492522 70.107692 2.429160 70.430769 2.366777 70.753846 2.305377 71.076923 2.244965 71.400000 2.185546 71.723077 2.127125 72.046154 2.069707 72.369231 2.013295 72.692308 1.957895 73.015385 1.903512 73.338462 1.850150 73.661538 1.797814 73.984615 1.746509 74.307692 1.696239 74.630769 1.647009 74.953846 1.598824 75.276923 1.551689 75.600000 1.505609 75.923077 1.460587 76.246154 1.416629 76.569231 1.373740 76.892308 1.331924 77.215385 1.291187 77.538462 1.251531 77.861538 1.212964 78.184615 1.175488 78.507692 1.139110 78.830769 1.103833 79.153846 1.069662 79.476923 1.036603 79.800000 1.004659 80.123077 0.973836 80.446154 0.944139 80.769231 0.915571 81.092308 0.888138 81.415385 0.861845 81.738462 0.836696 82.061538 0.812695 82.384615 0.789849 82.707692 0.768160 83.030769 0.747635 83.353846 0.728278 83.676923 0.710093 84.000000 0.693086 84.323077 0.677259 84.646154 0.662610 84.969231 0.649132 85.292308 0.636823 85.615385 0.625677 85.938462 0.615690 86.261538 0.606856 86.584615 0.599171 86.907692 0.592630 87.230769 0.587228 87.553846 0.582962 87.876923 0.579825 88.200000 0.577814 88.523077 0.576923 88.846154 0.577148 89.169231 0.578484 89.492308 0.580927 89.815385 0.584471 90.138462 0.589112 90.461538 0.594846 90.784615 0.601667 91.107692 0.609570 91.430769 0.618552 91.753846 0.628607 92.076923 0.639730 92.400000 0.651918 92.723077 0.665164 93.046154 0.679465 93.369231 0.694815 93.692308 0.711211 94.015385 0.728646 94.338462 0.747117 94.661538 0.766619 94.984615 0.787146 95.307692 0.808695 95.630769 0.831261 95.953846 0.854838 96.276923 0.879423 96.600000 0.905010 96.923077 0.931594 97.246154 0.959172 97.569231 0.987737 97.892308 1.017286 98.215385 1.047814 98.538462 1.079316 98.861538 1.111787 99.184615 1.145222 99.507692 1.179617 99.830769 1.214968 100.153846 1.251269 100.476923 1.288515 100.800000 1.326702 101.123077 1.365826 101.446154 1.405881 101.769231 1.446862 102.092308 1.488766 102.415385 1.531587 102.738462 1.575320 103.061538 1.619962 103.384615 1.665506 103.707692 1.711949 104.030769 1.759285 104.353846 1.807510 104.676923 1.856619 105.000000 1.906608 105.323077 1.957471 105.646154 2.009205 105.969231 2.061804 106.292308 2.115263 106.615385 2.169578 106.938462 2.224744 107.261538 2.280756 107.584615 2.337610 107.907692 2.395301 108.230769 2.453824 108.553846 2.513174 108.876923 2.573348 109.200000 2.634339 109.523077 2.696143 109.846154 2.758756 110.169231 2.822173 110.492308 2.886388 110.815385 2.951398 111.138462 3.017198 111.461538 3.083782 111.784615 3.151147 112.107692 3.219287 112.430769 3.288198 112.753846 3.357875 113.076923 3.428312 113.400000 3.499507 113.723077 3.571453 114.046154 3.644146 114.369231 3.717582 114.692308 3.791755 115.015385 3.866661 115.338462 3.942295 115.661538 4.018653 115.984615 4.095729 116.307692 4.173519 116.630769 4.252019 116.953846 4.331222 117.276923 4.411126 117.600000 4.491725 117.923077 4.573014 118.246154 4.654988 118.569231 4.737644 118.892308 4.820975 119.215385 4.904978 119.538462 4.989648 119.861538 5.074980 120.184615 5.160968 120.507692 5.247610 120.830769 5.334899 121.153846 5.422831 121.476923 5.511401 121.800000 5.600605 122.123077 5.690438 122.446154 5.780894 122.769231 5.871971 123.092308 5.963661 123.415385 6.055962 123.738462 6.148868 124.061538 6.242375 124.384615 6.336477 124.707692 6.431170 125.030769 6.526450 125.353846 6.622311 125.676923 6.718749 126.000000 6.815759 126.323077 6.913336 126.646154 7.011477 126.969231 7.110174 127.292308 7.209426 127.615385 7.309225 127.938462 7.409569 128.261538 7.510451 128.584615 7.611868 128.907692 7.713814 129.230769 7.816285 129.553846 7.919276 129.876923 8.022783 130.200000 8.126800 130.523077 8.231323 130.846154 8.336347 131.169231 8.441868 131.492308 8.547880 131.815385 8.654380 132.138462 8.761361 132.461538 8.868821 132.784615 8.976753 133.107692 9.085153 133.430769 9.194016 133.753846 9.303338 134.076923 9.413114 134.400000 9.523340 134.723077 9.634009 135.046154 9.745119 135.369231 9.856663 135.692308 9.968637 136.015385 10.081038 136.338462 10.193859 136.661538 10.307096 136.984615 10.420744 137.307692 10.534799 137.630769 10.649256 137.953846 10.764110 138.276923 10.879356 138.600000 10.994990 138.923077 11.111008 139.246154 11.227403 139.569231 11.344172 139.892308 11.461310 140.215385 11.578811 140.538462 11.696673 140.861538 11.814888 141.184615 11.933454 141.507692 12.052365 141.830769 12.171616 142.153846 12.291203 142.476923 12.411121 142.800000 12.531365 143.123077 12.651930 143.446154 12.772813 143.769231 12.894007 144.092308 13.015509 144.415385 13.137313 144.738462 13.259416 145.061538 13.381811 145.384615 13.504495 145.707692 13.627462 146.030769 13.750709 146.353846 13.874230 146.676923 13.998020 147.000000 14.122075 147.323077 14.246390 147.646154 14.370960 147.969231 14.495781 148.292308 14.620848 148.615385 14.746156 148.938462 14.871700 149.261538 14.997476 149.584615 15.123479 149.907692 15.249704 150.230769 15.376147 150.553846 15.502803 150.876923 15.629666 151.200000 15.756733 151.523077 15.883998 151.846154 16.011457 152.169231 16.139106 152.492308 16.266939 152.815385 16.394951 153.138462 16.523138 153.461538 16.651496 153.784615 16.780019 154.107692 16.908703 154.430769 17.037543 154.753846 17.166534 155.076923 17.295672 155.400000 17.424951 155.723077 17.554368 156.046154 17.683917 156.369231 17.813594 156.692308 17.943393 157.015385 18.073311 157.338462 18.203343 157.661538 18.333483 157.984615 18.463727 158.307692 18.594070 158.630769 18.724508 158.953846 18.855036 159.276923 18.985649 159.600000 19.116342 159.923077 19.247111 160.246154 19.377951 160.569231 19.508857 160.892308 19.639825 161.215385 19.770849 161.538462 19.901925 161.861538 20.033049 162.184615 20.164215 162.507692 20.295419 162.830769 20.426656 163.153846 20.557921 163.476923 20.689210 163.800000 20.820518 164.123077 20.951840 164.446154 21.083172 164.769231 21.214508" class="line reactive nofill" /></g></g><g class="titles" /><g transform="translate(22, 10)" class="plot overlay"><g class="series serie-0 color-0" /></g><g transform="translate(22, 10)" class="plot text-overlay"><g class="series serie-0 color-0" /></g><g transform="translate(22, 10)" class="plot tooltip-overlay"><g transform="translate(0 0)" style="opacity: 0" class="tooltip"><rect rx="0" ry="0" width="0" height="0" class="tooltip-box" /><g class="text" /></g></g></g></svg>