<?xml version='1.0' encoding='utf-8'?>
<svg xmlns="http://www.w3.org/2000/svg" id="chart-9a23488c-a566-400e-a28f-b5b0aad228ab" class="pygal-chart pygal-sparkline" viewBox="0 0 200 50" width="200" height="50"><!--Generated with pygal 3.0.5 (etree) ©Kozea 2012-2016 on 2025-01-05--><!--http://pygal.org--><!--http://github.com/Kozea/pygal--><defs><style type="text/css">#chart-9a23488c-a566-400e-a28f-b5b0aad228ab{-webkit-user-select:none;-webkit-font-smoothing:antialiased;font-family:Consolas,"Liberation Mono",Menlo,Courier,monospace}#chart-9a23488c-a566-400e-a28f-b5b0aad228ab .title{font-family:Consolas,"Liberation Mono",Menlo,Courier,monospace;font-size:16px}#chart-9a23488c-a566-400e-a28f-b5b0aad228ab .legends .legend text{font-family:Consolas,"Liberation Mono",Menlo,Courier,monospace;font-size:14px}#chart-9a23488c-a566-400e-a28f-b5b0aad228ab .axis text{font-family:Consolas,"Liberation Mono",Menlo,Courier,monospace;font-size:10px}#chart-9a23488c-a566-400e-a28f-b5b0aad228ab .axis text.major{font-family:Consolas,"Liberation Mono",Menlo,Courier,monospace;font-size:10px}#chart-9a23488c-a566-400e-a28f-b5b0aad228ab .text-overlay text.value{font-family:Consolas,"Liberation Mono",Menlo,Courier,monospace;font-size:16px}#chart-9a23488c-a566-400e-a28f-b5b0aad228ab .text-overlay text.label{font-family:Consolas,"Liberation Mono",Menlo,Courier,monospace;font-size:10px}#chart-9a23488c-a566-400e-a28f-b5b0aad228ab .tooltip{font-family:Consolas,"Liberation Mono",Menlo,Courier,monospace;font-size:14px}#chart-9a23488c-a566-400e-a28f-b5b0aad228ab text.no_data{font-family:Consolas,"Liberation Mono",Menlo,Courier,monospace;font-size:64px}
#chart-9a23488c-a566-400e-a28f-b5b0aad228ab{background-color:rgba(249,249,249,1)}#chart-9a23488c-a566-400e-a28f-b5b0aad228ab path,#chart-9a23488c-a566-400e-a28f-b5b0aad228ab line,#chart-9a23488c-a566-400e-a28f-b5b0aad228ab rect,#chart-9a23488c-a566-400e-a28f-b5b0aad228ab circle{-webkit-transition:150ms;-moz-transition:150ms;transition:150ms}#chart-9a23488c-a566-400e-a28f-b5b0aad228ab .graph &gt; .background{fill:rgba(249,249,249,1)}#chart-9a23488c-a566-400e-a28f-b5b0aad228ab .plot &gt; .background{fill:rgba(255,255,255,1)}#chart-9a23488c-a566-400e-a28f-b5b0aad228ab .graph{fill:rgba(0,0,0,.87)}#chart-9a23488c-a566-400e-a28f-b5b0aad228ab text.no_data{fill:rgba(0,0,0,1)}#chart-9a23488c-a566-400e-a28f-b5b0aad228ab .title{fill:rgba(0,0,0,1)}#chart-9a23488c-a566-400e-a28f-b5b0aad228ab .legends .legend text{fill:rgba(0,0,0,.87)}#chart-9a23488c-a566-400e-a28f-b5b0aad228ab .legends .legend:hover text{fill:rgba(0,0,0,1)}#chart-9a23488c-a566-400e-a28f-b5b0aad228ab .axis .line{stroke:rgba(0,0,0,1)}#chart-9a23488c-a566-400e-a28f-b5b0aad228ab .axis .guide.line{stroke:rgba(0,0,0,.54)}#chart-9a23488c-a566-400e-a28f-b5b0aad228ab .axis .major.line{stroke:rgba(0,0,0,.87)}#chart-9a23488c-a566-400e-a28f-b5b0aad228ab .axis text.major{fill:rgba(0,0,0,1)}#chart-9a23488c-a566-400e-a28f-b5b0aad228ab .axis.y .guides:hover .guide.line,#chart-9a23488c-a566-400e-a28f-b5b0aad228ab .line-graph .axis.x .guides:hover .guide.line,#chart-9a23488c-a566-400e-a28f-b5b0aad228ab .stackedline-graph .axis.x .guides:hover .guide.line,#chart-9a23488c-a566-400e-a28f-b5b0aad228ab .xy-graph .axis.x .guides:hover .guide.line{stroke:rgba(0,0,0,1)}#chart-9a23488c-a566-400e-a28f-b5b0aad228ab .axis .guides:hover text{fill:rgba(0,0,0,1)}#chart-9a23488c-a566-400e-a28f-b5b0aad228ab .reactive{fill-opacity:.7;stroke-opacity:.8;stroke-width:1}#chart-9a23488c-a566-400e-a28f-b5b0aad228ab .ci{stroke:rgba(0,0,0,.87)}#chart-9a23488c-a566-400e-a28f-b5b0aad228ab .reactive.active,#chart-9a23488c-a566-400e-a28f-b5b0aad228ab .active .reactive{fill-opacity:.8;stroke-opacity:.9;stroke-width:4}#chart-9a23488c-a566-400e-a28f-b5b0aad228ab .ci .reactive.active{stroke-width:1.5}#chart-9a23488c-a566-400e-a28f-b5b0aad228ab .series text{fill:rgba(0,0,0,1)}#chart-9a23488c-a566-400e-a28f-b5b0aad228ab .tooltip rect{fill:rgba(255,255,255,1);stroke:rgba(0,0,0,1);-webkit-transition:opacity 150ms;-moz-transition:opacity 150ms;transition:opacity 150ms}#chart-9a23488c-a566-400e-a28f-b5b0aad228ab .tooltip .label{fill:rgba(0,0,0,.87)}#chart-9a23488c-a566-400e-a28f-b5b0aad228ab .tooltip .label{fill:rgba(0,0,0,.87)}#chart-9a23488c-a566-400e-a28f-b5b0aad228ab .tooltip .legend{font-size:.8em;fill:rgba(0,0,0,.54)}#chart-9a23488c-a566-400e-a28f-b5b0aad228ab .tooltip .x_label{font-size:.6em;fill:rgba(0,0,0,1)}#chart-9a23488c-a566-400e-a28f-b5b0aad228ab .tooltip .xlink{font-size:.5em;text-decoration:underline}#chart-9a23488c-a566-400e-a28f-b5b0aad228ab .tooltip .value{font-size:1.5em}#chart-9a23488c-a566-400e-a28f-b5b0aad228ab .bound{font-size:.5em}#chart-9a23488c-a566-400e-a28f-b5b0aad228ab .max-value{font-size:.75em;fill:rgba(0,0,0,.54)}#chart-9a23488c-a566-400e-a28f-b5b0aad228ab .map-element{fill:rgba(255,255,255,1);stroke:rgba(0,0,0,.54) !important}#chart-9a23488c-a566-400e-a28f-b5b0aad228ab .map-element .reactive{fill-opacity:inherit;stroke-opacity:inherit}#chart-9a23488c-a566-400e-a28f-b5b0aad228ab .color-0,#chart-9a23488c-a566-400e-a28f-b5b0aad228ab .color-0 a:visited{stroke:#F44336;fill:#F44336}#chart-9a23488c-a566-400e-a28f-b5b0aad228ab .text-overlay .color-0 text{fill:black}
#chart-9a23488c-a566-400e-a28f-b5b0aad228ab text.no_data{text-anchor:middle}#chart-9a23488c-a566-400e-a28f-b5b0aad228ab .guide.line{fill:none}#chart-9a23488c-a566-400e-a28f-b5b0aad228ab .centered{text-anchor:middle}#chart-9a23488c-a566-400e-a28f-b5b0aad228ab .title{text-anchor:middle}#chart-9a23488c-a566-400e-a28f-b5b0aad228ab .legends .legend text{fill-opacity:1}#chart-9a23488c-a566-400e-a28f-b5b0aad228ab .axis.x text{text-anchor:middle}#chart-9a23488c-a566-400e-a28f-b5b0aad228ab .axis.x:not(.web) text[transform]{text-anchor:start}#chart-9a23488c-a566-400e-a28f-b5b0aad228ab .axis.x:not(.web) text[transform].backwards{text-anchor:end}#chart-9a23488c-a566-400e-a28f-b5b0aad228ab .axis.y text{text-anchor:end}#chart-9a23488c-a566-400e-a28f-b5b0aad228ab .axis.y text[transform].backwards{text-anchor:start}#chart-9a23488c-a566-400e-a28f-b5b0aad228ab .axis.y2 text{text-anchor:start}#chart-9a23488c-a566-400e-a28f-b5b0aad228ab .axis.y2 text[transform].backwards{text-anchor:end}#chart-9a23488c-a566-400e-a28f-b5b0aad228ab .axis .guide.line{stroke-dasharray:4,4;stroke:black}#chart-9a23488c-a566-400e-a28f-b5b0aad228ab .axis .major.guide.line{stroke-dasharray:6,6;stroke:black}#chart-9a23488c-a566-400e-a28f-b5b0aad228ab .horizontal .axis.y .guide.line,#chart-9a23488c-a566-400e-a28f-b5b0aad228ab .horizontal .axis.y2 .guide.line,#chart-9a23488c-a566-400e-a28f-b5b0aad228ab .vertical .axis.x .guide.line{opacity:0}#chart-9a23488c-a566-400e-a28f-b5b0aad228ab .horizontal .axis.always_show .guide.line,#chart-9a23488c-a566-400e-a28f-b5b0aad228ab .vertical .axis.always_show .guide.line{opacity:1 !important}#chart-9a23488c-a566-400e-a28f-b5b0aad228ab .axis.y .guides:hover .guide.line,#chart-9a23488c-a566-400e-a28f-b5b0aad228ab .axis.y2 .guides:hover .guide.line,#chart-9a23488c-a566-400e-a28f-b5b0aad228ab .axis.x .guides:hover .guide.line{opacity:1}#chart-9a23488c-a566-400e-a28f-b5b0aad228ab .axis .guides:hover text{opacity:1}#chart-9a23488c-a566-400e-a28f-b5b0aad228ab .nofill{fill:none}#chart-9a23488c-a566-400e-a28f-b5b0aad228ab .subtle-fill{fill-opacity:.2}#chart-9a23488c-a566-400e-a28f-b5b0aad228ab .dot{stroke-width:1px;fill-opacity:1;stroke-opacity:1}#chart-9a23488c-a566-400e-a28f-b5b0aad228ab .dot.active{stroke-width:5px}#chart-9a23488c-a566-400e-a28f-b5b0aad228ab .dot.negative{fill:transparent}#chart-9a23488c-a566-400e-a28f-b5b0aad228ab text,#chart-9a23488c-a566-400e-a28f-b5b0aad228ab tspan{stroke:none !important}#chart-9a23488c-a566-400e-a28f-b5b0aad228ab .series text.active{opacity:1}#chart-9a23488c-a566-400e-a28f-b5b0aad228ab .tooltip rect{fill-opacity:.95;stroke-width:.5}#chart-9a23488c-a566-400e-a28f-b5b0aad228ab .tooltip text{fill-opacity:1}#chart-9a23488c-a566-400e-a28f-b5b0aad228ab .showable{visibility:hidden}#chart-9a23488c-a566-400e-a28f-b5b0aad228ab .showable.shown{visibility:visible}#chart-9a23488c-a566-400e-a28f-b5b0aad228ab .gauge-background{fill:rgba(229,229,229,1);stroke:none}#chart-9a23488c-a566-400e-a28f-b5b0aad228ab .bg-lines{stroke:rgba(249,249,249,1);stroke-width:2px}</style><script type="text/javascript">window.pygal = window.pygal || {};window.pygal.config = window.pygal.config || {};window.pygal.config['9a23488c-a566-400e-a28f-b5b0aad228ab'] = {"allow_interruptions": false, "box_mode": "extremes", "classes": ["pygal-chart", "pygal-sparkline"], "css": ["file://style.css", "file://graph.css"], "defs": [], "disable_xml_declaration": false, "dots_size": 2.5, "dynamic_print_values": false, "explicit_size": true, "fill": false, "force_uri_protocol": "https", "formatter": null, "half_pie": false, "height": 50, "include_x_axis": false, "inner_radius": 0, "interpolate": "cubic", "interpolation_parameters": {}, "interpolation_precision": 250, "inverse_y_axis": false, "js": [], "legend_at_bottom": false, "legend_at_bottom_columns": null, "legend_box_size": 12, "logarithmic": false, "margin": 10, "margin_bottom": null, "margin_left": null, "margin_right": null, "margin_top": null, "max_scale": 2, "min_scale": 1, "missing_value_fill_truncation": "x", "no_data_text": "", "no_prefix": false, "order_min": null, "pretty_print": false, "print_labels": false, "print_values": false, "print_values_position": "center", "print_zeroes": true, "range": null, "rounded_bars": null, "secondary_range": null, "show_dots": false, "show_legend": false, "show_minor_x_labels": true, "show_minor_y_labels": true, "show_only_major_dots": false, "show_x_guides": false, "show_x_labels": false, "show_y_guides": true, "show_y_labels": true, "spacing": 0, "stack_from_top": false, "strict": false, "stroke": true, "stroke_style": null, "style": {"background": "rgba(249, 249, 249, 1)", "ci_colors": [], "colors": ["#F44336", "#3F51B5", "#009688", "#FFC107", "#FF5722", "#9C27B0", "#03A9F4", "#8BC34A", "#FF9800", "#E91E63", "#2196F3", "#4CAF50", "#FFEB3B", "#673AB7", "#00BCD4", "#CDDC39", "#9E9E9E", "#607D8B"], "dot_opacity": "1", "font_family": "Consolas, \"Liberation Mono\", Menlo, Courier, monospace", "foreground": "rgba(0, 0, 0, .87)", "foreground_strong": "rgba(0, 0, 0, 1)", "foreground_subtle": "rgba(0, 0, 0, .54)", "guide_stroke_color": "black", "guide_stroke_dasharray": "4,4", "label_font_family": "Consolas, \"Liberation Mono\", Menlo, Courier, monospace", "label_font_size": 10, "legend_font_family": "Consolas, \"Liberation Mono\", Menlo, Courier, monospace", "legend_font_size": 14, "major_guide_stroke_color": "black", "major_guide_stroke_dasharray": "6,6", "major_label_font_family": "Consolas, \"Liberation Mono\", Menlo, Courier, monospace", "major_label_font_size": 10, "no_data_font_family": "Consolas, \"Liberation Mono\", Menlo, Courier, monospace", "no_data_font_size": 64, "opacity": ".7", "opacity_hover": ".8", "plot_background": "rgba(255, 255, 255, 1)", "stroke_opacity": ".8", "stroke_opacity_hover": ".9", "stroke_width": "1", "stroke_width_hover": "4", "title_font_family": "Consolas, \"Liberation Mono\", Menlo, Courier, monospace", "title_font_size": 16, "tooltip_font_family": "Consolas, \"Liberation Mono\", Menlo, Courier, monospace", "tooltip_font_size": 14, "transition": "150ms", "value_background": "rgba(229, 229, 229, 1)", "value_colors": [], "value_font_family": "Consolas, \"Liberation Mono\", Menlo, Courier, monospace", "value_font_size": 16, "value_label_font_family": "Consolas, \"Liberation Mono\", Menlo, Courier, monospace", "value_label_font_size": 10}, "title": null, "tooltip_border_radius": 0, "tooltip_fancy_mode": true, "truncate_label": null, "truncate_legend": null, "width": 200, "x_label_rotation": 0, "x_labels": ["2025/1", "2024/12", "2024/11", "2024/10", "2024/9", "2024/8"], "x_labels_major": null, "x_labels_major_count": null, "x_labels_major_every": null, "x_title": null, "xrange": null, "y_label_rotation": 0, "y_labels": null, "y_labels_major": null, "y_labels_major_count": null, "y_labels_major_every": null, "y_title": null, "zero": 0, "legends": [""]}</script></defs><title>Pygal</title><g class="graph line-graph vertical"><rect x="0" y="0" width="200" height="50" class="background" /><g transform="translate(82, 10)" class="plot"><rect x="0" y="0" width="108.0" height="30" class="background" /><g class="axis y always_show"><path d="M0.000000 30.000000 h108.000000" class="line" /><g class="guides"><path d="M0.000000 29.423077 h108.000000" class="guide line" /><text x="-5" y="32.92307692307692" class="">0.9981671527</text><title>0.9981671527</title></g><g class="guides"><path d="M0.000000 0.576923 h108.000000" class="guide line" /><text x="-5" y="4.076923076923077" class="">15.00157042</text><title>15.00157042</title></g></g><g class="series serie-0 color-0"><path d="M2.076923 27.359363 L2.160000 27.324314 2.243077 27.289268 2.326154 27.254225 2.409231 27.219187 2.492308 27.184157 2.575385 27.149136 2.658462 27.114125 2.741538 27.079126 2.824615 27.044142 2.907692 27.009174 2.990769 26.974224 3.073846 26.939294 3.156923 26.904384 3.240000 26.869498 3.323077 26.834637 3.406154 26.799803 3.489231 26.764997 3.572308 26.730222 3.655385 26.695478 3.738462 26.660769 3.821538 26.626095 3.904615 26.591459 3.987692 26.556861 4.070769 26.522305 4.153846 26.487792 4.236923 26.453323 4.320000 26.418900 4.403077 26.384526 4.486154 26.350201 4.569231 26.315929 4.652308 26.281709 4.735385 26.247545 4.818462 26.213438 4.901538 26.179390 4.984615 26.145402 5.067692 26.111477 5.150769 26.077616 5.233846 26.043821 5.316923 26.010094 5.400000 25.976436 5.483077 25.942850 5.566154 25.909336 5.649231 25.875898 5.732308 25.842536 5.815385 25.809252 5.898462 25.776049 5.981538 25.742928 6.064615 25.709891 6.147692 25.676939 6.230769 25.644074 6.313846 25.611299 6.396923 25.578614 6.480000 25.546023 6.563077 25.513525 6.646154 25.481124 6.729231 25.448821 6.812308 25.416618 6.895385 25.384517 6.978462 25.352518 7.061538 25.320625 7.144615 25.288839 7.227692 25.257162 7.310769 25.225595 7.393846 25.194141 7.476923 25.162800 7.560000 25.131576 7.643077 25.100469 7.726154 25.069482 7.809231 25.038616 7.892308 25.007872 7.975385 24.977254 8.058462 24.946762 8.141538 24.916399 8.224615 24.886165 8.307692 24.856064 8.390769 24.826096 8.473846 24.796264 8.556923 24.766569 8.640000 24.737013 8.723077 24.707598 8.806154 24.678325 8.889231 24.649197 8.972308 24.620215 9.055385 24.591381 9.138462 24.562697 9.221538 24.534164 9.304615 24.505785 9.387692 24.477560 9.470769 24.449493 9.553846 24.421584 9.636923 24.393836 9.720000 24.366250 9.803077 24.338827 9.886154 24.311571 9.969231 24.284482 10.052308 24.257563 10.135385 24.230814 10.218462 24.204239 10.301538 24.177838 10.384615 24.151614 10.467692 24.125568 10.550769 24.099702 10.633846 24.074018 10.716923 24.048518 10.800000 24.023202 10.883077 23.998075 10.966154 23.973136 11.049231 23.948387 11.132308 23.923832 11.215385 23.899470 11.298462 23.875305 11.381538 23.851338 11.464615 23.827570 11.547692 23.804003 11.630769 23.780640 11.713846 23.757482 11.796923 23.734531 11.880000 23.711788 11.963077 23.689256 12.046154 23.666935 12.129231 23.644829 12.212308 23.622938 12.295385 23.601265 12.378462 23.579811 12.461538 23.558578 12.544615 23.537568 12.627692 23.516783 12.710769 23.496224 12.793846 23.475893 12.876923 23.455792 12.960000 23.435923 13.043077 23.416287 13.126154 23.396887 13.209231 23.377724 13.292308 23.358799 13.375385 23.340115 13.458462 23.321674 13.541538 23.303477 13.624615 23.285526 13.707692 23.267823 13.790769 23.250369 13.873846 23.233167 13.956923 23.216217 14.040000 23.199523 14.123077 23.183086 14.206154 23.166906 14.289231 23.150988 14.372308 23.135331 14.455385 23.119938 14.538462 23.104810 14.621538 23.089950 14.704615 23.075359 14.787692 23.061040 14.870769 23.046992 14.953846 23.033220 15.036923 23.019724 15.120000 23.006505 15.203077 22.993567 15.286154 22.980910 15.369231 22.968537 15.452308 22.956449 15.535385 22.944648 15.618462 22.933136 15.701538 22.921914 15.784615 22.910985 15.867692 22.900350 15.950769 22.890011 16.033846 22.879969 16.116923 22.870227 16.200000 22.860786 16.283077 22.851648 16.366154 22.842815 16.449231 22.834289 16.532308 22.826071 16.615385 22.818163 16.698462 22.810568 16.781538 22.803286 16.864615 22.796319 16.947692 22.789670 17.030769 22.783340 17.113846 22.777330 17.196923 22.771644 17.280000 22.766282 17.363077 22.761246 17.446154 22.756538 17.529231 22.752160 17.612308 22.748113 17.695385 22.744400 17.778462 22.741022 17.861538 22.737980 17.944615 22.735278 18.027692 22.732916 18.110769 22.730896 18.193846 22.729221 18.276923 22.727891 18.360000 22.726908 18.443077 22.726276 18.526154 22.725994 18.609231 22.726065 18.692308 22.726491 18.775385 22.727274 18.858462 22.728415 18.941538 22.729916 19.024615 22.731778 19.107692 22.734005 19.190769 22.736597 19.273846 22.739556 19.356923 22.742884 19.440000 22.746583 19.523077 22.750654 19.606154 22.755100 19.689231 22.759922 19.772308 22.765122 19.855385 22.770702 19.938462 22.776663 20.021538 22.783007 20.104615 22.789737 20.187692 22.796853 20.270769 22.804358 20.353846 22.812253 20.436923 22.820540 20.520000 22.829222 20.603077 22.838299 20.686154 22.847773 20.769231 22.857647 20.852308 22.867922 20.935385 22.878600 21.018462 22.889683 21.101538 22.901172 21.184615 22.913069 21.267692 22.925376 21.350769 22.938095 21.433846 22.951228 21.516923 22.964776 21.600000 22.978741 21.683077 22.993125 21.766154 23.007929 21.849231 23.023157 21.932308 23.038808 22.015385 23.054885 22.098462 23.071391 22.181538 23.088326 22.264615 23.105692 22.347692 23.123491 22.430769 23.141726 22.513846 23.160397 22.596923 23.179507 22.680000 23.199057 22.763077 23.219049 22.846154 23.239485 22.929231 23.260365 23.012308 23.281685 23.095385 23.303437 23.178462 23.325615 23.261538 23.348212 23.344615 23.371222 23.427692 23.394639 23.510769 23.418456 23.593846 23.442666 23.676923 23.467263 23.760000 23.492240 23.843077 23.517591 23.926154 23.543309 24.009231 23.569388 24.092308 23.595820 24.175385 23.622601 24.258462 23.649722 24.341538 23.677178 24.424615 23.704962 24.507692 23.733067 24.590769 23.761487 24.673846 23.790215 24.756923 23.819245 24.840000 23.848570 24.923077 23.878184 25.006154 23.908080 25.089231 23.938252 25.172308 23.968693 25.255385 23.999396 25.338462 24.030356 25.421538 24.061565 25.504615 24.093016 25.587692 24.124704 25.670769 24.156622 25.753846 24.188764 25.836923 24.221122 25.920000 24.253690 26.003077 24.286462 26.086154 24.319431 26.169231 24.352590 26.252308 24.385934 26.335385 24.419455 26.418462 24.453147 26.501538 24.487004 26.584615 24.521018 26.667692 24.555184 26.750769 24.589495 26.833846 24.623944 26.916923 24.658524 27.000000 24.693230 27.083077 24.728055 27.166154 24.762991 27.249231 24.798033 27.332308 24.833175 27.415385 24.868408 27.498462 24.903728 27.581538 24.939127 27.664615 24.974599 27.747692 25.010137 27.830769 25.045735 27.913846 25.081386 27.996923 25.117084 28.080000 25.152823 28.163077 25.188594 28.246154 25.224393 28.329231 25.260213 28.412308 25.296046 28.495385 25.331887 28.578462 25.367729 28.661538 25.403565 28.744615 25.439390 28.827692 25.475195 28.910769 25.510975 28.993846 25.546724 29.076923 25.582434 29.160000 25.618099 29.243077 25.653713 29.326154 25.689269 29.409231 25.724760 29.492308 25.760181 29.575385 25.795524 29.658462 25.830783 29.741538 25.865951 29.824615 25.901022 29.907692 25.935989 29.990769 25.970846 30.073846 26.005586 30.156923 26.040203 30.240000 26.074690 30.323077 26.109041 30.406154 26.143249 30.489231 26.177307 30.572308 26.211209 30.655385 26.244949 30.738462 26.278519 30.821538 26.311914 30.904615 26.345127 30.987692 26.378151 31.070769 26.410980 31.153846 26.443606 31.236923 26.476025 31.320000 26.508229 31.403077 26.540211 31.486154 26.571965 31.569231 26.603485 31.652308 26.634763 31.735385 26.665794 31.818462 26.696571 31.901538 26.727088 31.984615 26.757337 32.067692 26.787312 32.150769 26.817007 32.233846 26.846415 32.316923 26.875530 32.400000 26.904345 32.483077 26.932853 32.566154 26.961049 32.649231 26.988924 32.732308 27.016474 32.815385 27.043691 32.898462 27.070570 32.981538 27.097102 33.064615 27.123282 33.147692 27.149103 33.230769 27.174559 33.313846 27.199644 33.396923 27.224349 33.480000 27.248670 33.563077 27.272600 33.646154 27.296131 33.729231 27.319258 33.812308 27.341974 33.895385 27.364272 33.978462 27.386146 34.061538 27.407589 34.144615 27.428595 34.227692 27.449157 34.310769 27.469269 34.393846 27.488924 34.476923 27.508115 34.560000 27.526837 34.643077 27.545082 34.726154 27.562844 34.809231 27.580116 34.892308 27.596893 34.975385 27.613167 35.058462 27.628931 35.141538 27.644180 35.224615 27.658906 35.307692 27.673104 35.390769 27.686766 35.473846 27.699887 35.556923 27.712459 35.640000 27.724476 35.723077 27.735931 35.806154 27.746819 35.889231 27.757132 35.972308 27.766863 36.055385 27.776007 36.138462 27.784557 36.221538 27.792506 36.304615 27.799848 36.387692 27.806576 36.470769 27.812684 36.553846 27.818164 36.636923 27.823011 36.720000 27.827219 36.803077 27.830779 36.886154 27.833687 36.969231 27.835935 37.052308 27.837517 37.135385 27.838426 37.218462 27.838656 37.301538 27.838200 37.384615 27.837052 37.467692 27.835204 37.550769 27.832652 37.633846 27.829388 37.716923 27.825405 37.800000 27.820697 37.883077 27.815257 37.966154 27.809080 38.049231 27.802158 38.132308 27.794484 38.215385 27.786053 38.298462 27.776858 38.381538 27.766892 38.464615 27.756148 38.547692 27.744621 38.630769 27.732303 38.713846 27.719188 38.796923 27.705270 38.880000 27.690542 38.963077 27.674997 39.046154 27.658629 39.129231 27.641431 39.212308 27.623397 39.295385 27.604521 39.378462 27.584795 39.461538 27.564213 39.544615 27.542769 39.627692 27.520456 39.710769 27.497268 39.793846 27.473197 39.876923 27.448239 39.960000 27.422385 40.043077 27.395629 40.126154 27.367965 40.209231 27.339387 40.292308 27.309887 40.375385 27.279460 40.458462 27.248098 40.541538 27.215796 40.624615 27.182546 40.707692 27.148342 40.790769 27.113178 40.873846 27.077047 40.956923 27.039942 41.040000 27.001857 41.123077 26.962786 41.206154 26.922721 41.289231 26.881657 41.372308 26.839586 41.455385 26.796503 41.538462 26.752400 41.621538 26.707272 41.704615 26.661111 41.787692 26.613911 41.870769 26.565665 41.953846 26.516368 42.036923 26.466012 42.120000 26.414591 42.203077 26.362098 42.286154 26.308527 42.369231 26.253872 42.452308 26.198125 42.535385 26.141280 42.618462 26.083331 42.701538 26.024271 42.784615 25.964094 42.867692 25.902793 42.950769 25.840361 43.033846 25.776792 43.116923 25.712080 43.200000 25.646217 43.283077 25.579198 43.366154 25.511016 43.449231 25.441663 43.532308 25.371135 43.615385 25.299424 43.698462 25.226526 43.781538 25.152451 43.864615 25.077210 43.947692 25.000815 44.030769 24.923277 44.113846 24.844608 44.196923 24.764821 44.280000 24.683926 44.363077 24.601935 44.446154 24.518861 44.529231 24.434714 44.612308 24.349507 44.695385 24.263252 44.778462 24.175959 44.861538 24.087641 44.944615 23.998310 45.027692 23.907976 45.110769 23.816653 45.193846 23.724351 45.276923 23.631083 45.360000 23.536860 45.443077 23.441693 45.526154 23.345595 45.609231 23.248577 45.692308 23.150651 45.775385 23.051829 45.858462 22.952122 45.941538 22.851543 46.024615 22.750102 46.107692 22.647812 46.190769 22.544684 46.273846 22.440730 46.356923 22.335961 46.440000 22.230390 46.523077 22.124029 46.606154 22.016888 46.689231 21.908980 46.772308 21.800316 46.855385 21.690908 46.938462 21.580768 47.021538 21.469908 47.104615 21.358338 47.187692 21.246072 47.270769 21.133120 47.353846 21.019495 47.436923 20.905208 47.520000 20.790270 47.603077 20.674694 47.686154 20.558492 47.769231 20.441674 47.852308 20.324253 47.935385 20.206241 48.018462 20.087648 48.101538 19.968488 48.184615 19.848771 48.267692 19.728509 48.350769 19.607715 48.433846 19.486399 48.516923 19.364574 48.600000 19.242251 48.683077 19.119442 48.766154 18.996158 48.849231 18.872412 48.932308 18.748215 49.015385 18.623579 49.098462 18.498515 49.181538 18.373036 49.264615 18.247152 49.347692 18.120876 49.430769 17.994220 49.513846 17.867195 49.596923 17.739812 49.680000 17.612084 49.763077 17.484023 49.846154 17.355639 49.929231 17.226946 50.012308 17.097953 50.095385 16.968674 50.178462 16.839120 50.261538 16.709302 50.344615 16.579233 50.427692 16.448924 50.510769 16.318387 50.593846 16.187633 50.676923 16.056674 50.760000 15.925523 50.843077 15.794190 50.926154 15.662687 51.009231 15.531027 51.092308 15.399220 51.175385 15.267279 51.258462 15.135215 51.341538 15.003041 51.424615 14.870767 51.507692 14.738405 51.590769 14.605968 51.673846 14.473466 51.756923 14.340912 51.840000 14.208318 51.923077 14.075694 52.006154 13.943054 52.089231 13.810407 52.172308 13.677768 52.255385 13.545145 52.338462 13.412553 52.421538 13.280002 52.504615 13.147504 52.587692 13.015071 52.670769 12.882715 52.753846 12.750447 52.836923 12.618278 52.920000 12.486222 53.003077 12.354289 53.086154 12.222491 53.169231 12.090840 53.252308 11.959347 53.335385 11.828025 53.418462 11.696885 53.501538 11.565939 53.584615 11.435198 53.667692 11.304674 53.750769 11.174380 53.833846 11.044326 53.916923 10.914524 54.000000 10.784986 54.083077 10.655725 54.166154 10.526751 54.249231 10.398076 54.332308 10.269712 54.415385 10.141670 54.498462 10.013963 54.581538 9.886603 54.664615 9.759600 54.747692 9.632967 54.830769 9.506715 54.913846 9.380856 54.996923 9.255402 55.080000 9.130364 55.163077 9.005754 55.246154 8.881585 55.329231 8.757867 55.412308 8.634612 55.495385 8.511833 55.578462 8.389540 55.661538 8.267746 55.744615 8.146462 55.827692 8.025700 55.910769 7.905472 55.993846 7.785789 56.076923 7.666663 56.160000 7.548106 56.243077 7.430130 56.326154 7.312746 56.409231 7.195966 56.492308 7.079801 56.575385 6.964264 56.658462 6.849367 56.741538 6.735120 56.824615 6.621536 56.907692 6.508626 56.990769 6.396402 57.073846 6.284876 57.156923 6.174060 57.240000 6.063965 57.323077 5.954603 57.406154 5.845985 57.489231 5.738124 57.572308 5.631031 57.655385 5.524718 57.738462 5.419196 57.821538 5.314477 57.904615 5.210574 57.987692 5.107497 58.070769 5.005259 58.153846 4.903871 58.236923 4.803345 58.320000 4.703692 58.403077 4.604925 58.486154 4.507055 58.569231 4.410093 58.652308 4.314052 58.735385 4.218944 58.818462 4.124779 58.901538 4.031570 58.984615 3.939328 59.067692 3.848066 59.150769 3.757794 59.233846 3.668524 59.316923 3.580269 59.400000 3.493040 59.483077 3.406849 59.566154 3.321707 59.649231 3.237626 59.732308 3.154619 59.815385 3.072695 59.898462 2.991868 59.981538 2.912149 60.064615 2.833550 60.147692 2.756083 60.230769 2.679758 60.313846 2.604589 60.396923 2.530586 60.480000 2.457761 60.563077 2.386127 60.646154 2.315694 60.729231 2.246475 60.812308 2.178481 60.895385 2.111724 60.978462 2.046216 61.061538 1.981968 61.144615 1.918992 61.227692 1.857301 61.310769 1.796904 61.393846 1.737815 61.476923 1.680045 61.560000 1.623606 61.643077 1.568510 61.726154 1.514767 61.809231 1.462390 61.892308 1.411392 61.975385 1.361782 62.058462 1.313573 62.141538 1.266778 62.224615 1.221406 62.307692 1.177471 62.390769 1.134984 62.473846 1.093957 62.556923 1.054401 62.640000 1.016328 62.723077 0.979750 62.806154 0.944679 62.889231 0.911125 62.972308 0.879102 63.055385 0.848621 63.138462 0.819693 63.221538 0.792330 63.304615 0.766544 63.387692 0.742347 63.470769 0.719750 63.553846 0.698765 63.636923 0.679404 63.720000 0.661678 63.803077 0.645600 63.886154 0.631181 63.969231 0.618432 64.052308 0.607365 64.135385 0.597993 64.218462 0.590327 64.301538 0.584378 64.384615 0.580158 64.467692 0.577676 64.550769 0.576923 64.633846 0.577889 64.716923 0.580563 64.800000 0.584934 64.883077 0.590991 64.966154 0.598721 65.049231 0.608116 65.132308 0.619162 65.215385 0.631850 65.298462 0.646169 65.381538 0.662106 65.464615 0.679651 65.547692 0.698794 65.630769 0.719522 65.713846 0.741825 65.796923 0.765692 65.880000 0.791111 65.963077 0.818072 66.046154 0.846564 66.129231 0.876575 66.212308 0.908095 66.295385 0.941111 66.378462 0.975614 66.461538 1.011592 66.544615 1.049034 66.627692 1.087929 66.710769 1.128266 66.793846 1.170034 66.876923 1.213221 66.960000 1.257817 67.043077 1.303811 67.126154 1.351191 67.209231 1.399946 67.292308 1.450066 67.375385 1.501540 67.458462 1.554355 67.541538 1.608501 67.624615 1.663968 67.707692 1.720743 67.790769 1.778817 67.873846 1.838177 67.956923 1.898813 68.040000 1.960713 68.123077 2.023867 68.206154 2.088264 68.289231 2.153891 68.372308 2.220740 68.455385 2.288797 68.538462 2.358053 68.621538 2.428496 68.704615 2.500114 68.787692 2.572898 68.870769 2.646836 68.953846 2.721916 69.036923 2.798128 69.120000 2.875461 69.203077 2.953903 69.286154 3.033443 69.369231 3.114072 69.452308 3.195776 69.535385 3.278546 69.618462 3.362369 69.701538 3.447236 69.784615 3.533135 69.867692 3.620055 69.950769 3.707984 70.033846 3.796913 70.116923 3.886829 70.200000 3.977722 70.283077 4.069580 70.366154 4.162392 70.449231 4.256148 70.532308 4.350837 70.615385 4.446446 70.698462 4.542966 70.781538 4.640385 70.864615 4.738692 70.947692 4.837875 71.030769 4.937925 71.113846 5.038829 71.196923 5.140577 71.280000 5.243157 71.363077 5.346559 71.446154 5.450772 71.529231 5.555784 71.612308 5.661584 71.695385 5.768161 71.778462 5.875505 71.861538 5.983603 71.944615 6.092446 72.027692 6.202021 72.110769 6.312318 72.193846 6.423326 72.276923 6.535034 72.360000 6.647430 72.443077 6.760503 72.526154 6.874244 72.609231 6.988639 72.692308 7.103679 72.775385 7.219352 72.858462 7.335647 72.941538 7.452553 73.024615 7.570059 73.107692 7.688154 73.190769 7.806826 73.273846 7.926066 73.356923 8.045861 73.440000 8.166200 73.523077 8.287073 73.606154 8.408469 73.689231 8.530376 73.772308 8.652783 73.855385 8.775679 73.938462 8.899054 74.021538 9.022895 74.104615 9.147192 74.187692 9.271935 74.270769 9.397111 74.353846 9.522709 74.436923 9.648720 74.520000 9.775131 74.603077 9.901931 74.686154 10.029110 74.769231 10.156656 74.852308 10.284558 74.935385 10.412806 75.018462 10.541387 75.101538 10.670292 75.184615 10.799508 75.267692 10.929026 75.350769 11.058833 75.433846 11.188919 75.516923 11.319272 75.600000 11.449882 75.683077 11.580738 75.766154 11.711828 75.849231 11.843141 75.932308 11.974666 76.015385 12.106393 76.098462 12.238309 76.181538 12.370405 76.264615 12.502668 76.347692 12.635089 76.430769 12.767655 76.513846 12.900355 76.596923 13.033180 76.680000 13.166117 76.763077 13.299155 76.846154 13.432284 76.929231 13.565492 77.012308 13.698768 77.095385 13.832101 77.178462 13.965481 77.261538 14.098895 77.344615 14.232334 77.427692 14.365785 77.510769 14.499238 77.593846 14.632681 77.676923 14.766104 77.760000 14.899496 77.843077 15.032845 77.926154 15.166140 78.009231 15.299371 78.092308 15.432526 78.175385 15.565594 78.258462 15.698564 78.341538 15.831425 78.424615 15.964166 78.507692 16.096776 78.590769 16.229243 78.673846 16.361557 78.756923 16.493707 78.840000 16.625681 78.923077 16.757469 79.006154 16.889059 79.089231 17.020440 79.172308 17.151601 79.255385 17.282532 79.338462 17.413220 79.421538 17.543656 79.504615 17.673827 79.587692 17.803723 79.670769 17.933333 79.753846 18.062645 79.836923 18.191649 79.920000 18.320334 80.003077 18.448688 80.086154 18.576700 80.169231 18.704360 80.252308 18.831655 80.335385 18.958576 80.418462 19.085111 80.501538 19.211249 80.584615 19.336978 80.667692 19.462289 80.750769 19.587169 80.833846 19.711607 80.916923 19.835593 81.000000 19.959116 81.083077 20.082164 81.166154 20.204727 81.249231 20.326792 81.332308 20.448350 81.415385 20.569389 81.498462 20.689898 81.581538 20.809866 81.664615 20.929281 81.747692 21.048134 81.830769 21.166412 81.913846 21.284104 81.996923 21.401201 82.080000 21.517689 82.163077 21.633559 82.246154 21.748800 82.329231 21.863399 82.412308 21.977347 82.495385 22.090632 82.578462 22.203243 82.661538 22.315168 82.744615 22.426398 82.827692 22.536920 82.910769 22.646724 82.993846 22.755799 83.076923 22.864133 83.160000 22.971715 83.243077 23.078535 83.326154 23.184581 83.409231 23.289842 83.492308 23.394308 83.575385 23.497966 83.658462 23.600807 83.741538 23.702818 83.824615 23.803989 83.907692 23.904309 83.990769 24.003767 84.073846 24.102351 84.156923 24.200051 84.240000 24.296855 84.323077 24.392752 84.406154 24.487732 84.489231 24.581783 84.572308 24.674894 84.655385 24.767054 84.738462 24.858252 84.821538 24.948477 84.904615 25.037718 84.987692 25.125963 85.070769 25.213202 85.153846 25.299424 85.236923 25.384619 85.320000 25.468791 85.403077 25.551942 85.486154 25.634076 85.569231 25.715199 85.652308 25.795314 85.735385 25.874425 85.818462 25.952536 85.901538 26.029652 85.984615 26.105776 86.067692 26.180913 86.150769 26.255067 86.233846 26.328241 86.316923 26.400440 86.400000 26.471669 86.483077 26.541930 86.566154 26.611229 86.649231 26.679570 86.732308 26.746956 86.815385 26.813391 86.898462 26.878881 86.981538 26.943428 87.064615 27.007037 87.147692 27.069713 87.230769 27.131458 87.313846 27.192278 87.396923 27.252177 87.480000 27.311158 87.563077 27.369225 87.646154 27.426384 87.729231 27.482637 87.812308 27.537990 87.895385 27.592445 87.978462 27.646008 88.061538 27.698682 88.144615 27.750472 88.227692 27.801381 88.310769 27.851414 88.393846 27.900575 88.476923 27.948867 88.560000 27.996296 88.643077 28.042865 88.726154 28.088578 88.809231 28.133440 88.892308 28.177454 88.975385 28.220625 89.058462 28.262956 89.141538 28.304452 89.224615 28.345117 89.307692 28.384956 89.390769 28.423971 89.473846 28.462168 89.556923 28.499550 89.640000 28.536122 89.723077 28.571888 89.806154 28.606851 89.889231 28.641016 89.972308 28.674387 90.055385 28.706968 90.138462 28.738764 90.221538 28.769777 90.304615 28.800013 90.387692 28.829476 90.470769 28.858169 90.553846 28.886098 90.636923 28.913265 90.720000 28.939675 90.803077 28.965332 90.886154 28.990241 90.969231 29.014404 91.052308 29.037828 91.135385 29.060515 91.218462 29.082469 91.301538 29.103696 91.384615 29.124198 91.467692 29.143980 91.550769 29.163047 91.633846 29.181402 91.716923 29.199049 91.800000 29.215992 91.883077 29.232237 91.966154 29.247786 92.049231 29.262644 92.132308 29.276814 92.215385 29.290302 92.298462 29.303111 92.381538 29.315246 92.464615 29.326710 92.547692 29.337507 92.630769 29.347642 92.713846 29.357119 92.796923 29.365941 92.880000 29.374114 92.963077 29.381640 93.046154 29.388525 93.129231 29.394772 93.212308 29.400386 93.295385 29.405370 93.378462 29.409729 93.461538 29.413467 93.544615 29.416587 93.627692 29.419095 93.710769 29.420993 93.793846 29.422287 93.876923 29.422980 93.960000 29.423077 94.043077 29.422581 94.126154 29.421497 94.209231 29.419829 94.292308 29.417581 94.375385 29.414756 94.458462 29.411360 94.541538 29.407396 94.624615 29.402869 94.707692 29.397782 94.790769 29.392139 94.873846 29.385946 94.956923 29.379205 95.040000 29.371921 95.123077 29.364098 95.206154 29.355740 95.289231 29.346852 95.372308 29.337437 95.455385 29.327499 95.538462 29.317044 95.621538 29.306074 95.704615 29.294593 95.787692 29.282607 95.870769 29.270119 95.953846 29.257133 96.036923 29.243653 96.120000 29.229684 96.203077 29.215229 96.286154 29.200293 96.369231 29.184880 96.452308 29.168994 96.535385 29.152638 96.618462 29.135818 96.701538 29.118537 96.784615 29.100799 96.867692 29.082609 96.950769 29.063970 97.033846 29.044887 97.116923 29.025364 97.200000 29.005405 97.283077 28.985014 97.366154 28.964195 97.449231 28.942952 97.532308 28.921289 97.615385 28.899211 97.698462 28.876722 97.781538 28.853825 97.864615 28.830525 97.947692 28.806826 98.030769 28.782732 98.113846 28.758248 98.196923 28.733376 98.280000 28.708122 98.363077 28.682490 98.446154 28.656483 98.529231 28.630105 98.612308 28.603362 98.695385 28.576257 98.778462 28.548793 98.861538 28.520976 98.944615 28.492810 99.027692 28.464297 99.110769 28.435443 99.193846 28.406252 99.276923 28.376728 99.360000 28.346874 99.443077 28.316696 99.526154 28.286196 99.609231 28.255380 99.692308 28.224251 99.775385 28.192814 99.858462 28.161072 99.941538 28.129029 100.024615 28.096691 100.107692 28.064060 100.190769 28.031142 100.273846 27.997940 100.356923 27.964457 100.440000 27.930700 100.523077 27.896670 100.606154 27.862374 100.689231 27.827814 100.772308 27.792994 100.855385 27.757920 100.938462 27.722595 101.021538 27.687023 101.104615 27.651208 101.187692 27.615155 101.270769 27.578867 101.353846 27.542348 101.436923 27.505604 101.520000 27.468637 101.603077 27.431452 101.686154 27.394054 101.769231 27.356445 101.852308 27.318631 101.935385 27.280615 102.018462 27.242402 102.101538 27.203995 102.184615 27.165399 102.267692 27.126618 102.350769 27.087656 102.433846 27.048517 102.516923 27.009206 102.600000 26.969725 102.683077 26.930080 102.766154 26.890275 102.849231 26.850313 102.932308 26.810199 103.015385 26.769937 103.098462 26.729531 103.181538 26.688985 103.264615 26.648303 103.347692 26.607490 103.430769 26.566549 103.513846 26.525485 103.596923 26.484301 103.680000 26.443002 103.763077 26.401592 103.846154 26.360075 103.929231 26.318456 104.012308 26.276737 104.095385 26.234924 104.178462 26.193021 104.261538 26.151031 104.344615 26.108958 104.427692 26.066808 104.510769 26.024583 104.593846 25.982289 104.676923 25.939929 104.760000 25.897507 104.843077 25.855027 104.926154 25.812494 105.009231 25.769912 105.092308 25.727284 105.175385 25.684615 105.258462 25.641910 105.341538 25.599171 105.424615 25.556403 105.507692 25.513611 105.590769 25.470798 105.673846 25.427969 105.756923 25.385127 105.840000 25.342278 105.923077 25.299424" class="line reactive nofill" /></g></g><g class="titles" /><g transform="translate(82, 10)" class="plot overlay"><g class="series serie-0 color-0" /></g><g transform="translate(82, 10)" class="plot text-overlay"><g class="series serie-0 color-0" /></g><g transform="translate(82, 10)" class="plot tooltip-overlay"><g transform="translate(0 0)" style="opacity: 0" class="tooltip"><rect rx="0" ry="0" width="0" height="0" class="tooltip-box" /><g class="text" /></g></g></g></svg>