<?xml version='1.0' encoding='utf-8'?>
<svg xmlns="http://www.w3.org/2000/svg" id="chart-5f863baf-2253-4f45-a1f5-f506779e2604" class="pygal-chart pygal-sparkline" viewBox="0 0 200 50" width="200" height="50"><!--Generated with pygal 3.0.5 (etree) ©Kozea 2012-2016 on 2025-06-15--><!--http://pygal.org--><!--http://github.com/Kozea/pygal--><defs><style type="text/css">#chart-5f863baf-2253-4f45-a1f5-f506779e2604{-webkit-user-select:none;-webkit-font-smoothing:antialiased;font-family:Consolas,"Liberation Mono",Menlo,Courier,monospace}#chart-5f863baf-2253-4f45-a1f5-f506779e2604 .title{font-family:Consolas,"Liberation Mono",Menlo,Courier,monospace;font-size:16px}#chart-5f863baf-2253-4f45-a1f5-f506779e2604 .legends .legend text{font-family:Consolas,"Liberation Mono",Menlo,Courier,monospace;font-size:14px}#chart-5f863baf-2253-4f45-a1f5-f506779e2604 .axis text{font-family:Consolas,"Liberation Mono",Menlo,Courier,monospace;font-size:10px}#chart-5f863baf-2253-4f45-a1f5-f506779e2604 .axis text.major{font-family:Consolas,"Liberation Mono",Menlo,Courier,monospace;font-size:10px}#chart-5f863baf-2253-4f45-a1f5-f506779e2604 .text-overlay text.value{font-family:Consolas,"Liberation Mono",Menlo,Courier,monospace;font-size:16px}#chart-5f863baf-2253-4f45-a1f5-f506779e2604 .text-overlay text.label{font-family:Consolas,"Liberation Mono",Menlo,Courier,monospace;font-size:10px}#chart-5f863baf-2253-4f45-a1f5-f506779e2604 .tooltip{font-family:Consolas,"Liberation Mono",Menlo,Courier,monospace;font-size:14px}#chart-5f863baf-2253-4f45-a1f5-f506779e2604 text.no_data{font-family:Consolas,"Liberation Mono",Menlo,Courier,monospace;font-size:64px}
#chart-5f863baf-2253-4f45-a1f5-f506779e2604{background-color:rgba(249,249,249,1)}#chart-5f863baf-2253-4f45-a1f5-f506779e2604 path,#chart-5f863baf-2253-4f45-a1f5-f506779e2604 line,#chart-5f863baf-2253-4f45-a1f5-f506779e2604 rect,#chart-5f863baf-2253-4f45-a1f5-f506779e2604 circle{-webkit-transition:150ms;-moz-transition:150ms;transition:150ms}#chart-5f863baf-2253-4f45-a1f5-f506779e2604 .graph &gt; .background{fill:rgba(249,249,249,1)}#chart-5f863baf-2253-4f45-a1f5-f506779e2604 .plot &gt; .background{fill:rgba(255,255,255,1)}#chart-5f863baf-2253-4f45-a1f5-f506779e2604 .graph{fill:rgba(0,0,0,.87)}#chart-5f863baf-2253-4f45-a1f5-f506779e2604 text.no_data{fill:rgba(0,0,0,1)}#chart-5f863baf-2253-4f45-a1f5-f506779e2604 .title{fill:rgba(0,0,0,1)}#chart-5f863baf-2253-4f45-a1f5-f506779e2604 .legends .legend text{fill:rgba(0,0,0,.87)}#chart-5f863baf-2253-4f45-a1f5-f506779e2604 .legends .legend:hover text{fill:rgba(0,0,0,1)}#chart-5f863baf-2253-4f45-a1f5-f506779e2604 .axis .line{stroke:rgba(0,0,0,1)}#chart-5f863baf-2253-4f45-a1f5-f506779e2604 .axis .guide.line{stroke:rgba(0,0,0,.54)}#chart-5f863baf-2253-4f45-a1f5-f506779e2604 .axis .major.line{stroke:rgba(0,0,0,.87)}#chart-5f863baf-2253-4f45-a1f5-f506779e2604 .axis text.major{fill:rgba(0,0,0,1)}#chart-5f863baf-2253-4f45-a1f5-f506779e2604 .axis.y .guides:hover .guide.line,#chart-5f863baf-2253-4f45-a1f5-f506779e2604 .line-graph .axis.x .guides:hover .guide.line,#chart-5f863baf-2253-4f45-a1f5-f506779e2604 .stackedline-graph .axis.x .guides:hover .guide.line,#chart-5f863baf-2253-4f45-a1f5-f506779e2604 .xy-graph .axis.x .guides:hover .guide.line{stroke:rgba(0,0,0,1)}#chart-5f863baf-2253-4f45-a1f5-f506779e2604 .axis .guides:hover text{fill:rgba(0,0,0,1)}#chart-5f863baf-2253-4f45-a1f5-f506779e2604 .reactive{fill-opacity:.7;stroke-opacity:.8;stroke-width:1}#chart-5f863baf-2253-4f45-a1f5-f506779e2604 .ci{stroke:rgba(0,0,0,.87)}#chart-5f863baf-2253-4f45-a1f5-f506779e2604 .reactive.active,#chart-5f863baf-2253-4f45-a1f5-f506779e2604 .active .reactive{fill-opacity:.8;stroke-opacity:.9;stroke-width:4}#chart-5f863baf-2253-4f45-a1f5-f506779e2604 .ci .reactive.active{stroke-width:1.5}#chart-5f863baf-2253-4f45-a1f5-f506779e2604 .series text{fill:rgba(0,0,0,1)}#chart-5f863baf-2253-4f45-a1f5-f506779e2604 .tooltip rect{fill:rgba(255,255,255,1);stroke:rgba(0,0,0,1);-webkit-transition:opacity 150ms;-moz-transition:opacity 150ms;transition:opacity 150ms}#chart-5f863baf-2253-4f45-a1f5-f506779e2604 .tooltip .label{fill:rgba(0,0,0,.87)}#chart-5f863baf-2253-4f45-a1f5-f506779e2604 .tooltip .label{fill:rgba(0,0,0,.87)}#chart-5f863baf-2253-4f45-a1f5-f506779e2604 .tooltip .legend{font-size:.8em;fill:rgba(0,0,0,.54)}#chart-5f863baf-2253-4f45-a1f5-f506779e2604 .tooltip .x_label{font-size:.6em;fill:rgba(0,0,0,1)}#chart-5f863baf-2253-4f45-a1f5-f506779e2604 .tooltip .xlink{font-size:.5em;text-decoration:underline}#chart-5f863baf-2253-4f45-a1f5-f506779e2604 .tooltip .value{font-size:1.5em}#chart-5f863baf-2253-4f45-a1f5-f506779e2604 .bound{font-size:.5em}#chart-5f863baf-2253-4f45-a1f5-f506779e2604 .max-value{font-size:.75em;fill:rgba(0,0,0,.54)}#chart-5f863baf-2253-4f45-a1f5-f506779e2604 .map-element{fill:rgba(255,255,255,1);stroke:rgba(0,0,0,.54) !important}#chart-5f863baf-2253-4f45-a1f5-f506779e2604 .map-element .reactive{fill-opacity:inherit;stroke-opacity:inherit}#chart-5f863baf-2253-4f45-a1f5-f506779e2604 .color-0,#chart-5f863baf-2253-4f45-a1f5-f506779e2604 .color-0 a:visited{stroke:#F44336;fill:#F44336}#chart-5f863baf-2253-4f45-a1f5-f506779e2604 .text-overlay .color-0 text{fill:black}
#chart-5f863baf-2253-4f45-a1f5-f506779e2604 text.no_data{text-anchor:middle}#chart-5f863baf-2253-4f45-a1f5-f506779e2604 .guide.line{fill:none}#chart-5f863baf-2253-4f45-a1f5-f506779e2604 .centered{text-anchor:middle}#chart-5f863baf-2253-4f45-a1f5-f506779e2604 .title{text-anchor:middle}#chart-5f863baf-2253-4f45-a1f5-f506779e2604 .legends .legend text{fill-opacity:1}#chart-5f863baf-2253-4f45-a1f5-f506779e2604 .axis.x text{text-anchor:middle}#chart-5f863baf-2253-4f45-a1f5-f506779e2604 .axis.x:not(.web) text[transform]{text-anchor:start}#chart-5f863baf-2253-4f45-a1f5-f506779e2604 .axis.x:not(.web) text[transform].backwards{text-anchor:end}#chart-5f863baf-2253-4f45-a1f5-f506779e2604 .axis.y text{text-anchor:end}#chart-5f863baf-2253-4f45-a1f5-f506779e2604 .axis.y text[transform].backwards{text-anchor:start}#chart-5f863baf-2253-4f45-a1f5-f506779e2604 .axis.y2 text{text-anchor:start}#chart-5f863baf-2253-4f45-a1f5-f506779e2604 .axis.y2 text[transform].backwards{text-anchor:end}#chart-5f863baf-2253-4f45-a1f5-f506779e2604 .axis .guide.line{stroke-dasharray:4,4;stroke:black}#chart-5f863baf-2253-4f45-a1f5-f506779e2604 .axis .major.guide.line{stroke-dasharray:6,6;stroke:black}#chart-5f863baf-2253-4f45-a1f5-f506779e2604 .horizontal .axis.y .guide.line,#chart-5f863baf-2253-4f45-a1f5-f506779e2604 .horizontal .axis.y2 .guide.line,#chart-5f863baf-2253-4f45-a1f5-f506779e2604 .vertical .axis.x .guide.line{opacity:0}#chart-5f863baf-2253-4f45-a1f5-f506779e2604 .horizontal .axis.always_show .guide.line,#chart-5f863baf-2253-4f45-a1f5-f506779e2604 .vertical .axis.always_show .guide.line{opacity:1 !important}#chart-5f863baf-2253-4f45-a1f5-f506779e2604 .axis.y .guides:hover .guide.line,#chart-5f863baf-2253-4f45-a1f5-f506779e2604 .axis.y2 .guides:hover .guide.line,#chart-5f863baf-2253-4f45-a1f5-f506779e2604 .axis.x .guides:hover .guide.line{opacity:1}#chart-5f863baf-2253-4f45-a1f5-f506779e2604 .axis .guides:hover text{opacity:1}#chart-5f863baf-2253-4f45-a1f5-f506779e2604 .nofill{fill:none}#chart-5f863baf-2253-4f45-a1f5-f506779e2604 .subtle-fill{fill-opacity:.2}#chart-5f863baf-2253-4f45-a1f5-f506779e2604 .dot{stroke-width:1px;fill-opacity:1;stroke-opacity:1}#chart-5f863baf-2253-4f45-a1f5-f506779e2604 .dot.active{stroke-width:5px}#chart-5f863baf-2253-4f45-a1f5-f506779e2604 .dot.negative{fill:transparent}#chart-5f863baf-2253-4f45-a1f5-f506779e2604 text,#chart-5f863baf-2253-4f45-a1f5-f506779e2604 tspan{stroke:none !important}#chart-5f863baf-2253-4f45-a1f5-f506779e2604 .series text.active{opacity:1}#chart-5f863baf-2253-4f45-a1f5-f506779e2604 .tooltip rect{fill-opacity:.95;stroke-width:.5}#chart-5f863baf-2253-4f45-a1f5-f506779e2604 .tooltip text{fill-opacity:1}#chart-5f863baf-2253-4f45-a1f5-f506779e2604 .showable{visibility:hidden}#chart-5f863baf-2253-4f45-a1f5-f506779e2604 .showable.shown{visibility:visible}#chart-5f863baf-2253-4f45-a1f5-f506779e2604 .gauge-background{fill:rgba(229,229,229,1);stroke:none}#chart-5f863baf-2253-4f45-a1f5-f506779e2604 .bg-lines{stroke:rgba(249,249,249,1);stroke-width:2px}</style><script type="text/javascript">window.pygal = window.pygal || {};window.pygal.config = window.pygal.config || {};window.pygal.config['5f863baf-2253-4f45-a1f5-f506779e2604'] = {"allow_interruptions": false, "box_mode": "extremes", "classes": ["pygal-chart", "pygal-sparkline"], "css": ["file://style.css", "file://graph.css"], "defs": [], "disable_xml_declaration": false, "dots_size": 2.5, "dynamic_print_values": false, "explicit_size": true, "fill": false, "force_uri_protocol": "https", "formatter": null, "half_pie": false, "height": 50, "include_x_axis": false, "inner_radius": 0, "interpolate": "cubic", "interpolation_parameters": {}, "interpolation_precision": 250, "inverse_y_axis": false, "js": [], "legend_at_bottom": false, "legend_at_bottom_columns": null, "legend_box_size": 12, "logarithmic": false, "margin": 10, "margin_bottom": null, "margin_left": null, "margin_right": null, "margin_top": null, "max_scale": 2, "min_scale": 1, "missing_value_fill_truncation": "x", "no_data_text": "", "no_prefix": false, "order_min": null, "pretty_print": false, "print_labels": false, "print_values": false, "print_values_position": "center", "print_zeroes": true, "range": null, "rounded_bars": null, "secondary_range": null, "show_dots": false, "show_legend": false, "show_minor_x_labels": true, "show_minor_y_labels": true, "show_only_major_dots": false, "show_x_guides": false, "show_x_labels": false, "show_y_guides": true, "show_y_labels": true, "spacing": 0, "stack_from_top": false, "strict": false, "stroke": true, "stroke_style": null, "style": {"background": "rgba(249, 249, 249, 1)", "ci_colors": [], "colors": ["#F44336", "#3F51B5", "#009688", "#FFC107", "#FF5722", "#9C27B0", "#03A9F4", "#8BC34A", "#FF9800", "#E91E63", "#2196F3", "#4CAF50", "#FFEB3B", "#673AB7", "#00BCD4", "#CDDC39", "#9E9E9E", "#607D8B"], "dot_opacity": "1", "font_family": "Consolas, \"Liberation Mono\", Menlo, Courier, monospace", "foreground": "rgba(0, 0, 0, .87)", "foreground_strong": "rgba(0, 0, 0, 1)", "foreground_subtle": "rgba(0, 0, 0, .54)", "guide_stroke_color": "black", "guide_stroke_dasharray": "4,4", "label_font_family": "Consolas, \"Liberation Mono\", Menlo, Courier, monospace", "label_font_size": 10, "legend_font_family": "Consolas, \"Liberation Mono\", Menlo, Courier, monospace", "legend_font_size": 14, "major_guide_stroke_color": "black", "major_guide_stroke_dasharray": "6,6", "major_label_font_family": "Consolas, \"Liberation Mono\", Menlo, Courier, monospace", "major_label_font_size": 10, "no_data_font_family": "Consolas, \"Liberation Mono\", Menlo, Courier, monospace", "no_data_font_size": 64, "opacity": ".7", "opacity_hover": ".8", "plot_background": "rgba(255, 255, 255, 1)", "stroke_opacity": ".8", "stroke_opacity_hover": ".9", "stroke_width": "1", "stroke_width_hover": "4", "title_font_family": "Consolas, \"Liberation Mono\", Menlo, Courier, monospace", "title_font_size": 16, "tooltip_font_family": "Consolas, \"Liberation Mono\", Menlo, Courier, monospace", "tooltip_font_size": 14, "transition": "150ms", "value_background": "rgba(229, 229, 229, 1)", "value_colors": [], "value_font_family": "Consolas, \"Liberation Mono\", Menlo, Courier, monospace", "value_font_size": 16, "value_label_font_family": "Consolas, \"Liberation Mono\", Menlo, Courier, monospace", "value_label_font_size": 10}, "title": null, "tooltip_border_radius": 0, "tooltip_fancy_mode": true, "truncate_label": null, "truncate_legend": null, "width": 200, "x_label_rotation": 0, "x_labels": ["2025/6", "2025/5", "2025/4"], "x_labels_major": null, "x_labels_major_count": null, "x_labels_major_every": null, "x_title": null, "xrange": null, "y_label_rotation": 0, "y_labels": null, "y_labels_major": null, "y_labels_major_count": null, "y_labels_major_every": null, "y_title": null, "zero": 0, "legends": [""]}</script></defs><title>Pygal</title><g class="graph line-graph vertical"><rect x="0" y="0" width="200" height="50" class="background" /><g transform="translate(22, 10)" class="plot"><rect x="0" y="0" width="168.0" height="30" class="background" /><g class="axis y always_show"><path d="M0.000000 30.000000 h168.000000" class="line" /><g class="guides"><path d="M0.000000 28.090045 h168.000000" class="guide line" /><text x="-5" y="31.590045118144026" class="">8</text><title>8</title></g><g class="guides"><path d="M0.000000 6.079547 h168.000000" class="guide line" /><text x="-5" y="9.579547485167268" class="">12</text><title>12</title></g></g><g class="series serie-0 color-0"><path d="M3.230769 0.576923 L3.553846 0.719991 3.876923 0.863055 4.200000 1.006114 4.523077 1.149162 4.846154 1.292198 5.169231 1.435218 5.492308 1.578220 5.815385 1.721198 6.138462 1.864152 6.461538 2.007077 6.784615 2.149971 7.107692 2.292829 7.430769 2.435650 7.753846 2.578429 8.076923 2.721164 8.400000 2.863851 8.723077 3.006488 9.046154 3.149071 9.369231 3.291596 9.692308 3.434062 10.015385 3.576464 10.338462 3.718799 10.661538 3.861065 10.984615 4.003258 11.307692 4.145375 11.630769 4.287413 11.953846 4.429368 12.276923 4.571237 12.600000 4.713018 12.923077 4.854707 13.246154 4.996301 13.569231 5.137797 13.892308 5.279191 14.215385 5.420481 14.538462 5.561662 14.861538 5.702733 15.184615 5.843690 15.507692 5.984530 15.830769 6.125249 16.153846 6.265844 16.476923 6.406313 16.800000 6.546652 17.123077 6.686857 17.446154 6.826927 17.769231 6.966857 18.092308 7.106644 18.415385 7.246285 18.738462 7.385778 19.061538 7.525118 19.384615 7.664303 19.707692 7.803330 20.030769 7.942195 20.353846 8.080895 20.676923 8.219427 21.000000 8.357788 21.323077 8.495975 21.646154 8.633984 21.969231 8.771812 22.292308 8.909457 22.615385 9.046915 22.938462 9.184182 23.261538 9.321256 23.584615 9.458134 23.907692 9.594812 24.230769 9.731287 24.553846 9.867556 24.876923 10.003616 25.200000 10.139464 25.523077 10.275096 25.846154 10.410509 26.169231 10.545701 26.492308 10.680667 26.815385 10.815405 27.138462 10.949912 27.461538 11.084184 27.784615 11.218219 28.107692 11.352013 28.430769 11.485562 28.753846 11.618865 29.076923 11.751917 29.400000 11.884715 29.723077 12.017257 30.046154 12.149539 30.369231 12.281558 30.692308 12.413310 31.015385 12.544793 31.338462 12.676004 31.661538 12.806939 31.984615 12.937595 32.307692 13.067969 32.630769 13.198057 32.953846 13.327857 33.276923 13.457366 33.600000 13.586580 33.923077 13.715495 34.246154 13.844110 34.569231 13.972421 34.892308 14.100424 35.215385 14.228116 35.538462 14.355495 35.861538 14.482556 36.184615 14.609298 36.507692 14.735716 36.830769 14.861808 37.153846 14.987570 37.476923 15.112999 37.800000 15.238093 38.123077 15.362847 38.446154 15.487259 38.769231 15.611326 39.092308 15.735043 39.415385 15.858409 39.738462 15.981420 40.061538 16.104073 40.384615 16.226365 40.707692 16.348292 41.030769 16.469851 41.353846 16.591040 41.676923 16.711854 42.000000 16.832292 42.323077 16.952349 42.646154 17.072022 42.969231 17.191309 43.292308 17.310206 43.615385 17.428710 43.938462 17.546818 44.261538 17.664527 44.584615 17.781832 44.907692 17.898733 45.230769 18.015224 45.553846 18.131303 45.876923 18.246967 46.200000 18.362213 46.523077 18.477037 46.846154 18.591437 47.169231 18.705408 47.492308 18.818949 47.815385 18.932055 48.138462 19.044724 48.461538 19.156953 48.784615 19.268737 49.107692 19.380075 49.430769 19.490963 49.753846 19.601397 50.076923 19.711375 50.400000 19.820893 50.723077 19.929949 51.046154 20.038539 51.369231 20.146660 51.692308 20.254308 52.015385 20.361481 52.338462 20.468175 52.661538 20.574388 52.984615 20.680116 53.307692 20.785355 53.630769 20.890104 53.953846 20.994357 54.276923 21.098114 54.600000 21.201369 54.923077 21.304121 55.246154 21.406365 55.569231 21.508099 55.892308 21.609320 56.215385 21.710024 56.538462 21.810208 56.861538 21.909869 57.184615 22.009004 57.507692 22.107610 57.830769 22.205683 58.153846 22.303221 58.476923 22.400220 58.800000 22.496677 59.123077 22.592589 59.446154 22.687952 59.769231 22.782764 60.092308 22.877021 60.415385 22.970720 60.738462 23.063859 61.061538 23.156433 61.384615 23.248440 61.707692 23.339876 62.030769 23.430739 62.353846 23.521025 62.676923 23.610731 63.000000 23.699853 63.323077 23.788390 63.646154 23.876336 63.969231 23.963690 64.292308 24.050448 64.615385 24.136608 64.938462 24.222164 65.261538 24.307116 65.584615 24.391459 65.907692 24.475190 66.230769 24.558307 66.553846 24.640805 66.876923 24.722682 67.200000 24.803935 67.523077 24.884560 67.846154 24.964554 68.169231 25.043915 68.492308 25.122638 68.815385 25.200722 69.138462 25.278161 69.461538 25.354955 69.784615 25.431098 70.107692 25.506589 70.430769 25.581423 70.753846 25.655598 71.076923 25.729111 71.400000 25.801958 71.723077 25.874137 72.046154 25.945643 72.369231 26.016475 72.692308 26.086628 73.015385 26.156099 73.338462 26.224886 73.661538 26.292986 73.984615 26.360394 74.307692 26.427108 74.630769 26.493125 74.953846 26.558441 75.276923 26.623054 75.600000 26.686960 75.923077 26.750156 76.246154 26.812639 76.569231 26.874406 76.892308 26.935453 77.215385 26.995777 77.538462 27.055376 77.861538 27.114245 78.184615 27.172383 78.507692 27.229785 78.830769 27.286449 79.153846 27.342371 79.476923 27.397548 79.800000 27.451977 80.123077 27.505655 80.446154 27.558578 80.769231 27.610745 81.092308 27.662150 81.415385 27.712792 81.738462 27.762666 82.061538 27.811770 82.384615 27.860101 82.707692 27.907656 83.030769 27.954431 83.353846 28.000423 83.676923 28.045628 84.000000 28.090045 84.323077 28.133670 84.646154 28.176507 84.969231 28.218557 85.292308 28.259824 85.615385 28.300311 85.938462 28.340022 86.261538 28.378960 86.584615 28.417127 86.907692 28.454528 87.230769 28.491164 87.553846 28.527040 87.876923 28.562159 88.200000 28.596523 88.523077 28.630136 88.846154 28.663000 89.169231 28.695120 89.492308 28.726499 89.815385 28.757139 90.138462 28.787043 90.461538 28.816215 90.784615 28.844659 91.107692 28.872376 91.430769 28.899371 91.753846 28.925647 92.076923 28.951206 92.400000 28.976052 92.723077 29.000188 93.046154 29.023617 93.369231 29.046343 93.692308 29.068368 94.015385 29.089696 94.338462 29.110329 94.661538 29.130272 94.984615 29.149527 95.307692 29.168097 95.630769 29.185986 95.953846 29.203197 96.276923 29.219732 96.600000 29.235596 96.923077 29.250791 97.246154 29.265320 97.569231 29.279187 97.892308 29.292394 98.215385 29.304946 98.538462 29.316844 98.861538 29.328093 99.184615 29.338695 99.507692 29.348654 99.830769 29.357973 100.153846 29.366654 100.476923 29.374702 100.800000 29.382118 101.123077 29.388908 101.446154 29.395073 101.769231 29.400616 102.092308 29.405542 102.415385 29.409852 102.738462 29.413551 103.061538 29.416642 103.384615 29.419127 103.707692 29.421010 104.030769 29.422294 104.353846 29.422982 104.676923 29.423077 105.000000 29.422583 105.323077 29.421502 105.646154 29.419838 105.969231 29.417594 106.292308 29.414774 106.615385 29.411379 106.938462 29.407414 107.261538 29.402882 107.584615 29.397786 107.907692 29.392128 108.230769 29.385913 108.553846 29.379143 108.876923 29.371822 109.200000 29.363952 109.523077 29.355537 109.846154 29.346580 110.169231 29.337085 110.492308 29.327053 110.815385 29.316490 111.138462 29.305396 111.461538 29.293777 111.784615 29.281635 112.107692 29.268973 112.430769 29.255794 112.753846 29.242102 113.076923 29.227900 113.400000 29.213190 113.723077 29.197977 114.046154 29.182263 114.369231 29.166051 114.692308 29.149344 115.015385 29.132147 115.338462 29.114461 115.661538 29.096290 115.984615 29.077638 116.307692 29.058507 116.630769 29.038901 116.953846 29.018822 117.276923 28.998274 117.600000 28.977260 117.923077 28.955784 118.246154 28.933848 118.569231 28.911456 118.892308 28.888610 119.215385 28.865314 119.538462 28.841572 119.861538 28.817385 120.184615 28.792758 120.507692 28.767694 120.830769 28.742195 121.153846 28.716266 121.476923 28.689908 121.800000 28.663126 122.123077 28.635922 122.446154 28.608300 122.769231 28.580263 123.092308 28.551814 123.415385 28.522955 123.738462 28.493691 124.061538 28.464025 124.384615 28.433959 124.707692 28.403497 125.030769 28.372642 125.353846 28.341397 125.676923 28.309766 126.000000 28.277751 126.323077 28.245355 126.646154 28.212583 126.969231 28.179436 127.292308 28.145919 127.615385 28.112034 127.938462 28.077784 128.261538 28.043173 128.584615 28.008204 128.907692 27.972880 129.230769 27.937204 129.553846 27.901180 129.876923 27.864810 130.200000 27.828097 130.523077 27.791046 130.846154 27.753659 131.169231 27.715939 131.492308 27.677889 131.815385 27.639512 132.138462 27.600813 132.461538 27.561793 132.784615 27.522457 133.107692 27.482806 133.430769 27.442845 133.753846 27.402577 134.076923 27.362004 134.400000 27.321130 134.723077 27.279958 135.046154 27.238492 135.369231 27.196734 135.692308 27.154687 136.015385 27.112355 136.338462 27.069741 136.661538 27.026848 136.984615 26.983680 137.307692 26.940239 137.630769 26.896528 137.953846 26.852551 138.276923 26.808312 138.600000 26.763812 138.923077 26.719055 139.246154 26.674045 139.569231 26.628785 139.892308 26.583277 140.215385 26.537525 140.538462 26.491533 140.861538 26.445302 141.184615 26.398838 141.507692 26.352141 141.830769 26.305217 142.153846 26.258067 142.476923 26.210696 142.800000 26.163106 143.123077 26.115300 143.446154 26.067282 143.769231 26.019055 144.092308 25.970622 144.415385 25.921986 144.738462 25.873151 145.061538 25.824118 145.384615 25.774893 145.707692 25.725477 146.030769 25.675875 146.353846 25.626088 146.676923 25.576121 147.000000 25.525976 147.323077 25.475657 147.646154 25.425167 147.969231 25.374509 148.292308 25.323686 148.615385 25.272701 148.938462 25.221558 149.261538 25.170260 149.584615 25.118809 149.907692 25.067210 150.230769 25.015465 150.553846 24.963577 150.876923 24.911549 151.200000 24.859386 151.523077 24.807089 151.846154 24.754662 152.169231 24.702109 152.492308 24.649432 152.815385 24.596634 153.138462 24.543719 153.461538 24.490690 153.784615 24.437551 154.107692 24.384303 154.430769 24.330951 154.753846 24.277497 155.076923 24.223945 155.400000 24.170298 155.723077 24.116559 156.046154 24.062732 156.369231 24.008818 156.692308 23.954823 157.015385 23.900748 157.338462 23.846597 157.661538 23.792373 157.984615 23.738080 158.307692 23.683720 158.630769 23.629296 158.953846 23.574812 159.276923 23.520272 159.600000 23.465677 159.923077 23.411032 160.246154 23.356339 160.569231 23.301601 160.892308 23.246823 161.215385 23.192006 161.538462 23.137155 161.861538 23.082272 162.184615 23.027360 162.507692 22.972423 162.830769 22.917464 163.153846 22.862486 163.476923 22.807492 163.800000 22.752485 164.123077 22.697469 164.446154 22.642446 164.769231 22.587421" class="line reactive nofill" /></g></g><g class="titles" /><g transform="translate(22, 10)" class="plot overlay"><g class="series serie-0 color-0" /></g><g transform="translate(22, 10)" class="plot text-overlay"><g class="series serie-0 color-0" /></g><g transform="translate(22, 10)" class="plot tooltip-overlay"><g transform="translate(0 0)" style="opacity: 0" class="tooltip"><rect rx="0" ry="0" width="0" height="0" class="tooltip-box" /><g class="text" /></g></g></g></svg>