<?xml version='1.0' encoding='utf-8'?>
<svg xmlns="http://www.w3.org/2000/svg" id="chart-f8f950b5-e710-4b54-92e2-ff50b505fe87" class="pygal-chart pygal-sparkline" viewBox="0 0 200 50" width="200" height="50"><!--Generated with pygal 3.0.5 (etree) ©Kozea 2012-2016 on 2025-05-25--><!--http://pygal.org--><!--http://github.com/Kozea/pygal--><defs><style type="text/css">#chart-f8f950b5-e710-4b54-92e2-ff50b505fe87{-webkit-user-select:none;-webkit-font-smoothing:antialiased;font-family:Consolas,"Liberation Mono",Menlo,Courier,monospace}#chart-f8f950b5-e710-4b54-92e2-ff50b505fe87 .title{font-family:Consolas,"Liberation Mono",Menlo,Courier,monospace;font-size:16px}#chart-f8f950b5-e710-4b54-92e2-ff50b505fe87 .legends .legend text{font-family:Consolas,"Liberation Mono",Menlo,Courier,monospace;font-size:14px}#chart-f8f950b5-e710-4b54-92e2-ff50b505fe87 .axis text{font-family:Consolas,"Liberation Mono",Menlo,Courier,monospace;font-size:10px}#chart-f8f950b5-e710-4b54-92e2-ff50b505fe87 .axis text.major{font-family:Consolas,"Liberation Mono",Menlo,Courier,monospace;font-size:10px}#chart-f8f950b5-e710-4b54-92e2-ff50b505fe87 .text-overlay text.value{font-family:Consolas,"Liberation Mono",Menlo,Courier,monospace;font-size:16px}#chart-f8f950b5-e710-4b54-92e2-ff50b505fe87 .text-overlay text.label{font-family:Consolas,"Liberation Mono",Menlo,Courier,monospace;font-size:10px}#chart-f8f950b5-e710-4b54-92e2-ff50b505fe87 .tooltip{font-family:Consolas,"Liberation Mono",Menlo,Courier,monospace;font-size:14px}#chart-f8f950b5-e710-4b54-92e2-ff50b505fe87 text.no_data{font-family:Consolas,"Liberation Mono",Menlo,Courier,monospace;font-size:64px}
#chart-f8f950b5-e710-4b54-92e2-ff50b505fe87{background-color:rgba(249,249,249,1)}#chart-f8f950b5-e710-4b54-92e2-ff50b505fe87 path,#chart-f8f950b5-e710-4b54-92e2-ff50b505fe87 line,#chart-f8f950b5-e710-4b54-92e2-ff50b505fe87 rect,#chart-f8f950b5-e710-4b54-92e2-ff50b505fe87 circle{-webkit-transition:150ms;-moz-transition:150ms;transition:150ms}#chart-f8f950b5-e710-4b54-92e2-ff50b505fe87 .graph &gt; .background{fill:rgba(249,249,249,1)}#chart-f8f950b5-e710-4b54-92e2-ff50b505fe87 .plot &gt; .background{fill:rgba(255,255,255,1)}#chart-f8f950b5-e710-4b54-92e2-ff50b505fe87 .graph{fill:rgba(0,0,0,.87)}#chart-f8f950b5-e710-4b54-92e2-ff50b505fe87 text.no_data{fill:rgba(0,0,0,1)}#chart-f8f950b5-e710-4b54-92e2-ff50b505fe87 .title{fill:rgba(0,0,0,1)}#chart-f8f950b5-e710-4b54-92e2-ff50b505fe87 .legends .legend text{fill:rgba(0,0,0,.87)}#chart-f8f950b5-e710-4b54-92e2-ff50b505fe87 .legends .legend:hover text{fill:rgba(0,0,0,1)}#chart-f8f950b5-e710-4b54-92e2-ff50b505fe87 .axis .line{stroke:rgba(0,0,0,1)}#chart-f8f950b5-e710-4b54-92e2-ff50b505fe87 .axis .guide.line{stroke:rgba(0,0,0,.54)}#chart-f8f950b5-e710-4b54-92e2-ff50b505fe87 .axis .major.line{stroke:rgba(0,0,0,.87)}#chart-f8f950b5-e710-4b54-92e2-ff50b505fe87 .axis text.major{fill:rgba(0,0,0,1)}#chart-f8f950b5-e710-4b54-92e2-ff50b505fe87 .axis.y .guides:hover .guide.line,#chart-f8f950b5-e710-4b54-92e2-ff50b505fe87 .line-graph .axis.x .guides:hover .guide.line,#chart-f8f950b5-e710-4b54-92e2-ff50b505fe87 .stackedline-graph .axis.x .guides:hover .guide.line,#chart-f8f950b5-e710-4b54-92e2-ff50b505fe87 .xy-graph .axis.x .guides:hover .guide.line{stroke:rgba(0,0,0,1)}#chart-f8f950b5-e710-4b54-92e2-ff50b505fe87 .axis .guides:hover text{fill:rgba(0,0,0,1)}#chart-f8f950b5-e710-4b54-92e2-ff50b505fe87 .reactive{fill-opacity:.7;stroke-opacity:.8;stroke-width:1}#chart-f8f950b5-e710-4b54-92e2-ff50b505fe87 .ci{stroke:rgba(0,0,0,.87)}#chart-f8f950b5-e710-4b54-92e2-ff50b505fe87 .reactive.active,#chart-f8f950b5-e710-4b54-92e2-ff50b505fe87 .active .reactive{fill-opacity:.8;stroke-opacity:.9;stroke-width:4}#chart-f8f950b5-e710-4b54-92e2-ff50b505fe87 .ci .reactive.active{stroke-width:1.5}#chart-f8f950b5-e710-4b54-92e2-ff50b505fe87 .series text{fill:rgba(0,0,0,1)}#chart-f8f950b5-e710-4b54-92e2-ff50b505fe87 .tooltip rect{fill:rgba(255,255,255,1);stroke:rgba(0,0,0,1);-webkit-transition:opacity 150ms;-moz-transition:opacity 150ms;transition:opacity 150ms}#chart-f8f950b5-e710-4b54-92e2-ff50b505fe87 .tooltip .label{fill:rgba(0,0,0,.87)}#chart-f8f950b5-e710-4b54-92e2-ff50b505fe87 .tooltip .label{fill:rgba(0,0,0,.87)}#chart-f8f950b5-e710-4b54-92e2-ff50b505fe87 .tooltip .legend{font-size:.8em;fill:rgba(0,0,0,.54)}#chart-f8f950b5-e710-4b54-92e2-ff50b505fe87 .tooltip .x_label{font-size:.6em;fill:rgba(0,0,0,1)}#chart-f8f950b5-e710-4b54-92e2-ff50b505fe87 .tooltip .xlink{font-size:.5em;text-decoration:underline}#chart-f8f950b5-e710-4b54-92e2-ff50b505fe87 .tooltip .value{font-size:1.5em}#chart-f8f950b5-e710-4b54-92e2-ff50b505fe87 .bound{font-size:.5em}#chart-f8f950b5-e710-4b54-92e2-ff50b505fe87 .max-value{font-size:.75em;fill:rgba(0,0,0,.54)}#chart-f8f950b5-e710-4b54-92e2-ff50b505fe87 .map-element{fill:rgba(255,255,255,1);stroke:rgba(0,0,0,.54) !important}#chart-f8f950b5-e710-4b54-92e2-ff50b505fe87 .map-element .reactive{fill-opacity:inherit;stroke-opacity:inherit}#chart-f8f950b5-e710-4b54-92e2-ff50b505fe87 .color-0,#chart-f8f950b5-e710-4b54-92e2-ff50b505fe87 .color-0 a:visited{stroke:#F44336;fill:#F44336}#chart-f8f950b5-e710-4b54-92e2-ff50b505fe87 .text-overlay .color-0 text{fill:black}
#chart-f8f950b5-e710-4b54-92e2-ff50b505fe87 text.no_data{text-anchor:middle}#chart-f8f950b5-e710-4b54-92e2-ff50b505fe87 .guide.line{fill:none}#chart-f8f950b5-e710-4b54-92e2-ff50b505fe87 .centered{text-anchor:middle}#chart-f8f950b5-e710-4b54-92e2-ff50b505fe87 .title{text-anchor:middle}#chart-f8f950b5-e710-4b54-92e2-ff50b505fe87 .legends .legend text{fill-opacity:1}#chart-f8f950b5-e710-4b54-92e2-ff50b505fe87 .axis.x text{text-anchor:middle}#chart-f8f950b5-e710-4b54-92e2-ff50b505fe87 .axis.x:not(.web) text[transform]{text-anchor:start}#chart-f8f950b5-e710-4b54-92e2-ff50b505fe87 .axis.x:not(.web) text[transform].backwards{text-anchor:end}#chart-f8f950b5-e710-4b54-92e2-ff50b505fe87 .axis.y text{text-anchor:end}#chart-f8f950b5-e710-4b54-92e2-ff50b505fe87 .axis.y text[transform].backwards{text-anchor:start}#chart-f8f950b5-e710-4b54-92e2-ff50b505fe87 .axis.y2 text{text-anchor:start}#chart-f8f950b5-e710-4b54-92e2-ff50b505fe87 .axis.y2 text[transform].backwards{text-anchor:end}#chart-f8f950b5-e710-4b54-92e2-ff50b505fe87 .axis .guide.line{stroke-dasharray:4,4;stroke:black}#chart-f8f950b5-e710-4b54-92e2-ff50b505fe87 .axis .major.guide.line{stroke-dasharray:6,6;stroke:black}#chart-f8f950b5-e710-4b54-92e2-ff50b505fe87 .horizontal .axis.y .guide.line,#chart-f8f950b5-e710-4b54-92e2-ff50b505fe87 .horizontal .axis.y2 .guide.line,#chart-f8f950b5-e710-4b54-92e2-ff50b505fe87 .vertical .axis.x .guide.line{opacity:0}#chart-f8f950b5-e710-4b54-92e2-ff50b505fe87 .horizontal .axis.always_show .guide.line,#chart-f8f950b5-e710-4b54-92e2-ff50b505fe87 .vertical .axis.always_show .guide.line{opacity:1 !important}#chart-f8f950b5-e710-4b54-92e2-ff50b505fe87 .axis.y .guides:hover .guide.line,#chart-f8f950b5-e710-4b54-92e2-ff50b505fe87 .axis.y2 .guides:hover .guide.line,#chart-f8f950b5-e710-4b54-92e2-ff50b505fe87 .axis.x .guides:hover .guide.line{opacity:1}#chart-f8f950b5-e710-4b54-92e2-ff50b505fe87 .axis .guides:hover text{opacity:1}#chart-f8f950b5-e710-4b54-92e2-ff50b505fe87 .nofill{fill:none}#chart-f8f950b5-e710-4b54-92e2-ff50b505fe87 .subtle-fill{fill-opacity:.2}#chart-f8f950b5-e710-4b54-92e2-ff50b505fe87 .dot{stroke-width:1px;fill-opacity:1;stroke-opacity:1}#chart-f8f950b5-e710-4b54-92e2-ff50b505fe87 .dot.active{stroke-width:5px}#chart-f8f950b5-e710-4b54-92e2-ff50b505fe87 .dot.negative{fill:transparent}#chart-f8f950b5-e710-4b54-92e2-ff50b505fe87 text,#chart-f8f950b5-e710-4b54-92e2-ff50b505fe87 tspan{stroke:none !important}#chart-f8f950b5-e710-4b54-92e2-ff50b505fe87 .series text.active{opacity:1}#chart-f8f950b5-e710-4b54-92e2-ff50b505fe87 .tooltip rect{fill-opacity:.95;stroke-width:.5}#chart-f8f950b5-e710-4b54-92e2-ff50b505fe87 .tooltip text{fill-opacity:1}#chart-f8f950b5-e710-4b54-92e2-ff50b505fe87 .showable{visibility:hidden}#chart-f8f950b5-e710-4b54-92e2-ff50b505fe87 .showable.shown{visibility:visible}#chart-f8f950b5-e710-4b54-92e2-ff50b505fe87 .gauge-background{fill:rgba(229,229,229,1);stroke:none}#chart-f8f950b5-e710-4b54-92e2-ff50b505fe87 .bg-lines{stroke:rgba(249,249,249,1);stroke-width:2px}</style><script type="text/javascript">window.pygal = window.pygal || {};window.pygal.config = window.pygal.config || {};window.pygal.config['f8f950b5-e710-4b54-92e2-ff50b505fe87'] = {"allow_interruptions": false, "box_mode": "extremes", "classes": ["pygal-chart", "pygal-sparkline"], "css": ["file://style.css", "file://graph.css"], "defs": [], "disable_xml_declaration": false, "dots_size": 2.5, "dynamic_print_values": false, "explicit_size": true, "fill": false, "force_uri_protocol": "https", "formatter": null, "half_pie": false, "height": 50, "include_x_axis": false, "inner_radius": 0, "interpolate": "cubic", "interpolation_parameters": {}, "interpolation_precision": 250, "inverse_y_axis": false, "js": [], "legend_at_bottom": false, "legend_at_bottom_columns": null, "legend_box_size": 12, "logarithmic": false, "margin": 10, "margin_bottom": null, "margin_left": null, "margin_right": null, "margin_top": null, "max_scale": 2, "min_scale": 1, "missing_value_fill_truncation": "x", "no_data_text": "", "no_prefix": false, "order_min": null, "pretty_print": false, "print_labels": false, "print_values": false, "print_values_position": "center", "print_zeroes": true, "range": null, "rounded_bars": null, "secondary_range": null, "show_dots": false, "show_legend": false, "show_minor_x_labels": true, "show_minor_y_labels": true, "show_only_major_dots": false, "show_x_guides": false, "show_x_labels": false, "show_y_guides": true, "show_y_labels": true, "spacing": 0, "stack_from_top": false, "strict": false, "stroke": true, "stroke_style": null, "style": {"background": "rgba(249, 249, 249, 1)", "ci_colors": [], "colors": ["#F44336", "#3F51B5", "#009688", "#FFC107", "#FF5722", "#9C27B0", "#03A9F4", "#8BC34A", "#FF9800", "#E91E63", "#2196F3", "#4CAF50", "#FFEB3B", "#673AB7", "#00BCD4", "#CDDC39", "#9E9E9E", "#607D8B"], "dot_opacity": "1", "font_family": "Consolas, \"Liberation Mono\", Menlo, Courier, monospace", "foreground": "rgba(0, 0, 0, .87)", "foreground_strong": "rgba(0, 0, 0, 1)", "foreground_subtle": "rgba(0, 0, 0, .54)", "guide_stroke_color": "black", "guide_stroke_dasharray": "4,4", "label_font_family": "Consolas, \"Liberation Mono\", Menlo, Courier, monospace", "label_font_size": 10, "legend_font_family": "Consolas, \"Liberation Mono\", Menlo, Courier, monospace", "legend_font_size": 14, "major_guide_stroke_color": "black", "major_guide_stroke_dasharray": "6,6", "major_label_font_family": "Consolas, \"Liberation Mono\", Menlo, Courier, monospace", "major_label_font_size": 10, "no_data_font_family": "Consolas, \"Liberation Mono\", Menlo, Courier, monospace", "no_data_font_size": 64, "opacity": ".7", "opacity_hover": ".8", "plot_background": "rgba(255, 255, 255, 1)", "stroke_opacity": ".8", "stroke_opacity_hover": ".9", "stroke_width": "1", "stroke_width_hover": "4", "title_font_family": "Consolas, \"Liberation Mono\", Menlo, Courier, monospace", "title_font_size": 16, "tooltip_font_family": "Consolas, \"Liberation Mono\", Menlo, Courier, monospace", "tooltip_font_size": 14, "transition": "150ms", "value_background": "rgba(229, 229, 229, 1)", "value_colors": [], "value_font_family": "Consolas, \"Liberation Mono\", Menlo, Courier, monospace", "value_font_size": 16, "value_label_font_family": "Consolas, \"Liberation Mono\", Menlo, Courier, monospace", "value_label_font_size": 10}, "title": null, "tooltip_border_radius": 0, "tooltip_fancy_mode": true, "truncate_label": null, "truncate_legend": null, "width": 200, "x_label_rotation": 0, "x_labels": ["2025/5", "2025/4", "2025/2", "2024/11", "2024/9", "2024/8", "2024/7", "2024/6", "2024/4", "2024/2", "2024/1", "2023/12", "2023/10", "2023/9", "2023/8", "2023/7", "2023/6", "2023/5"], "x_labels_major": null, "x_labels_major_count": null, "x_labels_major_every": null, "x_title": null, "xrange": null, "y_label_rotation": 0, "y_labels": null, "y_labels_major": null, "y_labels_major_count": null, "y_labels_major_every": null, "y_title": null, "zero": 0, "legends": [""]}</script></defs><title>Pygal</title><g class="graph line-graph vertical"><rect x="0" y="0" width="200" height="50" class="background" /><g transform="translate(20, 10)" class="plot"><rect x="0" y="0" width="170" height="30" class="background" /><g class="axis y always_show"><g class="guides"><path d="M0.000000 27.794838 h170.000000" class="axis line" /><text x="-5" y="31.294838355396585" class="">0</text><title>0</title></g><g class="guides"><path d="M0.000000 8.000481 h170.000000" class="guide line" /><text x="-5" y="11.500480712588185" class="">8</text><title>8</title></g></g><g class="series serie-0 color-0"><path d="M3.269231 25.320544 L3.307692 25.363178 3.346154 25.405808 3.384615 25.448431 3.423077 25.491040 3.461538 25.533634 3.500000 25.576207 3.538462 25.618756 3.576923 25.661275 3.615385 25.703762 3.653846 25.746213 3.692308 25.788622 3.730769 25.830986 3.769231 25.873302 3.807692 25.915564 3.846154 25.957768 3.884615 25.999912 3.923077 26.041989 3.961538 26.083998 4.000000 26.125932 4.038462 26.167789 4.076923 26.209564 4.115385 26.251253 4.153846 26.292852 4.192308 26.334356 4.230769 26.375763 4.269231 26.417067 4.307692 26.458265 4.346154 26.499352 4.384615 26.540325 4.423077 26.581179 4.461538 26.621910 4.500000 26.662515 4.538462 26.702988 4.576923 26.743326 4.615385 26.783525 4.653846 26.823581 4.692308 26.863490 4.730769 26.903247 4.769231 26.942848 4.807692 26.982290 4.846154 27.021569 4.884615 27.060679 4.923077 27.099617 4.961538 27.138380 5.000000 27.176962 5.038462 27.215361 5.076923 27.253570 5.115385 27.291588 5.153846 27.329409 5.192308 27.367030 5.230769 27.404446 5.269231 27.441653 5.307692 27.478647 5.346154 27.515424 5.384615 27.551981 5.423077 27.588312 5.461538 27.624414 5.500000 27.660283 5.538462 27.695914 5.576923 27.731304 5.615385 27.766449 5.653846 27.801343 5.692308 27.835984 5.730769 27.870367 5.769231 27.904488 5.807692 27.938343 5.846154 27.971928 5.884615 28.005239 5.923077 28.038271 5.961538 28.071021 6.000000 28.103484 6.038462 28.135657 6.076923 28.167535 6.115385 28.199115 6.153846 28.230391 6.192308 28.261360 6.230769 28.292019 6.269231 28.322362 6.307692 28.352386 6.346154 28.382087 6.384615 28.411460 6.423077 28.440502 6.461538 28.469208 6.500000 28.497574 6.538462 28.525597 6.576923 28.553271 6.615385 28.580594 6.653846 28.607560 6.692308 28.634167 6.730769 28.660409 6.769231 28.686283 6.807692 28.711784 6.846154 28.736909 6.884615 28.761653 6.923077 28.786012 6.961538 28.809982 7.000000 28.833560 7.038462 28.856741 7.076923 28.879520 7.115385 28.901894 7.153846 28.923859 7.192308 28.945411 7.230769 28.966545 7.269231 28.987257 7.307692 29.007544 7.346154 29.027401 7.384615 29.046824 7.423077 29.065810 7.461538 29.084353 7.500000 29.102450 7.538462 29.120097 7.576923 29.137289 7.615385 29.154023 7.653846 29.170295 7.692308 29.186100 7.730769 29.201434 7.769231 29.216294 7.807692 29.230674 7.846154 29.244572 7.884615 29.257983 7.923077 29.270902 7.961538 29.283326 8.000000 29.295251 8.038462 29.306673 8.076923 29.317587 8.115385 29.327989 8.153846 29.337876 8.192308 29.347242 8.230769 29.356085 8.269231 29.364400 8.307692 29.372183 8.346154 29.379429 8.384615 29.386136 8.423077 29.392298 8.461538 29.397911 8.500000 29.402972 8.538462 29.407477 8.576923 29.411420 8.615385 29.414799 8.653846 29.417609 8.692308 29.419846 8.730769 29.421505 8.769231 29.422584 8.807692 29.423077 8.846154 29.422981 8.884615 29.422291 8.923077 29.421004 8.961538 29.419115 9.000000 29.416620 9.038462 29.413516 9.076923 29.409797 9.115385 29.405461 9.153846 29.400502 9.192308 29.394917 9.230769 29.388702 9.269231 29.381853 9.307692 29.374364 9.346154 29.366234 9.384615 29.357456 9.423077 29.348028 9.461538 29.337945 9.500000 29.327203 9.538462 29.315798 9.576923 29.303726 9.615385 29.290982 9.653846 29.277564 9.692308 29.263465 9.730769 29.248684 9.769231 29.233214 9.807692 29.217053 9.846154 29.200196 9.884615 29.182639 9.923077 29.164379 9.961538 29.145410 10.000000 29.125729 10.038462 29.105331 10.076923 29.084214 10.115385 29.062371 10.153846 29.039801 10.192308 29.016497 10.230769 28.992457 10.269231 28.967676 10.307692 28.942151 10.346154 28.915876 10.384615 28.888848 10.423077 28.861063 10.461538 28.832516 10.500000 28.803204 10.538462 28.773123 10.576923 28.742268 10.615385 28.710636 10.653846 28.678221 10.692308 28.645021 10.730769 28.611031 10.769231 28.576247 10.807692 28.540665 10.846154 28.504280 10.884615 28.467090 10.923077 28.429088 10.961538 28.390273 11.000000 28.350638 11.038462 28.310181 11.076923 28.268898 11.115385 28.226783 11.153846 28.183833 11.192308 28.140045 11.230769 28.095413 11.269231 28.049934 11.307692 28.003604 11.346154 27.956418 11.384615 27.908372 11.423077 27.859463 11.461538 27.809687 11.500000 27.759038 11.538462 27.707514 11.576923 27.655109 11.615385 27.601821 11.653846 27.547644 11.692308 27.492575 11.730769 27.436610 11.769231 27.379745 11.807692 27.321974 11.846154 27.263295 11.884615 27.203704 11.923077 27.143195 11.961538 27.081766 12.000000 27.019412 12.038462 26.956128 12.076923 26.891911 12.115385 26.826757 12.153846 26.760662 12.192308 26.693621 12.230769 26.625631 12.269231 26.556687 12.307692 26.486785 12.346154 26.415921 12.384615 26.344092 12.423077 26.271292 12.461538 26.197518 12.500000 26.122766 12.538462 26.047032 12.576923 25.970311 12.615385 25.892600 12.653846 25.813894 12.692308 25.734190 12.730769 25.653482 12.769231 25.571768 12.807692 25.489043 12.846154 25.405303 12.884615 25.320544 12.923077 25.234764 12.961538 25.147971 13.000000 25.060178 13.038462 24.971394 13.076923 24.881630 13.115385 24.790898 13.153846 24.699209 13.192308 24.606573 13.230769 24.513002 13.269231 24.418506 13.307692 24.323097 13.346154 24.226785 13.384615 24.129581 13.423077 24.031496 13.461538 23.932542 13.500000 23.832729 13.538462 23.732068 13.576923 23.630570 13.615385 23.528247 13.653846 23.425108 13.692308 23.321166 13.730769 23.216430 13.769231 23.110912 13.807692 23.004624 13.846154 22.897575 13.884615 22.789777 13.923077 22.681241 13.961538 22.571977 14.000000 22.461998 14.038462 22.351313 14.076923 22.239934 14.115385 22.127871 14.153846 22.015136 14.192308 21.901739 14.230769 21.787692 14.269231 21.673006 14.307692 21.557691 14.346154 21.441758 14.384615 21.325219 14.423077 21.208084 14.461538 21.090364 14.500000 20.972071 14.538462 20.853215 14.576923 20.733807 14.615385 20.613858 14.653846 20.493379 14.692308 20.372382 14.730769 20.250876 14.769231 20.128874 14.807692 20.006385 14.846154 19.883421 14.884615 19.759994 14.923077 19.636113 14.961538 19.511790 15.000000 19.387035 15.038462 19.261861 15.076923 19.136277 15.115385 19.010295 15.153846 18.883925 15.192308 18.757180 15.230769 18.630068 15.269231 18.502603 15.307692 18.374793 15.346154 18.246651 15.384615 18.118188 15.423077 17.989414 15.461538 17.860340 15.500000 17.730978 15.538462 17.601338 15.576923 17.471431 15.615385 17.341269 15.653846 17.210861 15.692308 17.080220 15.730769 16.949356 15.769231 16.818280 15.807692 16.687003 15.846154 16.555535 15.884615 16.423889 15.923077 16.292075 15.961538 16.160104 16.000000 16.027986 16.038462 15.895733 16.076923 15.763357 16.115385 15.630866 16.153846 15.498274 16.192308 15.365590 16.230769 15.232826 16.269231 15.099992 16.307692 14.967100 16.346154 14.834160 16.384615 14.701184 16.423077 14.568183 16.461538 14.435166 16.500000 14.302146 16.538462 14.169134 16.576923 14.036140 16.615385 13.903175 16.653846 13.770250 16.692308 13.637376 16.730769 13.504565 16.769231 13.371826 16.807692 13.239172 16.846154 13.106613 16.884615 12.974160 16.923077 12.841824 16.961538 12.709615 17.000000 12.577546 17.038462 12.445626 17.076923 12.313868 17.115385 12.182281 17.153846 12.050876 17.192308 11.919666 17.230769 11.788660 17.269231 11.657870 17.307692 11.527306 17.346154 11.396980 17.384615 11.266903 17.423077 11.137085 17.461538 11.007538 17.500000 10.878271 17.538462 10.749298 17.576923 10.620627 17.615385 10.492271 17.653846 10.364241 17.692308 10.236546 17.730769 10.109199 17.769231 9.982210 17.807692 9.855590 17.846154 9.729350 17.884615 9.603501 17.923077 9.478054 17.961538 9.353020 18.000000 9.228410 18.038462 9.104235 18.076923 8.980506 18.115385 8.857234 18.153846 8.734429 18.192308 8.612104 18.230769 8.490268 18.269231 8.368932 18.307692 8.248109 18.346154 8.127808 18.384615 8.008040 18.423077 7.888817 18.461538 7.770150 18.500000 7.652049 18.538462 7.534525 18.576923 7.417590 18.615385 7.301255 18.653846 7.185529 18.692308 7.070425 18.730769 6.955953 18.769231 6.842125 18.807692 6.728950 18.846154 6.616441 18.884615 6.504608 18.923077 6.393462 18.961538 6.283014 19.000000 6.173275 19.038462 6.064256 19.076923 5.955967 19.115385 5.848421 19.153846 5.741628 19.192308 5.635598 19.230769 5.530343 19.269231 5.425874 19.307692 5.322202 19.346154 5.219337 19.384615 5.117291 19.423077 5.016075 19.461538 4.915699 19.500000 4.816174 19.538462 4.717513 19.576923 4.619724 19.615385 4.522820 19.653846 4.426812 19.692308 4.331709 19.730769 4.237524 19.769231 4.144268 19.807692 4.051950 19.846154 3.960583 19.884615 3.870177 19.923077 3.780743 19.961538 3.692292 20.000000 3.604835 20.038462 3.518383 20.076923 3.432948 20.115385 3.348539 20.153846 3.265168 20.192308 3.182846 20.230769 3.101583 20.269231 3.021392 20.307692 2.942282 20.346154 2.864265 20.384615 2.787352 20.423077 2.711553 20.461538 2.636880 20.500000 2.563344 20.538462 2.490955 20.576923 2.419725 20.615385 2.349664 20.653846 2.280783 20.692308 2.213094 20.730769 2.146607 20.769231 2.081334 20.807692 2.017285 20.846154 1.954471 20.884615 1.892903 20.923077 1.832593 20.961538 1.773551 21.000000 1.715787 21.038462 1.659314 21.076923 1.604142 21.115385 1.550282 21.153846 1.497745 21.192308 1.446542 21.230769 1.396683 21.269231 1.348181 21.307692 1.301045 21.346154 1.255287 21.384615 1.210918 21.423077 1.167949 21.461538 1.126390 21.500000 1.086253 21.538462 1.047548 21.576923 1.010287 21.615385 0.974481 21.653846 0.940140 21.692308 0.907275 21.730769 0.875898 21.769231 0.846019 21.807692 0.817650 21.846154 0.790801 21.884615 0.765483 21.923077 0.741707 21.961538 0.719485 22.000000 0.698827 22.038462 0.679744 22.076923 0.662247 22.115385 0.646347 22.153846 0.632055 22.192308 0.619382 22.230769 0.608339 22.269231 0.598936 22.307692 0.591186 22.346154 0.585099 22.384615 0.580685 22.423077 0.577956 22.461538 0.576923 22.500000 0.577597 22.538462 0.579984 22.576923 0.584078 22.615385 0.589867 22.653846 0.597340 22.692308 0.606485 22.730769 0.617292 22.769231 0.629749 22.807692 0.643845 22.846154 0.659568 22.884615 0.676908 22.923077 0.695853 22.961538 0.716391 23.000000 0.738513 23.038462 0.762205 23.076923 0.787458 23.115385 0.814259 23.153846 0.842598 23.192308 0.872463 23.230769 0.903843 23.269231 0.936727 23.307692 0.971103 23.346154 1.006961 23.384615 1.044289 23.423077 1.083075 23.461538 1.123309 23.500000 1.164979 23.538462 1.208074 23.576923 1.252582 23.615385 1.298493 23.653846 1.345796 23.692308 1.394478 23.730769 1.444529 23.769231 1.495937 23.807692 1.548692 23.846154 1.602781 23.884615 1.658194 23.923077 1.714919 23.961538 1.772946 24.000000 1.832262 24.038462 1.892857 24.076923 1.954720 24.115385 2.017838 24.153846 2.082201 24.192308 2.147798 24.230769 2.214617 24.269231 2.282648 24.307692 2.351878 24.346154 2.422296 24.384615 2.493892 24.423077 2.566654 24.461538 2.640571 24.500000 2.715631 24.538462 2.791824 24.576923 2.869137 24.615385 2.947560 24.653846 3.027082 24.692308 3.107691 24.730769 3.189376 24.769231 3.272126 24.807692 3.355929 24.846154 3.440774 24.884615 3.526650 24.923077 3.613546 24.961538 3.701451 25.000000 3.790352 25.038462 3.880240 25.076923 3.971102 25.115385 4.062927 25.153846 4.155705 25.192308 4.249424 25.230769 4.344072 25.269231 4.439638 25.307692 4.536112 25.346154 4.633482 25.384615 4.731736 25.423077 4.830863 25.461538 4.930853 25.500000 5.031693 25.538462 5.133373 25.576923 5.235881 25.615385 5.339207 25.653846 5.443338 25.692308 5.548264 25.730769 5.653973 25.769231 5.760454 25.807692 5.867695 25.846154 5.975687 25.884615 6.084416 25.923077 6.193873 25.961538 6.304045 26.000000 6.414921 26.038462 6.526491 26.076923 6.638743 26.115385 6.751666 26.153846 6.865248 26.192308 6.979478 26.230769 7.094346 26.269231 7.209838 26.307692 7.325946 26.346154 7.442656 26.384615 7.559959 26.423077 7.677842 26.461538 7.796294 26.500000 7.915304 26.538462 8.034862 26.576923 8.154955 26.615385 8.275572 26.653846 8.396703 26.692308 8.518335 26.730769 8.640458 26.769231 8.763060 26.807692 8.886131 26.846154 9.009658 26.884615 9.133631 26.923077 9.258038 26.961538 9.382868 27.000000 9.508110 27.038462 9.633752 27.076923 9.759784 27.115385 9.886193 27.153846 10.012970 27.192308 10.140102 27.230769 10.267578 27.269231 10.395387 27.307692 10.523518 27.346154 10.651959 27.384615 10.780700 27.423077 10.909729 27.461538 11.039034 27.500000 11.168604 27.538462 11.298429 27.576923 11.428497 27.615385 11.558797 27.653846 11.689316 27.692308 11.820045 27.730769 11.950972 27.769231 12.082086 27.807692 12.213375 27.846154 12.344828 27.884615 12.476434 27.923077 12.608181 27.961538 12.740059 28.000000 12.872056 28.038462 13.004161 28.076923 13.136362 28.115385 13.268649 28.153846 13.401010 28.192308 13.533433 28.230769 13.665909 28.269231 13.798424 28.307692 13.930969 28.346154 14.063531 28.384615 14.196100 28.423077 14.328664 28.461538 14.461212 28.500000 14.593732 28.538462 14.726215 28.576923 14.858647 28.615385 14.991019 28.653846 15.123318 28.692308 15.255534 28.730769 15.387654 28.769231 15.519669 28.807692 15.651567 28.846154 15.783336 28.884615 15.914965 28.923077 16.046443 28.961538 16.177758 29.000000 16.308900 29.038462 16.439858 29.076923 16.570619 29.115385 16.701173 29.153846 16.831508 29.192308 16.961613 29.230769 17.091477 29.269231 17.221089 29.307692 17.350437 29.346154 17.479510 29.384615 17.608297 29.423077 17.736786 29.461538 17.864967 29.500000 17.992828 29.538462 18.120358 29.576923 18.247545 29.615385 18.374378 29.653846 18.500847 29.692308 18.626939 29.730769 18.752644 29.769231 18.877950 29.807692 19.002846 29.846154 19.127321 29.884615 19.251363 29.923077 19.374961 29.961538 19.498105 30.000000 19.620782 30.038462 19.742982 30.076923 19.864692 30.115385 19.985903 30.153846 20.106603 30.192308 20.226779 30.230769 20.346422 30.269231 20.465520 30.307692 20.584062 30.346154 20.702036 30.384615 20.819431 30.423077 20.936236 30.461538 21.052439 30.500000 21.168030 30.538462 21.282997 30.576923 21.397329 30.615385 21.511015 30.653846 21.624043 30.692308 21.736401 30.730769 21.848080 30.769231 21.959067 30.807692 22.069352 30.846154 22.178923 30.884615 22.287768 30.923077 22.395877 30.961538 22.503238 31.000000 22.609840 31.038462 22.715672 31.076923 22.820723 31.115385 22.924980 31.153846 23.028434 31.192308 23.131072 31.230769 23.232884 31.269231 23.333858 31.307692 23.433984 31.346154 23.533248 31.384615 23.631642 31.423077 23.729152 31.461538 23.825768 31.500000 23.921479 31.538462 24.016274 31.576923 24.110140 31.615385 24.203068 31.653846 24.295045 31.692308 24.386060 31.730769 24.476103 31.769231 24.565161 31.807692 24.653224 31.846154 24.740281 31.884615 24.826319 31.923077 24.911328 31.961538 24.995297 32.000000 25.078215 32.038462 25.160069 32.076923 25.240849 32.115385 25.320544 32.153846 25.399144 32.192308 25.476654 32.230769 25.553078 32.269231 25.628422 32.307692 25.702692 32.346154 25.775892 32.384615 25.848030 32.423077 25.919109 32.461538 25.989136 32.500000 26.058117 32.538462 26.126057 32.576923 26.192961 32.615385 26.258835 32.653846 26.323685 32.692308 26.387516 32.730769 26.450333 32.769231 26.512143 32.807692 26.572951 32.846154 26.632762 32.884615 26.691582 32.923077 26.749417 32.961538 26.806272 33.000000 26.862152 33.038462 26.917064 33.076923 26.971012 33.115385 27.024003 33.153846 27.076042 33.192308 27.127134 33.230769 27.177285 33.269231 27.226501 33.307692 27.274787 33.346154 27.322149 33.384615 27.368592 33.423077 27.414121 33.461538 27.458744 33.500000 27.502464 33.538462 27.545288 33.576923 27.587220 33.615385 27.628268 33.653846 27.668436 33.692308 27.707729 33.730769 27.746154 33.769231 27.783716 33.807692 27.820420 33.846154 27.856272 33.884615 27.891278 33.923077 27.925443 33.961538 27.958773 34.000000 27.991273 34.038462 28.022949 34.076923 28.053806 34.115385 28.083850 34.153846 28.113087 34.192308 28.141522 34.230769 28.169160 34.269231 28.196008 34.307692 28.222070 34.346154 28.247353 34.384615 28.271862 34.423077 28.295602 34.461538 28.318579 34.500000 28.340799 34.538462 28.362267 34.576923 28.382989 34.615385 28.402970 34.653846 28.422216 34.692308 28.440732 34.730769 28.458524 34.769231 28.475598 34.807692 28.491959 34.846154 28.507612 34.884615 28.522564 34.923077 28.536819 34.961538 28.550384 35.000000 28.563264 35.038462 28.575464 35.076923 28.586990 35.115385 28.597848 35.153846 28.608043 35.192308 28.617580 35.230769 28.626466 35.269231 28.634706 35.307692 28.642305 35.346154 28.649269 35.384615 28.655604 35.423077 28.661314 35.461538 28.666407 35.500000 28.670886 35.538462 28.674758 35.576923 28.678029 35.615385 28.680704 35.653846 28.682788 35.692308 28.684287 35.730769 28.685206 35.769231 28.685552 35.807692 28.685329 35.846154 28.684544 35.884615 28.683202 35.923077 28.681308 35.961538 28.678868 36.000000 28.675887 36.038462 28.672372 36.076923 28.668327 36.115385 28.663758 36.153846 28.658671 36.192308 28.653072 36.230769 28.646965 36.269231 28.640357 36.307692 28.633253 36.346154 28.625658 36.384615 28.617579 36.423077 28.609020 36.461538 28.599987 36.500000 28.590487 36.538462 28.580523 36.576923 28.570103 36.615385 28.559231 36.653846 28.547914 36.692308 28.536155 36.730769 28.523963 36.769231 28.511340 36.807692 28.498295 36.846154 28.484831 36.884615 28.470954 36.923077 28.456671 36.961538 28.441986 37.000000 28.426905 37.038462 28.411434 37.076923 28.395579 37.115385 28.379344 37.153846 28.362735 37.192308 28.345758 37.230769 28.328419 37.269231 28.310723 37.307692 28.292676 37.346154 28.274283 37.384615 28.255549 37.423077 28.236481 37.461538 28.217084 37.500000 28.197363 37.538462 28.177325 37.576923 28.156973 37.615385 28.136315 37.653846 28.115356 37.692308 28.094101 37.730769 28.072556 37.769231 28.050726 37.807692 28.028617 37.846154 28.006234 37.884615 27.983584 37.923077 27.960671 37.961538 27.937502 38.000000 27.914081 38.038462 27.890415 38.076923 27.866508 38.115385 27.842367 38.153846 27.817997 38.192308 27.793403 38.230769 27.768592 38.269231 27.743568 38.307692 27.718338 38.346154 27.692906 38.384615 27.667279 38.423077 27.641461 38.461538 27.615459 38.500000 27.589279 38.538462 27.562924 38.576923 27.536403 38.615385 27.509718 38.653846 27.482877 38.692308 27.455885 38.730769 27.428748 38.769231 27.401470 38.807692 27.374058 38.846154 27.346517 38.884615 27.318853 38.923077 27.291071 38.961538 27.263177 39.000000 27.235176 39.038462 27.207075 39.076923 27.178877 39.115385 27.150590 39.153846 27.122219 39.192308 27.093768 39.230769 27.065244 39.269231 27.036653 39.307692 27.008000 39.346154 26.979290 39.384615 26.950528 39.423077 26.921722 39.461538 26.892876 39.500000 26.863995 39.538462 26.835085 39.576923 26.806153 39.615385 26.777203 39.653846 26.748240 39.692308 26.719271 39.730769 26.690302 39.769231 26.661337 39.807692 26.632382 39.846154 26.603442 39.884615 26.574524 39.923077 26.545633 39.961538 26.516775 40.000000 26.487954 40.038462 26.459177 40.076923 26.430449 40.115385 26.401776 40.153846 26.373163 40.192308 26.344616 40.230769 26.316140 40.269231 26.287741 40.307692 26.259425 40.346154 26.231196 40.384615 26.203062 40.423077 26.175026 40.461538 26.147095 40.500000 26.119275 40.538462 26.091570 40.576923 26.063987 40.615385 26.036531 40.653846 26.009207 40.692308 25.982021 40.730769 25.954979 40.769231 25.928087 40.807692 25.901349 40.846154 25.874772 40.884615 25.848360 40.923077 25.822120 40.961538 25.796057 41.000000 25.770177 41.038462 25.744484 41.076923 25.718986 41.115385 25.693687 41.153846 25.668592 41.192308 25.643708 41.230769 25.619041 41.269231 25.594594 41.307692 25.570375 41.346154 25.546388 41.384615 25.522640 41.423077 25.499136 41.461538 25.475880 41.500000 25.452880 41.538462 25.430140 41.576923 25.407667 41.615385 25.385465 41.653846 25.363540 41.692308 25.341898 41.730769 25.320544 41.769231 25.299482 41.807692 25.278714 41.846154 25.258236 41.884615 25.238047 41.923077 25.218146 41.961538 25.198532 42.000000 25.179203 42.038462 25.160157 42.076923 25.141393 42.115385 25.122909 42.153846 25.104705 42.192308 25.086778 42.230769 25.069126 42.269231 25.051750 42.307692 25.034646 42.346154 25.017814 42.384615 25.001252 42.423077 24.984958 42.461538 24.968932 42.500000 24.953171 42.538462 24.937674 42.576923 24.922439 42.615385 24.907466 42.653846 24.892752 42.692308 24.878296 42.730769 24.864097 42.769231 24.850153 42.807692 24.836463 42.846154 24.823025 42.884615 24.809837 42.923077 24.796899 42.961538 24.784208 43.000000 24.771763 43.038462 24.759563 43.076923 24.747607 43.115385 24.735891 43.153846 24.724417 43.192308 24.713180 43.230769 24.702182 43.269231 24.691418 43.307692 24.680889 43.346154 24.670593 43.384615 24.660528 43.423077 24.650693 43.461538 24.641086 43.500000 24.631706 43.538462 24.622552 43.576923 24.613621 43.615385 24.604912 43.653846 24.596424 43.692308 24.588156 43.730769 24.580105 43.769231 24.572271 43.807692 24.564652 43.846154 24.557246 43.884615 24.550052 43.923077 24.543068 43.961538 24.536293 44.000000 24.529726 44.038462 24.523364 44.076923 24.517207 44.115385 24.511253 44.153846 24.505501 44.192308 24.499948 44.230769 24.494594 44.269231 24.489437 44.307692 24.484475 44.346154 24.479707 44.384615 24.475132 44.423077 24.470748 44.461538 24.466553 44.500000 24.462547 44.538462 24.458727 44.576923 24.455092 44.615385 24.451641 44.653846 24.448371 44.692308 24.445283 44.730769 24.442373 44.769231 24.439641 44.807692 24.437085 44.846154 24.434704 44.884615 24.432496 44.923077 24.430460 44.961538 24.428593 45.000000 24.426896 45.038462 24.425365 45.076923 24.424001 45.115385 24.422800 45.153846 24.421762 45.192308 24.420886 45.230769 24.420169 45.269231 24.419610 45.307692 24.419208 45.346154 24.418962 45.384615 24.418869 45.423077 24.418928 45.461538 24.419138 45.500000 24.419498 45.538462 24.420005 45.576923 24.420659 45.615385 24.421457 45.653846 24.422399 45.692308 24.423483 45.730769 24.424707 45.769231 24.426069 45.807692 24.427570 45.846154 24.429206 45.884615 24.430976 45.923077 24.432879 45.961538 24.434914 46.000000 24.437079 46.038462 24.439372 46.076923 24.441792 46.115385 24.444338 46.153846 24.447007 46.192308 24.449799 46.230769 24.452712 46.269231 24.455744 46.307692 24.458895 46.346154 24.462162 46.384615 24.465544 46.423077 24.469039 46.461538 24.472647 46.500000 24.476365 46.538462 24.480192 46.576923 24.484126 46.615385 24.488167 46.653846 24.492313 46.692308 24.496561 46.730769 24.500911 46.769231 24.505361 46.807692 24.509910 46.846154 24.514556 46.884615 24.519297 46.923077 24.524133 46.961538 24.529061 47.000000 24.534081 47.038462 24.539190 47.076923 24.544387 47.115385 24.549671 47.153846 24.555041 47.192308 24.560494 47.230769 24.566029 47.269231 24.571645 47.307692 24.577340 47.346154 24.583113 47.384615 24.588962 47.423077 24.594887 47.461538 24.600884 47.500000 24.606953 47.538462 24.613092 47.576923 24.619301 47.615385 24.625576 47.653846 24.631918 47.692308 24.638323 47.730769 24.644792 47.769231 24.651322 47.807692 24.657912 47.846154 24.664560 47.884615 24.671265 47.923077 24.678026 47.961538 24.684840 48.000000 24.691707 48.038462 24.698625 48.076923 24.705592 48.115385 24.712607 48.153846 24.719669 48.192308 24.726775 48.230769 24.733925 48.269231 24.741117 48.307692 24.748350 48.346154 24.755622 48.384615 24.762931 48.423077 24.770276 48.461538 24.777656 48.500000 24.785068 48.538462 24.792512 48.576923 24.799987 48.615385 24.807490 48.653846 24.815020 48.692308 24.822575 48.730769 24.830155 48.769231 24.837757 48.807692 24.845381 48.846154 24.853024 48.884615 24.860685 48.923077 24.868363 48.961538 24.876056 49.000000 24.883763 49.038462 24.891482 49.076923 24.899211 49.115385 24.906950 49.153846 24.914696 49.192308 24.922449 49.230769 24.930207 49.269231 24.937967 49.307692 24.945730 49.346154 24.953492 49.384615 24.961254 49.423077 24.969013 49.461538 24.976767 49.500000 24.984516 49.538462 24.992258 49.576923 24.999991 49.615385 25.007713 49.653846 25.015425 49.692308 25.023122 49.730769 25.030806 49.769231 25.038473 49.807692 25.046123 49.846154 25.053753 49.884615 25.061363 49.923077 25.068951 49.961538 25.076515 50.000000 25.084054 50.038462 25.091566 50.076923 25.099051 50.115385 25.106506 50.153846 25.113930 50.192308 25.121321 50.230769 25.128678 50.269231 25.136000 50.307692 25.143285 50.346154 25.150531 50.384615 25.157738 50.423077 25.164903 50.461538 25.172024 50.500000 25.179102 50.538462 25.186133 50.576923 25.193118 50.615385 25.200053 50.653846 25.206937 50.692308 25.213770 50.730769 25.220550 50.769231 25.227274 50.807692 25.233943 50.846154 25.240553 50.884615 25.247104 50.923077 25.253594 50.961538 25.260022 51.000000 25.266386 51.038462 25.272685 51.076923 25.278916 51.115385 25.285080 51.153846 25.291174 51.192308 25.297196 51.230769 25.303146 51.269231 25.309021 51.307692 25.314821 51.346154 25.320544 51.384615 25.326188 51.423077 25.331753 51.461538 25.337241 51.500000 25.342652 51.538462 25.347985 51.576923 25.353241 51.615385 25.358421 51.653846 25.363525 51.692308 25.368554 51.730769 25.373507 51.769231 25.378386 51.807692 25.383191 51.846154 25.387921 51.884615 25.392578 51.923077 25.397162 51.961538 25.401673 52.000000 25.406111 52.038462 25.410478 52.076923 25.414773 52.115385 25.418997 52.153846 25.423151 52.192308 25.427234 52.230769 25.431247 52.269231 25.435190 52.307692 25.439065 52.346154 25.442870 52.384615 25.446607 52.423077 25.450277 52.461538 25.453878 52.500000 25.457413 52.538462 25.460881 52.576923 25.464282 52.615385 25.467618 52.653846 25.470887 52.692308 25.474092 52.730769 25.477232 52.769231 25.480308 52.807692 25.483320 52.846154 25.486268 52.884615 25.489153 52.923077 25.491975 52.961538 25.494735 53.000000 25.497433 53.038462 25.500069 53.076923 25.502644 53.115385 25.505158 53.153846 25.507612 53.192308 25.510007 53.230769 25.512341 53.269231 25.514616 53.307692 25.516833 53.346154 25.518991 53.384615 25.521091 53.423077 25.523134 53.461538 25.525119 53.500000 25.527048 53.538462 25.528920 53.576923 25.530736 53.615385 25.532497 53.653846 25.534203 53.692308 25.535853 53.730769 25.537450 53.769231 25.538992 53.807692 25.540481 53.846154 25.541917 53.884615 25.543300 53.923077 25.544630 53.961538 25.545908 54.000000 25.547135 54.038462 25.548311 54.076923 25.549436 54.115385 25.550510 54.153846 25.551535 54.192308 25.552510 54.230769 25.553436 54.269231 25.554313 54.307692 25.555141 54.346154 25.555922 54.384615 25.556655 54.423077 25.557340 54.461538 25.557979 54.500000 25.558572 54.538462 25.559119 54.576923 25.559620 54.615385 25.560075 54.653846 25.560486 54.692308 25.560853 54.730769 25.561175 54.769231 25.561454 54.807692 25.561690 54.846154 25.561883 54.884615 25.562034 54.923077 25.562142 54.961538 25.562209 55.000000 25.562235 55.038462 25.562220 55.076923 25.562164 55.115385 25.562069 55.153846 25.561934 55.192308 25.561759 55.230769 25.561546 55.269231 25.561295 55.307692 25.561005 55.346154 25.560678 55.384615 25.560313 55.423077 25.559912 55.461538 25.559474 55.500000 25.559001 55.538462 25.558491 55.576923 25.557947 55.615385 25.557368 55.653846 25.556754 55.692308 25.556106 55.730769 25.555425 55.769231 25.554710 55.807692 25.553963 55.846154 25.553183 55.884615 25.552371 55.923077 25.551527 55.961538 25.550652 56.000000 25.549747 56.038462 25.548811 56.076923 25.547845 56.115385 25.546849 56.153846 25.545824 56.192308 25.544770 56.230769 25.543688 56.269231 25.542578 56.307692 25.541440 56.346154 25.540275 56.384615 25.539083 56.423077 25.537864 56.461538 25.536620 56.500000 25.535350 56.538462 25.534054 56.576923 25.532734 56.615385 25.531389 56.653846 25.530021 56.692308 25.528628 56.730769 25.527213 56.769231 25.525774 56.807692 25.524313 56.846154 25.522830 56.884615 25.521326 56.923077 25.519800 56.961538 25.518253 57.000000 25.516686 57.038462 25.515099 57.076923 25.513492 57.115385 25.511866 57.153846 25.510221 57.192308 25.508558 57.230769 25.506876 57.269231 25.505177 57.307692 25.503461 57.346154 25.501727 57.384615 25.499978 57.423077 25.498212 57.461538 25.496430 57.500000 25.494634 57.538462 25.492822 57.576923 25.490996 57.615385 25.489156 57.653846 25.487302 57.692308 25.485435 57.730769 25.483555 57.769231 25.481663 57.807692 25.479758 57.846154 25.477842 57.884615 25.475915 57.923077 25.473976 57.961538 25.472028 58.000000 25.470069 58.038462 25.468100 58.076923 25.466122 58.115385 25.464136 58.153846 25.462141 58.192308 25.460137 58.230769 25.458126 58.269231 25.456108 58.307692 25.454083 58.346154 25.452052 58.384615 25.450014 58.423077 25.447971 58.461538 25.445922 58.500000 25.443868 58.538462 25.441810 58.576923 25.439748 58.615385 25.437683 58.653846 25.435614 58.692308 25.433542 58.730769 25.431467 58.769231 25.429391 58.807692 25.427312 58.846154 25.425233 58.884615 25.423152 58.923077 25.421071 58.961538 25.418990 59.000000 25.416910 59.038462 25.414830 59.076923 25.412751 59.115385 25.410673 59.153846 25.408598 59.192308 25.406525 59.230769 25.404454 59.269231 25.402387 59.307692 25.400323 59.346154 25.398263 59.384615 25.396207 59.423077 25.394156 59.461538 25.392110 59.500000 25.390069 59.538462 25.388035 59.576923 25.386007 59.615385 25.383985 59.653846 25.381970 59.692308 25.379963 59.730769 25.377964 59.769231 25.375973 59.807692 25.373991 59.846154 25.372018 59.884615 25.370055 59.923077 25.368101 59.961538 25.366157 60.000000 25.364225 60.038462 25.362303 60.076923 25.360393 60.115385 25.358494 60.153846 25.356608 60.192308 25.354735 60.230769 25.352875 60.269231 25.351028 60.307692 25.349195 60.346154 25.347376 60.384615 25.345572 60.423077 25.343783 60.461538 25.342010 60.500000 25.340252 60.538462 25.338511 60.576923 25.336786 60.615385 25.335078 60.653846 25.333388 60.692308 25.331716 60.730769 25.330062 60.769231 25.328427 60.807692 25.326810 60.846154 25.325213 60.884615 25.323636 60.923077 25.322080 60.961538 25.320544 61.000000 25.319029 61.038462 25.317534 61.076923 25.316061 61.115385 25.314609 61.153846 25.313177 61.192308 25.311765 61.230769 25.310374 61.269231 25.309004 61.307692 25.307653 61.346154 25.306323 61.384615 25.305013 61.423077 25.303722 61.461538 25.302451 61.500000 25.301200 61.538462 25.299969 61.576923 25.298757 61.615385 25.297564 61.653846 25.296391 61.692308 25.295237 61.730769 25.294102 61.769231 25.292985 61.807692 25.291888 61.846154 25.290809 61.884615 25.289749 61.923077 25.288708 61.961538 25.287684 62.000000 25.286680 62.038462 25.285693 62.076923 25.284724 62.115385 25.283774 62.153846 25.282841 62.192308 25.281926 62.230769 25.281028 62.269231 25.280149 62.307692 25.279286 62.346154 25.278441 62.384615 25.277614 62.423077 25.276803 62.461538 25.276009 62.500000 25.275233 62.538462 25.274473 62.576923 25.273730 62.615385 25.273003 62.653846 25.272293 62.692308 25.271599 62.730769 25.270922 62.769231 25.270260 62.807692 25.269615 62.846154 25.268986 62.884615 25.268372 62.923077 25.267775 62.961538 25.267193 63.000000 25.266626 63.038462 25.266075 63.076923 25.265540 63.115385 25.265019 63.153846 25.264514 63.192308 25.264023 63.230769 25.263548 63.269231 25.263087 63.307692 25.262641 63.346154 25.262209 63.384615 25.261792 63.423077 25.261390 63.461538 25.261001 63.500000 25.260627 63.538462 25.260267 63.576923 25.259921 63.615385 25.259588 63.653846 25.259270 63.692308 25.258965 63.730769 25.258673 63.769231 25.258395 63.807692 25.258130 63.846154 25.257879 63.884615 25.257640 63.923077 25.257414 63.961538 25.257202 64.000000 25.257002 64.038462 25.256815 64.076923 25.256640 64.115385 25.256478 64.153846 25.256328 64.192308 25.256190 64.230769 25.256065 64.269231 25.255951 64.307692 25.255850 64.346154 25.255760 64.384615 25.255682 64.423077 25.255615 64.461538 25.255561 64.500000 25.255517 64.538462 25.255485 64.576923 25.255464 64.615385 25.255454 64.653846 25.255455 64.692308 25.255466 64.730769 25.255489 64.769231 25.255522 64.807692 25.255566 64.846154 25.255620 64.884615 25.255685 64.923077 25.255759 64.961538 25.255844 65.000000 25.255939 65.038462 25.256044 65.076923 25.256158 65.115385 25.256283 65.153846 25.256416 65.192308 25.256560 65.230769 25.256712 65.269231 25.256874 65.307692 25.257046 65.346154 25.257226 65.384615 25.257415 65.423077 25.257613 65.461538 25.257819 65.500000 25.258035 65.538462 25.258259 65.576923 25.258491 65.615385 25.258731 65.653846 25.258980 65.692308 25.259237 65.730769 25.259502 65.769231 25.259775 65.807692 25.260055 65.846154 25.260343 65.884615 25.260639 65.923077 25.260942 65.961538 25.261253 66.000000 25.261571 66.038462 25.261896 66.076923 25.262228 66.115385 25.262567 66.153846 25.262912 66.192308 25.263265 66.230769 25.263624 66.269231 25.263989 66.307692 25.264361 66.346154 25.264740 66.384615 25.265124 66.423077 25.265515 66.461538 25.265911 66.500000 25.266313 66.538462 25.266722 66.576923 25.267135 66.615385 25.267555 66.653846 25.267979 66.692308 25.268410 66.730769 25.268845 66.769231 25.269285 66.807692 25.269731 66.846154 25.270181 66.884615 25.270636 66.923077 25.271096 66.961538 25.271561 67.000000 25.272030 67.038462 25.272503 67.076923 25.272981 67.115385 25.273462 67.153846 25.273948 67.192308 25.274438 67.230769 25.274932 67.269231 25.275429 67.307692 25.275930 67.346154 25.276435 67.384615 25.276943 67.423077 25.277454 67.461538 25.277968 67.500000 25.278486 67.538462 25.279007 67.576923 25.279530 67.615385 25.280056 67.653846 25.280585 67.692308 25.281117 67.730769 25.281651 67.769231 25.282187 67.807692 25.282726 67.846154 25.283267 67.884615 25.283809 67.923077 25.284354 67.961538 25.284901 68.000000 25.285449 68.038462 25.285999 68.076923 25.286550 68.115385 25.287103 68.153846 25.287657 68.192308 25.288212 68.230769 25.288769 68.269231 25.289326 68.307692 25.289884 68.346154 25.290444 68.384615 25.291003 68.423077 25.291563 68.461538 25.292124 68.500000 25.292685 68.538462 25.293246 68.576923 25.293808 68.615385 25.294369 68.653846 25.294930 68.692308 25.295492 68.730769 25.296052 68.769231 25.296613 68.807692 25.297173 68.846154 25.297732 68.884615 25.298291 68.923077 25.298849 68.961538 25.299405 69.000000 25.299961 69.038462 25.300516 69.076923 25.301069 69.115385 25.301621 69.153846 25.302172 69.192308 25.302721 69.230769 25.303268 69.269231 25.303814 69.307692 25.304357 69.346154 25.304899 69.384615 25.305439 69.423077 25.305976 69.461538 25.306511 69.500000 25.307044 69.538462 25.307574 69.576923 25.308101 69.615385 25.308626 69.653846 25.309148 69.692308 25.309667 69.730769 25.310183 69.769231 25.310695 69.807692 25.311205 69.846154 25.311711 69.884615 25.312214 69.923077 25.312713 69.961538 25.313208 70.000000 25.313699 70.038462 25.314187 70.076923 25.314671 70.115385 25.315150 70.153846 25.315625 70.192308 25.316096 70.230769 25.316563 70.269231 25.317025 70.307692 25.317482 70.346154 25.317934 70.384615 25.318382 70.423077 25.318825 70.461538 25.319262 70.500000 25.319695 70.538462 25.320122 70.576923 25.320544 70.615385 25.320960 70.653846 25.321371 70.692308 25.321776 70.730769 25.322176 70.769231 25.322570 70.807692 25.322960 70.846154 25.323343 70.884615 25.323722 70.923077 25.324095 70.961538 25.324463 71.000000 25.324826 71.038462 25.325183 71.076923 25.325535 71.115385 25.325883 71.153846 25.326225 71.192308 25.326561 71.230769 25.326893 71.269231 25.327220 71.307692 25.327541 71.346154 25.327858 71.384615 25.328170 71.423077 25.328477 71.461538 25.328778 71.500000 25.329075 71.538462 25.329367 71.576923 25.329654 71.615385 25.329937 71.653846 25.330214 71.692308 25.330487 71.730769 25.330755 71.769231 25.331018 71.807692 25.331277 71.846154 25.331530 71.884615 25.331780 71.923077 25.332024 71.961538 25.332264 72.000000 25.332500 72.038462 25.332730 72.076923 25.332957 72.115385 25.333179 72.153846 25.333396 72.192308 25.333609 72.230769 25.333818 72.269231 25.334022 72.307692 25.334221 72.346154 25.334417 72.384615 25.334608 72.423077 25.334795 72.461538 25.334977 72.500000 25.335156 72.538462 25.335330 72.576923 25.335500 72.615385 25.335665 72.653846 25.335827 72.692308 25.335985 72.730769 25.336138 72.769231 25.336287 72.807692 25.336433 72.846154 25.336574 72.884615 25.336711 72.923077 25.336845 72.961538 25.336974 73.000000 25.337100 73.038462 25.337222 73.076923 25.337340 73.115385 25.337454 73.153846 25.337564 73.192308 25.337670 73.230769 25.337773 73.269231 25.337872 73.307692 25.337967 73.346154 25.338059 73.384615 25.338147 73.423077 25.338231 73.461538 25.338312 73.500000 25.338389 73.538462 25.338463 73.576923 25.338533 73.615385 25.338600 73.653846 25.338663 73.692308 25.338723 73.730769 25.338779 73.769231 25.338832 73.807692 25.338881 73.846154 25.338928 73.884615 25.338971 73.923077 25.339010 73.961538 25.339047 74.000000 25.339080 74.038462 25.339110 74.076923 25.339137 74.115385 25.339160 74.153846 25.339181 74.192308 25.339198 74.230769 25.339213 74.269231 25.339224 74.307692 25.339232 74.346154 25.339237 74.384615 25.339240 74.423077 25.339239 74.461538 25.339235 74.500000 25.339229 74.538462 25.339219 74.576923 25.339207 74.615385 25.339192 74.653846 25.339174 74.692308 25.339154 74.730769 25.339131 74.769231 25.339104 74.807692 25.339076 74.846154 25.339044 74.884615 25.339010 74.923077 25.338974 74.961538 25.338934 75.000000 25.338893 75.038462 25.338848 75.076923 25.338801 75.115385 25.338752 75.153846 25.338700 75.192308 25.338646 75.230769 25.338589 75.269231 25.338530 75.307692 25.338469 75.346154 25.338405 75.384615 25.338339 75.423077 25.338271 75.461538 25.338201 75.500000 25.338128 75.538462 25.338053 75.576923 25.337976 75.615385 25.337896 75.653846 25.337815 75.692308 25.337732 75.730769 25.337646 75.769231 25.337558 75.807692 25.337469 75.846154 25.337377 75.884615 25.337284 75.923077 25.337188 75.961538 25.337091 76.000000 25.336991 76.038462 25.336890 76.076923 25.336787 76.115385 25.336682 76.153846 25.336575 76.192308 25.336467 76.230769 25.336357 76.269231 25.336245 76.307692 25.336131 76.346154 25.336016 76.384615 25.335899 76.423077 25.335781 76.461538 25.335661 76.500000 25.335539 76.538462 25.335416 76.576923 25.335292 76.615385 25.335165 76.653846 25.335038 76.692308 25.334909 76.730769 25.334779 76.769231 25.334647 76.807692 25.334514 76.846154 25.334379 76.884615 25.334244 76.923077 25.334107 76.961538 25.333968 77.000000 25.333829 77.038462 25.333688 77.076923 25.333546 77.115385 25.333403 77.153846 25.333259 77.192308 25.333114 77.230769 25.332968 77.269231 25.332821 77.307692 25.332672 77.346154 25.332523 77.384615 25.332373 77.423077 25.332221 77.461538 25.332069 77.500000 25.331916 77.538462 25.331763 77.576923 25.331608 77.615385 25.331452 77.653846 25.331296 77.692308 25.331139 77.730769 25.330981 77.769231 25.330823 77.807692 25.330664 77.846154 25.330504 77.884615 25.330343 77.923077 25.330182 77.961538 25.330021 78.000000 25.329859 78.038462 25.329696 78.076923 25.329533 78.115385 25.329369 78.153846 25.329205 78.192308 25.329040 78.230769 25.328876 78.269231 25.328710 78.307692 25.328545 78.346154 25.328379 78.384615 25.328212 78.423077 25.328046 78.461538 25.327879 78.500000 25.327712 78.538462 25.327545 78.576923 25.327378 78.615385 25.327210 78.653846 25.327043 78.692308 25.326875 78.730769 25.326707 78.769231 25.326539 78.807692 25.326372 78.846154 25.326204 78.884615 25.326036 78.923077 25.325869 78.961538 25.325701 79.000000 25.325534 79.038462 25.325366 79.076923 25.325199 79.115385 25.325032 79.153846 25.324866 79.192308 25.324699 79.230769 25.324533 79.269231 25.324367 79.307692 25.324202 79.346154 25.324037 79.384615 25.323872 79.423077 25.323707 79.461538 25.323543 79.500000 25.323380 79.538462 25.323217 79.576923 25.323054 79.615385 25.322892 79.653846 25.322731 79.692308 25.322570 79.730769 25.322410 79.769231 25.322250 79.807692 25.322091 79.846154 25.321933 79.884615 25.321775 79.923077 25.321618 79.961538 25.321462 80.000000 25.321307 80.038462 25.321153 80.076923 25.320999 80.115385 25.320846 80.153846 25.320695 80.192308 25.320544 80.230769 25.320394 80.269231 25.320245 80.307692 25.320097 80.346154 25.319949 80.384615 25.319803 80.423077 25.319658 80.461538 25.319514 80.500000 25.319371 80.538462 25.319228 80.576923 25.319087 80.615385 25.318947 80.653846 25.318807 80.692308 25.318669 80.730769 25.318531 80.769231 25.318395 80.807692 25.318259 80.846154 25.318125 80.884615 25.317992 80.923077 25.317859 80.961538 25.317728 81.000000 25.317597 81.038462 25.317468 81.076923 25.317339 81.115385 25.317212 81.153846 25.317086 81.192308 25.316960 81.230769 25.316836 81.269231 25.316713 81.307692 25.316590 81.346154 25.316469 81.384615 25.316349 81.423077 25.316230 81.461538 25.316112 81.500000 25.315995 81.538462 25.315879 81.576923 25.315764 81.615385 25.315650 81.653846 25.315537 81.692308 25.315425 81.730769 25.315315 81.769231 25.315205 81.807692 25.315096 81.846154 25.314989 81.884615 25.314882 81.923077 25.314777 81.961538 25.314673 82.000000 25.314570 82.038462 25.314468 82.076923 25.314367 82.115385 25.314267 82.153846 25.314168 82.192308 25.314070 82.230769 25.313974 82.269231 25.313878 82.307692 25.313784 82.346154 25.313691 82.384615 25.313599 82.423077 25.313508 82.461538 25.313418 82.500000 25.313329 82.538462 25.313241 82.576923 25.313155 82.615385 25.313070 82.653846 25.312985 82.692308 25.312902 82.730769 25.312820 82.769231 25.312740 82.807692 25.312660 82.846154 25.312582 82.884615 25.312504 82.923077 25.312428 82.961538 25.312353 83.000000 25.312280 83.038462 25.312207 83.076923 25.312135 83.115385 25.312065 83.153846 25.311996 83.192308 25.311928 83.230769 25.311862 83.269231 25.311796 83.307692 25.311732 83.346154 25.311669 83.384615 25.311607 83.423077 25.311546 83.461538 25.311486 83.500000 25.311428 83.538462 25.311371 83.576923 25.311315 83.615385 25.311260 83.653846 25.311207 83.692308 25.311155 83.730769 25.311104 83.769231 25.311054 83.807692 25.311005 83.846154 25.310958 83.884615 25.310912 83.923077 25.310867 83.961538 25.310824 84.000000 25.310781 84.038462 25.310740 84.076923 25.310700 84.115385 25.310662 84.153846 25.310625 84.192308 25.310589 84.230769 25.310554 84.269231 25.310520 84.307692 25.310488 84.346154 25.310457 84.384615 25.310427 84.423077 25.310399 84.461538 25.310372 84.500000 25.310346 84.538462 25.310322 84.576923 25.310299 84.615385 25.310277 84.653846 25.310256 84.692308 25.310237 84.730769 25.310219 84.769231 25.310202 84.807692 25.310187 84.846154 25.310173 84.884615 25.310160 84.923077 25.310148 84.961538 25.310138 85.000000 25.310130 85.038462 25.310122 85.076923 25.310116 85.115385 25.310111 85.153846 25.310108 85.192308 25.310106 85.230769 25.310105 85.269231 25.310106 85.307692 25.310108 85.346154 25.310111 85.384615 25.310116 85.423077 25.310122 85.461538 25.310129 85.500000 25.310138 85.538462 25.310148 85.576923 25.310160 85.615385 25.310173 85.653846 25.310187 85.692308 25.310203 85.730769 25.310220 85.769231 25.310239 85.807692 25.310259 85.846154 25.310280 85.884615 25.310302 85.923077 25.310327 85.961538 25.310352 86.000000 25.310379 86.038462 25.310407 86.076923 25.310437 86.115385 25.310468 86.153846 25.310501 86.192308 25.310535 86.230769 25.310570 86.269231 25.310607 86.307692 25.310645 86.346154 25.310685 86.384615 25.310726 86.423077 25.310769 86.461538 25.310813 86.500000 25.310859 86.538462 25.310906 86.576923 25.310954 86.615385 25.311004 86.653846 25.311055 86.692308 25.311108 86.730769 25.311163 86.769231 25.311218 86.807692 25.311276 86.846154 25.311334 86.884615 25.311395 86.923077 25.311456 86.961538 25.311519 87.000000 25.311584 87.038462 25.311650 87.076923 25.311718 87.115385 25.311787 87.153846 25.311858 87.192308 25.311930 87.230769 25.312004 87.269231 25.312079 87.307692 25.312156 87.346154 25.312234 87.384615 25.312314 87.423077 25.312395 87.461538 25.312478 87.500000 25.312562 87.538462 25.312648 87.576923 25.312735 87.615385 25.312824 87.653846 25.312915 87.692308 25.313007 87.730769 25.313101 87.769231 25.313196 87.807692 25.313292 87.846154 25.313391 87.884615 25.313491 87.923077 25.313592 87.961538 25.313695 88.000000 25.313799 88.038462 25.313906 88.076923 25.314013 88.115385 25.314123 88.153846 25.314233 88.192308 25.314346 88.230769 25.314460 88.269231 25.314576 88.307692 25.314693 88.346154 25.314812 88.384615 25.314932 88.423077 25.315054 88.461538 25.315178 88.500000 25.315303 88.538462 25.315430 88.576923 25.315558 88.615385 25.315689 88.653846 25.315820 88.692308 25.315954 88.730769 25.316089 88.769231 25.316225 88.807692 25.316364 88.846154 25.316503 88.884615 25.316645 88.923077 25.316788 88.961538 25.316933 89.000000 25.317080 89.038462 25.317228 89.076923 25.317378 89.115385 25.317529 89.153846 25.317682 89.192308 25.317837 89.230769 25.317994 89.269231 25.318152 89.307692 25.318312 89.346154 25.318473 89.384615 25.318636 89.423077 25.318801 89.461538 25.318968 89.500000 25.319136 89.538462 25.319306 89.576923 25.319478 89.615385 25.319651 89.653846 25.319826 89.692308 25.320003 89.730769 25.320181 89.769231 25.320362 89.807692 25.320544 89.846154 25.320727 89.884615 25.320913 89.923077 25.321100 89.961538 25.321288 90.000000 25.321478 90.038462 25.321670 90.076923 25.321863 90.115385 25.322058 90.153846 25.322254 90.192308 25.322451 90.230769 25.322650 90.269231 25.322850 90.307692 25.323051 90.346154 25.323254 90.384615 25.323458 90.423077 25.323663 90.461538 25.323869 90.500000 25.324076 90.538462 25.324284 90.576923 25.324493 90.615385 25.324703 90.653846 25.324914 90.692308 25.325126 90.730769 25.325338 90.769231 25.325552 90.807692 25.325766 90.846154 25.325981 90.884615 25.326197 90.923077 25.326413 90.961538 25.326630 91.000000 25.326848 91.038462 25.327066 91.076923 25.327284 91.115385 25.327503 91.153846 25.327723 91.192308 25.327943 91.230769 25.328163 91.269231 25.328383 91.307692 25.328604 91.346154 25.328825 91.384615 25.329046 91.423077 25.329267 91.461538 25.329489 91.500000 25.329710 91.538462 25.329932 91.576923 25.330154 91.615385 25.330375 91.653846 25.330597 91.692308 25.330818 91.730769 25.331039 91.769231 25.331260 91.807692 25.331481 91.846154 25.331701 91.884615 25.331922 91.923077 25.332141 91.961538 25.332361 92.000000 25.332580 92.038462 25.332799 92.076923 25.333017 92.115385 25.333234 92.153846 25.333451 92.192308 25.333668 92.230769 25.333883 92.269231 25.334098 92.307692 25.334313 92.346154 25.334526 92.384615 25.334739 92.423077 25.334951 92.461538 25.335162 92.500000 25.335372 92.538462 25.335582 92.576923 25.335790 92.615385 25.335997 92.653846 25.336203 92.692308 25.336408 92.730769 25.336612 92.769231 25.336815 92.807692 25.337016 92.846154 25.337216 92.884615 25.337415 92.923077 25.337613 92.961538 25.337809 93.000000 25.338004 93.038462 25.338197 93.076923 25.338389 93.115385 25.338579 93.153846 25.338768 93.192308 25.338955 93.230769 25.339141 93.269231 25.339324 93.307692 25.339507 93.346154 25.339687 93.384615 25.339865 93.423077 25.340042 93.461538 25.340217 93.500000 25.340390 93.538462 25.340561 93.576923 25.340730 93.615385 25.340897 93.653846 25.341062 93.692308 25.341225 93.730769 25.341386 93.769231 25.341544 93.807692 25.341700 93.846154 25.341854 93.884615 25.342006 93.923077 25.342156 93.961538 25.342303 94.000000 25.342447 94.038462 25.342590 94.076923 25.342729 94.115385 25.342867 94.153846 25.343001 94.192308 25.343133 94.230769 25.343263 94.269231 25.343390 94.307692 25.343514 94.346154 25.343635 94.384615 25.343754 94.423077 25.343869 94.461538 25.343982 94.500000 25.344092 94.538462 25.344199 94.576923 25.344303 94.615385 25.344404 94.653846 25.344502 94.692308 25.344597 94.730769 25.344689 94.769231 25.344777 94.807692 25.344863 94.846154 25.344945 94.884615 25.345023 94.923077 25.345099 94.961538 25.345171 95.000000 25.345240 95.038462 25.345305 95.076923 25.345367 95.115385 25.345425 95.153846 25.345480 95.192308 25.345531 95.230769 25.345579 95.269231 25.345623 95.307692 25.345663 95.346154 25.345699 95.384615 25.345732 95.423077 25.345761 95.461538 25.345786 95.500000 25.345807 95.538462 25.345824 95.576923 25.345837 95.615385 25.345846 95.653846 25.345852 95.692308 25.345853 95.730769 25.345850 95.769231 25.345842 95.807692 25.345831 95.846154 25.345815 95.884615 25.345795 95.923077 25.345771 95.961538 25.345742 96.000000 25.345709 96.038462 25.345672 96.076923 25.345630 96.115385 25.345584 96.153846 25.345533 96.192308 25.345477 96.230769 25.345417 96.269231 25.345352 96.307692 25.345283 96.346154 25.345208 96.384615 25.345129 96.423077 25.345046 96.461538 25.344957 96.500000 25.344863 96.538462 25.344765 96.576923 25.344661 96.615385 25.344553 96.653846 25.344439 96.692308 25.344321 96.730769 25.344197 96.769231 25.344068 96.807692 25.343934 96.846154 25.343795 96.884615 25.343650 96.923077 25.343500 96.961538 25.343345 97.000000 25.343185 97.038462 25.343019 97.076923 25.342847 97.115385 25.342670 97.153846 25.342488 97.192308 25.342300 97.230769 25.342106 97.269231 25.341907 97.307692 25.341701 97.346154 25.341491 97.384615 25.341274 97.423077 25.341052 97.461538 25.340824 97.500000 25.340590 97.538462 25.340350 97.576923 25.340104 97.615385 25.339852 97.653846 25.339594 97.692308 25.339330 97.730769 25.339060 97.769231 25.338783 97.807692 25.338501 97.846154 25.338212 97.884615 25.337917 97.923077 25.337616 97.961538 25.337308 98.000000 25.336994 98.038462 25.336674 98.076923 25.336347 98.115385 25.336014 98.153846 25.335674 98.192308 25.335327 98.230769 25.334974 98.269231 25.334614 98.307692 25.334248 98.346154 25.333875 98.384615 25.333495 98.423077 25.333108 98.461538 25.332715 98.500000 25.332314 98.538462 25.331907 98.576923 25.331493 98.615385 25.331072 98.653846 25.330643 98.692308 25.330208 98.730769 25.329766 98.769231 25.329316 98.807692 25.328859 98.846154 25.328395 98.884615 25.327924 98.923077 25.327446 98.961538 25.326960 99.000000 25.326467 99.038462 25.325966 99.076923 25.325458 99.115385 25.324942 99.153846 25.324419 99.192308 25.323889 99.230769 25.323350 99.269231 25.322804 99.307692 25.322251 99.346154 25.321690 99.384615 25.321120 99.423077 25.320544 99.461538 25.319959 99.500000 25.319367 99.538462 25.318767 99.576923 25.318160 99.615385 25.317545 99.653846 25.316924 99.692308 25.316295 99.730769 25.315660 99.769231 25.315018 99.807692 25.314370 99.846154 25.313715 99.884615 25.313054 99.923077 25.312387 99.961538 25.311715 100.000000 25.311036 100.038462 25.310352 100.076923 25.309662 100.115385 25.308968 100.153846 25.308268 100.192308 25.307563 100.230769 25.306853 100.269231 25.306138 100.307692 25.305419 100.346154 25.304696 100.384615 25.303968 100.423077 25.303237 100.461538 25.302501 100.500000 25.301762 100.538462 25.301019 100.576923 25.300272 100.615385 25.299522 100.653846 25.298769 100.692308 25.298013 100.730769 25.297254 100.769231 25.296492 100.807692 25.295728 100.846154 25.294961 100.884615 25.294192 100.923077 25.293421 100.961538 25.292648 101.000000 25.291872 101.038462 25.291096 101.076923 25.290317 101.115385 25.289538 101.153846 25.288757 101.192308 25.287975 101.230769 25.287192 101.269231 25.286408 101.307692 25.285624 101.346154 25.284839 101.384615 25.284054 101.423077 25.283268 101.461538 25.282483 101.500000 25.281697 101.538462 25.280912 101.576923 25.280128 101.615385 25.279344 101.653846 25.278560 101.692308 25.277777 101.730769 25.276996 101.769231 25.276215 101.807692 25.275436 101.846154 25.274659 101.884615 25.273883 101.923077 25.273108 101.961538 25.272336 102.000000 25.271565 102.038462 25.270797 102.076923 25.270031 102.115385 25.269268 102.153846 25.268507 102.192308 25.267750 102.230769 25.266995 102.269231 25.266243 102.307692 25.265494 102.346154 25.264749 102.384615 25.264007 102.423077 25.263270 102.461538 25.262535 102.500000 25.261805 102.538462 25.261079 102.576923 25.260358 102.615385 25.259641 102.653846 25.258928 102.692308 25.258220 102.730769 25.257517 102.769231 25.256819 102.807692 25.256127 102.846154 25.255439 102.884615 25.254757 102.923077 25.254081 102.961538 25.253411 103.000000 25.252746 103.038462 25.252088 103.076923 25.251436 103.115385 25.250790 103.153846 25.250151 103.192308 25.249518 103.230769 25.248892 103.269231 25.248274 103.307692 25.247662 103.346154 25.247058 103.384615 25.246461 103.423077 25.245872 103.461538 25.245290 103.500000 25.244717 103.538462 25.244151 103.576923 25.243594 103.615385 25.243045 103.653846 25.242504 103.692308 25.241972 103.730769 25.241449 103.769231 25.240935 103.807692 25.240430 103.846154 25.239934 103.884615 25.239447 103.923077 25.238970 103.961538 25.238503 104.000000 25.238046 104.038462 25.237598 104.076923 25.237161 104.115385 25.236734 104.153846 25.236317 104.192308 25.235911 104.230769 25.235516 104.269231 25.235132 104.307692 25.234758 104.346154 25.234396 104.384615 25.234045 104.423077 25.233706 104.461538 25.233378 104.500000 25.233062 104.538462 25.232758 104.576923 25.232466 104.615385 25.232187 104.653846 25.231919 104.692308 25.231665 104.730769 25.231422 104.769231 25.231193 104.807692 25.230977 104.846154 25.230774 104.884615 25.230584 104.923077 25.230407 104.961538 25.230244 105.000000 25.230095 105.038462 25.229960 105.076923 25.229839 105.115385 25.229732 105.153846 25.229639 105.192308 25.229561 105.230769 25.229497 105.269231 25.229448 105.307692 25.229414 105.346154 25.229395 105.384615 25.229392 105.423077 25.229403 105.461538 25.229431 105.500000 25.229474 105.538462 25.229532 105.576923 25.229607 105.615385 25.229698 105.653846 25.229805 105.692308 25.229929 105.730769 25.230069 105.769231 25.230226 105.807692 25.230399 105.846154 25.230590 105.884615 25.230798 105.923077 25.231023 105.961538 25.231266 106.000000 25.231526 106.038462 25.231804 106.076923 25.232100 106.115385 25.232414 106.153846 25.232747 106.192308 25.233097 106.230769 25.233466 106.269231 25.233854 106.307692 25.234261 106.346154 25.234687 106.384615 25.235131 106.423077 25.235595 106.461538 25.236079 106.500000 25.236582 106.538462 25.237105 106.576923 25.237647 106.615385 25.238210 106.653846 25.238793 106.692308 25.239396 106.730769 25.240019 106.769231 25.240663 106.807692 25.241328 106.846154 25.242014 106.884615 25.242721 106.923077 25.243449 106.961538 25.244199 107.000000 25.244970 107.038462 25.245762 107.076923 25.246577 107.115385 25.247413 107.153846 25.248272 107.192308 25.249152 107.230769 25.250056 107.269231 25.250981 107.307692 25.251930 107.346154 25.252901 107.384615 25.253896 107.423077 25.254913 107.461538 25.255954 107.500000 25.257018 107.538462 25.258106 107.576923 25.259218 107.615385 25.260353 107.653846 25.261513 107.692308 25.262697 107.730769 25.263905 107.769231 25.265137 107.807692 25.266395 107.846154 25.267677 107.884615 25.268984 107.923077 25.270316 107.961538 25.271674 108.000000 25.273056 108.038462 25.274465 108.076923 25.275899 108.115385 25.277359 108.153846 25.278845 108.192308 25.280357 108.230769 25.281896 108.269231 25.283460 108.307692 25.285052 108.346154 25.286670 108.384615 25.288315 108.423077 25.289987 108.461538 25.291687 108.500000 25.293414 108.538462 25.295168 108.576923 25.296950 108.615385 25.298759 108.653846 25.300597 108.692308 25.302463 108.730769 25.304357 108.769231 25.306279 108.807692 25.308230 108.846154 25.310210 108.884615 25.312218 108.923077 25.314256 108.961538 25.316322 109.000000 25.318418 109.038462 25.320544 109.076923 25.322699 109.115385 25.324882 109.153846 25.327095 109.192308 25.329335 109.230769 25.331603 109.269231 25.333897 109.307692 25.336218 109.346154 25.338564 109.384615 25.340936 109.423077 25.343332 109.461538 25.345751 109.500000 25.348195 109.538462 25.350661 109.576923 25.353150 109.615385 25.355660 109.653846 25.358192 109.692308 25.360744 109.730769 25.363316 109.769231 25.365908 109.807692 25.368518 109.846154 25.371147 109.884615 25.373794 109.923077 25.376458 109.961538 25.379139 110.000000 25.381836 110.038462 25.384549 110.076923 25.387276 110.115385 25.390018 110.153846 25.392774 110.192308 25.395544 110.230769 25.398326 110.269231 25.401120 110.307692 25.403926 110.346154 25.406743 110.384615 25.409571 110.423077 25.412408 110.461538 25.415255 110.500000 25.418111 110.538462 25.420975 110.576923 25.423847 110.615385 25.426726 110.653846 25.429611 110.692308 25.432503 110.730769 25.435400 110.769231 25.438302 110.807692 25.441209 110.846154 25.444119 110.884615 25.447033 110.923077 25.449949 110.961538 25.452867 111.000000 25.455787 111.038462 25.458708 111.076923 25.461629 111.115385 25.464551 111.153846 25.467471 111.192308 25.470390 111.230769 25.473308 111.269231 25.476223 111.307692 25.479135 111.346154 25.482044 111.384615 25.484949 111.423077 25.487849 111.461538 25.490744 111.500000 25.493633 111.538462 25.496516 111.576923 25.499392 111.615385 25.502261 111.653846 25.505122 111.692308 25.507974 111.730769 25.510817 111.769231 25.513650 111.807692 25.516474 111.846154 25.519286 111.884615 25.522087 111.923077 25.524877 111.961538 25.527654 112.000000 25.530417 112.038462 25.533168 112.076923 25.535904 112.115385 25.538625 112.153846 25.541331 112.192308 25.544022 112.230769 25.546696 112.269231 25.549353 112.307692 25.551992 112.346154 25.554614 112.384615 25.557217 112.423077 25.559801 112.461538 25.562365 112.500000 25.564908 112.538462 25.567431 112.576923 25.569933 112.615385 25.572412 112.653846 25.574869 112.692308 25.577303 112.730769 25.579713 112.769231 25.582099 112.807692 25.584460 112.846154 25.586796 112.884615 25.589105 112.923077 25.591389 112.961538 25.593645 113.000000 25.595874 113.038462 25.598075 113.076923 25.600247 113.115385 25.602389 113.153846 25.604502 113.192308 25.606585 113.230769 25.608636 113.269231 25.610656 113.307692 25.612644 113.346154 25.614599 113.384615 25.616521 113.423077 25.618410 113.461538 25.620264 113.500000 25.622083 113.538462 25.623867 113.576923 25.625614 113.615385 25.627326 113.653846 25.629000 113.692308 25.630636 113.730769 25.632234 113.769231 25.633794 113.807692 25.635314 113.846154 25.636794 113.884615 25.638233 113.923077 25.639632 113.961538 25.640989 114.000000 25.642304 114.038462 25.643576 114.076923 25.644804 114.115385 25.645989 114.153846 25.647130 114.192308 25.648225 114.230769 25.649275 114.269231 25.650279 114.307692 25.651237 114.346154 25.652147 114.384615 25.653009 114.423077 25.653823 114.461538 25.654588 114.500000 25.655304 114.538462 25.655970 114.576923 25.656585 114.615385 25.657149 114.653846 25.657661 114.692308 25.658121 114.730769 25.658528 114.769231 25.658882 114.807692 25.659182 114.846154 25.659427 114.884615 25.659618 114.923077 25.659752 114.961538 25.659831 115.000000 25.659853 115.038462 25.659817 115.076923 25.659724 115.115385 25.659572 115.153846 25.659361 115.192308 25.659091 115.230769 25.658761 115.269231 25.658370 115.307692 25.657917 115.346154 25.657403 115.384615 25.656827 115.423077 25.656188 115.461538 25.655485 115.500000 25.654718 115.538462 25.653887 115.576923 25.652990 115.615385 25.652028 115.653846 25.650999 115.692308 25.649904 115.730769 25.648741 115.769231 25.647511 115.807692 25.646211 115.846154 25.644843 115.884615 25.643405 115.923077 25.641897 115.961538 25.640318 116.000000 25.638668 116.038462 25.636946 116.076923 25.635152 116.115385 25.633284 116.153846 25.631343 116.192308 25.629328 116.230769 25.627238 116.269231 25.625073 116.307692 25.622832 116.346154 25.620515 116.384615 25.618121 116.423077 25.615649 116.461538 25.613100 116.500000 25.610472 116.538462 25.607764 116.576923 25.604977 116.615385 25.602110 116.653846 25.599161 116.692308 25.596132 116.730769 25.593020 116.769231 25.589826 116.807692 25.586549 116.846154 25.583188 116.884615 25.579743 116.923077 25.576213 116.961538 25.572598 117.000000 25.568897 117.038462 25.565109 117.076923 25.561235 117.115385 25.557272 117.153846 25.553222 117.192308 25.549083 117.230769 25.544855 117.269231 25.540537 117.307692 25.536129 117.346154 25.531629 117.384615 25.527039 117.423077 25.522356 117.461538 25.517580 117.500000 25.512712 117.538462 25.507749 117.576923 25.502692 117.615385 25.497541 117.653846 25.492294 117.692308 25.486951 117.730769 25.481512 117.769231 25.475975 117.807692 25.470341 117.846154 25.464608 117.884615 25.458777 117.923077 25.452846 117.961538 25.446816 118.000000 25.440685 118.038462 25.434453 118.076923 25.428119 118.115385 25.421683 118.153846 25.415145 118.192308 25.408503 118.230769 25.401758 118.269231 25.394908 118.307692 25.387953 118.346154 25.380893 118.384615 25.373726 118.423077 25.366453 118.461538 25.359073 118.500000 25.351585 118.538462 25.343988 118.576923 25.336283 118.615385 25.328468 118.653846 25.320544 118.692308 25.312509 118.730769 25.304364 118.769231 25.296112 118.807692 25.287752 118.846154 25.279286 118.884615 25.270716 118.923077 25.262041 118.961538 25.253265 119.000000 25.244386 119.038462 25.235408 119.076923 25.226330 119.115385 25.217154 119.153846 25.207882 119.192308 25.198514 119.230769 25.189051 119.269231 25.179495 119.307692 25.169846 119.346154 25.160107 119.384615 25.150277 119.423077 25.140359 119.461538 25.130353 119.500000 25.120260 119.538462 25.110082 119.576923 25.099820 119.615385 25.089474 119.653846 25.079046 119.692308 25.068538 119.730769 25.057950 119.769231 25.047283 119.807692 25.036539 119.846154 25.025719 119.884615 25.014824 119.923077 25.003854 119.961538 24.992812 120.000000 24.981698 120.038462 24.970513 120.076923 24.959259 120.115385 24.947937 120.153846 24.936548 120.192308 24.925092 120.230769 24.913572 120.269231 24.901988 120.307692 24.890342 120.346154 24.878634 120.384615 24.866865 120.423077 24.855038 120.461538 24.843153 120.500000 24.831210 120.538462 24.819212 120.576923 24.807160 120.615385 24.795054 120.653846 24.782896 120.692308 24.770686 120.730769 24.758427 120.769231 24.746119 120.807692 24.733763 120.846154 24.721360 120.884615 24.708913 120.923077 24.696420 120.961538 24.683885 121.000000 24.671308 121.038462 24.658689 121.076923 24.646031 121.115385 24.633335 121.153846 24.620601 121.192308 24.607831 121.230769 24.595026 121.269231 24.582186 121.307692 24.569314 121.346154 24.556410 121.384615 24.543476 121.423077 24.530512 121.461538 24.517519 121.500000 24.504500 121.538462 24.491455 121.576923 24.478384 121.615385 24.465291 121.653846 24.452174 121.692308 24.439036 121.730769 24.425878 121.769231 24.412700 121.807692 24.399505 121.846154 24.386293 121.884615 24.373065 121.923077 24.359822 121.961538 24.346566 122.000000 24.333298 122.038462 24.320019 122.076923 24.306729 122.115385 24.293431 122.153846 24.280125 122.192308 24.266812 122.230769 24.253494 122.269231 24.240172 122.307692 24.226846 122.346154 24.213519 122.384615 24.200191 122.423077 24.186862 122.461538 24.173536 122.500000 24.160212 122.538462 24.146891 122.576923 24.133576 122.615385 24.120266 122.653846 24.106964 122.692308 24.093670 122.730769 24.080385 122.769231 24.067111 122.807692 24.053848 122.846154 24.040599 122.884615 24.027363 122.923077 24.014143 122.961538 24.000938 123.000000 23.987752 123.038462 23.974583 123.076923 23.961435 123.115385 23.948307 123.153846 23.935201 123.192308 23.922119 123.230769 23.909061 123.269231 23.896028 123.307692 23.883021 123.346154 23.870043 123.384615 23.857093 123.423077 23.844173 123.461538 23.831284 123.500000 23.818428 123.538462 23.805605 123.576923 23.792817 123.615385 23.780064 123.653846 23.767348 123.692308 23.754670 123.730769 23.742031 123.769231 23.729433 123.807692 23.716876 123.846154 23.704361 123.884615 23.691890 123.923077 23.679464 123.961538 23.667084 124.000000 23.654751 124.038462 23.642466 124.076923 23.630231 124.115385 23.618047 124.153846 23.605914 124.192308 23.593833 124.230769 23.581807 124.269231 23.569836 124.307692 23.557921 124.346154 23.546064 124.384615 23.534265 124.423077 23.522526 124.461538 23.510848 124.500000 23.499231 124.538462 23.487678 124.576923 23.476189 124.615385 23.464766 124.653846 23.453409 124.692308 23.442119 124.730769 23.430899 124.769231 23.419748 124.807692 23.408669 124.846154 23.397662 124.884615 23.386728 124.923077 23.375869 124.961538 23.365086 125.000000 23.354379 125.038462 23.343750 125.076923 23.333201 125.115385 23.322732 125.153846 23.312344 125.192308 23.302038 125.230769 23.291817 125.269231 23.281680 125.307692 23.271629 125.346154 23.261665 125.384615 23.251790 125.423077 23.242004 125.461538 23.232308 125.500000 23.222705 125.538462 23.213194 125.576923 23.203776 125.615385 23.194455 125.653846 23.185229 125.692308 23.176101 125.730769 23.167071 125.769231 23.158141 125.807692 23.149312 125.846154 23.140584 125.884615 23.131960 125.923077 23.123440 125.961538 23.115026 126.000000 23.106718 126.038462 23.098518 126.076923 23.090426 126.115385 23.082445 126.153846 23.074575 126.192308 23.066816 126.230769 23.059172 126.269231 23.051642 126.307692 23.044227 126.346154 23.036929 126.384615 23.029750 126.423077 23.022689 126.461538 23.015749 126.500000 23.008930 126.538462 23.002234 126.576923 22.995661 126.615385 22.989213 126.653846 22.982891 126.692308 22.976696 126.730769 22.970630 126.769231 22.964692 126.807692 22.958886 126.846154 22.953211 126.884615 22.947669 126.923077 22.942261 126.961538 22.936987 127.000000 22.931851 127.038462 22.926851 127.076923 22.921990 127.115385 22.917269 127.153846 22.912689 127.192308 22.908250 127.230769 22.903955 127.269231 22.899804 127.307692 22.895798 127.346154 22.891939 127.384615 22.888227 127.423077 22.884665 127.461538 22.881252 127.500000 22.877990 127.538462 22.874881 127.576923 22.871925 127.615385 22.869124 127.653846 22.866478 127.692308 22.863989 127.730769 22.861658 127.769231 22.859486 127.807692 22.857474 127.846154 22.855624 127.884615 22.853936 127.923077 22.852412 127.961538 22.851053 128.000000 22.849859 128.038462 22.848833 128.076923 22.847975 128.115385 22.847287 128.153846 22.846769 128.192308 22.846422 128.230769 22.846249 128.269231 22.846249 128.307692 22.846424 128.346154 22.846773 128.384615 22.847295 128.423077 22.847988 128.461538 22.848852 128.500000 22.849885 128.538462 22.851087 128.576923 22.852455 128.615385 22.853989 128.653846 22.855688 128.692308 22.857550 128.730769 22.859575 128.769231 22.861761 128.807692 22.864106 128.846154 22.866611 128.884615 22.869273 128.923077 22.872092 128.961538 22.875067 129.000000 22.878195 129.038462 22.881477 129.076923 22.884911 129.115385 22.888495 129.153846 22.892229 129.192308 22.896111 129.230769 22.900141 129.269231 22.904316 129.307692 22.908637 129.346154 22.913101 129.384615 22.917708 129.423077 22.922457 129.461538 22.927346 129.500000 22.932374 129.538462 22.937540 129.576923 22.942843 129.615385 22.948281 129.653846 22.953854 129.692308 22.959560 129.730769 22.965399 129.769231 22.971369 129.807692 22.977468 129.846154 22.983696 129.884615 22.990052 129.923077 22.996534 129.961538 23.003142 130.000000 23.009873 130.038462 23.016728 130.076923 23.023704 130.115385 23.030801 130.153846 23.038017 130.192308 23.045351 130.230769 23.052803 130.269231 23.060371 130.307692 23.068053 130.346154 23.075849 130.384615 23.083758 130.423077 23.091777 130.461538 23.099907 130.500000 23.108146 130.538462 23.116493 130.576923 23.124947 130.615385 23.133506 130.653846 23.142169 130.692308 23.150936 130.730769 23.159805 130.769231 23.168775 130.807692 23.177844 130.846154 23.187012 130.884615 23.196277 130.923077 23.205639 130.961538 23.215095 131.000000 23.224646 131.038462 23.234289 131.076923 23.244024 131.115385 23.253850 131.153846 23.263765 131.192308 23.273768 131.230769 23.283858 131.269231 23.294033 131.307692 23.304294 131.346154 23.314637 131.384615 23.325064 131.423077 23.335571 131.461538 23.346158 131.500000 23.356825 131.538462 23.367569 131.576923 23.378389 131.615385 23.389285 131.653846 23.400255 131.692308 23.411298 131.730769 23.422414 131.769231 23.433599 131.807692 23.444855 131.846154 23.456179 131.884615 23.467570 131.923077 23.479027 131.961538 23.490549 132.000000 23.502135 132.038462 23.513784 132.076923 23.525494 132.115385 23.537264 132.153846 23.549094 132.192308 23.560981 132.230769 23.572926 132.269231 23.584926 132.307692 23.596980 132.346154 23.609088 132.384615 23.621248 132.423077 23.633459 132.461538 23.645720 132.500000 23.658030 132.538462 23.670387 132.576923 23.682791 132.615385 23.695240 132.653846 23.707733 132.692308 23.720269 132.730769 23.732846 132.769231 23.745465 132.807692 23.758122 132.846154 23.770818 132.884615 23.783552 132.923077 23.796321 132.961538 23.809124 133.000000 23.821962 133.038462 23.834832 133.076923 23.847733 133.115385 23.860665 133.153846 23.873625 133.192308 23.886614 133.230769 23.899629 133.269231 23.912669 133.307692 23.925734 133.346154 23.938822 133.384615 23.951932 133.423077 23.965064 133.461538 23.978214 133.500000 23.991384 133.538462 24.004570 133.576923 24.017773 133.615385 24.030992 133.653846 24.044224 133.692308 24.057468 133.730769 24.070725 133.769231 24.083992 133.807692 24.097268 133.846154 24.110552 133.884615 24.123844 133.923077 24.137141 133.961538 24.150443 134.000000 24.163748 134.038462 24.177055 134.076923 24.190364 134.115385 24.203673 134.153846 24.216981 134.192308 24.230286 134.230769 24.243588 134.269231 24.256885 134.307692 24.270177 134.346154 24.283461 134.384615 24.296738 134.423077 24.310005 134.461538 24.323262 134.500000 24.336507 134.538462 24.349740 134.576923 24.362958 134.615385 24.376162 134.653846 24.389349 134.692308 24.402519 134.730769 24.415670 134.769231 24.428802 134.807692 24.441913 134.846154 24.455002 134.884615 24.468068 134.923077 24.481109 134.961538 24.494125 135.000000 24.507114 135.038462 24.520075 135.076923 24.533008 135.115385 24.545910 135.153846 24.558781 135.192308 24.571620 135.230769 24.584425 135.269231 24.597195 135.307692 24.609929 135.346154 24.622627 135.384615 24.635286 135.423077 24.647905 135.461538 24.660484 135.500000 24.673021 135.538462 24.685516 135.576923 24.697966 135.615385 24.710371 135.653846 24.722730 135.692308 24.735042 135.730769 24.747304 135.769231 24.759517 135.807692 24.771679 135.846154 24.783788 135.884615 24.795845 135.923077 24.807846 135.961538 24.819793 136.000000 24.831682 136.038462 24.843513 136.076923 24.855286 136.115385 24.866998 136.153846 24.878648 136.192308 24.890237 136.230769 24.901761 136.269231 24.913220 136.307692 24.924613 136.346154 24.935940 136.384615 24.947197 136.423077 24.958385 136.461538 24.969503 136.500000 24.980548 136.538462 24.991521 136.576923 25.002419 136.615385 25.013242 136.653846 25.023989 136.692308 25.034658 136.730769 25.045248 136.769231 25.055758 136.807692 25.066186 136.846154 25.076533 136.884615 25.086796 136.923077 25.096975 136.961538 25.107067 137.000000 25.117073 137.038462 25.126991 137.076923 25.136819 137.115385 25.146557 137.153846 25.156204 137.192308 25.165757 137.230769 25.175217 137.269231 25.184582 137.307692 25.193850 137.346154 25.203021 137.384615 25.212094 137.423077 25.221067 137.461538 25.229939 137.500000 25.238709 137.538462 25.247376 137.576923 25.255938 137.615385 25.264396 137.653846 25.272746 137.692308 25.280988 137.730769 25.289122 137.769231 25.297146 137.807692 25.305058 137.846154 25.312858 137.884615 25.320544 137.923077 25.328115 137.961538 25.335573 138.000000 25.342917 138.038462 25.350148 138.076923 25.357267 138.115385 25.364275 138.153846 25.371171 138.192308 25.377958 138.230769 25.384634 138.269231 25.391202 138.307692 25.397662 138.346154 25.404013 138.384615 25.410258 138.423077 25.416397 138.461538 25.422429 138.500000 25.428357 138.538462 25.434180 138.576923 25.439899 138.615385 25.445515 138.653846 25.451029 138.692308 25.456441 138.730769 25.461751 138.769231 25.466961 138.807692 25.472071 138.846154 25.477082 138.884615 25.481994 138.923077 25.486808 138.961538 25.491524 139.000000 25.496144 139.038462 25.500668 139.076923 25.505097 139.115385 25.509431 139.153846 25.513670 139.192308 25.517816 139.230769 25.521869 139.269231 25.525831 139.307692 25.529700 139.346154 25.533479 139.384615 25.537167 139.423077 25.540766 139.461538 25.544275 139.500000 25.547697 139.538462 25.551031 139.576923 25.554277 139.615385 25.557437 139.653846 25.560512 139.692308 25.563501 139.730769 25.566406 139.769231 25.569228 139.807692 25.571966 139.846154 25.574621 139.884615 25.577195 139.923077 25.579687 139.961538 25.582099 140.000000 25.584430 140.038462 25.586683 140.076923 25.588857 140.115385 25.590953 140.153846 25.592971 140.192308 25.594913 140.230769 25.596779 140.269231 25.598569 140.307692 25.600284 140.346154 25.601925 140.384615 25.603493 140.423077 25.604988 140.461538 25.606411 140.500000 25.607762 140.538462 25.609042 140.576923 25.610252 140.615385 25.611393 140.653846 25.612464 140.692308 25.613467 140.730769 25.614402 140.769231 25.615271 140.807692 25.616073 140.846154 25.616809 140.884615 25.617480 140.923077 25.618086 140.961538 25.618629 141.000000 25.619109 141.038462 25.619526 141.076923 25.619881 141.115385 25.620174 141.153846 25.620408 141.192308 25.620581 141.230769 25.620695 141.269231 25.620750 141.307692 25.620748 141.346154 25.620688 141.384615 25.620571 141.423077 25.620398 141.461538 25.620169 141.500000 25.619886 141.538462 25.619549 141.576923 25.619158 141.615385 25.618714 141.653846 25.618219 141.692308 25.617671 141.730769 25.617073 141.769231 25.616424 141.807692 25.615726 141.846154 25.614978 141.884615 25.614183 141.923077 25.613339 141.961538 25.612449 142.000000 25.611512 142.038462 25.610530 142.076923 25.609502 142.115385 25.608430 142.153846 25.607313 142.192308 25.606154 142.230769 25.604952 142.269231 25.603709 142.307692 25.602424 142.346154 25.601098 142.384615 25.599733 142.423077 25.598328 142.461538 25.596884 142.500000 25.595403 142.538462 25.593884 142.576923 25.592328 142.615385 25.590736 142.653846 25.589109 142.692308 25.587447 142.730769 25.585751 142.769231 25.584021 142.807692 25.582258 142.846154 25.580464 142.884615 25.578637 142.923077 25.576780 142.961538 25.574892 143.000000 25.572975 143.038462 25.571029 143.076923 25.569054 143.115385 25.567051 143.153846 25.565022 143.192308 25.562966 143.230769 25.560884 143.269231 25.558778 143.307692 25.556646 143.346154 25.554491 143.384615 25.552313 143.423077 25.550112 143.461538 25.547889 143.500000 25.545645 143.538462 25.543380 143.576923 25.541096 143.615385 25.538792 143.653846 25.536469 143.692308 25.534128 143.730769 25.531770 143.769231 25.529395 143.807692 25.527004 143.846154 25.524598 143.884615 25.522176 143.923077 25.519741 143.961538 25.517292 144.000000 25.514830 144.038462 25.512356 144.076923 25.509870 144.115385 25.507374 144.153846 25.504867 144.192308 25.502350 144.230769 25.499824 144.269231 25.497290 144.307692 25.494749 144.346154 25.492200 144.384615 25.489645 144.423077 25.487084 144.461538 25.484517 144.500000 25.481947 144.538462 25.479372 144.576923 25.476795 144.615385 25.474214 144.653846 25.471632 144.692308 25.469048 144.730769 25.466464 144.769231 25.463880 144.807692 25.461297 144.846154 25.458714 144.884615 25.456134 144.923077 25.453557 144.961538 25.450982 145.000000 25.448412 145.038462 25.445846 145.076923 25.443285 145.115385 25.440730 145.153846 25.438181 145.192308 25.435640 145.230769 25.433106 145.269231 25.430581 145.307692 25.428065 145.346154 25.425558 145.384615 25.423062 145.423077 25.420576 145.461538 25.418103 145.500000 25.415641 145.538462 25.413193 145.576923 25.410758 145.615385 25.408337 145.653846 25.405931 145.692308 25.403541 145.730769 25.401167 145.769231 25.398809 145.807692 25.396469 145.846154 25.394147 145.884615 25.391844 145.923077 25.389560 145.961538 25.387296 146.000000 25.385053 146.038462 25.382831 146.076923 25.380631 146.115385 25.378453 146.153846 25.376299 146.192308 25.374169 146.230769 25.372063 146.269231 25.369982 146.307692 25.367927 146.346154 25.365899 146.384615 25.363898 146.423077 25.361924 146.461538 25.359979 146.500000 25.358063 146.538462 25.356176 146.576923 25.354320 146.615385 25.352495 146.653846 25.350701 146.692308 25.348940 146.730769 25.347211 146.769231 25.345516 146.807692 25.343856 146.846154 25.342230 146.884615 25.340639 146.923077 25.339085 146.961538 25.337567 147.000000 25.336087 147.038462 25.334645 147.076923 25.333242 147.115385 25.331878 147.153846 25.330554 147.192308 25.329270 147.230769 25.328028 147.269231 25.326828 147.307692 25.325671 147.346154 25.324556 147.384615 25.323486 147.423077 25.322460 147.461538 25.321479 147.500000 25.320544 147.538462 25.319655 147.576923 25.318812 147.615385 25.318015 147.653846 25.317262 147.692308 25.316555 147.730769 25.315891 147.769231 25.315271 147.807692 25.314694 147.846154 25.314160 147.884615 25.313668 147.923077 25.313217 147.961538 25.312808 148.000000 25.312440 148.038462 25.312112 148.076923 25.311824 148.115385 25.311576 148.153846 25.311366 148.192308 25.311195 148.230769 25.311062 148.269231 25.310966 148.307692 25.310907 148.346154 25.310885 148.384615 25.310899 148.423077 25.310949 148.461538 25.311034 148.500000 25.311153 148.538462 25.311307 148.576923 25.311495 148.615385 25.311715 148.653846 25.311969 148.692308 25.312255 148.730769 25.312573 148.769231 25.312922 148.807692 25.313302 148.846154 25.313713 148.884615 25.314153 148.923077 25.314624 148.961538 25.315123 149.000000 25.315651 149.038462 25.316207 149.076923 25.316790 149.115385 25.317401 149.153846 25.318039 149.192308 25.318702 149.230769 25.319392 149.269231 25.320107 149.307692 25.320846 149.346154 25.321610 149.384615 25.322398 149.423077 25.323209 149.461538 25.324044 149.500000 25.324901 149.538462 25.325779 149.576923 25.326680 149.615385 25.327601 149.653846 25.328543 149.692308 25.329505 149.730769 25.330487 149.769231 25.331488 149.807692 25.332508 149.846154 25.333546 149.884615 25.334601 149.923077 25.335674 149.961538 25.336764 150.000000 25.337871 150.038462 25.338993 150.076923 25.340131 150.115385 25.341283 150.153846 25.342450 150.192308 25.343631 150.230769 25.344826 150.269231 25.346034 150.307692 25.347254 150.346154 25.348487 150.384615 25.349731 150.423077 25.350987 150.461538 25.352253 150.500000 25.353529 150.538462 25.354815 150.576923 25.356111 150.615385 25.357415 150.653846 25.358728 150.692308 25.360049 150.730769 25.361377 150.769231 25.362713 150.807692 25.364054 150.846154 25.365402 150.884615 25.366755 150.923077 25.368114 150.961538 25.369477 151.000000 25.370844 151.038462 25.372215 151.076923 25.373589 151.115385 25.374966 151.153846 25.376345 151.192308 25.377726 151.230769 25.379109 151.269231 25.380492 151.307692 25.381875 151.346154 25.383259 151.384615 25.384642 151.423077 25.386024 151.461538 25.387405 151.500000 25.388783 151.538462 25.390159 151.576923 25.391533 151.615385 25.392903 151.653846 25.394269 151.692308 25.395631 151.730769 25.396988 151.769231 25.398340 151.807692 25.399686 151.846154 25.401026 151.884615 25.402359 151.923077 25.403686 151.961538 25.405004 152.000000 25.406315 152.038462 25.407617 152.076923 25.408910 152.115385 25.410194 152.153846 25.411467 152.192308 25.412731 152.230769 25.413983 152.269231 25.415224 152.307692 25.416454 152.346154 25.417671 152.384615 25.418875 152.423077 25.420066 152.461538 25.421244 152.500000 25.422407 152.538462 25.423555 152.576923 25.424689 152.615385 25.425807 152.653846 25.426909 152.692308 25.427994 152.730769 25.429063 152.769231 25.430114 152.807692 25.431147 152.846154 25.432161 152.884615 25.433157 152.923077 25.434134 152.961538 25.435091 153.000000 25.436027 153.038462 25.436943 153.076923 25.437837 153.115385 25.438710 153.153846 25.439561 153.192308 25.440389 153.230769 25.441194 153.269231 25.441976 153.307692 25.442733 153.346154 25.443466 153.384615 25.444174 153.423077 25.444857 153.461538 25.445513 153.500000 25.446144 153.538462 25.446747 153.576923 25.447323 153.615385 25.447872 153.653846 25.448392 153.692308 25.448883 153.730769 25.449346 153.769231 25.449778 153.807692 25.450181 153.846154 25.450553 153.884615 25.450893 153.923077 25.451203 153.961538 25.451480 154.000000 25.451725 154.038462 25.451937 154.076923 25.452115 154.115385 25.452260 154.153846 25.452370 154.192308 25.452445 154.230769 25.452485 154.269231 25.452489 154.307692 25.452458 154.346154 25.452389 154.384615 25.452283 154.423077 25.452140 154.461538 25.451958 154.500000 25.451738 154.538462 25.451479 154.576923 25.451180 154.615385 25.450841 154.653846 25.450462 154.692308 25.450042 154.730769 25.449581 154.769231 25.449077 154.807692 25.448532 154.846154 25.447943 154.884615 25.447311 154.923077 25.446636 154.961538 25.445916 155.000000 25.445152 155.038462 25.444342 155.076923 25.443487 155.115385 25.442586 155.153846 25.441638 155.192308 25.440643 155.230769 25.439600 155.269231 25.438510 155.307692 25.437371 155.346154 25.436183 155.384615 25.434946 155.423077 25.433659 155.461538 25.432322 155.500000 25.430934 155.538462 25.429494 155.576923 25.428003 155.615385 25.426460 155.653846 25.424864 155.692308 25.423215 155.730769 25.421512 155.769231 25.419755 155.807692 25.417944 155.846154 25.416077 155.884615 25.414155 155.923077 25.412177 155.961538 25.410143 156.000000 25.408052 156.038462 25.405903 156.076923 25.403697 156.115385 25.401432 156.153846 25.399109 156.192308 25.396726 156.230769 25.394284 156.269231 25.391781 156.307692 25.389218 156.346154 25.386593 156.384615 25.383907 156.423077 25.381159 156.461538 25.378348 156.500000 25.375475 156.538462 25.372537 156.576923 25.369536 156.615385 25.366471 156.653846 25.363340 156.692308 25.360145 156.730769 25.356883 156.769231 25.353555 156.807692 25.350161 156.846154 25.346699 156.884615 25.343169 156.923077 25.339571 156.961538 25.335905 157.000000 25.332170 157.038462 25.328364 157.076923 25.324489 157.115385 25.320544 157.153846 25.316527 157.192308 25.312440 157.230769 25.308282 157.269231 25.304054 157.307692 25.299757 157.346154 25.295389 157.384615 25.290953 157.423077 25.286447 157.461538 25.281873 157.500000 25.277230 157.538462 25.272520 157.576923 25.267741 157.615385 25.262895 157.653846 25.257981 157.692308 25.253000 157.730769 25.247953 157.769231 25.242839 157.807692 25.237659 157.846154 25.232413 157.884615 25.227102 157.923077 25.221725 157.961538 25.216283 158.000000 25.210777 158.038462 25.205206 158.076923 25.199571 158.115385 25.193872 158.153846 25.188109 158.192308 25.182283 158.230769 25.176394 158.269231 25.170442 158.307692 25.164428 158.346154 25.158351 158.384615 25.152213 158.423077 25.146013 158.461538 25.139752 158.500000 25.133429 158.538462 25.127046 158.576923 25.120602 158.615385 25.114098 158.653846 25.107535 158.692308 25.100911 158.730769 25.094229 158.769231 25.087487 158.807692 25.080686 158.846154 25.073827 158.884615 25.066910 158.923077 25.059934 158.961538 25.052902 159.000000 25.045811 159.038462 25.038664 159.076923 25.031460 159.115385 25.024199 159.153846 25.016882 159.192308 25.009510 159.230769 25.002081 159.269231 24.994597 159.307692 24.987058 159.346154 24.979465 159.384615 24.971816 159.423077 24.964114 159.461538 24.956357 159.500000 24.948547 159.538462 24.940684 159.576923 24.932767 159.615385 24.924798 159.653846 24.916776 159.692308 24.908702 159.730769 24.900575 159.769231 24.892397 159.807692 24.884168 159.846154 24.875888 159.884615 24.867557 159.923077 24.859175 159.961538 24.850743 160.000000 24.842261 160.038462 24.833729 160.076923 24.825148 160.115385 24.816518 160.153846 24.807839 160.192308 24.799111 160.230769 24.790335 160.269231 24.781511 160.307692 24.772640 160.346154 24.763721 160.384615 24.754754 160.423077 24.745741 160.461538 24.736682 160.500000 24.727576 160.538462 24.718424 160.576923 24.709226 160.615385 24.699983 160.653846 24.690695 160.692308 24.681362 160.730769 24.671984 160.769231 24.662562 160.807692 24.653097 160.846154 24.643587 160.884615 24.634034 160.923077 24.624437 160.961538 24.614798 161.000000 24.605116 161.038462 24.595392 161.076923 24.585626 161.115385 24.575818 161.153846 24.565969 161.192308 24.556078 161.230769 24.546147 161.269231 24.536175 161.307692 24.526163 161.346154 24.516110 161.384615 24.506018 161.423077 24.495887 161.461538 24.485716 161.500000 24.475506 161.538462 24.465258 161.576923 24.454971 161.615385 24.444647 161.653846 24.434284 161.692308 24.423884 161.730769 24.413447 161.769231 24.402973 161.807692 24.392462 161.846154 24.381915 161.884615 24.371332 161.923077 24.360713 161.961538 24.350059 162.000000 24.339369 162.038462 24.328645 162.076923 24.317885 162.115385 24.307092 162.153846 24.296264 162.192308 24.285403 162.230769 24.274508 162.269231 24.263580 162.307692 24.252619 162.346154 24.241625 162.384615 24.230599 162.423077 24.219541 162.461538 24.208451 162.500000 24.197329 162.538462 24.186176 162.576923 24.174993 162.615385 24.163778 162.653846 24.152533 162.692308 24.141259 162.730769 24.129954 162.769231 24.118620 162.807692 24.107256 162.846154 24.095864 162.884615 24.084443 162.923077 24.072993 162.961538 24.061516 163.000000 24.050010 163.038462 24.038477 163.076923 24.026917 163.115385 24.015330 163.153846 24.003716 163.192308 23.992075 163.230769 23.980409 163.269231 23.968717 163.307692 23.956999 163.346154 23.945256 163.384615 23.933487 163.423077 23.921695 163.461538 23.909877 163.500000 23.898036 163.538462 23.886171 163.576923 23.874282 163.615385 23.862370 163.653846 23.850435 163.692308 23.838477 163.730769 23.826497 163.769231 23.814494 163.807692 23.802470 163.846154 23.790424 163.884615 23.778357 163.923077 23.766269 163.961538 23.754160 164.000000 23.742030 164.038462 23.729881 164.076923 23.717712 164.115385 23.705523 164.153846 23.693314 164.192308 23.681087 164.230769 23.668841 164.269231 23.656576 164.307692 23.644294 164.346154 23.631993 164.384615 23.619675 164.423077 23.607339 164.461538 23.594987 164.500000 23.582618 164.538462 23.570232 164.576923 23.557830 164.615385 23.545412 164.653846 23.532979 164.692308 23.520530 164.730769 23.508066 164.769231 23.495587 164.807692 23.483094 164.846154 23.470587 164.884615 23.458066 164.923077 23.445531 164.961538 23.432982 165.000000 23.420421 165.038462 23.407847 165.076923 23.395261 165.115385 23.382662 165.153846 23.370051 165.192308 23.357429 165.230769 23.344795 165.269231 23.332150 165.307692 23.319495 165.346154 23.306829 165.384615 23.294153 165.423077 23.281466 165.461538 23.268771 165.500000 23.256065 165.538462 23.243351 165.576923 23.230628 165.615385 23.217896 165.653846 23.205156 165.692308 23.192408 165.730769 23.179653 165.769231 23.166890 165.807692 23.154120 165.846154 23.141343 165.884615 23.128560 165.923077 23.115770 165.961538 23.102975 166.000000 23.090174 166.038462 23.077367 166.076923 23.064555 166.115385 23.051739 166.153846 23.038918 166.192308 23.026092 166.230769 23.013263 166.269231 23.000430 166.307692 22.987593 166.346154 22.974754 166.384615 22.961911 166.423077 22.949067 166.461538 22.936219 166.500000 22.923370 166.538462 22.910519 166.576923 22.897667 166.615385 22.884813 166.653846 22.871959 166.692308 22.859104 166.730769 22.846249" class="line reactive nofill" /></g></g><g class="titles" /><g transform="translate(20, 10)" class="plot overlay"><g class="series serie-0 color-0" /></g><g transform="translate(20, 10)" class="plot text-overlay"><g class="series serie-0 color-0" /></g><g transform="translate(20, 10)" class="plot tooltip-overlay"><g transform="translate(0 0)" style="opacity: 0" class="tooltip"><rect rx="0" ry="0" width="0" height="0" class="tooltip-box" /><g class="text" /></g></g></g></svg>