<?xml version='1.0' encoding='utf-8'?>
<svg xmlns="http://www.w3.org/2000/svg" id="chart-03c4b7e5-794b-4815-ba87-416de05a3f7b" class="pygal-chart pygal-sparkline" viewBox="0 0 200 50" width="200" height="50"><!--Generated with pygal 3.0.5 (etree) ©Kozea 2012-2016 on 2025-02-16--><!--http://pygal.org--><!--http://github.com/Kozea/pygal--><defs><style type="text/css">#chart-03c4b7e5-794b-4815-ba87-416de05a3f7b{-webkit-user-select:none;-webkit-font-smoothing:antialiased;font-family:Consolas,"Liberation Mono",Menlo,Courier,monospace}#chart-03c4b7e5-794b-4815-ba87-416de05a3f7b .title{font-family:Consolas,"Liberation Mono",Menlo,Courier,monospace;font-size:16px}#chart-03c4b7e5-794b-4815-ba87-416de05a3f7b .legends .legend text{font-family:Consolas,"Liberation Mono",Menlo,Courier,monospace;font-size:14px}#chart-03c4b7e5-794b-4815-ba87-416de05a3f7b .axis text{font-family:Consolas,"Liberation Mono",Menlo,Courier,monospace;font-size:10px}#chart-03c4b7e5-794b-4815-ba87-416de05a3f7b .axis text.major{font-family:Consolas,"Liberation Mono",Menlo,Courier,monospace;font-size:10px}#chart-03c4b7e5-794b-4815-ba87-416de05a3f7b .text-overlay text.value{font-family:Consolas,"Liberation Mono",Menlo,Courier,monospace;font-size:16px}#chart-03c4b7e5-794b-4815-ba87-416de05a3f7b .text-overlay text.label{font-family:Consolas,"Liberation Mono",Menlo,Courier,monospace;font-size:10px}#chart-03c4b7e5-794b-4815-ba87-416de05a3f7b .tooltip{font-family:Consolas,"Liberation Mono",Menlo,Courier,monospace;font-size:14px}#chart-03c4b7e5-794b-4815-ba87-416de05a3f7b text.no_data{font-family:Consolas,"Liberation Mono",Menlo,Courier,monospace;font-size:64px}
#chart-03c4b7e5-794b-4815-ba87-416de05a3f7b{background-color:rgba(249,249,249,1)}#chart-03c4b7e5-794b-4815-ba87-416de05a3f7b path,#chart-03c4b7e5-794b-4815-ba87-416de05a3f7b line,#chart-03c4b7e5-794b-4815-ba87-416de05a3f7b rect,#chart-03c4b7e5-794b-4815-ba87-416de05a3f7b circle{-webkit-transition:150ms;-moz-transition:150ms;transition:150ms}#chart-03c4b7e5-794b-4815-ba87-416de05a3f7b .graph &gt; .background{fill:rgba(249,249,249,1)}#chart-03c4b7e5-794b-4815-ba87-416de05a3f7b .plot &gt; .background{fill:rgba(255,255,255,1)}#chart-03c4b7e5-794b-4815-ba87-416de05a3f7b .graph{fill:rgba(0,0,0,.87)}#chart-03c4b7e5-794b-4815-ba87-416de05a3f7b text.no_data{fill:rgba(0,0,0,1)}#chart-03c4b7e5-794b-4815-ba87-416de05a3f7b .title{fill:rgba(0,0,0,1)}#chart-03c4b7e5-794b-4815-ba87-416de05a3f7b .legends .legend text{fill:rgba(0,0,0,.87)}#chart-03c4b7e5-794b-4815-ba87-416de05a3f7b .legends .legend:hover text{fill:rgba(0,0,0,1)}#chart-03c4b7e5-794b-4815-ba87-416de05a3f7b .axis .line{stroke:rgba(0,0,0,1)}#chart-03c4b7e5-794b-4815-ba87-416de05a3f7b .axis .guide.line{stroke:rgba(0,0,0,.54)}#chart-03c4b7e5-794b-4815-ba87-416de05a3f7b .axis .major.line{stroke:rgba(0,0,0,.87)}#chart-03c4b7e5-794b-4815-ba87-416de05a3f7b .axis text.major{fill:rgba(0,0,0,1)}#chart-03c4b7e5-794b-4815-ba87-416de05a3f7b .axis.y .guides:hover .guide.line,#chart-03c4b7e5-794b-4815-ba87-416de05a3f7b .line-graph .axis.x .guides:hover .guide.line,#chart-03c4b7e5-794b-4815-ba87-416de05a3f7b .stackedline-graph .axis.x .guides:hover .guide.line,#chart-03c4b7e5-794b-4815-ba87-416de05a3f7b .xy-graph .axis.x .guides:hover .guide.line{stroke:rgba(0,0,0,1)}#chart-03c4b7e5-794b-4815-ba87-416de05a3f7b .axis .guides:hover text{fill:rgba(0,0,0,1)}#chart-03c4b7e5-794b-4815-ba87-416de05a3f7b .reactive{fill-opacity:.7;stroke-opacity:.8;stroke-width:1}#chart-03c4b7e5-794b-4815-ba87-416de05a3f7b .ci{stroke:rgba(0,0,0,.87)}#chart-03c4b7e5-794b-4815-ba87-416de05a3f7b .reactive.active,#chart-03c4b7e5-794b-4815-ba87-416de05a3f7b .active .reactive{fill-opacity:.8;stroke-opacity:.9;stroke-width:4}#chart-03c4b7e5-794b-4815-ba87-416de05a3f7b .ci .reactive.active{stroke-width:1.5}#chart-03c4b7e5-794b-4815-ba87-416de05a3f7b .series text{fill:rgba(0,0,0,1)}#chart-03c4b7e5-794b-4815-ba87-416de05a3f7b .tooltip rect{fill:rgba(255,255,255,1);stroke:rgba(0,0,0,1);-webkit-transition:opacity 150ms;-moz-transition:opacity 150ms;transition:opacity 150ms}#chart-03c4b7e5-794b-4815-ba87-416de05a3f7b .tooltip .label{fill:rgba(0,0,0,.87)}#chart-03c4b7e5-794b-4815-ba87-416de05a3f7b .tooltip .label{fill:rgba(0,0,0,.87)}#chart-03c4b7e5-794b-4815-ba87-416de05a3f7b .tooltip .legend{font-size:.8em;fill:rgba(0,0,0,.54)}#chart-03c4b7e5-794b-4815-ba87-416de05a3f7b .tooltip .x_label{font-size:.6em;fill:rgba(0,0,0,1)}#chart-03c4b7e5-794b-4815-ba87-416de05a3f7b .tooltip .xlink{font-size:.5em;text-decoration:underline}#chart-03c4b7e5-794b-4815-ba87-416de05a3f7b .tooltip .value{font-size:1.5em}#chart-03c4b7e5-794b-4815-ba87-416de05a3f7b .bound{font-size:.5em}#chart-03c4b7e5-794b-4815-ba87-416de05a3f7b .max-value{font-size:.75em;fill:rgba(0,0,0,.54)}#chart-03c4b7e5-794b-4815-ba87-416de05a3f7b .map-element{fill:rgba(255,255,255,1);stroke:rgba(0,0,0,.54) !important}#chart-03c4b7e5-794b-4815-ba87-416de05a3f7b .map-element .reactive{fill-opacity:inherit;stroke-opacity:inherit}#chart-03c4b7e5-794b-4815-ba87-416de05a3f7b .color-0,#chart-03c4b7e5-794b-4815-ba87-416de05a3f7b .color-0 a:visited{stroke:#F44336;fill:#F44336}#chart-03c4b7e5-794b-4815-ba87-416de05a3f7b .text-overlay .color-0 text{fill:black}
#chart-03c4b7e5-794b-4815-ba87-416de05a3f7b text.no_data{text-anchor:middle}#chart-03c4b7e5-794b-4815-ba87-416de05a3f7b .guide.line{fill:none}#chart-03c4b7e5-794b-4815-ba87-416de05a3f7b .centered{text-anchor:middle}#chart-03c4b7e5-794b-4815-ba87-416de05a3f7b .title{text-anchor:middle}#chart-03c4b7e5-794b-4815-ba87-416de05a3f7b .legends .legend text{fill-opacity:1}#chart-03c4b7e5-794b-4815-ba87-416de05a3f7b .axis.x text{text-anchor:middle}#chart-03c4b7e5-794b-4815-ba87-416de05a3f7b .axis.x:not(.web) text[transform]{text-anchor:start}#chart-03c4b7e5-794b-4815-ba87-416de05a3f7b .axis.x:not(.web) text[transform].backwards{text-anchor:end}#chart-03c4b7e5-794b-4815-ba87-416de05a3f7b .axis.y text{text-anchor:end}#chart-03c4b7e5-794b-4815-ba87-416de05a3f7b .axis.y text[transform].backwards{text-anchor:start}#chart-03c4b7e5-794b-4815-ba87-416de05a3f7b .axis.y2 text{text-anchor:start}#chart-03c4b7e5-794b-4815-ba87-416de05a3f7b .axis.y2 text[transform].backwards{text-anchor:end}#chart-03c4b7e5-794b-4815-ba87-416de05a3f7b .axis .guide.line{stroke-dasharray:4,4;stroke:black}#chart-03c4b7e5-794b-4815-ba87-416de05a3f7b .axis .major.guide.line{stroke-dasharray:6,6;stroke:black}#chart-03c4b7e5-794b-4815-ba87-416de05a3f7b .horizontal .axis.y .guide.line,#chart-03c4b7e5-794b-4815-ba87-416de05a3f7b .horizontal .axis.y2 .guide.line,#chart-03c4b7e5-794b-4815-ba87-416de05a3f7b .vertical .axis.x .guide.line{opacity:0}#chart-03c4b7e5-794b-4815-ba87-416de05a3f7b .horizontal .axis.always_show .guide.line,#chart-03c4b7e5-794b-4815-ba87-416de05a3f7b .vertical .axis.always_show .guide.line{opacity:1 !important}#chart-03c4b7e5-794b-4815-ba87-416de05a3f7b .axis.y .guides:hover .guide.line,#chart-03c4b7e5-794b-4815-ba87-416de05a3f7b .axis.y2 .guides:hover .guide.line,#chart-03c4b7e5-794b-4815-ba87-416de05a3f7b .axis.x .guides:hover .guide.line{opacity:1}#chart-03c4b7e5-794b-4815-ba87-416de05a3f7b .axis .guides:hover text{opacity:1}#chart-03c4b7e5-794b-4815-ba87-416de05a3f7b .nofill{fill:none}#chart-03c4b7e5-794b-4815-ba87-416de05a3f7b .subtle-fill{fill-opacity:.2}#chart-03c4b7e5-794b-4815-ba87-416de05a3f7b .dot{stroke-width:1px;fill-opacity:1;stroke-opacity:1}#chart-03c4b7e5-794b-4815-ba87-416de05a3f7b .dot.active{stroke-width:5px}#chart-03c4b7e5-794b-4815-ba87-416de05a3f7b .dot.negative{fill:transparent}#chart-03c4b7e5-794b-4815-ba87-416de05a3f7b text,#chart-03c4b7e5-794b-4815-ba87-416de05a3f7b tspan{stroke:none !important}#chart-03c4b7e5-794b-4815-ba87-416de05a3f7b .series text.active{opacity:1}#chart-03c4b7e5-794b-4815-ba87-416de05a3f7b .tooltip rect{fill-opacity:.95;stroke-width:.5}#chart-03c4b7e5-794b-4815-ba87-416de05a3f7b .tooltip text{fill-opacity:1}#chart-03c4b7e5-794b-4815-ba87-416de05a3f7b .showable{visibility:hidden}#chart-03c4b7e5-794b-4815-ba87-416de05a3f7b .showable.shown{visibility:visible}#chart-03c4b7e5-794b-4815-ba87-416de05a3f7b .gauge-background{fill:rgba(229,229,229,1);stroke:none}#chart-03c4b7e5-794b-4815-ba87-416de05a3f7b .bg-lines{stroke:rgba(249,249,249,1);stroke-width:2px}</style><script type="text/javascript">window.pygal = window.pygal || {};window.pygal.config = window.pygal.config || {};window.pygal.config['03c4b7e5-794b-4815-ba87-416de05a3f7b'] = {"allow_interruptions": false, "box_mode": "extremes", "classes": ["pygal-chart", "pygal-sparkline"], "css": ["file://style.css", "file://graph.css"], "defs": [], "disable_xml_declaration": false, "dots_size": 2.5, "dynamic_print_values": false, "explicit_size": true, "fill": false, "force_uri_protocol": "https", "formatter": null, "half_pie": false, "height": 50, "include_x_axis": false, "inner_radius": 0, "interpolate": "cubic", "interpolation_parameters": {}, "interpolation_precision": 250, "inverse_y_axis": false, "js": [], "legend_at_bottom": false, "legend_at_bottom_columns": null, "legend_box_size": 12, "logarithmic": false, "margin": 10, "margin_bottom": null, "margin_left": null, "margin_right": null, "margin_top": null, "max_scale": 2, "min_scale": 1, "missing_value_fill_truncation": "x", "no_data_text": "", "no_prefix": false, "order_min": null, "pretty_print": false, "print_labels": false, "print_values": false, "print_values_position": "center", "print_zeroes": true, "range": null, "rounded_bars": null, "secondary_range": null, "show_dots": false, "show_legend": false, "show_minor_x_labels": true, "show_minor_y_labels": true, "show_only_major_dots": false, "show_x_guides": false, "show_x_labels": false, "show_y_guides": true, "show_y_labels": true, "spacing": 0, "stack_from_top": false, "strict": false, "stroke": true, "stroke_style": null, "style": {"background": "rgba(249, 249, 249, 1)", "ci_colors": [], "colors": ["#F44336", "#3F51B5", "#009688", "#FFC107", "#FF5722", "#9C27B0", "#03A9F4", "#8BC34A", "#FF9800", "#E91E63", "#2196F3", "#4CAF50", "#FFEB3B", "#673AB7", "#00BCD4", "#CDDC39", "#9E9E9E", "#607D8B"], "dot_opacity": "1", "font_family": "Consolas, \"Liberation Mono\", Menlo, Courier, monospace", "foreground": "rgba(0, 0, 0, .87)", "foreground_strong": "rgba(0, 0, 0, 1)", "foreground_subtle": "rgba(0, 0, 0, .54)", "guide_stroke_color": "black", "guide_stroke_dasharray": "4,4", "label_font_family": "Consolas, \"Liberation Mono\", Menlo, Courier, monospace", "label_font_size": 10, "legend_font_family": "Consolas, \"Liberation Mono\", Menlo, Courier, monospace", "legend_font_size": 14, "major_guide_stroke_color": "black", "major_guide_stroke_dasharray": "6,6", "major_label_font_family": "Consolas, \"Liberation Mono\", Menlo, Courier, monospace", "major_label_font_size": 10, "no_data_font_family": "Consolas, \"Liberation Mono\", Menlo, Courier, monospace", "no_data_font_size": 64, "opacity": ".7", "opacity_hover": ".8", "plot_background": "rgba(255, 255, 255, 1)", "stroke_opacity": ".8", "stroke_opacity_hover": ".9", "stroke_width": "1", "stroke_width_hover": "4", "title_font_family": "Consolas, \"Liberation Mono\", Menlo, Courier, monospace", "title_font_size": 16, "tooltip_font_family": "Consolas, \"Liberation Mono\", Menlo, Courier, monospace", "tooltip_font_size": 14, "transition": "150ms", "value_background": "rgba(229, 229, 229, 1)", "value_colors": [], "value_font_family": "Consolas, \"Liberation Mono\", Menlo, Courier, monospace", "value_font_size": 16, "value_label_font_family": "Consolas, \"Liberation Mono\", Menlo, Courier, monospace", "value_label_font_size": 10}, "title": null, "tooltip_border_radius": 0, "tooltip_fancy_mode": true, "truncate_label": null, "truncate_legend": null, "width": 200, "x_label_rotation": 0, "x_labels": ["2025/1", "2024/12", "2024/11"], "x_labels_major": null, "x_labels_major_count": null, "x_labels_major_every": null, "x_title": null, "xrange": null, "y_label_rotation": 0, "y_labels": null, "y_labels_major": null, "y_labels_major_count": null, "y_labels_major_every": null, "y_title": null, "zero": 0, "legends": [""]}</script></defs><title>Pygal</title><g class="graph line-graph vertical"><rect x="0" y="0" width="200" height="50" class="background" /><g transform="translate(22, 10)" class="plot"><rect x="0" y="0" width="168.0" height="30" class="background" /><g class="axis y always_show"><path d="M0.000000 30.000000 h168.000000" class="line" /><g class="guides"><path d="M0.000000 25.318793 h168.000000" class="guide line" /><text x="-5" y="28.81879250762058" class="">8</text><title>8</title></g><g class="guides"><path d="M0.000000 8.901655 h168.000000" class="guide line" /><text x="-5" y="12.401654845795193" class="">12</text><title>12</title></g></g><g class="series serie-0 color-0"><path d="M3.230769 21.214508 L3.553846 21.083172 3.876923 20.951840 4.200000 20.820518 4.523077 20.689210 4.846154 20.557921 5.169231 20.426656 5.492308 20.295419 5.815385 20.164215 6.138462 20.033049 6.461538 19.901925 6.784615 19.770849 7.107692 19.639825 7.430769 19.508857 7.753846 19.377951 8.076923 19.247111 8.400000 19.116342 8.723077 18.985649 9.046154 18.855036 9.369231 18.724508 9.692308 18.594070 10.015385 18.463727 10.338462 18.333483 10.661538 18.203343 10.984615 18.073311 11.307692 17.943393 11.630769 17.813594 11.953846 17.683917 12.276923 17.554368 12.600000 17.424951 12.923077 17.295672 13.246154 17.166534 13.569231 17.037543 13.892308 16.908703 14.215385 16.780019 14.538462 16.651496 14.861538 16.523138 15.184615 16.394951 15.507692 16.266939 15.830769 16.139106 16.153846 16.011457 16.476923 15.883998 16.800000 15.756733 17.123077 15.629666 17.446154 15.502803 17.769231 15.376147 18.092308 15.249704 18.415385 15.123479 18.738462 14.997476 19.061538 14.871700 19.384615 14.746156 19.707692 14.620848 20.030769 14.495781 20.353846 14.370960 20.676923 14.246390 21.000000 14.122075 21.323077 13.998020 21.646154 13.874230 21.969231 13.750709 22.292308 13.627462 22.615385 13.504495 22.938462 13.381811 23.261538 13.259416 23.584615 13.137313 23.907692 13.015509 24.230769 12.894007 24.553846 12.772813 24.876923 12.651930 25.200000 12.531365 25.523077 12.411121 25.846154 12.291203 26.169231 12.171616 26.492308 12.052365 26.815385 11.933454 27.138462 11.814888 27.461538 11.696673 27.784615 11.578811 28.107692 11.461310 28.430769 11.344172 28.753846 11.227403 29.076923 11.111008 29.400000 10.994990 29.723077 10.879356 30.046154 10.764110 30.369231 10.649256 30.692308 10.534799 31.015385 10.420744 31.338462 10.307096 31.661538 10.193859 31.984615 10.081038 32.307692 9.968637 32.630769 9.856663 32.953846 9.745119 33.276923 9.634009 33.600000 9.523340 33.923077 9.413114 34.246154 9.303338 34.569231 9.194016 34.892308 9.085153 35.215385 8.976753 35.538462 8.868821 35.861538 8.761361 36.184615 8.654380 36.507692 8.547880 36.830769 8.441868 37.153846 8.336347 37.476923 8.231323 37.800000 8.126800 38.123077 8.022783 38.446154 7.919276 38.769231 7.816285 39.092308 7.713814 39.415385 7.611868 39.738462 7.510451 40.061538 7.409569 40.384615 7.309225 40.707692 7.209426 41.030769 7.110174 41.353846 7.011477 41.676923 6.913336 42.000000 6.815759 42.323077 6.718749 42.646154 6.622311 42.969231 6.526450 43.292308 6.431170 43.615385 6.336477 43.938462 6.242375 44.261538 6.148868 44.584615 6.055962 44.907692 5.963661 45.230769 5.871971 45.553846 5.780894 45.876923 5.690438 46.200000 5.600605 46.523077 5.511401 46.846154 5.422831 47.169231 5.334899 47.492308 5.247610 47.815385 5.160968 48.138462 5.074980 48.461538 4.989648 48.784615 4.904978 49.107692 4.820975 49.430769 4.737644 49.753846 4.654988 50.076923 4.573014 50.400000 4.491725 50.723077 4.411126 51.046154 4.331222 51.369231 4.252019 51.692308 4.173519 52.015385 4.095729 52.338462 4.018653 52.661538 3.942295 52.984615 3.866661 53.307692 3.791755 53.630769 3.717582 53.953846 3.644146 54.276923 3.571453 54.600000 3.499507 54.923077 3.428312 55.246154 3.357875 55.569231 3.288198 55.892308 3.219287 56.215385 3.151147 56.538462 3.083782 56.861538 3.017198 57.184615 2.951398 57.507692 2.886388 57.830769 2.822173 58.153846 2.758756 58.476923 2.696143 58.800000 2.634339 59.123077 2.573348 59.446154 2.513174 59.769231 2.453824 60.092308 2.395301 60.415385 2.337610 60.738462 2.280756 61.061538 2.224744 61.384615 2.169578 61.707692 2.115263 62.030769 2.061804 62.353846 2.009205 62.676923 1.957471 63.000000 1.906608 63.323077 1.856619 63.646154 1.807510 63.969231 1.759285 64.292308 1.711949 64.615385 1.665506 64.938462 1.619962 65.261538 1.575320 65.584615 1.531587 65.907692 1.488766 66.230769 1.446862 66.553846 1.405881 66.876923 1.365826 67.200000 1.326702 67.523077 1.288515 67.846154 1.251269 68.169231 1.214968 68.492308 1.179617 68.815385 1.145222 69.138462 1.111787 69.461538 1.079316 69.784615 1.047814 70.107692 1.017286 70.430769 0.987737 70.753846 0.959172 71.076923 0.931594 71.400000 0.905010 71.723077 0.879423 72.046154 0.854838 72.369231 0.831261 72.692308 0.808695 73.015385 0.787146 73.338462 0.766619 73.661538 0.747117 73.984615 0.728646 74.307692 0.711211 74.630769 0.694815 74.953846 0.679465 75.276923 0.665164 75.600000 0.651918 75.923077 0.639730 76.246154 0.628607 76.569231 0.618552 76.892308 0.609570 77.215385 0.601667 77.538462 0.594846 77.861538 0.589112 78.184615 0.584471 78.507692 0.580927 78.830769 0.578484 79.153846 0.577148 79.476923 0.576923 79.800000 0.577814 80.123077 0.579825 80.446154 0.582962 80.769231 0.587228 81.092308 0.592630 81.415385 0.599171 81.738462 0.606856 82.061538 0.615690 82.384615 0.625677 82.707692 0.636823 83.030769 0.649132 83.353846 0.662610 83.676923 0.677259 84.000000 0.693086 84.323077 0.710093 84.646154 0.728278 84.969231 0.747635 85.292308 0.768160 85.615385 0.789849 85.938462 0.812695 86.261538 0.836696 86.584615 0.861845 86.907692 0.888138 87.230769 0.915571 87.553846 0.944139 87.876923 0.973836 88.200000 1.004659 88.523077 1.036603 88.846154 1.069662 89.169231 1.103833 89.492308 1.139110 89.815385 1.175488 90.138462 1.212964 90.461538 1.251531 90.784615 1.291187 91.107692 1.331924 91.430769 1.373740 91.753846 1.416629 92.076923 1.460587 92.400000 1.505609 92.723077 1.551689 93.046154 1.598824 93.369231 1.647009 93.692308 1.696239 94.015385 1.746509 94.338462 1.797814 94.661538 1.850150 94.984615 1.903512 95.307692 1.957895 95.630769 2.013295 95.953846 2.069707 96.276923 2.127125 96.600000 2.185546 96.923077 2.244965 97.246154 2.305377 97.569231 2.366777 97.892308 2.429160 98.215385 2.492522 98.538462 2.556858 98.861538 2.622163 99.184615 2.688433 99.507692 2.755663 99.830769 2.823847 100.153846 2.892982 100.476923 2.963063 100.800000 3.034085 101.123077 3.106042 101.446154 3.178932 101.769231 3.252748 102.092308 3.327486 102.415385 3.403141 102.738462 3.479708 103.061538 3.557184 103.384615 3.635562 103.707692 3.714839 104.030769 3.795010 104.353846 3.876069 104.676923 3.958013 105.000000 4.040836 105.323077 4.124534 105.646154 4.209101 105.969231 4.294534 106.292308 4.380828 106.615385 4.467977 106.938462 4.555977 107.261538 4.644824 107.584615 4.734512 107.907692 4.825037 108.230769 4.916395 108.553846 5.008579 108.876923 5.101587 109.200000 5.195412 109.523077 5.290051 109.846154 5.385498 110.169231 5.481749 110.492308 5.578799 110.815385 5.676643 111.138462 5.775277 111.461538 5.874696 111.784615 5.974895 112.107692 6.075869 112.430769 6.177614 112.753846 6.280125 113.076923 6.383397 113.400000 6.487426 113.723077 6.592206 114.046154 6.697734 114.369231 6.804004 114.692308 6.911011 115.015385 7.018752 115.338462 7.127220 115.661538 7.236412 115.984615 7.346322 116.307692 7.456947 116.630769 7.568280 116.953846 7.680319 117.276923 7.793056 117.600000 7.906489 117.923077 8.020613 118.246154 8.135422 118.569231 8.250911 118.892308 8.367077 119.215385 8.483914 119.538462 8.601418 119.861538 8.719584 120.184615 8.838407 120.507692 8.957883 120.830769 9.078006 121.153846 9.198772 121.476923 9.320177 121.800000 9.442215 122.123077 9.564882 122.446154 9.688173 122.769231 9.812084 123.092308 9.936609 123.415385 10.061744 123.738462 10.187484 124.061538 10.313825 124.384615 10.440762 124.707692 10.568289 125.030769 10.696403 125.353846 10.825098 125.676923 10.954370 126.000000 11.084215 126.323077 11.214626 126.646154 11.345601 126.969231 11.477133 127.292308 11.609219 127.615385 11.741852 127.938462 11.875030 128.261538 12.008747 128.584615 12.142998 128.907692 12.277778 129.230769 12.413084 129.553846 12.548909 129.876923 12.685250 130.200000 12.822101 130.523077 12.959459 130.846154 13.097317 131.169231 13.235672 131.492308 13.374519 131.815385 13.513852 132.138462 13.653668 132.461538 13.793962 132.784615 13.934728 133.107692 14.075963 133.430769 14.217660 133.753846 14.359817 134.076923 14.502427 134.400000 14.645486 134.723077 14.788990 135.046154 14.932934 135.369231 15.077313 135.692308 15.222122 136.015385 15.367356 136.338462 15.513011 136.661538 15.659082 136.984615 15.805565 137.307692 15.952454 137.630769 16.099745 137.953846 16.247434 138.276923 16.395514 138.600000 16.543983 138.923077 16.692834 139.246154 16.842064 139.569231 16.991667 139.892308 17.141639 140.215385 17.291975 140.538462 17.442671 140.861538 17.593721 141.184615 17.745121 141.507692 17.896866 141.830769 18.048951 142.153846 18.201372 142.476923 18.354124 142.800000 18.507203 143.123077 18.660603 143.446154 18.814319 143.769231 18.968348 144.092308 19.122684 144.415385 19.277323 144.738462 19.432259 145.061538 19.587489 145.384615 19.743007 145.707692 19.898809 146.030769 20.054890 146.353846 20.211245 146.676923 20.367869 147.000000 20.524758 147.323077 20.681908 147.646154 20.839312 147.969231 20.996968 148.292308 21.154869 148.615385 21.313011 148.938462 21.471390 149.261538 21.630000 149.584615 21.788837 149.907692 21.947897 150.230769 22.107174 150.553846 22.266663 150.876923 22.426361 151.200000 22.586262 151.523077 22.746362 151.846154 22.906655 152.169231 23.067138 152.492308 23.227805 152.815385 23.388652 153.138462 23.549673 153.461538 23.710865 153.784615 23.872223 154.107692 24.033741 154.430769 24.195415 154.753846 24.357240 155.076923 24.519212 155.400000 24.681326 155.723077 24.843577 156.046154 25.005960 156.369231 25.168471 156.692308 25.331105 157.015385 25.493858 157.338462 25.656723 157.661538 25.819698 157.984615 25.982776 158.307692 26.145954 158.630769 26.309226 158.953846 26.472588 159.276923 26.636035 159.600000 26.799563 159.923077 26.963166 160.246154 27.126840 160.569231 27.290580 160.892308 27.454382 161.215385 27.618241 161.538462 27.782151 161.861538 27.946109 162.184615 28.110109 162.507692 28.274148 162.830769 28.438219 163.153846 28.602319 163.476923 28.766442 163.800000 28.930584 164.123077 29.094740 164.446154 29.258906 164.769231 29.423077" class="line reactive nofill" /></g></g><g class="titles" /><g transform="translate(22, 10)" class="plot overlay"><g class="series serie-0 color-0" /></g><g transform="translate(22, 10)" class="plot text-overlay"><g class="series serie-0 color-0" /></g><g transform="translate(22, 10)" class="plot tooltip-overlay"><g transform="translate(0 0)" style="opacity: 0" class="tooltip"><rect rx="0" ry="0" width="0" height="0" class="tooltip-box" /><g class="text" /></g></g></g></svg>