<?xml version='1.0' encoding='utf-8'?>
<svg xmlns="http://www.w3.org/2000/svg" id="chart-76c81a1f-16e1-450a-81ca-be51cf9e97b1" class="pygal-chart pygal-sparkline" viewBox="0 0 200 50" width="200" height="50"><!--Generated with pygal 3.0.5 (etree) ©Kozea 2012-2016 on 2024-09-24--><!--http://pygal.org--><!--http://github.com/Kozea/pygal--><defs><style type="text/css">#chart-76c81a1f-16e1-450a-81ca-be51cf9e97b1{-webkit-user-select:none;-webkit-font-smoothing:antialiased;font-family:Consolas,"Liberation Mono",Menlo,Courier,monospace}#chart-76c81a1f-16e1-450a-81ca-be51cf9e97b1 .title{font-family:Consolas,"Liberation Mono",Menlo,Courier,monospace;font-size:16px}#chart-76c81a1f-16e1-450a-81ca-be51cf9e97b1 .legends .legend text{font-family:Consolas,"Liberation Mono",Menlo,Courier,monospace;font-size:14px}#chart-76c81a1f-16e1-450a-81ca-be51cf9e97b1 .axis text{font-family:Consolas,"Liberation Mono",Menlo,Courier,monospace;font-size:10px}#chart-76c81a1f-16e1-450a-81ca-be51cf9e97b1 .axis text.major{font-family:Consolas,"Liberation Mono",Menlo,Courier,monospace;font-size:10px}#chart-76c81a1f-16e1-450a-81ca-be51cf9e97b1 .text-overlay text.value{font-family:Consolas,"Liberation Mono",Menlo,Courier,monospace;font-size:16px}#chart-76c81a1f-16e1-450a-81ca-be51cf9e97b1 .text-overlay text.label{font-family:Consolas,"Liberation Mono",Menlo,Courier,monospace;font-size:10px}#chart-76c81a1f-16e1-450a-81ca-be51cf9e97b1 .tooltip{font-family:Consolas,"Liberation Mono",Menlo,Courier,monospace;font-size:14px}#chart-76c81a1f-16e1-450a-81ca-be51cf9e97b1 text.no_data{font-family:Consolas,"Liberation Mono",Menlo,Courier,monospace;font-size:64px}
#chart-76c81a1f-16e1-450a-81ca-be51cf9e97b1{background-color:rgba(249,249,249,1)}#chart-76c81a1f-16e1-450a-81ca-be51cf9e97b1 path,#chart-76c81a1f-16e1-450a-81ca-be51cf9e97b1 line,#chart-76c81a1f-16e1-450a-81ca-be51cf9e97b1 rect,#chart-76c81a1f-16e1-450a-81ca-be51cf9e97b1 circle{-webkit-transition:150ms;-moz-transition:150ms;transition:150ms}#chart-76c81a1f-16e1-450a-81ca-be51cf9e97b1 .graph &gt; .background{fill:rgba(249,249,249,1)}#chart-76c81a1f-16e1-450a-81ca-be51cf9e97b1 .plot &gt; .background{fill:rgba(255,255,255,1)}#chart-76c81a1f-16e1-450a-81ca-be51cf9e97b1 .graph{fill:rgba(0,0,0,.87)}#chart-76c81a1f-16e1-450a-81ca-be51cf9e97b1 text.no_data{fill:rgba(0,0,0,1)}#chart-76c81a1f-16e1-450a-81ca-be51cf9e97b1 .title{fill:rgba(0,0,0,1)}#chart-76c81a1f-16e1-450a-81ca-be51cf9e97b1 .legends .legend text{fill:rgba(0,0,0,.87)}#chart-76c81a1f-16e1-450a-81ca-be51cf9e97b1 .legends .legend:hover text{fill:rgba(0,0,0,1)}#chart-76c81a1f-16e1-450a-81ca-be51cf9e97b1 .axis .line{stroke:rgba(0,0,0,1)}#chart-76c81a1f-16e1-450a-81ca-be51cf9e97b1 .axis .guide.line{stroke:rgba(0,0,0,.54)}#chart-76c81a1f-16e1-450a-81ca-be51cf9e97b1 .axis .major.line{stroke:rgba(0,0,0,.87)}#chart-76c81a1f-16e1-450a-81ca-be51cf9e97b1 .axis text.major{fill:rgba(0,0,0,1)}#chart-76c81a1f-16e1-450a-81ca-be51cf9e97b1 .axis.y .guides:hover .guide.line,#chart-76c81a1f-16e1-450a-81ca-be51cf9e97b1 .line-graph .axis.x .guides:hover .guide.line,#chart-76c81a1f-16e1-450a-81ca-be51cf9e97b1 .stackedline-graph .axis.x .guides:hover .guide.line,#chart-76c81a1f-16e1-450a-81ca-be51cf9e97b1 .xy-graph .axis.x .guides:hover .guide.line{stroke:rgba(0,0,0,1)}#chart-76c81a1f-16e1-450a-81ca-be51cf9e97b1 .axis .guides:hover text{fill:rgba(0,0,0,1)}#chart-76c81a1f-16e1-450a-81ca-be51cf9e97b1 .reactive{fill-opacity:.7;stroke-opacity:.8;stroke-width:1}#chart-76c81a1f-16e1-450a-81ca-be51cf9e97b1 .ci{stroke:rgba(0,0,0,.87)}#chart-76c81a1f-16e1-450a-81ca-be51cf9e97b1 .reactive.active,#chart-76c81a1f-16e1-450a-81ca-be51cf9e97b1 .active .reactive{fill-opacity:.8;stroke-opacity:.9;stroke-width:4}#chart-76c81a1f-16e1-450a-81ca-be51cf9e97b1 .ci .reactive.active{stroke-width:1.5}#chart-76c81a1f-16e1-450a-81ca-be51cf9e97b1 .series text{fill:rgba(0,0,0,1)}#chart-76c81a1f-16e1-450a-81ca-be51cf9e97b1 .tooltip rect{fill:rgba(255,255,255,1);stroke:rgba(0,0,0,1);-webkit-transition:opacity 150ms;-moz-transition:opacity 150ms;transition:opacity 150ms}#chart-76c81a1f-16e1-450a-81ca-be51cf9e97b1 .tooltip .label{fill:rgba(0,0,0,.87)}#chart-76c81a1f-16e1-450a-81ca-be51cf9e97b1 .tooltip .label{fill:rgba(0,0,0,.87)}#chart-76c81a1f-16e1-450a-81ca-be51cf9e97b1 .tooltip .legend{font-size:.8em;fill:rgba(0,0,0,.54)}#chart-76c81a1f-16e1-450a-81ca-be51cf9e97b1 .tooltip .x_label{font-size:.6em;fill:rgba(0,0,0,1)}#chart-76c81a1f-16e1-450a-81ca-be51cf9e97b1 .tooltip .xlink{font-size:.5em;text-decoration:underline}#chart-76c81a1f-16e1-450a-81ca-be51cf9e97b1 .tooltip .value{font-size:1.5em}#chart-76c81a1f-16e1-450a-81ca-be51cf9e97b1 .bound{font-size:.5em}#chart-76c81a1f-16e1-450a-81ca-be51cf9e97b1 .max-value{font-size:.75em;fill:rgba(0,0,0,.54)}#chart-76c81a1f-16e1-450a-81ca-be51cf9e97b1 .map-element{fill:rgba(255,255,255,1);stroke:rgba(0,0,0,.54) !important}#chart-76c81a1f-16e1-450a-81ca-be51cf9e97b1 .map-element .reactive{fill-opacity:inherit;stroke-opacity:inherit}#chart-76c81a1f-16e1-450a-81ca-be51cf9e97b1 .color-0,#chart-76c81a1f-16e1-450a-81ca-be51cf9e97b1 .color-0 a:visited{stroke:#F44336;fill:#F44336}#chart-76c81a1f-16e1-450a-81ca-be51cf9e97b1 .text-overlay .color-0 text{fill:black}
#chart-76c81a1f-16e1-450a-81ca-be51cf9e97b1 text.no_data{text-anchor:middle}#chart-76c81a1f-16e1-450a-81ca-be51cf9e97b1 .guide.line{fill:none}#chart-76c81a1f-16e1-450a-81ca-be51cf9e97b1 .centered{text-anchor:middle}#chart-76c81a1f-16e1-450a-81ca-be51cf9e97b1 .title{text-anchor:middle}#chart-76c81a1f-16e1-450a-81ca-be51cf9e97b1 .legends .legend text{fill-opacity:1}#chart-76c81a1f-16e1-450a-81ca-be51cf9e97b1 .axis.x text{text-anchor:middle}#chart-76c81a1f-16e1-450a-81ca-be51cf9e97b1 .axis.x:not(.web) text[transform]{text-anchor:start}#chart-76c81a1f-16e1-450a-81ca-be51cf9e97b1 .axis.x:not(.web) text[transform].backwards{text-anchor:end}#chart-76c81a1f-16e1-450a-81ca-be51cf9e97b1 .axis.y text{text-anchor:end}#chart-76c81a1f-16e1-450a-81ca-be51cf9e97b1 .axis.y text[transform].backwards{text-anchor:start}#chart-76c81a1f-16e1-450a-81ca-be51cf9e97b1 .axis.y2 text{text-anchor:start}#chart-76c81a1f-16e1-450a-81ca-be51cf9e97b1 .axis.y2 text[transform].backwards{text-anchor:end}#chart-76c81a1f-16e1-450a-81ca-be51cf9e97b1 .axis .guide.line{stroke-dasharray:4,4;stroke:black}#chart-76c81a1f-16e1-450a-81ca-be51cf9e97b1 .axis .major.guide.line{stroke-dasharray:6,6;stroke:black}#chart-76c81a1f-16e1-450a-81ca-be51cf9e97b1 .horizontal .axis.y .guide.line,#chart-76c81a1f-16e1-450a-81ca-be51cf9e97b1 .horizontal .axis.y2 .guide.line,#chart-76c81a1f-16e1-450a-81ca-be51cf9e97b1 .vertical .axis.x .guide.line{opacity:0}#chart-76c81a1f-16e1-450a-81ca-be51cf9e97b1 .horizontal .axis.always_show .guide.line,#chart-76c81a1f-16e1-450a-81ca-be51cf9e97b1 .vertical .axis.always_show .guide.line{opacity:1 !important}#chart-76c81a1f-16e1-450a-81ca-be51cf9e97b1 .axis.y .guides:hover .guide.line,#chart-76c81a1f-16e1-450a-81ca-be51cf9e97b1 .axis.y2 .guides:hover .guide.line,#chart-76c81a1f-16e1-450a-81ca-be51cf9e97b1 .axis.x .guides:hover .guide.line{opacity:1}#chart-76c81a1f-16e1-450a-81ca-be51cf9e97b1 .axis .guides:hover text{opacity:1}#chart-76c81a1f-16e1-450a-81ca-be51cf9e97b1 .nofill{fill:none}#chart-76c81a1f-16e1-450a-81ca-be51cf9e97b1 .subtle-fill{fill-opacity:.2}#chart-76c81a1f-16e1-450a-81ca-be51cf9e97b1 .dot{stroke-width:1px;fill-opacity:1;stroke-opacity:1}#chart-76c81a1f-16e1-450a-81ca-be51cf9e97b1 .dot.active{stroke-width:5px}#chart-76c81a1f-16e1-450a-81ca-be51cf9e97b1 .dot.negative{fill:transparent}#chart-76c81a1f-16e1-450a-81ca-be51cf9e97b1 text,#chart-76c81a1f-16e1-450a-81ca-be51cf9e97b1 tspan{stroke:none !important}#chart-76c81a1f-16e1-450a-81ca-be51cf9e97b1 .series text.active{opacity:1}#chart-76c81a1f-16e1-450a-81ca-be51cf9e97b1 .tooltip rect{fill-opacity:.95;stroke-width:.5}#chart-76c81a1f-16e1-450a-81ca-be51cf9e97b1 .tooltip text{fill-opacity:1}#chart-76c81a1f-16e1-450a-81ca-be51cf9e97b1 .showable{visibility:hidden}#chart-76c81a1f-16e1-450a-81ca-be51cf9e97b1 .showable.shown{visibility:visible}#chart-76c81a1f-16e1-450a-81ca-be51cf9e97b1 .gauge-background{fill:rgba(229,229,229,1);stroke:none}#chart-76c81a1f-16e1-450a-81ca-be51cf9e97b1 .bg-lines{stroke:rgba(249,249,249,1);stroke-width:2px}</style><script type="text/javascript">window.pygal = window.pygal || {};window.pygal.config = window.pygal.config || {};window.pygal.config['76c81a1f-16e1-450a-81ca-be51cf9e97b1'] = {"allow_interruptions": false, "box_mode": "extremes", "classes": ["pygal-chart", "pygal-sparkline"], "css": ["file://style.css", "file://graph.css"], "defs": [], "disable_xml_declaration": false, "dots_size": 2.5, "dynamic_print_values": false, "explicit_size": true, "fill": false, "force_uri_protocol": "https", "formatter": null, "half_pie": false, "height": 50, "include_x_axis": false, "inner_radius": 0, "interpolate": "cubic", "interpolation_parameters": {}, "interpolation_precision": 250, "inverse_y_axis": false, "js": [], "legend_at_bottom": false, "legend_at_bottom_columns": null, "legend_box_size": 12, "logarithmic": false, "margin": 10, "margin_bottom": null, "margin_left": null, "margin_right": null, "margin_top": null, "max_scale": 2, "min_scale": 1, "missing_value_fill_truncation": "x", "no_data_text": "", "no_prefix": false, "order_min": null, "pretty_print": false, "print_labels": false, "print_values": false, "print_values_position": "center", "print_zeroes": true, "range": null, "rounded_bars": null, "secondary_range": null, "show_dots": false, "show_legend": false, "show_minor_x_labels": true, "show_minor_y_labels": true, "show_only_major_dots": false, "show_x_guides": false, "show_x_labels": false, "show_y_guides": true, "show_y_labels": true, "spacing": 0, "stack_from_top": false, "strict": false, "stroke": true, "stroke_style": null, "style": {"background": "rgba(249, 249, 249, 1)", "ci_colors": [], "colors": ["#F44336", "#3F51B5", "#009688", "#FFC107", "#FF5722", "#9C27B0", "#03A9F4", "#8BC34A", "#FF9800", "#E91E63", "#2196F3", "#4CAF50", "#FFEB3B", "#673AB7", "#00BCD4", "#CDDC39", "#9E9E9E", "#607D8B"], "dot_opacity": "1", "font_family": "Consolas, \"Liberation Mono\", Menlo, Courier, monospace", "foreground": "rgba(0, 0, 0, .87)", "foreground_strong": "rgba(0, 0, 0, 1)", "foreground_subtle": "rgba(0, 0, 0, .54)", "guide_stroke_color": "black", "guide_stroke_dasharray": "4,4", "label_font_family": "Consolas, \"Liberation Mono\", Menlo, Courier, monospace", "label_font_size": 10, "legend_font_family": "Consolas, \"Liberation Mono\", Menlo, Courier, monospace", "legend_font_size": 14, "major_guide_stroke_color": "black", "major_guide_stroke_dasharray": "6,6", "major_label_font_family": "Consolas, \"Liberation Mono\", Menlo, Courier, monospace", "major_label_font_size": 10, "no_data_font_family": "Consolas, \"Liberation Mono\", Menlo, Courier, monospace", "no_data_font_size": 64, "opacity": ".7", "opacity_hover": ".8", "plot_background": "rgba(255, 255, 255, 1)", "stroke_opacity": ".8", "stroke_opacity_hover": ".9", "stroke_width": "1", "stroke_width_hover": "4", "title_font_family": "Consolas, \"Liberation Mono\", Menlo, Courier, monospace", "title_font_size": 16, "tooltip_font_family": "Consolas, \"Liberation Mono\", Menlo, Courier, monospace", "tooltip_font_size": 14, "transition": "150ms", "value_background": "rgba(229, 229, 229, 1)", "value_colors": [], "value_font_family": "Consolas, \"Liberation Mono\", Menlo, Courier, monospace", "value_font_size": 16, "value_label_font_family": "Consolas, \"Liberation Mono\", Menlo, Courier, monospace", "value_label_font_size": 10}, "title": null, "tooltip_border_radius": 0, "tooltip_fancy_mode": true, "truncate_label": null, "truncate_legend": null, "width": 200, "x_label_rotation": 0, "x_labels": ["2024/1", "2023/12", "2023/11", "2023/10", "2023/9", "2023/8", "2023/7"], "x_labels_major": null, "x_labels_major_count": null, "x_labels_major_every": null, "x_title": null, "xrange": null, "y_label_rotation": 0, "y_labels": null, "y_labels_major": null, "y_labels_major_count": null, "y_labels_major_every": null, "y_title": null, "zero": 0, "legends": [""]}</script></defs><title>Pygal</title><g class="graph line-graph vertical"><rect x="0" y="0" width="200" height="50" class="background" /><g transform="translate(20, 10)" class="plot"><rect x="0" y="0" width="170" height="30" class="background" /><g class="axis y always_show"><path d="M0.000000 30.000000 h170.000000" class="line" /><g class="guides"><path d="M0.000000 20.212153 h170.000000" class="guide line" /><text x="-5" y="23.712153092864085" class="">4</text><title>4</title></g><g class="guides"><path d="M0.000000 3.849507 h170.000000" class="guide line" /><text x="-5" y="7.3495066829016515" class="">8</text><title>8</title></g></g><g class="series serie-0 color-0"><path d="M3.269231 20.212153 L3.378205 20.252137 3.487179 20.292119 3.596154 20.332101 3.705128 20.372080 3.814103 20.412057 3.923077 20.452030 4.032051 20.491998 4.141026 20.531962 4.250000 20.571921 4.358974 20.611873 4.467949 20.651818 4.576923 20.691756 4.685897 20.731685 4.794872 20.771605 4.903846 20.811515 5.012821 20.851415 5.121795 20.891304 5.230769 20.931181 5.339744 20.971045 5.448718 21.010896 5.557692 21.050733 5.666667 21.090556 5.775641 21.130363 5.884615 21.170154 5.993590 21.209928 6.102564 21.249685 6.211538 21.289424 6.320513 21.329144 6.429487 21.368845 6.538462 21.408525 6.647436 21.448185 6.756410 21.487823 6.865385 21.527438 6.974359 21.567031 7.083333 21.606600 7.192308 21.646144 7.301282 21.685664 7.410256 21.725157 7.519231 21.764624 7.628205 21.804064 7.737179 21.843476 7.846154 21.882860 7.955128 21.922214 8.064103 21.961539 8.173077 22.000832 8.282051 22.040095 8.391026 22.079325 8.500000 22.118522 8.608974 22.157686 8.717949 22.196816 8.826923 22.235911 8.935897 22.274971 9.044872 22.313994 9.153846 22.352980 9.262821 22.391929 9.371795 22.430840 9.480769 22.469711 9.589744 22.508543 9.698718 22.547334 9.807692 22.586084 9.916667 22.624792 10.025641 22.663458 10.134615 22.702081 10.243590 22.740660 10.352564 22.779194 10.461538 22.817683 10.570513 22.856125 10.679487 22.894522 10.788462 22.932870 10.897436 22.971171 11.006410 23.009423 11.115385 23.047626 11.224359 23.085778 11.333333 23.123879 11.442308 23.161929 11.551282 23.199927 11.660256 23.237871 11.769231 23.275762 11.878205 23.313599 11.987179 23.351381 12.096154 23.389107 12.205128 23.426776 12.314103 23.464388 12.423077 23.501943 12.532051 23.539439 12.641026 23.576875 12.750000 23.614252 12.858974 23.651568 12.967949 23.688823 13.076923 23.726016 13.185897 23.763146 13.294872 23.800213 13.403846 23.837215 13.512821 23.874153 13.621795 23.911025 13.730769 23.947831 13.839744 23.984571 13.948718 24.021242 14.057692 24.057845 14.166667 24.094380 14.275641 24.130844 14.384615 24.167239 14.493590 24.203562 14.602564 24.239813 14.711538 24.275992 14.820513 24.312098 14.929487 24.348130 15.038462 24.384087 15.147436 24.419970 15.256410 24.455776 15.365385 24.491505 15.474359 24.527157 15.583333 24.562732 15.692308 24.598227 15.801282 24.633643 15.910256 24.668979 16.019231 24.704234 16.128205 24.739407 16.237179 24.774499 16.346154 24.809507 16.455128 24.844432 16.564103 24.879272 16.673077 24.914028 16.782051 24.948697 16.891026 24.983281 17.000000 25.017777 17.108974 25.052185 17.217949 25.086505 17.326923 25.120736 17.435897 25.154877 17.544872 25.188927 17.653846 25.222886 17.762821 25.256753 17.871795 25.290527 17.980769 25.324208 18.089744 25.357795 18.198718 25.391287 18.307692 25.424684 18.416667 25.457984 18.525641 25.491188 18.634615 25.524294 18.743590 25.557302 18.852564 25.590211 18.961538 25.623020 19.070513 25.655729 19.179487 25.688337 19.288462 25.720843 19.397436 25.753247 19.506410 25.785547 19.615385 25.817744 19.724359 25.849836 19.833333 25.881823 19.942308 25.913704 20.051282 25.945479 20.160256 25.977146 20.269231 26.008705 20.378205 26.040156 20.487179 26.071497 20.596154 26.102728 20.705128 26.133848 20.814103 26.164857 20.923077 26.195753 21.032051 26.226537 21.141026 26.257207 21.250000 26.287763 21.358974 26.318204 21.467949 26.348529 21.576923 26.378738 21.685897 26.408830 21.794872 26.438804 21.903846 26.468659 22.012821 26.498396 22.121795 26.528012 22.230769 26.557508 22.339744 26.586883 22.448718 26.616136 22.557692 26.645266 22.666667 26.674273 22.775641 26.703155 22.884615 26.731913 22.993590 26.760546 23.102564 26.789053 23.211538 26.817432 23.320513 26.845685 23.429487 26.873809 23.538462 26.901804 23.647436 26.929669 23.756410 26.957404 23.865385 26.985009 23.974359 27.012481 24.083333 27.039821 24.192308 27.067028 24.301282 27.094101 24.410256 27.121040 24.519231 27.147844 24.628205 27.174511 24.737179 27.201042 24.846154 27.227436 24.955128 27.253692 25.064103 27.279809 25.173077 27.305787 25.282051 27.331625 25.391026 27.357322 25.500000 27.382878 25.608974 27.408291 25.717949 27.433562 25.826923 27.458689 25.935897 27.483672 26.044872 27.508510 26.153846 27.533202 26.262821 27.557748 26.371795 27.582147 26.480769 27.606398 26.589744 27.630501 26.698718 27.654454 26.807692 27.678258 26.916667 27.701912 27.025641 27.725414 27.134615 27.748764 27.243590 27.771962 27.352564 27.795006 27.461538 27.817896 27.570513 27.840632 27.679487 27.863212 27.788462 27.885636 27.897436 27.907904 28.006410 27.930014 28.115385 27.951966 28.224359 27.973758 28.333333 27.995392 28.442308 28.016865 28.551282 28.038177 28.660256 28.059327 28.769231 28.080315 28.878205 28.101141 28.987179 28.121802 29.096154 28.142299 29.205128 28.162630 29.314103 28.182796 29.423077 28.202796 29.532051 28.222628 29.641026 28.242292 29.750000 28.261787 29.858974 28.281114 29.967949 28.300270 30.076923 28.319255 30.185897 28.338069 30.294872 28.356711 30.403846 28.375181 30.512821 28.393476 30.621795 28.411598 30.730769 28.429546 30.839744 28.447320 30.948718 28.464921 31.057692 28.482349 31.166667 28.499605 31.275641 28.516689 31.384615 28.533601 31.493590 28.550341 31.602564 28.566910 31.711538 28.583309 31.820513 28.599537 31.929487 28.615595 32.038462 28.631483 32.147436 28.647202 32.256410 28.662752 32.365385 28.678133 32.474359 28.693345 32.583333 28.708390 32.692308 28.723267 32.801282 28.737976 32.910256 28.752519 33.019231 28.766895 33.128205 28.781104 33.237179 28.795148 33.346154 28.809026 33.455128 28.822738 33.564103 28.836286 33.673077 28.849669 33.782051 28.862888 33.891026 28.875943 34.000000 28.888834 34.108974 28.901562 34.217949 28.914127 34.326923 28.926530 34.435897 28.938770 34.544872 28.950849 34.653846 28.962766 34.762821 28.974521 34.871795 28.986116 34.980769 28.997551 35.089744 29.008825 35.198718 29.019939 35.307692 29.030894 35.416667 29.041690 35.525641 29.052327 35.634615 29.062806 35.743590 29.073126 35.852564 29.083289 35.961538 29.093294 36.070513 29.103142 36.179487 29.112834 36.288462 29.122369 36.397436 29.131748 36.506410 29.140971 36.615385 29.150039 36.724359 29.158952 36.833333 29.167710 36.942308 29.176314 37.051282 29.184764 37.160256 29.193060 37.269231 29.201203 37.378205 29.209193 37.487179 29.217030 37.596154 29.224715 37.705128 29.232248 37.814103 29.239630 37.923077 29.246860 38.032051 29.253939 38.141026 29.260868 38.250000 29.267646 38.358974 29.274275 38.467949 29.280754 38.576923 29.287084 38.685897 29.293265 38.794872 29.299297 38.903846 29.305181 39.012821 29.310918 39.121795 29.316506 39.230769 29.321948 39.339744 29.327243 39.448718 29.332392 39.557692 29.337394 39.666667 29.342251 39.775641 29.346962 39.884615 29.351528 39.993590 29.355949 40.102564 29.360226 40.211538 29.364359 40.320513 29.368348 40.429487 29.372193 40.538462 29.375896 40.647436 29.379456 40.756410 29.382873 40.865385 29.386149 40.974359 29.389283 41.083333 29.392275 41.192308 29.395127 41.301282 29.397838 41.410256 29.400408 41.519231 29.402839 41.628205 29.405130 41.737179 29.407282 41.846154 29.409295 41.955128 29.411169 42.064103 29.412905 42.173077 29.414503 42.282051 29.415963 42.391026 29.417286 42.500000 29.418473 42.608974 29.419523 42.717949 29.420436 42.826923 29.421214 42.935897 29.421856 43.044872 29.422363 43.153846 29.422736 43.262821 29.422973 43.371795 29.423077 43.480769 29.423047 43.589744 29.422883 43.698718 29.422586 43.807692 29.422157 43.916667 29.421595 44.025641 29.420901 44.134615 29.420075 44.243590 29.419118 44.352564 29.418030 44.461538 29.416811 44.570513 29.415461 44.679487 29.413982 44.788462 29.412373 44.897436 29.410634 45.006410 29.408767 45.115385 29.406771 45.224359 29.404646 45.333333 29.402394 45.442308 29.400014 45.551282 29.397506 45.660256 29.394872 45.769231 29.392111 45.878205 29.389224 45.987179 29.386211 46.096154 29.383072 46.205128 29.379808 46.314103 29.376419 46.423077 29.372906 46.532051 29.369268 46.641026 29.365507 46.750000 29.361622 46.858974 29.357614 46.967949 29.353483 47.076923 29.349229 47.185897 29.344853 47.294872 29.340356 47.403846 29.335737 47.512821 29.330997 47.621795 29.326136 47.730769 29.321154 47.839744 29.316053 47.948718 29.310832 48.057692 29.305491 48.166667 29.300031 48.275641 29.294453 48.384615 29.288756 48.493590 29.282941 48.602564 29.277008 48.711538 29.270958 48.820513 29.264791 48.929487 29.258507 49.038462 29.252107 49.147436 29.245591 49.256410 29.238960 49.365385 29.232213 49.474359 29.225351 49.583333 29.218374 49.692308 29.211283 49.801282 29.204078 49.910256 29.196760 50.019231 29.189328 50.128205 29.181783 50.237179 29.174126 50.346154 29.166357 50.455128 29.158475 50.564103 29.150482 50.673077 29.142378 50.782051 29.134163 50.891026 29.125838 51.000000 29.117402 51.108974 29.108857 51.217949 29.100202 51.326923 29.091438 51.435897 29.082565 51.544872 29.073583 51.653846 29.064494 51.762821 29.055296 51.871795 29.045991 51.980769 29.036580 52.089744 29.027061 52.198718 29.017436 52.307692 29.007705 52.416667 28.997868 52.525641 28.987926 52.634615 28.977879 52.743590 28.967727 52.852564 28.957470 52.961538 28.947110 53.070513 28.936646 53.179487 28.926079 53.288462 28.915408 53.397436 28.904635 53.506410 28.893760 53.615385 28.882783 53.724359 28.871704 53.833333 28.860524 53.942308 28.849243 54.051282 28.837861 54.160256 28.826379 54.269231 28.814797 54.378205 28.803116 54.487179 28.791335 54.596154 28.779456 54.705128 28.767478 54.814103 28.755402 54.923077 28.743227 55.032051 28.730956 55.141026 28.718587 55.250000 28.706122 55.358974 28.693559 55.467949 28.680901 55.576923 28.668147 55.685897 28.655298 55.794872 28.642353 55.903846 28.629314 56.012821 28.616180 56.121795 28.602952 56.230769 28.589631 56.339744 28.576216 56.448718 28.562707 56.557692 28.549107 56.666667 28.535413 56.775641 28.521628 56.884615 28.507751 56.993590 28.493783 57.102564 28.479724 57.211538 28.465574 57.320513 28.451334 57.429487 28.437003 57.538462 28.422584 57.647436 28.408074 57.756410 28.393476 57.865385 28.378789 57.974359 28.364013 58.083333 28.349147 58.192308 28.334190 58.301282 28.319142 58.410256 28.304002 58.519231 28.288770 58.628205 28.273444 58.737179 28.258024 58.846154 28.242509 58.955128 28.226899 59.064103 28.211193 59.173077 28.195390 59.282051 28.179490 59.391026 28.163492 59.500000 28.147396 59.608974 28.131199 59.717949 28.114903 59.826923 28.098506 59.935897 28.082008 60.044872 28.065408 60.153846 28.048705 60.262821 28.031898 60.371795 28.014988 60.480769 27.997972 60.589744 27.980852 60.698718 27.963625 60.807692 27.946291 60.916667 27.928850 61.025641 27.911301 61.134615 27.893643 61.243590 27.875875 61.352564 27.857998 61.461538 27.840010 61.570513 27.821910 61.679487 27.803698 61.788462 27.785373 61.897436 27.766935 62.006410 27.748382 62.115385 27.729715 62.224359 27.710932 62.333333 27.692033 62.442308 27.673017 62.551282 27.653884 62.660256 27.634632 62.769231 27.615261 62.878205 27.595771 62.987179 27.576161 63.096154 27.556430 63.205128 27.536577 63.314103 27.516602 63.423077 27.496504 63.532051 27.476283 63.641026 27.455937 63.750000 27.435466 63.858974 27.414870 63.967949 27.394147 64.076923 27.373298 64.185897 27.352321 64.294872 27.331215 64.403846 27.309981 64.512821 27.288617 64.621795 27.267123 64.730769 27.245497 64.839744 27.223740 64.948718 27.201851 65.057692 27.179828 65.166667 27.157672 65.275641 27.135382 65.384615 27.112957 65.493590 27.090396 65.602564 27.067698 65.711538 27.044864 65.820513 27.021892 65.929487 26.998781 66.038462 26.975531 66.147436 26.952142 66.256410 26.928612 66.365385 26.904941 66.474359 26.881129 66.583333 26.857174 66.692308 26.833076 66.801282 26.808834 66.910256 26.784447 67.019231 26.759916 67.128205 26.735239 67.237179 26.710415 67.346154 26.685444 67.455128 26.660326 67.564103 26.635059 67.673077 26.609642 67.782051 26.584076 67.891026 26.558360 68.000000 26.532492 68.108974 26.506473 68.217949 26.480301 68.326923 26.453975 68.435897 26.427496 68.544872 26.400863 68.653846 26.374074 68.762821 26.347129 68.871795 26.320028 68.980769 26.292770 69.089744 26.265353 69.198718 26.237778 69.307692 26.210044 69.416667 26.182150 69.525641 26.154096 69.634615 26.125880 69.743590 26.097502 69.852564 26.068962 69.961538 26.040258 70.070513 26.011390 70.179487 25.982358 70.288462 25.953161 70.397436 25.923797 70.506410 25.894267 70.615385 25.864569 70.724359 25.834704 70.833333 25.804670 70.942308 25.774467 71.051282 25.744093 71.160256 25.713549 71.269231 25.682834 71.378205 25.651946 71.487179 25.620886 71.596154 25.589653 71.705128 25.558245 71.814103 25.526663 71.923077 25.494905 72.032051 25.462972 72.141026 25.430861 72.250000 25.398574 72.358974 25.366108 72.467949 25.333463 72.576923 25.300639 72.685897 25.267635 72.794872 25.234450 72.903846 25.201084 73.012821 25.167536 73.121795 25.133805 73.230769 25.099890 73.339744 25.065791 73.448718 25.031508 73.557692 24.997039 73.666667 24.962384 73.775641 24.927542 73.884615 24.892512 73.993590 24.857295 74.102564 24.821888 74.211538 24.786292 74.320513 24.750506 74.429487 24.714529 74.538462 24.678361 74.647436 24.642000 74.756410 24.605446 74.865385 24.568699 74.974359 24.531758 75.083333 24.494622 75.192308 24.457290 75.301282 24.419762 75.410256 24.382037 75.519231 24.344115 75.628205 24.305994 75.737179 24.267675 75.846154 24.229155 75.955128 24.190436 76.064103 24.151515 76.173077 24.112393 76.282051 24.073069 76.391026 24.033542 76.500000 23.993811 76.608974 23.953876 76.717949 23.913735 76.826923 23.873390 76.935897 23.832837 77.044872 23.792078 77.153846 23.751112 77.262821 23.709936 77.371795 23.668552 77.480769 23.626958 77.589744 23.585154 77.698718 23.543139 77.807692 23.500912 77.916667 23.458473 78.025641 23.415820 78.134615 23.372954 78.243590 23.329874 78.352564 23.286578 78.461538 23.243067 78.570513 23.199339 78.679487 23.155395 78.788462 23.111232 78.897436 23.066851 79.006410 23.022251 79.115385 22.977431 79.224359 22.932391 79.333333 22.887130 79.442308 22.841646 79.551282 22.795941 79.660256 22.750012 79.769231 22.703859 79.878205 22.657482 79.987179 22.610880 80.096154 22.564052 80.205128 22.516998 80.314103 22.469716 80.423077 22.422206 80.532051 22.374468 80.641026 22.326501 80.750000 22.278304 80.858974 22.229876 80.967949 22.181217 81.076923 22.132327 81.185897 22.083203 81.294872 22.033847 81.403846 21.984256 81.512821 21.934431 81.621795 21.884371 81.730769 21.834075 81.839744 21.783542 81.948718 21.732772 82.057692 21.681764 82.166667 21.630518 82.275641 21.579032 82.384615 21.527306 82.493590 21.475340 82.602564 21.423132 82.711538 21.370682 82.820513 21.317990 82.929487 21.265054 83.038462 21.211875 83.147436 21.158451 83.256410 21.104781 83.365385 21.050865 83.474359 20.996703 83.583333 20.942293 83.692308 20.887636 83.801282 20.832729 83.910256 20.777574 84.019231 20.722168 84.128205 20.666511 84.237179 20.610604 84.346154 20.554444 84.455128 20.498031 84.564103 20.441365 84.673077 20.384445 84.782051 20.327270 84.891026 20.269840 85.000000 20.212153 85.108974 20.154210 85.217949 20.096013 85.326923 20.037564 85.435897 19.978865 85.544872 19.919919 85.653846 19.860728 85.762821 19.801294 85.871795 19.741619 85.980769 19.681707 86.089744 19.621559 86.198718 19.561178 86.307692 19.500566 86.416667 19.439725 86.525641 19.378658 86.634615 19.317367 86.743590 19.255855 86.852564 19.194123 86.961538 19.132175 87.070513 19.070012 87.179487 19.007637 87.288462 18.945052 87.397436 18.882259 87.506410 18.819262 87.615385 18.756062 87.724359 18.692661 87.833333 18.629062 87.942308 18.565268 88.051282 18.501280 88.160256 18.437101 88.269231 18.372734 88.378205 18.308180 88.487179 18.243442 88.596154 18.178523 88.705128 18.113424 88.814103 18.048149 88.923077 17.982698 89.032051 17.917076 89.141026 17.851284 89.250000 17.785324 89.358974 17.719199 89.467949 17.652911 89.576923 17.586462 89.685897 17.519856 89.794872 17.453094 89.903846 17.386178 90.012821 17.319111 90.121795 17.251895 90.230769 17.184533 90.339744 17.117027 90.448718 17.049379 90.557692 16.981592 90.666667 16.913668 90.775641 16.845609 90.884615 16.777418 90.993590 16.709097 91.102564 16.640648 91.211538 16.572074 91.320513 16.503377 91.429487 16.434560 91.538462 16.365624 91.647436 16.296573 91.756410 16.227407 91.865385 16.158131 91.974359 16.088746 92.083333 16.019254 92.192308 15.949659 92.301282 15.879961 92.410256 15.810164 92.519231 15.740270 92.628205 15.670281 92.737179 15.600200 92.846154 15.530029 92.955128 15.459770 93.064103 15.389425 93.173077 15.318998 93.282051 15.248490 93.391026 15.177904 93.500000 15.107242 93.608974 15.036506 93.717949 14.965699 93.826923 14.894823 93.935897 14.823880 94.044872 14.752873 94.153846 14.681804 94.262821 14.610676 94.371795 14.539491 94.480769 14.468251 94.589744 14.396958 94.698718 14.325615 94.807692 14.254225 94.916667 14.182789 95.025641 14.111309 95.134615 14.039790 95.243590 13.968231 95.352564 13.896637 95.461538 13.825009 95.570513 13.753350 95.679487 13.681661 95.788462 13.609946 95.897436 13.538207 96.006410 13.466446 96.115385 13.394665 96.224359 13.322867 96.333333 13.251054 96.442308 13.179229 96.551282 13.107393 96.660256 13.035549 96.769231 12.963700 96.878205 12.891848 96.987179 12.819995 97.096154 12.748143 97.205128 12.676296 97.314103 12.604454 97.423077 12.532621 97.532051 12.460799 97.641026 12.388991 97.750000 12.317197 97.858974 12.245422 97.967949 12.173668 98.076923 12.101935 98.185897 12.030228 98.294872 11.958549 98.403846 11.886898 98.512821 11.815280 98.621795 11.743697 98.730769 11.672150 98.839744 11.600642 98.948718 11.529176 99.057692 11.457754 99.166667 11.386377 99.275641 11.315049 99.384615 11.243772 99.493590 11.172549 99.602564 11.101380 99.711538 11.030270 99.820513 10.959220 99.929487 10.888232 100.038462 10.817310 100.147436 10.746454 100.256410 10.675668 100.365385 10.604955 100.474359 10.534315 100.583333 10.463753 100.692308 10.393269 100.801282 10.322866 100.910256 10.252548 101.019231 10.182315 101.128205 10.112171 101.237179 10.042118 101.346154 9.972157 101.455128 9.902292 101.564103 9.832525 101.673077 9.762858 101.782051 9.693294 101.891026 9.623835 102.000000 9.554482 102.108974 9.485239 102.217949 9.416108 102.326923 9.347092 102.435897 9.278192 102.544872 9.209411 102.653846 9.140751 102.762821 9.072215 102.871795 9.003804 102.980769 8.935522 103.089744 8.867371 103.198718 8.799353 103.307692 8.731470 103.416667 8.663725 103.525641 8.596120 103.634615 8.528658 103.743590 8.461340 103.852564 8.394169 103.961538 8.327148 104.070513 8.260278 104.179487 8.193563 104.288462 8.127004 104.397436 8.060604 104.506410 7.994366 104.615385 7.928291 104.724359 7.862381 104.833333 7.796640 104.942308 7.731070 105.051282 7.665672 105.160256 7.600450 105.269231 7.535406 105.378205 7.470541 105.487179 7.405859 105.596154 7.341362 105.705128 7.277051 105.814103 7.212930 105.923077 7.149001 106.032051 7.085265 106.141026 7.021727 106.250000 6.958387 106.358974 6.895248 106.467949 6.832312 106.576923 6.769583 106.685897 6.707061 106.794872 6.644750 106.903846 6.582652 107.012821 6.520769 107.121795 6.459104 107.230769 6.397658 107.339744 6.336435 107.448718 6.275437 107.557692 6.214665 107.666667 6.154123 107.775641 6.093812 107.884615 6.033736 107.993590 5.973895 108.102564 5.914294 108.211538 5.854933 108.320513 5.795816 108.429487 5.736945 108.538462 5.678321 108.647436 5.619949 108.756410 5.561828 108.865385 5.503963 108.974359 5.446356 109.083333 5.389008 109.192308 5.331923 109.301282 5.275102 109.410256 5.218548 109.519231 5.162263 109.628205 5.106250 109.737179 5.050510 109.846154 4.995047 109.955128 4.939863 110.064103 4.884959 110.173077 4.830339 110.282051 4.776004 110.391026 4.721958 110.500000 4.668202 110.608974 4.614738 110.717949 4.561570 110.826923 4.508699 110.935897 4.456127 111.044872 4.403858 111.153846 4.351893 111.262821 4.300235 111.371795 4.248886 111.480769 4.197849 111.589744 4.147126 111.698718 4.096718 111.807692 4.046630 111.916667 3.996862 112.025641 3.947417 112.134615 3.898298 112.243590 3.849507 112.352564 3.801046 112.461538 3.752915 112.570513 3.705117 112.679487 3.657651 112.788462 3.610518 112.897436 3.563718 113.006410 3.517254 113.115385 3.471124 113.224359 3.425331 113.333333 3.379874 113.442308 3.334754 113.551282 3.289972 113.660256 3.245529 113.769231 3.201426 113.878205 3.157663 113.987179 3.114240 114.096154 3.071159 114.205128 3.028420 114.314103 2.986025 114.423077 2.943973 114.532051 2.902265 114.641026 2.860902 114.750000 2.819886 114.858974 2.779215 114.967949 2.738892 115.076923 2.698917 115.185897 2.659290 115.294872 2.620013 115.403846 2.581085 115.512821 2.542509 115.621795 2.504284 115.730769 2.466411 115.839744 2.428890 115.948718 2.391724 116.057692 2.354911 116.166667 2.318454 116.275641 2.282352 116.384615 2.246606 116.493590 2.211218 116.602564 2.176187 116.711538 2.141515 116.820513 2.107202 116.929487 2.073248 117.038462 2.039656 117.147436 2.006424 117.256410 1.973555 117.365385 1.941049 117.474359 1.908905 117.583333 1.877126 117.692308 1.845712 117.801282 1.814663 117.910256 1.783980 118.019231 1.753665 118.128205 1.723717 118.237179 1.694137 118.346154 1.664926 118.455128 1.636086 118.564103 1.607615 118.673077 1.579516 118.782051 1.551788 118.891026 1.524433 119.000000 1.497452 119.108974 1.470844 119.217949 1.444611 119.326923 1.418754 119.435897 1.393272 119.544872 1.368168 119.653846 1.343440 119.762821 1.319091 119.871795 1.295121 119.980769 1.271531 120.089744 1.248321 120.198718 1.225492 120.307692 1.203044 120.416667 1.180979 120.525641 1.159298 120.634615 1.138000 120.743590 1.117086 120.852564 1.096558 120.961538 1.076416 121.070513 1.056660 121.179487 1.037292 121.288462 1.018312 121.397436 0.999721 121.506410 0.981519 121.615385 0.963707 121.724359 0.946286 121.833333 0.929257 121.942308 0.912620 122.051282 0.896376 122.160256 0.880526 122.269231 0.865070 122.378205 0.850010 122.487179 0.835345 122.596154 0.821077 122.705128 0.807206 122.814103 0.793732 122.923077 0.780658 123.032051 0.767983 123.141026 0.755708 123.250000 0.743834 123.358974 0.732361 123.467949 0.721290 123.576923 0.710622 123.685897 0.700358 123.794872 0.690498 123.903846 0.681043 124.012821 0.671994 124.121795 0.663351 124.230769 0.655115 124.339744 0.647287 124.448718 0.639868 124.557692 0.632858 124.666667 0.626257 124.775641 0.620068 124.884615 0.614289 124.993590 0.608923 125.102564 0.603970 125.211538 0.599430 125.320513 0.595304 125.429487 0.591592 125.538462 0.588297 125.647436 0.585418 125.756410 0.582955 125.865385 0.580911 125.974359 0.579284 126.083333 0.578077 126.192308 0.577290 126.301282 0.576923 126.410256 0.576977 126.519231 0.577454 126.628205 0.578352 126.737179 0.579675 126.846154 0.581421 126.955128 0.583592 127.064103 0.586188 127.173077 0.589210 127.282051 0.592660 127.391026 0.596537 127.500000 0.600842 127.608974 0.605576 127.717949 0.610739 127.826923 0.616333 127.935897 0.622359 128.044872 0.628816 128.153846 0.635705 128.262821 0.643027 128.371795 0.650784 128.480769 0.658975 128.589744 0.667601 128.698718 0.676664 128.807692 0.686163 128.916667 0.696099 129.025641 0.706474 129.134615 0.717287 129.243590 0.728540 129.352564 0.740233 129.461538 0.752367 129.570513 0.764943 129.679487 0.777961 129.788462 0.791422 129.897436 0.805327 130.006410 0.819676 130.115385 0.834471 130.224359 0.849711 130.333333 0.865398 130.442308 0.881532 130.551282 0.898115 130.660256 0.915146 130.769231 0.932626 130.878205 0.950556 130.987179 0.968937 131.096154 0.987770 131.205128 1.007055 131.314103 1.026793 131.423077 1.046984 131.532051 1.067630 131.641026 1.088731 131.750000 1.110287 131.858974 1.132300 131.967949 1.154771 132.076923 1.177699 132.185897 1.201085 132.294872 1.224931 132.403846 1.249237 132.512821 1.274003 132.621795 1.299231 132.730769 1.324921 132.839744 1.351074 132.948718 1.377690 133.057692 1.404770 133.166667 1.432315 133.275641 1.460326 133.384615 1.488804 133.493590 1.517748 133.602564 1.547160 133.711538 1.577040 133.820513 1.607390 133.929487 1.638209 134.038462 1.669499 134.147436 1.701260 134.256410 1.733493 134.365385 1.766199 134.474359 1.799378 134.583333 1.833031 134.692308 1.867159 134.801282 1.901762 134.910256 1.936842 135.019231 1.972398 135.128205 2.008432 135.237179 2.044944 135.346154 2.081936 135.455128 2.119407 135.564103 2.157358 135.673077 2.195791 135.782051 2.234705 135.891026 2.274102 136.000000 2.313982 136.108974 2.354346 136.217949 2.395195 136.326923 2.436529 136.435897 2.478349 136.544872 2.520656 136.653846 2.563450 136.762821 2.606732 136.871795 2.650504 136.980769 2.694764 137.089744 2.739515 137.198718 2.784758 137.307692 2.830491 137.416667 2.876718 137.525641 2.923437 137.634615 2.970650 137.743590 3.018358 137.852564 3.066560 137.961538 3.115259 138.070513 3.164454 138.179487 3.214147 138.288462 3.264338 138.397436 3.315027 138.506410 3.366216 138.615385 3.417905 138.724359 3.470095 138.833333 3.522786 138.942308 3.575980 139.051282 3.629676 139.160256 3.683877 139.269231 3.738581 139.378205 3.793791 139.487179 3.849507 139.596154 3.905728 139.705128 3.962454 139.814103 4.019683 139.923077 4.077412 140.032051 4.135639 140.141026 4.194362 140.250000 4.253580 140.358974 4.313291 140.467949 4.373491 140.576923 4.434180 140.685897 4.495355 140.794872 4.557014 140.903846 4.619155 141.012821 4.681777 141.121795 4.744876 141.230769 4.808452 141.339744 4.872502 141.448718 4.937024 141.557692 5.002016 141.666667 5.067476 141.775641 5.133401 141.884615 5.199791 141.993590 5.266643 142.102564 5.333955 142.211538 5.401724 142.320513 5.469949 142.429487 5.538628 142.538462 5.607759 142.647436 5.677340 142.756410 5.747368 142.865385 5.817842 142.974359 5.888760 143.083333 5.960120 143.192308 6.031919 143.301282 6.104155 143.410256 6.176827 143.519231 6.249933 143.628205 6.323471 143.737179 6.397437 143.846154 6.471832 143.955128 6.546651 144.064103 6.621895 144.173077 6.697559 144.282051 6.773643 144.391026 6.850144 144.500000 6.927061 144.608974 7.004391 144.717949 7.082132 144.826923 7.160282 144.935897 7.238840 145.044872 7.317803 145.153846 7.397169 145.262821 7.476936 145.371795 7.557102 145.480769 7.637665 145.589744 7.718624 145.698718 7.799975 145.807692 7.881718 145.916667 7.963849 146.025641 8.046367 146.134615 8.129271 146.243590 8.212557 146.352564 8.296224 146.461538 8.380270 146.570513 8.464693 146.679487 8.549490 146.788462 8.634660 146.897436 8.720201 147.006410 8.806111 147.115385 8.892388 147.224359 8.979029 147.333333 9.066033 147.442308 9.153397 147.551282 9.241120 147.660256 9.329200 147.769231 9.417634 147.878205 9.506420 147.987179 9.595557 148.096154 9.685043 148.205128 9.774875 148.314103 9.865051 148.423077 9.955570 148.532051 10.046429 148.641026 10.137627 148.750000 10.229161 148.858974 10.321029 148.967949 10.413229 149.076923 10.505760 149.185897 10.598619 149.294872 10.691804 149.403846 10.785313 149.512821 10.879144 149.621795 10.973295 149.730769 11.067765 149.839744 11.162550 149.948718 11.257650 150.057692 11.353061 150.166667 11.448782 150.275641 11.544812 150.384615 11.641147 150.493590 11.737786 150.602564 11.834727 150.711538 11.931968 150.820513 12.029507 150.929487 12.127342 151.038462 12.225470 151.147436 12.323890 151.256410 12.422600 151.365385 12.521597 151.474359 12.620880 151.583333 12.720447 151.692308 12.820295 151.801282 12.920423 151.910256 13.020828 152.019231 13.121509 152.128205 13.222464 152.237179 13.323690 152.346154 13.425185 152.455128 13.526948 152.564103 13.628976 152.673077 13.731268 152.782051 13.833821 152.891026 13.936633 153.000000 14.039702 153.108974 14.143027 153.217949 14.246605 153.326923 14.350435 153.435897 14.454513 153.544872 14.558839 153.653846 14.663410 153.762821 14.768223 153.871795 14.873278 153.980769 14.978572 154.089744 15.084104 154.198718 15.189870 154.307692 15.295869 154.416667 15.402099 154.525641 15.508558 154.634615 15.615244 154.743590 15.722154 154.852564 15.829288 154.961538 15.936642 155.070513 16.044216 155.179487 16.152006 155.288462 16.260010 155.397436 16.368228 155.506410 16.476656 155.615385 16.585293 155.724359 16.694136 155.833333 16.803185 155.942308 16.912435 156.051282 17.021887 156.160256 17.131536 156.269231 17.241383 156.378205 17.351424 156.487179 17.461657 156.596154 17.572081 156.705128 17.682693 156.814103 17.793491 156.923077 17.904474 157.032051 18.015639 157.141026 18.126985 157.250000 18.238509 157.358974 18.350209 157.467949 18.462083 157.576923 18.574130 157.685897 18.686346 157.794872 18.798731 157.903846 18.911282 158.012821 19.023997 158.121795 19.136875 158.230769 19.249912 158.339744 19.363107 158.448718 19.476458 158.557692 19.589963 158.666667 19.703621 158.775641 19.817428 158.884615 19.931383 158.993590 20.045484 159.102564 20.159728 159.211538 20.274115 159.320513 20.388641 159.429487 20.503305 159.538462 20.618105 159.647436 20.733038 159.756410 20.848103 159.865385 20.963298 159.974359 21.078621 160.083333 21.194069 160.192308 21.309641 160.301282 21.425334 160.410256 21.541147 160.519231 21.657077 160.628205 21.773123 160.737179 21.889282 160.846154 22.005552 160.955128 22.121932 161.064103 22.238420 161.173077 22.355013 161.282051 22.471709 161.391026 22.588506 161.500000 22.705403 161.608974 22.822397 161.717949 22.939486 161.826923 23.056668 161.935897 23.173941 162.044872 23.291304 162.153846 23.408754 162.262821 23.526289 162.371795 23.643907 162.480769 23.761605 162.589744 23.879383 162.698718 23.997238 162.807692 24.115168 162.916667 24.233171 163.025641 24.351245 163.134615 24.469387 163.243590 24.587597 163.352564 24.705871 163.461538 24.824208 163.570513 24.942606 163.679487 25.061063 163.788462 25.179576 163.897436 25.298144 164.006410 25.416765 164.115385 25.535436 164.224359 25.654156 164.333333 25.772923 164.442308 25.891734 164.551282 26.010588 164.660256 26.129482 164.769231 26.248415 164.878205 26.367384 164.987179 26.486387 165.096154 26.605423 165.205128 26.724490 165.314103 26.843585 165.423077 26.962706 165.532051 27.081851 165.641026 27.201019 165.750000 27.320207 165.858974 27.439413 165.967949 27.558636 166.076923 27.677872 166.185897 27.797121 166.294872 27.916380 166.403846 28.035647 166.512821 28.154920 166.621795 28.274197 166.730769 28.393476" class="line reactive nofill" /></g></g><g class="titles" /><g transform="translate(20, 10)" class="plot overlay"><g class="series serie-0 color-0" /></g><g transform="translate(20, 10)" class="plot text-overlay"><g class="series serie-0 color-0" /></g><g transform="translate(20, 10)" class="plot tooltip-overlay"><g transform="translate(0 0)" style="opacity: 0" class="tooltip"><rect rx="0" ry="0" width="0" height="0" class="tooltip-box" /><g class="text" /></g></g></g></svg>