<?xml version='1.0' encoding='utf-8'?>
<svg xmlns="http://www.w3.org/2000/svg" id="chart-7c649276-4809-418f-941b-34f6af74d9fc" class="pygal-chart pygal-sparkline" viewBox="0 0 200 50" width="200" height="50"><!--Generated with pygal 3.0.5 (etree) ©Kozea 2012-2016 on 2024-12-08--><!--http://pygal.org--><!--http://github.com/Kozea/pygal--><defs><style type="text/css">#chart-7c649276-4809-418f-941b-34f6af74d9fc{-webkit-user-select:none;-webkit-font-smoothing:antialiased;font-family:Consolas,"Liberation Mono",Menlo,Courier,monospace}#chart-7c649276-4809-418f-941b-34f6af74d9fc .title{font-family:Consolas,"Liberation Mono",Menlo,Courier,monospace;font-size:16px}#chart-7c649276-4809-418f-941b-34f6af74d9fc .legends .legend text{font-family:Consolas,"Liberation Mono",Menlo,Courier,monospace;font-size:14px}#chart-7c649276-4809-418f-941b-34f6af74d9fc .axis text{font-family:Consolas,"Liberation Mono",Menlo,Courier,monospace;font-size:10px}#chart-7c649276-4809-418f-941b-34f6af74d9fc .axis text.major{font-family:Consolas,"Liberation Mono",Menlo,Courier,monospace;font-size:10px}#chart-7c649276-4809-418f-941b-34f6af74d9fc .text-overlay text.value{font-family:Consolas,"Liberation Mono",Menlo,Courier,monospace;font-size:16px}#chart-7c649276-4809-418f-941b-34f6af74d9fc .text-overlay text.label{font-family:Consolas,"Liberation Mono",Menlo,Courier,monospace;font-size:10px}#chart-7c649276-4809-418f-941b-34f6af74d9fc .tooltip{font-family:Consolas,"Liberation Mono",Menlo,Courier,monospace;font-size:14px}#chart-7c649276-4809-418f-941b-34f6af74d9fc text.no_data{font-family:Consolas,"Liberation Mono",Menlo,Courier,monospace;font-size:64px}
#chart-7c649276-4809-418f-941b-34f6af74d9fc{background-color:rgba(249,249,249,1)}#chart-7c649276-4809-418f-941b-34f6af74d9fc path,#chart-7c649276-4809-418f-941b-34f6af74d9fc line,#chart-7c649276-4809-418f-941b-34f6af74d9fc rect,#chart-7c649276-4809-418f-941b-34f6af74d9fc circle{-webkit-transition:150ms;-moz-transition:150ms;transition:150ms}#chart-7c649276-4809-418f-941b-34f6af74d9fc .graph &gt; .background{fill:rgba(249,249,249,1)}#chart-7c649276-4809-418f-941b-34f6af74d9fc .plot &gt; .background{fill:rgba(255,255,255,1)}#chart-7c649276-4809-418f-941b-34f6af74d9fc .graph{fill:rgba(0,0,0,.87)}#chart-7c649276-4809-418f-941b-34f6af74d9fc text.no_data{fill:rgba(0,0,0,1)}#chart-7c649276-4809-418f-941b-34f6af74d9fc .title{fill:rgba(0,0,0,1)}#chart-7c649276-4809-418f-941b-34f6af74d9fc .legends .legend text{fill:rgba(0,0,0,.87)}#chart-7c649276-4809-418f-941b-34f6af74d9fc .legends .legend:hover text{fill:rgba(0,0,0,1)}#chart-7c649276-4809-418f-941b-34f6af74d9fc .axis .line{stroke:rgba(0,0,0,1)}#chart-7c649276-4809-418f-941b-34f6af74d9fc .axis .guide.line{stroke:rgba(0,0,0,.54)}#chart-7c649276-4809-418f-941b-34f6af74d9fc .axis .major.line{stroke:rgba(0,0,0,.87)}#chart-7c649276-4809-418f-941b-34f6af74d9fc .axis text.major{fill:rgba(0,0,0,1)}#chart-7c649276-4809-418f-941b-34f6af74d9fc .axis.y .guides:hover .guide.line,#chart-7c649276-4809-418f-941b-34f6af74d9fc .line-graph .axis.x .guides:hover .guide.line,#chart-7c649276-4809-418f-941b-34f6af74d9fc .stackedline-graph .axis.x .guides:hover .guide.line,#chart-7c649276-4809-418f-941b-34f6af74d9fc .xy-graph .axis.x .guides:hover .guide.line{stroke:rgba(0,0,0,1)}#chart-7c649276-4809-418f-941b-34f6af74d9fc .axis .guides:hover text{fill:rgba(0,0,0,1)}#chart-7c649276-4809-418f-941b-34f6af74d9fc .reactive{fill-opacity:.7;stroke-opacity:.8;stroke-width:1}#chart-7c649276-4809-418f-941b-34f6af74d9fc .ci{stroke:rgba(0,0,0,.87)}#chart-7c649276-4809-418f-941b-34f6af74d9fc .reactive.active,#chart-7c649276-4809-418f-941b-34f6af74d9fc .active .reactive{fill-opacity:.8;stroke-opacity:.9;stroke-width:4}#chart-7c649276-4809-418f-941b-34f6af74d9fc .ci .reactive.active{stroke-width:1.5}#chart-7c649276-4809-418f-941b-34f6af74d9fc .series text{fill:rgba(0,0,0,1)}#chart-7c649276-4809-418f-941b-34f6af74d9fc .tooltip rect{fill:rgba(255,255,255,1);stroke:rgba(0,0,0,1);-webkit-transition:opacity 150ms;-moz-transition:opacity 150ms;transition:opacity 150ms}#chart-7c649276-4809-418f-941b-34f6af74d9fc .tooltip .label{fill:rgba(0,0,0,.87)}#chart-7c649276-4809-418f-941b-34f6af74d9fc .tooltip .label{fill:rgba(0,0,0,.87)}#chart-7c649276-4809-418f-941b-34f6af74d9fc .tooltip .legend{font-size:.8em;fill:rgba(0,0,0,.54)}#chart-7c649276-4809-418f-941b-34f6af74d9fc .tooltip .x_label{font-size:.6em;fill:rgba(0,0,0,1)}#chart-7c649276-4809-418f-941b-34f6af74d9fc .tooltip .xlink{font-size:.5em;text-decoration:underline}#chart-7c649276-4809-418f-941b-34f6af74d9fc .tooltip .value{font-size:1.5em}#chart-7c649276-4809-418f-941b-34f6af74d9fc .bound{font-size:.5em}#chart-7c649276-4809-418f-941b-34f6af74d9fc .max-value{font-size:.75em;fill:rgba(0,0,0,.54)}#chart-7c649276-4809-418f-941b-34f6af74d9fc .map-element{fill:rgba(255,255,255,1);stroke:rgba(0,0,0,.54) !important}#chart-7c649276-4809-418f-941b-34f6af74d9fc .map-element .reactive{fill-opacity:inherit;stroke-opacity:inherit}#chart-7c649276-4809-418f-941b-34f6af74d9fc .color-0,#chart-7c649276-4809-418f-941b-34f6af74d9fc .color-0 a:visited{stroke:#F44336;fill:#F44336}#chart-7c649276-4809-418f-941b-34f6af74d9fc .text-overlay .color-0 text{fill:black}
#chart-7c649276-4809-418f-941b-34f6af74d9fc text.no_data{text-anchor:middle}#chart-7c649276-4809-418f-941b-34f6af74d9fc .guide.line{fill:none}#chart-7c649276-4809-418f-941b-34f6af74d9fc .centered{text-anchor:middle}#chart-7c649276-4809-418f-941b-34f6af74d9fc .title{text-anchor:middle}#chart-7c649276-4809-418f-941b-34f6af74d9fc .legends .legend text{fill-opacity:1}#chart-7c649276-4809-418f-941b-34f6af74d9fc .axis.x text{text-anchor:middle}#chart-7c649276-4809-418f-941b-34f6af74d9fc .axis.x:not(.web) text[transform]{text-anchor:start}#chart-7c649276-4809-418f-941b-34f6af74d9fc .axis.x:not(.web) text[transform].backwards{text-anchor:end}#chart-7c649276-4809-418f-941b-34f6af74d9fc .axis.y text{text-anchor:end}#chart-7c649276-4809-418f-941b-34f6af74d9fc .axis.y text[transform].backwards{text-anchor:start}#chart-7c649276-4809-418f-941b-34f6af74d9fc .axis.y2 text{text-anchor:start}#chart-7c649276-4809-418f-941b-34f6af74d9fc .axis.y2 text[transform].backwards{text-anchor:end}#chart-7c649276-4809-418f-941b-34f6af74d9fc .axis .guide.line{stroke-dasharray:4,4;stroke:black}#chart-7c649276-4809-418f-941b-34f6af74d9fc .axis .major.guide.line{stroke-dasharray:6,6;stroke:black}#chart-7c649276-4809-418f-941b-34f6af74d9fc .horizontal .axis.y .guide.line,#chart-7c649276-4809-418f-941b-34f6af74d9fc .horizontal .axis.y2 .guide.line,#chart-7c649276-4809-418f-941b-34f6af74d9fc .vertical .axis.x .guide.line{opacity:0}#chart-7c649276-4809-418f-941b-34f6af74d9fc .horizontal .axis.always_show .guide.line,#chart-7c649276-4809-418f-941b-34f6af74d9fc .vertical .axis.always_show .guide.line{opacity:1 !important}#chart-7c649276-4809-418f-941b-34f6af74d9fc .axis.y .guides:hover .guide.line,#chart-7c649276-4809-418f-941b-34f6af74d9fc .axis.y2 .guides:hover .guide.line,#chart-7c649276-4809-418f-941b-34f6af74d9fc .axis.x .guides:hover .guide.line{opacity:1}#chart-7c649276-4809-418f-941b-34f6af74d9fc .axis .guides:hover text{opacity:1}#chart-7c649276-4809-418f-941b-34f6af74d9fc .nofill{fill:none}#chart-7c649276-4809-418f-941b-34f6af74d9fc .subtle-fill{fill-opacity:.2}#chart-7c649276-4809-418f-941b-34f6af74d9fc .dot{stroke-width:1px;fill-opacity:1;stroke-opacity:1}#chart-7c649276-4809-418f-941b-34f6af74d9fc .dot.active{stroke-width:5px}#chart-7c649276-4809-418f-941b-34f6af74d9fc .dot.negative{fill:transparent}#chart-7c649276-4809-418f-941b-34f6af74d9fc text,#chart-7c649276-4809-418f-941b-34f6af74d9fc tspan{stroke:none !important}#chart-7c649276-4809-418f-941b-34f6af74d9fc .series text.active{opacity:1}#chart-7c649276-4809-418f-941b-34f6af74d9fc .tooltip rect{fill-opacity:.95;stroke-width:.5}#chart-7c649276-4809-418f-941b-34f6af74d9fc .tooltip text{fill-opacity:1}#chart-7c649276-4809-418f-941b-34f6af74d9fc .showable{visibility:hidden}#chart-7c649276-4809-418f-941b-34f6af74d9fc .showable.shown{visibility:visible}#chart-7c649276-4809-418f-941b-34f6af74d9fc .gauge-background{fill:rgba(229,229,229,1);stroke:none}#chart-7c649276-4809-418f-941b-34f6af74d9fc .bg-lines{stroke:rgba(249,249,249,1);stroke-width:2px}</style><script type="text/javascript">window.pygal = window.pygal || {};window.pygal.config = window.pygal.config || {};window.pygal.config['7c649276-4809-418f-941b-34f6af74d9fc'] = {"allow_interruptions": false, "box_mode": "extremes", "classes": ["pygal-chart", "pygal-sparkline"], "css": ["file://style.css", "file://graph.css"], "defs": [], "disable_xml_declaration": false, "dots_size": 2.5, "dynamic_print_values": false, "explicit_size": true, "fill": false, "force_uri_protocol": "https", "formatter": null, "half_pie": false, "height": 50, "include_x_axis": false, "inner_radius": 0, "interpolate": "cubic", "interpolation_parameters": {}, "interpolation_precision": 250, "inverse_y_axis": false, "js": [], "legend_at_bottom": false, "legend_at_bottom_columns": null, "legend_box_size": 12, "logarithmic": false, "margin": 10, "margin_bottom": null, "margin_left": null, "margin_right": null, "margin_top": null, "max_scale": 2, "min_scale": 1, "missing_value_fill_truncation": "x", "no_data_text": "", "no_prefix": false, "order_min": null, "pretty_print": false, "print_labels": false, "print_values": false, "print_values_position": "center", "print_zeroes": true, "range": null, "rounded_bars": null, "secondary_range": null, "show_dots": false, "show_legend": false, "show_minor_x_labels": true, "show_minor_y_labels": true, "show_only_major_dots": false, "show_x_guides": false, "show_x_labels": false, "show_y_guides": true, "show_y_labels": true, "spacing": 0, "stack_from_top": false, "strict": false, "stroke": true, "stroke_style": null, "style": {"background": "rgba(249, 249, 249, 1)", "ci_colors": [], "colors": ["#F44336", "#3F51B5", "#009688", "#FFC107", "#FF5722", "#9C27B0", "#03A9F4", "#8BC34A", "#FF9800", "#E91E63", "#2196F3", "#4CAF50", "#FFEB3B", "#673AB7", "#00BCD4", "#CDDC39", "#9E9E9E", "#607D8B"], "dot_opacity": "1", "font_family": "Consolas, \"Liberation Mono\", Menlo, Courier, monospace", "foreground": "rgba(0, 0, 0, .87)", "foreground_strong": "rgba(0, 0, 0, 1)", "foreground_subtle": "rgba(0, 0, 0, .54)", "guide_stroke_color": "black", "guide_stroke_dasharray": "4,4", "label_font_family": "Consolas, \"Liberation Mono\", Menlo, Courier, monospace", "label_font_size": 10, "legend_font_family": "Consolas, \"Liberation Mono\", Menlo, Courier, monospace", "legend_font_size": 14, "major_guide_stroke_color": "black", "major_guide_stroke_dasharray": "6,6", "major_label_font_family": "Consolas, \"Liberation Mono\", Menlo, Courier, monospace", "major_label_font_size": 10, "no_data_font_family": "Consolas, \"Liberation Mono\", Menlo, Courier, monospace", "no_data_font_size": 64, "opacity": ".7", "opacity_hover": ".8", "plot_background": "rgba(255, 255, 255, 1)", "stroke_opacity": ".8", "stroke_opacity_hover": ".9", "stroke_width": "1", "stroke_width_hover": "4", "title_font_family": "Consolas, \"Liberation Mono\", Menlo, Courier, monospace", "title_font_size": 16, "tooltip_font_family": "Consolas, \"Liberation Mono\", Menlo, Courier, monospace", "tooltip_font_size": 14, "transition": "150ms", "value_background": "rgba(229, 229, 229, 1)", "value_colors": [], "value_font_family": "Consolas, \"Liberation Mono\", Menlo, Courier, monospace", "value_font_size": 16, "value_label_font_family": "Consolas, \"Liberation Mono\", Menlo, Courier, monospace", "value_label_font_size": 10}, "title": null, "tooltip_border_radius": 0, "tooltip_fancy_mode": true, "truncate_label": null, "truncate_legend": null, "width": 200, "x_label_rotation": 0, "x_labels": ["2024/12", "2024/11", "2024/10"], "x_labels_major": null, "x_labels_major_count": null, "x_labels_major_every": null, "x_title": null, "xrange": null, "y_label_rotation": 0, "y_labels": null, "y_labels_major": null, "y_labels_major_count": null, "y_labels_major_every": null, "y_title": null, "zero": 0, "legends": [""]}</script></defs><title>Pygal</title><g class="graph line-graph vertical"><rect x="0" y="0" width="200" height="50" class="background" /><g transform="translate(76, 10)" class="plot"><rect x="0" y="0" width="114.0" height="30" class="background" /><g class="axis y always_show"><path d="M0.000000 30.000000 h114.000000" class="line" /><g class="guides"><path d="M0.000000 29.423077 h114.000000" class="guide line" /><text x="-5" y="32.92307692307692" class="">3</text><title>3</title></g><g class="guides"><path d="M0.000000 0.576923 h114.000000" class="guide line" /><text x="-5" y="4.07692307692308" class="">23.00213299</text><title>23.00213299</title></g></g><g class="series serie-0 color-0"><path d="M2.192308 27.980923 L2.411538 27.815076 2.630769 27.649235 2.850000 27.483404 3.069231 27.317590 3.288462 27.151797 3.507692 26.986031 3.726923 26.820298 3.946154 26.654602 4.165385 26.488950 4.384615 26.323346 4.603846 26.157796 4.823077 25.992306 5.042308 25.826880 5.261538 25.661525 5.480769 25.496245 5.700000 25.331046 5.919231 25.165933 6.138462 25.000913 6.357692 24.835989 6.576923 24.671168 6.796154 24.506455 7.015385 24.341856 7.234615 24.177375 7.453846 24.013019 7.673077 23.848792 7.892308 23.684700 8.111538 23.520748 8.330769 23.356942 8.550000 23.193288 8.769231 23.029790 8.988462 22.866453 9.207692 22.703285 9.426923 22.540289 9.646154 22.377471 9.865385 22.214837 10.084615 22.052392 10.303846 21.890141 10.523077 21.728090 10.742308 21.566244 10.961538 21.404609 11.180769 21.243190 11.400000 21.081992 11.619231 20.921021 11.838462 20.760282 12.057692 20.599780 12.276923 20.439522 12.496154 20.279512 12.715385 20.119756 12.934615 19.960259 13.153846 19.801026 13.373077 19.642064 13.592308 19.483376 13.811538 19.324970 14.030769 19.166850 14.250000 19.009021 14.469231 18.851490 14.688462 18.694260 14.907692 18.537339 15.126923 18.380730 15.346154 18.224440 15.565385 18.068475 15.784615 17.912838 16.003846 17.757536 16.223077 17.602575 16.442308 17.447959 16.661538 17.293694 16.880769 17.139785 17.100000 16.986238 17.319231 16.833059 17.538462 16.680251 17.757692 16.527822 17.976923 16.375776 18.196154 16.224119 18.415385 16.072856 18.634615 15.921993 18.853846 15.771534 19.073077 15.621486 19.292308 15.471854 19.511538 15.322643 19.730769 15.173858 19.950000 15.025505 20.169231 14.877590 20.388462 14.730118 20.607692 14.583093 20.826923 14.436522 21.046154 14.290410 21.265385 14.144763 21.484615 13.999585 21.703846 13.854882 21.923077 13.710660 22.142308 13.566924 22.361538 13.423679 22.580769 13.280931 22.800000 13.138685 23.019231 12.996947 23.238462 12.855722 23.457692 12.715015 23.676923 12.574831 23.896154 12.435177 24.115385 12.296057 24.334615 12.157478 24.553846 12.019443 24.773077 11.881960 24.992308 11.745032 25.211538 11.608666 25.430769 11.472867 25.650000 11.337641 25.869231 11.202992 26.088462 11.068926 26.307692 10.935449 26.526923 10.802565 26.746154 10.670281 26.965385 10.538602 27.184615 10.407533 27.403846 10.277079 27.623077 10.147247 27.842308 10.018040 28.061538 9.889466 28.280769 9.761528 28.500000 9.634234 28.719231 9.507587 28.938462 9.381593 29.157692 9.256258 29.376923 9.131587 29.596154 9.007586 29.815385 8.884260 30.034615 8.761614 30.253846 8.639653 30.473077 8.518384 30.692308 8.397812 30.911538 8.277941 31.130769 8.158777 31.350000 8.040327 31.569231 7.922594 31.788462 7.805585 32.007692 7.689305 32.226923 7.573759 32.446154 7.458953 32.665385 7.344892 32.884615 7.231582 33.103846 7.119028 33.323077 7.007234 33.542308 6.896208 33.761538 6.785954 33.980769 6.676477 34.200000 6.567783 34.419231 6.459877 34.638462 6.352766 34.857692 6.246453 35.076923 6.140945 35.296154 6.036246 35.515385 5.932363 35.734615 5.829301 35.953846 5.727065 36.173077 5.625660 36.392308 5.525092 36.611538 5.425367 36.830769 5.326489 37.050000 5.228465 37.269231 5.131298 37.488462 5.034996 37.707692 4.939563 37.926923 4.845005 38.146154 4.751327 38.365385 4.658534 38.584615 4.566633 38.803846 4.475627 39.023077 4.385524 39.242308 4.296327 39.461538 4.208043 39.680769 4.120677 39.900000 4.034234 40.119231 3.948720 40.338462 3.864140 40.557692 3.780499 40.776923 3.697804 40.996154 3.616058 41.215385 3.535268 41.434615 3.455440 41.653846 3.376578 41.873077 3.298688 42.092308 3.221775 42.311538 3.145845 42.530769 3.070903 42.750000 2.996954 42.969231 2.924004 43.188462 2.852059 43.407692 2.781123 43.626923 2.711202 43.846154 2.642302 44.065385 2.574428 44.284615 2.507585 44.503846 2.441779 44.723077 2.377015 44.942308 2.313298 45.161538 2.250634 45.380769 2.189029 45.600000 2.128487 45.819231 2.069014 46.038462 2.010616 46.257692 1.953297 46.476923 1.897064 46.696154 1.841922 46.915385 1.787876 47.134615 1.734931 47.353846 1.683093 47.573077 1.632367 47.792308 1.582759 48.011538 1.534274 48.230769 1.486918 48.450000 1.440695 48.669231 1.395612 48.888462 1.351673 49.107692 1.308885 49.326923 1.267252 49.546154 1.226780 49.765385 1.187474 49.984615 1.149340 50.203846 1.112382 50.423077 1.076608 50.642308 1.042021 50.861538 1.008627 51.080769 0.976433 51.300000 0.945442 51.519231 0.915660 51.738462 0.887094 51.957692 0.859748 52.176923 0.833627 52.396154 0.808738 52.615385 0.785085 52.834615 0.762674 53.053846 0.741510 53.273077 0.721599 53.492308 0.702946 53.711538 0.685556 53.930769 0.669435 54.150000 0.654589 54.369231 0.641022 54.588462 0.628740 54.807692 0.617749 55.026923 0.608054 55.246154 0.599659 55.465385 0.592572 55.684615 0.586796 55.903846 0.582338 56.123077 0.579203 56.342308 0.577396 56.561538 0.576923 56.780769 0.577789 57.000000 0.579999 57.219231 0.583558 57.438462 0.588460 57.657692 0.594702 57.876923 0.602278 58.096154 0.611181 58.315385 0.621408 58.534615 0.632952 58.753846 0.645808 58.973077 0.659971 59.192308 0.675435 59.411538 0.692195 59.630769 0.710245 59.850000 0.729581 60.069231 0.750196 60.288462 0.772085 60.507692 0.795244 60.726923 0.819665 60.946154 0.845345 61.165385 0.872278 61.384615 0.900457 61.603846 0.929879 61.823077 0.960537 62.042308 0.992426 62.261538 1.025541 62.480769 1.059876 62.700000 1.095426 62.919231 1.132185 63.138462 1.170149 63.357692 1.209311 63.576923 1.249666 63.796154 1.291210 64.015385 1.333935 64.234615 1.377838 64.453846 1.422913 64.673077 1.469153 64.892308 1.516555 65.111538 1.565112 65.330769 1.614819 65.550000 1.665671 65.769231 1.717662 65.988462 1.770788 66.207692 1.825041 66.426923 1.880418 66.646154 1.936912 66.865385 1.994519 67.084615 2.053232 67.303846 2.113047 67.523077 2.173958 67.742308 2.235960 67.961538 2.299047 68.180769 2.363213 68.400000 2.428455 68.619231 2.494765 68.838462 2.562139 69.057692 2.630572 69.276923 2.700057 69.496154 2.770590 69.715385 2.842165 69.934615 2.914776 70.153846 2.988419 70.373077 3.063088 70.592308 3.138777 70.811538 3.215482 71.030769 3.293196 71.250000 3.371914 71.469231 3.451631 71.688462 3.532342 71.907692 3.614041 72.126923 3.696722 72.346154 3.780381 72.565385 3.865012 72.784615 3.950609 73.003846 4.037167 73.223077 4.124681 73.442308 4.213145 73.661538 4.302555 73.880769 4.392903 74.100000 4.484186 74.319231 4.576397 74.538462 4.669532 74.757692 4.763585 74.976923 4.858550 75.196154 4.954422 75.415385 5.051196 75.634615 5.148867 75.853846 5.247428 76.073077 5.346875 76.292308 5.447201 76.511538 5.548403 76.730769 5.650474 76.950000 5.753409 77.169231 5.857202 77.388462 5.961848 77.607692 6.067342 77.826923 6.173679 78.046154 6.280852 78.265385 6.388857 78.484615 6.497688 78.703846 6.607339 78.923077 6.717806 79.142308 6.829083 79.361538 6.941164 79.580769 7.054045 79.800000 7.167719 80.019231 7.282182 80.238462 7.397427 80.457692 7.513450 80.676923 7.630245 80.896154 7.747807 81.115385 7.866130 81.334615 7.985209 81.553846 8.105038 81.773077 8.225613 81.992308 8.346927 82.211538 8.468976 82.430769 8.591754 82.650000 8.715255 82.869231 8.839474 83.088462 8.964406 83.307692 9.090045 83.526923 9.216387 83.746154 9.343424 83.965385 9.471153 84.184615 9.599568 84.403846 9.728663 84.623077 9.858433 84.842308 9.988872 85.061538 10.119976 85.280769 10.251738 85.500000 10.384154 85.719231 10.517217 85.938462 10.650923 86.157692 10.785266 86.376923 10.920241 86.596154 11.055843 86.815385 11.192065 87.034615 11.328902 87.253846 11.466350 87.473077 11.604403 87.692308 11.743055 87.911538 11.882301 88.130769 12.022135 88.350000 12.162553 88.569231 12.303548 88.788462 12.445116 89.007692 12.587250 89.226923 12.729946 89.446154 12.873198 89.665385 13.017001 89.884615 13.161350 90.103846 13.306238 90.323077 13.451661 90.542308 13.597613 90.761538 13.744088 90.980769 13.891082 91.200000 14.038589 91.419231 14.186604 91.638462 14.335121 91.857692 14.484134 92.076923 14.633639 92.296154 14.783630 92.515385 14.934101 92.734615 15.085047 92.953846 15.236463 93.173077 15.388344 93.392308 15.540683 93.611538 15.693476 93.830769 15.846718 94.050000 16.000401 94.269231 16.154523 94.488462 16.309076 94.707692 16.464056 94.926923 16.619457 95.146154 16.775273 95.365385 16.931500 95.584615 17.088133 95.803846 17.245164 96.023077 17.402590 96.242308 17.560404 96.461538 17.718602 96.680769 17.877178 96.900000 18.036126 97.119231 18.195442 97.338462 18.355119 97.557692 18.515153 97.776923 18.675537 97.996154 18.836268 98.215385 18.997338 98.434615 19.158743 98.653846 19.320477 98.873077 19.482536 99.092308 19.644913 99.311538 19.807603 99.530769 19.970601 99.750000 20.133901 99.969231 20.297499 100.188462 20.461387 100.407692 20.625562 100.626923 20.790018 100.846154 20.954749 101.065385 21.119750 101.284615 21.285016 101.503846 21.450541 101.723077 21.616320 101.942308 21.782347 102.161538 21.948617 102.380769 22.115124 102.600000 22.281864 102.819231 22.448830 103.038462 22.616018 103.257692 22.783422 103.476923 22.951037 103.696154 23.118856 103.915385 23.286876 104.134615 23.455089 104.353846 23.623492 104.573077 23.792078 104.792308 23.960843 105.011538 24.129780 105.230769 24.298885 105.450000 24.468152 105.669231 24.637575 105.888462 24.807149 106.107692 24.976870 106.326923 25.146730 106.546154 25.316726 106.765385 25.486851 106.984615 25.657100 107.203846 25.827468 107.423077 25.997950 107.642308 26.168539 107.861538 26.339232 108.080769 26.510021 108.300000 26.680902 108.519231 26.851869 108.738462 27.022918 108.957692 27.194042 109.176923 27.365236 109.396154 27.536495 109.615385 27.707814 109.834615 27.879186 110.053846 28.050607 110.273077 28.222071 110.492308 28.393573 110.711538 28.565108 110.930769 28.736669 111.150000 28.908252 111.369231 29.079851 111.588462 29.251462 111.807692 29.423077" class="line reactive nofill" /></g></g><g class="titles" /><g transform="translate(76, 10)" class="plot overlay"><g class="series serie-0 color-0" /></g><g transform="translate(76, 10)" class="plot text-overlay"><g class="series serie-0 color-0" /></g><g transform="translate(76, 10)" class="plot tooltip-overlay"><g transform="translate(0 0)" style="opacity: 0" class="tooltip"><rect rx="0" ry="0" width="0" height="0" class="tooltip-box" /><g class="text" /></g></g></g></svg>