<?xml version='1.0' encoding='utf-8'?>
<svg xmlns="http://www.w3.org/2000/svg" id="chart-63ac1541-59c4-46eb-a730-dbc76efa567c" class="pygal-chart pygal-sparkline" viewBox="0 0 200 50" width="200" height="50"><!--Generated with pygal 3.0.5 (etree) ©Kozea 2012-2016 on 2024-09-03--><!--http://pygal.org--><!--http://github.com/Kozea/pygal--><defs><style type="text/css">#chart-63ac1541-59c4-46eb-a730-dbc76efa567c{-webkit-user-select:none;-webkit-font-smoothing:antialiased;font-family:Consolas,"Liberation Mono",Menlo,Courier,monospace}#chart-63ac1541-59c4-46eb-a730-dbc76efa567c .title{font-family:Consolas,"Liberation Mono",Menlo,Courier,monospace;font-size:16px}#chart-63ac1541-59c4-46eb-a730-dbc76efa567c .legends .legend text{font-family:Consolas,"Liberation Mono",Menlo,Courier,monospace;font-size:14px}#chart-63ac1541-59c4-46eb-a730-dbc76efa567c .axis text{font-family:Consolas,"Liberation Mono",Menlo,Courier,monospace;font-size:10px}#chart-63ac1541-59c4-46eb-a730-dbc76efa567c .axis text.major{font-family:Consolas,"Liberation Mono",Menlo,Courier,monospace;font-size:10px}#chart-63ac1541-59c4-46eb-a730-dbc76efa567c .text-overlay text.value{font-family:Consolas,"Liberation Mono",Menlo,Courier,monospace;font-size:16px}#chart-63ac1541-59c4-46eb-a730-dbc76efa567c .text-overlay text.label{font-family:Consolas,"Liberation Mono",Menlo,Courier,monospace;font-size:10px}#chart-63ac1541-59c4-46eb-a730-dbc76efa567c .tooltip{font-family:Consolas,"Liberation Mono",Menlo,Courier,monospace;font-size:14px}#chart-63ac1541-59c4-46eb-a730-dbc76efa567c text.no_data{font-family:Consolas,"Liberation Mono",Menlo,Courier,monospace;font-size:64px}
#chart-63ac1541-59c4-46eb-a730-dbc76efa567c{background-color:rgba(249,249,249,1)}#chart-63ac1541-59c4-46eb-a730-dbc76efa567c path,#chart-63ac1541-59c4-46eb-a730-dbc76efa567c line,#chart-63ac1541-59c4-46eb-a730-dbc76efa567c rect,#chart-63ac1541-59c4-46eb-a730-dbc76efa567c circle{-webkit-transition:150ms;-moz-transition:150ms;transition:150ms}#chart-63ac1541-59c4-46eb-a730-dbc76efa567c .graph &gt; .background{fill:rgba(249,249,249,1)}#chart-63ac1541-59c4-46eb-a730-dbc76efa567c .plot &gt; .background{fill:rgba(255,255,255,1)}#chart-63ac1541-59c4-46eb-a730-dbc76efa567c .graph{fill:rgba(0,0,0,.87)}#chart-63ac1541-59c4-46eb-a730-dbc76efa567c text.no_data{fill:rgba(0,0,0,1)}#chart-63ac1541-59c4-46eb-a730-dbc76efa567c .title{fill:rgba(0,0,0,1)}#chart-63ac1541-59c4-46eb-a730-dbc76efa567c .legends .legend text{fill:rgba(0,0,0,.87)}#chart-63ac1541-59c4-46eb-a730-dbc76efa567c .legends .legend:hover text{fill:rgba(0,0,0,1)}#chart-63ac1541-59c4-46eb-a730-dbc76efa567c .axis .line{stroke:rgba(0,0,0,1)}#chart-63ac1541-59c4-46eb-a730-dbc76efa567c .axis .guide.line{stroke:rgba(0,0,0,.54)}#chart-63ac1541-59c4-46eb-a730-dbc76efa567c .axis .major.line{stroke:rgba(0,0,0,.87)}#chart-63ac1541-59c4-46eb-a730-dbc76efa567c .axis text.major{fill:rgba(0,0,0,1)}#chart-63ac1541-59c4-46eb-a730-dbc76efa567c .axis.y .guides:hover .guide.line,#chart-63ac1541-59c4-46eb-a730-dbc76efa567c .line-graph .axis.x .guides:hover .guide.line,#chart-63ac1541-59c4-46eb-a730-dbc76efa567c .stackedline-graph .axis.x .guides:hover .guide.line,#chart-63ac1541-59c4-46eb-a730-dbc76efa567c .xy-graph .axis.x .guides:hover .guide.line{stroke:rgba(0,0,0,1)}#chart-63ac1541-59c4-46eb-a730-dbc76efa567c .axis .guides:hover text{fill:rgba(0,0,0,1)}#chart-63ac1541-59c4-46eb-a730-dbc76efa567c .reactive{fill-opacity:.7;stroke-opacity:.8;stroke-width:1}#chart-63ac1541-59c4-46eb-a730-dbc76efa567c .ci{stroke:rgba(0,0,0,.87)}#chart-63ac1541-59c4-46eb-a730-dbc76efa567c .reactive.active,#chart-63ac1541-59c4-46eb-a730-dbc76efa567c .active .reactive{fill-opacity:.8;stroke-opacity:.9;stroke-width:4}#chart-63ac1541-59c4-46eb-a730-dbc76efa567c .ci .reactive.active{stroke-width:1.5}#chart-63ac1541-59c4-46eb-a730-dbc76efa567c .series text{fill:rgba(0,0,0,1)}#chart-63ac1541-59c4-46eb-a730-dbc76efa567c .tooltip rect{fill:rgba(255,255,255,1);stroke:rgba(0,0,0,1);-webkit-transition:opacity 150ms;-moz-transition:opacity 150ms;transition:opacity 150ms}#chart-63ac1541-59c4-46eb-a730-dbc76efa567c .tooltip .label{fill:rgba(0,0,0,.87)}#chart-63ac1541-59c4-46eb-a730-dbc76efa567c .tooltip .label{fill:rgba(0,0,0,.87)}#chart-63ac1541-59c4-46eb-a730-dbc76efa567c .tooltip .legend{font-size:.8em;fill:rgba(0,0,0,.54)}#chart-63ac1541-59c4-46eb-a730-dbc76efa567c .tooltip .x_label{font-size:.6em;fill:rgba(0,0,0,1)}#chart-63ac1541-59c4-46eb-a730-dbc76efa567c .tooltip .xlink{font-size:.5em;text-decoration:underline}#chart-63ac1541-59c4-46eb-a730-dbc76efa567c .tooltip .value{font-size:1.5em}#chart-63ac1541-59c4-46eb-a730-dbc76efa567c .bound{font-size:.5em}#chart-63ac1541-59c4-46eb-a730-dbc76efa567c .max-value{font-size:.75em;fill:rgba(0,0,0,.54)}#chart-63ac1541-59c4-46eb-a730-dbc76efa567c .map-element{fill:rgba(255,255,255,1);stroke:rgba(0,0,0,.54) !important}#chart-63ac1541-59c4-46eb-a730-dbc76efa567c .map-element .reactive{fill-opacity:inherit;stroke-opacity:inherit}#chart-63ac1541-59c4-46eb-a730-dbc76efa567c .color-0,#chart-63ac1541-59c4-46eb-a730-dbc76efa567c .color-0 a:visited{stroke:#F44336;fill:#F44336}#chart-63ac1541-59c4-46eb-a730-dbc76efa567c .text-overlay .color-0 text{fill:black}
#chart-63ac1541-59c4-46eb-a730-dbc76efa567c text.no_data{text-anchor:middle}#chart-63ac1541-59c4-46eb-a730-dbc76efa567c .guide.line{fill:none}#chart-63ac1541-59c4-46eb-a730-dbc76efa567c .centered{text-anchor:middle}#chart-63ac1541-59c4-46eb-a730-dbc76efa567c .title{text-anchor:middle}#chart-63ac1541-59c4-46eb-a730-dbc76efa567c .legends .legend text{fill-opacity:1}#chart-63ac1541-59c4-46eb-a730-dbc76efa567c .axis.x text{text-anchor:middle}#chart-63ac1541-59c4-46eb-a730-dbc76efa567c .axis.x:not(.web) text[transform]{text-anchor:start}#chart-63ac1541-59c4-46eb-a730-dbc76efa567c .axis.x:not(.web) text[transform].backwards{text-anchor:end}#chart-63ac1541-59c4-46eb-a730-dbc76efa567c .axis.y text{text-anchor:end}#chart-63ac1541-59c4-46eb-a730-dbc76efa567c .axis.y text[transform].backwards{text-anchor:start}#chart-63ac1541-59c4-46eb-a730-dbc76efa567c .axis.y2 text{text-anchor:start}#chart-63ac1541-59c4-46eb-a730-dbc76efa567c .axis.y2 text[transform].backwards{text-anchor:end}#chart-63ac1541-59c4-46eb-a730-dbc76efa567c .axis .guide.line{stroke-dasharray:4,4;stroke:black}#chart-63ac1541-59c4-46eb-a730-dbc76efa567c .axis .major.guide.line{stroke-dasharray:6,6;stroke:black}#chart-63ac1541-59c4-46eb-a730-dbc76efa567c .horizontal .axis.y .guide.line,#chart-63ac1541-59c4-46eb-a730-dbc76efa567c .horizontal .axis.y2 .guide.line,#chart-63ac1541-59c4-46eb-a730-dbc76efa567c .vertical .axis.x .guide.line{opacity:0}#chart-63ac1541-59c4-46eb-a730-dbc76efa567c .horizontal .axis.always_show .guide.line,#chart-63ac1541-59c4-46eb-a730-dbc76efa567c .vertical .axis.always_show .guide.line{opacity:1 !important}#chart-63ac1541-59c4-46eb-a730-dbc76efa567c .axis.y .guides:hover .guide.line,#chart-63ac1541-59c4-46eb-a730-dbc76efa567c .axis.y2 .guides:hover .guide.line,#chart-63ac1541-59c4-46eb-a730-dbc76efa567c .axis.x .guides:hover .guide.line{opacity:1}#chart-63ac1541-59c4-46eb-a730-dbc76efa567c .axis .guides:hover text{opacity:1}#chart-63ac1541-59c4-46eb-a730-dbc76efa567c .nofill{fill:none}#chart-63ac1541-59c4-46eb-a730-dbc76efa567c .subtle-fill{fill-opacity:.2}#chart-63ac1541-59c4-46eb-a730-dbc76efa567c .dot{stroke-width:1px;fill-opacity:1;stroke-opacity:1}#chart-63ac1541-59c4-46eb-a730-dbc76efa567c .dot.active{stroke-width:5px}#chart-63ac1541-59c4-46eb-a730-dbc76efa567c .dot.negative{fill:transparent}#chart-63ac1541-59c4-46eb-a730-dbc76efa567c text,#chart-63ac1541-59c4-46eb-a730-dbc76efa567c tspan{stroke:none !important}#chart-63ac1541-59c4-46eb-a730-dbc76efa567c .series text.active{opacity:1}#chart-63ac1541-59c4-46eb-a730-dbc76efa567c .tooltip rect{fill-opacity:.95;stroke-width:.5}#chart-63ac1541-59c4-46eb-a730-dbc76efa567c .tooltip text{fill-opacity:1}#chart-63ac1541-59c4-46eb-a730-dbc76efa567c .showable{visibility:hidden}#chart-63ac1541-59c4-46eb-a730-dbc76efa567c .showable.shown{visibility:visible}#chart-63ac1541-59c4-46eb-a730-dbc76efa567c .gauge-background{fill:rgba(229,229,229,1);stroke:none}#chart-63ac1541-59c4-46eb-a730-dbc76efa567c .bg-lines{stroke:rgba(249,249,249,1);stroke-width:2px}</style><script type="text/javascript">window.pygal = window.pygal || {};window.pygal.config = window.pygal.config || {};window.pygal.config['63ac1541-59c4-46eb-a730-dbc76efa567c'] = {"allow_interruptions": false, "box_mode": "extremes", "classes": ["pygal-chart", "pygal-sparkline"], "css": ["file://style.css", "file://graph.css"], "defs": [], "disable_xml_declaration": false, "dots_size": 2.5, "dynamic_print_values": false, "explicit_size": true, "fill": false, "force_uri_protocol": "https", "formatter": null, "half_pie": false, "height": 50, "include_x_axis": false, "inner_radius": 0, "interpolate": "cubic", "interpolation_parameters": {}, "interpolation_precision": 250, "inverse_y_axis": false, "js": [], "legend_at_bottom": false, "legend_at_bottom_columns": null, "legend_box_size": 12, "logarithmic": false, "margin": 10, "margin_bottom": null, "margin_left": null, "margin_right": null, "margin_top": null, "max_scale": 2, "min_scale": 1, "missing_value_fill_truncation": "x", "no_data_text": "", "no_prefix": false, "order_min": null, "pretty_print": false, "print_labels": false, "print_values": false, "print_values_position": "center", "print_zeroes": true, "range": null, "rounded_bars": null, "secondary_range": null, "show_dots": false, "show_legend": false, "show_minor_x_labels": true, "show_minor_y_labels": true, "show_only_major_dots": false, "show_x_guides": false, "show_x_labels": false, "show_y_guides": true, "show_y_labels": true, "spacing": 0, "stack_from_top": false, "strict": false, "stroke": true, "stroke_style": null, "style": {"background": "rgba(249, 249, 249, 1)", "ci_colors": [], "colors": ["#F44336", "#3F51B5", "#009688", "#FFC107", "#FF5722", "#9C27B0", "#03A9F4", "#8BC34A", "#FF9800", "#E91E63", "#2196F3", "#4CAF50", "#FFEB3B", "#673AB7", "#00BCD4", "#CDDC39", "#9E9E9E", "#607D8B"], "dot_opacity": "1", "font_family": "Consolas, \"Liberation Mono\", Menlo, Courier, monospace", "foreground": "rgba(0, 0, 0, .87)", "foreground_strong": "rgba(0, 0, 0, 1)", "foreground_subtle": "rgba(0, 0, 0, .54)", "guide_stroke_color": "black", "guide_stroke_dasharray": "4,4", "label_font_family": "Consolas, \"Liberation Mono\", Menlo, Courier, monospace", "label_font_size": 10, "legend_font_family": "Consolas, \"Liberation Mono\", Menlo, Courier, monospace", "legend_font_size": 14, "major_guide_stroke_color": "black", "major_guide_stroke_dasharray": "6,6", "major_label_font_family": "Consolas, \"Liberation Mono\", Menlo, Courier, monospace", "major_label_font_size": 10, "no_data_font_family": "Consolas, \"Liberation Mono\", Menlo, Courier, monospace", "no_data_font_size": 64, "opacity": ".7", "opacity_hover": ".8", "plot_background": "rgba(255, 255, 255, 1)", "stroke_opacity": ".8", "stroke_opacity_hover": ".9", "stroke_width": "1", "stroke_width_hover": "4", "title_font_family": "Consolas, \"Liberation Mono\", Menlo, Courier, monospace", "title_font_size": 16, "tooltip_font_family": "Consolas, \"Liberation Mono\", Menlo, Courier, monospace", "tooltip_font_size": 14, "transition": "150ms", "value_background": "rgba(229, 229, 229, 1)", "value_colors": [], "value_font_family": "Consolas, \"Liberation Mono\", Menlo, Courier, monospace", "value_font_size": 16, "value_label_font_family": "Consolas, \"Liberation Mono\", Menlo, Courier, monospace", "value_label_font_size": 10}, "title": null, "tooltip_border_radius": 0, "tooltip_fancy_mode": true, "truncate_label": null, "truncate_legend": null, "width": 200, "x_label_rotation": 0, "x_labels": ["2024/9", "2024/8", "2024/7"], "x_labels_major": null, "x_labels_major_count": null, "x_labels_major_every": null, "x_title": null, "xrange": null, "y_label_rotation": 0, "y_labels": null, "y_labels_major": null, "y_labels_major_count": null, "y_labels_major_every": null, "y_title": null, "zero": 0, "legends": [""]}</script></defs><title>Pygal</title><g class="graph line-graph vertical"><rect x="0" y="0" width="200" height="50" class="background" /><g transform="translate(76, 10)" class="plot"><rect x="0" y="0" width="114.0" height="30" class="background" /><g class="axis y always_show"><path d="M0.000000 30.000000 h114.000000" class="line" /><g class="guides"><path d="M0.000000 29.423077 h114.000000" class="guide line" /><text x="-5" y="32.92307692307692" class="">1</text><title>1</title></g><g class="guides"><path d="M0.000000 0.576923 h114.000000" class="guide line" /><text x="-5" y="4.076923076923077" class="">15.62853786</text><title>15.62853786</title></g></g><g class="series serie-0 color-0"><path d="M2.192308 29.423077 L2.411538 29.296875 2.630769 29.170676 2.850000 29.044481 3.069231 28.918292 3.288462 28.792113 3.507692 28.665945 3.726923 28.539791 3.946154 28.413653 4.165385 28.287533 4.384615 28.161433 4.603846 28.035357 4.823077 27.909305 5.042308 27.783280 5.261538 27.657285 5.480769 27.531322 5.700000 27.405392 5.919231 27.279499 6.138462 27.153645 6.357692 27.027832 6.576923 26.902062 6.796154 26.776337 7.015385 26.650660 7.234615 26.525033 7.453846 26.399458 7.673077 26.273937 7.892308 26.148474 8.111538 26.023069 8.330769 25.897726 8.550000 25.772447 8.769231 25.647233 8.988462 25.522087 9.207692 25.397012 9.426923 25.272010 9.646154 25.147082 9.865385 25.022232 10.084615 24.897462 10.303846 24.772773 10.523077 24.648168 10.742308 24.523649 10.961538 24.399219 11.180769 24.274880 11.400000 24.150634 11.619231 24.026484 11.838462 23.902431 12.057692 23.778478 12.276923 23.654627 12.496154 23.530881 12.715385 23.407242 12.934615 23.283711 13.153846 23.160292 13.373077 23.036987 13.592308 22.913797 13.811538 22.790725 14.030769 22.667774 14.250000 22.544946 14.469231 22.422242 14.688462 22.299666 14.907692 22.177219 15.126923 22.054904 15.346154 21.932723 15.565385 21.810678 15.784615 21.688772 16.003846 21.567007 16.223077 21.445385 16.442308 21.323908 16.661538 21.202579 16.880769 21.081400 17.100000 20.960373 17.319231 20.839500 17.538462 20.718784 17.757692 20.598227 17.976923 20.477832 18.196154 20.357600 18.415385 20.237534 18.634615 20.117636 18.853846 19.997908 19.073077 19.878353 19.292308 19.758973 19.511538 19.639770 19.730769 19.520747 19.950000 19.401905 20.169231 19.283247 20.388462 19.164776 20.607692 19.046493 20.826923 18.928401 21.046154 18.810502 21.265385 18.692798 21.484615 18.575292 21.703846 18.457986 21.923077 18.340882 22.142308 18.223983 22.361538 18.107290 22.580769 17.990806 22.800000 17.874534 23.019231 17.758475 23.238462 17.642631 23.457692 17.527006 23.676923 17.411602 23.896154 17.296420 24.115385 17.181462 24.334615 17.066732 24.553846 16.952232 24.773077 16.837963 24.992308 16.723928 25.211538 16.610129 25.430769 16.496569 25.650000 16.383250 25.869231 16.270173 26.088462 16.157342 26.307692 16.044759 26.526923 15.932425 26.746154 15.820344 26.965385 15.708517 27.184615 15.596947 27.403846 15.485636 27.623077 15.374586 27.842308 15.263799 28.061538 15.153279 28.280769 15.043026 28.500000 14.933044 28.719231 14.823334 28.938462 14.713899 29.157692 14.604741 29.376923 14.495863 29.596154 14.387266 29.815385 14.278954 30.034615 14.170927 30.253846 14.063189 30.473077 13.955742 30.692308 13.848588 30.911538 13.741729 31.130769 13.635168 31.350000 13.528907 31.569231 13.422947 31.788462 13.317293 32.007692 13.211944 32.226923 13.106905 32.446154 13.002177 32.665385 12.897763 32.884615 12.793664 33.103846 12.689883 33.323077 12.586423 33.542308 12.483285 33.761538 12.380472 33.980769 12.277986 34.200000 12.175829 34.419231 12.074004 34.638462 11.972513 34.857692 11.871359 35.076923 11.770542 35.296154 11.670067 35.515385 11.569934 35.734615 11.470147 35.953846 11.370708 36.173077 11.271618 36.392308 11.172880 36.611538 11.074497 36.830769 10.976470 37.050000 10.878802 37.269231 10.781496 37.488462 10.684553 37.707692 10.587975 37.926923 10.491766 38.146154 10.395927 38.365385 10.300460 38.584615 10.205368 38.803846 10.110654 39.023077 10.016319 39.242308 9.922365 39.461538 9.828795 39.680769 9.735612 39.900000 9.642817 40.119231 9.550412 40.338462 9.458401 40.557692 9.366785 40.776923 9.275566 40.996154 9.184747 41.215385 9.094331 41.434615 9.004318 41.653846 8.914713 41.873077 8.825516 42.092308 8.736730 42.311538 8.648358 42.530769 8.560401 42.750000 8.472863 42.969231 8.385745 43.188462 8.299049 43.407692 8.212778 43.626923 8.126934 43.846154 8.041519 44.065385 7.956537 44.284615 7.871987 44.503846 7.787875 44.723077 7.704200 44.942308 7.620966 45.161538 7.538176 45.380769 7.455830 45.600000 7.373932 45.819231 7.292484 46.038462 7.211487 46.257692 7.130946 46.476923 7.050860 46.696154 6.971234 46.915385 6.892069 47.134615 6.813367 47.353846 6.735131 47.573077 6.657362 47.792308 6.580064 48.011538 6.503239 48.230769 6.426888 48.450000 6.351015 48.669231 6.275620 48.888462 6.200708 49.107692 6.126279 49.326923 6.052336 49.546154 5.978882 49.765385 5.905918 49.984615 5.833447 50.203846 5.761472 50.423077 5.689994 50.642308 5.619015 50.861538 5.548539 51.080769 5.478567 51.300000 5.409102 51.519231 5.340145 51.738462 5.271700 51.957692 5.203768 52.176923 5.136352 52.396154 5.069453 52.615385 5.003075 52.834615 4.937219 53.053846 4.871888 53.273077 4.807084 53.492308 4.742810 53.711538 4.679067 53.930769 4.615857 54.150000 4.553184 54.369231 4.491049 54.588462 4.429455 54.807692 4.368404 55.026923 4.307898 55.246154 4.247939 55.465385 4.188531 55.684615 4.129674 55.903846 4.071371 56.123077 4.013625 56.342308 3.956438 56.561538 3.899812 56.780769 3.843750 57.000000 3.788252 57.219231 3.733323 57.438462 3.678958 57.657692 3.625157 57.876923 3.571918 58.096154 3.519237 58.315385 3.467112 58.534615 3.415542 58.753846 3.364524 58.973077 3.314056 59.192308 3.264135 59.411538 3.214759 59.630769 3.165926 59.850000 3.117634 60.069231 3.069880 60.288462 3.022663 60.507692 2.975979 60.726923 2.929826 60.946154 2.884203 61.165385 2.839107 61.384615 2.794536 61.603846 2.750488 61.823077 2.706959 62.042308 2.663948 62.261538 2.621453 62.480769 2.579472 62.700000 2.538001 62.919231 2.497040 63.138462 2.456585 63.357692 2.416634 63.576923 2.377186 63.796154 2.338237 64.015385 2.299785 64.234615 2.261829 64.453846 2.224366 64.673077 2.187393 64.892308 2.150909 65.111538 2.114911 65.330769 2.079397 65.550000 2.044364 65.769231 2.009811 65.988462 1.975735 66.207692 1.942133 66.426923 1.909004 66.646154 1.876345 66.865385 1.844155 67.084615 1.812430 67.303846 1.781168 67.523077 1.750367 67.742308 1.720026 67.961538 1.690141 68.180769 1.660710 68.400000 1.631731 68.619231 1.603202 68.838462 1.575121 69.057692 1.547485 69.276923 1.520292 69.496154 1.493539 69.715385 1.467225 69.934615 1.441347 70.153846 1.415903 70.373077 1.390891 70.592308 1.366308 70.811538 1.342152 71.030769 1.318421 71.250000 1.295112 71.469231 1.272224 71.688462 1.249753 71.907692 1.227698 72.126923 1.206057 72.346154 1.184827 72.565385 1.164006 72.784615 1.143591 73.003846 1.123581 73.223077 1.103973 73.442308 1.084764 73.661538 1.065954 73.880769 1.047538 74.100000 1.029516 74.319231 1.011884 74.538462 0.994640 74.757692 0.977783 74.976923 0.961310 75.196154 0.945218 75.415385 0.929506 75.634615 0.914171 75.853846 0.899210 76.073077 0.884622 76.292308 0.870405 76.511538 0.856555 76.730769 0.843071 76.950000 0.829951 77.169231 0.817192 77.388462 0.804792 77.607692 0.792748 77.826923 0.781059 78.046154 0.769722 78.265385 0.758734 78.484615 0.748095 78.703846 0.737800 78.923077 0.727849 79.142308 0.718238 79.361538 0.708966 79.580769 0.700030 79.800000 0.691428 80.019231 0.683157 80.238462 0.675216 80.457692 0.667603 80.676923 0.660313 80.896154 0.653347 81.115385 0.646701 81.334615 0.640373 81.553846 0.634360 81.773077 0.628661 81.992308 0.623274 82.211538 0.618195 82.430769 0.613423 82.650000 0.608955 82.869231 0.604790 83.088462 0.600924 83.307692 0.597356 83.526923 0.594083 83.746154 0.591103 83.965385 0.588414 84.184615 0.586014 84.403846 0.583899 84.623077 0.582069 84.842308 0.580520 85.061538 0.579251 85.280769 0.578259 85.500000 0.577542 85.719231 0.577097 85.938462 0.576923 86.157692 0.577017 86.376923 0.577376 86.596154 0.577999 86.815385 0.578884 87.034615 0.580027 87.253846 0.581427 87.473077 0.583081 87.692308 0.584988 87.911538 0.587144 88.130769 0.589548 88.350000 0.592198 88.569231 0.595090 88.788462 0.598223 89.007692 0.601595 89.226923 0.605203 89.446154 0.609045 89.665385 0.613119 89.884615 0.617422 90.103846 0.621952 90.323077 0.626707 90.542308 0.631685 90.761538 0.636883 90.980769 0.642299 91.200000 0.647932 91.419231 0.653777 91.638462 0.659834 91.857692 0.666100 92.076923 0.672572 92.296154 0.679249 92.515385 0.686128 92.734615 0.693207 92.953846 0.700484 93.173077 0.707956 93.392308 0.715621 93.611538 0.723477 93.830769 0.731522 94.050000 0.739753 94.269231 0.748167 94.488462 0.756764 94.707692 0.765540 94.926923 0.774493 95.146154 0.783621 95.365385 0.792922 95.584615 0.802393 95.803846 0.812032 96.023077 0.821837 96.242308 0.831806 96.461538 0.841936 96.680769 0.852224 96.900000 0.862670 97.119231 0.873270 97.338462 0.884023 97.557692 0.894925 97.776923 0.905975 97.996154 0.917170 98.215385 0.928508 98.434615 0.939988 98.653846 0.951605 98.873077 0.963359 99.092308 0.975248 99.311538 0.987267 99.530769 0.999417 99.750000 1.011693 99.969231 1.024095 100.188462 1.036619 100.407692 1.049264 100.626923 1.062026 100.846154 1.074905 101.065385 1.087897 101.284615 1.101000 101.503846 1.114213 101.723077 1.127532 101.942308 1.140956 102.161538 1.154482 102.380769 1.168108 102.600000 1.181831 102.819231 1.195651 103.038462 1.209563 103.257692 1.223566 103.476923 1.237657 103.696154 1.251835 103.915385 1.266097 104.134615 1.280441 104.353846 1.294864 104.573077 1.309365 104.792308 1.323940 105.011538 1.338588 105.230769 1.353307 105.450000 1.368094 105.669231 1.382946 105.888462 1.397863 106.107692 1.412840 106.326923 1.427877 106.546154 1.442970 106.765385 1.458118 106.984615 1.473318 107.203846 1.488568 107.423077 1.503866 107.642308 1.519210 107.861538 1.534596 108.080769 1.550023 108.300000 1.565489 108.519231 1.580992 108.738462 1.596528 108.957692 1.612096 109.176923 1.627694 109.396154 1.643319 109.615385 1.658969 109.834615 1.674641 110.053846 1.690335 110.273077 1.706046 110.492308 1.721773 110.711538 1.737514 110.930769 1.753266 111.150000 1.769027 111.369231 1.784795 111.588462 1.800568 111.807692 1.816343" class="line reactive nofill" /></g></g><g class="titles" /><g transform="translate(76, 10)" class="plot overlay"><g class="series serie-0 color-0" /></g><g transform="translate(76, 10)" class="plot text-overlay"><g class="series serie-0 color-0" /></g><g transform="translate(76, 10)" class="plot tooltip-overlay"><g transform="translate(0 0)" style="opacity: 0" class="tooltip"><rect rx="0" ry="0" width="0" height="0" class="tooltip-box" /><g class="text" /></g></g></g></svg>