<?xml version='1.0' encoding='utf-8'?>
<svg xmlns="http://www.w3.org/2000/svg" id="chart-d847de76-d961-40f6-b503-f107073e8d5a" class="pygal-chart pygal-sparkline" viewBox="0 0 200 50" width="200" height="50"><!--Generated with pygal 3.0.4 (etree) ©Kozea 2012-2016 on 2024-07-07--><!--http://pygal.org--><!--http://github.com/Kozea/pygal--><defs><style type="text/css">#chart-d847de76-d961-40f6-b503-f107073e8d5a{-webkit-user-select:none;-webkit-font-smoothing:antialiased;font-family:Consolas,"Liberation Mono",Menlo,Courier,monospace}#chart-d847de76-d961-40f6-b503-f107073e8d5a .title{font-family:Consolas,"Liberation Mono",Menlo,Courier,monospace;font-size:16px}#chart-d847de76-d961-40f6-b503-f107073e8d5a .legends .legend text{font-family:Consolas,"Liberation Mono",Menlo,Courier,monospace;font-size:14px}#chart-d847de76-d961-40f6-b503-f107073e8d5a .axis text{font-family:Consolas,"Liberation Mono",Menlo,Courier,monospace;font-size:10px}#chart-d847de76-d961-40f6-b503-f107073e8d5a .axis text.major{font-family:Consolas,"Liberation Mono",Menlo,Courier,monospace;font-size:10px}#chart-d847de76-d961-40f6-b503-f107073e8d5a .text-overlay text.value{font-family:Consolas,"Liberation Mono",Menlo,Courier,monospace;font-size:16px}#chart-d847de76-d961-40f6-b503-f107073e8d5a .text-overlay text.label{font-family:Consolas,"Liberation Mono",Menlo,Courier,monospace;font-size:10px}#chart-d847de76-d961-40f6-b503-f107073e8d5a .tooltip{font-family:Consolas,"Liberation Mono",Menlo,Courier,monospace;font-size:14px}#chart-d847de76-d961-40f6-b503-f107073e8d5a text.no_data{font-family:Consolas,"Liberation Mono",Menlo,Courier,monospace;font-size:64px}
#chart-d847de76-d961-40f6-b503-f107073e8d5a{background-color:rgba(249,249,249,1)}#chart-d847de76-d961-40f6-b503-f107073e8d5a path,#chart-d847de76-d961-40f6-b503-f107073e8d5a line,#chart-d847de76-d961-40f6-b503-f107073e8d5a rect,#chart-d847de76-d961-40f6-b503-f107073e8d5a circle{-webkit-transition:150ms;-moz-transition:150ms;transition:150ms}#chart-d847de76-d961-40f6-b503-f107073e8d5a .graph &gt; .background{fill:rgba(249,249,249,1)}#chart-d847de76-d961-40f6-b503-f107073e8d5a .plot &gt; .background{fill:rgba(255,255,255,1)}#chart-d847de76-d961-40f6-b503-f107073e8d5a .graph{fill:rgba(0,0,0,.87)}#chart-d847de76-d961-40f6-b503-f107073e8d5a text.no_data{fill:rgba(0,0,0,1)}#chart-d847de76-d961-40f6-b503-f107073e8d5a .title{fill:rgba(0,0,0,1)}#chart-d847de76-d961-40f6-b503-f107073e8d5a .legends .legend text{fill:rgba(0,0,0,.87)}#chart-d847de76-d961-40f6-b503-f107073e8d5a .legends .legend:hover text{fill:rgba(0,0,0,1)}#chart-d847de76-d961-40f6-b503-f107073e8d5a .axis .line{stroke:rgba(0,0,0,1)}#chart-d847de76-d961-40f6-b503-f107073e8d5a .axis .guide.line{stroke:rgba(0,0,0,.54)}#chart-d847de76-d961-40f6-b503-f107073e8d5a .axis .major.line{stroke:rgba(0,0,0,.87)}#chart-d847de76-d961-40f6-b503-f107073e8d5a .axis text.major{fill:rgba(0,0,0,1)}#chart-d847de76-d961-40f6-b503-f107073e8d5a .axis.y .guides:hover .guide.line,#chart-d847de76-d961-40f6-b503-f107073e8d5a .line-graph .axis.x .guides:hover .guide.line,#chart-d847de76-d961-40f6-b503-f107073e8d5a .stackedline-graph .axis.x .guides:hover .guide.line,#chart-d847de76-d961-40f6-b503-f107073e8d5a .xy-graph .axis.x .guides:hover .guide.line{stroke:rgba(0,0,0,1)}#chart-d847de76-d961-40f6-b503-f107073e8d5a .axis .guides:hover text{fill:rgba(0,0,0,1)}#chart-d847de76-d961-40f6-b503-f107073e8d5a .reactive{fill-opacity:.7;stroke-opacity:.8;stroke-width:1}#chart-d847de76-d961-40f6-b503-f107073e8d5a .ci{stroke:rgba(0,0,0,.87)}#chart-d847de76-d961-40f6-b503-f107073e8d5a .reactive.active,#chart-d847de76-d961-40f6-b503-f107073e8d5a .active .reactive{fill-opacity:.8;stroke-opacity:.9;stroke-width:4}#chart-d847de76-d961-40f6-b503-f107073e8d5a .ci .reactive.active{stroke-width:1.5}#chart-d847de76-d961-40f6-b503-f107073e8d5a .series text{fill:rgba(0,0,0,1)}#chart-d847de76-d961-40f6-b503-f107073e8d5a .tooltip rect{fill:rgba(255,255,255,1);stroke:rgba(0,0,0,1);-webkit-transition:opacity 150ms;-moz-transition:opacity 150ms;transition:opacity 150ms}#chart-d847de76-d961-40f6-b503-f107073e8d5a .tooltip .label{fill:rgba(0,0,0,.87)}#chart-d847de76-d961-40f6-b503-f107073e8d5a .tooltip .label{fill:rgba(0,0,0,.87)}#chart-d847de76-d961-40f6-b503-f107073e8d5a .tooltip .legend{font-size:.8em;fill:rgba(0,0,0,.54)}#chart-d847de76-d961-40f6-b503-f107073e8d5a .tooltip .x_label{font-size:.6em;fill:rgba(0,0,0,1)}#chart-d847de76-d961-40f6-b503-f107073e8d5a .tooltip .xlink{font-size:.5em;text-decoration:underline}#chart-d847de76-d961-40f6-b503-f107073e8d5a .tooltip .value{font-size:1.5em}#chart-d847de76-d961-40f6-b503-f107073e8d5a .bound{font-size:.5em}#chart-d847de76-d961-40f6-b503-f107073e8d5a .max-value{font-size:.75em;fill:rgba(0,0,0,.54)}#chart-d847de76-d961-40f6-b503-f107073e8d5a .map-element{fill:rgba(255,255,255,1);stroke:rgba(0,0,0,.54) !important}#chart-d847de76-d961-40f6-b503-f107073e8d5a .map-element .reactive{fill-opacity:inherit;stroke-opacity:inherit}#chart-d847de76-d961-40f6-b503-f107073e8d5a .color-0,#chart-d847de76-d961-40f6-b503-f107073e8d5a .color-0 a:visited{stroke:#F44336;fill:#F44336}#chart-d847de76-d961-40f6-b503-f107073e8d5a .text-overlay .color-0 text{fill:black}
#chart-d847de76-d961-40f6-b503-f107073e8d5a text.no_data{text-anchor:middle}#chart-d847de76-d961-40f6-b503-f107073e8d5a .guide.line{fill:none}#chart-d847de76-d961-40f6-b503-f107073e8d5a .centered{text-anchor:middle}#chart-d847de76-d961-40f6-b503-f107073e8d5a .title{text-anchor:middle}#chart-d847de76-d961-40f6-b503-f107073e8d5a .legends .legend text{fill-opacity:1}#chart-d847de76-d961-40f6-b503-f107073e8d5a .axis.x text{text-anchor:middle}#chart-d847de76-d961-40f6-b503-f107073e8d5a .axis.x:not(.web) text[transform]{text-anchor:start}#chart-d847de76-d961-40f6-b503-f107073e8d5a .axis.x:not(.web) text[transform].backwards{text-anchor:end}#chart-d847de76-d961-40f6-b503-f107073e8d5a .axis.y text{text-anchor:end}#chart-d847de76-d961-40f6-b503-f107073e8d5a .axis.y text[transform].backwards{text-anchor:start}#chart-d847de76-d961-40f6-b503-f107073e8d5a .axis.y2 text{text-anchor:start}#chart-d847de76-d961-40f6-b503-f107073e8d5a .axis.y2 text[transform].backwards{text-anchor:end}#chart-d847de76-d961-40f6-b503-f107073e8d5a .axis .guide.line{stroke-dasharray:4,4;stroke:black}#chart-d847de76-d961-40f6-b503-f107073e8d5a .axis .major.guide.line{stroke-dasharray:6,6;stroke:black}#chart-d847de76-d961-40f6-b503-f107073e8d5a .horizontal .axis.y .guide.line,#chart-d847de76-d961-40f6-b503-f107073e8d5a .horizontal .axis.y2 .guide.line,#chart-d847de76-d961-40f6-b503-f107073e8d5a .vertical .axis.x .guide.line{opacity:0}#chart-d847de76-d961-40f6-b503-f107073e8d5a .horizontal .axis.always_show .guide.line,#chart-d847de76-d961-40f6-b503-f107073e8d5a .vertical .axis.always_show .guide.line{opacity:1 !important}#chart-d847de76-d961-40f6-b503-f107073e8d5a .axis.y .guides:hover .guide.line,#chart-d847de76-d961-40f6-b503-f107073e8d5a .axis.y2 .guides:hover .guide.line,#chart-d847de76-d961-40f6-b503-f107073e8d5a .axis.x .guides:hover .guide.line{opacity:1}#chart-d847de76-d961-40f6-b503-f107073e8d5a .axis .guides:hover text{opacity:1}#chart-d847de76-d961-40f6-b503-f107073e8d5a .nofill{fill:none}#chart-d847de76-d961-40f6-b503-f107073e8d5a .subtle-fill{fill-opacity:.2}#chart-d847de76-d961-40f6-b503-f107073e8d5a .dot{stroke-width:1px;fill-opacity:1;stroke-opacity:1}#chart-d847de76-d961-40f6-b503-f107073e8d5a .dot.active{stroke-width:5px}#chart-d847de76-d961-40f6-b503-f107073e8d5a .dot.negative{fill:transparent}#chart-d847de76-d961-40f6-b503-f107073e8d5a text,#chart-d847de76-d961-40f6-b503-f107073e8d5a tspan{stroke:none !important}#chart-d847de76-d961-40f6-b503-f107073e8d5a .series text.active{opacity:1}#chart-d847de76-d961-40f6-b503-f107073e8d5a .tooltip rect{fill-opacity:.95;stroke-width:.5}#chart-d847de76-d961-40f6-b503-f107073e8d5a .tooltip text{fill-opacity:1}#chart-d847de76-d961-40f6-b503-f107073e8d5a .showable{visibility:hidden}#chart-d847de76-d961-40f6-b503-f107073e8d5a .showable.shown{visibility:visible}#chart-d847de76-d961-40f6-b503-f107073e8d5a .gauge-background{fill:rgba(229,229,229,1);stroke:none}#chart-d847de76-d961-40f6-b503-f107073e8d5a .bg-lines{stroke:rgba(249,249,249,1);stroke-width:2px}</style><script type="text/javascript">window.pygal = window.pygal || {};window.pygal.config = window.pygal.config || {};window.pygal.config['d847de76-d961-40f6-b503-f107073e8d5a'] = {"allow_interruptions": false, "box_mode": "extremes", "classes": ["pygal-chart", "pygal-sparkline"], "css": ["file://style.css", "file://graph.css"], "defs": [], "disable_xml_declaration": false, "dots_size": 2.5, "dynamic_print_values": false, "explicit_size": true, "fill": false, "force_uri_protocol": "https", "formatter": null, "half_pie": false, "height": 50, "include_x_axis": false, "inner_radius": 0, "interpolate": "cubic", "interpolation_parameters": {}, "interpolation_precision": 250, "inverse_y_axis": false, "js": [], "legend_at_bottom": false, "legend_at_bottom_columns": null, "legend_box_size": 12, "logarithmic": false, "margin": 10, "margin_bottom": null, "margin_left": null, "margin_right": null, "margin_top": null, "max_scale": 2, "min_scale": 1, "missing_value_fill_truncation": "x", "no_data_text": "", "no_prefix": false, "order_min": null, "pretty_print": false, "print_labels": false, "print_values": false, "print_values_position": "center", "print_zeroes": true, "range": null, "rounded_bars": null, "secondary_range": null, "show_dots": false, "show_legend": false, "show_minor_x_labels": true, "show_minor_y_labels": true, "show_only_major_dots": false, "show_x_guides": false, "show_x_labels": false, "show_y_guides": true, "show_y_labels": true, "spacing": 0, "stack_from_top": false, "strict": false, "stroke": true, "stroke_style": null, "style": {"background": "rgba(249, 249, 249, 1)", "ci_colors": [], "colors": ["#F44336", "#3F51B5", "#009688", "#FFC107", "#FF5722", "#9C27B0", "#03A9F4", "#8BC34A", "#FF9800", "#E91E63", "#2196F3", "#4CAF50", "#FFEB3B", "#673AB7", "#00BCD4", "#CDDC39", "#9E9E9E", "#607D8B"], "dot_opacity": "1", "font_family": "Consolas, \"Liberation Mono\", Menlo, Courier, monospace", "foreground": "rgba(0, 0, 0, .87)", "foreground_strong": "rgba(0, 0, 0, 1)", "foreground_subtle": "rgba(0, 0, 0, .54)", "guide_stroke_color": "black", "guide_stroke_dasharray": "4,4", "label_font_family": "Consolas, \"Liberation Mono\", Menlo, Courier, monospace", "label_font_size": 10, "legend_font_family": "Consolas, \"Liberation Mono\", Menlo, Courier, monospace", "legend_font_size": 14, "major_guide_stroke_color": "black", "major_guide_stroke_dasharray": "6,6", "major_label_font_family": "Consolas, \"Liberation Mono\", Menlo, Courier, monospace", "major_label_font_size": 10, "no_data_font_family": "Consolas, \"Liberation Mono\", Menlo, Courier, monospace", "no_data_font_size": 64, "opacity": ".7", "opacity_hover": ".8", "plot_background": "rgba(255, 255, 255, 1)", "stroke_opacity": ".8", "stroke_opacity_hover": ".9", "stroke_width": "1", "stroke_width_hover": "4", "title_font_family": "Consolas, \"Liberation Mono\", Menlo, Courier, monospace", "title_font_size": 16, "tooltip_font_family": "Consolas, \"Liberation Mono\", Menlo, Courier, monospace", "tooltip_font_size": 14, "transition": "150ms", "value_background": "rgba(229, 229, 229, 1)", "value_colors": [], "value_font_family": "Consolas, \"Liberation Mono\", Menlo, Courier, monospace", "value_font_size": 16, "value_label_font_family": "Consolas, \"Liberation Mono\", Menlo, Courier, monospace", "value_label_font_size": 10}, "title": null, "tooltip_border_radius": 0, "tooltip_fancy_mode": true, "truncate_label": null, "truncate_legend": null, "width": 200, "x_label_rotation": 0, "x_labels": ["2024/7", "2024/6", "2024/5", "2024/3", "2024/2", "2024/1", "2023/12", "2023/7", "2023/6"], "x_labels_major": null, "x_labels_major_count": null, "x_labels_major_every": null, "x_title": null, "xrange": null, "y_label_rotation": 0, "y_labels": null, "y_labels_major": null, "y_labels_major_count": null, "y_labels_major_every": null, "y_title": null, "zero": 0, "legends": [""]}</script></defs><title>Pygal</title><g class="graph line-graph vertical"><rect x="0" y="0" width="200" height="50" class="background" /><g transform="translate(82, 10)" class="plot"><rect x="0" y="0" width="108.0" height="30" class="background" /><g class="axis y always_show"><path d="M0.000000 30.000000 h108.000000" class="line" /><g class="guides"><path d="M0.000000 29.423077 h108.000000" class="guide line" /><text x="-5" y="32.92307692307692" class="">0.9751461529</text><title>0.9751461529</title></g><g class="guides"><path d="M0.000000 0.576923 h108.000000" class="guide line" /><text x="-5" y="4.076923076923077" class="">7.001546469</text><title>7.001546469</title></g></g><g class="series serie-0 color-0"><path d="M2.076923 19.730849 L2.128846 19.783708 2.180769 19.836565 2.232692 19.889420 2.284615 19.942271 2.336538 19.995116 2.388462 20.047953 2.440385 20.100783 2.492308 20.153603 2.544231 20.206411 2.596154 20.259207 2.648077 20.311989 2.700000 20.364756 2.751923 20.417506 2.803846 20.470237 2.855769 20.522949 2.907692 20.575641 2.959615 20.628309 3.011538 20.680954 3.063462 20.733574 3.115385 20.786167 3.167308 20.838733 3.219231 20.891268 3.271154 20.943774 3.323077 20.996247 3.375000 21.048686 3.426923 21.101090 3.478846 21.153458 3.530769 21.205789 3.582692 21.258080 3.634615 21.310331 3.686538 21.362539 3.738462 21.414705 3.790385 21.466825 3.842308 21.518900 3.894231 21.570926 3.946154 21.622904 3.998077 21.674832 4.050000 21.726708 4.101923 21.778531 4.153846 21.830299 4.205769 21.882011 4.257692 21.933666 4.309615 21.985262 4.361538 22.036798 4.413462 22.088273 4.465385 22.139684 4.517308 22.191032 4.569231 22.242313 4.621154 22.293528 4.673077 22.344674 4.725000 22.395750 4.776923 22.446754 4.828846 22.497686 4.880769 22.548544 4.932692 22.599327 4.984615 22.650032 5.036538 22.700659 5.088462 22.751207 5.140385 22.801673 5.192308 22.852057 5.244231 22.902357 5.296154 22.952571 5.348077 23.002699 5.400000 23.052739 5.451923 23.102690 5.503846 23.152549 5.555769 23.202316 5.607692 23.251990 5.659615 23.301568 5.711538 23.351050 5.763462 23.400434 5.815385 23.449719 5.867308 23.498903 5.919231 23.547985 5.971154 23.596963 6.023077 23.645837 6.075000 23.694604 6.126923 23.743264 6.178846 23.791814 6.230769 23.840255 6.282692 23.888583 6.334615 23.936798 6.386538 23.984898 6.438462 24.032883 6.490385 24.080749 6.542308 24.128497 6.594231 24.176125 6.646154 24.223631 6.698077 24.271014 6.750000 24.318273 6.801923 24.365405 6.853846 24.412411 6.905769 24.459287 6.957692 24.506034 7.009615 24.552649 7.061538 24.599132 7.113462 24.645480 7.165385 24.691693 7.217308 24.737768 7.269231 24.783705 7.321154 24.829503 7.373077 24.875159 7.425000 24.920672 7.476923 24.966041 7.528846 25.011265 7.580769 25.056342 7.632692 25.101271 7.684615 25.146051 7.736538 25.190679 7.788462 25.235155 7.840385 25.279477 7.892308 25.323644 7.944231 25.367654 7.996154 25.411506 8.048077 25.455199 8.100000 25.498731 8.151923 25.542100 8.203846 25.585306 8.255769 25.628348 8.307692 25.671222 8.359615 25.713929 8.411538 25.756467 8.463462 25.798834 8.515385 25.841029 8.567308 25.883051 8.619231 25.924898 8.671154 25.966569 8.723077 26.008062 8.775000 26.049376 8.826923 26.090510 8.878846 26.131462 8.930769 26.172231 8.982692 26.212815 9.034615 26.253213 9.086538 26.293424 9.138462 26.333446 9.190385 26.373278 9.242308 26.412918 9.294231 26.452366 9.346154 26.491619 9.398077 26.530676 9.450000 26.569536 9.501923 26.608198 9.553846 26.646659 9.605769 26.684919 9.657692 26.722977 9.709615 26.760830 9.761538 26.798478 9.813462 26.835918 9.865385 26.873151 9.917308 26.910173 9.969231 26.946985 10.021154 26.983584 10.073077 27.019969 10.125000 27.056139 10.176923 27.092091 10.228846 27.127826 10.280769 27.163341 10.332692 27.198636 10.384615 27.233708 10.436538 27.268556 10.488462 27.303179 10.540385 27.337576 10.592308 27.371744 10.644231 27.405684 10.696154 27.439392 10.748077 27.472869 10.800000 27.506112 10.851923 27.539120 10.903846 27.571891 10.955769 27.604425 11.007692 27.636720 11.059615 27.668774 11.111538 27.700587 11.163462 27.732156 11.215385 27.763480 11.267308 27.794559 11.319231 27.825389 11.371154 27.855971 11.423077 27.886303 11.475000 27.916383 11.526923 27.946209 11.578846 27.975782 11.630769 28.005098 11.682692 28.034157 11.734615 28.062958 11.786538 28.091498 11.838462 28.119777 11.890385 28.147793 11.942308 28.175544 11.994231 28.203030 12.046154 28.230249 12.098077 28.257199 12.150000 28.283880 12.201923 28.310289 12.253846 28.336426 12.305769 28.362288 12.357692 28.387875 12.409615 28.413185 12.461538 28.438217 12.513462 28.462969 12.565385 28.487440 12.617308 28.511629 12.669231 28.535534 12.721154 28.559153 12.773077 28.582486 12.825000 28.605531 12.876923 28.628286 12.928846 28.650751 12.980769 28.672923 13.032692 28.694801 13.084615 28.716385 13.136538 28.737672 13.188462 28.758661 13.240385 28.779351 13.292308 28.799741 13.344231 28.819828 13.396154 28.839612 13.448077 28.859091 13.500000 28.878264 13.551923 28.897129 13.603846 28.915685 13.655769 28.933930 13.707692 28.951864 13.759615 28.969485 13.811538 28.986791 13.863462 29.003781 13.915385 29.020453 13.967308 29.036807 14.019231 29.052841 14.071154 29.068553 14.123077 29.083941 14.175000 29.099006 14.226923 29.113744 14.278846 29.128156 14.330769 29.142239 14.382692 29.155991 14.434615 29.169413 14.486538 29.182501 14.538462 29.195256 14.590385 29.207675 14.642308 29.219756 14.694231 29.231500 14.746154 29.242903 14.798077 29.253966 14.850000 29.264686 14.901923 29.275061 14.953846 29.285092 15.005769 29.294775 15.057692 29.304111 15.109615 29.313097 15.161538 29.321733 15.213462 29.330019 15.265385 29.337954 15.317308 29.345538 15.369231 29.352770 15.421154 29.359651 15.473077 29.366180 15.525000 29.372356 15.576923 29.378180 15.628846 29.383650 15.680769 29.388767 15.732692 29.393530 15.784615 29.397938 15.836538 29.401992 15.888462 29.405691 15.940385 29.409035 15.992308 29.412023 16.044231 29.414655 16.096154 29.416930 16.148077 29.418849 16.200000 29.420410 16.251923 29.421614 16.303846 29.422460 16.355769 29.422948 16.407692 29.423077 16.459615 29.422847 16.511538 29.422258 16.563462 29.421309 16.615385 29.420000 16.667308 29.418331 16.719231 29.416301 16.771154 29.413910 16.823077 29.411158 16.875000 29.408043 16.926923 29.404566 16.978846 29.400727 17.030769 29.396525 17.082692 29.391960 17.134615 29.387031 17.186538 29.381737 17.238462 29.376080 17.290385 29.370058 17.342308 29.363671 17.394231 29.356918 17.446154 29.349799 17.498077 29.342315 17.550000 29.334463 17.601923 29.326245 17.653846 29.317660 17.705769 29.308707 17.757692 29.299386 17.809615 29.289697 17.861538 29.279639 17.913462 29.269212 17.965385 29.258415 18.017308 29.247249 18.069231 29.235713 18.121154 29.223806 18.173077 29.211528 18.225000 29.198879 18.276923 29.185858 18.328846 29.172466 18.380769 29.158701 18.432692 29.144564 18.484615 29.130053 18.536538 29.115170 18.588462 29.099912 18.640385 29.084280 18.692308 29.068274 18.744231 29.051893 18.796154 29.035137 18.848077 29.018005 18.900000 29.000498 18.951923 28.982614 19.003846 28.964353 19.055769 28.945716 19.107692 28.926701 19.159615 28.907308 19.211538 28.887538 19.263462 28.867389 19.315385 28.846861 19.367308 28.825954 19.419231 28.804668 19.471154 28.783001 19.523077 28.760955 19.575000 28.738527 19.626923 28.715719 19.678846 28.692530 19.730769 28.668959 19.782692 28.645006 19.834615 28.620670 19.886538 28.595952 19.938462 28.570850 19.990385 28.545365 20.042308 28.519497 20.094231 28.493244 20.146154 28.466606 20.198077 28.439584 20.250000 28.412176 20.301923 28.384383 20.353846 28.356203 20.405769 28.327638 20.457692 28.298685 20.509615 28.269346 20.561538 28.239619 20.613462 28.209504 20.665385 28.179001 20.717308 28.148110 20.769231 28.116829 20.821154 28.085160 20.873077 28.053101 20.925000 28.020651 20.976923 27.987812 21.028846 27.954582 21.080769 27.920961 21.132692 27.886948 21.184615 27.852544 21.236538 27.817747 21.288462 27.782558 21.340385 27.746976 21.392308 27.711001 21.444231 27.674632 21.496154 27.637870 21.548077 27.600713 21.600000 27.563161 21.651923 27.525215 21.703846 27.486873 21.755769 27.448135 21.807692 27.409002 21.859615 27.369471 21.911538 27.329544 21.963462 27.289220 22.015385 27.248498 22.067308 27.207379 22.119231 27.165861 22.171154 27.123944 22.223077 27.081629 22.275000 27.038914 22.326923 26.995800 22.378846 26.952285 22.430769 26.908370 22.482692 26.864054 22.534615 26.819337 22.586538 26.774219 22.638462 26.728698 22.690385 26.682776 22.742308 26.636451 22.794231 26.589723 22.846154 26.542591 22.898077 26.495056 22.950000 26.447117 23.001923 26.398774 23.053846 26.350025 23.105769 26.300872 23.157692 26.251313 23.209615 26.201349 23.261538 26.150978 23.313462 26.100201 23.365385 26.049016 23.417308 25.997425 23.469231 25.945426 23.521154 25.893018 23.573077 25.840203 23.625000 25.786979 23.676923 25.733345 23.728846 25.679303 23.780769 25.624850 23.832692 25.569987 23.884615 25.514714 23.936538 25.459030 23.988462 25.402935 24.040385 25.346428 24.092308 25.289509 24.144231 25.232178 24.196154 25.174434 24.248077 25.116277 24.300000 25.057706 24.351923 24.998722 24.403846 24.939324 24.455769 24.879511 24.507692 24.819284 24.559615 24.758641 24.611538 24.697583 24.663462 24.636108 24.715385 24.574218 24.767308 24.511911 24.819231 24.449186 24.871154 24.386045 24.923077 24.322486 24.975000 24.258508 25.026923 24.194112 25.078846 24.129298 25.130769 24.064064 25.182692 23.998410 25.234615 23.932337 25.286538 23.865844 25.338462 23.798930 25.390385 23.731595 25.442308 23.663838 25.494231 23.595660 25.546154 23.527060 25.598077 23.458037 25.650000 23.388592 25.701923 23.318723 25.753846 23.248431 25.805769 23.177716 25.857692 23.106576 25.909615 23.035011 25.961538 22.963021 26.013462 22.890606 26.065385 22.817766 26.117308 22.744499 26.169231 22.670806 26.221154 22.596687 26.273077 22.522140 26.325000 22.447166 26.376923 22.371764 26.428846 22.295933 26.480769 22.219675 26.532692 22.142987 26.584615 22.065870 26.636538 21.988323 26.688462 21.910347 26.740385 21.831940 26.792308 21.753102 26.844231 21.673833 26.896154 21.594133 26.948077 21.514001 27.000000 21.433437 27.051923 21.352441 27.103846 21.271011 27.155769 21.189149 27.207692 21.106852 27.259615 21.024122 27.311538 20.940957 27.363462 20.857358 27.415385 20.773324 27.467308 20.688854 27.519231 20.603949 27.571154 20.518607 27.623077 20.432829 27.675000 20.346615 27.726923 20.259963 27.778846 20.172873 27.830769 20.085345 27.882692 19.997380 27.934615 19.908975 27.986538 19.820132 28.038462 19.730849 28.090385 19.641128 28.142308 19.550973 28.194231 19.460392 28.246154 19.369390 28.298077 19.277975 28.350000 19.186153 28.401923 19.093930 28.453846 19.001313 28.505769 18.908309 28.557692 18.814923 28.609615 18.721163 28.661538 18.627035 28.713462 18.532545 28.765385 18.437700 28.817308 18.342507 28.869231 18.246972 28.921154 18.151101 28.973077 18.054902 29.025000 17.958380 29.076923 17.861542 29.128846 17.764394 29.180769 17.666944 29.232692 17.569198 29.284615 17.471161 29.336538 17.372842 29.388462 17.274245 29.440385 17.175378 29.492308 17.076248 29.544231 16.976860 29.596154 16.877221 29.648077 16.777339 29.700000 16.677218 29.751923 16.576866 29.803846 16.476290 29.855769 16.375496 29.907692 16.274489 29.959615 16.173278 30.011538 16.071868 30.063462 15.970266 30.115385 15.868479 30.167308 15.766512 30.219231 15.664373 30.271154 15.562068 30.323077 15.459603 30.375000 15.356986 30.426923 15.254222 30.478846 15.151317 30.530769 15.048280 30.582692 14.945116 30.634615 14.841831 30.686538 14.738432 30.738462 14.634926 30.790385 14.531319 30.842308 14.427618 30.894231 14.323829 30.946154 14.219958 30.998077 14.116013 31.050000 14.011999 31.101923 13.907924 31.153846 13.803794 31.205769 13.699614 31.257692 13.595393 31.309615 13.491136 31.361538 13.386850 31.413462 13.282541 31.465385 13.178216 31.517308 13.073881 31.569231 12.969543 31.621154 12.865209 31.673077 12.760884 31.725000 12.656576 31.776923 12.552291 31.828846 12.448036 31.880769 12.343816 31.932692 12.239639 31.984615 12.135511 32.036538 12.031438 32.088462 11.927428 32.140385 11.823486 32.192308 11.719619 32.244231 11.615834 32.296154 11.512137 32.348077 11.408535 32.400000 11.305034 32.451923 11.201640 32.503846 11.098361 32.555769 10.995202 32.607692 10.892170 32.659615 10.789273 32.711538 10.686515 32.763462 10.583905 32.815385 10.481447 32.867308 10.379150 32.919231 10.277019 32.971154 10.175060 33.023077 10.073281 33.075000 9.971688 33.126923 9.870287 33.178846 9.769085 33.230769 9.668089 33.282692 9.567305 33.334615 9.466739 33.386538 9.366397 33.438462 9.266288 33.490385 9.166416 33.542308 9.066789 33.594231 8.967413 33.646154 8.868295 33.698077 8.769441 33.750000 8.670857 33.801923 8.572550 33.853846 8.474527 33.905769 8.376794 33.957692 8.279358 34.009615 8.182225 34.061538 8.085402 34.113462 7.988895 34.165385 7.892710 34.217308 7.796855 34.269231 7.701336 34.321154 7.606159 34.373077 7.511330 34.425000 7.416857 34.476923 7.322746 34.528846 7.229003 34.580769 7.135635 34.632692 7.042649 34.684615 6.950050 34.736538 6.857845 34.788462 6.766042 34.840385 6.674646 34.892308 6.583664 34.944231 6.493103 34.996154 6.402968 35.048077 6.313267 35.100000 6.224006 35.151923 6.135192 35.203846 6.046830 35.255769 5.958928 35.307692 5.871493 35.359615 5.784530 35.411538 5.698046 35.463462 5.612047 35.515385 5.526541 35.567308 5.441533 35.619231 5.357031 35.671154 5.273041 35.723077 5.189568 35.775000 5.106620 35.826923 5.024204 35.878846 4.942325 35.930769 4.860991 35.982692 4.780208 36.034615 4.699981 36.086538 4.620319 36.138462 4.541227 36.190385 4.462712 36.242308 4.384780 36.294231 4.307438 36.346154 4.230693 36.398077 4.154550 36.450000 4.079017 36.501923 4.004100 36.553846 3.929806 36.605769 3.856140 36.657692 3.783110 36.709615 3.710722 36.761538 3.638983 36.813462 3.567899 36.865385 3.497476 36.917308 3.427721 36.969231 3.358641 37.021154 3.290242 37.073077 3.222531 37.125000 3.155514 37.176923 3.089198 37.228846 3.023589 37.280769 2.958693 37.332692 2.894518 37.384615 2.831070 37.436538 2.768355 37.488462 2.706379 37.540385 2.645150 37.592308 2.584674 37.644231 2.524957 37.696154 2.466006 37.748077 2.407827 37.800000 2.350428 37.851923 2.293813 37.903846 2.237991 37.955769 2.182967 38.007692 2.128748 38.059615 2.075340 38.111538 2.022751 38.163462 1.970986 38.215385 1.920052 38.267308 1.869955 38.319231 1.820703 38.371154 1.772301 38.423077 1.724756 38.475000 1.678075 38.526923 1.632264 38.578846 1.587330 38.630769 1.543278 38.682692 1.500117 38.734615 1.457851 38.786538 1.416489 38.838462 1.376035 38.890385 1.336497 38.942308 1.297882 38.994231 1.260195 39.046154 1.223444 39.098077 1.187634 39.150000 1.152773 39.201923 1.118867 39.253846 1.085922 39.305769 1.053944 39.357692 1.022942 39.409615 0.992920 39.461538 0.963885 39.513462 0.935845 39.565385 0.908805 39.617308 0.882772 39.669231 0.857752 39.721154 0.833752 39.773077 0.810779 39.825000 0.788839 39.876923 0.767939 39.928846 0.748084 39.980769 0.729283 40.032692 0.711540 40.084615 0.694863 40.136538 0.679258 40.188462 0.664731 40.240385 0.651290 40.292308 0.638941 40.344231 0.627690 40.396154 0.617543 40.448077 0.608508 40.500000 0.600590 40.551923 0.593797 40.603846 0.588135 40.655769 0.583610 40.707692 0.580228 40.759615 0.577997 40.811538 0.576923 40.863462 0.577012 40.915385 0.578271 40.967308 0.580707 41.019231 0.584325 41.071154 0.589131 41.123077 0.595119 41.175000 0.602281 41.226923 0.610611 41.278846 0.620101 41.330769 0.630744 41.382692 0.642533 41.434615 0.655459 41.486538 0.669517 41.538462 0.684697 41.590385 0.700995 41.642308 0.718400 41.694231 0.736908 41.746154 0.756510 41.798077 0.777198 41.850000 0.798966 41.901923 0.821807 41.953846 0.845712 42.005769 0.870675 42.057692 0.896688 42.109615 0.923744 42.161538 0.951836 42.213462 0.980956 42.265385 1.011097 42.317308 1.042251 42.369231 1.074412 42.421154 1.107572 42.473077 1.141723 42.525000 1.176859 42.576923 1.212972 42.628846 1.250054 42.680769 1.288099 42.732692 1.327099 42.784615 1.367046 42.836538 1.407934 42.888462 1.449755 42.940385 1.492502 42.992308 1.536167 43.044231 1.580743 43.096154 1.626223 43.148077 1.672600 43.200000 1.719865 43.251923 1.768012 43.303846 1.817034 43.355769 1.866923 43.407692 1.917671 43.459615 1.969272 43.511538 2.021719 43.563462 2.075003 43.615385 2.129117 43.667308 2.184055 43.719231 2.239808 43.771154 2.296370 43.823077 2.353734 43.875000 2.411891 43.926923 2.470835 43.978846 2.530557 44.030769 2.591052 44.082692 2.652312 44.134615 2.714328 44.186538 2.777095 44.238462 2.840604 44.290385 2.904848 44.342308 2.969821 44.394231 3.035513 44.446154 3.101920 44.498077 3.169032 44.550000 3.236843 44.601923 3.305345 44.653846 3.374531 44.705769 3.444394 44.757692 3.514926 44.809615 3.586120 44.861538 3.657969 44.913462 3.730465 44.965385 3.803601 45.017308 3.877370 45.069231 3.951765 45.121154 4.026777 45.173077 4.102400 45.225000 4.178627 45.276923 4.255449 45.328846 4.332861 45.380769 4.410853 45.432692 4.489420 45.484615 4.568554 45.536538 4.648247 45.588462 4.728492 45.640385 4.809283 45.692308 4.890610 45.744231 4.972468 45.796154 5.054848 45.848077 5.137745 45.900000 5.221149 45.951923 5.305054 46.003846 5.389453 46.055769 5.474337 46.107692 5.559701 46.159615 5.645536 46.211538 5.731836 46.263462 5.818592 46.315385 5.905798 46.367308 5.993446 46.419231 6.081530 46.471154 6.170040 46.523077 6.258971 46.575000 6.348315 46.626923 6.438065 46.678846 6.528213 46.730769 6.618752 46.782692 6.709674 46.834615 6.800973 46.886538 6.892641 46.938462 6.984671 46.990385 7.077055 47.042308 7.169785 47.094231 7.262856 47.146154 7.356259 47.198077 7.449987 47.250000 7.544033 47.301923 7.638389 47.353846 7.733048 47.405769 7.828003 47.457692 7.923246 47.509615 8.018771 47.561538 8.114569 47.613462 8.210634 47.665385 8.306958 47.717308 8.403533 47.769231 8.500353 47.821154 8.597410 47.873077 8.694697 47.925000 8.792207 47.976923 8.889931 48.028846 8.987864 48.080769 9.085997 48.132692 9.184323 48.184615 9.282835 48.236538 9.381526 48.288462 9.480388 48.340385 9.579413 48.392308 9.678596 48.444231 9.777927 48.496154 9.877401 48.548077 9.977009 48.600000 10.076744 48.651923 10.176599 48.703846 10.276567 48.755769 10.376640 48.807692 10.476811 48.859615 10.577073 48.911538 10.677418 48.963462 10.777839 49.015385 10.878328 49.067308 10.978879 49.119231 11.079484 49.171154 11.180136 49.223077 11.280827 49.275000 11.381550 49.326923 11.482298 49.378846 11.583063 49.430769 11.683838 49.482692 11.784616 49.534615 11.885390 49.586538 11.986151 49.638462 12.086893 49.690385 12.187609 49.742308 12.288290 49.794231 12.388931 49.846154 12.489523 49.898077 12.590059 49.950000 12.690532 50.001923 12.790934 50.053846 12.891259 50.105769 12.991498 50.157692 13.091645 50.209615 13.191692 50.261538 13.291631 50.313462 13.391457 50.365385 13.491160 50.417308 13.590735 50.469231 13.690173 50.521154 13.789467 50.573077 13.888610 50.625000 13.987595 50.676923 14.086414 50.728846 14.185060 50.780769 14.283525 50.832692 14.381803 50.884615 14.479885 50.936538 14.577766 50.988462 14.675436 51.040385 14.772890 51.092308 14.870119 51.144231 14.967116 51.196154 15.063875 51.248077 15.160387 51.300000 15.256646 51.351923 15.352643 51.403846 15.448372 51.455769 15.543826 51.507692 15.638996 51.559615 15.733877 51.611538 15.828460 51.663462 15.922737 51.715385 16.016703 51.767308 16.110349 51.819231 16.203668 51.871154 16.296653 51.923077 16.389296 51.975000 16.481590 52.026923 16.573528 52.078846 16.665103 52.130769 16.756307 52.182692 16.847132 52.234615 16.937572 52.286538 17.027619 52.338462 17.117266 52.390385 17.206506 52.442308 17.295331 52.494231 17.383733 52.546154 17.471706 52.598077 17.559243 52.650000 17.646335 52.701923 17.732976 52.753846 17.819158 52.805769 17.904873 52.857692 17.990116 52.909615 18.074878 52.961538 18.159151 53.013462 18.242930 53.065385 18.326205 53.117308 18.408971 53.169231 18.491219 53.221154 18.572942 53.273077 18.654134 53.325000 18.734786 53.376923 18.814891 53.428846 18.894443 53.480769 18.973433 53.532692 19.051854 53.584615 19.129699 53.636538 19.206962 53.688462 19.283633 53.740385 19.359707 53.792308 19.435175 53.844231 19.510031 53.896154 19.584266 53.948077 19.657875 54.000000 19.730849 54.051923 19.803182 54.103846 19.874875 54.155769 19.945926 54.207692 20.016338 54.259615 20.086111 54.311538 20.155246 54.363462 20.223744 54.415385 20.291604 54.467308 20.358828 54.519231 20.425417 54.571154 20.491372 54.623077 20.556692 54.675000 20.621380 54.726923 20.685435 54.778846 20.748858 54.830769 20.811650 54.882692 20.873812 54.934615 20.935344 54.986538 20.996248 55.038462 21.056524 55.090385 21.116172 55.142308 21.175193 55.194231 21.233589 55.246154 21.291360 55.298077 21.348506 55.350000 21.405028 55.401923 21.460928 55.453846 21.516205 55.505769 21.570861 55.557692 21.624896 55.609615 21.678311 55.661538 21.731106 55.713462 21.783283 55.765385 21.834842 55.817308 21.885784 55.869231 21.936109 55.921154 21.985819 55.973077 22.034914 56.025000 22.083395 56.076923 22.131262 56.128846 22.178516 56.180769 22.225158 56.232692 22.271189 56.284615 22.316609 56.336538 22.361420 56.388462 22.405621 56.440385 22.449214 56.492308 22.492199 56.544231 22.534577 56.596154 22.576349 56.648077 22.617516 56.700000 22.658078 56.751923 22.698035 56.803846 22.737390 56.855769 22.776142 56.907692 22.814292 56.959615 22.851840 57.011538 22.888789 57.063462 22.925137 57.115385 22.960887 57.167308 22.996039 57.219231 23.030593 57.271154 23.064550 57.323077 23.097911 57.375000 23.130677 57.426923 23.162849 57.478846 23.194426 57.530769 23.225410 57.582692 23.255802 57.634615 23.285603 57.686538 23.314812 57.738462 23.343431 57.790385 23.371461 57.842308 23.398902 57.894231 23.425755 57.946154 23.452020 57.998077 23.477699 58.050000 23.502793 58.101923 23.527301 58.153846 23.551224 58.205769 23.574564 58.257692 23.597321 58.309615 23.619496 58.361538 23.641090 58.413462 23.662102 58.465385 23.682535 58.517308 23.702388 58.569231 23.721663 58.621154 23.740360 58.673077 23.758480 58.725000 23.776023 58.776923 23.792991 58.828846 23.809384 58.880769 23.825203 58.932692 23.840448 58.984615 23.855120 59.036538 23.869221 59.088462 23.882750 59.140385 23.895709 59.192308 23.908097 59.244231 23.919917 59.296154 23.931168 59.348077 23.941852 59.400000 23.951969 59.451923 23.961519 59.503846 23.970504 59.555769 23.978925 59.607692 23.986781 59.659615 23.994074 59.711538 24.000805 59.763462 24.006974 59.815385 24.012581 59.867308 24.017628 59.919231 24.022116 59.971154 24.026045 60.023077 24.029415 60.075000 24.032228 60.126923 24.034485 60.178846 24.036185 60.230769 24.037330 60.282692 24.037921 60.334615 24.037958 60.386538 24.037441 60.438462 24.036373 60.490385 24.034752 60.542308 24.032581 60.594231 24.029860 60.646154 24.026589 60.698077 24.022769 60.750000 24.018402 60.801923 24.013487 60.853846 24.008026 60.905769 24.002019 60.957692 23.995466 61.009615 23.988370 61.061538 23.980730 61.113462 23.972547 61.165385 23.963821 61.217308 23.954555 61.269231 23.944747 61.321154 23.934400 61.373077 23.923513 61.425000 23.912088 61.476923 23.900125 61.528846 23.887625 61.580769 23.874589 61.632692 23.861017 61.684615 23.846910 61.736538 23.832269 61.788462 23.817095 61.840385 23.801388 61.892308 23.785149 61.944231 23.768378 61.996154 23.751078 62.048077 23.733247 62.100000 23.714887 62.151923 23.695999 62.203846 23.676584 62.255769 23.656641 62.307692 23.636173 62.359615 23.615179 62.411538 23.593660 62.463462 23.571617 62.515385 23.549051 62.567308 23.525963 62.619231 23.502353 62.671154 23.478221 62.723077 23.453570 62.775000 23.428399 62.826923 23.402708 62.878846 23.376500 62.930769 23.349775 62.982692 23.322532 63.034615 23.294774 63.086538 23.266501 63.138462 23.237713 63.190385 23.208411 63.242308 23.178596 63.294231 23.148269 63.346154 23.117430 63.398077 23.086081 63.450000 23.054221 63.501923 23.021852 63.553846 22.988974 63.605769 22.955589 63.657692 22.921696 63.709615 22.887296 63.761538 22.852391 63.813462 22.816981 63.865385 22.781066 63.917308 22.744648 63.969231 22.707727 64.021154 22.670304 64.073077 22.632380 64.125000 22.593955 64.176923 22.555030 64.228846 22.515605 64.280769 22.475683 64.332692 22.435262 64.384615 22.394345 64.436538 22.352931 64.488462 22.311021 64.540385 22.268617 64.592308 22.225719 64.644231 22.182327 64.696154 22.138443 64.748077 22.094066 64.800000 22.049199 64.851923 22.003841 64.903846 21.957993 64.955769 21.911656 65.007692 21.864831 65.059615 21.817519 65.111538 21.769719 65.163462 21.721434 65.215385 21.672663 65.267308 21.623407 65.319231 21.573668 65.371154 21.523445 65.423077 21.472740 65.475000 21.421553 65.526923 21.369885 65.578846 21.317737 65.630769 21.265109 65.682692 21.212002 65.734615 21.158418 65.786538 21.104356 65.838462 21.049817 65.890385 20.994802 65.942308 20.939313 65.994231 20.883348 66.046154 20.826910 66.098077 20.769999 66.150000 20.712616 66.201923 20.654761 66.253846 20.596436 66.305769 20.537640 66.357692 20.478375 66.409615 20.418641 66.461538 20.358440 66.513462 20.297771 66.565385 20.236636 66.617308 20.175035 66.669231 20.112969 66.721154 20.050439 66.773077 19.987445 66.825000 19.923988 66.876923 19.860070 66.928846 19.795690 66.980769 19.730849 67.032692 19.665549 67.084615 19.599796 67.136538 19.533596 67.188462 19.466954 67.240385 19.399877 67.292308 19.332372 67.344231 19.264444 67.396154 19.196100 67.448077 19.127346 67.500000 19.058189 67.551923 18.988634 67.603846 18.918689 67.655769 18.848358 67.707692 18.777648 67.759615 18.706567 67.811538 18.635119 67.863462 18.563311 67.915385 18.491150 67.967308 18.418641 68.019231 18.345791 68.071154 18.272606 68.123077 18.199093 68.175000 18.125257 68.226923 18.051105 68.278846 17.976643 68.330769 17.901878 68.382692 17.826815 68.434615 17.751462 68.486538 17.675823 68.538462 17.599906 68.590385 17.523716 68.642308 17.447260 68.694231 17.370545 68.746154 17.293576 68.798077 17.216359 68.850000 17.138901 68.901923 17.061209 68.953846 16.983288 69.005769 16.905144 69.057692 16.826785 69.109615 16.748215 69.161538 16.669442 69.213462 16.590472 69.265385 16.511311 69.317308 16.431965 69.369231 16.352440 69.421154 16.272743 69.473077 16.192879 69.525000 16.112856 69.576923 16.032680 69.628846 15.952356 69.680769 15.871891 69.732692 15.791291 69.784615 15.710562 69.836538 15.629711 69.888462 15.548745 69.940385 15.467668 69.992308 15.386488 70.044231 15.305210 70.096154 15.223841 70.148077 15.142388 70.200000 15.060856 70.251923 14.979252 70.303846 14.897581 70.355769 14.815851 70.407692 14.734067 70.459615 14.652236 70.511538 14.570364 70.563462 14.488457 70.615385 14.406522 70.667308 14.324564 70.719231 14.242590 70.771154 14.160606 70.823077 14.078619 70.875000 13.996635 70.926923 13.914659 70.978846 13.832699 71.030769 13.750760 71.082692 13.668849 71.134615 13.586972 71.186538 13.505135 71.238462 13.423344 71.290385 13.341606 71.342308 13.259928 71.394231 13.178314 71.446154 13.096772 71.498077 13.015307 71.550000 12.933927 71.601923 12.852637 71.653846 12.771443 71.705769 12.690352 71.757692 12.609370 71.809615 12.528503 71.861538 12.447758 71.913462 12.367140 71.965385 12.286656 72.017308 12.206313 72.069231 12.126116 72.121154 12.046072 72.173077 11.966186 72.225000 11.886466 72.276923 11.806918 72.328846 11.727547 72.380769 11.648360 72.432692 11.569364 72.484615 11.490564 72.536538 11.411967 72.588462 11.333578 72.640385 11.255405 72.692308 11.177454 72.744231 11.099730 72.796154 11.022240 72.848077 10.944991 72.900000 10.867988 72.951923 10.791238 73.003846 10.714746 73.055769 10.638520 73.107692 10.562566 73.159615 10.486889 73.211538 10.411496 73.263462 10.336394 73.315385 10.261588 73.367308 10.187085 73.419231 10.112891 73.471154 10.039012 73.523077 9.965455 73.575000 9.892225 73.626923 9.819329 73.678846 9.746774 73.730769 9.674565 73.782692 9.602710 73.834615 9.531213 73.886538 9.460081 73.938462 9.389321 73.990385 9.318939 74.042308 9.248940 74.094231 9.179332 74.146154 9.110121 74.198077 9.041312 74.250000 8.972912 74.301923 8.904928 74.353846 8.837365 74.405769 8.770230 74.457692 8.703529 74.509615 8.637269 74.561538 8.571455 74.613462 8.506093 74.665385 8.441191 74.717308 8.376754 74.769231 8.312789 74.821154 8.249301 74.873077 8.186298 74.925000 8.123784 74.976923 8.061768 75.028846 8.000254 75.080769 7.939249 75.132692 7.878759 75.184615 7.818792 75.236538 7.759351 75.288462 7.700445 75.340385 7.642080 75.392308 7.584261 75.444231 7.526994 75.496154 7.470287 75.548077 7.414145 75.600000 7.358575 75.651923 7.303582 75.703846 7.249174 75.755769 7.195356 75.807692 7.142134 75.859615 7.089515 75.911538 7.037506 75.963462 6.986112 76.015385 6.935339 76.067308 6.885194 76.119231 6.835683 76.171154 6.786813 76.223077 6.738589 76.275000 6.691018 76.326923 6.644106 76.378846 6.597860 76.430769 6.552285 76.482692 6.507388 76.534615 6.463175 76.586538 6.419652 76.638462 6.376826 76.690385 6.334703 76.742308 6.293289 76.794231 6.252590 76.846154 6.212613 76.898077 6.173364 76.950000 6.134848 77.001923 6.097074 77.053846 6.060046 77.105769 6.023770 77.157692 5.988254 77.209615 5.953503 77.261538 5.919524 77.313462 5.886323 77.365385 5.853906 77.417308 5.822279 77.469231 5.791449 77.521154 5.761421 77.573077 5.732203 77.625000 5.703800 77.676923 5.676219 77.728846 5.649466 77.780769 5.623547 77.832692 5.598468 77.884615 5.574236 77.936538 5.550856 77.988462 5.528336 78.040385 5.506681 78.092308 5.485898 78.144231 5.465993 78.196154 5.446972 78.248077 5.428841 78.300000 5.411607 78.351923 5.395276 78.403846 5.379854 78.455769 5.365348 78.507692 5.351763 78.559615 5.339106 78.611538 5.327383 78.663462 5.316600 78.715385 5.306765 78.767308 5.297882 78.819231 5.289958 78.871154 5.283000 78.923077 5.277013 78.975000 5.272004 79.026923 5.267980 79.078846 5.264946 79.130769 5.262908 79.182692 5.261874 79.234615 5.261848 79.286538 5.262838 79.338462 5.264850 79.390385 5.267890 79.442308 5.271963 79.494231 5.277078 79.546154 5.283238 79.598077 5.290452 79.650000 5.298725 79.701923 5.308064 79.753846 5.318474 79.805769 5.329962 79.857692 5.342534 79.909615 5.356197 79.961538 5.370956 80.013462 5.386816 80.065385 5.403772 80.117308 5.421816 80.169231 5.440941 80.221154 5.461139 80.273077 5.482403 80.325000 5.504727 80.376923 5.528102 80.428846 5.552520 80.480769 5.577976 80.532692 5.604461 80.584615 5.631968 80.636538 5.660490 80.688462 5.690019 80.740385 5.720549 80.792308 5.752070 80.844231 5.784578 80.896154 5.818063 80.948077 5.852518 81.000000 5.887937 81.051923 5.924312 81.103846 5.961635 81.155769 5.999900 81.207692 6.039098 81.259615 6.079223 81.311538 6.120267 81.363462 6.162223 81.415385 6.205083 81.467308 6.248840 81.519231 6.293487 81.571154 6.339016 81.623077 6.385420 81.675000 6.432692 81.726923 6.480825 81.778846 6.529810 81.830769 6.579641 81.882692 6.630310 81.934615 6.681809 81.986538 6.734133 82.038462 6.787272 82.090385 6.841221 82.142308 6.895971 82.194231 6.951515 82.246154 7.007846 82.298077 7.064956 82.350000 7.122838 82.401923 7.181485 82.453846 7.240890 82.505769 7.301044 82.557692 7.361941 82.609615 7.423573 82.661538 7.485934 82.713462 7.549015 82.765385 7.612809 82.817308 7.677309 82.869231 7.742507 82.921154 7.808397 82.973077 7.874971 83.025000 7.942221 83.076923 8.010140 83.128846 8.078721 83.180769 8.147956 83.232692 8.217839 83.284615 8.288361 83.336538 8.359515 83.388462 8.431295 83.440385 8.503692 83.492308 8.576700 83.544231 8.650310 83.596154 8.724516 83.648077 8.799310 83.700000 8.874686 83.751923 8.950634 83.803846 9.027149 83.855769 9.104223 83.907692 9.181848 83.959615 9.260018 84.011538 9.338724 84.063462 9.417959 84.115385 9.497717 84.167308 9.577990 84.219231 9.658769 84.271154 9.740049 84.323077 9.821821 84.375000 9.904079 84.426923 9.986815 84.478846 10.070021 84.530769 10.153691 84.582692 10.237816 84.634615 10.322390 84.686538 10.407405 84.738462 10.492854 84.790385 10.578730 84.842308 10.665024 84.894231 10.751731 84.946154 10.838842 84.998077 10.926350 85.050000 11.014247 85.101923 11.102527 85.153846 11.191182 85.205769 11.280205 85.257692 11.369588 85.309615 11.459324 85.361538 11.549405 85.413462 11.639825 85.465385 11.730576 85.517308 11.821650 85.569231 11.913041 85.621154 12.004740 85.673077 12.096741 85.725000 12.189036 85.776923 12.281617 85.828846 12.374479 85.880769 12.467612 85.932692 12.561010 85.984615 12.654665 86.036538 12.748570 86.088462 12.842718 86.140385 12.937102 86.192308 13.031713 86.244231 13.126545 86.296154 13.221590 86.348077 13.316841 86.400000 13.412291 86.451923 13.507931 86.503846 13.603756 86.555769 13.699757 86.607692 13.795927 86.659615 13.892260 86.711538 13.988746 86.763462 14.085380 86.815385 14.182153 86.867308 14.279059 86.919231 14.376089 86.971154 14.473238 87.023077 14.570496 87.075000 14.667858 87.126923 14.765315 87.178846 14.862861 87.230769 14.960487 87.282692 15.058187 87.334615 15.155953 87.386538 15.253778 87.438462 15.351655 87.490385 15.449575 87.542308 15.547533 87.594231 15.645520 87.646154 15.743529 87.698077 15.841552 87.750000 15.939584 87.801923 16.037615 87.853846 16.135638 87.905769 16.233648 87.957692 16.331635 88.009615 16.429592 88.061538 16.527513 88.113462 16.625390 88.165385 16.723215 88.217308 16.820982 88.269231 16.918682 88.321154 17.016309 88.373077 17.113856 88.425000 17.211313 88.476923 17.308676 88.528846 17.405935 88.580769 17.503084 88.632692 17.600116 88.684615 17.697022 88.736538 17.793797 88.788462 17.890431 88.840385 17.986919 88.892308 18.083252 88.944231 18.179423 88.996154 18.275426 89.048077 18.371251 89.100000 18.466894 89.151923 18.562345 89.203846 18.657597 89.255769 18.752644 89.307692 18.847477 89.359615 18.942090 89.411538 19.036475 89.463462 19.130624 89.515385 19.224531 89.567308 19.318188 89.619231 19.411588 89.671154 19.504723 89.723077 19.597586 89.775000 19.690170 89.826923 19.782467 89.878846 19.874470 89.930769 19.966171 89.982692 20.057564 90.034615 20.148640 90.086538 20.239393 90.138462 20.329815 90.190385 20.419899 90.242308 20.509638 90.294231 20.599023 90.346154 20.688048 90.398077 20.776706 90.450000 20.864988 90.501923 20.952889 90.553846 21.040399 90.605769 21.127513 90.657692 21.214222 90.709615 21.300520 90.761538 21.386398 90.813462 21.471850 90.865385 21.556868 90.917308 21.641445 90.969231 21.725574 91.021154 21.809247 91.073077 21.892456 91.125000 21.975195 91.176923 22.057456 91.228846 22.139232 91.280769 22.220515 91.332692 22.301298 91.384615 22.381574 91.436538 22.461336 91.488462 22.540575 91.540385 22.619285 91.592308 22.697458 91.644231 22.775087 91.696154 22.852164 91.748077 22.928683 91.800000 23.004636 91.851923 23.080015 91.903846 23.154813 91.955769 23.229024 92.007692 23.302638 92.059615 23.375650 92.111538 23.448051 92.163462 23.519835 92.215385 23.590994 92.267308 23.661521 92.319231 23.731407 92.371154 23.800647 92.423077 23.869233 92.475000 23.937157 92.526923 24.004411 92.578846 24.070990 92.630769 24.136884 92.682692 24.202087 92.734615 24.266592 92.786538 24.330391 92.838462 24.393477 92.890385 24.455842 92.942308 24.517480 92.994231 24.578384 93.046154 24.638555 93.098077 24.697997 93.150000 24.756713 93.201923 24.814705 93.253846 24.871977 93.305769 24.928531 93.357692 24.984371 93.409615 25.039498 93.461538 25.093917 93.513462 25.147630 93.565385 25.200641 93.617308 25.252951 93.669231 25.304564 93.721154 25.355483 93.773077 25.405711 93.825000 25.455251 93.876923 25.504106 93.928846 25.552278 93.980769 25.599771 94.032692 25.646587 94.084615 25.692730 94.136538 25.738202 94.188462 25.783007 94.240385 25.827147 94.292308 25.870626 94.344231 25.913445 94.396154 25.955609 94.448077 25.997120 94.500000 26.037981 94.551923 26.078195 94.603846 26.117764 94.655769 26.156693 94.707692 26.194983 94.759615 26.232639 94.811538 26.269662 94.863462 26.306055 94.915385 26.341822 94.967308 26.376966 95.019231 26.411489 95.071154 26.445394 95.123077 26.478685 95.175000 26.511364 95.226923 26.543434 95.278846 26.574898 95.330769 26.605760 95.382692 26.636021 95.434615 26.665686 95.486538 26.694756 95.538462 26.723235 95.590385 26.751127 95.642308 26.778432 95.694231 26.805156 95.746154 26.831300 95.798077 26.856868 95.850000 26.881862 95.901923 26.906285 95.953846 26.930141 96.005769 26.953433 96.057692 26.976162 96.109615 26.998333 96.161538 27.019948 96.213462 27.041010 96.265385 27.061522 96.317308 27.081487 96.369231 27.100908 96.421154 27.119788 96.473077 27.138129 96.525000 27.155936 96.576923 27.173210 96.628846 27.189954 96.680769 27.206172 96.732692 27.221867 96.784615 27.237041 96.836538 27.251698 96.888462 27.265840 96.940385 27.279470 96.992308 27.292591 97.044231 27.305206 97.096154 27.317319 97.148077 27.328932 97.200000 27.340047 97.251923 27.350669 97.303846 27.360799 97.355769 27.370441 97.407692 27.379598 97.459615 27.388272 97.511538 27.396467 97.563462 27.404186 97.615385 27.411431 97.667308 27.418206 97.719231 27.424513 97.771154 27.430355 97.823077 27.435736 97.875000 27.440658 97.926923 27.445123 97.978846 27.449136 98.030769 27.452699 98.082692 27.455815 98.134615 27.458487 98.186538 27.460718 98.238462 27.462511 98.290385 27.463868 98.342308 27.464793 98.394231 27.465288 98.446154 27.465358 98.498077 27.465003 98.550000 27.464228 98.601923 27.463036 98.653846 27.461428 98.705769 27.459409 98.757692 27.456982 98.809615 27.454148 98.861538 27.450911 98.913462 27.447275 98.965385 27.443241 99.017308 27.438814 99.069231 27.433995 99.121154 27.428788 99.173077 27.423195 99.225000 27.417221 99.276923 27.410867 99.328846 27.404136 99.380769 27.397032 99.432692 27.389558 99.484615 27.381715 99.536538 27.373508 99.588462 27.364940 99.640385 27.356012 99.692308 27.346729 99.744231 27.337093 99.796154 27.327107 99.848077 27.316773 99.900000 27.306096 99.951923 27.295078 100.003846 27.283721 100.055769 27.272029 100.107692 27.260005 100.159615 27.247651 100.211538 27.234971 100.263462 27.221967 100.315385 27.208643 100.367308 27.195001 100.419231 27.181044 100.471154 27.166776 100.523077 27.152199 100.575000 27.137316 100.626923 27.122130 100.678846 27.106644 100.730769 27.090861 100.782692 27.074784 100.834615 27.058416 100.886538 27.041760 100.938462 27.024818 100.990385 27.007594 101.042308 26.990091 101.094231 26.972311 101.146154 26.954258 101.198077 26.935934 101.250000 26.917342 101.301923 26.898486 101.353846 26.879368 101.405769 26.859991 101.457692 26.840358 101.509615 26.820473 101.561538 26.800337 101.613462 26.779954 101.665385 26.759328 101.717308 26.738460 101.769231 26.717353 101.821154 26.696012 101.873077 26.674438 101.925000 26.652635 101.976923 26.630606 102.028846 26.608352 102.080769 26.585879 102.132692 26.563187 102.184615 26.540281 102.236538 26.517164 102.288462 26.493837 102.340385 26.470304 102.392308 26.446569 102.444231 26.422634 102.496154 26.398501 102.548077 26.374175 102.600000 26.349657 102.651923 26.324951 102.703846 26.300060 102.755769 26.274986 102.807692 26.249733 102.859615 26.224304 102.911538 26.198701 102.963462 26.172927 103.015385 26.146986 103.067308 26.120880 103.119231 26.094613 103.171154 26.068186 103.223077 26.041604 103.275000 26.014869 103.326923 25.987984 103.378846 25.960951 103.430769 25.933775 103.482692 25.906457 103.534615 25.879002 103.586538 25.851411 103.638462 25.823687 103.690385 25.795834 103.742308 25.767855 103.794231 25.739752 103.846154 25.711529 103.898077 25.683188 103.950000 25.654732 104.001923 25.626165 104.053846 25.597488 104.105769 25.568706 104.157692 25.539821 104.209615 25.510836 104.261538 25.481754 104.313462 25.452578 104.365385 25.423310 104.417308 25.393955 104.469231 25.364514 104.521154 25.334990 104.573077 25.305388 104.625000 25.275708 104.676923 25.245956 104.728846 25.216132 104.780769 25.186241 104.832692 25.156286 104.884615 25.126268 104.936538 25.096192 104.988462 25.066060 105.040385 25.035875 105.092308 25.005640 105.144231 24.975358 105.196154 24.945032 105.248077 24.914664 105.300000 24.884259 105.351923 24.853818 105.403846 24.823345 105.455769 24.792842 105.507692 24.762313 105.559615 24.731760 105.611538 24.701187 105.663462 24.670596 105.715385 24.639990 105.767308 24.609373 105.819231 24.578747 105.871154 24.548115 105.923077 24.517480" class="line reactive nofill" /></g></g><g class="titles" /><g transform="translate(82, 10)" class="plot overlay"><g class="series serie-0 color-0" /></g><g transform="translate(82, 10)" class="plot text-overlay"><g class="series serie-0 color-0" /></g><g transform="translate(82, 10)" class="plot tooltip-overlay"><g transform="translate(0 0)" style="opacity: 0" class="tooltip"><rect rx="0" ry="0" width="0" height="0" class="tooltip-box" /><g class="text" /></g></g></g></svg>