<?xml version='1.0' encoding='utf-8'?>
<svg xmlns="http://www.w3.org/2000/svg" id="chart-84a472e1-c45d-442a-a1c6-16fd0380bc28" class="pygal-chart pygal-sparkline" viewBox="0 0 200 50" width="200" height="50"><!--Generated with pygal 3.0.5 (etree) ©Kozea 2012-2016 on 2024-12-22--><!--http://pygal.org--><!--http://github.com/Kozea/pygal--><defs><style type="text/css">#chart-84a472e1-c45d-442a-a1c6-16fd0380bc28{-webkit-user-select:none;-webkit-font-smoothing:antialiased;font-family:Consolas,"Liberation Mono",Menlo,Courier,monospace}#chart-84a472e1-c45d-442a-a1c6-16fd0380bc28 .title{font-family:Consolas,"Liberation Mono",Menlo,Courier,monospace;font-size:16px}#chart-84a472e1-c45d-442a-a1c6-16fd0380bc28 .legends .legend text{font-family:Consolas,"Liberation Mono",Menlo,Courier,monospace;font-size:14px}#chart-84a472e1-c45d-442a-a1c6-16fd0380bc28 .axis text{font-family:Consolas,"Liberation Mono",Menlo,Courier,monospace;font-size:10px}#chart-84a472e1-c45d-442a-a1c6-16fd0380bc28 .axis text.major{font-family:Consolas,"Liberation Mono",Menlo,Courier,monospace;font-size:10px}#chart-84a472e1-c45d-442a-a1c6-16fd0380bc28 .text-overlay text.value{font-family:Consolas,"Liberation Mono",Menlo,Courier,monospace;font-size:16px}#chart-84a472e1-c45d-442a-a1c6-16fd0380bc28 .text-overlay text.label{font-family:Consolas,"Liberation Mono",Menlo,Courier,monospace;font-size:10px}#chart-84a472e1-c45d-442a-a1c6-16fd0380bc28 .tooltip{font-family:Consolas,"Liberation Mono",Menlo,Courier,monospace;font-size:14px}#chart-84a472e1-c45d-442a-a1c6-16fd0380bc28 text.no_data{font-family:Consolas,"Liberation Mono",Menlo,Courier,monospace;font-size:64px}
#chart-84a472e1-c45d-442a-a1c6-16fd0380bc28{background-color:rgba(249,249,249,1)}#chart-84a472e1-c45d-442a-a1c6-16fd0380bc28 path,#chart-84a472e1-c45d-442a-a1c6-16fd0380bc28 line,#chart-84a472e1-c45d-442a-a1c6-16fd0380bc28 rect,#chart-84a472e1-c45d-442a-a1c6-16fd0380bc28 circle{-webkit-transition:150ms;-moz-transition:150ms;transition:150ms}#chart-84a472e1-c45d-442a-a1c6-16fd0380bc28 .graph &gt; .background{fill:rgba(249,249,249,1)}#chart-84a472e1-c45d-442a-a1c6-16fd0380bc28 .plot &gt; .background{fill:rgba(255,255,255,1)}#chart-84a472e1-c45d-442a-a1c6-16fd0380bc28 .graph{fill:rgba(0,0,0,.87)}#chart-84a472e1-c45d-442a-a1c6-16fd0380bc28 text.no_data{fill:rgba(0,0,0,1)}#chart-84a472e1-c45d-442a-a1c6-16fd0380bc28 .title{fill:rgba(0,0,0,1)}#chart-84a472e1-c45d-442a-a1c6-16fd0380bc28 .legends .legend text{fill:rgba(0,0,0,.87)}#chart-84a472e1-c45d-442a-a1c6-16fd0380bc28 .legends .legend:hover text{fill:rgba(0,0,0,1)}#chart-84a472e1-c45d-442a-a1c6-16fd0380bc28 .axis .line{stroke:rgba(0,0,0,1)}#chart-84a472e1-c45d-442a-a1c6-16fd0380bc28 .axis .guide.line{stroke:rgba(0,0,0,.54)}#chart-84a472e1-c45d-442a-a1c6-16fd0380bc28 .axis .major.line{stroke:rgba(0,0,0,.87)}#chart-84a472e1-c45d-442a-a1c6-16fd0380bc28 .axis text.major{fill:rgba(0,0,0,1)}#chart-84a472e1-c45d-442a-a1c6-16fd0380bc28 .axis.y .guides:hover .guide.line,#chart-84a472e1-c45d-442a-a1c6-16fd0380bc28 .line-graph .axis.x .guides:hover .guide.line,#chart-84a472e1-c45d-442a-a1c6-16fd0380bc28 .stackedline-graph .axis.x .guides:hover .guide.line,#chart-84a472e1-c45d-442a-a1c6-16fd0380bc28 .xy-graph .axis.x .guides:hover .guide.line{stroke:rgba(0,0,0,1)}#chart-84a472e1-c45d-442a-a1c6-16fd0380bc28 .axis .guides:hover text{fill:rgba(0,0,0,1)}#chart-84a472e1-c45d-442a-a1c6-16fd0380bc28 .reactive{fill-opacity:.7;stroke-opacity:.8;stroke-width:1}#chart-84a472e1-c45d-442a-a1c6-16fd0380bc28 .ci{stroke:rgba(0,0,0,.87)}#chart-84a472e1-c45d-442a-a1c6-16fd0380bc28 .reactive.active,#chart-84a472e1-c45d-442a-a1c6-16fd0380bc28 .active .reactive{fill-opacity:.8;stroke-opacity:.9;stroke-width:4}#chart-84a472e1-c45d-442a-a1c6-16fd0380bc28 .ci .reactive.active{stroke-width:1.5}#chart-84a472e1-c45d-442a-a1c6-16fd0380bc28 .series text{fill:rgba(0,0,0,1)}#chart-84a472e1-c45d-442a-a1c6-16fd0380bc28 .tooltip rect{fill:rgba(255,255,255,1);stroke:rgba(0,0,0,1);-webkit-transition:opacity 150ms;-moz-transition:opacity 150ms;transition:opacity 150ms}#chart-84a472e1-c45d-442a-a1c6-16fd0380bc28 .tooltip .label{fill:rgba(0,0,0,.87)}#chart-84a472e1-c45d-442a-a1c6-16fd0380bc28 .tooltip .label{fill:rgba(0,0,0,.87)}#chart-84a472e1-c45d-442a-a1c6-16fd0380bc28 .tooltip .legend{font-size:.8em;fill:rgba(0,0,0,.54)}#chart-84a472e1-c45d-442a-a1c6-16fd0380bc28 .tooltip .x_label{font-size:.6em;fill:rgba(0,0,0,1)}#chart-84a472e1-c45d-442a-a1c6-16fd0380bc28 .tooltip .xlink{font-size:.5em;text-decoration:underline}#chart-84a472e1-c45d-442a-a1c6-16fd0380bc28 .tooltip .value{font-size:1.5em}#chart-84a472e1-c45d-442a-a1c6-16fd0380bc28 .bound{font-size:.5em}#chart-84a472e1-c45d-442a-a1c6-16fd0380bc28 .max-value{font-size:.75em;fill:rgba(0,0,0,.54)}#chart-84a472e1-c45d-442a-a1c6-16fd0380bc28 .map-element{fill:rgba(255,255,255,1);stroke:rgba(0,0,0,.54) !important}#chart-84a472e1-c45d-442a-a1c6-16fd0380bc28 .map-element .reactive{fill-opacity:inherit;stroke-opacity:inherit}#chart-84a472e1-c45d-442a-a1c6-16fd0380bc28 .color-0,#chart-84a472e1-c45d-442a-a1c6-16fd0380bc28 .color-0 a:visited{stroke:#F44336;fill:#F44336}#chart-84a472e1-c45d-442a-a1c6-16fd0380bc28 .text-overlay .color-0 text{fill:black}
#chart-84a472e1-c45d-442a-a1c6-16fd0380bc28 text.no_data{text-anchor:middle}#chart-84a472e1-c45d-442a-a1c6-16fd0380bc28 .guide.line{fill:none}#chart-84a472e1-c45d-442a-a1c6-16fd0380bc28 .centered{text-anchor:middle}#chart-84a472e1-c45d-442a-a1c6-16fd0380bc28 .title{text-anchor:middle}#chart-84a472e1-c45d-442a-a1c6-16fd0380bc28 .legends .legend text{fill-opacity:1}#chart-84a472e1-c45d-442a-a1c6-16fd0380bc28 .axis.x text{text-anchor:middle}#chart-84a472e1-c45d-442a-a1c6-16fd0380bc28 .axis.x:not(.web) text[transform]{text-anchor:start}#chart-84a472e1-c45d-442a-a1c6-16fd0380bc28 .axis.x:not(.web) text[transform].backwards{text-anchor:end}#chart-84a472e1-c45d-442a-a1c6-16fd0380bc28 .axis.y text{text-anchor:end}#chart-84a472e1-c45d-442a-a1c6-16fd0380bc28 .axis.y text[transform].backwards{text-anchor:start}#chart-84a472e1-c45d-442a-a1c6-16fd0380bc28 .axis.y2 text{text-anchor:start}#chart-84a472e1-c45d-442a-a1c6-16fd0380bc28 .axis.y2 text[transform].backwards{text-anchor:end}#chart-84a472e1-c45d-442a-a1c6-16fd0380bc28 .axis .guide.line{stroke-dasharray:4,4;stroke:black}#chart-84a472e1-c45d-442a-a1c6-16fd0380bc28 .axis .major.guide.line{stroke-dasharray:6,6;stroke:black}#chart-84a472e1-c45d-442a-a1c6-16fd0380bc28 .horizontal .axis.y .guide.line,#chart-84a472e1-c45d-442a-a1c6-16fd0380bc28 .horizontal .axis.y2 .guide.line,#chart-84a472e1-c45d-442a-a1c6-16fd0380bc28 .vertical .axis.x .guide.line{opacity:0}#chart-84a472e1-c45d-442a-a1c6-16fd0380bc28 .horizontal .axis.always_show .guide.line,#chart-84a472e1-c45d-442a-a1c6-16fd0380bc28 .vertical .axis.always_show .guide.line{opacity:1 !important}#chart-84a472e1-c45d-442a-a1c6-16fd0380bc28 .axis.y .guides:hover .guide.line,#chart-84a472e1-c45d-442a-a1c6-16fd0380bc28 .axis.y2 .guides:hover .guide.line,#chart-84a472e1-c45d-442a-a1c6-16fd0380bc28 .axis.x .guides:hover .guide.line{opacity:1}#chart-84a472e1-c45d-442a-a1c6-16fd0380bc28 .axis .guides:hover text{opacity:1}#chart-84a472e1-c45d-442a-a1c6-16fd0380bc28 .nofill{fill:none}#chart-84a472e1-c45d-442a-a1c6-16fd0380bc28 .subtle-fill{fill-opacity:.2}#chart-84a472e1-c45d-442a-a1c6-16fd0380bc28 .dot{stroke-width:1px;fill-opacity:1;stroke-opacity:1}#chart-84a472e1-c45d-442a-a1c6-16fd0380bc28 .dot.active{stroke-width:5px}#chart-84a472e1-c45d-442a-a1c6-16fd0380bc28 .dot.negative{fill:transparent}#chart-84a472e1-c45d-442a-a1c6-16fd0380bc28 text,#chart-84a472e1-c45d-442a-a1c6-16fd0380bc28 tspan{stroke:none !important}#chart-84a472e1-c45d-442a-a1c6-16fd0380bc28 .series text.active{opacity:1}#chart-84a472e1-c45d-442a-a1c6-16fd0380bc28 .tooltip rect{fill-opacity:.95;stroke-width:.5}#chart-84a472e1-c45d-442a-a1c6-16fd0380bc28 .tooltip text{fill-opacity:1}#chart-84a472e1-c45d-442a-a1c6-16fd0380bc28 .showable{visibility:hidden}#chart-84a472e1-c45d-442a-a1c6-16fd0380bc28 .showable.shown{visibility:visible}#chart-84a472e1-c45d-442a-a1c6-16fd0380bc28 .gauge-background{fill:rgba(229,229,229,1);stroke:none}#chart-84a472e1-c45d-442a-a1c6-16fd0380bc28 .bg-lines{stroke:rgba(249,249,249,1);stroke-width:2px}</style><script type="text/javascript">window.pygal = window.pygal || {};window.pygal.config = window.pygal.config || {};window.pygal.config['84a472e1-c45d-442a-a1c6-16fd0380bc28'] = {"allow_interruptions": false, "box_mode": "extremes", "classes": ["pygal-chart", "pygal-sparkline"], "css": ["file://style.css", "file://graph.css"], "defs": [], "disable_xml_declaration": false, "dots_size": 2.5, "dynamic_print_values": false, "explicit_size": true, "fill": false, "force_uri_protocol": "https", "formatter": null, "half_pie": false, "height": 50, "include_x_axis": false, "inner_radius": 0, "interpolate": "cubic", "interpolation_parameters": {}, "interpolation_precision": 250, "inverse_y_axis": false, "js": [], "legend_at_bottom": false, "legend_at_bottom_columns": null, "legend_box_size": 12, "logarithmic": false, "margin": 10, "margin_bottom": null, "margin_left": null, "margin_right": null, "margin_top": null, "max_scale": 2, "min_scale": 1, "missing_value_fill_truncation": "x", "no_data_text": "", "no_prefix": false, "order_min": null, "pretty_print": false, "print_labels": false, "print_values": false, "print_values_position": "center", "print_zeroes": true, "range": null, "rounded_bars": null, "secondary_range": null, "show_dots": false, "show_legend": false, "show_minor_x_labels": true, "show_minor_y_labels": true, "show_only_major_dots": false, "show_x_guides": false, "show_x_labels": false, "show_y_guides": true, "show_y_labels": true, "spacing": 0, "stack_from_top": false, "strict": false, "stroke": true, "stroke_style": null, "style": {"background": "rgba(249, 249, 249, 1)", "ci_colors": [], "colors": ["#F44336", "#3F51B5", "#009688", "#FFC107", "#FF5722", "#9C27B0", "#03A9F4", "#8BC34A", "#FF9800", "#E91E63", "#2196F3", "#4CAF50", "#FFEB3B", "#673AB7", "#00BCD4", "#CDDC39", "#9E9E9E", "#607D8B"], "dot_opacity": "1", "font_family": "Consolas, \"Liberation Mono\", Menlo, Courier, monospace", "foreground": "rgba(0, 0, 0, .87)", "foreground_strong": "rgba(0, 0, 0, 1)", "foreground_subtle": "rgba(0, 0, 0, .54)", "guide_stroke_color": "black", "guide_stroke_dasharray": "4,4", "label_font_family": "Consolas, \"Liberation Mono\", Menlo, Courier, monospace", "label_font_size": 10, "legend_font_family": "Consolas, \"Liberation Mono\", Menlo, Courier, monospace", "legend_font_size": 14, "major_guide_stroke_color": "black", "major_guide_stroke_dasharray": "6,6", "major_label_font_family": "Consolas, \"Liberation Mono\", Menlo, Courier, monospace", "major_label_font_size": 10, "no_data_font_family": "Consolas, \"Liberation Mono\", Menlo, Courier, monospace", "no_data_font_size": 64, "opacity": ".7", "opacity_hover": ".8", "plot_background": "rgba(255, 255, 255, 1)", "stroke_opacity": ".8", "stroke_opacity_hover": ".9", "stroke_width": "1", "stroke_width_hover": "4", "title_font_family": "Consolas, \"Liberation Mono\", Menlo, Courier, monospace", "title_font_size": 16, "tooltip_font_family": "Consolas, \"Liberation Mono\", Menlo, Courier, monospace", "tooltip_font_size": 14, "transition": "150ms", "value_background": "rgba(229, 229, 229, 1)", "value_colors": [], "value_font_family": "Consolas, \"Liberation Mono\", Menlo, Courier, monospace", "value_font_size": 16, "value_label_font_family": "Consolas, \"Liberation Mono\", Menlo, Courier, monospace", "value_label_font_size": 10}, "title": null, "tooltip_border_radius": 0, "tooltip_fancy_mode": true, "truncate_label": null, "truncate_legend": null, "width": 200, "x_label_rotation": 0, "x_labels": ["2024/12", "2024/11", "2024/10", "2024/9", "2024/8", "2024/7", "2024/6", "2024/5", "2024/3", "2024/2"], "x_labels_major": null, "x_labels_major_count": null, "x_labels_major_every": null, "x_title": null, "xrange": null, "y_label_rotation": 0, "y_labels": null, "y_labels_major": null, "y_labels_major_count": null, "y_labels_major_every": null, "y_title": null, "zero": 0, "legends": [""]}</script></defs><title>Pygal</title><g class="graph line-graph vertical"><rect x="0" y="0" width="200" height="50" class="background" /><g transform="translate(82, 10)" class="plot"><rect x="0" y="0" width="108.0" height="30" class="background" /><g class="axis y always_show"><path d="M0.000000 30.000000 h108.000000" class="line" /><g class="guides"><path d="M0.000000 29.423077 h108.000000" class="guide line" /><text x="-5" y="32.92307692307692" class="">0.5452661523</text><title>0.5452661523</title></g><g class="guides"><path d="M0.000000 0.576923 h108.000000" class="guide line" /><text x="-5" y="4.076923076923077" class="">7.001281091</text><title>7.001281091</title></g></g><g class="series serie-0 color-0"><path d="M2.076923 27.391278 L2.123077 27.336638 2.169231 27.282000 2.215385 27.227365 2.261538 27.172736 2.307692 27.118114 2.353846 27.063501 2.400000 27.008899 2.446154 26.954310 2.492308 26.899735 2.538462 26.845177 2.584615 26.790637 2.630769 26.736116 2.676923 26.681618 2.723077 26.627143 2.769231 26.572693 2.815385 26.518271 2.861538 26.463877 2.907692 26.409515 2.953846 26.355185 3.000000 26.300889 3.046154 26.246630 3.092308 26.192409 3.138462 26.138228 3.184615 26.084089 3.230769 26.029993 3.276923 25.975942 3.323077 25.921939 3.369231 25.867985 3.415385 25.814081 3.461538 25.760230 3.507692 25.706433 3.553846 25.652693 3.600000 25.599011 3.646154 25.545388 3.692308 25.491828 3.738462 25.438330 3.784615 25.384898 3.830769 25.331534 3.876923 25.278238 3.923077 25.225012 3.969231 25.171860 4.015385 25.118782 4.061538 25.065780 4.107692 25.012856 4.153846 24.960011 4.200000 24.907249 4.246154 24.854570 4.292308 24.801976 4.338462 24.749469 4.384615 24.697051 4.430769 24.644724 4.476923 24.592489 4.523077 24.540348 4.569231 24.488304 4.615385 24.436358 4.661538 24.384511 4.707692 24.332766 4.753846 24.281125 4.800000 24.229588 4.846154 24.178159 4.892308 24.126839 4.938462 24.075629 4.984615 24.024531 5.030769 23.973548 5.076923 23.922681 5.123077 23.871932 5.169231 23.821303 5.215385 23.770795 5.261538 23.720410 5.307692 23.670151 5.353846 23.620019 5.400000 23.570015 5.446154 23.520142 5.492308 23.470402 5.538462 23.420795 5.584615 23.371325 5.630769 23.321993 5.676923 23.272800 5.723077 23.223749 5.769231 23.174841 5.815385 23.126078 5.861538 23.077462 5.907692 23.028995 5.953846 22.980678 6.000000 22.932514 6.046154 22.884504 6.092308 22.836650 6.138462 22.788954 6.184615 22.741418 6.230769 22.694042 6.276923 22.646831 6.323077 22.599784 6.369231 22.552904 6.415385 22.506193 6.461538 22.459652 6.507692 22.413284 6.553846 22.367089 6.600000 22.321071 6.646154 22.275231 6.692308 22.229570 6.738462 22.184090 6.784615 22.138794 6.830769 22.093683 6.876923 22.048758 6.923077 22.004022 6.969231 21.959477 7.015385 21.915124 7.061538 21.870965 7.107692 21.827002 7.153846 21.783237 7.200000 21.739671 7.246154 21.696307 7.292308 21.653145 7.338462 21.610189 7.384615 21.567440 7.430769 21.524899 7.476923 21.482568 7.523077 21.440450 7.569231 21.398546 7.615385 21.356857 7.661538 21.315387 7.707692 21.274136 7.753846 21.233106 7.800000 21.192299 7.846154 21.151717 7.892308 21.111362 7.938462 21.071236 7.984615 21.031340 8.030769 20.991676 8.076923 20.952246 8.123077 20.913052 8.169231 20.874095 8.215385 20.835378 8.261538 20.796902 8.307692 20.758670 8.353846 20.720682 8.400000 20.682941 8.446154 20.645448 8.492308 20.608206 8.538462 20.571216 8.584615 20.534480 8.630769 20.497999 8.676923 20.461776 8.723077 20.425813 8.769231 20.390111 8.815385 20.354672 8.861538 20.319497 8.907692 20.284590 8.953846 20.249950 9.000000 20.215581 9.046154 20.181484 9.092308 20.147662 9.138462 20.114114 9.184615 20.080845 9.230769 20.047854 9.276923 20.015145 9.323077 19.982719 9.369231 19.950578 9.415385 19.918723 9.461538 19.887156 9.507692 19.855880 9.553846 19.824896 9.600000 19.794206 9.646154 19.763812 9.692308 19.733714 9.738462 19.703917 9.784615 19.674420 9.830769 19.645226 9.876923 19.616337 9.923077 19.587755 9.969231 19.559481 10.015385 19.531517 10.061538 19.503865 10.107692 19.476527 10.153846 19.449505 10.200000 19.422800 10.246154 19.396415 10.292308 19.370350 10.338462 19.344608 10.384615 19.319191 10.430769 19.294101 10.476923 19.269339 10.523077 19.244907 10.569231 19.220807 10.615385 19.197040 10.661538 19.173610 10.707692 19.150516 10.753846 19.127762 10.800000 19.105349 10.846154 19.083279 10.892308 19.061553 10.938462 19.040174 10.984615 19.019143 11.030769 18.998463 11.076923 18.978134 11.123077 18.958159 11.169231 18.938539 11.215385 18.919277 11.261538 18.900374 11.307692 18.881832 11.353846 18.863653 11.400000 18.845838 11.446154 18.828390 11.492308 18.811310 11.538462 18.794600 11.584615 18.778262 11.630769 18.762297 11.676923 18.746708 11.723077 18.731497 11.769231 18.716664 11.815385 18.702213 11.861538 18.688144 11.907692 18.674460 11.953846 18.661162 12.000000 18.648252 12.046154 18.635733 12.092308 18.623605 12.138462 18.611871 12.184615 18.600532 12.230769 18.589590 12.276923 18.579048 12.323077 18.568906 12.369231 18.559167 12.415385 18.549833 12.461538 18.540905 12.507692 18.532385 12.553846 18.524275 12.600000 18.516577 12.646154 18.509293 12.692308 18.502423 12.738462 18.495972 12.784615 18.489939 12.830769 18.484327 12.876923 18.479137 12.923077 18.474372 12.969231 18.470034 13.015385 18.466123 13.061538 18.462642 13.107692 18.459593 13.153846 18.456978 13.200000 18.454798 13.246154 18.453055 13.292308 18.451751 13.338462 18.450888 13.384615 18.450468 13.430769 18.450492 13.476923 18.450962 13.523077 18.451880 13.569231 18.453248 13.615385 18.455068 13.661538 18.457340 13.707692 18.460062 13.753846 18.463230 13.800000 18.466839 13.846154 18.470886 13.892308 18.475367 13.938462 18.480278 13.984615 18.485615 14.030769 18.491374 14.076923 18.497551 14.123077 18.504142 14.169231 18.511144 14.215385 18.518552 14.261538 18.526363 14.307692 18.534573 14.353846 18.543177 14.400000 18.552171 14.446154 18.561553 14.492308 18.571317 14.538462 18.581461 14.584615 18.591979 14.630769 18.602869 14.676923 18.614125 14.723077 18.625745 14.769231 18.637725 14.815385 18.650059 14.861538 18.662746 14.907692 18.675780 14.953846 18.689157 15.000000 18.702874 15.046154 18.716927 15.092308 18.731312 15.138462 18.746025 15.184615 18.761062 15.230769 18.776419 15.276923 18.792093 15.323077 18.808078 15.369231 18.824372 15.415385 18.840971 15.461538 18.857870 15.507692 18.875065 15.553846 18.892553 15.600000 18.910330 15.646154 18.928392 15.692308 18.946734 15.738462 18.965354 15.784615 18.984247 15.830769 19.003408 15.876923 19.022835 15.923077 19.042524 15.969231 19.062469 16.015385 19.082668 16.061538 19.103117 16.107692 19.123811 16.153846 19.144747 16.200000 19.165921 16.246154 19.187328 16.292308 19.208965 16.338462 19.230829 16.384615 19.252914 16.430769 19.275218 16.476923 19.297735 16.523077 19.320463 16.569231 19.343398 16.615385 19.366535 16.661538 19.389870 16.707692 19.413400 16.753846 19.437121 16.800000 19.461028 16.846154 19.485118 16.892308 19.509387 16.938462 19.533831 16.984615 19.558447 17.030769 19.583229 17.076923 19.608175 17.123077 19.633279 17.169231 19.658540 17.215385 19.683951 17.261538 19.709511 17.307692 19.735213 17.353846 19.761056 17.400000 19.787034 17.446154 19.813144 17.492308 19.839382 17.538462 19.865744 17.584615 19.892226 17.630769 19.918825 17.676923 19.945535 17.723077 19.972354 17.769231 19.999277 17.815385 20.026301 17.861538 20.053421 17.907692 20.080634 17.953846 20.107935 18.000000 20.135321 18.046154 20.162788 18.092308 20.190332 18.138462 20.217949 18.184615 20.245635 18.230769 20.273387 18.276923 20.301199 18.323077 20.329069 18.369231 20.356992 18.415385 20.384965 18.461538 20.412983 18.507692 20.441043 18.553846 20.469140 18.600000 20.497271 18.646154 20.525433 18.692308 20.553620 18.738462 20.581829 18.784615 20.610056 18.830769 20.638297 18.876923 20.666549 18.923077 20.694806 18.969231 20.723067 19.015385 20.751325 19.061538 20.779579 19.107692 20.807823 19.153846 20.836053 19.200000 20.864267 19.246154 20.892459 19.292308 20.920626 19.338462 20.948764 19.384615 20.976869 19.430769 21.004938 19.476923 21.032966 19.523077 21.060949 19.569231 21.088883 19.615385 21.116765 19.661538 21.144590 19.707692 21.172355 19.753846 21.200056 19.800000 21.227689 19.846154 21.255249 19.892308 21.282734 19.938462 21.310138 19.984615 21.337459 20.030769 21.364691 20.076923 21.391832 20.123077 21.418877 20.169231 21.445823 20.215385 21.472665 20.261538 21.499400 20.307692 21.526023 20.353846 21.552531 20.400000 21.578920 20.446154 21.605186 20.492308 21.631325 20.538462 21.657332 20.584615 21.683205 20.630769 21.708939 20.676923 21.734530 20.723077 21.759975 20.769231 21.785269 20.815385 21.810408 20.861538 21.835389 20.907692 21.860208 20.953846 21.884861 21.000000 21.909343 21.046154 21.933651 21.092308 21.957781 21.138462 21.981729 21.184615 22.005491 21.230769 22.029064 21.276923 22.052442 21.323077 22.075623 21.369231 22.098603 21.415385 22.121376 21.461538 22.143941 21.507692 22.166292 21.553846 22.188426 21.600000 22.210339 21.646154 22.232026 21.692308 22.253485 21.738462 22.274710 21.784615 22.295699 21.830769 22.316447 21.876923 22.336950 21.923077 22.357204 21.969231 22.377206 22.015385 22.396952 22.061538 22.416437 22.107692 22.435657 22.153846 22.454610 22.200000 22.473290 22.246154 22.491694 22.292308 22.509818 22.338462 22.527658 22.384615 22.545210 22.430769 22.562471 22.476923 22.579435 22.523077 22.596100 22.569231 22.612462 22.615385 22.628516 22.661538 22.644258 22.707692 22.659685 22.753846 22.674793 22.800000 22.689578 22.846154 22.704036 22.892308 22.718163 22.938462 22.731954 22.984615 22.745407 23.030769 22.758517 23.076923 22.771280 23.123077 22.783693 23.169231 22.795751 23.215385 22.807451 23.261538 22.818788 23.307692 22.829759 23.353846 22.840360 23.400000 22.850586 23.446154 22.860435 23.492308 22.869901 23.538462 22.878981 23.584615 22.887672 23.630769 22.895969 23.676923 22.903868 23.723077 22.911365 23.769231 22.918457 23.815385 22.925139 23.861538 22.931408 23.907692 22.937260 23.953846 22.942690 24.000000 22.947696 24.046154 22.952272 24.092308 22.956415 24.138462 22.960121 24.184615 22.963386 24.230769 22.966207 24.276923 22.968579 24.323077 22.970498 24.369231 22.971961 24.415385 22.972963 24.461538 22.973501 24.507692 22.973570 24.553846 22.973167 24.600000 22.972289 24.646154 22.970930 24.692308 22.969087 24.738462 22.966756 24.784615 22.963933 24.830769 22.960614 24.876923 22.956796 24.923077 22.952474 24.969231 22.947645 25.015385 22.942304 25.061538 22.936447 25.107692 22.930072 25.153846 22.923173 25.200000 22.915749 25.246154 22.907802 25.292308 22.899339 25.338462 22.890365 25.384615 22.880885 25.430769 22.870904 25.476923 22.860428 25.523077 22.849462 25.569231 22.838011 25.615385 22.826081 25.661538 22.813676 25.707692 22.800803 25.753846 22.787465 25.800000 22.773670 25.846154 22.759422 25.892308 22.744726 25.938462 22.729587 25.984615 22.714012 26.030769 22.698004 26.076923 22.681570 26.123077 22.664715 26.169231 22.647444 26.215385 22.629763 26.261538 22.611676 26.307692 22.593189 26.353846 22.574307 26.400000 22.555036 26.446154 22.535381 26.492308 22.515347 26.538462 22.494940 26.584615 22.474164 26.630769 22.453025 26.676923 22.431529 26.723077 22.409680 26.769231 22.387485 26.815385 22.364947 26.861538 22.342073 26.907692 22.318868 26.953846 22.295338 27.000000 22.271486 27.046154 22.247320 27.092308 22.222843 27.138462 22.198062 27.184615 22.172981 27.230769 22.147606 27.276923 22.121943 27.323077 22.095996 27.369231 22.069771 27.415385 22.043273 27.461538 22.016508 27.507692 21.989480 27.553846 21.962195 27.600000 21.934659 27.646154 21.906876 27.692308 21.878852 27.738462 21.850592 27.784615 21.822102 27.830769 21.793387 27.876923 21.764452 27.923077 21.735302 27.969231 21.705943 28.015385 21.676380 28.061538 21.646618 28.107692 21.616663 28.153846 21.586519 28.200000 21.556193 28.246154 21.525689 28.292308 21.495014 28.338462 21.464171 28.384615 21.433166 28.430769 21.402006 28.476923 21.370694 28.523077 21.339236 28.569231 21.307639 28.615385 21.275906 28.661538 21.244043 28.707692 21.212055 28.753846 21.179949 28.800000 21.147728 28.846154 21.115399 28.892308 21.082966 28.938462 21.050436 28.984615 21.017812 29.030769 20.985101 29.076923 20.952308 29.123077 20.919439 29.169231 20.886497 29.215385 20.853490 29.261538 20.820421 29.307692 20.787297 29.353846 20.754122 29.400000 20.720902 29.446154 20.687643 29.492308 20.654349 29.538462 20.621026 29.584615 20.587679 29.630769 20.554313 29.676923 20.520934 29.723077 20.487548 29.769231 20.454158 29.815385 20.420771 29.861538 20.387392 29.907692 20.354026 29.953846 20.320679 30.000000 20.287355 30.046154 20.254061 30.092308 20.220801 30.138462 20.187580 30.184615 20.154405 30.230769 20.121280 30.276923 20.088211 30.323077 20.055202 30.369231 20.022260 30.415385 19.989389 30.461538 19.956594 30.507692 19.923882 30.553846 19.891258 30.600000 19.858726 30.646154 19.826292 30.692308 19.793961 30.738462 19.761738 30.784615 19.729630 30.830769 19.697641 30.876923 19.665776 30.923077 19.634041 30.969231 19.602441 31.015385 19.570981 31.061538 19.539667 31.107692 19.508504 31.153846 19.477498 31.200000 19.446652 31.246154 19.415974 31.292308 19.385468 31.338462 19.355139 31.384615 19.324993 31.430769 19.295034 31.476923 19.265270 31.523077 19.235703 31.569231 19.206341 31.615385 19.177188 31.661538 19.148250 31.707692 19.119531 31.753846 19.091037 31.800000 19.062774 31.846154 19.034747 31.892308 19.006960 31.938462 18.979420 31.984615 18.952132 32.030769 18.925100 32.076923 18.898330 32.123077 18.871828 32.169231 18.845599 32.215385 18.819648 32.261538 18.793980 32.307692 18.768601 32.353846 18.743516 32.400000 18.718730 32.446154 18.694249 32.492308 18.670078 32.538462 18.646222 32.584615 18.622686 32.630769 18.599476 32.676923 18.576597 32.723077 18.554055 32.769231 18.531854 32.815385 18.510000 32.861538 18.488498 32.907692 18.467354 32.953846 18.446573 33.000000 18.426160 33.046154 18.406120 33.092308 18.386459 33.138462 18.367182 33.184615 18.348295 33.230769 18.329802 33.276923 18.311709 33.323077 18.294021 33.369231 18.276744 33.415385 18.259883 33.461538 18.243442 33.507692 18.227429 33.553846 18.211846 33.600000 18.196701 33.646154 18.181999 33.692308 18.167743 33.738462 18.153941 33.784615 18.140597 33.830769 18.127716 33.876923 18.115305 33.923077 18.103367 33.969231 18.091909 34.015385 18.080935 34.061538 18.070452 34.107692 18.060463 34.153846 18.050976 34.200000 18.041994 34.246154 18.033523 34.292308 18.025569 34.338462 18.018137 34.384615 18.011231 34.430769 18.004859 34.476923 17.999023 34.523077 17.993731 34.569231 17.988987 34.615385 17.984797 34.661538 17.981165 34.707692 17.978098 34.753846 17.975600 34.800000 17.973676 34.846154 17.972333 34.892308 17.971576 34.938462 17.971408 34.984615 17.971837 35.030769 17.972867 35.076923 17.974504 35.123077 17.976752 35.169231 17.979618 35.215385 17.983106 35.261538 17.987221 35.307692 17.991970 35.353846 17.997357 35.400000 18.003388 35.446154 18.010068 35.492308 18.017401 35.538462 18.025395 35.584615 18.034053 35.630769 18.043381 35.676923 18.053385 35.723077 18.064069 35.769231 18.075440 35.815385 18.087502 35.861538 18.100260 35.907692 18.113720 35.953846 18.127888 36.000000 18.142767 36.046154 18.158365 36.092308 18.174686 36.138462 18.191735 36.184615 18.209518 36.230769 18.228040 36.276923 18.247306 36.323077 18.267322 36.369231 18.288092 36.415385 18.309623 36.461538 18.331919 36.507692 18.354986 36.553846 18.378829 36.600000 18.403454 36.646154 18.428865 36.692308 18.455068 36.738462 18.482066 36.784615 18.509852 36.830769 18.538419 36.876923 18.567756 36.923077 18.597857 36.969231 18.628710 37.015385 18.660309 37.061538 18.692645 37.107692 18.725708 37.153846 18.759490 37.200000 18.793983 37.246154 18.829177 37.292308 18.865065 37.338462 18.901636 37.384615 18.938883 37.430769 18.976798 37.476923 19.015370 37.523077 19.054592 37.569231 19.094455 37.615385 19.134949 37.661538 19.176068 37.707692 19.217801 37.753846 19.260140 37.800000 19.303077 37.846154 19.346602 37.892308 19.390708 37.938462 19.435384 37.984615 19.480624 38.030769 19.526417 38.076923 19.572756 38.123077 19.619631 38.169231 19.667034 38.215385 19.714956 38.261538 19.763389 38.307692 19.812323 38.353846 19.861751 38.400000 19.911663 38.446154 19.962051 38.492308 20.012906 38.538462 20.064220 38.584615 20.115983 38.630769 20.168187 38.676923 20.220823 38.723077 20.273883 38.769231 20.327358 38.815385 20.381239 38.861538 20.435518 38.907692 20.490185 38.953846 20.545233 39.000000 20.600652 39.046154 20.656434 39.092308 20.712570 39.138462 20.769052 39.184615 20.825870 39.230769 20.883017 39.276923 20.940482 39.323077 20.998258 39.369231 21.056337 39.415385 21.114708 39.461538 21.173364 39.507692 21.232297 39.553846 21.291496 39.600000 21.350954 39.646154 21.410661 39.692308 21.470610 39.738462 21.530791 39.784615 21.591196 39.830769 21.651816 39.876923 21.712643 39.923077 21.773667 39.969231 21.834880 40.015385 21.896273 40.061538 21.957838 40.107692 22.019567 40.153846 22.081449 40.200000 22.143477 40.246154 22.205641 40.292308 22.267934 40.338462 22.330347 40.384615 22.392870 40.430769 22.455495 40.476923 22.518214 40.523077 22.581018 40.569231 22.643897 40.615385 22.706844 40.661538 22.769850 40.707692 22.832905 40.753846 22.896002 40.800000 22.959131 40.846154 23.022285 40.892308 23.085453 40.938462 23.148629 40.984615 23.211802 41.030769 23.274964 41.076923 23.338106 41.123077 23.401221 41.169231 23.464298 41.215385 23.527330 41.261538 23.590308 41.307692 23.653222 41.353846 23.716065 41.400000 23.778828 41.446154 23.841501 41.492308 23.904077 41.538462 23.966546 41.584615 24.028901 41.630769 24.091131 41.676923 24.153229 41.723077 24.215186 41.769231 24.276993 41.815385 24.338641 41.861538 24.400122 41.907692 24.461427 41.953846 24.522548 42.000000 24.583475 42.046154 24.644200 42.092308 24.704714 42.138462 24.765010 42.184615 24.825077 42.230769 24.884907 42.276923 24.944492 42.323077 25.003822 42.369231 25.062890 42.415385 25.121686 42.461538 25.180203 42.507692 25.238430 42.553846 25.296359 42.600000 25.353983 42.646154 25.411291 42.692308 25.468276 42.738462 25.524928 42.784615 25.581240 42.830769 25.637201 42.876923 25.692804 42.923077 25.748040 42.969231 25.802901 43.015385 25.857377 43.061538 25.911459 43.107692 25.965140 43.153846 26.018410 43.200000 26.071261 43.246154 26.123684 43.292308 26.175671 43.338462 26.227212 43.384615 26.278299 43.430769 26.328923 43.476923 26.379077 43.523077 26.428750 43.569231 26.477934 43.615385 26.526621 43.661538 26.574801 43.707692 26.622467 43.753846 26.669610 43.800000 26.716220 43.846154 26.762289 43.892308 26.807809 43.938462 26.852770 43.984615 26.897165 44.030769 26.940984 44.076923 26.984218 44.123077 27.026860 44.169231 27.068899 44.215385 27.110329 44.261538 27.151139 44.307692 27.191322 44.353846 27.230868 44.400000 27.269768 44.446154 27.308015 44.492308 27.345600 44.538462 27.382513 44.584615 27.418747 44.630769 27.454291 44.676923 27.489139 44.723077 27.523280 44.769231 27.556707 44.815385 27.589410 44.861538 27.621382 44.907692 27.652612 44.953846 27.683094 45.000000 27.712817 45.046154 27.741773 45.092308 27.769954 45.138462 27.797350 45.184615 27.823954 45.230769 27.849756 45.276923 27.874748 45.323077 27.898921 45.369231 27.922266 45.415385 27.944775 45.461538 27.966439 45.507692 27.987249 45.553846 28.007197 45.600000 28.026274 45.646154 28.044471 45.692308 28.061780 45.738462 28.078191 45.784615 28.093697 45.830769 28.108288 45.876923 28.121956 45.923077 28.134692 45.969231 28.146487 46.015385 28.157333 46.061538 28.167221 46.107692 28.176143 46.153846 28.184089 46.200000 28.191051 46.246154 28.197020 46.292308 28.201988 46.338462 28.205946 46.384615 28.208885 46.430769 28.210796 46.476923 28.211672 46.523077 28.211502 46.569231 28.210279 46.615385 28.207994 46.661538 28.204637 46.707692 28.200201 46.753846 28.194677 46.800000 28.188056 46.846154 28.180329 46.892308 28.171488 46.938462 28.161524 46.984615 28.150427 47.030769 28.138191 47.076923 28.124805 47.123077 28.110262 47.169231 28.094552 47.215385 28.077667 47.261538 28.059597 47.307692 28.040336 47.353846 28.019873 47.400000 27.998200 47.446154 27.975308 47.492308 27.951189 47.538462 27.925834 47.584615 27.899235 47.630769 27.871382 47.676923 27.842267 47.723077 27.811881 47.769231 27.780215 47.815385 27.747262 47.861538 27.713011 47.907692 27.677455 47.953846 27.640585 48.000000 27.602392 48.046154 27.562867 48.092308 27.522002 48.138462 27.479788 48.184615 27.436216 48.230769 27.391278 48.276923 27.344969 48.323077 27.297296 48.369231 27.248273 48.415385 27.197912 48.461538 27.146226 48.507692 27.093225 48.553846 27.038924 48.600000 26.983333 48.646154 26.926466 48.692308 26.868334 48.738462 26.808951 48.784615 26.748327 48.830769 26.686477 48.876923 26.623411 48.923077 26.559142 48.969231 26.493683 49.015385 26.427045 49.061538 26.359242 49.107692 26.290285 49.153846 26.220186 49.200000 26.148959 49.246154 26.076615 49.292308 26.003166 49.338462 25.928626 49.384615 25.853005 49.430769 25.776317 49.476923 25.698574 49.523077 25.619788 49.569231 25.539972 49.615385 25.459137 49.661538 25.377296 49.707692 25.294461 49.753846 25.210645 49.800000 25.125860 49.846154 25.040118 49.892308 24.953431 49.938462 24.865813 49.984615 24.777274 50.030769 24.687828 50.076923 24.597487 50.123077 24.506262 50.169231 24.414167 50.215385 24.321214 50.261538 24.227414 50.307692 24.132781 50.353846 24.037326 50.400000 23.941062 50.446154 23.844001 50.492308 23.746156 50.538462 23.647538 50.584615 23.548161 50.630769 23.448035 50.676923 23.347175 50.723077 23.245591 50.769231 23.143297 50.815385 23.040304 50.861538 22.936625 50.907692 22.832272 50.953846 22.727257 51.000000 22.621594 51.046154 22.515293 51.092308 22.408368 51.138462 22.300830 51.184615 22.192692 51.230769 22.083967 51.276923 21.974666 51.323077 21.864802 51.369231 21.754387 51.415385 21.643434 51.461538 21.531954 51.507692 21.419961 51.553846 21.307466 51.600000 21.194481 51.646154 21.081020 51.692308 20.967093 51.738462 20.852715 51.784615 20.737896 51.830769 20.622650 51.876923 20.506987 51.923077 20.390922 51.969231 20.274466 52.015385 20.157631 52.061538 20.040430 52.107692 19.922875 52.153846 19.804978 52.200000 19.686752 52.246154 19.568209 52.292308 19.449360 52.338462 19.330220 52.384615 19.210799 52.430769 19.091110 52.476923 18.971166 52.523077 18.850978 52.569231 18.730560 52.615385 18.609923 52.661538 18.489079 52.707692 18.368041 52.753846 18.246822 52.800000 18.125433 52.846154 18.003887 52.892308 17.882196 52.938462 17.760372 52.984615 17.638428 53.030769 17.516377 53.076923 17.394229 53.123077 17.271998 53.169231 17.149696 53.215385 17.027336 53.261538 16.904929 53.307692 16.782487 53.353846 16.660024 53.400000 16.537551 53.446154 16.415081 53.492308 16.292627 53.538462 16.170199 53.584615 16.047811 53.630769 15.925475 53.676923 15.803204 53.723077 15.681008 53.769231 15.558902 53.815385 15.436897 53.861538 15.315005 53.907692 15.193240 53.953846 15.071612 54.000000 14.950134 54.046154 14.828820 54.092308 14.707680 54.138462 14.586727 54.184615 14.465975 54.230769 14.345433 54.276923 14.225117 54.323077 14.105036 54.369231 13.985205 54.415385 13.865634 54.461538 13.746337 54.507692 13.627326 54.553846 13.508612 54.600000 13.390209 54.646154 13.272129 54.692308 13.154383 54.738462 13.036985 54.784615 12.919946 54.830769 12.803279 54.876923 12.686996 54.923077 12.571109 54.969231 12.455631 55.015385 12.340574 55.061538 12.225951 55.107692 12.111773 55.153846 11.998053 55.200000 11.884803 55.246154 11.772035 55.292308 11.659763 55.338462 11.547998 55.384615 11.436752 55.430769 11.326037 55.476923 11.215867 55.523077 11.106253 55.569231 10.997208 55.615385 10.888744 55.661538 10.780873 55.707692 10.673607 55.753846 10.566960 55.800000 10.460942 55.846154 10.355567 55.892308 10.250847 55.938462 10.146794 55.984615 10.043420 56.030769 9.940737 56.076923 9.838759 56.123077 9.737497 56.169231 9.636963 56.215385 9.537171 56.261538 9.438131 56.307692 9.339857 56.353846 9.242361 56.400000 9.145655 56.446154 9.049751 56.492308 8.954662 56.538462 8.860400 56.584615 8.766977 56.630769 8.674405 56.676923 8.582698 56.723077 8.491867 56.769231 8.401924 56.815385 8.312882 56.861538 8.224753 56.907692 8.137549 56.953846 8.051283 57.000000 7.965968 57.046154 7.881614 57.092308 7.798235 57.138462 7.715843 57.184615 7.634450 57.230769 7.554069 57.276923 7.474711 57.323077 7.396390 57.369231 7.319116 57.415385 7.242904 57.461538 7.167765 57.507692 7.093711 57.553846 7.020754 57.600000 6.948908 57.646154 6.878183 57.692308 6.808594 57.738462 6.740151 57.784615 6.672867 57.830769 6.606754 57.876923 6.541826 57.923077 6.478093 57.969231 6.415568 58.015385 6.354265 58.061538 6.294194 58.107692 6.235368 58.153846 6.177800 58.200000 6.121502 58.246154 6.066486 58.292308 6.012765 58.338462 5.960350 58.384615 5.909254 58.430769 5.859489 58.476923 5.811069 58.523077 5.764004 58.569231 5.718307 58.615385 5.673991 58.661538 5.631068 58.707692 5.589550 58.753846 5.549449 58.800000 5.510778 58.846154 5.473550 58.892308 5.437775 58.938462 5.403467 58.984615 5.370639 59.030769 5.339301 59.076923 5.309467 59.123077 5.281149 59.169231 5.254359 59.215385 5.229110 59.261538 5.205413 59.307692 5.183282 59.353846 5.162728 59.400000 5.143763 59.446154 5.126401 59.492308 5.110652 59.538462 5.096531 59.584615 5.084048 59.630769 5.073217 59.676923 5.064049 59.723077 5.056556 59.769231 5.050752 59.815385 5.046645 59.861538 5.044226 59.907692 5.043485 59.953846 5.044411 60.000000 5.046991 60.046154 5.051215 60.092308 5.057072 60.138462 5.064549 60.184615 5.073636 60.230769 5.084321 60.276923 5.096593 60.323077 5.110441 60.369231 5.125853 60.415385 5.142817 60.461538 5.161323 60.507692 5.181360 60.553846 5.202915 60.600000 5.225978 60.646154 5.250536 60.692308 5.276580 60.738462 5.304096 60.784615 5.333075 60.830769 5.363505 60.876923 5.395374 60.923077 5.428671 60.969231 5.463384 61.015385 5.499503 61.061538 5.537016 61.107692 5.575911 61.153846 5.616178 61.200000 5.657804 61.246154 5.700779 61.292308 5.745092 61.338462 5.790730 61.384615 5.837682 61.430769 5.885938 61.476923 5.935486 61.523077 5.986314 61.569231 6.038411 61.615385 6.091765 61.661538 6.146367 61.707692 6.202203 61.753846 6.259263 61.800000 6.317535 61.846154 6.377008 61.892308 6.437671 61.938462 6.499512 61.984615 6.562520 62.030769 6.626684 62.076923 6.691992 62.123077 6.758433 62.169231 6.825995 62.215385 6.894668 62.261538 6.964439 62.307692 7.035298 62.353846 7.107233 62.400000 7.180233 62.446154 7.254286 62.492308 7.329381 62.538462 7.405507 62.584615 7.482653 62.630769 7.560806 62.676923 7.639956 62.723077 7.720092 62.769231 7.801201 62.815385 7.883273 62.861538 7.966297 62.907692 8.050260 62.953846 8.135152 63.000000 8.220961 63.046154 8.307676 63.092308 8.395286 63.138462 8.483778 63.184615 8.573143 63.230769 8.663368 63.276923 8.754442 63.323077 8.846354 63.369231 8.939092 63.415385 9.032646 63.461538 9.127003 63.507692 9.222153 63.553846 9.318083 63.600000 9.414783 63.646154 9.512242 63.692308 9.610448 63.738462 9.709389 63.784615 9.809054 63.830769 9.909433 63.876923 10.010513 63.923077 10.112283 63.969231 10.214732 64.015385 10.317849 64.061538 10.421621 64.107692 10.526039 64.153846 10.631090 64.200000 10.736763 64.246154 10.843047 64.292308 10.949931 64.338462 11.057402 64.384615 11.165450 64.430769 11.274064 64.476923 11.383231 64.523077 11.492942 64.569231 11.603183 64.615385 11.713945 64.661538 11.825215 64.707692 11.936983 64.753846 12.049236 64.800000 12.161964 64.846154 12.275155 64.892308 12.388798 64.938462 12.502882 64.984615 12.617394 65.030769 12.732325 65.076923 12.847662 65.123077 12.963394 65.169231 13.079510 65.215385 13.195998 65.261538 13.312848 65.307692 13.430047 65.353846 13.547584 65.400000 13.665449 65.446154 13.783629 65.492308 13.902113 65.538462 14.020891 65.584615 14.139950 65.630769 14.259279 65.676923 14.378867 65.723077 14.498703 65.769231 14.618775 65.815385 14.739072 65.861538 14.859583 65.907692 14.980295 65.953846 15.101199 66.000000 15.222281 66.046154 15.343532 66.092308 15.464940 66.138462 15.586493 66.184615 15.708180 66.230769 15.829990 66.276923 15.951912 66.323077 16.073933 66.369231 16.196043 66.415385 16.318230 66.461538 16.440483 66.507692 16.562791 66.553846 16.685142 66.600000 16.807525 66.646154 16.929929 66.692308 17.052341 66.738462 17.174752 66.784615 17.297149 66.830769 17.419521 66.876923 17.541857 66.923077 17.664146 66.969231 17.786376 67.015385 17.908535 67.061538 18.030613 67.107692 18.152598 67.153846 18.274478 67.200000 18.396243 67.246154 18.517881 67.292308 18.639381 67.338462 18.760731 67.384615 18.881920 67.430769 19.002936 67.476923 19.123769 67.523077 19.244406 67.569231 19.364838 67.615385 19.485051 67.661538 19.605035 67.707692 19.724779 67.753846 19.844271 67.800000 19.963499 67.846154 20.082454 67.892308 20.201122 67.938462 20.319493 67.984615 20.437555 68.030769 20.555298 68.076923 20.672709 68.123077 20.789777 68.169231 20.906492 68.215385 21.022841 68.261538 21.138813 68.307692 21.254398 68.353846 21.369583 68.400000 21.484357 68.446154 21.598709 68.492308 21.712628 68.538462 21.826102 68.584615 21.939119 68.630769 22.051670 68.676923 22.163741 68.723077 22.275322 68.769231 22.386402 68.815385 22.496969 68.861538 22.607011 68.907692 22.716518 68.953846 22.825478 69.000000 22.933879 69.046154 23.041711 69.092308 23.148962 69.138462 23.255621 69.184615 23.361676 69.230769 23.467115 69.276923 23.571929 69.323077 23.676104 69.369231 23.779631 69.415385 23.882497 69.461538 23.984691 69.507692 24.086203 69.553846 24.187019 69.600000 24.287130 69.646154 24.386523 69.692308 24.485188 69.738462 24.583113 69.784615 24.680287 69.830769 24.776698 69.876923 24.872336 69.923077 24.967188 69.969231 25.061243 70.015385 25.154490 70.061538 25.246918 70.107692 25.338515 70.153846 25.429270 70.200000 25.519172 70.246154 25.608209 70.292308 25.696370 70.338462 25.783643 70.384615 25.870018 70.430769 25.955482 70.476923 26.040025 70.523077 26.123635 70.569231 26.206301 70.615385 26.288011 70.661538 26.368754 70.707692 26.448519 70.753846 26.527295 70.800000 26.605069 70.846154 26.681831 70.892308 26.757570 70.938462 26.832273 70.984615 26.905930 71.030769 26.978530 71.076923 27.050060 71.123077 27.120510 71.169231 27.189868 71.215385 27.258123 71.261538 27.325264 71.307692 27.391278 71.353846 27.456158 71.400000 27.519905 71.446154 27.582523 71.492308 27.644015 71.538462 27.704386 71.584615 27.763639 71.630769 27.821778 71.676923 27.878808 71.723077 27.934733 71.769231 27.989555 71.815385 28.043280 71.861538 28.095910 71.907692 28.147451 71.953846 28.197906 72.000000 28.247278 72.046154 28.295573 72.092308 28.342793 72.138462 28.388942 72.184615 28.434026 72.230769 28.478047 72.276923 28.521009 72.323077 28.562917 72.369231 28.603774 72.415385 28.643584 72.461538 28.682351 72.507692 28.720080 72.553846 28.756774 72.600000 28.792436 72.646154 28.827072 72.692308 28.860684 72.738462 28.893277 72.784615 28.924855 72.830769 28.955422 72.876923 28.984981 72.923077 29.013536 72.969231 29.041092 73.015385 29.067653 73.061538 29.093221 73.107692 29.117802 73.153846 29.141399 73.200000 29.164016 73.246154 29.185657 73.292308 29.206327 73.338462 29.226028 73.384615 29.244764 73.430769 29.262541 73.476923 29.279361 73.523077 29.295229 73.569231 29.310148 73.615385 29.324123 73.661538 29.337158 73.707692 29.349255 73.753846 29.360420 73.800000 29.370656 73.846154 29.379967 73.892308 29.388358 73.938462 29.395831 73.984615 29.402391 74.030769 29.408042 74.076923 29.412788 74.123077 29.416633 74.169231 29.419580 74.215385 29.421634 74.261538 29.422798 74.307692 29.423077 74.353846 29.422474 74.400000 29.420994 74.446154 29.418639 74.492308 29.415415 74.538462 29.411325 74.584615 29.406373 74.630769 29.400563 74.676923 29.393899 74.723077 29.386385 74.769231 29.378024 74.815385 29.368821 74.861538 29.358780 74.907692 29.347905 74.953846 29.336199 75.000000 29.323666 75.046154 29.310310 75.092308 29.296136 75.138462 29.281147 75.184615 29.265348 75.230769 29.248741 75.276923 29.231331 75.323077 29.213123 75.369231 29.194119 75.415385 29.174324 75.461538 29.153742 75.507692 29.132376 75.553846 29.110231 75.600000 29.087311 75.646154 29.063619 75.692308 29.039159 75.738462 29.013936 75.784615 28.987953 75.830769 28.961214 75.876923 28.933723 75.923077 28.905484 75.969231 28.876502 76.015385 28.846779 76.061538 28.816320 76.107692 28.785129 76.153846 28.753209 76.200000 28.720565 76.246154 28.687201 76.292308 28.653120 76.338462 28.618327 76.384615 28.582825 76.430769 28.546618 76.476923 28.509711 76.523077 28.472107 76.569231 28.433810 76.615385 28.394823 76.661538 28.355152 76.707692 28.314800 76.753846 28.273770 76.800000 28.232068 76.846154 28.189696 76.892308 28.146658 76.938462 28.102959 76.984615 28.058603 77.030769 28.013593 77.076923 27.967933 77.123077 27.921628 77.169231 27.874681 77.215385 27.827096 77.261538 27.778877 77.307692 27.730028 77.353846 27.680553 77.400000 27.630455 77.446154 27.579740 77.492308 27.528410 77.538462 27.476470 77.584615 27.423924 77.630769 27.370775 77.676923 27.317027 77.723077 27.262685 77.769231 27.207752 77.815385 27.152233 77.861538 27.096130 77.907692 27.039449 77.953846 26.982193 78.000000 26.924366 78.046154 26.865971 78.092308 26.807014 78.138462 26.747497 78.184615 26.687425 78.230769 26.626801 78.276923 26.565631 78.323077 26.503916 78.369231 26.441662 78.415385 26.378873 78.461538 26.315551 78.507692 26.251702 78.553846 26.187329 78.600000 26.122436 78.646154 26.057027 78.692308 25.991106 78.738462 25.924677 78.784615 25.857744 78.830769 25.790311 78.876923 25.722381 78.923077 25.653959 78.969231 25.585048 79.015385 25.515653 79.061538 25.445777 79.107692 25.375424 79.153846 25.304599 79.200000 25.233305 79.246154 25.161546 79.292308 25.089326 79.338462 25.016649 79.384615 24.943519 79.430769 24.869940 79.476923 24.795915 79.523077 24.721450 79.569231 24.646547 79.615385 24.571210 79.661538 24.495444 79.707692 24.419253 79.753846 24.342640 79.800000 24.265609 79.846154 24.188164 79.892308 24.110310 79.938462 24.032049 79.984615 23.953387 80.030769 23.874327 80.076923 23.794872 80.123077 23.715027 80.169231 23.634796 80.215385 23.554183 80.261538 23.473192 80.307692 23.391825 80.353846 23.310089 80.400000 23.227986 80.446154 23.145520 80.492308 23.062695 80.538462 22.979516 80.584615 22.895986 80.630769 22.812108 80.676923 22.727888 80.723077 22.643329 80.769231 22.558435 80.815385 22.473209 80.861538 22.387656 80.907692 22.301780 80.953846 22.215584 81.000000 22.129073 81.046154 22.042250 81.092308 21.955120 81.138462 21.867686 81.184615 21.779952 81.230769 21.691923 81.276923 21.603601 81.323077 21.514992 81.369231 21.426099 81.415385 21.336925 81.461538 21.247475 81.507692 21.157754 81.553846 21.067763 81.600000 20.977509 81.646154 20.886994 81.692308 20.796222 81.738462 20.705198 81.784615 20.613925 81.830769 20.522408 81.876923 20.430649 81.923077 20.338654 81.969231 20.246426 82.015385 20.153969 82.061538 20.061287 82.107692 19.968384 82.153846 19.875264 82.200000 19.781930 82.246154 19.688387 82.292308 19.594639 82.338462 19.500689 82.384615 19.406541 82.430769 19.312200 82.476923 19.217670 82.523077 19.122953 82.569231 19.028055 82.615385 18.932979 82.661538 18.837729 82.707692 18.742309 82.753846 18.646723 82.800000 18.550974 82.846154 18.455068 82.892308 18.359007 82.938462 18.262796 82.984615 18.166440 83.030769 18.069941 83.076923 17.973305 83.123077 17.876536 83.169231 17.779638 83.215385 17.682615 83.261538 17.585471 83.307692 17.488211 83.353846 17.390838 83.400000 17.293358 83.446154 17.195773 83.492308 17.098089 83.538462 17.000310 83.584615 16.902439 83.630769 16.804481 83.676923 16.706441 83.723077 16.608322 83.769231 16.510128 83.815385 16.411864 83.861538 16.313534 83.907692 16.215142 83.953846 16.116693 84.000000 16.018190 84.046154 15.919638 84.092308 15.821041 84.138462 15.722403 84.184615 15.623729 84.230769 15.525022 84.276923 15.426287 84.323077 15.327528 84.369231 15.228749 84.415385 15.129955 84.461538 15.031149 84.507692 14.932336 84.553846 14.833520 84.600000 14.734705 84.646154 14.635896 84.692308 14.537096 84.738462 14.438310 84.784615 14.339542 84.830769 14.240797 84.876923 14.142077 84.923077 14.043389 84.969231 13.944735 85.015385 13.846121 85.061538 13.747549 85.107692 13.649025 85.153846 13.550553 85.200000 13.452137 85.246154 13.353780 85.292308 13.255488 85.338462 13.157264 85.384615 13.059113 85.430769 12.961039 85.476923 12.863046 85.523077 12.765139 85.569231 12.667320 85.615385 12.569596 85.661538 12.471969 85.707692 12.374445 85.753846 12.277026 85.800000 12.179718 85.846154 12.082525 85.892308 11.985451 85.938462 11.888500 85.984615 11.791676 86.030769 11.694984 86.076923 11.598427 86.123077 11.502011 86.169231 11.405738 86.215385 11.309614 86.261538 11.213642 86.307692 11.117828 86.353846 11.022174 86.400000 10.926685 86.446154 10.831365 86.492308 10.736219 86.538462 10.641251 86.584615 10.546465 86.630769 10.451864 86.676923 10.357455 86.723077 10.263239 86.769231 10.169223 86.815385 10.075409 86.861538 9.981803 86.907692 9.888408 86.953846 9.795229 87.000000 9.702269 87.046154 9.609533 87.092308 9.517026 87.138462 9.424751 87.184615 9.332712 87.230769 9.240915 87.276923 9.149362 87.323077 9.058058 87.369231 8.967008 87.415385 8.876216 87.461538 8.785685 87.507692 8.695420 87.553846 8.605426 87.600000 8.515706 87.646154 8.426264 87.692308 8.337105 87.738462 8.248234 87.784615 8.159653 87.830769 8.071368 87.876923 7.983383 87.923077 7.895701 87.969231 7.808328 88.015385 7.721267 88.061538 7.634522 88.107692 7.548098 88.153846 7.461998 88.200000 7.376228 88.246154 7.290791 88.292308 7.205691 88.338462 7.120933 88.384615 7.036521 88.430769 6.952459 88.476923 6.868752 88.523077 6.785402 88.569231 6.702416 88.615385 6.619796 88.661538 6.537548 88.707692 6.455674 88.753846 6.374180 88.800000 6.293070 88.846154 6.212348 88.892308 6.132018 88.938462 6.052084 88.984615 5.972550 89.030769 5.893422 89.076923 5.814702 89.123077 5.736395 89.169231 5.658506 89.215385 5.581038 89.261538 5.503996 89.307692 5.427384 89.353846 5.351206 89.400000 5.275466 89.446154 5.200169 89.492308 5.125318 89.538462 5.050919 89.584615 4.976974 89.630769 4.903489 89.676923 4.830468 89.723077 4.757914 89.769231 4.685832 89.815385 4.614227 89.861538 4.543101 89.907692 4.472461 89.953846 4.402309 90.000000 4.332650 90.046154 4.263488 90.092308 4.194827 90.138462 4.126672 90.184615 4.059027 90.230769 3.991896 90.276923 3.925283 90.323077 3.859192 90.369231 3.793628 90.415385 3.728595 90.461538 3.664097 90.507692 3.600138 90.553846 3.536722 90.600000 3.473854 90.646154 3.411538 90.692308 3.349778 90.738462 3.288578 90.784615 3.227943 90.830769 3.167876 90.876923 3.108381 90.923077 3.049464 90.969231 2.991128 91.015385 2.933378 91.061538 2.876217 91.107692 2.819650 91.153846 2.763681 91.200000 2.708315 91.246154 2.653554 91.292308 2.599405 91.338462 2.545870 91.384615 2.492954 91.430769 2.440662 91.476923 2.388997 91.523077 2.337964 91.569231 2.287566 91.615385 2.237809 91.661538 2.188696 91.707692 2.140231 91.753846 2.092419 91.800000 2.045264 91.846154 1.998770 91.892308 1.952941 91.938462 1.907782 91.984615 1.863297 92.030769 1.819489 92.076923 1.776363 92.123077 1.733924 92.169231 1.692176 92.215385 1.651122 92.261538 1.610766 92.307692 1.571114 92.353846 1.532170 92.400000 1.493937 92.446154 1.456419 92.492308 1.419622 92.538462 1.383548 92.584615 1.348203 92.630769 1.313591 92.676923 1.279715 92.723077 1.246580 92.769231 1.214190 92.815385 1.182550 92.861538 1.151663 92.907692 1.121534 92.953846 1.092167 93.000000 1.063566 93.046154 1.035735 93.092308 1.008679 93.138462 0.982402 93.184615 0.956908 93.230769 0.932201 93.276923 0.908285 93.323077 0.885165 93.369231 0.862844 93.415385 0.841328 93.461538 0.820620 93.507692 0.800724 93.553846 0.781645 93.600000 0.763386 93.646154 0.745953 93.692308 0.729349 93.738462 0.713578 93.784615 0.698645 93.830769 0.684553 93.876923 0.671308 93.923077 0.658913 93.969231 0.647372 94.015385 0.636690 94.061538 0.626870 94.107692 0.617918 94.153846 0.609837 94.200000 0.602631 94.246154 0.596305 94.292308 0.590863 94.338462 0.586309 94.384615 0.582647 94.430769 0.579880 94.476923 0.578007 94.523077 0.577022 94.569231 0.576923 94.615385 0.577706 94.661538 0.579368 94.707692 0.581905 94.753846 0.585313 94.800000 0.589588 94.846154 0.594728 94.892308 0.600729 94.938462 0.607587 94.984615 0.615298 95.030769 0.623858 95.076923 0.633265 95.123077 0.643515 95.169231 0.654604 95.215385 0.666528 95.261538 0.679284 95.307692 0.692869 95.353846 0.707278 95.400000 0.722508 95.446154 0.738556 95.492308 0.755418 95.538462 0.773091 95.584615 0.791570 95.630769 0.810852 95.676923 0.830934 95.723077 0.851812 95.769231 0.873482 95.815385 0.895942 95.861538 0.919186 95.907692 0.943213 95.953846 0.968017 96.000000 0.993596 96.046154 1.019946 96.092308 1.047063 96.138462 1.074944 96.184615 1.103586 96.230769 1.132983 96.276923 1.163134 96.323077 1.194035 96.369231 1.225681 96.415385 1.258069 96.461538 1.291196 96.507692 1.325058 96.553846 1.359652 96.600000 1.394974 96.646154 1.431020 96.692308 1.467786 96.738462 1.505270 96.784615 1.543467 96.830769 1.582375 96.876923 1.621989 96.923077 1.662305 96.969231 1.703321 97.015385 1.745032 97.061538 1.787436 97.107692 1.830528 97.153846 1.874305 97.200000 1.918763 97.246154 1.963899 97.292308 2.009709 97.338462 2.056189 97.384615 2.103337 97.430769 2.151148 97.476923 2.199619 97.523077 2.248745 97.569231 2.298525 97.615385 2.348953 97.661538 2.400027 97.707692 2.451743 97.753846 2.504097 97.800000 2.557086 97.846154 2.610706 97.892308 2.664953 97.938462 2.719825 97.984615 2.775316 98.030769 2.831425 98.076923 2.888146 98.123077 2.945478 98.169231 3.003415 98.215385 3.061954 98.261538 3.121093 98.307692 3.180826 98.353846 3.241152 98.400000 3.302065 98.446154 3.363563 98.492308 3.425642 98.538462 3.488298 98.584615 3.551528 98.630769 3.615328 98.676923 3.679694 98.723077 3.744624 98.769231 3.810112 98.815385 3.876157 98.861538 3.942754 98.907692 4.009899 98.953846 4.077590 99.000000 4.145822 99.046154 4.214592 99.092308 4.283896 99.138462 4.353731 99.184615 4.424093 99.230769 4.494978 99.276923 4.566384 99.323077 4.638305 99.369231 4.710740 99.415385 4.783684 99.461538 4.857133 99.507692 4.931084 99.553846 5.005534 99.600000 5.080479 99.646154 5.155915 99.692308 5.231838 99.738462 5.308246 99.784615 5.385134 99.830769 5.462499 99.876923 5.540337 99.923077 5.618645 99.969231 5.697419 100.015385 5.776656 100.061538 5.856352 100.107692 5.936503 100.153846 6.017106 100.200000 6.098157 100.246154 6.179653 100.292308 6.261590 100.338462 6.343964 100.384615 6.426773 100.430769 6.510011 100.476923 6.593676 100.523077 6.677765 100.569231 6.762273 100.615385 6.847197 100.661538 6.932533 100.707692 7.018278 100.753846 7.104428 100.800000 7.190980 100.846154 7.277930 100.892308 7.365274 100.938462 7.453009 100.984615 7.541131 101.030769 7.629637 101.076923 7.718524 101.123077 7.807786 101.169231 7.897422 101.215385 7.987427 101.261538 8.077797 101.307692 8.168530 101.353846 8.259622 101.400000 8.351068 101.446154 8.442866 101.492308 8.535012 101.538462 8.627502 101.584615 8.720332 101.630769 8.813500 101.676923 8.907001 101.723077 9.000832 101.769231 9.094989 101.815385 9.189469 101.861538 9.284268 101.907692 9.379383 101.953846 9.474809 102.000000 9.570544 102.046154 9.666584 102.092308 9.762925 102.138462 9.859564 102.184615 9.956497 102.230769 10.053720 102.276923 10.151230 102.323077 10.249023 102.369231 10.347096 102.415385 10.445445 102.461538 10.544067 102.507692 10.642957 102.553846 10.742113 102.600000 10.841531 102.646154 10.941206 102.692308 11.041137 102.738462 11.141318 102.784615 11.241747 102.830769 11.342420 102.876923 11.443333 102.923077 11.544482 102.969231 11.645865 103.015385 11.747477 103.061538 11.849315 103.107692 11.951375 103.153846 12.053655 103.200000 12.156149 103.246154 12.258855 103.292308 12.361768 103.338462 12.464887 103.384615 12.568206 103.430769 12.671722 103.476923 12.775432 103.523077 12.879331 103.569231 12.983418 103.615385 13.087687 103.661538 13.192136 103.707692 13.296760 103.753846 13.401556 103.800000 13.506521 103.846154 13.611651 103.892308 13.716942 103.938462 13.822391 103.984615 13.927994 104.030769 14.033748 104.076923 14.139648 104.123077 14.245693 104.169231 14.351877 104.215385 14.458197 104.261538 14.564650 104.307692 14.671232 104.353846 14.777939 104.400000 14.884769 104.446154 14.991717 104.492308 15.098779 104.538462 15.205953 104.584615 15.313234 104.630769 15.420620 104.676923 15.528105 104.723077 15.635688 104.769231 15.743363 104.815385 15.851129 104.861538 15.958980 104.907692 16.066914 104.953846 16.174927 105.000000 16.283015 105.046154 16.391175 105.092308 16.499403 105.138462 16.607695 105.184615 16.716049 105.230769 16.824459 105.276923 16.932924 105.323077 17.041439 105.369231 17.150000 105.415385 17.258605 105.461538 17.367249 105.507692 17.475928 105.553846 17.584640 105.600000 17.693381 105.646154 17.802147 105.692308 17.910934 105.738462 18.019739 105.784615 18.128559 105.830769 18.237389 105.876923 18.346227 105.923077 18.455068" class="line reactive nofill" /></g></g><g class="titles" /><g transform="translate(82, 10)" class="plot overlay"><g class="series serie-0 color-0" /></g><g transform="translate(82, 10)" class="plot text-overlay"><g class="series serie-0 color-0" /></g><g transform="translate(82, 10)" class="plot tooltip-overlay"><g transform="translate(0 0)" style="opacity: 0" class="tooltip"><rect rx="0" ry="0" width="0" height="0" class="tooltip-box" /><g class="text" /></g></g></g></svg>