<?xml version='1.0' encoding='utf-8'?>
<svg xmlns="http://www.w3.org/2000/svg" id="chart-b9659cca-fd8e-4dc4-9ceb-d7cccf2716df" class="pygal-chart pygal-sparkline" viewBox="0 0 200 50" width="200" height="50"><!--Generated with pygal 3.0.5 (etree) ©Kozea 2012-2016 on 2025-04-13--><!--http://pygal.org--><!--http://github.com/Kozea/pygal--><defs><style type="text/css">#chart-b9659cca-fd8e-4dc4-9ceb-d7cccf2716df{-webkit-user-select:none;-webkit-font-smoothing:antialiased;font-family:Consolas,"Liberation Mono",Menlo,Courier,monospace}#chart-b9659cca-fd8e-4dc4-9ceb-d7cccf2716df .title{font-family:Consolas,"Liberation Mono",Menlo,Courier,monospace;font-size:16px}#chart-b9659cca-fd8e-4dc4-9ceb-d7cccf2716df .legends .legend text{font-family:Consolas,"Liberation Mono",Menlo,Courier,monospace;font-size:14px}#chart-b9659cca-fd8e-4dc4-9ceb-d7cccf2716df .axis text{font-family:Consolas,"Liberation Mono",Menlo,Courier,monospace;font-size:10px}#chart-b9659cca-fd8e-4dc4-9ceb-d7cccf2716df .axis text.major{font-family:Consolas,"Liberation Mono",Menlo,Courier,monospace;font-size:10px}#chart-b9659cca-fd8e-4dc4-9ceb-d7cccf2716df .text-overlay text.value{font-family:Consolas,"Liberation Mono",Menlo,Courier,monospace;font-size:16px}#chart-b9659cca-fd8e-4dc4-9ceb-d7cccf2716df .text-overlay text.label{font-family:Consolas,"Liberation Mono",Menlo,Courier,monospace;font-size:10px}#chart-b9659cca-fd8e-4dc4-9ceb-d7cccf2716df .tooltip{font-family:Consolas,"Liberation Mono",Menlo,Courier,monospace;font-size:14px}#chart-b9659cca-fd8e-4dc4-9ceb-d7cccf2716df text.no_data{font-family:Consolas,"Liberation Mono",Menlo,Courier,monospace;font-size:64px}
#chart-b9659cca-fd8e-4dc4-9ceb-d7cccf2716df{background-color:rgba(249,249,249,1)}#chart-b9659cca-fd8e-4dc4-9ceb-d7cccf2716df path,#chart-b9659cca-fd8e-4dc4-9ceb-d7cccf2716df line,#chart-b9659cca-fd8e-4dc4-9ceb-d7cccf2716df rect,#chart-b9659cca-fd8e-4dc4-9ceb-d7cccf2716df circle{-webkit-transition:150ms;-moz-transition:150ms;transition:150ms}#chart-b9659cca-fd8e-4dc4-9ceb-d7cccf2716df .graph &gt; .background{fill:rgba(249,249,249,1)}#chart-b9659cca-fd8e-4dc4-9ceb-d7cccf2716df .plot &gt; .background{fill:rgba(255,255,255,1)}#chart-b9659cca-fd8e-4dc4-9ceb-d7cccf2716df .graph{fill:rgba(0,0,0,.87)}#chart-b9659cca-fd8e-4dc4-9ceb-d7cccf2716df text.no_data{fill:rgba(0,0,0,1)}#chart-b9659cca-fd8e-4dc4-9ceb-d7cccf2716df .title{fill:rgba(0,0,0,1)}#chart-b9659cca-fd8e-4dc4-9ceb-d7cccf2716df .legends .legend text{fill:rgba(0,0,0,.87)}#chart-b9659cca-fd8e-4dc4-9ceb-d7cccf2716df .legends .legend:hover text{fill:rgba(0,0,0,1)}#chart-b9659cca-fd8e-4dc4-9ceb-d7cccf2716df .axis .line{stroke:rgba(0,0,0,1)}#chart-b9659cca-fd8e-4dc4-9ceb-d7cccf2716df .axis .guide.line{stroke:rgba(0,0,0,.54)}#chart-b9659cca-fd8e-4dc4-9ceb-d7cccf2716df .axis .major.line{stroke:rgba(0,0,0,.87)}#chart-b9659cca-fd8e-4dc4-9ceb-d7cccf2716df .axis text.major{fill:rgba(0,0,0,1)}#chart-b9659cca-fd8e-4dc4-9ceb-d7cccf2716df .axis.y .guides:hover .guide.line,#chart-b9659cca-fd8e-4dc4-9ceb-d7cccf2716df .line-graph .axis.x .guides:hover .guide.line,#chart-b9659cca-fd8e-4dc4-9ceb-d7cccf2716df .stackedline-graph .axis.x .guides:hover .guide.line,#chart-b9659cca-fd8e-4dc4-9ceb-d7cccf2716df .xy-graph .axis.x .guides:hover .guide.line{stroke:rgba(0,0,0,1)}#chart-b9659cca-fd8e-4dc4-9ceb-d7cccf2716df .axis .guides:hover text{fill:rgba(0,0,0,1)}#chart-b9659cca-fd8e-4dc4-9ceb-d7cccf2716df .reactive{fill-opacity:.7;stroke-opacity:.8;stroke-width:1}#chart-b9659cca-fd8e-4dc4-9ceb-d7cccf2716df .ci{stroke:rgba(0,0,0,.87)}#chart-b9659cca-fd8e-4dc4-9ceb-d7cccf2716df .reactive.active,#chart-b9659cca-fd8e-4dc4-9ceb-d7cccf2716df .active .reactive{fill-opacity:.8;stroke-opacity:.9;stroke-width:4}#chart-b9659cca-fd8e-4dc4-9ceb-d7cccf2716df .ci .reactive.active{stroke-width:1.5}#chart-b9659cca-fd8e-4dc4-9ceb-d7cccf2716df .series text{fill:rgba(0,0,0,1)}#chart-b9659cca-fd8e-4dc4-9ceb-d7cccf2716df .tooltip rect{fill:rgba(255,255,255,1);stroke:rgba(0,0,0,1);-webkit-transition:opacity 150ms;-moz-transition:opacity 150ms;transition:opacity 150ms}#chart-b9659cca-fd8e-4dc4-9ceb-d7cccf2716df .tooltip .label{fill:rgba(0,0,0,.87)}#chart-b9659cca-fd8e-4dc4-9ceb-d7cccf2716df .tooltip .label{fill:rgba(0,0,0,.87)}#chart-b9659cca-fd8e-4dc4-9ceb-d7cccf2716df .tooltip .legend{font-size:.8em;fill:rgba(0,0,0,.54)}#chart-b9659cca-fd8e-4dc4-9ceb-d7cccf2716df .tooltip .x_label{font-size:.6em;fill:rgba(0,0,0,1)}#chart-b9659cca-fd8e-4dc4-9ceb-d7cccf2716df .tooltip .xlink{font-size:.5em;text-decoration:underline}#chart-b9659cca-fd8e-4dc4-9ceb-d7cccf2716df .tooltip .value{font-size:1.5em}#chart-b9659cca-fd8e-4dc4-9ceb-d7cccf2716df .bound{font-size:.5em}#chart-b9659cca-fd8e-4dc4-9ceb-d7cccf2716df .max-value{font-size:.75em;fill:rgba(0,0,0,.54)}#chart-b9659cca-fd8e-4dc4-9ceb-d7cccf2716df .map-element{fill:rgba(255,255,255,1);stroke:rgba(0,0,0,.54) !important}#chart-b9659cca-fd8e-4dc4-9ceb-d7cccf2716df .map-element .reactive{fill-opacity:inherit;stroke-opacity:inherit}#chart-b9659cca-fd8e-4dc4-9ceb-d7cccf2716df .color-0,#chart-b9659cca-fd8e-4dc4-9ceb-d7cccf2716df .color-0 a:visited{stroke:#F44336;fill:#F44336}#chart-b9659cca-fd8e-4dc4-9ceb-d7cccf2716df .text-overlay .color-0 text{fill:black}
#chart-b9659cca-fd8e-4dc4-9ceb-d7cccf2716df text.no_data{text-anchor:middle}#chart-b9659cca-fd8e-4dc4-9ceb-d7cccf2716df .guide.line{fill:none}#chart-b9659cca-fd8e-4dc4-9ceb-d7cccf2716df .centered{text-anchor:middle}#chart-b9659cca-fd8e-4dc4-9ceb-d7cccf2716df .title{text-anchor:middle}#chart-b9659cca-fd8e-4dc4-9ceb-d7cccf2716df .legends .legend text{fill-opacity:1}#chart-b9659cca-fd8e-4dc4-9ceb-d7cccf2716df .axis.x text{text-anchor:middle}#chart-b9659cca-fd8e-4dc4-9ceb-d7cccf2716df .axis.x:not(.web) text[transform]{text-anchor:start}#chart-b9659cca-fd8e-4dc4-9ceb-d7cccf2716df .axis.x:not(.web) text[transform].backwards{text-anchor:end}#chart-b9659cca-fd8e-4dc4-9ceb-d7cccf2716df .axis.y text{text-anchor:end}#chart-b9659cca-fd8e-4dc4-9ceb-d7cccf2716df .axis.y text[transform].backwards{text-anchor:start}#chart-b9659cca-fd8e-4dc4-9ceb-d7cccf2716df .axis.y2 text{text-anchor:start}#chart-b9659cca-fd8e-4dc4-9ceb-d7cccf2716df .axis.y2 text[transform].backwards{text-anchor:end}#chart-b9659cca-fd8e-4dc4-9ceb-d7cccf2716df .axis .guide.line{stroke-dasharray:4,4;stroke:black}#chart-b9659cca-fd8e-4dc4-9ceb-d7cccf2716df .axis .major.guide.line{stroke-dasharray:6,6;stroke:black}#chart-b9659cca-fd8e-4dc4-9ceb-d7cccf2716df .horizontal .axis.y .guide.line,#chart-b9659cca-fd8e-4dc4-9ceb-d7cccf2716df .horizontal .axis.y2 .guide.line,#chart-b9659cca-fd8e-4dc4-9ceb-d7cccf2716df .vertical .axis.x .guide.line{opacity:0}#chart-b9659cca-fd8e-4dc4-9ceb-d7cccf2716df .horizontal .axis.always_show .guide.line,#chart-b9659cca-fd8e-4dc4-9ceb-d7cccf2716df .vertical .axis.always_show .guide.line{opacity:1 !important}#chart-b9659cca-fd8e-4dc4-9ceb-d7cccf2716df .axis.y .guides:hover .guide.line,#chart-b9659cca-fd8e-4dc4-9ceb-d7cccf2716df .axis.y2 .guides:hover .guide.line,#chart-b9659cca-fd8e-4dc4-9ceb-d7cccf2716df .axis.x .guides:hover .guide.line{opacity:1}#chart-b9659cca-fd8e-4dc4-9ceb-d7cccf2716df .axis .guides:hover text{opacity:1}#chart-b9659cca-fd8e-4dc4-9ceb-d7cccf2716df .nofill{fill:none}#chart-b9659cca-fd8e-4dc4-9ceb-d7cccf2716df .subtle-fill{fill-opacity:.2}#chart-b9659cca-fd8e-4dc4-9ceb-d7cccf2716df .dot{stroke-width:1px;fill-opacity:1;stroke-opacity:1}#chart-b9659cca-fd8e-4dc4-9ceb-d7cccf2716df .dot.active{stroke-width:5px}#chart-b9659cca-fd8e-4dc4-9ceb-d7cccf2716df .dot.negative{fill:transparent}#chart-b9659cca-fd8e-4dc4-9ceb-d7cccf2716df text,#chart-b9659cca-fd8e-4dc4-9ceb-d7cccf2716df tspan{stroke:none !important}#chart-b9659cca-fd8e-4dc4-9ceb-d7cccf2716df .series text.active{opacity:1}#chart-b9659cca-fd8e-4dc4-9ceb-d7cccf2716df .tooltip rect{fill-opacity:.95;stroke-width:.5}#chart-b9659cca-fd8e-4dc4-9ceb-d7cccf2716df .tooltip text{fill-opacity:1}#chart-b9659cca-fd8e-4dc4-9ceb-d7cccf2716df .showable{visibility:hidden}#chart-b9659cca-fd8e-4dc4-9ceb-d7cccf2716df .showable.shown{visibility:visible}#chart-b9659cca-fd8e-4dc4-9ceb-d7cccf2716df .gauge-background{fill:rgba(229,229,229,1);stroke:none}#chart-b9659cca-fd8e-4dc4-9ceb-d7cccf2716df .bg-lines{stroke:rgba(249,249,249,1);stroke-width:2px}</style><script type="text/javascript">window.pygal = window.pygal || {};window.pygal.config = window.pygal.config || {};window.pygal.config['b9659cca-fd8e-4dc4-9ceb-d7cccf2716df'] = {"allow_interruptions": false, "box_mode": "extremes", "classes": ["pygal-chart", "pygal-sparkline"], "css": ["file://style.css", "file://graph.css"], "defs": [], "disable_xml_declaration": false, "dots_size": 2.5, "dynamic_print_values": false, "explicit_size": true, "fill": false, "force_uri_protocol": "https", "formatter": null, "half_pie": false, "height": 50, "include_x_axis": false, "inner_radius": 0, "interpolate": "cubic", "interpolation_parameters": {}, "interpolation_precision": 250, "inverse_y_axis": false, "js": [], "legend_at_bottom": false, "legend_at_bottom_columns": null, "legend_box_size": 12, "logarithmic": false, "margin": 10, "margin_bottom": null, "margin_left": null, "margin_right": null, "margin_top": null, "max_scale": 2, "min_scale": 1, "missing_value_fill_truncation": "x", "no_data_text": "", "no_prefix": false, "order_min": null, "pretty_print": false, "print_labels": false, "print_values": false, "print_values_position": "center", "print_zeroes": true, "range": null, "rounded_bars": null, "secondary_range": null, "show_dots": false, "show_legend": false, "show_minor_x_labels": true, "show_minor_y_labels": true, "show_only_major_dots": false, "show_x_guides": false, "show_x_labels": false, "show_y_guides": true, "show_y_labels": true, "spacing": 0, "stack_from_top": false, "strict": false, "stroke": true, "stroke_style": null, "style": {"background": "rgba(249, 249, 249, 1)", "ci_colors": [], "colors": ["#F44336", "#3F51B5", "#009688", "#FFC107", "#FF5722", "#9C27B0", "#03A9F4", "#8BC34A", "#FF9800", "#E91E63", "#2196F3", "#4CAF50", "#FFEB3B", "#673AB7", "#00BCD4", "#CDDC39", "#9E9E9E", "#607D8B"], "dot_opacity": "1", "font_family": "Consolas, \"Liberation Mono\", Menlo, Courier, monospace", "foreground": "rgba(0, 0, 0, .87)", "foreground_strong": "rgba(0, 0, 0, 1)", "foreground_subtle": "rgba(0, 0, 0, .54)", "guide_stroke_color": "black", "guide_stroke_dasharray": "4,4", "label_font_family": "Consolas, \"Liberation Mono\", Menlo, Courier, monospace", "label_font_size": 10, "legend_font_family": "Consolas, \"Liberation Mono\", Menlo, Courier, monospace", "legend_font_size": 14, "major_guide_stroke_color": "black", "major_guide_stroke_dasharray": "6,6", "major_label_font_family": "Consolas, \"Liberation Mono\", Menlo, Courier, monospace", "major_label_font_size": 10, "no_data_font_family": "Consolas, \"Liberation Mono\", Menlo, Courier, monospace", "no_data_font_size": 64, "opacity": ".7", "opacity_hover": ".8", "plot_background": "rgba(255, 255, 255, 1)", "stroke_opacity": ".8", "stroke_opacity_hover": ".9", "stroke_width": "1", "stroke_width_hover": "4", "title_font_family": "Consolas, \"Liberation Mono\", Menlo, Courier, monospace", "title_font_size": 16, "tooltip_font_family": "Consolas, \"Liberation Mono\", Menlo, Courier, monospace", "tooltip_font_size": 14, "transition": "150ms", "value_background": "rgba(229, 229, 229, 1)", "value_colors": [], "value_font_family": "Consolas, \"Liberation Mono\", Menlo, Courier, monospace", "value_font_size": 16, "value_label_font_family": "Consolas, \"Liberation Mono\", Menlo, Courier, monospace", "value_label_font_size": 10}, "title": null, "tooltip_border_radius": 0, "tooltip_fancy_mode": true, "truncate_label": null, "truncate_legend": null, "width": 200, "x_label_rotation": 0, "x_labels": ["2025/4", "2025/3", "2025/2", "2025/1", "2024/12", "2024/11", "2024/10", "2024/9", "2024/8", "2024/7", "2024/6", "2024/5"], "x_labels_major": null, "x_labels_major_count": null, "x_labels_major_every": null, "x_title": null, "xrange": null, "y_label_rotation": 0, "y_labels": null, "y_labels_major": null, "y_labels_major_count": null, "y_labels_major_every": null, "y_title": null, "zero": 0, "legends": [""]}</script></defs><title>Pygal</title><g class="graph line-graph vertical"><rect x="0" y="0" width="200" height="50" class="background" /><g transform="translate(82, 10)" class="plot"><rect x="0" y="0" width="108.0" height="30" class="background" /><g class="axis y always_show"><path d="M0.000000 30.000000 h108.000000" class="line" /><g class="guides"><path d="M0.000000 29.423077 h108.000000" class="guide line" /><text x="-5" y="32.92307692307692" class="">0.3116285448</text><title>0.3116285448</title></g><g class="guides"><path d="M0.000000 0.576923 h108.000000" class="guide line" /><text x="-5" y="4.076923076923077" class="">5.233667478</text><title>5.233667478</title></g></g><g class="series serie-0 color-0"><path d="M2.076923 25.388800 L2.114685 25.274436 2.152448 25.160076 2.190210 25.045724 2.227972 24.931385 2.265734 24.817063 2.303497 24.702762 2.341259 24.588487 2.379021 24.474241 2.416783 24.360029 2.454545 24.245855 2.492308 24.131723 2.530070 24.017638 2.567832 23.903604 2.605594 23.789624 2.643357 23.675704 2.681119 23.561847 2.718881 23.448058 2.756643 23.334340 2.794406 23.220699 2.832168 23.107138 2.869930 22.993662 2.907692 22.880274 2.945455 22.766979 2.983217 22.653782 3.020979 22.540686 3.058741 22.427696 3.096503 22.314816 3.134266 22.202049 3.172028 22.089402 3.209790 21.976876 3.247552 21.864478 3.285315 21.752211 3.323077 21.640079 3.360839 21.528086 3.398601 21.416237 3.436364 21.304536 3.474126 21.192988 3.511888 21.081596 3.549650 20.970364 3.587413 20.859297 3.625175 20.748400 3.662937 20.637675 3.700699 20.527129 3.738462 20.416764 3.776224 20.306585 3.813986 20.196596 3.851748 20.086802 3.889510 19.977207 3.927273 19.867814 3.965035 19.758629 4.002797 19.649655 4.040559 19.540896 4.078322 19.432358 4.116084 19.324043 4.153846 19.215957 4.191608 19.108103 4.229371 19.000486 4.267133 18.893110 4.304895 18.785980 4.342657 18.679098 4.380420 18.572471 4.418182 18.466101 4.455944 18.359993 4.493706 18.254152 4.531469 18.148581 4.569231 18.043285 4.606993 17.938268 4.644755 17.833534 4.682517 17.729088 4.720280 17.624933 4.758042 17.521075 4.795804 17.417516 4.833566 17.314262 4.871329 17.211317 4.909091 17.108684 4.946853 17.006369 4.984615 16.904374 5.022378 16.802706 5.060140 16.701367 5.097902 16.600362 5.135664 16.499695 5.173427 16.399371 5.211189 16.299393 5.248951 16.199766 5.286713 16.100495 5.324476 16.001582 5.362238 15.903034 5.400000 15.804853 5.437762 15.707044 5.475524 15.609611 5.513287 15.512559 5.551049 15.415891 5.588811 15.319613 5.626573 15.223728 5.664336 15.128240 5.702098 15.033153 5.739860 14.938473 5.777622 14.844202 5.815385 14.750346 5.853147 14.656909 5.890909 14.563894 5.928671 14.471306 5.966434 14.379150 6.004196 14.287428 6.041958 14.196147 6.079720 14.105309 6.117483 14.014920 6.155245 13.924983 6.193007 13.835502 6.230769 13.746483 6.268531 13.657928 6.306294 13.569843 6.344056 13.482231 6.381818 13.395096 6.419580 13.308444 6.457343 13.222278 6.495105 13.136603 6.532867 13.051421 6.570629 12.966739 6.608392 12.882560 6.646154 12.798888 6.683916 12.715728 6.721678 12.633084 6.759441 12.550959 6.797203 12.469359 6.834965 12.388287 6.872727 12.307748 6.910490 12.227746 6.948252 12.148285 6.986014 12.069369 7.023776 11.991003 7.061538 11.913191 7.099301 11.835936 7.137063 11.759244 7.174825 11.683119 7.212587 11.607564 7.250350 11.532584 7.288112 11.458184 7.325874 11.384366 7.363636 11.311137 7.401399 11.238499 7.439161 11.166458 7.476923 11.095016 7.514685 11.024179 7.552448 10.953952 7.590210 10.884337 7.627972 10.815339 7.665734 10.746963 7.703497 10.679212 7.741259 10.612091 7.779021 10.545605 7.816783 10.479757 7.854545 10.414551 7.892308 10.349992 7.930070 10.286084 7.967832 10.222832 8.005594 10.160239 8.043357 10.098310 8.081119 10.037049 8.118881 9.976460 8.156643 9.916547 8.194406 9.857315 8.232168 9.798768 8.269930 9.740910 8.307692 9.683745 8.345455 9.627278 8.383217 9.571513 8.420979 9.516454 8.458741 9.462105 8.496503 9.408470 8.534266 9.355554 8.572028 9.303361 8.609790 9.251895 8.647552 9.201161 8.685315 9.151162 8.723077 9.101903 8.760839 9.053388 8.798601 9.005621 8.836364 8.958607 8.874126 8.912349 8.911888 8.866853 8.949650 8.822122 8.987413 8.778160 9.025175 8.734972 9.062937 8.692561 9.100699 8.650933 9.138462 8.610091 9.176224 8.570040 9.213986 8.530784 9.251748 8.492326 9.289510 8.454672 9.327273 8.417825 9.365035 8.381790 9.402797 8.346571 9.440559 8.312172 9.478322 8.278597 9.516084 8.245851 9.553846 8.213938 9.591608 8.182862 9.629371 8.152627 9.667133 8.123238 9.704895 8.094698 9.742657 8.067013 9.780420 8.040186 9.818182 8.014221 9.855944 7.989122 9.893706 7.964895 9.931469 7.941543 9.969231 7.919070 10.006993 7.897481 10.044755 7.876779 10.082517 7.856969 10.120280 7.838056 10.158042 7.820043 10.195804 7.802935 10.233566 7.786736 10.271329 7.771450 10.309091 7.757082 10.346853 7.743635 10.384615 7.731114 10.422378 7.719523 10.460140 7.708866 10.497902 7.699148 10.535664 7.690372 10.573427 7.682544 10.611189 7.675666 10.648951 7.669745 10.686713 7.664783 10.724476 7.660784 10.762238 7.657754 10.800000 7.655696 10.837762 7.654615 10.875524 7.654515 10.913287 7.655399 10.951049 7.657273 10.988811 7.660141 11.026573 7.664006 11.064336 7.668873 11.102098 7.674746 11.139860 7.681630 11.177622 7.689528 11.215385 7.698445 11.253147 7.708385 11.290909 7.719353 11.328671 7.731352 11.366434 7.744387 11.404196 7.758461 11.441958 7.773580 11.479720 7.789748 11.517483 7.806968 11.555245 7.825243 11.593007 7.844567 11.630769 7.864933 11.668531 7.886333 11.706294 7.908759 11.744056 7.932204 11.781818 7.956661 11.819580 7.982120 11.857343 8.008576 11.895105 8.036019 11.932867 8.064443 11.970629 8.093840 12.008392 8.124203 12.046154 8.155523 12.083916 8.187793 12.121678 8.221005 12.159441 8.255152 12.197203 8.290226 12.234965 8.326220 12.272727 8.363125 12.310490 8.400935 12.348252 8.439641 12.386014 8.479237 12.423776 8.519713 12.461538 8.561063 12.499301 8.603279 12.537063 8.646354 12.574825 8.690279 12.612587 8.735048 12.650350 8.780652 12.688112 8.827083 12.725874 8.874335 12.763636 8.922400 12.801399 8.971269 12.839161 9.020936 12.876923 9.071393 12.914685 9.122631 12.952448 9.174644 12.990210 9.227424 13.027972 9.280962 13.065734 9.335253 13.103497 9.390287 13.141259 9.446057 13.179021 9.502556 13.216783 9.559776 13.254545 9.617709 13.292308 9.676348 13.330070 9.735685 13.367832 9.795712 13.405594 9.856423 13.443357 9.917808 13.481119 9.979861 13.518881 10.042573 13.556643 10.105938 13.594406 10.169948 13.632168 10.234594 13.669930 10.299870 13.707692 10.365767 13.745455 10.432279 13.783217 10.499397 13.820979 10.567114 13.858741 10.635422 13.896503 10.704313 13.934266 10.773780 13.972028 10.843816 14.009790 10.914412 14.047552 10.985561 14.085315 11.057256 14.123077 11.129488 14.160839 11.202250 14.198601 11.275535 14.236364 11.349335 14.274126 11.423641 14.311888 11.498448 14.349650 11.573746 14.387413 11.649528 14.425175 11.725787 14.462937 11.802515 14.500699 11.879705 14.538462 11.957348 14.576224 12.035437 14.613986 12.113965 14.651748 12.192923 14.689510 12.272305 14.727273 12.352102 14.765035 12.432307 14.802797 12.512912 14.840559 12.593910 14.878322 12.675293 14.916084 12.757054 14.953846 12.839184 14.991608 12.921676 15.029371 13.004523 15.067133 13.087716 15.104895 13.171249 15.142657 13.255113 15.180420 13.339301 15.218182 13.423806 15.255944 13.508619 15.293706 13.593733 15.331469 13.679141 15.369231 13.764834 15.406993 13.850805 15.444755 13.937047 15.482517 14.023552 15.520280 14.110312 15.558042 14.197319 15.595804 14.284567 15.633566 14.372046 15.671329 14.459751 15.709091 14.547672 15.746853 14.635803 15.784615 14.724136 15.822378 14.812662 15.860140 14.901375 15.897902 14.990267 15.935664 15.079331 15.973427 15.168557 16.011189 15.257940 16.048951 15.347471 16.086713 15.437143 16.124476 15.526948 16.162238 15.616878 16.200000 15.706926 16.237762 15.797084 16.275524 15.887345 16.313287 15.977700 16.351049 16.068143 16.388811 16.158666 16.426573 16.249260 16.464336 16.339918 16.502098 16.430634 16.539860 16.521398 16.577622 16.612204 16.615385 16.703044 16.653147 16.793909 16.690909 16.884794 16.728671 16.975689 16.766434 17.066587 16.804196 17.157481 16.841958 17.248363 16.879720 17.339225 16.917483 17.430060 16.955245 17.520860 16.993007 17.611618 17.030769 17.702325 17.068531 17.792975 17.106294 17.883559 17.144056 17.974069 17.181818 18.064500 17.219580 18.154841 17.257343 18.245087 17.295105 18.335229 17.332867 18.425260 17.370629 18.515172 17.408392 18.604957 17.446154 18.694608 17.483916 18.784118 17.521678 18.873478 17.559441 18.962680 17.597203 19.051718 17.634965 19.140584 17.672727 19.229270 17.710490 19.317768 17.748252 19.406071 17.786014 19.494170 17.823776 19.582060 17.861538 19.669731 17.899301 19.757176 17.937063 19.844388 17.974825 19.931359 18.012587 20.018081 18.050350 20.104547 18.088112 20.190749 18.125874 20.276679 18.163636 20.362330 18.201399 20.447694 18.239161 20.532763 18.276923 20.617530 18.314685 20.701988 18.352448 20.786128 18.390210 20.869943 18.427972 20.953425 18.465734 21.036567 18.503497 21.119361 18.541259 21.201799 18.579021 21.283875 18.616783 21.365579 18.654545 21.446904 18.692308 21.527844 18.730070 21.608390 18.767832 21.688534 18.805594 21.768270 18.843357 21.847588 18.881119 21.926482 18.918881 22.004945 18.956643 22.082968 18.994406 22.160543 19.032168 22.237664 19.069930 22.314322 19.107692 22.390510 19.145455 22.466220 19.183217 22.541445 19.220979 22.616177 19.258741 22.690408 19.296503 22.764130 19.334266 22.837337 19.372028 22.910021 19.409790 22.982173 19.447552 23.053786 19.485315 23.124852 19.523077 23.195365 19.560839 23.265316 19.598601 23.334697 19.636364 23.403502 19.674126 23.471721 19.711888 23.539349 19.749650 23.606376 19.787413 23.672796 19.825175 23.738601 19.862937 23.803783 19.900699 23.868334 19.938462 23.932247 19.976224 23.995515 20.013986 24.058129 20.051748 24.120082 20.089510 24.181366 20.127273 24.241975 20.165035 24.301899 20.202797 24.361132 20.240559 24.419665 20.278322 24.477492 20.316084 24.534604 20.353846 24.590994 20.391608 24.646654 20.429371 24.701577 20.467133 24.755755 20.504895 24.809181 20.542657 24.861846 20.580420 24.913743 20.618182 24.964865 20.655944 25.015203 20.693706 25.064751 20.731469 25.113500 20.769231 25.161443 20.806993 25.208572 20.844755 25.254880 20.882517 25.300359 20.920280 25.345002 20.958042 25.388800 20.995804 25.431748 21.033566 25.473848 21.071329 25.515104 21.109091 25.555519 21.146853 25.595098 21.184615 25.633843 21.222378 25.671760 21.260140 25.708852 21.297902 25.745122 21.335664 25.780574 21.373427 25.815213 21.411189 25.849041 21.448951 25.882064 21.486713 25.914284 21.524476 25.945705 21.562238 25.976332 21.600000 26.006168 21.637762 26.035216 21.675524 26.063482 21.713287 26.090967 21.751049 26.117677 21.788811 26.143615 21.826573 26.168785 21.864336 26.193191 21.902098 26.216836 21.939860 26.239724 21.977622 26.261860 22.015385 26.283246 22.053147 26.303888 22.090909 26.323787 22.128671 26.342950 22.166434 26.361378 22.204196 26.379076 22.241958 26.396048 22.279720 26.412298 22.317483 26.427829 22.355245 26.442645 22.393007 26.456750 22.430769 26.470149 22.468531 26.482843 22.506294 26.494838 22.544056 26.506138 22.581818 26.516745 22.619580 26.526665 22.657343 26.535900 22.695105 26.544454 22.732867 26.552332 22.770629 26.559537 22.808392 26.566072 22.846154 26.571943 22.883916 26.577152 22.921678 26.581703 22.959441 26.585601 22.997203 26.588848 23.034965 26.591450 23.072727 26.593408 23.110490 26.594728 23.148252 26.595414 23.186014 26.595468 23.223776 26.594895 23.261538 26.593699 23.299301 26.591883 23.337063 26.589451 23.374825 26.586408 23.412587 26.582756 23.450350 26.578500 23.488112 26.573643 23.525874 26.568190 23.563636 26.562144 23.601399 26.555508 23.639161 26.548288 23.676923 26.540485 23.714685 26.532106 23.752448 26.523152 23.790210 26.513628 23.827972 26.503538 23.865734 26.492885 23.903497 26.481674 23.941259 26.469908 23.979021 26.457591 24.016783 26.444727 24.054545 26.431319 24.092308 26.417372 24.130070 26.402888 24.167832 26.387873 24.205594 26.372330 24.243357 26.356262 24.281119 26.339674 24.318881 26.322569 24.356643 26.304951 24.394406 26.286824 24.432168 26.268192 24.469930 26.249058 24.507692 26.229426 24.545455 26.209301 24.583217 26.188685 24.620979 26.167583 24.658741 26.145999 24.696503 26.123936 24.734266 26.101398 24.772028 26.078389 24.809790 26.054913 24.847552 26.030973 24.885315 26.006574 24.923077 25.981718 24.960839 25.956411 24.998601 25.930656 25.036364 25.904456 25.074126 25.877816 25.111888 25.850739 25.149650 25.823229 25.187413 25.795290 25.225175 25.766925 25.262937 25.738139 25.300699 25.708935 25.338462 25.679317 25.376224 25.649290 25.413986 25.618855 25.451748 25.588019 25.489510 25.556783 25.527273 25.525153 25.565035 25.493132 25.602797 25.460723 25.640559 25.427931 25.678322 25.394759 25.716084 25.361212 25.753846 25.327292 25.791608 25.293004 25.829371 25.258352 25.867133 25.223339 25.904895 25.187970 25.942657 25.152247 25.980420 25.116175 26.018182 25.079758 26.055944 25.042999 26.093706 25.005903 26.131469 24.968472 26.169231 24.930712 26.206993 24.892625 26.244755 24.854215 26.282517 24.815487 26.320280 24.776444 26.358042 24.737090 26.395804 24.697428 26.433566 24.657463 26.471329 24.617199 26.509091 24.576638 26.546853 24.535786 26.584615 24.494645 26.622378 24.453220 26.660140 24.411514 26.697902 24.369531 26.735664 24.327276 26.773427 24.284751 26.811189 24.241960 26.848951 24.198908 26.886713 24.155599 26.924476 24.112035 26.962238 24.068221 27.000000 24.024161 27.037762 23.979859 27.075524 23.935317 27.113287 23.890541 27.151049 23.845533 27.188811 23.800298 27.226573 23.754840 27.264336 23.709162 27.302098 23.663268 27.339860 23.617162 27.377622 23.570848 27.415385 23.524329 27.453147 23.477610 27.490909 23.430694 27.528671 23.383585 27.566434 23.336286 27.604196 23.288802 27.641958 23.241137 27.679720 23.193293 27.717483 23.145276 27.755245 23.097089 27.793007 23.048735 27.830769 23.000218 27.868531 22.951543 27.906294 22.902713 27.944056 22.853732 27.981818 22.804603 28.019580 22.755331 28.057343 22.705919 28.095105 22.656371 28.132867 22.606691 28.170629 22.556883 28.208392 22.506951 28.246154 22.456897 28.283916 22.406727 28.321678 22.356444 28.359441 22.306051 28.397203 22.255553 28.434965 22.204954 28.472727 22.154256 28.510490 22.103465 28.548252 22.052583 28.586014 22.001615 28.623776 21.950565 28.661538 21.899435 28.699301 21.848231 28.737063 21.796955 28.774825 21.745613 28.812587 21.694206 28.850350 21.642740 28.888112 21.591218 28.925874 21.539644 28.963636 21.488021 29.001399 21.436354 29.039161 21.384646 29.076923 21.332901 29.114685 21.281124 29.152448 21.229317 29.190210 21.177484 29.227972 21.125630 29.265734 21.073758 29.303497 21.021872 29.341259 20.969976 29.379021 20.918073 29.416783 20.866168 29.454545 20.814264 29.492308 20.762365 29.530070 20.710474 29.567832 20.658597 29.605594 20.606735 29.643357 20.554894 29.681119 20.503078 29.718881 20.451288 29.756643 20.399531 29.794406 20.347809 29.832168 20.296126 29.869930 20.244487 29.907692 20.192894 29.945455 20.141352 29.983217 20.089865 30.020979 20.038435 30.058741 19.987068 30.096503 19.935767 30.134266 19.884536 30.172028 19.833378 30.209790 19.782298 30.247552 19.731298 30.285315 19.680384 30.323077 19.629559 30.360839 19.578826 30.398601 19.528189 30.436364 19.477652 30.474126 19.427214 30.511888 19.376875 30.549650 19.326634 30.587413 19.276489 30.625175 19.226440 30.662937 19.176487 30.700699 19.126628 30.738462 19.076862 30.776224 19.027188 30.813986 18.977607 30.851748 18.928116 30.889510 18.878716 30.927273 18.829404 30.965035 18.780181 31.002797 18.731046 31.040559 18.681997 31.078322 18.633034 31.116084 18.584156 31.153846 18.535362 31.191608 18.486651 31.229371 18.438023 31.267133 18.389476 31.304895 18.341010 31.342657 18.292624 31.380420 18.244317 31.418182 18.196088 31.455944 18.147937 31.493706 18.099862 31.531469 18.051863 31.569231 18.003938 31.606993 17.956087 31.644755 17.908310 31.682517 17.860605 31.720280 17.812971 31.758042 17.765407 31.795804 17.717914 31.833566 17.670489 31.871329 17.623132 31.909091 17.575843 31.946853 17.528620 31.984615 17.481462 32.022378 17.434369 32.060140 17.387340 32.097902 17.340373 32.135664 17.293469 32.173427 17.246626 32.211189 17.199844 32.248951 17.153121 32.286713 17.106456 32.324476 17.059850 32.362238 17.013300 32.400000 16.966807 32.437762 16.920369 32.475524 16.873985 32.513287 16.827655 32.551049 16.781378 32.588811 16.735153 32.626573 16.688979 32.664336 16.642855 32.702098 16.596780 32.739860 16.550754 32.777622 16.504776 32.815385 16.458845 32.853147 16.412959 32.890909 16.367119 32.928671 16.321323 32.966434 16.275570 33.004196 16.229860 33.041958 16.184192 33.079720 16.138565 33.117483 16.092978 33.155245 16.047430 33.193007 16.001920 33.230769 15.956448 33.268531 15.911013 33.306294 15.865613 33.344056 15.820248 33.381818 15.774918 33.419580 15.729621 33.457343 15.684356 33.495105 15.639123 33.532867 15.593920 33.570629 15.548748 33.608392 15.503604 33.646154 15.458489 33.683916 15.413401 33.721678 15.368340 33.759441 15.323304 33.797203 15.278293 33.834965 15.233306 33.872727 15.188342 33.910490 15.143401 33.948252 15.098481 33.986014 15.053581 34.023776 15.008702 34.061538 14.963841 34.099301 14.918998 34.137063 14.874172 34.174825 14.829363 34.212587 14.784569 34.250350 14.739790 34.288112 14.695024 34.325874 14.650272 34.363636 14.605532 34.401399 14.560803 34.439161 14.516084 34.476923 14.471375 34.514685 14.426674 34.552448 14.381982 34.590210 14.337297 34.627972 14.292617 34.665734 14.247943 34.703497 14.203274 34.741259 14.158608 34.779021 14.113945 34.816783 14.069284 34.854545 14.024624 34.892308 13.979964 34.930070 13.935304 34.967832 13.890642 35.005594 13.845978 35.043357 13.801311 35.081119 13.756640 35.118881 13.711964 35.156643 13.667282 35.194406 13.622594 35.232168 13.577898 35.269930 13.533194 35.307692 13.488481 35.345455 13.443758 35.383217 13.399025 35.420979 13.354280 35.458741 13.309522 35.496503 13.264751 35.534266 13.219966 35.572028 13.175166 35.609790 13.130350 35.647552 13.085517 35.685315 13.040667 35.723077 12.995798 35.760839 12.950910 35.798601 12.906003 35.836364 12.861074 35.874126 12.816123 35.911888 12.771150 35.949650 12.726153 35.987413 12.681132 36.025175 12.636086 36.062937 12.591014 36.100699 12.545915 36.138462 12.500788 36.176224 12.455632 36.213986 12.410448 36.251748 12.365233 36.289510 12.319987 36.327273 12.274709 36.365035 12.229398 36.402797 12.184053 36.440559 12.138674 36.478322 12.093260 36.516084 12.047810 36.553846 12.002322 36.591608 11.956797 36.629371 11.911233 36.667133 11.865629 36.704895 11.819985 36.742657 11.774300 36.780420 11.728572 36.818182 11.682802 36.855944 11.636988 36.893706 11.591129 36.931469 11.545225 36.969231 11.499274 37.006993 11.453276 37.044755 11.407230 37.082517 11.361135 37.120280 11.314991 37.158042 11.268796 37.195804 11.222549 37.233566 11.176250 37.271329 11.129898 37.309091 11.083492 37.346853 11.037032 37.384615 10.990515 37.422378 10.943942 37.460140 10.897312 37.497902 10.850624 37.535664 10.803876 37.573427 10.757069 37.611189 10.710201 37.648951 10.663271 37.686713 10.616279 37.724476 10.569223 37.762238 10.522104 37.800000 10.474919 37.837762 10.427668 37.875524 10.380351 37.913287 10.332967 37.951049 10.285514 37.988811 10.237992 38.026573 10.190399 38.064336 10.142736 38.102098 10.095001 38.139860 10.047193 38.177622 9.999312 38.215385 9.951357 38.253147 9.903327 38.290909 9.855220 38.328671 9.807037 38.366434 9.758776 38.404196 9.710436 38.441958 9.662017 38.479720 9.613518 38.517483 9.564938 38.555245 9.516276 38.593007 9.467531 38.630769 9.418702 38.668531 9.369789 38.706294 9.320791 38.744056 9.271707 38.781818 9.222535 38.819580 9.173276 38.857343 9.123928 38.895105 9.074490 38.932867 9.024962 38.970629 8.975343 39.008392 8.925631 39.046154 8.875827 39.083916 8.825929 39.121678 8.775936 39.159441 8.725848 39.197203 8.675664 39.234965 8.625382 39.272727 8.575002 39.310490 8.524524 39.348252 8.473945 39.386014 8.423266 39.423776 8.372486 39.461538 8.321604 39.499301 8.270618 39.537063 8.219528 39.574825 8.168334 39.612587 8.117034 39.650350 8.065628 39.688112 8.014114 39.725874 7.962492 39.763636 7.910761 39.801399 7.858920 39.839161 7.806968 39.876923 7.754905 39.914685 7.702735 39.952448 7.650462 39.990210 7.598089 40.027972 7.545621 40.065734 7.493062 40.103497 7.440416 40.141259 7.387687 40.179021 7.334879 40.216783 7.281996 40.254545 7.229042 40.292308 7.176022 40.330070 7.122939 40.367832 7.069797 40.405594 7.016601 40.443357 6.963355 40.481119 6.910062 40.518881 6.856727 40.556643 6.803354 40.594406 6.749947 40.632168 6.696510 40.669930 6.643047 40.707692 6.589563 40.745455 6.536061 40.783217 6.482545 40.820979 6.429019 40.858741 6.375488 40.896503 6.321956 40.934266 6.268426 40.972028 6.214903 41.009790 6.161391 41.047552 6.107894 41.085315 6.054416 41.123077 6.000961 41.160839 5.947533 41.198601 5.894137 41.236364 5.840776 41.274126 5.787454 41.311888 5.734176 41.349650 5.680945 41.387413 5.627766 41.425175 5.574643 41.462937 5.521580 41.500699 5.468580 41.538462 5.415649 41.576224 5.362789 41.613986 5.310006 41.651748 5.257303 41.689510 5.204684 41.727273 5.152154 41.765035 5.099716 41.802797 5.047375 41.840559 4.995134 41.878322 4.942998 41.916084 4.890971 41.953846 4.839057 41.991608 4.787260 42.029371 4.735584 42.067133 4.684033 42.104895 4.632611 42.142657 4.581322 42.180420 4.530171 42.218182 4.479161 42.255944 4.428297 42.293706 4.377583 42.331469 4.327022 42.369231 4.276619 42.406993 4.226378 42.444755 4.176302 42.482517 4.126397 42.520280 4.076666 42.558042 4.027113 42.595804 3.977742 42.633566 3.928558 42.671329 3.879564 42.709091 3.830764 42.746853 3.782164 42.784615 3.733765 42.822378 3.685574 42.860140 3.637594 42.897902 3.589828 42.935664 3.542281 42.973427 3.494958 43.011189 3.447861 43.048951 3.400996 43.086713 3.354366 43.124476 3.307976 43.162238 3.261829 43.200000 3.215929 43.237762 3.170282 43.275524 3.124890 43.313287 3.079757 43.351049 3.034889 43.388811 2.990289 43.426573 2.945960 43.464336 2.901908 43.502098 2.858136 43.539860 2.814649 43.577622 2.771449 43.615385 2.728542 43.653147 2.685932 43.690909 2.643622 43.728671 2.601617 43.766434 2.559921 43.804196 2.518538 43.841958 2.477471 43.879720 2.436726 43.917483 2.396306 43.955245 2.356215 43.993007 2.316457 44.030769 2.277037 44.068531 2.237958 44.106294 2.199224 44.144056 2.160840 44.181818 2.122810 44.219580 2.085137 44.257343 2.047827 44.295105 2.010882 44.332867 1.974307 44.370629 1.938107 44.408392 1.902284 44.446154 1.866844 44.483916 1.831790 44.521678 1.797126 44.559441 1.762857 44.597203 1.728987 44.634965 1.695519 44.672727 1.662458 44.710490 1.629808 44.748252 1.597572 44.786014 1.565756 44.823776 1.534363 44.861538 1.503396 44.899301 1.472861 44.937063 1.442762 44.974825 1.413101 45.012587 1.383884 45.050350 1.355115 45.088112 1.326797 45.125874 1.298935 45.163636 1.271533 45.201399 1.244595 45.239161 1.218124 45.276923 1.192126 45.314685 1.166604 45.352448 1.141562 45.390210 1.117004 45.427972 1.092934 45.465734 1.069357 45.503497 1.046277 45.541259 1.023697 45.579021 1.001622 45.616783 0.980055 45.654545 0.959001 45.692308 0.938465 45.730070 0.918449 45.767832 0.898958 45.805594 0.879997 45.843357 0.861569 45.881119 0.843678 45.918881 0.826328 45.956643 0.809524 45.994406 0.793270 46.032168 0.777569 46.069930 0.762426 46.107692 0.747845 46.145455 0.733829 46.183217 0.720384 46.220979 0.707513 46.258741 0.695219 46.296503 0.683508 46.334266 0.672384 46.372028 0.661850 46.409790 0.651910 46.447552 0.642568 46.485315 0.633830 46.523077 0.625698 46.560839 0.618177 46.598601 0.611270 46.636364 0.604983 46.674126 0.599319 46.711888 0.594282 46.749650 0.589876 46.787413 0.586105 46.825175 0.582973 46.862937 0.580485 46.900699 0.578645 46.938462 0.577456 46.976224 0.576923 47.013986 0.577050 47.051748 0.577840 47.089510 0.579299 47.127273 0.581429 47.165035 0.584235 47.202797 0.587722 47.240559 0.591893 47.278322 0.596752 47.316084 0.602304 47.353846 0.608552 47.391608 0.615500 47.429371 0.623154 47.467133 0.631516 47.504895 0.640591 47.542657 0.650383 47.580420 0.660895 47.618182 0.672133 47.655944 0.684100 47.693706 0.696800 47.731469 0.710238 47.769231 0.724417 47.806993 0.739341 47.844755 0.755015 47.882517 0.771442 47.920280 0.788628 47.958042 0.806575 47.995804 0.825287 48.033566 0.844770 48.071329 0.865027 48.109091 0.886062 48.146853 0.907879 48.184615 0.930483 48.222378 0.953876 48.260140 0.978065 48.297902 1.003051 48.335664 1.028841 48.373427 1.055437 48.411189 1.082844 48.448951 1.111065 48.486713 1.140106 48.524476 1.169969 48.562238 1.200660 48.600000 1.232182 48.637762 1.264539 48.675524 1.297735 48.713287 1.331775 48.751049 1.366662 48.788811 1.402401 48.826573 1.438996 48.864336 1.476450 48.902098 1.514768 48.939860 1.553954 48.977622 1.594012 49.015385 1.634946 49.053147 1.676761 49.090909 1.719459 49.128671 1.763046 49.166434 1.807525 49.204196 1.852900 49.241958 1.899176 49.279720 1.946357 49.317483 1.994445 49.355245 2.043435 49.393007 2.093321 49.430769 2.144095 49.468531 2.195753 49.506294 2.248287 49.544056 2.301691 49.581818 2.355959 49.619580 2.411083 49.657343 2.467058 49.695105 2.523876 49.732867 2.581532 49.770629 2.640020 49.808392 2.699331 49.846154 2.759461 49.883916 2.820402 49.921678 2.882149 49.959441 2.944694 49.997203 3.008031 50.034965 3.072154 50.072727 3.137056 50.110490 3.202730 50.148252 3.269172 50.186014 3.336372 50.223776 3.404326 50.261538 3.473027 50.299301 3.542469 50.337063 3.612644 50.374825 3.683546 50.412587 3.755170 50.450350 3.827508 50.488112 3.900553 50.525874 3.974301 50.563636 4.048743 50.601399 4.123874 50.639161 4.199687 50.676923 4.276176 50.714685 4.353333 50.752448 4.431154 50.790210 4.509630 50.827972 4.588756 50.865734 4.668526 50.903497 4.748932 50.941259 4.829968 50.979021 4.911628 51.016783 4.993906 51.054545 5.076794 51.092308 5.160287 51.130070 5.244378 51.167832 5.329060 51.205594 5.414326 51.243357 5.500172 51.281119 5.586589 51.318881 5.673572 51.356643 5.761114 51.394406 5.849208 51.432168 5.937849 51.469930 6.027029 51.507692 6.116742 51.545455 6.206982 51.583217 6.297742 51.620979 6.389016 51.658741 6.480797 51.696503 6.573079 51.734266 6.665855 51.772028 6.759119 51.809790 6.852864 51.847552 6.947084 51.885315 7.041773 51.923077 7.136923 51.960839 7.232529 51.998601 7.328583 52.036364 7.425080 52.074126 7.522014 52.111888 7.619376 52.149650 7.717162 52.187413 7.815364 52.225175 7.913977 52.262937 8.012993 52.300699 8.112406 52.338462 8.212210 52.376224 8.312398 52.413986 8.412963 52.451748 8.513900 52.489510 8.615202 52.527273 8.716862 52.565035 8.818874 52.602797 8.921231 52.640559 9.023927 52.678322 9.126956 52.716084 9.230310 52.753846 9.333984 52.791608 9.437970 52.829371 9.542264 52.867133 9.646857 52.904895 9.751744 52.942657 9.856918 52.980420 9.962372 53.018182 10.068100 53.055944 10.174097 53.093706 10.280354 53.131469 10.386866 53.169231 10.493626 53.206993 10.600628 53.244755 10.707865 53.282517 10.815331 53.320280 10.923019 53.358042 11.030924 53.395804 11.139037 53.433566 11.247353 53.471329 11.355866 53.509091 11.464569 53.546853 11.573455 53.584615 11.682518 53.622378 11.791751 53.660140 11.901149 53.697902 12.010704 53.735664 12.120410 53.773427 12.230261 53.811189 12.340250 53.848951 12.450371 53.886713 12.560617 53.924476 12.670981 53.962238 12.781458 54.000000 12.892040 54.037762 13.002722 54.075524 13.113496 54.113287 13.224357 54.151049 13.335298 54.188811 13.446312 54.226573 13.557393 54.264336 13.668534 54.302098 13.779729 54.339860 13.890972 54.377622 14.002256 54.415385 14.113574 54.453147 14.224920 54.490909 14.336288 54.528671 14.447671 54.566434 14.559063 54.604196 14.670456 54.641958 14.781846 54.679720 14.893224 54.717483 15.004585 54.755245 15.115923 54.793007 15.227230 54.830769 15.338500 54.868531 15.449728 54.906294 15.560905 54.944056 15.672027 54.981818 15.783086 55.019580 15.894075 55.057343 16.004990 55.095105 16.115822 55.132867 16.226565 55.170629 16.337214 55.208392 16.447761 55.246154 16.558200 55.283916 16.668525 55.321678 16.778729 55.359441 16.888806 55.397203 16.998748 55.434965 17.108551 55.472727 17.218206 55.510490 17.327708 55.548252 17.437051 55.586014 17.546227 55.623776 17.655231 55.661538 17.764055 55.699301 17.872694 55.737063 17.981141 55.774825 18.089389 55.812587 18.197432 55.850350 18.305263 55.888112 18.412876 55.925874 18.520265 55.963636 18.627423 56.001399 18.734343 56.039161 18.841020 56.076923 18.947446 56.114685 19.053615 56.152448 19.159521 56.190210 19.265157 56.227972 19.370516 56.265734 19.475593 56.303497 19.580381 56.341259 19.684873 56.379021 19.789062 56.416783 19.892943 56.454545 19.996509 56.492308 20.099753 56.530070 20.202669 56.567832 20.305251 56.605594 20.407491 56.643357 20.509384 56.681119 20.610923 56.718881 20.712101 56.756643 20.812913 56.794406 20.913350 56.832168 21.013408 56.869930 21.113080 56.907692 21.212359 56.945455 21.311238 56.983217 21.409712 57.020979 21.507773 57.058741 21.605415 57.096503 21.702633 57.134266 21.799418 57.172028 21.895765 57.209790 21.991668 57.247552 22.087120 57.285315 22.182113 57.323077 22.276643 57.360839 22.370702 57.398601 22.464284 57.436364 22.557383 57.474126 22.649992 57.511888 22.742104 57.549650 22.833713 57.587413 22.924813 57.625175 23.015396 57.662937 23.105458 57.700699 23.194990 57.738462 23.283988 57.776224 23.372443 57.813986 23.460350 57.851748 23.547703 57.889510 23.634494 57.927273 23.720717 57.965035 23.806366 58.002797 23.891435 58.040559 23.975916 58.078322 24.059804 58.116084 24.143092 58.153846 24.225773 58.191608 24.307841 58.229371 24.389290 58.267133 24.470113 58.304895 24.550303 58.342657 24.629854 58.380420 24.708760 58.418182 24.787014 58.455944 24.864609 58.493706 24.941540 58.531469 25.017799 58.569231 25.093381 58.606993 25.168278 58.644755 25.242485 58.682517 25.315994 58.720280 25.388800 58.758042 25.460897 58.795804 25.532285 58.833566 25.602966 58.871329 25.672942 58.909091 25.742214 58.946853 25.810783 58.984615 25.878652 59.022378 25.945821 59.060140 26.012293 59.097902 26.078069 59.135664 26.143150 59.173427 26.207538 59.211189 26.271235 59.248951 26.334242 59.286713 26.396561 59.324476 26.458194 59.362238 26.519141 59.400000 26.579404 59.437762 26.638986 59.475524 26.697887 59.513287 26.756110 59.551049 26.813655 59.588811 26.870524 59.626573 26.926719 59.664336 26.982242 59.702098 27.037094 59.739860 27.091276 59.777622 27.144790 59.815385 27.197638 59.853147 27.249822 59.890909 27.301342 59.928671 27.352200 59.966434 27.402399 60.004196 27.451939 60.041958 27.500822 60.079720 27.549050 60.117483 27.596624 60.155245 27.643546 60.193007 27.689817 60.230769 27.735439 60.268531 27.780414 60.306294 27.824742 60.344056 27.868427 60.381818 27.911468 60.419580 27.953869 60.457343 27.995629 60.495105 28.036752 60.532867 28.077238 60.570629 28.117089 60.608392 28.156306 60.646154 28.194892 60.683916 28.232847 60.721678 28.270174 60.759441 28.306874 60.797203 28.342948 60.834965 28.378398 60.872727 28.413226 60.910490 28.447432 60.948252 28.481020 60.986014 28.513989 61.023776 28.546343 61.061538 28.578082 61.099301 28.609208 61.137063 28.639722 61.174825 28.669627 61.212587 28.698923 61.250350 28.727612 61.288112 28.755697 61.325874 28.783177 61.363636 28.810056 61.401399 28.836334 61.439161 28.862013 61.476923 28.887095 61.514685 28.911580 61.552448 28.935472 61.590210 28.958771 61.627972 28.981479 61.665734 29.003597 61.703497 29.025128 61.741259 29.046072 61.779021 29.066431 61.816783 29.086207 61.854545 29.105401 61.892308 29.124015 61.930070 29.142051 61.967832 29.159509 62.005594 29.176392 62.043357 29.192701 62.081119 29.208438 62.118881 29.223604 62.156643 29.238201 62.194406 29.252231 62.232168 29.265694 62.269930 29.278593 62.307692 29.290929 62.345455 29.302703 62.383217 29.313918 62.420979 29.324575 62.458741 29.334675 62.496503 29.344220 62.534266 29.353211 62.572028 29.361651 62.609790 29.369540 62.647552 29.376880 62.685315 29.383674 62.723077 29.389921 62.760839 29.395624 62.798601 29.400785 62.836364 29.405405 62.874126 29.409485 62.911888 29.413028 62.949650 29.416034 62.987413 29.418506 63.025175 29.420445 63.062937 29.421851 63.100699 29.422728 63.138462 29.423077 63.176224 29.422899 63.213986 29.422195 63.251748 29.420968 63.289510 29.419218 63.327273 29.416948 63.365035 29.414159 63.402797 29.410852 63.440559 29.407029 63.478322 29.402692 63.516084 29.397843 63.553846 29.392482 63.591608 29.386611 63.629371 29.380233 63.667133 29.373348 63.704895 29.365958 63.742657 29.358065 63.780420 29.349669 63.818182 29.340774 63.855944 29.331380 63.893706 29.321489 63.931469 29.311102 63.969231 29.300221 64.006993 29.288848 64.044755 29.276984 64.082517 29.264631 64.120280 29.251790 64.158042 29.238463 64.195804 29.224652 64.233566 29.210357 64.271329 29.195581 64.309091 29.180326 64.346853 29.164591 64.384615 29.148381 64.422378 29.131694 64.460140 29.114535 64.497902 29.096903 64.535664 29.078801 64.573427 29.060230 64.611189 29.041192 64.648951 29.021687 64.686713 29.001719 64.724476 28.981288 64.762238 28.960396 64.800000 28.939045 64.837762 28.917235 64.875524 28.894969 64.913287 28.872249 64.951049 28.849075 64.988811 28.825449 65.026573 28.801374 65.064336 28.776850 65.102098 28.751878 65.139860 28.726462 65.177622 28.700602 65.215385 28.674299 65.253147 28.647556 65.290909 28.620373 65.328671 28.592753 65.366434 28.564697 65.404196 28.536207 65.441958 28.507283 65.479720 28.477929 65.517483 28.448145 65.555245 28.417932 65.593007 28.387293 65.630769 28.356229 65.668531 28.324741 65.706294 28.292832 65.744056 28.260502 65.781818 28.227753 65.819580 28.194588 65.857343 28.161006 65.895105 28.127011 65.932867 28.092603 65.970629 28.057784 66.008392 28.022556 66.046154 27.986920 66.083916 27.950877 66.121678 27.914430 66.159441 27.877580 66.197203 27.840329 66.234965 27.802677 66.272727 27.764627 66.310490 27.726181 66.348252 27.687339 66.386014 27.648103 66.423776 27.608475 66.461538 27.568457 66.499301 27.528049 66.537063 27.487254 66.574825 27.446074 66.612587 27.404509 66.650350 27.362561 66.688112 27.320232 66.725874 27.277524 66.763636 27.234437 66.801399 27.190974 66.839161 27.147136 66.876923 27.102925 66.914685 27.058342 66.952448 27.013389 66.990210 26.968067 67.027972 26.922378 67.065734 26.876324 67.103497 26.829906 67.141259 26.783125 67.179021 26.735984 67.216783 26.688483 67.254545 26.640625 67.292308 26.592410 67.330070 26.543841 67.367832 26.494919 67.405594 26.445646 67.443357 26.396023 67.481119 26.346052 67.518881 26.295733 67.556643 26.245070 67.594406 26.194063 67.632168 26.142715 67.669930 26.091025 67.707692 26.038997 67.745455 25.986632 67.783217 25.933931 67.820979 25.880896 67.858741 25.827528 67.896503 25.773829 67.934266 25.719801 67.972028 25.665445 68.009790 25.610762 68.047552 25.555755 68.085315 25.500424 68.123077 25.444772 68.160839 25.388800 68.198601 25.332510 68.236364 25.275906 68.274126 25.218993 68.311888 25.161775 68.349650 25.104258 68.387413 25.046446 68.425175 24.988344 68.462937 24.929956 68.500699 24.871288 68.538462 24.812343 68.576224 24.753127 68.613986 24.693644 68.651748 24.633900 68.689510 24.573898 68.727273 24.513643 68.765035 24.453141 68.802797 24.392395 68.840559 24.331411 68.878322 24.270193 68.916084 24.208747 68.953846 24.147076 68.991608 24.085185 69.029371 24.023079 69.067133 23.960764 69.104895 23.898243 69.142657 23.835521 69.180420 23.772603 69.218182 23.709494 69.255944 23.646198 69.293706 23.582720 69.331469 23.519065 69.369231 23.455237 69.406993 23.391242 69.444755 23.327084 69.482517 23.262767 69.520280 23.198297 69.558042 23.133677 69.595804 23.068914 69.633566 23.004011 69.671329 22.938973 69.709091 22.873805 69.746853 22.808511 69.784615 22.743097 69.822378 22.677567 69.860140 22.611926 69.897902 22.546178 69.935664 22.480328 69.973427 22.414381 70.011189 22.348342 70.048951 22.282215 70.086713 22.216004 70.124476 22.149716 70.162238 22.083354 70.200000 22.016923 70.237762 21.950428 70.275524 21.883874 70.313287 21.817264 70.351049 21.750605 70.388811 21.683900 70.426573 21.617155 70.464336 21.550374 70.502098 21.483562 70.539860 21.416723 70.577622 21.349862 70.615385 21.282984 70.653147 21.216094 70.690909 21.149196 70.728671 21.082296 70.766434 21.015397 70.804196 20.948504 70.841958 20.881623 70.879720 20.814757 70.917483 20.747912 70.955245 20.681093 70.993007 20.614303 71.030769 20.547549 71.068531 20.480833 71.106294 20.414162 71.144056 20.347540 71.181818 20.280971 71.219580 20.214460 71.257343 20.148013 71.295105 20.081633 71.332867 20.015326 71.370629 19.949095 71.408392 19.882947 71.446154 19.816885 71.483916 19.750914 71.521678 19.685039 71.559441 19.619265 71.597203 19.553597 71.634965 19.488038 71.672727 19.422594 71.710490 19.357270 71.748252 19.292070 71.786014 19.226998 71.823776 19.162061 71.861538 19.097262 71.899301 19.032605 71.937063 18.968097 71.974825 18.903741 72.012587 18.839542 72.050350 18.775505 72.088112 18.711635 72.125874 18.647936 72.163636 18.584413 72.201399 18.521071 72.239161 18.457914 72.276923 18.394947 72.314685 18.332176 72.352448 18.269603 72.390210 18.207235 72.427972 18.145076 72.465734 18.083131 72.503497 18.021404 72.541259 17.959900 72.579021 17.898624 72.616783 17.837581 72.654545 17.776775 72.692308 17.716210 72.730070 17.655893 72.767832 17.595827 72.805594 17.536016 72.843357 17.476467 72.881119 17.417183 72.918881 17.358170 72.956643 17.299431 72.994406 17.240972 73.032168 17.182797 73.069930 17.124911 73.107692 17.067319 73.145455 17.010026 73.183217 16.953036 73.220979 16.896353 73.258741 16.839983 73.296503 16.783931 73.334266 16.728200 73.372028 16.672797 73.409790 16.617724 73.447552 16.562988 73.485315 16.508593 73.523077 16.454543 73.560839 16.400843 73.598601 16.347499 73.636364 16.294514 73.674126 16.241894 73.711888 16.189642 73.749650 16.137765 73.787413 16.086266 73.825175 16.035150 73.862937 15.984422 73.900699 15.934087 73.938462 15.884149 73.976224 15.834614 74.013986 15.785485 74.051748 15.736767 74.089510 15.688466 74.127273 15.640586 74.165035 15.593131 74.202797 15.546107 74.240559 15.499518 74.278322 15.453368 74.316084 15.407663 74.353846 15.362407 74.391608 15.317605 74.429371 15.273262 74.467133 15.229382 74.504895 15.185970 74.542657 15.143030 74.580420 15.100568 74.618182 15.058589 74.655944 15.017096 74.693706 14.976094 74.731469 14.935589 74.769231 14.895585 74.806993 14.856087 74.844755 14.817099 74.882517 14.778626 74.920280 14.740673 74.958042 14.703244 74.995804 14.666345 75.033566 14.629979 75.071329 14.594153 75.109091 14.558869 75.146853 14.524134 75.184615 14.489951 75.222378 14.456326 75.260140 14.423264 75.297902 14.390768 75.335664 14.358843 75.373427 14.327495 75.411189 14.296729 75.448951 14.266547 75.486713 14.236957 75.524476 14.207961 75.562238 14.179566 75.600000 14.151775 75.637762 14.124593 75.675524 14.098025 75.713287 14.072076 75.751049 14.046751 75.788811 14.022053 75.826573 13.997989 75.864336 13.974562 75.902098 13.951777 75.939860 13.929639 75.977622 13.908153 76.015385 13.887323 76.053147 13.867155 76.090909 13.847652 76.128671 13.828820 76.166434 13.810663 76.204196 13.793186 76.241958 13.776394 76.279720 13.760290 76.317483 13.744882 76.355245 13.730171 76.393007 13.716165 76.430769 13.702866 76.468531 13.690281 76.506294 13.678413 76.544056 13.667267 76.581818 13.656849 76.619580 13.647162 76.657343 13.638211 76.695105 13.630002 76.732867 13.622539 76.770629 13.615826 76.808392 13.609869 76.846154 13.604672 76.883916 13.600239 76.921678 13.596576 76.959441 13.593687 76.997203 13.591576 77.034965 13.590250 77.072727 13.589711 77.110490 13.589966 77.148252 13.591018 77.186014 13.592873 77.223776 13.595534 77.261538 13.599008 77.299301 13.603298 77.337063 13.608409 77.374825 13.614346 77.412587 13.621114 77.450350 13.628718 77.488112 13.637161 77.525874 13.646449 77.563636 13.656587 77.601399 13.667579 77.639161 13.679427 77.676923 13.692128 77.714685 13.705674 77.752448 13.720058 77.790210 13.735274 77.827972 13.751313 77.865734 13.768171 77.903497 13.785839 77.941259 13.804310 77.979021 13.823579 78.016783 13.843637 78.054545 13.864478 78.092308 13.886095 78.130070 13.908482 78.167832 13.931631 78.205594 13.955535 78.243357 13.980188 78.281119 14.005582 78.318881 14.031711 78.356643 14.058567 78.394406 14.086145 78.432168 14.114436 78.469930 14.143435 78.507692 14.173134 78.545455 14.203526 78.583217 14.234604 78.620979 14.266362 78.658741 14.298792 78.696503 14.331888 78.734266 14.365643 78.772028 14.400049 78.809790 14.435101 78.847552 14.470790 78.885315 14.507111 78.923077 14.544056 78.960839 14.581618 78.998601 14.619791 79.036364 14.658567 79.074126 14.697940 79.111888 14.737902 79.149650 14.778447 79.187413 14.819569 79.225175 14.861259 79.262937 14.903511 79.300699 14.946319 79.338462 14.989675 79.376224 15.033572 79.413986 15.078004 79.451748 15.122963 79.489510 15.168443 79.527273 15.214437 79.565035 15.260938 79.602797 15.307939 79.640559 15.355432 79.678322 15.403413 79.716084 15.451872 79.753846 15.500803 79.791608 15.550201 79.829371 15.600056 79.867133 15.650364 79.904895 15.701116 79.942657 15.752306 79.980420 15.803927 80.018182 15.855972 80.055944 15.908434 80.093706 15.961307 80.131469 16.014583 80.169231 16.068255 80.206993 16.122317 80.244755 16.176761 80.282517 16.231582 80.320280 16.286771 80.358042 16.342322 80.395804 16.398228 80.433566 16.454482 80.471329 16.511077 80.509091 16.568007 80.546853 16.625264 80.584615 16.682842 80.622378 16.740733 80.660140 16.798932 80.697902 16.857429 80.735664 16.916220 80.773427 16.975297 80.811189 17.034653 80.848951 17.094281 80.886713 17.154175 80.924476 17.214327 80.962238 17.274730 81.000000 17.335378 81.037762 17.396264 81.075524 17.457380 81.113287 17.518720 81.151049 17.580278 81.188811 17.642045 81.226573 17.704016 81.264336 17.766183 81.302098 17.828539 81.339860 17.891078 81.377622 17.953792 81.415385 18.016675 81.453147 18.079720 81.490909 18.142920 81.528671 18.206268 81.566434 18.269756 81.604196 18.333379 81.641958 18.397129 81.679720 18.461000 81.717483 18.524984 81.755245 18.589074 81.793007 18.653264 81.830769 18.717547 81.868531 18.781916 81.906294 18.846364 81.944056 18.910884 81.981818 18.975469 82.019580 19.040112 82.057343 19.104806 82.095105 19.169545 82.132867 19.234322 82.170629 19.299129 82.208392 19.363959 82.246154 19.428807 82.283916 19.493665 82.321678 19.558525 82.359441 19.623382 82.397203 19.688228 82.434965 19.753056 82.472727 19.817860 82.510490 19.882632 82.548252 19.947365 82.586014 20.012054 82.623776 20.076690 82.661538 20.141267 82.699301 20.205778 82.737063 20.270217 82.774825 20.334575 82.812587 20.398847 82.850350 20.463025 82.888112 20.527102 82.925874 20.591072 82.963636 20.654928 83.001399 20.718663 83.039161 20.782269 83.076923 20.845741 83.114685 20.909070 83.152448 20.972251 83.190210 21.035276 83.227972 21.098138 83.265734 21.160831 83.303497 21.223347 83.341259 21.285680 83.379021 21.347823 83.416783 21.409769 83.454545 21.471510 83.492308 21.533041 83.530070 21.594354 83.567832 21.655442 83.605594 21.716298 83.643357 21.776916 83.681119 21.837288 83.718881 21.897408 83.756643 21.957269 83.794406 22.016863 83.832168 22.076184 83.869930 22.135226 83.907692 22.193980 83.945455 22.252441 83.983217 22.310601 84.020979 22.368454 84.058741 22.425992 84.096503 22.483208 84.134266 22.540097 84.172028 22.596650 84.209790 22.652861 84.247552 22.708723 84.285315 22.764229 84.323077 22.819372 84.360839 22.874146 84.398601 22.928543 84.436364 22.982556 84.474126 23.036179 84.511888 23.089405 84.549650 23.142227 84.587413 23.194637 84.625175 23.246630 84.662937 23.298197 84.700699 23.349333 84.738462 23.400030 84.776224 23.450281 84.813986 23.500080 84.851748 23.549419 84.889510 23.598292 84.927273 23.646691 84.965035 23.694611 85.002797 23.742044 85.040559 23.788982 85.078322 23.835420 85.116084 23.881350 85.153846 23.926765 85.191608 23.971659 85.229371 24.016024 85.267133 24.059854 85.304895 24.103142 85.342657 24.145880 85.380420 24.188063 85.418182 24.229682 85.455944 24.270732 85.493706 24.311204 85.531469 24.351093 85.569231 24.390392 85.606993 24.429093 85.644755 24.467190 85.682517 24.504675 85.720280 24.541542 85.758042 24.577784 85.795804 24.613394 85.833566 24.648365 85.871329 24.682691 85.909091 24.716363 85.946853 24.749376 85.984615 24.781723 86.022378 24.813396 86.060140 24.844389 86.097902 24.874695 86.135664 24.904306 86.173427 24.933216 86.211189 24.961419 86.248951 24.988907 86.286713 25.015673 86.324476 25.041710 86.362238 25.067012 86.400000 25.091571 86.437762 25.115381 86.475524 25.138435 86.513287 25.160726 86.551049 25.182246 86.588811 25.202990 86.626573 25.222950 86.664336 25.242119 86.702098 25.260490 86.739860 25.278057 86.777622 25.294813 86.815385 25.310750 86.853147 25.325861 86.890909 25.340141 86.928671 25.353582 86.966434 25.366176 87.004196 25.377918 87.041958 25.388800 87.079720 25.398817 87.117483 25.407972 87.155245 25.416271 87.193007 25.423718 87.230769 25.430317 87.268531 25.436074 87.306294 25.440994 87.344056 25.445082 87.381818 25.448342 87.419580 25.450779 87.457343 25.452399 87.495105 25.453206 87.532867 25.453205 87.570629 25.452401 87.608392 25.450799 87.646154 25.448403 87.683916 25.445220 87.721678 25.441252 87.759441 25.436507 87.797203 25.430987 87.834965 25.424699 87.872727 25.417647 87.910490 25.409836 87.948252 25.401271 87.986014 25.391957 88.023776 25.381898 88.061538 25.371100 88.099301 25.359568 88.137063 25.347306 88.174825 25.334319 88.212587 25.320613 88.250350 25.306191 88.288112 25.291060 88.325874 25.275223 88.363636 25.258687 88.401399 25.241455 88.439161 25.223532 88.476923 25.204924 88.514685 25.185636 88.552448 25.165671 88.590210 25.145036 88.627972 25.123735 88.665734 25.101773 88.703497 25.079155 88.741259 25.055885 88.779021 25.031969 88.816783 25.007412 88.854545 24.982218 88.892308 24.956392 88.930070 24.929940 88.967832 24.902866 89.005594 24.875175 89.043357 24.846871 89.081119 24.817961 89.118881 24.788448 89.156643 24.758338 89.194406 24.727635 89.232168 24.696345 89.269930 24.664472 89.307692 24.632021 89.345455 24.598997 89.383217 24.565405 89.420979 24.531250 89.458741 24.496537 89.496503 24.461271 89.534266 24.425456 89.572028 24.389098 89.609790 24.352201 89.647552 24.314770 89.685315 24.276810 89.723077 24.238326 89.760839 24.199324 89.798601 24.159807 89.836364 24.119781 89.874126 24.079250 89.911888 24.038220 89.949650 23.996696 89.987413 23.954681 90.025175 23.912182 90.062937 23.869203 90.100699 23.825750 90.138462 23.781826 90.176224 23.737436 90.213986 23.692587 90.251748 23.647282 90.289510 23.601526 90.327273 23.555325 90.365035 23.508683 90.402797 23.461606 90.440559 23.414097 90.478322 23.366163 90.516084 23.317807 90.553846 23.269035 90.591608 23.219851 90.629371 23.170262 90.667133 23.120270 90.704895 23.069882 90.742657 23.019102 90.780420 22.967936 90.818182 22.916387 90.855944 22.864462 90.893706 22.812164 90.931469 22.759498 90.969231 22.706471 91.006993 22.653086 91.044755 22.599348 91.082517 22.545263 91.120280 22.490835 91.158042 22.436069 91.195804 22.380970 91.233566 22.325542 91.271329 22.269792 91.309091 22.213723 91.346853 22.157341 91.384615 22.100650 91.422378 22.043656 91.460140 21.986363 91.497902 21.928776 91.535664 21.870900 91.573427 21.812740 91.611189 21.754301 91.648951 21.695588 91.686713 21.636605 91.724476 21.577358 91.762238 21.517851 91.800000 21.458090 91.837762 21.398079 91.875524 21.337822 91.913287 21.277326 91.951049 21.216595 91.988811 21.155634 92.026573 21.094447 92.064336 21.033040 92.102098 20.971418 92.139860 20.909584 92.177622 20.847545 92.215385 20.785306 92.253147 20.722870 92.290909 20.660243 92.328671 20.597431 92.366434 20.534436 92.404196 20.471266 92.441958 20.407924 92.479720 20.344416 92.517483 20.280746 92.555245 20.216919 92.593007 20.152940 92.630769 20.088815 92.668531 20.024547 92.706294 19.960142 92.744056 19.895605 92.781818 19.830941 92.819580 19.766154 92.857343 19.701249 92.895105 19.636232 92.932867 19.571107 92.970629 19.505879 93.008392 19.440553 93.046154 19.375133 93.083916 19.309626 93.121678 19.244036 93.159441 19.178367 93.197203 19.112624 93.234965 19.046813 93.272727 18.980938 93.310490 18.915004 93.348252 18.849016 93.386014 18.782980 93.423776 18.716899 93.461538 18.650779 93.499301 18.584624 93.537063 18.518440 93.574825 18.452232 93.612587 18.386003 93.650350 18.319760 93.688112 18.253507 93.725874 18.187250 93.763636 18.120992 93.801399 18.054739 93.839161 17.988495 93.876923 17.922266 93.914685 17.856057 93.952448 17.789872 93.990210 17.723717 94.027972 17.657595 94.065734 17.591513 94.103497 17.525475 94.141259 17.459485 94.179021 17.393549 94.216783 17.327672 94.254545 17.261859 94.292308 17.196114 94.330070 17.130442 94.367832 17.064849 94.405594 16.999338 94.443357 16.933916 94.481119 16.868587 94.518881 16.803355 94.556643 16.738227 94.594406 16.673206 94.632168 16.608297 94.669930 16.543506 94.707692 16.478837 94.745455 16.414296 94.783217 16.349886 94.820979 16.285614 94.858741 16.221483 94.896503 16.157499 94.934266 16.093667 94.972028 16.029991 95.009790 15.966477 95.047552 15.903130 95.085315 15.839953 95.123077 15.776953 95.160839 15.714134 95.198601 15.651501 95.236364 15.589059 95.274126 15.526812 95.311888 15.464766 95.349650 15.402926 95.387413 15.341296 95.425175 15.279881 95.462937 15.218687 95.500699 15.157718 95.538462 15.096978 95.576224 15.036474 95.613986 14.976210 95.651748 14.916190 95.689510 14.856420 95.727273 14.796904 95.765035 14.737648 95.802797 14.678656 95.840559 14.619933 95.878322 14.561485 95.916084 14.503315 95.953846 14.445429 95.991608 14.387832 96.029371 14.330529 96.067133 14.273524 96.104895 14.216823 96.142657 14.160430 96.180420 14.104351 96.218182 14.048589 96.255944 13.993151 96.293706 13.938040 96.331469 13.883263 96.369231 13.828823 96.406993 13.774726 96.444755 13.720976 96.482517 13.667579 96.520280 13.614537 96.558042 13.561852 96.595804 13.509522 96.633566 13.457544 96.671329 13.405918 96.709091 13.354642 96.746853 13.303715 96.784615 13.253135 96.822378 13.202901 96.860140 13.153012 96.897902 13.103466 96.935664 13.054261 96.973427 13.005396 97.011189 12.956870 97.048951 12.908682 97.086713 12.860829 97.124476 12.813311 97.162238 12.766126 97.200000 12.719272 97.237762 12.672749 97.275524 12.626554 97.313287 12.580687 97.351049 12.535145 97.388811 12.489928 97.426573 12.445034 97.464336 12.400462 97.502098 12.356209 97.539860 12.312276 97.577622 12.268660 97.615385 12.225359 97.653147 12.182373 97.690909 12.139700 97.728671 12.097339 97.766434 12.055288 97.804196 12.013545 97.841958 11.972110 97.879720 11.930981 97.917483 11.890156 97.955245 11.849634 97.993007 11.809414 98.030769 11.769494 98.068531 11.729873 98.106294 11.690549 98.144056 11.651520 98.181818 11.612787 98.219580 11.574346 98.257343 11.536197 98.295105 11.498338 98.332867 11.460767 98.370629 11.423484 98.408392 11.386487 98.446154 11.349774 98.483916 11.313345 98.521678 11.277196 98.559441 11.241328 98.597203 11.205739 98.634965 11.170427 98.672727 11.135391 98.710490 11.100629 98.748252 11.066140 98.786014 11.031923 98.823776 10.997976 98.861538 10.964298 98.899301 10.930887 98.937063 10.897742 98.974825 10.864861 99.012587 10.832243 99.050350 10.799887 99.088112 10.767791 99.125874 10.735953 99.163636 10.704373 99.201399 10.673049 99.239161 10.641979 99.276923 10.611162 99.314685 10.580597 99.352448 10.550281 99.390210 10.520215 99.427972 10.490396 99.465734 10.460822 99.503497 10.431493 99.541259 10.402407 99.579021 10.373563 99.616783 10.344958 99.654545 10.316593 99.692308 10.288464 99.730070 10.260572 99.767832 10.232914 99.805594 10.205488 99.843357 10.178295 99.881119 10.151331 99.918881 10.124596 99.956643 10.098089 99.994406 10.071807 100.032168 10.045750 100.069930 10.019915 100.107692 9.994303 100.145455 9.968910 100.183217 9.943736 100.220979 9.918779 100.258741 9.894038 100.296503 9.869512 100.334266 9.845198 100.372028 9.821096 100.409790 9.797204 100.447552 9.773521 100.485315 9.750045 100.523077 9.726774 100.560839 9.703709 100.598601 9.680846 100.636364 9.658184 100.674126 9.635723 100.711888 9.613461 100.749650 9.591395 100.787413 9.569526 100.825175 9.547851 100.862937 9.526369 100.900699 9.505078 100.938462 9.483977 100.976224 9.463065 101.013986 9.442341 101.051748 9.421802 101.089510 9.401448 101.127273 9.381276 101.165035 9.361286 101.202797 9.341476 101.240559 9.321845 101.278322 9.302391 101.316084 9.283113 101.353846 9.264009 101.391608 9.245078 101.429371 9.226319 101.467133 9.207729 101.504895 9.189309 101.542657 9.171055 101.580420 9.152968 101.618182 9.135045 101.655944 9.117284 101.693706 9.099686 101.731469 9.082247 101.769231 9.064967 101.806993 9.047844 101.844755 9.030877 101.882517 9.014064 101.920280 8.997405 101.958042 8.980897 101.995804 8.964538 102.033566 8.948329 102.071329 8.932267 102.109091 8.916350 102.146853 8.900578 102.184615 8.884949 102.222378 8.869461 102.260140 8.854113 102.297902 8.838905 102.335664 8.823833 102.373427 8.808897 102.411189 8.794095 102.448951 8.779426 102.486713 8.764889 102.524476 8.750482 102.562238 8.736204 102.600000 8.722052 102.637762 8.708027 102.675524 8.694126 102.713287 8.680347 102.751049 8.666691 102.788811 8.653154 102.826573 8.639736 102.864336 8.626435 102.902098 8.613250 102.939860 8.600179 102.977622 8.587221 103.015385 8.574375 103.053147 8.561639 103.090909 8.549011 103.128671 8.536490 103.166434 8.524076 103.204196 8.511765 103.241958 8.499558 103.279720 8.487452 103.317483 8.475446 103.355245 8.463539 103.393007 8.451728 103.430769 8.440014 103.468531 8.428394 103.506294 8.416867 103.544056 8.405431 103.581818 8.394086 103.619580 8.382829 103.657343 8.371659 103.695105 8.360575 103.732867 8.349575 103.770629 8.338658 103.808392 8.327823 103.846154 8.317068 103.883916 8.306391 103.921678 8.295792 103.959441 8.285268 103.997203 8.274818 104.034965 8.264442 104.072727 8.254137 104.110490 8.243902 104.148252 8.233735 104.186014 8.223636 104.223776 8.213603 104.261538 8.203633 104.299301 8.193727 104.337063 8.183882 104.374825 8.174098 104.412587 8.164371 104.450350 8.154702 104.488112 8.145089 104.525874 8.135530 104.563636 8.126024 104.601399 8.116569 104.639161 8.107165 104.676923 8.097809 104.714685 8.088500 104.752448 8.079237 104.790210 8.070018 104.827972 8.060842 104.865734 8.051708 104.903497 8.042613 104.941259 8.033557 104.979021 8.024539 105.016783 8.015556 105.054545 8.006607 105.092308 7.997691 105.130070 7.988807 105.167832 7.979952 105.205594 7.971127 105.243357 7.962328 105.281119 7.953555 105.318881 7.944807 105.356643 7.936081 105.394406 7.927377 105.432168 7.918692 105.469930 7.910027 105.507692 7.901378 105.545455 7.892745 105.583217 7.884127 105.620979 7.875521 105.658741 7.866927 105.696503 7.858343 105.734266 7.849767 105.772028 7.841199 105.809790 7.832636 105.847552 7.824078 105.885315 7.815522 105.923077 7.806968" class="line reactive nofill" /></g></g><g class="titles" /><g transform="translate(82, 10)" class="plot overlay"><g class="series serie-0 color-0" /></g><g transform="translate(82, 10)" class="plot text-overlay"><g class="series serie-0 color-0" /></g><g transform="translate(82, 10)" class="plot tooltip-overlay"><g transform="translate(0 0)" style="opacity: 0" class="tooltip"><rect rx="0" ry="0" width="0" height="0" class="tooltip-box" /><g class="text" /></g></g></g></svg>