<?xml version='1.0' encoding='utf-8'?>
<svg xmlns="http://www.w3.org/2000/svg" id="chart-cc093814-c37a-48c1-a2bc-3870f6b73afb" class="pygal-chart pygal-sparkline" viewBox="0 0 200 50" width="200" height="50"><!--Generated with pygal 3.0.4 (etree) ©Kozea 2012-2016 on 2024-08-05--><!--http://pygal.org--><!--http://github.com/Kozea/pygal--><defs><style type="text/css">#chart-cc093814-c37a-48c1-a2bc-3870f6b73afb{-webkit-user-select:none;-webkit-font-smoothing:antialiased;font-family:Consolas,"Liberation Mono",Menlo,Courier,monospace}#chart-cc093814-c37a-48c1-a2bc-3870f6b73afb .title{font-family:Consolas,"Liberation Mono",Menlo,Courier,monospace;font-size:16px}#chart-cc093814-c37a-48c1-a2bc-3870f6b73afb .legends .legend text{font-family:Consolas,"Liberation Mono",Menlo,Courier,monospace;font-size:14px}#chart-cc093814-c37a-48c1-a2bc-3870f6b73afb .axis text{font-family:Consolas,"Liberation Mono",Menlo,Courier,monospace;font-size:10px}#chart-cc093814-c37a-48c1-a2bc-3870f6b73afb .axis text.major{font-family:Consolas,"Liberation Mono",Menlo,Courier,monospace;font-size:10px}#chart-cc093814-c37a-48c1-a2bc-3870f6b73afb .text-overlay text.value{font-family:Consolas,"Liberation Mono",Menlo,Courier,monospace;font-size:16px}#chart-cc093814-c37a-48c1-a2bc-3870f6b73afb .text-overlay text.label{font-family:Consolas,"Liberation Mono",Menlo,Courier,monospace;font-size:10px}#chart-cc093814-c37a-48c1-a2bc-3870f6b73afb .tooltip{font-family:Consolas,"Liberation Mono",Menlo,Courier,monospace;font-size:14px}#chart-cc093814-c37a-48c1-a2bc-3870f6b73afb text.no_data{font-family:Consolas,"Liberation Mono",Menlo,Courier,monospace;font-size:64px}
#chart-cc093814-c37a-48c1-a2bc-3870f6b73afb{background-color:rgba(249,249,249,1)}#chart-cc093814-c37a-48c1-a2bc-3870f6b73afb path,#chart-cc093814-c37a-48c1-a2bc-3870f6b73afb line,#chart-cc093814-c37a-48c1-a2bc-3870f6b73afb rect,#chart-cc093814-c37a-48c1-a2bc-3870f6b73afb circle{-webkit-transition:150ms;-moz-transition:150ms;transition:150ms}#chart-cc093814-c37a-48c1-a2bc-3870f6b73afb .graph &gt; .background{fill:rgba(249,249,249,1)}#chart-cc093814-c37a-48c1-a2bc-3870f6b73afb .plot &gt; .background{fill:rgba(255,255,255,1)}#chart-cc093814-c37a-48c1-a2bc-3870f6b73afb .graph{fill:rgba(0,0,0,.87)}#chart-cc093814-c37a-48c1-a2bc-3870f6b73afb text.no_data{fill:rgba(0,0,0,1)}#chart-cc093814-c37a-48c1-a2bc-3870f6b73afb .title{fill:rgba(0,0,0,1)}#chart-cc093814-c37a-48c1-a2bc-3870f6b73afb .legends .legend text{fill:rgba(0,0,0,.87)}#chart-cc093814-c37a-48c1-a2bc-3870f6b73afb .legends .legend:hover text{fill:rgba(0,0,0,1)}#chart-cc093814-c37a-48c1-a2bc-3870f6b73afb .axis .line{stroke:rgba(0,0,0,1)}#chart-cc093814-c37a-48c1-a2bc-3870f6b73afb .axis .guide.line{stroke:rgba(0,0,0,.54)}#chart-cc093814-c37a-48c1-a2bc-3870f6b73afb .axis .major.line{stroke:rgba(0,0,0,.87)}#chart-cc093814-c37a-48c1-a2bc-3870f6b73afb .axis text.major{fill:rgba(0,0,0,1)}#chart-cc093814-c37a-48c1-a2bc-3870f6b73afb .axis.y .guides:hover .guide.line,#chart-cc093814-c37a-48c1-a2bc-3870f6b73afb .line-graph .axis.x .guides:hover .guide.line,#chart-cc093814-c37a-48c1-a2bc-3870f6b73afb .stackedline-graph .axis.x .guides:hover .guide.line,#chart-cc093814-c37a-48c1-a2bc-3870f6b73afb .xy-graph .axis.x .guides:hover .guide.line{stroke:rgba(0,0,0,1)}#chart-cc093814-c37a-48c1-a2bc-3870f6b73afb .axis .guides:hover text{fill:rgba(0,0,0,1)}#chart-cc093814-c37a-48c1-a2bc-3870f6b73afb .reactive{fill-opacity:.7;stroke-opacity:.8;stroke-width:1}#chart-cc093814-c37a-48c1-a2bc-3870f6b73afb .ci{stroke:rgba(0,0,0,.87)}#chart-cc093814-c37a-48c1-a2bc-3870f6b73afb .reactive.active,#chart-cc093814-c37a-48c1-a2bc-3870f6b73afb .active .reactive{fill-opacity:.8;stroke-opacity:.9;stroke-width:4}#chart-cc093814-c37a-48c1-a2bc-3870f6b73afb .ci .reactive.active{stroke-width:1.5}#chart-cc093814-c37a-48c1-a2bc-3870f6b73afb .series text{fill:rgba(0,0,0,1)}#chart-cc093814-c37a-48c1-a2bc-3870f6b73afb .tooltip rect{fill:rgba(255,255,255,1);stroke:rgba(0,0,0,1);-webkit-transition:opacity 150ms;-moz-transition:opacity 150ms;transition:opacity 150ms}#chart-cc093814-c37a-48c1-a2bc-3870f6b73afb .tooltip .label{fill:rgba(0,0,0,.87)}#chart-cc093814-c37a-48c1-a2bc-3870f6b73afb .tooltip .label{fill:rgba(0,0,0,.87)}#chart-cc093814-c37a-48c1-a2bc-3870f6b73afb .tooltip .legend{font-size:.8em;fill:rgba(0,0,0,.54)}#chart-cc093814-c37a-48c1-a2bc-3870f6b73afb .tooltip .x_label{font-size:.6em;fill:rgba(0,0,0,1)}#chart-cc093814-c37a-48c1-a2bc-3870f6b73afb .tooltip .xlink{font-size:.5em;text-decoration:underline}#chart-cc093814-c37a-48c1-a2bc-3870f6b73afb .tooltip .value{font-size:1.5em}#chart-cc093814-c37a-48c1-a2bc-3870f6b73afb .bound{font-size:.5em}#chart-cc093814-c37a-48c1-a2bc-3870f6b73afb .max-value{font-size:.75em;fill:rgba(0,0,0,.54)}#chart-cc093814-c37a-48c1-a2bc-3870f6b73afb .map-element{fill:rgba(255,255,255,1);stroke:rgba(0,0,0,.54) !important}#chart-cc093814-c37a-48c1-a2bc-3870f6b73afb .map-element .reactive{fill-opacity:inherit;stroke-opacity:inherit}#chart-cc093814-c37a-48c1-a2bc-3870f6b73afb .color-0,#chart-cc093814-c37a-48c1-a2bc-3870f6b73afb .color-0 a:visited{stroke:#F44336;fill:#F44336}#chart-cc093814-c37a-48c1-a2bc-3870f6b73afb .text-overlay .color-0 text{fill:black}
#chart-cc093814-c37a-48c1-a2bc-3870f6b73afb text.no_data{text-anchor:middle}#chart-cc093814-c37a-48c1-a2bc-3870f6b73afb .guide.line{fill:none}#chart-cc093814-c37a-48c1-a2bc-3870f6b73afb .centered{text-anchor:middle}#chart-cc093814-c37a-48c1-a2bc-3870f6b73afb .title{text-anchor:middle}#chart-cc093814-c37a-48c1-a2bc-3870f6b73afb .legends .legend text{fill-opacity:1}#chart-cc093814-c37a-48c1-a2bc-3870f6b73afb .axis.x text{text-anchor:middle}#chart-cc093814-c37a-48c1-a2bc-3870f6b73afb .axis.x:not(.web) text[transform]{text-anchor:start}#chart-cc093814-c37a-48c1-a2bc-3870f6b73afb .axis.x:not(.web) text[transform].backwards{text-anchor:end}#chart-cc093814-c37a-48c1-a2bc-3870f6b73afb .axis.y text{text-anchor:end}#chart-cc093814-c37a-48c1-a2bc-3870f6b73afb .axis.y text[transform].backwards{text-anchor:start}#chart-cc093814-c37a-48c1-a2bc-3870f6b73afb .axis.y2 text{text-anchor:start}#chart-cc093814-c37a-48c1-a2bc-3870f6b73afb .axis.y2 text[transform].backwards{text-anchor:end}#chart-cc093814-c37a-48c1-a2bc-3870f6b73afb .axis .guide.line{stroke-dasharray:4,4;stroke:black}#chart-cc093814-c37a-48c1-a2bc-3870f6b73afb .axis .major.guide.line{stroke-dasharray:6,6;stroke:black}#chart-cc093814-c37a-48c1-a2bc-3870f6b73afb .horizontal .axis.y .guide.line,#chart-cc093814-c37a-48c1-a2bc-3870f6b73afb .horizontal .axis.y2 .guide.line,#chart-cc093814-c37a-48c1-a2bc-3870f6b73afb .vertical .axis.x .guide.line{opacity:0}#chart-cc093814-c37a-48c1-a2bc-3870f6b73afb .horizontal .axis.always_show .guide.line,#chart-cc093814-c37a-48c1-a2bc-3870f6b73afb .vertical .axis.always_show .guide.line{opacity:1 !important}#chart-cc093814-c37a-48c1-a2bc-3870f6b73afb .axis.y .guides:hover .guide.line,#chart-cc093814-c37a-48c1-a2bc-3870f6b73afb .axis.y2 .guides:hover .guide.line,#chart-cc093814-c37a-48c1-a2bc-3870f6b73afb .axis.x .guides:hover .guide.line{opacity:1}#chart-cc093814-c37a-48c1-a2bc-3870f6b73afb .axis .guides:hover text{opacity:1}#chart-cc093814-c37a-48c1-a2bc-3870f6b73afb .nofill{fill:none}#chart-cc093814-c37a-48c1-a2bc-3870f6b73afb .subtle-fill{fill-opacity:.2}#chart-cc093814-c37a-48c1-a2bc-3870f6b73afb .dot{stroke-width:1px;fill-opacity:1;stroke-opacity:1}#chart-cc093814-c37a-48c1-a2bc-3870f6b73afb .dot.active{stroke-width:5px}#chart-cc093814-c37a-48c1-a2bc-3870f6b73afb .dot.negative{fill:transparent}#chart-cc093814-c37a-48c1-a2bc-3870f6b73afb text,#chart-cc093814-c37a-48c1-a2bc-3870f6b73afb tspan{stroke:none !important}#chart-cc093814-c37a-48c1-a2bc-3870f6b73afb .series text.active{opacity:1}#chart-cc093814-c37a-48c1-a2bc-3870f6b73afb .tooltip rect{fill-opacity:.95;stroke-width:.5}#chart-cc093814-c37a-48c1-a2bc-3870f6b73afb .tooltip text{fill-opacity:1}#chart-cc093814-c37a-48c1-a2bc-3870f6b73afb .showable{visibility:hidden}#chart-cc093814-c37a-48c1-a2bc-3870f6b73afb .showable.shown{visibility:visible}#chart-cc093814-c37a-48c1-a2bc-3870f6b73afb .gauge-background{fill:rgba(229,229,229,1);stroke:none}#chart-cc093814-c37a-48c1-a2bc-3870f6b73afb .bg-lines{stroke:rgba(249,249,249,1);stroke-width:2px}</style><script type="text/javascript">window.pygal = window.pygal || {};window.pygal.config = window.pygal.config || {};window.pygal.config['cc093814-c37a-48c1-a2bc-3870f6b73afb'] = {"allow_interruptions": false, "box_mode": "extremes", "classes": ["pygal-chart", "pygal-sparkline"], "css": ["file://style.css", "file://graph.css"], "defs": [], "disable_xml_declaration": false, "dots_size": 2.5, "dynamic_print_values": false, "explicit_size": true, "fill": false, "force_uri_protocol": "https", "formatter": null, "half_pie": false, "height": 50, "include_x_axis": false, "inner_radius": 0, "interpolate": "cubic", "interpolation_parameters": {}, "interpolation_precision": 250, "inverse_y_axis": false, "js": [], "legend_at_bottom": false, "legend_at_bottom_columns": null, "legend_box_size": 12, "logarithmic": false, "margin": 10, "margin_bottom": null, "margin_left": null, "margin_right": null, "margin_top": null, "max_scale": 2, "min_scale": 1, "missing_value_fill_truncation": "x", "no_data_text": "", "no_prefix": false, "order_min": null, "pretty_print": false, "print_labels": false, "print_values": false, "print_values_position": "center", "print_zeroes": true, "range": null, "rounded_bars": null, "secondary_range": null, "show_dots": false, "show_legend": false, "show_minor_x_labels": true, "show_minor_y_labels": true, "show_only_major_dots": false, "show_x_guides": false, "show_x_labels": false, "show_y_guides": true, "show_y_labels": true, "spacing": 0, "stack_from_top": false, "strict": false, "stroke": true, "stroke_style": null, "style": {"background": "rgba(249, 249, 249, 1)", "ci_colors": [], "colors": ["#F44336", "#3F51B5", "#009688", "#FFC107", "#FF5722", "#9C27B0", "#03A9F4", "#8BC34A", "#FF9800", "#E91E63", "#2196F3", "#4CAF50", "#FFEB3B", "#673AB7", "#00BCD4", "#CDDC39", "#9E9E9E", "#607D8B"], "dot_opacity": "1", "font_family": "Consolas, \"Liberation Mono\", Menlo, Courier, monospace", "foreground": "rgba(0, 0, 0, .87)", "foreground_strong": "rgba(0, 0, 0, 1)", "foreground_subtle": "rgba(0, 0, 0, .54)", "guide_stroke_color": "black", "guide_stroke_dasharray": "4,4", "label_font_family": "Consolas, \"Liberation Mono\", Menlo, Courier, monospace", "label_font_size": 10, "legend_font_family": "Consolas, \"Liberation Mono\", Menlo, Courier, monospace", "legend_font_size": 14, "major_guide_stroke_color": "black", "major_guide_stroke_dasharray": "6,6", "major_label_font_family": "Consolas, \"Liberation Mono\", Menlo, Courier, monospace", "major_label_font_size": 10, "no_data_font_family": "Consolas, \"Liberation Mono\", Menlo, Courier, monospace", "no_data_font_size": 64, "opacity": ".7", "opacity_hover": ".8", "plot_background": "rgba(255, 255, 255, 1)", "stroke_opacity": ".8", "stroke_opacity_hover": ".9", "stroke_width": "1", "stroke_width_hover": "4", "title_font_family": "Consolas, \"Liberation Mono\", Menlo, Courier, monospace", "title_font_size": 16, "tooltip_font_family": "Consolas, \"Liberation Mono\", Menlo, Courier, monospace", "tooltip_font_size": 14, "transition": "150ms", "value_background": "rgba(229, 229, 229, 1)", "value_colors": [], "value_font_family": "Consolas, \"Liberation Mono\", Menlo, Courier, monospace", "value_font_size": 16, "value_label_font_family": "Consolas, \"Liberation Mono\", Menlo, Courier, monospace", "value_label_font_size": 10}, "title": null, "tooltip_border_radius": 0, "tooltip_fancy_mode": true, "truncate_label": null, "truncate_legend": null, "width": 200, "x_label_rotation": 0, "x_labels": ["2024/7", "2024/6", "2024/5", "2024/4", "2024/3", "2023/11", "2023/10", "2023/9", "2023/8", "2023/7"], "x_labels_major": null, "x_labels_major_count": null, "x_labels_major_every": null, "x_title": null, "xrange": null, "y_label_rotation": 0, "y_labels": null, "y_labels_major": null, "y_labels_major_count": null, "y_labels_major_every": null, "y_title": null, "zero": 0, "legends": [""]}</script></defs><title>Pygal</title><g class="graph line-graph vertical"><rect x="0" y="0" width="200" height="50" class="background" /><g transform="translate(76, 10)" class="plot"><rect x="0" y="0" width="114.0" height="30" class="background" /><g class="axis y always_show"><path d="M0.000000 30.000000 h114.000000" class="line" /><g class="guides"><path d="M0.000000 29.423077 h114.000000" class="guide line" /><text x="-5" y="32.92307692307692" class="">1</text><title>1</title></g><g class="guides"><path d="M0.000000 0.576923 h114.000000" class="guide line" /><text x="-5" y="4.076923076923084" class="">6.076028701</text><title>6.076028701</title></g></g><g class="series serie-0 color-0"><path d="M2.192308 29.423077 L2.241026 29.366813 2.289744 29.310549 2.338462 29.254288 2.387179 29.198030 2.435897 29.141776 2.484615 29.085527 2.533333 29.029285 2.582051 28.973050 2.630769 28.916823 2.679487 28.860605 2.728205 28.804398 2.776923 28.748202 2.825641 28.692019 2.874359 28.635849 2.923077 28.579693 2.971795 28.523553 3.020513 28.467430 3.069231 28.411324 3.117949 28.355238 3.166667 28.299170 3.215385 28.243124 3.264103 28.187099 3.312821 28.131097 3.361538 28.075119 3.410256 28.019166 3.458974 27.963238 3.507692 27.907338 3.556410 27.851466 3.605128 27.795623 3.653846 27.739809 3.702564 27.684027 3.751282 27.628277 3.800000 27.572561 3.848718 27.516878 3.897436 27.461231 3.946154 27.405620 3.994872 27.350046 4.043590 27.294511 4.092308 27.239015 4.141026 27.183559 4.189744 27.128145 4.238462 27.072774 4.287179 27.017446 4.335897 26.962163 4.384615 26.906925 4.433333 26.851734 4.482051 26.796591 4.530769 26.741496 4.579487 26.686451 4.628205 26.631457 4.676923 26.576515 4.725641 26.521626 4.774359 26.466791 4.823077 26.412010 4.871795 26.357286 4.920513 26.302619 4.969231 26.248009 5.017949 26.193459 5.066667 26.138969 5.115385 26.084540 5.164103 26.030174 5.212821 25.975870 5.261538 25.921631 5.310256 25.867458 5.358974 25.813350 5.407692 25.759310 5.456410 25.705339 5.505128 25.651437 5.553846 25.597605 5.602564 25.543845 5.651282 25.490158 5.700000 25.436544 5.748718 25.383005 5.797436 25.329542 5.846154 25.276155 5.894872 25.222846 5.943590 25.169616 5.992308 25.116466 6.041026 25.063396 6.089744 25.010409 6.138462 24.957504 6.187179 24.904684 6.235897 24.851949 6.284615 24.799299 6.333333 24.746737 6.382051 24.694263 6.430769 24.641878 6.479487 24.589583 6.528205 24.537380 6.576923 24.485268 6.625641 24.433251 6.674359 24.381327 6.723077 24.329499 6.771795 24.277767 6.820513 24.226133 6.869231 24.174598 6.917949 24.123162 6.966667 24.071826 7.015385 24.020592 7.064103 23.969461 7.112821 23.918433 7.161538 23.867511 7.210256 23.816694 7.258974 23.765983 7.307692 23.715381 7.356410 23.664887 7.405128 23.614504 7.453846 23.564231 7.502564 23.514071 7.551282 23.464023 7.600000 23.414090 7.648718 23.364271 7.697436 23.314569 7.746154 23.264984 7.794872 23.215517 7.843590 23.166169 7.892308 23.116942 7.941026 23.067836 7.989744 23.018852 8.038462 22.969992 8.087179 22.921256 8.135897 22.872646 8.184615 22.824162 8.233333 22.775806 8.282051 22.727578 8.330769 22.679480 8.379487 22.631513 8.428205 22.583677 8.476923 22.535974 8.525641 22.488405 8.574359 22.440971 8.623077 22.393672 8.671795 22.346511 8.720513 22.299487 8.769231 22.252602 8.817949 22.205857 8.866667 22.159254 8.915385 22.112792 8.964103 22.066473 9.012821 22.020299 9.061538 21.974270 9.110256 21.928386 9.158974 21.882651 9.207692 21.837063 9.256410 21.791625 9.305128 21.746337 9.353846 21.701201 9.402564 21.656217 9.451282 21.611386 9.500000 21.566710 9.548718 21.522190 9.597436 21.477826 9.646154 21.433620 9.694872 21.389572 9.743590 21.345684 9.792308 21.301957 9.841026 21.258392 9.889744 21.214989 9.938462 21.171750 9.987179 21.128676 10.035897 21.085768 10.084615 21.043027 10.133333 21.000454 10.182051 20.958051 10.230769 20.915817 10.279487 20.873754 10.328205 20.831863 10.376923 20.790146 10.425641 20.748602 10.474359 20.707234 10.523077 20.666043 10.571795 20.625028 10.620513 20.584192 10.669231 20.543535 10.717949 20.503059 10.766667 20.462765 10.815385 20.422652 10.864103 20.382724 10.912821 20.342979 10.961538 20.303421 11.010256 20.264049 11.058974 20.224865 11.107692 20.185870 11.156410 20.147064 11.205128 20.108449 11.253846 20.070026 11.302564 20.031796 11.351282 19.993760 11.400000 19.955919 11.448718 19.918273 11.497436 19.880825 11.546154 19.843575 11.594872 19.806524 11.643590 19.769673 11.692308 19.733023 11.741026 19.696576 11.789744 19.660331 11.838462 19.624291 11.887179 19.588457 11.935897 19.552828 11.984615 19.517407 12.033333 19.482195 12.082051 19.447192 12.130769 19.412399 12.179487 19.377818 12.228205 19.343450 12.276923 19.309295 12.325641 19.275355 12.374359 19.241631 12.423077 19.208123 12.471795 19.174833 12.520513 19.141762 12.569231 19.108911 12.617949 19.076280 12.666667 19.043872 12.715385 19.011686 12.764103 18.979725 12.812821 18.947988 12.861538 18.916478 12.910256 18.885194 12.958974 18.854139 13.007692 18.823313 13.056410 18.792717 13.105128 18.762353 13.153846 18.732220 13.202564 18.702321 13.251282 18.672657 13.300000 18.643228 13.348718 18.614035 13.397436 18.585079 13.446154 18.556363 13.494872 18.527885 13.543590 18.499649 13.592308 18.471654 13.641026 18.443901 13.689744 18.416392 13.738462 18.389128 13.787179 18.362110 13.835897 18.335339 13.884615 18.308815 13.933333 18.282540 13.982051 18.256516 14.030769 18.230742 14.079487 18.205220 14.128205 18.179951 14.176923 18.154936 14.225641 18.130176 14.274359 18.105673 14.323077 18.081427 14.371795 18.057438 14.420513 18.033709 14.469231 18.010235 14.517949 17.987015 14.566667 17.964045 14.615385 17.941323 14.664103 17.918844 14.712821 17.896607 14.761538 17.874608 14.810256 17.852844 14.858974 17.831313 14.907692 17.810011 14.956410 17.788934 15.005128 17.768082 15.053846 17.747449 15.102564 17.727034 15.151282 17.706832 15.200000 17.686842 15.248718 17.667060 15.297436 17.647484 15.346154 17.628109 15.394872 17.608934 15.443590 17.589955 15.492308 17.571169 15.541026 17.552573 15.589744 17.534165 15.638462 17.515940 15.687179 17.497897 15.735897 17.480032 15.784615 17.462343 15.833333 17.444825 15.882051 17.427476 15.930769 17.410294 15.979487 17.393275 16.028205 17.376416 16.076923 17.359714 16.125641 17.343166 16.174359 17.326770 16.223077 17.310521 16.271795 17.294418 16.320513 17.278457 16.369231 17.262635 16.417949 17.246949 16.466667 17.231396 16.515385 17.215974 16.564103 17.200678 16.612821 17.185507 16.661538 17.170457 16.710256 17.155524 16.758974 17.140707 16.807692 17.126003 16.856410 17.111407 16.905128 17.096917 16.953846 17.082531 17.002564 17.068244 17.051282 17.054055 17.100000 17.039959 17.148718 17.025955 17.197436 17.012039 17.246154 16.998208 17.294872 16.984459 17.343590 16.970790 17.392308 16.957196 17.441026 16.943675 17.489744 16.930225 17.538462 16.916841 17.587179 16.903522 17.635897 16.890263 17.684615 16.877063 17.733333 16.863918 17.782051 16.850824 17.830769 16.837780 17.879487 16.824782 17.928205 16.811827 17.976923 16.798912 18.025641 16.786034 18.074359 16.773190 18.123077 16.760377 18.171795 16.747593 18.220513 16.734833 18.269231 16.722095 18.317949 16.709376 18.366667 16.696674 18.415385 16.683984 18.464103 16.671304 18.512821 16.658632 18.561538 16.645963 18.610256 16.633295 18.658974 16.620626 18.707692 16.607951 18.756410 16.595269 18.805128 16.582575 18.853846 16.569867 18.902564 16.557143 18.951282 16.544398 19.000000 16.531631 19.048718 16.518837 19.097436 16.506014 19.146154 16.493160 19.194872 16.480270 19.243590 16.467342 19.292308 16.454373 19.341026 16.441361 19.389744 16.428301 19.438462 16.415191 19.487179 16.402028 19.535897 16.388809 19.584615 16.375531 19.633333 16.362191 19.682051 16.348786 19.730769 16.335313 19.779487 16.321769 19.828205 16.308151 19.876923 16.294456 19.925641 16.280680 19.974359 16.266822 20.023077 16.252878 20.071795 16.238844 20.120513 16.224718 20.169231 16.210498 20.217949 16.196179 20.266667 16.181759 20.315385 16.167235 20.364103 16.152604 20.412821 16.137863 20.461538 16.123009 20.510256 16.108039 20.558974 16.092950 20.607692 16.077738 20.656410 16.062402 20.705128 16.046937 20.753846 16.031341 20.802564 16.015611 20.851282 15.999744 20.900000 15.983737 20.948718 15.967587 20.997436 15.951291 21.046154 15.934845 21.094872 15.918248 21.143590 15.901495 21.192308 15.884584 21.241026 15.867512 21.289744 15.850276 21.338462 15.832873 21.387179 15.815299 21.435897 15.797553 21.484615 15.779630 21.533333 15.761528 21.582051 15.743244 21.630769 15.724775 21.679487 15.706118 21.728205 15.687269 21.776923 15.668227 21.825641 15.648987 21.874359 15.629547 21.923077 15.609904 21.971795 15.590054 22.020513 15.569996 22.069231 15.549725 22.117949 15.529239 22.166667 15.508535 22.215385 15.487610 22.264103 15.466461 22.312821 15.445084 22.361538 15.423477 22.410256 15.401637 22.458974 15.379561 22.507692 15.357245 22.556410 15.334688 22.605128 15.311885 22.653846 15.288834 22.702564 15.265532 22.751282 15.241975 22.800000 15.218161 22.848718 15.194088 22.897436 15.169750 22.946154 15.145147 22.994872 15.120274 23.043590 15.095130 23.092308 15.069709 23.141026 15.044011 23.189744 15.018032 23.238462 14.991768 23.287179 14.965217 23.335897 14.938375 23.384615 14.911241 23.433333 14.883810 23.482051 14.856080 23.530769 14.828047 23.579487 14.799710 23.628205 14.771064 23.676923 14.742107 23.725641 14.712835 23.774359 14.683247 23.823077 14.653338 23.871795 14.623105 23.920513 14.592547 23.969231 14.561659 24.017949 14.530439 24.066667 14.498883 24.115385 14.466990 24.164103 14.434755 24.212821 14.402175 24.261538 14.369249 24.310256 14.335972 24.358974 14.302342 24.407692 14.268355 24.456410 14.234009 24.505128 14.199301 24.553846 14.164228 24.602564 14.128786 24.651282 14.092973 24.700000 14.056785 24.748718 14.020221 24.797436 13.983275 24.846154 13.945947 24.894872 13.908232 24.943590 13.870128 24.992308 13.831632 25.041026 13.792740 25.089744 13.753450 25.138462 13.713758 25.187179 13.673662 25.235897 13.633159 25.284615 13.592245 25.333333 13.550918 25.382051 13.509175 25.430769 13.467012 25.479487 13.424427 25.528205 13.381417 25.576923 13.337978 25.625641 13.294108 25.674359 13.249803 25.723077 13.205062 25.771795 13.159879 25.820513 13.114253 25.869231 13.068181 25.917949 13.021660 25.966667 12.974686 26.015385 12.927257 26.064103 12.879369 26.112821 12.831020 26.161538 12.782206 26.210256 12.732925 26.258974 12.683174 26.307692 12.632949 26.356410 12.582248 26.405128 12.531067 26.453846 12.479404 26.502564 12.427256 26.551282 12.374619 26.600000 12.321492 26.648718 12.267881 26.697436 12.213791 26.746154 12.159230 26.794872 12.104203 26.843590 12.048719 26.892308 11.992782 26.941026 11.936400 26.989744 11.879580 27.038462 11.822328 27.087179 11.764650 27.135897 11.706554 27.184615 11.648046 27.233333 11.589132 27.282051 11.529819 27.330769 11.470114 27.379487 11.410023 27.428205 11.349553 27.476923 11.288711 27.525641 11.227503 27.574359 11.165936 27.623077 11.104016 27.671795 11.041750 27.720513 10.979144 27.769231 10.916206 27.817949 10.852941 27.866667 10.789357 27.915385 10.725460 27.964103 10.661257 28.012821 10.596754 28.061538 10.531957 28.110256 10.466875 28.158974 10.401512 28.207692 10.335876 28.256410 10.269973 28.305128 10.203810 28.353846 10.137394 28.402564 10.070730 28.451282 10.003827 28.500000 9.936690 28.548718 9.869325 28.597436 9.801741 28.646154 9.733942 28.694872 9.665936 28.743590 9.597730 28.792308 9.529329 28.841026 9.460742 28.889744 9.391973 28.938462 9.323030 28.987179 9.253920 29.035897 9.184649 29.084615 9.115223 29.133333 9.045650 29.182051 8.975935 29.230769 8.906086 29.279487 8.836109 29.328205 8.766011 29.376923 8.695798 29.425641 8.625477 29.474359 8.555054 29.523077 8.484537 29.571795 8.413931 29.620513 8.343244 29.669231 8.272482 29.717949 8.201651 29.766667 8.130759 29.815385 8.059811 29.864103 7.988815 29.912821 7.917776 29.961538 7.846702 30.010256 7.775600 30.058974 7.704475 30.107692 7.633335 30.156410 7.562186 30.205128 7.491035 30.253846 7.419887 30.302564 7.348751 30.351282 7.277632 30.400000 7.206538 30.448718 7.135474 30.497436 7.064447 30.546154 6.993464 30.594872 6.922532 30.643590 6.851657 30.692308 6.780846 30.741026 6.710105 30.789744 6.639441 30.838462 6.568861 30.887179 6.498370 30.935897 6.427977 30.984615 6.357687 31.033333 6.287507 31.082051 6.217444 31.130769 6.147504 31.179487 6.077694 31.228205 6.008020 31.276923 5.938490 31.325641 5.869109 31.374359 5.799884 31.423077 5.730823 31.471795 5.661930 31.520513 5.593214 31.569231 5.524681 31.617949 5.456337 31.666667 5.388189 31.715385 5.320244 31.764103 5.252507 31.812821 5.184987 31.861538 5.117689 31.910256 5.050620 31.958974 4.983786 32.007692 4.917195 32.056410 4.850852 32.105128 4.784765 32.153846 4.718940 32.202564 4.653384 32.251282 4.588103 32.300000 4.523104 32.348718 4.458393 32.397436 4.393977 32.446154 4.329863 32.494872 4.266058 32.543590 4.202567 32.592308 4.139398 32.641026 4.076557 32.689744 4.014051 32.738462 3.951886 32.787179 3.890069 32.835897 3.828607 32.884615 3.767506 32.933333 3.706772 32.982051 3.646413 33.030769 3.586435 33.079487 3.526845 33.128205 3.467649 33.176923 3.408854 33.225641 3.350466 33.274359 3.292492 33.323077 3.234939 33.371795 3.177814 33.420513 3.121122 33.469231 3.064870 33.517949 3.009066 33.566667 2.953716 33.615385 2.898825 33.664103 2.844402 33.712821 2.790453 33.761538 2.736983 33.810256 2.684000 33.858974 2.631511 33.907692 2.579522 33.956410 2.528039 34.005128 2.477069 34.053846 2.426619 34.102564 2.376696 34.151282 2.327306 34.200000 2.278455 34.248718 2.230151 34.297436 2.182399 34.346154 2.135207 34.394872 2.088581 34.443590 2.042528 34.492308 1.997054 34.541026 1.952166 34.589744 1.907870 34.638462 1.864174 34.687179 1.821083 34.735897 1.778605 34.784615 1.736745 34.833333 1.695511 34.882051 1.654910 34.930769 1.614947 34.979487 1.575629 35.028205 1.536964 35.076923 1.498957 35.125641 1.461616 35.174359 1.424946 35.223077 1.388954 35.271795 1.353648 35.320513 1.319034 35.369231 1.285117 35.417949 1.251906 35.466667 1.219406 35.515385 1.187624 35.564103 1.156567 35.612821 1.126241 35.661538 1.096653 35.710256 1.067810 35.758974 1.039717 35.807692 1.012383 35.856410 0.985813 35.905128 0.960014 35.953846 0.934992 36.002564 0.910755 36.051282 0.887308 36.100000 0.864659 36.148718 0.842814 36.197436 0.821780 36.246154 0.801562 36.294872 0.782169 36.343590 0.763606 36.392308 0.745880 36.441026 0.728998 36.489744 0.712966 36.538462 0.697791 36.587179 0.683480 36.635897 0.670038 36.684615 0.657474 36.733333 0.645792 36.782051 0.635001 36.830769 0.625106 36.879487 0.616115 36.928205 0.608033 36.976923 0.600867 37.025641 0.594625 37.074359 0.589312 37.123077 0.584935 37.171795 0.581502 37.220513 0.579017 37.269231 0.577489 37.317949 0.576923 37.366667 0.577327 37.415385 0.578706 37.464103 0.581068 37.512821 0.584419 37.561538 0.588766 37.610256 0.594115 37.658974 0.600473 37.707692 0.607846 37.756410 0.616242 37.805128 0.625666 37.853846 0.636126 37.902564 0.647627 37.951282 0.660177 38.000000 0.673783 38.048718 0.688450 38.097436 0.704186 38.146154 0.720996 38.194872 0.738889 38.243590 0.757869 38.292308 0.777944 38.341026 0.799121 38.389744 0.821406 38.438462 0.844805 38.487179 0.869326 38.535897 0.894975 38.584615 0.921758 38.633333 0.949682 38.682051 0.978754 38.730769 1.008980 38.779487 1.040365 38.828205 1.072903 38.876923 1.106585 38.925641 1.141404 38.974359 1.177350 39.023077 1.214417 39.071795 1.252597 39.120513 1.291879 39.169231 1.332258 39.217949 1.373724 39.266667 1.416269 39.315385 1.459886 39.364103 1.504565 39.412821 1.550300 39.461538 1.597081 39.510256 1.644900 39.558974 1.693750 39.607692 1.743623 39.656410 1.794509 39.705128 1.846401 39.753846 1.899291 39.802564 1.953170 39.851282 2.008031 39.900000 2.063865 39.948718 2.120665 39.997436 2.178421 40.046154 2.237126 40.094872 2.296772 40.143590 2.357350 40.192308 2.418852 40.241026 2.481271 40.289744 2.544597 40.338462 2.608824 40.387179 2.673942 40.435897 2.739943 40.484615 2.806820 40.533333 2.874564 40.582051 2.943167 40.630769 3.012621 40.679487 3.082917 40.728205 3.154049 40.776923 3.226006 40.825641 3.298782 40.874359 3.372368 40.923077 3.446756 40.971795 3.521937 41.020513 3.597904 41.069231 3.674649 41.117949 3.752162 41.166667 3.830437 41.215385 3.909465 41.264103 3.989238 41.312821 4.069747 41.361538 4.150985 41.410256 4.232943 41.458974 4.315613 41.507692 4.398987 41.556410 4.483057 41.605128 4.567815 41.653846 4.653252 41.702564 4.739360 41.751282 4.826132 41.800000 4.913559 41.848718 5.001633 41.897436 5.090345 41.946154 5.179688 41.994872 5.269653 42.043590 5.360233 42.092308 5.451418 42.141026 5.543202 42.189744 5.635575 42.238462 5.728530 42.287179 5.822058 42.335897 5.916151 42.384615 6.010802 42.433333 6.106002 42.482051 6.201742 42.530769 6.298015 42.579487 6.394813 42.628205 6.492126 42.676923 6.589948 42.725641 6.688270 42.774359 6.787084 42.823077 6.886382 42.871795 6.986155 42.920513 7.086395 42.969231 7.187094 43.017949 7.288245 43.066667 7.389838 43.115385 7.491867 43.164103 7.594321 43.212821 7.697195 43.261538 7.800478 43.310256 7.904163 43.358974 8.008243 43.407692 8.112708 43.456410 8.217551 43.505128 8.322763 43.553846 8.428336 43.602564 8.534263 43.651282 8.640534 43.700000 8.747143 43.748718 8.854079 43.797436 8.961337 43.846154 9.068907 43.894872 9.176781 43.943590 9.284951 43.992308 9.393408 44.041026 9.502146 44.089744 9.611155 44.138462 9.720427 44.187179 9.829955 44.235897 9.939729 44.284615 10.049743 44.333333 10.159987 44.382051 10.270453 44.430769 10.381135 44.479487 10.492022 44.528205 10.603107 44.576923 10.714383 44.625641 10.825840 44.674359 10.937471 44.723077 11.049267 44.771795 11.161221 44.820513 11.273323 44.869231 11.385567 44.917949 11.497943 44.966667 11.610444 45.015385 11.723062 45.064103 11.835788 45.112821 11.948614 45.161538 12.061532 45.210256 12.174533 45.258974 12.287611 45.307692 12.400756 45.356410 12.513961 45.405128 12.627216 45.453846 12.740515 45.502564 12.853849 45.551282 12.967209 45.600000 13.080588 45.648718 13.193977 45.697436 13.307369 45.746154 13.420754 45.794872 13.534126 45.843590 13.647475 45.892308 13.760794 45.941026 13.874075 45.989744 13.987308 46.038462 14.100487 46.087179 14.213603 46.135897 14.326648 46.184615 14.439613 46.233333 14.552491 46.282051 14.665273 46.330769 14.777951 46.379487 14.890517 46.428205 15.002964 46.476923 15.115281 46.525641 15.227463 46.574359 15.339500 46.623077 15.451384 46.671795 15.563107 46.720513 15.674660 46.769231 15.786037 46.817949 15.897228 46.866667 16.008226 46.915385 16.119022 46.964103 16.229608 47.012821 16.339976 47.061538 16.450118 47.110256 16.560025 47.158974 16.669690 47.207692 16.779104 47.256410 16.888259 47.305128 16.997147 47.353846 17.105760 47.402564 17.214090 47.451282 17.322128 47.500000 17.429866 47.548718 17.537297 47.597436 17.644412 47.646154 17.751202 47.694872 17.857661 47.743590 17.963779 47.792308 18.069548 47.841026 18.174960 47.889744 18.280008 47.938462 18.384682 47.987179 18.488975 48.035897 18.592879 48.084615 18.696385 48.133333 18.799485 48.182051 18.902172 48.230769 19.004436 48.279487 19.106270 48.328205 19.207666 48.376923 19.308616 48.425641 19.409110 48.474359 19.509142 48.523077 19.608703 48.571795 19.707784 48.620513 19.806378 48.669231 19.904477 48.717949 20.002072 48.766667 20.099156 48.815385 20.195719 48.864103 20.291754 48.912821 20.387253 48.961538 20.482207 49.010256 20.576609 49.058974 20.670450 49.107692 20.763722 49.156410 20.856417 49.205128 20.948527 49.253846 21.040043 49.302564 21.130958 49.351282 21.221263 49.400000 21.310950 49.448718 21.400011 49.497436 21.488438 49.546154 21.576223 49.594872 21.663357 49.643590 21.749832 49.692308 21.835640 49.741026 21.920774 49.789744 22.005224 49.838462 22.088983 49.887179 22.172042 49.935897 22.254394 49.984615 22.336030 50.033333 22.416942 50.082051 22.497122 50.130769 22.576562 50.179487 22.655253 50.228205 22.733187 50.276923 22.810357 50.325641 22.886754 50.374359 22.962370 50.423077 23.037196 50.471795 23.111225 50.520513 23.184449 50.569231 23.256859 50.617949 23.328447 50.666667 23.399204 50.715385 23.469124 50.764103 23.538197 50.812821 23.606416 50.861538 23.673772 50.910256 23.740258 50.958974 23.805866 51.007692 23.870599 51.056410 23.934462 51.105128 23.997459 51.153846 24.059593 51.202564 24.120870 51.251282 24.181292 51.300000 24.240866 51.348718 24.299593 51.397436 24.357480 51.446154 24.414530 51.494872 24.470747 51.543590 24.526135 51.592308 24.580699 51.641026 24.634443 51.689744 24.687372 51.738462 24.739488 51.787179 24.790797 51.835897 24.841303 51.884615 24.891010 51.933333 24.939921 51.982051 24.988043 52.030769 25.035377 52.079487 25.081930 52.128205 25.127704 52.176923 25.172705 52.225641 25.216936 52.274359 25.260402 52.323077 25.303106 52.371795 25.345054 52.420513 25.386249 52.469231 25.426695 52.517949 25.466397 52.566667 25.505358 52.615385 25.543584 52.664103 25.581078 52.712821 25.617844 52.761538 25.653887 52.810256 25.689211 52.858974 25.723820 52.907692 25.757719 52.956410 25.790911 53.005128 25.823400 53.053846 25.855192 53.102564 25.886289 53.151282 25.916697 53.200000 25.946420 53.248718 25.975461 53.297436 26.003825 53.346154 26.031517 53.394872 26.058539 53.443590 26.084898 53.492308 26.110596 53.541026 26.135638 53.589744 26.160028 53.638462 26.183771 53.687179 26.206870 53.735897 26.229330 53.784615 26.251156 53.833333 26.272350 53.882051 26.292918 53.930769 26.312863 53.979487 26.332191 54.028205 26.350904 54.076923 26.369008 54.125641 26.386506 54.174359 26.403403 54.223077 26.419703 54.271795 26.435410 54.320513 26.450528 54.369231 26.465062 54.417949 26.479016 54.466667 26.492393 54.515385 26.505199 54.564103 26.517436 54.612821 26.529111 54.661538 26.540226 54.710256 26.550787 54.758974 26.560796 54.807692 26.570259 54.856410 26.579179 54.905128 26.587561 54.953846 26.595410 55.002564 26.602728 55.051282 26.609521 55.100000 26.615792 55.148718 26.621547 55.197436 26.626788 55.246154 26.631521 55.294872 26.635749 55.343590 26.639477 55.392308 26.642709 55.441026 26.645448 55.489744 26.647700 55.538462 26.649469 55.587179 26.650758 55.635897 26.651572 55.684615 26.651916 55.733333 26.651792 55.782051 26.651207 55.830769 26.650163 55.879487 26.648665 55.928205 26.646717 55.976923 26.644323 56.025641 26.641488 56.074359 26.638216 56.123077 26.634511 56.171795 26.630377 56.220513 26.625818 56.269231 26.620839 56.317949 26.615444 56.366667 26.609637 56.415385 26.603422 56.464103 26.596803 56.512821 26.589786 56.561538 26.582373 56.610256 26.574569 56.658974 26.566378 56.707692 26.557805 56.756410 26.548854 56.805128 26.539528 56.853846 26.529833 56.902564 26.519772 56.951282 26.509349 57.000000 26.498569 57.048718 26.487437 57.097436 26.475955 57.146154 26.464128 57.194872 26.451962 57.243590 26.439458 57.292308 26.426623 57.341026 26.413460 57.389744 26.399974 57.438462 26.386168 57.487179 26.372047 57.535897 26.357615 57.584615 26.342876 57.633333 26.327834 57.682051 26.312494 57.730769 26.296860 57.779487 26.280936 57.828205 26.264727 57.876923 26.248236 57.925641 26.231467 57.974359 26.214425 58.023077 26.197115 58.071795 26.179539 58.120513 26.161704 58.169231 26.143611 58.217949 26.125267 58.266667 26.106675 58.315385 26.087840 58.364103 26.068764 58.412821 26.049454 58.461538 26.029912 58.510256 26.010144 58.558974 25.990153 58.607692 25.969944 58.656410 25.949520 58.705128 25.928887 58.753846 25.908047 58.802564 25.887006 58.851282 25.865768 58.900000 25.844336 58.948718 25.822716 58.997436 25.800910 59.046154 25.778925 59.094872 25.756762 59.143590 25.734428 59.192308 25.711926 59.241026 25.689260 59.289744 25.666434 59.338462 25.643453 59.387179 25.620321 59.435897 25.597043 59.484615 25.573621 59.533333 25.550061 59.582051 25.526367 59.630769 25.502543 59.679487 25.478592 59.728205 25.454520 59.776923 25.430331 59.825641 25.406029 59.874359 25.381617 59.923077 25.357101 59.971795 25.332484 60.020513 25.307770 60.069231 25.282965 60.117949 25.258071 60.166667 25.233094 60.215385 25.208037 60.264103 25.182905 60.312821 25.157701 60.361538 25.132431 60.410256 25.107098 60.458974 25.081706 60.507692 25.056260 60.556410 25.030764 60.605128 25.005222 60.653846 24.979638 60.702564 24.954017 60.751282 24.928362 60.800000 24.902678 60.848718 24.876970 60.897436 24.851241 60.946154 24.825495 60.994872 24.799737 61.043590 24.773971 61.092308 24.748201 61.141026 24.722432 61.189744 24.696667 61.238462 24.670911 61.287179 24.645168 61.335897 24.619442 61.384615 24.593737 61.433333 24.568058 61.482051 24.542409 61.530769 24.516794 61.579487 24.491218 61.628205 24.465683 61.676923 24.440196 61.725641 24.414759 61.774359 24.389377 61.823077 24.364054 61.871795 24.338795 61.920513 24.313604 61.969231 24.288485 62.017949 24.263441 62.066667 24.238478 62.115385 24.213600 62.164103 24.188810 62.212821 24.164113 62.261538 24.139513 62.310256 24.115015 62.358974 24.090622 62.407692 24.066339 62.456410 24.042170 62.505128 24.018119 62.553846 23.994191 62.602564 23.970389 62.651282 23.946718 62.700000 23.923181 62.748718 23.899784 62.797436 23.876531 62.846154 23.853425 62.894872 23.830471 62.943590 23.807673 62.992308 23.785035 63.041026 23.762562 63.089744 23.740258 63.138462 23.718125 63.187179 23.696166 63.235897 23.674379 63.284615 23.652766 63.333333 23.631326 63.382051 23.610058 63.430769 23.588964 63.479487 23.568044 63.528205 23.547297 63.576923 23.526723 63.625641 23.506322 63.674359 23.486095 63.723077 23.466042 63.771795 23.446162 63.820513 23.426456 63.869231 23.406924 63.917949 23.387566 63.966667 23.368381 64.015385 23.349370 64.064103 23.330534 64.112821 23.311871 64.161538 23.293383 64.210256 23.275068 64.258974 23.256928 64.307692 23.238962 64.356410 23.221171 64.405128 23.203554 64.453846 23.186111 64.502564 23.168843 64.551282 23.151749 64.600000 23.134830 64.648718 23.118086 64.697436 23.101517 64.746154 23.085122 64.794872 23.068902 64.843590 23.052857 64.892308 23.036987 64.941026 23.021292 64.989744 23.005773 65.038462 22.990428 65.087179 22.975259 65.135897 22.960265 65.184615 22.945446 65.233333 22.930802 65.282051 22.916334 65.330769 22.902042 65.379487 22.887925 65.428205 22.873984 65.476923 22.860218 65.525641 22.846628 65.574359 22.833214 65.623077 22.819976 65.671795 22.806914 65.720513 22.794028 65.769231 22.781317 65.817949 22.768783 65.866667 22.756425 65.915385 22.744243 65.964103 22.732238 66.012821 22.720409 66.061538 22.708756 66.110256 22.697279 66.158974 22.685980 66.207692 22.674856 66.256410 22.663910 66.305128 22.653140 66.353846 22.642546 66.402564 22.632130 66.451282 22.621890 66.500000 22.611827 66.548718 22.601942 66.597436 22.592233 66.646154 22.582701 66.694872 22.573347 66.743590 22.564170 66.792308 22.555170 66.841026 22.546347 66.889744 22.537702 66.938462 22.529234 66.987179 22.520943 67.035897 22.512831 67.084615 22.504895 67.133333 22.497138 67.182051 22.489558 67.230769 22.482156 67.279487 22.474932 67.328205 22.467886 67.376923 22.461017 67.425641 22.454327 67.474359 22.447815 67.523077 22.441481 67.571795 22.435325 67.620513 22.429348 67.669231 22.423548 67.717949 22.417927 67.766667 22.412485 67.815385 22.407221 67.864103 22.402136 67.912821 22.397229 67.961538 22.392501 68.010256 22.387951 68.058974 22.383581 68.107692 22.379389 68.156410 22.375376 68.205128 22.371542 68.253846 22.367887 68.302564 22.364411 68.351282 22.361115 68.400000 22.357997 68.448718 22.355059 68.497436 22.352300 68.546154 22.349720 68.594872 22.347320 68.643590 22.345100 68.692308 22.343058 68.741026 22.341197 68.789744 22.339515 68.838462 22.338013 68.887179 22.336691 68.935897 22.335548 68.984615 22.334585 69.033333 22.333803 69.082051 22.333200 69.130769 22.332778 69.179487 22.332535 69.228205 22.332473 69.276923 22.332591 69.325641 22.332889 69.374359 22.333368 69.423077 22.334027 69.471795 22.334867 69.520513 22.335887 69.569231 22.337087 69.617949 22.338469 69.666667 22.340031 69.715385 22.341774 69.764103 22.343697 69.812821 22.345802 69.861538 22.348087 69.910256 22.350554 69.958974 22.353202 70.007692 22.356030 70.056410 22.359040 70.105128 22.362231 70.153846 22.365604 70.202564 22.369158 70.251282 22.372893 70.300000 22.376810 70.348718 22.380908 70.397436 22.385188 70.446154 22.389649 70.494872 22.394292 70.543590 22.399117 70.592308 22.404124 70.641026 22.409313 70.689744 22.414683 70.738462 22.420236 70.787179 22.425971 70.835897 22.431887 70.884615 22.437986 70.933333 22.444267 70.982051 22.450731 71.030769 22.457377 71.079487 22.464205 71.128205 22.471216 71.176923 22.478409 71.225641 22.485785 71.274359 22.493343 71.323077 22.501085 71.371795 22.509009 71.420513 22.517115 71.469231 22.525405 71.517949 22.533878 71.566667 22.542533 71.615385 22.551372 71.664103 22.560394 71.712821 22.569599 71.761538 22.578987 71.810256 22.588558 71.858974 22.598313 71.907692 22.608251 71.956410 22.618373 72.005128 22.628678 72.053846 22.639167 72.102564 22.649839 72.151282 22.660695 72.200000 22.671735 72.248718 22.682959 72.297436 22.694367 72.346154 22.705958 72.394872 22.717734 72.443590 22.729693 72.492308 22.741837 72.541026 22.754165 72.589744 22.766677 72.638462 22.779373 72.687179 22.792254 72.735897 22.805319 72.784615 22.818568 72.833333 22.832002 72.882051 22.845621 72.930769 22.859424 72.979487 22.873412 73.028205 22.887585 73.076923 22.901942 73.125641 22.916485 73.174359 22.931212 73.223077 22.946124 73.271795 22.961222 73.320513 22.976504 73.369231 22.991972 73.417949 23.007624 73.466667 23.023463 73.515385 23.039486 73.564103 23.055695 73.612821 23.072089 73.661538 23.088669 73.710256 23.105434 73.758974 23.122385 73.807692 23.139522 73.856410 23.156844 73.905128 23.174353 73.953846 23.192047 74.002564 23.209927 74.051282 23.227993 74.100000 23.246245 74.148718 23.264683 74.197436 23.283307 74.246154 23.302118 74.294872 23.321115 74.343590 23.340298 74.392308 23.359667 74.441026 23.379223 74.489744 23.398966 74.538462 23.418895 74.587179 23.439010 74.635897 23.459313 74.684615 23.479802 74.733333 23.500478 74.782051 23.521340 74.830769 23.542390 74.879487 23.563627 74.928205 23.585050 74.976923 23.606661 75.025641 23.628459 75.074359 23.650444 75.123077 23.672616 75.171795 23.694976 75.220513 23.717523 75.269231 23.740258 75.317949 23.763179 75.366667 23.786283 75.415385 23.809566 75.464103 23.833023 75.512821 23.856650 75.561538 23.880442 75.610256 23.904395 75.658974 23.928505 75.707692 23.952766 75.756410 23.977175 75.805128 24.001727 75.853846 24.026418 75.902564 24.051243 75.951282 24.076197 76.000000 24.101277 76.048718 24.126478 76.097436 24.151795 76.146154 24.177225 76.194872 24.202761 76.243590 24.228401 76.292308 24.254140 76.341026 24.279973 76.389744 24.305895 76.438462 24.331903 76.487179 24.357992 76.535897 24.384157 76.584615 24.410395 76.633333 24.436700 76.682051 24.463068 76.730769 24.489494 76.779487 24.515975 76.828205 24.542506 76.876923 24.569082 76.925641 24.595700 76.974359 24.622353 77.023077 24.649039 77.071795 24.675752 77.120513 24.702489 77.169231 24.729244 77.217949 24.756013 77.266667 24.782793 77.315385 24.809577 77.364103 24.836363 77.412821 24.863145 77.461538 24.889919 77.510256 24.916681 77.558974 24.943426 77.607692 24.970150 77.656410 24.996848 77.705128 25.023516 77.753846 25.050149 77.802564 25.076744 77.851282 25.103295 77.900000 25.129798 77.948718 25.156248 77.997436 25.182642 78.046154 25.208975 78.094872 25.235242 78.143590 25.261439 78.192308 25.287561 78.241026 25.313605 78.289744 25.339565 78.338462 25.365437 78.387179 25.391216 78.435897 25.416899 78.484615 25.442481 78.533333 25.467957 78.582051 25.493323 78.630769 25.518575 78.679487 25.543708 78.728205 25.568717 78.776923 25.593598 78.825641 25.618347 78.874359 25.642959 78.923077 25.667431 78.971795 25.691756 79.020513 25.715932 79.069231 25.739952 79.117949 25.763815 79.166667 25.787513 79.215385 25.811044 79.264103 25.834403 79.312821 25.857584 79.361538 25.880585 79.410256 25.903400 79.458974 25.926025 79.507692 25.948456 79.556410 25.970688 79.605128 25.992716 79.653846 26.014537 79.702564 26.036145 79.751282 26.057537 79.800000 26.078707 79.848718 26.099652 79.897436 26.120367 79.946154 26.140848 79.994872 26.161089 80.043590 26.181088 80.092308 26.200838 80.141026 26.220337 80.189744 26.239578 80.238462 26.258559 80.287179 26.277274 80.335897 26.295719 80.384615 26.313890 80.433333 26.331782 80.482051 26.349390 80.530769 26.366711 80.579487 26.383739 80.628205 26.400471 80.676923 26.416902 80.725641 26.433028 80.774359 26.448843 80.823077 26.464344 80.871795 26.479526 80.920513 26.494385 80.969231 26.508917 81.017949 26.523116 81.066667 26.536978 81.115385 26.550499 81.164103 26.563675 81.212821 26.576501 81.261538 26.588973 81.310256 26.601086 81.358974 26.612836 81.407692 26.624217 81.456410 26.635227 81.505128 26.645860 81.553846 26.656113 81.602564 26.665979 81.651282 26.675456 81.700000 26.684539 81.748718 26.693222 81.797436 26.701503 81.846154 26.709376 81.894872 26.716836 81.943590 26.723881 81.992308 26.730504 82.041026 26.736701 82.089744 26.742469 82.138462 26.747803 82.187179 26.752698 82.235897 26.757149 82.284615 26.761153 82.333333 26.764705 82.382051 26.767801 82.430769 26.770435 82.479487 26.772604 82.528205 26.774303 82.576923 26.775528 82.625641 26.776274 82.674359 26.776537 82.723077 26.776313 82.771795 26.775596 82.820513 26.774383 82.869231 26.772669 82.917949 26.770449 82.966667 26.767720 83.015385 26.764476 83.064103 26.760714 83.112821 26.756429 83.161538 26.751616 83.210256 26.746271 83.258974 26.740389 83.307692 26.733967 83.356410 26.726999 83.405128 26.719481 83.453846 26.711410 83.502564 26.702779 83.551282 26.693586 83.600000 26.683825 83.648718 26.673491 83.697436 26.662582 83.746154 26.651091 83.794872 26.639016 83.843590 26.626350 83.892308 26.613090 83.941026 26.599232 83.989744 26.584770 84.038462 26.569701 84.087179 26.554020 84.135897 26.537723 84.184615 26.520805 84.233333 26.503261 84.282051 26.485088 84.330769 26.466280 84.379487 26.446834 84.428205 26.426745 84.476923 26.406008 84.525641 26.384620 84.574359 26.362575 84.623077 26.339869 84.671795 26.316498 84.720513 26.292457 84.769231 26.267742 84.817949 26.242348 84.866667 26.216272 84.915385 26.189507 84.964103 26.162051 85.012821 26.133899 85.061538 26.105046 85.110256 26.075487 85.158974 26.045219 85.207692 26.014237 85.256410 25.982536 85.305128 25.950112 85.353846 25.916961 85.402564 25.883078 85.451282 25.848458 85.500000 25.813098 85.548718 25.776992 85.597436 25.740137 85.646154 25.702528 85.694872 25.664160 85.743590 25.625029 85.792308 25.585131 85.841026 25.544461 85.889744 25.503014 85.938462 25.460787 85.987179 25.417775 86.035897 25.373973 86.084615 25.329376 86.133333 25.283982 86.182051 25.237784 86.230769 25.190779 86.279487 25.142962 86.328205 25.094329 86.376923 25.044875 86.425641 24.994596 86.474359 24.943488 86.523077 24.891545 86.571795 24.838764 86.620513 24.785140 86.669231 24.730668 86.717949 24.675345 86.766667 24.619166 86.815385 24.562125 86.864103 24.504220 86.912821 24.445445 86.961538 24.385796 87.010256 24.325269 87.058974 24.263858 87.107692 24.201561 87.156410 24.138371 87.205128 24.074285 87.253846 24.009299 87.302564 23.943407 87.351282 23.876606 87.400000 23.808891 87.448718 23.740258 87.497436 23.670703 87.546154 23.600235 87.594872 23.528862 87.643590 23.456593 87.692308 23.383438 87.741026 23.309404 87.789744 23.234501 87.838462 23.158738 87.887179 23.082124 87.935897 23.004668 87.984615 22.926379 88.033333 22.847265 88.082051 22.767337 88.130769 22.686602 88.179487 22.605071 88.228205 22.522751 88.276923 22.439652 88.325641 22.355782 88.374359 22.271152 88.423077 22.185769 88.471795 22.099642 88.520513 22.012782 88.569231 21.925196 88.617949 21.836894 88.666667 21.747884 88.715385 21.658176 88.764103 21.567778 88.812821 21.476700 88.861538 21.384951 88.910256 21.292539 88.958974 21.199473 89.007692 21.105763 89.056410 21.011418 89.105128 20.916446 89.153846 20.820856 89.202564 20.724658 89.251282 20.627860 89.300000 20.530471 89.348718 20.432501 89.397436 20.333957 89.446154 20.234851 89.494872 20.135189 89.543590 20.034982 89.592308 19.934238 89.641026 19.832966 89.689744 19.731175 89.738462 19.628874 89.787179 19.526073 89.835897 19.422780 89.884615 19.319003 89.933333 19.214753 89.982051 19.110038 90.030769 19.004867 90.079487 18.899248 90.128205 18.793192 90.176923 18.686707 90.225641 18.579801 90.274359 18.472485 90.323077 18.364766 90.371795 18.256655 90.420513 18.148159 90.469231 18.039288 90.517949 17.930051 90.566667 17.820456 90.615385 17.710514 90.664103 17.600232 90.712821 17.489620 90.761538 17.378686 90.810256 17.267440 90.858974 17.155891 90.907692 17.044048 90.956410 16.931919 91.005128 16.819513 91.053846 16.706841 91.102564 16.593909 91.151282 16.480729 91.200000 16.367308 91.248718 16.253655 91.297436 16.139780 91.346154 16.025691 91.394872 15.911398 91.443590 15.796909 91.492308 15.682233 91.541026 15.567380 91.589744 15.452358 91.638462 15.337177 91.687179 15.221844 91.735897 15.106370 91.784615 14.990764 91.833333 14.875033 91.882051 14.759188 91.930769 14.643237 91.979487 14.527189 92.028205 14.411053 92.076923 14.294839 92.125641 14.178554 92.174359 14.062209 92.223077 13.945811 92.271795 13.829371 92.320513 13.712897 92.369231 13.596397 92.417949 13.479882 92.466667 13.363360 92.515385 13.246839 92.564103 13.130330 92.612821 13.013840 92.661538 12.897379 92.710256 12.780956 92.758974 12.664580 92.807692 12.548260 92.856410 12.432005 92.905128 12.315823 92.953846 12.199724 93.002564 12.083717 93.051282 11.967810 93.100000 11.852013 93.148718 11.736335 93.197436 11.620785 93.246154 11.505371 93.294872 11.390102 93.343590 11.274989 93.392308 11.160038 93.441026 11.045261 93.489744 10.930664 93.538462 10.816259 93.587179 10.702053 93.635897 10.588055 93.684615 10.474275 93.733333 10.360721 93.782051 10.247402 93.830769 10.134328 93.879487 10.021507 93.928205 9.908949 93.976923 9.796661 94.025641 9.684654 94.074359 9.572937 94.123077 9.461517 94.171795 9.350405 94.220513 9.239609 94.269231 9.129138 94.317949 9.019002 94.366667 8.909208 94.415385 8.799767 94.464103 8.690686 94.512821 8.581976 94.561538 8.473645 94.610256 8.365701 94.658974 8.258155 94.707692 8.151015 94.756410 8.044290 94.805128 7.937988 94.853846 7.832120 94.902564 7.726693 94.951282 7.621718 95.000000 7.517202 95.048718 7.413155 95.097436 7.309586 95.146154 7.206504 95.194872 7.103917 95.243590 7.001835 95.292308 6.900267 95.341026 6.799222 95.389744 6.698708 95.438462 6.598735 95.487179 6.499312 95.535897 6.400447 95.584615 6.302150 95.633333 6.204429 95.682051 6.107294 95.730769 6.010754 95.779487 5.914817 95.828205 5.819492 95.876923 5.724789 95.925641 5.630717 95.974359 5.537283 96.023077 5.444499 96.071795 5.352371 96.120513 5.260910 96.169231 5.170125 96.217949 5.080024 96.266667 4.990616 96.315385 4.901910 96.364103 4.813915 96.412821 4.726641 96.461538 4.640096 96.510256 4.554290 96.558974 4.469230 96.607692 4.384926 96.656410 4.301388 96.705128 4.218624 96.753846 4.136643 96.802564 4.055454 96.851282 3.975066 96.900000 3.895488 96.948718 3.816729 96.997436 3.738798 97.046154 3.661704 97.094872 3.585456 97.143590 3.510063 97.192308 3.435534 97.241026 3.361877 97.289744 3.289103 97.338462 3.217219 97.387179 3.146236 97.435897 3.076161 97.484615 3.007003 97.533333 2.938773 97.582051 2.871478 97.630769 2.805128 97.679487 2.739732 97.728205 2.675298 97.776923 2.611836 97.825641 2.549355 97.874359 2.487863 97.923077 2.427370 97.971795 2.367884 98.020513 2.309415 98.069231 2.251971 98.117949 2.195562 98.166667 2.140196 98.215385 2.085883 98.264103 2.032632 98.312821 1.980450 98.361538 1.929348 98.410256 1.879335 98.458974 1.830419 98.507692 1.782609 98.556410 1.735914 98.605128 1.690344 98.653846 1.645907 98.702564 1.602612 98.751282 1.560469 98.800000 1.519485 98.848718 1.479671 98.897436 1.441035 98.946154 1.403586 98.994872 1.367334 99.043590 1.332286 99.092308 1.298453 99.141026 1.265842 99.189744 1.234464 99.238462 1.204326 99.287179 1.175439 99.335897 1.147810 99.384615 1.121450 99.433333 1.096366 99.482051 1.072568 99.530769 1.050066 99.579487 1.028867 99.628205 1.008980 99.676923 0.990414 99.725641 0.973164 99.774359 0.957225 99.823077 0.942592 99.871795 0.929260 99.920513 0.917223 99.969231 0.906476 100.017949 0.897014 100.066667 0.888832 100.115385 0.881923 100.164103 0.876284 100.212821 0.871909 100.261538 0.868791 100.310256 0.866927 100.358974 0.866311 100.407692 0.866937 100.456410 0.868800 100.505128 0.871896 100.553846 0.876218 100.602564 0.881761 100.651282 0.888521 100.700000 0.896491 100.748718 0.905667 100.797436 0.916042 100.846154 0.927613 100.894872 0.940374 100.943590 0.954319 100.992308 0.969443 101.041026 0.985740 101.089744 1.003207 101.138462 1.021836 101.187179 1.041623 101.235897 1.062563 101.284615 1.084650 101.333333 1.107880 101.382051 1.132246 101.430769 1.157743 101.479487 1.184367 101.528205 1.212112 101.576923 1.240972 101.625641 1.270943 101.674359 1.302018 101.723077 1.334194 101.771795 1.367464 101.820513 1.401823 101.869231 1.437266 101.917949 1.473787 101.966667 1.511382 102.015385 1.550045 102.064103 1.589771 102.112821 1.630554 102.161538 1.672389 102.210256 1.715271 102.258974 1.759195 102.307692 1.804155 102.356410 1.850146 102.405128 1.897163 102.453846 1.945201 102.502564 1.994253 102.551282 2.044315 102.600000 2.095382 102.648718 2.147448 102.697436 2.200509 102.746154 2.254558 102.794872 2.309590 102.843590 2.365600 102.892308 2.422584 102.941026 2.480535 102.989744 2.539448 103.038462 2.599318 103.087179 2.660140 103.135897 2.721909 103.184615 2.784618 103.233333 2.848263 103.282051 2.912839 103.330769 2.978340 103.379487 3.044762 103.428205 3.112098 103.476923 3.180343 103.525641 3.249492 103.574359 3.319540 103.623077 3.390482 103.671795 3.462312 103.720513 3.535025 103.769231 3.608616 103.817949 3.683079 103.866667 3.758410 103.915385 3.834602 103.964103 3.911650 104.012821 3.989550 104.061538 4.068296 104.110256 4.147883 104.158974 4.228304 104.207692 4.309556 104.256410 4.391633 104.305128 4.474530 104.353846 4.558240 104.402564 4.642760 104.451282 4.728083 104.500000 4.814205 104.548718 4.901119 104.597436 4.988822 104.646154 5.077307 104.694872 5.166569 104.743590 5.256603 104.792308 5.347404 104.841026 5.438966 104.889744 5.531285 104.938462 5.624354 104.987179 5.718168 105.035897 5.812723 105.084615 5.908013 105.133333 6.004032 105.182051 6.100776 105.230769 6.198239 105.279487 6.296416 105.328205 6.395301 105.376923 6.494889 105.425641 6.595175 105.474359 6.696154 105.523077 6.797821 105.571795 6.900169 105.620513 7.003194 105.669231 7.106890 105.717949 7.211253 105.766667 7.316277 105.815385 7.421956 105.864103 7.528286 105.912821 7.635260 105.961538 7.742875 106.010256 7.851124 106.058974 7.960002 106.107692 8.069504 106.156410 8.179624 106.205128 8.290358 106.253846 8.401700 106.302564 8.513645 106.351282 8.626187 106.400000 8.739322 106.448718 8.853043 106.497436 8.967346 106.546154 9.082225 106.594872 9.197675 106.643590 9.313691 106.692308 9.430267 106.741026 9.547399 106.789744 9.665080 106.838462 9.783306 106.887179 9.902072 106.935897 10.021371 106.984615 10.141199 107.033333 10.261550 107.082051 10.382420 107.130769 10.503803 107.179487 10.625693 107.228205 10.748085 107.276923 10.870975 107.325641 10.994356 107.374359 11.118223 107.423077 11.242572 107.471795 11.367396 107.520513 11.492692 107.569231 11.618452 107.617949 11.744672 107.666667 11.871347 107.715385 11.998472 107.764103 12.126041 107.812821 12.254048 107.861538 12.382489 107.910256 12.511359 107.958974 12.640651 108.007692 12.770361 108.056410 12.900483 108.105128 13.031013 108.153846 13.161944 108.202564 13.293272 108.251282 13.424991 108.300000 13.557096 108.348718 13.689582 108.397436 13.822443 108.446154 13.955675 108.494872 14.089271 108.543590 14.223227 108.592308 14.357536 108.641026 14.492195 108.689744 14.627198 108.738462 14.762539 108.787179 14.898213 108.835897 15.034215 108.884615 15.170539 108.933333 15.307181 108.982051 15.444134 109.030769 15.581395 109.079487 15.718956 109.128205 15.856814 109.176923 15.994963 109.225641 16.133397 109.274359 16.272111 109.323077 16.411100 109.371795 16.550359 109.420513 16.689882 109.469231 16.829664 109.517949 16.969700 109.566667 17.109985 109.615385 17.250513 109.664103 17.391278 109.712821 17.532277 109.761538 17.673503 109.810256 17.814950 109.858974 17.956615 109.907692 18.098491 109.956410 18.240573 110.005128 18.382856 110.053846 18.525335 110.102564 18.668004 110.151282 18.810858 110.200000 18.953892 110.248718 19.097101 110.297436 19.240479 110.346154 19.384020 110.394872 19.527720 110.443590 19.671574 110.492308 19.815575 110.541026 19.959720 110.589744 20.104001 110.638462 20.248415 110.687179 20.392956 110.735897 20.537619 110.784615 20.682397 110.833333 20.827287 110.882051 20.972283 110.930769 21.117379 110.979487 21.262570 111.028205 21.407851 111.076923 21.553217 111.125641 21.698662 111.174359 21.844181 111.223077 21.989768 111.271795 22.135419 111.320513 22.281129 111.369231 22.426891 111.417949 22.572701 111.466667 22.718553 111.515385 22.864442 111.564103 23.010363 111.612821 23.156310 111.661538 23.302278 111.710256 23.448263 111.758974 23.594257 111.807692 23.740258" class="line reactive nofill" /></g></g><g class="titles" /><g transform="translate(76, 10)" class="plot overlay"><g class="series serie-0 color-0" /></g><g transform="translate(76, 10)" class="plot text-overlay"><g class="series serie-0 color-0" /></g><g transform="translate(76, 10)" class="plot tooltip-overlay"><g transform="translate(0 0)" style="opacity: 0" class="tooltip"><rect rx="0" ry="0" width="0" height="0" class="tooltip-box" /><g class="text" /></g></g></g></svg>