<?xml version='1.0' encoding='utf-8'?>
<svg xmlns="http://www.w3.org/2000/svg" id="chart-0da40abf-ece9-4ebc-8231-9b482e25193d" class="pygal-chart pygal-sparkline" viewBox="0 0 200 50" width="200" height="50"><!--Generated with pygal 3.0.4 (etree) ©Kozea 2012-2016 on 2024-04-28--><!--http://pygal.org--><!--http://github.com/Kozea/pygal--><defs><style type="text/css">#chart-0da40abf-ece9-4ebc-8231-9b482e25193d{-webkit-user-select:none;-webkit-font-smoothing:antialiased;font-family:Consolas,"Liberation Mono",Menlo,Courier,monospace}#chart-0da40abf-ece9-4ebc-8231-9b482e25193d .title{font-family:Consolas,"Liberation Mono",Menlo,Courier,monospace;font-size:16px}#chart-0da40abf-ece9-4ebc-8231-9b482e25193d .legends .legend text{font-family:Consolas,"Liberation Mono",Menlo,Courier,monospace;font-size:14px}#chart-0da40abf-ece9-4ebc-8231-9b482e25193d .axis text{font-family:Consolas,"Liberation Mono",Menlo,Courier,monospace;font-size:10px}#chart-0da40abf-ece9-4ebc-8231-9b482e25193d .axis text.major{font-family:Consolas,"Liberation Mono",Menlo,Courier,monospace;font-size:10px}#chart-0da40abf-ece9-4ebc-8231-9b482e25193d .text-overlay text.value{font-family:Consolas,"Liberation Mono",Menlo,Courier,monospace;font-size:16px}#chart-0da40abf-ece9-4ebc-8231-9b482e25193d .text-overlay text.label{font-family:Consolas,"Liberation Mono",Menlo,Courier,monospace;font-size:10px}#chart-0da40abf-ece9-4ebc-8231-9b482e25193d .tooltip{font-family:Consolas,"Liberation Mono",Menlo,Courier,monospace;font-size:14px}#chart-0da40abf-ece9-4ebc-8231-9b482e25193d text.no_data{font-family:Consolas,"Liberation Mono",Menlo,Courier,monospace;font-size:64px}
#chart-0da40abf-ece9-4ebc-8231-9b482e25193d{background-color:rgba(249,249,249,1)}#chart-0da40abf-ece9-4ebc-8231-9b482e25193d path,#chart-0da40abf-ece9-4ebc-8231-9b482e25193d line,#chart-0da40abf-ece9-4ebc-8231-9b482e25193d rect,#chart-0da40abf-ece9-4ebc-8231-9b482e25193d circle{-webkit-transition:150ms;-moz-transition:150ms;transition:150ms}#chart-0da40abf-ece9-4ebc-8231-9b482e25193d .graph &gt; .background{fill:rgba(249,249,249,1)}#chart-0da40abf-ece9-4ebc-8231-9b482e25193d .plot &gt; .background{fill:rgba(255,255,255,1)}#chart-0da40abf-ece9-4ebc-8231-9b482e25193d .graph{fill:rgba(0,0,0,.87)}#chart-0da40abf-ece9-4ebc-8231-9b482e25193d text.no_data{fill:rgba(0,0,0,1)}#chart-0da40abf-ece9-4ebc-8231-9b482e25193d .title{fill:rgba(0,0,0,1)}#chart-0da40abf-ece9-4ebc-8231-9b482e25193d .legends .legend text{fill:rgba(0,0,0,.87)}#chart-0da40abf-ece9-4ebc-8231-9b482e25193d .legends .legend:hover text{fill:rgba(0,0,0,1)}#chart-0da40abf-ece9-4ebc-8231-9b482e25193d .axis .line{stroke:rgba(0,0,0,1)}#chart-0da40abf-ece9-4ebc-8231-9b482e25193d .axis .guide.line{stroke:rgba(0,0,0,.54)}#chart-0da40abf-ece9-4ebc-8231-9b482e25193d .axis .major.line{stroke:rgba(0,0,0,.87)}#chart-0da40abf-ece9-4ebc-8231-9b482e25193d .axis text.major{fill:rgba(0,0,0,1)}#chart-0da40abf-ece9-4ebc-8231-9b482e25193d .axis.y .guides:hover .guide.line,#chart-0da40abf-ece9-4ebc-8231-9b482e25193d .line-graph .axis.x .guides:hover .guide.line,#chart-0da40abf-ece9-4ebc-8231-9b482e25193d .stackedline-graph .axis.x .guides:hover .guide.line,#chart-0da40abf-ece9-4ebc-8231-9b482e25193d .xy-graph .axis.x .guides:hover .guide.line{stroke:rgba(0,0,0,1)}#chart-0da40abf-ece9-4ebc-8231-9b482e25193d .axis .guides:hover text{fill:rgba(0,0,0,1)}#chart-0da40abf-ece9-4ebc-8231-9b482e25193d .reactive{fill-opacity:.7;stroke-opacity:.8;stroke-width:1}#chart-0da40abf-ece9-4ebc-8231-9b482e25193d .ci{stroke:rgba(0,0,0,.87)}#chart-0da40abf-ece9-4ebc-8231-9b482e25193d .reactive.active,#chart-0da40abf-ece9-4ebc-8231-9b482e25193d .active .reactive{fill-opacity:.8;stroke-opacity:.9;stroke-width:4}#chart-0da40abf-ece9-4ebc-8231-9b482e25193d .ci .reactive.active{stroke-width:1.5}#chart-0da40abf-ece9-4ebc-8231-9b482e25193d .series text{fill:rgba(0,0,0,1)}#chart-0da40abf-ece9-4ebc-8231-9b482e25193d .tooltip rect{fill:rgba(255,255,255,1);stroke:rgba(0,0,0,1);-webkit-transition:opacity 150ms;-moz-transition:opacity 150ms;transition:opacity 150ms}#chart-0da40abf-ece9-4ebc-8231-9b482e25193d .tooltip .label{fill:rgba(0,0,0,.87)}#chart-0da40abf-ece9-4ebc-8231-9b482e25193d .tooltip .label{fill:rgba(0,0,0,.87)}#chart-0da40abf-ece9-4ebc-8231-9b482e25193d .tooltip .legend{font-size:.8em;fill:rgba(0,0,0,.54)}#chart-0da40abf-ece9-4ebc-8231-9b482e25193d .tooltip .x_label{font-size:.6em;fill:rgba(0,0,0,1)}#chart-0da40abf-ece9-4ebc-8231-9b482e25193d .tooltip .xlink{font-size:.5em;text-decoration:underline}#chart-0da40abf-ece9-4ebc-8231-9b482e25193d .tooltip .value{font-size:1.5em}#chart-0da40abf-ece9-4ebc-8231-9b482e25193d .bound{font-size:.5em}#chart-0da40abf-ece9-4ebc-8231-9b482e25193d .max-value{font-size:.75em;fill:rgba(0,0,0,.54)}#chart-0da40abf-ece9-4ebc-8231-9b482e25193d .map-element{fill:rgba(255,255,255,1);stroke:rgba(0,0,0,.54) !important}#chart-0da40abf-ece9-4ebc-8231-9b482e25193d .map-element .reactive{fill-opacity:inherit;stroke-opacity:inherit}#chart-0da40abf-ece9-4ebc-8231-9b482e25193d .color-0,#chart-0da40abf-ece9-4ebc-8231-9b482e25193d .color-0 a:visited{stroke:#F44336;fill:#F44336}#chart-0da40abf-ece9-4ebc-8231-9b482e25193d .text-overlay .color-0 text{fill:black}
#chart-0da40abf-ece9-4ebc-8231-9b482e25193d text.no_data{text-anchor:middle}#chart-0da40abf-ece9-4ebc-8231-9b482e25193d .guide.line{fill:none}#chart-0da40abf-ece9-4ebc-8231-9b482e25193d .centered{text-anchor:middle}#chart-0da40abf-ece9-4ebc-8231-9b482e25193d .title{text-anchor:middle}#chart-0da40abf-ece9-4ebc-8231-9b482e25193d .legends .legend text{fill-opacity:1}#chart-0da40abf-ece9-4ebc-8231-9b482e25193d .axis.x text{text-anchor:middle}#chart-0da40abf-ece9-4ebc-8231-9b482e25193d .axis.x:not(.web) text[transform]{text-anchor:start}#chart-0da40abf-ece9-4ebc-8231-9b482e25193d .axis.x:not(.web) text[transform].backwards{text-anchor:end}#chart-0da40abf-ece9-4ebc-8231-9b482e25193d .axis.y text{text-anchor:end}#chart-0da40abf-ece9-4ebc-8231-9b482e25193d .axis.y text[transform].backwards{text-anchor:start}#chart-0da40abf-ece9-4ebc-8231-9b482e25193d .axis.y2 text{text-anchor:start}#chart-0da40abf-ece9-4ebc-8231-9b482e25193d .axis.y2 text[transform].backwards{text-anchor:end}#chart-0da40abf-ece9-4ebc-8231-9b482e25193d .axis .guide.line{stroke-dasharray:4,4;stroke:black}#chart-0da40abf-ece9-4ebc-8231-9b482e25193d .axis .major.guide.line{stroke-dasharray:6,6;stroke:black}#chart-0da40abf-ece9-4ebc-8231-9b482e25193d .horizontal .axis.y .guide.line,#chart-0da40abf-ece9-4ebc-8231-9b482e25193d .horizontal .axis.y2 .guide.line,#chart-0da40abf-ece9-4ebc-8231-9b482e25193d .vertical .axis.x .guide.line{opacity:0}#chart-0da40abf-ece9-4ebc-8231-9b482e25193d .horizontal .axis.always_show .guide.line,#chart-0da40abf-ece9-4ebc-8231-9b482e25193d .vertical .axis.always_show .guide.line{opacity:1 !important}#chart-0da40abf-ece9-4ebc-8231-9b482e25193d .axis.y .guides:hover .guide.line,#chart-0da40abf-ece9-4ebc-8231-9b482e25193d .axis.y2 .guides:hover .guide.line,#chart-0da40abf-ece9-4ebc-8231-9b482e25193d .axis.x .guides:hover .guide.line{opacity:1}#chart-0da40abf-ece9-4ebc-8231-9b482e25193d .axis .guides:hover text{opacity:1}#chart-0da40abf-ece9-4ebc-8231-9b482e25193d .nofill{fill:none}#chart-0da40abf-ece9-4ebc-8231-9b482e25193d .subtle-fill{fill-opacity:.2}#chart-0da40abf-ece9-4ebc-8231-9b482e25193d .dot{stroke-width:1px;fill-opacity:1;stroke-opacity:1}#chart-0da40abf-ece9-4ebc-8231-9b482e25193d .dot.active{stroke-width:5px}#chart-0da40abf-ece9-4ebc-8231-9b482e25193d .dot.negative{fill:transparent}#chart-0da40abf-ece9-4ebc-8231-9b482e25193d text,#chart-0da40abf-ece9-4ebc-8231-9b482e25193d tspan{stroke:none !important}#chart-0da40abf-ece9-4ebc-8231-9b482e25193d .series text.active{opacity:1}#chart-0da40abf-ece9-4ebc-8231-9b482e25193d .tooltip rect{fill-opacity:.95;stroke-width:.5}#chart-0da40abf-ece9-4ebc-8231-9b482e25193d .tooltip text{fill-opacity:1}#chart-0da40abf-ece9-4ebc-8231-9b482e25193d .showable{visibility:hidden}#chart-0da40abf-ece9-4ebc-8231-9b482e25193d .showable.shown{visibility:visible}#chart-0da40abf-ece9-4ebc-8231-9b482e25193d .gauge-background{fill:rgba(229,229,229,1);stroke:none}#chart-0da40abf-ece9-4ebc-8231-9b482e25193d .bg-lines{stroke:rgba(249,249,249,1);stroke-width:2px}</style><script type="text/javascript">window.pygal = window.pygal || {};window.pygal.config = window.pygal.config || {};window.pygal.config['0da40abf-ece9-4ebc-8231-9b482e25193d'] = {"allow_interruptions": false, "box_mode": "extremes", "classes": ["pygal-chart", "pygal-sparkline"], "css": ["file://style.css", "file://graph.css"], "defs": [], "disable_xml_declaration": false, "dots_size": 2.5, "dynamic_print_values": false, "explicit_size": true, "fill": false, "force_uri_protocol": "https", "formatter": null, "half_pie": false, "height": 50, "include_x_axis": false, "inner_radius": 0, "interpolate": "cubic", "interpolation_parameters": {}, "interpolation_precision": 250, "inverse_y_axis": false, "js": [], "legend_at_bottom": false, "legend_at_bottom_columns": null, "legend_box_size": 12, "logarithmic": false, "margin": 10, "margin_bottom": null, "margin_left": null, "margin_right": null, "margin_top": null, "max_scale": 2, "min_scale": 1, "missing_value_fill_truncation": "x", "no_data_text": "", "no_prefix": false, "order_min": null, "pretty_print": false, "print_labels": false, "print_values": false, "print_values_position": "center", "print_zeroes": true, "range": null, "rounded_bars": null, "secondary_range": null, "show_dots": false, "show_legend": false, "show_minor_x_labels": true, "show_minor_y_labels": true, "show_only_major_dots": false, "show_x_guides": false, "show_x_labels": false, "show_y_guides": true, "show_y_labels": true, "spacing": 0, "stack_from_top": false, "strict": false, "stroke": true, "stroke_style": null, "style": {"background": "rgba(249, 249, 249, 1)", "ci_colors": [], "colors": ["#F44336", "#3F51B5", "#009688", "#FFC107", "#FF5722", "#9C27B0", "#03A9F4", "#8BC34A", "#FF9800", "#E91E63", "#2196F3", "#4CAF50", "#FFEB3B", "#673AB7", "#00BCD4", "#CDDC39", "#9E9E9E", "#607D8B"], "dot_opacity": "1", "font_family": "Consolas, \"Liberation Mono\", Menlo, Courier, monospace", "foreground": "rgba(0, 0, 0, .87)", "foreground_strong": "rgba(0, 0, 0, 1)", "foreground_subtle": "rgba(0, 0, 0, .54)", "guide_stroke_color": "black", "guide_stroke_dasharray": "4,4", "label_font_family": "Consolas, \"Liberation Mono\", Menlo, Courier, monospace", "label_font_size": 10, "legend_font_family": "Consolas, \"Liberation Mono\", Menlo, Courier, monospace", "legend_font_size": 14, "major_guide_stroke_color": "black", "major_guide_stroke_dasharray": "6,6", "major_label_font_family": "Consolas, \"Liberation Mono\", Menlo, Courier, monospace", "major_label_font_size": 10, "no_data_font_family": "Consolas, \"Liberation Mono\", Menlo, Courier, monospace", "no_data_font_size": 64, "opacity": ".7", "opacity_hover": ".8", "plot_background": "rgba(255, 255, 255, 1)", "stroke_opacity": ".8", "stroke_opacity_hover": ".9", "stroke_width": "1", "stroke_width_hover": "4", "title_font_family": "Consolas, \"Liberation Mono\", Menlo, Courier, monospace", "title_font_size": 16, "tooltip_font_family": "Consolas, \"Liberation Mono\", Menlo, Courier, monospace", "tooltip_font_size": 14, "transition": "150ms", "value_background": "rgba(229, 229, 229, 1)", "value_colors": [], "value_font_family": "Consolas, \"Liberation Mono\", Menlo, Courier, monospace", "value_font_size": 16, "value_label_font_family": "Consolas, \"Liberation Mono\", Menlo, Courier, monospace", "value_label_font_size": 10}, "title": null, "tooltip_border_radius": 0, "tooltip_fancy_mode": true, "truncate_label": null, "truncate_legend": null, "width": 200, "x_label_rotation": 0, "x_labels": ["2024/4", "2024/3", "2023/11", "2023/10", "2023/9", "2023/8", "2023/7", "2023/6", "2023/5", "2023/4"], "x_labels_major": null, "x_labels_major_count": null, "x_labels_major_every": null, "x_title": null, "xrange": null, "y_label_rotation": 0, "y_labels": null, "y_labels_major": null, "y_labels_major_count": null, "y_labels_major_every": null, "y_title": null, "zero": 0, "legends": [""]}</script></defs><title>Pygal</title><g class="graph line-graph vertical"><rect x="0" y="0" width="200" height="50" class="background" /><g transform="translate(82, 10)" class="plot"><rect x="0" y="0" width="108.0" height="30" class="background" /><g class="axis y always_show"><path d="M0.000000 30.000000 h108.000000" class="line" /><g class="guides"><path d="M0.000000 29.423077 h108.000000" class="guide line" /><text x="-5" y="32.92307692307692" class="">0.3097378299</text><title>0.3097378299</title></g><g class="guides"><path d="M0.000000 0.576923 h108.000000" class="guide line" /><text x="-5" y="4.076923076923077" class="">6.028908631</text><title>6.028908631</title></g></g><g class="series serie-0 color-0"><path d="M2.076923 0.722731 L2.123077 0.824411 2.169231 0.926088 2.215385 1.027761 2.261538 1.129428 2.307692 1.231087 2.353846 1.332735 2.400000 1.434372 2.446154 1.535995 2.492308 1.637601 2.538462 1.739190 2.584615 1.840758 2.630769 1.942304 2.676923 2.043826 2.723077 2.145322 2.769231 2.246790 2.815385 2.348227 2.861538 2.449632 2.907692 2.551003 2.953846 2.652338 3.000000 2.753634 3.046154 2.854891 3.092308 2.956104 3.138462 3.057274 3.184615 3.158397 3.230769 3.259472 3.276923 3.360497 3.323077 3.461469 3.369231 3.562387 3.415385 3.663248 3.461538 3.764051 3.507692 3.864794 3.553846 3.965474 3.600000 4.066089 3.646154 4.166639 3.692308 4.267119 3.738462 4.367530 3.784615 4.467867 3.830769 4.568131 3.876923 4.668317 3.923077 4.768425 3.969231 4.868453 4.015385 4.968398 4.061538 5.068259 4.107692 5.168032 4.153846 5.267718 4.200000 5.367312 4.246154 5.466814 4.292308 5.566221 4.338462 5.665532 4.384615 5.764744 4.430769 5.863855 4.476923 5.962864 4.523077 6.061767 4.569231 6.160565 4.615385 6.259253 4.661538 6.357830 4.707692 6.456295 4.753846 6.554645 4.800000 6.652878 4.846154 6.750992 4.892308 6.848986 4.938462 6.946857 4.984615 7.044602 5.030769 7.142221 5.076923 7.239711 5.123077 7.337070 5.169231 7.434296 5.215385 7.531387 5.261538 7.628342 5.307692 7.725157 5.353846 7.821831 5.400000 7.918363 5.446154 8.014749 5.492308 8.110988 5.538462 8.207078 5.584615 8.303017 5.630769 8.398804 5.676923 8.494435 5.723077 8.589909 5.769231 8.685223 5.815385 8.780377 5.861538 8.875368 5.907692 8.970193 5.953846 9.064851 6.000000 9.159341 6.046154 9.253658 6.092308 9.347803 6.138462 9.441773 6.184615 9.535565 6.230769 9.629178 6.276923 9.722610 6.323077 9.815858 6.369231 9.908921 6.415385 10.001797 6.461538 10.094484 6.507692 10.186979 6.553846 10.279281 6.600000 10.371387 6.646154 10.463297 6.692308 10.555006 6.738462 10.646515 6.784615 10.737820 6.830769 10.828919 6.876923 10.919811 6.923077 11.010494 6.969231 11.100965 7.015385 11.191223 7.061538 11.281265 7.107692 11.371090 7.153846 11.460695 7.200000 11.550078 7.246154 11.639238 7.292308 11.728173 7.338462 11.816880 7.384615 11.905357 7.430769 11.993603 7.476923 12.081615 7.523077 12.169391 7.569231 12.256930 7.615385 12.344229 7.661538 12.431287 7.707692 12.518100 7.753846 12.604668 7.800000 12.690989 7.846154 12.777059 7.892308 12.862878 7.938462 12.948443 7.984615 13.033753 8.030769 13.118804 8.076923 13.203596 8.123077 13.288126 8.169231 13.372392 8.215385 13.456392 8.261538 13.540124 8.307692 13.623587 8.353846 13.706777 8.400000 13.789694 8.446154 13.872334 8.492308 13.954697 8.538462 14.036780 8.584615 14.118581 8.630769 14.200098 8.676923 14.281329 8.723077 14.362272 8.769231 14.442925 8.815385 14.523286 8.861538 14.603352 8.907692 14.683123 8.953846 14.762596 9.000000 14.841769 9.046154 14.920639 9.092308 14.999205 9.138462 15.077466 9.184615 15.155418 9.230769 15.233060 9.276923 15.310390 9.323077 15.387405 9.369231 15.464105 9.415385 15.540486 9.461538 15.616547 9.507692 15.692286 9.553846 15.767700 9.600000 15.842788 9.646154 15.917548 9.692308 15.991978 9.738462 16.066075 9.784615 16.139838 9.830769 16.213265 9.876923 16.286353 9.923077 16.359101 9.969231 16.431507 10.015385 16.503568 10.061538 16.575283 10.107692 16.646649 10.153846 16.717665 10.200000 16.788329 10.246154 16.858638 10.292308 16.928590 10.338462 16.998184 10.384615 17.067418 10.430769 17.136289 10.476923 17.204795 10.523077 17.272935 10.569231 17.340706 10.615385 17.408107 10.661538 17.475135 10.707692 17.541789 10.753846 17.608066 10.800000 17.673964 10.846154 17.739482 10.892308 17.804617 10.938462 17.869367 10.984615 17.933731 11.030769 17.997706 11.076923 18.061290 11.123077 18.124482 11.169231 18.187279 11.215385 18.249679 11.261538 18.311680 11.307692 18.373280 11.353846 18.434478 11.400000 18.495271 11.446154 18.555657 11.492308 18.615634 11.538462 18.675200 11.584615 18.734354 11.630769 18.793092 11.676923 18.851414 11.723077 18.909317 11.769231 18.966799 11.815385 19.023858 11.861538 19.080491 11.907692 19.136698 11.953846 19.192476 12.000000 19.247823 12.046154 19.302737 12.092308 19.357216 12.138462 19.411258 12.184615 19.464861 12.230769 19.518023 12.276923 19.570742 12.323077 19.623015 12.369231 19.674842 12.415385 19.726219 12.461538 19.777145 12.507692 19.827619 12.553846 19.877636 12.600000 19.927197 12.646154 19.976299 12.692308 20.024939 12.738462 20.073116 12.784615 20.120828 12.830769 20.168073 12.876923 20.214848 12.923077 20.261152 12.969231 20.306983 13.015385 20.352339 13.061538 20.397217 13.107692 20.441616 13.153846 20.485533 13.200000 20.528968 13.246154 20.571916 13.292308 20.614378 13.338462 20.656350 13.384615 20.697830 13.430769 20.738818 13.476923 20.779309 13.523077 20.819304 13.569231 20.858798 13.615385 20.897792 13.661538 20.936282 13.707692 20.974272 13.753846 21.011762 13.800000 21.048756 13.846154 21.085256 13.892308 21.121264 13.938462 21.156782 13.984615 21.191813 14.030769 21.226359 14.076923 21.260423 14.123077 21.294006 14.169231 21.327111 14.215385 21.359741 14.261538 21.391897 14.307692 21.423583 14.353846 21.454800 14.400000 21.485550 14.446154 21.515836 14.492308 21.545661 14.538462 21.575026 14.584615 21.603935 14.630769 21.632388 14.676923 21.660389 14.723077 21.687941 14.769231 21.715044 14.815385 21.741702 14.861538 21.767917 14.907692 21.793691 14.953846 21.819026 15.000000 21.843926 15.046154 21.868391 15.092308 21.892425 15.138462 21.916030 15.184615 21.939208 15.230769 21.961962 15.276923 21.984293 15.323077 22.006205 15.369231 22.027699 15.415385 22.048778 15.461538 22.069443 15.507692 22.089699 15.553846 22.109545 15.600000 22.128986 15.646154 22.148024 15.692308 22.166660 15.738462 22.184897 15.784615 22.202737 15.830769 22.220184 15.876923 22.237238 15.923077 22.253902 15.969231 22.270179 16.015385 22.286071 16.061538 22.301580 16.107692 22.316709 16.153846 22.331460 16.200000 22.345835 16.246154 22.359837 16.292308 22.373468 16.338462 22.386729 16.384615 22.399625 16.430769 22.412156 16.476923 22.424325 16.523077 22.436135 16.569231 22.447588 16.615385 22.458686 16.661538 22.469431 16.707692 22.479826 16.753846 22.489874 16.800000 22.499575 16.846154 22.508934 16.892308 22.517952 16.938462 22.526631 16.984615 22.534973 17.030769 22.542982 17.076923 22.550659 17.123077 22.558007 17.169231 22.565028 17.215385 22.571725 17.261538 22.578099 17.307692 22.584153 17.353846 22.589889 17.400000 22.595310 17.446154 22.600418 17.492308 22.605215 17.538462 22.609704 17.584615 22.613887 17.630769 22.617766 17.676923 22.621343 17.723077 22.624622 17.769231 22.627604 17.815385 22.630291 17.861538 22.632686 17.907692 22.634791 17.953846 22.636609 18.000000 22.638142 18.046154 22.639392 18.092308 22.640361 18.138462 22.641052 18.184615 22.641468 18.230769 22.641610 18.276923 22.641480 18.323077 22.641082 18.369231 22.640417 18.415385 22.639488 18.461538 22.638296 18.507692 22.636846 18.553846 22.635138 18.600000 22.633175 18.646154 22.630959 18.692308 22.628493 18.738462 22.625779 18.784615 22.622820 18.830769 22.619617 18.876923 22.616173 18.923077 22.612490 18.969231 22.608571 19.015385 22.604418 19.061538 22.600033 19.107692 22.595419 19.153846 22.590578 19.200000 22.585511 19.246154 22.580223 19.292308 22.574714 19.338462 22.568988 19.384615 22.563046 19.430769 22.556891 19.476923 22.550525 19.523077 22.543950 19.569231 22.537170 19.615385 22.530185 19.661538 22.522999 19.707692 22.515614 19.753846 22.508032 19.800000 22.500255 19.846154 22.492286 19.892308 22.484127 19.938462 22.475781 19.984615 22.467249 20.030769 22.458534 20.076923 22.449639 20.123077 22.440565 20.169231 22.431316 20.215385 22.421892 20.261538 22.412298 20.307692 22.402534 20.353846 22.392604 20.400000 22.382509 20.446154 22.372252 20.492308 22.361836 20.538462 22.351262 20.584615 22.340533 20.630769 22.329651 20.676923 22.318619 20.723077 22.307438 20.769231 22.296112 20.815385 22.284643 20.861538 22.273032 20.907692 22.261283 20.953846 22.249396 21.000000 22.237376 21.046154 22.225224 21.092308 22.212943 21.138462 22.200534 21.184615 22.188000 21.230769 22.175344 21.276923 22.162567 21.323077 22.149673 21.369231 22.136663 21.415385 22.123539 21.461538 22.110305 21.507692 22.096962 21.553846 22.083513 21.600000 22.069960 21.646154 22.056305 21.692308 22.042551 21.738462 22.028700 21.784615 22.014754 21.830769 22.000716 21.876923 21.986587 21.923077 21.972371 21.969231 21.958070 22.015385 21.943685 22.061538 21.929220 22.107692 21.914677 22.153846 21.900057 22.200000 21.885363 22.246154 21.870598 22.292308 21.855764 22.338462 21.840863 22.384615 21.825898 22.430769 21.810870 22.476923 21.795782 22.523077 21.780637 22.569231 21.765437 22.615385 21.750184 22.661538 21.734880 22.707692 21.719528 22.753846 21.704131 22.800000 21.688689 22.846154 21.673207 22.892308 21.657685 22.938462 21.642127 22.984615 21.626534 23.030769 21.610910 23.076923 21.595256 23.123077 21.579574 23.169231 21.563868 23.215385 21.548138 23.261538 21.532389 23.307692 21.516621 23.353846 21.500838 23.400000 21.485041 23.446154 21.469234 23.492308 21.453417 23.538462 21.437594 23.584615 21.421767 23.630769 21.405938 23.676923 21.390110 23.723077 21.374285 23.769231 21.358464 23.815385 21.342652 23.861538 21.326849 23.907692 21.311058 23.953846 21.295282 24.000000 21.279522 24.046154 21.263782 24.092308 21.248063 24.138462 21.232368 24.184615 21.216699 24.230769 21.201059 24.276923 21.185449 24.323077 21.169872 24.369231 21.154331 24.415385 21.138827 24.461538 21.123363 24.507692 21.107942 24.553846 21.092565 24.600000 21.077236 24.646154 21.061955 24.692308 21.046727 24.738462 21.031552 24.784615 21.016434 24.830769 21.001374 24.876923 20.986375 24.923077 20.971439 24.969231 20.956569 25.015385 20.941767 25.061538 20.927035 25.107692 20.912376 25.153846 20.897792 25.200000 20.883284 25.246154 20.868854 25.292308 20.854502 25.338462 20.840229 25.384615 20.826035 25.430769 20.811921 25.476923 20.797886 25.523077 20.783932 25.569231 20.770059 25.615385 20.756267 25.661538 20.742558 25.707692 20.728930 25.753846 20.715386 25.800000 20.701924 25.846154 20.688547 25.892308 20.675254 25.938462 20.662045 25.984615 20.648922 26.030769 20.635884 26.076923 20.622933 26.123077 20.610068 26.169231 20.597290 26.215385 20.584599 26.261538 20.571997 26.307692 20.559483 26.353846 20.547058 26.400000 20.534723 26.446154 20.522477 26.492308 20.510322 26.538462 20.498258 26.584615 20.486284 26.630769 20.474403 26.676923 20.462614 26.723077 20.450918 26.769231 20.439314 26.815385 20.427805 26.861538 20.416389 26.907692 20.405068 26.953846 20.393843 27.000000 20.382712 27.046154 20.371678 27.092308 20.360740 27.138462 20.349899 27.184615 20.339156 27.230769 20.328510 27.276923 20.317963 27.323077 20.307515 27.369231 20.297166 27.415385 20.286916 27.461538 20.276767 27.507692 20.266719 27.553846 20.256771 27.600000 20.246926 27.646154 20.237182 27.692308 20.227541 27.738462 20.218003 27.784615 20.208569 27.830769 20.199239 27.876923 20.190013 27.923077 20.180892 27.969231 20.171876 28.015385 20.162966 28.061538 20.154163 28.107692 20.145467 28.153846 20.136877 28.200000 20.128396 28.246154 20.120022 28.292308 20.111758 28.338462 20.103602 28.384615 20.095557 28.430769 20.087621 28.476923 20.079796 28.523077 20.072082 28.569231 20.064479 28.615385 20.056988 28.661538 20.049610 28.707692 20.042345 28.753846 20.035193 28.800000 20.028155 28.846154 20.021232 28.892308 20.014423 28.938462 20.007729 28.984615 20.001151 29.030769 19.994690 29.076923 19.988345 29.123077 19.982117 29.169231 19.976007 29.215385 19.970015 29.261538 19.964141 29.307692 19.958387 29.353846 19.952752 29.400000 19.947237 29.446154 19.941842 29.492308 19.936569 29.538462 19.931416 29.584615 19.926386 29.630769 19.921478 29.676923 19.916693 29.723077 19.912031 29.769231 19.907493 29.815385 19.903078 29.861538 19.898789 29.907692 19.894625 29.953846 19.890586 30.000000 19.886674 30.046154 19.882888 30.092308 19.879229 30.138462 19.875697 30.184615 19.872294 30.230769 19.869019 30.276923 19.865873 30.323077 19.862856 30.369231 19.859969 30.415385 19.857212 30.461538 19.854586 30.507692 19.852092 30.553846 19.849729 30.600000 19.847498 30.646154 19.845400 30.692308 19.843435 30.738462 19.841604 30.784615 19.839907 30.830769 19.838344 30.876923 19.836917 30.923077 19.835625 30.969231 19.834469 31.015385 19.833449 31.061538 19.832566 31.107692 19.831821 31.153846 19.831213 31.200000 19.830744 31.246154 19.830413 31.292308 19.830222 31.338462 19.830170 31.384615 19.830259 31.430769 19.830488 31.476923 19.830859 31.523077 19.831371 31.569231 19.832025 31.615385 19.832821 31.661538 19.833761 31.707692 19.834844 31.753846 19.836071 31.800000 19.837442 31.846154 19.838959 31.892308 19.840620 31.938462 19.842428 31.984615 19.844382 32.030769 19.846482 32.076923 19.848730 32.123077 19.851126 32.169231 19.853670 32.215385 19.856362 32.261538 19.859204 32.307692 19.862195 32.353846 19.865336 32.400000 19.868627 32.446154 19.872070 32.492308 19.875664 32.538462 19.879410 32.584615 19.883309 32.630769 19.887360 32.676923 19.891565 32.723077 19.895924 32.769231 19.900437 32.815385 19.905104 32.861538 19.909927 32.907692 19.914906 32.953846 19.920040 33.000000 19.925332 33.046154 19.930780 33.092308 19.936386 33.138462 19.942150 33.184615 19.948073 33.230769 19.954155 33.276923 19.960396 33.323077 19.966797 33.369231 19.973358 33.415385 19.980080 33.461538 19.986964 33.507692 19.994009 33.553846 20.001217 33.600000 20.008588 33.646154 20.016121 33.692308 20.023819 33.738462 20.031680 33.784615 20.039707 33.830769 20.047898 33.876923 20.056255 33.923077 20.064778 33.969231 20.073467 34.015385 20.082323 34.061538 20.091347 34.107692 20.100539 34.153846 20.109899 34.200000 20.119428 34.246154 20.129127 34.292308 20.138995 34.338462 20.149033 34.384615 20.159243 34.430769 20.169623 34.476923 20.180175 34.523077 20.190899 34.569231 20.201796 34.615385 20.212866 34.661538 20.224110 34.707692 20.235527 34.753846 20.247120 34.800000 20.258887 34.846154 20.270829 34.892308 20.282948 34.938462 20.295242 34.984615 20.307714 35.030769 20.320363 35.076923 20.333190 35.123077 20.346195 35.169231 20.359379 35.215385 20.372742 35.261538 20.386284 35.307692 20.400007 35.353846 20.413911 35.400000 20.427995 35.446154 20.442261 35.492308 20.456709 35.538462 20.471340 35.584615 20.486153 35.630769 20.501151 35.676923 20.516331 35.723077 20.531697 35.769231 20.547247 35.815385 20.562982 35.861538 20.578904 35.907692 20.595011 35.953846 20.611305 36.000000 20.627787 36.046154 20.644456 36.092308 20.661313 36.138462 20.678359 36.184615 20.695594 36.230769 20.713018 36.276923 20.730633 36.323077 20.748438 36.369231 20.766434 36.415385 20.784621 36.461538 20.803000 36.507692 20.821572 36.553846 20.840336 36.600000 20.859294 36.646154 20.878446 36.692308 20.897792 36.738462 20.917331 36.784615 20.937062 36.830769 20.956978 36.876923 20.977077 36.923077 20.997354 36.969231 21.017804 37.015385 21.038424 37.061538 21.059209 37.107692 21.080155 37.153846 21.101258 37.200000 21.122514 37.246154 21.143918 37.292308 21.165467 37.338462 21.187155 37.384615 21.208980 37.430769 21.230936 37.476923 21.253020 37.523077 21.275226 37.569231 21.297552 37.615385 21.319993 37.661538 21.342545 37.707692 21.365203 37.753846 21.387963 37.800000 21.410821 37.846154 21.433773 37.892308 21.456815 37.938462 21.479942 37.984615 21.503150 38.030769 21.526436 38.076923 21.549794 38.123077 21.573221 38.169231 21.596712 38.215385 21.620264 38.261538 21.643871 38.307692 21.667531 38.353846 21.691237 38.400000 21.714988 38.446154 21.738777 38.492308 21.762602 38.538462 21.786457 38.584615 21.810339 38.630769 21.834244 38.676923 21.858166 38.723077 21.882103 38.769231 21.906049 38.815385 21.930001 38.861538 21.953954 38.907692 21.977904 38.953846 22.001848 39.000000 22.025780 39.046154 22.049696 39.092308 22.073594 39.138462 22.097467 39.184615 22.121312 39.230769 22.145125 39.276923 22.168901 39.323077 22.192637 39.369231 22.216328 39.415385 22.239970 39.461538 22.263558 39.507692 22.287090 39.553846 22.310559 39.600000 22.333963 39.646154 22.357296 39.692308 22.380555 39.738462 22.403736 39.784615 22.426834 39.830769 22.449845 39.876923 22.472765 39.923077 22.495590 39.969231 22.518315 40.015385 22.540937 40.061538 22.563450 40.107692 22.585852 40.153846 22.608137 40.200000 22.630302 40.246154 22.652342 40.292308 22.674253 40.338462 22.696031 40.384615 22.717671 40.430769 22.739170 40.476923 22.760524 40.523077 22.781727 40.569231 22.802776 40.615385 22.823667 40.661538 22.844395 40.707692 22.864957 40.753846 22.885348 40.800000 22.905563 40.846154 22.925599 40.892308 22.945452 40.938462 22.965116 40.984615 22.984589 41.030769 23.003866 41.076923 23.022942 41.123077 23.041814 41.169231 23.060476 41.215385 23.078926 41.261538 23.097159 41.307692 23.115170 41.353846 23.132956 41.400000 23.150512 41.446154 23.167834 41.492308 23.184917 41.538462 23.201759 41.584615 23.218353 41.630769 23.234697 41.676923 23.250786 41.723077 23.266616 41.769231 23.282182 41.815385 23.297480 41.861538 23.312507 41.907692 23.327258 41.953846 23.341728 42.000000 23.355914 42.046154 23.369812 42.092308 23.383416 42.138462 23.396724 42.184615 23.409730 42.230769 23.422430 42.276923 23.434822 42.323077 23.446899 42.369231 23.458658 42.415385 23.470095 42.461538 23.481205 42.507692 23.491985 42.553846 23.502430 42.600000 23.512535 42.646154 23.522298 42.692308 23.531713 42.738462 23.540776 42.784615 23.549484 42.830769 23.557831 42.876923 23.565814 42.923077 23.573428 42.969231 23.580670 43.015385 23.587535 43.061538 23.594019 43.107692 23.600117 43.153846 23.605826 43.200000 23.611141 43.246154 23.616059 43.292308 23.620574 43.338462 23.624682 43.384615 23.628381 43.430769 23.631664 43.476923 23.634529 43.523077 23.636970 43.569231 23.638984 43.615385 23.640567 43.661538 23.641714 43.707692 23.642420 43.753846 23.642683 43.800000 23.642497 43.846154 23.641859 43.892308 23.640764 43.938462 23.639208 43.984615 23.637187 44.030769 23.634696 44.076923 23.631732 44.123077 23.628290 44.169231 23.624366 44.215385 23.619956 44.261538 23.615055 44.307692 23.609660 44.353846 23.603766 44.400000 23.597369 44.446154 23.590465 44.492308 23.583049 44.538462 23.575118 44.584615 23.566667 44.630769 23.557692 44.676923 23.548189 44.723077 23.538153 44.769231 23.527581 44.815385 23.516468 44.861538 23.504810 44.907692 23.492602 44.953846 23.479841 45.000000 23.466523 45.046154 23.452642 45.092308 23.438196 45.138462 23.423179 45.184615 23.407588 45.230769 23.391418 45.276923 23.374665 45.323077 23.357326 45.369231 23.339395 45.415385 23.320868 45.461538 23.301742 45.507692 23.282012 45.553846 23.261674 45.600000 23.240723 45.646154 23.219156 45.692308 23.196969 45.738462 23.174156 45.784615 23.150714 45.830769 23.126639 45.876923 23.101927 45.923077 23.076573 45.969231 23.050573 46.015385 23.023922 46.061538 22.996618 46.107692 22.968655 46.153846 22.940029 46.200000 22.910736 46.246154 22.880773 46.292308 22.850133 46.338462 22.818815 46.384615 22.786812 46.430769 22.754122 46.476923 22.720739 46.523077 22.686660 46.569231 22.651881 46.615385 22.616397 46.661538 22.580203 46.707692 22.543297 46.753846 22.505673 46.800000 22.467328 46.846154 22.428257 46.892308 22.388456 46.938462 22.347921 46.984615 22.306647 47.030769 22.264631 47.076923 22.221868 47.123077 22.178354 47.169231 22.134085 47.215385 22.089056 47.261538 22.043264 47.307692 21.996704 47.353846 21.949372 47.400000 21.901264 47.446154 21.852375 47.492308 21.802702 47.538462 21.752240 47.584615 21.700985 47.630769 21.648932 47.676923 21.596079 47.723077 21.542419 47.769231 21.487950 47.815385 21.432667 47.861538 21.376565 47.907692 21.319641 47.953846 21.261890 48.000000 21.203309 48.046154 21.143892 48.092308 21.083637 48.138462 21.022537 48.184615 20.960590 48.230769 20.897792 48.276923 20.834139 48.323077 20.769639 48.369231 20.704300 48.415385 20.638130 48.461538 20.571139 48.507692 20.503335 48.553846 20.434726 48.600000 20.365322 48.646154 20.295130 48.692308 20.224159 48.738462 20.152418 48.784615 20.079916 48.830769 20.006661 48.876923 19.932662 48.923077 19.857926 48.969231 19.782464 49.015385 19.706283 49.061538 19.629392 49.107692 19.551800 49.153846 19.473515 49.200000 19.394546 49.246154 19.314901 49.292308 19.234589 49.338462 19.153619 49.384615 19.071999 49.430769 18.989738 49.476923 18.906844 49.523077 18.823327 49.569231 18.739194 49.615385 18.654454 49.661538 18.569116 49.707692 18.483188 49.753846 18.396679 49.800000 18.309598 49.846154 18.221953 49.892308 18.133753 49.938462 18.045006 49.984615 17.955721 50.030769 17.865907 50.076923 17.775571 50.123077 17.684724 50.169231 17.593373 50.215385 17.501527 50.261538 17.409194 50.307692 17.316383 50.353846 17.223104 50.400000 17.129363 50.446154 17.035170 50.492308 16.940534 50.538462 16.845463 50.584615 16.749966 50.630769 16.654051 50.676923 16.557727 50.723077 16.461002 50.769231 16.363886 50.815385 16.266386 50.861538 16.168511 50.907692 16.070270 50.953846 15.971672 51.000000 15.872725 51.046154 15.773437 51.092308 15.673818 51.138462 15.573875 51.184615 15.473618 51.230769 15.373055 51.276923 15.272194 51.323077 15.171045 51.369231 15.069616 51.415385 14.967915 51.461538 14.865951 51.507692 14.763732 51.553846 14.661268 51.600000 14.558567 51.646154 14.455637 51.692308 14.352487 51.738462 14.249125 51.784615 14.145561 51.830769 14.041802 51.876923 13.937858 51.923077 13.833737 51.969231 13.729448 52.015385 13.624998 52.061538 13.520397 52.107692 13.415654 52.153846 13.310777 52.200000 13.205774 52.246154 13.100654 52.292308 12.995426 52.338462 12.890098 52.384615 12.784679 52.430769 12.679178 52.476923 12.573603 52.523077 12.467962 52.569231 12.362265 52.615385 12.256520 52.661538 12.150735 52.707692 12.044919 52.753846 11.939081 52.800000 11.833229 52.846154 11.727372 52.892308 11.621519 52.938462 11.515677 52.984615 11.409856 53.030769 11.304065 53.076923 11.198311 53.123077 11.092604 53.169231 10.986952 53.215385 10.881363 53.261538 10.775847 53.307692 10.670411 53.353846 10.565065 53.400000 10.459817 53.446154 10.354676 53.492308 10.249650 53.538462 10.144747 53.584615 10.039977 53.630769 9.935348 53.676923 9.830868 53.723077 9.726547 53.769231 9.622392 53.815385 9.518413 53.861538 9.414618 53.907692 9.311015 53.953846 9.207614 54.000000 9.104422 54.046154 9.001449 54.092308 8.898702 54.138462 8.796191 54.184615 8.693925 54.230769 8.591910 54.276923 8.490158 54.323077 8.388675 54.369231 8.287471 54.415385 8.186553 54.461538 8.085932 54.507692 7.985615 54.553846 7.885611 54.600000 7.785928 54.646154 7.686575 54.692308 7.587561 54.738462 7.488894 54.784615 7.390583 54.830769 7.292637 54.876923 7.195064 54.923077 7.097872 54.969231 7.001071 55.015385 6.904668 55.061538 6.808673 55.107692 6.713094 55.153846 6.617939 55.200000 6.523218 55.246154 6.428939 55.292308 6.335110 55.338462 6.241740 55.384615 6.148837 55.430769 6.056411 55.476923 5.964470 55.523077 5.873022 55.569231 5.782076 55.615385 5.691641 55.661538 5.601725 55.707692 5.512336 55.753846 5.423484 55.800000 5.335177 55.846154 5.247424 55.892308 5.160232 55.938462 5.073612 55.984615 4.987571 56.030769 4.902117 56.076923 4.817261 56.123077 4.733009 56.169231 4.649371 56.215385 4.566356 56.261538 4.483971 56.307692 4.402226 56.353846 4.321129 56.400000 4.240689 56.446154 4.160914 56.492308 4.081813 56.538462 4.003395 56.584615 3.925667 56.630769 3.848639 56.676923 3.772320 56.723077 3.696717 56.769231 3.621840 56.815385 3.547697 56.861538 3.474297 56.907692 3.401648 56.953846 3.329758 57.000000 3.258638 57.046154 3.188294 57.092308 3.118736 57.138462 3.049972 57.184615 2.982011 57.230769 2.914861 57.276923 2.848532 57.323077 2.783031 57.369231 2.718367 57.415385 2.654549 57.461538 2.591585 57.507692 2.529485 57.553846 2.468256 57.600000 2.407907 57.646154 2.348447 57.692308 2.289885 57.738462 2.232228 57.784615 2.175486 57.830769 2.119667 57.876923 2.064780 57.923077 2.010833 57.969231 1.957835 58.015385 1.905795 58.061538 1.854721 58.107692 1.804622 58.153846 1.755506 58.200000 1.707381 58.246154 1.660258 58.292308 1.614143 58.338462 1.569047 58.384615 1.524976 58.430769 1.481941 58.476923 1.439949 58.523077 1.399009 58.569231 1.359130 58.615385 1.320320 58.661538 1.282588 58.707692 1.245942 58.753846 1.210391 58.800000 1.175945 58.846154 1.142610 58.892308 1.110396 58.938462 1.079312 58.984615 1.049366 59.030769 1.020566 59.076923 0.992922 59.123077 0.966442 59.169231 0.941134 59.215385 0.917007 59.261538 0.894069 59.307692 0.872330 59.353846 0.851798 59.400000 0.832481 59.446154 0.814388 59.492308 0.797527 59.538462 0.781908 59.584615 0.767539 59.630769 0.754428 59.676923 0.742584 59.723077 0.732016 59.769231 0.722731 59.815385 0.714737 59.861538 0.708029 59.907692 0.702600 59.953846 0.698442 60.000000 0.695550 60.046154 0.693916 60.092308 0.693533 60.138462 0.694394 60.184615 0.696492 60.230769 0.699821 60.276923 0.704373 60.323077 0.710142 60.369231 0.717120 60.415385 0.725301 60.461538 0.734677 60.507692 0.745242 60.553846 0.756989 60.600000 0.769911 60.646154 0.784000 60.692308 0.799251 60.738462 0.815655 60.784615 0.833207 60.830769 0.851899 60.876923 0.871724 60.923077 0.892676 60.969231 0.914746 61.015385 0.937929 61.061538 0.962218 61.107692 0.987605 61.153846 1.014084 61.200000 1.041648 61.246154 1.070289 61.292308 1.100001 61.338462 1.130777 61.384615 1.162609 61.430769 1.195492 61.476923 1.229418 61.523077 1.264380 61.569231 1.300371 61.615385 1.337384 61.661538 1.375413 61.707692 1.414450 61.753846 1.454489 61.800000 1.495521 61.846154 1.537542 61.892308 1.580543 61.938462 1.624518 61.984615 1.669459 62.030769 1.715361 62.076923 1.762215 62.123077 1.810015 62.169231 1.858754 62.215385 1.908426 62.261538 1.959022 62.307692 2.010536 62.353846 2.062962 62.400000 2.116292 62.446154 2.170520 62.492308 2.225638 62.538462 2.281639 62.584615 2.338517 62.630769 2.396265 62.676923 2.454875 62.723077 2.514341 62.769231 2.574656 62.815385 2.635813 62.861538 2.697805 62.907692 2.760625 62.953846 2.824266 63.000000 2.888721 63.046154 2.953983 63.092308 3.020045 63.138462 3.086901 63.184615 3.154543 63.230769 3.222965 63.276923 3.292159 63.323077 3.362119 63.369231 3.432838 63.415385 3.504308 63.461538 3.576523 63.507692 3.649475 63.553846 3.723159 63.600000 3.797567 63.646154 3.872691 63.692308 3.948526 63.738462 4.025064 63.784615 4.102298 63.830769 4.180221 63.876923 4.258827 63.923077 4.338108 63.969231 4.418058 64.015385 4.498669 64.061538 4.579935 64.107692 4.661848 64.153846 4.744402 64.200000 4.827590 64.246154 4.911405 64.292308 4.995840 64.338462 5.080887 64.384615 5.166541 64.430769 5.252794 64.476923 5.339639 64.523077 5.427069 64.569231 5.515078 64.615385 5.603658 64.661538 5.692802 64.707692 5.782504 64.753846 5.872756 64.800000 5.963552 64.846154 6.054885 64.892308 6.146747 64.938462 6.239132 64.984615 6.332033 65.030769 6.425443 65.076923 6.519355 65.123077 6.613762 65.169231 6.708657 65.215385 6.804033 65.261538 6.899884 65.307692 6.996202 65.353846 7.092980 65.400000 7.190212 65.446154 7.287890 65.492308 7.386008 65.538462 7.484558 65.584615 7.583534 65.630769 7.682929 65.676923 7.782736 65.723077 7.882947 65.769231 7.983557 65.815385 8.084557 65.861538 8.185942 65.907692 8.287703 65.953846 8.389835 66.000000 8.492330 66.046154 8.595182 66.092308 8.698382 66.138462 8.801926 66.184615 8.905805 66.230769 9.010012 66.276923 9.114541 66.323077 9.219385 66.369231 9.324536 66.415385 9.429988 66.461538 9.535735 66.507692 9.641768 66.553846 9.748081 66.600000 9.854667 66.646154 9.961520 66.692308 10.068631 66.738462 10.175995 66.784615 10.283605 66.830769 10.391452 66.876923 10.499531 66.923077 10.607835 66.969231 10.716356 67.015385 10.825088 67.061538 10.934024 67.107692 11.043156 67.153846 11.152478 67.200000 11.261983 67.246154 11.371665 67.292308 11.481515 67.338462 11.591527 67.384615 11.701694 67.430769 11.812010 67.476923 11.922467 67.523077 12.033058 67.569231 12.143777 67.615385 12.254616 67.661538 12.365569 67.707692 12.476628 67.753846 12.587787 67.800000 12.699039 67.846154 12.810376 67.892308 12.921793 67.938462 13.033281 67.984615 13.144834 68.030769 13.256445 68.076923 13.368108 68.123077 13.479814 68.169231 13.591558 68.215385 13.703332 68.261538 13.815130 68.307692 13.926944 68.353846 14.038767 68.400000 14.150593 68.446154 14.262415 68.492308 14.374225 68.538462 14.486017 68.584615 14.597784 68.630769 14.709519 68.676923 14.821215 68.723077 14.932864 68.769231 15.044461 68.815385 15.155998 68.861538 15.267468 68.907692 15.378864 68.953846 15.490180 69.000000 15.601408 69.046154 15.712541 69.092308 15.823573 69.138462 15.934497 69.184615 16.045305 69.230769 16.155991 69.276923 16.266547 69.323077 16.376968 69.369231 16.487245 69.415385 16.597372 69.461538 16.707342 69.507692 16.817149 69.553846 16.926784 69.600000 17.036242 69.646154 17.145515 69.692308 17.254596 69.738462 17.363479 69.784615 17.472156 69.830769 17.580621 69.876923 17.688866 69.923077 17.796885 69.969231 17.904670 70.015385 18.012216 70.061538 18.119514 70.107692 18.226558 70.153846 18.333341 70.200000 18.439856 70.246154 18.546096 70.292308 18.652055 70.338462 18.757724 70.384615 18.863098 70.430769 18.968169 70.476923 19.072931 70.523077 19.177376 70.569231 19.281498 70.615385 19.385289 70.661538 19.488743 70.707692 19.591852 70.753846 19.694611 70.800000 19.797011 70.846154 19.899046 70.892308 20.000709 70.938462 20.101993 70.984615 20.202892 71.030769 20.303397 71.076923 20.403503 71.123077 20.503202 71.169231 20.602487 71.215385 20.701352 71.261538 20.799789 71.307692 20.897792 71.353846 20.995354 71.400000 21.092472 71.446154 21.189145 71.492308 21.285371 71.538462 21.381146 71.584615 21.476469 71.630769 21.571337 71.676923 21.665749 71.723077 21.759703 71.769231 21.853196 71.815385 21.946225 71.861538 22.038790 71.907692 22.130888 71.953846 22.222516 72.000000 22.313673 72.046154 22.404355 72.092308 22.494563 72.138462 22.584292 72.184615 22.673540 72.230769 22.762307 72.276923 22.850589 72.323077 22.938385 72.369231 23.025691 72.415385 23.112507 72.461538 23.198830 72.507692 23.284658 72.553846 23.369988 72.600000 23.454818 72.646154 23.539147 72.692308 23.622972 72.738462 23.706291 72.784615 23.789102 72.830769 23.871403 72.876923 23.953191 72.923077 24.034464 72.969231 24.115221 73.015385 24.195459 73.061538 24.275176 73.107692 24.354369 73.153846 24.433037 73.200000 24.511178 73.246154 24.588789 73.292308 24.665868 73.338462 24.742413 73.384615 24.818422 73.430769 24.893893 73.476923 24.968823 73.523077 25.043210 73.569231 25.117053 73.615385 25.190349 73.661538 25.263096 73.707692 25.335291 73.753846 25.406933 73.800000 25.478020 73.846154 25.548549 73.892308 25.618518 73.938462 25.687925 73.984615 25.756768 74.030769 25.825045 74.076923 25.892753 74.123077 25.959890 74.169231 26.026455 74.215385 26.092445 74.261538 26.157858 74.307692 26.222691 74.353846 26.286944 74.400000 26.350612 74.446154 26.413695 74.492308 26.476190 74.538462 26.538096 74.584615 26.599409 74.630769 26.660127 74.676923 26.720250 74.723077 26.779773 74.769231 26.838696 74.815385 26.897016 74.861538 26.954731 74.907692 27.011839 74.953846 27.068337 75.000000 27.124224 75.046154 27.179497 75.092308 27.234154 75.138462 27.288193 75.184615 27.341612 75.230769 27.394409 75.276923 27.446581 75.323077 27.498127 75.369231 27.549044 75.415385 27.599330 75.461538 27.648983 75.507692 27.698001 75.553846 27.746381 75.600000 27.794122 75.646154 27.841221 75.692308 27.887676 75.738462 27.933485 75.784615 27.978647 75.830769 28.023157 75.876923 28.067016 75.923077 28.110220 75.969231 28.152767 76.015385 28.194655 76.061538 28.235882 76.107692 28.276446 76.153846 28.316344 76.200000 28.355575 76.246154 28.394136 76.292308 28.432026 76.338462 28.469241 76.384615 28.505781 76.430769 28.541641 76.476923 28.576822 76.523077 28.611320 76.569231 28.645133 76.615385 28.678259 76.661538 28.710697 76.707692 28.742443 76.753846 28.773495 76.800000 28.803852 76.846154 28.833512 76.892308 28.862471 76.938462 28.890729 76.984615 28.918282 77.030769 28.945129 77.076923 28.971268 77.123077 28.996696 77.169231 29.021411 77.215385 29.045412 77.261538 29.068695 77.307692 29.091259 77.353846 29.113102 77.400000 29.134221 77.446154 29.154614 77.492308 29.174280 77.538462 29.193216 77.584615 29.211419 77.630769 29.228889 77.676923 29.245622 77.723077 29.261616 77.769231 29.276869 77.815385 29.291380 77.861538 29.305145 77.907692 29.318164 77.953846 29.330432 78.000000 29.341950 78.046154 29.352714 78.092308 29.362721 78.138462 29.371971 78.184615 29.380461 78.230769 29.388188 78.276923 29.395151 78.323077 29.401348 78.369231 29.406776 78.415385 29.411432 78.461538 29.415316 78.507692 29.418424 78.553846 29.420755 78.600000 29.422307 78.646154 29.423077 78.692308 29.423063 78.738462 29.422263 78.784615 29.420675 78.830769 29.418297 78.876923 29.415126 78.923077 29.411160 78.969231 29.406398 79.015385 29.400837 79.061538 29.394475 79.107692 29.387310 79.153846 29.379339 79.200000 29.370561 79.246154 29.360973 79.292308 29.350573 79.338462 29.339359 79.384615 29.327330 79.430769 29.314482 79.476923 29.300813 79.523077 29.286322 79.569231 29.271006 79.615385 29.254863 79.661538 29.237891 79.707692 29.220088 79.753846 29.201451 79.800000 29.181979 79.846154 29.161670 79.892308 29.140520 79.938462 29.118529 79.984615 29.095693 80.030769 29.072011 80.076923 29.047481 80.123077 29.022100 80.169231 28.995866 80.215385 28.968778 80.261538 28.940832 80.307692 28.912027 80.353846 28.882361 80.400000 28.851831 80.446154 28.820436 80.492308 28.788173 80.538462 28.755039 80.584615 28.721034 80.630769 28.686154 80.676923 28.650398 80.723077 28.613764 80.769231 28.576248 80.815385 28.537850 80.861538 28.498566 80.907692 28.458396 80.953846 28.417336 81.000000 28.375384 81.046154 28.332539 81.092308 28.288798 81.138462 28.244159 81.184615 28.198620 81.230769 28.152179 81.276923 28.104833 81.323077 28.056581 81.369231 28.007420 81.415385 27.957348 81.461538 27.906362 81.507692 27.854462 81.553846 27.801644 81.600000 27.747907 81.646154 27.693248 81.692308 27.637666 81.738462 27.581157 81.784615 27.523720 81.830769 27.465353 81.876923 27.406054 81.923077 27.345820 81.969231 27.284649 82.015385 27.222539 82.061538 27.159488 82.107692 27.095494 82.153846 27.030555 82.200000 26.964668 82.246154 26.897831 82.292308 26.830043 82.338462 26.761301 82.384615 26.691602 82.430769 26.620946 82.476923 26.549328 82.523077 26.476749 82.569231 26.403204 82.615385 26.328693 82.661538 26.253212 82.707692 26.176760 82.753846 26.099335 82.800000 26.020935 82.846154 25.941557 82.892308 25.861201 82.938462 25.779875 82.984615 25.697588 83.030769 25.614351 83.076923 25.530173 83.123077 25.445064 83.169231 25.359034 83.215385 25.272092 83.261538 25.184248 83.307692 25.095512 83.353846 25.005893 83.400000 24.915402 83.446154 24.824048 83.492308 24.731841 83.538462 24.638790 83.584615 24.544906 83.630769 24.450197 83.676923 24.354675 83.723077 24.258347 83.769231 24.161226 83.815385 24.063319 83.861538 23.964637 83.907692 23.865189 83.953846 23.764986 84.000000 23.664036 84.046154 23.562351 84.092308 23.459939 84.138462 23.356810 84.184615 23.252973 84.230769 23.148440 84.276923 23.043219 84.323077 22.937320 84.369231 22.830753 84.415385 22.723528 84.461538 22.615654 84.507692 22.507141 84.553846 22.397999 84.600000 22.288238 84.646154 22.177867 84.692308 22.066896 84.738462 21.955335 84.784615 21.843193 84.830769 21.730481 84.876923 21.617208 84.923077 21.503383 84.969231 21.389017 85.015385 21.274120 85.061538 21.158700 85.107692 21.042768 85.153846 20.926334 85.200000 20.809407 85.246154 20.691997 85.292308 20.574113 85.338462 20.455766 85.384615 20.336965 85.430769 20.217721 85.476923 20.098041 85.523077 19.977938 85.569231 19.857419 85.615385 19.736496 85.661538 19.615177 85.707692 19.493472 85.753846 19.371391 85.800000 19.248945 85.846154 19.126142 85.892308 19.002992 85.938462 18.879506 85.984615 18.755692 86.030769 18.631561 86.076923 18.507122 86.123077 18.382385 86.169231 18.257360 86.215385 18.132057 86.261538 18.006485 86.307692 17.880654 86.353846 17.754573 86.400000 17.628253 86.446154 17.501704 86.492308 17.374934 86.538462 17.247954 86.584615 17.120774 86.630769 16.993403 86.676923 16.865850 86.723077 16.738127 86.769231 16.610242 86.815385 16.482205 86.861538 16.354026 86.907692 16.225714 86.953846 16.097280 87.000000 15.968733 87.046154 15.840083 87.092308 15.711340 87.138462 15.582513 87.184615 15.453612 87.230769 15.324647 87.276923 15.195628 87.323077 15.066564 87.369231 14.937465 87.415385 14.808340 87.461538 14.679201 87.507692 14.550055 87.553846 14.420914 87.600000 14.291786 87.646154 14.162682 87.692308 14.033611 87.738462 13.904584 87.784615 13.775608 87.830769 13.646696 87.876923 13.517855 87.923077 13.389097 87.969231 13.260430 88.015385 13.131865 88.061538 13.003411 88.107692 12.875078 88.153846 12.746875 88.200000 12.618813 88.246154 12.490901 88.292308 12.363149 88.338462 12.235567 88.384615 12.108164 88.430769 11.980950 88.476923 11.853935 88.523077 11.727128 88.569231 11.600540 88.615385 11.474180 88.661538 11.348058 88.707692 11.222183 88.753846 11.096566 88.800000 10.971215 88.846154 10.846142 88.892308 10.721355 88.938462 10.596864 88.984615 10.472679 89.030769 10.348810 89.076923 10.225267 89.123077 10.102058 89.169231 9.979195 89.215385 9.856686 89.261538 9.734542 89.307692 9.612772 89.353846 9.491386 89.400000 9.370394 89.446154 9.249805 89.492308 9.129629 89.538462 9.009876 89.584615 8.890556 89.630769 8.771678 89.676923 8.653253 89.723077 8.535289 89.769231 8.417796 89.815385 8.300786 89.861538 8.184266 89.907692 8.068247 89.953846 7.952738 90.000000 7.837750 90.046154 7.723292 90.092308 7.609374 90.138462 7.496005 90.184615 7.383196 90.230769 7.270955 90.276923 7.159294 90.323077 7.048220 90.369231 6.937746 90.415385 6.827879 90.461538 6.718629 90.507692 6.610008 90.553846 6.502023 90.600000 6.394685 90.646154 6.288005 90.692308 6.181990 90.738462 6.076652 90.784615 5.971999 90.830769 5.868043 90.876923 5.764791 90.923077 5.662255 90.969231 5.560444 91.015385 5.459367 91.061538 5.359034 91.107692 5.259456 91.153846 5.160642 91.200000 5.062601 91.246154 4.965343 91.292308 4.868879 91.338462 4.773217 91.384615 4.678368 91.430769 4.584341 91.476923 4.491146 91.523077 4.398793 91.569231 4.307292 91.615385 4.216651 91.661538 4.126882 91.707692 4.037994 91.753846 3.949995 91.800000 3.862898 91.846154 3.776710 91.892308 3.691441 91.938462 3.607103 91.984615 3.523703 92.030769 3.441252 92.076923 3.359760 92.123077 3.279237 92.169231 3.199691 92.215385 3.121134 92.261538 3.043574 92.307692 2.967021 92.353846 2.891486 92.400000 2.816977 92.446154 2.743505 92.492308 2.671079 92.538462 2.599710 92.584615 2.529406 92.630769 2.460177 92.676923 2.392034 92.723077 2.324986 92.769231 2.259043 92.815385 2.194215 92.861538 2.130510 92.907692 2.067940 92.953846 2.006513 93.000000 1.946240 93.046154 1.887130 93.092308 1.829193 93.138462 1.772439 93.184615 1.716877 93.230769 1.662518 93.276923 1.609370 93.323077 1.557444 93.369231 1.506749 93.415385 1.457296 93.461538 1.409093 93.507692 1.362151 93.553846 1.316480 93.600000 1.272088 93.646154 1.228987 93.692308 1.187185 93.738462 1.146692 93.784615 1.107519 93.830769 1.069674 93.876923 1.033168 93.923077 0.998010 93.969231 0.964210 94.015385 0.931778 94.061538 0.900724 94.107692 0.871056 94.153846 0.842786 94.200000 0.815923 94.246154 0.790476 94.292308 0.766455 94.338462 0.743870 94.384615 0.722731 94.430769 0.703045 94.476923 0.684809 94.523077 0.668016 94.569231 0.652661 94.615385 0.638739 94.661538 0.626243 94.707692 0.615167 94.753846 0.605506 94.800000 0.597254 94.846154 0.590405 94.892308 0.584953 94.938462 0.580893 94.984615 0.578218 95.030769 0.576923 95.076923 0.577002 95.123077 0.578449 95.169231 0.581259 95.215385 0.585424 95.261538 0.590941 95.307692 0.597802 95.353846 0.606003 95.400000 0.615537 95.446154 0.626398 95.492308 0.638580 95.538462 0.652078 95.584615 0.666887 95.630769 0.682999 95.676923 0.700409 95.723077 0.719113 95.769231 0.739102 95.815385 0.760373 95.861538 0.782918 95.907692 0.806733 95.953846 0.831811 96.000000 0.858146 96.046154 0.885733 96.092308 0.914566 96.138462 0.944639 96.184615 0.975947 96.230769 1.008482 96.276923 1.042241 96.323077 1.077216 96.369231 1.113402 96.415385 1.150793 96.461538 1.189383 96.507692 1.229167 96.553846 1.270139 96.600000 1.312292 96.646154 1.355621 96.692308 1.400121 96.738462 1.445785 96.784615 1.492607 96.830769 1.540582 96.876923 1.589705 96.923077 1.639968 96.969231 1.691366 97.015385 1.743894 97.061538 1.797546 97.107692 1.852315 97.153846 1.908196 97.200000 1.965183 97.246154 2.023271 97.292308 2.082453 97.338462 2.142724 97.384615 2.204078 97.430769 2.266509 97.476923 2.330011 97.523077 2.394578 97.569231 2.460205 97.615385 2.526886 97.661538 2.594615 97.707692 2.663386 97.753846 2.733193 97.800000 2.804030 97.846154 2.875893 97.892308 2.948774 97.938462 3.022668 97.984615 3.097569 98.030769 3.173471 98.076923 3.250369 98.123077 3.328257 98.169231 3.407129 98.215385 3.486979 98.261538 3.567801 98.307692 3.649589 98.353846 3.732338 98.400000 3.816042 98.446154 3.900695 98.492308 3.986290 98.538462 4.072824 98.584615 4.160288 98.630769 4.248679 98.676923 4.337989 98.723077 4.428213 98.769231 4.519346 98.815385 4.611381 98.861538 4.704312 98.907692 4.798134 98.953846 4.892841 99.000000 4.988427 99.046154 5.084887 99.092308 5.182214 99.138462 5.280402 99.184615 5.379447 99.230769 5.479341 99.276923 5.580079 99.323077 5.681656 99.369231 5.784066 99.415385 5.887302 99.461538 5.991359 99.507692 6.096230 99.553846 6.201912 99.600000 6.308396 99.646154 6.415679 99.692308 6.523753 99.738462 6.632613 99.784615 6.742253 99.830769 6.852667 99.876923 6.963850 99.923077 7.075795 99.969231 7.188498 100.015385 7.301951 100.061538 7.416150 100.107692 7.531088 100.153846 7.646759 100.200000 7.763158 100.246154 7.880279 100.292308 7.998117 100.338462 8.116664 100.384615 8.235916 100.430769 8.355867 100.476923 8.476510 100.523077 8.597840 100.569231 8.719852 100.615385 8.842539 100.661538 8.965895 100.707692 9.089915 100.753846 9.214593 100.800000 9.339923 100.846154 9.465899 100.892308 9.592515 100.938462 9.719766 100.984615 9.847646 101.030769 9.976149 101.076923 10.105269 101.123077 10.235000 101.169231 10.365337 101.215385 10.496273 101.261538 10.627803 101.307692 10.759922 101.353846 10.892622 101.400000 11.025899 101.446154 11.159746 101.492308 11.294158 101.538462 11.429129 101.584615 11.564653 101.630769 11.700724 101.676923 11.837337 101.723077 11.974485 101.769231 12.112163 101.815385 12.250365 101.861538 12.389085 101.907692 12.528317 101.953846 12.668056 102.000000 12.808296 102.046154 12.949031 102.092308 13.090254 102.138462 13.231961 102.184615 13.374145 102.230769 13.516801 102.276923 13.659922 102.323077 13.803503 102.369231 13.947539 102.415385 14.092023 102.461538 14.236949 102.507692 14.382312 102.553846 14.528105 102.600000 14.674324 102.646154 14.820962 102.692308 14.968013 102.738462 15.115472 102.784615 15.263332 102.830769 15.411588 102.876923 15.560235 102.923077 15.709265 102.969231 15.858674 103.015385 16.008456 103.061538 16.158604 103.107692 16.309114 103.153846 16.459978 103.200000 16.611192 103.246154 16.762749 103.292308 16.914644 103.338462 17.066871 103.384615 17.219424 103.430769 17.372297 103.476923 17.525484 103.523077 17.678980 103.569231 17.832779 103.615385 17.986875 103.661538 18.141261 103.707692 18.295933 103.753846 18.450885 103.800000 18.606110 103.846154 18.761602 103.892308 18.917357 103.938462 19.073368 103.984615 19.229630 104.030769 19.386135 104.076923 19.542880 104.123077 19.699857 104.169231 19.857062 104.215385 20.014488 104.261538 20.172129 104.307692 20.329979 104.353846 20.488034 104.400000 20.646286 104.446154 20.804731 104.492308 20.963361 104.538462 21.122173 104.584615 21.281159 104.630769 21.440313 104.676923 21.599631 104.723077 21.759106 104.769231 21.918733 104.815385 22.078504 104.861538 22.238416 104.907692 22.398462 104.953846 22.558635 105.000000 22.718931 105.046154 22.879343 105.092308 23.039866 105.138462 23.200494 105.184615 23.361221 105.230769 23.522040 105.276923 23.682948 105.323077 23.843936 105.369231 24.005001 105.415385 24.166135 105.461538 24.327333 105.507692 24.488589 105.553846 24.649898 105.600000 24.811254 105.646154 24.972650 105.692308 25.134081 105.738462 25.295541 105.784615 25.457025 105.830769 25.618526 105.876923 25.780038 105.923077 25.941557" class="line reactive nofill" /></g></g><g class="titles" /><g transform="translate(82, 10)" class="plot overlay"><g class="series serie-0 color-0" /></g><g transform="translate(82, 10)" class="plot text-overlay"><g class="series serie-0 color-0" /></g><g transform="translate(82, 10)" class="plot tooltip-overlay"><g transform="translate(0 0)" style="opacity: 0" class="tooltip"><rect rx="0" ry="0" width="0" height="0" class="tooltip-box" /><g class="text" /></g></g></g></svg>