<?xml version='1.0' encoding='utf-8'?>
<svg xmlns="http://www.w3.org/2000/svg" id="chart-775dbbb5-7d53-4317-9b12-e9f6aa01e8b7" class="pygal-chart pygal-sparkline" viewBox="0 0 200 50" width="200" height="50"><!--Generated with pygal 3.0.5 (etree) ©Kozea 2012-2016 on 2025-03-16--><!--http://pygal.org--><!--http://github.com/Kozea/pygal--><defs><style type="text/css">#chart-775dbbb5-7d53-4317-9b12-e9f6aa01e8b7{-webkit-user-select:none;-webkit-font-smoothing:antialiased;font-family:Consolas,"Liberation Mono",Menlo,Courier,monospace}#chart-775dbbb5-7d53-4317-9b12-e9f6aa01e8b7 .title{font-family:Consolas,"Liberation Mono",Menlo,Courier,monospace;font-size:16px}#chart-775dbbb5-7d53-4317-9b12-e9f6aa01e8b7 .legends .legend text{font-family:Consolas,"Liberation Mono",Menlo,Courier,monospace;font-size:14px}#chart-775dbbb5-7d53-4317-9b12-e9f6aa01e8b7 .axis text{font-family:Consolas,"Liberation Mono",Menlo,Courier,monospace;font-size:10px}#chart-775dbbb5-7d53-4317-9b12-e9f6aa01e8b7 .axis text.major{font-family:Consolas,"Liberation Mono",Menlo,Courier,monospace;font-size:10px}#chart-775dbbb5-7d53-4317-9b12-e9f6aa01e8b7 .text-overlay text.value{font-family:Consolas,"Liberation Mono",Menlo,Courier,monospace;font-size:16px}#chart-775dbbb5-7d53-4317-9b12-e9f6aa01e8b7 .text-overlay text.label{font-family:Consolas,"Liberation Mono",Menlo,Courier,monospace;font-size:10px}#chart-775dbbb5-7d53-4317-9b12-e9f6aa01e8b7 .tooltip{font-family:Consolas,"Liberation Mono",Menlo,Courier,monospace;font-size:14px}#chart-775dbbb5-7d53-4317-9b12-e9f6aa01e8b7 text.no_data{font-family:Consolas,"Liberation Mono",Menlo,Courier,monospace;font-size:64px}
#chart-775dbbb5-7d53-4317-9b12-e9f6aa01e8b7{background-color:rgba(249,249,249,1)}#chart-775dbbb5-7d53-4317-9b12-e9f6aa01e8b7 path,#chart-775dbbb5-7d53-4317-9b12-e9f6aa01e8b7 line,#chart-775dbbb5-7d53-4317-9b12-e9f6aa01e8b7 rect,#chart-775dbbb5-7d53-4317-9b12-e9f6aa01e8b7 circle{-webkit-transition:150ms;-moz-transition:150ms;transition:150ms}#chart-775dbbb5-7d53-4317-9b12-e9f6aa01e8b7 .graph &gt; .background{fill:rgba(249,249,249,1)}#chart-775dbbb5-7d53-4317-9b12-e9f6aa01e8b7 .plot &gt; .background{fill:rgba(255,255,255,1)}#chart-775dbbb5-7d53-4317-9b12-e9f6aa01e8b7 .graph{fill:rgba(0,0,0,.87)}#chart-775dbbb5-7d53-4317-9b12-e9f6aa01e8b7 text.no_data{fill:rgba(0,0,0,1)}#chart-775dbbb5-7d53-4317-9b12-e9f6aa01e8b7 .title{fill:rgba(0,0,0,1)}#chart-775dbbb5-7d53-4317-9b12-e9f6aa01e8b7 .legends .legend text{fill:rgba(0,0,0,.87)}#chart-775dbbb5-7d53-4317-9b12-e9f6aa01e8b7 .legends .legend:hover text{fill:rgba(0,0,0,1)}#chart-775dbbb5-7d53-4317-9b12-e9f6aa01e8b7 .axis .line{stroke:rgba(0,0,0,1)}#chart-775dbbb5-7d53-4317-9b12-e9f6aa01e8b7 .axis .guide.line{stroke:rgba(0,0,0,.54)}#chart-775dbbb5-7d53-4317-9b12-e9f6aa01e8b7 .axis .major.line{stroke:rgba(0,0,0,.87)}#chart-775dbbb5-7d53-4317-9b12-e9f6aa01e8b7 .axis text.major{fill:rgba(0,0,0,1)}#chart-775dbbb5-7d53-4317-9b12-e9f6aa01e8b7 .axis.y .guides:hover .guide.line,#chart-775dbbb5-7d53-4317-9b12-e9f6aa01e8b7 .line-graph .axis.x .guides:hover .guide.line,#chart-775dbbb5-7d53-4317-9b12-e9f6aa01e8b7 .stackedline-graph .axis.x .guides:hover .guide.line,#chart-775dbbb5-7d53-4317-9b12-e9f6aa01e8b7 .xy-graph .axis.x .guides:hover .guide.line{stroke:rgba(0,0,0,1)}#chart-775dbbb5-7d53-4317-9b12-e9f6aa01e8b7 .axis .guides:hover text{fill:rgba(0,0,0,1)}#chart-775dbbb5-7d53-4317-9b12-e9f6aa01e8b7 .reactive{fill-opacity:.7;stroke-opacity:.8;stroke-width:1}#chart-775dbbb5-7d53-4317-9b12-e9f6aa01e8b7 .ci{stroke:rgba(0,0,0,.87)}#chart-775dbbb5-7d53-4317-9b12-e9f6aa01e8b7 .reactive.active,#chart-775dbbb5-7d53-4317-9b12-e9f6aa01e8b7 .active .reactive{fill-opacity:.8;stroke-opacity:.9;stroke-width:4}#chart-775dbbb5-7d53-4317-9b12-e9f6aa01e8b7 .ci .reactive.active{stroke-width:1.5}#chart-775dbbb5-7d53-4317-9b12-e9f6aa01e8b7 .series text{fill:rgba(0,0,0,1)}#chart-775dbbb5-7d53-4317-9b12-e9f6aa01e8b7 .tooltip rect{fill:rgba(255,255,255,1);stroke:rgba(0,0,0,1);-webkit-transition:opacity 150ms;-moz-transition:opacity 150ms;transition:opacity 150ms}#chart-775dbbb5-7d53-4317-9b12-e9f6aa01e8b7 .tooltip .label{fill:rgba(0,0,0,.87)}#chart-775dbbb5-7d53-4317-9b12-e9f6aa01e8b7 .tooltip .label{fill:rgba(0,0,0,.87)}#chart-775dbbb5-7d53-4317-9b12-e9f6aa01e8b7 .tooltip .legend{font-size:.8em;fill:rgba(0,0,0,.54)}#chart-775dbbb5-7d53-4317-9b12-e9f6aa01e8b7 .tooltip .x_label{font-size:.6em;fill:rgba(0,0,0,1)}#chart-775dbbb5-7d53-4317-9b12-e9f6aa01e8b7 .tooltip .xlink{font-size:.5em;text-decoration:underline}#chart-775dbbb5-7d53-4317-9b12-e9f6aa01e8b7 .tooltip .value{font-size:1.5em}#chart-775dbbb5-7d53-4317-9b12-e9f6aa01e8b7 .bound{font-size:.5em}#chart-775dbbb5-7d53-4317-9b12-e9f6aa01e8b7 .max-value{font-size:.75em;fill:rgba(0,0,0,.54)}#chart-775dbbb5-7d53-4317-9b12-e9f6aa01e8b7 .map-element{fill:rgba(255,255,255,1);stroke:rgba(0,0,0,.54) !important}#chart-775dbbb5-7d53-4317-9b12-e9f6aa01e8b7 .map-element .reactive{fill-opacity:inherit;stroke-opacity:inherit}#chart-775dbbb5-7d53-4317-9b12-e9f6aa01e8b7 .color-0,#chart-775dbbb5-7d53-4317-9b12-e9f6aa01e8b7 .color-0 a:visited{stroke:#F44336;fill:#F44336}#chart-775dbbb5-7d53-4317-9b12-e9f6aa01e8b7 .text-overlay .color-0 text{fill:black}
#chart-775dbbb5-7d53-4317-9b12-e9f6aa01e8b7 text.no_data{text-anchor:middle}#chart-775dbbb5-7d53-4317-9b12-e9f6aa01e8b7 .guide.line{fill:none}#chart-775dbbb5-7d53-4317-9b12-e9f6aa01e8b7 .centered{text-anchor:middle}#chart-775dbbb5-7d53-4317-9b12-e9f6aa01e8b7 .title{text-anchor:middle}#chart-775dbbb5-7d53-4317-9b12-e9f6aa01e8b7 .legends .legend text{fill-opacity:1}#chart-775dbbb5-7d53-4317-9b12-e9f6aa01e8b7 .axis.x text{text-anchor:middle}#chart-775dbbb5-7d53-4317-9b12-e9f6aa01e8b7 .axis.x:not(.web) text[transform]{text-anchor:start}#chart-775dbbb5-7d53-4317-9b12-e9f6aa01e8b7 .axis.x:not(.web) text[transform].backwards{text-anchor:end}#chart-775dbbb5-7d53-4317-9b12-e9f6aa01e8b7 .axis.y text{text-anchor:end}#chart-775dbbb5-7d53-4317-9b12-e9f6aa01e8b7 .axis.y text[transform].backwards{text-anchor:start}#chart-775dbbb5-7d53-4317-9b12-e9f6aa01e8b7 .axis.y2 text{text-anchor:start}#chart-775dbbb5-7d53-4317-9b12-e9f6aa01e8b7 .axis.y2 text[transform].backwards{text-anchor:end}#chart-775dbbb5-7d53-4317-9b12-e9f6aa01e8b7 .axis .guide.line{stroke-dasharray:4,4;stroke:black}#chart-775dbbb5-7d53-4317-9b12-e9f6aa01e8b7 .axis .major.guide.line{stroke-dasharray:6,6;stroke:black}#chart-775dbbb5-7d53-4317-9b12-e9f6aa01e8b7 .horizontal .axis.y .guide.line,#chart-775dbbb5-7d53-4317-9b12-e9f6aa01e8b7 .horizontal .axis.y2 .guide.line,#chart-775dbbb5-7d53-4317-9b12-e9f6aa01e8b7 .vertical .axis.x .guide.line{opacity:0}#chart-775dbbb5-7d53-4317-9b12-e9f6aa01e8b7 .horizontal .axis.always_show .guide.line,#chart-775dbbb5-7d53-4317-9b12-e9f6aa01e8b7 .vertical .axis.always_show .guide.line{opacity:1 !important}#chart-775dbbb5-7d53-4317-9b12-e9f6aa01e8b7 .axis.y .guides:hover .guide.line,#chart-775dbbb5-7d53-4317-9b12-e9f6aa01e8b7 .axis.y2 .guides:hover .guide.line,#chart-775dbbb5-7d53-4317-9b12-e9f6aa01e8b7 .axis.x .guides:hover .guide.line{opacity:1}#chart-775dbbb5-7d53-4317-9b12-e9f6aa01e8b7 .axis .guides:hover text{opacity:1}#chart-775dbbb5-7d53-4317-9b12-e9f6aa01e8b7 .nofill{fill:none}#chart-775dbbb5-7d53-4317-9b12-e9f6aa01e8b7 .subtle-fill{fill-opacity:.2}#chart-775dbbb5-7d53-4317-9b12-e9f6aa01e8b7 .dot{stroke-width:1px;fill-opacity:1;stroke-opacity:1}#chart-775dbbb5-7d53-4317-9b12-e9f6aa01e8b7 .dot.active{stroke-width:5px}#chart-775dbbb5-7d53-4317-9b12-e9f6aa01e8b7 .dot.negative{fill:transparent}#chart-775dbbb5-7d53-4317-9b12-e9f6aa01e8b7 text,#chart-775dbbb5-7d53-4317-9b12-e9f6aa01e8b7 tspan{stroke:none !important}#chart-775dbbb5-7d53-4317-9b12-e9f6aa01e8b7 .series text.active{opacity:1}#chart-775dbbb5-7d53-4317-9b12-e9f6aa01e8b7 .tooltip rect{fill-opacity:.95;stroke-width:.5}#chart-775dbbb5-7d53-4317-9b12-e9f6aa01e8b7 .tooltip text{fill-opacity:1}#chart-775dbbb5-7d53-4317-9b12-e9f6aa01e8b7 .showable{visibility:hidden}#chart-775dbbb5-7d53-4317-9b12-e9f6aa01e8b7 .showable.shown{visibility:visible}#chart-775dbbb5-7d53-4317-9b12-e9f6aa01e8b7 .gauge-background{fill:rgba(229,229,229,1);stroke:none}#chart-775dbbb5-7d53-4317-9b12-e9f6aa01e8b7 .bg-lines{stroke:rgba(249,249,249,1);stroke-width:2px}</style><script type="text/javascript">window.pygal = window.pygal || {};window.pygal.config = window.pygal.config || {};window.pygal.config['775dbbb5-7d53-4317-9b12-e9f6aa01e8b7'] = {"allow_interruptions": false, "box_mode": "extremes", "classes": ["pygal-chart", "pygal-sparkline"], "css": ["file://style.css", "file://graph.css"], "defs": [], "disable_xml_declaration": false, "dots_size": 2.5, "dynamic_print_values": false, "explicit_size": true, "fill": false, "force_uri_protocol": "https", "formatter": null, "half_pie": false, "height": 50, "include_x_axis": false, "inner_radius": 0, "interpolate": "cubic", "interpolation_parameters": {}, "interpolation_precision": 250, "inverse_y_axis": false, "js": [], "legend_at_bottom": false, "legend_at_bottom_columns": null, "legend_box_size": 12, "logarithmic": false, "margin": 10, "margin_bottom": null, "margin_left": null, "margin_right": null, "margin_top": null, "max_scale": 2, "min_scale": 1, "missing_value_fill_truncation": "x", "no_data_text": "", "no_prefix": false, "order_min": null, "pretty_print": false, "print_labels": false, "print_values": false, "print_values_position": "center", "print_zeroes": true, "range": null, "rounded_bars": null, "secondary_range": null, "show_dots": false, "show_legend": false, "show_minor_x_labels": true, "show_minor_y_labels": true, "show_only_major_dots": false, "show_x_guides": false, "show_x_labels": false, "show_y_guides": true, "show_y_labels": true, "spacing": 0, "stack_from_top": false, "strict": false, "stroke": true, "stroke_style": null, "style": {"background": "rgba(249, 249, 249, 1)", "ci_colors": [], "colors": ["#F44336", "#3F51B5", "#009688", "#FFC107", "#FF5722", "#9C27B0", "#03A9F4", "#8BC34A", "#FF9800", "#E91E63", "#2196F3", "#4CAF50", "#FFEB3B", "#673AB7", "#00BCD4", "#CDDC39", "#9E9E9E", "#607D8B"], "dot_opacity": "1", "font_family": "Consolas, \"Liberation Mono\", Menlo, Courier, monospace", "foreground": "rgba(0, 0, 0, .87)", "foreground_strong": "rgba(0, 0, 0, 1)", "foreground_subtle": "rgba(0, 0, 0, .54)", "guide_stroke_color": "black", "guide_stroke_dasharray": "4,4", "label_font_family": "Consolas, \"Liberation Mono\", Menlo, Courier, monospace", "label_font_size": 10, "legend_font_family": "Consolas, \"Liberation Mono\", Menlo, Courier, monospace", "legend_font_size": 14, "major_guide_stroke_color": "black", "major_guide_stroke_dasharray": "6,6", "major_label_font_family": "Consolas, \"Liberation Mono\", Menlo, Courier, monospace", "major_label_font_size": 10, "no_data_font_family": "Consolas, \"Liberation Mono\", Menlo, Courier, monospace", "no_data_font_size": 64, "opacity": ".7", "opacity_hover": ".8", "plot_background": "rgba(255, 255, 255, 1)", "stroke_opacity": ".8", "stroke_opacity_hover": ".9", "stroke_width": "1", "stroke_width_hover": "4", "title_font_family": "Consolas, \"Liberation Mono\", Menlo, Courier, monospace", "title_font_size": 16, "tooltip_font_family": "Consolas, \"Liberation Mono\", Menlo, Courier, monospace", "tooltip_font_size": 14, "transition": "150ms", "value_background": "rgba(229, 229, 229, 1)", "value_colors": [], "value_font_family": "Consolas, \"Liberation Mono\", Menlo, Courier, monospace", "value_font_size": 16, "value_label_font_family": "Consolas, \"Liberation Mono\", Menlo, Courier, monospace", "value_label_font_size": 10}, "title": null, "tooltip_border_radius": 0, "tooltip_fancy_mode": true, "truncate_label": null, "truncate_legend": null, "width": 200, "x_label_rotation": 0, "x_labels": ["2025/3", "2025/2", "2025/1", "2024/12", "2024/11", "2024/10", "2024/9", "2024/8", "2024/7", "2024/6", "2024/5", "2024/4"], "x_labels_major": null, "x_labels_major_count": null, "x_labels_major_every": null, "x_title": null, "xrange": null, "y_label_rotation": 0, "y_labels": null, "y_labels_major": null, "y_labels_major_count": null, "y_labels_major_every": null, "y_title": null, "zero": 0, "legends": [""]}</script></defs><title>Pygal</title><g class="graph line-graph vertical"><rect x="0" y="0" width="200" height="50" class="background" /><g transform="translate(82, 10)" class="plot"><rect x="0" y="0" width="108.0" height="30" class="background" /><g class="axis y always_show"><path d="M0.000000 30.000000 h108.000000" class="line" /><g class="guides"><path d="M0.000000 29.423077 h108.000000" class="guide line" /><text x="-5" y="32.92307692307692" class="">0.3136715378</text><title>0.3136715378</title></g><g class="guides"><path d="M0.000000 0.576923 h108.000000" class="guide line" /><text x="-5" y="4.076923076923073" class="">5.247246305</text><title>5.247246305</title></g></g><g class="series serie-0 color-0"><path d="M2.076923 25.410178 L2.114685 25.415018 2.152448 25.419858 2.190210 25.424697 2.227972 25.429535 2.265734 25.434371 2.303497 25.439204 2.341259 25.444034 2.379021 25.448862 2.416783 25.453685 2.454545 25.458505 2.492308 25.463320 2.530070 25.468129 2.567832 25.472933 2.605594 25.477731 2.643357 25.482523 2.681119 25.487308 2.718881 25.492085 2.756643 25.496854 2.794406 25.501615 2.832168 25.506367 2.869930 25.511110 2.907692 25.515843 2.945455 25.520565 2.983217 25.525277 3.020979 25.529978 3.058741 25.534668 3.096503 25.539345 3.134266 25.544010 3.172028 25.548661 3.209790 25.553300 3.247552 25.557924 3.285315 25.562534 3.323077 25.567129 3.360839 25.571708 3.398601 25.576272 3.436364 25.580820 3.474126 25.585351 3.511888 25.589864 3.549650 25.594360 3.587413 25.598838 3.625175 25.603298 3.662937 25.607738 3.700699 25.612159 3.738462 25.616559 3.776224 25.620940 3.813986 25.625299 3.851748 25.629637 3.889510 25.633953 3.927273 25.638247 3.965035 25.642518 4.002797 25.646766 4.040559 25.650990 4.078322 25.655190 4.116084 25.659366 4.153846 25.663516 4.191608 25.667641 4.229371 25.671739 4.267133 25.675812 4.304895 25.679857 4.342657 25.683875 4.380420 25.687865 4.418182 25.691826 4.455944 25.695759 4.493706 25.699663 4.531469 25.703536 4.569231 25.707380 4.606993 25.711193 4.644755 25.714975 4.682517 25.718725 4.720280 25.722443 4.758042 25.726129 4.795804 25.729781 4.833566 25.733401 4.871329 25.736986 4.909091 25.740537 4.946853 25.744053 4.984615 25.747533 5.022378 25.750978 5.060140 25.754387 5.097902 25.757759 5.135664 25.761094 5.173427 25.764391 5.211189 25.767650 5.248951 25.770870 5.286713 25.774052 5.324476 25.777194 5.362238 25.780296 5.400000 25.783357 5.437762 25.786378 5.475524 25.789357 5.513287 25.792295 5.551049 25.795190 5.588811 25.798042 5.626573 25.800851 5.664336 25.803617 5.702098 25.806338 5.739860 25.809015 5.777622 25.811647 5.815385 25.814233 5.853147 25.816773 5.890909 25.819267 5.928671 25.821714 5.966434 25.824113 6.004196 25.826465 6.041958 25.828768 6.079720 25.831022 6.117483 25.833227 6.155245 25.835383 6.193007 25.837488 6.230769 25.839543 6.268531 25.841546 6.306294 25.843498 6.344056 25.845398 6.381818 25.847245 6.419580 25.849039 6.457343 25.850780 6.495105 25.852467 6.532867 25.854100 6.570629 25.855678 6.608392 25.857200 6.646154 25.858667 6.683916 25.860078 6.721678 25.861432 6.759441 25.862728 6.797203 25.863967 6.834965 25.865148 6.872727 25.866271 6.910490 25.867334 6.948252 25.868338 6.986014 25.869282 7.023776 25.870166 7.061538 25.870988 7.099301 25.871750 7.137063 25.872449 7.174825 25.873087 7.212587 25.873661 7.250350 25.874173 7.288112 25.874620 7.325874 25.875004 7.363636 25.875323 7.401399 25.875577 7.439161 25.875765 7.476923 25.875888 7.514685 25.875944 7.552448 25.875933 7.590210 25.875854 7.627972 25.875708 7.665734 25.875494 7.703497 25.875211 7.741259 25.874858 7.779021 25.874436 7.816783 25.873944 7.854545 25.873381 7.892308 25.872747 7.930070 25.872041 7.967832 25.871263 8.005594 25.870413 8.043357 25.869490 8.081119 25.868494 8.118881 25.867423 8.156643 25.866279 8.194406 25.865059 8.232168 25.863764 8.269930 25.862394 8.307692 25.860947 8.345455 25.859423 8.383217 25.857823 8.420979 25.856145 8.458741 25.854388 8.496503 25.852554 8.534266 25.850640 8.572028 25.848647 8.609790 25.846573 8.647552 25.844420 8.685315 25.842185 8.723077 25.839870 8.760839 25.837472 8.798601 25.834992 8.836364 25.832430 8.874126 25.829784 8.911888 25.827055 8.949650 25.824242 8.987413 25.821344 9.025175 25.818361 9.062937 25.815292 9.100699 25.812138 9.138462 25.808897 9.176224 25.805569 9.213986 25.802154 9.251748 25.798651 9.289510 25.795059 9.327273 25.791379 9.365035 25.787610 9.402797 25.783751 9.440559 25.779802 9.478322 25.775762 9.516084 25.771632 9.553846 25.767409 9.591608 25.763095 9.629371 25.758688 9.667133 25.754188 9.704895 25.749595 9.742657 25.744908 9.780420 25.740127 9.818182 25.735251 9.855944 25.730279 9.893706 25.725212 9.931469 25.720049 9.969231 25.714789 10.006993 25.709432 10.044755 25.703977 10.082517 25.698425 10.120280 25.692774 10.158042 25.687023 10.195804 25.681174 10.233566 25.675224 10.271329 25.669174 10.309091 25.663024 10.346853 25.656772 10.384615 25.650418 10.422378 25.643962 10.460140 25.637403 10.497902 25.630741 10.535664 25.623976 10.573427 25.617106 10.611189 25.610132 10.648951 25.603053 10.686713 25.595868 10.724476 25.588577 10.762238 25.581180 10.800000 25.573676 10.837762 25.566065 10.875524 25.558346 10.913287 25.550519 10.951049 25.542583 10.988811 25.534538 11.026573 25.526383 11.064336 25.518118 11.102098 25.509742 11.139860 25.501255 11.177622 25.492657 11.215385 25.483947 11.253147 25.475124 11.290909 25.466189 11.328671 25.457140 11.366434 25.447977 11.404196 25.438700 11.441958 25.429308 11.479720 25.419801 11.517483 25.410178 11.555245 25.400439 11.593007 25.390584 11.630769 25.380613 11.668531 25.370526 11.706294 25.360323 11.744056 25.350005 11.781818 25.339571 11.819580 25.329021 11.857343 25.318355 11.895105 25.307574 11.932867 25.296678 11.970629 25.285666 12.008392 25.274539 12.046154 25.263297 12.083916 25.251940 12.121678 25.240468 12.159441 25.228881 12.197203 25.217180 12.234965 25.205363 12.272727 25.193432 12.310490 25.181386 12.348252 25.169225 12.386014 25.156950 12.423776 25.144561 12.461538 25.132058 12.499301 25.119440 12.537063 25.106708 12.574825 25.093862 12.612587 25.080902 12.650350 25.067828 12.688112 25.054641 12.725874 25.041339 12.763636 25.027924 12.801399 25.014396 12.839161 25.000753 12.876923 24.986998 12.914685 24.973129 12.952448 24.959147 12.990210 24.945051 13.027972 24.930843 13.065734 24.916521 13.103497 24.902087 13.141259 24.887539 13.179021 24.872879 13.216783 24.858106 13.254545 24.843220 13.292308 24.828222 13.330070 24.813111 13.367832 24.797888 13.405594 24.782553 13.443357 24.767105 13.481119 24.751545 13.518881 24.735873 13.556643 24.720089 13.594406 24.704193 13.632168 24.688185 13.669930 24.672066 13.707692 24.655834 13.745455 24.639491 13.783217 24.623037 13.820979 24.606471 13.858741 24.589793 13.896503 24.573004 13.934266 24.556104 13.972028 24.539093 14.009790 24.521971 14.047552 24.504738 14.085315 24.487394 14.123077 24.469939 14.160839 24.452373 14.198601 24.434696 14.236364 24.416909 14.274126 24.399011 14.311888 24.381003 14.349650 24.362885 14.387413 24.344656 14.425175 24.326317 14.462937 24.307868 14.500699 24.289308 14.538462 24.270639 14.576224 24.251860 14.613986 24.232971 14.651748 24.213972 14.689510 24.194864 14.727273 24.175646 14.765035 24.156318 14.802797 24.136881 14.840559 24.117335 14.878322 24.097679 14.916084 24.077914 14.953846 24.058040 14.991608 24.038057 15.029371 24.017965 15.067133 23.997764 15.104895 23.977454 15.142657 23.957036 15.180420 23.936509 15.218182 23.915873 15.255944 23.895128 15.293706 23.874276 15.331469 23.853315 15.369231 23.832245 15.406993 23.811068 15.444755 23.789782 15.482517 23.768389 15.520280 23.746887 15.558042 23.725277 15.595804 23.703560 15.633566 23.681735 15.671329 23.659802 15.709091 23.637762 15.746853 23.615614 15.784615 23.593359 15.822378 23.570997 15.860140 23.548527 15.897902 23.525950 15.935664 23.503266 15.973427 23.480475 16.011189 23.457577 16.048951 23.434572 16.086713 23.411460 16.124476 23.388242 16.162238 23.364917 16.200000 23.341485 16.237762 23.317947 16.275524 23.294303 16.313287 23.270552 16.351049 23.246695 16.388811 23.222732 16.426573 23.198663 16.464336 23.174487 16.502098 23.150206 16.539860 23.125819 16.577622 23.101326 16.615385 23.076728 16.653147 23.052024 16.690909 23.027214 16.728671 23.002299 16.766434 22.977279 16.804196 22.952153 16.841958 22.926922 16.879720 22.901586 16.917483 22.876145 16.955245 22.850598 16.993007 22.824947 17.030769 22.799191 17.068531 22.773331 17.106294 22.747365 17.144056 22.721295 17.181818 22.695121 17.219580 22.668842 17.257343 22.642459 17.295105 22.615971 17.332867 22.589379 17.370629 22.562683 17.408392 22.535883 17.446154 22.508979 17.483916 22.481972 17.521678 22.454860 17.559441 22.427645 17.597203 22.400325 17.634965 22.372903 17.672727 22.345377 17.710490 22.317747 17.748252 22.290014 17.786014 22.262178 17.823776 22.234239 17.861538 22.206196 17.899301 22.178051 17.937063 22.149802 17.974825 22.121451 18.012587 22.092997 18.050350 22.064440 18.088112 22.035780 18.125874 22.007018 18.163636 21.978154 18.201399 21.949187 18.239161 21.920117 18.276923 21.890946 18.314685 21.861672 18.352448 21.832296 18.390210 21.802818 18.427972 21.773239 18.465734 21.743557 18.503497 21.713774 18.541259 21.683888 18.579021 21.653902 18.616783 21.623813 18.654545 21.593624 18.692308 21.563332 18.730070 21.532940 18.767832 21.502446 18.805594 21.471851 18.843357 21.441155 18.881119 21.410358 18.918881 21.379461 18.956643 21.348462 18.994406 21.317362 19.032168 21.286162 19.069930 21.254861 19.107692 21.223460 19.145455 21.191958 19.183217 21.160356 19.220979 21.128654 19.258741 21.096851 19.296503 21.064948 19.334266 21.032945 19.372028 21.000842 19.409790 20.968640 19.447552 20.936337 19.485315 20.903935 19.523077 20.871433 19.560839 20.838831 19.598601 20.806130 19.636364 20.773329 19.674126 20.740429 19.711888 20.707430 19.749650 20.674332 19.787413 20.641134 19.825175 20.607838 19.862937 20.574442 19.900699 20.540948 19.938462 20.507354 19.976224 20.473662 20.013986 20.439872 20.051748 20.405982 20.089510 20.371995 20.127273 20.337909 20.165035 20.303724 20.202797 20.269441 20.240559 20.235060 20.278322 20.200581 20.316084 20.166004 20.353846 20.131329 20.391608 20.096556 20.429371 20.061686 20.467133 20.026717 20.504895 19.991651 20.542657 19.956487 20.580420 19.921226 20.618182 19.885868 20.655944 19.850412 20.693706 19.814859 20.731469 19.779209 20.769231 19.743461 20.806993 19.707617 20.844755 19.671676 20.882517 19.635637 20.920280 19.599503 20.958042 19.563271 20.995804 19.526943 21.033566 19.490518 21.071329 19.453997 21.109091 19.417380 21.146853 19.380666 21.184615 19.343857 21.222378 19.306953 21.260140 19.269952 21.297902 19.232856 21.335664 19.195665 21.373427 19.158379 21.411189 19.120998 21.448951 19.083522 21.486713 19.045952 21.524476 19.008287 21.562238 18.970527 21.600000 18.932674 21.637762 18.894726 21.675524 18.856685 21.713287 18.818550 21.751049 18.780321 21.788811 18.741999 21.826573 18.703583 21.864336 18.665074 21.902098 18.626473 21.939860 18.587778 21.977622 18.548991 22.015385 18.510112 22.053147 18.471140 22.090909 18.432075 22.128671 18.392919 22.166434 18.353671 22.204196 18.314331 22.241958 18.274899 22.279720 18.235376 22.317483 18.195762 22.355245 18.156056 22.393007 18.116260 22.430769 18.076373 22.468531 18.036395 22.506294 17.996326 22.544056 17.956167 22.581818 17.915918 22.619580 17.875578 22.657343 17.835149 22.695105 17.794630 22.732867 17.754022 22.770629 17.713323 22.808392 17.672536 22.846154 17.631659 22.883916 17.590694 22.921678 17.549639 22.959441 17.508496 22.997203 17.467264 23.034965 17.425944 23.072727 17.384535 23.110490 17.343038 23.148252 17.301454 23.186014 17.259781 23.223776 17.218021 23.261538 17.176174 23.299301 17.134239 23.337063 17.092216 23.374825 17.050107 23.412587 17.007911 23.450350 16.965628 23.488112 16.923259 23.525874 16.880803 23.563636 16.838261 23.601399 16.795632 23.639161 16.752918 23.676923 16.710118 23.714685 16.667232 23.752448 16.624261 23.790210 16.581204 23.827972 16.538062 23.865734 16.494835 23.903497 16.451523 23.941259 16.408126 23.979021 16.364645 24.016783 16.321079 24.054545 16.277429 24.092308 16.233695 24.130070 16.189876 24.167832 16.145974 24.205594 16.101988 24.243357 16.057919 24.281119 16.013766 24.318881 15.969530 24.356643 15.925210 24.394406 15.880808 24.432168 15.836323 24.469930 15.791756 24.507692 15.747106 24.545455 15.702373 24.583217 15.657558 24.620979 15.612662 24.658741 15.567683 24.696503 15.522623 24.734266 15.477481 24.772028 15.432258 24.809790 15.386953 24.847552 15.341567 24.885315 15.296101 24.923077 15.250553 24.960839 15.204925 24.998601 15.159216 25.036364 15.113427 25.074126 15.067558 25.111888 15.021609 25.149650 14.975579 25.187413 14.929470 25.225175 14.883282 25.262937 14.837014 25.300699 14.790666 25.338462 14.744240 25.376224 14.697734 25.413986 14.651150 25.451748 14.604487 25.489510 14.557745 25.527273 14.510925 25.565035 14.464027 25.602797 14.417050 25.640559 14.369996 25.678322 14.322864 25.716084 14.275654 25.753846 14.228367 25.791608 14.181003 25.829371 14.133561 25.867133 14.086042 25.904895 14.038447 25.942657 13.990775 25.980420 13.943026 26.018182 13.895200 26.055944 13.847299 26.093706 13.799321 26.131469 13.751268 26.169231 13.703138 26.206993 13.654933 26.244755 13.606652 26.282517 13.558297 26.320280 13.509865 26.358042 13.461359 26.395804 13.412778 26.433566 13.364122 26.471329 13.315392 26.509091 13.266587 26.546853 13.217708 26.584615 13.168754 26.622378 13.119727 26.660140 13.070626 26.697902 13.021451 26.735664 12.972203 26.773427 12.922881 26.811189 12.873486 26.848951 12.824018 26.886713 12.774477 26.924476 12.724864 26.962238 12.675177 27.000000 12.625419 27.037762 12.575587 27.075524 12.525684 27.113287 12.475709 27.151049 12.425662 27.188811 12.375543 27.226573 12.325353 27.264336 12.275091 27.302098 12.224758 27.339860 12.174354 27.377622 12.123878 27.415385 12.073333 27.453147 12.022716 27.490909 11.972029 27.528671 11.921272 27.566434 11.870444 27.604196 11.819547 27.641958 11.768579 27.679720 11.717542 27.717483 11.666435 27.755245 11.615259 27.793007 11.564013 27.830769 11.512699 27.868531 11.461315 27.906294 11.409863 27.944056 11.358342 27.981818 11.306752 28.019580 11.255094 28.057343 11.203368 28.095105 11.151574 28.132867 11.099712 28.170629 11.047782 28.208392 10.995784 28.246154 10.943719 28.283916 10.891587 28.321678 10.839388 28.359441 10.787121 28.397203 10.734788 28.434965 10.682388 28.472727 10.629922 28.510490 10.577389 28.548252 10.524790 28.586014 10.472124 28.623776 10.419393 28.661538 10.366596 28.699301 10.313734 28.737063 10.260806 28.774825 10.207813 28.812587 10.154754 28.850350 10.101630 28.888112 10.048442 28.925874 9.995189 28.963636 9.941871 29.001399 9.888489 29.039161 9.835043 29.076923 9.781532 29.114685 9.727958 29.152448 9.674320 29.190210 9.620618 29.227972 9.566852 29.265734 9.513024 29.303497 9.459132 29.341259 9.405177 29.379021 9.351159 29.416783 9.297078 29.454545 9.242935 29.492308 9.188729 29.530070 9.134461 29.567832 9.080131 29.605594 9.025739 29.643357 8.971285 29.681119 8.916770 29.718881 8.862193 29.756643 8.807554 29.794406 8.752854 29.832168 8.698094 29.869930 8.643272 29.907692 8.588389 29.945455 8.533446 29.983217 8.478443 30.020979 8.423379 30.058741 8.368255 30.096503 8.313071 30.134266 8.257827 30.172028 8.202523 30.209790 8.147160 30.247552 8.091738 30.285315 8.036256 30.323077 7.980715 30.360839 7.925115 30.398601 7.869456 30.436364 7.813740 30.474126 7.757968 30.511888 7.702146 30.549650 7.646276 30.587413 7.590363 30.625175 7.534410 30.662937 7.478421 30.700699 7.422401 30.738462 7.366352 30.776224 7.310279 30.813986 7.254185 30.851748 7.198074 30.889510 7.141951 30.927273 7.085818 30.965035 7.029680 31.002797 6.973540 31.040559 6.917403 31.078322 6.861271 31.116084 6.805149 31.153846 6.749041 31.191608 6.692951 31.229371 6.636882 31.267133 6.580837 31.304895 6.524822 31.342657 6.468839 31.380420 6.412893 31.418182 6.356987 31.455944 6.301125 31.493706 6.245311 31.531469 6.189549 31.569231 6.133842 31.606993 6.078195 31.644755 6.022610 31.682517 5.967093 31.720280 5.911646 31.758042 5.856274 31.795804 5.800980 31.833566 5.745768 31.871329 5.690642 31.909091 5.635606 31.946853 5.580664 31.984615 5.525818 32.022378 5.471074 32.060140 5.416435 32.097902 5.361905 32.135664 5.307487 32.173427 5.253185 32.211189 5.199004 32.248951 5.144947 32.286713 5.091017 32.324476 5.037219 32.362238 4.983557 32.400000 4.930033 32.437762 4.876653 32.475524 4.823419 32.513287 4.770337 32.551049 4.717408 32.588811 4.664638 32.626573 4.612029 32.664336 4.559587 32.702098 4.507314 32.739860 4.455215 32.777622 4.403292 32.815385 4.351551 32.853147 4.299995 32.890909 4.248627 32.928671 4.197452 32.966434 4.146473 33.004196 4.095694 33.041958 4.045120 33.079720 3.994752 33.117483 3.944596 33.155245 3.894656 33.193007 3.844934 33.230769 3.795436 33.268531 3.746164 33.306294 3.697123 33.344056 3.648316 33.381818 3.599747 33.419580 3.551420 33.457343 3.503338 33.495105 3.455507 33.532867 3.407928 33.570629 3.360607 33.608392 3.313547 33.646154 3.266751 33.683916 3.220224 33.721678 3.173969 33.759441 3.127991 33.797203 3.082292 33.834965 3.036877 33.872727 2.991750 33.910490 2.946914 33.948252 2.902373 33.986014 2.858132 34.023776 2.814193 34.061538 2.770560 34.099301 2.727239 34.137063 2.684231 34.174825 2.641541 34.212587 2.599173 34.250350 2.557131 34.288112 2.515418 34.325874 2.474038 34.363636 2.432996 34.401399 2.392294 34.439161 2.351937 34.476923 2.311928 34.514685 2.272272 34.552448 2.232971 34.590210 2.194031 34.627972 2.155454 34.665734 2.117244 34.703497 2.079406 34.741259 2.041943 34.779021 2.004859 34.816783 1.968157 34.854545 1.931842 34.892308 1.895918 34.930070 1.860387 34.967832 1.825254 35.005594 1.790523 35.043357 1.756198 35.081119 1.722281 35.118881 1.688778 35.156643 1.655692 35.194406 1.623027 35.232168 1.590786 35.269930 1.558973 35.307692 1.527593 35.345455 1.496649 35.383217 1.466144 35.420979 1.436083 35.458741 1.406469 35.496503 1.377306 35.534266 1.348599 35.572028 1.320350 35.609790 1.292563 35.647552 1.265243 35.685315 1.238394 35.723077 1.212018 35.760839 1.186120 35.798601 1.160704 35.836364 1.135773 35.874126 1.111331 35.911888 1.087382 35.949650 1.063930 35.987413 1.040979 36.025175 1.018532 36.062937 0.996594 36.100699 0.975167 36.138462 0.954256 36.176224 0.933865 36.213986 0.913998 36.251748 0.894657 36.289510 0.875848 36.327273 0.857574 36.365035 0.839838 36.402797 0.822645 36.440559 0.805998 36.478322 0.789901 36.516084 0.774358 36.553846 0.759372 36.591608 0.744948 36.629371 0.731090 36.667133 0.717800 36.704895 0.705084 36.742657 0.692944 36.780420 0.681385 36.818182 0.670410 36.855944 0.660023 36.893706 0.650228 36.931469 0.641029 36.969231 0.632429 37.006993 0.624433 37.044755 0.617044 37.082517 0.610265 37.120280 0.604102 37.158042 0.598557 37.195804 0.593635 37.233566 0.589338 37.271329 0.585672 37.309091 0.582639 37.346853 0.580244 37.384615 0.578491 37.422378 0.577382 37.460140 0.576923 37.497902 0.577116 37.535664 0.577967 37.573427 0.579477 37.611189 0.581652 37.648951 0.584494 37.686713 0.588009 37.724476 0.592199 37.762238 0.597069 37.800000 0.602621 37.837762 0.608861 37.875524 0.615792 37.913287 0.623417 37.951049 0.631741 37.988811 0.640767 38.026573 0.650499 38.064336 0.660942 38.102098 0.672097 38.139860 0.683970 38.177622 0.696565 38.215385 0.709885 38.253147 0.723933 38.290909 0.738714 38.328671 0.754232 38.366434 0.770490 38.404196 0.787492 38.441958 0.805242 38.479720 0.823744 38.517483 0.843001 38.555245 0.863018 38.593007 0.883797 38.630769 0.905344 38.668531 0.927661 38.706294 0.950753 38.744056 0.974624 38.781818 0.999276 38.819580 1.024715 38.857343 1.050943 38.895105 1.077965 38.932867 1.105784 38.970629 1.134404 39.008392 1.163830 39.046154 1.194064 39.083916 1.225111 39.121678 1.256974 39.159441 1.289657 39.197203 1.323164 39.234965 1.357500 39.272727 1.392666 39.310490 1.428669 39.348252 1.465510 39.386014 1.503194 39.423776 1.541726 39.461538 1.581108 39.499301 1.621344 39.537063 1.662439 39.574825 1.704395 39.612587 1.747218 39.650350 1.790910 39.688112 1.835476 39.725874 1.880919 39.763636 1.927243 39.801399 1.974452 39.839161 2.022549 39.876923 2.071538 39.914685 2.121412 39.952448 2.172166 39.990210 2.223794 40.027972 2.276288 40.065734 2.329643 40.103497 2.383852 40.141259 2.438909 40.179021 2.494808 40.216783 2.551541 40.254545 2.609103 40.292308 2.667487 40.330070 2.726687 40.367832 2.786696 40.405594 2.847509 40.443357 2.909118 40.481119 2.971517 40.518881 3.034700 40.556643 3.098661 40.594406 3.163393 40.632168 3.228889 40.669930 3.295144 40.707692 3.362151 40.745455 3.429903 40.783217 3.498394 40.820979 3.567618 40.858741 3.637569 40.896503 3.708239 40.934266 3.779624 40.972028 3.851715 41.009790 3.924507 41.047552 3.997994 41.085315 4.072168 41.123077 4.147024 41.160839 4.222556 41.198601 4.298756 41.236364 4.375619 41.274126 4.453138 41.311888 4.531307 41.349650 4.610119 41.387413 4.689568 41.425175 4.769647 41.462937 4.850351 41.500699 4.931672 41.538462 5.013605 41.576224 5.096142 41.613986 5.179278 41.651748 5.263007 41.689510 5.347321 41.727273 5.432215 41.765035 5.517682 41.802797 5.603715 41.840559 5.690308 41.878322 5.777456 41.916084 5.865151 41.953846 5.953387 41.991608 6.042158 42.029371 6.131457 42.067133 6.221278 42.104895 6.311614 42.142657 6.402460 42.180420 6.493808 42.218182 6.585653 42.255944 6.677987 42.293706 6.770806 42.331469 6.864101 42.369231 6.957868 42.406993 7.052098 42.444755 7.146787 42.482517 7.241927 42.520280 7.337513 42.558042 7.433537 42.595804 7.529994 42.633566 7.626877 42.671329 7.724180 42.709091 7.821896 42.746853 7.920019 42.784615 8.018542 42.822378 8.117460 42.860140 8.216765 42.897902 8.316452 42.935664 8.416514 42.973427 8.516944 43.011189 8.617736 43.048951 8.718884 43.086713 8.820382 43.124476 8.922223 43.162238 9.024400 43.200000 9.126907 43.237762 9.229739 43.275524 9.332888 43.313287 9.436347 43.351049 9.540112 43.388811 9.644175 43.426573 9.748530 43.464336 9.853170 43.502098 9.958089 43.539860 10.063282 43.577622 10.168740 43.615385 10.274459 43.653147 10.380431 43.690909 10.486650 43.728671 10.593110 43.766434 10.699804 43.804196 10.806727 43.841958 10.913871 43.879720 11.021230 43.917483 11.128798 43.955245 11.236569 43.993007 11.344536 44.030769 11.452692 44.068531 11.561032 44.106294 11.669548 44.144056 11.778235 44.181818 11.887087 44.219580 11.996096 44.257343 12.105256 44.295105 12.214561 44.332867 12.324005 44.370629 12.433581 44.408392 12.543283 44.446154 12.653104 44.483916 12.763038 44.521678 12.873079 44.559441 12.983220 44.597203 13.093455 44.634965 13.203777 44.672727 13.314180 44.710490 13.424659 44.748252 13.535205 44.786014 13.645813 44.823776 13.756477 44.861538 13.867190 44.899301 13.977945 44.937063 14.088737 44.974825 14.199559 45.012587 14.310405 45.050350 14.421267 45.088112 14.532141 45.125874 14.643019 45.163636 14.753894 45.201399 14.864762 45.239161 14.975614 45.276923 15.086446 45.314685 15.197250 45.352448 15.308020 45.390210 15.418750 45.427972 15.529432 45.465734 15.640062 45.503497 15.750633 45.541259 15.861137 45.579021 15.971569 45.616783 16.081923 45.654545 16.192191 45.692308 16.302368 45.730070 16.412447 45.767832 16.522422 45.805594 16.632287 45.843357 16.742034 45.881119 16.851658 45.918881 16.961152 45.956643 17.070510 45.994406 17.179726 46.032168 17.288792 46.069930 17.397703 46.107692 17.506453 46.145455 17.615034 46.183217 17.723441 46.220979 17.831667 46.258741 17.939705 46.296503 18.047550 46.334266 18.155195 46.372028 18.262634 46.409790 18.369859 46.447552 18.476866 46.485315 18.583647 46.523077 18.690195 46.560839 18.796506 46.598601 18.902571 46.636364 19.008386 46.674126 19.113943 46.711888 19.219236 46.749650 19.324258 46.787413 19.429004 46.825175 19.533467 46.862937 19.637640 46.900699 19.741517 46.938462 19.845092 46.976224 19.948359 47.013986 20.051310 47.051748 20.153940 47.089510 20.256242 47.127273 20.358209 47.165035 20.459837 47.202797 20.561117 47.240559 20.662043 47.278322 20.762610 47.316084 20.862811 47.353846 20.962639 47.391608 21.062088 47.429371 21.161152 47.467133 21.259825 47.504895 21.358099 47.542657 21.455968 47.580420 21.553427 47.618182 21.650468 47.655944 21.747086 47.693706 21.843273 47.731469 21.939024 47.769231 22.034332 47.806993 22.129191 47.844755 22.223595 47.882517 22.317536 47.920280 22.411009 47.958042 22.504007 47.995804 22.596524 48.033566 22.688554 48.071329 22.780089 48.109091 22.871124 48.146853 22.961653 48.184615 23.051668 48.222378 23.141163 48.260140 23.230133 48.297902 23.318571 48.335664 23.406470 48.373427 23.493823 48.411189 23.580626 48.448951 23.666870 48.486713 23.752550 48.524476 23.837660 48.562238 23.922192 48.600000 24.006141 48.637762 24.089501 48.675524 24.172264 48.713287 24.254424 48.751049 24.335976 48.788811 24.416912 48.826573 24.497226 48.864336 24.576913 48.902098 24.655965 48.939860 24.734375 48.977622 24.812139 49.015385 24.889249 49.053147 24.965699 49.090909 25.041482 49.128671 25.116593 49.166434 25.191024 49.204196 25.264769 49.241958 25.337823 49.279720 25.410178 49.317483 25.481830 49.355245 25.552778 49.393007 25.623025 49.430769 25.692571 49.468531 25.761419 49.506294 25.829570 49.544056 25.897025 49.581818 25.963787 49.619580 26.029855 49.657343 26.095233 49.695105 26.159922 49.732867 26.223923 49.770629 26.287237 49.808392 26.349867 49.846154 26.411814 49.883916 26.473079 49.921678 26.533664 49.959441 26.593570 49.997203 26.652800 50.034965 26.711354 50.072727 26.769234 50.110490 26.826441 50.148252 26.882978 50.186014 26.938846 50.223776 26.994046 50.261538 27.048579 50.299301 27.102449 50.337063 27.155655 50.374825 27.208199 50.412587 27.260084 50.450350 27.311310 50.488112 27.361879 50.525874 27.411793 50.563636 27.461053 50.601399 27.509660 50.639161 27.557617 50.676923 27.604925 50.714685 27.651585 50.752448 27.697599 50.790210 27.742969 50.827972 27.787696 50.865734 27.831781 50.903497 27.875226 50.941259 27.918033 50.979021 27.960203 51.016783 28.001738 51.054545 28.042639 51.092308 28.082908 51.130070 28.122546 51.167832 28.161555 51.205594 28.199937 51.243357 28.237692 51.281119 28.274824 51.318881 28.311332 51.356643 28.347219 51.394406 28.382486 51.432168 28.417135 51.469930 28.451167 51.507692 28.484584 51.545455 28.517387 51.583217 28.549578 51.620979 28.581159 51.658741 28.612131 51.696503 28.642495 51.734266 28.672253 51.772028 28.701407 51.809790 28.729958 51.847552 28.757908 51.885315 28.785258 51.923077 28.812010 51.960839 28.838166 51.998601 28.863726 52.036364 28.888693 52.074126 28.913067 52.111888 28.936852 52.149650 28.960047 52.187413 28.982655 52.225175 29.004677 52.262937 29.026115 52.300699 29.046970 52.338462 29.067244 52.376224 29.086939 52.413986 29.106055 52.451748 29.124594 52.489510 29.142559 52.527273 29.159950 52.565035 29.176770 52.602797 29.193019 52.640559 29.208699 52.678322 29.223812 52.716084 29.238359 52.753846 29.252342 52.791608 29.265762 52.829371 29.278622 52.867133 29.290921 52.904895 29.302663 52.942657 29.313848 52.980420 29.324479 53.018182 29.334555 53.055944 29.344081 53.093706 29.353056 53.131469 29.361482 53.169231 29.369361 53.206993 29.376694 53.244755 29.383483 53.282517 29.389730 53.320280 29.395435 53.358042 29.400602 53.395804 29.405230 53.433566 29.409322 53.471329 29.412879 53.509091 29.415903 53.546853 29.418395 53.584615 29.420357 53.622378 29.421790 53.660140 29.422696 53.697902 29.423077 53.735664 29.422934 53.773427 29.422268 53.811189 29.421081 53.848951 29.419375 53.886713 29.417151 53.924476 29.414411 53.962238 29.411156 54.000000 29.407388 54.037762 29.403108 54.075524 29.398318 54.113287 29.393019 54.151049 29.387214 54.188811 29.380903 54.226573 29.374088 54.264336 29.366771 54.302098 29.358953 54.339860 29.350636 54.377622 29.341821 54.415385 29.332509 54.453147 29.322704 54.490909 29.312405 54.528671 29.301614 54.566434 29.290334 54.604196 29.278565 54.641958 29.266309 54.679720 29.253567 54.717483 29.240342 54.755245 29.226635 54.793007 29.212447 54.830769 29.197779 54.868531 29.182634 54.906294 29.167013 54.944056 29.150918 54.981818 29.134349 55.019580 29.117309 55.057343 29.099799 55.095105 29.081821 55.132867 29.063375 55.170629 29.044465 55.208392 29.025091 55.246154 29.005254 55.283916 28.984957 55.321678 28.964201 55.359441 28.942987 55.397203 28.921317 55.434965 28.899193 55.472727 28.876616 55.510490 28.853587 55.548252 28.830109 55.586014 28.806182 55.623776 28.781809 55.661538 28.756990 55.699301 28.731728 55.737063 28.706024 55.774825 28.679879 55.812587 28.653295 55.850350 28.626274 55.888112 28.598816 55.925874 28.570925 55.963636 28.542600 56.001399 28.513844 56.039161 28.484659 56.076923 28.455045 56.114685 28.425005 56.152448 28.394539 56.190210 28.363650 56.227972 28.332339 56.265734 28.300608 56.303497 28.268457 56.341259 28.235889 56.379021 28.202906 56.416783 28.169508 56.454545 28.135697 56.492308 28.101475 56.530070 28.066844 56.567832 28.031804 56.605594 27.996358 56.643357 27.960507 56.681119 27.924252 56.718881 27.887595 56.756643 27.850538 56.794406 27.813082 56.832168 27.775229 56.869930 27.736980 56.907692 27.698337 56.945455 27.659301 56.983217 27.619875 57.020979 27.580058 57.058741 27.539854 57.096503 27.499263 57.134266 27.458287 57.172028 27.416928 57.209790 27.375187 57.247552 27.333065 57.285315 27.290565 57.323077 27.247688 57.360839 27.204435 57.398601 27.160808 57.436364 27.116808 57.474126 27.072438 57.511888 27.027698 57.549650 26.982590 57.587413 26.937115 57.625175 26.891276 57.662937 26.845073 57.700699 26.798509 57.738462 26.751584 57.776224 26.704301 57.813986 26.656661 57.851748 26.608665 57.889510 26.560315 57.927273 26.511613 57.965035 26.462560 58.002797 26.413157 58.040559 26.363406 58.078322 26.313310 58.116084 26.262868 58.153846 26.212083 58.191608 26.160957 58.229371 26.109490 58.267133 26.057685 58.304895 26.005543 58.342657 25.953065 58.380420 25.900254 58.418182 25.847110 58.455944 25.793635 58.493706 25.739831 58.531469 25.685699 58.569231 25.631241 58.606993 25.576459 58.644755 25.521353 58.682517 25.465925 58.720280 25.410178 58.758042 25.354113 58.795804 25.297734 58.833566 25.241045 58.871329 25.184053 58.909091 25.126761 58.946853 25.069173 58.984615 25.011296 59.022378 24.953133 59.060140 24.894688 59.097902 24.835968 59.135664 24.776976 59.173427 24.717718 59.211189 24.658197 59.248951 24.598419 59.286713 24.538389 59.324476 24.478110 59.362238 24.417588 59.400000 24.356827 59.437762 24.295833 59.475524 24.234609 59.513287 24.173160 59.551049 24.111492 59.588811 24.049609 59.626573 23.987516 59.664336 23.925216 59.702098 23.862716 59.739860 23.800019 59.777622 23.737131 59.815385 23.674056 59.853147 23.610798 59.890909 23.547363 59.928671 23.483755 59.966434 23.419979 60.004196 23.356040 60.041958 23.291942 60.079720 23.227690 60.117483 23.163288 60.155245 23.098742 60.193007 23.034056 60.230769 22.969235 60.268531 22.904283 60.306294 22.839205 60.344056 22.774006 60.381818 22.708691 60.419580 22.643264 60.457343 22.577730 60.495105 22.512093 60.532867 22.446359 60.570629 22.380532 60.608392 22.314617 60.646154 22.248618 60.683916 22.182540 60.721678 22.116388 60.759441 22.050167 60.797203 21.983881 60.834965 21.917535 60.872727 21.851133 60.910490 21.784681 60.948252 21.718182 60.986014 21.651643 61.023776 21.585067 61.061538 21.518459 61.099301 21.451824 61.137063 21.385166 61.174825 21.318491 61.212587 21.251802 61.250350 21.185105 61.288112 21.118405 61.325874 21.051705 61.363636 20.985012 61.401399 20.918328 61.439161 20.851660 61.476923 20.785011 61.514685 20.718387 61.552448 20.651792 61.590210 20.585232 61.627972 20.518709 61.665734 20.452230 61.703497 20.385799 61.741259 20.319421 61.779021 20.253100 61.816783 20.186841 61.854545 20.120649 61.892308 20.054528 61.930070 19.988484 61.967832 19.922521 62.005594 19.856643 62.043357 19.790855 62.081119 19.725162 62.118881 19.659569 62.156643 19.594081 62.194406 19.528701 62.232168 19.463435 62.269930 19.398288 62.307692 19.333264 62.345455 19.268368 62.383217 19.203604 62.420979 19.138978 62.458741 19.074493 62.496503 19.010155 62.534266 18.945969 62.572028 18.881939 62.609790 18.818069 62.647552 18.754365 62.685315 18.690831 62.723077 18.627472 62.760839 18.564292 62.798601 18.501297 62.836364 18.438490 62.874126 18.375877 62.911888 18.313463 62.949650 18.251252 62.987413 18.189248 63.025175 18.127457 63.062937 18.065883 63.100699 18.004530 63.138462 17.943405 63.176224 17.882510 63.213986 17.821852 63.251748 17.761434 63.289510 17.701261 63.327273 17.641339 63.365035 17.581671 63.402797 17.522262 63.440559 17.463118 63.478322 17.404243 63.516084 17.345641 63.553846 17.287317 63.591608 17.229276 63.629371 17.171523 63.667133 17.114062 63.704895 17.056898 63.742657 17.000036 63.780420 16.943480 63.818182 16.887236 63.855944 16.831307 63.893706 16.775698 63.931469 16.720415 63.969231 16.665462 64.006993 16.610843 64.044755 16.556564 64.082517 16.502629 64.120280 16.449042 64.158042 16.395809 64.195804 16.342933 64.233566 16.290421 64.271329 16.238276 64.309091 16.186503 64.346853 16.135107 64.384615 16.084093 64.422378 16.033465 64.460140 15.983228 64.497902 15.933387 64.535664 15.883946 64.573427 15.834910 64.611189 15.786284 64.648951 15.738072 64.686713 15.690280 64.724476 15.642911 64.762238 15.595971 64.800000 15.549464 64.837762 15.503395 64.875524 15.457769 64.913287 15.412590 64.951049 15.367864 64.988811 15.323594 65.026573 15.279785 65.064336 15.236443 65.102098 15.193571 65.139860 15.151175 65.177622 15.109259 65.215385 15.067828 65.253147 15.026887 65.290909 14.986441 65.328671 14.946493 65.366434 14.907049 65.404196 14.868113 65.441958 14.829691 65.479720 14.791786 65.517483 14.754404 65.555245 14.717549 65.593007 14.681226 65.630769 14.645440 65.668531 14.610195 65.706294 14.575496 65.744056 14.541348 65.781818 14.507755 65.819580 14.474722 65.857343 14.442254 65.895105 14.410356 65.932867 14.379032 65.970629 14.348287 66.008392 14.318125 66.046154 14.288552 66.083916 14.259571 66.121678 14.231189 66.159441 14.203409 66.197203 14.176235 66.234965 14.149674 66.272727 14.123729 66.310490 14.098406 66.348252 14.073708 66.386014 14.049641 66.423776 14.026209 66.461538 14.003418 66.499301 13.981270 66.537063 13.959773 66.574825 13.938929 66.612587 13.918744 66.650350 13.899223 66.688112 13.880370 66.725874 13.862189 66.763636 13.844687 66.801399 13.827866 66.839161 13.811733 66.876923 13.796291 66.914685 13.781546 66.952448 13.767501 66.990210 13.754163 67.027972 13.741535 67.065734 13.729622 67.103497 13.718429 67.141259 13.707960 67.179021 13.698221 67.216783 13.689216 67.254545 13.680949 67.292308 13.673426 67.330070 13.666651 67.367832 13.660628 67.405594 13.655363 67.443357 13.650860 67.481119 13.647124 67.518881 13.644160 67.556643 13.641972 67.594406 13.640564 67.632168 13.639943 67.669930 13.640111 67.707692 13.641075 67.745455 13.642839 67.783217 13.645407 67.820979 13.648784 67.858741 13.652975 67.896503 13.657984 67.934266 13.663817 67.972028 13.670477 68.009790 13.677971 68.047552 13.686301 68.085315 13.695474 68.123077 13.705493 68.160839 13.716364 68.198601 13.728089 68.236364 13.740663 68.274126 13.754079 68.311888 13.768331 68.349650 13.783412 68.387413 13.799315 68.425175 13.816032 68.462937 13.833557 68.500699 13.851884 68.538462 13.871005 68.576224 13.890913 68.613986 13.911602 68.651748 13.933065 68.689510 13.955294 68.727273 13.978284 68.765035 14.002027 68.802797 14.026515 68.840559 14.051744 68.878322 14.077704 68.916084 14.104391 68.953846 14.131796 68.991608 14.159913 69.029371 14.188735 69.067133 14.218255 69.104895 14.248466 69.142657 14.279362 69.180420 14.310936 69.218182 14.343180 69.255944 14.376088 69.293706 14.409653 69.331469 14.443868 69.369231 14.478726 69.406993 14.514221 69.444755 14.550345 69.482517 14.587092 69.520280 14.624454 69.558042 14.662425 69.595804 14.700999 69.633566 14.740167 69.671329 14.779924 69.709091 14.820262 69.746853 14.861175 69.784615 14.902656 69.822378 14.944697 69.860140 14.987292 69.897902 15.030434 69.935664 15.074117 69.973427 15.118333 70.011189 15.163075 70.048951 15.208337 70.086713 15.254112 70.124476 15.300392 70.162238 15.347172 70.200000 15.394443 70.237762 15.442200 70.275524 15.490435 70.313287 15.539142 70.351049 15.588314 70.388811 15.637943 70.426573 15.688023 70.464336 15.738548 70.502098 15.789509 70.539860 15.840901 70.577622 15.892716 70.615385 15.944948 70.653147 15.997590 70.690909 16.050634 70.728671 16.104075 70.766434 16.157904 70.804196 16.212116 70.841958 16.266704 70.879720 16.321659 70.917483 16.376977 70.955245 16.432649 70.993007 16.488669 71.030769 16.545030 71.068531 16.601725 71.106294 16.658748 71.144056 16.716091 71.181818 16.773748 71.219580 16.831711 71.257343 16.889974 71.295105 16.948531 71.332867 17.007373 71.370629 17.066494 71.408392 17.125888 71.446154 17.185548 71.483916 17.245466 71.521678 17.305636 71.559441 17.366050 71.597203 17.426703 71.634965 17.487587 71.672727 17.548695 71.710490 17.610021 71.748252 17.671557 71.786014 17.733297 71.823776 17.795234 71.861538 17.857360 71.899301 17.919670 71.937063 17.982156 71.974825 18.044811 72.012587 18.107629 72.050350 18.170603 72.088112 18.233725 72.125874 18.296989 72.163636 18.360388 72.201399 18.423916 72.239161 18.487564 72.276923 18.551327 72.314685 18.615198 72.352448 18.679169 72.390210 18.743234 72.427972 18.807386 72.465734 18.871618 72.503497 18.935923 72.541259 19.000295 72.579021 19.064726 72.616783 19.129210 72.654545 19.193739 72.692308 19.258308 72.730070 19.322908 72.767832 19.387533 72.805594 19.452177 72.843357 19.516832 72.881119 19.581492 72.918881 19.646149 72.956643 19.710798 72.994406 19.775430 73.032168 19.840039 73.069930 19.904618 73.107692 19.969161 73.145455 20.033660 73.183217 20.098109 73.220979 20.162500 73.258741 20.226827 73.296503 20.291084 73.334266 20.355262 73.372028 20.419356 73.409790 20.483358 73.447552 20.547261 73.485315 20.611060 73.523077 20.674746 73.560839 20.738313 73.598601 20.801754 73.636364 20.865062 73.674126 20.928230 73.711888 20.991252 73.749650 21.054121 73.787413 21.116829 73.825175 21.179370 73.862937 21.241737 73.900699 21.303923 73.938462 21.365922 73.976224 21.427726 74.013986 21.489328 74.051748 21.550722 74.089510 21.611901 74.127273 21.672857 74.165035 21.733585 74.202797 21.794077 74.240559 21.854326 74.278322 21.914325 74.316084 21.974069 74.353846 22.033548 74.391608 22.092758 74.429371 22.151691 74.467133 22.210339 74.504895 22.268697 74.542657 22.326758 74.580420 22.384513 74.618182 22.441958 74.655944 22.499084 74.693706 22.555885 74.731469 22.612354 74.769231 22.668484 74.806993 22.724269 74.844755 22.779701 74.882517 22.834773 74.920280 22.889480 74.958042 22.943813 74.995804 22.997765 75.033566 23.051332 75.071329 23.104504 75.109091 23.157275 75.146853 23.209639 75.184615 23.261589 75.222378 23.313118 75.260140 23.364218 75.297902 23.414883 75.335664 23.465107 75.373427 23.514881 75.411189 23.564200 75.448951 23.613057 75.486713 23.661444 75.524476 23.709356 75.562238 23.756784 75.600000 23.803722 75.637762 23.850163 75.675524 23.896101 75.713287 23.941528 75.751049 23.986438 75.788811 24.030823 75.826573 24.074678 75.864336 24.117994 75.902098 24.160765 75.939860 24.202985 75.977622 24.244646 76.015385 24.285742 76.053147 24.326265 76.090909 24.366209 76.128671 24.405567 76.166434 24.444332 76.204196 24.482497 76.241958 24.520056 76.279720 24.557001 76.317483 24.593325 76.355245 24.629023 76.393007 24.664086 76.430769 24.698508 76.468531 24.732282 76.506294 24.765402 76.544056 24.797860 76.581818 24.829649 76.619580 24.860763 76.657343 24.891195 76.695105 24.920937 76.732867 24.949984 76.770629 24.978328 76.808392 25.005962 76.846154 25.032880 76.883916 25.059074 76.921678 25.084538 76.959441 25.109265 76.997203 25.133247 77.034965 25.156479 77.072727 25.178953 77.110490 25.200663 77.148252 25.221601 77.186014 25.241760 77.223776 25.261134 77.261538 25.279717 77.299301 25.297500 77.337063 25.314477 77.374825 25.330642 77.412587 25.345987 77.450350 25.360505 77.488112 25.374191 77.525874 25.387036 77.563636 25.399034 77.601399 25.410178 77.639161 25.420463 77.676923 25.429893 77.714685 25.438471 77.752448 25.446203 77.790210 25.453093 77.827972 25.459147 77.865734 25.464368 77.903497 25.468763 77.941259 25.472335 77.979021 25.475090 78.016783 25.477032 78.054545 25.478166 78.092308 25.478497 78.130070 25.478030 78.167832 25.476770 78.205594 25.474720 78.243357 25.471887 78.281119 25.468275 78.318881 25.463889 78.356643 25.458734 78.394406 25.452813 78.432168 25.446133 78.469930 25.438699 78.507692 25.430513 78.545455 25.421583 78.583217 25.411912 78.620979 25.401506 78.658741 25.390368 78.696503 25.378504 78.734266 25.365920 78.772028 25.352618 78.809790 25.338605 78.847552 25.323885 78.885315 25.308463 78.923077 25.292344 78.960839 25.275533 78.998601 25.258033 79.036364 25.239851 79.074126 25.220991 79.111888 25.201458 79.149650 25.181257 79.187413 25.160392 79.225175 25.138868 79.262937 25.116690 79.300699 25.093863 79.338462 25.070392 79.376224 25.046281 79.413986 25.021536 79.451748 24.996160 79.489510 24.970160 79.527273 24.943539 79.565035 24.916303 79.602797 24.888457 79.640559 24.860004 79.678322 24.830950 79.716084 24.801300 79.753846 24.771059 79.791608 24.740231 79.829371 24.708822 79.867133 24.676835 79.904895 24.644276 79.942657 24.611150 79.980420 24.577462 80.018182 24.543215 80.055944 24.508416 80.093706 24.473069 80.131469 24.437178 80.169231 24.400749 80.206993 24.363786 80.244755 24.326294 80.282517 24.288278 80.320280 24.249743 80.358042 24.210694 80.395804 24.171135 80.433566 24.131071 80.471329 24.090507 80.509091 24.049448 80.546853 24.007898 80.584615 23.965863 80.622378 23.923347 80.660140 23.880355 80.697902 23.836892 80.735664 23.792963 80.773427 23.748572 80.811189 23.703724 80.848951 23.658425 80.886713 23.612678 80.924476 23.566490 80.962238 23.519863 81.000000 23.472804 81.037762 23.425317 81.075524 23.377408 81.113287 23.329080 81.151049 23.280338 81.188811 23.231188 81.226573 23.181634 81.264336 23.131681 81.302098 23.081334 81.339860 23.030597 81.377622 22.979476 81.415385 22.927976 81.453147 22.876100 81.490909 22.823854 81.528671 22.771243 81.566434 22.718271 81.604196 22.664944 81.641958 22.611266 81.679720 22.557241 81.717483 22.502876 81.755245 22.448174 81.793007 22.393140 81.830769 22.337779 81.868531 22.282097 81.906294 22.226097 81.944056 22.169785 81.981818 22.113165 82.019580 22.056242 82.057343 21.999022 82.095105 21.941508 82.132867 21.883706 82.170629 21.825621 82.208392 21.767256 82.246154 21.708618 82.283916 21.649711 82.321678 21.590539 82.359441 21.531108 82.397203 21.471422 82.434965 21.411486 82.472727 21.351306 82.510490 21.290885 82.548252 21.230228 82.586014 21.169341 82.623776 21.108228 82.661538 21.046894 82.699301 20.985344 82.737063 20.923583 82.774825 20.861615 82.812587 20.799445 82.850350 20.737078 82.888112 20.674519 82.925874 20.611773 82.963636 20.548844 83.001399 20.485738 83.039161 20.422458 83.076923 20.359011 83.114685 20.295400 83.152448 20.231631 83.190210 20.167708 83.227972 20.103636 83.265734 20.039420 83.303497 19.975065 83.341259 19.910576 83.379021 19.845957 83.416783 19.781213 83.454545 19.716349 83.492308 19.651370 83.530070 19.586281 83.567832 19.521086 83.605594 19.455790 83.643357 19.390398 83.681119 19.324915 83.718881 19.259346 83.756643 19.193696 83.794406 19.127968 83.832168 19.062169 83.869930 18.996303 83.907692 18.930374 83.945455 18.864388 83.983217 18.798350 84.020979 18.732263 84.058741 18.666134 84.096503 18.599966 84.134266 18.533765 84.172028 18.467535 84.209790 18.401282 84.247552 18.335009 84.285315 18.268723 84.323077 18.202427 84.360839 18.136126 84.398601 18.069826 84.436364 18.003531 84.474126 17.937245 84.511888 17.870975 84.549650 17.804724 84.587413 17.738497 84.625175 17.672299 84.662937 17.606136 84.700699 17.540011 84.738462 17.473929 84.776224 17.407896 84.813986 17.341916 84.851748 17.275995 84.889510 17.210136 84.927273 17.144344 84.965035 17.078625 85.002797 17.012983 85.040559 16.947424 85.078322 16.881951 85.116084 16.816570 85.153846 16.751285 85.191608 16.686102 85.229371 16.621024 85.267133 16.556058 85.304895 16.491207 85.342657 16.426477 85.380420 16.361872 85.418182 16.297397 85.455944 16.233058 85.493706 16.168858 85.531469 16.104802 85.569231 16.040896 85.606993 15.977144 85.644755 15.913552 85.682517 15.850123 85.720280 15.786862 85.758042 15.723775 85.795804 15.660867 85.833566 15.598141 85.871329 15.535603 85.909091 15.473258 85.946853 15.411111 85.984615 15.349166 86.022378 15.287427 86.060140 15.225901 86.097902 15.164592 86.135664 15.103504 86.173427 15.042642 86.211189 14.982012 86.248951 14.921617 86.286713 14.861464 86.324476 14.801556 86.362238 14.741898 86.400000 14.682496 86.437762 14.623353 86.475524 14.564476 86.513287 14.505868 86.551049 14.447534 86.588811 14.389480 86.626573 14.331710 86.664336 14.274229 86.702098 14.217041 86.739860 14.160152 86.777622 14.103567 86.815385 14.047289 86.853147 13.991324 86.890909 13.935677 86.928671 13.880353 86.966434 13.825356 87.004196 13.770691 87.041958 13.716364 87.079720 13.662377 87.117483 13.608730 87.155245 13.555424 87.193007 13.502455 87.230769 13.449824 87.268531 13.397529 87.306294 13.345569 87.344056 13.293942 87.381818 13.242648 87.419580 13.191686 87.457343 13.141054 87.495105 13.090751 87.532867 13.040776 87.570629 12.991128 87.608392 12.941806 87.646154 12.892808 87.683916 12.844134 87.721678 12.795782 87.759441 12.747751 87.797203 12.700041 87.834965 12.652649 87.872727 12.605575 87.910490 12.558817 87.948252 12.512375 87.986014 12.466247 88.023776 12.420432 88.061538 12.374929 88.099301 12.329737 88.137063 12.284854 88.174825 12.240280 88.212587 12.196014 88.250350 12.152053 88.288112 12.108398 88.325874 12.065047 88.363636 12.021998 88.401399 11.979251 88.439161 11.936805 88.476923 11.894658 88.514685 11.852809 88.552448 11.811257 88.590210 11.770001 88.627972 11.729040 88.665734 11.688372 88.703497 11.647997 88.741259 11.607913 88.779021 11.568120 88.816783 11.528615 88.854545 11.489398 88.892308 11.450468 88.930070 11.411823 88.967832 11.373463 89.005594 11.335386 89.043357 11.297592 89.081119 11.260078 89.118881 11.222844 89.156643 11.185889 89.194406 11.149211 89.232168 11.112810 89.269930 11.076683 89.307692 11.040831 89.345455 11.005252 89.383217 10.969945 89.420979 10.934908 89.458741 10.900141 89.496503 10.865642 89.534266 10.831411 89.572028 10.797445 89.609790 10.763745 89.647552 10.730308 89.685315 10.697133 89.723077 10.664221 89.760839 10.631568 89.798601 10.599175 89.836364 10.567040 89.874126 10.535161 89.911888 10.503538 89.949650 10.472170 89.987413 10.441056 90.025175 10.410193 90.062937 10.379582 90.100699 10.349220 90.138462 10.319108 90.176224 10.289243 90.213986 10.259625 90.251748 10.230252 90.289510 10.201124 90.327273 10.172238 90.365035 10.143595 90.402797 10.115192 90.440559 10.087029 90.478322 10.059104 90.516084 10.031417 90.553846 10.003966 90.591608 9.976750 90.629371 9.949768 90.667133 9.923019 90.704895 9.896501 90.742657 9.870214 90.780420 9.844156 90.818182 9.818327 90.855944 9.792724 90.893706 9.767347 90.931469 9.742195 90.969231 9.717267 91.006993 9.692561 91.044755 9.668076 91.082517 9.643812 91.120280 9.619766 91.158042 9.595939 91.195804 9.572328 91.233566 9.548932 91.271329 9.525751 91.309091 9.502783 91.346853 9.480028 91.384615 9.457483 91.422378 9.435148 91.460140 9.413022 91.497902 9.391103 91.535664 9.369391 91.573427 9.347884 91.611189 9.326581 91.648951 9.305481 91.686713 9.284583 91.724476 9.263885 91.762238 9.243387 91.800000 9.223087 91.837762 9.202984 91.875524 9.183078 91.913287 9.163366 91.951049 9.143848 91.988811 9.124523 92.026573 9.105389 92.064336 9.086445 92.102098 9.067691 92.139860 9.049125 92.177622 9.030745 92.215385 9.012551 92.253147 8.994542 92.290909 8.976716 92.328671 8.959072 92.366434 8.941610 92.404196 8.924328 92.441958 8.907224 92.479720 8.890298 92.517483 8.873548 92.555245 8.856974 92.593007 8.840575 92.630769 8.824348 92.668531 8.808293 92.706294 8.792409 92.744056 8.776695 92.781818 8.761149 92.819580 8.745770 92.857343 8.730558 92.895105 8.715511 92.932867 8.700627 92.970629 8.685907 93.008392 8.671348 93.046154 8.656949 93.083916 8.642710 93.121678 8.628629 93.159441 8.614705 93.197203 8.600937 93.234965 8.587324 93.272727 8.573864 93.310490 8.560557 93.348252 8.547400 93.386014 8.534394 93.423776 8.521537 93.461538 8.508828 93.499301 8.496266 93.537063 8.483849 93.574825 8.471576 93.612587 8.459447 93.650350 8.447460 93.688112 8.435614 93.725874 8.423907 93.763636 8.412340 93.801399 8.400910 93.839161 8.389616 93.876923 8.378457 93.914685 8.367432 93.952448 8.356541 93.990210 8.345781 94.027972 8.335152 94.065734 8.324652 94.103497 8.314280 94.141259 8.304036 94.179021 8.293918 94.216783 8.283924 94.254545 8.274055 94.292308 8.264308 94.330070 8.254682 94.367832 8.245177 94.405594 8.235791 94.443357 8.226523 94.481119 8.217371 94.518881 8.208336 94.556643 8.199415 94.594406 8.190607 94.632168 8.181912 94.669930 8.173327 94.707692 8.164853 94.745455 8.156488 94.783217 8.148230 94.820979 8.140078 94.858741 8.132033 94.896503 8.124091 94.934266 8.116252 94.972028 8.108516 95.009790 8.100880 95.047552 8.093343 95.085315 8.085906 95.123077 8.078565 95.160839 8.071321 95.198601 8.064172 95.236364 8.057117 95.274126 8.050154 95.311888 8.043283 95.349650 8.036503 95.387413 8.029811 95.425175 8.023208 95.462937 8.016692 95.500699 8.010262 95.538462 8.003917 95.576224 7.997655 95.613986 7.991475 95.651748 7.985377 95.689510 7.979359 95.727273 7.973420 95.765035 7.967559 95.802797 7.961774 95.840559 7.956065 95.878322 7.950431 95.916084 7.944869 95.953846 7.939380 95.991608 7.933962 96.029371 7.928613 96.067133 7.923333 96.104895 7.918121 96.142657 7.912975 96.180420 7.907894 96.218182 7.902877 96.255944 7.897923 96.293706 7.893031 96.331469 7.888199 96.369231 7.883427 96.406993 7.878714 96.444755 7.874057 96.482517 7.869456 96.520280 7.864911 96.558042 7.860420 96.595804 7.855984 96.633566 7.851601 96.671329 7.847273 96.709091 7.842999 96.746853 7.838778 96.784615 7.834610 96.822378 7.830496 96.860140 7.826434 96.897902 7.822426 96.935664 7.818469 96.973427 7.814565 97.011189 7.810713 97.048951 7.806913 97.086713 7.803164 97.124476 7.799467 97.162238 7.795820 97.200000 7.792225 97.237762 7.788680 97.275524 7.785186 97.313287 7.781742 97.351049 7.778349 97.388811 7.775005 97.426573 7.771710 97.464336 7.768465 97.502098 7.765270 97.539860 7.762123 97.577622 7.759025 97.615385 7.755975 97.653147 7.752974 97.690909 7.750020 97.728671 7.747115 97.766434 7.744257 97.804196 7.741447 97.841958 7.738684 97.879720 7.735967 97.917483 7.733298 97.955245 7.730675 97.993007 7.728098 98.030769 7.725568 98.068531 7.723083 98.106294 7.720644 98.144056 7.718251 98.181818 7.715902 98.219580 7.713599 98.257343 7.711341 98.295105 7.709127 98.332867 7.706957 98.370629 7.704831 98.408392 7.702750 98.446154 7.700712 98.483916 7.698717 98.521678 7.696766 98.559441 7.694858 98.597203 7.692992 98.634965 7.691170 98.672727 7.689389 98.710490 7.687651 98.748252 7.685954 98.786014 7.684300 98.823776 7.682686 98.861538 7.681114 98.899301 7.679584 98.937063 7.678093 98.974825 7.676644 99.012587 7.675235 99.050350 7.673866 99.088112 7.672537 99.125874 7.671248 99.163636 7.669998 99.201399 7.668788 99.239161 7.667616 99.276923 7.666484 99.314685 7.665390 99.352448 7.664334 99.390210 7.663317 99.427972 7.662338 99.465734 7.661396 99.503497 7.660492 99.541259 7.659626 99.579021 7.658796 99.616783 7.658003 99.654545 7.657247 99.692308 7.656528 99.730070 7.655844 99.767832 7.655197 99.805594 7.654585 99.843357 7.654009 99.881119 7.653468 99.918881 7.652963 99.956643 7.652492 99.994406 7.652056 100.032168 7.651654 100.069930 7.651287 100.107692 7.650954 100.145455 7.650654 100.183217 7.650388 100.220979 7.650156 100.258741 7.649956 100.296503 7.649790 100.334266 7.649656 100.372028 7.649555 100.409790 7.649486 100.447552 7.649449 100.485315 7.649444 100.523077 7.649470 100.560839 7.649528 100.598601 7.649617 100.636364 7.649737 100.674126 7.649887 100.711888 7.650069 100.749650 7.650280 100.787413 7.650522 100.825175 7.650793 100.862937 7.651094 100.900699 7.651425 100.938462 7.651784 100.976224 7.652173 101.013986 7.652590 101.051748 7.653036 101.089510 7.653510 101.127273 7.654013 101.165035 7.654543 101.202797 7.655101 101.240559 7.655686 101.278322 7.656299 101.316084 7.656938 101.353846 7.657604 101.391608 7.658297 101.429371 7.659016 101.467133 7.659762 101.504895 7.660533 101.542657 7.661330 101.580420 7.662152 101.618182 7.663000 101.655944 7.663872 101.693706 7.664770 101.731469 7.665692 101.769231 7.666638 101.806993 7.667609 101.844755 7.668603 101.882517 7.669621 101.920280 7.670663 101.958042 7.671728 101.995804 7.672816 102.033566 7.673927 102.071329 7.675060 102.109091 7.676216 102.146853 7.677394 102.184615 7.678594 102.222378 7.679815 102.260140 7.681058 102.297902 7.682323 102.335664 7.683608 102.373427 7.684915 102.411189 7.686242 102.448951 7.687589 102.486713 7.688957 102.524476 7.690344 102.562238 7.691752 102.600000 7.693179 102.637762 7.694625 102.675524 7.696090 102.713287 7.697574 102.751049 7.699077 102.788811 7.700598 102.826573 7.702138 102.864336 7.703695 102.902098 7.705270 102.939860 7.706863 102.977622 7.708473 103.015385 7.710101 103.053147 7.711745 103.090909 7.713406 103.128671 7.715083 103.166434 7.716776 103.204196 7.718486 103.241958 7.720211 103.279720 7.721952 103.317483 7.723709 103.355245 7.725480 103.393007 7.727267 103.430769 7.729068 103.468531 7.730883 103.506294 7.732713 103.544056 7.734557 103.581818 7.736415 103.619580 7.738286 103.657343 7.740171 103.695105 7.742069 103.732867 7.743980 103.770629 7.745903 103.808392 7.747839 103.846154 7.749788 103.883916 7.751748 103.921678 7.753721 103.959441 7.755704 103.997203 7.757700 104.034965 7.759706 104.072727 7.761724 104.110490 7.763752 104.148252 7.765791 104.186014 7.767840 104.223776 7.769899 104.261538 7.771969 104.299301 7.774047 104.337063 7.776136 104.374825 7.778233 104.412587 7.780339 104.450350 7.782455 104.488112 7.784578 104.525874 7.786711 104.563636 7.788851 104.601399 7.790999 104.639161 7.793155 104.676923 7.795318 104.714685 7.797489 104.752448 7.799666 104.790210 7.801850 104.827972 7.804041 104.865734 7.806239 104.903497 7.808442 104.941259 7.810652 104.979021 7.812867 105.016783 7.815087 105.054545 7.817313 105.092308 7.819544 105.130070 7.821780 105.167832 7.824020 105.205594 7.826265 105.243357 7.828514 105.281119 7.830766 105.318881 7.833023 105.356643 7.835283 105.394406 7.837546 105.432168 7.839813 105.469930 7.842082 105.507692 7.844354 105.545455 7.846628 105.583217 7.848905 105.620979 7.851184 105.658741 7.853464 105.696503 7.855746 105.734266 7.858029 105.772028 7.860313 105.809790 7.862598 105.847552 7.864884 105.885315 7.867170 105.923077 7.869456" class="line reactive nofill" /></g></g><g class="titles" /><g transform="translate(82, 10)" class="plot overlay"><g class="series serie-0 color-0" /></g><g transform="translate(82, 10)" class="plot text-overlay"><g class="series serie-0 color-0" /></g><g transform="translate(82, 10)" class="plot tooltip-overlay"><g transform="translate(0 0)" style="opacity: 0" class="tooltip"><rect rx="0" ry="0" width="0" height="0" class="tooltip-box" /><g class="text" /></g></g></g></svg>