<?xml version='1.0' encoding='utf-8'?>
<svg xmlns="http://www.w3.org/2000/svg" id="chart-da5f8b94-e509-4734-a8b4-9e3d7033f241" class="pygal-chart pygal-sparkline" viewBox="0 0 200 50" width="200" height="50"><!--Generated with pygal 3.0.5 (etree) ©Kozea 2012-2016 on 2025-04-20--><!--http://pygal.org--><!--http://github.com/Kozea/pygal--><defs><style type="text/css">#chart-da5f8b94-e509-4734-a8b4-9e3d7033f241{-webkit-user-select:none;-webkit-font-smoothing:antialiased;font-family:Consolas,"Liberation Mono",Menlo,Courier,monospace}#chart-da5f8b94-e509-4734-a8b4-9e3d7033f241 .title{font-family:Consolas,"Liberation Mono",Menlo,Courier,monospace;font-size:16px}#chart-da5f8b94-e509-4734-a8b4-9e3d7033f241 .legends .legend text{font-family:Consolas,"Liberation Mono",Menlo,Courier,monospace;font-size:14px}#chart-da5f8b94-e509-4734-a8b4-9e3d7033f241 .axis text{font-family:Consolas,"Liberation Mono",Menlo,Courier,monospace;font-size:10px}#chart-da5f8b94-e509-4734-a8b4-9e3d7033f241 .axis text.major{font-family:Consolas,"Liberation Mono",Menlo,Courier,monospace;font-size:10px}#chart-da5f8b94-e509-4734-a8b4-9e3d7033f241 .text-overlay text.value{font-family:Consolas,"Liberation Mono",Menlo,Courier,monospace;font-size:16px}#chart-da5f8b94-e509-4734-a8b4-9e3d7033f241 .text-overlay text.label{font-family:Consolas,"Liberation Mono",Menlo,Courier,monospace;font-size:10px}#chart-da5f8b94-e509-4734-a8b4-9e3d7033f241 .tooltip{font-family:Consolas,"Liberation Mono",Menlo,Courier,monospace;font-size:14px}#chart-da5f8b94-e509-4734-a8b4-9e3d7033f241 text.no_data{font-family:Consolas,"Liberation Mono",Menlo,Courier,monospace;font-size:64px}
#chart-da5f8b94-e509-4734-a8b4-9e3d7033f241{background-color:rgba(249,249,249,1)}#chart-da5f8b94-e509-4734-a8b4-9e3d7033f241 path,#chart-da5f8b94-e509-4734-a8b4-9e3d7033f241 line,#chart-da5f8b94-e509-4734-a8b4-9e3d7033f241 rect,#chart-da5f8b94-e509-4734-a8b4-9e3d7033f241 circle{-webkit-transition:150ms;-moz-transition:150ms;transition:150ms}#chart-da5f8b94-e509-4734-a8b4-9e3d7033f241 .graph &gt; .background{fill:rgba(249,249,249,1)}#chart-da5f8b94-e509-4734-a8b4-9e3d7033f241 .plot &gt; .background{fill:rgba(255,255,255,1)}#chart-da5f8b94-e509-4734-a8b4-9e3d7033f241 .graph{fill:rgba(0,0,0,.87)}#chart-da5f8b94-e509-4734-a8b4-9e3d7033f241 text.no_data{fill:rgba(0,0,0,1)}#chart-da5f8b94-e509-4734-a8b4-9e3d7033f241 .title{fill:rgba(0,0,0,1)}#chart-da5f8b94-e509-4734-a8b4-9e3d7033f241 .legends .legend text{fill:rgba(0,0,0,.87)}#chart-da5f8b94-e509-4734-a8b4-9e3d7033f241 .legends .legend:hover text{fill:rgba(0,0,0,1)}#chart-da5f8b94-e509-4734-a8b4-9e3d7033f241 .axis .line{stroke:rgba(0,0,0,1)}#chart-da5f8b94-e509-4734-a8b4-9e3d7033f241 .axis .guide.line{stroke:rgba(0,0,0,.54)}#chart-da5f8b94-e509-4734-a8b4-9e3d7033f241 .axis .major.line{stroke:rgba(0,0,0,.87)}#chart-da5f8b94-e509-4734-a8b4-9e3d7033f241 .axis text.major{fill:rgba(0,0,0,1)}#chart-da5f8b94-e509-4734-a8b4-9e3d7033f241 .axis.y .guides:hover .guide.line,#chart-da5f8b94-e509-4734-a8b4-9e3d7033f241 .line-graph .axis.x .guides:hover .guide.line,#chart-da5f8b94-e509-4734-a8b4-9e3d7033f241 .stackedline-graph .axis.x .guides:hover .guide.line,#chart-da5f8b94-e509-4734-a8b4-9e3d7033f241 .xy-graph .axis.x .guides:hover .guide.line{stroke:rgba(0,0,0,1)}#chart-da5f8b94-e509-4734-a8b4-9e3d7033f241 .axis .guides:hover text{fill:rgba(0,0,0,1)}#chart-da5f8b94-e509-4734-a8b4-9e3d7033f241 .reactive{fill-opacity:.7;stroke-opacity:.8;stroke-width:1}#chart-da5f8b94-e509-4734-a8b4-9e3d7033f241 .ci{stroke:rgba(0,0,0,.87)}#chart-da5f8b94-e509-4734-a8b4-9e3d7033f241 .reactive.active,#chart-da5f8b94-e509-4734-a8b4-9e3d7033f241 .active .reactive{fill-opacity:.8;stroke-opacity:.9;stroke-width:4}#chart-da5f8b94-e509-4734-a8b4-9e3d7033f241 .ci .reactive.active{stroke-width:1.5}#chart-da5f8b94-e509-4734-a8b4-9e3d7033f241 .series text{fill:rgba(0,0,0,1)}#chart-da5f8b94-e509-4734-a8b4-9e3d7033f241 .tooltip rect{fill:rgba(255,255,255,1);stroke:rgba(0,0,0,1);-webkit-transition:opacity 150ms;-moz-transition:opacity 150ms;transition:opacity 150ms}#chart-da5f8b94-e509-4734-a8b4-9e3d7033f241 .tooltip .label{fill:rgba(0,0,0,.87)}#chart-da5f8b94-e509-4734-a8b4-9e3d7033f241 .tooltip .label{fill:rgba(0,0,0,.87)}#chart-da5f8b94-e509-4734-a8b4-9e3d7033f241 .tooltip .legend{font-size:.8em;fill:rgba(0,0,0,.54)}#chart-da5f8b94-e509-4734-a8b4-9e3d7033f241 .tooltip .x_label{font-size:.6em;fill:rgba(0,0,0,1)}#chart-da5f8b94-e509-4734-a8b4-9e3d7033f241 .tooltip .xlink{font-size:.5em;text-decoration:underline}#chart-da5f8b94-e509-4734-a8b4-9e3d7033f241 .tooltip .value{font-size:1.5em}#chart-da5f8b94-e509-4734-a8b4-9e3d7033f241 .bound{font-size:.5em}#chart-da5f8b94-e509-4734-a8b4-9e3d7033f241 .max-value{font-size:.75em;fill:rgba(0,0,0,.54)}#chart-da5f8b94-e509-4734-a8b4-9e3d7033f241 .map-element{fill:rgba(255,255,255,1);stroke:rgba(0,0,0,.54) !important}#chart-da5f8b94-e509-4734-a8b4-9e3d7033f241 .map-element .reactive{fill-opacity:inherit;stroke-opacity:inherit}#chart-da5f8b94-e509-4734-a8b4-9e3d7033f241 .color-0,#chart-da5f8b94-e509-4734-a8b4-9e3d7033f241 .color-0 a:visited{stroke:#F44336;fill:#F44336}#chart-da5f8b94-e509-4734-a8b4-9e3d7033f241 .text-overlay .color-0 text{fill:black}
#chart-da5f8b94-e509-4734-a8b4-9e3d7033f241 text.no_data{text-anchor:middle}#chart-da5f8b94-e509-4734-a8b4-9e3d7033f241 .guide.line{fill:none}#chart-da5f8b94-e509-4734-a8b4-9e3d7033f241 .centered{text-anchor:middle}#chart-da5f8b94-e509-4734-a8b4-9e3d7033f241 .title{text-anchor:middle}#chart-da5f8b94-e509-4734-a8b4-9e3d7033f241 .legends .legend text{fill-opacity:1}#chart-da5f8b94-e509-4734-a8b4-9e3d7033f241 .axis.x text{text-anchor:middle}#chart-da5f8b94-e509-4734-a8b4-9e3d7033f241 .axis.x:not(.web) text[transform]{text-anchor:start}#chart-da5f8b94-e509-4734-a8b4-9e3d7033f241 .axis.x:not(.web) text[transform].backwards{text-anchor:end}#chart-da5f8b94-e509-4734-a8b4-9e3d7033f241 .axis.y text{text-anchor:end}#chart-da5f8b94-e509-4734-a8b4-9e3d7033f241 .axis.y text[transform].backwards{text-anchor:start}#chart-da5f8b94-e509-4734-a8b4-9e3d7033f241 .axis.y2 text{text-anchor:start}#chart-da5f8b94-e509-4734-a8b4-9e3d7033f241 .axis.y2 text[transform].backwards{text-anchor:end}#chart-da5f8b94-e509-4734-a8b4-9e3d7033f241 .axis .guide.line{stroke-dasharray:4,4;stroke:black}#chart-da5f8b94-e509-4734-a8b4-9e3d7033f241 .axis .major.guide.line{stroke-dasharray:6,6;stroke:black}#chart-da5f8b94-e509-4734-a8b4-9e3d7033f241 .horizontal .axis.y .guide.line,#chart-da5f8b94-e509-4734-a8b4-9e3d7033f241 .horizontal .axis.y2 .guide.line,#chart-da5f8b94-e509-4734-a8b4-9e3d7033f241 .vertical .axis.x .guide.line{opacity:0}#chart-da5f8b94-e509-4734-a8b4-9e3d7033f241 .horizontal .axis.always_show .guide.line,#chart-da5f8b94-e509-4734-a8b4-9e3d7033f241 .vertical .axis.always_show .guide.line{opacity:1 !important}#chart-da5f8b94-e509-4734-a8b4-9e3d7033f241 .axis.y .guides:hover .guide.line,#chart-da5f8b94-e509-4734-a8b4-9e3d7033f241 .axis.y2 .guides:hover .guide.line,#chart-da5f8b94-e509-4734-a8b4-9e3d7033f241 .axis.x .guides:hover .guide.line{opacity:1}#chart-da5f8b94-e509-4734-a8b4-9e3d7033f241 .axis .guides:hover text{opacity:1}#chart-da5f8b94-e509-4734-a8b4-9e3d7033f241 .nofill{fill:none}#chart-da5f8b94-e509-4734-a8b4-9e3d7033f241 .subtle-fill{fill-opacity:.2}#chart-da5f8b94-e509-4734-a8b4-9e3d7033f241 .dot{stroke-width:1px;fill-opacity:1;stroke-opacity:1}#chart-da5f8b94-e509-4734-a8b4-9e3d7033f241 .dot.active{stroke-width:5px}#chart-da5f8b94-e509-4734-a8b4-9e3d7033f241 .dot.negative{fill:transparent}#chart-da5f8b94-e509-4734-a8b4-9e3d7033f241 text,#chart-da5f8b94-e509-4734-a8b4-9e3d7033f241 tspan{stroke:none !important}#chart-da5f8b94-e509-4734-a8b4-9e3d7033f241 .series text.active{opacity:1}#chart-da5f8b94-e509-4734-a8b4-9e3d7033f241 .tooltip rect{fill-opacity:.95;stroke-width:.5}#chart-da5f8b94-e509-4734-a8b4-9e3d7033f241 .tooltip text{fill-opacity:1}#chart-da5f8b94-e509-4734-a8b4-9e3d7033f241 .showable{visibility:hidden}#chart-da5f8b94-e509-4734-a8b4-9e3d7033f241 .showable.shown{visibility:visible}#chart-da5f8b94-e509-4734-a8b4-9e3d7033f241 .gauge-background{fill:rgba(229,229,229,1);stroke:none}#chart-da5f8b94-e509-4734-a8b4-9e3d7033f241 .bg-lines{stroke:rgba(249,249,249,1);stroke-width:2px}</style><script type="text/javascript">window.pygal = window.pygal || {};window.pygal.config = window.pygal.config || {};window.pygal.config['da5f8b94-e509-4734-a8b4-9e3d7033f241'] = {"allow_interruptions": false, "box_mode": "extremes", "classes": ["pygal-chart", "pygal-sparkline"], "css": ["file://style.css", "file://graph.css"], "defs": [], "disable_xml_declaration": false, "dots_size": 2.5, "dynamic_print_values": false, "explicit_size": true, "fill": false, "force_uri_protocol": "https", "formatter": null, "half_pie": false, "height": 50, "include_x_axis": false, "inner_radius": 0, "interpolate": "cubic", "interpolation_parameters": {}, "interpolation_precision": 250, "inverse_y_axis": false, "js": [], "legend_at_bottom": false, "legend_at_bottom_columns": null, "legend_box_size": 12, "logarithmic": false, "margin": 10, "margin_bottom": null, "margin_left": null, "margin_right": null, "margin_top": null, "max_scale": 2, "min_scale": 1, "missing_value_fill_truncation": "x", "no_data_text": "", "no_prefix": false, "order_min": null, "pretty_print": false, "print_labels": false, "print_values": false, "print_values_position": "center", "print_zeroes": true, "range": null, "rounded_bars": null, "secondary_range": null, "show_dots": false, "show_legend": false, "show_minor_x_labels": true, "show_minor_y_labels": true, "show_only_major_dots": false, "show_x_guides": false, "show_x_labels": false, "show_y_guides": true, "show_y_labels": true, "spacing": 0, "stack_from_top": false, "strict": false, "stroke": true, "stroke_style": null, "style": {"background": "rgba(249, 249, 249, 1)", "ci_colors": [], "colors": ["#F44336", "#3F51B5", "#009688", "#FFC107", "#FF5722", "#9C27B0", "#03A9F4", "#8BC34A", "#FF9800", "#E91E63", "#2196F3", "#4CAF50", "#FFEB3B", "#673AB7", "#00BCD4", "#CDDC39", "#9E9E9E", "#607D8B"], "dot_opacity": "1", "font_family": "Consolas, \"Liberation Mono\", Menlo, Courier, monospace", "foreground": "rgba(0, 0, 0, .87)", "foreground_strong": "rgba(0, 0, 0, 1)", "foreground_subtle": "rgba(0, 0, 0, .54)", "guide_stroke_color": "black", "guide_stroke_dasharray": "4,4", "label_font_family": "Consolas, \"Liberation Mono\", Menlo, Courier, monospace", "label_font_size": 10, "legend_font_family": "Consolas, \"Liberation Mono\", Menlo, Courier, monospace", "legend_font_size": 14, "major_guide_stroke_color": "black", "major_guide_stroke_dasharray": "6,6", "major_label_font_family": "Consolas, \"Liberation Mono\", Menlo, Courier, monospace", "major_label_font_size": 10, "no_data_font_family": "Consolas, \"Liberation Mono\", Menlo, Courier, monospace", "no_data_font_size": 64, "opacity": ".7", "opacity_hover": ".8", "plot_background": "rgba(255, 255, 255, 1)", "stroke_opacity": ".8", "stroke_opacity_hover": ".9", "stroke_width": "1", "stroke_width_hover": "4", "title_font_family": "Consolas, \"Liberation Mono\", Menlo, Courier, monospace", "title_font_size": 16, "tooltip_font_family": "Consolas, \"Liberation Mono\", Menlo, Courier, monospace", "tooltip_font_size": 14, "transition": "150ms", "value_background": "rgba(229, 229, 229, 1)", "value_colors": [], "value_font_family": "Consolas, \"Liberation Mono\", Menlo, Courier, monospace", "value_font_size": 16, "value_label_font_family": "Consolas, \"Liberation Mono\", Menlo, Courier, monospace", "value_label_font_size": 10}, "title": null, "tooltip_border_radius": 0, "tooltip_fancy_mode": true, "truncate_label": null, "truncate_legend": null, "width": 200, "x_label_rotation": 0, "x_labels": ["2025/4", "2025/3", "2025/2", "2025/1", "2024/12", "2024/11", "2024/10", "2024/9", "2024/8", "2024/7", "2024/6", "2024/5"], "x_labels_major": null, "x_labels_major_count": null, "x_labels_major_every": null, "x_title": null, "xrange": null, "y_label_rotation": 0, "y_labels": null, "y_labels_major": null, "y_labels_major_count": null, "y_labels_major_every": null, "y_title": null, "zero": 0, "legends": [""]}</script></defs><title>Pygal</title><g class="graph line-graph vertical"><rect x="0" y="0" width="200" height="50" class="background" /><g transform="translate(82, 10)" class="plot"><rect x="0" y="0" width="108.0" height="30" class="background" /><g class="axis y always_show"><path d="M0.000000 30.000000 h108.000000" class="line" /><g class="guides"><path d="M0.000000 29.423077 h108.000000" class="guide line" /><text x="-5" y="32.92307692307692" class="">0.3103762522</text><title>0.3103762522</title></g><g class="guides"><path d="M0.000000 0.576923 h108.000000" class="guide line" /><text x="-5" y="4.07692307692308" class="">5.234305834</text><title>5.234305834</title></g></g><g class="series serie-0 color-0"><path d="M2.076923 19.524652 L2.114685 19.440044 2.152448 19.355440 2.190210 19.270843 2.227972 19.186257 2.265734 19.101685 2.303497 19.017131 2.341259 18.932599 2.379021 18.848093 2.416783 18.763615 2.454545 18.679170 2.492308 18.594762 2.530070 18.510393 2.567832 18.426068 2.605594 18.341789 2.643357 18.257562 2.681119 18.173389 2.718881 18.089273 2.756643 18.005220 2.794406 17.921231 2.832168 17.837312 2.869930 17.753465 2.907692 17.669694 2.945455 17.586003 2.983217 17.502395 3.020979 17.418874 3.058741 17.335443 3.096503 17.252107 3.134266 17.168869 3.172028 17.085732 3.209790 17.002700 3.247552 16.919777 3.285315 16.836966 3.323077 16.754271 3.360839 16.671696 3.398601 16.589243 3.436364 16.506918 3.474126 16.424723 3.511888 16.342662 3.549650 16.260739 3.587413 16.178957 3.625175 16.097320 3.662937 16.015832 3.700699 15.934496 3.738462 15.853315 3.776224 15.772294 3.813986 15.691436 3.851748 15.610745 3.889510 15.530224 3.927273 15.449877 3.965035 15.369708 4.002797 15.289719 4.040559 15.209916 4.078322 15.130300 4.116084 15.050877 4.153846 14.971650 4.191608 14.892622 4.229371 14.813796 4.267133 14.735177 4.304895 14.656769 4.342657 14.578574 4.380420 14.500596 4.418182 14.422840 4.455944 14.345308 4.493706 14.268004 4.531469 14.190933 4.569231 14.114097 4.606993 14.037500 4.644755 13.961145 4.682517 13.885037 4.720280 13.809179 4.758042 13.733575 4.795804 13.658228 4.833566 13.583142 4.871329 13.508320 4.909091 13.433767 4.946853 13.359485 4.984615 13.285478 5.022378 13.211751 5.060140 13.138306 5.097902 13.065147 5.135664 12.992278 5.173427 12.919703 5.211189 12.847425 5.248951 12.775447 5.286713 12.703774 5.324476 12.632409 5.362238 12.561356 5.400000 12.490617 5.437762 12.420198 5.475524 12.350101 5.513287 12.280330 5.551049 12.210889 5.588811 12.141781 5.626573 12.073010 5.664336 12.004579 5.702098 11.936493 5.739860 11.868755 5.777622 11.801368 5.815385 11.734336 5.853147 11.667663 5.890909 11.601352 5.928671 11.535407 5.966434 11.469832 6.004196 11.404630 6.041958 11.339805 6.079720 11.275360 6.117483 11.211299 6.155245 11.147626 6.193007 11.084344 6.230769 11.021457 6.268531 10.958969 6.306294 10.896883 6.344056 10.835203 6.381818 10.773932 6.419580 10.713074 6.457343 10.652633 6.495105 10.592612 6.532867 10.533015 6.570629 10.473845 6.608392 10.415107 6.646154 10.356803 6.683916 10.298938 6.721678 10.241515 6.759441 10.184538 6.797203 10.128010 6.834965 10.071934 6.872727 10.016316 6.910490 9.961157 6.948252 9.906462 6.986014 9.852235 7.023776 9.798479 7.061538 9.745197 7.099301 9.692393 7.137063 9.640072 7.174825 9.588236 7.212587 9.536889 7.250350 9.486034 7.288112 9.435677 7.325874 9.385819 7.363636 9.336464 7.401399 9.287618 7.439161 9.239281 7.476923 9.191460 7.514685 9.144156 7.552448 9.097375 7.590210 9.051118 7.627972 9.005391 7.665734 8.960196 7.703497 8.915538 7.741259 8.871419 7.779021 8.827844 7.816783 8.784816 7.854545 8.742338 7.892308 8.700415 7.930070 8.659050 7.967832 8.618247 8.005594 8.578008 8.043357 8.538339 8.081119 8.499242 8.118881 8.460721 8.156643 8.422780 8.194406 8.385422 8.232168 8.348651 8.269930 8.312471 8.307692 8.276885 8.345455 8.241897 8.383217 8.207510 8.420979 8.173729 8.458741 8.140556 8.496503 8.107995 8.534266 8.076050 8.572028 8.044725 8.609790 8.014023 8.647552 7.983948 8.685315 7.954503 8.723077 7.925692 8.760839 7.897519 8.798601 7.869988 8.836364 7.843101 8.874126 7.816863 8.911888 7.791277 8.949650 7.766347 8.987413 7.742076 9.025175 7.718468 9.062937 7.695527 9.100699 7.673256 9.138462 7.651659 9.176224 7.630740 9.213986 7.610502 9.251748 7.590948 9.289510 7.572084 9.327273 7.553911 9.365035 7.536433 9.402797 7.519655 9.440559 7.503580 9.478322 7.488212 9.516084 7.473553 9.553846 7.459608 9.591608 7.446381 9.629371 7.433875 9.667133 7.422093 9.704895 7.411040 9.742657 7.400718 9.780420 7.391133 9.818182 7.382286 9.855944 7.374182 9.893706 7.366824 9.931469 7.360216 9.969231 7.354362 10.006993 7.349265 10.044755 7.344929 10.082517 7.341358 10.120280 7.338555 10.158042 7.336523 10.195804 7.335267 10.233566 7.334790 10.271329 7.335095 10.309091 7.336187 10.346853 7.338068 10.384615 7.340743 10.422378 7.344215 10.460140 7.348488 10.497902 7.353565 10.535664 7.359450 10.573427 7.366147 10.611189 7.373659 10.648951 7.381990 10.686713 7.391143 10.724476 7.401122 10.762238 7.411931 10.800000 7.423574 10.837762 7.436053 10.875524 7.449373 10.913287 7.463537 10.951049 7.478549 10.988811 7.494412 11.026573 7.511131 11.064336 7.528708 11.102098 7.547147 11.139860 7.566453 11.177622 7.586628 11.215385 7.607676 11.253147 7.629601 11.290909 7.652407 11.328671 7.676096 11.366434 7.700673 11.404196 7.726142 11.441958 7.752505 11.479720 7.779767 11.517483 7.807931 11.555245 7.837000 11.593007 7.866967 11.630769 7.897826 11.668531 7.929570 11.706294 7.962193 11.744056 7.995687 11.781818 8.030046 11.819580 8.065263 11.857343 8.101330 11.895105 8.138241 11.932867 8.175990 11.970629 8.214569 12.008392 8.253971 12.046154 8.294189 12.083916 8.335218 12.121678 8.377049 12.159441 8.419676 12.197203 8.463092 12.234965 8.507290 12.272727 8.552264 12.310490 8.598006 12.348252 8.644509 12.386014 8.691767 12.423776 8.739773 12.461538 8.788520 12.499301 8.838002 12.537063 8.888210 12.574825 8.939139 12.612587 8.990781 12.650350 9.043130 12.688112 9.096178 12.725874 9.149920 12.763636 9.204348 12.801399 9.259454 12.839161 9.315233 12.876923 9.371678 12.914685 9.428781 12.952448 9.486535 12.990210 9.544935 13.027972 9.603972 13.065734 9.663641 13.103497 9.723933 13.141259 9.784844 13.179021 9.846364 13.216783 9.908488 13.254545 9.971209 13.292308 10.034520 13.330070 10.098414 13.367832 10.162884 13.405594 10.227923 13.443357 10.293524 13.481119 10.359682 13.518881 10.426387 13.556643 10.493635 13.594406 10.561417 13.632168 10.629728 13.669930 10.698560 13.707692 10.767906 13.745455 10.837760 13.783217 10.908114 13.820979 10.978962 13.858741 11.050296 13.896503 11.122111 13.934266 11.194399 13.972028 11.267153 14.009790 11.340366 14.047552 11.414032 14.085315 11.488144 14.123077 11.562694 14.160839 11.637677 14.198601 11.713084 14.236364 11.788910 14.274126 11.865147 14.311888 11.941788 14.349650 12.018827 14.387413 12.096256 14.425175 12.174070 14.462937 12.252260 14.500699 12.330821 14.538462 12.409744 14.576224 12.489024 14.613986 12.568654 14.651748 12.648626 14.689510 12.728934 14.727273 12.809571 14.765035 12.890530 14.802797 12.971804 14.840559 13.053386 14.878322 13.135270 14.916084 13.217448 14.953846 13.299914 14.991608 13.382661 15.029371 13.465682 15.067133 13.548970 15.104895 13.632518 15.142657 13.716319 15.180420 13.800367 15.218182 13.884654 15.255944 13.969175 15.293706 14.053921 15.331469 14.138886 15.369231 14.224063 15.406993 14.309445 15.444755 14.395026 15.482517 14.480799 15.520280 14.566756 15.558042 14.652891 15.595804 14.739197 15.633566 14.825666 15.671329 14.912294 15.709091 14.999071 15.746853 15.085992 15.784615 15.173049 15.822378 15.260236 15.860140 15.347546 15.897902 15.434972 15.935664 15.522508 15.973427 15.610145 16.011189 15.697878 16.048951 15.785699 16.086713 15.873602 16.124476 15.961580 16.162238 16.049625 16.200000 16.137732 16.237762 16.225893 16.275524 16.314101 16.313287 16.402349 16.351049 16.490631 16.388811 16.578940 16.426573 16.667269 16.464336 16.755611 16.502098 16.843958 16.539860 16.932305 16.577622 17.020645 16.615385 17.108969 16.653147 17.197273 16.690909 17.285548 16.728671 17.373788 16.766434 17.461986 16.804196 17.550136 16.841958 17.638229 16.879720 17.726260 16.917483 17.814222 16.955245 17.902107 16.993007 17.989909 17.030769 18.077621 17.068531 18.165236 17.106294 18.252747 17.144056 18.340148 17.181818 18.427431 17.219580 18.514590 17.257343 18.601617 17.295105 18.688506 17.332867 18.775251 17.370629 18.861843 17.408392 18.948277 17.446154 19.034545 17.483916 19.120641 17.521678 19.206557 17.559441 19.292287 17.597203 19.377824 17.634965 19.463161 17.672727 19.548291 17.710490 19.633208 17.748252 19.717904 17.786014 19.802373 17.823776 19.886607 17.861538 19.970600 17.899301 20.054346 17.937063 20.137836 17.974825 20.221064 18.012587 20.304024 18.050350 20.386709 18.088112 20.469111 18.125874 20.551224 18.163636 20.633041 18.201399 20.714554 18.239161 20.795758 18.276923 20.876646 18.314685 20.957210 18.352448 21.037443 18.390210 21.117339 18.427972 21.196891 18.465734 21.276092 18.503497 21.354934 18.541259 21.433413 18.579021 21.511519 18.616783 21.589247 18.654545 21.666590 18.692308 21.743540 18.730070 21.820091 18.767832 21.896237 18.805594 21.971969 18.843357 22.047282 18.881119 22.122168 18.918881 22.196621 18.956643 22.270633 18.994406 22.344198 19.032168 22.417309 19.069930 22.489960 19.107692 22.562142 19.145455 22.633850 19.183217 22.705076 19.220979 22.775814 19.258741 22.846056 19.296503 22.915797 19.334266 22.985028 19.372028 23.053744 19.409790 23.121937 19.447552 23.189600 19.485315 23.256727 19.523077 23.323310 19.560839 23.389343 19.598601 23.454820 19.636364 23.519732 19.674126 23.584073 19.711888 23.647837 19.749650 23.711016 19.787413 23.773604 19.825175 23.835593 19.862937 23.896978 19.900699 23.957750 19.938462 24.017904 19.976224 24.077431 20.013986 24.136326 20.051748 24.194582 20.089510 24.252191 20.127273 24.309147 20.165035 24.365443 20.202797 24.421072 20.240559 24.476027 20.278322 24.530302 20.316084 24.583888 20.353846 24.636781 20.391608 24.688972 20.429371 24.740455 20.467133 24.791223 20.504895 24.841269 20.542657 24.890586 20.580420 24.939168 20.618182 24.987007 20.655944 25.034096 20.693706 25.080430 20.731469 25.126000 20.769231 25.170801 20.806993 25.214824 20.844755 25.258064 20.882517 25.300513 20.920280 25.342165 20.958042 25.383012 20.995804 25.423051 21.033566 25.462281 21.071329 25.500707 21.109091 25.538333 21.146853 25.575163 21.184615 25.611199 21.222378 25.646445 21.260140 25.680906 21.297902 25.714584 21.335664 25.747484 21.373427 25.779608 21.411189 25.810960 21.448951 25.841545 21.486713 25.871366 21.524476 25.900425 21.562238 25.928728 21.600000 25.956277 21.637762 25.983075 21.675524 26.009128 21.713287 26.034438 21.751049 26.059009 21.788811 26.082844 21.826573 26.105947 21.864336 26.128322 21.902098 26.149972 21.939860 26.170901 21.977622 26.191112 22.015385 26.210610 22.053147 26.229397 22.090909 26.247478 22.128671 26.264855 22.166434 26.281533 22.204196 26.297515 22.241958 26.312804 22.279720 26.327405 22.317483 26.341321 22.355245 26.354555 22.393007 26.367112 22.430769 26.378994 22.468531 26.390205 22.506294 26.400749 22.544056 26.410630 22.581818 26.419851 22.619580 26.428415 22.657343 26.436327 22.695105 26.443590 22.732867 26.450207 22.770629 26.456183 22.808392 26.461520 22.846154 26.466222 22.883916 26.470293 22.921678 26.473737 22.959441 26.476557 22.997203 26.478757 23.034965 26.480340 23.072727 26.481310 23.110490 26.481670 23.148252 26.481425 23.186014 26.480577 23.223776 26.479131 23.261538 26.477090 23.299301 26.474457 23.337063 26.471236 23.374825 26.467431 23.412587 26.463045 23.450350 26.458083 23.488112 26.452547 23.525874 26.446441 23.563636 26.439768 23.601399 26.432534 23.639161 26.424740 23.676923 26.416390 23.714685 26.407489 23.752448 26.398040 23.790210 26.388046 23.827972 26.377511 23.865734 26.366438 23.903497 26.354832 23.941259 26.342696 23.979021 26.330032 24.016783 26.316846 24.054545 26.303141 24.092308 26.288919 24.130070 26.274186 24.167832 26.258943 24.205594 26.243196 24.243357 26.226948 24.281119 26.210201 24.318881 26.192960 24.356643 26.175229 24.394406 26.157011 24.432168 26.138309 24.469930 26.119128 24.507692 26.099470 24.545455 26.079340 24.583217 26.058741 24.620979 26.037676 24.658741 26.016150 24.696503 25.994166 24.734266 25.971726 24.772028 25.948836 24.809790 25.925499 24.847552 25.901718 24.885315 25.877496 24.923077 25.852838 24.960839 25.827747 24.998601 25.802227 25.036364 25.776281 25.074126 25.749913 25.111888 25.723126 25.149650 25.695924 25.187413 25.668311 25.225175 25.640290 25.262937 25.611865 25.300699 25.583040 25.338462 25.553817 25.376224 25.524201 25.413986 25.494196 25.451748 25.463804 25.489510 25.433030 25.527273 25.401877 25.565035 25.370348 25.602797 25.338448 25.640559 25.306180 25.678322 25.273547 25.716084 25.240553 25.753846 25.207202 25.791608 25.173497 25.829371 25.139442 25.867133 25.105040 25.904895 25.070296 25.942657 25.035212 25.980420 24.999793 26.018182 24.964041 26.055944 24.927961 26.093706 24.891556 26.131469 24.854830 26.169231 24.817786 26.206993 24.780428 26.244755 24.742760 26.282517 24.704784 26.320280 24.666506 26.358042 24.627927 26.395804 24.589053 26.433566 24.549886 26.471329 24.510430 26.509091 24.470689 26.546853 24.430666 26.584615 24.390365 26.622378 24.349790 26.660140 24.308944 26.697902 24.267830 26.735664 24.226453 26.773427 24.184816 26.811189 24.142922 26.848951 24.100776 26.886713 24.058380 26.924476 24.015738 26.962238 23.972855 27.000000 23.929733 27.037762 23.886376 27.075524 23.842788 27.113287 23.798972 27.151049 23.754933 27.188811 23.710672 27.226573 23.666195 27.264336 23.621505 27.302098 23.576605 27.339860 23.531499 27.377622 23.486191 27.415385 23.440684 27.453147 23.394981 27.490909 23.349087 27.528671 23.303005 27.566434 23.256739 27.604196 23.210292 27.641958 23.163667 27.679720 23.116869 27.717483 23.069901 27.755245 23.022766 27.793007 22.975469 27.830769 22.928012 27.868531 22.880400 27.906294 22.832636 27.944056 22.784724 27.981818 22.736666 28.019580 22.688468 28.057343 22.640132 28.095105 22.591661 28.132867 22.543061 28.170629 22.494334 28.208392 22.445483 28.246154 22.396513 28.283916 22.347427 28.321678 22.298229 28.359441 22.248921 28.397203 22.199509 28.434965 22.149995 28.472727 22.100383 28.510490 22.050677 28.548252 22.000880 28.586014 21.950996 28.623776 21.901028 28.661538 21.850980 28.699301 21.800856 28.737063 21.750659 28.774825 21.700393 28.812587 21.650062 28.850350 21.599668 28.888112 21.549216 28.925874 21.498710 28.963636 21.448152 29.001399 21.397547 29.039161 21.346898 29.076923 21.296208 29.114685 21.245482 29.152448 21.194723 29.190210 21.143934 29.227972 21.093119 29.265734 21.042282 29.303497 20.991426 29.341259 20.940555 29.379021 20.889672 29.416783 20.838782 29.454545 20.787887 29.492308 20.736992 29.530070 20.686099 29.567832 20.635213 29.605594 20.584337 29.643357 20.533475 29.681119 20.482630 29.718881 20.431805 29.756643 20.381006 29.794406 20.330234 29.832168 20.279495 29.869930 20.228790 29.907692 20.178125 29.945455 20.127502 29.983217 20.076925 30.020979 20.026397 30.058741 19.975923 30.096503 19.925506 30.134266 19.875150 30.172028 19.824858 30.209790 19.774633 30.247552 19.724480 30.285315 19.674402 30.323077 19.624402 30.360839 19.574484 30.398601 19.524652 30.436364 19.474909 30.474126 19.425254 30.511888 19.375687 30.549650 19.326207 30.587413 19.276813 30.625175 19.227505 30.662937 19.178281 30.700699 19.129141 30.738462 19.080084 30.776224 19.031109 30.813986 18.982215 30.851748 18.933402 30.889510 18.884669 30.927273 18.836016 30.965035 18.787440 31.002797 18.738942 31.040559 18.690520 31.078322 18.642175 31.116084 18.593904 31.153846 18.545708 31.191608 18.497585 31.229371 18.449535 31.267133 18.401557 31.304895 18.353650 31.342657 18.305813 31.380420 18.258046 31.418182 18.210348 31.455944 18.162717 31.493706 18.115154 31.531469 18.067657 31.569231 18.020226 31.606993 17.972860 31.644755 17.925557 31.682517 17.878318 31.720280 17.831141 31.758042 17.784026 31.795804 17.736972 31.833566 17.689978 31.871329 17.643043 31.909091 17.596166 31.946853 17.549347 31.984615 17.502585 32.022378 17.455880 32.060140 17.409229 32.097902 17.362633 32.135664 17.316091 32.173427 17.269601 32.211189 17.223164 32.248951 17.176778 32.286713 17.130443 32.324476 17.084157 32.362238 17.037920 32.400000 16.991732 32.437762 16.945591 32.475524 16.899496 32.513287 16.853447 32.551049 16.807443 32.588811 16.761484 32.626573 16.715568 32.664336 16.669694 32.702098 16.623863 32.739860 16.578072 32.777622 16.532322 32.815385 16.486611 32.853147 16.440939 32.890909 16.395305 32.928671 16.349707 32.966434 16.304146 33.004196 16.258621 33.041958 16.213130 33.079720 16.167674 33.117483 16.122250 33.155245 16.076859 33.193007 16.031499 33.230769 15.986170 33.268531 15.940871 33.306294 15.895601 33.344056 15.850360 33.381818 15.805146 33.419580 15.759959 33.457343 15.714798 33.495105 15.669662 33.532867 15.624550 33.570629 15.579462 33.608392 15.534398 33.646154 15.489355 33.683916 15.444333 33.721678 15.399332 33.759441 15.354350 33.797203 15.309388 33.834965 15.264443 33.872727 15.219516 33.910490 15.174605 33.948252 15.129710 33.986014 15.084830 34.023776 15.039964 34.061538 14.995111 34.099301 14.950271 34.137063 14.905443 34.174825 14.860626 34.212587 14.815818 34.250350 14.771021 34.288112 14.726231 34.325874 14.681450 34.363636 14.636675 34.401399 14.591907 34.439161 14.547144 34.476923 14.502386 34.514685 14.457632 34.552448 14.412881 34.590210 14.368132 34.627972 14.323384 34.665734 14.278637 34.703497 14.233890 34.741259 14.189142 34.779021 14.144393 34.816783 14.099641 34.854545 14.054885 34.892308 14.010126 34.930070 13.965362 34.967832 13.920592 35.005594 13.875815 35.043357 13.831032 35.081119 13.786240 35.118881 13.741439 35.156643 13.696629 35.194406 13.651809 35.232168 13.606977 35.269930 13.562133 35.307692 13.517276 35.345455 13.472406 35.383217 13.427522 35.420979 13.382622 35.458741 13.337707 35.496503 13.292774 35.534266 13.247824 35.572028 13.202856 35.609790 13.157869 35.647552 13.112862 35.685315 13.067834 35.723077 13.022784 35.760839 12.977712 35.798601 12.932618 35.836364 12.887499 35.874126 12.842356 35.911888 12.797187 35.949650 12.751992 35.987413 12.706770 36.025175 12.661520 36.062937 12.616241 36.100699 12.570933 36.138462 12.525595 36.176224 12.480226 36.213986 12.434825 36.251748 12.389392 36.289510 12.343925 36.327273 12.298424 36.365035 12.252888 36.402797 12.207316 36.440559 12.161708 36.478322 12.116062 36.516084 12.070379 36.553846 12.024656 36.591608 11.978894 36.629371 11.933091 36.667133 11.887247 36.704895 11.841361 36.742657 11.795432 36.780420 11.749459 36.818182 11.703442 36.855944 11.657379 36.893706 11.611271 36.931469 11.565116 36.969231 11.518913 37.006993 11.472661 37.044755 11.426361 37.082517 11.380010 37.120280 11.333609 37.158042 11.287156 37.195804 11.240651 37.233566 11.194093 37.271329 11.147480 37.309091 11.100813 37.346853 11.054091 37.384615 11.007312 37.422378 10.960476 37.460140 10.913582 37.497902 10.866629 37.535664 10.819617 37.573427 10.772544 37.611189 10.725411 37.648951 10.678215 37.686713 10.630957 37.724476 10.583636 37.762238 10.536250 37.800000 10.488799 37.837762 10.441283 37.875524 10.393699 37.913287 10.346049 37.951049 10.298330 37.988811 10.250542 38.026573 10.202684 38.064336 10.154756 38.102098 10.106757 38.139860 10.058685 38.177622 10.010540 38.215385 9.962322 38.253147 9.914029 38.290909 9.865660 38.328671 9.817216 38.366434 9.768695 38.404196 9.720095 38.441958 9.671418 38.479720 9.622661 38.517483 9.573824 38.555245 9.524906 38.593007 9.475907 38.630769 9.426825 38.668531 9.377660 38.706294 9.328411 38.744056 9.279077 38.781818 9.229657 38.819580 9.180151 38.857343 9.130558 38.895105 9.080877 38.932867 9.031107 38.970629 8.981247 39.008392 8.931297 39.046154 8.881256 39.083916 8.831123 39.121678 8.780897 39.159441 8.730577 39.197203 8.680164 39.234965 8.629655 39.272727 8.579050 39.310490 8.528349 39.348252 8.477550 39.386014 8.426653 39.423776 8.375656 39.461538 8.324560 39.499301 8.273363 39.537063 8.222065 39.574825 8.170665 39.612587 8.119161 39.650350 8.067554 39.688112 8.015842 39.725874 7.964024 39.763636 7.912100 39.801399 7.860070 39.839161 7.807931 39.876923 7.755685 39.914685 7.703335 39.952448 7.650883 39.990210 7.598336 40.027972 7.545696 40.065734 7.492968 40.103497 7.440156 40.141259 7.387263 40.179021 7.334295 40.216783 7.281254 40.254545 7.228146 40.292308 7.174973 40.330070 7.121741 40.367832 7.068453 40.405594 7.015114 40.443357 6.961726 40.481119 6.908296 40.518881 6.854825 40.556643 6.801320 40.594406 6.747783 40.632168 6.694218 40.669930 6.640631 40.707692 6.587024 40.745455 6.533402 40.783217 6.479769 40.820979 6.426129 40.858741 6.372486 40.896503 6.318845 40.934266 6.265208 40.972028 6.211581 41.009790 6.157967 41.047552 6.104371 41.085315 6.050796 41.123077 5.997246 41.160839 5.943726 41.198601 5.890240 41.236364 5.836792 41.274126 5.783385 41.311888 5.730024 41.349650 5.676713 41.387413 5.623456 41.425175 5.570257 41.462937 5.517120 41.500699 5.464049 41.538462 5.411049 41.576224 5.358123 41.613986 5.305275 41.651748 5.252510 41.689510 5.199831 41.727273 5.147242 41.765035 5.094749 41.802797 5.042353 41.840559 4.990061 41.878322 4.937876 41.916084 4.885801 41.953846 4.833841 41.991608 4.782000 42.029371 4.730283 42.067133 4.678692 42.104895 4.627233 42.142657 4.575909 42.180420 4.524724 42.218182 4.473683 42.255944 4.422789 42.293706 4.372046 42.331469 4.321459 42.369231 4.271032 42.406993 4.220768 42.444755 4.170672 42.482517 4.120748 42.520280 4.071000 42.558042 4.021432 42.595804 3.972048 42.633566 3.922852 42.671329 3.873848 42.709091 3.825040 42.746853 3.776433 42.784615 3.728030 42.822378 3.679835 42.860140 3.631853 42.897902 3.584087 42.935664 3.536542 42.973427 3.489222 43.011189 3.442130 43.048951 3.395271 43.086713 3.348649 43.124476 3.302268 43.162238 3.256131 43.200000 3.210244 43.237762 3.164610 43.275524 3.119233 43.313287 3.074118 43.351049 3.029267 43.388811 2.984686 43.426573 2.940378 43.464336 2.896348 43.502098 2.852600 43.539860 2.809137 43.577622 2.765963 43.615385 2.723084 43.653147 2.680502 43.690909 2.638222 43.728671 2.596248 43.766434 2.554584 43.804196 2.513234 43.841958 2.472203 43.879720 2.431493 43.917483 2.391110 43.955245 2.351057 43.993007 2.311338 44.030769 2.271958 44.068531 2.232920 44.106294 2.194229 44.144056 2.155888 44.181818 2.117903 44.219580 2.080276 44.257343 2.043011 44.295105 2.006114 44.332867 1.969588 44.370629 1.933436 44.408392 1.897664 44.446154 1.862275 44.483916 1.827273 44.521678 1.792662 44.559441 1.758447 44.597203 1.724631 44.634965 1.691218 44.672727 1.658213 44.710490 1.625620 44.748252 1.593442 44.786014 1.561684 44.823776 1.530350 44.861538 1.499444 44.899301 1.468969 44.937063 1.438931 44.974825 1.409333 45.012587 1.380178 45.050350 1.351472 45.088112 1.323218 45.125874 1.295420 45.163636 1.268083 45.201399 1.241210 45.239161 1.214806 45.276923 1.188874 45.314685 1.163419 45.352448 1.138444 45.390210 1.113954 45.427972 1.089953 45.465734 1.066445 45.503497 1.043434 45.541259 1.020924 45.579021 0.998919 45.616783 0.977423 45.654545 0.956440 45.692308 0.935974 45.730070 0.916030 45.767832 0.896611 45.805594 0.877722 45.843357 0.859366 45.881119 0.841547 45.918881 0.824270 45.956643 0.807539 45.994406 0.791358 46.032168 0.775731 46.069930 0.760661 46.107692 0.746153 46.145455 0.732212 46.183217 0.718840 46.220979 0.706043 46.258741 0.693824 46.296503 0.682187 46.334266 0.671136 46.372028 0.660676 46.409790 0.650810 46.447552 0.641543 46.485315 0.632878 46.523077 0.624820 46.560839 0.617373 46.598601 0.610541 46.636364 0.604327 46.674126 0.598736 46.711888 0.593773 46.749650 0.589440 46.787413 0.585742 46.825175 0.582684 46.862937 0.580269 46.900699 0.578501 46.938462 0.577384 46.976224 0.576923 47.013986 0.577121 47.051748 0.577983 47.089510 0.579513 47.127273 0.581714 47.165035 0.584591 47.202797 0.588148 47.240559 0.592388 47.278322 0.597317 47.316084 0.602937 47.353846 0.609254 47.391608 0.616271 47.429371 0.623991 47.467133 0.632421 47.504895 0.641562 47.542657 0.651420 47.580420 0.661998 47.618182 0.673301 47.655944 0.685332 47.693706 0.698096 47.731469 0.711597 47.769231 0.725838 47.806993 0.740824 47.844755 0.756560 47.882517 0.773048 47.920280 0.790293 47.958042 0.808299 47.995804 0.827070 48.033566 0.846611 48.071329 0.866925 48.109091 0.888016 48.146853 0.909888 48.184615 0.932546 48.222378 0.955994 48.260140 0.980235 48.297902 1.005274 48.335664 1.031114 48.373427 1.057760 48.411189 1.085217 48.448951 1.113487 48.486713 1.142575 48.524476 1.172485 48.562238 1.203221 48.600000 1.234787 48.637762 1.267188 48.675524 1.300426 48.713287 1.334508 48.751049 1.369435 48.788811 1.405213 48.826573 1.441846 48.864336 1.479337 48.902098 1.517691 48.939860 1.556912 48.977622 1.597003 49.015385 1.637969 49.053147 1.679815 49.090909 1.722543 49.128671 1.766158 49.166434 1.810664 49.204196 1.856066 49.241958 1.902367 49.279720 1.949571 49.317483 1.997681 49.355245 2.046692 49.393007 2.096597 49.430769 2.147390 49.468531 2.199064 49.506294 2.251614 49.544056 2.305032 49.581818 2.359313 49.619580 2.414449 49.657343 2.470434 49.695105 2.527262 49.732867 2.584926 49.770629 2.643420 49.808392 2.702738 49.846154 2.762872 49.883916 2.823816 49.921678 2.885565 49.959441 2.948111 49.997203 3.011448 50.034965 3.075570 50.072727 3.140469 50.110490 3.206140 50.148252 3.272577 50.186014 3.339772 50.223776 3.407719 50.261538 3.476412 50.299301 3.545844 50.337063 3.616010 50.374825 3.686901 50.412587 3.758512 50.450350 3.830837 50.488112 3.903869 50.525874 3.977601 50.563636 4.052027 50.601399 4.127141 50.639161 4.202936 50.676923 4.279406 50.714685 4.356543 50.752448 4.434343 50.790210 4.512797 50.827972 4.591901 50.865734 4.671647 50.903497 4.752028 50.941259 4.833039 50.979021 4.914673 51.016783 4.996923 51.054545 5.079783 51.092308 5.163247 51.130070 5.247308 51.167832 5.331959 51.205594 5.417195 51.243357 5.503008 51.281119 5.589393 51.318881 5.676342 51.356643 5.763849 51.394406 5.851908 51.432168 5.940513 51.469930 6.029656 51.507692 6.119332 51.545455 6.209533 51.583217 6.300254 51.620979 6.391489 51.658741 6.483229 51.696503 6.575470 51.734266 6.668204 51.772028 6.761426 51.809790 6.855128 51.847552 6.949304 51.885315 7.043948 51.923077 7.139054 51.960839 7.234614 51.998601 7.330623 52.036364 7.427073 52.074126 7.523959 52.111888 7.621274 52.149650 7.719011 52.187413 7.817164 52.225175 7.915727 52.262937 8.014693 52.300699 8.114056 52.338462 8.213809 52.376224 8.313945 52.413986 8.414459 52.451748 8.515343 52.489510 8.616592 52.527273 8.718199 52.565035 8.820157 52.602797 8.922460 52.640559 9.025101 52.678322 9.128074 52.716084 9.231373 52.753846 9.334991 52.791608 9.438921 52.829371 9.543158 52.867133 9.647694 52.904895 9.752524 52.942657 9.857640 52.980420 9.963036 53.018182 10.068706 53.055944 10.174644 53.093706 10.280842 53.131469 10.387295 53.169231 10.493996 53.206993 10.600938 53.244755 10.708115 53.282517 10.815521 53.320280 10.923148 53.358042 11.030992 53.395804 11.139044 53.433566 11.247299 53.471329 11.355751 53.509091 11.464392 53.546853 11.573216 53.584615 11.682217 53.622378 11.791389 53.660140 11.900724 53.697902 12.010217 53.735664 12.119861 53.773427 12.229649 53.811189 12.339576 53.848951 12.449633 53.886713 12.559816 53.924476 12.670118 53.962238 12.780532 54.000000 12.891051 54.037762 13.001670 54.075524 13.112381 54.113287 13.223179 54.151049 13.334057 54.188811 13.445008 54.226573 13.556025 54.264336 13.667104 54.302098 13.778236 54.339860 13.889416 54.377622 14.000637 54.415385 14.111892 54.453147 14.223176 54.490909 14.334481 54.528671 14.445801 54.566434 14.557130 54.604196 14.668461 54.641958 14.779789 54.679720 14.891105 54.717483 15.002404 54.755245 15.113680 54.793007 15.224926 54.830769 15.336135 54.868531 15.447301 54.906294 15.558417 54.944056 15.669478 54.981818 15.780476 55.019580 15.891406 55.057343 16.002260 55.095105 16.113032 55.132867 16.223716 55.170629 16.334305 55.208392 16.444793 55.246154 16.555174 55.283916 16.665440 55.321678 16.775586 55.359441 16.885605 55.397203 16.995490 55.434965 17.105235 55.472727 17.214834 55.510490 17.324280 55.548252 17.433566 55.586014 17.542687 55.623776 17.651635 55.661538 17.760405 55.699301 17.868989 55.737063 17.977382 55.774825 18.085576 55.812587 18.193566 55.850350 18.301345 55.888112 18.408906 55.925874 18.516243 55.963636 18.623349 56.001399 18.730219 56.039161 18.836845 56.076923 18.943222 56.114685 19.049342 56.152448 19.155199 56.190210 19.260787 56.227972 19.366099 56.265734 19.471129 56.303497 19.575870 56.341259 19.680316 56.379021 19.784461 56.416783 19.888297 56.454545 19.991819 56.492308 20.095020 56.530070 20.197894 56.567832 20.300433 56.605594 20.402632 56.643357 20.504484 56.681119 20.605983 56.718881 20.707122 56.756643 20.807895 56.794406 20.908295 56.832168 21.008316 56.869930 21.107951 56.907692 21.207195 56.945455 21.306039 56.983217 21.404479 57.020979 21.502507 57.058741 21.600117 57.096503 21.697302 57.134266 21.794057 57.172028 21.890374 57.209790 21.986247 57.247552 22.081671 57.285315 22.176637 57.323077 22.271140 57.360839 22.365173 57.398601 22.458731 57.436364 22.551805 57.474126 22.644391 57.511888 22.736481 57.549650 22.828069 57.587413 22.919148 57.625175 23.009712 57.662937 23.099755 57.700699 23.189270 57.738462 23.278251 57.776224 23.366691 57.813986 23.454584 57.851748 23.541923 57.889510 23.628701 57.927273 23.714913 57.965035 23.800552 58.002797 23.885612 58.040559 23.970085 58.078322 24.053965 58.116084 24.137247 58.153846 24.219923 58.191608 24.301987 58.229371 24.383433 58.267133 24.464254 58.304895 24.544444 58.342657 24.623996 58.380420 24.702903 58.418182 24.781160 58.455944 24.858760 58.493706 24.935696 58.531469 25.011961 58.569231 25.087551 58.606993 25.162457 58.644755 25.236674 58.682517 25.310194 58.720280 25.383012 58.758042 25.455123 58.795804 25.526526 58.833566 25.597224 58.871329 25.667217 58.909091 25.736508 58.946853 25.805097 58.984615 25.872987 59.022378 25.940178 59.060140 26.006674 59.097902 26.072474 59.135664 26.137581 59.173427 26.201996 59.211189 26.265720 59.248951 26.328756 59.286713 26.391105 59.324476 26.452768 59.362238 26.513746 59.400000 26.574043 59.437762 26.633658 59.475524 26.692594 59.513287 26.750852 59.551049 26.808433 59.588811 26.865340 59.626573 26.921574 59.664336 26.977136 59.702098 27.032027 59.739860 27.086250 59.777622 27.139806 59.815385 27.192697 59.853147 27.244923 59.890909 27.296487 59.928671 27.347391 59.966434 27.397635 60.004196 27.447221 60.041958 27.496151 60.079720 27.544426 60.117483 27.592049 60.155245 27.639019 60.193007 27.685340 60.230769 27.731012 60.268531 27.776038 60.306294 27.820418 60.344056 27.864154 60.381818 27.907248 60.419580 27.949701 60.457343 27.991515 60.495105 28.032692 60.532867 28.073232 60.570629 28.113138 60.608392 28.152411 60.646154 28.191053 60.683916 28.229064 60.721678 28.266448 60.759441 28.303205 60.797203 28.339336 60.834965 28.374844 60.872727 28.409730 60.910490 28.443995 60.948252 28.477641 60.986014 28.510670 61.023776 28.543083 61.061538 28.574882 61.099301 28.606067 61.137063 28.636642 61.174825 28.666607 61.212587 28.695963 61.250350 28.724713 61.288112 28.752859 61.325874 28.780400 61.363636 28.807340 61.401399 28.833679 61.439161 28.859419 61.476923 28.884562 61.514685 28.909110 61.552448 28.933063 61.590210 28.956424 61.627972 28.979193 61.665734 29.001373 61.703497 29.022965 61.741259 29.043970 61.779021 29.064391 61.816783 29.084228 61.854545 29.103484 61.892308 29.122159 61.930070 29.140256 61.967832 29.157775 62.005594 29.174719 62.043357 29.191089 62.081119 29.206886 62.118881 29.222112 62.156643 29.236769 62.194406 29.250858 62.232168 29.264381 62.269930 29.277340 62.307692 29.289735 62.345455 29.301568 62.383217 29.312841 62.420979 29.323556 62.458741 29.333714 62.496503 29.343316 62.534266 29.352364 62.572028 29.360860 62.609790 29.368806 62.647552 29.376202 62.685315 29.383050 62.723077 29.389353 62.760839 29.395110 62.798601 29.400325 62.836364 29.404998 62.874126 29.409132 62.911888 29.412727 62.949650 29.415785 62.987413 29.418307 63.025175 29.420296 63.062937 29.421753 63.100699 29.422680 63.138462 29.423077 63.176224 29.422947 63.213986 29.422290 63.251748 29.421110 63.289510 29.419406 63.327273 29.417181 63.365035 29.414436 63.402797 29.411174 63.440559 29.407394 63.478322 29.403099 63.516084 29.398291 63.553846 29.392971 63.591608 29.387140 63.629371 29.380800 63.667133 29.373953 63.704895 29.366601 63.742657 29.358743 63.780420 29.350384 63.818182 29.341523 63.855944 29.332162 63.893706 29.322303 63.931469 29.311948 63.969231 29.301098 64.006993 29.289754 64.044755 29.277919 64.082517 29.265593 64.120280 29.252779 64.158042 29.239477 64.195804 29.225689 64.233566 29.211418 64.271329 29.196664 64.309091 29.181429 64.346853 29.165714 64.384615 29.149522 64.422378 29.132853 64.460140 29.115709 64.497902 29.098092 64.535664 29.080004 64.573427 29.061445 64.611189 29.042417 64.648951 29.022923 64.686713 29.002963 64.724476 28.982539 64.762238 28.961653 64.800000 28.940306 64.837762 28.918499 64.875524 28.896235 64.913287 28.873514 64.951049 28.850339 64.988811 28.826711 65.026573 28.802631 65.064336 28.778101 65.102098 28.753123 65.139860 28.727698 65.177622 28.701828 65.215385 28.675513 65.253147 28.648757 65.290909 28.621559 65.328671 28.593923 65.366434 28.565849 65.404196 28.537339 65.441958 28.508394 65.479720 28.479017 65.517483 28.449208 65.555245 28.418969 65.593007 28.388302 65.630769 28.357208 65.668531 28.325689 65.706294 28.293746 65.744056 28.261382 65.781818 28.228596 65.819580 28.195392 65.857343 28.161770 65.895105 28.127732 65.932867 28.093280 65.970629 28.058416 66.008392 28.023140 66.046154 27.987454 66.083916 27.951360 66.121678 27.914859 66.159441 27.877954 66.197203 27.840645 66.234965 27.802934 66.272727 27.764822 66.310490 27.726312 66.348252 27.687405 66.386014 27.648101 66.423776 27.608404 66.461538 27.568314 66.499301 27.527833 66.537063 27.486962 66.574825 27.445703 66.612587 27.404058 66.650350 27.362028 66.688112 27.319614 66.725874 27.276819 66.763636 27.233644 66.801399 27.190090 66.839161 27.146158 66.876923 27.101852 66.914685 27.057171 66.952448 27.012117 66.990210 26.966693 67.027972 26.920899 67.065734 26.874738 67.103497 26.828210 67.141259 26.781317 67.179021 26.734062 67.216783 26.686444 67.254545 26.638467 67.292308 26.590131 67.330070 26.541438 67.367832 26.492389 67.405594 26.442987 67.443357 26.393232 67.481119 26.343127 67.518881 26.292672 67.556643 26.241870 67.594406 26.190721 67.632168 26.139228 67.669930 26.087392 67.707692 26.035215 67.745455 25.982697 67.783217 25.929841 67.820979 25.876648 67.858741 25.823120 67.896503 25.769259 67.934266 25.715065 67.972028 25.660540 68.009790 25.605687 68.047552 25.550506 68.085315 25.494998 68.123077 25.439167 68.160839 25.383012 68.198601 25.326537 68.236364 25.269746 68.274126 25.212642 68.311888 25.155231 68.349650 25.097518 68.387413 25.039508 68.425175 24.981205 68.462937 24.922614 68.500699 24.863739 68.538462 24.804587 68.576224 24.745160 68.613986 24.685465 68.651748 24.625505 68.689510 24.565286 68.727273 24.504812 68.765035 24.444089 68.802797 24.383120 68.840559 24.321911 68.878322 24.260466 68.916084 24.198791 68.953846 24.136889 68.991608 24.074767 69.029371 24.012427 69.067133 23.949876 69.104895 23.887118 69.142657 23.824158 69.180420 23.761000 69.218182 23.697649 69.255944 23.634110 69.293706 23.570389 69.331469 23.506488 69.369231 23.442415 69.406993 23.378172 69.444755 23.313765 69.482517 23.249198 69.520280 23.184477 69.558042 23.119607 69.595804 23.054591 69.633566 22.989434 69.671329 22.924143 69.709091 22.858720 69.746853 22.793171 69.784615 22.727501 69.822378 22.661715 69.860140 22.595817 69.897902 22.529811 69.935664 22.463704 69.973427 22.397499 70.011189 22.331201 70.048951 22.264816 70.086713 22.198347 70.124476 22.131800 70.162238 22.065179 70.200000 21.998489 70.237762 21.931736 70.275524 21.864922 70.313287 21.798055 70.351049 21.731137 70.388811 21.664174 70.426573 21.597171 70.464336 21.530133 70.502098 21.463063 70.539860 21.395968 70.577622 21.328851 70.615385 21.261718 70.653147 21.194573 70.690909 21.127421 70.728671 21.060267 70.766434 20.993116 70.804196 20.925972 70.841958 20.858840 70.879720 20.791724 70.917483 20.724631 70.955245 20.657563 70.993007 20.590527 71.030769 20.523527 71.068531 20.456568 71.106294 20.389653 71.144056 20.322789 71.181818 20.255980 71.219580 20.189231 71.257343 20.122546 71.295105 20.055931 71.332867 19.989389 71.370629 19.922926 71.408392 19.856547 71.446154 19.790256 71.483916 19.724058 71.521678 19.657958 71.559441 19.591960 71.597203 19.526070 71.634965 19.460292 71.672727 19.394631 71.710490 19.329091 71.748252 19.263678 71.786014 19.198396 71.823776 19.133249 71.861538 19.068244 71.899301 19.003384 71.937063 18.938674 71.974825 18.874119 72.012587 18.809724 72.050350 18.745493 72.088112 18.681432 72.125874 18.617545 72.163636 18.553836 72.201399 18.490311 72.239161 18.426974 72.276923 18.363831 72.314685 18.300885 72.352448 18.238142 72.390210 18.175606 72.427972 18.113282 72.465734 18.051175 72.503497 17.989290 72.541259 17.927632 72.579021 17.866204 72.616783 17.805012 72.654545 17.744061 72.692308 17.683356 72.730070 17.622901 72.767832 17.562700 72.805594 17.502760 72.843357 17.443084 72.881119 17.383677 72.918881 17.324545 72.956643 17.265691 72.994406 17.207121 73.032168 17.148839 73.069930 17.090850 73.107692 17.033159 73.145455 16.975771 73.183217 16.918690 73.220979 16.861921 73.258741 16.805469 73.296503 16.749339 73.334266 16.693535 73.372028 16.638062 73.409790 16.582926 73.447552 16.528130 73.485315 16.473679 73.523077 16.419579 73.560839 16.365834 73.598601 16.312449 73.636364 16.259428 73.674126 16.206776 73.711888 16.154499 73.749650 16.102600 73.787413 16.051085 73.825175 15.999959 73.862937 15.949225 73.900699 15.898889 73.938462 15.848956 73.976224 15.799431 74.013986 15.750317 74.051748 15.701621 74.089510 15.653346 74.127273 15.605498 74.165035 15.558081 74.202797 15.511099 74.240559 15.464559 74.278322 15.418464 74.316084 15.372819 74.353846 15.327630 74.391608 15.282900 74.429371 15.238635 74.467133 15.194839 74.504895 15.151517 74.542657 15.108674 74.580420 15.066315 74.618182 15.024444 74.655944 14.983066 74.693706 14.942186 74.731469 14.901809 74.769231 14.861939 74.806993 14.822582 74.844755 14.783741 74.882517 14.745422 74.920280 14.707630 74.958042 14.670368 74.995804 14.633643 75.033566 14.597459 75.071329 14.561820 75.109091 14.526731 75.146853 14.492198 75.184615 14.458224 75.222378 14.424815 75.260140 14.391975 75.297902 14.359709 75.335664 14.328023 75.373427 14.296920 75.411189 14.266405 75.448951 14.236483 75.486713 14.207160 75.524476 14.178439 75.562238 14.150325 75.600000 14.122824 75.637762 14.095939 75.675524 14.069677 75.713287 14.044041 75.751049 14.019036 75.788811 13.994667 75.826573 13.970939 75.864336 13.947857 75.902098 13.925425 75.939860 13.903648 75.977622 13.882530 76.015385 13.862078 76.053147 13.842295 76.090909 13.823186 76.128671 13.804755 76.166434 13.787009 76.204196 13.769951 76.241958 13.753586 76.279720 13.737919 76.317483 13.722955 76.355245 13.708698 76.393007 13.695153 76.430769 13.682326 76.468531 13.670220 76.506294 13.658841 76.544056 13.648193 76.581818 13.638281 76.619580 13.629110 76.657343 13.620684 76.695105 13.613009 76.732867 13.606089 76.770629 13.599929 76.808392 13.594534 76.846154 13.589907 76.883916 13.586055 76.921678 13.582982 76.959441 13.580693 76.997203 13.579192 77.034965 13.578484 77.072727 13.578574 77.110490 13.579467 77.148252 13.581168 77.186014 13.583681 77.223776 13.587010 77.261538 13.591162 77.299301 13.596140 77.337063 13.601949 77.374825 13.608595 77.412587 13.616081 77.450350 13.624413 77.488112 13.633595 77.525874 13.643633 77.563636 13.654530 77.601399 13.666292 77.639161 13.678921 77.676923 13.692413 77.714685 13.706760 77.752448 13.721955 77.790210 13.737991 77.827972 13.754861 77.865734 13.772557 77.903497 13.791074 77.941259 13.810403 77.979021 13.830537 78.016783 13.851470 78.054545 13.873194 78.092308 13.895702 78.130070 13.918987 78.167832 13.943043 78.205594 13.967861 78.243357 13.993434 78.281119 14.019757 78.318881 14.046821 78.356643 14.074619 78.394406 14.103145 78.432168 14.132391 78.469930 14.162350 78.507692 14.193015 78.545455 14.224379 78.583217 14.256435 78.620979 14.289175 78.658741 14.322593 78.696503 14.356682 78.734266 14.391434 78.772028 14.426842 78.809790 14.462900 78.847552 14.499599 78.885315 14.536934 78.923077 14.574896 78.960839 14.613479 78.998601 14.652676 79.036364 14.692479 79.074126 14.732882 79.111888 14.773877 79.149650 14.815457 79.187413 14.857615 79.225175 14.900345 79.262937 14.943638 79.300699 14.987488 79.338462 15.031888 79.376224 15.076831 79.413986 15.122308 79.451748 15.168315 79.489510 15.214843 79.527273 15.261884 79.565035 15.309433 79.602797 15.357482 79.640559 15.406024 79.678322 15.455052 79.716084 15.504558 79.753846 15.554536 79.791608 15.604978 79.829371 15.655877 79.867133 15.707227 79.904895 15.759020 79.942657 15.811249 79.980420 15.863907 80.018182 15.916987 80.055944 15.970481 80.093706 16.024383 80.131469 16.078686 80.169231 16.133382 80.206993 16.188464 80.244755 16.243926 80.282517 16.299760 80.320280 16.355958 80.358042 16.412515 80.395804 16.469422 80.433566 16.526673 80.471329 16.584261 80.509091 16.642178 80.546853 16.700417 80.584615 16.758972 80.622378 16.817834 80.660140 16.876998 80.697902 16.936456 80.735664 16.996201 80.773427 17.056225 80.811189 17.116522 80.848951 17.177085 80.886713 17.237905 80.924476 17.298978 80.962238 17.360294 81.000000 17.421848 81.037762 17.483631 81.075524 17.545638 81.113287 17.607860 81.151049 17.670291 81.188811 17.732924 81.226573 17.795751 81.264336 17.858765 81.302098 17.921960 81.339860 17.985328 81.377622 18.048862 81.415385 18.112555 81.453147 18.176399 81.490909 18.240389 81.528671 18.304516 81.566434 18.368774 81.604196 18.433155 81.641958 18.497652 81.679720 18.562259 81.717483 18.626968 81.755245 18.691771 81.793007 18.756663 81.830769 18.821636 81.868531 18.886682 81.906294 18.951795 81.944056 19.016967 81.981818 19.082192 82.019580 19.147462 82.057343 19.212770 82.095105 19.278109 82.132867 19.343472 82.170629 19.408853 82.208392 19.474242 82.246154 19.539635 82.283916 19.605023 82.321678 19.670400 82.359441 19.735757 82.397203 19.801089 82.434965 19.866389 82.472727 19.931648 82.510490 19.996860 82.548252 20.062018 82.586014 20.127115 82.623776 20.192143 82.661538 20.257096 82.699301 20.321966 82.737063 20.386747 82.774825 20.451431 82.812587 20.516011 82.850350 20.580479 82.888112 20.644830 82.925874 20.709056 82.963636 20.773149 83.001399 20.837102 83.039161 20.900910 83.076923 20.964563 83.114685 21.028056 83.152448 21.091381 83.190210 21.154531 83.227972 21.217499 83.265734 21.280278 83.303497 21.342860 83.341259 21.405239 83.379021 21.467408 83.416783 21.529359 83.454545 21.591085 83.492308 21.652580 83.530070 21.713835 83.567832 21.774845 83.605594 21.835602 83.643357 21.896098 83.681119 21.956327 83.718881 22.016282 83.756643 22.075955 83.794406 22.135339 83.832168 22.194428 83.869930 22.253214 83.907692 22.311690 83.945455 22.369849 83.983217 22.427683 84.020979 22.485187 84.058741 22.542352 84.096503 22.599172 84.134266 22.655639 84.172028 22.711746 84.209790 22.767487 84.247552 22.822854 84.285315 22.877839 84.323077 22.932437 84.360839 22.986639 84.398601 23.040440 84.436364 23.093830 84.474126 23.146805 84.511888 23.199355 84.549650 23.251475 84.587413 23.303157 84.625175 23.354394 84.662937 23.405180 84.700699 23.455506 84.738462 23.505365 84.776224 23.554752 84.813986 23.603658 84.851748 23.652076 84.889510 23.700000 84.927273 23.747422 84.965035 23.794335 85.002797 23.840732 85.040559 23.886606 85.078322 23.931950 85.116084 23.976756 85.153846 24.021018 85.191608 24.064729 85.229371 24.107881 85.267133 24.150467 85.304895 24.192481 85.342657 24.233915 85.380420 24.274761 85.418182 24.315014 85.455944 24.354665 85.493706 24.393708 85.531469 24.432135 85.569231 24.469940 85.606993 24.507115 85.644755 24.543654 85.682517 24.579549 85.720280 24.614792 85.758042 24.649378 85.795804 24.683298 85.833566 24.716547 85.871329 24.749115 85.909091 24.780998 85.946853 24.812186 85.984615 24.842674 86.022378 24.872455 86.060140 24.901520 86.097902 24.929863 86.135664 24.957477 86.173427 24.984355 86.211189 25.010490 86.248951 25.035874 86.286713 25.060501 86.324476 25.084363 86.362238 25.107453 86.400000 25.129765 86.437762 25.151290 86.475524 25.172023 86.513287 25.191955 86.551049 25.211080 86.588811 25.229391 86.626573 25.246880 86.664336 25.263541 86.702098 25.279366 86.739860 25.294348 86.777622 25.308480 86.815385 25.321756 86.853147 25.334167 86.890909 25.345707 86.928671 25.356368 86.966434 25.366145 87.004196 25.375028 87.041958 25.383012 87.079720 25.390092 87.117483 25.396270 87.155245 25.401553 87.193007 25.405947 87.230769 25.409456 87.268531 25.412087 87.306294 25.413845 87.344056 25.414736 87.381818 25.414765 87.419580 25.413939 87.457343 25.412262 87.495105 25.409741 87.532867 25.406381 87.570629 25.402188 87.608392 25.397168 87.646154 25.391325 87.683916 25.384667 87.721678 25.377198 87.759441 25.368924 87.797203 25.359850 87.834965 25.349984 87.872727 25.339329 87.910490 25.327892 87.948252 25.315679 87.986014 25.302694 88.023776 25.288944 88.061538 25.274435 88.099301 25.259172 88.137063 25.243160 88.174825 25.226406 88.212587 25.208915 88.250350 25.190693 88.288112 25.171745 88.325874 25.152076 88.363636 25.131694 88.401399 25.110603 88.439161 25.088809 88.476923 25.066317 88.514685 25.043134 88.552448 25.019265 88.590210 24.994715 88.627972 24.969491 88.665734 24.943597 88.703497 24.917040 88.741259 24.889826 88.779021 24.861959 88.816783 24.833446 88.854545 24.804292 88.892308 24.774503 88.930070 24.744084 88.967832 24.713042 89.005594 24.681381 89.043357 24.649108 89.081119 24.616229 89.118881 24.582748 89.156643 24.548671 89.194406 24.514005 89.232168 24.478754 89.269930 24.442925 89.307692 24.406523 89.345455 24.369554 89.383217 24.332023 89.420979 24.293937 89.458741 24.255300 89.496503 24.216118 89.534266 24.176398 89.572028 24.136144 89.609790 24.095363 89.647552 24.054060 89.685315 24.012240 89.723077 23.969910 89.760839 23.927075 89.798601 23.883740 89.836364 23.839912 89.874126 23.795596 89.911888 23.750798 89.949650 23.705522 89.987413 23.659776 90.025175 23.613565 90.062937 23.566893 90.100699 23.519768 90.138462 23.472194 90.176224 23.424178 90.213986 23.375724 90.251748 23.326839 90.289510 23.277529 90.327273 23.227798 90.365035 23.177653 90.402797 23.127099 90.440559 23.076141 90.478322 23.024787 90.516084 22.973040 90.553846 22.920908 90.591608 22.868395 90.629371 22.815507 90.667133 22.762250 90.704895 22.708629 90.742657 22.654651 90.780420 22.600320 90.818182 22.545643 90.855944 22.490625 90.893706 22.435271 90.931469 22.379589 90.969231 22.323582 91.006993 22.267257 91.044755 22.210619 91.082517 22.153674 91.120280 22.096429 91.158042 22.038887 91.195804 21.981056 91.233566 21.922940 91.271329 21.864546 91.309091 21.805878 91.346853 21.746944 91.384615 21.687747 91.422378 21.628295 91.460140 21.568592 91.497902 21.508645 91.535664 21.448459 91.573427 21.388039 91.611189 21.327391 91.648951 21.266522 91.686713 21.205436 91.724476 21.144139 91.762238 21.082638 91.800000 21.020936 91.837762 20.959041 91.875524 20.896958 91.913287 20.834693 91.951049 20.772251 91.988811 20.709637 92.026573 20.646858 92.064336 20.583920 92.102098 20.520827 92.139860 20.457585 92.177622 20.394201 92.215385 20.330680 92.253147 20.267027 92.290909 20.203248 92.328671 20.139349 92.366434 20.075336 92.404196 20.011213 92.441958 19.946988 92.479720 19.882665 92.517483 19.818249 92.555245 19.753748 92.593007 19.689166 92.630769 19.624509 92.668531 19.559783 92.706294 19.494993 92.744056 19.430146 92.781818 19.365246 92.819580 19.300299 92.857343 19.235311 92.895105 19.170288 92.932867 19.105236 92.970629 19.040159 93.008392 18.975064 93.046154 18.909956 93.083916 18.844841 93.121678 18.779725 93.159441 18.714613 93.197203 18.649512 93.234965 18.584425 93.272727 18.519360 93.310490 18.454322 93.348252 18.389316 93.386014 18.324349 93.423776 18.259426 93.461538 18.194552 93.499301 18.129733 93.537063 18.064975 93.574825 18.000284 93.612587 17.935665 93.650350 17.871124 93.688112 17.806666 93.725874 17.742297 93.763636 17.678023 93.801399 17.613850 93.839161 17.549783 93.876923 17.485828 93.914685 17.421990 93.952448 17.358275 93.990210 17.294689 94.027972 17.231237 94.065734 17.167925 94.103497 17.104760 94.141259 17.041745 94.179021 16.978888 94.216783 16.916193 94.254545 16.853667 94.292308 16.791315 94.330070 16.729142 94.367832 16.667155 94.405594 16.605359 94.443357 16.543759 94.481119 16.482362 94.518881 16.421173 94.556643 16.360198 94.594406 16.299441 94.632168 16.238910 94.669930 16.178609 94.707692 16.118545 94.745455 16.058723 94.783217 15.999148 94.820979 15.939826 94.858741 15.880763 94.896503 15.821965 94.934266 15.763437 94.972028 15.705185 95.009790 15.647215 95.047552 15.589532 95.085315 15.532141 95.123077 15.475049 95.160839 15.418262 95.198601 15.361784 95.236364 15.305622 95.274126 15.249780 95.311888 15.194266 95.349650 15.139084 95.387413 15.084240 95.425175 15.029740 95.462937 14.975590 95.500699 14.921794 95.538462 14.868360 95.576224 14.815291 95.613986 14.762595 95.651748 14.710277 95.689510 14.658342 95.727273 14.606796 95.765035 14.555644 95.802797 14.504894 95.840559 14.454549 95.878322 14.404616 95.916084 14.355100 95.953846 14.306007 95.991608 14.257343 96.029371 14.209113 96.067133 14.161323 96.104895 14.113979 96.142657 14.067086 96.180420 14.020650 96.218182 13.974677 96.255944 13.929172 96.293706 13.884140 96.331469 13.839589 96.369231 13.795523 96.406993 13.751947 96.444755 13.708868 96.482517 13.666292 96.520280 13.624222 96.558042 13.582658 96.595804 13.541597 96.633566 13.501039 96.671329 13.460980 96.709091 13.421419 96.746853 13.382354 96.784615 13.343782 96.822378 13.305702 96.860140 13.268111 96.897902 13.231009 96.935664 13.194391 96.973427 13.158257 97.011189 13.122605 97.048951 13.087432 97.086713 13.052736 97.124476 13.018516 97.162238 12.984769 97.200000 12.951494 97.237762 12.918688 97.275524 12.886349 97.313287 12.854475 97.351049 12.823065 97.388811 12.792115 97.426573 12.761625 97.464336 12.731592 97.502098 12.702014 97.539860 12.672889 97.577622 12.644215 97.615385 12.615989 97.653147 12.588211 97.690909 12.560878 97.728671 12.533988 97.766434 12.507538 97.804196 12.481527 97.841958 12.455953 97.879720 12.430814 97.917483 12.406108 97.955245 12.381832 97.993007 12.357985 98.030769 12.334564 98.068531 12.311568 98.106294 12.288995 98.144056 12.266842 98.181818 12.245108 98.219580 12.223790 98.257343 12.202886 98.295105 12.182395 98.332867 12.162315 98.370629 12.142642 98.408392 12.123376 98.446154 12.104515 98.483916 12.086055 98.521678 12.067996 98.559441 12.050335 98.597203 12.033070 98.634965 12.016199 98.672727 11.999720 98.710490 11.983631 98.748252 11.967931 98.786014 11.952616 98.823776 11.937685 98.861538 11.923136 98.899301 11.908967 98.937063 11.895176 98.974825 11.881761 99.012587 11.868720 99.050350 11.856050 99.088112 11.843750 99.125874 11.831818 99.163636 11.820251 99.201399 11.809048 99.239161 11.798207 99.276923 11.787725 99.314685 11.777601 99.352448 11.767833 99.390210 11.758418 99.427972 11.749354 99.465734 11.740640 99.503497 11.732273 99.541259 11.724251 99.579021 11.716573 99.616783 11.709236 99.654545 11.702239 99.692308 11.695578 99.730070 11.689253 99.767832 11.683261 99.805594 11.677600 99.843357 11.672268 99.881119 11.667264 99.918881 11.662584 99.956643 11.658227 99.994406 11.654192 100.032168 11.650475 100.069930 11.647075 100.107692 11.643990 100.145455 11.641218 100.183217 11.638757 100.220979 11.636605 100.258741 11.634759 100.296503 11.633218 100.334266 11.631980 100.372028 11.631043 100.409790 11.630404 100.447552 11.630061 100.485315 11.630014 100.523077 11.630258 100.560839 11.630794 100.598601 11.631617 100.636364 11.632728 100.674126 11.634122 100.711888 11.635799 100.749650 11.637757 100.787413 11.639992 100.825175 11.642504 100.862937 11.645291 100.900699 11.648349 100.938462 11.651678 100.976224 11.655275 101.013986 11.659138 101.051748 11.663265 101.089510 11.667654 101.127273 11.672303 101.165035 11.677210 101.202797 11.682373 101.240559 11.687790 101.278322 11.693459 101.316084 11.699378 101.353846 11.705545 101.391608 11.711957 101.429371 11.718614 101.467133 11.725512 101.504895 11.732650 101.542657 11.740025 101.580420 11.747636 101.618182 11.755481 101.655944 11.763557 101.693706 11.771863 101.731469 11.780397 101.769231 11.789156 101.806993 11.798138 101.844755 11.807342 101.882517 11.816765 101.920280 11.826406 101.958042 11.836262 101.995804 11.846331 102.033566 11.856612 102.071329 11.867102 102.109091 11.877799 102.146853 11.888701 102.184615 11.899806 102.222378 11.911113 102.260140 11.922618 102.297902 11.934321 102.335664 11.946219 102.373427 11.958309 102.411189 11.970591 102.448951 11.983061 102.486713 11.995719 102.524476 12.008561 102.562238 12.021586 102.600000 12.034792 102.637762 12.048177 102.675524 12.061739 102.713287 12.075475 102.751049 12.089384 102.788811 12.103463 102.826573 12.117711 102.864336 12.132126 102.902098 12.146705 102.939860 12.161447 102.977622 12.176350 103.015385 12.191410 103.053147 12.206628 103.090909 12.221999 103.128671 12.237523 103.166434 12.253197 103.204196 12.269020 103.241958 12.284989 103.279720 12.301102 103.317483 12.317357 103.355245 12.333753 103.393007 12.350286 103.430769 12.366956 103.468531 12.383760 103.506294 12.400696 103.544056 12.417762 103.581818 12.434956 103.619580 12.452275 103.657343 12.469719 103.695105 12.487285 103.732867 12.504970 103.770629 12.522774 103.808392 12.540693 103.846154 12.558726 103.883916 12.576870 103.921678 12.595125 103.959441 12.613487 103.997203 12.631954 104.034965 12.650525 104.072727 12.669198 104.110490 12.687971 104.148252 12.706841 104.186014 12.725806 104.223776 12.744865 104.261538 12.764015 104.299301 12.783255 104.337063 12.802582 104.374825 12.821994 104.412587 12.841490 104.450350 12.861066 104.488112 12.880723 104.525874 12.900456 104.563636 12.920264 104.601399 12.940146 104.639161 12.960099 104.676923 12.980120 104.714685 13.000209 104.752448 13.020363 104.790210 13.040580 104.827972 13.060857 104.865734 13.081194 104.903497 13.101588 104.941259 13.122036 104.979021 13.142537 105.016783 13.163089 105.054545 13.183690 105.092308 13.204338 105.130070 13.225030 105.167832 13.245765 105.205594 13.266540 105.243357 13.287354 105.281119 13.308205 105.318881 13.329090 105.356643 13.350008 105.394406 13.370956 105.432168 13.391932 105.469930 13.412935 105.507692 13.433963 105.545455 13.455012 105.583217 13.476082 105.620979 13.497171 105.658741 13.518275 105.696503 13.539394 105.734266 13.560525 105.772028 13.581666 105.809790 13.602816 105.847552 13.623971 105.885315 13.645130 105.923077 13.666292" class="line reactive nofill" /></g></g><g class="titles" /><g transform="translate(82, 10)" class="plot overlay"><g class="series serie-0 color-0" /></g><g transform="translate(82, 10)" class="plot text-overlay"><g class="series serie-0 color-0" /></g><g transform="translate(82, 10)" class="plot tooltip-overlay"><g transform="translate(0 0)" style="opacity: 0" class="tooltip"><rect rx="0" ry="0" width="0" height="0" class="tooltip-box" /><g class="text" /></g></g></g></svg>