<?xml version='1.0' encoding='utf-8'?>
<svg xmlns="http://www.w3.org/2000/svg" id="chart-a5d9fa0a-f61c-4482-8259-1f6fac35ae51" class="pygal-chart pygal-sparkline" viewBox="0 0 200 50" width="200" height="50"><!--Generated with pygal 3.0.5 (etree) ©Kozea 2012-2016 on 2024-09-03--><!--http://pygal.org--><!--http://github.com/Kozea/pygal--><defs><style type="text/css">#chart-a5d9fa0a-f61c-4482-8259-1f6fac35ae51{-webkit-user-select:none;-webkit-font-smoothing:antialiased;font-family:Consolas,"Liberation Mono",Menlo,Courier,monospace}#chart-a5d9fa0a-f61c-4482-8259-1f6fac35ae51 .title{font-family:Consolas,"Liberation Mono",Menlo,Courier,monospace;font-size:16px}#chart-a5d9fa0a-f61c-4482-8259-1f6fac35ae51 .legends .legend text{font-family:Consolas,"Liberation Mono",Menlo,Courier,monospace;font-size:14px}#chart-a5d9fa0a-f61c-4482-8259-1f6fac35ae51 .axis text{font-family:Consolas,"Liberation Mono",Menlo,Courier,monospace;font-size:10px}#chart-a5d9fa0a-f61c-4482-8259-1f6fac35ae51 .axis text.major{font-family:Consolas,"Liberation Mono",Menlo,Courier,monospace;font-size:10px}#chart-a5d9fa0a-f61c-4482-8259-1f6fac35ae51 .text-overlay text.value{font-family:Consolas,"Liberation Mono",Menlo,Courier,monospace;font-size:16px}#chart-a5d9fa0a-f61c-4482-8259-1f6fac35ae51 .text-overlay text.label{font-family:Consolas,"Liberation Mono",Menlo,Courier,monospace;font-size:10px}#chart-a5d9fa0a-f61c-4482-8259-1f6fac35ae51 .tooltip{font-family:Consolas,"Liberation Mono",Menlo,Courier,monospace;font-size:14px}#chart-a5d9fa0a-f61c-4482-8259-1f6fac35ae51 text.no_data{font-family:Consolas,"Liberation Mono",Menlo,Courier,monospace;font-size:64px}
#chart-a5d9fa0a-f61c-4482-8259-1f6fac35ae51{background-color:rgba(249,249,249,1)}#chart-a5d9fa0a-f61c-4482-8259-1f6fac35ae51 path,#chart-a5d9fa0a-f61c-4482-8259-1f6fac35ae51 line,#chart-a5d9fa0a-f61c-4482-8259-1f6fac35ae51 rect,#chart-a5d9fa0a-f61c-4482-8259-1f6fac35ae51 circle{-webkit-transition:150ms;-moz-transition:150ms;transition:150ms}#chart-a5d9fa0a-f61c-4482-8259-1f6fac35ae51 .graph &gt; .background{fill:rgba(249,249,249,1)}#chart-a5d9fa0a-f61c-4482-8259-1f6fac35ae51 .plot &gt; .background{fill:rgba(255,255,255,1)}#chart-a5d9fa0a-f61c-4482-8259-1f6fac35ae51 .graph{fill:rgba(0,0,0,.87)}#chart-a5d9fa0a-f61c-4482-8259-1f6fac35ae51 text.no_data{fill:rgba(0,0,0,1)}#chart-a5d9fa0a-f61c-4482-8259-1f6fac35ae51 .title{fill:rgba(0,0,0,1)}#chart-a5d9fa0a-f61c-4482-8259-1f6fac35ae51 .legends .legend text{fill:rgba(0,0,0,.87)}#chart-a5d9fa0a-f61c-4482-8259-1f6fac35ae51 .legends .legend:hover text{fill:rgba(0,0,0,1)}#chart-a5d9fa0a-f61c-4482-8259-1f6fac35ae51 .axis .line{stroke:rgba(0,0,0,1)}#chart-a5d9fa0a-f61c-4482-8259-1f6fac35ae51 .axis .guide.line{stroke:rgba(0,0,0,.54)}#chart-a5d9fa0a-f61c-4482-8259-1f6fac35ae51 .axis .major.line{stroke:rgba(0,0,0,.87)}#chart-a5d9fa0a-f61c-4482-8259-1f6fac35ae51 .axis text.major{fill:rgba(0,0,0,1)}#chart-a5d9fa0a-f61c-4482-8259-1f6fac35ae51 .axis.y .guides:hover .guide.line,#chart-a5d9fa0a-f61c-4482-8259-1f6fac35ae51 .line-graph .axis.x .guides:hover .guide.line,#chart-a5d9fa0a-f61c-4482-8259-1f6fac35ae51 .stackedline-graph .axis.x .guides:hover .guide.line,#chart-a5d9fa0a-f61c-4482-8259-1f6fac35ae51 .xy-graph .axis.x .guides:hover .guide.line{stroke:rgba(0,0,0,1)}#chart-a5d9fa0a-f61c-4482-8259-1f6fac35ae51 .axis .guides:hover text{fill:rgba(0,0,0,1)}#chart-a5d9fa0a-f61c-4482-8259-1f6fac35ae51 .reactive{fill-opacity:.7;stroke-opacity:.8;stroke-width:1}#chart-a5d9fa0a-f61c-4482-8259-1f6fac35ae51 .ci{stroke:rgba(0,0,0,.87)}#chart-a5d9fa0a-f61c-4482-8259-1f6fac35ae51 .reactive.active,#chart-a5d9fa0a-f61c-4482-8259-1f6fac35ae51 .active .reactive{fill-opacity:.8;stroke-opacity:.9;stroke-width:4}#chart-a5d9fa0a-f61c-4482-8259-1f6fac35ae51 .ci .reactive.active{stroke-width:1.5}#chart-a5d9fa0a-f61c-4482-8259-1f6fac35ae51 .series text{fill:rgba(0,0,0,1)}#chart-a5d9fa0a-f61c-4482-8259-1f6fac35ae51 .tooltip rect{fill:rgba(255,255,255,1);stroke:rgba(0,0,0,1);-webkit-transition:opacity 150ms;-moz-transition:opacity 150ms;transition:opacity 150ms}#chart-a5d9fa0a-f61c-4482-8259-1f6fac35ae51 .tooltip .label{fill:rgba(0,0,0,.87)}#chart-a5d9fa0a-f61c-4482-8259-1f6fac35ae51 .tooltip .label{fill:rgba(0,0,0,.87)}#chart-a5d9fa0a-f61c-4482-8259-1f6fac35ae51 .tooltip .legend{font-size:.8em;fill:rgba(0,0,0,.54)}#chart-a5d9fa0a-f61c-4482-8259-1f6fac35ae51 .tooltip .x_label{font-size:.6em;fill:rgba(0,0,0,1)}#chart-a5d9fa0a-f61c-4482-8259-1f6fac35ae51 .tooltip .xlink{font-size:.5em;text-decoration:underline}#chart-a5d9fa0a-f61c-4482-8259-1f6fac35ae51 .tooltip .value{font-size:1.5em}#chart-a5d9fa0a-f61c-4482-8259-1f6fac35ae51 .bound{font-size:.5em}#chart-a5d9fa0a-f61c-4482-8259-1f6fac35ae51 .max-value{font-size:.75em;fill:rgba(0,0,0,.54)}#chart-a5d9fa0a-f61c-4482-8259-1f6fac35ae51 .map-element{fill:rgba(255,255,255,1);stroke:rgba(0,0,0,.54) !important}#chart-a5d9fa0a-f61c-4482-8259-1f6fac35ae51 .map-element .reactive{fill-opacity:inherit;stroke-opacity:inherit}#chart-a5d9fa0a-f61c-4482-8259-1f6fac35ae51 .color-0,#chart-a5d9fa0a-f61c-4482-8259-1f6fac35ae51 .color-0 a:visited{stroke:#F44336;fill:#F44336}#chart-a5d9fa0a-f61c-4482-8259-1f6fac35ae51 .text-overlay .color-0 text{fill:black}
#chart-a5d9fa0a-f61c-4482-8259-1f6fac35ae51 text.no_data{text-anchor:middle}#chart-a5d9fa0a-f61c-4482-8259-1f6fac35ae51 .guide.line{fill:none}#chart-a5d9fa0a-f61c-4482-8259-1f6fac35ae51 .centered{text-anchor:middle}#chart-a5d9fa0a-f61c-4482-8259-1f6fac35ae51 .title{text-anchor:middle}#chart-a5d9fa0a-f61c-4482-8259-1f6fac35ae51 .legends .legend text{fill-opacity:1}#chart-a5d9fa0a-f61c-4482-8259-1f6fac35ae51 .axis.x text{text-anchor:middle}#chart-a5d9fa0a-f61c-4482-8259-1f6fac35ae51 .axis.x:not(.web) text[transform]{text-anchor:start}#chart-a5d9fa0a-f61c-4482-8259-1f6fac35ae51 .axis.x:not(.web) text[transform].backwards{text-anchor:end}#chart-a5d9fa0a-f61c-4482-8259-1f6fac35ae51 .axis.y text{text-anchor:end}#chart-a5d9fa0a-f61c-4482-8259-1f6fac35ae51 .axis.y text[transform].backwards{text-anchor:start}#chart-a5d9fa0a-f61c-4482-8259-1f6fac35ae51 .axis.y2 text{text-anchor:start}#chart-a5d9fa0a-f61c-4482-8259-1f6fac35ae51 .axis.y2 text[transform].backwards{text-anchor:end}#chart-a5d9fa0a-f61c-4482-8259-1f6fac35ae51 .axis .guide.line{stroke-dasharray:4,4;stroke:black}#chart-a5d9fa0a-f61c-4482-8259-1f6fac35ae51 .axis .major.guide.line{stroke-dasharray:6,6;stroke:black}#chart-a5d9fa0a-f61c-4482-8259-1f6fac35ae51 .horizontal .axis.y .guide.line,#chart-a5d9fa0a-f61c-4482-8259-1f6fac35ae51 .horizontal .axis.y2 .guide.line,#chart-a5d9fa0a-f61c-4482-8259-1f6fac35ae51 .vertical .axis.x .guide.line{opacity:0}#chart-a5d9fa0a-f61c-4482-8259-1f6fac35ae51 .horizontal .axis.always_show .guide.line,#chart-a5d9fa0a-f61c-4482-8259-1f6fac35ae51 .vertical .axis.always_show .guide.line{opacity:1 !important}#chart-a5d9fa0a-f61c-4482-8259-1f6fac35ae51 .axis.y .guides:hover .guide.line,#chart-a5d9fa0a-f61c-4482-8259-1f6fac35ae51 .axis.y2 .guides:hover .guide.line,#chart-a5d9fa0a-f61c-4482-8259-1f6fac35ae51 .axis.x .guides:hover .guide.line{opacity:1}#chart-a5d9fa0a-f61c-4482-8259-1f6fac35ae51 .axis .guides:hover text{opacity:1}#chart-a5d9fa0a-f61c-4482-8259-1f6fac35ae51 .nofill{fill:none}#chart-a5d9fa0a-f61c-4482-8259-1f6fac35ae51 .subtle-fill{fill-opacity:.2}#chart-a5d9fa0a-f61c-4482-8259-1f6fac35ae51 .dot{stroke-width:1px;fill-opacity:1;stroke-opacity:1}#chart-a5d9fa0a-f61c-4482-8259-1f6fac35ae51 .dot.active{stroke-width:5px}#chart-a5d9fa0a-f61c-4482-8259-1f6fac35ae51 .dot.negative{fill:transparent}#chart-a5d9fa0a-f61c-4482-8259-1f6fac35ae51 text,#chart-a5d9fa0a-f61c-4482-8259-1f6fac35ae51 tspan{stroke:none !important}#chart-a5d9fa0a-f61c-4482-8259-1f6fac35ae51 .series text.active{opacity:1}#chart-a5d9fa0a-f61c-4482-8259-1f6fac35ae51 .tooltip rect{fill-opacity:.95;stroke-width:.5}#chart-a5d9fa0a-f61c-4482-8259-1f6fac35ae51 .tooltip text{fill-opacity:1}#chart-a5d9fa0a-f61c-4482-8259-1f6fac35ae51 .showable{visibility:hidden}#chart-a5d9fa0a-f61c-4482-8259-1f6fac35ae51 .showable.shown{visibility:visible}#chart-a5d9fa0a-f61c-4482-8259-1f6fac35ae51 .gauge-background{fill:rgba(229,229,229,1);stroke:none}#chart-a5d9fa0a-f61c-4482-8259-1f6fac35ae51 .bg-lines{stroke:rgba(249,249,249,1);stroke-width:2px}</style><script type="text/javascript">window.pygal = window.pygal || {};window.pygal.config = window.pygal.config || {};window.pygal.config['a5d9fa0a-f61c-4482-8259-1f6fac35ae51'] = {"allow_interruptions": false, "box_mode": "extremes", "classes": ["pygal-chart", "pygal-sparkline"], "css": ["file://style.css", "file://graph.css"], "defs": [], "disable_xml_declaration": false, "dots_size": 2.5, "dynamic_print_values": false, "explicit_size": true, "fill": false, "force_uri_protocol": "https", "formatter": null, "half_pie": false, "height": 50, "include_x_axis": false, "inner_radius": 0, "interpolate": "cubic", "interpolation_parameters": {}, "interpolation_precision": 250, "inverse_y_axis": false, "js": [], "legend_at_bottom": false, "legend_at_bottom_columns": null, "legend_box_size": 12, "logarithmic": false, "margin": 10, "margin_bottom": null, "margin_left": null, "margin_right": null, "margin_top": null, "max_scale": 2, "min_scale": 1, "missing_value_fill_truncation": "x", "no_data_text": "", "no_prefix": false, "order_min": null, "pretty_print": false, "print_labels": false, "print_values": false, "print_values_position": "center", "print_zeroes": true, "range": null, "rounded_bars": null, "secondary_range": null, "show_dots": false, "show_legend": false, "show_minor_x_labels": true, "show_minor_y_labels": true, "show_only_major_dots": false, "show_x_guides": false, "show_x_labels": false, "show_y_guides": true, "show_y_labels": true, "spacing": 0, "stack_from_top": false, "strict": false, "stroke": true, "stroke_style": null, "style": {"background": "rgba(249, 249, 249, 1)", "ci_colors": [], "colors": ["#F44336", "#3F51B5", "#009688", "#FFC107", "#FF5722", "#9C27B0", "#03A9F4", "#8BC34A", "#FF9800", "#E91E63", "#2196F3", "#4CAF50", "#FFEB3B", "#673AB7", "#00BCD4", "#CDDC39", "#9E9E9E", "#607D8B"], "dot_opacity": "1", "font_family": "Consolas, \"Liberation Mono\", Menlo, Courier, monospace", "foreground": "rgba(0, 0, 0, .87)", "foreground_strong": "rgba(0, 0, 0, 1)", "foreground_subtle": "rgba(0, 0, 0, .54)", "guide_stroke_color": "black", "guide_stroke_dasharray": "4,4", "label_font_family": "Consolas, \"Liberation Mono\", Menlo, Courier, monospace", "label_font_size": 10, "legend_font_family": "Consolas, \"Liberation Mono\", Menlo, Courier, monospace", "legend_font_size": 14, "major_guide_stroke_color": "black", "major_guide_stroke_dasharray": "6,6", "major_label_font_family": "Consolas, \"Liberation Mono\", Menlo, Courier, monospace", "major_label_font_size": 10, "no_data_font_family": "Consolas, \"Liberation Mono\", Menlo, Courier, monospace", "no_data_font_size": 64, "opacity": ".7", "opacity_hover": ".8", "plot_background": "rgba(255, 255, 255, 1)", "stroke_opacity": ".8", "stroke_opacity_hover": ".9", "stroke_width": "1", "stroke_width_hover": "4", "title_font_family": "Consolas, \"Liberation Mono\", Menlo, Courier, monospace", "title_font_size": 16, "tooltip_font_family": "Consolas, \"Liberation Mono\", Menlo, Courier, monospace", "tooltip_font_size": 14, "transition": "150ms", "value_background": "rgba(229, 229, 229, 1)", "value_colors": [], "value_font_family": "Consolas, \"Liberation Mono\", Menlo, Courier, monospace", "value_font_size": 16, "value_label_font_family": "Consolas, \"Liberation Mono\", Menlo, Courier, monospace", "value_label_font_size": 10}, "title": null, "tooltip_border_radius": 0, "tooltip_fancy_mode": true, "truncate_label": null, "truncate_legend": null, "width": 200, "x_label_rotation": 0, "x_labels": ["2024/9", "2024/8", "2024/7"], "x_labels_major": null, "x_labels_major_count": null, "x_labels_major_every": null, "x_title": null, "xrange": null, "y_label_rotation": 0, "y_labels": null, "y_labels_major": null, "y_labels_major_count": null, "y_labels_major_every": null, "y_title": null, "zero": 0, "legends": [""]}</script></defs><title>Pygal</title><g class="graph line-graph vertical"><rect x="0" y="0" width="200" height="50" class="background" /><g transform="translate(76, 10)" class="plot"><rect x="0" y="0" width="114.0" height="30" class="background" /><g class="axis y always_show"><path d="M0.000000 30.000000 h114.000000" class="line" /><g class="guides"><path d="M0.000000 29.423077 h114.000000" class="guide line" /><text x="-5" y="32.92307692307692" class="">1</text><title>1</title></g><g class="guides"><path d="M0.000000 0.576923 h114.000000" class="guide line" /><text x="-5" y="4.07692307692308" class="">26.00683674</text><title>26.00683674</title></g></g><g class="series serie-0 color-0"><path d="M2.192308 29.423077 L2.411538 29.252355 2.630769 29.081639 2.850000 28.910933 3.069231 28.740243 3.288462 28.569575 3.507692 28.398933 3.726923 28.228323 3.946154 28.057750 4.165385 27.887220 4.384615 27.716737 4.603846 27.546308 4.823077 27.375937 5.042308 27.205630 5.261538 27.035392 5.480769 26.865229 5.700000 26.695145 5.919231 26.525146 6.138462 26.355238 6.357692 26.185425 6.576923 26.015713 6.796154 25.846108 7.015385 25.676614 7.234615 25.507237 7.453846 25.337983 7.673077 25.168856 7.892308 24.999862 8.111538 24.831006 8.330769 24.662293 8.550000 24.493730 8.769231 24.325320 8.988462 24.157070 9.207692 23.988985 9.426923 23.821070 9.646154 23.653330 9.865385 23.485771 10.084615 23.318398 10.303846 23.151217 10.523077 22.984232 10.742308 22.817449 10.961538 22.650874 11.180769 22.484511 11.400000 22.318366 11.619231 22.152444 11.838462 21.986751 12.057692 21.821291 12.276923 21.656071 12.496154 21.491095 12.715385 21.326370 12.934615 21.161899 13.153846 20.997689 13.373077 20.833744 13.592308 20.670071 13.811538 20.506674 14.030769 20.343559 14.250000 20.180731 14.469231 20.018195 14.688462 19.855957 14.907692 19.694021 15.126923 19.532394 15.346154 19.371081 15.565385 19.210087 15.784615 19.049417 16.003846 18.889076 16.223077 18.729071 16.442308 18.569405 16.661538 18.410085 16.880769 18.251116 17.100000 18.092503 17.319231 17.934251 17.538462 17.776367 17.757692 17.618854 17.976923 17.461719 18.196154 17.304966 18.415385 17.148601 18.634615 16.992630 18.853846 16.837058 19.073077 16.681889 19.292308 16.527130 19.511538 16.372785 19.730769 16.218860 19.950000 16.065361 20.169231 15.912292 20.388462 15.759659 20.607692 15.607467 20.826923 15.455721 21.046154 15.304428 21.265385 15.153591 21.484615 15.003217 21.703846 14.853311 21.923077 14.703878 22.142308 14.554923 22.361538 14.406452 22.580769 14.258470 22.800000 14.110982 23.019231 13.963994 23.238462 13.817511 23.457692 13.671538 23.676923 13.526081 23.896154 13.381144 24.115385 13.236734 24.334615 13.092856 24.553846 12.949514 24.773077 12.806714 24.992308 12.664462 25.211538 12.522763 25.430769 12.381622 25.650000 12.241045 25.869231 12.101036 26.088462 11.961601 26.307692 11.822745 26.526923 11.684475 26.746154 11.546794 26.965385 11.409709 27.184615 11.273224 27.403846 11.137345 27.623077 11.002078 27.842308 10.867427 28.061538 10.733398 28.280769 10.599996 28.500000 10.467227 28.719231 10.335096 28.938462 10.203607 29.157692 10.072768 29.376923 9.942582 29.596154 9.813055 29.815385 9.684193 30.034615 9.556000 30.253846 9.428483 30.473077 9.301645 30.692308 9.175494 30.911538 9.050034 31.130769 8.925269 31.350000 8.801207 31.569231 8.677851 31.788462 8.555208 32.007692 8.433283 32.226923 8.312080 32.446154 8.191605 32.665385 8.071864 32.884615 7.952862 33.103846 7.834604 33.323077 7.717096 33.542308 7.600342 33.761538 7.484348 33.980769 7.369120 34.200000 7.254663 34.419231 7.140982 34.638462 7.028082 34.857692 6.915968 35.076923 6.804647 35.296154 6.694123 35.515385 6.584402 35.734615 6.475488 35.953846 6.367388 36.173077 6.260107 36.392308 6.153649 36.611538 6.048021 36.830769 5.943227 37.050000 5.839273 37.269231 5.736164 37.488462 5.633905 37.707692 5.532503 37.926923 5.431961 38.146154 5.332286 38.365385 5.233483 38.584615 5.135557 38.803846 5.038513 39.023077 4.942356 39.242308 4.847093 39.461538 4.752728 39.680769 4.659267 39.900000 4.566714 40.119231 4.475076 40.338462 4.384358 40.557692 4.294564 40.776923 4.205701 40.996154 4.117773 41.215385 4.030786 41.434615 3.944745 41.653846 3.859655 41.873077 3.775523 42.092308 3.692352 42.311538 3.610149 42.530769 3.528919 42.750000 3.448666 42.969231 3.369397 43.188462 3.291117 43.407692 3.213831 43.626923 3.137544 43.846154 3.062261 44.065385 2.987989 44.284615 2.914732 44.503846 2.842495 44.723077 2.771284 44.942308 2.701105 45.161538 2.631962 45.380769 2.563860 45.600000 2.496806 45.819231 2.430805 46.038462 2.365861 46.257692 2.301980 46.476923 2.239168 46.696154 2.177429 46.915385 2.116770 47.134615 2.057195 47.353846 1.998709 47.573077 1.941318 47.792308 1.885028 48.011538 1.829844 48.230769 1.775770 48.450000 1.722812 48.669231 1.670977 48.888462 1.620268 49.107692 1.570691 49.326923 1.522252 49.546154 1.474955 49.765385 1.428807 49.984615 1.383812 50.203846 1.339976 50.423077 1.297304 50.642308 1.255801 50.861538 1.215473 51.080769 1.176326 51.300000 1.138363 51.519231 1.101591 51.738462 1.066015 51.957692 1.031641 52.176923 0.998473 52.396154 0.966517 52.615385 0.935778 52.834615 0.906262 53.053846 0.877974 53.273077 0.850918 53.492308 0.825102 53.711538 0.800529 53.930769 0.777205 54.150000 0.755136 54.369231 0.734327 54.588462 0.714782 54.807692 0.696508 55.026923 0.679510 55.246154 0.663793 55.465385 0.649362 55.684615 0.636222 55.903846 0.624380 56.123077 0.613840 56.342308 0.604608 56.561538 0.596688 56.780769 0.590087 57.000000 0.584809 57.219231 0.580859 57.438462 0.578232 57.657692 0.576923 57.876923 0.576927 58.096154 0.578239 58.315385 0.580853 58.534615 0.584764 58.753846 0.589967 58.973077 0.596456 59.192308 0.604226 59.411538 0.613271 59.630769 0.623588 59.850000 0.635169 60.069231 0.648010 60.288462 0.662105 60.507692 0.677450 60.726923 0.694038 60.946154 0.711865 61.165385 0.730925 61.384615 0.751213 61.603846 0.772724 61.823077 0.795451 62.042308 0.819391 62.261538 0.844537 62.480769 0.870885 62.700000 0.898429 62.919231 0.927163 63.138462 0.957082 63.357692 0.988182 63.576923 1.020456 63.796154 1.053900 64.015385 1.088508 64.234615 1.124275 64.453846 1.161195 64.673077 1.199263 64.892308 1.238474 65.111538 1.278823 65.330769 1.320303 65.550000 1.362911 65.769231 1.406640 65.988462 1.451486 66.207692 1.497442 66.426923 1.544504 66.646154 1.592666 66.865385 1.641923 67.084615 1.692270 67.303846 1.743702 67.523077 1.796212 67.742308 1.849796 67.961538 1.904449 68.180769 1.960164 68.400000 2.016937 68.619231 2.074763 68.838462 2.133636 69.057692 2.193551 69.276923 2.254502 69.496154 2.316485 69.715385 2.379493 69.934615 2.443522 70.153846 2.508566 70.373077 2.574621 70.592308 2.641679 70.811538 2.709737 71.030769 2.778790 71.250000 2.848830 71.469231 2.919854 71.688462 2.991857 71.907692 3.064832 72.126923 3.138774 72.346154 3.213678 72.565385 3.289539 72.784615 3.366352 73.003846 3.444111 73.223077 3.522811 73.442308 3.602446 73.661538 3.683011 73.880769 3.764501 74.100000 3.846911 74.319231 3.930235 74.538462 4.014468 74.757692 4.099605 74.976923 4.185640 75.196154 4.272568 75.415385 4.360384 75.634615 4.449082 75.853846 4.538657 76.073077 4.629104 76.292308 4.720417 76.511538 4.812592 76.730769 4.905622 76.950000 4.999502 77.169231 5.094228 77.388462 5.189794 77.607692 5.286194 77.826923 5.383423 78.046154 5.481477 78.265385 5.580348 78.484615 5.680034 78.703846 5.780527 78.923077 5.881822 79.142308 5.983915 79.361538 6.086801 79.580769 6.190472 79.800000 6.294925 80.019231 6.400155 80.238462 6.506154 80.457692 6.612920 80.676923 6.720445 80.896154 6.828725 81.115385 6.937755 81.334615 7.047529 81.553846 7.158042 81.773077 7.269288 81.992308 7.381263 82.211538 7.493960 82.430769 7.607375 82.650000 7.721502 82.869231 7.836336 83.088462 7.951872 83.307692 8.068105 83.526923 8.185028 83.746154 8.302637 83.965385 8.420926 84.184615 8.539890 84.403846 8.659524 84.623077 8.779823 84.842308 8.900781 85.061538 9.022392 85.280769 9.144652 85.500000 9.267555 85.719231 9.391096 85.938462 9.515269 86.157692 9.640070 86.376923 9.765493 86.596154 9.891532 86.815385 10.018183 87.034615 10.145439 87.253846 10.273296 87.473077 10.401749 87.692308 10.530791 87.911538 10.660418 88.130769 10.790625 88.350000 10.921405 88.569231 11.052755 88.788462 11.184668 89.007692 11.317139 89.226923 11.450162 89.446154 11.583734 89.665385 11.717847 89.884615 11.852497 90.103846 11.987679 90.323077 12.123387 90.542308 12.259616 90.761538 12.396361 90.980769 12.533616 91.200000 12.671376 91.419231 12.809635 91.638462 12.948389 91.857692 13.087632 92.076923 13.227358 92.296154 13.367563 92.515385 13.508241 92.734615 13.649387 92.953846 13.790995 93.173077 13.933061 93.392308 14.075578 93.611538 14.218542 93.830769 14.361946 94.050000 14.505787 94.269231 14.650058 94.488462 14.794755 94.707692 14.939871 94.926923 15.085402 95.146154 15.231343 95.365385 15.377687 95.584615 15.524430 95.803846 15.671566 96.023077 15.819091 96.242308 15.966998 96.461538 16.115282 96.680769 16.263939 96.900000 16.412962 97.119231 16.562347 97.338462 16.712088 97.557692 16.862180 97.776923 17.012617 97.996154 17.163394 98.215385 17.314507 98.434615 17.465948 98.653846 17.617715 98.873077 17.769800 99.092308 17.922198 99.311538 18.074905 99.530769 18.227915 99.750000 18.381223 99.969231 18.534823 100.188462 18.688710 100.407692 18.842878 100.626923 18.997323 100.846154 19.152040 101.065385 19.307022 101.284615 19.462264 101.503846 19.617762 101.723077 19.773509 101.942308 19.929501 102.161538 20.085732 102.380769 20.242197 102.600000 20.398890 102.819231 20.555807 103.038462 20.712942 103.257692 20.870289 103.476923 21.027844 103.696154 21.185601 103.915385 21.343554 104.134615 21.501699 104.353846 21.660029 104.573077 21.818541 104.792308 21.977228 105.011538 22.136084 105.230769 22.295106 105.450000 22.454287 105.669231 22.613623 105.888462 22.773107 106.107692 22.932735 106.326923 23.092500 106.546154 23.252399 106.765385 23.412426 106.984615 23.572574 107.203846 23.732840 107.423077 23.893217 107.642308 24.053700 107.861538 24.214285 108.080769 24.374965 108.300000 24.535735 108.519231 24.696591 108.738462 24.857526 108.957692 25.018536 109.176923 25.179615 109.396154 25.340757 109.615385 25.501958 109.834615 25.663213 110.053846 25.824515 110.273077 25.985859 110.492308 26.147241 110.711538 26.308655 110.930769 26.470095 111.150000 26.631557 111.369231 26.793034 111.588462 26.954522 111.807692 27.116016" class="line reactive nofill" /></g></g><g class="titles" /><g transform="translate(76, 10)" class="plot overlay"><g class="series serie-0 color-0" /></g><g transform="translate(76, 10)" class="plot text-overlay"><g class="series serie-0 color-0" /></g><g transform="translate(76, 10)" class="plot tooltip-overlay"><g transform="translate(0 0)" style="opacity: 0" class="tooltip"><rect rx="0" ry="0" width="0" height="0" class="tooltip-box" /><g class="text" /></g></g></g></svg>