<?xml version='1.0' encoding='utf-8'?>
<svg xmlns="http://www.w3.org/2000/svg" id="chart-8bb74e79-db11-442b-9e72-7c930c4900e2" class="pygal-chart pygal-sparkline" viewBox="0 0 200 50" width="200" height="50"><!--Generated with pygal 3.0.5 (etree) ©Kozea 2012-2016 on 2024-09-17--><!--http://pygal.org--><!--http://github.com/Kozea/pygal--><defs><style type="text/css">#chart-8bb74e79-db11-442b-9e72-7c930c4900e2{-webkit-user-select:none;-webkit-font-smoothing:antialiased;font-family:Consolas,"Liberation Mono",Menlo,Courier,monospace}#chart-8bb74e79-db11-442b-9e72-7c930c4900e2 .title{font-family:Consolas,"Liberation Mono",Menlo,Courier,monospace;font-size:16px}#chart-8bb74e79-db11-442b-9e72-7c930c4900e2 .legends .legend text{font-family:Consolas,"Liberation Mono",Menlo,Courier,monospace;font-size:14px}#chart-8bb74e79-db11-442b-9e72-7c930c4900e2 .axis text{font-family:Consolas,"Liberation Mono",Menlo,Courier,monospace;font-size:10px}#chart-8bb74e79-db11-442b-9e72-7c930c4900e2 .axis text.major{font-family:Consolas,"Liberation Mono",Menlo,Courier,monospace;font-size:10px}#chart-8bb74e79-db11-442b-9e72-7c930c4900e2 .text-overlay text.value{font-family:Consolas,"Liberation Mono",Menlo,Courier,monospace;font-size:16px}#chart-8bb74e79-db11-442b-9e72-7c930c4900e2 .text-overlay text.label{font-family:Consolas,"Liberation Mono",Menlo,Courier,monospace;font-size:10px}#chart-8bb74e79-db11-442b-9e72-7c930c4900e2 .tooltip{font-family:Consolas,"Liberation Mono",Menlo,Courier,monospace;font-size:14px}#chart-8bb74e79-db11-442b-9e72-7c930c4900e2 text.no_data{font-family:Consolas,"Liberation Mono",Menlo,Courier,monospace;font-size:64px}
#chart-8bb74e79-db11-442b-9e72-7c930c4900e2{background-color:rgba(249,249,249,1)}#chart-8bb74e79-db11-442b-9e72-7c930c4900e2 path,#chart-8bb74e79-db11-442b-9e72-7c930c4900e2 line,#chart-8bb74e79-db11-442b-9e72-7c930c4900e2 rect,#chart-8bb74e79-db11-442b-9e72-7c930c4900e2 circle{-webkit-transition:150ms;-moz-transition:150ms;transition:150ms}#chart-8bb74e79-db11-442b-9e72-7c930c4900e2 .graph &gt; .background{fill:rgba(249,249,249,1)}#chart-8bb74e79-db11-442b-9e72-7c930c4900e2 .plot &gt; .background{fill:rgba(255,255,255,1)}#chart-8bb74e79-db11-442b-9e72-7c930c4900e2 .graph{fill:rgba(0,0,0,.87)}#chart-8bb74e79-db11-442b-9e72-7c930c4900e2 text.no_data{fill:rgba(0,0,0,1)}#chart-8bb74e79-db11-442b-9e72-7c930c4900e2 .title{fill:rgba(0,0,0,1)}#chart-8bb74e79-db11-442b-9e72-7c930c4900e2 .legends .legend text{fill:rgba(0,0,0,.87)}#chart-8bb74e79-db11-442b-9e72-7c930c4900e2 .legends .legend:hover text{fill:rgba(0,0,0,1)}#chart-8bb74e79-db11-442b-9e72-7c930c4900e2 .axis .line{stroke:rgba(0,0,0,1)}#chart-8bb74e79-db11-442b-9e72-7c930c4900e2 .axis .guide.line{stroke:rgba(0,0,0,.54)}#chart-8bb74e79-db11-442b-9e72-7c930c4900e2 .axis .major.line{stroke:rgba(0,0,0,.87)}#chart-8bb74e79-db11-442b-9e72-7c930c4900e2 .axis text.major{fill:rgba(0,0,0,1)}#chart-8bb74e79-db11-442b-9e72-7c930c4900e2 .axis.y .guides:hover .guide.line,#chart-8bb74e79-db11-442b-9e72-7c930c4900e2 .line-graph .axis.x .guides:hover .guide.line,#chart-8bb74e79-db11-442b-9e72-7c930c4900e2 .stackedline-graph .axis.x .guides:hover .guide.line,#chart-8bb74e79-db11-442b-9e72-7c930c4900e2 .xy-graph .axis.x .guides:hover .guide.line{stroke:rgba(0,0,0,1)}#chart-8bb74e79-db11-442b-9e72-7c930c4900e2 .axis .guides:hover text{fill:rgba(0,0,0,1)}#chart-8bb74e79-db11-442b-9e72-7c930c4900e2 .reactive{fill-opacity:.7;stroke-opacity:.8;stroke-width:1}#chart-8bb74e79-db11-442b-9e72-7c930c4900e2 .ci{stroke:rgba(0,0,0,.87)}#chart-8bb74e79-db11-442b-9e72-7c930c4900e2 .reactive.active,#chart-8bb74e79-db11-442b-9e72-7c930c4900e2 .active .reactive{fill-opacity:.8;stroke-opacity:.9;stroke-width:4}#chart-8bb74e79-db11-442b-9e72-7c930c4900e2 .ci .reactive.active{stroke-width:1.5}#chart-8bb74e79-db11-442b-9e72-7c930c4900e2 .series text{fill:rgba(0,0,0,1)}#chart-8bb74e79-db11-442b-9e72-7c930c4900e2 .tooltip rect{fill:rgba(255,255,255,1);stroke:rgba(0,0,0,1);-webkit-transition:opacity 150ms;-moz-transition:opacity 150ms;transition:opacity 150ms}#chart-8bb74e79-db11-442b-9e72-7c930c4900e2 .tooltip .label{fill:rgba(0,0,0,.87)}#chart-8bb74e79-db11-442b-9e72-7c930c4900e2 .tooltip .label{fill:rgba(0,0,0,.87)}#chart-8bb74e79-db11-442b-9e72-7c930c4900e2 .tooltip .legend{font-size:.8em;fill:rgba(0,0,0,.54)}#chart-8bb74e79-db11-442b-9e72-7c930c4900e2 .tooltip .x_label{font-size:.6em;fill:rgba(0,0,0,1)}#chart-8bb74e79-db11-442b-9e72-7c930c4900e2 .tooltip .xlink{font-size:.5em;text-decoration:underline}#chart-8bb74e79-db11-442b-9e72-7c930c4900e2 .tooltip .value{font-size:1.5em}#chart-8bb74e79-db11-442b-9e72-7c930c4900e2 .bound{font-size:.5em}#chart-8bb74e79-db11-442b-9e72-7c930c4900e2 .max-value{font-size:.75em;fill:rgba(0,0,0,.54)}#chart-8bb74e79-db11-442b-9e72-7c930c4900e2 .map-element{fill:rgba(255,255,255,1);stroke:rgba(0,0,0,.54) !important}#chart-8bb74e79-db11-442b-9e72-7c930c4900e2 .map-element .reactive{fill-opacity:inherit;stroke-opacity:inherit}#chart-8bb74e79-db11-442b-9e72-7c930c4900e2 .color-0,#chart-8bb74e79-db11-442b-9e72-7c930c4900e2 .color-0 a:visited{stroke:#F44336;fill:#F44336}#chart-8bb74e79-db11-442b-9e72-7c930c4900e2 .text-overlay .color-0 text{fill:black}
#chart-8bb74e79-db11-442b-9e72-7c930c4900e2 text.no_data{text-anchor:middle}#chart-8bb74e79-db11-442b-9e72-7c930c4900e2 .guide.line{fill:none}#chart-8bb74e79-db11-442b-9e72-7c930c4900e2 .centered{text-anchor:middle}#chart-8bb74e79-db11-442b-9e72-7c930c4900e2 .title{text-anchor:middle}#chart-8bb74e79-db11-442b-9e72-7c930c4900e2 .legends .legend text{fill-opacity:1}#chart-8bb74e79-db11-442b-9e72-7c930c4900e2 .axis.x text{text-anchor:middle}#chart-8bb74e79-db11-442b-9e72-7c930c4900e2 .axis.x:not(.web) text[transform]{text-anchor:start}#chart-8bb74e79-db11-442b-9e72-7c930c4900e2 .axis.x:not(.web) text[transform].backwards{text-anchor:end}#chart-8bb74e79-db11-442b-9e72-7c930c4900e2 .axis.y text{text-anchor:end}#chart-8bb74e79-db11-442b-9e72-7c930c4900e2 .axis.y text[transform].backwards{text-anchor:start}#chart-8bb74e79-db11-442b-9e72-7c930c4900e2 .axis.y2 text{text-anchor:start}#chart-8bb74e79-db11-442b-9e72-7c930c4900e2 .axis.y2 text[transform].backwards{text-anchor:end}#chart-8bb74e79-db11-442b-9e72-7c930c4900e2 .axis .guide.line{stroke-dasharray:4,4;stroke:black}#chart-8bb74e79-db11-442b-9e72-7c930c4900e2 .axis .major.guide.line{stroke-dasharray:6,6;stroke:black}#chart-8bb74e79-db11-442b-9e72-7c930c4900e2 .horizontal .axis.y .guide.line,#chart-8bb74e79-db11-442b-9e72-7c930c4900e2 .horizontal .axis.y2 .guide.line,#chart-8bb74e79-db11-442b-9e72-7c930c4900e2 .vertical .axis.x .guide.line{opacity:0}#chart-8bb74e79-db11-442b-9e72-7c930c4900e2 .horizontal .axis.always_show .guide.line,#chart-8bb74e79-db11-442b-9e72-7c930c4900e2 .vertical .axis.always_show .guide.line{opacity:1 !important}#chart-8bb74e79-db11-442b-9e72-7c930c4900e2 .axis.y .guides:hover .guide.line,#chart-8bb74e79-db11-442b-9e72-7c930c4900e2 .axis.y2 .guides:hover .guide.line,#chart-8bb74e79-db11-442b-9e72-7c930c4900e2 .axis.x .guides:hover .guide.line{opacity:1}#chart-8bb74e79-db11-442b-9e72-7c930c4900e2 .axis .guides:hover text{opacity:1}#chart-8bb74e79-db11-442b-9e72-7c930c4900e2 .nofill{fill:none}#chart-8bb74e79-db11-442b-9e72-7c930c4900e2 .subtle-fill{fill-opacity:.2}#chart-8bb74e79-db11-442b-9e72-7c930c4900e2 .dot{stroke-width:1px;fill-opacity:1;stroke-opacity:1}#chart-8bb74e79-db11-442b-9e72-7c930c4900e2 .dot.active{stroke-width:5px}#chart-8bb74e79-db11-442b-9e72-7c930c4900e2 .dot.negative{fill:transparent}#chart-8bb74e79-db11-442b-9e72-7c930c4900e2 text,#chart-8bb74e79-db11-442b-9e72-7c930c4900e2 tspan{stroke:none !important}#chart-8bb74e79-db11-442b-9e72-7c930c4900e2 .series text.active{opacity:1}#chart-8bb74e79-db11-442b-9e72-7c930c4900e2 .tooltip rect{fill-opacity:.95;stroke-width:.5}#chart-8bb74e79-db11-442b-9e72-7c930c4900e2 .tooltip text{fill-opacity:1}#chart-8bb74e79-db11-442b-9e72-7c930c4900e2 .showable{visibility:hidden}#chart-8bb74e79-db11-442b-9e72-7c930c4900e2 .showable.shown{visibility:visible}#chart-8bb74e79-db11-442b-9e72-7c930c4900e2 .gauge-background{fill:rgba(229,229,229,1);stroke:none}#chart-8bb74e79-db11-442b-9e72-7c930c4900e2 .bg-lines{stroke:rgba(249,249,249,1);stroke-width:2px}</style><script type="text/javascript">window.pygal = window.pygal || {};window.pygal.config = window.pygal.config || {};window.pygal.config['8bb74e79-db11-442b-9e72-7c930c4900e2'] = {"allow_interruptions": false, "box_mode": "extremes", "classes": ["pygal-chart", "pygal-sparkline"], "css": ["file://style.css", "file://graph.css"], "defs": [], "disable_xml_declaration": false, "dots_size": 2.5, "dynamic_print_values": false, "explicit_size": true, "fill": false, "force_uri_protocol": "https", "formatter": null, "half_pie": false, "height": 50, "include_x_axis": false, "inner_radius": 0, "interpolate": "cubic", "interpolation_parameters": {}, "interpolation_precision": 250, "inverse_y_axis": false, "js": [], "legend_at_bottom": false, "legend_at_bottom_columns": null, "legend_box_size": 12, "logarithmic": false, "margin": 10, "margin_bottom": null, "margin_left": null, "margin_right": null, "margin_top": null, "max_scale": 2, "min_scale": 1, "missing_value_fill_truncation": "x", "no_data_text": "", "no_prefix": false, "order_min": null, "pretty_print": false, "print_labels": false, "print_values": false, "print_values_position": "center", "print_zeroes": true, "range": null, "rounded_bars": null, "secondary_range": null, "show_dots": false, "show_legend": false, "show_minor_x_labels": true, "show_minor_y_labels": true, "show_only_major_dots": false, "show_x_guides": false, "show_x_labels": false, "show_y_guides": true, "show_y_labels": true, "spacing": 0, "stack_from_top": false, "strict": false, "stroke": true, "stroke_style": null, "style": {"background": "rgba(249, 249, 249, 1)", "ci_colors": [], "colors": ["#F44336", "#3F51B5", "#009688", "#FFC107", "#FF5722", "#9C27B0", "#03A9F4", "#8BC34A", "#FF9800", "#E91E63", "#2196F3", "#4CAF50", "#FFEB3B", "#673AB7", "#00BCD4", "#CDDC39", "#9E9E9E", "#607D8B"], "dot_opacity": "1", "font_family": "Consolas, \"Liberation Mono\", Menlo, Courier, monospace", "foreground": "rgba(0, 0, 0, .87)", "foreground_strong": "rgba(0, 0, 0, 1)", "foreground_subtle": "rgba(0, 0, 0, .54)", "guide_stroke_color": "black", "guide_stroke_dasharray": "4,4", "label_font_family": "Consolas, \"Liberation Mono\", Menlo, Courier, monospace", "label_font_size": 10, "legend_font_family": "Consolas, \"Liberation Mono\", Menlo, Courier, monospace", "legend_font_size": 14, "major_guide_stroke_color": "black", "major_guide_stroke_dasharray": "6,6", "major_label_font_family": "Consolas, \"Liberation Mono\", Menlo, Courier, monospace", "major_label_font_size": 10, "no_data_font_family": "Consolas, \"Liberation Mono\", Menlo, Courier, monospace", "no_data_font_size": 64, "opacity": ".7", "opacity_hover": ".8", "plot_background": "rgba(255, 255, 255, 1)", "stroke_opacity": ".8", "stroke_opacity_hover": ".9", "stroke_width": "1", "stroke_width_hover": "4", "title_font_family": "Consolas, \"Liberation Mono\", Menlo, Courier, monospace", "title_font_size": 16, "tooltip_font_family": "Consolas, \"Liberation Mono\", Menlo, Courier, monospace", "tooltip_font_size": 14, "transition": "150ms", "value_background": "rgba(229, 229, 229, 1)", "value_colors": [], "value_font_family": "Consolas, \"Liberation Mono\", Menlo, Courier, monospace", "value_font_size": 16, "value_label_font_family": "Consolas, \"Liberation Mono\", Menlo, Courier, monospace", "value_label_font_size": 10}, "title": null, "tooltip_border_radius": 0, "tooltip_fancy_mode": true, "truncate_label": null, "truncate_legend": null, "width": 200, "x_label_rotation": 0, "x_labels": ["2024/6", "2023/5", "2022/5", "2022/4", "2022/2", "2021/11", "2021/3", "2020/12", "2020/11"], "x_labels_major": null, "x_labels_major_count": null, "x_labels_major_every": null, "x_title": null, "xrange": null, "y_label_rotation": 0, "y_labels": null, "y_labels_major": null, "y_labels_major_count": null, "y_labels_major_every": null, "y_title": null, "zero": 0, "legends": [""]}</script></defs><title>Pygal</title><g class="graph line-graph vertical"><rect x="0" y="0" width="200" height="50" class="background" /><g transform="translate(20, 10)" class="plot"><rect x="0" y="0" width="170" height="30" class="background" /><g class="axis y always_show"><path d="M0.000000 30.000000 h170.000000" class="line" /><g class="guides"><path d="M0.000000 15.400664 h170.000000" class="guide line" /><text x="-5" y="18.900663973950806" class="">4</text><title>4</title></g><g class="guides"><path d="M0.000000 0.881180 h170.000000" class="guide line" /><text x="-5" y="4.38118047386217" class="">8</text><title>8</title></g></g><g class="series serie-0 color-0"><path d="M3.269231 22.660406 L3.350962 22.515399 3.432692 22.370398 3.514423 22.225408 3.596154 22.080434 3.677885 21.935483 3.759615 21.790559 3.841346 21.645669 3.923077 21.500818 4.004808 21.356011 4.086538 21.211255 4.168269 21.066554 4.250000 20.921914 4.331731 20.777340 4.413462 20.632839 4.495192 20.488416 4.576923 20.344076 4.658654 20.199825 4.740385 20.055669 4.822115 19.911612 4.903846 19.767661 4.985577 19.623821 5.067308 19.480098 5.149038 19.336498 5.230769 19.193025 5.312500 19.049685 5.394231 18.906485 5.475962 18.763429 5.557692 18.620522 5.639423 18.477772 5.721154 18.335183 5.802885 18.192760 5.884615 18.050510 5.966346 17.908437 6.048077 17.766548 6.129808 17.624848 6.211538 17.483343 6.293269 17.342037 6.375000 17.200937 6.456731 17.060049 6.538462 16.919377 6.620192 16.778927 6.701923 16.638705 6.783654 16.498717 6.865385 16.358968 6.947115 16.219463 7.028846 16.080208 7.110577 15.941209 7.192308 15.802471 7.274038 15.664000 7.355769 15.525801 7.437500 15.387880 7.519231 15.250242 7.600962 15.112894 7.682692 14.975840 7.764423 14.839086 7.846154 14.702638 7.927885 14.566501 8.009615 14.430681 8.091346 14.295183 8.173077 14.160013 8.254808 14.025176 8.336538 13.890679 8.418269 13.756526 8.500000 13.622723 8.581731 13.489276 8.663462 13.356190 8.745192 13.223471 8.826923 13.091124 8.908654 12.959155 8.990385 12.827570 9.072115 12.696373 9.153846 12.565571 9.235577 12.435170 9.317308 12.305174 9.399038 12.175589 9.480769 12.046421 9.562500 11.917676 9.644231 11.789358 9.725962 11.661474 9.807692 11.534029 9.889423 11.407029 9.971154 11.280478 10.052885 11.154384 10.134615 11.028751 10.216346 10.903584 10.298077 10.778890 10.379808 10.654674 10.461538 10.530941 10.543269 10.407698 10.625000 10.284949 10.706731 10.162700 10.788462 10.040957 10.870192 9.919725 10.951923 9.799010 11.033654 9.678818 11.115385 9.559153 11.197115 9.440022 11.278846 9.321430 11.360577 9.203383 11.442308 9.085886 11.524038 8.968945 11.605769 8.852565 11.687500 8.736752 11.769231 8.621511 11.850962 8.506848 11.932692 8.392769 12.014423 8.279279 12.096154 8.166383 12.177885 8.054088 12.259615 7.942399 12.341346 7.831321 12.423077 7.720859 12.504808 7.611020 12.586538 7.501810 12.668269 7.393232 12.750000 7.285294 12.831731 7.178001 12.913462 7.071357 12.995192 6.965370 13.076923 6.860044 13.158654 6.755385 13.240385 6.651398 13.322115 6.548089 13.403846 6.445464 13.485577 6.343528 13.567308 6.242287 13.649038 6.141746 13.730769 6.041910 13.812500 5.942786 13.894231 5.844379 13.975962 5.746695 14.057692 5.649738 14.139423 5.553516 14.221154 5.458032 14.302885 5.363293 14.384615 5.269304 14.466346 5.176071 14.548077 5.083599 14.629808 4.991895 14.711538 4.900963 14.793269 4.810809 14.875000 4.721438 14.956731 4.632857 15.038462 4.545070 15.120192 4.458084 15.201923 4.371903 15.283654 4.286534 15.365385 4.201982 15.447115 4.118253 15.528846 4.035351 15.610577 3.953283 15.692308 3.872055 15.774038 3.791671 15.855769 3.712137 15.937500 3.633459 16.019231 3.555643 16.100962 3.478693 16.182692 3.402616 16.264423 3.327418 16.346154 3.253102 16.427885 3.179677 16.509615 3.107145 16.591346 3.035514 16.673077 2.964789 16.754808 2.894976 16.836538 2.826079 16.918269 2.758105 17.000000 2.691059 17.081731 2.624947 17.163462 2.559774 17.245192 2.495546 17.326923 2.432268 17.408654 2.369946 17.490385 2.308585 17.572115 2.248192 17.653846 2.188771 17.735577 2.130328 17.817308 2.072869 17.899038 2.016399 17.980769 1.960924 18.062500 1.906449 18.144231 1.852980 18.225962 1.800522 18.307692 1.749082 18.389423 1.698664 18.471154 1.649274 18.552885 1.600918 18.634615 1.553602 18.716346 1.507330 18.798077 1.462108 18.879808 1.417943 18.961538 1.374839 19.043269 1.332801 19.125000 1.291837 19.206731 1.251951 19.288462 1.213148 19.370192 1.175435 19.451923 1.138816 19.533654 1.103298 19.615385 1.068886 19.697115 1.035585 19.778846 1.003402 19.860577 0.972341 19.942308 0.942408 20.024038 0.913609 20.105769 0.885949 20.187500 0.859434 20.269231 0.834070 20.350962 0.809861 20.432692 0.786814 20.514423 0.764934 20.596154 0.744227 20.677885 0.724698 20.759615 0.706352 20.841346 0.689196 20.923077 0.673235 21.004808 0.658474 21.086538 0.644919 21.168269 0.632576 21.250000 0.621450 21.331731 0.611546 21.413462 0.602871 21.495192 0.595430 21.576923 0.589227 21.658654 0.584270 21.740385 0.580563 21.822115 0.578112 21.903846 0.576923 21.985577 0.577001 22.067308 0.578351 22.149038 0.580980 22.230769 0.584893 22.312500 0.590094 22.394231 0.596591 22.475962 0.604388 22.557692 0.613492 22.639423 0.623906 22.721154 0.635638 22.802885 0.648693 22.884615 0.663076 22.966346 0.678792 23.048077 0.695848 23.129808 0.714249 23.211538 0.734001 23.293269 0.755108 23.375000 0.777577 23.456731 0.801413 23.538462 0.826622 23.620192 0.853209 23.701923 0.881180 23.783654 0.910538 23.865385 0.941276 23.947115 0.973383 24.028846 1.006851 24.110577 1.041670 24.192308 1.077830 24.274038 1.115321 24.355769 1.154134 24.437500 1.194259 24.519231 1.235686 24.600962 1.278406 24.682692 1.322409 24.764423 1.367685 24.846154 1.414225 24.927885 1.462019 25.009615 1.511058 25.091346 1.561331 25.173077 1.612829 25.254808 1.665543 25.336538 1.719462 25.418269 1.774577 25.500000 1.830879 25.581731 1.888357 25.663462 1.947003 25.745192 2.006805 25.826923 2.067756 25.908654 2.129844 25.990385 2.193061 26.072115 2.257397 26.153846 2.322841 26.235577 2.389385 26.317308 2.457019 26.399038 2.525732 26.480769 2.595517 26.562500 2.666361 26.644231 2.738257 26.725962 2.811194 26.807692 2.885163 26.889423 2.960154 26.971154 3.036157 27.052885 3.113163 27.134615 3.191162 27.216346 3.270144 27.298077 3.350100 27.379808 3.431020 27.461538 3.512894 27.543269 3.595713 27.625000 3.679467 27.706731 3.764146 27.788462 3.849741 27.870192 3.936242 27.951923 4.023640 28.033654 4.111924 28.115385 4.201085 28.197115 4.291113 28.278846 4.381999 28.360577 4.473734 28.442308 4.566306 28.524038 4.659707 28.605769 4.753927 28.687500 4.848957 28.769231 4.944786 28.850962 5.041405 28.932692 5.138805 29.014423 5.236975 29.096154 5.335906 29.177885 5.435589 29.259615 5.536013 29.341346 5.637169 29.423077 5.739048 29.504808 5.841639 29.586538 5.944933 29.668269 6.048921 29.750000 6.153592 29.831731 6.258937 29.913462 6.364947 29.995192 6.471611 30.076923 6.578920 30.158654 6.686865 30.240385 6.795435 30.322115 6.904621 30.403846 7.014414 30.485577 7.124803 30.567308 7.235779 30.649038 7.347333 30.730769 7.459454 30.812500 7.572133 30.894231 7.685361 30.975962 7.799127 31.057692 7.913422 31.139423 8.028236 31.221154 8.143561 31.302885 8.259385 31.384615 8.375699 31.466346 8.492494 31.548077 8.609760 31.629808 8.727488 31.711538 8.845667 31.793269 8.964288 31.875000 9.083341 31.956731 9.202818 32.038462 9.322707 32.120192 9.442999 32.201923 9.563685 32.283654 9.684755 32.365385 9.806199 32.447115 9.928008 32.528846 10.050172 32.610577 10.172681 32.692308 10.295526 32.774038 10.418697 32.855769 10.542184 32.937500 10.665978 33.019231 10.790069 33.100962 10.914447 33.182692 11.039103 33.264423 11.164026 33.346154 11.289208 33.427885 11.414639 33.509615 11.540309 33.591346 11.666208 33.673077 11.792326 33.754808 11.918655 33.836538 12.045184 33.918269 12.171903 34.000000 12.298804 34.081731 12.425875 34.163462 12.553109 34.245192 12.680494 34.326923 12.808022 34.408654 12.935682 34.490385 13.063465 34.572115 13.191362 34.653846 13.319362 34.735577 13.447456 34.817308 13.575635 34.899038 13.703888 34.980769 13.832206 35.062500 13.960579 35.144231 14.088998 35.225962 14.217453 35.307692 14.345935 35.389423 14.474432 35.471154 14.602937 35.552885 14.731439 35.634615 14.859929 35.716346 14.988397 35.798077 15.116833 35.879808 15.245227 35.961538 15.373571 36.043269 15.501854 36.125000 15.630066 36.206731 15.758199 36.288462 15.886241 36.370192 16.014185 36.451923 16.142019 36.533654 16.269735 36.615385 16.397322 36.697115 16.524771 36.778846 16.652072 36.860577 16.779216 36.942308 16.906193 37.024038 17.032993 37.105769 17.159607 37.187500 17.286025 37.269231 17.412237 37.350962 17.538234 37.432692 17.664006 37.514423 17.789542 37.596154 17.914835 37.677885 18.039873 37.759615 18.164648 37.841346 18.289150 37.923077 18.413368 38.004808 18.537293 38.086538 18.660917 38.168269 18.784228 38.250000 18.907217 38.331731 19.029875 38.413462 19.152192 38.495192 19.274158 38.576923 19.395764 38.658654 19.517000 38.740385 19.637856 38.822115 19.758322 38.903846 19.878390 38.985577 19.998049 39.067308 20.117289 39.149038 20.236101 39.230769 20.354476 39.312500 20.472403 39.394231 20.589873 39.475962 20.706876 39.557692 20.823403 39.639423 20.939444 39.721154 21.054990 39.802885 21.170029 39.884615 21.284554 39.966346 21.398554 40.048077 21.512019 40.129808 21.624941 40.211538 21.737308 40.293269 21.849113 40.375000 21.960344 40.456731 22.070992 40.538462 22.181049 40.620192 22.290502 40.701923 22.399345 40.783654 22.507566 40.865385 22.615155 40.947115 22.722104 41.028846 22.828403 41.110577 22.934041 41.192308 23.039010 41.274038 23.143299 41.355769 23.246899 41.437500 23.349801 41.519231 23.451994 41.600962 23.553469 41.682692 23.654216 41.764423 23.754226 41.846154 23.853489 41.927885 23.951995 42.009615 24.049734 42.091346 24.146698 42.173077 24.242875 42.254808 24.338257 42.336538 24.432835 42.418269 24.526597 42.500000 24.619535 42.581731 24.711639 42.663462 24.802899 42.745192 24.893306 42.826923 24.982849 42.908654 25.071520 42.990385 25.159308 43.072115 25.246205 43.153846 25.332199 43.235577 25.417282 43.317308 25.501444 43.399038 25.584675 43.480769 25.666966 43.562500 25.748307 43.644231 25.828688 43.725962 25.908099 43.807692 25.986532 43.889423 26.063975 43.971154 26.140420 44.052885 26.215857 44.134615 26.290277 44.216346 26.363671 44.298077 26.436043 44.379808 26.507398 44.461538 26.577742 44.543269 26.647078 44.625000 26.715414 44.706731 26.782754 44.788462 26.849102 44.870192 26.914466 44.951923 26.978849 45.033654 27.042256 45.115385 27.104694 45.197115 27.166168 45.278846 27.226682 45.360577 27.286241 45.442308 27.344852 45.524038 27.402519 45.605769 27.459248 45.687500 27.515043 45.769231 27.569911 45.850962 27.623855 45.932692 27.676883 46.014423 27.728997 46.096154 27.780205 46.177885 27.830511 46.259615 27.879921 46.341346 27.928439 46.423077 27.976071 46.504808 28.022822 46.586538 28.068697 46.668269 28.113702 46.750000 28.157842 46.831731 28.201122 46.913462 28.243547 46.995192 28.285123 47.076923 28.325854 47.158654 28.365747 47.240385 28.404805 47.322115 28.443035 47.403846 28.480442 47.485577 28.517031 47.567308 28.552807 47.649038 28.587775 47.730769 28.621941 47.812500 28.655310 47.894231 28.687887 47.975962 28.719677 48.057692 28.750686 48.139423 28.780918 48.221154 28.810380 48.302885 28.839076 48.384615 28.867011 48.466346 28.894191 48.548077 28.920621 48.629808 28.946307 48.711538 28.971253 48.793269 28.995464 48.875000 29.018946 48.956731 29.041705 49.038462 29.063745 49.120192 29.085071 49.201923 29.105689 49.283654 29.125605 49.365385 29.144823 49.447115 29.163348 49.528846 29.181186 49.610577 29.198342 49.692308 29.214821 49.774038 29.230629 49.855769 29.245770 49.937500 29.260251 50.019231 29.274076 50.100962 29.287250 50.182692 29.299778 50.264423 29.311667 50.346154 29.322921 50.427885 29.333545 50.509615 29.343545 50.591346 29.352925 50.673077 29.361692 50.754808 29.369849 50.836538 29.377404 50.918269 29.384360 51.000000 29.390723 51.081731 29.396499 51.163462 29.401692 51.245192 29.406307 51.326923 29.410351 51.408654 29.413827 51.490385 29.416742 51.572115 29.419101 51.653846 29.420909 51.735577 29.422170 51.817308 29.422891 51.899038 29.423077 51.980769 29.422732 52.062500 29.421863 52.144231 29.420474 52.225962 29.418570 52.307692 29.416157 52.389423 29.413240 52.471154 29.409824 52.552885 29.405915 52.634615 29.401517 52.716346 29.396636 52.798077 29.391277 52.879808 29.385446 52.961538 29.379148 53.043269 29.372387 53.125000 29.365169 53.206731 29.357500 53.288462 29.349384 53.370192 29.340827 53.451923 29.331834 53.533654 29.322410 53.615385 29.312561 53.697115 29.302291 53.778846 29.291607 53.860577 29.280513 53.942308 29.269014 54.024038 29.257115 54.105769 29.244823 54.187500 29.232142 54.269231 29.219077 54.350962 29.205634 54.432692 29.191817 54.514423 29.177633 54.596154 29.163086 54.677885 29.148181 54.759615 29.132924 54.841346 29.117321 54.923077 29.101375 55.004808 29.085093 55.086538 29.068480 55.168269 29.051540 55.250000 29.034280 55.331731 29.016704 55.413462 28.998818 55.495192 28.980627 55.576923 28.962136 55.658654 28.943350 55.740385 28.924275 55.822115 28.904915 55.903846 28.885277 55.985577 28.865365 56.067308 28.845184 56.149038 28.824740 56.230769 28.804039 56.312500 28.783084 56.394231 28.761882 56.475962 28.740437 56.557692 28.718756 56.639423 28.696842 56.721154 28.674702 56.802885 28.652341 56.884615 28.629764 56.966346 28.606975 57.048077 28.583981 57.129808 28.560787 57.211538 28.537397 57.293269 28.513817 57.375000 28.490053 57.456731 28.466109 57.538462 28.441991 57.620192 28.417703 57.701923 28.393252 57.783654 28.368643 57.865385 28.343880 57.947115 28.318969 58.028846 28.293915 58.110577 28.268724 58.192308 28.243400 58.274038 28.217949 58.355769 28.192376 58.437500 28.166686 58.519231 28.140885 58.600962 28.114978 58.682692 28.088969 58.764423 28.062865 58.846154 28.036670 58.927885 28.010391 59.009615 27.984031 59.091346 27.957596 59.173077 27.931092 59.254808 27.904523 59.336538 27.877895 59.418269 27.851213 59.500000 27.824483 59.581731 27.797709 59.663462 27.770897 59.745192 27.744053 59.826923 27.717180 59.908654 27.690285 59.990385 27.663373 60.072115 27.636448 60.153846 27.609517 60.235577 27.582585 60.317308 27.555656 60.399038 27.528736 60.480769 27.501830 60.562500 27.474944 60.644231 27.448082 60.725962 27.421250 60.807692 27.394453 60.889423 27.367697 60.971154 27.340986 61.052885 27.314326 61.134615 27.287722 61.216346 27.261179 61.298077 27.234703 61.379808 27.208298 61.461538 27.181971 61.543269 27.155725 61.625000 27.129568 61.706731 27.103502 61.788462 27.077535 61.870192 27.051671 61.951923 27.025915 62.033654 27.000273 62.115385 26.974750 62.197115 26.949350 62.278846 26.924080 62.360577 26.898945 62.442308 26.873950 62.524038 26.849099 62.605769 26.824399 62.687500 26.799854 62.769231 26.775470 62.850962 26.751252 62.932692 26.727205 63.014423 26.703334 63.096154 26.679645 63.177885 26.656143 63.259615 26.632834 63.341346 26.609721 63.423077 26.586811 63.504808 26.564109 63.586538 26.541620 63.668269 26.519349 63.750000 26.497302 63.831731 26.475484 63.913462 26.453900 63.995192 26.432554 64.076923 26.411454 64.158654 26.390603 64.240385 26.370007 64.322115 26.349671 64.403846 26.329600 64.485577 26.309801 64.567308 26.290277 64.649038 26.271033 64.730769 26.252068 64.812500 26.233382 64.894231 26.214972 64.975962 26.196838 65.057692 26.178977 65.139423 26.161388 65.221154 26.144069 65.302885 26.127019 65.384615 26.110237 65.466346 26.093721 65.548077 26.077470 65.629808 26.061481 65.711538 26.045754 65.793269 26.030287 65.875000 26.015078 65.956731 26.000126 66.038462 25.985430 66.120192 25.970987 66.201923 25.956797 66.283654 25.942857 66.365385 25.929167 66.447115 25.915725 66.528846 25.902529 66.610577 25.889578 66.692308 25.876870 66.774038 25.864404 66.855769 25.852179 66.937500 25.840192 67.019231 25.828442 67.100962 25.816928 67.182692 25.805648 67.264423 25.794601 67.346154 25.783786 67.427885 25.773199 67.509615 25.762841 67.591346 25.752710 67.673077 25.742804 67.754808 25.733121 67.836538 25.723661 67.918269 25.714421 68.000000 25.705401 68.081731 25.696598 68.163462 25.688011 68.245192 25.679638 68.326923 25.671479 68.408654 25.663531 68.490385 25.655793 68.572115 25.648264 68.653846 25.640941 68.735577 25.633825 68.817308 25.626912 68.899038 25.620201 68.980769 25.613692 69.062500 25.607382 69.144231 25.601270 69.225962 25.595354 69.307692 25.589633 69.389423 25.584106 69.471154 25.578770 69.552885 25.573625 69.634615 25.568669 69.716346 25.563900 69.798077 25.559317 69.879808 25.554918 69.961538 25.550702 70.043269 25.546667 70.125000 25.542812 70.206731 25.539136 70.288462 25.535636 70.370192 25.532311 70.451923 25.529160 70.533654 25.526182 70.615385 25.523373 70.697115 25.520735 70.778846 25.518263 70.860577 25.515958 70.942308 25.513818 71.024038 25.511841 71.105769 25.510025 71.187500 25.508370 71.269231 25.506873 71.350962 25.505533 71.432692 25.504349 71.514423 25.503319 71.596154 25.502441 71.677885 25.501715 71.759615 25.501138 71.841346 25.500709 71.923077 25.500426 72.004808 25.500289 72.086538 25.500295 72.168269 25.500443 72.250000 25.500731 72.331731 25.501158 72.413462 25.501723 72.495192 25.502424 72.576923 25.503259 72.658654 25.504227 72.740385 25.505326 72.822115 25.506556 72.903846 25.507913 72.985577 25.509398 73.067308 25.511007 73.149038 25.512741 73.230769 25.514597 73.312500 25.516574 73.394231 25.518669 73.475962 25.520883 73.557692 25.523213 73.639423 25.525658 73.721154 25.528216 73.802885 25.530886 73.884615 25.533665 73.966346 25.536554 74.048077 25.539550 74.129808 25.542651 74.211538 25.545857 74.293269 25.549165 74.375000 25.552574 74.456731 25.556083 74.538462 25.559690 74.620192 25.563394 74.701923 25.567193 74.783654 25.571085 74.865385 25.575069 74.947115 25.579144 75.028846 25.583308 75.110577 25.587560 75.192308 25.591897 75.274038 25.596319 75.355769 25.600824 75.437500 25.605411 75.519231 25.610077 75.600962 25.614822 75.682692 25.619644 75.764423 25.624541 75.846154 25.629512 75.927885 25.634555 76.009615 25.639670 76.091346 25.644853 76.173077 25.650105 76.254808 25.655423 76.336538 25.660806 76.418269 25.666252 76.500000 25.671760 76.581731 25.677328 76.663462 25.682955 76.745192 25.688639 76.826923 25.694379 76.908654 25.700173 76.990385 25.706020 77.072115 25.711918 77.153846 25.717866 77.235577 25.723862 77.317308 25.729905 77.399038 25.735993 77.480769 25.742125 77.562500 25.748299 77.644231 25.754513 77.725962 25.760767 77.807692 25.767058 77.889423 25.773385 77.971154 25.779747 78.052885 25.786142 78.134615 25.792568 78.216346 25.799025 78.298077 25.805510 78.379808 25.812022 78.461538 25.818559 78.543269 25.825121 78.625000 25.831705 78.706731 25.838310 78.788462 25.844934 78.870192 25.851577 78.951923 25.858236 79.033654 25.864909 79.115385 25.871597 79.197115 25.878296 79.278846 25.885005 79.360577 25.891724 79.442308 25.898449 79.524038 25.905181 79.605769 25.911917 79.687500 25.918655 79.769231 25.925395 79.850962 25.932135 79.932692 25.938873 80.014423 25.945608 80.096154 25.952338 80.177885 25.959062 80.259615 25.965779 80.341346 25.972485 80.423077 25.979181 80.504808 25.985865 80.586538 25.992535 80.668269 25.999190 80.750000 26.005828 80.831731 26.012447 80.913462 26.019047 80.995192 26.025625 81.076923 26.032180 81.158654 26.038711 81.240385 26.045216 81.322115 26.051694 81.403846 26.058142 81.485577 26.064561 81.567308 26.070947 81.649038 26.077300 81.730769 26.083617 81.812500 26.089899 81.894231 26.096142 81.975962 26.102346 82.057692 26.108508 82.139423 26.114628 82.221154 26.120705 82.302885 26.126735 82.384615 26.132719 82.466346 26.138653 82.548077 26.144538 82.629808 26.150371 82.711538 26.156151 82.793269 26.161876 82.875000 26.167546 82.956731 26.173157 83.038462 26.178709 83.120192 26.184201 83.201923 26.189630 83.283654 26.194996 83.365385 26.200297 83.447115 26.205530 83.528846 26.210696 83.610577 26.215791 83.692308 26.220816 83.774038 26.225767 83.855769 26.230644 83.937500 26.235446 84.019231 26.240170 84.100962 26.244815 84.182692 26.249380 84.264423 26.253863 84.346154 26.258263 84.427885 26.262578 84.509615 26.266806 84.591346 26.270946 84.673077 26.274997 84.754808 26.278957 84.836538 26.282825 84.918269 26.286598 85.000000 26.290277 85.081731 26.293858 85.163462 26.297343 85.245192 26.300733 85.326923 26.304029 85.408654 26.307230 85.490385 26.310339 85.572115 26.313356 85.653846 26.316281 85.735577 26.319116 85.817308 26.321861 85.899038 26.324518 85.980769 26.327086 86.062500 26.329567 86.144231 26.331962 86.225962 26.334271 86.307692 26.336496 86.389423 26.338636 86.471154 26.340694 86.552885 26.342669 86.634615 26.344562 86.716346 26.346375 86.798077 26.348108 86.879808 26.349762 86.961538 26.351337 87.043269 26.352836 87.125000 26.354257 87.206731 26.355603 87.288462 26.356874 87.370192 26.358071 87.451923 26.359194 87.533654 26.360245 87.615385 26.361224 87.697115 26.362132 87.778846 26.362970 87.860577 26.363739 87.942308 26.364440 88.024038 26.365072 88.105769 26.365638 88.187500 26.366138 88.269231 26.366573 88.350962 26.366943 88.432692 26.367250 88.514423 26.367494 88.596154 26.367676 88.677885 26.367797 88.759615 26.367858 88.841346 26.367859 88.923077 26.367802 89.004808 26.367687 89.086538 26.367514 89.168269 26.367286 89.250000 26.367002 89.331731 26.366663 89.413462 26.366271 89.495192 26.365826 89.576923 26.365328 89.658654 26.364779 89.740385 26.364180 89.822115 26.363531 89.903846 26.362833 89.985577 26.362087 90.067308 26.361294 90.149038 26.360455 90.230769 26.359569 90.312500 26.358639 90.394231 26.357665 90.475962 26.356648 90.557692 26.355589 90.639423 26.354487 90.721154 26.353346 90.802885 26.352164 90.884615 26.350943 90.966346 26.349684 91.048077 26.348387 91.129808 26.347054 91.211538 26.345685 91.293269 26.344281 91.375000 26.342843 91.456731 26.341371 91.538462 26.339867 91.620192 26.338331 91.701923 26.336764 91.783654 26.335167 91.865385 26.333540 91.947115 26.331885 92.028846 26.330203 92.110577 26.328493 92.192308 26.326758 92.274038 26.324997 92.355769 26.323212 92.437500 26.321403 92.519231 26.319572 92.600962 26.317718 92.682692 26.315844 92.764423 26.313949 92.846154 26.312034 92.927885 26.310101 93.009615 26.308150 93.091346 26.306182 93.173077 26.304197 93.254808 26.302197 93.336538 26.300183 93.418269 26.298155 93.500000 26.296113 93.581731 26.294060 93.663462 26.291995 93.745192 26.289919 93.826923 26.287834 93.908654 26.285740 93.990385 26.283638 94.072115 26.281528 94.153846 26.279412 94.235577 26.277291 94.317308 26.275164 94.399038 26.273034 94.480769 26.270900 94.562500 26.268764 94.644231 26.266626 94.725962 26.264487 94.807692 26.262349 94.889423 26.260211 94.971154 26.258075 95.052885 26.255942 95.134615 26.253812 95.216346 26.251686 95.298077 26.249565 95.379808 26.247449 95.461538 26.245341 95.543269 26.243239 95.625000 26.241146 95.706731 26.239062 95.788462 26.236988 95.870192 26.234924 95.951923 26.232872 96.033654 26.230832 96.115385 26.228805 96.197115 26.226792 96.278846 26.224794 96.360577 26.222812 96.442308 26.220845 96.524038 26.218896 96.605769 26.216965 96.687500 26.215053 96.769231 26.213160 96.850962 26.211288 96.932692 26.209437 97.014423 26.207608 97.096154 26.205802 97.177885 26.204019 97.259615 26.202262 97.341346 26.200529 97.423077 26.198823 97.504808 26.197143 97.586538 26.195492 97.668269 26.193869 97.750000 26.192275 97.831731 26.190711 97.913462 26.189179 97.995192 26.187678 98.076923 26.186211 98.158654 26.184776 98.240385 26.183376 98.322115 26.182011 98.403846 26.180682 98.485577 26.179390 98.567308 26.178135 98.649038 26.176918 98.730769 26.175741 98.812500 26.174604 98.894231 26.173508 98.975962 26.172453 99.057692 26.171441 99.139423 26.170472 99.221154 26.169547 99.302885 26.168667 99.384615 26.167832 99.466346 26.167044 99.548077 26.166304 99.629808 26.165612 99.711538 26.164968 99.793269 26.164375 99.875000 26.163832 99.956731 26.163340 100.038462 26.162901 100.120192 26.162515 100.201923 26.162183 100.283654 26.161905 100.365385 26.161683 100.447115 26.161517 100.528846 26.161408 100.610577 26.161357 100.692308 26.161365 100.774038 26.161433 100.855769 26.161561 100.937500 26.161750 101.019231 26.162001 101.100962 26.162315 101.182692 26.162693 101.264423 26.163135 101.346154 26.163643 101.427885 26.164216 101.509615 26.164857 101.591346 26.165565 101.673077 26.166342 101.754808 26.167188 101.836538 26.168104 101.918269 26.169091 102.000000 26.170150 102.081731 26.171282 102.163462 26.172487 102.245192 26.173767 102.326923 26.175121 102.408654 26.176552 102.490385 26.178059 102.572115 26.179643 102.653846 26.181306 102.735577 26.183048 102.817308 26.184870 102.899038 26.186773 102.980769 26.188758 103.062500 26.190824 103.144231 26.192974 103.225962 26.195209 103.307692 26.197527 103.389423 26.199932 103.471154 26.202423 103.552885 26.205002 103.634615 26.207668 103.716346 26.210424 103.798077 26.213269 103.879808 26.216205 103.961538 26.219232 104.043269 26.222351 104.125000 26.225564 104.206731 26.228870 104.288462 26.232271 104.370192 26.235767 104.451923 26.239359 104.533654 26.243049 104.615385 26.246837 104.697115 26.250723 104.778846 26.254709 104.860577 26.258795 104.942308 26.262982 105.024038 26.267272 105.105769 26.271664 105.187500 26.276160 105.269231 26.280760 105.350962 26.285465 105.432692 26.290277 105.514423 26.295195 105.596154 26.300218 105.677885 26.305344 105.759615 26.310572 105.841346 26.315900 105.923077 26.321326 106.004808 26.326848 106.086538 26.332466 106.168269 26.338175 106.250000 26.343977 106.331731 26.349867 106.413462 26.355845 106.495192 26.361909 106.576923 26.368057 106.658654 26.374288 106.740385 26.380599 106.822115 26.386989 106.903846 26.393456 106.985577 26.399998 107.067308 26.406614 107.149038 26.413303 107.230769 26.420061 107.312500 26.426887 107.394231 26.433780 107.475962 26.440738 107.557692 26.447760 107.639423 26.454842 107.721154 26.461985 107.802885 26.469185 107.884615 26.476441 107.966346 26.483752 108.048077 26.491115 108.129808 26.498529 108.211538 26.505992 108.293269 26.513503 108.375000 26.521059 108.456731 26.528660 108.538462 26.536302 108.620192 26.543985 108.701923 26.551706 108.783654 26.559465 108.865385 26.567258 108.947115 26.575085 109.028846 26.582944 109.110577 26.590832 109.192308 26.598748 109.274038 26.606691 109.355769 26.614659 109.437500 26.622650 109.519231 26.630661 109.600962 26.638692 109.682692 26.646741 109.764423 26.654806 109.846154 26.662884 109.927885 26.670975 110.009615 26.679077 110.091346 26.687188 110.173077 26.695306 110.254808 26.703429 110.336538 26.711556 110.418269 26.719685 110.500000 26.727814 110.581731 26.735941 110.663462 26.744065 110.745192 26.752184 110.826923 26.760296 110.908654 26.768400 110.990385 26.776493 111.072115 26.784574 111.153846 26.792641 111.235577 26.800693 111.317308 26.808727 111.399038 26.816742 111.480769 26.824737 111.562500 26.832708 111.644231 26.840656 111.725962 26.848577 111.807692 26.856471 111.889423 26.864335 111.971154 26.872167 112.052885 26.879967 112.134615 26.887731 112.216346 26.895459 112.298077 26.903149 112.379808 26.910799 112.461538 26.918407 112.543269 26.925971 112.625000 26.933490 112.706731 26.940962 112.788462 26.948385 112.870192 26.955757 112.951923 26.963077 113.033654 26.970343 113.115385 26.977553 113.197115 26.984706 113.278846 26.991799 113.360577 26.998831 113.442308 27.005801 113.524038 27.012705 113.605769 27.019544 113.687500 27.026314 113.769231 27.033015 113.850962 27.039644 113.932692 27.046199 114.014423 27.052680 114.096154 27.059084 114.177885 27.065409 114.259615 27.071654 114.341346 27.077816 114.423077 27.083895 114.504808 27.089889 114.586538 27.095795 114.668269 27.101612 114.750000 27.107338 114.831731 27.112972 114.913462 27.118511 114.995192 27.123954 115.076923 27.129299 115.158654 27.134545 115.240385 27.139690 115.322115 27.144731 115.403846 27.149668 115.485577 27.154498 115.567308 27.159220 115.649038 27.163831 115.730769 27.168331 115.812500 27.172717 115.894231 27.176988 115.975962 27.181142 116.057692 27.185177 116.139423 27.189092 116.221154 27.192884 116.302885 27.196552 116.384615 27.200095 116.466346 27.203509 116.548077 27.206795 116.629808 27.209949 116.711538 27.212971 116.793269 27.215858 116.875000 27.218609 116.956731 27.221221 117.038462 27.223694 117.120192 27.226026 117.201923 27.228214 117.283654 27.230257 117.365385 27.232153 117.447115 27.233900 117.528846 27.235498 117.610577 27.236943 117.692308 27.238234 117.774038 27.239370 117.855769 27.240349 117.937500 27.241168 118.019231 27.241827 118.100962 27.242323 118.182692 27.242655 118.264423 27.242821 118.346154 27.242819 118.427885 27.242647 118.509615 27.242304 118.591346 27.241789 118.673077 27.241098 118.754808 27.240231 118.836538 27.239185 118.918269 27.237960 119.000000 27.236552 119.081731 27.234961 119.163462 27.233185 119.245192 27.231222 119.326923 27.229070 119.408654 27.226727 119.490385 27.224192 119.572115 27.221464 119.653846 27.218539 119.735577 27.215417 119.817308 27.212095 119.899038 27.208572 119.980769 27.204847 120.062500 27.200917 120.144231 27.196781 120.225962 27.192437 120.307692 27.187883 120.389423 27.183117 120.471154 27.178138 120.552885 27.172944 120.634615 27.167534 120.716346 27.161904 120.798077 27.156055 120.879808 27.149983 120.961538 27.143688 121.043269 27.137167 121.125000 27.130419 121.206731 27.123442 121.288462 27.116234 121.370192 27.108794 121.451923 27.101119 121.533654 27.093208 121.615385 27.085059 121.697115 27.076671 121.778846 27.068042 121.860577 27.059170 121.942308 27.050052 122.024038 27.040689 122.105769 27.031077 122.187500 27.021215 122.269231 27.011101 122.350962 27.000733 122.432692 26.990111 122.514423 26.979231 122.596154 26.968093 122.677885 26.956694 122.759615 26.945033 122.841346 26.933107 122.923077 26.920916 123.004808 26.908458 123.086538 26.895730 123.168269 26.882731 123.250000 26.869460 123.331731 26.855914 123.413462 26.842091 123.495192 26.827991 123.576923 26.813611 123.658654 26.798949 123.740385 26.784004 123.822115 26.768774 123.903846 26.753257 123.985577 26.737452 124.067308 26.721357 124.149038 26.704969 124.230769 26.688288 124.312500 26.671311 124.394231 26.654037 124.475962 26.636464 124.557692 26.618590 124.639423 26.600413 124.721154 26.581933 124.802885 26.563146 124.884615 26.544052 124.966346 26.524648 125.048077 26.504933 125.129808 26.484904 125.211538 26.464562 125.293269 26.443902 125.375000 26.422924 125.456731 26.401627 125.538462 26.380007 125.620192 26.358064 125.701923 26.335796 125.783654 26.313201 125.865385 26.290277 125.947115 26.267023 126.028846 26.243440 126.110577 26.219531 126.192308 26.195298 126.274038 26.170742 126.355769 26.145866 126.437500 26.120671 126.519231 26.095159 126.600962 26.069334 126.682692 26.043195 126.764423 26.016746 126.846154 25.989989 126.927885 25.962925 127.009615 25.935557 127.091346 25.907886 127.173077 25.879914 127.254808 25.851645 127.336538 25.823078 127.418269 25.794217 127.500000 25.765064 127.581731 25.735620 127.663462 25.705888 127.745192 25.675869 127.826923 25.645566 127.908654 25.614980 127.990385 25.584114 128.072115 25.552969 128.153846 25.521548 128.235577 25.489853 128.317308 25.457884 128.399038 25.425646 128.480769 25.393139 128.562500 25.360365 128.644231 25.327327 128.725962 25.294027 128.807692 25.260466 128.889423 25.226646 128.971154 25.192571 129.052885 25.158240 129.134615 25.123657 129.216346 25.088824 129.298077 25.053742 129.379808 25.018414 129.461538 24.982841 129.543269 24.947026 129.625000 24.910971 129.706731 24.874677 129.788462 24.838146 129.870192 24.801381 129.951923 24.764384 130.033654 24.727156 130.115385 24.689699 130.197115 24.652017 130.278846 24.614109 130.360577 24.575980 130.442308 24.537630 130.524038 24.499061 130.605769 24.460276 130.687500 24.421276 130.769231 24.382064 130.850962 24.342642 130.932692 24.303011 131.014423 24.263174 131.096154 24.223132 131.177885 24.182888 131.259615 24.142443 131.341346 24.101800 131.423077 24.060961 131.504808 24.019927 131.586538 23.978701 131.668269 23.937284 131.750000 23.895679 131.831731 23.853887 131.913462 23.811911 131.995192 23.769752 132.076923 23.727413 132.158654 23.684896 132.240385 23.642202 132.322115 23.599334 132.403846 23.556293 132.485577 23.513082 132.567308 23.469703 132.649038 23.426157 132.730769 23.382446 132.812500 23.338573 132.894231 23.294540 132.975962 23.250349 133.057692 23.206001 133.139423 23.161498 133.221154 23.116843 133.302885 23.072038 133.384615 23.027084 133.466346 22.981984 133.548077 22.936740 133.629808 22.891353 133.711538 22.845825 133.793269 22.800159 133.875000 22.754357 133.956731 22.708421 134.038462 22.662352 134.120192 22.616152 134.201923 22.569824 134.283654 22.523370 134.365385 22.476792 134.447115 22.430091 134.528846 22.383269 134.610577 22.336329 134.692308 22.289273 134.774038 22.242102 134.855769 22.194819 134.937500 22.147426 135.019231 22.099924 135.100962 22.052316 135.182692 22.004603 135.264423 21.956788 135.346154 21.908873 135.427885 21.860859 135.509615 21.812749 135.591346 21.764545 135.673077 21.716248 135.754808 21.667860 135.836538 21.619385 135.918269 21.570823 136.000000 21.522176 136.081731 21.473447 136.163462 21.424638 136.245192 21.375750 136.326923 21.326786 136.408654 21.277748 136.490385 21.228637 136.572115 21.179456 136.653846 21.130207 136.735577 21.080891 136.817308 21.031511 136.899038 20.982068 136.980769 20.932565 137.062500 20.883004 137.144231 20.833386 137.225962 20.783714 137.307692 20.733989 137.389423 20.684215 137.471154 20.634391 137.552885 20.584522 137.634615 20.534608 137.716346 20.484652 137.798077 20.434655 137.879808 20.384620 137.961538 20.334549 138.043269 20.284443 138.125000 20.234305 138.206731 20.184136 138.288462 20.133940 138.370192 20.083716 138.451923 20.033469 138.533654 19.983199 138.615385 19.932909 138.697115 19.882600 138.778846 19.832275 138.860577 19.781936 138.942308 19.731585 139.024038 19.681223 139.105769 19.630852 139.187500 19.580476 139.269231 19.530095 139.350962 19.479711 139.432692 19.429328 139.514423 19.378946 139.596154 19.328567 139.677885 19.278195 139.759615 19.227830 139.841346 19.177474 139.923077 19.127131 140.004808 19.076801 140.086538 19.026486 140.168269 18.976190 140.250000 18.925913 140.331731 18.875657 140.413462 18.825426 140.495192 18.775220 140.576923 18.725041 140.658654 18.674893 140.740385 18.624776 140.822115 18.574692 140.903846 18.524645 140.985577 18.474635 141.067308 18.424665 141.149038 18.374736 141.230769 18.324851 141.312500 18.275012 141.394231 18.225220 141.475962 18.175478 141.557692 18.125788 141.639423 18.076152 141.721154 18.026571 141.802885 17.977048 141.884615 17.927584 141.966346 17.878183 142.048077 17.828845 142.129808 17.779572 142.211538 17.730367 142.293269 17.681233 142.375000 17.632169 142.456731 17.583180 142.538462 17.534266 142.620192 17.485430 142.701923 17.436673 142.783654 17.387998 142.865385 17.339407 142.947115 17.290902 143.028846 17.242484 143.110577 17.194156 143.192308 17.145920 143.274038 17.097777 143.355769 17.049730 143.437500 17.001781 143.519231 16.953932 143.600962 16.906184 143.682692 16.858540 143.764423 16.811002 143.846154 16.763571 143.927885 16.716250 144.009615 16.669041 144.091346 16.621946 144.173077 16.574966 144.254808 16.528104 144.336538 16.481361 144.418269 16.434741 144.500000 16.388244 144.581731 16.341873 144.663462 16.295629 144.745192 16.249516 144.826923 16.203534 144.908654 16.157685 144.990385 16.111973 145.072115 16.066398 145.153846 16.020963 145.235577 15.975670 145.317308 15.930520 145.399038 15.885516 145.480769 15.840660 145.562500 15.795954 145.644231 15.751399 145.725962 15.706998 145.807692 15.662753 145.889423 15.618665 145.971154 15.574738 146.052885 15.530972 146.134615 15.487369 146.216346 15.443933 146.298077 15.400664 146.379808 15.357564 146.461538 15.314634 146.543269 15.271872 146.625000 15.229278 146.706731 15.186850 146.788462 15.144589 146.870192 15.102494 146.951923 15.060564 147.033654 15.018798 147.115385 14.977196 147.197115 14.935756 147.278846 14.894479 147.360577 14.853364 147.442308 14.812409 147.524038 14.771615 147.605769 14.730980 147.687500 14.690504 147.769231 14.650186 147.850962 14.610026 147.932692 14.570023 148.014423 14.530175 148.096154 14.490484 148.177885 14.450947 148.259615 14.411564 148.341346 14.372335 148.423077 14.333258 148.504808 14.294334 148.586538 14.255561 148.668269 14.216938 148.750000 14.178466 148.831731 14.140143 148.913462 14.101969 148.995192 14.063943 149.076923 14.026064 149.158654 13.988332 149.240385 13.950745 149.322115 13.913304 149.403846 13.876008 149.485577 13.838856 149.567308 13.801847 149.649038 13.764980 149.730769 13.728256 149.812500 13.691672 149.894231 13.655229 149.975962 13.618926 150.057692 13.582763 150.139423 13.546737 150.221154 13.510850 150.302885 13.475100 150.384615 13.439486 150.466346 13.404008 150.548077 13.368665 150.629808 13.333457 150.711538 13.298382 150.793269 13.263440 150.875000 13.228631 150.956731 13.193954 151.038462 13.159407 151.120192 13.124991 151.201923 13.090705 151.283654 13.056547 151.365385 13.022518 151.447115 12.988617 151.528846 12.954842 151.610577 12.921194 151.692308 12.887671 151.774038 12.854274 151.855769 12.821000 151.937500 12.787851 152.019231 12.754824 152.100962 12.721919 152.182692 12.689136 152.264423 12.656474 152.346154 12.623931 152.427885 12.591509 152.509615 12.559205 152.591346 12.527019 152.673077 12.494951 152.754808 12.463000 152.836538 12.431164 152.918269 12.399444 153.000000 12.367839 153.081731 12.336348 153.163462 12.304971 153.245192 12.273706 153.326923 12.242553 153.408654 12.211511 153.490385 12.180580 153.572115 12.149759 153.653846 12.119048 153.735577 12.088445 153.817308 12.057950 153.899038 12.027562 153.980769 11.997281 154.062500 11.967105 154.144231 11.937035 154.225962 11.907070 154.307692 11.877208 154.389423 11.847450 154.471154 11.817794 154.552885 11.788240 154.634615 11.758788 154.716346 11.729435 154.798077 11.700183 154.879808 11.671029 154.961538 11.641974 155.043269 11.613017 155.125000 11.584157 155.206731 11.555394 155.288462 11.526726 155.370192 11.498153 155.451923 11.469674 155.533654 11.441290 155.615385 11.412998 155.697115 11.384798 155.778846 11.356691 155.860577 11.328674 155.942308 11.300747 156.024038 11.272911 156.105769 11.245163 156.187500 11.217503 156.269231 11.189931 156.350962 11.162446 156.432692 11.135047 156.514423 11.107734 156.596154 11.080505 156.677885 11.053361 156.759615 11.026300 156.841346 10.999322 156.923077 10.972426 157.004808 10.945612 157.086538 10.918878 157.168269 10.892225 157.250000 10.865651 157.331731 10.839156 157.413462 10.812739 157.495192 10.786399 157.576923 10.760136 157.658654 10.733949 157.740385 10.707838 157.822115 10.681801 157.903846 10.655838 157.985577 10.629948 158.067308 10.604131 158.149038 10.578386 158.230769 10.552713 158.312500 10.527110 158.394231 10.501577 158.475962 10.476113 158.557692 10.450718 158.639423 10.425390 158.721154 10.400130 158.802885 10.374936 158.884615 10.349809 158.966346 10.324746 159.048077 10.299748 159.129808 10.274814 159.211538 10.249943 159.293269 10.225134 159.375000 10.200387 159.456731 10.175702 159.538462 10.151076 159.620192 10.126511 159.701923 10.102004 159.783654 10.077556 159.865385 10.053166 159.947115 10.028832 160.028846 10.004555 160.110577 9.980334 160.192308 9.956168 160.274038 9.932056 160.355769 9.907997 160.437500 9.883992 160.519231 9.860039 160.600962 9.836137 160.682692 9.812287 160.764423 9.788486 160.846154 9.764736 160.927885 9.741034 161.009615 9.717380 161.091346 9.693774 161.173077 9.670215 161.254808 9.646701 161.336538 9.623234 161.418269 9.599811 161.500000 9.576432 161.581731 9.553097 161.663462 9.529805 161.745192 9.506554 161.826923 9.483345 161.908654 9.460177 161.990385 9.437049 162.072115 9.413960 162.153846 9.390910 162.235577 9.367898 162.317308 9.344923 162.399038 9.321985 162.480769 9.299083 162.562500 9.276216 162.644231 9.253384 162.725962 9.230586 162.807692 9.207821 162.889423 9.185089 162.971154 9.162388 163.052885 9.139719 163.134615 9.117080 163.216346 9.094472 163.298077 9.071892 163.379808 9.049341 163.461538 9.026818 163.543269 9.004322 163.625000 8.981852 163.706731 8.959409 163.788462 8.936990 163.870192 8.914596 163.951923 8.892225 164.033654 8.869878 164.115385 8.847553 164.197115 8.825250 164.278846 8.802968 164.360577 8.780706 164.442308 8.758464 164.524038 8.736241 164.605769 8.714036 164.687500 8.691849 164.769231 8.669679 164.850962 8.647525 164.932692 8.625386 165.014423 8.603263 165.096154 8.581154 165.177885 8.559059 165.259615 8.536976 165.341346 8.514906 165.423077 8.492847 165.504808 8.470799 165.586538 8.448761 165.668269 8.426733 165.750000 8.404714 165.831731 8.382702 165.913462 8.360699 165.995192 8.338702 166.076923 8.316711 166.158654 8.294725 166.240385 8.272745 166.322115 8.250768 166.403846 8.228795 166.485577 8.206824 166.567308 8.184856 166.649038 8.162889 166.730769 8.140922" class="line reactive nofill" /></g></g><g class="titles" /><g transform="translate(20, 10)" class="plot overlay"><g class="series serie-0 color-0" /></g><g transform="translate(20, 10)" class="plot text-overlay"><g class="series serie-0 color-0" /></g><g transform="translate(20, 10)" class="plot tooltip-overlay"><g transform="translate(0 0)" style="opacity: 0" class="tooltip"><rect rx="0" ry="0" width="0" height="0" class="tooltip-box" /><g class="text" /></g></g></g></svg>