<?xml version='1.0' encoding='utf-8'?>
<svg xmlns="http://www.w3.org/2000/svg" id="chart-fbaed127-a9b6-444e-8309-12f9df85b292" class="pygal-chart pygal-sparkline" viewBox="0 0 200 50" width="200" height="50"><!--Generated with pygal 3.0.5 (etree) ©Kozea 2012-2016 on 2025-06-01--><!--http://pygal.org--><!--http://github.com/Kozea/pygal--><defs><style type="text/css">#chart-fbaed127-a9b6-444e-8309-12f9df85b292{-webkit-user-select:none;-webkit-font-smoothing:antialiased;font-family:Consolas,"Liberation Mono",Menlo,Courier,monospace}#chart-fbaed127-a9b6-444e-8309-12f9df85b292 .title{font-family:Consolas,"Liberation Mono",Menlo,Courier,monospace;font-size:16px}#chart-fbaed127-a9b6-444e-8309-12f9df85b292 .legends .legend text{font-family:Consolas,"Liberation Mono",Menlo,Courier,monospace;font-size:14px}#chart-fbaed127-a9b6-444e-8309-12f9df85b292 .axis text{font-family:Consolas,"Liberation Mono",Menlo,Courier,monospace;font-size:10px}#chart-fbaed127-a9b6-444e-8309-12f9df85b292 .axis text.major{font-family:Consolas,"Liberation Mono",Menlo,Courier,monospace;font-size:10px}#chart-fbaed127-a9b6-444e-8309-12f9df85b292 .text-overlay text.value{font-family:Consolas,"Liberation Mono",Menlo,Courier,monospace;font-size:16px}#chart-fbaed127-a9b6-444e-8309-12f9df85b292 .text-overlay text.label{font-family:Consolas,"Liberation Mono",Menlo,Courier,monospace;font-size:10px}#chart-fbaed127-a9b6-444e-8309-12f9df85b292 .tooltip{font-family:Consolas,"Liberation Mono",Menlo,Courier,monospace;font-size:14px}#chart-fbaed127-a9b6-444e-8309-12f9df85b292 text.no_data{font-family:Consolas,"Liberation Mono",Menlo,Courier,monospace;font-size:64px}
#chart-fbaed127-a9b6-444e-8309-12f9df85b292{background-color:rgba(249,249,249,1)}#chart-fbaed127-a9b6-444e-8309-12f9df85b292 path,#chart-fbaed127-a9b6-444e-8309-12f9df85b292 line,#chart-fbaed127-a9b6-444e-8309-12f9df85b292 rect,#chart-fbaed127-a9b6-444e-8309-12f9df85b292 circle{-webkit-transition:150ms;-moz-transition:150ms;transition:150ms}#chart-fbaed127-a9b6-444e-8309-12f9df85b292 .graph &gt; .background{fill:rgba(249,249,249,1)}#chart-fbaed127-a9b6-444e-8309-12f9df85b292 .plot &gt; .background{fill:rgba(255,255,255,1)}#chart-fbaed127-a9b6-444e-8309-12f9df85b292 .graph{fill:rgba(0,0,0,.87)}#chart-fbaed127-a9b6-444e-8309-12f9df85b292 text.no_data{fill:rgba(0,0,0,1)}#chart-fbaed127-a9b6-444e-8309-12f9df85b292 .title{fill:rgba(0,0,0,1)}#chart-fbaed127-a9b6-444e-8309-12f9df85b292 .legends .legend text{fill:rgba(0,0,0,.87)}#chart-fbaed127-a9b6-444e-8309-12f9df85b292 .legends .legend:hover text{fill:rgba(0,0,0,1)}#chart-fbaed127-a9b6-444e-8309-12f9df85b292 .axis .line{stroke:rgba(0,0,0,1)}#chart-fbaed127-a9b6-444e-8309-12f9df85b292 .axis .guide.line{stroke:rgba(0,0,0,.54)}#chart-fbaed127-a9b6-444e-8309-12f9df85b292 .axis .major.line{stroke:rgba(0,0,0,.87)}#chart-fbaed127-a9b6-444e-8309-12f9df85b292 .axis text.major{fill:rgba(0,0,0,1)}#chart-fbaed127-a9b6-444e-8309-12f9df85b292 .axis.y .guides:hover .guide.line,#chart-fbaed127-a9b6-444e-8309-12f9df85b292 .line-graph .axis.x .guides:hover .guide.line,#chart-fbaed127-a9b6-444e-8309-12f9df85b292 .stackedline-graph .axis.x .guides:hover .guide.line,#chart-fbaed127-a9b6-444e-8309-12f9df85b292 .xy-graph .axis.x .guides:hover .guide.line{stroke:rgba(0,0,0,1)}#chart-fbaed127-a9b6-444e-8309-12f9df85b292 .axis .guides:hover text{fill:rgba(0,0,0,1)}#chart-fbaed127-a9b6-444e-8309-12f9df85b292 .reactive{fill-opacity:.7;stroke-opacity:.8;stroke-width:1}#chart-fbaed127-a9b6-444e-8309-12f9df85b292 .ci{stroke:rgba(0,0,0,.87)}#chart-fbaed127-a9b6-444e-8309-12f9df85b292 .reactive.active,#chart-fbaed127-a9b6-444e-8309-12f9df85b292 .active .reactive{fill-opacity:.8;stroke-opacity:.9;stroke-width:4}#chart-fbaed127-a9b6-444e-8309-12f9df85b292 .ci .reactive.active{stroke-width:1.5}#chart-fbaed127-a9b6-444e-8309-12f9df85b292 .series text{fill:rgba(0,0,0,1)}#chart-fbaed127-a9b6-444e-8309-12f9df85b292 .tooltip rect{fill:rgba(255,255,255,1);stroke:rgba(0,0,0,1);-webkit-transition:opacity 150ms;-moz-transition:opacity 150ms;transition:opacity 150ms}#chart-fbaed127-a9b6-444e-8309-12f9df85b292 .tooltip .label{fill:rgba(0,0,0,.87)}#chart-fbaed127-a9b6-444e-8309-12f9df85b292 .tooltip .label{fill:rgba(0,0,0,.87)}#chart-fbaed127-a9b6-444e-8309-12f9df85b292 .tooltip .legend{font-size:.8em;fill:rgba(0,0,0,.54)}#chart-fbaed127-a9b6-444e-8309-12f9df85b292 .tooltip .x_label{font-size:.6em;fill:rgba(0,0,0,1)}#chart-fbaed127-a9b6-444e-8309-12f9df85b292 .tooltip .xlink{font-size:.5em;text-decoration:underline}#chart-fbaed127-a9b6-444e-8309-12f9df85b292 .tooltip .value{font-size:1.5em}#chart-fbaed127-a9b6-444e-8309-12f9df85b292 .bound{font-size:.5em}#chart-fbaed127-a9b6-444e-8309-12f9df85b292 .max-value{font-size:.75em;fill:rgba(0,0,0,.54)}#chart-fbaed127-a9b6-444e-8309-12f9df85b292 .map-element{fill:rgba(255,255,255,1);stroke:rgba(0,0,0,.54) !important}#chart-fbaed127-a9b6-444e-8309-12f9df85b292 .map-element .reactive{fill-opacity:inherit;stroke-opacity:inherit}#chart-fbaed127-a9b6-444e-8309-12f9df85b292 .color-0,#chart-fbaed127-a9b6-444e-8309-12f9df85b292 .color-0 a:visited{stroke:#F44336;fill:#F44336}#chart-fbaed127-a9b6-444e-8309-12f9df85b292 .text-overlay .color-0 text{fill:black}
#chart-fbaed127-a9b6-444e-8309-12f9df85b292 text.no_data{text-anchor:middle}#chart-fbaed127-a9b6-444e-8309-12f9df85b292 .guide.line{fill:none}#chart-fbaed127-a9b6-444e-8309-12f9df85b292 .centered{text-anchor:middle}#chart-fbaed127-a9b6-444e-8309-12f9df85b292 .title{text-anchor:middle}#chart-fbaed127-a9b6-444e-8309-12f9df85b292 .legends .legend text{fill-opacity:1}#chart-fbaed127-a9b6-444e-8309-12f9df85b292 .axis.x text{text-anchor:middle}#chart-fbaed127-a9b6-444e-8309-12f9df85b292 .axis.x:not(.web) text[transform]{text-anchor:start}#chart-fbaed127-a9b6-444e-8309-12f9df85b292 .axis.x:not(.web) text[transform].backwards{text-anchor:end}#chart-fbaed127-a9b6-444e-8309-12f9df85b292 .axis.y text{text-anchor:end}#chart-fbaed127-a9b6-444e-8309-12f9df85b292 .axis.y text[transform].backwards{text-anchor:start}#chart-fbaed127-a9b6-444e-8309-12f9df85b292 .axis.y2 text{text-anchor:start}#chart-fbaed127-a9b6-444e-8309-12f9df85b292 .axis.y2 text[transform].backwards{text-anchor:end}#chart-fbaed127-a9b6-444e-8309-12f9df85b292 .axis .guide.line{stroke-dasharray:4,4;stroke:black}#chart-fbaed127-a9b6-444e-8309-12f9df85b292 .axis .major.guide.line{stroke-dasharray:6,6;stroke:black}#chart-fbaed127-a9b6-444e-8309-12f9df85b292 .horizontal .axis.y .guide.line,#chart-fbaed127-a9b6-444e-8309-12f9df85b292 .horizontal .axis.y2 .guide.line,#chart-fbaed127-a9b6-444e-8309-12f9df85b292 .vertical .axis.x .guide.line{opacity:0}#chart-fbaed127-a9b6-444e-8309-12f9df85b292 .horizontal .axis.always_show .guide.line,#chart-fbaed127-a9b6-444e-8309-12f9df85b292 .vertical .axis.always_show .guide.line{opacity:1 !important}#chart-fbaed127-a9b6-444e-8309-12f9df85b292 .axis.y .guides:hover .guide.line,#chart-fbaed127-a9b6-444e-8309-12f9df85b292 .axis.y2 .guides:hover .guide.line,#chart-fbaed127-a9b6-444e-8309-12f9df85b292 .axis.x .guides:hover .guide.line{opacity:1}#chart-fbaed127-a9b6-444e-8309-12f9df85b292 .axis .guides:hover text{opacity:1}#chart-fbaed127-a9b6-444e-8309-12f9df85b292 .nofill{fill:none}#chart-fbaed127-a9b6-444e-8309-12f9df85b292 .subtle-fill{fill-opacity:.2}#chart-fbaed127-a9b6-444e-8309-12f9df85b292 .dot{stroke-width:1px;fill-opacity:1;stroke-opacity:1}#chart-fbaed127-a9b6-444e-8309-12f9df85b292 .dot.active{stroke-width:5px}#chart-fbaed127-a9b6-444e-8309-12f9df85b292 .dot.negative{fill:transparent}#chart-fbaed127-a9b6-444e-8309-12f9df85b292 text,#chart-fbaed127-a9b6-444e-8309-12f9df85b292 tspan{stroke:none !important}#chart-fbaed127-a9b6-444e-8309-12f9df85b292 .series text.active{opacity:1}#chart-fbaed127-a9b6-444e-8309-12f9df85b292 .tooltip rect{fill-opacity:.95;stroke-width:.5}#chart-fbaed127-a9b6-444e-8309-12f9df85b292 .tooltip text{fill-opacity:1}#chart-fbaed127-a9b6-444e-8309-12f9df85b292 .showable{visibility:hidden}#chart-fbaed127-a9b6-444e-8309-12f9df85b292 .showable.shown{visibility:visible}#chart-fbaed127-a9b6-444e-8309-12f9df85b292 .gauge-background{fill:rgba(229,229,229,1);stroke:none}#chart-fbaed127-a9b6-444e-8309-12f9df85b292 .bg-lines{stroke:rgba(249,249,249,1);stroke-width:2px}</style><script type="text/javascript">window.pygal = window.pygal || {};window.pygal.config = window.pygal.config || {};window.pygal.config['fbaed127-a9b6-444e-8309-12f9df85b292'] = {"allow_interruptions": false, "box_mode": "extremes", "classes": ["pygal-chart", "pygal-sparkline"], "css": ["file://style.css", "file://graph.css"], "defs": [], "disable_xml_declaration": false, "dots_size": 2.5, "dynamic_print_values": false, "explicit_size": true, "fill": false, "force_uri_protocol": "https", "formatter": null, "half_pie": false, "height": 50, "include_x_axis": false, "inner_radius": 0, "interpolate": "cubic", "interpolation_parameters": {}, "interpolation_precision": 250, "inverse_y_axis": false, "js": [], "legend_at_bottom": false, "legend_at_bottom_columns": null, "legend_box_size": 12, "logarithmic": false, "margin": 10, "margin_bottom": null, "margin_left": null, "margin_right": null, "margin_top": null, "max_scale": 2, "min_scale": 1, "missing_value_fill_truncation": "x", "no_data_text": "", "no_prefix": false, "order_min": null, "pretty_print": false, "print_labels": false, "print_values": false, "print_values_position": "center", "print_zeroes": true, "range": null, "rounded_bars": null, "secondary_range": null, "show_dots": false, "show_legend": false, "show_minor_x_labels": true, "show_minor_y_labels": true, "show_only_major_dots": false, "show_x_guides": false, "show_x_labels": false, "show_y_guides": true, "show_y_labels": true, "spacing": 0, "stack_from_top": false, "strict": false, "stroke": true, "stroke_style": null, "style": {"background": "rgba(249, 249, 249, 1)", "ci_colors": [], "colors": ["#F44336", "#3F51B5", "#009688", "#FFC107", "#FF5722", "#9C27B0", "#03A9F4", "#8BC34A", "#FF9800", "#E91E63", "#2196F3", "#4CAF50", "#FFEB3B", "#673AB7", "#00BCD4", "#CDDC39", "#9E9E9E", "#607D8B"], "dot_opacity": "1", "font_family": "Consolas, \"Liberation Mono\", Menlo, Courier, monospace", "foreground": "rgba(0, 0, 0, .87)", "foreground_strong": "rgba(0, 0, 0, 1)", "foreground_subtle": "rgba(0, 0, 0, .54)", "guide_stroke_color": "black", "guide_stroke_dasharray": "4,4", "label_font_family": "Consolas, \"Liberation Mono\", Menlo, Courier, monospace", "label_font_size": 10, "legend_font_family": "Consolas, \"Liberation Mono\", Menlo, Courier, monospace", "legend_font_size": 14, "major_guide_stroke_color": "black", "major_guide_stroke_dasharray": "6,6", "major_label_font_family": "Consolas, \"Liberation Mono\", Menlo, Courier, monospace", "major_label_font_size": 10, "no_data_font_family": "Consolas, \"Liberation Mono\", Menlo, Courier, monospace", "no_data_font_size": 64, "opacity": ".7", "opacity_hover": ".8", "plot_background": "rgba(255, 255, 255, 1)", "stroke_opacity": ".8", "stroke_opacity_hover": ".9", "stroke_width": "1", "stroke_width_hover": "4", "title_font_family": "Consolas, \"Liberation Mono\", Menlo, Courier, monospace", "title_font_size": 16, "tooltip_font_family": "Consolas, \"Liberation Mono\", Menlo, Courier, monospace", "tooltip_font_size": 14, "transition": "150ms", "value_background": "rgba(229, 229, 229, 1)", "value_colors": [], "value_font_family": "Consolas, \"Liberation Mono\", Menlo, Courier, monospace", "value_font_size": 16, "value_label_font_family": "Consolas, \"Liberation Mono\", Menlo, Courier, monospace", "value_label_font_size": 10}, "title": null, "tooltip_border_radius": 0, "tooltip_fancy_mode": true, "truncate_label": null, "truncate_legend": null, "width": 200, "x_label_rotation": 0, "x_labels": ["2025/5", "2025/3", "2025/2", "2025/1", "2024/10", "2024/8", "2024/3", "2024/2", "2023/12", "2023/7", "2023/6", "2023/5"], "x_labels_major": null, "x_labels_major_count": null, "x_labels_major_every": null, "x_title": null, "xrange": null, "y_label_rotation": 0, "y_labels": null, "y_labels_major": null, "y_labels_major_count": null, "y_labels_major_every": null, "y_title": null, "zero": 0, "legends": [""]}</script></defs><title>Pygal</title><g class="graph line-graph vertical"><rect x="0" y="0" width="200" height="50" class="background" /><g transform="translate(88, 10)" class="plot"><rect x="0" y="0" width="102.0" height="30" class="background" /><g class="axis y always_show"><path d="M0.000000 30.000000 h102.000000" class="line" /><g class="guides"><path d="M0.000000 29.423077 h102.000000" class="guide line" /><text x="-5" y="32.92307692307692" class="">0.04458466838</text><title>0.04458466838</title></g><g class="guides"><path d="M0.000000 0.576923 h102.000000" class="guide line" /><text x="-5" y="4.076923076923077" class="">5.261415833</text><title>5.261415833</title></g></g><g class="series serie-0 color-0"><path d="M1.961538 24.140165 L1.997203 24.070821 2.032867 24.001478 2.068531 23.932135 2.104196 23.862793 2.139860 23.793452 2.175524 23.724112 2.211189 23.654774 2.246853 23.585438 2.282517 23.516105 2.318182 23.446774 2.353846 23.377446 2.389510 23.308121 2.425175 23.238799 2.460839 23.169481 2.496503 23.100168 2.532168 23.030858 2.567832 22.961553 2.603497 22.892253 2.639161 22.822959 2.674825 22.753669 2.710490 22.684386 2.746154 22.615108 2.781818 22.545837 2.817483 22.476572 2.853147 22.407314 2.888811 22.338064 2.924476 22.268821 2.960140 22.199585 2.995804 22.130358 3.031469 22.061139 3.067133 21.991928 3.102797 21.922727 3.138462 21.853535 3.174126 21.784352 3.209790 21.715179 3.245455 21.646016 3.281119 21.576863 3.316783 21.507721 3.352448 21.438590 3.388112 21.369470 3.423776 21.300361 3.459441 21.231265 3.495105 21.162180 3.530769 21.093108 3.566434 21.024048 3.602098 20.955001 3.637762 20.885968 3.673427 20.816948 3.709091 20.747941 3.744755 20.678949 3.780420 20.609971 3.816084 20.541008 3.851748 20.472060 3.887413 20.403127 3.923077 20.334209 3.958741 20.265307 3.994406 20.196422 4.030070 20.127552 4.065734 20.058700 4.101399 19.989864 4.137063 19.921046 4.172727 19.852245 4.208392 19.783461 4.244056 19.714696 4.279720 19.645950 4.315385 19.577222 4.351049 19.508512 4.386713 19.439823 4.422378 19.371152 4.458042 19.302502 4.493706 19.233871 4.529371 19.165261 4.565035 19.096672 4.600699 19.028103 4.636364 18.959556 4.672028 18.891030 4.707692 18.822527 4.743357 18.754045 4.779021 18.685586 4.814685 18.617149 4.850350 18.548735 4.886014 18.480345 4.921678 18.411978 4.957343 18.343635 4.993007 18.275316 5.028671 18.207021 5.064336 18.138752 5.100000 18.070507 5.135664 18.002287 5.171329 17.934093 5.206993 17.865925 5.242657 17.797783 5.278322 17.729667 5.313986 17.661578 5.349650 17.593516 5.385315 17.525481 5.420979 17.457474 5.456643 17.389495 5.492308 17.321544 5.527972 17.253621 5.563636 17.185727 5.599301 17.117862 5.634965 17.050026 5.670629 16.982220 5.706294 16.914444 5.741958 16.846698 5.777622 16.778982 5.813287 16.711297 5.848951 16.643643 5.884615 16.576020 5.920280 16.508429 5.955944 16.440870 5.991608 16.373343 6.027273 16.305848 6.062937 16.238386 6.098601 16.170957 6.134266 16.103562 6.169930 16.036200 6.205594 15.968871 6.241259 15.901577 6.276923 15.834318 6.312587 15.767093 6.348252 15.699903 6.383916 15.632749 6.419580 15.565630 6.455245 15.498547 6.490909 15.431500 6.526573 15.364490 6.562238 15.297516 6.597902 15.230580 6.633566 15.163681 6.669231 15.096819 6.704895 15.029995 6.740559 14.963210 6.776224 14.896463 6.811888 14.829755 6.847552 14.763085 6.883217 14.696455 6.918881 14.629865 6.954545 14.563315 6.990210 14.496805 7.025874 14.430335 7.061538 14.363906 7.097203 14.297518 7.132867 14.231172 7.168531 14.164867 7.204196 14.098604 7.239860 14.032383 7.275524 13.966205 7.311189 13.900069 7.346853 13.833977 7.382517 13.767928 7.418182 13.701922 7.453846 13.635961 7.489510 13.570043 7.525175 13.504170 7.560839 13.438342 7.596503 13.372560 7.632168 13.306822 7.667832 13.241130 7.703497 13.175484 7.739161 13.109884 7.774825 13.044331 7.810490 12.978825 7.846154 12.913365 7.881818 12.847953 7.917483 12.782589 7.953147 12.717272 7.988811 12.652004 8.024476 12.586785 8.060140 12.521614 8.095804 12.456492 8.131469 12.391420 8.167133 12.326397 8.202797 12.261424 8.238462 12.196502 8.274126 12.131630 8.309790 12.066809 8.345455 12.002039 8.381119 11.937320 8.416783 11.872653 8.452448 11.808038 8.488112 11.743475 8.523776 11.678965 8.559441 11.614508 8.595105 11.550103 8.630769 11.485752 8.666434 11.421455 8.702098 11.357212 8.737762 11.293023 8.773427 11.228889 8.809091 11.164809 8.844755 11.100785 8.880420 11.036816 8.916084 10.972902 8.951748 10.909045 8.987413 10.845244 9.023077 10.781500 9.058741 10.717812 9.094406 10.654181 9.130070 10.590608 9.165734 10.527093 9.201399 10.463635 9.237063 10.400236 9.272727 10.336896 9.308392 10.273614 9.344056 10.210392 9.379720 10.147228 9.415385 10.084125 9.451049 10.021082 9.486713 9.958099 9.522378 9.895176 9.558042 9.832314 9.593706 9.769514 9.629371 9.706775 9.665035 9.644098 9.700699 9.581482 9.736364 9.518929 9.772028 9.456439 9.807692 9.394011 9.843357 9.331647 9.879021 9.269346 9.914685 9.207109 9.950350 9.144936 9.986014 9.082827 10.021678 9.020782 10.057343 8.958803 10.093007 8.896889 10.128671 8.835040 10.164336 8.773257 10.200000 8.711540 10.235664 8.649889 10.271329 8.588305 10.306993 8.526788 10.342657 8.465338 10.378322 8.403956 10.413986 8.342641 10.449650 8.281394 10.485315 8.220216 10.520979 8.159106 10.556643 8.098065 10.592308 8.037094 10.627972 7.976192 10.663636 7.915359 10.699301 7.854597 10.734965 7.793905 10.770629 7.733283 10.806294 7.672733 10.841958 7.612254 10.877622 7.551846 10.913287 7.491510 10.948951 7.431249 10.984615 7.371066 11.020280 7.310962 11.055944 7.250942 11.091608 7.191008 11.127273 7.131162 11.162937 7.071407 11.198601 7.011747 11.234266 6.952184 11.269930 6.892721 11.305594 6.833360 11.341259 6.774105 11.376923 6.714959 11.412587 6.655923 11.448252 6.597001 11.483916 6.538197 11.519580 6.479511 11.555245 6.420948 11.590909 6.362511 11.626573 6.304201 11.662238 6.246022 11.697902 6.187977 11.733566 6.130068 11.769231 6.072298 11.804895 6.014671 11.840559 5.957188 11.876224 5.899853 11.911888 5.842668 11.947552 5.785637 11.983217 5.728762 12.018881 5.672046 12.054545 5.615491 12.090210 5.559101 12.125874 5.502879 12.161538 5.446826 12.197203 5.390947 12.232867 5.335243 12.268531 5.279718 12.304196 5.224375 12.339860 5.169215 12.375524 5.114243 12.411189 5.059460 12.446853 5.004870 12.482517 4.950476 12.518182 4.896280 12.553846 4.842285 12.589510 4.788493 12.625175 4.734909 12.660839 4.681534 12.696503 4.628371 12.732168 4.575424 12.767832 4.522694 12.803497 4.470185 12.839161 4.417900 12.874825 4.365841 12.910490 4.314012 12.946154 4.262414 12.981818 4.211051 13.017483 4.159926 13.053147 4.109042 13.088811 4.058400 13.124476 4.008005 13.160140 3.957858 13.195804 3.907963 13.231469 3.858323 13.267133 3.808940 13.302797 3.759817 13.338462 3.710957 13.374126 3.662363 13.409790 3.614037 13.445455 3.565983 13.481119 3.518203 13.516783 3.470699 13.552448 3.423476 13.588112 3.376535 13.623776 3.329880 13.659441 3.283513 13.695105 3.237437 13.730769 3.191655 13.766434 3.146169 13.802098 3.100983 13.837762 3.056099 13.873427 3.011520 13.909091 2.967250 13.944755 2.923290 13.980420 2.879643 14.016084 2.836313 14.051748 2.793302 14.087413 2.750613 14.123077 2.708248 14.158741 2.666212 14.194406 2.624505 14.230070 2.583132 14.265734 2.542095 14.301399 2.501397 14.337063 2.461040 14.372727 2.421028 14.408392 2.381363 14.444056 2.342048 14.479720 2.303086 14.515385 2.264480 14.551049 2.226232 14.586713 2.188346 14.622378 2.150823 14.658042 2.113668 14.693706 2.076882 14.729371 2.040469 14.765035 2.004432 14.800699 1.968772 14.836364 1.933494 14.872028 1.898599 14.907692 1.864091 14.943357 1.829972 14.979021 1.796246 15.014685 1.762914 15.050350 1.729981 15.086014 1.697448 15.121678 1.665319 15.157343 1.633596 15.193007 1.602282 15.228671 1.571380 15.264336 1.540892 15.300000 1.510822 15.335664 1.481173 15.371329 1.451947 15.406993 1.423147 15.442657 1.394775 15.478322 1.366835 15.513986 1.339330 15.549650 1.312261 15.585315 1.285633 15.620979 1.259448 15.656643 1.233708 15.692308 1.208417 15.727972 1.183577 15.763636 1.159191 15.799301 1.135262 15.834965 1.111792 15.870629 1.088786 15.906294 1.066244 15.941958 1.044171 15.977622 1.022568 16.013287 1.001440 16.048951 0.980788 16.084615 0.960615 16.120280 0.940924 16.155944 0.921719 16.191608 0.903001 16.227273 0.884774 16.262937 0.867041 16.298601 0.849803 16.334266 0.833065 16.369930 0.816829 16.405594 0.801097 16.441259 0.785873 16.476923 0.771159 16.512587 0.756958 16.548252 0.743273 16.583916 0.730107 16.619580 0.717462 16.655245 0.705342 16.690909 0.693749 16.726573 0.682686 16.762238 0.672156 16.797902 0.662161 16.833566 0.652705 16.869231 0.643790 16.904895 0.635419 16.940559 0.627595 16.976224 0.620320 17.011888 0.613598 17.047552 0.607431 17.083217 0.601823 17.118881 0.596775 17.154545 0.592291 17.190210 0.588373 17.225874 0.585025 17.261538 0.582249 17.297203 0.580048 17.332867 0.578425 17.368531 0.577382 17.404196 0.576923 17.439860 0.577050 17.475524 0.577766 17.511189 0.579074 17.546853 0.580976 17.582517 0.583476 17.618182 0.586576 17.653846 0.590279 17.689510 0.594588 17.725175 0.599506 17.760839 0.605035 17.796503 0.611179 17.832168 0.617940 17.867832 0.625320 17.903497 0.633324 17.939161 0.641953 17.974825 0.651210 18.010490 0.661098 18.046154 0.671621 18.081818 0.682780 18.117483 0.694579 18.153147 0.707020 18.188811 0.720107 18.224476 0.733842 18.260140 0.748227 18.295804 0.763266 18.331469 0.778962 18.367133 0.795317 18.402797 0.812334 18.438462 0.830016 18.474126 0.848366 18.509790 0.867386 18.545455 0.887079 18.581119 0.907449 18.616783 0.928498 18.652448 0.950228 18.688112 0.972643 18.723776 0.995746 18.759441 1.019539 18.795105 1.044024 18.830769 1.069206 18.866434 1.095086 18.902098 1.121668 18.937762 1.148954 18.973427 1.176947 19.009091 1.205650 19.044755 1.235065 19.080420 1.265196 19.116084 1.296046 19.151748 1.327616 19.187413 1.359911 19.223077 1.392932 19.258741 1.426683 19.294406 1.461166 19.330070 1.496385 19.365734 1.532341 19.401399 1.569039 19.437063 1.606479 19.472727 1.644667 19.508392 1.683603 19.544056 1.723292 19.579720 1.763735 19.615385 1.804937 19.651049 1.846898 19.686713 1.889623 19.722378 1.933114 19.758042 1.977374 19.793706 2.022406 19.829371 2.068211 19.865035 2.114786 19.900699 2.162124 19.936364 2.210222 19.972028 2.259073 20.007692 2.308674 20.043357 2.359017 20.079021 2.410100 20.114685 2.461915 20.150350 2.514459 20.186014 2.567726 20.221678 2.621710 20.257343 2.676407 20.293007 2.731811 20.328671 2.787918 20.364336 2.844722 20.400000 2.902218 20.435664 2.960400 20.471329 3.019264 20.506993 3.078805 20.542657 3.139017 20.578322 3.199895 20.613986 3.261434 20.649650 3.323629 20.685315 3.386475 20.720979 3.449966 20.756643 3.514098 20.792308 3.578864 20.827972 3.644261 20.863636 3.710283 20.899301 3.776924 20.934965 3.844180 20.970629 3.912045 21.006294 3.980515 21.041958 4.049583 21.077622 4.119245 21.113287 4.189497 21.148951 4.260331 21.184615 4.331744 21.220280 4.403731 21.255944 4.476285 21.291608 4.549402 21.327273 4.623078 21.362937 4.697305 21.398601 4.772080 21.434266 4.847398 21.469930 4.923252 21.505594 4.999639 21.541259 5.076552 21.576923 5.153987 21.612587 5.231939 21.648252 5.310401 21.683916 5.389370 21.719580 5.468840 21.755245 5.548806 21.790909 5.629262 21.826573 5.710204 21.862238 5.791626 21.897902 5.873523 21.933566 5.955891 21.969231 6.038723 22.004895 6.122015 22.040559 6.205761 22.076224 6.289957 22.111888 6.374597 22.147552 6.459676 22.183217 6.545189 22.218881 6.631131 22.254545 6.717496 22.290210 6.804280 22.325874 6.891477 22.361538 6.979082 22.397203 7.067090 22.432867 7.155496 22.468531 7.244294 22.504196 7.333479 22.539860 7.423047 22.575524 7.512992 22.611189 7.603309 22.646853 7.693993 22.682517 7.785039 22.718182 7.876441 22.753846 7.968194 22.789510 8.060293 22.825175 8.152733 22.860839 8.245510 22.896503 8.338616 22.932168 8.432049 22.967832 8.525801 23.003497 8.619869 23.039161 8.714247 23.074825 8.808929 23.110490 8.903912 23.146154 8.999189 23.181818 9.094755 23.217483 9.190605 23.253147 9.286735 23.288811 9.383138 23.324476 9.479810 23.360140 9.576746 23.395804 9.673940 23.431469 9.771387 23.467133 9.869082 23.502797 9.967020 23.538462 10.065196 23.574126 10.163605 23.609790 10.262241 23.645455 10.361099 23.681119 10.460175 23.716783 10.559462 23.752448 10.658956 23.788112 10.758652 23.823776 10.858544 23.859441 10.958627 23.895105 11.058897 23.930769 11.159347 23.966434 11.259974 24.002098 11.360770 24.037762 11.461733 24.073427 11.562856 24.109091 11.664134 24.144755 11.765562 24.180420 11.867134 24.216084 11.968847 24.251748 12.070694 24.287413 12.172670 24.323077 12.274771 24.358741 12.376990 24.394406 12.479324 24.430070 12.581766 24.465734 12.684312 24.501399 12.786956 24.537063 12.889693 24.572727 12.992519 24.608392 13.095427 24.644056 13.198413 24.679720 13.301472 24.715385 13.404598 24.751049 13.507786 24.786713 13.611031 24.822378 13.714329 24.858042 13.817673 24.893706 13.921058 24.929371 14.024480 24.965035 14.127934 25.000699 14.231413 25.036364 14.334914 25.072028 14.438430 25.107692 14.541957 25.143357 14.645490 25.179021 14.749022 25.214685 14.852550 25.250350 14.956068 25.286014 15.059571 25.321678 15.163053 25.357343 15.266510 25.393007 15.369936 25.428671 15.473327 25.464336 15.576676 25.500000 15.679980 25.535664 15.783232 25.571329 15.886427 25.606993 15.989561 25.642657 16.092628 25.678322 16.195624 25.713986 16.298542 25.749650 16.401378 25.785315 16.504126 25.820979 16.606782 25.856643 16.709340 25.892308 16.811795 25.927972 16.914142 25.963636 17.016376 25.999301 17.118492 26.034965 17.220484 26.070629 17.322347 26.106294 17.424076 26.141958 17.525666 26.177622 17.627112 26.213287 17.728409 26.248951 17.829551 26.284615 17.930534 26.320280 18.031351 26.355944 18.131999 26.391608 18.232471 26.427273 18.332763 26.462937 18.432870 26.498601 18.532786 26.534266 18.632506 26.569930 18.732025 26.605594 18.831338 26.641259 18.930440 26.676923 19.029325 26.712587 19.127989 26.748252 19.226425 26.783916 19.324630 26.819580 19.422598 26.855245 19.520323 26.890909 19.617801 26.926573 19.715027 26.962238 19.811994 26.997902 19.908699 27.033566 20.005136 27.069231 20.101299 27.104895 20.197184 27.140559 20.292786 27.176224 20.388098 27.211888 20.483117 27.247552 20.577837 27.283217 20.672253 27.318881 20.766359 27.354545 20.860150 27.390210 20.953622 27.425874 21.046769 27.461538 21.139587 27.497203 21.232068 27.532867 21.324210 27.568531 21.416006 27.604196 21.507451 27.639860 21.598541 27.675524 21.689269 27.711189 21.779632 27.746853 21.869623 27.782517 21.959237 27.818182 22.048470 27.853846 22.137317 27.889510 22.225771 27.925175 22.313828 27.960839 22.401483 27.996503 22.488730 28.032168 22.575565 28.067832 22.661982 28.103497 22.747976 28.139161 22.833542 28.174825 22.918675 28.210490 23.003369 28.246154 23.087620 28.281818 23.171422 28.317483 23.254770 28.353147 23.337659 28.388811 23.420084 28.424476 23.502039 28.460140 23.583520 28.495804 23.664521 28.531469 23.745037 28.567133 23.825064 28.602797 23.904595 28.638462 23.983626 28.674126 24.062151 28.709790 24.140165 28.745455 24.217665 28.781119 24.294647 28.816783 24.371111 28.852448 24.447055 28.888112 24.522478 28.923776 24.597379 28.959441 24.671757 28.995105 24.745610 29.030769 24.818937 29.066434 24.891736 29.102098 24.964007 29.137762 25.035748 29.173427 25.106958 29.209091 25.177635 29.244755 25.247779 29.280420 25.317388 29.316084 25.386461 29.351748 25.454996 29.387413 25.522992 29.423077 25.590449 29.458741 25.657364 29.494406 25.723736 29.530070 25.789564 29.565734 25.854848 29.601399 25.919585 29.637063 25.983774 29.672727 26.047414 29.708392 26.110504 29.744056 26.173042 29.779720 26.235028 29.815385 26.296460 29.851049 26.357336 29.886713 26.417655 29.922378 26.477417 29.958042 26.536620 29.993706 26.595262 30.029371 26.653342 30.065035 26.710859 30.100699 26.767812 30.136364 26.824200 30.172028 26.880020 30.207692 26.935273 30.243357 26.989956 30.279021 27.044069 30.314685 27.097609 30.350350 27.150577 30.386014 27.202970 30.421678 27.254787 30.457343 27.306027 30.493007 27.356689 30.528671 27.406772 30.564336 27.456273 30.600000 27.505192 30.635664 27.553528 30.671329 27.601280 30.706993 27.648445 30.742657 27.695023 30.778322 27.741013 30.813986 27.786413 30.849650 27.831222 30.885315 27.875438 30.920979 27.919061 30.956643 27.962089 30.992308 28.004521 31.027972 28.046355 31.063636 28.087591 31.099301 28.128227 31.134965 28.168262 31.170629 28.207694 31.206294 28.246522 31.241958 28.284745 31.277622 28.322362 31.313287 28.359372 31.348951 28.395772 31.384615 28.431562 31.420280 28.466741 31.455944 28.501307 31.491608 28.535259 31.527273 28.568596 31.562937 28.601316 31.598601 28.633419 31.634266 28.664902 31.669930 28.695765 31.705594 28.726007 31.741259 28.755625 31.776923 28.784619 31.812587 28.812988 31.848252 28.840730 31.883916 28.867845 31.919580 28.894329 31.955245 28.920184 31.990909 28.945406 32.026573 28.969995 32.062238 28.993950 32.097902 29.017270 32.133566 29.039952 32.169231 29.061996 32.204895 29.083401 32.240559 29.104165 32.276224 29.124287 32.311888 29.143765 32.347552 29.162599 32.383217 29.180787 32.418881 29.198328 32.454545 29.215221 32.490210 29.231464 32.525874 29.247056 32.561538 29.261996 32.597203 29.276282 32.632867 29.289913 32.668531 29.302889 32.704196 29.315207 32.739860 29.326867 32.775524 29.337866 32.811189 29.348205 32.846853 29.357881 32.882517 29.366893 32.918182 29.375240 32.953846 29.382922 32.989510 29.389935 33.025175 29.396280 33.060839 29.401955 33.096503 29.406958 33.132168 29.411289 33.167832 29.414946 33.203497 29.417927 33.239161 29.420233 33.274825 29.421860 33.310490 29.422809 33.346154 29.423077 33.381818 29.422664 33.417483 29.421568 33.453147 29.419787 33.488811 29.417322 33.524476 29.414170 33.560140 29.410329 33.595804 29.405800 33.631469 29.400580 33.667133 29.394669 33.702797 29.388064 33.738462 29.380765 33.774126 29.372771 33.809790 29.364080 33.845455 29.354690 33.881119 29.344602 33.916783 29.333812 33.952448 29.322321 33.988112 29.310126 34.023776 29.297227 34.059441 29.283622 34.095105 29.269310 34.130769 29.254290 34.166434 29.238560 34.202098 29.222120 34.237762 29.204967 34.273427 29.187101 34.309091 29.168520 34.344755 29.149223 34.380420 29.129209 34.416084 29.108476 34.451748 29.087024 34.487413 29.064851 34.523077 29.041955 34.558741 29.018335 34.594406 28.993991 34.630070 28.968921 34.665734 28.943123 34.701399 28.916596 34.737063 28.889340 34.772727 28.861352 34.808392 28.832632 34.844056 28.803177 34.879720 28.772988 34.915385 28.742063 34.951049 28.710399 34.986713 28.677997 35.022378 28.644855 35.058042 28.610971 35.093706 28.576345 35.129371 28.540974 35.165035 28.504858 35.200699 28.467996 35.236364 28.430386 35.272028 28.392027 35.307692 28.352917 35.343357 28.313056 35.379021 28.272442 35.414685 28.231073 35.450350 28.188949 35.486014 28.146069 35.521678 28.102430 35.557343 28.058032 35.593007 28.012873 35.628671 27.966953 35.664336 27.920269 35.700000 27.872822 35.735664 27.824608 35.771329 27.775627 35.806993 27.725879 35.842657 27.675360 35.878322 27.624071 35.913986 27.572010 35.949650 27.519176 35.985315 27.465567 36.020979 27.411182 36.056643 27.356020 36.092308 27.300079 36.127972 27.243359 36.163636 27.185858 36.199301 27.127575 36.234965 27.068508 36.270629 27.008656 36.306294 26.948018 36.341958 26.886593 36.377622 26.824380 36.413287 26.761376 36.448951 26.697581 36.484615 26.632994 36.520280 26.567613 36.555944 26.501437 36.591608 26.434465 36.627273 26.366695 36.662937 26.298127 36.698601 26.228758 36.734266 26.158588 36.769930 26.087615 36.805594 26.015839 36.841259 25.943257 36.876923 25.869869 36.912587 25.795673 36.948252 25.720668 36.983916 25.644853 37.019580 25.568226 37.055245 25.490786 37.090909 25.412532 37.126573 25.333463 37.162238 25.253577 37.197902 25.172874 37.233566 25.091351 37.269231 25.009007 37.304895 24.925842 37.340559 24.841854 37.376224 24.757041 37.411888 24.671403 37.447552 24.584938 37.483217 24.497645 37.518881 24.409522 37.554545 24.320569 37.590210 24.230784 37.625874 24.140165 37.661538 24.048714 37.697203 23.956439 37.732867 23.863350 37.768531 23.769457 37.804196 23.674770 37.839860 23.579301 37.875524 23.483058 37.911189 23.386053 37.946853 23.288295 37.982517 23.189795 38.018182 23.090564 38.053846 22.990610 38.089510 22.889945 38.125175 22.788579 38.160839 22.686523 38.196503 22.583785 38.232168 22.480378 38.267832 22.376310 38.303497 22.271592 38.339161 22.166235 38.374825 22.060248 38.410490 21.953643 38.446154 21.846429 38.481818 21.738616 38.517483 21.630215 38.553147 21.521235 38.588811 21.411689 38.624476 21.301584 38.660140 21.190933 38.695804 21.079744 38.731469 20.968029 38.767133 20.855797 38.802797 20.743060 38.838462 20.629826 38.874126 20.516106 38.909790 20.401912 38.945455 20.287252 38.981119 20.172137 39.016783 20.056577 39.052448 19.940584 39.088112 19.824166 39.123776 19.707334 39.159441 19.590099 39.195105 19.472470 39.230769 19.354458 39.266434 19.236074 39.302098 19.117327 39.337762 18.998228 39.373427 18.878786 39.409091 18.759013 39.444755 18.638919 39.480420 18.518513 39.516084 18.397806 39.551748 18.276809 39.587413 18.155531 39.623077 18.033983 39.658741 17.912175 39.694406 17.790117 39.730070 17.667820 39.765734 17.545294 39.801399 17.422549 39.837063 17.299595 39.872727 17.176443 39.908392 17.053102 39.944056 16.929584 39.979720 16.805899 40.015385 16.682056 40.051049 16.558066 40.086713 16.433939 40.122378 16.309685 40.158042 16.185315 40.193706 16.060840 40.229371 15.936268 40.265035 15.811611 40.300699 15.686879 40.336364 15.562081 40.372028 15.437229 40.407692 15.312333 40.443357 15.187402 40.479021 15.062448 40.514685 14.937479 40.550350 14.812508 40.586014 14.687543 40.621678 14.562595 40.657343 14.437674 40.693007 14.312792 40.728671 14.187957 40.764336 14.063180 40.800000 13.938471 40.835664 13.813842 40.871329 13.689301 40.906993 13.564859 40.942657 13.440527 40.978322 13.316314 41.013986 13.192232 41.049650 13.068289 41.085315 12.944497 41.120979 12.820866 41.156643 12.697406 41.192308 12.574127 41.227972 12.451040 41.263636 12.328154 41.299301 12.205481 41.334965 12.083029 41.370629 11.960811 41.406294 11.838835 41.441958 11.717112 41.477622 11.595653 41.513287 11.474467 41.548951 11.353565 41.584615 11.232957 41.620280 11.112654 41.655944 10.992665 41.691608 10.873001 41.727273 10.753672 41.762937 10.634689 41.798601 10.516061 41.834266 10.397799 41.869930 10.279914 41.905594 10.162415 41.941259 10.045313 41.976923 9.928617 42.012587 9.812339 42.048252 9.696489 42.083916 9.581076 42.119580 9.466111 42.155245 9.351604 42.190909 9.237567 42.226573 9.124007 42.262238 9.010937 42.297902 8.898367 42.333566 8.786305 42.369231 8.674764 42.404895 8.563753 42.440559 8.453282 42.476224 8.343362 42.511888 8.234003 42.547552 8.125214 42.583217 8.017008 42.618881 7.909393 42.654545 7.802380 42.690210 7.695979 42.725874 7.590200 42.761538 7.485054 42.797203 7.380551 42.832867 7.276702 42.868531 7.173516 42.904196 7.071003 42.939860 6.969175 42.975524 6.868041 43.011189 6.767612 43.046853 6.667897 43.082517 6.568907 43.118182 6.470653 43.153846 6.373144 43.189510 6.276391 43.225175 6.180404 43.260839 6.085194 43.296503 5.990770 43.332168 5.897143 43.367832 5.804323 43.403497 5.712321 43.439161 5.621146 43.474825 5.530809 43.510490 5.441320 43.546154 5.352690 43.581818 5.264928 43.617483 5.178046 43.653147 5.092052 43.688811 5.006958 43.724476 4.922774 43.760140 4.839510 43.795804 4.757176 43.831469 4.675783 43.867133 4.595340 43.902797 4.515858 43.938462 4.437348 43.974126 4.359819 44.009790 4.283282 44.045455 4.207748 44.081119 4.133225 44.116783 4.059725 44.152448 3.987258 44.188112 3.915834 44.223776 3.845464 44.259441 3.776157 44.295105 3.707924 44.330769 3.640775 44.366434 3.574721 44.402098 3.509771 44.437762 3.445936 44.473427 3.383227 44.509091 3.321653 44.544755 3.261225 44.580420 3.201952 44.616084 3.143846 44.651748 3.086916 44.687413 3.031174 44.723077 2.976628 44.758741 2.923289 44.794406 2.871168 44.830070 2.820275 44.865734 2.770620 44.901399 2.722213 44.937063 2.675065 44.972727 2.629186 45.008392 2.584585 45.044056 2.541275 45.079720 2.499263 45.115385 2.458562 45.151049 2.419181 45.186713 2.381130 45.222378 2.344420 45.258042 2.309061 45.293706 2.275063 45.329371 2.242436 45.365035 2.211191 45.400699 2.181339 45.436364 2.152888 45.472028 2.125850 45.507692 2.100234 45.543357 2.076052 45.579021 2.053313 45.614685 2.032028 45.650350 2.012206 45.686014 1.993858 45.721678 1.976995 45.757343 1.961626 45.793007 1.947762 45.828671 1.935413 45.864336 1.924589 45.900000 1.915302 45.935664 1.907560 45.971329 1.901374 46.006993 1.896754 46.042657 1.893711 46.078322 1.892255 46.113986 1.892397 46.149650 1.894145 46.185315 1.897512 46.220979 1.902506 46.256643 1.909139 46.292308 1.917420 46.327972 1.927359 46.363636 1.938968 46.399301 1.952256 46.434965 1.967234 46.470629 1.983911 46.506294 2.002299 46.541958 2.022406 46.577622 2.044240 46.613287 2.067791 46.648951 2.093043 46.684615 2.119983 46.720280 2.148597 46.755944 2.178869 46.791608 2.210787 46.827273 2.244335 46.862937 2.279499 46.898601 2.316266 46.934266 2.354620 46.969930 2.394547 47.005594 2.436034 47.041259 2.479065 47.076923 2.523627 47.112587 2.569705 47.148252 2.617285 47.183916 2.666353 47.219580 2.716894 47.255245 2.768895 47.290909 2.822340 47.326573 2.877215 47.362238 2.933507 47.397902 2.991201 47.433566 3.050283 47.469231 3.110738 47.504895 3.172552 47.540559 3.235711 47.576224 3.300200 47.611888 3.366006 47.647552 3.433114 47.683217 3.501509 47.718881 3.571178 47.754545 3.642105 47.790210 3.714278 47.825874 3.787681 47.861538 3.862301 47.897203 3.938122 47.932867 4.015131 47.968531 4.093313 48.004196 4.172655 48.039860 4.253141 48.075524 4.334758 48.111189 4.417491 48.146853 4.501326 48.182517 4.586248 48.218182 4.672244 48.253846 4.759299 48.289510 4.847399 48.325175 4.936530 48.360839 5.026676 48.396503 5.117825 48.432168 5.209961 48.467832 5.303071 48.503497 5.397139 48.539161 5.492153 48.574825 5.588097 48.610490 5.684957 48.646154 5.782719 48.681818 5.881368 48.717483 5.980891 48.753147 6.081274 48.788811 6.182501 48.824476 6.284558 48.860140 6.387432 48.895804 6.491107 48.931469 6.595570 48.967133 6.700807 49.002797 6.806802 49.038462 6.913543 49.074126 7.021014 49.109790 7.129201 49.145455 7.238090 49.181119 7.347666 49.216783 7.457916 49.252448 7.568825 49.288112 7.680379 49.323776 7.792563 49.359441 7.905364 49.395105 8.018766 49.430769 8.132756 49.466434 8.247319 49.502098 8.362442 49.537762 8.478109 49.573427 8.594306 49.609091 8.711020 49.644755 8.828236 49.680420 8.945939 49.716084 9.064116 49.751748 9.182751 49.787413 9.301832 49.823077 9.421342 49.858741 9.541270 49.894406 9.661598 49.930070 9.782315 49.965734 9.903405 50.001399 10.024854 50.037063 10.146647 50.072727 10.268771 50.108392 10.391212 50.144056 10.513954 50.179720 10.636984 50.215385 10.760287 50.251049 10.883849 50.286713 11.007656 50.322378 11.131693 50.358042 11.255946 50.393706 11.380402 50.429371 11.505045 50.465035 11.629861 50.500699 11.754836 50.536364 11.879956 50.572028 12.005207 50.607692 12.130573 50.643357 12.256042 50.679021 12.381598 50.714685 12.507227 50.750350 12.632915 50.786014 12.758648 50.821678 12.884412 50.857343 13.010192 50.893007 13.135973 50.928671 13.261742 50.964336 13.387485 51.000000 13.513186 51.035664 13.638832 51.071329 13.764409 51.106993 13.889901 51.142657 14.015296 51.178322 14.140578 51.213986 14.265733 51.249650 14.390748 51.285315 14.515607 51.320979 14.640296 51.356643 14.764802 51.392308 14.889109 51.427972 15.013204 51.463636 15.137073 51.499301 15.260700 51.534965 15.384072 51.570629 15.507175 51.606294 15.629993 51.641958 15.752514 51.677622 15.874722 51.713287 15.996603 51.748951 16.118143 51.784615 16.239328 51.820280 16.360143 51.855944 16.480575 51.891608 16.600608 51.927273 16.720229 51.962937 16.839423 51.998601 16.958176 52.034266 17.076474 52.069930 17.194302 52.105594 17.311646 52.141259 17.428492 52.176923 17.544826 52.212587 17.660633 52.248252 17.775899 52.283916 17.890609 52.319580 18.004750 52.355245 18.118307 52.390909 18.231266 52.426573 18.343612 52.462238 18.455332 52.497902 18.566411 52.533566 18.676834 52.569231 18.786588 52.604895 18.895657 52.640559 19.004029 52.676224 19.111688 52.711888 19.218620 52.747552 19.324812 52.783217 19.430248 52.818881 19.534914 52.854545 19.638796 52.890210 19.741881 52.925874 19.844152 52.961538 19.945597 52.997203 20.046201 53.032867 20.145950 53.068531 20.244829 53.104196 20.342824 53.139860 20.439921 53.175524 20.536105 53.211189 20.631363 53.246853 20.725679 53.282517 20.819040 53.318182 20.911432 53.353846 21.002839 53.389510 21.093249 53.425175 21.182646 53.460839 21.271016 53.496503 21.358345 53.532168 21.444619 53.567832 21.529823 53.603497 21.613943 53.639161 21.696965 53.674825 21.778874 53.710490 21.859657 53.746154 21.939298 53.781818 22.017784 53.817483 22.095101 53.853147 22.171233 53.888811 22.246168 53.924476 22.319890 53.960140 22.392385 53.995804 22.463639 54.031469 22.533637 54.067133 22.602366 54.102797 22.669811 54.138462 22.735958 54.174126 22.800792 54.209790 22.864300 54.245455 22.926466 54.281119 22.987277 54.316783 23.046718 54.352448 23.104776 54.388112 23.161435 54.423776 23.216681 54.459441 23.270501 54.495105 23.322880 54.530769 23.373803 54.566434 23.423257 54.602098 23.471226 54.637762 23.517698 54.673427 23.562657 54.709091 23.606089 54.744755 23.647980 54.780420 23.688315 54.816084 23.727081 54.851748 23.764263 54.887413 23.799847 54.923077 23.833818 54.958741 23.866162 54.994406 23.896866 55.030070 23.925913 55.065734 23.953291 55.101399 23.978986 55.137063 24.002981 55.172727 24.025265 55.208392 24.045821 55.244056 24.064637 55.279720 24.081697 55.315385 24.096987 55.351049 24.110493 55.386713 24.122201 55.422378 24.132097 55.458042 24.140165 55.493706 24.146397 55.529371 24.150801 55.565035 24.153390 55.600699 24.154176 55.636364 24.153173 55.672028 24.150393 55.707692 24.145849 55.743357 24.139555 55.779021 24.131523 55.814685 24.121766 55.850350 24.110297 55.886014 24.097129 55.921678 24.082275 55.957343 24.065747 55.993007 24.047559 56.028671 24.027724 56.064336 24.006254 56.100000 23.983163 56.135664 23.958463 56.171329 23.932167 56.206993 23.904289 56.242657 23.874840 56.278322 23.843835 56.313986 23.811285 56.349650 23.777204 56.385315 23.741605 56.420979 23.704500 56.456643 23.665903 56.492308 23.625827 56.527972 23.584284 56.563636 23.541287 56.599301 23.496849 56.634965 23.450984 56.670629 23.403703 56.706294 23.355021 56.741958 23.304949 56.777622 23.253501 56.813287 23.200690 56.848951 23.146528 56.884615 23.091029 56.920280 23.034205 56.955944 22.976070 56.991608 22.916636 57.027273 22.855916 57.062937 22.793923 57.098601 22.730670 57.134266 22.666170 57.169930 22.600436 57.205594 22.533481 57.241259 22.465317 57.276923 22.395958 57.312587 22.325416 57.348252 22.253705 57.383916 22.180837 57.419580 22.106825 57.455245 22.031683 57.490909 21.955422 57.526573 21.878057 57.562238 21.799599 57.597902 21.720062 57.633566 21.639459 57.669231 21.557802 57.704895 21.475105 57.740559 21.391380 57.776224 21.306641 57.811888 21.220900 57.847552 21.134170 57.883217 21.046464 57.918881 20.957796 57.954545 20.868177 57.990210 20.777621 58.025874 20.686141 58.061538 20.593749 58.097203 20.500459 58.132867 20.406284 58.168531 20.311236 58.204196 20.215328 58.239860 20.118574 58.275524 20.020986 58.311189 19.922576 58.346853 19.823359 58.382517 19.723347 58.418182 19.622552 58.453846 19.520988 58.489510 19.418668 58.525175 19.315605 58.560839 19.211811 58.596503 19.107299 58.632168 19.002082 58.667832 18.896174 58.703497 18.789587 58.739161 18.682334 58.774825 18.574428 58.810490 18.465881 58.846154 18.356708 58.881818 18.246920 58.917483 18.136531 58.953147 18.025553 58.988811 17.914000 59.024476 17.801884 59.060140 17.689218 59.095804 17.576015 59.131469 17.462289 59.167133 17.348052 59.202797 17.233316 59.238462 17.118095 59.274126 17.002402 59.309790 16.886250 59.345455 16.769651 59.381119 16.652619 59.416783 16.535166 59.452448 16.417306 59.488112 16.299051 59.523776 16.180413 59.559441 16.061407 59.595105 15.942045 59.630769 15.822340 59.666434 15.702304 59.702098 15.581952 59.737762 15.461295 59.773427 15.340346 59.809091 15.219119 59.844755 15.097626 59.880420 14.975881 59.916084 14.853895 59.951748 14.731683 59.987413 14.609257 60.023077 14.486630 60.058741 14.363814 60.094406 14.240824 60.130070 14.117671 60.165734 13.994368 60.201399 13.870929 60.237063 13.747367 60.272727 13.623694 60.308392 13.499923 60.344056 13.376067 60.379720 13.252140 60.415385 13.128153 60.451049 13.004120 60.486713 12.880054 60.522378 12.755968 60.558042 12.631874 60.593706 12.507786 60.629371 12.383717 60.665035 12.259679 60.700699 12.135685 60.736364 12.011748 60.772028 11.887882 60.807692 11.764098 60.843357 11.640411 60.879021 11.516832 60.914685 11.393375 60.950350 11.270053 60.986014 11.146878 61.021678 11.023864 61.057343 10.901024 61.093007 10.778369 61.128671 10.655914 61.164336 10.533671 61.200000 10.411654 61.235664 10.289874 61.271329 10.168345 61.306993 10.047080 61.342657 9.926092 61.378322 9.805393 61.413986 9.684997 61.449650 9.564917 61.485315 9.445165 61.520979 9.325754 61.556643 9.206697 61.592308 9.088008 61.627972 8.969698 61.663636 8.851782 61.699301 8.734272 61.734965 8.617180 61.770629 8.500520 61.806294 8.384304 61.841958 8.268547 61.877622 8.153259 61.913287 8.038455 61.948951 7.924147 61.984615 7.810349 62.020280 7.697073 62.055944 7.584331 62.091608 7.472138 62.127273 7.360505 62.162937 7.249446 62.198601 7.138974 62.234266 7.029101 62.269930 6.919841 62.305594 6.811207 62.341259 6.703210 62.376923 6.595865 62.412587 6.489185 62.448252 6.383181 62.483916 6.277867 62.519580 6.173256 62.555245 6.069361 62.590909 5.966194 62.626573 5.863770 62.662238 5.762100 62.697902 5.661197 62.733566 5.561075 62.769231 5.461746 62.804895 5.363223 62.840559 5.265519 62.876224 5.168648 62.911888 5.072621 62.947552 4.977452 62.983217 4.883154 63.018881 4.789740 63.054545 4.697222 63.090210 4.605614 63.125874 4.514928 63.161538 4.425178 63.197203 4.336376 63.232867 4.248535 63.268531 4.161668 63.304196 4.075788 63.339860 3.990908 63.375524 3.907041 63.411189 3.824200 63.446853 3.742397 63.482517 3.661646 63.518182 3.581960 63.553846 3.503351 63.589510 3.425832 63.625175 3.349416 63.660839 3.274117 63.696503 3.199946 63.732168 3.126918 63.767832 3.055044 63.803497 2.984339 63.839161 2.914814 63.874825 2.846482 63.910490 2.779357 63.946154 2.713452 63.981818 2.648779 64.017483 2.585351 64.053147 2.523182 64.088811 2.462284 64.124476 2.402669 64.160140 2.344352 64.195804 2.287344 64.231469 2.231659 64.267133 2.177310 64.302797 2.124310 64.338462 2.072671 64.374126 2.022406 64.409790 1.973526 64.445455 1.926025 64.481119 1.879896 64.516783 1.835131 64.552448 1.791723 64.588112 1.749665 64.623776 1.708948 64.659441 1.669564 64.695105 1.631507 64.730769 1.594769 64.766434 1.559341 64.802098 1.525217 64.837762 1.492388 64.873427 1.460848 64.909091 1.430587 64.944755 1.401600 64.980420 1.373877 65.016084 1.347412 65.051748 1.322196 65.087413 1.298223 65.123077 1.275484 65.158741 1.253972 65.194406 1.233680 65.230070 1.214598 65.265734 1.196721 65.301399 1.180040 65.337063 1.164548 65.372727 1.150237 65.408392 1.137099 65.444056 1.125126 65.479720 1.114312 65.515385 1.104648 65.551049 1.096127 65.586713 1.088741 65.622378 1.082483 65.658042 1.077345 65.693706 1.073318 65.729371 1.070397 65.765035 1.068572 65.800699 1.067836 65.836364 1.068182 65.872028 1.069602 65.907692 1.072089 65.943357 1.075634 65.979021 1.080230 66.014685 1.085870 66.050350 1.092545 66.086014 1.100249 66.121678 1.108973 66.157343 1.118710 66.193007 1.129452 66.228671 1.141192 66.264336 1.153922 66.300000 1.167634 66.335664 1.182320 66.371329 1.197974 66.406993 1.214587 66.442657 1.232152 66.478322 1.250661 66.513986 1.270106 66.549650 1.290480 66.585315 1.311775 66.620979 1.333984 66.656643 1.357098 66.692308 1.381111 66.727972 1.406014 66.763636 1.431801 66.799301 1.458462 66.834965 1.485992 66.870629 1.514381 66.906294 1.543622 66.941958 1.573709 66.977622 1.604632 67.013287 1.636385 67.048951 1.668960 67.084615 1.702349 67.120280 1.736544 67.155944 1.771538 67.191608 1.807324 67.227273 1.843893 67.262937 1.881238 67.298601 1.919351 67.334266 1.958225 67.369930 1.997852 67.405594 2.038224 67.441259 2.079334 67.476923 2.121174 67.512587 2.163737 67.548252 2.207014 67.583916 2.250999 67.619580 2.295683 67.655245 2.341059 67.690909 2.387119 67.726573 2.433856 67.762238 2.481261 67.797902 2.529328 67.833566 2.578049 67.869231 2.627416 67.904895 2.677421 67.940559 2.728057 67.976224 2.779316 68.011888 2.831190 68.047552 2.883672 68.083217 2.936755 68.118881 2.990429 68.154545 3.044689 68.190210 3.099526 68.225874 3.154933 68.261538 3.210901 68.297203 3.267424 68.332867 3.324494 68.368531 3.382102 68.404196 3.440242 68.439860 3.498906 68.475524 3.558086 68.511189 3.617774 68.546853 3.677963 68.582517 3.738645 68.618182 3.799813 68.653846 3.861459 68.689510 3.923574 68.725175 3.986153 68.760839 4.049186 68.796503 4.112667 68.832168 4.176588 68.867832 4.240940 68.903497 4.305717 68.939161 4.370911 68.974825 4.436513 69.010490 4.502517 69.046154 4.568915 69.081818 4.635700 69.117483 4.702862 69.153147 4.770396 69.188811 4.838293 69.224476 4.906545 69.260140 4.975146 69.295804 5.044087 69.331469 5.113360 69.367133 5.182958 69.402797 5.252874 69.438462 5.323100 69.474126 5.393628 69.509790 5.464450 69.545455 5.535559 69.581119 5.606947 69.616783 5.678607 69.652448 5.750531 69.688112 5.822711 69.723776 5.895139 69.759441 5.967809 69.795105 6.040711 69.830769 6.113840 69.866434 6.187187 69.902098 6.260744 69.937762 6.334503 69.973427 6.408458 70.009091 6.482600 70.044755 6.556923 70.080420 6.631417 70.116084 6.706076 70.151748 6.780892 70.187413 6.855857 70.223077 6.930963 70.258741 7.006204 70.294406 7.081571 70.330070 7.157057 70.365734 7.232653 70.401399 7.308354 70.437063 7.384150 70.472727 7.460034 70.508392 7.535998 70.544056 7.612035 70.579720 7.688138 70.615385 7.764298 70.651049 7.840508 70.686713 7.916760 70.722378 7.993047 70.758042 8.069361 70.793706 8.145694 70.829371 8.222039 70.865035 8.298388 70.900699 8.374734 70.936364 8.451068 70.972028 8.527383 71.007692 8.603672 71.043357 8.679927 71.079021 8.756139 71.114685 8.832303 71.150350 8.908409 71.186014 8.984451 71.221678 9.060420 71.257343 9.136309 71.293007 9.212111 71.328671 9.287817 71.364336 9.363420 71.400000 9.438913 71.435664 9.514287 71.471329 9.589536 71.506993 9.664651 71.542657 9.739625 71.578322 9.814450 71.613986 9.889119 71.649650 9.963624 71.685315 10.037957 71.720979 10.112110 71.756643 10.186077 71.792308 10.259849 71.827972 10.333418 71.863636 10.406778 71.899301 10.479920 71.934965 10.552837 71.970629 10.625521 72.006294 10.697965 72.041958 10.770160 72.077622 10.842100 72.113287 10.913776 72.148951 10.985181 72.184615 11.056307 72.220280 11.127147 72.255944 11.197693 72.291608 11.267938 72.327273 11.337873 72.362937 11.407491 72.398601 11.476785 72.434266 11.545746 72.469930 11.614368 72.505594 11.682642 72.541259 11.750561 72.576923 11.818117 72.612587 11.885302 72.648252 11.952110 72.683916 12.018532 72.719580 12.084561 72.755245 12.150188 72.790909 12.215407 72.826573 12.280210 72.862238 12.344589 72.897902 12.408536 72.933566 12.472044 72.969231 12.535105 73.004895 12.597711 73.040559 12.659856 73.076224 12.721531 73.111888 12.782728 73.147552 12.843440 73.183217 12.903660 73.218881 12.963379 73.254545 13.022590 73.290210 13.081286 73.325874 13.139460 73.361538 13.197113 73.397203 13.254249 73.432867 13.310870 73.468531 13.366979 73.504196 13.422579 73.539860 13.477672 73.575524 13.532261 73.611189 13.586349 73.646853 13.639940 73.682517 13.693035 73.718182 13.745637 73.753846 13.797750 73.789510 13.849375 73.825175 13.900517 73.860839 13.951177 73.896503 14.001358 73.932168 14.051064 73.967832 14.100297 74.003497 14.149059 74.039161 14.197354 74.074825 14.245185 74.110490 14.292553 74.146154 14.339463 74.181818 14.385916 74.217483 14.431916 74.253147 14.477465 74.288811 14.522567 74.324476 14.567223 74.360140 14.611437 74.395804 14.655211 74.431469 14.698549 74.467133 14.741453 74.502797 14.783926 74.538462 14.825970 74.574126 14.867589 74.609790 14.908785 74.645455 14.949562 74.681119 14.989921 74.716783 15.029865 74.752448 15.069399 74.788112 15.108523 74.823776 15.147242 74.859441 15.185557 74.895105 15.223472 74.930769 15.260989 74.966434 15.298112 75.002098 15.334842 75.037762 15.371183 75.073427 15.407138 75.109091 15.442709 75.144755 15.477900 75.180420 15.512712 75.216084 15.547149 75.251748 15.581214 75.287413 15.614909 75.323077 15.648237 75.358741 15.681201 75.394406 15.713803 75.430070 15.746047 75.465734 15.777936 75.501399 15.809471 75.537063 15.840657 75.572727 15.871495 75.608392 15.901989 75.644056 15.932140 75.679720 15.961953 75.715385 15.991430 75.751049 16.020573 75.786713 16.049386 75.822378 16.077871 75.858042 16.106031 75.893706 16.133869 75.929371 16.161388 75.965035 16.188589 76.000699 16.215477 76.036364 16.242054 76.072028 16.268323 76.107692 16.294287 76.143357 16.319947 76.179021 16.345308 76.214685 16.370372 76.250350 16.395141 76.286014 16.419620 76.321678 16.443809 76.357343 16.467712 76.393007 16.491333 76.428671 16.514673 76.464336 16.537736 76.500000 16.560523 76.535664 16.583039 76.571329 16.605286 76.606993 16.627267 76.642657 16.648984 76.678322 16.670440 76.713986 16.691638 76.749650 16.712581 76.785315 16.733272 76.820979 16.753713 76.856643 16.773908 76.892308 16.793858 76.927972 16.813567 76.963636 16.833038 76.999301 16.852273 77.034965 16.871275 77.070629 16.890048 77.106294 16.908593 77.141958 16.926913 77.177622 16.945012 77.213287 16.962892 77.248951 16.980556 77.284615 16.998007 77.320280 17.015247 77.355944 17.032280 77.391608 17.049108 77.427273 17.065733 77.462937 17.082160 77.498601 17.098389 77.534266 17.114425 77.569930 17.130271 77.605594 17.145928 77.641259 17.161399 77.676923 17.176688 77.712587 17.191798 77.748252 17.206730 77.783916 17.221488 77.819580 17.236075 77.855245 17.250493 77.890909 17.264746 77.926573 17.278835 77.962238 17.292764 77.997902 17.306536 78.033566 17.320154 78.069231 17.333619 78.104895 17.346935 78.140559 17.360105 78.176224 17.373132 78.211888 17.386018 78.247552 17.398766 78.283217 17.411379 78.318881 17.423860 78.354545 17.436211 78.390210 17.448436 78.425874 17.460536 78.461538 17.472516 78.497203 17.484377 78.532867 17.496123 78.568531 17.507756 78.604196 17.519279 78.639860 17.530695 78.675524 17.542006 78.711189 17.553216 78.746853 17.564328 78.782517 17.575343 78.818182 17.586265 78.853846 17.597097 78.889510 17.607841 78.925175 17.618500 78.960839 17.629077 78.996503 17.639575 79.032168 17.649997 79.067832 17.660345 79.103497 17.670622 79.139161 17.680831 79.174825 17.690975 79.210490 17.701056 79.246154 17.711078 79.281818 17.721043 79.317483 17.730954 79.353147 17.740813 79.388811 17.750624 79.424476 17.760389 79.460140 17.770112 79.495804 17.779794 79.531469 17.789439 79.567133 17.799049 79.602797 17.808628 79.638462 17.818178 79.674126 17.827701 79.709790 17.837202 79.745455 17.846681 79.781119 17.856143 79.816783 17.865590 79.852448 17.875025 79.888112 17.884450 79.923776 17.893869 79.959441 17.903283 79.995105 17.912697 80.030769 17.922113 80.066434 17.931533 80.102098 17.940961 80.137762 17.950398 80.173427 17.959849 80.209091 17.969315 80.244755 17.978800 80.280420 17.988306 80.316084 17.997837 80.351748 18.007394 80.387413 18.016981 80.423077 18.026601 80.458741 18.036255 80.494406 18.045948 80.530070 18.055682 80.565734 18.065459 80.601399 18.075283 80.637063 18.085156 80.672727 18.095081 80.708392 18.105061 80.744056 18.115099 80.779720 18.125197 80.815385 18.135358 80.851049 18.145585 80.886713 18.155881 80.922378 18.166249 80.958042 18.176691 80.993706 18.187210 81.029371 18.197809 81.065035 18.208491 81.100699 18.219259 81.136364 18.230115 81.172028 18.241062 81.207692 18.252103 81.243357 18.263240 81.279021 18.274477 81.314685 18.285817 81.350350 18.297261 81.386014 18.308814 81.421678 18.320477 81.457343 18.332254 81.493007 18.344147 81.528671 18.356159 81.564336 18.368293 81.600000 18.380551 81.635664 18.392937 81.671329 18.405454 81.706993 18.418103 81.742657 18.430888 81.778322 18.443812 81.813986 18.456877 81.849650 18.470086 81.885315 18.483443 81.920979 18.496949 81.956643 18.510607 81.992308 18.524422 82.027972 18.538394 82.063636 18.552527 82.099301 18.566824 82.134965 18.581288 82.170629 18.595921 82.206294 18.610726 82.241958 18.625705 82.277622 18.640858 82.313287 18.656183 82.348951 18.671678 82.384615 18.687343 82.420280 18.703176 82.455944 18.719175 82.491608 18.735340 82.527273 18.751668 82.562937 18.768158 82.598601 18.784809 82.634266 18.801620 82.669930 18.818589 82.705594 18.835714 82.741259 18.852995 82.776923 18.870429 82.812587 18.888016 82.848252 18.905754 82.883916 18.923642 82.919580 18.941678 82.955245 18.959861 82.990909 18.978189 83.026573 18.996661 83.062238 19.015275 83.097902 19.034031 83.133566 19.052927 83.169231 19.071961 83.204895 19.091132 83.240559 19.110439 83.276224 19.129880 83.311888 19.149453 83.347552 19.169158 83.383217 19.188993 83.418881 19.208956 83.454545 19.229047 83.490210 19.249263 83.525874 19.269604 83.561538 19.290067 83.597203 19.310652 83.632867 19.331358 83.668531 19.352182 83.704196 19.373123 83.739860 19.394180 83.775524 19.415351 83.811189 19.436636 83.846853 19.458032 83.882517 19.479539 83.918182 19.501155 83.953846 19.522878 83.989510 19.544707 84.025175 19.566640 84.060839 19.588677 84.096503 19.610816 84.132168 19.633055 84.167832 19.655394 84.203497 19.677829 84.239161 19.700362 84.274825 19.722988 84.310490 19.745709 84.346154 19.768521 84.381818 19.791424 84.417483 19.814416 84.453147 19.837496 84.488811 19.860662 84.524476 19.883914 84.560140 19.907249 84.595804 19.930666 84.631469 19.954163 84.667133 19.977741 84.702797 20.001396 84.738462 20.025127 84.774126 20.048934 84.809790 20.072815 84.845455 20.096767 84.881119 20.120791 84.916783 20.144884 84.952448 20.169046 84.988112 20.193274 85.023776 20.217567 85.059441 20.241925 85.095105 20.266344 85.130769 20.290825 85.166434 20.315366 85.202098 20.339965 85.237762 20.364620 85.273427 20.389332 85.309091 20.414097 85.344755 20.438915 85.380420 20.463784 85.416084 20.488703 85.451748 20.513670 85.487413 20.538685 85.523077 20.563745 85.558741 20.588849 85.594406 20.613996 85.630070 20.639184 85.665734 20.664413 85.701399 20.689680 85.737063 20.714984 85.772727 20.740324 85.808392 20.765699 85.844056 20.791106 85.879720 20.816545 85.915385 20.842014 85.951049 20.867512 85.986713 20.893038 86.022378 20.918589 86.058042 20.944165 86.093706 20.969764 86.129371 20.995384 86.165035 21.021025 86.200699 21.046685 86.236364 21.072363 86.272028 21.098056 86.307692 21.123764 86.343357 21.149486 86.379021 21.175219 86.414685 21.200963 86.450350 21.226716 86.486014 21.252477 86.521678 21.278244 86.557343 21.304016 86.593007 21.329791 86.628671 21.355568 86.664336 21.381346 86.700000 21.407123 86.735664 21.432898 86.771329 21.458670 86.806993 21.484436 86.842657 21.510196 86.878322 21.535949 86.913986 21.561692 86.949650 21.587425 86.985315 21.613145 87.020979 21.638852 87.056643 21.664545 87.092308 21.690221 87.127972 21.715879 87.163636 21.741519 87.199301 21.767138 87.234965 21.792735 87.270629 21.818309 87.306294 21.843858 87.341958 21.869382 87.377622 21.894878 87.413287 21.920345 87.448951 21.945781 87.484615 21.971186 87.520280 21.996558 87.555944 22.021896 87.591608 22.047197 87.627273 22.072461 87.662937 22.097687 87.698601 22.122872 87.734266 22.148016 87.769930 22.173117 87.805594 22.198174 87.841259 22.223185 87.876923 22.248149 87.912587 22.273064 87.948252 22.297930 87.983916 22.322744 88.019580 22.347505 88.055245 22.372212 88.090909 22.396863 88.126573 22.421458 88.162238 22.445994 88.197902 22.470470 88.233566 22.494885 88.269231 22.519238 88.304895 22.543527 88.340559 22.567750 88.376224 22.591906 88.411888 22.615994 88.447552 22.640013 88.483217 22.663960 88.518881 22.687835 88.554545 22.711637 88.590210 22.735363 88.625874 22.759012 88.661538 22.782583 88.697203 22.806075 88.732867 22.829486 88.768531 22.852814 88.804196 22.876059 88.839860 22.899219 88.875524 22.922293 88.911189 22.945278 88.946853 22.968174 88.982517 22.990980 89.018182 23.013693 89.053846 23.036313 89.089510 23.058838 89.125175 23.081267 89.160839 23.103598 89.196503 23.125830 89.232168 23.147961 89.267832 23.169990 89.303497 23.191916 89.339161 23.213737 89.374825 23.235452 89.410490 23.257059 89.446154 23.278558 89.481818 23.299946 89.517483 23.321222 89.553147 23.342385 89.588811 23.363434 89.624476 23.384366 89.660140 23.405181 89.695804 23.425878 89.731469 23.446454 89.767133 23.466908 89.802797 23.487239 89.838462 23.507446 89.874126 23.527528 89.909790 23.547481 89.945455 23.567307 89.981119 23.587002 90.016783 23.606565 90.052448 23.625996 90.088112 23.645293 90.123776 23.664454 90.159441 23.683477 90.195105 23.702363 90.230769 23.721108 90.266434 23.739712 90.302098 23.758174 90.337762 23.776491 90.373427 23.794663 90.409091 23.812687 90.444755 23.830564 90.480420 23.848291 90.516084 23.865866 90.551748 23.883289 90.587413 23.900558 90.623077 23.917672 90.658741 23.934629 90.694406 23.951428 90.730070 23.968067 90.765734 23.984546 90.801399 24.000861 90.837063 24.017014 90.872727 24.033000 90.908392 24.048821 90.944056 24.064473 90.979720 24.079956 91.015385 24.095268 91.051049 24.110408 91.086713 24.125374 91.122378 24.140165 91.158042 24.154780 91.193706 24.169220 91.229371 24.183484 91.265035 24.197574 91.300699 24.211491 91.336364 24.225234 91.372028 24.238805 91.407692 24.252205 91.443357 24.265434 91.479021 24.278493 91.514685 24.291383 91.550350 24.304104 91.586014 24.316657 91.621678 24.329042 91.657343 24.341261 91.693007 24.353314 91.728671 24.365203 91.764336 24.376926 91.800000 24.388486 91.835664 24.399883 91.871329 24.411117 91.906993 24.422190 91.942657 24.433102 91.978322 24.443854 92.013986 24.454447 92.049650 24.464880 92.085315 24.475155 92.120979 24.485274 92.156643 24.495235 92.192308 24.505040 92.227972 24.514690 92.263636 24.524186 92.299301 24.533528 92.334965 24.542716 92.370629 24.551752 92.406294 24.560637 92.441958 24.569370 92.477622 24.577953 92.513287 24.586387 92.548951 24.594671 92.584615 24.602807 92.620280 24.610796 92.655944 24.618638 92.691608 24.626334 92.727273 24.633885 92.762937 24.641290 92.798601 24.648552 92.834266 24.655671 92.869930 24.662647 92.905594 24.669481 92.941259 24.676174 92.976923 24.682727 93.012587 24.689139 93.048252 24.695413 93.083916 24.701549 93.119580 24.707547 93.155245 24.713408 93.190909 24.719132 93.226573 24.724721 93.262238 24.730176 93.297902 24.735496 93.333566 24.740683 93.369231 24.745737 93.404895 24.750660 93.440559 24.755451 93.476224 24.760111 93.511888 24.764642 93.547552 24.769043 93.583217 24.773316 93.618881 24.777461 93.654545 24.781480 93.690210 24.785372 93.725874 24.789138 93.761538 24.792779 93.797203 24.796296 93.832867 24.799690 93.868531 24.802961 93.904196 24.806109 93.939860 24.809137 93.975524 24.812043 94.011189 24.814830 94.046853 24.817497 94.082517 24.820046 94.118182 24.822477 94.153846 24.824791 94.189510 24.826988 94.225175 24.829070 94.260839 24.831037 94.296503 24.832889 94.332168 24.834628 94.367832 24.836253 94.403497 24.837767 94.439161 24.839169 94.474825 24.840460 94.510490 24.841641 94.546154 24.842713 94.581818 24.843676 94.617483 24.844531 94.653147 24.845278 94.688811 24.845920 94.724476 24.846455 94.760140 24.846885 94.795804 24.847211 94.831469 24.847433 94.867133 24.847552 94.902797 24.847568 94.938462 24.847483 94.974126 24.847297 95.009790 24.847011 95.045455 24.846625 95.081119 24.846141 95.116783 24.845558 95.152448 24.844878 95.188112 24.844102 95.223776 24.843229 95.259441 24.842261 95.295105 24.841198 95.330769 24.840042 95.366434 24.838793 95.402098 24.837451 95.437762 24.836017 95.473427 24.834492 95.509091 24.832877 95.544755 24.831172 95.580420 24.829378 95.616084 24.827497 95.651748 24.825527 95.687413 24.823471 95.723077 24.821329 95.758741 24.819101 95.794406 24.816789 95.830070 24.814392 95.865734 24.811912 95.901399 24.809350 95.937063 24.806706 95.972727 24.803981 96.008392 24.801175 96.044056 24.798290 96.079720 24.795325 96.115385 24.792282 96.151049 24.789162 96.186713 24.785964 96.222378 24.782691 96.258042 24.779342 96.293706 24.775918 96.329371 24.772420 96.365035 24.768848 96.400699 24.765204 96.436364 24.761488 96.472028 24.757700 96.507692 24.753842 96.543357 24.749914 96.579021 24.745917 96.614685 24.741852 96.650350 24.737719 96.686014 24.733518 96.721678 24.729252 96.757343 24.724919 96.793007 24.720522 96.828671 24.716061 96.864336 24.711536 96.900000 24.706948 96.935664 24.702298 96.971329 24.697587 97.006993 24.692815 97.042657 24.687983 97.078322 24.683092 97.113986 24.678142 97.149650 24.673134 97.185315 24.668070 97.220979 24.662948 97.256643 24.657771 97.292308 24.652539 97.327972 24.647253 97.363636 24.641913 97.399301 24.636519 97.434965 24.631074 97.470629 24.625577 97.506294 24.620030 97.541958 24.614432 97.577622 24.608785 97.613287 24.603089 97.648951 24.597346 97.684615 24.591554 97.720280 24.585717 97.755944 24.579833 97.791608 24.573905 97.827273 24.567931 97.862937 24.561915 97.898601 24.555855 97.934266 24.549752 97.969930 24.543608 98.005594 24.537423 98.041259 24.531198 98.076923 24.524934 98.112587 24.518630 98.148252 24.512289 98.183916 24.505910 98.219580 24.499494 98.255245 24.493042 98.290909 24.486556 98.326573 24.480034 98.362238 24.473479 98.397902 24.466890 98.433566 24.460269 98.469231 24.453616 98.504895 24.446932 98.540559 24.440218 98.576224 24.433474 98.611888 24.426702 98.647552 24.419901 98.683217 24.413072 98.718881 24.406217 98.754545 24.399335 98.790210 24.392428 98.825874 24.385497 98.861538 24.378541 98.897203 24.371562 98.932867 24.364561 98.968531 24.357538 99.004196 24.350493 99.039860 24.343428 99.075524 24.336344 99.111189 24.329240 99.146853 24.322118 99.182517 24.314978 99.218182 24.307821 99.253846 24.300648 99.289510 24.293460 99.325175 24.286256 99.360839 24.279039 99.396503 24.271808 99.432168 24.264565 99.467832 24.257309 99.503497 24.250042 99.539161 24.242765 99.574825 24.235478 99.610490 24.228181 99.646154 24.220876 99.681818 24.213564 99.717483 24.206244 99.753147 24.198918 99.788811 24.191586 99.824476 24.184250 99.860140 24.176909 99.895804 24.169564 99.931469 24.162217 99.967133 24.154868 100.002797 24.147517 100.038462 24.140165" class="line reactive nofill" /></g></g><g class="titles" /><g transform="translate(88, 10)" class="plot overlay"><g class="series serie-0 color-0" /></g><g transform="translate(88, 10)" class="plot text-overlay"><g class="series serie-0 color-0" /></g><g transform="translate(88, 10)" class="plot tooltip-overlay"><g transform="translate(0 0)" style="opacity: 0" class="tooltip"><rect rx="0" ry="0" width="0" height="0" class="tooltip-box" /><g class="text" /></g></g></g></svg>