<?xml version='1.0' encoding='utf-8'?>
<svg xmlns="http://www.w3.org/2000/svg" id="chart-47bdba0a-1fd4-4d62-83dd-92dc512477b2" class="pygal-chart pygal-sparkline" viewBox="0 0 200 50" width="200" height="50"><!--Generated with pygal 3.0.5 (etree) ©Kozea 2012-2016 on 2024-12-22--><!--http://pygal.org--><!--http://github.com/Kozea/pygal--><defs><style type="text/css">#chart-47bdba0a-1fd4-4d62-83dd-92dc512477b2{-webkit-user-select:none;-webkit-font-smoothing:antialiased;font-family:Consolas,"Liberation Mono",Menlo,Courier,monospace}#chart-47bdba0a-1fd4-4d62-83dd-92dc512477b2 .title{font-family:Consolas,"Liberation Mono",Menlo,Courier,monospace;font-size:16px}#chart-47bdba0a-1fd4-4d62-83dd-92dc512477b2 .legends .legend text{font-family:Consolas,"Liberation Mono",Menlo,Courier,monospace;font-size:14px}#chart-47bdba0a-1fd4-4d62-83dd-92dc512477b2 .axis text{font-family:Consolas,"Liberation Mono",Menlo,Courier,monospace;font-size:10px}#chart-47bdba0a-1fd4-4d62-83dd-92dc512477b2 .axis text.major{font-family:Consolas,"Liberation Mono",Menlo,Courier,monospace;font-size:10px}#chart-47bdba0a-1fd4-4d62-83dd-92dc512477b2 .text-overlay text.value{font-family:Consolas,"Liberation Mono",Menlo,Courier,monospace;font-size:16px}#chart-47bdba0a-1fd4-4d62-83dd-92dc512477b2 .text-overlay text.label{font-family:Consolas,"Liberation Mono",Menlo,Courier,monospace;font-size:10px}#chart-47bdba0a-1fd4-4d62-83dd-92dc512477b2 .tooltip{font-family:Consolas,"Liberation Mono",Menlo,Courier,monospace;font-size:14px}#chart-47bdba0a-1fd4-4d62-83dd-92dc512477b2 text.no_data{font-family:Consolas,"Liberation Mono",Menlo,Courier,monospace;font-size:64px}
#chart-47bdba0a-1fd4-4d62-83dd-92dc512477b2{background-color:rgba(249,249,249,1)}#chart-47bdba0a-1fd4-4d62-83dd-92dc512477b2 path,#chart-47bdba0a-1fd4-4d62-83dd-92dc512477b2 line,#chart-47bdba0a-1fd4-4d62-83dd-92dc512477b2 rect,#chart-47bdba0a-1fd4-4d62-83dd-92dc512477b2 circle{-webkit-transition:150ms;-moz-transition:150ms;transition:150ms}#chart-47bdba0a-1fd4-4d62-83dd-92dc512477b2 .graph &gt; .background{fill:rgba(249,249,249,1)}#chart-47bdba0a-1fd4-4d62-83dd-92dc512477b2 .plot &gt; .background{fill:rgba(255,255,255,1)}#chart-47bdba0a-1fd4-4d62-83dd-92dc512477b2 .graph{fill:rgba(0,0,0,.87)}#chart-47bdba0a-1fd4-4d62-83dd-92dc512477b2 text.no_data{fill:rgba(0,0,0,1)}#chart-47bdba0a-1fd4-4d62-83dd-92dc512477b2 .title{fill:rgba(0,0,0,1)}#chart-47bdba0a-1fd4-4d62-83dd-92dc512477b2 .legends .legend text{fill:rgba(0,0,0,.87)}#chart-47bdba0a-1fd4-4d62-83dd-92dc512477b2 .legends .legend:hover text{fill:rgba(0,0,0,1)}#chart-47bdba0a-1fd4-4d62-83dd-92dc512477b2 .axis .line{stroke:rgba(0,0,0,1)}#chart-47bdba0a-1fd4-4d62-83dd-92dc512477b2 .axis .guide.line{stroke:rgba(0,0,0,.54)}#chart-47bdba0a-1fd4-4d62-83dd-92dc512477b2 .axis .major.line{stroke:rgba(0,0,0,.87)}#chart-47bdba0a-1fd4-4d62-83dd-92dc512477b2 .axis text.major{fill:rgba(0,0,0,1)}#chart-47bdba0a-1fd4-4d62-83dd-92dc512477b2 .axis.y .guides:hover .guide.line,#chart-47bdba0a-1fd4-4d62-83dd-92dc512477b2 .line-graph .axis.x .guides:hover .guide.line,#chart-47bdba0a-1fd4-4d62-83dd-92dc512477b2 .stackedline-graph .axis.x .guides:hover .guide.line,#chart-47bdba0a-1fd4-4d62-83dd-92dc512477b2 .xy-graph .axis.x .guides:hover .guide.line{stroke:rgba(0,0,0,1)}#chart-47bdba0a-1fd4-4d62-83dd-92dc512477b2 .axis .guides:hover text{fill:rgba(0,0,0,1)}#chart-47bdba0a-1fd4-4d62-83dd-92dc512477b2 .reactive{fill-opacity:.7;stroke-opacity:.8;stroke-width:1}#chart-47bdba0a-1fd4-4d62-83dd-92dc512477b2 .ci{stroke:rgba(0,0,0,.87)}#chart-47bdba0a-1fd4-4d62-83dd-92dc512477b2 .reactive.active,#chart-47bdba0a-1fd4-4d62-83dd-92dc512477b2 .active .reactive{fill-opacity:.8;stroke-opacity:.9;stroke-width:4}#chart-47bdba0a-1fd4-4d62-83dd-92dc512477b2 .ci .reactive.active{stroke-width:1.5}#chart-47bdba0a-1fd4-4d62-83dd-92dc512477b2 .series text{fill:rgba(0,0,0,1)}#chart-47bdba0a-1fd4-4d62-83dd-92dc512477b2 .tooltip rect{fill:rgba(255,255,255,1);stroke:rgba(0,0,0,1);-webkit-transition:opacity 150ms;-moz-transition:opacity 150ms;transition:opacity 150ms}#chart-47bdba0a-1fd4-4d62-83dd-92dc512477b2 .tooltip .label{fill:rgba(0,0,0,.87)}#chart-47bdba0a-1fd4-4d62-83dd-92dc512477b2 .tooltip .label{fill:rgba(0,0,0,.87)}#chart-47bdba0a-1fd4-4d62-83dd-92dc512477b2 .tooltip .legend{font-size:.8em;fill:rgba(0,0,0,.54)}#chart-47bdba0a-1fd4-4d62-83dd-92dc512477b2 .tooltip .x_label{font-size:.6em;fill:rgba(0,0,0,1)}#chart-47bdba0a-1fd4-4d62-83dd-92dc512477b2 .tooltip .xlink{font-size:.5em;text-decoration:underline}#chart-47bdba0a-1fd4-4d62-83dd-92dc512477b2 .tooltip .value{font-size:1.5em}#chart-47bdba0a-1fd4-4d62-83dd-92dc512477b2 .bound{font-size:.5em}#chart-47bdba0a-1fd4-4d62-83dd-92dc512477b2 .max-value{font-size:.75em;fill:rgba(0,0,0,.54)}#chart-47bdba0a-1fd4-4d62-83dd-92dc512477b2 .map-element{fill:rgba(255,255,255,1);stroke:rgba(0,0,0,.54) !important}#chart-47bdba0a-1fd4-4d62-83dd-92dc512477b2 .map-element .reactive{fill-opacity:inherit;stroke-opacity:inherit}#chart-47bdba0a-1fd4-4d62-83dd-92dc512477b2 .color-0,#chart-47bdba0a-1fd4-4d62-83dd-92dc512477b2 .color-0 a:visited{stroke:#F44336;fill:#F44336}#chart-47bdba0a-1fd4-4d62-83dd-92dc512477b2 .text-overlay .color-0 text{fill:black}
#chart-47bdba0a-1fd4-4d62-83dd-92dc512477b2 text.no_data{text-anchor:middle}#chart-47bdba0a-1fd4-4d62-83dd-92dc512477b2 .guide.line{fill:none}#chart-47bdba0a-1fd4-4d62-83dd-92dc512477b2 .centered{text-anchor:middle}#chart-47bdba0a-1fd4-4d62-83dd-92dc512477b2 .title{text-anchor:middle}#chart-47bdba0a-1fd4-4d62-83dd-92dc512477b2 .legends .legend text{fill-opacity:1}#chart-47bdba0a-1fd4-4d62-83dd-92dc512477b2 .axis.x text{text-anchor:middle}#chart-47bdba0a-1fd4-4d62-83dd-92dc512477b2 .axis.x:not(.web) text[transform]{text-anchor:start}#chart-47bdba0a-1fd4-4d62-83dd-92dc512477b2 .axis.x:not(.web) text[transform].backwards{text-anchor:end}#chart-47bdba0a-1fd4-4d62-83dd-92dc512477b2 .axis.y text{text-anchor:end}#chart-47bdba0a-1fd4-4d62-83dd-92dc512477b2 .axis.y text[transform].backwards{text-anchor:start}#chart-47bdba0a-1fd4-4d62-83dd-92dc512477b2 .axis.y2 text{text-anchor:start}#chart-47bdba0a-1fd4-4d62-83dd-92dc512477b2 .axis.y2 text[transform].backwards{text-anchor:end}#chart-47bdba0a-1fd4-4d62-83dd-92dc512477b2 .axis .guide.line{stroke-dasharray:4,4;stroke:black}#chart-47bdba0a-1fd4-4d62-83dd-92dc512477b2 .axis .major.guide.line{stroke-dasharray:6,6;stroke:black}#chart-47bdba0a-1fd4-4d62-83dd-92dc512477b2 .horizontal .axis.y .guide.line,#chart-47bdba0a-1fd4-4d62-83dd-92dc512477b2 .horizontal .axis.y2 .guide.line,#chart-47bdba0a-1fd4-4d62-83dd-92dc512477b2 .vertical .axis.x .guide.line{opacity:0}#chart-47bdba0a-1fd4-4d62-83dd-92dc512477b2 .horizontal .axis.always_show .guide.line,#chart-47bdba0a-1fd4-4d62-83dd-92dc512477b2 .vertical .axis.always_show .guide.line{opacity:1 !important}#chart-47bdba0a-1fd4-4d62-83dd-92dc512477b2 .axis.y .guides:hover .guide.line,#chart-47bdba0a-1fd4-4d62-83dd-92dc512477b2 .axis.y2 .guides:hover .guide.line,#chart-47bdba0a-1fd4-4d62-83dd-92dc512477b2 .axis.x .guides:hover .guide.line{opacity:1}#chart-47bdba0a-1fd4-4d62-83dd-92dc512477b2 .axis .guides:hover text{opacity:1}#chart-47bdba0a-1fd4-4d62-83dd-92dc512477b2 .nofill{fill:none}#chart-47bdba0a-1fd4-4d62-83dd-92dc512477b2 .subtle-fill{fill-opacity:.2}#chart-47bdba0a-1fd4-4d62-83dd-92dc512477b2 .dot{stroke-width:1px;fill-opacity:1;stroke-opacity:1}#chart-47bdba0a-1fd4-4d62-83dd-92dc512477b2 .dot.active{stroke-width:5px}#chart-47bdba0a-1fd4-4d62-83dd-92dc512477b2 .dot.negative{fill:transparent}#chart-47bdba0a-1fd4-4d62-83dd-92dc512477b2 text,#chart-47bdba0a-1fd4-4d62-83dd-92dc512477b2 tspan{stroke:none !important}#chart-47bdba0a-1fd4-4d62-83dd-92dc512477b2 .series text.active{opacity:1}#chart-47bdba0a-1fd4-4d62-83dd-92dc512477b2 .tooltip rect{fill-opacity:.95;stroke-width:.5}#chart-47bdba0a-1fd4-4d62-83dd-92dc512477b2 .tooltip text{fill-opacity:1}#chart-47bdba0a-1fd4-4d62-83dd-92dc512477b2 .showable{visibility:hidden}#chart-47bdba0a-1fd4-4d62-83dd-92dc512477b2 .showable.shown{visibility:visible}#chart-47bdba0a-1fd4-4d62-83dd-92dc512477b2 .gauge-background{fill:rgba(229,229,229,1);stroke:none}#chart-47bdba0a-1fd4-4d62-83dd-92dc512477b2 .bg-lines{stroke:rgba(249,249,249,1);stroke-width:2px}</style><script type="text/javascript">window.pygal = window.pygal || {};window.pygal.config = window.pygal.config || {};window.pygal.config['47bdba0a-1fd4-4d62-83dd-92dc512477b2'] = {"allow_interruptions": false, "box_mode": "extremes", "classes": ["pygal-chart", "pygal-sparkline"], "css": ["file://style.css", "file://graph.css"], "defs": [], "disable_xml_declaration": false, "dots_size": 2.5, "dynamic_print_values": false, "explicit_size": true, "fill": false, "force_uri_protocol": "https", "formatter": null, "half_pie": false, "height": 50, "include_x_axis": false, "inner_radius": 0, "interpolate": "cubic", "interpolation_parameters": {}, "interpolation_precision": 250, "inverse_y_axis": false, "js": [], "legend_at_bottom": false, "legend_at_bottom_columns": null, "legend_box_size": 12, "logarithmic": false, "margin": 10, "margin_bottom": null, "margin_left": null, "margin_right": null, "margin_top": null, "max_scale": 2, "min_scale": 1, "missing_value_fill_truncation": "x", "no_data_text": "", "no_prefix": false, "order_min": null, "pretty_print": false, "print_labels": false, "print_values": false, "print_values_position": "center", "print_zeroes": true, "range": null, "rounded_bars": null, "secondary_range": null, "show_dots": false, "show_legend": false, "show_minor_x_labels": true, "show_minor_y_labels": true, "show_only_major_dots": false, "show_x_guides": false, "show_x_labels": false, "show_y_guides": true, "show_y_labels": true, "spacing": 0, "stack_from_top": false, "strict": false, "stroke": true, "stroke_style": null, "style": {"background": "rgba(249, 249, 249, 1)", "ci_colors": [], "colors": ["#F44336", "#3F51B5", "#009688", "#FFC107", "#FF5722", "#9C27B0", "#03A9F4", "#8BC34A", "#FF9800", "#E91E63", "#2196F3", "#4CAF50", "#FFEB3B", "#673AB7", "#00BCD4", "#CDDC39", "#9E9E9E", "#607D8B"], "dot_opacity": "1", "font_family": "Consolas, \"Liberation Mono\", Menlo, Courier, monospace", "foreground": "rgba(0, 0, 0, .87)", "foreground_strong": "rgba(0, 0, 0, 1)", "foreground_subtle": "rgba(0, 0, 0, .54)", "guide_stroke_color": "black", "guide_stroke_dasharray": "4,4", "label_font_family": "Consolas, \"Liberation Mono\", Menlo, Courier, monospace", "label_font_size": 10, "legend_font_family": "Consolas, \"Liberation Mono\", Menlo, Courier, monospace", "legend_font_size": 14, "major_guide_stroke_color": "black", "major_guide_stroke_dasharray": "6,6", "major_label_font_family": "Consolas, \"Liberation Mono\", Menlo, Courier, monospace", "major_label_font_size": 10, "no_data_font_family": "Consolas, \"Liberation Mono\", Menlo, Courier, monospace", "no_data_font_size": 64, "opacity": ".7", "opacity_hover": ".8", "plot_background": "rgba(255, 255, 255, 1)", "stroke_opacity": ".8", "stroke_opacity_hover": ".9", "stroke_width": "1", "stroke_width_hover": "4", "title_font_family": "Consolas, \"Liberation Mono\", Menlo, Courier, monospace", "title_font_size": 16, "tooltip_font_family": "Consolas, \"Liberation Mono\", Menlo, Courier, monospace", "tooltip_font_size": 14, "transition": "150ms", "value_background": "rgba(229, 229, 229, 1)", "value_colors": [], "value_font_family": "Consolas, \"Liberation Mono\", Menlo, Courier, monospace", "value_font_size": 16, "value_label_font_family": "Consolas, \"Liberation Mono\", Menlo, Courier, monospace", "value_label_font_size": 10}, "title": null, "tooltip_border_radius": 0, "tooltip_fancy_mode": true, "truncate_label": null, "truncate_legend": null, "width": 200, "x_label_rotation": 0, "x_labels": ["2024/10", "2024/8", "2024/3", "2024/2", "2023/12", "2023/7", "2023/6", "2023/5"], "x_labels_major": null, "x_labels_major_count": null, "x_labels_major_every": null, "x_title": null, "xrange": null, "y_label_rotation": 0, "y_labels": null, "y_labels_major": null, "y_labels_major_count": null, "y_labels_major_every": null, "y_title": null, "zero": 0, "legends": [""]}</script></defs><title>Pygal</title><g class="graph line-graph vertical"><rect x="0" y="0" width="200" height="50" class="background" /><g transform="translate(82, 10)" class="plot"><rect x="0" y="0" width="108.0" height="30" class="background" /><g class="axis y always_show"><path d="M0.000000 30.000000 h108.000000" class="line" /><g class="guides"><path d="M0.000000 29.423077 h108.000000" class="guide line" /><text x="-5" y="32.92307692307692" class="">0.4311411076</text><title>0.4311411076</title></g><g class="guides"><path d="M0.000000 0.576923 h108.000000" class="guide line" /><text x="-5" y="4.076923076923077" class="">12</text><title>12</title></g></g><g class="series serie-0 color-0"><path d="M2.076923 28.004666 L2.136264 27.936420 2.195604 27.868176 2.254945 27.799938 2.314286 27.731708 2.373626 27.663489 2.432967 27.595283 2.492308 27.527094 2.551648 27.458924 2.610989 27.390775 2.670330 27.322651 2.729670 27.254555 2.789011 27.186488 2.848352 27.118454 2.907692 27.050455 2.967033 26.982494 3.026374 26.914575 3.085714 26.846698 3.145055 26.778868 3.204396 26.711087 3.263736 26.643358 3.323077 26.575683 3.382418 26.508066 3.441758 26.440508 3.501099 26.373013 3.560440 26.305583 3.619780 26.238221 3.679121 26.170930 3.738462 26.103712 3.797802 26.036571 3.857143 25.969508 3.916484 25.902528 3.975824 25.835631 4.035165 25.768822 4.094505 25.702103 4.153846 25.635476 4.213187 25.568944 4.272527 25.502510 4.331868 25.436177 4.391209 25.369948 4.450549 25.303824 4.509890 25.237810 4.569231 25.171907 4.628571 25.106118 4.687912 25.040446 4.747253 24.974895 4.806593 24.909465 4.865934 24.844161 4.925275 24.778985 4.984615 24.713939 5.043956 24.649027 5.103297 24.584251 5.162637 24.519614 5.221978 24.455118 5.281319 24.390766 5.340659 24.326562 5.400000 24.262507 5.459341 24.198604 5.518681 24.134857 5.578022 24.071268 5.637363 24.007839 5.696703 23.944573 5.756044 23.881474 5.815385 23.818543 5.874725 23.755784 5.934066 23.693199 5.993407 23.630791 6.052747 23.568562 6.112088 23.506516 6.171429 23.444655 6.230769 23.382981 6.290110 23.321499 6.349451 23.260209 6.408791 23.199116 6.468132 23.138221 6.527473 23.077527 6.586813 23.017038 6.646154 22.956755 6.705495 22.896683 6.764835 22.836822 6.824176 22.777176 6.883516 22.717749 6.942857 22.658541 7.002198 22.599557 7.061538 22.540799 7.120879 22.482269 7.180220 22.423971 7.239560 22.365907 7.298901 22.308079 7.358242 22.250491 7.417582 22.193146 7.476923 22.136045 7.536264 22.079192 7.595604 22.022590 7.654945 21.966240 7.714286 21.910146 7.773626 21.854311 7.832967 21.798738 7.892308 21.743428 7.951648 21.688385 8.010989 21.633611 8.070330 21.579110 8.129670 21.524883 8.189011 21.470935 8.248352 21.417266 8.307692 21.363881 8.367033 21.310781 8.426374 21.257970 8.485714 21.205450 8.545055 21.153224 8.604396 21.101295 8.663736 21.049665 8.723077 20.998337 8.782418 20.947314 8.841758 20.896599 8.901099 20.846194 8.960440 20.796102 9.019780 20.746325 9.079121 20.696867 9.138462 20.647731 9.197802 20.598918 9.257143 20.550431 9.316484 20.502275 9.375824 20.454450 9.435165 20.406960 9.494505 20.359807 9.553846 20.312995 9.613187 20.266525 9.672527 20.220402 9.731868 20.174626 9.791209 20.129202 9.850549 20.084132 9.909890 20.039418 9.969231 19.995063 10.028571 19.951071 10.087912 19.907443 10.147253 19.864183 10.206593 19.821292 10.265934 19.778775 10.325275 19.736633 10.384615 19.694870 10.443956 19.653488 10.503297 19.612489 10.562637 19.571877 10.621978 19.531654 10.681319 19.491823 10.740659 19.452387 10.800000 19.413348 10.859341 19.374709 10.918681 19.336473 10.978022 19.298643 11.037363 19.261221 11.096703 19.224209 11.156044 19.187612 11.215385 19.151431 11.274725 19.115669 11.334066 19.080329 11.393407 19.045414 11.452747 19.010926 11.512088 18.976868 11.571429 18.943242 11.630769 18.910053 11.690110 18.877301 11.749451 18.844990 11.808791 18.813123 11.868132 18.781703 11.927473 18.750731 11.986813 18.720212 12.046154 18.690146 12.105495 18.660539 12.164835 18.631391 12.224176 18.602705 12.283516 18.574486 12.342857 18.546734 12.402198 18.519453 12.461538 18.492646 12.520879 18.466315 12.580220 18.440463 12.639560 18.415093 12.698901 18.390208 12.758242 18.365809 12.817582 18.341901 12.876923 18.318485 12.936264 18.295565 12.995604 18.273142 13.054945 18.251221 13.114286 18.229803 13.173626 18.208891 13.232967 18.188488 13.292308 18.168597 13.351648 18.149220 13.410989 18.130361 13.470330 18.112021 13.529670 18.094204 13.589011 18.076912 13.648352 18.060148 13.707692 18.043915 13.767033 18.028216 13.826374 18.013052 13.885714 17.998428 13.945055 17.984345 14.004396 17.970807 14.063736 17.957815 14.123077 17.945374 14.182418 17.933485 14.241758 17.922151 14.301099 17.911375 14.360440 17.901160 14.419780 17.891508 14.479121 17.882422 14.538462 17.873906 14.597802 17.865960 14.657143 17.858590 14.716484 17.851796 14.775824 17.845582 14.835165 17.839950 14.894505 17.834903 14.953846 17.830445 15.013187 17.826577 15.072527 17.823302 15.131868 17.820624 15.191209 17.818544 15.250549 17.817066 15.309890 17.816192 15.369231 17.815925 15.428571 17.816267 15.487912 17.817223 15.547253 17.818793 15.606593 17.820981 15.665934 17.823789 15.725275 17.827221 15.784615 17.831279 15.843956 17.835966 15.903297 17.841284 15.962637 17.847236 16.021978 17.853825 16.081319 17.861054 16.140659 17.868925 16.200000 17.877441 16.259341 17.886605 16.318681 17.896420 16.378022 17.906888 16.437363 17.918011 16.496703 17.929794 16.556044 17.942237 16.615385 17.955345 16.674725 17.969120 16.734066 17.983564 16.793407 17.998681 16.852747 18.014472 16.912088 18.030942 16.971429 18.048090 17.030769 18.065913 17.090110 18.084404 17.149451 18.103558 17.208791 18.123368 17.268132 18.143830 17.327473 18.164936 17.386813 18.186680 17.446154 18.209058 17.505495 18.232063 17.564835 18.255688 17.624176 18.279929 17.683516 18.304778 17.742857 18.330231 17.802198 18.356281 17.861538 18.382922 17.920879 18.410148 17.980220 18.437954 18.039560 18.466333 18.098901 18.495279 18.158242 18.524787 18.217582 18.554851 18.276923 18.585464 18.336264 18.616620 18.395604 18.648315 18.454945 18.680541 18.514286 18.713292 18.573626 18.746564 18.632967 18.780349 18.692308 18.814643 18.751648 18.849438 18.810989 18.884729 18.870330 18.920511 18.929670 18.956776 18.989011 18.993520 19.048352 19.030736 19.107692 19.068418 19.167033 19.106561 19.226374 19.145158 19.285714 19.184203 19.345055 19.223691 19.404396 19.263616 19.463736 19.303971 19.523077 19.344750 19.582418 19.385948 19.641758 19.427560 19.701099 19.469577 19.760440 19.511996 19.819780 19.554810 19.879121 19.598012 19.938462 19.641598 19.997802 19.685560 20.057143 19.729894 20.116484 19.774593 20.175824 19.819650 20.235165 19.865062 20.294505 19.910820 20.353846 19.956920 20.413187 20.003355 20.472527 20.050120 20.531868 20.097208 20.591209 20.144614 20.650549 20.192331 20.709890 20.240354 20.769231 20.288677 20.828571 20.337294 20.887912 20.386198 20.947253 20.435384 21.006593 20.484846 21.065934 20.534578 21.125275 20.584574 21.184615 20.634828 21.243956 20.685334 21.303297 20.736086 21.362637 20.787079 21.421978 20.838306 21.481319 20.889761 21.540659 20.941438 21.600000 20.993332 21.659341 21.045437 21.718681 21.097746 21.778022 21.150253 21.837363 21.202953 21.896703 21.255840 21.956044 21.308907 22.015385 21.362149 22.074725 21.415561 22.134066 21.469134 22.193407 21.522865 22.252747 21.576747 22.312088 21.630774 22.371429 21.684940 22.430769 21.739239 22.490110 21.793665 22.549451 21.848213 22.608791 21.902875 22.668132 21.957648 22.727473 22.012523 22.786813 22.067496 22.846154 22.122560 22.905495 22.177710 22.964835 22.232940 23.024176 22.288243 23.083516 22.343614 23.142857 22.399046 23.202198 22.454535 23.261538 22.510073 23.320879 22.565655 23.380220 22.621275 23.439560 22.676927 23.498901 22.732605 23.558242 22.788303 23.617582 22.844015 23.676923 22.899736 23.736264 22.955459 23.795604 23.011178 23.854945 23.066887 23.914286 23.122581 23.973626 23.178253 24.032967 23.233898 24.092308 23.289509 24.151648 23.345081 24.210989 23.400608 24.270330 23.456083 24.329670 23.511501 24.389011 23.566856 24.448352 23.622141 24.507692 23.677352 24.567033 23.732481 24.626374 23.787524 24.685714 23.842474 24.745055 23.897324 24.804396 23.952070 24.863736 24.006705 24.923077 24.061224 24.982418 24.115619 25.041758 24.169886 25.101099 24.224019 25.160440 24.278011 25.219780 24.331856 25.279121 24.385549 25.338462 24.439084 25.397802 24.492454 25.457143 24.545654 25.516484 24.598678 25.575824 24.651520 25.635165 24.704173 25.694505 24.756633 25.753846 24.808892 25.813187 24.860946 25.872527 24.912787 25.931868 24.964411 25.991209 25.015811 26.050549 25.066981 26.109890 25.117915 26.169231 25.168608 26.228571 25.219053 26.287912 25.269244 26.347253 25.319176 26.406593 25.368843 26.465934 25.418238 26.525275 25.467356 26.584615 25.516190 26.643956 25.564735 26.703297 25.612985 26.762637 25.660934 26.821978 25.708576 26.881319 25.755904 26.940659 25.802914 27.000000 25.849599 27.059341 25.895952 27.118681 25.941969 27.178022 25.987644 27.237363 26.032969 27.296703 26.077940 27.356044 26.122550 27.415385 26.166793 27.474725 26.210664 27.534066 26.254156 27.593407 26.297264 27.652747 26.339982 27.712088 26.382303 27.771429 26.424222 27.830769 26.465733 27.890110 26.506829 27.949451 26.547505 28.008791 26.587756 28.068132 26.627574 28.127473 26.666954 28.186813 26.705890 28.246154 26.744377 28.305495 26.782407 28.364835 26.819976 28.424176 26.857077 28.483516 26.893704 28.542857 26.929852 28.602198 26.965514 28.661538 27.000685 28.720879 27.035358 28.780220 27.069528 28.839560 27.103188 28.898901 27.136333 28.958242 27.168957 29.017582 27.201053 29.076923 27.232617 29.136264 27.263641 29.195604 27.294120 29.254945 27.324048 29.314286 27.353419 29.373626 27.382227 29.432967 27.410467 29.492308 27.438131 29.551648 27.465215 29.610989 27.491712 29.670330 27.517617 29.729670 27.542922 29.789011 27.567624 29.848352 27.591714 29.907692 27.615188 29.967033 27.638040 30.026374 27.660264 30.085714 27.681853 30.145055 27.702802 30.204396 27.723105 30.263736 27.742755 30.323077 27.761747 30.382418 27.780076 30.441758 27.797734 30.501099 27.814717 30.560440 27.831017 30.619780 27.846630 30.679121 27.861549 30.738462 27.875768 30.797802 27.889281 30.857143 27.902083 30.916484 27.914167 30.975824 27.925528 31.035165 27.936159 31.094505 27.946055 31.153846 27.955209 31.213187 27.963616 31.272527 27.971270 31.331868 27.978164 31.391209 27.984293 31.450549 27.989651 31.509890 27.994232 31.569231 27.998030 31.628571 28.001039 31.687912 28.003253 31.747253 28.004666 31.806593 28.005275 31.865934 28.005082 31.925275 28.004094 31.984615 28.002316 32.043956 27.999755 32.103297 27.996415 32.162637 27.992303 32.221978 27.987425 32.281319 27.981785 32.340659 27.975391 32.400000 27.968248 32.459341 27.960361 32.518681 27.951736 32.578022 27.942379 32.637363 27.932296 32.696703 27.921492 32.756044 27.909974 32.815385 27.897747 32.874725 27.884816 32.934066 27.871188 32.993407 27.856868 33.052747 27.841862 33.112088 27.826176 33.171429 27.809816 33.230769 27.792786 33.290110 27.775094 33.349451 27.756745 33.408791 27.737744 33.468132 27.718098 33.527473 27.697811 33.586813 27.676890 33.646154 27.655341 33.705495 27.633170 33.764835 27.610381 33.824176 27.586981 33.883516 27.562976 33.942857 27.538371 34.002198 27.513172 34.061538 27.487386 34.120879 27.461016 34.180220 27.434070 34.239560 27.406554 34.298901 27.378472 34.358242 27.349830 34.417582 27.320635 34.476923 27.290893 34.536264 27.260608 34.595604 27.229787 34.654945 27.198435 34.714286 27.166558 34.773626 27.134163 34.832967 27.101254 34.892308 27.067837 34.951648 27.033919 35.010989 26.999504 35.070330 26.964599 35.129670 26.929210 35.189011 26.893342 35.248352 26.857001 35.307692 26.820192 35.367033 26.782922 35.426374 26.745197 35.485714 26.707021 35.545055 26.668401 35.604396 26.629342 35.663736 26.589851 35.723077 26.549933 35.782418 26.509593 35.841758 26.468838 35.901099 26.427673 35.960440 26.386105 36.019780 26.344138 36.079121 26.301778 36.138462 26.259032 36.197802 26.215905 36.257143 26.172403 36.316484 26.128531 36.375824 26.084295 36.435165 26.039702 36.494505 25.994756 36.553846 25.949464 36.613187 25.903832 36.672527 25.857864 36.731868 25.811567 36.791209 25.764947 36.850549 25.718009 36.909890 25.670760 36.969231 25.623204 37.028571 25.575347 37.087912 25.527197 37.147253 25.478757 37.206593 25.430034 37.265934 25.381034 37.325275 25.331762 37.384615 25.282224 37.443956 25.232426 37.503297 25.182374 37.562637 25.132073 37.621978 25.081530 37.681319 25.030749 37.740659 24.979737 37.800000 24.928499 37.859341 24.877042 37.918681 24.825371 37.978022 24.773491 38.037363 24.721408 38.096703 24.669129 38.156044 24.616659 38.215385 24.564004 38.274725 24.511169 38.334066 24.458160 38.393407 24.404983 38.452747 24.351644 38.512088 24.298149 38.571429 24.244502 38.630769 24.190711 38.690110 24.136780 38.749451 24.082716 38.808791 24.028524 38.868132 23.974211 38.927473 23.919781 38.986813 23.865240 39.046154 23.810595 39.105495 23.755851 39.164835 23.701014 39.224176 23.646089 39.283516 23.591082 39.342857 23.536000 39.402198 23.480847 39.461538 23.425630 39.520879 23.370354 39.580220 23.315026 39.639560 23.259650 39.698901 23.204233 39.758242 23.148780 39.817582 23.093297 39.876923 23.037790 39.936264 22.982265 39.995604 22.926727 40.054945 22.871182 40.114286 22.815636 40.173626 22.760095 40.232967 22.704564 40.292308 22.649049 40.351648 22.593556 40.410989 22.538091 40.470330 22.482659 40.529670 22.427266 40.589011 22.371918 40.648352 22.316621 40.707692 22.261381 40.767033 22.206202 40.826374 22.151092 40.885714 22.096055 40.945055 22.041097 41.004396 21.986225 41.063736 21.931444 41.123077 21.876759 41.182418 21.822177 41.241758 21.767703 41.301099 21.713343 41.360440 21.659103 41.419780 21.604989 41.479121 21.551005 41.538462 21.497159 41.597802 21.443455 41.657143 21.389900 41.716484 21.336499 41.775824 21.283258 41.835165 21.230183 41.894505 21.177279 41.953846 21.124553 42.013187 21.072010 42.072527 21.019655 42.131868 20.967495 42.191209 20.915536 42.250549 20.863782 42.309890 20.812240 42.369231 20.760916 42.428571 20.709815 42.487912 20.658943 42.547253 20.608306 42.606593 20.557910 42.665934 20.507760 42.725275 20.457862 42.784615 20.408222 42.843956 20.358845 42.903297 20.309738 42.962637 20.260906 43.021978 20.212355 43.081319 20.164091 43.140659 20.116118 43.200000 20.068444 43.259341 20.021074 43.318681 19.974014 43.378022 19.927269 43.437363 19.880845 43.496703 19.834748 43.556044 19.788984 43.615385 19.743558 43.674725 19.698476 43.734066 19.653744 43.793407 19.609368 43.852747 19.565354 43.912088 19.521706 43.971429 19.478432 44.030769 19.435536 44.090110 19.393025 44.149451 19.350904 44.208791 19.309179 44.268132 19.267855 44.327473 19.226939 44.386813 19.186437 44.446154 19.146353 44.505495 19.106694 44.564835 19.067466 44.624176 19.028674 44.683516 18.990323 44.742857 18.952421 44.802198 18.914972 44.861538 18.877983 44.920879 18.841458 44.980220 18.805404 45.039560 18.769827 45.098901 18.734732 45.158242 18.700126 45.217582 18.666013 45.276923 18.632399 45.336264 18.599291 45.395604 18.566694 45.454945 18.534614 45.514286 18.503056 45.573626 18.472027 45.632967 18.441532 45.692308 18.411576 45.751648 18.382167 45.810989 18.353308 45.870330 18.325007 45.929670 18.297268 45.989011 18.270099 46.048352 18.243503 46.107692 18.217488 46.167033 18.192059 46.226374 18.167221 46.285714 18.142981 46.345055 18.119344 46.404396 18.096315 46.463736 18.073902 46.523077 18.052109 46.582418 18.030942 46.641758 18.010405 46.701099 17.990497 46.760440 17.971213 46.819780 17.952550 46.879121 17.934504 46.938462 17.917073 46.997802 17.900250 47.057143 17.884035 47.116484 17.868422 47.175824 17.853407 47.235165 17.838988 47.294505 17.825161 47.353846 17.811922 47.413187 17.799266 47.472527 17.787192 47.531868 17.775694 47.591209 17.764770 47.650549 17.754415 47.709890 17.744626 47.769231 17.735400 47.828571 17.726732 47.887912 17.718619 47.947253 17.711057 48.006593 17.704043 48.065934 17.697573 48.125275 17.691643 48.184615 17.686250 48.243956 17.681389 48.303297 17.677058 48.362637 17.673253 48.421978 17.669969 48.481319 17.667204 48.540659 17.664953 48.600000 17.663214 48.659341 17.661981 48.718681 17.661252 48.778022 17.661023 48.837363 17.661291 48.896703 17.662051 48.956044 17.663300 49.015385 17.665034 49.074725 17.667250 49.134066 17.669943 49.193407 17.673111 49.252747 17.676750 49.312088 17.680855 49.371429 17.685424 49.430769 17.690453 49.490110 17.695937 49.549451 17.701874 49.608791 17.708259 49.668132 17.715089 49.727473 17.722361 49.786813 17.730070 49.846154 17.738213 49.905495 17.746786 49.964835 17.755786 50.024176 17.765209 50.083516 17.775051 50.142857 17.785309 50.202198 17.795979 50.261538 17.807057 50.320879 17.818539 50.380220 17.830423 50.439560 17.842704 50.498901 17.855378 50.558242 17.868442 50.617582 17.881893 50.676923 17.895726 50.736264 17.909939 50.795604 17.924526 50.854945 17.939485 50.914286 17.954812 50.973626 17.970504 51.032967 17.986556 51.092308 18.002965 51.151648 18.019727 51.210989 18.036839 51.270330 18.054296 51.329670 18.072097 51.389011 18.090235 51.448352 18.108709 51.507692 18.127514 51.567033 18.146646 51.626374 18.166103 51.685714 18.185880 51.745055 18.205973 51.804396 18.226379 51.863736 18.247095 51.923077 18.268116 51.982418 18.289439 52.041758 18.311061 52.101099 18.332977 52.160440 18.355184 52.219780 18.377678 52.279121 18.400456 52.338462 18.423514 52.397802 18.446848 52.457143 18.470455 52.516484 18.494331 52.575824 18.518472 52.635165 18.542875 52.694505 18.567535 52.753846 18.592450 52.813187 18.617616 52.872527 18.643028 52.931868 18.668684 52.991209 18.694579 53.050549 18.720711 53.109890 18.747074 53.169231 18.773667 53.228571 18.800484 53.287912 18.827523 53.347253 18.854779 53.406593 18.882249 53.465934 18.909929 53.525275 18.937816 53.584615 18.965906 53.643956 18.994196 53.703297 19.022680 53.762637 19.051357 53.821978 19.080222 53.881319 19.109272 53.940659 19.138503 54.000000 19.167911 54.059341 19.197493 54.118681 19.227244 54.178022 19.257162 54.237363 19.287243 54.296703 19.317482 54.356044 19.347877 54.415385 19.378424 54.474725 19.409118 54.534066 19.439957 54.593407 19.470936 54.652747 19.502052 54.712088 19.533302 54.771429 19.564681 54.830769 19.596186 54.890110 19.627814 54.949451 19.659560 55.008791 19.691421 55.068132 19.723393 55.127473 19.755473 55.186813 19.787657 55.246154 19.819942 55.305495 19.852322 55.364835 19.884796 55.424176 19.917359 55.483516 19.950008 55.542857 19.982739 55.602198 20.015548 55.661538 20.048432 55.720879 20.081386 55.780220 20.114408 55.839560 20.147494 55.898901 20.180639 55.958242 20.213841 56.017582 20.247096 56.076923 20.280399 56.136264 20.313748 56.195604 20.347138 56.254945 20.380567 56.314286 20.414029 56.373626 20.447523 56.432967 20.481043 56.492308 20.514587 56.551648 20.548150 56.610989 20.581729 56.670330 20.615320 56.729670 20.648921 56.789011 20.682526 56.848352 20.716132 56.907692 20.749736 56.967033 20.783334 57.026374 20.816922 57.085714 20.850497 57.145055 20.884055 57.204396 20.917593 57.263736 20.951105 57.323077 20.984590 57.382418 21.018043 57.441758 21.051461 57.501099 21.084840 57.560440 21.118176 57.619780 21.151466 57.679121 21.184705 57.738462 21.217891 57.797802 21.251020 57.857143 21.284088 57.916484 21.317091 57.975824 21.350025 58.035165 21.382888 58.094505 21.415675 58.153846 21.448382 58.213187 21.481007 58.272527 21.513544 58.331868 21.545992 58.391209 21.578345 58.450549 21.610601 58.509890 21.642755 58.569231 21.674805 58.628571 21.706745 58.687912 21.738573 58.747253 21.770286 58.806593 21.801878 58.865934 21.833348 58.925275 21.864690 58.984615 21.895901 59.043956 21.926978 59.103297 21.957918 59.162637 21.988715 59.221978 22.019367 59.281319 22.049870 59.340659 22.080221 59.400000 22.110415 59.459341 22.140449 59.518681 22.170319 59.578022 22.200022 59.637363 22.229554 59.696703 22.258911 59.756044 22.288090 59.815385 22.317087 59.874725 22.345898 59.934066 22.374520 59.993407 22.402949 60.052747 22.431181 60.112088 22.459213 60.171429 22.487041 60.230769 22.514661 60.290110 22.542070 60.349451 22.569264 60.408791 22.596239 60.468132 22.622991 60.527473 22.649518 60.586813 22.675815 60.646154 22.701879 60.705495 22.727705 60.764835 22.753291 60.824176 22.778633 60.883516 22.803727 60.942857 22.828569 61.002198 22.853155 61.061538 22.877483 61.120879 22.901548 61.180220 22.925346 61.239560 22.948875 61.298901 22.972130 61.358242 22.995107 61.417582 23.017804 61.476923 23.040217 61.536264 23.062347 61.595604 23.084197 61.654945 23.105769 61.714286 23.127066 61.773626 23.148088 61.832967 23.168839 61.892308 23.189321 61.951648 23.209536 62.010989 23.229486 62.070330 23.249174 62.129670 23.268601 62.189011 23.287770 62.248352 23.306683 62.307692 23.325342 62.367033 23.343750 62.426374 23.361908 62.485714 23.379819 62.545055 23.397485 62.604396 23.414909 62.663736 23.432092 62.723077 23.449037 62.782418 23.465745 62.841758 23.482220 62.901099 23.498463 62.960440 23.514477 63.019780 23.530263 63.079121 23.545824 63.138462 23.561163 63.197802 23.576281 63.257143 23.591180 63.316484 23.605863 63.375824 23.620332 63.435165 23.634590 63.494505 23.648637 63.553846 23.662478 63.613187 23.676113 63.672527 23.689545 63.731868 23.702777 63.791209 23.715810 63.850549 23.728646 63.909890 23.741289 63.969231 23.753739 64.028571 23.766000 64.087912 23.778073 64.147253 23.789961 64.206593 23.801666 64.265934 23.813190 64.325275 23.824535 64.384615 23.835704 64.443956 23.846699 64.503297 23.857521 64.562637 23.868174 64.621978 23.878659 64.681319 23.888979 64.740659 23.899135 64.800000 23.909131 64.859341 23.918967 64.918681 23.928647 64.978022 23.938173 65.037363 23.947546 65.096703 23.956770 65.156044 23.965845 65.215385 23.974776 65.274725 23.983562 65.334066 23.992208 65.393407 24.000715 65.452747 24.009085 65.512088 24.017320 65.571429 24.025424 65.630769 24.033397 65.690110 24.041242 65.749451 24.048962 65.808791 24.056558 65.868132 24.064033 65.927473 24.071388 65.986813 24.078627 66.046154 24.085752 66.105495 24.092764 66.164835 24.099665 66.224176 24.106459 66.283516 24.113147 66.342857 24.119731 66.402198 24.126214 66.461538 24.132598 66.520879 24.138884 66.580220 24.145076 66.639560 24.151176 66.698901 24.157185 66.758242 24.163106 66.817582 24.168941 66.876923 24.174692 66.936264 24.180362 66.995604 24.185953 67.054945 24.191466 67.114286 24.196904 67.173626 24.202270 67.232967 24.207566 67.292308 24.212793 67.351648 24.217954 67.410989 24.223051 67.470330 24.228087 67.529670 24.233063 67.589011 24.237982 67.648352 24.242846 67.707692 24.247657 67.767033 24.252417 67.826374 24.257130 67.885714 24.261796 67.945055 24.266418 68.004396 24.270998 68.063736 24.275538 68.123077 24.280042 68.182418 24.284510 68.241758 24.288945 68.301099 24.293350 68.360440 24.297726 68.419780 24.302076 68.479121 24.306401 68.538462 24.310705 68.597802 24.314989 68.657143 24.319256 68.716484 24.323507 68.775824 24.327746 68.835165 24.331973 68.894505 24.336192 68.953846 24.340405 69.013187 24.344613 69.072527 24.348819 69.131868 24.353025 69.191209 24.357234 69.250549 24.361448 69.309890 24.365668 69.369231 24.369897 69.428571 24.374138 69.487912 24.378392 69.547253 24.382661 69.606593 24.386949 69.665934 24.391257 69.725275 24.395586 69.784615 24.399941 69.843956 24.404322 69.903297 24.408732 69.962637 24.413173 70.021978 24.417647 70.081319 24.422157 70.140659 24.426705 70.200000 24.431292 70.259341 24.435922 70.318681 24.440596 70.378022 24.445317 70.437363 24.450087 70.496703 24.454907 70.556044 24.459781 70.615385 24.464710 70.674725 24.469697 70.734066 24.474743 70.793407 24.479852 70.852747 24.485025 70.912088 24.490264 70.971429 24.495572 71.030769 24.500951 71.090110 24.506403 71.149451 24.511930 71.208791 24.517534 71.268132 24.523219 71.327473 24.528985 71.386813 24.534835 71.446154 24.540772 71.505495 24.546797 71.564835 24.552913 71.624176 24.559122 71.683516 24.565426 71.742857 24.571828 71.802198 24.578329 71.861538 24.584932 71.920879 24.591638 71.980220 24.598451 72.039560 24.605373 72.098901 24.612405 72.158242 24.619550 72.217582 24.626810 72.276923 24.634187 72.336264 24.641683 72.395604 24.649301 72.454945 24.657044 72.514286 24.664912 72.573626 24.672908 72.632967 24.681035 72.692308 24.689295 72.751648 24.697689 72.810989 24.706221 72.870330 24.714892 72.929670 24.723705 72.989011 24.732661 73.048352 24.741763 73.107692 24.751013 73.167033 24.760414 73.226374 24.769968 73.285714 24.779676 73.345055 24.789541 73.404396 24.799565 73.463736 24.809751 73.523077 24.820100 73.582418 24.830615 73.641758 24.841298 73.701099 24.852152 73.760440 24.863178 73.819780 24.874378 73.879121 24.885756 73.938462 24.897312 73.997802 24.909050 74.057143 24.920971 74.116484 24.933078 74.175824 24.945373 74.235165 24.957858 74.294505 24.970535 74.353846 24.983407 74.413187 24.996476 74.472527 25.009743 74.531868 25.023212 74.591209 25.036884 74.650549 25.050762 74.709890 25.064847 74.769231 25.079143 74.828571 25.093650 74.887912 25.108372 74.947253 25.123311 75.006593 25.138468 75.065934 25.153847 75.125275 25.169449 75.184615 25.185276 75.243956 25.201331 75.303297 25.217616 75.362637 25.234132 75.421978 25.250883 75.481319 25.267871 75.540659 25.285097 75.600000 25.302564 75.659341 25.320275 75.718681 25.338230 75.778022 25.356434 75.837363 25.374886 75.896703 25.393591 75.956044 25.412550 76.015385 25.431766 76.074725 25.451240 76.134066 25.470974 76.193407 25.490972 76.252747 25.511235 76.312088 25.531764 76.371429 25.552557 76.430769 25.573608 76.490110 25.594915 76.549451 25.616472 76.608791 25.638275 76.668132 25.660320 76.727473 25.682603 76.786813 25.705120 76.846154 25.727867 76.905495 25.750839 76.964835 25.774032 77.024176 25.797442 77.083516 25.821064 77.142857 25.844895 77.202198 25.868930 77.261538 25.893166 77.320879 25.917597 77.380220 25.942220 77.439560 25.967030 77.498901 25.992024 77.558242 26.017196 77.617582 26.042543 77.676923 26.068061 77.736264 26.093746 77.795604 26.119592 77.854945 26.145596 77.914286 26.171755 77.973626 26.198062 78.032967 26.224515 78.092308 26.251110 78.151648 26.277841 78.210989 26.304704 78.270330 26.331697 78.329670 26.358813 78.389011 26.386050 78.448352 26.413402 78.507692 26.440867 78.567033 26.468438 78.626374 26.496113 78.685714 26.523887 78.745055 26.551756 78.804396 26.579715 78.863736 26.607761 78.923077 26.635889 78.982418 26.664095 79.041758 26.692374 79.101099 26.720724 79.160440 26.749138 79.219780 26.777614 79.279121 26.806147 79.338462 26.834732 79.397802 26.863366 79.457143 26.892044 79.516484 26.920762 79.575824 26.949517 79.635165 26.978303 79.694505 27.007116 79.753846 27.035953 79.813187 27.064808 79.872527 27.093679 79.931868 27.122560 79.991209 27.151447 80.050549 27.180337 80.109890 27.209225 80.169231 27.238107 80.228571 27.266978 80.287912 27.295834 80.347253 27.324672 80.406593 27.353487 80.465934 27.382274 80.525275 27.411030 80.584615 27.439750 80.643956 27.468431 80.703297 27.497067 80.762637 27.525655 80.821978 27.554190 80.881319 27.582669 80.940659 27.611087 81.000000 27.639440 81.059341 27.667723 81.118681 27.695933 81.178022 27.724065 81.237363 27.752115 81.296703 27.780079 81.356044 27.807952 81.415385 27.835731 81.474725 27.863411 81.534066 27.890988 81.593407 27.918458 81.652747 27.945816 81.712088 27.973059 81.771429 28.000181 81.830769 28.027180 81.890110 28.054051 81.949451 28.080789 82.008791 28.107390 82.068132 28.133850 82.127473 28.160166 82.186813 28.186331 82.246154 28.212344 82.305495 28.238198 82.364835 28.263891 82.424176 28.289418 82.483516 28.314774 82.542857 28.339955 82.602198 28.364958 82.661538 28.389778 82.720879 28.414410 82.780220 28.438851 82.839560 28.463097 82.898901 28.487142 82.958242 28.510984 83.017582 28.534617 83.076923 28.558038 83.136264 28.581242 83.195604 28.604226 83.254945 28.626984 83.314286 28.649513 83.373626 28.671808 83.432967 28.693865 83.492308 28.715681 83.551648 28.737251 83.610989 28.758570 83.670330 28.779634 83.729670 28.800440 83.789011 28.820983 83.848352 28.841259 83.907692 28.861263 83.967033 28.880992 84.026374 28.900440 84.085714 28.919605 84.145055 28.938482 84.204396 28.957066 84.263736 28.975353 84.323077 28.993340 84.382418 29.011021 84.441758 29.028393 84.501099 29.045452 84.560440 29.062193 84.619780 29.078612 84.679121 29.094705 84.738462 29.110468 84.797802 29.125896 84.857143 29.140985 84.916484 29.155731 84.975824 29.170130 85.035165 29.184178 85.094505 29.197870 85.153846 29.211203 85.213187 29.224171 85.272527 29.236771 85.331868 29.248999 85.391209 29.260850 85.450549 29.272320 85.509890 29.283405 85.569231 29.294101 85.628571 29.304404 85.687912 29.314308 85.747253 29.323811 85.806593 29.332908 85.865934 29.341594 85.925275 29.349866 85.984615 29.357719 86.043956 29.365149 86.103297 29.372152 86.162637 29.378724 86.221978 29.384860 86.281319 29.390557 86.340659 29.395809 86.400000 29.400613 86.459341 29.404965 86.518681 29.408860 86.578022 29.412294 86.637363 29.415263 86.696703 29.417763 86.756044 29.419790 86.815385 29.421339 86.874725 29.422405 86.934066 29.422986 86.993407 29.423077 87.052747 29.422673 87.112088 29.421770 87.171429 29.420365 87.230769 29.418452 87.290110 29.416028 87.349451 29.413088 87.408791 29.409629 87.468132 29.405646 87.527473 29.401134 87.586813 29.396090 87.646154 29.390510 87.705495 29.384388 87.764835 29.377722 87.824176 29.370506 87.883516 29.362737 87.942857 29.354411 88.002198 29.345522 88.061538 29.336068 88.120879 29.326043 88.180220 29.315443 88.239560 29.304265 88.298901 29.292504 88.358242 29.280156 88.417582 29.267217 88.476923 29.253682 88.536264 29.239547 88.595604 29.224809 88.654945 29.209462 88.714286 29.193503 88.773626 29.176927 88.832967 29.159730 88.892308 29.141909 88.951648 29.123458 89.010989 29.104374 89.070330 29.084652 89.129670 29.064289 89.189011 29.043279 89.248352 29.021619 89.307692 28.999305 89.367033 28.976331 89.426374 28.952696 89.485714 28.928392 89.545055 28.903418 89.604396 28.877768 89.663736 28.851439 89.723077 28.824425 89.782418 28.796723 89.841758 28.768329 89.901099 28.739239 89.960440 28.709447 90.019780 28.678951 90.079121 28.647746 90.138462 28.615827 90.197802 28.583190 90.257143 28.549832 90.316484 28.515747 90.375824 28.480933 90.435165 28.445384 90.494505 28.409096 90.553846 28.372065 90.613187 28.334288 90.672527 28.295759 90.731868 28.256474 90.791209 28.216430 90.850549 28.175622 90.909890 28.134046 90.969231 28.091697 91.028571 28.048572 91.087912 28.004666 91.147253 27.959977 91.206593 27.914505 91.265934 27.868255 91.325275 27.821230 91.384615 27.773432 91.443956 27.724865 91.503297 27.675531 91.562637 27.625435 91.621978 27.574579 91.681319 27.522966 91.740659 27.470599 91.800000 27.417482 91.859341 27.363618 91.918681 27.309010 91.978022 27.253661 92.037363 27.197573 92.096703 27.140752 92.156044 27.083198 92.215385 27.024916 92.274725 26.965909 92.334066 26.906180 92.393407 26.845731 92.452747 26.784567 92.512088 26.722690 92.571429 26.660103 92.630769 26.596810 92.690110 26.532814 92.749451 26.468117 92.808791 26.402723 92.868132 26.336636 92.927473 26.269857 92.986813 26.202391 93.046154 26.134241 93.105495 26.065409 93.164835 25.995899 93.224176 25.925714 93.283516 25.854857 93.342857 25.783331 93.402198 25.711140 93.461538 25.638286 93.520879 25.564773 93.580220 25.490603 93.639560 25.415780 93.698901 25.340308 93.758242 25.264189 93.817582 25.187426 93.876923 25.110022 93.936264 25.031981 93.995604 24.953306 94.054945 24.873999 94.114286 24.794065 94.173626 24.713506 94.232967 24.632325 94.292308 24.550526 94.351648 24.468111 94.410989 24.385084 94.470330 24.301448 94.529670 24.217206 94.589011 24.132361 94.648352 24.046916 94.707692 23.960875 94.767033 23.874240 94.826374 23.787015 94.885714 23.699203 94.945055 23.610807 95.004396 23.521830 95.063736 23.432275 95.123077 23.342146 95.182418 23.251445 95.241758 23.160176 95.301099 23.068342 95.360440 22.975945 95.419780 22.882990 95.479121 22.789479 95.538462 22.695416 95.597802 22.600803 95.657143 22.505643 95.716484 22.409941 95.775824 22.313698 95.835165 22.216918 95.894505 22.119605 95.953846 22.021761 96.013187 21.923390 96.072527 21.824494 96.131868 21.725077 96.191209 21.625142 96.250549 21.524692 96.309890 21.423730 96.369231 21.322260 96.428571 21.220284 96.487912 21.117805 96.547253 21.014828 96.606593 20.911354 96.665934 20.807387 96.725275 20.702931 96.784615 20.597988 96.843956 20.492561 96.903297 20.386654 96.962637 20.280270 97.021978 20.173411 97.081319 20.066082 97.140659 19.958285 97.200000 19.850023 97.259341 19.741299 97.318681 19.632117 97.378022 19.522480 97.437363 19.412391 97.496703 19.301853 97.556044 19.190868 97.615385 19.079442 97.674725 18.967575 97.734066 18.855272 97.793407 18.742536 97.852747 18.629370 97.912088 18.515776 97.971429 18.401759 98.030769 18.287321 98.090110 18.172465 98.149451 18.057195 98.208791 17.941514 98.268132 17.825424 98.327473 17.708930 98.386813 17.592033 98.446154 17.474738 98.505495 17.357047 98.564835 17.238964 98.624176 17.120491 98.683516 17.001632 98.742857 16.882390 98.802198 16.762768 98.861538 16.642770 98.920879 16.522397 98.980220 16.401654 99.039560 16.280544 99.098901 16.159070 99.158242 16.037234 99.217582 15.915041 99.276923 15.792493 99.336264 15.669593 99.395604 15.546344 99.454945 15.422751 99.514286 15.298815 99.573626 15.174540 99.632967 15.049928 99.692308 14.924984 99.751648 14.799711 99.810989 14.674111 99.870330 14.548187 99.929670 14.421943 99.989011 14.295382 100.048352 14.168508 100.107692 14.041322 100.167033 13.913828 100.226374 13.786030 100.285714 13.657931 100.345055 13.529533 100.404396 13.400840 100.463736 13.271855 100.523077 13.142582 100.582418 13.013022 100.641758 12.883180 100.701099 12.753058 100.760440 12.622661 100.819780 12.491990 100.879121 12.361049 100.938462 12.229841 100.997802 12.098369 101.057143 11.966637 101.116484 11.834647 101.175824 11.702403 101.235165 11.569908 101.294505 11.437164 101.353846 11.304176 101.413187 11.170946 101.472527 11.037478 101.531868 10.903774 101.591209 10.769837 101.650549 10.635672 101.709890 10.501280 101.769231 10.366665 101.828571 10.231831 101.887912 10.096780 101.947253 9.961515 102.006593 9.826040 102.065934 9.690358 102.125275 9.554472 102.184615 9.418385 102.243956 9.282100 102.303297 9.145620 102.362637 9.008949 102.421978 8.872089 102.481319 8.735044 102.540659 8.597817 102.600000 8.460411 102.659341 8.322829 102.718681 8.185075 102.778022 8.047151 102.837363 7.909060 102.896703 7.770807 102.956044 7.632393 103.015385 7.493822 103.074725 7.355097 103.134066 7.216222 103.193407 7.077199 103.252747 6.938032 103.312088 6.798723 103.371429 6.659276 103.430769 6.519694 103.490110 6.379980 103.549451 6.240138 103.608791 6.100170 103.668132 5.960079 103.727473 5.819870 103.786813 5.679544 103.846154 5.539105 103.905495 5.398556 103.964835 5.257900 104.024176 5.117141 104.083516 4.976281 104.142857 4.835324 104.202198 4.694272 104.261538 4.553130 104.320879 4.411900 104.380220 4.270585 104.439560 4.129188 104.498901 3.987713 104.558242 3.846162 104.617582 3.704540 104.676923 3.562848 104.736264 3.421090 104.795604 3.279269 104.854945 3.137389 104.914286 2.995452 104.973626 2.853462 105.032967 2.711422 105.092308 2.569334 105.151648 2.427203 105.210989 2.285031 105.270330 2.142821 105.329670 2.000576 105.389011 1.858301 105.448352 1.715996 105.507692 1.573667 105.567033 1.431316 105.626374 1.288946 105.685714 1.146560 105.745055 1.004162 105.804396 0.861754 105.863736 0.719340 105.923077 0.576923" class="line reactive nofill" /></g></g><g class="titles" /><g transform="translate(82, 10)" class="plot overlay"><g class="series serie-0 color-0" /></g><g transform="translate(82, 10)" class="plot text-overlay"><g class="series serie-0 color-0" /></g><g transform="translate(82, 10)" class="plot tooltip-overlay"><g transform="translate(0 0)" style="opacity: 0" class="tooltip"><rect rx="0" ry="0" width="0" height="0" class="tooltip-box" /><g class="text" /></g></g></g></svg>