<?xml version='1.0' encoding='utf-8'?>
<svg xmlns="http://www.w3.org/2000/svg" id="chart-71e16065-3d32-43d9-aef8-73cd89dba889" class="pygal-chart pygal-sparkline" viewBox="0 0 200 50" width="200" height="50"><!--Generated with pygal 3.0.5 (etree) ©Kozea 2012-2016 on 2025-02-09--><!--http://pygal.org--><!--http://github.com/Kozea/pygal--><defs><style type="text/css">#chart-71e16065-3d32-43d9-aef8-73cd89dba889{-webkit-user-select:none;-webkit-font-smoothing:antialiased;font-family:Consolas,"Liberation Mono",Menlo,Courier,monospace}#chart-71e16065-3d32-43d9-aef8-73cd89dba889 .title{font-family:Consolas,"Liberation Mono",Menlo,Courier,monospace;font-size:16px}#chart-71e16065-3d32-43d9-aef8-73cd89dba889 .legends .legend text{font-family:Consolas,"Liberation Mono",Menlo,Courier,monospace;font-size:14px}#chart-71e16065-3d32-43d9-aef8-73cd89dba889 .axis text{font-family:Consolas,"Liberation Mono",Menlo,Courier,monospace;font-size:10px}#chart-71e16065-3d32-43d9-aef8-73cd89dba889 .axis text.major{font-family:Consolas,"Liberation Mono",Menlo,Courier,monospace;font-size:10px}#chart-71e16065-3d32-43d9-aef8-73cd89dba889 .text-overlay text.value{font-family:Consolas,"Liberation Mono",Menlo,Courier,monospace;font-size:16px}#chart-71e16065-3d32-43d9-aef8-73cd89dba889 .text-overlay text.label{font-family:Consolas,"Liberation Mono",Menlo,Courier,monospace;font-size:10px}#chart-71e16065-3d32-43d9-aef8-73cd89dba889 .tooltip{font-family:Consolas,"Liberation Mono",Menlo,Courier,monospace;font-size:14px}#chart-71e16065-3d32-43d9-aef8-73cd89dba889 text.no_data{font-family:Consolas,"Liberation Mono",Menlo,Courier,monospace;font-size:64px}
#chart-71e16065-3d32-43d9-aef8-73cd89dba889{background-color:rgba(249,249,249,1)}#chart-71e16065-3d32-43d9-aef8-73cd89dba889 path,#chart-71e16065-3d32-43d9-aef8-73cd89dba889 line,#chart-71e16065-3d32-43d9-aef8-73cd89dba889 rect,#chart-71e16065-3d32-43d9-aef8-73cd89dba889 circle{-webkit-transition:150ms;-moz-transition:150ms;transition:150ms}#chart-71e16065-3d32-43d9-aef8-73cd89dba889 .graph &gt; .background{fill:rgba(249,249,249,1)}#chart-71e16065-3d32-43d9-aef8-73cd89dba889 .plot &gt; .background{fill:rgba(255,255,255,1)}#chart-71e16065-3d32-43d9-aef8-73cd89dba889 .graph{fill:rgba(0,0,0,.87)}#chart-71e16065-3d32-43d9-aef8-73cd89dba889 text.no_data{fill:rgba(0,0,0,1)}#chart-71e16065-3d32-43d9-aef8-73cd89dba889 .title{fill:rgba(0,0,0,1)}#chart-71e16065-3d32-43d9-aef8-73cd89dba889 .legends .legend text{fill:rgba(0,0,0,.87)}#chart-71e16065-3d32-43d9-aef8-73cd89dba889 .legends .legend:hover text{fill:rgba(0,0,0,1)}#chart-71e16065-3d32-43d9-aef8-73cd89dba889 .axis .line{stroke:rgba(0,0,0,1)}#chart-71e16065-3d32-43d9-aef8-73cd89dba889 .axis .guide.line{stroke:rgba(0,0,0,.54)}#chart-71e16065-3d32-43d9-aef8-73cd89dba889 .axis .major.line{stroke:rgba(0,0,0,.87)}#chart-71e16065-3d32-43d9-aef8-73cd89dba889 .axis text.major{fill:rgba(0,0,0,1)}#chart-71e16065-3d32-43d9-aef8-73cd89dba889 .axis.y .guides:hover .guide.line,#chart-71e16065-3d32-43d9-aef8-73cd89dba889 .line-graph .axis.x .guides:hover .guide.line,#chart-71e16065-3d32-43d9-aef8-73cd89dba889 .stackedline-graph .axis.x .guides:hover .guide.line,#chart-71e16065-3d32-43d9-aef8-73cd89dba889 .xy-graph .axis.x .guides:hover .guide.line{stroke:rgba(0,0,0,1)}#chart-71e16065-3d32-43d9-aef8-73cd89dba889 .axis .guides:hover text{fill:rgba(0,0,0,1)}#chart-71e16065-3d32-43d9-aef8-73cd89dba889 .reactive{fill-opacity:.7;stroke-opacity:.8;stroke-width:1}#chart-71e16065-3d32-43d9-aef8-73cd89dba889 .ci{stroke:rgba(0,0,0,.87)}#chart-71e16065-3d32-43d9-aef8-73cd89dba889 .reactive.active,#chart-71e16065-3d32-43d9-aef8-73cd89dba889 .active .reactive{fill-opacity:.8;stroke-opacity:.9;stroke-width:4}#chart-71e16065-3d32-43d9-aef8-73cd89dba889 .ci .reactive.active{stroke-width:1.5}#chart-71e16065-3d32-43d9-aef8-73cd89dba889 .series text{fill:rgba(0,0,0,1)}#chart-71e16065-3d32-43d9-aef8-73cd89dba889 .tooltip rect{fill:rgba(255,255,255,1);stroke:rgba(0,0,0,1);-webkit-transition:opacity 150ms;-moz-transition:opacity 150ms;transition:opacity 150ms}#chart-71e16065-3d32-43d9-aef8-73cd89dba889 .tooltip .label{fill:rgba(0,0,0,.87)}#chart-71e16065-3d32-43d9-aef8-73cd89dba889 .tooltip .label{fill:rgba(0,0,0,.87)}#chart-71e16065-3d32-43d9-aef8-73cd89dba889 .tooltip .legend{font-size:.8em;fill:rgba(0,0,0,.54)}#chart-71e16065-3d32-43d9-aef8-73cd89dba889 .tooltip .x_label{font-size:.6em;fill:rgba(0,0,0,1)}#chart-71e16065-3d32-43d9-aef8-73cd89dba889 .tooltip .xlink{font-size:.5em;text-decoration:underline}#chart-71e16065-3d32-43d9-aef8-73cd89dba889 .tooltip .value{font-size:1.5em}#chart-71e16065-3d32-43d9-aef8-73cd89dba889 .bound{font-size:.5em}#chart-71e16065-3d32-43d9-aef8-73cd89dba889 .max-value{font-size:.75em;fill:rgba(0,0,0,.54)}#chart-71e16065-3d32-43d9-aef8-73cd89dba889 .map-element{fill:rgba(255,255,255,1);stroke:rgba(0,0,0,.54) !important}#chart-71e16065-3d32-43d9-aef8-73cd89dba889 .map-element .reactive{fill-opacity:inherit;stroke-opacity:inherit}#chart-71e16065-3d32-43d9-aef8-73cd89dba889 .color-0,#chart-71e16065-3d32-43d9-aef8-73cd89dba889 .color-0 a:visited{stroke:#F44336;fill:#F44336}#chart-71e16065-3d32-43d9-aef8-73cd89dba889 .text-overlay .color-0 text{fill:black}
#chart-71e16065-3d32-43d9-aef8-73cd89dba889 text.no_data{text-anchor:middle}#chart-71e16065-3d32-43d9-aef8-73cd89dba889 .guide.line{fill:none}#chart-71e16065-3d32-43d9-aef8-73cd89dba889 .centered{text-anchor:middle}#chart-71e16065-3d32-43d9-aef8-73cd89dba889 .title{text-anchor:middle}#chart-71e16065-3d32-43d9-aef8-73cd89dba889 .legends .legend text{fill-opacity:1}#chart-71e16065-3d32-43d9-aef8-73cd89dba889 .axis.x text{text-anchor:middle}#chart-71e16065-3d32-43d9-aef8-73cd89dba889 .axis.x:not(.web) text[transform]{text-anchor:start}#chart-71e16065-3d32-43d9-aef8-73cd89dba889 .axis.x:not(.web) text[transform].backwards{text-anchor:end}#chart-71e16065-3d32-43d9-aef8-73cd89dba889 .axis.y text{text-anchor:end}#chart-71e16065-3d32-43d9-aef8-73cd89dba889 .axis.y text[transform].backwards{text-anchor:start}#chart-71e16065-3d32-43d9-aef8-73cd89dba889 .axis.y2 text{text-anchor:start}#chart-71e16065-3d32-43d9-aef8-73cd89dba889 .axis.y2 text[transform].backwards{text-anchor:end}#chart-71e16065-3d32-43d9-aef8-73cd89dba889 .axis .guide.line{stroke-dasharray:4,4;stroke:black}#chart-71e16065-3d32-43d9-aef8-73cd89dba889 .axis .major.guide.line{stroke-dasharray:6,6;stroke:black}#chart-71e16065-3d32-43d9-aef8-73cd89dba889 .horizontal .axis.y .guide.line,#chart-71e16065-3d32-43d9-aef8-73cd89dba889 .horizontal .axis.y2 .guide.line,#chart-71e16065-3d32-43d9-aef8-73cd89dba889 .vertical .axis.x .guide.line{opacity:0}#chart-71e16065-3d32-43d9-aef8-73cd89dba889 .horizontal .axis.always_show .guide.line,#chart-71e16065-3d32-43d9-aef8-73cd89dba889 .vertical .axis.always_show .guide.line{opacity:1 !important}#chart-71e16065-3d32-43d9-aef8-73cd89dba889 .axis.y .guides:hover .guide.line,#chart-71e16065-3d32-43d9-aef8-73cd89dba889 .axis.y2 .guides:hover .guide.line,#chart-71e16065-3d32-43d9-aef8-73cd89dba889 .axis.x .guides:hover .guide.line{opacity:1}#chart-71e16065-3d32-43d9-aef8-73cd89dba889 .axis .guides:hover text{opacity:1}#chart-71e16065-3d32-43d9-aef8-73cd89dba889 .nofill{fill:none}#chart-71e16065-3d32-43d9-aef8-73cd89dba889 .subtle-fill{fill-opacity:.2}#chart-71e16065-3d32-43d9-aef8-73cd89dba889 .dot{stroke-width:1px;fill-opacity:1;stroke-opacity:1}#chart-71e16065-3d32-43d9-aef8-73cd89dba889 .dot.active{stroke-width:5px}#chart-71e16065-3d32-43d9-aef8-73cd89dba889 .dot.negative{fill:transparent}#chart-71e16065-3d32-43d9-aef8-73cd89dba889 text,#chart-71e16065-3d32-43d9-aef8-73cd89dba889 tspan{stroke:none !important}#chart-71e16065-3d32-43d9-aef8-73cd89dba889 .series text.active{opacity:1}#chart-71e16065-3d32-43d9-aef8-73cd89dba889 .tooltip rect{fill-opacity:.95;stroke-width:.5}#chart-71e16065-3d32-43d9-aef8-73cd89dba889 .tooltip text{fill-opacity:1}#chart-71e16065-3d32-43d9-aef8-73cd89dba889 .showable{visibility:hidden}#chart-71e16065-3d32-43d9-aef8-73cd89dba889 .showable.shown{visibility:visible}#chart-71e16065-3d32-43d9-aef8-73cd89dba889 .gauge-background{fill:rgba(229,229,229,1);stroke:none}#chart-71e16065-3d32-43d9-aef8-73cd89dba889 .bg-lines{stroke:rgba(249,249,249,1);stroke-width:2px}</style><script type="text/javascript">window.pygal = window.pygal || {};window.pygal.config = window.pygal.config || {};window.pygal.config['71e16065-3d32-43d9-aef8-73cd89dba889'] = {"allow_interruptions": false, "box_mode": "extremes", "classes": ["pygal-chart", "pygal-sparkline"], "css": ["file://style.css", "file://graph.css"], "defs": [], "disable_xml_declaration": false, "dots_size": 2.5, "dynamic_print_values": false, "explicit_size": true, "fill": false, "force_uri_protocol": "https", "formatter": null, "half_pie": false, "height": 50, "include_x_axis": false, "inner_radius": 0, "interpolate": "cubic", "interpolation_parameters": {}, "interpolation_precision": 250, "inverse_y_axis": false, "js": [], "legend_at_bottom": false, "legend_at_bottom_columns": null, "legend_box_size": 12, "logarithmic": false, "margin": 10, "margin_bottom": null, "margin_left": null, "margin_right": null, "margin_top": null, "max_scale": 2, "min_scale": 1, "missing_value_fill_truncation": "x", "no_data_text": "", "no_prefix": false, "order_min": null, "pretty_print": false, "print_labels": false, "print_values": false, "print_values_position": "center", "print_zeroes": true, "range": null, "rounded_bars": null, "secondary_range": null, "show_dots": false, "show_legend": false, "show_minor_x_labels": true, "show_minor_y_labels": true, "show_only_major_dots": false, "show_x_guides": false, "show_x_labels": false, "show_y_guides": true, "show_y_labels": true, "spacing": 0, "stack_from_top": false, "strict": false, "stroke": true, "stroke_style": null, "style": {"background": "rgba(249, 249, 249, 1)", "ci_colors": [], "colors": ["#F44336", "#3F51B5", "#009688", "#FFC107", "#FF5722", "#9C27B0", "#03A9F4", "#8BC34A", "#FF9800", "#E91E63", "#2196F3", "#4CAF50", "#FFEB3B", "#673AB7", "#00BCD4", "#CDDC39", "#9E9E9E", "#607D8B"], "dot_opacity": "1", "font_family": "Consolas, \"Liberation Mono\", Menlo, Courier, monospace", "foreground": "rgba(0, 0, 0, .87)", "foreground_strong": "rgba(0, 0, 0, 1)", "foreground_subtle": "rgba(0, 0, 0, .54)", "guide_stroke_color": "black", "guide_stroke_dasharray": "4,4", "label_font_family": "Consolas, \"Liberation Mono\", Menlo, Courier, monospace", "label_font_size": 10, "legend_font_family": "Consolas, \"Liberation Mono\", Menlo, Courier, monospace", "legend_font_size": 14, "major_guide_stroke_color": "black", "major_guide_stroke_dasharray": "6,6", "major_label_font_family": "Consolas, \"Liberation Mono\", Menlo, Courier, monospace", "major_label_font_size": 10, "no_data_font_family": "Consolas, \"Liberation Mono\", Menlo, Courier, monospace", "no_data_font_size": 64, "opacity": ".7", "opacity_hover": ".8", "plot_background": "rgba(255, 255, 255, 1)", "stroke_opacity": ".8", "stroke_opacity_hover": ".9", "stroke_width": "1", "stroke_width_hover": "4", "title_font_family": "Consolas, \"Liberation Mono\", Menlo, Courier, monospace", "title_font_size": 16, "tooltip_font_family": "Consolas, \"Liberation Mono\", Menlo, Courier, monospace", "tooltip_font_size": 14, "transition": "150ms", "value_background": "rgba(229, 229, 229, 1)", "value_colors": [], "value_font_family": "Consolas, \"Liberation Mono\", Menlo, Courier, monospace", "value_font_size": 16, "value_label_font_family": "Consolas, \"Liberation Mono\", Menlo, Courier, monospace", "value_label_font_size": 10}, "title": null, "tooltip_border_radius": 0, "tooltip_fancy_mode": true, "truncate_label": null, "truncate_legend": null, "width": 200, "x_label_rotation": 0, "x_labels": ["2025/2", "2025/1", "2024/12", "2024/11", "2024/10", "2024/9", "2024/8"], "x_labels_major": null, "x_labels_major_count": null, "x_labels_major_every": null, "x_title": null, "xrange": null, "y_label_rotation": 0, "y_labels": null, "y_labels_major": null, "y_labels_major_count": null, "y_labels_major_every": null, "y_title": null, "zero": 0, "legends": [""]}</script></defs><title>Pygal</title><g class="graph line-graph vertical"><rect x="0" y="0" width="200" height="50" class="background" /><g transform="translate(76, 10)" class="plot"><rect x="0" y="0" width="114.0" height="30" class="background" /><g class="axis y always_show"><path d="M0.000000 30.000000 h114.000000" class="line" /><g class="guides"><path d="M0.000000 29.423077 h114.000000" class="guide line" /><text x="-5" y="32.92307692307692" class="">1.977763538</text><title>1.977763538</title></g><g class="guides"><path d="M0.000000 0.576923 h114.000000" class="guide line" /><text x="-5" y="4.076923076923073" class="">7.361905938</text><title>7.361905938</title></g></g><g class="series serie-0 color-0"><path d="M2.192308 29.303943 L2.265385 29.228195 2.338462 29.152450 2.411538 29.076712 2.484615 29.000983 2.557692 28.925266 2.630769 28.849566 2.703846 28.773884 2.776923 28.698225 2.850000 28.622590 2.923077 28.546985 2.996154 28.471410 3.069231 28.395871 3.142308 28.320369 3.215385 28.244909 3.288462 28.169492 3.361538 28.094123 3.434615 28.018805 3.507692 27.943540 3.580769 27.868332 3.653846 27.793184 3.726923 27.718099 3.800000 27.643080 3.873077 27.568131 3.946154 27.493255 4.019231 27.418454 4.092308 27.343732 4.165385 27.269093 4.238462 27.194538 4.311538 27.120072 4.384615 27.045698 4.457692 26.971418 4.530769 26.897236 4.603846 26.823155 4.676923 26.749178 4.750000 26.675309 4.823077 26.601550 4.896154 26.527905 4.969231 26.454377 5.042308 26.380968 5.115385 26.307683 5.188462 26.234524 5.261538 26.161494 5.334615 26.088597 5.407692 26.015836 5.480769 25.943214 5.553846 25.870734 5.626923 25.798399 5.700000 25.726212 5.773077 25.654177 5.846154 25.582297 5.919231 25.510575 5.992308 25.439013 6.065385 25.367616 6.138462 25.296386 6.211538 25.225326 6.284615 25.154441 6.357692 25.083732 6.430769 25.013203 6.503846 24.942857 6.576923 24.872697 6.650000 24.802727 6.723077 24.732949 6.796154 24.663367 6.869231 24.593984 6.942308 24.524803 7.015385 24.455828 7.088462 24.387060 7.161538 24.318505 7.234615 24.250164 7.307692 24.182040 7.380769 24.114138 7.453846 24.046460 7.526923 23.979009 7.600000 23.911789 7.673077 23.844802 7.746154 23.778052 7.819231 23.711543 7.892308 23.645276 7.965385 23.579255 8.038462 23.513484 8.111538 23.447965 8.184615 23.382703 8.257692 23.317699 8.330769 23.252957 8.403846 23.188480 8.476923 23.124272 8.550000 23.060335 8.623077 22.996673 8.696154 22.933289 8.769231 22.870185 8.842308 22.807366 8.915385 22.744834 8.988462 22.682593 9.061538 22.620645 9.134615 22.558994 9.207692 22.497643 9.280769 22.436595 9.353846 22.375853 9.426923 22.315421 9.500000 22.255301 9.573077 22.195497 9.646154 22.136012 9.719231 22.076849 9.792308 22.018011 9.865385 21.959502 9.938462 21.901324 10.011538 21.843480 10.084615 21.785975 10.157692 21.728810 10.230769 21.671990 10.303846 21.615516 10.376923 21.559394 10.450000 21.503625 10.523077 21.448212 10.596154 21.393160 10.669231 21.338470 10.742308 21.284147 10.815385 21.230193 10.888462 21.176612 10.961538 21.123407 11.034615 21.070580 11.107692 21.018136 11.180769 20.966076 11.253846 20.914405 11.326923 20.863126 11.400000 20.812241 11.473077 20.761754 11.546154 20.711667 11.619231 20.661985 11.692308 20.612711 11.765385 20.563846 11.838462 20.515395 11.911538 20.467362 11.984615 20.419747 12.057692 20.372556 12.130769 20.325792 12.203846 20.279456 12.276923 20.233553 12.350000 20.188086 12.423077 20.143058 12.496154 20.098472 12.569231 20.054330 12.642308 20.010638 12.715385 19.967396 12.788462 19.924610 12.861538 19.882281 12.934615 19.840413 13.007692 19.799009 13.080769 19.758072 13.153846 19.717606 13.226923 19.677613 13.300000 19.638098 13.373077 19.599062 13.446154 19.560509 13.519231 19.522442 13.592308 19.484865 13.665385 19.447780 13.738462 19.411191 13.811538 19.375100 13.884615 19.339512 13.957692 19.304429 14.030769 19.269854 14.103846 19.235791 14.176923 19.202242 14.250000 19.169211 14.323077 19.136701 14.396154 19.104715 14.469231 19.073256 14.542308 19.042328 14.615385 19.011933 14.688462 18.982075 14.761538 18.952757 14.834615 18.923982 14.907692 18.895753 14.980769 18.868074 15.053846 18.840947 15.126923 18.814376 15.200000 18.788363 15.273077 18.762913 15.346154 18.738027 15.419231 18.713710 15.492308 18.689964 15.565385 18.666793 15.638462 18.644200 15.711538 18.622188 15.784615 18.600760 15.857692 18.579919 15.930769 18.559668 16.003846 18.540011 16.076923 18.520951 16.150000 18.502490 16.223077 18.484633 16.296154 18.467381 16.369231 18.450739 16.442308 18.434710 16.515385 18.419296 16.588462 18.404501 16.661538 18.390328 16.734615 18.376780 16.807692 18.363861 16.880769 18.351573 16.953846 18.339919 17.026923 18.328903 17.100000 18.318528 17.173077 18.308797 17.246154 18.299714 17.319231 18.291281 17.392308 18.283501 17.465385 18.276378 17.538462 18.269915 17.611538 18.264115 17.684615 18.258981 17.757692 18.254516 17.830769 18.250724 17.903846 18.247608 17.976923 18.245170 18.050000 18.243414 18.123077 18.242344 18.196154 18.241961 18.269231 18.242270 18.342308 18.243274 18.415385 18.244975 18.488462 18.247378 18.561538 18.250484 18.634615 18.254298 18.707692 18.258821 18.780769 18.264059 18.853846 18.270013 18.926923 18.276687 19.000000 18.284084 19.073077 18.292207 19.146154 18.301060 19.219231 18.310645 19.292308 18.320965 19.365385 18.332024 19.438462 18.343826 19.511538 18.356372 19.584615 18.369667 19.657692 18.383713 19.730769 18.398513 19.803846 18.414072 19.876923 18.430391 19.950000 18.447474 20.023077 18.465325 20.096154 18.483946 20.169231 18.503340 20.242308 18.523511 20.315385 18.544462 20.388462 18.566196 20.461538 18.588716 20.534615 18.612023 20.607692 18.636112 20.680769 18.660976 20.753846 18.686606 20.826923 18.712995 20.900000 18.740136 20.973077 18.768020 21.046154 18.796641 21.119231 18.825991 21.192308 18.856062 21.265385 18.886847 21.338462 18.918338 21.411538 18.950528 21.484615 18.983409 21.557692 19.016973 21.630769 19.051213 21.703846 19.086122 21.776923 19.121691 21.850000 19.157914 21.923077 19.194782 21.996154 19.232289 22.069231 19.270426 22.142308 19.309186 22.215385 19.348562 22.288462 19.388545 22.361538 19.429130 22.434615 19.470306 22.507692 19.512069 22.580769 19.554408 22.653846 19.597318 22.726923 19.640791 22.800000 19.684819 22.873077 19.729394 22.946154 19.774509 23.019231 19.820156 23.092308 19.866329 23.165385 19.913018 23.238462 19.960218 23.311538 20.007919 23.384615 20.056115 23.457692 20.104798 23.530769 20.153960 23.603846 20.203595 23.676923 20.253693 23.750000 20.304249 23.823077 20.355254 23.896154 20.406700 23.969231 20.458581 24.042308 20.510888 24.115385 20.563614 24.188462 20.616752 24.261538 20.670294 24.334615 20.724232 24.407692 20.778558 24.480769 20.833266 24.553846 20.888348 24.626923 20.943796 24.700000 20.999602 24.773077 21.055760 24.846154 21.112260 24.919231 21.169097 24.992308 21.226262 25.065385 21.283748 25.138462 21.341547 25.211538 21.399652 25.284615 21.458055 25.357692 21.516748 25.430769 21.575725 25.503846 21.634976 25.576923 21.694496 25.650000 21.754276 25.723077 21.814309 25.796154 21.874587 25.869231 21.935103 25.942308 21.995849 26.015385 22.056817 26.088462 22.118000 26.161538 22.179391 26.234615 22.240982 26.307692 22.302765 26.380769 22.364733 26.453846 22.426878 26.526923 22.489192 26.600000 22.551669 26.673077 22.614300 26.746154 22.677079 26.819231 22.739996 26.892308 22.803046 26.965385 22.866220 27.038462 22.929510 27.111538 22.992910 27.184615 23.056411 27.257692 23.120007 27.330769 23.183689 27.403846 23.247450 27.476923 23.311282 27.550000 23.375179 27.623077 23.439131 27.696154 23.503132 27.769231 23.567175 27.842308 23.631251 27.915385 23.695353 27.988462 23.759474 28.061538 23.823606 28.134615 23.887741 28.207692 23.951872 28.280769 24.015991 28.353846 24.080091 28.426923 24.144164 28.500000 24.208203 28.573077 24.272199 28.646154 24.336147 28.719231 24.400037 28.792308 24.463863 28.865385 24.527616 28.938462 24.591290 29.011538 24.654876 29.084615 24.718368 29.157692 24.781757 29.230769 24.845037 29.303846 24.908198 29.376923 24.971235 29.450000 25.034139 29.523077 25.096903 29.596154 25.159519 29.669231 25.221980 29.742308 25.284278 29.815385 25.346406 29.888462 25.408356 29.961538 25.470120 30.034615 25.531691 30.107692 25.593062 30.180769 25.654224 30.253846 25.715171 30.326923 25.775894 30.400000 25.836386 30.473077 25.896640 30.546154 25.956648 30.619231 26.016403 30.692308 26.075896 30.765385 26.135121 30.838462 26.194070 30.911538 26.252735 30.984615 26.311108 31.057692 26.369183 31.130769 26.426951 31.203846 26.484405 31.276923 26.541538 31.350000 26.598342 31.423077 26.654809 31.496154 26.710932 31.569231 26.766703 31.642308 26.822114 31.715385 26.877159 31.788462 26.931830 31.861538 26.986118 31.934615 27.040017 32.007692 27.093519 32.080769 27.146616 32.153846 27.199301 32.226923 27.251566 32.300000 27.303403 32.373077 27.354806 32.446154 27.405767 32.519231 27.456277 32.592308 27.506330 32.665385 27.555918 32.738462 27.605033 32.811538 27.653668 32.884615 27.701815 32.957692 27.749467 33.030769 27.796616 33.103846 27.843254 33.176923 27.889374 33.250000 27.934969 33.323077 27.980031 33.396154 28.024552 33.469231 28.068525 33.542308 28.111942 33.615385 28.154795 33.688462 28.197078 33.761538 28.238782 33.834615 28.279901 33.907692 28.320425 33.980769 28.360349 34.053846 28.399664 34.126923 28.438362 34.200000 28.476437 34.273077 28.513881 34.346154 28.550685 34.419231 28.586843 34.492308 28.622347 34.565385 28.657190 34.638462 28.691363 34.711538 28.724860 34.784615 28.757672 34.857692 28.789792 34.930769 28.821214 35.003846 28.851928 35.076923 28.881927 35.150000 28.911205 35.223077 28.939753 35.296154 28.967564 35.369231 28.994630 35.442308 29.020944 35.515385 29.046498 35.588462 29.071285 35.661538 29.095297 35.734615 29.118526 35.807692 29.140966 35.880769 29.162607 35.953846 29.183444 36.026923 29.203468 36.100000 29.222671 36.173077 29.241047 36.246154 29.258587 36.319231 29.275284 36.392308 29.291131 36.465385 29.306120 36.538462 29.320243 36.611538 29.333493 36.684615 29.345862 36.757692 29.357343 36.830769 29.367928 36.903846 29.377610 36.976923 29.386380 37.050000 29.394233 37.123077 29.401159 37.196154 29.407151 37.269231 29.412203 37.342308 29.416305 37.415385 29.419451 37.488462 29.421634 37.561538 29.422845 37.634615 29.423077 37.707692 29.422322 37.780769 29.420574 37.853846 29.417824 37.926923 29.414064 38.000000 29.409288 38.073077 29.403488 38.146154 29.396655 38.219231 29.388784 38.292308 29.379865 38.365385 29.369891 38.438462 29.358856 38.511538 29.346751 38.584615 29.333569 38.657692 29.319302 38.730769 29.303943 38.803846 29.287486 38.876923 29.269935 38.950000 29.251298 39.023077 29.231581 39.096154 29.210789 39.169231 29.188931 39.242308 29.166011 39.315385 29.142037 39.388462 29.117015 39.461538 29.090952 39.534615 29.063853 39.607692 29.035726 39.680769 29.006578 39.753846 28.976414 39.826923 28.945241 39.900000 28.913065 39.973077 28.879894 40.046154 28.845733 40.119231 28.810589 40.192308 28.774469 40.265385 28.737379 40.338462 28.699326 40.411538 28.660315 40.484615 28.620354 40.557692 28.579449 40.630769 28.537607 40.703846 28.494833 40.776923 28.451135 40.850000 28.406519 40.923077 28.360992 40.996154 28.314560 41.069231 28.267229 41.142308 28.219006 41.215385 28.169898 41.288462 28.119910 41.361538 28.069051 41.434615 28.017325 41.507692 27.964740 41.580769 27.911301 41.653846 27.857016 41.726923 27.801891 41.800000 27.745933 41.873077 27.689148 41.946154 27.631542 42.019231 27.573122 42.092308 27.513894 42.165385 27.453866 42.238462 27.393042 42.311538 27.331431 42.384615 27.269039 42.457692 27.205871 42.530769 27.141934 42.603846 27.077236 42.676923 27.011782 42.750000 26.945579 42.823077 26.878633 42.896154 26.810952 42.969231 26.742540 43.042308 26.673406 43.115385 26.603555 43.188462 26.532994 43.261538 26.461729 43.334615 26.389768 43.407692 26.317115 43.480769 26.243779 43.553846 26.169765 43.626923 26.095079 43.700000 26.019730 43.773077 25.943722 43.846154 25.867062 43.919231 25.789758 43.992308 25.711814 44.065385 25.633239 44.138462 25.554038 44.211538 25.474217 44.284615 25.393785 44.357692 25.312745 44.430769 25.231107 44.503846 25.148875 44.576923 25.066056 44.650000 24.982658 44.723077 24.898685 44.796154 24.814146 44.869231 24.729046 44.942308 24.643391 45.015385 24.557189 45.088462 24.470446 45.161538 24.383168 45.234615 24.295362 45.307692 24.207034 45.380769 24.118191 45.453846 24.028839 45.526923 23.938985 45.600000 23.848636 45.673077 23.757797 45.746154 23.666475 45.819231 23.574678 45.892308 23.482410 45.965385 23.389679 46.038462 23.296492 46.111538 23.202854 46.184615 23.108773 46.257692 23.014254 46.330769 22.919304 46.403846 22.823931 46.476923 22.728139 46.550000 22.631936 46.623077 22.535329 46.696154 22.438323 46.769231 22.340926 46.842308 22.243143 46.915385 22.144981 46.988462 22.046447 47.061538 21.947548 47.134615 21.848289 47.207692 21.748677 47.280769 21.648719 47.353846 21.548421 47.426923 21.447790 47.500000 21.346832 47.573077 21.245554 47.646154 21.143962 47.719231 21.042063 47.792308 20.939862 47.865385 20.837368 47.938462 20.734585 48.011538 20.631522 48.084615 20.528183 48.157692 20.424576 48.230769 20.320708 48.303846 20.216584 48.376923 20.112211 48.450000 20.007596 48.523077 19.902745 48.596154 19.797664 48.669231 19.692361 48.742308 19.586841 48.815385 19.481112 48.888462 19.375179 48.961538 19.269049 49.034615 19.162729 49.107692 19.056225 49.180769 18.949543 49.253846 18.842691 49.326923 18.735674 49.400000 18.628499 49.473077 18.521173 49.546154 18.413702 49.619231 18.306093 49.692308 18.198352 49.765385 18.090485 49.838462 17.982499 49.911538 17.874401 49.984615 17.766197 50.057692 17.657894 50.130769 17.549498 50.203846 17.441015 50.276923 17.332452 50.350000 17.223816 50.423077 17.115113 50.496154 17.006349 50.569231 16.897532 50.642308 16.788667 50.715385 16.679761 50.788462 16.570820 50.861538 16.461852 50.934615 16.352862 51.007692 16.243857 51.080769 16.134844 51.153846 16.025829 51.226923 15.916818 51.300000 15.807818 51.373077 15.698836 51.446154 15.589877 51.519231 15.480949 51.592308 15.372059 51.665385 15.263211 51.738462 15.154414 51.811538 15.045673 51.884615 14.936995 51.957692 14.828387 52.030769 14.719854 52.103846 14.611404 52.176923 14.503043 52.250000 14.394778 52.323077 14.286614 52.396154 14.178559 52.469231 14.070619 52.542308 13.962800 52.615385 13.855109 52.688462 13.747553 52.761538 13.640138 52.834615 13.532870 52.907692 13.425756 52.980769 13.318802 53.053846 13.212015 53.126923 13.105402 53.200000 12.998969 53.273077 12.892722 53.346154 12.786668 53.419231 12.680813 53.492308 12.575164 53.565385 12.469728 53.638462 12.364510 53.711538 12.259518 53.784615 12.154758 53.857692 12.050236 53.930769 11.945959 54.003846 11.841933 54.076923 11.738166 54.150000 11.634662 54.223077 11.531430 54.296154 11.428475 54.369231 11.325803 54.442308 11.223423 54.515385 11.121338 54.588462 11.019558 54.661538 10.918087 54.734615 10.816932 54.807692 10.716101 54.880769 10.615598 54.953846 10.515432 55.026923 10.415607 55.100000 10.316132 55.173077 10.217012 55.246154 10.118254 55.319231 10.019864 55.392308 9.921848 55.465385 9.824214 55.538462 9.726968 55.611538 9.630117 55.684615 9.533666 55.757692 9.437622 55.830769 9.341992 55.903846 9.246782 55.976923 9.151999 56.050000 9.057650 56.123077 8.963740 56.196154 8.870276 56.269231 8.777266 56.342308 8.684714 56.415385 8.592628 56.488462 8.501015 56.561538 8.409880 56.634615 8.319230 56.707692 8.229073 56.780769 8.139413 56.853846 8.050258 56.926923 7.961615 57.000000 7.873489 57.073077 7.785886 57.146154 7.698808 57.219231 7.612253 57.292308 7.526224 57.365385 7.440719 57.438462 7.355739 57.511538 7.271283 57.584615 7.187352 57.657692 7.103946 57.730769 7.021066 57.803846 6.938710 57.876923 6.856879 57.950000 6.775574 58.023077 6.694794 58.096154 6.614540 58.169231 6.534811 58.242308 6.455607 58.315385 6.376930 58.388462 6.298778 58.461538 6.221152 58.534615 6.144052 58.607692 6.067478 58.680769 5.991430 58.753846 5.915908 58.826923 5.840913 58.900000 5.766444 58.973077 5.692502 59.046154 5.619086 59.119231 5.546197 59.192308 5.473834 59.265385 5.401999 59.338462 5.330690 59.411538 5.259908 59.484615 5.189654 59.557692 5.119926 59.630769 5.050726 59.703846 4.982054 59.776923 4.913908 59.850000 4.846290 59.923077 4.779200 59.996154 4.712638 60.069231 4.646603 60.142308 4.581096 60.215385 4.516117 60.288462 4.451667 60.361538 4.387744 60.434615 4.324349 60.507692 4.261483 60.580769 4.199146 60.653846 4.137336 60.726923 4.076056 60.800000 4.015304 60.873077 3.955080 60.946154 3.895386 61.019231 3.836220 61.092308 3.777584 61.165385 3.719477 61.238462 3.661898 61.311538 3.604849 61.384615 3.548330 61.457692 3.492340 61.530769 3.436879 61.603846 3.381948 61.676923 3.327547 61.750000 3.273675 61.823077 3.220334 61.896154 3.167522 61.969231 3.115240 62.042308 3.063489 62.115385 3.012268 62.188462 2.961577 62.261538 2.911416 62.334615 2.861786 62.407692 2.812687 62.480769 2.764118 62.553846 2.716080 62.626923 2.668573 62.700000 2.621597 62.773077 2.575151 62.846154 2.529237 62.919231 2.483854 62.992308 2.439003 63.065385 2.394682 63.138462 2.350893 63.211538 2.307636 63.284615 2.264910 63.357692 2.222716 63.430769 2.181054 63.503846 2.139924 63.576923 2.099325 63.650000 2.059259 63.723077 2.019725 63.796154 1.980723 63.869231 1.942253 63.942308 1.904316 64.015385 1.866911 64.088462 1.830039 64.161538 1.793699 64.234615 1.757893 64.307692 1.722619 64.380769 1.687878 64.453846 1.653670 64.526923 1.619995 64.600000 1.586853 64.673077 1.554245 64.746154 1.522170 64.819231 1.490628 64.892308 1.459620 64.965385 1.429146 65.038462 1.399205 65.111538 1.369798 65.184615 1.340925 65.257692 1.312586 65.330769 1.284781 65.403846 1.257510 65.476923 1.230773 65.550000 1.204571 65.623077 1.178903 65.696154 1.153769 65.769231 1.129171 65.842308 1.105106 65.915385 1.081577 65.988462 1.058582 66.061538 1.036123 66.134615 1.014198 66.207692 0.992808 66.280769 0.971954 66.353846 0.951635 66.426923 0.931851 66.500000 0.912603 66.573077 0.893890 66.646154 0.875713 66.719231 0.858072 66.792308 0.840966 66.865385 0.824396 66.938462 0.808363 67.011538 0.792865 67.084615 0.777903 67.157692 0.763478 67.230769 0.749589 67.303846 0.736236 67.376923 0.723420 67.450000 0.711141 67.523077 0.699398 67.596154 0.688192 67.669231 0.677523 67.742308 0.667390 67.815385 0.657795 67.888462 0.648737 67.961538 0.640216 68.034615 0.632232 68.107692 0.624786 68.180769 0.617877 68.253846 0.611506 68.326923 0.605672 68.400000 0.600376 68.473077 0.595618 68.546154 0.591397 68.619231 0.587715 68.692308 0.584571 68.765385 0.581964 68.838462 0.579897 68.911538 0.578367 68.984615 0.577376 69.057692 0.576923 69.130769 0.577009 69.203846 0.577634 69.276923 0.578797 69.350000 0.580499 69.423077 0.582740 69.496154 0.585520 69.569231 0.588839 69.642308 0.592698 69.715385 0.597096 69.788462 0.602033 69.861538 0.607509 69.934615 0.613525 70.007692 0.620081 70.080769 0.627176 70.153846 0.634812 70.226923 0.642987 70.300000 0.651702 70.373077 0.660957 70.446154 0.670752 70.519231 0.681088 70.592308 0.691963 70.665385 0.703380 70.738462 0.715336 70.811538 0.727834 70.884615 0.740872 70.957692 0.754451 71.030769 0.768570 71.103846 0.783231 71.176923 0.798432 71.250000 0.814175 71.323077 0.830459 71.396154 0.847284 71.469231 0.864651 71.542308 0.882559 71.615385 0.901008 71.688462 0.919999 71.761538 0.939532 71.834615 0.959607 71.907692 0.980223 71.980769 1.001382 72.053846 1.023083 72.126923 1.045325 72.200000 1.068110 72.273077 1.091438 72.346154 1.115307 72.419231 1.139720 72.492308 1.164674 72.565385 1.190172 72.638462 1.216212 72.711538 1.242795 72.784615 1.269921 72.857692 1.297590 72.930769 1.325803 73.003846 1.354558 73.076923 1.383857 73.150000 1.413699 73.223077 1.444084 73.296154 1.475013 73.369231 1.506486 73.442308 1.538502 73.515385 1.571062 73.588462 1.604167 73.661538 1.637815 73.734615 1.672007 73.807692 1.706743 73.880769 1.742024 73.953846 1.777848 74.026923 1.814218 74.100000 1.851131 74.173077 1.888590 74.246154 1.926593 74.319231 1.965141 74.392308 2.004233 74.465385 2.043871 74.538462 2.084054 74.611538 2.124781 74.684615 2.166054 74.757692 2.207872 74.830769 2.250236 74.903846 2.293145 74.976923 2.336600 75.050000 2.380600 75.123077 2.425146 75.196154 2.470238 75.269231 2.515875 75.342308 2.562058 75.415385 2.608782 75.488462 2.656042 75.561538 2.703835 75.634615 2.752153 75.707692 2.800994 75.780769 2.850352 75.853846 2.900223 75.926923 2.950601 76.000000 3.001483 76.073077 3.052862 76.146154 3.104735 76.219231 3.157096 76.292308 3.209941 76.365385 3.263265 76.438462 3.317063 76.511538 3.371330 76.584615 3.426062 76.657692 3.481254 76.730769 3.536901 76.803846 3.592998 76.876923 3.649541 76.950000 3.706524 77.023077 3.763943 77.096154 3.821793 77.169231 3.880070 77.242308 3.938768 77.315385 3.997883 77.388462 4.057410 77.461538 4.117343 77.534615 4.177680 77.607692 4.238413 77.680769 4.299540 77.753846 4.361055 77.826923 4.422952 77.900000 4.485229 77.973077 4.547878 78.046154 4.610897 78.119231 4.674280 78.192308 4.738022 78.265385 4.802119 78.338462 4.866565 78.411538 4.931356 78.484615 4.996487 78.557692 5.061954 78.630769 5.127751 78.703846 5.193874 78.776923 5.260318 78.850000 5.327078 78.923077 5.394150 78.996154 5.461528 79.069231 5.529208 79.142308 5.597185 79.215385 5.665455 79.288462 5.734011 79.361538 5.802851 79.434615 5.871968 79.507692 5.941359 79.580769 6.011018 79.653846 6.080940 79.726923 6.151121 79.800000 6.221556 79.873077 6.292240 79.946154 6.363169 80.019231 6.434337 80.092308 6.505740 80.165385 6.577373 80.238462 6.649232 80.311538 6.721310 80.384615 6.793605 80.457692 6.866110 80.530769 6.938821 80.603846 7.011734 80.676923 7.084843 80.750000 7.158144 80.823077 7.231632 80.896154 7.305302 80.969231 7.379149 81.042308 7.453169 81.115385 7.527357 81.188462 7.601708 81.261538 7.676217 81.334615 7.750879 81.407692 7.825690 81.480769 7.900645 81.553846 7.975739 81.626923 8.050967 81.700000 8.126325 81.773077 8.201808 81.846154 8.277410 81.919231 8.353127 81.992308 8.428955 82.065385 8.504889 82.138462 8.580923 82.211538 8.657053 82.284615 8.733274 82.357692 8.809582 82.430769 8.885971 82.503846 8.962437 82.576923 9.038976 82.650000 9.115581 82.723077 9.192249 82.796154 9.268975 82.869231 9.345753 82.942308 9.422580 83.015385 9.499450 83.088462 9.576358 83.161538 9.653301 83.234615 9.730272 83.307692 9.807267 83.380769 9.884282 83.453846 9.961311 83.526923 10.038351 83.600000 10.115395 83.673077 10.192439 83.746154 10.269479 83.819231 10.346510 83.892308 10.423526 83.965385 10.500524 84.038462 10.577498 84.111538 10.654443 84.184615 10.731355 84.257692 10.808229 84.330769 10.885060 84.403846 10.961844 84.476923 11.038575 84.550000 11.115249 84.623077 11.191861 84.696154 11.268406 84.769231 11.344879 84.842308 11.421277 84.915385 11.497593 84.988462 11.573823 85.061538 11.649962 85.134615 11.726006 85.207692 11.801950 85.280769 11.877788 85.353846 11.953517 85.426923 12.029131 85.500000 12.104625 85.573077 12.179995 85.646154 12.255237 85.719231 12.330344 85.792308 12.405313 85.865385 12.480139 85.938462 12.554816 86.011538 12.629340 86.084615 12.703707 86.157692 12.777911 86.230769 12.851948 86.303846 12.925813 86.376923 12.999500 86.450000 13.073007 86.523077 13.146326 86.596154 13.219455 86.669231 13.292387 86.742308 13.365119 86.815385 13.437645 86.888462 13.509960 86.961538 13.582060 87.034615 13.653941 87.107692 13.725596 87.180769 13.797022 87.253846 13.868214 87.326923 13.939167 87.400000 14.009876 87.473077 14.080335 87.546154 14.150542 87.619231 14.220490 87.692308 14.290175 87.765385 14.359593 87.838462 14.428737 87.911538 14.497605 87.984615 14.566190 88.057692 14.634488 88.130769 14.702494 88.203846 14.770204 88.276923 14.837612 88.350000 14.904714 88.423077 14.971506 88.496154 15.037981 88.569231 15.104136 88.642308 15.169966 88.715385 15.235466 88.788462 15.300630 88.861538 15.365456 88.934615 15.429936 89.007692 15.494068 89.080769 15.557845 89.153846 15.621264 89.226923 15.684319 89.300000 15.747005 89.373077 15.809319 89.446154 15.871255 89.519231 15.932807 89.592308 15.993973 89.665385 16.054746 89.738462 16.115121 89.811538 16.175095 89.884615 16.234663 89.957692 16.293819 90.030769 16.352558 90.103846 16.410877 90.176923 16.468769 90.250000 16.526231 90.323077 16.583258 90.396154 16.639845 90.469231 16.695986 90.542308 16.751678 90.615385 16.806915 90.688462 16.861693 90.761538 16.916007 90.834615 16.969852 90.907692 17.023223 90.980769 17.076115 91.053846 17.128525 91.126923 17.180446 91.200000 17.231875 91.273077 17.282805 91.346154 17.333234 91.419231 17.383155 91.492308 17.432564 91.565385 17.481457 91.638462 17.529828 91.711538 17.577672 91.784615 17.624985 91.857692 17.671763 91.930769 17.718000 92.003846 17.763691 92.076923 17.808832 92.150000 17.853418 92.223077 17.897444 92.296154 17.940905 92.369231 17.983797 92.442308 18.026114 92.515385 18.067853 92.588462 18.109008 92.661538 18.149574 92.734615 18.189547 92.807692 18.228921 92.880769 18.267693 92.953846 18.305857 93.026923 18.343408 93.100000 18.380343 93.173077 18.416655 93.246154 18.452340 93.319231 18.487393 93.392308 18.521810 93.465385 18.555586 93.538462 18.588716 93.611538 18.621196 93.684615 18.653028 93.757692 18.684214 93.830769 18.714757 93.903846 18.744660 93.976923 18.773925 94.050000 18.802555 94.123077 18.830552 94.196154 18.857919 94.269231 18.884659 94.342308 18.910774 94.415385 18.936267 94.488462 18.961140 94.561538 18.985396 94.634615 19.009038 94.707692 19.032068 94.780769 19.054489 94.853846 19.076304 94.926923 19.097514 95.000000 19.118123 95.073077 19.138133 95.146154 19.157547 95.219231 19.176368 95.292308 19.194598 95.365385 19.212239 95.438462 19.229294 95.511538 19.245767 95.584615 19.261659 95.657692 19.276972 95.730769 19.291711 95.803846 19.305877 95.876923 19.319473 95.950000 19.332501 96.023077 19.344964 96.096154 19.356865 96.169231 19.368206 96.242308 19.378990 96.315385 19.389220 96.388462 19.398898 96.461538 19.408026 96.534615 19.416608 96.607692 19.424646 96.680769 19.432142 96.753846 19.439099 96.826923 19.445520 96.900000 19.451407 96.973077 19.456764 97.046154 19.461592 97.119231 19.465893 97.192308 19.469672 97.265385 19.472930 97.338462 19.475670 97.411538 19.477895 97.484615 19.479606 97.557692 19.480808 97.630769 19.481501 97.703846 19.481690 97.776923 19.481376 97.850000 19.480563 97.923077 19.479252 97.996154 19.477446 98.069231 19.475149 98.142308 19.472362 98.215385 19.469088 98.288462 19.465330 98.361538 19.461091 98.434615 19.456372 98.507692 19.451177 98.580769 19.445509 98.653846 19.439369 98.726923 19.432760 98.800000 19.425686 98.873077 19.418148 98.946154 19.410149 99.019231 19.401692 99.092308 19.392780 99.165385 19.383414 99.238462 19.373599 99.311538 19.363335 99.384615 19.352626 99.457692 19.341475 99.530769 19.329884 99.603846 19.317855 99.676923 19.305392 99.750000 19.292496 99.823077 19.279171 99.896154 19.265419 99.969231 19.251243 100.042308 19.236645 100.115385 19.221627 100.188462 19.206194 100.261538 19.190346 100.334615 19.174087 100.407692 19.157419 100.480769 19.140346 100.553846 19.122868 100.626923 19.104990 100.700000 19.086713 100.773077 19.068041 100.846154 19.048976 100.919231 19.029520 100.992308 19.009676 101.065385 18.989447 101.138462 18.968835 101.211538 18.947844 101.284615 18.926474 101.357692 18.904730 101.430769 18.882614 101.503846 18.860128 101.576923 18.837275 101.650000 18.814057 101.723077 18.790477 101.796154 18.766539 101.869231 18.742243 101.942308 18.717594 102.015385 18.692593 102.088462 18.667243 102.161538 18.641547 102.234615 18.615508 102.307692 18.589127 102.380769 18.562408 102.453846 18.535353 102.526923 18.507965 102.600000 18.480246 102.673077 18.452200 102.746154 18.423827 102.819231 18.395132 102.892308 18.366117 102.965385 18.336784 103.038462 18.307137 103.111538 18.277176 103.184615 18.246906 103.257692 18.216329 103.330769 18.185448 103.403846 18.154264 103.476923 18.122781 103.550000 18.091001 103.623077 18.058927 103.696154 18.026561 103.769231 17.993906 103.842308 17.960965 103.915385 17.927741 103.988462 17.894235 104.061538 17.860450 104.134615 17.826390 104.207692 17.792056 104.280769 17.757452 104.353846 17.722579 104.426923 17.687441 104.500000 17.652040 104.573077 17.616379 104.646154 17.580459 104.719231 17.544285 104.792308 17.507858 104.865385 17.471182 104.938462 17.434258 105.011538 17.397089 105.084615 17.359678 105.157692 17.322028 105.230769 17.284140 105.303846 17.246019 105.376923 17.207666 105.450000 17.169083 105.523077 17.130274 105.596154 17.091242 105.669231 17.051988 105.742308 17.012515 105.815385 16.972826 105.888462 16.932924 105.961538 16.892811 106.034615 16.852490 106.107692 16.811963 106.180769 16.771233 106.253846 16.730302 106.326923 16.689174 106.400000 16.647850 106.473077 16.606334 106.546154 16.564628 106.619231 16.522734 106.692308 16.480655 106.765385 16.438394 106.838462 16.395954 106.911538 16.353337 106.984615 16.310545 107.057692 16.267581 107.130769 16.224448 107.203846 16.181149 107.276923 16.137685 107.350000 16.094060 107.423077 16.050276 107.496154 16.006336 107.569231 15.962243 107.642308 15.917998 107.715385 15.873605 107.788462 15.829067 107.861538 15.784385 107.934615 15.739562 108.007692 15.694602 108.080769 15.649506 108.153846 15.604278 108.226923 15.558919 108.300000 15.513433 108.373077 15.467821 108.446154 15.422088 108.519231 15.376234 108.592308 15.330264 108.665385 15.284179 108.738462 15.237982 108.811538 15.191675 108.884615 15.145262 108.957692 15.098745 109.030769 15.052126 109.103846 15.005409 109.176923 14.958595 109.250000 14.911687 109.323077 14.864688 109.396154 14.817601 109.469231 14.770428 109.542308 14.723171 109.615385 14.675834 109.688462 14.628419 109.761538 14.580928 109.834615 14.533364 109.907692 14.485730 109.980769 14.438028 110.053846 14.390261 110.126923 14.342432 110.200000 14.294543 110.273077 14.246597 110.346154 14.198595 110.419231 14.150542 110.492308 14.102440 110.565385 14.054290 110.638462 14.006096 110.711538 13.957861 110.784615 13.909587 110.857692 13.861276 110.930769 13.812931 111.003846 13.764555 111.076923 13.716150 111.150000 13.667720 111.223077 13.619266 111.296154 13.570791 111.369231 13.522298 111.442308 13.473789 111.515385 13.425267 111.588462 13.376735 111.661538 13.328195 111.734615 13.279650 111.807692 13.231102" class="line reactive nofill" /></g></g><g class="titles" /><g transform="translate(76, 10)" class="plot overlay"><g class="series serie-0 color-0" /></g><g transform="translate(76, 10)" class="plot text-overlay"><g class="series serie-0 color-0" /></g><g transform="translate(76, 10)" class="plot tooltip-overlay"><g transform="translate(0 0)" style="opacity: 0" class="tooltip"><rect rx="0" ry="0" width="0" height="0" class="tooltip-box" /><g class="text" /></g></g></g></svg>