<?xml version='1.0' encoding='utf-8'?>
<svg xmlns="http://www.w3.org/2000/svg" id="chart-9557d54f-d586-4132-8723-653ff76db2c0" class="pygal-chart pygal-sparkline" viewBox="0 0 200 50" width="200" height="50"><!--Generated with pygal 3.0.5 (etree) ©Kozea 2012-2016 on 2025-04-20--><!--http://pygal.org--><!--http://github.com/Kozea/pygal--><defs><style type="text/css">#chart-9557d54f-d586-4132-8723-653ff76db2c0{-webkit-user-select:none;-webkit-font-smoothing:antialiased;font-family:Consolas,"Liberation Mono",Menlo,Courier,monospace}#chart-9557d54f-d586-4132-8723-653ff76db2c0 .title{font-family:Consolas,"Liberation Mono",Menlo,Courier,monospace;font-size:16px}#chart-9557d54f-d586-4132-8723-653ff76db2c0 .legends .legend text{font-family:Consolas,"Liberation Mono",Menlo,Courier,monospace;font-size:14px}#chart-9557d54f-d586-4132-8723-653ff76db2c0 .axis text{font-family:Consolas,"Liberation Mono",Menlo,Courier,monospace;font-size:10px}#chart-9557d54f-d586-4132-8723-653ff76db2c0 .axis text.major{font-family:Consolas,"Liberation Mono",Menlo,Courier,monospace;font-size:10px}#chart-9557d54f-d586-4132-8723-653ff76db2c0 .text-overlay text.value{font-family:Consolas,"Liberation Mono",Menlo,Courier,monospace;font-size:16px}#chart-9557d54f-d586-4132-8723-653ff76db2c0 .text-overlay text.label{font-family:Consolas,"Liberation Mono",Menlo,Courier,monospace;font-size:10px}#chart-9557d54f-d586-4132-8723-653ff76db2c0 .tooltip{font-family:Consolas,"Liberation Mono",Menlo,Courier,monospace;font-size:14px}#chart-9557d54f-d586-4132-8723-653ff76db2c0 text.no_data{font-family:Consolas,"Liberation Mono",Menlo,Courier,monospace;font-size:64px}
#chart-9557d54f-d586-4132-8723-653ff76db2c0{background-color:rgba(249,249,249,1)}#chart-9557d54f-d586-4132-8723-653ff76db2c0 path,#chart-9557d54f-d586-4132-8723-653ff76db2c0 line,#chart-9557d54f-d586-4132-8723-653ff76db2c0 rect,#chart-9557d54f-d586-4132-8723-653ff76db2c0 circle{-webkit-transition:150ms;-moz-transition:150ms;transition:150ms}#chart-9557d54f-d586-4132-8723-653ff76db2c0 .graph &gt; .background{fill:rgba(249,249,249,1)}#chart-9557d54f-d586-4132-8723-653ff76db2c0 .plot &gt; .background{fill:rgba(255,255,255,1)}#chart-9557d54f-d586-4132-8723-653ff76db2c0 .graph{fill:rgba(0,0,0,.87)}#chart-9557d54f-d586-4132-8723-653ff76db2c0 text.no_data{fill:rgba(0,0,0,1)}#chart-9557d54f-d586-4132-8723-653ff76db2c0 .title{fill:rgba(0,0,0,1)}#chart-9557d54f-d586-4132-8723-653ff76db2c0 .legends .legend text{fill:rgba(0,0,0,.87)}#chart-9557d54f-d586-4132-8723-653ff76db2c0 .legends .legend:hover text{fill:rgba(0,0,0,1)}#chart-9557d54f-d586-4132-8723-653ff76db2c0 .axis .line{stroke:rgba(0,0,0,1)}#chart-9557d54f-d586-4132-8723-653ff76db2c0 .axis .guide.line{stroke:rgba(0,0,0,.54)}#chart-9557d54f-d586-4132-8723-653ff76db2c0 .axis .major.line{stroke:rgba(0,0,0,.87)}#chart-9557d54f-d586-4132-8723-653ff76db2c0 .axis text.major{fill:rgba(0,0,0,1)}#chart-9557d54f-d586-4132-8723-653ff76db2c0 .axis.y .guides:hover .guide.line,#chart-9557d54f-d586-4132-8723-653ff76db2c0 .line-graph .axis.x .guides:hover .guide.line,#chart-9557d54f-d586-4132-8723-653ff76db2c0 .stackedline-graph .axis.x .guides:hover .guide.line,#chart-9557d54f-d586-4132-8723-653ff76db2c0 .xy-graph .axis.x .guides:hover .guide.line{stroke:rgba(0,0,0,1)}#chart-9557d54f-d586-4132-8723-653ff76db2c0 .axis .guides:hover text{fill:rgba(0,0,0,1)}#chart-9557d54f-d586-4132-8723-653ff76db2c0 .reactive{fill-opacity:.7;stroke-opacity:.8;stroke-width:1}#chart-9557d54f-d586-4132-8723-653ff76db2c0 .ci{stroke:rgba(0,0,0,.87)}#chart-9557d54f-d586-4132-8723-653ff76db2c0 .reactive.active,#chart-9557d54f-d586-4132-8723-653ff76db2c0 .active .reactive{fill-opacity:.8;stroke-opacity:.9;stroke-width:4}#chart-9557d54f-d586-4132-8723-653ff76db2c0 .ci .reactive.active{stroke-width:1.5}#chart-9557d54f-d586-4132-8723-653ff76db2c0 .series text{fill:rgba(0,0,0,1)}#chart-9557d54f-d586-4132-8723-653ff76db2c0 .tooltip rect{fill:rgba(255,255,255,1);stroke:rgba(0,0,0,1);-webkit-transition:opacity 150ms;-moz-transition:opacity 150ms;transition:opacity 150ms}#chart-9557d54f-d586-4132-8723-653ff76db2c0 .tooltip .label{fill:rgba(0,0,0,.87)}#chart-9557d54f-d586-4132-8723-653ff76db2c0 .tooltip .label{fill:rgba(0,0,0,.87)}#chart-9557d54f-d586-4132-8723-653ff76db2c0 .tooltip .legend{font-size:.8em;fill:rgba(0,0,0,.54)}#chart-9557d54f-d586-4132-8723-653ff76db2c0 .tooltip .x_label{font-size:.6em;fill:rgba(0,0,0,1)}#chart-9557d54f-d586-4132-8723-653ff76db2c0 .tooltip .xlink{font-size:.5em;text-decoration:underline}#chart-9557d54f-d586-4132-8723-653ff76db2c0 .tooltip .value{font-size:1.5em}#chart-9557d54f-d586-4132-8723-653ff76db2c0 .bound{font-size:.5em}#chart-9557d54f-d586-4132-8723-653ff76db2c0 .max-value{font-size:.75em;fill:rgba(0,0,0,.54)}#chart-9557d54f-d586-4132-8723-653ff76db2c0 .map-element{fill:rgba(255,255,255,1);stroke:rgba(0,0,0,.54) !important}#chart-9557d54f-d586-4132-8723-653ff76db2c0 .map-element .reactive{fill-opacity:inherit;stroke-opacity:inherit}#chart-9557d54f-d586-4132-8723-653ff76db2c0 .color-0,#chart-9557d54f-d586-4132-8723-653ff76db2c0 .color-0 a:visited{stroke:#F44336;fill:#F44336}#chart-9557d54f-d586-4132-8723-653ff76db2c0 .text-overlay .color-0 text{fill:black}
#chart-9557d54f-d586-4132-8723-653ff76db2c0 text.no_data{text-anchor:middle}#chart-9557d54f-d586-4132-8723-653ff76db2c0 .guide.line{fill:none}#chart-9557d54f-d586-4132-8723-653ff76db2c0 .centered{text-anchor:middle}#chart-9557d54f-d586-4132-8723-653ff76db2c0 .title{text-anchor:middle}#chart-9557d54f-d586-4132-8723-653ff76db2c0 .legends .legend text{fill-opacity:1}#chart-9557d54f-d586-4132-8723-653ff76db2c0 .axis.x text{text-anchor:middle}#chart-9557d54f-d586-4132-8723-653ff76db2c0 .axis.x:not(.web) text[transform]{text-anchor:start}#chart-9557d54f-d586-4132-8723-653ff76db2c0 .axis.x:not(.web) text[transform].backwards{text-anchor:end}#chart-9557d54f-d586-4132-8723-653ff76db2c0 .axis.y text{text-anchor:end}#chart-9557d54f-d586-4132-8723-653ff76db2c0 .axis.y text[transform].backwards{text-anchor:start}#chart-9557d54f-d586-4132-8723-653ff76db2c0 .axis.y2 text{text-anchor:start}#chart-9557d54f-d586-4132-8723-653ff76db2c0 .axis.y2 text[transform].backwards{text-anchor:end}#chart-9557d54f-d586-4132-8723-653ff76db2c0 .axis .guide.line{stroke-dasharray:4,4;stroke:black}#chart-9557d54f-d586-4132-8723-653ff76db2c0 .axis .major.guide.line{stroke-dasharray:6,6;stroke:black}#chart-9557d54f-d586-4132-8723-653ff76db2c0 .horizontal .axis.y .guide.line,#chart-9557d54f-d586-4132-8723-653ff76db2c0 .horizontal .axis.y2 .guide.line,#chart-9557d54f-d586-4132-8723-653ff76db2c0 .vertical .axis.x .guide.line{opacity:0}#chart-9557d54f-d586-4132-8723-653ff76db2c0 .horizontal .axis.always_show .guide.line,#chart-9557d54f-d586-4132-8723-653ff76db2c0 .vertical .axis.always_show .guide.line{opacity:1 !important}#chart-9557d54f-d586-4132-8723-653ff76db2c0 .axis.y .guides:hover .guide.line,#chart-9557d54f-d586-4132-8723-653ff76db2c0 .axis.y2 .guides:hover .guide.line,#chart-9557d54f-d586-4132-8723-653ff76db2c0 .axis.x .guides:hover .guide.line{opacity:1}#chart-9557d54f-d586-4132-8723-653ff76db2c0 .axis .guides:hover text{opacity:1}#chart-9557d54f-d586-4132-8723-653ff76db2c0 .nofill{fill:none}#chart-9557d54f-d586-4132-8723-653ff76db2c0 .subtle-fill{fill-opacity:.2}#chart-9557d54f-d586-4132-8723-653ff76db2c0 .dot{stroke-width:1px;fill-opacity:1;stroke-opacity:1}#chart-9557d54f-d586-4132-8723-653ff76db2c0 .dot.active{stroke-width:5px}#chart-9557d54f-d586-4132-8723-653ff76db2c0 .dot.negative{fill:transparent}#chart-9557d54f-d586-4132-8723-653ff76db2c0 text,#chart-9557d54f-d586-4132-8723-653ff76db2c0 tspan{stroke:none !important}#chart-9557d54f-d586-4132-8723-653ff76db2c0 .series text.active{opacity:1}#chart-9557d54f-d586-4132-8723-653ff76db2c0 .tooltip rect{fill-opacity:.95;stroke-width:.5}#chart-9557d54f-d586-4132-8723-653ff76db2c0 .tooltip text{fill-opacity:1}#chart-9557d54f-d586-4132-8723-653ff76db2c0 .showable{visibility:hidden}#chart-9557d54f-d586-4132-8723-653ff76db2c0 .showable.shown{visibility:visible}#chart-9557d54f-d586-4132-8723-653ff76db2c0 .gauge-background{fill:rgba(229,229,229,1);stroke:none}#chart-9557d54f-d586-4132-8723-653ff76db2c0 .bg-lines{stroke:rgba(249,249,249,1);stroke-width:2px}</style><script type="text/javascript">window.pygal = window.pygal || {};window.pygal.config = window.pygal.config || {};window.pygal.config['9557d54f-d586-4132-8723-653ff76db2c0'] = {"allow_interruptions": false, "box_mode": "extremes", "classes": ["pygal-chart", "pygal-sparkline"], "css": ["file://style.css", "file://graph.css"], "defs": [], "disable_xml_declaration": false, "dots_size": 2.5, "dynamic_print_values": false, "explicit_size": true, "fill": false, "force_uri_protocol": "https", "formatter": null, "half_pie": false, "height": 50, "include_x_axis": false, "inner_radius": 0, "interpolate": "cubic", "interpolation_parameters": {}, "interpolation_precision": 250, "inverse_y_axis": false, "js": [], "legend_at_bottom": false, "legend_at_bottom_columns": null, "legend_box_size": 12, "logarithmic": false, "margin": 10, "margin_bottom": null, "margin_left": null, "margin_right": null, "margin_top": null, "max_scale": 2, "min_scale": 1, "missing_value_fill_truncation": "x", "no_data_text": "", "no_prefix": false, "order_min": null, "pretty_print": false, "print_labels": false, "print_values": false, "print_values_position": "center", "print_zeroes": true, "range": null, "rounded_bars": null, "secondary_range": null, "show_dots": false, "show_legend": false, "show_minor_x_labels": true, "show_minor_y_labels": true, "show_only_major_dots": false, "show_x_guides": false, "show_x_labels": false, "show_y_guides": true, "show_y_labels": true, "spacing": 0, "stack_from_top": false, "strict": false, "stroke": true, "stroke_style": null, "style": {"background": "rgba(249, 249, 249, 1)", "ci_colors": [], "colors": ["#F44336", "#3F51B5", "#009688", "#FFC107", "#FF5722", "#9C27B0", "#03A9F4", "#8BC34A", "#FF9800", "#E91E63", "#2196F3", "#4CAF50", "#FFEB3B", "#673AB7", "#00BCD4", "#CDDC39", "#9E9E9E", "#607D8B"], "dot_opacity": "1", "font_family": "Consolas, \"Liberation Mono\", Menlo, Courier, monospace", "foreground": "rgba(0, 0, 0, .87)", "foreground_strong": "rgba(0, 0, 0, 1)", "foreground_subtle": "rgba(0, 0, 0, .54)", "guide_stroke_color": "black", "guide_stroke_dasharray": "4,4", "label_font_family": "Consolas, \"Liberation Mono\", Menlo, Courier, monospace", "label_font_size": 10, "legend_font_family": "Consolas, \"Liberation Mono\", Menlo, Courier, monospace", "legend_font_size": 14, "major_guide_stroke_color": "black", "major_guide_stroke_dasharray": "6,6", "major_label_font_family": "Consolas, \"Liberation Mono\", Menlo, Courier, monospace", "major_label_font_size": 10, "no_data_font_family": "Consolas, \"Liberation Mono\", Menlo, Courier, monospace", "no_data_font_size": 64, "opacity": ".7", "opacity_hover": ".8", "plot_background": "rgba(255, 255, 255, 1)", "stroke_opacity": ".8", "stroke_opacity_hover": ".9", "stroke_width": "1", "stroke_width_hover": "4", "title_font_family": "Consolas, \"Liberation Mono\", Menlo, Courier, monospace", "title_font_size": 16, "tooltip_font_family": "Consolas, \"Liberation Mono\", Menlo, Courier, monospace", "tooltip_font_size": 14, "transition": "150ms", "value_background": "rgba(229, 229, 229, 1)", "value_colors": [], "value_font_family": "Consolas, \"Liberation Mono\", Menlo, Courier, monospace", "value_font_size": 16, "value_label_font_family": "Consolas, \"Liberation Mono\", Menlo, Courier, monospace", "value_label_font_size": 10}, "title": null, "tooltip_border_radius": 0, "tooltip_fancy_mode": true, "truncate_label": null, "truncate_legend": null, "width": 200, "x_label_rotation": 0, "x_labels": ["2025/4", "2025/3", "2025/2", "2025/1"], "x_labels_major": null, "x_labels_major_count": null, "x_labels_major_every": null, "x_title": null, "xrange": null, "y_label_rotation": 0, "y_labels": null, "y_labels_major": null, "y_labels_major_count": null, "y_labels_major_every": null, "y_title": null, "zero": 0, "legends": [""]}</script></defs><title>Pygal</title><g class="graph line-graph vertical"><rect x="0" y="0" width="200" height="50" class="background" /><g transform="translate(22, 10)" class="plot"><rect x="0" y="0" width="168.0" height="30" class="background" /><g class="axis y always_show"><path d="M0.000000 30.000000 h168.000000" class="line" /><g class="guides"><path d="M0.000000 17.898707 h168.000000" class="guide line" /><text x="-5" y="21.398706669129005" class="">8</text><title>8</title></g><g class="guides"><path d="M0.000000 2.532880 h168.000000" class="guide line" /><text x="-5" y="6.032879663865113" class="">16</text><title>16</title></g></g><g class="series serie-0 color-0"><path d="M3.230769 29.423077 L3.446154 29.418467 3.661538 29.413854 3.876923 29.409236 4.092308 29.404611 4.307692 29.399976 4.523077 29.395328 4.738462 29.390665 4.953846 29.385985 5.169231 29.381285 5.384615 29.376561 5.600000 29.371813 5.815385 29.367038 6.030769 29.362232 6.246154 29.357394 6.461538 29.352520 6.676923 29.347609 6.892308 29.342658 7.107692 29.337664 7.323077 29.332625 7.538462 29.327538 7.753846 29.322402 7.969231 29.317212 8.184615 29.311968 8.400000 29.306665 8.615385 29.301303 8.830769 29.295878 9.046154 29.290387 9.261538 29.284829 9.476923 29.279201 9.692308 29.273500 9.907692 29.267724 10.123077 29.261870 10.338462 29.255935 10.553846 29.249918 10.769231 29.243816 10.984615 29.237626 11.200000 29.231346 11.415385 29.224973 11.630769 29.218504 11.846154 29.211938 12.061538 29.205272 12.276923 29.198502 12.492308 29.191628 12.707692 29.184645 12.923077 29.177553 13.138462 29.170347 13.353846 29.163026 13.569231 29.155587 13.784615 29.148028 14.000000 29.140346 14.215385 29.132538 14.430769 29.124603 14.646154 29.116537 14.861538 29.108338 15.076923 29.100004 15.292308 29.091532 15.507692 29.082920 15.723077 29.074164 15.938462 29.065264 16.153846 29.056215 16.369231 29.047015 16.584615 29.037663 16.800000 29.028156 17.015385 29.018490 17.230769 29.008664 17.446154 28.998674 17.661538 28.988520 17.876923 28.978197 18.092308 28.967704 18.307692 28.957038 18.523077 28.946196 18.738462 28.935176 18.953846 28.923975 19.169231 28.912592 19.384615 28.901023 19.600000 28.889266 19.815385 28.877318 20.030769 28.865177 20.246154 28.852841 20.461538 28.840306 20.676923 28.827571 20.892308 28.814633 21.107692 28.801489 21.323077 28.788137 21.538462 28.774574 21.753846 28.760799 21.969231 28.746807 22.184615 28.732598 22.400000 28.718167 22.615385 28.703514 22.830769 28.688634 23.046154 28.673527 23.261538 28.658189 23.476923 28.642618 23.692308 28.626811 23.907692 28.610765 24.123077 28.594479 24.338462 28.577950 24.553846 28.561175 24.769231 28.544152 24.984615 28.526878 25.200000 28.509350 25.415385 28.491567 25.630769 28.473526 25.846154 28.455223 26.061538 28.436658 26.276923 28.417827 26.492308 28.398727 26.707692 28.379356 26.923077 28.359713 27.138462 28.339793 27.353846 28.319595 27.569231 28.299116 27.784615 28.278354 28.000000 28.257305 28.215385 28.235969 28.430769 28.214341 28.646154 28.192421 28.861538 28.170204 29.076923 28.147689 29.292308 28.124873 29.507692 28.101753 29.723077 28.078328 29.938462 28.054594 30.153846 28.030549 30.369231 28.006191 30.584615 27.981516 30.800000 27.956523 31.015385 27.931210 31.230769 27.905572 31.446154 27.879609 31.661538 27.853317 31.876923 27.826695 32.092308 27.799738 32.307692 27.772446 32.523077 27.744815 32.738462 27.716843 32.953846 27.688528 33.169231 27.659866 33.384615 27.630856 33.600000 27.601495 33.815385 27.571780 34.030769 27.541709 34.246154 27.511280 34.461538 27.480489 34.676923 27.449335 34.892308 27.417815 35.107692 27.385926 35.323077 27.353666 35.538462 27.321032 35.753846 27.288022 35.969231 27.254633 36.184615 27.220864 36.400000 27.186710 36.615385 27.152171 36.830769 27.117242 37.046154 27.081923 37.261538 27.046210 37.476923 27.010100 37.692308 26.973592 37.907692 26.936683 38.123077 26.899370 38.338462 26.861650 38.553846 26.823522 38.769231 26.784983 38.984615 26.746029 39.200000 26.706660 39.415385 26.666872 39.630769 26.626662 39.846154 26.586029 40.061538 26.544969 40.276923 26.503481 40.492308 26.461561 40.707692 26.419208 40.923077 26.376418 41.138462 26.333189 41.353846 26.289519 41.569231 26.245405 41.784615 26.200844 42.000000 26.155835 42.215385 26.110374 42.430769 26.064460 42.646154 26.018089 42.861538 25.971259 43.076923 25.923968 43.292308 25.876213 43.507692 25.827991 43.723077 25.779300 43.938462 25.730138 44.153846 25.680502 44.369231 25.630390 44.584615 25.579798 44.800000 25.528726 45.015385 25.477169 45.230769 25.425125 45.446154 25.372593 45.661538 25.319569 45.876923 25.266051 46.092308 25.212037 46.307692 25.157523 46.523077 25.102508 46.738462 25.046989 46.953846 24.990964 47.169231 24.934429 47.384615 24.877383 47.600000 24.819822 47.815385 24.761746 48.030769 24.703150 48.246154 24.644032 48.461538 24.584390 48.676923 24.524222 48.892308 24.463525 49.107692 24.402295 49.323077 24.340532 49.538462 24.278232 49.753846 24.215393 49.969231 24.152013 50.184615 24.088088 50.400000 24.023616 50.615385 23.958595 50.830769 23.893023 51.046154 23.826896 51.261538 23.760213 51.476923 23.692971 51.692308 23.625166 51.907692 23.556798 52.123077 23.487862 52.338462 23.418358 52.553846 23.348282 52.769231 23.277631 52.984615 23.206404 53.200000 23.134597 53.415385 23.062209 53.630769 22.989236 53.846154 22.915677 54.061538 22.841528 54.276923 22.766787 54.492308 22.691453 54.707692 22.615521 54.923077 22.538990 55.138462 22.461857 55.353846 22.384120 55.569231 22.305775 55.784615 22.226822 56.000000 22.147256 56.215385 22.067077 56.430769 21.986280 56.646154 21.904864 56.861538 21.822826 57.076923 21.740163 57.292308 21.656876 57.507692 21.572968 57.723077 21.488449 57.938462 21.403325 58.153846 21.317603 58.369231 21.231291 58.584615 21.144397 58.800000 21.056927 59.015385 20.968890 59.230769 20.880292 59.446154 20.791140 59.661538 20.701443 59.876923 20.611208 60.092308 20.520441 60.307692 20.429151 60.523077 20.337345 60.738462 20.245029 60.953846 20.152212 61.169231 20.058901 61.384615 19.965103 61.600000 19.870826 61.815385 19.776076 62.030769 19.680862 62.246154 19.585191 62.461538 19.489070 62.676923 19.392506 62.892308 19.295507 63.107692 19.198080 63.323077 19.100233 63.538462 19.001973 63.753846 18.903307 63.969231 18.804243 64.184615 18.704788 64.400000 18.604950 64.615385 18.504735 64.830769 18.404151 65.046154 18.303207 65.261538 18.201908 65.476923 18.100262 65.692308 17.998277 65.907692 17.895960 66.123077 17.793319 66.338462 17.690361 66.553846 17.587093 66.769231 17.483522 66.984615 17.379656 67.200000 17.275503 67.415385 17.171070 67.630769 17.066363 67.846154 16.961391 68.061538 16.856161 68.276923 16.750680 68.492308 16.644956 68.707692 16.538996 68.923077 16.432807 69.138462 16.326397 69.353846 16.219772 69.569231 16.112942 69.784615 16.005912 70.000000 15.898691 70.215385 15.791285 70.430769 15.683702 70.646154 15.575949 70.861538 15.468034 71.076923 15.359965 71.292308 15.251748 71.507692 15.143390 71.723077 15.034900 71.938462 14.926285 72.153846 14.817551 72.369231 14.708707 72.584615 14.599759 72.800000 14.490716 73.015385 14.381584 73.230769 14.272371 73.446154 14.163085 73.661538 14.053732 73.876923 13.944320 74.092308 13.834856 74.307692 13.725348 74.523077 13.615803 74.738462 13.506229 74.953846 13.396632 75.169231 13.287021 75.384615 13.177403 75.600000 13.067784 75.815385 12.958173 76.030769 12.848576 76.246154 12.739002 76.461538 12.629457 76.676923 12.519949 76.892308 12.410486 77.107692 12.301074 77.323077 12.191721 77.538462 12.082434 77.753846 11.973221 77.969231 11.864089 78.184615 11.755046 78.400000 11.646098 78.615385 11.537254 78.830769 11.428521 79.046154 11.319905 79.261538 11.211415 79.476923 11.103058 79.692308 10.994841 79.907692 10.886771 80.123077 10.778856 80.338462 10.671104 80.553846 10.563521 80.769231 10.456115 80.984615 10.348893 81.200000 10.241863 81.415385 10.135033 81.630769 10.028409 81.846154 9.921999 82.061538 9.815810 82.276923 9.709849 82.492308 9.604125 82.707692 9.498644 82.923077 9.393414 83.138462 9.288442 83.353846 9.183736 83.569231 9.079302 83.784615 8.975149 84.000000 8.871283 84.215385 8.767713 84.430769 8.664445 84.646154 8.561486 84.861538 8.458845 85.076923 8.356528 85.292308 8.254543 85.507692 8.152898 85.723077 8.051599 85.938462 7.950654 86.153846 7.850070 86.369231 7.749856 86.584615 7.650017 86.800000 7.550562 87.015385 7.451498 87.230769 7.352832 87.446154 7.254572 87.661538 7.156725 87.876923 7.059298 88.092308 6.962299 88.307692 6.865736 88.523077 6.769614 88.738462 6.673943 88.953846 6.578729 89.169231 6.483980 89.384615 6.389702 89.600000 6.295904 89.815385 6.202593 90.030769 6.109776 90.246154 6.017461 90.461538 5.925654 90.676923 5.834364 90.892308 5.743597 91.107692 5.653362 91.323077 5.563665 91.538462 5.474514 91.753846 5.385915 91.969231 5.297878 92.184615 5.210408 92.400000 5.123514 92.615385 5.037202 92.830769 4.951481 93.046154 4.866356 93.261538 4.781837 93.476923 4.697930 93.692308 4.614642 93.907692 4.531981 94.123077 4.449955 94.338462 4.368570 94.553846 4.287834 94.769231 4.207755 94.984615 4.128339 95.200000 4.049595 95.415385 3.971529 95.630769 3.894149 95.846154 3.817463 96.061538 3.741477 96.276923 3.666199 96.492308 3.591637 96.707692 3.517797 96.923077 3.444688 97.138462 3.372316 97.353846 3.300689 97.569231 3.229815 97.784615 3.159700 98.000000 3.090352 98.215385 3.021778 98.430769 2.953987 98.646154 2.886985 98.861538 2.820779 99.076923 2.755377 99.292308 2.690786 99.507692 2.627014 99.723077 2.564069 99.938462 2.501956 100.153846 2.440685 100.369231 2.380261 100.584615 2.320694 100.800000 2.261989 101.015385 2.204154 101.230769 2.147197 101.446154 2.091126 101.661538 2.035946 101.876923 1.981667 102.092308 1.928295 102.307692 1.875837 102.523077 1.824301 102.738462 1.773695 102.953846 1.724025 103.169231 1.675299 103.384615 1.627525 103.600000 1.580710 103.815385 1.534861 104.030769 1.489985 104.246154 1.446090 104.461538 1.403184 104.676923 1.361273 104.892308 1.320366 105.107692 1.280469 105.323077 1.241590 105.538462 1.203736 105.753846 1.166914 105.969231 1.131133 106.184615 1.096399 106.400000 1.062719 106.615385 1.030102 106.830769 0.998554 107.046154 0.968083 107.261538 0.938696 107.476923 0.910401 107.692308 0.883204 107.907692 0.857115 108.123077 0.832138 108.338462 0.808283 108.553846 0.785556 108.769231 0.763966 108.984615 0.743518 109.200000 0.724221 109.415385 0.706082 109.630769 0.689108 109.846154 0.673307 110.061538 0.658686 110.276923 0.645253 110.492308 0.633014 110.707692 0.621978 110.923077 0.612151 111.138462 0.603539 111.353846 0.596140 111.569231 0.589947 111.784615 0.584957 112.000000 0.581165 112.215385 0.578565 112.430769 0.577152 112.646154 0.576923 112.861538 0.577872 113.076923 0.579994 113.292308 0.583284 113.507692 0.587737 113.723077 0.593350 113.938462 0.600115 114.153846 0.608030 114.369231 0.617089 114.584615 0.627287 114.800000 0.638618 115.015385 0.651080 115.230769 0.664666 115.446154 0.679371 115.661538 0.695191 115.876923 0.712121 116.092308 0.730156 116.307692 0.749291 116.523077 0.769522 116.738462 0.790843 116.953846 0.813249 117.169231 0.836736 117.384615 0.861299 117.600000 0.886933 117.815385 0.913633 118.030769 0.941394 118.246154 0.970211 118.461538 1.000080 118.676923 1.030996 118.892308 1.062953 119.107692 1.095947 119.323077 1.129973 119.538462 1.165026 119.753846 1.201101 119.969231 1.238194 120.184615 1.276300 120.400000 1.315413 120.615385 1.355528 120.830769 1.396642 121.046154 1.438749 121.261538 1.481844 121.476923 1.525922 121.692308 1.570979 121.907692 1.617009 122.123077 1.664008 122.338462 1.711971 122.553846 1.760893 122.769231 1.810769 122.984615 1.861594 123.200000 1.913363 123.415385 1.966073 123.630769 2.019716 123.846154 2.074290 124.061538 2.129788 124.276923 2.186206 124.492308 2.243540 124.707692 2.301784 124.923077 2.360933 125.138462 2.420983 125.353846 2.481928 125.569231 2.543765 125.784615 2.606487 126.000000 2.670090 126.215385 2.734570 126.430769 2.799921 126.646154 2.866138 126.861538 2.933217 127.076923 3.001153 127.292308 3.069941 127.507692 3.139576 127.723077 3.210052 127.938462 3.281367 128.153846 3.353513 128.369231 3.426487 128.584615 3.500284 128.800000 3.574899 129.015385 3.650326 129.230769 3.726562 129.446154 3.803600 129.661538 3.881438 129.876923 3.960068 130.092308 4.039487 130.307692 4.119690 130.523077 4.200672 130.738462 4.282428 130.953846 4.364953 131.169231 4.448242 131.384615 4.532290 131.600000 4.617093 131.815385 4.702646 132.030769 4.788944 132.246154 4.875981 132.461538 4.963753 132.676923 5.052256 132.892308 5.141484 133.107692 5.231433 133.323077 5.322097 133.538462 5.413471 133.753846 5.505552 133.969231 5.598333 134.184615 5.691811 134.400000 5.785980 134.615385 5.880835 134.830769 5.976372 135.046154 6.072585 135.261538 6.169471 135.476923 6.267023 135.692308 6.365237 135.907692 6.464108 136.123077 6.563632 136.338462 6.663803 136.553846 6.764616 136.769231 6.866067 136.984615 6.968152 137.200000 7.070864 137.415385 7.174199 137.630769 7.278152 137.846154 7.382719 138.061538 7.487894 138.276923 7.593673 138.492308 7.700050 138.707692 7.807022 138.923077 7.914582 139.138462 8.022727 139.353846 8.131451 139.569231 8.240749 139.784615 8.350617 140.000000 8.461050 140.215385 8.572042 140.430769 8.683589 140.646154 8.795686 140.861538 8.908329 141.076923 9.021512 141.292308 9.135230 141.507692 9.249479 141.723077 9.364254 141.938462 9.479549 142.153846 9.595361 142.369231 9.711684 142.584615 9.828513 142.800000 9.945843 143.015385 10.063670 143.230769 10.181988 143.446154 10.300794 143.661538 10.420081 143.876923 10.539845 144.092308 10.660082 144.307692 10.780785 144.523077 10.901952 144.738462 11.023575 144.953846 11.145652 145.169231 11.268176 145.384615 11.391144 145.600000 11.514549 145.815385 11.638388 146.030769 11.762655 146.246154 11.887346 146.461538 12.012455 146.676923 12.137978 146.892308 12.263910 147.107692 12.390246 147.323077 12.516981 147.538462 12.644110 147.753846 12.771629 147.969231 12.899532 148.184615 13.027815 148.400000 13.156473 148.615385 13.285501 148.830769 13.414894 149.046154 13.544647 149.261538 13.674756 149.476923 13.805215 149.692308 13.936020 149.907692 14.067165 150.123077 14.198646 150.338462 14.330459 150.553846 14.462597 150.769231 14.595057 150.984615 14.727833 151.200000 14.860921 151.415385 14.994315 151.630769 15.128011 151.846154 15.262005 152.061538 15.396290 152.276923 15.530862 152.492308 15.665717 152.707692 15.800849 152.923077 15.936254 153.138462 16.071926 153.353846 16.207862 153.569231 16.344055 153.784615 16.480502 154.000000 16.617197 154.215385 16.754135 154.430769 16.891312 154.646154 17.028722 154.861538 17.166361 155.076923 17.304224 155.292308 17.442306 155.507692 17.580603 155.723077 17.719109 155.938462 17.857819 156.153846 17.996728 156.369231 18.135833 156.584615 18.275127 156.800000 18.414606 157.015385 18.554266 157.230769 18.694100 157.446154 18.834105 157.661538 18.974276 157.876923 19.114607 158.092308 19.255094 158.307692 19.395732 158.523077 19.536515 158.738462 19.677440 158.953846 19.818502 159.169231 19.959695 159.384615 20.101014 159.600000 20.242455 159.815385 20.384013 160.030769 20.525682 160.246154 20.667459 160.461538 20.809338 160.676923 20.951315 160.892308 21.093384 161.107692 21.235541 161.323077 21.377780 161.538462 21.520097 161.753846 21.662487 161.969231 21.804946 162.184615 21.947467 162.400000 22.090048 162.615385 22.232681 162.830769 22.375364 163.046154 22.518090 163.261538 22.660855 163.476923 22.803654 163.692308 22.946482 163.907692 23.089335 164.123077 23.232207 164.338462 23.375094 164.553846 23.517990 164.769231 23.660892" class="line reactive nofill" /></g></g><g class="titles" /><g transform="translate(22, 10)" class="plot overlay"><g class="series serie-0 color-0" /></g><g transform="translate(22, 10)" class="plot text-overlay"><g class="series serie-0 color-0" /></g><g transform="translate(22, 10)" class="plot tooltip-overlay"><g transform="translate(0 0)" style="opacity: 0" class="tooltip"><rect rx="0" ry="0" width="0" height="0" class="tooltip-box" /><g class="text" /></g></g></g></svg>