<?xml version='1.0' encoding='utf-8'?>
<svg xmlns="http://www.w3.org/2000/svg" id="chart-c40d9884-b1cd-4247-b73a-e9902eb96f0e" class="pygal-chart pygal-sparkline" viewBox="0 0 200 50" width="200" height="50"><!--Generated with pygal 3.0.5 (etree) ©Kozea 2012-2016 on 2025-06-15--><!--http://pygal.org--><!--http://github.com/Kozea/pygal--><defs><style type="text/css">#chart-c40d9884-b1cd-4247-b73a-e9902eb96f0e{-webkit-user-select:none;-webkit-font-smoothing:antialiased;font-family:Consolas,"Liberation Mono",Menlo,Courier,monospace}#chart-c40d9884-b1cd-4247-b73a-e9902eb96f0e .title{font-family:Consolas,"Liberation Mono",Menlo,Courier,monospace;font-size:16px}#chart-c40d9884-b1cd-4247-b73a-e9902eb96f0e .legends .legend text{font-family:Consolas,"Liberation Mono",Menlo,Courier,monospace;font-size:14px}#chart-c40d9884-b1cd-4247-b73a-e9902eb96f0e .axis text{font-family:Consolas,"Liberation Mono",Menlo,Courier,monospace;font-size:10px}#chart-c40d9884-b1cd-4247-b73a-e9902eb96f0e .axis text.major{font-family:Consolas,"Liberation Mono",Menlo,Courier,monospace;font-size:10px}#chart-c40d9884-b1cd-4247-b73a-e9902eb96f0e .text-overlay text.value{font-family:Consolas,"Liberation Mono",Menlo,Courier,monospace;font-size:16px}#chart-c40d9884-b1cd-4247-b73a-e9902eb96f0e .text-overlay text.label{font-family:Consolas,"Liberation Mono",Menlo,Courier,monospace;font-size:10px}#chart-c40d9884-b1cd-4247-b73a-e9902eb96f0e .tooltip{font-family:Consolas,"Liberation Mono",Menlo,Courier,monospace;font-size:14px}#chart-c40d9884-b1cd-4247-b73a-e9902eb96f0e text.no_data{font-family:Consolas,"Liberation Mono",Menlo,Courier,monospace;font-size:64px}
#chart-c40d9884-b1cd-4247-b73a-e9902eb96f0e{background-color:rgba(249,249,249,1)}#chart-c40d9884-b1cd-4247-b73a-e9902eb96f0e path,#chart-c40d9884-b1cd-4247-b73a-e9902eb96f0e line,#chart-c40d9884-b1cd-4247-b73a-e9902eb96f0e rect,#chart-c40d9884-b1cd-4247-b73a-e9902eb96f0e circle{-webkit-transition:150ms;-moz-transition:150ms;transition:150ms}#chart-c40d9884-b1cd-4247-b73a-e9902eb96f0e .graph &gt; .background{fill:rgba(249,249,249,1)}#chart-c40d9884-b1cd-4247-b73a-e9902eb96f0e .plot &gt; .background{fill:rgba(255,255,255,1)}#chart-c40d9884-b1cd-4247-b73a-e9902eb96f0e .graph{fill:rgba(0,0,0,.87)}#chart-c40d9884-b1cd-4247-b73a-e9902eb96f0e text.no_data{fill:rgba(0,0,0,1)}#chart-c40d9884-b1cd-4247-b73a-e9902eb96f0e .title{fill:rgba(0,0,0,1)}#chart-c40d9884-b1cd-4247-b73a-e9902eb96f0e .legends .legend text{fill:rgba(0,0,0,.87)}#chart-c40d9884-b1cd-4247-b73a-e9902eb96f0e .legends .legend:hover text{fill:rgba(0,0,0,1)}#chart-c40d9884-b1cd-4247-b73a-e9902eb96f0e .axis .line{stroke:rgba(0,0,0,1)}#chart-c40d9884-b1cd-4247-b73a-e9902eb96f0e .axis .guide.line{stroke:rgba(0,0,0,.54)}#chart-c40d9884-b1cd-4247-b73a-e9902eb96f0e .axis .major.line{stroke:rgba(0,0,0,.87)}#chart-c40d9884-b1cd-4247-b73a-e9902eb96f0e .axis text.major{fill:rgba(0,0,0,1)}#chart-c40d9884-b1cd-4247-b73a-e9902eb96f0e .axis.y .guides:hover .guide.line,#chart-c40d9884-b1cd-4247-b73a-e9902eb96f0e .line-graph .axis.x .guides:hover .guide.line,#chart-c40d9884-b1cd-4247-b73a-e9902eb96f0e .stackedline-graph .axis.x .guides:hover .guide.line,#chart-c40d9884-b1cd-4247-b73a-e9902eb96f0e .xy-graph .axis.x .guides:hover .guide.line{stroke:rgba(0,0,0,1)}#chart-c40d9884-b1cd-4247-b73a-e9902eb96f0e .axis .guides:hover text{fill:rgba(0,0,0,1)}#chart-c40d9884-b1cd-4247-b73a-e9902eb96f0e .reactive{fill-opacity:.7;stroke-opacity:.8;stroke-width:1}#chart-c40d9884-b1cd-4247-b73a-e9902eb96f0e .ci{stroke:rgba(0,0,0,.87)}#chart-c40d9884-b1cd-4247-b73a-e9902eb96f0e .reactive.active,#chart-c40d9884-b1cd-4247-b73a-e9902eb96f0e .active .reactive{fill-opacity:.8;stroke-opacity:.9;stroke-width:4}#chart-c40d9884-b1cd-4247-b73a-e9902eb96f0e .ci .reactive.active{stroke-width:1.5}#chart-c40d9884-b1cd-4247-b73a-e9902eb96f0e .series text{fill:rgba(0,0,0,1)}#chart-c40d9884-b1cd-4247-b73a-e9902eb96f0e .tooltip rect{fill:rgba(255,255,255,1);stroke:rgba(0,0,0,1);-webkit-transition:opacity 150ms;-moz-transition:opacity 150ms;transition:opacity 150ms}#chart-c40d9884-b1cd-4247-b73a-e9902eb96f0e .tooltip .label{fill:rgba(0,0,0,.87)}#chart-c40d9884-b1cd-4247-b73a-e9902eb96f0e .tooltip .label{fill:rgba(0,0,0,.87)}#chart-c40d9884-b1cd-4247-b73a-e9902eb96f0e .tooltip .legend{font-size:.8em;fill:rgba(0,0,0,.54)}#chart-c40d9884-b1cd-4247-b73a-e9902eb96f0e .tooltip .x_label{font-size:.6em;fill:rgba(0,0,0,1)}#chart-c40d9884-b1cd-4247-b73a-e9902eb96f0e .tooltip .xlink{font-size:.5em;text-decoration:underline}#chart-c40d9884-b1cd-4247-b73a-e9902eb96f0e .tooltip .value{font-size:1.5em}#chart-c40d9884-b1cd-4247-b73a-e9902eb96f0e .bound{font-size:.5em}#chart-c40d9884-b1cd-4247-b73a-e9902eb96f0e .max-value{font-size:.75em;fill:rgba(0,0,0,.54)}#chart-c40d9884-b1cd-4247-b73a-e9902eb96f0e .map-element{fill:rgba(255,255,255,1);stroke:rgba(0,0,0,.54) !important}#chart-c40d9884-b1cd-4247-b73a-e9902eb96f0e .map-element .reactive{fill-opacity:inherit;stroke-opacity:inherit}#chart-c40d9884-b1cd-4247-b73a-e9902eb96f0e .color-0,#chart-c40d9884-b1cd-4247-b73a-e9902eb96f0e .color-0 a:visited{stroke:#F44336;fill:#F44336}#chart-c40d9884-b1cd-4247-b73a-e9902eb96f0e .text-overlay .color-0 text{fill:black}
#chart-c40d9884-b1cd-4247-b73a-e9902eb96f0e text.no_data{text-anchor:middle}#chart-c40d9884-b1cd-4247-b73a-e9902eb96f0e .guide.line{fill:none}#chart-c40d9884-b1cd-4247-b73a-e9902eb96f0e .centered{text-anchor:middle}#chart-c40d9884-b1cd-4247-b73a-e9902eb96f0e .title{text-anchor:middle}#chart-c40d9884-b1cd-4247-b73a-e9902eb96f0e .legends .legend text{fill-opacity:1}#chart-c40d9884-b1cd-4247-b73a-e9902eb96f0e .axis.x text{text-anchor:middle}#chart-c40d9884-b1cd-4247-b73a-e9902eb96f0e .axis.x:not(.web) text[transform]{text-anchor:start}#chart-c40d9884-b1cd-4247-b73a-e9902eb96f0e .axis.x:not(.web) text[transform].backwards{text-anchor:end}#chart-c40d9884-b1cd-4247-b73a-e9902eb96f0e .axis.y text{text-anchor:end}#chart-c40d9884-b1cd-4247-b73a-e9902eb96f0e .axis.y text[transform].backwards{text-anchor:start}#chart-c40d9884-b1cd-4247-b73a-e9902eb96f0e .axis.y2 text{text-anchor:start}#chart-c40d9884-b1cd-4247-b73a-e9902eb96f0e .axis.y2 text[transform].backwards{text-anchor:end}#chart-c40d9884-b1cd-4247-b73a-e9902eb96f0e .axis .guide.line{stroke-dasharray:4,4;stroke:black}#chart-c40d9884-b1cd-4247-b73a-e9902eb96f0e .axis .major.guide.line{stroke-dasharray:6,6;stroke:black}#chart-c40d9884-b1cd-4247-b73a-e9902eb96f0e .horizontal .axis.y .guide.line,#chart-c40d9884-b1cd-4247-b73a-e9902eb96f0e .horizontal .axis.y2 .guide.line,#chart-c40d9884-b1cd-4247-b73a-e9902eb96f0e .vertical .axis.x .guide.line{opacity:0}#chart-c40d9884-b1cd-4247-b73a-e9902eb96f0e .horizontal .axis.always_show .guide.line,#chart-c40d9884-b1cd-4247-b73a-e9902eb96f0e .vertical .axis.always_show .guide.line{opacity:1 !important}#chart-c40d9884-b1cd-4247-b73a-e9902eb96f0e .axis.y .guides:hover .guide.line,#chart-c40d9884-b1cd-4247-b73a-e9902eb96f0e .axis.y2 .guides:hover .guide.line,#chart-c40d9884-b1cd-4247-b73a-e9902eb96f0e .axis.x .guides:hover .guide.line{opacity:1}#chart-c40d9884-b1cd-4247-b73a-e9902eb96f0e .axis .guides:hover text{opacity:1}#chart-c40d9884-b1cd-4247-b73a-e9902eb96f0e .nofill{fill:none}#chart-c40d9884-b1cd-4247-b73a-e9902eb96f0e .subtle-fill{fill-opacity:.2}#chart-c40d9884-b1cd-4247-b73a-e9902eb96f0e .dot{stroke-width:1px;fill-opacity:1;stroke-opacity:1}#chart-c40d9884-b1cd-4247-b73a-e9902eb96f0e .dot.active{stroke-width:5px}#chart-c40d9884-b1cd-4247-b73a-e9902eb96f0e .dot.negative{fill:transparent}#chart-c40d9884-b1cd-4247-b73a-e9902eb96f0e text,#chart-c40d9884-b1cd-4247-b73a-e9902eb96f0e tspan{stroke:none !important}#chart-c40d9884-b1cd-4247-b73a-e9902eb96f0e .series text.active{opacity:1}#chart-c40d9884-b1cd-4247-b73a-e9902eb96f0e .tooltip rect{fill-opacity:.95;stroke-width:.5}#chart-c40d9884-b1cd-4247-b73a-e9902eb96f0e .tooltip text{fill-opacity:1}#chart-c40d9884-b1cd-4247-b73a-e9902eb96f0e .showable{visibility:hidden}#chart-c40d9884-b1cd-4247-b73a-e9902eb96f0e .showable.shown{visibility:visible}#chart-c40d9884-b1cd-4247-b73a-e9902eb96f0e .gauge-background{fill:rgba(229,229,229,1);stroke:none}#chart-c40d9884-b1cd-4247-b73a-e9902eb96f0e .bg-lines{stroke:rgba(249,249,249,1);stroke-width:2px}</style><script type="text/javascript">window.pygal = window.pygal || {};window.pygal.config = window.pygal.config || {};window.pygal.config['c40d9884-b1cd-4247-b73a-e9902eb96f0e'] = {"allow_interruptions": false, "box_mode": "extremes", "classes": ["pygal-chart", "pygal-sparkline"], "css": ["file://style.css", "file://graph.css"], "defs": [], "disable_xml_declaration": false, "dots_size": 2.5, "dynamic_print_values": false, "explicit_size": true, "fill": false, "force_uri_protocol": "https", "formatter": null, "half_pie": false, "height": 50, "include_x_axis": false, "inner_radius": 0, "interpolate": "cubic", "interpolation_parameters": {}, "interpolation_precision": 250, "inverse_y_axis": false, "js": [], "legend_at_bottom": false, "legend_at_bottom_columns": null, "legend_box_size": 12, "logarithmic": false, "margin": 10, "margin_bottom": null, "margin_left": null, "margin_right": null, "margin_top": null, "max_scale": 2, "min_scale": 1, "missing_value_fill_truncation": "x", "no_data_text": "", "no_prefix": false, "order_min": null, "pretty_print": false, "print_labels": false, "print_values": false, "print_values_position": "center", "print_zeroes": true, "range": null, "rounded_bars": null, "secondary_range": null, "show_dots": false, "show_legend": false, "show_minor_x_labels": true, "show_minor_y_labels": true, "show_only_major_dots": false, "show_x_guides": false, "show_x_labels": false, "show_y_guides": true, "show_y_labels": true, "spacing": 0, "stack_from_top": false, "strict": false, "stroke": true, "stroke_style": null, "style": {"background": "rgba(249, 249, 249, 1)", "ci_colors": [], "colors": ["#F44336", "#3F51B5", "#009688", "#FFC107", "#FF5722", "#9C27B0", "#03A9F4", "#8BC34A", "#FF9800", "#E91E63", "#2196F3", "#4CAF50", "#FFEB3B", "#673AB7", "#00BCD4", "#CDDC39", "#9E9E9E", "#607D8B"], "dot_opacity": "1", "font_family": "Consolas, \"Liberation Mono\", Menlo, Courier, monospace", "foreground": "rgba(0, 0, 0, .87)", "foreground_strong": "rgba(0, 0, 0, 1)", "foreground_subtle": "rgba(0, 0, 0, .54)", "guide_stroke_color": "black", "guide_stroke_dasharray": "4,4", "label_font_family": "Consolas, \"Liberation Mono\", Menlo, Courier, monospace", "label_font_size": 10, "legend_font_family": "Consolas, \"Liberation Mono\", Menlo, Courier, monospace", "legend_font_size": 14, "major_guide_stroke_color": "black", "major_guide_stroke_dasharray": "6,6", "major_label_font_family": "Consolas, \"Liberation Mono\", Menlo, Courier, monospace", "major_label_font_size": 10, "no_data_font_family": "Consolas, \"Liberation Mono\", Menlo, Courier, monospace", "no_data_font_size": 64, "opacity": ".7", "opacity_hover": ".8", "plot_background": "rgba(255, 255, 255, 1)", "stroke_opacity": ".8", "stroke_opacity_hover": ".9", "stroke_width": "1", "stroke_width_hover": "4", "title_font_family": "Consolas, \"Liberation Mono\", Menlo, Courier, monospace", "title_font_size": 16, "tooltip_font_family": "Consolas, \"Liberation Mono\", Menlo, Courier, monospace", "tooltip_font_size": 14, "transition": "150ms", "value_background": "rgba(229, 229, 229, 1)", "value_colors": [], "value_font_family": "Consolas, \"Liberation Mono\", Menlo, Courier, monospace", "value_font_size": 16, "value_label_font_family": "Consolas, \"Liberation Mono\", Menlo, Courier, monospace", "value_label_font_size": 10}, "title": null, "tooltip_border_radius": 0, "tooltip_fancy_mode": true, "truncate_label": null, "truncate_legend": null, "width": 200, "x_label_rotation": 0, "x_labels": ["2025/5", "2025/4", "2025/1", "2024/11", "2024/10", "2024/9", "2024/8", "2024/6", "2024/5", "2024/4", "2024/3", "2024/2", "2024/1"], "x_labels_major": null, "x_labels_major_count": null, "x_labels_major_every": null, "x_title": null, "xrange": null, "y_label_rotation": 0, "y_labels": null, "y_labels_major": null, "y_labels_major_count": null, "y_labels_major_every": null, "y_title": null, "zero": 0, "legends": [""]}</script></defs><title>Pygal</title><g class="graph line-graph vertical"><rect x="0" y="0" width="200" height="50" class="background" /><g transform="translate(82, 10)" class="plot"><rect x="0" y="0" width="108.0" height="30" class="background" /><g class="axis y always_show"><path d="M0.000000 30.000000 h108.000000" class="line" /><g class="guides"><path d="M0.000000 29.423077 h108.000000" class="guide line" /><text x="-5" y="32.92307692307692" class="">0.4747024536</text><title>0.4747024536</title></g><g class="guides"><path d="M0.000000 0.576923 h108.000000" class="guide line" /><text x="-5" y="4.076923076923073" class="">6.12020456</text><title>6.12020456</title></g></g><g class="series serie-0 color-0"><path d="M2.076923 6.300700 L2.111538 6.421634 2.146154 6.542564 2.180769 6.663487 2.215385 6.784399 2.250000 6.905295 2.284615 7.026173 2.319231 7.147028 2.353846 7.267857 2.388462 7.388656 2.423077 7.509421 2.457692 7.630148 2.492308 7.750834 2.526923 7.871475 2.561538 7.992067 2.596154 8.112606 2.630769 8.233089 2.665385 8.353511 2.700000 8.473870 2.734615 8.594161 2.769231 8.714380 2.803846 8.834525 2.838462 8.954590 2.873077 9.074572 2.907692 9.194468 2.942308 9.314274 2.976923 9.433986 3.011538 9.553600 3.046154 9.673112 3.080769 9.792519 3.115385 9.911817 3.150000 10.031002 3.184615 10.150071 3.219231 10.269019 3.253846 10.387843 3.288462 10.506539 3.323077 10.625104 3.357692 10.743533 3.392308 10.861822 3.426923 10.979969 3.461538 11.097970 3.496154 11.215819 3.530769 11.333515 3.565385 11.451053 3.600000 11.568429 3.634615 11.685639 3.669231 11.802680 3.703846 11.919548 3.738462 12.036239 3.773077 12.152750 3.807692 12.269076 3.842308 12.385215 3.876923 12.501161 3.911538 12.616912 3.946154 12.732464 3.980769 12.847812 4.015385 12.962954 4.050000 13.077885 4.084615 13.192601 4.119231 13.307100 4.153846 13.421376 4.188462 13.535427 4.223077 13.649248 4.257692 13.762836 4.292308 13.876188 4.326923 13.989298 4.361538 14.102164 4.396154 14.214781 4.430769 14.327147 4.465385 14.439257 4.500000 14.551107 4.534615 14.662694 4.569231 14.774014 4.603846 14.885063 4.638462 14.995838 4.673077 15.106334 4.707692 15.216548 4.742308 15.326477 4.776923 15.436115 4.811538 15.545460 4.846154 15.654509 4.880769 15.763256 4.915385 15.871698 4.950000 15.979832 4.984615 16.087654 5.019231 16.195160 5.053846 16.302346 5.088462 16.409209 5.123077 16.515744 5.157692 16.621949 5.192308 16.727818 5.226923 16.833350 5.261538 16.938538 5.296154 17.043381 5.330769 17.147874 5.365385 17.252014 5.400000 17.355796 5.434615 17.459217 5.469231 17.562273 5.503846 17.664960 5.538462 17.767275 5.573077 17.869214 5.607692 17.970773 5.642308 18.071949 5.676923 18.172737 5.711538 18.273134 5.746154 18.373135 5.780769 18.472739 5.815385 18.571939 5.850000 18.670734 5.884615 18.769118 5.919231 18.867089 5.953846 18.964642 5.988462 19.061774 6.023077 19.158481 6.057692 19.254759 6.092308 19.350604 6.126923 19.446013 6.161538 19.540982 6.196154 19.635508 6.230769 19.729585 6.265385 19.823212 6.300000 19.916383 6.334615 20.009095 6.369231 20.101344 6.403846 20.193128 6.438462 20.284441 6.473077 20.375280 6.507692 20.465641 6.542308 20.555521 6.576923 20.644915 6.611538 20.733821 6.646154 20.822234 6.680769 20.910150 6.715385 20.997566 6.750000 21.084479 6.784615 21.170883 6.819231 21.256776 6.853846 21.342153 6.888462 21.427011 6.923077 21.511347 6.957692 21.595156 6.992308 21.678434 7.026923 21.761179 7.061538 21.843385 7.096154 21.925050 7.130769 22.006170 7.165385 22.086740 7.200000 22.166758 7.234615 22.246218 7.269231 22.325119 7.303846 22.403455 7.338462 22.481223 7.373077 22.558419 7.407692 22.635040 7.442308 22.711081 7.476923 22.786540 7.511538 22.861412 7.546154 22.935693 7.580769 23.009380 7.615385 23.082469 7.650000 23.154956 7.684615 23.226837 7.719231 23.298109 7.753846 23.368768 7.788462 23.438811 7.823077 23.508232 7.857692 23.577029 7.892308 23.645198 7.926923 23.712735 7.961538 23.779636 7.996154 23.845898 8.030769 23.911517 8.065385 23.976489 8.100000 24.040810 8.134615 24.104476 8.169231 24.167484 8.203846 24.229831 8.238462 24.291511 8.273077 24.352522 8.307692 24.412860 8.342308 24.472520 8.376923 24.531500 8.411538 24.589795 8.446154 24.647402 8.480769 24.704317 8.515385 24.760536 8.550000 24.816055 8.584615 24.870871 8.619231 24.924980 8.653846 24.978377 8.688462 25.031061 8.723077 25.083025 8.757692 25.134268 8.792308 25.184784 8.826923 25.234571 8.861538 25.283625 8.896154 25.331941 8.930769 25.379516 8.965385 25.426346 9.000000 25.472428 9.034615 25.517758 9.069231 25.562331 9.103846 25.606145 9.138462 25.649195 9.173077 25.691478 9.207692 25.732990 9.242308 25.773726 9.276923 25.813685 9.311538 25.852861 9.346154 25.891250 9.380769 25.928850 9.415385 25.965656 9.450000 26.001665 9.484615 26.036873 9.519231 26.071275 9.553846 26.104869 9.588462 26.137651 9.623077 26.169616 9.657692 26.200761 9.692308 26.231083 9.726923 26.260577 9.761538 26.289239 9.796154 26.317067 9.830769 26.344056 9.865385 26.370202 9.900000 26.395502 9.934615 26.419952 9.969231 26.443548 10.003846 26.466287 10.038462 26.488164 10.073077 26.509176 10.107692 26.529319 10.142308 26.548589 10.176923 26.566983 10.211538 26.584497 10.246154 26.601127 10.280769 26.616869 10.315385 26.631720 10.350000 26.645676 10.384615 26.658732 10.419231 26.670886 10.453846 26.682133 10.488462 26.692470 10.523077 26.701893 10.557692 26.710399 10.592308 26.717982 10.626923 26.724641 10.661538 26.730370 10.696154 26.735166 10.730769 26.739026 10.765385 26.741948 10.800000 26.743936 10.834615 26.744997 10.869231 26.745140 10.903846 26.744370 10.938462 26.742695 10.973077 26.740122 11.007692 26.736658 11.042308 26.732309 11.076923 26.727084 11.111538 26.720989 11.146154 26.714031 11.180769 26.706216 11.215385 26.697553 11.250000 26.688048 11.284615 26.677708 11.319231 26.666541 11.353846 26.654552 11.388462 26.641750 11.423077 26.628141 11.457692 26.613733 11.492308 26.598532 11.526923 26.582545 11.561538 26.565779 11.596154 26.548243 11.630769 26.529941 11.665385 26.510883 11.700000 26.491073 11.734615 26.470521 11.769231 26.449232 11.803846 26.427214 11.838462 26.404473 11.873077 26.381017 11.907692 26.356853 11.942308 26.331988 11.976923 26.306429 12.011538 26.280182 12.046154 26.253256 12.080769 26.225656 12.115385 26.197391 12.150000 26.168466 12.184615 26.138890 12.219231 26.108669 12.253846 26.077809 12.288462 26.046319 12.323077 26.014206 12.357692 25.981475 12.392308 25.948135 12.426923 25.914192 12.461538 25.879653 12.496154 25.844526 12.530769 25.808817 12.565385 25.772533 12.600000 25.735682 12.634615 25.698271 12.669231 25.660306 12.703846 25.621795 12.738462 25.582744 12.773077 25.543161 12.807692 25.503053 12.842308 25.462426 12.876923 25.421288 12.911538 25.379646 12.946154 25.337507 12.980769 25.294877 13.015385 25.251765 13.050000 25.208176 13.084615 25.164119 13.119231 25.119599 13.153846 25.074625 13.188462 25.029202 13.223077 24.983339 13.257692 24.937041 13.292308 24.890317 13.326923 24.843173 13.361538 24.795617 13.396154 24.747654 13.430769 24.699293 13.465385 24.650541 13.500000 24.601403 13.534615 24.551888 13.569231 24.502003 13.603846 24.451754 13.638462 24.401149 13.673077 24.350194 13.707692 24.298896 13.742308 24.247264 13.776923 24.195303 13.811538 24.143020 13.846154 24.090424 13.880769 24.037520 13.915385 23.984316 13.950000 23.930819 13.984615 23.877035 14.019231 23.822973 14.053846 23.768638 14.088462 23.714039 14.123077 23.659181 14.157692 23.604073 14.192308 23.548720 14.226923 23.493131 14.261538 23.437312 14.296154 23.381270 14.330769 23.325012 14.365385 23.268545 14.400000 23.211877 14.434615 23.155014 14.469231 23.097964 14.503846 23.040732 14.538462 22.983328 14.573077 22.925756 14.607692 22.868025 14.642308 22.810142 14.676923 22.752113 14.711538 22.693946 14.746154 22.635648 14.780769 22.577225 14.815385 22.518684 14.850000 22.460034 14.884615 22.401280 14.919231 22.342430 14.953846 22.283491 14.988462 22.224470 15.023077 22.165374 15.057692 22.106210 15.092308 22.046984 15.126923 21.987705 15.161538 21.928379 15.196154 21.869012 15.230769 21.809613 15.265385 21.750188 15.300000 21.690744 15.334615 21.631289 15.369231 21.571828 15.403846 21.512370 15.438462 21.452922 15.473077 21.393489 15.507692 21.334080 15.542308 21.274702 15.576923 21.215361 15.611538 21.156064 15.646154 21.096819 15.680769 21.037633 15.715385 20.978512 15.750000 20.919463 15.784615 20.860495 15.819231 20.801613 15.853846 20.742825 15.888462 20.684137 15.923077 20.625558 15.957692 20.567093 15.992308 20.508750 16.026923 20.450536 16.061538 20.392458 16.096154 20.334523 16.130769 20.276738 16.165385 20.219110 16.200000 20.161646 16.234615 20.104353 16.269231 20.047239 16.303846 19.990309 16.338462 19.933572 16.373077 19.877034 16.407692 19.820702 16.442308 19.764584 16.476923 19.708686 16.511538 19.653015 16.546154 19.597579 16.580769 19.542385 16.615385 19.487438 16.650000 19.432748 16.684615 19.378319 16.719231 19.324161 16.753846 19.270279 16.788462 19.216681 16.823077 19.163373 16.857692 19.110364 16.892308 19.057659 16.926923 19.005266 16.961538 18.953191 16.996154 18.901443 17.030769 18.850027 17.065385 18.798952 17.100000 18.748223 17.134615 18.697848 17.169231 18.647835 17.203846 18.598189 17.238462 18.548919 17.273077 18.500031 17.307692 18.451532 17.342308 18.403429 17.376923 18.355730 17.411538 18.308441 17.446154 18.261569 17.480769 18.215121 17.515385 18.169105 17.550000 18.123527 17.584615 18.078395 17.619231 18.033716 17.653846 17.989495 17.688462 17.945742 17.723077 17.902462 17.757692 17.859662 17.792308 17.817351 17.826923 17.775534 17.861538 17.734219 17.896154 17.693412 17.930769 17.653122 17.965385 17.613354 18.000000 17.574116 18.034615 17.535415 18.069231 17.497258 18.103846 17.459652 18.138462 17.422604 18.173077 17.386121 18.207692 17.350210 18.242308 17.314878 18.276923 17.280133 18.311538 17.245980 18.346154 17.212428 18.380769 17.179483 18.415385 17.147153 18.450000 17.115444 18.484615 17.084363 18.519231 17.053917 18.553846 17.024114 18.588462 16.994961 18.623077 16.966464 18.657692 16.938630 18.692308 16.911467 18.726923 16.884982 18.761538 16.859181 18.796154 16.834072 18.830769 16.809662 18.865385 16.785957 18.900000 16.762966 18.934615 16.740694 18.969231 16.719149 19.003846 16.698337 19.038462 16.678267 19.073077 16.658945 19.107692 16.640378 19.142308 16.622572 19.176923 16.605536 19.211538 16.589276 19.246154 16.573799 19.280769 16.559112 19.315385 16.545223 19.350000 16.532137 19.384615 16.519863 19.419231 16.508405 19.453846 16.497761 19.488462 16.487925 19.523077 16.478894 19.557692 16.470662 19.592308 16.463224 19.626923 16.456576 19.661538 16.450714 19.696154 16.445631 19.730769 16.441324 19.765385 16.437788 19.800000 16.435017 19.834615 16.433008 19.869231 16.431755 19.903846 16.431254 19.938462 16.431500 19.973077 16.432489 20.007692 16.434214 20.042308 16.436673 20.076923 16.439859 20.111538 16.443768 20.146154 16.448396 20.180769 16.453738 20.215385 16.459788 20.250000 16.466543 20.284615 16.473997 20.319231 16.482146 20.353846 16.490984 20.388462 16.500508 20.423077 16.510712 20.457692 16.521591 20.492308 16.533142 20.526923 16.545358 20.561538 16.558236 20.596154 16.571771 20.630769 16.585957 20.665385 16.600791 20.700000 16.616266 20.734615 16.632380 20.769231 16.649126 20.803846 16.666500 20.838462 16.684497 20.873077 16.703113 20.907692 16.722343 20.942308 16.742182 20.976923 16.762625 21.011538 16.783668 21.046154 16.805305 21.080769 16.827532 21.115385 16.850345 21.150000 16.873738 21.184615 16.897707 21.219231 16.922247 21.253846 16.947353 21.288462 16.973020 21.323077 16.999244 21.357692 17.026020 21.392308 17.053344 21.426923 17.081209 21.461538 17.109613 21.496154 17.138549 21.530769 17.168014 21.565385 17.198002 21.600000 17.228508 21.634615 17.259529 21.669231 17.291058 21.703846 17.323092 21.738462 17.355626 21.773077 17.388654 21.807692 17.422173 21.842308 17.456177 21.876923 17.490662 21.911538 17.525622 21.946154 17.561054 21.980769 17.596951 22.015385 17.633311 22.050000 17.670127 22.084615 17.707396 22.119231 17.745111 22.153846 17.783269 22.188462 17.821865 22.223077 17.860894 22.257692 17.900352 22.292308 17.940233 22.326923 17.980532 22.361538 18.021246 22.396154 18.062369 22.430769 18.103896 22.465385 18.145823 22.500000 18.188145 22.534615 18.230858 22.569231 18.273955 22.603846 18.317434 22.638462 18.361289 22.673077 18.405514 22.707692 18.450106 22.742308 18.495060 22.776923 18.540371 22.811538 18.586034 22.846154 18.632045 22.880769 18.678398 22.915385 18.725089 22.950000 18.772113 22.984615 18.819465 23.019231 18.867142 23.053846 18.915137 23.088462 18.963446 23.123077 19.012065 23.157692 19.060988 23.192308 19.110211 23.226923 19.159729 23.261538 19.209538 23.296154 19.259632 23.330769 19.310007 23.365385 19.360658 23.400000 19.411580 23.434615 19.462769 23.469231 19.514220 23.503846 19.565928 23.538462 19.617888 23.573077 19.670096 23.607692 19.722546 23.642308 19.775234 23.676923 19.828156 23.711538 19.881306 23.746154 19.934681 23.780769 19.988274 23.815385 20.042081 23.850000 20.096098 23.884615 20.150319 23.919231 20.204741 23.953846 20.259357 23.988462 20.314165 24.023077 20.369157 24.057692 20.424331 24.092308 20.479681 24.126923 20.535203 24.161538 20.590891 24.196154 20.646741 24.230769 20.702748 24.265385 20.758908 24.300000 20.815216 24.334615 20.871666 24.369231 20.928254 24.403846 20.984976 24.438462 21.041826 24.473077 21.098801 24.507692 21.155894 24.542308 21.213102 24.576923 21.270419 24.611538 21.327842 24.646154 21.385364 24.680769 21.442982 24.715385 21.500690 24.750000 21.558484 24.784615 21.616359 24.819231 21.674311 24.853846 21.732334 24.888462 21.790424 24.923077 21.848576 24.957692 21.906785 24.992308 21.965047 25.026923 22.023356 25.061538 22.081709 25.096154 22.140100 25.130769 22.198524 25.165385 22.256977 25.200000 22.315454 25.234615 22.373950 25.269231 22.432461 25.303846 22.490982 25.338462 22.549507 25.373077 22.608033 25.407692 22.666554 25.442308 22.725066 25.476923 22.783563 25.511538 22.842042 25.546154 22.900498 25.580769 22.958925 25.615385 23.017319 25.650000 23.075675 25.684615 23.133989 25.719231 23.192255 25.753846 23.250469 25.788462 23.308626 25.823077 23.366722 25.857692 23.424751 25.892308 23.482709 25.926923 23.540592 25.961538 23.598393 25.996154 23.656109 26.030769 23.713735 26.065385 23.771267 26.100000 23.828698 26.134615 23.886025 26.169231 23.943243 26.203846 24.000347 26.238462 24.057332 26.273077 24.114194 26.307692 24.170927 26.342308 24.227528 26.376923 24.283991 26.411538 24.340311 26.446154 24.396484 26.480769 24.452506 26.515385 24.508370 26.550000 24.564073 26.584615 24.619610 26.619231 24.674975 26.653846 24.730165 26.688462 24.785175 26.723077 24.839999 26.757692 24.894633 26.792308 24.949072 26.826923 25.003312 26.861538 25.057347 26.896154 25.111173 26.930769 25.164786 26.965385 25.218180 27.000000 25.271350 27.034615 25.324293 27.069231 25.377003 27.103846 25.429475 27.138462 25.481704 27.173077 25.533687 27.207692 25.585418 27.242308 25.636892 27.276923 25.688104 27.311538 25.739051 27.346154 25.789726 27.380769 25.840126 27.415385 25.890246 27.450000 25.940080 27.484615 25.989625 27.519231 26.038875 27.553846 26.087825 27.588462 26.136471 27.623077 26.184809 27.657692 26.232832 27.692308 26.280537 27.726923 26.327919 27.761538 26.374973 27.796154 26.421694 27.830769 26.468078 27.865385 26.514119 27.900000 26.559814 27.934615 26.605156 27.969231 26.650142 28.003846 26.694767 28.038462 26.739026 28.073077 26.782915 28.107692 26.826434 28.142308 26.869582 28.176923 26.912359 28.211538 26.954767 28.246154 26.996806 28.280769 27.038474 28.315385 27.079774 28.350000 27.120705 28.384615 27.161266 28.419231 27.201459 28.453846 27.241284 28.488462 27.280741 28.523077 27.319829 28.557692 27.358550 28.592308 27.396904 28.626923 27.434890 28.661538 27.472509 28.696154 27.509761 28.730769 27.546647 28.765385 27.583166 28.800000 27.619319 28.834615 27.655106 28.869231 27.690527 28.903846 27.725582 28.938462 27.760273 28.973077 27.794598 29.007692 27.828558 29.042308 27.862154 29.076923 27.895385 29.111538 27.928252 29.146154 27.960755 29.180769 27.992894 29.215385 28.024670 29.250000 28.056082 29.284615 28.087131 29.319231 28.117817 29.353846 28.148141 29.388462 28.178102 29.423077 28.207700 29.457692 28.236937 29.492308 28.265812 29.526923 28.294325 29.561538 28.322477 29.596154 28.350268 29.630769 28.377697 29.665385 28.404766 29.700000 28.431475 29.734615 28.457823 29.769231 28.483811 29.803846 28.509439 29.838462 28.534707 29.873077 28.559616 29.907692 28.584166 29.942308 28.608357 29.976923 28.632189 30.011538 28.655663 30.046154 28.678778 30.080769 28.701535 30.115385 28.723934 30.150000 28.745975 30.184615 28.767659 30.219231 28.788986 30.253846 28.809956 30.288462 28.830569 30.323077 28.850825 30.357692 28.870725 30.392308 28.890269 30.426923 28.909457 30.461538 28.928289 30.496154 28.946765 30.530769 28.964887 30.565385 28.982653 30.600000 29.000064 30.634615 29.017121 30.669231 29.033823 30.703846 29.050171 30.738462 29.066166 30.773077 29.081806 30.807692 29.097093 30.842308 29.112027 30.876923 29.126607 30.911538 29.140835 30.946154 29.154709 30.980769 29.168232 31.015385 29.181402 31.050000 29.194220 31.084615 29.206687 31.119231 29.218802 31.153846 29.230565 31.188462 29.241977 31.223077 29.253039 31.257692 29.263750 31.292308 29.274110 31.326923 29.284120 31.361538 29.293780 31.396154 29.303090 31.430769 29.312050 31.465385 29.320661 31.500000 29.328923 31.534615 29.336836 31.569231 29.344400 31.603846 29.351616 31.638462 29.358484 31.673077 29.365003 31.707692 29.371174 31.742308 29.376998 31.776923 29.382474 31.811538 29.387604 31.846154 29.392386 31.880769 29.396821 31.915385 29.400910 31.950000 29.404653 31.984615 29.408049 32.019231 29.411099 32.053846 29.413804 32.088462 29.416164 32.123077 29.418178 32.157692 29.419847 32.192308 29.421171 32.226923 29.422151 32.261538 29.422786 32.296154 29.423077 32.330769 29.423024 32.365385 29.422628 32.400000 29.421888 32.434615 29.420804 32.469231 29.419378 32.503846 29.417609 32.538462 29.415497 32.573077 29.413042 32.607692 29.410246 32.642308 29.407108 32.676923 29.403627 32.711538 29.399806 32.746154 29.395643 32.780769 29.391138 32.815385 29.386293 32.850000 29.381108 32.884615 29.375582 32.919231 29.369715 32.953846 29.363509 32.988462 29.356963 33.023077 29.350077 33.057692 29.342852 33.092308 29.335288 33.126923 29.327384 33.161538 29.319143 33.196154 29.310562 33.230769 29.301644 33.265385 29.292387 33.300000 29.282793 33.334615 29.272861 33.369231 29.262591 33.403846 29.251984 33.438462 29.241041 33.473077 29.229761 33.507692 29.218144 33.542308 29.206191 33.576923 29.193901 33.611538 29.181276 33.646154 29.168316 33.680769 29.155019 33.715385 29.141388 33.750000 29.127422 33.784615 29.113121 33.819231 29.098485 33.853846 29.083515 33.888462 29.068211 33.923077 29.052573 33.957692 29.036601 33.992308 29.020296 34.026923 29.003657 34.061538 28.986686 34.096154 28.969382 34.130769 28.951745 34.165385 28.933776 34.200000 28.915474 34.234615 28.896841 34.269231 28.877876 34.303846 28.858580 34.338462 28.838952 34.373077 28.818993 34.407692 28.798703 34.442308 28.778083 34.476923 28.757132 34.511538 28.735851 34.546154 28.714240 34.580769 28.692300 34.615385 28.670030 34.650000 28.647430 34.684615 28.624501 34.719231 28.601244 34.753846 28.577658 34.788462 28.553743 34.823077 28.529501 34.857692 28.504930 34.892308 28.480031 34.926923 28.454805 34.961538 28.429252 34.996154 28.403371 35.030769 28.377163 35.065385 28.350629 35.100000 28.323768 35.134615 28.296581 35.169231 28.269068 35.203846 28.241229 35.238462 28.213065 35.273077 28.184575 35.307692 28.155760 35.342308 28.126620 35.376923 28.097155 35.411538 28.067366 35.446154 28.037253 35.480769 28.006815 35.515385 27.976054 35.550000 27.944969 35.584615 27.913560 35.619231 27.881828 35.653846 27.849774 35.688462 27.817396 35.723077 27.784696 35.757692 27.751674 35.792308 27.718329 35.826923 27.684663 35.861538 27.650675 35.896154 27.616365 35.930769 27.581735 35.965385 27.546783 36.000000 27.511510 36.034615 27.475917 36.069231 27.440004 36.103846 27.403770 36.138462 27.367216 36.173077 27.330343 36.207692 27.293150 36.242308 27.255638 36.276923 27.217807 36.311538 27.179657 36.346154 27.141189 36.380769 27.102402 36.415385 27.063296 36.450000 27.023873 36.484615 26.984132 36.519231 26.944074 36.553846 26.903698 36.588462 26.863005 36.623077 26.821995 36.657692 26.780669 36.692308 26.739026 36.726923 26.697068 36.761538 26.654797 36.796154 26.612218 36.830769 26.569334 36.865385 26.526150 36.900000 26.482668 36.934615 26.438894 36.969231 26.394831 37.003846 26.350482 37.038462 26.305853 37.073077 26.260946 37.107692 26.215765 37.142308 26.170315 37.176923 26.124599 37.211538 26.078621 37.246154 26.032385 37.280769 25.985896 37.315385 25.939156 37.350000 25.892169 37.384615 25.844940 37.419231 25.797473 37.453846 25.749771 37.488462 25.701838 37.523077 25.653678 37.557692 25.605296 37.592308 25.556694 37.626923 25.507877 37.661538 25.458848 37.696154 25.409612 37.730769 25.360173 37.765385 25.310533 37.800000 25.260698 37.834615 25.210671 37.869231 25.160456 37.903846 25.110057 37.938462 25.059477 37.973077 25.008721 38.007692 24.957792 38.042308 24.906695 38.076923 24.855433 38.111538 24.804010 38.146154 24.752430 38.180769 24.700697 38.215385 24.648815 38.250000 24.596787 38.284615 24.544618 38.319231 24.492312 38.353846 24.439871 38.388462 24.387301 38.423077 24.334605 38.457692 24.281787 38.492308 24.228850 38.526923 24.175800 38.561538 24.122639 38.596154 24.069371 38.630769 24.016001 38.665385 23.962532 38.700000 23.908968 38.734615 23.855313 38.769231 23.801571 38.803846 23.747746 38.838462 23.693842 38.873077 23.639862 38.907692 23.585811 38.942308 23.531691 38.976923 23.477508 39.011538 23.423266 39.046154 23.368967 39.080769 23.314616 39.115385 23.260216 39.150000 23.205773 39.184615 23.151288 39.219231 23.096768 39.253846 23.042214 39.288462 22.987632 39.323077 22.933024 39.357692 22.878396 39.392308 22.823750 39.426923 22.769091 39.461538 22.714423 39.496154 22.659749 39.530769 22.605073 39.565385 22.550400 39.600000 22.495732 39.634615 22.441075 39.669231 22.386432 39.703846 22.331806 39.738462 22.277202 39.773077 22.222623 39.807692 22.168074 39.842308 22.113558 39.876923 22.059080 39.911538 22.004642 39.946154 21.950249 39.980769 21.895905 40.015385 21.841614 40.050000 21.787379 40.084615 21.733205 40.119231 21.679095 40.153846 21.625054 40.188462 21.571084 40.223077 21.517191 40.257692 21.463377 40.292308 21.409648 40.326923 21.356006 40.361538 21.302455 40.396154 21.249000 40.430769 21.195644 40.465385 21.142391 40.500000 21.089245 40.534615 21.036211 40.569231 20.983291 40.603846 20.930490 40.638462 20.877811 40.673077 20.825259 40.707692 20.772838 40.742308 20.720550 40.776923 20.668401 40.811538 20.616394 40.846154 20.564532 40.880769 20.512821 40.915385 20.461263 40.950000 20.409862 40.984615 20.358623 41.019231 20.307550 41.053846 20.256645 41.088462 20.205914 41.123077 20.155360 41.157692 20.104986 41.192308 20.054798 41.226923 20.004797 41.261538 19.954990 41.296154 19.905378 41.330769 19.855967 41.365385 19.806761 41.400000 19.757762 41.434615 19.708975 41.469231 19.660404 41.503846 19.612053 41.538462 19.563925 41.573077 19.516024 41.607692 19.468355 41.642308 19.420922 41.676923 19.373727 41.711538 19.326775 41.746154 19.280070 41.780769 19.233616 41.815385 19.187417 41.850000 19.141476 41.884615 19.095797 41.919231 19.050385 41.953846 19.005243 41.988462 18.960375 42.023077 18.915785 42.057692 18.871477 42.092308 18.827454 42.126923 18.783721 42.161538 18.740282 42.196154 18.697140 42.230769 18.654299 42.265385 18.611763 42.300000 18.569536 42.334615 18.527622 42.369231 18.486025 42.403846 18.444749 42.438462 18.403797 42.473077 18.363173 42.507692 18.322882 42.542308 18.282927 42.576923 18.243312 42.611538 18.204041 42.646154 18.165118 42.680769 18.126547 42.715385 18.088331 42.750000 18.050474 42.784615 18.012981 42.819231 17.975856 42.853846 17.939101 42.888462 17.902722 42.923077 17.866721 42.957692 17.831103 42.992308 17.795872 43.026923 17.761031 43.061538 17.726585 43.096154 17.692537 43.130769 17.658892 43.165385 17.625652 43.200000 17.592823 43.234615 17.560407 43.269231 17.528409 43.303846 17.496833 43.338462 17.465682 43.373077 17.434960 43.407692 17.404672 43.442308 17.374821 43.476923 17.345411 43.511538 17.316446 43.546154 17.287930 43.580769 17.259866 43.615385 17.232259 43.650000 17.205112 43.684615 17.178430 43.719231 17.152216 43.753846 17.126474 43.788462 17.101209 43.823077 17.076423 43.857692 17.052120 43.892308 17.028306 43.926923 17.004983 43.961538 16.982155 43.996154 16.959826 44.030769 16.938001 44.065385 16.916683 44.100000 16.895876 44.134615 16.875583 44.169231 16.855810 44.203846 16.836559 44.238462 16.817834 44.273077 16.799640 44.307692 16.781980 44.342308 16.764858 44.376923 16.748278 44.411538 16.732244 44.446154 16.716760 44.480769 16.701829 44.515385 16.687456 44.550000 16.673645 44.584615 16.660398 44.619231 16.647721 44.653846 16.635617 44.688462 16.624090 44.723077 16.613144 44.757692 16.602782 44.792308 16.593010 44.826923 16.583829 44.861538 16.575245 44.896154 16.567261 44.930769 16.559882 44.965385 16.553110 45.000000 16.546950 45.034615 16.541407 45.069231 16.536482 45.103846 16.532182 45.138462 16.528508 45.173077 16.525467 45.207692 16.523060 45.242308 16.521292 45.276923 16.520168 45.311538 16.519690 45.346154 16.519863 45.380769 16.520689 45.415385 16.522166 45.450000 16.524290 45.484615 16.527056 45.519231 16.530461 45.553846 16.534501 45.588462 16.539171 45.623077 16.544469 45.657692 16.550389 45.692308 16.556928 45.726923 16.564081 45.761538 16.571846 45.796154 16.580217 45.830769 16.589192 45.865385 16.598765 45.900000 16.608933 45.934615 16.619692 45.969231 16.631038 46.003846 16.642968 46.038462 16.655476 46.073077 16.668559 46.107692 16.682213 46.142308 16.696434 46.176923 16.711219 46.211538 16.726562 46.246154 16.742461 46.280769 16.758911 46.315385 16.775908 46.350000 16.793448 46.384615 16.811528 46.419231 16.830142 46.453846 16.849288 46.488462 16.868962 46.523077 16.889158 46.557692 16.909874 46.592308 16.931105 46.626923 16.952848 46.661538 16.975098 46.696154 16.997852 46.730769 17.021104 46.765385 17.044853 46.800000 17.069093 46.834615 17.093820 46.869231 17.119031 46.903846 17.144721 46.938462 17.170887 46.973077 17.197524 47.007692 17.224629 47.042308 17.252198 47.076923 17.280226 47.111538 17.308710 47.146154 17.337646 47.180769 17.367029 47.215385 17.396857 47.250000 17.427123 47.284615 17.457826 47.319231 17.488960 47.353846 17.520523 47.388462 17.552509 47.423077 17.584914 47.457692 17.617736 47.492308 17.650970 47.526923 17.684611 47.561538 17.718657 47.596154 17.753102 47.630769 17.787944 47.665385 17.823177 47.700000 17.858798 47.734615 17.894804 47.769231 17.931189 47.803846 17.967951 47.838462 18.005084 47.873077 18.042586 47.907692 18.080452 47.942308 18.118678 47.976923 18.157260 48.011538 18.196195 48.046154 18.235477 48.080769 18.275104 48.115385 18.315071 48.150000 18.355375 48.184615 18.396010 48.219231 18.436974 48.253846 18.478263 48.288462 18.519872 48.323077 18.561797 48.357692 18.604034 48.392308 18.646580 48.426923 18.689431 48.461538 18.732581 48.496154 18.776029 48.530769 18.819769 48.565385 18.863797 48.600000 18.908110 48.634615 18.952703 48.669231 18.997574 48.703846 19.042716 48.738462 19.088128 48.773077 19.133804 48.807692 19.179740 48.842308 19.225934 48.876923 19.272380 48.911538 19.319075 48.946154 19.366014 48.980769 19.413194 49.015385 19.460612 49.050000 19.508262 49.084615 19.556140 49.119231 19.604244 49.153846 19.652569 49.188462 19.701110 49.223077 19.749864 49.257692 19.798828 49.292308 19.847996 49.326923 19.897365 49.361538 19.946931 49.396154 19.996691 49.430769 20.046639 49.465385 20.096772 49.500000 20.147087 49.534615 20.197578 49.569231 20.248243 49.603846 20.299077 49.638462 20.350076 49.673077 20.401236 49.707692 20.452554 49.742308 20.504024 49.776923 20.555644 49.811538 20.607409 49.846154 20.659316 49.880769 20.711360 49.915385 20.763537 49.950000 20.815843 49.984615 20.868275 50.019231 20.920828 50.053846 20.973499 50.088462 21.026283 50.123077 21.079177 50.157692 21.132176 50.192308 21.185276 50.226923 21.238474 50.261538 21.291766 50.296154 21.345147 50.330769 21.398614 50.365385 21.452162 50.400000 21.505788 50.434615 21.559488 50.469231 21.613257 50.503846 21.667092 50.538462 21.720989 50.573077 21.774943 50.607692 21.828951 50.642308 21.883009 50.676923 21.937113 50.711538 21.991258 50.746154 22.045442 50.780769 22.099659 50.815385 22.153906 50.850000 22.208179 50.884615 22.262474 50.919231 22.316787 50.953846 22.371114 50.988462 22.425450 51.023077 22.479793 51.057692 22.534138 51.092308 22.588481 51.126923 22.642817 51.161538 22.697144 51.196154 22.751457 51.230769 22.805753 51.265385 22.860026 51.300000 22.914273 51.334615 22.968491 51.369231 23.022675 51.403846 23.076821 51.438462 23.130925 51.473077 23.184984 51.507692 23.238993 51.542308 23.292948 51.576923 23.346845 51.611538 23.400681 51.646154 23.454451 51.680769 23.508152 51.715385 23.561779 51.750000 23.615329 51.784615 23.668796 51.819231 23.722179 51.853846 23.775472 51.888462 23.828671 51.923077 23.881773 51.957692 23.934773 51.992308 23.987668 52.026923 24.040454 52.061538 24.093126 52.096154 24.145681 52.130769 24.198115 52.165385 24.250423 52.200000 24.302602 52.234615 24.354648 52.269231 24.406556 52.303846 24.458323 52.338462 24.509945 52.373077 24.561418 52.407692 24.612737 52.442308 24.663900 52.476923 24.714901 52.511538 24.765737 52.546154 24.816404 52.580769 24.866898 52.615385 24.917215 52.650000 24.967351 52.684615 25.017302 52.719231 25.067064 52.753846 25.116633 52.788462 25.166005 52.823077 25.215176 52.857692 25.264142 52.892308 25.312899 52.926923 25.361443 52.961538 25.409771 52.996154 25.457878 53.030769 25.505760 53.065385 25.553413 53.100000 25.600833 53.134615 25.648017 53.169231 25.694960 53.203846 25.741658 53.238462 25.788107 53.273077 25.834304 53.307692 25.880244 53.342308 25.925924 53.376923 25.971339 53.411538 26.016485 53.446154 26.061359 53.480769 26.105957 53.515385 26.150273 53.550000 26.194306 53.584615 26.238050 53.619231 26.281501 53.653846 26.324656 53.688462 26.367510 53.723077 26.410061 53.757692 26.452302 53.792308 26.494232 53.826923 26.535845 53.861538 26.577138 53.896154 26.618106 53.930769 26.658746 53.965385 26.699054 54.000000 26.739026 54.034615 26.778659 54.069231 26.817951 54.103846 26.856903 54.138462 26.895517 54.173077 26.933791 54.207692 26.971726 54.242308 27.009322 54.276923 27.046581 54.311538 27.083501 54.346154 27.120083 54.380769 27.156327 54.415385 27.192235 54.450000 27.227805 54.484615 27.263038 54.519231 27.297935 54.553846 27.332496 54.588462 27.366720 54.623077 27.400609 54.657692 27.434162 54.692308 27.467380 54.726923 27.500263 54.761538 27.532812 54.796154 27.565026 54.830769 27.596905 54.865385 27.628451 54.900000 27.659663 54.934615 27.690542 54.969231 27.721088 55.003846 27.751300 55.038462 27.781180 55.073077 27.810728 55.107692 27.839944 55.142308 27.868827 55.176923 27.897380 55.211538 27.925600 55.246154 27.953490 55.280769 27.981049 55.315385 28.008278 55.350000 28.035176 55.384615 28.061744 55.419231 28.087982 55.453846 28.113891 55.488462 28.139471 55.523077 28.164722 55.557692 28.189644 55.592308 28.214238 55.626923 28.238503 55.661538 28.262441 55.696154 28.286051 55.730769 28.309333 55.765385 28.332288 55.800000 28.354917 55.834615 28.377219 55.869231 28.399194 55.903846 28.420844 55.938462 28.442167 55.973077 28.463165 56.007692 28.483838 56.042308 28.504186 56.076923 28.524209 56.111538 28.543907 56.146154 28.563281 56.180769 28.582331 56.215385 28.601058 56.250000 28.619461 56.284615 28.637540 56.319231 28.655297 56.353846 28.672731 56.388462 28.689843 56.423077 28.706632 56.457692 28.723100 56.492308 28.739246 56.526923 28.755070 56.561538 28.770574 56.596154 28.785757 56.630769 28.800619 56.665385 28.815160 56.700000 28.829382 56.734615 28.843283 56.769231 28.856866 56.803846 28.870129 56.838462 28.883073 56.873077 28.895698 56.907692 28.908004 56.942308 28.919993 56.976923 28.931663 57.011538 28.943016 57.046154 28.954051 57.080769 28.964769 57.115385 28.975170 57.150000 28.985254 57.184615 28.995022 57.219231 29.004474 57.253846 29.013610 57.288462 29.022430 57.323077 29.030935 57.357692 29.039125 57.392308 29.047000 57.426923 29.054561 57.461538 29.061807 57.496154 29.068739 57.530769 29.075357 57.565385 29.081662 57.600000 29.087653 57.634615 29.093331 57.669231 29.098697 57.703846 29.103750 57.738462 29.108491 57.773077 29.112920 57.807692 29.117037 57.842308 29.120843 57.876923 29.124338 57.911538 29.127521 57.946154 29.130394 57.980769 29.132957 58.015385 29.135209 58.050000 29.137152 58.084615 29.138785 58.119231 29.140109 58.153846 29.141123 58.188462 29.141829 58.223077 29.142226 58.257692 29.142315 58.292308 29.142096 58.326923 29.141569 58.361538 29.140734 58.396154 29.139592 58.430769 29.138143 58.465385 29.136388 58.500000 29.134326 58.534615 29.131958 58.569231 29.129283 58.603846 29.126303 58.638462 29.123018 58.673077 29.119428 58.707692 29.115532 58.742308 29.111332 58.776923 29.106828 58.811538 29.102019 58.846154 29.096907 58.880769 29.091491 58.915385 29.085771 58.950000 29.079749 58.984615 29.073423 59.019231 29.066796 59.053846 29.059865 59.088462 29.052633 59.123077 29.045099 59.157692 29.037264 59.192308 29.029127 59.226923 29.020689 59.261538 29.011951 59.296154 29.002912 59.330769 28.993573 59.365385 28.983934 59.400000 28.973995 59.434615 28.963757 59.469231 28.953220 59.503846 28.942383 59.538462 28.931249 59.573077 28.919815 59.607692 28.908084 59.642308 28.896055 59.676923 28.883728 59.711538 28.871104 59.746154 28.858183 59.780769 28.844965 59.815385 28.831450 59.850000 28.817639 59.884615 28.803532 59.919231 28.789130 59.953846 28.774432 59.988462 28.759438 60.023077 28.744150 60.057692 28.728567 60.092308 28.712690 60.126923 28.696518 60.161538 28.680052 60.196154 28.663293 60.230769 28.646240 60.265385 28.628895 60.300000 28.611256 60.334615 28.593324 60.369231 28.575101 60.403846 28.556585 60.438462 28.537777 60.473077 28.518678 60.507692 28.499288 60.542308 28.479606 60.576923 28.459634 60.611538 28.439371 60.646154 28.418818 60.680769 28.397974 60.715385 28.376841 60.750000 28.355419 60.784615 28.333707 60.819231 28.311707 60.853846 28.289417 60.888462 28.266840 60.923077 28.243974 60.957692 28.220820 60.992308 28.197378 61.026923 28.173649 61.061538 28.149633 61.096154 28.125330 61.130769 28.100741 61.165385 28.075865 61.200000 28.050703 61.234615 28.025255 61.269231 27.999522 61.303846 27.973503 61.338462 27.947200 61.373077 27.920611 61.407692 27.893738 61.442308 27.866581 61.476923 27.839140 61.511538 27.811415 61.546154 27.783406 61.580769 27.755115 61.615385 27.726540 61.650000 27.697683 61.684615 27.668543 61.719231 27.639121 61.753846 27.609417 61.788462 27.579432 61.823077 27.549165 61.857692 27.518617 61.892308 27.487788 61.926923 27.456679 61.961538 27.425289 61.996154 27.393619 62.030769 27.361670 62.065385 27.329440 62.100000 27.296932 62.134615 27.264144 62.169231 27.231078 62.203846 27.197733 62.238462 27.164110 62.273077 27.130209 62.307692 27.096031 62.342308 27.061574 62.376923 27.026841 62.411538 26.991831 62.446154 26.956544 62.480769 26.920980 62.515385 26.885141 62.550000 26.849025 62.584615 26.812634 62.619231 26.775968 62.653846 26.739026 62.688462 26.701810 62.723077 26.664320 62.757692 26.626557 62.792308 26.588522 62.826923 26.550216 62.861538 26.511640 62.896154 26.472795 62.930769 26.433682 62.965385 26.394302 63.000000 26.354656 63.034615 26.314744 63.069231 26.274569 63.103846 26.234130 63.138462 26.193429 63.173077 26.152467 63.207692 26.111245 63.242308 26.069763 63.276923 26.028023 63.311538 25.986026 63.346154 25.943772 63.380769 25.901263 63.415385 25.858499 63.450000 25.815482 63.484615 25.772212 63.519231 25.728691 63.553846 25.684920 63.588462 25.640898 63.623077 25.596628 63.657692 25.552111 63.692308 25.507347 63.726923 25.462337 63.761538 25.417082 63.796154 25.371584 63.830769 25.325843 63.865385 25.279860 63.900000 25.233636 63.934615 25.187172 63.969231 25.140469 64.003846 25.093529 64.038462 25.046351 64.073077 24.998938 64.107692 24.951289 64.142308 24.903407 64.176923 24.855291 64.211538 24.806943 64.246154 24.758365 64.280769 24.709556 64.315385 24.660517 64.350000 24.611251 64.384615 24.561757 64.419231 24.512037 64.453846 24.462092 64.488462 24.411923 64.523077 24.361530 64.557692 24.310915 64.592308 24.260078 64.626923 24.209021 64.661538 24.157744 64.696154 24.106249 64.730769 24.054536 64.765385 24.002607 64.800000 23.950462 64.834615 23.898103 64.869231 23.845530 64.903846 23.792744 64.938462 23.739747 64.973077 23.686539 65.007692 23.633121 65.042308 23.579494 65.076923 23.525660 65.111538 23.471618 65.146154 23.417371 65.180769 23.362919 65.215385 23.308263 65.250000 23.253404 65.284615 23.198343 65.319231 23.143081 65.353846 23.087619 65.388462 23.031958 65.423077 22.976099 65.457692 22.920043 65.492308 22.863790 65.526923 22.807343 65.561538 22.750701 65.596154 22.693866 65.630769 22.636838 65.665385 22.579620 65.700000 22.522211 65.734615 22.464612 65.769231 22.406826 65.803846 22.348852 65.838462 22.290691 65.873077 22.232345 65.907692 22.173814 65.942308 22.115100 65.976923 22.056204 66.011538 21.997126 66.046154 21.937867 66.080769 21.878428 66.115385 21.818811 66.150000 21.759016 66.184615 21.699045 66.219231 21.638898 66.253846 21.578576 66.288462 21.518080 66.323077 21.457411 66.357692 21.396570 66.392308 21.335559 66.426923 21.274378 66.461538 21.213027 66.496154 21.151509 66.530769 21.089824 66.565385 21.027972 66.600000 20.965956 66.634615 20.903775 66.669231 20.841432 66.703846 20.778926 66.738462 20.716259 66.773077 20.653432 66.807692 20.590445 66.842308 20.527300 66.876923 20.463998 66.911538 20.400540 66.946154 20.336926 66.980769 20.273158 67.015385 20.209237 67.050000 20.145163 67.084615 20.080938 67.119231 20.016562 67.153846 19.952036 67.188462 19.887363 67.223077 19.822541 67.257692 19.757573 67.292308 19.692459 67.326923 19.627201 67.361538 19.561799 67.396154 19.496254 67.430769 19.430567 67.465385 19.364740 67.500000 19.298773 67.534615 19.232667 67.569231 19.166423 67.603846 19.100042 67.638462 19.033525 67.673077 18.966874 67.707692 18.900088 67.742308 18.833169 67.776923 18.766119 67.811538 18.698937 67.846154 18.631625 67.880769 18.564184 67.915385 18.496615 67.950000 18.428919 67.984615 18.361096 68.019231 18.293149 68.053846 18.225077 68.088462 18.156881 68.123077 18.088564 68.157692 18.020125 68.192308 17.951566 68.226923 17.882887 68.261538 17.814090 68.296154 17.745175 68.330769 17.676144 68.365385 17.606997 68.400000 17.537736 68.434615 17.468361 68.469231 17.398874 68.503846 17.329275 68.538462 17.259565 68.573077 17.189746 68.607692 17.119818 68.642308 17.049782 68.676923 16.979640 68.711538 16.909391 68.746154 16.839038 68.780769 16.768581 68.815385 16.698021 68.850000 16.627359 68.884615 16.556596 68.919231 16.485733 68.953846 16.414771 68.988462 16.343712 69.023077 16.272555 69.057692 16.201302 69.092308 16.129953 69.126923 16.058511 69.161538 15.986976 69.196154 15.915348 69.230769 15.843629 69.265385 15.771820 69.300000 15.699922 69.334615 15.627935 69.369231 15.555861 69.403846 15.483700 69.438462 15.411454 69.473077 15.339124 69.507692 15.266710 69.542308 15.194214 69.576923 15.121636 69.611538 15.048978 69.646154 14.976240 69.680769 14.903423 69.715385 14.830529 69.750000 14.757558 69.784615 14.684512 69.819231 14.611391 69.853846 14.538196 69.888462 14.464928 69.923077 14.391588 69.957692 14.318178 69.992308 14.244698 70.026923 14.171149 70.061538 14.097532 70.096154 14.023848 70.130769 13.950098 70.165385 13.876283 70.200000 13.802404 70.234615 13.728462 70.269231 13.654458 70.303846 13.580392 70.338462 13.506267 70.373077 13.432082 70.407692 13.357840 70.442308 13.283540 70.476923 13.209183 70.511538 13.134772 70.546154 13.060306 70.580769 12.985787 70.615385 12.911215 70.650000 12.836592 70.684615 12.761919 70.719231 12.687196 70.753846 12.612425 70.788462 12.537606 70.823077 12.462740 70.857692 12.387829 70.892308 12.312874 70.926923 12.237874 70.961538 12.162833 70.996154 12.087749 71.030769 12.012625 71.065385 11.937461 71.100000 11.862258 71.134615 11.787017 71.169231 11.711740 71.203846 11.636427 71.238462 11.561078 71.273077 11.485696 71.307692 11.410281 71.342308 11.334835 71.376923 11.259360 71.411538 11.183861 71.446154 11.108340 71.480769 11.032803 71.515385 10.957252 71.550000 10.881691 71.584615 10.806125 71.619231 10.730556 71.653846 10.654988 71.688462 10.579425 71.723077 10.503871 71.757692 10.428330 71.792308 10.352804 71.826923 10.277299 71.861538 10.201817 71.896154 10.126362 71.930769 10.050938 71.965385 9.975549 72.000000 9.900198 72.034615 9.824889 72.069231 9.749626 72.103846 9.674413 72.138462 9.599252 72.173077 9.524149 72.207692 9.449106 72.242308 9.374127 72.276923 9.299216 72.311538 9.224377 72.346154 9.149613 72.380769 9.074928 72.415385 9.000326 72.450000 8.925811 72.484615 8.851385 72.519231 8.777054 72.553846 8.702820 72.588462 8.628687 72.623077 8.554659 72.657692 8.480740 72.692308 8.406933 72.726923 8.333243 72.761538 8.259672 72.796154 8.186224 72.830769 8.112904 72.865385 8.039715 72.900000 7.966660 72.934615 7.893743 72.969231 7.820969 73.003846 7.748340 73.038462 7.675860 73.073077 7.603534 73.107692 7.531364 73.142308 7.459355 73.176923 7.387510 73.211538 7.315833 73.246154 7.244327 73.280769 7.172997 73.315385 7.101845 73.350000 7.030877 73.384615 6.960095 73.419231 6.889502 73.453846 6.819104 73.488462 6.748903 73.523077 6.678903 73.557692 6.609108 73.592308 6.539522 73.626923 6.470148 73.661538 6.400990 73.696154 6.332052 73.730769 6.263337 73.765385 6.194849 73.800000 6.126592 73.834615 6.058569 73.869231 5.990785 73.903846 5.923243 73.938462 5.855946 73.973077 5.788898 74.007692 5.722104 74.042308 5.655566 74.076923 5.589288 74.111538 5.523275 74.146154 5.457529 74.180769 5.392055 74.215385 5.326856 74.250000 5.261937 74.284615 5.197299 74.319231 5.132948 74.353846 5.068887 74.388462 5.005120 74.423077 4.941650 74.457692 4.878481 74.492308 4.815617 74.526923 4.753061 74.561538 4.690818 74.596154 4.628891 74.630769 4.567283 74.665385 4.505999 74.700000 4.445041 74.734615 4.384414 74.769231 4.324122 74.803846 4.264168 74.838462 4.204556 74.873077 4.145289 74.907692 4.086371 74.942308 4.027806 74.976923 3.969598 75.011538 3.911751 75.046154 3.854267 75.080769 3.797151 75.115385 3.740406 75.150000 3.684037 75.184615 3.628046 75.219231 3.572438 75.253846 3.517216 75.288462 3.462384 75.323077 3.407946 75.357692 3.353905 75.392308 3.300265 75.426923 3.247030 75.461538 3.194203 75.496154 3.141788 75.530769 3.089790 75.565385 3.038210 75.600000 2.987054 75.634615 2.936325 75.669231 2.886027 75.703846 2.836163 75.738462 2.786736 75.773077 2.737752 75.807692 2.689213 75.842308 2.641124 75.876923 2.593487 75.911538 2.546306 75.946154 2.499586 75.980769 2.453330 76.015385 2.407542 76.050000 2.362224 76.084615 2.317382 76.119231 2.273019 76.153846 2.229138 76.188462 2.185743 76.223077 2.142838 76.257692 2.100427 76.292308 2.058513 76.326923 2.017100 76.361538 1.976191 76.396154 1.935791 76.430769 1.895903 76.465385 1.856531 76.500000 1.817678 76.534615 1.779348 76.569231 1.741546 76.603846 1.704273 76.638462 1.667535 76.673077 1.631335 76.707692 1.595677 76.742308 1.560564 76.776923 1.526000 76.811538 1.491989 76.846154 1.458534 76.880769 1.425640 76.915385 1.393309 76.950000 1.361546 76.984615 1.330354 77.019231 1.299738 77.053846 1.269700 77.088462 1.240244 77.123077 1.211374 77.157692 1.183094 77.192308 1.155408 77.226923 1.128319 77.261538 1.101830 77.296154 1.075946 77.330769 1.050671 77.365385 1.026007 77.400000 1.001960 77.434615 0.978531 77.469231 0.955726 77.503846 0.933547 77.538462 0.911999 77.573077 0.891085 77.607692 0.870809 77.642308 0.851175 77.676923 0.832186 77.711538 0.813846 77.746154 0.796158 77.780769 0.779127 77.815385 0.762756 77.850000 0.747049 77.884615 0.732010 77.919231 0.717641 77.953846 0.703948 77.988462 0.690933 78.023077 0.678600 78.057692 0.666953 78.092308 0.655996 78.126923 0.645733 78.161538 0.636166 78.196154 0.627301 78.230769 0.619140 78.265385 0.611687 78.300000 0.604946 78.334615 0.598920 78.369231 0.593614 78.403846 0.589031 78.438462 0.585175 78.473077 0.582049 78.507692 0.579657 78.542308 0.578003 78.576923 0.577090 78.611538 0.576923 78.646154 0.577505 78.680769 0.578839 78.715385 0.580929 78.750000 0.583780 78.784615 0.587394 78.819231 0.591776 78.853846 0.596929 78.888462 0.602857 78.923077 0.609563 78.957692 0.617051 78.992308 0.625325 79.026923 0.634389 79.061538 0.644247 79.096154 0.654901 79.130769 0.666356 79.165385 0.678616 79.200000 0.691683 79.234615 0.705563 79.269231 0.720258 79.303846 0.735772 79.338462 0.752109 79.373077 0.769273 79.407692 0.787267 79.442308 0.806095 79.476923 0.825761 79.511538 0.846268 79.546154 0.867621 79.580769 0.889822 79.615385 0.912876 79.650000 0.936786 79.684615 0.961556 79.719231 0.987189 79.753846 1.013690 79.788462 1.041063 79.823077 1.069309 79.857692 1.098435 79.892308 1.128442 79.926923 1.159335 79.961538 1.191118 79.996154 1.223793 80.030769 1.257354 80.065385 1.291797 80.100000 1.327116 80.134615 1.363304 80.169231 1.400355 80.203846 1.438263 80.238462 1.477024 80.273077 1.516629 80.307692 1.557075 80.342308 1.598354 80.376923 1.640460 80.411538 1.683388 80.446154 1.727132 80.480769 1.771686 80.515385 1.817043 80.550000 1.863199 80.584615 1.910146 80.619231 1.957879 80.653846 2.006392 80.688462 2.055679 80.723077 2.105734 80.757692 2.156550 80.792308 2.208123 80.826923 2.260447 80.861538 2.313514 80.896154 2.367319 80.930769 2.421857 80.965385 2.477121 81.000000 2.533105 81.034615 2.589803 81.069231 2.647210 81.103846 2.705319 81.138462 2.764125 81.173077 2.823621 81.207692 2.883801 81.242308 2.944660 81.276923 3.006192 81.311538 3.068390 81.346154 3.131249 81.380769 3.194762 81.415385 3.258924 81.450000 3.323729 81.484615 3.389171 81.519231 3.455243 81.553846 3.521941 81.588462 3.589257 81.623077 3.657186 81.657692 3.725722 81.692308 3.794859 81.726923 3.864591 81.761538 3.934912 81.796154 4.005817 81.830769 4.077298 81.865385 4.149350 81.900000 4.221968 81.934615 4.295145 81.969231 4.368875 82.003846 4.443153 82.038462 4.517971 82.073077 4.593326 82.107692 4.669209 82.142308 4.745616 82.176923 4.822541 82.211538 4.899977 82.246154 4.977918 82.280769 5.056360 82.315385 5.135294 82.350000 5.214717 82.384615 5.294621 82.419231 5.375001 82.453846 5.455850 82.488462 5.537164 82.523077 5.618935 82.557692 5.701158 82.592308 5.783827 82.626923 5.866936 82.661538 5.950479 82.696154 6.034450 82.730769 6.118843 82.765385 6.203652 82.800000 6.288871 82.834615 6.374494 82.869231 6.460516 82.903846 6.546930 82.938462 6.633730 82.973077 6.720910 83.007692 6.808464 83.042308 6.896387 83.076923 6.984673 83.111538 7.073314 83.146154 7.162307 83.180769 7.251643 83.215385 7.341319 83.250000 7.431326 83.284615 7.521661 83.319231 7.612316 83.353846 7.703286 83.388462 7.794564 83.423077 7.886145 83.457692 7.978024 83.492308 8.070192 83.526923 8.162646 83.561538 8.255379 83.596154 8.348384 83.630769 8.441657 83.665385 8.535190 83.700000 8.628979 83.734615 8.723016 83.769231 8.817297 83.803846 8.911815 83.838462 9.006564 83.873077 9.101538 83.907692 9.196731 83.942308 9.292138 83.976923 9.387752 84.011538 9.483567 84.046154 9.579578 84.080769 9.675778 84.115385 9.772162 84.150000 9.868723 84.184615 9.965456 84.219231 10.062354 84.253846 10.159412 84.288462 10.256623 84.323077 10.353983 84.357692 10.451483 84.392308 10.549120 84.426923 10.646886 84.461538 10.744776 84.496154 10.842784 84.530769 10.940904 84.565385 11.039130 84.600000 11.137456 84.634615 11.235876 84.669231 11.334383 84.703846 11.432973 84.738462 11.531639 84.773077 11.630375 84.807692 11.729175 84.842308 11.828034 84.876923 11.926944 84.911538 12.025901 84.946154 12.124898 84.980769 12.223930 85.015385 12.322990 85.050000 12.422072 85.084615 12.521171 85.119231 12.620280 85.153846 12.719394 85.188462 12.818506 85.223077 12.917611 85.257692 13.016703 85.292308 13.115775 85.326923 13.214822 85.361538 13.313837 85.396154 13.412816 85.430769 13.511751 85.465385 13.610637 85.500000 13.709468 85.534615 13.808238 85.569231 13.906940 85.603846 14.005570 85.638462 14.104121 85.673077 14.202586 85.707692 14.300961 85.742308 14.399239 85.776923 14.497414 85.811538 14.595481 85.846154 14.693432 85.880769 14.791263 85.915385 14.888967 85.950000 14.986538 85.984615 15.083971 86.019231 15.181259 86.053846 15.278397 86.088462 15.375378 86.123077 15.472196 86.157692 15.568847 86.192308 15.665322 86.226923 15.761618 86.261538 15.857726 86.296154 15.953643 86.330769 16.049361 86.365385 16.144876 86.400000 16.240179 86.434615 16.335267 86.469231 16.430133 86.503846 16.524770 86.538462 16.619174 86.573077 16.713337 86.607692 16.807254 86.642308 16.900920 86.676923 16.994327 86.711538 17.087471 86.746154 17.180344 86.780769 17.272942 86.815385 17.365258 86.850000 17.457287 86.884615 17.549021 86.919231 17.640456 86.953846 17.731586 86.988462 17.822403 87.023077 17.912903 87.057692 18.003080 87.092308 18.092927 87.126923 18.182439 87.161538 18.271609 87.196154 18.360432 87.230769 18.448901 87.265385 18.537011 87.300000 18.624756 87.334615 18.712129 87.369231 18.799126 87.403846 18.885739 87.438462 18.971963 87.473077 19.057792 87.507692 19.143219 87.542308 19.228240 87.576923 19.312848 87.611538 19.397037 87.646154 19.480800 87.680769 19.564133 87.715385 19.647029 87.750000 19.729482 87.784615 19.811487 87.819231 19.893036 87.853846 19.974125 87.888462 20.054748 87.923077 20.134897 87.957692 20.214568 87.992308 20.293754 88.026923 20.372450 88.061538 20.450649 88.096154 20.528346 88.130769 20.605535 88.165385 20.682209 88.200000 20.758362 88.234615 20.833989 88.269231 20.909084 88.303846 20.983641 88.338462 21.057653 88.373077 21.131116 88.407692 21.204022 88.442308 21.276366 88.476923 21.348141 88.511538 21.419343 88.546154 21.489965 88.580769 21.560001 88.615385 21.629445 88.650000 21.698292 88.684615 21.766544 88.719231 21.834203 88.753846 21.901271 88.788462 21.967752 88.823077 22.033647 88.857692 22.098960 88.892308 22.163692 88.926923 22.227846 88.961538 22.291424 88.996154 22.354430 89.030769 22.416865 89.065385 22.478732 89.100000 22.540034 89.134615 22.600773 89.169231 22.660951 89.203846 22.720572 89.238462 22.779637 89.273077 22.838149 89.307692 22.896111 89.342308 22.953525 89.376923 23.010393 89.411538 23.066719 89.446154 23.122504 89.480769 23.177751 89.515385 23.232463 89.550000 23.286641 89.584615 23.340290 89.619231 23.393410 89.653846 23.446005 89.688462 23.498077 89.723077 23.549628 89.757692 23.600662 89.792308 23.651180 89.826923 23.701185 89.861538 23.750680 89.896154 23.799666 89.930769 23.848148 89.965385 23.896126 90.000000 23.943604 90.034615 23.990584 90.069231 24.037069 90.103846 24.083060 90.138462 24.128561 90.173077 24.173574 90.207692 24.218102 90.242308 24.262147 90.276923 24.305711 90.311538 24.348797 90.346154 24.391408 90.380769 24.433546 90.415385 24.475213 90.450000 24.516413 90.484615 24.557147 90.519231 24.597418 90.553846 24.637228 90.588462 24.676581 90.623077 24.715478 90.657692 24.753922 90.692308 24.791916 90.726923 24.829462 90.761538 24.866562 90.796154 24.903219 90.830769 24.939436 90.865385 24.975215 90.900000 25.010558 90.934615 25.045468 90.969231 25.079948 91.003846 25.114000 91.038462 25.147627 91.073077 25.180830 91.107692 25.213613 91.142308 25.245978 91.176923 25.277927 91.211538 25.309464 91.246154 25.340590 91.280769 25.371308 91.315385 25.401621 91.350000 25.431530 91.384615 25.461039 91.419231 25.490150 91.453846 25.518866 91.488462 25.547188 91.523077 25.575121 91.557692 25.602665 91.592308 25.629823 91.626923 25.656599 91.661538 25.682994 91.696154 25.709011 91.730769 25.734653 91.765385 25.759921 91.800000 25.784819 91.834615 25.809350 91.869231 25.833514 91.903846 25.857316 91.938462 25.880757 91.973077 25.903840 92.007692 25.926568 92.042308 25.948942 92.076923 25.970966 92.111538 25.992642 92.146154 26.013973 92.180769 26.034960 92.215385 26.055607 92.250000 26.075916 92.284615 26.095890 92.319231 26.115530 92.353846 26.134840 92.388462 26.153822 92.423077 26.172479 92.457692 26.190812 92.492308 26.208825 92.526923 26.226520 92.561538 26.243899 92.596154 26.260966 92.630769 26.277721 92.665385 26.294169 92.700000 26.310311 92.734615 26.326151 92.769231 26.341689 92.803846 26.356930 92.838462 26.371875 92.873077 26.386527 92.907692 26.400889 92.942308 26.414963 92.976923 26.428751 93.011538 26.442256 93.046154 26.455480 93.080769 26.468426 93.115385 26.481097 93.150000 26.493495 93.184615 26.505622 93.219231 26.517482 93.253846 26.529075 93.288462 26.540406 93.323077 26.551476 93.357692 26.562288 93.392308 26.572845 93.426923 26.583148 93.461538 26.593201 93.496154 26.603006 93.530769 26.612566 93.565385 26.621882 93.600000 26.630958 93.634615 26.639795 93.669231 26.648398 93.703846 26.656767 93.738462 26.664905 93.773077 26.672816 93.807692 26.680501 93.842308 26.687963 93.876923 26.695204 93.911538 26.702227 93.946154 26.709035 93.980769 26.715630 94.015385 26.722014 94.050000 26.728190 94.084615 26.734160 94.119231 26.739928 94.153846 26.745494 94.188462 26.750863 94.223077 26.756036 94.257692 26.761016 94.292308 26.765806 94.326923 26.770408 94.361538 26.774823 94.396154 26.779056 94.430769 26.783109 94.465385 26.786983 94.500000 26.790681 94.534615 26.794207 94.569231 26.797562 94.603846 26.800749 94.638462 26.803770 94.673077 26.806628 94.707692 26.809326 94.742308 26.811866 94.776923 26.814250 94.811538 26.816481 94.846154 26.818561 94.880769 26.820493 94.915385 26.822280 94.950000 26.823923 94.984615 26.825426 95.019231 26.826791 95.053846 26.828021 95.088462 26.829117 95.123077 26.830082 95.157692 26.830920 95.192308 26.831632 95.226923 26.832221 95.261538 26.832689 95.296154 26.833039 95.330769 26.833274 95.365385 26.833395 95.400000 26.833406 95.434615 26.833309 95.469231 26.833106 95.503846 26.832800 95.538462 26.832393 95.573077 26.831889 95.607692 26.831289 95.642308 26.830595 95.676923 26.829811 95.711538 26.828939 95.746154 26.827981 95.780769 26.826941 95.815385 26.825819 95.850000 26.824620 95.884615 26.823345 95.919231 26.821996 95.953846 26.820577 95.988462 26.819090 96.023077 26.817538 96.057692 26.815922 96.092308 26.814246 96.126923 26.812511 96.161538 26.810721 96.196154 26.808878 96.230769 26.806984 96.265385 26.805042 96.300000 26.803055 96.334615 26.801024 96.369231 26.798953 96.403846 26.796843 96.438462 26.794698 96.473077 26.792520 96.507692 26.790311 96.542308 26.788074 96.576923 26.785812 96.611538 26.783526 96.646154 26.781220 96.680769 26.778895 96.715385 26.776555 96.750000 26.774202 96.784615 26.771838 96.819231 26.769466 96.853846 26.767088 96.888462 26.764708 96.923077 26.762326 96.957692 26.759947 96.992308 26.757571 97.026923 26.755203 97.061538 26.752844 97.096154 26.750497 97.130769 26.748164 97.165385 26.745848 97.200000 26.743551 97.234615 26.741277 97.269231 26.739026 97.303846 26.736802 97.338462 26.734605 97.373077 26.732434 97.407692 26.730290 97.442308 26.728173 97.476923 26.726081 97.511538 26.724016 97.546154 26.721977 97.580769 26.719964 97.615385 26.717977 97.650000 26.716015 97.684615 26.714080 97.719231 26.712169 97.753846 26.710285 97.788462 26.708425 97.823077 26.706591 97.857692 26.704782 97.892308 26.702998 97.926923 26.701239 97.961538 26.699505 97.996154 26.697795 98.030769 26.696110 98.065385 26.694450 98.100000 26.692814 98.134615 26.691202 98.169231 26.689614 98.203846 26.688051 98.238462 26.686511 98.273077 26.684995 98.307692 26.683503 98.342308 26.682035 98.376923 26.680590 98.411538 26.679168 98.446154 26.677770 98.480769 26.676395 98.515385 26.675043 98.550000 26.673714 98.584615 26.672408 98.619231 26.671124 98.653846 26.669864 98.688462 26.668626 98.723077 26.667410 98.757692 26.666217 98.792308 26.665046 98.826923 26.663897 98.861538 26.662770 98.896154 26.661665 98.930769 26.660581 98.965385 26.659520 99.000000 26.658480 99.034615 26.657461 99.069231 26.656464 99.103846 26.655488 99.138462 26.654534 99.173077 26.653600 99.207692 26.652687 99.242308 26.651796 99.276923 26.650924 99.311538 26.650074 99.346154 26.649244 99.380769 26.648434 99.415385 26.647645 99.450000 26.646876 99.484615 26.646127 99.519231 26.645398 99.553846 26.644689 99.588462 26.643999 99.623077 26.643329 99.657692 26.642679 99.692308 26.642048 99.726923 26.641437 99.761538 26.640845 99.796154 26.640272 99.830769 26.639718 99.865385 26.639182 99.900000 26.638666 99.934615 26.638168 99.969231 26.637689 100.003846 26.637228 100.038462 26.636786 100.073077 26.636362 100.107692 26.635956 100.142308 26.635568 100.176923 26.635198 100.211538 26.634846 100.246154 26.634512 100.280769 26.634195 100.315385 26.633896 100.350000 26.633614 100.384615 26.633349 100.419231 26.633102 100.453846 26.632872 100.488462 26.632658 100.523077 26.632462 100.557692 26.632282 100.592308 26.632119 100.626923 26.631973 100.661538 26.631843 100.696154 26.631729 100.730769 26.631631 100.765385 26.631550 100.800000 26.631484 100.834615 26.631435 100.869231 26.631401 100.903846 26.631383 100.938462 26.631380 100.973077 26.631393 101.007692 26.631422 101.042308 26.631465 101.076923 26.631524 101.111538 26.631597 101.146154 26.631686 101.180769 26.631790 101.215385 26.631908 101.250000 26.632041 101.284615 26.632188 101.319231 26.632350 101.353846 26.632526 101.388462 26.632716 101.423077 26.632920 101.457692 26.633138 101.492308 26.633370 101.526923 26.633616 101.561538 26.633875 101.596154 26.634148 101.630769 26.634435 101.665385 26.634734 101.700000 26.635047 101.734615 26.635373 101.769231 26.635712 101.803846 26.636064 101.838462 26.636429 101.873077 26.636806 101.907692 26.637196 101.942308 26.637598 101.976923 26.638013 102.011538 26.638440 102.046154 26.638879 102.080769 26.639330 102.115385 26.639793 102.150000 26.640268 102.184615 26.640755 102.219231 26.641253 102.253846 26.641762 102.288462 26.642283 102.323077 26.642816 102.357692 26.643359 102.392308 26.643914 102.426923 26.644479 102.461538 26.645056 102.496154 26.645643 102.530769 26.646240 102.565385 26.646849 102.600000 26.647467 102.634615 26.648096 102.669231 26.648735 102.703846 26.649385 102.738462 26.650044 102.773077 26.650713 102.807692 26.651392 102.842308 26.652080 102.876923 26.652779 102.911538 26.653486 102.946154 26.654203 102.980769 26.654929 103.015385 26.655664 103.050000 26.656409 103.084615 26.657162 103.119231 26.657924 103.153846 26.658695 103.188462 26.659474 103.223077 26.660262 103.257692 26.661058 103.292308 26.661862 103.326923 26.662675 103.361538 26.663496 103.396154 26.664324 103.430769 26.665161 103.465385 26.666005 103.500000 26.666857 103.534615 26.667716 103.569231 26.668583 103.603846 26.669457 103.638462 26.670338 103.673077 26.671226 103.707692 26.672122 103.742308 26.673024 103.776923 26.673933 103.811538 26.674848 103.846154 26.675771 103.880769 26.676699 103.915385 26.677634 103.950000 26.678575 103.984615 26.679522 104.019231 26.680476 104.053846 26.681435 104.088462 26.682400 104.123077 26.683371 104.157692 26.684347 104.192308 26.685329 104.226923 26.686316 104.261538 26.687308 104.296154 26.688306 104.330769 26.689308 104.365385 26.690316 104.400000 26.691328 104.434615 26.692345 104.469231 26.693367 104.503846 26.694393 104.538462 26.695424 104.573077 26.696459 104.607692 26.697498 104.642308 26.698541 104.676923 26.699588 104.711538 26.700639 104.746154 26.701694 104.780769 26.702752 104.815385 26.703814 104.850000 26.704880 104.884615 26.705949 104.919231 26.707021 104.953846 26.708096 104.988462 26.709174 105.023077 26.710255 105.057692 26.711338 105.092308 26.712425 105.126923 26.713514 105.161538 26.714605 105.196154 26.715699 105.230769 26.716795 105.265385 26.717894 105.300000 26.718994 105.334615 26.720096 105.369231 26.721200 105.403846 26.722306 105.438462 26.723414 105.473077 26.724522 105.507692 26.725633 105.542308 26.726744 105.576923 26.727857 105.611538 26.728971 105.646154 26.730086 105.680769 26.731201 105.715385 26.732318 105.750000 26.733435 105.784615 26.734553 105.819231 26.735671 105.853846 26.736789 105.888462 26.737908 105.923077 26.739026" class="line reactive nofill" /></g></g><g class="titles" /><g transform="translate(82, 10)" class="plot overlay"><g class="series serie-0 color-0" /></g><g transform="translate(82, 10)" class="plot text-overlay"><g class="series serie-0 color-0" /></g><g transform="translate(82, 10)" class="plot tooltip-overlay"><g transform="translate(0 0)" style="opacity: 0" class="tooltip"><rect rx="0" ry="0" width="0" height="0" class="tooltip-box" /><g class="text" /></g></g></g></svg>