<?xml version='1.0' encoding='utf-8'?>
<svg xmlns="http://www.w3.org/2000/svg" id="chart-4949fbdb-eb29-4707-ab47-ae9ffc990a14" class="pygal-chart pygal-sparkline" viewBox="0 0 200 50" width="200" height="50"><!--Generated with pygal 3.0.4 (etree) ©Kozea 2012-2016 on 2024-04-07--><!--http://pygal.org--><!--http://github.com/Kozea/pygal--><defs><style type="text/css">#chart-4949fbdb-eb29-4707-ab47-ae9ffc990a14{-webkit-user-select:none;-webkit-font-smoothing:antialiased;font-family:Consolas,"Liberation Mono",Menlo,Courier,monospace}#chart-4949fbdb-eb29-4707-ab47-ae9ffc990a14 .title{font-family:Consolas,"Liberation Mono",Menlo,Courier,monospace;font-size:16px}#chart-4949fbdb-eb29-4707-ab47-ae9ffc990a14 .legends .legend text{font-family:Consolas,"Liberation Mono",Menlo,Courier,monospace;font-size:14px}#chart-4949fbdb-eb29-4707-ab47-ae9ffc990a14 .axis text{font-family:Consolas,"Liberation Mono",Menlo,Courier,monospace;font-size:10px}#chart-4949fbdb-eb29-4707-ab47-ae9ffc990a14 .axis text.major{font-family:Consolas,"Liberation Mono",Menlo,Courier,monospace;font-size:10px}#chart-4949fbdb-eb29-4707-ab47-ae9ffc990a14 .text-overlay text.value{font-family:Consolas,"Liberation Mono",Menlo,Courier,monospace;font-size:16px}#chart-4949fbdb-eb29-4707-ab47-ae9ffc990a14 .text-overlay text.label{font-family:Consolas,"Liberation Mono",Menlo,Courier,monospace;font-size:10px}#chart-4949fbdb-eb29-4707-ab47-ae9ffc990a14 .tooltip{font-family:Consolas,"Liberation Mono",Menlo,Courier,monospace;font-size:14px}#chart-4949fbdb-eb29-4707-ab47-ae9ffc990a14 text.no_data{font-family:Consolas,"Liberation Mono",Menlo,Courier,monospace;font-size:64px}
#chart-4949fbdb-eb29-4707-ab47-ae9ffc990a14{background-color:rgba(249,249,249,1)}#chart-4949fbdb-eb29-4707-ab47-ae9ffc990a14 path,#chart-4949fbdb-eb29-4707-ab47-ae9ffc990a14 line,#chart-4949fbdb-eb29-4707-ab47-ae9ffc990a14 rect,#chart-4949fbdb-eb29-4707-ab47-ae9ffc990a14 circle{-webkit-transition:150ms;-moz-transition:150ms;transition:150ms}#chart-4949fbdb-eb29-4707-ab47-ae9ffc990a14 .graph &gt; .background{fill:rgba(249,249,249,1)}#chart-4949fbdb-eb29-4707-ab47-ae9ffc990a14 .plot &gt; .background{fill:rgba(255,255,255,1)}#chart-4949fbdb-eb29-4707-ab47-ae9ffc990a14 .graph{fill:rgba(0,0,0,.87)}#chart-4949fbdb-eb29-4707-ab47-ae9ffc990a14 text.no_data{fill:rgba(0,0,0,1)}#chart-4949fbdb-eb29-4707-ab47-ae9ffc990a14 .title{fill:rgba(0,0,0,1)}#chart-4949fbdb-eb29-4707-ab47-ae9ffc990a14 .legends .legend text{fill:rgba(0,0,0,.87)}#chart-4949fbdb-eb29-4707-ab47-ae9ffc990a14 .legends .legend:hover text{fill:rgba(0,0,0,1)}#chart-4949fbdb-eb29-4707-ab47-ae9ffc990a14 .axis .line{stroke:rgba(0,0,0,1)}#chart-4949fbdb-eb29-4707-ab47-ae9ffc990a14 .axis .guide.line{stroke:rgba(0,0,0,.54)}#chart-4949fbdb-eb29-4707-ab47-ae9ffc990a14 .axis .major.line{stroke:rgba(0,0,0,.87)}#chart-4949fbdb-eb29-4707-ab47-ae9ffc990a14 .axis text.major{fill:rgba(0,0,0,1)}#chart-4949fbdb-eb29-4707-ab47-ae9ffc990a14 .axis.y .guides:hover .guide.line,#chart-4949fbdb-eb29-4707-ab47-ae9ffc990a14 .line-graph .axis.x .guides:hover .guide.line,#chart-4949fbdb-eb29-4707-ab47-ae9ffc990a14 .stackedline-graph .axis.x .guides:hover .guide.line,#chart-4949fbdb-eb29-4707-ab47-ae9ffc990a14 .xy-graph .axis.x .guides:hover .guide.line{stroke:rgba(0,0,0,1)}#chart-4949fbdb-eb29-4707-ab47-ae9ffc990a14 .axis .guides:hover text{fill:rgba(0,0,0,1)}#chart-4949fbdb-eb29-4707-ab47-ae9ffc990a14 .reactive{fill-opacity:.7;stroke-opacity:.8;stroke-width:1}#chart-4949fbdb-eb29-4707-ab47-ae9ffc990a14 .ci{stroke:rgba(0,0,0,.87)}#chart-4949fbdb-eb29-4707-ab47-ae9ffc990a14 .reactive.active,#chart-4949fbdb-eb29-4707-ab47-ae9ffc990a14 .active .reactive{fill-opacity:.8;stroke-opacity:.9;stroke-width:4}#chart-4949fbdb-eb29-4707-ab47-ae9ffc990a14 .ci .reactive.active{stroke-width:1.5}#chart-4949fbdb-eb29-4707-ab47-ae9ffc990a14 .series text{fill:rgba(0,0,0,1)}#chart-4949fbdb-eb29-4707-ab47-ae9ffc990a14 .tooltip rect{fill:rgba(255,255,255,1);stroke:rgba(0,0,0,1);-webkit-transition:opacity 150ms;-moz-transition:opacity 150ms;transition:opacity 150ms}#chart-4949fbdb-eb29-4707-ab47-ae9ffc990a14 .tooltip .label{fill:rgba(0,0,0,.87)}#chart-4949fbdb-eb29-4707-ab47-ae9ffc990a14 .tooltip .label{fill:rgba(0,0,0,.87)}#chart-4949fbdb-eb29-4707-ab47-ae9ffc990a14 .tooltip .legend{font-size:.8em;fill:rgba(0,0,0,.54)}#chart-4949fbdb-eb29-4707-ab47-ae9ffc990a14 .tooltip .x_label{font-size:.6em;fill:rgba(0,0,0,1)}#chart-4949fbdb-eb29-4707-ab47-ae9ffc990a14 .tooltip .xlink{font-size:.5em;text-decoration:underline}#chart-4949fbdb-eb29-4707-ab47-ae9ffc990a14 .tooltip .value{font-size:1.5em}#chart-4949fbdb-eb29-4707-ab47-ae9ffc990a14 .bound{font-size:.5em}#chart-4949fbdb-eb29-4707-ab47-ae9ffc990a14 .max-value{font-size:.75em;fill:rgba(0,0,0,.54)}#chart-4949fbdb-eb29-4707-ab47-ae9ffc990a14 .map-element{fill:rgba(255,255,255,1);stroke:rgba(0,0,0,.54) !important}#chart-4949fbdb-eb29-4707-ab47-ae9ffc990a14 .map-element .reactive{fill-opacity:inherit;stroke-opacity:inherit}#chart-4949fbdb-eb29-4707-ab47-ae9ffc990a14 .color-0,#chart-4949fbdb-eb29-4707-ab47-ae9ffc990a14 .color-0 a:visited{stroke:#F44336;fill:#F44336}#chart-4949fbdb-eb29-4707-ab47-ae9ffc990a14 .text-overlay .color-0 text{fill:black}
#chart-4949fbdb-eb29-4707-ab47-ae9ffc990a14 text.no_data{text-anchor:middle}#chart-4949fbdb-eb29-4707-ab47-ae9ffc990a14 .guide.line{fill:none}#chart-4949fbdb-eb29-4707-ab47-ae9ffc990a14 .centered{text-anchor:middle}#chart-4949fbdb-eb29-4707-ab47-ae9ffc990a14 .title{text-anchor:middle}#chart-4949fbdb-eb29-4707-ab47-ae9ffc990a14 .legends .legend text{fill-opacity:1}#chart-4949fbdb-eb29-4707-ab47-ae9ffc990a14 .axis.x text{text-anchor:middle}#chart-4949fbdb-eb29-4707-ab47-ae9ffc990a14 .axis.x:not(.web) text[transform]{text-anchor:start}#chart-4949fbdb-eb29-4707-ab47-ae9ffc990a14 .axis.x:not(.web) text[transform].backwards{text-anchor:end}#chart-4949fbdb-eb29-4707-ab47-ae9ffc990a14 .axis.y text{text-anchor:end}#chart-4949fbdb-eb29-4707-ab47-ae9ffc990a14 .axis.y text[transform].backwards{text-anchor:start}#chart-4949fbdb-eb29-4707-ab47-ae9ffc990a14 .axis.y2 text{text-anchor:start}#chart-4949fbdb-eb29-4707-ab47-ae9ffc990a14 .axis.y2 text[transform].backwards{text-anchor:end}#chart-4949fbdb-eb29-4707-ab47-ae9ffc990a14 .axis .guide.line{stroke-dasharray:4,4;stroke:black}#chart-4949fbdb-eb29-4707-ab47-ae9ffc990a14 .axis .major.guide.line{stroke-dasharray:6,6;stroke:black}#chart-4949fbdb-eb29-4707-ab47-ae9ffc990a14 .horizontal .axis.y .guide.line,#chart-4949fbdb-eb29-4707-ab47-ae9ffc990a14 .horizontal .axis.y2 .guide.line,#chart-4949fbdb-eb29-4707-ab47-ae9ffc990a14 .vertical .axis.x .guide.line{opacity:0}#chart-4949fbdb-eb29-4707-ab47-ae9ffc990a14 .horizontal .axis.always_show .guide.line,#chart-4949fbdb-eb29-4707-ab47-ae9ffc990a14 .vertical .axis.always_show .guide.line{opacity:1 !important}#chart-4949fbdb-eb29-4707-ab47-ae9ffc990a14 .axis.y .guides:hover .guide.line,#chart-4949fbdb-eb29-4707-ab47-ae9ffc990a14 .axis.y2 .guides:hover .guide.line,#chart-4949fbdb-eb29-4707-ab47-ae9ffc990a14 .axis.x .guides:hover .guide.line{opacity:1}#chart-4949fbdb-eb29-4707-ab47-ae9ffc990a14 .axis .guides:hover text{opacity:1}#chart-4949fbdb-eb29-4707-ab47-ae9ffc990a14 .nofill{fill:none}#chart-4949fbdb-eb29-4707-ab47-ae9ffc990a14 .subtle-fill{fill-opacity:.2}#chart-4949fbdb-eb29-4707-ab47-ae9ffc990a14 .dot{stroke-width:1px;fill-opacity:1;stroke-opacity:1}#chart-4949fbdb-eb29-4707-ab47-ae9ffc990a14 .dot.active{stroke-width:5px}#chart-4949fbdb-eb29-4707-ab47-ae9ffc990a14 .dot.negative{fill:transparent}#chart-4949fbdb-eb29-4707-ab47-ae9ffc990a14 text,#chart-4949fbdb-eb29-4707-ab47-ae9ffc990a14 tspan{stroke:none !important}#chart-4949fbdb-eb29-4707-ab47-ae9ffc990a14 .series text.active{opacity:1}#chart-4949fbdb-eb29-4707-ab47-ae9ffc990a14 .tooltip rect{fill-opacity:.95;stroke-width:.5}#chart-4949fbdb-eb29-4707-ab47-ae9ffc990a14 .tooltip text{fill-opacity:1}#chart-4949fbdb-eb29-4707-ab47-ae9ffc990a14 .showable{visibility:hidden}#chart-4949fbdb-eb29-4707-ab47-ae9ffc990a14 .showable.shown{visibility:visible}#chart-4949fbdb-eb29-4707-ab47-ae9ffc990a14 .gauge-background{fill:rgba(229,229,229,1);stroke:none}#chart-4949fbdb-eb29-4707-ab47-ae9ffc990a14 .bg-lines{stroke:rgba(249,249,249,1);stroke-width:2px}</style><script type="text/javascript">window.pygal = window.pygal || {};window.pygal.config = window.pygal.config || {};window.pygal.config['4949fbdb-eb29-4707-ab47-ae9ffc990a14'] = {"allow_interruptions": false, "box_mode": "extremes", "classes": ["pygal-chart", "pygal-sparkline"], "css": ["file://style.css", "file://graph.css"], "defs": [], "disable_xml_declaration": false, "dots_size": 2.5, "dynamic_print_values": false, "explicit_size": true, "fill": false, "force_uri_protocol": "https", "formatter": null, "half_pie": false, "height": 50, "include_x_axis": false, "inner_radius": 0, "interpolate": "cubic", "interpolation_parameters": {}, "interpolation_precision": 250, "inverse_y_axis": false, "js": [], "legend_at_bottom": false, "legend_at_bottom_columns": null, "legend_box_size": 12, "logarithmic": false, "margin": 10, "margin_bottom": null, "margin_left": null, "margin_right": null, "margin_top": null, "max_scale": 2, "min_scale": 1, "missing_value_fill_truncation": "x", "no_data_text": "", "no_prefix": false, "order_min": null, "pretty_print": false, "print_labels": false, "print_values": false, "print_values_position": "center", "print_zeroes": true, "range": null, "rounded_bars": null, "secondary_range": null, "show_dots": false, "show_legend": false, "show_minor_x_labels": true, "show_minor_y_labels": true, "show_only_major_dots": false, "show_x_guides": false, "show_x_labels": true, "show_y_guides": true, "show_y_labels": true, "spacing": 0, "stack_from_top": false, "strict": false, "stroke": true, "stroke_style": null, "style": {"background": "rgba(249, 249, 249, 1)", "ci_colors": [], "colors": ["#F44336", "#3F51B5", "#009688", "#FFC107", "#FF5722", "#9C27B0", "#03A9F4", "#8BC34A", "#FF9800", "#E91E63", "#2196F3", "#4CAF50", "#FFEB3B", "#673AB7", "#00BCD4", "#CDDC39", "#9E9E9E", "#607D8B"], "dot_opacity": "1", "font_family": "Consolas, \"Liberation Mono\", Menlo, Courier, monospace", "foreground": "rgba(0, 0, 0, .87)", "foreground_strong": "rgba(0, 0, 0, 1)", "foreground_subtle": "rgba(0, 0, 0, .54)", "guide_stroke_color": "black", "guide_stroke_dasharray": "4,4", "label_font_family": "Consolas, \"Liberation Mono\", Menlo, Courier, monospace", "label_font_size": 10, "legend_font_family": "Consolas, \"Liberation Mono\", Menlo, Courier, monospace", "legend_font_size": 14, "major_guide_stroke_color": "black", "major_guide_stroke_dasharray": "6,6", "major_label_font_family": "Consolas, \"Liberation Mono\", Menlo, Courier, monospace", "major_label_font_size": 10, "no_data_font_family": "Consolas, \"Liberation Mono\", Menlo, Courier, monospace", "no_data_font_size": 64, "opacity": ".7", "opacity_hover": ".8", "plot_background": "rgba(255, 255, 255, 1)", "stroke_opacity": ".8", "stroke_opacity_hover": ".9", "stroke_width": "1", "stroke_width_hover": "4", "title_font_family": "Consolas, \"Liberation Mono\", Menlo, Courier, monospace", "title_font_size": 16, "tooltip_font_family": "Consolas, \"Liberation Mono\", Menlo, Courier, monospace", "tooltip_font_size": 14, "transition": "150ms", "value_background": "rgba(229, 229, 229, 1)", "value_colors": [], "value_font_family": "Consolas, \"Liberation Mono\", Menlo, Courier, monospace", "value_font_size": 16, "value_label_font_family": "Consolas, \"Liberation Mono\", Menlo, Courier, monospace", "value_label_font_size": 10}, "title": null, "tooltip_border_radius": 0, "tooltip_fancy_mode": true, "truncate_label": null, "truncate_legend": null, "width": 200, "x_label_rotation": 0, "x_labels": ["2023/10", "2023/7", "2023/5"], "x_labels_major": null, "x_labels_major_count": null, "x_labels_major_every": null, "x_title": null, "xrange": null, "y_label_rotation": 0, "y_labels": null, "y_labels_major": null, "y_labels_major_count": null, "y_labels_major_every": null, "y_title": null, "zero": 0, "legends": [""]}</script></defs><title>Pygal</title><g class="graph line-graph vertical"><rect x="0" y="0" width="200" height="50" class="background" /><g transform="translate(70, 10)" class="plot"><rect x="0" y="0" width="120.0" height="20" class="background" /><g class="axis y always_show"><path d="M0.000000 20.000000 h120.000000" class="line" /><g class="guides"><path d="M0.000000 19.615385 h120.000000" class="guide line" /><text x="-5" y="23.115384615384617" class="">0.51887872</text><title>0.51887872</title></g><g class="guides"><path d="M0.000000 0.384615 h120.000000" class="guide line" /><text x="-5" y="3.8846153846153832" class="">6</text><title>6</title></g></g><g class="axis x"><g class="guides"><path d="M2.307692 0.000000 v20.000000" class="line" /><text x="2.3076923076923075" y="35.0" class="">2023/…</text><title>2023/10</title></g><g class="guides"><path d="M60.000000 0.000000 v20.000000" class="guide line" /><text x="60.0" y="35.0" class="">2023/7</text></g><g class="guides"><path d="M117.692308 0.000000 v20.000000" class="guide line" /><text x="117.6923076923077" y="35.0" class="">2023/5</text></g></g><g class="series serie-0 color-0"><path d="M2.307692 17.927348 L2.538462 17.944891 2.769231 17.962431 3.000000 17.979969 3.230769 17.997501 3.461538 18.015027 3.692308 18.032544 3.923077 18.050051 4.153846 18.067546 4.384615 18.085028 4.615385 18.102495 4.846154 18.119945 5.076923 18.137376 5.307692 18.154787 5.538462 18.172176 5.769231 18.189542 6.000000 18.206882 6.230769 18.224196 6.461538 18.241480 6.692308 18.258735 6.923077 18.275957 7.153846 18.293146 7.384615 18.310300 7.615385 18.327416 7.846154 18.344494 8.076923 18.361531 8.307692 18.378526 8.538462 18.395477 8.769231 18.412383 9.000000 18.429242 9.230769 18.446052 9.461538 18.462811 9.692308 18.479518 9.923077 18.496171 10.153846 18.512769 10.384615 18.529310 10.615385 18.545791 10.846154 18.562212 11.076923 18.578570 11.307692 18.594865 11.538462 18.611094 11.769231 18.627255 12.000000 18.643348 12.230769 18.659369 12.461538 18.675319 12.692308 18.691194 12.923077 18.706993 13.153846 18.722715 13.384615 18.738358 13.615385 18.753920 13.846154 18.769399 14.076923 18.784795 14.307692 18.800104 14.538462 18.815326 14.769231 18.830458 15.000000 18.845500 15.230769 18.860449 15.461538 18.875303 15.692308 18.890062 15.923077 18.904723 16.153846 18.919284 16.384615 18.933745 16.615385 18.948103 16.846154 18.962356 17.076923 18.976504 17.307692 18.990543 17.538462 19.004473 17.769231 19.018292 18.000000 19.031998 18.230769 19.045590 18.461538 19.059065 18.692308 19.072422 18.923077 19.085660 19.153846 19.098777 19.384615 19.111771 19.615385 19.124640 19.846154 19.137382 20.076923 19.149997 20.307692 19.162482 20.538462 19.174836 20.769231 19.187057 21.000000 19.199143 21.230769 19.211092 21.461538 19.222904 21.692308 19.234575 21.923077 19.246106 22.153846 19.257493 22.384615 19.268735 22.615385 19.279831 22.846154 19.290778 23.076923 19.301576 23.307692 19.312222 23.538462 19.322715 23.769231 19.333052 24.000000 19.343234 24.230769 19.353257 24.461538 19.363120 24.692308 19.372821 24.923077 19.382359 25.153846 19.391732 25.384615 19.400938 25.615385 19.409975 25.846154 19.418843 26.076923 19.427539 26.307692 19.436061 26.538462 19.444409 26.769231 19.452579 27.000000 19.460571 27.230769 19.468383 27.461538 19.476013 27.692308 19.483459 27.923077 19.490720 28.153846 19.497794 28.384615 19.504679 28.615385 19.511374 28.846154 19.517878 29.076923 19.524187 29.307692 19.530301 29.538462 19.536218 29.769231 19.541937 30.000000 19.547455 30.230769 19.552771 30.461538 19.557883 30.692308 19.562789 30.923077 19.567489 31.153846 19.571979 31.384615 19.576260 31.615385 19.580327 31.846154 19.584182 32.076923 19.587820 32.307692 19.591241 32.538462 19.594444 32.769231 19.597425 33.000000 19.600185 33.230769 19.602720 33.461538 19.605030 33.692308 19.607112 33.923077 19.608966 34.153846 19.610588 34.384615 19.611979 34.615385 19.613135 34.846154 19.614055 35.076923 19.614738 35.307692 19.615182 35.538462 19.615385 35.769231 19.615345 36.000000 19.615061 36.230769 19.614532 36.461538 19.613754 36.692308 19.612728 36.923077 19.611451 37.153846 19.609921 37.384615 19.608136 37.615385 19.606096 37.846154 19.603798 38.076923 19.601241 38.307692 19.598422 38.538462 19.595341 38.769231 19.591996 39.000000 19.588384 39.230769 19.584505 39.461538 19.580356 39.692308 19.575936 39.923077 19.571243 40.153846 19.566276 40.384615 19.561033 40.615385 19.555511 40.846154 19.549711 41.076923 19.543628 41.307692 19.537263 41.538462 19.530614 41.769231 19.523678 42.000000 19.516454 42.230769 19.508940 42.461538 19.501135 42.692308 19.493037 42.923077 19.484644 43.153846 19.475955 43.384615 19.466968 43.615385 19.457681 43.846154 19.448093 44.076923 19.438201 44.307692 19.428005 44.538462 19.417502 44.769231 19.406691 45.000000 19.395570 45.230769 19.384137 45.461538 19.372391 45.692308 19.360331 45.923077 19.347953 46.153846 19.335258 46.384615 19.322242 46.615385 19.308905 46.846154 19.295244 47.076923 19.281259 47.307692 19.266946 47.538462 19.252306 47.769231 19.237335 48.000000 19.222032 48.230769 19.206396 48.461538 19.190425 48.692308 19.174117 48.923077 19.157470 49.153846 19.140484 49.384615 19.123155 49.615385 19.105483 49.846154 19.087466 50.076923 19.069101 50.307692 19.050388 50.538462 19.031325 50.769231 19.011910 51.000000 18.992141 51.230769 18.972017 51.461538 18.951536 51.692308 18.930696 51.923077 18.909496 52.153846 18.887933 52.384615 18.866007 52.615385 18.843715 52.846154 18.821057 53.076923 18.798029 53.307692 18.774631 53.538462 18.750861 53.769231 18.726717 54.000000 18.702197 54.230769 18.677300 54.461538 18.652024 54.692308 18.626368 54.923077 18.600329 55.153846 18.573906 55.384615 18.547098 55.615385 18.519902 55.846154 18.492317 56.076923 18.464342 56.307692 18.435974 56.538462 18.407212 56.769231 18.378054 57.000000 18.348499 57.230769 18.318545 57.461538 18.288190 57.692308 18.257432 57.923077 18.226270 58.153846 18.194703 58.384615 18.162728 58.615385 18.130343 58.846154 18.097548 59.076923 18.064340 59.307692 18.030718 59.538462 17.996679 59.769231 17.962223 60.000000 17.927348 60.230769 17.892053 60.461538 17.856337 60.692308 17.820205 60.923077 17.783656 61.153846 17.746693 61.384615 17.709318 61.615385 17.671531 61.846154 17.633335 62.076923 17.594732 62.307692 17.555723 62.538462 17.516310 62.769231 17.476494 63.000000 17.436277 63.230769 17.395661 63.461538 17.354648 63.692308 17.313239 63.923077 17.271436 64.153846 17.229241 64.384615 17.186654 64.615385 17.143679 64.846154 17.100317 65.076923 17.056568 65.307692 17.012436 65.538462 16.967922 65.769231 16.923027 66.000000 16.877753 66.230769 16.832102 66.461538 16.786075 66.692308 16.739674 66.923077 16.692901 67.153846 16.645758 67.384615 16.598246 67.615385 16.550366 67.846154 16.502122 68.076923 16.453513 68.307692 16.404542 68.538462 16.355211 68.769231 16.305522 69.000000 16.255475 69.230769 16.205073 69.461538 16.154317 69.692308 16.103209 69.923077 16.051751 70.153846 15.999945 70.384615 15.947791 70.615385 15.895292 70.846154 15.842450 71.076923 15.789266 71.307692 15.735741 71.538462 15.681878 71.769231 15.627679 72.000000 15.573144 72.230769 15.518275 72.461538 15.463075 72.692308 15.407545 72.923077 15.351687 73.153846 15.295501 73.384615 15.238991 73.615385 15.182157 73.846154 15.125002 74.076923 15.067527 74.307692 15.009733 74.538462 14.951623 74.769231 14.893198 75.000000 14.834459 75.230769 14.775409 75.461538 14.716049 75.692308 14.656381 75.923077 14.596407 76.153846 14.536127 76.384615 14.475545 76.615385 14.414661 76.846154 14.353477 77.076923 14.291995 77.307692 14.230217 77.538462 14.168144 77.769231 14.105778 78.000000 14.043121 78.230769 13.980174 78.461538 13.916939 78.692308 13.853418 78.923077 13.789612 79.153846 13.725523 79.384615 13.661153 79.615385 13.596504 79.846154 13.531576 80.076923 13.466372 80.307692 13.400894 80.538462 13.335143 80.769231 13.269121 81.000000 13.202829 81.230769 13.136270 81.461538 13.069445 81.692308 13.002355 81.923077 12.935002 82.153846 12.867389 82.384615 12.799516 82.615385 12.731385 82.846154 12.662998 83.076923 12.594357 83.307692 12.525464 83.538462 12.456319 83.769231 12.386926 84.000000 12.317284 84.230769 12.247397 84.461538 12.177266 84.692308 12.106892 84.923077 12.036277 85.153846 11.965424 85.384615 11.894332 85.615385 11.823005 85.846154 11.751444 86.076923 11.679650 86.307692 11.607626 86.538462 11.535373 86.769231 11.462892 87.000000 11.390186 87.230769 11.317255 87.461538 11.244103 87.692308 11.170730 87.923077 11.097137 88.153846 11.023328 88.384615 10.949303 88.615385 10.875064 88.846154 10.800613 89.076923 10.725951 89.307692 10.651081 89.538462 10.576003 89.769231 10.500720 90.000000 10.425234 90.230769 10.349545 90.461538 10.273655 90.692308 10.197567 90.923077 10.121282 91.153846 10.044802 91.384615 9.968128 91.615385 9.891262 91.846154 9.814205 92.076923 9.736960 92.307692 9.659528 92.538462 9.581911 92.769231 9.504110 93.000000 9.426128 93.230769 9.347965 93.461538 9.269624 93.692308 9.191105 93.923077 9.112412 94.153846 9.033545 94.384615 8.954507 94.615385 8.875298 94.846154 8.795921 95.076923 8.716377 95.307692 8.636668 95.538462 8.556796 95.769231 8.476762 96.000000 8.396568 96.230769 8.316216 96.461538 8.235707 96.692308 8.155044 96.923077 8.074227 97.153846 7.993258 97.384615 7.912140 97.615385 7.830873 97.846154 7.749460 98.076923 7.667902 98.307692 7.586201 98.538462 7.504358 98.769231 7.422376 99.000000 7.340255 99.230769 7.257998 99.461538 7.175607 99.692308 7.093082 99.923077 7.010426 100.153846 6.927640 100.384615 6.844727 100.615385 6.761687 100.846154 6.678522 101.076923 6.595235 101.307692 6.511826 101.538462 6.428297 101.769231 6.344651 102.000000 6.260889 102.230769 6.177012 102.461538 6.093022 102.692308 6.008921 102.923077 5.924710 103.153846 5.840392 103.384615 5.755968 103.615385 5.671439 103.846154 5.586808 104.076923 5.502075 104.307692 5.417243 104.538462 5.332314 104.769231 5.247288 105.000000 5.162168 105.230769 5.076956 105.461538 4.991652 105.692308 4.906260 105.923077 4.820779 106.153846 4.735213 106.384615 4.649563 106.615385 4.563830 106.846154 4.478016 107.076923 4.392123 107.307692 4.306153 107.538462 4.220107 107.769231 4.133987 108.000000 4.047794 108.230769 3.961531 108.461538 3.875198 108.692308 3.788798 108.923077 3.702333 109.153846 3.615803 109.384615 3.529212 109.615385 3.442559 109.846154 3.355848 110.076923 3.269079 110.307692 3.182255 110.538462 3.095377 110.769231 3.008447 111.000000 2.921466 111.230769 2.834436 111.461538 2.747360 111.692308 2.660237 111.923077 2.573071 112.153846 2.485863 112.384615 2.398615 112.615385 2.311327 112.846154 2.224003 113.076923 2.136643 113.307692 2.049250 113.538462 1.961824 113.769231 1.874369 114.000000 1.786884 114.230769 1.699373 114.461538 1.611836 114.692308 1.524276 114.923077 1.436694 115.153846 1.349092 115.384615 1.261471 115.615385 1.173834 115.846154 1.086181 116.076923 0.998515 116.307692 0.910837 116.538462 0.823149 116.769231 0.735452 117.000000 0.647749 117.230769 0.560040 117.461538 0.472329 117.692308 0.384615" class="line reactive nofill" /></g></g><g class="titles" /><g transform="translate(70, 10)" class="plot overlay"><g class="series serie-0 color-0" /></g><g transform="translate(70, 10)" class="plot text-overlay"><g class="series serie-0 color-0" /></g><g transform="translate(70, 10)" class="plot tooltip-overlay"><g transform="translate(0 0)" style="opacity: 0" class="tooltip"><rect rx="0" ry="0" width="0" height="0" class="tooltip-box" /><g class="text" /></g></g></g></svg>