<?xml version='1.0' encoding='utf-8'?>
<svg xmlns="http://www.w3.org/2000/svg" id="chart-71a77133-9b13-44f0-964a-7b202802c268" class="pygal-chart pygal-sparkline" viewBox="0 0 200 50" width="200" height="50"><!--Generated with pygal 3.0.5 (etree) ©Kozea 2012-2016 on 2025-03-30--><!--http://pygal.org--><!--http://github.com/Kozea/pygal--><defs><style type="text/css">#chart-71a77133-9b13-44f0-964a-7b202802c268{-webkit-user-select:none;-webkit-font-smoothing:antialiased;font-family:Consolas,"Liberation Mono",Menlo,Courier,monospace}#chart-71a77133-9b13-44f0-964a-7b202802c268 .title{font-family:Consolas,"Liberation Mono",Menlo,Courier,monospace;font-size:16px}#chart-71a77133-9b13-44f0-964a-7b202802c268 .legends .legend text{font-family:Consolas,"Liberation Mono",Menlo,Courier,monospace;font-size:14px}#chart-71a77133-9b13-44f0-964a-7b202802c268 .axis text{font-family:Consolas,"Liberation Mono",Menlo,Courier,monospace;font-size:10px}#chart-71a77133-9b13-44f0-964a-7b202802c268 .axis text.major{font-family:Consolas,"Liberation Mono",Menlo,Courier,monospace;font-size:10px}#chart-71a77133-9b13-44f0-964a-7b202802c268 .text-overlay text.value{font-family:Consolas,"Liberation Mono",Menlo,Courier,monospace;font-size:16px}#chart-71a77133-9b13-44f0-964a-7b202802c268 .text-overlay text.label{font-family:Consolas,"Liberation Mono",Menlo,Courier,monospace;font-size:10px}#chart-71a77133-9b13-44f0-964a-7b202802c268 .tooltip{font-family:Consolas,"Liberation Mono",Menlo,Courier,monospace;font-size:14px}#chart-71a77133-9b13-44f0-964a-7b202802c268 text.no_data{font-family:Consolas,"Liberation Mono",Menlo,Courier,monospace;font-size:64px}
#chart-71a77133-9b13-44f0-964a-7b202802c268{background-color:rgba(249,249,249,1)}#chart-71a77133-9b13-44f0-964a-7b202802c268 path,#chart-71a77133-9b13-44f0-964a-7b202802c268 line,#chart-71a77133-9b13-44f0-964a-7b202802c268 rect,#chart-71a77133-9b13-44f0-964a-7b202802c268 circle{-webkit-transition:150ms;-moz-transition:150ms;transition:150ms}#chart-71a77133-9b13-44f0-964a-7b202802c268 .graph &gt; .background{fill:rgba(249,249,249,1)}#chart-71a77133-9b13-44f0-964a-7b202802c268 .plot &gt; .background{fill:rgba(255,255,255,1)}#chart-71a77133-9b13-44f0-964a-7b202802c268 .graph{fill:rgba(0,0,0,.87)}#chart-71a77133-9b13-44f0-964a-7b202802c268 text.no_data{fill:rgba(0,0,0,1)}#chart-71a77133-9b13-44f0-964a-7b202802c268 .title{fill:rgba(0,0,0,1)}#chart-71a77133-9b13-44f0-964a-7b202802c268 .legends .legend text{fill:rgba(0,0,0,.87)}#chart-71a77133-9b13-44f0-964a-7b202802c268 .legends .legend:hover text{fill:rgba(0,0,0,1)}#chart-71a77133-9b13-44f0-964a-7b202802c268 .axis .line{stroke:rgba(0,0,0,1)}#chart-71a77133-9b13-44f0-964a-7b202802c268 .axis .guide.line{stroke:rgba(0,0,0,.54)}#chart-71a77133-9b13-44f0-964a-7b202802c268 .axis .major.line{stroke:rgba(0,0,0,.87)}#chart-71a77133-9b13-44f0-964a-7b202802c268 .axis text.major{fill:rgba(0,0,0,1)}#chart-71a77133-9b13-44f0-964a-7b202802c268 .axis.y .guides:hover .guide.line,#chart-71a77133-9b13-44f0-964a-7b202802c268 .line-graph .axis.x .guides:hover .guide.line,#chart-71a77133-9b13-44f0-964a-7b202802c268 .stackedline-graph .axis.x .guides:hover .guide.line,#chart-71a77133-9b13-44f0-964a-7b202802c268 .xy-graph .axis.x .guides:hover .guide.line{stroke:rgba(0,0,0,1)}#chart-71a77133-9b13-44f0-964a-7b202802c268 .axis .guides:hover text{fill:rgba(0,0,0,1)}#chart-71a77133-9b13-44f0-964a-7b202802c268 .reactive{fill-opacity:.7;stroke-opacity:.8;stroke-width:1}#chart-71a77133-9b13-44f0-964a-7b202802c268 .ci{stroke:rgba(0,0,0,.87)}#chart-71a77133-9b13-44f0-964a-7b202802c268 .reactive.active,#chart-71a77133-9b13-44f0-964a-7b202802c268 .active .reactive{fill-opacity:.8;stroke-opacity:.9;stroke-width:4}#chart-71a77133-9b13-44f0-964a-7b202802c268 .ci .reactive.active{stroke-width:1.5}#chart-71a77133-9b13-44f0-964a-7b202802c268 .series text{fill:rgba(0,0,0,1)}#chart-71a77133-9b13-44f0-964a-7b202802c268 .tooltip rect{fill:rgba(255,255,255,1);stroke:rgba(0,0,0,1);-webkit-transition:opacity 150ms;-moz-transition:opacity 150ms;transition:opacity 150ms}#chart-71a77133-9b13-44f0-964a-7b202802c268 .tooltip .label{fill:rgba(0,0,0,.87)}#chart-71a77133-9b13-44f0-964a-7b202802c268 .tooltip .label{fill:rgba(0,0,0,.87)}#chart-71a77133-9b13-44f0-964a-7b202802c268 .tooltip .legend{font-size:.8em;fill:rgba(0,0,0,.54)}#chart-71a77133-9b13-44f0-964a-7b202802c268 .tooltip .x_label{font-size:.6em;fill:rgba(0,0,0,1)}#chart-71a77133-9b13-44f0-964a-7b202802c268 .tooltip .xlink{font-size:.5em;text-decoration:underline}#chart-71a77133-9b13-44f0-964a-7b202802c268 .tooltip .value{font-size:1.5em}#chart-71a77133-9b13-44f0-964a-7b202802c268 .bound{font-size:.5em}#chart-71a77133-9b13-44f0-964a-7b202802c268 .max-value{font-size:.75em;fill:rgba(0,0,0,.54)}#chart-71a77133-9b13-44f0-964a-7b202802c268 .map-element{fill:rgba(255,255,255,1);stroke:rgba(0,0,0,.54) !important}#chart-71a77133-9b13-44f0-964a-7b202802c268 .map-element .reactive{fill-opacity:inherit;stroke-opacity:inherit}#chart-71a77133-9b13-44f0-964a-7b202802c268 .color-0,#chart-71a77133-9b13-44f0-964a-7b202802c268 .color-0 a:visited{stroke:#F44336;fill:#F44336}#chart-71a77133-9b13-44f0-964a-7b202802c268 .text-overlay .color-0 text{fill:black}
#chart-71a77133-9b13-44f0-964a-7b202802c268 text.no_data{text-anchor:middle}#chart-71a77133-9b13-44f0-964a-7b202802c268 .guide.line{fill:none}#chart-71a77133-9b13-44f0-964a-7b202802c268 .centered{text-anchor:middle}#chart-71a77133-9b13-44f0-964a-7b202802c268 .title{text-anchor:middle}#chart-71a77133-9b13-44f0-964a-7b202802c268 .legends .legend text{fill-opacity:1}#chart-71a77133-9b13-44f0-964a-7b202802c268 .axis.x text{text-anchor:middle}#chart-71a77133-9b13-44f0-964a-7b202802c268 .axis.x:not(.web) text[transform]{text-anchor:start}#chart-71a77133-9b13-44f0-964a-7b202802c268 .axis.x:not(.web) text[transform].backwards{text-anchor:end}#chart-71a77133-9b13-44f0-964a-7b202802c268 .axis.y text{text-anchor:end}#chart-71a77133-9b13-44f0-964a-7b202802c268 .axis.y text[transform].backwards{text-anchor:start}#chart-71a77133-9b13-44f0-964a-7b202802c268 .axis.y2 text{text-anchor:start}#chart-71a77133-9b13-44f0-964a-7b202802c268 .axis.y2 text[transform].backwards{text-anchor:end}#chart-71a77133-9b13-44f0-964a-7b202802c268 .axis .guide.line{stroke-dasharray:4,4;stroke:black}#chart-71a77133-9b13-44f0-964a-7b202802c268 .axis .major.guide.line{stroke-dasharray:6,6;stroke:black}#chart-71a77133-9b13-44f0-964a-7b202802c268 .horizontal .axis.y .guide.line,#chart-71a77133-9b13-44f0-964a-7b202802c268 .horizontal .axis.y2 .guide.line,#chart-71a77133-9b13-44f0-964a-7b202802c268 .vertical .axis.x .guide.line{opacity:0}#chart-71a77133-9b13-44f0-964a-7b202802c268 .horizontal .axis.always_show .guide.line,#chart-71a77133-9b13-44f0-964a-7b202802c268 .vertical .axis.always_show .guide.line{opacity:1 !important}#chart-71a77133-9b13-44f0-964a-7b202802c268 .axis.y .guides:hover .guide.line,#chart-71a77133-9b13-44f0-964a-7b202802c268 .axis.y2 .guides:hover .guide.line,#chart-71a77133-9b13-44f0-964a-7b202802c268 .axis.x .guides:hover .guide.line{opacity:1}#chart-71a77133-9b13-44f0-964a-7b202802c268 .axis .guides:hover text{opacity:1}#chart-71a77133-9b13-44f0-964a-7b202802c268 .nofill{fill:none}#chart-71a77133-9b13-44f0-964a-7b202802c268 .subtle-fill{fill-opacity:.2}#chart-71a77133-9b13-44f0-964a-7b202802c268 .dot{stroke-width:1px;fill-opacity:1;stroke-opacity:1}#chart-71a77133-9b13-44f0-964a-7b202802c268 .dot.active{stroke-width:5px}#chart-71a77133-9b13-44f0-964a-7b202802c268 .dot.negative{fill:transparent}#chart-71a77133-9b13-44f0-964a-7b202802c268 text,#chart-71a77133-9b13-44f0-964a-7b202802c268 tspan{stroke:none !important}#chart-71a77133-9b13-44f0-964a-7b202802c268 .series text.active{opacity:1}#chart-71a77133-9b13-44f0-964a-7b202802c268 .tooltip rect{fill-opacity:.95;stroke-width:.5}#chart-71a77133-9b13-44f0-964a-7b202802c268 .tooltip text{fill-opacity:1}#chart-71a77133-9b13-44f0-964a-7b202802c268 .showable{visibility:hidden}#chart-71a77133-9b13-44f0-964a-7b202802c268 .showable.shown{visibility:visible}#chart-71a77133-9b13-44f0-964a-7b202802c268 .gauge-background{fill:rgba(229,229,229,1);stroke:none}#chart-71a77133-9b13-44f0-964a-7b202802c268 .bg-lines{stroke:rgba(249,249,249,1);stroke-width:2px}</style><script type="text/javascript">window.pygal = window.pygal || {};window.pygal.config = window.pygal.config || {};window.pygal.config['71a77133-9b13-44f0-964a-7b202802c268'] = {"allow_interruptions": false, "box_mode": "extremes", "classes": ["pygal-chart", "pygal-sparkline"], "css": ["file://style.css", "file://graph.css"], "defs": [], "disable_xml_declaration": false, "dots_size": 2.5, "dynamic_print_values": false, "explicit_size": true, "fill": false, "force_uri_protocol": "https", "formatter": null, "half_pie": false, "height": 50, "include_x_axis": false, "inner_radius": 0, "interpolate": "cubic", "interpolation_parameters": {}, "interpolation_precision": 250, "inverse_y_axis": false, "js": [], "legend_at_bottom": false, "legend_at_bottom_columns": null, "legend_box_size": 12, "logarithmic": false, "margin": 10, "margin_bottom": null, "margin_left": null, "margin_right": null, "margin_top": null, "max_scale": 2, "min_scale": 1, "missing_value_fill_truncation": "x", "no_data_text": "", "no_prefix": false, "order_min": null, "pretty_print": false, "print_labels": false, "print_values": false, "print_values_position": "center", "print_zeroes": true, "range": null, "rounded_bars": null, "secondary_range": null, "show_dots": false, "show_legend": false, "show_minor_x_labels": true, "show_minor_y_labels": true, "show_only_major_dots": false, "show_x_guides": false, "show_x_labels": false, "show_y_guides": true, "show_y_labels": true, "spacing": 0, "stack_from_top": false, "strict": false, "stroke": true, "stroke_style": null, "style": {"background": "rgba(249, 249, 249, 1)", "ci_colors": [], "colors": ["#F44336", "#3F51B5", "#009688", "#FFC107", "#FF5722", "#9C27B0", "#03A9F4", "#8BC34A", "#FF9800", "#E91E63", "#2196F3", "#4CAF50", "#FFEB3B", "#673AB7", "#00BCD4", "#CDDC39", "#9E9E9E", "#607D8B"], "dot_opacity": "1", "font_family": "Consolas, \"Liberation Mono\", Menlo, Courier, monospace", "foreground": "rgba(0, 0, 0, .87)", "foreground_strong": "rgba(0, 0, 0, 1)", "foreground_subtle": "rgba(0, 0, 0, .54)", "guide_stroke_color": "black", "guide_stroke_dasharray": "4,4", "label_font_family": "Consolas, \"Liberation Mono\", Menlo, Courier, monospace", "label_font_size": 10, "legend_font_family": "Consolas, \"Liberation Mono\", Menlo, Courier, monospace", "legend_font_size": 14, "major_guide_stroke_color": "black", "major_guide_stroke_dasharray": "6,6", "major_label_font_family": "Consolas, \"Liberation Mono\", Menlo, Courier, monospace", "major_label_font_size": 10, "no_data_font_family": "Consolas, \"Liberation Mono\", Menlo, Courier, monospace", "no_data_font_size": 64, "opacity": ".7", "opacity_hover": ".8", "plot_background": "rgba(255, 255, 255, 1)", "stroke_opacity": ".8", "stroke_opacity_hover": ".9", "stroke_width": "1", "stroke_width_hover": "4", "title_font_family": "Consolas, \"Liberation Mono\", Menlo, Courier, monospace", "title_font_size": 16, "tooltip_font_family": "Consolas, \"Liberation Mono\", Menlo, Courier, monospace", "tooltip_font_size": 14, "transition": "150ms", "value_background": "rgba(229, 229, 229, 1)", "value_colors": [], "value_font_family": "Consolas, \"Liberation Mono\", Menlo, Courier, monospace", "value_font_size": 16, "value_label_font_family": "Consolas, \"Liberation Mono\", Menlo, Courier, monospace", "value_label_font_size": 10}, "title": null, "tooltip_border_radius": 0, "tooltip_fancy_mode": true, "truncate_label": null, "truncate_legend": null, "width": 200, "x_label_rotation": 0, "x_labels": ["2025/3", "2025/1", "2024/12", "2024/11", "2024/10", "2024/8", "2024/5", "2024/4", "2024/3", "2024/2"], "x_labels_major": null, "x_labels_major_count": null, "x_labels_major_every": null, "x_title": null, "xrange": null, "y_label_rotation": 0, "y_labels": null, "y_labels_major": null, "y_labels_major_count": null, "y_labels_major_every": null, "y_title": null, "zero": 0, "legends": [""]}</script></defs><title>Pygal</title><g class="graph line-graph vertical"><rect x="0" y="0" width="200" height="50" class="background" /><g transform="translate(94, 10)" class="plot"><rect x="0" y="0" width="96.0" height="30" class="background" /><g class="axis y always_show"><path d="M0.000000 30.000000 h96.000000" class="line" /><g class="guides"><path d="M0.000000 29.423077 h96.000000" class="guide line" /><text x="-5" y="32.92307692307692" class="">0.002555954949</text><title>0.002555954949</title></g><g class="guides"><path d="M0.000000 0.576923 h96.000000" class="guide line" /><text x="-5" y="4.076923076923077" class="">9.010039977</text><title>9.010039977</title></g></g><g class="series serie-0 color-0"><path d="M1.846154 16.621402 L1.887179 16.648713 1.928205 16.676022 1.969231 16.703329 2.010256 16.730632 2.051282 16.757929 2.092308 16.785219 2.133333 16.812501 2.174359 16.839773 2.215385 16.867034 2.256410 16.894282 2.297436 16.921517 2.338462 16.948736 2.379487 16.975938 2.420513 17.003123 2.461538 17.030288 2.502564 17.057432 2.543590 17.084553 2.584615 17.111651 2.625641 17.138724 2.666667 17.165771 2.707692 17.192790 2.748718 17.219779 2.789744 17.246738 2.830769 17.273665 2.871795 17.300558 2.912821 17.327417 2.953846 17.354239 2.994872 17.381024 3.035897 17.407770 3.076923 17.434475 3.117949 17.461139 3.158974 17.487759 3.200000 17.514335 3.241026 17.540865 3.282051 17.567348 3.323077 17.593782 3.364103 17.620166 3.405128 17.646498 3.446154 17.672778 3.487179 17.699003 3.528205 17.725173 3.569231 17.751285 3.610256 17.777339 3.651282 17.803333 3.692308 17.829266 3.733333 17.855136 3.774359 17.880942 3.815385 17.906683 3.856410 17.932357 3.897436 17.957962 3.938462 17.983499 3.979487 18.008964 4.020513 18.034356 4.061538 18.059675 4.102564 18.084919 4.143590 18.110086 4.184615 18.135175 4.225641 18.160185 4.266667 18.185114 4.307692 18.209961 4.348718 18.234725 4.389744 18.259403 4.430769 18.283995 4.471795 18.308500 4.512821 18.332915 4.553846 18.357240 4.594872 18.381473 4.635897 18.405613 4.676923 18.429658 4.717949 18.453607 4.758974 18.477459 4.800000 18.501211 4.841026 18.524864 4.882051 18.548415 4.923077 18.571863 4.964103 18.595206 5.005128 18.618444 5.046154 18.641574 5.087179 18.664596 5.128205 18.687508 5.169231 18.710308 5.210256 18.732996 5.251282 18.755570 5.292308 18.778028 5.333333 18.800369 5.374359 18.822592 5.415385 18.844695 5.456410 18.866677 5.497436 18.888536 5.538462 18.910272 5.579487 18.931882 5.620513 18.953366 5.661538 18.974721 5.702564 18.995947 5.743590 19.017042 5.784615 19.038005 5.825641 19.058834 5.866667 19.079529 5.907692 19.100086 5.948718 19.120506 5.989744 19.140787 6.030769 19.160927 6.071795 19.180925 6.112821 19.200780 6.153846 19.220490 6.194872 19.240054 6.235897 19.259470 6.276923 19.278738 6.317949 19.297854 6.358974 19.316820 6.400000 19.335632 6.441026 19.354289 6.482051 19.372791 6.523077 19.391135 6.564103 19.409321 6.605128 19.427346 6.646154 19.445210 6.687179 19.462911 6.728205 19.480448 6.769231 19.497819 6.810256 19.515024 6.851282 19.532059 6.892308 19.548925 6.933333 19.565620 6.974359 19.582142 7.015385 19.598490 7.056410 19.614662 7.097436 19.630658 7.138462 19.646476 7.179487 19.662114 7.220513 19.677571 7.261538 19.692845 7.302564 19.707936 7.343590 19.722842 7.384615 19.737561 7.425641 19.752092 7.466667 19.766434 7.507692 19.780585 7.548718 19.794544 7.589744 19.808310 7.630769 19.821881 7.671795 19.835255 7.712821 19.848432 7.753846 19.861409 7.794872 19.874186 7.835897 19.886762 7.876923 19.899134 7.917949 19.911301 7.958974 19.923262 8.000000 19.935016 8.041026 19.946561 8.082051 19.957896 8.123077 19.969020 8.164103 19.979930 8.205128 19.990626 8.246154 20.001106 8.287179 20.011369 8.328205 20.021413 8.369231 20.031238 8.410256 20.040841 8.451282 20.050221 8.492308 20.059377 8.533333 20.068308 8.574359 20.077012 8.615385 20.085487 8.656410 20.093733 8.697436 20.101748 8.738462 20.109530 8.779487 20.117078 8.820513 20.124391 8.861538 20.131467 8.902564 20.138306 8.943590 20.144905 8.984615 20.151263 9.025641 20.157378 9.066667 20.163250 9.107692 20.168878 9.148718 20.174258 9.189744 20.179391 9.230769 20.184275 9.271795 20.188908 9.312821 20.193289 9.353846 20.197417 9.394872 20.201290 9.435897 20.204907 9.476923 20.208266 9.517949 20.211367 9.558974 20.214207 9.600000 20.216785 9.641026 20.219101 9.682051 20.221151 9.723077 20.222936 9.764103 20.224454 9.805128 20.225703 9.846154 20.226681 9.887179 20.227389 9.928205 20.227823 9.969231 20.227983 10.010256 20.227868 10.051282 20.227475 10.092308 20.226805 10.133333 20.225854 10.174359 20.224622 10.215385 20.223107 10.256410 20.221309 10.297436 20.219225 10.338462 20.216854 10.379487 20.214196 10.420513 20.211247 10.461538 20.208008 10.502564 20.204476 10.543590 20.200651 10.584615 20.196530 10.625641 20.192113 10.666667 20.187398 10.707692 20.182383 10.748718 20.177068 10.789744 20.171451 10.830769 20.165531 10.871795 20.159305 10.912821 20.152773 10.953846 20.145934 10.994872 20.138785 11.035897 20.131326 11.076923 20.123556 11.117949 20.115472 11.158974 20.107073 11.200000 20.098358 11.241026 20.089326 11.282051 20.079975 11.323077 20.070304 11.364103 20.060312 11.405128 20.049996 11.446154 20.039356 11.487179 20.028391 11.528205 20.017098 11.569231 20.005476 11.610256 19.993525 11.651282 19.981242 11.692308 19.968627 11.733333 19.955677 11.774359 19.942392 11.815385 19.928770 11.856410 19.914810 11.897436 19.900510 11.938462 19.885869 11.979487 19.870886 12.020513 19.855558 12.061538 19.839886 12.102564 19.823867 12.143590 19.807500 12.184615 19.790789 12.225641 19.773736 12.266667 19.756346 12.307692 19.738620 12.348718 19.720562 12.389744 19.702176 12.430769 19.683465 12.471795 19.664432 12.512821 19.645081 12.553846 19.625414 12.594872 19.605435 12.635897 19.585147 12.676923 19.564554 12.717949 19.543659 12.758974 19.522464 12.800000 19.500974 12.841026 19.479192 12.882051 19.457120 12.923077 19.434763 12.964103 19.412122 13.005128 19.389203 13.046154 19.366008 13.087179 19.342539 13.128205 19.318801 13.169231 19.294797 13.210256 19.270530 13.251282 19.246004 13.292308 19.221220 13.333333 19.196184 13.374359 19.170898 13.415385 19.145365 13.456410 19.119589 13.497436 19.093572 13.538462 19.067319 13.579487 19.040833 13.620513 19.014116 13.661538 18.987172 13.702564 18.960004 13.743590 18.932616 13.784615 18.905011 13.825641 18.877192 13.866667 18.849162 13.907692 18.820925 13.948718 18.792484 13.989744 18.763842 14.030769 18.735002 14.071795 18.705969 14.112821 18.676744 14.153846 18.647331 14.194872 18.617734 14.235897 18.587956 14.276923 18.558000 14.317949 18.527869 14.358974 18.497567 14.400000 18.467096 14.441026 18.436461 14.482051 18.405665 14.523077 18.374710 14.564103 18.343600 14.605128 18.312338 14.646154 18.280928 14.687179 18.249372 14.728205 18.217675 14.769231 18.185839 14.810256 18.153867 14.851282 18.121764 14.892308 18.089532 14.933333 18.057174 14.974359 18.024693 15.015385 17.992094 15.056410 17.959379 15.097436 17.926551 15.138462 17.893615 15.179487 17.860572 15.220513 17.827427 15.261538 17.794182 15.302564 17.760841 15.343590 17.727407 15.384615 17.693884 15.425641 17.660274 15.466667 17.626581 15.507692 17.592809 15.548718 17.558960 15.589744 17.525038 15.630769 17.491045 15.671795 17.456986 15.712821 17.422864 15.753846 17.388682 15.794872 17.354442 15.835897 17.320149 15.876923 17.285806 15.917949 17.251416 15.958974 17.216982 16.000000 17.182507 16.041026 17.147995 16.082051 17.113449 16.123077 17.078873 16.164103 17.044269 16.205128 17.009640 16.246154 16.974991 16.287179 16.940325 16.328205 16.905644 16.369231 16.870951 16.410256 16.836252 16.451282 16.801547 16.492308 16.766841 16.533333 16.732138 16.574359 16.697439 16.615385 16.662749 16.656410 16.628071 16.697436 16.593408 16.738462 16.558764 16.779487 16.524141 16.820513 16.489543 16.861538 16.454973 16.902564 16.420435 16.943590 16.385931 16.984615 16.351465 17.025641 16.317041 17.066667 16.282661 17.107692 16.248329 17.148718 16.214048 17.189744 16.179821 17.230769 16.145652 17.271795 16.111544 17.312821 16.077500 17.353846 16.043524 17.394872 16.009618 17.435897 15.975786 17.476923 15.942032 17.517949 15.908358 17.558974 15.874768 17.600000 15.841264 17.641026 15.807852 17.682051 15.774532 17.723077 15.741310 17.764103 15.708188 17.805128 15.675169 17.846154 15.642257 17.887179 15.609455 17.928205 15.576766 17.969231 15.544194 18.010256 15.511741 18.051282 15.479412 18.092308 15.447209 18.133333 15.415135 18.174359 15.383194 18.215385 15.351390 18.256410 15.319725 18.297436 15.288202 18.338462 15.256825 18.379487 15.225598 18.420513 15.194523 18.461538 15.163604 18.502564 15.132844 18.543590 15.102247 18.584615 15.071815 18.625641 15.041551 18.666667 15.011460 18.707692 14.981544 18.748718 14.951807 18.789744 14.922252 18.830769 14.892882 18.871795 14.863701 18.912821 14.834711 18.953846 14.805916 18.994872 14.777320 19.035897 14.748925 19.076923 14.720735 19.117949 14.692754 19.158974 14.664983 19.200000 14.637427 19.241026 14.610089 19.282051 14.582973 19.323077 14.556080 19.364103 14.529416 19.405128 14.502983 19.446154 14.476783 19.487179 14.450822 19.528205 14.425101 19.569231 14.399624 19.610256 14.374395 19.651282 14.349416 19.692308 14.324691 19.733333 14.300224 19.774359 14.276017 19.815385 14.252073 19.856410 14.228397 19.897436 14.204991 19.938462 14.181858 19.979487 14.159002 20.020513 14.136426 20.061538 14.114134 20.102564 14.092128 20.143590 14.070412 20.184615 14.048990 20.225641 14.027863 20.266667 14.007037 20.307692 13.986513 20.348718 13.966296 20.389744 13.946388 20.430769 13.926793 20.471795 13.907514 20.512821 13.888555 20.553846 13.869918 20.594872 13.851607 20.635897 13.833625 20.676923 13.815975 20.717949 13.798661 20.758974 13.781687 20.800000 13.765054 20.841026 13.748767 20.882051 13.732829 20.923077 13.717242 20.964103 13.702011 21.005128 13.687139 21.046154 13.672629 21.087179 13.658483 21.128205 13.644706 21.169231 13.631301 21.210256 13.618271 21.251282 13.605619 21.292308 13.593348 21.333333 13.581462 21.374359 13.569965 21.415385 13.558858 21.456410 13.548146 21.497436 13.537832 21.538462 13.527920 21.579487 13.518411 21.620513 13.509310 21.661538 13.500620 21.702564 13.492345 21.743590 13.484487 21.784615 13.477049 21.825641 13.470036 21.866667 13.463450 21.907692 13.457294 21.948718 13.451572 21.989744 13.446288 22.030769 13.441444 22.071795 13.437043 22.112821 13.433089 22.153846 13.429586 22.194872 13.426536 22.235897 13.423943 22.276923 13.421810 22.317949 13.420140 22.358974 13.418936 22.400000 13.418202 22.441026 13.417936 22.482051 13.418135 22.523077 13.418799 22.564103 13.419926 22.605128 13.421513 22.646154 13.423558 22.687179 13.426061 22.728205 13.429018 22.769231 13.432429 22.810256 13.436290 22.851282 13.440602 22.892308 13.445360 22.933333 13.450565 22.974359 13.456213 23.015385 13.462303 23.056410 13.468834 23.097436 13.475803 23.138462 13.483208 23.179487 13.491048 23.220513 13.499320 23.261538 13.508023 23.302564 13.517156 23.343590 13.526715 23.384615 13.536700 23.425641 13.547108 23.466667 13.557938 23.507692 13.569187 23.548718 13.580854 23.589744 13.592938 23.630769 13.605435 23.671795 13.618345 23.712821 13.631665 23.753846 13.645394 23.794872 13.659530 23.835897 13.674070 23.876923 13.689014 23.917949 13.704358 23.958974 13.720102 24.000000 13.736244 24.041026 13.752781 24.082051 13.769711 24.123077 13.787034 24.164103 13.804747 24.205128 13.822848 24.246154 13.841335 24.287179 13.860206 24.328205 13.879461 24.369231 13.899096 24.410256 13.919110 24.451282 13.939501 24.492308 13.960267 24.533333 13.981406 24.574359 14.002917 24.615385 14.024798 24.656410 14.047046 24.697436 14.069660 24.738462 14.092639 24.779487 14.115979 24.820513 14.139680 24.861538 14.163739 24.902564 14.188155 24.943590 14.212926 24.984615 14.238049 25.025641 14.263524 25.066667 14.289348 25.107692 14.315519 25.148718 14.342036 25.189744 14.368897 25.230769 14.396099 25.271795 14.423641 25.312821 14.451521 25.353846 14.479738 25.394872 14.508288 25.435897 14.537172 25.476923 14.566386 25.517949 14.595928 25.558974 14.625798 25.600000 14.655993 25.641026 14.686511 25.682051 14.717350 25.723077 14.748509 25.764103 14.779986 25.805128 14.811778 25.846154 14.843884 25.887179 14.876303 25.928205 14.909031 25.969231 14.942068 26.010256 14.975412 26.051282 15.009060 26.092308 15.043011 26.133333 15.077263 26.174359 15.111814 26.215385 15.146663 26.256410 15.181807 26.297436 15.217244 26.338462 15.252973 26.379487 15.288992 26.420513 15.325298 26.461538 15.361891 26.502564 15.398769 26.543590 15.435928 26.584615 15.473368 26.625641 15.511087 26.666667 15.549083 26.707692 15.587353 26.748718 15.625897 26.789744 15.664712 26.830769 15.703797 26.871795 15.743149 26.912821 15.782766 26.953846 15.822648 26.994872 15.862792 27.035897 15.903195 27.076923 15.943857 27.117949 15.984776 27.158974 16.025949 27.200000 16.067374 27.241026 16.109051 27.282051 16.150976 27.323077 16.193149 27.364103 16.235567 27.405128 16.278229 27.446154 16.321132 27.487179 16.364274 27.528205 16.407655 27.569231 16.451272 27.610256 16.495122 27.651282 16.539205 27.692308 16.583519 27.733333 16.628061 27.774359 16.672830 27.815385 16.717824 27.856410 16.763041 27.897436 16.808478 27.938462 16.854136 27.979487 16.900010 28.020513 16.946101 28.061538 16.992405 28.102564 17.038921 28.143590 17.085647 28.184615 17.132581 28.225641 17.179721 28.266667 17.227066 28.307692 17.274614 28.348718 17.322362 28.389744 17.370310 28.430769 17.418454 28.471795 17.466793 28.512821 17.515326 28.553846 17.564050 28.594872 17.612964 28.635897 17.662066 28.676923 17.711354 28.717949 17.760825 28.758974 17.810479 28.800000 17.860313 28.841026 17.910326 28.882051 17.960515 28.923077 18.010879 28.964103 18.061416 29.005128 18.112124 29.046154 18.163002 29.087179 18.214046 29.128205 18.265256 29.169231 18.316630 29.210256 18.368166 29.251282 18.419861 29.292308 18.471715 29.333333 18.523725 29.374359 18.575889 29.415385 18.628206 29.456410 18.680673 29.497436 18.733289 29.538462 18.786052 29.579487 18.838960 29.620513 18.892012 29.661538 18.945205 29.702564 18.998537 29.743590 19.052007 29.784615 19.105613 29.825641 19.159352 29.866667 19.213224 29.907692 19.267226 29.948718 19.321357 29.989744 19.375614 30.030769 19.429995 30.071795 19.484500 30.112821 19.539125 30.153846 19.593870 30.194872 19.648732 30.235897 19.703709 30.276923 19.758800 30.317949 19.814002 30.358974 19.869314 30.400000 19.924735 30.441026 19.980261 30.482051 20.035892 30.523077 20.091625 30.564103 20.147458 30.605128 20.203390 30.646154 20.259420 30.687179 20.315544 30.728205 20.371761 30.769231 20.428069 30.810256 20.484467 30.851282 20.540953 30.892308 20.597524 30.933333 20.654179 30.974359 20.710916 31.015385 20.767733 31.056410 20.824629 31.097436 20.881601 31.138462 20.938647 31.179487 20.995766 31.220513 21.052956 31.261538 21.110216 31.302564 21.167542 31.343590 21.224933 31.384615 21.282388 31.425641 21.339905 31.466667 21.397481 31.507692 21.455115 31.548718 21.512805 31.589744 21.570550 31.630769 21.628346 31.671795 21.686193 31.712821 21.744089 31.753846 21.802031 31.794872 21.860019 31.835897 21.918049 31.876923 21.976120 31.917949 22.034231 31.958974 22.092379 32.000000 22.150563 32.041026 22.208781 32.082051 22.267030 32.123077 22.325310 32.164103 22.383618 32.205128 22.441952 32.246154 22.500310 32.287179 22.558691 32.328205 22.617093 32.369231 22.675514 32.410256 22.733952 32.451282 22.792405 32.492308 22.850871 32.533333 22.909349 32.574359 22.967837 32.615385 23.026332 32.656410 23.084833 32.697436 23.143335 32.738462 23.201834 32.779487 23.260326 32.820513 23.318806 32.861538 23.377269 32.902564 23.435712 32.943590 23.494129 32.984615 23.552517 33.025641 23.610870 33.066667 23.669185 33.107692 23.727456 33.148718 23.785680 33.189744 23.843852 33.230769 23.901968 33.271795 23.960023 33.312821 24.018012 33.353846 24.075931 33.394872 24.133776 33.435897 24.191542 33.476923 24.249226 33.517949 24.306821 33.558974 24.364324 33.600000 24.421731 33.641026 24.479036 33.682051 24.536236 33.723077 24.593326 33.764103 24.650302 33.805128 24.707159 33.846154 24.763892 33.887179 24.820498 33.928205 24.876971 33.969231 24.933308 34.010256 24.989503 34.051282 25.045553 34.092308 25.101453 34.133333 25.157198 34.174359 25.212784 34.215385 25.268207 34.256410 25.323462 34.297436 25.378545 34.338462 25.433450 34.379487 25.488175 34.420513 25.542713 34.461538 25.597062 34.502564 25.651216 34.543590 25.705170 34.584615 25.758921 34.625641 25.812465 34.666667 25.865795 34.707692 25.918909 34.748718 25.971801 34.789744 26.024468 34.830769 26.076904 34.871795 26.129105 34.912821 26.181067 34.953846 26.232786 34.994872 26.284256 35.035897 26.335474 35.076923 26.386434 35.117949 26.437133 35.158974 26.487566 35.200000 26.537729 35.241026 26.587617 35.282051 26.637226 35.323077 26.686550 35.364103 26.735587 35.405128 26.784331 35.446154 26.832777 35.487179 26.880922 35.528205 26.928761 35.569231 26.976289 35.610256 27.023503 35.651282 27.070397 35.692308 27.116967 35.733333 27.163208 35.774359 27.209117 35.815385 27.254689 35.856410 27.299918 35.897436 27.344802 35.938462 27.389335 35.979487 27.433513 36.020513 27.477331 36.061538 27.520785 36.102564 27.563871 36.143590 27.606584 36.184615 27.648919 36.225641 27.690873 36.266667 27.732440 36.307692 27.773617 36.348718 27.814398 36.389744 27.854779 36.430769 27.894757 36.471795 27.934326 36.512821 27.973482 36.553846 28.012220 36.594872 28.050536 36.635897 28.088426 36.676923 28.125885 36.717949 28.162909 36.758974 28.199493 36.800000 28.235632 36.841026 28.271323 36.882051 28.306561 36.923077 28.341341 36.964103 28.375659 37.005128 28.409511 37.046154 28.442891 37.087179 28.475797 37.128205 28.508222 37.169231 28.540163 37.210256 28.571615 37.251282 28.602573 37.292308 28.633034 37.333333 28.662993 37.374359 28.692445 37.415385 28.721386 37.456410 28.749812 37.497436 28.777717 37.538462 28.805098 37.579487 28.831950 37.620513 28.858269 37.661538 28.884050 37.702564 28.909288 37.743590 28.933980 37.784615 28.958120 37.825641 28.981705 37.866667 29.004730 37.907692 29.027190 37.948718 29.049081 37.989744 29.070398 38.030769 29.091138 38.071795 29.111295 38.112821 29.130865 38.153846 29.149844 38.194872 29.168228 38.235897 29.186010 38.276923 29.203189 38.317949 29.219758 38.358974 29.235713 38.400000 29.251050 38.441026 29.265765 38.482051 29.279853 38.523077 29.293309 38.564103 29.306130 38.605128 29.318310 38.646154 29.329845 38.687179 29.340731 38.728205 29.350963 38.769231 29.360537 38.810256 29.369449 38.851282 29.377693 38.892308 29.385266 38.933333 29.392163 38.974359 29.398379 39.015385 29.403910 39.056410 29.408752 39.097436 29.412900 39.138462 29.416350 39.179487 29.419097 39.220513 29.421137 39.261538 29.422465 39.302564 29.423077 39.343590 29.422968 39.384615 29.422135 39.425641 29.420572 39.466667 29.418274 39.507692 29.415239 39.548718 29.411460 39.589744 29.406935 39.630769 29.401657 39.671795 29.395623 39.712821 29.388829 39.753846 29.381269 39.794872 29.372940 39.835897 29.363837 39.876923 29.353955 39.917949 29.343290 39.958974 29.331838 40.000000 29.319593 40.041026 29.306553 40.082051 29.292711 40.123077 29.278065 40.164103 29.262608 40.205128 29.246338 40.246154 29.229249 40.287179 29.211336 40.328205 29.192596 40.369231 29.173024 40.410256 29.152616 40.451282 29.131367 40.492308 29.109272 40.533333 29.086327 40.574359 29.062529 40.615385 29.037871 40.656410 29.012350 40.697436 28.985962 40.738462 28.958701 40.779487 28.930564 40.820513 28.901545 40.861538 28.871642 40.902564 28.840848 40.943590 28.809160 40.984615 28.776573 41.025641 28.743082 41.066667 28.708684 41.107692 28.673374 41.148718 28.637147 41.189744 28.599998 41.230769 28.561925 41.271795 28.522921 41.312821 28.482982 41.353846 28.442105 41.394872 28.400284 41.435897 28.357515 41.476923 28.313794 41.517949 28.269116 41.558974 28.223477 41.600000 28.176872 41.641026 28.129296 41.682051 28.080747 41.723077 28.031218 41.764103 27.980705 41.805128 27.929205 41.846154 27.876712 41.887179 27.823222 41.928205 27.768731 41.969231 27.713233 42.010256 27.656726 42.051282 27.599204 42.092308 27.540662 42.133333 27.481097 42.174359 27.420504 42.215385 27.358878 42.256410 27.296216 42.297436 27.232511 42.338462 27.167761 42.379487 27.101960 42.420513 27.035105 42.461538 26.967190 42.502564 26.898211 42.543590 26.828164 42.584615 26.757045 42.625641 26.684848 42.666667 26.611569 42.707692 26.537205 42.748718 26.461750 42.789744 26.385200 42.830769 26.307550 42.871795 26.228797 42.912821 26.148938 42.953846 26.067982 42.994872 25.985939 43.035897 25.902821 43.076923 25.818640 43.117949 25.733405 43.158974 25.647128 43.200000 25.559821 43.241026 25.471493 43.282051 25.382158 43.323077 25.291824 43.364103 25.200504 43.405128 25.108209 43.446154 25.014949 43.487179 24.920736 43.528205 24.825580 43.569231 24.729494 43.610256 24.632487 43.651282 24.534572 43.692308 24.435758 43.733333 24.336058 43.774359 24.235482 43.815385 24.134041 43.856410 24.031747 43.897436 23.928610 43.938462 23.824641 43.979487 23.719852 44.020513 23.614254 44.061538 23.507858 44.102564 23.400675 44.143590 23.292715 44.184615 23.183990 44.225641 23.074512 44.266667 22.964290 44.307692 22.853337 44.348718 22.741663 44.389744 22.629280 44.430769 22.516198 44.471795 22.402428 44.512821 22.287983 44.553846 22.172871 44.594872 22.057106 44.635897 21.940697 44.676923 21.823656 44.717949 21.705995 44.758974 21.587723 44.800000 21.468852 44.841026 21.349394 44.882051 21.229359 44.923077 21.108758 44.964103 20.987603 45.005128 20.865904 45.046154 20.743672 45.087179 20.620920 45.128205 20.497657 45.169231 20.373895 45.210256 20.249645 45.251282 20.124918 45.292308 19.999724 45.333333 19.874076 45.374359 19.747984 45.415385 19.621460 45.456410 19.494514 45.497436 19.367157 45.538462 19.239400 45.579487 19.111256 45.620513 18.982733 45.661538 18.853845 45.702564 18.724601 45.743590 18.595014 45.784615 18.465093 45.825641 18.334850 45.866667 18.204296 45.907692 18.073443 45.948718 17.942301 45.989744 17.810881 46.030769 17.679194 46.071795 17.547252 46.112821 17.415066 46.153846 17.282646 46.194872 17.150003 46.235897 17.017150 46.276923 16.884097 46.317949 16.750854 46.358974 16.617433 46.400000 16.483846 46.441026 16.350102 46.482051 16.216214 46.523077 16.082192 46.564103 15.948048 46.605128 15.813792 46.646154 15.679436 46.687179 15.544990 46.728205 15.410466 46.769231 15.275874 46.810256 15.141227 46.851282 15.006534 46.892308 14.871807 46.933333 14.737058 46.974359 14.602296 47.015385 14.467534 47.056410 14.332782 47.097436 14.198052 47.138462 14.063354 47.179487 13.928699 47.220513 13.794099 47.261538 13.659565 47.302564 13.525107 47.343590 13.390738 47.384615 13.256467 47.425641 13.122306 47.466667 12.988266 47.507692 12.854359 47.548718 12.720594 47.589744 12.586984 47.630769 12.453539 47.671795 12.320271 47.712821 12.187190 47.753846 12.054308 47.794872 11.921635 47.835897 11.789183 47.876923 11.656963 47.917949 11.524986 47.958974 11.393262 48.000000 11.261804 48.041026 11.130622 48.082051 10.999727 48.123077 10.869131 48.164103 10.738843 48.205128 10.608876 48.246154 10.479241 48.287179 10.349948 48.328205 10.221009 48.369231 10.092434 48.410256 9.964236 48.451282 9.836424 48.492308 9.709010 48.533333 9.582005 48.574359 9.455421 48.615385 9.329267 48.656410 9.203556 48.697436 9.078298 48.738462 8.953504 48.779487 8.829186 48.820513 8.705354 48.861538 8.582020 48.902564 8.459195 48.943590 8.336890 48.984615 8.215115 49.025641 8.093883 49.066667 7.973203 49.107692 7.853087 49.148718 7.733547 49.189744 7.614593 49.230769 7.496236 49.271795 7.378487 49.312821 7.261358 49.353846 7.144860 49.394872 7.029003 49.435897 6.913799 49.476923 6.799258 49.517949 6.685393 49.558974 6.572213 49.600000 6.459730 49.641026 6.347956 49.682051 6.236900 49.723077 6.126575 49.764103 6.016991 49.805128 5.908160 49.846154 5.800091 49.887179 5.692798 49.928205 5.586290 49.969231 5.480579 50.010256 5.375675 50.051282 5.271590 50.092308 5.168335 50.133333 5.065921 50.174359 4.964360 50.215385 4.863661 50.256410 4.763836 50.297436 4.664897 50.338462 4.566854 50.379487 4.469719 50.420513 4.373502 50.461538 4.278215 50.502564 4.183868 50.543590 4.090473 50.584615 3.998041 50.625641 3.906583 50.666667 3.816109 50.707692 3.726632 50.748718 3.638162 50.789744 3.550710 50.830769 3.464287 50.871795 3.378905 50.912821 3.294574 50.953846 3.211305 50.994872 3.129111 51.035897 3.048000 51.076923 2.967986 51.117949 2.889078 51.158974 2.811288 51.200000 2.734627 51.241026 2.659106 51.282051 2.584737 51.323077 2.511529 51.364103 2.439495 51.405128 2.368645 51.446154 2.298990 51.487179 2.230542 51.528205 2.163311 51.569231 2.097309 51.610256 2.032547 51.651282 1.969035 51.692308 1.906786 51.733333 1.845809 51.774359 1.786116 51.815385 1.727719 51.856410 1.670627 51.897436 1.614853 51.938462 1.560407 51.979487 1.507301 52.020513 1.455545 52.061538 1.405150 52.102564 1.356128 52.143590 1.308490 52.184615 1.262246 52.225641 1.217409 52.266667 1.173988 52.307692 1.131995 52.348718 1.091442 52.389744 1.052338 52.430769 1.014696 52.471795 0.978526 52.512821 0.943839 52.553846 0.910647 52.594872 0.878960 52.635897 0.848790 52.676923 0.820148 52.717949 0.793044 52.758974 0.767490 52.800000 0.743498 52.841026 0.721077 52.882051 0.700239 52.923077 0.680995 52.964103 0.663356 53.005128 0.647334 53.046154 0.632939 53.087179 0.620183 53.128205 0.609076 53.169231 0.599626 53.210256 0.591826 53.251282 0.585666 53.292308 0.581136 53.333333 0.578225 53.374359 0.576923 53.415385 0.577220 53.456410 0.579104 53.497436 0.582567 53.538462 0.587598 53.579487 0.594185 53.620513 0.602320 53.661538 0.611991 53.702564 0.623188 53.743590 0.635902 53.784615 0.650120 53.825641 0.665835 53.866667 0.683034 53.907692 0.701708 53.948718 0.721846 53.989744 0.743437 54.030769 0.766473 54.071795 0.790942 54.112821 0.816834 54.153846 0.844138 54.194872 0.872845 54.235897 0.902943 54.276923 0.934424 54.317949 0.967275 54.358974 1.001488 54.400000 1.037051 54.441026 1.073954 54.482051 1.112188 54.523077 1.151741 54.564103 1.192603 54.605128 1.234764 54.646154 1.278214 54.687179 1.322942 54.728205 1.368938 54.769231 1.416192 54.810256 1.464693 54.851282 1.514431 54.892308 1.565396 54.933333 1.617577 54.974359 1.670964 55.015385 1.725547 55.056410 1.781314 55.097436 1.838257 55.138462 1.896365 55.179487 1.955627 55.220513 2.016033 55.261538 2.077572 55.302564 2.140235 55.343590 2.204011 55.384615 2.268889 55.425641 2.334860 55.466667 2.401913 55.507692 2.470037 55.548718 2.539223 55.589744 2.609459 55.630769 2.680737 55.671795 2.753044 55.712821 2.826372 55.753846 2.900710 55.794872 2.976046 55.835897 3.052372 55.876923 3.129676 55.917949 3.207949 55.958974 3.287180 56.000000 3.367358 56.041026 3.448474 56.082051 3.530517 56.123077 3.613476 56.164103 3.697342 56.205128 3.782104 56.246154 3.867751 56.287179 3.954274 56.328205 4.041662 56.369231 4.129904 56.410256 4.218991 56.451282 4.308912 56.492308 4.399656 56.533333 4.491214 56.574359 4.583575 56.615385 4.676729 56.656410 4.770665 56.697436 4.865373 56.738462 4.960843 56.779487 5.057064 56.820513 5.154026 56.861538 5.251719 56.902564 5.350132 56.943590 5.449255 56.984615 5.549078 57.025641 5.649590 57.066667 5.750782 57.107692 5.852642 57.148718 5.955160 57.189744 6.058327 57.230769 6.162131 57.271795 6.266562 57.312821 6.371611 57.353846 6.477266 57.394872 6.583518 57.435897 6.690356 57.476923 6.797769 57.517949 6.905748 57.558974 7.014282 57.600000 7.123361 57.641026 7.232974 57.682051 7.343111 57.723077 7.453762 57.764103 7.564916 57.805128 7.676563 57.846154 7.788693 57.887179 7.901296 57.928205 8.014360 57.969231 8.127877 58.010256 8.241834 58.051282 8.356223 58.092308 8.471032 58.133333 8.586252 58.174359 8.701872 58.215385 8.817882 58.256410 8.934271 58.297436 9.051029 58.338462 9.168146 58.379487 9.285611 58.420513 9.403415 58.461538 9.521546 58.502564 9.639994 58.543590 9.758750 58.584615 9.877802 58.625641 9.997141 58.666667 10.116756 58.707692 10.236637 58.748718 10.356773 58.789744 10.477154 58.830769 10.597770 58.871795 10.718611 58.912821 10.839665 58.953846 10.960923 58.994872 11.082375 59.035897 11.204010 59.076923 11.325817 59.117949 11.447787 59.158974 11.569910 59.200000 11.692174 59.241026 11.814569 59.282051 11.937085 59.323077 12.059713 59.364103 12.182440 59.405128 12.305258 59.446154 12.428156 59.487179 12.551123 59.528205 12.674149 59.569231 12.797224 59.610256 12.920337 59.651282 13.043479 59.692308 13.166638 59.733333 13.289805 59.774359 13.412969 59.815385 13.536119 59.856410 13.659246 59.897436 13.782340 59.938462 13.905389 59.979487 14.028383 60.020513 14.151313 60.061538 14.274167 60.102564 14.396936 60.143590 14.519609 60.184615 14.642176 60.225641 14.764627 60.266667 14.886950 60.307692 15.009137 60.348718 15.131175 60.389744 15.253056 60.430769 15.374769 60.471795 15.496303 60.512821 15.617649 60.553846 15.738795 60.594872 15.859732 60.635897 15.980448 60.676923 16.100935 60.717949 16.221181 60.758974 16.341177 60.800000 16.460911 60.841026 16.580373 60.882051 16.699554 60.923077 16.818443 60.964103 16.937029 61.005128 17.055302 61.046154 17.173252 61.087179 17.290869 61.128205 17.408142 61.169231 17.525060 61.210256 17.641615 61.251282 17.757794 61.292308 17.873588 61.333333 17.988987 61.374359 18.103980 61.415385 18.218556 61.456410 18.332706 61.497436 18.446420 61.538462 18.559686 61.579487 18.672495 61.620513 18.784836 61.661538 18.896699 61.702564 19.008073 61.743590 19.118948 61.784615 19.229315 61.825641 19.339162 61.866667 19.448479 61.907692 19.557256 61.948718 19.665482 61.989744 19.773148 62.030769 19.880242 62.071795 19.986755 62.112821 20.092677 62.153846 20.197996 62.194872 20.302702 62.235897 20.406786 62.276923 20.510237 62.317949 20.613044 62.358974 20.715198 62.400000 20.816687 62.441026 20.917502 62.482051 21.017632 62.523077 21.117067 62.564103 21.215797 62.605128 21.313811 62.646154 21.411098 62.687179 21.507649 62.728205 21.603454 62.769231 21.698501 62.810256 21.792781 62.851282 21.886283 62.892308 21.978997 62.933333 22.070913 62.974359 22.162020 63.015385 22.252307 63.056410 22.341765 63.097436 22.430384 63.138462 22.518152 63.179487 22.605060 63.220513 22.691097 63.261538 22.776254 63.302564 22.860518 63.343590 22.943881 63.384615 23.026332 63.425641 23.107863 63.466667 23.188476 63.507692 23.268175 63.548718 23.346965 63.589744 23.424851 63.630769 23.501836 63.671795 23.577925 63.712821 23.653123 63.753846 23.727434 63.794872 23.800862 63.835897 23.873412 63.876923 23.945088 63.917949 24.015896 63.958974 24.085838 64.000000 24.154920 64.041026 24.223145 64.082051 24.290520 64.123077 24.357047 64.164103 24.422731 64.205128 24.487577 64.246154 24.551589 64.287179 24.614772 64.328205 24.677130 64.369231 24.738667 64.410256 24.799388 64.451282 24.859297 64.492308 24.918399 64.533333 24.976698 64.574359 25.034199 64.615385 25.090905 64.656410 25.146822 64.697436 25.201954 64.738462 25.256305 64.779487 25.309880 64.820513 25.362683 64.861538 25.414719 64.902564 25.465991 64.943590 25.516505 64.984615 25.566264 65.025641 25.615274 65.066667 25.663539 65.107692 25.711063 65.148718 25.757850 65.189744 25.803905 65.230769 25.849233 65.271795 25.893837 65.312821 25.937723 65.353846 25.980894 65.394872 26.023355 65.435897 26.065111 65.476923 26.106166 65.517949 26.146525 65.558974 26.186191 65.600000 26.225169 65.641026 26.263464 65.682051 26.301080 65.723077 26.338022 65.764103 26.374294 65.805128 26.409900 65.846154 26.444845 65.887179 26.479133 65.928205 26.512768 65.969231 26.545756 66.010256 26.578100 66.051282 26.609806 66.092308 26.640876 66.133333 26.671317 66.174359 26.701131 66.215385 26.730325 66.256410 26.758901 66.297436 26.786865 66.338462 26.814221 66.379487 26.840973 66.420513 26.867126 66.461538 26.892685 66.502564 26.917653 66.543590 26.942035 66.584615 26.965835 66.625641 26.989058 66.666667 27.011709 66.707692 27.033792 66.748718 27.055311 66.789744 27.076270 66.830769 27.096675 66.871795 27.116529 66.912821 27.135837 66.953846 27.154603 66.994872 27.172832 67.035897 27.190528 67.076923 27.207696 67.117949 27.224340 67.158974 27.240465 67.200000 27.256074 67.241026 27.271173 67.282051 27.285765 67.323077 27.299856 67.364103 27.313450 67.405128 27.326550 67.446154 27.339162 67.487179 27.351290 67.528205 27.362938 67.569231 27.374111 67.610256 27.384813 67.651282 27.395049 67.692308 27.404823 67.733333 27.414139 67.774359 27.423002 67.815385 27.431417 67.856410 27.439387 67.897436 27.446918 67.938462 27.454013 67.979487 27.460677 68.020513 27.466914 68.061538 27.472730 68.102564 27.478128 68.143590 27.483113 68.184615 27.487688 68.225641 27.491860 68.266667 27.495631 68.307692 27.499007 68.348718 27.501992 68.389744 27.504590 68.430769 27.506806 68.471795 27.508644 68.512821 27.510109 68.553846 27.511205 68.594872 27.511936 68.635897 27.512307 68.676923 27.512322 68.717949 27.511987 68.758974 27.511304 68.800000 27.510279 68.841026 27.508916 68.882051 27.507219 68.923077 27.505194 68.964103 27.502843 69.005128 27.500172 69.046154 27.497186 69.087179 27.493888 69.128205 27.490283 69.169231 27.486376 69.210256 27.482170 69.251282 27.477671 69.292308 27.472882 69.333333 27.467809 69.374359 27.462455 69.415385 27.456826 69.456410 27.450924 69.497436 27.444756 69.538462 27.438325 69.579487 27.431635 69.620513 27.424692 69.661538 27.417499 69.702564 27.410062 69.743590 27.402383 69.784615 27.394469 69.825641 27.386323 69.866667 27.377950 69.907692 27.369353 69.948718 27.360539 69.989744 27.351510 70.030769 27.342272 70.071795 27.332829 70.112821 27.323185 70.153846 27.313344 70.194872 27.303312 70.235897 27.293092 70.276923 27.282690 70.317949 27.272109 70.358974 27.261353 70.400000 27.250428 70.441026 27.239338 70.482051 27.228087 70.523077 27.216679 70.564103 27.205119 70.605128 27.193412 70.646154 27.181561 70.687179 27.169572 70.728205 27.157449 70.769231 27.145196 70.810256 27.132817 70.851282 27.120317 70.892308 27.107701 70.933333 27.094972 70.974359 27.082136 71.015385 27.069196 71.056410 27.056158 71.097436 27.043025 71.138462 27.029802 71.179487 27.016493 71.220513 27.003104 71.261538 26.989637 71.302564 26.976099 71.343590 26.962492 71.384615 26.948822 71.425641 26.935093 71.466667 26.921309 71.507692 26.907475 71.548718 26.893595 71.589744 26.879675 71.630769 26.865717 71.671795 26.851726 71.712821 26.837708 71.753846 26.823666 71.794872 26.809605 71.835897 26.795529 71.876923 26.781443 71.917949 26.767351 71.958974 26.753257 72.000000 26.739167 72.041026 26.725083 72.082051 26.711012 72.123077 26.696957 72.164103 26.682922 72.205128 26.668913 72.246154 26.654933 72.287179 26.640987 72.328205 26.627079 72.369231 26.613215 72.410256 26.599397 72.451282 26.585631 72.492308 26.571922 72.533333 26.558272 72.574359 26.544688 72.615385 26.531173 72.656410 26.517732 72.697436 26.504369 72.738462 26.491089 72.779487 26.477896 72.820513 26.464794 72.861538 26.451788 72.902564 26.438883 72.943590 26.426082 72.984615 26.413391 73.025641 26.400813 73.066667 26.388354 73.107692 26.376017 73.148718 26.363807 73.189744 26.351728 73.230769 26.339785 73.271795 26.327982 73.312821 26.316324 73.353846 26.304815 73.394872 26.293459 73.435897 26.282262 73.476923 26.271226 73.517949 26.260358 73.558974 26.249660 73.600000 26.239139 73.641026 26.228797 73.682051 26.218639 73.723077 26.208664 73.764103 26.198871 73.805128 26.189260 73.846154 26.179827 73.887179 26.170573 73.928205 26.161496 73.969231 26.152595 74.010256 26.143869 74.051282 26.135316 74.092308 26.126935 74.133333 26.118725 74.174359 26.110685 74.215385 26.102813 74.256410 26.095109 74.297436 26.087571 74.338462 26.080197 74.379487 26.072988 74.420513 26.065940 74.461538 26.059054 74.502564 26.052327 74.543590 26.045759 74.584615 26.039349 74.625641 26.033095 74.666667 26.026996 74.707692 26.021050 74.748718 26.015257 74.789744 26.009616 74.830769 26.004124 74.871795 25.998781 74.912821 25.993586 74.953846 25.988537 74.994872 25.983633 75.035897 25.978874 75.076923 25.974257 75.117949 25.969781 75.158974 25.965445 75.200000 25.961249 75.241026 25.957190 75.282051 25.953268 75.323077 25.949481 75.364103 25.945828 75.405128 25.942308 75.446154 25.938920 75.487179 25.935662 75.528205 25.932533 75.569231 25.929532 75.610256 25.926658 75.651282 25.923909 75.692308 25.921285 75.733333 25.918783 75.774359 25.916403 75.815385 25.914144 75.856410 25.912004 75.897436 25.909982 75.938462 25.908077 75.979487 25.906288 76.020513 25.904613 76.061538 25.903051 76.102564 25.901601 76.143590 25.900262 76.184615 25.899032 76.225641 25.897910 76.266667 25.896896 76.307692 25.895987 76.348718 25.895183 76.389744 25.894482 76.430769 25.893883 76.471795 25.893385 76.512821 25.892987 76.553846 25.892687 76.594872 25.892484 76.635897 25.892378 76.676923 25.892366 76.717949 25.892447 76.758974 25.892621 76.800000 25.892885 76.841026 25.893240 76.882051 25.893683 76.923077 25.894213 76.964103 25.894830 77.005128 25.895531 77.046154 25.896316 77.087179 25.897183 77.128205 25.898132 77.169231 25.899160 77.210256 25.900268 77.251282 25.901452 77.292308 25.902713 77.333333 25.904049 77.374359 25.905459 77.415385 25.906942 77.456410 25.908495 77.497436 25.910119 77.538462 25.911812 77.579487 25.913572 77.620513 25.915399 77.661538 25.917291 77.702564 25.919247 77.743590 25.921266 77.784615 25.923346 77.825641 25.925486 77.866667 25.927686 77.907692 25.929943 77.948718 25.932257 77.989744 25.934626 78.030769 25.937050 78.071795 25.939526 78.112821 25.942054 78.153846 25.944632 78.194872 25.947260 78.235897 25.949935 78.276923 25.952658 78.317949 25.955425 78.358974 25.958237 78.400000 25.961093 78.441026 25.963990 78.482051 25.966927 78.523077 25.969904 78.564103 25.972919 78.605128 25.975971 78.646154 25.979059 78.687179 25.982181 78.728205 25.985336 78.769231 25.988523 78.810256 25.991741 78.851282 25.994989 78.892308 25.998265 78.933333 26.001568 78.974359 26.004896 79.015385 26.008250 79.056410 26.011627 79.097436 26.015025 79.138462 26.018445 79.179487 26.021885 79.220513 26.025343 79.261538 26.028818 79.302564 26.032309 79.343590 26.035815 79.384615 26.039334 79.425641 26.042866 79.466667 26.046409 79.507692 26.049962 79.548718 26.053523 79.589744 26.057092 79.630769 26.060667 79.671795 26.064246 79.712821 26.067830 79.753846 26.071416 79.794872 26.075003 79.835897 26.078590 79.876923 26.082176 79.917949 26.085760 79.958974 26.089339 80.000000 26.092914 80.041026 26.096483 80.082051 26.100045 80.123077 26.103597 80.164103 26.107140 80.205128 26.110672 80.246154 26.114192 80.287179 26.117698 80.328205 26.121189 80.369231 26.124665 80.410256 26.128123 80.451282 26.131563 80.492308 26.134983 80.533333 26.138382 80.574359 26.141759 80.615385 26.145112 80.656410 26.148442 80.697436 26.151745 80.738462 26.155021 80.779487 26.158269 80.820513 26.161487 80.861538 26.164675 80.902564 26.167831 80.943590 26.170953 80.984615 26.174041 81.025641 26.177094 81.066667 26.180109 81.107692 26.183087 81.148718 26.186025 81.189744 26.188922 81.230769 26.191778 81.271795 26.194590 81.312821 26.197359 81.353846 26.200082 81.394872 26.202758 81.435897 26.205386 81.476923 26.207965 81.517949 26.210493 81.558974 26.212970 81.600000 26.215394 81.641026 26.217764 81.682051 26.220079 81.723077 26.222337 81.764103 26.224537 81.805128 26.226678 81.846154 26.228759 81.887179 26.230779 81.928205 26.232735 81.969231 26.234628 82.010256 26.236456 82.051282 26.238217 82.092308 26.239911 82.133333 26.241535 82.174359 26.243090 82.215385 26.244573 82.256410 26.245984 82.297436 26.247321 82.338462 26.248583 82.379487 26.249768 82.420513 26.250877 82.461538 26.251906 82.502564 26.252856 82.543590 26.253724 82.584615 26.254510 82.625641 26.255212 82.666667 26.255830 82.707692 26.256361 82.748718 26.256805 82.789744 26.257161 82.830769 26.257427 82.871795 26.257602 82.912821 26.257684 82.953846 26.257673 82.994872 26.257568 83.035897 26.257366 83.076923 26.257067 83.117949 26.256670 83.158974 26.256174 83.200000 26.255576 83.241026 26.254876 83.282051 26.254074 83.323077 26.253166 83.364103 26.252153 83.405128 26.251033 83.446154 26.249804 83.487179 26.248466 83.528205 26.247018 83.569231 26.245457 83.610256 26.243784 83.651282 26.241996 83.692308 26.240092 83.733333 26.238072 83.774359 26.235933 83.815385 26.233675 83.856410 26.231297 83.897436 26.228797 83.938462 26.226174 83.979487 26.223429 84.020513 26.220562 84.061538 26.217573 84.102564 26.214463 84.143590 26.211233 84.184615 26.207883 84.225641 26.204413 84.266667 26.200824 84.307692 26.197117 84.348718 26.193291 84.389744 26.189348 84.430769 26.185288 84.471795 26.181111 84.512821 26.176818 84.553846 26.172410 84.594872 26.167886 84.635897 26.163248 84.676923 26.158496 84.717949 26.153630 84.758974 26.148651 84.800000 26.143559 84.841026 26.138355 84.882051 26.133039 84.923077 26.127613 84.964103 26.122075 85.005128 26.116428 85.046154 26.110670 85.087179 26.104804 85.128205 26.098829 85.169231 26.092745 85.210256 26.086554 85.251282 26.080255 85.292308 26.073850 85.333333 26.067339 85.374359 26.060722 85.415385 26.053999 85.456410 26.047172 85.497436 26.040240 85.538462 26.033205 85.579487 26.026066 85.620513 26.018825 85.661538 26.011481 85.702564 26.004035 85.743590 25.996488 85.784615 25.988841 85.825641 25.981092 85.866667 25.973244 85.907692 25.965297 85.948718 25.957251 85.989744 25.949106 86.030769 25.940864 86.071795 25.932524 86.112821 25.924087 86.153846 25.915554 86.194872 25.906924 86.235897 25.898200 86.276923 25.889380 86.317949 25.880466 86.358974 25.871458 86.400000 25.862357 86.441026 25.853162 86.482051 25.843875 86.523077 25.834496 86.564103 25.825026 86.605128 25.815465 86.646154 25.805813 86.687179 25.796071 86.728205 25.786239 86.769231 25.776319 86.810256 25.766310 86.851282 25.756213 86.892308 25.746028 86.933333 25.735756 86.974359 25.725398 87.015385 25.714953 87.056410 25.704423 87.097436 25.693808 87.138462 25.683108 87.179487 25.672325 87.220513 25.661457 87.261538 25.650507 87.302564 25.639473 87.343590 25.628358 87.384615 25.617161 87.425641 25.605883 87.466667 25.594524 87.507692 25.583085 87.548718 25.571566 87.589744 25.559968 87.630769 25.548291 87.671795 25.536536 87.712821 25.524704 87.753846 25.512794 87.794872 25.500807 87.835897 25.488744 87.876923 25.476606 87.917949 25.464392 87.958974 25.452103 88.000000 25.439740 88.041026 25.427303 88.082051 25.414793 88.123077 25.402210 88.164103 25.389555 88.205128 25.376828 88.246154 25.364030 88.287179 25.351161 88.328205 25.338221 88.369231 25.325212 88.410256 25.312133 88.451282 25.298986 88.492308 25.285770 88.533333 25.272486 88.574359 25.259135 88.615385 25.245717 88.656410 25.232232 88.697436 25.218682 88.738462 25.205066 88.779487 25.191385 88.820513 25.177640 88.861538 25.163830 88.902564 25.149958 88.943590 25.136022 88.984615 25.122024 89.025641 25.107964 89.066667 25.093842 89.107692 25.079660 89.148718 25.065417 89.189744 25.051114 89.230769 25.036751 89.271795 25.022329 89.312821 25.007849 89.353846 24.993311 89.394872 24.978715 89.435897 24.964062 89.476923 24.949353 89.517949 24.934587 89.558974 24.919766 89.600000 24.904890 89.641026 24.889959 89.682051 24.874974 89.723077 24.859936 89.764103 24.844844 89.805128 24.829700 89.846154 24.814503 89.887179 24.799255 89.928205 24.783956 89.969231 24.768606 90.010256 24.753206 90.051282 24.737756 90.092308 24.722257 90.133333 24.706709 90.174359 24.691113 90.215385 24.675470 90.256410 24.659779 90.297436 24.644041 90.338462 24.628257 90.379487 24.612428 90.420513 24.596553 90.461538 24.580633 90.502564 24.564670 90.543590 24.548662 90.584615 24.532611 90.625641 24.516517 90.666667 24.500381 90.707692 24.484203 90.748718 24.467984 90.789744 24.451724 90.830769 24.435424 90.871795 24.419084 90.912821 24.402704 90.953846 24.386286 90.994872 24.369829 91.035897 24.353334 91.076923 24.336802 91.117949 24.320233 91.158974 24.303628 91.200000 24.286987 91.241026 24.270310 91.282051 24.253598 91.323077 24.236852 91.364103 24.220072 91.405128 24.203259 91.446154 24.186413 91.487179 24.169534 91.528205 24.152623 91.569231 24.135681 91.610256 24.118707 91.651282 24.101704 91.692308 24.084670 91.733333 24.067606 91.774359 24.050514 91.815385 24.033393 91.856410 24.016244 91.897436 23.999068 91.938462 23.981864 91.979487 23.964634 92.020513 23.947378 92.061538 23.930096 92.102564 23.912789 92.143590 23.895458 92.184615 23.878103 92.225641 23.860723 92.266667 23.843321 92.307692 23.825896 92.348718 23.808449 92.389744 23.790981 92.430769 23.773491 92.471795 23.755980 92.512821 23.738450 92.553846 23.720899 92.594872 23.703330 92.635897 23.685741 92.676923 23.668135 92.717949 23.650511 92.758974 23.632870 92.800000 23.615212 92.841026 23.597537 92.882051 23.579847 92.923077 23.562142 92.964103 23.544422 93.005128 23.526688 93.046154 23.508939 93.087179 23.491178 93.128205 23.473404 93.169231 23.455617 93.210256 23.437819 93.251282 23.420010 93.292308 23.402189 93.333333 23.384358 93.374359 23.366518 93.415385 23.348668 93.456410 23.330809 93.497436 23.312942 93.538462 23.295067 93.579487 23.277185 93.620513 23.259295 93.661538 23.241400 93.702564 23.223498 93.743590 23.205591 93.784615 23.187679 93.825641 23.169763 93.866667 23.151843 93.907692 23.133919 93.948718 23.115992 93.989744 23.098063 94.030769 23.080132 94.071795 23.062200 94.112821 23.044266 94.153846 23.026332" class="line reactive nofill" /></g></g><g class="titles" /><g transform="translate(94, 10)" class="plot overlay"><g class="series serie-0 color-0" /></g><g transform="translate(94, 10)" class="plot text-overlay"><g class="series serie-0 color-0" /></g><g transform="translate(94, 10)" class="plot tooltip-overlay"><g transform="translate(0 0)" style="opacity: 0" class="tooltip"><rect rx="0" ry="0" width="0" height="0" class="tooltip-box" /><g class="text" /></g></g></g></svg>