<?xml version='1.0' encoding='utf-8'?>
<svg xmlns="http://www.w3.org/2000/svg" id="chart-c1728e7f-1fc8-489e-bbc5-4199840b66ed" class="pygal-chart pygal-sparkline" viewBox="0 0 200 50" width="200" height="50"><!--Generated with pygal 3.0.4 (etree) ©Kozea 2012-2016 on 2024-04-28--><!--http://pygal.org--><!--http://github.com/Kozea/pygal--><defs><style type="text/css">#chart-c1728e7f-1fc8-489e-bbc5-4199840b66ed{-webkit-user-select:none;-webkit-font-smoothing:antialiased;font-family:Consolas,"Liberation Mono",Menlo,Courier,monospace}#chart-c1728e7f-1fc8-489e-bbc5-4199840b66ed .title{font-family:Consolas,"Liberation Mono",Menlo,Courier,monospace;font-size:16px}#chart-c1728e7f-1fc8-489e-bbc5-4199840b66ed .legends .legend text{font-family:Consolas,"Liberation Mono",Menlo,Courier,monospace;font-size:14px}#chart-c1728e7f-1fc8-489e-bbc5-4199840b66ed .axis text{font-family:Consolas,"Liberation Mono",Menlo,Courier,monospace;font-size:10px}#chart-c1728e7f-1fc8-489e-bbc5-4199840b66ed .axis text.major{font-family:Consolas,"Liberation Mono",Menlo,Courier,monospace;font-size:10px}#chart-c1728e7f-1fc8-489e-bbc5-4199840b66ed .text-overlay text.value{font-family:Consolas,"Liberation Mono",Menlo,Courier,monospace;font-size:16px}#chart-c1728e7f-1fc8-489e-bbc5-4199840b66ed .text-overlay text.label{font-family:Consolas,"Liberation Mono",Menlo,Courier,monospace;font-size:10px}#chart-c1728e7f-1fc8-489e-bbc5-4199840b66ed .tooltip{font-family:Consolas,"Liberation Mono",Menlo,Courier,monospace;font-size:14px}#chart-c1728e7f-1fc8-489e-bbc5-4199840b66ed text.no_data{font-family:Consolas,"Liberation Mono",Menlo,Courier,monospace;font-size:64px}
#chart-c1728e7f-1fc8-489e-bbc5-4199840b66ed{background-color:rgba(249,249,249,1)}#chart-c1728e7f-1fc8-489e-bbc5-4199840b66ed path,#chart-c1728e7f-1fc8-489e-bbc5-4199840b66ed line,#chart-c1728e7f-1fc8-489e-bbc5-4199840b66ed rect,#chart-c1728e7f-1fc8-489e-bbc5-4199840b66ed circle{-webkit-transition:150ms;-moz-transition:150ms;transition:150ms}#chart-c1728e7f-1fc8-489e-bbc5-4199840b66ed .graph &gt; .background{fill:rgba(249,249,249,1)}#chart-c1728e7f-1fc8-489e-bbc5-4199840b66ed .plot &gt; .background{fill:rgba(255,255,255,1)}#chart-c1728e7f-1fc8-489e-bbc5-4199840b66ed .graph{fill:rgba(0,0,0,.87)}#chart-c1728e7f-1fc8-489e-bbc5-4199840b66ed text.no_data{fill:rgba(0,0,0,1)}#chart-c1728e7f-1fc8-489e-bbc5-4199840b66ed .title{fill:rgba(0,0,0,1)}#chart-c1728e7f-1fc8-489e-bbc5-4199840b66ed .legends .legend text{fill:rgba(0,0,0,.87)}#chart-c1728e7f-1fc8-489e-bbc5-4199840b66ed .legends .legend:hover text{fill:rgba(0,0,0,1)}#chart-c1728e7f-1fc8-489e-bbc5-4199840b66ed .axis .line{stroke:rgba(0,0,0,1)}#chart-c1728e7f-1fc8-489e-bbc5-4199840b66ed .axis .guide.line{stroke:rgba(0,0,0,.54)}#chart-c1728e7f-1fc8-489e-bbc5-4199840b66ed .axis .major.line{stroke:rgba(0,0,0,.87)}#chart-c1728e7f-1fc8-489e-bbc5-4199840b66ed .axis text.major{fill:rgba(0,0,0,1)}#chart-c1728e7f-1fc8-489e-bbc5-4199840b66ed .axis.y .guides:hover .guide.line,#chart-c1728e7f-1fc8-489e-bbc5-4199840b66ed .line-graph .axis.x .guides:hover .guide.line,#chart-c1728e7f-1fc8-489e-bbc5-4199840b66ed .stackedline-graph .axis.x .guides:hover .guide.line,#chart-c1728e7f-1fc8-489e-bbc5-4199840b66ed .xy-graph .axis.x .guides:hover .guide.line{stroke:rgba(0,0,0,1)}#chart-c1728e7f-1fc8-489e-bbc5-4199840b66ed .axis .guides:hover text{fill:rgba(0,0,0,1)}#chart-c1728e7f-1fc8-489e-bbc5-4199840b66ed .reactive{fill-opacity:.7;stroke-opacity:.8;stroke-width:1}#chart-c1728e7f-1fc8-489e-bbc5-4199840b66ed .ci{stroke:rgba(0,0,0,.87)}#chart-c1728e7f-1fc8-489e-bbc5-4199840b66ed .reactive.active,#chart-c1728e7f-1fc8-489e-bbc5-4199840b66ed .active .reactive{fill-opacity:.8;stroke-opacity:.9;stroke-width:4}#chart-c1728e7f-1fc8-489e-bbc5-4199840b66ed .ci .reactive.active{stroke-width:1.5}#chart-c1728e7f-1fc8-489e-bbc5-4199840b66ed .series text{fill:rgba(0,0,0,1)}#chart-c1728e7f-1fc8-489e-bbc5-4199840b66ed .tooltip rect{fill:rgba(255,255,255,1);stroke:rgba(0,0,0,1);-webkit-transition:opacity 150ms;-moz-transition:opacity 150ms;transition:opacity 150ms}#chart-c1728e7f-1fc8-489e-bbc5-4199840b66ed .tooltip .label{fill:rgba(0,0,0,.87)}#chart-c1728e7f-1fc8-489e-bbc5-4199840b66ed .tooltip .label{fill:rgba(0,0,0,.87)}#chart-c1728e7f-1fc8-489e-bbc5-4199840b66ed .tooltip .legend{font-size:.8em;fill:rgba(0,0,0,.54)}#chart-c1728e7f-1fc8-489e-bbc5-4199840b66ed .tooltip .x_label{font-size:.6em;fill:rgba(0,0,0,1)}#chart-c1728e7f-1fc8-489e-bbc5-4199840b66ed .tooltip .xlink{font-size:.5em;text-decoration:underline}#chart-c1728e7f-1fc8-489e-bbc5-4199840b66ed .tooltip .value{font-size:1.5em}#chart-c1728e7f-1fc8-489e-bbc5-4199840b66ed .bound{font-size:.5em}#chart-c1728e7f-1fc8-489e-bbc5-4199840b66ed .max-value{font-size:.75em;fill:rgba(0,0,0,.54)}#chart-c1728e7f-1fc8-489e-bbc5-4199840b66ed .map-element{fill:rgba(255,255,255,1);stroke:rgba(0,0,0,.54) !important}#chart-c1728e7f-1fc8-489e-bbc5-4199840b66ed .map-element .reactive{fill-opacity:inherit;stroke-opacity:inherit}#chart-c1728e7f-1fc8-489e-bbc5-4199840b66ed .color-0,#chart-c1728e7f-1fc8-489e-bbc5-4199840b66ed .color-0 a:visited{stroke:#F44336;fill:#F44336}#chart-c1728e7f-1fc8-489e-bbc5-4199840b66ed .text-overlay .color-0 text{fill:black}
#chart-c1728e7f-1fc8-489e-bbc5-4199840b66ed text.no_data{text-anchor:middle}#chart-c1728e7f-1fc8-489e-bbc5-4199840b66ed .guide.line{fill:none}#chart-c1728e7f-1fc8-489e-bbc5-4199840b66ed .centered{text-anchor:middle}#chart-c1728e7f-1fc8-489e-bbc5-4199840b66ed .title{text-anchor:middle}#chart-c1728e7f-1fc8-489e-bbc5-4199840b66ed .legends .legend text{fill-opacity:1}#chart-c1728e7f-1fc8-489e-bbc5-4199840b66ed .axis.x text{text-anchor:middle}#chart-c1728e7f-1fc8-489e-bbc5-4199840b66ed .axis.x:not(.web) text[transform]{text-anchor:start}#chart-c1728e7f-1fc8-489e-bbc5-4199840b66ed .axis.x:not(.web) text[transform].backwards{text-anchor:end}#chart-c1728e7f-1fc8-489e-bbc5-4199840b66ed .axis.y text{text-anchor:end}#chart-c1728e7f-1fc8-489e-bbc5-4199840b66ed .axis.y text[transform].backwards{text-anchor:start}#chart-c1728e7f-1fc8-489e-bbc5-4199840b66ed .axis.y2 text{text-anchor:start}#chart-c1728e7f-1fc8-489e-bbc5-4199840b66ed .axis.y2 text[transform].backwards{text-anchor:end}#chart-c1728e7f-1fc8-489e-bbc5-4199840b66ed .axis .guide.line{stroke-dasharray:4,4;stroke:black}#chart-c1728e7f-1fc8-489e-bbc5-4199840b66ed .axis .major.guide.line{stroke-dasharray:6,6;stroke:black}#chart-c1728e7f-1fc8-489e-bbc5-4199840b66ed .horizontal .axis.y .guide.line,#chart-c1728e7f-1fc8-489e-bbc5-4199840b66ed .horizontal .axis.y2 .guide.line,#chart-c1728e7f-1fc8-489e-bbc5-4199840b66ed .vertical .axis.x .guide.line{opacity:0}#chart-c1728e7f-1fc8-489e-bbc5-4199840b66ed .horizontal .axis.always_show .guide.line,#chart-c1728e7f-1fc8-489e-bbc5-4199840b66ed .vertical .axis.always_show .guide.line{opacity:1 !important}#chart-c1728e7f-1fc8-489e-bbc5-4199840b66ed .axis.y .guides:hover .guide.line,#chart-c1728e7f-1fc8-489e-bbc5-4199840b66ed .axis.y2 .guides:hover .guide.line,#chart-c1728e7f-1fc8-489e-bbc5-4199840b66ed .axis.x .guides:hover .guide.line{opacity:1}#chart-c1728e7f-1fc8-489e-bbc5-4199840b66ed .axis .guides:hover text{opacity:1}#chart-c1728e7f-1fc8-489e-bbc5-4199840b66ed .nofill{fill:none}#chart-c1728e7f-1fc8-489e-bbc5-4199840b66ed .subtle-fill{fill-opacity:.2}#chart-c1728e7f-1fc8-489e-bbc5-4199840b66ed .dot{stroke-width:1px;fill-opacity:1;stroke-opacity:1}#chart-c1728e7f-1fc8-489e-bbc5-4199840b66ed .dot.active{stroke-width:5px}#chart-c1728e7f-1fc8-489e-bbc5-4199840b66ed .dot.negative{fill:transparent}#chart-c1728e7f-1fc8-489e-bbc5-4199840b66ed text,#chart-c1728e7f-1fc8-489e-bbc5-4199840b66ed tspan{stroke:none !important}#chart-c1728e7f-1fc8-489e-bbc5-4199840b66ed .series text.active{opacity:1}#chart-c1728e7f-1fc8-489e-bbc5-4199840b66ed .tooltip rect{fill-opacity:.95;stroke-width:.5}#chart-c1728e7f-1fc8-489e-bbc5-4199840b66ed .tooltip text{fill-opacity:1}#chart-c1728e7f-1fc8-489e-bbc5-4199840b66ed .showable{visibility:hidden}#chart-c1728e7f-1fc8-489e-bbc5-4199840b66ed .showable.shown{visibility:visible}#chart-c1728e7f-1fc8-489e-bbc5-4199840b66ed .gauge-background{fill:rgba(229,229,229,1);stroke:none}#chart-c1728e7f-1fc8-489e-bbc5-4199840b66ed .bg-lines{stroke:rgba(249,249,249,1);stroke-width:2px}</style><script type="text/javascript">window.pygal = window.pygal || {};window.pygal.config = window.pygal.config || {};window.pygal.config['c1728e7f-1fc8-489e-bbc5-4199840b66ed'] = {"allow_interruptions": false, "box_mode": "extremes", "classes": ["pygal-chart", "pygal-sparkline"], "css": ["file://style.css", "file://graph.css"], "defs": [], "disable_xml_declaration": false, "dots_size": 2.5, "dynamic_print_values": false, "explicit_size": true, "fill": false, "force_uri_protocol": "https", "formatter": null, "half_pie": false, "height": 50, "include_x_axis": false, "inner_radius": 0, "interpolate": "cubic", "interpolation_parameters": {}, "interpolation_precision": 250, "inverse_y_axis": false, "js": [], "legend_at_bottom": false, "legend_at_bottom_columns": null, "legend_box_size": 12, "logarithmic": false, "margin": 10, "margin_bottom": null, "margin_left": null, "margin_right": null, "margin_top": null, "max_scale": 2, "min_scale": 1, "missing_value_fill_truncation": "x", "no_data_text": "", "no_prefix": false, "order_min": null, "pretty_print": false, "print_labels": false, "print_values": false, "print_values_position": "center", "print_zeroes": true, "range": null, "rounded_bars": null, "secondary_range": null, "show_dots": false, "show_legend": false, "show_minor_x_labels": true, "show_minor_y_labels": true, "show_only_major_dots": false, "show_x_guides": false, "show_x_labels": false, "show_y_guides": true, "show_y_labels": true, "spacing": 0, "stack_from_top": false, "strict": false, "stroke": true, "stroke_style": null, "style": {"background": "rgba(249, 249, 249, 1)", "ci_colors": [], "colors": ["#F44336", "#3F51B5", "#009688", "#FFC107", "#FF5722", "#9C27B0", "#03A9F4", "#8BC34A", "#FF9800", "#E91E63", "#2196F3", "#4CAF50", "#FFEB3B", "#673AB7", "#00BCD4", "#CDDC39", "#9E9E9E", "#607D8B"], "dot_opacity": "1", "font_family": "Consolas, \"Liberation Mono\", Menlo, Courier, monospace", "foreground": "rgba(0, 0, 0, .87)", "foreground_strong": "rgba(0, 0, 0, 1)", "foreground_subtle": "rgba(0, 0, 0, .54)", "guide_stroke_color": "black", "guide_stroke_dasharray": "4,4", "label_font_family": "Consolas, \"Liberation Mono\", Menlo, Courier, monospace", "label_font_size": 10, "legend_font_family": "Consolas, \"Liberation Mono\", Menlo, Courier, monospace", "legend_font_size": 14, "major_guide_stroke_color": "black", "major_guide_stroke_dasharray": "6,6", "major_label_font_family": "Consolas, \"Liberation Mono\", Menlo, Courier, monospace", "major_label_font_size": 10, "no_data_font_family": "Consolas, \"Liberation Mono\", Menlo, Courier, monospace", "no_data_font_size": 64, "opacity": ".7", "opacity_hover": ".8", "plot_background": "rgba(255, 255, 255, 1)", "stroke_opacity": ".8", "stroke_opacity_hover": ".9", "stroke_width": "1", "stroke_width_hover": "4", "title_font_family": "Consolas, \"Liberation Mono\", Menlo, Courier, monospace", "title_font_size": 16, "tooltip_font_family": "Consolas, \"Liberation Mono\", Menlo, Courier, monospace", "tooltip_font_size": 14, "transition": "150ms", "value_background": "rgba(229, 229, 229, 1)", "value_colors": [], "value_font_family": "Consolas, \"Liberation Mono\", Menlo, Courier, monospace", "value_font_size": 16, "value_label_font_family": "Consolas, \"Liberation Mono\", Menlo, Courier, monospace", "value_label_font_size": 10}, "title": null, "tooltip_border_radius": 0, "tooltip_fancy_mode": true, "truncate_label": null, "truncate_legend": null, "width": 200, "x_label_rotation": 0, "x_labels": ["2024/4", "2024/3", "2024/2", "2024/1", "2023/12", "2023/11", "2023/10"], "x_labels_major": null, "x_labels_major_count": null, "x_labels_major_every": null, "x_title": null, "xrange": null, "y_label_rotation": 0, "y_labels": null, "y_labels_major": null, "y_labels_major_count": null, "y_labels_major_every": null, "y_title": null, "zero": 0, "legends": [""]}</script></defs><title>Pygal</title><g class="graph line-graph vertical"><rect x="0" y="0" width="200" height="50" class="background" /><g transform="translate(82, 10)" class="plot"><rect x="0" y="0" width="108.0" height="30" class="background" /><g class="axis y always_show"><path d="M0.000000 30.000000 h108.000000" class="line" /><g class="guides"><path d="M0.000000 29.423077 h108.000000" class="guide line" /><text x="-5" y="32.92307692307692" class="">0.8139664384</text><title>0.8139664384</title></g><g class="guides"><path d="M0.000000 0.576923 h108.000000" class="guide line" /><text x="-5" y="4.076923076923077" class="">14.0374016</text><title>14.0374016</title></g></g><g class="series serie-0 color-0"><path d="M2.076923 29.017256 L2.146154 29.021473 2.215385 29.025690 2.284615 29.029906 2.353846 29.034121 2.423077 29.038334 2.492308 29.042546 2.561538 29.046755 2.630769 29.050961 2.700000 29.055163 2.769231 29.059363 2.838462 29.063558 2.907692 29.067748 2.976923 29.071934 3.046154 29.076115 3.115385 29.080290 3.184615 29.084458 3.253846 29.088621 3.323077 29.092776 3.392308 29.096924 3.461538 29.101065 3.530769 29.105197 3.600000 29.109321 3.669231 29.113436 3.738462 29.117542 3.807692 29.121638 3.876923 29.125723 3.946154 29.129799 4.015385 29.133863 4.084615 29.137916 4.153846 29.141957 4.223077 29.145986 4.292308 29.150003 4.361538 29.154007 4.430769 29.157997 4.500000 29.161973 4.569231 29.165936 4.638462 29.169883 4.707692 29.173816 4.776923 29.177733 4.846154 29.181635 4.915385 29.185520 4.984615 29.189389 5.053846 29.193241 5.123077 29.197075 5.192308 29.200892 5.261538 29.204690 5.330769 29.208470 5.400000 29.212231 5.469231 29.215972 5.538462 29.219693 5.607692 29.223395 5.676923 29.227075 5.746154 29.230734 5.815385 29.234373 5.884615 29.237989 5.953846 29.241583 6.023077 29.245154 6.092308 29.248702 6.161538 29.252227 6.230769 29.255727 6.300000 29.259204 6.369231 29.262655 6.438462 29.266082 6.507692 29.269483 6.576923 29.272859 6.646154 29.276207 6.715385 29.279530 6.784615 29.282825 6.853846 29.286092 6.923077 29.289332 6.992308 29.292543 7.061538 29.295726 7.130769 29.298879 7.200000 29.302003 7.269231 29.305097 7.338462 29.308160 7.407692 29.311193 7.476923 29.314195 7.546154 29.317165 7.615385 29.320102 7.684615 29.323008 7.753846 29.325881 7.823077 29.328720 7.892308 29.331526 7.961538 29.334298 8.030769 29.337036 8.100000 29.339739 8.169231 29.342406 8.238462 29.345038 8.307692 29.347634 8.376923 29.350193 8.446154 29.352716 8.515385 29.355201 8.584615 29.357649 8.653846 29.360059 8.723077 29.362430 8.792308 29.364762 8.861538 29.367055 8.930769 29.369308 9.000000 29.371522 9.069231 29.373694 9.138462 29.375826 9.207692 29.377917 9.276923 29.379966 9.346154 29.381973 9.415385 29.383937 9.484615 29.385858 9.553846 29.387736 9.623077 29.389570 9.692308 29.391361 9.761538 29.393106 9.830769 29.394807 9.900000 29.396462 9.969231 29.398072 10.038462 29.399635 10.107692 29.401152 10.176923 29.402622 10.246154 29.404045 10.315385 29.405419 10.384615 29.406746 10.453846 29.408024 10.523077 29.409253 10.592308 29.410432 10.661538 29.411562 10.730769 29.412642 10.800000 29.413671 10.869231 29.414649 10.938462 29.415575 11.007692 29.416450 11.076923 29.417273 11.146154 29.418042 11.215385 29.418759 11.284615 29.419423 11.353846 29.420032 11.423077 29.420588 11.492308 29.421088 11.561538 29.421534 11.630769 29.421924 11.700000 29.422258 11.769231 29.422536 11.838462 29.422757 11.907692 29.422921 11.976923 29.423028 12.046154 29.423077 12.115385 29.423067 12.184615 29.422999 12.253846 29.422872 12.323077 29.422685 12.392308 29.422438 12.461538 29.422131 12.530769 29.421763 12.600000 29.421334 12.669231 29.420844 12.738462 29.420291 12.807692 29.419677 12.876923 29.418999 12.946154 29.418258 13.015385 29.417454 13.084615 29.416586 13.153846 29.415653 13.223077 29.414656 13.292308 29.413593 13.361538 29.412465 13.430769 29.411271 13.500000 29.410010 13.569231 29.408683 13.638462 29.407288 13.707692 29.405826 13.776923 29.404296 13.846154 29.402697 13.915385 29.401030 13.984615 29.399293 14.053846 29.397487 14.123077 29.395610 14.192308 29.393663 14.261538 29.391646 14.330769 29.389557 14.400000 29.387396 14.469231 29.385163 14.538462 29.382858 14.607692 29.380480 14.676923 29.378029 14.746154 29.375504 14.815385 29.372905 14.884615 29.370231 14.953846 29.367483 15.023077 29.364659 15.092308 29.361759 15.161538 29.358784 15.230769 29.355732 15.300000 29.352602 15.369231 29.349396 15.438462 29.346112 15.507692 29.342750 15.576923 29.339309 15.646154 29.335789 15.715385 29.332190 15.784615 29.328511 15.853846 29.324752 15.923077 29.320912 15.992308 29.316992 16.061538 29.312990 16.130769 29.308906 16.200000 29.304740 16.269231 29.300491 16.338462 29.296160 16.407692 29.291745 16.476923 29.287246 16.546154 29.282663 16.615385 29.277995 16.684615 29.273243 16.753846 29.268405 16.823077 29.263481 16.892308 29.258471 16.961538 29.253374 17.030769 29.248190 17.100000 29.242919 17.169231 29.237560 17.238462 29.232112 17.307692 29.226576 17.376923 29.220951 17.446154 29.215236 17.515385 29.209432 17.584615 29.203537 17.653846 29.197552 17.723077 29.191475 17.792308 29.185307 17.861538 29.179047 17.930769 29.172695 18.000000 29.166250 18.069231 29.159712 18.138462 29.153080 18.207692 29.146354 18.276923 29.139534 18.346154 29.132620 18.415385 29.125610 18.484615 29.118505 18.553846 29.111303 18.623077 29.104006 18.692308 29.096611 18.761538 29.089120 18.830769 29.081530 18.900000 29.073843 18.969231 29.066058 19.038462 29.058173 19.107692 29.050190 19.176923 29.042107 19.246154 29.033923 19.315385 29.025640 19.384615 29.017256 19.453846 29.008770 19.523077 29.000185 19.592308 28.991501 19.661538 28.982719 19.730769 28.973840 19.800000 28.964867 19.869231 28.955799 19.938462 28.946639 20.007692 28.937386 20.076923 28.928043 20.146154 28.918611 20.215385 28.909091 20.284615 28.899483 20.353846 28.889790 20.423077 28.880012 20.492308 28.870151 20.561538 28.860208 20.630769 28.850183 20.700000 28.840079 20.769231 28.829896 20.838462 28.819635 20.907692 28.809299 20.976923 28.798887 21.046154 28.788401 21.115385 28.777842 21.184615 28.767212 21.253846 28.756512 21.323077 28.745742 21.392308 28.734904 21.461538 28.724000 21.530769 28.713030 21.600000 28.701995 21.669231 28.690898 21.738462 28.679738 21.807692 28.668517 21.876923 28.657237 21.946154 28.645898 22.015385 28.634502 22.084615 28.623050 22.153846 28.611542 22.223077 28.599981 22.292308 28.588368 22.361538 28.576703 22.430769 28.564988 22.500000 28.553224 22.569231 28.541412 22.638462 28.529553 22.707692 28.517649 22.776923 28.505701 22.846154 28.493710 22.915385 28.481676 22.984615 28.469602 23.053846 28.457489 23.123077 28.445337 23.192308 28.433148 23.261538 28.420923 23.330769 28.408664 23.400000 28.396371 23.469231 28.384045 23.538462 28.371688 23.607692 28.359302 23.676923 28.346886 23.746154 28.334443 23.815385 28.321973 23.884615 28.309478 23.953846 28.296959 24.023077 28.284417 24.092308 28.271853 24.161538 28.259269 24.230769 28.246666 24.300000 28.234044 24.369231 28.221405 24.438462 28.208751 24.507692 28.196082 24.576923 28.183399 24.646154 28.170705 24.715385 28.157999 24.784615 28.145284 24.853846 28.132559 24.923077 28.119828 24.992308 28.107090 25.061538 28.094347 25.130769 28.081600 25.200000 28.068850 25.269231 28.056099 25.338462 28.043348 25.407692 28.030597 25.476923 28.017848 25.546154 28.005103 25.615385 27.992362 25.684615 27.979626 25.753846 27.966898 25.823077 27.954177 25.892308 27.941465 25.961538 27.928764 26.030769 27.916074 26.100000 27.903397 26.169231 27.890734 26.238462 27.878086 26.307692 27.865454 26.376923 27.852840 26.446154 27.840244 26.515385 27.827668 26.584615 27.815113 26.653846 27.802581 26.723077 27.790071 26.792308 27.777587 26.861538 27.765128 26.930769 27.752696 27.000000 27.740292 27.069231 27.727917 27.138462 27.715573 27.207692 27.703261 27.276923 27.690981 27.346154 27.678736 27.415385 27.666526 27.484615 27.654352 27.553846 27.642216 27.623077 27.630119 27.692308 27.618061 27.761538 27.606045 27.830769 27.594071 27.900000 27.582141 27.969231 27.570256 28.038462 27.558416 28.107692 27.546624 28.176923 27.534880 28.246154 27.523185 28.315385 27.511541 28.384615 27.499949 28.453846 27.488410 28.523077 27.476926 28.592308 27.465496 28.661538 27.454124 28.730769 27.442809 28.800000 27.431553 28.869231 27.420357 28.938462 27.409223 29.007692 27.398151 29.076923 27.387143 29.146154 27.376199 29.215385 27.365322 29.284615 27.354513 29.353846 27.343771 29.423077 27.333100 29.492308 27.322499 29.561538 27.311970 29.630769 27.301515 29.700000 27.291133 29.769231 27.280828 29.838462 27.270599 29.907692 27.260448 29.976923 27.250377 30.046154 27.240386 30.115385 27.230476 30.184615 27.220649 30.253846 27.210906 30.323077 27.201248 30.392308 27.191676 30.461538 27.182192 30.530769 27.172796 30.600000 27.163490 30.669231 27.154276 30.738462 27.145153 30.807692 27.136124 30.876923 27.127190 30.946154 27.118351 31.015385 27.109609 31.084615 27.100965 31.153846 27.092421 31.223077 27.083977 31.292308 27.075635 31.361538 27.067396 31.430769 27.059261 31.500000 27.051231 31.569231 27.043308 31.638462 27.035492 31.707692 27.027785 31.776923 27.020188 31.846154 27.012703 31.915385 27.005329 31.984615 26.998069 32.053846 26.990925 32.123077 26.983895 32.192308 26.976984 32.261538 26.970190 32.330769 26.963516 32.400000 26.956963 32.469231 26.950531 32.538462 26.944223 32.607692 26.938039 32.676923 26.931980 32.746154 26.926048 32.815385 26.920243 32.884615 26.914568 32.953846 26.909023 33.023077 26.903609 33.092308 26.898328 33.161538 26.893181 33.230769 26.888168 33.300000 26.883292 33.369231 26.878553 33.438462 26.873952 33.507692 26.869492 33.576923 26.865172 33.646154 26.860994 33.715385 26.856959 33.784615 26.853069 33.853846 26.849324 33.923077 26.845726 33.992308 26.842276 34.061538 26.838976 34.130769 26.835825 34.200000 26.832827 34.269231 26.829981 34.338462 26.827288 34.407692 26.824751 34.476923 26.822371 34.546154 26.820148 34.615385 26.818083 34.684615 26.816178 34.753846 26.814435 34.823077 26.812853 34.892308 26.811435 34.961538 26.810182 35.030769 26.809094 35.100000 26.808174 35.169231 26.807421 35.238462 26.806838 35.307692 26.806425 35.376923 26.806185 35.446154 26.806117 35.515385 26.806223 35.584615 26.806504 35.653846 26.806962 35.723077 26.807598 35.792308 26.808412 35.861538 26.809406 35.930769 26.810582 36.000000 26.811940 36.069231 26.813482 36.138462 26.815208 36.207692 26.817120 36.276923 26.819220 36.346154 26.821508 36.415385 26.823985 36.484615 26.826653 36.553846 26.829513 36.623077 26.832566 36.692308 26.835814 36.761538 26.839256 36.830769 26.842889 36.900000 26.846708 36.969231 26.850711 37.038462 26.854891 37.107692 26.859245 37.176923 26.863768 37.246154 26.868457 37.315385 26.873306 37.384615 26.878312 37.453846 26.883469 37.523077 26.888775 37.592308 26.894223 37.661538 26.899811 37.730769 26.905534 37.800000 26.911386 37.869231 26.917365 37.938462 26.923465 38.007692 26.929683 38.076923 26.936013 38.146154 26.942453 38.215385 26.948996 38.284615 26.955640 38.353846 26.962379 38.423077 26.969209 38.492308 26.976126 38.561538 26.983126 38.630769 26.990204 38.700000 26.997356 38.769231 27.004577 38.838462 27.011864 38.907692 27.019211 38.976923 27.026615 39.046154 27.034071 39.115385 27.041575 39.184615 27.049123 39.253846 27.056709 39.323077 27.064331 39.392308 27.071983 39.461538 27.079661 39.530769 27.087360 39.600000 27.095078 39.669231 27.102808 39.738462 27.110547 39.807692 27.118290 39.876923 27.126034 39.946154 27.133773 40.015385 27.141504 40.084615 27.149222 40.153846 27.156922 40.223077 27.164601 40.292308 27.172254 40.361538 27.179876 40.430769 27.187464 40.500000 27.195013 40.569231 27.202518 40.638462 27.209976 40.707692 27.217381 40.776923 27.224731 40.846154 27.232019 40.915385 27.239243 40.984615 27.246397 41.053846 27.253478 41.123077 27.260480 41.192308 27.267400 41.261538 27.274233 41.330769 27.280975 41.400000 27.287622 41.469231 27.294168 41.538462 27.300611 41.607692 27.306945 41.676923 27.313166 41.746154 27.319271 41.815385 27.325253 41.884615 27.331110 41.953846 27.336837 42.023077 27.342429 42.092308 27.347882 42.161538 27.353192 42.230769 27.358355 42.300000 27.363365 42.369231 27.368219 42.438462 27.372913 42.507692 27.377442 42.576923 27.381802 42.646154 27.385988 42.715385 27.389996 42.784615 27.393821 42.853846 27.397460 42.923077 27.400908 42.992308 27.404161 43.061538 27.407214 43.130769 27.410063 43.200000 27.412704 43.269231 27.415132 43.338462 27.417343 43.407692 27.419333 43.476923 27.421097 43.546154 27.422631 43.615385 27.423930 43.684615 27.424991 43.753846 27.425809 43.823077 27.426379 43.892308 27.426698 43.961538 27.426760 44.030769 27.426562 44.100000 27.426099 44.169231 27.425367 44.238462 27.424362 44.307692 27.423079 44.376923 27.421513 44.446154 27.419662 44.515385 27.417519 44.584615 27.415081 44.653846 27.412344 44.723077 27.409302 44.792308 27.405953 44.861538 27.402291 44.930769 27.398312 45.000000 27.394012 45.069231 27.389386 45.138462 27.384430 45.207692 27.379140 45.276923 27.373512 45.346154 27.367540 45.415385 27.361221 45.484615 27.354551 45.553846 27.347525 45.623077 27.340138 45.692308 27.332387 45.761538 27.324266 45.830769 27.315773 45.900000 27.306901 45.969231 27.297648 46.038462 27.288008 46.107692 27.277978 46.176923 27.267552 46.246154 27.256728 46.315385 27.245499 46.384615 27.233862 46.453846 27.221813 46.523077 27.209347 46.592308 27.196460 46.661538 27.183148 46.730769 27.169406 46.800000 27.155230 46.869231 27.140615 46.938462 27.125557 47.007692 27.110053 47.076923 27.094096 47.146154 27.077684 47.215385 27.060812 47.284615 27.043476 47.353846 27.025670 47.423077 27.007391 47.492308 26.988635 47.561538 26.969397 47.630769 26.949672 47.700000 26.929457 47.769231 26.908747 47.838462 26.887538 47.907692 26.865825 47.976923 26.843605 48.046154 26.820872 48.115385 26.797622 48.184615 26.773851 48.253846 26.749556 48.323077 26.724730 48.392308 26.699370 48.461538 26.673473 48.530769 26.647032 48.600000 26.620045 48.669231 26.592506 48.738462 26.564411 48.807692 26.535756 48.876923 26.506537 48.946154 26.476750 49.015385 26.446389 49.084615 26.415451 49.153846 26.383931 49.223077 26.351825 49.292308 26.319128 49.361538 26.285837 49.430769 26.251947 49.500000 26.217453 49.569231 26.182351 49.638462 26.146637 49.707692 26.110307 49.776923 26.073356 49.846154 26.035780 49.915385 25.997574 49.984615 25.958734 50.053846 25.919256 50.123077 25.879136 50.192308 25.838369 50.261538 25.796950 50.330769 25.754876 50.400000 25.712142 50.469231 25.668744 50.538462 25.624677 50.607692 25.579938 50.676923 25.534521 50.746154 25.488422 50.815385 25.441637 50.884615 25.394163 50.953846 25.345993 51.023077 25.297125 51.092308 25.247553 51.161538 25.197273 51.230769 25.146282 51.300000 25.094574 51.369231 25.042146 51.438462 24.988992 51.507692 24.935109 51.576923 24.880492 51.646154 24.825138 51.715385 24.769041 51.784615 24.712197 51.853846 24.654602 51.923077 24.596251 51.992308 24.537141 52.061538 24.477267 52.130769 24.416624 52.200000 24.355209 52.269231 24.293016 52.338462 24.230042 52.407692 24.166282 52.476923 24.101732 52.546154 24.036387 52.615385 23.970244 52.684615 23.903297 52.753846 23.835543 52.823077 23.766977 52.892308 23.697595 52.961538 23.627392 53.030769 23.556364 53.100000 23.484507 53.169231 23.411817 53.238462 23.338288 53.307692 23.263918 53.376923 23.188700 53.446154 23.112632 53.515385 23.035708 53.584615 22.957925 53.653846 22.879278 53.723077 22.799762 53.792308 22.719374 53.861538 22.638109 53.930769 22.555962 54.000000 22.472930 54.069231 22.389010 54.138462 22.304211 54.207692 22.218542 54.276923 22.132014 54.346154 22.044637 54.415385 21.956422 54.484615 21.867379 54.553846 21.777518 54.623077 21.686849 54.692308 21.595383 54.761538 21.503131 54.830769 21.410102 54.900000 21.316306 54.969231 21.221755 55.038462 21.126458 55.107692 21.030426 55.176923 20.933669 55.246154 20.836197 55.315385 20.738021 55.384615 20.639151 55.453846 20.539597 55.523077 20.439370 55.592308 20.338480 55.661538 20.236937 55.730769 20.134752 55.800000 20.031934 55.869231 19.928495 55.938462 19.824445 56.007692 19.719793 56.076923 19.614550 56.146154 19.508727 56.215385 19.402334 56.284615 19.295381 56.353846 19.187878 56.423077 19.079836 56.492308 18.971265 56.561538 18.862176 56.630769 18.752578 56.700000 18.642482 56.769231 18.531899 56.838462 18.420838 56.907692 18.309311 56.976923 18.197326 57.046154 18.084895 57.115385 17.972029 57.184615 17.858736 57.253846 17.745028 57.323077 17.630915 57.392308 17.516407 57.461538 17.401514 57.530769 17.286248 57.600000 17.170617 57.669231 17.054633 57.738462 16.938306 57.807692 16.821646 57.876923 16.704664 57.946154 16.587369 58.015385 16.469772 58.084615 16.351883 58.153846 16.233714 58.223077 16.115273 58.292308 15.996571 58.361538 15.877620 58.430769 15.758428 58.500000 15.639006 58.569231 15.519365 58.638462 15.399515 58.707692 15.279467 58.776923 15.159229 58.846154 15.038814 58.915385 14.918231 58.984615 14.797490 59.053846 14.676602 59.123077 14.555578 59.192308 14.434426 59.261538 14.313159 59.330769 14.191785 59.400000 14.070317 59.469231 13.948762 59.538462 13.827133 59.607692 13.705439 59.676923 13.583691 59.746154 13.461899 59.815385 13.340073 59.884615 13.218224 59.953846 13.096361 60.023077 12.974496 60.092308 12.852639 60.161538 12.730799 60.230769 12.608988 60.300000 12.487215 60.369231 12.365491 60.438462 12.243826 60.507692 12.122231 60.576923 12.000716 60.646154 11.879290 60.715385 11.757965 60.784615 11.636751 60.853846 11.515658 60.923077 11.394696 60.992308 11.273876 61.061538 11.153208 61.130769 11.032703 61.200000 10.912370 61.269231 10.792220 61.338462 10.672263 61.407692 10.552510 61.476923 10.432971 61.546154 10.313656 61.615385 10.194575 61.684615 10.075740 61.753846 9.957159 61.823077 9.838845 61.892308 9.720806 61.961538 9.603053 62.030769 9.485597 62.100000 9.368447 62.169231 9.251615 62.238462 9.135109 62.307692 9.018942 62.376923 8.903123 62.446154 8.787662 62.515385 8.672570 62.584615 8.557857 62.653846 8.443533 62.723077 8.329609 62.792308 8.216094 62.861538 8.103000 62.930769 7.990337 63.000000 7.878114 63.069231 7.766343 63.138462 7.655033 63.207692 7.544196 63.276923 7.433840 63.346154 7.323977 63.415385 7.214616 63.484615 7.105769 63.553846 6.997445 63.623077 6.889655 63.692308 6.782409 63.761538 6.675718 63.830769 6.569591 63.900000 6.464039 63.969231 6.359073 64.038462 6.254702 64.107692 6.150937 64.176923 6.047789 64.246154 5.945267 64.315385 5.843382 64.384615 5.742144 64.453846 5.641564 64.523077 5.541652 64.592308 5.442418 64.661538 5.343873 64.730769 5.246026 64.800000 5.148889 64.869231 5.052471 64.938462 4.956782 65.007692 4.861834 65.076923 4.767637 65.146154 4.674200 65.215385 4.581534 65.284615 4.489650 65.353846 4.398557 65.423077 4.308266 65.492308 4.218788 65.561538 4.130132 65.630769 4.042309 65.700000 3.955330 65.769231 3.869204 65.838462 3.783942 65.907692 3.699554 65.976923 3.616051 66.046154 3.533443 66.115385 3.451740 66.184615 3.370952 66.253846 3.291090 66.323077 3.212165 66.392308 3.134185 66.461538 3.057163 66.530769 2.981108 66.600000 2.906030 66.669231 2.831940 66.738462 2.758848 66.807692 2.686764 66.876923 2.615699 66.946154 2.545663 67.015385 2.476666 67.084615 2.408719 67.153846 2.341832 67.223077 2.276015 67.292308 2.211278 67.361538 2.147633 67.430769 2.085089 67.500000 2.023656 67.569231 1.963345 67.638462 1.904167 67.707692 1.846131 67.776923 1.789247 67.846154 1.733527 67.915385 1.678980 67.984615 1.625617 68.053846 1.573448 68.123077 1.522484 68.192308 1.472734 68.261538 1.424209 68.330769 1.376920 68.400000 1.330876 68.469231 1.286088 68.538462 1.242566 68.607692 1.200322 68.676923 1.159364 68.746154 1.119703 68.815385 1.081350 68.884615 1.044314 68.953846 1.008607 69.023077 0.974239 69.092308 0.941219 69.161538 0.909559 69.230769 0.879267 69.300000 0.850356 69.369231 0.822835 69.438462 0.796714 69.507692 0.772004 69.576923 0.748715 69.646154 0.726858 69.715385 0.706442 69.784615 0.687478 69.853846 0.669976 69.923077 0.653947 69.992308 0.639401 70.061538 0.626349 70.130769 0.614799 70.200000 0.604764 70.269231 0.596253 70.338462 0.589277 70.407692 0.583845 70.476923 0.579969 70.546154 0.577658 70.615385 0.576923 70.684615 0.577774 70.753846 0.580222 70.823077 0.584276 70.892308 0.589947 70.961538 0.597246 71.030769 0.606183 71.100000 0.616767 71.169231 0.629010 71.238462 0.642922 71.307692 0.658512 71.376923 0.675789 71.446154 0.694742 71.515385 0.715362 71.584615 0.737635 71.653846 0.761551 71.723077 0.787097 71.792308 0.814261 71.861538 0.843032 71.930769 0.873398 72.000000 0.905347 72.069231 0.938867 72.138462 0.973947 72.207692 1.010575 72.276923 1.048739 72.346154 1.088427 72.415385 1.129627 72.484615 1.172328 72.553846 1.216517 72.623077 1.262183 72.692308 1.309315 72.761538 1.357900 72.830769 1.407927 72.900000 1.459383 72.969231 1.512257 73.038462 1.566538 73.107692 1.622212 73.176923 1.679270 73.246154 1.737698 73.315385 1.797485 73.384615 1.858620 73.453846 1.921089 73.523077 1.984883 73.592308 2.049988 73.661538 2.116393 73.730769 2.184086 73.800000 2.253056 73.869231 2.323290 73.938462 2.394778 74.007692 2.467506 74.076923 2.541463 74.146154 2.616638 74.215385 2.693018 74.284615 2.770593 74.353846 2.849349 74.423077 2.929276 74.492308 3.010361 74.561538 3.092592 74.630769 3.175959 74.700000 3.260448 74.769231 3.346049 74.838462 3.432749 74.907692 3.520537 74.976923 3.609400 75.046154 3.699328 75.115385 3.790308 75.184615 3.882329 75.253846 3.975378 75.323077 4.069444 75.392308 4.164515 75.461538 4.260579 75.530769 4.357625 75.600000 4.455640 75.669231 4.554614 75.738462 4.654533 75.807692 4.755387 75.876923 4.857163 75.946154 4.959850 76.015385 5.063436 76.084615 5.167908 76.153846 5.273257 76.223077 5.379468 76.292308 5.486532 76.361538 5.594435 76.430769 5.703166 76.500000 5.812714 76.569231 5.923066 76.638462 6.034211 76.707692 6.146137 76.776923 6.258832 76.846154 6.372284 76.915385 6.486482 76.984615 6.601414 77.053846 6.717067 77.123077 6.833431 77.192308 6.950493 77.261538 7.068242 77.330769 7.186665 77.400000 7.305751 77.469231 7.425488 77.538462 7.545865 77.607692 7.666869 77.676923 7.788490 77.746154 7.910714 77.815385 8.033530 77.884615 8.156926 77.953846 8.280891 78.023077 8.405413 78.092308 8.530480 78.161538 8.656080 78.230769 8.782202 78.300000 8.908833 78.369231 9.035961 78.438462 9.163576 78.507692 9.291665 78.576923 9.420217 78.646154 9.549219 78.715385 9.678659 78.784615 9.808527 78.853846 9.938810 78.923077 10.069497 78.992308 10.200575 79.061538 10.332032 79.130769 10.463858 79.200000 10.596040 79.269231 10.728567 79.338462 10.861426 79.407692 10.994606 79.476923 11.128095 79.546154 11.261881 79.615385 11.395953 79.684615 11.530298 79.753846 11.664905 79.823077 11.799762 79.892308 11.934858 79.961538 12.070180 80.030769 12.205716 80.100000 12.341456 80.169231 12.477386 80.238462 12.613496 80.307692 12.749773 80.376923 12.886206 80.446154 13.022783 80.515385 13.159491 80.584615 13.296320 80.653846 13.433258 80.723077 13.570292 80.792308 13.707411 80.861538 13.844604 80.930769 13.981857 81.000000 14.119160 81.069231 14.256501 81.138462 14.393867 81.207692 14.531248 81.276923 14.668631 81.346154 14.806004 81.415385 14.943357 81.484615 15.080676 81.553846 15.217950 81.623077 15.355167 81.692308 15.492317 81.761538 15.629385 81.830769 15.766362 81.900000 15.903235 81.969231 16.039992 82.038462 16.176622 82.107692 16.313112 82.176923 16.449452 82.246154 16.585628 82.315385 16.721630 82.384615 16.857445 82.453846 16.993063 82.523077 17.128470 82.592308 17.263655 82.661538 17.398607 82.730769 17.533313 82.800000 17.667762 82.869231 17.801942 82.938462 17.935841 83.007692 18.069447 83.076923 18.202749 83.146154 18.335735 83.215385 18.468393 83.284615 18.600711 83.353846 18.732677 83.423077 18.864280 83.492308 18.995508 83.561538 19.126349 83.630769 19.256791 83.700000 19.386822 83.769231 19.516431 83.838462 19.645606 83.907692 19.774334 83.976923 19.902605 84.046154 20.030407 84.115385 20.157727 84.184615 20.284554 84.253846 20.410875 84.323077 20.536681 84.392308 20.661957 84.461538 20.786693 84.530769 20.910877 84.600000 21.034497 84.669231 21.157541 84.738462 21.279998 84.807692 21.401855 84.876923 21.523102 84.946154 21.643725 85.015385 21.763713 85.084615 21.883055 85.153846 22.001739 85.223077 22.119752 85.292308 22.237084 85.361538 22.353722 85.430769 22.469654 85.500000 22.584869 85.569231 22.699355 85.638462 22.813099 85.707692 22.926092 85.776923 23.038319 85.846154 23.149771 85.915385 23.260434 85.984615 23.370297 86.053846 23.479349 86.123077 23.587577 86.192308 23.694970 86.261538 23.801515 86.330769 23.907202 86.400000 24.012018 86.469231 24.115952 86.538462 24.218991 86.607692 24.321124 86.676923 24.422340 86.746154 24.522625 86.815385 24.621970 86.884615 24.720361 86.953846 24.817786 87.023077 24.914235 87.092308 25.009696 87.161538 25.104156 87.230769 25.197603 87.300000 25.290027 87.369231 25.381415 87.438462 25.471755 87.507692 25.561035 87.576923 25.649245 87.646154 25.736371 87.715385 25.822403 87.784615 25.907327 87.853846 25.991134 87.923077 26.073810 87.992308 26.155344 88.061538 26.235724 88.130769 26.314939 88.200000 26.392976 88.269231 26.469825 88.338462 26.545472 88.407692 26.619906 88.476923 26.693116 88.546154 26.765089 88.615385 26.835814 88.684615 26.905282 88.753846 26.973494 88.823077 27.040457 88.892308 27.106176 88.961538 27.170654 89.030769 27.233897 89.100000 27.295911 89.169231 27.356700 89.238462 27.416269 89.307692 27.474624 89.376923 27.531769 89.446154 27.587709 89.515385 27.642450 89.584615 27.695997 89.653846 27.748354 89.723077 27.799526 89.792308 27.849520 89.861538 27.898338 89.930769 27.945988 90.000000 27.992474 90.069231 28.037800 90.138462 28.081972 90.207692 28.124995 90.276923 28.166874 90.346154 28.207613 90.415385 28.247219 90.484615 28.285696 90.553846 28.323049 90.623077 28.359283 90.692308 28.394403 90.761538 28.428415 90.830769 28.461322 90.900000 28.493131 90.969231 28.523847 91.038462 28.553473 91.107692 28.582016 91.176923 28.609481 91.246154 28.635872 91.315385 28.661194 91.384615 28.685453 91.453846 28.708654 91.523077 28.730801 91.592308 28.751900 91.661538 28.771955 91.730769 28.790973 91.800000 28.808957 91.869231 28.825913 91.938462 28.841846 92.007692 28.856761 92.076923 28.870663 92.146154 28.883556 92.215385 28.895447 92.284615 28.906340 92.353846 28.916240 92.423077 28.925152 92.492308 28.933082 92.561538 28.940033 92.630769 28.946012 92.700000 28.951024 92.769231 28.955072 92.838462 28.958163 92.907692 28.960302 92.976923 28.961493 93.046154 28.961741 93.115385 28.961052 93.184615 28.959431 93.253846 28.956882 93.323077 28.953411 93.392308 28.949022 93.461538 28.943722 93.530769 28.937514 93.600000 28.930404 93.669231 28.922397 93.738462 28.913498 93.807692 28.903711 93.876923 28.893043 93.946154 28.881498 94.015385 28.869081 94.084615 28.855797 94.153846 28.841651 94.223077 28.826649 94.292308 28.810794 94.361538 28.794093 94.430769 28.776550 94.500000 28.758171 94.569231 28.738960 94.638462 28.718922 94.707692 28.698063 94.776923 28.676388 94.846154 28.653901 94.915385 28.630607 94.984615 28.606512 95.053846 28.581621 95.123077 28.555939 95.192308 28.529470 95.261538 28.502221 95.330769 28.474195 95.400000 28.445397 95.469231 28.415834 95.538462 28.385510 95.607692 28.354430 95.676923 28.322599 95.746154 28.290021 95.815385 28.256703 95.884615 28.222650 95.953846 28.187865 96.023077 28.152355 96.092308 28.116124 96.161538 28.079177 96.230769 28.041519 96.300000 28.003156 96.369231 27.964093 96.438462 27.924334 96.507692 27.883884 96.576923 27.842749 96.646154 27.800934 96.715385 27.758443 96.784615 27.715282 96.853846 27.671455 96.923077 27.626969 96.992308 27.581827 97.061538 27.536035 97.130769 27.489598 97.200000 27.442520 97.269231 27.394808 97.338462 27.346466 97.407692 27.297499 97.476923 27.247912 97.546154 27.197710 97.615385 27.146898 97.684615 27.095481 97.753846 27.043465 97.823077 26.990854 97.892308 26.937653 97.961538 26.883867 98.030769 26.829502 98.100000 26.774563 98.169231 26.719054 98.238462 26.662980 98.307692 26.606347 98.376923 26.549160 98.446154 26.491423 98.515385 26.433142 98.584615 26.374321 98.653846 26.314967 98.723077 26.255083 98.792308 26.194675 98.861538 26.133748 98.930769 26.072306 99.000000 26.010356 99.069231 25.947902 99.138462 25.884949 99.207692 25.821502 99.276923 25.757566 99.346154 25.693146 99.415385 25.628247 99.484615 25.562875 99.553846 25.497034 99.623077 25.430729 99.692308 25.363965 99.761538 25.296748 99.830769 25.229083 99.900000 25.160974 99.969231 25.092426 100.038462 25.023445 100.107692 24.954035 100.176923 24.884203 100.246154 24.813952 100.315385 24.743287 100.384615 24.672214 100.453846 24.600739 100.523077 24.528865 100.592308 24.456597 100.661538 24.383942 100.730769 24.310904 100.800000 24.237488 100.869231 24.163699 100.938462 24.089541 101.007692 24.015021 101.076923 23.940144 101.146154 23.864913 101.215385 23.789334 101.284615 23.713413 101.353846 23.637155 101.423077 23.560563 101.492308 23.483644 101.561538 23.406402 101.630769 23.328843 101.700000 23.250972 101.769231 23.172793 101.838462 23.094311 101.907692 23.015532 101.976923 22.936461 102.046154 22.857103 102.115385 22.777462 102.184615 22.697544 102.253846 22.617354 102.323077 22.536897 102.392308 22.456178 102.461538 22.375202 102.530769 22.293973 102.600000 22.212498 102.669231 22.130781 102.738462 22.048827 102.807692 21.966641 102.876923 21.884228 102.946154 21.801594 103.015385 21.718743 103.084615 21.635680 103.153846 21.552411 103.223077 21.468940 103.292308 21.385272 103.361538 21.301413 103.430769 21.217367 103.500000 21.133140 103.569231 21.048737 103.638462 20.964162 103.707692 20.879421 103.776923 20.794518 103.846154 20.709460 103.915385 20.624250 103.984615 20.538894 104.053846 20.453397 104.123077 20.367763 104.192308 20.281999 104.261538 20.196109 104.330769 20.110098 104.400000 20.023971 104.469231 19.937733 104.538462 19.851389 104.607692 19.764944 104.676923 19.678404 104.746154 19.591772 104.815385 19.505056 104.884615 19.418258 104.953846 19.331385 105.023077 19.244441 105.092308 19.157432 105.161538 19.070363 105.230769 18.983238 105.300000 18.896062 105.369231 18.808841 105.438462 18.721580 105.507692 18.634284 105.576923 18.546957 105.646154 18.459605 105.715385 18.372233 105.784615 18.284846 105.853846 18.197449 105.923077 18.110047" class="line reactive nofill" /></g></g><g class="titles" /><g transform="translate(82, 10)" class="plot overlay"><g class="series serie-0 color-0" /></g><g transform="translate(82, 10)" class="plot text-overlay"><g class="series serie-0 color-0" /></g><g transform="translate(82, 10)" class="plot tooltip-overlay"><g transform="translate(0 0)" style="opacity: 0" class="tooltip"><rect rx="0" ry="0" width="0" height="0" class="tooltip-box" /><g class="text" /></g></g></g></svg>