<?xml version='1.0' encoding='utf-8'?>
<svg xmlns="http://www.w3.org/2000/svg" id="chart-54fee3f8-452f-4143-8ddc-7e751aef7f59" class="pygal-chart pygal-sparkline" viewBox="0 0 200 50" width="200" height="50"><!--Generated with pygal 3.0.4 (etree) ©Kozea 2012-2016 on 2024-04-09--><!--http://pygal.org--><!--http://github.com/Kozea/pygal--><defs><style type="text/css">#chart-54fee3f8-452f-4143-8ddc-7e751aef7f59{-webkit-user-select:none;-webkit-font-smoothing:antialiased;font-family:Consolas,"Liberation Mono",Menlo,Courier,monospace}#chart-54fee3f8-452f-4143-8ddc-7e751aef7f59 .title{font-family:Consolas,"Liberation Mono",Menlo,Courier,monospace;font-size:16px}#chart-54fee3f8-452f-4143-8ddc-7e751aef7f59 .legends .legend text{font-family:Consolas,"Liberation Mono",Menlo,Courier,monospace;font-size:14px}#chart-54fee3f8-452f-4143-8ddc-7e751aef7f59 .axis text{font-family:Consolas,"Liberation Mono",Menlo,Courier,monospace;font-size:10px}#chart-54fee3f8-452f-4143-8ddc-7e751aef7f59 .axis text.major{font-family:Consolas,"Liberation Mono",Menlo,Courier,monospace;font-size:10px}#chart-54fee3f8-452f-4143-8ddc-7e751aef7f59 .text-overlay text.value{font-family:Consolas,"Liberation Mono",Menlo,Courier,monospace;font-size:16px}#chart-54fee3f8-452f-4143-8ddc-7e751aef7f59 .text-overlay text.label{font-family:Consolas,"Liberation Mono",Menlo,Courier,monospace;font-size:10px}#chart-54fee3f8-452f-4143-8ddc-7e751aef7f59 .tooltip{font-family:Consolas,"Liberation Mono",Menlo,Courier,monospace;font-size:14px}#chart-54fee3f8-452f-4143-8ddc-7e751aef7f59 text.no_data{font-family:Consolas,"Liberation Mono",Menlo,Courier,monospace;font-size:64px}
#chart-54fee3f8-452f-4143-8ddc-7e751aef7f59{background-color:rgba(249,249,249,1)}#chart-54fee3f8-452f-4143-8ddc-7e751aef7f59 path,#chart-54fee3f8-452f-4143-8ddc-7e751aef7f59 line,#chart-54fee3f8-452f-4143-8ddc-7e751aef7f59 rect,#chart-54fee3f8-452f-4143-8ddc-7e751aef7f59 circle{-webkit-transition:150ms;-moz-transition:150ms;transition:150ms}#chart-54fee3f8-452f-4143-8ddc-7e751aef7f59 .graph &gt; .background{fill:rgba(249,249,249,1)}#chart-54fee3f8-452f-4143-8ddc-7e751aef7f59 .plot &gt; .background{fill:rgba(255,255,255,1)}#chart-54fee3f8-452f-4143-8ddc-7e751aef7f59 .graph{fill:rgba(0,0,0,.87)}#chart-54fee3f8-452f-4143-8ddc-7e751aef7f59 text.no_data{fill:rgba(0,0,0,1)}#chart-54fee3f8-452f-4143-8ddc-7e751aef7f59 .title{fill:rgba(0,0,0,1)}#chart-54fee3f8-452f-4143-8ddc-7e751aef7f59 .legends .legend text{fill:rgba(0,0,0,.87)}#chart-54fee3f8-452f-4143-8ddc-7e751aef7f59 .legends .legend:hover text{fill:rgba(0,0,0,1)}#chart-54fee3f8-452f-4143-8ddc-7e751aef7f59 .axis .line{stroke:rgba(0,0,0,1)}#chart-54fee3f8-452f-4143-8ddc-7e751aef7f59 .axis .guide.line{stroke:rgba(0,0,0,.54)}#chart-54fee3f8-452f-4143-8ddc-7e751aef7f59 .axis .major.line{stroke:rgba(0,0,0,.87)}#chart-54fee3f8-452f-4143-8ddc-7e751aef7f59 .axis text.major{fill:rgba(0,0,0,1)}#chart-54fee3f8-452f-4143-8ddc-7e751aef7f59 .axis.y .guides:hover .guide.line,#chart-54fee3f8-452f-4143-8ddc-7e751aef7f59 .line-graph .axis.x .guides:hover .guide.line,#chart-54fee3f8-452f-4143-8ddc-7e751aef7f59 .stackedline-graph .axis.x .guides:hover .guide.line,#chart-54fee3f8-452f-4143-8ddc-7e751aef7f59 .xy-graph .axis.x .guides:hover .guide.line{stroke:rgba(0,0,0,1)}#chart-54fee3f8-452f-4143-8ddc-7e751aef7f59 .axis .guides:hover text{fill:rgba(0,0,0,1)}#chart-54fee3f8-452f-4143-8ddc-7e751aef7f59 .reactive{fill-opacity:.7;stroke-opacity:.8;stroke-width:1}#chart-54fee3f8-452f-4143-8ddc-7e751aef7f59 .ci{stroke:rgba(0,0,0,.87)}#chart-54fee3f8-452f-4143-8ddc-7e751aef7f59 .reactive.active,#chart-54fee3f8-452f-4143-8ddc-7e751aef7f59 .active .reactive{fill-opacity:.8;stroke-opacity:.9;stroke-width:4}#chart-54fee3f8-452f-4143-8ddc-7e751aef7f59 .ci .reactive.active{stroke-width:1.5}#chart-54fee3f8-452f-4143-8ddc-7e751aef7f59 .series text{fill:rgba(0,0,0,1)}#chart-54fee3f8-452f-4143-8ddc-7e751aef7f59 .tooltip rect{fill:rgba(255,255,255,1);stroke:rgba(0,0,0,1);-webkit-transition:opacity 150ms;-moz-transition:opacity 150ms;transition:opacity 150ms}#chart-54fee3f8-452f-4143-8ddc-7e751aef7f59 .tooltip .label{fill:rgba(0,0,0,.87)}#chart-54fee3f8-452f-4143-8ddc-7e751aef7f59 .tooltip .label{fill:rgba(0,0,0,.87)}#chart-54fee3f8-452f-4143-8ddc-7e751aef7f59 .tooltip .legend{font-size:.8em;fill:rgba(0,0,0,.54)}#chart-54fee3f8-452f-4143-8ddc-7e751aef7f59 .tooltip .x_label{font-size:.6em;fill:rgba(0,0,0,1)}#chart-54fee3f8-452f-4143-8ddc-7e751aef7f59 .tooltip .xlink{font-size:.5em;text-decoration:underline}#chart-54fee3f8-452f-4143-8ddc-7e751aef7f59 .tooltip .value{font-size:1.5em}#chart-54fee3f8-452f-4143-8ddc-7e751aef7f59 .bound{font-size:.5em}#chart-54fee3f8-452f-4143-8ddc-7e751aef7f59 .max-value{font-size:.75em;fill:rgba(0,0,0,.54)}#chart-54fee3f8-452f-4143-8ddc-7e751aef7f59 .map-element{fill:rgba(255,255,255,1);stroke:rgba(0,0,0,.54) !important}#chart-54fee3f8-452f-4143-8ddc-7e751aef7f59 .map-element .reactive{fill-opacity:inherit;stroke-opacity:inherit}#chart-54fee3f8-452f-4143-8ddc-7e751aef7f59 .color-0,#chart-54fee3f8-452f-4143-8ddc-7e751aef7f59 .color-0 a:visited{stroke:#F44336;fill:#F44336}#chart-54fee3f8-452f-4143-8ddc-7e751aef7f59 .text-overlay .color-0 text{fill:black}
#chart-54fee3f8-452f-4143-8ddc-7e751aef7f59 text.no_data{text-anchor:middle}#chart-54fee3f8-452f-4143-8ddc-7e751aef7f59 .guide.line{fill:none}#chart-54fee3f8-452f-4143-8ddc-7e751aef7f59 .centered{text-anchor:middle}#chart-54fee3f8-452f-4143-8ddc-7e751aef7f59 .title{text-anchor:middle}#chart-54fee3f8-452f-4143-8ddc-7e751aef7f59 .legends .legend text{fill-opacity:1}#chart-54fee3f8-452f-4143-8ddc-7e751aef7f59 .axis.x text{text-anchor:middle}#chart-54fee3f8-452f-4143-8ddc-7e751aef7f59 .axis.x:not(.web) text[transform]{text-anchor:start}#chart-54fee3f8-452f-4143-8ddc-7e751aef7f59 .axis.x:not(.web) text[transform].backwards{text-anchor:end}#chart-54fee3f8-452f-4143-8ddc-7e751aef7f59 .axis.y text{text-anchor:end}#chart-54fee3f8-452f-4143-8ddc-7e751aef7f59 .axis.y text[transform].backwards{text-anchor:start}#chart-54fee3f8-452f-4143-8ddc-7e751aef7f59 .axis.y2 text{text-anchor:start}#chart-54fee3f8-452f-4143-8ddc-7e751aef7f59 .axis.y2 text[transform].backwards{text-anchor:end}#chart-54fee3f8-452f-4143-8ddc-7e751aef7f59 .axis .guide.line{stroke-dasharray:4,4;stroke:black}#chart-54fee3f8-452f-4143-8ddc-7e751aef7f59 .axis .major.guide.line{stroke-dasharray:6,6;stroke:black}#chart-54fee3f8-452f-4143-8ddc-7e751aef7f59 .horizontal .axis.y .guide.line,#chart-54fee3f8-452f-4143-8ddc-7e751aef7f59 .horizontal .axis.y2 .guide.line,#chart-54fee3f8-452f-4143-8ddc-7e751aef7f59 .vertical .axis.x .guide.line{opacity:0}#chart-54fee3f8-452f-4143-8ddc-7e751aef7f59 .horizontal .axis.always_show .guide.line,#chart-54fee3f8-452f-4143-8ddc-7e751aef7f59 .vertical .axis.always_show .guide.line{opacity:1 !important}#chart-54fee3f8-452f-4143-8ddc-7e751aef7f59 .axis.y .guides:hover .guide.line,#chart-54fee3f8-452f-4143-8ddc-7e751aef7f59 .axis.y2 .guides:hover .guide.line,#chart-54fee3f8-452f-4143-8ddc-7e751aef7f59 .axis.x .guides:hover .guide.line{opacity:1}#chart-54fee3f8-452f-4143-8ddc-7e751aef7f59 .axis .guides:hover text{opacity:1}#chart-54fee3f8-452f-4143-8ddc-7e751aef7f59 .nofill{fill:none}#chart-54fee3f8-452f-4143-8ddc-7e751aef7f59 .subtle-fill{fill-opacity:.2}#chart-54fee3f8-452f-4143-8ddc-7e751aef7f59 .dot{stroke-width:1px;fill-opacity:1;stroke-opacity:1}#chart-54fee3f8-452f-4143-8ddc-7e751aef7f59 .dot.active{stroke-width:5px}#chart-54fee3f8-452f-4143-8ddc-7e751aef7f59 .dot.negative{fill:transparent}#chart-54fee3f8-452f-4143-8ddc-7e751aef7f59 text,#chart-54fee3f8-452f-4143-8ddc-7e751aef7f59 tspan{stroke:none !important}#chart-54fee3f8-452f-4143-8ddc-7e751aef7f59 .series text.active{opacity:1}#chart-54fee3f8-452f-4143-8ddc-7e751aef7f59 .tooltip rect{fill-opacity:.95;stroke-width:.5}#chart-54fee3f8-452f-4143-8ddc-7e751aef7f59 .tooltip text{fill-opacity:1}#chart-54fee3f8-452f-4143-8ddc-7e751aef7f59 .showable{visibility:hidden}#chart-54fee3f8-452f-4143-8ddc-7e751aef7f59 .showable.shown{visibility:visible}#chart-54fee3f8-452f-4143-8ddc-7e751aef7f59 .gauge-background{fill:rgba(229,229,229,1);stroke:none}#chart-54fee3f8-452f-4143-8ddc-7e751aef7f59 .bg-lines{stroke:rgba(249,249,249,1);stroke-width:2px}</style><script type="text/javascript">window.pygal = window.pygal || {};window.pygal.config = window.pygal.config || {};window.pygal.config['54fee3f8-452f-4143-8ddc-7e751aef7f59'] = {"allow_interruptions": false, "box_mode": "extremes", "classes": ["pygal-chart", "pygal-sparkline"], "css": ["file://style.css", "file://graph.css"], "defs": [], "disable_xml_declaration": false, "dots_size": 2.5, "dynamic_print_values": false, "explicit_size": true, "fill": false, "force_uri_protocol": "https", "formatter": null, "half_pie": false, "height": 50, "include_x_axis": false, "inner_radius": 0, "interpolate": "cubic", "interpolation_parameters": {}, "interpolation_precision": 250, "inverse_y_axis": false, "js": [], "legend_at_bottom": false, "legend_at_bottom_columns": null, "legend_box_size": 12, "logarithmic": false, "margin": 10, "margin_bottom": null, "margin_left": null, "margin_right": null, "margin_top": null, "max_scale": 2, "min_scale": 1, "missing_value_fill_truncation": "x", "no_data_text": "", "no_prefix": false, "order_min": null, "pretty_print": false, "print_labels": false, "print_values": false, "print_values_position": "center", "print_zeroes": true, "range": null, "rounded_bars": null, "secondary_range": null, "show_dots": false, "show_legend": false, "show_minor_x_labels": true, "show_minor_y_labels": true, "show_only_major_dots": false, "show_x_guides": false, "show_x_labels": true, "show_y_guides": true, "show_y_labels": true, "spacing": 0, "stack_from_top": false, "strict": false, "stroke": true, "stroke_style": null, "style": {"background": "rgba(249, 249, 249, 1)", "ci_colors": [], "colors": ["#F44336", "#3F51B5", "#009688", "#FFC107", "#FF5722", "#9C27B0", "#03A9F4", "#8BC34A", "#FF9800", "#E91E63", "#2196F3", "#4CAF50", "#FFEB3B", "#673AB7", "#00BCD4", "#CDDC39", "#9E9E9E", "#607D8B"], "dot_opacity": "1", "font_family": "Consolas, \"Liberation Mono\", Menlo, Courier, monospace", "foreground": "rgba(0, 0, 0, .87)", "foreground_strong": "rgba(0, 0, 0, 1)", "foreground_subtle": "rgba(0, 0, 0, .54)", "guide_stroke_color": "black", "guide_stroke_dasharray": "4,4", "label_font_family": "Consolas, \"Liberation Mono\", Menlo, Courier, monospace", "label_font_size": 10, "legend_font_family": "Consolas, \"Liberation Mono\", Menlo, Courier, monospace", "legend_font_size": 14, "major_guide_stroke_color": "black", "major_guide_stroke_dasharray": "6,6", "major_label_font_family": "Consolas, \"Liberation Mono\", Menlo, Courier, monospace", "major_label_font_size": 10, "no_data_font_family": "Consolas, \"Liberation Mono\", Menlo, Courier, monospace", "no_data_font_size": 64, "opacity": ".7", "opacity_hover": ".8", "plot_background": "rgba(255, 255, 255, 1)", "stroke_opacity": ".8", "stroke_opacity_hover": ".9", "stroke_width": "1", "stroke_width_hover": "4", "title_font_family": "Consolas, \"Liberation Mono\", Menlo, Courier, monospace", "title_font_size": 16, "tooltip_font_family": "Consolas, \"Liberation Mono\", Menlo, Courier, monospace", "tooltip_font_size": 14, "transition": "150ms", "value_background": "rgba(229, 229, 229, 1)", "value_colors": [], "value_font_family": "Consolas, \"Liberation Mono\", Menlo, Courier, monospace", "value_font_size": 16, "value_label_font_family": "Consolas, \"Liberation Mono\", Menlo, Courier, monospace", "value_label_font_size": 10}, "title": null, "tooltip_border_radius": 0, "tooltip_fancy_mode": true, "truncate_label": null, "truncate_legend": null, "width": 200, "x_label_rotation": 0, "x_labels": ["2023/10", "2023/7", "2022/10", "2022/7"], "x_labels_major": null, "x_labels_major_count": null, "x_labels_major_every": null, "x_title": null, "xrange": null, "y_label_rotation": 0, "y_labels": null, "y_labels_major": null, "y_labels_major_count": null, "y_labels_major_every": null, "y_title": null, "zero": 0, "legends": [""]}</script></defs><title>Pygal</title><g class="graph line-graph vertical"><rect x="0" y="0" width="200" height="50" class="background" /><g transform="translate(20, 10)" class="plot"><rect x="0" y="0" width="170" height="20" class="background" /><g class="axis y always_show"><path d="M0.000000 20.000000 h170.000000" class="line" /><g class="guides"><path d="M0.000000 18.189077 h170.000000" class="guide line" /><text x="-5" y="21.68907689529171" class="">1</text><title>1</title></g><g class="guides"><path d="M0.000000 0.384615 h170.000000" class="guide line" /><text x="-5" y="3.8846153846153832" class="">3</text><title>3</title></g></g><g class="axis x"><g class="guides"><path d="M3.269231 0.000000 v20.000000" class="line" /><text x="3.269230769230769" y="35.0" class="">2023/…</text><title>2023/10</title></g><g class="guides"><path d="M57.756410 0.000000 v20.000000" class="guide line" /><text x="57.756410256410255" y="35.0" class="">2023/7</text></g><g class="guides"><path d="M112.243590 0.000000 v20.000000" class="guide line" /><text x="112.24358974358974" y="35.0" class="">2022/…</text><title>2022/10</title></g><g class="guides"><path d="M166.730769 0.000000 v20.000000" class="guide line" /><text x="166.73076923076923" y="35.0" class="">2022/7</text></g></g><g class="series serie-0 color-0"><path d="M3.269231 18.189077 L3.487179 18.184329 3.705128 18.179582 3.923077 18.174835 4.141026 18.170090 4.358974 18.165347 4.576923 18.160606 4.794872 18.155868 5.012821 18.151133 5.230769 18.146402 5.448718 18.141674 5.666667 18.136952 5.884615 18.132234 6.102564 18.127522 6.320513 18.122815 6.538462 18.118115 6.756410 18.113422 6.974359 18.108737 7.192308 18.104059 7.410256 18.099389 7.628205 18.094727 7.846154 18.090075 8.064103 18.085433 8.282051 18.080800 8.500000 18.076178 8.717949 18.071567 8.935897 18.066968 9.153846 18.062380 9.371795 18.057805 9.589744 18.053242 9.807692 18.048692 10.025641 18.044156 10.243590 18.039635 10.461538 18.035128 10.679487 18.030636 10.897436 18.026159 11.115385 18.021698 11.333333 18.017254 11.551282 18.012827 11.769231 18.008417 11.987179 18.004024 12.205128 17.999650 12.423077 17.995295 12.641026 17.990959 12.858974 17.986642 13.076923 17.982346 13.294872 17.978070 13.512821 17.973815 13.730769 17.969581 13.948718 17.965369 14.166667 17.961180 14.384615 17.957013 14.602564 17.952870 14.820513 17.948750 15.038462 17.944655 15.256410 17.940584 15.474359 17.936538 15.692308 17.932517 15.910256 17.928523 16.128205 17.924555 16.346154 17.920614 16.564103 17.916700 16.782051 17.912815 17.000000 17.908957 17.217949 17.905128 17.435897 17.901328 17.653846 17.897558 17.871795 17.893818 18.089744 17.890109 18.307692 17.886430 18.525641 17.882783 18.743590 17.879168 18.961538 17.875585 19.179487 17.872035 19.397436 17.868519 19.615385 17.865036 19.833333 17.861587 20.051282 17.858173 20.269231 17.854794 20.487179 17.851450 20.705128 17.848143 20.923077 17.844872 21.141026 17.841638 21.358974 17.838441 21.576923 17.835282 21.794872 17.832162 22.012821 17.829080 22.230769 17.826037 22.448718 17.823034 22.666667 17.820071 22.884615 17.817149 23.102564 17.814268 23.320513 17.811428 23.538462 17.808630 23.756410 17.805874 23.974359 17.803162 24.192308 17.800492 24.410256 17.797867 24.628205 17.795285 24.846154 17.792749 25.064103 17.790257 25.282051 17.787811 25.500000 17.785411 25.717949 17.783057 25.935897 17.780751 26.153846 17.778492 26.371795 17.776280 26.589744 17.774118 26.807692 17.772003 27.025641 17.769938 27.243590 17.767923 27.461538 17.765958 27.679487 17.764043 27.897436 17.762180 28.115385 17.760368 28.333333 17.758608 28.551282 17.756900 28.769231 17.755245 28.987179 17.753644 29.205128 17.752096 29.423077 17.750603 29.641026 17.749164 29.858974 17.747781 30.076923 17.746453 30.294872 17.745181 30.512821 17.743965 30.730769 17.742807 30.948718 17.741706 31.166667 17.740663 31.384615 17.739678 31.602564 17.738752 31.820513 17.737886 32.038462 17.737079 32.256410 17.736332 32.474359 17.735646 32.692308 17.735020 32.910256 17.734457 33.128205 17.733955 33.346154 17.733516 33.564103 17.733140 33.782051 17.732827 34.000000 17.732578 34.217949 17.732393 34.435897 17.732273 34.653846 17.732218 34.871795 17.732229 35.089744 17.732305 35.307692 17.732449 35.525641 17.732659 35.743590 17.732937 35.961538 17.733283 36.179487 17.733697 36.397436 17.734180 36.615385 17.734732 36.833333 17.735354 37.051282 17.736046 37.269231 17.736809 37.487179 17.737643 37.705128 17.738548 37.923077 17.739525 38.141026 17.740575 38.358974 17.741698 38.576923 17.742894 38.794872 17.744165 39.012821 17.745509 39.230769 17.746928 39.448718 17.748422 39.666667 17.749992 39.884615 17.751638 40.102564 17.753361 40.320513 17.755161 40.538462 17.757038 40.756410 17.758993 40.974359 17.761027 41.192308 17.763139 41.410256 17.765331 41.628205 17.767602 41.846154 17.769954 42.064103 17.772386 42.282051 17.774900 42.500000 17.777495 42.717949 17.780172 42.935897 17.782931 43.153846 17.785774 43.371795 17.788700 43.589744 17.791710 43.807692 17.794804 44.025641 17.797983 44.243590 17.801247 44.461538 17.804597 44.679487 17.808033 44.897436 17.811556 45.115385 17.815165 45.333333 17.818862 45.551282 17.822648 45.769231 17.826521 45.987179 17.830484 46.205128 17.834535 46.423077 17.838677 46.641026 17.842909 46.858974 17.847231 47.076923 17.851645 47.294872 17.856150 47.512821 17.860748 47.730769 17.865437 47.948718 17.870220 48.166667 17.875097 48.384615 17.880067 48.602564 17.885131 48.820513 17.890291 49.038462 17.895545 49.256410 17.900896 49.474359 17.906342 49.692308 17.911885 49.910256 17.917526 50.128205 17.923263 50.346154 17.929099 50.564103 17.935033 50.782051 17.941067 51.000000 17.947199 51.217949 17.953431 51.435897 17.959764 51.653846 17.966197 51.871795 17.972732 52.089744 17.979368 52.307692 17.986106 52.525641 17.992947 52.743590 17.999891 52.961538 18.006938 53.179487 18.014089 53.397436 18.021345 53.615385 18.028705 53.833333 18.036171 54.051282 18.043742 54.269231 18.051420 54.487179 18.059204 54.705128 18.067095 54.923077 18.075094 55.141026 18.083201 55.358974 18.091417 55.576923 18.099741 55.794872 18.108175 56.012821 18.116719 56.230769 18.125373 56.448718 18.134137 56.666667 18.143013 56.884615 18.152001 57.102564 18.161100 57.320513 18.170313 57.538462 18.179638 57.756410 18.189077 57.974359 18.198629 58.192308 18.208293 58.410256 18.218067 58.628205 18.227947 58.846154 18.237932 59.064103 18.248020 59.282051 18.258208 59.500000 18.268494 59.717949 18.278876 59.935897 18.289352 60.153846 18.299918 60.371795 18.310573 60.589744 18.321315 60.807692 18.332142 61.025641 18.343050 61.243590 18.354038 61.461538 18.365103 61.679487 18.376244 61.897436 18.387458 62.115385 18.398742 62.333333 18.410095 62.551282 18.421514 62.769231 18.432996 62.987179 18.444540 63.205128 18.456144 63.423077 18.467804 63.641026 18.479519 63.858974 18.491287 64.076923 18.503104 64.294872 18.514970 64.512821 18.526881 64.730769 18.538835 64.948718 18.550831 65.166667 18.562865 65.384615 18.574935 65.602564 18.587040 65.820513 18.599177 66.038462 18.611343 66.256410 18.623537 66.474359 18.635755 66.692308 18.647997 66.910256 18.660259 67.128205 18.672539 67.346154 18.684835 67.564103 18.697145 67.782051 18.709466 68.000000 18.721797 68.217949 18.734134 68.435897 18.746476 68.653846 18.758820 68.871795 18.771164 69.089744 18.783505 69.307692 18.795843 69.525641 18.808173 69.743590 18.820494 69.961538 18.832804 70.179487 18.845100 70.397436 18.857381 70.615385 18.869643 70.833333 18.881884 71.051282 18.894103 71.269231 18.906296 71.487179 18.918463 71.705128 18.930599 71.923077 18.942704 72.141026 18.954775 72.358974 18.966809 72.576923 18.978804 72.794872 18.990759 73.012821 19.002670 73.230769 19.014535 73.448718 19.026353 73.666667 19.038120 73.884615 19.049835 74.102564 19.061496 74.320513 19.073099 74.538462 19.084643 74.756410 19.096126 74.974359 19.107544 75.192308 19.118897 75.410256 19.130181 75.628205 19.141395 75.846154 19.152536 76.064103 19.163601 76.282051 19.174589 76.500000 19.185498 76.717949 19.196324 76.935897 19.207066 77.153846 19.217721 77.371795 19.228288 77.589744 19.238763 77.807692 19.249145 78.025641 19.259431 78.243590 19.269619 78.461538 19.279707 78.679487 19.289692 78.897436 19.299573 79.115385 19.309346 79.333333 19.319010 79.551282 19.328562 79.769231 19.338001 79.987179 19.347323 80.205128 19.356527 80.423077 19.365609 80.641026 19.374569 80.858974 19.383404 81.076923 19.392110 81.294872 19.400687 81.512821 19.409132 81.730769 19.417442 81.948718 19.425616 82.166667 19.433650 82.384615 19.441544 82.602564 19.449293 82.820513 19.456897 83.038462 19.464353 83.256410 19.471658 83.474359 19.478810 83.692308 19.485808 83.910256 19.492648 84.128205 19.499329 84.346154 19.505848 84.564103 19.512203 84.782051 19.518392 85.000000 19.524412 85.217949 19.530260 85.435897 19.535936 85.653846 19.541437 85.871795 19.546759 86.089744 19.551902 86.307692 19.556862 86.525641 19.561637 86.743590 19.566226 86.961538 19.570626 87.179487 19.574834 87.397436 19.578848 87.615385 19.582667 87.833333 19.586287 88.051282 19.589706 88.269231 19.592923 88.487179 19.595935 88.705128 19.598739 88.923077 19.601334 89.141026 19.603716 89.358974 19.605885 89.576923 19.607837 89.794872 19.609570 90.012821 19.611082 90.230769 19.612371 90.448718 19.613434 90.666667 19.614269 90.884615 19.614874 91.102564 19.615247 91.320513 19.615385 91.538462 19.615285 91.756410 19.614947 91.974359 19.614367 92.192308 19.613543 92.410256 19.612473 92.628205 19.611155 92.846154 19.609586 93.064103 19.607764 93.282051 19.605686 93.500000 19.603352 93.717949 19.600757 93.935897 19.597900 94.153846 19.594779 94.371795 19.591392 94.589744 19.587735 94.807692 19.583807 95.025641 19.579606 95.243590 19.575129 95.461538 19.570374 95.679487 19.565338 95.897436 19.560020 96.115385 19.554418 96.333333 19.548528 96.551282 19.542348 96.769231 19.535877 96.987179 19.529112 97.205128 19.522050 97.423077 19.514691 97.641026 19.507030 97.858974 19.499066 98.076923 19.490797 98.294872 19.482220 98.512821 19.473333 98.730769 19.464134 98.948718 19.454620 99.166667 19.444790 99.384615 19.434641 99.602564 19.424170 99.820513 19.413375 100.038462 19.402255 100.256410 19.390807 100.474359 19.379028 100.692308 19.366916 100.910256 19.354470 101.128205 19.341686 101.346154 19.328562 101.564103 19.315097 101.782051 19.301288 102.000000 19.287132 102.217949 19.272627 102.435897 19.257772 102.653846 19.242563 102.871795 19.226999 103.089744 19.211077 103.307692 19.194795 103.525641 19.178150 103.743590 19.161141 103.961538 19.143765 104.179487 19.126020 104.397436 19.107903 104.615385 19.089413 104.833333 19.070546 105.051282 19.051302 105.269231 19.031676 105.487179 19.011668 105.705128 18.991275 105.923077 18.970494 106.141026 18.949323 106.358974 18.927761 106.576923 18.905804 106.794872 18.883451 107.012821 18.860699 107.230769 18.837546 107.448718 18.813989 107.666667 18.790027 107.884615 18.765657 108.102564 18.740876 108.320513 18.715683 108.538462 18.690076 108.756410 18.664051 108.974359 18.637607 109.192308 18.610741 109.410256 18.583452 109.628205 18.555736 109.846154 18.527592 110.064103 18.499017 110.282051 18.470009 110.500000 18.440566 110.717949 18.410685 110.935897 18.380365 111.153846 18.349602 111.371795 18.318395 111.589744 18.286741 111.807692 18.254638 112.025641 18.222084 112.243590 18.189077 112.461538 18.155614 112.679487 18.121698 112.897436 18.087329 113.115385 18.052510 113.333333 18.017242 113.551282 17.981528 113.769231 17.945369 113.987179 17.908767 114.205128 17.871724 114.423077 17.834241 114.641026 17.796321 114.858974 17.757965 115.076923 17.719175 115.294872 17.679953 115.512821 17.640301 115.730769 17.600220 115.948718 17.559713 116.166667 17.518780 116.384615 17.477425 116.602564 17.435649 116.820513 17.393453 117.038462 17.350840 117.256410 17.307812 117.474359 17.264369 117.692308 17.220514 117.910256 17.176249 118.128205 17.131576 118.346154 17.086496 118.564103 17.041011 118.782051 16.995124 119.000000 16.948835 119.217949 16.902147 119.435897 16.855062 119.653846 16.807581 119.871795 16.759706 120.089744 16.711439 120.307692 16.662783 120.525641 16.613737 120.743590 16.564305 120.961538 16.514489 121.179487 16.464290 121.397436 16.413709 121.615385 16.362750 121.833333 16.311413 122.051282 16.259700 122.269231 16.207614 122.487179 16.155155 122.705128 16.102327 122.923077 16.049130 123.141026 15.995567 123.358974 15.941639 123.576923 15.887349 123.794872 15.832697 124.012821 15.777687 124.230769 15.722319 124.448718 15.666595 124.666667 15.610518 124.884615 15.554089 125.102564 15.497309 125.320513 15.440182 125.538462 15.382708 125.756410 15.324890 125.974359 15.266729 126.192308 15.208226 126.410256 15.149385 126.628205 15.090207 126.846154 15.030693 127.064103 14.970845 127.282051 14.910666 127.500000 14.850156 127.717949 14.789319 127.935897 14.728155 128.153846 14.666666 128.371795 14.604855 128.589744 14.542723 128.807692 14.480272 129.025641 14.417504 129.243590 14.354420 129.461538 14.291023 129.679487 14.227314 129.897436 14.163295 130.115385 14.098967 130.333333 14.034334 130.551282 13.969396 130.769231 13.904155 130.987179 13.838614 131.205128 13.772774 131.423077 13.706636 131.641026 13.640203 131.858974 13.573477 132.076923 13.506459 132.294872 13.439151 132.512821 13.371554 132.730769 13.303672 132.948718 13.235505 133.166667 13.167056 133.384615 13.098326 133.602564 13.029317 133.820513 12.960031 134.038462 12.890469 134.256410 12.820634 134.474359 12.750528 134.692308 12.680151 134.910256 12.609507 135.128205 12.538596 135.346154 12.467421 135.564103 12.395983 135.782051 12.324285 136.000000 12.252328 136.217949 12.180114 136.435897 12.107644 136.653846 12.034922 136.871795 11.961947 137.089744 11.888723 137.307692 11.815251 137.525641 11.741532 137.743590 11.667570 137.961538 11.593365 138.179487 11.518919 138.397436 11.444234 138.615385 11.369312 138.833333 11.294156 139.051282 11.218765 139.269231 11.143144 139.487179 11.067292 139.705128 10.991213 139.923077 10.914908 140.141026 10.838378 140.358974 10.761626 140.576923 10.684653 140.794872 10.607462 141.012821 10.530053 141.230769 10.452430 141.448718 10.374593 141.666667 10.296544 141.884615 10.218286 142.102564 10.139820 142.320513 10.061148 142.538462 9.982272 142.756410 9.903194 142.974359 9.823915 143.192308 9.744437 143.410256 9.664762 143.628205 9.584893 143.846154 9.504830 144.064103 9.424575 144.282051 9.344131 144.500000 9.263499 144.717949 9.182682 144.935897 9.101680 145.153846 9.020495 145.371795 8.939131 145.589744 8.857587 145.807692 8.775867 146.025641 8.693972 146.243590 8.611903 146.461538 8.529663 146.679487 8.447254 146.897436 8.364677 147.115385 8.281934 147.333333 8.199027 147.551282 8.115957 147.769231 8.032727 147.987179 7.949339 148.205128 7.865794 148.423077 7.782094 148.641026 7.698240 148.858974 7.614235 149.076923 7.530081 149.294872 7.445779 149.512821 7.361332 149.730769 7.276740 149.948718 7.192006 150.166667 7.107132 150.384615 7.022119 150.602564 6.936969 150.820513 6.851684 151.038462 6.766267 151.256410 6.680718 151.474359 6.595039 151.692308 6.509233 151.910256 6.423302 152.128205 6.337246 152.346154 6.251068 152.564103 6.164770 152.782051 6.078353 153.000000 5.991820 153.217949 5.905171 153.435897 5.818410 153.653846 5.731537 153.871795 5.644555 154.089744 5.557466 154.307692 5.470271 154.525641 5.382971 154.743590 5.295570 154.961538 5.208069 155.179487 5.120469 155.397436 5.032772 155.615385 4.944981 155.833333 4.857096 156.051282 4.769121 156.269231 4.681056 156.487179 4.592903 156.705128 4.504665 156.923077 4.416343 157.141026 4.327939 157.358974 4.239455 157.576923 4.150892 157.794872 4.062253 158.012821 3.973539 158.230769 3.884752 158.448718 3.795894 158.666667 3.706967 158.884615 3.617972 159.102564 3.528912 159.320513 3.439788 159.538462 3.350601 159.756410 3.261355 159.974359 3.172050 160.192308 3.082689 160.410256 2.993273 160.628205 2.903805 160.846154 2.814285 161.064103 2.724716 161.282051 2.635099 161.500000 2.545437 161.717949 2.455732 161.935897 2.365984 162.153846 2.276196 162.371795 2.186370 162.589744 2.096507 162.807692 2.006610 163.025641 1.916680 163.243590 1.826719 163.461538 1.736729 163.679487 1.646711 163.897436 1.556668 164.115385 1.466602 164.333333 1.376513 164.551282 1.286404 164.769231 1.196277 164.987179 1.106134 165.205128 1.015976 165.423077 0.925805 165.641026 0.835624 165.858974 0.745433 166.076923 0.655235 166.294872 0.565031 166.512821 0.474824 166.730769 0.384615" class="line reactive nofill" /></g></g><g class="titles" /><g transform="translate(20, 10)" class="plot overlay"><g class="series serie-0 color-0" /></g><g transform="translate(20, 10)" class="plot text-overlay"><g class="series serie-0 color-0" /></g><g transform="translate(20, 10)" class="plot tooltip-overlay"><g transform="translate(0 0)" style="opacity: 0" class="tooltip"><rect rx="0" ry="0" width="0" height="0" class="tooltip-box" /><g class="text" /></g></g></g></svg>