<?xml version='1.0' encoding='utf-8'?>
<svg xmlns="http://www.w3.org/2000/svg" id="chart-5bbdc712-be7c-45ca-afd3-ba102b2574bd" class="pygal-chart pygal-sparkline" viewBox="0 0 200 50" width="200" height="50"><!--Generated with pygal 3.0.5 (etree) ©Kozea 2012-2016 on 2025-06-15--><!--http://pygal.org--><!--http://github.com/Kozea/pygal--><defs><style type="text/css">#chart-5bbdc712-be7c-45ca-afd3-ba102b2574bd{-webkit-user-select:none;-webkit-font-smoothing:antialiased;font-family:Consolas,"Liberation Mono",Menlo,Courier,monospace}#chart-5bbdc712-be7c-45ca-afd3-ba102b2574bd .title{font-family:Consolas,"Liberation Mono",Menlo,Courier,monospace;font-size:16px}#chart-5bbdc712-be7c-45ca-afd3-ba102b2574bd .legends .legend text{font-family:Consolas,"Liberation Mono",Menlo,Courier,monospace;font-size:14px}#chart-5bbdc712-be7c-45ca-afd3-ba102b2574bd .axis text{font-family:Consolas,"Liberation Mono",Menlo,Courier,monospace;font-size:10px}#chart-5bbdc712-be7c-45ca-afd3-ba102b2574bd .axis text.major{font-family:Consolas,"Liberation Mono",Menlo,Courier,monospace;font-size:10px}#chart-5bbdc712-be7c-45ca-afd3-ba102b2574bd .text-overlay text.value{font-family:Consolas,"Liberation Mono",Menlo,Courier,monospace;font-size:16px}#chart-5bbdc712-be7c-45ca-afd3-ba102b2574bd .text-overlay text.label{font-family:Consolas,"Liberation Mono",Menlo,Courier,monospace;font-size:10px}#chart-5bbdc712-be7c-45ca-afd3-ba102b2574bd .tooltip{font-family:Consolas,"Liberation Mono",Menlo,Courier,monospace;font-size:14px}#chart-5bbdc712-be7c-45ca-afd3-ba102b2574bd text.no_data{font-family:Consolas,"Liberation Mono",Menlo,Courier,monospace;font-size:64px}
#chart-5bbdc712-be7c-45ca-afd3-ba102b2574bd{background-color:rgba(249,249,249,1)}#chart-5bbdc712-be7c-45ca-afd3-ba102b2574bd path,#chart-5bbdc712-be7c-45ca-afd3-ba102b2574bd line,#chart-5bbdc712-be7c-45ca-afd3-ba102b2574bd rect,#chart-5bbdc712-be7c-45ca-afd3-ba102b2574bd circle{-webkit-transition:150ms;-moz-transition:150ms;transition:150ms}#chart-5bbdc712-be7c-45ca-afd3-ba102b2574bd .graph &gt; .background{fill:rgba(249,249,249,1)}#chart-5bbdc712-be7c-45ca-afd3-ba102b2574bd .plot &gt; .background{fill:rgba(255,255,255,1)}#chart-5bbdc712-be7c-45ca-afd3-ba102b2574bd .graph{fill:rgba(0,0,0,.87)}#chart-5bbdc712-be7c-45ca-afd3-ba102b2574bd text.no_data{fill:rgba(0,0,0,1)}#chart-5bbdc712-be7c-45ca-afd3-ba102b2574bd .title{fill:rgba(0,0,0,1)}#chart-5bbdc712-be7c-45ca-afd3-ba102b2574bd .legends .legend text{fill:rgba(0,0,0,.87)}#chart-5bbdc712-be7c-45ca-afd3-ba102b2574bd .legends .legend:hover text{fill:rgba(0,0,0,1)}#chart-5bbdc712-be7c-45ca-afd3-ba102b2574bd .axis .line{stroke:rgba(0,0,0,1)}#chart-5bbdc712-be7c-45ca-afd3-ba102b2574bd .axis .guide.line{stroke:rgba(0,0,0,.54)}#chart-5bbdc712-be7c-45ca-afd3-ba102b2574bd .axis .major.line{stroke:rgba(0,0,0,.87)}#chart-5bbdc712-be7c-45ca-afd3-ba102b2574bd .axis text.major{fill:rgba(0,0,0,1)}#chart-5bbdc712-be7c-45ca-afd3-ba102b2574bd .axis.y .guides:hover .guide.line,#chart-5bbdc712-be7c-45ca-afd3-ba102b2574bd .line-graph .axis.x .guides:hover .guide.line,#chart-5bbdc712-be7c-45ca-afd3-ba102b2574bd .stackedline-graph .axis.x .guides:hover .guide.line,#chart-5bbdc712-be7c-45ca-afd3-ba102b2574bd .xy-graph .axis.x .guides:hover .guide.line{stroke:rgba(0,0,0,1)}#chart-5bbdc712-be7c-45ca-afd3-ba102b2574bd .axis .guides:hover text{fill:rgba(0,0,0,1)}#chart-5bbdc712-be7c-45ca-afd3-ba102b2574bd .reactive{fill-opacity:.7;stroke-opacity:.8;stroke-width:1}#chart-5bbdc712-be7c-45ca-afd3-ba102b2574bd .ci{stroke:rgba(0,0,0,.87)}#chart-5bbdc712-be7c-45ca-afd3-ba102b2574bd .reactive.active,#chart-5bbdc712-be7c-45ca-afd3-ba102b2574bd .active .reactive{fill-opacity:.8;stroke-opacity:.9;stroke-width:4}#chart-5bbdc712-be7c-45ca-afd3-ba102b2574bd .ci .reactive.active{stroke-width:1.5}#chart-5bbdc712-be7c-45ca-afd3-ba102b2574bd .series text{fill:rgba(0,0,0,1)}#chart-5bbdc712-be7c-45ca-afd3-ba102b2574bd .tooltip rect{fill:rgba(255,255,255,1);stroke:rgba(0,0,0,1);-webkit-transition:opacity 150ms;-moz-transition:opacity 150ms;transition:opacity 150ms}#chart-5bbdc712-be7c-45ca-afd3-ba102b2574bd .tooltip .label{fill:rgba(0,0,0,.87)}#chart-5bbdc712-be7c-45ca-afd3-ba102b2574bd .tooltip .label{fill:rgba(0,0,0,.87)}#chart-5bbdc712-be7c-45ca-afd3-ba102b2574bd .tooltip .legend{font-size:.8em;fill:rgba(0,0,0,.54)}#chart-5bbdc712-be7c-45ca-afd3-ba102b2574bd .tooltip .x_label{font-size:.6em;fill:rgba(0,0,0,1)}#chart-5bbdc712-be7c-45ca-afd3-ba102b2574bd .tooltip .xlink{font-size:.5em;text-decoration:underline}#chart-5bbdc712-be7c-45ca-afd3-ba102b2574bd .tooltip .value{font-size:1.5em}#chart-5bbdc712-be7c-45ca-afd3-ba102b2574bd .bound{font-size:.5em}#chart-5bbdc712-be7c-45ca-afd3-ba102b2574bd .max-value{font-size:.75em;fill:rgba(0,0,0,.54)}#chart-5bbdc712-be7c-45ca-afd3-ba102b2574bd .map-element{fill:rgba(255,255,255,1);stroke:rgba(0,0,0,.54) !important}#chart-5bbdc712-be7c-45ca-afd3-ba102b2574bd .map-element .reactive{fill-opacity:inherit;stroke-opacity:inherit}#chart-5bbdc712-be7c-45ca-afd3-ba102b2574bd .color-0,#chart-5bbdc712-be7c-45ca-afd3-ba102b2574bd .color-0 a:visited{stroke:#F44336;fill:#F44336}#chart-5bbdc712-be7c-45ca-afd3-ba102b2574bd .text-overlay .color-0 text{fill:black}
#chart-5bbdc712-be7c-45ca-afd3-ba102b2574bd text.no_data{text-anchor:middle}#chart-5bbdc712-be7c-45ca-afd3-ba102b2574bd .guide.line{fill:none}#chart-5bbdc712-be7c-45ca-afd3-ba102b2574bd .centered{text-anchor:middle}#chart-5bbdc712-be7c-45ca-afd3-ba102b2574bd .title{text-anchor:middle}#chart-5bbdc712-be7c-45ca-afd3-ba102b2574bd .legends .legend text{fill-opacity:1}#chart-5bbdc712-be7c-45ca-afd3-ba102b2574bd .axis.x text{text-anchor:middle}#chart-5bbdc712-be7c-45ca-afd3-ba102b2574bd .axis.x:not(.web) text[transform]{text-anchor:start}#chart-5bbdc712-be7c-45ca-afd3-ba102b2574bd .axis.x:not(.web) text[transform].backwards{text-anchor:end}#chart-5bbdc712-be7c-45ca-afd3-ba102b2574bd .axis.y text{text-anchor:end}#chart-5bbdc712-be7c-45ca-afd3-ba102b2574bd .axis.y text[transform].backwards{text-anchor:start}#chart-5bbdc712-be7c-45ca-afd3-ba102b2574bd .axis.y2 text{text-anchor:start}#chart-5bbdc712-be7c-45ca-afd3-ba102b2574bd .axis.y2 text[transform].backwards{text-anchor:end}#chart-5bbdc712-be7c-45ca-afd3-ba102b2574bd .axis .guide.line{stroke-dasharray:4,4;stroke:black}#chart-5bbdc712-be7c-45ca-afd3-ba102b2574bd .axis .major.guide.line{stroke-dasharray:6,6;stroke:black}#chart-5bbdc712-be7c-45ca-afd3-ba102b2574bd .horizontal .axis.y .guide.line,#chart-5bbdc712-be7c-45ca-afd3-ba102b2574bd .horizontal .axis.y2 .guide.line,#chart-5bbdc712-be7c-45ca-afd3-ba102b2574bd .vertical .axis.x .guide.line{opacity:0}#chart-5bbdc712-be7c-45ca-afd3-ba102b2574bd .horizontal .axis.always_show .guide.line,#chart-5bbdc712-be7c-45ca-afd3-ba102b2574bd .vertical .axis.always_show .guide.line{opacity:1 !important}#chart-5bbdc712-be7c-45ca-afd3-ba102b2574bd .axis.y .guides:hover .guide.line,#chart-5bbdc712-be7c-45ca-afd3-ba102b2574bd .axis.y2 .guides:hover .guide.line,#chart-5bbdc712-be7c-45ca-afd3-ba102b2574bd .axis.x .guides:hover .guide.line{opacity:1}#chart-5bbdc712-be7c-45ca-afd3-ba102b2574bd .axis .guides:hover text{opacity:1}#chart-5bbdc712-be7c-45ca-afd3-ba102b2574bd .nofill{fill:none}#chart-5bbdc712-be7c-45ca-afd3-ba102b2574bd .subtle-fill{fill-opacity:.2}#chart-5bbdc712-be7c-45ca-afd3-ba102b2574bd .dot{stroke-width:1px;fill-opacity:1;stroke-opacity:1}#chart-5bbdc712-be7c-45ca-afd3-ba102b2574bd .dot.active{stroke-width:5px}#chart-5bbdc712-be7c-45ca-afd3-ba102b2574bd .dot.negative{fill:transparent}#chart-5bbdc712-be7c-45ca-afd3-ba102b2574bd text,#chart-5bbdc712-be7c-45ca-afd3-ba102b2574bd tspan{stroke:none !important}#chart-5bbdc712-be7c-45ca-afd3-ba102b2574bd .series text.active{opacity:1}#chart-5bbdc712-be7c-45ca-afd3-ba102b2574bd .tooltip rect{fill-opacity:.95;stroke-width:.5}#chart-5bbdc712-be7c-45ca-afd3-ba102b2574bd .tooltip text{fill-opacity:1}#chart-5bbdc712-be7c-45ca-afd3-ba102b2574bd .showable{visibility:hidden}#chart-5bbdc712-be7c-45ca-afd3-ba102b2574bd .showable.shown{visibility:visible}#chart-5bbdc712-be7c-45ca-afd3-ba102b2574bd .gauge-background{fill:rgba(229,229,229,1);stroke:none}#chart-5bbdc712-be7c-45ca-afd3-ba102b2574bd .bg-lines{stroke:rgba(249,249,249,1);stroke-width:2px}</style><script type="text/javascript">window.pygal = window.pygal || {};window.pygal.config = window.pygal.config || {};window.pygal.config['5bbdc712-be7c-45ca-afd3-ba102b2574bd'] = {"allow_interruptions": false, "box_mode": "extremes", "classes": ["pygal-chart", "pygal-sparkline"], "css": ["file://style.css", "file://graph.css"], "defs": [], "disable_xml_declaration": false, "dots_size": 2.5, "dynamic_print_values": false, "explicit_size": true, "fill": false, "force_uri_protocol": "https", "formatter": null, "half_pie": false, "height": 50, "include_x_axis": false, "inner_radius": 0, "interpolate": "cubic", "interpolation_parameters": {}, "interpolation_precision": 250, "inverse_y_axis": false, "js": [], "legend_at_bottom": false, "legend_at_bottom_columns": null, "legend_box_size": 12, "logarithmic": false, "margin": 10, "margin_bottom": null, "margin_left": null, "margin_right": null, "margin_top": null, "max_scale": 2, "min_scale": 1, "missing_value_fill_truncation": "x", "no_data_text": "", "no_prefix": false, "order_min": null, "pretty_print": false, "print_labels": false, "print_values": false, "print_values_position": "center", "print_zeroes": true, "range": null, "rounded_bars": null, "secondary_range": null, "show_dots": false, "show_legend": false, "show_minor_x_labels": true, "show_minor_y_labels": true, "show_only_major_dots": false, "show_x_guides": false, "show_x_labels": false, "show_y_guides": true, "show_y_labels": true, "spacing": 0, "stack_from_top": false, "strict": false, "stroke": true, "stroke_style": null, "style": {"background": "rgba(249, 249, 249, 1)", "ci_colors": [], "colors": ["#F44336", "#3F51B5", "#009688", "#FFC107", "#FF5722", "#9C27B0", "#03A9F4", "#8BC34A", "#FF9800", "#E91E63", "#2196F3", "#4CAF50", "#FFEB3B", "#673AB7", "#00BCD4", "#CDDC39", "#9E9E9E", "#607D8B"], "dot_opacity": "1", "font_family": "Consolas, \"Liberation Mono\", Menlo, Courier, monospace", "foreground": "rgba(0, 0, 0, .87)", "foreground_strong": "rgba(0, 0, 0, 1)", "foreground_subtle": "rgba(0, 0, 0, .54)", "guide_stroke_color": "black", "guide_stroke_dasharray": "4,4", "label_font_family": "Consolas, \"Liberation Mono\", Menlo, Courier, monospace", "label_font_size": 10, "legend_font_family": "Consolas, \"Liberation Mono\", Menlo, Courier, monospace", "legend_font_size": 14, "major_guide_stroke_color": "black", "major_guide_stroke_dasharray": "6,6", "major_label_font_family": "Consolas, \"Liberation Mono\", Menlo, Courier, monospace", "major_label_font_size": 10, "no_data_font_family": "Consolas, \"Liberation Mono\", Menlo, Courier, monospace", "no_data_font_size": 64, "opacity": ".7", "opacity_hover": ".8", "plot_background": "rgba(255, 255, 255, 1)", "stroke_opacity": ".8", "stroke_opacity_hover": ".9", "stroke_width": "1", "stroke_width_hover": "4", "title_font_family": "Consolas, \"Liberation Mono\", Menlo, Courier, monospace", "title_font_size": 16, "tooltip_font_family": "Consolas, \"Liberation Mono\", Menlo, Courier, monospace", "tooltip_font_size": 14, "transition": "150ms", "value_background": "rgba(229, 229, 229, 1)", "value_colors": [], "value_font_family": "Consolas, \"Liberation Mono\", Menlo, Courier, monospace", "value_font_size": 16, "value_label_font_family": "Consolas, \"Liberation Mono\", Menlo, Courier, monospace", "value_label_font_size": 10}, "title": null, "tooltip_border_radius": 0, "tooltip_fancy_mode": true, "truncate_label": null, "truncate_legend": null, "width": 200, "x_label_rotation": 0, "x_labels": ["2025/5", "2025/4", "2025/3", "2025/1", "2024/11", "2024/10", "2024/9", "2024/8", "2024/7"], "x_labels_major": null, "x_labels_major_count": null, "x_labels_major_every": null, "x_title": null, "xrange": null, "y_label_rotation": 0, "y_labels": null, "y_labels_major": null, "y_labels_major_count": null, "y_labels_major_every": null, "y_title": null, "zero": 0, "legends": [""]}</script></defs><title>Pygal</title><g class="graph line-graph vertical"><rect x="0" y="0" width="200" height="50" class="background" /><g transform="translate(82, 10)" class="plot"><rect x="0" y="0" width="108.0" height="30" class="background" /><g class="axis y always_show"><path d="M0.000000 30.000000 h108.000000" class="line" /><g class="guides"><path d="M0.000000 29.423077 h108.000000" class="guide line" /><text x="-5" y="32.92307692307692" class="">0.9015826611</text><title>0.9015826611</title></g><g class="guides"><path d="M0.000000 0.576923 h108.000000" class="guide line" /><text x="-5" y="4.076923076923077" class="">7.209295097</text><title>7.209295097</title></g></g><g class="series serie-0 color-0"><path d="M2.076923 19.826687 L2.128846 19.839324 2.180769 19.851961 2.232692 19.864600 2.284615 19.877240 2.336538 19.889882 2.388462 19.902527 2.440385 19.915175 2.492308 19.927827 2.544231 19.940484 2.596154 19.953145 2.648077 19.965812 2.700000 19.978485 2.751923 19.991164 2.803846 20.003850 2.855769 20.016544 2.907692 20.029246 2.959615 20.041957 3.011538 20.054677 3.063462 20.067407 3.115385 20.080147 3.167308 20.092898 3.219231 20.105660 3.271154 20.118434 3.323077 20.131221 3.375000 20.144021 3.426923 20.156834 3.478846 20.169661 3.530769 20.182504 3.582692 20.195361 3.634615 20.208234 3.686538 20.221123 3.738462 20.234030 3.790385 20.246953 3.842308 20.259895 3.894231 20.272855 3.946154 20.285833 3.998077 20.298832 4.050000 20.311851 4.101923 20.324890 4.153846 20.337950 4.205769 20.351032 4.257692 20.364137 4.309615 20.377264 4.361538 20.390414 4.413462 20.403589 4.465385 20.416788 4.517308 20.430011 4.569231 20.443261 4.621154 20.456536 4.673077 20.469838 4.725000 20.483167 4.776923 20.496524 4.828846 20.509909 4.880769 20.523323 4.932692 20.536766 4.984615 20.550239 5.036538 20.563743 5.088462 20.577277 5.140385 20.590843 5.192308 20.604441 5.244231 20.618072 5.296154 20.631735 5.348077 20.645432 5.400000 20.659164 5.451923 20.672930 5.503846 20.686732 5.555769 20.700569 5.607692 20.714443 5.659615 20.728354 5.711538 20.742302 5.763462 20.756288 5.815385 20.770312 5.867308 20.784376 5.919231 20.798480 5.971154 20.812623 6.023077 20.826808 6.075000 20.841033 6.126923 20.855301 6.178846 20.869610 6.230769 20.883963 6.282692 20.898359 6.334615 20.912799 6.386538 20.927284 6.438462 20.941813 6.490385 20.956389 6.542308 20.971010 6.594231 20.985678 6.646154 21.000393 6.698077 21.015157 6.750000 21.029968 6.801923 21.044828 6.853846 21.059738 6.905769 21.074698 6.957692 21.089708 7.009615 21.104769 7.061538 21.119882 7.113462 21.135047 7.165385 21.150264 7.217308 21.165535 7.269231 21.180860 7.321154 21.196238 7.373077 21.211672 7.425000 21.227161 7.476923 21.242706 7.528846 21.258308 7.580769 21.273966 7.632692 21.289682 7.684615 21.305456 7.736538 21.321289 7.788462 21.337181 7.840385 21.353132 7.892308 21.369144 7.944231 21.385217 7.996154 21.401351 8.048077 21.417547 8.100000 21.433806 8.151923 21.450127 8.203846 21.466512 8.255769 21.482961 8.307692 21.499475 8.359615 21.516053 8.411538 21.532698 8.463462 21.549409 8.515385 21.566186 8.567308 21.583031 8.619231 21.599944 8.671154 21.616925 8.723077 21.633975 8.775000 21.651094 8.826923 21.668284 8.878846 21.685544 8.930769 21.702875 8.982692 21.720278 9.034615 21.737754 9.086538 21.755302 9.138462 21.772923 9.190385 21.790618 9.242308 21.808387 9.294231 21.826232 9.346154 21.844152 9.398077 21.862148 9.450000 21.880220 9.501923 21.898370 9.553846 21.916597 9.605769 21.934902 9.657692 21.953286 9.709615 21.971750 9.761538 21.990293 9.813462 22.008916 9.865385 22.027621 9.917308 22.046407 9.969231 22.065275 10.021154 22.084225 10.073077 22.103259 10.125000 22.122376 10.176923 22.141577 10.228846 22.160863 10.280769 22.180234 10.332692 22.199691 10.384615 22.219234 10.436538 22.238865 10.488462 22.258582 10.540385 22.278388 10.592308 22.298282 10.644231 22.318265 10.696154 22.338338 10.748077 22.358501 10.800000 22.378754 10.851923 22.399099 10.903846 22.419535 10.955769 22.440064 11.007692 22.460686 11.059615 22.481401 11.111538 22.502210 11.163462 22.523113 11.215385 22.544112 11.267308 22.565206 11.319231 22.586396 11.371154 22.607683 11.423077 22.629067 11.475000 22.650548 11.526923 22.672128 11.578846 22.693807 11.630769 22.715585 11.682692 22.737463 11.734615 22.759442 11.786538 22.781521 11.838462 22.803702 11.890385 22.825986 11.942308 22.848371 11.994231 22.870860 12.046154 22.893453 12.098077 22.916150 12.150000 22.938951 12.201923 22.961858 12.253846 22.984871 12.305769 23.007990 12.357692 23.031216 12.409615 23.054550 12.461538 23.077992 12.513462 23.101542 12.565385 23.125202 12.617308 23.148971 12.669231 23.172850 12.721154 23.196841 12.773077 23.220942 12.825000 23.245155 12.876923 23.269481 12.928846 23.293920 12.980769 23.318472 13.032692 23.343138 13.084615 23.367919 13.136538 23.392815 13.188462 23.417826 13.240385 23.442954 13.292308 23.468198 13.344231 23.493560 13.396154 23.519039 13.448077 23.544637 13.500000 23.570354 13.551923 23.596190 13.603846 23.622147 13.655769 23.648223 13.707692 23.674421 13.759615 23.700741 13.811538 23.727182 13.863462 23.753747 13.915385 23.780434 13.967308 23.807246 14.019231 23.834181 14.071154 23.861242 14.123077 23.888428 14.175000 23.915740 14.226923 23.943178 14.278846 23.970744 14.330769 23.998437 14.382692 24.026258 14.434615 24.054208 14.486538 24.082288 14.538462 24.110497 14.590385 24.138836 14.642308 24.167306 14.694231 24.195908 14.746154 24.224641 14.798077 24.253507 14.850000 24.282506 14.901923 24.311638 14.953846 24.340905 15.005769 24.370306 15.057692 24.399843 15.109615 24.429515 15.161538 24.459319 15.213462 24.489254 15.265385 24.519317 15.317308 24.549505 15.369231 24.579814 15.421154 24.610243 15.473077 24.640789 15.525000 24.671449 15.576923 24.702220 15.628846 24.733100 15.680769 24.764086 15.732692 24.795175 15.784615 24.826364 15.836538 24.857651 15.888462 24.889033 15.940385 24.920507 15.992308 24.952071 16.044231 24.983722 16.096154 25.015457 16.148077 25.047273 16.200000 25.079168 16.251923 25.111139 16.303846 25.143184 16.355769 25.175299 16.407692 25.207482 16.459615 25.239730 16.511538 25.272040 16.563462 25.304411 16.615385 25.336838 16.667308 25.369319 16.719231 25.401852 16.771154 25.434434 16.823077 25.467062 16.875000 25.499734 16.926923 25.532446 16.978846 25.565197 17.030769 25.597982 17.082692 25.630800 17.134615 25.663648 17.186538 25.696523 17.238462 25.729423 17.290385 25.762344 17.342308 25.795285 17.394231 25.828241 17.446154 25.861211 17.498077 25.894193 17.550000 25.927182 17.601923 25.960176 17.653846 25.993174 17.705769 26.026171 17.757692 26.059166 17.809615 26.092155 17.861538 26.125136 17.913462 26.158106 17.965385 26.191063 18.017308 26.224003 18.069231 26.256924 18.121154 26.289824 18.173077 26.322699 18.225000 26.355547 18.276923 26.388365 18.328846 26.421151 18.380769 26.453901 18.432692 26.486613 18.484615 26.519285 18.536538 26.551913 18.588462 26.584495 18.640385 26.617028 18.692308 26.649509 18.744231 26.681937 18.796154 26.714307 18.848077 26.746617 18.900000 26.778865 18.951923 26.811048 19.003846 26.843163 19.055769 26.875208 19.107692 26.907179 19.159615 26.939074 19.211538 26.970890 19.263462 27.002625 19.315385 27.034276 19.367308 27.065840 19.419231 27.097314 19.471154 27.128696 19.523077 27.159983 19.575000 27.191173 19.626923 27.222262 19.678846 27.253247 19.730769 27.284127 19.782692 27.314898 19.834615 27.345558 19.886538 27.376104 19.938462 27.406533 19.990385 27.436843 20.042308 27.467030 20.094231 27.497093 20.146154 27.527028 20.198077 27.556833 20.250000 27.586504 20.301923 27.616040 20.353846 27.645438 20.405769 27.674694 20.457692 27.703807 20.509615 27.732772 20.561538 27.761589 20.613462 27.790253 20.665385 27.818763 20.717308 27.847116 20.769231 27.875308 20.821154 27.903337 20.873077 27.931201 20.925000 27.958896 20.976923 27.986420 21.028846 28.013771 21.080769 28.040945 21.132692 28.067940 21.184615 28.094753 21.236538 28.121381 21.288462 28.147822 21.340385 28.174073 21.392308 28.200132 21.444231 28.225994 21.496154 28.251659 21.548077 28.277123 21.600000 28.302383 21.651923 28.327437 21.703846 28.352282 21.755769 28.376915 21.807692 28.401333 21.859615 28.425535 21.911538 28.449516 21.963462 28.473275 22.015385 28.496809 22.067308 28.520114 22.119231 28.543189 22.171154 28.566030 22.223077 28.588635 22.275000 28.611001 22.326923 28.633126 22.378846 28.655006 22.430769 28.676639 22.482692 28.698023 22.534615 28.719154 22.586538 28.740029 22.638462 28.760647 22.690385 28.781004 22.742308 28.801098 22.794231 28.820926 22.846154 28.840485 22.898077 28.859773 22.950000 28.878786 23.001923 28.897523 23.053846 28.915980 23.105769 28.934154 23.157692 28.952044 23.209615 28.969645 23.261538 28.986957 23.313462 29.003975 23.365385 29.020697 23.417308 29.037120 23.469231 29.053242 23.521154 29.069060 23.573077 29.084572 23.625000 29.099774 23.676923 29.114663 23.728846 29.129238 23.780769 29.143495 23.832692 29.157432 23.884615 29.171045 23.936538 29.184333 23.988462 29.197293 24.040385 29.209921 24.092308 29.222215 24.144231 29.234173 24.196154 29.245791 24.248077 29.257067 24.300000 29.267999 24.351923 29.278583 24.403846 29.288817 24.455769 29.298697 24.507692 29.308223 24.559615 29.317389 24.611538 29.326195 24.663462 29.334637 24.715385 29.342713 24.767308 29.350419 24.819231 29.357753 24.871154 29.364713 24.923077 29.371295 24.975000 29.377498 25.026923 29.383317 25.078846 29.388751 25.130769 29.393797 25.182692 29.398452 25.234615 29.402713 25.286538 29.406578 25.338462 29.410043 25.390385 29.413107 25.442308 29.415767 25.494231 29.418019 25.546154 29.419861 25.598077 29.421291 25.650000 29.422305 25.701923 29.422902 25.753846 29.423077 25.805769 29.422829 25.857692 29.422155 25.909615 29.421051 25.961538 29.419516 26.013462 29.417547 26.065385 29.415141 26.117308 29.412295 26.169231 29.409006 26.221154 29.405272 26.273077 29.401090 26.325000 29.396458 26.376923 29.391372 26.428846 29.385830 26.480769 29.379829 26.532692 29.373367 26.584615 29.366440 26.636538 29.359047 26.688462 29.351184 26.740385 29.342848 26.792308 29.334038 26.844231 29.324750 26.896154 29.314981 26.948077 29.304729 27.000000 29.293990 27.051923 29.282764 27.103846 29.271046 27.155769 29.258833 27.207692 29.246124 27.259615 29.232916 27.311538 29.219205 27.363462 29.204989 27.415385 29.190266 27.467308 29.175032 27.519231 29.159285 27.571154 29.143023 27.623077 29.126241 27.675000 29.108939 27.726923 29.091113 27.778846 29.072760 27.830769 29.053877 27.882692 29.034462 27.934615 29.014513 27.986538 28.994026 28.038462 28.972999 28.090385 28.951430 28.142308 28.929321 28.194231 28.906676 28.246154 28.883498 28.298077 28.859790 28.350000 28.835555 28.401923 28.810797 28.453846 28.785520 28.505769 28.759726 28.557692 28.733418 28.609615 28.706600 28.661538 28.679276 28.713462 28.651448 28.765385 28.623120 28.817308 28.594295 28.869231 28.564977 28.921154 28.535168 28.973077 28.504872 29.025000 28.474093 29.076923 28.442833 29.128846 28.411096 29.180769 28.378885 29.232692 28.346204 29.284615 28.313055 29.336538 28.279442 29.388462 28.245369 29.440385 28.210838 29.492308 28.175854 29.544231 28.140418 29.596154 28.104535 29.648077 28.068208 29.700000 28.031440 29.751923 27.994234 29.803846 27.956594 29.855769 27.918523 29.907692 27.880024 29.959615 27.841101 30.011538 27.801757 30.063462 27.761994 30.115385 27.721817 30.167308 27.681229 30.219231 27.640233 30.271154 27.598832 30.323077 27.557030 30.375000 27.514830 30.426923 27.472234 30.478846 27.429248 30.530769 27.385873 30.582692 27.342113 30.634615 27.297971 30.686538 27.253451 30.738462 27.208556 30.790385 27.163289 30.842308 27.117654 30.894231 27.071654 30.946154 27.025291 30.998077 26.978570 31.050000 26.931494 31.101923 26.884065 31.153846 26.836288 31.205769 26.788166 31.257692 26.739701 31.309615 26.690897 31.361538 26.641758 31.413462 26.592287 31.465385 26.542486 31.517308 26.492360 31.569231 26.441912 31.621154 26.391144 31.673077 26.340061 31.725000 26.288665 31.776923 26.236959 31.828846 26.184948 31.880769 26.132634 31.932692 26.080021 31.984615 26.027112 32.036538 25.973910 32.088462 25.920418 32.140385 25.866641 32.192308 25.812580 32.244231 25.758240 32.296154 25.703623 32.348077 25.648734 32.400000 25.593574 32.451923 25.538148 32.503846 25.482460 32.555769 25.426511 32.607692 25.370305 32.659615 25.313847 32.711538 25.257138 32.763462 25.200183 32.815385 25.142984 32.867308 25.085545 32.919231 25.027870 32.971154 24.969961 33.023077 24.911821 33.075000 24.853455 33.126923 24.794865 33.178846 24.736055 33.230769 24.677027 33.282692 24.617786 33.334615 24.558335 33.386538 24.498676 33.438462 24.438813 33.490385 24.378750 33.542308 24.318489 33.594231 24.258034 33.646154 24.197389 33.698077 24.136556 33.750000 24.075539 33.801923 24.014341 33.853846 23.952966 33.905769 23.891416 33.957692 23.829696 34.009615 23.767807 34.061538 23.705755 34.113462 23.643541 34.165385 23.581169 34.217308 23.518643 34.269231 23.455966 34.321154 23.393140 34.373077 23.330170 34.425000 23.267059 34.476923 23.203810 34.528846 23.140425 34.580769 23.076910 34.632692 23.013266 34.684615 22.949497 34.736538 22.885607 34.788462 22.821598 34.840385 22.757475 34.892308 22.693239 34.944231 22.628896 34.996154 22.564447 35.048077 22.499896 35.100000 22.435247 35.151923 22.370502 35.203846 22.305665 35.255769 22.240740 35.307692 22.175729 35.359615 22.110637 35.411538 22.045465 35.463462 21.980218 35.515385 21.914899 35.567308 21.849511 35.619231 21.784057 35.671154 21.718540 35.723077 21.652965 35.775000 21.587334 35.826923 21.521651 35.878846 21.455918 35.930769 21.390139 35.982692 21.324318 36.034615 21.258458 36.086538 21.192561 36.138462 21.126632 36.190385 21.060673 36.242308 20.994689 36.294231 20.928681 36.346154 20.862654 36.398077 20.796610 36.450000 20.730554 36.501923 20.664488 36.553846 20.598416 36.605769 20.532340 36.657692 20.466265 36.709615 20.400193 36.761538 20.334128 36.813462 20.268073 36.865385 20.202031 36.917308 20.136006 36.969231 20.070001 37.021154 20.004019 37.073077 19.938064 37.125000 19.872138 37.176923 19.806246 37.228846 19.740390 37.280769 19.674574 37.332692 19.608801 37.384615 19.543074 37.436538 19.477396 37.488462 19.411772 37.540385 19.346204 37.592308 19.280695 37.644231 19.215249 37.696154 19.149868 37.748077 19.084558 37.800000 19.019320 37.851923 18.954157 37.903846 18.889074 37.955769 18.824074 38.007692 18.759159 38.059615 18.694333 38.111538 18.629600 38.163462 18.564962 38.215385 18.500424 38.267308 18.435987 38.319231 18.371656 38.371154 18.307434 38.423077 18.243324 38.475000 18.179330 38.526923 18.115454 38.578846 18.051700 38.630769 17.988071 38.682692 17.924571 38.734615 17.861203 38.786538 17.797970 38.838462 17.734876 38.890385 17.671923 38.942308 17.609115 38.994231 17.546456 39.046154 17.483948 39.098077 17.421595 39.150000 17.359401 39.201923 17.297368 39.253846 17.235499 39.305769 17.173799 39.357692 17.112270 39.409615 17.050916 39.461538 16.989740 39.513462 16.928745 39.565385 16.867934 39.617308 16.807312 39.669231 16.746880 39.721154 16.686643 39.773077 16.626604 39.825000 16.566765 39.876923 16.507131 39.928846 16.447705 39.980769 16.388489 40.032692 16.329488 40.084615 16.270704 40.136538 16.212140 40.188462 16.153801 40.240385 16.095689 40.292308 16.037808 40.344231 15.980161 40.396154 15.922751 40.448077 15.865581 40.500000 15.808655 40.551923 15.751977 40.603846 15.695548 40.655769 15.639374 40.707692 15.583456 40.759615 15.527799 40.811538 15.472405 40.863462 15.417278 40.915385 15.362421 40.967308 15.307837 41.019231 15.253531 41.071154 15.199503 41.123077 15.145754 41.175000 15.092281 41.226923 15.039084 41.278846 14.986159 41.330769 14.933507 41.382692 14.881124 41.434615 14.829010 41.486538 14.777162 41.538462 14.725579 41.590385 14.674260 41.642308 14.623202 41.694231 14.572404 41.746154 14.521864 41.798077 14.471581 41.850000 14.421553 41.901923 14.371778 41.953846 14.322255 42.005769 14.272981 42.057692 14.223956 42.109615 14.175177 42.161538 14.126644 42.213462 14.078353 42.265385 14.030304 42.317308 13.982495 42.369231 13.934924 42.421154 13.887590 42.473077 13.840490 42.525000 13.793624 42.576923 13.746989 42.628846 13.700584 42.680769 13.654407 42.732692 13.608457 42.784615 13.562732 42.836538 13.517229 42.888462 13.471948 42.940385 13.426887 42.992308 13.382044 43.044231 13.337418 43.096154 13.293006 43.148077 13.248808 43.200000 13.204821 43.251923 13.161043 43.303846 13.117474 43.355769 13.074111 43.407692 13.030953 43.459615 12.987998 43.511538 12.945245 43.563462 12.902691 43.615385 12.860335 43.667308 12.818176 43.719231 12.776211 43.771154 12.734440 43.823077 12.692860 43.875000 12.651469 43.926923 12.610267 43.978846 12.569251 44.030769 12.528419 44.082692 12.487771 44.134615 12.447304 44.186538 12.407017 44.238462 12.366907 44.290385 12.326974 44.342308 12.287216 44.394231 12.247631 44.446154 12.208217 44.498077 12.168972 44.550000 12.129896 44.601923 12.090986 44.653846 12.052240 44.705769 12.013658 44.757692 11.975236 44.809615 11.936975 44.861538 11.898871 44.913462 11.860924 44.965385 11.823131 45.017308 11.785491 45.069231 11.748002 45.121154 11.710663 45.173077 11.673472 45.225000 11.636427 45.276923 11.599526 45.328846 11.562769 45.380769 11.526152 45.432692 11.489676 45.484615 11.453337 45.536538 11.417134 45.588462 11.381066 45.640385 11.345130 45.692308 11.309326 45.744231 11.273651 45.796154 11.238105 45.848077 11.202684 45.900000 11.167388 45.951923 11.132214 46.003846 11.097162 46.055769 11.062230 46.107692 11.027415 46.159615 10.992716 46.211538 10.958131 46.263462 10.923660 46.315385 10.889299 46.367308 10.855048 46.419231 10.820905 46.471154 10.786868 46.523077 10.752935 46.575000 10.719105 46.626923 10.685377 46.678846 10.651747 46.730769 10.618215 46.782692 10.584780 46.834615 10.551438 46.886538 10.518190 46.938462 10.485032 46.990385 10.451964 47.042308 10.418984 47.094231 10.386090 47.146154 10.353280 47.198077 10.320552 47.250000 10.287906 47.301923 10.255339 47.353846 10.222850 47.405769 10.190436 47.457692 10.158097 47.509615 10.125831 47.561538 10.093636 47.613462 10.061510 47.665385 10.029451 47.717308 9.997459 47.769231 9.965531 47.821154 9.933665 47.873077 9.901860 47.925000 9.870115 47.976923 9.838427 48.028846 9.806796 48.080769 9.775218 48.132692 9.743693 48.184615 9.712219 48.236538 9.680794 48.288462 9.649417 48.340385 9.618086 48.392308 9.586799 48.444231 9.555554 48.496154 9.524351 48.548077 9.493186 48.600000 9.462059 48.651923 9.430968 48.703846 9.399912 48.755769 9.368887 48.807692 9.337894 48.859615 9.306930 48.911538 9.275993 48.963462 9.245082 49.015385 9.214195 49.067308 9.183331 49.119231 9.152487 49.171154 9.121663 49.223077 9.090856 49.275000 9.060065 49.326923 9.029288 49.378846 8.998524 49.430769 8.967770 49.482692 8.937025 49.534615 8.906288 49.586538 8.875557 49.638462 8.844830 49.690385 8.814105 49.742308 8.783381 49.794231 8.752656 49.846154 8.721928 49.898077 8.691196 49.950000 8.660458 50.001923 8.629713 50.053846 8.598958 50.105769 8.568192 50.157692 8.537414 50.209615 8.506621 50.261538 8.475813 50.313462 8.444986 50.365385 8.414141 50.417308 8.383274 50.469231 8.352385 50.521154 8.321472 50.573077 8.290532 50.625000 8.259565 50.676923 8.228568 50.728846 8.197541 50.780769 8.166480 50.832692 8.135386 50.884615 8.104255 50.936538 8.073086 50.988462 8.041879 51.040385 8.010630 51.092308 7.979338 51.144231 7.948002 51.196154 7.916620 51.248077 7.885190 51.300000 7.853711 51.351923 7.822181 51.403846 7.790598 51.455769 7.758960 51.507692 7.727267 51.559615 7.695515 51.611538 7.663704 51.663462 7.631833 51.715385 7.599898 51.767308 7.567899 51.819231 7.535833 51.871154 7.503700 51.923077 7.471497 51.975000 7.439224 52.026923 7.406877 52.078846 7.374456 52.130769 7.341959 52.182692 7.309383 52.234615 7.276729 52.286538 7.243993 52.338462 7.211174 52.390385 7.178271 52.442308 7.145281 52.494231 7.112204 52.546154 7.079037 52.598077 7.045779 52.650000 7.012428 52.701923 6.978983 52.753846 6.945441 52.805769 6.911801 52.857692 6.878062 52.909615 6.844221 52.961538 6.810278 53.013462 6.776230 53.065385 6.742075 53.117308 6.707813 53.169231 6.673441 53.221154 6.638958 53.273077 6.604362 53.325000 6.569651 53.376923 6.534824 53.428846 6.499879 53.480769 6.464814 53.532692 6.429628 53.584615 6.394319 53.636538 6.358885 53.688462 6.323325 53.740385 6.287637 53.792308 6.251820 53.844231 6.215870 53.896154 6.179788 53.948077 6.143572 54.000000 6.107218 54.051923 6.070728 54.103846 6.034103 54.155769 5.997347 54.207692 5.960463 54.259615 5.923454 54.311538 5.886324 54.363462 5.849077 54.415385 5.811715 54.467308 5.774243 54.519231 5.736663 54.571154 5.698979 54.623077 5.661195 54.675000 5.623313 54.726923 5.585337 54.778846 5.547270 54.830769 5.509117 54.882692 5.470880 54.934615 5.432563 54.986538 5.394168 55.038462 5.355701 55.090385 5.317163 55.142308 5.278558 55.194231 5.239890 55.246154 5.201162 55.298077 5.162378 55.350000 5.123541 55.401923 5.084653 55.453846 5.045720 55.505769 5.006743 55.557692 4.967727 55.609615 4.928675 55.661538 4.889590 55.713462 4.850476 55.765385 4.811336 55.817308 4.772173 55.869231 4.732992 55.921154 4.693794 55.973077 4.654584 56.025000 4.615365 56.076923 4.576141 56.128846 4.536914 56.180769 4.497689 56.232692 4.458468 56.284615 4.419255 56.336538 4.380054 56.388462 4.340867 56.440385 4.301699 56.492308 4.262552 56.544231 4.223431 56.596154 4.184338 56.648077 4.145276 56.700000 4.106250 56.751923 4.067262 56.803846 4.028317 56.855769 3.989416 56.907692 3.950565 56.959615 3.911765 57.011538 3.873022 57.063462 3.834337 57.115385 3.795715 57.167308 3.757158 57.219231 3.718671 57.271154 3.680256 57.323077 3.641917 57.375000 3.603657 57.426923 3.565481 57.478846 3.527390 57.530769 3.489389 57.582692 3.451481 57.634615 3.413669 57.686538 3.375957 57.738462 3.338348 57.790385 3.300846 57.842308 3.263453 57.894231 3.226174 57.946154 3.189012 57.998077 3.151970 58.050000 3.115051 58.101923 3.078259 58.153846 3.041598 58.205769 3.005070 58.257692 2.968679 58.309615 2.932429 58.361538 2.896323 58.413462 2.860364 58.465385 2.824555 58.517308 2.788901 58.569231 2.753405 58.621154 2.718069 58.673077 2.682897 58.725000 2.647893 58.776923 2.613061 58.828846 2.578402 58.880769 2.543922 58.932692 2.509623 58.984615 2.475508 59.036538 2.441582 59.088462 2.407847 59.140385 2.374307 59.192308 2.340965 59.244231 2.307825 59.296154 2.274890 59.348077 2.242163 59.400000 2.209648 59.451923 2.177348 59.503846 2.145267 59.555769 2.113408 59.607692 2.081775 59.659615 2.050370 59.711538 2.019198 59.763462 1.988261 59.815385 1.957563 59.867308 1.927108 59.919231 1.896898 59.971154 1.866938 60.023077 1.837230 60.075000 1.807778 60.126923 1.778585 60.178846 1.749656 60.230769 1.720992 60.282692 1.692599 60.334615 1.664478 60.386538 1.636633 60.438462 1.609068 60.490385 1.581787 60.542308 1.554792 60.594231 1.528087 60.646154 1.501675 60.698077 1.475561 60.750000 1.449746 60.801923 1.424235 60.853846 1.399031 60.905769 1.374137 60.957692 1.349557 61.009615 1.325294 61.061538 1.301351 61.113462 1.277733 61.165385 1.254442 61.217308 1.231481 61.269231 1.208855 61.321154 1.186566 61.373077 1.164619 61.425000 1.143015 61.476923 1.121759 61.528846 1.100855 61.580769 1.080305 61.632692 1.060112 61.684615 1.040282 61.736538 1.020815 61.788462 1.001717 61.840385 0.982991 61.892308 0.964639 61.944231 0.946665 61.996154 0.929074 62.048077 0.911867 62.100000 0.895049 62.151923 0.878623 62.203846 0.862592 62.255769 0.846959 62.307692 0.831729 62.359615 0.816904 62.411538 0.802488 62.463462 0.788484 62.515385 0.774896 62.567308 0.761727 62.619231 0.748981 62.671154 0.736660 62.723077 0.724769 62.775000 0.713310 62.826923 0.702287 62.878846 0.691704 62.930769 0.681563 62.982692 0.671869 63.034615 0.662624 63.086538 0.653833 63.138462 0.645498 63.190385 0.637622 63.242308 0.630210 63.294231 0.623264 63.346154 0.616789 63.398077 0.610787 63.450000 0.605261 63.501923 0.600216 63.553846 0.595655 63.605769 0.591580 63.657692 0.587996 63.709615 0.584906 63.761538 0.582312 63.813462 0.580220 63.865385 0.578631 63.917308 0.577550 63.969231 0.576979 64.021154 0.576923 64.073077 0.577384 64.125000 0.578367 64.176923 0.579873 64.228846 0.581907 64.280769 0.584473 64.332692 0.587573 64.384615 0.591211 64.436538 0.595390 64.488462 0.600114 64.540385 0.605386 64.592308 0.611210 64.644231 0.617589 64.696154 0.624526 64.748077 0.632024 64.800000 0.640088 64.851923 0.648720 64.903846 0.657925 64.955769 0.667704 65.007692 0.678063 65.059615 0.689003 65.111538 0.700529 65.163462 0.712644 65.215385 0.725351 65.267308 0.738653 65.319231 0.752555 65.371154 0.767060 65.423077 0.782170 65.475000 0.797889 65.526923 0.814222 65.578846 0.831170 65.630769 0.848738 65.682692 0.866928 65.734615 0.885745 65.786538 0.905192 65.838462 0.925271 65.890385 0.945987 65.942308 0.967343 65.994231 0.989342 66.046154 1.011988 66.098077 1.035284 66.150000 1.059233 66.201923 1.083840 66.253846 1.109106 66.305769 1.135036 66.357692 1.161633 66.409615 1.188900 66.461538 1.216842 66.513462 1.245460 66.565385 1.274759 66.617308 1.304742 66.669231 1.335413 66.721154 1.366774 66.773077 1.398830 66.825000 1.431583 66.876923 1.465037 66.928846 1.499196 66.980769 1.534062 67.032692 1.569638 67.084615 1.605921 67.136538 1.642905 67.188462 1.680585 67.240385 1.718957 67.292308 1.758016 67.344231 1.797756 67.396154 1.838174 67.448077 1.879264 67.500000 1.921020 67.551923 1.963439 67.603846 2.006516 67.655769 2.050245 67.707692 2.094621 67.759615 2.139641 67.811538 2.185298 67.863462 2.231588 67.915385 2.278506 67.967308 2.326047 68.019231 2.374206 68.071154 2.422979 68.123077 2.472360 68.175000 2.522345 68.226923 2.572929 68.278846 2.624106 68.330769 2.675873 68.382692 2.728223 68.434615 2.781152 68.486538 2.834656 68.538462 2.888729 68.590385 2.943366 68.642308 2.998563 68.694231 3.054315 68.746154 3.110617 68.798077 3.167463 68.850000 3.224849 68.901923 3.282771 68.953846 3.341223 69.005769 3.400200 69.057692 3.459697 69.109615 3.519710 69.161538 3.580234 69.213462 3.641263 69.265385 3.702793 69.317308 3.764820 69.369231 3.827337 69.421154 3.890341 69.473077 3.953825 69.525000 4.017787 69.576923 4.082219 69.628846 4.147119 69.680769 4.212480 69.732692 4.278298 69.784615 4.344568 69.836538 4.411285 69.888462 4.478444 69.940385 4.546041 69.992308 4.614070 70.044231 4.682526 70.096154 4.751405 70.148077 4.820702 70.200000 4.890411 70.251923 4.960529 70.303846 5.031049 70.355769 5.101968 70.407692 5.173280 70.459615 5.244980 70.511538 5.317064 70.563462 5.389527 70.615385 5.462363 70.667308 5.535568 70.719231 5.609136 70.771154 5.683064 70.823077 5.757346 70.875000 5.831977 70.926923 5.906953 70.978846 5.982268 71.030769 6.057918 71.082692 6.133897 71.134615 6.210201 71.186538 6.286825 71.238462 6.363764 71.290385 6.441013 71.342308 6.518567 71.394231 6.596422 71.446154 6.674572 71.498077 6.753013 71.550000 6.831739 71.601923 6.910746 71.653846 6.990029 71.705769 7.069583 71.757692 7.149403 71.809615 7.229484 71.861538 7.309822 71.913462 7.390411 71.965385 7.471246 72.017308 7.552323 72.069231 7.633637 72.121154 7.715183 72.173077 7.796956 72.225000 7.878951 72.276923 7.961163 72.328846 8.043587 72.380769 8.126218 72.432692 8.209053 72.484615 8.292084 72.536538 8.375309 72.588462 8.458721 72.640385 8.542316 72.692308 8.626090 72.744231 8.710036 72.796154 8.794151 72.848077 8.878429 72.900000 8.962866 72.951923 9.047456 73.003846 9.132195 73.055769 9.217078 73.107692 9.302099 73.159615 9.387255 73.211538 9.472540 73.263462 9.557949 73.315385 9.643477 73.367308 9.729120 73.419231 9.814873 73.471154 9.900730 73.523077 9.986687 73.575000 10.072739 73.626923 10.158881 73.678846 10.245108 73.730769 10.331415 73.782692 10.417798 73.834615 10.504251 73.886538 10.590769 73.938462 10.677349 73.990385 10.763984 74.042308 10.850670 74.094231 10.937401 74.146154 11.024174 74.198077 11.110984 74.250000 11.197824 74.301923 11.284691 74.353846 11.371580 74.405769 11.458485 74.457692 11.545402 74.509615 11.632325 74.561538 11.719251 74.613462 11.806174 74.665385 11.893089 74.717308 11.979991 74.769231 12.066876 74.821154 12.153738 74.873077 12.240573 74.925000 12.327376 74.976923 12.414141 75.028846 12.500864 75.080769 12.587541 75.132692 12.674165 75.184615 12.760733 75.236538 12.847240 75.288462 12.933679 75.340385 13.020048 75.392308 13.106340 75.444231 13.192551 75.496154 13.278675 75.548077 13.364709 75.600000 13.450647 75.651923 13.536485 75.703846 13.622216 75.755769 13.707837 75.807692 13.793343 75.859615 13.878728 75.911538 13.963989 75.963462 14.049119 76.015385 14.134114 76.067308 14.218969 76.119231 14.303679 76.171154 14.388240 76.223077 14.472647 76.275000 14.556893 76.326923 14.640976 76.378846 14.724889 76.430769 14.808628 76.482692 14.892189 76.534615 14.975565 76.586538 15.058752 76.638462 15.141746 76.690385 15.224541 76.742308 15.307133 76.794231 15.389517 76.846154 15.471687 76.898077 15.553639 76.950000 15.635368 77.001923 15.716869 77.053846 15.798137 77.105769 15.879168 77.157692 15.959956 77.209615 16.040497 77.261538 16.120785 77.313462 16.200816 77.365385 16.280585 77.417308 16.360086 77.469231 16.439316 77.521154 16.518269 77.573077 16.596941 77.625000 16.675325 77.676923 16.753418 77.728846 16.831215 77.780769 16.908711 77.832692 16.985900 77.884615 17.062778 77.936538 17.139341 77.988462 17.215582 78.040385 17.291498 78.092308 17.367083 78.144231 17.442333 78.196154 17.517242 78.248077 17.591806 78.300000 17.666019 78.351923 17.739878 78.403846 17.813376 78.455769 17.886510 78.507692 17.959274 78.559615 18.031664 78.611538 18.103673 78.663462 18.175299 78.715385 18.246535 78.767308 18.317377 78.819231 18.387819 78.871154 18.457858 78.923077 18.527488 78.975000 18.596704 79.026923 18.665502 79.078846 18.733875 79.130769 18.801821 79.182692 18.869333 79.234615 18.936407 79.286538 19.003037 79.338462 19.069220 79.390385 19.134950 79.442308 19.200222 79.494231 19.265031 79.546154 19.329373 79.598077 19.393242 79.650000 19.456634 79.701923 19.519544 79.753846 19.581966 79.805769 19.643897 79.857692 19.705330 79.909615 19.766262 79.961538 19.826687 80.013462 19.886601 80.065385 19.946006 80.117308 20.004904 80.169231 20.063297 80.221154 20.121186 80.273077 20.178574 80.325000 20.235464 80.376923 20.291856 80.428846 20.347754 80.480769 20.403160 80.532692 20.458075 80.584615 20.512502 80.636538 20.566442 80.688462 20.619899 80.740385 20.672874 80.792308 20.725369 80.844231 20.777386 80.896154 20.828927 80.948077 20.879995 81.000000 20.930592 81.051923 20.980720 81.103846 21.030380 81.155769 21.079575 81.207692 21.128308 81.259615 21.176580 81.311538 21.224393 81.363462 21.271750 81.415385 21.318652 81.467308 21.365102 81.519231 21.411102 81.571154 21.456654 81.623077 21.501760 81.675000 21.546422 81.726923 21.590642 81.778846 21.634423 81.830769 21.677767 81.882692 21.720675 81.934615 21.763150 81.986538 21.805194 82.038462 21.846809 82.090385 21.887997 82.142308 21.928760 82.194231 21.969101 82.246154 22.009021 82.298077 22.048523 82.350000 22.087609 82.401923 22.126280 82.453846 22.164540 82.505769 22.202390 82.557692 22.239831 82.609615 22.276868 82.661538 22.313500 82.713462 22.349732 82.765385 22.385564 82.817308 22.420998 82.869231 22.456038 82.921154 22.490685 82.973077 22.524941 83.025000 22.558808 83.076923 22.592289 83.128846 22.625385 83.180769 22.658099 83.232692 22.690433 83.284615 22.722388 83.336538 22.753968 83.388462 22.785174 83.440385 22.816008 83.492308 22.846472 83.544231 22.876569 83.596154 22.906300 83.648077 22.935668 83.700000 22.964675 83.751923 22.993323 83.803846 23.021615 83.855769 23.049551 83.907692 23.077134 83.959615 23.104367 84.011538 23.131252 84.063462 23.157790 84.115385 23.183984 84.167308 23.209836 84.219231 23.235348 84.271154 23.260523 84.323077 23.285361 84.375000 23.309866 84.426923 23.334039 84.478846 23.357883 84.530769 23.381400 84.582692 23.404592 84.634615 23.427460 84.686538 23.450008 84.738462 23.472237 84.790385 23.494149 84.842308 23.515747 84.894231 23.537032 84.946154 23.558007 84.998077 23.578674 85.050000 23.599035 85.101923 23.619092 85.153846 23.638847 85.205769 23.658302 85.257692 23.677460 85.309615 23.696322 85.361538 23.714891 85.413462 23.733169 85.465385 23.751157 85.517308 23.768859 85.569231 23.786276 85.621154 23.803410 85.673077 23.820263 85.725000 23.836838 85.776923 23.853136 85.828846 23.869161 85.880769 23.884913 85.932692 23.900395 85.984615 23.915609 86.036538 23.930557 86.088462 23.945242 86.140385 23.959665 86.192308 23.973828 86.244231 23.987734 86.296154 24.001386 86.348077 24.014784 86.400000 24.027931 86.451923 24.040829 86.503846 24.053480 86.555769 24.065887 86.607692 24.078051 86.659615 24.089975 86.711538 24.101661 86.763462 24.113111 86.815385 24.124326 86.867308 24.135310 86.919231 24.146064 86.971154 24.156590 87.023077 24.166891 87.075000 24.176968 87.126923 24.186824 87.178846 24.196461 87.230769 24.205880 87.282692 24.215085 87.334615 24.224077 87.386538 24.232858 87.438462 24.241431 87.490385 24.249797 87.542308 24.257959 87.594231 24.265919 87.646154 24.273678 87.698077 24.281240 87.750000 24.288605 87.801923 24.295777 87.853846 24.302758 87.905769 24.309548 87.957692 24.316152 88.009615 24.322570 88.061538 24.328805 88.113462 24.334859 88.165385 24.340734 88.217308 24.346432 88.269231 24.351955 88.321154 24.357306 88.373077 24.362487 88.425000 24.367499 88.476923 24.372345 88.528846 24.377026 88.580769 24.381546 88.632692 24.385906 88.684615 24.390109 88.736538 24.394155 88.788462 24.398048 88.840385 24.401790 88.892308 24.405383 88.944231 24.408828 88.996154 24.412129 89.048077 24.415286 89.100000 24.418303 89.151923 24.421181 89.203846 24.423922 89.255769 24.426530 89.307692 24.429004 89.359615 24.431349 89.411538 24.433566 89.463462 24.435656 89.515385 24.437623 89.567308 24.439468 89.619231 24.441193 89.671154 24.442801 89.723077 24.444294 89.775000 24.445674 89.826923 24.446942 89.878846 24.448101 89.930769 24.449154 89.982692 24.450101 90.034615 24.450946 90.086538 24.451691 90.138462 24.452337 90.190385 24.452887 90.242308 24.453343 90.294231 24.453706 90.346154 24.453980 90.398077 24.454166 90.450000 24.454266 90.501923 24.454283 90.553846 24.454218 90.605769 24.454074 90.657692 24.453853 90.709615 24.453556 90.761538 24.453187 90.813462 24.452746 90.865385 24.452238 90.917308 24.451662 90.969231 24.451022 91.021154 24.450319 91.073077 24.449557 91.125000 24.448736 91.176923 24.447859 91.228846 24.446928 91.280769 24.445946 91.332692 24.444913 91.384615 24.443834 91.436538 24.442708 91.488462 24.441540 91.540385 24.440330 91.592308 24.439082 91.644231 24.437796 91.696154 24.436475 91.748077 24.435122 91.800000 24.433738 91.851923 24.432326 91.903846 24.430887 91.955769 24.429424 92.007692 24.427939 92.059615 24.426434 92.111538 24.424911 92.163462 24.423373 92.215385 24.421821 92.267308 24.420257 92.319231 24.418684 92.371154 24.417103 92.423077 24.415517 92.475000 24.413929 92.526923 24.412339 92.578846 24.410751 92.630769 24.409165 92.682692 24.407586 92.734615 24.406014 92.786538 24.404451 92.838462 24.402900 92.890385 24.401364 92.942308 24.399843 92.994231 24.398340 93.046154 24.396855 93.098077 24.395388 93.150000 24.393939 93.201923 24.392508 93.253846 24.391095 93.305769 24.389699 93.357692 24.388321 93.409615 24.386961 93.461538 24.385618 93.513462 24.384292 93.565385 24.382984 93.617308 24.381693 93.669231 24.380419 93.721154 24.379163 93.773077 24.377923 93.825000 24.376701 93.876923 24.375495 93.928846 24.374306 93.980769 24.373134 94.032692 24.371979 94.084615 24.370840 94.136538 24.369718 94.188462 24.368612 94.240385 24.367523 94.292308 24.366450 94.344231 24.365393 94.396154 24.364353 94.448077 24.363329 94.500000 24.362320 94.551923 24.361328 94.603846 24.360351 94.655769 24.359391 94.707692 24.358446 94.759615 24.357516 94.811538 24.356603 94.863462 24.355705 94.915385 24.354822 94.967308 24.353955 95.019231 24.353103 95.071154 24.352266 95.123077 24.351445 95.175000 24.350638 95.226923 24.349847 95.278846 24.349070 95.330769 24.348309 95.382692 24.347562 95.434615 24.346830 95.486538 24.346112 95.538462 24.345410 95.590385 24.344721 95.642308 24.344047 95.694231 24.343388 95.746154 24.342743 95.798077 24.342112 95.850000 24.341495 95.901923 24.340892 95.953846 24.340304 96.005769 24.339729 96.057692 24.339168 96.109615 24.338621 96.161538 24.338087 96.213462 24.337568 96.265385 24.337061 96.317308 24.336569 96.369231 24.336089 96.421154 24.335624 96.473077 24.335171 96.525000 24.334731 96.576923 24.334305 96.628846 24.333892 96.680769 24.333492 96.732692 24.333104 96.784615 24.332730 96.836538 24.332368 96.888462 24.332019 96.940385 24.331683 96.992308 24.331359 97.044231 24.331048 97.096154 24.330749 97.148077 24.330462 97.200000 24.330188 97.251923 24.329926 97.303846 24.329676 97.355769 24.329438 97.407692 24.329212 97.459615 24.328998 97.511538 24.328796 97.563462 24.328605 97.615385 24.328426 97.667308 24.328259 97.719231 24.328104 97.771154 24.327959 97.823077 24.327827 97.875000 24.327705 97.926923 24.327595 97.978846 24.327496 98.030769 24.327408 98.082692 24.327331 98.134615 24.327265 98.186538 24.327210 98.238462 24.327166 98.290385 24.327132 98.342308 24.327110 98.394231 24.327097 98.446154 24.327096 98.498077 24.327104 98.550000 24.327123 98.601923 24.327153 98.653846 24.327193 98.705769 24.327242 98.757692 24.327302 98.809615 24.327372 98.861538 24.327452 98.913462 24.327542 98.965385 24.327641 99.017308 24.327751 99.069231 24.327870 99.121154 24.327998 99.173077 24.328136 99.225000 24.328283 99.276923 24.328440 99.328846 24.328606 99.380769 24.328782 99.432692 24.328966 99.484615 24.329160 99.536538 24.329362 99.588462 24.329574 99.640385 24.329794 99.692308 24.330023 99.744231 24.330261 99.796154 24.330507 99.848077 24.330762 99.900000 24.331026 99.951923 24.331298 100.003846 24.331578 100.055769 24.331867 100.107692 24.332163 100.159615 24.332468 100.211538 24.332781 100.263462 24.333102 100.315385 24.333431 100.367308 24.333767 100.419231 24.334112 100.471154 24.334464 100.523077 24.334824 100.575000 24.335191 100.626923 24.335566 100.678846 24.335948 100.730769 24.336337 100.782692 24.336734 100.834615 24.337138 100.886538 24.337549 100.938462 24.337967 100.990385 24.338392 101.042308 24.338824 101.094231 24.339263 101.146154 24.339708 101.198077 24.340161 101.250000 24.340619 101.301923 24.341085 101.353846 24.341557 101.405769 24.342035 101.457692 24.342519 101.509615 24.343010 101.561538 24.343507 101.613462 24.344010 101.665385 24.344519 101.717308 24.345034 101.769231 24.345555 101.821154 24.346081 101.873077 24.346614 101.925000 24.347152 101.976923 24.347695 102.028846 24.348245 102.080769 24.348799 102.132692 24.349359 102.184615 24.349924 102.236538 24.350495 102.288462 24.351071 102.340385 24.351651 102.392308 24.352237 102.444231 24.352828 102.496154 24.353423 102.548077 24.354024 102.600000 24.354629 102.651923 24.355238 102.703846 24.355853 102.755769 24.356471 102.807692 24.357095 102.859615 24.357722 102.911538 24.358354 102.963462 24.358990 103.015385 24.359630 103.067308 24.360274 103.119231 24.360923 103.171154 24.361575 103.223077 24.362231 103.275000 24.362891 103.326923 24.363554 103.378846 24.364221 103.430769 24.364892 103.482692 24.365566 103.534615 24.366243 103.586538 24.366924 103.638462 24.367609 103.690385 24.368296 103.742308 24.368986 103.794231 24.369680 103.846154 24.370376 103.898077 24.371076 103.950000 24.371778 104.001923 24.372483 104.053846 24.373191 104.105769 24.373901 104.157692 24.374614 104.209615 24.375329 104.261538 24.376047 104.313462 24.376767 104.365385 24.377489 104.417308 24.378213 104.469231 24.378940 104.521154 24.379669 104.573077 24.380399 104.625000 24.381131 104.676923 24.381866 104.728846 24.382602 104.780769 24.383339 104.832692 24.384079 104.884615 24.384819 104.936538 24.385562 104.988462 24.386305 105.040385 24.387050 105.092308 24.387796 105.144231 24.388543 105.196154 24.389292 105.248077 24.390041 105.300000 24.390792 105.351923 24.391543 105.403846 24.392295 105.455769 24.393048 105.507692 24.393801 105.559615 24.394555 105.611538 24.395309 105.663462 24.396064 105.715385 24.396820 105.767308 24.397575 105.819231 24.398331 105.871154 24.399087 105.923077 24.399843" class="line reactive nofill" /></g></g><g class="titles" /><g transform="translate(82, 10)" class="plot overlay"><g class="series serie-0 color-0" /></g><g transform="translate(82, 10)" class="plot text-overlay"><g class="series serie-0 color-0" /></g><g transform="translate(82, 10)" class="plot tooltip-overlay"><g transform="translate(0 0)" style="opacity: 0" class="tooltip"><rect rx="0" ry="0" width="0" height="0" class="tooltip-box" /><g class="text" /></g></g></g></svg>