<?xml version='1.0' encoding='utf-8'?>
<svg xmlns="http://www.w3.org/2000/svg" id="chart-52ffe300-cf2d-45b4-b7cd-66882280253f" class="pygal-chart pygal-sparkline" viewBox="0 0 200 50" width="200" height="50"><!--Generated with pygal 3.0.4 (etree) ©Kozea 2012-2016 on 2024-05-12--><!--http://pygal.org--><!--http://github.com/Kozea/pygal--><defs><style type="text/css">#chart-52ffe300-cf2d-45b4-b7cd-66882280253f{-webkit-user-select:none;-webkit-font-smoothing:antialiased;font-family:Consolas,"Liberation Mono",Menlo,Courier,monospace}#chart-52ffe300-cf2d-45b4-b7cd-66882280253f .title{font-family:Consolas,"Liberation Mono",Menlo,Courier,monospace;font-size:16px}#chart-52ffe300-cf2d-45b4-b7cd-66882280253f .legends .legend text{font-family:Consolas,"Liberation Mono",Menlo,Courier,monospace;font-size:14px}#chart-52ffe300-cf2d-45b4-b7cd-66882280253f .axis text{font-family:Consolas,"Liberation Mono",Menlo,Courier,monospace;font-size:10px}#chart-52ffe300-cf2d-45b4-b7cd-66882280253f .axis text.major{font-family:Consolas,"Liberation Mono",Menlo,Courier,monospace;font-size:10px}#chart-52ffe300-cf2d-45b4-b7cd-66882280253f .text-overlay text.value{font-family:Consolas,"Liberation Mono",Menlo,Courier,monospace;font-size:16px}#chart-52ffe300-cf2d-45b4-b7cd-66882280253f .text-overlay text.label{font-family:Consolas,"Liberation Mono",Menlo,Courier,monospace;font-size:10px}#chart-52ffe300-cf2d-45b4-b7cd-66882280253f .tooltip{font-family:Consolas,"Liberation Mono",Menlo,Courier,monospace;font-size:14px}#chart-52ffe300-cf2d-45b4-b7cd-66882280253f text.no_data{font-family:Consolas,"Liberation Mono",Menlo,Courier,monospace;font-size:64px}
#chart-52ffe300-cf2d-45b4-b7cd-66882280253f{background-color:rgba(249,249,249,1)}#chart-52ffe300-cf2d-45b4-b7cd-66882280253f path,#chart-52ffe300-cf2d-45b4-b7cd-66882280253f line,#chart-52ffe300-cf2d-45b4-b7cd-66882280253f rect,#chart-52ffe300-cf2d-45b4-b7cd-66882280253f circle{-webkit-transition:150ms;-moz-transition:150ms;transition:150ms}#chart-52ffe300-cf2d-45b4-b7cd-66882280253f .graph &gt; .background{fill:rgba(249,249,249,1)}#chart-52ffe300-cf2d-45b4-b7cd-66882280253f .plot &gt; .background{fill:rgba(255,255,255,1)}#chart-52ffe300-cf2d-45b4-b7cd-66882280253f .graph{fill:rgba(0,0,0,.87)}#chart-52ffe300-cf2d-45b4-b7cd-66882280253f text.no_data{fill:rgba(0,0,0,1)}#chart-52ffe300-cf2d-45b4-b7cd-66882280253f .title{fill:rgba(0,0,0,1)}#chart-52ffe300-cf2d-45b4-b7cd-66882280253f .legends .legend text{fill:rgba(0,0,0,.87)}#chart-52ffe300-cf2d-45b4-b7cd-66882280253f .legends .legend:hover text{fill:rgba(0,0,0,1)}#chart-52ffe300-cf2d-45b4-b7cd-66882280253f .axis .line{stroke:rgba(0,0,0,1)}#chart-52ffe300-cf2d-45b4-b7cd-66882280253f .axis .guide.line{stroke:rgba(0,0,0,.54)}#chart-52ffe300-cf2d-45b4-b7cd-66882280253f .axis .major.line{stroke:rgba(0,0,0,.87)}#chart-52ffe300-cf2d-45b4-b7cd-66882280253f .axis text.major{fill:rgba(0,0,0,1)}#chart-52ffe300-cf2d-45b4-b7cd-66882280253f .axis.y .guides:hover .guide.line,#chart-52ffe300-cf2d-45b4-b7cd-66882280253f .line-graph .axis.x .guides:hover .guide.line,#chart-52ffe300-cf2d-45b4-b7cd-66882280253f .stackedline-graph .axis.x .guides:hover .guide.line,#chart-52ffe300-cf2d-45b4-b7cd-66882280253f .xy-graph .axis.x .guides:hover .guide.line{stroke:rgba(0,0,0,1)}#chart-52ffe300-cf2d-45b4-b7cd-66882280253f .axis .guides:hover text{fill:rgba(0,0,0,1)}#chart-52ffe300-cf2d-45b4-b7cd-66882280253f .reactive{fill-opacity:.7;stroke-opacity:.8;stroke-width:1}#chart-52ffe300-cf2d-45b4-b7cd-66882280253f .ci{stroke:rgba(0,0,0,.87)}#chart-52ffe300-cf2d-45b4-b7cd-66882280253f .reactive.active,#chart-52ffe300-cf2d-45b4-b7cd-66882280253f .active .reactive{fill-opacity:.8;stroke-opacity:.9;stroke-width:4}#chart-52ffe300-cf2d-45b4-b7cd-66882280253f .ci .reactive.active{stroke-width:1.5}#chart-52ffe300-cf2d-45b4-b7cd-66882280253f .series text{fill:rgba(0,0,0,1)}#chart-52ffe300-cf2d-45b4-b7cd-66882280253f .tooltip rect{fill:rgba(255,255,255,1);stroke:rgba(0,0,0,1);-webkit-transition:opacity 150ms;-moz-transition:opacity 150ms;transition:opacity 150ms}#chart-52ffe300-cf2d-45b4-b7cd-66882280253f .tooltip .label{fill:rgba(0,0,0,.87)}#chart-52ffe300-cf2d-45b4-b7cd-66882280253f .tooltip .label{fill:rgba(0,0,0,.87)}#chart-52ffe300-cf2d-45b4-b7cd-66882280253f .tooltip .legend{font-size:.8em;fill:rgba(0,0,0,.54)}#chart-52ffe300-cf2d-45b4-b7cd-66882280253f .tooltip .x_label{font-size:.6em;fill:rgba(0,0,0,1)}#chart-52ffe300-cf2d-45b4-b7cd-66882280253f .tooltip .xlink{font-size:.5em;text-decoration:underline}#chart-52ffe300-cf2d-45b4-b7cd-66882280253f .tooltip .value{font-size:1.5em}#chart-52ffe300-cf2d-45b4-b7cd-66882280253f .bound{font-size:.5em}#chart-52ffe300-cf2d-45b4-b7cd-66882280253f .max-value{font-size:.75em;fill:rgba(0,0,0,.54)}#chart-52ffe300-cf2d-45b4-b7cd-66882280253f .map-element{fill:rgba(255,255,255,1);stroke:rgba(0,0,0,.54) !important}#chart-52ffe300-cf2d-45b4-b7cd-66882280253f .map-element .reactive{fill-opacity:inherit;stroke-opacity:inherit}#chart-52ffe300-cf2d-45b4-b7cd-66882280253f .color-0,#chart-52ffe300-cf2d-45b4-b7cd-66882280253f .color-0 a:visited{stroke:#F44336;fill:#F44336}#chart-52ffe300-cf2d-45b4-b7cd-66882280253f .text-overlay .color-0 text{fill:black}
#chart-52ffe300-cf2d-45b4-b7cd-66882280253f text.no_data{text-anchor:middle}#chart-52ffe300-cf2d-45b4-b7cd-66882280253f .guide.line{fill:none}#chart-52ffe300-cf2d-45b4-b7cd-66882280253f .centered{text-anchor:middle}#chart-52ffe300-cf2d-45b4-b7cd-66882280253f .title{text-anchor:middle}#chart-52ffe300-cf2d-45b4-b7cd-66882280253f .legends .legend text{fill-opacity:1}#chart-52ffe300-cf2d-45b4-b7cd-66882280253f .axis.x text{text-anchor:middle}#chart-52ffe300-cf2d-45b4-b7cd-66882280253f .axis.x:not(.web) text[transform]{text-anchor:start}#chart-52ffe300-cf2d-45b4-b7cd-66882280253f .axis.x:not(.web) text[transform].backwards{text-anchor:end}#chart-52ffe300-cf2d-45b4-b7cd-66882280253f .axis.y text{text-anchor:end}#chart-52ffe300-cf2d-45b4-b7cd-66882280253f .axis.y text[transform].backwards{text-anchor:start}#chart-52ffe300-cf2d-45b4-b7cd-66882280253f .axis.y2 text{text-anchor:start}#chart-52ffe300-cf2d-45b4-b7cd-66882280253f .axis.y2 text[transform].backwards{text-anchor:end}#chart-52ffe300-cf2d-45b4-b7cd-66882280253f .axis .guide.line{stroke-dasharray:4,4;stroke:black}#chart-52ffe300-cf2d-45b4-b7cd-66882280253f .axis .major.guide.line{stroke-dasharray:6,6;stroke:black}#chart-52ffe300-cf2d-45b4-b7cd-66882280253f .horizontal .axis.y .guide.line,#chart-52ffe300-cf2d-45b4-b7cd-66882280253f .horizontal .axis.y2 .guide.line,#chart-52ffe300-cf2d-45b4-b7cd-66882280253f .vertical .axis.x .guide.line{opacity:0}#chart-52ffe300-cf2d-45b4-b7cd-66882280253f .horizontal .axis.always_show .guide.line,#chart-52ffe300-cf2d-45b4-b7cd-66882280253f .vertical .axis.always_show .guide.line{opacity:1 !important}#chart-52ffe300-cf2d-45b4-b7cd-66882280253f .axis.y .guides:hover .guide.line,#chart-52ffe300-cf2d-45b4-b7cd-66882280253f .axis.y2 .guides:hover .guide.line,#chart-52ffe300-cf2d-45b4-b7cd-66882280253f .axis.x .guides:hover .guide.line{opacity:1}#chart-52ffe300-cf2d-45b4-b7cd-66882280253f .axis .guides:hover text{opacity:1}#chart-52ffe300-cf2d-45b4-b7cd-66882280253f .nofill{fill:none}#chart-52ffe300-cf2d-45b4-b7cd-66882280253f .subtle-fill{fill-opacity:.2}#chart-52ffe300-cf2d-45b4-b7cd-66882280253f .dot{stroke-width:1px;fill-opacity:1;stroke-opacity:1}#chart-52ffe300-cf2d-45b4-b7cd-66882280253f .dot.active{stroke-width:5px}#chart-52ffe300-cf2d-45b4-b7cd-66882280253f .dot.negative{fill:transparent}#chart-52ffe300-cf2d-45b4-b7cd-66882280253f text,#chart-52ffe300-cf2d-45b4-b7cd-66882280253f tspan{stroke:none !important}#chart-52ffe300-cf2d-45b4-b7cd-66882280253f .series text.active{opacity:1}#chart-52ffe300-cf2d-45b4-b7cd-66882280253f .tooltip rect{fill-opacity:.95;stroke-width:.5}#chart-52ffe300-cf2d-45b4-b7cd-66882280253f .tooltip text{fill-opacity:1}#chart-52ffe300-cf2d-45b4-b7cd-66882280253f .showable{visibility:hidden}#chart-52ffe300-cf2d-45b4-b7cd-66882280253f .showable.shown{visibility:visible}#chart-52ffe300-cf2d-45b4-b7cd-66882280253f .gauge-background{fill:rgba(229,229,229,1);stroke:none}#chart-52ffe300-cf2d-45b4-b7cd-66882280253f .bg-lines{stroke:rgba(249,249,249,1);stroke-width:2px}</style><script type="text/javascript">window.pygal = window.pygal || {};window.pygal.config = window.pygal.config || {};window.pygal.config['52ffe300-cf2d-45b4-b7cd-66882280253f'] = {"allow_interruptions": false, "box_mode": "extremes", "classes": ["pygal-chart", "pygal-sparkline"], "css": ["file://style.css", "file://graph.css"], "defs": [], "disable_xml_declaration": false, "dots_size": 2.5, "dynamic_print_values": false, "explicit_size": true, "fill": false, "force_uri_protocol": "https", "formatter": null, "half_pie": false, "height": 50, "include_x_axis": false, "inner_radius": 0, "interpolate": "cubic", "interpolation_parameters": {}, "interpolation_precision": 250, "inverse_y_axis": false, "js": [], "legend_at_bottom": false, "legend_at_bottom_columns": null, "legend_box_size": 12, "logarithmic": false, "margin": 10, "margin_bottom": null, "margin_left": null, "margin_right": null, "margin_top": null, "max_scale": 2, "min_scale": 1, "missing_value_fill_truncation": "x", "no_data_text": "", "no_prefix": false, "order_min": null, "pretty_print": false, "print_labels": false, "print_values": false, "print_values_position": "center", "print_zeroes": true, "range": null, "rounded_bars": null, "secondary_range": null, "show_dots": false, "show_legend": false, "show_minor_x_labels": true, "show_minor_y_labels": true, "show_only_major_dots": false, "show_x_guides": false, "show_x_labels": false, "show_y_guides": true, "show_y_labels": true, "spacing": 0, "stack_from_top": false, "strict": false, "stroke": true, "stroke_style": null, "style": {"background": "rgba(249, 249, 249, 1)", "ci_colors": [], "colors": ["#F44336", "#3F51B5", "#009688", "#FFC107", "#FF5722", "#9C27B0", "#03A9F4", "#8BC34A", "#FF9800", "#E91E63", "#2196F3", "#4CAF50", "#FFEB3B", "#673AB7", "#00BCD4", "#CDDC39", "#9E9E9E", "#607D8B"], "dot_opacity": "1", "font_family": "Consolas, \"Liberation Mono\", Menlo, Courier, monospace", "foreground": "rgba(0, 0, 0, .87)", "foreground_strong": "rgba(0, 0, 0, 1)", "foreground_subtle": "rgba(0, 0, 0, .54)", "guide_stroke_color": "black", "guide_stroke_dasharray": "4,4", "label_font_family": "Consolas, \"Liberation Mono\", Menlo, Courier, monospace", "label_font_size": 10, "legend_font_family": "Consolas, \"Liberation Mono\", Menlo, Courier, monospace", "legend_font_size": 14, "major_guide_stroke_color": "black", "major_guide_stroke_dasharray": "6,6", "major_label_font_family": "Consolas, \"Liberation Mono\", Menlo, Courier, monospace", "major_label_font_size": 10, "no_data_font_family": "Consolas, \"Liberation Mono\", Menlo, Courier, monospace", "no_data_font_size": 64, "opacity": ".7", "opacity_hover": ".8", "plot_background": "rgba(255, 255, 255, 1)", "stroke_opacity": ".8", "stroke_opacity_hover": ".9", "stroke_width": "1", "stroke_width_hover": "4", "title_font_family": "Consolas, \"Liberation Mono\", Menlo, Courier, monospace", "title_font_size": 16, "tooltip_font_family": "Consolas, \"Liberation Mono\", Menlo, Courier, monospace", "tooltip_font_size": 14, "transition": "150ms", "value_background": "rgba(229, 229, 229, 1)", "value_colors": [], "value_font_family": "Consolas, \"Liberation Mono\", Menlo, Courier, monospace", "value_font_size": 16, "value_label_font_family": "Consolas, \"Liberation Mono\", Menlo, Courier, monospace", "value_label_font_size": 10}, "title": null, "tooltip_border_radius": 0, "tooltip_fancy_mode": true, "truncate_label": null, "truncate_legend": null, "width": 200, "x_label_rotation": 0, "x_labels": ["2024/4", "2024/3", "2023/11", "2023/9", "2023/8", "2023/6", "2023/5"], "x_labels_major": null, "x_labels_major_count": null, "x_labels_major_every": null, "x_title": null, "xrange": null, "y_label_rotation": 0, "y_labels": null, "y_labels_major": null, "y_labels_major_count": null, "y_labels_major_every": null, "y_title": null, "zero": 0, "legends": [""]}</script></defs><title>Pygal</title><g class="graph line-graph vertical"><rect x="0" y="0" width="200" height="50" class="background" /><g transform="translate(20, 10)" class="plot"><rect x="0" y="0" width="170" height="30" class="background" /><g class="axis y always_show"><g class="guides"><path d="M0.000000 28.333152 h170.000000" class="axis line" /><text x="-5" y="31.83315157243013" class="">0</text><title>0</title></g><g class="guides"><path d="M0.000000 12.656514 h170.000000" class="guide line" /><text x="-5" y="16.156513917328468" class="">8</text><title>8</title></g></g><g class="series serie-0 color-0"><path d="M3.269231 22.454412 L3.378205 22.310349 3.487179 22.166291 3.596154 22.022245 3.705128 21.878215 3.814103 21.734207 3.923077 21.590227 4.032051 21.446280 4.141026 21.302372 4.250000 21.158509 4.358974 21.014695 4.467949 20.870937 4.576923 20.727240 4.685897 20.583610 4.794872 20.440052 4.903846 20.296572 5.012821 20.153175 5.121795 20.009867 5.230769 19.866653 5.339744 19.723539 5.448718 19.580531 5.557692 19.437633 5.666667 19.294853 5.775641 19.152194 5.884615 19.009664 5.993590 18.867266 6.102564 18.725007 6.211538 18.582893 6.320513 18.440929 6.429487 18.299120 6.538462 18.157472 6.647436 18.015991 6.756410 17.874682 6.865385 17.733550 6.974359 17.592602 7.083333 17.451843 7.192308 17.311278 7.301282 17.170913 7.410256 17.030753 7.519231 16.890804 7.628205 16.751072 7.737179 16.611562 7.846154 16.472280 7.955128 16.333231 8.064103 16.194421 8.173077 16.055855 8.282051 15.917539 8.391026 15.779478 8.500000 15.641678 8.608974 15.504145 8.717949 15.366884 8.826923 15.229901 8.935897 15.093200 9.044872 14.956789 9.153846 14.820672 9.262821 14.684854 9.371795 14.549343 9.480769 14.414142 9.589744 14.279257 9.698718 14.144695 9.807692 14.010460 9.916667 13.876559 10.025641 13.742996 10.134615 13.609777 10.243590 13.476909 10.352564 13.344395 10.461538 13.212243 10.570513 13.080457 10.679487 12.949043 10.788462 12.818007 10.897436 12.687354 11.006410 12.557090 11.115385 12.427219 11.224359 12.297749 11.333333 12.168684 11.442308 12.040030 11.551282 11.911793 11.660256 11.783977 11.769231 11.656589 11.878205 11.529634 11.987179 11.403118 12.096154 11.277046 12.205128 11.151424 12.314103 11.026257 12.423077 10.901551 12.532051 10.777312 12.641026 10.653544 12.750000 10.530254 12.858974 10.407447 12.967949 10.285129 13.076923 10.163305 13.185897 10.041981 13.294872 9.921162 13.403846 9.800854 13.512821 9.681063 13.621795 9.561793 13.730769 9.443051 13.839744 9.324842 13.948718 9.207171 14.057692 9.090045 14.166667 8.973469 14.275641 8.857448 14.384615 8.741987 14.493590 8.627093 14.602564 8.512771 14.711538 8.399027 14.820513 8.285865 14.929487 8.173293 15.038462 8.061314 15.147436 7.949935 15.256410 7.839161 15.365385 7.728998 15.474359 7.619452 15.583333 7.510527 15.692308 7.402230 15.801282 7.294566 15.910256 7.187541 16.019231 7.081159 16.128205 6.975428 16.237179 6.870351 16.346154 6.765936 16.455128 6.662187 16.564103 6.559109 16.673077 6.456709 16.782051 6.354992 16.891026 6.253964 17.000000 6.153630 17.108974 6.053995 17.217949 5.955066 17.326923 5.856847 17.435897 5.759345 17.544872 5.662565 17.653846 5.566512 17.762821 5.471192 17.871795 5.376611 17.980769 5.282773 18.089744 5.189686 18.198718 5.097353 18.307692 5.005781 18.416667 4.914976 18.525641 4.824942 18.634615 4.735686 18.743590 4.647213 18.852564 4.559528 18.961538 4.472638 19.070513 4.386547 19.179487 4.301261 19.288462 4.216786 19.397436 4.133127 19.506410 4.050290 19.615385 3.968280 19.724359 3.887103 19.833333 3.806765 19.942308 3.727271 20.051282 3.648627 20.160256 3.570837 20.269231 3.493908 20.378205 3.417846 20.487179 3.342655 20.596154 3.268342 20.705128 3.194912 20.814103 3.122370 20.923077 3.050722 21.032051 2.979973 21.141026 2.910130 21.250000 2.841198 21.358974 2.773181 21.467949 2.706087 21.576923 2.639920 21.685897 2.574685 21.794872 2.510390 21.903846 2.447038 22.012821 2.384635 22.121795 2.323188 22.230769 2.262702 22.339744 2.203181 22.448718 2.144633 22.557692 2.087061 22.666667 2.030473 22.775641 1.974873 22.884615 1.920267 22.993590 1.866660 23.102564 1.814059 23.211538 1.762468 23.320513 1.711893 23.429487 1.662341 23.538462 1.613815 23.647436 1.566322 23.756410 1.519868 23.865385 1.474457 23.974359 1.430096 24.083333 1.386791 24.192308 1.344545 24.301282 1.303366 24.410256 1.263259 24.519231 1.224229 24.628205 1.186281 24.737179 1.149422 24.846154 1.113657 24.955128 1.078992 25.064103 1.045431 25.173077 1.012981 25.282051 0.981648 25.391026 0.951435 25.500000 0.922351 25.608974 0.894399 25.717949 0.867585 25.826923 0.841915 25.935897 0.817395 26.044872 0.794029 26.153846 0.771824 26.262821 0.750786 26.371795 0.730919 26.480769 0.712229 26.589744 0.694722 26.698718 0.678403 26.807692 0.663278 26.916667 0.649353 27.025641 0.636632 27.134615 0.625122 27.243590 0.614828 27.352564 0.605756 27.461538 0.597911 27.570513 0.591299 27.679487 0.585925 27.788462 0.581795 27.897436 0.578914 28.006410 0.577288 28.115385 0.576923 28.224359 0.577824 28.333333 0.579996 28.442308 0.583446 28.551282 0.588178 28.660256 0.594199 28.769231 0.601513 28.878205 0.610127 28.987179 0.620046 29.096154 0.631275 29.205128 0.643820 29.314103 0.657687 29.423077 0.672881 29.532051 0.689408 29.641026 0.707273 29.750000 0.726482 29.858974 0.747040 29.967949 0.768953 30.076923 0.792226 30.185897 0.816866 30.294872 0.842877 30.403846 0.870265 30.512821 0.899036 30.621795 0.929192 30.730769 0.960727 30.839744 0.993631 30.948718 1.027894 31.057692 1.063507 31.166667 1.100459 31.275641 1.138741 31.384615 1.178343 31.493590 1.219256 31.602564 1.261470 31.711538 1.304975 31.820513 1.349761 31.929487 1.395820 32.038462 1.443140 32.147436 1.491713 32.256410 1.541528 32.365385 1.592576 32.474359 1.644848 32.583333 1.698333 32.692308 1.753022 32.801282 1.808905 32.910256 1.865972 33.019231 1.924214 33.128205 1.983621 33.237179 2.044184 33.346154 2.105892 33.455128 2.168736 33.564103 2.232706 33.673077 2.297793 33.782051 2.363986 33.891026 2.431277 34.000000 2.499654 34.108974 2.569110 34.217949 2.639633 34.326923 2.711215 34.435897 2.783845 34.544872 2.857515 34.653846 2.932213 34.762821 3.007931 34.871795 3.084658 34.980769 3.162385 35.089744 3.241103 35.198718 3.320802 35.307692 3.401471 35.416667 3.483101 35.525641 3.565683 35.634615 3.649207 35.743590 3.733663 35.852564 3.819041 35.961538 3.905332 36.070513 3.992526 36.179487 4.080614 36.288462 4.169584 36.397436 4.259429 36.506410 4.350138 36.615385 4.441701 36.724359 4.534109 36.833333 4.627352 36.942308 4.721420 37.051282 4.816304 37.160256 4.911994 37.269231 5.008480 37.378205 5.105753 37.487179 5.203802 37.596154 5.302619 37.705128 5.402193 37.814103 5.502514 37.923077 5.603574 38.032051 5.705362 38.141026 5.807868 38.250000 5.911084 38.358974 6.014998 38.467949 6.119602 38.576923 6.224886 38.685897 6.330840 38.794872 6.437454 38.903846 6.544719 39.012821 6.652625 39.121795 6.761162 39.230769 6.870320 39.339744 6.980090 39.448718 7.090463 39.557692 7.201428 39.666667 7.312975 39.775641 7.425096 39.884615 7.537780 39.993590 7.651017 40.102564 7.764798 40.211538 7.879114 40.320513 7.993954 40.429487 8.109309 40.538462 8.225168 40.647436 8.341524 40.756410 8.458365 40.865385 8.575681 40.974359 8.693464 41.083333 8.811704 41.192308 8.930390 41.301282 9.049514 41.410256 9.169065 41.519231 9.289034 41.628205 9.409410 41.737179 9.530185 41.846154 9.651349 41.955128 9.772892 42.064103 9.894803 42.173077 10.017075 42.282051 10.139696 42.391026 10.262657 42.500000 10.385948 42.608974 10.509560 42.717949 10.633484 42.826923 10.757708 42.935897 10.882224 43.044872 11.007022 43.153846 11.132092 43.262821 11.257424 43.371795 11.383009 43.480769 11.508837 43.589744 11.634899 43.698718 11.761184 43.807692 11.887683 43.916667 12.014386 44.025641 12.141284 44.134615 12.268366 44.243590 12.395624 44.352564 12.523047 44.461538 12.650626 44.570513 12.778350 44.679487 12.906211 44.788462 13.034199 44.897436 13.162303 45.006410 13.290515 45.115385 13.418824 45.224359 13.547221 45.333333 13.675695 45.442308 13.804239 45.551282 13.932840 45.660256 14.061491 45.769231 14.190181 45.878205 14.318901 45.987179 14.447640 46.096154 14.576389 46.205128 14.705139 46.314103 14.833880 46.423077 14.962601 46.532051 15.091294 46.641026 15.219948 46.750000 15.348554 46.858974 15.477103 46.967949 15.605584 47.076923 15.733987 47.185897 15.862304 47.294872 15.990524 47.403846 16.118638 47.512821 16.246636 47.621795 16.374507 47.730769 16.502244 47.839744 16.629835 47.948718 16.757272 48.057692 16.884543 48.166667 17.011641 48.275641 17.138554 48.384615 17.265274 48.493590 17.391791 48.602564 17.518094 48.711538 17.644174 48.820513 17.770023 48.929487 17.895628 49.038462 18.020982 49.147436 18.146074 49.256410 18.270895 49.365385 18.395435 49.474359 18.519684 49.583333 18.643633 49.692308 18.767271 49.801282 18.890590 49.910256 19.013579 50.019231 19.136229 50.128205 19.258530 50.237179 19.380472 50.346154 19.502046 50.455128 19.623241 50.564103 19.744049 50.673077 19.864459 50.782051 19.984463 50.891026 20.104049 51.000000 20.223208 51.108974 20.341932 51.217949 20.460209 51.326923 20.578031 51.435897 20.695387 51.544872 20.812268 51.653846 20.928664 51.762821 21.044565 51.871795 21.159963 51.980769 21.274846 52.089744 21.389206 52.198718 21.503032 52.307692 21.616315 52.416667 21.729046 52.525641 21.841214 52.634615 21.952809 52.743590 22.063823 52.852564 22.174246 52.961538 22.284067 53.070513 22.393277 53.179487 22.501866 53.288462 22.609825 53.397436 22.717143 53.506410 22.823812 53.615385 22.929821 53.724359 23.035161 53.833333 23.139823 53.942308 23.243795 54.051282 23.347069 54.160256 23.449635 54.269231 23.551484 54.378205 23.652604 54.487179 23.752988 54.596154 23.852625 54.705128 23.951505 54.814103 24.049619 54.923077 24.146957 55.032051 24.243509 55.141026 24.339265 55.250000 24.434217 55.358974 24.528354 55.467949 24.621666 55.576923 24.714144 55.685897 24.805778 55.794872 24.896559 55.903846 24.986476 56.012821 25.075520 56.121795 25.163682 56.230769 25.250950 56.339744 25.337317 56.448718 25.422772 56.557692 25.507305 56.666667 25.590907 56.775641 25.673568 56.884615 25.755279 56.993590 25.836029 57.102564 25.915808 57.211538 25.994608 57.320513 26.072419 57.429487 26.149230 57.538462 26.225033 57.647436 26.299816 57.756410 26.373572 57.865385 26.446292 57.974359 26.517979 58.083333 26.588639 58.192308 26.658278 58.301282 26.726900 58.410256 26.794511 58.519231 26.861116 58.628205 26.926722 58.737179 26.991333 58.846154 27.054955 58.955128 27.117593 59.064103 27.179252 59.173077 27.239939 59.282051 27.299658 59.391026 27.358415 59.500000 27.416216 59.608974 27.473065 59.717949 27.528969 59.826923 27.583932 59.935897 27.637960 60.044872 27.691058 60.153846 27.743233 60.262821 27.794489 60.371795 27.844831 60.480769 27.894266 60.589744 27.942798 60.698718 27.990434 60.807692 28.037178 60.916667 28.083035 61.025641 28.128012 61.134615 28.172114 61.243590 28.215346 61.352564 28.257714 61.461538 28.299222 61.570513 28.339877 61.679487 28.379684 61.788462 28.418648 61.897436 28.456775 62.006410 28.494070 62.115385 28.530538 62.224359 28.566186 62.333333 28.601018 62.442308 28.635039 62.551282 28.668256 62.660256 28.700674 62.769231 28.732298 62.878205 28.763133 62.987179 28.793186 63.096154 28.822460 63.205128 28.850963 63.314103 28.878699 63.423077 28.905673 63.532051 28.931892 63.641026 28.957360 63.750000 28.982083 63.858974 29.006066 63.967949 29.029315 64.076923 29.051836 64.185897 29.073633 64.294872 29.094712 64.403846 29.115079 64.512821 29.134738 64.621795 29.153696 64.730769 29.171958 64.839744 29.189529 64.948718 29.206414 65.057692 29.222620 65.166667 29.238151 65.275641 29.253013 65.384615 29.267211 65.493590 29.280751 65.602564 29.293638 65.711538 29.305878 65.820513 29.317476 65.929487 29.328437 66.038462 29.338767 66.147436 29.348472 66.256410 29.357556 66.365385 29.366025 66.474359 29.373885 66.583333 29.381141 66.692308 29.387799 66.801282 29.393863 66.910256 29.399340 67.019231 29.404234 67.128205 29.408551 67.237179 29.412297 67.346154 29.415477 67.455128 29.418097 67.564103 29.420161 67.673077 29.421675 67.782051 29.422646 67.891026 29.423077 68.000000 29.422975 68.108974 29.422345 68.217949 29.421192 68.326923 29.419522 68.435897 29.417340 68.544872 29.414652 68.653846 29.411463 68.762821 29.407779 68.871795 29.403604 68.980769 29.398945 69.089744 29.393807 69.198718 29.388195 69.307692 29.382114 69.416667 29.375571 69.525641 29.368570 69.634615 29.361117 69.743590 29.353217 69.852564 29.344877 69.961538 29.336100 70.070513 29.326893 70.179487 29.317261 70.288462 29.307210 70.397436 29.296744 70.506410 29.285870 70.615385 29.274592 70.724359 29.262917 70.833333 29.250849 70.942308 29.238395 71.051282 29.225559 71.160256 29.212346 71.269231 29.198763 71.378205 29.184815 71.487179 29.170507 71.596154 29.155844 71.705128 29.140833 71.814103 29.125478 71.923077 29.109785 72.032051 29.093759 72.141026 29.077406 72.250000 29.060731 72.358974 29.043739 72.467949 29.026437 72.576923 29.008829 72.685897 28.990920 72.794872 28.972717 72.903846 28.954225 73.012821 28.935449 73.121795 28.916394 73.230769 28.897067 73.339744 28.877471 73.448718 28.857614 73.557692 28.837500 73.666667 28.817134 73.775641 28.796523 73.884615 28.775671 73.993590 28.754584 74.102564 28.733268 74.211538 28.711727 74.320513 28.689967 74.429487 28.667994 74.538462 28.645814 74.647436 28.623430 74.756410 28.600850 74.865385 28.578078 74.974359 28.555120 75.083333 28.531981 75.192308 28.508666 75.301282 28.485182 75.410256 28.461533 75.519231 28.437725 75.628205 28.413763 75.737179 28.389654 75.846154 28.365401 75.955128 28.341011 76.064103 28.316489 76.173077 28.291840 76.282051 28.267070 76.391026 28.242185 76.500000 28.217189 76.608974 28.192089 76.717949 28.166889 76.826923 28.141595 76.935897 28.116213 77.044872 28.090747 77.153846 28.065204 77.262821 28.039588 77.371795 28.013906 77.480769 27.988162 77.589744 27.962362 77.698718 27.936512 77.807692 27.910616 77.916667 27.884681 78.025641 27.858711 78.134615 27.832712 78.243590 27.806690 78.352564 27.780650 78.461538 27.754598 78.570513 27.728538 78.679487 27.702476 78.788462 27.676419 78.897436 27.650370 79.006410 27.624336 79.115385 27.598321 79.224359 27.572332 79.333333 27.546374 79.442308 27.520452 79.551282 27.494572 79.660256 27.468739 79.769231 27.442958 79.878205 27.417235 79.987179 27.391576 80.096154 27.365986 80.205128 27.340469 80.314103 27.315032 80.423077 27.289681 80.532051 27.264419 80.641026 27.239254 80.750000 27.214190 80.858974 27.189233 80.967949 27.164388 81.076923 27.139660 81.185897 27.115056 81.294872 27.090580 81.403846 27.066238 81.512821 27.042035 81.621795 27.017977 81.730769 26.994070 81.839744 26.970317 81.948718 26.946726 82.057692 26.923301 82.166667 26.900048 82.275641 26.876973 82.384615 26.854080 82.493590 26.831375 82.602564 26.808864 82.711538 26.786552 82.820513 26.764444 82.929487 26.742546 83.038462 26.720863 83.147436 26.699401 83.256410 26.678166 83.365385 26.657161 83.474359 26.636394 83.583333 26.615869 83.692308 26.595592 83.801282 26.575568 83.910256 26.555803 84.019231 26.536302 84.128205 26.517070 84.237179 26.498114 84.346154 26.479437 84.455128 26.461047 84.564103 26.442948 84.673077 26.425145 84.782051 26.407645 84.891026 26.390452 85.000000 26.373572 85.108974 26.357009 85.217949 26.340761 85.326923 26.324826 85.435897 26.309200 85.544872 26.293881 85.653846 26.278865 85.762821 26.264150 85.871795 26.249732 85.980769 26.235609 86.089744 26.221778 86.198718 26.208235 86.307692 26.194978 86.416667 26.182004 86.525641 26.169309 86.634615 26.156892 86.743590 26.144748 86.852564 26.132875 86.961538 26.121270 87.070513 26.109930 87.179487 26.098852 87.288462 26.088032 87.397436 26.077469 87.506410 26.067159 87.615385 26.057100 87.724359 26.047287 87.833333 26.037718 87.942308 26.028391 88.051282 26.019302 88.160256 26.010448 88.269231 26.001826 88.378205 25.993434 88.487179 25.985268 88.596154 25.977326 88.705128 25.969604 88.814103 25.962099 88.923077 25.954809 89.032051 25.947730 89.141026 25.940860 89.250000 25.934196 89.358974 25.927734 89.467949 25.921472 89.576923 25.915407 89.685897 25.909535 89.794872 25.903854 89.903846 25.898361 90.012821 25.893052 90.121795 25.887926 90.230769 25.882978 90.339744 25.878206 90.448718 25.873608 90.557692 25.869179 90.666667 25.864917 90.775641 25.860819 90.884615 25.856883 90.993590 25.853104 91.102564 25.849481 91.211538 25.846010 91.320513 25.842688 91.429487 25.839512 91.538462 25.836480 91.647436 25.833587 91.756410 25.830833 91.865385 25.828212 91.974359 25.825723 92.083333 25.823363 92.192308 25.821128 92.301282 25.819015 92.410256 25.817022 92.519231 25.815145 92.628205 25.813382 92.737179 25.811730 92.846154 25.810186 92.955128 25.808746 93.064103 25.807407 93.173077 25.806168 93.282051 25.805024 93.391026 25.803974 93.500000 25.803013 93.608974 25.802139 93.717949 25.801349 93.826923 25.800639 93.935897 25.800008 94.044872 25.799452 94.153846 25.798968 94.262821 25.798553 94.371795 25.798204 94.480769 25.797918 94.589744 25.797693 94.698718 25.797525 94.807692 25.797411 94.916667 25.797348 95.025641 25.797333 95.134615 25.797364 95.243590 25.797438 95.352564 25.797550 95.461538 25.797699 95.570513 25.797882 95.679487 25.798095 95.788462 25.798336 95.897436 25.798601 96.006410 25.798888 96.115385 25.799193 96.224359 25.799515 96.333333 25.799848 96.442308 25.800192 96.551282 25.800542 96.660256 25.800897 96.769231 25.801252 96.878205 25.801605 96.987179 25.801952 97.096154 25.802292 97.205128 25.802621 97.314103 25.802936 97.423077 25.803233 97.532051 25.803511 97.641026 25.803766 97.750000 25.803995 97.858974 25.804195 97.967949 25.804364 98.076923 25.804497 98.185897 25.804593 98.294872 25.804648 98.403846 25.804660 98.512821 25.804625 98.621795 25.804540 98.730769 25.804403 98.839744 25.804210 98.948718 25.803958 99.057692 25.803646 99.166667 25.803268 99.275641 25.802824 99.384615 25.802309 99.493590 25.801720 99.602564 25.801055 99.711538 25.800311 99.820513 25.799485 99.929487 25.798573 100.038462 25.797574 100.147436 25.796483 100.256410 25.795298 100.365385 25.794016 100.474359 25.792634 100.583333 25.791148 100.692308 25.789557 100.801282 25.787857 100.910256 25.786045 101.019231 25.784118 101.128205 25.782073 101.237179 25.779908 101.346154 25.777618 101.455128 25.775202 101.564103 25.772656 101.673077 25.769978 101.782051 25.767163 101.891026 25.764211 102.000000 25.761116 102.108974 25.757877 102.217949 25.754490 102.326923 25.750953 102.435897 25.747263 102.544872 25.743416 102.653846 25.739409 102.762821 25.735240 102.871795 25.730906 102.980769 25.726404 103.089744 25.721730 103.198718 25.716882 103.307692 25.711857 103.416667 25.706652 103.525641 25.701263 103.634615 25.695688 103.743590 25.689925 103.852564 25.683969 103.961538 25.677818 104.070513 25.671470 104.179487 25.664920 104.288462 25.658166 104.397436 25.651206 104.506410 25.644035 104.615385 25.636652 104.724359 25.629053 104.833333 25.621236 104.942308 25.613196 105.051282 25.604932 105.160256 25.596440 105.269231 25.587718 105.378205 25.578762 105.487179 25.569569 105.596154 25.560137 105.705128 25.550463 105.814103 25.540542 105.923077 25.530374 106.032051 25.519954 106.141026 25.509280 106.250000 25.498348 106.358974 25.487156 106.467949 25.475701 106.576923 25.463980 106.685897 25.451989 106.794872 25.439727 106.903846 25.427189 107.012821 25.414373 107.121795 25.401276 107.230769 25.387895 107.339744 25.374226 107.448718 25.360268 107.557692 25.346017 107.666667 25.331470 107.775641 25.316625 107.884615 25.301477 107.993590 25.286025 108.102564 25.270264 108.211538 25.254193 108.320513 25.237809 108.429487 25.221107 108.538462 25.204086 108.647436 25.186743 108.756410 25.169073 108.865385 25.151076 108.974359 25.132746 109.083333 25.114082 109.192308 25.095081 109.301282 25.075740 109.410256 25.056054 109.519231 25.036023 109.628205 25.015642 109.737179 24.994909 109.846154 24.973821 109.955128 24.952374 110.064103 24.930567 110.173077 24.908395 110.282051 24.885856 110.391026 24.862947 110.500000 24.839665 110.608974 24.816007 110.717949 24.791969 110.826923 24.767550 110.935897 24.742746 111.044872 24.717554 111.153846 24.691971 111.262821 24.665995 111.371795 24.639621 111.480769 24.612848 111.589744 24.585672 111.698718 24.558090 111.807692 24.530100 111.916667 24.501698 112.025641 24.472881 112.134615 24.443647 112.243590 24.413992 112.352564 24.383915 112.461538 24.353419 112.570513 24.322507 112.679487 24.291185 112.788462 24.259455 112.897436 24.227324 113.006410 24.194793 113.115385 24.161869 113.224359 24.128555 113.333333 24.094854 113.442308 24.060773 113.551282 24.026313 113.660256 23.991481 113.769231 23.956279 113.878205 23.920712 113.987179 23.884785 114.096154 23.848501 114.205128 23.811865 114.314103 23.774881 114.423077 23.737552 114.532051 23.699884 114.641026 23.661881 114.750000 23.623546 114.858974 23.584884 114.967949 23.545898 115.076923 23.506594 115.185897 23.466976 115.294872 23.427046 115.403846 23.386811 115.512821 23.346273 115.621795 23.305438 115.730769 23.264309 115.839744 23.222890 115.948718 23.181186 116.057692 23.139201 116.166667 23.096938 116.275641 23.054403 116.384615 23.011600 116.493590 22.968532 116.602564 22.925204 116.711538 22.881619 116.820513 22.837783 116.929487 22.793699 117.038462 22.749372 117.147436 22.704806 117.256410 22.660004 117.365385 22.614972 117.474359 22.569712 117.583333 22.524231 117.692308 22.478530 117.801282 22.432616 117.910256 22.386492 118.019231 22.340162 118.128205 22.293630 118.237179 22.246901 118.346154 22.199978 118.455128 22.152867 118.564103 22.105571 118.673077 22.058094 118.782051 22.010440 118.891026 21.962615 119.000000 21.914621 119.108974 21.866463 119.217949 21.818146 119.326923 21.769673 119.435897 21.721048 119.544872 21.672277 119.653846 21.623362 119.762821 21.574309 119.871795 21.525121 119.980769 21.475802 120.089744 21.426358 120.198718 21.376791 120.307692 21.327106 120.416667 21.277308 120.525641 21.227400 120.634615 21.177387 120.743590 21.127273 120.852564 21.077062 120.961538 21.026758 121.070513 20.976366 121.179487 20.925889 121.288462 20.875332 121.397436 20.824699 121.506410 20.773994 121.615385 20.723221 121.724359 20.672386 121.833333 20.621490 121.942308 20.570540 122.051282 20.519539 122.160256 20.468491 122.269231 20.417401 122.378205 20.366272 122.487179 20.315110 122.596154 20.263917 122.705128 20.212699 122.814103 20.161459 122.923077 20.110201 123.032051 20.058931 123.141026 20.007651 123.250000 19.956367 123.358974 19.905082 123.467949 19.853800 123.576923 19.802526 123.685897 19.751264 123.794872 19.700019 123.903846 19.648793 124.012821 19.597592 124.121795 19.546420 124.230769 19.495281 124.339744 19.444178 124.448718 19.393117 124.557692 19.342101 124.666667 19.291135 124.775641 19.240223 124.884615 19.189369 124.993590 19.138576 125.102564 19.087851 125.211538 19.037195 125.320513 18.986615 125.429487 18.936113 125.538462 18.885695 125.647436 18.835363 125.756410 18.785124 125.865385 18.734979 125.974359 18.684935 126.083333 18.634995 126.192308 18.585163 126.301282 18.535443 126.410256 18.485840 126.519231 18.436358 126.628205 18.387001 126.737179 18.337773 126.846154 18.288678 126.955128 18.239721 127.064103 18.190905 127.173077 18.142236 127.282051 18.093716 127.391026 18.045351 127.500000 17.997144 127.608974 17.949100 127.717949 17.901223 127.826923 17.853516 127.935897 17.805985 128.044872 17.758634 128.153846 17.711466 128.262821 17.664485 128.371795 17.617697 128.480769 17.571105 128.589744 17.524713 128.698718 17.478526 128.807692 17.432547 128.916667 17.386781 129.025641 17.341232 129.134615 17.295905 129.243590 17.250803 129.352564 17.205931 129.461538 17.161292 129.570513 17.116892 129.679487 17.072734 129.788462 17.028822 129.897436 16.985161 130.006410 16.941754 130.115385 16.898606 130.224359 16.855722 130.333333 16.813105 130.442308 16.770759 130.551282 16.728689 130.660256 16.686899 130.769231 16.645393 130.878205 16.604176 130.987179 16.563250 131.096154 16.522622 131.205128 16.482294 131.314103 16.442271 131.423077 16.402558 131.532051 16.363157 131.641026 16.324075 131.750000 16.285314 131.858974 16.246879 131.967949 16.208774 132.076923 16.171003 132.185897 16.133571 132.294872 16.096482 132.403846 16.059740 132.512821 16.023348 132.621795 15.987312 132.730769 15.951635 132.839744 15.916322 132.948718 15.881377 133.057692 15.846803 133.166667 15.812606 133.275641 15.778790 133.384615 15.745357 133.493590 15.712314 133.602564 15.679663 133.711538 15.647410 133.820513 15.615558 133.929487 15.584111 134.038462 15.553074 134.147436 15.522451 134.256410 15.492246 134.365385 15.462463 134.474359 15.433107 134.583333 15.404181 134.692308 15.375690 134.801282 15.347638 134.910256 15.320029 135.019231 15.292868 135.128205 15.266158 135.237179 15.239904 135.346154 15.214110 135.455128 15.188779 135.564103 15.163917 135.673077 15.139528 135.782051 15.115615 135.891026 15.092184 136.000000 15.069237 136.108974 15.046779 136.217949 15.024815 136.326923 15.003348 136.435897 14.982384 136.544872 14.961925 136.653846 14.941976 136.762821 14.922542 136.871795 14.903626 136.980769 14.885233 137.089744 14.867367 137.198718 14.850032 137.307692 14.833232 137.416667 14.816972 137.525641 14.801255 137.634615 14.786086 137.743590 14.771469 137.852564 14.757409 137.961538 14.743909 138.070513 14.730973 138.179487 14.718606 138.288462 14.706813 138.397436 14.695596 138.506410 14.684961 138.615385 14.674911 138.724359 14.665451 138.833333 14.656584 138.942308 14.648316 139.051282 14.640651 139.160256 14.633591 139.269231 14.627142 139.378205 14.621309 139.487179 14.616094 139.596154 14.611501 139.705128 14.607529 139.814103 14.604175 139.923077 14.601437 140.032051 14.599312 140.141026 14.597798 140.250000 14.596892 140.358974 14.596592 140.467949 14.596895 140.576923 14.597799 140.685897 14.599301 140.794872 14.601399 140.903846 14.604090 141.012821 14.607372 141.121795 14.611243 141.230769 14.615699 141.339744 14.620738 141.448718 14.626359 141.557692 14.632557 141.666667 14.639332 141.775641 14.646680 141.884615 14.654598 141.993590 14.663085 142.102564 14.672138 142.211538 14.681755 142.320513 14.691932 142.429487 14.702667 142.538462 14.713959 142.647436 14.725804 142.756410 14.738200 142.865385 14.751144 142.974359 14.764634 143.083333 14.778668 143.192308 14.793242 143.301282 14.808355 143.410256 14.824004 143.519231 14.840187 143.628205 14.856900 143.737179 14.874142 143.846154 14.891910 143.955128 14.910201 144.064103 14.929014 144.173077 14.948344 144.282051 14.968191 144.391026 14.988552 144.500000 15.009423 144.608974 15.030803 144.717949 15.052689 144.826923 15.075079 144.935897 15.097969 145.044872 15.121359 145.153846 15.145244 145.262821 15.169623 145.371795 15.194493 145.480769 15.219851 145.589744 15.245696 145.698718 15.272024 145.807692 15.298833 145.916667 15.326121 146.025641 15.353885 146.134615 15.382123 146.243590 15.410832 146.352564 15.440010 146.461538 15.469653 146.570513 15.499761 146.679487 15.530329 146.788462 15.561356 146.897436 15.592840 147.006410 15.624777 147.115385 15.657165 147.224359 15.690002 147.333333 15.723285 147.442308 15.757012 147.551282 15.791180 147.660256 15.825787 147.769231 15.860831 147.878205 15.896307 147.987179 15.932216 148.096154 15.968553 148.205128 16.005316 148.314103 16.042503 148.423077 16.080111 148.532051 16.118138 148.641026 16.156581 148.750000 16.195439 148.858974 16.234707 148.967949 16.274384 149.076923 16.314468 149.185897 16.354956 149.294872 16.395844 149.403846 16.437132 149.512821 16.478816 149.621795 16.520894 149.730769 16.563363 149.839744 16.606222 149.948718 16.649466 150.057692 16.693095 150.166667 16.737104 150.275641 16.781493 150.384615 16.826258 150.493590 16.871397 150.602564 16.916908 150.711538 16.962787 150.820513 17.009033 150.929487 17.055643 151.038462 17.102615 151.147436 17.149945 151.256410 17.197632 151.365385 17.245672 151.474359 17.294065 151.583333 17.342806 151.692308 17.391894 151.801282 17.441325 151.910256 17.491099 152.019231 17.541211 152.128205 17.591660 152.237179 17.642443 152.346154 17.693557 152.455128 17.745001 152.564103 17.796771 152.673077 17.848865 152.782051 17.901280 152.891026 17.954015 153.000000 18.007066 153.108974 18.060432 153.217949 18.114109 153.326923 18.168095 153.435897 18.222388 153.544872 18.276985 153.653846 18.331883 153.762821 18.387081 153.871795 18.442575 153.980769 18.498364 154.089744 18.554444 154.198718 18.610813 154.307692 18.667469 154.416667 18.724409 154.525641 18.781631 154.634615 18.839132 154.743590 18.896910 154.852564 18.954962 154.961538 19.013285 155.070513 19.071878 155.179487 19.130738 155.288462 19.189862 155.397436 19.249247 155.506410 19.308892 155.615385 19.368794 155.724359 19.428950 155.833333 19.489357 155.942308 19.550014 156.051282 19.610918 156.160256 19.672066 156.269231 19.733456 156.378205 19.795085 156.487179 19.856951 156.596154 19.919051 156.705128 19.981383 156.814103 20.043945 156.923077 20.106733 157.032051 20.169746 157.141026 20.232980 157.250000 20.296434 157.358974 20.360105 157.467949 20.423990 157.576923 20.488087 157.685897 20.552394 157.794872 20.616907 157.903846 20.681625 158.012821 20.746545 158.121795 20.811664 158.230769 20.876980 158.339744 20.942490 158.448718 21.008193 158.557692 21.074085 158.666667 21.140163 158.775641 21.206427 158.884615 21.272872 158.993590 21.339497 159.102564 21.406299 159.211538 21.473275 159.320513 21.540423 159.429487 21.607741 159.538462 21.675226 159.647436 21.742875 159.756410 21.810686 159.865385 21.878657 159.974359 21.946785 160.083333 22.015068 160.192308 22.083502 160.301282 22.152086 160.410256 22.220818 160.519231 22.289693 160.628205 22.358711 160.737179 22.427869 160.846154 22.497163 160.955128 22.566593 161.064103 22.636154 161.173077 22.705845 161.282051 22.775663 161.391026 22.845606 161.500000 22.915671 161.608974 22.985855 161.717949 23.056157 161.826923 23.126573 161.935897 23.197102 162.044872 23.267740 162.153846 23.338485 162.262821 23.409335 162.371795 23.480288 162.480769 23.551340 162.589744 23.622489 162.698718 23.693733 162.807692 23.765069 162.916667 23.836495 163.025641 23.908008 163.134615 23.979606 163.243590 24.051287 163.352564 24.123047 163.461538 24.194884 163.570513 24.266796 163.679487 24.338780 163.788462 24.410834 163.897436 24.482956 164.006410 24.555142 164.115385 24.627391 164.224359 24.699699 164.333333 24.772065 164.442308 24.844486 164.551282 24.916959 164.660256 24.989481 164.769231 25.062051 164.878205 25.134667 164.987179 25.207324 165.096154 25.280021 165.205128 25.352756 165.314103 25.425526 165.423077 25.498328 165.532051 25.571159 165.641026 25.644019 165.750000 25.716903 165.858974 25.789810 165.967949 25.862736 166.076923 25.935680 166.185897 26.008640 166.294872 26.081611 166.403846 26.154593 166.512821 26.227581 166.621795 26.300575 166.730769 26.373572" class="line reactive nofill" /></g></g><g class="titles" /><g transform="translate(20, 10)" class="plot overlay"><g class="series serie-0 color-0" /></g><g transform="translate(20, 10)" class="plot text-overlay"><g class="series serie-0 color-0" /></g><g transform="translate(20, 10)" class="plot tooltip-overlay"><g transform="translate(0 0)" style="opacity: 0" class="tooltip"><rect rx="0" ry="0" width="0" height="0" class="tooltip-box" /><g class="text" /></g></g></g></svg>