<?xml version='1.0' encoding='utf-8'?>
<svg xmlns="http://www.w3.org/2000/svg" id="chart-47b2a291-e8fa-4c24-8391-8f11022fa7ce" class="pygal-chart pygal-sparkline" viewBox="0 0 200 50" width="200" height="50"><!--Generated with pygal 3.0.4 (etree) ©Kozea 2012-2016 on 2024-08-11--><!--http://pygal.org--><!--http://github.com/Kozea/pygal--><defs><style type="text/css">#chart-47b2a291-e8fa-4c24-8391-8f11022fa7ce{-webkit-user-select:none;-webkit-font-smoothing:antialiased;font-family:Consolas,"Liberation Mono",Menlo,Courier,monospace}#chart-47b2a291-e8fa-4c24-8391-8f11022fa7ce .title{font-family:Consolas,"Liberation Mono",Menlo,Courier,monospace;font-size:16px}#chart-47b2a291-e8fa-4c24-8391-8f11022fa7ce .legends .legend text{font-family:Consolas,"Liberation Mono",Menlo,Courier,monospace;font-size:14px}#chart-47b2a291-e8fa-4c24-8391-8f11022fa7ce .axis text{font-family:Consolas,"Liberation Mono",Menlo,Courier,monospace;font-size:10px}#chart-47b2a291-e8fa-4c24-8391-8f11022fa7ce .axis text.major{font-family:Consolas,"Liberation Mono",Menlo,Courier,monospace;font-size:10px}#chart-47b2a291-e8fa-4c24-8391-8f11022fa7ce .text-overlay text.value{font-family:Consolas,"Liberation Mono",Menlo,Courier,monospace;font-size:16px}#chart-47b2a291-e8fa-4c24-8391-8f11022fa7ce .text-overlay text.label{font-family:Consolas,"Liberation Mono",Menlo,Courier,monospace;font-size:10px}#chart-47b2a291-e8fa-4c24-8391-8f11022fa7ce .tooltip{font-family:Consolas,"Liberation Mono",Menlo,Courier,monospace;font-size:14px}#chart-47b2a291-e8fa-4c24-8391-8f11022fa7ce text.no_data{font-family:Consolas,"Liberation Mono",Menlo,Courier,monospace;font-size:64px}
#chart-47b2a291-e8fa-4c24-8391-8f11022fa7ce{background-color:rgba(249,249,249,1)}#chart-47b2a291-e8fa-4c24-8391-8f11022fa7ce path,#chart-47b2a291-e8fa-4c24-8391-8f11022fa7ce line,#chart-47b2a291-e8fa-4c24-8391-8f11022fa7ce rect,#chart-47b2a291-e8fa-4c24-8391-8f11022fa7ce circle{-webkit-transition:150ms;-moz-transition:150ms;transition:150ms}#chart-47b2a291-e8fa-4c24-8391-8f11022fa7ce .graph &gt; .background{fill:rgba(249,249,249,1)}#chart-47b2a291-e8fa-4c24-8391-8f11022fa7ce .plot &gt; .background{fill:rgba(255,255,255,1)}#chart-47b2a291-e8fa-4c24-8391-8f11022fa7ce .graph{fill:rgba(0,0,0,.87)}#chart-47b2a291-e8fa-4c24-8391-8f11022fa7ce text.no_data{fill:rgba(0,0,0,1)}#chart-47b2a291-e8fa-4c24-8391-8f11022fa7ce .title{fill:rgba(0,0,0,1)}#chart-47b2a291-e8fa-4c24-8391-8f11022fa7ce .legends .legend text{fill:rgba(0,0,0,.87)}#chart-47b2a291-e8fa-4c24-8391-8f11022fa7ce .legends .legend:hover text{fill:rgba(0,0,0,1)}#chart-47b2a291-e8fa-4c24-8391-8f11022fa7ce .axis .line{stroke:rgba(0,0,0,1)}#chart-47b2a291-e8fa-4c24-8391-8f11022fa7ce .axis .guide.line{stroke:rgba(0,0,0,.54)}#chart-47b2a291-e8fa-4c24-8391-8f11022fa7ce .axis .major.line{stroke:rgba(0,0,0,.87)}#chart-47b2a291-e8fa-4c24-8391-8f11022fa7ce .axis text.major{fill:rgba(0,0,0,1)}#chart-47b2a291-e8fa-4c24-8391-8f11022fa7ce .axis.y .guides:hover .guide.line,#chart-47b2a291-e8fa-4c24-8391-8f11022fa7ce .line-graph .axis.x .guides:hover .guide.line,#chart-47b2a291-e8fa-4c24-8391-8f11022fa7ce .stackedline-graph .axis.x .guides:hover .guide.line,#chart-47b2a291-e8fa-4c24-8391-8f11022fa7ce .xy-graph .axis.x .guides:hover .guide.line{stroke:rgba(0,0,0,1)}#chart-47b2a291-e8fa-4c24-8391-8f11022fa7ce .axis .guides:hover text{fill:rgba(0,0,0,1)}#chart-47b2a291-e8fa-4c24-8391-8f11022fa7ce .reactive{fill-opacity:.7;stroke-opacity:.8;stroke-width:1}#chart-47b2a291-e8fa-4c24-8391-8f11022fa7ce .ci{stroke:rgba(0,0,0,.87)}#chart-47b2a291-e8fa-4c24-8391-8f11022fa7ce .reactive.active,#chart-47b2a291-e8fa-4c24-8391-8f11022fa7ce .active .reactive{fill-opacity:.8;stroke-opacity:.9;stroke-width:4}#chart-47b2a291-e8fa-4c24-8391-8f11022fa7ce .ci .reactive.active{stroke-width:1.5}#chart-47b2a291-e8fa-4c24-8391-8f11022fa7ce .series text{fill:rgba(0,0,0,1)}#chart-47b2a291-e8fa-4c24-8391-8f11022fa7ce .tooltip rect{fill:rgba(255,255,255,1);stroke:rgba(0,0,0,1);-webkit-transition:opacity 150ms;-moz-transition:opacity 150ms;transition:opacity 150ms}#chart-47b2a291-e8fa-4c24-8391-8f11022fa7ce .tooltip .label{fill:rgba(0,0,0,.87)}#chart-47b2a291-e8fa-4c24-8391-8f11022fa7ce .tooltip .label{fill:rgba(0,0,0,.87)}#chart-47b2a291-e8fa-4c24-8391-8f11022fa7ce .tooltip .legend{font-size:.8em;fill:rgba(0,0,0,.54)}#chart-47b2a291-e8fa-4c24-8391-8f11022fa7ce .tooltip .x_label{font-size:.6em;fill:rgba(0,0,0,1)}#chart-47b2a291-e8fa-4c24-8391-8f11022fa7ce .tooltip .xlink{font-size:.5em;text-decoration:underline}#chart-47b2a291-e8fa-4c24-8391-8f11022fa7ce .tooltip .value{font-size:1.5em}#chart-47b2a291-e8fa-4c24-8391-8f11022fa7ce .bound{font-size:.5em}#chart-47b2a291-e8fa-4c24-8391-8f11022fa7ce .max-value{font-size:.75em;fill:rgba(0,0,0,.54)}#chart-47b2a291-e8fa-4c24-8391-8f11022fa7ce .map-element{fill:rgba(255,255,255,1);stroke:rgba(0,0,0,.54) !important}#chart-47b2a291-e8fa-4c24-8391-8f11022fa7ce .map-element .reactive{fill-opacity:inherit;stroke-opacity:inherit}#chart-47b2a291-e8fa-4c24-8391-8f11022fa7ce .color-0,#chart-47b2a291-e8fa-4c24-8391-8f11022fa7ce .color-0 a:visited{stroke:#F44336;fill:#F44336}#chart-47b2a291-e8fa-4c24-8391-8f11022fa7ce .text-overlay .color-0 text{fill:black}
#chart-47b2a291-e8fa-4c24-8391-8f11022fa7ce text.no_data{text-anchor:middle}#chart-47b2a291-e8fa-4c24-8391-8f11022fa7ce .guide.line{fill:none}#chart-47b2a291-e8fa-4c24-8391-8f11022fa7ce .centered{text-anchor:middle}#chart-47b2a291-e8fa-4c24-8391-8f11022fa7ce .title{text-anchor:middle}#chart-47b2a291-e8fa-4c24-8391-8f11022fa7ce .legends .legend text{fill-opacity:1}#chart-47b2a291-e8fa-4c24-8391-8f11022fa7ce .axis.x text{text-anchor:middle}#chart-47b2a291-e8fa-4c24-8391-8f11022fa7ce .axis.x:not(.web) text[transform]{text-anchor:start}#chart-47b2a291-e8fa-4c24-8391-8f11022fa7ce .axis.x:not(.web) text[transform].backwards{text-anchor:end}#chart-47b2a291-e8fa-4c24-8391-8f11022fa7ce .axis.y text{text-anchor:end}#chart-47b2a291-e8fa-4c24-8391-8f11022fa7ce .axis.y text[transform].backwards{text-anchor:start}#chart-47b2a291-e8fa-4c24-8391-8f11022fa7ce .axis.y2 text{text-anchor:start}#chart-47b2a291-e8fa-4c24-8391-8f11022fa7ce .axis.y2 text[transform].backwards{text-anchor:end}#chart-47b2a291-e8fa-4c24-8391-8f11022fa7ce .axis .guide.line{stroke-dasharray:4,4;stroke:black}#chart-47b2a291-e8fa-4c24-8391-8f11022fa7ce .axis .major.guide.line{stroke-dasharray:6,6;stroke:black}#chart-47b2a291-e8fa-4c24-8391-8f11022fa7ce .horizontal .axis.y .guide.line,#chart-47b2a291-e8fa-4c24-8391-8f11022fa7ce .horizontal .axis.y2 .guide.line,#chart-47b2a291-e8fa-4c24-8391-8f11022fa7ce .vertical .axis.x .guide.line{opacity:0}#chart-47b2a291-e8fa-4c24-8391-8f11022fa7ce .horizontal .axis.always_show .guide.line,#chart-47b2a291-e8fa-4c24-8391-8f11022fa7ce .vertical .axis.always_show .guide.line{opacity:1 !important}#chart-47b2a291-e8fa-4c24-8391-8f11022fa7ce .axis.y .guides:hover .guide.line,#chart-47b2a291-e8fa-4c24-8391-8f11022fa7ce .axis.y2 .guides:hover .guide.line,#chart-47b2a291-e8fa-4c24-8391-8f11022fa7ce .axis.x .guides:hover .guide.line{opacity:1}#chart-47b2a291-e8fa-4c24-8391-8f11022fa7ce .axis .guides:hover text{opacity:1}#chart-47b2a291-e8fa-4c24-8391-8f11022fa7ce .nofill{fill:none}#chart-47b2a291-e8fa-4c24-8391-8f11022fa7ce .subtle-fill{fill-opacity:.2}#chart-47b2a291-e8fa-4c24-8391-8f11022fa7ce .dot{stroke-width:1px;fill-opacity:1;stroke-opacity:1}#chart-47b2a291-e8fa-4c24-8391-8f11022fa7ce .dot.active{stroke-width:5px}#chart-47b2a291-e8fa-4c24-8391-8f11022fa7ce .dot.negative{fill:transparent}#chart-47b2a291-e8fa-4c24-8391-8f11022fa7ce text,#chart-47b2a291-e8fa-4c24-8391-8f11022fa7ce tspan{stroke:none !important}#chart-47b2a291-e8fa-4c24-8391-8f11022fa7ce .series text.active{opacity:1}#chart-47b2a291-e8fa-4c24-8391-8f11022fa7ce .tooltip rect{fill-opacity:.95;stroke-width:.5}#chart-47b2a291-e8fa-4c24-8391-8f11022fa7ce .tooltip text{fill-opacity:1}#chart-47b2a291-e8fa-4c24-8391-8f11022fa7ce .showable{visibility:hidden}#chart-47b2a291-e8fa-4c24-8391-8f11022fa7ce .showable.shown{visibility:visible}#chart-47b2a291-e8fa-4c24-8391-8f11022fa7ce .gauge-background{fill:rgba(229,229,229,1);stroke:none}#chart-47b2a291-e8fa-4c24-8391-8f11022fa7ce .bg-lines{stroke:rgba(249,249,249,1);stroke-width:2px}</style><script type="text/javascript">window.pygal = window.pygal || {};window.pygal.config = window.pygal.config || {};window.pygal.config['47b2a291-e8fa-4c24-8391-8f11022fa7ce'] = {"allow_interruptions": false, "box_mode": "extremes", "classes": ["pygal-chart", "pygal-sparkline"], "css": ["file://style.css", "file://graph.css"], "defs": [], "disable_xml_declaration": false, "dots_size": 2.5, "dynamic_print_values": false, "explicit_size": true, "fill": false, "force_uri_protocol": "https", "formatter": null, "half_pie": false, "height": 50, "include_x_axis": false, "inner_radius": 0, "interpolate": "cubic", "interpolation_parameters": {}, "interpolation_precision": 250, "inverse_y_axis": false, "js": [], "legend_at_bottom": false, "legend_at_bottom_columns": null, "legend_box_size": 12, "logarithmic": false, "margin": 10, "margin_bottom": null, "margin_left": null, "margin_right": null, "margin_top": null, "max_scale": 2, "min_scale": 1, "missing_value_fill_truncation": "x", "no_data_text": "", "no_prefix": false, "order_min": null, "pretty_print": false, "print_labels": false, "print_values": false, "print_values_position": "center", "print_zeroes": true, "range": null, "rounded_bars": null, "secondary_range": null, "show_dots": false, "show_legend": false, "show_minor_x_labels": true, "show_minor_y_labels": true, "show_only_major_dots": false, "show_x_guides": false, "show_x_labels": false, "show_y_guides": true, "show_y_labels": true, "spacing": 0, "stack_from_top": false, "strict": false, "stroke": true, "stroke_style": null, "style": {"background": "rgba(249, 249, 249, 1)", "ci_colors": [], "colors": ["#F44336", "#3F51B5", "#009688", "#FFC107", "#FF5722", "#9C27B0", "#03A9F4", "#8BC34A", "#FF9800", "#E91E63", "#2196F3", "#4CAF50", "#FFEB3B", "#673AB7", "#00BCD4", "#CDDC39", "#9E9E9E", "#607D8B"], "dot_opacity": "1", "font_family": "Consolas, \"Liberation Mono\", Menlo, Courier, monospace", "foreground": "rgba(0, 0, 0, .87)", "foreground_strong": "rgba(0, 0, 0, 1)", "foreground_subtle": "rgba(0, 0, 0, .54)", "guide_stroke_color": "black", "guide_stroke_dasharray": "4,4", "label_font_family": "Consolas, \"Liberation Mono\", Menlo, Courier, monospace", "label_font_size": 10, "legend_font_family": "Consolas, \"Liberation Mono\", Menlo, Courier, monospace", "legend_font_size": 14, "major_guide_stroke_color": "black", "major_guide_stroke_dasharray": "6,6", "major_label_font_family": "Consolas, \"Liberation Mono\", Menlo, Courier, monospace", "major_label_font_size": 10, "no_data_font_family": "Consolas, \"Liberation Mono\", Menlo, Courier, monospace", "no_data_font_size": 64, "opacity": ".7", "opacity_hover": ".8", "plot_background": "rgba(255, 255, 255, 1)", "stroke_opacity": ".8", "stroke_opacity_hover": ".9", "stroke_width": "1", "stroke_width_hover": "4", "title_font_family": "Consolas, \"Liberation Mono\", Menlo, Courier, monospace", "title_font_size": 16, "tooltip_font_family": "Consolas, \"Liberation Mono\", Menlo, Courier, monospace", "tooltip_font_size": 14, "transition": "150ms", "value_background": "rgba(229, 229, 229, 1)", "value_colors": [], "value_font_family": "Consolas, \"Liberation Mono\", Menlo, Courier, monospace", "value_font_size": 16, "value_label_font_family": "Consolas, \"Liberation Mono\", Menlo, Courier, monospace", "value_label_font_size": 10}, "title": null, "tooltip_border_radius": 0, "tooltip_fancy_mode": true, "truncate_label": null, "truncate_legend": null, "width": 200, "x_label_rotation": 0, "x_labels": ["2024/7", "2024/6", "2024/5", "2024/4", "2024/3", "2023/11", "2023/9", "2023/8", "2023/6"], "x_labels_major": null, "x_labels_major_count": null, "x_labels_major_every": null, "x_title": null, "xrange": null, "y_label_rotation": 0, "y_labels": null, "y_labels_major": null, "y_labels_major_count": null, "y_labels_major_every": null, "y_title": null, "zero": 0, "legends": [""]}</script></defs><title>Pygal</title><g class="graph line-graph vertical"><rect x="0" y="0" width="200" height="50" class="background" /><g transform="translate(20, 10)" class="plot"><rect x="0" y="0" width="170" height="30" class="background" /><g class="axis y always_show"><g class="guides"><path d="M0.000000 27.855023 h170.000000" class="axis line" /><text x="-5" y="31.355023116895705" class="">0</text><title>0</title></g><g class="guides"><path d="M0.000000 12.291806 h170.000000" class="guide line" /><text x="-5" y="15.791806499179103" class="">8</text><title>8</title></g></g><g class="series serie-0 color-0"><path d="M3.269231 23.964219 L3.350962 23.941235 3.432692 23.918251 3.514423 23.895269 3.596154 23.872288 3.677885 23.849311 3.759615 23.826337 3.841346 23.803368 3.923077 23.780403 4.004808 23.757445 4.086538 23.734492 4.168269 23.711547 4.250000 23.688610 4.331731 23.665681 4.413462 23.642761 4.495192 23.619852 4.576923 23.596953 4.658654 23.574065 4.740385 23.551190 4.822115 23.528327 4.903846 23.505478 4.985577 23.482643 5.067308 23.459823 5.149038 23.437019 5.230769 23.414232 5.312500 23.391461 5.394231 23.368708 5.475962 23.345974 5.557692 23.323258 5.639423 23.300563 5.721154 23.277889 5.802885 23.255236 5.884615 23.232605 5.966346 23.209996 6.048077 23.187412 6.129808 23.164851 6.211538 23.142316 6.293269 23.119806 6.375000 23.097322 6.456731 23.074866 6.538462 23.052437 6.620192 23.030037 6.701923 23.007666 6.783654 22.985325 6.865385 22.963014 6.947115 22.940735 7.028846 22.918488 7.110577 22.896274 7.192308 22.874093 7.274038 22.851946 7.355769 22.829835 7.437500 22.807759 7.519231 22.785719 7.600962 22.763716 7.682692 22.741751 7.764423 22.719825 7.846154 22.697938 7.927885 22.676090 8.009615 22.654284 8.091346 22.632518 8.173077 22.610795 8.254808 22.589114 8.336538 22.567477 8.418269 22.545884 8.500000 22.524336 8.581731 22.502833 8.663462 22.481377 8.745192 22.459968 8.826923 22.438606 8.908654 22.417293 8.990385 22.396029 9.072115 22.374815 9.153846 22.353652 9.235577 22.332540 9.317308 22.311480 9.399038 22.290472 9.480769 22.269519 9.562500 22.248619 9.644231 22.227774 9.725962 22.206984 9.807692 22.186251 9.889423 22.165575 9.971154 22.144957 10.052885 22.124397 10.134615 22.103896 10.216346 22.083455 10.298077 22.063075 10.379808 22.042755 10.461538 22.022498 10.543269 22.002304 10.625000 21.982173 10.706731 21.962106 10.788462 21.942104 10.870192 21.922167 10.951923 21.902297 11.033654 21.882493 11.115385 21.862758 11.197115 21.843091 11.278846 21.823492 11.360577 21.803964 11.442308 21.784506 11.524038 21.765120 11.605769 21.745805 11.687500 21.726563 11.769231 21.707395 11.850962 21.688300 11.932692 21.669280 12.014423 21.650336 12.096154 21.631468 12.177885 21.612677 12.259615 21.593964 12.341346 21.575329 12.423077 21.556773 12.504808 21.538297 12.586538 21.519902 12.668269 21.501587 12.750000 21.483355 12.831731 21.465205 12.913462 21.447139 12.995192 21.429157 13.076923 21.411259 13.158654 21.393447 13.240385 21.375721 13.322115 21.358082 13.403846 21.340531 13.485577 21.323068 13.567308 21.305694 13.649038 21.288410 13.730769 21.271216 13.812500 21.254114 13.894231 21.237103 13.975962 21.220185 14.057692 21.203361 14.139423 21.186630 14.221154 21.169994 14.302885 21.153454 14.384615 21.137010 14.466346 21.120663 14.548077 21.104413 14.629808 21.088262 14.711538 21.072209 14.793269 21.056257 14.875000 21.040405 14.956731 21.024654 15.038462 21.009005 15.120192 20.993458 15.201923 20.978015 15.283654 20.962676 15.365385 20.947441 15.447115 20.932312 15.528846 20.917290 15.610577 20.902374 15.692308 20.887565 15.774038 20.872865 15.855769 20.858274 15.937500 20.843793 16.019231 20.829422 16.100962 20.815162 16.182692 20.801014 16.264423 20.786979 16.346154 20.773057 16.427885 20.759248 16.509615 20.745555 16.591346 20.731977 16.673077 20.718515 16.754808 20.705170 16.836538 20.691943 16.918269 20.678834 17.000000 20.665843 17.081731 20.652973 17.163462 20.640223 17.245192 20.627594 17.326923 20.615086 17.408654 20.602702 17.490385 20.590440 17.572115 20.578303 17.653846 20.566290 17.735577 20.554403 17.817308 20.542642 17.899038 20.531007 17.980769 20.519500 18.062500 20.508122 18.144231 20.496872 18.225962 20.485752 18.307692 20.474762 18.389423 20.463904 18.471154 20.453177 18.552885 20.442583 18.634615 20.432122 18.716346 20.421795 18.798077 20.411602 18.879808 20.401545 18.961538 20.391624 19.043269 20.381840 19.125000 20.372193 19.206731 20.362685 19.288462 20.353315 19.370192 20.344085 19.451923 20.334996 19.533654 20.326047 19.615385 20.317240 19.697115 20.308576 19.778846 20.300055 19.860577 20.291678 19.942308 20.283446 20.024038 20.275358 20.105769 20.267417 20.187500 20.259623 20.269231 20.251976 20.350962 20.244477 20.432692 20.237128 20.514423 20.229927 20.596154 20.222878 20.677885 20.215979 20.759615 20.209232 20.841346 20.202637 20.923077 20.196196 21.004808 20.189908 21.086538 20.183775 21.168269 20.177798 21.250000 20.171976 21.331731 20.166311 21.413462 20.160804 21.495192 20.155455 21.576923 20.150264 21.658654 20.145234 21.740385 20.140363 21.822115 20.135654 21.903846 20.131106 21.985577 20.126721 22.067308 20.122499 22.149038 20.118440 22.230769 20.114547 22.312500 20.110818 22.394231 20.107256 22.475962 20.103860 22.557692 20.100632 22.639423 20.097572 22.721154 20.094681 22.802885 20.091959 22.884615 20.089407 22.966346 20.087027 23.048077 20.084818 23.129808 20.082782 23.211538 20.080919 23.293269 20.079229 23.375000 20.077714 23.456731 20.076375 23.538462 20.075211 23.620192 20.074224 23.701923 20.073415 23.783654 20.072783 23.865385 20.072329 23.947115 20.072052 24.028846 20.071951 24.110577 20.072026 24.192308 20.072277 24.274038 20.072702 24.355769 20.073301 24.437500 20.074073 24.519231 20.075019 24.600962 20.076137 24.682692 20.077427 24.764423 20.078888 24.846154 20.080519 24.927885 20.082321 25.009615 20.084292 25.091346 20.086432 25.173077 20.088741 25.254808 20.091217 25.336538 20.093860 25.418269 20.096670 25.500000 20.099646 25.581731 20.102788 25.663462 20.106095 25.745192 20.109565 25.826923 20.113200 25.908654 20.116998 25.990385 20.120958 26.072115 20.125081 26.153846 20.129364 26.235577 20.133809 26.317308 20.138414 26.399038 20.143179 26.480769 20.148103 26.562500 20.153186 26.644231 20.158426 26.725962 20.163824 26.807692 20.169379 26.889423 20.175091 26.971154 20.180958 27.052885 20.186980 27.134615 20.193156 27.216346 20.199487 27.298077 20.205971 27.379808 20.212608 27.461538 20.219397 27.543269 20.226338 27.625000 20.233430 27.706731 20.240673 27.788462 20.248065 27.870192 20.255608 27.951923 20.263298 28.033654 20.271137 28.115385 20.279124 28.197115 20.287258 28.278846 20.295539 28.360577 20.303965 28.442308 20.312537 28.524038 20.321253 28.605769 20.330114 28.687500 20.339119 28.769231 20.348266 28.850962 20.357556 28.932692 20.366988 29.014423 20.376562 29.096154 20.386276 29.177885 20.396130 29.259615 20.406124 29.341346 20.416258 29.423077 20.426529 29.504808 20.436939 29.586538 20.447486 29.668269 20.458169 29.750000 20.468989 29.831731 20.479945 29.913462 20.491036 29.995192 20.502261 30.076923 20.513620 30.158654 20.525112 30.240385 20.536737 30.322115 20.548494 30.403846 20.560383 30.485577 20.572403 30.567308 20.584553 30.649038 20.596834 30.730769 20.609243 30.812500 20.621781 30.894231 20.634448 30.975962 20.647242 31.057692 20.660163 31.139423 20.673211 31.221154 20.686384 31.302885 20.699683 31.384615 20.713106 31.466346 20.726654 31.548077 20.740325 31.629808 20.754119 31.711538 20.768035 31.793269 20.782074 31.875000 20.796233 31.956731 20.810514 32.038462 20.824914 32.120192 20.839434 32.201923 20.854073 32.283654 20.868831 32.365385 20.883706 32.447115 20.898699 32.528846 20.913808 32.610577 20.929033 32.692308 20.944374 32.774038 20.959830 32.855769 20.975400 32.937500 20.991084 33.019231 21.006881 33.100962 21.022791 33.182692 21.038813 33.264423 21.054947 33.346154 21.071191 33.427885 21.087546 33.509615 21.104011 33.591346 21.120584 33.673077 21.137267 33.754808 21.154058 33.836538 21.170956 33.918269 21.187961 34.000000 21.205072 34.081731 21.222289 34.163462 21.239611 34.245192 21.257038 34.326923 21.274569 34.408654 21.292204 34.490385 21.309941 34.572115 21.327781 34.653846 21.345722 34.735577 21.363765 34.817308 21.381908 34.899038 21.400152 34.980769 21.418494 35.062500 21.436936 35.144231 21.455476 35.225962 21.474114 35.307692 21.492848 35.389423 21.511680 35.471154 21.530607 35.552885 21.549630 35.634615 21.568748 35.716346 21.587960 35.798077 21.607266 35.879808 21.626665 35.961538 21.646156 36.043269 21.665740 36.125000 21.685415 36.206731 21.705181 36.288462 21.725037 36.370192 21.744982 36.451923 21.765017 36.533654 21.785141 36.615385 21.805352 36.697115 21.825651 36.778846 21.846036 36.860577 21.866508 36.942308 21.887066 37.024038 21.907709 37.105769 21.928436 37.187500 21.949247 37.269231 21.970142 37.350962 21.991119 37.432692 22.012179 37.514423 22.033320 37.596154 22.054542 37.677885 22.075845 37.759615 22.097228 37.841346 22.118690 37.923077 22.140231 38.004808 22.161850 38.086538 22.183547 38.168269 22.205321 38.250000 22.227171 38.331731 22.249098 38.413462 22.271100 38.495192 22.293176 38.576923 22.315327 38.658654 22.337551 38.740385 22.359848 38.822115 22.382218 38.903846 22.404660 38.985577 22.427173 39.067308 22.449757 39.149038 22.472411 39.230769 22.495134 39.312500 22.517927 39.394231 22.540788 39.475962 22.563717 39.557692 22.586713 39.639423 22.609776 39.721154 22.632905 39.802885 22.656100 39.884615 22.679360 39.966346 22.702684 40.048077 22.726072 40.129808 22.749524 40.211538 22.773038 40.293269 22.796614 40.375000 22.820252 40.456731 22.843951 40.538462 22.867710 40.620192 22.891529 40.701923 22.915407 40.783654 22.939344 40.865385 22.963340 40.947115 22.987392 41.028846 23.011502 41.110577 23.035668 41.192308 23.059890 41.274038 23.084167 41.355769 23.108499 41.437500 23.132885 41.519231 23.157325 41.600962 23.181817 41.682692 23.206362 41.764423 23.230959 41.846154 23.255606 41.927885 23.280305 42.009615 23.305054 42.091346 23.329852 42.173077 23.354699 42.254808 23.379594 42.336538 23.404538 42.418269 23.429528 42.500000 23.454565 42.581731 23.479649 42.663462 23.504777 42.745192 23.529951 42.826923 23.555169 42.908654 23.580431 42.990385 23.605735 43.072115 23.631083 43.153846 23.656473 43.235577 23.681904 43.317308 23.707376 43.399038 23.732888 43.480769 23.758440 43.562500 23.784031 43.644231 23.809661 43.725962 23.835329 43.807692 23.861034 43.889423 23.886777 43.971154 23.912555 44.052885 23.938370 44.134615 23.964219 44.216346 23.990102 44.298077 24.016017 44.379808 24.041959 44.461538 24.067924 44.543269 24.093910 44.625000 24.119911 44.706731 24.145926 44.788462 24.171949 44.870192 24.197978 44.951923 24.224009 45.033654 24.250038 45.115385 24.276061 45.197115 24.302076 45.278846 24.328077 45.360577 24.354062 45.442308 24.380027 45.524038 24.405968 45.605769 24.431882 45.687500 24.457765 45.769231 24.483613 45.850962 24.509422 45.932692 24.535190 46.014423 24.560912 46.096154 24.586585 46.177885 24.612205 46.259615 24.637769 46.341346 24.663272 46.423077 24.688712 46.504808 24.714083 46.586538 24.739384 46.668269 24.764610 46.750000 24.789758 46.831731 24.814824 46.913462 24.839804 46.995192 24.864694 47.076923 24.889492 47.158654 24.914193 47.240385 24.938793 47.322115 24.963290 47.403846 24.987679 47.485577 25.011957 47.567308 25.036120 47.649038 25.060164 47.730769 25.084087 47.812500 25.107883 47.894231 25.131550 47.975962 25.155084 48.057692 25.178481 48.139423 25.201738 48.221154 25.224851 48.302885 25.247816 48.384615 25.270630 48.466346 25.293289 48.548077 25.315789 48.629808 25.338127 48.711538 25.360299 48.793269 25.382302 48.875000 25.404131 48.956731 25.425783 49.038462 25.447255 49.120192 25.468543 49.201923 25.489643 49.283654 25.510552 49.365385 25.531266 49.447115 25.551780 49.528846 25.572093 49.610577 25.592199 49.692308 25.612096 49.774038 25.631780 49.855769 25.651247 49.937500 25.670493 50.019231 25.689515 50.100962 25.708308 50.182692 25.726871 50.264423 25.745198 50.346154 25.763287 50.427885 25.781133 50.509615 25.798733 50.591346 25.816083 50.673077 25.833180 50.754808 25.850019 50.836538 25.866598 50.918269 25.882913 51.000000 25.898960 51.081731 25.914735 51.163462 25.930235 51.245192 25.945456 51.326923 25.960394 51.408654 25.975046 51.490385 25.989409 51.572115 26.003478 51.653846 26.017249 51.735577 26.030720 51.817308 26.043887 51.899038 26.056745 51.980769 26.069292 52.062500 26.081524 52.144231 26.093436 52.225962 26.105026 52.307692 26.116289 52.389423 26.127223 52.471154 26.137823 52.552885 26.148085 52.634615 26.158007 52.716346 26.167584 52.798077 26.176813 52.879808 26.185691 52.961538 26.194213 53.043269 26.202375 53.125000 26.210175 53.206731 26.217609 53.288462 26.224672 53.370192 26.231362 53.451923 26.237675 53.533654 26.243606 53.615385 26.249153 53.697115 26.254312 53.778846 26.259079 53.860577 26.263450 53.942308 26.267422 54.024038 26.270991 54.105769 26.274154 54.187500 26.276906 54.269231 26.279245 54.350962 26.281166 54.432692 26.282666 54.514423 26.283742 54.596154 26.284389 54.677885 26.284604 54.759615 26.284384 54.841346 26.283724 54.923077 26.282621 55.004808 26.281072 55.086538 26.279072 55.168269 26.276618 55.250000 26.273707 55.331731 26.270335 55.413462 26.266498 55.495192 26.262193 55.576923 26.257415 55.658654 26.252162 55.740385 26.246429 55.822115 26.240213 55.903846 26.233511 55.985577 26.226318 56.067308 26.218631 56.149038 26.210447 56.230769 26.201761 56.312500 26.192570 56.394231 26.182871 56.475962 26.172660 56.557692 26.161933 56.639423 26.150686 56.721154 26.138916 56.802885 26.126619 56.884615 26.113792 56.966346 26.100431 57.048077 26.086532 57.129808 26.072092 57.211538 26.057107 57.293269 26.041573 57.375000 26.025486 57.456731 26.008844 57.538462 25.991642 57.620192 25.973877 57.701923 25.955545 57.783654 25.936643 57.865385 25.917166 57.947115 25.897112 58.028846 25.876476 58.110577 25.855255 58.192308 25.833445 58.274038 25.811043 58.355769 25.788045 58.437500 25.764447 58.519231 25.740245 58.600962 25.715437 58.682692 25.690018 58.764423 25.663985 58.846154 25.637334 58.927885 25.610061 59.009615 25.582163 59.091346 25.553637 59.173077 25.524477 59.254808 25.494682 59.336538 25.464247 59.418269 25.433168 59.500000 25.401442 59.581731 25.369066 59.663462 25.336035 59.745192 25.302346 59.826923 25.267996 59.908654 25.232980 59.990385 25.197295 60.072115 25.160938 60.153846 25.123904 60.235577 25.086191 60.317308 25.047794 60.399038 25.008710 60.480769 24.968935 60.562500 24.928465 60.644231 24.887297 60.725962 24.845428 60.807692 24.802853 60.889423 24.759569 60.971154 24.715573 61.052885 24.670860 61.134615 24.625427 61.216346 24.579271 61.298077 24.532387 61.379808 24.484772 61.461538 24.436423 61.543269 24.387335 61.625000 24.337506 61.706731 24.286931 61.788462 24.235607 61.870192 24.183530 61.951923 24.130697 62.033654 24.077103 62.115385 24.022746 62.197115 23.967622 62.278846 23.911726 62.360577 23.855056 62.442308 23.797608 62.524038 23.739377 62.605769 23.680361 62.687500 23.620556 62.769231 23.559958 62.850962 23.498563 62.932692 23.436368 63.014423 23.373369 63.096154 23.309563 63.177885 23.244946 63.259615 23.179514 63.341346 23.113263 63.423077 23.046191 63.504808 22.978292 63.586538 22.909565 63.668269 22.840004 63.750000 22.769607 63.831731 22.698369 63.913462 22.626288 63.995192 22.553359 64.076923 22.479578 64.158654 22.404943 64.240385 22.329450 64.322115 22.253094 64.403846 22.175872 64.485577 22.097781 64.567308 22.018817 64.649038 21.938978 64.730769 21.858273 64.812500 21.776710 64.894231 21.694301 64.975962 21.611055 65.057692 21.526981 65.139423 21.442091 65.221154 21.356393 65.302885 21.269898 65.384615 21.182615 65.466346 21.094555 65.548077 21.005728 65.629808 20.916142 65.711538 20.825809 65.793269 20.734739 65.875000 20.642940 65.956731 20.550424 66.038462 20.457199 66.120192 20.363277 66.201923 20.268666 66.283654 20.173377 66.365385 20.077420 66.447115 19.980804 66.528846 19.883540 66.610577 19.785638 66.692308 19.687107 66.774038 19.587957 66.855769 19.488198 66.937500 19.387841 67.019231 19.286895 67.100962 19.185370 67.182692 19.083276 67.264423 18.980622 67.346154 18.877420 67.427885 18.773678 67.509615 18.669407 67.591346 18.564617 67.673077 18.459317 67.754808 18.353517 67.836538 18.247228 67.918269 18.140459 68.000000 18.033221 68.081731 17.925523 68.163462 17.817374 68.245192 17.708786 68.326923 17.599768 68.408654 17.490329 68.490385 17.380480 68.572115 17.270231 68.653846 17.159592 68.735577 17.048572 68.817308 16.937182 68.899038 16.825431 68.980769 16.713330 69.062500 16.600887 69.144231 16.488114 69.225962 16.375020 69.307692 16.261616 69.389423 16.147910 69.471154 16.033913 69.552885 15.919634 69.634615 15.805085 69.716346 15.690274 69.798077 15.575212 69.879808 15.459908 69.961538 15.344373 70.043269 15.228616 70.125000 15.112648 70.206731 14.996478 70.288462 14.880116 70.370192 14.763572 70.451923 14.646856 70.533654 14.529978 70.615385 14.412947 70.697115 14.295775 70.778846 14.178470 70.860577 14.061043 70.942308 13.943504 71.024038 13.825862 71.105769 13.708127 71.187500 13.590310 71.269231 13.472420 71.350962 13.354467 71.432692 13.236462 71.514423 13.118413 71.596154 13.000332 71.677885 12.882227 71.759615 12.764109 71.841346 12.645988 71.923077 12.527874 72.004808 12.409776 72.086538 12.291705 72.168269 12.173670 72.250000 12.055681 72.331731 11.937749 72.413462 11.819883 72.495192 11.702094 72.576923 11.584390 72.658654 11.466782 72.740385 11.349281 72.822115 11.231895 72.903846 11.114635 72.985577 10.997511 73.067308 10.880532 73.149038 10.763709 73.230769 10.647051 73.312500 10.530569 73.394231 10.414272 73.475962 10.298171 73.557692 10.182275 73.639423 10.066593 73.721154 9.951137 73.802885 9.835916 73.884615 9.720940 73.966346 9.606218 74.048077 9.491762 74.129808 9.377580 74.211538 9.263683 74.293269 9.150080 74.375000 9.036781 74.456731 8.923797 74.538462 8.811138 74.620192 8.698812 74.701923 8.586831 74.783654 8.475204 74.865385 8.363941 74.947115 8.253052 75.028846 8.142546 75.110577 8.032435 75.192308 7.922727 75.274038 7.813433 75.355769 7.704562 75.437500 7.596125 75.519231 7.488132 75.600962 7.380591 75.682692 7.273514 75.764423 7.166911 75.846154 7.060790 75.927885 6.955162 76.009615 6.850038 76.091346 6.745426 76.173077 6.641337 76.254808 6.537781 76.336538 6.434768 76.418269 6.332307 76.500000 6.230408 76.581731 6.129083 76.663462 6.028339 76.745192 5.928188 76.826923 5.828639 76.908654 5.729703 76.990385 5.631388 77.072115 5.533705 77.153846 5.436665 77.235577 5.340276 77.317308 5.244549 77.399038 5.149494 77.480769 5.055120 77.562500 4.961438 77.644231 4.868458 77.725962 4.776189 77.807692 4.684641 77.889423 4.593825 77.971154 4.503750 78.052885 4.414426 78.134615 4.325863 78.216346 4.238071 78.298077 4.151060 78.379808 4.064839 78.461538 3.979420 78.543269 3.894811 78.625000 3.811023 78.706731 3.728065 78.788462 3.645948 78.870192 3.564681 78.951923 3.484275 79.033654 3.404739 79.115385 3.326083 79.197115 3.248317 79.278846 3.171451 79.360577 3.095495 79.442308 3.020459 79.524038 2.946353 79.605769 2.873186 79.687500 2.800969 79.769231 2.729712 79.850962 2.659424 79.932692 2.590116 80.014423 2.521797 80.096154 2.454477 80.177885 2.388167 80.259615 2.322875 80.341346 2.258613 80.423077 2.195390 80.504808 2.133215 80.586538 2.072100 80.668269 2.012053 80.750000 1.953085 80.831731 1.895206 80.913462 1.838425 80.995192 1.782752 81.076923 1.728198 81.158654 1.674773 81.240385 1.622485 81.322115 1.571346 81.403846 1.521365 81.485577 1.472552 81.567308 1.424917 81.649038 1.378469 81.730769 1.333220 81.812500 1.289178 81.894231 1.246354 81.975962 1.204757 82.057692 1.164398 82.139423 1.125287 82.221154 1.087433 82.302885 1.050846 82.384615 1.015536 82.466346 0.981514 82.548077 0.948788 82.629808 0.917370 82.711538 0.887268 82.793269 0.858493 82.875000 0.831055 82.956731 0.804964 83.038462 0.780230 83.120192 0.756861 83.201923 0.734870 83.283654 0.714265 83.365385 0.695056 83.447115 0.677253 83.528846 0.660867 83.610577 0.645907 83.692308 0.632382 83.774038 0.620304 83.855769 0.609682 83.937500 0.600525 84.019231 0.592844 84.100962 0.586649 84.182692 0.581949 84.264423 0.578755 84.346154 0.577076 84.427885 0.576923 84.509615 0.578305 84.591346 0.581232 84.673077 0.585715 84.754808 0.591762 84.836538 0.599384 84.918269 0.608592 85.000000 0.619394 85.081731 0.631798 85.163462 0.645795 85.245192 0.661376 85.326923 0.678530 85.408654 0.697246 85.490385 0.717514 85.572115 0.739322 85.653846 0.762661 85.735577 0.787519 85.817308 0.813886 85.899038 0.841751 85.980769 0.871103 86.062500 0.901933 86.144231 0.934228 86.225962 0.967979 86.307692 1.003175 86.389423 1.039806 86.471154 1.077859 86.552885 1.117326 86.634615 1.158195 86.716346 1.200455 86.798077 1.244097 86.879808 1.289109 86.961538 1.335480 87.043269 1.383200 87.125000 1.432259 87.206731 1.482645 87.288462 1.534348 87.370192 1.587357 87.451923 1.641662 87.533654 1.697253 87.615385 1.754117 87.697115 1.812245 87.778846 1.871626 87.860577 1.932249 87.942308 1.994104 88.024038 2.057181 88.105769 2.121467 88.187500 2.186953 88.269231 2.253628 88.350962 2.321482 88.432692 2.390503 88.514423 2.460682 88.596154 2.532006 88.677885 2.604467 88.759615 2.678053 88.841346 2.752753 88.923077 2.828557 89.004808 2.905454 89.086538 2.983433 89.168269 3.062484 89.250000 3.142596 89.331731 3.223759 89.413462 3.305962 89.495192 3.389193 89.576923 3.473444 89.658654 3.558702 89.740385 3.644957 89.822115 3.732199 89.903846 3.820416 89.985577 3.909599 90.067308 3.999736 90.149038 4.090818 90.230769 4.182832 90.312500 4.275769 90.394231 4.369618 90.475962 4.464368 90.557692 4.560008 90.639423 4.656529 90.721154 4.753919 90.802885 4.852167 90.884615 4.951264 90.966346 5.051197 91.048077 5.151957 91.129808 5.253534 91.211538 5.355915 91.293269 5.459091 91.375000 5.563051 91.456731 5.667785 91.538462 5.773281 91.620192 5.879529 91.701923 5.986518 91.783654 6.094238 91.865385 6.202678 91.947115 6.311828 92.028846 6.421676 92.110577 6.532212 92.192308 6.643426 92.274038 6.755306 92.355769 6.867842 92.437500 6.981024 92.519231 7.094840 92.600962 7.209281 92.682692 7.324335 92.764423 7.439992 92.846154 7.556241 92.927885 7.673071 93.009615 7.790472 93.091346 7.908433 93.173077 8.026944 93.254808 8.145993 93.336538 8.265571 93.418269 8.385666 93.500000 8.506268 93.581731 8.627366 93.663462 8.748949 93.745192 8.871008 93.826923 8.993530 93.908654 9.116506 93.990385 9.239925 94.072115 9.363776 94.153846 9.488049 94.235577 9.612733 94.317308 9.737816 94.399038 9.863290 94.480769 9.989142 94.562500 10.115363 94.644231 10.241941 94.725962 10.368866 94.807692 10.496127 94.889423 10.623714 94.971154 10.751616 95.052885 10.879822 95.134615 11.008322 95.216346 11.137105 95.298077 11.266160 95.379808 11.395476 95.461538 11.525044 95.543269 11.654852 95.625000 11.784890 95.706731 11.915146 95.788462 12.045611 95.870192 12.176274 95.951923 12.307124 96.033654 12.438150 96.115385 12.569342 96.197115 12.700689 96.278846 12.832180 96.360577 12.963805 96.442308 13.095553 96.524038 13.227414 96.605769 13.359376 96.687500 13.491429 96.769231 13.623563 96.850962 13.755766 96.932692 13.888029 97.014423 14.020340 97.096154 14.152689 97.177885 14.285065 97.259615 14.417458 97.341346 14.549856 97.423077 14.682249 97.504808 14.814627 97.586538 14.946979 97.668269 15.079294 97.750000 15.211562 97.831731 15.343771 97.913462 15.475912 97.995192 15.607973 98.076923 15.739944 98.158654 15.871814 98.240385 16.003573 98.322115 16.135209 98.403846 16.266713 98.485577 16.398073 98.567308 16.529280 98.649038 16.660321 98.730769 16.791188 98.812500 16.921868 98.894231 17.052351 98.975962 17.182627 99.057692 17.312685 99.139423 17.442515 99.221154 17.572105 99.302885 17.701444 99.384615 17.830524 99.466346 17.959332 99.548077 18.087858 99.629808 18.216091 99.711538 18.344021 99.793269 18.471637 99.875000 18.598928 99.956731 18.725884 100.038462 18.852494 100.120192 18.978747 100.201923 19.104634 100.283654 19.230142 100.365385 19.355262 100.447115 19.479982 100.528846 19.604292 100.610577 19.728182 100.692308 19.851641 100.774038 19.974658 100.855769 20.097222 100.937500 20.219323 101.019231 20.340950 101.100962 20.462092 101.182692 20.582740 101.264423 20.702881 101.346154 20.822506 101.427885 20.941604 101.509615 21.060164 101.591346 21.178176 101.673077 21.295628 101.754808 21.412511 101.836538 21.528813 101.918269 21.644524 102.000000 21.759633 102.081731 21.874129 102.163462 21.988003 102.245192 22.101243 102.326923 22.213838 102.408654 22.325778 102.490385 22.437053 102.572115 22.547651 102.653846 22.657562 102.735577 22.766776 102.817308 22.875280 102.899038 22.983066 102.980769 23.090123 103.062500 23.196438 103.144231 23.302003 103.225962 23.406806 103.307692 23.510837 103.389423 23.614085 103.471154 23.716539 103.552885 23.818189 103.634615 23.919023 103.716346 24.019032 103.798077 24.118205 103.879808 24.216531 103.961538 24.313999 104.043269 24.410599 104.125000 24.506320 104.206731 24.601152 104.288462 24.695083 104.370192 24.788103 104.451923 24.880201 104.533654 24.971368 104.615385 25.061591 104.697115 25.150861 104.778846 25.239167 104.860577 25.326498 104.942308 25.412843 105.024038 25.498192 105.105769 25.582534 105.187500 25.665859 105.269231 25.748155 105.350962 25.829413 105.432692 25.909621 105.514423 25.988772 105.596154 26.066867 105.677885 26.143913 105.759615 26.219913 105.841346 26.294874 105.923077 26.368800 106.004808 26.441696 106.086538 26.513567 106.168269 26.584419 106.250000 26.654257 106.331731 26.723085 106.413462 26.790908 106.495192 26.857733 106.576923 26.923563 106.658654 26.988404 106.740385 27.052261 106.822115 27.115139 106.903846 27.177043 106.985577 27.237978 107.067308 27.297949 107.149038 27.356962 107.230769 27.415021 107.312500 27.472131 107.394231 27.528298 107.475962 27.583527 107.557692 27.637822 107.639423 27.691189 107.721154 27.743632 107.802885 27.795158 107.884615 27.845770 107.966346 27.895475 108.048077 27.944277 108.129808 27.992180 108.211538 28.039192 108.293269 28.085315 108.375000 28.130556 108.456731 28.174919 108.538462 28.218410 108.620192 28.261033 108.701923 28.302794 108.783654 28.343698 108.865385 28.383749 108.947115 28.422954 109.028846 28.461316 109.110577 28.498841 109.192308 28.535535 109.274038 28.571402 109.355769 28.606447 109.437500 28.640675 109.519231 28.674092 109.600962 28.706702 109.682692 28.738511 109.764423 28.769523 109.846154 28.799744 109.927885 28.829179 110.009615 28.857833 110.091346 28.885710 110.173077 28.912817 110.254808 28.939157 110.336538 28.964737 110.418269 28.989561 110.500000 29.013634 110.581731 29.036962 110.663462 29.059549 110.745192 29.081400 110.826923 29.102521 110.908654 29.122917 110.990385 29.142592 111.072115 29.161552 111.153846 29.179802 111.235577 29.197347 111.317308 29.214192 111.399038 29.230342 111.480769 29.245802 111.562500 29.260577 111.644231 29.274673 111.725962 29.288094 111.807692 29.300845 111.889423 29.312932 111.971154 29.324360 112.052885 29.335133 112.134615 29.345257 112.216346 29.354737 112.298077 29.363577 112.379808 29.371784 112.461538 29.379361 112.543269 29.386315 112.625000 29.392649 112.706731 29.398370 112.788462 29.403483 112.870192 29.407991 112.951923 29.411902 113.033654 29.415218 113.115385 29.417946 113.197115 29.420091 113.278846 29.421658 113.360577 29.422652 113.442308 29.423077 113.524038 29.422939 113.605769 29.422244 113.687500 29.420995 113.769231 29.419199 113.850962 29.416860 113.932692 29.413983 114.014423 29.410573 114.096154 29.406637 114.177885 29.402177 114.259615 29.397200 114.341346 29.391711 114.423077 29.385715 114.504808 29.379217 114.586538 29.372221 114.668269 29.364733 114.750000 29.356759 114.831731 29.348302 114.913462 29.339369 114.995192 29.329964 115.076923 29.320093 115.158654 29.309759 115.240385 29.298970 115.322115 29.287729 115.403846 29.276041 115.485577 29.263912 115.567308 29.251347 115.649038 29.238351 115.730769 29.224929 115.812500 29.211085 115.894231 29.196826 115.975962 29.182156 116.057692 29.167080 116.139423 29.151604 116.221154 29.135732 116.302885 29.119469 116.384615 29.102821 116.466346 29.085792 116.548077 29.068388 116.629808 29.050613 116.711538 29.032474 116.793269 29.013974 116.875000 28.995120 116.956731 28.975915 117.038462 28.956365 117.120192 28.936476 117.201923 28.916252 117.283654 28.895698 117.365385 28.874819 117.447115 28.853621 117.528846 28.832108 117.610577 28.810286 117.692308 28.788160 117.774038 28.765734 117.855769 28.743015 117.937500 28.720006 118.019231 28.696713 118.100962 28.673141 118.182692 28.649295 118.264423 28.625180 118.346154 28.600802 118.427885 28.576165 118.509615 28.551274 118.591346 28.526135 118.673077 28.500753 118.754808 28.475131 118.836538 28.449277 118.918269 28.423195 119.000000 28.396889 119.081731 28.370365 119.163462 28.343628 119.245192 28.316683 119.326923 28.289535 119.408654 28.262190 119.490385 28.234652 119.572115 28.206926 119.653846 28.179017 119.735577 28.150931 119.817308 28.122673 119.899038 28.094247 119.980769 28.065659 120.062500 28.036913 120.144231 28.008016 120.225962 27.978971 120.307692 27.949784 120.389423 27.920461 120.471154 27.891005 120.552885 27.861423 120.634615 27.831719 120.716346 27.801899 120.798077 27.771967 120.879808 27.741928 120.961538 27.711788 121.043269 27.681551 121.125000 27.651224 121.206731 27.620810 121.288462 27.590315 121.370192 27.559744 121.451923 27.529101 121.533654 27.498393 121.615385 27.467625 121.697115 27.436800 121.778846 27.405925 121.860577 27.375004 121.942308 27.344042 122.024038 27.313045 122.105769 27.282018 122.187500 27.250965 122.269231 27.219892 122.350962 27.188804 122.432692 27.157705 122.514423 27.126602 122.596154 27.095499 122.677885 27.064400 122.759615 27.033312 122.841346 27.002240 122.923077 26.971187 123.004808 26.940160 123.086538 26.909163 123.168269 26.878202 123.250000 26.847282 123.331731 26.816407 123.413462 26.785583 123.495192 26.754814 123.576923 26.724107 123.658654 26.693466 123.740385 26.662895 123.822115 26.632401 123.903846 26.601988 123.985577 26.571661 124.067308 26.541426 124.149038 26.511287 124.230769 26.481249 124.312500 26.451318 124.394231 26.421499 124.475962 26.391796 124.557692 26.362215 124.639423 26.332761 124.721154 26.303439 124.802885 26.274254 124.884615 26.245211 124.966346 26.216315 125.048077 26.187571 125.129808 26.158985 125.211538 26.130561 125.293269 26.102304 125.375000 26.074220 125.456731 26.046313 125.538462 26.018589 125.620192 25.991053 125.701923 25.963709 125.783654 25.936564 125.865385 25.909621 125.947115 25.882885 126.028846 25.856357 126.110577 25.830035 126.192308 25.803920 126.274038 25.778010 126.355769 25.752304 126.437500 25.726802 126.519231 25.701504 126.600962 25.676409 126.682692 25.651515 126.764423 25.626823 126.846154 25.602331 126.927885 25.578040 127.009615 25.553947 127.091346 25.530054 127.173077 25.506358 127.254808 25.482860 127.336538 25.459559 127.418269 25.436453 127.500000 25.413543 127.581731 25.390828 127.663462 25.368306 127.745192 25.345978 127.826923 25.323842 127.908654 25.301899 127.990385 25.280147 128.072115 25.258586 128.153846 25.237214 128.235577 25.216032 128.317308 25.195039 128.399038 25.174233 128.480769 25.153615 128.562500 25.133184 128.644231 25.112939 128.725962 25.092879 128.807692 25.073003 128.889423 25.053312 128.971154 25.033804 129.052885 25.014479 129.134615 24.995335 129.216346 24.976373 129.298077 24.957592 129.379808 24.938991 129.461538 24.920569 129.543269 24.902326 129.625000 24.884261 129.706731 24.866373 129.788462 24.848662 129.870192 24.831126 129.951923 24.813767 130.033654 24.796581 130.115385 24.779570 130.197115 24.762733 130.278846 24.746067 130.360577 24.729574 130.442308 24.713253 130.524038 24.697102 130.605769 24.681121 130.687500 24.665309 130.769231 24.649666 130.850962 24.634191 130.932692 24.618883 131.014423 24.603742 131.096154 24.588767 131.177885 24.573958 131.259615 24.559313 131.341346 24.544832 131.423077 24.530514 131.504808 24.516360 131.586538 24.502367 131.668269 24.488535 131.750000 24.474864 131.831731 24.461354 131.913462 24.448002 131.995192 24.434809 132.076923 24.421775 132.158654 24.408897 132.240385 24.396177 132.322115 24.383612 132.403846 24.371203 132.485577 24.358948 132.567308 24.346847 132.649038 24.334900 132.730769 24.323105 132.812500 24.311463 132.894231 24.299972 132.975962 24.288631 133.057692 24.277441 133.139423 24.266399 133.221154 24.255507 133.302885 24.244763 133.384615 24.234165 133.466346 24.223715 133.548077 24.213411 133.629808 24.203252 133.711538 24.193237 133.793269 24.183367 133.875000 24.173640 133.956731 24.164056 134.038462 24.154613 134.120192 24.145312 134.201923 24.136152 134.283654 24.127132 134.365385 24.118251 134.447115 24.109509 134.528846 24.100905 134.610577 24.092438 134.692308 24.084108 134.774038 24.075914 134.855769 24.067855 134.937500 24.059931 135.019231 24.052141 135.100962 24.044485 135.182692 24.036961 135.264423 24.029569 135.346154 24.022308 135.427885 24.015178 135.509615 24.008178 135.591346 24.001308 135.673077 23.994566 135.754808 23.987952 135.836538 23.981466 135.918269 23.975106 136.000000 23.968872 136.081731 23.962764 136.163462 23.956780 136.245192 23.950921 136.326923 23.945184 136.408654 23.939571 136.490385 23.934079 136.572115 23.928709 136.653846 23.923460 136.735577 23.918330 136.817308 23.913320 136.899038 23.908429 136.980769 23.903655 137.062500 23.898999 137.144231 23.894460 137.225962 23.890036 137.307692 23.885729 137.389423 23.881535 137.471154 23.877456 137.552885 23.873490 137.634615 23.869637 137.716346 23.865896 137.798077 23.862266 137.879808 23.858747 137.961538 23.855338 138.043269 23.852038 138.125000 23.848847 138.206731 23.845764 138.288462 23.842789 138.370192 23.839920 138.451923 23.837157 138.533654 23.834499 138.615385 23.831946 138.697115 23.829498 138.778846 23.827152 138.860577 23.824909 138.942308 23.822769 139.024038 23.820729 139.105769 23.818791 139.187500 23.816952 139.269231 23.815213 139.350962 23.813572 139.432692 23.812030 139.514423 23.810585 139.596154 23.809236 139.677885 23.807984 139.759615 23.806827 139.841346 23.805764 139.923077 23.804796 140.004808 23.803921 140.086538 23.803139 140.168269 23.802449 140.250000 23.801850 140.331731 23.801341 140.413462 23.800923 140.495192 23.800595 140.576923 23.800354 140.658654 23.800202 140.740385 23.800138 140.822115 23.800160 140.903846 23.800268 140.985577 23.800461 141.067308 23.800739 141.149038 23.801102 141.230769 23.801547 141.312500 23.802075 141.394231 23.802686 141.475962 23.803377 141.557692 23.804150 141.639423 23.805002 141.721154 23.805934 141.802885 23.806944 141.884615 23.808033 141.966346 23.809199 142.048077 23.810441 142.129808 23.811760 142.211538 23.813154 142.293269 23.814622 142.375000 23.816165 142.456731 23.817781 142.538462 23.819470 142.620192 23.821231 142.701923 23.823063 142.783654 23.824966 142.865385 23.826939 142.947115 23.828981 143.028846 23.831092 143.110577 23.833271 143.192308 23.835518 143.274038 23.837831 143.355769 23.840210 143.437500 23.842654 143.519231 23.845164 143.600962 23.847737 143.682692 23.850374 143.764423 23.853073 143.846154 23.855834 143.927885 23.858657 144.009615 23.861541 144.091346 23.864484 144.173077 23.867487 144.254808 23.870549 144.336538 23.873668 144.418269 23.876845 144.500000 23.880079 144.581731 23.883369 144.663462 23.886714 144.745192 23.890114 144.826923 23.893568 144.908654 23.897075 144.990385 23.900635 145.072115 23.904247 145.153846 23.907910 145.235577 23.911624 145.317308 23.915389 145.399038 23.919202 145.480769 23.923064 145.562500 23.926975 145.644231 23.930932 145.725962 23.934937 145.807692 23.938987 145.889423 23.943083 145.971154 23.947223 146.052885 23.951408 146.134615 23.955636 146.216346 23.959906 146.298077 23.964219 146.379808 23.968573 146.461538 23.972968 146.543269 23.977405 146.625000 23.981882 146.706731 23.986400 146.788462 23.990959 146.870192 23.995557 146.951923 24.000197 147.033654 24.004876 147.115385 24.009595 147.197115 24.014354 147.278846 24.019152 147.360577 24.023990 147.442308 24.028867 147.524038 24.033783 147.605769 24.038738 147.687500 24.043731 147.769231 24.048764 147.850962 24.053834 147.932692 24.058943 148.014423 24.064090 148.096154 24.069275 148.177885 24.074497 148.259615 24.079758 148.341346 24.085055 148.423077 24.090390 148.504808 24.095762 148.586538 24.101170 148.668269 24.106616 148.750000 24.112098 148.831731 24.117617 148.913462 24.123171 148.995192 24.128762 149.076923 24.134389 149.158654 24.140051 149.240385 24.145749 149.322115 24.151483 149.403846 24.157252 149.485577 24.163055 149.567308 24.168894 149.649038 24.174768 149.730769 24.180676 149.812500 24.186618 149.894231 24.192595 149.975962 24.198606 150.057692 24.204651 150.139423 24.210729 150.221154 24.216842 150.302885 24.222987 150.384615 24.229166 150.466346 24.235378 150.548077 24.241623 150.629808 24.247901 150.711538 24.254211 150.793269 24.260554 150.875000 24.266929 150.956731 24.273336 151.038462 24.279775 151.120192 24.286246 151.201923 24.292748 151.283654 24.299282 151.365385 24.305847 151.447115 24.312444 151.528846 24.319071 151.610577 24.325729 151.692308 24.332418 151.774038 24.339137 151.855769 24.345886 151.937500 24.352666 152.019231 24.359475 152.100962 24.366314 152.182692 24.373183 152.264423 24.380082 152.346154 24.387009 152.427885 24.393966 152.509615 24.400952 152.591346 24.407966 152.673077 24.415010 152.754808 24.422081 152.836538 24.429181 152.918269 24.436309 153.000000 24.443465 153.081731 24.450649 153.163462 24.457861 153.245192 24.465100 153.326923 24.472366 153.408654 24.479659 153.490385 24.486980 153.572115 24.494327 153.653846 24.501701 153.735577 24.509101 153.817308 24.516528 153.899038 24.523981 153.980769 24.531460 154.062500 24.538964 154.144231 24.546494 154.225962 24.554050 154.307692 24.561631 154.389423 24.569238 154.471154 24.576869 154.552885 24.584525 154.634615 24.592206 154.716346 24.599911 154.798077 24.607640 154.879808 24.615394 154.961538 24.623172 155.043269 24.630973 155.125000 24.638799 155.206731 24.646647 155.288462 24.654519 155.370192 24.662415 155.451923 24.670333 155.533654 24.678274 155.615385 24.686238 155.697115 24.694224 155.778846 24.702233 155.860577 24.710263 155.942308 24.718316 156.024038 24.726391 156.105769 24.734487 156.187500 24.742605 156.269231 24.750744 156.350962 24.758904 156.432692 24.767086 156.514423 24.775288 156.596154 24.783511 156.677885 24.791755 156.759615 24.800018 156.841346 24.808302 156.923077 24.816606 157.004808 24.824930 157.086538 24.833274 157.168269 24.841637 157.250000 24.850020 157.331731 24.858421 157.413462 24.866842 157.495192 24.875282 157.576923 24.883740 157.658654 24.892217 157.740385 24.900712 157.822115 24.909225 157.903846 24.917757 157.985577 24.926306 158.067308 24.934873 158.149038 24.943458 158.230769 24.952060 158.312500 24.960679 158.394231 24.969315 158.475962 24.977968 158.557692 24.986638 158.639423 24.995324 158.721154 25.004027 158.802885 25.012746 158.884615 25.021481 158.966346 25.030232 159.048077 25.038999 159.129808 25.047781 159.211538 25.056579 159.293269 25.065391 159.375000 25.074219 159.456731 25.083062 159.538462 25.091920 159.620192 25.100792 159.701923 25.109678 159.783654 25.118579 159.865385 25.127494 159.947115 25.136422 160.028846 25.145365 160.110577 25.154321 160.192308 25.163290 160.274038 25.172273 160.355769 25.181268 160.437500 25.190277 160.519231 25.199298 160.600962 25.208332 160.682692 25.217379 160.764423 25.226437 160.846154 25.235508 160.927885 25.244591 161.009615 25.253685 161.091346 25.262791 161.173077 25.271908 161.254808 25.281037 161.336538 25.290177 161.418269 25.299327 161.500000 25.308489 161.581731 25.317661 161.663462 25.326843 161.745192 25.336036 161.826923 25.345239 161.908654 25.354451 161.990385 25.363674 162.072115 25.372906 162.153846 25.382147 162.235577 25.391398 162.317308 25.400658 162.399038 25.409927 162.480769 25.419204 162.562500 25.428490 162.644231 25.437785 162.725962 25.447088 162.807692 25.456399 162.889423 25.465718 162.971154 25.475045 163.052885 25.484379 163.134615 25.493721 163.216346 25.503070 163.298077 25.512426 163.379808 25.521789 163.461538 25.531159 163.543269 25.540536 163.625000 25.549919 163.706731 25.559308 163.788462 25.568704 163.870192 25.578105 163.951923 25.587512 164.033654 25.596925 164.115385 25.606343 164.197115 25.615767 164.278846 25.625195 164.360577 25.634629 164.442308 25.644068 164.524038 25.653511 164.605769 25.662958 164.687500 25.672410 164.769231 25.681866 164.850962 25.691326 164.932692 25.700790 165.014423 25.710257 165.096154 25.719728 165.177885 25.729202 165.259615 25.738680 165.341346 25.748160 165.423077 25.757643 165.504808 25.767129 165.586538 25.776617 165.668269 25.786108 165.750000 25.795601 165.831731 25.805095 165.913462 25.814592 165.995192 25.824090 166.076923 25.833590 166.158654 25.843091 166.240385 25.852593 166.322115 25.862096 166.403846 25.871600 166.485577 25.881105 166.567308 25.890610 166.649038 25.900115 166.730769 25.909621" class="line reactive nofill" /></g></g><g class="titles" /><g transform="translate(20, 10)" class="plot overlay"><g class="series serie-0 color-0" /></g><g transform="translate(20, 10)" class="plot text-overlay"><g class="series serie-0 color-0" /></g><g transform="translate(20, 10)" class="plot tooltip-overlay"><g transform="translate(0 0)" style="opacity: 0" class="tooltip"><rect rx="0" ry="0" width="0" height="0" class="tooltip-box" /><g class="text" /></g></g></g></svg>