<?xml version='1.0' encoding='utf-8'?>
<svg xmlns="http://www.w3.org/2000/svg" id="chart-84380773-8495-4f8a-8e6b-6369ed29d33e" class="pygal-chart pygal-sparkline" viewBox="0 0 200 50" width="200" height="50"><!--Generated with pygal 3.0.4 (etree) ©Kozea 2012-2016 on 2024-05-12--><!--http://pygal.org--><!--http://github.com/Kozea/pygal--><defs><style type="text/css">#chart-84380773-8495-4f8a-8e6b-6369ed29d33e{-webkit-user-select:none;-webkit-font-smoothing:antialiased;font-family:Consolas,"Liberation Mono",Menlo,Courier,monospace}#chart-84380773-8495-4f8a-8e6b-6369ed29d33e .title{font-family:Consolas,"Liberation Mono",Menlo,Courier,monospace;font-size:16px}#chart-84380773-8495-4f8a-8e6b-6369ed29d33e .legends .legend text{font-family:Consolas,"Liberation Mono",Menlo,Courier,monospace;font-size:14px}#chart-84380773-8495-4f8a-8e6b-6369ed29d33e .axis text{font-family:Consolas,"Liberation Mono",Menlo,Courier,monospace;font-size:10px}#chart-84380773-8495-4f8a-8e6b-6369ed29d33e .axis text.major{font-family:Consolas,"Liberation Mono",Menlo,Courier,monospace;font-size:10px}#chart-84380773-8495-4f8a-8e6b-6369ed29d33e .text-overlay text.value{font-family:Consolas,"Liberation Mono",Menlo,Courier,monospace;font-size:16px}#chart-84380773-8495-4f8a-8e6b-6369ed29d33e .text-overlay text.label{font-family:Consolas,"Liberation Mono",Menlo,Courier,monospace;font-size:10px}#chart-84380773-8495-4f8a-8e6b-6369ed29d33e .tooltip{font-family:Consolas,"Liberation Mono",Menlo,Courier,monospace;font-size:14px}#chart-84380773-8495-4f8a-8e6b-6369ed29d33e text.no_data{font-family:Consolas,"Liberation Mono",Menlo,Courier,monospace;font-size:64px}
#chart-84380773-8495-4f8a-8e6b-6369ed29d33e{background-color:rgba(249,249,249,1)}#chart-84380773-8495-4f8a-8e6b-6369ed29d33e path,#chart-84380773-8495-4f8a-8e6b-6369ed29d33e line,#chart-84380773-8495-4f8a-8e6b-6369ed29d33e rect,#chart-84380773-8495-4f8a-8e6b-6369ed29d33e circle{-webkit-transition:150ms;-moz-transition:150ms;transition:150ms}#chart-84380773-8495-4f8a-8e6b-6369ed29d33e .graph &gt; .background{fill:rgba(249,249,249,1)}#chart-84380773-8495-4f8a-8e6b-6369ed29d33e .plot &gt; .background{fill:rgba(255,255,255,1)}#chart-84380773-8495-4f8a-8e6b-6369ed29d33e .graph{fill:rgba(0,0,0,.87)}#chart-84380773-8495-4f8a-8e6b-6369ed29d33e text.no_data{fill:rgba(0,0,0,1)}#chart-84380773-8495-4f8a-8e6b-6369ed29d33e .title{fill:rgba(0,0,0,1)}#chart-84380773-8495-4f8a-8e6b-6369ed29d33e .legends .legend text{fill:rgba(0,0,0,.87)}#chart-84380773-8495-4f8a-8e6b-6369ed29d33e .legends .legend:hover text{fill:rgba(0,0,0,1)}#chart-84380773-8495-4f8a-8e6b-6369ed29d33e .axis .line{stroke:rgba(0,0,0,1)}#chart-84380773-8495-4f8a-8e6b-6369ed29d33e .axis .guide.line{stroke:rgba(0,0,0,.54)}#chart-84380773-8495-4f8a-8e6b-6369ed29d33e .axis .major.line{stroke:rgba(0,0,0,.87)}#chart-84380773-8495-4f8a-8e6b-6369ed29d33e .axis text.major{fill:rgba(0,0,0,1)}#chart-84380773-8495-4f8a-8e6b-6369ed29d33e .axis.y .guides:hover .guide.line,#chart-84380773-8495-4f8a-8e6b-6369ed29d33e .line-graph .axis.x .guides:hover .guide.line,#chart-84380773-8495-4f8a-8e6b-6369ed29d33e .stackedline-graph .axis.x .guides:hover .guide.line,#chart-84380773-8495-4f8a-8e6b-6369ed29d33e .xy-graph .axis.x .guides:hover .guide.line{stroke:rgba(0,0,0,1)}#chart-84380773-8495-4f8a-8e6b-6369ed29d33e .axis .guides:hover text{fill:rgba(0,0,0,1)}#chart-84380773-8495-4f8a-8e6b-6369ed29d33e .reactive{fill-opacity:.7;stroke-opacity:.8;stroke-width:1}#chart-84380773-8495-4f8a-8e6b-6369ed29d33e .ci{stroke:rgba(0,0,0,.87)}#chart-84380773-8495-4f8a-8e6b-6369ed29d33e .reactive.active,#chart-84380773-8495-4f8a-8e6b-6369ed29d33e .active .reactive{fill-opacity:.8;stroke-opacity:.9;stroke-width:4}#chart-84380773-8495-4f8a-8e6b-6369ed29d33e .ci .reactive.active{stroke-width:1.5}#chart-84380773-8495-4f8a-8e6b-6369ed29d33e .series text{fill:rgba(0,0,0,1)}#chart-84380773-8495-4f8a-8e6b-6369ed29d33e .tooltip rect{fill:rgba(255,255,255,1);stroke:rgba(0,0,0,1);-webkit-transition:opacity 150ms;-moz-transition:opacity 150ms;transition:opacity 150ms}#chart-84380773-8495-4f8a-8e6b-6369ed29d33e .tooltip .label{fill:rgba(0,0,0,.87)}#chart-84380773-8495-4f8a-8e6b-6369ed29d33e .tooltip .label{fill:rgba(0,0,0,.87)}#chart-84380773-8495-4f8a-8e6b-6369ed29d33e .tooltip .legend{font-size:.8em;fill:rgba(0,0,0,.54)}#chart-84380773-8495-4f8a-8e6b-6369ed29d33e .tooltip .x_label{font-size:.6em;fill:rgba(0,0,0,1)}#chart-84380773-8495-4f8a-8e6b-6369ed29d33e .tooltip .xlink{font-size:.5em;text-decoration:underline}#chart-84380773-8495-4f8a-8e6b-6369ed29d33e .tooltip .value{font-size:1.5em}#chart-84380773-8495-4f8a-8e6b-6369ed29d33e .bound{font-size:.5em}#chart-84380773-8495-4f8a-8e6b-6369ed29d33e .max-value{font-size:.75em;fill:rgba(0,0,0,.54)}#chart-84380773-8495-4f8a-8e6b-6369ed29d33e .map-element{fill:rgba(255,255,255,1);stroke:rgba(0,0,0,.54) !important}#chart-84380773-8495-4f8a-8e6b-6369ed29d33e .map-element .reactive{fill-opacity:inherit;stroke-opacity:inherit}#chart-84380773-8495-4f8a-8e6b-6369ed29d33e .color-0,#chart-84380773-8495-4f8a-8e6b-6369ed29d33e .color-0 a:visited{stroke:#F44336;fill:#F44336}#chart-84380773-8495-4f8a-8e6b-6369ed29d33e .text-overlay .color-0 text{fill:black}
#chart-84380773-8495-4f8a-8e6b-6369ed29d33e text.no_data{text-anchor:middle}#chart-84380773-8495-4f8a-8e6b-6369ed29d33e .guide.line{fill:none}#chart-84380773-8495-4f8a-8e6b-6369ed29d33e .centered{text-anchor:middle}#chart-84380773-8495-4f8a-8e6b-6369ed29d33e .title{text-anchor:middle}#chart-84380773-8495-4f8a-8e6b-6369ed29d33e .legends .legend text{fill-opacity:1}#chart-84380773-8495-4f8a-8e6b-6369ed29d33e .axis.x text{text-anchor:middle}#chart-84380773-8495-4f8a-8e6b-6369ed29d33e .axis.x:not(.web) text[transform]{text-anchor:start}#chart-84380773-8495-4f8a-8e6b-6369ed29d33e .axis.x:not(.web) text[transform].backwards{text-anchor:end}#chart-84380773-8495-4f8a-8e6b-6369ed29d33e .axis.y text{text-anchor:end}#chart-84380773-8495-4f8a-8e6b-6369ed29d33e .axis.y text[transform].backwards{text-anchor:start}#chart-84380773-8495-4f8a-8e6b-6369ed29d33e .axis.y2 text{text-anchor:start}#chart-84380773-8495-4f8a-8e6b-6369ed29d33e .axis.y2 text[transform].backwards{text-anchor:end}#chart-84380773-8495-4f8a-8e6b-6369ed29d33e .axis .guide.line{stroke-dasharray:4,4;stroke:black}#chart-84380773-8495-4f8a-8e6b-6369ed29d33e .axis .major.guide.line{stroke-dasharray:6,6;stroke:black}#chart-84380773-8495-4f8a-8e6b-6369ed29d33e .horizontal .axis.y .guide.line,#chart-84380773-8495-4f8a-8e6b-6369ed29d33e .horizontal .axis.y2 .guide.line,#chart-84380773-8495-4f8a-8e6b-6369ed29d33e .vertical .axis.x .guide.line{opacity:0}#chart-84380773-8495-4f8a-8e6b-6369ed29d33e .horizontal .axis.always_show .guide.line,#chart-84380773-8495-4f8a-8e6b-6369ed29d33e .vertical .axis.always_show .guide.line{opacity:1 !important}#chart-84380773-8495-4f8a-8e6b-6369ed29d33e .axis.y .guides:hover .guide.line,#chart-84380773-8495-4f8a-8e6b-6369ed29d33e .axis.y2 .guides:hover .guide.line,#chart-84380773-8495-4f8a-8e6b-6369ed29d33e .axis.x .guides:hover .guide.line{opacity:1}#chart-84380773-8495-4f8a-8e6b-6369ed29d33e .axis .guides:hover text{opacity:1}#chart-84380773-8495-4f8a-8e6b-6369ed29d33e .nofill{fill:none}#chart-84380773-8495-4f8a-8e6b-6369ed29d33e .subtle-fill{fill-opacity:.2}#chart-84380773-8495-4f8a-8e6b-6369ed29d33e .dot{stroke-width:1px;fill-opacity:1;stroke-opacity:1}#chart-84380773-8495-4f8a-8e6b-6369ed29d33e .dot.active{stroke-width:5px}#chart-84380773-8495-4f8a-8e6b-6369ed29d33e .dot.negative{fill:transparent}#chart-84380773-8495-4f8a-8e6b-6369ed29d33e text,#chart-84380773-8495-4f8a-8e6b-6369ed29d33e tspan{stroke:none !important}#chart-84380773-8495-4f8a-8e6b-6369ed29d33e .series text.active{opacity:1}#chart-84380773-8495-4f8a-8e6b-6369ed29d33e .tooltip rect{fill-opacity:.95;stroke-width:.5}#chart-84380773-8495-4f8a-8e6b-6369ed29d33e .tooltip text{fill-opacity:1}#chart-84380773-8495-4f8a-8e6b-6369ed29d33e .showable{visibility:hidden}#chart-84380773-8495-4f8a-8e6b-6369ed29d33e .showable.shown{visibility:visible}#chart-84380773-8495-4f8a-8e6b-6369ed29d33e .gauge-background{fill:rgba(229,229,229,1);stroke:none}#chart-84380773-8495-4f8a-8e6b-6369ed29d33e .bg-lines{stroke:rgba(249,249,249,1);stroke-width:2px}</style><script type="text/javascript">window.pygal = window.pygal || {};window.pygal.config = window.pygal.config || {};window.pygal.config['84380773-8495-4f8a-8e6b-6369ed29d33e'] = {"allow_interruptions": false, "box_mode": "extremes", "classes": ["pygal-chart", "pygal-sparkline"], "css": ["file://style.css", "file://graph.css"], "defs": [], "disable_xml_declaration": false, "dots_size": 2.5, "dynamic_print_values": false, "explicit_size": true, "fill": false, "force_uri_protocol": "https", "formatter": null, "half_pie": false, "height": 50, "include_x_axis": false, "inner_radius": 0, "interpolate": "cubic", "interpolation_parameters": {}, "interpolation_precision": 250, "inverse_y_axis": false, "js": [], "legend_at_bottom": false, "legend_at_bottom_columns": null, "legend_box_size": 12, "logarithmic": false, "margin": 10, "margin_bottom": null, "margin_left": null, "margin_right": null, "margin_top": null, "max_scale": 2, "min_scale": 1, "missing_value_fill_truncation": "x", "no_data_text": "", "no_prefix": false, "order_min": null, "pretty_print": false, "print_labels": false, "print_values": false, "print_values_position": "center", "print_zeroes": true, "range": null, "rounded_bars": null, "secondary_range": null, "show_dots": false, "show_legend": false, "show_minor_x_labels": true, "show_minor_y_labels": true, "show_only_major_dots": false, "show_x_guides": false, "show_x_labels": false, "show_y_guides": true, "show_y_labels": true, "spacing": 0, "stack_from_top": false, "strict": false, "stroke": true, "stroke_style": null, "style": {"background": "rgba(249, 249, 249, 1)", "ci_colors": [], "colors": ["#F44336", "#3F51B5", "#009688", "#FFC107", "#FF5722", "#9C27B0", "#03A9F4", "#8BC34A", "#FF9800", "#E91E63", "#2196F3", "#4CAF50", "#FFEB3B", "#673AB7", "#00BCD4", "#CDDC39", "#9E9E9E", "#607D8B"], "dot_opacity": "1", "font_family": "Consolas, \"Liberation Mono\", Menlo, Courier, monospace", "foreground": "rgba(0, 0, 0, .87)", "foreground_strong": "rgba(0, 0, 0, 1)", "foreground_subtle": "rgba(0, 0, 0, .54)", "guide_stroke_color": "black", "guide_stroke_dasharray": "4,4", "label_font_family": "Consolas, \"Liberation Mono\", Menlo, Courier, monospace", "label_font_size": 10, "legend_font_family": "Consolas, \"Liberation Mono\", Menlo, Courier, monospace", "legend_font_size": 14, "major_guide_stroke_color": "black", "major_guide_stroke_dasharray": "6,6", "major_label_font_family": "Consolas, \"Liberation Mono\", Menlo, Courier, monospace", "major_label_font_size": 10, "no_data_font_family": "Consolas, \"Liberation Mono\", Menlo, Courier, monospace", "no_data_font_size": 64, "opacity": ".7", "opacity_hover": ".8", "plot_background": "rgba(255, 255, 255, 1)", "stroke_opacity": ".8", "stroke_opacity_hover": ".9", "stroke_width": "1", "stroke_width_hover": "4", "title_font_family": "Consolas, \"Liberation Mono\", Menlo, Courier, monospace", "title_font_size": 16, "tooltip_font_family": "Consolas, \"Liberation Mono\", Menlo, Courier, monospace", "tooltip_font_size": 14, "transition": "150ms", "value_background": "rgba(229, 229, 229, 1)", "value_colors": [], "value_font_family": "Consolas, \"Liberation Mono\", Menlo, Courier, monospace", "value_font_size": 16, "value_label_font_family": "Consolas, \"Liberation Mono\", Menlo, Courier, monospace", "value_label_font_size": 10}, "title": null, "tooltip_border_radius": 0, "tooltip_fancy_mode": true, "truncate_label": null, "truncate_legend": null, "width": 200, "x_label_rotation": 0, "x_labels": ["2024/5", "2024/4", "2024/3", "2024/2"], "x_labels_major": null, "x_labels_major_count": null, "x_labels_major_every": null, "x_title": null, "xrange": null, "y_label_rotation": 0, "y_labels": null, "y_labels_major": null, "y_labels_major_count": null, "y_labels_major_every": null, "y_title": null, "zero": 0, "legends": [""]}</script></defs><title>Pygal</title><g class="graph line-graph vertical"><rect x="0" y="0" width="200" height="50" class="background" /><g transform="translate(76, 10)" class="plot"><rect x="0" y="0" width="114.0" height="30" class="background" /><g class="axis y always_show"><path d="M0.000000 30.000000 h114.000000" class="line" /><g class="guides"><path d="M0.000000 29.423077 h114.000000" class="guide line" /><text x="-5" y="32.92307692307692" class="">4.697144218</text><title>4.697144218</title></g><g class="guides"><path d="M0.000000 0.576923 h114.000000" class="guide line" /><text x="-5" y="4.076923076923084" class="">11.10425825</text><title>11.10425825</title></g></g><g class="series serie-0 color-0"><path d="M2.192308 23.557350 L2.338462 23.403676 2.484615 23.250008 2.630769 23.096352 2.776923 22.942714 2.923077 22.789101 3.069231 22.635518 3.215385 22.481972 3.361538 22.328469 3.507692 22.175015 3.653846 22.021615 3.800000 21.868277 3.946154 21.715006 4.092308 21.561808 4.238462 21.408689 4.384615 21.255657 4.530769 21.102715 4.676923 20.949872 4.823077 20.797132 4.969231 20.644502 5.115385 20.491989 5.261538 20.339597 5.407692 20.187334 5.553846 20.035205 5.700000 19.883217 5.846154 19.731375 5.992308 19.579686 6.138462 19.428156 6.284615 19.276790 6.430769 19.125596 6.576923 18.974579 6.723077 18.823745 6.869231 18.673101 7.015385 18.522652 7.161538 18.372404 7.307692 18.222365 7.453846 18.072539 7.600000 17.922933 7.746154 17.773553 7.892308 17.624405 8.038462 17.475495 8.184615 17.326830 8.330769 17.178415 8.476923 17.030257 8.623077 16.882362 8.769231 16.734735 8.915385 16.587383 9.061538 16.440312 9.207692 16.293528 9.353846 16.147037 9.500000 16.000846 9.646154 15.854960 9.792308 15.709386 9.938462 15.564129 10.084615 15.419196 10.230769 15.274593 10.376923 15.130326 10.523077 14.986401 10.669231 14.842824 10.815385 14.699602 10.961538 14.556740 11.107692 14.414244 11.253846 14.272121 11.400000 14.130377 11.546154 13.989018 11.692308 13.848049 11.838462 13.707478 11.984615 13.567310 12.130769 13.427551 12.276923 13.288207 12.423077 13.149285 12.569231 13.010791 12.715385 12.872730 12.861538 12.735109 13.007692 12.597934 13.153846 12.461211 13.300000 12.324946 13.446154 12.189146 13.592308 12.053815 13.738462 11.918962 13.884615 11.784591 14.030769 11.650708 14.176923 11.517320 14.323077 11.384434 14.469231 11.252054 14.615385 11.120187 14.761538 10.988840 14.907692 10.858018 15.053846 10.727727 15.200000 10.597974 15.346154 10.468765 15.492308 10.340105 15.638462 10.212001 15.784615 10.084460 15.930769 9.957486 16.076923 9.831087 16.223077 9.705267 16.369231 9.580035 16.515385 9.455395 16.661538 9.331353 16.807692 9.207916 16.953846 9.085090 17.100000 8.962881 17.246154 8.841295 17.392308 8.720339 17.538462 8.600017 17.684615 8.480337 17.830769 8.361305 17.976923 8.242926 18.123077 8.125207 18.269231 8.008154 18.415385 7.891772 18.561538 7.776069 18.707692 7.661050 18.853846 7.546721 19.000000 7.433089 19.146154 7.320159 19.292308 7.207937 19.438462 7.096431 19.584615 6.985645 19.730769 6.875586 19.876923 6.766260 20.023077 6.657673 20.169231 6.549831 20.315385 6.442741 20.461538 6.336409 20.607692 6.230839 20.753846 6.126040 20.900000 6.022016 21.046154 5.918775 21.192308 5.816321 21.338462 5.714661 21.484615 5.613802 21.630769 5.513749 21.776923 5.414508 21.923077 5.316086 22.069231 5.218489 22.215385 5.121722 22.361538 5.025792 22.507692 4.930705 22.653846 4.836468 22.800000 4.743085 22.946154 4.650564 23.092308 4.558910 23.238462 4.468130 23.384615 4.378229 23.530769 4.289215 23.676923 4.201092 23.823077 4.113867 23.969231 4.027546 24.115385 3.942135 24.261538 3.857640 24.407692 3.774068 24.553846 3.691425 24.700000 3.609716 24.846154 3.528948 24.992308 3.449126 25.138462 3.370258 25.284615 3.292348 25.430769 3.215404 25.576923 3.139431 25.723077 3.064435 25.869231 2.990423 26.015385 2.917401 26.161538 2.845374 26.307692 2.774349 26.453846 2.704332 26.600000 2.635329 26.746154 2.567346 26.892308 2.500389 27.038462 2.434465 27.184615 2.369579 27.330769 2.305737 27.476923 2.242947 27.623077 2.181213 27.769231 2.120542 27.915385 2.060940 28.061538 2.002413 28.207692 1.944967 28.353846 1.888609 28.500000 1.833344 28.646154 1.779179 28.792308 1.726119 28.938462 1.674171 29.084615 1.623341 29.230769 1.573635 29.376923 1.525059 29.523077 1.477620 29.669231 1.431322 29.815385 1.386173 29.961538 1.342179 30.107692 1.299345 30.253846 1.257678 30.400000 1.217183 30.546154 1.177868 30.692308 1.139738 30.838462 1.102799 30.984615 1.067057 31.130769 1.032519 31.276923 0.999190 31.423077 0.967076 31.569231 0.936185 31.715385 0.906521 31.861538 0.878091 32.007692 0.850902 32.153846 0.824958 32.300000 0.800267 32.446154 0.776834 32.592308 0.754665 32.738462 0.733767 32.884615 0.714146 33.030769 0.695808 33.176923 0.678758 33.323077 0.663004 33.469231 0.648550 33.615385 0.635404 33.761538 0.623572 33.907692 0.613058 34.053846 0.603871 34.200000 0.596014 34.346154 0.589496 34.492308 0.584322 34.638462 0.580497 34.784615 0.578029 34.930769 0.576923 35.076923 0.577185 35.223077 0.578822 35.369231 0.581839 35.515385 0.586243 35.661538 0.592040 35.807692 0.599235 35.953846 0.607836 36.100000 0.617847 36.246154 0.629276 36.392308 0.642128 36.538462 0.656410 36.684615 0.672127 36.830769 0.689285 36.976923 0.707892 37.123077 0.727952 37.269231 0.749472 37.415385 0.772458 37.561538 0.796917 37.707692 0.822854 37.853846 0.850275 38.000000 0.879186 38.146154 0.909594 38.292308 0.941505 38.438462 0.974925 38.584615 1.009860 38.730769 1.046315 38.876923 1.084295 39.023077 1.123791 39.169231 1.164790 39.315385 1.207283 39.461538 1.251256 39.607692 1.296699 39.753846 1.343599 39.900000 1.391947 40.046154 1.441729 40.192308 1.492934 40.338462 1.545552 40.484615 1.599570 40.630769 1.654976 40.776923 1.711760 40.923077 1.769910 41.069231 1.829414 41.215385 1.890261 41.361538 1.952439 41.507692 2.015937 41.653846 2.080742 41.800000 2.146845 41.946154 2.214232 42.092308 2.282894 42.238462 2.352817 42.384615 2.423991 42.530769 2.496403 42.676923 2.570044 42.823077 2.644900 42.969231 2.720961 43.115385 2.798214 43.261538 2.876649 43.407692 2.956254 43.553846 3.037017 43.700000 3.118927 43.846154 3.201972 43.992308 3.286141 44.138462 3.371422 44.284615 3.457804 44.430769 3.545275 44.576923 3.633824 44.723077 3.723439 44.869231 3.814108 45.015385 3.905820 45.161538 3.998564 45.307692 4.092329 45.453846 4.187101 45.600000 4.282871 45.746154 4.379625 45.892308 4.477354 46.038462 4.576046 46.184615 4.675688 46.330769 4.776269 46.476923 4.877778 46.623077 4.980204 46.769231 5.083534 46.915385 5.187758 47.061538 5.292863 47.207692 5.398839 47.353846 5.505673 47.500000 5.613354 47.646154 5.721871 47.792308 5.831212 47.938462 5.941365 48.084615 6.052320 48.230769 6.164064 48.376923 6.276586 48.523077 6.389875 48.669231 6.503918 48.815385 6.618705 48.961538 6.734224 49.107692 6.850463 49.253846 6.967411 49.400000 7.085056 49.546154 7.203387 49.692308 7.322392 49.838462 7.442060 49.984615 7.562379 50.130769 7.683338 50.276923 7.804925 50.423077 7.927128 50.569231 8.049937 50.715385 8.173339 50.861538 8.297324 51.007692 8.421878 51.153846 8.546992 51.300000 8.672654 51.446154 8.798851 51.592308 8.925572 51.738462 9.052807 51.884615 9.180543 52.030769 9.308769 52.176923 9.437473 52.323077 9.566643 52.469231 9.696270 52.615385 9.826339 52.761538 9.956841 52.907692 10.087764 53.053846 10.219096 53.200000 10.350826 53.346154 10.482941 53.492308 10.615431 53.638462 10.748285 53.784615 10.881490 53.930769 11.015034 54.076923 11.148908 54.223077 11.283098 54.369231 11.417594 54.515385 11.552383 54.661538 11.687455 54.807692 11.822798 54.953846 11.958400 55.100000 12.094250 55.246154 12.230336 55.392308 12.366647 55.538462 12.503172 55.684615 12.639897 55.830769 12.776814 55.976923 12.913908 56.123077 13.051170 56.269231 13.188588 56.415385 13.326149 56.561538 13.463843 56.707692 13.601658 56.853846 13.739583 57.000000 13.877605 57.146154 14.015714 57.292308 14.153898 57.438462 14.292146 57.584615 14.430445 57.730769 14.568784 57.876923 14.707152 58.023077 14.845538 58.169231 14.983929 58.315385 15.122315 58.461538 15.260683 58.607692 15.399023 58.753846 15.537322 58.900000 15.675569 59.046154 15.813753 59.192308 15.951862 59.338462 16.089885 59.484615 16.227809 59.630769 16.365624 59.776923 16.503318 59.923077 16.640880 60.069231 16.778297 60.215385 16.915559 60.361538 17.052654 60.507692 17.189570 60.653846 17.326296 60.800000 17.462820 60.946154 17.599131 61.092308 17.735217 61.238462 17.871067 61.384615 18.006669 61.530769 18.142012 61.676923 18.277084 61.823077 18.411874 61.969231 18.546370 62.115385 18.680560 62.261538 18.814433 62.407692 18.947978 62.553846 19.081183 62.700000 19.214036 62.846154 19.346526 62.992308 19.478642 63.138462 19.610371 63.284615 19.741703 63.430769 19.872626 63.576923 20.003128 63.723077 20.133198 63.869231 20.262824 64.015385 20.391995 64.161538 20.520699 64.307692 20.648925 64.453846 20.776661 64.600000 20.903895 64.746154 21.030617 64.892308 21.156814 65.038462 21.282475 65.184615 21.407589 65.330769 21.532144 65.476923 21.656128 65.623077 21.779530 65.769231 21.902339 65.915385 22.024543 66.061538 22.146130 66.207692 22.267089 66.353846 22.387408 66.500000 22.507076 66.646154 22.626081 66.792308 22.744412 66.938462 22.862057 67.084615 22.979005 67.230769 23.095244 67.376923 23.210763 67.523077 23.325549 67.669231 23.439593 67.815385 23.552881 67.961538 23.665403 68.107692 23.777147 68.253846 23.888102 68.400000 23.998256 68.546154 24.107597 68.692308 24.216113 68.838462 24.323795 68.984615 24.430629 69.130769 24.536604 69.276923 24.641710 69.423077 24.745933 69.569231 24.849263 69.715385 24.951689 69.861538 25.053198 70.007692 25.153780 70.153846 25.253422 70.300000 25.352113 70.446154 25.449842 70.592308 25.546597 70.738462 25.642366 70.884615 25.737139 71.030769 25.830903 71.176923 25.923647 71.323077 26.015360 71.469231 26.106029 71.615385 26.195644 71.761538 26.284192 71.907692 26.371664 72.053846 26.458045 72.200000 26.543327 72.346154 26.627495 72.492308 26.710541 72.638462 26.792451 72.784615 26.873214 72.930769 26.952818 73.076923 27.031253 73.223077 27.108507 73.369231 27.184568 73.515385 27.259424 73.661538 27.333064 73.807692 27.405477 73.953846 27.476651 74.100000 27.546574 74.246154 27.615235 74.392308 27.682623 74.538462 27.748725 74.684615 27.813531 74.830769 27.877029 74.976923 27.939207 75.123077 28.000053 75.269231 28.059557 75.415385 28.117710 75.561538 28.174514 75.707692 28.229974 75.853846 28.284097 76.000000 28.336886 76.146154 28.388349 76.292308 28.438490 76.438462 28.487314 76.584615 28.534828 76.730769 28.581036 76.876923 28.625943 77.023077 28.669557 77.169231 28.711881 77.315385 28.752921 77.461538 28.792682 77.607692 28.831171 77.753846 28.868392 77.900000 28.904351 78.046154 28.939053 78.192308 28.972504 78.338462 29.004709 78.484615 29.035674 78.630769 29.065403 78.776923 29.093903 78.923077 29.121178 79.069231 29.147234 79.215385 29.172078 79.361538 29.195713 79.507692 29.218145 79.653846 29.239381 79.800000 29.259424 79.946154 29.278282 80.092308 29.295958 80.238462 29.312459 80.384615 29.327790 80.530769 29.341956 80.676923 29.354963 80.823077 29.366816 80.969231 29.377520 81.115385 29.387082 81.261538 29.395506 81.407692 29.402798 81.553846 29.408963 81.700000 29.414007 81.846154 29.417935 81.992308 29.420752 82.138462 29.422464 82.284615 29.423077 82.430769 29.422595 82.576923 29.421025 82.723077 29.418371 82.869231 29.414639 83.015385 29.409835 83.161538 29.403963 83.307692 29.397030 83.453846 29.389040 83.600000 29.380000 83.746154 29.369914 83.892308 29.358788 84.038462 29.346627 84.184615 29.333437 84.330769 29.319223 84.476923 29.303991 84.623077 29.287746 84.769231 29.270493 84.915385 29.252238 85.061538 29.232986 85.207692 29.212743 85.353846 29.191514 85.500000 29.169305 85.646154 29.146120 85.792308 29.121966 85.938462 29.096848 86.084615 29.070771 86.230769 29.043740 86.376923 29.015761 86.523077 28.986840 86.669231 28.956982 86.815385 28.926192 86.961538 28.894476 87.107692 28.861838 87.253846 28.828286 87.400000 28.793823 87.546154 28.758455 87.692308 28.722189 87.838462 28.685028 87.984615 28.646979 88.130769 28.608047 88.276923 28.568238 88.423077 28.527557 88.569231 28.486008 88.715385 28.443599 88.861538 28.400333 89.007692 28.356217 89.153846 28.311256 89.300000 28.265455 89.446154 28.218820 89.592308 28.171357 89.738462 28.123070 89.884615 28.073965 90.030769 28.024047 90.176923 27.973322 90.323077 27.921796 90.469231 27.869473 90.615385 27.816359 90.761538 27.762460 90.907692 27.707781 91.053846 27.652327 91.200000 27.596104 91.346154 27.539117 91.492308 27.481371 91.638462 27.422873 91.784615 27.363627 91.930769 27.303639 92.076923 27.242915 92.223077 27.181459 92.369231 27.119277 92.515385 27.056375 92.661538 26.992757 92.807692 26.928430 92.953846 26.863399 93.100000 26.797669 93.246154 26.731246 93.392308 26.664134 93.538462 26.596340 93.684615 26.527869 93.830769 26.458726 93.976923 26.388917 94.123077 26.318447 94.269231 26.247322 94.415385 26.175546 94.561538 26.103126 94.707692 26.030067 94.853846 25.956374 95.000000 25.882052 95.146154 25.807108 95.292308 25.731546 95.438462 25.655372 95.584615 25.578591 95.730769 25.501209 95.876923 25.423231 96.023077 25.344663 96.169231 25.265509 96.315385 25.185776 96.461538 25.105469 96.607692 25.024592 96.753846 24.943153 96.900000 24.861156 97.046154 24.778606 97.192308 24.695508 97.338462 24.611870 97.484615 24.527694 97.630769 24.442988 97.776923 24.357757 97.923077 24.272006 98.069231 24.185740 98.215385 24.098964 98.361538 24.011685 98.507692 23.923908 98.653846 23.835637 98.800000 23.746879 98.946154 23.657639 99.092308 23.567923 99.238462 23.477734 99.384615 23.387081 99.530769 23.295966 99.676923 23.204397 99.823077 23.112378 99.969231 23.019915 100.115385 22.927013 100.261538 22.833677 100.407692 22.739914 100.553846 22.645728 100.700000 22.551125 100.846154 22.456111 100.992308 22.360690 101.138462 22.264868 101.284615 22.168651 101.430769 22.072043 101.576923 21.975052 101.723077 21.877681 101.869231 21.779936 102.015385 21.681823 102.161538 21.583346 102.307692 21.484513 102.453846 21.385327 102.600000 21.285795 102.746154 21.185921 102.892308 21.085711 103.038462 20.985171 103.184615 20.884306 103.330769 20.783121 103.476923 20.681623 103.623077 20.579815 103.769231 20.477704 103.915385 20.375295 104.061538 20.272594 104.207692 20.169605 104.353846 20.066335 104.500000 19.962788 104.646154 19.858971 104.792308 19.754888 104.938462 19.650545 105.084615 19.545948 105.230769 19.441101 105.376923 19.336011 105.523077 19.230682 105.669231 19.125121 105.815385 19.019332 105.961538 18.913320 106.107692 18.807092 106.253846 18.700653 106.400000 18.594008 106.546154 18.487163 106.692308 18.380122 106.838462 18.272892 106.984615 18.165478 107.130769 18.057885 107.276923 17.950118 107.423077 17.842184 107.569231 17.734087 107.715385 17.625833 107.861538 17.517428 108.007692 17.408876 108.153846 17.300183 108.300000 17.191355 108.446154 17.082397 108.592308 16.973314 108.738462 16.864112 108.884615 16.754797 109.030769 16.645373 109.176923 16.535846 109.323077 16.426221 109.469231 16.316505 109.615385 16.206701 109.761538 16.096817 109.907692 15.986857 110.053846 15.876826 110.200000 15.766730 110.346154 15.656575 110.492308 15.546366 110.638462 15.436107 110.784615 15.325806 110.930769 15.215466 111.076923 15.105094 111.223077 14.994695 111.369231 14.884274 111.515385 14.773837 111.661538 14.663390 111.807692 14.552936" class="line reactive nofill" /></g></g><g class="titles" /><g transform="translate(76, 10)" class="plot overlay"><g class="series serie-0 color-0" /></g><g transform="translate(76, 10)" class="plot text-overlay"><g class="series serie-0 color-0" /></g><g transform="translate(76, 10)" class="plot tooltip-overlay"><g transform="translate(0 0)" style="opacity: 0" class="tooltip"><rect rx="0" ry="0" width="0" height="0" class="tooltip-box" /><g class="text" /></g></g></g></svg>