<?xml version='1.0' encoding='utf-8'?>
<svg xmlns="http://www.w3.org/2000/svg" id="chart-d3fb846b-16a3-4800-8b7c-52a833fff1d3" class="pygal-chart pygal-sparkline" viewBox="0 0 200 50" width="200" height="50"><!--Generated with pygal 3.0.5 (etree) ©Kozea 2012-2016 on 2025-01-19--><!--http://pygal.org--><!--http://github.com/Kozea/pygal--><defs><style type="text/css">#chart-d3fb846b-16a3-4800-8b7c-52a833fff1d3{-webkit-user-select:none;-webkit-font-smoothing:antialiased;font-family:Consolas,"Liberation Mono",Menlo,Courier,monospace}#chart-d3fb846b-16a3-4800-8b7c-52a833fff1d3 .title{font-family:Consolas,"Liberation Mono",Menlo,Courier,monospace;font-size:16px}#chart-d3fb846b-16a3-4800-8b7c-52a833fff1d3 .legends .legend text{font-family:Consolas,"Liberation Mono",Menlo,Courier,monospace;font-size:14px}#chart-d3fb846b-16a3-4800-8b7c-52a833fff1d3 .axis text{font-family:Consolas,"Liberation Mono",Menlo,Courier,monospace;font-size:10px}#chart-d3fb846b-16a3-4800-8b7c-52a833fff1d3 .axis text.major{font-family:Consolas,"Liberation Mono",Menlo,Courier,monospace;font-size:10px}#chart-d3fb846b-16a3-4800-8b7c-52a833fff1d3 .text-overlay text.value{font-family:Consolas,"Liberation Mono",Menlo,Courier,monospace;font-size:16px}#chart-d3fb846b-16a3-4800-8b7c-52a833fff1d3 .text-overlay text.label{font-family:Consolas,"Liberation Mono",Menlo,Courier,monospace;font-size:10px}#chart-d3fb846b-16a3-4800-8b7c-52a833fff1d3 .tooltip{font-family:Consolas,"Liberation Mono",Menlo,Courier,monospace;font-size:14px}#chart-d3fb846b-16a3-4800-8b7c-52a833fff1d3 text.no_data{font-family:Consolas,"Liberation Mono",Menlo,Courier,monospace;font-size:64px}
#chart-d3fb846b-16a3-4800-8b7c-52a833fff1d3{background-color:rgba(249,249,249,1)}#chart-d3fb846b-16a3-4800-8b7c-52a833fff1d3 path,#chart-d3fb846b-16a3-4800-8b7c-52a833fff1d3 line,#chart-d3fb846b-16a3-4800-8b7c-52a833fff1d3 rect,#chart-d3fb846b-16a3-4800-8b7c-52a833fff1d3 circle{-webkit-transition:150ms;-moz-transition:150ms;transition:150ms}#chart-d3fb846b-16a3-4800-8b7c-52a833fff1d3 .graph &gt; .background{fill:rgba(249,249,249,1)}#chart-d3fb846b-16a3-4800-8b7c-52a833fff1d3 .plot &gt; .background{fill:rgba(255,255,255,1)}#chart-d3fb846b-16a3-4800-8b7c-52a833fff1d3 .graph{fill:rgba(0,0,0,.87)}#chart-d3fb846b-16a3-4800-8b7c-52a833fff1d3 text.no_data{fill:rgba(0,0,0,1)}#chart-d3fb846b-16a3-4800-8b7c-52a833fff1d3 .title{fill:rgba(0,0,0,1)}#chart-d3fb846b-16a3-4800-8b7c-52a833fff1d3 .legends .legend text{fill:rgba(0,0,0,.87)}#chart-d3fb846b-16a3-4800-8b7c-52a833fff1d3 .legends .legend:hover text{fill:rgba(0,0,0,1)}#chart-d3fb846b-16a3-4800-8b7c-52a833fff1d3 .axis .line{stroke:rgba(0,0,0,1)}#chart-d3fb846b-16a3-4800-8b7c-52a833fff1d3 .axis .guide.line{stroke:rgba(0,0,0,.54)}#chart-d3fb846b-16a3-4800-8b7c-52a833fff1d3 .axis .major.line{stroke:rgba(0,0,0,.87)}#chart-d3fb846b-16a3-4800-8b7c-52a833fff1d3 .axis text.major{fill:rgba(0,0,0,1)}#chart-d3fb846b-16a3-4800-8b7c-52a833fff1d3 .axis.y .guides:hover .guide.line,#chart-d3fb846b-16a3-4800-8b7c-52a833fff1d3 .line-graph .axis.x .guides:hover .guide.line,#chart-d3fb846b-16a3-4800-8b7c-52a833fff1d3 .stackedline-graph .axis.x .guides:hover .guide.line,#chart-d3fb846b-16a3-4800-8b7c-52a833fff1d3 .xy-graph .axis.x .guides:hover .guide.line{stroke:rgba(0,0,0,1)}#chart-d3fb846b-16a3-4800-8b7c-52a833fff1d3 .axis .guides:hover text{fill:rgba(0,0,0,1)}#chart-d3fb846b-16a3-4800-8b7c-52a833fff1d3 .reactive{fill-opacity:.7;stroke-opacity:.8;stroke-width:1}#chart-d3fb846b-16a3-4800-8b7c-52a833fff1d3 .ci{stroke:rgba(0,0,0,.87)}#chart-d3fb846b-16a3-4800-8b7c-52a833fff1d3 .reactive.active,#chart-d3fb846b-16a3-4800-8b7c-52a833fff1d3 .active .reactive{fill-opacity:.8;stroke-opacity:.9;stroke-width:4}#chart-d3fb846b-16a3-4800-8b7c-52a833fff1d3 .ci .reactive.active{stroke-width:1.5}#chart-d3fb846b-16a3-4800-8b7c-52a833fff1d3 .series text{fill:rgba(0,0,0,1)}#chart-d3fb846b-16a3-4800-8b7c-52a833fff1d3 .tooltip rect{fill:rgba(255,255,255,1);stroke:rgba(0,0,0,1);-webkit-transition:opacity 150ms;-moz-transition:opacity 150ms;transition:opacity 150ms}#chart-d3fb846b-16a3-4800-8b7c-52a833fff1d3 .tooltip .label{fill:rgba(0,0,0,.87)}#chart-d3fb846b-16a3-4800-8b7c-52a833fff1d3 .tooltip .label{fill:rgba(0,0,0,.87)}#chart-d3fb846b-16a3-4800-8b7c-52a833fff1d3 .tooltip .legend{font-size:.8em;fill:rgba(0,0,0,.54)}#chart-d3fb846b-16a3-4800-8b7c-52a833fff1d3 .tooltip .x_label{font-size:.6em;fill:rgba(0,0,0,1)}#chart-d3fb846b-16a3-4800-8b7c-52a833fff1d3 .tooltip .xlink{font-size:.5em;text-decoration:underline}#chart-d3fb846b-16a3-4800-8b7c-52a833fff1d3 .tooltip .value{font-size:1.5em}#chart-d3fb846b-16a3-4800-8b7c-52a833fff1d3 .bound{font-size:.5em}#chart-d3fb846b-16a3-4800-8b7c-52a833fff1d3 .max-value{font-size:.75em;fill:rgba(0,0,0,.54)}#chart-d3fb846b-16a3-4800-8b7c-52a833fff1d3 .map-element{fill:rgba(255,255,255,1);stroke:rgba(0,0,0,.54) !important}#chart-d3fb846b-16a3-4800-8b7c-52a833fff1d3 .map-element .reactive{fill-opacity:inherit;stroke-opacity:inherit}#chart-d3fb846b-16a3-4800-8b7c-52a833fff1d3 .color-0,#chart-d3fb846b-16a3-4800-8b7c-52a833fff1d3 .color-0 a:visited{stroke:#F44336;fill:#F44336}#chart-d3fb846b-16a3-4800-8b7c-52a833fff1d3 .text-overlay .color-0 text{fill:black}
#chart-d3fb846b-16a3-4800-8b7c-52a833fff1d3 text.no_data{text-anchor:middle}#chart-d3fb846b-16a3-4800-8b7c-52a833fff1d3 .guide.line{fill:none}#chart-d3fb846b-16a3-4800-8b7c-52a833fff1d3 .centered{text-anchor:middle}#chart-d3fb846b-16a3-4800-8b7c-52a833fff1d3 .title{text-anchor:middle}#chart-d3fb846b-16a3-4800-8b7c-52a833fff1d3 .legends .legend text{fill-opacity:1}#chart-d3fb846b-16a3-4800-8b7c-52a833fff1d3 .axis.x text{text-anchor:middle}#chart-d3fb846b-16a3-4800-8b7c-52a833fff1d3 .axis.x:not(.web) text[transform]{text-anchor:start}#chart-d3fb846b-16a3-4800-8b7c-52a833fff1d3 .axis.x:not(.web) text[transform].backwards{text-anchor:end}#chart-d3fb846b-16a3-4800-8b7c-52a833fff1d3 .axis.y text{text-anchor:end}#chart-d3fb846b-16a3-4800-8b7c-52a833fff1d3 .axis.y text[transform].backwards{text-anchor:start}#chart-d3fb846b-16a3-4800-8b7c-52a833fff1d3 .axis.y2 text{text-anchor:start}#chart-d3fb846b-16a3-4800-8b7c-52a833fff1d3 .axis.y2 text[transform].backwards{text-anchor:end}#chart-d3fb846b-16a3-4800-8b7c-52a833fff1d3 .axis .guide.line{stroke-dasharray:4,4;stroke:black}#chart-d3fb846b-16a3-4800-8b7c-52a833fff1d3 .axis .major.guide.line{stroke-dasharray:6,6;stroke:black}#chart-d3fb846b-16a3-4800-8b7c-52a833fff1d3 .horizontal .axis.y .guide.line,#chart-d3fb846b-16a3-4800-8b7c-52a833fff1d3 .horizontal .axis.y2 .guide.line,#chart-d3fb846b-16a3-4800-8b7c-52a833fff1d3 .vertical .axis.x .guide.line{opacity:0}#chart-d3fb846b-16a3-4800-8b7c-52a833fff1d3 .horizontal .axis.always_show .guide.line,#chart-d3fb846b-16a3-4800-8b7c-52a833fff1d3 .vertical .axis.always_show .guide.line{opacity:1 !important}#chart-d3fb846b-16a3-4800-8b7c-52a833fff1d3 .axis.y .guides:hover .guide.line,#chart-d3fb846b-16a3-4800-8b7c-52a833fff1d3 .axis.y2 .guides:hover .guide.line,#chart-d3fb846b-16a3-4800-8b7c-52a833fff1d3 .axis.x .guides:hover .guide.line{opacity:1}#chart-d3fb846b-16a3-4800-8b7c-52a833fff1d3 .axis .guides:hover text{opacity:1}#chart-d3fb846b-16a3-4800-8b7c-52a833fff1d3 .nofill{fill:none}#chart-d3fb846b-16a3-4800-8b7c-52a833fff1d3 .subtle-fill{fill-opacity:.2}#chart-d3fb846b-16a3-4800-8b7c-52a833fff1d3 .dot{stroke-width:1px;fill-opacity:1;stroke-opacity:1}#chart-d3fb846b-16a3-4800-8b7c-52a833fff1d3 .dot.active{stroke-width:5px}#chart-d3fb846b-16a3-4800-8b7c-52a833fff1d3 .dot.negative{fill:transparent}#chart-d3fb846b-16a3-4800-8b7c-52a833fff1d3 text,#chart-d3fb846b-16a3-4800-8b7c-52a833fff1d3 tspan{stroke:none !important}#chart-d3fb846b-16a3-4800-8b7c-52a833fff1d3 .series text.active{opacity:1}#chart-d3fb846b-16a3-4800-8b7c-52a833fff1d3 .tooltip rect{fill-opacity:.95;stroke-width:.5}#chart-d3fb846b-16a3-4800-8b7c-52a833fff1d3 .tooltip text{fill-opacity:1}#chart-d3fb846b-16a3-4800-8b7c-52a833fff1d3 .showable{visibility:hidden}#chart-d3fb846b-16a3-4800-8b7c-52a833fff1d3 .showable.shown{visibility:visible}#chart-d3fb846b-16a3-4800-8b7c-52a833fff1d3 .gauge-background{fill:rgba(229,229,229,1);stroke:none}#chart-d3fb846b-16a3-4800-8b7c-52a833fff1d3 .bg-lines{stroke:rgba(249,249,249,1);stroke-width:2px}</style><script type="text/javascript">window.pygal = window.pygal || {};window.pygal.config = window.pygal.config || {};window.pygal.config['d3fb846b-16a3-4800-8b7c-52a833fff1d3'] = {"allow_interruptions": false, "box_mode": "extremes", "classes": ["pygal-chart", "pygal-sparkline"], "css": ["file://style.css", "file://graph.css"], "defs": [], "disable_xml_declaration": false, "dots_size": 2.5, "dynamic_print_values": false, "explicit_size": true, "fill": false, "force_uri_protocol": "https", "formatter": null, "half_pie": false, "height": 50, "include_x_axis": false, "inner_radius": 0, "interpolate": "cubic", "interpolation_parameters": {}, "interpolation_precision": 250, "inverse_y_axis": false, "js": [], "legend_at_bottom": false, "legend_at_bottom_columns": null, "legend_box_size": 12, "logarithmic": false, "margin": 10, "margin_bottom": null, "margin_left": null, "margin_right": null, "margin_top": null, "max_scale": 2, "min_scale": 1, "missing_value_fill_truncation": "x", "no_data_text": "", "no_prefix": false, "order_min": null, "pretty_print": false, "print_labels": false, "print_values": false, "print_values_position": "center", "print_zeroes": true, "range": null, "rounded_bars": null, "secondary_range": null, "show_dots": false, "show_legend": false, "show_minor_x_labels": true, "show_minor_y_labels": true, "show_only_major_dots": false, "show_x_guides": false, "show_x_labels": false, "show_y_guides": true, "show_y_labels": true, "spacing": 0, "stack_from_top": false, "strict": false, "stroke": true, "stroke_style": null, "style": {"background": "rgba(249, 249, 249, 1)", "ci_colors": [], "colors": ["#F44336", "#3F51B5", "#009688", "#FFC107", "#FF5722", "#9C27B0", "#03A9F4", "#8BC34A", "#FF9800", "#E91E63", "#2196F3", "#4CAF50", "#FFEB3B", "#673AB7", "#00BCD4", "#CDDC39", "#9E9E9E", "#607D8B"], "dot_opacity": "1", "font_family": "Consolas, \"Liberation Mono\", Menlo, Courier, monospace", "foreground": "rgba(0, 0, 0, .87)", "foreground_strong": "rgba(0, 0, 0, 1)", "foreground_subtle": "rgba(0, 0, 0, .54)", "guide_stroke_color": "black", "guide_stroke_dasharray": "4,4", "label_font_family": "Consolas, \"Liberation Mono\", Menlo, Courier, monospace", "label_font_size": 10, "legend_font_family": "Consolas, \"Liberation Mono\", Menlo, Courier, monospace", "legend_font_size": 14, "major_guide_stroke_color": "black", "major_guide_stroke_dasharray": "6,6", "major_label_font_family": "Consolas, \"Liberation Mono\", Menlo, Courier, monospace", "major_label_font_size": 10, "no_data_font_family": "Consolas, \"Liberation Mono\", Menlo, Courier, monospace", "no_data_font_size": 64, "opacity": ".7", "opacity_hover": ".8", "plot_background": "rgba(255, 255, 255, 1)", "stroke_opacity": ".8", "stroke_opacity_hover": ".9", "stroke_width": "1", "stroke_width_hover": "4", "title_font_family": "Consolas, \"Liberation Mono\", Menlo, Courier, monospace", "title_font_size": 16, "tooltip_font_family": "Consolas, \"Liberation Mono\", Menlo, Courier, monospace", "tooltip_font_size": 14, "transition": "150ms", "value_background": "rgba(229, 229, 229, 1)", "value_colors": [], "value_font_family": "Consolas, \"Liberation Mono\", Menlo, Courier, monospace", "value_font_size": 16, "value_label_font_family": "Consolas, \"Liberation Mono\", Menlo, Courier, monospace", "value_label_font_size": 10}, "title": null, "tooltip_border_radius": 0, "tooltip_fancy_mode": true, "truncate_label": null, "truncate_legend": null, "width": 200, "x_label_rotation": 0, "x_labels": ["2022/1", "2021/12", "2021/11"], "x_labels_major": null, "x_labels_major_count": null, "x_labels_major_every": null, "x_title": null, "xrange": null, "y_label_rotation": 0, "y_labels": null, "y_labels_major": null, "y_labels_major_count": null, "y_labels_major_every": null, "y_title": null, "zero": 0, "legends": [""]}</script></defs><title>Pygal</title><g class="graph line-graph vertical"><rect x="0" y="0" width="200" height="50" class="background" /><g transform="translate(20, 10)" class="plot"><rect x="0" y="0" width="170" height="30" class="background" /><g class="axis y always_show"><path d="M0.000000 30.000000 h170.000000" class="line" /><g class="guides"><path d="M0.000000 22.587421 h170.000000" class="guide line" /><text x="-5" y="26.08742070989984" class="">4</text><title>4</title></g><g class="guides"><path d="M0.000000 0.576923 h170.000000" class="guide line" /><text x="-5" y="4.07692307692308" class="">8</text><title>8</title></g></g><g class="series serie-0 color-0"><path d="M3.269231 0.576923 L3.596154 0.719991 3.923077 0.863055 4.250000 1.006114 4.576923 1.149162 4.903846 1.292198 5.230769 1.435218 5.557692 1.578220 5.884615 1.721198 6.211538 1.864152 6.538462 2.007077 6.865385 2.149971 7.192308 2.292829 7.519231 2.435650 7.846154 2.578429 8.173077 2.721164 8.500000 2.863851 8.826923 3.006488 9.153846 3.149071 9.480769 3.291596 9.807692 3.434062 10.134615 3.576464 10.461538 3.718799 10.788462 3.861065 11.115385 4.003258 11.442308 4.145375 11.769231 4.287413 12.096154 4.429368 12.423077 4.571237 12.750000 4.713018 13.076923 4.854707 13.403846 4.996301 13.730769 5.137797 14.057692 5.279191 14.384615 5.420481 14.711538 5.561662 15.038462 5.702733 15.365385 5.843690 15.692308 5.984530 16.019231 6.125249 16.346154 6.265844 16.673077 6.406313 17.000000 6.546652 17.326923 6.686857 17.653846 6.826927 17.980769 6.966857 18.307692 7.106644 18.634615 7.246285 18.961538 7.385778 19.288462 7.525118 19.615385 7.664303 19.942308 7.803330 20.269231 7.942195 20.596154 8.080895 20.923077 8.219427 21.250000 8.357788 21.576923 8.495975 21.903846 8.633984 22.230769 8.771812 22.557692 8.909457 22.884615 9.046915 23.211538 9.184182 23.538462 9.321256 23.865385 9.458134 24.192308 9.594812 24.519231 9.731287 24.846154 9.867556 25.173077 10.003616 25.500000 10.139464 25.826923 10.275096 26.153846 10.410509 26.480769 10.545701 26.807692 10.680667 27.134615 10.815405 27.461538 10.949912 27.788462 11.084184 28.115385 11.218219 28.442308 11.352013 28.769231 11.485562 29.096154 11.618865 29.423077 11.751917 29.750000 11.884715 30.076923 12.017257 30.403846 12.149539 30.730769 12.281558 31.057692 12.413310 31.384615 12.544793 31.711538 12.676004 32.038462 12.806939 32.365385 12.937595 32.692308 13.067969 33.019231 13.198057 33.346154 13.327857 33.673077 13.457366 34.000000 13.586580 34.326923 13.715495 34.653846 13.844110 34.980769 13.972421 35.307692 14.100424 35.634615 14.228116 35.961538 14.355495 36.288462 14.482556 36.615385 14.609298 36.942308 14.735716 37.269231 14.861808 37.596154 14.987570 37.923077 15.112999 38.250000 15.238093 38.576923 15.362847 38.903846 15.487259 39.230769 15.611326 39.557692 15.735043 39.884615 15.858409 40.211538 15.981420 40.538462 16.104073 40.865385 16.226365 41.192308 16.348292 41.519231 16.469851 41.846154 16.591040 42.173077 16.711854 42.500000 16.832292 42.826923 16.952349 43.153846 17.072022 43.480769 17.191309 43.807692 17.310206 44.134615 17.428710 44.461538 17.546818 44.788462 17.664527 45.115385 17.781832 45.442308 17.898733 45.769231 18.015224 46.096154 18.131303 46.423077 18.246967 46.750000 18.362213 47.076923 18.477037 47.403846 18.591437 47.730769 18.705408 48.057692 18.818949 48.384615 18.932055 48.711538 19.044724 49.038462 19.156953 49.365385 19.268737 49.692308 19.380075 50.019231 19.490963 50.346154 19.601397 50.673077 19.711375 51.000000 19.820893 51.326923 19.929949 51.653846 20.038539 51.980769 20.146660 52.307692 20.254308 52.634615 20.361481 52.961538 20.468175 53.288462 20.574388 53.615385 20.680116 53.942308 20.785355 54.269231 20.890104 54.596154 20.994357 54.923077 21.098114 55.250000 21.201369 55.576923 21.304121 55.903846 21.406365 56.230769 21.508099 56.557692 21.609320 56.884615 21.710024 57.211538 21.810208 57.538462 21.909869 57.865385 22.009004 58.192308 22.107610 58.519231 22.205683 58.846154 22.303221 59.173077 22.400220 59.500000 22.496677 59.826923 22.592589 60.153846 22.687952 60.480769 22.782764 60.807692 22.877021 61.134615 22.970720 61.461538 23.063859 61.788462 23.156433 62.115385 23.248440 62.442308 23.339876 62.769231 23.430739 63.096154 23.521025 63.423077 23.610731 63.750000 23.699853 64.076923 23.788390 64.403846 23.876336 64.730769 23.963690 65.057692 24.050448 65.384615 24.136608 65.711538 24.222164 66.038462 24.307116 66.365385 24.391459 66.692308 24.475190 67.019231 24.558307 67.346154 24.640805 67.673077 24.722682 68.000000 24.803935 68.326923 24.884560 68.653846 24.964554 68.980769 25.043915 69.307692 25.122638 69.634615 25.200722 69.961538 25.278161 70.288462 25.354955 70.615385 25.431098 70.942308 25.506589 71.269231 25.581423 71.596154 25.655598 71.923077 25.729111 72.250000 25.801958 72.576923 25.874137 72.903846 25.945643 73.230769 26.016475 73.557692 26.086628 73.884615 26.156099 74.211538 26.224886 74.538462 26.292986 74.865385 26.360394 75.192308 26.427108 75.519231 26.493125 75.846154 26.558441 76.173077 26.623054 76.500000 26.686960 76.826923 26.750156 77.153846 26.812639 77.480769 26.874406 77.807692 26.935453 78.134615 26.995777 78.461538 27.055376 78.788462 27.114245 79.115385 27.172383 79.442308 27.229785 79.769231 27.286449 80.096154 27.342371 80.423077 27.397548 80.750000 27.451977 81.076923 27.505655 81.403846 27.558578 81.730769 27.610745 82.057692 27.662150 82.384615 27.712792 82.711538 27.762666 83.038462 27.811770 83.365385 27.860101 83.692308 27.907656 84.019231 27.954431 84.346154 28.000423 84.673077 28.045628 85.000000 28.090045 85.326923 28.133670 85.653846 28.176507 85.980769 28.218557 86.307692 28.259824 86.634615 28.300311 86.961538 28.340022 87.288462 28.378960 87.615385 28.417127 87.942308 28.454528 88.269231 28.491164 88.596154 28.527040 88.923077 28.562159 89.250000 28.596523 89.576923 28.630136 89.903846 28.663000 90.230769 28.695120 90.557692 28.726499 90.884615 28.757139 91.211538 28.787043 91.538462 28.816215 91.865385 28.844659 92.192308 28.872376 92.519231 28.899371 92.846154 28.925647 93.173077 28.951206 93.500000 28.976052 93.826923 29.000188 94.153846 29.023617 94.480769 29.046343 94.807692 29.068368 95.134615 29.089696 95.461538 29.110329 95.788462 29.130272 96.115385 29.149527 96.442308 29.168097 96.769231 29.185986 97.096154 29.203197 97.423077 29.219732 97.750000 29.235596 98.076923 29.250791 98.403846 29.265320 98.730769 29.279187 99.057692 29.292394 99.384615 29.304946 99.711538 29.316844 100.038462 29.328093 100.365385 29.338695 100.692308 29.348654 101.019231 29.357973 101.346154 29.366654 101.673077 29.374702 102.000000 29.382118 102.326923 29.388908 102.653846 29.395073 102.980769 29.400616 103.307692 29.405542 103.634615 29.409852 103.961538 29.413551 104.288462 29.416642 104.615385 29.419127 104.942308 29.421010 105.269231 29.422294 105.596154 29.422982 105.923077 29.423077 106.250000 29.422583 106.576923 29.421502 106.903846 29.419838 107.230769 29.417594 107.557692 29.414774 107.884615 29.411379 108.211538 29.407414 108.538462 29.402882 108.865385 29.397786 109.192308 29.392128 109.519231 29.385913 109.846154 29.379143 110.173077 29.371822 110.500000 29.363952 110.826923 29.355537 111.153846 29.346580 111.480769 29.337085 111.807692 29.327053 112.134615 29.316490 112.461538 29.305396 112.788462 29.293777 113.115385 29.281635 113.442308 29.268973 113.769231 29.255794 114.096154 29.242102 114.423077 29.227900 114.750000 29.213190 115.076923 29.197977 115.403846 29.182263 115.730769 29.166051 116.057692 29.149344 116.384615 29.132147 116.711538 29.114461 117.038462 29.096290 117.365385 29.077638 117.692308 29.058507 118.019231 29.038901 118.346154 29.018822 118.673077 28.998274 119.000000 28.977260 119.326923 28.955784 119.653846 28.933848 119.980769 28.911456 120.307692 28.888610 120.634615 28.865314 120.961538 28.841572 121.288462 28.817385 121.615385 28.792758 121.942308 28.767694 122.269231 28.742195 122.596154 28.716266 122.923077 28.689908 123.250000 28.663126 123.576923 28.635922 123.903846 28.608300 124.230769 28.580263 124.557692 28.551814 124.884615 28.522955 125.211538 28.493691 125.538462 28.464025 125.865385 28.433959 126.192308 28.403497 126.519231 28.372642 126.846154 28.341397 127.173077 28.309766 127.500000 28.277751 127.826923 28.245355 128.153846 28.212583 128.480769 28.179436 128.807692 28.145919 129.134615 28.112034 129.461538 28.077784 129.788462 28.043173 130.115385 28.008204 130.442308 27.972880 130.769231 27.937204 131.096154 27.901180 131.423077 27.864810 131.750000 27.828097 132.076923 27.791046 132.403846 27.753659 132.730769 27.715939 133.057692 27.677889 133.384615 27.639512 133.711538 27.600813 134.038462 27.561793 134.365385 27.522457 134.692308 27.482806 135.019231 27.442845 135.346154 27.402577 135.673077 27.362004 136.000000 27.321130 136.326923 27.279958 136.653846 27.238492 136.980769 27.196734 137.307692 27.154687 137.634615 27.112355 137.961538 27.069741 138.288462 27.026848 138.615385 26.983680 138.942308 26.940239 139.269231 26.896528 139.596154 26.852551 139.923077 26.808312 140.250000 26.763812 140.576923 26.719055 140.903846 26.674045 141.230769 26.628785 141.557692 26.583277 141.884615 26.537525 142.211538 26.491533 142.538462 26.445302 142.865385 26.398838 143.192308 26.352141 143.519231 26.305217 143.846154 26.258067 144.173077 26.210696 144.500000 26.163106 144.826923 26.115300 145.153846 26.067282 145.480769 26.019055 145.807692 25.970622 146.134615 25.921986 146.461538 25.873151 146.788462 25.824118 147.115385 25.774893 147.442308 25.725477 147.769231 25.675875 148.096154 25.626088 148.423077 25.576121 148.750000 25.525976 149.076923 25.475657 149.403846 25.425167 149.730769 25.374509 150.057692 25.323686 150.384615 25.272701 150.711538 25.221558 151.038462 25.170260 151.365385 25.118809 151.692308 25.067210 152.019231 25.015465 152.346154 24.963577 152.673077 24.911549 153.000000 24.859386 153.326923 24.807089 153.653846 24.754662 153.980769 24.702109 154.307692 24.649432 154.634615 24.596634 154.961538 24.543719 155.288462 24.490690 155.615385 24.437551 155.942308 24.384303 156.269231 24.330951 156.596154 24.277497 156.923077 24.223945 157.250000 24.170298 157.576923 24.116559 157.903846 24.062732 158.230769 24.008818 158.557692 23.954823 158.884615 23.900748 159.211538 23.846597 159.538462 23.792373 159.865385 23.738080 160.192308 23.683720 160.519231 23.629296 160.846154 23.574812 161.173077 23.520272 161.500000 23.465677 161.826923 23.411032 162.153846 23.356339 162.480769 23.301601 162.807692 23.246823 163.134615 23.192006 163.461538 23.137155 163.788462 23.082272 164.115385 23.027360 164.442308 22.972423 164.769231 22.917464 165.096154 22.862486 165.423077 22.807492 165.750000 22.752485 166.076923 22.697469 166.403846 22.642446 166.730769 22.587421" class="line reactive nofill" /></g></g><g class="titles" /><g transform="translate(20, 10)" class="plot overlay"><g class="series serie-0 color-0" /></g><g transform="translate(20, 10)" class="plot text-overlay"><g class="series serie-0 color-0" /></g><g transform="translate(20, 10)" class="plot tooltip-overlay"><g transform="translate(0 0)" style="opacity: 0" class="tooltip"><rect rx="0" ry="0" width="0" height="0" class="tooltip-box" /><g class="text" /></g></g></g></svg>