<?xml version='1.0' encoding='utf-8'?>
<svg xmlns="http://www.w3.org/2000/svg" id="chart-5a22099f-79e5-4806-bd1f-e25f4c86b8fd" class="pygal-chart pygal-sparkline" viewBox="0 0 200 50" width="200" height="50"><!--Generated with pygal 3.0.4 (etree) ©Kozea 2012-2016 on 2024-08-04--><!--http://pygal.org--><!--http://github.com/Kozea/pygal--><defs><style type="text/css">#chart-5a22099f-79e5-4806-bd1f-e25f4c86b8fd{-webkit-user-select:none;-webkit-font-smoothing:antialiased;font-family:Consolas,"Liberation Mono",Menlo,Courier,monospace}#chart-5a22099f-79e5-4806-bd1f-e25f4c86b8fd .title{font-family:Consolas,"Liberation Mono",Menlo,Courier,monospace;font-size:16px}#chart-5a22099f-79e5-4806-bd1f-e25f4c86b8fd .legends .legend text{font-family:Consolas,"Liberation Mono",Menlo,Courier,monospace;font-size:14px}#chart-5a22099f-79e5-4806-bd1f-e25f4c86b8fd .axis text{font-family:Consolas,"Liberation Mono",Menlo,Courier,monospace;font-size:10px}#chart-5a22099f-79e5-4806-bd1f-e25f4c86b8fd .axis text.major{font-family:Consolas,"Liberation Mono",Menlo,Courier,monospace;font-size:10px}#chart-5a22099f-79e5-4806-bd1f-e25f4c86b8fd .text-overlay text.value{font-family:Consolas,"Liberation Mono",Menlo,Courier,monospace;font-size:16px}#chart-5a22099f-79e5-4806-bd1f-e25f4c86b8fd .text-overlay text.label{font-family:Consolas,"Liberation Mono",Menlo,Courier,monospace;font-size:10px}#chart-5a22099f-79e5-4806-bd1f-e25f4c86b8fd .tooltip{font-family:Consolas,"Liberation Mono",Menlo,Courier,monospace;font-size:14px}#chart-5a22099f-79e5-4806-bd1f-e25f4c86b8fd text.no_data{font-family:Consolas,"Liberation Mono",Menlo,Courier,monospace;font-size:64px}
#chart-5a22099f-79e5-4806-bd1f-e25f4c86b8fd{background-color:rgba(249,249,249,1)}#chart-5a22099f-79e5-4806-bd1f-e25f4c86b8fd path,#chart-5a22099f-79e5-4806-bd1f-e25f4c86b8fd line,#chart-5a22099f-79e5-4806-bd1f-e25f4c86b8fd rect,#chart-5a22099f-79e5-4806-bd1f-e25f4c86b8fd circle{-webkit-transition:150ms;-moz-transition:150ms;transition:150ms}#chart-5a22099f-79e5-4806-bd1f-e25f4c86b8fd .graph &gt; .background{fill:rgba(249,249,249,1)}#chart-5a22099f-79e5-4806-bd1f-e25f4c86b8fd .plot &gt; .background{fill:rgba(255,255,255,1)}#chart-5a22099f-79e5-4806-bd1f-e25f4c86b8fd .graph{fill:rgba(0,0,0,.87)}#chart-5a22099f-79e5-4806-bd1f-e25f4c86b8fd text.no_data{fill:rgba(0,0,0,1)}#chart-5a22099f-79e5-4806-bd1f-e25f4c86b8fd .title{fill:rgba(0,0,0,1)}#chart-5a22099f-79e5-4806-bd1f-e25f4c86b8fd .legends .legend text{fill:rgba(0,0,0,.87)}#chart-5a22099f-79e5-4806-bd1f-e25f4c86b8fd .legends .legend:hover text{fill:rgba(0,0,0,1)}#chart-5a22099f-79e5-4806-bd1f-e25f4c86b8fd .axis .line{stroke:rgba(0,0,0,1)}#chart-5a22099f-79e5-4806-bd1f-e25f4c86b8fd .axis .guide.line{stroke:rgba(0,0,0,.54)}#chart-5a22099f-79e5-4806-bd1f-e25f4c86b8fd .axis .major.line{stroke:rgba(0,0,0,.87)}#chart-5a22099f-79e5-4806-bd1f-e25f4c86b8fd .axis text.major{fill:rgba(0,0,0,1)}#chart-5a22099f-79e5-4806-bd1f-e25f4c86b8fd .axis.y .guides:hover .guide.line,#chart-5a22099f-79e5-4806-bd1f-e25f4c86b8fd .line-graph .axis.x .guides:hover .guide.line,#chart-5a22099f-79e5-4806-bd1f-e25f4c86b8fd .stackedline-graph .axis.x .guides:hover .guide.line,#chart-5a22099f-79e5-4806-bd1f-e25f4c86b8fd .xy-graph .axis.x .guides:hover .guide.line{stroke:rgba(0,0,0,1)}#chart-5a22099f-79e5-4806-bd1f-e25f4c86b8fd .axis .guides:hover text{fill:rgba(0,0,0,1)}#chart-5a22099f-79e5-4806-bd1f-e25f4c86b8fd .reactive{fill-opacity:.7;stroke-opacity:.8;stroke-width:1}#chart-5a22099f-79e5-4806-bd1f-e25f4c86b8fd .ci{stroke:rgba(0,0,0,.87)}#chart-5a22099f-79e5-4806-bd1f-e25f4c86b8fd .reactive.active,#chart-5a22099f-79e5-4806-bd1f-e25f4c86b8fd .active .reactive{fill-opacity:.8;stroke-opacity:.9;stroke-width:4}#chart-5a22099f-79e5-4806-bd1f-e25f4c86b8fd .ci .reactive.active{stroke-width:1.5}#chart-5a22099f-79e5-4806-bd1f-e25f4c86b8fd .series text{fill:rgba(0,0,0,1)}#chart-5a22099f-79e5-4806-bd1f-e25f4c86b8fd .tooltip rect{fill:rgba(255,255,255,1);stroke:rgba(0,0,0,1);-webkit-transition:opacity 150ms;-moz-transition:opacity 150ms;transition:opacity 150ms}#chart-5a22099f-79e5-4806-bd1f-e25f4c86b8fd .tooltip .label{fill:rgba(0,0,0,.87)}#chart-5a22099f-79e5-4806-bd1f-e25f4c86b8fd .tooltip .label{fill:rgba(0,0,0,.87)}#chart-5a22099f-79e5-4806-bd1f-e25f4c86b8fd .tooltip .legend{font-size:.8em;fill:rgba(0,0,0,.54)}#chart-5a22099f-79e5-4806-bd1f-e25f4c86b8fd .tooltip .x_label{font-size:.6em;fill:rgba(0,0,0,1)}#chart-5a22099f-79e5-4806-bd1f-e25f4c86b8fd .tooltip .xlink{font-size:.5em;text-decoration:underline}#chart-5a22099f-79e5-4806-bd1f-e25f4c86b8fd .tooltip .value{font-size:1.5em}#chart-5a22099f-79e5-4806-bd1f-e25f4c86b8fd .bound{font-size:.5em}#chart-5a22099f-79e5-4806-bd1f-e25f4c86b8fd .max-value{font-size:.75em;fill:rgba(0,0,0,.54)}#chart-5a22099f-79e5-4806-bd1f-e25f4c86b8fd .map-element{fill:rgba(255,255,255,1);stroke:rgba(0,0,0,.54) !important}#chart-5a22099f-79e5-4806-bd1f-e25f4c86b8fd .map-element .reactive{fill-opacity:inherit;stroke-opacity:inherit}#chart-5a22099f-79e5-4806-bd1f-e25f4c86b8fd .color-0,#chart-5a22099f-79e5-4806-bd1f-e25f4c86b8fd .color-0 a:visited{stroke:#F44336;fill:#F44336}#chart-5a22099f-79e5-4806-bd1f-e25f4c86b8fd .text-overlay .color-0 text{fill:black}
#chart-5a22099f-79e5-4806-bd1f-e25f4c86b8fd text.no_data{text-anchor:middle}#chart-5a22099f-79e5-4806-bd1f-e25f4c86b8fd .guide.line{fill:none}#chart-5a22099f-79e5-4806-bd1f-e25f4c86b8fd .centered{text-anchor:middle}#chart-5a22099f-79e5-4806-bd1f-e25f4c86b8fd .title{text-anchor:middle}#chart-5a22099f-79e5-4806-bd1f-e25f4c86b8fd .legends .legend text{fill-opacity:1}#chart-5a22099f-79e5-4806-bd1f-e25f4c86b8fd .axis.x text{text-anchor:middle}#chart-5a22099f-79e5-4806-bd1f-e25f4c86b8fd .axis.x:not(.web) text[transform]{text-anchor:start}#chart-5a22099f-79e5-4806-bd1f-e25f4c86b8fd .axis.x:not(.web) text[transform].backwards{text-anchor:end}#chart-5a22099f-79e5-4806-bd1f-e25f4c86b8fd .axis.y text{text-anchor:end}#chart-5a22099f-79e5-4806-bd1f-e25f4c86b8fd .axis.y text[transform].backwards{text-anchor:start}#chart-5a22099f-79e5-4806-bd1f-e25f4c86b8fd .axis.y2 text{text-anchor:start}#chart-5a22099f-79e5-4806-bd1f-e25f4c86b8fd .axis.y2 text[transform].backwards{text-anchor:end}#chart-5a22099f-79e5-4806-bd1f-e25f4c86b8fd .axis .guide.line{stroke-dasharray:4,4;stroke:black}#chart-5a22099f-79e5-4806-bd1f-e25f4c86b8fd .axis .major.guide.line{stroke-dasharray:6,6;stroke:black}#chart-5a22099f-79e5-4806-bd1f-e25f4c86b8fd .horizontal .axis.y .guide.line,#chart-5a22099f-79e5-4806-bd1f-e25f4c86b8fd .horizontal .axis.y2 .guide.line,#chart-5a22099f-79e5-4806-bd1f-e25f4c86b8fd .vertical .axis.x .guide.line{opacity:0}#chart-5a22099f-79e5-4806-bd1f-e25f4c86b8fd .horizontal .axis.always_show .guide.line,#chart-5a22099f-79e5-4806-bd1f-e25f4c86b8fd .vertical .axis.always_show .guide.line{opacity:1 !important}#chart-5a22099f-79e5-4806-bd1f-e25f4c86b8fd .axis.y .guides:hover .guide.line,#chart-5a22099f-79e5-4806-bd1f-e25f4c86b8fd .axis.y2 .guides:hover .guide.line,#chart-5a22099f-79e5-4806-bd1f-e25f4c86b8fd .axis.x .guides:hover .guide.line{opacity:1}#chart-5a22099f-79e5-4806-bd1f-e25f4c86b8fd .axis .guides:hover text{opacity:1}#chart-5a22099f-79e5-4806-bd1f-e25f4c86b8fd .nofill{fill:none}#chart-5a22099f-79e5-4806-bd1f-e25f4c86b8fd .subtle-fill{fill-opacity:.2}#chart-5a22099f-79e5-4806-bd1f-e25f4c86b8fd .dot{stroke-width:1px;fill-opacity:1;stroke-opacity:1}#chart-5a22099f-79e5-4806-bd1f-e25f4c86b8fd .dot.active{stroke-width:5px}#chart-5a22099f-79e5-4806-bd1f-e25f4c86b8fd .dot.negative{fill:transparent}#chart-5a22099f-79e5-4806-bd1f-e25f4c86b8fd text,#chart-5a22099f-79e5-4806-bd1f-e25f4c86b8fd tspan{stroke:none !important}#chart-5a22099f-79e5-4806-bd1f-e25f4c86b8fd .series text.active{opacity:1}#chart-5a22099f-79e5-4806-bd1f-e25f4c86b8fd .tooltip rect{fill-opacity:.95;stroke-width:.5}#chart-5a22099f-79e5-4806-bd1f-e25f4c86b8fd .tooltip text{fill-opacity:1}#chart-5a22099f-79e5-4806-bd1f-e25f4c86b8fd .showable{visibility:hidden}#chart-5a22099f-79e5-4806-bd1f-e25f4c86b8fd .showable.shown{visibility:visible}#chart-5a22099f-79e5-4806-bd1f-e25f4c86b8fd .gauge-background{fill:rgba(229,229,229,1);stroke:none}#chart-5a22099f-79e5-4806-bd1f-e25f4c86b8fd .bg-lines{stroke:rgba(249,249,249,1);stroke-width:2px}</style><script type="text/javascript">window.pygal = window.pygal || {};window.pygal.config = window.pygal.config || {};window.pygal.config['5a22099f-79e5-4806-bd1f-e25f4c86b8fd'] = {"allow_interruptions": false, "box_mode": "extremes", "classes": ["pygal-chart", "pygal-sparkline"], "css": ["file://style.css", "file://graph.css"], "defs": [], "disable_xml_declaration": false, "dots_size": 2.5, "dynamic_print_values": false, "explicit_size": true, "fill": false, "force_uri_protocol": "https", "formatter": null, "half_pie": false, "height": 50, "include_x_axis": false, "inner_radius": 0, "interpolate": "cubic", "interpolation_parameters": {}, "interpolation_precision": 250, "inverse_y_axis": false, "js": [], "legend_at_bottom": false, "legend_at_bottom_columns": null, "legend_box_size": 12, "logarithmic": false, "margin": 10, "margin_bottom": null, "margin_left": null, "margin_right": null, "margin_top": null, "max_scale": 2, "min_scale": 1, "missing_value_fill_truncation": "x", "no_data_text": "", "no_prefix": false, "order_min": null, "pretty_print": false, "print_labels": false, "print_values": false, "print_values_position": "center", "print_zeroes": true, "range": null, "rounded_bars": null, "secondary_range": null, "show_dots": false, "show_legend": false, "show_minor_x_labels": true, "show_minor_y_labels": true, "show_only_major_dots": false, "show_x_guides": false, "show_x_labels": false, "show_y_guides": true, "show_y_labels": true, "spacing": 0, "stack_from_top": false, "strict": false, "stroke": true, "stroke_style": null, "style": {"background": "rgba(249, 249, 249, 1)", "ci_colors": [], "colors": ["#F44336", "#3F51B5", "#009688", "#FFC107", "#FF5722", "#9C27B0", "#03A9F4", "#8BC34A", "#FF9800", "#E91E63", "#2196F3", "#4CAF50", "#FFEB3B", "#673AB7", "#00BCD4", "#CDDC39", "#9E9E9E", "#607D8B"], "dot_opacity": "1", "font_family": "Consolas, \"Liberation Mono\", Menlo, Courier, monospace", "foreground": "rgba(0, 0, 0, .87)", "foreground_strong": "rgba(0, 0, 0, 1)", "foreground_subtle": "rgba(0, 0, 0, .54)", "guide_stroke_color": "black", "guide_stroke_dasharray": "4,4", "label_font_family": "Consolas, \"Liberation Mono\", Menlo, Courier, monospace", "label_font_size": 10, "legend_font_family": "Consolas, \"Liberation Mono\", Menlo, Courier, monospace", "legend_font_size": 14, "major_guide_stroke_color": "black", "major_guide_stroke_dasharray": "6,6", "major_label_font_family": "Consolas, \"Liberation Mono\", Menlo, Courier, monospace", "major_label_font_size": 10, "no_data_font_family": "Consolas, \"Liberation Mono\", Menlo, Courier, monospace", "no_data_font_size": 64, "opacity": ".7", "opacity_hover": ".8", "plot_background": "rgba(255, 255, 255, 1)", "stroke_opacity": ".8", "stroke_opacity_hover": ".9", "stroke_width": "1", "stroke_width_hover": "4", "title_font_family": "Consolas, \"Liberation Mono\", Menlo, Courier, monospace", "title_font_size": 16, "tooltip_font_family": "Consolas, \"Liberation Mono\", Menlo, Courier, monospace", "tooltip_font_size": 14, "transition": "150ms", "value_background": "rgba(229, 229, 229, 1)", "value_colors": [], "value_font_family": "Consolas, \"Liberation Mono\", Menlo, Courier, monospace", "value_font_size": 16, "value_label_font_family": "Consolas, \"Liberation Mono\", Menlo, Courier, monospace", "value_label_font_size": 10}, "title": null, "tooltip_border_radius": 0, "tooltip_fancy_mode": true, "truncate_label": null, "truncate_legend": null, "width": 200, "x_label_rotation": 0, "x_labels": ["2024/6", "2024/5", "2023/9", "2023/8", "2023/7", "2023/6", "2023/5", "2023/4", "2023/3", "2023/2", "2023/1"], "x_labels_major": null, "x_labels_major_count": null, "x_labels_major_every": null, "x_title": null, "xrange": null, "y_label_rotation": 0, "y_labels": null, "y_labels_major": null, "y_labels_major_count": null, "y_labels_major_every": null, "y_title": null, "zero": 0, "legends": [""]}</script></defs><title>Pygal</title><g class="graph line-graph vertical"><rect x="0" y="0" width="200" height="50" class="background" /><g transform="translate(88, 10)" class="plot"><rect x="0" y="0" width="102.0" height="30" class="background" /><g class="axis y always_show"><path d="M0.000000 30.000000 h102.000000" class="line" /><g class="guides"><path d="M0.000000 29.423077 h102.000000" class="guide line" /><text x="-5" y="32.92307692307692" class="">0.02227778101</text><title>0.02227778101</title></g><g class="guides"><path d="M0.000000 0.576923 h102.000000" class="guide line" /><text x="-5" y="4.076923076923077" class="">8.211096312</text><title>8.211096312</title></g></g><g class="series serie-0 color-0"><path d="M1.961538 22.456299 L2.000769 22.474389 2.040000 22.492479 2.079231 22.510568 2.118462 22.528655 2.157692 22.546742 2.196923 22.564826 2.236154 22.582908 2.275385 22.600987 2.314615 22.619063 2.353846 22.637136 2.393077 22.655205 2.432308 22.673270 2.471538 22.691330 2.510769 22.709385 2.550000 22.727435 2.589231 22.745478 2.628462 22.763516 2.667692 22.781548 2.706923 22.799572 2.746154 22.817589 2.785385 22.835598 2.824615 22.853600 2.863846 22.871593 2.903077 22.889577 2.942308 22.907552 2.981538 22.925517 3.020769 22.943472 3.060000 22.961417 3.099231 22.979351 3.138462 22.997274 3.177692 23.015186 3.216923 23.033085 3.256154 23.050972 3.295385 23.068847 3.334615 23.086709 3.373846 23.104557 3.413077 23.122391 3.452308 23.140211 3.491538 23.158017 3.530769 23.175807 3.570000 23.193582 3.609231 23.211342 3.648462 23.229085 3.687692 23.246812 3.726923 23.264522 3.766154 23.282215 3.805385 23.299890 3.844615 23.317546 3.883846 23.335185 3.923077 23.352805 3.962308 23.370405 4.001538 23.387986 4.040769 23.405547 4.080000 23.423088 4.119231 23.440607 4.158462 23.458106 4.197692 23.475583 4.236923 23.493039 4.276154 23.510472 4.315385 23.527882 4.354615 23.545270 4.393846 23.562634 4.433077 23.579974 4.472308 23.597290 4.511538 23.614581 4.550769 23.631848 4.590000 23.649089 4.629231 23.666304 4.668462 23.683493 4.707692 23.700656 4.746923 23.717792 4.786154 23.734901 4.825385 23.751981 4.864615 23.769034 4.903846 23.786059 4.943077 23.803055 4.982308 23.820021 5.021538 23.836958 5.060769 23.853865 5.100000 23.870742 5.139231 23.887588 5.178462 23.904403 5.217692 23.921186 5.256923 23.937938 5.296154 23.954657 5.335385 23.971344 5.374615 23.987998 5.413846 24.004618 5.453077 24.021204 5.492308 24.037756 5.531538 24.054274 5.570769 24.070757 5.610000 24.087204 5.649231 24.103616 5.688462 24.119992 5.727692 24.136331 5.766923 24.152633 5.806154 24.168898 5.845385 24.185126 5.884615 24.201315 5.923846 24.217466 5.963077 24.233578 6.002308 24.249652 6.041538 24.265685 6.080769 24.281679 6.120000 24.297632 6.159231 24.313545 6.198462 24.329416 6.237692 24.345246 6.276923 24.361034 6.316154 24.376780 6.355385 24.392484 6.394615 24.408144 6.433846 24.423761 6.473077 24.439334 6.512308 24.454863 6.551538 24.470348 6.590769 24.485787 6.630000 24.501181 6.669231 24.516530 6.708462 24.531832 6.747692 24.547088 6.786923 24.562298 6.826154 24.577460 6.865385 24.592574 6.904615 24.607640 6.943846 24.622658 6.983077 24.637627 7.022308 24.652547 7.061538 24.667418 7.100769 24.682239 7.140000 24.697009 7.179231 24.711728 7.218462 24.726397 7.257692 24.741014 7.296923 24.755579 7.336154 24.770092 7.375385 24.784553 7.414615 24.798960 7.453846 24.813315 7.493077 24.827615 7.532308 24.841861 7.571538 24.856053 7.610769 24.870190 7.650000 24.884271 7.689231 24.898297 7.728462 24.912267 7.767692 24.926180 7.806923 24.940036 7.846154 24.953836 7.885385 24.967577 7.924615 24.981261 7.963846 24.994886 8.003077 25.008453 8.042308 25.021960 8.081538 25.035408 8.120769 25.048796 8.160000 25.062124 8.199231 25.075391 8.238462 25.088597 8.277692 25.101742 8.316923 25.114825 8.356154 25.127845 8.395385 25.140803 8.434615 25.153698 8.473846 25.166530 8.513077 25.179298 8.552308 25.192002 8.591538 25.204641 8.630769 25.217216 8.670000 25.229725 8.709231 25.242168 8.748462 25.254546 8.787692 25.266857 8.826923 25.279101 8.866154 25.291278 8.905385 25.303388 8.944615 25.315429 8.983846 25.327402 9.023077 25.339307 9.062308 25.351142 9.101538 25.362908 9.140769 25.374604 9.180000 25.386229 9.219231 25.397785 9.258462 25.409269 9.297692 25.420681 9.336923 25.432022 9.376154 25.443290 9.415385 25.454486 9.454615 25.465610 9.493846 25.476659 9.533077 25.487635 9.572308 25.498537 9.611538 25.509365 9.650769 25.520117 9.690000 25.530794 9.729231 25.541396 9.768462 25.551922 9.807692 25.562371 9.846923 25.572743 9.886154 25.583039 9.925385 25.593256 9.964615 25.603396 10.003846 25.613458 10.043077 25.623440 10.082308 25.633344 10.121538 25.643168 10.160769 25.652912 10.200000 25.662576 10.239231 25.672160 10.278462 25.681662 10.317692 25.691083 10.356923 25.700422 10.396154 25.709679 10.435385 25.718854 10.474615 25.727945 10.513846 25.736953 10.553077 25.745878 10.592308 25.754718 10.631538 25.763474 10.670769 25.772145 10.710000 25.780731 10.749231 25.789232 10.788462 25.797646 10.827692 25.805974 10.866923 25.814215 10.906154 25.822369 10.945385 25.830435 10.984615 25.838413 11.023846 25.846304 11.063077 25.854105 11.102308 25.861817 11.141538 25.869440 11.180769 25.876973 11.220000 25.884416 11.259231 25.891768 11.298462 25.899029 11.337692 25.906199 11.376923 25.913277 11.416154 25.920263 11.455385 25.927157 11.494615 25.933957 11.533846 25.940664 11.573077 25.947278 11.612308 25.953797 11.651538 25.960222 11.690769 25.966552 11.730000 25.972787 11.769231 25.978926 11.808462 25.984970 11.847692 25.990918 11.886923 25.996771 11.926154 26.002530 11.965385 26.008195 12.004615 26.013767 12.043846 26.019246 12.083077 26.024634 12.122308 26.029929 12.161538 26.035135 12.200769 26.040249 12.240000 26.045274 12.279231 26.050210 12.318462 26.055057 12.357692 26.059816 12.396923 26.064488 12.436154 26.069073 12.475385 26.073571 12.514615 26.077984 12.553846 26.082311 12.593077 26.086554 12.632308 26.090712 12.671538 26.094788 12.710769 26.098780 12.750000 26.102690 12.789231 26.106518 12.828462 26.110264 12.867692 26.113930 12.906923 26.117516 12.946154 26.121023 12.985385 26.124450 13.024615 26.127799 13.063846 26.131070 13.103077 26.134264 13.142308 26.137381 13.181538 26.140423 13.220769 26.143388 13.260000 26.146279 13.299231 26.149095 13.338462 26.151837 13.377692 26.154506 13.416923 26.157102 13.456154 26.159626 13.495385 26.162078 13.534615 26.164459 13.573846 26.166770 13.613077 26.169011 13.652308 26.171183 13.691538 26.173286 13.730769 26.175320 13.770000 26.177287 13.809231 26.179187 13.848462 26.181021 13.887692 26.182788 13.926923 26.184490 13.966154 26.186128 14.005385 26.187701 14.044615 26.189210 14.083846 26.190656 14.123077 26.192040 14.162308 26.193362 14.201538 26.194623 14.240769 26.195822 14.280000 26.196961 14.319231 26.198041 14.358462 26.199062 14.397692 26.200024 14.436923 26.200928 14.476154 26.201774 14.515385 26.202564 14.554615 26.203297 14.593846 26.203975 14.633077 26.204598 14.672308 26.205165 14.711538 26.205679 14.750769 26.206140 14.790000 26.206547 14.829231 26.206903 14.868462 26.207206 14.907692 26.207458 14.946923 26.207660 14.986154 26.207812 15.025385 26.207914 15.064615 26.207967 15.103846 26.207972 15.143077 26.207929 15.182308 26.207839 15.221538 26.207702 15.260769 26.207519 15.300000 26.207291 15.339231 26.207017 15.378462 26.206700 15.417692 26.206338 15.456923 26.205933 15.496154 26.205486 15.535385 26.204996 15.574615 26.204465 15.613846 26.203893 15.653077 26.203280 15.692308 26.202628 15.731538 26.201936 15.770769 26.201206 15.810000 26.200438 15.849231 26.199632 15.888462 26.198788 15.927692 26.197909 15.966923 26.196993 16.006154 26.196043 16.045385 26.195057 16.084615 26.194038 16.123846 26.192984 16.163077 26.191898 16.202308 26.190779 16.241538 26.189629 16.280769 26.188447 16.320000 26.187234 16.359231 26.185991 16.398462 26.184718 16.437692 26.183417 16.476923 26.182086 16.516154 26.180728 16.555385 26.179343 16.594615 26.177930 16.633846 26.176492 16.673077 26.175028 16.712308 26.173538 16.751538 26.172024 16.790769 26.170487 16.830000 26.168925 16.869231 26.167341 16.908462 26.165735 16.947692 26.164107 16.986923 26.162458 17.026154 26.160788 17.065385 26.159099 17.104615 26.157389 17.143846 26.155661 17.183077 26.153915 17.222308 26.152151 17.261538 26.150370 17.300769 26.148572 17.340000 26.146758 17.379231 26.144929 17.418462 26.143085 17.457692 26.141226 17.496923 26.139354 17.536154 26.137469 17.575385 26.135571 17.614615 26.133661 17.653846 26.131739 17.693077 26.129807 17.732308 26.127864 17.771538 26.125911 17.810769 26.123949 17.850000 26.121979 17.889231 26.120000 17.928462 26.118014 17.967692 26.116021 18.006923 26.114021 18.046154 26.112016 18.085385 26.110005 18.124615 26.107990 18.163846 26.105971 18.203077 26.103948 18.242308 26.101922 18.281538 26.099893 18.320769 26.097863 18.360000 26.095832 18.399231 26.093800 18.438462 26.091767 18.477692 26.089735 18.516923 26.087705 18.556154 26.085675 18.595385 26.083648 18.634615 26.081623 18.673846 26.079602 18.713077 26.077585 18.752308 26.075572 18.791538 26.073563 18.830769 26.071561 18.870000 26.069564 18.909231 26.067575 18.948462 26.065592 18.987692 26.063617 19.026923 26.061651 19.066154 26.059693 19.105385 26.057745 19.144615 26.055807 19.183846 26.053880 19.223077 26.051963 19.262308 26.050059 19.301538 26.048167 19.340769 26.046288 19.380000 26.044422 19.419231 26.042570 19.458462 26.040733 19.497692 26.038911 19.536923 26.037105 19.576154 26.035315 19.615385 26.033542 19.654615 26.031786 19.693846 26.030049 19.733077 26.028330 19.772308 26.026630 19.811538 26.024950 19.850769 26.023290 19.890000 26.021651 19.929231 26.020033 19.968462 26.018437 20.007692 26.016864 20.046923 26.015314 20.086154 26.013787 20.125385 26.012285 20.164615 26.010808 20.203846 26.009356 20.243077 26.007930 20.282308 26.006530 20.321538 26.005158 20.360769 26.003813 20.400000 26.002496 20.439231 26.001208 20.478462 25.999950 20.517692 25.998721 20.556923 25.997523 20.596154 25.996356 20.635385 25.995220 20.674615 25.994117 20.713846 25.993047 20.753077 25.992009 20.792308 25.991006 20.831538 25.990037 20.870769 25.989103 20.910000 25.988205 20.949231 25.987342 20.988462 25.986517 21.027692 25.985729 21.066923 25.984978 21.106154 25.984267 21.145385 25.983594 21.184615 25.982960 21.223846 25.982367 21.263077 25.981814 21.302308 25.981303 21.341538 25.980833 21.380769 25.980406 21.420000 25.980022 21.459231 25.979681 21.498462 25.979385 21.537692 25.979133 21.576923 25.978926 21.616154 25.978765 21.655385 25.978649 21.694615 25.978578 21.733846 25.978551 21.773077 25.978568 21.812308 25.978628 21.851538 25.978730 21.890769 25.978875 21.930000 25.979061 21.969231 25.979288 22.008462 25.979555 22.047692 25.979863 22.086923 25.980210 22.126154 25.980595 22.165385 25.981020 22.204615 25.981481 22.243846 25.981981 22.283077 25.982517 22.322308 25.983089 22.361538 25.983696 22.400769 25.984339 22.440000 25.985017 22.479231 25.985729 22.518462 25.986474 22.557692 25.987252 22.596923 25.988063 22.636154 25.988906 22.675385 25.989780 22.714615 25.990685 22.753846 25.991620 22.793077 25.992586 22.832308 25.993580 22.871538 25.994603 22.910769 25.995655 22.950000 25.996734 22.989231 25.997841 23.028462 25.998974 23.067692 26.000133 23.106923 26.001318 23.146154 26.002528 23.185385 26.003762 23.224615 26.005020 23.263846 26.006302 23.303077 26.007607 23.342308 26.008934 23.381538 26.010283 23.420769 26.011653 23.460000 26.013044 23.499231 26.014455 23.538462 26.015887 23.577692 26.017337 23.616923 26.018806 23.656154 26.020293 23.695385 26.021797 23.734615 26.023319 23.773846 26.024857 23.813077 26.026412 23.852308 26.027981 23.891538 26.029566 23.930769 26.031165 23.970000 26.032778 24.009231 26.034405 24.048462 26.036044 24.087692 26.037695 24.126923 26.039358 24.166154 26.041033 24.205385 26.042718 24.244615 26.044413 24.283846 26.046118 24.323077 26.047832 24.362308 26.049554 24.401538 26.051285 24.440769 26.053023 24.480000 26.054768 24.519231 26.056520 24.558462 26.058277 24.597692 26.060040 24.636923 26.061807 24.676154 26.063579 24.715385 26.065355 24.754615 26.067134 24.793846 26.068915 24.833077 26.070699 24.872308 26.072485 24.911538 26.074271 24.950769 26.076058 24.990000 26.077845 25.029231 26.079632 25.068462 26.081418 25.107692 26.083202 25.146923 26.084984 25.186154 26.086764 25.225385 26.088540 25.264615 26.090313 25.303846 26.092081 25.343077 26.093845 25.382308 26.095603 25.421538 26.097356 25.460769 26.099102 25.500000 26.100842 25.539231 26.102574 25.578462 26.104298 25.617692 26.106014 25.656923 26.107721 25.696154 26.109418 25.735385 26.111105 25.774615 26.112782 25.813846 26.114447 25.853077 26.116101 25.892308 26.117743 25.931538 26.119371 25.970769 26.120987 26.010000 26.122589 26.049231 26.124177 26.088462 26.125749 26.127692 26.127307 26.166923 26.128848 26.206154 26.130373 26.245385 26.131882 26.284615 26.133372 26.323846 26.134845 26.363077 26.136299 26.402308 26.137734 26.441538 26.139149 26.480769 26.140544 26.520000 26.141919 26.559231 26.143272 26.598462 26.144603 26.637692 26.145913 26.676923 26.147199 26.716154 26.148462 26.755385 26.149701 26.794615 26.150916 26.833846 26.152106 26.873077 26.153270 26.912308 26.154409 26.951538 26.155520 26.990769 26.156605 27.030000 26.157662 27.069231 26.158691 27.108462 26.159692 27.147692 26.160663 27.186923 26.161604 27.226154 26.162515 27.265385 26.163396 27.304615 26.164245 27.343846 26.165062 27.383077 26.165847 27.422308 26.166599 27.461538 26.167317 27.500769 26.168002 27.540000 26.168652 27.579231 26.169266 27.618462 26.169846 27.657692 26.170389 27.696923 26.170895 27.736154 26.171365 27.775385 26.171797 27.814615 26.172190 27.853846 26.172545 27.893077 26.172860 27.932308 26.173136 27.971538 26.173371 28.010769 26.173565 28.050000 26.173718 28.089231 26.173829 28.128462 26.173897 28.167692 26.173923 28.206923 26.173905 28.246154 26.173842 28.285385 26.173735 28.324615 26.173583 28.363846 26.173386 28.403077 26.173142 28.442308 26.172851 28.481538 26.172513 28.520769 26.172127 28.560000 26.171693 28.599231 26.171210 28.638462 26.170678 28.677692 26.170096 28.716923 26.169463 28.756154 26.168779 28.795385 26.168044 28.834615 26.167257 28.873846 26.166417 28.913077 26.165524 28.952308 26.164577 28.991538 26.163576 29.030769 26.162520 29.070000 26.161409 29.109231 26.160243 29.148462 26.159020 29.187692 26.157740 29.226923 26.156402 29.266154 26.155007 29.305385 26.153554 29.344615 26.152041 29.383846 26.150469 29.423077 26.148837 29.462308 26.147144 29.501538 26.145390 29.540769 26.143575 29.580000 26.141697 29.619231 26.139757 29.658462 26.137754 29.697692 26.135686 29.736923 26.133555 29.776154 26.131358 29.815385 26.129096 29.854615 26.126769 29.893846 26.124375 29.933077 26.121914 29.972308 26.119385 30.011538 26.116789 30.050769 26.114123 30.090000 26.111389 30.129231 26.108585 30.168462 26.105712 30.207692 26.102767 30.246923 26.099751 30.286154 26.096664 30.325385 26.093504 30.364615 26.090271 30.403846 26.086965 30.443077 26.083585 30.482308 26.080131 30.521538 26.076602 30.560769 26.072997 30.600000 26.069317 30.639231 26.065559 30.678462 26.061725 30.717692 26.057813 30.756923 26.053823 30.796154 26.049755 30.835385 26.045607 30.874615 26.041380 30.913846 26.037072 30.953077 26.032683 30.992308 26.028214 31.031538 26.023662 31.070769 26.019028 31.110000 26.014311 31.149231 26.009511 31.188462 26.004626 31.227692 25.999657 31.266923 25.994603 31.306154 25.989464 31.345385 25.984238 31.384615 25.978926 31.423846 25.973527 31.463077 25.968043 31.502308 25.962474 31.541538 25.956823 31.580769 25.951091 31.620000 25.945279 31.659231 25.939390 31.698462 25.933425 31.737692 25.927384 31.776923 25.921271 31.816154 25.915086 31.855385 25.908832 31.894615 25.902508 31.933846 25.896118 31.973077 25.889663 32.012308 25.883143 32.051538 25.876562 32.090769 25.869920 32.130000 25.863219 32.169231 25.856460 32.208462 25.849645 32.247692 25.842776 32.286923 25.835854 32.326154 25.828881 32.365385 25.821858 32.404615 25.814787 32.443846 25.807670 32.483077 25.800507 32.522308 25.793301 32.561538 25.786053 32.600769 25.778764 32.640000 25.771437 32.679231 25.764073 32.718462 25.756673 32.757692 25.749238 32.796923 25.741771 32.836154 25.734274 32.875385 25.726746 32.914615 25.719191 32.953846 25.711610 32.993077 25.704004 33.032308 25.696374 33.071538 25.688723 33.110769 25.681052 33.150000 25.673362 33.189231 25.665656 33.228462 25.657934 33.267692 25.650198 33.306923 25.642450 33.346154 25.634691 33.385385 25.626923 33.424615 25.619147 33.463846 25.611366 33.503077 25.603579 33.542308 25.595790 33.581538 25.588000 33.620769 25.580210 33.660000 25.572421 33.699231 25.564636 33.738462 25.556856 33.777692 25.549082 33.816923 25.541316 33.856154 25.533560 33.895385 25.525815 33.934615 25.518083 33.973846 25.510365 34.013077 25.502662 34.052308 25.494977 34.091538 25.487311 34.130769 25.479666 34.170000 25.472042 34.209231 25.464442 34.248462 25.456867 34.287692 25.449319 34.326923 25.441800 34.366154 25.434310 34.405385 25.426851 34.444615 25.419426 34.483846 25.412035 34.523077 25.404680 34.562308 25.397362 34.601538 25.390084 34.640769 25.382847 34.680000 25.375652 34.719231 25.368501 34.758462 25.361395 34.797692 25.354336 34.836923 25.347326 34.876154 25.340366 34.915385 25.333458 34.954615 25.326603 34.993846 25.319803 35.033077 25.313059 35.072308 25.306373 35.111538 25.299747 35.150769 25.293181 35.190000 25.286678 35.229231 25.280240 35.268462 25.273867 35.307692 25.267561 35.346923 25.261325 35.386154 25.255158 35.425385 25.249064 35.464615 25.243043 35.503846 25.237097 35.543077 25.231228 35.582308 25.225437 35.621538 25.219726 35.660769 25.214096 35.700000 25.208549 35.739231 25.203087 35.778462 25.197710 35.817692 25.192421 35.856923 25.187221 35.896154 25.182112 35.935385 25.177096 35.974615 25.172172 36.013846 25.167345 36.053077 25.162614 36.092308 25.157982 36.131538 25.153450 36.170769 25.149019 36.210000 25.144692 36.249231 25.140469 36.288462 25.136352 36.327692 25.132344 36.366923 25.128445 36.406154 25.124657 36.445385 25.120981 36.484615 25.117419 36.523846 25.113973 36.563077 25.110645 36.602308 25.107435 36.641538 25.104345 36.680769 25.101378 36.720000 25.098533 36.759231 25.095814 36.798462 25.093221 36.837692 25.090757 36.876923 25.088422 36.916154 25.086218 36.955385 25.084148 36.994615 25.082211 37.033846 25.080411 37.073077 25.078748 37.112308 25.077224 37.151538 25.075840 37.190769 25.074599 37.230000 25.073502 37.269231 25.072550 37.308462 25.071744 37.347692 25.071087 37.386923 25.070580 37.426154 25.070225 37.465385 25.070023 37.504615 25.069975 37.543846 25.070084 37.583077 25.070350 37.622308 25.070776 37.661538 25.071362 37.700769 25.072111 37.740000 25.073024 37.779231 25.074103 37.818462 25.075349 37.857692 25.076763 37.896923 25.078348 37.936154 25.080104 37.975385 25.082034 38.014615 25.084139 38.053846 25.086420 38.093077 25.088880 38.132308 25.091519 38.171538 25.094339 38.210769 25.097342 38.250000 25.100529 38.289231 25.103902 38.328462 25.107462 38.367692 25.111212 38.406923 25.115152 38.446154 25.119284 38.485385 25.123610 38.524615 25.128130 38.563846 25.132848 38.603077 25.137764 38.642308 25.142880 38.681538 25.148198 38.720769 25.153718 38.760000 25.159443 38.799231 25.165374 38.838462 25.171513 38.877692 25.177861 38.916923 25.184420 38.956154 25.191191 38.995385 25.198176 39.034615 25.205377 39.073846 25.212795 39.113077 25.220431 39.152308 25.228287 39.191538 25.236366 39.230769 25.244667 39.270000 25.253194 39.309231 25.261946 39.348462 25.270927 39.387692 25.280138 39.426923 25.289579 39.466154 25.299253 39.505385 25.309162 39.544615 25.319306 39.583846 25.329687 39.623077 25.340307 39.662308 25.351168 39.701538 25.362271 39.740769 25.373617 39.780000 25.385209 39.819231 25.397047 39.858462 25.409134 39.897692 25.421470 39.936923 25.434057 39.976154 25.446898 40.015385 25.459993 40.054615 25.473344 40.093846 25.486953 40.133077 25.500821 40.172308 25.514950 40.211538 25.529341 40.250769 25.543996 40.290000 25.558916 40.329231 25.574103 40.368462 25.589559 40.407692 25.605285 40.446923 25.621282 40.486154 25.637553 40.525385 25.654099 40.564615 25.670921 40.603846 25.688020 40.643077 25.705400 40.682308 25.723060 40.721538 25.741003 40.760769 25.759230 40.800000 25.777743 40.839231 25.796542 40.878462 25.815631 40.917692 25.835010 40.956923 25.854681 40.996154 25.874646 41.035385 25.894906 41.074615 25.915462 41.113846 25.936316 41.153077 25.957471 41.192308 25.978926 41.231538 26.000683 41.270769 26.022738 41.310000 26.045083 41.349231 26.067715 41.388462 26.090626 41.427692 26.113812 41.466923 26.137267 41.506154 26.160984 41.545385 26.184958 41.584615 26.209184 41.623846 26.233656 41.663077 26.258368 41.702308 26.283314 41.741538 26.308489 41.780769 26.333887 41.820000 26.359502 41.859231 26.385329 41.898462 26.411361 41.937692 26.437593 41.976923 26.464020 42.016154 26.490636 42.055385 26.517434 42.094615 26.544410 42.133846 26.571558 42.173077 26.598871 42.212308 26.626344 42.251538 26.653972 42.290769 26.681749 42.330000 26.709668 42.369231 26.737725 42.408462 26.765914 42.447692 26.794228 42.486923 26.822663 42.526154 26.851212 42.565385 26.879870 42.604615 26.908630 42.643846 26.937489 42.683077 26.966439 42.722308 26.995474 42.761538 27.024590 42.800769 27.053781 42.840000 27.083040 42.879231 27.112363 42.918462 27.141743 42.957692 27.171174 42.996923 27.200652 43.036154 27.230170 43.075385 27.259722 43.114615 27.289303 43.153846 27.318907 43.193077 27.348529 43.232308 27.378163 43.271538 27.407802 43.310769 27.437442 43.350000 27.467076 43.389231 27.496700 43.428462 27.526306 43.467692 27.555890 43.506923 27.585446 43.546154 27.614968 43.585385 27.644450 43.624615 27.673887 43.663846 27.703272 43.703077 27.732601 43.742308 27.761868 43.781538 27.791066 43.820769 27.820190 43.860000 27.849235 43.899231 27.878194 43.938462 27.907063 43.977692 27.935834 44.016923 27.964504 44.056154 27.993065 44.095385 28.021512 44.134615 28.049839 44.173846 28.078042 44.213077 28.106113 44.252308 28.134048 44.291538 28.161840 44.330769 28.189484 44.370000 28.216974 44.409231 28.244305 44.448462 28.271470 44.487692 28.298465 44.526923 28.325283 44.566154 28.351918 44.605385 28.378366 44.644615 28.404619 44.683846 28.430673 44.723077 28.456522 44.762308 28.482160 44.801538 28.507582 44.840769 28.532781 44.880000 28.557752 44.919231 28.582489 44.958462 28.606987 44.997692 28.631240 45.036923 28.655242 45.076154 28.678987 45.115385 28.702470 45.154615 28.725685 45.193846 28.748626 45.233077 28.771288 45.272308 28.793665 45.311538 28.815751 45.350769 28.837540 45.390000 28.859027 45.429231 28.880206 45.468462 28.901072 45.507692 28.921618 45.546923 28.941839 45.586154 28.961729 45.625385 28.981283 45.664615 29.000494 45.703846 29.019358 45.743077 29.037868 45.782308 29.056019 45.821538 29.073804 45.860769 29.091219 45.900000 29.108258 45.939231 29.124914 45.978462 29.141182 46.017692 29.157057 46.056923 29.172532 46.096154 29.187603 46.135385 29.202263 46.174615 29.216506 46.213846 29.230327 46.253077 29.243721 46.292308 29.256680 46.331538 29.269201 46.370769 29.281277 46.410000 29.292902 46.449231 29.304070 46.488462 29.314777 46.527692 29.325015 46.566923 29.334781 46.606154 29.344067 46.645385 29.352868 46.684615 29.361178 46.723846 29.368992 46.763077 29.376304 46.802308 29.383108 46.841538 29.389399 46.880769 29.395171 46.920000 29.400418 46.959231 29.405134 46.998462 29.409314 47.037692 29.412952 47.076923 29.416042 47.116154 29.418578 47.155385 29.420556 47.194615 29.421969 47.233846 29.422811 47.273077 29.423077 47.312308 29.422761 47.351538 29.421857 47.390769 29.420360 47.430000 29.418264 47.469231 29.415563 47.508462 29.412251 47.547692 29.408324 47.586923 29.403774 47.626154 29.398597 47.665385 29.392786 47.704615 29.386336 47.743846 29.379242 47.783077 29.371497 47.822308 29.363096 47.861538 29.354033 47.900769 29.344302 47.940000 29.333899 47.979231 29.322816 48.018462 29.311048 48.057692 29.298590 48.096923 29.285436 48.136154 29.271580 48.175385 29.257016 48.214615 29.241739 48.253846 29.225743 48.293077 29.209023 48.332308 29.191572 48.371538 29.173385 48.410769 29.154456 48.450000 29.134780 48.489231 29.114350 48.528462 29.093162 48.567692 29.071209 48.606923 29.048485 48.646154 29.024986 48.685385 29.000704 48.724615 28.975636 48.763846 28.949774 48.803077 28.923113 48.842308 28.895647 48.881538 28.867371 48.920769 28.838280 48.960000 28.808366 48.999231 28.777625 49.038462 28.746051 49.077692 28.713638 49.116923 28.680381 49.156154 28.646273 49.195385 28.611309 49.234615 28.575484 49.273846 28.538791 49.313077 28.501225 49.352308 28.462780 49.391538 28.423451 49.430769 28.383231 49.470000 28.342116 49.509231 28.300099 49.548462 28.257174 49.587692 28.213337 49.626923 28.168580 49.666154 28.122899 49.705385 28.076288 49.744615 28.028742 49.783846 27.980253 49.823077 27.930817 49.862308 27.880428 49.901538 27.829081 49.940769 27.776769 49.980000 27.723487 50.019231 27.669229 50.058462 27.613989 50.097692 27.557762 50.136923 27.500542 50.176154 27.442324 50.215385 27.383101 50.254615 27.322868 50.293846 27.261619 50.333077 27.199348 50.372308 27.136051 50.411538 27.071720 50.450769 27.006351 50.490000 26.939937 50.529231 26.872474 50.568462 26.803954 50.607692 26.734373 50.646923 26.663725 50.686154 26.592004 50.725385 26.519204 50.764615 26.445321 50.803846 26.370346 50.843077 26.294277 50.882308 26.217106 50.921538 26.138827 50.960769 26.059436 51.000000 25.978926 51.039231 25.897295 51.078462 25.814551 51.117692 25.730707 51.156923 25.645774 51.196154 25.559764 51.235385 25.472688 51.274615 25.384559 51.313846 25.295389 51.353077 25.205188 51.392308 25.113970 51.431538 25.021745 51.470769 24.928526 51.510000 24.834324 51.549231 24.739152 51.588462 24.643020 51.627692 24.545941 51.666923 24.447927 51.706154 24.348989 51.745385 24.249140 51.784615 24.148390 51.823846 24.046753 51.863077 23.944239 51.902308 23.840860 51.941538 23.736629 51.980769 23.631556 52.020000 23.525655 52.059231 23.418936 52.098462 23.311412 52.137692 23.203094 52.176923 23.093994 52.216154 22.984124 52.255385 22.873495 52.294615 22.762120 52.333846 22.650010 52.373077 22.537178 52.412308 22.423634 52.451538 22.309391 52.490769 22.194461 52.530000 22.078855 52.569231 21.962585 52.608462 21.845663 52.647692 21.728100 52.686923 21.609910 52.726154 21.491102 52.765385 21.371690 52.804615 21.251685 52.843846 21.131098 52.883077 21.009942 52.922308 20.888229 52.961538 20.765969 53.000769 20.643176 53.040000 20.519860 53.079231 20.396034 53.118462 20.271710 53.157692 20.146898 53.196923 20.021612 53.236154 19.895862 53.275385 19.769661 53.314615 19.643021 53.353846 19.515952 53.393077 19.388468 53.432308 19.260580 53.471538 19.132299 53.510769 19.003638 53.550000 18.874608 53.589231 18.745221 53.628462 18.615489 53.667692 18.485423 53.706923 18.355036 53.746154 18.224339 53.785385 18.093345 53.824615 17.962064 53.863846 17.830509 53.903077 17.698692 53.942308 17.566624 53.981538 17.434317 54.020769 17.301783 54.060000 17.169033 54.099231 17.036081 54.138462 16.902936 54.177692 16.769612 54.216923 16.636119 54.256154 16.502471 54.295385 16.368678 54.334615 16.234752 54.373846 16.100706 54.413077 15.966550 54.452308 15.832297 54.491538 15.697959 54.530769 15.563547 54.570000 15.429074 54.609231 15.294550 54.648462 15.159989 54.687692 15.025401 54.726923 14.890798 54.766154 14.756192 54.805385 14.621596 54.844615 14.487020 54.883846 14.352478 54.923077 14.217979 54.962308 14.083537 55.001538 13.949163 55.040769 13.814868 55.080000 13.680666 55.119231 13.546567 55.158462 13.412583 55.197692 13.278726 55.236923 13.145008 55.276154 13.011441 55.315385 12.878036 55.354615 12.744806 55.393846 12.611762 55.433077 12.478915 55.472308 12.346279 55.511538 12.213864 55.550769 12.081682 55.590000 11.949745 55.629231 11.818066 55.668462 11.686655 55.707692 11.555524 55.746923 11.424686 55.786154 11.294153 55.825385 11.163935 55.864615 11.034045 55.903846 10.904494 55.943077 10.775295 55.982308 10.646459 56.021538 10.517998 56.060769 10.389924 56.100000 10.262249 56.139231 10.134984 56.178462 10.008141 56.217692 9.881732 56.256923 9.755769 56.296154 9.630264 56.335385 9.505228 56.374615 9.380673 56.413846 9.256612 56.453077 9.133055 56.492308 9.010015 56.531538 8.887503 56.570769 8.765532 56.610000 8.644113 56.649231 8.523258 56.688462 8.402978 56.727692 8.283286 56.766923 8.164193 56.806154 8.045711 56.845385 7.927852 56.884615 7.810628 56.923846 7.694051 56.963077 7.578132 57.002308 7.462882 57.041538 7.348315 57.080769 7.234442 57.120000 7.121274 57.159231 7.008823 57.198462 6.897102 57.237692 6.786122 57.276923 6.675894 57.316154 6.566431 57.355385 6.457744 57.394615 6.349846 57.433846 6.242748 57.473077 6.136461 57.512308 6.030998 57.551538 5.926370 57.590769 5.822590 57.630000 5.719668 57.669231 5.617618 57.708462 5.516450 57.747692 5.416176 57.786923 5.316809 57.826154 5.218360 57.865385 5.120841 57.904615 5.024263 57.943846 4.928639 57.983077 4.833980 58.022308 4.740298 58.061538 4.647605 58.100769 4.555912 58.140000 4.465233 58.179231 4.375577 58.218462 4.286958 58.257692 4.199386 58.296923 4.112874 58.336154 4.027434 58.375385 3.943077 58.414615 3.859815 58.453846 3.777660 58.493077 3.696624 58.532308 3.616719 58.571538 3.537955 58.610769 3.460346 58.650000 3.383903 58.689231 3.308638 58.728462 3.234562 58.767692 3.161687 58.806923 3.090026 58.846154 3.019590 58.885385 2.950390 58.924615 2.882440 58.963846 2.815749 59.003077 2.750331 59.042308 2.686197 59.081538 2.623358 59.120769 2.561828 59.160000 2.501616 59.199231 2.442736 59.238462 2.385199 59.277692 2.329017 59.316923 2.274201 59.356154 2.220764 59.395385 2.168717 59.434615 2.118072 59.473846 2.068842 59.513077 2.021036 59.552308 1.974669 59.591538 1.929750 59.630769 1.886293 59.670000 1.844308 59.709231 1.803809 59.748462 1.764805 59.787692 1.727310 59.826923 1.691336 59.866154 1.656893 59.905385 1.623994 59.944615 1.592650 59.983846 1.562874 60.023077 1.534677 60.062308 1.508071 60.101538 1.483067 60.140769 1.459678 60.180000 1.437916 60.219231 1.417792 60.258462 1.399317 60.297692 1.382505 60.336923 1.367366 60.376154 1.353913 60.415385 1.342156 60.454615 1.332109 60.493846 1.323782 60.533077 1.317189 60.572308 1.312339 60.611538 1.309246 60.650769 1.307921 60.690000 1.308376 60.729231 1.310622 60.768462 1.314672 60.807692 1.320537 60.846923 1.328225 60.886154 1.337727 60.925385 1.349029 60.964615 1.362120 61.003846 1.376985 61.043077 1.393612 61.082308 1.411987 61.121538 1.432097 61.160769 1.453930 61.200000 1.477471 61.239231 1.502709 61.278462 1.529630 61.317692 1.558220 61.356923 1.588467 61.396154 1.620358 61.435385 1.653879 61.474615 1.689018 61.513846 1.725760 61.553077 1.764094 61.592308 1.804006 61.631538 1.845483 61.670769 1.888512 61.710000 1.933079 61.749231 1.979172 61.788462 2.026778 61.827692 2.075882 61.866923 2.126474 61.906154 2.178538 61.945385 2.232063 61.984615 2.287034 62.023846 2.343439 62.063077 2.401265 62.102308 2.460499 62.141538 2.521127 62.180769 2.583137 62.220000 2.646515 62.259231 2.711249 62.298462 2.777324 62.337692 2.844728 62.376923 2.913449 62.416154 2.983472 62.455385 3.054785 62.494615 3.127374 62.533846 3.201227 62.573077 3.276330 62.612308 3.352671 62.651538 3.430236 62.690769 3.509012 62.730000 3.588985 62.769231 3.670144 62.808462 3.752474 62.847692 3.835963 62.886923 3.920598 62.926154 4.006365 62.965385 4.093251 63.004615 4.181243 63.043846 4.270329 63.083077 4.360494 63.122308 4.451727 63.161538 4.544013 63.200769 4.637340 63.240000 4.731694 63.279231 4.827063 63.318462 4.923433 63.357692 5.020792 63.396923 5.119125 63.436154 5.218421 63.475385 5.318666 63.514615 5.419846 63.553846 5.521949 63.593077 5.624962 63.632308 5.728871 63.671538 5.833664 63.710769 5.939327 63.750000 6.045847 63.789231 6.153211 63.828462 6.261406 63.867692 6.370419 63.906923 6.480237 63.946154 6.590847 63.985385 6.702235 64.024615 6.814388 64.063846 6.927294 64.103077 7.040939 64.142308 7.155310 64.181538 7.270394 64.220769 7.386178 64.260000 7.502649 64.299231 7.619793 64.338462 7.737598 64.377692 7.856051 64.416923 7.975138 64.456154 8.094846 64.495385 8.215162 64.534615 8.336074 64.573846 8.457567 64.613077 8.579629 64.652308 8.702247 64.691538 8.825408 64.730769 8.949098 64.770000 9.073304 64.809231 9.198014 64.848462 9.323214 64.887692 9.448891 64.926923 9.575032 64.966154 9.701624 65.005385 9.828654 65.044615 9.956108 65.083846 10.083974 65.123077 10.212239 65.162308 10.340889 65.201538 10.469911 65.240769 10.599292 65.280000 10.729019 65.319231 10.859079 65.358462 10.989459 65.397692 11.120146 65.436923 11.251126 65.476154 11.382387 65.515385 11.513915 65.554615 11.645697 65.593846 11.777721 65.633077 11.909972 65.672308 12.042439 65.711538 12.175107 65.750769 12.307965 65.790000 12.440998 65.829231 12.574193 65.868462 12.707538 65.907692 12.841019 65.946923 12.974623 65.986154 13.108338 66.025385 13.242149 66.064615 13.376045 66.103846 13.510011 66.143077 13.644035 66.182308 13.778103 66.221538 13.912203 66.260769 14.046322 66.300000 14.180445 66.339231 14.314561 66.378462 14.448656 66.417692 14.582716 66.456923 14.716730 66.496154 14.850683 66.535385 14.984563 66.574615 15.118357 66.613846 15.252050 66.653077 15.385632 66.692308 15.519087 66.731538 15.652403 66.770769 15.785568 66.810000 15.918567 66.849231 16.051388 66.888462 16.184018 66.927692 16.316443 66.966923 16.448651 67.006154 16.580628 67.045385 16.712361 67.084615 16.843838 67.123846 16.975044 67.163077 17.105967 67.202308 17.236595 67.241538 17.366913 67.280769 17.496908 67.320000 17.626568 67.359231 17.755879 67.398462 17.884829 67.437692 18.013404 67.476923 18.141591 67.516154 18.269377 67.555385 18.396748 67.594615 18.523693 67.633846 18.650197 67.673077 18.776248 67.712308 18.901832 67.751538 19.026936 67.790769 19.151548 67.830000 19.275653 67.869231 19.399240 67.908462 19.522295 67.947692 19.644804 67.986923 19.766755 68.026154 19.888135 68.065385 20.008930 68.104615 20.129127 68.143846 20.248714 68.183077 20.367677 68.222308 20.486003 68.261538 20.603679 68.300769 20.720691 68.340000 20.837028 68.379231 20.952675 68.418462 21.067619 68.457692 21.181848 68.496923 21.295348 68.536154 21.408107 68.575385 21.520110 68.614615 21.631346 68.653846 21.741800 68.693077 21.851460 68.732308 21.960313 68.771538 22.068345 68.810769 22.175544 68.850000 22.281896 68.889231 22.387389 68.928462 22.492008 68.967692 22.595742 69.006923 22.698576 69.046154 22.800498 69.085385 22.901495 69.124615 23.001554 69.163846 23.100661 69.203077 23.198803 69.242308 23.295968 69.281538 23.392142 69.320769 23.487312 69.360000 23.581464 69.399231 23.674587 69.438462 23.766666 69.477692 23.857690 69.516923 23.947643 69.556154 24.036514 69.595385 24.124289 69.634615 24.210956 69.673846 24.296501 69.713077 24.380910 69.752308 24.464172 69.791538 24.546272 69.830769 24.627198 69.870000 24.706937 69.909231 24.785475 69.948462 24.862799 69.987692 24.938897 70.026923 25.013755 70.066154 25.087359 70.105385 25.159698 70.144615 25.230758 70.183846 25.300525 70.223077 25.368987 70.262308 25.436130 70.301538 25.501942 70.340769 25.566409 70.380000 25.629518 70.419231 25.691257 70.458462 25.751611 70.497692 25.810568 70.536923 25.868115 70.576154 25.924239 70.615385 25.978926 70.654615 26.032167 70.693846 26.083965 70.733077 26.134327 70.772308 26.183261 70.811538 26.230771 70.850769 26.276866 70.890000 26.321553 70.929231 26.364837 70.968462 26.406727 71.007692 26.447228 71.046923 26.486347 71.086154 26.524092 71.125385 26.560469 71.164615 26.595485 71.203846 26.629146 71.243077 26.661460 71.282308 26.692433 71.321538 26.722073 71.360769 26.750385 71.400000 26.777377 71.439231 26.803055 71.478462 26.827427 71.517692 26.850499 71.556923 26.872278 71.596154 26.892770 71.635385 26.911983 71.674615 26.929924 71.713846 26.946598 71.753077 26.962014 71.792308 26.976177 71.831538 26.989094 71.870769 27.000773 71.910000 27.011221 71.949231 27.020443 71.988462 27.028447 72.027692 27.035239 72.066923 27.040827 72.106154 27.045217 72.145385 27.048416 72.184615 27.050431 72.223846 27.051268 72.263077 27.050935 72.302308 27.049438 72.341538 27.046783 72.380769 27.042979 72.420000 27.038031 72.459231 27.031947 72.498462 27.024733 72.537692 27.016396 72.576923 27.006942 72.616154 26.996379 72.655385 26.984714 72.694615 26.971953 72.733846 26.958103 72.773077 26.943170 72.812308 26.927163 72.851538 26.910087 72.890769 26.891949 72.930000 26.872756 72.969231 26.852514 73.008462 26.831232 73.047692 26.808915 73.086923 26.785570 73.126154 26.761204 73.165385 26.735824 73.204615 26.709437 73.243846 26.682049 73.283077 26.653668 73.322308 26.624300 73.361538 26.593951 73.400769 26.562629 73.440000 26.530341 73.479231 26.497093 73.518462 26.462892 73.557692 26.427744 73.596923 26.391658 73.636154 26.354639 73.675385 26.316694 73.714615 26.277831 73.753846 26.238055 73.793077 26.197374 73.832308 26.155795 73.871538 26.113324 73.910769 26.069968 73.950000 26.025734 73.989231 25.980628 74.028462 25.934658 74.067692 25.887831 74.106923 25.840153 74.146154 25.791630 74.185385 25.742270 74.224615 25.692080 74.263846 25.641067 74.303077 25.589236 74.342308 25.536595 74.381538 25.483151 74.420769 25.428911 74.460000 25.373881 74.499231 25.318068 74.538462 25.261479 74.577692 25.204121 74.616923 25.146001 74.656154 25.087125 74.695385 25.027500 74.734615 24.967133 74.773846 24.906031 74.813077 24.844200 74.852308 24.781648 74.891538 24.718381 74.930769 24.654406 74.970000 24.589730 75.009231 24.524360 75.048462 24.458302 75.087692 24.391563 75.126923 24.324150 75.166154 24.256070 75.205385 24.187330 75.244615 24.117936 75.283846 24.047895 75.323077 23.977214 75.362308 23.905901 75.401538 23.833960 75.440769 23.761401 75.480000 23.688228 75.519231 23.614450 75.558462 23.540072 75.597692 23.465102 75.636923 23.389547 75.676154 23.313413 75.715385 23.236707 75.754615 23.159436 75.793846 23.081606 75.833077 23.003225 75.872308 22.924299 75.911538 22.844836 75.950769 22.764841 75.990000 22.684322 76.029231 22.603285 76.068462 22.521738 76.107692 22.439687 76.146923 22.357139 76.186154 22.274100 76.225385 22.190578 76.264615 22.106579 76.303846 22.022111 76.343077 21.937179 76.382308 21.851791 76.421538 21.765954 76.460769 21.679674 76.500000 21.592958 76.539231 21.505813 76.578462 21.418246 76.617692 21.330263 76.656923 21.241872 76.696154 21.153079 76.735385 21.063891 76.774615 20.974314 76.813846 20.884356 76.853077 20.794024 76.892308 20.703324 76.931538 20.612262 76.970769 20.520847 77.010000 20.429084 77.049231 20.336980 77.088462 20.244543 77.127692 20.151778 77.166923 20.058694 77.206154 19.965296 77.245385 19.871591 77.284615 19.777587 77.323846 19.683290 77.363077 19.588706 77.402308 19.493843 77.441538 19.398708 77.480769 19.303306 77.520000 19.207646 77.559231 19.111734 77.598462 19.015576 77.637692 18.919180 77.676923 18.822551 77.716154 18.725698 77.755385 18.628627 77.794615 18.531345 77.833846 18.433858 77.873077 18.336173 77.912308 18.238297 77.951538 18.140237 77.990769 18.042000 78.030000 17.943592 78.069231 17.845021 78.108462 17.746292 78.147692 17.647414 78.186923 17.548392 78.226154 17.449233 78.265385 17.349945 78.304615 17.250534 78.343846 17.151007 78.383077 17.051371 78.422308 16.951632 78.461538 16.851797 78.500769 16.751874 78.540000 16.651868 78.579231 16.551788 78.618462 16.451638 78.657692 16.351427 78.696923 16.251162 78.736154 16.150848 78.775385 16.050493 78.814615 15.950103 78.853846 15.849686 78.893077 15.749248 78.932308 15.648795 78.971538 15.548336 79.010769 15.447876 79.050000 15.347422 79.089231 15.246982 79.128462 15.146562 79.167692 15.046168 79.206923 14.945808 79.246154 14.845488 79.285385 14.745216 79.324615 14.644997 79.363846 14.544840 79.403077 14.444750 79.442308 14.344734 79.481538 14.244799 79.520769 14.144953 79.560000 14.045201 79.599231 13.945551 79.638462 13.846009 79.677692 13.746583 79.716923 13.647278 79.756154 13.548102 79.795385 13.449062 79.834615 13.350165 79.873846 13.251416 79.913077 13.152824 79.952308 13.054394 79.991538 12.956135 80.030769 12.858051 80.070000 12.760151 80.109231 12.662441 80.148462 12.564928 80.187692 12.467618 80.226923 12.370519 80.266154 12.273637 80.305385 12.176979 80.344615 12.080552 80.383846 11.984363 80.423077 11.888418 80.462308 11.792724 80.501538 11.697283 80.540769 11.602097 80.580000 11.507170 80.619231 11.412502 80.658462 11.318096 80.697692 11.223954 80.736923 11.130078 80.776154 11.036470 80.815385 10.943133 80.854615 10.850068 80.893846 10.757278 80.933077 10.664765 80.972308 10.572531 81.011538 10.480578 81.050769 10.388908 81.090000 10.297523 81.129231 10.206425 81.168462 10.115618 81.207692 10.025101 81.246923 9.934879 81.286154 9.844952 81.325385 9.755324 81.364615 9.665996 81.403846 9.576970 81.443077 9.488248 81.482308 9.399833 81.521538 9.311727 81.560769 9.223931 81.600000 9.136448 81.639231 9.049281 81.678462 8.962430 81.717692 8.875899 81.756923 8.789689 81.796154 8.703803 81.835385 8.618243 81.874615 8.533010 81.913846 8.448107 81.953077 8.363536 81.992308 8.279300 82.031538 8.195399 82.070769 8.111837 82.110000 8.028616 82.149231 7.945737 82.188462 7.863203 82.227692 7.781016 82.266923 7.699178 82.306154 7.617691 82.345385 7.536558 82.384615 7.455780 82.423846 7.375359 82.463077 7.295299 82.502308 7.215599 82.541538 7.136264 82.580769 7.057295 82.620000 6.978694 82.659231 6.900464 82.698462 6.822606 82.737692 6.745122 82.776923 6.668015 82.816154 6.591287 82.855385 6.514940 82.894615 6.438975 82.933846 6.363396 82.973077 6.288205 83.012308 6.213402 83.051538 6.138992 83.090769 6.064974 83.130000 5.991353 83.169231 5.918130 83.208462 5.845307 83.247692 5.772886 83.286923 5.700869 83.326154 5.629258 83.365385 5.558057 83.404615 5.487265 83.443846 5.416887 83.483077 5.346924 83.522308 5.277377 83.561538 5.208250 83.600769 5.139544 83.640000 5.071262 83.679231 5.003405 83.718462 4.935976 83.757692 4.868976 83.796923 4.802409 83.836154 4.736276 83.875385 4.670578 83.914615 4.605319 83.953846 4.540501 83.993077 4.476125 84.032308 4.412194 84.071538 4.348709 84.110769 4.285674 84.150000 4.223090 84.189231 4.160958 84.228462 4.099282 84.267692 4.038064 84.306923 3.977305 84.346154 3.917008 84.385385 3.857174 84.424615 3.797807 84.463846 3.738907 84.503077 3.680478 84.542308 3.622521 84.581538 3.565039 84.620769 3.508033 84.660000 3.451506 84.699231 3.395459 84.738462 3.339896 84.777692 3.284817 84.816923 3.230226 84.856154 3.176124 84.895385 3.122514 84.934615 3.069397 84.973846 3.016776 85.013077 2.964652 85.052308 2.913029 85.091538 2.861907 85.130769 2.811290 85.170000 2.761179 85.209231 2.711577 85.248462 2.662485 85.287692 2.613906 85.326923 2.565842 85.366154 2.518294 85.405385 2.471266 85.444615 2.424759 85.483846 2.378775 85.523077 2.333317 85.562308 2.288386 85.601538 2.243985 85.640769 2.200116 85.680000 2.156780 85.719231 2.113981 85.758462 2.071720 85.797692 2.029999 85.836923 1.988821 85.876154 1.948187 85.915385 1.908100 85.954615 1.868562 85.993846 1.829575 86.033077 1.791141 86.072308 1.753262 86.111538 1.715940 86.150769 1.679178 86.190000 1.642977 86.229231 1.607341 86.268462 1.572270 86.307692 1.537766 86.346923 1.503833 86.386154 1.470473 86.425385 1.437686 86.464615 1.405476 86.503846 1.373845 86.543077 1.342794 86.582308 1.312326 86.621538 1.282443 86.660769 1.253147 86.700000 1.224440 86.739231 1.196325 86.778462 1.168803 86.817692 1.141877 86.856923 1.115548 86.896154 1.089819 86.935385 1.064693 86.974615 1.040170 87.013846 1.016253 87.053077 0.992945 87.092308 0.970248 87.131538 0.948162 87.170769 0.926692 87.210000 0.905838 87.249231 0.885604 87.288462 0.865990 87.327692 0.847000 87.366923 0.828635 87.406154 0.810897 87.445385 0.793789 87.484615 0.777313 87.523846 0.761471 87.563077 0.746264 87.602308 0.731696 87.641538 0.717768 87.680769 0.704482 87.720000 0.691841 87.759231 0.679846 87.798462 0.668500 87.837692 0.657805 87.876923 0.647763 87.916154 0.638375 87.955385 0.629645 87.994615 0.621575 88.033846 0.614166 88.073077 0.607420 88.112308 0.601341 88.151538 0.595929 88.190769 0.591187 88.230000 0.587117 88.269231 0.583721 88.308462 0.581002 88.347692 0.578961 88.386923 0.577601 88.426154 0.576923 88.465385 0.576930 88.504615 0.577625 88.543846 0.579008 88.583077 0.581083 88.622308 0.583851 88.661538 0.587314 88.700769 0.591475 88.740000 0.596336 88.779231 0.601898 88.818462 0.608165 88.857692 0.615138 88.896923 0.622818 88.936154 0.631210 88.975385 0.640313 89.014615 0.650132 89.053846 0.660667 89.093077 0.671921 89.132308 0.683895 89.171538 0.696593 89.210769 0.710017 89.250000 0.724167 89.289231 0.739047 89.328462 0.754659 89.367692 0.771004 89.406923 0.788085 89.446154 0.805905 89.485385 0.824464 89.524615 0.843765 89.563846 0.863811 89.603077 0.884604 89.642308 0.906145 89.681538 0.928436 89.720769 0.951481 89.760000 0.975280 89.799231 0.999837 89.838462 1.025153 89.877692 1.051230 89.916923 1.078071 89.956154 1.105677 89.995385 1.134051 90.034615 1.163195 90.073846 1.193111 90.113077 1.223801 90.152308 1.255267 90.191538 1.287512 90.230769 1.320537 90.270000 1.354343 90.309231 1.388930 90.348462 1.424292 90.387692 1.460428 90.426923 1.497334 90.466154 1.535007 90.505385 1.573444 90.544615 1.612641 90.583846 1.652596 90.623077 1.693306 90.662308 1.734766 90.701538 1.776975 90.740769 1.819929 90.780000 1.863625 90.819231 1.908060 90.858462 1.953230 90.897692 1.999133 90.936923 2.045765 90.976154 2.093124 91.015385 2.141205 91.054615 2.190007 91.093846 2.239525 91.133077 2.289758 91.172308 2.340700 91.211538 2.392351 91.250769 2.444705 91.290000 2.497761 91.329231 2.551515 91.368462 2.605964 91.407692 2.661105 91.446923 2.716935 91.486154 2.773450 91.525385 2.830647 91.564615 2.888524 91.603846 2.947077 91.643077 3.006303 91.682308 3.066199 91.721538 3.126761 91.760769 3.187988 91.800000 3.249875 91.839231 3.312419 91.878462 3.375617 91.917692 3.439467 91.956923 3.503965 91.996154 3.569107 92.035385 3.634891 92.074615 3.701314 92.113846 3.768373 92.153077 3.836063 92.192308 3.904383 92.231538 3.973329 92.270769 4.042898 92.310000 4.113087 92.349231 4.183893 92.388462 4.255312 92.427692 4.327341 92.466923 4.399978 92.506154 4.473219 92.545385 4.547061 92.584615 4.621501 92.623846 4.696536 92.663077 4.772162 92.702308 4.848377 92.741538 4.925177 92.780769 5.002560 92.820000 5.080521 92.859231 5.159059 92.898462 5.238170 92.937692 5.317850 92.976923 5.398097 93.016154 5.478907 93.055385 5.560278 93.094615 5.642206 93.133846 5.724688 93.173077 5.807721 93.212308 5.891302 93.251538 5.975427 93.290769 6.060094 93.330000 6.145300 93.369231 6.231041 93.408462 6.317314 93.447692 6.404116 93.486923 6.491444 93.526154 6.579295 93.565385 6.667665 93.604615 6.756552 93.643846 6.845952 93.683077 6.935863 93.722308 7.026281 93.761538 7.117202 93.800769 7.208625 93.840000 7.300545 93.879231 7.392960 93.918462 7.485867 93.957692 7.579261 93.996923 7.673141 94.036154 7.767503 94.075385 7.862344 94.114615 7.957661 94.153846 8.053451 94.193077 8.149710 94.232308 8.246435 94.271538 8.343624 94.310769 8.441273 94.350000 8.539379 94.389231 8.637939 94.428462 8.736950 94.467692 8.836409 94.506923 8.936312 94.546154 9.036656 94.585385 9.137439 94.624615 9.238656 94.663846 9.340306 94.703077 9.442385 94.742308 9.544889 94.781538 9.647816 94.820769 9.751162 94.860000 9.854925 94.899231 9.959101 94.938462 10.063687 94.977692 10.168680 95.016923 10.274077 95.056154 10.379875 95.095385 10.486070 95.134615 10.592659 95.173846 10.699640 95.213077 10.807009 95.252308 10.914763 95.291538 11.022899 95.330769 11.131414 95.370000 11.240305 95.409231 11.349568 95.448462 11.459200 95.487692 11.569199 95.526923 11.679560 95.566154 11.790282 95.605385 11.901361 95.644615 12.012793 95.683846 12.124576 95.723077 12.236707 95.762308 12.349181 95.801538 12.461997 95.840769 12.575152 95.880000 12.688641 95.919231 12.802462 95.958462 12.916611 95.997692 13.031086 96.036923 13.145884 96.076154 13.261001 96.115385 13.376434 96.154615 13.492180 96.193846 13.608236 96.233077 13.724599 96.272308 13.841265 96.311538 13.958232 96.350769 14.075497 96.390000 14.193055 96.429231 14.310905 96.468462 14.429043 96.507692 14.547466 96.546923 14.666170 96.586154 14.785153 96.625385 14.904411 96.664615 15.023942 96.703846 15.143742 96.743077 15.263808 96.782308 15.384137 96.821538 15.504726 96.860769 15.625572 96.900000 15.746671 96.939231 15.868021 96.978462 15.989618 97.017692 16.111459 97.056923 16.233541 97.096154 16.355861 97.135385 16.478416 97.174615 16.601202 97.213846 16.724217 97.253077 16.847458 97.292308 16.970920 97.331538 17.094602 97.370769 17.218500 97.410000 17.342611 97.449231 17.466931 97.488462 17.591458 97.527692 17.716188 97.566923 17.841119 97.606154 17.966247 97.645385 18.091569 97.684615 18.217083 97.723846 18.342783 97.763077 18.468669 97.802308 18.594736 97.841538 18.720982 97.880769 18.847403 97.920000 18.973996 97.959231 19.100758 97.998462 19.227686 98.037692 19.354777 98.076923 19.482027 98.116154 19.609434 98.155385 19.736995 98.194615 19.864706 98.233846 19.992563 98.273077 20.120565 98.312308 20.248708 98.351538 20.376988 98.390769 20.505403 98.430000 20.633950 98.469231 20.762625 98.508462 20.891425 98.547692 21.020347 98.586923 21.149388 98.626154 21.278545 98.665385 21.407814 98.704615 21.537194 98.743846 21.666679 98.783077 21.796268 98.822308 21.925957 98.861538 22.055743 98.900769 22.185623 98.940000 22.315594 98.979231 22.445653 99.018462 22.575796 99.057692 22.706020 99.096923 22.836323 99.136154 22.966701 99.175385 23.097150 99.214615 23.227669 99.253846 23.358254 99.293077 23.488901 99.332308 23.619607 99.371538 23.750370 99.410769 23.881186 99.450000 24.012052 99.489231 24.142965 99.528462 24.273922 99.567692 24.404920 99.606923 24.535955 99.646154 24.667025 99.685385 24.798126 99.724615 24.929255 99.763846 25.060409 99.803077 25.191585 99.842308 25.322780 99.881538 25.453990 99.920769 25.585213 99.960000 25.716446 99.999231 25.847684 100.038462 25.978926" class="line reactive nofill" /></g></g><g class="titles" /><g transform="translate(88, 10)" class="plot overlay"><g class="series serie-0 color-0" /></g><g transform="translate(88, 10)" class="plot text-overlay"><g class="series serie-0 color-0" /></g><g transform="translate(88, 10)" class="plot tooltip-overlay"><g transform="translate(0 0)" style="opacity: 0" class="tooltip"><rect rx="0" ry="0" width="0" height="0" class="tooltip-box" /><g class="text" /></g></g></g></svg>