<?xml version='1.0' encoding='utf-8'?>
<svg xmlns="http://www.w3.org/2000/svg" id="chart-837f2637-e2c3-4774-ac81-39f7217a5eb0" class="pygal-chart pygal-sparkline" viewBox="0 0 200 50" width="200" height="50"><!--Generated with pygal 3.0.5 (etree) ©Kozea 2012-2016 on 2025-01-19--><!--http://pygal.org--><!--http://github.com/Kozea/pygal--><defs><style type="text/css">#chart-837f2637-e2c3-4774-ac81-39f7217a5eb0{-webkit-user-select:none;-webkit-font-smoothing:antialiased;font-family:Consolas,"Liberation Mono",Menlo,Courier,monospace}#chart-837f2637-e2c3-4774-ac81-39f7217a5eb0 .title{font-family:Consolas,"Liberation Mono",Menlo,Courier,monospace;font-size:16px}#chart-837f2637-e2c3-4774-ac81-39f7217a5eb0 .legends .legend text{font-family:Consolas,"Liberation Mono",Menlo,Courier,monospace;font-size:14px}#chart-837f2637-e2c3-4774-ac81-39f7217a5eb0 .axis text{font-family:Consolas,"Liberation Mono",Menlo,Courier,monospace;font-size:10px}#chart-837f2637-e2c3-4774-ac81-39f7217a5eb0 .axis text.major{font-family:Consolas,"Liberation Mono",Menlo,Courier,monospace;font-size:10px}#chart-837f2637-e2c3-4774-ac81-39f7217a5eb0 .text-overlay text.value{font-family:Consolas,"Liberation Mono",Menlo,Courier,monospace;font-size:16px}#chart-837f2637-e2c3-4774-ac81-39f7217a5eb0 .text-overlay text.label{font-family:Consolas,"Liberation Mono",Menlo,Courier,monospace;font-size:10px}#chart-837f2637-e2c3-4774-ac81-39f7217a5eb0 .tooltip{font-family:Consolas,"Liberation Mono",Menlo,Courier,monospace;font-size:14px}#chart-837f2637-e2c3-4774-ac81-39f7217a5eb0 text.no_data{font-family:Consolas,"Liberation Mono",Menlo,Courier,monospace;font-size:64px}
#chart-837f2637-e2c3-4774-ac81-39f7217a5eb0{background-color:rgba(249,249,249,1)}#chart-837f2637-e2c3-4774-ac81-39f7217a5eb0 path,#chart-837f2637-e2c3-4774-ac81-39f7217a5eb0 line,#chart-837f2637-e2c3-4774-ac81-39f7217a5eb0 rect,#chart-837f2637-e2c3-4774-ac81-39f7217a5eb0 circle{-webkit-transition:150ms;-moz-transition:150ms;transition:150ms}#chart-837f2637-e2c3-4774-ac81-39f7217a5eb0 .graph &gt; .background{fill:rgba(249,249,249,1)}#chart-837f2637-e2c3-4774-ac81-39f7217a5eb0 .plot &gt; .background{fill:rgba(255,255,255,1)}#chart-837f2637-e2c3-4774-ac81-39f7217a5eb0 .graph{fill:rgba(0,0,0,.87)}#chart-837f2637-e2c3-4774-ac81-39f7217a5eb0 text.no_data{fill:rgba(0,0,0,1)}#chart-837f2637-e2c3-4774-ac81-39f7217a5eb0 .title{fill:rgba(0,0,0,1)}#chart-837f2637-e2c3-4774-ac81-39f7217a5eb0 .legends .legend text{fill:rgba(0,0,0,.87)}#chart-837f2637-e2c3-4774-ac81-39f7217a5eb0 .legends .legend:hover text{fill:rgba(0,0,0,1)}#chart-837f2637-e2c3-4774-ac81-39f7217a5eb0 .axis .line{stroke:rgba(0,0,0,1)}#chart-837f2637-e2c3-4774-ac81-39f7217a5eb0 .axis .guide.line{stroke:rgba(0,0,0,.54)}#chart-837f2637-e2c3-4774-ac81-39f7217a5eb0 .axis .major.line{stroke:rgba(0,0,0,.87)}#chart-837f2637-e2c3-4774-ac81-39f7217a5eb0 .axis text.major{fill:rgba(0,0,0,1)}#chart-837f2637-e2c3-4774-ac81-39f7217a5eb0 .axis.y .guides:hover .guide.line,#chart-837f2637-e2c3-4774-ac81-39f7217a5eb0 .line-graph .axis.x .guides:hover .guide.line,#chart-837f2637-e2c3-4774-ac81-39f7217a5eb0 .stackedline-graph .axis.x .guides:hover .guide.line,#chart-837f2637-e2c3-4774-ac81-39f7217a5eb0 .xy-graph .axis.x .guides:hover .guide.line{stroke:rgba(0,0,0,1)}#chart-837f2637-e2c3-4774-ac81-39f7217a5eb0 .axis .guides:hover text{fill:rgba(0,0,0,1)}#chart-837f2637-e2c3-4774-ac81-39f7217a5eb0 .reactive{fill-opacity:.7;stroke-opacity:.8;stroke-width:1}#chart-837f2637-e2c3-4774-ac81-39f7217a5eb0 .ci{stroke:rgba(0,0,0,.87)}#chart-837f2637-e2c3-4774-ac81-39f7217a5eb0 .reactive.active,#chart-837f2637-e2c3-4774-ac81-39f7217a5eb0 .active .reactive{fill-opacity:.8;stroke-opacity:.9;stroke-width:4}#chart-837f2637-e2c3-4774-ac81-39f7217a5eb0 .ci .reactive.active{stroke-width:1.5}#chart-837f2637-e2c3-4774-ac81-39f7217a5eb0 .series text{fill:rgba(0,0,0,1)}#chart-837f2637-e2c3-4774-ac81-39f7217a5eb0 .tooltip rect{fill:rgba(255,255,255,1);stroke:rgba(0,0,0,1);-webkit-transition:opacity 150ms;-moz-transition:opacity 150ms;transition:opacity 150ms}#chart-837f2637-e2c3-4774-ac81-39f7217a5eb0 .tooltip .label{fill:rgba(0,0,0,.87)}#chart-837f2637-e2c3-4774-ac81-39f7217a5eb0 .tooltip .label{fill:rgba(0,0,0,.87)}#chart-837f2637-e2c3-4774-ac81-39f7217a5eb0 .tooltip .legend{font-size:.8em;fill:rgba(0,0,0,.54)}#chart-837f2637-e2c3-4774-ac81-39f7217a5eb0 .tooltip .x_label{font-size:.6em;fill:rgba(0,0,0,1)}#chart-837f2637-e2c3-4774-ac81-39f7217a5eb0 .tooltip .xlink{font-size:.5em;text-decoration:underline}#chart-837f2637-e2c3-4774-ac81-39f7217a5eb0 .tooltip .value{font-size:1.5em}#chart-837f2637-e2c3-4774-ac81-39f7217a5eb0 .bound{font-size:.5em}#chart-837f2637-e2c3-4774-ac81-39f7217a5eb0 .max-value{font-size:.75em;fill:rgba(0,0,0,.54)}#chart-837f2637-e2c3-4774-ac81-39f7217a5eb0 .map-element{fill:rgba(255,255,255,1);stroke:rgba(0,0,0,.54) !important}#chart-837f2637-e2c3-4774-ac81-39f7217a5eb0 .map-element .reactive{fill-opacity:inherit;stroke-opacity:inherit}#chart-837f2637-e2c3-4774-ac81-39f7217a5eb0 .color-0,#chart-837f2637-e2c3-4774-ac81-39f7217a5eb0 .color-0 a:visited{stroke:#F44336;fill:#F44336}#chart-837f2637-e2c3-4774-ac81-39f7217a5eb0 .text-overlay .color-0 text{fill:black}
#chart-837f2637-e2c3-4774-ac81-39f7217a5eb0 text.no_data{text-anchor:middle}#chart-837f2637-e2c3-4774-ac81-39f7217a5eb0 .guide.line{fill:none}#chart-837f2637-e2c3-4774-ac81-39f7217a5eb0 .centered{text-anchor:middle}#chart-837f2637-e2c3-4774-ac81-39f7217a5eb0 .title{text-anchor:middle}#chart-837f2637-e2c3-4774-ac81-39f7217a5eb0 .legends .legend text{fill-opacity:1}#chart-837f2637-e2c3-4774-ac81-39f7217a5eb0 .axis.x text{text-anchor:middle}#chart-837f2637-e2c3-4774-ac81-39f7217a5eb0 .axis.x:not(.web) text[transform]{text-anchor:start}#chart-837f2637-e2c3-4774-ac81-39f7217a5eb0 .axis.x:not(.web) text[transform].backwards{text-anchor:end}#chart-837f2637-e2c3-4774-ac81-39f7217a5eb0 .axis.y text{text-anchor:end}#chart-837f2637-e2c3-4774-ac81-39f7217a5eb0 .axis.y text[transform].backwards{text-anchor:start}#chart-837f2637-e2c3-4774-ac81-39f7217a5eb0 .axis.y2 text{text-anchor:start}#chart-837f2637-e2c3-4774-ac81-39f7217a5eb0 .axis.y2 text[transform].backwards{text-anchor:end}#chart-837f2637-e2c3-4774-ac81-39f7217a5eb0 .axis .guide.line{stroke-dasharray:4,4;stroke:black}#chart-837f2637-e2c3-4774-ac81-39f7217a5eb0 .axis .major.guide.line{stroke-dasharray:6,6;stroke:black}#chart-837f2637-e2c3-4774-ac81-39f7217a5eb0 .horizontal .axis.y .guide.line,#chart-837f2637-e2c3-4774-ac81-39f7217a5eb0 .horizontal .axis.y2 .guide.line,#chart-837f2637-e2c3-4774-ac81-39f7217a5eb0 .vertical .axis.x .guide.line{opacity:0}#chart-837f2637-e2c3-4774-ac81-39f7217a5eb0 .horizontal .axis.always_show .guide.line,#chart-837f2637-e2c3-4774-ac81-39f7217a5eb0 .vertical .axis.always_show .guide.line{opacity:1 !important}#chart-837f2637-e2c3-4774-ac81-39f7217a5eb0 .axis.y .guides:hover .guide.line,#chart-837f2637-e2c3-4774-ac81-39f7217a5eb0 .axis.y2 .guides:hover .guide.line,#chart-837f2637-e2c3-4774-ac81-39f7217a5eb0 .axis.x .guides:hover .guide.line{opacity:1}#chart-837f2637-e2c3-4774-ac81-39f7217a5eb0 .axis .guides:hover text{opacity:1}#chart-837f2637-e2c3-4774-ac81-39f7217a5eb0 .nofill{fill:none}#chart-837f2637-e2c3-4774-ac81-39f7217a5eb0 .subtle-fill{fill-opacity:.2}#chart-837f2637-e2c3-4774-ac81-39f7217a5eb0 .dot{stroke-width:1px;fill-opacity:1;stroke-opacity:1}#chart-837f2637-e2c3-4774-ac81-39f7217a5eb0 .dot.active{stroke-width:5px}#chart-837f2637-e2c3-4774-ac81-39f7217a5eb0 .dot.negative{fill:transparent}#chart-837f2637-e2c3-4774-ac81-39f7217a5eb0 text,#chart-837f2637-e2c3-4774-ac81-39f7217a5eb0 tspan{stroke:none !important}#chart-837f2637-e2c3-4774-ac81-39f7217a5eb0 .series text.active{opacity:1}#chart-837f2637-e2c3-4774-ac81-39f7217a5eb0 .tooltip rect{fill-opacity:.95;stroke-width:.5}#chart-837f2637-e2c3-4774-ac81-39f7217a5eb0 .tooltip text{fill-opacity:1}#chart-837f2637-e2c3-4774-ac81-39f7217a5eb0 .showable{visibility:hidden}#chart-837f2637-e2c3-4774-ac81-39f7217a5eb0 .showable.shown{visibility:visible}#chart-837f2637-e2c3-4774-ac81-39f7217a5eb0 .gauge-background{fill:rgba(229,229,229,1);stroke:none}#chart-837f2637-e2c3-4774-ac81-39f7217a5eb0 .bg-lines{stroke:rgba(249,249,249,1);stroke-width:2px}</style><script type="text/javascript">window.pygal = window.pygal || {};window.pygal.config = window.pygal.config || {};window.pygal.config['837f2637-e2c3-4774-ac81-39f7217a5eb0'] = {"allow_interruptions": false, "box_mode": "extremes", "classes": ["pygal-chart", "pygal-sparkline"], "css": ["file://style.css", "file://graph.css"], "defs": [], "disable_xml_declaration": false, "dots_size": 2.5, "dynamic_print_values": false, "explicit_size": true, "fill": false, "force_uri_protocol": "https", "formatter": null, "half_pie": false, "height": 50, "include_x_axis": false, "inner_radius": 0, "interpolate": "cubic", "interpolation_parameters": {}, "interpolation_precision": 250, "inverse_y_axis": false, "js": [], "legend_at_bottom": false, "legend_at_bottom_columns": null, "legend_box_size": 12, "logarithmic": false, "margin": 10, "margin_bottom": null, "margin_left": null, "margin_right": null, "margin_top": null, "max_scale": 2, "min_scale": 1, "missing_value_fill_truncation": "x", "no_data_text": "", "no_prefix": false, "order_min": null, "pretty_print": false, "print_labels": false, "print_values": false, "print_values_position": "center", "print_zeroes": true, "range": null, "rounded_bars": null, "secondary_range": null, "show_dots": false, "show_legend": false, "show_minor_x_labels": true, "show_minor_y_labels": true, "show_only_major_dots": false, "show_x_guides": false, "show_x_labels": false, "show_y_guides": true, "show_y_labels": true, "spacing": 0, "stack_from_top": false, "strict": false, "stroke": true, "stroke_style": null, "style": {"background": "rgba(249, 249, 249, 1)", "ci_colors": [], "colors": ["#F44336", "#3F51B5", "#009688", "#FFC107", "#FF5722", "#9C27B0", "#03A9F4", "#8BC34A", "#FF9800", "#E91E63", "#2196F3", "#4CAF50", "#FFEB3B", "#673AB7", "#00BCD4", "#CDDC39", "#9E9E9E", "#607D8B"], "dot_opacity": "1", "font_family": "Consolas, \"Liberation Mono\", Menlo, Courier, monospace", "foreground": "rgba(0, 0, 0, .87)", "foreground_strong": "rgba(0, 0, 0, 1)", "foreground_subtle": "rgba(0, 0, 0, .54)", "guide_stroke_color": "black", "guide_stroke_dasharray": "4,4", "label_font_family": "Consolas, \"Liberation Mono\", Menlo, Courier, monospace", "label_font_size": 10, "legend_font_family": "Consolas, \"Liberation Mono\", Menlo, Courier, monospace", "legend_font_size": 14, "major_guide_stroke_color": "black", "major_guide_stroke_dasharray": "6,6", "major_label_font_family": "Consolas, \"Liberation Mono\", Menlo, Courier, monospace", "major_label_font_size": 10, "no_data_font_family": "Consolas, \"Liberation Mono\", Menlo, Courier, monospace", "no_data_font_size": 64, "opacity": ".7", "opacity_hover": ".8", "plot_background": "rgba(255, 255, 255, 1)", "stroke_opacity": ".8", "stroke_opacity_hover": ".9", "stroke_width": "1", "stroke_width_hover": "4", "title_font_family": "Consolas, \"Liberation Mono\", Menlo, Courier, monospace", "title_font_size": 16, "tooltip_font_family": "Consolas, \"Liberation Mono\", Menlo, Courier, monospace", "tooltip_font_size": 14, "transition": "150ms", "value_background": "rgba(229, 229, 229, 1)", "value_colors": [], "value_font_family": "Consolas, \"Liberation Mono\", Menlo, Courier, monospace", "value_font_size": 16, "value_label_font_family": "Consolas, \"Liberation Mono\", Menlo, Courier, monospace", "value_label_font_size": 10}, "title": null, "tooltip_border_radius": 0, "tooltip_fancy_mode": true, "truncate_label": null, "truncate_legend": null, "width": 200, "x_label_rotation": 0, "x_labels": ["2025/1", "2024/12", "2024/11", "2024/10"], "x_labels_major": null, "x_labels_major_count": null, "x_labels_major_every": null, "x_title": null, "xrange": null, "y_label_rotation": 0, "y_labels": null, "y_labels_major": null, "y_labels_major_count": null, "y_labels_major_every": null, "y_title": null, "zero": 0, "legends": [""]}</script></defs><title>Pygal</title><g class="graph line-graph vertical"><rect x="0" y="0" width="200" height="50" class="background" /><g transform="translate(22, 10)" class="plot"><rect x="0" y="0" width="168.0" height="30" class="background" /><g class="axis y always_show"><path d="M0.000000 30.000000 h168.000000" class="line" /><g class="guides"><path d="M0.000000 29.423077 h168.000000" class="guide line" /><text x="-5" y="32.92307692307692" class="">2</text><title>2</title></g><g class="guides"><path d="M0.000000 0.576923 h168.000000" class="guide line" /><text x="-5" y="4.076923076923073" class="">12</text><title>12</title></g></g><g class="series serie-0 color-0"><path d="M3.230769 12.115385 L3.446154 12.046154 3.661538 11.976926 3.876923 11.907702 4.092308 11.838485 4.307692 11.769277 4.523077 11.700080 4.738462 11.630896 4.953846 11.561728 5.169231 11.492577 5.384615 11.423446 5.600000 11.354338 5.815385 11.285253 6.030769 11.216196 6.246154 11.147167 6.461538 11.078169 6.676923 11.009205 6.892308 10.940276 7.107692 10.871384 7.323077 10.802533 7.538462 10.733723 7.753846 10.664958 7.969231 10.596239 8.184615 10.527569 8.400000 10.458950 8.615385 10.390385 8.830769 10.321874 9.046154 10.253421 9.261538 10.185028 9.476923 10.116697 9.692308 10.048431 9.907692 9.980231 10.123077 9.912099 10.338462 9.844038 10.553846 9.776051 10.769231 9.708138 10.984615 9.640304 11.200000 9.572549 11.415385 9.504876 11.630769 9.437287 11.846154 9.369785 12.061538 9.302371 12.276923 9.235048 12.492308 9.167818 12.707692 9.100683 12.923077 9.033646 13.138462 8.966709 13.353846 8.899873 13.569231 8.833142 13.784615 8.766517 14.000000 8.700000 14.215385 8.633594 14.430769 8.567301 14.646154 8.501124 14.861538 8.435064 15.076923 8.369123 15.292308 8.303304 15.507692 8.237610 15.723077 8.172041 15.938462 8.106601 16.153846 8.041292 16.369231 7.976116 16.584615 7.911075 16.800000 7.846171 17.015385 7.781407 17.230769 7.716785 17.446154 7.652306 17.661538 7.587974 17.876923 7.523790 18.092308 7.459757 18.307692 7.395877 18.523077 7.332152 18.738462 7.268584 18.953846 7.205176 19.169231 7.141929 19.384615 7.078846 19.600000 7.015930 19.815385 6.953181 20.030769 6.890604 20.246154 6.828199 20.461538 6.765969 20.676923 6.703917 20.892308 6.642044 21.107692 6.580352 21.323077 6.518845 21.538462 6.457523 21.753846 6.396390 21.969231 6.335447 22.184615 6.274697 22.400000 6.214142 22.615385 6.153785 22.830769 6.093626 23.046154 6.033669 23.261538 5.973916 23.476923 5.914369 23.692308 5.855031 23.907692 5.795903 24.123077 5.736987 24.338462 5.678286 24.553846 5.619803 24.769231 5.561538 24.984615 5.503496 25.200000 5.445677 25.415385 5.388084 25.630769 5.330719 25.846154 5.273585 26.061538 5.216683 26.276923 5.160016 26.492308 5.103586 26.707692 5.047395 26.923077 4.991446 27.138462 4.935741 27.353846 4.880281 27.569231 4.825070 27.784615 4.770109 28.000000 4.715400 28.215385 4.660946 28.430769 4.606749 28.646154 4.552812 28.861538 4.499136 29.076923 4.445723 29.292308 4.392576 29.507692 4.339698 29.723077 4.287089 29.938462 4.234753 30.153846 4.182692 30.369231 4.130908 30.584615 4.079403 30.800000 4.028179 31.015385 3.977239 31.230769 3.926585 31.446154 3.876218 31.661538 3.826142 31.876923 3.776358 32.092308 3.726869 32.307692 3.677677 32.523077 3.628784 32.738462 3.580192 32.953846 3.531904 33.169231 3.483921 33.384615 3.436246 33.600000 3.388882 33.815385 3.341829 34.030769 3.295092 34.246154 3.248671 34.461538 3.202569 34.676923 3.156789 34.892308 3.111332 35.107692 3.066200 35.323077 3.021397 35.538462 2.976923 35.753846 2.932782 35.969231 2.888975 36.184615 2.845505 36.400000 2.802374 36.615385 2.759585 36.830769 2.717138 37.046154 2.675037 37.261538 2.633284 37.476923 2.591881 37.692308 2.550831 37.907692 2.510135 38.123077 2.469795 38.338462 2.429814 38.553846 2.390195 38.769231 2.350938 38.984615 2.312048 39.200000 2.273525 39.415385 2.235372 39.630769 2.197591 39.846154 2.160185 40.061538 2.123155 40.276923 2.086504 40.492308 2.050234 40.707692 2.014347 40.923077 1.978846 41.138462 1.943733 41.353846 1.909009 41.569231 1.874678 41.784615 1.840741 42.000000 1.807200 42.215385 1.774058 42.430769 1.741317 42.646154 1.708980 42.861538 1.677048 43.076923 1.645523 43.292308 1.614408 43.507692 1.583706 43.723077 1.553417 43.938462 1.523545 44.153846 1.494092 44.369231 1.465060 44.584615 1.436451 44.800000 1.408267 45.015385 1.380511 45.230769 1.353185 45.446154 1.326290 45.661538 1.299830 45.876923 1.273806 46.092308 1.248221 46.307692 1.223077 46.523077 1.198376 46.738462 1.174120 46.953846 1.150312 47.169231 1.126953 47.384615 1.104046 47.600000 1.081594 47.815385 1.059597 48.030769 1.038060 48.246154 1.016983 48.461538 0.996369 48.676923 0.976221 48.892308 0.956540 49.107692 0.937328 49.323077 0.918589 49.538462 0.900323 49.753846 0.882534 49.969231 0.865223 50.184615 0.848393 50.400000 0.832046 50.615385 0.816185 50.830769 0.800810 51.046154 0.785925 51.261538 0.771532 51.476923 0.757633 51.692308 0.744231 51.907692 0.731327 52.123077 0.718923 52.338462 0.707022 52.553846 0.695627 52.769231 0.684738 52.984615 0.674360 53.200000 0.664493 53.415385 0.655140 53.630769 0.646303 53.846154 0.637985 54.061538 0.630187 54.276923 0.622912 54.492308 0.616162 54.707692 0.609939 54.923077 0.604246 55.138462 0.599085 55.353846 0.594457 55.569231 0.590366 55.784615 0.586813 56.000000 0.583800 56.215385 0.581330 56.430769 0.579405 56.646154 0.578028 56.861538 0.577200 57.076923 0.576923 57.292308 0.577200 57.507692 0.578028 57.723077 0.579405 57.938462 0.581330 58.153846 0.583800 58.369231 0.586813 58.584615 0.590366 58.800000 0.594457 59.015385 0.599085 59.230769 0.604246 59.446154 0.609939 59.661538 0.616162 59.876923 0.622912 60.092308 0.630187 60.307692 0.637985 60.523077 0.646303 60.738462 0.655140 60.953846 0.664493 61.169231 0.674360 61.384615 0.684738 61.600000 0.695627 61.815385 0.707022 62.030769 0.718923 62.246154 0.731327 62.461538 0.744231 62.676923 0.757633 62.892308 0.771532 63.107692 0.785925 63.323077 0.800810 63.538462 0.816185 63.753846 0.832046 63.969231 0.848393 64.184615 0.865223 64.400000 0.882534 64.615385 0.900323 64.830769 0.918589 65.046154 0.937328 65.261538 0.956540 65.476923 0.976221 65.692308 0.996369 65.907692 1.016983 66.123077 1.038060 66.338462 1.059597 66.553846 1.081594 66.769231 1.104046 66.984615 1.126953 67.200000 1.150312 67.415385 1.174120 67.630769 1.198376 67.846154 1.223077 68.061538 1.248221 68.276923 1.273806 68.492308 1.299830 68.707692 1.326290 68.923077 1.353185 69.138462 1.380511 69.353846 1.408267 69.569231 1.436451 69.784615 1.465060 70.000000 1.494092 70.215385 1.523545 70.430769 1.553417 70.646154 1.583706 70.861538 1.614408 71.076923 1.645523 71.292308 1.677048 71.507692 1.708980 71.723077 1.741317 71.938462 1.774058 72.153846 1.807200 72.369231 1.840741 72.584615 1.874678 72.800000 1.909009 73.015385 1.943733 73.230769 1.978846 73.446154 2.014347 73.661538 2.050234 73.876923 2.086504 74.092308 2.123155 74.307692 2.160185 74.523077 2.197591 74.738462 2.235372 74.953846 2.273525 75.169231 2.312048 75.384615 2.350938 75.600000 2.390195 75.815385 2.429814 76.030769 2.469795 76.246154 2.510135 76.461538 2.550831 76.676923 2.591881 76.892308 2.633284 77.107692 2.675037 77.323077 2.717138 77.538462 2.759585 77.753846 2.802374 77.969231 2.845505 78.184615 2.888975 78.400000 2.932782 78.615385 2.976923 78.830769 3.021397 79.046154 3.066200 79.261538 3.111332 79.476923 3.156789 79.692308 3.202569 79.907692 3.248671 80.123077 3.295092 80.338462 3.341829 80.553846 3.388882 80.769231 3.436246 80.984615 3.483921 81.200000 3.531904 81.415385 3.580192 81.630769 3.628784 81.846154 3.677677 82.061538 3.726869 82.276923 3.776358 82.492308 3.826142 82.707692 3.876218 82.923077 3.926585 83.138462 3.977239 83.353846 4.028179 83.569231 4.079403 83.784615 4.130908 84.000000 4.182692 84.215385 4.234753 84.430769 4.287089 84.646154 4.339698 84.861538 4.392576 85.076923 4.445723 85.292308 4.499136 85.507692 4.552812 85.723077 4.606749 85.938462 4.660946 86.153846 4.715400 86.369231 4.770109 86.584615 4.825070 86.800000 4.880281 87.015385 4.935741 87.230769 4.991446 87.446154 5.047395 87.661538 5.103586 87.876923 5.160016 88.092308 5.216683 88.307692 5.273585 88.523077 5.330719 88.738462 5.388084 88.953846 5.445677 89.169231 5.503496 89.384615 5.561538 89.600000 5.619803 89.815385 5.678286 90.030769 5.736987 90.246154 5.795903 90.461538 5.855031 90.676923 5.914369 90.892308 5.973916 91.107692 6.033669 91.323077 6.093626 91.538462 6.153785 91.753846 6.214142 91.969231 6.274697 92.184615 6.335447 92.400000 6.396390 92.615385 6.457523 92.830769 6.518845 93.046154 6.580352 93.261538 6.642044 93.476923 6.703917 93.692308 6.765969 93.907692 6.828199 94.123077 6.890604 94.338462 6.953181 94.553846 7.015930 94.769231 7.078846 94.984615 7.141929 95.200000 7.205176 95.415385 7.268584 95.630769 7.332152 95.846154 7.395877 96.061538 7.459757 96.276923 7.523790 96.492308 7.587974 96.707692 7.652306 96.923077 7.716785 97.138462 7.781407 97.353846 7.846171 97.569231 7.911075 97.784615 7.976116 98.000000 8.041292 98.215385 8.106601 98.430769 8.172041 98.646154 8.237610 98.861538 8.303304 99.076923 8.369123 99.292308 8.435064 99.507692 8.501124 99.723077 8.567301 99.938462 8.633594 100.153846 8.700000 100.369231 8.766517 100.584615 8.833142 100.800000 8.899873 101.015385 8.966709 101.230769 9.033646 101.446154 9.100683 101.661538 9.167818 101.876923 9.235048 102.092308 9.302371 102.307692 9.369785 102.523077 9.437287 102.738462 9.504876 102.953846 9.572549 103.169231 9.640304 103.384615 9.708138 103.600000 9.776051 103.815385 9.844038 104.030769 9.912099 104.246154 9.980231 104.461538 10.048431 104.676923 10.116697 104.892308 10.185028 105.107692 10.253421 105.323077 10.321874 105.538462 10.390385 105.753846 10.458950 105.969231 10.527569 106.184615 10.596239 106.400000 10.664958 106.615385 10.733723 106.830769 10.802533 107.046154 10.871384 107.261538 10.940276 107.476923 11.009205 107.692308 11.078169 107.907692 11.147167 108.123077 11.216196 108.338462 11.285253 108.553846 11.354338 108.769231 11.423446 108.984615 11.492577 109.200000 11.561728 109.415385 11.630896 109.630769 11.700080 109.846154 11.769277 110.061538 11.838485 110.276923 11.907702 110.492308 11.976926 110.707692 12.046154 110.923077 12.115385 111.138462 12.184615 111.353846 12.253846 111.569231 12.323077 111.784615 12.392308 112.000000 12.461538 112.215385 12.530769 112.430769 12.600000 112.646154 12.669231 112.861538 12.738462 113.076923 12.807692 113.292308 12.876923 113.507692 12.946154 113.723077 13.015385 113.938462 13.084615 114.153846 13.153846 114.369231 13.223077 114.584615 13.292308 114.800000 13.361538 115.015385 13.430769 115.230769 13.500000 115.446154 13.569231 115.661538 13.638462 115.876923 13.707692 116.092308 13.776923 116.307692 13.846154 116.523077 13.915385 116.738462 13.984615 116.953846 14.053846 117.169231 14.123077 117.384615 14.192308 117.600000 14.261538 117.815385 14.330769 118.030769 14.400000 118.246154 14.469231 118.461538 14.538462 118.676923 14.607692 118.892308 14.676923 119.107692 14.746154 119.323077 14.815385 119.538462 14.884615 119.753846 14.953846 119.969231 15.023077 120.184615 15.092308 120.400000 15.161538 120.615385 15.230769 120.830769 15.300000 121.046154 15.369231 121.261538 15.438462 121.476923 15.507692 121.692308 15.576923 121.907692 15.646154 122.123077 15.715385 122.338462 15.784615 122.553846 15.853846 122.769231 15.923077 122.984615 15.992308 123.200000 16.061538 123.415385 16.130769 123.630769 16.200000 123.846154 16.269231 124.061538 16.338462 124.276923 16.407692 124.492308 16.476923 124.707692 16.546154 124.923077 16.615385 125.138462 16.684615 125.353846 16.753846 125.569231 16.823077 125.784615 16.892308 126.000000 16.961538 126.215385 17.030769 126.430769 17.100000 126.646154 17.169231 126.861538 17.238462 127.076923 17.307692 127.292308 17.376923 127.507692 17.446154 127.723077 17.515385 127.938462 17.584615 128.153846 17.653846 128.369231 17.723077 128.584615 17.792308 128.800000 17.861538 129.015385 17.930769 129.230769 18.000000 129.446154 18.069231 129.661538 18.138462 129.876923 18.207692 130.092308 18.276923 130.307692 18.346154 130.523077 18.415385 130.738462 18.484615 130.953846 18.553846 131.169231 18.623077 131.384615 18.692308 131.600000 18.761538 131.815385 18.830769 132.030769 18.900000 132.246154 18.969231 132.461538 19.038462 132.676923 19.107692 132.892308 19.176923 133.107692 19.246154 133.323077 19.315385 133.538462 19.384615 133.753846 19.453846 133.969231 19.523077 134.184615 19.592308 134.400000 19.661538 134.615385 19.730769 134.830769 19.800000 135.046154 19.869231 135.261538 19.938462 135.476923 20.007692 135.692308 20.076923 135.907692 20.146154 136.123077 20.215385 136.338462 20.284615 136.553846 20.353846 136.769231 20.423077 136.984615 20.492308 137.200000 20.561538 137.415385 20.630769 137.630769 20.700000 137.846154 20.769231 138.061538 20.838462 138.276923 20.907692 138.492308 20.976923 138.707692 21.046154 138.923077 21.115385 139.138462 21.184615 139.353846 21.253846 139.569231 21.323077 139.784615 21.392308 140.000000 21.461538 140.215385 21.530769 140.430769 21.600000 140.646154 21.669231 140.861538 21.738462 141.076923 21.807692 141.292308 21.876923 141.507692 21.946154 141.723077 22.015385 141.938462 22.084615 142.153846 22.153846 142.369231 22.223077 142.584615 22.292308 142.800000 22.361538 143.015385 22.430769 143.230769 22.500000 143.446154 22.569231 143.661538 22.638462 143.876923 22.707692 144.092308 22.776923 144.307692 22.846154 144.523077 22.915385 144.738462 22.984615 144.953846 23.053846 145.169231 23.123077 145.384615 23.192308 145.600000 23.261538 145.815385 23.330769 146.030769 23.400000 146.246154 23.469231 146.461538 23.538462 146.676923 23.607692 146.892308 23.676923 147.107692 23.746154 147.323077 23.815385 147.538462 23.884615 147.753846 23.953846 147.969231 24.023077 148.184615 24.092308 148.400000 24.161538 148.615385 24.230769 148.830769 24.300000 149.046154 24.369231 149.261538 24.438462 149.476923 24.507692 149.692308 24.576923 149.907692 24.646154 150.123077 24.715385 150.338462 24.784615 150.553846 24.853846 150.769231 24.923077 150.984615 24.992308 151.200000 25.061538 151.415385 25.130769 151.630769 25.200000 151.846154 25.269231 152.061538 25.338462 152.276923 25.407692 152.492308 25.476923 152.707692 25.546154 152.923077 25.615385 153.138462 25.684615 153.353846 25.753846 153.569231 25.823077 153.784615 25.892308 154.000000 25.961538 154.215385 26.030769 154.430769 26.100000 154.646154 26.169231 154.861538 26.238462 155.076923 26.307692 155.292308 26.376923 155.507692 26.446154 155.723077 26.515385 155.938462 26.584615 156.153846 26.653846 156.369231 26.723077 156.584615 26.792308 156.800000 26.861538 157.015385 26.930769 157.230769 27.000000 157.446154 27.069231 157.661538 27.138462 157.876923 27.207692 158.092308 27.276923 158.307692 27.346154 158.523077 27.415385 158.738462 27.484615 158.953846 27.553846 159.169231 27.623077 159.384615 27.692308 159.600000 27.761538 159.815385 27.830769 160.030769 27.900000 160.246154 27.969231 160.461538 28.038462 160.676923 28.107692 160.892308 28.176923 161.107692 28.246154 161.323077 28.315385 161.538462 28.384615 161.753846 28.453846 161.969231 28.523077 162.184615 28.592308 162.400000 28.661538 162.615385 28.730769 162.830769 28.800000 163.046154 28.869231 163.261538 28.938462 163.476923 29.007692 163.692308 29.076923 163.907692 29.146154 164.123077 29.215385 164.338462 29.284615 164.553846 29.353846 164.769231 29.423077" class="line reactive nofill" /></g></g><g class="titles" /><g transform="translate(22, 10)" class="plot overlay"><g class="series serie-0 color-0" /></g><g transform="translate(22, 10)" class="plot text-overlay"><g class="series serie-0 color-0" /></g><g transform="translate(22, 10)" class="plot tooltip-overlay"><g transform="translate(0 0)" style="opacity: 0" class="tooltip"><rect rx="0" ry="0" width="0" height="0" class="tooltip-box" /><g class="text" /></g></g></g></svg>