<?xml version='1.0' encoding='utf-8'?>
<svg xmlns="http://www.w3.org/2000/svg" id="chart-fc1afb0b-2bad-49df-ae4d-7e7df1c81090" class="pygal-chart pygal-sparkline" viewBox="0 0 200 50" width="200" height="50"><!--Generated with pygal 3.0.5 (etree) ©Kozea 2012-2016 on 2024-11-10--><!--http://pygal.org--><!--http://github.com/Kozea/pygal--><defs><style type="text/css">#chart-fc1afb0b-2bad-49df-ae4d-7e7df1c81090{-webkit-user-select:none;-webkit-font-smoothing:antialiased;font-family:Consolas,"Liberation Mono",Menlo,Courier,monospace}#chart-fc1afb0b-2bad-49df-ae4d-7e7df1c81090 .title{font-family:Consolas,"Liberation Mono",Menlo,Courier,monospace;font-size:16px}#chart-fc1afb0b-2bad-49df-ae4d-7e7df1c81090 .legends .legend text{font-family:Consolas,"Liberation Mono",Menlo,Courier,monospace;font-size:14px}#chart-fc1afb0b-2bad-49df-ae4d-7e7df1c81090 .axis text{font-family:Consolas,"Liberation Mono",Menlo,Courier,monospace;font-size:10px}#chart-fc1afb0b-2bad-49df-ae4d-7e7df1c81090 .axis text.major{font-family:Consolas,"Liberation Mono",Menlo,Courier,monospace;font-size:10px}#chart-fc1afb0b-2bad-49df-ae4d-7e7df1c81090 .text-overlay text.value{font-family:Consolas,"Liberation Mono",Menlo,Courier,monospace;font-size:16px}#chart-fc1afb0b-2bad-49df-ae4d-7e7df1c81090 .text-overlay text.label{font-family:Consolas,"Liberation Mono",Menlo,Courier,monospace;font-size:10px}#chart-fc1afb0b-2bad-49df-ae4d-7e7df1c81090 .tooltip{font-family:Consolas,"Liberation Mono",Menlo,Courier,monospace;font-size:14px}#chart-fc1afb0b-2bad-49df-ae4d-7e7df1c81090 text.no_data{font-family:Consolas,"Liberation Mono",Menlo,Courier,monospace;font-size:64px}
#chart-fc1afb0b-2bad-49df-ae4d-7e7df1c81090{background-color:rgba(249,249,249,1)}#chart-fc1afb0b-2bad-49df-ae4d-7e7df1c81090 path,#chart-fc1afb0b-2bad-49df-ae4d-7e7df1c81090 line,#chart-fc1afb0b-2bad-49df-ae4d-7e7df1c81090 rect,#chart-fc1afb0b-2bad-49df-ae4d-7e7df1c81090 circle{-webkit-transition:150ms;-moz-transition:150ms;transition:150ms}#chart-fc1afb0b-2bad-49df-ae4d-7e7df1c81090 .graph &gt; .background{fill:rgba(249,249,249,1)}#chart-fc1afb0b-2bad-49df-ae4d-7e7df1c81090 .plot &gt; .background{fill:rgba(255,255,255,1)}#chart-fc1afb0b-2bad-49df-ae4d-7e7df1c81090 .graph{fill:rgba(0,0,0,.87)}#chart-fc1afb0b-2bad-49df-ae4d-7e7df1c81090 text.no_data{fill:rgba(0,0,0,1)}#chart-fc1afb0b-2bad-49df-ae4d-7e7df1c81090 .title{fill:rgba(0,0,0,1)}#chart-fc1afb0b-2bad-49df-ae4d-7e7df1c81090 .legends .legend text{fill:rgba(0,0,0,.87)}#chart-fc1afb0b-2bad-49df-ae4d-7e7df1c81090 .legends .legend:hover text{fill:rgba(0,0,0,1)}#chart-fc1afb0b-2bad-49df-ae4d-7e7df1c81090 .axis .line{stroke:rgba(0,0,0,1)}#chart-fc1afb0b-2bad-49df-ae4d-7e7df1c81090 .axis .guide.line{stroke:rgba(0,0,0,.54)}#chart-fc1afb0b-2bad-49df-ae4d-7e7df1c81090 .axis .major.line{stroke:rgba(0,0,0,.87)}#chart-fc1afb0b-2bad-49df-ae4d-7e7df1c81090 .axis text.major{fill:rgba(0,0,0,1)}#chart-fc1afb0b-2bad-49df-ae4d-7e7df1c81090 .axis.y .guides:hover .guide.line,#chart-fc1afb0b-2bad-49df-ae4d-7e7df1c81090 .line-graph .axis.x .guides:hover .guide.line,#chart-fc1afb0b-2bad-49df-ae4d-7e7df1c81090 .stackedline-graph .axis.x .guides:hover .guide.line,#chart-fc1afb0b-2bad-49df-ae4d-7e7df1c81090 .xy-graph .axis.x .guides:hover .guide.line{stroke:rgba(0,0,0,1)}#chart-fc1afb0b-2bad-49df-ae4d-7e7df1c81090 .axis .guides:hover text{fill:rgba(0,0,0,1)}#chart-fc1afb0b-2bad-49df-ae4d-7e7df1c81090 .reactive{fill-opacity:.7;stroke-opacity:.8;stroke-width:1}#chart-fc1afb0b-2bad-49df-ae4d-7e7df1c81090 .ci{stroke:rgba(0,0,0,.87)}#chart-fc1afb0b-2bad-49df-ae4d-7e7df1c81090 .reactive.active,#chart-fc1afb0b-2bad-49df-ae4d-7e7df1c81090 .active .reactive{fill-opacity:.8;stroke-opacity:.9;stroke-width:4}#chart-fc1afb0b-2bad-49df-ae4d-7e7df1c81090 .ci .reactive.active{stroke-width:1.5}#chart-fc1afb0b-2bad-49df-ae4d-7e7df1c81090 .series text{fill:rgba(0,0,0,1)}#chart-fc1afb0b-2bad-49df-ae4d-7e7df1c81090 .tooltip rect{fill:rgba(255,255,255,1);stroke:rgba(0,0,0,1);-webkit-transition:opacity 150ms;-moz-transition:opacity 150ms;transition:opacity 150ms}#chart-fc1afb0b-2bad-49df-ae4d-7e7df1c81090 .tooltip .label{fill:rgba(0,0,0,.87)}#chart-fc1afb0b-2bad-49df-ae4d-7e7df1c81090 .tooltip .label{fill:rgba(0,0,0,.87)}#chart-fc1afb0b-2bad-49df-ae4d-7e7df1c81090 .tooltip .legend{font-size:.8em;fill:rgba(0,0,0,.54)}#chart-fc1afb0b-2bad-49df-ae4d-7e7df1c81090 .tooltip .x_label{font-size:.6em;fill:rgba(0,0,0,1)}#chart-fc1afb0b-2bad-49df-ae4d-7e7df1c81090 .tooltip .xlink{font-size:.5em;text-decoration:underline}#chart-fc1afb0b-2bad-49df-ae4d-7e7df1c81090 .tooltip .value{font-size:1.5em}#chart-fc1afb0b-2bad-49df-ae4d-7e7df1c81090 .bound{font-size:.5em}#chart-fc1afb0b-2bad-49df-ae4d-7e7df1c81090 .max-value{font-size:.75em;fill:rgba(0,0,0,.54)}#chart-fc1afb0b-2bad-49df-ae4d-7e7df1c81090 .map-element{fill:rgba(255,255,255,1);stroke:rgba(0,0,0,.54) !important}#chart-fc1afb0b-2bad-49df-ae4d-7e7df1c81090 .map-element .reactive{fill-opacity:inherit;stroke-opacity:inherit}#chart-fc1afb0b-2bad-49df-ae4d-7e7df1c81090 .color-0,#chart-fc1afb0b-2bad-49df-ae4d-7e7df1c81090 .color-0 a:visited{stroke:#F44336;fill:#F44336}#chart-fc1afb0b-2bad-49df-ae4d-7e7df1c81090 .text-overlay .color-0 text{fill:black}
#chart-fc1afb0b-2bad-49df-ae4d-7e7df1c81090 text.no_data{text-anchor:middle}#chart-fc1afb0b-2bad-49df-ae4d-7e7df1c81090 .guide.line{fill:none}#chart-fc1afb0b-2bad-49df-ae4d-7e7df1c81090 .centered{text-anchor:middle}#chart-fc1afb0b-2bad-49df-ae4d-7e7df1c81090 .title{text-anchor:middle}#chart-fc1afb0b-2bad-49df-ae4d-7e7df1c81090 .legends .legend text{fill-opacity:1}#chart-fc1afb0b-2bad-49df-ae4d-7e7df1c81090 .axis.x text{text-anchor:middle}#chart-fc1afb0b-2bad-49df-ae4d-7e7df1c81090 .axis.x:not(.web) text[transform]{text-anchor:start}#chart-fc1afb0b-2bad-49df-ae4d-7e7df1c81090 .axis.x:not(.web) text[transform].backwards{text-anchor:end}#chart-fc1afb0b-2bad-49df-ae4d-7e7df1c81090 .axis.y text{text-anchor:end}#chart-fc1afb0b-2bad-49df-ae4d-7e7df1c81090 .axis.y text[transform].backwards{text-anchor:start}#chart-fc1afb0b-2bad-49df-ae4d-7e7df1c81090 .axis.y2 text{text-anchor:start}#chart-fc1afb0b-2bad-49df-ae4d-7e7df1c81090 .axis.y2 text[transform].backwards{text-anchor:end}#chart-fc1afb0b-2bad-49df-ae4d-7e7df1c81090 .axis .guide.line{stroke-dasharray:4,4;stroke:black}#chart-fc1afb0b-2bad-49df-ae4d-7e7df1c81090 .axis .major.guide.line{stroke-dasharray:6,6;stroke:black}#chart-fc1afb0b-2bad-49df-ae4d-7e7df1c81090 .horizontal .axis.y .guide.line,#chart-fc1afb0b-2bad-49df-ae4d-7e7df1c81090 .horizontal .axis.y2 .guide.line,#chart-fc1afb0b-2bad-49df-ae4d-7e7df1c81090 .vertical .axis.x .guide.line{opacity:0}#chart-fc1afb0b-2bad-49df-ae4d-7e7df1c81090 .horizontal .axis.always_show .guide.line,#chart-fc1afb0b-2bad-49df-ae4d-7e7df1c81090 .vertical .axis.always_show .guide.line{opacity:1 !important}#chart-fc1afb0b-2bad-49df-ae4d-7e7df1c81090 .axis.y .guides:hover .guide.line,#chart-fc1afb0b-2bad-49df-ae4d-7e7df1c81090 .axis.y2 .guides:hover .guide.line,#chart-fc1afb0b-2bad-49df-ae4d-7e7df1c81090 .axis.x .guides:hover .guide.line{opacity:1}#chart-fc1afb0b-2bad-49df-ae4d-7e7df1c81090 .axis .guides:hover text{opacity:1}#chart-fc1afb0b-2bad-49df-ae4d-7e7df1c81090 .nofill{fill:none}#chart-fc1afb0b-2bad-49df-ae4d-7e7df1c81090 .subtle-fill{fill-opacity:.2}#chart-fc1afb0b-2bad-49df-ae4d-7e7df1c81090 .dot{stroke-width:1px;fill-opacity:1;stroke-opacity:1}#chart-fc1afb0b-2bad-49df-ae4d-7e7df1c81090 .dot.active{stroke-width:5px}#chart-fc1afb0b-2bad-49df-ae4d-7e7df1c81090 .dot.negative{fill:transparent}#chart-fc1afb0b-2bad-49df-ae4d-7e7df1c81090 text,#chart-fc1afb0b-2bad-49df-ae4d-7e7df1c81090 tspan{stroke:none !important}#chart-fc1afb0b-2bad-49df-ae4d-7e7df1c81090 .series text.active{opacity:1}#chart-fc1afb0b-2bad-49df-ae4d-7e7df1c81090 .tooltip rect{fill-opacity:.95;stroke-width:.5}#chart-fc1afb0b-2bad-49df-ae4d-7e7df1c81090 .tooltip text{fill-opacity:1}#chart-fc1afb0b-2bad-49df-ae4d-7e7df1c81090 .showable{visibility:hidden}#chart-fc1afb0b-2bad-49df-ae4d-7e7df1c81090 .showable.shown{visibility:visible}#chart-fc1afb0b-2bad-49df-ae4d-7e7df1c81090 .gauge-background{fill:rgba(229,229,229,1);stroke:none}#chart-fc1afb0b-2bad-49df-ae4d-7e7df1c81090 .bg-lines{stroke:rgba(249,249,249,1);stroke-width:2px}</style><script type="text/javascript">window.pygal = window.pygal || {};window.pygal.config = window.pygal.config || {};window.pygal.config['fc1afb0b-2bad-49df-ae4d-7e7df1c81090'] = {"allow_interruptions": false, "box_mode": "extremes", "classes": ["pygal-chart", "pygal-sparkline"], "css": ["file://style.css", "file://graph.css"], "defs": [], "disable_xml_declaration": false, "dots_size": 2.5, "dynamic_print_values": false, "explicit_size": true, "fill": false, "force_uri_protocol": "https", "formatter": null, "half_pie": false, "height": 50, "include_x_axis": false, "inner_radius": 0, "interpolate": "cubic", "interpolation_parameters": {}, "interpolation_precision": 250, "inverse_y_axis": false, "js": [], "legend_at_bottom": false, "legend_at_bottom_columns": null, "legend_box_size": 12, "logarithmic": false, "margin": 10, "margin_bottom": null, "margin_left": null, "margin_right": null, "margin_top": null, "max_scale": 2, "min_scale": 1, "missing_value_fill_truncation": "x", "no_data_text": "", "no_prefix": false, "order_min": null, "pretty_print": false, "print_labels": false, "print_values": false, "print_values_position": "center", "print_zeroes": true, "range": null, "rounded_bars": null, "secondary_range": null, "show_dots": false, "show_legend": false, "show_minor_x_labels": true, "show_minor_y_labels": true, "show_only_major_dots": false, "show_x_guides": false, "show_x_labels": false, "show_y_guides": true, "show_y_labels": true, "spacing": 0, "stack_from_top": false, "strict": false, "stroke": true, "stroke_style": null, "style": {"background": "rgba(249, 249, 249, 1)", "ci_colors": [], "colors": ["#F44336", "#3F51B5", "#009688", "#FFC107", "#FF5722", "#9C27B0", "#03A9F4", "#8BC34A", "#FF9800", "#E91E63", "#2196F3", "#4CAF50", "#FFEB3B", "#673AB7", "#00BCD4", "#CDDC39", "#9E9E9E", "#607D8B"], "dot_opacity": "1", "font_family": "Consolas, \"Liberation Mono\", Menlo, Courier, monospace", "foreground": "rgba(0, 0, 0, .87)", "foreground_strong": "rgba(0, 0, 0, 1)", "foreground_subtle": "rgba(0, 0, 0, .54)", "guide_stroke_color": "black", "guide_stroke_dasharray": "4,4", "label_font_family": "Consolas, \"Liberation Mono\", Menlo, Courier, monospace", "label_font_size": 10, "legend_font_family": "Consolas, \"Liberation Mono\", Menlo, Courier, monospace", "legend_font_size": 14, "major_guide_stroke_color": "black", "major_guide_stroke_dasharray": "6,6", "major_label_font_family": "Consolas, \"Liberation Mono\", Menlo, Courier, monospace", "major_label_font_size": 10, "no_data_font_family": "Consolas, \"Liberation Mono\", Menlo, Courier, monospace", "no_data_font_size": 64, "opacity": ".7", "opacity_hover": ".8", "plot_background": "rgba(255, 255, 255, 1)", "stroke_opacity": ".8", "stroke_opacity_hover": ".9", "stroke_width": "1", "stroke_width_hover": "4", "title_font_family": "Consolas, \"Liberation Mono\", Menlo, Courier, monospace", "title_font_size": 16, "tooltip_font_family": "Consolas, \"Liberation Mono\", Menlo, Courier, monospace", "tooltip_font_size": 14, "transition": "150ms", "value_background": "rgba(229, 229, 229, 1)", "value_colors": [], "value_font_family": "Consolas, \"Liberation Mono\", Menlo, Courier, monospace", "value_font_size": 16, "value_label_font_family": "Consolas, \"Liberation Mono\", Menlo, Courier, monospace", "value_label_font_size": 10}, "title": null, "tooltip_border_radius": 0, "tooltip_fancy_mode": true, "truncate_label": null, "truncate_legend": null, "width": 200, "x_label_rotation": 0, "x_labels": ["2024/11", "2024/10", "2024/9"], "x_labels_major": null, "x_labels_major_count": null, "x_labels_major_every": null, "x_title": null, "xrange": null, "y_label_rotation": 0, "y_labels": null, "y_labels_major": null, "y_labels_major_count": null, "y_labels_major_every": null, "y_title": null, "zero": 0, "legends": [""]}</script></defs><title>Pygal</title><g class="graph line-graph vertical"><rect x="0" y="0" width="200" height="50" class="background" /><g transform="translate(22, 10)" class="plot"><rect x="0" y="0" width="168.0" height="30" class="background" /><g class="axis y always_show"><path d="M0.000000 30.000000 h168.000000" class="line" /><g class="guides"><path d="M0.000000 18.139356 h168.000000" class="guide line" /><text x="-5" y="21.639356053140652" class="">8</text><title>8</title></g><g class="guides"><path d="M0.000000 3.094395 h168.000000" class="guide line" /><text x="-5" y="6.594394893225616" class="">16</text><title>16</title></g></g><g class="series serie-0 color-0"><path d="M3.230769 29.423077 L3.553846 29.270747 3.876923 29.118422 4.200000 28.966103 4.523077 28.813796 4.846154 28.661505 5.169231 28.509232 5.492308 28.356982 5.815385 28.204759 6.138462 28.052565 6.461538 27.900406 6.784615 27.748285 7.107692 27.596206 7.430769 27.444172 7.753846 27.292188 8.076923 27.140256 8.400000 26.988381 8.723077 26.836567 9.046154 26.684818 9.369231 26.533137 9.692308 26.381527 10.015385 26.229994 10.338462 26.078540 10.661538 25.927170 10.984615 25.775887 11.307692 25.624694 11.630769 25.473597 11.953846 25.322598 12.276923 25.171702 12.600000 25.020911 12.923077 24.870231 13.246154 24.719664 13.569231 24.569215 13.892308 24.418887 14.215385 24.268685 14.538462 24.118611 14.861538 23.968670 15.184615 23.818865 15.507692 23.669201 15.830769 23.519681 16.153846 23.370309 16.476923 23.221088 16.800000 23.072023 17.123077 22.923117 17.446154 22.774374 17.769231 22.625797 18.092308 22.477392 18.415385 22.329161 18.738462 22.181108 19.061538 22.033237 19.384615 21.885551 19.707692 21.738056 20.030769 21.590753 20.353846 21.443648 20.676923 21.296744 21.000000 21.150045 21.323077 21.003554 21.646154 20.857275 21.969231 20.711212 22.292308 20.565370 22.615385 20.419751 22.938462 20.274359 23.261538 20.129199 23.584615 19.984274 23.907692 19.839588 24.230769 19.695144 24.553846 19.550947 24.876923 19.407000 25.200000 19.263307 25.523077 19.119872 25.846154 18.976698 26.169231 18.833790 26.492308 18.691151 26.815385 18.548785 27.138462 18.406696 27.461538 18.264887 27.784615 18.123363 28.107692 17.982127 28.430769 17.841183 28.753846 17.700534 29.076923 17.560185 29.400000 17.420140 29.723077 17.280401 30.046154 17.140973 30.369231 17.001860 30.692308 16.863066 31.015385 16.724593 31.338462 16.586447 31.661538 16.448631 31.984615 16.311148 32.307692 16.174003 32.630769 16.037199 32.953846 15.900739 33.276923 15.764629 33.600000 15.628872 33.923077 15.493470 34.246154 15.358429 34.569231 15.223752 34.892308 15.089442 35.215385 14.955505 35.538462 14.821942 35.861538 14.688759 36.184615 14.555958 36.507692 14.423545 36.830769 14.291521 37.153846 14.159892 37.476923 14.028662 37.800000 13.897833 38.123077 13.767409 38.446154 13.637395 38.769231 13.507795 39.092308 13.378611 39.415385 13.249849 39.738462 13.121511 40.061538 12.993601 40.384615 12.866123 40.707692 12.739082 41.030769 12.612480 41.353846 12.486322 41.676923 12.360612 42.000000 12.235352 42.323077 12.110548 42.646154 11.986202 42.969231 11.862319 43.292308 11.738902 43.615385 11.615955 43.938462 11.493482 44.261538 11.371487 44.584615 11.249973 44.907692 11.128945 45.230769 11.008406 45.553846 10.888359 45.876923 10.768809 46.200000 10.649760 46.523077 10.531215 46.846154 10.413178 47.169231 10.295653 47.492308 10.178643 47.815385 10.062153 48.138462 9.946186 48.461538 9.830746 48.784615 9.715837 49.107692 9.601462 49.430769 9.487626 49.753846 9.374332 50.076923 9.261584 50.400000 9.149386 50.723077 9.037741 51.046154 8.926653 51.369231 8.816127 51.692308 8.706165 52.015385 8.596773 52.338462 8.487952 52.661538 8.379708 52.984615 8.272044 53.307692 8.164964 53.630769 8.058472 53.953846 7.952571 54.276923 7.847265 54.600000 7.742558 54.923077 7.638455 55.246154 7.534957 55.569231 7.432070 55.892308 7.329798 56.215385 7.228143 56.538462 7.127110 56.861538 7.026703 57.184615 6.926925 57.507692 6.827780 57.830769 6.729272 58.153846 6.631405 58.476923 6.534182 58.800000 6.437608 59.123077 6.341686 59.446154 6.246420 59.769231 6.151813 60.092308 6.057870 60.415385 5.964594 60.738462 5.871989 61.061538 5.780059 61.384615 5.688808 61.707692 5.598239 62.030769 5.508357 62.353846 5.419164 62.676923 5.330665 63.000000 5.242864 63.323077 5.155764 63.646154 5.069370 63.969231 4.983684 64.292308 4.898711 64.615385 4.814455 64.938462 4.730919 65.261538 4.648108 65.584615 4.566024 65.907692 4.484672 66.230769 4.404055 66.553846 4.324178 66.876923 4.245044 67.200000 4.166656 67.523077 4.089020 67.846154 4.012138 68.169231 3.936014 68.492308 3.860652 68.815385 3.786056 69.138462 3.712230 69.461538 3.639177 69.784615 3.566901 70.107692 3.495406 70.430769 3.424697 70.753846 3.354775 71.076923 3.285646 71.400000 3.217314 71.723077 3.149781 72.046154 3.083052 72.369231 3.017131 72.692308 2.952021 73.015385 2.887726 73.338462 2.824250 73.661538 2.761597 73.984615 2.699770 74.307692 2.638773 74.630769 2.578611 74.953846 2.519286 75.276923 2.460804 75.600000 2.403166 75.923077 2.346378 76.246154 2.290443 76.569231 2.235365 76.892308 2.181147 77.215385 2.127794 77.538462 2.075309 77.861538 2.023696 78.184615 1.972959 78.507692 1.923102 78.830769 1.874128 79.153846 1.826041 79.476923 1.778845 79.800000 1.732543 80.123077 1.687141 80.446154 1.642640 80.769231 1.599046 81.092308 1.556362 81.415385 1.514591 81.738462 1.473738 82.061538 1.433806 82.384615 1.394799 82.707692 1.356722 83.030769 1.319576 83.353846 1.283368 83.676923 1.248099 84.000000 1.213775 84.323077 1.180397 84.646154 1.147963 84.969231 1.116469 85.292308 1.085912 85.615385 1.056288 85.938462 1.027592 86.261538 0.999822 86.584615 0.972973 86.907692 0.947041 87.230769 0.922023 87.553846 0.897915 87.876923 0.874713 88.200000 0.852413 88.523077 0.831012 88.846154 0.810506 89.169231 0.790890 89.492308 0.772162 89.815385 0.754318 90.138462 0.737352 90.461538 0.721263 90.784615 0.706045 91.107692 0.691696 91.430769 0.678212 91.753846 0.665587 92.076923 0.653820 92.400000 0.642906 92.723077 0.632841 93.046154 0.623621 93.369231 0.615243 93.692308 0.607704 94.015385 0.600998 94.338462 0.595122 94.661538 0.590073 94.984615 0.585847 95.307692 0.582439 95.630769 0.579847 95.953846 0.578066 96.276923 0.577093 96.600000 0.576923 96.923077 0.577553 97.246154 0.578980 97.569231 0.581199 97.892308 0.584206 98.215385 0.587999 98.538462 0.592572 98.861538 0.597923 99.184615 0.604047 99.507692 0.610940 99.830769 0.618600 100.153846 0.627021 100.476923 0.636201 100.800000 0.646135 101.123077 0.656820 101.446154 0.668252 101.769231 0.680427 102.092308 0.693341 102.415385 0.706991 102.738462 0.721373 103.061538 0.736482 103.384615 0.752316 103.707692 0.768870 104.030769 0.786140 104.353846 0.804123 104.676923 0.822816 105.000000 0.842213 105.323077 0.862312 105.646154 0.883108 105.969231 0.904599 106.292308 0.926779 106.615385 0.949645 106.938462 0.973194 107.261538 0.997422 107.584615 1.022324 107.907692 1.047898 108.230769 1.074139 108.553846 1.101043 108.876923 1.128607 109.200000 1.156827 109.523077 1.185699 109.846154 1.215219 110.169231 1.245384 110.492308 1.276189 110.815385 1.307632 111.138462 1.339708 111.461538 1.372413 111.784615 1.405743 112.107692 1.439696 112.430769 1.474266 112.753846 1.509450 113.076923 1.545245 113.400000 1.581647 113.723077 1.618651 114.046154 1.656255 114.369231 1.694453 114.692308 1.733243 115.015385 1.772621 115.338462 1.812583 115.661538 1.853124 115.984615 1.894242 116.307692 1.935933 116.630769 1.978192 116.953846 2.021016 117.276923 2.064401 117.600000 2.108344 117.923077 2.152840 118.246154 2.197886 118.569231 2.243477 118.892308 2.289611 119.215385 2.336284 119.538462 2.383490 119.861538 2.431228 120.184615 2.479493 120.507692 2.528280 120.830769 2.577588 121.153846 2.627411 121.476923 2.677745 121.800000 2.728588 122.123077 2.779935 122.446154 2.831782 122.769231 2.884127 123.092308 2.936963 123.415385 2.990290 123.738462 3.044101 124.061538 3.098394 124.384615 3.153164 124.707692 3.208409 125.030769 3.264123 125.353846 3.320304 125.676923 3.376948 126.000000 3.434050 126.323077 3.491607 126.646154 3.549615 126.969231 3.608071 127.292308 3.666970 127.615385 3.726310 127.938462 3.786085 128.261538 3.846292 128.584615 3.906928 128.907692 3.967988 129.230769 4.029469 129.553846 4.091368 129.876923 4.153679 130.200000 4.216400 130.523077 4.279527 130.846154 4.343055 131.169231 4.406982 131.492308 4.471303 131.815385 4.536014 132.138462 4.601112 132.461538 4.666593 132.784615 4.732454 133.107692 4.798689 133.430769 4.865296 133.753846 4.932271 134.076923 4.999610 134.400000 5.067309 134.723077 5.135364 135.046154 5.203772 135.369231 5.272529 135.692308 5.341631 136.015385 5.411074 136.338462 5.480854 136.661538 5.550968 136.984615 5.621412 137.307692 5.692182 137.630769 5.763274 137.953846 5.834685 138.276923 5.906410 138.600000 5.978447 138.923077 6.050790 139.246154 6.123437 139.569231 6.196383 139.892308 6.269625 140.215385 6.343159 140.538462 6.416981 140.861538 6.491087 141.184615 6.565474 141.507692 6.640137 141.830769 6.715074 142.153846 6.790280 142.476923 6.865751 142.800000 6.941484 143.123077 7.017475 143.446154 7.093719 143.769231 7.170214 144.092308 7.246955 144.415385 7.323939 144.738462 7.401162 145.061538 7.478620 145.384615 7.556309 145.707692 7.634226 146.030769 7.712366 146.353846 7.790726 146.676923 7.869303 147.000000 7.948091 147.323077 8.027088 147.646154 8.106290 147.969231 8.185693 148.292308 8.265293 148.615385 8.345086 148.938462 8.425069 149.261538 8.505238 149.584615 8.585589 149.907692 8.666117 150.230769 8.746821 150.553846 8.827695 150.876923 8.908735 151.200000 8.989939 151.523077 9.071302 151.846154 9.152820 152.169231 9.234490 152.492308 9.316308 152.815385 9.398270 153.138462 9.480372 153.461538 9.562611 153.784615 9.644983 154.107692 9.727483 154.430769 9.810108 154.753846 9.892855 155.076923 9.975719 155.400000 10.058697 155.723077 10.141785 156.046154 10.224980 156.369231 10.308276 156.692308 10.391671 157.015385 10.475161 157.338462 10.558742 157.661538 10.642410 157.984615 10.726161 158.307692 10.809993 158.630769 10.893900 158.953846 10.977878 159.276923 11.061926 159.600000 11.146037 159.923077 11.230210 160.246154 11.314439 160.569231 11.398721 160.892308 11.483053 161.215385 11.567430 161.538462 11.651848 161.861538 11.736305 162.184615 11.820796 162.507692 11.905317 162.830769 11.989865 163.153846 12.074435 163.476923 12.159024 163.800000 12.243629 164.123077 12.328245 164.446154 12.412868 164.769231 12.497496" class="line reactive nofill" /></g></g><g class="titles" /><g transform="translate(22, 10)" class="plot overlay"><g class="series serie-0 color-0" /></g><g transform="translate(22, 10)" class="plot text-overlay"><g class="series serie-0 color-0" /></g><g transform="translate(22, 10)" class="plot tooltip-overlay"><g transform="translate(0 0)" style="opacity: 0" class="tooltip"><rect rx="0" ry="0" width="0" height="0" class="tooltip-box" /><g class="text" /></g></g></g></svg>