<?xml version='1.0' encoding='utf-8'?>
<svg xmlns="http://www.w3.org/2000/svg" id="chart-061e10b3-b625-4bd9-b3f3-610af0a44086" class="pygal-chart pygal-sparkline" viewBox="0 0 200 50" width="200" height="50"><!--Generated with pygal 3.0.4 (etree) ©Kozea 2012-2016 on 2024-05-12--><!--http://pygal.org--><!--http://github.com/Kozea/pygal--><defs><style type="text/css">#chart-061e10b3-b625-4bd9-b3f3-610af0a44086{-webkit-user-select:none;-webkit-font-smoothing:antialiased;font-family:Consolas,"Liberation Mono",Menlo,Courier,monospace}#chart-061e10b3-b625-4bd9-b3f3-610af0a44086 .title{font-family:Consolas,"Liberation Mono",Menlo,Courier,monospace;font-size:16px}#chart-061e10b3-b625-4bd9-b3f3-610af0a44086 .legends .legend text{font-family:Consolas,"Liberation Mono",Menlo,Courier,monospace;font-size:14px}#chart-061e10b3-b625-4bd9-b3f3-610af0a44086 .axis text{font-family:Consolas,"Liberation Mono",Menlo,Courier,monospace;font-size:10px}#chart-061e10b3-b625-4bd9-b3f3-610af0a44086 .axis text.major{font-family:Consolas,"Liberation Mono",Menlo,Courier,monospace;font-size:10px}#chart-061e10b3-b625-4bd9-b3f3-610af0a44086 .text-overlay text.value{font-family:Consolas,"Liberation Mono",Menlo,Courier,monospace;font-size:16px}#chart-061e10b3-b625-4bd9-b3f3-610af0a44086 .text-overlay text.label{font-family:Consolas,"Liberation Mono",Menlo,Courier,monospace;font-size:10px}#chart-061e10b3-b625-4bd9-b3f3-610af0a44086 .tooltip{font-family:Consolas,"Liberation Mono",Menlo,Courier,monospace;font-size:14px}#chart-061e10b3-b625-4bd9-b3f3-610af0a44086 text.no_data{font-family:Consolas,"Liberation Mono",Menlo,Courier,monospace;font-size:64px}
#chart-061e10b3-b625-4bd9-b3f3-610af0a44086{background-color:rgba(249,249,249,1)}#chart-061e10b3-b625-4bd9-b3f3-610af0a44086 path,#chart-061e10b3-b625-4bd9-b3f3-610af0a44086 line,#chart-061e10b3-b625-4bd9-b3f3-610af0a44086 rect,#chart-061e10b3-b625-4bd9-b3f3-610af0a44086 circle{-webkit-transition:150ms;-moz-transition:150ms;transition:150ms}#chart-061e10b3-b625-4bd9-b3f3-610af0a44086 .graph &gt; .background{fill:rgba(249,249,249,1)}#chart-061e10b3-b625-4bd9-b3f3-610af0a44086 .plot &gt; .background{fill:rgba(255,255,255,1)}#chart-061e10b3-b625-4bd9-b3f3-610af0a44086 .graph{fill:rgba(0,0,0,.87)}#chart-061e10b3-b625-4bd9-b3f3-610af0a44086 text.no_data{fill:rgba(0,0,0,1)}#chart-061e10b3-b625-4bd9-b3f3-610af0a44086 .title{fill:rgba(0,0,0,1)}#chart-061e10b3-b625-4bd9-b3f3-610af0a44086 .legends .legend text{fill:rgba(0,0,0,.87)}#chart-061e10b3-b625-4bd9-b3f3-610af0a44086 .legends .legend:hover text{fill:rgba(0,0,0,1)}#chart-061e10b3-b625-4bd9-b3f3-610af0a44086 .axis .line{stroke:rgba(0,0,0,1)}#chart-061e10b3-b625-4bd9-b3f3-610af0a44086 .axis .guide.line{stroke:rgba(0,0,0,.54)}#chart-061e10b3-b625-4bd9-b3f3-610af0a44086 .axis .major.line{stroke:rgba(0,0,0,.87)}#chart-061e10b3-b625-4bd9-b3f3-610af0a44086 .axis text.major{fill:rgba(0,0,0,1)}#chart-061e10b3-b625-4bd9-b3f3-610af0a44086 .axis.y .guides:hover .guide.line,#chart-061e10b3-b625-4bd9-b3f3-610af0a44086 .line-graph .axis.x .guides:hover .guide.line,#chart-061e10b3-b625-4bd9-b3f3-610af0a44086 .stackedline-graph .axis.x .guides:hover .guide.line,#chart-061e10b3-b625-4bd9-b3f3-610af0a44086 .xy-graph .axis.x .guides:hover .guide.line{stroke:rgba(0,0,0,1)}#chart-061e10b3-b625-4bd9-b3f3-610af0a44086 .axis .guides:hover text{fill:rgba(0,0,0,1)}#chart-061e10b3-b625-4bd9-b3f3-610af0a44086 .reactive{fill-opacity:.7;stroke-opacity:.8;stroke-width:1}#chart-061e10b3-b625-4bd9-b3f3-610af0a44086 .ci{stroke:rgba(0,0,0,.87)}#chart-061e10b3-b625-4bd9-b3f3-610af0a44086 .reactive.active,#chart-061e10b3-b625-4bd9-b3f3-610af0a44086 .active .reactive{fill-opacity:.8;stroke-opacity:.9;stroke-width:4}#chart-061e10b3-b625-4bd9-b3f3-610af0a44086 .ci .reactive.active{stroke-width:1.5}#chart-061e10b3-b625-4bd9-b3f3-610af0a44086 .series text{fill:rgba(0,0,0,1)}#chart-061e10b3-b625-4bd9-b3f3-610af0a44086 .tooltip rect{fill:rgba(255,255,255,1);stroke:rgba(0,0,0,1);-webkit-transition:opacity 150ms;-moz-transition:opacity 150ms;transition:opacity 150ms}#chart-061e10b3-b625-4bd9-b3f3-610af0a44086 .tooltip .label{fill:rgba(0,0,0,.87)}#chart-061e10b3-b625-4bd9-b3f3-610af0a44086 .tooltip .label{fill:rgba(0,0,0,.87)}#chart-061e10b3-b625-4bd9-b3f3-610af0a44086 .tooltip .legend{font-size:.8em;fill:rgba(0,0,0,.54)}#chart-061e10b3-b625-4bd9-b3f3-610af0a44086 .tooltip .x_label{font-size:.6em;fill:rgba(0,0,0,1)}#chart-061e10b3-b625-4bd9-b3f3-610af0a44086 .tooltip .xlink{font-size:.5em;text-decoration:underline}#chart-061e10b3-b625-4bd9-b3f3-610af0a44086 .tooltip .value{font-size:1.5em}#chart-061e10b3-b625-4bd9-b3f3-610af0a44086 .bound{font-size:.5em}#chart-061e10b3-b625-4bd9-b3f3-610af0a44086 .max-value{font-size:.75em;fill:rgba(0,0,0,.54)}#chart-061e10b3-b625-4bd9-b3f3-610af0a44086 .map-element{fill:rgba(255,255,255,1);stroke:rgba(0,0,0,.54) !important}#chart-061e10b3-b625-4bd9-b3f3-610af0a44086 .map-element .reactive{fill-opacity:inherit;stroke-opacity:inherit}#chart-061e10b3-b625-4bd9-b3f3-610af0a44086 .color-0,#chart-061e10b3-b625-4bd9-b3f3-610af0a44086 .color-0 a:visited{stroke:#F44336;fill:#F44336}#chart-061e10b3-b625-4bd9-b3f3-610af0a44086 .text-overlay .color-0 text{fill:black}
#chart-061e10b3-b625-4bd9-b3f3-610af0a44086 text.no_data{text-anchor:middle}#chart-061e10b3-b625-4bd9-b3f3-610af0a44086 .guide.line{fill:none}#chart-061e10b3-b625-4bd9-b3f3-610af0a44086 .centered{text-anchor:middle}#chart-061e10b3-b625-4bd9-b3f3-610af0a44086 .title{text-anchor:middle}#chart-061e10b3-b625-4bd9-b3f3-610af0a44086 .legends .legend text{fill-opacity:1}#chart-061e10b3-b625-4bd9-b3f3-610af0a44086 .axis.x text{text-anchor:middle}#chart-061e10b3-b625-4bd9-b3f3-610af0a44086 .axis.x:not(.web) text[transform]{text-anchor:start}#chart-061e10b3-b625-4bd9-b3f3-610af0a44086 .axis.x:not(.web) text[transform].backwards{text-anchor:end}#chart-061e10b3-b625-4bd9-b3f3-610af0a44086 .axis.y text{text-anchor:end}#chart-061e10b3-b625-4bd9-b3f3-610af0a44086 .axis.y text[transform].backwards{text-anchor:start}#chart-061e10b3-b625-4bd9-b3f3-610af0a44086 .axis.y2 text{text-anchor:start}#chart-061e10b3-b625-4bd9-b3f3-610af0a44086 .axis.y2 text[transform].backwards{text-anchor:end}#chart-061e10b3-b625-4bd9-b3f3-610af0a44086 .axis .guide.line{stroke-dasharray:4,4;stroke:black}#chart-061e10b3-b625-4bd9-b3f3-610af0a44086 .axis .major.guide.line{stroke-dasharray:6,6;stroke:black}#chart-061e10b3-b625-4bd9-b3f3-610af0a44086 .horizontal .axis.y .guide.line,#chart-061e10b3-b625-4bd9-b3f3-610af0a44086 .horizontal .axis.y2 .guide.line,#chart-061e10b3-b625-4bd9-b3f3-610af0a44086 .vertical .axis.x .guide.line{opacity:0}#chart-061e10b3-b625-4bd9-b3f3-610af0a44086 .horizontal .axis.always_show .guide.line,#chart-061e10b3-b625-4bd9-b3f3-610af0a44086 .vertical .axis.always_show .guide.line{opacity:1 !important}#chart-061e10b3-b625-4bd9-b3f3-610af0a44086 .axis.y .guides:hover .guide.line,#chart-061e10b3-b625-4bd9-b3f3-610af0a44086 .axis.y2 .guides:hover .guide.line,#chart-061e10b3-b625-4bd9-b3f3-610af0a44086 .axis.x .guides:hover .guide.line{opacity:1}#chart-061e10b3-b625-4bd9-b3f3-610af0a44086 .axis .guides:hover text{opacity:1}#chart-061e10b3-b625-4bd9-b3f3-610af0a44086 .nofill{fill:none}#chart-061e10b3-b625-4bd9-b3f3-610af0a44086 .subtle-fill{fill-opacity:.2}#chart-061e10b3-b625-4bd9-b3f3-610af0a44086 .dot{stroke-width:1px;fill-opacity:1;stroke-opacity:1}#chart-061e10b3-b625-4bd9-b3f3-610af0a44086 .dot.active{stroke-width:5px}#chart-061e10b3-b625-4bd9-b3f3-610af0a44086 .dot.negative{fill:transparent}#chart-061e10b3-b625-4bd9-b3f3-610af0a44086 text,#chart-061e10b3-b625-4bd9-b3f3-610af0a44086 tspan{stroke:none !important}#chart-061e10b3-b625-4bd9-b3f3-610af0a44086 .series text.active{opacity:1}#chart-061e10b3-b625-4bd9-b3f3-610af0a44086 .tooltip rect{fill-opacity:.95;stroke-width:.5}#chart-061e10b3-b625-4bd9-b3f3-610af0a44086 .tooltip text{fill-opacity:1}#chart-061e10b3-b625-4bd9-b3f3-610af0a44086 .showable{visibility:hidden}#chart-061e10b3-b625-4bd9-b3f3-610af0a44086 .showable.shown{visibility:visible}#chart-061e10b3-b625-4bd9-b3f3-610af0a44086 .gauge-background{fill:rgba(229,229,229,1);stroke:none}#chart-061e10b3-b625-4bd9-b3f3-610af0a44086 .bg-lines{stroke:rgba(249,249,249,1);stroke-width:2px}</style><script type="text/javascript">window.pygal = window.pygal || {};window.pygal.config = window.pygal.config || {};window.pygal.config['061e10b3-b625-4bd9-b3f3-610af0a44086'] = {"allow_interruptions": false, "box_mode": "extremes", "classes": ["pygal-chart", "pygal-sparkline"], "css": ["file://style.css", "file://graph.css"], "defs": [], "disable_xml_declaration": false, "dots_size": 2.5, "dynamic_print_values": false, "explicit_size": true, "fill": false, "force_uri_protocol": "https", "formatter": null, "half_pie": false, "height": 50, "include_x_axis": false, "inner_radius": 0, "interpolate": "cubic", "interpolation_parameters": {}, "interpolation_precision": 250, "inverse_y_axis": false, "js": [], "legend_at_bottom": false, "legend_at_bottom_columns": null, "legend_box_size": 12, "logarithmic": false, "margin": 10, "margin_bottom": null, "margin_left": null, "margin_right": null, "margin_top": null, "max_scale": 2, "min_scale": 1, "missing_value_fill_truncation": "x", "no_data_text": "", "no_prefix": false, "order_min": null, "pretty_print": false, "print_labels": false, "print_values": false, "print_values_position": "center", "print_zeroes": true, "range": null, "rounded_bars": null, "secondary_range": null, "show_dots": false, "show_legend": false, "show_minor_x_labels": true, "show_minor_y_labels": true, "show_only_major_dots": false, "show_x_guides": false, "show_x_labels": false, "show_y_guides": true, "show_y_labels": true, "spacing": 0, "stack_from_top": false, "strict": false, "stroke": true, "stroke_style": null, "style": {"background": "rgba(249, 249, 249, 1)", "ci_colors": [], "colors": ["#F44336", "#3F51B5", "#009688", "#FFC107", "#FF5722", "#9C27B0", "#03A9F4", "#8BC34A", "#FF9800", "#E91E63", "#2196F3", "#4CAF50", "#FFEB3B", "#673AB7", "#00BCD4", "#CDDC39", "#9E9E9E", "#607D8B"], "dot_opacity": "1", "font_family": "Consolas, \"Liberation Mono\", Menlo, Courier, monospace", "foreground": "rgba(0, 0, 0, .87)", "foreground_strong": "rgba(0, 0, 0, 1)", "foreground_subtle": "rgba(0, 0, 0, .54)", "guide_stroke_color": "black", "guide_stroke_dasharray": "4,4", "label_font_family": "Consolas, \"Liberation Mono\", Menlo, Courier, monospace", "label_font_size": 10, "legend_font_family": "Consolas, \"Liberation Mono\", Menlo, Courier, monospace", "legend_font_size": 14, "major_guide_stroke_color": "black", "major_guide_stroke_dasharray": "6,6", "major_label_font_family": "Consolas, \"Liberation Mono\", Menlo, Courier, monospace", "major_label_font_size": 10, "no_data_font_family": "Consolas, \"Liberation Mono\", Menlo, Courier, monospace", "no_data_font_size": 64, "opacity": ".7", "opacity_hover": ".8", "plot_background": "rgba(255, 255, 255, 1)", "stroke_opacity": ".8", "stroke_opacity_hover": ".9", "stroke_width": "1", "stroke_width_hover": "4", "title_font_family": "Consolas, \"Liberation Mono\", Menlo, Courier, monospace", "title_font_size": 16, "tooltip_font_family": "Consolas, \"Liberation Mono\", Menlo, Courier, monospace", "tooltip_font_size": 14, "transition": "150ms", "value_background": "rgba(229, 229, 229, 1)", "value_colors": [], "value_font_family": "Consolas, \"Liberation Mono\", Menlo, Courier, monospace", "value_font_size": 16, "value_label_font_family": "Consolas, \"Liberation Mono\", Menlo, Courier, monospace", "value_label_font_size": 10}, "title": null, "tooltip_border_radius": 0, "tooltip_fancy_mode": true, "truncate_label": null, "truncate_legend": null, "width": 200, "x_label_rotation": 0, "x_labels": ["2023/5", "2023/4", "2023/2", "2023/1"], "x_labels_major": null, "x_labels_major_count": null, "x_labels_major_every": null, "x_title": null, "xrange": null, "y_label_rotation": 0, "y_labels": null, "y_labels_major": null, "y_labels_major_count": null, "y_labels_major_every": null, "y_title": null, "zero": 0, "legends": [""]}</script></defs><title>Pygal</title><g class="graph line-graph vertical"><rect x="0" y="0" width="200" height="50" class="background" /><g transform="translate(22, 10)" class="plot"><rect x="0" y="0" width="168.0" height="30" class="background" /><g class="axis y always_show"><path d="M0.000000 30.000000 h168.000000" class="line" /><g class="guides"><path d="M0.000000 16.110946 h168.000000" class="guide line" /><text x="-5" y="19.610946103425448" class="">8</text><title>8</title></g><g class="guides"><path d="M0.000000 0.576923 h168.000000" class="guide line" /><text x="-5" y="4.076923076923073" class="">16</text><title>16</title></g></g><g class="series serie-0 color-0"><path d="M3.230769 23.877958 L3.446154 23.877958 3.661538 23.877959 3.876923 23.877961 4.092308 23.877966 4.307692 23.877973 4.523077 23.877984 4.738462 23.878000 4.953846 23.878021 5.169231 23.878048 5.384615 23.878082 5.600000 23.878123 5.815385 23.878172 6.030769 23.878231 6.246154 23.878299 6.461538 23.878377 6.676923 23.878467 6.892308 23.878568 7.107692 23.878682 7.323077 23.878810 7.538462 23.878952 7.753846 23.879109 7.969231 23.879281 8.184615 23.879470 8.400000 23.879676 8.615385 23.879899 8.830769 23.880142 9.046154 23.880404 9.261538 23.880686 9.476923 23.880988 9.692308 23.881313 9.907692 23.881660 10.123077 23.882030 10.338462 23.882424 10.553846 23.882842 10.769231 23.883286 10.984615 23.883756 11.200000 23.884252 11.415385 23.884777 11.630769 23.885329 11.846154 23.885911 12.061538 23.886523 12.276923 23.887165 12.492308 23.887838 12.707692 23.888544 12.923077 23.889282 13.138462 23.890054 13.353846 23.890860 13.569231 23.891701 13.784615 23.892578 14.000000 23.893492 14.215385 23.894442 14.430769 23.895431 14.646154 23.896459 14.861538 23.897526 15.076923 23.898633 15.292308 23.899782 15.507692 23.900972 15.723077 23.902205 15.938462 23.903481 16.153846 23.904800 16.369231 23.906165 16.584615 23.907575 16.800000 23.909032 17.015385 23.910535 17.230769 23.912086 17.446154 23.913685 17.661538 23.915334 17.876923 23.917033 18.092308 23.918782 18.307692 23.920583 18.523077 23.922436 18.738462 23.924342 18.953846 23.926302 19.169231 23.928316 19.384615 23.930385 19.600000 23.932510 19.815385 23.934692 20.030769 23.936931 20.246154 23.939229 20.461538 23.941585 20.676923 23.944001 20.892308 23.946477 21.107692 23.949015 21.323077 23.951614 21.538462 23.954276 21.753846 23.957002 21.969231 23.959791 22.184615 23.962646 22.400000 23.965566 22.615385 23.968552 22.830769 23.971606 23.046154 23.974727 23.261538 23.977917 23.476923 23.981176 23.692308 23.984505 23.907692 23.987906 24.123077 23.991377 24.338462 23.994922 24.553846 23.998539 24.769231 24.002230 24.984615 24.005995 25.200000 24.009836 25.415385 24.013753 25.630769 24.017747 25.846154 24.021818 26.061538 24.025968 26.276923 24.030196 26.492308 24.034505 26.707692 24.038894 26.923077 24.043364 27.138462 24.047916 27.353846 24.052551 27.569231 24.057270 27.784615 24.062072 28.000000 24.066960 28.215385 24.071934 28.430769 24.076994 28.646154 24.082141 28.861538 24.087376 29.076923 24.092700 29.292308 24.098113 29.507692 24.103617 29.723077 24.109212 29.938462 24.114898 30.153846 24.120677 30.369231 24.126549 30.584615 24.132515 30.800000 24.138575 31.015385 24.144731 31.230769 24.150984 31.446154 24.157333 31.661538 24.163780 31.876923 24.170325 32.092308 24.176969 32.307692 24.183714 32.523077 24.190559 32.738462 24.197505 32.953846 24.204554 33.169231 24.211705 33.384615 24.218960 33.600000 24.226320 33.815385 24.233785 34.030769 24.241355 34.246154 24.249032 34.461538 24.256817 34.676923 24.264710 34.892308 24.272711 35.107692 24.280822 35.323077 24.289044 35.538462 24.297376 35.753846 24.305821 35.969231 24.314378 36.184615 24.323048 36.400000 24.331832 36.615385 24.340732 36.830769 24.349747 37.046154 24.358878 37.261538 24.368126 37.476923 24.377492 37.692308 24.386976 37.907692 24.396580 38.123077 24.406304 38.338462 24.416149 38.553846 24.426115 38.769231 24.436204 38.984615 24.446415 39.200000 24.456751 39.415385 24.467211 39.630769 24.477796 39.846154 24.488507 40.061538 24.499345 40.276923 24.510310 40.492308 24.521404 40.707692 24.532626 40.923077 24.543979 41.138462 24.555462 41.353846 24.567076 41.569231 24.578822 41.784615 24.590701 42.000000 24.602713 42.215385 24.614859 42.430769 24.627141 42.646154 24.639558 42.861538 24.652112 43.076923 24.664802 43.292308 24.677631 43.507692 24.690599 43.723077 24.703706 43.938462 24.716953 44.153846 24.730341 44.369231 24.743870 44.584615 24.757542 44.800000 24.771357 45.015385 24.785317 45.230769 24.799420 45.446154 24.813670 45.661538 24.828065 45.876923 24.842607 46.092308 24.857297 46.307692 24.872135 46.523077 24.887122 46.738462 24.902260 46.953846 24.917548 47.169231 24.932987 47.384615 24.948578 47.600000 24.964322 47.815385 24.980220 48.030769 24.996272 48.246154 25.012479 48.461538 25.028842 48.676923 25.045362 48.892308 25.062039 49.107692 25.078874 49.323077 25.095868 49.538462 25.113021 49.753846 25.130335 49.969231 25.147810 50.184615 25.165446 50.400000 25.183245 50.615385 25.201208 50.830769 25.219334 51.046154 25.237626 51.261538 25.256082 51.476923 25.274705 51.692308 25.293495 51.907692 25.312453 52.123077 25.331580 52.338462 25.350875 52.553846 25.370341 52.769231 25.389977 52.984615 25.409785 53.200000 25.429765 53.415385 25.449918 53.630769 25.470245 53.846154 25.490746 54.061538 25.511423 54.276923 25.532276 54.492308 25.553305 54.707692 25.574511 54.923077 25.595896 55.138462 25.617460 55.353846 25.639204 55.569231 25.661128 55.784615 25.683233 56.000000 25.705520 56.215385 25.727990 56.430769 25.750643 56.646154 25.773480 56.861538 25.796503 57.076923 25.819710 57.292308 25.843104 57.507692 25.866680 57.723077 25.890436 57.938462 25.914366 58.153846 25.938468 58.369231 25.962738 58.584615 25.987172 58.800000 26.011766 59.015385 26.036516 59.230769 26.061420 59.446154 26.086473 59.661538 26.111671 59.876923 26.137010 60.092308 26.162488 60.307692 26.188100 60.523077 26.213842 60.738462 26.239711 60.953846 26.265703 61.169231 26.291815 61.384615 26.318042 61.600000 26.344381 61.815385 26.370828 62.030769 26.397379 62.246154 26.424031 62.461538 26.450780 62.676923 26.477622 62.892308 26.504554 63.107692 26.531571 63.323077 26.558671 63.538462 26.585849 63.753846 26.613101 63.969231 26.640424 64.184615 26.667814 64.400000 26.695268 64.615385 26.722781 64.830769 26.750350 65.046154 26.777971 65.261538 26.805641 65.476923 26.833356 65.692308 26.861111 65.907692 26.888904 66.123077 26.916731 66.338462 26.944587 66.553846 26.972469 66.769231 27.000374 66.984615 27.028297 67.200000 27.056236 67.415385 27.084185 67.630769 27.112142 67.846154 27.140102 68.061538 27.168063 68.276923 27.196020 68.492308 27.223969 68.707692 27.251908 68.923077 27.279831 69.138462 27.307736 69.353846 27.335618 69.569231 27.363474 69.784615 27.391301 70.000000 27.419094 70.215385 27.446849 70.430769 27.474564 70.646154 27.502233 70.861538 27.529855 71.076923 27.557424 71.292308 27.584937 71.507692 27.612391 71.723077 27.639781 71.938462 27.667104 72.153846 27.694356 72.369231 27.721534 72.584615 27.748634 72.800000 27.775651 73.015385 27.802583 73.230769 27.829425 73.446154 27.856174 73.661538 27.882826 73.876923 27.909377 74.092308 27.935824 74.307692 27.962163 74.523077 27.988390 74.738462 28.014501 74.953846 28.040494 75.169231 28.066363 75.384615 28.092105 75.600000 28.117717 75.815385 28.143195 76.030769 28.168534 76.246154 28.193732 76.461538 28.218785 76.676923 28.243689 76.892308 28.268439 77.107692 28.293033 77.323077 28.317467 77.538462 28.341737 77.753846 28.365839 77.969231 28.389769 78.184615 28.413524 78.400000 28.437101 78.615385 28.460494 78.830769 28.483702 79.046154 28.506719 79.261538 28.529542 79.476923 28.552168 79.692308 28.574592 79.907692 28.596811 80.123077 28.618822 80.338462 28.640619 80.553846 28.662201 80.769231 28.683563 80.984615 28.704701 81.200000 28.725612 81.415385 28.746291 81.630769 28.766736 81.846154 28.786942 82.061538 28.806906 82.276923 28.826623 82.492308 28.846091 82.707692 28.865305 82.923077 28.884263 83.138462 28.902959 83.353846 28.921390 83.569231 28.939553 83.784615 28.957444 84.000000 28.975059 84.215385 28.992394 84.430769 29.009446 84.646154 29.026211 84.861538 29.042685 85.076923 29.058865 85.292308 29.074746 85.507692 29.090326 85.723077 29.105599 85.938462 29.120564 86.153846 29.135215 86.369231 29.149549 86.584615 29.163562 86.800000 29.177252 87.015385 29.190613 87.230769 29.203642 87.446154 29.216336 87.661538 29.228690 87.876923 29.240702 88.092308 29.252367 88.307692 29.263681 88.523077 29.274641 88.738462 29.285244 88.953846 29.295484 89.169231 29.305359 89.384615 29.314866 89.600000 29.323999 89.815385 29.332756 90.030769 29.341132 90.246154 29.349125 90.461538 29.356730 90.676923 29.363943 90.892308 29.370761 91.107692 29.377181 91.323077 29.383197 91.538462 29.388808 91.753846 29.394008 91.969231 29.398794 92.184615 29.403163 92.400000 29.407110 92.615385 29.410633 92.830769 29.413727 93.046154 29.416388 93.261538 29.418613 93.476923 29.420398 93.692308 29.421740 93.907692 29.422634 94.123077 29.423077 94.338462 29.423065 94.553846 29.422595 94.769231 29.421662 94.984615 29.420263 95.200000 29.418395 95.415385 29.416053 95.630769 29.413234 95.846154 29.409934 96.061538 29.406149 96.276923 29.401876 96.492308 29.397111 96.707692 29.391850 96.923077 29.386089 97.138462 29.379825 97.353846 29.373054 97.569231 29.365773 97.784615 29.357976 98.000000 29.349662 98.215385 29.340826 98.430769 29.331463 98.646154 29.321572 98.861538 29.311147 99.076923 29.300186 99.292308 29.288684 99.507692 29.276638 99.723077 29.264043 99.938462 29.250897 100.153846 29.237196 100.369231 29.222935 100.584615 29.208111 100.800000 29.192720 101.015385 29.176760 101.230769 29.160224 101.446154 29.143112 101.661538 29.125417 101.876923 29.107137 102.092308 29.088268 102.307692 29.068807 102.523077 29.048749 102.738462 29.028090 102.953846 29.006828 103.169231 28.984958 103.384615 28.962476 103.600000 28.939380 103.815385 28.915664 104.030769 28.891326 104.246154 28.866362 104.461538 28.840767 104.676923 28.814539 104.892308 28.787673 105.107692 28.760166 105.323077 28.732014 105.538462 28.703214 105.753846 28.673760 105.969231 28.643651 106.184615 28.612882 106.400000 28.581449 106.615385 28.549349 106.830769 28.516578 107.046154 28.483132 107.261538 28.449007 107.476923 28.414201 107.692308 28.378708 107.907692 28.342525 108.123077 28.305649 108.338462 28.268076 108.553846 28.229802 108.769231 28.190824 108.984615 28.151137 109.200000 28.110738 109.415385 28.069623 109.630769 28.027789 109.846154 27.985231 110.061538 27.941946 110.276923 27.897931 110.492308 27.853181 110.707692 27.807693 110.923077 27.761463 111.138462 27.714489 111.353846 27.666772 111.569231 27.618315 111.784615 27.569122 112.000000 27.519195 112.215385 27.468537 112.430769 27.417151 112.646154 27.365041 112.861538 27.312209 113.076923 27.258658 113.292308 27.204391 113.507692 27.149412 113.723077 27.093723 113.938462 27.037326 114.153846 26.980226 114.369231 26.922425 114.584615 26.863926 114.800000 26.804733 115.015385 26.744847 115.230769 26.684272 115.446154 26.623011 115.661538 26.561068 115.876923 26.498444 116.092308 26.435143 116.307692 26.371168 116.523077 26.306522 116.738462 26.241208 116.953846 26.175229 117.169231 26.108588 117.384615 26.041288 117.600000 25.973331 117.815385 25.904722 118.030769 25.835462 118.246154 25.765555 118.461538 25.695003 118.676923 25.623811 118.892308 25.551980 119.107692 25.479514 119.323077 25.406416 119.538462 25.332688 119.753846 25.258334 119.969231 25.183356 120.184615 25.107759 120.400000 25.031543 120.615385 24.954714 120.830769 24.877273 121.046154 24.799224 121.261538 24.720569 121.476923 24.641311 121.692308 24.561455 121.907692 24.481001 122.123077 24.399954 122.338462 24.318317 122.553846 24.236092 122.769231 24.153283 122.984615 24.069892 123.200000 23.985922 123.415385 23.901376 123.630769 23.816258 123.846154 23.730571 124.061538 23.644316 124.276923 23.557498 124.492308 23.470120 124.707692 23.382183 124.923077 23.293692 125.138462 23.204649 125.353846 23.115057 125.569231 23.024920 125.784615 22.934239 126.000000 22.843019 126.215385 22.751262 126.430769 22.658971 126.646154 22.566149 126.861538 22.472799 127.076923 22.378924 127.292308 22.284528 127.507692 22.189612 127.723077 22.094181 127.938462 21.998236 128.153846 21.901781 128.369231 21.804820 128.584615 21.707354 128.800000 21.609387 129.015385 21.510922 129.230769 21.411963 129.446154 21.312510 129.661538 21.212569 129.876923 21.112142 130.092308 21.011231 130.307692 20.909841 130.523077 20.807973 130.738462 20.705631 130.953846 20.602817 131.169231 20.499536 131.384615 20.395789 131.600000 20.291580 131.815385 20.186911 132.030769 20.081786 132.246154 19.976208 132.461538 19.870180 132.676923 19.763704 132.892308 19.656783 133.107692 19.549422 133.323077 19.441622 133.538462 19.333386 133.753846 19.224718 133.969231 19.115620 134.184615 19.006096 134.400000 18.896149 134.615385 18.785781 134.830769 18.674995 135.046154 18.563795 135.261538 18.452183 135.476923 18.340162 135.692308 18.227736 135.907692 18.114908 136.123077 18.001679 136.338462 17.888054 136.553846 17.774036 136.769231 17.659626 136.984615 17.544829 137.200000 17.429647 137.415385 17.314083 137.630769 17.198141 137.846154 17.081823 138.061538 16.965131 138.276923 16.848071 138.492308 16.730643 138.707692 16.612851 138.923077 16.494699 139.138462 16.376188 139.353846 16.257323 139.569231 16.138106 139.784615 16.018539 140.000000 15.898627 140.215385 15.778372 140.430769 15.657777 140.646154 15.536844 140.861538 15.415578 141.076923 15.293981 141.292308 15.172055 141.507692 15.049805 141.723077 14.927232 141.938462 14.804340 142.153846 14.681132 142.369231 14.557611 142.584615 14.433780 142.800000 14.309642 143.015385 14.185199 143.230769 14.060455 143.446154 13.935413 143.661538 13.810075 143.876923 13.684446 144.092308 13.558527 144.307692 13.432321 144.523077 13.305833 144.738462 13.179064 144.953846 13.052017 145.169231 12.924696 145.384615 12.797104 145.600000 12.669243 145.815385 12.541117 146.030769 12.412729 146.246154 12.284081 146.461538 12.155176 146.676923 12.026018 146.892308 11.896609 147.107692 11.766953 147.323077 11.637053 147.538462 11.506910 147.753846 11.376529 147.969231 11.245913 148.184615 11.115064 148.400000 10.983985 148.615385 10.852679 148.830769 10.721150 149.046154 10.589400 149.261538 10.457433 149.476923 10.325250 149.692308 10.192856 149.907692 10.060253 150.123077 9.927445 150.338462 9.794433 150.553846 9.661222 150.769231 9.527814 150.984615 9.394212 151.200000 9.260419 151.415385 9.126438 151.630769 8.992272 151.846154 8.857924 152.061538 8.723398 152.276923 8.588695 152.492308 8.453820 152.707692 8.318774 152.923077 8.183561 153.138462 8.048185 153.353846 7.912647 153.569231 7.776951 153.784615 7.641100 154.000000 7.505097 154.215385 7.368945 154.430769 7.232647 154.646154 7.096206 154.861538 6.959624 155.076923 6.822905 155.292308 6.686052 155.507692 6.549068 155.723077 6.411955 155.938462 6.274718 156.153846 6.137358 156.369231 5.999878 156.584615 5.862283 156.800000 5.724574 157.015385 5.586754 157.230769 5.448828 157.446154 5.310797 157.661538 5.172664 157.876923 5.034433 158.092308 4.896107 158.307692 4.757688 158.523077 4.619180 158.738462 4.480585 158.953846 4.341906 159.169231 4.203148 159.384615 4.064311 159.600000 3.925400 159.815385 3.786418 160.030769 3.647367 160.246154 3.508250 160.461538 3.369071 160.676923 3.229831 160.892308 3.090536 161.107692 2.951186 161.323077 2.811786 161.538462 2.672339 161.753846 2.532846 161.969231 2.393312 162.184615 2.253739 162.400000 2.114130 162.615385 1.974488 162.830769 1.834817 163.046154 1.695118 163.261538 1.555396 163.476923 1.415653 163.692308 1.275892 163.907692 1.136116 164.123077 0.996328 164.338462 0.856532 164.553846 0.716729 164.769231 0.576923" class="line reactive nofill" /></g></g><g class="titles" /><g transform="translate(22, 10)" class="plot overlay"><g class="series serie-0 color-0" /></g><g transform="translate(22, 10)" class="plot text-overlay"><g class="series serie-0 color-0" /></g><g transform="translate(22, 10)" class="plot tooltip-overlay"><g transform="translate(0 0)" style="opacity: 0" class="tooltip"><rect rx="0" ry="0" width="0" height="0" class="tooltip-box" /><g class="text" /></g></g></g></svg>