<?xml version='1.0' encoding='utf-8'?>
<svg xmlns="http://www.w3.org/2000/svg" id="chart-7061fdd2-75a4-4cf6-a643-602a3cac96bc" class="pygal-chart pygal-sparkline" viewBox="0 0 200 50" width="200" height="50"><!--Generated with pygal 3.0.4 (etree) ©Kozea 2012-2016 on 2024-04-04--><!--http://pygal.org--><!--http://github.com/Kozea/pygal--><defs><style type="text/css">#chart-7061fdd2-75a4-4cf6-a643-602a3cac96bc{-webkit-user-select:none;-webkit-font-smoothing:antialiased;font-family:Consolas,"Liberation Mono",Menlo,Courier,monospace}#chart-7061fdd2-75a4-4cf6-a643-602a3cac96bc .title{font-family:Consolas,"Liberation Mono",Menlo,Courier,monospace;font-size:16px}#chart-7061fdd2-75a4-4cf6-a643-602a3cac96bc .legends .legend text{font-family:Consolas,"Liberation Mono",Menlo,Courier,monospace;font-size:14px}#chart-7061fdd2-75a4-4cf6-a643-602a3cac96bc .axis text{font-family:Consolas,"Liberation Mono",Menlo,Courier,monospace;font-size:10px}#chart-7061fdd2-75a4-4cf6-a643-602a3cac96bc .axis text.major{font-family:Consolas,"Liberation Mono",Menlo,Courier,monospace;font-size:10px}#chart-7061fdd2-75a4-4cf6-a643-602a3cac96bc .text-overlay text.value{font-family:Consolas,"Liberation Mono",Menlo,Courier,monospace;font-size:16px}#chart-7061fdd2-75a4-4cf6-a643-602a3cac96bc .text-overlay text.label{font-family:Consolas,"Liberation Mono",Menlo,Courier,monospace;font-size:10px}#chart-7061fdd2-75a4-4cf6-a643-602a3cac96bc .tooltip{font-family:Consolas,"Liberation Mono",Menlo,Courier,monospace;font-size:14px}#chart-7061fdd2-75a4-4cf6-a643-602a3cac96bc text.no_data{font-family:Consolas,"Liberation Mono",Menlo,Courier,monospace;font-size:64px}
#chart-7061fdd2-75a4-4cf6-a643-602a3cac96bc{background-color:rgba(249,249,249,1)}#chart-7061fdd2-75a4-4cf6-a643-602a3cac96bc path,#chart-7061fdd2-75a4-4cf6-a643-602a3cac96bc line,#chart-7061fdd2-75a4-4cf6-a643-602a3cac96bc rect,#chart-7061fdd2-75a4-4cf6-a643-602a3cac96bc circle{-webkit-transition:150ms;-moz-transition:150ms;transition:150ms}#chart-7061fdd2-75a4-4cf6-a643-602a3cac96bc .graph &gt; .background{fill:rgba(249,249,249,1)}#chart-7061fdd2-75a4-4cf6-a643-602a3cac96bc .plot &gt; .background{fill:rgba(255,255,255,1)}#chart-7061fdd2-75a4-4cf6-a643-602a3cac96bc .graph{fill:rgba(0,0,0,.87)}#chart-7061fdd2-75a4-4cf6-a643-602a3cac96bc text.no_data{fill:rgba(0,0,0,1)}#chart-7061fdd2-75a4-4cf6-a643-602a3cac96bc .title{fill:rgba(0,0,0,1)}#chart-7061fdd2-75a4-4cf6-a643-602a3cac96bc .legends .legend text{fill:rgba(0,0,0,.87)}#chart-7061fdd2-75a4-4cf6-a643-602a3cac96bc .legends .legend:hover text{fill:rgba(0,0,0,1)}#chart-7061fdd2-75a4-4cf6-a643-602a3cac96bc .axis .line{stroke:rgba(0,0,0,1)}#chart-7061fdd2-75a4-4cf6-a643-602a3cac96bc .axis .guide.line{stroke:rgba(0,0,0,.54)}#chart-7061fdd2-75a4-4cf6-a643-602a3cac96bc .axis .major.line{stroke:rgba(0,0,0,.87)}#chart-7061fdd2-75a4-4cf6-a643-602a3cac96bc .axis text.major{fill:rgba(0,0,0,1)}#chart-7061fdd2-75a4-4cf6-a643-602a3cac96bc .axis.y .guides:hover .guide.line,#chart-7061fdd2-75a4-4cf6-a643-602a3cac96bc .line-graph .axis.x .guides:hover .guide.line,#chart-7061fdd2-75a4-4cf6-a643-602a3cac96bc .stackedline-graph .axis.x .guides:hover .guide.line,#chart-7061fdd2-75a4-4cf6-a643-602a3cac96bc .xy-graph .axis.x .guides:hover .guide.line{stroke:rgba(0,0,0,1)}#chart-7061fdd2-75a4-4cf6-a643-602a3cac96bc .axis .guides:hover text{fill:rgba(0,0,0,1)}#chart-7061fdd2-75a4-4cf6-a643-602a3cac96bc .reactive{fill-opacity:.7;stroke-opacity:.8;stroke-width:1}#chart-7061fdd2-75a4-4cf6-a643-602a3cac96bc .ci{stroke:rgba(0,0,0,.87)}#chart-7061fdd2-75a4-4cf6-a643-602a3cac96bc .reactive.active,#chart-7061fdd2-75a4-4cf6-a643-602a3cac96bc .active .reactive{fill-opacity:.8;stroke-opacity:.9;stroke-width:4}#chart-7061fdd2-75a4-4cf6-a643-602a3cac96bc .ci .reactive.active{stroke-width:1.5}#chart-7061fdd2-75a4-4cf6-a643-602a3cac96bc .series text{fill:rgba(0,0,0,1)}#chart-7061fdd2-75a4-4cf6-a643-602a3cac96bc .tooltip rect{fill:rgba(255,255,255,1);stroke:rgba(0,0,0,1);-webkit-transition:opacity 150ms;-moz-transition:opacity 150ms;transition:opacity 150ms}#chart-7061fdd2-75a4-4cf6-a643-602a3cac96bc .tooltip .label{fill:rgba(0,0,0,.87)}#chart-7061fdd2-75a4-4cf6-a643-602a3cac96bc .tooltip .label{fill:rgba(0,0,0,.87)}#chart-7061fdd2-75a4-4cf6-a643-602a3cac96bc .tooltip .legend{font-size:.8em;fill:rgba(0,0,0,.54)}#chart-7061fdd2-75a4-4cf6-a643-602a3cac96bc .tooltip .x_label{font-size:.6em;fill:rgba(0,0,0,1)}#chart-7061fdd2-75a4-4cf6-a643-602a3cac96bc .tooltip .xlink{font-size:.5em;text-decoration:underline}#chart-7061fdd2-75a4-4cf6-a643-602a3cac96bc .tooltip .value{font-size:1.5em}#chart-7061fdd2-75a4-4cf6-a643-602a3cac96bc .bound{font-size:.5em}#chart-7061fdd2-75a4-4cf6-a643-602a3cac96bc .max-value{font-size:.75em;fill:rgba(0,0,0,.54)}#chart-7061fdd2-75a4-4cf6-a643-602a3cac96bc .map-element{fill:rgba(255,255,255,1);stroke:rgba(0,0,0,.54) !important}#chart-7061fdd2-75a4-4cf6-a643-602a3cac96bc .map-element .reactive{fill-opacity:inherit;stroke-opacity:inherit}#chart-7061fdd2-75a4-4cf6-a643-602a3cac96bc .color-0,#chart-7061fdd2-75a4-4cf6-a643-602a3cac96bc .color-0 a:visited{stroke:#F44336;fill:#F44336}#chart-7061fdd2-75a4-4cf6-a643-602a3cac96bc .text-overlay .color-0 text{fill:black}
#chart-7061fdd2-75a4-4cf6-a643-602a3cac96bc text.no_data{text-anchor:middle}#chart-7061fdd2-75a4-4cf6-a643-602a3cac96bc .guide.line{fill:none}#chart-7061fdd2-75a4-4cf6-a643-602a3cac96bc .centered{text-anchor:middle}#chart-7061fdd2-75a4-4cf6-a643-602a3cac96bc .title{text-anchor:middle}#chart-7061fdd2-75a4-4cf6-a643-602a3cac96bc .legends .legend text{fill-opacity:1}#chart-7061fdd2-75a4-4cf6-a643-602a3cac96bc .axis.x text{text-anchor:middle}#chart-7061fdd2-75a4-4cf6-a643-602a3cac96bc .axis.x:not(.web) text[transform]{text-anchor:start}#chart-7061fdd2-75a4-4cf6-a643-602a3cac96bc .axis.x:not(.web) text[transform].backwards{text-anchor:end}#chart-7061fdd2-75a4-4cf6-a643-602a3cac96bc .axis.y text{text-anchor:end}#chart-7061fdd2-75a4-4cf6-a643-602a3cac96bc .axis.y text[transform].backwards{text-anchor:start}#chart-7061fdd2-75a4-4cf6-a643-602a3cac96bc .axis.y2 text{text-anchor:start}#chart-7061fdd2-75a4-4cf6-a643-602a3cac96bc .axis.y2 text[transform].backwards{text-anchor:end}#chart-7061fdd2-75a4-4cf6-a643-602a3cac96bc .axis .guide.line{stroke-dasharray:4,4;stroke:black}#chart-7061fdd2-75a4-4cf6-a643-602a3cac96bc .axis .major.guide.line{stroke-dasharray:6,6;stroke:black}#chart-7061fdd2-75a4-4cf6-a643-602a3cac96bc .horizontal .axis.y .guide.line,#chart-7061fdd2-75a4-4cf6-a643-602a3cac96bc .horizontal .axis.y2 .guide.line,#chart-7061fdd2-75a4-4cf6-a643-602a3cac96bc .vertical .axis.x .guide.line{opacity:0}#chart-7061fdd2-75a4-4cf6-a643-602a3cac96bc .horizontal .axis.always_show .guide.line,#chart-7061fdd2-75a4-4cf6-a643-602a3cac96bc .vertical .axis.always_show .guide.line{opacity:1 !important}#chart-7061fdd2-75a4-4cf6-a643-602a3cac96bc .axis.y .guides:hover .guide.line,#chart-7061fdd2-75a4-4cf6-a643-602a3cac96bc .axis.y2 .guides:hover .guide.line,#chart-7061fdd2-75a4-4cf6-a643-602a3cac96bc .axis.x .guides:hover .guide.line{opacity:1}#chart-7061fdd2-75a4-4cf6-a643-602a3cac96bc .axis .guides:hover text{opacity:1}#chart-7061fdd2-75a4-4cf6-a643-602a3cac96bc .nofill{fill:none}#chart-7061fdd2-75a4-4cf6-a643-602a3cac96bc .subtle-fill{fill-opacity:.2}#chart-7061fdd2-75a4-4cf6-a643-602a3cac96bc .dot{stroke-width:1px;fill-opacity:1;stroke-opacity:1}#chart-7061fdd2-75a4-4cf6-a643-602a3cac96bc .dot.active{stroke-width:5px}#chart-7061fdd2-75a4-4cf6-a643-602a3cac96bc .dot.negative{fill:transparent}#chart-7061fdd2-75a4-4cf6-a643-602a3cac96bc text,#chart-7061fdd2-75a4-4cf6-a643-602a3cac96bc tspan{stroke:none !important}#chart-7061fdd2-75a4-4cf6-a643-602a3cac96bc .series text.active{opacity:1}#chart-7061fdd2-75a4-4cf6-a643-602a3cac96bc .tooltip rect{fill-opacity:.95;stroke-width:.5}#chart-7061fdd2-75a4-4cf6-a643-602a3cac96bc .tooltip text{fill-opacity:1}#chart-7061fdd2-75a4-4cf6-a643-602a3cac96bc .showable{visibility:hidden}#chart-7061fdd2-75a4-4cf6-a643-602a3cac96bc .showable.shown{visibility:visible}#chart-7061fdd2-75a4-4cf6-a643-602a3cac96bc .gauge-background{fill:rgba(229,229,229,1);stroke:none}#chart-7061fdd2-75a4-4cf6-a643-602a3cac96bc .bg-lines{stroke:rgba(249,249,249,1);stroke-width:2px}</style><script type="text/javascript">window.pygal = window.pygal || {};window.pygal.config = window.pygal.config || {};window.pygal.config['7061fdd2-75a4-4cf6-a643-602a3cac96bc'] = {"allow_interruptions": false, "box_mode": "extremes", "classes": ["pygal-chart", "pygal-sparkline"], "css": ["file://style.css", "file://graph.css"], "defs": [], "disable_xml_declaration": false, "dots_size": 2.5, "dynamic_print_values": false, "explicit_size": true, "fill": false, "force_uri_protocol": "https", "formatter": null, "half_pie": false, "height": 50, "include_x_axis": false, "inner_radius": 0, "interpolate": "cubic", "interpolation_parameters": {}, "interpolation_precision": 250, "inverse_y_axis": false, "js": [], "legend_at_bottom": false, "legend_at_bottom_columns": null, "legend_box_size": 12, "logarithmic": false, "margin": 10, "margin_bottom": null, "margin_left": null, "margin_right": null, "margin_top": null, "max_scale": 2, "min_scale": 1, "missing_value_fill_truncation": "x", "no_data_text": "", "no_prefix": false, "order_min": null, "pretty_print": false, "print_labels": false, "print_values": false, "print_values_position": "center", "print_zeroes": true, "range": null, "rounded_bars": null, "secondary_range": null, "show_dots": false, "show_legend": false, "show_minor_x_labels": true, "show_minor_y_labels": true, "show_only_major_dots": false, "show_x_guides": false, "show_x_labels": true, "show_y_guides": true, "show_y_labels": true, "spacing": 0, "stack_from_top": false, "strict": false, "stroke": true, "stroke_style": null, "style": {"background": "rgba(249, 249, 249, 1)", "ci_colors": [], "colors": ["#F44336", "#3F51B5", "#009688", "#FFC107", "#FF5722", "#9C27B0", "#03A9F4", "#8BC34A", "#FF9800", "#E91E63", "#2196F3", "#4CAF50", "#FFEB3B", "#673AB7", "#00BCD4", "#CDDC39", "#9E9E9E", "#607D8B"], "dot_opacity": "1", "font_family": "Consolas, \"Liberation Mono\", Menlo, Courier, monospace", "foreground": "rgba(0, 0, 0, .87)", "foreground_strong": "rgba(0, 0, 0, 1)", "foreground_subtle": "rgba(0, 0, 0, .54)", "guide_stroke_color": "black", "guide_stroke_dasharray": "4,4", "label_font_family": "Consolas, \"Liberation Mono\", Menlo, Courier, monospace", "label_font_size": 10, "legend_font_family": "Consolas, \"Liberation Mono\", Menlo, Courier, monospace", "legend_font_size": 14, "major_guide_stroke_color": "black", "major_guide_stroke_dasharray": "6,6", "major_label_font_family": "Consolas, \"Liberation Mono\", Menlo, Courier, monospace", "major_label_font_size": 10, "no_data_font_family": "Consolas, \"Liberation Mono\", Menlo, Courier, monospace", "no_data_font_size": 64, "opacity": ".7", "opacity_hover": ".8", "plot_background": "rgba(255, 255, 255, 1)", "stroke_opacity": ".8", "stroke_opacity_hover": ".9", "stroke_width": "1", "stroke_width_hover": "4", "title_font_family": "Consolas, \"Liberation Mono\", Menlo, Courier, monospace", "title_font_size": 16, "tooltip_font_family": "Consolas, \"Liberation Mono\", Menlo, Courier, monospace", "tooltip_font_size": 14, "transition": "150ms", "value_background": "rgba(229, 229, 229, 1)", "value_colors": [], "value_font_family": "Consolas, \"Liberation Mono\", Menlo, Courier, monospace", "value_font_size": 16, "value_label_font_family": "Consolas, \"Liberation Mono\", Menlo, Courier, monospace", "value_label_font_size": 10}, "title": null, "tooltip_border_radius": 0, "tooltip_fancy_mode": true, "truncate_label": null, "truncate_legend": null, "width": 200, "x_label_rotation": 0, "x_labels": ["2024/4", "2024/3", "2024/2"], "x_labels_major": null, "x_labels_major_count": null, "x_labels_major_every": null, "x_title": null, "xrange": null, "y_label_rotation": 0, "y_labels": null, "y_labels_major": null, "y_labels_major_count": null, "y_labels_major_every": null, "y_title": null, "zero": 0, "legends": [""]}</script></defs><title>Pygal</title><g class="graph line-graph vertical"><rect x="0" y="0" width="200" height="50" class="background" /><g transform="translate(76, 10)" class="plot"><rect x="0" y="0" width="114.0" height="20" class="background" /><g class="axis y always_show"><path d="M0.000000 20.000000 h114.000000" class="line" /><g class="guides"><path d="M0.000000 19.615385 h114.000000" class="guide line" /><text x="-5" y="23.115384615384617" class="">1</text><title>1</title></g><g class="guides"><path d="M0.000000 0.384615 h114.000000" class="guide line" /><text x="-5" y="3.8846153846153832" class="">25.01671552</text><title>25.01671552</title></g></g><g class="axis x"><g class="guides"><path d="M2.192308 0.000000 v20.000000" class="line" /><text x="2.1923076923076925" y="35.0" class="">2024…</text><title>2024/4</title></g><g class="guides"><path d="M57.000000 0.000000 v20.000000" class="guide line" /><text x="57.0" y="35.0" class="">2024…</text><title>2024/3</title></g><g class="guides"><path d="M111.807692 0.000000 v20.000000" class="guide line" /><text x="111.8076923076923" y="35.0" class="">2024…</text><title>2024/2</title></g></g><g class="series serie-0 color-0"><path d="M2.192308 17.213212 L2.411538 17.109919 2.630769 17.006629 2.850000 16.903347 3.069231 16.800075 3.288462 16.696816 3.507692 16.593575 3.726923 16.490355 3.946154 16.387159 4.165385 16.283991 4.384615 16.180854 4.603846 16.077751 4.823077 15.974686 5.042308 15.871663 5.261538 15.768685 5.480769 15.665756 5.700000 15.562878 5.919231 15.460055 6.138462 15.357292 6.357692 15.254590 6.576923 15.151955 6.796154 15.049388 7.015385 14.946895 7.234615 14.844477 7.453846 14.742139 7.673077 14.639884 7.892308 14.537715 8.111538 14.435636 8.330769 14.333651 8.550000 14.231762 8.769231 14.129974 8.988462 14.028290 9.207692 13.926713 9.426923 13.825246 9.646154 13.723894 9.865385 13.622659 10.084615 13.521546 10.303846 13.420557 10.523077 13.319696 10.742308 13.218966 10.961538 13.118371 11.180769 13.017915 11.400000 12.917600 11.619231 12.817431 11.838462 12.717410 12.057692 12.617542 12.276923 12.517829 12.496154 12.418276 12.715385 12.318885 12.934615 12.219660 13.153846 12.120605 13.373077 12.021722 13.592308 11.923016 13.811538 11.824490 14.030769 11.726147 14.250000 11.627991 14.469231 11.530025 14.688462 11.432253 14.907692 11.334678 15.126923 11.237304 15.346154 11.140134 15.565385 11.043171 15.784615 10.946419 16.003846 10.849882 16.223077 10.753563 16.442308 10.657465 16.661538 10.561592 16.880769 10.465947 17.100000 10.370534 17.319231 10.275356 17.538462 10.180417 17.757692 10.085720 17.976923 9.991269 18.196154 9.897067 18.415385 9.803117 18.634615 9.709423 18.853846 9.615989 19.073077 9.522818 19.292308 9.429912 19.511538 9.337277 19.730769 9.244915 19.950000 9.152830 20.169231 9.061025 20.388462 8.969503 20.607692 8.878269 20.826923 8.787325 21.046154 8.696675 21.265385 8.606323 21.484615 8.516272 21.703846 8.426525 21.923077 8.337086 22.142308 8.247958 22.361538 8.159145 22.580769 8.070650 22.800000 7.982477 23.019231 7.894630 23.238462 7.807110 23.457692 7.719923 23.676923 7.633072 23.896154 7.546559 24.115385 7.460389 24.334615 7.374565 24.553846 7.289090 24.773077 7.203968 24.992308 7.119202 25.211538 7.034796 25.430769 6.950753 25.650000 6.867077 25.869231 6.783771 26.088462 6.700838 26.307692 6.618283 26.526923 6.536108 26.746154 6.454317 26.965385 6.372914 27.184615 6.291901 27.403846 6.211283 27.623077 6.131062 27.842308 6.051243 28.061538 5.971829 28.280769 5.892822 28.500000 5.814228 28.719231 5.736048 28.938462 5.658287 29.157692 5.580948 29.376923 5.504034 29.596154 5.427550 29.815385 5.351498 30.034615 5.275881 30.253846 5.200704 30.473077 5.125970 30.692308 5.051682 30.911538 4.977843 31.130769 4.904458 31.350000 4.831530 31.569231 4.759061 31.788462 4.687056 32.007692 4.615518 32.226923 4.544450 32.446154 4.473857 32.665385 4.403740 32.884615 4.334105 33.103846 4.264953 33.323077 4.196290 33.542308 4.128118 33.761538 4.060440 33.980769 3.993260 34.200000 3.926582 34.419231 3.860409 34.638462 3.794745 34.857692 3.729592 35.076923 3.664955 35.296154 3.600837 35.515385 3.537241 35.734615 3.474171 35.953846 3.411630 36.173077 3.349622 36.392308 3.288150 36.611538 3.227218 36.830769 3.166828 37.050000 3.106986 37.269231 3.047693 37.488462 2.988954 37.707692 2.930771 37.926923 2.873149 38.146154 2.816091 38.365385 2.759600 38.584615 2.703680 38.803846 2.648334 39.023077 2.593566 39.242308 2.539379 39.461538 2.485777 39.680769 2.432762 39.900000 2.380339 40.119231 2.328511 40.338462 2.277282 40.557692 2.226654 40.776923 2.176632 40.996154 2.127218 41.215385 2.078417 41.434615 2.030232 41.653846 1.982665 41.873077 1.935722 42.092308 1.889404 42.311538 1.843716 42.530769 1.798661 42.750000 1.754243 42.969231 1.710464 43.188462 1.667329 43.407692 1.624841 43.626923 1.583003 43.846154 1.541819 44.065385 1.501292 44.284615 1.461425 44.503846 1.422223 44.723077 1.383689 44.942308 1.345825 45.161538 1.308636 45.380769 1.272126 45.600000 1.236296 45.819231 1.201151 46.038462 1.166695 46.257692 1.132931 46.476923 1.099862 46.696154 1.067492 46.915385 1.035823 47.134615 1.004861 47.353846 0.974608 47.573077 0.945067 47.792308 0.916242 48.011538 0.888137 48.230769 0.860755 48.450000 0.834099 48.669231 0.808173 48.888462 0.782980 49.107692 0.758524 49.326923 0.734809 49.546154 0.711837 49.765385 0.689612 49.984615 0.668138 50.203846 0.647418 50.423077 0.627455 50.642308 0.608254 50.861538 0.589817 51.080769 0.572148 51.300000 0.555250 51.519231 0.539128 51.738462 0.523783 51.957692 0.509220 52.176923 0.495443 52.396154 0.482454 52.615385 0.470257 52.834615 0.458856 53.053846 0.448254 53.273077 0.438455 53.492308 0.429461 53.711538 0.421277 53.930769 0.413906 54.150000 0.407351 54.369231 0.401616 54.588462 0.396704 54.807692 0.392619 55.026923 0.389364 55.246154 0.386943 55.465385 0.385359 55.684615 0.384615 55.903846 0.384716 56.123077 0.385664 56.342308 0.387463 56.561538 0.390116 56.780769 0.393627 57.000000 0.398000 57.219231 0.403236 57.438462 0.409334 57.657692 0.416289 57.876923 0.424099 58.096154 0.432759 58.315385 0.442268 58.534615 0.452620 58.753846 0.463813 58.973077 0.475842 59.192308 0.488706 59.411538 0.502400 59.630769 0.516920 59.850000 0.532264 60.069231 0.548427 60.288462 0.565407 60.507692 0.583200 60.726923 0.601802 60.946154 0.621211 61.165385 0.641421 61.384615 0.662431 61.603846 0.684237 61.823077 0.706834 62.042308 0.730220 62.261538 0.754392 62.480769 0.779345 62.700000 0.805076 62.919231 0.831583 63.138462 0.858860 63.357692 0.886906 63.576923 0.915716 63.796154 0.945287 64.015385 0.975616 64.234615 1.006699 64.453846 1.038532 64.673077 1.071113 64.892308 1.104437 65.111538 1.138502 65.330769 1.173303 65.550000 1.208838 65.769231 1.245102 65.988462 1.282093 66.207692 1.319807 66.426923 1.358241 66.646154 1.397390 66.865385 1.437252 67.084615 1.477823 67.303846 1.519100 67.523077 1.561079 67.742308 1.603757 67.961538 1.647130 68.180769 1.691195 68.400000 1.735948 68.619231 1.781386 68.838462 1.827506 69.057692 1.874303 69.276923 1.921776 69.496154 1.969919 69.715385 2.018730 69.934615 2.068205 70.153846 2.118340 70.373077 2.169133 70.592308 2.220580 70.811538 2.272677 71.030769 2.325421 71.250000 2.378808 71.469231 2.432835 71.688462 2.487499 71.907692 2.542795 72.126923 2.598722 72.346154 2.655274 72.565385 2.712449 72.784615 2.770243 73.003846 2.828653 73.223077 2.887675 73.442308 2.947306 73.661538 3.007542 73.880769 3.068381 74.100000 3.129817 74.319231 3.191849 74.538462 3.254472 74.757692 3.317683 74.976923 3.381479 75.196154 3.445856 75.415385 3.510810 75.634615 3.576339 75.853846 3.642439 76.073077 3.709106 76.292308 3.776336 76.511538 3.844127 76.730769 3.912475 76.950000 3.981377 77.169231 4.050828 77.388462 4.120826 77.607692 4.191367 77.826923 4.262448 78.046154 4.334065 78.265385 4.406214 78.484615 4.478893 78.703846 4.552098 78.923077 4.625825 79.142308 4.700070 79.361538 4.774832 79.580769 4.850105 79.800000 4.925886 80.019231 5.002173 80.238462 5.078961 80.457692 5.156248 80.676923 5.234029 80.896154 5.312301 81.115385 5.391061 81.334615 5.470305 81.553846 5.550030 81.773077 5.630232 81.992308 5.710909 82.211538 5.792056 82.430769 5.873669 82.650000 5.955747 82.869231 6.038284 83.088462 6.121278 83.307692 6.204725 83.526923 6.288622 83.746154 6.372965 83.965385 6.457750 84.184615 6.542975 84.403846 6.628636 84.623077 6.714730 84.842308 6.801252 85.061538 6.888200 85.280769 6.975569 85.500000 7.063358 85.719231 7.151561 85.938462 7.240176 86.157692 7.329199 86.376923 7.418627 86.596154 7.508456 86.815385 7.598683 87.034615 7.689305 87.253846 7.780317 87.473077 7.871716 87.692308 7.963500 87.911538 8.055664 88.130769 8.148205 88.350000 8.241120 88.569231 8.334405 88.788462 8.428056 89.007692 8.522071 89.226923 8.616445 89.446154 8.711176 89.665385 8.806260 89.884615 8.901693 90.103846 8.997472 90.323077 9.093593 90.542308 9.190053 90.761538 9.286849 90.980769 9.383977 91.200000 9.481433 91.419231 9.579215 91.638462 9.677319 91.857692 9.775740 92.076923 9.874477 92.296154 9.973524 92.515385 10.072880 92.734615 10.172540 92.953846 10.272501 93.173077 10.372759 93.392308 10.473312 93.611538 10.574155 93.830769 10.675285 94.050000 10.776699 94.269231 10.878393 94.488462 10.980364 94.707692 11.082608 94.926923 11.185121 95.146154 11.287901 95.365385 11.390945 95.584615 11.494247 95.803846 11.597805 96.023077 11.701616 96.242308 11.805676 96.461538 11.909982 96.680769 12.014530 96.900000 12.119316 97.119231 12.224338 97.338462 12.329591 97.557692 12.435073 97.776923 12.540780 97.996154 12.646708 98.215385 12.752853 98.434615 12.859214 98.653846 12.965785 98.873077 13.072564 99.092308 13.179547 99.311538 13.286731 99.530769 13.394111 99.750000 13.501686 99.969231 13.609451 100.188462 13.717402 100.407692 13.825537 100.626923 13.933852 100.846154 14.042343 101.065385 14.151007 101.284615 14.259841 101.503846 14.368840 101.723077 14.478003 101.942308 14.587324 102.161538 14.696801 102.380769 14.806430 102.600000 14.916208 102.819231 15.026132 103.038462 15.136197 103.257692 15.246400 103.476923 15.356738 103.696154 15.467208 103.915385 15.577806 104.134615 15.688528 104.353846 15.799372 104.573077 15.910333 104.792308 16.021408 105.011538 16.132594 105.230769 16.243887 105.450000 16.355283 105.669231 16.466781 105.888462 16.578375 106.107692 16.690062 106.326923 16.801839 106.546154 16.913703 106.765385 17.025650 106.984615 17.137676 107.203846 17.249779 107.423077 17.361954 107.642308 17.474198 107.861538 17.586508 108.080769 17.698881 108.300000 17.811312 108.519231 17.923798 108.738462 18.036337 108.957692 18.148923 109.176923 18.261555 109.396154 18.374228 109.615385 18.486940 109.834615 18.599686 110.053846 18.712463 110.273077 18.825267 110.492308 18.938096 110.711538 19.050946 110.930769 19.163813 111.150000 19.276694 111.369231 19.389585 111.588462 19.502483 111.807692 19.615385" class="line reactive nofill" /></g></g><g class="titles" /><g transform="translate(76, 10)" class="plot overlay"><g class="series serie-0 color-0" /></g><g transform="translate(76, 10)" class="plot text-overlay"><g class="series serie-0 color-0" /></g><g transform="translate(76, 10)" class="plot tooltip-overlay"><g transform="translate(0 0)" style="opacity: 0" class="tooltip"><rect rx="0" ry="0" width="0" height="0" class="tooltip-box" /><g class="text" /></g></g></g></svg>