<?xml version='1.0' encoding='utf-8'?>
<svg xmlns="http://www.w3.org/2000/svg" id="chart-8f9fcb6c-c171-4758-b81d-decab7ab9432" class="pygal-chart pygal-sparkline" viewBox="0 0 200 50" width="200" height="50"><!--Generated with pygal 3.0.4 (etree) ©Kozea 2012-2016 on 2024-03-10--><!--http://pygal.org--><!--http://github.com/Kozea/pygal--><defs><style type="text/css">#chart-8f9fcb6c-c171-4758-b81d-decab7ab9432{-webkit-user-select:none;-webkit-font-smoothing:antialiased;font-family:Consolas,"Liberation Mono",Menlo,Courier,monospace}#chart-8f9fcb6c-c171-4758-b81d-decab7ab9432 .title{font-family:Consolas,"Liberation Mono",Menlo,Courier,monospace;font-size:16px}#chart-8f9fcb6c-c171-4758-b81d-decab7ab9432 .legends .legend text{font-family:Consolas,"Liberation Mono",Menlo,Courier,monospace;font-size:14px}#chart-8f9fcb6c-c171-4758-b81d-decab7ab9432 .axis text{font-family:Consolas,"Liberation Mono",Menlo,Courier,monospace;font-size:10px}#chart-8f9fcb6c-c171-4758-b81d-decab7ab9432 .axis text.major{font-family:Consolas,"Liberation Mono",Menlo,Courier,monospace;font-size:10px}#chart-8f9fcb6c-c171-4758-b81d-decab7ab9432 .text-overlay text.value{font-family:Consolas,"Liberation Mono",Menlo,Courier,monospace;font-size:16px}#chart-8f9fcb6c-c171-4758-b81d-decab7ab9432 .text-overlay text.label{font-family:Consolas,"Liberation Mono",Menlo,Courier,monospace;font-size:10px}#chart-8f9fcb6c-c171-4758-b81d-decab7ab9432 .tooltip{font-family:Consolas,"Liberation Mono",Menlo,Courier,monospace;font-size:14px}#chart-8f9fcb6c-c171-4758-b81d-decab7ab9432 text.no_data{font-family:Consolas,"Liberation Mono",Menlo,Courier,monospace;font-size:64px}
#chart-8f9fcb6c-c171-4758-b81d-decab7ab9432{background-color:rgba(249,249,249,1)}#chart-8f9fcb6c-c171-4758-b81d-decab7ab9432 path,#chart-8f9fcb6c-c171-4758-b81d-decab7ab9432 line,#chart-8f9fcb6c-c171-4758-b81d-decab7ab9432 rect,#chart-8f9fcb6c-c171-4758-b81d-decab7ab9432 circle{-webkit-transition:150ms;-moz-transition:150ms;transition:150ms}#chart-8f9fcb6c-c171-4758-b81d-decab7ab9432 .graph &gt; .background{fill:rgba(249,249,249,1)}#chart-8f9fcb6c-c171-4758-b81d-decab7ab9432 .plot &gt; .background{fill:rgba(255,255,255,1)}#chart-8f9fcb6c-c171-4758-b81d-decab7ab9432 .graph{fill:rgba(0,0,0,.87)}#chart-8f9fcb6c-c171-4758-b81d-decab7ab9432 text.no_data{fill:rgba(0,0,0,1)}#chart-8f9fcb6c-c171-4758-b81d-decab7ab9432 .title{fill:rgba(0,0,0,1)}#chart-8f9fcb6c-c171-4758-b81d-decab7ab9432 .legends .legend text{fill:rgba(0,0,0,.87)}#chart-8f9fcb6c-c171-4758-b81d-decab7ab9432 .legends .legend:hover text{fill:rgba(0,0,0,1)}#chart-8f9fcb6c-c171-4758-b81d-decab7ab9432 .axis .line{stroke:rgba(0,0,0,1)}#chart-8f9fcb6c-c171-4758-b81d-decab7ab9432 .axis .guide.line{stroke:rgba(0,0,0,.54)}#chart-8f9fcb6c-c171-4758-b81d-decab7ab9432 .axis .major.line{stroke:rgba(0,0,0,.87)}#chart-8f9fcb6c-c171-4758-b81d-decab7ab9432 .axis text.major{fill:rgba(0,0,0,1)}#chart-8f9fcb6c-c171-4758-b81d-decab7ab9432 .axis.y .guides:hover .guide.line,#chart-8f9fcb6c-c171-4758-b81d-decab7ab9432 .line-graph .axis.x .guides:hover .guide.line,#chart-8f9fcb6c-c171-4758-b81d-decab7ab9432 .stackedline-graph .axis.x .guides:hover .guide.line,#chart-8f9fcb6c-c171-4758-b81d-decab7ab9432 .xy-graph .axis.x .guides:hover .guide.line{stroke:rgba(0,0,0,1)}#chart-8f9fcb6c-c171-4758-b81d-decab7ab9432 .axis .guides:hover text{fill:rgba(0,0,0,1)}#chart-8f9fcb6c-c171-4758-b81d-decab7ab9432 .reactive{fill-opacity:.7;stroke-opacity:.8;stroke-width:1}#chart-8f9fcb6c-c171-4758-b81d-decab7ab9432 .ci{stroke:rgba(0,0,0,.87)}#chart-8f9fcb6c-c171-4758-b81d-decab7ab9432 .reactive.active,#chart-8f9fcb6c-c171-4758-b81d-decab7ab9432 .active .reactive{fill-opacity:.8;stroke-opacity:.9;stroke-width:4}#chart-8f9fcb6c-c171-4758-b81d-decab7ab9432 .ci .reactive.active{stroke-width:1.5}#chart-8f9fcb6c-c171-4758-b81d-decab7ab9432 .series text{fill:rgba(0,0,0,1)}#chart-8f9fcb6c-c171-4758-b81d-decab7ab9432 .tooltip rect{fill:rgba(255,255,255,1);stroke:rgba(0,0,0,1);-webkit-transition:opacity 150ms;-moz-transition:opacity 150ms;transition:opacity 150ms}#chart-8f9fcb6c-c171-4758-b81d-decab7ab9432 .tooltip .label{fill:rgba(0,0,0,.87)}#chart-8f9fcb6c-c171-4758-b81d-decab7ab9432 .tooltip .label{fill:rgba(0,0,0,.87)}#chart-8f9fcb6c-c171-4758-b81d-decab7ab9432 .tooltip .legend{font-size:.8em;fill:rgba(0,0,0,.54)}#chart-8f9fcb6c-c171-4758-b81d-decab7ab9432 .tooltip .x_label{font-size:.6em;fill:rgba(0,0,0,1)}#chart-8f9fcb6c-c171-4758-b81d-decab7ab9432 .tooltip .xlink{font-size:.5em;text-decoration:underline}#chart-8f9fcb6c-c171-4758-b81d-decab7ab9432 .tooltip .value{font-size:1.5em}#chart-8f9fcb6c-c171-4758-b81d-decab7ab9432 .bound{font-size:.5em}#chart-8f9fcb6c-c171-4758-b81d-decab7ab9432 .max-value{font-size:.75em;fill:rgba(0,0,0,.54)}#chart-8f9fcb6c-c171-4758-b81d-decab7ab9432 .map-element{fill:rgba(255,255,255,1);stroke:rgba(0,0,0,.54) !important}#chart-8f9fcb6c-c171-4758-b81d-decab7ab9432 .map-element .reactive{fill-opacity:inherit;stroke-opacity:inherit}#chart-8f9fcb6c-c171-4758-b81d-decab7ab9432 .color-0,#chart-8f9fcb6c-c171-4758-b81d-decab7ab9432 .color-0 a:visited{stroke:#F44336;fill:#F44336}#chart-8f9fcb6c-c171-4758-b81d-decab7ab9432 .text-overlay .color-0 text{fill:black}
#chart-8f9fcb6c-c171-4758-b81d-decab7ab9432 text.no_data{text-anchor:middle}#chart-8f9fcb6c-c171-4758-b81d-decab7ab9432 .guide.line{fill:none}#chart-8f9fcb6c-c171-4758-b81d-decab7ab9432 .centered{text-anchor:middle}#chart-8f9fcb6c-c171-4758-b81d-decab7ab9432 .title{text-anchor:middle}#chart-8f9fcb6c-c171-4758-b81d-decab7ab9432 .legends .legend text{fill-opacity:1}#chart-8f9fcb6c-c171-4758-b81d-decab7ab9432 .axis.x text{text-anchor:middle}#chart-8f9fcb6c-c171-4758-b81d-decab7ab9432 .axis.x:not(.web) text[transform]{text-anchor:start}#chart-8f9fcb6c-c171-4758-b81d-decab7ab9432 .axis.x:not(.web) text[transform].backwards{text-anchor:end}#chart-8f9fcb6c-c171-4758-b81d-decab7ab9432 .axis.y text{text-anchor:end}#chart-8f9fcb6c-c171-4758-b81d-decab7ab9432 .axis.y text[transform].backwards{text-anchor:start}#chart-8f9fcb6c-c171-4758-b81d-decab7ab9432 .axis.y2 text{text-anchor:start}#chart-8f9fcb6c-c171-4758-b81d-decab7ab9432 .axis.y2 text[transform].backwards{text-anchor:end}#chart-8f9fcb6c-c171-4758-b81d-decab7ab9432 .axis .guide.line{stroke-dasharray:4,4;stroke:black}#chart-8f9fcb6c-c171-4758-b81d-decab7ab9432 .axis .major.guide.line{stroke-dasharray:6,6;stroke:black}#chart-8f9fcb6c-c171-4758-b81d-decab7ab9432 .horizontal .axis.y .guide.line,#chart-8f9fcb6c-c171-4758-b81d-decab7ab9432 .horizontal .axis.y2 .guide.line,#chart-8f9fcb6c-c171-4758-b81d-decab7ab9432 .vertical .axis.x .guide.line{opacity:0}#chart-8f9fcb6c-c171-4758-b81d-decab7ab9432 .horizontal .axis.always_show .guide.line,#chart-8f9fcb6c-c171-4758-b81d-decab7ab9432 .vertical .axis.always_show .guide.line{opacity:1 !important}#chart-8f9fcb6c-c171-4758-b81d-decab7ab9432 .axis.y .guides:hover .guide.line,#chart-8f9fcb6c-c171-4758-b81d-decab7ab9432 .axis.y2 .guides:hover .guide.line,#chart-8f9fcb6c-c171-4758-b81d-decab7ab9432 .axis.x .guides:hover .guide.line{opacity:1}#chart-8f9fcb6c-c171-4758-b81d-decab7ab9432 .axis .guides:hover text{opacity:1}#chart-8f9fcb6c-c171-4758-b81d-decab7ab9432 .nofill{fill:none}#chart-8f9fcb6c-c171-4758-b81d-decab7ab9432 .subtle-fill{fill-opacity:.2}#chart-8f9fcb6c-c171-4758-b81d-decab7ab9432 .dot{stroke-width:1px;fill-opacity:1;stroke-opacity:1}#chart-8f9fcb6c-c171-4758-b81d-decab7ab9432 .dot.active{stroke-width:5px}#chart-8f9fcb6c-c171-4758-b81d-decab7ab9432 .dot.negative{fill:transparent}#chart-8f9fcb6c-c171-4758-b81d-decab7ab9432 text,#chart-8f9fcb6c-c171-4758-b81d-decab7ab9432 tspan{stroke:none !important}#chart-8f9fcb6c-c171-4758-b81d-decab7ab9432 .series text.active{opacity:1}#chart-8f9fcb6c-c171-4758-b81d-decab7ab9432 .tooltip rect{fill-opacity:.95;stroke-width:.5}#chart-8f9fcb6c-c171-4758-b81d-decab7ab9432 .tooltip text{fill-opacity:1}#chart-8f9fcb6c-c171-4758-b81d-decab7ab9432 .showable{visibility:hidden}#chart-8f9fcb6c-c171-4758-b81d-decab7ab9432 .showable.shown{visibility:visible}#chart-8f9fcb6c-c171-4758-b81d-decab7ab9432 .gauge-background{fill:rgba(229,229,229,1);stroke:none}#chart-8f9fcb6c-c171-4758-b81d-decab7ab9432 .bg-lines{stroke:rgba(249,249,249,1);stroke-width:2px}</style><script type="text/javascript">window.pygal = window.pygal || {};window.pygal.config = window.pygal.config || {};window.pygal.config['8f9fcb6c-c171-4758-b81d-decab7ab9432'] = {"allow_interruptions": false, "box_mode": "extremes", "classes": ["pygal-chart", "pygal-sparkline"], "css": ["file://style.css", "file://graph.css"], "defs": [], "disable_xml_declaration": false, "dots_size": 2.5, "dynamic_print_values": false, "explicit_size": true, "fill": false, "force_uri_protocol": "https", "formatter": null, "half_pie": false, "height": 50, "include_x_axis": false, "inner_radius": 0, "interpolate": "cubic", "interpolation_parameters": {}, "interpolation_precision": 250, "inverse_y_axis": false, "js": [], "legend_at_bottom": false, "legend_at_bottom_columns": null, "legend_box_size": 12, "logarithmic": false, "margin": 10, "margin_bottom": null, "margin_left": null, "margin_right": null, "margin_top": null, "max_scale": 2, "min_scale": 1, "missing_value_fill_truncation": "x", "no_data_text": "", "no_prefix": false, "order_min": null, "pretty_print": false, "print_labels": false, "print_values": false, "print_values_position": "center", "print_zeroes": true, "range": null, "rounded_bars": null, "secondary_range": null, "show_dots": false, "show_legend": false, "show_minor_x_labels": true, "show_minor_y_labels": true, "show_only_major_dots": false, "show_x_guides": false, "show_x_labels": true, "show_y_guides": true, "show_y_labels": true, "spacing": 0, "stack_from_top": false, "strict": false, "stroke": true, "stroke_style": null, "style": {"background": "rgba(249, 249, 249, 1)", "ci_colors": [], "colors": ["#F44336", "#3F51B5", "#009688", "#FFC107", "#FF5722", "#9C27B0", "#03A9F4", "#8BC34A", "#FF9800", "#E91E63", "#2196F3", "#4CAF50", "#FFEB3B", "#673AB7", "#00BCD4", "#CDDC39", "#9E9E9E", "#607D8B"], "dot_opacity": "1", "font_family": "Consolas, \"Liberation Mono\", Menlo, Courier, monospace", "foreground": "rgba(0, 0, 0, .87)", "foreground_strong": "rgba(0, 0, 0, 1)", "foreground_subtle": "rgba(0, 0, 0, .54)", "guide_stroke_color": "black", "guide_stroke_dasharray": "4,4", "label_font_family": "Consolas, \"Liberation Mono\", Menlo, Courier, monospace", "label_font_size": 10, "legend_font_family": "Consolas, \"Liberation Mono\", Menlo, Courier, monospace", "legend_font_size": 14, "major_guide_stroke_color": "black", "major_guide_stroke_dasharray": "6,6", "major_label_font_family": "Consolas, \"Liberation Mono\", Menlo, Courier, monospace", "major_label_font_size": 10, "no_data_font_family": "Consolas, \"Liberation Mono\", Menlo, Courier, monospace", "no_data_font_size": 64, "opacity": ".7", "opacity_hover": ".8", "plot_background": "rgba(255, 255, 255, 1)", "stroke_opacity": ".8", "stroke_opacity_hover": ".9", "stroke_width": "1", "stroke_width_hover": "4", "title_font_family": "Consolas, \"Liberation Mono\", Menlo, Courier, monospace", "title_font_size": 16, "tooltip_font_family": "Consolas, \"Liberation Mono\", Menlo, Courier, monospace", "tooltip_font_size": 14, "transition": "150ms", "value_background": "rgba(229, 229, 229, 1)", "value_colors": [], "value_font_family": "Consolas, \"Liberation Mono\", Menlo, Courier, monospace", "value_font_size": 16, "value_label_font_family": "Consolas, \"Liberation Mono\", Menlo, Courier, monospace", "value_label_font_size": 10}, "title": null, "tooltip_border_radius": 0, "tooltip_fancy_mode": true, "truncate_label": null, "truncate_legend": null, "width": 200, "x_label_rotation": 0, "x_labels": ["2024/3", "2024/2", "2024/1"], "x_labels_major": null, "x_labels_major_count": null, "x_labels_major_every": null, "x_title": null, "xrange": null, "y_label_rotation": 0, "y_labels": null, "y_labels_major": null, "y_labels_major_count": null, "y_labels_major_every": null, "y_title": null, "zero": 0, "legends": [""]}</script></defs><title>Pygal</title><g class="graph line-graph vertical"><rect x="0" y="0" width="200" height="50" class="background" /><g transform="translate(76, 10)" class="plot"><rect x="0" y="0" width="114.0" height="20" class="background" /><g class="axis y always_show"><path d="M0.000000 20.000000 h114.000000" class="line" /><g class="guides"><path d="M0.000000 19.615385 h114.000000" class="guide line" /><text x="-5" y="23.115384615384617" class="">1</text><title>1</title></g><g class="guides"><path d="M0.000000 0.384615 h114.000000" class="guide line" /><text x="-5" y="3.884615384615387" class="">23.05420254</text><title>23.05420254</title></g></g><g class="axis x"><g class="guides"><path d="M2.192308 0.000000 v20.000000" class="line" /><text x="2.1923076923076925" y="35.0" class="">2024…</text><title>2024/3</title></g><g class="guides"><path d="M57.000000 0.000000 v20.000000" class="guide line" /><text x="57.0" y="35.0" class="">2024…</text><title>2024/2</title></g><g class="guides"><path d="M111.807692 0.000000 v20.000000" class="guide line" /><text x="111.8076923076923" y="35.0" class="">2024…</text><title>2024/1</title></g></g><g class="series serie-0 color-0"><path d="M2.192308 15.255497 L2.411538 15.162196 2.630769 15.068898 2.850000 14.975607 3.069231 14.882325 3.288462 14.789057 3.507692 14.695805 3.726923 14.602572 3.946154 14.509363 4.165385 14.416179 4.384615 14.323025 4.603846 14.229904 4.823077 14.136818 5.042308 14.043772 5.261538 13.950768 5.480769 13.857809 5.700000 13.764900 5.919231 13.672043 6.138462 13.579241 6.357692 13.486499 6.576923 13.393818 6.796154 13.301202 7.015385 13.208656 7.234615 13.116180 7.453846 13.023780 7.673077 12.931459 7.892308 12.839219 8.111538 12.747064 8.330769 12.654997 8.550000 12.563021 8.769231 12.471140 8.988462 12.379357 9.207692 12.287675 9.426923 12.196098 9.646154 12.104629 9.865385 12.013270 10.084615 11.922026 10.303846 11.830899 10.523077 11.739893 10.742308 11.649011 10.961538 11.558256 11.180769 11.467632 11.400000 11.377142 11.619231 11.286789 11.838462 11.196576 12.057692 11.106507 12.276923 11.016585 12.496154 10.926813 12.715385 10.837195 12.934615 10.747733 13.153846 10.658431 13.373077 10.569293 13.592308 10.480321 13.811538 10.391518 14.030769 10.302889 14.250000 10.214436 14.469231 10.126163 14.688462 10.038072 14.907692 9.950167 15.126923 9.862452 15.346154 9.774930 15.565385 9.687603 15.784615 9.600476 16.003846 9.513550 16.223077 9.426831 16.442308 9.340320 16.661538 9.254022 16.880769 9.167939 17.100000 9.082075 17.319231 8.996433 17.538462 8.911016 17.757692 8.825828 17.976923 8.740871 18.196154 8.656150 18.415385 8.571667 18.634615 8.487425 18.853846 8.403429 19.073077 8.319680 19.292308 8.236183 19.511538 8.152940 19.730769 8.069956 19.950000 7.987232 20.169231 7.904773 20.388462 7.822582 20.607692 7.740661 20.826923 7.659015 21.046154 7.577647 21.265385 7.496559 21.484615 7.415755 21.703846 7.335238 21.923077 7.255012 22.142308 7.175080 22.361538 7.095445 22.580769 7.016110 22.800000 6.937079 23.019231 6.858355 23.238462 6.779941 23.457692 6.701840 23.676923 6.624056 23.896154 6.546592 24.115385 6.469451 24.334615 6.392637 24.553846 6.316152 24.773077 6.240001 24.992308 6.164185 25.211538 6.088709 25.430769 6.013576 25.650000 5.938789 25.869231 5.864351 26.088462 5.790266 26.307692 5.716537 26.526923 5.643167 26.746154 5.570159 26.965385 5.497517 27.184615 5.425244 27.403846 5.353343 27.623077 5.281817 27.842308 5.210670 28.061538 5.139905 28.280769 5.069526 28.500000 4.999534 28.719231 4.929935 28.938462 4.860730 29.157692 4.791924 29.376923 4.723520 29.596154 4.655520 29.815385 4.587928 30.034615 4.520748 30.253846 4.453982 30.473077 4.387634 30.692308 4.321708 30.911538 4.256206 31.130769 4.191131 31.350000 4.126487 31.569231 4.062278 31.788462 3.998506 32.007692 3.935175 32.226923 3.872287 32.446154 3.809847 32.665385 3.747858 32.884615 3.686322 33.103846 3.625244 33.323077 3.564625 33.542308 3.504471 33.761538 3.444783 33.980769 3.385565 34.200000 3.326821 34.419231 3.268553 34.638462 3.210765 34.857692 3.153460 35.076923 3.096642 35.296154 3.040314 35.515385 2.984478 35.734615 2.929139 35.953846 2.874299 36.173077 2.819962 36.392308 2.766131 36.611538 2.712809 36.830769 2.660000 37.050000 2.607707 37.269231 2.555932 37.488462 2.504680 37.707692 2.453954 37.926923 2.403757 38.146154 2.354091 38.365385 2.304962 38.584615 2.256370 38.803846 2.208321 39.023077 2.160817 39.242308 2.113861 39.461538 2.067458 39.680769 2.021609 39.900000 1.976318 40.119231 1.931589 40.338462 1.887425 40.557692 1.843828 40.776923 1.800803 40.996154 1.758353 41.215385 1.716481 41.434615 1.675189 41.653846 1.634482 41.873077 1.594363 42.092308 1.554835 42.311538 1.515900 42.530769 1.477563 42.750000 1.439827 42.969231 1.402695 43.188462 1.366170 43.407692 1.330256 43.626923 1.294955 43.846154 1.260271 44.065385 1.226208 44.284615 1.192768 44.503846 1.159955 44.723077 1.127772 44.942308 1.096223 45.161538 1.065310 45.380769 1.035037 45.600000 1.005407 45.819231 0.976423 46.038462 0.948089 46.257692 0.920409 46.476923 0.893384 46.696154 0.867019 46.915385 0.841316 47.134615 0.816280 47.353846 0.791912 47.573077 0.768218 47.792308 0.745199 48.011538 0.722859 48.230769 0.701201 48.450000 0.680229 48.669231 0.659946 48.888462 0.640355 49.107692 0.621459 49.326923 0.603262 49.546154 0.585767 49.765385 0.568977 49.984615 0.552896 50.203846 0.537526 50.423077 0.522871 50.642308 0.508935 50.861538 0.495720 51.080769 0.483229 51.300000 0.471467 51.519231 0.460436 51.738462 0.450140 51.957692 0.440581 52.176923 0.431763 52.396154 0.423690 52.615385 0.416365 52.834615 0.409790 53.053846 0.403969 53.273077 0.398906 53.492308 0.394604 53.711538 0.391065 53.930769 0.388294 54.150000 0.386293 54.369231 0.385066 54.588462 0.384615 54.807692 0.384945 55.026923 0.386059 55.246154 0.387959 55.465385 0.390650 55.684615 0.394134 55.903846 0.398414 56.123077 0.403494 56.342308 0.409378 56.561538 0.416067 56.780769 0.423567 57.000000 0.431879 57.219231 0.441006 57.438462 0.450946 57.657692 0.461696 57.876923 0.473252 58.096154 0.485612 58.315385 0.498771 58.534615 0.512727 58.753846 0.527476 58.973077 0.543015 59.192308 0.559341 59.411538 0.576450 59.630769 0.594340 59.850000 0.613007 60.069231 0.632447 60.288462 0.652658 60.507692 0.673636 60.726923 0.695378 60.946154 0.717881 61.165385 0.741141 61.384615 0.765156 61.603846 0.789921 61.823077 0.815433 62.042308 0.841691 62.261538 0.868689 62.480769 0.896425 62.700000 0.924895 62.919231 0.954097 63.138462 0.984027 63.357692 1.014682 63.576923 1.046058 63.796154 1.078152 64.015385 1.110962 64.234615 1.144483 64.453846 1.178712 64.673077 1.213647 64.892308 1.249283 65.111538 1.285619 65.330769 1.322649 65.550000 1.360372 65.769231 1.398783 65.988462 1.437880 66.207692 1.477660 66.426923 1.518118 66.646154 1.559253 66.865385 1.601059 67.084615 1.643535 67.303846 1.686678 67.523077 1.730482 67.742308 1.774947 67.961538 1.820067 68.180769 1.865840 68.400000 1.912263 68.619231 1.959333 68.838462 2.007046 69.057692 2.055398 69.276923 2.104387 69.496154 2.154010 69.715385 2.204262 69.934615 2.255142 70.153846 2.306644 70.373077 2.358768 70.592308 2.411508 70.811538 2.464862 71.030769 2.518826 71.250000 2.573398 71.469231 2.628574 71.688462 2.684350 71.907692 2.740724 72.126923 2.797692 72.346154 2.855251 72.565385 2.913397 72.784615 2.972128 73.003846 3.031440 73.223077 3.091330 73.442308 3.151795 73.661538 3.212831 73.880769 3.274434 74.100000 3.336603 74.319231 3.399333 74.538462 3.462622 74.757692 3.526465 74.976923 3.590860 75.196154 3.655804 75.415385 3.721293 75.634615 3.787323 75.853846 3.853893 76.073077 3.920998 76.292308 3.988635 76.511538 4.056800 76.730769 4.125492 76.950000 4.194706 77.169231 4.264439 77.388462 4.334687 77.607692 4.405449 77.826923 4.476719 78.046154 4.548496 78.265385 4.620775 78.484615 4.693554 78.703846 4.766829 78.923077 4.840597 79.142308 4.914855 79.361538 4.989599 79.580769 5.064827 79.800000 5.140534 80.019231 5.216718 80.238462 5.293375 80.457692 5.370502 80.676923 5.448097 80.896154 5.526155 81.115385 5.604673 81.334615 5.683648 81.553846 5.763077 81.773077 5.842957 81.992308 5.923283 82.211538 6.004054 82.430769 6.085266 82.650000 6.166915 82.869231 6.248998 83.088462 6.331512 83.307692 6.414454 83.526923 6.497820 83.746154 6.581607 83.965385 6.665813 84.184615 6.750433 84.403846 6.835464 84.623077 6.920903 84.842308 7.006747 85.061538 7.092993 85.280769 7.179637 85.500000 7.266676 85.719231 7.354107 85.938462 7.441926 86.157692 7.530130 86.376923 7.618717 86.596154 7.707682 86.815385 7.797023 87.034615 7.886735 87.253846 7.976817 87.473077 8.067264 87.692308 8.158074 87.911538 8.249243 88.130769 8.340768 88.350000 8.432645 88.569231 8.524871 88.788462 8.617444 89.007692 8.710360 89.226923 8.803614 89.446154 8.897206 89.665385 8.991130 89.884615 9.085384 90.103846 9.179964 90.323077 9.274868 90.542308 9.370091 90.761538 9.465632 90.980769 9.561485 91.200000 9.657649 91.419231 9.754120 91.638462 9.850894 91.857692 9.947969 92.076923 10.045340 92.296154 10.143006 92.515385 10.240962 92.734615 10.339205 92.953846 10.437733 93.173077 10.536541 93.392308 10.635627 93.611538 10.734987 93.830769 10.834618 94.050000 10.934516 94.269231 11.034679 94.488462 11.135103 94.707692 11.235786 94.926923 11.336722 95.146154 11.437910 95.365385 11.539347 95.584615 11.641028 95.803846 11.742950 96.023077 11.845111 96.242308 11.947508 96.461538 12.050135 96.680769 12.152992 96.900000 12.256073 97.119231 12.359377 97.338462 12.462899 97.557692 12.566637 97.776923 12.670587 97.996154 12.774746 98.215385 12.879111 98.434615 12.983678 98.653846 13.088444 98.873077 13.193407 99.092308 13.298561 99.311538 13.403905 99.530769 13.509435 99.750000 13.615148 99.969231 13.721041 100.188462 13.827110 100.407692 13.933352 100.626923 14.039763 100.846154 14.146341 101.065385 14.253083 101.284615 14.359984 101.503846 14.467042 101.723077 14.574254 101.942308 14.681615 102.161538 14.789124 102.380769 14.896776 102.600000 15.004569 102.819231 15.112498 103.038462 15.220562 103.257692 15.328756 103.476923 15.437078 103.696154 15.545523 103.915385 15.654089 104.134615 15.762773 104.353846 15.871571 104.573077 15.980481 104.792308 16.089497 105.011538 16.198619 105.230769 16.307841 105.450000 16.417162 105.669231 16.526577 105.888462 16.636083 106.107692 16.745678 106.326923 16.855358 106.546154 16.965119 106.765385 17.074958 106.984615 17.184873 107.203846 17.294860 107.423077 17.404915 107.642308 17.515035 107.861538 17.625217 108.080769 17.735458 108.300000 17.845755 108.519231 17.956104 108.738462 18.066502 108.957692 18.176945 109.176923 18.287431 109.396154 18.397956 109.615385 18.508517 109.834615 18.619111 110.053846 18.729734 110.273077 18.840383 110.492308 18.951055 110.711538 19.061747 110.930769 19.172455 111.150000 19.283176 111.369231 19.393907 111.588462 19.504644 111.807692 19.615385" class="line reactive nofill" /></g></g><g class="titles" /><g transform="translate(76, 10)" class="plot overlay"><g class="series serie-0 color-0" /></g><g transform="translate(76, 10)" class="plot text-overlay"><g class="series serie-0 color-0" /></g><g transform="translate(76, 10)" class="plot tooltip-overlay"><g transform="translate(0 0)" style="opacity: 0" class="tooltip"><rect rx="0" ry="0" width="0" height="0" class="tooltip-box" /><g class="text" /></g></g></g></svg>