<?xml version='1.0' encoding='utf-8'?>
<svg xmlns="http://www.w3.org/2000/svg" id="chart-dfdd288e-626f-4f10-8f7e-04706b72de2a" class="pygal-chart pygal-sparkline" viewBox="0 0 200 50" width="200" height="50"><!--Generated with pygal 3.0.5 (etree) ©Kozea 2012-2016 on 2024-08-12--><!--http://pygal.org--><!--http://github.com/Kozea/pygal--><defs><style type="text/css">#chart-dfdd288e-626f-4f10-8f7e-04706b72de2a{-webkit-user-select:none;-webkit-font-smoothing:antialiased;font-family:Consolas,"Liberation Mono",Menlo,Courier,monospace}#chart-dfdd288e-626f-4f10-8f7e-04706b72de2a .title{font-family:Consolas,"Liberation Mono",Menlo,Courier,monospace;font-size:16px}#chart-dfdd288e-626f-4f10-8f7e-04706b72de2a .legends .legend text{font-family:Consolas,"Liberation Mono",Menlo,Courier,monospace;font-size:14px}#chart-dfdd288e-626f-4f10-8f7e-04706b72de2a .axis text{font-family:Consolas,"Liberation Mono",Menlo,Courier,monospace;font-size:10px}#chart-dfdd288e-626f-4f10-8f7e-04706b72de2a .axis text.major{font-family:Consolas,"Liberation Mono",Menlo,Courier,monospace;font-size:10px}#chart-dfdd288e-626f-4f10-8f7e-04706b72de2a .text-overlay text.value{font-family:Consolas,"Liberation Mono",Menlo,Courier,monospace;font-size:16px}#chart-dfdd288e-626f-4f10-8f7e-04706b72de2a .text-overlay text.label{font-family:Consolas,"Liberation Mono",Menlo,Courier,monospace;font-size:10px}#chart-dfdd288e-626f-4f10-8f7e-04706b72de2a .tooltip{font-family:Consolas,"Liberation Mono",Menlo,Courier,monospace;font-size:14px}#chart-dfdd288e-626f-4f10-8f7e-04706b72de2a text.no_data{font-family:Consolas,"Liberation Mono",Menlo,Courier,monospace;font-size:64px}
#chart-dfdd288e-626f-4f10-8f7e-04706b72de2a{background-color:rgba(249,249,249,1)}#chart-dfdd288e-626f-4f10-8f7e-04706b72de2a path,#chart-dfdd288e-626f-4f10-8f7e-04706b72de2a line,#chart-dfdd288e-626f-4f10-8f7e-04706b72de2a rect,#chart-dfdd288e-626f-4f10-8f7e-04706b72de2a circle{-webkit-transition:150ms;-moz-transition:150ms;transition:150ms}#chart-dfdd288e-626f-4f10-8f7e-04706b72de2a .graph &gt; .background{fill:rgba(249,249,249,1)}#chart-dfdd288e-626f-4f10-8f7e-04706b72de2a .plot &gt; .background{fill:rgba(255,255,255,1)}#chart-dfdd288e-626f-4f10-8f7e-04706b72de2a .graph{fill:rgba(0,0,0,.87)}#chart-dfdd288e-626f-4f10-8f7e-04706b72de2a text.no_data{fill:rgba(0,0,0,1)}#chart-dfdd288e-626f-4f10-8f7e-04706b72de2a .title{fill:rgba(0,0,0,1)}#chart-dfdd288e-626f-4f10-8f7e-04706b72de2a .legends .legend text{fill:rgba(0,0,0,.87)}#chart-dfdd288e-626f-4f10-8f7e-04706b72de2a .legends .legend:hover text{fill:rgba(0,0,0,1)}#chart-dfdd288e-626f-4f10-8f7e-04706b72de2a .axis .line{stroke:rgba(0,0,0,1)}#chart-dfdd288e-626f-4f10-8f7e-04706b72de2a .axis .guide.line{stroke:rgba(0,0,0,.54)}#chart-dfdd288e-626f-4f10-8f7e-04706b72de2a .axis .major.line{stroke:rgba(0,0,0,.87)}#chart-dfdd288e-626f-4f10-8f7e-04706b72de2a .axis text.major{fill:rgba(0,0,0,1)}#chart-dfdd288e-626f-4f10-8f7e-04706b72de2a .axis.y .guides:hover .guide.line,#chart-dfdd288e-626f-4f10-8f7e-04706b72de2a .line-graph .axis.x .guides:hover .guide.line,#chart-dfdd288e-626f-4f10-8f7e-04706b72de2a .stackedline-graph .axis.x .guides:hover .guide.line,#chart-dfdd288e-626f-4f10-8f7e-04706b72de2a .xy-graph .axis.x .guides:hover .guide.line{stroke:rgba(0,0,0,1)}#chart-dfdd288e-626f-4f10-8f7e-04706b72de2a .axis .guides:hover text{fill:rgba(0,0,0,1)}#chart-dfdd288e-626f-4f10-8f7e-04706b72de2a .reactive{fill-opacity:.7;stroke-opacity:.8;stroke-width:1}#chart-dfdd288e-626f-4f10-8f7e-04706b72de2a .ci{stroke:rgba(0,0,0,.87)}#chart-dfdd288e-626f-4f10-8f7e-04706b72de2a .reactive.active,#chart-dfdd288e-626f-4f10-8f7e-04706b72de2a .active .reactive{fill-opacity:.8;stroke-opacity:.9;stroke-width:4}#chart-dfdd288e-626f-4f10-8f7e-04706b72de2a .ci .reactive.active{stroke-width:1.5}#chart-dfdd288e-626f-4f10-8f7e-04706b72de2a .series text{fill:rgba(0,0,0,1)}#chart-dfdd288e-626f-4f10-8f7e-04706b72de2a .tooltip rect{fill:rgba(255,255,255,1);stroke:rgba(0,0,0,1);-webkit-transition:opacity 150ms;-moz-transition:opacity 150ms;transition:opacity 150ms}#chart-dfdd288e-626f-4f10-8f7e-04706b72de2a .tooltip .label{fill:rgba(0,0,0,.87)}#chart-dfdd288e-626f-4f10-8f7e-04706b72de2a .tooltip .label{fill:rgba(0,0,0,.87)}#chart-dfdd288e-626f-4f10-8f7e-04706b72de2a .tooltip .legend{font-size:.8em;fill:rgba(0,0,0,.54)}#chart-dfdd288e-626f-4f10-8f7e-04706b72de2a .tooltip .x_label{font-size:.6em;fill:rgba(0,0,0,1)}#chart-dfdd288e-626f-4f10-8f7e-04706b72de2a .tooltip .xlink{font-size:.5em;text-decoration:underline}#chart-dfdd288e-626f-4f10-8f7e-04706b72de2a .tooltip .value{font-size:1.5em}#chart-dfdd288e-626f-4f10-8f7e-04706b72de2a .bound{font-size:.5em}#chart-dfdd288e-626f-4f10-8f7e-04706b72de2a .max-value{font-size:.75em;fill:rgba(0,0,0,.54)}#chart-dfdd288e-626f-4f10-8f7e-04706b72de2a .map-element{fill:rgba(255,255,255,1);stroke:rgba(0,0,0,.54) !important}#chart-dfdd288e-626f-4f10-8f7e-04706b72de2a .map-element .reactive{fill-opacity:inherit;stroke-opacity:inherit}#chart-dfdd288e-626f-4f10-8f7e-04706b72de2a .color-0,#chart-dfdd288e-626f-4f10-8f7e-04706b72de2a .color-0 a:visited{stroke:#F44336;fill:#F44336}#chart-dfdd288e-626f-4f10-8f7e-04706b72de2a .text-overlay .color-0 text{fill:black}
#chart-dfdd288e-626f-4f10-8f7e-04706b72de2a text.no_data{text-anchor:middle}#chart-dfdd288e-626f-4f10-8f7e-04706b72de2a .guide.line{fill:none}#chart-dfdd288e-626f-4f10-8f7e-04706b72de2a .centered{text-anchor:middle}#chart-dfdd288e-626f-4f10-8f7e-04706b72de2a .title{text-anchor:middle}#chart-dfdd288e-626f-4f10-8f7e-04706b72de2a .legends .legend text{fill-opacity:1}#chart-dfdd288e-626f-4f10-8f7e-04706b72de2a .axis.x text{text-anchor:middle}#chart-dfdd288e-626f-4f10-8f7e-04706b72de2a .axis.x:not(.web) text[transform]{text-anchor:start}#chart-dfdd288e-626f-4f10-8f7e-04706b72de2a .axis.x:not(.web) text[transform].backwards{text-anchor:end}#chart-dfdd288e-626f-4f10-8f7e-04706b72de2a .axis.y text{text-anchor:end}#chart-dfdd288e-626f-4f10-8f7e-04706b72de2a .axis.y text[transform].backwards{text-anchor:start}#chart-dfdd288e-626f-4f10-8f7e-04706b72de2a .axis.y2 text{text-anchor:start}#chart-dfdd288e-626f-4f10-8f7e-04706b72de2a .axis.y2 text[transform].backwards{text-anchor:end}#chart-dfdd288e-626f-4f10-8f7e-04706b72de2a .axis .guide.line{stroke-dasharray:4,4;stroke:black}#chart-dfdd288e-626f-4f10-8f7e-04706b72de2a .axis .major.guide.line{stroke-dasharray:6,6;stroke:black}#chart-dfdd288e-626f-4f10-8f7e-04706b72de2a .horizontal .axis.y .guide.line,#chart-dfdd288e-626f-4f10-8f7e-04706b72de2a .horizontal .axis.y2 .guide.line,#chart-dfdd288e-626f-4f10-8f7e-04706b72de2a .vertical .axis.x .guide.line{opacity:0}#chart-dfdd288e-626f-4f10-8f7e-04706b72de2a .horizontal .axis.always_show .guide.line,#chart-dfdd288e-626f-4f10-8f7e-04706b72de2a .vertical .axis.always_show .guide.line{opacity:1 !important}#chart-dfdd288e-626f-4f10-8f7e-04706b72de2a .axis.y .guides:hover .guide.line,#chart-dfdd288e-626f-4f10-8f7e-04706b72de2a .axis.y2 .guides:hover .guide.line,#chart-dfdd288e-626f-4f10-8f7e-04706b72de2a .axis.x .guides:hover .guide.line{opacity:1}#chart-dfdd288e-626f-4f10-8f7e-04706b72de2a .axis .guides:hover text{opacity:1}#chart-dfdd288e-626f-4f10-8f7e-04706b72de2a .nofill{fill:none}#chart-dfdd288e-626f-4f10-8f7e-04706b72de2a .subtle-fill{fill-opacity:.2}#chart-dfdd288e-626f-4f10-8f7e-04706b72de2a .dot{stroke-width:1px;fill-opacity:1;stroke-opacity:1}#chart-dfdd288e-626f-4f10-8f7e-04706b72de2a .dot.active{stroke-width:5px}#chart-dfdd288e-626f-4f10-8f7e-04706b72de2a .dot.negative{fill:transparent}#chart-dfdd288e-626f-4f10-8f7e-04706b72de2a text,#chart-dfdd288e-626f-4f10-8f7e-04706b72de2a tspan{stroke:none !important}#chart-dfdd288e-626f-4f10-8f7e-04706b72de2a .series text.active{opacity:1}#chart-dfdd288e-626f-4f10-8f7e-04706b72de2a .tooltip rect{fill-opacity:.95;stroke-width:.5}#chart-dfdd288e-626f-4f10-8f7e-04706b72de2a .tooltip text{fill-opacity:1}#chart-dfdd288e-626f-4f10-8f7e-04706b72de2a .showable{visibility:hidden}#chart-dfdd288e-626f-4f10-8f7e-04706b72de2a .showable.shown{visibility:visible}#chart-dfdd288e-626f-4f10-8f7e-04706b72de2a .gauge-background{fill:rgba(229,229,229,1);stroke:none}#chart-dfdd288e-626f-4f10-8f7e-04706b72de2a .bg-lines{stroke:rgba(249,249,249,1);stroke-width:2px}</style><script type="text/javascript">window.pygal = window.pygal || {};window.pygal.config = window.pygal.config || {};window.pygal.config['dfdd288e-626f-4f10-8f7e-04706b72de2a'] = {"allow_interruptions": false, "box_mode": "extremes", "classes": ["pygal-chart", "pygal-sparkline"], "css": ["file://style.css", "file://graph.css"], "defs": [], "disable_xml_declaration": false, "dots_size": 2.5, "dynamic_print_values": false, "explicit_size": true, "fill": false, "force_uri_protocol": "https", "formatter": null, "half_pie": false, "height": 50, "include_x_axis": false, "inner_radius": 0, "interpolate": "cubic", "interpolation_parameters": {}, "interpolation_precision": 250, "inverse_y_axis": false, "js": [], "legend_at_bottom": false, "legend_at_bottom_columns": null, "legend_box_size": 12, "logarithmic": false, "margin": 10, "margin_bottom": null, "margin_left": null, "margin_right": null, "margin_top": null, "max_scale": 2, "min_scale": 1, "missing_value_fill_truncation": "x", "no_data_text": "", "no_prefix": false, "order_min": null, "pretty_print": false, "print_labels": false, "print_values": false, "print_values_position": "center", "print_zeroes": true, "range": null, "rounded_bars": null, "secondary_range": null, "show_dots": false, "show_legend": false, "show_minor_x_labels": true, "show_minor_y_labels": true, "show_only_major_dots": false, "show_x_guides": false, "show_x_labels": false, "show_y_guides": true, "show_y_labels": true, "spacing": 0, "stack_from_top": false, "strict": false, "stroke": true, "stroke_style": null, "style": {"background": "rgba(249, 249, 249, 1)", "ci_colors": [], "colors": ["#F44336", "#3F51B5", "#009688", "#FFC107", "#FF5722", "#9C27B0", "#03A9F4", "#8BC34A", "#FF9800", "#E91E63", "#2196F3", "#4CAF50", "#FFEB3B", "#673AB7", "#00BCD4", "#CDDC39", "#9E9E9E", "#607D8B"], "dot_opacity": "1", "font_family": "Consolas, \"Liberation Mono\", Menlo, Courier, monospace", "foreground": "rgba(0, 0, 0, .87)", "foreground_strong": "rgba(0, 0, 0, 1)", "foreground_subtle": "rgba(0, 0, 0, .54)", "guide_stroke_color": "black", "guide_stroke_dasharray": "4,4", "label_font_family": "Consolas, \"Liberation Mono\", Menlo, Courier, monospace", "label_font_size": 10, "legend_font_family": "Consolas, \"Liberation Mono\", Menlo, Courier, monospace", "legend_font_size": 14, "major_guide_stroke_color": "black", "major_guide_stroke_dasharray": "6,6", "major_label_font_family": "Consolas, \"Liberation Mono\", Menlo, Courier, monospace", "major_label_font_size": 10, "no_data_font_family": "Consolas, \"Liberation Mono\", Menlo, Courier, monospace", "no_data_font_size": 64, "opacity": ".7", "opacity_hover": ".8", "plot_background": "rgba(255, 255, 255, 1)", "stroke_opacity": ".8", "stroke_opacity_hover": ".9", "stroke_width": "1", "stroke_width_hover": "4", "title_font_family": "Consolas, \"Liberation Mono\", Menlo, Courier, monospace", "title_font_size": 16, "tooltip_font_family": "Consolas, \"Liberation Mono\", Menlo, Courier, monospace", "tooltip_font_size": 14, "transition": "150ms", "value_background": "rgba(229, 229, 229, 1)", "value_colors": [], "value_font_family": "Consolas, \"Liberation Mono\", Menlo, Courier, monospace", "value_font_size": 16, "value_label_font_family": "Consolas, \"Liberation Mono\", Menlo, Courier, monospace", "value_label_font_size": 10}, "title": null, "tooltip_border_radius": 0, "tooltip_fancy_mode": true, "truncate_label": null, "truncate_legend": null, "width": 200, "x_label_rotation": 0, "x_labels": ["2024/8", "2024/7", "2024/6", "2024/5", "2024/3", "2024/1", "2023/8", "2023/6", "2023/3", "2023/1"], "x_labels_major": null, "x_labels_major_count": null, "x_labels_major_every": null, "x_title": null, "xrange": null, "y_label_rotation": 0, "y_labels": null, "y_labels_major": null, "y_labels_major_count": null, "y_labels_major_every": null, "y_title": null, "zero": 0, "legends": [""]}</script></defs><title>Pygal</title><g class="graph line-graph vertical"><rect x="0" y="0" width="200" height="50" class="background" /><g transform="translate(76, 10)" class="plot"><rect x="0" y="0" width="114.0" height="30" class="background" /><g class="axis y always_show"><path d="M0.000000 30.000000 h114.000000" class="line" /><g class="guides"><path d="M0.000000 29.423077 h114.000000" class="guide line" /><text x="-5" y="32.92307692307692" class="">0.642923787</text><title>0.642923787</title></g><g class="guides"><path d="M0.000000 0.576923 h114.000000" class="guide line" /><text x="-5" y="4.076923076923073" class="">10.00431101</text><title>10.00431101</title></g></g><g class="series serie-0 color-0"><path d="M2.192308 22.159989 L2.241026 22.033106 2.289744 21.906227 2.338462 21.779356 2.387179 21.652497 2.435897 21.525654 2.484615 21.398830 2.533333 21.272029 2.582051 21.145256 2.630769 21.018513 2.679487 20.891806 2.728205 20.765138 2.776923 20.638513 2.825641 20.511934 2.874359 20.385406 2.923077 20.258933 2.971795 20.132518 3.020513 20.006166 3.069231 19.879880 3.117949 19.753664 3.166667 19.627522 3.215385 19.501458 3.264103 19.375476 3.312821 19.249579 3.361538 19.123773 3.410256 18.998060 3.458974 18.872444 3.507692 18.746930 3.556410 18.621520 3.605128 18.496221 3.653846 18.371034 3.702564 18.245964 3.751282 18.121014 3.800000 17.996190 3.848718 17.871494 3.897436 17.746931 3.946154 17.622504 3.994872 17.498218 4.043590 17.374076 4.092308 17.250081 4.141026 17.126239 4.189744 17.002553 4.238462 16.879027 4.287179 16.755664 4.335897 16.632469 4.384615 16.509445 4.433333 16.386597 4.482051 16.263928 4.530769 16.141443 4.579487 16.019144 4.628205 15.897037 4.676923 15.775124 4.725641 15.653410 4.774359 15.531899 4.823077 15.410595 4.871795 15.289501 4.920513 15.168621 4.969231 15.047960 5.017949 14.927521 5.066667 14.807308 5.115385 14.687324 5.164103 14.567575 5.212821 14.448064 5.261538 14.328794 5.310256 14.209770 5.358974 14.090995 5.407692 13.972474 5.456410 13.854210 5.505128 13.736207 5.553846 13.618469 5.602564 13.501000 5.651282 13.383804 5.700000 13.266885 5.748718 13.150246 5.797436 13.033892 5.846154 12.917826 5.894872 12.802053 5.943590 12.686576 5.992308 12.571399 6.041026 12.456526 6.089744 12.341961 6.138462 12.227708 6.187179 12.113771 6.235897 12.000153 6.284615 11.886859 6.333333 11.773892 6.382051 11.661257 6.430769 11.548957 6.479487 11.436996 6.528205 11.325378 6.576923 11.214107 6.625641 11.103187 6.674359 10.992621 6.723077 10.882414 6.771795 10.772570 6.820513 10.663092 6.869231 10.553984 6.917949 10.445250 6.966667 10.336895 7.015385 10.228922 7.064103 10.121334 7.112821 10.014136 7.161538 9.907332 7.210256 9.800926 7.258974 9.694921 7.307692 9.589322 7.356410 9.484131 7.405128 9.379354 7.453846 9.274994 7.502564 9.171055 7.551282 9.067541 7.600000 8.964456 7.648718 8.861803 7.697436 8.759587 7.746154 8.657812 7.794872 8.556480 7.843590 8.455597 7.892308 8.355167 7.941026 8.255192 7.989744 8.155677 8.038462 8.056626 8.087179 7.958043 8.135897 7.859932 8.184615 7.762296 8.233333 7.665139 8.282051 7.568466 8.330769 7.472280 8.379487 7.376586 8.428205 7.281386 8.476923 7.186685 8.525641 7.092487 8.574359 6.998796 8.623077 6.905616 8.671795 6.812950 8.720513 6.720802 8.769231 6.629177 8.817949 6.538078 8.866667 6.447509 8.915385 6.357474 8.964103 6.267977 9.012821 6.179022 9.061538 6.090613 9.110256 6.002753 9.158974 5.915447 9.207692 5.828698 9.256410 5.742510 9.305128 5.656888 9.353846 5.571835 9.402564 5.487355 9.451282 5.403451 9.500000 5.320129 9.548718 5.237391 9.597436 5.155242 9.646154 5.073685 9.694872 4.992725 9.743590 4.912365 9.792308 4.832609 9.841026 4.753461 9.889744 4.674926 9.938462 4.597006 9.987179 4.519706 10.035897 4.443029 10.084615 4.366980 10.133333 4.291563 10.182051 4.216781 10.230769 4.142638 10.279487 4.069139 10.328205 3.996286 10.376923 3.924085 10.425641 3.852538 10.474359 3.781650 10.523077 3.711425 10.571795 3.641866 10.620513 3.572978 10.669231 3.504764 10.717949 3.437228 10.766667 3.370375 10.815385 3.304207 10.864103 3.238730 10.912821 3.173946 10.961538 3.109860 11.010256 3.046476 11.058974 2.983797 11.107692 2.921828 11.156410 2.860572 11.205128 2.800033 11.253846 2.740216 11.302564 2.681123 11.351282 2.622759 11.400000 2.565128 11.448718 2.508234 11.497436 2.452081 11.546154 2.396672 11.594872 2.342011 11.643590 2.288103 11.692308 2.234951 11.741026 2.182559 11.789744 2.130931 11.838462 2.080071 11.887179 2.029983 11.935897 1.980670 11.984615 1.932137 12.033333 1.884388 12.082051 1.837426 12.130769 1.791255 12.179487 1.745880 12.228205 1.701303 12.276923 1.657530 12.325641 1.614563 12.374359 1.572407 12.423077 1.531066 12.471795 1.490543 12.520513 1.450843 12.569231 1.411970 12.617949 1.373926 12.666667 1.336717 12.715385 1.300346 12.764103 1.264817 12.812821 1.230133 12.861538 1.196300 12.910256 1.163320 12.958974 1.131197 13.007692 1.099936 13.056410 1.069541 13.105128 1.040014 13.153846 1.011361 13.202564 0.983585 13.251282 0.956690 13.300000 0.930680 13.348718 0.905558 13.397436 0.881329 13.446154 0.857997 13.494872 0.835565 13.543590 0.814037 13.592308 0.793417 13.641026 0.773710 13.689744 0.754919 13.738462 0.737048 13.787179 0.720100 13.835897 0.704080 13.884615 0.688992 13.933333 0.674839 13.982051 0.661626 14.030769 0.649356 14.079487 0.638034 14.128205 0.627662 14.176923 0.618245 14.225641 0.609788 14.274359 0.602293 14.323077 0.595765 14.371795 0.590207 14.420513 0.585622 14.469231 0.582007 14.517949 0.579355 14.566667 0.577663 14.615385 0.576923 14.664103 0.577132 14.712821 0.578283 14.761538 0.580372 14.810256 0.583392 14.858974 0.587340 14.907692 0.592210 14.956410 0.597995 15.005128 0.604692 15.053846 0.612294 15.102564 0.620797 15.151282 0.630195 15.200000 0.640483 15.248718 0.651655 15.297436 0.663707 15.346154 0.676632 15.394872 0.690427 15.443590 0.705084 15.492308 0.720600 15.541026 0.736968 15.589744 0.754185 15.638462 0.772243 15.687179 0.791138 15.735897 0.810865 15.784615 0.831418 15.833333 0.852792 15.882051 0.874982 15.930769 0.897983 15.979487 0.921789 16.028205 0.946394 16.076923 0.971795 16.125641 0.997984 16.174359 1.024958 16.223077 1.052710 16.271795 1.081236 16.320513 1.110530 16.369231 1.140586 16.417949 1.171401 16.466667 1.202967 16.515385 1.235281 16.564103 1.268336 16.612821 1.302128 16.661538 1.336651 16.710256 1.371900 16.758974 1.407869 16.807692 1.444553 16.856410 1.481948 16.905128 1.520047 16.953846 1.558845 17.002564 1.598338 17.051282 1.638519 17.100000 1.679384 17.148718 1.720927 17.197436 1.763143 17.246154 1.806026 17.294872 1.849572 17.343590 1.893775 17.392308 1.938630 17.441026 1.984131 17.489744 2.030273 17.538462 2.077051 17.587179 2.124460 17.635897 2.172494 17.684615 2.221148 17.733333 2.270417 17.782051 2.320296 17.830769 2.370778 17.879487 2.421859 17.928205 2.473534 17.976923 2.525797 18.025641 2.578643 18.074359 2.632067 18.123077 2.686063 18.171795 2.740626 18.220513 2.795751 18.269231 2.851433 18.317949 2.907665 18.366667 2.964444 18.415385 3.021763 18.464103 3.079618 18.512821 3.138003 18.561538 3.196912 18.610256 3.256341 18.658974 3.316285 18.707692 3.376737 18.756410 3.437693 18.805128 3.499147 18.853846 3.561094 18.902564 3.623528 18.951282 3.686446 19.000000 3.749840 19.048718 3.813706 19.097436 3.878039 19.146154 3.942833 19.194872 4.008083 19.243590 4.073784 19.292308 4.139931 19.341026 4.206517 19.389744 4.273538 19.438462 4.340989 19.487179 4.408864 19.535897 4.477158 19.584615 4.545865 19.633333 4.614981 19.682051 4.684500 19.730769 4.754417 19.779487 4.824726 19.828205 4.895423 19.876923 4.966501 19.925641 5.037957 19.974359 5.109783 20.023077 5.181975 20.071795 5.254529 20.120513 5.327437 20.169231 5.400696 20.217949 5.474300 20.266667 5.548243 20.315385 5.622521 20.364103 5.697128 20.412821 5.772058 20.461538 5.847307 20.510256 5.922869 20.558974 5.998739 20.607692 6.074911 20.656410 6.151381 20.705128 6.228142 20.753846 6.305190 20.802564 6.382520 20.851282 6.460126 20.900000 6.538003 20.948718 6.616145 20.997436 6.694547 21.046154 6.773204 21.094872 6.852111 21.143590 6.931262 21.192308 7.010653 21.241026 7.090277 21.289744 7.170130 21.338462 7.250205 21.387179 7.330499 21.435897 7.411005 21.484615 7.491719 21.533333 7.572635 21.582051 7.653747 21.630769 7.735051 21.679487 7.816541 21.728205 7.898212 21.776923 7.980058 21.825641 8.062075 21.874359 8.144257 21.923077 8.226598 21.971795 8.309094 22.020513 8.391739 22.069231 8.474528 22.117949 8.557455 22.166667 8.640516 22.215385 8.723704 22.264103 8.807015 22.312821 8.890444 22.361538 8.973985 22.410256 9.057632 22.458974 9.141381 22.507692 9.225226 22.556410 9.309162 22.605128 9.393184 22.653846 9.477286 22.702564 9.561463 22.751282 9.645710 22.800000 9.730022 22.848718 9.814392 22.897436 9.898817 22.946154 9.983290 22.994872 10.067806 23.043590 10.152360 23.092308 10.236947 23.141026 10.321562 23.189744 10.406198 23.238462 10.490852 23.287179 10.575517 23.335897 10.660188 23.384615 10.744860 23.433333 10.829528 23.482051 10.914187 23.530769 10.998830 23.579487 11.083453 23.628205 11.168051 23.676923 11.252618 23.725641 11.337149 23.774359 11.421639 23.823077 11.506082 23.871795 11.590473 23.920513 11.674807 23.969231 11.759078 24.017949 11.843281 24.066667 11.927412 24.115385 12.011464 24.164103 12.095432 24.212821 12.179312 24.261538 12.263097 24.310256 12.346782 24.358974 12.430363 24.407692 12.513834 24.456410 12.597189 24.505128 12.680423 24.553846 12.763532 24.602564 12.846509 24.651282 12.929349 24.700000 13.012048 24.748718 13.094600 24.797436 13.176999 24.846154 13.259240 24.894872 13.341318 24.943590 13.423228 24.992308 13.504965 25.041026 13.586522 25.089744 13.667895 25.138462 13.749079 25.187179 13.830068 25.235897 13.910857 25.284615 13.991440 25.333333 14.071813 25.382051 14.151970 25.430769 14.231905 25.479487 14.311615 25.528205 14.391092 25.576923 14.470332 25.625641 14.549330 25.674359 14.628080 25.723077 14.706577 25.771795 14.784816 25.820513 14.862791 25.869231 14.940497 25.917949 15.017930 25.966667 15.095082 26.015385 15.171950 26.064103 15.248529 26.112821 15.324811 26.161538 15.400793 26.210256 15.476470 26.258974 15.551835 26.307692 15.626883 26.356410 15.701610 26.405128 15.776010 26.453846 15.850077 26.502564 15.923807 26.551282 15.997194 26.600000 16.070233 26.648718 16.142926 26.697436 16.215271 26.746154 16.287270 26.794872 16.358924 26.843590 16.430233 26.892308 16.501198 26.941026 16.571819 26.989744 16.642098 27.038462 16.712035 27.087179 16.781631 27.135897 16.850887 27.184615 16.919802 27.233333 16.988379 27.282051 17.056617 27.330769 17.124517 27.379487 17.192080 27.428205 17.259307 27.476923 17.326199 27.525641 17.392755 27.574359 17.458977 27.623077 17.524866 27.671795 17.590422 27.720513 17.655645 27.769231 17.720538 27.817949 17.785099 27.866667 17.849331 27.915385 17.913233 27.964103 17.976807 28.012821 18.040052 28.061538 18.102971 28.110256 18.165563 28.158974 18.227829 28.207692 18.289770 28.256410 18.351386 28.305128 18.412679 28.353846 18.473649 28.402564 18.534296 28.451282 18.594622 28.500000 18.654627 28.548718 18.714312 28.597436 18.773677 28.646154 18.832723 28.694872 18.891452 28.743590 18.949862 28.792308 19.007956 28.841026 19.065734 28.889744 19.123197 28.938462 19.180345 28.987179 19.237179 29.035897 19.293700 29.084615 19.349909 29.133333 19.405805 29.182051 19.461391 29.230769 19.516666 29.279487 19.571631 29.328205 19.626288 29.376923 19.680636 29.425641 19.734676 29.474359 19.788409 29.523077 19.841837 29.571795 19.894958 29.620513 19.947775 29.669231 20.000288 29.717949 20.052497 29.766667 20.104404 29.815385 20.156008 29.864103 20.207311 29.912821 20.258314 29.961538 20.309017 30.010256 20.359420 30.058974 20.409525 30.107692 20.459332 30.156410 20.508842 30.205128 20.558056 30.253846 20.606973 30.302564 20.655596 30.351282 20.703925 30.400000 20.751959 30.448718 20.799701 30.497436 20.847151 30.546154 20.894309 30.594872 20.941176 30.643590 20.987754 30.692308 21.034041 30.741026 21.080040 30.789744 21.125751 30.838462 21.171175 30.887179 21.216312 30.935897 21.261163 30.984615 21.305729 31.033333 21.350010 31.082051 21.394008 31.130769 21.437722 31.179487 21.481154 31.228205 21.524305 31.276923 21.567174 31.325641 21.609763 31.374359 21.652072 31.423077 21.694102 31.471795 21.735854 31.520513 21.777329 31.569231 21.818527 31.617949 21.859448 31.666667 21.900094 31.715385 21.940466 31.764103 21.980563 31.812821 22.020387 31.861538 22.059939 31.910256 22.099218 31.958974 22.138227 32.007692 22.176964 32.056410 22.215432 32.105128 22.253631 32.153846 22.291561 32.202564 22.329224 32.251282 22.366620 32.300000 22.403749 32.348718 22.440613 32.397436 22.477211 32.446154 22.513546 32.494872 22.549617 32.543590 22.585425 32.592308 22.620971 32.641026 22.656255 32.689744 22.691279 32.738462 22.726043 32.787179 22.760547 32.835897 22.794793 32.884615 22.828781 32.933333 22.862512 32.982051 22.895986 33.030769 22.929204 33.079487 22.962167 33.128205 22.994876 33.176923 23.027331 33.225641 23.059533 33.274359 23.091483 33.323077 23.123181 33.371795 23.154628 33.420513 23.185825 33.469231 23.216772 33.517949 23.247470 33.566667 23.277921 33.615385 23.308124 33.664103 23.338080 33.712821 23.367790 33.761538 23.397255 33.810256 23.426475 33.858974 23.455451 33.907692 23.484184 33.956410 23.512675 34.005128 23.540923 34.053846 23.568931 34.102564 23.596698 34.151282 23.624225 34.200000 23.651514 34.248718 23.678564 34.297436 23.705376 34.346154 23.731951 34.394872 23.758290 34.443590 23.784394 34.492308 23.810263 34.541026 23.835898 34.589744 23.861299 34.638462 23.886467 34.687179 23.911404 34.735897 23.936109 34.784615 23.960583 34.833333 23.984828 34.882051 24.008843 34.930769 24.032630 34.979487 24.056189 35.028205 24.079521 35.076923 24.102626 35.125641 24.125506 35.174359 24.148160 35.223077 24.170591 35.271795 24.192797 35.320513 24.214781 35.369231 24.236542 35.417949 24.258082 35.466667 24.279401 35.515385 24.300500 35.564103 24.321380 35.612821 24.342041 35.661538 24.362483 35.710256 24.382709 35.758974 24.402718 35.807692 24.422510 35.856410 24.442088 35.905128 24.461451 35.953846 24.480600 36.002564 24.499536 36.051282 24.518260 36.100000 24.536772 36.148718 24.555073 36.197436 24.573163 36.246154 24.591044 36.294872 24.608716 36.343590 24.626180 36.392308 24.643436 36.441026 24.660485 36.489744 24.677328 36.538462 24.693966 36.587179 24.710399 36.635897 24.726628 36.684615 24.742654 36.733333 24.758477 36.782051 24.774098 36.830769 24.789518 36.879487 24.804737 36.928205 24.819757 36.976923 24.834577 37.025641 24.849199 37.074359 24.863623 37.123077 24.877850 37.171795 24.891881 37.220513 24.905716 37.269231 24.919356 37.317949 24.932802 37.366667 24.946054 37.415385 24.959114 37.464103 24.971981 37.512821 24.984657 37.561538 24.997142 37.610256 25.009438 37.658974 25.021544 37.707692 25.033461 37.756410 25.045190 37.805128 25.056732 37.853846 25.068088 37.902564 25.079257 37.951282 25.090242 38.000000 25.101042 38.048718 25.111658 38.097436 25.122091 38.146154 25.132342 38.194872 25.142412 38.243590 25.152300 38.292308 25.162008 38.341026 25.171537 38.389744 25.180886 38.438462 25.190058 38.487179 25.199052 38.535897 25.207870 38.584615 25.216511 38.633333 25.224977 38.682051 25.233268 38.730769 25.241386 38.779487 25.249330 38.828205 25.257103 38.876923 25.264704 38.925641 25.272137 38.974359 25.279401 39.023077 25.286499 39.071795 25.293431 39.120513 25.300199 39.169231 25.306805 39.217949 25.313249 39.266667 25.319533 39.315385 25.325658 39.364103 25.331625 39.412821 25.337436 39.461538 25.343092 39.510256 25.348595 39.558974 25.353945 39.607692 25.359145 39.656410 25.364194 39.705128 25.369096 39.753846 25.373850 39.802564 25.378458 39.851282 25.382922 39.900000 25.387243 39.948718 25.391422 39.997436 25.395460 40.046154 25.399359 40.094872 25.403120 40.143590 25.406745 40.192308 25.410234 40.241026 25.413589 40.289744 25.416812 40.338462 25.419903 40.387179 25.422864 40.435897 25.425696 40.484615 25.428401 40.533333 25.430980 40.582051 25.433434 40.630769 25.435764 40.679487 25.437972 40.728205 25.440059 40.776923 25.442027 40.825641 25.443876 40.874359 25.445608 40.923077 25.447225 40.971795 25.448727 41.020513 25.450116 41.069231 25.451393 41.117949 25.452560 41.166667 25.453618 41.215385 25.454567 41.264103 25.455411 41.312821 25.456149 41.361538 25.456783 41.410256 25.457315 41.458974 25.457745 41.507692 25.458075 41.556410 25.458307 41.605128 25.458441 41.653846 25.458479 41.702564 25.458422 41.751282 25.458272 41.800000 25.458030 41.848718 25.457697 41.897436 25.457274 41.946154 25.456763 41.994872 25.456165 42.043590 25.455482 42.092308 25.454714 42.141026 25.453864 42.189744 25.452931 42.238462 25.451919 42.287179 25.450827 42.335897 25.449657 42.384615 25.448411 42.433333 25.447090 42.482051 25.445695 42.530769 25.444227 42.579487 25.442689 42.628205 25.441080 42.676923 25.439403 42.725641 25.437658 42.774359 25.435847 42.823077 25.433972 42.871795 25.432034 42.920513 25.430033 42.969231 25.427971 43.017949 25.425851 43.066667 25.423671 43.115385 25.421436 43.164103 25.419144 43.212821 25.416799 43.261538 25.414400 43.310256 25.411950 43.358974 25.409449 43.407692 25.406900 43.456410 25.404303 43.505128 25.401659 43.553846 25.398971 43.602564 25.396239 43.651282 25.393464 43.700000 25.390648 43.748718 25.387792 43.797436 25.384898 43.846154 25.381967 43.894872 25.378999 43.943590 25.375997 43.992308 25.372962 44.041026 25.369895 44.089744 25.366797 44.138462 25.363670 44.187179 25.360515 44.235897 25.357333 44.284615 25.354125 44.333333 25.350893 44.382051 25.347639 44.430769 25.344363 44.479487 25.341067 44.528205 25.337752 44.576923 25.334419 44.625641 25.331070 44.674359 25.327706 44.723077 25.324328 44.771795 25.320938 44.820513 25.317537 44.869231 25.314127 44.917949 25.310707 44.966667 25.307281 45.015385 25.303849 45.064103 25.300412 45.112821 25.296972 45.161538 25.293530 45.210256 25.290088 45.258974 25.286646 45.307692 25.283207 45.356410 25.279770 45.405128 25.276338 45.453846 25.272913 45.502564 25.269494 45.551282 25.266084 45.600000 25.262684 45.648718 25.259295 45.697436 25.255919 45.746154 25.252556 45.794872 25.249209 45.843590 25.245878 45.892308 25.242564 45.941026 25.239270 45.989744 25.235996 46.038462 25.232744 46.087179 25.229514 46.135897 25.226309 46.184615 25.223130 46.233333 25.219977 46.282051 25.216853 46.330769 25.213757 46.379487 25.210693 46.428205 25.207661 46.476923 25.204662 46.525641 25.201698 46.574359 25.198771 46.623077 25.195880 46.671795 25.193028 46.720513 25.190216 46.769231 25.187445 46.817949 25.184717 46.866667 25.182033 46.915385 25.179394 46.964103 25.176801 47.012821 25.174256 47.061538 25.171761 47.110256 25.169315 47.158974 25.166922 47.207692 25.164581 47.256410 25.162295 47.305128 25.160065 47.353846 25.157891 47.402564 25.155776 47.451282 25.153720 47.500000 25.151725 47.548718 25.149792 47.597436 25.147923 47.646154 25.146119 47.694872 25.144381 47.743590 25.142710 47.792308 25.141108 47.841026 25.139576 47.889744 25.138115 47.938462 25.136727 47.987179 25.135413 48.035897 25.134174 48.084615 25.133012 48.133333 25.131928 48.182051 25.130923 48.230769 25.129998 48.279487 25.129155 48.328205 25.128395 48.376923 25.127720 48.425641 25.127130 48.474359 25.126628 48.523077 25.126214 48.571795 25.125889 48.620513 25.125656 48.669231 25.125514 48.717949 25.125467 48.766667 25.125514 48.815385 25.125657 48.864103 25.125898 48.912821 25.126238 48.961538 25.126678 49.010256 25.127219 49.058974 25.127863 49.107692 25.128611 49.156410 25.129464 49.205128 25.130425 49.253846 25.131493 49.302564 25.132670 49.351282 25.133958 49.400000 25.135358 49.448718 25.136871 49.497436 25.138498 49.546154 25.140241 49.594872 25.142102 49.643590 25.144081 49.692308 25.146179 49.741026 25.148399 49.789744 25.150741 49.838462 25.153207 49.887179 25.155797 49.935897 25.158514 49.984615 25.161359 50.033333 25.164332 50.082051 25.167436 50.130769 25.170671 50.179487 25.174039 50.228205 25.177541 50.276923 25.181178 50.325641 25.184953 50.374359 25.188865 50.423077 25.192917 50.471795 25.197109 50.520513 25.201443 50.569231 25.205921 50.617949 25.210543 50.666667 25.215311 50.715385 25.220226 50.764103 25.225290 50.812821 25.230504 50.861538 25.235869 50.910256 25.241386 50.958974 25.247056 51.007692 25.252879 51.056410 25.258854 51.105128 25.264979 51.153846 25.271252 51.202564 25.277673 51.251282 25.284241 51.300000 25.290954 51.348718 25.297812 51.397436 25.304812 51.446154 25.311954 51.494872 25.319237 51.543590 25.326659 51.592308 25.334219 51.641026 25.341916 51.689744 25.349749 51.738462 25.357716 51.787179 25.365817 51.835897 25.374050 51.884615 25.382414 51.933333 25.390908 51.982051 25.399530 52.030769 25.408280 52.079487 25.417156 52.128205 25.426157 52.176923 25.435281 52.225641 25.444529 52.274359 25.453897 52.323077 25.463386 52.371795 25.472994 52.420513 25.482719 52.469231 25.492562 52.517949 25.502519 52.566667 25.512591 52.615385 25.522776 52.664103 25.533072 52.712821 25.543479 52.761538 25.553996 52.810256 25.564620 52.858974 25.575352 52.907692 25.586189 52.956410 25.597132 53.005128 25.608177 53.053846 25.619325 53.102564 25.630573 53.151282 25.641922 53.200000 25.653369 53.248718 25.664914 53.297436 25.676554 53.346154 25.688290 53.394872 25.700119 53.443590 25.712042 53.492308 25.724055 53.541026 25.736159 53.589744 25.748352 53.638462 25.760632 53.687179 25.773000 53.735897 25.785452 53.784615 25.797989 53.833333 25.810609 53.882051 25.823311 53.930769 25.836093 53.979487 25.848955 54.028205 25.861895 54.076923 25.874912 54.125641 25.888005 54.174359 25.901172 54.223077 25.914413 54.271795 25.927726 54.320513 25.941111 54.369231 25.954565 54.417949 25.968087 54.466667 25.981677 54.515385 25.995334 54.564103 26.009055 54.612821 26.022840 54.661538 26.036688 54.710256 26.050598 54.758974 26.064567 54.807692 26.078596 54.856410 26.092682 54.905128 26.106825 54.953846 26.121024 55.002564 26.135277 55.051282 26.149583 55.100000 26.163940 55.148718 26.178349 55.197436 26.192807 55.246154 26.207313 55.294872 26.221866 55.343590 26.236465 55.392308 26.251109 55.441026 26.265796 55.489744 26.280525 55.538462 26.295296 55.587179 26.310106 55.635897 26.324955 55.684615 26.339842 55.733333 26.354764 55.782051 26.369722 55.830769 26.384714 55.879487 26.399738 55.928205 26.414794 55.976923 26.429880 56.025641 26.444996 56.074359 26.460139 56.123077 26.475309 56.171795 26.490504 56.220513 26.505723 56.269231 26.520966 56.317949 26.536231 56.366667 26.551516 56.415385 26.566821 56.464103 26.582144 56.512821 26.597484 56.561538 26.612840 56.610256 26.628210 56.658974 26.643595 56.707692 26.658991 56.756410 26.674399 56.805128 26.689816 56.853846 26.705242 56.902564 26.720676 56.951282 26.736116 57.000000 26.751561 57.048718 26.767010 57.097436 26.782462 57.146154 26.797915 57.194872 26.813369 57.243590 26.828821 57.292308 26.844272 57.341026 26.859719 57.389744 26.875162 57.438462 26.890599 57.487179 26.906029 57.535897 26.921452 57.584615 26.936865 57.633333 26.952267 57.682051 26.967658 57.730769 26.983036 57.779487 26.998399 57.828205 27.013748 57.876923 27.029080 57.925641 27.044394 57.974359 27.059690 58.023077 27.074965 58.071795 27.090219 58.120513 27.105451 58.169231 27.120659 58.217949 27.135842 58.266667 27.150999 58.315385 27.166129 58.364103 27.181231 58.412821 27.196302 58.461538 27.211343 58.510256 27.226352 58.558974 27.241328 58.607692 27.256269 58.656410 27.271174 58.705128 27.286043 58.753846 27.300873 58.802564 27.315665 58.851282 27.330416 58.900000 27.345125 58.948718 27.359791 58.997436 27.374413 59.046154 27.388991 59.094872 27.403521 59.143590 27.418004 59.192308 27.432438 59.241026 27.446823 59.289744 27.461156 59.338462 27.475436 59.387179 27.489663 59.435897 27.503835 59.484615 27.517951 59.533333 27.532010 59.582051 27.546010 59.630769 27.559951 59.679487 27.573831 59.728205 27.587648 59.776923 27.601403 59.825641 27.615093 59.874359 27.628718 59.923077 27.642276 59.971795 27.655766 60.020513 27.669186 60.069231 27.682536 60.117949 27.695815 60.166667 27.709020 60.215385 27.722152 60.264103 27.735209 60.312821 27.748189 60.361538 27.761091 60.410256 27.773915 60.458974 27.786659 60.507692 27.799321 60.556410 27.811901 60.605128 27.824398 60.653846 27.836809 60.702564 27.849135 60.751282 27.861374 60.800000 27.873524 60.848718 27.885584 60.897436 27.897554 60.946154 27.909432 60.994872 27.921216 61.043590 27.932906 61.092308 27.944501 61.141026 27.955998 61.189744 27.967398 61.238462 27.978699 61.287179 27.989899 61.335897 28.000998 61.384615 28.011994 61.433333 28.022885 61.482051 28.033672 61.530769 28.044352 61.579487 28.054925 61.628205 28.065389 61.676923 28.075743 61.725641 28.085986 61.774359 28.096116 61.823077 28.106133 61.871795 28.116035 61.920513 28.125822 61.969231 28.135491 62.017949 28.145041 62.066667 28.154472 62.115385 28.163783 62.164103 28.172971 62.212821 28.182036 62.261538 28.190977 62.310256 28.199792 62.358974 28.208481 62.407692 28.217041 62.456410 28.225473 62.505128 28.233774 62.553846 28.241943 62.602564 28.249980 62.651282 28.257883 62.700000 28.265651 62.748718 28.273282 62.797436 28.280776 62.846154 28.288131 62.894872 28.295346 62.943590 28.302420 62.992308 28.309352 63.041026 28.316140 63.089744 28.322783 63.138462 28.329281 63.187179 28.335634 63.235897 28.341843 63.284615 28.347910 63.333333 28.353835 63.382051 28.359620 63.430769 28.365266 63.479487 28.370774 63.528205 28.376145 63.576923 28.381379 63.625641 28.386479 63.674359 28.391446 63.723077 28.396280 63.771795 28.400983 63.820513 28.405555 63.869231 28.409998 63.917949 28.414314 63.966667 28.418502 64.015385 28.422565 64.064103 28.426503 64.112821 28.430317 64.161538 28.434009 64.210256 28.437580 64.258974 28.441030 64.307692 28.444362 64.356410 28.447576 64.405128 28.450672 64.453846 28.453654 64.502564 28.456520 64.551282 28.459273 64.600000 28.461914 64.648718 28.464444 64.697436 28.466863 64.746154 28.469174 64.794872 28.471377 64.843590 28.473473 64.892308 28.475463 64.941026 28.477349 64.989744 28.479132 65.038462 28.480812 65.087179 28.482391 65.135897 28.483870 65.184615 28.485251 65.233333 28.486533 65.282051 28.487719 65.330769 28.488810 65.379487 28.489806 65.428205 28.490709 65.476923 28.491519 65.525641 28.492239 65.574359 28.492869 65.623077 28.493409 65.671795 28.493863 65.720513 28.494229 65.769231 28.494511 65.817949 28.494708 65.866667 28.494821 65.915385 28.494853 65.964103 28.494804 66.012821 28.494675 66.061538 28.494467 66.110256 28.494181 66.158974 28.493820 66.207692 28.493382 66.256410 28.492871 66.305128 28.492286 66.353846 28.491630 66.402564 28.490902 66.451282 28.490105 66.500000 28.489240 66.548718 28.488306 66.597436 28.487307 66.646154 28.486242 66.694872 28.485113 66.743590 28.483921 66.792308 28.482667 66.841026 28.481352 66.889744 28.479977 66.938462 28.478544 66.987179 28.477054 67.035897 28.475507 67.084615 28.473906 67.133333 28.472250 67.182051 28.470541 67.230769 28.468780 67.279487 28.466969 67.328205 28.465108 67.376923 28.463198 67.425641 28.461242 67.474359 28.459239 67.523077 28.457191 67.571795 28.455099 67.620513 28.452964 67.669231 28.450787 67.717949 28.448570 67.766667 28.446313 67.815385 28.444018 67.864103 28.441686 67.912821 28.439317 67.961538 28.436914 68.010256 28.434476 68.058974 28.432006 68.107692 28.429504 68.156410 28.426972 68.205128 28.424410 68.253846 28.421820 68.302564 28.419203 68.351282 28.416560 68.400000 28.413892 68.448718 28.411200 68.497436 28.408485 68.546154 28.405749 68.594872 28.402992 68.643590 28.400216 68.692308 28.397422 68.741026 28.394611 68.789744 28.391783 68.838462 28.388941 68.887179 28.386085 68.935897 28.383217 68.984615 28.380337 69.033333 28.377447 69.082051 28.374547 69.130769 28.371640 69.179487 28.368725 69.228205 28.365804 69.276923 28.362879 69.325641 28.359950 69.374359 28.357019 69.423077 28.354086 69.471795 28.351153 69.520513 28.348220 69.569231 28.345290 69.617949 28.342363 69.666667 28.339440 69.715385 28.336522 69.764103 28.333611 69.812821 28.330707 69.861538 28.327812 69.910256 28.324927 69.958974 28.322053 70.007692 28.319190 70.056410 28.316341 70.105128 28.313507 70.153846 28.310687 70.202564 28.307884 70.251282 28.305099 70.300000 28.302333 70.348718 28.299586 70.397436 28.296861 70.446154 28.294157 70.494872 28.291477 70.543590 28.288821 70.592308 28.286191 70.641026 28.283587 70.689744 28.281011 70.738462 28.278464 70.787179 28.275947 70.835897 28.273461 70.884615 28.271007 70.933333 28.268587 70.982051 28.266201 71.030769 28.263851 71.079487 28.261537 71.128205 28.259261 71.176923 28.257024 71.225641 28.254827 71.274359 28.252671 71.323077 28.250558 71.371795 28.248488 71.420513 28.246462 71.469231 28.244482 71.517949 28.242549 71.566667 28.240664 71.615385 28.238828 71.664103 28.237042 71.712821 28.235307 71.761538 28.233625 71.810256 28.231996 71.858974 28.230422 71.907692 28.228903 71.956410 28.227441 72.005128 28.226038 72.053846 28.224693 72.102564 28.223409 72.151282 28.222186 72.200000 28.221025 72.248718 28.219929 72.297436 28.218896 72.346154 28.217930 72.394872 28.217030 72.443590 28.216199 72.492308 28.215437 72.541026 28.214745 72.589744 28.214125 72.638462 28.213577 72.687179 28.213102 72.735897 28.212703 72.784615 28.212379 72.833333 28.212133 72.882051 28.211965 72.930769 28.211875 72.979487 28.211867 73.028205 28.211940 73.076923 28.212095 73.125641 28.212334 73.174359 28.212658 73.223077 28.213068 73.271795 28.213566 73.320513 28.214151 73.369231 28.214826 73.417949 28.215591 73.466667 28.216448 73.515385 28.217397 73.564103 28.218441 73.612821 28.219579 73.661538 28.220814 73.710256 28.222145 73.758974 28.223575 73.807692 28.225105 73.856410 28.226735 73.905128 28.228466 73.953846 28.230301 74.002564 28.232239 74.051282 28.234282 74.100000 28.236432 74.148718 28.238689 74.197436 28.241054 74.246154 28.243529 74.294872 28.246114 74.343590 28.248812 74.392308 28.251622 74.441026 28.254546 74.489744 28.257585 74.538462 28.260740 74.587179 28.264013 74.635897 28.267404 74.684615 28.270915 74.733333 28.274547 74.782051 28.278300 74.830769 28.282177 74.879487 28.286177 74.928205 28.290303 74.976923 28.294555 75.025641 28.298935 75.074359 28.303443 75.123077 28.308081 75.171795 28.312849 75.220513 28.317750 75.269231 28.322783 75.317949 28.327950 75.366667 28.333250 75.415385 28.338679 75.464103 28.344236 75.512821 28.349919 75.561538 28.355726 75.610256 28.361654 75.658974 28.367701 75.707692 28.373866 75.756410 28.380147 75.805128 28.386540 75.853846 28.393045 75.902564 28.399658 75.951282 28.406378 76.000000 28.413204 76.048718 28.420131 76.097436 28.427160 76.146154 28.434287 76.194872 28.441510 76.243590 28.448828 76.292308 28.456237 76.341026 28.463737 76.389744 28.471325 76.438462 28.478999 76.487179 28.486756 76.535897 28.494595 76.584615 28.502514 76.633333 28.510510 76.682051 28.518582 76.730769 28.526726 76.779487 28.534942 76.828205 28.543227 76.876923 28.551580 76.925641 28.559997 76.974359 28.568476 77.023077 28.577017 77.071795 28.585616 77.120513 28.594271 77.169231 28.602981 77.217949 28.611743 77.266667 28.620556 77.315385 28.629416 77.364103 28.638322 77.412821 28.647273 77.461538 28.656265 77.510256 28.665297 77.558974 28.674366 77.607692 28.683471 77.656410 28.692609 77.705128 28.701778 77.753846 28.710977 77.802564 28.720203 77.851282 28.729454 77.900000 28.738727 77.948718 28.748022 77.997436 28.757335 78.046154 28.766665 78.094872 28.776009 78.143590 28.785365 78.192308 28.794732 78.241026 28.804107 78.289744 28.813489 78.338462 28.822874 78.387179 28.832261 78.435897 28.841648 78.484615 28.851032 78.533333 28.860412 78.582051 28.869786 78.630769 28.879151 78.679487 28.888505 78.728205 28.897847 78.776923 28.907173 78.825641 28.916483 78.874359 28.925773 78.923077 28.935043 78.971795 28.944289 79.020513 28.953509 79.069231 28.962702 79.117949 28.971866 79.166667 28.980997 79.215385 28.990095 79.264103 28.999157 79.312821 29.008181 79.361538 29.017165 79.410256 29.026107 79.458974 29.035004 79.507692 29.043855 79.556410 29.052658 79.605128 29.061410 79.653846 29.070109 79.702564 29.078753 79.751282 29.087341 79.800000 29.095869 79.848718 29.104337 79.897436 29.112741 79.946154 29.121080 79.994872 29.129351 80.043590 29.137553 80.092308 29.145684 80.141026 29.153740 80.189744 29.161721 80.238462 29.169624 80.287179 29.177447 80.335897 29.185188 80.384615 29.192845 80.433333 29.200415 80.482051 29.207897 80.530769 29.215289 80.579487 29.222588 80.628205 29.229792 80.676923 29.236899 80.725641 29.243908 80.774359 29.250815 80.823077 29.257620 80.871795 29.264319 80.920513 29.270911 80.969231 29.277394 81.017949 29.283765 81.066667 29.290022 81.115385 29.296164 81.164103 29.302188 81.212821 29.308092 81.261538 29.313874 81.310256 29.319532 81.358974 29.325064 81.407692 29.330467 81.456410 29.335740 81.505128 29.340881 81.553846 29.345887 81.602564 29.350757 81.651282 29.355487 81.700000 29.360077 81.748718 29.364523 81.797436 29.368825 81.846154 29.372979 81.894872 29.376984 81.943590 29.380838 81.992308 29.384538 82.041026 29.388083 82.089744 29.391470 82.138462 29.394697 82.187179 29.397762 82.235897 29.400664 82.284615 29.403399 82.333333 29.405966 82.382051 29.408363 82.430769 29.410587 82.479487 29.412637 82.528205 29.414510 82.576923 29.416205 82.625641 29.417719 82.674359 29.419050 82.723077 29.420195 82.771795 29.421154 82.820513 29.421924 82.869231 29.422502 82.917949 29.422887 82.966667 29.423077 83.015385 29.423069 83.064103 29.422861 83.112821 29.422452 83.161538 29.421838 83.210256 29.421019 83.258974 29.419991 83.307692 29.418754 83.356410 29.417304 83.405128 29.415639 83.453846 29.413759 83.502564 29.411659 83.551282 29.409339 83.600000 29.406796 83.648718 29.404029 83.697436 29.401034 83.746154 29.397810 83.794872 29.394355 83.843590 29.390667 83.892308 29.386743 83.941026 29.382582 83.989744 29.378182 84.038462 29.373539 84.087179 29.368653 84.135897 29.363521 84.184615 29.358141 84.233333 29.352511 84.282051 29.346629 84.330769 29.340493 84.379487 29.334100 84.428205 29.327448 84.476923 29.320537 84.525641 29.313362 84.574359 29.305923 84.623077 29.298216 84.671795 29.290241 84.720513 29.281995 84.769231 29.273475 84.817949 29.264681 84.866667 29.255609 84.915385 29.246257 84.964103 29.236624 85.012821 29.226707 85.061538 29.216505 85.110256 29.206014 85.158974 29.195234 85.207692 29.184161 85.256410 29.172795 85.305128 29.161132 85.353846 29.149170 85.402564 29.136909 85.451282 29.124344 85.500000 29.111475 85.548718 29.098300 85.597436 29.084815 85.646154 29.071019 85.694872 29.056911 85.743590 29.042487 85.792308 29.027746 85.841026 29.012685 85.889744 28.997303 85.938462 28.981598 85.987179 28.965567 86.035897 28.949208 86.084615 28.932519 86.133333 28.915498 86.182051 28.898144 86.230769 28.880453 86.279487 28.862423 86.328205 28.844054 86.376923 28.825342 86.425641 28.806285 86.474359 28.786882 86.523077 28.767130 86.571795 28.747027 86.620513 28.726571 86.669231 28.705760 86.717949 28.684592 86.766667 28.663064 86.815385 28.641176 86.864103 28.618924 86.912821 28.596306 86.961538 28.573320 87.010256 28.549965 87.058974 28.526238 87.107692 28.502137 87.156410 28.477660 87.205128 28.452805 87.253846 28.427570 87.302564 28.401952 87.351282 28.375950 87.400000 28.349561 87.448718 28.322783 87.497436 28.295616 87.546154 28.268062 87.594872 28.240124 87.643590 28.211807 87.692308 28.183114 87.741026 28.154049 87.789744 28.124615 87.838462 28.094817 87.887179 28.064658 87.935897 28.034142 87.984615 28.003272 88.033333 27.972053 88.082051 27.940487 88.130769 27.908579 88.179487 27.876333 88.228205 27.843752 88.276923 27.810839 88.325641 27.777600 88.374359 27.744037 88.423077 27.710153 88.471795 27.675954 88.520513 27.641442 88.569231 27.606622 88.617949 27.571496 88.666667 27.536069 88.715385 27.500345 88.764103 27.464327 88.812821 27.428019 88.861538 27.391424 88.910256 27.354547 88.958974 27.317391 89.007692 27.279959 89.056410 27.242257 89.105128 27.204286 89.153846 27.166052 89.202564 27.127557 89.251282 27.088806 89.300000 27.049802 89.348718 27.010549 89.397436 26.971050 89.446154 26.931310 89.494872 26.891332 89.543590 26.851120 89.592308 26.810678 89.641026 26.770009 89.689744 26.729117 89.738462 26.688005 89.787179 26.646678 89.835897 26.605140 89.884615 26.563393 89.933333 26.521442 89.982051 26.479290 90.030769 26.436942 90.079487 26.394400 90.128205 26.351669 90.176923 26.308753 90.225641 26.265654 90.274359 26.222377 90.323077 26.178926 90.371795 26.135304 90.420513 26.091514 90.469231 26.047562 90.517949 26.003450 90.566667 25.959182 90.615385 25.914762 90.664103 25.870193 90.712821 25.825480 90.761538 25.780626 90.810256 25.735635 90.858974 25.690510 90.907692 25.645256 90.956410 25.599875 91.005128 25.554373 91.053846 25.508751 91.102564 25.463015 91.151282 25.417168 91.200000 25.371213 91.248718 25.325155 91.297436 25.278997 91.346154 25.232742 91.394872 25.186395 91.443590 25.139960 91.492308 25.093439 91.541026 25.046837 91.589744 25.000158 91.638462 24.953404 91.687179 24.906581 91.735897 24.859691 91.784615 24.812739 91.833333 24.765728 91.882051 24.718661 91.930769 24.671543 91.979487 24.624378 92.028205 24.577168 92.076923 24.529918 92.125641 24.482632 92.174359 24.435313 92.223077 24.387964 92.271795 24.340591 92.320513 24.293196 92.369231 24.245782 92.417949 24.198355 92.466667 24.150917 92.515385 24.103473 92.564103 24.056026 92.612821 24.008579 92.661538 23.961137 92.710256 23.913703 92.758974 23.866281 92.807692 23.818874 92.856410 23.771488 92.905128 23.724124 92.953846 23.676787 93.002564 23.629480 93.051282 23.582208 93.100000 23.534974 93.148718 23.487782 93.197436 23.440635 93.246154 23.393538 93.294872 23.346493 93.343590 23.299505 93.392308 23.252578 93.441026 23.205714 93.489744 23.158919 93.538462 23.112195 93.587179 23.065546 93.635897 23.018977 93.684615 22.972490 93.733333 22.926090 93.782051 22.879780 93.830769 22.833564 93.879487 22.787446 93.928205 22.741429 93.976923 22.695517 94.025641 22.649714 94.074359 22.604024 94.123077 22.558450 94.171795 22.512997 94.220513 22.467667 94.269231 22.422464 94.317949 22.377393 94.366667 22.332457 94.415385 22.287659 94.464103 22.243004 94.512821 22.198495 94.561538 22.154136 94.610256 22.109931 94.658974 22.065883 94.707692 22.021996 94.756410 21.978274 94.805128 21.934720 94.853846 21.891339 94.902564 21.848134 94.951282 21.805108 95.000000 21.762266 95.048718 21.719611 95.097436 21.677147 95.146154 21.634878 95.194872 21.592807 95.243590 21.550938 95.292308 21.509275 95.341026 21.467821 95.389744 21.426581 95.438462 21.385558 95.487179 21.344756 95.535897 21.304178 95.584615 21.263828 95.633333 21.223710 95.682051 21.183828 95.730769 21.144185 95.779487 21.104785 95.828205 21.065633 95.876923 21.026730 95.925641 20.988082 95.974359 20.949692 96.023077 20.911564 96.071795 20.873702 96.120513 20.836108 96.169231 20.798788 96.217949 20.761744 96.266667 20.724980 96.315385 20.688501 96.364103 20.652310 96.412821 20.616410 96.461538 20.580805 96.510256 20.545500 96.558974 20.510497 96.607692 20.475801 96.656410 20.441415 96.705128 20.407343 96.753846 20.373589 96.802564 20.340156 96.851282 20.307048 96.900000 20.274269 96.948718 20.241823 96.997436 20.209713 97.046154 20.177943 97.094872 20.146517 97.143590 20.115439 97.192308 20.084711 97.241026 20.054339 97.289744 20.024325 97.338462 19.994674 97.387179 19.965389 97.435897 19.936474 97.484615 19.907932 97.533333 19.879768 97.582051 19.851985 97.630769 19.824587 97.679487 19.797577 97.728205 19.770960 97.776923 19.744738 97.825641 19.718916 97.874359 19.693498 97.923077 19.668487 97.971795 19.643887 98.020513 19.619701 98.069231 19.595934 98.117949 19.572589 98.166667 19.549669 98.215385 19.527180 98.264103 19.505123 98.312821 19.483504 98.361538 19.462325 98.410256 19.441591 98.458974 19.421305 98.507692 19.401470 98.556410 19.382092 98.605128 19.363173 98.653846 19.344717 98.702564 19.326728 98.751282 19.309209 98.800000 19.292165 98.848718 19.275598 98.897436 19.259514 98.946154 19.243915 98.994872 19.228805 99.043590 19.214188 99.092308 19.200068 99.141026 19.186448 99.189744 19.173332 99.238462 19.160724 99.287179 19.148628 99.335897 19.137047 99.384615 19.125985 99.433333 19.115446 99.482051 19.105433 99.530769 19.095951 99.579487 19.087002 99.628205 19.078591 99.676923 19.070721 99.725641 19.063390 99.774359 19.056595 99.823077 19.050336 99.871795 19.044610 99.920513 19.039414 99.969231 19.034747 100.017949 19.030605 100.066667 19.026988 100.115385 19.023893 100.164103 19.021318 100.212821 19.019260 100.261538 19.017718 100.310256 19.016688 100.358974 19.016170 100.407692 19.016161 100.456410 19.016659 100.505128 19.017661 100.553846 19.019166 100.602564 19.021171 100.651282 19.023674 100.700000 19.026673 100.748718 19.030165 100.797436 19.034150 100.846154 19.038623 100.894872 19.043584 100.943590 19.049030 100.992308 19.054959 101.041026 19.061369 101.089744 19.068258 101.138462 19.075623 101.187179 19.083462 101.235897 19.091773 101.284615 19.100554 101.333333 19.109803 101.382051 19.119518 101.430769 19.129696 101.479487 19.140335 101.528205 19.151434 101.576923 19.162989 101.625641 19.174999 101.674359 19.187462 101.723077 19.200375 101.771795 19.213737 101.820513 19.227544 101.869231 19.241796 101.917949 19.256489 101.966667 19.271622 102.015385 19.287193 102.064103 19.303199 102.112821 19.319638 102.161538 19.336507 102.210256 19.353806 102.258974 19.371531 102.307692 19.389681 102.356410 19.408253 102.405128 19.427245 102.453846 19.446656 102.502564 19.466482 102.551282 19.486721 102.600000 19.507372 102.648718 19.528433 102.697436 19.549900 102.746154 19.571773 102.794872 19.594048 102.843590 19.616724 102.892308 19.639798 102.941026 19.663269 102.989744 19.687134 103.038462 19.711391 103.087179 19.736038 103.135897 19.761072 103.184615 19.786492 103.233333 19.812295 103.282051 19.838479 103.330769 19.865043 103.379487 19.891983 103.428205 19.919297 103.476923 19.946985 103.525641 19.975042 103.574359 20.003468 103.623077 20.032260 103.671795 20.061415 103.720513 20.090932 103.769231 20.120809 103.817949 20.151043 103.866667 20.181632 103.915385 20.212575 103.964103 20.243868 104.012821 20.275509 104.061538 20.307498 104.110256 20.339830 104.158974 20.372505 104.207692 20.405520 104.256410 20.438872 104.305128 20.472560 104.353846 20.506582 104.402564 20.540935 104.451282 20.575618 104.500000 20.610627 104.548718 20.645961 104.597436 20.681618 104.646154 20.717595 104.694872 20.753891 104.743590 20.790503 104.792308 20.827428 104.841026 20.864666 104.889744 20.902214 104.938462 20.940069 104.987179 20.978229 105.035897 21.016692 105.084615 21.055457 105.133333 21.094520 105.182051 21.133880 105.230769 21.173535 105.279487 21.213482 105.328205 21.253719 105.376923 21.294244 105.425641 21.335055 105.474359 21.376150 105.523077 21.417526 105.571795 21.459182 105.620513 21.501115 105.669231 21.543322 105.717949 21.585803 105.766667 21.628555 105.815385 21.671575 105.864103 21.714861 105.912821 21.758412 105.961538 21.802224 106.010256 21.846297 106.058974 21.890627 106.107692 21.935213 106.156410 21.980052 106.205128 22.025142 106.253846 22.070482 106.302564 22.116068 106.351282 22.161899 106.400000 22.207972 106.448718 22.254286 106.497436 22.300838 106.546154 22.347627 106.594872 22.394649 106.643590 22.441903 106.692308 22.489386 106.741026 22.537097 106.789744 22.585033 106.838462 22.633192 106.887179 22.681572 106.935897 22.730170 106.984615 22.778986 107.033333 22.828015 107.082051 22.877257 107.130769 22.926709 107.179487 22.976369 107.228205 23.026235 107.276923 23.076304 107.325641 23.126574 107.374359 23.177044 107.423077 23.227711 107.471795 23.278573 107.520513 23.329627 107.569231 23.380872 107.617949 23.432306 107.666667 23.483926 107.715385 23.535729 107.764103 23.587715 107.812821 23.639881 107.861538 23.692224 107.910256 23.744742 107.958974 23.797434 108.007692 23.850297 108.056410 23.903328 108.105128 23.956527 108.153846 24.009890 108.202564 24.063416 108.251282 24.117101 108.300000 24.170945 108.348718 24.224945 108.397436 24.279099 108.446154 24.333404 108.494872 24.387858 108.543590 24.442460 108.592308 24.497207 108.641026 24.552097 108.689744 24.607128 108.738462 24.662297 108.787179 24.717602 108.835897 24.773042 108.884615 24.828614 108.933333 24.884316 108.982051 24.940146 109.030769 24.996102 109.079487 25.052180 109.128205 25.108380 109.176923 25.164700 109.225641 25.221136 109.274359 25.277687 109.323077 25.334350 109.371795 25.391124 109.420513 25.448006 109.469231 25.504995 109.517949 25.562087 109.566667 25.619281 109.615385 25.676575 109.664103 25.733966 109.712821 25.791453 109.761538 25.849032 109.810256 25.906703 109.858974 25.964462 109.907692 26.022308 109.956410 26.080239 110.005128 26.138251 110.053846 26.196344 110.102564 26.254515 110.151282 26.312762 110.200000 26.371082 110.248718 26.429474 110.297436 26.487935 110.346154 26.546463 110.394872 26.605056 110.443590 26.663712 110.492308 26.722428 110.541026 26.781203 110.589744 26.840035 110.638462 26.898920 110.687179 26.957858 110.735897 27.016845 110.784615 27.075880 110.833333 27.134960 110.882051 27.194084 110.930769 27.253249 110.979487 27.312453 111.028205 27.371693 111.076923 27.430968 111.125641 27.490276 111.174359 27.549614 111.223077 27.608981 111.271795 27.668373 111.320513 27.727789 111.369231 27.787227 111.417949 27.846684 111.466667 27.906158 111.515385 27.965648 111.564103 28.025151 111.612821 28.084664 111.661538 28.144186 111.710256 28.203715 111.758974 28.263248 111.807692 28.322783" class="line reactive nofill" /></g></g><g class="titles" /><g transform="translate(76, 10)" class="plot overlay"><g class="series serie-0 color-0" /></g><g transform="translate(76, 10)" class="plot text-overlay"><g class="series serie-0 color-0" /></g><g transform="translate(76, 10)" class="plot tooltip-overlay"><g transform="translate(0 0)" style="opacity: 0" class="tooltip"><rect rx="0" ry="0" width="0" height="0" class="tooltip-box" /><g class="text" /></g></g></g></svg>