<?xml version='1.0' encoding='utf-8'?>
<svg xmlns="http://www.w3.org/2000/svg" id="chart-00b567d4-c172-47c8-bba6-c5f094284f4a" class="pygal-chart pygal-sparkline" viewBox="0 0 200 50" width="200" height="50"><!--Generated with pygal 3.0.4 (etree) ©Kozea 2012-2016 on 2024-06-16--><!--http://pygal.org--><!--http://github.com/Kozea/pygal--><defs><style type="text/css">#chart-00b567d4-c172-47c8-bba6-c5f094284f4a{-webkit-user-select:none;-webkit-font-smoothing:antialiased;font-family:Consolas,"Liberation Mono",Menlo,Courier,monospace}#chart-00b567d4-c172-47c8-bba6-c5f094284f4a .title{font-family:Consolas,"Liberation Mono",Menlo,Courier,monospace;font-size:16px}#chart-00b567d4-c172-47c8-bba6-c5f094284f4a .legends .legend text{font-family:Consolas,"Liberation Mono",Menlo,Courier,monospace;font-size:14px}#chart-00b567d4-c172-47c8-bba6-c5f094284f4a .axis text{font-family:Consolas,"Liberation Mono",Menlo,Courier,monospace;font-size:10px}#chart-00b567d4-c172-47c8-bba6-c5f094284f4a .axis text.major{font-family:Consolas,"Liberation Mono",Menlo,Courier,monospace;font-size:10px}#chart-00b567d4-c172-47c8-bba6-c5f094284f4a .text-overlay text.value{font-family:Consolas,"Liberation Mono",Menlo,Courier,monospace;font-size:16px}#chart-00b567d4-c172-47c8-bba6-c5f094284f4a .text-overlay text.label{font-family:Consolas,"Liberation Mono",Menlo,Courier,monospace;font-size:10px}#chart-00b567d4-c172-47c8-bba6-c5f094284f4a .tooltip{font-family:Consolas,"Liberation Mono",Menlo,Courier,monospace;font-size:14px}#chart-00b567d4-c172-47c8-bba6-c5f094284f4a text.no_data{font-family:Consolas,"Liberation Mono",Menlo,Courier,monospace;font-size:64px}
#chart-00b567d4-c172-47c8-bba6-c5f094284f4a{background-color:rgba(249,249,249,1)}#chart-00b567d4-c172-47c8-bba6-c5f094284f4a path,#chart-00b567d4-c172-47c8-bba6-c5f094284f4a line,#chart-00b567d4-c172-47c8-bba6-c5f094284f4a rect,#chart-00b567d4-c172-47c8-bba6-c5f094284f4a circle{-webkit-transition:150ms;-moz-transition:150ms;transition:150ms}#chart-00b567d4-c172-47c8-bba6-c5f094284f4a .graph &gt; .background{fill:rgba(249,249,249,1)}#chart-00b567d4-c172-47c8-bba6-c5f094284f4a .plot &gt; .background{fill:rgba(255,255,255,1)}#chart-00b567d4-c172-47c8-bba6-c5f094284f4a .graph{fill:rgba(0,0,0,.87)}#chart-00b567d4-c172-47c8-bba6-c5f094284f4a text.no_data{fill:rgba(0,0,0,1)}#chart-00b567d4-c172-47c8-bba6-c5f094284f4a .title{fill:rgba(0,0,0,1)}#chart-00b567d4-c172-47c8-bba6-c5f094284f4a .legends .legend text{fill:rgba(0,0,0,.87)}#chart-00b567d4-c172-47c8-bba6-c5f094284f4a .legends .legend:hover text{fill:rgba(0,0,0,1)}#chart-00b567d4-c172-47c8-bba6-c5f094284f4a .axis .line{stroke:rgba(0,0,0,1)}#chart-00b567d4-c172-47c8-bba6-c5f094284f4a .axis .guide.line{stroke:rgba(0,0,0,.54)}#chart-00b567d4-c172-47c8-bba6-c5f094284f4a .axis .major.line{stroke:rgba(0,0,0,.87)}#chart-00b567d4-c172-47c8-bba6-c5f094284f4a .axis text.major{fill:rgba(0,0,0,1)}#chart-00b567d4-c172-47c8-bba6-c5f094284f4a .axis.y .guides:hover .guide.line,#chart-00b567d4-c172-47c8-bba6-c5f094284f4a .line-graph .axis.x .guides:hover .guide.line,#chart-00b567d4-c172-47c8-bba6-c5f094284f4a .stackedline-graph .axis.x .guides:hover .guide.line,#chart-00b567d4-c172-47c8-bba6-c5f094284f4a .xy-graph .axis.x .guides:hover .guide.line{stroke:rgba(0,0,0,1)}#chart-00b567d4-c172-47c8-bba6-c5f094284f4a .axis .guides:hover text{fill:rgba(0,0,0,1)}#chart-00b567d4-c172-47c8-bba6-c5f094284f4a .reactive{fill-opacity:.7;stroke-opacity:.8;stroke-width:1}#chart-00b567d4-c172-47c8-bba6-c5f094284f4a .ci{stroke:rgba(0,0,0,.87)}#chart-00b567d4-c172-47c8-bba6-c5f094284f4a .reactive.active,#chart-00b567d4-c172-47c8-bba6-c5f094284f4a .active .reactive{fill-opacity:.8;stroke-opacity:.9;stroke-width:4}#chart-00b567d4-c172-47c8-bba6-c5f094284f4a .ci .reactive.active{stroke-width:1.5}#chart-00b567d4-c172-47c8-bba6-c5f094284f4a .series text{fill:rgba(0,0,0,1)}#chart-00b567d4-c172-47c8-bba6-c5f094284f4a .tooltip rect{fill:rgba(255,255,255,1);stroke:rgba(0,0,0,1);-webkit-transition:opacity 150ms;-moz-transition:opacity 150ms;transition:opacity 150ms}#chart-00b567d4-c172-47c8-bba6-c5f094284f4a .tooltip .label{fill:rgba(0,0,0,.87)}#chart-00b567d4-c172-47c8-bba6-c5f094284f4a .tooltip .label{fill:rgba(0,0,0,.87)}#chart-00b567d4-c172-47c8-bba6-c5f094284f4a .tooltip .legend{font-size:.8em;fill:rgba(0,0,0,.54)}#chart-00b567d4-c172-47c8-bba6-c5f094284f4a .tooltip .x_label{font-size:.6em;fill:rgba(0,0,0,1)}#chart-00b567d4-c172-47c8-bba6-c5f094284f4a .tooltip .xlink{font-size:.5em;text-decoration:underline}#chart-00b567d4-c172-47c8-bba6-c5f094284f4a .tooltip .value{font-size:1.5em}#chart-00b567d4-c172-47c8-bba6-c5f094284f4a .bound{font-size:.5em}#chart-00b567d4-c172-47c8-bba6-c5f094284f4a .max-value{font-size:.75em;fill:rgba(0,0,0,.54)}#chart-00b567d4-c172-47c8-bba6-c5f094284f4a .map-element{fill:rgba(255,255,255,1);stroke:rgba(0,0,0,.54) !important}#chart-00b567d4-c172-47c8-bba6-c5f094284f4a .map-element .reactive{fill-opacity:inherit;stroke-opacity:inherit}#chart-00b567d4-c172-47c8-bba6-c5f094284f4a .color-0,#chart-00b567d4-c172-47c8-bba6-c5f094284f4a .color-0 a:visited{stroke:#F44336;fill:#F44336}#chart-00b567d4-c172-47c8-bba6-c5f094284f4a .text-overlay .color-0 text{fill:black}
#chart-00b567d4-c172-47c8-bba6-c5f094284f4a text.no_data{text-anchor:middle}#chart-00b567d4-c172-47c8-bba6-c5f094284f4a .guide.line{fill:none}#chart-00b567d4-c172-47c8-bba6-c5f094284f4a .centered{text-anchor:middle}#chart-00b567d4-c172-47c8-bba6-c5f094284f4a .title{text-anchor:middle}#chart-00b567d4-c172-47c8-bba6-c5f094284f4a .legends .legend text{fill-opacity:1}#chart-00b567d4-c172-47c8-bba6-c5f094284f4a .axis.x text{text-anchor:middle}#chart-00b567d4-c172-47c8-bba6-c5f094284f4a .axis.x:not(.web) text[transform]{text-anchor:start}#chart-00b567d4-c172-47c8-bba6-c5f094284f4a .axis.x:not(.web) text[transform].backwards{text-anchor:end}#chart-00b567d4-c172-47c8-bba6-c5f094284f4a .axis.y text{text-anchor:end}#chart-00b567d4-c172-47c8-bba6-c5f094284f4a .axis.y text[transform].backwards{text-anchor:start}#chart-00b567d4-c172-47c8-bba6-c5f094284f4a .axis.y2 text{text-anchor:start}#chart-00b567d4-c172-47c8-bba6-c5f094284f4a .axis.y2 text[transform].backwards{text-anchor:end}#chart-00b567d4-c172-47c8-bba6-c5f094284f4a .axis .guide.line{stroke-dasharray:4,4;stroke:black}#chart-00b567d4-c172-47c8-bba6-c5f094284f4a .axis .major.guide.line{stroke-dasharray:6,6;stroke:black}#chart-00b567d4-c172-47c8-bba6-c5f094284f4a .horizontal .axis.y .guide.line,#chart-00b567d4-c172-47c8-bba6-c5f094284f4a .horizontal .axis.y2 .guide.line,#chart-00b567d4-c172-47c8-bba6-c5f094284f4a .vertical .axis.x .guide.line{opacity:0}#chart-00b567d4-c172-47c8-bba6-c5f094284f4a .horizontal .axis.always_show .guide.line,#chart-00b567d4-c172-47c8-bba6-c5f094284f4a .vertical .axis.always_show .guide.line{opacity:1 !important}#chart-00b567d4-c172-47c8-bba6-c5f094284f4a .axis.y .guides:hover .guide.line,#chart-00b567d4-c172-47c8-bba6-c5f094284f4a .axis.y2 .guides:hover .guide.line,#chart-00b567d4-c172-47c8-bba6-c5f094284f4a .axis.x .guides:hover .guide.line{opacity:1}#chart-00b567d4-c172-47c8-bba6-c5f094284f4a .axis .guides:hover text{opacity:1}#chart-00b567d4-c172-47c8-bba6-c5f094284f4a .nofill{fill:none}#chart-00b567d4-c172-47c8-bba6-c5f094284f4a .subtle-fill{fill-opacity:.2}#chart-00b567d4-c172-47c8-bba6-c5f094284f4a .dot{stroke-width:1px;fill-opacity:1;stroke-opacity:1}#chart-00b567d4-c172-47c8-bba6-c5f094284f4a .dot.active{stroke-width:5px}#chart-00b567d4-c172-47c8-bba6-c5f094284f4a .dot.negative{fill:transparent}#chart-00b567d4-c172-47c8-bba6-c5f094284f4a text,#chart-00b567d4-c172-47c8-bba6-c5f094284f4a tspan{stroke:none !important}#chart-00b567d4-c172-47c8-bba6-c5f094284f4a .series text.active{opacity:1}#chart-00b567d4-c172-47c8-bba6-c5f094284f4a .tooltip rect{fill-opacity:.95;stroke-width:.5}#chart-00b567d4-c172-47c8-bba6-c5f094284f4a .tooltip text{fill-opacity:1}#chart-00b567d4-c172-47c8-bba6-c5f094284f4a .showable{visibility:hidden}#chart-00b567d4-c172-47c8-bba6-c5f094284f4a .showable.shown{visibility:visible}#chart-00b567d4-c172-47c8-bba6-c5f094284f4a .gauge-background{fill:rgba(229,229,229,1);stroke:none}#chart-00b567d4-c172-47c8-bba6-c5f094284f4a .bg-lines{stroke:rgba(249,249,249,1);stroke-width:2px}</style><script type="text/javascript">window.pygal = window.pygal || {};window.pygal.config = window.pygal.config || {};window.pygal.config['00b567d4-c172-47c8-bba6-c5f094284f4a'] = {"allow_interruptions": false, "box_mode": "extremes", "classes": ["pygal-chart", "pygal-sparkline"], "css": ["file://style.css", "file://graph.css"], "defs": [], "disable_xml_declaration": false, "dots_size": 2.5, "dynamic_print_values": false, "explicit_size": true, "fill": false, "force_uri_protocol": "https", "formatter": null, "half_pie": false, "height": 50, "include_x_axis": false, "inner_radius": 0, "interpolate": "cubic", "interpolation_parameters": {}, "interpolation_precision": 250, "inverse_y_axis": false, "js": [], "legend_at_bottom": false, "legend_at_bottom_columns": null, "legend_box_size": 12, "logarithmic": false, "margin": 10, "margin_bottom": null, "margin_left": null, "margin_right": null, "margin_top": null, "max_scale": 2, "min_scale": 1, "missing_value_fill_truncation": "x", "no_data_text": "", "no_prefix": false, "order_min": null, "pretty_print": false, "print_labels": false, "print_values": false, "print_values_position": "center", "print_zeroes": true, "range": null, "rounded_bars": null, "secondary_range": null, "show_dots": false, "show_legend": false, "show_minor_x_labels": true, "show_minor_y_labels": true, "show_only_major_dots": false, "show_x_guides": false, "show_x_labels": false, "show_y_guides": true, "show_y_labels": true, "spacing": 0, "stack_from_top": false, "strict": false, "stroke": true, "stroke_style": null, "style": {"background": "rgba(249, 249, 249, 1)", "ci_colors": [], "colors": ["#F44336", "#3F51B5", "#009688", "#FFC107", "#FF5722", "#9C27B0", "#03A9F4", "#8BC34A", "#FF9800", "#E91E63", "#2196F3", "#4CAF50", "#FFEB3B", "#673AB7", "#00BCD4", "#CDDC39", "#9E9E9E", "#607D8B"], "dot_opacity": "1", "font_family": "Consolas, \"Liberation Mono\", Menlo, Courier, monospace", "foreground": "rgba(0, 0, 0, .87)", "foreground_strong": "rgba(0, 0, 0, 1)", "foreground_subtle": "rgba(0, 0, 0, .54)", "guide_stroke_color": "black", "guide_stroke_dasharray": "4,4", "label_font_family": "Consolas, \"Liberation Mono\", Menlo, Courier, monospace", "label_font_size": 10, "legend_font_family": "Consolas, \"Liberation Mono\", Menlo, Courier, monospace", "legend_font_size": 14, "major_guide_stroke_color": "black", "major_guide_stroke_dasharray": "6,6", "major_label_font_family": "Consolas, \"Liberation Mono\", Menlo, Courier, monospace", "major_label_font_size": 10, "no_data_font_family": "Consolas, \"Liberation Mono\", Menlo, Courier, monospace", "no_data_font_size": 64, "opacity": ".7", "opacity_hover": ".8", "plot_background": "rgba(255, 255, 255, 1)", "stroke_opacity": ".8", "stroke_opacity_hover": ".9", "stroke_width": "1", "stroke_width_hover": "4", "title_font_family": "Consolas, \"Liberation Mono\", Menlo, Courier, monospace", "title_font_size": 16, "tooltip_font_family": "Consolas, \"Liberation Mono\", Menlo, Courier, monospace", "tooltip_font_size": 14, "transition": "150ms", "value_background": "rgba(229, 229, 229, 1)", "value_colors": [], "value_font_family": "Consolas, \"Liberation Mono\", Menlo, Courier, monospace", "value_font_size": 16, "value_label_font_family": "Consolas, \"Liberation Mono\", Menlo, Courier, monospace", "value_label_font_size": 10}, "title": null, "tooltip_border_radius": 0, "tooltip_fancy_mode": true, "truncate_label": null, "truncate_legend": null, "width": 200, "x_label_rotation": 0, "x_labels": ["2024/6", "2024/5", "2024/3", "2024/1", "2023/8", "2023/6", "2023/3", "2023/1"], "x_labels_major": null, "x_labels_major_count": null, "x_labels_major_every": null, "x_title": null, "xrange": null, "y_label_rotation": 0, "y_labels": null, "y_labels_major": null, "y_labels_major_count": null, "y_labels_major_every": null, "y_title": null, "zero": 0, "legends": [""]}</script></defs><title>Pygal</title><g class="graph line-graph vertical"><rect x="0" y="0" width="200" height="50" class="background" /><g transform="translate(20, 10)" class="plot"><rect x="0" y="0" width="170" height="30" class="background" /><g class="axis y always_show"><path d="M0.000000 30.000000 h170.000000" class="line" /><g class="guides"><path d="M0.000000 17.821509 h170.000000" class="guide line" /><text x="-5" y="21.321509045985373" class="">2</text><title>2</title></g><g class="guides"><path d="M0.000000 0.749257 h170.000000" class="guide line" /><text x="-5" y="4.249257271536557" class="">4</text><title>4</title></g></g><g class="series serie-0 color-0"><path d="M3.269231 17.821509 L3.362637 17.824828 3.456044 17.828148 3.549451 17.831466 3.642857 17.834783 3.736264 17.838100 3.829670 17.841414 3.923077 17.844727 4.016484 17.848037 4.109890 17.851345 4.203297 17.854650 4.296703 17.857952 4.390110 17.861251 4.483516 17.864545 4.576923 17.867835 4.670330 17.871121 4.763736 17.874403 4.857143 17.877679 4.950549 17.880949 5.043956 17.884214 5.137363 17.887473 5.230769 17.890725 5.324176 17.893971 5.417582 17.897210 5.510989 17.900441 5.604396 17.903665 5.697802 17.906881 5.791209 17.910089 5.884615 17.913288 5.978022 17.916478 6.071429 17.919658 6.164835 17.922830 6.258242 17.925991 6.351648 17.929142 6.445055 17.932283 6.538462 17.935412 6.631868 17.938531 6.725275 17.941638 6.818681 17.944734 6.912088 17.947817 7.005495 17.950888 7.098901 17.953946 7.192308 17.956991 7.285714 17.960022 7.379121 17.963040 7.472527 17.966044 7.565934 17.969034 7.659341 17.972009 7.752747 17.974969 7.846154 17.977913 7.939560 17.980842 8.032967 17.983755 8.126374 17.986652 8.219780 17.989532 8.313187 17.992396 8.406593 17.995242 8.500000 17.998071 8.593407 18.000881 8.686813 18.003674 8.780220 18.006448 8.873626 18.009204 8.967033 18.011940 9.060440 18.014657 9.153846 18.017354 9.247253 18.020031 9.340659 18.022687 9.434066 18.025323 9.527473 18.027938 9.620879 18.030531 9.714286 18.033103 9.807692 18.035653 9.901099 18.038180 9.994505 18.040685 10.087912 18.043167 10.181319 18.045626 10.274725 18.048061 10.368132 18.050472 10.461538 18.052859 10.554945 18.055222 10.648352 18.057559 10.741758 18.059872 10.835165 18.062158 10.928571 18.064420 11.021978 18.066654 11.115385 18.068863 11.208791 18.071045 11.302198 18.073199 11.395604 18.075327 11.489011 18.077426 11.582418 18.079498 11.675824 18.081541 11.769231 18.083555 11.862637 18.085541 11.956044 18.087497 12.049451 18.089423 12.142857 18.091320 12.236264 18.093186 12.329670 18.095022 12.423077 18.096827 12.516484 18.098600 12.609890 18.100342 12.703297 18.102052 12.796703 18.103730 12.890110 18.105376 12.983516 18.106988 13.076923 18.108568 13.170330 18.110114 13.263736 18.111626 13.357143 18.113104 13.450549 18.114548 13.543956 18.115957 13.637363 18.117331 13.730769 18.118669 13.824176 18.119972 13.917582 18.121239 14.010989 18.122470 14.104396 18.123663 14.197802 18.124820 14.291209 18.125940 14.384615 18.127022 14.478022 18.128066 14.571429 18.129072 14.664835 18.130039 14.758242 18.130968 14.851648 18.131857 14.945055 18.132707 15.038462 18.133517 15.131868 18.134286 15.225275 18.135016 15.318681 18.135704 15.412088 18.136351 15.505495 18.136957 15.598901 18.137522 15.692308 18.138044 15.785714 18.138523 15.879121 18.138961 15.972527 18.139355 16.065934 18.139705 16.159341 18.140012 16.252747 18.140275 16.346154 18.140494 16.439560 18.140668 16.532967 18.140797 16.626374 18.140881 16.719780 18.140920 16.813187 18.140912 16.906593 18.140859 17.000000 18.140758 17.093407 18.140611 17.186813 18.140417 17.280220 18.140175 17.373626 18.139886 17.467033 18.139548 17.560440 18.139162 17.653846 18.138727 17.747253 18.138244 17.840659 18.137710 17.934066 18.137127 18.027473 18.136494 18.120879 18.135811 18.214286 18.135077 18.307692 18.134292 18.401099 18.133455 18.494505 18.132567 18.587912 18.131628 18.681319 18.130635 18.774725 18.129591 18.868132 18.128493 18.961538 18.127342 19.054945 18.126138 19.148352 18.124879 19.241758 18.123567 19.335165 18.122200 19.428571 18.120778 19.521978 18.119302 19.615385 18.117769 19.708791 18.116181 19.802198 18.114537 19.895604 18.112836 19.989011 18.111079 20.082418 18.109265 20.175824 18.107393 20.269231 18.105464 20.362637 18.103476 20.456044 18.101431 20.549451 18.099326 20.642857 18.097163 20.736264 18.094941 20.829670 18.092658 20.923077 18.090316 21.016484 18.087914 21.109890 18.085451 21.203297 18.082928 21.296703 18.080343 21.390110 18.077696 21.483516 18.074988 21.576923 18.072218 21.670330 18.069385 21.763736 18.066490 21.857143 18.063531 21.950549 18.060509 22.043956 18.057423 22.137363 18.054273 22.230769 18.051059 22.324176 18.047780 22.417582 18.044436 22.510989 18.041027 22.604396 18.037552 22.697802 18.034011 22.791209 18.030404 22.884615 18.026730 22.978022 18.022990 23.071429 18.019182 23.164835 18.015306 23.258242 18.011363 23.351648 18.007351 23.445055 18.003271 23.538462 17.999122 23.631868 17.994904 23.725275 17.990617 23.818681 17.986260 23.912088 17.981832 24.005495 17.977334 24.098901 17.972766 24.192308 17.968126 24.285714 17.963415 24.379121 17.958632 24.472527 17.953778 24.565934 17.948851 24.659341 17.943851 24.752747 17.938778 24.846154 17.933632 24.939560 17.928413 25.032967 17.923119 25.126374 17.917751 25.219780 17.912309 25.313187 17.906792 25.406593 17.901199 25.500000 17.895531 25.593407 17.889788 25.686813 17.883968 25.780220 17.878071 25.873626 17.872098 25.967033 17.866048 26.060440 17.859920 26.153846 17.853714 26.247253 17.847431 26.340659 17.841069 26.434066 17.834628 26.527473 17.828108 26.620879 17.821509 26.714286 17.814831 26.807692 17.808074 26.901099 17.801241 26.994505 17.794333 27.087912 17.787352 27.181319 17.780299 27.274725 17.773176 27.368132 17.765985 27.461538 17.758726 27.554945 17.751402 27.648352 17.744015 27.741758 17.736565 27.835165 17.729055 27.928571 17.721486 28.021978 17.713860 28.115385 17.706177 28.208791 17.698441 28.302198 17.690652 28.395604 17.682812 28.489011 17.674923 28.582418 17.666985 28.675824 17.659002 28.769231 17.650974 28.862637 17.642903 28.956044 17.634790 29.049451 17.626638 29.142857 17.618448 29.236264 17.610220 29.329670 17.601958 29.423077 17.593663 29.516484 17.585335 29.609890 17.576977 29.703297 17.568591 29.796703 17.560177 29.890110 17.551738 29.983516 17.543275 30.076923 17.534790 30.170330 17.526284 30.263736 17.517759 30.357143 17.509216 30.450549 17.500657 30.543956 17.492084 30.637363 17.483499 30.730769 17.474902 30.824176 17.466296 30.917582 17.457681 31.010989 17.449061 31.104396 17.440435 31.197802 17.431806 31.291209 17.423176 31.384615 17.414546 31.478022 17.405917 31.571429 17.397292 31.664835 17.388671 31.758242 17.380057 31.851648 17.371450 31.945055 17.362853 32.038462 17.354268 32.131868 17.345695 32.225275 17.337136 32.318681 17.328593 32.412088 17.320068 32.505495 17.311562 32.598901 17.303077 32.692308 17.294614 32.785714 17.286175 32.879121 17.277761 32.972527 17.269375 33.065934 17.261017 33.159341 17.252690 33.252747 17.244394 33.346154 17.236132 33.439560 17.227904 33.532967 17.219714 33.626374 17.211562 33.719780 17.203449 33.813187 17.195378 33.906593 17.187350 34.000000 17.179367 34.093407 17.171430 34.186813 17.163540 34.280220 17.155700 34.373626 17.147911 34.467033 17.140175 34.560440 17.132493 34.653846 17.124866 34.747253 17.117297 34.840659 17.109787 34.934066 17.102337 35.027473 17.094950 35.120879 17.087626 35.214286 17.080367 35.307692 17.073176 35.401099 17.066053 35.494505 17.059000 35.587912 17.052019 35.681319 17.045111 35.774725 17.038278 35.868132 17.031522 35.961538 17.024843 36.054945 17.018244 36.148352 17.011727 36.241758 17.005292 36.335165 16.998942 36.428571 16.992678 36.521978 16.986501 36.615385 16.980414 36.708791 16.974417 36.802198 16.968513 36.895604 16.962703 36.989011 16.956989 37.082418 16.951371 37.175824 16.945853 37.269231 16.940435 37.362637 16.935119 37.456044 16.929906 37.549451 16.924799 37.642857 16.919798 37.736264 16.914906 37.829670 16.910123 37.923077 16.905452 38.016484 16.900895 38.109890 16.896452 38.203297 16.892125 38.296703 16.887916 38.390110 16.883827 38.483516 16.879859 38.576923 16.876013 38.670330 16.872292 38.763736 16.868697 38.857143 16.865229 38.950549 16.861890 39.043956 16.858682 39.137363 16.855606 39.230769 16.852664 39.324176 16.849857 39.417582 16.847187 39.510989 16.844656 39.604396 16.842266 39.697802 16.840017 39.791209 16.837911 39.884615 16.835950 39.978022 16.834136 40.071429 16.832471 40.164835 16.830954 40.258242 16.829590 40.351648 16.828378 40.445055 16.827321 40.538462 16.826420 40.631868 16.825677 40.725275 16.825093 40.818681 16.824670 40.912088 16.824409 41.005495 16.824313 41.098901 16.824382 41.192308 16.824619 41.285714 16.825024 41.379121 16.825600 41.472527 16.826348 41.565934 16.827270 41.659341 16.828367 41.752747 16.829641 41.846154 16.831093 41.939560 16.832725 42.032967 16.834539 42.126374 16.836537 42.219780 16.838719 42.313187 16.841087 42.406593 16.843644 42.500000 16.846390 42.593407 16.849327 42.686813 16.852457 42.780220 16.855782 42.873626 16.859302 42.967033 16.863020 43.060440 16.866937 43.153846 16.871055 43.247253 16.875376 43.340659 16.879900 43.434066 16.884630 43.527473 16.889567 43.620879 16.894712 43.714286 16.900068 43.807692 16.905636 43.901099 16.911418 43.994505 16.917414 44.087912 16.923627 44.181319 16.930059 44.274725 16.936710 44.368132 16.943583 44.461538 16.950679 44.554945 16.958000 44.648352 16.965546 44.741758 16.973321 44.835165 16.981325 44.928571 16.989560 45.021978 16.998028 45.115385 17.006730 45.208791 17.015668 45.302198 17.024843 45.395604 17.034257 45.489011 17.043912 45.582418 17.053809 45.675824 17.063950 45.769231 17.074336 45.862637 17.084969 45.956044 17.095851 46.049451 17.106983 46.142857 17.118366 46.236264 17.130003 46.329670 17.141895 46.423077 17.154043 46.516484 17.166450 46.609890 17.179116 46.703297 17.192043 46.796703 17.205234 46.890110 17.218689 46.983516 17.232410 47.076923 17.246398 47.170330 17.260656 47.263736 17.275185 47.357143 17.289986 47.450549 17.305062 47.543956 17.320413 47.637363 17.336041 47.730769 17.351948 47.824176 17.368135 47.917582 17.384605 48.010989 17.401358 48.104396 17.418396 48.197802 17.435721 48.291209 17.453335 48.384615 17.471238 48.478022 17.489433 48.571429 17.507921 48.664835 17.526704 48.758242 17.545784 48.851648 17.565161 48.945055 17.584838 49.038462 17.604816 49.131868 17.625097 49.225275 17.645682 49.318681 17.666573 49.412088 17.687771 49.505495 17.709279 49.598901 17.731097 49.692308 17.753228 49.785714 17.775672 49.879121 17.798432 49.972527 17.821509 50.065934 17.844904 50.159341 17.868615 50.252747 17.892639 50.346154 17.916973 50.439560 17.941615 50.532967 17.966562 50.626374 17.991810 50.719780 18.017358 50.813187 18.043202 50.906593 18.069340 51.000000 18.095769 51.093407 18.122486 51.186813 18.149489 51.280220 18.176774 51.373626 18.204338 51.467033 18.232180 51.560440 18.260296 51.653846 18.288684 51.747253 18.317340 51.840659 18.346262 51.934066 18.375447 52.027473 18.404892 52.120879 18.434596 52.214286 18.464553 52.307692 18.494763 52.401099 18.525223 52.494505 18.555928 52.587912 18.586877 52.681319 18.618068 52.774725 18.649496 52.868132 18.681160 52.961538 18.713056 53.054945 18.745182 53.148352 18.777536 53.241758 18.810113 53.335165 18.842912 53.428571 18.875929 53.521978 18.909163 53.615385 18.942610 53.708791 18.976267 53.802198 19.010131 53.895604 19.044201 53.989011 19.078472 54.082418 19.112943 54.175824 19.147610 54.269231 19.182471 54.362637 19.217523 54.456044 19.252763 54.549451 19.288189 54.642857 19.323797 54.736264 19.359585 54.829670 19.395550 54.923077 19.431689 55.016484 19.468000 55.109890 19.504479 55.203297 19.541124 55.296703 19.577933 55.390110 19.614902 55.483516 19.652028 55.576923 19.689310 55.670330 19.726743 55.763736 19.764326 55.857143 19.802055 55.950549 19.839928 56.043956 19.877942 56.137363 19.916094 56.230769 19.954381 56.324176 19.992801 56.417582 20.031351 56.510989 20.070028 56.604396 20.108830 56.697802 20.147752 56.791209 20.186794 56.884615 20.225951 56.978022 20.265222 57.071429 20.304603 57.164835 20.344092 57.258242 20.383686 57.351648 20.423381 57.445055 20.463176 57.538462 20.503068 57.631868 20.543053 57.725275 20.583129 57.818681 20.623293 57.912088 20.663543 58.005495 20.703876 58.098901 20.744288 58.192308 20.784777 58.285714 20.825341 58.379121 20.865976 58.472527 20.906680 58.565934 20.947450 58.659341 20.988283 58.752747 21.029177 58.846154 21.070128 58.939560 21.111134 59.032967 21.152193 59.126374 21.193300 59.219780 21.234454 59.313187 21.275652 59.406593 21.316891 59.500000 21.358168 59.593407 21.399480 59.686813 21.440825 59.780220 21.482200 59.873626 21.523602 59.967033 21.565029 60.060440 21.606477 60.153846 21.647944 60.247253 21.689426 60.340659 21.730922 60.434066 21.772429 60.527473 21.813943 60.620879 21.855462 60.714286 21.896983 60.807692 21.938503 60.901099 21.980020 60.994505 22.021531 61.087912 22.063033 61.181319 22.104523 61.274725 22.145998 61.368132 22.187456 61.461538 22.228894 61.554945 22.270309 61.648352 22.311699 61.741758 22.353060 61.835165 22.394390 61.928571 22.435686 62.021978 22.476945 62.115385 22.518164 62.208791 22.559342 62.302198 22.600474 62.395604 22.641558 62.489011 22.682592 62.582418 22.723572 62.675824 22.764496 62.769231 22.805361 62.862637 22.846164 62.956044 22.886903 63.049451 22.927574 63.142857 22.968176 63.236264 23.008704 63.329670 23.049157 63.423077 23.089531 63.516484 23.129825 63.609890 23.170034 63.703297 23.210156 63.796703 23.250189 63.890110 23.290130 63.983516 23.329976 64.076923 23.369724 64.170330 23.409371 64.263736 23.448914 64.357143 23.488352 64.450549 23.527681 64.543956 23.566898 64.637363 23.606000 64.730769 23.644985 64.824176 23.683850 64.917582 23.722592 65.010989 23.761209 65.104396 23.799697 65.197802 23.838054 65.291209 23.876277 65.384615 23.914363 65.478022 23.952310 65.571429 23.990114 65.664835 24.027774 65.758242 24.065285 65.851648 24.102646 65.945055 24.139854 66.038462 24.176906 66.131868 24.213798 66.225275 24.250529 66.318681 24.287095 66.412088 24.323494 66.505495 24.359723 66.598901 24.395779 66.692308 24.431660 66.785714 24.467362 66.879121 24.502883 66.972527 24.538220 67.065934 24.573370 67.159341 24.608331 67.252747 24.643100 67.346154 24.677674 67.439560 24.712049 67.532967 24.746225 67.626374 24.780196 67.719780 24.813962 67.813187 24.847519 67.906593 24.880864 68.000000 24.913994 68.093407 24.946908 68.186813 24.979601 68.280220 25.012071 68.373626 25.044316 68.467033 25.076333 68.560440 25.108118 68.653846 25.139670 68.747253 25.170984 68.840659 25.202060 68.934066 25.232893 69.027473 25.263481 69.120879 25.293821 69.214286 25.323911 69.307692 25.353747 69.401099 25.383327 69.494505 25.412649 69.587912 25.441708 69.681319 25.470503 69.774725 25.499031 69.868132 25.527289 69.961538 25.555274 70.054945 25.582984 70.148352 25.610415 70.241758 25.637565 70.335165 25.664431 70.428571 25.691011 70.521978 25.717301 70.615385 25.743299 70.708791 25.769001 70.802198 25.794406 70.895604 25.819511 70.989011 25.844312 71.082418 25.868807 71.175824 25.892993 71.269231 25.916868 71.362637 25.940428 71.456044 25.963671 71.549451 25.986593 71.642857 26.009193 71.736264 26.031468 71.829670 26.053414 71.923077 26.075029 72.016484 26.096310 72.109890 26.117255 72.203297 26.137860 72.296703 26.158123 72.390110 26.178041 72.483516 26.197611 72.576923 26.216831 72.670330 26.235697 72.763736 26.254207 72.857143 26.272359 72.950549 26.290148 73.043956 26.307573 73.137363 26.324632 73.230769 26.341320 73.324176 26.357635 73.417582 26.373576 73.510989 26.389144 73.604396 26.404342 73.697802 26.419174 73.791209 26.433643 73.884615 26.447750 73.978022 26.461500 74.071429 26.474895 74.164835 26.487938 74.258242 26.500632 74.351648 26.512980 74.445055 26.524985 74.538462 26.536650 74.631868 26.547978 74.725275 26.558972 74.818681 26.569635 74.912088 26.579969 75.005495 26.589979 75.098901 26.599666 75.192308 26.609033 75.285714 26.618085 75.379121 26.626823 75.472527 26.635250 75.565934 26.643370 75.659341 26.651186 75.752747 26.658699 75.846154 26.665915 75.939560 26.672834 76.032967 26.679461 76.126374 26.685798 76.219780 26.691849 76.313187 26.697615 76.406593 26.703101 76.500000 26.708308 76.593407 26.713241 76.686813 26.717902 76.780220 26.722294 76.873626 26.726419 76.967033 26.730282 77.060440 26.733884 77.153846 26.737229 77.247253 26.740320 77.340659 26.743160 77.434066 26.745751 77.527473 26.748097 77.620879 26.750201 77.714286 26.752065 77.807692 26.753692 77.901099 26.755086 77.994505 26.756249 78.087912 26.757185 78.181319 26.757896 78.274725 26.758386 78.368132 26.758656 78.461538 26.758711 78.554945 26.758553 78.648352 26.758185 78.741758 26.757610 78.835165 26.756832 78.928571 26.755852 79.021978 26.754674 79.115385 26.753301 79.208791 26.751736 79.302198 26.749982 79.395604 26.748042 79.489011 26.745918 79.582418 26.743614 79.675824 26.741133 79.769231 26.738477 79.862637 26.735650 79.956044 26.732654 80.049451 26.729493 80.142857 26.726170 80.236264 26.722686 80.329670 26.719046 80.423077 26.715253 80.516484 26.711309 80.609890 26.707217 80.703297 26.702980 80.796703 26.698601 80.890110 26.694084 80.983516 26.689430 81.076923 26.684644 81.170330 26.679727 81.263736 26.674684 81.357143 26.669516 81.450549 26.664228 81.543956 26.658821 81.637363 26.653299 81.730769 26.647664 81.824176 26.641920 81.917582 26.636070 82.010989 26.630117 82.104396 26.624063 82.197802 26.617912 82.291209 26.611666 82.384615 26.605329 82.478022 26.598903 82.571429 26.592391 82.664835 26.585797 82.758242 26.579123 82.851648 26.572372 82.945055 26.565547 83.038462 26.558652 83.131868 26.551688 83.225275 26.544660 83.318681 26.537570 83.412088 26.530421 83.505495 26.523215 83.598901 26.515957 83.692308 26.508648 83.785714 26.501293 83.879121 26.493893 83.972527 26.486451 84.065934 26.478972 84.159341 26.471457 84.252747 26.463910 84.346154 26.456333 84.439560 26.448730 84.532967 26.441103 84.626374 26.433456 84.719780 26.425791 84.813187 26.418111 84.906593 26.410420 85.000000 26.402720 85.093407 26.395014 85.186813 26.387306 85.280220 26.379597 85.373626 26.371892 85.467033 26.364193 85.560440 26.356503 85.653846 26.348824 85.747253 26.341161 85.840659 26.333516 85.934066 26.325891 86.027473 26.318291 86.120879 26.310717 86.214286 26.303172 86.307692 26.295661 86.401099 26.288185 86.494505 26.280747 86.587912 26.273352 86.681319 26.266000 86.774725 26.258697 86.868132 26.251443 86.961538 26.244243 87.054945 26.237100 87.148352 26.230016 87.241758 26.222994 87.335165 26.216037 87.428571 26.209148 87.521978 26.202331 87.615385 26.195587 87.708791 26.188921 87.802198 26.182335 87.895604 26.175831 87.989011 26.169414 88.082418 26.163085 88.175824 26.156849 88.269231 26.150707 88.362637 26.144663 88.456044 26.138719 88.549451 26.132879 88.642857 26.127146 88.736264 26.121523 88.829670 26.116012 88.923077 26.110617 89.016484 26.105340 89.109890 26.100184 89.203297 26.095153 89.296703 26.090249 89.390110 26.085476 89.483516 26.080835 89.576923 26.076331 89.670330 26.071966 89.763736 26.067744 89.857143 26.063666 89.950549 26.059737 90.043956 26.055958 90.137363 26.052333 90.230769 26.048866 90.324176 26.045558 90.417582 26.042413 90.510989 26.039434 90.604396 26.036623 90.697802 26.033985 90.791209 26.031521 90.884615 26.029234 90.978022 26.027128 91.071429 26.025206 91.164835 26.023470 91.258242 26.021924 91.351648 26.020570 91.445055 26.019412 91.538462 26.018452 91.631868 26.017693 91.725275 26.017138 91.818681 26.016791 91.912088 26.016654 92.005495 26.016729 92.098901 26.017021 92.192308 26.017532 92.285714 26.018265 92.379121 26.019223 92.472527 26.020409 92.565934 26.021826 92.659341 26.023477 92.752747 26.025364 92.846154 26.027491 92.939560 26.029861 93.032967 26.032477 93.126374 26.035341 93.219780 26.038457 93.313187 26.041827 93.406593 26.045455 93.500000 26.049343 93.593407 26.053495 93.686813 26.057913 93.780220 26.062600 93.873626 26.067560 93.967033 26.072794 94.060440 26.078308 94.153846 26.084102 94.247253 26.090180 94.340659 26.096546 94.434066 26.103201 94.527473 26.110150 94.620879 26.117394 94.714286 26.124937 94.807692 26.132783 94.901099 26.140933 94.994505 26.149390 95.087912 26.158159 95.181319 26.167241 95.274725 26.176640 95.368132 26.186359 95.461538 26.196400 95.554945 26.206767 95.648352 26.217462 95.741758 26.228488 95.835165 26.239849 95.928571 26.251548 96.021978 26.263586 96.115385 26.275968 96.208791 26.288697 96.302198 26.301774 96.395604 26.315204 96.489011 26.328988 96.582418 26.343131 96.675824 26.357635 96.769231 26.372501 96.862637 26.387726 96.956044 26.403303 97.049451 26.419226 97.142857 26.435491 97.236264 26.452091 97.329670 26.469020 97.423077 26.486272 97.516484 26.503842 97.609890 26.521724 97.703297 26.539913 97.796703 26.558402 97.890110 26.577185 97.983516 26.596258 98.076923 26.615613 98.170330 26.635246 98.263736 26.655151 98.357143 26.675321 98.450549 26.695751 98.543956 26.716435 98.637363 26.737368 98.730769 26.758544 98.824176 26.779956 98.917582 26.801599 99.010989 26.823468 99.104396 26.845556 99.197802 26.867859 99.291209 26.890369 99.384615 26.913081 99.478022 26.935990 99.571429 26.959089 99.664835 26.982373 99.758242 27.005837 99.851648 27.029473 99.945055 27.053278 100.038462 27.077244 100.131868 27.101366 100.225275 27.125638 100.318681 27.150055 100.412088 27.174610 100.505495 27.199298 100.598901 27.224114 100.692308 27.249050 100.785714 27.274102 100.879121 27.299264 100.972527 27.324530 101.065934 27.349895 101.159341 27.375351 101.252747 27.400894 101.346154 27.426519 101.439560 27.452218 101.532967 27.477986 101.626374 27.503819 101.719780 27.529709 101.813187 27.555650 101.906593 27.581639 102.000000 27.607667 102.093407 27.633730 102.186813 27.659823 102.280220 27.685938 102.373626 27.712070 102.467033 27.738214 102.560440 27.764364 102.653846 27.790514 102.747253 27.816658 102.840659 27.842791 102.934066 27.868906 103.027473 27.894998 103.120879 27.921061 103.214286 27.947090 103.307692 27.973078 103.401099 27.999020 103.494505 28.024910 103.587912 28.050742 103.681319 28.076510 103.774725 28.102210 103.868132 28.127834 103.961538 28.153377 104.054945 28.178833 104.148352 28.204197 104.241758 28.229463 104.335165 28.254625 104.428571 28.279677 104.521978 28.304614 104.615385 28.329429 104.708791 28.354117 104.802198 28.378672 104.895604 28.403089 104.989011 28.427361 105.082418 28.451483 105.175824 28.475448 105.269231 28.499252 105.362637 28.522889 105.456044 28.546352 105.549451 28.569636 105.642857 28.592735 105.736264 28.615644 105.829670 28.638356 105.923077 28.660866 106.016484 28.683168 106.109890 28.705256 106.203297 28.727124 106.296703 28.748767 106.390110 28.770180 106.483516 28.791355 106.576923 28.812287 106.670330 28.832971 106.763736 28.853401 106.857143 28.873571 106.950549 28.893475 107.043956 28.913108 107.137363 28.932463 107.230769 28.951535 107.324176 28.970318 107.417582 28.988807 107.510989 29.006995 107.604396 29.024877 107.697802 29.042447 107.791209 29.059699 107.884615 29.076627 107.978022 29.093226 108.071429 29.109491 108.164835 29.125414 108.258242 29.140990 108.351648 29.156215 108.445055 29.171080 108.538462 29.185582 108.631868 29.199714 108.725275 29.213471 108.818681 29.226846 108.912088 29.239834 109.005495 29.252430 109.098901 29.264626 109.192308 29.276419 109.285714 29.287801 109.379121 29.298766 109.472527 29.309311 109.565934 29.319427 109.659341 29.329111 109.752747 29.338355 109.846154 29.347154 109.939560 29.355503 110.032967 29.363395 110.126374 29.370825 110.219780 29.377787 110.313187 29.384275 110.406593 29.390284 110.500000 29.395807 110.593407 29.400840 110.686813 29.405375 110.780220 29.409408 110.873626 29.412932 110.967033 29.415942 111.060440 29.418432 111.153846 29.420396 111.247253 29.421829 111.340659 29.422725 111.434066 29.423077 111.527473 29.422880 111.620879 29.422129 111.714286 29.420818 111.807692 29.418940 111.901099 29.416490 111.994505 29.413462 112.087912 29.409851 112.181319 29.405651 112.274725 29.400855 112.368132 29.395458 112.461538 29.389455 112.554945 29.382840 112.648352 29.375606 112.741758 29.367748 112.835165 29.359261 112.928571 29.350138 113.021978 29.340373 113.115385 29.329962 113.208791 29.318897 113.302198 29.307174 113.395604 29.294787 113.489011 29.281729 113.582418 29.267995 113.675824 29.253580 113.769231 29.238477 113.862637 29.222681 113.956044 29.206185 114.049451 29.188985 114.142857 29.171074 114.236264 29.152447 114.329670 29.133097 114.423077 29.113019 114.516484 29.092208 114.609890 29.070657 114.703297 29.048361 114.796703 29.025314 114.890110 29.001509 114.983516 28.976943 115.076923 28.951607 115.170330 28.925498 115.263736 28.898608 115.357143 28.870933 115.450549 28.842466 115.543956 28.813202 115.637363 28.783135 115.730769 28.752259 115.824176 28.720568 115.917582 28.688057 116.010989 28.654720 116.104396 28.620550 116.197802 28.585543 116.291209 28.549693 116.384615 28.512993 116.478022 28.475438 116.571429 28.437022 116.664835 28.397739 116.758242 28.357584 116.851648 28.316551 116.945055 28.274634 117.038462 28.231827 117.131868 28.188124 117.225275 28.143520 117.318681 28.098009 117.412088 28.051585 117.505495 28.004243 117.598901 27.955976 117.692308 27.906779 117.785714 27.856646 117.879121 27.805571 117.972527 27.753549 118.065934 27.700573 118.159341 27.646638 118.252747 27.591739 118.346154 27.535868 118.439560 27.479022 118.532967 27.421193 118.626374 27.362376 118.719780 27.302565 118.813187 27.241755 118.906593 27.179939 119.000000 27.117113 119.093407 27.053269 119.186813 26.988403 119.280220 26.922508 119.373626 26.855579 119.467033 26.787611 119.560440 26.718596 119.653846 26.648530 119.747253 26.577407 119.840659 26.505220 119.934066 26.431965 120.027473 26.357635 120.120879 26.282227 120.214286 26.205749 120.307692 26.128212 120.401099 26.049625 120.494505 25.969998 120.587912 25.889343 120.681319 25.807670 120.774725 25.724988 120.868132 25.641308 120.961538 25.556641 121.054945 25.470997 121.148352 25.384385 121.241758 25.296817 121.335165 25.208303 121.428571 25.118853 121.521978 25.028477 121.615385 24.937186 121.708791 24.844990 121.802198 24.751899 121.895604 24.657924 121.989011 24.563074 122.082418 24.467361 122.175824 24.370795 122.269231 24.273385 122.362637 24.175143 122.456044 24.076078 122.549451 23.976202 122.642857 23.875523 122.736264 23.774053 122.829670 23.671801 122.923077 23.568779 123.016484 23.464996 123.109890 23.360464 123.203297 23.255191 123.296703 23.149188 123.390110 23.042467 123.483516 22.935036 123.576923 22.826907 123.670330 22.718089 123.763736 22.608593 123.857143 22.498430 123.950549 22.387610 124.043956 22.276142 124.137363 22.164038 124.230769 22.051307 124.324176 21.937960 124.417582 21.824008 124.510989 21.709460 124.604396 21.594327 124.697802 21.478619 124.791209 21.362346 124.884615 21.245520 124.978022 21.128150 125.071429 21.010246 125.164835 20.891819 125.258242 20.772879 125.351648 20.653436 125.445055 20.533501 125.538462 20.413085 125.631868 20.292196 125.725275 20.170847 125.818681 20.049046 125.912088 19.926805 126.005495 19.804133 126.098901 19.681042 126.192308 19.557540 126.285714 19.433640 126.379121 19.309350 126.472527 19.184682 126.565934 19.059645 126.659341 18.934250 126.752747 18.808507 126.846154 18.682427 126.939560 18.556019 127.032967 18.429295 127.126374 18.302265 127.219780 18.174938 127.313187 18.047325 127.406593 17.919437 127.500000 17.791283 127.593407 17.662875 127.686813 17.534222 127.780220 17.405335 127.873626 17.276223 127.967033 17.146898 128.060440 17.017370 128.153846 16.887649 128.247253 16.757745 128.340659 16.627669 128.434066 16.497431 128.527473 16.367041 128.620879 16.236509 128.714286 16.105847 128.807692 15.975064 128.901099 15.844170 128.994505 15.713176 129.087912 15.582092 129.181319 15.450929 129.274725 15.319697 129.368132 15.188406 129.461538 15.057066 129.554945 14.925688 129.648352 14.794283 129.741758 14.662859 129.835165 14.531429 129.928571 14.400001 130.021978 14.268587 130.115385 14.137197 130.208791 14.005840 130.302198 13.874528 130.395604 13.743271 130.489011 13.612078 130.582418 13.480961 130.675824 13.349930 130.769231 13.218994 130.862637 13.088165 130.956044 12.957452 131.049451 12.826866 131.142857 12.696417 131.236264 12.566116 131.329670 12.435973 131.423077 12.305998 131.516484 12.176201 131.609890 12.046593 131.703297 11.917184 131.796703 11.787985 131.890110 11.659005 131.983516 11.530256 132.076923 11.401747 132.170330 11.273489 132.263736 11.145491 132.357143 11.017765 132.450549 10.890321 132.543956 10.763169 132.637363 10.636319 132.730769 10.509781 132.824176 10.383567 132.917582 10.257686 133.010989 10.132148 133.104396 10.006965 133.197802 9.882145 133.291209 9.757700 133.384615 9.633640 133.478022 9.509976 133.571429 9.386716 133.664835 9.263873 133.758242 9.141456 133.851648 9.019475 133.945055 8.897940 134.038462 8.776863 134.131868 8.656254 134.225275 8.536122 134.318681 8.416478 134.412088 8.297333 134.505495 8.178696 134.598901 8.060578 134.692308 7.942990 134.785714 7.825941 134.879121 7.709442 134.972527 7.593504 135.065934 7.478136 135.159341 7.363349 135.252747 7.249153 135.346154 7.135559 135.439560 7.022577 135.532967 6.910216 135.626374 6.798489 135.719780 6.687404 135.813187 6.576972 135.906593 6.467204 136.000000 6.358110 136.093407 6.249700 136.186813 6.141984 136.280220 6.034973 136.373626 5.928677 136.467033 5.823106 136.560440 5.718272 136.653846 5.614183 136.747253 5.510850 136.840659 5.408284 136.934066 5.306496 137.027473 5.205494 137.120879 5.105290 137.214286 5.005894 137.307692 4.907316 137.401099 4.809567 137.494505 4.712657 137.587912 4.616596 137.681319 4.521394 137.774725 4.427063 137.868132 4.333611 137.961538 4.241050 138.054945 4.149390 138.148352 4.058641 138.241758 3.968813 138.335165 3.879918 138.428571 3.791964 138.521978 3.704962 138.615385 3.618924 138.708791 3.533858 138.802198 3.449776 138.895604 3.366687 138.989011 3.284603 139.082418 3.203533 139.175824 3.123487 139.269231 3.044477 139.362637 2.966511 139.456044 2.889601 139.549451 2.813758 139.642857 2.738990 139.736264 2.665309 139.829670 2.592725 139.923077 2.521248 140.016484 2.450888 140.109890 2.381657 140.203297 2.313563 140.296703 2.246618 140.390110 2.180832 140.483516 2.116215 140.576923 2.052777 140.670330 1.990529 140.763736 1.929481 140.857143 1.869643 140.950549 1.811026 141.043956 1.753641 141.137363 1.697496 141.230769 1.642603 141.324176 1.588972 141.417582 1.536614 141.510989 1.485538 141.604396 1.435755 141.697802 1.387275 141.791209 1.340109 141.884615 1.294266 141.978022 1.249758 142.071429 1.206594 142.164835 1.164786 142.258242 1.124342 142.351648 1.085274 142.445055 1.047592 142.538462 1.011305 142.631868 0.976426 142.725275 0.942962 142.818681 0.910927 142.912088 0.880328 143.005495 0.851177 143.098901 0.823484 143.192308 0.797260 143.285714 0.772514 143.379121 0.749257 143.472527 0.727497 143.565934 0.707230 143.659341 0.688451 143.752747 0.671152 143.846154 0.655329 143.939560 0.640976 144.032967 0.628085 144.126374 0.616652 144.219780 0.606671 144.313187 0.598135 144.406593 0.591038 144.500000 0.585374 144.593407 0.581138 144.686813 0.578323 144.780220 0.576923 144.873626 0.576933 144.967033 0.578346 145.060440 0.581156 145.153846 0.585358 145.247253 0.590945 145.340659 0.597912 145.434066 0.606252 145.527473 0.615959 145.620879 0.627028 145.714286 0.639452 145.807692 0.653225 145.901099 0.668342 145.994505 0.684796 146.087912 0.702582 146.181319 0.721693 146.274725 0.742123 146.368132 0.763867 146.461538 0.786918 146.554945 0.811270 146.648352 0.836918 146.741758 0.863856 146.835165 0.892076 146.928571 0.921574 147.021978 0.952344 147.115385 0.984379 147.208791 1.017673 147.302198 1.052221 147.395604 1.088016 147.489011 1.125053 147.582418 1.163325 147.675824 1.202827 147.769231 1.243552 147.862637 1.285494 147.956044 1.328648 148.049451 1.373007 148.142857 1.418566 148.236264 1.465318 148.329670 1.513258 148.423077 1.562379 148.516484 1.612676 148.609890 1.664142 148.703297 1.716771 148.796703 1.770558 148.890110 1.825496 148.983516 1.881580 149.076923 1.938804 149.170330 1.997161 149.263736 2.056645 149.357143 2.117251 149.450549 2.178972 149.543956 2.241803 149.637363 2.305737 149.730769 2.370769 149.824176 2.436892 149.917582 2.504101 150.010989 2.572389 150.104396 2.641751 150.197802 2.712180 150.291209 2.783671 150.384615 2.856217 150.478022 2.929813 150.571429 3.004452 150.664835 3.080129 150.758242 3.156837 150.851648 3.234571 150.945055 3.313325 151.038462 3.393092 151.131868 3.473866 151.225275 3.555642 151.318681 3.638414 151.412088 3.722175 151.505495 3.806920 151.598901 3.892642 151.692308 3.979336 151.785714 4.066995 151.879121 4.155614 151.972527 4.245186 152.065934 4.335706 152.159341 4.427168 152.252747 4.519565 152.346154 4.612892 152.439560 4.707142 152.532967 4.802310 152.626374 4.898389 152.719780 4.995374 152.813187 5.093259 152.906593 5.192037 153.000000 5.291703 153.093407 5.392250 153.186813 5.493673 153.280220 5.595966 153.373626 5.699122 153.467033 5.803136 153.560440 5.908001 153.653846 6.013712 153.747253 6.120263 153.840659 6.227647 153.934066 6.335859 154.027473 6.444892 154.120879 6.554741 154.214286 6.665400 154.307692 6.776863 154.401099 6.889123 154.494505 7.002174 154.587912 7.116011 154.681319 7.230628 154.774725 7.346019 154.868132 7.462177 154.961538 7.579097 155.054945 7.696772 155.148352 7.815197 155.241758 7.934366 155.335165 8.054273 155.428571 8.174911 155.521978 8.296275 155.615385 8.418358 155.708791 8.541155 155.802198 8.664660 155.895604 8.788866 155.989011 8.913769 156.082418 9.039360 156.175824 9.165636 156.269231 9.292589 156.362637 9.420214 156.456044 9.548505 156.549451 9.677455 156.642857 9.807059 156.736264 9.937311 156.829670 10.068204 156.923077 10.199733 157.016484 10.331892 157.109890 10.464674 157.203297 10.598075 157.296703 10.732086 157.390110 10.866704 157.483516 11.001922 157.576923 11.137733 157.670330 11.274131 157.763736 11.411112 157.857143 11.548668 157.950549 11.686794 158.043956 11.825484 158.137363 11.964732 158.230769 12.104531 158.324176 12.244876 158.417582 12.385761 158.510989 12.527179 158.604396 12.669126 158.697802 12.811594 158.791209 12.954578 158.884615 13.098071 158.978022 13.242068 159.071429 13.386564 159.164835 13.531550 159.258242 13.677023 159.351648 13.822976 159.445055 13.969402 159.538462 14.116296 159.631868 14.263652 159.725275 14.411463 159.818681 14.559724 159.912088 14.708430 160.005495 14.857573 160.098901 15.007147 160.192308 15.157148 160.285714 15.307568 160.379121 15.458403 160.472527 15.609645 160.565934 15.761288 160.659341 15.913328 160.752747 16.065757 160.846154 16.218571 160.939560 16.371762 161.032967 16.525325 161.126374 16.679253 161.219780 16.833542 161.313187 16.988185 161.406593 17.143175 161.500000 17.298507 161.593407 17.454175 161.686813 17.610173 161.780220 17.766494 161.873626 17.923134 161.967033 18.080085 162.060440 18.237342 162.153846 18.394900 162.247253 18.552750 162.340659 18.710889 162.434066 18.869310 162.527473 19.028007 162.620879 19.186973 162.714286 19.346203 162.807692 19.505691 162.901099 19.665432 162.994505 19.825418 163.087912 19.985643 163.181319 20.146103 163.274725 20.306791 163.368132 20.467700 163.461538 20.628826 163.554945 20.790161 163.648352 20.951700 163.741758 21.113437 163.835165 21.275367 163.928571 21.437482 164.021978 21.599776 164.115385 21.762245 164.208791 21.924882 164.302198 22.087681 164.395604 22.250635 164.489011 22.413740 164.582418 22.576988 164.675824 22.740375 164.769231 22.903893 164.862637 23.067537 164.956044 23.231302 165.049451 23.395180 165.142857 23.559166 165.236264 23.723254 165.329670 23.887438 165.423077 24.051712 165.516484 24.216070 165.609890 24.380506 165.703297 24.545014 165.796703 24.709587 165.890110 24.874221 165.983516 25.038909 166.076923 25.203645 166.170330 25.368423 166.263736 25.533236 166.357143 25.698080 166.450549 25.862948 166.543956 26.027834 166.637363 26.192731 166.730769 26.357635" class="line reactive nofill" /></g></g><g class="titles" /><g transform="translate(20, 10)" class="plot overlay"><g class="series serie-0 color-0" /></g><g transform="translate(20, 10)" class="plot text-overlay"><g class="series serie-0 color-0" /></g><g transform="translate(20, 10)" class="plot tooltip-overlay"><g transform="translate(0 0)" style="opacity: 0" class="tooltip"><rect rx="0" ry="0" width="0" height="0" class="tooltip-box" /><g class="text" /></g></g></g></svg>