<?xml version='1.0' encoding='utf-8'?>
<svg xmlns="http://www.w3.org/2000/svg" id="chart-76067a47-2a6b-48d4-9afb-9501a8f7c270" class="pygal-chart pygal-sparkline" viewBox="0 0 200 50" width="200" height="50"><!--Generated with pygal 3.0.5 (etree) ©Kozea 2012-2016 on 2024-12-22--><!--http://pygal.org--><!--http://github.com/Kozea/pygal--><defs><style type="text/css">#chart-76067a47-2a6b-48d4-9afb-9501a8f7c270{-webkit-user-select:none;-webkit-font-smoothing:antialiased;font-family:Consolas,"Liberation Mono",Menlo,Courier,monospace}#chart-76067a47-2a6b-48d4-9afb-9501a8f7c270 .title{font-family:Consolas,"Liberation Mono",Menlo,Courier,monospace;font-size:16px}#chart-76067a47-2a6b-48d4-9afb-9501a8f7c270 .legends .legend text{font-family:Consolas,"Liberation Mono",Menlo,Courier,monospace;font-size:14px}#chart-76067a47-2a6b-48d4-9afb-9501a8f7c270 .axis text{font-family:Consolas,"Liberation Mono",Menlo,Courier,monospace;font-size:10px}#chart-76067a47-2a6b-48d4-9afb-9501a8f7c270 .axis text.major{font-family:Consolas,"Liberation Mono",Menlo,Courier,monospace;font-size:10px}#chart-76067a47-2a6b-48d4-9afb-9501a8f7c270 .text-overlay text.value{font-family:Consolas,"Liberation Mono",Menlo,Courier,monospace;font-size:16px}#chart-76067a47-2a6b-48d4-9afb-9501a8f7c270 .text-overlay text.label{font-family:Consolas,"Liberation Mono",Menlo,Courier,monospace;font-size:10px}#chart-76067a47-2a6b-48d4-9afb-9501a8f7c270 .tooltip{font-family:Consolas,"Liberation Mono",Menlo,Courier,monospace;font-size:14px}#chart-76067a47-2a6b-48d4-9afb-9501a8f7c270 text.no_data{font-family:Consolas,"Liberation Mono",Menlo,Courier,monospace;font-size:64px}
#chart-76067a47-2a6b-48d4-9afb-9501a8f7c270{background-color:rgba(249,249,249,1)}#chart-76067a47-2a6b-48d4-9afb-9501a8f7c270 path,#chart-76067a47-2a6b-48d4-9afb-9501a8f7c270 line,#chart-76067a47-2a6b-48d4-9afb-9501a8f7c270 rect,#chart-76067a47-2a6b-48d4-9afb-9501a8f7c270 circle{-webkit-transition:150ms;-moz-transition:150ms;transition:150ms}#chart-76067a47-2a6b-48d4-9afb-9501a8f7c270 .graph &gt; .background{fill:rgba(249,249,249,1)}#chart-76067a47-2a6b-48d4-9afb-9501a8f7c270 .plot &gt; .background{fill:rgba(255,255,255,1)}#chart-76067a47-2a6b-48d4-9afb-9501a8f7c270 .graph{fill:rgba(0,0,0,.87)}#chart-76067a47-2a6b-48d4-9afb-9501a8f7c270 text.no_data{fill:rgba(0,0,0,1)}#chart-76067a47-2a6b-48d4-9afb-9501a8f7c270 .title{fill:rgba(0,0,0,1)}#chart-76067a47-2a6b-48d4-9afb-9501a8f7c270 .legends .legend text{fill:rgba(0,0,0,.87)}#chart-76067a47-2a6b-48d4-9afb-9501a8f7c270 .legends .legend:hover text{fill:rgba(0,0,0,1)}#chart-76067a47-2a6b-48d4-9afb-9501a8f7c270 .axis .line{stroke:rgba(0,0,0,1)}#chart-76067a47-2a6b-48d4-9afb-9501a8f7c270 .axis .guide.line{stroke:rgba(0,0,0,.54)}#chart-76067a47-2a6b-48d4-9afb-9501a8f7c270 .axis .major.line{stroke:rgba(0,0,0,.87)}#chart-76067a47-2a6b-48d4-9afb-9501a8f7c270 .axis text.major{fill:rgba(0,0,0,1)}#chart-76067a47-2a6b-48d4-9afb-9501a8f7c270 .axis.y .guides:hover .guide.line,#chart-76067a47-2a6b-48d4-9afb-9501a8f7c270 .line-graph .axis.x .guides:hover .guide.line,#chart-76067a47-2a6b-48d4-9afb-9501a8f7c270 .stackedline-graph .axis.x .guides:hover .guide.line,#chart-76067a47-2a6b-48d4-9afb-9501a8f7c270 .xy-graph .axis.x .guides:hover .guide.line{stroke:rgba(0,0,0,1)}#chart-76067a47-2a6b-48d4-9afb-9501a8f7c270 .axis .guides:hover text{fill:rgba(0,0,0,1)}#chart-76067a47-2a6b-48d4-9afb-9501a8f7c270 .reactive{fill-opacity:.7;stroke-opacity:.8;stroke-width:1}#chart-76067a47-2a6b-48d4-9afb-9501a8f7c270 .ci{stroke:rgba(0,0,0,.87)}#chart-76067a47-2a6b-48d4-9afb-9501a8f7c270 .reactive.active,#chart-76067a47-2a6b-48d4-9afb-9501a8f7c270 .active .reactive{fill-opacity:.8;stroke-opacity:.9;stroke-width:4}#chart-76067a47-2a6b-48d4-9afb-9501a8f7c270 .ci .reactive.active{stroke-width:1.5}#chart-76067a47-2a6b-48d4-9afb-9501a8f7c270 .series text{fill:rgba(0,0,0,1)}#chart-76067a47-2a6b-48d4-9afb-9501a8f7c270 .tooltip rect{fill:rgba(255,255,255,1);stroke:rgba(0,0,0,1);-webkit-transition:opacity 150ms;-moz-transition:opacity 150ms;transition:opacity 150ms}#chart-76067a47-2a6b-48d4-9afb-9501a8f7c270 .tooltip .label{fill:rgba(0,0,0,.87)}#chart-76067a47-2a6b-48d4-9afb-9501a8f7c270 .tooltip .label{fill:rgba(0,0,0,.87)}#chart-76067a47-2a6b-48d4-9afb-9501a8f7c270 .tooltip .legend{font-size:.8em;fill:rgba(0,0,0,.54)}#chart-76067a47-2a6b-48d4-9afb-9501a8f7c270 .tooltip .x_label{font-size:.6em;fill:rgba(0,0,0,1)}#chart-76067a47-2a6b-48d4-9afb-9501a8f7c270 .tooltip .xlink{font-size:.5em;text-decoration:underline}#chart-76067a47-2a6b-48d4-9afb-9501a8f7c270 .tooltip .value{font-size:1.5em}#chart-76067a47-2a6b-48d4-9afb-9501a8f7c270 .bound{font-size:.5em}#chart-76067a47-2a6b-48d4-9afb-9501a8f7c270 .max-value{font-size:.75em;fill:rgba(0,0,0,.54)}#chart-76067a47-2a6b-48d4-9afb-9501a8f7c270 .map-element{fill:rgba(255,255,255,1);stroke:rgba(0,0,0,.54) !important}#chart-76067a47-2a6b-48d4-9afb-9501a8f7c270 .map-element .reactive{fill-opacity:inherit;stroke-opacity:inherit}#chart-76067a47-2a6b-48d4-9afb-9501a8f7c270 .color-0,#chart-76067a47-2a6b-48d4-9afb-9501a8f7c270 .color-0 a:visited{stroke:#F44336;fill:#F44336}#chart-76067a47-2a6b-48d4-9afb-9501a8f7c270 .text-overlay .color-0 text{fill:black}
#chart-76067a47-2a6b-48d4-9afb-9501a8f7c270 text.no_data{text-anchor:middle}#chart-76067a47-2a6b-48d4-9afb-9501a8f7c270 .guide.line{fill:none}#chart-76067a47-2a6b-48d4-9afb-9501a8f7c270 .centered{text-anchor:middle}#chart-76067a47-2a6b-48d4-9afb-9501a8f7c270 .title{text-anchor:middle}#chart-76067a47-2a6b-48d4-9afb-9501a8f7c270 .legends .legend text{fill-opacity:1}#chart-76067a47-2a6b-48d4-9afb-9501a8f7c270 .axis.x text{text-anchor:middle}#chart-76067a47-2a6b-48d4-9afb-9501a8f7c270 .axis.x:not(.web) text[transform]{text-anchor:start}#chart-76067a47-2a6b-48d4-9afb-9501a8f7c270 .axis.x:not(.web) text[transform].backwards{text-anchor:end}#chart-76067a47-2a6b-48d4-9afb-9501a8f7c270 .axis.y text{text-anchor:end}#chart-76067a47-2a6b-48d4-9afb-9501a8f7c270 .axis.y text[transform].backwards{text-anchor:start}#chart-76067a47-2a6b-48d4-9afb-9501a8f7c270 .axis.y2 text{text-anchor:start}#chart-76067a47-2a6b-48d4-9afb-9501a8f7c270 .axis.y2 text[transform].backwards{text-anchor:end}#chart-76067a47-2a6b-48d4-9afb-9501a8f7c270 .axis .guide.line{stroke-dasharray:4,4;stroke:black}#chart-76067a47-2a6b-48d4-9afb-9501a8f7c270 .axis .major.guide.line{stroke-dasharray:6,6;stroke:black}#chart-76067a47-2a6b-48d4-9afb-9501a8f7c270 .horizontal .axis.y .guide.line,#chart-76067a47-2a6b-48d4-9afb-9501a8f7c270 .horizontal .axis.y2 .guide.line,#chart-76067a47-2a6b-48d4-9afb-9501a8f7c270 .vertical .axis.x .guide.line{opacity:0}#chart-76067a47-2a6b-48d4-9afb-9501a8f7c270 .horizontal .axis.always_show .guide.line,#chart-76067a47-2a6b-48d4-9afb-9501a8f7c270 .vertical .axis.always_show .guide.line{opacity:1 !important}#chart-76067a47-2a6b-48d4-9afb-9501a8f7c270 .axis.y .guides:hover .guide.line,#chart-76067a47-2a6b-48d4-9afb-9501a8f7c270 .axis.y2 .guides:hover .guide.line,#chart-76067a47-2a6b-48d4-9afb-9501a8f7c270 .axis.x .guides:hover .guide.line{opacity:1}#chart-76067a47-2a6b-48d4-9afb-9501a8f7c270 .axis .guides:hover text{opacity:1}#chart-76067a47-2a6b-48d4-9afb-9501a8f7c270 .nofill{fill:none}#chart-76067a47-2a6b-48d4-9afb-9501a8f7c270 .subtle-fill{fill-opacity:.2}#chart-76067a47-2a6b-48d4-9afb-9501a8f7c270 .dot{stroke-width:1px;fill-opacity:1;stroke-opacity:1}#chart-76067a47-2a6b-48d4-9afb-9501a8f7c270 .dot.active{stroke-width:5px}#chart-76067a47-2a6b-48d4-9afb-9501a8f7c270 .dot.negative{fill:transparent}#chart-76067a47-2a6b-48d4-9afb-9501a8f7c270 text,#chart-76067a47-2a6b-48d4-9afb-9501a8f7c270 tspan{stroke:none !important}#chart-76067a47-2a6b-48d4-9afb-9501a8f7c270 .series text.active{opacity:1}#chart-76067a47-2a6b-48d4-9afb-9501a8f7c270 .tooltip rect{fill-opacity:.95;stroke-width:.5}#chart-76067a47-2a6b-48d4-9afb-9501a8f7c270 .tooltip text{fill-opacity:1}#chart-76067a47-2a6b-48d4-9afb-9501a8f7c270 .showable{visibility:hidden}#chart-76067a47-2a6b-48d4-9afb-9501a8f7c270 .showable.shown{visibility:visible}#chart-76067a47-2a6b-48d4-9afb-9501a8f7c270 .gauge-background{fill:rgba(229,229,229,1);stroke:none}#chart-76067a47-2a6b-48d4-9afb-9501a8f7c270 .bg-lines{stroke:rgba(249,249,249,1);stroke-width:2px}</style><script type="text/javascript">window.pygal = window.pygal || {};window.pygal.config = window.pygal.config || {};window.pygal.config['76067a47-2a6b-48d4-9afb-9501a8f7c270'] = {"allow_interruptions": false, "box_mode": "extremes", "classes": ["pygal-chart", "pygal-sparkline"], "css": ["file://style.css", "file://graph.css"], "defs": [], "disable_xml_declaration": false, "dots_size": 2.5, "dynamic_print_values": false, "explicit_size": true, "fill": false, "force_uri_protocol": "https", "formatter": null, "half_pie": false, "height": 50, "include_x_axis": false, "inner_radius": 0, "interpolate": "cubic", "interpolation_parameters": {}, "interpolation_precision": 250, "inverse_y_axis": false, "js": [], "legend_at_bottom": false, "legend_at_bottom_columns": null, "legend_box_size": 12, "logarithmic": false, "margin": 10, "margin_bottom": null, "margin_left": null, "margin_right": null, "margin_top": null, "max_scale": 2, "min_scale": 1, "missing_value_fill_truncation": "x", "no_data_text": "", "no_prefix": false, "order_min": null, "pretty_print": false, "print_labels": false, "print_values": false, "print_values_position": "center", "print_zeroes": true, "range": null, "rounded_bars": null, "secondary_range": null, "show_dots": false, "show_legend": false, "show_minor_x_labels": true, "show_minor_y_labels": true, "show_only_major_dots": false, "show_x_guides": false, "show_x_labels": false, "show_y_guides": true, "show_y_labels": true, "spacing": 0, "stack_from_top": false, "strict": false, "stroke": true, "stroke_style": null, "style": {"background": "rgba(249, 249, 249, 1)", "ci_colors": [], "colors": ["#F44336", "#3F51B5", "#009688", "#FFC107", "#FF5722", "#9C27B0", "#03A9F4", "#8BC34A", "#FF9800", "#E91E63", "#2196F3", "#4CAF50", "#FFEB3B", "#673AB7", "#00BCD4", "#CDDC39", "#9E9E9E", "#607D8B"], "dot_opacity": "1", "font_family": "Consolas, \"Liberation Mono\", Menlo, Courier, monospace", "foreground": "rgba(0, 0, 0, .87)", "foreground_strong": "rgba(0, 0, 0, 1)", "foreground_subtle": "rgba(0, 0, 0, .54)", "guide_stroke_color": "black", "guide_stroke_dasharray": "4,4", "label_font_family": "Consolas, \"Liberation Mono\", Menlo, Courier, monospace", "label_font_size": 10, "legend_font_family": "Consolas, \"Liberation Mono\", Menlo, Courier, monospace", "legend_font_size": 14, "major_guide_stroke_color": "black", "major_guide_stroke_dasharray": "6,6", "major_label_font_family": "Consolas, \"Liberation Mono\", Menlo, Courier, monospace", "major_label_font_size": 10, "no_data_font_family": "Consolas, \"Liberation Mono\", Menlo, Courier, monospace", "no_data_font_size": 64, "opacity": ".7", "opacity_hover": ".8", "plot_background": "rgba(255, 255, 255, 1)", "stroke_opacity": ".8", "stroke_opacity_hover": ".9", "stroke_width": "1", "stroke_width_hover": "4", "title_font_family": "Consolas, \"Liberation Mono\", Menlo, Courier, monospace", "title_font_size": 16, "tooltip_font_family": "Consolas, \"Liberation Mono\", Menlo, Courier, monospace", "tooltip_font_size": 14, "transition": "150ms", "value_background": "rgba(229, 229, 229, 1)", "value_colors": [], "value_font_family": "Consolas, \"Liberation Mono\", Menlo, Courier, monospace", "value_font_size": 16, "value_label_font_family": "Consolas, \"Liberation Mono\", Menlo, Courier, monospace", "value_label_font_size": 10}, "title": null, "tooltip_border_radius": 0, "tooltip_fancy_mode": true, "truncate_label": null, "truncate_legend": null, "width": 200, "x_label_rotation": 0, "x_labels": ["2024/12", "2024/11", "2024/10", "2024/9", "2024/8"], "x_labels_major": null, "x_labels_major_count": null, "x_labels_major_every": null, "x_title": null, "xrange": null, "y_label_rotation": 0, "y_labels": null, "y_labels_major": null, "y_labels_major_count": null, "y_labels_major_every": null, "y_title": null, "zero": 0, "legends": [""]}</script></defs><title>Pygal</title><g class="graph line-graph vertical"><rect x="0" y="0" width="200" height="50" class="background" /><g transform="translate(82, 10)" class="plot"><rect x="0" y="0" width="108.0" height="30" class="background" /><g class="axis y always_show"><path d="M0.000000 30.000000 h108.000000" class="line" /><g class="guides"><path d="M0.000000 29.423077 h108.000000" class="guide line" /><text x="-5" y="32.92307692307692" class="">0.2260215954</text><title>0.2260215954</title></g><g class="guides"><path d="M0.000000 0.576923 h108.000000" class="guide line" /><text x="-5" y="4.076923076923077" class="">15.26360914</text><title>15.26360914</title></g></g><g class="series serie-0 color-0"><path d="M2.076923 18.347027 L2.180769 18.226040 2.284615 18.105058 2.388462 17.984085 2.492308 17.863128 2.596154 17.742191 2.700000 17.621278 2.803846 17.500396 2.907692 17.379548 3.011538 17.258740 3.115385 17.137978 3.219231 17.017265 3.323077 16.896606 3.426923 16.776008 3.530769 16.655475 3.634615 16.535011 3.738462 16.414622 3.842308 16.294313 3.946154 16.174088 4.050000 16.053953 4.153846 15.933913 4.257692 15.813973 4.361538 15.694138 4.465385 15.574412 4.569231 15.454800 4.673077 15.335309 4.776923 15.215942 4.880769 15.096704 4.984615 14.977602 5.088462 14.858639 5.192308 14.739820 5.296154 14.621151 5.400000 14.502636 5.503846 14.384282 5.607692 14.266091 5.711538 14.148070 5.815385 14.030224 5.919231 13.912557 6.023077 13.795074 6.126923 13.677781 6.230769 13.560682 6.334615 13.443783 6.438462 13.327088 6.542308 13.210603 6.646154 13.094332 6.750000 12.978280 6.853846 12.862453 6.957692 12.746855 7.061538 12.631491 7.165385 12.516366 7.269231 12.401486 7.373077 12.286855 7.476923 12.172478 7.580769 12.058361 7.684615 11.944508 7.788462 11.830924 7.892308 11.717614 7.996154 11.604583 8.100000 11.491837 8.203846 11.379379 8.307692 11.267216 8.411538 11.155352 8.515385 11.043792 8.619231 10.932541 8.723077 10.821604 8.826923 10.710987 8.930769 10.600693 9.034615 10.490728 9.138462 10.381098 9.242308 10.271806 9.346154 10.162858 9.450000 10.054260 9.553846 9.946015 9.657692 9.838129 9.761538 9.730607 9.865385 9.623454 9.969231 9.516675 10.073077 9.410275 10.176923 9.304259 10.280769 9.198631 10.384615 9.093398 10.488462 8.988563 10.592308 8.884132 10.696154 8.780110 10.800000 8.676501 10.903846 8.573312 11.007692 8.470546 11.111538 8.368208 11.215385 8.266305 11.319231 8.164840 11.423077 8.063819 11.526923 7.963247 11.630769 7.863128 11.734615 7.763468 11.838462 7.664272 11.942308 7.565544 12.046154 7.467290 12.150000 7.369514 12.253846 7.272222 12.357692 7.175419 12.461538 7.079109 12.565385 6.983297 12.669231 6.887990 12.773077 6.793190 12.876923 6.698904 12.980769 6.605137 13.084615 6.511893 13.188462 6.419177 13.292308 6.326995 13.396154 6.235352 13.500000 6.144251 13.603846 6.053699 13.707692 5.963701 13.811538 5.874261 13.915385 5.785384 14.019231 5.697076 14.123077 5.609340 14.226923 5.522183 14.330769 5.435610 14.434615 5.349624 14.538462 5.264232 14.642308 5.179439 14.746154 5.095248 14.850000 5.011665 14.953846 4.928696 15.057692 4.846345 15.161538 4.764617 15.265385 4.683518 15.369231 4.603051 15.473077 4.523222 15.576923 4.444037 15.680769 4.365500 15.784615 4.287616 15.888462 4.210389 15.992308 4.133826 16.096154 4.057931 16.200000 3.982709 16.303846 3.908165 16.407692 3.834304 16.511538 3.761131 16.615385 3.688651 16.719231 3.616869 16.823077 3.545789 16.926923 3.475418 17.030769 3.405760 17.134615 3.336819 17.238462 3.268601 17.342308 3.201112 17.446154 3.134355 17.550000 3.068335 17.653846 3.003059 17.757692 2.938530 17.861538 2.874755 17.965385 2.811737 18.069231 2.749481 18.173077 2.687994 18.276923 2.627279 18.380769 2.567342 18.484615 2.508187 18.588462 2.449821 18.692308 2.392247 18.796154 2.335470 18.900000 2.279497 19.003846 2.224330 19.107692 2.169977 19.211538 2.116441 19.315385 2.063727 19.419231 2.011842 19.523077 1.960788 19.626923 1.910573 19.730769 1.861199 19.834615 1.812674 19.938462 1.765000 20.042308 1.718185 20.146154 1.672231 20.250000 1.627146 20.353846 1.582932 20.457692 1.539596 20.561538 1.497142 20.665385 1.455576 20.769231 1.414902 20.873077 1.375126 20.976923 1.336252 21.080769 1.298285 21.184615 1.261230 21.288462 1.225093 21.392308 1.189878 21.496154 1.155590 21.600000 1.122235 21.703846 1.089817 21.807692 1.058341 21.911538 1.027812 22.015385 0.998236 22.119231 0.969616 22.223077 0.941959 22.326923 0.915269 22.430769 0.889551 22.534615 0.864810 22.638462 0.841051 22.742308 0.818280 22.846154 0.796500 22.950000 0.775718 23.053846 0.755937 23.157692 0.737164 23.261538 0.719403 23.365385 0.702658 23.469231 0.686936 23.573077 0.672240 23.676923 0.658577 23.780769 0.645951 23.884615 0.634366 23.988462 0.623828 24.092308 0.614343 24.196154 0.605914 24.300000 0.598547 24.403846 0.592246 24.507692 0.587018 24.611538 0.582867 24.715385 0.579797 24.819231 0.577814 24.923077 0.576923 25.026923 0.577129 25.130769 0.578436 25.234615 0.580850 25.338462 0.584376 25.442308 0.589019 25.546154 0.594783 25.650000 0.601674 25.753846 0.609697 25.857692 0.618856 25.961538 0.629157 26.065385 0.640605 26.169231 0.653204 26.273077 0.666959 26.376923 0.681877 26.480769 0.697961 26.584615 0.715216 26.688462 0.733648 26.792308 0.753262 26.896154 0.774062 27.000000 0.796053 27.103846 0.819241 27.207692 0.843630 27.311538 0.869226 27.415385 0.896034 27.519231 0.924057 27.623077 0.953302 27.726923 0.983774 27.830769 1.015477 27.934615 1.048416 28.038462 1.082597 28.142308 1.118021 28.246154 1.154683 28.350000 1.192575 28.453846 1.231686 28.557692 1.272009 28.661538 1.313534 28.765385 1.356253 28.869231 1.400158 28.973077 1.445239 29.076923 1.491488 29.180769 1.538897 29.284615 1.587455 29.388462 1.637156 29.492308 1.687989 29.596154 1.739946 29.700000 1.793019 29.803846 1.847199 29.907692 1.902477 30.011538 1.958844 30.115385 2.016292 30.219231 2.074812 30.323077 2.134395 30.426923 2.195032 30.530769 2.256715 30.634615 2.319435 30.738462 2.383184 30.842308 2.447952 30.946154 2.513731 31.050000 2.580512 31.153846 2.648286 31.257692 2.717046 31.361538 2.786781 31.465385 2.857483 31.569231 2.929144 31.673077 3.001755 31.776923 3.075307 31.880769 3.149791 31.984615 3.225199 32.088462 3.301522 32.192308 3.378751 32.296154 3.456877 32.400000 3.535892 32.503846 3.615788 32.607692 3.696554 32.711538 3.778183 32.815385 3.860666 32.919231 3.943995 33.023077 4.028159 33.126923 4.113152 33.230769 4.198963 33.334615 4.285585 33.438462 4.373008 33.542308 4.461224 33.646154 4.550225 33.750000 4.640000 33.853846 4.730542 33.957692 4.821843 34.061538 4.913892 34.165385 5.006682 34.269231 5.100204 34.373077 5.194449 34.476923 5.289408 34.580769 5.385073 34.684615 5.481434 34.788462 5.578484 34.892308 5.676214 34.996154 5.774614 35.100000 5.873676 35.203846 5.973391 35.307692 6.073751 35.411538 6.174747 35.515385 6.276370 35.619231 6.378611 35.723077 6.481462 35.826923 6.584914 35.930769 6.688959 36.034615 6.793587 36.138462 6.898789 36.242308 7.004558 36.346154 7.110884 36.450000 7.217759 36.553846 7.325174 36.657692 7.433119 36.761538 7.541588 36.865385 7.650570 36.969231 7.760057 37.073077 7.870041 37.176923 7.980512 37.280769 8.091462 37.384615 8.202882 37.488462 8.314763 37.592308 8.427098 37.696154 8.539876 37.800000 8.653089 37.903846 8.766730 38.007692 8.880788 38.111538 8.995255 38.215385 9.110122 38.319231 9.225381 38.423077 9.341023 38.526923 9.457039 38.630769 9.573421 38.734615 9.690160 38.838462 9.807247 38.942308 9.924672 39.046154 10.042429 39.150000 10.160508 39.253846 10.278899 39.357692 10.397595 39.461538 10.516587 39.565385 10.635866 39.669231 10.755423 39.773077 10.875250 39.876923 10.995338 39.980769 11.115678 40.084615 11.236261 40.188462 11.357079 40.292308 11.478122 40.396154 11.599384 40.500000 11.720853 40.603846 11.842523 40.707692 11.964383 40.811538 12.086426 40.915385 12.208642 41.019231 12.331024 41.123077 12.453562 41.226923 12.576247 41.330769 12.699071 41.434615 12.822024 41.538462 12.945100 41.642308 13.068288 41.746154 13.191579 41.850000 13.314966 41.953846 13.438439 42.057692 13.561990 42.161538 13.685610 42.265385 13.809291 42.369231 13.933022 42.473077 14.056797 42.576923 14.180606 42.680769 14.304440 42.784615 14.428291 42.888462 14.552150 42.992308 14.676008 43.096154 14.799856 43.200000 14.923686 43.303846 15.047490 43.407692 15.171257 43.511538 15.294981 43.615385 15.418651 43.719231 15.542259 43.823077 15.665797 43.926923 15.789256 44.030769 15.912626 44.134615 16.035900 44.238462 16.159068 44.342308 16.282123 44.446154 16.405054 44.550000 16.527854 44.653846 16.650513 44.757692 16.773024 44.861538 16.895377 44.965385 17.017563 45.069231 17.139574 45.173077 17.261401 45.276923 17.383036 45.380769 17.504469 45.484615 17.625692 45.588462 17.746696 45.692308 17.867473 45.796154 17.988013 45.900000 18.108309 46.003846 18.228351 46.107692 18.348130 46.211538 18.467638 46.315385 18.586867 46.419231 18.705807 46.523077 18.824449 46.626923 18.942786 46.730769 19.060808 46.834615 19.178506 46.938462 19.295872 47.042308 19.412898 47.146154 19.529573 47.250000 19.645891 47.353846 19.761841 47.457692 19.877416 47.561538 19.992606 47.665385 20.107402 47.769231 20.221797 47.873077 20.335782 47.976923 20.449346 48.080769 20.562483 48.184615 20.675183 48.288462 20.787437 48.392308 20.899237 48.496154 21.010575 48.600000 21.121440 48.703846 21.231825 48.807692 21.341721 48.911538 21.451119 49.015385 21.560010 49.119231 21.668386 49.223077 21.776238 49.326923 21.883557 49.430769 21.990335 49.534615 22.096562 49.638462 22.202231 49.742308 22.307332 49.846154 22.411857 49.950000 22.515796 50.053846 22.619142 50.157692 22.721885 50.261538 22.824017 50.365385 22.925529 50.469231 23.026412 50.573077 23.126658 50.676923 23.226258 50.780769 23.325203 50.884615 23.423484 50.988462 23.521093 51.092308 23.618021 51.196154 23.714260 51.300000 23.809800 51.403846 23.904632 51.507692 23.998749 51.611538 24.092141 51.715385 24.184800 51.819231 24.276717 51.923077 24.367883 52.026923 24.458289 52.130769 24.547927 52.234615 24.636789 52.338462 24.724864 52.442308 24.812145 52.546154 24.898624 52.650000 24.984290 52.753846 25.069136 52.857692 25.153152 52.961538 25.236331 53.065385 25.318662 53.169231 25.400139 53.273077 25.480751 53.376923 25.560490 53.480769 25.639348 53.584615 25.717315 53.688462 25.794384 53.792308 25.870544 53.896154 25.945788 54.000000 26.020107 54.103846 26.093494 54.207692 26.165952 54.311538 26.237483 54.415385 26.308093 54.519231 26.377786 54.623077 26.446565 54.726923 26.514435 54.830769 26.581400 54.934615 26.647464 55.038462 26.712631 55.142308 26.776906 55.246154 26.840291 55.350000 26.902792 55.453846 26.964413 55.557692 27.025158 55.661538 27.085030 55.765385 27.144034 55.869231 27.202175 55.973077 27.259455 56.076923 27.315880 56.180769 27.371453 56.284615 27.426179 56.388462 27.480062 56.492308 27.533105 56.596154 27.585313 56.700000 27.636690 56.803846 27.687240 56.907692 27.736968 57.011538 27.785877 57.115385 27.833971 57.219231 27.881255 57.323077 27.927732 57.426923 27.973408 57.530769 28.018285 57.634615 28.062369 57.738462 28.105662 57.842308 28.148170 57.946154 28.189896 58.050000 28.230845 58.153846 28.271021 58.257692 28.310427 58.361538 28.349068 58.465385 28.386948 58.569231 28.424071 58.673077 28.460442 58.776923 28.496064 58.880769 28.530941 58.984615 28.565078 59.088462 28.598478 59.192308 28.631147 59.296154 28.663087 59.400000 28.694304 59.503846 28.724800 59.607692 28.754581 59.711538 28.783650 59.815385 28.812012 59.919231 28.839670 60.023077 28.866629 60.126923 28.892893 60.230769 28.918466 60.334615 28.943353 60.438462 28.967556 60.542308 28.991081 60.646154 29.013931 60.750000 29.036110 60.853846 29.057624 60.957692 29.078475 61.061538 29.098668 61.165385 29.118207 61.269231 29.137097 61.373077 29.155340 61.476923 29.172942 61.580769 29.189907 61.684615 29.206238 61.788462 29.221940 61.892308 29.237017 61.996154 29.251472 62.100000 29.265311 62.203846 29.278537 62.307692 29.291155 62.411538 29.303167 62.515385 29.314580 62.619231 29.325396 62.723077 29.335620 62.826923 29.345255 62.930769 29.354307 63.034615 29.362779 63.138462 29.370676 63.242308 29.378000 63.346154 29.384757 63.450000 29.390951 63.553846 29.396586 63.657692 29.401665 63.761538 29.406193 63.865385 29.410175 63.969231 29.413613 64.073077 29.416513 64.176923 29.418879 64.280769 29.420714 64.384615 29.422022 64.488462 29.422809 64.592308 29.423077 64.696154 29.422831 64.800000 29.422076 64.903846 29.420815 65.007692 29.419052 65.111538 29.416791 65.215385 29.414037 65.319231 29.410794 65.423077 29.407066 65.526923 29.402857 65.630769 29.398171 65.734615 29.393012 65.838462 29.387384 65.942308 29.381292 66.046154 29.374739 66.150000 29.367730 66.253846 29.360269 66.357692 29.352360 66.461538 29.344007 66.565385 29.335214 66.669231 29.325985 66.773077 29.316324 66.876923 29.306236 66.980769 29.295725 67.084615 29.284794 67.188462 29.273448 67.292308 29.261691 67.396154 29.249527 67.500000 29.236961 67.603846 29.223995 67.707692 29.210635 67.811538 29.196885 67.915385 29.182748 68.019231 29.168229 68.123077 29.153332 68.226923 29.138061 68.330769 29.122420 68.434615 29.106414 68.538462 29.090045 68.642308 29.073319 68.746154 29.056240 68.850000 29.038812 68.953846 29.021038 69.057692 29.002923 69.161538 28.984472 69.265385 28.965687 69.369231 28.946574 69.473077 28.927136 69.576923 28.907378 69.680769 28.887303 69.784615 28.866916 69.888462 28.846221 69.992308 28.825222 70.096154 28.803924 70.200000 28.782329 70.303846 28.760443 70.407692 28.738269 70.511538 28.715812 70.615385 28.693075 70.719231 28.670064 70.823077 28.646781 70.926923 28.623231 71.030769 28.599419 71.134615 28.575347 71.238462 28.551022 71.342308 28.526445 71.446154 28.501623 71.550000 28.476558 71.653846 28.451255 71.757692 28.425718 71.861538 28.399951 71.965385 28.373958 72.069231 28.347744 72.173077 28.321312 72.276923 28.294667 72.380769 28.267812 72.484615 28.240752 72.588462 28.213491 72.692308 28.186034 72.796154 28.158383 72.900000 28.130544 73.003846 28.102520 73.107692 28.074315 73.211538 28.045934 73.315385 28.017381 73.419231 27.988660 73.523077 27.959775 73.626923 27.930730 73.730769 27.901529 73.834615 27.872176 73.938462 27.842676 74.042308 27.813033 74.146154 27.783250 74.250000 27.753332 74.353846 27.723283 74.457692 27.693107 74.561538 27.662808 74.665385 27.632390 74.769231 27.601858 74.873077 27.571215 74.976923 27.540466 75.080769 27.509615 75.184615 27.478665 75.288462 27.447622 75.392308 27.416488 75.496154 27.385269 75.600000 27.353968 75.703846 27.322590 75.807692 27.291138 75.911538 27.259616 76.015385 27.228030 76.119231 27.196382 76.223077 27.164678 76.326923 27.132921 76.430769 27.101115 76.534615 27.069264 76.638462 27.037373 76.742308 27.005445 76.846154 26.973485 76.950000 26.941497 77.053846 26.909485 77.157692 26.877453 77.261538 26.845406 77.365385 26.813346 77.469231 26.781279 77.573077 26.749209 77.676923 26.717139 77.780769 26.685074 77.884615 26.653018 77.988462 26.620975 78.092308 26.588949 78.196154 26.556944 78.300000 26.524965 78.403846 26.493015 78.507692 26.461099 78.611538 26.429221 78.715385 26.397384 78.819231 26.365594 78.923077 26.333853 79.026923 26.302167 79.130769 26.270539 79.234615 26.238973 79.338462 26.207474 79.442308 26.176045 79.546154 26.144692 79.650000 26.113417 79.753846 26.082225 79.857692 26.051121 79.961538 26.020107 80.065385 25.989189 80.169231 25.958365 80.273077 25.927636 80.376923 25.897001 80.480769 25.866460 80.584615 25.836012 80.688462 25.805657 80.792308 25.775396 80.896154 25.745226 81.000000 25.715148 81.103846 25.685162 81.207692 25.655267 81.311538 25.625463 81.415385 25.595750 81.519231 25.566126 81.623077 25.536592 81.726923 25.507147 81.830769 25.477791 81.934615 25.448524 82.038462 25.419345 82.142308 25.390253 82.246154 25.361249 82.350000 25.332332 82.453846 25.303501 82.557692 25.274757 82.661538 25.246098 82.765385 25.217525 82.869231 25.189037 82.973077 25.160633 83.076923 25.132314 83.180769 25.104079 83.284615 25.075928 83.388462 25.047859 83.492308 25.019873 83.596154 24.991970 83.700000 24.964149 83.803846 24.936409 83.907692 24.908751 84.011538 24.881173 84.115385 24.853676 84.219231 24.826259 84.323077 24.798922 84.426923 24.771664 84.530769 24.744485 84.634615 24.717385 84.738462 24.690363 84.842308 24.663419 84.946154 24.636552 85.050000 24.609762 85.153846 24.583049 85.257692 24.556412 85.361538 24.529851 85.465385 24.503366 85.569231 24.476956 85.673077 24.450620 85.776923 24.424359 85.880769 24.398172 85.984615 24.372058 86.088462 24.346018 86.192308 24.320051 86.296154 24.294156 86.400000 24.268333 86.503846 24.242582 86.607692 24.216902 86.711538 24.191294 86.815385 24.165755 86.919231 24.140287 87.023077 24.114889 87.126923 24.089560 87.230769 24.064301 87.334615 24.039109 87.438462 24.013987 87.542308 23.988932 87.646154 23.963944 87.750000 23.939024 87.853846 23.914171 87.957692 23.889383 88.061538 23.864662 88.165385 23.840007 88.269231 23.815416 88.373077 23.790891 88.476923 23.766430 88.580769 23.742033 88.684615 23.717700 88.788462 23.693430 88.892308 23.669223 88.996154 23.645079 89.100000 23.620997 89.203846 23.596976 89.307692 23.573017 89.411538 23.549119 89.515385 23.525282 89.619231 23.501505 89.723077 23.477788 89.826923 23.454130 89.930769 23.430532 90.034615 23.406992 90.138462 23.383511 90.242308 23.360087 90.346154 23.336722 90.450000 23.313413 90.553846 23.290161 90.657692 23.266966 90.761538 23.243827 90.865385 23.220743 90.969231 23.197715 91.073077 23.174742 91.176923 23.151823 91.280769 23.128958 91.384615 23.106148 91.488462 23.083390 91.592308 23.060686 91.696154 23.038034 91.800000 23.015435 91.903846 22.992887 92.007692 22.970391 92.111538 22.947946 92.215385 22.925552 92.319231 22.903208 92.423077 22.880914 92.526923 22.858670 92.630769 22.836475 92.734615 22.814329 92.838462 22.792231 92.942308 22.770181 93.046154 22.748179 93.150000 22.726224 93.253846 22.704316 93.357692 22.682455 93.461538 22.660640 93.565385 22.638870 93.669231 22.617146 93.773077 22.595467 93.876923 22.573833 93.980769 22.552243 94.084615 22.530697 94.188462 22.509194 94.292308 22.487734 94.396154 22.466318 94.500000 22.444943 94.603846 22.423610 94.707692 22.402319 94.811538 22.381070 94.915385 22.359860 95.019231 22.338692 95.123077 22.317563 95.226923 22.296475 95.330769 22.275425 95.434615 22.254414 95.538462 22.233442 95.642308 22.212508 95.746154 22.191612 95.850000 22.170753 95.953846 22.149931 96.057692 22.129146 96.161538 22.108397 96.265385 22.087684 96.369231 22.067006 96.473077 22.046364 96.576923 22.025756 96.680769 22.005183 96.784615 21.984643 96.888462 21.964137 96.992308 21.943664 97.096154 21.923224 97.200000 21.902817 97.303846 21.882441 97.407692 21.862097 97.511538 21.841785 97.615385 21.821503 97.719231 21.801252 97.823077 21.781031 97.926923 21.760840 98.030769 21.740678 98.134615 21.720545 98.238462 21.700440 98.342308 21.680364 98.446154 21.660316 98.550000 21.640295 98.653846 21.620302 98.757692 21.600335 98.861538 21.580394 98.965385 21.560479 99.069231 21.540590 99.173077 21.520726 99.276923 21.500887 99.380769 21.481072 99.484615 21.461282 99.588462 21.441514 99.692308 21.421771 99.796154 21.402050 99.900000 21.382351 100.003846 21.362675 100.107692 21.343020 100.211538 21.323387 100.315385 21.303775 100.419231 21.284183 100.523077 21.264612 100.626923 21.245060 100.730769 21.225528 100.834615 21.206015 100.938462 21.186521 101.042308 21.167045 101.146154 21.147587 101.250000 21.128146 101.353846 21.108723 101.457692 21.089316 101.561538 21.069926 101.665385 21.050552 101.769231 21.031193 101.873077 21.011850 101.976923 20.992522 102.080769 20.973208 102.184615 20.953908 102.288462 20.934622 102.392308 20.915349 102.496154 20.896089 102.600000 20.876842 102.703846 20.857607 102.807692 20.838384 102.911538 20.819172 103.015385 20.799972 103.119231 20.780782 103.223077 20.761602 103.326923 20.742433 103.430769 20.723272 103.534615 20.704121 103.638462 20.684979 103.742308 20.665845 103.846154 20.646719 103.950000 20.627601 104.053846 20.608490 104.157692 20.589386 104.261538 20.570288 104.365385 20.551197 104.469231 20.532111 104.573077 20.513031 104.676923 20.493955 104.780769 20.474884 104.884615 20.455818 104.988462 20.436755 105.092308 20.417695 105.196154 20.398639 105.300000 20.379585 105.403846 20.360533 105.507692 20.341484 105.611538 20.322436 105.715385 20.303389 105.819231 20.284343 105.923077 20.265297" class="line reactive nofill" /></g></g><g class="titles" /><g transform="translate(82, 10)" class="plot overlay"><g class="series serie-0 color-0" /></g><g transform="translate(82, 10)" class="plot text-overlay"><g class="series serie-0 color-0" /></g><g transform="translate(82, 10)" class="plot tooltip-overlay"><g transform="translate(0 0)" style="opacity: 0" class="tooltip"><rect rx="0" ry="0" width="0" height="0" class="tooltip-box" /><g class="text" /></g></g></g></svg>