<?xml version='1.0' encoding='utf-8'?>
<svg xmlns="http://www.w3.org/2000/svg" id="chart-9632f09c-c479-46f1-9382-f26127541c9c" class="pygal-chart pygal-sparkline" viewBox="0 0 200 50" width="200" height="50"><!--Generated with pygal 3.0.5 (etree) ©Kozea 2012-2016 on 2025-03-30--><!--http://pygal.org--><!--http://github.com/Kozea/pygal--><defs><style type="text/css">#chart-9632f09c-c479-46f1-9382-f26127541c9c{-webkit-user-select:none;-webkit-font-smoothing:antialiased;font-family:Consolas,"Liberation Mono",Menlo,Courier,monospace}#chart-9632f09c-c479-46f1-9382-f26127541c9c .title{font-family:Consolas,"Liberation Mono",Menlo,Courier,monospace;font-size:16px}#chart-9632f09c-c479-46f1-9382-f26127541c9c .legends .legend text{font-family:Consolas,"Liberation Mono",Menlo,Courier,monospace;font-size:14px}#chart-9632f09c-c479-46f1-9382-f26127541c9c .axis text{font-family:Consolas,"Liberation Mono",Menlo,Courier,monospace;font-size:10px}#chart-9632f09c-c479-46f1-9382-f26127541c9c .axis text.major{font-family:Consolas,"Liberation Mono",Menlo,Courier,monospace;font-size:10px}#chart-9632f09c-c479-46f1-9382-f26127541c9c .text-overlay text.value{font-family:Consolas,"Liberation Mono",Menlo,Courier,monospace;font-size:16px}#chart-9632f09c-c479-46f1-9382-f26127541c9c .text-overlay text.label{font-family:Consolas,"Liberation Mono",Menlo,Courier,monospace;font-size:10px}#chart-9632f09c-c479-46f1-9382-f26127541c9c .tooltip{font-family:Consolas,"Liberation Mono",Menlo,Courier,monospace;font-size:14px}#chart-9632f09c-c479-46f1-9382-f26127541c9c text.no_data{font-family:Consolas,"Liberation Mono",Menlo,Courier,monospace;font-size:64px}
#chart-9632f09c-c479-46f1-9382-f26127541c9c{background-color:rgba(249,249,249,1)}#chart-9632f09c-c479-46f1-9382-f26127541c9c path,#chart-9632f09c-c479-46f1-9382-f26127541c9c line,#chart-9632f09c-c479-46f1-9382-f26127541c9c rect,#chart-9632f09c-c479-46f1-9382-f26127541c9c circle{-webkit-transition:150ms;-moz-transition:150ms;transition:150ms}#chart-9632f09c-c479-46f1-9382-f26127541c9c .graph &gt; .background{fill:rgba(249,249,249,1)}#chart-9632f09c-c479-46f1-9382-f26127541c9c .plot &gt; .background{fill:rgba(255,255,255,1)}#chart-9632f09c-c479-46f1-9382-f26127541c9c .graph{fill:rgba(0,0,0,.87)}#chart-9632f09c-c479-46f1-9382-f26127541c9c text.no_data{fill:rgba(0,0,0,1)}#chart-9632f09c-c479-46f1-9382-f26127541c9c .title{fill:rgba(0,0,0,1)}#chart-9632f09c-c479-46f1-9382-f26127541c9c .legends .legend text{fill:rgba(0,0,0,.87)}#chart-9632f09c-c479-46f1-9382-f26127541c9c .legends .legend:hover text{fill:rgba(0,0,0,1)}#chart-9632f09c-c479-46f1-9382-f26127541c9c .axis .line{stroke:rgba(0,0,0,1)}#chart-9632f09c-c479-46f1-9382-f26127541c9c .axis .guide.line{stroke:rgba(0,0,0,.54)}#chart-9632f09c-c479-46f1-9382-f26127541c9c .axis .major.line{stroke:rgba(0,0,0,.87)}#chart-9632f09c-c479-46f1-9382-f26127541c9c .axis text.major{fill:rgba(0,0,0,1)}#chart-9632f09c-c479-46f1-9382-f26127541c9c .axis.y .guides:hover .guide.line,#chart-9632f09c-c479-46f1-9382-f26127541c9c .line-graph .axis.x .guides:hover .guide.line,#chart-9632f09c-c479-46f1-9382-f26127541c9c .stackedline-graph .axis.x .guides:hover .guide.line,#chart-9632f09c-c479-46f1-9382-f26127541c9c .xy-graph .axis.x .guides:hover .guide.line{stroke:rgba(0,0,0,1)}#chart-9632f09c-c479-46f1-9382-f26127541c9c .axis .guides:hover text{fill:rgba(0,0,0,1)}#chart-9632f09c-c479-46f1-9382-f26127541c9c .reactive{fill-opacity:.7;stroke-opacity:.8;stroke-width:1}#chart-9632f09c-c479-46f1-9382-f26127541c9c .ci{stroke:rgba(0,0,0,.87)}#chart-9632f09c-c479-46f1-9382-f26127541c9c .reactive.active,#chart-9632f09c-c479-46f1-9382-f26127541c9c .active .reactive{fill-opacity:.8;stroke-opacity:.9;stroke-width:4}#chart-9632f09c-c479-46f1-9382-f26127541c9c .ci .reactive.active{stroke-width:1.5}#chart-9632f09c-c479-46f1-9382-f26127541c9c .series text{fill:rgba(0,0,0,1)}#chart-9632f09c-c479-46f1-9382-f26127541c9c .tooltip rect{fill:rgba(255,255,255,1);stroke:rgba(0,0,0,1);-webkit-transition:opacity 150ms;-moz-transition:opacity 150ms;transition:opacity 150ms}#chart-9632f09c-c479-46f1-9382-f26127541c9c .tooltip .label{fill:rgba(0,0,0,.87)}#chart-9632f09c-c479-46f1-9382-f26127541c9c .tooltip .label{fill:rgba(0,0,0,.87)}#chart-9632f09c-c479-46f1-9382-f26127541c9c .tooltip .legend{font-size:.8em;fill:rgba(0,0,0,.54)}#chart-9632f09c-c479-46f1-9382-f26127541c9c .tooltip .x_label{font-size:.6em;fill:rgba(0,0,0,1)}#chart-9632f09c-c479-46f1-9382-f26127541c9c .tooltip .xlink{font-size:.5em;text-decoration:underline}#chart-9632f09c-c479-46f1-9382-f26127541c9c .tooltip .value{font-size:1.5em}#chart-9632f09c-c479-46f1-9382-f26127541c9c .bound{font-size:.5em}#chart-9632f09c-c479-46f1-9382-f26127541c9c .max-value{font-size:.75em;fill:rgba(0,0,0,.54)}#chart-9632f09c-c479-46f1-9382-f26127541c9c .map-element{fill:rgba(255,255,255,1);stroke:rgba(0,0,0,.54) !important}#chart-9632f09c-c479-46f1-9382-f26127541c9c .map-element .reactive{fill-opacity:inherit;stroke-opacity:inherit}#chart-9632f09c-c479-46f1-9382-f26127541c9c .color-0,#chart-9632f09c-c479-46f1-9382-f26127541c9c .color-0 a:visited{stroke:#F44336;fill:#F44336}#chart-9632f09c-c479-46f1-9382-f26127541c9c .text-overlay .color-0 text{fill:black}
#chart-9632f09c-c479-46f1-9382-f26127541c9c text.no_data{text-anchor:middle}#chart-9632f09c-c479-46f1-9382-f26127541c9c .guide.line{fill:none}#chart-9632f09c-c479-46f1-9382-f26127541c9c .centered{text-anchor:middle}#chart-9632f09c-c479-46f1-9382-f26127541c9c .title{text-anchor:middle}#chart-9632f09c-c479-46f1-9382-f26127541c9c .legends .legend text{fill-opacity:1}#chart-9632f09c-c479-46f1-9382-f26127541c9c .axis.x text{text-anchor:middle}#chart-9632f09c-c479-46f1-9382-f26127541c9c .axis.x:not(.web) text[transform]{text-anchor:start}#chart-9632f09c-c479-46f1-9382-f26127541c9c .axis.x:not(.web) text[transform].backwards{text-anchor:end}#chart-9632f09c-c479-46f1-9382-f26127541c9c .axis.y text{text-anchor:end}#chart-9632f09c-c479-46f1-9382-f26127541c9c .axis.y text[transform].backwards{text-anchor:start}#chart-9632f09c-c479-46f1-9382-f26127541c9c .axis.y2 text{text-anchor:start}#chart-9632f09c-c479-46f1-9382-f26127541c9c .axis.y2 text[transform].backwards{text-anchor:end}#chart-9632f09c-c479-46f1-9382-f26127541c9c .axis .guide.line{stroke-dasharray:4,4;stroke:black}#chart-9632f09c-c479-46f1-9382-f26127541c9c .axis .major.guide.line{stroke-dasharray:6,6;stroke:black}#chart-9632f09c-c479-46f1-9382-f26127541c9c .horizontal .axis.y .guide.line,#chart-9632f09c-c479-46f1-9382-f26127541c9c .horizontal .axis.y2 .guide.line,#chart-9632f09c-c479-46f1-9382-f26127541c9c .vertical .axis.x .guide.line{opacity:0}#chart-9632f09c-c479-46f1-9382-f26127541c9c .horizontal .axis.always_show .guide.line,#chart-9632f09c-c479-46f1-9382-f26127541c9c .vertical .axis.always_show .guide.line{opacity:1 !important}#chart-9632f09c-c479-46f1-9382-f26127541c9c .axis.y .guides:hover .guide.line,#chart-9632f09c-c479-46f1-9382-f26127541c9c .axis.y2 .guides:hover .guide.line,#chart-9632f09c-c479-46f1-9382-f26127541c9c .axis.x .guides:hover .guide.line{opacity:1}#chart-9632f09c-c479-46f1-9382-f26127541c9c .axis .guides:hover text{opacity:1}#chart-9632f09c-c479-46f1-9382-f26127541c9c .nofill{fill:none}#chart-9632f09c-c479-46f1-9382-f26127541c9c .subtle-fill{fill-opacity:.2}#chart-9632f09c-c479-46f1-9382-f26127541c9c .dot{stroke-width:1px;fill-opacity:1;stroke-opacity:1}#chart-9632f09c-c479-46f1-9382-f26127541c9c .dot.active{stroke-width:5px}#chart-9632f09c-c479-46f1-9382-f26127541c9c .dot.negative{fill:transparent}#chart-9632f09c-c479-46f1-9382-f26127541c9c text,#chart-9632f09c-c479-46f1-9382-f26127541c9c tspan{stroke:none !important}#chart-9632f09c-c479-46f1-9382-f26127541c9c .series text.active{opacity:1}#chart-9632f09c-c479-46f1-9382-f26127541c9c .tooltip rect{fill-opacity:.95;stroke-width:.5}#chart-9632f09c-c479-46f1-9382-f26127541c9c .tooltip text{fill-opacity:1}#chart-9632f09c-c479-46f1-9382-f26127541c9c .showable{visibility:hidden}#chart-9632f09c-c479-46f1-9382-f26127541c9c .showable.shown{visibility:visible}#chart-9632f09c-c479-46f1-9382-f26127541c9c .gauge-background{fill:rgba(229,229,229,1);stroke:none}#chart-9632f09c-c479-46f1-9382-f26127541c9c .bg-lines{stroke:rgba(249,249,249,1);stroke-width:2px}</style><script type="text/javascript">window.pygal = window.pygal || {};window.pygal.config = window.pygal.config || {};window.pygal.config['9632f09c-c479-46f1-9382-f26127541c9c'] = {"allow_interruptions": false, "box_mode": "extremes", "classes": ["pygal-chart", "pygal-sparkline"], "css": ["file://style.css", "file://graph.css"], "defs": [], "disable_xml_declaration": false, "dots_size": 2.5, "dynamic_print_values": false, "explicit_size": true, "fill": false, "force_uri_protocol": "https", "formatter": null, "half_pie": false, "height": 50, "include_x_axis": false, "inner_radius": 0, "interpolate": "cubic", "interpolation_parameters": {}, "interpolation_precision": 250, "inverse_y_axis": false, "js": [], "legend_at_bottom": false, "legend_at_bottom_columns": null, "legend_box_size": 12, "logarithmic": false, "margin": 10, "margin_bottom": null, "margin_left": null, "margin_right": null, "margin_top": null, "max_scale": 2, "min_scale": 1, "missing_value_fill_truncation": "x", "no_data_text": "", "no_prefix": false, "order_min": null, "pretty_print": false, "print_labels": false, "print_values": false, "print_values_position": "center", "print_zeroes": true, "range": null, "rounded_bars": null, "secondary_range": null, "show_dots": false, "show_legend": false, "show_minor_x_labels": true, "show_minor_y_labels": true, "show_only_major_dots": false, "show_x_guides": false, "show_x_labels": false, "show_y_guides": true, "show_y_labels": true, "spacing": 0, "stack_from_top": false, "strict": false, "stroke": true, "stroke_style": null, "style": {"background": "rgba(249, 249, 249, 1)", "ci_colors": [], "colors": ["#F44336", "#3F51B5", "#009688", "#FFC107", "#FF5722", "#9C27B0", "#03A9F4", "#8BC34A", "#FF9800", "#E91E63", "#2196F3", "#4CAF50", "#FFEB3B", "#673AB7", "#00BCD4", "#CDDC39", "#9E9E9E", "#607D8B"], "dot_opacity": "1", "font_family": "Consolas, \"Liberation Mono\", Menlo, Courier, monospace", "foreground": "rgba(0, 0, 0, .87)", "foreground_strong": "rgba(0, 0, 0, 1)", "foreground_subtle": "rgba(0, 0, 0, .54)", "guide_stroke_color": "black", "guide_stroke_dasharray": "4,4", "label_font_family": "Consolas, \"Liberation Mono\", Menlo, Courier, monospace", "label_font_size": 10, "legend_font_family": "Consolas, \"Liberation Mono\", Menlo, Courier, monospace", "legend_font_size": 14, "major_guide_stroke_color": "black", "major_guide_stroke_dasharray": "6,6", "major_label_font_family": "Consolas, \"Liberation Mono\", Menlo, Courier, monospace", "major_label_font_size": 10, "no_data_font_family": "Consolas, \"Liberation Mono\", Menlo, Courier, monospace", "no_data_font_size": 64, "opacity": ".7", "opacity_hover": ".8", "plot_background": "rgba(255, 255, 255, 1)", "stroke_opacity": ".8", "stroke_opacity_hover": ".9", "stroke_width": "1", "stroke_width_hover": "4", "title_font_family": "Consolas, \"Liberation Mono\", Menlo, Courier, monospace", "title_font_size": 16, "tooltip_font_family": "Consolas, \"Liberation Mono\", Menlo, Courier, monospace", "tooltip_font_size": 14, "transition": "150ms", "value_background": "rgba(229, 229, 229, 1)", "value_colors": [], "value_font_family": "Consolas, \"Liberation Mono\", Menlo, Courier, monospace", "value_font_size": 16, "value_label_font_family": "Consolas, \"Liberation Mono\", Menlo, Courier, monospace", "value_label_font_size": 10}, "title": null, "tooltip_border_radius": 0, "tooltip_fancy_mode": true, "truncate_label": null, "truncate_legend": null, "width": 200, "x_label_rotation": 0, "x_labels": ["2025/2", "2025/1", "2024/12", "2024/11"], "x_labels_major": null, "x_labels_major_count": null, "x_labels_major_every": null, "x_title": null, "xrange": null, "y_label_rotation": 0, "y_labels": null, "y_labels_major": null, "y_labels_major_count": null, "y_labels_major_every": null, "y_title": null, "zero": 0, "legends": [""]}</script></defs><title>Pygal</title><g class="graph line-graph vertical"><rect x="0" y="0" width="200" height="50" class="background" /><g transform="translate(20, 10)" class="plot"><rect x="0" y="0" width="170" height="30" class="background" /><g class="axis y always_show"><path d="M0.000000 30.000000 h170.000000" class="line" /><g class="guides"><path d="M0.000000 29.103391 h170.000000" class="guide line" /><text x="-5" y="32.60339061448825" class="">6</text><title>6</title></g><g class="guides"><path d="M0.000000 10.085746 h170.000000" class="guide line" /><text x="-5" y="13.585745589444798" class="">8</text><title>8</title></g></g><g class="series serie-0 color-0"><path d="M3.269231 0.576923 L3.487179 0.655529 3.705128 0.734135 3.923077 0.812741 4.141026 0.891346 4.358974 0.969949 4.576923 1.048552 4.794872 1.127153 5.012821 1.205752 5.230769 1.284350 5.448718 1.362945 5.666667 1.441538 5.884615 1.520128 6.102564 1.598715 6.320513 1.677299 6.538462 1.755880 6.756410 1.834457 6.974359 1.913030 7.192308 1.991599 7.410256 2.070164 7.628205 2.148724 7.846154 2.227279 8.064103 2.305829 8.282051 2.384374 8.500000 2.462913 8.717949 2.541446 8.935897 2.619973 9.153846 2.698494 9.371795 2.777008 9.589744 2.855515 9.807692 2.934016 10.025641 3.012509 10.243590 3.090994 10.461538 3.169472 10.679487 3.247942 10.897436 3.326403 11.115385 3.404856 11.333333 3.483300 11.551282 3.561735 11.769231 3.640161 11.987179 3.718577 12.205128 3.796984 12.423077 3.875380 12.641026 3.953767 12.858974 4.032143 13.076923 4.110508 13.294872 4.188862 13.512821 4.267205 13.730769 4.345537 13.948718 4.423857 14.166667 4.502165 14.384615 4.580461 14.602564 4.658744 14.820513 4.737015 15.038462 4.815273 15.256410 4.893518 15.474359 4.971749 15.692308 5.049967 15.910256 5.128171 16.128205 5.206360 16.346154 5.284536 16.564103 5.362696 16.782051 5.440842 17.000000 5.518973 17.217949 5.597089 17.435897 5.675189 17.653846 5.753273 17.871795 5.831341 18.089744 5.909392 18.307692 5.987428 18.525641 6.065446 18.743590 6.143447 18.961538 6.221431 19.179487 6.299398 19.397436 6.377346 19.615385 6.455277 19.833333 6.533190 20.051282 6.611084 20.269231 6.688959 20.487179 6.766815 20.705128 6.844652 20.923077 6.922470 21.141026 7.000267 21.358974 7.078045 21.576923 7.155803 21.794872 7.233540 22.012821 7.311257 22.230769 7.388952 22.448718 7.466627 22.666667 7.544279 22.884615 7.621911 23.102564 7.699520 23.320513 7.777107 23.538462 7.854672 23.756410 7.932214 23.974359 8.009734 24.192308 8.087230 24.410256 8.164703 24.628205 8.242152 24.846154 8.319577 25.064103 8.396979 25.282051 8.474356 25.500000 8.551708 25.717949 8.629035 25.935897 8.706338 26.153846 8.783615 26.371795 8.860867 26.589744 8.938092 26.807692 9.015292 27.025641 9.092465 27.243590 9.169612 27.461538 9.246732 27.679487 9.323826 27.897436 9.400891 28.115385 9.477930 28.333333 9.554940 28.551282 9.631923 28.769231 9.708877 28.987179 9.785803 29.205128 9.862700 29.423077 9.939568 29.641026 10.016407 29.858974 10.093217 30.076923 10.169997 30.294872 10.246746 30.512821 10.323466 30.730769 10.400155 30.948718 10.476814 31.166667 10.553442 31.384615 10.630038 31.602564 10.706603 31.820513 10.783137 32.038462 10.859638 32.256410 10.936108 32.474359 11.012545 32.692308 11.088949 32.910256 11.165321 33.128205 11.241659 33.346154 11.317964 33.564103 11.394236 33.782051 11.470474 34.000000 11.546677 34.217949 11.622846 34.435897 11.698981 34.653846 11.775081 34.871795 11.851146 35.089744 11.927176 35.307692 12.003170 35.525641 12.079128 35.743590 12.155050 35.961538 12.230936 36.179487 12.306785 36.397436 12.382598 36.615385 12.458374 36.833333 12.534112 37.051282 12.609813 37.269231 12.685476 37.487179 12.761102 37.705128 12.836689 37.923077 12.912237 38.141026 12.987747 38.358974 13.063218 38.576923 13.138650 38.794872 13.214042 39.012821 13.289394 39.230769 13.364707 39.448718 13.439980 39.666667 13.515212 39.884615 13.590403 40.102564 13.665554 40.320513 13.740663 40.538462 13.815731 40.756410 13.890758 40.974359 13.965742 41.192308 14.040685 41.410256 14.115585 41.628205 14.190442 41.846154 14.265257 42.064103 14.340028 42.282051 14.414756 42.500000 14.489441 42.717949 14.564082 42.935897 14.638679 43.153846 14.713231 43.371795 14.787739 43.589744 14.862202 43.807692 14.936620 44.025641 15.010993 44.243590 15.085320 44.461538 15.159602 44.679487 15.233837 44.897436 15.308027 45.115385 15.382169 45.333333 15.456265 45.551282 15.530314 45.769231 15.604316 45.987179 15.678271 46.205128 15.752177 46.423077 15.826036 46.641026 15.899846 46.858974 15.973608 47.076923 16.047322 47.294872 16.120986 47.512821 16.194602 47.730769 16.268167 47.948718 16.341684 48.166667 16.415150 48.384615 16.488566 48.602564 16.561932 48.820513 16.635247 49.038462 16.708511 49.256410 16.781724 49.474359 16.854886 49.692308 16.927996 49.910256 17.001055 50.128205 17.074061 50.346154 17.147015 50.564103 17.219916 50.782051 17.292764 51.000000 17.365560 51.217949 17.438302 51.435897 17.510990 51.653846 17.583625 51.871795 17.656206 52.089744 17.728732 52.307692 17.801204 52.525641 17.873621 52.743590 17.945983 52.961538 18.018290 53.179487 18.090542 53.397436 18.162737 53.615385 18.234877 53.833333 18.306960 54.051282 18.378987 54.269231 18.450957 54.487179 18.522871 54.705128 18.594727 54.923077 18.666525 55.141026 18.738266 55.358974 18.809949 55.576923 18.881574 55.794872 18.953140 56.012821 19.024648 56.230769 19.096097 56.448718 19.167486 56.666667 19.238816 56.884615 19.310087 57.102564 19.381298 57.320513 19.452448 57.538462 19.523539 57.756410 19.594568 57.974359 19.665536 58.192308 19.736442 58.410256 19.807281 58.628205 19.878052 58.846154 19.948753 59.064103 20.019380 59.282051 20.089932 59.500000 20.160407 59.717949 20.230801 59.935897 20.301112 60.153846 20.371338 60.371795 20.441476 60.589744 20.511524 60.807692 20.581480 61.025641 20.651341 61.243590 20.721104 61.461538 20.790768 61.679487 20.860329 61.897436 20.929786 62.115385 20.999135 62.333333 21.068375 62.551282 21.137503 62.769231 21.206517 62.987179 21.275414 63.205128 21.344191 63.423077 21.412847 63.641026 21.481379 63.858974 21.549784 64.076923 21.618060 64.294872 21.686205 64.512821 21.754216 64.730769 21.822090 64.948718 21.889826 65.166667 21.957420 65.384615 22.024871 65.602564 22.092176 65.820513 22.159332 66.038462 22.226338 66.256410 22.293190 66.474359 22.359886 66.692308 22.426424 66.910256 22.492801 67.128205 22.559015 67.346154 22.625064 67.564103 22.690945 67.782051 22.756655 68.000000 22.822193 68.217949 22.887555 68.435897 22.952740 68.653846 23.017744 68.871795 23.082566 69.089744 23.147203 69.307692 23.211652 69.525641 23.275912 69.743590 23.339979 69.961538 23.403852 70.179487 23.467527 70.397436 23.531003 70.615385 23.594276 70.833333 23.657346 71.051282 23.720208 71.269231 23.782861 71.487179 23.845302 71.705128 23.907529 71.923077 23.969539 72.141026 24.031331 72.358974 24.092900 72.576923 24.154246 72.794872 24.215365 73.012821 24.276256 73.230769 24.336915 73.448718 24.397341 73.666667 24.457530 73.884615 24.517481 74.102564 24.577191 74.320513 24.636658 74.538462 24.695878 74.756410 24.754851 74.974359 24.813572 75.192308 24.872041 75.410256 24.930254 75.628205 24.988208 75.846154 25.045903 76.064103 25.103334 76.282051 25.160500 76.500000 25.217399 76.717949 25.274027 76.935897 25.330382 77.153846 25.386463 77.371795 25.442266 77.589744 25.497789 77.807692 25.553029 78.025641 25.607985 78.243590 25.662654 78.461538 25.717033 78.679487 25.771119 78.897436 25.824912 79.115385 25.878407 79.333333 25.931603 79.551282 25.984497 79.769231 26.037087 79.987179 26.089370 80.205128 26.141343 80.423077 26.193006 80.641026 26.244354 80.858974 26.295386 81.076923 26.346099 81.294872 26.396490 81.512821 26.446558 81.730769 26.496300 81.948718 26.545713 82.166667 26.594795 82.384615 26.643543 82.602564 26.691956 82.820513 26.740030 83.038462 26.787763 83.256410 26.835153 83.474359 26.882198 83.692308 26.928894 83.910256 26.975240 84.128205 27.021233 84.346154 27.066870 84.564103 27.112150 84.782051 27.157069 85.000000 27.201626 85.217949 27.245818 85.435897 27.289642 85.653846 27.333096 85.871795 27.376177 86.089744 27.418884 86.307692 27.461213 86.525641 27.503163 86.743590 27.544730 86.961538 27.585913 87.179487 27.626709 87.397436 27.667115 87.615385 27.707129 87.833333 27.746749 88.051282 27.785972 88.269231 27.824796 88.487179 27.863219 88.705128 27.901237 88.923077 27.938849 89.141026 27.976051 89.358974 28.012843 89.576923 28.049220 89.794872 28.085182 90.012821 28.120724 90.230769 28.155846 90.448718 28.190544 90.666667 28.224816 90.884615 28.258659 91.102564 28.292072 91.320513 28.325051 91.538462 28.357595 91.756410 28.389700 91.974359 28.421365 92.192308 28.452587 92.410256 28.483363 92.628205 28.513691 92.846154 28.543570 93.064103 28.572995 93.282051 28.601965 93.500000 28.630477 93.717949 28.658530 93.935897 28.686120 94.153846 28.713245 94.371795 28.739902 94.589744 28.766090 94.807692 28.791806 95.025641 28.817046 95.243590 28.841810 95.461538 28.866094 95.679487 28.889896 95.897436 28.913214 96.115385 28.936045 96.333333 28.958387 96.551282 28.980237 96.769231 29.001592 96.987179 29.022452 97.205128 29.042812 97.423077 29.062670 97.641026 29.082025 97.858974 29.100874 98.076923 29.119213 98.294872 29.137042 98.512821 29.154357 98.730769 29.171156 98.948718 29.187436 99.166667 29.203195 99.384615 29.218431 99.602564 29.233141 99.820513 29.247323 100.038462 29.260975 100.256410 29.274093 100.474359 29.286676 100.692308 29.298720 100.910256 29.310225 101.128205 29.321186 101.346154 29.331602 101.564103 29.341471 101.782051 29.350789 102.000000 29.359555 102.217949 29.367766 102.435897 29.375419 102.653846 29.382512 102.871795 29.389044 103.089744 29.395010 103.307692 29.400409 103.525641 29.405239 103.743590 29.409496 103.961538 29.413179 104.179487 29.416285 104.397436 29.418812 104.615385 29.420757 104.833333 29.422118 105.051282 29.422892 105.269231 29.423077 105.487179 29.422670 105.705128 29.421670 105.923077 29.420073 106.141026 29.417877 106.358974 29.415080 106.576923 29.411680 106.794872 29.407673 107.012821 29.403058 107.230769 29.397831 107.448718 29.391991 107.666667 29.385536 107.884615 29.378462 108.102564 29.370767 108.320513 29.362449 108.538462 29.353506 108.756410 29.343934 108.974359 29.333732 109.192308 29.322897 109.410256 29.311427 109.628205 29.299319 109.846154 29.286571 110.064103 29.273180 110.282051 29.259144 110.500000 29.244461 110.717949 29.229127 110.935897 29.213142 111.153846 29.196501 111.371795 29.179203 111.589744 29.161246 111.807692 29.142626 112.025641 29.123342 112.243590 29.103391 112.461538 29.082771 112.679487 29.061484 112.897436 29.039534 113.115385 29.016922 113.333333 28.993651 113.551282 28.969725 113.769231 28.945144 113.987179 28.919914 114.205128 28.894035 114.423077 28.867511 114.641026 28.840344 114.858974 28.812538 115.076923 28.784094 115.294872 28.755015 115.512821 28.725305 115.730769 28.694965 115.948718 28.663999 116.166667 28.632408 116.384615 28.600197 116.602564 28.567367 116.820513 28.533921 117.038462 28.499862 117.256410 28.465192 117.474359 28.429915 117.692308 28.394032 117.910256 28.357547 118.128205 28.320463 118.346154 28.282781 118.564103 28.244504 118.782051 28.205636 119.000000 28.166179 119.217949 28.126135 119.435897 28.085508 119.653846 28.044299 119.871795 28.002512 120.089744 27.960150 120.307692 27.917214 120.525641 27.873708 120.743590 27.829635 120.961538 27.784996 121.179487 27.739795 121.397436 27.694035 121.615385 27.647717 121.833333 27.600845 122.051282 27.553422 122.269231 27.505450 122.487179 27.456931 122.705128 27.407869 122.923077 27.358266 123.141026 27.308125 123.358974 27.257448 123.576923 27.206239 123.794872 27.154499 124.012821 27.102231 124.230769 27.049439 124.448718 26.996125 124.666667 26.942291 124.884615 26.887941 125.102564 26.833076 125.320513 26.777700 125.538462 26.721815 125.756410 26.665424 125.974359 26.608530 126.192308 26.551135 126.410256 26.493242 126.628205 26.434853 126.846154 26.375972 127.064103 26.316601 127.282051 26.256742 127.500000 26.196399 127.717949 26.135574 127.935897 26.074269 128.153846 26.012488 128.371795 25.950233 128.589744 25.887507 128.807692 25.824312 129.025641 25.760651 129.243590 25.696527 129.461538 25.631942 129.679487 25.566900 129.897436 25.501402 130.115385 25.435452 130.333333 25.369052 130.551282 25.302204 130.769231 25.234913 130.987179 25.167179 131.205128 25.099006 131.423077 25.030397 131.641026 24.961354 131.858974 24.891880 132.076923 24.821977 132.294872 24.751649 132.512821 24.680898 132.730769 24.609726 132.948718 24.538136 133.166667 24.466132 133.384615 24.393715 133.602564 24.320889 133.820513 24.247655 134.038462 24.174017 134.256410 24.099977 134.474359 24.025539 134.692308 23.950704 134.910256 23.875476 135.128205 23.799856 135.346154 23.723849 135.564103 23.647455 135.782051 23.570679 136.000000 23.493523 136.217949 23.415989 136.435897 23.338080 136.653846 23.259799 136.871795 23.181149 137.089744 23.102131 137.307692 23.022750 137.525641 22.943007 137.743590 22.862905 137.961538 22.782447 138.179487 22.701635 138.397436 22.620473 138.615385 22.538963 138.833333 22.457107 139.051282 22.374909 139.269231 22.292370 139.487179 22.209494 139.705128 22.126284 139.923077 22.042741 140.141026 21.958869 140.358974 21.874670 140.576923 21.790148 140.794872 21.705304 141.012821 21.620141 141.230769 21.534662 141.448718 21.448870 141.666667 21.362768 141.884615 21.276357 142.102564 21.189642 142.320513 21.102623 142.538462 21.015305 142.756410 20.927690 142.974359 20.839780 143.192308 20.751578 143.410256 20.663087 143.628205 20.574309 143.846154 20.485248 144.064103 20.395906 144.282051 20.306285 144.500000 20.216388 144.717949 20.126218 144.935897 20.035777 145.153846 19.945069 145.371795 19.854096 145.589744 19.762860 145.807692 19.671365 146.025641 19.579613 146.243590 19.487606 146.461538 19.395347 146.679487 19.302840 146.897436 19.210086 147.115385 19.117088 147.333333 19.023850 147.551282 18.930373 147.769231 18.836660 147.987179 18.742715 148.205128 18.648539 148.423077 18.554136 148.641026 18.459508 148.858974 18.364657 149.076923 18.269587 149.294872 18.174300 149.512821 18.078799 149.730769 17.983086 149.948718 17.887164 150.166667 17.791037 150.384615 17.694705 150.602564 17.598173 150.820513 17.501443 151.038462 17.404517 151.256410 17.307399 151.474359 17.210090 151.692308 17.112594 151.910256 17.014913 152.128205 16.917050 152.346154 16.819008 152.564103 16.720789 152.782051 16.622396 153.000000 16.523831 153.217949 16.425098 153.435897 16.326199 153.653846 16.227137 153.871795 16.127913 154.089744 16.028532 154.307692 15.928996 154.525641 15.829307 154.743590 15.729468 154.961538 15.629481 155.179487 15.529350 155.397436 15.429078 155.615385 15.328665 155.833333 15.228117 156.051282 15.127434 156.269231 15.026621 156.487179 14.925678 156.705128 14.824610 156.923077 14.723419 157.141026 14.622107 157.358974 14.520678 157.576923 14.419133 157.794872 14.317476 158.012821 14.215709 158.230769 14.113835 158.448718 14.011856 158.666667 13.909776 158.884615 13.807596 159.102564 13.705321 159.320513 13.602951 159.538462 13.500491 159.756410 13.397942 159.974359 13.295307 160.192308 13.192590 160.410256 13.089792 160.628205 12.986916 160.846154 12.883966 161.064103 12.780943 161.282051 12.677851 161.500000 12.574691 161.717949 12.471468 161.935897 12.368182 162.153846 12.264838 162.371795 12.161438 162.589744 12.057984 162.807692 11.954479 163.025641 11.850926 163.243590 11.747328 163.461538 11.643686 163.679487 11.540005 163.897436 11.436286 164.115385 11.332532 164.333333 11.228746 164.551282 11.124931 164.769231 11.021088 164.987179 10.917222 165.205128 10.813334 165.423077 10.709428 165.641026 10.605505 165.858974 10.501570 166.076923 10.397623 166.294872 10.293668 166.512821 10.189708 166.730769 10.085746" class="line reactive nofill" /></g></g><g class="titles" /><g transform="translate(20, 10)" class="plot overlay"><g class="series serie-0 color-0" /></g><g transform="translate(20, 10)" class="plot text-overlay"><g class="series serie-0 color-0" /></g><g transform="translate(20, 10)" class="plot tooltip-overlay"><g transform="translate(0 0)" style="opacity: 0" class="tooltip"><rect rx="0" ry="0" width="0" height="0" class="tooltip-box" /><g class="text" /></g></g></g></svg>